<?xml version="1.0" encoding="utf-8"?>
<!-- Generator: Adobe Illustrator 16.0.0, SVG Export Plug-In . SVG Version: 6.00 Build 0)  -->
<!DOCTYPE svg PUBLIC "-//W3C//DTD SVG 1.1//EN" "http://www.w3.org/Graphics/SVG/1.1/DTD/svg11.dtd">
<svg version="1.1" id="Layer_1" xmlns="http://www.w3.org/2000/svg" xmlns:xlink="http://www.w3.org/1999/xlink" x="0px" y="0px"
	 width="900px" height="450px" viewBox="0 0 900 450" enable-background="new 0 0 900 450" xml:space="preserve">
<g transform="matrix( 1, 0, 0, 1, -17.1,93.25) ">
	<g>
		<g id="Layer0_0_FILL">
			<path fill="#5B5B5B" d="M407.606,99.428c1.127-3.124,1.431-7.157,0.91-12.104c-0.52-5.031-1.821-8.501-3.904-10.41
				c-1.995-1.995-3.947-3.036-5.855-3.123c-1.908-0.088-3.556,1.084-4.945,3.514c-1.388,2.515-3.122,6.419-5.205,11.712
				c-2.256,5.205-2.775,9.325-1.562,12.362c1.215,3.036,4.599,4.251,10.151,3.644C402.92,104.33,406.391,102.464,407.606,99.428
				 M315.863,130.009c18.826-0.954,34.744-5.465,47.757-13.534c2.603-1.562,4.946-3.167,7.027-4.815l-9.499-16.006l-16.267-22.512
				C337.161,90.752,327.488,109.708,315.863,130.009 M421.27,103.462c2.255-9.543,5.682-12.536,10.279-8.98
				c1.822,2.69,3.384,10.021,4.686,21.993c0.867-0.347,1.605-0.737,2.211-1.171c0.695-1.474,1.605-2.56,2.733-3.253
				c0.086-0.086,0.173-0.129,0.26-0.129c0.173-0.261,0.26-0.521,0.26-0.78c1.389-4.078,3.21-9.284,5.465-15.616
				c2.342-6.334,1.648-11.625-2.082-15.876c-3.644-4.337-8.286-6.506-13.924-6.506c-5.552,0-10.324,2.125-14.314,6.375
				c-3.904,4.338-5.856,9.544-5.856,15.616c0,6.073,1.952,11.235,5.856,15.486c0.347,0.433,0.737,0.823,1.172,1.171
				c0.433,0.259,0.867,0.477,1.301,0.651C419.925,109.231,420.576,106.237,421.27,103.462 M467.335,99.297
				c1.734-2.342,3.732-4.555,5.987-6.636c0.348-1.215,0.736-2.342,1.171-3.384c0.26-3.73-0.563-6.463-2.473-8.198
				c-2.343-2.082-5.987-2.776-10.932-2.082c-0.26,0-0.433,0.043-0.521,0.13c-2.254,0.347-4.25,1.258-5.985,2.733
				c-1.822,1.561-3.383,3.816-4.684,6.766c-0.955,2.43-1.779,4.772-2.473,7.028c-0.868,3.036-1.605,6.117-2.212,9.239
				c-0.347,3.21-0.173,5.813,0.521,7.808c1.215,0.781,2.472,2.126,3.773,4.035c1.997,0.78,4.511,0.434,7.549-1.041
				c0.347-0.26,0.737-0.478,1.17-0.65C460.656,109.231,463.692,103.983,467.335,99.297 M361.41,42.43
				c-15.758-9.137-34.583-12.737-56.478-10.801c-22.556,1.995-41.771,11.192-57.648,27.588
				c-15.876,16.484-23.423,30.191-22.643,41.121c0.781,11.018,8.458,18.653,23.033,22.904c13.36,3.816,30.495,6.073,51.402,6.767
				l36.177-70.662c4.686-2.082,9.066-2.082,13.144,0c11.538,11.018,22.382,24.768,32.533,41.252c3.904-6.16,5.899-12.926,5.985-20.3
				c0-10.932-4.38-20.518-13.143-28.76c-3.037-2.862-6.681-5.595-10.932-8.198C362.369,43.054,361.892,42.75,361.41,42.43
				 M491.279,136.386c-1.561-4.513-3.34-9.5-5.335-14.966c-4.943,5.466-8.979,8.98-12.101,10.542
				C477.137,136.124,482.953,137.601,491.279,136.386 M514.834,72.491c-0.521-0.088-0.998-0.174-1.434-0.261l-0.259,0.13
				L514.834,72.491 M503.512,71.189c-1.302-0.088-2.56-0.088-3.774,0c-9.801,0.433-16.785,3.816-20.951,10.15
				c-1.649,2.342-3.077,4.988-4.293,7.938c-0.086,0.521-0.173,1.128-0.262,1.822c0,0.173,0,0.347,0,0.521
				c2.431-2.43,5.119-4.771,8.07-7.027c4.076,3.904,10.975,19.259,20.688,46.067c0.262,0.867,0.564,1.777,0.912,2.732
				c5.899-1.995,11.799-4.684,17.697-8.068c9.631-5.639,15.616-13.881,17.96-24.725c2.341-10.93-1.261-18.695-10.802-23.293
				c-4.599-2.169-9.239-3.774-13.924-4.815l-1.692-0.131L503.512,71.189 M618.157,160.979l0.133,0.133
				c0.086-0.521,0.216-1.043,0.389-1.563c-0.087-0.087-0.173-0.173-0.26-0.259L618.157,160.979 M618.418,159.289
				c-0.693-0.521-1.39-0.999-2.081-1.432c0.604,1.04,1.215,2.082,1.819,3.121L618.418,159.289 M616.988,153.821
				c-1.735-0.691-3.386-1.301-4.946-1.819c1.647,1.646,3.081,3.599,4.296,5.855c0.691,0.433,1.388,0.91,2.081,1.432
				c0.436-1.478,0.867-2.905,1.302-4.296C618.329,154.386,617.42,153.994,616.988,153.821 M614.123,115.824
				c-1.388-2.43-2.861-4.772-4.425-7.028h-0.13c-0.259-0.433-0.521-0.867-0.78-1.301c-5.638-8.501-12.017-16.049-19.128-22.642
				c-9.371-8.676-17.396-11.235-24.074-7.678c-6.769,3.644-11.845,8.849-15.228,15.616c-3.383,6.594-6.115,11.018-8.196,13.274
				c-2.084,2.256-5.338,7.765-9.76,16.527c-4.514,8.676-0.479,17.872,12.101,27.588c12.578,9.544,22.6,16.568,30.06,21.08
				c7.203,4.166,15.486,6.204,24.857,6.117c-3.472-8.069-1.434-17.265,6.115-27.589c-4.946-1.475-9.501-2.428-13.664-2.862
				c-0.432-1.822,0.607-2.994,3.124-3.515c6.506,0.435,14.139,2.43,22.902,5.988c0.78,0.346,1.692,0.736,2.732,1.169
				c1.128-8.588,0.521-16.698-1.822-24.333c-0.78-0.694-1.083-1.474-0.91-2.342C616.856,121.202,615.6,118.513,614.123,115.824
				 M579.249,127.406c2.603,2.603,4.382,5.422,5.335,8.459c0.78,3.123,0.389,5.464-1.172,7.027c-1.561,1.733-3.773,2.298-6.636,1.69
				c-3.297-0.78-6.334-2.474-9.109-5.076c-2.603-2.516-4.339-5.291-5.205-8.327s-0.521-5.378,1.04-7.026
				c1.474-1.65,3.773-2.169,6.897-1.562C573.434,123.459,576.385,125.063,579.249,127.406z"/>
			<path fill="#A15324" d="M415.283,295.405l-5.855-2.343c-2.082,6.854-5.162,13.836-9.239,20.953
				c-3.817,6.506-7.461,11.579-10.931,15.224c-0.52,3.384,1.822,3.384,7.027,0c2.776-1.822,5.942-5.855,9.5-12.103
				C409.687,310.371,412.854,303.127,415.283,295.405 M414.632,210.299l-6.636-1.431c-1.475,21.69-0.998,49.755,1.431,84.194
				l5.855,2.343C412.073,269.033,411.857,240.664,414.632,210.299 M243.9,295.146c-2.603,1.039-4.251,0.13-4.945-2.735
				c-16.396,19.088-33.096,35.354-50.101,48.8c-2.603,3.123-0.434,5.032,6.506,5.727C212.017,333.144,228.198,315.881,243.9,295.146
				 M238.955,292.411c0.694,2.865,2.342,3.774,4.945,2.735c11.192-28.456,20.431-59.688,27.719-93.695
				c-2.43,0.605-4.858-0.563-7.288-3.515C259.472,230.99,251.014,262.481,238.955,292.411 M539.038,270.811
				c-0.348,8.501-0.866,15.485-1.563,20.95c-0.69,5.378-2.991,13.491-6.895,24.336c1.908,2.775,4.206,2.775,6.895,0
				c1.043-1.128,2.822-6.29,5.338-15.486c2.517-9.108,2.43-19.738-0.262-31.882L539.038,270.811 M536.306,237.367
				c-3.037-14.314-5.942-24.422-8.72-30.321l-7.157,5.075c2.516,3.645,5.597,12.319,9.238,26.026
				c5.378,19.52,8.505,30.408,9.371,32.663l3.513-2.082C540.037,255.629,537.953,245.176,536.306,237.367 M674.634,25.773
				c-3.99,9.977-9.108,18.175-15.354,24.595l2.603,4.555c7.111-6.333,13.577-14.922,19.388-25.766
				C680.838,25.513,678.627,24.385,674.634,25.773 M620.109,65.333c14.576-5.205,28.499-8.676,41.774-10.411l-2.603-4.555
				c-11.626,1.562-24.293,4.381-38,8.459C621.888,60.215,621.496,62.384,620.109,65.333 M524.984-81.846
				c-2.775-2.689-5.116-2.689-7.028,0c2.604,9.543,2.604,19.823,0,30.841c-13.88,4.337-24.854,10.15-32.922,17.438
				c2.082-0.261,4.12,0.78,6.115,3.123c7.374-6.68,17.047-12.882,29.02-18.609C524.422-57.901,526.026-68.833,524.984-81.846z"/>
			<path fill="#464646" d="M431.549,94.482c-4.598-3.556-8.024-0.563-10.279,8.98c-0.694,2.775-1.345,5.77-1.952,8.979
				c0,0.173,0,0.347,0,0.52c-1.215,5.899-2.343,12.709-3.384,20.431c-2.775,19.779-5.421,44.938-7.938,75.477l6.636,1.431
				l10.801-71.181c2.603-8.937,3.948-16.267,4.035-21.993c0.086-2.256,0-4.251-0.26-5.985c0.26,1.734,0.347,3.729,0.26,5.985
				c-0.086,5.726-1.432,13.056-4.035,21.993c3.731,8.156,9.283,9.066,16.658,2.732c6.246-7.462,9.413-14.748,9.5-21.862
				c-0.782-1.215-1.476-2.299-2.083-3.253c-1.301-1.909-2.558-3.253-3.773-4.035c-1.562-1.214-2.993-1.474-4.294-0.78
				c-0.087,0-0.174,0.043-0.26,0.129c-1.128,0.694-2.039,1.779-2.733,3.253c-0.953,2.169-1.388,5.249-1.301,9.24
				c0.435,4.511,0.825,9.585,1.171,15.225c-0.347-5.64-0.737-10.714-1.171-15.225c-0.259-2.95-0.563-5.639-0.91-8.069
				C434.934,104.502,433.371,97.172,431.549,94.482 M298.686-35.128c-2.083-3.124-1.952-6.028,0.39-8.719
				c-21.254,9.803-50.187,30.538-86.798,62.203l3.904,3.774C241.948,4.691,269.45-14.394,298.686-35.128 M348.396,59.347
				c-4.078-2.082-8.458-2.082-13.144,0l-36.177,70.662l-34.745,67.928c2.43,2.951,4.858,4.12,7.288,3.515
				c17.003-26.636,29.713-46.979,38.128-61.031c2.082-3.47,4.121-6.941,6.116-10.411c11.625-20.301,21.298-39.256,29.019-56.867
				l16.267,22.512l9.499,16.006l13.925,22.774c2.775,6.245,7.417,7.46,13.924,3.643l17.437-4.685
				c1.041-7.721,2.169-14.531,3.384-20.431c0-0.173,0-0.347,0-0.52c-0.435-0.174-0.868-0.392-1.301-0.651
				c-4.511-1.822-8.416-0.607-11.712,3.644l-9.76,13.793c-5.033-10.323-10.238-19.867-15.616-28.629
				C370.778,84.115,359.934,70.365,348.396,59.347 M298.686-35.128c15.702,22.816,34.267,47.108,55.696,72.874
				c2.675,1.927,5.017,3.489,7.028,4.685c0.482,0.32,0.959,0.624,1.431,0.911c4.38,2.52,6.94,3.127,7.678,1.822
				c-26.026-45.979-49.841-75.65-71.443-89.01C296.734-41.157,296.603-38.252,298.686-35.128 M473.843,131.961
				c3.121-1.562,7.157-5.076,12.101-10.542c-2.861-8.155-4.641-14.922-5.335-20.3l-8.588,27.457v0.131
				c-0.694,1.561-1.431,2.905-2.214,4.034C470.936,132.914,472.28,132.655,473.843,131.961 M482.302,84.593
				c-1.388,6.073-1.952,11.582-1.693,16.527c0.694,5.378,2.474,12.145,5.335,20.3c1.995,5.466,3.774,10.454,5.335,14.966
				c5.292,15.095,8.591,24.377,9.893,27.847c8.412,22.904,14.833,38.866,19.258,47.889l7.157-5.075
				c-7.633-26.199-15.527-50.751-23.684-73.654c-0.348-0.955-0.65-1.865-0.912-2.732C493.277,103.852,486.378,88.497,482.302,84.593
				 M482.302,84.593c-2.951,2.256-5.64,4.598-8.07,7.027c-0.348,0.347-0.65,0.694-0.909,1.041c-2.255,2.082-4.253,4.294-5.987,6.636
				c-3.644,4.686-6.679,9.934-9.109,15.747c-0.693,1.474-1.301,3.036-1.821,4.684c-0.435,3.904-0.043,7.33,1.17,10.281
				c1.128,2.689,2.777,4.38,4.945,5.076c1.215,0.432,2.343,0.519,3.384,0.259c1.388-0.346,2.688-1.215,3.902-2.603
				c0.783-1.128,1.52-2.473,2.214-4.034v-0.131l8.588-27.457C480.35,96.175,480.914,90.666,482.302,84.593 M570.53,32.67
				c1.042,2.516,1.39,5.64,1.042,9.37l48.537,23.294c1.388-2.95,1.779-5.119,1.172-6.506L570.53,32.67 M503.252,71.059l0.26,0.131
				l9.63,1.17l0.259-0.13l58.171-30.19c0.348-3.73,0-6.854-1.042-9.37C543.029,43.168,520.604,55.964,503.252,71.059
				 M491.149-30.444c-1.995-2.342-4.033-3.383-6.115-3.123c-0.693,0.173-1.301,0.347-1.822,0.52
				C470.199,7.815,460.656,46.118,454.583,81.86c1.735-1.476,3.731-2.387,5.985-2.733v-0.13L491.149-30.444 M633.905,156.686
				c-1.997-7.2-6.16-14.271-12.494-21.212c0.521,4.771,0.262,9.803-0.78,15.095C624.099,152.131,628.527,154.17,633.905,156.686
				 M618.418,159.289c0.087,0.086,0.173,0.172,0.26,0.259c7.373,5.554,9.587,15.313,6.636,29.279
				c0.087,2.082,0.046,4.166-0.129,6.247c7.896-11.363,11.19-22.338,9.89-32.924c-7.287-3.383-12.403-5.767-15.354-7.157
				C619.286,156.384,618.854,157.812,618.418,159.289 M618.157,160.979c-0.604-1.039-1.215-2.081-1.819-3.121
				c-1.215-2.257-2.648-4.209-4.296-5.855c-2.17-0.869-4.336-1.606-6.506-2.214c-7.549,10.324-9.587,19.52-6.115,27.589
				c3.383,7.547,11.928,14.01,25.635,19.388c0-0.519,0.043-1.082,0.13-1.69c0.175-2.081,0.216-4.165,0.129-6.247
				c-0.173-9.457-2.516-18.693-7.024-27.716L618.157,160.979z"/>
			<path fill="#964D21" d="M212.278,18.355c-16.482,11.452-30.928,22.514-43.333,33.183l2.082,2.863
				c14.142-11.972,29.193-22.729,45.156-32.272L212.278,18.355 M112.727,54.792c-3.469,2.343-4.424,4.686-2.863,7.028
				c18.132-0.173,38.52-2.646,61.162-7.418l-2.082-2.863C147.776,53.882,129.037,54.966,112.727,54.792 M612.041,152.002
				c1.561,0.519,3.211,1.128,4.946,1.819c0.433,0.173,1.342,0.564,2.732,1.172c2.951,1.391,8.067,3.774,15.354,7.157
				c2.343,1.129,4.859,2.344,7.548,3.645c22.903,10.67,42.598,15.659,59.08,14.965c7.028,3.904,15.919,10.108,26.677,18.607
				c14.75,11.799,24.118,19.131,28.108,21.993c12.841,9.109,20.821,14.662,23.944,16.657c7.374,4.685,15.139,8.589,23.295,11.712
				c5.032-1.735,6.809-4.856,5.334-9.37c-9.197-3.121-18.002-7.025-26.417-11.712c-4.685-2.689-13.402-8.286-26.156-16.785
				c-3.904-2.603-13.1-9.328-27.587-20.171c-10.151-7.721-18.609-13.274-25.375-16.657c-18.046,0.693-38.39-4.077-61.033-14.314
				c-3.037-1.475-5.898-2.821-8.588-4.034c-5.378-2.516-9.806-4.555-13.274-6.117c-1.04-0.433-1.952-0.823-2.732-1.169
				c-8.764-3.559-16.396-5.554-22.902-5.988c-2.517,0.521-3.556,1.692-3.124,3.515c4.163,0.435,8.718,1.388,13.664,2.862
				C607.705,150.396,609.871,151.133,612.041,152.002 M825.979,34.362c0.434-3.557-0.74-5.076-3.516-4.555
				c-37.824,14.487-83.238,24.334-136.246,29.539c-22.992,18.566-45.765,40.082-68.319,64.546c-0.173,0.868,0.13,1.648,0.91,2.342
				c0.262,0.26,0.696,0.564,1.301,0.911c23.078-23.337,45.98-44.938,68.711-64.805C748.159,56.961,793.88,47.635,825.979,34.362z"/>
			<path d="M584.584,135.865c-0.953-3.037-2.732-5.856-5.335-8.459c-2.864-2.343-5.815-3.947-8.85-4.815
				c-3.124-0.607-5.424-0.088-6.897,1.562c-1.561,1.648-1.906,3.99-1.04,7.026s2.603,5.812,5.205,8.327
				c2.775,2.603,5.813,4.296,9.109,5.076c2.862,0.607,5.075,0.043,6.636-1.69C584.973,141.329,585.365,138.988,584.584,135.865
				 M612.823,102.421c-0.349-2.43-1.432-4.815-3.254-7.157c-1.908-2.342-4.076-3.861-6.507-4.555
				c-2.341-0.954-4.206-0.868-5.594,0.261c-0.349,0.259-0.61,0.563-0.783,0.91c5.033,4.252,9.069,9.458,12.104,15.616
				c0.259,0.435,0.521,0.868,0.78,1.301h0.13c0.61-0.347,1.172-0.694,1.692-1.041C612.779,106.628,613.256,104.85,612.823,102.421z"
				/>
		</g>
	</g>
	<g>
		<path id="Layer0_0_1_STROKES" fill="none" stroke="#000000" stroke-linecap="round" stroke-linejoin="round" d="M617.898,123.893
			c22.555-24.464,45.327-45.979,68.319-64.546c53.008-5.205,98.422-15.052,136.246-29.539c2.775-0.521,3.949,0.998,3.516,4.555
			c-32.099,13.272-77.82,22.599-137.159,27.979c-22.73,19.867-45.633,41.468-68.711,64.805c-0.604-0.347-1.039-0.651-1.301-0.911
			 M620.63,150.568c1.042-5.292,1.301-10.324,0.78-15.095c6.334,6.941,10.497,14.012,12.494,21.212
			c2.689,1.213,5.551,2.56,8.588,4.034c22.644,10.237,42.987,15.008,61.033,14.314c6.766,3.383,15.224,8.937,25.375,16.657
			c14.487,10.843,23.683,17.568,27.587,20.171c12.754,8.499,21.472,14.096,26.156,16.785c8.415,4.687,17.22,8.591,26.417,11.712
			c1.475,4.514-0.302,7.635-5.334,9.37c-8.156-3.123-15.921-7.027-23.295-11.712c-3.123-1.995-11.104-7.548-23.944-16.657
			c-3.99-2.862-13.358-10.194-28.108-21.993c-10.758-8.499-19.648-14.703-26.677-18.607c-16.482,0.694-36.177-4.295-59.08-14.965
			c-2.688-1.301-5.205-2.516-7.548-3.645c1.301,10.586-1.993,21.561-9.89,32.924c-0.087,0.608-0.13,1.172-0.13,1.69
			c-13.707-5.378-22.252-11.841-25.635-19.388 M596.685,91.879c5.033,4.252,9.069,9.458,12.104,15.616 M491.149-30.444
			c7.374-6.68,17.047-12.882,29.02-18.609c4.253-8.849,5.856-19.78,4.814-32.793c-2.775-2.689-5.116-2.689-7.028,0
			c2.604,9.543,2.604,19.823,0,30.841c-13.88,4.337-24.854,10.15-32.922,17.438C487.116-33.827,489.154-32.786,491.149-30.444
			L460.568,78.997v0.13 M503.512,71.189l-0.26-0.131c17.352-15.095,39.776-27.891,67.277-38.389l50.751,26.157
			c13.707-4.078,26.374-6.897,38-8.459c6.245-6.42,11.363-14.618,15.354-24.595c3.993-1.388,6.204-0.26,6.637,3.384
			c-5.811,10.844-12.276,19.432-19.388,25.766c-13.275,1.735-27.198,5.206-41.774,10.411L571.572,42.04l-58.171,30.19
			 M503.903,133.392c8.156,22.903,16.051,47.455,23.684,73.654c2.777,5.899,5.683,16.007,8.72,30.321
			c1.647,7.809,3.731,18.262,6.245,31.361c2.691,12.144,2.778,22.773,0.262,31.882c-2.516,9.196-4.295,14.358-5.338,15.486
			c-2.688,2.775-4.986,2.775-6.895,0c3.903-10.845,6.204-18.958,6.895-24.336c0.697-5.465,1.216-12.449,1.563-20.95
			c-0.866-2.255-3.993-13.144-9.371-32.663c-3.642-13.707-6.723-22.382-9.238-26.026c-4.425-9.022-10.846-24.984-19.258-47.889
			c-1.302-3.47-4.601-12.752-9.893-27.847 M473.843,131.961c-1.563,0.694-2.907,0.953-4.036,0.78
			c-1.214,1.388-2.515,2.257-3.902,2.603c-1.041,0.26-2.169,0.173-3.384-0.259c-2.168-0.696-3.816-2.387-4.945-5.076
			c-1.214-2.951-1.605-6.377-1.17-10.281c0.52-1.648,1.127-3.21,1.821-4.684 M449.507,116.735c0.607,0.955,1.301,2.039,2.083,3.253
			c-0.086,7.114-3.253,14.4-9.5,21.862c-7.375,6.334-12.927,5.424-16.658-2.732l-10.801,71.181
			c-2.775,30.365-2.56,58.734,0.65,85.106c-2.428,7.722-5.595,14.966-9.499,21.731c-3.557,6.247-6.724,10.28-9.5,12.103
			c-5.205,3.384-7.547,3.384-7.027,0c3.47-3.645,7.114-8.718,10.931-15.224c4.077-7.117,7.157-14.099,9.239-20.953
			c-2.429-34.439-2.906-62.504-1.431-84.194c2.516-30.538,5.162-55.697,7.938-75.477l-17.437,4.685
			c-6.506,3.817-11.148,2.603-13.924-3.643l-13.925-22.774 M315.863,130.009c-1.995,3.47-4.035,6.941-6.116,10.411
			c-8.416,14.053-21.125,34.396-38.128,61.031c-7.288,34.008-16.527,65.239-27.719,93.695
			c-15.702,20.734-31.882,37.997-48.539,51.791c-6.94-0.694-9.109-2.604-6.506-5.727c17.004-13.445,33.705-29.712,50.101-48.8
			c12.059-29.93,20.517-61.421,25.375-94.475l34.745-67.928 M361.41,42.496c-2.011-1.24-4.353-2.824-7.028-4.75
			c-21.429-25.766-39.994-50.057-55.696-72.874c-29.236,20.735-56.738,39.82-82.504,57.258c-15.963,9.543-31.015,20.3-45.156,32.272
			c-22.642,4.772-43.029,7.245-61.162,7.418c-1.561-2.342-0.606-4.685,2.863-7.028c16.31,0.174,35.049-0.91,56.217-3.253
			c12.406-10.669,26.851-21.731,43.333-33.183c36.611-31.665,65.544-52.4,86.798-62.203c21.602,13.36,45.417,43.031,71.443,89.01
			c1.041,1.995,2.125,4.121,3.253,6.375 M380.929,100.599c5.378,8.762,10.583,18.306,15.616,28.629l9.76-13.793
			c3.296-4.251,7.201-5.466,11.712-3.644 M445.734,112.701c-1.562-1.214-2.993-1.474-4.294-0.78 M454.583,81.86
			c6.073-35.743,15.616-74.045,28.628-114.907c0.521-0.172,1.129-0.347,1.822-0.52 M514.834,72.491l-1.692-0.131l0.259-0.13
			 M513.142,72.36l-9.63-1.17 M570.53,32.67c1.042,2.516,1.39,5.64,1.042,9.37 M659.281,50.368l2.603,4.555 M620.109,65.333
			c1.388-2.95,1.779-5.119,1.172-6.506 M608.788,107.495c0.259,0.435,0.521,0.868,0.78,1.301 M619.72,154.993
			c-1.391-0.607-2.3-0.999-2.732-1.172c-1.735-0.691-3.386-1.301-4.946-1.819c1.647,1.646,3.081,3.599,4.296,5.855
			c0.691,0.433,1.388,0.91,2.081,1.432C618.854,157.812,619.286,156.384,619.72,154.993c2.951,1.391,8.067,3.774,15.354,7.157
			 M618.289,161.111l-0.133-0.133c-0.604-1.039-1.215-2.081-1.819-3.121 M618.289,161.111c4.509,9.022,6.852,18.259,7.024,27.716
			c2.951-13.966,0.737-23.726-6.636-29.279c-0.087-0.087-0.173-0.173-0.26-0.259l-0.262,1.689 M605.536,149.788
			c-4.946-1.475-9.501-2.428-13.664-2.862c-0.432-1.822,0.607-2.994,3.124-3.515c6.506,0.435,14.139,2.43,22.902,5.988
			c0.78,0.346,1.692,0.736,2.732,1.169c3.469,1.563,7.896,3.602,13.274,6.117 M625.185,195.074c0.175-2.081,0.216-4.165,0.129-6.247
			 M599.42,177.377c-3.472-8.069-1.434-17.265,6.115-27.589c2.17,0.607,4.336,1.345,6.506,2.214 M473.323,92.661
			c0.259-0.347,0.562-0.694,0.909-1.041c2.431-2.43,5.119-4.771,8.07-7.027c4.076,3.904,10.975,19.259,20.688,46.067
			c0.262,0.867,0.564,1.777,0.912,2.732 M482.302,84.593c-1.388,6.073-1.952,11.582-1.693,16.527
			c0.694,5.378,2.474,12.145,5.335,20.3c1.995,5.466,3.774,10.454,5.335,14.966 M473.843,131.961
			c3.121-1.562,7.157-5.076,12.101-10.542 M539.038,270.811l3.513-2.082 M520.429,212.121l7.157-5.075 M380.929,100.599
			c-10.151-16.484-20.995-30.234-32.533-41.252c-4.078-2.082-8.458-2.082-13.144,0l-36.177,70.662 M361.41,42.496
			c0.482,0.276,0.959,0.558,1.431,0.845c4.38,2.52,6.94,3.127,7.678,1.822 M298.686-35.128c-2.083-3.124-1.952-6.028,0.39-8.719
			 M216.182,22.129l-3.904-3.774 M171.026,54.402l-2.082-2.863 M238.955,292.411c0.694,2.865,2.342,3.774,4.945,2.735
			 M473.323,92.661c-2.255,2.082-4.253,4.294-5.987,6.636c-3.644,4.686-6.679,9.934-9.109,15.747 M454.583,81.86
			c1.735-1.476,3.731-2.387,5.985-2.733 M436.235,116.475c-1.301-11.972-2.863-19.302-4.686-21.993
			c-4.598-3.556-8.024-0.563-10.279,8.98c-0.694,2.775-1.345,5.77-1.952,8.979c0,0.173,0,0.347,0,0.52
			c-1.215,5.899-2.343,12.709-3.384,20.431 M441.44,111.92c-0.087,0-0.174,0.043-0.26,0.129c-1.128,0.694-2.039,1.779-2.733,3.253
			c-0.953,2.169-1.388,5.249-1.301,9.24c0.435,4.511,0.825,9.585,1.171,15.225 M437.145,124.543c-0.259-2.95-0.563-5.639-0.91-8.069
			 M425.433,139.118c2.603-8.937,3.948-16.267,4.035-21.993c0.086-2.256,0-4.251-0.26-5.985 M469.807,132.741
			c0.783-1.128,1.52-2.473,2.214-4.034v-0.131l8.588-27.457 M449.507,116.735c-1.301-1.909-2.558-3.253-3.773-4.035
			 M419.318,112.441c-0.435-0.174-0.868-0.392-1.301-0.651 M264.33,197.937c2.43,2.951,4.858,4.12,7.288,3.515 M414.632,210.299
			l-6.636-1.431 M415.283,295.405l-5.855-2.343 M315.863,130.009c11.625-20.301,21.298-39.256,29.019-56.867l16.267,22.512
			l9.499,16.006"/>
	</g>
	<g>
		<path id="Layer0_0_2_STROKES" fill="none" stroke="#000000" stroke-width="2" stroke-linecap="round" stroke-linejoin="round" d="
			M618.808,126.235c2.343,7.635,2.95,15.746,1.822,24.333 M599.42,177.377c-9.371,0.087-17.654-1.951-24.857-6.117
			c-7.46-4.512-17.481-11.536-30.06-21.08c-12.579-9.717-16.614-18.913-12.101-27.588c4.422-8.762,7.676-14.271,9.76-16.527
			c2.081-2.256,4.813-6.68,8.196-13.274c3.383-6.767,8.459-11.972,15.228-15.616c6.679-3.557,14.703-0.998,24.074,7.678
			c7.111,6.593,13.49,14.141,19.128,22.642 M609.699,108.796c1.563,2.256,3.037,4.598,4.425,7.028
			c1.477,2.689,2.732,5.378,3.774,8.068 M460.568,79.127c0.088-0.086,0.261-0.13,0.521-0.13c4.945-0.694,8.589,0,10.932,2.082
			c1.909,1.734,2.732,4.468,2.473,8.198c1.216-2.95,2.644-5.595,4.293-7.938c4.166-6.333,11.15-9.717,20.951-10.15
			c1.215-0.088,2.473-0.088,3.774,0 M513.401,72.23c0.436,0.086,0.913,0.173,1.434,0.261c4.685,1.041,9.325,2.646,13.924,4.815
			c9.541,4.598,13.143,12.363,10.802,23.293c-2.344,10.844-8.329,19.086-17.96,24.725c-5.898,3.384-11.798,6.073-17.697,8.068
			 M491.279,136.386c-8.326,1.215-14.142-0.262-17.436-4.425 M458.226,115.044c-0.433,0.173-0.823,0.39-1.17,0.65
			c-3.038,1.475-5.552,1.821-7.549,1.041 M370.648,111.66c-2.081,1.648-4.425,3.253-7.027,4.815
			c-13.013,8.069-28.932,12.58-47.757,13.534 M299.076,130.009c-20.907-0.693-38.042-2.951-51.402-6.767
			c-14.575-4.251-22.252-11.886-23.033-22.904c-0.78-10.93,6.767-24.637,22.643-41.121c15.876-16.396,35.092-25.593,57.648-27.588
			c21.895-1.937,40.72,1.685,56.478,10.867 M373.772,51.539c8.762,8.243,13.143,17.829,13.143,28.76
			c-0.086,7.374-2.082,14.14-5.985,20.3 M418.017,111.791c-0.435-0.348-0.825-0.738-1.172-1.171
			c-3.904-4.251-5.856-9.413-5.856-15.486c0-6.072,1.952-11.277,5.856-15.616c3.991-4.251,8.762-6.375,14.314-6.375
			c5.639,0,10.281,2.169,13.924,6.506c3.73,4.251,4.424,9.542,2.082,15.876c-2.255,6.332-4.077,11.538-5.465,15.616
			c0,0.259-0.087,0.52-0.26,0.78 M445.734,112.701c-0.694-1.995-0.868-4.598-0.521-7.808c0.607-3.122,1.344-6.203,2.212-9.239
			c0.694-2.256,1.519-4.598,2.473-7.028c1.301-2.949,2.862-5.205,4.684-6.766 M618.678,159.548
			c-0.173,0.521-0.303,1.042-0.389,1.563 M474.232,91.62c0-0.174,0-0.348,0-0.521c0.089-0.694,0.176-1.301,0.262-1.822
			c-0.435,1.042-0.823,2.169-1.171,3.384 M362.84,43.341c4.251,2.603,7.895,5.336,10.932,8.198 M438.446,115.303
			c-0.606,0.435-1.345,0.825-2.211,1.171 M404.612,76.915c2.083,1.909,3.384,5.379,3.904,10.41c0.521,4.946,0.217,8.98-0.91,12.104
			c-1.215,3.036-4.686,4.901-10.41,5.595c-5.553,0.607-8.937-0.607-10.151-3.644c-1.214-3.037-0.694-7.157,1.562-12.362
			c2.083-5.293,3.817-9.197,5.205-11.712c1.389-2.43,3.038-3.602,4.945-3.514C400.664,73.878,402.617,74.919,404.612,76.915z"/>
	</g>
	<g>
		<path id="Layer0_0_3_STROKES" fill="none" stroke="#666666" stroke-width="2" stroke-linecap="round" stroke-linejoin="round" d="
			M596.685,91.879c0.173-0.347,0.435-0.65,0.783-0.91c1.388-1.128,3.253-1.215,5.594-0.261c2.431,0.694,4.599,2.212,6.507,4.555
			c1.822,2.342,2.905,4.728,3.254,7.157c0.434,2.429-0.044,4.208-1.432,5.335c-0.521,0.347-1.082,0.694-1.692,1.041
			 M584.584,135.865c0.78,3.123,0.389,5.464-1.172,7.027c-1.561,1.733-3.773,2.298-6.636,1.69c-3.297-0.78-6.334-2.474-9.109-5.076
			c-2.603-2.516-4.339-5.291-5.205-8.327s-0.521-5.378,1.04-7.026c1.474-1.65,3.773-2.169,6.897-1.562
			c3.034,0.868,5.985,2.472,8.85,4.815C581.852,130.009,583.631,132.828,584.584,135.865z"/>
	</g>
	<g>
		<path id="Layer0_0_4_STROKES" fill="none" stroke="#999999" stroke-linecap="round" stroke-linejoin="round" d="M609.569,108.796
			h0.13"/>
	</g>
</g>
</svg>
