<svg xmlns="http://www.w3.org/2000/svg" width="900" height="450" viewBox="0 0 900 450"><path fill="#5B5B5B" d="M390.506 192.678c1.127-3.124 1.431-7.157.91-12.104-.52-5.031-1.821-8.501-3.904-10.41-1.995-1.995-3.947-3.036-5.855-3.123-1.908-.088-3.556 1.084-4.945 3.514-1.388 2.515-3.122 6.419-5.205 11.712-2.256 5.205-2.775 9.325-1.562 12.362 1.215 3.036 4.599 4.251 10.151 3.644 5.724-.693 9.195-2.559 10.41-5.595m-91.743 30.581c18.826-.954 34.744-5.465 47.757-13.534 2.603-1.562 4.946-3.167 7.027-4.815l-9.499-16.006-16.267-22.512c-7.72 17.61-17.393 36.566-29.018 56.867m105.407-26.547c2.255-9.543 5.682-12.536 10.279-8.98 1.822 2.69 3.384 10.021 4.686 21.993.867-.347 1.605-.737 2.211-1.171.695-1.474 1.605-2.56 2.733-3.253.086-.086.173-.129.26-.129.173-.261.26-.521.26-.78 1.389-4.078 3.21-9.284 5.465-15.616 2.342-6.334 1.648-11.625-2.082-15.876-3.644-4.337-8.286-6.506-13.924-6.506-5.552 0-10.324 2.125-14.314 6.375-3.904 4.338-5.856 9.544-5.856 15.616 0 6.073 1.952 11.235 5.856 15.486.347.433.737.823 1.172 1.171.433.259.867.477 1.301.651a159.032 159.032 0 0 1 1.953-8.981m46.065-4.165a47.504 47.504 0 0 1 5.987-6.636 30.798 30.798 0 0 1 1.171-3.384c.26-3.73-.563-6.463-2.473-8.198-2.343-2.082-5.987-2.776-10.932-2.082-.26 0-.433.043-.521.13a11.854 11.854 0 0 0-5.985 2.733c-1.822 1.561-3.383 3.816-4.684 6.766a98.159 98.159 0 0 0-2.473 7.028 109.907 109.907 0 0 0-2.212 9.239c-.347 3.21-.173 5.813.521 7.808 1.215.781 2.472 2.126 3.773 4.035 1.997.78 4.511.434 7.549-1.041.347-.26.737-.478 1.17-.65 2.43-5.814 5.466-11.062 9.109-15.748M344.31 135.68c-15.758-9.137-34.583-12.737-56.478-10.801-22.556 1.995-41.771 11.192-57.648 27.588-15.876 16.484-23.423 30.191-22.643 41.121.781 11.018 8.458 18.653 23.033 22.904 13.36 3.816 30.495 6.073 51.402 6.767l36.177-70.662c4.686-2.082 9.066-2.082 13.144 0 11.538 11.018 22.382 24.768 32.533 41.252 3.904-6.16 5.899-12.926 5.985-20.3 0-10.932-4.38-20.518-13.143-28.76-3.037-2.862-6.681-5.595-10.932-8.198a43.711 43.711 0 0 1-1.43-.911m129.869 93.956c-1.561-4.513-3.34-9.5-5.335-14.966-4.943 5.466-8.979 8.98-12.101 10.542 3.294 4.162 9.11 5.639 17.436 4.424m23.555-63.895a49.652 49.652 0 0 1-1.434-.261l-.259.13 1.693.131m-11.322-1.302a27 27 0 0 0-3.774 0c-9.801.433-16.785 3.816-20.951 10.15-1.649 2.342-3.077 4.988-4.293 7.938a51.907 51.907 0 0 0-.262 1.822v.521c2.431-2.43 5.119-4.771 8.07-7.027 4.076 3.904 10.975 19.259 20.688 46.067.262.867.564 1.777.912 2.732 5.899-1.995 11.799-4.684 17.697-8.068 9.631-5.639 15.616-13.881 17.96-24.725 2.341-10.93-1.261-18.695-10.802-23.293-4.599-2.169-9.239-3.774-13.924-4.815l-1.692-.131-9.629-1.171m114.645 89.79l.133.133c.086-.521.216-1.043.389-1.563a63.367 63.367 0 0 0-.26-.259l-.262 1.689m.261-1.69a29.814 29.814 0 0 0-2.081-1.432c.604 1.04 1.215 2.082 1.819 3.121l.262-1.689m-1.43-5.468a90.717 90.717 0 0 0-4.946-1.819c1.647 1.646 3.081 3.599 4.296 5.855.691.433 1.388.91 2.081 1.432.436-1.478.867-2.905 1.302-4.296a133.553 133.553 0 0 0-2.733-1.172m-2.865-37.997a95.187 95.187 0 0 0-4.425-7.028h-.13c-.259-.433-.521-.867-.78-1.301-5.638-8.501-12.017-16.049-19.128-22.642-9.371-8.676-17.396-11.235-24.074-7.678-6.769 3.644-11.845 8.849-15.228 15.616-3.383 6.594-6.115 11.018-8.196 13.274-2.084 2.256-5.338 7.765-9.76 16.527-4.514 8.676-.479 17.872 12.101 27.588 12.578 9.544 22.6 16.568 30.06 21.08 7.203 4.166 15.486 6.204 24.857 6.117-3.472-8.069-1.434-17.265 6.115-27.589-4.946-1.475-9.501-2.428-13.664-2.862-.432-1.822.607-2.994 3.124-3.515 6.506.435 14.139 2.43 22.902 5.988.78.346 1.692.736 2.732 1.169 1.128-8.588.521-16.698-1.822-24.333-.78-.694-1.083-1.474-.91-2.342a66.89 66.89 0 0 0-3.774-8.069m-34.874 11.582c2.603 2.603 4.382 5.422 5.335 8.459.78 3.123.389 5.464-1.172 7.027-1.561 1.733-3.773 2.298-6.636 1.69-3.297-.78-6.334-2.474-9.109-5.076-2.603-2.516-4.339-5.291-5.205-8.327s-.521-5.378 1.04-7.026c1.474-1.65 3.773-2.169 6.897-1.562 3.035.868 5.986 2.472 8.85 4.815z"/><path fill="#A15324" d="M398.183 388.655l-5.855-2.343c-2.082 6.854-5.162 13.836-9.239 20.953-3.817 6.506-7.461 11.579-10.931 15.224-.52 3.384 1.822 3.384 7.027 0 2.776-1.822 5.942-5.855 9.5-12.103 3.902-6.765 7.069-14.009 9.498-21.731m-.651-85.106l-6.636-1.431c-1.475 21.69-.998 49.755 1.431 84.194l5.855 2.343c-3.209-26.372-3.425-54.741-.65-85.106M226.8 388.396c-2.603 1.039-4.251.13-4.945-2.735-16.396 19.088-33.096 35.354-50.101 48.8-2.603 3.123-.434 5.032 6.506 5.727 16.657-13.794 32.838-31.057 48.54-51.792m-4.945-2.735c.694 2.865 2.342 3.774 4.945 2.735 11.192-28.456 20.431-59.688 27.719-93.695-2.43.605-4.858-.563-7.288-3.515-4.859 33.054-13.317 64.545-25.376 94.475m300.083-21.6c-.348 8.501-.866 15.485-1.563 20.95-.69 5.378-2.991 13.491-6.895 24.336 1.908 2.775 4.206 2.775 6.895 0 1.043-1.128 2.822-6.29 5.338-15.486 2.517-9.108 2.43-19.738-.262-31.882l-3.513 2.082m-2.732-33.444c-3.037-14.314-5.942-24.422-8.72-30.321l-7.157 5.075c2.516 3.645 5.597 12.319 9.238 26.026 5.378 19.52 8.505 30.408 9.371 32.663l3.513-2.082c-2.514-13.099-4.598-23.552-6.245-31.361m138.328-211.594c-3.99 9.977-9.108 18.175-15.354 24.595l2.603 4.555c7.111-6.333 13.577-14.922 19.388-25.766-.433-3.644-2.644-4.772-6.637-3.384m-54.525 39.56c14.576-5.205 28.499-8.676 41.774-10.411l-2.603-4.555c-11.626 1.562-24.293 4.381-38 8.459.608 1.389.216 3.558-1.171 6.507M507.884 11.404c-2.775-2.689-5.116-2.689-7.028 0 2.604 9.543 2.604 19.823 0 30.841-13.88 4.337-24.854 10.15-32.922 17.438 2.082-.261 4.12.78 6.115 3.123 7.374-6.68 17.047-12.882 29.02-18.609 4.253-8.848 5.857-19.78 4.815-32.793z"/><path fill="#464646" d="M414.449 187.732c-4.598-3.556-8.024-.563-10.279 8.98a158.677 158.677 0 0 0-1.952 8.979v.52c-1.215 5.899-2.343 12.709-3.384 20.431-2.775 19.779-5.421 44.938-7.938 75.477l6.636 1.431 10.801-71.181c2.603-8.937 3.948-16.267 4.035-21.993.086-2.256 0-4.251-.26-5.985.26 1.734.347 3.729.26 5.985-.086 5.726-1.432 13.056-4.035 21.993 3.731 8.156 9.283 9.066 16.658 2.732 6.246-7.462 9.413-14.748 9.5-21.862a747.325 747.325 0 0 1-2.083-3.253c-1.301-1.909-2.558-3.253-3.773-4.035-1.562-1.214-2.993-1.474-4.294-.78-.087 0-.174.043-.26.129-1.128.694-2.039 1.779-2.733 3.253-.953 2.169-1.388 5.249-1.301 9.24.435 4.511.825 9.585 1.171 15.225-.347-5.64-.737-10.714-1.171-15.225-.259-2.95-.563-5.639-.91-8.069-1.303-11.972-2.866-19.302-4.688-21.992M281.586 58.122c-2.083-3.124-1.952-6.028.39-8.719-21.254 9.803-50.187 30.538-86.798 62.203l3.904 3.774c25.766-17.439 53.268-36.524 82.504-57.258m49.71 94.475c-4.078-2.082-8.458-2.082-13.144 0l-36.177 70.662-34.745 67.928c2.43 2.951 4.858 4.12 7.288 3.515 17.003-26.636 29.713-46.979 38.128-61.031a647.865 647.865 0 0 0 6.116-10.411c11.625-20.301 21.298-39.256 29.019-56.867l16.267 22.512 9.499 16.006 13.925 22.774c2.775 6.245 7.417 7.46 13.924 3.643l17.437-4.685c1.041-7.721 2.169-14.531 3.384-20.431v-.52a9.184 9.184 0 0 1-1.301-.651c-4.511-1.822-8.416-.607-11.712 3.644l-9.76 13.793c-5.033-10.323-10.238-19.867-15.616-28.629-10.15-16.484-20.994-30.234-32.532-41.252m-49.71-94.475c15.702 22.816 34.267 47.108 55.696 72.874 2.675 1.927 5.017 3.489 7.028 4.685.482.32.959.624 1.431.911 4.38 2.52 6.94 3.127 7.678 1.822-26.026-45.979-49.841-75.65-71.443-89.01-2.342 2.689-2.473 5.594-.39 8.718m175.157 167.089c3.121-1.562 7.157-5.076 12.101-10.542-2.861-8.155-4.641-14.922-5.335-20.3l-8.588 27.457v.131c-.694 1.561-1.431 2.905-2.214 4.034 1.129.173 2.473-.086 4.036-.78m8.459-47.368c-1.388 6.073-1.952 11.582-1.693 16.527.694 5.378 2.474 12.145 5.335 20.3a948.85 948.85 0 0 1 5.335 14.966c5.292 15.095 8.591 24.377 9.893 27.847 8.412 22.904 14.833 38.866 19.258 47.889l7.157-5.075c-7.633-26.199-15.527-50.751-23.684-73.654a51.45 51.45 0 0 1-.912-2.732c-9.714-26.809-16.613-42.164-20.689-46.068m0 0c-2.951 2.256-5.64 4.598-8.07 7.027a9.5 9.5 0 0 0-.909 1.041 47.56 47.56 0 0 0-5.987 6.636c-3.644 4.686-6.679 9.934-9.109 15.747a37.568 37.568 0 0 0-1.821 4.684c-.435 3.904-.043 7.33 1.17 10.281 1.128 2.689 2.777 4.38 4.945 5.076 1.215.432 2.343.519 3.384.259 1.388-.346 2.688-1.215 3.902-2.603.783-1.128 1.52-2.473 2.214-4.034v-.131l8.588-27.457c-.259-4.944.305-10.453 1.693-16.526m88.228-51.923c1.042 2.516 1.39 5.64 1.042 9.37l48.537 23.294c1.388-2.95 1.779-5.119 1.172-6.506L553.43 125.92m-67.278 38.389l.26.131 9.63 1.17.259-.13 58.171-30.19c.348-3.73 0-6.854-1.042-9.37-27.501 10.498-49.926 23.294-67.278 38.389M474.049 62.806c-1.995-2.342-4.033-3.383-6.115-3.123-.693.173-1.301.347-1.822.52-13.013 40.862-22.556 79.165-28.629 114.907a11.838 11.838 0 0 1 5.985-2.733v-.13l30.581-109.441m142.756 187.13c-1.997-7.2-6.16-14.271-12.494-21.212.521 4.771.262 9.803-.78 15.095 3.468 1.562 7.896 3.601 13.274 6.117m-15.487 2.603l.26.259c7.373 5.554 9.587 15.313 6.636 29.279a49.727 49.727 0 0 1-.129 6.247c7.896-11.363 11.19-22.338 9.89-32.924a3581.649 3581.649 0 0 1-15.354-7.157 279.808 279.808 0 0 0-1.303 4.296m-.261 1.69c-.604-1.039-1.215-2.081-1.819-3.121-1.215-2.257-2.648-4.209-4.296-5.855a63.757 63.757 0 0 0-6.506-2.214c-7.549 10.324-9.587 19.52-6.115 27.589 3.383 7.547 11.928 14.01 25.635 19.388 0-.519.043-1.082.13-1.69.175-2.081.216-4.165.129-6.247-.173-9.457-2.516-18.693-7.024-27.716l-.134-.134z"/><path fill="#964D21" d="M195.178 111.605c-16.482 11.452-30.928 22.514-43.333 33.183l2.082 2.863a338.903 338.903 0 0 1 45.156-32.272l-3.905-3.774m-99.551 36.437c-3.469 2.343-4.424 4.686-2.863 7.028 18.132-.173 38.52-2.646 61.162-7.418l-2.082-2.863c-21.168 2.343-39.907 3.427-56.217 3.253m499.314 97.21a91.249 91.249 0 0 1 4.946 1.819c.433.173 1.342.564 2.732 1.172 2.951 1.391 8.067 3.774 15.354 7.157a5286.84 5286.84 0 0 1 7.548 3.645c22.903 10.67 42.598 15.659 59.08 14.965 7.028 3.904 15.919 10.108 26.677 18.607 14.75 11.799 24.118 19.131 28.108 21.993 12.841 9.109 20.821 14.662 23.944 16.657a130.055 130.055 0 0 0 23.295 11.712c5.032-1.735 6.809-4.856 5.334-9.37a159.512 159.512 0 0 1-26.417-11.712c-4.685-2.689-13.402-8.286-26.156-16.785-3.904-2.603-13.1-9.328-27.587-20.171-10.151-7.721-18.609-13.274-25.375-16.657-18.046.693-38.39-4.077-61.033-14.314a334.516 334.516 0 0 0-8.588-4.034 1049.312 1049.312 0 0 0-13.274-6.117c-1.04-.433-1.952-.823-2.732-1.169-8.764-3.559-16.396-5.554-22.902-5.988-2.517.521-3.556 1.692-3.124 3.515 4.163.435 8.718 1.388 13.664 2.862a63.505 63.505 0 0 1 6.506 2.213m213.938-117.64c.434-3.557-.74-5.076-3.516-4.555-37.824 14.487-83.238 24.334-136.246 29.539-22.992 18.566-45.765 40.082-68.319 64.546-.173.868.13 1.648.91 2.342.262.26.696.564 1.301.911 23.078-23.337 45.98-44.938 68.711-64.805 59.339-5.379 105.06-14.705 137.159-27.978z"/><path d="M567.484 229.115c-.953-3.037-2.732-5.856-5.335-8.459-2.864-2.343-5.815-3.947-8.85-4.815-3.124-.607-5.424-.088-6.897 1.562-1.561 1.648-1.906 3.99-1.04 7.026s2.603 5.812 5.205 8.327c2.775 2.603 5.813 4.296 9.109 5.076 2.862.607 5.075.043 6.636-1.69 1.561-1.563 1.953-3.904 1.172-7.027m28.239-33.444c-.349-2.43-1.432-4.815-3.254-7.157-1.908-2.342-4.076-3.861-6.507-4.555-2.341-.954-4.206-.868-5.594.261-.349.259-.61.563-.783.91 5.033 4.252 9.069 9.458 12.104 15.616.259.435.521.868.78 1.301h.13a27.88 27.88 0 0 0 1.692-1.041c1.388-1.128 1.865-2.906 1.432-5.335z"/><g><path fill="none" stroke="#000" stroke-linecap="round" stroke-linejoin="round" d="M600.798 217.143c22.555-24.464 45.327-45.979 68.319-64.546 53.008-5.205 98.422-15.052 136.246-29.539 2.775-.521 3.949.998 3.516 4.555-32.099 13.272-77.82 22.599-137.159 27.979-22.73 19.867-45.633 41.468-68.711 64.805-.604-.347-1.039-.651-1.301-.911m1.822 24.332c1.042-5.292 1.301-10.324.78-15.095 6.334 6.941 10.497 14.012 12.494 21.212a339.555 339.555 0 0 1 8.588 4.034c22.644 10.237 42.987 15.008 61.033 14.314 6.766 3.383 15.224 8.937 25.375 16.657 14.487 10.843 23.683 17.568 27.587 20.171 12.754 8.499 21.472 14.096 26.156 16.785a159.512 159.512 0 0 0 26.417 11.712c1.475 4.514-.302 7.635-5.334 9.37a130.055 130.055 0 0 1-23.295-11.712c-3.123-1.995-11.104-7.548-23.944-16.657-3.99-2.862-13.358-10.194-28.108-21.993-10.758-8.499-19.648-14.703-26.677-18.607-16.482.694-36.177-4.295-59.08-14.965a4813.75 4813.75 0 0 0-7.548-3.645c1.301 10.586-1.993 21.561-9.89 32.924-.087.608-.13 1.172-.13 1.69-13.707-5.378-22.252-11.841-25.635-19.388m-2.734-85.496c5.033 4.252 9.069 9.458 12.104 15.616M474.049 62.806c7.374-6.68 17.047-12.882 29.02-18.609 4.253-8.849 5.856-19.78 4.814-32.793-2.775-2.689-5.116-2.689-7.028 0 2.604 9.543 2.604 19.823 0 30.841-13.88 4.337-24.854 10.15-32.922 17.438 2.083-.26 4.121.781 6.116 3.123l-30.581 109.441v.13m42.944-7.938l-.26-.131c17.352-15.095 39.776-27.891 67.277-38.389l50.751 26.157c13.707-4.078 26.374-6.897 38-8.459 6.245-6.42 11.363-14.618 15.354-24.595 3.993-1.388 6.204-.26 6.637 3.384-5.811 10.844-12.276 19.432-19.388 25.766-13.275 1.735-27.198 5.206-41.774 10.411l-48.537-23.293-58.171 30.19m-9.498 61.162c8.156 22.903 16.051 47.455 23.684 73.654 2.777 5.899 5.683 16.007 8.72 30.321 1.647 7.809 3.731 18.262 6.245 31.361 2.691 12.144 2.778 22.773.262 31.882-2.516 9.196-4.295 14.358-5.338 15.486-2.688 2.775-4.986 2.775-6.895 0 3.903-10.845 6.204-18.958 6.895-24.336.697-5.465 1.216-12.449 1.563-20.95-.866-2.255-3.993-13.144-9.371-32.663-3.642-13.707-6.723-22.382-9.238-26.026-4.425-9.022-10.846-24.984-19.258-47.889-1.302-3.47-4.601-12.752-9.893-27.847m-17.436-4.424c-1.563.694-2.907.953-4.036.78-1.214 1.388-2.515 2.257-3.902 2.603-1.041.26-2.169.173-3.384-.259-2.168-.696-3.816-2.387-4.945-5.076-1.214-2.951-1.605-6.377-1.17-10.281a37.413 37.413 0 0 1 1.821-4.684m-8.72 1.691c.607.955 1.301 2.039 2.083 3.253-.086 7.114-3.253 14.4-9.5 21.862-7.375 6.334-12.927 5.424-16.658-2.732l-10.801 71.181c-2.775 30.365-2.56 58.734.65 85.106-2.428 7.722-5.595 14.966-9.499 21.731-3.557 6.247-6.724 10.28-9.5 12.103-5.205 3.384-7.547 3.384-7.027 0 3.47-3.645 7.114-8.718 10.931-15.224 4.077-7.117 7.157-14.099 9.239-20.953-2.429-34.439-2.906-62.504-1.431-84.194 2.516-30.538 5.162-55.697 7.938-75.477l-17.437 4.685c-6.506 3.817-11.148 2.603-13.924-3.643l-13.925-22.774m-54.783 18.35a655.398 655.398 0 0 1-6.116 10.411c-8.416 14.053-21.125 34.396-38.128 61.031-7.288 34.008-16.527 65.239-27.719 93.695-15.702 20.734-31.882 37.997-48.539 51.791-6.94-.694-9.109-2.604-6.506-5.727 17.004-13.445 33.705-29.712 50.101-48.8 12.059-29.93 20.517-61.421 25.375-94.475l34.745-67.928m62.334-87.511c-2.011-1.24-4.353-2.824-7.028-4.75-21.429-25.766-39.994-50.057-55.696-72.874-29.236 20.735-56.738 39.82-82.504 57.258a338.838 338.838 0 0 0-45.156 32.272c-22.642 4.772-43.029 7.245-61.162 7.418-1.561-2.342-.606-4.685 2.863-7.028 16.31.174 35.049-.91 56.217-3.253 12.406-10.669 26.851-21.731 43.333-33.183 36.611-31.665 65.544-52.4 86.798-62.203 21.602 13.36 45.417 43.031 71.443 89.01a424.118 424.118 0 0 1 3.253 6.375m7.158 49.061c5.378 8.762 10.583 18.306 15.616 28.629l9.76-13.793c3.296-4.251 7.201-5.466 11.712-3.644m27.717.91c-1.562-1.214-2.993-1.474-4.294-.78m13.143-30.061c6.073-35.743 15.616-74.045 28.628-114.907a25.776 25.776 0 0 1 1.822-.52m29.801 106.058l-1.692-.131.259-.13m-.259.13l-9.63-1.17m67.018-38.52c1.042 2.516 1.39 5.64 1.042 9.37m87.709 8.328l2.603 4.555m-41.775 10.41c1.388-2.95 1.779-5.119 1.172-6.506m-12.493 48.668c.259.435.521.868.78 1.301m10.152 46.197c-1.391-.607-2.3-.999-2.732-1.172a90.717 90.717 0 0 0-4.946-1.819c1.647 1.646 3.081 3.599 4.296 5.855.691.433 1.388.91 2.081 1.432.435-1.477.867-2.905 1.301-4.296 2.951 1.391 8.067 3.774 15.354 7.157m-16.785-1.039l-.133-.133c-.604-1.039-1.215-2.081-1.819-3.121m1.952 3.254c4.509 9.022 6.852 18.259 7.024 27.716 2.951-13.966.737-23.726-6.636-29.279a63.367 63.367 0 0 0-.26-.259l-.262 1.689m-12.619-11.19c-4.946-1.475-9.501-2.428-13.664-2.862-.432-1.822.607-2.994 3.124-3.515 6.506.435 14.139 2.43 22.902 5.988.78.346 1.692.736 2.732 1.169 3.469 1.563 7.896 3.602 13.274 6.117m-8.719 38.389c.175-2.081.216-4.165.129-6.247m-25.894-11.45c-3.472-8.069-1.434-17.265 6.115-27.589a63.514 63.514 0 0 1 6.506 2.214m-138.718-59.341c.259-.347.562-.694.909-1.041 2.431-2.43 5.119-4.771 8.07-7.027 4.076 3.904 10.975 19.259 20.688 46.067.262.867.564 1.777.912 2.732m-21.6-48.799c-1.388 6.073-1.952 11.582-1.693 16.527.694 5.378 2.474 12.145 5.335 20.3a948.85 948.85 0 0 1 5.335 14.966m-17.436-4.425c3.121-1.562 7.157-5.076 12.101-10.542m53.094 149.392l3.513-2.082m-22.122-56.608l7.157-5.075M363.829 193.849c-10.151-16.484-20.995-30.234-32.533-41.252-4.078-2.082-8.458-2.082-13.144 0l-36.177 70.662m62.335-87.513c.482.276.959.558 1.431.845 4.38 2.52 6.94 3.127 7.678 1.822m-71.833-80.291c-2.083-3.124-1.952-6.028.39-8.719m-82.894 65.976l-3.904-3.774m-41.252 36.047l-2.082-2.863m70.011 240.872c.694 2.865 2.342 3.774 4.945 2.735m229.423-202.485a47.56 47.56 0 0 0-5.987 6.636c-3.644 4.686-6.679 9.934-9.109 15.747m-3.644-33.184a11.838 11.838 0 0 1 5.985-2.733m-24.333 37.348c-1.301-11.972-2.863-19.302-4.686-21.993-4.598-3.556-8.024-.563-10.279 8.98a158.677 158.677 0 0 0-1.952 8.979v.52c-1.215 5.899-2.343 12.709-3.384 20.431m25.506-21.472c-.087 0-.174.043-.26.129-1.128.694-2.039 1.779-2.733 3.253-.953 2.169-1.388 5.249-1.301 9.24.435 4.511.825 9.585 1.171 15.225m-1.172-15.224c-.259-2.95-.563-5.639-.91-8.069m-10.802 22.644c2.603-8.937 3.948-16.267 4.035-21.993.086-2.256 0-4.251-.26-5.985m40.599 21.601c.783-1.128 1.52-2.473 2.214-4.034v-.131l8.588-27.457m-31.102 15.616c-1.301-1.909-2.558-3.253-3.773-4.035m-26.416-.259a9.184 9.184 0 0 1-1.301-.651M247.23 291.187c2.43 2.951 4.858 4.12 7.288 3.515m143.014 8.847l-6.636-1.431m7.287 86.537l-5.855-2.343m-93.565-163.053c11.625-20.301 21.298-39.256 29.019-56.867l16.267 22.512 9.499 16.006"/></g><g><path fill="none" stroke="#000" stroke-width="2" stroke-linecap="round" stroke-linejoin="round" d="M601.708 219.485c2.343 7.635 2.95 15.746 1.822 24.333m-21.21 26.809c-9.371.087-17.654-1.951-24.857-6.117-7.46-4.512-17.481-11.536-30.06-21.08-12.579-9.717-16.614-18.913-12.101-27.588 4.422-8.762 7.676-14.271 9.76-16.527 2.081-2.256 4.813-6.68 8.196-13.274 3.383-6.767 8.459-11.972 15.228-15.616 6.679-3.557 14.703-.998 24.074 7.678 7.111 6.593 13.49 14.141 19.128 22.642m.911 1.301a95.521 95.521 0 0 1 4.425 7.028 67.102 67.102 0 0 1 3.774 8.068m-157.33-44.765c.088-.086.261-.13.521-.13 4.945-.694 8.589 0 10.932 2.082 1.909 1.734 2.732 4.468 2.473 8.198 1.216-2.95 2.644-5.595 4.293-7.938 4.166-6.333 11.15-9.717 20.951-10.15a27 27 0 0 1 3.774 0m9.889 1.041c.436.086.913.173 1.434.261 4.685 1.041 9.325 2.646 13.924 4.815 9.541 4.598 13.143 12.363 10.802 23.293-2.344 10.844-8.329 19.086-17.96 24.725-5.898 3.384-11.798 6.073-17.697 8.068m-12.625 2.994c-8.326 1.215-14.142-.262-17.436-4.425m-15.617-16.917c-.433.173-.823.39-1.17.65-3.038 1.475-5.552 1.821-7.549 1.041m-78.859-5.075c-2.081 1.648-4.425 3.253-7.027 4.815-13.013 8.069-28.932 12.58-47.757 13.534m-16.788 0c-20.907-.693-38.042-2.951-51.402-6.767-14.575-4.251-22.252-11.886-23.033-22.904-.78-10.93 6.767-24.637 22.643-41.121 15.876-16.396 35.092-25.593 57.648-27.588 21.895-1.937 40.72 1.685 56.478 10.867m12.362 9.043c8.762 8.243 13.143 17.829 13.143 28.76-.086 7.374-2.082 14.14-5.985 20.3m37.087 11.192a7.502 7.502 0 0 1-1.172-1.171c-3.904-4.251-5.856-9.413-5.856-15.486 0-6.072 1.952-11.277 5.856-15.616 3.991-4.251 8.762-6.375 14.314-6.375 5.639 0 10.281 2.169 13.924 6.506 3.73 4.251 4.424 9.542 2.082 15.876a1221.584 1221.584 0 0 0-5.465 15.616c0 .259-.087.52-.26.78m4.294.78c-.694-1.995-.868-4.598-.521-7.808a109.907 109.907 0 0 1 2.212-9.239 98.652 98.652 0 0 1 2.473-7.028c1.301-2.949 2.862-5.205 4.684-6.766m164.096 77.688a10.258 10.258 0 0 0-.389 1.563M457.132 184.87v-.521c.089-.694.176-1.301.262-1.822a30.798 30.798 0 0 0-1.171 3.384m-110.483-49.32c4.251 2.603 7.895 5.336 10.932 8.198m64.674 63.764c-.606.435-1.345.825-2.211 1.171m-31.623-39.559c2.083 1.909 3.384 5.379 3.904 10.41.521 4.946.217 8.98-.91 12.104-1.215 3.036-4.686 4.901-10.41 5.595-5.553.607-8.937-.607-10.151-3.644-1.214-3.037-.694-7.157 1.562-12.362 2.083-5.293 3.817-9.197 5.205-11.712 1.389-2.43 3.038-3.602 4.945-3.514 1.907.086 3.86 1.127 5.855 3.123z"/></g><g><path fill="none" stroke="#666" stroke-width="2" stroke-linecap="round" stroke-linejoin="round" d="M579.585 185.129a2.57 2.57 0 0 1 .783-.91c1.388-1.128 3.253-1.215 5.594-.261 2.431.694 4.599 2.212 6.507 4.555 1.822 2.342 2.905 4.728 3.254 7.157.434 2.429-.044 4.208-1.432 5.335-.521.347-1.082.694-1.692 1.041m-25.115 27.069c.78 3.123.389 5.464-1.172 7.027-1.561 1.733-3.773 2.298-6.636 1.69-3.297-.78-6.334-2.474-9.109-5.076-2.603-2.516-4.339-5.291-5.205-8.327s-.521-5.378 1.04-7.026c1.474-1.65 3.773-2.169 6.897-1.562 3.034.868 5.985 2.472 8.85 4.815 2.603 2.603 4.382 5.422 5.335 8.459z"/></g><g><path fill="none" stroke="#999" stroke-linecap="round" stroke-linejoin="round" d="M592.469 202.046h.13"/></g></svg>