<svg xmlns="http://www.w3.org/2000/svg" viewBox="0 0 100.4 116.55"><path fill-rule="evenodd" d="M44.6 21.85Q41.45 12.4 35.15 5.8q.1 1-.75 1.4l-1.8.35q-1.4-3.2-.1-5.15 1.25-1.95 3.8-1.15 7.4 8.5 11.4 19.3l.45 1.2q1.2 3.4 2 6.75v.6l.1-.05q1.3 5.95 1.35 11.9l-1.8.4-.6-.05-1.6-.35q-.05-10.35-3-19v-.1" fill="#9a6243"/><path fill-rule="evenodd" d="M57.45-38.75l2.55.05q-.7 3.1-.55 6.7-.8-3.35-2-6.75m13.6 1q8.3 1.2 15 3.75 7.85 2.95 11.7 7l.65.8q10.55 13.5 10.3 27.95-.4 20.85-22.7 46.7-4 4.6-8.6 5.9L66.15 54q-3.4-1.85-5.85-1.85-2.55 0-6.45 1.85-5.35 1.75-11.5.6-6.45-1.2-9.9-4.9-15.9-15.2-20.6-36.55-2.15-9.8-1.35-19.1.85-9.15 4.45-16.55l.15-.25q2.5-4.65 7.7-8.25 8.45-4.65 20.9-6.65l10.2-1v.1q2.95 8.65 3 19l1.6.35.6.05 1.8-.4q-.05-5.95-1.35-11.9 6.3-3.05 11.5-6.3m11.05 11.6l-7.15 3.9q-3.45 1.65-7.1 2.35l-8.75.75 8.75-.75q3.65-.7 7.1-2.35l7.15-3.9M58.5-19.2l-5.45-.7q-6.2-1.4-14.6-6.25 8.4 4.85 14.6 6.25l5.45.7" fill="url(#gradient0)" transform="translate(-9.3 60.5)"/><path fill-rule="evenodd" d="M50.7 21.8Q54.55 4.3 83.05 2.1q-6.15 11.2-21.3 20.65-5.2 3.25-11.5 6.3l-.1.05v-.6q-.15-3.6.55-6.7m-.55 7.3l.05-.15q1.9-3.7 4.45-6.95 9.6-12.55 28.4-19.9-18.8 7.35-28.4 19.9-2.55 3.25-4.45 6.95l-.05.15" fill="#390"/><path stroke-linejoin="round" d="M44.6 21.85Q41.45 12.4 35.15 5.8q.1 1-.75 1.4l-1.8.35q-1.4-3.2-.1-5.15 1.25-1.95 3.8-1.15 7.4 8.5 11.4 19.3l.45 1.2 2.55.05m11.05.95q8.3 1.2 15 3.75 7.85 2.95 11.7 7l.65.8q10.55 13.5 10.3 27.95-.4 20.85-22.7 46.7-4 4.6-8.6 5.9l-11.25-.35q-3.4-1.85-5.85-1.85-2.55 0-6.45 1.85-5.35 1.75-11.5.6-6.45-1.2-9.9-4.9Q7.25 95 2.55 73.65.4 63.85 1.2 54.55 2.05 45.4 5.65 38l.15-.25q2.5-4.65 7.7-8.25 8.45-4.65 20.9-6.65l10.2-1v.1q2.95 8.65 3 19l1.6.35.6.05 1.8-.4q-.05-5.95-1.35-11.9m-.1-.55q-.8-3.35-2-6.75m-19 12.6q8.4 4.85 14.6 6.25l5.45.7m.6.05l8.75-.75q3.65-.7 7.1-2.35l7.15-3.9" stroke="#3e0000" stroke-linecap="round" stroke-width="2" fill="none"/><path stroke-linejoin="round" d="M50.7 21.8Q54.55 4.3 83.05 2.1q-6.15 11.2-21.3 20.65m-11.5 6.3l-.1.05v-.6m32.9-26.4Q64.25 9.45 54.65 22q-2.55 3.25-4.45 6.95l-.05.15m.55-7.3q-.7 3.1-.55 6.7m.1.55q6.3-3.05 11.5-6.3" stroke="#330" stroke-linecap="round" stroke-width="2" fill="none"/><defs id="defs3538"><radialGradient id="gradient0" gradientUnits="userSpaceOnUse" cy="0" cx="0" gradientTransform="matrix(-.0002 -.068 .0883 -.0003 49.9 -.2)" r="819.2"><stop id="stop3541" stop-color="#91c457" offset="0"/><stop id="stop3543" stop-color="#050" offset="1"/></radialGradient></defs></svg>