<svg xmlns="http://www.w3.org/2000/svg" xmlns:xlink="http://www.w3.org/1999/xlink" preserveAspectRatio="none" width="285" height="427" viewBox="0 0 285 427"><defs><g id="a"><path fill="#9CAD5A" d="M11.8 145.05Q8.1 138 6.55 129.9 2.95 272.3 4.8 346.35q1.9 74.25 9 72.45 11.6-101.45 9.6-262.75-6.4-.75-11.6-11z"/><path fill="#586130" d="M259.4 133h-.5l-.75 27q.3 0 22.75-.85-5.65-9.45-9.2-15-6.65-10.55-12.3-11.15m-40.7-1.55q-.25 7-1.1 14.1-.35 4.35-1.45 15.35 21.85-.3 42-.9l.75-27-40.2-1.55m-53.4-102.6q9.95 2.15 13.7 4-6.6-8.3-19.4-15.6-12.3-7.25-26.75-8.8-14.45-1.6-27.7 3.1Q89.7 17.15 80.7 26.7 57.1 52.15 58.85 100l.15 8v20.85q-29.3.45-52.45 1.05 1.55 8.1 5.25 15.15 5.2 10.25 11.6 11 7.1.4 59.15 2.25l-.1-29.3v-.4H78.7q-1.6 0-3 .15-.15-2.5-.25-6.45 0-2.3-.2-4.85 0-2-.15-4.15V108q-.1-3.7-.25-5.55V100Q73.7 78.3 78.4 62.3 82.3 48.25 91 37.85q3.55-4.15 8.7-7.6 3.45-2 10.3-5.1 5.7-2.45 10.3-3.55 5.55-1.15 11.85-.6 5.55.6 8.75 1.3l4.05 1.25q1.5.45 3.05 1.3 1.45 1 3 1.4 8.25 1.45 14.3 2.6M175.7 48q-2.7-1.55-5.45-2.85l-.25.25q6.75 9.85 9 22.6 2.15 13.4.6 35.4-.35 2.15-.6 4.6-.55 6.75-1.4 14.3-.6 3.95-1.2 8.3L99.85 129l.55 22.6q0 4 .15 5.55 0 .7.15 2.3 49.7 1.6 90.3 1.45h7.3l.15-.7q1.4-9.8 1.85-13.6 1-6.6 1.45-12.55V131l-10.65-.15q.45-4.4.8-8.55.7-7.45 1.25-14.3.3-3.4.4-6.7.85-13.55-.1-22.75-.85-8.15-3.9-18.25-6.15-7.7-13.85-12.3z"/><path fill="#B4C080" d="M183.85 35.7q-.3-.25-.55-.45-2.15-1.25-4.3-2.4-3.75-1.85-13.7-4-6.05-1.15-14.3-2.6-17 1.15-22.3 3.05-14.15 5.45-24.45 17.3-13.85 15.85-18.95 40 0 .25-.15.85-2 9.55-2.6 20.55-.45 6.85-.25 14.3 0 3.15.15 6.3v.4l.1 29.3q-52.05-1.85-59.15-2.25 2 161.3-9.6 262.75l251.5.7q15.3-98.3 15.6-259.5h-22.75q-20.15.6-42 .9 1.1-11 1.45-15.35.85-7.1 1.1-14.1V131q0-4.55.2-8.7.1-7.55.1-14.3-.7-33.7-12.85-51.85Q198.9 45 183.85 35.7M169.7 45l.55.15q2.75 1.3 5.45 2.85 7.7 4.6 13.85 12.3 2.35 2.7 4.15 5.7 5.2 8 7 17.3 2 9.45 1.85 24.7 0 6.55-.25 14.3-.3 4.15-.45 8.7l-.1 3.05q-.45 5.95-1.45 12.55-.45 3.8-1.85 13.6l-.15.7H191q-40.6.15-90.3-1.45-.15-1.6-.15-2.3-.15-1.55-.15-5.55l-.55-22.6-.15-7.85q-.1-6.85-.1-13.15.1-10.75 1.55-18 1.3-6.25 4.4-13.25 4-9.2 7.55-14.05 4.75-6.55 10.05-11 5-4.25 12.1-7.15 6.85-2.85 11.7-2.85 5.05-.1 6.75 0 4.45.15 8.4 1.15 4.05.7 7.6 2.15z"/></g><path id="b" stroke="#2E3218" stroke-width="2" stroke-linejoin="round" stroke-linecap="round" fill="none" d="M179 32.85q2.15 1.15 4.3 2.4.25.2.55.45 15.05 9.3 22.3 20.45Q218.3 74.3 219 108q0 6.75-.1 14.3-.2 4.15-.2 8.7v.45l40.2 1.55h.5q5.65.6 12.3 11.15 3.55 5.55 9.2 15v.85q-.3 161.2-15.6 259.5l-251.5-.7q-7.1 1.8-9-72.45Q2.95 272.3 6.55 129.9q23.15-.6 52.45-1.05V108l-.15-8Q57.1 52.15 80.7 26.7q9-9.55 24.45-15.15 13.25-4.7 27.7-3.1 14.45 1.55 26.75 8.8 12.8 7.3 19.4 15.6-3.75-1.85-13.7-4-6.05-1.15-14.3-2.6-17 1.15-22.3 3.05-14.15 5.45-24.45 17.3-13.85 15.85-18.95 40 0 .25-.15.85-2 9.55-2.6 20.55-.45 6.85-.25 14.3 0 3.15.15 6.3v.4l.1 29.3q-52.05-1.85-59.15-2.25 2 161.3-9.6 262.75M170.25 45.15l-.55-.15q.3.3.3.4m.25-.25q2.75 1.3 5.45 2.85 7.7 4.6 13.85 12.3 2.35 2.7 4.15 5.7 5.2 8 7 17.3 2 9.45 1.85 24.7 0 6.55-.25 14.3-.3 4.15-.45 8.7l-.1 3.05q-.45 5.95-1.45 12.55-.45 3.8-1.85 13.6l-.15.7H191q-40.6.15-90.3-1.45-.15-1.6-.15-2.3-.15-1.55-.15-5.55l-.55-22.6-.15-7.85q-.1-6.85-.1-13.15.1-10.75 1.55-18 1.3-6.25 4.4-13.25 4-9.2 7.55-14.05 4.75-6.55 10.05-11 5-4.25 12.1-7.15 6.85-2.85 11.7-2.85 5.05-.1 6.75 0 4.45.15 8.4 1.15 4.05.7 7.6 2.15m19.85 15.3q3.05 10.1 3.9 18.25.95 9.2.1 22.75-.1 3.3-.4 6.7-.55 6.85-1.25 14.3-.35 4.15-.8 8.55l10.65.15h.1M170 45.4q6.75 9.85 9 22.6 2.15 13.4.6 35.4-.35 2.15-.6 4.6-.55 6.75-1.4 14.3-.6 3.95-1.2 8.3L99.85 129m118.85 2.45q-.25 7-1.1 14.1-.35 4.35-1.45 15.35 21.85-.3 42-.9l.75-27m-.75 27q.3 0 22.75-.85M151 26.25q-1.55-.4-3-1.4-1.55-.85-3.05-1.3l-4.05-1.25q-3.2-.7-8.75-1.3-6.3-.55-11.85.6-4.6 1.1-10.3 3.55-6.85 3.1-10.3 5.1-5.15 3.45-8.7 7.6-8.7 10.4-12.6 24.45-4.7 16-3.55 37.7v2.45q.15 1.85.25 5.55v5.3q.15 2.15.15 4.15.2 2.55.2 4.85.1 3.95.25 6.45 1.4-.15 3-.15m-72.15 1.3q1.55 8.1 5.25 15.15 5.2 10.25 11.6 11"/></defs><g><use xlink:href="#a"/><use xlink:href="#b"/></g></svg>