
<svg xmlns="http://www.w3.org/2000/svg" version="1.1" xmlns:xlink="http://www.w3.org/1999/xlink" preserveAspectRatio="none" x="0px" y="0px" width="285px" height="427px" viewBox="0 0 285 427">
<defs>
<g id="Layer0_0_FILL">
<path fill="#9CAD5A" stroke="none" d="
M 11.8 145.05
Q 8.1 138 6.55 129.9 2.95 272.3 4.8 346.35 6.7 420.6 13.8 418.8 25.4 317.35 23.4 156.05 17 155.3 11.8 145.05 Z"/>

<path fill="#586130" stroke="none" d="
M 259.4 133
Q 259 133 258.9 133
L 258.15 160
Q 258.45 160 280.9 159.15 275.25 149.7 271.7 144.15 265.05 133.6 259.4 133
M 218.7 131.45
Q 218.45 138.45 217.6 145.55 217.25 149.9 216.15 160.9 238 160.6 258.15 160
L 258.9 133 218.7 131.45
M 165.3 28.85
Q 175.25 31 179 32.85 172.4 24.55 159.6 17.25 147.3 10 132.85 8.45 118.4 6.85 105.15 11.55 89.7 17.15 80.7 26.7 57.1 52.15 58.85 100
L 59 108 59 122.3 59 128.85
Q 29.7 129.3 6.55 129.9 8.1 138 11.8 145.05 17 155.3 23.4 156.05 30.5 156.45 82.55 158.3
L 82.45 129
Q 82.45 128.85 82.45 128.6
L 78.7 128.6
Q 77.1 128.6 75.7 128.75 75.55 126.25 75.45 122.3 75.45 120 75.25 117.45 75.25 115.45 75.1 113.3 75.1 110.4 75.1 108 75 104.3 74.85 102.45 74.85 101.15 74.85 100 73.7 78.3 78.4 62.3 82.3 48.25 91 37.85 94.55 33.7 99.7 30.25 103.15 28.25 110 25.15 115.7 22.7 120.3 21.6 125.85 20.45 132.15 21 137.7 21.6 140.9 22.3
L 144.95 23.55
Q 146.45 24 148 24.85 149.45 25.85 151 26.25 159.25 27.7 165.3 28.85
M 175.7 48
Q 173 46.45 170.25 45.15
L 170 45.4
Q 176.75 55.25 179 68 181.15 81.4 179.6 103.4 179.25 105.55 179 108 178.45 114.75 177.6 122.3 177 126.25 176.4 130.6
L 99.85 129 100.4 151.6
Q 100.4 155.6 100.55 157.15 100.55 157.85 100.7 159.45 150.4 161.05 191 160.9
L 198.3 160.9 198.45 160.2
Q 199.85 150.4 200.3 146.6 201.3 140 201.75 134.05
L 201.75 131 191.1 130.85
Q 191.55 126.45 191.9 122.3 192.6 114.85 193.15 108 193.45 104.6 193.55 101.3 194.4 87.75 193.45 78.55 192.6 70.4 189.55 60.3 183.4 52.6 175.7 48 Z"/>

<path fill="#B4C080" stroke="none" d="
M 183.85 35.7
Q 183.55 35.45 183.3 35.25 181.15 34 179 32.85 175.25 31 165.3 28.85 159.25 27.7 151 26.25 134 27.4 128.7 29.3 114.55 34.75 104.25 46.6 90.4 62.45 85.3 86.6 85.3 86.85 85.15 87.45 83.15 97 82.55 108 82.1 114.85 82.3 122.3 82.3 125.45 82.45 128.6 82.45 128.85 82.45 129
L 82.55 158.3
Q 30.5 156.45 23.4 156.05 25.4 317.35 13.8 418.8
L 265.3 419.5
Q 280.6 321.2 280.9 160
L 258.15 160
Q 238 160.6 216.15 160.9 217.25 149.9 217.6 145.55 218.45 138.45 218.7 131.45
L 218.7 131
Q 218.7 126.45 218.9 122.3 219 114.75 219 108 218.3 74.3 206.15 56.15 198.9 45 183.85 35.7
M 169.7 45
L 170.25 45.15
Q 173 46.45 175.7 48 183.4 52.6 189.55 60.3 191.9 63 193.7 66 198.9 74 200.7 83.3 202.7 92.75 202.55 108 202.55 114.55 202.3 122.3 202 126.45 201.85 131
L 201.75 134.05
Q 201.3 140 200.3 146.6 199.85 150.4 198.45 160.2
L 198.3 160.9 191 160.9
Q 150.4 161.05 100.7 159.45 100.55 157.85 100.55 157.15 100.4 155.6 100.4 151.6
L 99.85 129 99.7 121.15
Q 99.6 114.3 99.6 108 99.7 97.25 101.15 90 102.45 83.75 105.55 76.75 109.55 67.55 113.1 62.7 117.85 56.15 123.15 51.7 128.15 47.45 135.25 44.55 142.1 41.7 146.95 41.7 152 41.6 153.7 41.7 158.15 41.85 162.1 42.85 166.15 43.55 169.7 45 Z"/>
</g>

<path id="Layer0_0_1_STROKES" stroke="#2E3218" stroke-width="2" stroke-linejoin="round" stroke-linecap="round" fill="none" d="
M 179 32.85
Q 181.15 34 183.3 35.25 183.55 35.45 183.85 35.7 198.9 45 206.15 56.15 218.3 74.3 219 108 219 114.75 218.9 122.3 218.7 126.45 218.7 131
L 218.7 131.45 258.9 133
Q 259 133 259.4 133 265.05 133.6 271.7 144.15 275.25 149.7 280.9 159.15 280.9 159.6 280.9 160 280.6 321.2 265.3 419.5
L 13.8 418.8
Q 6.7 420.6 4.8 346.35 2.95 272.3 6.55 129.9 29.7 129.3 59 128.85
L 59 122.3 59 108 58.85 100
Q 57.1 52.15 80.7 26.7 89.7 17.15 105.15 11.55 118.4 6.85 132.85 8.45 147.3 10 159.6 17.25 172.4 24.55 179 32.85 175.25 31 165.3 28.85 159.25 27.7 151 26.25 134 27.4 128.7 29.3 114.55 34.75 104.25 46.6 90.4 62.45 85.3 86.6 85.3 86.85 85.15 87.45 83.15 97 82.55 108 82.1 114.85 82.3 122.3 82.3 125.45 82.45 128.6 82.45 128.85 82.45 129
L 82.55 158.3
Q 30.5 156.45 23.4 156.05 25.4 317.35 13.8 418.8
M 170.25 45.15
L 169.7 45
Q 170 45.3 170 45.4
M 170.25 45.15
Q 173 46.45 175.7 48 183.4 52.6 189.55 60.3 191.9 63 193.7 66 198.9 74 200.7 83.3 202.7 92.75 202.55 108 202.55 114.55 202.3 122.3 202 126.45 201.85 131
L 201.75 134.05
Q 201.3 140 200.3 146.6 199.85 150.4 198.45 160.2
L 198.3 160.9 191 160.9
Q 150.4 161.05 100.7 159.45 100.55 157.85 100.55 157.15 100.4 155.6 100.4 151.6
L 99.85 129 99.7 121.15
Q 99.6 114.3 99.6 108 99.7 97.25 101.15 90 102.45 83.75 105.55 76.75 109.55 67.55 113.1 62.7 117.85 56.15 123.15 51.7 128.15 47.45 135.25 44.55 142.1 41.7 146.95 41.7 152 41.6 153.7 41.7 158.15 41.85 162.1 42.85 166.15 43.55 169.7 45
M 189.55 60.3
Q 192.6 70.4 193.45 78.55 194.4 87.75 193.55 101.3 193.45 104.6 193.15 108 192.6 114.85 191.9 122.3 191.55 126.45 191.1 130.85
L 201.75 131 201.85 131
M 170 45.4
Q 176.75 55.25 179 68 181.15 81.4 179.6 103.4 179.25 105.55 179 108 178.45 114.75 177.6 122.3 177 126.25 176.4 130.6
L 99.85 129
M 218.7 131.45
Q 218.45 138.45 217.6 145.55 217.25 149.9 216.15 160.9 238 160.6 258.15 160
L 258.9 133
M 258.15 160
Q 258.45 160 280.9 159.15
M 151 26.25
Q 149.45 25.85 148 24.85 146.45 24 144.95 23.55
L 140.9 22.3
Q 137.7 21.6 132.15 21 125.85 20.45 120.3 21.6 115.7 22.7 110 25.15 103.15 28.25 99.7 30.25 94.55 33.7 91 37.85 82.3 48.25 78.4 62.3 73.7 78.3 74.85 100 74.85 101.15 74.85 102.45 75 104.3 75.1 108 75.1 110.4 75.1 113.3 75.25 115.45 75.25 117.45 75.45 120 75.45 122.3 75.55 126.25 75.7 128.75 77.1 128.6 78.7 128.6
M 6.55 129.9
Q 8.1 138 11.8 145.05 17 155.3 23.4 156.05"/>
</defs>

<g transform="matrix( 1, 0, 0, 1, 0,0) ">
<use xlink:href="#Layer0_0_FILL"/>

<use xlink:href="#Layer0_0_1_STROKES"/>
</g>
</svg>
