<svg xmlns="http://www.w3.org/2000/svg" width="900" height="450" viewBox="0 0 900 450"><g><linearGradient id="a" gradientUnits="userSpaceOnUse" x1="141.542" y1="91.516" x2="682.016" y2="91.516" gradientTransform="matrix(1 0 0 -1 29.04 379.34)"><stop offset="0" stop-color="#999"/><stop offset="1" stop-color="#fff"/></linearGradient><path fill="url(#a)" d="M405.286 379.035c23.075 10.502 40.899 17.747 53.474 21.734 18.628 5.828 36.874 8.662 54.736 8.51 18.244.382 34.959-.728 50.138-3.335 17.249-2.913 33.31-7.896 48.183-14.95 14.489-5.902 26.757-13.069 36.799-21.503 11.268-9.354 19.317-19.663 24.148-30.934l38.292-77.047c-26.602 10.197-52.704 17.901-78.311 23.114-32.199 6.67-67.463 10.272-105.796 10.81-24.99-.076-50.519-3.181-76.585-9.314-24.149-5.904-45.423-13.685-63.822-23.345a4411.35 4411.35 0 0 1-215.959-96.479l20.699 81.876c2.683 16.941 8.548 27.866 17.594 32.773l196.41 98.09z"/><path fill="#C2C2C2" d="M247.973 75.334c-2.53 1.61-5.021 1.61-7.475 0l-2.875 7.705c-.076.23-.115.613-.115 1.15 4.293 2.837 8.777 2.837 13.454 0l-2.989-8.855m.92 24.035v3.335c-3.296 1.379-6.248 1.226-8.854-.46v-2.99c-4.6.537-6.86 2.837-6.784 6.9 2.224 3.22 5.941 4.867 11.155 4.944 6.746.23 10.426-1.572 11.039-5.405-1.151-3.756-3.337-5.864-6.556-6.324m0 3.335v-6.095c-2.913 1.38-5.864 1.38-8.854 0v5.636c2.606 1.685 5.558 1.838 8.854.459m20.699-7.36l4.37 1.839a18.325 18.325 0 0 1 2.875 2.53c1.15.23 2.377.345 3.68.345 6.593.23 10.235-1.571 10.924-5.404-1.074-3.834-3.22-5.904-6.439-6.21v2.875c-3.374 1.61-6.363 1.533-8.969-.23v-2.875c-4.523.537-6.747 2.798-6.67 6.785.076.153.153.269.229.345m4.369 1.839l-4.37-1.839-14.949-5.98-1.609-2.415-2.071-2.76c-4.676 2.837-9.16 2.837-13.454 0-.306 2.377-.422 4.523-.346 6.44.078 1.687.269 3.182.575 4.484l2.3 1.495c2.99 1.38 5.941 1.38 8.854 0h1.38l18.514 7.705c1.61 1.533 2.722 3.029 3.335 4.485 2.606 2.453 5.405 2.453 8.395 0-.383-3.68-1.609-6.708-3.68-9.085-.842-.92-1.8-1.763-2.874-2.53m11.04-8.739v-2.875c-2.913 1.303-5.903 1.303-8.969 0v5.52c2.606 1.763 5.596 1.84 8.969.23v-2.875m19.895 4.83c1.533 1.457 2.645 2.952 3.335 4.484 2.607 2.53 5.328 2.53 8.165 0-.383-5.059-2.53-8.969-6.439-11.729l-18.745-7.59-.459-.23-3.795-5.404c-4.677 2.99-9.161 2.99-13.455 0-.46 3.833-.499 7.052-.115 9.659.077.537.192 1.112.346 1.725l2.3 1.38c3.066 1.303 6.056 1.303 8.969 0h1.38l18.513 7.705m-28.404-29.093c2.454 1.687 4.944 1.687 7.475 0l-1.265-3.796c-1.304 1.228-2.913 1.228-4.83 0l-1.38 3.796m-2.875 7.589c-.077.46-.115.805-.115 1.035 4.293 2.99 8.777 2.99 13.455 0l-2.99-8.625c-2.53 1.687-5.021 1.687-7.475 0l-2.875 7.59m9.085-18.86c.077-.152.191-.229.345-.229.154 1.533 1.457 2.07 3.91 1.609.996-2.606.613-4.255-1.15-4.945h7.129c.921-1.917.921-3.45 0-4.6-2.606 0-4.752.537-6.439 1.61-1.226 1.457-3.067 2.032-5.52 1.725-2.376-.308-4.024-1.036-4.944-2.186-.307.307-.46.728-.46 1.265-1.993-1.227-3.564-1.495-4.714-.804-1.38 1.457-1.61 2.913-.69 4.37h6.555c.46.383.958.728 1.495 1.034 1.147.768 2.642 1.151 4.483 1.151m-4.486-1.15l-.345 8.625c1.917 1.228 3.526 1.228 4.83 0V52.91c-1.84 0-3.335-.383-4.485-1.15m2.186-8.394l-1.15-2.645c-.537-.689-1.38-.689-2.53 0-.154 1.457.421 2.645 1.725 3.564-1.15.308-1.955.843-2.415 1.61.92 1.15 2.568 1.878 4.944 2.186 2.453.307 4.293-.269 5.52-1.725-.154-1.763-2.185-2.76-6.094-2.99m-33.694 28.059c-1.304 1.38-2.914 1.38-4.83 0l-1.38 3.909c2.454 1.61 4.944 1.61 7.475 0l-1.265-3.909m-4.599-8.51l-.23 8.51c1.916 1.38 3.526 1.38 4.83 0V63.95c-1.841.001-3.374-.345-4.6-1.035m2.874-3.68c2.453.23 4.293-.345 5.52-1.725-.23-1.84-2.3-2.875-6.21-3.104l-1.15-2.646c-.537-.689-1.341-.689-2.415 0-.154 1.61.383 2.798 1.609 3.565-1.072.307-1.839.844-2.3 1.609.844 1.305 2.493 2.072 4.946 2.301m-10.004-1.954c-1.38 1.533-1.649 3.027-.805 4.484h6.555c.383.383.844.767 1.38 1.15 1.226.69 2.759 1.036 4.6 1.036 0-.078.115-.116.345-.116.23 1.534 1.533 2.109 3.909 1.725.921-2.683.575-4.408-1.034-5.175h7.014c.843-1.763.843-3.296 0-4.6-2.606 0-4.752.575-6.439 1.725-1.226 1.38-3.066 1.955-5.52 1.725-2.454-.229-4.102-.996-4.945-2.3-.307.23-.459.652-.459 1.266-1.995-1.15-3.527-1.457-4.601-.92z"/><radialGradient id="b" cx="-39.512" cy="329.541" r="122.404" gradientTransform="matrix(.1646 -.9864 -2.2704 -.4218 1189.02 339.969)" gradientUnits="userSpaceOnUse"><stop offset="0" stop-color="#999"/><stop offset="1" stop-color="#e9e9e9"/></radialGradient><path fill="url(#b)" d="M276.032 88.214v-2.645l-2.3-1.38a17.027 17.027 0 0 1-.346-1.725l-20.354 4.485 1.609 2.415 14.949 5.98a1.358 1.358 0 0 1-.23-.345c-.075-3.987 2.149-6.249 6.672-6.785m457.104 80.266c-7.131-3.373-14.949-6.516-23.459-9.429L423.8 83.614c-40.938-11.576-79.845-14.527-116.719-8.855l-15.871 3.68 18.745 7.59c3.909 2.759 6.056 6.669 6.439 11.729-2.837 2.53-5.558 2.53-8.165 0-.69-1.533-1.802-3.028-3.335-4.484l-18.514-7.705H285v2.875c3.22.306 5.366 2.376 6.439 6.21-.689 3.833-4.332 5.634-10.924 5.404-1.303 0-2.53-.115-3.68-.345 2.071 2.377 3.297 5.405 3.68 9.085-2.99 2.453-5.788 2.453-8.395 0-.613-1.457-1.725-2.952-3.335-4.485l-18.514-7.705h-1.38v2.76c3.22.46 5.405 2.568 6.555 6.325-.613 3.833-4.293 5.635-11.039 5.405-5.214-.077-8.931-1.725-11.155-4.944-.076-4.063 2.185-6.363 6.784-6.9v-2.646l-2.3-1.495c-.307-1.303-.498-2.797-.575-4.484l-60.947 13.799c-6.439 2.759-12.343 5.75-17.708 8.969 40.018-15.179 48.873-13.032 26.563 6.439-22.079 8.28-25.682 14.796-10.809 19.549l240.224 101.654c20.929 7.36 42.473 13.225 64.627 17.596 25.452 5.136 48.68 7.589 69.687 7.359 28.748-.842 56.922-4.678 84.521-11.499 19.473-4.831 43.889-12.611 73.252-23.345 21.697-10.502 32.235-22.5 31.624-35.993l-5.059-26.677z"/><radialGradient id="c" cx="18.278" cy="384.38" r="78.407" gradientTransform="matrix(.2468 -.9691 -3.5529 -1.0057 1745.406 571.748)" gradientUnits="userSpaceOnUse"><stop offset="0" stop-color="#999"/><stop offset="1" stop-color="#e9e9e9"/></radialGradient><path fill="url(#c)" d="M138.039 150.427l32.543 15.869a4411.776 4411.776 0 0 0 215.959 96.479c18.399 9.66 39.673 17.44 63.822 23.345 26.067 6.134 51.595 9.238 76.585 9.314 38.333-.537 73.597-4.14 105.796-10.81 25.606-5.213 51.709-12.917 78.311-23.114 20.931-8.049 38.065-17.786 51.404-29.209 8.278-10.272 8.278-24.876 0-43.813-6.058-6.899-15.832-13.569-29.324-20.009l5.061 26.679c.611 13.493-9.927 25.491-31.624 35.993-29.363 10.733-53.779 18.514-73.252 23.345-27.6 6.821-55.773 10.657-84.521 11.499-21.007.229-44.234-2.224-69.687-7.359-22.154-4.371-43.698-10.235-64.627-17.596L174.262 139.387c-14.873-4.753-11.27-11.27 10.809-19.549 22.31-19.472 13.455-21.619-26.563-6.439-22.463 12.801-29.286 25.144-20.469 37.028z"/></g><path fill="none" stroke="#000" stroke-width="2" stroke-linecap="round" stroke-linejoin="round" d="M733.136 168.48c-7.131-3.373-14.949-6.516-23.459-9.429L423.8 83.614c-40.938-11.576-79.845-14.527-116.719-8.855l-15.871 3.68m-54.047 12.19l-60.947 13.799c-6.439 2.759-12.343 5.75-17.708 8.969m574.628 55.083c13.492 6.44 23.267 13.11 29.324 20.009 8.278 18.936 8.278 33.541 0 43.813-13.339 11.423-30.474 21.16-51.404 29.209l-38.292 77.047c-4.831 11.271-12.881 21.579-24.148 30.934-10.042 8.434-22.31 15.601-36.799 21.503-14.873 7.055-30.934 12.037-48.183 14.95-15.179 2.607-31.894 3.717-50.138 3.335-17.862.152-36.108-2.682-54.736-8.51-12.575-3.987-30.399-11.232-53.474-21.734l-196.411-98.09c-9.046-4.907-14.911-15.832-17.594-32.773l-20.699-81.876-32.543-15.869c-8.816-11.884-1.993-24.227 20.469-37.029m114.879-30.935l-20.354 4.485m-82.451 79.347a4411.776 4411.776 0 0 0 215.959 96.479c18.399 9.66 39.673 17.44 63.822 23.345 26.067 6.134 51.595 9.238 76.585 9.314 38.333-.537 73.597-4.14 105.796-10.81 25.606-5.213 51.709-12.917 78.311-23.114"/><path fill="none" stroke="#000" stroke-linecap="round" stroke-linejoin="round" d="M291.21 78.439l18.745 7.59c3.909 2.759 6.056 6.669 6.439 11.729-2.837 2.53-5.558 2.53-8.165 0-.69-1.533-1.802-3.028-3.335-4.484l-18.514-7.705H285v2.875c3.22.306 5.366 2.376 6.439 6.21-.689 3.833-4.332 5.634-10.924 5.404-1.303 0-2.53-.115-3.68-.345 2.071 2.377 3.297 5.405 3.68 9.085-2.99 2.453-5.788 2.453-8.395 0-.613-1.457-1.725-2.952-3.335-4.485l-18.514-7.705h-1.38v2.76c3.22.46 5.405 2.568 6.555 6.325-.613 3.833-4.293 5.635-11.039 5.405-5.214-.077-8.931-1.725-11.155-4.944-.076-4.063 2.185-6.363 6.784-6.9v-2.646l-2.3-1.495c-.307-1.303-.498-2.797-.575-4.484m-52.09 29.208c-22.079 8.28-25.682 14.796-10.809 19.549L414.486 241.04c20.929 7.36 42.473 13.225 64.627 17.596 25.452 5.136 48.68 7.589 69.687 7.359 28.748-.842 56.922-4.678 84.521-11.499 19.473-4.831 43.889-12.611 73.252-23.345 21.697-10.502 32.235-22.5 31.624-35.993M240.038 56.935c-.307.23-.459.652-.459 1.266-1.993-1.15-3.526-1.457-4.6-.919-1.38 1.533-1.649 3.027-.805 4.484h6.555c.383.383.844.767 1.38 1.15 1.226.69 2.759 1.036 4.6 1.036 0-.078.115-.116.345-.116.23 1.534 1.533 2.109 3.909 1.725.921-2.683.575-4.408-1.034-5.175h7.014c.843-1.763.843-3.296 0-4.6-2.606 0-4.752.575-6.439 1.725-1.226 1.38-3.066 1.955-5.52 1.725-2.454-.23-4.103-.997-4.946-2.301.46-.766 1.228-1.303 2.3-1.609-1.227-.767-1.763-1.955-1.609-3.565 1.074-.689 1.878-.689 2.415 0l1.15 2.646c3.91.229 5.98 1.264 6.21 3.104m-8.395 5.404l-.23 8.51c1.916 1.38 3.526 1.38 4.83 0V63.95m39.787-17.594c-.154-1.763-2.185-2.76-6.094-2.99l-1.15-2.645c-.537-.689-1.38-.689-2.53 0-.154 1.457.421 2.645 1.725 3.564-1.15.308-1.955.843-2.415 1.61.92 1.15 2.568 1.878 4.944 2.186 2.453.307 4.294-.268 5.52-1.725 1.687-1.074 3.833-1.61 6.439-1.61.921 1.15.921 2.683 0 4.6h-7.129c1.763.69 2.146 2.338 1.15 4.945-2.454.46-3.756-.077-3.91-1.609-.154 0-.268.077-.345.229v7.475l1.265 3.796 2.99 8.625 3.795 5.404.459.23M278.216 51.76l-.345 8.625c1.917 1.228 3.526 1.228 4.83 0m-4.485-8.625a10.435 10.435 0 0 1-1.495-1.034h-6.555c-.92-1.457-.689-2.913.69-4.37 1.15-.69 2.721-.422 4.714.804 0-.537.154-.958.46-1.265m6.672 7.015c-1.84 0-3.335-.383-4.485-1.15m-1.725 12.421l-2.875 7.589c-.077.46-.115.805-.115 1.035 4.293 2.99 8.777 2.99 13.455 0m-2.991-8.624c-2.53 1.687-5.021 1.687-7.475 0l1.38-3.796m7.13 25.184c-2.913 1.303-5.903 1.303-8.969 0v5.52c2.606 1.763 5.596 1.84 8.969.23v-2.875m-11.614-5.98c.077.537.192 1.112.346 1.725l2.3 1.38m.803 14.144a18.325 18.325 0 0 0-2.875-2.53l-4.37-1.839-14.949-5.98-1.609-2.415-2.071-2.76c-4.676 2.837-9.16 2.837-13.454 0-.306 2.377-.422 4.523-.346 6.44m38.87-2.415c-4.523.537-6.747 2.798-6.67 6.785.077.153.154.269.23.345m-29.554 3.91v2.99c2.606 1.687 5.559 1.839 8.854.46v-3.335m-8.393-24.035c2.454 1.61 4.944 1.61 7.475 0l-1.265-3.909m4.253 12.764l-2.989-8.854m-7.474-.001l-2.875 7.705c-.076.23-.115.613-.115 1.15m11.384 12.419c-2.913 1.38-5.864 1.38-8.854 0m1.839-25.183l-1.38 3.909m33.004-2.529c-.46 3.833-.499 7.052-.115 9.659"/></svg>