<?xml version="1.0" encoding="utf-8"?>
<!-- Generator: Adobe Illustrator 16.0.0, SVG Export Plug-In . SVG Version: 6.00 Build 0)  -->
<!DOCTYPE svg PUBLIC "-//W3C//DTD SVG 1.1//EN" "http://www.w3.org/Graphics/SVG/1.1/DTD/svg11.dtd">
<svg version="1.1" id="Layer_1" xmlns="http://www.w3.org/2000/svg" xmlns:xlink="http://www.w3.org/1999/xlink" x="0px" y="0px"
	 width="900px" height="450px" viewBox="0 0 900 450" enable-background="new 0 0 900 450" xml:space="preserve">
<g transform="matrix( 1, 0, 0, 1, 0,0) ">
	<g>
		<g id="Layer0_0_FILL">
			
				<linearGradient id="SVGID_1_" gradientUnits="userSpaceOnUse" x1="141.542" y1="91.5156" x2="682.0156" y2="91.5156" gradientTransform="matrix(1 0 0 -1 29.04 379.3398)">
				<stop  offset="0" style="stop-color:#999999"/>
				<stop  offset="1" style="stop-color:#FFFFFF"/>
			</linearGradient>
			<path fill="url(#SVGID_1_)" d="M405.286,379.035c23.075,10.502,40.899,17.747,53.474,21.734
				c18.628,5.828,36.874,8.662,54.736,8.51c18.244,0.382,34.959-0.728,50.138-3.335c17.249-2.913,33.31-7.896,48.183-14.95
				c14.489-5.902,26.757-13.069,36.799-21.503c11.268-9.354,19.317-19.663,24.148-30.934l38.292-77.047
				c-26.602,10.197-52.704,17.901-78.311,23.114c-32.199,6.67-67.463,10.272-105.796,10.81c-24.99-0.076-50.519-3.181-76.585-9.314
				c-24.149-5.904-45.423-13.685-63.822-23.345c-73.136-30.358-145.124-62.518-215.959-96.479l20.699,81.876
				c2.683,16.941,8.548,27.866,17.594,32.773L405.286,379.035z"/>
			<path fill="#C2C2C2" d="M247.973,75.334c-2.53,1.61-5.021,1.61-7.475,0l-2.875,7.705c-0.076,0.23-0.115,0.613-0.115,1.15
				c4.293,2.837,8.777,2.837,13.454,0L247.973,75.334 M248.893,99.369v3.335c-3.296,1.379-6.248,1.226-8.854-0.46v-2.99
				c-4.6,0.537-6.86,2.837-6.784,6.9c2.224,3.22,5.941,4.867,11.155,4.944c6.746,0.23,10.426-1.572,11.039-5.405
				C254.298,101.937,252.112,99.829,248.893,99.369 M248.893,102.704v-3.335v-2.76c-2.913,1.38-5.864,1.38-8.854,0v2.646v2.99
				C242.645,103.93,245.597,104.083,248.893,102.704 M269.592,95.344l4.37,1.839c1.074,0.767,2.032,1.61,2.875,2.53
				c1.15,0.23,2.377,0.345,3.68,0.345c6.593,0.23,10.235-1.571,10.924-5.404c-1.074-3.834-3.22-5.904-6.439-6.21v2.875
				c-3.374,1.61-6.363,1.533-8.969-0.23v-2.875c-4.523,0.537-6.747,2.798-6.67,6.785C269.439,95.152,269.516,95.268,269.592,95.344
				 M273.961,97.183l-4.37-1.839l-14.949-5.98l-1.609-2.415l-2.071-2.76c-4.676,2.837-9.16,2.837-13.454,0
				c-0.306,2.377-0.422,4.523-0.346,6.44c0.078,1.687,0.269,3.182,0.575,4.484l2.3,1.495c2.99,1.38,5.941,1.38,8.854,0h1.38
				l18.514,7.705c1.61,1.533,2.722,3.029,3.335,4.485c2.606,2.453,5.405,2.453,8.395,0c-0.383-3.68-1.609-6.708-3.68-9.085
				C275.993,98.793,275.035,97.95,273.961,97.183 M285.001,88.444v-2.875c-2.913,1.303-5.903,1.303-8.969,0v2.645v2.875
				c2.606,1.763,5.596,1.84,8.969,0.23V88.444 M304.896,93.274c1.533,1.457,2.645,2.952,3.335,4.484c2.607,2.53,5.328,2.53,8.165,0
				c-0.383-5.059-2.53-8.969-6.439-11.729l-18.745-7.59l-0.459-0.23l-3.795-5.404c-4.677,2.99-9.161,2.99-13.455,0
				c-0.46,3.833-0.499,7.052-0.115,9.659c0.077,0.537,0.192,1.112,0.346,1.725l2.3,1.38c3.066,1.303,6.056,1.303,8.969,0h1.38
				L304.896,93.274 M276.492,64.181c2.454,1.687,4.944,1.687,7.475,0l-1.265-3.796c-1.304,1.228-2.913,1.228-4.83,0L276.492,64.181
				 M273.617,71.77c-0.077,0.46-0.115,0.805-0.115,1.035c4.293,2.99,8.777,2.99,13.455,0l-2.99-8.625
				c-2.53,1.687-5.021,1.687-7.475,0L273.617,71.77 M282.702,52.91c0.077-0.152,0.191-0.229,0.345-0.229
				c0.154,1.533,1.457,2.07,3.91,1.609c0.996-2.606,0.613-4.255-1.15-4.945h7.129c0.921-1.917,0.921-3.45,0-4.6
				c-2.606,0-4.752,0.537-6.439,1.61c-1.226,1.457-3.067,2.032-5.52,1.725c-2.376-0.308-4.024-1.036-4.944-2.186
				c-0.307,0.307-0.46,0.728-0.46,1.265c-1.993-1.227-3.564-1.495-4.714-0.804c-1.38,1.457-1.61,2.913-0.69,4.37h6.555
				c0.46,0.383,0.958,0.728,1.495,1.034C279.366,52.527,280.861,52.91,282.702,52.91 M278.216,51.76l-0.345,8.625
				c1.917,1.228,3.526,1.228,4.83,0V52.91C280.861,52.91,279.366,52.527,278.216,51.76 M280.402,43.366l-1.15-2.645
				c-0.537-0.689-1.38-0.689-2.53,0c-0.154,1.457,0.421,2.645,1.725,3.564c-1.15,0.308-1.955,0.843-2.415,1.61
				c0.92,1.15,2.568,1.878,4.944,2.186c2.453,0.307,4.293-0.269,5.52-1.725C286.342,44.593,284.311,43.596,280.402,43.366
				 M246.708,71.425c-1.304,1.38-2.914,1.38-4.83,0l-1.38,3.909c2.454,1.61,4.944,1.61,7.475,0L246.708,71.425 M242.109,62.915
				l-0.23,8.51c1.916,1.38,3.526,1.38,4.83,0v-7.475C244.868,63.951,243.335,63.605,242.109,62.915 M244.983,59.235
				c2.453,0.23,4.293-0.345,5.52-1.725c-0.23-1.84-2.3-2.875-6.21-3.104l-1.15-2.646c-0.537-0.689-1.341-0.689-2.415,0
				c-0.154,1.61,0.383,2.798,1.609,3.565c-1.072,0.307-1.839,0.844-2.3,1.609C240.881,58.239,242.53,59.006,244.983,59.235
				 M234.979,57.281c-1.38,1.533-1.649,3.027-0.805,4.484h6.555c0.383,0.383,0.844,0.767,1.38,1.15
				c1.226,0.69,2.759,1.036,4.6,1.036c0-0.078,0.115-0.116,0.345-0.116c0.23,1.534,1.533,2.109,3.909,1.725
				c0.921-2.683,0.575-4.408-1.034-5.175h7.014c0.843-1.763,0.843-3.296,0-4.6c-2.606,0-4.752,0.575-6.439,1.725
				c-1.226,1.38-3.066,1.955-5.52,1.725c-2.454-0.229-4.102-0.996-4.945-2.3c-0.307,0.23-0.459,0.652-0.459,1.266
				C237.585,57.051,236.053,56.744,234.979,57.281z"/>
			
				<radialGradient id="SVGID_2_" cx="-39.5117" cy="329.541" r="122.4039" gradientTransform="matrix(0.1646 -0.9864 -2.2704 -0.4218 1189.0195 339.9688)" gradientUnits="userSpaceOnUse">
				<stop  offset="0" style="stop-color:#999999"/>
				<stop  offset="1" style="stop-color:#E9E9E9"/>
			</radialGradient>
			<path fill="url(#SVGID_2_)" d="M276.032,88.214v-2.645l-2.3-1.38c-0.154-0.613-0.269-1.188-0.346-1.725l-20.354,4.485
				l1.609,2.415l14.949,5.98c-0.076-0.076-0.153-0.192-0.23-0.345C269.285,91.012,271.509,88.75,276.032,88.214 M733.136,168.48
				c-7.131-3.373-14.949-6.516-23.459-9.429L423.8,83.614c-40.938-11.576-79.845-14.527-116.719-8.855l-15.871,3.68l18.745,7.59
				c3.909,2.759,6.056,6.669,6.439,11.729c-2.837,2.53-5.558,2.53-8.165,0c-0.69-1.533-1.802-3.028-3.335-4.484l-18.514-7.705h-1.38
				v2.875c3.22,0.306,5.366,2.376,6.439,6.21c-0.689,3.833-4.332,5.634-10.924,5.404c-1.303,0-2.53-0.115-3.68-0.345
				c2.071,2.377,3.297,5.405,3.68,9.085c-2.99,2.453-5.788,2.453-8.395,0c-0.613-1.457-1.725-2.952-3.335-4.485l-18.514-7.705h-1.38
				v2.76c3.22,0.46,5.405,2.568,6.555,6.325c-0.613,3.833-4.293,5.635-11.039,5.405c-5.214-0.077-8.931-1.725-11.155-4.944
				c-0.076-4.063,2.185-6.363,6.784-6.9v-2.646l-2.3-1.495c-0.307-1.303-0.498-2.797-0.575-4.484l-60.947,13.799
				c-6.439,2.759-12.343,5.75-17.708,8.969c40.018-15.179,48.873-13.032,26.563,6.439c-22.079,8.28-25.682,14.796-10.809,19.549
				l240.224,101.654c20.929,7.36,42.473,13.225,64.627,17.596c25.452,5.136,48.68,7.589,69.687,7.359
				c28.748-0.842,56.922-4.678,84.521-11.499c19.473-4.831,43.889-12.611,73.252-23.345c21.697-10.502,32.235-22.5,31.624-35.993
				L733.136,168.48z"/>
			
				<radialGradient id="SVGID_3_" cx="18.2778" cy="384.3799" r="78.407" gradientTransform="matrix(0.2468 -0.9691 -3.5529 -1.0057 1745.4063 571.748)" gradientUnits="userSpaceOnUse">
				<stop  offset="0" style="stop-color:#999999"/>
				<stop  offset="1" style="stop-color:#E9E9E9"/>
			</radialGradient>
			<path fill="url(#SVGID_3_)" d="M138.039,150.427l32.543,15.869c70.836,33.961,142.823,66.121,215.959,96.479
				c18.399,9.66,39.673,17.44,63.822,23.345c26.067,6.134,51.595,9.238,76.585,9.314c38.333-0.537,73.597-4.14,105.796-10.81
				c25.606-5.213,51.709-12.917,78.311-23.114c20.931-8.049,38.065-17.786,51.404-29.209c8.278-10.272,8.278-24.876,0-43.813
				c-6.058-6.899-15.832-13.569-29.324-20.009l5.061,26.679c0.611,13.493-9.927,25.491-31.624,35.993
				c-29.363,10.733-53.779,18.514-73.252,23.345c-27.6,6.821-55.773,10.657-84.521,11.499c-21.007,0.229-44.234-2.224-69.687-7.359
				c-22.154-4.371-43.698-10.235-64.627-17.596L174.262,139.387c-14.873-4.753-11.27-11.27,10.809-19.549
				c22.31-19.472,13.455-21.619-26.563-6.439C136.045,126.2,129.222,138.543,138.039,150.427z"/>
		</g>
	</g>
	<g>
		<path id="Layer0_0_1_STROKES" fill="none" stroke="#000000" stroke-width="2" stroke-linecap="round" stroke-linejoin="round" d="
			M733.136,168.48c-7.131-3.373-14.949-6.516-23.459-9.429L423.8,83.614c-40.938-11.576-79.845-14.527-116.719-8.855l-15.871,3.68
			 M237.163,90.629l-60.947,13.799c-6.439,2.759-12.343,5.75-17.708,8.969 M733.136,168.48c13.492,6.44,23.267,13.11,29.324,20.009
			c8.278,18.936,8.278,33.541,0,43.813c-13.339,11.423-30.474,21.16-51.404,29.209l-38.292,77.047
			c-4.831,11.271-12.881,21.579-24.148,30.934c-10.042,8.434-22.31,15.601-36.799,21.503c-14.873,7.055-30.934,12.037-48.183,14.95
			c-15.179,2.607-31.894,3.717-50.138,3.335c-17.862,0.152-36.108-2.682-54.736-8.51c-12.575-3.987-30.399-11.232-53.474-21.734
			l-196.411-98.09c-9.046-4.907-14.911-15.832-17.594-32.773l-20.699-81.876l-32.543-15.869
			c-8.816-11.884-1.993-24.227,20.469-37.029 M273.387,82.464l-20.354,4.485 M170.582,166.296
			c70.836,33.961,142.823,66.121,215.959,96.479c18.399,9.66,39.673,17.44,63.822,23.345c26.067,6.134,51.595,9.238,76.585,9.314
			c38.333-0.537,73.597-4.14,105.796-10.81c25.606-5.213,51.709-12.917,78.311-23.114"/>
	</g>
	<g>
		<path id="Layer0_0_2_STROKES" fill="none" stroke="#000000" stroke-linecap="round" stroke-linejoin="round" d="M291.21,78.439
			l18.745,7.59c3.909,2.759,6.056,6.669,6.439,11.729c-2.837,2.53-5.558,2.53-8.165,0c-0.69-1.533-1.802-3.028-3.335-4.484
			l-18.514-7.705h-1.38v2.875c3.22,0.306,5.366,2.376,6.439,6.21c-0.689,3.833-4.332,5.634-10.924,5.404
			c-1.303,0-2.53-0.115-3.68-0.345c2.071,2.377,3.297,5.405,3.68,9.085c-2.99,2.453-5.788,2.453-8.395,0
			c-0.613-1.457-1.725-2.952-3.335-4.485l-18.514-7.705h-1.38v2.76c3.22,0.46,5.405,2.568,6.555,6.325
			c-0.613,3.833-4.293,5.635-11.039,5.405c-5.214-0.077-8.931-1.725-11.155-4.944c-0.076-4.063,2.185-6.363,6.784-6.9v-2.646
			l-2.3-1.495c-0.307-1.303-0.498-2.797-0.575-4.484 M185.071,119.837c-22.079,8.28-25.682,14.796-10.809,19.549l240.224,101.654
			c20.929,7.36,42.473,13.225,64.627,17.596c25.452,5.136,48.68,7.589,69.687,7.359c28.748-0.842,56.922-4.678,84.521-11.499
			c19.473-4.831,43.889-12.611,73.252-23.345c21.697-10.502,32.235-22.5,31.624-35.993 M240.038,56.935
			c-0.307,0.23-0.459,0.652-0.459,1.266c-1.993-1.15-3.526-1.457-4.6-0.919c-1.38,1.533-1.649,3.027-0.805,4.484h6.555
			c0.383,0.383,0.844,0.767,1.38,1.15c1.226,0.69,2.759,1.036,4.6,1.036c0-0.078,0.115-0.116,0.345-0.116
			c0.23,1.534,1.533,2.109,3.909,1.725c0.921-2.683,0.575-4.408-1.034-5.175h7.014c0.843-1.763,0.843-3.296,0-4.6
			c-2.606,0-4.752,0.575-6.439,1.725c-1.226,1.38-3.066,1.955-5.52,1.725C242.53,59.006,240.881,58.239,240.038,56.935
			c0.46-0.766,1.228-1.303,2.3-1.609c-1.227-0.767-1.763-1.955-1.609-3.565c1.074-0.689,1.878-0.689,2.415,0l1.15,2.646
			c3.91,0.229,5.98,1.264,6.21,3.104 M242.109,62.915l-0.23,8.51c1.916,1.38,3.526,1.38,4.83,0v-7.475 M286.496,46.356
			c-0.154-1.763-2.185-2.76-6.094-2.99l-1.15-2.645c-0.537-0.689-1.38-0.689-2.53,0c-0.154,1.457,0.421,2.645,1.725,3.564
			c-1.15,0.308-1.955,0.843-2.415,1.61c0.92,1.15,2.568,1.878,4.944,2.186C283.429,48.388,285.27,47.813,286.496,46.356
			c1.687-1.074,3.833-1.61,6.439-1.61c0.921,1.15,0.921,2.683,0,4.6h-7.129c1.763,0.69,2.146,2.338,1.15,4.945
			c-2.454,0.46-3.756-0.077-3.91-1.609c-0.154,0-0.268,0.077-0.345,0.229v7.475l1.265,3.796l2.99,8.625l3.795,5.404l0.459,0.23
			 M278.216,51.76l-0.345,8.625c1.917,1.228,3.526,1.228,4.83,0 M278.216,51.76c-0.537-0.307-1.034-0.651-1.495-1.034h-6.555
			c-0.92-1.457-0.689-2.913,0.69-4.37c1.15-0.69,2.721-0.422,4.714,0.804c0-0.537,0.154-0.958,0.46-1.265 M282.702,52.91
			c-1.84,0-3.335-0.383-4.485-1.15 M276.492,64.181l-2.875,7.589c-0.077,0.46-0.115,0.805-0.115,1.035
			c4.293,2.99,8.777,2.99,13.455,0 M283.966,64.181c-2.53,1.687-5.021,1.687-7.475,0l1.38-3.796 M285.001,85.569
			c-2.913,1.303-5.903,1.303-8.969,0v2.645v2.875c2.606,1.763,5.596,1.84,8.969,0.23v-2.875 M273.387,82.464
			c0.077,0.537,0.192,1.112,0.346,1.725l2.3,1.38 M276.836,99.713c-0.843-0.92-1.801-1.763-2.875-2.53l-4.37-1.839l-14.949-5.98
			l-1.609-2.415l-2.071-2.76c-4.676,2.837-9.16,2.837-13.454,0c-0.306,2.377-0.422,4.523-0.346,6.44 M276.032,88.214
			c-4.523,0.537-6.747,2.798-6.67,6.785c0.077,0.153,0.154,0.269,0.23,0.345 M240.038,99.254v2.99
			c2.606,1.687,5.559,1.839,8.854,0.46v-3.335 M240.499,75.334c2.454,1.61,4.944,1.61,7.475,0l-1.265-3.909 M250.962,84.189
			l-2.989-8.854 M240.499,75.334l-2.875,7.705c-0.076,0.23-0.115,0.613-0.115,1.15 M248.893,96.608c-2.913,1.38-5.864,1.38-8.854,0
			 M241.878,71.425l-1.38,3.909 M273.502,72.805c-0.46,3.833-0.499,7.052-0.115,9.659"/>
	</g>
</g>
</svg>
