<?xml version="1.0" encoding="utf-8"?>
<!-- Generator: Adobe Illustrator 16.0.0, SVG Export Plug-In . SVG Version: 6.00 Build 0)  -->
<!DOCTYPE svg PUBLIC "-//W3C//DTD SVG 1.1//EN" "http://www.w3.org/Graphics/SVG/1.1/DTD/svg11.dtd">
<svg version="1.1" id="Layer_1" xmlns="http://www.w3.org/2000/svg" xmlns:xlink="http://www.w3.org/1999/xlink" x="0px" y="0px"
	 width="900px" height="450px" viewBox="0 0 900 450" enable-background="new 0 0 900 450" xml:space="preserve">
<g transform="matrix( 1, 0, 0, 1, 0,0) ">
	<g>
		<g id="Layer2_0_FILL">
			<path fill="#DEA069" d="M446.399,398.049l-0.12-53.647c-32.799,0.562-65.477-0.202-98.035-2.286
				c-35.044-2.243-74.377-6.054-118.002-11.427c-43.625-5.613-71.452-9.903-83.48-12.87c-3.608-0.881-6.896-1.765-9.864-2.647
				l0.121,55.332L446.399,398.049 M782.244,113.689l-25.862,12.63c0.802,0.321,1.603,0.641,2.406,0.962h6.493
				c-1.123,0.721-2.283,1.363-3.486,1.924c3.127,3.047,5.051,8.26,5.772,15.637c1.043,9.302,1.365,20.771,0.964,34.403
				c-0.162,6.495-1.525,11.467-4.091,14.915c-2.565,3.288-7.377,6.616-14.435,9.985c-23.094,10.344-52.564,25.26-88.411,44.746
				c-24.619,13.474-58.138,29.51-100.561,48.115c-69.767,30.633-105.494,46.351-107.176,47.154
				c-2.487,0.079-5.013,0.159-7.579,0.239l0.12,53.647l336.325-162.87L782.244,113.689 M747.48,123.072
				c3.207,1.043,6.174,2.125,8.901,3.248l25.862-12.63l-24.18-2.286c-1.203,1.925-2.486,3.689-3.849,5.293
				C752.21,119.021,749.966,121.147,747.48,123.072z"/>
			<path fill="#407EFF" d="M446.159,284.979c-0.882-1.203-1.925-1.685-3.128-1.442c-41.378-2.326-92.862-5.935-154.449-10.826
				c-32.397-2.808-60.345-5.895-83.841-9.264c-24.218-3.688-46.872-8.178-67.962-13.471c-3.449-0.884-6.857-1.765-10.225-2.646
				c-1.283,5.692-2.766,14.192-4.451,25.5c-0.882,6.334-2.125,15.436-3.729,27.305c-0.882,5.774,5.292,10.788,18.523,15.036
				c2.967,0.883,6.255,1.767,9.864,2.647c12.029,2.967,39.856,7.257,83.48,12.87c43.625,5.373,82.958,9.184,118.002,11.427
				c32.558,2.084,65.236,2.848,98.035,2.286c2.566-0.08,5.092-0.16,7.579-0.239c1.442-1.927,1.804-6.095,1.081-12.511
				c-0.16-1.924-1.443-10.185-3.849-24.778c-1.765-10.667-3.047-17.282-3.85-19.848C446.92,286.222,446.56,285.54,446.159,284.979z"
				/>
			<path fill="#6699FF" d="M761.795,129.206c1.203-0.562,2.363-1.203,3.486-1.924h-6.493
				C759.99,127.764,760.991,128.405,761.795,129.206z"/>
			<path fill="#1763FF" d="M768.531,179.247c0.401-13.632,0.079-25.101-0.964-34.403c-0.722-7.377-2.646-12.59-5.772-15.637
				c-15.797,9.864-51.324,29.07-106.577,57.618c-55.412,28.308-95.347,48.195-119.806,59.662
				c-31.354,15.156-61.105,27.185-89.253,36.087c-1.043,0.321-2.085,0.642-3.128,0.963c1.203-0.242,2.246,0.239,3.128,1.442
				c0.4,0.562,0.761,1.243,1.082,2.047c0.802,2.565,2.085,9.181,3.85,19.848c2.405,14.594,3.688,22.854,3.849,24.778
				c0.723,6.416,0.361,10.584-1.081,12.511c1.682-0.804,37.409-16.521,107.176-47.154c42.423-18.605,75.941-34.642,100.561-48.115
				c35.847-19.486,65.317-34.402,88.411-44.746c7.058-3.369,11.869-6.697,14.435-9.985
				C767.006,190.714,768.369,185.741,768.531,179.247 M747.48,123.072c2.485-1.924,4.729-4.05,6.735-6.375
				c1.362-1.604,2.646-3.368,3.849-5.293c5.375-8.661,8.383-20.168,9.021-34.523c-13.152,0.481-23.376,5.012-30.674,13.593
				c-4.008,4.651-7.337,10.665-9.982,18.043c-0.963,2.565-1.844,5.332-2.647,8.299C732.926,118.822,740.824,120.907,747.48,123.072
				 M586.654,95.406c-0.399,1.123-0.762,2.286-1.081,3.489c6.815,0.562,13.472,1.163,19.968,1.804
				c2.645-6.896,6.014-12.751,10.104-17.563c3.207-3.768,7.015-7.136,11.427-10.103c0.479-3.369,0.802-6.978,0.961-10.826
				c-13.231,0.401-23.496,4.892-30.793,13.471C592.99,80.65,589.462,87.226,586.654,95.406z"/>
			<path fill="#7DA8FF" d="M622.139,102.262c-5.45-0.562-10.985-1.083-16.598-1.563c-6.496-0.642-13.152-1.243-19.968-1.804
				c-35.847-3.047-76.183-5.654-121.012-7.819c-7.456-0.402-15.034-0.762-22.733-1.083c-19.406,6.014-42.501,14.916-69.285,26.704
				c-31.677,14.514-56.696,25.781-75.06,33.8c-19.487,8.261-40.577,18.083-63.271,29.471
				c-20.289,10.023-31.997,15.677-35.124,16.961c-11.468,4.41-26.904,13.192-46.311,26.343c-5.533,3.929-10.706,8.219-15.518,12.871
				c-1.363,1.123-4.931,4.852-10.705,11.188c3.368,0.881,6.776,1.762,10.225,2.646c21.09,5.293,43.744,9.782,67.962,13.471
				c23.496,3.369,51.443,6.456,83.841,9.264c61.587,4.892,113.071,8.5,154.449,10.826c1.043-0.321,2.085-0.642,3.128-0.963
				c28.147-8.902,57.898-20.931,89.253-36.087c24.459-11.467,64.394-31.354,119.806-59.662
				c55.253-28.548,90.78-47.754,106.577-57.618c-0.804-0.801-1.805-1.442-3.007-1.924c-0.804-0.321-1.604-0.641-2.406-0.962
				c-2.728-1.123-5.694-2.205-8.901-3.248c-6.656-2.165-14.555-4.25-23.698-6.255C699.004,111.443,665.123,106.592,622.139,102.262
				 M615.646,83.136c-4.091,4.812-7.46,10.667-10.104,17.563c5.612,0.48,11.147,1.002,16.598,1.563
				c42.984,4.33,76.865,9.181,101.644,14.554c0.804-2.967,1.685-5.733,2.647-8.299c2.646-7.378,5.975-13.393,9.982-18.043
				c7.298-8.581,17.521-13.112,30.674-13.593L646.678,63.529c-7.539,2.565-14.072,5.733-19.605,9.503
				C622.66,76,618.853,79.368,615.646,83.136 M585.573,98.895c0.319-1.203,0.682-2.366,1.081-3.489
				c2.808-8.18,6.336-14.755,10.586-19.728c7.297-8.58,17.562-13.07,30.793-13.471L507.626,51.5
				c-13.953,4.571-24.297,10.585-31.035,18.043c-5.131,5.533-9.142,12.71-12.029,21.532
				C509.391,93.241,549.727,95.847,585.573,98.895z"/>
		</g>
	</g>
	<g>
		<path id="Layer2_0_1_STROKES" fill="none" stroke="#36200C" stroke-width="2" stroke-linecap="round" stroke-linejoin="round" d="
			M756.382,126.32l25.862-12.63l-24.18-2.286 M446.279,344.401l0.12,53.647l336.325-162.87l-0.479-121.489 M136.898,315.171
			l0.121,55.332l309.379,27.546"/>
	</g>
	<g>
		<path id="Layer2_0_2_STROKES" fill="none" stroke="#000F2F" stroke-width="2" stroke-linecap="round" stroke-linejoin="round" d="
			M628.033,62.207c-13.231,0.401-23.496,4.892-30.793,13.471c-4.25,4.973-7.778,11.548-10.586,19.728
			c-0.399,1.123-0.762,2.286-1.081,3.489c6.815,0.562,13.472,1.163,19.968,1.804c2.645-6.896,6.014-12.751,10.104-17.563
			c3.207-3.768,7.015-7.136,11.427-10.103C627.552,69.664,627.874,66.055,628.033,62.207L507.626,51.5
			c-13.953,4.571-24.297,10.585-31.035,18.043c-5.131,5.533-9.142,12.71-12.029,21.532c44.829,2.165,85.165,4.771,121.012,7.819
			 M605.541,100.699c5.612,0.48,11.147,1.002,16.598,1.563c42.984,4.33,76.865,9.181,101.644,14.554
			c0.804-2.967,1.685-5.733,2.647-8.299c2.646-7.378,5.975-13.393,9.982-18.043c7.298-8.581,17.521-13.112,30.674-13.593
			L646.678,63.529c-7.539,2.565-14.072,5.733-19.605,9.503 M747.48,123.072c3.207,1.043,6.174,2.125,8.901,3.248 M758.064,111.404
			c-1.203,1.925-2.486,3.689-3.849,5.293c-2.006,2.325-4.25,4.451-6.735,6.375c-6.656-2.165-14.555-4.25-23.698-6.255
			 M758.064,111.404c5.375-8.661,8.383-20.168,9.021-34.523 M761.795,129.206c3.127,3.047,5.051,8.26,5.772,15.637
			c1.043,9.302,1.365,20.771,0.964,34.403c-0.162,6.495-1.525,11.467-4.091,14.915c-2.565,3.288-7.377,6.616-14.435,9.985
			c-23.094,10.344-52.564,25.26-88.411,44.746c-24.619,13.474-58.138,29.51-100.561,48.115
			c-69.767,30.633-105.494,46.351-107.176,47.154c-2.487,0.079-5.013,0.159-7.579,0.239 M761.795,129.206
			c-0.804-0.801-1.805-1.442-3.007-1.924c-0.804-0.321-1.604-0.641-2.406-0.962 M126.554,247.33
			c5.774-6.336,9.342-10.064,10.705-11.188c4.812-4.652,9.985-8.942,15.518-12.871c19.407-13.151,34.843-21.933,46.311-26.343
			c3.127-1.284,14.835-6.938,35.124-16.961c22.694-11.388,43.784-21.21,63.271-29.471c18.364-8.02,43.383-19.286,75.06-33.8
			c26.784-11.788,49.879-20.69,69.285-26.704c7.699,0.321,15.277,0.681,22.733,1.083 M446.279,344.401
			c-32.799,0.562-65.477-0.202-98.035-2.286c-35.044-2.243-74.377-6.054-118.002-11.427c-43.625-5.613-71.452-9.903-83.48-12.87
			c-3.608-0.881-6.896-1.765-9.864-2.647c-13.231-4.248-19.406-9.262-18.523-15.036c1.604-11.869,2.846-20.971,3.729-27.305
			c1.685-11.308,3.168-19.808,4.451-25.5"/>
	</g>
	<g>
		<path id="Layer2_0_3_STROKES" fill="none" stroke="#1763FF" stroke-linecap="round" stroke-linejoin="round" d="M765.281,127.282
			c-1.123,0.721-2.283,1.363-3.486,1.924c-15.797,9.864-51.324,29.07-106.577,57.618c-55.412,28.308-95.347,48.195-119.806,59.662
			c-31.354,15.156-61.105,27.185-89.253,36.087c-1.043,0.321-2.085,0.642-3.128,0.963c1.203-0.242,2.246,0.239,3.128,1.442
			c0.4,0.562,0.761,1.243,1.082,2.047c0.802,2.565,2.085,9.181,3.85,19.848c2.405,14.594,3.688,22.854,3.849,24.778
			c0.723,6.416,0.361,10.584-1.081,12.511"/>
	</g>
	<g>
		<path id="Layer2_0_4_STROKES" fill="none" stroke="#407EFF" stroke-linecap="round" stroke-linejoin="round" d="M126.554,247.33
			c3.368,0.881,6.776,1.762,10.225,2.646c21.09,5.293,43.744,9.782,67.962,13.471c23.496,3.369,51.443,6.456,83.841,9.264
			c61.587,4.892,113.071,8.5,154.449,10.826"/>
	</g>
</g>
</svg>
