<?xml version="1.0" encoding="utf-8"?>
<!-- Generator: Adobe Illustrator 16.0.0, SVG Export Plug-In . SVG Version: 6.00 Build 0)  -->
<!DOCTYPE svg PUBLIC "-//W3C//DTD SVG 1.1//EN" "http://www.w3.org/Graphics/SVG/1.1/DTD/svg11.dtd">
<svg version="1.1" id="Layer_1" xmlns="http://www.w3.org/2000/svg" xmlns:xlink="http://www.w3.org/1999/xlink" x="0px" y="0px"
	 width="900px" height="450px" viewBox="0 0 900 450" enable-background="new 0 0 900 450" xml:space="preserve">
<g transform="matrix( 1, 0, 0, 1, 0,0) ">
	<g>
		<g id="Layer0_0_FILL">
			<path fill="#1F1D10" d="M661.249,411.151l-17.257-9.089l-12.119,5.417L661.249,411.151 M610.392,385.633l21.481,21.847
				l12.119-5.417c-4.225-7.833-7.161-12.974-8.814-15.421c-2.447-3.55-6.271-6.915-11.475-10.098L610.392,385.633 M586.617,358.734
				l-12.393,7.712l36.167,19.187l13.312-9.089c-7.466-6.059-12.791-10.16-15.972-12.302c-3.611-2.325-7.65-4.161-12.119-5.508
				c-2.143-0.856-4.376-1.592-6.7-2.203L586.617,358.734 M536.587,332.848c5.508,8.813,10.524,15.452,15.054,19.92
				c1.775,1.775,4.07,3.764,6.885,5.967c4.163,2.325,9.396,4.895,15.699,7.712l12.393-7.712l2.295-2.203l-15.423-16.248
				l-16.982-17.992C550.142,326.759,543.501,330.277,536.587,332.848 M651.978,227.462l-5.325,13.312L651.978,227.462
				c-16.341-23.807-37.483-27.938-63.433-12.393l0.367,0.643v0.184l-20.38,93.175l-0.092,0.551
				c6.548,5.141,16.8,10.648,30.753,16.523c15.605,6.548,28.795,4.469,39.564-6.242c10.71-10.832,16.709-17.962,17.992-21.389
				c1.41-3.55,2.511-11.2,3.307-22.949c0.796-11.506,0.918-19.89,0.366-25.153c-1.04-8.079-2.601-13.739-4.682-16.983
				L651.978,227.462 M640.686,262.622c0,5.813-1.775,10.739-5.323,14.779c-3.365,4.039-7.496,6.058-12.393,6.058
				c-0.063,0-0.185,0-0.368,0c-3.672-0.121-6.885-1.315-9.639-3.58c-0.918-0.733-1.744-1.56-2.478-2.478
				c-3.489-4.04-5.233-8.967-5.233-14.779c0-5.692,1.744-10.528,5.233-14.505c3.426-4.101,7.588-6.15,12.484-6.15
				c1.712,0,3.365,0.274,4.957,0.825c1.406,0.491,2.815,1.255,4.223,2.295c1.225,0.735,2.295,1.744,3.213,3.03
				C638.91,252.094,640.686,256.93,640.686,262.622 M436.159,443.099l24.142-14.597l-16.156-2.754L436.159,443.099 M460.301,428.502
				l3.948-30.111l-20.104-2.754v30.111L460.301,428.502 M283.313,412.987l41.492-9.088l-17.349-2.846L283.313,412.987
				 M336.923,375.534l-17.442-12.669c-7.283,9.241-11.291,21.971-12.025,38.188l17.349,2.846L336.923,375.534 M478.846,371.036
				l-21.022-4.59c-8.813,10.709-13.372,20.439-13.679,29.19l20.104,2.754C474.347,392.761,479.213,383.643,478.846,371.036
				 M456.263,358.734c0.488,2.325,1.01,4.895,1.561,7.712l21.022,4.59c1.346-4.958,2.416-9.058,3.213-12.302
				c0.794-5.568,1.191-9.302,1.191-11.198c0-3.551-1.468-8.049-4.404-13.496c-6.427-1.896-13.436-4.772-21.022-8.629
				c-1.958,8.384-2.938,14.505-2.938,18.359C454.886,346.402,455.345,351.391,456.263,358.734 M364.188,358.734
				c1.163-1.896,2.356-3.916,3.581-6.059l-15.79-13.036l-24.786,19.095l-7.712,4.131l17.442,12.669
				c10.405-2.876,19.492-8.416,27.265-16.616V358.734 M408.435,319.903c-3.182,0.856-8.782,2.295-16.799,4.315
				c-11.506,2.447-21.542,4.253-30.111,5.416l-9.546,10.005l15.79,13.036c29.069-5.14,53.763-15.758,74.081-31.854l-6.977-9.73
				c-7.527,2.816-14.872,5.294-22.032,7.436L408.435,319.903z"/>
			<path fill="#FFB800" d="M588.912,215.712l-0.367-0.551v-0.091c-12.118-23.194-32.802-40.606-62.056-52.234
				c-5.265,45.899-13.433,84.639-24.512,116.217c6.55,0.674,11.843,1.04,15.882,1.103l-1.193,13.493
				c-6.916,0.185-14.016,0.429-21.297,0.735l-0.092,5.141l-10.006,36.443c18.113,4.346,35.219,3.307,51.315-3.12
				c6.914-2.57,13.555-6.089,19.92-10.557c2.571-1.775,6.243-4.622,11.016-8.538l0.918-4.039v-0.092l0.092-0.551l20.38-93.175
				V215.712 M391.636,324.219c8.017-2.021,13.617-3.459,16.799-4.315l4.774-17.901c-8.262,0.857-15.759,1.836-22.491,2.938
				c-13.403,1.897-23.592,3.427-30.57,4.59c-11.934,1.773-21.175,3.244-27.723,4.405l-5.232,18.819l6.885-0.459
				c7.344-0.366,16.493-1.255,27.447-2.661C370.094,328.472,380.13,326.666,391.636,324.219 M408.71,137.499
				c-19.89-4.712-32.772-5.599-38.647-2.663c-6.12-0.672-13.005-0.948-20.655-0.826c-10.221,39.535-14.75,75.092-13.587,106.671
				c8.69,0.122,15.331,0.335,19.92,0.642c3.917,0.124,7.926,0.337,12.026,0.644l53.519,13.677l15.79-104.466
				C438.056,146.771,428.601,142.211,408.71,137.499 M274.868,162.652l-5.783-1.561c-22.276,13.708-32.803,22.215-31.579,25.52
				c-8.567,11.199-14.352,21.419-17.35,30.661c-2.448,7.955-4.314,18.512-5.6,31.67c-0.184,0.979-0.306,1.958-0.368,2.937
				c-0.611,6.12-0.122,12.517,1.469,19.187c2.081,9.119,6.182,18.788,12.301,29.008c10.649,17.566,18.636,25.796,23.96,24.694
				l3.029,0.735l1.102-18.544c-2.448-1.713-4.529-3.427-6.242-5.141c-5.752-5.752-10.404-12.974-13.954-21.664
				c2.326-5.447,5.906-10.404,10.741-14.873c3.549-3.304,7.68-5.967,12.393-7.985c0-1.285,0.03-2.571,0.091-3.854
				C255.223,230.553,260.486,200.29,274.868,162.652z"/>
			<path d="M635.362,277.401c3.548-4.04,5.323-8.967,5.323-14.779c0-5.692-1.775-10.528-5.323-14.505
				c-0.918-1.286-1.988-2.295-3.213-3.03c-1.407-1.04-2.816-1.804-4.223-2.295c-1.592-0.551-3.245-0.825-4.957-0.825
				c-4.896,0-9.059,2.05-12.484,6.15c-3.489,3.977-5.233,8.813-5.233,14.505c0,5.813,1.744,10.739,5.233,14.779
				c0.733,0.918,1.56,1.744,2.478,2.478c2.754,2.265,5.967,3.459,9.639,3.58c0.184,0,0.306,0,0.368,0
				C627.866,283.459,631.997,281.44,635.362,277.401 M623.429,245.087c4.283,0,7.985,1.377,11.107,4.131
				c-2.265-0.979-4.682-1.469-7.253-1.469c-5.019,0-9.302,1.714-12.852,5.141c-3.487,3.611-5.232,7.896-5.232,12.852
				c0,3.185,0.705,6.061,2.11,8.63c-3.426-3.305-5.14-7.313-5.14-12.025c0-4.772,1.714-8.813,5.14-12.117
				C614.677,246.801,618.715,245.087,623.429,245.087 M256.049,306.96l-1.102,18.544c5.998,1.714,12.699,3.242,20.104,4.59
				c5.14,0.857,9.577,1.438,13.311,1.743l1.836,0.276l11.658,0.55c7.651,0.307,16.096,0.337,25.337,0.092l5.232-18.819
				l-20.931,3.857l-23.133,0.091c-5.08-0.489-9.884-1.347-14.413-2.571C267.463,313.538,261.496,310.755,256.049,306.96
				 M198.766,266.109l16.891,4.957c-1.591-6.67-2.081-13.066-1.469-19.187c0.062-0.979,0.184-1.957,0.368-2.937L198.766,266.109
				 M433.587,299.524c-9.363,0.979-16.156,1.806-20.378,2.478l-4.774,17.901l4.406-1.377c7.16-2.142,14.504-4.619,22.032-7.436
				c5.692,3.856,9.119,6.212,10.282,7.069c3.365,2.019,7.588,4.436,12.668,7.251c7.587,3.856,14.596,6.732,21.022,8.629l6.426,1.928
				l10.006-36.443l0.092-5.141c-18.36,0.918-37.729,2.478-58.109,4.682C436.036,299.31,434.812,299.463,433.587,299.524
				 M316.085,141.446c-17.809,5.141-30.998,10.221-39.565,15.239c-0.612,2.019-1.163,4.008-1.652,5.967
				c-14.382,37.638-19.645,67.9-15.79,90.79h10.741c0.918-0.307,3.856-1.438,8.813-3.398c3.794-1.529,7.038-2.508,9.731-2.937
				l1.836-0.276c0.795-0.122,1.683-0.183,2.662-0.183c2.754-0.246,8.017-1.316,15.79-3.213c7.221-1.836,13.097-2.754,17.626-2.754
				h9.546c-1.163-31.579,3.366-67.136,13.587-106.671c-0.062,0-0.245,0-0.551,0C343.166,134.195,332.242,136.673,316.085,141.446
				 M526.489,162.835c-8.814-3.61-18.36-6.671-28.643-9.18c-5.262-1.04-15.697-0.275-31.303,2.295
				c-4.101,0.673-8.813,0.49-14.138-0.55c-2.692-0.55-7.803-1.958-15.33-4.222l-15.79,104.466l22.674,5.784
				c7.651,1.653,18.36,5.019,32.129,10.098c12.117,4.469,20.747,6.977,25.887,7.527
				C513.057,247.475,521.225,208.735,526.489,162.835 M425.877,241.967c16.83-17.198,33.231-25.949,49.205-26.255
				C459.108,216.018,442.707,224.769,425.877,241.967z"/>
			<path fill="#FFFFFF" d="M634.536,249.218c-3.122-2.754-6.824-4.131-11.107-4.131c-4.714,0-8.752,1.714-12.119,5.142
				c-3.426,3.305-5.14,7.345-5.14,12.117c0,4.712,1.714,8.721,5.14,12.025c-1.405-2.569-2.11-5.445-2.11-8.63
				c0-4.955,1.745-9.24,5.232-12.852c3.55-3.427,7.833-5.141,12.852-5.141C629.854,247.749,632.271,248.239,634.536,249.218z"/>
			<path fill="#D78933" d="M441.85,320.821l3.305-2.661c-1.163-0.857-4.59-3.213-10.282-7.069L441.85,320.821z"/>
			<path fill="#B6B7C0" d="M476.091,271.525c-13.77-5.079-24.479-8.444-32.129-10.098l-22.674-5.784l-53.519-13.677
				c-4.101-0.307-8.109-0.52-12.026-0.644c-4.59-0.307-11.23-0.52-19.92-0.642h-9.546c-4.529,0-10.405,0.918-17.626,2.754
				c-7.772,1.896-13.036,2.967-15.79,3.213c-0.979,0-1.866,0.061-2.662,0.183l-1.836,0.276c-2.693,0.429-5.937,1.407-9.731,2.937
				c-4.957,1.96-7.895,3.092-8.813,3.398c-3.856,1.101-7.467,2.386-10.832,3.854c-4.713,2.019-8.844,4.682-12.393,7.985
				c-4.834,4.469-8.415,9.426-10.741,14.873c3.549,8.69,8.201,15.912,13.954,21.664c1.713,1.714,3.794,3.428,6.242,5.141
				c5.447,3.795,11.414,6.578,17.901,8.353c4.529,1.225,9.333,2.082,14.413,2.571l23.133-0.091l20.931-3.857
				c6.548-1.161,15.789-2.632,27.723-4.405c6.978-1.163,17.167-2.692,30.57-4.59c6.731-1.103,14.229-2.081,22.491-2.938
				c4.222-0.672,11.016-1.499,20.378-2.478c1.225-0.062,2.449-0.215,3.672-0.459c20.38-2.204,39.749-3.764,58.109-4.682
				c7.281-0.307,14.381-0.551,21.297-0.735l1.193-13.493c-4.039-0.063-9.332-0.429-15.882-1.103
				C496.838,278.502,488.208,275.994,476.091,271.525 M327.836,62.408c0.367,10.954,2.999,21.175,7.895,30.661
				c6.609,13.035,18.054,26.958,34.333,41.768c5.875-2.937,18.757-2.049,38.647,2.663s29.345,9.271,28.366,13.679
				c7.527,2.264,12.638,3.672,15.33,4.222c5.325,1.04,10.037,1.224,14.138,0.55c15.605-2.57,26.041-3.334,31.303-2.295
				c-10.465-7.466-26.896-34.21-49.295-80.231c-9.058-18.604-23.93-34.578-44.615-47.919c-19.461-12.423-37.668-18.758-54.62-19.002
				C334.262,25.719,327.101,44.354,327.836,62.408z"/>
		</g>
	</g>
	<g>
		<path id="Layer0_0_1_STROKES" fill="none" stroke="#000000" stroke-width="2" stroke-linecap="round" stroke-linejoin="round" d="
			M526.489,162.835c-8.814-3.61-18.36-6.671-28.643-9.18c-5.262-1.04-15.697-0.275-31.303,2.295
			c-4.101,0.673-8.813,0.49-14.138-0.55c-2.692-0.55-7.803-1.958-15.33-4.222 M421.287,255.644l22.674,5.784
			c7.651,1.653,18.36,5.019,32.129,10.098c12.117,4.469,20.747,6.977,25.887,7.527 M526.489,162.835
			c29.254,11.628,49.938,29.04,62.056,52.234c25.949-15.545,47.092-11.414,63.433,12.393 M370.063,134.836
			c-16.279-14.81-27.724-28.733-34.333-41.768c-4.896-9.486-7.528-19.707-7.895-30.661c-0.735-18.054,6.426-36.689,21.48-55.906
			c16.952,0.245,35.159,6.579,54.62,19.002c20.686,13.341,35.557,29.315,44.615,47.919c22.399,46.021,38.83,72.766,49.295,80.231
			 M349.409,134.011c-0.062,0-0.245,0-0.551,0c-5.692,0.184-16.615,2.662-32.772,7.436c-17.809,5.141-30.998,10.221-39.565,15.239
			 M269.819,253.442c0.918-0.307,3.856-1.438,8.813-3.398c3.794-1.529,7.038-2.508,9.731-2.937l1.836-0.276
			c0.795-0.122,1.683-0.183,2.662-0.183c2.754-0.246,8.017-1.316,15.79-3.213c7.221-1.836,13.097-2.754,17.626-2.754h9.546
			 M349.409,134.011c7.649-0.123,14.535,0.153,20.655,0.826c5.875-2.937,18.757-2.049,38.647,2.663s29.345,9.271,28.366,13.679
			 M276.52,156.686l-7.436,4.406c-22.276,13.708-32.803,22.215-31.579,25.52c-8.567,11.199-14.352,21.419-17.35,30.661
			c-2.448,7.955-4.314,18.512-5.6,31.67c-0.184,0.979-0.306,1.958-0.368,2.937c-0.611,6.12-0.122,12.517,1.469,19.187
			c2.081,9.119,6.182,18.788,12.301,29.008c10.649,17.566,18.636,25.796,23.96,24.694l3.029,0.735 M256.049,306.96
			c-2.448-1.713-4.529-3.427-6.242-5.141c-5.752-5.752-10.404-12.974-13.954-21.664c2.326-5.447,5.906-10.404,10.741-14.873
			c3.549-3.304,7.68-5.967,12.393-7.985 M421.287,255.644l-53.519-13.677c-4.101-0.307-8.109-0.52-12.026-0.644
			c-4.59-0.307-11.23-0.52-19.92-0.642 M361.525,329.635c8.568-1.163,18.604-2.969,30.111-5.416
			c8.017-2.021,13.617-3.459,16.799-4.315 M413.209,302.002c-8.262,0.857-15.759,1.836-22.491,2.938
			c-13.403,1.897-23.592,3.427-30.57,4.59c-11.934,1.773-21.175,3.244-27.723,4.405 M327.193,332.755l6.885-0.459
			c7.344-0.366,16.493-1.255,27.447-2.661l-9.546,10.005l15.79,13.036c29.069-5.14,53.763-15.758,74.081-31.854 M434.873,311.091
			c-7.527,2.816-14.872,5.294-22.032,7.436l-4.406,1.377 M336.923,375.534c10.405-2.876,19.492-8.416,27.265-16.616v-0.184
			c1.163-1.896,2.356-3.916,3.581-6.059 M413.209,302.002c4.222-0.672,11.016-1.499,20.378-2.478
			c1.225-0.062,2.449-0.215,3.672-0.459c20.38-2.204,39.749-3.764,58.109-4.682c7.281-0.307,14.381-0.551,21.297-0.735l1.193-13.493
			c-4.039-0.063-9.332-0.429-15.882-1.103 M441.85,320.821l3.305-2.661c-1.163-0.857-4.59-3.213-10.282-7.069 M478.846,334.04
			c2.937,5.447,4.404,9.945,4.404,13.496c0,1.896-0.397,5.63-1.191,11.198c-0.797,3.244-1.867,7.344-3.213,12.302
			c0.367,12.606-4.499,21.725-14.597,27.354l-3.948,30.111l-24.142,14.597l7.986-17.351v-30.111
			c0.307-8.751,4.866-18.481,13.679-29.19c-0.551-2.817-1.072-5.387-1.561-7.712c-0.918-7.344-1.377-12.332-1.377-14.964
			c0-3.854,0.979-9.976,2.938-18.359c-5.08-2.815-9.303-5.232-12.668-7.251 M478.846,371.036l-21.022-4.59 M485.271,335.968
			l-6.426-1.928c-6.427-1.896-13.436-4.772-21.022-8.629 M215.657,271.066l-16.891-4.957l15.79-17.166 M256.049,306.96
			c5.447,3.795,11.414,6.578,17.901,8.353c4.529,1.225,9.333,2.082,14.413,2.571l23.133-0.091l20.931-3.857 M254.947,325.504
			c5.998,1.714,12.699,3.242,20.104,4.59c5.14,0.857,9.577,1.438,13.311,1.743l1.836,0.276l11.658,0.55
			c7.651,0.307,16.096,0.337,25.337,0.092 M351.979,339.64l-24.786,19.095l-7.712,4.131l17.442,12.669l-12.118,28.365l-41.492,9.088
			l24.143-11.934c0.734-16.218,4.742-28.947,12.025-38.188 M269.819,253.442c-3.856,1.101-7.467,2.386-10.832,3.854
			 M324.806,403.899l-17.349-2.846 M460.301,428.502l-16.156-2.754 M444.145,395.637l20.104,2.754 M651.978,227.462l3.764,5.967
			c2.081,3.244,3.642,8.904,4.682,16.983c0.552,5.264,0.43,13.647-0.366,25.153c-0.796,11.749-1.896,19.399-3.307,22.949
			c-1.283,3.427-7.282,10.557-17.992,21.389c-10.77,10.711-23.959,12.79-39.564,6.242c-13.953-5.875-24.205-11.383-30.753-16.523
			v0.092l-0.918,4.039c-4.772,3.916-8.444,6.763-11.016,8.538l16.982,17.992l15.423,16.248c2.324,0.611,4.558,1.347,6.7,2.203
			c4.469,1.347,8.508,3.183,12.119,5.508c3.181,2.142,8.506,6.243,15.972,12.302c5.203,3.183,9.027,6.548,11.475,10.098
			c1.653,2.447,4.59,7.588,8.814,15.421l17.257,9.089l-29.376-3.672l-21.481-21.847l-36.167-19.187
			c-6.304-2.817-11.536-5.387-15.699-7.712c-2.814-2.203-5.109-4.191-6.885-5.967c-4.529-4.468-9.546-11.107-15.054-19.92
			c-16.097,6.427-33.202,7.466-51.315,3.12 M605.252,262.622c0,5.813,1.744,10.739,5.233,14.779c0.733,0.918,1.56,1.744,2.478,2.478
			c2.754,2.265,5.967,3.459,9.639,3.58c0.184,0,0.306,0,0.368,0c4.896,0,9.027-2.019,12.393-6.058
			c3.548-4.04,5.323-8.967,5.323-14.779c0-5.692-1.775-10.528-5.323-14.505c-0.918-1.286-1.988-2.295-3.213-3.03
			c-1.407-1.04-2.816-1.804-4.223-2.295c-1.592-0.551-3.245-0.825-4.957-0.825c-4.896,0-9.059,2.05-12.484,6.15
			C606.996,252.094,605.252,256.93,605.252,262.622z M588.912,215.712l-0.367-0.551v-0.091 M588.912,215.712v0.184l-20.38,93.175
			l-0.092,0.551 M536.587,332.848c6.914-2.57,13.555-6.089,19.92-10.557 M588.912,356.531l-2.295,2.203l-12.393,7.712
			 M623.703,376.544l-13.312,9.089 M631.873,407.479l12.119-5.417"/>
	</g>
	<g>
		<path id="Layer0_0_2_STROKES" fill="none" stroke="#261811" stroke-width="2" stroke-linecap="round" stroke-linejoin="round" d="
			M437.077,151.178l-15.79,104.466 M501.978,279.053c11.079-31.578,19.247-70.318,24.512-116.217 M276.52,156.686
			c-0.612,2.019-1.163,4.008-1.652,5.967c-14.382,37.638-19.645,67.9-15.79,90.79 M335.822,240.682
			c-1.163-31.579,3.366-67.136,13.587-106.671 M254.947,325.504l1.102-18.544 M259.078,253.442
			c-0.061,1.283-0.091,2.569-0.091,3.854 M413.209,302.002l-4.774,17.901 M332.426,313.936l-5.232,18.819 M495.277,299.524
			l-10.006,36.443"/>
	</g>
	<g>
		<path id="Layer0_0_3_STROKES" fill="none" stroke="#261811" stroke-width="3" stroke-linecap="round" stroke-linejoin="round" d="
			M702.284,191.293c-21.727,0.551-38.494,12.607-50.307,36.169 M425.877,241.967c16.83-17.198,33.231-25.949,49.205-26.255
			 M651.978,227.462l-5.325,13.312"/>
	</g>
</g>
</svg>
