<svg xmlns="http://www.w3.org/2000/svg" width="900" height="450" viewBox="0 0 900 450"><path fill="#1F1D10" d="M661.249 411.151l-17.257-9.089-12.119 5.417 29.376 3.672m-50.857-25.518l21.481 21.847 12.119-5.417c-4.225-7.833-7.161-12.974-8.814-15.421-2.447-3.55-6.271-6.915-11.475-10.098l-13.311 9.089m-23.775-26.899l-12.393 7.712 36.167 19.187 13.312-9.089c-7.466-6.059-12.791-10.16-15.972-12.302-3.611-2.325-7.65-4.161-12.119-5.508a57.367 57.367 0 0 0-6.7-2.203l-2.295 2.203m-50.03-25.886c5.508 8.813 10.524 15.452 15.054 19.92 1.775 1.775 4.07 3.764 6.885 5.967 4.163 2.325 9.396 4.895 15.699 7.712l12.393-7.712 2.295-2.203-15.423-16.248-16.982-17.992c-6.366 4.467-13.007 7.985-19.921 10.556m115.391-105.386l-5.325 13.312 5.325-13.312c-16.341-23.807-37.483-27.938-63.433-12.393l.367.643v.184l-20.38 93.175-.092.551c6.548 5.141 16.8 10.648 30.753 16.523 15.605 6.548 28.795 4.469 39.564-6.242 10.71-10.832 16.709-17.962 17.992-21.389 1.41-3.55 2.511-11.2 3.307-22.949.796-11.506.918-19.89.366-25.153-1.04-8.079-2.601-13.739-4.682-16.983l-3.762-5.967m-11.292 35.16c0 5.813-1.775 10.739-5.323 14.779-3.365 4.039-7.496 6.058-12.393 6.058h-.368c-3.672-.121-6.885-1.315-9.639-3.58a15.738 15.738 0 0 1-2.478-2.478c-3.489-4.04-5.233-8.967-5.233-14.779 0-5.692 1.744-10.528 5.233-14.505 3.426-4.101 7.588-6.15 12.484-6.15 1.712 0 3.365.274 4.957.825 1.406.491 2.815 1.255 4.223 2.295 1.225.735 2.295 1.744 3.213 3.03 3.548 3.977 5.324 8.813 5.324 14.505M436.159 443.099l24.142-14.597-16.156-2.754-7.986 17.351m24.142-14.597l3.948-30.111-20.104-2.754v30.111l16.156 2.754m-176.988-15.515l41.492-9.088-17.349-2.846-24.143 11.934m53.61-37.453l-17.442-12.669c-7.283 9.241-11.291 21.971-12.025 38.188l17.349 2.846 12.118-28.365m141.923-4.498l-21.022-4.59c-8.813 10.709-13.372 20.439-13.679 29.19l20.104 2.754c10.098-5.629 14.964-14.747 14.597-27.354m-22.583-12.302a574.23 574.23 0 0 1 1.561 7.712l21.022 4.59c1.346-4.958 2.416-9.058 3.213-12.302.794-5.568 1.191-9.302 1.191-11.198 0-3.551-1.468-8.049-4.404-13.496-6.427-1.896-13.436-4.772-21.022-8.629-1.958 8.384-2.938 14.505-2.938 18.359 0 2.632.459 7.621 1.377 14.964m-92.075 0a228.24 228.24 0 0 0 3.581-6.059l-15.79-13.036-24.786 19.095-7.712 4.131 17.442 12.669c10.405-2.876 19.492-8.416 27.265-16.616v-.184m44.247-38.831c-3.182.856-8.782 2.295-16.799 4.315-11.506 2.447-21.542 4.253-30.111 5.416l-9.546 10.005 15.79 13.036c29.069-5.14 53.763-15.758 74.081-31.854l-6.977-9.73c-7.527 2.816-14.872 5.294-22.032 7.436l-4.406 1.376z"/><path fill="#FFB800" d="M588.912 215.712l-.367-.551v-.091c-12.118-23.194-32.802-40.606-62.056-52.234-5.265 45.899-13.433 84.639-24.512 116.217 6.55.674 11.843 1.04 15.882 1.103l-1.193 13.493c-6.916.185-14.016.429-21.297.735l-.092 5.141-10.006 36.443c18.113 4.346 35.219 3.307 51.315-3.12 6.914-2.57 13.555-6.089 19.92-10.557 2.571-1.775 6.243-4.622 11.016-8.538l.918-4.039v-.092l.092-.551 20.38-93.175v-.184M391.636 324.219c8.017-2.021 13.617-3.459 16.799-4.315l4.774-17.901c-8.262.857-15.759 1.836-22.491 2.938-13.403 1.897-23.592 3.427-30.57 4.59-11.934 1.773-21.175 3.244-27.723 4.405l-5.232 18.819 6.885-.459c7.344-.366 16.493-1.255 27.447-2.661 8.569-1.163 18.605-2.969 30.111-5.416m17.074-186.72c-19.89-4.712-32.772-5.599-38.647-2.663-6.12-.672-13.005-.948-20.655-.826-10.221 39.535-14.75 75.092-13.587 106.671 8.69.122 15.331.335 19.92.642 3.917.124 7.926.337 12.026.644l53.519 13.677 15.79-104.466c.98-4.407-8.475-8.967-28.366-13.679m-133.842 25.153l-5.783-1.561c-22.276 13.708-32.803 22.215-31.579 25.52-8.567 11.199-14.352 21.419-17.35 30.661-2.448 7.955-4.314 18.512-5.6 31.67a24.148 24.148 0 0 0-.368 2.937c-.611 6.12-.122 12.517 1.469 19.187 2.081 9.119 6.182 18.788 12.301 29.008 10.649 17.566 18.636 25.796 23.96 24.694l3.029.735 1.102-18.544c-2.448-1.713-4.529-3.427-6.242-5.141-5.752-5.752-10.404-12.974-13.954-21.664 2.326-5.447 5.906-10.404 10.741-14.873 3.549-3.304 7.68-5.967 12.393-7.985 0-1.285.03-2.571.091-3.854-3.855-22.889 1.408-53.152 15.79-90.79z"/><path d="M635.362 277.401c3.548-4.04 5.323-8.967 5.323-14.779 0-5.692-1.775-10.528-5.323-14.505-.918-1.286-1.988-2.295-3.213-3.03-1.407-1.04-2.816-1.804-4.223-2.295a15.05 15.05 0 0 0-4.957-.825c-4.896 0-9.059 2.05-12.484 6.15-3.489 3.977-5.233 8.813-5.233 14.505 0 5.813 1.744 10.739 5.233 14.779.733.918 1.56 1.744 2.478 2.478 2.754 2.265 5.967 3.459 9.639 3.58h.368c4.896 0 9.027-2.019 12.392-6.058m-11.933-32.314c4.283 0 7.985 1.377 11.107 4.131-2.265-.979-4.682-1.469-7.253-1.469-5.019 0-9.302 1.714-12.852 5.141-3.487 3.611-5.232 7.896-5.232 12.852 0 3.185.705 6.061 2.11 8.63-3.426-3.305-5.14-7.313-5.14-12.025 0-4.772 1.714-8.813 5.14-12.117 3.368-3.429 7.406-5.143 12.12-5.143m-367.38 61.873l-1.102 18.544c5.998 1.714 12.699 3.242 20.104 4.59 5.14.857 9.577 1.438 13.311 1.743l1.836.276 11.658.55c7.651.307 16.096.337 25.337.092l5.232-18.819-20.931 3.857-23.133.091c-5.08-.489-9.884-1.347-14.413-2.571-6.485-1.775-12.452-4.558-17.899-8.353m-57.283-40.851l16.891 4.957c-1.591-6.67-2.081-13.066-1.469-19.187.062-.979.184-1.957.368-2.937l-15.79 17.167m234.821 33.415c-9.363.979-16.156 1.806-20.378 2.478l-4.774 17.901 4.406-1.377a345.343 345.343 0 0 0 22.032-7.436c5.692 3.856 9.119 6.212 10.282 7.069 3.365 2.019 7.588 4.436 12.668 7.251 7.587 3.856 14.596 6.732 21.022 8.629l6.426 1.928 10.006-36.443.092-5.141c-18.36.918-37.729 2.478-58.109 4.682a25.032 25.032 0 0 1-3.673.459M316.085 141.446c-17.809 5.141-30.998 10.221-39.565 15.239a124.63 124.63 0 0 0-1.652 5.967c-14.382 37.638-19.645 67.9-15.79 90.79h10.741c.918-.307 3.856-1.438 8.813-3.398 3.794-1.529 7.038-2.508 9.731-2.937l1.836-.276a17.65 17.65 0 0 1 2.662-.183c2.754-.246 8.017-1.316 15.79-3.213 7.221-1.836 13.097-2.754 17.626-2.754h9.546c-1.163-31.579 3.366-67.136 13.587-106.671h-.551c-5.693.185-16.617 2.663-32.774 7.436m210.404 21.389c-8.814-3.61-18.36-6.671-28.643-9.18-5.262-1.04-15.697-.275-31.303 2.295-4.101.673-8.813.49-14.138-.55-2.692-.55-7.803-1.958-15.33-4.222l-15.79 104.466 22.674 5.784c7.651 1.653 18.36 5.019 32.129 10.098 12.117 4.469 20.747 6.977 25.887 7.527 11.082-31.578 19.25-70.318 24.514-116.218m-100.612 79.132c16.83-17.198 33.231-25.949 49.205-26.255-15.974.306-32.375 9.057-49.205 26.255z"/><path fill="#FFF" d="M634.536 249.218c-3.122-2.754-6.824-4.131-11.107-4.131-4.714 0-8.752 1.714-12.119 5.142-3.426 3.305-5.14 7.345-5.14 12.117 0 4.712 1.714 8.721 5.14 12.025-1.405-2.569-2.11-5.445-2.11-8.63 0-4.955 1.745-9.24 5.232-12.852 3.55-3.427 7.833-5.141 12.852-5.141 2.57.001 4.987.491 7.252 1.47z"/><path fill="#D78933" d="M441.85 320.821l3.305-2.661c-1.163-.857-4.59-3.213-10.282-7.069l6.977 9.73z"/><path fill="#B6B7C0" d="M476.091 271.525c-13.77-5.079-24.479-8.444-32.129-10.098l-22.674-5.784-53.519-13.677c-4.101-.307-8.109-.52-12.026-.644-4.59-.307-11.23-.52-19.92-.642h-9.546c-4.529 0-10.405.918-17.626 2.754-7.772 1.896-13.036 2.967-15.79 3.213-.979 0-1.866.061-2.662.183l-1.836.276c-2.693.429-5.937 1.407-9.731 2.937-4.957 1.96-7.895 3.092-8.813 3.398-3.856 1.101-7.467 2.386-10.832 3.854-4.713 2.019-8.844 4.682-12.393 7.985-4.834 4.469-8.415 9.426-10.741 14.873 3.549 8.69 8.201 15.912 13.954 21.664 1.713 1.714 3.794 3.428 6.242 5.141 5.447 3.795 11.414 6.578 17.901 8.353 4.529 1.225 9.333 2.082 14.413 2.571l23.133-.091 20.931-3.857c6.548-1.161 15.789-2.632 27.723-4.405 6.978-1.163 17.167-2.692 30.57-4.59 6.731-1.103 14.229-2.081 22.491-2.938 4.222-.672 11.016-1.499 20.378-2.478a25.275 25.275 0 0 0 3.672-.459c20.38-2.204 39.749-3.764 58.109-4.682 7.281-.307 14.381-.551 21.297-.735l1.193-13.493c-4.039-.063-9.332-.429-15.882-1.103-5.14-.549-13.77-3.057-25.887-7.526M327.836 62.408c.367 10.954 2.999 21.175 7.895 30.661 6.609 13.035 18.054 26.958 34.333 41.768 5.875-2.937 18.757-2.049 38.647 2.663s29.345 9.271 28.366 13.679c7.527 2.264 12.638 3.672 15.33 4.222 5.325 1.04 10.037 1.224 14.138.55 15.605-2.57 26.041-3.334 31.303-2.295-10.465-7.466-26.896-34.21-49.295-80.231-9.058-18.604-23.93-34.578-44.615-47.919-19.461-12.423-37.668-18.758-54.62-19.002-15.056 19.215-22.217 37.85-21.482 55.904z"/><g><path fill="none" stroke="#000" stroke-width="2" stroke-linecap="round" stroke-linejoin="round" d="M526.489 162.835c-8.814-3.61-18.36-6.671-28.643-9.18-5.262-1.04-15.697-.275-31.303 2.295-4.101.673-8.813.49-14.138-.55-2.692-.55-7.803-1.958-15.33-4.222m-15.788 104.466l22.674 5.784c7.651 1.653 18.36 5.019 32.129 10.098 12.117 4.469 20.747 6.977 25.887 7.527m24.512-116.218c29.254 11.628 49.938 29.04 62.056 52.234 25.949-15.545 47.092-11.414 63.433 12.393m-281.915-92.626c-16.279-14.81-27.724-28.733-34.333-41.768-4.896-9.486-7.528-19.707-7.895-30.661-.735-18.054 6.426-36.689 21.48-55.906 16.952.245 35.159 6.579 54.62 19.002 20.686 13.341 35.557 29.315 44.615 47.919 22.399 46.021 38.83 72.766 49.295 80.231m-148.436-19.642h-.551c-5.692.184-16.615 2.662-32.772 7.436-17.809 5.141-30.998 10.221-39.565 15.239m-6.702 96.756c.918-.307 3.856-1.438 8.813-3.398 3.794-1.529 7.038-2.508 9.731-2.937l1.836-.276a17.65 17.65 0 0 1 2.662-.183c2.754-.246 8.017-1.316 15.79-3.213 7.221-1.836 13.097-2.754 17.626-2.754h9.546m13.586-106.67c7.649-.123 14.535.153 20.655.826 5.875-2.937 18.757-2.049 38.647 2.663s29.345 9.271 28.366 13.679m-160.557 5.507l-7.436 4.406c-22.276 13.708-32.803 22.215-31.579 25.52-8.567 11.199-14.352 21.419-17.35 30.661-2.448 7.955-4.314 18.512-5.6 31.67a24.148 24.148 0 0 0-.368 2.937c-.611 6.12-.122 12.517 1.469 19.187 2.081 9.119 6.182 18.788 12.301 29.008 10.649 17.566 18.636 25.796 23.96 24.694l3.029.735m1.103-18.544c-2.448-1.713-4.529-3.427-6.242-5.141-5.752-5.752-10.404-12.974-13.954-21.664 2.326-5.447 5.906-10.404 10.741-14.873 3.549-3.304 7.68-5.967 12.393-7.985m162.3-1.653l-53.519-13.677c-4.101-.307-8.109-.52-12.026-.644-4.59-.307-11.23-.52-19.92-.642m25.703 88.954c8.568-1.163 18.604-2.969 30.111-5.416 8.017-2.021 13.617-3.459 16.799-4.315m4.774-17.902c-8.262.857-15.759 1.836-22.491 2.938-13.403 1.897-23.592 3.427-30.57 4.59-11.934 1.773-21.175 3.244-27.723 4.405m-5.232 18.82l6.885-.459c7.344-.366 16.493-1.255 27.447-2.661l-9.546 10.005 15.79 13.036c29.069-5.14 53.763-15.758 74.081-31.854m-6.977-9.731c-7.527 2.816-14.872 5.294-22.032 7.436l-4.406 1.377m-71.512 55.63c10.405-2.876 19.492-8.416 27.265-16.616v-.184a228.24 228.24 0 0 0 3.581-6.059m45.44-50.673c4.222-.672 11.016-1.499 20.378-2.478a25.275 25.275 0 0 0 3.672-.459c20.38-2.204 39.749-3.764 58.109-4.682 7.281-.307 14.381-.551 21.297-.735l1.193-13.493c-4.039-.063-9.332-.429-15.882-1.103m-60.126 41.769l3.305-2.661c-1.163-.857-4.59-3.213-10.282-7.069m43.973 22.949c2.937 5.447 4.404 9.945 4.404 13.496 0 1.896-.397 5.63-1.191 11.198-.797 3.244-1.867 7.344-3.213 12.302.367 12.606-4.499 21.725-14.597 27.354l-3.948 30.111-24.142 14.597 7.986-17.351v-30.111c.307-8.751 4.866-18.481 13.679-29.19a558.955 558.955 0 0 0-1.561-7.712c-.918-7.344-1.377-12.332-1.377-14.964 0-3.854.979-9.976 2.938-18.359-5.08-2.815-9.303-5.232-12.668-7.251m33.69 52.876l-21.022-4.59m27.447-30.478l-6.426-1.928c-6.427-1.896-13.436-4.772-21.022-8.629m-242.166-54.345l-16.891-4.957 15.79-17.166m41.493 58.017c5.447 3.795 11.414 6.578 17.901 8.353 4.529 1.225 9.333 2.082 14.413 2.571l23.133-.091 20.931-3.857m-77.48 11.568c5.998 1.714 12.699 3.242 20.104 4.59 5.14.857 9.577 1.438 13.311 1.743l1.836.276 11.658.55c7.651.307 16.096.337 25.337.092m24.786 6.885l-24.786 19.095-7.712 4.131 17.442 12.669-12.118 28.365-41.492 9.088 24.143-11.934c.734-16.218 4.742-28.947 12.025-38.188m-49.662-109.424c-3.856 1.101-7.467 2.386-10.832 3.854m65.819 146.603l-17.349-2.846m152.844 27.449l-16.156-2.754m0-30.111l20.104 2.754m187.729-170.929l3.764 5.967c2.081 3.244 3.642 8.904 4.682 16.983.552 5.264.43 13.647-.366 25.153-.796 11.749-1.896 19.399-3.307 22.949-1.283 3.427-7.282 10.557-17.992 21.389-10.77 10.711-23.959 12.79-39.564 6.242-13.953-5.875-24.205-11.383-30.753-16.523v.092l-.918 4.039c-4.772 3.916-8.444 6.763-11.016 8.538l16.982 17.992 15.423 16.248a57.305 57.305 0 0 1 6.7 2.203c4.469 1.347 8.508 3.183 12.119 5.508 3.181 2.142 8.506 6.243 15.972 12.302 5.203 3.183 9.027 6.548 11.475 10.098 1.653 2.447 4.59 7.588 8.814 15.421l17.257 9.089-29.376-3.672-21.481-21.847-36.167-19.187c-6.304-2.817-11.536-5.387-15.699-7.712-2.814-2.203-5.109-4.191-6.885-5.967-4.529-4.468-9.546-11.107-15.054-19.92-16.097 6.427-33.202 7.466-51.315 3.12m119.979-73.345c0 5.813 1.744 10.739 5.233 14.779.733.918 1.56 1.744 2.478 2.478 2.754 2.265 5.967 3.459 9.639 3.58h.368c4.896 0 9.027-2.019 12.393-6.058 3.548-4.04 5.323-8.967 5.323-14.779 0-5.692-1.775-10.528-5.323-14.505-.918-1.286-1.988-2.295-3.213-3.03-1.407-1.04-2.816-1.804-4.223-2.295a15.05 15.05 0 0 0-4.957-.825c-4.896 0-9.059 2.05-12.484 6.15-3.49 3.977-5.234 8.813-5.234 14.505zm-16.34-46.91l-.367-.551v-.091m.367.642v.184l-20.38 93.175-.092.551m-31.853 23.226c6.914-2.57 13.555-6.089 19.92-10.557m32.405 34.24l-2.295 2.203-12.393 7.712m49.479 10.098l-13.312 9.089m21.482 21.846l12.119-5.417"/></g><g><path fill="none" stroke="#261811" stroke-width="2" stroke-linecap="round" stroke-linejoin="round" d="M437.077 151.178l-15.79 104.466m80.691 23.409c11.079-31.578 19.247-70.318 24.512-116.217m-249.97-6.15a124.63 124.63 0 0 0-1.652 5.967c-14.382 37.638-19.645 67.9-15.79 90.79m76.744-12.761c-1.163-31.579 3.366-67.136 13.587-106.671m-94.462 191.493l1.102-18.544m3.029-53.518a81.182 81.182 0 0 0-.091 3.854m154.222 44.706l-4.774 17.901m-76.009-5.967l-5.232 18.819m168.083-33.231l-10.006 36.443"/></g><g><path fill="none" stroke="#261811" stroke-width="3" stroke-linecap="round" stroke-linejoin="round" d="M702.284 191.293c-21.727.551-38.494 12.607-50.307 36.169m-226.1 14.505c16.83-17.198 33.231-25.949 49.205-26.255m176.896 11.75l-5.325 13.312"/></g></svg>