<svg xmlns="http://www.w3.org/2000/svg" width="900" height="450" viewBox="0 0 900 450"><path fill="#9A6243" d="M795.148 301.638c1.386-19.693-.545-39.386-5.786-59.076l-262.126-.295v92.915h262.126c2.969-11.182 4.897-22.366 5.786-33.544m-134.175-4.9c-1.387-1.682-2.079-3.711-2.079-6.085s.692-4.453 2.079-6.236c1.483-1.582 3.215-2.374 5.194-2.374 2.076 0 3.81.792 5.195 2.374 1.386 1.783 2.075 3.862 2.075 6.236s-.689 4.403-2.075 6.085c-1.386 1.78-3.119 2.673-5.195 2.673-1.979 0-3.711-.892-5.194-2.673m74.509-6.085c0 2.374-.693 4.403-2.079 6.085-1.484 1.78-3.215 2.673-5.195 2.673-2.078 0-3.809-.893-5.194-2.673-1.484-1.682-2.227-3.711-2.227-6.085s.742-4.453 2.227-6.236c1.386-1.582 3.116-2.374 5.194-2.374 1.98 0 3.711.792 5.195 2.374 1.386 1.783 2.079 3.862 2.079 6.236m-196.519-6.236c1.484-1.582 3.215-2.374 5.194-2.374 2.079 0 3.813.792 5.195 2.374 1.484 1.783 2.227 3.862 2.227 6.236s-.742 4.403-2.227 6.085c-1.383 1.78-3.116 2.673-5.195 2.673-1.979 0-3.71-.893-5.194-2.673-1.383-1.682-2.079-3.711-2.079-6.085s.696-4.453 2.079-6.236m66.198-2.374c1.979 0 3.71.792 5.194 2.374 1.484 1.783 2.227 3.862 2.227 6.236s-.742 4.403-2.227 6.085c-1.484 1.78-3.215 2.673-5.194 2.673-1.978 0-3.659-.893-5.044-2.673-1.484-1.682-2.227-3.711-2.227-6.085s.742-4.453 2.227-6.236c1.385-1.582 3.067-2.374 5.044-2.374m189.987 19.595c43.74-11.874 65.607-25.431 65.607-40.67v-92.62c-.397 17.416-30.379 32.753-89.947 46.013-9.303 1.979-19.295 3.908-29.984 5.79-61.351 11.477-132.544 18.652-213.588 21.522v.595l262.126.295c5.242 19.689 7.172 39.381 5.786 59.075m-410.996 33.245v-93.211c-85.197-2.374-159.857-9.549-223.977-21.522-10.49-1.881-20.384-3.811-29.686-5.79-55.415-12.171-85.297-26.272-89.651-42.302v92.915c4.75 18.702 44.528 34.881 119.337 48.538 64.12 11.875 138.781 18.998 223.977 21.372m-92.322-47.645c0-2.374.693-4.453 2.079-6.233 1.484-1.782 3.167-2.673 5.047-2.673 2.175 0 3.957.891 5.343 2.673 1.386 1.78 2.079 3.859 2.079 6.233 0 2.571-.693 4.601-2.079 6.085-1.386 1.882-3.167 2.82-5.343 2.82-1.88 0-3.563-.938-5.047-2.82-1.387-1.484-2.079-3.513-2.079-6.085m64.566 11.132c-1.979 0-3.71-.939-5.195-2.82-1.385-1.682-2.077-3.659-2.077-5.938 0-2.571.692-4.748 2.077-6.528 1.484-1.583 3.216-2.377 5.195-2.377 2.079 0 3.811.794 5.195 2.377 1.484 1.78 2.227 3.957 2.227 6.528 0 2.278-.742 4.256-2.227 5.938-1.384 1.881-3.116 2.82-5.195 2.82m75.996-16.327c1.386 0 2.622.345 3.71 1.041h44.826a6.483 6.483 0 0 1 3.563-1.041c1.284 0 2.424.345 3.412 1.041h11.727c.595 0 1.287.099 2.079.296v-26.569c0-8.906-2.72-13.358-8.164-13.358h-76.292c-5.343 0-8.014 4.452-8.014 13.358v64.418c0 8.512 2.671 12.765 8.014 12.765h76.292c5.444 0 8.164-4.253 8.164-12.765v-22.412c-.792.099-1.484.148-2.079.148h-12.912a5.624 5.624 0 0 1-2.227.446 5.634 5.634 0 0 1-2.227-.446h-47.497c-.693.295-1.484.446-2.375.446-1.979 0-3.711-.893-5.195-2.673-1.386-1.682-2.077-3.711-2.077-6.085s.691-4.453 2.077-6.236c1.484-1.582 3.216-2.374 5.195-2.374m412.333-111.321v-.742c-.197-19.394-38.69-36.216-115.476-50.465-76.985-13.654-170.101-20.483-279.343-20.483-109.044 0-202.208 6.829-279.49 20.483-71.642 13.161-109.886 28.746-114.735 46.754v7.868c3.958 14.743 30.576 27.804 79.854 39.184 1.98.396 4.057.842 6.234 1.336 9.104-2.177 18.652-4.156 28.646-5.937 77.281-13.953 170.446-20.929 279.49-20.929 109.243 0 202.358 6.976 279.343 20.929 10.39 1.781 20.038 3.76 28.943 5.937 2.374-.494 4.699-.99 6.976-1.484 52.644-12.468 79.16-26.618 79.558-42.451m16.031-2.374v-.742c-.2-20.286-40.177-37.898-119.932-52.84-80.049-14.447-176.826-21.671-290.324-21.671-113.3 0-210.075 7.224-290.325 21.671-74.413 13.853-114.191 30.18-119.337 48.981v8.312c4.354 16.03 34.237 30.13 89.651 42.302a64.583 64.583 0 0 1 5.045-1.039c-49.278-11.38-75.896-24.441-79.854-39.184v-7.868c4.849-18.008 43.093-33.593 114.735-46.754 77.281-13.654 170.446-20.483 279.49-20.483 109.243 0 202.358 6.829 279.343 20.483 76.785 14.25 115.278 31.071 115.476 50.465v.742c-.397 15.833-26.914 29.983-79.557 42.451l5.641 1.187c59.569-13.26 89.55-28.597 89.948-46.013z"/><path fill="#573726" d="M610.355 284.417c-1.484-1.582-3.215-2.374-5.194-2.374-1.978 0-3.659.792-5.044 2.374-1.484 1.783-2.227 3.862-2.227 6.236s.742 4.403 2.227 6.085c1.385 1.78 3.066 2.673 5.044 2.673 1.979 0 3.71-.893 5.194-2.673 1.484-1.682 2.227-3.711 2.227-6.085s-.742-4.453-2.227-6.236m-66.198-2.374c-1.979 0-3.71.792-5.194 2.374-1.383 1.783-2.079 3.862-2.079 6.236s.696 4.403 2.079 6.085c1.484 1.78 3.215 2.673 5.194 2.673 2.079 0 3.813-.893 5.195-2.673 1.484-1.682 2.227-3.711 2.227-6.085s-.742-4.453-2.227-6.236c-1.382-1.582-3.116-2.374-5.195-2.374m189.246 14.695c1.386-1.682 2.079-3.711 2.079-6.085s-.693-4.453-2.079-6.236c-1.484-1.582-3.215-2.374-5.195-2.374-2.078 0-3.809.792-5.194 2.374-1.484 1.783-2.227 3.862-2.227 6.236s.742 4.403 2.227 6.085c1.386 1.78 3.116 2.673 5.194 2.673 1.98 0 3.711-.892 5.195-2.673m-74.509-6.085c0 2.374.692 4.403 2.079 6.085 1.483 1.78 3.215 2.673 5.194 2.673 2.076 0 3.81-.893 5.195-2.673 1.386-1.682 2.075-3.711 2.075-6.085s-.689-4.453-2.075-6.236c-1.386-1.582-3.119-2.374-5.195-2.374-1.979 0-3.711.792-5.194 2.374-1.387 1.783-2.079 3.862-2.079 6.236m-307.693 4.897c1.484 1.881 3.216 2.82 5.195 2.82 2.079 0 3.811-.939 5.195-2.82 1.484-1.682 2.227-3.659 2.227-5.938 0-2.571-.742-4.748-2.227-6.528-1.384-1.583-3.116-2.377-5.195-2.377-1.979 0-3.71.794-5.195 2.377-1.385 1.78-2.077 3.957-2.077 6.528 0 2.279.692 4.256 2.077 5.938m-57.293-14.545c-1.386 1.78-2.079 3.859-2.079 6.233 0 2.571.693 4.601 2.079 6.085 1.484 1.882 3.167 2.82 5.047 2.82 2.175 0 3.957-.938 5.343-2.82 1.386-1.484 2.079-3.514 2.079-6.085 0-2.374-.693-4.453-2.079-6.233-1.386-1.782-3.167-2.673-5.343-2.673-1.88 0-3.562.891-5.047 2.673m188.356 17.96a5.63 5.63 0 0 0 2.227.446c.792 0 1.534-.151 2.227-.446h-4.454m5.638-15.881c-.988-.696-2.128-1.041-3.412-1.041a6.485 6.485 0 0 0-3.563 1.041h6.975m-54.471 0h2.671c-1.088-.696-2.325-1.041-3.71-1.041-1.979 0-3.711.792-5.195 2.374-1.386 1.783-2.077 3.862-2.077 6.236s.691 4.403 2.077 6.085c1.484 1.78 3.217 2.673 5.195 2.673.891 0 1.683-.151 2.375-.446h-1.336c-1.88 0-3.414-.742-4.601-2.227-1.188-1.583-1.781-3.415-1.781-5.491 0-2.377.593-4.354 1.781-5.937 1.187-1.484 2.721-2.226 4.601-2.226z"/><path fill="#999" d="M384.152 240.93v96.032c0 12.961 4.256 19.443 12.766 19.443h117.853c8.312 0 12.466-6.482 12.466-19.443V240.93c0-12.862-4.154-19.295-12.466-19.295H396.918c-8.51-.001-12.766 6.432-12.766 19.295m25.085 80.299v-64.418c0-8.906 2.671-13.358 8.014-13.358h76.292c5.444 0 8.164 4.452 8.164 13.358v26.569c1.878.296 4.502.938 7.867 1.931 4.848 1.287 7.225 3.066 7.123 5.343-.197 2.275-2.624 4.253-7.273 5.937-3.265 1.088-5.839 1.83-7.717 2.227v22.412c0 8.512-2.72 12.765-8.164 12.765h-76.292c-5.342-.002-8.014-4.255-8.014-12.766m26.865-38.145h-2.671c-1.88 0-3.414.742-4.601 2.227-1.188 1.583-1.781 3.56-1.781 5.937 0 2.076.593 3.908 1.781 5.491 1.187 1.484 2.721 2.227 4.601 2.227H499.629c.595 0 1.287-.05 2.079-.148 1.878-.396 4.452-1.139 7.717-2.227 4.649-1.684 7.076-3.661 7.273-5.937.102-2.276-2.275-4.056-7.123-5.343-3.365-.992-5.989-1.635-7.867-1.931-.792-.197-1.484-.296-2.079-.296h-63.527z"/><path fill="none" stroke="#1F140E" stroke-width="2" stroke-linecap="round" stroke-linejoin="round" d="M40.838 163.747c5.146-18.801 44.924-35.128 119.337-48.981C240.425 100.319 337.2 93.095 450.5 93.095c113.498 0 210.275 7.224 290.324 21.671 79.755 14.941 119.731 32.554 119.932 52.84V260.968c0 15.239-21.867 28.796-65.607 40.67-.89 11.179-2.817 22.362-5.786 33.544H527.236m-143.084-.299c-85.197-2.374-159.857-9.497-223.977-21.371-74.809-13.657-114.587-29.836-119.337-48.538m0-8.016v-93.211m0 8.312c4.354 16.03 34.237 30.13 89.651 42.302a64.583 64.583 0 0 1 5.045-1.039m629.634-.149l5.641 1.187c59.568-13.26 89.55-28.597 89.947-46.013M436.102 283.084c-1.088-.696-2.325-1.041-3.71-1.041-1.979 0-3.711.792-5.195 2.374-1.386 1.783-2.077 3.862-2.077 6.236s.691 4.403 2.077 6.085c1.484 1.78 3.217 2.673 5.195 2.673.891 0 1.683-.151 2.375-.446m46.161-15.881a6.483 6.483 0 0 1 3.563-1.041c1.284 0 2.424.345 3.412 1.041m-1.186 15.881a5.624 5.624 0 0 1-2.227.446 5.634 5.634 0 0 1-2.227-.446m-183.307-20.633c2.175 0 3.957.891 5.343 2.673 1.386 1.78 2.079 3.859 2.079 6.233 0 2.571-.693 4.601-2.079 6.085-1.386 1.882-3.167 2.82-5.343 2.82-1.88 0-3.563-.938-5.047-2.82-1.386-1.484-2.079-3.514-2.079-6.085 0-2.374.693-4.453 2.079-6.233 1.484-1.782 3.166-2.673 5.047-2.673zm57.44 2.375c2.079 0 3.811.794 5.195 2.377 1.484 1.78 2.227 3.957 2.227 6.528 0 2.278-.742 4.256-2.227 5.938-1.384 1.881-3.116 2.82-5.195 2.82-1.979 0-3.71-.939-5.195-2.82-1.385-1.682-2.077-3.659-2.077-5.938 0-2.571.692-4.748 2.077-6.528 1.485-1.583 3.216-2.377 5.195-2.377zM40.838 264.974v-8.016m343.314-15.286c-85.197-2.374-159.857-9.549-223.977-21.522-10.49-1.881-20.384-3.811-29.686-5.79m396.747 27.907l262.126.295c5.241 19.69 7.172 39.383 5.786 59.076m-134.175-17.221c1.483-1.582 3.215-2.374 5.194-2.374 2.076 0 3.81.792 5.195 2.374 1.386 1.783 2.075 3.862 2.075 6.236s-.689 4.403-2.075 6.085c-1.386 1.78-3.119 2.673-5.195 2.673-1.979 0-3.711-.893-5.194-2.673-1.387-1.682-2.079-3.711-2.079-6.085s.692-4.453 2.079-6.236zm67.235-2.374c1.98 0 3.711.792 5.195 2.374 1.386 1.783 2.079 3.862 2.079 6.236s-.693 4.403-2.079 6.085c-1.484 1.78-3.215 2.673-5.195 2.673-2.078 0-3.809-.893-5.194-2.673-1.484-1.682-2.227-3.711-2.227-6.085s.742-4.453 2.227-6.236c1.385-1.582 3.116-2.374 5.194-2.374zm-200.972-40.371c81.044-2.87 152.237-10.045 213.588-21.522 10.689-1.881 20.682-3.811 29.984-5.79m-231.845 70.057c1.484-1.582 3.215-2.374 5.194-2.374 2.079 0 3.813.792 5.195 2.374 1.484 1.783 2.227 3.862 2.227 6.236s-.742 4.403-2.227 6.085c-1.383 1.78-3.116 2.673-5.195 2.673-1.979 0-3.71-.893-5.194-2.673-1.383-1.682-2.079-3.711-2.079-6.085s.696-4.453 2.079-6.236zm73.619 6.236c0 2.374-.742 4.403-2.227 6.085-1.484 1.78-3.215 2.673-5.194 2.673-1.978 0-3.659-.893-5.044-2.673-1.484-1.682-2.227-3.711-2.227-6.085s.742-4.453 2.227-6.236c1.385-1.582 3.066-2.374 5.044-2.374 1.979 0 3.71.792 5.194 2.374 1.485 1.783 2.227 3.862 2.227 6.236z"/><path fill="none" stroke="#003" stroke-width="2" stroke-linecap="round" stroke-linejoin="round" d="M40.838 264.974a13.533 13.533 0 0 1-.594-4.006c0-1.287.199-2.624.594-4.01m0-84.899c-.396-1.484-.594-2.919-.594-4.305 0-1.286.199-2.622.594-4.006"/><g><path fill="none" stroke="#1F140E" stroke-width="1.5" stroke-linecap="round" stroke-linejoin="round" d="M135.535 213.321c-49.278-11.38-75.896-24.441-79.854-39.184v-7.868c4.849-18.008 43.093-33.593 114.735-46.754 77.281-13.654 170.446-20.483 279.49-20.483 109.243 0 202.358 6.829 279.343 20.483 76.785 14.25 115.278 31.071 115.476 50.465v.742c-.397 15.833-26.914 29.983-79.557 42.451-2.276.494-4.602.99-6.976 1.484-8.905-2.177-18.554-4.156-28.943-5.937-76.985-13.953-170.101-20.929-279.343-20.929-109.044 0-202.208 6.976-279.49 20.929-9.994 1.781-19.542 3.76-28.646 5.937-2.178-.493-4.255-.94-6.235-1.336z"/></g><g><path fill="none" stroke="#121212" stroke-width="2" stroke-linecap="round" stroke-linejoin="round" d="M527.236 335.182v1.78c0 12.961-4.154 19.443-12.466 19.443H396.918c-8.51 0-12.766-6.482-12.766-19.443v-2.079m51.95-51.799h-2.671c-1.88 0-3.414.742-4.601 2.227-1.188 1.583-1.781 3.56-1.781 5.937 0 2.076.593 3.908 1.781 5.491 1.187 1.484 2.721 2.227 4.601 2.227H499.629c.595 0 1.287-.05 2.079-.148 1.878-.396 4.452-1.139 7.717-2.227 4.649-1.684 7.076-3.661 7.273-5.937.102-2.276-2.275-4.056-7.123-5.343-3.365-.992-5.989-1.635-7.867-1.931-.792-.197-1.484-.296-2.079-.296h-63.527zm65.606.296v-26.569c0-8.906-2.72-13.358-8.164-13.358h-76.292c-5.343 0-8.014 4.452-8.014 13.358v64.418c0 8.512 2.671 12.765 8.014 12.765h76.292c5.444 0 8.164-4.253 8.164-12.765v-22.412m25.528-57.145v-.742c0-12.862-4.154-19.295-12.466-19.295H396.918c-8.51 0-12.766 6.433-12.766 19.295v93.953m143.084.299v-93.51"/></g></svg>