<?xml version="1.0" encoding="utf-8"?>
<!-- Generator: Adobe Illustrator 16.0.0, SVG Export Plug-In . SVG Version: 6.00 Build 0)  -->
<!DOCTYPE svg PUBLIC "-//W3C//DTD SVG 1.1//EN" "http://www.w3.org/Graphics/SVG/1.1/DTD/svg11.dtd">
<svg version="1.1" id="Layer_1" xmlns="http://www.w3.org/2000/svg" xmlns:xlink="http://www.w3.org/1999/xlink" x="0px" y="0px"
	 width="900px" height="450px" viewBox="0 0 900 450" enable-background="new 0 0 900 450" xml:space="preserve">
<g transform="matrix( 1, 0, 0, 1, 0,0) ">
	<g>
		<g id="Layer0_0_FILL">
			<path fill="#9A6243" d="M795.148,301.638c1.386-19.693-0.545-39.386-5.786-59.076l-262.126-0.295v92.915h262.126
				C792.331,324,794.259,312.816,795.148,301.638 M660.973,296.738c-1.387-1.682-2.079-3.711-2.079-6.085s0.692-4.453,2.079-6.236
				c1.483-1.582,3.215-2.374,5.194-2.374c2.076,0,3.81,0.792,5.195,2.374c1.386,1.783,2.075,3.862,2.075,6.236
				s-0.689,4.403-2.075,6.085c-1.386,1.78-3.119,2.673-5.195,2.673C664.188,299.411,662.456,298.519,660.973,296.738
				 M735.482,290.653c0,2.374-0.693,4.403-2.079,6.085c-1.484,1.78-3.215,2.673-5.195,2.673c-2.078,0-3.809-0.893-5.194-2.673
				c-1.484-1.682-2.227-3.711-2.227-6.085s0.742-4.453,2.227-6.236c1.386-1.582,3.116-2.374,5.194-2.374
				c1.98,0,3.711,0.792,5.195,2.374C734.789,286.2,735.482,288.279,735.482,290.653 M538.963,284.417
				c1.484-1.582,3.215-2.374,5.194-2.374c2.079,0,3.813,0.792,5.195,2.374c1.484,1.783,2.227,3.862,2.227,6.236
				s-0.742,4.403-2.227,6.085c-1.383,1.78-3.116,2.673-5.195,2.673c-1.979,0-3.71-0.893-5.194-2.673
				c-1.383-1.682-2.079-3.711-2.079-6.085S537.58,286.2,538.963,284.417 M605.161,282.043c1.979,0,3.71,0.792,5.194,2.374
				c1.484,1.783,2.227,3.862,2.227,6.236s-0.742,4.403-2.227,6.085c-1.484,1.78-3.215,2.673-5.194,2.673
				c-1.978,0-3.659-0.893-5.044-2.673c-1.484-1.682-2.227-3.711-2.227-6.085s0.742-4.453,2.227-6.236
				C601.502,282.835,603.184,282.043,605.161,282.043 M795.148,301.638c43.74-11.874,65.607-25.431,65.607-40.67v-92.62
				c-0.397,17.416-30.379,32.753-89.947,46.013c-9.303,1.979-19.295,3.908-29.984,5.79
				c-61.351,11.477-132.544,18.652-213.588,21.522v0.595l262.126,0.295C794.604,262.252,796.534,281.944,795.148,301.638
				 M384.152,334.883v-93.211c-85.197-2.374-159.857-9.549-223.977-21.522c-10.49-1.881-20.384-3.811-29.686-5.79
				c-55.415-12.171-85.297-26.272-89.651-42.302v84.899v8.016c4.75,18.702,44.528,34.881,119.337,48.538
				C224.295,325.386,298.956,332.509,384.152,334.883 M291.83,287.238c0-2.374,0.693-4.453,2.079-6.233
				c1.484-1.782,3.167-2.673,5.047-2.673c2.175,0,3.957,0.891,5.343,2.673c1.386,1.78,2.079,3.859,2.079,6.233
				c0,2.571-0.693,4.601-2.079,6.085c-1.386,1.882-3.167,2.82-5.343,2.82c-1.88,0-3.563-0.938-5.047-2.82
				C292.522,291.839,291.83,289.81,291.83,287.238 M356.396,298.37c-1.979,0-3.71-0.939-5.195-2.82
				c-1.385-1.682-2.077-3.659-2.077-5.938c0-2.571,0.692-4.748,2.077-6.528c1.484-1.583,3.216-2.377,5.195-2.377
				c2.079,0,3.811,0.794,5.195,2.377c1.484,1.78,2.227,3.957,2.227,6.528c0,2.278-0.742,4.256-2.227,5.938
				C360.207,297.431,358.475,298.37,356.396,298.37 M432.392,282.043c1.386,0,2.622,0.345,3.71,1.041h44.826
				c1.09-0.696,2.275-1.041,3.563-1.041c1.284,0,2.424,0.345,3.412,1.041h11.727c0.595,0,1.287,0.099,2.079,0.296v-26.569
				c0-8.906-2.72-13.358-8.164-13.358h-76.292c-5.343,0-8.014,4.452-8.014,13.358v64.418c0,8.512,2.671,12.765,8.014,12.765h76.292
				c5.444,0,8.164-4.253,8.164-12.765v-22.412c-0.792,0.099-1.484,0.148-2.079,0.148h-12.912c-0.692,0.295-1.435,0.446-2.227,0.446
				c-0.791,0-1.533-0.151-2.227-0.446h-47.497c-0.693,0.295-1.484,0.446-2.375,0.446c-1.979,0-3.711-0.893-5.195-2.673
				c-1.386-1.682-2.077-3.711-2.077-6.085s0.691-4.453,2.077-6.236C428.681,282.835,430.413,282.043,432.392,282.043
				 M844.725,170.722v-0.742c-0.197-19.394-38.69-36.216-115.476-50.465c-76.985-13.654-170.101-20.483-279.343-20.483
				c-109.044,0-202.208,6.829-279.49,20.483C98.774,132.676,60.53,148.261,55.681,166.269v7.868
				c3.958,14.743,30.576,27.804,79.854,39.184c1.98,0.396,4.057,0.842,6.234,1.336c9.104-2.177,18.652-4.156,28.646-5.937
				c77.281-13.953,170.446-20.929,279.49-20.929c109.243,0,202.358,6.976,279.343,20.929c10.39,1.781,20.038,3.76,28.943,5.937
				c2.374-0.494,4.699-0.99,6.976-1.484C817.811,200.705,844.327,186.555,844.725,170.722 M860.756,168.348v-0.742
				c-0.2-20.286-40.177-37.898-119.932-52.84C660.775,100.319,563.998,93.095,450.5,93.095c-113.3,0-210.075,7.224-290.325,21.671
				c-74.413,13.853-114.191,30.18-119.337,48.981v8.312c4.354,16.03,34.237,30.13,89.651,42.302
				c1.583-0.396,3.264-0.742,5.045-1.039c-49.278-11.38-75.896-24.441-79.854-39.184v-7.868
				c4.849-18.008,43.093-33.593,114.735-46.754c77.281-13.654,170.446-20.483,279.49-20.483c109.243,0,202.358,6.829,279.343,20.483
				c76.785,14.25,115.278,31.071,115.476,50.465v0.742c-0.397,15.833-26.914,29.983-79.557,42.451
				c1.878,0.396,3.76,0.792,5.641,1.187C830.377,201.101,860.358,185.764,860.756,168.348z"/>
			<path fill="#573726" d="M610.355,284.417c-1.484-1.582-3.215-2.374-5.194-2.374c-1.978,0-3.659,0.792-5.044,2.374
				c-1.484,1.783-2.227,3.862-2.227,6.236s0.742,4.403,2.227,6.085c1.385,1.78,3.066,2.673,5.044,2.673
				c1.979,0,3.71-0.893,5.194-2.673c1.484-1.682,2.227-3.711,2.227-6.085S611.84,286.2,610.355,284.417 M544.157,282.043
				c-1.979,0-3.71,0.792-5.194,2.374c-1.383,1.783-2.079,3.862-2.079,6.236s0.696,4.403,2.079,6.085
				c1.484,1.78,3.215,2.673,5.194,2.673c2.079,0,3.813-0.893,5.195-2.673c1.484-1.682,2.227-3.711,2.227-6.085
				s-0.742-4.453-2.227-6.236C547.97,282.835,546.236,282.043,544.157,282.043 M733.403,296.738
				c1.386-1.682,2.079-3.711,2.079-6.085s-0.693-4.453-2.079-6.236c-1.484-1.582-3.215-2.374-5.195-2.374
				c-2.078,0-3.809,0.792-5.194,2.374c-1.484,1.783-2.227,3.862-2.227,6.236s0.742,4.403,2.227,6.085
				c1.386,1.78,3.116,2.673,5.194,2.673C730.188,299.411,731.919,298.519,733.403,296.738 M658.894,290.653
				c0,2.374,0.692,4.403,2.079,6.085c1.483,1.78,3.215,2.673,5.194,2.673c2.076,0,3.81-0.893,5.195-2.673
				c1.386-1.682,2.075-3.711,2.075-6.085s-0.689-4.453-2.075-6.236c-1.386-1.582-3.119-2.374-5.195-2.374
				c-1.979,0-3.711,0.792-5.194,2.374C659.586,286.2,658.894,288.279,658.894,290.653 M351.201,295.55
				c1.484,1.881,3.216,2.82,5.195,2.82c2.079,0,3.811-0.939,5.195-2.82c1.484-1.682,2.227-3.659,2.227-5.938
				c0-2.571-0.742-4.748-2.227-6.528c-1.384-1.583-3.116-2.377-5.195-2.377c-1.979,0-3.71,0.794-5.195,2.377
				c-1.385,1.78-2.077,3.957-2.077,6.528C349.124,291.891,349.816,293.868,351.201,295.55 M293.908,281.005
				c-1.386,1.78-2.079,3.859-2.079,6.233c0,2.571,0.693,4.601,2.079,6.085c1.484,1.882,3.167,2.82,5.047,2.82
				c2.175,0,3.957-0.938,5.343-2.82c1.386-1.484,2.079-3.514,2.079-6.085c0-2.374-0.693-4.453-2.079-6.233
				c-1.386-1.782-3.167-2.673-5.343-2.673C297.075,278.332,295.393,279.223,293.908,281.005 M482.264,298.965
				c0.693,0.295,1.436,0.446,2.227,0.446c0.792,0,1.534-0.151,2.227-0.446H482.264 M487.902,283.084
				c-0.988-0.696-2.128-1.041-3.412-1.041c-1.287,0-2.473,0.345-3.563,1.041H487.902 M433.431,283.084h2.671
				c-1.088-0.696-2.325-1.041-3.71-1.041c-1.979,0-3.711,0.792-5.195,2.374c-1.386,1.783-2.077,3.862-2.077,6.236
				s0.691,4.403,2.077,6.085c1.484,1.78,3.217,2.673,5.195,2.673c0.891,0,1.683-0.151,2.375-0.446h-1.336
				c-1.88,0-3.414-0.742-4.601-2.227c-1.188-1.583-1.781-3.415-1.781-5.491c0-2.377,0.593-4.354,1.781-5.937
				C430.017,283.826,431.551,283.084,433.431,283.084z"/>
			<path fill="#999999" d="M384.152,240.93v0.742v93.211v2.079c0,12.961,4.256,19.443,12.766,19.443h117.853
				c8.312,0,12.466-6.482,12.466-19.443v-1.78v-92.915v-0.595v-0.742c0-12.862-4.154-19.295-12.466-19.295H396.918
				C388.408,221.634,384.152,228.067,384.152,240.93 M409.237,321.229v-64.418c0-8.906,2.671-13.358,8.014-13.358h76.292
				c5.444,0,8.164,4.452,8.164,13.358v26.569c1.878,0.296,4.502,0.938,7.867,1.931c4.848,1.287,7.225,3.066,7.123,5.343
				c-0.197,2.275-2.624,4.253-7.273,5.937c-3.265,1.088-5.839,1.83-7.717,2.227v22.412c0,8.512-2.72,12.765-8.164,12.765h-76.292
				C411.909,333.993,409.237,329.74,409.237,321.229 M436.102,283.084h-2.671c-1.88,0-3.414,0.742-4.601,2.227
				c-1.188,1.583-1.781,3.56-1.781,5.937c0,2.076,0.593,3.908,1.781,5.491c1.187,1.484,2.721,2.227,4.601,2.227h1.336h47.497h4.453
				h12.912c0.595,0,1.287-0.05,2.079-0.148c1.878-0.396,4.452-1.139,7.717-2.227c4.649-1.684,7.076-3.661,7.273-5.937
				c0.102-2.276-2.275-4.056-7.123-5.343c-3.365-0.992-5.989-1.635-7.867-1.931c-0.792-0.197-1.484-0.296-2.079-0.296h-11.727
				h-6.975H436.102z"/>
		</g>
	</g>
	<g>
		<path id="Layer0_0_1_STROKES" fill="none" stroke="#1F140E" stroke-width="2" stroke-linecap="round" stroke-linejoin="round" d="
			M40.838,163.747c5.146-18.801,44.924-35.128,119.337-48.981C240.425,100.319,337.2,93.095,450.5,93.095
			c113.498,0,210.275,7.224,290.324,21.671c79.755,14.941,119.731,32.554,119.932,52.84v0.742v92.62
			c0,15.239-21.867,28.796-65.607,40.67c-0.89,11.179-2.817,22.362-5.786,33.544H527.236 M384.152,334.883
			c-85.197-2.374-159.857-9.497-223.977-21.371c-74.809-13.657-114.587-29.836-119.337-48.538 M40.838,256.958v-84.899v-8.312
			 M40.838,172.059c4.354,16.03,34.237,30.13,89.651,42.302c1.583-0.396,3.264-0.742,5.045-1.039 M765.168,213.173
			c1.878,0.396,3.76,0.792,5.641,1.187c59.568-13.26,89.55-28.597,89.947-46.013 M436.102,283.084
			c-1.088-0.696-2.325-1.041-3.71-1.041c-1.979,0-3.711,0.792-5.195,2.374c-1.386,1.783-2.077,3.862-2.077,6.236
			s0.691,4.403,2.077,6.085c1.484,1.78,3.217,2.673,5.195,2.673c0.891,0,1.683-0.151,2.375-0.446 M480.928,283.084
			c1.09-0.696,2.275-1.041,3.563-1.041c1.284,0,2.424,0.345,3.412,1.041 M486.717,298.965c-0.692,0.295-1.435,0.446-2.227,0.446
			c-0.791,0-1.533-0.151-2.227-0.446 M298.956,278.332c2.175,0,3.957,0.891,5.343,2.673c1.386,1.78,2.079,3.859,2.079,6.233
			c0,2.571-0.693,4.601-2.079,6.085c-1.386,1.882-3.167,2.82-5.343,2.82c-1.88,0-3.563-0.938-5.047-2.82
			c-1.386-1.484-2.079-3.514-2.079-6.085c0-2.374,0.693-4.453,2.079-6.233C295.393,279.223,297.075,278.332,298.956,278.332z
			 M356.396,280.707c2.079,0,3.811,0.794,5.195,2.377c1.484,1.78,2.227,3.957,2.227,6.528c0,2.278-0.742,4.256-2.227,5.938
			c-1.384,1.881-3.116,2.82-5.195,2.82c-1.979,0-3.71-0.939-5.195-2.82c-1.385-1.682-2.077-3.659-2.077-5.938
			c0-2.571,0.692-4.748,2.077-6.528C352.686,281.501,354.417,280.707,356.396,280.707z M40.838,264.974v-8.016 M384.152,241.672
			c-85.197-2.374-159.857-9.549-223.977-21.522c-10.49-1.881-20.384-3.811-29.686-5.79 M527.236,242.267l262.126,0.295
			c5.241,19.69,7.172,39.383,5.786,59.076 M660.973,284.417c1.483-1.582,3.215-2.374,5.194-2.374c2.076,0,3.81,0.792,5.195,2.374
			c1.386,1.783,2.075,3.862,2.075,6.236s-0.689,4.403-2.075,6.085c-1.386,1.78-3.119,2.673-5.195,2.673
			c-1.979,0-3.711-0.893-5.194-2.673c-1.387-1.682-2.079-3.711-2.079-6.085S659.586,286.2,660.973,284.417z M728.208,282.043
			c1.98,0,3.711,0.792,5.195,2.374c1.386,1.783,2.079,3.862,2.079,6.236s-0.693,4.403-2.079,6.085
			c-1.484,1.78-3.215,2.673-5.195,2.673c-2.078,0-3.809-0.893-5.194-2.673c-1.484-1.682-2.227-3.711-2.227-6.085
			s0.742-4.453,2.227-6.236C724.399,282.835,726.13,282.043,728.208,282.043z M527.236,241.672
			c81.044-2.87,152.237-10.045,213.588-21.522c10.689-1.881,20.682-3.811,29.984-5.79 M538.963,284.417
			c1.484-1.582,3.215-2.374,5.194-2.374c2.079,0,3.813,0.792,5.195,2.374c1.484,1.783,2.227,3.862,2.227,6.236
			s-0.742,4.403-2.227,6.085c-1.383,1.78-3.116,2.673-5.195,2.673c-1.979,0-3.71-0.893-5.194-2.673
			c-1.383-1.682-2.079-3.711-2.079-6.085S537.58,286.2,538.963,284.417z M612.582,290.653c0,2.374-0.742,4.403-2.227,6.085
			c-1.484,1.78-3.215,2.673-5.194,2.673c-1.978,0-3.659-0.893-5.044-2.673c-1.484-1.682-2.227-3.711-2.227-6.085
			s0.742-4.453,2.227-6.236c1.385-1.582,3.066-2.374,5.044-2.374c1.979,0,3.71,0.792,5.194,2.374
			C611.84,286.2,612.582,288.279,612.582,290.653z"/>
	</g>
	<g>
		<path id="Layer0_0_2_STROKES" fill="none" stroke="#000033" stroke-width="2" stroke-linecap="round" stroke-linejoin="round" d="
			M40.838,264.974c-0.396-1.284-0.594-2.623-0.594-4.006c0-1.287,0.199-2.624,0.594-4.01 M40.838,172.059
			c-0.396-1.484-0.594-2.919-0.594-4.305c0-1.286,0.199-2.622,0.594-4.006"/>
	</g>
	<g>
		
			<path id="Layer0_0_3_STROKES" fill="none" stroke="#1F140E" stroke-width="1.5" stroke-linecap="round" stroke-linejoin="round" d="
			M135.535,213.321c-49.278-11.38-75.896-24.441-79.854-39.184v-7.868c4.849-18.008,43.093-33.593,114.735-46.754
			c77.281-13.654,170.446-20.483,279.49-20.483c109.243,0,202.358,6.829,279.343,20.483c76.785,14.25,115.278,31.071,115.476,50.465
			v0.742c-0.397,15.833-26.914,29.983-79.557,42.451c-2.276,0.494-4.602,0.99-6.976,1.484c-8.905-2.177-18.554-4.156-28.943-5.937
			c-76.985-13.953-170.101-20.929-279.343-20.929c-109.044,0-202.208,6.976-279.49,20.929c-9.994,1.781-19.542,3.76-28.646,5.937
			C139.592,214.164,137.515,213.717,135.535,213.321z"/>
	</g>
	<g>
		<path id="Layer0_0_4_STROKES" fill="none" stroke="#121212" stroke-width="2" stroke-linecap="round" stroke-linejoin="round" d="
			M527.236,335.182v1.78c0,12.961-4.154,19.443-12.466,19.443H396.918c-8.51,0-12.766-6.482-12.766-19.443v-2.079 M436.102,283.084
			h-2.671c-1.88,0-3.414,0.742-4.601,2.227c-1.188,1.583-1.781,3.56-1.781,5.937c0,2.076,0.593,3.908,1.781,5.491
			c1.187,1.484,2.721,2.227,4.601,2.227h1.336h47.497h4.453h12.912c0.595,0,1.287-0.05,2.079-0.148
			c1.878-0.396,4.452-1.139,7.717-2.227c4.649-1.684,7.076-3.661,7.273-5.937c0.102-2.276-2.275-4.056-7.123-5.343
			c-3.365-0.992-5.989-1.635-7.867-1.931c-0.792-0.197-1.484-0.296-2.079-0.296h-11.727h-6.975H436.102z M501.708,283.38v-26.569
			c0-8.906-2.72-13.358-8.164-13.358h-76.292c-5.343,0-8.014,4.452-8.014,13.358v64.418c0,8.512,2.671,12.765,8.014,12.765h76.292
			c5.444,0,8.164-4.253,8.164-12.765v-22.412 M527.236,241.672v-0.742c0-12.862-4.154-19.295-12.466-19.295H396.918
			c-8.51,0-12.766,6.433-12.766,19.295v0.742v93.211 M527.236,335.182v-92.915v-0.595"/>
	</g>
</g>
</svg>
