
<svg xmlns="http://www.w3.org/2000/svg" version="1.1" xmlns:xlink="http://www.w3.org/1999/xlink" preserveAspectRatio="none" x="0px" y="0px" width="285px" height="427px" viewBox="0 0 285 427">
<defs>
<linearGradient id="Gradient_1" gradientUnits="userSpaceOnUse" x1="15.649999999999991" y1="181.85" x2="254.55" y2="181.85" spreadMethod="pad">
<stop  offset="0%" stop-color="#484848"/>

<stop  offset="25.88235294117647%" stop-color="#EEEEEE"/>

<stop  offset="100%" stop-color="#6F6F6F"/>
</linearGradient>

<radialGradient id="Gradient_2" gradientUnits="userSpaceOnUse" cx="0" cy="0" r="101.92500000000003" fx="2.3982352941176477" fy="-2.9369911765433884e-16" gradientTransform="matrix( 0.9999999999999997, 0, 0, 1.1047338729457932, 98.8,70.75) " spreadMethod="pad">
<stop  offset="0%" stop-color="#EEEEEE"/>

<stop  offset="25.88235294117647%" stop-color="#EEEEEE"/>

<stop  offset="100%" stop-color="#6F6F6F"/>
</radialGradient>

<radialGradient id="Gradient_3" gradientUnits="userSpaceOnUse" cx="0" cy="0" r="131.9625" fx="-1.901264155676266e-16" fy="-3.105" gradientTransform="matrix( 0, -1, 0.6142843610874301, 0, 163.65,148.55) " spreadMethod="pad">
<stop  offset="0%" stop-color="#7E7E7E"/>

<stop  offset="100%" stop-color="#1E1E1E"/>
</radialGradient>

<g id="Layer0_0_FILL">
<path fill="url(#Gradient_1)" stroke="none" d="
M 231.9 124
Q 222.75 127.3 210.4 129.65 179.8 135.7 138.8 134.85 105.3 134.15 78.35 129.25 73.6 128.35 69.1 127.35 37.45 120.25 30.65 109.7 30.55 109.6 30.45 109.4
L 30.45 391.7
Q 30.55 391.8 30.65 392 41.25 405.75 73.4 413.7 103.4 421.2 141.85 421.4 180.5 421.7 210.6 414.3 243.5 406.2 254.6 391.7
L 254.6 109.4
Q 248.3 118.15 231.9 124 Z"/>

<path fill="url(#Gradient_2)" stroke="none" d="
M 210.4 129.65
Q 222.75 127.3 231.9 124 248.3 118.15 254.6 109.4 252.25 61.8 217.6 33.1 186.25 7.1 142.35 6.2 98 5.25 67.25 30.35 33 58.3 31.4 107.4
L 30.45 109.4
Q 30.55 109.6 30.65 109.7 37.45 120.25 69.1 127.35 73.6 128.35 78.35 129.25 105.3 134.15 138.8 134.85 179.8 135.7 210.4 129.65
M 167.65 24.4
Q 181.55 24.4 193.65 37.45 205.8 50.5 209.05 69.1 212.15 87.7 204.35 100.85 196.95 114 182.95 114 169 114 156.85 100.85 144.75 87.7 141.65 69.1 138.55 50.5 146.2 37.45 153.7 24.4 167.65 24.4 Z"/>

<path fill="url(#Gradient_3)" stroke="none" d="
M 193.65 37.45
Q 181.55 24.4 167.65 24.4 153.7 24.4 146.2 37.45 138.55 50.5 141.65 69.1 144.75 87.7 156.85 100.85 169 114 182.95 114 196.95 114 204.35 100.85 212.15 87.7 209.05 69.1 205.8 50.5 193.65 37.45 Z"/>
</g>

<path id="Layer0_0_1_STROKES" stroke="#333333" stroke-width="2" stroke-linejoin="round" stroke-linecap="round" fill="none" d="
M 167.65 24.4
Q 181.55 24.4 193.65 37.45 205.8 50.5 209.05 69.1 212.15 87.7 204.35 100.85 196.95 114 182.95 114 169 114 156.85 100.85 144.75 87.7 141.65 69.1 138.55 50.5 146.2 37.45 153.7 24.4 167.65 24.4 Z
M 30.45 109.4
Q 30.55 109.6 30.65 109.7 37.45 120.25 69.1 127.35 73.6 128.35 78.35 129.25 105.3 134.15 138.8 134.85 179.8 135.7 210.4 129.65 222.75 127.3 231.9 124 248.3 118.15 254.6 109.4 252.25 61.8 217.6 33.1 186.25 7.1 142.35 6.2 98 5.25 67.25 30.35 33 58.3 31.4 107.4
M 30.45 109.4
L 30.45 391.7
Q 30.55 391.8 30.65 392 41.25 405.75 73.4 413.7 103.4 421.2 141.85 421.4 180.5 421.7 210.6 414.3 243.5 406.2 254.6 391.7
L 254.6 109.4"/>
</defs>

<g transform="matrix( 1, 0, 0, 1, 0,0) ">
<use xlink:href="#Layer0_0_FILL"/>

<use xlink:href="#Layer0_0_1_STROKES"/>
</g>
</svg>
