<?xml version="1.0" encoding="UTF-8" standalone="no"?>
<svg id="svg3593" xmlns:inkscape="http://www.inkscape.org/namespaces/inkscape" xmlns:rdf="http://www.w3.org/1999/02/22-rdf-syntax-ns#" xmlns="http://www.w3.org/2000/svg" sodipodi:docname="book.svg" viewBox="0 0 114 95.25" version="1.1" xmlns:cc="http://creativecommons.org/ns#" xmlns:dc="http://purl.org/dc/elements/1.1/" inkscape:version="0.48.2 r9819" xmlns:sodipodi="http://sodipodi.sourceforge.net/DTD/sodipodi-0.dtd">
 <metadata id="metadata3635">
  <rdf:RDF>
   <cc:Work rdf:about="">
    <dc:format>image/svg+xml</dc:format>
    <dc:type rdf:resource="http://purl.org/dc/dcmitype/StillImage"/>
    <dc:title/>
   </cc:Work>
  </rdf:RDF>
 </metadata>
 <sodipodi:namedview id="namedview3631" bordercolor="#666666" inkscape:pageshadow="2" guidetolerance="10" pagecolor="#ffffff" gridtolerance="10" inkscape:window-maximized="0" inkscape:zoom="2.4776903" objecttolerance="10" borderopacity="1" inkscape:current-layer="svg3593" inkscape:cx="57" inkscape:cy="47.625" inkscape:window-y="0" inkscape:window-x="0" inkscape:window-width="640" showgrid="false" inkscape:pageopacity="0" inkscape:window-height="480"/>
 <g id="g3595" transform="matrix(1.0, 0.0, 0.0, 1.0, -3.25, 50.95)">
  <path id="path3597" stroke="none" fill-rule="evenodd" d="M117,28.65l0.05,1.95-0.25,2.15-0.55,2-0.95,1.8-0.5,0.75-1.35,1.05-0.8,0.25-3.3-3.45,2.7-11.85,3.55,2.35,0.9,1.3,0.5,1.7" fill="#000b33"/>
  <path id="path3599" stroke-linejoin="round" d="M112.6,38.55l0.8-0.3,0.7-0.45,0.65-0.6,0.55-0.75,0.95-1.75,0.5-2,0.25-2.1-0.1-2.05-0.45-1.65-0.9-1.3-3.6-2.35-2.65,11.85" stroke="#558800" stroke-linecap="round" stroke-width="0.05" fill="none"/>
  <path id="path3601" stroke="none" fill-rule="evenodd" d="M4.3-33.5l66.3-3.65,42.05,75.75-91.05,4.7-17.3-76.8" fill="#698ecd"/>
  <path id="path3603" stroke-linejoin="round" d="M4.25-33.5l17.3,76.8,91.05-4.75-42.1-75.7-66.25,3.65z" stroke="#151515" stroke-linecap="round" stroke-width="2.0" fill="none"/>
  <path id="path3605" stroke="none" fill-rule="evenodd" d="M9.95-43.7l-0.7-2.6,0.35,0.1,0.25,0.4,0.1,2.1" fill="#dddddd"/>
  <path id="path3607" stroke="none" fill-rule="evenodd" d="M9.35-39.8l0.6-3.9,18.65,74.2,0.35,0.2,0.15,0.35,0.05,0.5-0.1,0.7-0.45,1.75-1.6,3.95-1,1.65-1.05,1.2-0.8,0.45-17.85-74.65,0.4-0.15,0.45-0.45,0.4-0.6,0.4-0.8,1.4-4.4" fill="#efefef"/>
  <path id="path3609" stroke-linejoin="round" d="M9.25-46.3l0.3,0.1,0.3,0.4,0.1,1.5-0.6,4.5-1.4,4.4-0.4,0.8-0.4,0.6-0.45,0.45-0.4,0.15,17.85,74.6,0.8-0.45,1.05-1.15,1-1.65,1.6-3.95,0.45-1.75,0.05-1.2-0.2-0.35-0.3-0.2" stroke="#333333" stroke-linecap="round" stroke-width="2.0" fill="none"/>
  <path id="path3611" stroke="none" fill-rule="evenodd" d="M110.7,35.35l0.45,0.95-87,4.95,0.8-0.45,1.05-1.2,1-1.65,1.6-3.95,0.45-1.75,0.1-0.7-0.05-0.5-0.15-0.35-0.35-0.2,85-4.95-0.9,1-1.4,2.75-0.75,3.2,0.15,2.85" fill="#efefef"/>
  <path id="path3613" stroke-linejoin="round" d="M110.5,32.5l0.7-3.2,1.4-2.75,0.9-0.95-84.95,4.95,0.3,0.15,0.15,0.35,0.1,0.5-0.1,0.75-0.45,1.7-1.65,3.95-1,1.65-1,1.2-0.85,0.4,87.05-4.85-0.5-1.05-0.15-1.3,0.05-1.5z" stroke="#333333" stroke-linecap="round" stroke-width="2.0" fill="none"/>
  <path id="path3615" stroke="none" fill-rule="evenodd" d="M7.25-46.45l68.25-3.55,40.1,75.65-89,4.85-19.35-76.95" fill="#698ecd"/>
  <path id="path3617" stroke-linejoin="round" d="M7.2-46.45l19.3,76.9,89-4.8-40.05-75.6-68.25,3.5z" stroke="#151515" stroke-linecap="round" stroke-width="2.0" fill="none"/>
  <path id="path3619" stroke="none" fill-rule="evenodd" d="M10.85-44.75l62.65-3.2,36.5,70.45-80.3,4.35-18.85-71.6m61.7-2.15l-59.95,3.1,18.65,68.9,76-4.05-34.7-67.95" fill="#000033"/>
  <path id="path3621" stroke="none" fill-rule="evenodd" d="M76.5-49.9l40.15,75.6,0.45,1.6,0.15,1.9-0.2,2.15-1.05,4.15-0.75,1.65-0.8,1.05-0.35,0.35-0.4,0.1-1.05-0.05,0.45-0.1,0.35-0.3,0.8-1.1,0.75-1.65,1-4.15,0.2-2.15-0.1-1.9-0.5-1.6-40.1-75.6,1,0.05" fill="#698ecd"/>
  <path id="path3623" stroke-linejoin="round" d="M109,29.8l-76.55,4.1" stroke="#333333" stroke-linecap="round" stroke-width="0.5" fill="none"/>
  <path id="path3625" stroke-linejoin="round" d="M108.5,32.65l-69.75,3.85" stroke="#333333" stroke-linecap="round" stroke-width="0.5" fill="none"/>
  <path id="path3627" stroke-linejoin="round" d="M25.3,35.8l-2.1-8.8" stroke="#333333" stroke-linecap="round" stroke-width="0.5" fill="none"/>
  <path id="path3629" stroke-linejoin="round" d="M112.7,38.55l0.4-0.1,0.35-0.25,0.8-1.1,0.75-1.65,1-4.15,0.2-2.15-0.1-1.9-0.5-1.6-40.1-75.6,1,0.05,40.15,75.6,0.45,1.6,0.15,1.9-0.2,2.15-1.05,4.15-0.75,1.65-0.8,1.05-0.35,0.3-0.35,0.1" stroke="#000000" stroke-linecap="round" stroke-width="0.05" fill="none"/>
 </g>
</svg>
