<svg xmlns="http://www.w3.org/2000/svg" width="900" height="450" viewBox="0 0 900 450"><path fill="#65402C" d="M708.493 164.535l-25.684-2.469-24.817.987-24.078 3.828-34.695 8.889-64.452 20.745-20.25 4.939-19.51 2.592-19.015-.494-18.273-4.197-17.78-8.891-8.766-6.421-30.499-30.621-6.298-8.396-3.827-8.15-1.604-8.766.247-10.495 6.419-44.573 8.891-36.055-2.222-2.099-2.347-1.358-2.715-.617-2.841-.125-6.296.742-20.868 6.914-6.914 1.358h-6.42l-4.692-1.358-8.766-4.939-4.569-1.852L90.139 9.081l10.865 109.274 2.347 43.71-.124 24.077-3.457 9.383-5.557 21.485-3.704 24.323-3.21 39.143-.617 51.858 1.852 43.711H77.05v31.237l5.556 4.569 6.545 3.456 14.816 4.938 17.162 2.224 18.398.369 79.888-6.297 70.997-7.902 41.61-2.593 54.205 1.606 98.655 7.902 63.589 7.654 76.554 14.445L644.287 440l19.261.866 19.387-.866 78.034-7.777 18.275-3.829 24.569-8.767 13.582-8.271 5.805-5.311v-29.016h-17.163l.863-11.73 14.076-65.563.74-11.113-.246-4.815-2.592-15.804-5.928-24.942-10.495-24.078-11.359-15.804-9.383-8.519-19.387-11.607-27.41-11.853-26.423-6.666z"/><path fill="none" stroke="#333" stroke-width="2" stroke-linecap="round" stroke-linejoin="round" d="M90.139 9.081l10.865 109.274 2.47 43.587-.247 24.077-3.457 9.506-5.557 21.485-3.704 24.2-3.21 39.266-.617 51.858 1.852 43.711H77.05v31.237l5.681 4.444 6.421 3.581 14.939 4.815 17.039 2.224 18.398.369 80.011-6.174 70.874-7.902 41.61-2.593 54.205 1.483 98.655 8.025 63.589 7.531 76.554 14.568 19.139 2.224 19.384.989 19.51-.866 77.911-7.902 18.398-3.704 24.446-8.89 13.707-8.271 5.68-5.188v-29.139h-17.04l.74-11.607 14.076-65.687.866-10.99-.372-4.938-2.592-15.806-5.928-24.817-10.495-24.201-11.359-15.681-9.383-8.643-19.387-11.606-27.287-11.73-26.547-6.791-25.684-2.469-24.817 1.11-24.078 3.704-34.695 9.013-64.452 20.745-20.25 4.939-19.51 2.469-19.015-.371-18.273-4.322-9.014-3.704-17.532-11.483-30.499-30.621-6.298-8.52-3.827-8.026-1.604-8.766.247-10.495 6.544-44.573 8.89-36.179-2.346-1.975-2.347-1.358-2.715-.617-2.841-.247-6.419.864-20.745 6.914-6.791 1.358h-6.543l-4.692-1.358-8.766-4.939-4.569-1.852"/><path d="M734.177 404.813l-28.153 2.841-55.935-.866-279.295-29.879-75.566 2.469-101.124 8.272-47.167 1.852-26.177-2.221-22.472-6.174-9.754-5.062H77.05v31.237l5.681 4.444 6.421 3.581 14.939 4.815 17.039 2.224 18.398.369 80.011-6.174 70.874-7.902 41.61-2.593 54.205 1.483 98.655 8.025 63.589 7.531 76.554 14.568 19.139 2.224 19.384.989 84.702-6.174 35.067-6.422 14.939-5.309 13.336-7.285 11.607-9.632v-29.139h-17.04l-15.435 9.014-15.312 7.283-15.803 5.682-25.433 5.929z"/><path fill="none" stroke="#000" stroke-width="2" stroke-linecap="round" stroke-linejoin="round" d="M706.023 407.654l-55.935-.866-279.295-29.879-75.566 2.469-101.124 8.272-47.167 1.852-26.177-2.221-22.472-6.174-9.754-5.062H77.05v31.237l5.681 4.444 6.421 3.581 14.939 4.815 17.039 2.224 18.398.369 80.011-6.174 70.874-7.902 41.61-2.593 54.205 1.483 98.655 8.025 63.589 7.531 76.554 14.568 19.139 2.224 19.384.989 84.702-6.174 35.067-6.422 14.939-5.309 13.336-7.285 11.607-9.632v-29.139h-17.04l-15.435 9.014-15.312 7.283-15.803 5.682-25.435 5.926-28.152 2.844z"/><path fill="none" stroke="#000" stroke-linecap="round" stroke-linejoin="round" d="M97.917 11.305l5.31 51.859"/><path fill="#CB9A62" d="M652.313 179.475l-4.321 3.211-2.593 4.074 5.186 3.581 16.545 16.915 10.001 12.965 7.409 11.853 19.633-9.629 40.992-23.337-9.261-9.261-6.049-4.074-13.953-7.039-15.558-4.691-14.693-1.359-14.322.988-13.582 3.333-5.434 2.47zM636.138 195.156l-2.224-.865-3.086-.246-3.333.246-6.422 2.224-2.962 1.852-2.47 2.098-1.852 2.347-1.235 2.964 4.814 4.691 10.249 13.458 17.04 30.868 2.221 5.805 8.767-3.212 8.025-4.813 6.668-5.928 4.444-6.42-.74-2.718-1.357-2.964-4.075-6.666-11.235-14.323-12.717-12.717-5.928-4.199-2.592-1.482z"/><path fill="#FFF" d="M224.478 32.048l27.041 1.235 80.998-1.235L91.744 9.081l99.273 18.893 33.461 4.074z"/><path fill="none" stroke="#333" stroke-width="2" stroke-linecap="round" stroke-linejoin="round" d="M91.744 9.081l99.273 18.893 33.461 4.074 27.041 1.235 80.998-1.235"/><path fill="#EE0" d="M341.9 69.46l-.987 3.334-.247 3.21.247 3.457.987 3.087 1.606 3.087 2.222 2.717 2.717 2.222 2.962 1.606 3.334.988 3.334.247 3.334-.247 3.21-.988 2.964-1.606 2.715-2.222 2.347-2.717 1.605-3.087.864-3.087.248-3.457-.248-3.21-.864-3.334-1.605-3.086-5.062-4.939-2.964-1.605-3.21-.865-3.334-.37-3.334.37-3.334.865-2.962 1.605-2.717 2.346-2.222 2.593-1.606 3.086z"/><path fill="none" stroke="#555" stroke-width=".05" stroke-linecap="round" stroke-linejoin="round" d="M361.41 58.965l3.21.865 2.964 1.605 5.062 4.939 1.605 3.086.864 3.334.248 3.21-.248 3.457-.864 3.087-1.605 3.087-2.347 2.717-2.715 2.222-2.964 1.606-3.21.988-3.334.247-3.334-.247-3.334-.988-2.962-1.606-2.717-2.222-2.222-2.717-1.606-3.087-.987-3.087-.247-3.457.247-3.21.987-3.334 1.606-3.086 2.222-2.593 2.717-2.346 2.962-1.605 3.334-.865 3.334-.37 3.334.37z"/><path d="M351.902 82.178l2.839 1.976 3.334.618 3.21-.618 2.839-1.976 1.977-2.84.617-3.334-.617-3.21-1.977-2.964-2.839-1.852-3.21-.617-3.334.617-2.839 1.852-1.977 2.964-.617 3.21.617 3.334 1.977 2.84z"/><path fill="#EE0" d="M431.913 212.689l-3.21-.865h-6.668l-6.296 2.099-4.939 3.952-1.606 2.469-.864 2.593-.371 2.594.371 2.715.864 2.593 1.606 2.347 2.345 2.224 2.594 1.852 3.087 1.235 6.543.986 6.544-.986 2.964-1.235 2.715-1.852 2.347-2.224 1.605-2.347.864-2.593.371-2.715-.371-2.594-.864-2.593-1.605-2.469-2.347-2.1-2.715-1.852-2.964-1.234z"/><path fill="none" stroke="#555" stroke-width=".05" stroke-linecap="round" stroke-linejoin="round" d="M441.543 220.345l.864 2.593.371 2.594-.371 2.715-.864 2.593-1.605 2.347-2.347 2.224-2.715 1.852-2.964 1.235-6.544.986-6.543-.986-3.087-1.235-2.594-1.852-2.345-2.224-1.606-2.347-.864-2.593-.371-2.715.371-2.594.864-2.593 1.606-2.469 4.939-3.952 6.296-2.099h6.668l3.21.865 2.964 1.234 2.715 1.852 2.347 2.1 1.605 2.469z"/><path d="M434.012 225.531l-.494-2.47-1.975-2.347-2.84-1.604-3.334-.495-3.334.495-2.839 1.604-1.853 2.347-.617 2.47.617 2.715 1.853 2.224 2.839 1.604 3.334.495 3.334-.495 2.84-1.604 1.975-2.224.494-2.715z"/><path fill="#EE0" d="M401.785 178.611l-.988-2.594-1.604-2.47-2.223-2.222-2.716-1.729-6.297-2.098h-6.545l-3.333.863-2.964 1.235-2.716 1.729-2.346 2.222-1.481 2.47-.988 2.594-.372 2.592.372 2.716.988 2.593 1.481 2.469 2.346 2.1 2.716 1.852 2.964 1.234 3.333.741 3.211.247 6.544-.988 3.087-1.234 2.716-1.852 2.223-2.1 1.604-2.469.988-2.593.372-2.716-.372-2.592z"/><path fill="none" stroke="#555" stroke-width=".05" stroke-linecap="round" stroke-linejoin="round" d="M401.785 183.92l-.988 2.593-1.604 2.469-2.223 2.1-2.716 1.852-3.087 1.234-6.544.988-3.211-.247-3.333-.741-2.964-1.234-2.716-1.852-2.346-2.1-1.481-2.469-.988-2.593-.372-2.716.372-2.592.988-2.594 1.481-2.47 2.346-2.222 2.716-1.729 2.964-1.235 3.333-.863h6.545l6.297 2.098 2.716 1.729 2.223 2.222 1.604 2.47.988 2.594.372 2.592-.372 2.716z"/><path d="M387.957 187.748l2.962-1.605 1.853-2.347.617-2.592-.617-2.592-1.853-2.224-2.962-1.605-3.334-.493-3.211.493-2.962 1.605-1.853 2.224-.617 2.592.617 2.592 1.853 2.347 2.962 1.605 3.211.494 3.334-.494z"/><path fill="#EE0" d="M349.433 114.405l-2.717 2.098-2.099 2.594-1.482 2.963-.987 3.086-.248 3.334.248 3.087.987 3.087 1.482 2.84 2.099 2.716 2.717 2.1 2.84 1.605 3.087.864 3.209.37 3.211-.37 3.086-.864 2.84-1.605 2.716-2.1 2.1-2.716 1.605-2.84.865-3.087.37-3.087-.37-3.334-.865-3.086-1.605-2.963-2.1-2.594-2.716-2.098-2.84-1.482-3.086-.987-3.211-.247-3.209.247-3.087.987-2.84 1.482z"/><path fill="none" stroke="#555" stroke-width=".05" stroke-linecap="round" stroke-linejoin="round" d="M370.423 116.503l2.1 2.594 1.605 2.963.865 3.086.37 3.334-.37 3.087-.865 3.087-1.605 2.84-2.1 2.716-2.716 2.1-2.84 1.605-3.086.864-3.211.37-3.209-.37-3.087-.864-2.84-1.605-2.717-2.1-2.099-2.716-1.482-2.84-.987-3.087-.248-3.087.248-3.334.987-3.086 1.482-2.963 2.099-2.594 2.717-2.098 2.84-1.482 3.087-.987 3.209-.247 3.211.247 3.086.987 2.84 1.482 2.716 2.098z"/><path d="M352.643 134.284l2.84 1.852 3.086.617 3.087-.617 2.841-1.852 1.852-2.84.618-2.964-.618-3.334-1.852-2.592-2.841-1.852-3.087-.618-3.086.618-2.84 1.852-1.728 2.592-.617 3.334.617 2.964 1.728 2.84z"/><path fill="none" stroke="#000" stroke-width="2" stroke-linecap="round" stroke-linejoin="round" d="M498.465 228.123l-6.791-.246-6.668-1.111-13.336-4.569-13.334-6.915-57.909-41.364"/><path d="M426.479 225.531l25.929-22.597-2.469-3.457-25.806 22.595 2.346 3.459z"/><path fill="none" stroke="#000" stroke-width=".05" stroke-linecap="round" stroke-linejoin="round" d="M452.408 202.935l-25.929 22.597-2.346-3.458 25.806-22.595 2.469 3.456z"/><path d="M382.029 182.191l31.733-12.964-1.11-4.198-31.733 13.088 1.11 4.074z"/><path fill="none" stroke="#000" stroke-width=".05" stroke-linecap="round" stroke-linejoin="round" d="M413.762 169.227l-31.733 12.964-1.11-4.074 31.733-13.088 1.11 4.198z"/><path d="M356.224 128.233l-.37 4.322 34.325-1.975.247-4.322-34.202 1.975z"/><path fill="none" stroke="#000" stroke-width=".05" stroke-linecap="round" stroke-linejoin="round" d="M356.224 128.233l34.202-1.975-.247 4.322-34.325 1.975.37-4.322z"/><path fill="none" stroke="#000" stroke-linecap="round" stroke-linejoin="round" d="M388.82 93.785l-9.877 60.995"/><path d="M334.986 97.365l8.272-7.284 18.892-11.36-4.569-7.408-24.2 17.533-4.446 3.827-3.827 4.569-3.334 5.186-2.963 7.656-2.47 16.669-.371 26.299-2.715 16.916-5.804 15.928-7.285 15.311-8.396 14.692-9.261 13.706-6.791 7.656-6.544 5.803 4.569 6.296 7.654-6.542 17.781-22.72 12.842-23.337 6.667-16.792 4.568-16.792 1.112-41.117 1.481-7.779 2.841-7.409 6.297-9.507z"/><path fill="none" stroke="#000" stroke-width=".05" stroke-linecap="round" stroke-linejoin="round" d="M357.582 71.313l-24.2 17.533-4.446 3.827-3.827 4.569-3.334 5.186-2.963 7.656-2.47 16.669-.371 26.299-2.715 16.916-5.804 15.928-7.285 15.311-8.396 14.692-9.261 13.706-6.791 7.656-6.544 5.803 4.569 6.296 7.654-6.542 17.781-22.72 12.842-23.337 6.667-16.792 4.568-16.792 1.112-41.117 1.481-7.779 2.841-7.409 6.297-9.507 8.272-7.284 18.892-11.36"/><path d="M266.829 337.769c-.189-.617-.601-1.109-1.235-1.483-.551-.281-1.168-.32-1.852-.123a2.704 2.704 0 0 0-1.482 1.112c-.28.634-.322 1.252-.123 1.852a230.212 230.212 0 0 1 3.704 14.323c.2.706.57 1.239 1.112 1.605.618.362 1.235.444 1.852.246.706-.115 1.241-.487 1.605-1.111.361-.535.443-1.153.247-1.853a233.884 233.884 0 0 0-3.828-14.568m-15.31-27.659c-.219.694-.179 1.353.123 1.975a133.818 133.818 0 0 1 5.804 13.336 2.595 2.595 0 0 0 1.357 1.358c.611.282 1.229.282 1.852 0 .631-.2 1.083-.615 1.359-1.235.281-.612.281-1.229 0-1.852a138.747 138.747 0 0 0-5.928-13.831c-.305-.607-.798-1.018-1.48-1.234-.614-.22-1.231-.179-1.852.126-.609.304-1.022.757-1.235 1.357m-105.077-61.859c-.444-.43-1.02-.637-1.728-.618-4.794.162-9.733.492-14.816.986a2.775 2.775 0 0 0-1.729.866 2.69 2.69 0 0 0-.494 1.852c.078.676.367 1.211.865 1.604.564.475 1.182.682 1.852.617 4.958-.492 9.774-.822 14.446-.986.723-.031 1.299-.318 1.729-.866.511-.443.758-1.02.74-1.729-.031-.641-.318-1.215-.865-1.726m88.531 37.41c-.042.717.164 1.334.617 1.853a103.478 103.478 0 0 1 8.766 11.729c.412.564.947.896 1.606.989.663.176 1.28.051 1.852-.371.564-.328.894-.822.987-1.481.175-.663.051-1.28-.37-1.852a107.656 107.656 0 0 0-9.137-12.225c-.441-.521-1.018-.811-1.729-.863-.635-.043-1.211.164-1.728.617-.522.44-.81.975-.864 1.604m-18.768-21.113c-.536-.361-1.153-.482-1.852-.371a2.75 2.75 0 0 0-1.482 1.111c-.361.618-.484 1.235-.371 1.853.2.704.571 1.239 1.112 1.606a102.39 102.39 0 0 1 11.73 8.52c.519.473 1.095.681 1.728.617.715-.058 1.292-.345 1.729-.865.455-.519.661-1.136.618-1.853-.056-.648-.344-1.228-.865-1.729a108.214 108.214 0 0 0-12.347-8.889m-56.428-16.792c-.639-.041-1.215.164-1.728.617-.523.441-.81.978-.864 1.604-.042.721.164 1.338.617 1.852.442.523.978.811 1.605.866 5.081.33 9.978.865 14.694 1.604.676.092 1.294-.075 1.852-.492a2.38 2.38 0 0 0 .988-1.605 2.443 2.443 0 0 0-.495-1.853 2.372 2.372 0 0 0-1.605-.989 168.407 168.407 0 0 0-15.064-1.604m26.918 6.668c-.199.683-.158 1.3.123 1.853.372.632.866 1.044 1.482 1.234a121.4 121.4 0 0 1 10.989 3.827c.576.287 1.152.533 1.729.74.639.305 1.256.305 1.852 0 .674-.204 1.127-.617 1.358-1.234.304-.637.304-1.295 0-1.975-.207-.591-.618-1.045-1.235-1.358a15.74 15.74 0 0 1-1.728-.742h-.124a126.865 126.865 0 0 0-11.483-3.95c-.601-.198-1.218-.157-1.852.123a2.687 2.687 0 0 0-1.111 1.482z"/></svg>