<?xml version="1.0" encoding="utf-8"?>
<!-- Generator: Adobe Illustrator 16.0.0, SVG Export Plug-In . SVG Version: 6.00 Build 0)  -->
<!DOCTYPE svg PUBLIC "-//W3C//DTD SVG 1.1//EN" "http://www.w3.org/Graphics/SVG/1.1/DTD/svg11.dtd">
<svg version="1.1" id="Layer_1" xmlns="http://www.w3.org/2000/svg" xmlns:xlink="http://www.w3.org/1999/xlink" x="0px" y="0px"
	 width="900px" height="450px" viewBox="0 0 900 450" enable-background="new 0 0 900 450" xml:space="preserve">
<g>
	<g transform="matrix( 1, 0, 0, 1, 0,0) ">
		<g>
			<g id="Layer0_0_FILL">
				<path fill="#65402C" d="M708.493,164.535l-25.684-2.469l-24.817,0.987l-24.078,3.828l-34.695,8.889l-64.452,20.745l-20.25,4.939
					l-19.51,2.592l-19.015-0.494l-18.273-4.197l-17.78-8.891l-8.766-6.421l-30.499-30.621l-6.298-8.396l-3.827-8.15l-1.604-8.766
					l0.247-10.495l6.419-44.573l8.891-36.055l-2.222-2.099l-2.347-1.358l-2.715-0.617l-2.841-0.125l-6.296,0.742l-20.868,6.914
					l-6.914,1.358h-6.42l-4.692-1.358l-8.766-4.939l-4.569-1.852L90.139,9.081l10.865,109.274l2.347,43.71l-0.124,24.077
					l-3.457,9.383l-5.557,21.485l-3.704,24.323l-3.21,39.143l-0.617,51.858l1.852,43.711H77.05v31.237l5.556,4.569l6.545,3.456
					l14.816,4.938l17.162,2.224l18.398,0.369l79.888-6.297l70.997-7.902l41.61-2.593l54.205,1.606l98.655,7.902l63.589,7.654
					l76.554,14.445l19.262,2.347l19.261,0.866l19.387-0.866l78.034-7.777l18.275-3.829l24.569-8.767l13.582-8.271l5.805-5.311
					v-29.016h-17.163l0.863-11.73l14.076-65.563l0.74-11.113l-0.246-4.815l-2.592-15.804l-5.928-24.942l-10.495-24.078
					l-11.359-15.804l-9.383-8.519l-19.387-11.607l-27.41-11.853L708.493,164.535z"/>
			</g>
		</g>
	</g>
	<g transform="matrix( 1, 0, 0, 1, 0,0) ">
		<g>
			
				<path id="Layer0_1_1_STROKES" fill="none" stroke="#333333" stroke-width="2" stroke-linecap="round" stroke-linejoin="round" d="
				M90.139,9.081l10.865,109.274l2.47,43.587l-0.247,24.077l-3.457,9.506l-5.557,21.485l-3.704,24.2l-3.21,39.266l-0.617,51.858
				l1.852,43.711H77.05v31.237l5.681,4.444l6.421,3.581l14.939,4.815l17.039,2.224l18.398,0.369l80.011-6.174l70.874-7.902
				l41.61-2.593l54.205,1.483l98.655,8.025l63.589,7.531l76.554,14.568l19.139,2.224l19.384,0.989l19.51-0.866l77.911-7.902
				l18.398-3.704l24.446-8.89l13.707-8.271l5.68-5.188v-29.139h-17.04l0.74-11.607l14.076-65.687l0.866-10.99l-0.372-4.938
				l-2.592-15.806l-5.928-24.817l-10.495-24.201l-11.359-15.681l-9.383-8.643l-19.387-11.606l-27.287-11.73l-26.547-6.791
				l-25.684-2.469l-24.817,1.11l-24.078,3.704l-34.695,9.013l-64.452,20.745l-20.25,4.939l-19.51,2.469l-19.015-0.371l-18.273-4.322
				l-9.014-3.704l-17.532-11.483l-30.499-30.621l-6.298-8.52l-3.827-8.026l-1.604-8.766l0.247-10.495l6.544-44.573l8.89-36.179
				l-2.346-1.975l-2.347-1.358l-2.715-0.617l-2.841-0.247l-6.419,0.864l-20.745,6.914l-6.791,1.358h-6.543l-4.692-1.358
				l-8.766-4.939l-4.569-1.852"/>
		</g>
	</g>
	<g transform="matrix( 1, 0, 0, 1, 0,0) ">
		<g>
			<g id="Layer0_2_FILL">
				<path d="M734.177,404.813l-28.153,2.841l-55.935-0.866l-279.295-29.879l-75.566,2.469l-101.124,8.272l-47.167,1.852
					l-26.177-2.221l-22.472-6.174l-9.754-5.062H77.05v31.237l5.681,4.444l6.421,3.581l14.939,4.815l17.039,2.224l18.398,0.369
					l80.011-6.174l70.874-7.902l41.61-2.593l54.205,1.483l98.655,8.025l63.589,7.531l76.554,14.568l19.139,2.224l19.384,0.989
					l84.702-6.174l35.067-6.422l14.939-5.309l13.336-7.285l11.607-9.632v-29.139h-17.04l-15.435,9.014l-15.312,7.283l-15.803,5.682
					L734.177,404.813z"/>
			</g>
		</g>
	</g>
	<g transform="matrix( 1, 0, 0, 1, 0,0) ">
		<g>
			
				<path id="Layer0_3_1_STROKES" fill="none" stroke="#000000" stroke-width="2" stroke-linecap="round" stroke-linejoin="round" d="
				M706.023,407.654l-55.935-0.866l-279.295-29.879l-75.566,2.469l-101.124,8.272l-47.167,1.852l-26.177-2.221l-22.472-6.174
				l-9.754-5.062H77.05v31.237l5.681,4.444l6.421,3.581l14.939,4.815l17.039,2.224l18.398,0.369l80.011-6.174l70.874-7.902
				l41.61-2.593l54.205,1.483l98.655,8.025l63.589,7.531l76.554,14.568l19.139,2.224l19.384,0.989l84.702-6.174l35.067-6.422
				l14.939-5.309l13.336-7.285l11.607-9.632v-29.139h-17.04l-15.435,9.014l-15.312,7.283l-15.803,5.682l-25.435,5.926
				L706.023,407.654z"/>
		</g>
	</g>
	<g transform="matrix( 1, 0, 0, 1, 0,0) ">
		<g>
			<path id="Layer0_5_1_STROKES" fill="none" stroke="#000000" stroke-linecap="round" stroke-linejoin="round" d="M97.917,11.305
				l5.31,51.859"/>
		</g>
	</g>
	<g transform="matrix( 1, 0, 0, 1, 0,0) ">
		<g>
			<g id="Layer0_6_FILL">
				<path fill="#CB9A62" d="M652.313,179.475l-4.321,3.211l-2.593,4.074l5.186,3.581l16.545,16.915l10.001,12.965l7.409,11.853
					l19.633-9.629l40.992-23.337l-9.261-9.261l-6.049-4.074l-13.953-7.039l-15.558-4.691l-14.693-1.359l-14.322,0.988l-13.582,3.333
					L652.313,179.475z"/>
			</g>
		</g>
	</g>
	<g transform="matrix( 1, 0, 0, 1, 0,0) ">
		<g>
			<g id="Layer0_7_FILL">
				<path fill="#CB9A62" d="M636.138,195.156l-2.224-0.865l-3.086-0.246l-3.333,0.246l-6.422,2.224l-2.962,1.852l-2.47,2.098
					l-1.852,2.347l-1.235,2.964l4.814,4.691l10.249,13.458l17.04,30.868l2.221,5.805l8.767-3.212l8.025-4.813l6.668-5.928
					l4.444-6.42l-0.74-2.718l-1.357-2.964l-4.075-6.666l-11.235-14.323l-12.717-12.717l-5.928-4.199L636.138,195.156z"/>
			</g>
		</g>
	</g>
	<g transform="matrix( 1, 0, 0, 1, 0,0) ">
		<g>
			<g id="Layer0_8_FILL">
				<path fill="#FFFFFF" d="M224.478,32.048l27.041,1.235l80.998-1.235L91.744,9.081l99.273,18.893L224.478,32.048z"/>
			</g>
		</g>
	</g>
	<g transform="matrix( 1, 0, 0, 1, 0,0) ">
		<g>
			
				<path id="Layer0_9_1_STROKES" fill="none" stroke="#333333" stroke-width="2" stroke-linecap="round" stroke-linejoin="round" d="
				M91.744,9.081l99.273,18.893l33.461,4.074l27.041,1.235l80.998-1.235"/>
		</g>
	</g>
	<g transform="matrix( 1, 0, 0, 1, 0,0) ">
		<g>
			<g id="Layer0_10_FILL">
				<path fill="#EEEE00" d="M341.9,69.46l-0.987,3.334l-0.247,3.21l0.247,3.457l0.987,3.087l1.606,3.087l2.222,2.717l2.717,2.222
					l2.962,1.606l3.334,0.988l3.334,0.247l3.334-0.247l3.21-0.988l2.964-1.606l2.715-2.222l2.347-2.717l1.605-3.087l0.864-3.087
					l0.248-3.457l-0.248-3.21l-0.864-3.334l-1.605-3.086l-5.062-4.939l-2.964-1.605l-3.21-0.865l-3.334-0.37l-3.334,0.37
					l-3.334,0.865l-2.962,1.605l-2.717,2.346l-2.222,2.593L341.9,69.46z"/>
			</g>
		</g>
	</g>
	<g transform="matrix( 1, 0, 0, 1, 0,0) ">
		<g>
			
				<path id="Layer0_11_1_STROKES" fill="none" stroke="#555555" stroke-width="0.05" stroke-linecap="round" stroke-linejoin="round" d="
				M361.41,58.965l3.21,0.865l2.964,1.605l5.062,4.939l1.605,3.086l0.864,3.334l0.248,3.21l-0.248,3.457l-0.864,3.087l-1.605,3.087
				l-2.347,2.717l-2.715,2.222l-2.964,1.606l-3.21,0.988l-3.334,0.247l-3.334-0.247l-3.334-0.988l-2.962-1.606l-2.717-2.222
				l-2.222-2.717l-1.606-3.087l-0.987-3.087l-0.247-3.457l0.247-3.21l0.987-3.334l1.606-3.086l2.222-2.593l2.717-2.346l2.962-1.605
				l3.334-0.865l3.334-0.37L361.41,58.965z"/>
		</g>
	</g>
	<g transform="matrix( 1, 0, 0, 1, 0,0) ">
		<g>
			<g id="Layer0_12_FILL">
				<path d="M351.902,82.178l2.839,1.976l3.334,0.618l3.21-0.618l2.839-1.976l1.977-2.84l0.617-3.334l-0.617-3.21l-1.977-2.964
					l-2.839-1.852l-3.21-0.617l-3.334,0.617l-2.839,1.852l-1.977,2.964l-0.617,3.21l0.617,3.334L351.902,82.178z"/>
			</g>
		</g>
	</g>
	<g transform="matrix( 1, 0, 0, 1, 0,0) ">
		<g>
			<g id="Layer0_13_FILL">
				<path fill="#EEEE00" d="M431.913,212.689l-3.21-0.865h-6.668l-6.296,2.099l-4.939,3.952l-1.606,2.469l-0.864,2.593l-0.371,2.594
					l0.371,2.715l0.864,2.593l1.606,2.347l2.345,2.224l2.594,1.852l3.087,1.235l6.543,0.986l6.544-0.986l2.964-1.235l2.715-1.852
					l2.347-2.224l1.605-2.347l0.864-2.593l0.371-2.715l-0.371-2.594l-0.864-2.593l-1.605-2.469l-2.347-2.1l-2.715-1.852
					L431.913,212.689z"/>
			</g>
		</g>
	</g>
	<g transform="matrix( 1, 0, 0, 1, 0,0) ">
		<g>
			
				<path id="Layer0_14_1_STROKES" fill="none" stroke="#555555" stroke-width="0.05" stroke-linecap="round" stroke-linejoin="round" d="
				M441.543,220.345l0.864,2.593l0.371,2.594l-0.371,2.715l-0.864,2.593l-1.605,2.347l-2.347,2.224l-2.715,1.852l-2.964,1.235
				l-6.544,0.986l-6.543-0.986l-3.087-1.235l-2.594-1.852l-2.345-2.224l-1.606-2.347l-0.864-2.593l-0.371-2.715l0.371-2.594
				l0.864-2.593l1.606-2.469l4.939-3.952l6.296-2.099h6.668l3.21,0.865l2.964,1.234l2.715,1.852l2.347,2.1L441.543,220.345z"/>
		</g>
	</g>
	<g transform="matrix( 1, 0, 0, 1, 0,0) ">
		<g>
			<g id="Layer0_15_FILL">
				<path d="M434.012,225.531l-0.494-2.47l-1.975-2.347l-2.84-1.604l-3.334-0.495l-3.334,0.495l-2.839,1.604l-1.853,2.347
					l-0.617,2.47l0.617,2.715l1.853,2.224l2.839,1.604l3.334,0.495l3.334-0.495l2.84-1.604l1.975-2.224L434.012,225.531z"/>
			</g>
		</g>
	</g>
	<g transform="matrix( 1, 0, 0, 1, 0,0) ">
		<g>
			<g id="Layer0_16_FILL">
				<path fill="#EEEE00" d="M401.785,178.611l-0.988-2.594l-1.604-2.47l-2.223-2.222l-2.716-1.729l-6.297-2.098h-6.545l-3.333,0.863
					l-2.964,1.235l-2.716,1.729l-2.346,2.222l-1.481,2.47l-0.988,2.594l-0.372,2.592l0.372,2.716l0.988,2.593l1.481,2.469l2.346,2.1
					l2.716,1.852l2.964,1.234l3.333,0.741l3.211,0.247l6.544-0.988l3.087-1.234l2.716-1.852l2.223-2.1l1.604-2.469l0.988-2.593
					l0.372-2.716L401.785,178.611z"/>
			</g>
		</g>
	</g>
	<g transform="matrix( 1, 0, 0, 1, 0,0) ">
		<g>
			
				<path id="Layer0_17_1_STROKES" fill="none" stroke="#555555" stroke-width="0.05" stroke-linecap="round" stroke-linejoin="round" d="
				M401.785,183.92l-0.988,2.593l-1.604,2.469l-2.223,2.1l-2.716,1.852l-3.087,1.234l-6.544,0.988l-3.211-0.247l-3.333-0.741
				l-2.964-1.234l-2.716-1.852l-2.346-2.1l-1.481-2.469l-0.988-2.593l-0.372-2.716l0.372-2.592l0.988-2.594l1.481-2.47l2.346-2.222
				l2.716-1.729l2.964-1.235l3.333-0.863h6.545l6.297,2.098l2.716,1.729l2.223,2.222l1.604,2.47l0.988,2.594l0.372,2.592
				L401.785,183.92z"/>
		</g>
	</g>
	<g transform="matrix( 1, 0, 0, 1, 0,0) ">
		<g>
			<g id="Layer0_18_FILL">
				<path d="M387.957,187.748l2.962-1.605l1.853-2.347l0.617-2.592l-0.617-2.592l-1.853-2.224l-2.962-1.605l-3.334-0.493
					l-3.211,0.493l-2.962,1.605l-1.853,2.224l-0.617,2.592l0.617,2.592l1.853,2.347l2.962,1.605l3.211,0.494L387.957,187.748z"/>
			</g>
		</g>
	</g>
	<g transform="matrix( 1, 0, 0, 1, 0,0) ">
		<g>
			<g id="Layer0_19_FILL">
				<path fill="#EEEE00" d="M349.433,114.405l-2.717,2.098l-2.099,2.594l-1.482,2.963l-0.987,3.086l-0.248,3.334l0.248,3.087
					l0.987,3.087l1.482,2.84l2.099,2.716l2.717,2.1l2.84,1.605l3.087,0.864l3.209,0.37l3.211-0.37l3.086-0.864l2.84-1.605l2.716-2.1
					l2.1-2.716l1.605-2.84l0.865-3.087l0.37-3.087l-0.37-3.334l-0.865-3.086l-1.605-2.963l-2.1-2.594l-2.716-2.098l-2.84-1.482
					l-3.086-0.987l-3.211-0.247l-3.209,0.247l-3.087,0.987L349.433,114.405z"/>
			</g>
		</g>
	</g>
	<g transform="matrix( 1, 0, 0, 1, 0,0) ">
		<g>
			
				<path id="Layer0_20_1_STROKES" fill="none" stroke="#555555" stroke-width="0.05" stroke-linecap="round" stroke-linejoin="round" d="
				M370.423,116.503l2.1,2.594l1.605,2.963l0.865,3.086l0.37,3.334l-0.37,3.087l-0.865,3.087l-1.605,2.84l-2.1,2.716l-2.716,2.1
				l-2.84,1.605l-3.086,0.864l-3.211,0.37l-3.209-0.37l-3.087-0.864l-2.84-1.605l-2.717-2.1l-2.099-2.716l-1.482-2.84l-0.987-3.087
				l-0.248-3.087l0.248-3.334l0.987-3.086l1.482-2.963l2.099-2.594l2.717-2.098l2.84-1.482l3.087-0.987l3.209-0.247l3.211,0.247
				l3.086,0.987l2.84,1.482L370.423,116.503z"/>
		</g>
	</g>
	<g transform="matrix( 1, 0, 0, 1, 0,0) ">
		<g>
			<g id="Layer0_21_FILL">
				<path d="M352.643,134.284l2.84,1.852l3.086,0.617l3.087-0.617l2.841-1.852l1.852-2.84l0.618-2.964l-0.618-3.334l-1.852-2.592
					l-2.841-1.852l-3.087-0.618l-3.086,0.618l-2.84,1.852l-1.728,2.592l-0.617,3.334l0.617,2.964L352.643,134.284z"/>
			</g>
		</g>
	</g>
	<g transform="matrix( 1, 0, 0, 1, 0,0) ">
		<g>
			
				<path id="Layer0_22_1_STROKES" fill="none" stroke="#000000" stroke-width="2" stroke-linecap="round" stroke-linejoin="round" d="
				M498.465,228.123l-6.791-0.246l-6.668-1.111l-13.336-4.569l-13.334-6.915l-57.909-41.364"/>
		</g>
	</g>
	<g transform="matrix( 1, 0, 0, 1, 0,0) ">
		<g>
			<g id="Layer0_23_FILL">
				<path d="M426.479,225.531l25.929-22.597l-2.469-3.457l-25.806,22.595L426.479,225.531z"/>
			</g>
		</g>
	</g>
	<g transform="matrix( 1, 0, 0, 1, 0,0) ">
		<g>
			
				<path id="Layer0_24_1_STROKES" fill="none" stroke="#000000" stroke-width="0.05" stroke-linecap="round" stroke-linejoin="round" d="
				M452.408,202.935l-25.929,22.597l-2.346-3.458l25.806-22.595L452.408,202.935z"/>
		</g>
	</g>
	<g transform="matrix( 1, 0, 0, 1, 0,0) ">
		<g>
			<g id="Layer0_25_FILL">
				<path d="M382.029,182.191l31.733-12.964l-1.11-4.198l-31.733,13.088L382.029,182.191z"/>
			</g>
		</g>
	</g>
	<g transform="matrix( 1, 0, 0, 1, 0,0) ">
		<g>
			
				<path id="Layer0_26_1_STROKES" fill="none" stroke="#000000" stroke-width="0.05" stroke-linecap="round" stroke-linejoin="round" d="
				M413.762,169.227l-31.733,12.964l-1.11-4.074l31.733-13.088L413.762,169.227z"/>
		</g>
	</g>
	<g transform="matrix( 1, 0, 0, 1, 0,0) ">
		<g>
			<g id="Layer0_27_FILL">
				<path d="M356.224,128.233l-0.37,4.322l34.325-1.975l0.247-4.322L356.224,128.233z"/>
			</g>
		</g>
	</g>
	<g transform="matrix( 1, 0, 0, 1, 0,0) ">
		<g>
			
				<path id="Layer0_28_1_STROKES" fill="none" stroke="#000000" stroke-width="0.05" stroke-linecap="round" stroke-linejoin="round" d="
				M356.224,128.233l34.202-1.975l-0.247,4.322l-34.325,1.975L356.224,128.233z"/>
		</g>
	</g>
	<g transform="matrix( 1, 0, 0, 1, 0,0) ">
		<g>
			<path id="Layer0_30_1_STROKES" fill="none" stroke="#000000" stroke-linecap="round" stroke-linejoin="round" d="M388.82,93.785
				l-9.877,60.995"/>
		</g>
	</g>
	<g transform="matrix( 1, 0, 0, 1, 0,0) ">
		<g>
			<g id="Layer0_31_FILL">
				<path d="M334.986,97.365l8.272-7.284l18.892-11.36l-4.569-7.408l-24.2,17.533l-4.446,3.827l-3.827,4.569l-3.334,5.186
					l-2.963,7.656l-2.47,16.669l-0.371,26.299l-2.715,16.916l-5.804,15.928l-7.285,15.311l-8.396,14.692l-9.261,13.706l-6.791,7.656
					l-6.544,5.803l4.569,6.296l7.654-6.542l17.781-22.72l12.842-23.337l6.667-16.792l4.568-16.792l1.112-41.117l1.481-7.779
					l2.841-7.409L334.986,97.365z"/>
			</g>
		</g>
	</g>
	<g transform="matrix( 1, 0, 0, 1, 0,0) ">
		<g>
			
				<path id="Layer0_32_1_STROKES" fill="none" stroke="#000000" stroke-width="0.05" stroke-linecap="round" stroke-linejoin="round" d="
				M357.582,71.313l-24.2,17.533l-4.446,3.827l-3.827,4.569l-3.334,5.186l-2.963,7.656l-2.47,16.669l-0.371,26.299l-2.715,16.916
				l-5.804,15.928l-7.285,15.311l-8.396,14.692l-9.261,13.706l-6.791,7.656l-6.544,5.803l4.569,6.296l7.654-6.542l17.781-22.72
				l12.842-23.337l6.667-16.792l4.568-16.792l1.112-41.117l1.481-7.779l2.841-7.409l6.297-9.507l8.272-7.284l18.892-11.36"/>
		</g>
	</g>
	<g transform="matrix( 1, 0, 0, 1, 0,0) ">
		<g>
			<g id="Layer0_33_STROKES_1_FILL">
				<path d="M266.829,337.769c-0.189-0.617-0.601-1.109-1.235-1.483c-0.551-0.281-1.168-0.32-1.852-0.123
					c-0.615,0.188-1.109,0.56-1.482,1.112c-0.28,0.634-0.322,1.252-0.123,1.852c1.377,4.693,2.612,9.466,3.704,14.323
					c0.2,0.706,0.57,1.239,1.112,1.605c0.618,0.362,1.235,0.444,1.852,0.246c0.706-0.115,1.241-0.487,1.605-1.111
					c0.361-0.535,0.443-1.153,0.247-1.853C269.526,347.396,268.25,342.541,266.829,337.769 M251.519,310.11
					c-0.219,0.694-0.179,1.353,0.123,1.975c2.116,4.201,4.051,8.648,5.804,13.336c0.284,0.632,0.736,1.083,1.357,1.358
					c0.611,0.282,1.229,0.282,1.852,0c0.631-0.2,1.083-0.615,1.359-1.235c0.281-0.612,0.281-1.229,0-1.852
					c-1.788-4.862-3.763-9.471-5.928-13.831c-0.305-0.607-0.798-1.018-1.48-1.234c-0.614-0.22-1.231-0.179-1.852,0.126
					C252.145,309.057,251.732,309.51,251.519,310.11 M146.442,248.251c-0.444-0.43-1.02-0.637-1.728-0.618
					c-4.794,0.162-9.733,0.492-14.816,0.986c-0.678,0.08-1.254,0.369-1.729,0.866c-0.394,0.564-0.559,1.182-0.494,1.852
					c0.078,0.676,0.367,1.211,0.865,1.604c0.564,0.475,1.182,0.682,1.852,0.617c4.958-0.492,9.774-0.822,14.446-0.986
					c0.723-0.031,1.299-0.318,1.729-0.866c0.511-0.443,0.758-1.02,0.74-1.729C147.276,249.336,146.989,248.762,146.442,248.251
					 M234.973,285.661c-0.042,0.717,0.164,1.334,0.617,1.853c3.144,3.629,6.066,7.539,8.766,11.729
					c0.412,0.564,0.947,0.896,1.606,0.989c0.663,0.176,1.28,0.051,1.852-0.371c0.564-0.328,0.894-0.822,0.987-1.481
					c0.175-0.663,0.051-1.28-0.37-1.852c-2.815-4.37-5.86-8.443-9.137-12.225c-0.441-0.521-1.018-0.811-1.729-0.863
					c-0.635-0.043-1.211,0.164-1.728,0.617C235.315,284.497,235.027,285.032,234.973,285.661 M216.205,264.548
					c-0.536-0.361-1.153-0.482-1.852-0.371c-0.623,0.2-1.117,0.569-1.482,1.111c-0.361,0.618-0.484,1.235-0.371,1.853
					c0.2,0.704,0.571,1.239,1.112,1.606c4.131,2.577,8.042,5.418,11.73,8.52c0.519,0.473,1.095,0.681,1.728,0.617
					c0.715-0.058,1.292-0.345,1.729-0.865c0.455-0.519,0.661-1.136,0.618-1.853c-0.056-0.648-0.344-1.228-0.865-1.729
					C224.668,270.201,220.551,267.237,216.205,264.548 M159.777,247.756c-0.639-0.041-1.215,0.164-1.728,0.617
					c-0.523,0.441-0.81,0.978-0.864,1.604c-0.042,0.721,0.164,1.338,0.617,1.852c0.442,0.523,0.978,0.811,1.605,0.866
					c5.081,0.33,9.978,0.865,14.694,1.604c0.676,0.092,1.294-0.075,1.852-0.492c0.552-0.402,0.881-0.936,0.988-1.605
					c0.089-0.678-0.075-1.296-0.495-1.853c-0.4-0.552-0.936-0.883-1.605-0.989C170.007,248.617,164.986,248.082,159.777,247.756
					 M186.695,254.424c-0.199,0.683-0.158,1.3,0.123,1.853c0.372,0.632,0.866,1.044,1.482,1.234
					c3.825,1.134,7.488,2.412,10.989,3.827l0,0c0.576,0.287,1.152,0.533,1.729,0.74c0.639,0.305,1.256,0.305,1.852,0
					c0.674-0.204,1.127-0.617,1.358-1.234c0.304-0.637,0.304-1.295,0-1.975c-0.207-0.591-0.618-1.045-1.235-1.358
					c-0.575-0.207-1.152-0.453-1.728-0.742h-0.124c-3.661-1.464-7.488-2.781-11.483-3.95c-0.601-0.198-1.218-0.157-1.852,0.123
					C187.253,253.314,186.883,253.807,186.695,254.424z"/>
			</g>
		</g>
	</g>
</g>
</svg>
