<?xml version="1.0" encoding="UTF-8" standalone="no"?>
<svg id="svg3655" xmlns:inkscape="http://www.inkscape.org/namespaces/inkscape" xmlns:rdf="http://www.w3.org/1999/02/22-rdf-syntax-ns#" xmlns="http://www.w3.org/2000/svg" sodipodi:docname="box.svg" viewBox="0 0 108.15 93.95" version="1.1" xmlns:cc="http://creativecommons.org/ns#" xmlns:dc="http://purl.org/dc/elements/1.1/" inkscape:version="0.48.2 r9819" xmlns:sodipodi="http://sodipodi.sourceforge.net/DTD/sodipodi-0.dtd">
 <metadata id="metadata3671">
  <rdf:RDF>
   <cc:Work rdf:about="">
    <dc:format>image/svg+xml</dc:format>
    <dc:type rdf:resource="http://purl.org/dc/dcmitype/StillImage"/>
    <dc:title/>
   </cc:Work>
  </rdf:RDF>
 </metadata>
 <sodipodi:namedview id="namedview3667" bordercolor="#666666" inkscape:pageshadow="2" guidetolerance="10" pagecolor="#ffffff" gridtolerance="10" inkscape:window-maximized="0" inkscape:zoom="2.5119745" objecttolerance="10" borderopacity="1" inkscape:current-layer="svg3655" inkscape:cx="54.075001" inkscape:cy="46.974998" inkscape:window-y="0" inkscape:window-x="0" inkscape:window-width="640" showgrid="false" inkscape:pageopacity="0" inkscape:window-height="480"/>
 <g id="g3657" transform="matrix(1.0, 0.0, 0.0, 1.0, -5.9, 44.85)">
  <path id="path3659" stroke="none" fill-rule="evenodd" d="M6.9-30.85l18.15,6.05,22.85,7.7,1.75,65.1-0.05,0.05-39.35-21.35-3.35-57.55" fill="#c19661"/>
  <path id="path3661" stroke="none" fill-rule="evenodd" d="M47.9-17.1l-22.85-7.7-18.15-6.05,65.1-13,17.4,4.5,23.65,6.15-65.15,16.1m-22.85-7.7l64.35-14.55-64.35,14.55" fill="#e5ba8f"/>
  <path id="path3663" stroke="none" fill-rule="evenodd" d="M49.65,48l-1.75-65.1,65.15-16.1-1.55,57.85-61.85,23.35" fill="#d8a673"/>
  <path id="path3665" stroke-linejoin="round" d="M47.9-17.1l-22.85-7.7-18.15-6.05,3.35,57.55,39.35,21.35,0.05-0.05-1.75-65.1,65.15-16.1-23.65-6.15-64.35,14.55m-18.15-6.05l65.1-13,17.4,4.5m-39.75,87.35v0.1l-0.05-0.05m63.45-81.25l-1.55,57.85-61.85,23.35" stroke="#000000" stroke-linecap="round" stroke-width="2.0" fill="none"/>
 </g>
</svg>
