<?xml version="1.0" encoding="utf-8"?>
<!-- Generator: Adobe Illustrator 16.0.0, SVG Export Plug-In . SVG Version: 6.00 Build 0)  -->
<!DOCTYPE svg PUBLIC "-//W3C//DTD SVG 1.1//EN" "http://www.w3.org/Graphics/SVG/1.1/DTD/svg11.dtd">
<svg version="1.1" id="Layer_1" xmlns="http://www.w3.org/2000/svg" xmlns:xlink="http://www.w3.org/1999/xlink" x="0px" y="0px"
	 width="900px" height="450px" viewBox="0 0 900 450" enable-background="new 0 0 900 450" xml:space="preserve">
<g transform="matrix( 1, 0, 0, 1, 0,0) ">
	<g>
		<g id="Layer0_0_FILL">
			<path fill="#999999" d="M603.384,354.428l-14.648,6.769l18.974,59.365l14.759-6.769L603.384,354.428 M637.448,406.912
				l14.314-6.658L633.01,340.89l-14.536,6.547L637.448,406.912 M618.474,347.437l-15.09,6.991l19.084,59.365l14.98-6.881
				L618.474,347.437 M647.324,334.345l-14.314,6.545l18.753,59.364l14.535-6.657L647.324,334.345 M661.525,327.797l-14.201,6.548
				l18.974,59.252l13.981-6.545L661.525,327.797 M575.088,367.41c-0.667,0.297-1.296,0.555-1.888,0.777l19.087,59.586l15.422-7.212
				l-18.974-59.365L575.088,367.41 M573.2,368.188c-5.992,2.44-10.838,3.551-14.535,3.329l19.528,62.694l14.094-6.438L573.2,368.188
				 M740.977,291.29l-7.768,3.439c-0.962,0.444-1.961,0.926-2.997,1.443l-68.687,31.624l18.754,59.255l13.76-6.216l-18.42-58.587
				l18.42,58.587l13.76-6.435l-18.42-58.145l18.42,58.145l13.426-6.103l-18.088-57.924l18.088,57.924l13.315-6.214l-18.198-57.146
				l18.198,57.146l12.981-5.992l-17.975-56.925l17.975,56.925l12.65-5.882L740.977,291.29z"/>
			<path fill="#AB6C4A" d="M738.313,267.212c-2.59-6.584-9.543-7.473-20.862-2.663l-71.016,31.069l-25.966,11.317l-59.364,25.854
				c-14.202,5.846-19.604,12.538-16.2,20.084l5.104,12.427c1.406,3.85,4.291,5.919,8.656,6.216
				c3.697,0.222,8.543-0.889,14.535-3.329c0.592-0.223,1.221-0.48,1.888-0.777l13.647-6.214l14.648-6.769l15.09-6.991l14.536-6.547
				l14.314-6.545l14.201-6.548l68.687-31.624c1.036-0.518,2.035-0.999,2.997-1.443c8.804-4.883,12.059-10.283,9.764-16.2
				L738.313,267.212 M159.422,16.88c-3.106-1.554-6.362-1.923-9.764-1.109c-2.515,0.665-4.624,2.146-6.325,4.438
				c-0.296,0.296-0.592,0.665-0.888,1.109c-1.554,2.663-1.96,5.548-1.221,8.655c0.962,3.107,2.886,5.475,5.771,7.102l473.475,269.86
				l25.966-11.317c-0.96-1.186-2.108-2.146-3.439-2.885L159.422,16.88z"/>
		</g>
	</g>
	<g>
		<path id="Layer0_0_1_STROKES" fill="none" stroke="#333333" stroke-width="3" stroke-linecap="round" stroke-linejoin="round" d="
			M646.436,295.618c-0.96-1.186-2.108-2.146-3.439-2.885L159.422,16.88c-3.106-1.554-6.362-1.923-9.764-1.109
			c-2.515,0.665-4.624,2.146-6.325,4.438c-0.296,0.296-0.592,0.665-0.888,1.109c-1.554,2.663-1.96,5.548-1.221,8.655
			c0.962,3.107,2.886,5.475,5.771,7.102l473.475,269.86L646.436,295.618l71.016-31.069c11.319-4.81,18.272-3.921,20.862,2.663
			l4.659,11.317c2.295,5.917-0.96,11.317-9.764,16.2 M558.665,371.517c-4.365-0.297-7.25-2.366-8.656-6.216l-5.104-12.427
			c-3.403-7.546,1.998-14.238,16.2-20.084l59.364-25.854 M558.665,371.517c3.697,0.222,8.543-0.889,14.535-3.329
			c0.592-0.223,1.221-0.48,1.888-0.777l13.647-6.214l14.648-6.769l15.09-6.991l14.536-6.547l14.314-6.545l14.201-6.548
			l68.687-31.624c1.036-0.518,2.035-0.999,2.997-1.443"/>
	</g>
	<g>
		<path id="Layer0_0_2_STROKES" fill="none" stroke="#333333" stroke-width="2" stroke-linecap="round" stroke-linejoin="round" d="
			M733.209,294.729l7.768-3.439l19.195,58.921l-12.65,5.882l-12.981,5.992l-13.315,6.214l-13.426,6.103l-13.76,6.435l-13.76,6.216
			l-13.981,6.545l-14.535,6.657l-14.314,6.658l-14.98,6.881l-14.759,6.769l-15.422,7.212l-14.094,6.438l-19.528-62.694"/>
	</g>
	<g>
		<path id="Layer0_0_3_STROKES" fill="none" stroke="#333333" stroke-linecap="round" stroke-linejoin="round" d="M703.137,310.375
			l18.088,57.924 M716.342,304.939l18.198,57.146 M675.619,322.249l18.42,58.587 M689.379,316.257l18.42,58.145 M729.547,299.168
			l17.975,56.925 M618.474,347.437l18.975,59.476 M647.324,334.345l18.974,59.252 M633.01,340.89l18.753,59.364 M573.2,368.188
			l19.087,59.586 M588.735,361.196l18.974,59.365 M603.384,354.428l19.084,59.365 M661.525,327.797l18.754,59.255"/>
	</g>
</g>
</svg>
