
<svg xmlns="http://www.w3.org/2000/svg" version="1.1" xmlns:xlink="http://www.w3.org/1999/xlink" preserveAspectRatio="none" x="0px" y="0px" width="285px" height="427px" viewBox="0 0 285 427">
<defs>
<g id="Layer0_0_FILL">
<path fill="#333333" stroke="none" d="
M 126.6 373.55
Q 138.95 377 155.5 373.55
L 166.75 362.35 117.7 363.1
Q 119.4 368.35 126.6 373.55 Z"/>

<path fill="#828282" stroke="none" d="
M 106.5 350.15
L 117.7 363.1 166.75 362.35 179.95 347
Q 179.95 346.15 179.95 345.35
L 106.5 350.15
M 105.9 320.4
Q 105.9 324.35 105.9 328.4
L 179.95 323.5
Q 180 319.45 180.2 315.6
L 105.9 320.4
M 105.8 335.65
Q 105.7 339.35 105.6 343.05
L 179.85 338.25
Q 179.75 334.45 179.85 330.8
L 105.8 335.65
M 105.8 306.85
Q 105.8 310.05 105.9 313.2
L 180.55 308.4
Q 180.6 305.75 180.8 303
L 105.8 306.85 Z"/>

<path fill="#999999" stroke="none" d="
M 102.1 335.95
L 105.8 335.65 179.85 330.8 183 330.55
Q 185.5 326.95 183 323.25
L 179.95 323.5 105.9 328.4 102.1 328.65
Q 99.3 333.25 102.1 335.95
M 105.6 343.05
L 101.95 343.3
Q 99.2 347.85 101.95 350.4
L 106.5 350.15 179.95 345.35 182.95 345.1
Q 185.35 341.6 182.95 338
L 179.85 338.25 105.6 343.05
M 102.6 320.6
L 105.9 320.4 180.2 315.6 183.45 315.35
Q 185.85 311.95 183.45 308.25
L 180.55 308.4 105.9 313.2 102.6 313.4
Q 100.5 318.45 102.6 320.6
M 102 305.35
L 105.8 306.85 180.8 303 182.35 302.95
Q 183.6 299.35 183.35 295.4
L 101.1 295.4
Q 100.65 301.15 102 305.35
M 102 288.85
Q 101.35 292.15 101.1 295.4
L 183.35 295.4
Q 183.2 292.4 182.35 289.15
L 150.45 289.05 130.4 288.95 102 288.85 Z"/>

<path fill="#FFFFEC" stroke="none" d="
M 155.4 240.7
L 126 240.7 130.4 288.95 150.45 289.05 155.4 240.7
M 161.25 143.6
Q 161.25 139.65 159.2 136.75 158.6 137.05 158.1 137.5 154.15 140.6 154.15 145.4 154.15 147.55 154.75 149.35 155.85 152 157.65 152 159.55 152 160.5 148.65 161.25 146.35 161.25 143.6
M 123 145.65
Q 123 143.25 121.65 140.85 119.75 137.85 116.85 137.85
L 116.75 137.85
Q 112.75 141.2 112.75 144.7 112.75 148.55 113.4 149.75 114.3 151.2 117.3 151.2 120.1 151.2 121.65 149.75 123 148.2 123 145.65
M 140.95 136.8
Q 140.25 135.8 139.65 135.2 139.55 135.2 139.5 135.25 135.55 139.2 135.55 144.35 135.55 147.55 136.2 148.65 137.15 150.2 140 150.2 141 150.2 142.65 148.65 144.45 147.1 144.45 146.05 144.45 141.55 140.95 136.8
M 179.85 145.8
Q 180 146.15 180.2 146.75
L 155.4 240.7 150.45 289.05 182.35 289.15 183.1 288.7
Q 194 282.8 198.1 254.5 202.3 225.85 219.7 205.9 237.2 185.75 237.2 146.65 237.2 107.6 209.6 80 182.75 53.15 145.15 52.3
L 144.3 52.3
Q 144.1 52.3 143.95 52.3
L 139.9 52.4
Q 102.3 53.15 75.45 80 47.85 107.6 47.85 146.65 47.85 185.75 65.35 205.9 82.75 225.85 86.95 254.5 91.05 282.8 102 288.85
L 130.4 288.95 126 240.7 100.55 149.05 126 240.7 155.4 240.7 180.2 146.75
Q 180 146.15 179.85 145.8 176 137.85 175.9 137.75 173.5 134.5 168 134.5 162.8 134.5 159.2 136.75 161.25 139.65 161.25 143.6 161.25 146.35 160.5 148.65 159.55 152 157.65 152 155.85 152 154.75 149.35 154.15 147.55 154.15 145.4 154.15 140.6 158.1 137.5 158.6 137.05 159.2 136.75 158.35 135.6 157.3 134.5 153.7 131.15 149.4 131.15 143.7 131.15 139.65 135.2 140.25 135.8 140.95 136.8 144.45 141.55 144.45 146.05 144.45 147.1 142.65 148.65 141 150.2 140 150.2 137.15 150.2 136.2 148.65 135.55 147.55 135.55 144.35 135.55 139.2 139.5 135.25 139.55 135.2 139.65 135.2 136.2 131.6 132.35 131.6 126.45 131.6 119.85 135.7 118.05 136.8 116.75 137.85
L 116.85 137.85
Q 119.75 137.85 121.65 140.85 123 143.25 123 145.65 123 148.2 121.65 149.75 120.1 151.2 117.3 151.2 114.3 151.2 113.4 149.75 112.75 148.55 112.75 144.7 112.75 141.2 116.75 137.85 115.4 137.95 111.95 139.05 109.2 139.9 107 140.85 104.7 141.7 102.8 144.6 100.75 147.95 99.9 149.05 100.75 147.95 102.8 144.6 104.7 141.7 107 140.85 109.2 139.9 111.95 139.05 115.4 137.95 116.75 137.85 118.05 136.8 119.85 135.7 126.45 131.6 132.35 131.6 136.2 131.6 139.65 135.2 143.7 131.15 149.4 131.15 153.7 131.15 157.3 134.5 158.35 135.6 159.2 136.75 162.8 134.5 168 134.5 173.5 134.5 175.9 137.75 176 137.85 179.85 145.8 Z"/>
</g>

<path id="Layer0_0_1_STROKES" stroke="#414141" stroke-width="2" stroke-linejoin="round" stroke-linecap="round" fill="none" d="
M 182.35 289.15
L 150.45 289.05
M 183.1 288.7
Q 194 282.8 198.1 254.5 202.3 225.85 219.7 205.9 237.2 185.75 237.2 146.65 237.2 107.6 209.6 80 182.75 53.15 145.15 52.3
L 144.3 52.3
Q 144.1 52.3 143.95 52.3
M 139.9 52.4
Q 102.3 53.15 75.45 80 47.85 107.6 47.85 146.65 47.85 185.75 65.35 205.9 82.75 225.85 86.95 254.5 91.05 282.8 102 288.85
L 130.4 288.95
M 143.95 52.3
L 142.8 52.3
Q 142.5 52.3 142.2 52.3
L 141.6 52.3
Q 140.75 52.3 139.9 52.4
M 102 288.85
Q 101.35 292.15 101.1 295.4
L 183.35 295.4
Q 183.2 292.4 182.35 289.15
M 150.45 289.05
L 130.4 288.95
M 101.1 295.4
Q 100.65 301.15 102 305.35
L 105.8 306.85 180.8 303 182.35 302.95
Q 183.6 299.35 183.35 295.4
M 105.8 306.85
Q 105.8 310.05 105.9 313.2
M 180.55 308.4
Q 180.6 305.75 180.8 303
M 105.8 335.65
Q 105.7 339.35 105.6 343.05
M 105.9 320.4
Q 105.9 324.35 105.9 328.4
M 106.5 350.15
L 117.7 363.1 166.75 362.35 179.95 347
Q 179.95 346.15 179.95 345.35
M 117.7 363.1
Q 119.4 368.35 126.6 373.55 138.95 377 155.5 373.55
L 166.75 362.35
M 179.85 338.25
Q 179.75 334.45 179.85 330.8
M 179.95 323.5
Q 180 319.45 180.2 315.6"/>

<path id="Layer0_0_2_STROKES" stroke="#333333" stroke-width="2" stroke-linejoin="round" stroke-linecap="round" fill="none" d="
M 180.2 146.75
L 155.4 240.7 150.45 289.05
M 130.4 288.95
L 126 240.7 100.55 149.05
M 155.4 240.7
L 126 240.7"/>

<path id="Layer0_0_3_STROKES" stroke="#414141" stroke-width="1" stroke-linejoin="round" stroke-linecap="round" fill="none" d="
M 105.9 313.2
L 180.55 308.4
M 105.9 320.4
L 102.6 320.6
Q 100.5 318.45 102.6 313.4
L 105.9 313.2
M 106.5 350.15
L 101.95 350.4
Q 99.2 347.85 101.95 343.3
L 105.6 343.05
M 105.8 335.65
L 102.1 335.95
Q 99.3 333.25 102.1 328.65
L 105.9 328.4
M 105.9 320.4
L 180.2 315.6 183.45 315.35
Q 185.85 311.95 183.45 308.25
L 180.55 308.4
M 179.95 345.35
L 106.5 350.15
M 179.85 330.8
L 105.8 335.65
M 179.85 338.25
L 182.95 338
Q 185.35 341.6 182.95 345.1
L 179.95 345.35
M 179.95 323.5
L 183 323.25
Q 185.5 326.95 183 330.55
L 179.85 330.8
M 105.9 328.4
L 179.95 323.5
M 105.6 343.05
L 179.85 338.25"/>

<path id="Layer0_0_4_STROKES" stroke="#000000" stroke-width="1" stroke-linejoin="round" stroke-linecap="round" fill="none" d="
M 99.9 149.05
Q 100.75 147.95 102.8 144.6 104.7 141.7 107 140.85 109.2 139.9 111.95 139.05 115.4 137.95 116.75 137.85 118.05 136.8 119.85 135.7 126.45 131.6 132.35 131.6 136.2 131.6 139.65 135.2 143.7 131.15 149.4 131.15 153.7 131.15 157.3 134.5 158.35 135.6 159.2 136.75 162.8 134.5 168 134.5 173.5 134.5 175.9 137.75 176 137.85 179.85 145.8 180 146.15 180.2 146.75
M 139.65 135.2
Q 139.55 135.2 139.5 135.25 135.55 139.2 135.55 144.35 135.55 147.55 136.2 148.65 137.15 150.2 140 150.2 141 150.2 142.65 148.65 144.45 147.1 144.45 146.05 144.45 141.55 140.95 136.8 140.25 135.8 139.65 135.2 Z
M 116.75 137.85
Q 112.75 141.2 112.75 144.7 112.75 148.55 113.4 149.75 114.3 151.2 117.3 151.2 120.1 151.2 121.65 149.75 123 148.2 123 145.65 123 143.25 121.65 140.85 119.75 137.85 116.85 137.85
L 116.75 137.85 Z
M 159.2 136.75
Q 158.6 137.05 158.1 137.5 154.15 140.6 154.15 145.4 154.15 147.55 154.75 149.35 155.85 152 157.65 152 159.55 152 160.5 148.65 161.25 146.35 161.25 143.6 161.25 139.65 159.2 136.75 Z"/>
</defs>

<g transform="matrix( 1, 0, 0, 1, 0,0) ">
<use xlink:href="#Layer0_0_FILL"/>

<use xlink:href="#Layer0_0_1_STROKES"/>

<use xlink:href="#Layer0_0_2_STROKES"/>

<use xlink:href="#Layer0_0_3_STROKES"/>

<use xlink:href="#Layer0_0_4_STROKES"/>
</g>
</svg>
