<svg xmlns="http://www.w3.org/2000/svg" xmlns:xlink="http://www.w3.org/1999/xlink" preserveAspectRatio="none" width="285" height="427" viewBox="0 0 285 427"><defs><g id="a"><path fill="#333" d="M126.6 373.55q12.35 3.45 28.9 0l11.25-11.2-49.05.75q1.7 5.25 8.9 10.45z"/><path fill="#828282" d="M106.5 350.15l11.2 12.95 49.05-.75 13.2-15.35v-1.65l-73.45 4.8m-.6-29.75v8l74.05-4.9q.05-4.05.25-7.9l-74.3 4.8m-.1 15.25l-.2 7.4 74.25-4.8q-.1-3.8 0-7.45l-74.05 4.85m0-28.8q0 3.2.1 6.35l74.65-4.8q.05-2.65.25-5.4l-75 3.85z"/><path fill="#999" d="M102.1 335.95l3.7-.3 74.05-4.85 3.15-.25q2.5-3.6 0-7.3l-3.05.25-74.05 4.9-3.8.25q-2.8 4.6 0 7.3m3.5 7.1l-3.65.25q-2.75 4.55 0 7.1l4.55-.25 73.45-4.8 3-.25q2.4-3.5 0-7.1l-3.1.25-74.25 4.8m-3-22.45l3.3-.2 74.3-4.8 3.25-.25q2.4-3.4 0-7.1l-2.9.15-74.65 4.8-3.3.2q-2.1 5.05 0 7.2m-.6-15.25l3.8 1.5 75-3.85 1.55-.05q1.25-3.6 1-7.55H101.1q-.45 5.75.9 9.95m0-16.5q-.65 3.3-.9 6.55h82.25q-.15-3-1-6.25l-31.9-.1-20.05-.1-28.4-.1z"/><path fill="#FFFFEC" d="M155.4 240.7H126l4.4 48.25 20.05.1 4.95-48.35m5.85-97.1q0-3.95-2.05-6.85-.6.3-1.1.75-3.95 3.1-3.95 7.9 0 2.15.6 3.95 1.1 2.65 2.9 2.65 1.9 0 2.85-3.35.75-2.3.75-5.05M123 145.65q0-2.4-1.35-4.8-1.9-3-4.8-3h-.1q-4 3.35-4 6.85 0 3.85.65 5.05.9 1.45 3.9 1.45 2.8 0 4.35-1.45 1.35-1.55 1.35-4.1m17.95-8.85q-.7-1-1.3-1.6-.1 0-.15.05-3.95 3.95-3.95 9.1 0 3.2.65 4.3.95 1.55 3.8 1.55 1 0 2.65-1.55 1.8-1.55 1.8-2.6 0-4.5-3.5-9.25m38.9 9q.15.35.35.95l-24.8 93.95-4.95 48.35 31.9.1.75-.45q10.9-5.9 15-34.2 4.2-28.65 21.6-48.6 17.5-20.15 17.5-59.25 0-39.05-27.6-66.65-26.85-26.85-64.45-27.7h-1.2l-4.05.1q-37.6.75-64.45 27.6-27.6 27.6-27.6 66.65 0 39.1 17.5 59.25 17.4 19.95 21.6 48.6 4.1 28.3 15.05 34.35l28.4.1-4.4-48.25-25.45-91.65L126 240.7h29.4l24.8-93.95q-.2-.6-.35-.95-3.85-7.95-3.95-8.05-2.4-3.25-7.9-3.25-5.2 0-8.8 2.25 2.05 2.9 2.05 6.85 0 2.75-.75 5.05-.95 3.35-2.85 3.35-1.8 0-2.9-2.65-.6-1.8-.6-3.95 0-4.8 3.95-7.9.5-.45 1.1-.75-.85-1.15-1.9-2.25-3.6-3.35-7.9-3.35-5.7 0-9.75 4.05.6.6 1.3 1.6 3.5 4.75 3.5 9.25 0 1.05-1.8 2.6-1.65 1.55-2.65 1.55-2.85 0-3.8-1.55-.65-1.1-.65-4.3 0-5.15 3.95-9.1.05-.05.15-.05-3.45-3.6-7.3-3.6-5.9 0-12.5 4.1-1.8 1.1-3.1 2.15h.1q2.9 0 4.8 3 1.35 2.4 1.35 4.8 0 2.55-1.35 4.1-1.55 1.45-4.35 1.45-3 0-3.9-1.45-.65-1.2-.65-5.05 0-3.5 4-6.85-1.35.1-4.8 1.2-2.75.85-4.95 1.8-2.3.85-4.2 3.75-2.05 3.35-2.9 4.45.85-1.1 2.9-4.45 1.9-2.9 4.2-3.75 2.2-.95 4.95-1.8 3.45-1.1 4.8-1.2 1.3-1.05 3.1-2.15 6.6-4.1 12.5-4.1 3.85 0 7.3 3.6 4.05-4.05 9.75-4.05 4.3 0 7.9 3.35 1.05 1.1 1.9 2.25 3.6-2.25 8.8-2.25 5.5 0 7.9 3.25.1.1 3.95 8.05z"/></g><path id="b" stroke="#414141" stroke-width="2" stroke-linejoin="round" stroke-linecap="round" fill="none" d="M182.35 289.15l-31.9-.1m32.65-.35q10.9-5.9 15-34.2 4.2-28.65 21.6-48.6 17.5-20.15 17.5-59.25 0-39.05-27.6-66.65-26.85-26.85-64.45-27.7h-1.2m-4.05.1q-37.6.75-64.45 27.6-27.6 27.6-27.6 66.65 0 39.1 17.5 59.25 17.4 19.95 21.6 48.6 4.1 28.3 15.05 34.35l28.4.1M143.95 52.3h-2.35q-.85 0-1.7.1M102 288.85q-.65 3.3-.9 6.55h82.25q-.15-3-1-6.25m-31.9-.1l-20.05-.1m-29.3 6.45q-.45 5.75.9 9.95l3.8 1.5 75-3.85 1.55-.05q1.25-3.6 1-7.55m-77.55 11.45q0 3.2.1 6.35m74.65-4.8q.05-2.65.25-5.4m-75 32.65l-.2 7.4m.3-22.65v8m.6 21.75l11.2 12.95 49.05-.75 13.2-15.35v-1.65M117.7 363.1q1.7 5.25 8.9 10.45 12.35 3.45 28.9 0l11.25-11.2m13.1-24.1q-.1-3.8 0-7.45m.1-7.3q.05-4.05.25-7.9"/><path id="c" stroke="#333" stroke-width="2" stroke-linejoin="round" stroke-linecap="round" fill="none" d="M180.2 146.75l-24.8 93.95-4.95 48.35m-20.05-.1L126 240.7l-25.45-91.65m54.85 91.65H126"/><path id="d" stroke="#414141" stroke-width="1" stroke-linejoin="round" stroke-linecap="round" fill="none" d="M105.9 313.2l74.65-4.8m-74.65 12l-3.3.2q-2.1-2.15 0-7.2l3.3-.2m.6 36.95l-4.55.25q-2.75-2.55 0-7.1l3.65-.25m.2-7.4l-3.7.3q-2.8-2.7 0-7.3l3.8-.25m0-8l74.3-4.8 3.25-.25q2.4-3.4 0-7.1l-2.9.15m-.6 36.95l-73.45 4.8m73.35-19.35l-74.05 4.85m74.05 2.6l3.1-.25q2.4 3.6 0 7.1l-3 .25m0-21.85l3.05-.25q2.5 3.7 0 7.3l-3.15.25m-73.95-2.4l74.05-4.9m-74.35 19.55l74.25-4.8"/><path id="e" stroke="#000" stroke-width="1" stroke-linejoin="round" stroke-linecap="round" fill="none" d="M99.9 149.05q.85-1.1 2.9-4.45 1.9-2.9 4.2-3.75 2.2-.95 4.95-1.8 3.45-1.1 4.8-1.2 1.3-1.05 3.1-2.15 6.6-4.1 12.5-4.1 3.85 0 7.3 3.6 4.05-4.05 9.75-4.05 4.3 0 7.9 3.35 1.05 1.1 1.9 2.25 3.6-2.25 8.8-2.25 5.5 0 7.9 3.25.1.1 3.95 8.05.15.35.35.95m-40.55-11.55q-.1 0-.15.05-3.95 3.95-3.95 9.1 0 3.2.65 4.3.95 1.55 3.8 1.55 1 0 2.65-1.55 1.8-1.55 1.8-2.6 0-4.5-3.5-9.25-.7-1-1.3-1.6zm-22.9 2.65q-4 3.35-4 6.85 0 3.85.65 5.05.9 1.45 3.9 1.45 2.8 0 4.35-1.45 1.35-1.55 1.35-4.1 0-2.4-1.35-4.8-1.9-3-4.8-3h-.1zm42.45-1.1q-.6.3-1.1.75-3.95 3.1-3.95 7.9 0 2.15.6 3.95 1.1 2.65 2.9 2.65 1.9 0 2.85-3.35.75-2.3.75-5.05 0-3.95-2.05-6.85z"/></defs><g><use xlink:href="#a"/><use xlink:href="#b"/><use xlink:href="#c"/><use xlink:href="#d"/><use xlink:href="#e"/></g></svg>