
<svg xmlns="http://www.w3.org/2000/svg" version="1.1" xmlns:xlink="http://www.w3.org/1999/xlink" preserveAspectRatio="none" x="0px" y="0px" width="285px" height="427px" viewBox="0 0 285 427">
<defs>
<g id="Layer0_0_FILL">
<path fill="#999999" stroke="none" d="
M 55.8 396.65
Q 60.85 404.95 80.5 411.15 106.35 419.65 143.6 419.65 180.85 419.65 206.7 411.15 227.2 404.6 231.8 395.9 227.5 397.2 222.35 398.6 189.5 407.1 142.65 407.1 95.65 407.1 63 398.6 57.1 397.1 55.8 396.65
M 129.5 55.35
L 110.75 41.65
Q 90.6 42.65 74.4 45.2 65.35 46.65 59.15 48.2 65.35 49.7 74.4 51.2 97.8 54.8 129.5 55.35
M 154.3 55.35
L 158.6 51.3 158.6 43.8 144.55 54.95
Q 144.55 55.2 144.55 55.45 149.5 55.4 154.3 55.35
M 110.75 41.65
L 92.7 28.45
Q 83 29.35 74.4 30.7 46.8 34.9 46.8 40.9 46.8 41.3 46.9 41.75 47.7 44.45 54.35 46.7 56.45 47.55 59.15 48.2 65.35 46.65 74.4 45.2 90.6 42.65 110.75 41.65
M 90.4 19.4
Q 89.75 19.85 89.5 20.6 88.65 22.85 91.35 27.45
L 92.7 28.45 110.75 41.65 129.5 55.35
Q 134.95 55.45 140.7 55.45 142.65 55.45 144.55 55.45 144.55 55.2 144.55 54.95 140.5 52.9 136.6 50.75 133.4 48.85 130.2 47 125.85 44.2 121.45 41.2 121.15 41 120.85 40.8 112.25 34.8 103.9 27.55 102.65 26.45 101.45 25.35 97.8 22.2 94.25 18.7 94.35 15 95.95 12.45
L 90.4 19.4
M 140.7 40.9
Q 140.05 40.9 139.4 40.9 136.4 44.35 130.2 47 133.4 48.85 136.6 50.75
L 148.4 42.95 146.05 40.95
Q 143.4 40.9 140.7 40.9
M 141.65 37.1
Q 140.95 39.1 139.4 40.9 140.05 40.9 140.7 40.9 143.4 40.9 146.05 40.95
L 141.65 37.1
M 132.45 32.2
Q 129.15 29.15 125.8 26.6 114.3 26.85 103.9 27.55 112.25 34.8 120.85 40.8 129.3 39.6 132.45 32.2
M 222.25 48.2
Q 216.15 46.55 207.1 45.2 184.55 41.7 154.45 41.05 156.55 42.5 158.6 43.8
L 158.6 51.3 154.3 55.35
Q 184.5 54.7 207.1 51.2 216.15 49.7 222.25 48.2
M 234.8 40
Q 232.75 34.65 207.1 30.7 179.55 26.4 140.7 26.4 138.3 26.4 136 26.45 144.65 34 152.95 40 153.7 40.55 154.45 41.05 184.55 41.7 207.1 45.2 216.15 46.55 222.25 48.2 224.95 47.55 226.95 46.7 233.85 44.45 234.8 41.95
L 234.8 40 Z"/>

<path fill="#C3C3C3" stroke="none" d="
M 152.95 40
L 148.4 42.95 136.6 50.75
Q 140.5 52.9 144.55 54.95
L 158.6 43.8
Q 156.55 42.5 154.45 41.05 153.7 40.55 152.95 40
M 125.8 26.6
Q 129.15 29.15 132.45 32.2 129.3 39.6 120.85 40.8 121.15 41 121.45 41.2 125.85 44.2 130.2 47 136.4 44.35 139.4 40.9 140.95 39.1 141.65 37.1
L 146.05 40.95 148.4 42.95 152.95 40
Q 144.65 34 136 26.45 127.15 18.75 117.95 9.55 100.45 5.05 95.95 12.45 94.35 15 94.25 18.7 97.8 22.2 101.45 25.35
L 111.7 18.25
Q 118.9 21.35 125.8 26.6
M 226.95 46.7
Q 224.95 47.55 222.25 48.2 216.15 49.7 207.1 51.2 184.5 54.7 154.3 55.35 149.5 55.4 144.55 55.45 142.65 55.45 140.7 55.45 134.95 55.45 129.5 55.35 97.8 54.8 74.4 51.2 65.35 49.7 59.15 48.2 56.45 47.55 54.35 46.7 47.7 44.45 46.9 41.75 42.65 48.7 47.15 54.1 47.55 54.7 48.2 55.15 52.95 59.55 74.4 62.85 92.55 65.65 115.6 66.55 127.6 67.05 140.7 67.05 154.95 67.05 167.65 66.5 189.65 65.55 207.1 62.85 220.85 60.65 227.2 58.8 233.85 57 235.95 54.5 238.55 51.4 238.45 48.7 238.35 45.6 234.8 41.95 233.85 44.45 226.95 46.7 Z"/>

<path fill="#DE1F1F" stroke="none" d="
M 255.4 87.25
Q 255.05 81.45 249.8 75.1 244.55 68.7 235.95 54.5 233.85 57 227.2 58.8 220.85 60.65 207.1 62.85 189.65 65.55 167.65 66.5 154.95 67.05 140.7 67.05 127.6 67.05 115.6 66.55 92.55 65.65 74.4 62.85 52.95 59.55 48.2 55.15 47.65 55.8 47.15 56.45
L 29.65 87.35 29.65 378.55
Q 30.05 388.95 55.8 396.65 57.1 397.1 63 398.6 95.65 407.1 142.65 407.1 189.5 407.1 222.35 398.6 227.5 397.2 231.8 395.9 255.4 388.3 255.4 378.3
L 255.4 87.25
M 190.4 184.1
Q 190.4 177.15 195.3 172 199.95 167.05 206.8 166.85 213.45 166.65 218.3 171.45 223 176.2 223 183.15 223 190 218.3 195.05 213.45 200.2 206.8 200.35 199.95 200.55 195.3 195.6 190.4 190.9 190.4 184.1
M 220.2 100
Q 251.95 94 252.2 85.6 251.95 94 220.2 100 188.65 106.1 142.85 106.1 96.9 106.1 65.5 100 33.4 94.1 33.2 85.6 33.4 94.1 65.5 100 96.9 106.1 142.85 106.1 188.65 106.1 220.2 100
M 45 111.5
Q 57.85 117.05 67.3 117.6
L 67.3 382.95
Q 55.5 381.75 45 375.2
L 45 111.5
M 223.95 227.25
Q 220.2 223.6 220.2 218.05 220.2 212.55 223.95 208.45 227.5 204.4 232.65 204.1 237.8 203.85 241.55 207.5 245.2 211.15 245.2 216.65 245.2 222.2 241.55 226.3 237.8 230.5 232.65 230.8 227.5 231.1 223.95 227.25
M 216.15 242.05
Q 221.7 242.05 225.65 245.9 229.55 249.8 229.55 255.35 229.55 260.85 225.65 264.7 221.7 268.75 216.15 268.75 210.65 268.75 206.8 264.7 202.85 260.85 202.85 255.35 202.85 249.8 206.8 245.9 210.65 242.05 216.15 242.05
M 192.75 209.2
Q 196.6 213.1 196.6 218.65 196.6 224.15 192.75 228 188.85 231.95 183.3 231.95 177.8 231.95 173.95 228 169.9 224.15 169.9 218.65 169.9 213.1 173.95 209.2 177.8 205.25 183.3 205.25 188.85 205.25 192.75 209.2
M 185.75 244.1
Q 187.6 242.25 190.35 242.25 193.05 242.25 195 244.1 197 246.05 197 248.8 197 251.6 195 253.45 193.05 255.35 190.35 255.35 187.6 255.35 185.75 253.45 183.75 251.6 183.75 248.8 183.75 246.05 185.75 244.1
M 185.25 265.25
Q 190.7 265.25 194.75 269.1 198.55 273.05 198.55 278.55 198.55 284.1 194.75 287.9 190.7 291.95 185.25 291.95 179.75 291.95 175.8 287.9 171.9 284.1 171.9 278.55 171.9 273.05 175.8 269.1 179.75 265.25 185.25 265.25
M 233.85 270.2
Q 235.75 268.35 238.25 268.35 240.8 268.35 242.5 270.2 244.35 272.2 244.35 274.9 244.35 277.7 242.5 279.5 240.8 281.45 238.25 281.45 235.75 281.45 233.85 279.5 232.2 277.7 232.2 274.9 232.2 272.2 233.85 270.2
M 225.8 295.3
Q 229.45 291.3 234.6 291 239.75 290.75 243.4 294.4 247 298.2 247 303.75 247 309.25 243.4 313.3 239.75 317.4 234.6 317.7 229.45 318 225.8 314.25 222.15 310.65 222.15 305.15 222.15 299.65 225.8 295.3
M 204.85 297.4
Q 207.55 297.4 209.5 299.25 211.4 301.2 211.4 303.95 211.4 306.75 209.5 308.5 207.55 310.5 204.85 310.5 202.15 310.5 200.25 308.5 198.3 306.75 198.3 303.95 198.3 301.2 200.25 299.25 202.15 297.4 204.85 297.4
M 206.35 323.2
Q 210.2 327.25 210.2 332.75 210.2 338.2 206.35 342.15 202.3 346.05 196.9 346.05 191.35 346.05 187.45 342.15 183.5 338.2 183.5 332.75 183.5 327.25 187.45 323.2 191.35 319.4 196.9 319.4 202.3 319.4 206.35 323.2
M 221.7 345.95
Q 218.8 343.25 218.8 339.25 218.8 335.2 221.7 332.2 224.4 329.2 228.25 329.05 232.3 328.85 235.1 331.55 237.8 334.25 237.8 338.3 237.8 342.3 235.1 345.3 232.3 348.3 228.25 348.5 224.4 348.7 221.7 345.95
M 199.6 367.9
Q 199.6 364.35 202.15 361.4 204.75 358.6 208.3 358.25 211.95 357.85 214.5 360.1 217.1 362.45 217.1 366 217.1 369.65 214.5 372.4 211.95 375.4 208.3 375.75 204.75 376.1 202.15 373.7 199.6 371.55 199.6 367.9
M 202.15 361.4
Q 199.6 364.35 199.6 367.9 199.6 371.55 202.15 373.7 204.75 376.1 208.3 375.75 211.95 375.4 214.5 372.4 217.1 369.65 217.1 366 217.1 362.45 214.5 360.1 211.95 357.85 208.3 358.25 204.75 358.6 202.15 361.4
M 218.8 339.25
Q 218.8 343.25 221.7 345.95 224.4 348.7 228.25 348.5 232.3 348.3 235.1 345.3 237.8 342.3 237.8 338.3 237.8 334.25 235.1 331.55 232.3 328.85 228.25 329.05 224.4 329.2 221.7 332.2 218.8 335.2 218.8 339.25
M 210.2 332.75
Q 210.2 327.25 206.35 323.2 202.3 319.4 196.9 319.4 191.35 319.4 187.45 323.2 183.5 327.25 183.5 332.75 183.5 338.2 187.45 342.15 191.35 346.05 196.9 346.05 202.3 346.05 206.35 342.15 210.2 338.2 210.2 332.75
M 209.5 299.25
Q 207.55 297.4 204.85 297.4 202.15 297.4 200.25 299.25 198.3 301.2 198.3 303.95 198.3 306.75 200.25 308.5 202.15 310.5 204.85 310.5 207.55 310.5 209.5 308.5 211.4 306.75 211.4 303.95 211.4 301.2 209.5 299.25
M 234.6 291
Q 229.45 291.3 225.8 295.3 222.15 299.65 222.15 305.15 222.15 310.65 225.8 314.25 229.45 318 234.6 317.7 239.75 317.4 243.4 313.3 247 309.25 247 303.75 247 298.2 243.4 294.4 239.75 290.75 234.6 291
M 238.25 268.35
Q 235.75 268.35 233.85 270.2 232.2 272.2 232.2 274.9 232.2 277.7 233.85 279.5 235.75 281.45 238.25 281.45 240.8 281.45 242.5 279.5 244.35 277.7 244.35 274.9 244.35 272.2 242.5 270.2 240.8 268.35 238.25 268.35
M 194.75 269.1
Q 190.7 265.25 185.25 265.25 179.75 265.25 175.8 269.1 171.9 273.05 171.9 278.55 171.9 284.1 175.8 287.9 179.75 291.95 185.25 291.95 190.7 291.95 194.75 287.9 198.55 284.1 198.55 278.55 198.55 273.05 194.75 269.1
M 190.35 242.25
Q 187.6 242.25 185.75 244.1 183.75 246.05 183.75 248.8 183.75 251.6 185.75 253.45 187.6 255.35 190.35 255.35 193.05 255.35 195 253.45 197 251.6 197 248.8 197 246.05 195 244.1 193.05 242.25 190.35 242.25
M 196.6 218.65
Q 196.6 213.1 192.75 209.2 188.85 205.25 183.3 205.25 177.8 205.25 173.95 209.2 169.9 213.1 169.9 218.65 169.9 224.15 173.95 228 177.8 231.95 183.3 231.95 188.85 231.95 192.75 228 196.6 224.15 196.6 218.65
M 225.65 245.9
Q 221.7 242.05 216.15 242.05 210.65 242.05 206.8 245.9 202.85 249.8 202.85 255.35 202.85 260.85 206.8 264.7 210.65 268.75 216.15 268.75 221.7 268.75 225.65 264.7 229.55 260.85 229.55 255.35 229.55 249.8 225.65 245.9
M 220.2 218.05
Q 220.2 223.6 223.95 227.25 227.5 231.1 232.65 230.8 237.8 230.5 241.55 226.3 245.2 222.2 245.2 216.65 245.2 211.15 241.55 207.5 237.8 203.85 232.65 204.1 227.5 204.4 223.95 208.45 220.2 212.55 220.2 218.05
M 195.3 172
Q 190.4 177.15 190.4 184.1 190.4 190.9 195.3 195.6 199.95 200.55 206.8 200.35 213.45 200.2 218.3 195.05 223 190 223 183.15 223 176.2 218.3 171.45 213.45 166.65 206.8 166.85 199.95 167.05 195.3 172 Z"/>

<path fill="#FFFFFF" stroke="none" d="
M 67.3 117.6
Q 57.85 117.05 45 111.5
L 45 375.2
Q 55.5 381.75 67.3 382.95
L 67.3 117.6 Z"/>
</g>

<path id="Layer0_0_1_STROKES" stroke="#000000" stroke-width="2" stroke-linejoin="round" stroke-linecap="round" fill="none" d="
M 235.95 54.5
Q 244.55 68.7 249.8 75.1 255.05 81.45 255.4 87.25
L 255.4 378.3
Q 255.4 388.3 231.8 395.9 227.2 404.6 206.7 411.15 180.85 419.65 143.6 419.65 106.35 419.65 80.5 411.15 60.85 404.95 55.8 396.65 30.05 388.95 29.65 378.55
L 29.65 87.35 47.15 56.45
Q 46.8 55.8 46.8 55.45 46.8 54.75 47.15 54.1 42.65 48.7 46.9 41.75 46.8 41.3 46.8 40.9 46.8 34.9 74.4 30.7 83 29.35 92.7 28.45
L 91.35 27.45
Q 88.65 22.85 89.5 20.6 89.75 19.85 90.4 19.4
L 95.95 12.45
Q 100.45 5.05 117.95 9.55 127.15 18.75 136 26.45 138.3 26.4 140.7 26.4 179.55 26.4 207.1 30.7 232.75 34.65 234.8 40
L 235 40.9 234.8 41.95
Q 238.35 45.6 238.45 48.7 238.55 51.4 235.95 54.5 233.85 57 227.2 58.8 220.85 60.65 207.1 62.85 189.65 65.55 167.65 66.5 154.95 67.05 140.7 67.05 127.6 67.05 115.6 66.55 92.55 65.65 74.4 62.85 52.95 59.55 48.2 55.15 47.65 55.8 47.15 56.45
M 234.8 41.95
Q 233.85 44.45 226.95 46.7 224.95 47.55 222.25 48.2 216.15 49.7 207.1 51.2 184.5 54.7 154.3 55.35 149.5 55.4 144.55 55.45 142.65 55.45 140.7 55.45 134.95 55.45 129.5 55.35 97.8 54.8 74.4 51.2 65.35 49.7 59.15 48.2 56.45 47.55 54.35 46.7 47.7 44.45 46.9 41.75
M 234.8 40
L 234.8 41.95
M 222.25 48.2
Q 216.15 46.55 207.1 45.2 184.55 41.7 154.45 41.05 156.55 42.5 158.6 43.8
L 158.6 51.3 154.3 55.35
M 125.8 26.6
Q 129.15 29.15 132.45 32.2 129.3 39.6 120.85 40.8 121.15 41 121.45 41.2 125.85 44.2 130.2 47 136.4 44.35 139.4 40.9 140.95 39.1 141.65 37.1
L 146.05 40.95 148.4 42.95 152.95 40
Q 144.65 34 136 26.45
M 146.05 40.95
Q 143.4 40.9 140.7 40.9 140.05 40.9 139.4 40.9
M 152.95 40
Q 153.7 40.55 154.45 41.05
M 95.95 12.45
Q 94.35 15 94.25 18.7 97.8 22.2 101.45 25.35
L 111.7 18.25
Q 118.9 21.35 125.8 26.6 114.3 26.85 103.9 27.55 112.25 34.8 120.85 40.8
M 101.45 25.35
Q 102.65 26.45 103.9 27.55
M 59.15 48.2
Q 65.35 46.65 74.4 45.2 90.6 42.65 110.75 41.65
L 92.7 28.45
M 148.4 42.95
L 136.6 50.75
Q 140.5 52.9 144.55 54.95
L 158.6 43.8
M 144.55 55.45
Q 144.55 55.2 144.55 54.95
M 130.2 47
Q 133.4 48.85 136.6 50.75
M 129.5 55.35
L 110.75 41.65
M 48.2 55.15
Q 47.55 54.7 47.15 54.1
M 45 111.5
L 45 375.2
Q 55.5 381.75 67.3 382.95
L 67.3 117.6
Q 57.85 117.05 45 111.5 Z
M 231.8 395.9
Q 227.5 397.2 222.35 398.6 189.5 407.1 142.65 407.1 95.65 407.1 63 398.6 57.1 397.1 55.8 396.65"/>

<path id="Layer0_0_2_STROKES" stroke="#921414" stroke-width="2" stroke-linejoin="round" stroke-linecap="round" fill="none" d="
M 33.2 85.6
Q 33.4 94.1 65.5 100 96.9 106.1 142.85 106.1 188.65 106.1 220.2 100 251.95 94 252.2 85.6"/>

<path id="Layer0_0_3_STROKES" stroke="#FFFFFF" stroke-width="1" stroke-linejoin="round" stroke-linecap="round" fill="none" d="
M 223 183.15
Q 223 176.2 218.3 171.45 213.45 166.65 206.8 166.85 199.95 167.05 195.3 172 190.4 177.15 190.4 184.1 190.4 190.9 195.3 195.6 199.95 200.55 206.8 200.35 213.45 200.2 218.3 195.05 223 190 223 183.15 Z
M 241.55 226.3
Q 245.2 222.2 245.2 216.65 245.2 211.15 241.55 207.5 237.8 203.85 232.65 204.1 227.5 204.4 223.95 208.45 220.2 212.55 220.2 218.05 220.2 223.6 223.95 227.25 227.5 231.1 232.65 230.8 237.8 230.5 241.55 226.3 Z
M 216.15 242.05
Q 210.65 242.05 206.8 245.9 202.85 249.8 202.85 255.35 202.85 260.85 206.8 264.7 210.65 268.75 216.15 268.75 221.7 268.75 225.65 264.7 229.55 260.85 229.55 255.35 229.55 249.8 225.65 245.9 221.7 242.05 216.15 242.05 Z
M 173.95 228
Q 177.8 231.95 183.3 231.95 188.85 231.95 192.75 228 196.6 224.15 196.6 218.65 196.6 213.1 192.75 209.2 188.85 205.25 183.3 205.25 177.8 205.25 173.95 209.2 169.9 213.1 169.9 218.65 169.9 224.15 173.95 228 Z
M 185.75 244.1
Q 183.75 246.05 183.75 248.8 183.75 251.6 185.75 253.45 187.6 255.35 190.35 255.35 193.05 255.35 195 253.45 197 251.6 197 248.8 197 246.05 195 244.1 193.05 242.25 190.35 242.25 187.6 242.25 185.75 244.1 Z
M 194.75 269.1
Q 190.7 265.25 185.25 265.25 179.75 265.25 175.8 269.1 171.9 273.05 171.9 278.55 171.9 284.1 175.8 287.9 179.75 291.95 185.25 291.95 190.7 291.95 194.75 287.9 198.55 284.1 198.55 278.55 198.55 273.05 194.75 269.1 Z
M 242.5 270.2
Q 240.8 268.35 238.25 268.35 235.75 268.35 233.85 270.2 232.2 272.2 232.2 274.9 232.2 277.7 233.85 279.5 235.75 281.45 238.25 281.45 240.8 281.45 242.5 279.5 244.35 277.7 244.35 274.9 244.35 272.2 242.5 270.2 Z
M 225.8 314.25
Q 229.45 318 234.6 317.7 239.75 317.4 243.4 313.3 247 309.25 247 303.75 247 298.2 243.4 294.4 239.75 290.75 234.6 291 229.45 291.3 225.8 295.3 222.15 299.65 222.15 305.15 222.15 310.65 225.8 314.25 Z
M 204.85 297.4
Q 202.15 297.4 200.25 299.25 198.3 301.2 198.3 303.95 198.3 306.75 200.25 308.5 202.15 310.5 204.85 310.5 207.55 310.5 209.5 308.5 211.4 306.75 211.4 303.95 211.4 301.2 209.5 299.25 207.55 297.4 204.85 297.4 Z
M 183.5 332.75
Q 183.5 338.2 187.45 342.15 191.35 346.05 196.9 346.05 202.3 346.05 206.35 342.15 210.2 338.2 210.2 332.75 210.2 327.25 206.35 323.2 202.3 319.4 196.9 319.4 191.35 319.4 187.45 323.2 183.5 327.25 183.5 332.75 Z
M 218.8 339.25
Q 218.8 343.25 221.7 345.95 224.4 348.7 228.25 348.5 232.3 348.3 235.1 345.3 237.8 342.3 237.8 338.3 237.8 334.25 235.1 331.55 232.3 328.85 228.25 329.05 224.4 329.2 221.7 332.2 218.8 335.2 218.8 339.25 Z
M 202.15 361.4
Q 199.6 364.35 199.6 367.9 199.6 371.55 202.15 373.7 204.75 376.1 208.3 375.75 211.95 375.4 214.5 372.4 217.1 369.65 217.1 366 217.1 362.45 214.5 360.1 211.95 357.85 208.3 358.25 204.75 358.6 202.15 361.4 Z"/>
</defs>

<g transform="matrix( 1, 0, 0, 1, 0,0) ">
<use xlink:href="#Layer0_0_FILL"/>

<use xlink:href="#Layer0_0_1_STROKES"/>

<use xlink:href="#Layer0_0_2_STROKES"/>

<use xlink:href="#Layer0_0_3_STROKES"/>
</g>
</svg>
