<svg xmlns="http://www.w3.org/2000/svg" viewBox="0 0 111.05 75.75"><path fill-rule="evenodd" d="M3.35 24.7q.85-2.6 2.15-4.9Q12 7.45 27.9 3.1l4.9-1.15 3.7-.55q13.15-.85 22.8 8.9 6.55 6.55 11.6 17.95 2.6 5.9 4.8 13.05-2.2-7.15-4.8-13.05-5.05-11.4-11.6-17.95Q49.65.55 36.5 1.4 54.15-.7 66.2 7.9q6.9 5 11.75 13.35 2.1 3.75 3.75 8.05 2.2 5.7 3.55 12.45-.2-.75-2.75-.95l-6.8.5-2 .5-2.2.55q-4.8 1.05-12.25 3.9l-12.95 4.8-1.7-6.35-1.9-5.95-.1-.25q-1.35-3.6-2.85-6.35l-3.25-5.2-2.9-3.7q-2.3-2.7-4.65-4.45-2.1-1.55-5-2.9-6.8-3.1-11.75-1.15-4.9 1.95-8.85 9.95" fill="#5b7c82"/><path fill-rule="evenodd" d="M3.35 24.7q3.95-8 8.85-9.95 4.95-1.95 11.75 1.15 2.9 1.35 5 2.9 2.35 1.75 4.65 4.45l2.9 3.7 3.25 5.2q1.5 2.75 2.85 6.35l.1.25 1.9 5.95 1.7 6.35-19.95 5.4Q7.7 58.4 2.45 54.75l-.15-.85q-.5-2.1-.95-6.35l-.3-4.85q-.3-6.25.65-11.55.55-3.4 1.65-6.45m-2.3 18q14.75 3.55 41.55-4.2-26.8 7.75-41.55 4.2" fill="#6b6c66"/><path fill-rule="evenodd" d="M46.3 51.05l12.95-4.8q7.45-2.85 12.25-3.9l2.2-.55 2-.5 6.8-.5q2.55.2 2.75.95l22.2 13.45q-1.75-.9-5-.4-3.1.5-6.85 2.2-2.5 1.15-6.8 3.8L81.05 66l-3.9 2.9-8.1 4.5q-6.2 3.15-17.2-1.05-11.7-4.45-25.5-15.9l19.95-5.4" fill="#745c5a"/><path fill-rule="evenodd" d="M107.45 55.2q1.25 1.05 1.85 2.4.55 1.2.75 2.8-1.25 2.75-5 1.9-3.8-.9-9.45-5.3 3.75-1.7 6.85-2.2 3.25-.5 5 .4" fill="#52534e"/><path stroke-linejoin="round" d="M36.5 1.4l-3.7.55-4.9 1.15Q12 7.45 5.5 19.8q-1.3 2.3-2.15 4.9 3.95-8 8.85-9.95 4.95-1.95 11.75 1.15 2.9 1.35 5 2.9 2.35 1.75 4.65 4.45l2.9 3.7 3.25 5.2q1.5 2.75 2.85 6.35l.1.25 1.9 5.95 1.7 6.35 12.95-4.8q7.45-2.85 12.25-3.9l2.2-.55 2-.5q-2.2-7.15-4.8-13.05-5.05-11.4-11.6-17.95Q49.65.55 36.5 1.4 54.15-.7 66.2 7.9q6.9 5 11.75 13.35 2.1 3.75 3.75 8.05 2.2 5.7 3.55 12.45l22.2 13.45q1.25 1.05 1.85 2.4.55 1.2.75 2.8-1.25 2.75-5 1.9-3.8-.9-9.45-5.3-2.5 1.15-6.8 3.8L81.05 66l-3.9 2.9-8.1 4.5q-6.2 3.15-17.2-1.05-11.7-4.45-25.5-15.9-18.65 1.95-23.9-1.7l-.15-.85q-.5-2.1-.95-6.35l-.3-4.85q-.3-6.25.65-11.55.55-3.4 1.65-6.45M36.5 1.4q-4.15.3-8.6 1.7m57.35 38.65q-.2-.75-2.75-.95l-6.8.5M95.6 57q3.75-1.7 6.85-2.2 3.25-.5 5 .4M46.3 51.05l-19.95 5.4M42.6 38.5q-26.8 7.75-41.55 4.2" stroke="#000" stroke-linecap="round" stroke-width="2" fill="none"/><path stroke-linejoin="round" d="M90.7 56.35l-5.1 2.9M101.95 53l-3.6.45L96 54M47.25 66.75l-5.15-2.9m16.5 7.4q-2.7-.5-5.8-1.75m17.6-.65L67 70.5l-2.35.8m-27.6-10.5l-4.85-3.25m48.4 4.9q-2.9 2-4.6 3.3" stroke="#000" stroke-linecap="round" fill="none"/></svg>