<?xml version="1.0" encoding="UTF-8" standalone="no"?>
<svg id="svg3695" xmlns:inkscape="http://www.inkscape.org/namespaces/inkscape" xmlns:rdf="http://www.w3.org/1999/02/22-rdf-syntax-ns#" xmlns="http://www.w3.org/2000/svg" sodipodi:docname="cap.svg" viewBox="0 0 111.05 75.75" version="1.1" xmlns:cc="http://creativecommons.org/ns#" xmlns:dc="http://purl.org/dc/elements/1.1/" inkscape:version="0.48.2 r9819" xmlns:sodipodi="http://sodipodi.sourceforge.net/DTD/sodipodi-0.dtd">
 <metadata id="metadata3715">
  <rdf:RDF>
   <cc:Work rdf:about="">
    <dc:format>image/svg+xml</dc:format>
    <dc:type rdf:resource="http://purl.org/dc/dcmitype/StillImage"/>
    <dc:title/>
   </cc:Work>
  </rdf:RDF>
 </metadata>
 <sodipodi:namedview id="namedview3711" bordercolor="#666666" inkscape:pageshadow="2" guidetolerance="10" pagecolor="#ffffff" gridtolerance="10" inkscape:window-maximized="0" inkscape:zoom="2.9716343" objecttolerance="10" borderopacity="1" inkscape:current-layer="svg3695" inkscape:cx="55.525002" inkscape:cy="37.875" inkscape:window-y="0" inkscape:window-x="0" inkscape:window-width="640" showgrid="false" inkscape:pageopacity="0" inkscape:window-height="480"/>
 <g id="g3697" transform="matrix(1.0, 0.0, 0.0, 1.0, -4.9, 43.15)">
  <path id="path3699" stroke="none" fill-rule="evenodd" d="M8.25-18.45q0.85-2.6,2.15-4.9,6.5-12.35,22.4-16.7l4.9-1.15,3.7-0.55q13.15-0.85,22.8,8.9,6.55,6.55,11.6,17.95,2.6,5.9,4.8,13.05-2.2-7.15-4.8-13.05-5.05-11.4-11.6-17.95-9.65-9.75-22.8-8.9,17.65-2.1,29.7,6.5,6.9,5,11.75,13.35,2.1,3.75,3.75,8.05,2.2,5.7,3.55,12.45-0.2-0.75-2.75-0.95l-6.8,0.5-2,0.5-2.2,0.55q-4.8,1.05-12.25,3.9l-12.95,4.8-1.7-6.35-1.9-5.95-0.1-0.25q-1.35-3.6-2.85-6.35l-3.25-5.2-2.9-3.7q-2.3-2.7-4.65-4.45-2.1-1.55-5-2.9-6.8-3.1-11.75-1.15-4.9,1.95-8.85,9.95" fill="#5b7c82"/>
  <path id="path3701" stroke="none" fill-rule="evenodd" d="M8.25-18.45q3.95-8,8.85-9.95,4.95-1.95,11.75,1.15,2.9,1.35,5,2.9,2.35,1.75,4.65,4.45l2.9,3.7,3.25,5.2q1.5,2.75,2.85,6.35l0.1,0.25,1.9,5.95,1.7,6.35-19.95,5.4q-18.65,1.95-23.9-1.7l-0.15-0.85q-0.5-2.1-0.95-6.35l-0.3-4.85q-0.3-6.25,0.65-11.55,0.55-3.4,1.65-6.45m-2.3,18q14.75,3.55,41.55-4.2-26.8,7.75-41.55,4.2" fill="#6b6c66"/>
  <path id="path3703" stroke="none" fill-rule="evenodd" d="M51.2,7.9l12.95-4.8q7.45-2.85,12.25-3.9l2.2-0.55,2-0.5,6.8-0.5q2.55,0.2,2.75,0.95l22.2,13.45q-1.75-0.9-5-0.4-3.1,0.5-6.85,2.2-2.5,1.15-6.8,3.8l-7.75,5.2-3.9,2.9-8.1,4.5q-6.2,3.15-17.2-1.05-11.7-4.45-25.5-15.9l19.95-5.4" fill="#745c5a"/>
  <path id="path3705" stroke="none" fill-rule="evenodd" d="M112.35,12.05q1.25,1.05,1.85,2.4,0.55,1.2,0.75,2.8-1.25,2.75-5,1.9-3.8-0.9-9.45-5.3,3.75-1.7,6.85-2.2,3.25-0.5,5,0.4" fill="#52534e"/>
  <path id="path3707" stroke-linejoin="round" d="M41.4-41.75l-3.7,0.55-4.9,1.15q-15.9,4.35-22.4,16.7-1.3,2.3-2.15,4.9,3.95-8,8.85-9.95,4.95-1.95,11.75,1.15,2.9,1.35,5,2.9,2.35,1.75,4.65,4.45l2.9,3.7,3.25,5.2q1.5,2.75,2.85,6.35l0.1,0.25,1.9,5.95,1.7,6.35,12.95-4.8q7.45-2.85,12.25-3.9l2.2-0.55,2-0.5q-2.2-7.15-4.8-13.05-5.05-11.4-11.6-17.95-9.65-9.75-22.8-8.9,17.65-2.1,29.7,6.5,6.9,5,11.75,13.35,2.1,3.75,3.75,8.05,2.2,5.7,3.55,12.45l22.2,13.45q1.25,1.05,1.85,2.4,0.55,1.2,0.75,2.8-1.25,2.75-5,1.9-3.8-0.9-9.45-5.3-2.5,1.15-6.8,3.8l-7.75,5.2-3.9,2.9-8.1,4.5q-6.2,3.15-17.2-1.05-11.7-4.45-25.5-15.9-18.65,1.95-23.9-1.7l-0.15-0.85q-0.5-2.1-0.95-6.35l-0.3-4.85q-0.3-6.25,0.65-11.55,0.55-3.4,1.65-6.45m33.15-23.3q-4.15,0.3-8.6,1.7m57.35,38.65q-0.2-0.75-2.75-0.95l-6.8,0.5m19.9,15.7q3.75-1.7,6.85-2.2,3.25-0.5,5,0.4m-61.15-4.15l-19.95,5.4m16.25-17.95q-26.8,7.75-41.55,4.2" stroke="#000000" stroke-linecap="round" stroke-width="2.0" fill="none"/>
  <path id="path3709" stroke-linejoin="round" d="M95.6,13.2l-5.1,2.9m16.35-6.25l-3.6,0.45-2.35,0.55m-48.75,12.75l-5.15-2.9m16.5,7.4q-2.7-0.5-5.8-1.75m17.6-0.65l-3.4,1.65-2.35,0.8m-27.6-10.5l-4.85-3.25m48.4,4.9q-2.9,2-4.6,3.3" stroke="#000000" stroke-linecap="round" stroke-width="1.0" fill="none"/>
 </g>
</svg>
