<svg xmlns="http://www.w3.org/2000/svg" width="900" height="450" viewBox="0 0 900 450"><path fill="#161616" d="M507.361 275.58v.115c-.384.771-.771 1.544-1.156 2.314a58.04 58.04 0 0 1 3.818-1.736 19.273 19.273 0 0 0-2.429-.924h-.115c-.002.121-.041.2-.118.231m224.706-34.481c-.079-.077-.115-.154-.115-.23-7.329 15.272-14.658 37.527-21.985 66.762l-18.397 4.629c1.078 9.799 3.161 18.397 6.249 25.804 4.318 9.873 9.486 14.965 15.503 15.272.619 0 1.274-.036 1.968-.115l26.149-.115c-4.475-.927-8.447-4.937-11.919-12.034a27.278 27.278 0 0 1-1.271-3.008c-4.55-11.418-6.827-25.687-6.827-42.813 0-7.792.425-15.08 1.274-21.869 1.233-8.409 3.085-16.16 5.553-23.257 1.235-3.472 2.505-6.479 3.818-9.026M140.802 348.245c.154 1.541.579 3.162 1.272 4.859l3.471-1.621c-1.928-.77-3.509-1.85-4.743-3.238m-3.703-19.555c-1.774-3.704-2.777-8.138-3.009-13.307-1.928 6.016-2.893 12.459-2.893 19.322 0 17.742 6.21 32.784 18.63 45.126 12.496 12.574 27.615 18.861 45.357 18.861 17.665 0 32.707-6.287 45.126-18.861 3.084-3.008 5.785-6.172 8.099-9.487a712.883 712.883 0 0 1-18.398-.927 6.5 6.5 0 0 1-1.042 1.042c-9.025 9.026-19.901 13.537-32.629 13.537-12.806 0-23.759-4.511-32.861-13.537a55.854 55.854 0 0 1-5.207-6.248c-2.777-.23-5.554-.5-8.331-.81-3.703-3.395-6.248-6.712-7.637-9.95a1.356 1.356 0 0 1-.231-.348c-.694-1.697-1.119-3.318-1.272-4.859-3.393-3.933-4.627-10.453-3.702-19.554m89.557-49.87a28.68 28.68 0 0 1-1.504-.695l-20.48-.346h-.347v.809h.347l21.984.232m246.69 90.947c-7.329.31-14.658.617-21.985.924 2.161 8.409 5.592 15.969 10.297 22.681 7.485 10.26 16.122 16.005 25.919 17.238 2.084.154 4.282.154 6.597 0h9.95v-2.544c-6.942-2.622-13.268-7.521-18.977-14.694-5.478-6.866-9.411-14.735-11.801-23.605z"/><path fill="#E2E2E2" d="M512.453 267.018c-.23.31-.499.657-.809 1.041a206.278 206.278 0 0 0-4.165 7.291h.115c1.544-3.011 3.162-5.786 4.859-8.332M685.32 290.97l5.671-44.201-98.121 21.984-17.587 3.935-.115 53.688 103.904-24.531 6.248-10.875m-406.711-47.209a53.622 53.622 0 0 0-4.975-1.62c-3.626-.925-7.637-1.388-12.034-1.388-4.088 0-7.791.386-11.107 1.156-2.16.464-4.126 1.078-5.901 1.852-4.782 2.16-7.173 4.666-7.173 7.521 0 3.008 2.391 5.515 7.173 7.521 2.777 1.233 5.863 2.16 9.256 2.777 2.469.31 5.053.463 7.752.463 1.774 0 3.51-.076 5.207-.232 4.396-.464 8.331-1.467 11.802-3.008 4.783-2.007 7.174-4.514 7.174-7.521 0-2.855-2.391-5.361-7.174-7.521m200.174 28.347c2.468-6.788 5.207-12.922 8.215-18.397l-28.349 3.471c-29.853 5.016-60.747 7.368-92.681 7.059l-99.162-2.43a56.88 56.88 0 0 1-5.207.232c-2.699 0-5.283-.153-7.752-.463l-74.978-1.851c-21.676-.077-35.291-3.318-40.845-9.721a79.2 79.2 0 0 0-5.438 18.281c20.365.926 40.691 1.775 60.978 2.547l8.1.23c1.002.079 2.006.115 3.008.115 11.958 1.39 54.769 2.045 128.436 1.968 73.744-.155 119.913-1.313 138.503-3.471-18.591 2.158-64.759 3.315-138.503 3.471-73.667.077-116.478-.578-128.436-1.968v6.597l20.48.346 39.804.463 56.233.579V311.564a2711.22 2711.22 0 0 1-66.763-1.272c-7.096-.23-14.232-.463-21.406-.693a881.807 881.807 0 0 0-14.347-.579c-4.783-.232-9.565-.463-14.348-.693v-.812l-11.455 6.249c4.474.308 15.157.963 32.05 1.966 1.389.154 2.854.271 4.398.349 2.544.076 5.283.23 8.214.463 5.708.23 12.149.463 19.324.693 17.201.464 38.607.732 64.217.81h.115a3515.32 3515.32 0 0 0 39.341-.461c7.482-.154 15.042-.349 22.679-.579 22.755-.695 46.244-1.776 70.467-3.24 3.238-.23 6.556-.464 9.95-.694-1.004 12.729-6.019 21.637-15.042 26.729-5.169 2.777-11.61 4.32-19.324 4.628a736.56 736.56 0 0 1-25.919 2.084c-8.099.461-16.199.886-24.298 1.272a1295.186 1295.186 0 0 1-121.146.115c-5.399-.23-10.799-.502-16.199-.81l-10.875-.695a1288.98 1288.98 0 0 1-61.672-5.438 350.659 350.659 0 0 1-9.026-1.042 207.52 207.52 0 0 0-6.942-.81c-1.079-.155-2.121-.31-3.123-.463a80.097 80.097 0 0 1-4.513-.578c-3.626-2.392-6.441-5.515-8.446-9.372-.925 9.101.309 15.62 3.703 19.555 1.234 1.388 2.815 2.468 4.744 3.238 2.237.156 4.435.387 6.596.694l10.875.927a1612.14 1612.14 0 0 0 63.292 4.628c3.858.23 7.752.425 11.687.578 5.477.308 10.992.579 16.546.81 61.557 2.468 126.43 2.237 194.62-.694 7.173-.31 14.425-.616 21.752-.924 2.934-.232 5.826-.425 8.678-.579 1.08-4.397 2.16-8.678 3.241-12.845 2.854-10.645 5.708-20.402 8.563-29.272a20.12 20.12 0 0 1 1.157-3.241 134.14 134.14 0 0 1 1.735-5.092l.23-.693c.233-.693.464-1.35.694-1.966.076-.233.153-.464.232-.694.077-.153.153-.348.23-.578 3.279-7.716 6.556-15.429 9.835-23.142.156-.464.387-.927.694-1.39l1.156-2.314v-.115c.077-.031.115-.11.118-.23a206.278 206.278 0 0 1 4.165-7.291c-6.096-7.945-14.271-12.728-24.531-14.348h-.115c-3.007 5.474-5.746 11.607-8.214 18.395-.23.541-.464 1.157-.694 1.852a108.4 108.4 0 0 1 0 0c.23-.694.464-1.311.694-1.852M612.655 41.851a3817.267 3817.267 0 0 0-92.911-2.777c-30.624-.54-61.558.155-92.798 2.083-31.241 1.851-52.878 4.358-64.913 7.521-10.953 2.854-21.29 7.29-31.009 13.306-.154 0-.27.039-.347.115a44.863 44.863 0 0 0-2.777 1.621c-29.466 24.916-56.272 50.14-80.417 75.672l-.23.232a289.4 289.4 0 0 0-4.628 4.975 523.304 523.304 0 0 0-18.861 20.827 143.622 143.622 0 0 1-3.008 3.588l-3.703 2.314-48.134 30.546c13.885-.54 19.207 4.628 15.967 15.505l-3.934 29.852c21.907-3.317 45.087-5.091 69.541-5.322 3.316-.771 7.02-1.156 11.107-1.156 4.397 0 8.408.463 12.034 1.388 31.164.847 64.141 4.011 98.93 9.489 21.136-35.099 55.153-49.833 102.055-44.202l53.341-35.521c-28.62.154-55.812.192-81.574.115l-1.272 1.272a705.059 705.059 0 0 0-11.108-1.272c-71.43-.154-131.636-.887-180.619-2.199-8.872-.309-17.433-.579-25.688-.809a738.09 738.09 0 0 1 21.059-23.374 73.162 73.162 0 0 1 2.429-2.545c24.454-25.841 51.876-51.297 82.269-76.367 74.591-7.251 151.036-7.406 229.331-.463 7.328-14.579 23.952-22.717 49.868-24.414M462.354 174.683c-15.352 5.863-30.2 13.846-44.549 23.952 14.348-10.106 29.197-18.089 44.549-23.952m-217.532-.81c-11.879 6.172-21.368 12.998-28.464 20.48 7.097-7.482 16.585-14.309 28.464-20.48m331.849 4.281l-14.464 4.281 9.721 31.704 2.429 49.061 16.314-3.355 100.551-21.639-2.66-51.952-3.126.116-20.479 7.404-.812-7.404 4.977-1.621c-1.234-4.165-.115-7.367 3.355-9.604 3.472-.385 5.36 1.813 5.67 6.596l5.438-1.852 1.157-.115v.115l3.471-.115-.23-4.281-12.033-25.224-.579-1.273-7.754 1.967-40.265 12.034v.462c-.31 3.009-2.084 5.285-5.322 6.827l-30.432 3.471-14.927 4.397m64.45-121.376l11.453.694c9.953 1.542 18.631 4.126 26.034 7.752 14.194 5.477 24.493 14.309 30.896 26.497 9.566 14.271 16.353 28.233 20.364 41.886l-46.746 13.191-7.173 3.471 12.033 25.224.23 4.281.349 6.479 2.66 51.952 14.812-3.009 10.877-2.313c.384-1.467.771-2.854 1.156-4.165 3.239-11.571 6.71-20.75 10.414-27.539 7.637-14.425 16.082-18.012 25.338-10.76 3.395 5.09 6.249 10.144 8.563 15.157l.578-.232-1.966-15.735c-1.08-13.037-3.126-26.073-6.134-39.109-25.996-54.692-46.782-86.434-62.366-95.229-19.361-8.64-45.974-13.113-79.839-13.421-25.916 1.697-42.54 9.835-49.869 24.414l-34.827 105.642-53.341 35.521c2.391 17.896-2.932 34.481-15.969 49.754l28.349-3.471 10.067-15.157c.153-.23.308-.384.461-.463 6.172-7.329 13.153-12.767 20.945-16.315 4.552-2.16 9.372-3.625 14.463-4.396 9.95 1.697 18.127 6.942 24.529 15.737.23.461.502.925.81 1.388 6.095 9.257 10.336 22.1 12.728 38.531v.115-.115c-2.392-16.432-6.633-29.274-12.728-38.531a13.152 13.152 0 0 1-.81-1.388c-6.402-8.794-14.579-14.04-24.529-15.737-5.091.772-9.911 2.236-14.463 4.396-7.792 3.548-14.773 8.986-20.945 16.315-.153.079-.308.232-.461.463l-10.067 15.157h.115c10.26 1.62 18.436 6.402 24.531 14.348.31-.384.578-.731.809-1.041 5.015-5.477 10.027-10.954 15.042-16.43a43.352 43.352 0 0 1 2.547-1.505 34.723 34.723 0 0 1 4.396-1.736 56.46 56.46 0 0 1 3.472-.578c15.735 2.624 23.989 18.552 24.762 47.788 2.314 3.548 4.321 7.441 6.016 11.686 3.858 9.721 6.21 21.253 7.061 34.598l115.822-28.581 18.397-4.629c7.327-29.234 14.656-51.489 21.985-66.762 7.173-14.812 14.31-22.988 21.405-24.531 6.633 1.466 11.494 6.287 14.579 14.464h1.965v-.463c-1.234-8.254-3.74-16.509-7.521-24.762-2.314-5.014-5.169-10.067-8.563-15.157-9.256-7.252-17.701-3.665-25.338 10.76-3.704 6.788-7.175 15.968-10.414 27.539a142.596 142.596 0 0 0-1.156 4.165l-1.391 8.447-15.272 3.472-9.256 1.966-5.671 44.201-6.248 10.875 20.018-4.628-20.018 4.628-103.904 24.531.115-53.688-.927-9.487-2.429-49.061-9.721-31.704-12.033 2.429 12.148-51.142 10.993-46.052c4.09-15.582 13.73-25.069 28.927-28.464l38.881-2.428M566.373 223.28c.542 1.235.811 2.469.811 3.703 0 1.233-.269 2.585-.811 4.049l-5.322 1.736c-1.311-.773-2.082-3.164-2.314-7.173l7.636-2.315z"/><path d="M534.438 247.347a34.723 34.723 0 0 0-4.396 1.736c-.85.463-1.699.965-2.547 1.505-5.015 5.476-10.027 10.953-15.042 16.43-1.697 2.547-3.315 5.321-4.858 8.332.771.23 1.579.538 2.429.924a46.583 46.583 0 0 1 11.341-2.544c14.115-1.157 26.149 4.472 36.1 16.893a66.939 66.939 0 0 1 9.487 16.43c.619-.23 1.197-.502 1.735-.81-1.694-4.244-3.701-8.138-6.016-11.686-.772-29.236-9.026-45.164-24.762-47.788a55.802 55.802 0 0 0-3.471.578m233.729-16.545h-.23c.153.538.31 1.04.463 1.503a73.332 73.332 0 0 1-.233-1.503m-36.1 10.297c3.78-7.25 8.138-11.338 13.073-12.265 6.559-1.157 12.149 3.935 16.777 15.274 1.544 3.778 2.856 7.867 3.935 12.265 1.928-5.322 2.893-11.148 2.893-17.472a62.03 62.03 0 0 0-.346-6.597 37.3 37.3 0 0 1-.463-1.503c-3.085-8.177-7.946-12.999-14.579-14.464-7.096 1.542-14.232 9.719-21.405 24.531 0 .076.036.153.115.231M142.074 353.104c.077.153.155.271.231.348l3.24-1.969-3.471 1.621z"/><path fill="#333" d="M700.247 244.803l15.272-3.472 1.391-8.447-10.877 2.313-14.812 3.009-100.551 21.639-16.314 3.355.927 9.487 17.587-3.935 98.121-21.984 9.256-1.965m-490.484-88.865v8.331c.309 3.009 2.083 5.285 5.322 6.828l1.968.231 3.703-2.314a148.081 148.081 0 0 0 3.008-3.588 523.304 523.304 0 0 1 18.861-20.827c-8.64-.309-18.013-.193-28.118.347-2.315 3.394-3.895 7.059-4.744 10.992m372.578 1.736h-16.547c-1.464 3.703-1.618 8.254-.461 13.654l8.561-1.736 9.026-1.852-.579-10.066m6.712-13.537c-3.625 2.776-5.862 7.29-6.712 13.537l.579 10.066c.153.309.348.617.578.926 2.314 3.395 4.899 5.091 7.752 5.091h.348l30.432-3.471c3.238-1.542 5.013-3.818 5.322-6.827v-8.33c-.848-3.935-2.43-7.599-4.743-10.992-12.421-.695-23.605-.695-33.556 0z"/><path fill="#262626" d="M745.141 228.834c-4.936.927-9.293 5.015-13.073 12.265-1.313 2.547-2.583 5.555-3.819 9.025-2.468 7.097-4.319 14.848-5.553 23.257-.85 6.789-1.274 14.077-1.274 21.869 0 17.126 2.277 31.395 6.827 42.813.386 1.08.811 2.083 1.271 3.008 3.472 7.098 7.444 11.107 11.919 12.034 1.157.307 2.392.307 3.702 0 6.559-1.157 12.149-8.177 16.777-21.059 4.705-13.114 7.061-28.232 7.061-45.358 0-11.415-1.042-21.521-3.126-30.314-1.078-4.397-2.391-8.486-3.935-12.265-4.628-11.34-10.219-16.432-16.777-15.275m14.232 25.109c1.081 3.085 1.967 6.4 2.662 9.951 1.388 6.942 2.082 14.962 2.082 24.065 0 13.654-1.58 25.727-4.744 36.217-3.163 10.337-7.019 15.969-11.57 16.894-4.475.926-8.294-3.123-11.455-12.149a31.203 31.203 0 0 1-.81-2.545c-2.624-8.64-3.935-19.207-3.935-31.704 0-5.785.308-11.3.927-16.547.771-7.02 2.043-13.499 3.817-19.438.31-1.157.657-2.237 1.041-3.241 3.008-8.33 6.479-12.92 10.414-13.77 4.552-.923 8.408 3.165 11.571 12.267m-7.751 54.151v26.612c3.085-5.168 5.013-9.988 5.785-14.463l-5.785-12.149m-6.018-.231l-6.942 18.513c2.084 6.249 4.629 10.145 7.637 11.687l-.695-30.2m15.736-20.482l-8.794 8.218 6.942 15.62c1.775-7.946 2.394-15.892 1.852-23.838m-.579-12.031c-.307-7.562-1.618-14.118-3.932-19.67l-5.324 27.073 9.256-7.403m-25.108 1.503l7.291 6.363-3.241-25.34c-2.007 5.171-3.355 11.494-4.05 18.977m6.249 19.903l-7.406-6.712c-.153 8.793.308 17.125 1.388 24.992l6.018-18.28m4.396 1.617c-.154.543-.23 1.157-.23 1.854 0 .694.076 1.311.23 1.851.232.617.501.925.812.925.31 0 .578-.308.809-.925.232-.54.348-1.156.348-1.851 0-.696-.115-1.311-.348-1.854-.23-.537-.499-.809-.809-.809-.311 0-.58.272-.812.809m-2.315-5.206c.233-.538.349-1.157.349-1.852 0-.771-.115-1.426-.349-1.966-.23-.463-.502-.693-.809-.693-.308 0-.579.23-.81.693-.153.54-.232 1.195-.232 1.966a6.8 6.8 0 0 0 .232 1.852c.23.542.502.811.81.811.307 0 .579-.269.809-.811m6.943-2.775c-.153-.542-.384-.812-.693-.812-.387 0-.655.27-.81.812-.232.538-.348 1.157-.348 1.851s.115 1.311.348 1.851c.154.541.423.81.81.81.31 0 .54-.269.693-.81.232-.54.348-1.156.348-1.851-.001-.694-.116-1.313-.348-1.851m-4.628-4.283c.232.54.501.811.812.811.31 0 .578-.271.809-.811.232-.464.348-1.078.348-1.852 0-.693-.115-1.311-.348-1.851-.23-.54-.499-.812-.809-.812-.311 0-.579.271-.812.812-.154.54-.23 1.157-.23 1.851-.001.774.076 1.389.23 1.852m5.902-38.993c-3.394-2.547-6.327-1.543-8.795 3.008l4.167 27.076 4.628-30.084M171.58 365.368c6.711 6.633 14.811 9.951 24.299 9.951 7.714 0 14.579-2.197 20.596-6.595a2644.653 2644.653 0 0 1-44.895-3.356m323.633-61.555c-.23.616-.461 1.272-.694 1.966l-.23.693c.153-.23.269-.461.346-.693l.696-.925c7.713-10.567 16.97-16.353 27.77-17.355h.925c10.646-.619 19.826 3.932 27.539 13.652a55.32 55.32 0 0 1 5.9 9.835c3.855 8.022 5.785 17.355 5.785 28.002 0 15.042-3.896 28.231-11.686 39.571-7.869 11.341-17.356 17.433-28.464 18.283a20.446 20.446 0 0 1-3.704.115c-9.565-.233-17.819-4.861-24.762-13.886-7.866-9.95-11.801-22.447-11.801-37.489v-1.505a1017.52 1017.52 0 0 0-3.241 12.845l-1.503 12.495a90.2 90.2 0 0 0-4.743.349c2.391 8.87 6.323 16.739 11.801 23.604 5.709 7.173 12.034 12.072 18.977 14.694 4.012 1.62 8.215 2.508 12.613 2.662.076-.077.191-.077.346 0 1.39 0 2.815-.041 4.282-.118 14.115-1.233 26.149-8.946 36.1-23.142 10.029-14.038 15.042-30.509 15.042-49.405 0-11.494-1.851-21.831-5.555-31.011a67.021 67.021 0 0 0-9.487-16.43c-9.95-12.421-21.984-18.05-36.1-16.893a46.583 46.583 0 0 0-11.341 2.544 57.803 57.803 0 0 0-3.818 1.736 5.916 5.916 0 0 0-.694 1.39c-3.279 7.713-6.556 15.426-9.835 23.142-.077.23-.153.425-.23.578-.081.233-.158.463-.234.696m-2.66 7.751a20.025 20.025 0 0 0-1.157 3.241l21.406 12.265-5.556-30.314c-5.475 4.009-10.375 8.946-14.693 14.808m44.314 38.647l13.885 24.299c5.015-8.793 8.022-17.935 9.026-27.422l-22.911 3.123m-27.422 41.076l5.438-31.819-21.637 16.314c3.935 7.329 9.334 12.497 16.199 15.505m32.862-6.827l-15.505-23.487-4.629 32.744c7.559-.617 14.269-3.701 20.134-9.257M529 345.931c-.693.615-1.041 1.312-1.041 2.082s.348 1.467 1.041 2.083c.617.617 1.312.925 2.082.925.772 0 1.467-.308 2.083-.925.54-.616.81-1.313.81-2.083s-.27-1.467-.81-2.082c-.616-.542-1.311-.811-2.083-.811-.77 0-1.465.269-2.082.811m-13.306 6.016c-.54.616-.812 1.272-.812 1.966 0 .696.271 1.311.812 1.854.54.537 1.157.809 1.851.809.773 0 1.388-.271 1.851-.809.54-.543.812-1.157.812-1.854 0-.693-.271-1.35-.812-1.966-.463-.54-1.077-.81-1.851-.81-.693.001-1.311.27-1.851.81m-4.744-13.769c.694.693 1.427 1.041 2.197 1.041.927 0 1.699-.348 2.313-1.041.543-.617.812-1.35.812-2.199 0-.771-.269-1.465-.812-2.081-.614-.617-1.387-.927-2.313-.927-.771 0-1.503.31-2.197.927-.542.616-.812 1.311-.812 2.081.001.849.27 1.582.812 2.199m18.165-10.645c-.616-.54-1.311-.812-2.083-.812-.771 0-1.426.271-1.966.812-.541.54-.81 1.195-.81 1.966s.269 1.467.81 2.084c.54.54 1.195.809 1.966.809.772 0 1.467-.269 2.083-.809.541-.617.81-1.313.81-2.084s-.269-1.426-.81-1.966m30.548 1.62c-.848-8.409-3.74-16.163-8.679-23.259l-13.77 27.77 22.449-4.511m-19.903-34.829c-6.323-3.162-12.688-4.357-19.092-3.587l5.785 31.474 13.307-27.887m-53.572 38.762c-1.467 8.949-1.08 18.129 1.157 27.539l21.173-16.084-22.33-11.455z"/><path fill="#5B5B5B" d="M762.035 263.895c-.695-3.551-1.581-6.866-2.662-9.951-3.163-9.103-7.019-13.19-11.57-12.267-3.935.85-7.406 5.439-10.414 13.77a32.943 32.943 0 0 0-1.041 3.241c-1.774 5.938-3.047 12.418-3.817 19.438-.619 5.247-.927 10.762-.927 16.547 0 12.497 1.311 23.064 3.935 31.704.23.848.499 1.697.81 2.545 3.161 9.026 6.98 13.075 11.455 12.149 4.552-.925 8.407-6.557 11.57-16.894 3.164-10.49 4.744-22.563 4.744-36.217-.001-9.104-.695-17.123-2.083-24.065m-18.63-13.771c2.468-4.551 5.401-5.555 8.795-3.008l-4.628 30.084-4.167-27.076m3.704 36.796c-.311 0-.579-.271-.812-.811-.154-.464-.23-1.078-.23-1.852 0-.693.076-1.311.23-1.851.232-.54.501-.812.812-.812.31 0 .578.271.809.812.232.54.348 1.157.348 1.851 0 .773-.115 1.388-.348 1.852-.23.54-.499.811-.809.811m3.123 2.66c.31 0 .54.27.693.812.232.538.348 1.157.348 1.851s-.115 1.311-.348 1.851c-.153.541-.384.81-.693.81-.387 0-.655-.269-.81-.81-.232-.54-.348-1.156-.348-1.851 0-.693.115-1.313.348-1.851.155-.542.424-.812.81-.812m-5.9 1.735c0 .694-.115 1.313-.349 1.852-.23.542-.502.811-.809.811-.308 0-.579-.269-.81-.811-.153-.538-.232-1.157-.232-1.852 0-.771.079-1.426.232-1.966.23-.463.502-.693.81-.693.307 0 .578.23.809.693.234.541.349 1.196.349 1.966m1.735 8.912c0-.696.076-1.311.23-1.854.232-.537.501-.809.812-.809.31 0 .578.271.809.809.232.543.348 1.157.348 1.854 0 .694-.115 1.311-.348 1.851-.23.617-.499.925-.809.925-.311 0-.579-.308-.812-.925-.153-.541-.23-1.157-.23-1.851m-11.571-10.183l7.406 6.712-6.019 18.28c-1.079-7.867-1.54-16.199-1.387-24.992m8.448-6.828l-7.291-6.363c.694-7.482 2.043-13.806 4.05-18.977l3.241 25.34m13.885-27.536c2.313 5.552 3.625 12.108 3.932 19.67l-9.256 7.403 5.324-27.073m-4.283 39.919l8.794-8.218c.542 7.946-.077 15.893-1.852 23.838l-6.942-15.62m-13.885 30.777l6.942-18.513.694 30.199c-3.007-1.541-5.552-5.437-7.636-11.686m12.961 8.33v-26.612l5.785 12.149c-.772 4.475-2.7 9.295-5.785 14.463m-593.349 29.506a55.854 55.854 0 0 0 5.207 6.248c9.102 9.026 20.056 13.537 32.861 13.537 12.728 0 23.604-4.511 32.629-13.537a6.583 6.583 0 0 0 1.042-1.042c-4.551-.23-9.063-.463-13.538-.693-6.017 4.397-12.882 6.595-20.596 6.595-9.488 0-17.588-3.318-24.299-9.951-4.473-.387-8.909-.771-13.306-1.157m336.015-57.739a134.14 134.14 0 0 0-1.735 5.092c4.318-5.862 9.218-10.8 14.693-14.809l5.556 30.314-21.406-12.265c-2.854 8.87-5.708 18.628-8.563 29.272v1.505c0 15.042 3.935 27.539 11.801 37.489 6.942 9.024 15.196 13.652 24.762 13.886 1.157.076 2.394.038 3.704-.115 11.107-.851 20.595-6.942 28.464-18.283 7.79-11.34 11.686-24.529 11.686-39.571 0-10.646-1.93-19.979-5.785-28.002a55.32 55.32 0 0 0-5.9-9.835c-7.713-9.721-16.893-14.271-27.539-13.652h-.925c-10.8 1.003-20.057 6.788-27.77 17.355l-.696.925a2.962 2.962 0 0 1-.347.694m-6.942 54.152c-2.237-9.41-2.624-18.59-1.157-27.539l22.33 11.455-21.173 16.084m33.322-69.888c6.404-.771 12.769.425 19.092 3.587l-13.307 27.887-5.785-31.474m30.316 15.158c4.938 7.096 7.831 14.85 8.679 23.259l-22.448 4.511 13.769-27.77m-23.952 20.827c.772 0 1.467.271 2.083.812.541.54.81 1.195.81 1.966s-.269 1.467-.81 2.084c-.616.54-1.311.809-2.083.809a2.675 2.675 0 0 1-1.966-.809c-.541-.617-.81-1.313-.81-2.084s.269-1.426.81-1.966a2.676 2.676 0 0 1 1.966-.812m-13.885 12.497c-.771 0-1.503-.348-2.197-1.041-.542-.617-.812-1.35-.812-2.199 0-.771.27-1.465.812-2.081.694-.617 1.427-.927 2.197-.927.927 0 1.699.31 2.313.927.543.616.812 1.311.812 2.081 0 .85-.269 1.582-.812 2.199-.613.693-1.386 1.041-2.313 1.041m1.736 14.694c0-.693.271-1.35.812-1.966.54-.54 1.157-.81 1.851-.81.773 0 1.388.27 1.851.81.54.616.812 1.272.812 1.966 0 .696-.271 1.311-.812 1.854-.463.537-1.077.809-1.851.809-.693 0-1.311-.271-1.851-.809-.541-.543-.812-1.158-.812-1.854m13.076-5.9c0-.771.348-1.467 1.041-2.082.617-.542 1.312-.811 2.082-.811.772 0 1.467.269 2.083.811.54.615.81 1.312.81 2.082s-.27 1.467-.81 2.083c-.616.617-1.311.925-2.083.925-.771 0-1.465-.308-2.082-.925-.693-.617-1.041-1.313-1.041-2.083m-1.157 12.96l15.505 23.487c-5.864 5.556-12.574 8.64-20.134 9.257l4.629-32.744m-11.919-1.505l-5.438 31.819c-6.865-3.008-12.265-8.176-16.199-15.505l21.637-16.314m35.869 15.042l-13.885-24.299 22.911-3.123c-1.004 9.487-4.011 18.629-9.026 27.422z"/><path fill="#323232" d="M134.09 315.384c.232 5.169 1.235 9.603 3.009 13.307 2.005 3.857 4.82 6.98 8.446 9.372 1.466.23 2.97.425 4.513.578 1.002.153 2.044.308 3.123.463l5.555-29.505a1981.152 1981.152 0 0 0-21.175-3.008c-1.079-.154-2.121-.31-3.123-.464-.386 3.239-.501 6.326-.348 9.257m336.824 42.118c-7.327.308-14.579.614-21.752.924-68.19 2.932-133.063 3.162-194.62.694-5.554-.23-11.069-.502-16.546-.81a565.488 565.488 0 0 1-11.687-.578 1611.998 1611.998 0 0 1-63.292-4.628l-10.875-.927a92.116 92.116 0 0 0-6.596-.694l-3.24 1.969c1.389 3.238 3.934 6.556 7.637 9.95 2.777.31 5.554.579 8.331.81 4.396.386 8.833.771 13.306 1.156a2645.425 2645.425 0 0 0 44.895 3.356c4.475.23 8.986.463 13.538.693 6.094.387 12.227.694 18.398.927 65.645 3.008 133.294 3.123 202.951.346 7.327-.307 14.656-.614 21.985-.924a91.29 91.29 0 0 1 4.743-.349l1.503-12.495c-2.853.155-5.745.348-8.679.58m-7.288-44.433c-3.395.23-6.712.464-9.95.694-24.223 1.464-47.712 2.545-70.467 3.24 5.554 9.872 12.265 19.707 20.132 29.506a736.56 736.56 0 0 0 25.919-2.084c7.713-.308 14.155-1.851 19.324-4.628 9.023-5.091 14.038-13.999 15.042-26.728m-103.096 4.514c-13.422.23-26.536.384-39.341.461h-.115c-25.61-.077-47.016-.346-64.217-.81-7.174-.23-13.615-.463-19.324-.693-2.931-.232-5.67-.387-8.214-.463a72.047 72.047 0 0 1-4.398-.349c-16.893-1.003-27.577-1.658-32.05-1.966a9274.156 9274.156 0 0 1-18.861-2.199c-2.314 10.027-3.934 19.826-4.859 29.391a1290.276 1290.276 0 0 0 61.672 5.438l10.875.695c5.4.308 10.8.579 16.199.81a1295.186 1295.186 0 0 0 121.146-.115c-5.168-10.105-11.339-20.173-18.513-30.2z"/><path fill="#ADADAD" d="M174.009 311.564c-1.08-.153-2.198-.31-3.355-.463-3.626-.461-7.367-.925-11.224-1.388-.231 0-.463-.038-.694-.115l-5.555 29.505c2.314.23 4.628.5 6.942.81 3.009.387 6.017.734 9.026 1.042.927-9.564 2.546-19.363 4.86-29.391m209.2 5.44c-7.637.23-15.197.425-22.679.579 7.174 10.027 13.345 20.095 18.513 30.199 8.1-.387 16.199-.812 24.298-1.272-7.867-9.799-14.578-19.634-20.132-29.506z"/><path fill="#D2D2D2" d="M204.671 271.183c-1.002 0-2.005-.036-3.008-.115l-8.1-.23a8189.471 8189.471 0 0 1-60.978-2.547c-.077 12.728.54 25.34 1.852 37.837 1.002.154 2.044.31 3.123.464a1977.535 1977.535 0 0 1 21.175 3.008c.231.077.462.115.694.115 3.857.463 7.598.927 11.224 1.388 1.157.153 2.275.31 3.355.463 6.557.771 12.844 1.505 18.861 2.199l11.455-6.249V277.78h.347v-6.597z"/><path fill="#F5FDFE" d="M184.886 217.379c3.24-10.877-2.082-16.045-15.967-15.505-16.122 12.188-26.42 28.232-30.894 48.135 5.554 6.402 19.168 9.644 40.845 9.721l2.083-12.498 3.933-29.853m273.763 39.803c13.037-15.272 18.359-31.857 15.969-49.754-46.901-5.63-80.918 9.103-102.055 44.202-2.391 3.932-4.59 8.136-6.595 12.61 31.935.31 62.829-2.043 92.681-7.058z"/><path fill="#8A8A8A" d="M244.591 243.761c1.775-.773 3.741-1.388 5.901-1.852-24.453.231-47.633 2.005-69.541 5.322l-2.083 12.498 74.978 1.851c-3.393-.617-6.479-1.544-9.256-2.777-4.782-2.007-7.173-4.514-7.173-7.521 0-2.855 2.392-5.361 7.174-7.521m121.377 20.479c2.005-4.475 4.205-8.679 6.595-12.61-34.789-5.479-67.766-8.643-98.93-9.489a53.622 53.622 0 0 1 4.975 1.62c4.783 2.16 7.174 4.666 7.174 7.521 0 3.008-2.391 5.515-7.174 7.521-3.471 1.541-7.406 2.544-11.802 3.008l99.162 2.429z"/><path fill="#888" d="M321.189 311.564v-31.587l-56.233-.578-38.3-.579-21.984-.232h-.347V308.327c4.783.23 9.565.461 14.348.693 4.782.154 9.565.347 14.347.579 7.174.23 14.31.463 21.406.693a2711.22 2711.22 0 0 0 66.763 1.272z"/><path fill="#1D1D1D" d="M337.042 165.773a289.128 289.128 0 0 0-16.663 1.852l3.241 2.314c35.174-2.469 71.969-1.774 110.384 2.083 3.626.385 7.329.81 11.108 1.272l1.272-1.272 1.157-1.042a468.626 468.626 0 0 0-34.712-4.859c-26.149-2.545-51.412-2.662-75.787-.348m-102.865-.809l-.23 2.198c24.607-.926 49.06.038 73.358 2.893l.117-2.314a267.38 267.38 0 0 0-14.464-2.314c-19.593-2.623-37.875-2.931-54.846-.925-1.312.153-2.623.308-3.935.462z"/><path fill="#AFBDC7" d="M656.394 66.381c8.33 20.132 16.507 44.663 24.529 73.589l41.193-9.835c-3.78-12.265-10.222-25.224-19.324-38.877-5.245-7.868-11.801-13.847-19.67-17.935-7.559-3.934-16.468-6.248-26.728-6.942m-81.922 104.716l9.026-2.431a6.088 6.088 0 0 1-.578-.926l-9.026 1.852.578 1.505m-55.422-4.282c3.702-.463 5.821-2.044 6.364-4.744l28.694-87.822c.155-2.546-1.272-3.896-4.28-4.05-41.269-2.237-77.987-3.317-110.154-3.239-36.794.077-70.35 1.619-100.665 4.628-1.466.385-3.395 1.196-5.786 2.43-2.237 1.312-4.281 2.699-6.132 4.166-14.733 12.111-30.124 26.111-46.167 42.001-8.485 8.253-18.128 18.088-28.927 29.505a935.681 935.681 0 0 0-13.885 14.695v.115c16.971-2.006 35.252-1.697 54.846.925l44.084.347c24.375-2.314 49.639-2.198 75.788.348l106.22.695m124.501-103.79l-39.573 3.239c-14.192 1.389-23.142 10.646-26.843 27.77l-11.224 50.564 4.165 13.075h12.265c.85-6.248 3.087-10.761 6.712-13.537 9.951-.695 21.135-.695 33.556 0 2.313 3.394 3.896 7.058 4.743 10.992v1.619l39.341-10.76c-5.786-29.235-13.5-56.889-23.142-82.962z"/><path fill="#191919" d="M678.147 181.742l-9.025 3.008-4.977 1.621.812 7.404 20.479-7.404a13.153 13.153 0 0 0-.693-6.48v-.115l-1.157.115-5.439 1.851z"/><path fill="#919191" d="M669.122 184.75l9.025-3.008c-.31-4.783-2.198-6.981-5.67-6.596-3.47 2.236-4.589 5.438-3.355 9.604z"/><path fill="#646464" d="M627.352 156.748v6.249l40.265-12.034a51.858 51.858 0 0 1-.924-4.975l-39.341 10.76m-43.854 11.918l-9.026 2.431 2.199 7.058 14.927-4.397h-.348c-2.853-.001-5.437-1.697-7.752-5.092m-58.084-6.595c-.543 2.7-2.662 4.28-6.364 4.744l-106.22-.694a468.552 468.552 0 0 1 34.712 4.859l-1.157 1.042c25.763.077 52.954.039 81.574-.115l34.827-105.642c-78.295-6.942-154.74-6.788-229.331.463-30.393 25.07-57.815 50.526-82.269 76.367a73.076 73.076 0 0 0-2.429 2.545 735.887 735.887 0 0 0-21.059 23.374c8.254.23 16.816.5 25.688.809 48.982 1.312 109.188 2.045 180.619 2.199-38.415-3.856-75.21-4.552-110.384-2.083l-3.241-2.314a290.017 290.017 0 0 1 16.663-1.852l-44.084-.347a267.38 267.38 0 0 1 14.464 2.314l-.117 2.314a474.958 474.958 0 0 0-73.358-2.893l.23-2.198c1.312-.155 2.623-.31 3.935-.463v-.115a935.681 935.681 0 0 1 13.885-14.695c10.799-11.417 20.442-21.252 28.927-29.505 16.044-15.891 31.434-29.891 46.167-42.001 1.851-1.467 3.895-2.854 6.132-4.166 2.391-1.234 4.32-2.044 5.786-2.43 30.315-3.009 63.871-4.551 100.665-4.628 32.167-.078 68.886 1.002 110.154 3.239 3.008.154 4.436 1.504 4.28 4.05l-28.695 87.822m127.16-104.599a518.928 518.928 0 0 0 3.819 8.91c10.261.694 19.169 3.008 26.729 6.942 7.869 4.088 14.425 10.067 19.67 17.935 9.103 13.653 15.544 26.613 19.324 38.877l-41.193 9.835a173.435 173.435 0 0 0 2.199 6.827l46.746-13.191c-4.012-13.653-10.798-27.615-20.364-41.886-6.402-12.188-16.701-21.02-30.896-26.497-7.403-3.626-16.081-6.21-26.034-7.752m-9.023 5.553a117.09 117.09 0 0 0-2.43-6.248l-38.879 2.429c-15.196 3.395-24.837 12.882-28.927 28.464l-10.993 46.052 3.589 10.876 11.224-50.564c3.701-17.125 12.65-26.381 26.843-27.77l39.573-3.239z"/><path fill="#383838" d="M570.076 157.674l-4.165-13.075-3.589-10.876-12.148 51.142 12.033-2.429 14.464-4.281-2.199-7.058-.578-1.504-8.561 1.736c-1.157-5.4-1.003-9.952.461-13.654h4.282m82.498-100.203l-11.453-.694a116.759 116.759 0 0 1 2.43 6.248c9.643 26.072 17.356 53.727 23.142 82.962.23 1.697.54 3.356.924 4.975l7.754-1.967 7.752-2.198a172.307 172.307 0 0 1-2.199-6.827c-8.022-28.927-16.199-53.457-24.529-73.589a509.254 509.254 0 0 1-3.821-8.91z"/><path fill="#B73422" d="M567.184 226.983c0-1.234-.269-2.468-.811-3.703l-7.637 2.315c.232 4.009 1.004 6.4 2.314 7.173l5.322-1.736c.543-1.464.812-2.815.812-4.049z"/><g><path fill="none" stroke="#1D1D1D" stroke-width="2" stroke-linecap="round" stroke-linejoin="round" d="M652.574 57.472l-11.453-.694a116.759 116.759 0 0 1 2.43 6.248c9.643 26.072 17.356 53.727 23.142 82.962.23 1.697.54 3.356.924 4.975l7.754-1.967 7.752-2.198a172.307 172.307 0 0 1-2.199-6.827c-8.022-28.927-16.199-53.457-24.529-73.589a509.254 509.254 0 0 1-3.821-8.91c9.953 1.542 18.631 4.126 26.034 7.752 14.194 5.477 24.493 14.309 30.896 26.497 9.566 14.271 16.353 28.233 20.364 41.886l-46.746 13.191m8.1 91.408l14.812-3.009 10.877-2.313c.384-1.467.771-2.854 1.156-4.165 3.239-11.571 6.71-20.75 10.414-27.539 7.637-14.425 16.082-18.012 25.338-10.76 3.395 5.09 6.249 10.144 8.563 15.157m.578-.232l-1.966-15.735c-1.08-13.037-3.126-26.073-6.134-39.109-25.996-54.692-46.782-86.434-62.366-95.229-19.361-8.64-45.974-13.113-79.839-13.421m-49.869 24.414l-34.827 105.642m-53.341 35.521c2.391 17.896-2.932 34.481-15.969 49.754m28.349-3.471l10.067-15.157c.153-.23.308-.384.461-.463 6.172-7.329 13.153-12.767 20.945-16.315 4.552-2.16 9.372-3.625 14.463-4.396 9.95 1.697 18.127 6.942 24.529 15.737.23.461.502.925.81 1.388 6.095 9.257 10.336 22.1 12.728 38.531v.115a294.653 294.653 0 0 1 1.39 13.537m68.73-229.91l-38.879 2.429c-15.196 3.395-24.837 12.882-28.927 28.464l-10.993 46.052 3.589 10.876m-37.952 27.308c-28.62.154-55.812.192-81.574.115m119.526-27.423l4.165 13.075h12.265c.85-6.248 3.087-10.761 6.712-13.537 9.951-.695 21.135-.695 33.556 0 2.313 3.394 3.896 7.058 4.743 10.992v1.619m-65.145 25.688l-12.033 2.429 12.148-51.142m21.176 34.943a6.088 6.088 0 0 1-.578-.926l-9.026 1.852.578 1.504 2.199 7.058 14.927-4.397h-.348c-2.853 0-5.437-1.696-7.752-5.091zm-9.604.926l-8.561 1.736c-1.157-5.4-1.003-9.952.461-13.654h4.282m6.595 20.48l-14.464 4.281m12.149 80.765l16.314-3.355 100.551-21.639M582.92 167.74l-.579-10.066m45.011-.926v6.249l40.265-12.034m-40.265 12.034v.462c-.31 3.009-2.084 5.285-5.322 6.827l-30.432 3.471m77.524 10.993l9.025-3.008c-.31-4.783-2.198-6.981-5.67-6.596-3.47 2.236-4.589 5.438-3.355 9.604l-4.977 1.621.812 7.404 20.479-7.404a13.153 13.153 0 0 0-.693-6.48v-.115m-6.596 1.966l5.438-1.852m-70.93-138.039a3817.267 3817.267 0 0 0-92.911-2.777c-30.624-.54-61.558.155-92.798 2.083-31.241 1.851-52.878 4.358-64.913 7.521-10.953 2.854-21.29 7.29-31.009 13.306-.154 0-.27.039-.347.115a44.863 44.863 0 0 0-2.777 1.621c-29.466 24.916-56.272 50.14-80.417 75.672l-.23.232a289.4 289.4 0 0 0-4.628 4.975 523.304 523.304 0 0 0-18.861 20.827 143.622 143.622 0 0 1-3.008 3.588l-3.703 2.314-48.134 30.546c13.885-.54 19.207 4.628 15.967 15.505l-3.934 29.852c21.907-3.317 45.087-5.091 69.541-5.322 3.316-.771 7.02-1.156 11.107-1.156 4.397 0 8.408.463 12.034 1.388 31.164.847 64.141 4.011 98.93 9.489 21.136-35.099 55.153-49.833 102.055-44.202m-231.994-62.829c-8.64-.309-18.013-.193-28.118.347-2.314 3.395-3.895 7.059-4.744 10.992v8.331c.309 3.009 2.083 5.285 5.322 6.828l1.968.231m216.951.694c-71.43-.154-131.636-.887-180.619-2.199-8.872-.309-17.433-.579-25.688-.809a738.09 738.09 0 0 1 21.059-23.374 73.162 73.162 0 0 1 2.429-2.545c24.454-25.841 51.876-51.297 82.269-76.367 74.591-7.251 151.036-7.406 229.331-.463m-91.754 231.878a271.382 271.382 0 0 1 4.744-17.125 108.4 108.4 0 0 1 2.313-7.058c.23-.694.464-1.311.694-1.852 2.468-6.788 5.207-12.922 8.215-18.397m24.648 14.348c.31-.384.578-.731.809-1.041 5.015-5.477 10.027-10.954 15.042-16.43a43.352 43.352 0 0 1 2.547-1.505 34.723 34.723 0 0 1 4.396-1.736 56.46 56.46 0 0 1 3.472-.578c15.735 2.624 23.989 18.552 24.762 47.788m13.074 46.283l115.822-28.581 18.397-4.629c7.327-29.234 14.656-51.489 21.985-66.762 7.173-14.812 14.31-22.988 21.405-24.531 6.633 1.466 11.494 6.287 14.579 14.464m1.967.001v-.463c-1.234-8.254-3.74-16.509-7.521-24.762M365.968 264.24c2.005-4.475 4.205-8.679 6.595-12.61m-145.907 27.19l38.3.579 56.233.578v30.778m0 .809a2711.22 2711.22 0 0 1-66.763-1.272c-7.096-.23-14.232-.463-21.406-.693a881.807 881.807 0 0 0-14.347-.579c-4.783-.232-9.565-.463-14.348-.693v-.812m-11.455 6.249c4.474.308 15.157.963 32.05 1.966 1.389.154 2.854.271 4.398.349 2.544.076 5.283.23 8.214.463 5.708.23 12.149.463 19.324.693 17.201.464 38.607.732 64.217.81h.115a3515.32 3515.32 0 0 0 39.341-.461c7.482-.154 15.042-.349 22.679-.579 22.755-.695 46.244-1.776 70.467-3.24 3.238-.23 6.556-.464 9.95-.694-1.004 12.729-6.019 21.637-15.042 26.729-5.169 2.777-11.61 4.32-19.324 4.628a736.56 736.56 0 0 1-25.919 2.084c-8.099.461-16.199.886-24.298 1.272a1295.186 1295.186 0 0 1-121.146.115c-5.399-.23-10.799-.502-16.199-.81l-10.875-.695a1288.98 1288.98 0 0 1-61.672-5.438 350.659 350.659 0 0 1-9.026-1.042 207.52 207.52 0 0 0-6.942-.81c-1.079-.155-2.121-.31-3.123-.463a80.097 80.097 0 0 1-4.513-.578c-3.626-2.392-6.441-5.515-8.446-9.372-.925 9.101.309 15.62 3.703 19.555 1.234 1.388 2.815 2.468 4.744 3.238 2.237.156 4.435.387 6.596.694l10.875.927a1612.14 1612.14 0 0 0 63.292 4.628c3.858.23 7.752.425 11.687.578 5.477.308 10.992.579 16.546.81 61.557 2.468 126.43 2.237 194.62-.694 7.173-.31 14.425-.616 21.752-.924 2.934-.232 5.826-.425 8.678-.579 1.08-4.397 2.16-8.678 3.241-12.845 2.854-10.645 5.708-20.402 8.563-29.272a20.12 20.12 0 0 1 1.157-3.241 134.14 134.14 0 0 1 1.735-5.092l.23-.693c.233-.693.464-1.35.694-1.966.076-.233.153-.464.232-.694.077-.153.153-.348.23-.578 3.279-7.716 6.556-15.429 9.835-23.142.156-.464.387-.927.694-1.39l1.156-2.314.06-.057c.036-.072.076-.149.115-.232a148.61 148.61 0 0 1 4.108-7.348M451.36 370.69c7.327-.307 14.656-.614 21.985-.924a91.29 91.29 0 0 1 4.743-.349l1.503-12.495m-20.942-99.74c-29.853 5.016-60.747 7.368-92.681 7.059l-99.162-2.43a56.88 56.88 0 0 1-5.207.232c-2.699 0-5.283-.153-7.752-.463l-74.978-1.851c-21.676-.077-35.291-3.318-40.845-9.721a79.2 79.2 0 0 0-5.438 18.281c20.365.926 40.691 1.775 60.978 2.547l8.1.23c1.002.079 2.006.115 3.008.115 11.958 1.39 54.769 2.045 128.436 1.968 73.744-.155 119.913-1.313 138.503-3.471m-197.977-27.537a53.622 53.622 0 0 1 4.975 1.62c4.783 2.16 7.174 4.666 7.174 7.521 0 3.008-2.391 5.515-7.174 7.521-3.471 1.541-7.406 2.544-11.802 3.008m-12.96-.231c-3.393-.617-6.479-1.544-9.256-2.777-4.782-2.007-7.173-4.514-7.173-7.521 0-2.854 2.391-5.36 7.173-7.521 1.775-.773 3.741-1.388 5.901-1.852m-71.623 17.82l2.083-12.498m45.704 31.589l-21.984-.232h-.347V307.515m-35.407-105.641c-16.122 12.188-26.42 28.232-30.894 48.135m20.712 59.59c.231.077.462.115.694.115 3.857.463 7.598.927 11.224 1.388 1.157.153 2.275.31 3.355.463 6.557.771 12.844 1.505 18.861 2.199m-55.771 14.926c-1.774-3.704-2.777-8.138-3.009-13.307-.153-2.931-.038-6.018.348-9.257m95.574 63.292c6.094.387 12.227.694 18.398.927m-90.137-6.133c-2.777-.23-5.554-.5-8.331-.81-3.703-3.395-6.248-6.712-7.637-9.95a1.356 1.356 0 0 1-.231-.348c-.694-1.697-1.119-3.318-1.272-4.859m-6.364-42.118c1.002.154 2.044.31 3.123.464a1977.535 1977.535 0 0 1 21.175 3.008m-.463 54.613c4.396.386 8.833.771 13.306 1.156m44.895 3.357c4.475.23 8.986.463 13.538.693M132.586 268.29c-.077 12.728.54 25.34 1.852 37.837m37.142 59.241a2645.425 2645.425 0 0 0 44.895 3.356m31.935 1.621c65.645 3.008 133.294 3.123 202.951.346m314.492-114.318c1.928-5.322 2.893-11.148 2.893-17.472a62.03 62.03 0 0 0-.346-6.597 37.3 37.3 0 0 1-.463-1.503m.462 1.504a79.125 79.125 0 0 1 1.503 5.439v-6.942m-1.735 0c.079.538.155 1.04.232 1.503m-51.489.579l-1.391 8.447-15.272 3.472-9.256 1.966m-11.919 55.076l20.018-4.628m70.812-59.473v28.928m-203.529-35.64l-5.322 1.736c-1.311-.773-2.082-3.164-2.314-7.173l7.637-2.315c.542 1.235.811 2.469.811 3.703-.001 1.234-.27 2.585-.812 4.049zm-58.837 44.374l.059-.057c1.543-3.011 3.161-5.785 4.858-8.332m62.83 5.671l-.927-9.487m-5.669 43.041c-.538.308-1.116.579-1.735.81m8.216 19.324l103.904-24.531m11.919-55.076l-98.121 21.984-17.587 3.935"/></g><g><path fill="none" stroke="#000" stroke-width="2" stroke-linecap="round" stroke-linejoin="round" d="M225.152 278.125c.463.232.965.463 1.504.695m267.632 27.653c.153-.23.269-.461.346-.693l.696-.925c7.713-10.567 16.97-16.353 27.77-17.355h.925c10.646-.619 19.826 3.932 27.539 13.652a55.32 55.32 0 0 1 5.9 9.835c3.855 8.022 5.785 17.355 5.785 28.002 0 15.042-3.896 28.231-11.686 39.571-7.869 11.341-17.356 17.433-28.464 18.283a20.446 20.446 0 0 1-3.704.115c-9.565-.233-17.819-4.861-24.762-13.886-7.866-9.95-11.801-22.447-11.801-37.489v-1.505m21.291 63.987c-6.942-2.622-13.268-7.521-18.977-14.694-5.478-6.865-9.41-14.734-11.801-23.604m-21.985.923c2.161 8.409 5.592 15.969 10.297 22.681 7.485 10.26 16.122 16.005 25.919 17.238 2.084.154 4.282.154 6.597 0h9.95m0-2.544c4.012 1.62 8.215 2.508 12.613 2.662.076-.077.191-.077.346 0 1.39 0 2.815-.041 4.282-.118 14.115-1.233 26.149-8.946 36.1-23.142 10.029-14.038 15.042-30.509 15.042-49.405 0-11.494-1.851-21.831-5.555-31.011a67.021 67.021 0 0 0-9.487-16.43c-9.95-12.421-21.984-18.05-36.1-16.893a46.583 46.583 0 0 0-11.341 2.544 57.803 57.803 0 0 0-3.818 1.736M134.09 315.384c-1.928 6.016-2.893 12.459-2.893 19.322 0 17.742 6.21 32.784 18.63 45.126 12.496 12.574 27.615 18.861 45.357 18.861 17.665 0 32.707-6.287 45.126-18.861 3.084-3.008 5.785-6.172 8.099-9.487m-18.397-.927a6.5 6.5 0 0 1-1.042 1.042c-9.025 9.026-19.901 13.537-32.629 13.537-12.806 0-23.759-4.511-32.861-13.537a55.854 55.854 0 0 1-5.207-6.248m607.58-107.839c-1.078-4.397-2.391-8.486-3.935-12.265-4.628-11.34-10.219-16.432-16.777-15.274-4.936.927-9.293 5.015-13.073 12.265-1.313 2.547-2.583 5.555-3.819 9.025-2.468 7.097-4.319 14.848-5.553 23.257-.85 6.789-1.274 14.077-1.274 21.869 0 17.126 2.277 31.395 6.827 42.813.386 1.08.811 2.083 1.271 3.008 3.472 7.098 7.444 11.107 11.919 12.034 1.157.307 2.392.307 3.702 0 6.559-1.157 12.149-8.177 16.777-21.059 4.705-13.114 7.061-28.232 7.061-45.358 0-11.416-1.042-21.522-3.126-30.315zm-33.786-15.274c-.079-.077-.115-.154-.115-.23m27.421 13.074c1.081 3.085 1.967 6.4 2.662 9.951 1.388 6.942 2.082 14.962 2.082 24.065 0 13.654-1.58 25.727-4.744 36.217-3.163 10.337-7.019 15.969-11.57 16.894-4.475.926-8.294-3.123-11.455-12.149a31.203 31.203 0 0 1-.81-2.545c-2.624-8.64-3.935-19.207-3.935-31.704 0-5.785.308-11.3.927-16.547.771-7.02 2.043-13.499 3.817-19.438.31-1.157.657-2.237 1.041-3.241 3.008-8.33 6.479-12.92 10.414-13.77 4.552-.923 8.408 3.165 11.571 12.267zm-67.804 58.316c1.078 9.799 3.161 18.397 6.249 25.804 4.318 9.873 9.486 14.965 15.503 15.272.619 0 1.274-.036 1.968-.115l26.149-.115m-231.415-76.832a19.273 19.273 0 0 0-2.429-.924m-3.471 135.26l12.613.118"/></g><g><path fill="none" stroke="#747474" stroke-linecap="round" stroke-linejoin="round" d="M486.188 333.086l22.33 11.455-21.173 16.084c-2.237-9.41-2.623-18.59-1.157-27.539zm-269.714 35.639c-6.017 4.397-12.882 6.595-20.596 6.595-9.488 0-17.588-3.318-24.299-9.951M752.2 247.116l-4.628 30.084-4.167-27.076c2.468-4.551 5.402-5.555 8.795-3.008zm-4.282 35.291c.232.54.348 1.157.348 1.851 0 .773-.115 1.388-.348 1.852-.23.54-.499.811-.809.811-.311 0-.579-.271-.812-.811-.154-.464-.23-1.078-.23-1.852 0-.693.076-1.311.23-1.851.232-.54.501-.812.812-.812.31.001.579.272.809.812zm2.314 7.173c.31 0 .54.27.693.812.232.538.348 1.157.348 1.851s-.115 1.311-.348 1.851c-.153.541-.384.81-.693.81-.387 0-.655-.269-.81-.81-.232-.54-.348-1.156-.348-1.851 0-.693.115-1.313.348-1.851.155-.542.424-.812.81-.812zm-6.249-.23c.233.54.349 1.195.349 1.966 0 .694-.115 1.313-.349 1.852-.23.542-.502.811-.809.811-.308 0-.579-.269-.81-.811-.153-.538-.232-1.157-.232-1.852 0-.771.079-1.426.232-1.966.23-.463.502-.693.81-.693.307-.001.579.23.809.693zm4.283 10.877c0 .694-.115 1.311-.348 1.851-.23.617-.499.925-.809.925-.311 0-.579-.308-.812-.925-.154-.54-.23-1.156-.23-1.851 0-.696.076-1.311.23-1.854.232-.537.501-.809.812-.809.31 0 .578.271.809.809.232.543.348 1.157.348 1.854zm-12.382 14.809c-1.08-7.867-1.541-16.199-1.388-24.992l7.406 6.712-6.018 18.28zm7.06-31.82l-3.241-25.34c-2.007 5.171-3.355 11.494-4.05 18.977l7.291 6.363zm8.561-.463l5.324-27.073c2.313 5.552 3.625 12.108 3.932 19.67l-9.256 7.403zm7.983 28.466c1.774-7.945 2.394-15.892 1.852-23.838l-8.794 8.218 6.942 15.62zm-13.19 26.844l-.694-30.199-6.942 18.513c2.083 6.248 4.628 10.144 7.636 11.686zm11.109-17.82l-5.785-12.149v26.612c3.085-5.168 5.013-9.988 5.785-14.463zm-230.954 1.968l13.307-27.887c-6.323-3.162-12.688-4.357-19.092-3.587l5.785 31.474zm24.531-16.316c4.938 7.096 7.831 14.85 8.679 23.259l-22.448 4.511 13.769-27.77zm-21.869 21.638c.541.54.81 1.195.81 1.966s-.269 1.467-.81 2.084c-.616.54-1.311.809-2.083.809a2.675 2.675 0 0 1-1.966-.809c-.541-.617-.81-1.313-.81-2.084s.269-1.426.81-1.966a2.678 2.678 0 0 1 1.966-.812c.773.001 1.467.272 2.083.812zm-13.654 6.364c.543.616.812 1.311.812 2.081 0 .85-.269 1.582-.812 2.199-.614.693-1.387 1.041-2.313 1.041-.771 0-1.503-.348-2.197-1.041-.542-.617-.812-1.35-.812-2.199 0-.771.27-1.465.812-2.081.694-.617 1.427-.927 2.197-.927.926.001 1.699.31 2.313.927zm3.935 18.05c.54.616.812 1.272.812 1.966 0 .696-.271 1.311-.812 1.854-.463.537-1.077.809-1.851.809-.693 0-1.311-.271-1.851-.809-.54-.543-.812-1.157-.812-1.854 0-.693.271-1.35.812-1.966.54-.54 1.157-.81 1.851-.81.773.001 1.388.27 1.851.81zm9.604-6.016c.617-.542 1.312-.811 2.082-.811.772 0 1.467.269 2.083.811.54.615.81 1.312.81 2.082s-.27 1.467-.81 2.083c-.616.617-1.311.925-2.083.925-.771 0-1.465-.308-2.082-.925-.693-.616-1.041-1.313-1.041-2.083s.348-1.467 1.041-2.082zm-6.827 47.786l4.629-32.744 15.505 23.487c-5.865 5.556-12.575 8.64-20.134 9.257zm-28.927-17.935l21.637-16.314-5.438 31.819c-6.865-3.008-12.264-8.176-16.199-15.505zm43.621-25.571l13.885 24.299c5.015-8.793 8.022-17.935 9.026-27.422l-22.911 3.123zm-45.471-35.405l21.406 12.265-5.556-30.314c-5.476 4.009-10.375 8.946-14.693 14.809"/></g><g><path fill="none" stroke="#1D1D1D" stroke-linecap="round" stroke-linejoin="round" d="M612.655 41.851c-25.916 1.697-42.54 9.835-49.869 24.414m112.584 82.731l.579 1.273M360.53 317.583c7.174 10.027 13.345 20.095 18.513 30.199m24.298-1.272c-7.868-9.799-14.579-19.634-20.132-29.506M169.15 340.955c.925-9.564 2.544-19.363 4.859-29.391m-15.273-1.965l-5.555 29.505"/></g><g><path fill="none" stroke="#444" stroke-linecap="round" stroke-linejoin="round" d="M565.911 144.599l11.224-50.564c3.701-17.125 12.65-26.381 26.843-27.77l39.573-3.239m-405.44 101.36a935.681 935.681 0 0 1 13.885-14.695c10.799-11.417 20.442-21.252 28.927-29.505 16.044-15.891 31.434-29.891 46.167-42.001 1.851-1.467 3.895-2.854 6.132-4.166 2.391-1.234 4.32-2.044 5.786-2.43 30.315-3.009 63.871-4.551 100.665-4.628 32.167-.078 68.886 1.002 110.154 3.239 3.008.154 4.436 1.504 4.28 4.05l-28.694 87.822c-.543 2.7-2.662 4.28-6.364 4.744l-106.22-.694m214.523-9.374l39.341-10.76m-92.221 25.109l9.026-2.431m72.896-102.285c10.261.694 19.169 3.008 26.729 6.942 7.869 4.088 14.425 10.067 19.67 17.935 9.103 13.653 15.544 26.613 19.324 38.877l-41.193 9.835m-343.882 25.803l-44.084-.347"/></g><g><path fill="none" stroke="#737373" stroke-linecap="round" stroke-linejoin="round" d="M675.949 150.269l12.033 25.224.23 4.281.349 6.479 2.66 51.952m-216.603-30.777l53.341-35.521m34.248 10.529l9.721 31.704 2.429 49.061m116.634-16.432l-5.671 44.201-6.248 10.875m-103.789-29.157l-.115 53.688"/></g><g><path fill="none" stroke="#999" stroke-linecap="round" stroke-linejoin="round" stroke-opacity=".51" d="M458.649 257.182l28.349-3.471h.115c10.26 1.62 18.436 6.402 24.531 14.348"/></g><g><path fill="none" stroke="#CCC" stroke-linecap="round" stroke-linejoin="round" d="M462.354 174.683c-15.352 5.863-30.2 13.846-44.549 23.952m-172.983-24.762c-11.879 6.172-21.368 12.998-28.464 20.48"/></g></svg>