<?xml version="1.0" encoding="utf-8"?>
<!-- Generator: Adobe Illustrator 16.0.0, SVG Export Plug-In . SVG Version: 6.00 Build 0)  -->
<!DOCTYPE svg PUBLIC "-//W3C//DTD SVG 1.1//EN" "http://www.w3.org/Graphics/SVG/1.1/DTD/svg11.dtd">
<svg version="1.1" id="Layer_1" xmlns="http://www.w3.org/2000/svg" xmlns:xlink="http://www.w3.org/1999/xlink" x="0px" y="0px"
	 width="900px" height="450px" viewBox="0 0 900 450" enable-background="new 0 0 900 450" xml:space="preserve">
<g transform="matrix( 1, 0, 0, 1, 0,0) ">
	<g>
		<g id="Layer0_0_FILL">
			<path fill="#161616" d="M507.361,275.58v0.115c-0.384,0.771-0.771,1.544-1.156,2.314c1.233-0.617,2.508-1.195,3.818-1.736
				c-0.85-0.386-1.658-0.693-2.429-0.924h-0.115C507.477,275.47,507.438,275.549,507.361,275.58 M732.067,241.099
				c-0.079-0.077-0.115-0.154-0.115-0.23c-7.329,15.272-14.658,37.527-21.985,66.762l-18.397,4.629
				c1.078,9.799,3.161,18.397,6.249,25.804c4.318,9.873,9.486,14.965,15.503,15.272c0.619,0,1.274-0.036,1.968-0.115l26.149-0.115
				c-4.475-0.927-8.447-4.937-11.919-12.034c-0.461-0.925-0.886-1.928-1.271-3.008c-4.55-11.418-6.827-25.687-6.827-42.813
				c0-7.792,0.425-15.08,1.274-21.869c1.233-8.409,3.085-16.16,5.553-23.257C729.484,246.653,730.754,243.646,732.067,241.099
				 M140.802,348.245c0.154,1.541,0.579,3.162,1.272,4.859l3.471-1.621C143.617,350.713,142.036,349.633,140.802,348.245
				 M137.099,328.69c-1.774-3.704-2.777-8.138-3.009-13.307c-1.928,6.016-2.893,12.459-2.893,19.322
				c0,17.742,6.21,32.784,18.63,45.126c12.496,12.574,27.615,18.861,45.357,18.861c17.665,0,32.707-6.287,45.126-18.861
				c3.084-3.008,5.785-6.172,8.099-9.487c-6.171-0.232-12.304-0.54-18.398-0.927c-0.308,0.387-0.655,0.734-1.042,1.042
				c-9.025,9.026-19.901,13.537-32.629,13.537c-12.806,0-23.759-4.511-32.861-13.537c-1.929-2.007-3.665-4.088-5.207-6.248
				c-2.777-0.23-5.554-0.5-8.331-0.81c-3.703-3.395-6.248-6.712-7.637-9.95c-0.077-0.077-0.154-0.194-0.231-0.348
				c-0.694-1.697-1.119-3.318-1.272-4.859C137.408,344.311,136.174,337.791,137.099,328.69 M226.656,278.82
				c-0.539-0.232-1.041-0.463-1.504-0.695l-20.48-0.346h-0.347v0.809h0.347L226.656,278.82 M473.346,369.767
				c-7.329,0.31-14.658,0.617-21.985,0.924c2.161,8.409,5.592,15.969,10.297,22.681c7.485,10.26,16.122,16.005,25.919,17.238
				c2.084,0.154,4.282,0.154,6.597,0h9.95v-2.544c-6.942-2.622-13.268-7.521-18.977-14.694
				C479.669,386.506,475.736,378.637,473.346,369.767z"/>
			<path fill="#E2E2E2" d="M512.453,267.018c-0.23,0.31-0.499,0.657-0.809,1.041c-1.343,2.237-2.732,4.667-4.165,7.291h0.115
				C509.138,272.339,510.756,269.564,512.453,267.018 M685.32,290.97l5.671-44.201l-98.121,21.984l-17.587,3.935l-0.115,53.688
				l103.904-24.531L685.32,290.97 M278.609,243.761c-1.62-0.617-3.278-1.157-4.975-1.62c-3.626-0.925-7.637-1.388-12.034-1.388
				c-4.088,0-7.791,0.386-11.107,1.156c-2.16,0.464-4.126,1.078-5.901,1.852c-4.782,2.16-7.173,4.666-7.173,7.521
				c0,3.008,2.391,5.515,7.173,7.521c2.777,1.233,5.863,2.16,9.256,2.777c2.469,0.31,5.053,0.463,7.752,0.463
				c1.774,0,3.51-0.076,5.207-0.232c4.396-0.464,8.331-1.467,11.802-3.008c4.783-2.007,7.174-4.514,7.174-7.521
				C285.783,248.427,283.392,245.921,278.609,243.761 M478.783,272.108c2.468-6.788,5.207-12.922,8.215-18.397l-28.349,3.471
				c-29.853,5.016-60.747,7.368-92.681,7.059l-99.162-2.43c-1.697,0.156-3.433,0.232-5.207,0.232c-2.699,0-5.283-0.153-7.752-0.463
				l-74.978-1.851c-21.676-0.077-35.291-3.318-40.845-9.721c-2.546,5.862-4.358,11.958-5.438,18.281
				c20.365,0.926,40.691,1.775,60.978,2.547c2.7,0.076,5.4,0.153,8.1,0.23c1.002,0.079,2.006,0.115,3.008,0.115
				c11.958,1.39,54.769,2.045,128.436,1.968c73.744-0.155,119.913-1.313,138.503-3.471c-18.591,2.158-64.759,3.315-138.503,3.471
				c-73.667,0.077-116.478-0.578-128.436-1.968v6.597l20.48,0.346l39.804,0.463l56.233,0.579v0.811v30.778v0.809
				c-22.446-0.153-44.701-0.578-66.763-1.272c-7.096-0.23-14.232-0.463-21.406-0.693c-4.782-0.232-9.565-0.425-14.347-0.579
				c-4.783-0.232-9.565-0.463-14.348-0.693v-0.812l-11.455,6.249c4.474,0.308,15.157,0.963,32.05,1.966
				c1.389,0.154,2.854,0.271,4.398,0.349c2.544,0.076,5.283,0.23,8.214,0.463c5.708,0.23,12.149,0.463,19.324,0.693
				c17.201,0.464,38.607,0.732,64.217,0.81h0.115c12.805-0.077,25.919-0.23,39.341-0.461c7.482-0.154,15.042-0.349,22.679-0.579
				c22.755-0.695,46.244-1.776,70.467-3.24c3.238-0.23,6.556-0.464,9.95-0.694c-1.004,12.729-6.019,21.637-15.042,26.729
				c-5.169,2.777-11.61,4.32-19.324,4.628c-8.64,0.85-17.279,1.541-25.919,2.084c-8.099,0.461-16.199,0.886-24.298,1.272
				c-40.266,1.928-80.648,1.966-121.146,0.115c-5.399-0.23-10.799-0.502-16.199-0.81c-3.625-0.232-7.25-0.463-10.875-0.695
				c-20.519-1.312-41.076-3.124-61.672-5.438c-3.009-0.308-6.017-0.655-9.026-1.042c-2.314-0.31-4.628-0.579-6.942-0.81
				c-1.079-0.155-2.121-0.31-3.123-0.463c-1.543-0.153-3.047-0.348-4.513-0.578c-3.626-2.392-6.441-5.515-8.446-9.372
				c-0.925,9.101,0.309,15.62,3.703,19.555c1.234,1.388,2.815,2.468,4.744,3.238c2.237,0.156,4.435,0.387,6.596,0.694
				c3.625,0.31,7.251,0.619,10.875,0.927c20.674,1.93,41.771,3.471,63.292,4.628c3.858,0.23,7.752,0.425,11.687,0.578
				c5.477,0.308,10.992,0.579,16.546,0.81c61.557,2.468,126.43,2.237,194.62-0.694c7.173-0.31,14.425-0.616,21.752-0.924
				c2.934-0.232,5.826-0.425,8.678-0.579c1.08-4.397,2.16-8.678,3.241-12.845c2.854-10.645,5.708-20.402,8.563-29.272
				c0.31-1.157,0.693-2.237,1.157-3.241c0.54-1.697,1.118-3.392,1.735-5.092c0.077-0.23,0.153-0.461,0.23-0.693
				c0.233-0.693,0.464-1.35,0.694-1.966c0.076-0.233,0.153-0.464,0.232-0.694c0.077-0.153,0.153-0.348,0.23-0.578
				c3.279-7.716,6.556-15.429,9.835-23.142c0.156-0.464,0.387-0.927,0.694-1.39c0.386-0.771,0.772-1.544,1.156-2.314v-0.115
				c0.077-0.031,0.115-0.11,0.118-0.23c1.433-2.624,2.822-5.054,4.165-7.291c-6.096-7.945-14.271-12.728-24.531-14.348h-0.115
				C483.99,259.187,481.251,265.32,478.783,272.108c-0.23,0.541-0.464,1.157-0.694,1.852c-0.847,2.313-1.62,4.666-2.313,7.058
				c-1.697,5.401-3.279,11.109-4.744,17.125c1.465-6.016,3.047-11.724,4.744-17.125c0.693-2.392,1.467-4.744,2.313-7.058
				C478.319,273.266,478.553,272.649,478.783,272.108 M612.655,41.851c-31.241-1.311-62.211-2.237-92.911-2.777
				c-30.624-0.54-61.558,0.155-92.798,2.083c-31.241,1.851-52.878,4.358-64.913,7.521c-10.953,2.854-21.29,7.29-31.009,13.306
				c-0.154,0-0.27,0.039-0.347,0.115c-1.002,0.541-1.929,1.081-2.777,1.621c-29.466,24.916-56.272,50.14-80.417,75.672l-0.23,0.232
				c-1.543,1.62-3.086,3.278-4.628,4.975c-6.557,6.866-12.844,13.808-18.861,20.827c-1.002,1.235-2.005,2.431-3.008,3.588
				l-3.703,2.314l-48.134,30.546c13.885-0.54,19.207,4.628,15.967,15.505l-3.934,29.852c21.907-3.317,45.087-5.091,69.541-5.322
				c3.316-0.771,7.02-1.156,11.107-1.156c4.397,0,8.408,0.463,12.034,1.388c31.164,0.847,64.141,4.011,98.93,9.489
				c21.136-35.099,55.153-49.833,102.055-44.202l53.341-35.521c-28.62,0.154-55.812,0.192-81.574,0.115l-1.272,1.272
				c-3.779-0.462-7.482-0.887-11.108-1.272c-71.43-0.154-131.636-0.887-180.619-2.199c-8.872-0.309-17.433-0.579-25.688-0.809
				c6.788-7.869,13.808-15.659,21.059-23.374c0.771-0.849,1.581-1.697,2.429-2.545c24.454-25.841,51.876-51.297,82.269-76.367
				c74.591-7.251,151.036-7.406,229.331-0.463C570.115,51.686,586.739,43.548,612.655,41.851 M462.354,174.683
				c-15.352,5.863-30.2,13.846-44.549,23.952C432.153,188.529,447.002,180.546,462.354,174.683 M244.822,173.873
				c-11.879,6.172-21.368,12.998-28.464,20.48C223.455,186.871,232.943,180.044,244.822,173.873 M576.671,178.154l-14.464,4.281
				l9.721,31.704l2.429,49.061l16.314-3.355l100.551-21.639l-2.66-51.952l-3.126,0.116l-20.479,7.404l-0.812-7.404l4.977-1.621
				c-1.234-4.165-0.115-7.367,3.355-9.604c3.472-0.385,5.36,1.813,5.67,6.596l5.438-1.852l1.157-0.115v0.115l3.471-0.115
				l-0.23-4.281l-12.033-25.224l-0.579-1.273l-7.754,1.967l-40.265,12.034v0.462c-0.31,3.009-2.084,5.285-5.322,6.827l-30.432,3.471
				L576.671,178.154 M641.121,56.778l11.453,0.694c9.953,1.542,18.631,4.126,26.034,7.752c14.194,5.477,24.493,14.309,30.896,26.497
				c9.566,14.271,16.353,28.233,20.364,41.886l-46.746,13.191l-7.173,3.471l12.033,25.224l0.23,4.281l0.349,6.479l2.66,51.952
				l14.812-3.009l10.877-2.313c0.384-1.467,0.771-2.854,1.156-4.165c3.239-11.571,6.71-20.75,10.414-27.539
				c7.637-14.425,16.082-18.012,25.338-10.76c3.395,5.09,6.249,10.144,8.563,15.157l0.578-0.232l-1.966-15.735
				c-1.08-13.037-3.126-26.073-6.134-39.109c-25.996-54.692-46.782-86.434-62.366-95.229c-19.361-8.64-45.974-13.113-79.839-13.421
				c-25.916,1.697-42.54,9.835-49.869,24.414l-34.827,105.642l-53.341,35.521c2.391,17.896-2.932,34.481-15.969,49.754l28.349-3.471
				c3.355-5.051,6.712-10.104,10.067-15.157c0.153-0.23,0.308-0.384,0.461-0.463c6.172-7.329,13.153-12.767,20.945-16.315
				c4.552-2.16,9.372-3.625,14.463-4.396c9.95,1.697,18.127,6.942,24.529,15.737c0.23,0.461,0.502,0.925,0.81,1.388
				c6.095,9.257,10.336,22.1,12.728,38.531v0.115c0.542,4.242,1.003,8.755,1.39,13.537c-0.387-4.782-0.848-9.295-1.39-13.537v-0.115
				c-2.392-16.432-6.633-29.274-12.728-38.531c-0.308-0.463-0.579-0.927-0.81-1.388c-6.402-8.794-14.579-14.04-24.529-15.737
				c-5.091,0.772-9.911,2.236-14.463,4.396c-7.792,3.548-14.773,8.986-20.945,16.315c-0.153,0.079-0.308,0.232-0.461,0.463
				c-3.355,5.053-6.712,10.106-10.067,15.157h0.115c10.26,1.62,18.436,6.402,24.531,14.348c0.31-0.384,0.578-0.731,0.809-1.041
				c5.015-5.477,10.027-10.954,15.042-16.43c0.848-0.54,1.697-1.042,2.547-1.505c1.465-0.694,2.929-1.272,4.396-1.736
				c1.157-0.23,2.314-0.422,3.472-0.578c15.735,2.624,23.989,18.552,24.762,47.788c2.314,3.548,4.321,7.441,6.016,11.686
				c3.858,9.721,6.21,21.253,7.061,34.598l115.822-28.581l18.397-4.629c7.327-29.234,14.656-51.489,21.985-66.762
				c7.173-14.812,14.31-22.988,21.405-24.531c6.633,1.466,11.494,6.287,14.579,14.464h0.23h1.735v-0.463
				c-1.234-8.254-3.74-16.509-7.521-24.762c-2.314-5.014-5.169-10.067-8.563-15.157c-9.256-7.252-17.701-3.665-25.338,10.76
				c-3.704,6.788-7.175,15.968-10.414,27.539c-0.386,1.311-0.772,2.698-1.156,4.165l-1.391,8.447l-15.272,3.472l-9.256,1.966
				l-5.671,44.201l-6.248,10.875l20.018-4.628l-20.018,4.628l-103.904,24.531l0.115-53.688l-0.927-9.487l-2.429-49.061
				l-9.721-31.704l-12.033,2.429l12.148-51.142l10.993-46.052c4.09-15.582,13.73-25.069,28.927-28.464L641.121,56.778
				 M566.373,223.28c0.542,1.235,0.811,2.469,0.811,3.703c0,1.233-0.269,2.585-0.811,4.049l-5.322,1.736
				c-1.311-0.773-2.082-3.164-2.314-7.173L566.373,223.28z"/>
			<path d="M534.438,247.347c-1.467,0.464-2.931,1.042-4.396,1.736c-0.85,0.463-1.699,0.965-2.547,1.505
				c-5.015,5.476-10.027,10.953-15.042,16.43c-1.697,2.547-3.315,5.321-4.858,8.332c0.771,0.23,1.579,0.538,2.429,0.924
				c3.625-1.311,7.406-2.158,11.341-2.544c14.115-1.157,26.149,4.472,36.1,16.893c3.935,5.013,7.097,10.49,9.487,16.43
				c0.619-0.23,1.197-0.502,1.735-0.81c-1.694-4.244-3.701-8.138-6.016-11.686c-0.772-29.236-9.026-45.164-24.762-47.788
				C536.752,246.925,535.595,247.116,534.438,247.347 M768.167,230.802h-0.23c0.153,0.538,0.31,1.04,0.463,1.503
				C768.322,231.842,768.246,231.34,768.167,230.802 M732.067,241.099c3.78-7.25,8.138-11.338,13.073-12.265
				c6.559-1.157,12.149,3.935,16.777,15.274c1.544,3.778,2.856,7.867,3.935,12.265c1.928-5.322,2.893-11.148,2.893-17.472
				c0-2.237-0.115-4.436-0.346-6.597c-0.153-0.463-0.31-0.965-0.463-1.503c-3.085-8.177-7.946-12.999-14.579-14.464
				c-7.096,1.542-14.232,9.719-21.405,24.531C731.952,240.944,731.988,241.021,732.067,241.099 M142.074,353.104
				c0.077,0.153,0.155,0.271,0.231,0.348l3.24-1.969L142.074,353.104z"/>
			<path fill="#333333" d="M700.247,244.803l15.272-3.472l1.391-8.447l-10.877,2.313l-14.812,3.009l-100.551,21.639l-16.314,3.355
				l0.927,9.487l17.587-3.935l98.121-21.984L700.247,244.803 M209.763,155.938v8.331c0.309,3.009,2.083,5.285,5.322,6.828
				l1.968,0.231l3.703-2.314c1.002-1.157,2.005-2.353,3.008-3.588c6.017-7.019,12.304-13.961,18.861-20.827
				c-8.64-0.309-18.013-0.193-28.118,0.347C212.192,148.34,210.612,152.005,209.763,155.938 M582.341,157.674h-12.265h-4.282
				c-1.464,3.703-1.618,8.254-0.461,13.654l8.561-1.736l9.026-1.852L582.341,157.674 M589.053,144.137
				c-3.625,2.776-5.862,7.29-6.712,13.537l0.579,10.066c0.153,0.309,0.348,0.617,0.578,0.926c2.314,3.395,4.899,5.091,7.752,5.091
				h0.348l30.432-3.471c3.238-1.542,5.013-3.818,5.322-6.827v-0.462v-6.249v-1.619c-0.848-3.935-2.43-7.599-4.743-10.992
				C610.188,143.442,599.004,143.442,589.053,144.137z"/>
			<path fill="#262626" d="M745.141,228.834c-4.936,0.927-9.293,5.015-13.073,12.265c-1.313,2.547-2.583,5.555-3.819,9.025
				c-2.468,7.097-4.319,14.848-5.553,23.257c-0.85,6.789-1.274,14.077-1.274,21.869c0,17.126,2.277,31.395,6.827,42.813
				c0.386,1.08,0.811,2.083,1.271,3.008c3.472,7.098,7.444,11.107,11.919,12.034c1.157,0.307,2.392,0.307,3.702,0
				c6.559-1.157,12.149-8.177,16.777-21.059c4.705-13.114,7.061-28.232,7.061-45.358c0-11.415-1.042-21.521-3.126-30.314
				c-1.078-4.397-2.391-8.486-3.935-12.265C757.29,232.769,751.699,227.677,745.141,228.834 M759.373,253.943
				c1.081,3.085,1.967,6.4,2.662,9.951c1.388,6.942,2.082,14.962,2.082,24.065c0,13.654-1.58,25.727-4.744,36.217
				c-3.163,10.337-7.019,15.969-11.57,16.894c-4.475,0.926-8.294-3.123-11.455-12.149c-0.311-0.848-0.579-1.697-0.81-2.545
				c-2.624-8.64-3.935-19.207-3.935-31.704c0-5.785,0.308-11.3,0.927-16.547c0.771-7.02,2.043-13.499,3.817-19.438
				c0.31-1.157,0.657-2.237,1.041-3.241c3.008-8.33,6.479-12.92,10.414-13.77C752.354,240.753,756.21,244.841,759.373,253.943
				 M751.622,308.094v26.612c3.085-5.168,5.013-9.988,5.785-14.463L751.622,308.094 M745.604,307.863l-6.942,18.513
				c2.084,6.249,4.629,10.145,7.637,11.687L745.604,307.863 M761.34,287.381l-8.794,8.218l6.942,15.62
				C761.263,303.273,761.882,295.327,761.34,287.381 M760.761,275.35c-0.307-7.562-1.618-14.118-3.932-19.67l-5.324,27.073
				L760.761,275.35 M735.653,276.853l7.291,6.363l-3.241-25.34C737.696,263.047,736.348,269.37,735.653,276.853 M741.902,296.756
				l-7.406-6.712c-0.153,8.793,0.308,17.125,1.388,24.992L741.902,296.756 M746.298,298.373c-0.154,0.543-0.23,1.157-0.23,1.854
				c0,0.694,0.076,1.311,0.23,1.851c0.232,0.617,0.501,0.925,0.812,0.925c0.31,0,0.578-0.308,0.809-0.925
				c0.232-0.54,0.348-1.156,0.348-1.851c0-0.696-0.115-1.311-0.348-1.854c-0.23-0.537-0.499-0.809-0.809-0.809
				C746.799,297.564,746.53,297.836,746.298,298.373 M743.983,293.167c0.233-0.538,0.349-1.157,0.349-1.852
				c0-0.771-0.115-1.426-0.349-1.966c-0.23-0.463-0.502-0.693-0.809-0.693c-0.308,0-0.579,0.23-0.81,0.693
				c-0.153,0.54-0.232,1.195-0.232,1.966c0,0.694,0.079,1.313,0.232,1.852c0.23,0.542,0.502,0.811,0.81,0.811
				C743.481,293.978,743.753,293.709,743.983,293.167 M750.926,290.392c-0.153-0.542-0.384-0.812-0.693-0.812
				c-0.387,0-0.655,0.27-0.81,0.812c-0.232,0.538-0.348,1.157-0.348,1.851c0,0.694,0.115,1.311,0.348,1.851
				c0.154,0.541,0.423,0.81,0.81,0.81c0.31,0,0.54-0.269,0.693-0.81c0.232-0.54,0.348-1.156,0.348-1.851
				C751.273,291.549,751.158,290.93,750.926,290.392 M746.298,286.109c0.232,0.54,0.501,0.811,0.812,0.811
				c0.31,0,0.578-0.271,0.809-0.811c0.232-0.464,0.348-1.078,0.348-1.852c0-0.693-0.115-1.311-0.348-1.851
				c-0.23-0.54-0.499-0.812-0.809-0.812c-0.311,0-0.579,0.271-0.812,0.812c-0.154,0.54-0.23,1.157-0.23,1.851
				C746.067,285.031,746.144,285.646,746.298,286.109 M752.2,247.116c-3.394-2.547-6.327-1.543-8.795,3.008l4.167,27.076
				L752.2,247.116 M171.58,365.368c6.711,6.633,14.811,9.951,24.299,9.951c7.714,0,14.579-2.197,20.596-6.595
				C201.355,367.721,186.39,366.604,171.58,365.368 M495.213,303.813c-0.23,0.616-0.461,1.272-0.694,1.966
				c-0.077,0.232-0.153,0.463-0.23,0.693c0.153-0.23,0.269-0.461,0.346-0.693c0.233-0.31,0.464-0.617,0.696-0.925
				c7.713-10.567,16.97-16.353,27.77-17.355c0.308,0,0.615,0,0.925,0c10.646-0.619,19.826,3.932,27.539,13.652
				c2.314,3.084,4.28,6.363,5.9,9.835c3.855,8.022,5.785,17.355,5.785,28.002c0,15.042-3.896,28.231-11.686,39.571
				c-7.869,11.341-17.356,17.433-28.464,18.283c-1.311,0.153-2.547,0.191-3.704,0.115c-9.565-0.233-17.819-4.861-24.762-13.886
				c-7.866-9.95-11.801-22.447-11.801-37.489c0-0.54,0-1.042,0-1.505c-1.081,4.167-2.161,8.447-3.241,12.845l-1.503,12.495
				c-1.62,0.079-3.202,0.192-4.743,0.349c2.391,8.87,6.323,16.739,11.801,23.604c5.709,7.173,12.034,12.072,18.977,14.694
				c4.012,1.62,8.215,2.508,12.613,2.662c0.076-0.077,0.191-0.077,0.346,0c1.39,0,2.815-0.041,4.282-0.118
				c14.115-1.233,26.149-8.946,36.1-23.142c10.029-14.038,15.042-30.509,15.042-49.405c0-11.494-1.851-21.831-5.555-31.011
				c-2.391-5.939-5.553-11.417-9.487-16.43c-9.95-12.421-21.984-18.05-36.1-16.893c-3.935,0.386-7.716,1.233-11.341,2.544
				c-1.311,0.541-2.585,1.119-3.818,1.736c-0.308,0.463-0.538,0.926-0.694,1.39c-3.279,7.713-6.556,15.426-9.835,23.142
				c-0.077,0.23-0.153,0.425-0.23,0.578C495.366,303.35,495.289,303.58,495.213,303.813 M492.553,311.564
				c-0.464,1.004-0.848,2.084-1.157,3.241l21.406,12.265l-5.556-30.314C501.771,300.765,496.871,305.702,492.553,311.564
				 M536.867,350.211l13.885,24.299c5.015-8.793,8.022-17.935,9.026-27.422L536.867,350.211 M509.445,391.287l5.438-31.819
				l-21.637,16.314C497.181,383.111,502.58,388.279,509.445,391.287 M542.307,384.46l-15.505-23.487l-4.629,32.744
				C529.732,393.1,536.442,390.016,542.307,384.46 M529,345.931c-0.693,0.615-1.041,1.312-1.041,2.082s0.348,1.467,1.041,2.083
				c0.617,0.617,1.312,0.925,2.082,0.925c0.772,0,1.467-0.308,2.083-0.925c0.54-0.616,0.81-1.313,0.81-2.083s-0.27-1.467-0.81-2.082
				c-0.616-0.542-1.311-0.811-2.083-0.811C530.312,345.12,529.617,345.389,529,345.931 M515.694,351.947
				c-0.54,0.616-0.812,1.272-0.812,1.966c0,0.696,0.271,1.311,0.812,1.854c0.54,0.537,1.157,0.809,1.851,0.809
				c0.773,0,1.388-0.271,1.851-0.809c0.54-0.543,0.812-1.157,0.812-1.854c0-0.693-0.271-1.35-0.812-1.966
				c-0.463-0.54-1.077-0.81-1.851-0.81C516.852,351.138,516.234,351.407,515.694,351.947 M510.95,338.178
				c0.694,0.693,1.427,1.041,2.197,1.041c0.927,0,1.699-0.348,2.313-1.041c0.543-0.617,0.812-1.35,0.812-2.199
				c0-0.771-0.269-1.465-0.812-2.081c-0.614-0.617-1.387-0.927-2.313-0.927c-0.771,0-1.503,0.31-2.197,0.927
				c-0.542,0.616-0.812,1.311-0.812,2.081C510.139,336.828,510.408,337.561,510.95,338.178 M529.115,327.533
				c-0.616-0.54-1.311-0.812-2.083-0.812c-0.771,0-1.426,0.271-1.966,0.812c-0.541,0.54-0.81,1.195-0.81,1.966
				s0.269,1.467,0.81,2.084c0.54,0.54,1.195,0.809,1.966,0.809c0.772,0,1.467-0.269,2.083-0.809c0.541-0.617,0.81-1.313,0.81-2.084
				S529.656,328.073,529.115,327.533 M559.663,329.153c-0.848-8.409-3.74-16.163-8.679-23.259l-13.77,27.77L559.663,329.153
				 M539.76,294.324c-6.323-3.162-12.688-4.357-19.092-3.587l5.785,31.474L539.76,294.324 M486.188,333.086
				c-1.467,8.949-1.08,18.129,1.157,27.539l21.173-16.084L486.188,333.086z"/>
			<path fill="#5B5B5B" d="M762.035,263.895c-0.695-3.551-1.581-6.866-2.662-9.951c-3.163-9.103-7.019-13.19-11.57-12.267
				c-3.935,0.85-7.406,5.439-10.414,13.77c-0.384,1.004-0.731,2.084-1.041,3.241c-1.774,5.938-3.047,12.418-3.817,19.438
				c-0.619,5.247-0.927,10.762-0.927,16.547c0,12.497,1.311,23.064,3.935,31.704c0.23,0.848,0.499,1.697,0.81,2.545
				c3.161,9.026,6.98,13.075,11.455,12.149c4.552-0.925,8.407-6.557,11.57-16.894c3.164-10.49,4.744-22.563,4.744-36.217
				C764.117,278.856,763.423,270.837,762.035,263.895 M743.405,250.124c2.468-4.551,5.401-5.555,8.795-3.008l-4.628,30.084
				L743.405,250.124 M747.109,286.92c-0.311,0-0.579-0.271-0.812-0.811c-0.154-0.464-0.23-1.078-0.23-1.852
				c0-0.693,0.076-1.311,0.23-1.851c0.232-0.54,0.501-0.812,0.812-0.812c0.31,0,0.578,0.271,0.809,0.812
				c0.232,0.54,0.348,1.157,0.348,1.851c0,0.773-0.115,1.388-0.348,1.852C747.688,286.649,747.419,286.92,747.109,286.92
				 M750.232,289.58c0.31,0,0.54,0.27,0.693,0.812c0.232,0.538,0.348,1.157,0.348,1.851c0,0.694-0.115,1.311-0.348,1.851
				c-0.153,0.541-0.384,0.81-0.693,0.81c-0.387,0-0.655-0.269-0.81-0.81c-0.232-0.54-0.348-1.156-0.348-1.851
				c0-0.693,0.115-1.313,0.348-1.851C749.577,289.85,749.846,289.58,750.232,289.58 M744.332,291.315
				c0,0.694-0.115,1.313-0.349,1.852c-0.23,0.542-0.502,0.811-0.809,0.811c-0.308,0-0.579-0.269-0.81-0.811
				c-0.153-0.538-0.232-1.157-0.232-1.852c0-0.771,0.079-1.426,0.232-1.966c0.23-0.463,0.502-0.693,0.81-0.693
				c0.307,0,0.578,0.23,0.809,0.693C744.217,289.89,744.332,290.545,744.332,291.315 M746.067,300.227
				c0-0.696,0.076-1.311,0.23-1.854c0.232-0.537,0.501-0.809,0.812-0.809c0.31,0,0.578,0.271,0.809,0.809
				c0.232,0.543,0.348,1.157,0.348,1.854c0,0.694-0.115,1.311-0.348,1.851c-0.23,0.617-0.499,0.925-0.809,0.925
				c-0.311,0-0.579-0.308-0.812-0.925C746.144,301.537,746.067,300.921,746.067,300.227 M734.496,290.044l7.406,6.712l-6.019,18.28
				C734.804,307.169,734.343,298.837,734.496,290.044 M742.944,283.216l-7.291-6.363c0.694-7.482,2.043-13.806,4.05-18.977
				L742.944,283.216 M756.829,255.68c2.313,5.552,3.625,12.108,3.932,19.67l-9.256,7.403L756.829,255.68 M752.546,295.599
				l8.794-8.218c0.542,7.946-0.077,15.893-1.852,23.838L752.546,295.599 M738.661,326.376l6.942-18.513l0.694,30.199
				C743.29,336.521,740.745,332.625,738.661,326.376 M751.622,334.706v-26.612l5.785,12.149
				C756.635,324.718,754.707,329.538,751.622,334.706 M158.273,364.212c1.542,2.16,3.278,4.241,5.207,6.248
				c9.102,9.026,20.056,13.537,32.861,13.537c12.728,0,23.604-4.511,32.629-13.537c0.386-0.308,0.733-0.655,1.042-1.042
				c-4.551-0.23-9.063-0.463-13.538-0.693c-6.017,4.397-12.882,6.595-20.596,6.595c-9.488,0-17.588-3.318-24.299-9.951
				C167.106,364.982,162.67,364.598,158.273,364.212 M494.288,306.473c-0.617,1.7-1.195,3.395-1.735,5.092
				c4.318-5.862,9.218-10.8,14.693-14.809l5.556,30.314l-21.406-12.265c-2.854,8.87-5.708,18.628-8.563,29.272
				c0,0.463,0,0.965,0,1.505c0,15.042,3.935,27.539,11.801,37.489c6.942,9.024,15.196,13.652,24.762,13.886
				c1.157,0.076,2.394,0.038,3.704-0.115c11.107-0.851,20.595-6.942,28.464-18.283c7.79-11.34,11.686-24.529,11.686-39.571
				c0-10.646-1.93-19.979-5.785-28.002c-1.62-3.472-3.586-6.751-5.9-9.835c-7.713-9.721-16.893-14.271-27.539-13.652
				c-0.31,0-0.617,0-0.925,0c-10.8,1.003-20.057,6.788-27.77,17.355c-0.232,0.308-0.463,0.615-0.696,0.925
				C494.557,306.012,494.441,306.242,494.288,306.473 M487.346,360.625c-2.237-9.41-2.624-18.59-1.157-27.539l22.33,11.455
				L487.346,360.625 M520.668,290.737c6.404-0.771,12.769,0.425,19.092,3.587l-13.307,27.887L520.668,290.737 M550.984,305.895
				c4.938,7.096,7.831,14.85,8.679,23.259l-22.448,4.511L550.984,305.895 M527.032,326.722c0.772,0,1.467,0.271,2.083,0.812
				c0.541,0.54,0.81,1.195,0.81,1.966s-0.269,1.467-0.81,2.084c-0.616,0.54-1.311,0.809-2.083,0.809
				c-0.771,0-1.426-0.269-1.966-0.809c-0.541-0.617-0.81-1.313-0.81-2.084s0.269-1.426,0.81-1.966
				C525.606,326.993,526.262,326.722,527.032,326.722 M513.147,339.219c-0.771,0-1.503-0.348-2.197-1.041
				c-0.542-0.617-0.812-1.35-0.812-2.199c0-0.771,0.27-1.465,0.812-2.081c0.694-0.617,1.427-0.927,2.197-0.927
				c0.927,0,1.699,0.31,2.313,0.927c0.543,0.616,0.812,1.311,0.812,2.081c0,0.85-0.269,1.582-0.812,2.199
				C514.847,338.871,514.074,339.219,513.147,339.219 M514.883,353.913c0-0.693,0.271-1.35,0.812-1.966
				c0.54-0.54,1.157-0.81,1.851-0.81c0.773,0,1.388,0.27,1.851,0.81c0.54,0.616,0.812,1.272,0.812,1.966
				c0,0.696-0.271,1.311-0.812,1.854c-0.463,0.537-1.077,0.809-1.851,0.809c-0.693,0-1.311-0.271-1.851-0.809
				C515.154,355.224,514.883,354.609,514.883,353.913 M527.959,348.013c0-0.771,0.348-1.467,1.041-2.082
				c0.617-0.542,1.312-0.811,2.082-0.811c0.772,0,1.467,0.269,2.083,0.811c0.54,0.615,0.81,1.312,0.81,2.082s-0.27,1.467-0.81,2.083
				c-0.616,0.617-1.311,0.925-2.083,0.925c-0.771,0-1.465-0.308-2.082-0.925C528.307,349.479,527.959,348.783,527.959,348.013
				 M526.802,360.973l15.505,23.487c-5.864,5.556-12.574,8.64-20.134,9.257L526.802,360.973 M514.883,359.468l-5.438,31.819
				c-6.865-3.008-12.265-8.176-16.199-15.505L514.883,359.468 M550.752,374.51l-13.885-24.299l22.911-3.123
				C558.774,356.575,555.767,365.717,550.752,374.51z"/>
			<path fill="#323232" d="M134.09,315.384c0.232,5.169,1.235,9.603,3.009,13.307c2.005,3.857,4.82,6.98,8.446,9.372
				c1.466,0.23,2.97,0.425,4.513,0.578c1.002,0.153,2.044,0.308,3.123,0.463l5.555-29.505c-6.789-1.004-13.846-2.005-21.175-3.008
				c-1.079-0.154-2.121-0.31-3.123-0.464C134.052,309.366,133.937,312.453,134.09,315.384 M470.914,357.502
				c-7.327,0.308-14.579,0.614-21.752,0.924c-68.19,2.932-133.063,3.162-194.62,0.694c-5.554-0.23-11.069-0.502-16.546-0.81
				c-3.935-0.153-7.829-0.348-11.687-0.578c-21.521-1.157-42.619-2.698-63.292-4.628c-3.625-0.308-7.25-0.617-10.875-0.927
				c-2.161-0.308-4.358-0.538-6.596-0.694l-3.24,1.969c1.389,3.238,3.934,6.556,7.637,9.95c2.777,0.31,5.554,0.579,8.331,0.81
				c4.396,0.386,8.833,0.771,13.306,1.156c14.811,1.236,29.775,2.353,44.895,3.356c4.475,0.23,8.986,0.463,13.538,0.693
				c6.094,0.387,12.227,0.694,18.398,0.927c65.645,3.008,133.294,3.123,202.951,0.346c7.327-0.307,14.656-0.614,21.985-0.924
				c1.541-0.156,3.123-0.27,4.743-0.349l1.503-12.495C476.74,357.077,473.848,357.27,470.914,357.502 M463.626,313.069
				c-3.395,0.23-6.712,0.464-9.95,0.694c-24.223,1.464-47.712,2.545-70.467,3.24c5.554,9.872,12.265,19.707,20.132,29.506
				c8.64-0.543,17.279-1.234,25.919-2.084c7.713-0.308,14.155-1.851,19.324-4.628C457.607,334.706,462.622,325.798,463.626,313.069
				 M360.53,317.583c-13.422,0.23-26.536,0.384-39.341,0.461h-0.115c-25.61-0.077-47.016-0.346-64.217-0.81
				c-7.174-0.23-13.615-0.463-19.324-0.693c-2.931-0.232-5.67-0.387-8.214-0.463c-1.544-0.077-3.009-0.194-4.398-0.349
				c-16.893-1.003-27.577-1.658-32.05-1.966c-6.017-0.694-12.304-1.429-18.861-2.199c-2.314,10.027-3.934,19.826-4.859,29.391
				c20.596,2.313,41.153,4.126,61.672,5.438c3.625,0.232,7.251,0.463,10.875,0.695c5.4,0.308,10.8,0.579,16.199,0.81
				c40.498,1.851,80.88,1.813,121.146-0.115C373.875,337.678,367.704,327.61,360.53,317.583z"/>
			<path fill="#ADADAD" d="M174.009,311.564c-1.08-0.153-2.198-0.31-3.355-0.463c-3.626-0.461-7.367-0.925-11.224-1.388
				c-0.231,0-0.463-0.038-0.694-0.115l-5.555,29.505c2.314,0.23,4.628,0.5,6.942,0.81c3.009,0.387,6.017,0.734,9.026,1.042
				C170.076,331.391,171.695,321.592,174.009,311.564 M383.209,317.004c-7.637,0.23-15.197,0.425-22.679,0.579
				c7.174,10.027,13.345,20.095,18.513,30.199c8.1-0.387,16.199-0.812,24.298-1.272
				C395.474,336.711,388.763,326.876,383.209,317.004z"/>
			<path fill="#D2D2D2" d="M204.671,271.183c-1.002,0-2.005-0.036-3.008-0.115c-2.7-0.077-5.4-0.154-8.1-0.23
				c-20.287-0.771-40.613-1.621-60.978-2.547c-0.077,12.728,0.54,25.34,1.852,37.837c1.002,0.154,2.044,0.31,3.123,0.464
				c7.329,1.003,14.387,2.004,21.175,3.008c0.231,0.077,0.462,0.115,0.694,0.115c3.857,0.463,7.598,0.927,11.224,1.388
				c1.157,0.153,2.275,0.31,3.355,0.463c6.557,0.771,12.844,1.505,18.861,2.199l11.455-6.249v-6.248v-9.14v-13.539v-0.809h0.347
				V271.183z"/>
			<path fill="#F5FDFE" d="M184.886,217.379c3.24-10.877-2.082-16.045-15.967-15.505c-16.122,12.188-26.42,28.232-30.894,48.135
				c5.554,6.402,19.168,9.644,40.845,9.721l2.083-12.498L184.886,217.379 M458.649,257.182
				c13.037-15.272,18.359-31.857,15.969-49.754c-46.901-5.63-80.918,9.103-102.055,44.202c-2.391,3.932-4.59,8.136-6.595,12.61
				C397.903,264.55,428.797,262.197,458.649,257.182z"/>
			<path fill="#8A8A8A" d="M244.591,243.761c1.775-0.773,3.741-1.388,5.901-1.852c-24.453,0.231-47.633,2.005-69.541,5.322
				l-2.083,12.498l74.978,1.851c-3.393-0.617-6.479-1.544-9.256-2.777c-4.782-2.007-7.173-4.514-7.173-7.521
				C237.417,248.427,239.809,245.921,244.591,243.761 M365.968,264.24c2.005-4.475,4.205-8.679,6.595-12.61
				c-34.789-5.479-67.766-8.643-98.93-9.489c1.697,0.463,3.355,1.003,4.975,1.62c4.783,2.16,7.174,4.666,7.174,7.521
				c0,3.008-2.391,5.515-7.174,7.521c-3.471,1.541-7.406,2.544-11.802,3.008L365.968,264.24z"/>
			<path fill="#888888" d="M321.189,311.564v-0.809v-30.778l-56.233-0.578l-38.3-0.579l-21.984-0.232h-0.347v13.539v9.14v6.248
				v0.812c4.783,0.23,9.565,0.461,14.348,0.693c4.782,0.154,9.565,0.347,14.347,0.579c7.174,0.23,14.31,0.463,21.406,0.693
				C276.488,310.986,298.743,311.411,321.189,311.564z"/>
			<path fill="#1D1D1D" d="M337.042,165.773c-5.631,0.463-11.186,1.08-16.663,1.852l3.241,2.314
				c35.174-2.469,71.969-1.774,110.384,2.083c3.626,0.385,7.329,0.81,11.108,1.272l1.272-1.272l1.157-1.042
				c-11.726-2.083-23.296-3.702-34.712-4.859C386.68,163.576,361.417,163.459,337.042,165.773 M234.177,164.964l-0.23,2.198
				c24.607-0.926,49.06,0.038,73.358,2.893l0.117-2.314c-4.937-0.925-9.759-1.697-14.464-2.314
				c-19.593-2.623-37.875-2.931-54.846-0.925C236.8,164.655,235.489,164.81,234.177,164.964z"/>
			<path fill="#AFBDC7" d="M656.394,66.381c8.33,20.132,16.507,44.663,24.529,73.589l41.193-9.835
				c-3.78-12.265-10.222-25.224-19.324-38.877c-5.245-7.868-11.801-13.847-19.67-17.935
				C675.563,69.389,666.654,67.075,656.394,66.381 M574.472,171.097l9.026-2.431c-0.23-0.309-0.425-0.617-0.578-0.926l-9.026,1.852
				L574.472,171.097 M519.05,166.815c3.702-0.463,5.821-2.044,6.364-4.744l28.694-87.822c0.155-2.546-1.272-3.896-4.28-4.05
				c-41.269-2.237-77.987-3.317-110.154-3.239c-36.794,0.077-70.35,1.619-100.665,4.628c-1.466,0.385-3.395,1.196-5.786,2.43
				c-2.237,1.312-4.281,2.699-6.132,4.166c-14.733,12.111-30.124,26.111-46.167,42.001c-8.485,8.253-18.128,18.088-28.927,29.505
				c-4.473,4.628-9.102,9.527-13.885,14.695v0.115c16.971-2.006,35.252-1.697,54.846,0.925l44.084,0.347
				c24.375-2.314,49.639-2.198,75.788,0.348L519.05,166.815 M643.551,63.025l-39.573,3.239
				c-14.192,1.389-23.142,10.646-26.843,27.77l-11.224,50.564l4.165,13.075h12.265c0.85-6.248,3.087-10.761,6.712-13.537
				c9.951-0.695,21.135-0.695,33.556,0c2.313,3.394,3.896,7.058,4.743,10.992v1.619l39.341-10.76
				C660.907,116.752,653.193,89.098,643.551,63.025z"/>
			<path fill="#191919" d="M678.147,181.742l-9.025,3.008l-4.977,1.621l0.812,7.404l20.479-7.404
				c0.311-2.237,0.079-4.398-0.693-6.48v-0.115l-1.157,0.115L678.147,181.742z"/>
			<path fill="#919191" d="M669.122,184.75l9.025-3.008c-0.31-4.783-2.198-6.981-5.67-6.596
				C669.007,177.382,667.888,180.584,669.122,184.75z"/>
			<path fill="#646464" d="M627.352,156.748v6.249l40.265-12.034c-0.384-1.619-0.693-3.278-0.924-4.975L627.352,156.748
				 M583.498,168.666l-9.026,2.431l2.199,7.058l14.927-4.397h-0.348C588.397,173.757,585.813,172.061,583.498,168.666
				 M525.414,162.071c-0.543,2.7-2.662,4.28-6.364,4.744l-106.22-0.694c11.416,1.157,22.987,2.776,34.712,4.859l-1.157,1.042
				c25.763,0.077,52.954,0.039,81.574-0.115l34.827-105.642c-78.295-6.942-154.74-6.788-229.331,0.463
				c-30.393,25.07-57.815,50.526-82.269,76.367c-0.849,0.849-1.659,1.697-2.429,2.545c-7.251,7.714-14.271,15.504-21.059,23.374
				c8.254,0.23,16.816,0.5,25.688,0.809c48.982,1.312,109.188,2.045,180.619,2.199c-38.415-3.856-75.21-4.552-110.384-2.083
				l-3.241-2.314c5.477-0.771,11.032-1.389,16.663-1.852l-44.084-0.347c4.705,0.617,9.527,1.389,14.464,2.314l-0.117,2.314
				c-24.298-2.854-48.75-3.818-73.358-2.893l0.23-2.198c1.312-0.155,2.623-0.31,3.935-0.463v-0.115
				c4.783-5.168,9.412-10.067,13.885-14.695c10.799-11.417,20.442-21.252,28.927-29.505c16.044-15.891,31.434-29.891,46.167-42.001
				c1.851-1.467,3.895-2.854,6.132-4.166c2.391-1.234,4.32-2.044,5.786-2.43c30.315-3.009,63.871-4.551,100.665-4.628
				c32.167-0.078,68.886,1.002,110.154,3.239c3.008,0.154,4.436,1.504,4.28,4.05L525.414,162.071 M652.574,57.472
				c0.927,2.237,2.199,5.207,3.819,8.91c10.261,0.694,19.169,3.008,26.729,6.942c7.869,4.088,14.425,10.067,19.67,17.935
				c9.103,13.653,15.544,26.613,19.324,38.877l-41.193,9.835c0.619,2.083,1.352,4.358,2.199,6.827l46.746-13.191
				c-4.012-13.653-10.798-27.615-20.364-41.886c-6.402-12.188-16.701-21.02-30.896-26.497
				C671.205,61.598,662.527,59.014,652.574,57.472 M643.551,63.025c-0.771-2.16-1.582-4.243-2.43-6.248l-38.879,2.429
				c-15.196,3.395-24.837,12.882-28.927,28.464l-10.993,46.052l3.589,10.876l11.224-50.564c3.701-17.125,12.65-26.381,26.843-27.77
				L643.551,63.025z"/>
			<path fill="#383838" d="M570.076,157.674l-4.165-13.075l-3.589-10.876l-12.148,51.142l12.033-2.429l14.464-4.281l-2.199-7.058
				l-0.578-1.504l-8.561,1.736c-1.157-5.4-1.003-9.952,0.461-13.654H570.076 M652.574,57.472l-11.453-0.694
				c0.848,2.004,1.659,4.088,2.43,6.248c9.643,26.072,17.356,53.727,23.142,82.962c0.23,1.697,0.54,3.356,0.924,4.975l7.754-1.967
				l7.752-2.198c-0.848-2.469-1.58-4.745-2.199-6.827c-8.022-28.927-16.199-53.457-24.529-73.589
				C654.773,62.678,653.501,59.709,652.574,57.472z"/>
			<path fill="#B73422" d="M567.184,226.983c0-1.234-0.269-2.468-0.811-3.703l-7.637,2.315c0.232,4.009,1.004,6.4,2.314,7.173
				l5.322-1.736C566.915,229.568,567.184,228.217,567.184,226.983z"/>
		</g>
	</g>
	<g>
		<path id="Layer0_0_1_STROKES" fill="none" stroke="#1D1D1D" stroke-width="2" stroke-linecap="round" stroke-linejoin="round" d="
			M652.574,57.472l-11.453-0.694c0.848,2.004,1.659,4.088,2.43,6.248c9.643,26.072,17.356,53.727,23.142,82.962
			c0.23,1.697,0.54,3.356,0.924,4.975l7.754-1.967l7.752-2.198c-0.848-2.469-1.58-4.745-2.199-6.827
			c-8.022-28.927-16.199-53.457-24.529-73.589C654.773,62.678,653.501,59.709,652.574,57.472c9.953,1.542,18.631,4.126,26.034,7.752
			c14.194,5.477,24.493,14.309,30.896,26.497c9.566,14.271,16.353,28.233,20.364,41.886l-46.746,13.191 M691.222,238.206
			l14.812-3.009l10.877-2.313c0.384-1.467,0.771-2.854,1.156-4.165c3.239-11.571,6.71-20.75,10.414-27.539
			c7.637-14.425,16.082-18.012,25.338-10.76c3.395,5.09,6.249,10.144,8.563,15.157 M762.96,205.345l-1.966-15.735
			c-1.08-13.037-3.126-26.073-6.134-39.109c-25.996-54.692-46.782-86.434-62.366-95.229c-19.361-8.64-45.974-13.113-79.839-13.421
			 M562.786,66.265l-34.827,105.642 M474.618,207.428c2.391,17.896-2.932,34.481-15.969,49.754 M486.998,253.711
			c3.355-5.051,6.712-10.104,10.067-15.157c0.153-0.23,0.308-0.384,0.461-0.463c6.172-7.329,13.153-12.767,20.945-16.315
			c4.552-2.16,9.372-3.625,14.463-4.396c9.95,1.697,18.127,6.942,24.529,15.737c0.23,0.461,0.502,0.925,0.81,1.388
			c6.095,9.257,10.336,22.1,12.728,38.531v0.115c0.542,4.242,1.003,8.755,1.39,13.537 M641.121,56.778l-38.879,2.429
			c-15.196,3.395-24.837,12.882-28.927,28.464l-10.993,46.052l3.589,10.876 M527.959,171.907
			c-28.62,0.154-55.812,0.192-81.574,0.115 M565.911,144.599l4.165,13.075h12.265c0.85-6.248,3.087-10.761,6.712-13.537
			c9.951-0.695,21.135-0.695,33.556,0c2.313,3.394,3.896,7.058,4.743,10.992v1.619 M562.207,182.436l-12.033,2.429l12.148-51.142
			 M583.498,168.666c-0.23-0.309-0.425-0.617-0.578-0.926l-9.026,1.852l0.578,1.504l2.199,7.058l14.927-4.397h-0.348
			C588.397,173.757,585.813,172.061,583.498,168.666z M573.894,169.592l-8.561,1.736c-1.157-5.4-1.003-9.952,0.461-13.654h4.282
			 M576.671,178.154l-14.464,4.281 M574.356,263.2l16.314-3.355l100.551-21.639 M582.92,167.74l-0.579-10.066 M627.352,156.748
			v6.249l40.265-12.034 M627.352,162.997v0.462c-0.31,3.009-2.084,5.285-5.322,6.827l-30.432,3.471 M669.122,184.75l9.025-3.008
			c-0.31-4.783-2.198-6.981-5.67-6.596C669.007,177.382,667.888,180.584,669.122,184.75l-4.977,1.621l0.812,7.404l20.479-7.404
			c0.311-2.237,0.079-4.398-0.693-6.48v-0.115 M678.147,181.742l5.438-1.852 M612.655,41.851
			c-31.241-1.311-62.211-2.237-92.911-2.777c-30.624-0.54-61.558,0.155-92.798,2.083c-31.241,1.851-52.878,4.358-64.913,7.521
			c-10.953,2.854-21.29,7.29-31.009,13.306c-0.154,0-0.27,0.039-0.347,0.115c-1.002,0.541-1.929,1.081-2.777,1.621
			c-29.466,24.916-56.272,50.14-80.417,75.672l-0.23,0.232c-1.543,1.62-3.086,3.278-4.628,4.975
			c-6.557,6.866-12.844,13.808-18.861,20.827c-1.002,1.235-2.005,2.431-3.008,3.588l-3.703,2.314l-48.134,30.546
			c13.885-0.54,19.207,4.628,15.967,15.505l-3.934,29.852c21.907-3.317,45.087-5.091,69.541-5.322
			c3.316-0.771,7.02-1.156,11.107-1.156c4.397,0,8.408,0.463,12.034,1.388c31.164,0.847,64.141,4.011,98.93,9.489
			c21.136-35.099,55.153-49.833,102.055-44.202 M242.625,144.599c-8.64-0.309-18.013-0.193-28.118,0.347
			c-2.314,3.395-3.895,7.059-4.744,10.992v8.331c0.309,3.009,2.083,5.285,5.322,6.828l1.968,0.231 M434.004,172.022
			c-71.43-0.154-131.636-0.887-180.619-2.199c-8.872-0.309-17.433-0.579-25.688-0.809c6.788-7.869,13.808-15.659,21.059-23.374
			c0.771-0.849,1.581-1.697,2.429-2.545c24.454-25.841,51.876-51.297,82.269-76.367c74.591-7.251,151.036-7.406,229.331-0.463
			 M471.031,298.143c1.465-6.016,3.047-11.724,4.744-17.125c0.693-2.392,1.467-4.744,2.313-7.058
			c0.23-0.694,0.464-1.311,0.694-1.852c2.468-6.788,5.207-12.922,8.215-18.397 M511.645,268.059c0.31-0.384,0.578-0.731,0.809-1.041
			c5.015-5.477,10.027-10.954,15.042-16.43c0.848-0.54,1.697-1.042,2.547-1.505c1.465-0.694,2.929-1.272,4.396-1.736
			c1.157-0.23,2.314-0.422,3.472-0.578c15.735,2.624,23.989,18.552,24.762,47.788 M575.747,340.84l115.822-28.581l18.397-4.629
			c7.327-29.234,14.656-51.489,21.985-66.762c7.173-14.812,14.31-22.988,21.405-24.531c6.633,1.466,11.494,6.287,14.579,14.464
			 M769.902,230.802v-0.463c-1.234-8.254-3.74-16.509-7.521-24.762 M365.968,264.24c2.005-4.475,4.205-8.679,6.595-12.61
			 M226.656,278.82l38.3,0.579l56.233,0.578v30.778 M321.189,311.564c-22.446-0.153-44.701-0.578-66.763-1.272
			c-7.096-0.23-14.232-0.463-21.406-0.693c-4.782-0.232-9.565-0.425-14.347-0.579c-4.783-0.232-9.565-0.463-14.348-0.693v-0.812
			 M192.87,313.764c4.474,0.308,15.157,0.963,32.05,1.966c1.389,0.154,2.854,0.271,4.398,0.349c2.544,0.076,5.283,0.23,8.214,0.463
			c5.708,0.23,12.149,0.463,19.324,0.693c17.201,0.464,38.607,0.732,64.217,0.81h0.115c12.805-0.077,25.919-0.23,39.341-0.461
			c7.482-0.154,15.042-0.349,22.679-0.579c22.755-0.695,46.244-1.776,70.467-3.24c3.238-0.23,6.556-0.464,9.95-0.694
			c-1.004,12.729-6.019,21.637-15.042,26.729c-5.169,2.777-11.61,4.32-19.324,4.628c-8.64,0.85-17.279,1.541-25.919,2.084
			c-8.099,0.461-16.199,0.886-24.298,1.272c-40.266,1.928-80.648,1.966-121.146,0.115c-5.399-0.23-10.799-0.502-16.199-0.81
			c-3.625-0.232-7.25-0.463-10.875-0.695c-20.519-1.312-41.076-3.124-61.672-5.438c-3.009-0.308-6.017-0.655-9.026-1.042
			c-2.314-0.31-4.628-0.579-6.942-0.81c-1.079-0.155-2.121-0.31-3.123-0.463c-1.543-0.153-3.047-0.348-4.513-0.578
			c-3.626-2.392-6.441-5.515-8.446-9.372c-0.925,9.101,0.309,15.62,3.703,19.555c1.234,1.388,2.815,2.468,4.744,3.238
			c2.237,0.156,4.435,0.387,6.596,0.694c3.625,0.31,7.251,0.619,10.875,0.927c20.674,1.93,41.771,3.471,63.292,4.628
			c3.858,0.23,7.752,0.425,11.687,0.578c5.477,0.308,10.992,0.579,16.546,0.81c61.557,2.468,126.43,2.237,194.62-0.694
			c7.173-0.31,14.425-0.616,21.752-0.924c2.934-0.232,5.826-0.425,8.678-0.579c1.08-4.397,2.16-8.678,3.241-12.845
			c2.854-10.645,5.708-20.402,8.563-29.272c0.31-1.157,0.693-2.237,1.157-3.241c0.54-1.697,1.118-3.392,1.735-5.092
			c0.077-0.23,0.153-0.461,0.23-0.693c0.233-0.693,0.464-1.35,0.694-1.966c0.076-0.233,0.153-0.464,0.232-0.694
			c0.077-0.153,0.153-0.348,0.23-0.578c3.279-7.716,6.556-15.429,9.835-23.142c0.156-0.464,0.387-0.927,0.694-1.39
			c0.386-0.771,0.772-1.544,1.156-2.314l0.06-0.057c0.036-0.072,0.076-0.149,0.115-0.232c1.396-2.66,2.766-5.11,4.108-7.348
			 M451.36,370.69c7.327-0.307,14.656-0.614,21.985-0.924c1.541-0.156,3.123-0.27,4.743-0.349l1.503-12.495 M458.649,257.182
			c-29.853,5.016-60.747,7.368-92.681,7.059l-99.162-2.43c-1.697,0.156-3.433,0.232-5.207,0.232c-2.699,0-5.283-0.153-7.752-0.463
			l-74.978-1.851c-21.676-0.077-35.291-3.318-40.845-9.721c-2.546,5.862-4.358,11.958-5.438,18.281
			c20.365,0.926,40.691,1.775,60.978,2.547c2.7,0.076,5.4,0.153,8.1,0.23c1.002,0.079,2.006,0.115,3.008,0.115
			c11.958,1.39,54.769,2.045,128.436,1.968c73.744-0.155,119.913-1.313,138.503-3.471 M273.634,242.141
			c1.697,0.463,3.355,1.003,4.975,1.62c4.783,2.16,7.174,4.666,7.174,7.521c0,3.008-2.391,5.515-7.174,7.521
			c-3.471,1.541-7.406,2.544-11.802,3.008 M253.847,261.58c-3.393-0.617-6.479-1.544-9.256-2.777
			c-4.782-2.007-7.173-4.514-7.173-7.521c0-2.854,2.391-5.36,7.173-7.521c1.775-0.773,3.741-1.388,5.901-1.852 M178.869,259.729
			l2.083-12.498 M226.656,278.82l-21.984-0.232h-0.347v13.539v9.14v6.248 M168.918,201.874
			c-16.122,12.188-26.42,28.232-30.894,48.135 M158.736,309.599c0.231,0.077,0.462,0.115,0.694,0.115
			c3.857,0.463,7.598,0.927,11.224,1.388c1.157,0.153,2.275,0.31,3.355,0.463c6.557,0.771,12.844,1.505,18.861,2.199
			 M137.099,328.69c-1.774-3.704-2.777-8.138-3.009-13.307c-0.153-2.931-0.038-6.018,0.348-9.257 M230.012,369.418
			c6.094,0.387,12.227,0.694,18.398,0.927 M158.273,364.212c-2.777-0.23-5.554-0.5-8.331-0.81c-3.703-3.395-6.248-6.712-7.637-9.95
			c-0.077-0.077-0.154-0.194-0.231-0.348c-0.694-1.697-1.119-3.318-1.272-4.859 M134.438,306.127
			c1.002,0.154,2.044,0.31,3.123,0.464c7.329,1.003,14.387,2.004,21.175,3.008 M158.273,364.212
			c4.396,0.386,8.833,0.771,13.306,1.156 M216.474,368.725c4.475,0.23,8.986,0.463,13.538,0.693 M132.586,268.29
			c-0.077,12.728,0.54,25.34,1.852,37.837 M171.58,365.368c14.811,1.236,29.775,2.353,44.895,3.356 M248.41,370.345
			c65.645,3.008,133.294,3.123,202.951,0.346 M765.853,256.373c1.928-5.322,2.893-11.148,2.893-17.472
			c0-2.237-0.115-4.436-0.346-6.597c-0.153-0.463-0.31-0.965-0.463-1.503 M768.399,232.305c0.538,1.697,1.04,3.51,1.503,5.439
			v-6.942 M768.167,230.802c0.079,0.538,0.155,1.04,0.232,1.503 M716.91,232.884l-1.391,8.447l-15.272,3.472l-9.256,1.966
			 M679.072,301.845l20.018-4.628 M769.902,237.744v28.928 M566.373,231.032l-5.322,1.736c-1.311-0.773-2.082-3.164-2.314-7.173
			l7.637-2.315c0.542,1.235,0.811,2.469,0.811,3.703C567.184,228.217,566.915,229.568,566.373,231.032z M507.536,275.406
			l0.059-0.057c1.543-3.011,3.161-5.785,4.858-8.332 M575.283,272.688l-0.927-9.487 M568.687,306.242
			c-0.538,0.308-1.116,0.579-1.735,0.81 M575.168,326.376l103.904-24.531 M690.991,246.769l-98.121,21.984l-17.587,3.935"/>
	</g>
	<g>
		<path id="Layer0_0_2_STROKES" fill="none" stroke="#000000" stroke-width="2" stroke-linecap="round" stroke-linejoin="round" d="
			M225.152,278.125c0.463,0.232,0.965,0.463,1.504,0.695 M494.288,306.473c0.153-0.23,0.269-0.461,0.346-0.693
			c0.233-0.31,0.464-0.617,0.696-0.925c7.713-10.567,16.97-16.353,27.77-17.355c0.308,0,0.615,0,0.925,0
			c10.646-0.619,19.826,3.932,27.539,13.652c2.314,3.084,4.28,6.363,5.9,9.835c3.855,8.022,5.785,17.355,5.785,28.002
			c0,15.042-3.896,28.231-11.686,39.571c-7.869,11.341-17.356,17.433-28.464,18.283c-1.311,0.153-2.547,0.191-3.704,0.115
			c-9.565-0.233-17.819-4.861-24.762-13.886c-7.866-9.95-11.801-22.447-11.801-37.489c0-0.54,0-1.042,0-1.505 M504.123,408.065
			c-6.942-2.622-13.268-7.521-18.977-14.694c-5.478-6.865-9.41-14.734-11.801-23.604 M451.36,370.69
			c2.161,8.409,5.592,15.969,10.297,22.681c7.485,10.26,16.122,16.005,25.919,17.238c2.084,0.154,4.282,0.154,6.597,0h9.95
			 M504.123,408.065c4.012,1.62,8.215,2.508,12.613,2.662c0.076-0.077,0.191-0.077,0.346,0c1.39,0,2.815-0.041,4.282-0.118
			c14.115-1.233,26.149-8.946,36.1-23.142c10.029-14.038,15.042-30.509,15.042-49.405c0-11.494-1.851-21.831-5.555-31.011
			c-2.391-5.939-5.553-11.417-9.487-16.43c-9.95-12.421-21.984-18.05-36.1-16.893c-3.935,0.386-7.716,1.233-11.341,2.544
			c-1.311,0.541-2.585,1.119-3.818,1.736 M134.09,315.384c-1.928,6.016-2.893,12.459-2.893,19.322
			c0,17.742,6.21,32.784,18.63,45.126c12.496,12.574,27.615,18.861,45.357,18.861c17.665,0,32.707-6.287,45.126-18.861
			c3.084-3.008,5.785-6.172,8.099-9.487 M230.012,369.418c-0.308,0.387-0.655,0.734-1.042,1.042
			c-9.025,9.026-19.901,13.537-32.629,13.537c-12.806,0-23.759-4.511-32.861-13.537c-1.929-2.007-3.665-4.088-5.207-6.248
			 M765.853,256.373c-1.078-4.397-2.391-8.486-3.935-12.265c-4.628-11.34-10.219-16.432-16.777-15.274
			c-4.936,0.927-9.293,5.015-13.073,12.265c-1.313,2.547-2.583,5.555-3.819,9.025c-2.468,7.097-4.319,14.848-5.553,23.257
			c-0.85,6.789-1.274,14.077-1.274,21.869c0,17.126,2.277,31.395,6.827,42.813c0.386,1.08,0.811,2.083,1.271,3.008
			c3.472,7.098,7.444,11.107,11.919,12.034c1.157,0.307,2.392,0.307,3.702,0c6.559-1.157,12.149-8.177,16.777-21.059
			c4.705-13.114,7.061-28.232,7.061-45.358C768.979,275.272,767.937,265.166,765.853,256.373z M732.067,241.099
			c-0.079-0.077-0.115-0.154-0.115-0.23 M759.373,253.943c1.081,3.085,1.967,6.4,2.662,9.951c1.388,6.942,2.082,14.962,2.082,24.065
			c0,13.654-1.58,25.727-4.744,36.217c-3.163,10.337-7.019,15.969-11.57,16.894c-4.475,0.926-8.294-3.123-11.455-12.149
			c-0.311-0.848-0.579-1.697-0.81-2.545c-2.624-8.64-3.935-19.207-3.935-31.704c0-5.785,0.308-11.3,0.927-16.547
			c0.771-7.02,2.043-13.499,3.817-19.438c0.31-1.157,0.657-2.237,1.041-3.241c3.008-8.33,6.479-12.92,10.414-13.77
			C752.354,240.753,756.21,244.841,759.373,253.943z M691.569,312.259c1.078,9.799,3.161,18.397,6.249,25.804
			c4.318,9.873,9.486,14.965,15.503,15.272c0.619,0,1.274-0.036,1.968-0.115l26.149-0.115 M510.023,276.273
			c-0.85-0.386-1.658-0.693-2.429-0.924 M504.123,410.609l12.613,0.118"/>
	</g>
	<g>
		<path id="Layer0_0_3_STROKES" fill="none" stroke="#747474" stroke-linecap="round" stroke-linejoin="round" d="M486.188,333.086
			l22.33,11.455l-21.173,16.084C485.108,351.215,484.722,342.035,486.188,333.086z M216.474,368.725
			c-6.017,4.397-12.882,6.595-20.596,6.595c-9.488,0-17.588-3.318-24.299-9.951 M752.2,247.116l-4.628,30.084l-4.167-27.076
			C745.873,245.573,748.807,244.569,752.2,247.116z M747.918,282.407c0.232,0.54,0.348,1.157,0.348,1.851
			c0,0.773-0.115,1.388-0.348,1.852c-0.23,0.54-0.499,0.811-0.809,0.811c-0.311,0-0.579-0.271-0.812-0.811
			c-0.154-0.464-0.23-1.078-0.23-1.852c0-0.693,0.076-1.311,0.23-1.851c0.232-0.54,0.501-0.812,0.812-0.812
			C747.419,281.596,747.688,281.867,747.918,282.407z M750.232,289.58c0.31,0,0.54,0.27,0.693,0.812
			c0.232,0.538,0.348,1.157,0.348,1.851c0,0.694-0.115,1.311-0.348,1.851c-0.153,0.541-0.384,0.81-0.693,0.81
			c-0.387,0-0.655-0.269-0.81-0.81c-0.232-0.54-0.348-1.156-0.348-1.851c0-0.693,0.115-1.313,0.348-1.851
			C749.577,289.85,749.846,289.58,750.232,289.58z M743.983,289.35c0.233,0.54,0.349,1.195,0.349,1.966
			c0,0.694-0.115,1.313-0.349,1.852c-0.23,0.542-0.502,0.811-0.809,0.811c-0.308,0-0.579-0.269-0.81-0.811
			c-0.153-0.538-0.232-1.157-0.232-1.852c0-0.771,0.079-1.426,0.232-1.966c0.23-0.463,0.502-0.693,0.81-0.693
			C743.481,288.656,743.753,288.887,743.983,289.35z M748.266,300.227c0,0.694-0.115,1.311-0.348,1.851
			c-0.23,0.617-0.499,0.925-0.809,0.925c-0.311,0-0.579-0.308-0.812-0.925c-0.154-0.54-0.23-1.156-0.23-1.851
			c0-0.696,0.076-1.311,0.23-1.854c0.232-0.537,0.501-0.809,0.812-0.809c0.31,0,0.578,0.271,0.809,0.809
			C748.15,298.916,748.266,299.53,748.266,300.227z M735.884,315.036c-1.08-7.867-1.541-16.199-1.388-24.992l7.406,6.712
			L735.884,315.036z M742.944,283.216l-3.241-25.34c-2.007,5.171-3.355,11.494-4.05,18.977L742.944,283.216z M751.505,282.753
			l5.324-27.073c2.313,5.552,3.625,12.108,3.932,19.67L751.505,282.753z M759.488,311.219c1.774-7.945,2.394-15.892,1.852-23.838
			l-8.794,8.218L759.488,311.219z M746.298,338.063l-0.694-30.199l-6.942,18.513C740.745,332.625,743.29,336.521,746.298,338.063z
			 M757.407,320.243l-5.785-12.149v26.612C754.707,329.538,756.635,324.718,757.407,320.243z M526.453,322.211l13.307-27.887
			c-6.323-3.162-12.688-4.357-19.092-3.587L526.453,322.211z M550.984,305.895c4.938,7.096,7.831,14.85,8.679,23.259l-22.448,4.511
			L550.984,305.895z M529.115,327.533c0.541,0.54,0.81,1.195,0.81,1.966s-0.269,1.467-0.81,2.084
			c-0.616,0.54-1.311,0.809-2.083,0.809c-0.771,0-1.426-0.269-1.966-0.809c-0.541-0.617-0.81-1.313-0.81-2.084
			s0.269-1.426,0.81-1.966c0.54-0.54,1.195-0.812,1.966-0.812C527.805,326.722,528.499,326.993,529.115,327.533z M515.461,333.897
			c0.543,0.616,0.812,1.311,0.812,2.081c0,0.85-0.269,1.582-0.812,2.199c-0.614,0.693-1.387,1.041-2.313,1.041
			c-0.771,0-1.503-0.348-2.197-1.041c-0.542-0.617-0.812-1.35-0.812-2.199c0-0.771,0.27-1.465,0.812-2.081
			c0.694-0.617,1.427-0.927,2.197-0.927C514.074,332.971,514.847,333.28,515.461,333.897z M519.396,351.947
			c0.54,0.616,0.812,1.272,0.812,1.966c0,0.696-0.271,1.311-0.812,1.854c-0.463,0.537-1.077,0.809-1.851,0.809
			c-0.693,0-1.311-0.271-1.851-0.809c-0.54-0.543-0.812-1.157-0.812-1.854c0-0.693,0.271-1.35,0.812-1.966
			c0.54-0.54,1.157-0.81,1.851-0.81C518.318,351.138,518.933,351.407,519.396,351.947z M529,345.931
			c0.617-0.542,1.312-0.811,2.082-0.811c0.772,0,1.467,0.269,2.083,0.811c0.54,0.615,0.81,1.312,0.81,2.082s-0.27,1.467-0.81,2.083
			c-0.616,0.617-1.311,0.925-2.083,0.925c-0.771,0-1.465-0.308-2.082-0.925c-0.693-0.616-1.041-1.313-1.041-2.083
			S528.307,346.546,529,345.931z M522.173,393.717l4.629-32.744l15.505,23.487C536.442,390.016,529.732,393.1,522.173,393.717z
			 M493.246,375.782l21.637-16.314l-5.438,31.819C502.58,388.279,497.181,383.111,493.246,375.782z M536.867,350.211l13.885,24.299
			c5.015-8.793,8.022-17.935,9.026-27.422L536.867,350.211z M491.396,314.806l21.406,12.265l-5.556-30.314
			c-5.476,4.009-10.375,8.946-14.693,14.809"/>
	</g>
	<g>
		<path id="Layer0_0_4_STROKES" fill="none" stroke="#1D1D1D" stroke-linecap="round" stroke-linejoin="round" d="M612.655,41.851
			c-25.916,1.697-42.54,9.835-49.869,24.414 M675.37,148.996l0.579,1.273 M360.53,317.583c7.174,10.027,13.345,20.095,18.513,30.199
			 M403.341,346.51c-7.868-9.799-14.579-19.634-20.132-29.506 M169.15,340.955c0.925-9.564,2.544-19.363,4.859-29.391
			 M158.736,309.599l-5.555,29.505"/>
	</g>
	<g>
		<path id="Layer0_0_5_STROKES" fill="none" stroke="#444444" stroke-linecap="round" stroke-linejoin="round" d="M565.911,144.599
			l11.224-50.564c3.701-17.125,12.65-26.381,26.843-27.77l39.573-3.239 M238.111,164.386c4.783-5.168,9.412-10.067,13.885-14.695
			c10.799-11.417,20.442-21.252,28.927-29.505c16.044-15.891,31.434-29.891,46.167-42.001c1.851-1.467,3.895-2.854,6.132-4.166
			c2.391-1.234,4.32-2.044,5.786-2.43c30.315-3.009,63.871-4.551,100.665-4.628c32.167-0.078,68.886,1.002,110.154,3.239
			c3.008,0.154,4.436,1.504,4.28,4.05l-28.694,87.822c-0.543,2.7-2.662,4.28-6.364,4.744l-106.22-0.694 M627.352,156.748
			l39.341-10.76 M574.472,171.097l9.026-2.431 M656.394,66.381c10.261,0.694,19.169,3.008,26.729,6.942
			c7.869,4.088,14.425,10.067,19.67,17.935c9.103,13.653,15.544,26.613,19.324,38.877l-41.193,9.835 M337.042,165.773l-44.084-0.347
			"/>
	</g>
	<g>
		<path id="Layer0_0_6_STROKES" fill="none" stroke="#737373" stroke-linecap="round" stroke-linejoin="round" d="M675.949,150.269
			l12.033,25.224l0.23,4.281l0.349,6.479l2.66,51.952 M474.618,207.428l53.341-35.521 M562.207,182.436l9.721,31.704l2.429,49.061
			 M690.991,246.769l-5.671,44.201l-6.248,10.875 M575.283,272.688l-0.115,53.688"/>
	</g>
	<g>
		
			<path id="Layer0_0_7_STROKES" fill="none" stroke="#999999" stroke-linecap="round" stroke-linejoin="round" stroke-opacity="0.5098" d="
			M458.649,257.182l28.349-3.471h0.115c10.26,1.62,18.436,6.402,24.531,14.348"/>
	</g>
	<g>
		<path id="Layer0_0_8_STROKES" fill="none" stroke="#CCCCCC" stroke-linecap="round" stroke-linejoin="round" d="M462.354,174.683
			c-15.352,5.863-30.2,13.846-44.549,23.952 M244.822,173.873c-11.879,6.172-21.368,12.998-28.464,20.48"/>
	</g>
</g>
</svg>
