<svg xmlns="http://www.w3.org/2000/svg" viewBox="0 0 103.75 137.05"><path fill-rule="evenodd" d="M58.45 3.6l-.1-.3q0-1.7 2.05-.9l.25.1q.6-.6 2.25.85l1.45.7q2.75 1.6 3 2.7h-.3l-4.2-2.6L61.15 3q-2.2-1.2-2.65 0l-.05.55v.05-.05L58.5 3q.45-1.2 2.65 0l1.7 1.15 4.2 2.6-.1.15v.35l.4 1.35.4.95.55.8.05.05-.3.65-.55 1.25.05.3h.05v.1q-1.05 1.65-1.05 3.2v.35l.1.15q0 .2.45.2l2.15-4.45v-.2l.15-.35.8.5.15-.05-.2.45q-1.9 3.7-1.9 5.4l.05.6-1.1 3.6q-.25.5-.25 1.95v1.5l.15.7q-1.1 1.9-2.1 4.2 0 .3.3.5.4.3.85.3t1.15-1.2h.2q.55 0 1.15-2l.15-.6.15-.1-.1-.15.2-.95.65-1.5q0-1.45-.6-1.25-.3-.8-1-1.4l1.25-3.15.1-.05v-.2l.4-1.05.15.25q.15.3.6.25-.55 1.85-.55 3.75l.3.7.5.4.25-1.2.2 1.2v.45l-.1.65q0 .5.35 1.4.45 1.15 1 1.15h.15l.45.25-.45.3q-.55.4-.55 1.5l.35 1.15-1.85 2.95 1.85-2.95.15.3q-1.25 1.45-1.25 2.4l.2.35-.5-.15-.45.05-.35.15-1.7-.45 1.7.45-.4.55-1.1-.9-.2-.1-.15-.1-.1-.05-.25.25q-.6.35-1.75.35l-.6-.15-.15-.05-.2-.35-.2-.3-.75.1q-.05-1.15.7-3-.75 1.85-.7 3h-.1v.7q-.15.85-1.1.85l.05.05.2.4-1.3-.1 1.3.1.1.2-.1 1.15-1.2.05 1.2-.05q-.15.75.2 1.15l-1.05.15 1.05-.15.05.05 1 .95-1.1.65 1.1-.65.85.7 1.3.9 2.4 1.35q.6.45 1.6.45 2.45 0 6-1.4l.8.7-.8-.7 1.15-.5.1-.05 1.05-.1.4-.1q1.15-.3 2-.9l.5-.45.7-.8q.75-1 1-2l.1-.9q0-1.25-1.05-2.3l-.7-.6-.4-.25-.15-.05-.55-.15q-.6.05-1.05.55h-.2l-.15-.05-.2.15-.5.05h-.05l-.4-.05-.05-.35v-.1q.2-1.65 1.15-1.3l.55.3h1.2q1.4.5 2.1.55l.7.3.65.25-1.95.75 1.95-.75h.1q.35 0 .65-.3l.1-.15.2-.55-.05-.3-.85-.45.35-.15.1-.2.45.05q.2 0 .4-.2l.3-.25h.55l.35.1.8.15.15.05.15.1-.05.2-.05.1L87 31.4l-.6.8.45.35h-.1l.35.8.05.25-1.3 1.1-2.05.1 2.05-.1-1.2 1.4v-.7l-.15.35-.3.65-.15.15V37.1l-.5.85-.55.45-1.65.8h-.05l-.2-.15-.05-.05-.1-.15v.2l-.15.65v.05l-1.2-.8 1.2.8-.05.05q-.3.55-1.15.55l-.15-.05-.45-.35-.1-.15-1.2.6-.85.35L76 41h-.65l-1.25.5 1.25-.5H76l-.25.15-1.65.35h-.55l-.7-.1-.45-.1v.55l-.05.15q-.15.35-.55.35l-1.5-.1q-1.25-.15-2.3-.6l.55 1.1q.9 1.55 1.65 1.55l.75-.2.45.35q.2 0 .4-.25l.2-.3.15.05 1.45.95.8.8-.05.3q0 .65.8 1.65.55.65 1.25 1l-1.5-.3-3.05-1.1-.05-.5q0-.85-.95-.6l-.75.15-.95-1-3.95-3.9-1.35-1.15-.8-.55-.6-.7-.1-.1.45-.1-.35.2.35-.2h.25l.8.1.35.15-.15-.25-.4-.45-.45-.55-.25-.4v-.05l-.3-.5-.05-.1v-.05l-.05-.05-.2-.55-.15-.35v-.15l-.1-.45-.05-.2v-.25l.15-.6.4-.45.15-.05-.55-.6v-.1l-.4-.65.4.65v.1l-.25-.5-.15-.25-.35-1.25.8.65.3.95q.2.5.65.6 1-1.8 1-2.65l-.05-.3.75-.8.25-.25 1-1.3-.2-.45.55-1.2-.55 1.2-.35-.25.35-.55.2-.4.3-.6.25-.9v-.45l-.4-1.25-.3-.6.3.6-.35-.6H66l.55-.55q0-1.1-1.95-2.2-2.05-1.15-3.15.7.5.9 1.05.8l-.05.1-.4.35-.4.8.4-.8.4-.35-.4.55-.4.6-.4.45.3 1.35.1.45v.4l.4.6.15.15q-2.2-.35-2.45 1.25L59.4 26q-.5-3.45 1.25-6.15-1.75 2.7-1.25 6.15l-.35-1.75-.2-.3-.1-.95q0-1.1 1.9-3.15l.75-.7.3-.3.05-.15.05-.2.6-1.3-.05-.1q-.25-.45-.25-1.35l.1-1.1-.1 1.1-.05-.4.15-.7.55-.65q-.35.6-.35 1.15 0 .9.65.9l.8-1.05.75-1.25.25.5q.2.25.55.25.6 0 1.3-1.1l.65-1.05q0-1.1-.85-1.05l-.4-1.05.4 1.05-.4.05-.15-.15-.35-.5.5-.45.05-.05q0-.5-1.4-2.3l-.05-.05-.05-.1-1.4-1.35-1.3-1.35Q60.4 3.8 58.45 3.6M71.7 9.45l.8-.05-.65.7q-.2-.1-.7.6l.05-.2-.5-.8 1-.25m2.2-.15l-.05-.15 2.3.1q1.4-1.7 2.3.5l-1.5-.25-.4-.05-.45.55-1.45 3.15-1.05 2.9q-.6 1.15-.65 2.15l-.15-.65.3-1.4-.45.9q-.3.45-.85 2.1h-.1l.3-1.05.9-2.9.1-.3.35-.1q.5 0 .8-.65l.15-.55-.2-.9.55-.95q.6-.9.6-1.35l-.2-1.1h-.5l-.6.65-.05-.65h.65-.65m5.4.65q.75-1.55 3.35-5.3 1.95-3.35 4.1-3.5 1.25-.1 2.65 1l1.75 2 .15-.05q.55-.15 1 .55l.55 1.85.3 3.75.1 2.5-.25.8q.65.9.65 1.65v.05l-.05.45h.3l.8.7q.7 1.1.7 2.5 0 .7-.45 1.25l-.15.2-.05-.1-.55-1.7-.35-1.9q-.3-1.25-1.1-1.15l-.4 1.1-.3.95-.6 1.6-1.05 1.95-.35.55-.5.05-1.2.15-.25.25-1.25-1.3q-.8-1-2.45-.15l-1 .7-.55.3q-.15-1.4-1.1-2.65v-.45l-.2-.05-.2-.05-1-.85q-1.25-1.05-2.4-.95-1 .1-1.9 1l.55-1.3 1.2-2.45-.15.75v.3l.15.15.45.1q.45 0 1-1.85l.2-.5.35-1.35q1.7-5.35 4.05-8.15 1.45-1.75 2.9-2.2-1.45.45-2.9 2.2-2.35 2.8-4.05 8.15 0-1.65-.8-.5-.45.6-.8 1.65-.1-1-1.35.85l.4-1q.55 0 .7-.7l.1-.75-.25-.85q-.1-1-.75-.1l-.1-.6 1.5.25.35 1.3.5-1.1.5.15-.5-.15m17.2 19.5q1.4 1.25 1.4 1.95 0 .3.35 1.25l-.15-.15-.1.1-.1.2-1.4-3.35 1.4 3.35v.15l-.15-.5q-1.15-3-2.05-3.6l.8.6m5.6 17.15q.7.9.85 2.65l-.25.05-.25.3-.4.9H102l.2-1.95V47.5l-.1-.9m.25 14.4l-.15 4.75q-.5 8.35-1.95 9.2v-.2l.1-.65.05-1.4.1-.15.45-1.35.3-2.15-.3-1.2-.15-.2v-.15l.95-3.95.6-2.55q-.45 3.1-1.3 6.15l-.1.7.1-.7q.85-3.05 1.3-6.15m-2.1 14.2l.25 1.1-.4 5.1q-.05-.6-.45-.85l.05-.4.5-1.25-.2-1.35.1-.75.15-1.6m-.15 6.45l-.15 1.6q-.7 5.8-1.85 6.85l.9-5.85-.9 5.85q-.2.1-.35.15-.3-.35-.9-.4h-.4l-.1-.1-.05-.05-.15-.1-.2.35q-.7.3-1.15 1.4l-2.05 1.55-2.65 1.3q-.5 0-1 .65l.65-1.35-.65 1.35-.1.15.5-1.35.25-.15.45-.35q1.3-.85 2.3-1.25.2.15.35.15.5 0 .7-.55l.7-.05.05-.6q.55-.15.5-.95l-.25-1.1q0-.5.4-1.35l.45-1.5-.15-.8-.05-.35.45-.25v.05q0 .25.5.25t.85-.45q.3.3.75.3l.6-.45H99q.7-.2.85-1.15v-1.05l.25-.4m-2.9 13.7v.5l-.15.35.15-.85-.15.85-.4.45v.05h-.05l-1.1 5.7-.4 2-.15.7-.4 1.75.1-2.95 1.3-6-.05-.4-1 1.15v.1l-.35.75q-.35.35-.8.35h-.05l-2.15 1.65q-.8 0-1.05-.8l-.05-.75.05-.4.55-.55-.05-.25q-.8-.25-1.05.6l-.2-.1-.45-.15.25.7-.05.2-1.15.15-.1.1-.1.4q0 .5.9 1.15l.05.6.3 3.5h.1l.15-.05q1.35-.4 1.35.95l-.5 1-.05-.45-.7.35-.7.5v-.35q-.4-2.85-1.9-2.85l-.05.15-.1.4.5 2.15.2 1.2-1.25.2h-.1q-.3-1.3-.8-2.25l-.5-2.45q0-.65.4-1.3.4-.55.9-.6l-.1-2.1-.05-.1-.3.25-.6 1.25H85q-.6 0-1.1.75l-.35.3.05-.4-.1-1.85q0-.6.65-1.75l.75-1.45-.15-1 .2-.45.75-.35.5-.35.25-.35-.05.25q0 .55.15.45v.1l-.35.8.15.55.45.1.9-.9.3.1.5-.35-.25.7-.25.8.05.35-.65.4.85-1.55-.85 1.55-.15.1v.2l-.1.2-.05.1-.85 1.55.85-1.55v.05l.6.05.65-.2.35.05h.25l-.3-.35.3.05q.85 0 1.1-.7l.25-1 .65.15 1-.55.8-.55.8.3L94 96l1.05.25.15.1.3.3.1-.1q.15.2.35.2l.5-.85.6-.9.15.35m-2.85 35.75l-1.65.5h-.35l.25-.3 1.75-.2-1.75.2.25-.2-.2-.45.8.2 2.15-.75.25-.05-.4.3-1.1.75m-17.65-5.05l.6.95-.6-.8v-.15.15l.6.8 1.5 2.7q1 2.1 1 3.45l-.05.8q-.4-.4-.95-.4-.3 0-.6.25-.15.05-.35.2l-.6-.15.2-.7-.15-.7q-.3-.4-1.15-.4v-.45l-1-2.5-.65.6q0 .8.3 1.95l.1.45q-.8.15-1.05.6l-1.05 1.7-.15-.45-.3-.4.05-.95v-1.5l-.05-2.05q-1.45-.1-1.6 1.55l-.05.45-.25.55V132.45l-.3-.8q-.2-.6-.7-.6-.55 0-.65.65l.05.75v.05l-.65-.9q-.35-.3-.35-.65l.2-.85.2-.8q0-1.65-.75-.5l-.55 1v-.85l.05-.5q.2-1 1.05-1.55l.05-.05q2.45-1.4 3.85-1.5l.7.05.2.05q1.45.5 1.9.9.45.35 1.55-.75l.4.45m.4 10.05h-1.25l.15-.15.1-.2.35.15.65.2m-2.25 0l-.35-.05h-.1l.35-.15.1.15h-.35.35v.05m-12.75-9.4q-.65.75-1.45.85h-.2q-.65 0-.9-.45l-.1-.25.45.3 1.55-.25.4-.15.25-.05m-5.5 6l-.8.1h-.1l1.05-.3.95-.3q-.55.35-1.1.5l-.9.1.9-.1m-1.4.1q-1.95-.1-3.7-.8h.4l.3-.1 1.25.6.45.1.85.15.45.05m-23.1-25.7l-.05-1.2.05-.35.1-.15.45.2.1.1q.95.5 1.05 1.85l.05 1q.15-.75.4-.45l.8 2.2.45 1.3.1.5.5 2.85.4 3-.05.2-.25.2.45.4.35-.25.2-.35q.15-.35.7-.35h.1q.65.15 3.8 4.5 2.25 1.1 4.25 1.1l.8-.25q.2-.3.6-.3l.4.1.15.1v.45l-.35.6q-.45.4-1.1.55l.25.25.5 1.05-.1.55-.85.25h-.55l-.6-.25q0-1.3-.55-1.85l.45-.15q-1-.25-2.35-.9l.45.65q-.95-.15-1.7-.7l-.7-.65-2-2.4q-1.55-1.7-2.8-1.8l-.1.25-.1.55q0 .6 2.9 3.8l-.65-.4-.35-.2.55 1.15-.4.45-.15.1-1-1.1-1.45-2.05q-1.4-2.15-1.45-2.6l-.15-1.05-.85-1.15.05-.4h.05l-.05-.1-.25-.55-.55-1.4-.15-1.35.05-.6.2-.2.9-.3-.9-4.15 1.05-.1-.55-1.7.55 1.7-1.05.1-.05-.3m.05-15.3q.3-1.85 1.25-3.75l2.1-3.2.6-.65q-.15.5-.15 1.1v1.25l-.2 1.15q.25.05.35.65V89l-.2.3-.7 1.1-.15.4-.3.4-.1.15q-.95 1.85-1.2 3.8l-.05.7v4.35q-.1 2.75-.8 2.75l-.3-.2q-.2-.35-.25-1.3v-4.7l.15-1.15.1-.5-.25-.5-.05-1.2.15-1.6m6-14.4l.7-3.4q.45-1.95 1.55-4.35l.7-1.4.8-1.65.65 1.85.2 1.95.15.4-.1-.05q-1.1-1-.95.8l-.55-.2-.5-.15q-.5 0-1.8 3.55l-.1.15-.05.35-.45 1.4q1.15-4.45 2.7-8.4-1.55 3.95-2.7 8.4l-.25.75m6.9-17.8l1.7-4q.3-.8 2.15-2.35l.3-.2-.35.65-.25.65q-.6.35-.6 1.15l.05.4.05.05-.9 1.1-.25.4q-.15-.7-1.2.95l-.15.25-.1.2-.4.65.5-.85-.5.85-.05.1m6.45-9.15l.05-.4q.15-.9.45-1.15l.9-.6-.9 1.3-.3.6-.5 1.25-.05-.15.05-.1.3-.75.2-.25-.2.25m15-24.2l.2-1.5-.2 1.5h-.35.35m-.35 5.95l-.55.55.55-.55M58.5 3q3.9 1.6 6.15 4.75Q62.4 4.6 58.5 3m12 11.65l.2-.6.25-.6h.25l.6-.15.15-.15-1.8 3.65.45-1.3-.1-.85m4.55-5.35l1.5.15-1.5-.15m-7 1.75q-.15-1.55-2.15-3.9l-3.05-3 3.05 3q2 2.35 2.15 3.9m13.45 12.2l.45.1.35-.05.2-.15q.45.35 2.15.65l2.2.35.45.95-.05.25.15.4v.15q-.3.25-.8.25l-.7-.25-.1-.1-.5-.25-.1.45-.25.4-.3.25-.05-.1.05-.2-.15-.2-.55-.7q-.85-.7-1.7.2l-.65.6-2.4.4.6-.45 1.35-1.2q0-.9-.2-.75l-.4.3.45-.8-.45.8-1.2.9-.55.35q-.25.15-.5.2l.1-.05.3-.3 1.9-1.5.25-.25.15-.15.05-.1.45-.4m-20 6.5l-.55.05-.8-1.5h.05l.9 1 .4.45m.8 5.85h-.1.1l-.1-1.5.1 1.5-.1.15.1-.15.25 1.05-.25-1.05m.8-.1l.15.05.15-.05.05-.15-.05-.15-.15-.05-.15.05-.05.15.05.15m1.65 3.75l-.7-.45.7.45.85-.85-.85.85-.9 1 .9-1 1.05.3q2.35 3.2 6.55 2.45-4.2.75-6.55-2.45l-1.05-.3M60.7 41.3l.35.05.2-.35v.4l.1.85-.55.55-.15-1.25.05-.25m-.55 3.3l-.05.4-.1.6-.65 1.1.65-1.1-.25 1.55-.75 1.2.6-1.2-.25-.45-.1-.15.7-2.05-.7 2.05-.25-.4.35-.85-.3-.85.8.05h.1l.2.1m-1.8 44.45l-.25-1.45-.15-.75.1-1.45V85.25h.1l.6-.25-.05-.45.3-.3q1.45 1.55 5.2 1.55l.5-.45.55.05.2.1v.2q-.15.1-.2.15-.3.15-.55.4-.75.8-.75 1.65t.5 1.8l.35.55-.05.3-.2 1.4.15.45.05.75v.1l-.2 3.2q-.55-.65-1.65-.9l-.8-1.15-1.65-2.35-1.4-2.35q-.45-.65-.7-.65m6.05-6.5q-.4-.8-1.35-.8l-.5.2-.7-.25.1-.25.2-.5q0-2.25-1.3-3.65-.65-.65-.95-.4v-.5q.35-2.1.2-4.1v-.4q.4.7 1.5 1.4.65.4 2.85 1.4l.85-.8-.4-1.1.65.4 1.35 1.1.15-.2-.3.45q-.6 1.1-.6 2.75v.2l-.4.6-.2 1.4.05.35.25 1.2-.2 1.9-1.25-.4M61.25 70.4l.45-.2.35.45-.8-.25m.35-3.25l-.5-1-1.65-3.25-.4-.5-.1-2.55.1-.1q.1.5.7 1.05l.15.2-.1.6.05.4-.05.45q0 .5 1.4 3.3l1.25 2.35-.85-.95m-.2-8.25q-1.5-2.25-1.5-4.45l-.2-.75.05-.05q1.1-.05 1.6-1.4l.05-.25 1.1.95.55.95H63q-2.3-1.1-2.3 2.4 0 .85.15 1.45l.1.15q.15.15.6.15.25 0 .55-.35l.4-.45.55.6 1 .2 1.1-.15.1-.2.05-.55v-.3q2.15 2.3 4.55 2.75l-.65.85-.1.7q-.45-.25-.75-.45-.7-.5-.7-1l.05-.3-.3.1.05.75q.6.75.6 2.95l-.05.55-.5-.5q-2.8-2.6-4.3-3.2-1.05-.45-1.8-1.15m5.45-3.75l-.9-.95-1.6-2.05-.95-1.6q-1.55-2.35-1.55-2.7l-.25-.75-.45-.95.4-2.7.5 1.3.1.1.6 1.45q0 .55.3.8 0 .75 1 2.25l1.5 1.8.6-.55q0-.8-.75-1.55l1.45.3q1.25 0 3.1 1.4l.6.45-.2.2q-.6.05-.9.45l.55.05q2 .55 2 1.95l-.35.8q-.4.65-1.1.65l-.45-.45-1.5-.6q-.65 0-1.25.45l-.5.45m-18.1 3.7l.05.35-.05 1.3-.3-.25-.25-.35.15-.85.1-.4.3.2m1.1 3.75l.1-1.15v-3.5l.15-1 .45 2.35q.15 1.5.65 2.5l-.45 2.2q0 .5.35 1.5l.3.8.1 2.85v1.2l-.2-.15-.1-.1-.1-.05Q49 68.6 49 65.95l-.2-.65-.2-.55-.2-.15q-.35 0-.75-.45l.15-.45.6-.05.6 1.7q.6 1.4 1.55 1.4.5 0 .6-.45v-.5l-1.3-3.2m1.65-10.15h.2l.65-.45.4-.4h.05q-1 2.05-1 4l-.15.55q-.55-.15-.7-.65l-.2-.7.95-1.7-.2-.65M44.65 64.7h.1l.15.05.2 1.15-.4 2.35q0 .6.25 1.25.3.95 1 .85l-.3 1.5v.3l-.3-1.05q-.4-1.45-1.05-2.1v-.85l.35-3.45m1.15 7.95l.45.1.5-.2-.25 1.7-.1.05-.2-.4-.4-1.25m1.85-1.8l.1-.35.1-.2v-.1l.15-.5v1.35l-.35-.2m.8 1.55l.7.15.15.8.1.6v.45q-.3 0-.55.3l-.25-.95-.15-1.35m1.5 2.45h.4l.05.7.1.55-.15.4-.1-.1-.3-1.55m-4.2-16.45l3.1-4.7-3.1 4.7m-1.9 15l1.4 3.2-.35-.25q-.6-.45-1.5-.55l.3-1.55.15-.85m1.8 3.95l.05.15h-.05v-.15m1.4.65l-.85-2.1h.1l.15.15.6-.55H47l.05-.1.45-.55.35 1.4.15.4v.3l.1.55h.5l.55-.2.4 2.1.2.3v.05l-.35 1.2-1-1.55-1.35-1.4m25.9-27.35q1.35-.05 2.35-.9l.8-.45-.25.1.15.75-.25.65q-.3.4-.85.4-.7 0-1.95-.55m-.75 8.55l-.25.3-.1.05-.2-.05v-.05l.35-.3.2.05m-5.05 11.45l.2.45v.2h-.95q-.8 0-3.25-2.5l.75-.9q0-.75-1-2.85l1 .6q2.45 1.55 4.05 2.2l-.1.7-.2.3q-.55.75-.55 1.35l.05.45M70.2 82.5l.15-1.8v-.45l-.2-.8.15-.05.95-.3.2-.5q.25-1.1 1.15-1.95l-1.5 4.7-.9 1.15m-3.1-17.4l-.5-.15.05-.4.45.55M86.65 2.95l.6-.3q3.1 0 3.55 5.6l.1 1.85-.4-1.05v-.6q0-2.4-.4-1.7-.55-2.9-2-3.65l-1.45-.15 1.45.15q1.45.75 2 3.65l-.15.35-.3-1.5q-.5-1.8-1.2-1.3-.5-.7-.9-.7-1.25 0-2.6 1.5 1-1.65 1.7-2.15m3.95 9.95l-.4 1.8-.1.25h-.05v.1l-.25.6-.05.35v.1l.05.7-.25.05-.1-1.35-.05-.5h.15l.45-.4.35-1.15.1-.8.15.25m-3.75 1.75l.05-.1q.7-1 .7-1.85l-.1-1.75q0-.85.35-2.25l.8-1.25-.1.8.5 1.75.05.2q-.35 1.7-.35 3.15l.05.45.05.1h-.1q-.55 0-.7.6l-.2.8-1-.65M91.3 4.1l.55 1.8q.85 3.15.7 7.6l-.2 3.1.2-3.1q.15-4.45-.7-7.6l-.55-1.8m-10 9.65h-.05l-.05.15-.05.4q0 .35 1.5 1.4 1.45 1.1 2.25 1.1l.35-.2.2-.5q.4 0 1.15 1.4.7 1.15 1.6.5l.2.7q.3.45 1.55.45.3 0 .5-.25h.05q1.1 0 1.35-2.55V15.2l.3-1.35-.1-2.6q0-4.35-1.25-6.9-1.15-2.5-3-2.6-1.95-.1-3.75 2.25-1.2 1.5-2.1 3.85l-.55.75q-1.6 2.6-1.6 3.55l.25.75q.3.4.55.4l.95-1.2-.35 1.1-.05.2.2.1-.05.25.05-.25.6.4-.65-.15m8.5 1.9l.2-1.05-.2 1.05m1.9 5.65l.3-.6h.05v.7l.05.15-.4-.25m.6.6l.05.05h-.05v-.05m1.6-6.2l.85 3.1.2 1.35-.2-1.35-.85-3.1m-1.35-2.2l1.1 1.7-1.1-1.7m-3 3.35l.2-.75-.2.75m5.05 7.6l.2.25-.25-.05.05-.2m.3.5l.1.4v.1l-.1-.5m-.15 1.75l-.1.55-.45.8.4.1.15.1-.25.2.1-.3-.1.3-1.45 1 .45-.6 1.25-2.15M93.5 26l-1.8 3.05v-.2l.05-.2-.05-.05-.05-.1-.45-1.25q-.2-1.1-1.1-2h.1q.3.55.7.55l.45-.15.1-.3.3 1.75.1.1.45.1q.65 0 .75-1.35v-.4l.45.45m.85 5.8l.3-.5 1.85 3 .25.5.5 1.25-.35-.1-.05.15-.1.4.2.9-.5.25-.3.15q0-1.45-.35-2.45l.55-.6-.2-.25q-.7-.6-1.7-2.5l-.05-.05-.05-.15m5.8 13.15q.5 3.3.5 5.95l-.15 1.35q-.45.85-.95.85l-1.8-.25q-.55 0-1.45 1.5l-.75 1.1.9.7q.4.45.4 1.1v.15l-1.25 1.95.2.3.5.05 1.15.5q1.25.5 2 .5l1.8-.05-.3 1.5-.95 4.2-.25 1-.15.15q-.5.15-1.15.5l-.15-.15-.05.1-.15.3-1.45 1-2.5 1.5Q92.3 72 92.3 72.55q0 .5.55.9.7.4 1.9.4l.4.25.1.15-.2.1-1.1.85-.3-.1q-.3 0-.8.95-.3 0-1 .7l-.2.25-1.05.2.1-.45.3-1.05-.65-.5-.05-.6q0-1.4.35-1.85.35-.4 1.25-.55l.25-1.25q0-.6-1-1.7 3.45-1.4 3.9-1.7l2.4-3.15-1.25-.75-1.1-.65v-.05l1.05-2.05-.1-.7q-.7-.1-1-.9v-.25h-.35l-.75.25q-.75 0-1-.55l-.1-.6q0-.7 2.55-2.8l-2.5-.25.5-1.45q0-1.35-.6-1.7l-.15-.5.1.2 1.2-.9q1.85-1.6 2.25-1.6 1.4 0 2.75-2.55h.15q.3 0 1.05-1.65M99 57.4l.25.3h.05l-.2.2-.6-.15.5-.35m2.3 1.2l.5-.65h.15l-.3.9-.35-.25m-2.1 14.7l-.1 1.95-.2 1.65-1.05.5q-2.15 1.5-3.55 4.95l.05.2q-.3.6-.3 1.35l.1.4q-.25.15-.35.55-.45 1.4-.95 1.8-.4.35-.95 1.8-.4 1.1-.45 1.55l-.25-.05-.5-.2h-.05l.25-.7.4-.7q0-.65-.55-.55l-.05-.05.1-.3.25-1.05q0-1.45-1.65 2.45v.05l-.65-.25.2-.7q0-1.05-.45-.6.15-.95.75-2.1l.1-.15V85l.1-.15q1.05-1.95 2.4-3.35 1.4-1.4 2.35-1.4l.25-.55Q93.1 85 91.2 89.95q1.9-4.95 3.25-10.4l.9-1.15-.15-.4-.1-.15.7-.65.4-.15.15-.25q0-.45-.4-.85l.05-.05 1.15-1 .3-.2q.2-.7.5-.95l.05-.05.05-.05.25-.05v-.2l.4-.4.25.2.25.1m-3.6-44.55l-.25-.1.05-.05.2.15m.15 12.75l.05.25-.5 1.15-.65 1.3-.85 2.7q-.9 1.65-3.3 1.65l-.35.2-.05.05.15-.2.75-1.75 2.3-2.35.9-1.25.15-.2.6-1.2.45.25.35-.6m-6.7-18.15l.85-.05.15 1.2-.8-1-.2-.15m-.6 5.7q-1.4.8-2.9 1.5 1.5-.7 2.9-1.5m-2.9 2.35l-.1-.55-.8.3.25.15.65.1m-6.75-5.6l-.4.15.4-.15m-.6 6l.6-.3-.25.45-.35-.15m3.9 5.8l1.45.35-1.45-.35m-1.35 2.2l-1.3.5 1.3-.5m21.45 8l.25 1.8-.25-1.8m-4 14.05l.15.35.1-.5-.25.15m2.15 12.25l.15-1.55-.15 1.55m-7.25 43.75l-.05 2.55-.1 1.3q-.1-1.65.15-3.85-.25 2.2-.15 3.85l-.05 1-.2 1.95q1.95.1 3.15 1.55l.3.4q-.45.1-.55.45v.9H95l-.2.05-.1-1.15q-.25-.7-1.5-1.2l-.1.15-.05.35.25 1.35.25.8-.35.15-1.75.45v-.25l-.25.05-.25-.25q-.5-.5-.85-.5l-.35.3q-.15.2-.4.2-.95 0-1.85-.55l-.1-.15.7-.15.05-.05v-.35l-.55-4.4-.05-.8q.8-.45 1.25-5.1l.35-5.15v-1.15q.65-.3 1.45-.65.6 0 .95.4.35.45.75.45l1.55-1.05-.75 2.8.15.8-.15 4.5m3.85 11.1v.1l-.15.25.15-.35M75.3 72.7l.55-.2.6.15v-.15l.1-.35.4-.15.25.7-.8 1.6.2.65.25.6-.3 1.4-.3-.4-.2.75-.5.4-.65.1.8-3.25q0-1.8-.7-.7l.3-1.15m-2.2 20.5q.4-1.25 2.2-.3l-.4.65.1.4q0 .2.45.2l.6-.15q1.45 5.1 5.35 5.65v.35l-.05 2.8.2.55.6.4q-.85.55-1 .95l.05.25.1.25.45.1.75-.15-.35 1.25v.05l-3.95 5.65 3.95-5.65q.05 1.2-1.45 2.95l-2.5 2.7-.1.15-.6.75-.65.15q-.05 0-.15.1l-.1.1-.35-.25-.15.2-.35-.8v-.1l-.25-2.85.25 2.85-.05-.05v-.2l-.15-.75v-.8l-.05-1.05-.05-1V108.4l-.05-1.3.05-1.5.1-.55.2.5-.05.35.1.35.1.05-.05.6.2 1.35.2 1.35q0 .5.15.45l.45.15.7-.55.3-.6-1-2.3-.2-.3h.1l1.85-.3 1.45-.4.1-.05.05-.35-1.8-.5q-1.35-.45-1.95-1.8.35-.25.75-.25l-1.15-1.1-.45-4.3q-.6-.3-1 .25l-.2.45-.65-1.8-.1-.1-.3-.8-.4-1.25q0-.55.15-.95l.65 3.1-.65-3.1m18.75 4.55q-.35.5-.4 1l.25-.15.15-.1v-.05l.4-1.1q-.25.05-.4.4m-3.9 13.3l.05.7-.15 2.25-.05.6-.7-2.45-.25-.65v-.15H87l.95-.3m-9.3-7.3l.15-.1 1.65-.5.25-.35h-.5q-1.1.75-1.4.75l-.25-.05.1.25m2.05 3.2q-.8.05-1.95 1.45-1 1.25-1.3 2.15l.05.2.1.25.45.15 2.7-3.75v-.3l-.05-.15m7.55 22.65l.7.1.1.4-.3-.2-.5-.3m4.7-20.3l-.65.1-.8-.1.1-.1q.3-.25.55-.25.55 0 .8.35m-2.35 2.85l-.3-.15.05.9v.35l.25-1.1m0 5l-.15-.05.05.75v.25l.1.05v-1M76 135.95l.45-.05-.45.05m-15.55-54.7l-.35-.05.05-.45.3.5m-7.4 2.3l.15.6q-.4-.3-.95-.3l-.15-.25.7-.4.25.35m.55 2.95l.05.15-.05.8-.4.5q.8.25 2.05 2.5l.05.1v.05l.05.1.45 1.15.05.35.1.1.25.1.35.85 1.75 4.1q-.55.05-.6.6v.15l-.1-.7q-.1-1.05-.85-1.05-.1 0-.25.1l.75 1.1q1.7 2.75 1.9 4l.05.3-.6.55-.55-.45-.25-.25-.15-.15-.4-.8-.2-.15q-.6-.55-1.5.7l-.35-.55q-.25-.3-.65-.3l-.15-.85 1-.6.6-.4.3-.55q0-1.35-1.9-3.05l-.1-.1q-.8-.65-1.25-.65l-1.4-2.9-.45.45-.65.45-.5-.15q-.1.05-.1-.45l-.25-1.9-.15-.55-.25-1-.65-1.4q-.5-1.2-1.8-1.25l-.05-.7q-.15-.4-.75-.4-.7 0-1.05 1.25-.15.7-.15 1.55l-.6-2.15q-.4-1.4-1.65-1.1l-.5-.7q-.15-.4-.55-.4-.35 0-.5.4v.55l-1.2-1.35q-.9-.8-.8.85l-.65-.4-.55-.3v.05l-.65-.35.1-.45.25-.1-.25.1.05-.25.2.15.3.1.4-.25q8.9-1.7 17 8.8-8.1-10.5-17-8.8Q39.4 80.9 39.4 79v-.1l.3.35q.45 1.6.9 2.1l.6-.65-.1-1.05 1.1-.9 1.25-1.4h.15l-.05 1.5.05 1.1.4.05.65-.05q.25 0 .3.2l.3.2.45-.1.15-.3.2.85q-.1.15.4.15l.65-.45.1-.65.45 1.1q.2.8 1.35 1.2l.15-.2-.1.4-.3-.1-.75-.05-.1.15-.05.4q0 .3.5.6l.65.3q.9 0 1.25-.65l.1-.75.05-.1.9 2.65q.7 1.45 1.75 2.4l.55-.65v-.05m4.85 6.3l-.05-.25.05.1v.15m-3.65.85l.2.4-.55-1.25.35.85m4.55 4.15l1.9 2.4q.85-.35.7-.95l-.2-.6.1.1q.2.3.55.3l.5-.25.3-.25q.35 0 .9.6l.45.3.15 1.9.15.65-.3.4q0 .8.5 1.3l1.1.6.15.1.5.85-.25-.1-.2-.3q-.65-.8-1.8-.8l-.4-.7q-.35-.65-1.1-.15-.4-2.2-1.2-1.65-.8.45-.8 1.7v.15l-.25.5-.05.15-.05.15-.65.05-.05.1-.1.4.55.45-.2.75.15.3v.05l-.35.8q0-1.4-.2-1.9l-.15-.45q-.1-2-.55-3.2l.1-1.6.35.55-.2-1.5v-.1l-.1-.6-.1-.05h-.05l-.1-.35h.05l.25-.1m-7.7-23.35l.1.95-.2-.85.1-.1m-15.2 15.5h.05l.4-.2.35 2.5-.8.55.05-1-.15-1.35.1-.5m2.25 17.45l.55-.25.45-1.4 1.1.85.85-.9q0-.4-.95-1.65l-.4-.55-.15-.2.25.05q.2 0 1.2-1.75v.1l.2.4.2.05q.05.6.4.85l.3.75.45-.2 1 .4.1-.15.25-.4v-.85q.45-.05.55-.35l.05-.2.05-.65.2 1.35.15.4q1.65.1 2.6 1.2l.65 1.15.25 1.4-.2.95-.25.45q-.25.4-.7.4l-.2-.1-.6-.5-.35-.5.05.15.4.8.05.15h.05l.25.1q.7.25 1.8 1.05l1.45 1.1 1.55-.15q.5 0 .5 1.35l-.15.45-.2.5-.15.2q-.55.65-1.25.65l-2.15-1.25q-3.7-2.35-3.7-3.15v-.15l.05-.4.15-.15.1-.05 1.45-.1H47l-2.55-1.7v-.1l-.15.05-1.45.55-.85.05-.4-.15-.3.45-.1-.65-1.15-1v1l-.05.4-.05.15q-.25.55-.7.55l-.5-.75-.05-.1m.9-4.7l-.35-.35v-.05l.05-.15.3.55m-.2-5.65v-.55l.25.05h.05l-.3.5M38.6 90l-.3-.95.35.1.9-.45.95-.7.55 1.1q.55.75 2.15.25.25 1.05 1.65 2.25l.15.2v.2l-.6-.15-.7.2-.65-.15q-.05-.55-.3-.25l-1.5-2.2q-1.65-1.85-1.6 1.25v.3l.15.15.4.1.6-.45.25-.65.45 1.35-.2.05q-.5.25-.65.95l-.15 1.4-.5-1.8q-.3-1.15-1.2-1.5 0-.9-.2-.6m21.8 21.4l.3-.25.25.75v.2q-.3-.45-.55-.4V111.4M45.75 89.95l.05-.3.05.75h-.05l-.05-.45m-.6 12.6l-.05-.25.05.8h.25l-.25-.55m-9 6l-.05-.25v-.1l-.05-.15-.25-1.35q.3.45.9.65l1 4.2-.1.05-.15-.3q-1.1-2-1.3-2.75m-1.8 7.45l-.5-1-.7-1.9q.4 1.7 1.1 3.2l.1-.1.05-.15-.05-.05m3.65 1.8q1.4 3.35 3.5 5.75-2.1-2.4-3.5-5.75m9.65 2.3l.2.4-.1.55-.05.05q-.25.6-1.05.6h-.3l-.3-.35.15-.3.05.05q.15-.15.3-.2l.8-.55.3-.25m13.7-13.8l.05-.05.1-.15h.05q.35 1.15.85 1.15l.35-.15.3.15h.05l.3.1.1.2q.45.7 1.25.7l.4-.05.4.25.45-.1.7-.1.5-.15.15-.25.45 1.05h.05l.2 1.05v.55l-.05.35-.35.5q.65.4.95 1.2v.2l.05.15.15 2.95.25.9-.3-.3-1.55-1.3q-.55-.9-1.5-1-.95-.05-.95 1.05l.05.55-.3-.65.3.65.05.15-.35-.8.05-.15.45-2.15q0-.8-.85-1.05l-.9.1-1-2.55-.15-.5-.05-.15q-.25-1.55-.65-2.2l-.05-.15.05.15-.1-.15h.05m-2.75-8.9l-.25-.05v-.2l.1-1.25.15 1.5m.45.5l.15.35-.15-.35m.35 1.1l1.35 5.05L59.4 99m3.55 13l-.4.25-.2-.3-.15-2.3v-.25l.55 1.8.2.8m-.85 2.75l.05.05.35.95-.2.4-.2-1.4m-2.75 9.05l-.05.4v.15q-.45 0-.7-.45l-.25-.35.05-.05.2.1.75.2m3.7 1.2l.05-1.05.2-.4.05.7v.1l-.25.6.25-.65-.25.65-.05.05m.4-11.2l-.1.15-.45-.95h.35l.2.8m-5.4 6.7v.65l-.1.45-2.25.7.25-.25V122H56l.4.05q.4 0 1.1-1.2l.55-.35m5.65-7.5h.1l-.05.2-.05-.2m2.25 5.7l1.9 2.2q.9-.55 1.5-1.65l.3-.55.05.2.75 3.15-.25 1.6q-.45 1.55-1.55 1.55-.85 0-1.2-.35l-.2-.65.2.65-.3-.5.1-.15.1-.2-.05-.35.1-.15.25-.75-1.7-4.05m-50.8-30.1l-1.25-2 .05-.35.1-.1q1.4.7 2.55 2.05l1 1.45 1.95 4.1 1.75 4.6 1.2 3.6v.45l-.2.3-.4.1q-.45 0-.9-.45l-.4-.5q-.6-.9-1.15-2.6l-.6-2.3-.45-1.9q-.55-2-2.4-5l-.2-.35-.1-.1-.55-1m10.2 20.3l-.4-.4-.15-.2.05-.05.5.55v.1m41.6 20.05q.35-1 1.15-2.1-.8 1.1-1.15 2.1m-7.05-4.15l.3-.3.25.3.4-.3-.2.85v.2l-.1.1-.25-.45-.4-.4m-6.7-1.15l-.15.05q-2.3.5-3.3 1.2l.05-.25-.05-.5.1-.1q1.2-.55 3.15-.55l.2.15m-3.7 2.3l.3.05 1.7-.1v.4l.2 1.4.2 1.35-.25.85-.85.6-1-1.85q-.4-.9-.4-1.8l.1-.9m2.65-.15l3.7-1.05 1.35.5 1.1.7-1.55-.4-.2-.05 1.9 1.2q1.45 1.25 1.45 3.05 0 .5-.7 1.2l.35-1.3-.1-1.35-.05-.05-.45-.15q-.5 0-.8 1.05l-.5 1.55-.2-.2-.5-.25q-.45 0-.6.45-.15.6-.8.8-.6-.7-1.4-1.3-.65-.5-.7-.5l-.4.2v-.8q0-1.5-.75-3.1l-.15-.2m3.65 2.65l.6 1.8q.45 0 .55-.55v-.65q0-1.3-.85-2.85t-.85-.05q0 .45.55 2.3m6.05-1.7q-.65.35-1.2.8.55-.45 1.2-.8m-9.7-4.25l1.2-.25 1.3.2h-1.4l-.6.65.35.4q-1.95 0-3.15.55l-.1.1-.05-.15.4-.35q.35-.2.75-.25l.85.05.6-.55-.15-.4m-4.9 5.9q.1.5.7 1.4-.7-.65-.75-1.15v-.05l.05-.2-.05.25.05-.25m4.65 3.6l1.55.5-1.55-.5" fill="#dc9a69"/><path fill-rule="evenodd" d="M67.05 6.75h.3q.85.2 1.45 1.45l-1.75-1.45L68.8 8.2l.05.05.15.1.85.6.75.6-.25.05L69 8.35l1.35 1.25.25-.05.1.15.5.8-.05.2q.5-.7.7-.6l.65-.7 1.4-.1.05.65.6-.65h.5l.2 1.1q0 .45-.6 1.35l-.55.95-.45-.05q-.6.35-1.5 1.85-1 1.85-1.55 3.65-.45.05-.6-.25l-.15-.25.3-.85 1.8-3.65-.15.15-.6.15h-.25l-.25.6-.2.6q-.3-.55-1.25 1.5l-.95 2.35-.05-.6q0-1.7 1.9-5.4l.2-.45-.15.05-.8-.5-.15.35v.2L67.1 16.6q-.45 0-.45-.2l-.1-.15v-.35q0-1.55 1.05-3.2v-.1h-.05l-.05-.3.55-1.25.3-.65-.05-.05-.55-.8-.4-.95-.4-1.35V6.9l.1-.15m28.05 14.6l.1.7-.05.25-.35.5-.5-2-.65-1q-1-1.2-1.1 1.95v.3l-.1-.05-.1-.05-.05-.05v-.05l-.2-.3-.05-.15v-.7H92l-.3.6-.3-.05-.55.1-.1.15-.1.3-.6-.15.35-.55 1.05-1.95.6-1.6.3-.95.4-1.1q.8-.1 1.1 1.15l.35 1.9.55 1.7.05.1.3 1 .05.95-.05-.95m3.15 11.3q1.55 1.7 2.85 8.25l1 5.7.1.9v1.05l-.2 1.95v.2l.05-.2.4-.9q.65 5.8-.1 11.4.75-5.6.1-11.4l.25-.3.25-.05.25 1.25.2 3.1v2.55l-.4 1.7-.65 3.15-.6 2.55-.95 3.95v.15l.05.65-.2 1.2v.55l-.25 2.65-.05 1.4-.1.65-.3 2.6.3-2.6v.45l-.15 1.6-.1.75-.05-.2q-.3-.6-1.05-.45l.2-1.65.1-1.95.1-.8q-.45-.2-.45-.75l-.1.25-.45.15h-.25q-.35.35-.7.35l-.45-.05-.1-.3-.05-.2.55-.65.5-.75v-.05l-.1-.55v-.4l.6-.05.5-.85.45-.75.35-.4.15-.15.25-1 .95-4.2.3-1.5.8-.1.05-.1.1-.55q0-.65-.55-1.05l.3-.9h-.15l-.5.65-1.05-.45-1.15-.25.2-.2h-.05l-.25-.3-.7-.25-1.45.25v-.15q0-.65-.4-1.1l.6-.3-.1-.25.05-.35.05-.15q.85-.15 1.3.25l.05.1.85.05v-.4q-.45-2.15.65-1.4l.35.25.25-1.7.15-1.35q0-2.65-.5-5.95l.1-.35q0-.95-.6-3.05-.8-2.65-1.75-2.65l-.15-.95q-.3-.6-.8-.55l-.2-.9.1-.4.05-.15.35.1-.5-1.25-.25-.5-1.85-3-.3.5-.05.05-.4.5q-.55-.2-1.3.8l-1.25 2.35h-.3l-.1-.1-.45-.15q-.85 0-2.3 2l-.5.15-1.4.65-.8.3-1.65-.35 1.65.35-.55.2q-1.3.65-2.25.65l-.15-.05-.6.05 1.9-1.2-1.9 1.2H81.35l1.65-.8.55-.45.5-.85V37l.2-.15v.05l.15.35q-.05.2.4.2h.25l1.15-.6q2.05-1.25 4.5-3.65l3-3.3.8-1.45-.8 1.45-3 3.3q-2.45 2.4-4.5 3.65l1.95-1.7.2-.15 1.2-1.15.8-.75h-.1l.65-.75.55-.8 1.6-2.1 1.45-1 .25-.2.8-.6.05.45-.2.5-.05.05.25.1.05.05.05.05q.9.6 2.05 3.6l.15.5v-.15l.1-.2.1-.1.15.15M80 134.15l.2.3-1.25 1.1q-.95.75-1.3.75l-.55-.2-.65-.2.65-.15q2.2-.35 2.9-1.6-.7 1.25-2.9 1.6l-.65.15-.35-.15-.1.2-.15.15-.6.2-.4-.1V136.05l-.1-.15-.35.15h-.05l-1.55.45-.85-.3-.15.1-.4-.1-.05-.3-.1-.1h-.05l-.35-.25-.3-.2-1.5-.7-.15-.1-.55-.1-1.1-1.5q-.5-.9-.55-1.85v-.15q0-.6.25-1.15l.55-1q.75-1.15.75.5l-.2.8-.2.85q0 .35.35.65l.65.9v-.05l-.05-.75q.1-.65.65-.65.5 0 .7.6l.3.8V131.6l.25-.55.05-.45q.15-1.65 1.6-1.55l.05 2.05v1.5l-.05.95.3.4.15.45 1.05-1.7q.25-.45 1.05-.6l-.1-.45q-.3-1.15-.3-1.95l.65-.6 1 2.5v.45q.85 0 1.15.4l.15.7-.2.7.6.15q.2-.15.35-.2.3-.25.6-.25.55 0 .95.4l.25.2m-14.5-8.5l-.8.15h-.1l.9-.15-.9.15h-.45l-.2.15q-.8.6-1.45.6l-.4.15-.25.05-.4.15-1.55.25-.45-.3-.2-.15q-.7-1.45-2-2.6 1.3 1.15 2 2.6l-.5-.35-.45-.4-1.1-.7-1.35-.5 1.4-.65.9-.45.2-.1.25.35q.25.45.7.45v-.15l.05-.4.75.05q.35 0 .75-.95 1.25-.3 1.55-2v-2.55l-.1-2.2.2-.4-.35-.95-.05-.05v-.05q-.35-1.6-1.1-2.55l-.05-.05v-.2l-.25-.75.1-.15.15-.65q0-.45-1-2.3l.05-.9.05-.05.35-.8.45-.2.15.05.2.1.1.05.1.15q.4.65.65 2.2l.05.15.1.6v.25l.15 2.3.2.3.4-.25.25-.1.05-.05.9-.1q.85.25.85 1.05l-.45 2.15-.05.15-.3.75.3.55h.1l.3.05-.35 3.3.35-3.3.25.85-.3 1.9.7-.1q.05.55.95 2.5l.05.05.75 2 .05.35-.1.2-.7-2.55.7 2.55-.1.15-.6.6-1.05.7m-6.65 6l-.75.55H57.7l-.95.3-1.05.3h-.5l-.45-.05.75.05-.75-.05-.85-.15-.45-.1-1.25-.6-.3.1h-.45q-.15.2-.5.2-1.25 0-2.55-1.8l-.15-.2-.3-.4q-.6-.9-.7-1.4l.45-1.65-.45 1.65-.05-.25.5-1.4.7-1.35.05-.05q.5-.8 1.3-1.2-.8.4-1.3 1.2v-.1q.95-1.65 1.25-1.25l.05.15.05.5-.05.25-.55.5.1.4.2.15-.1.9q0 .9.4 1.8l1 1.85.85-.6.25-.85-.2-1.35-.2-1.4v-.4l.65-.1.15.2q.75 1.6.75 3.1v.8l.4-.2q.05 0 .7.5.8.6 1.4 1.3.65-.2.8-.8.15-.45.6-.45l.5.25.2.2.5-1.55q.3-1.05.8-1.05l.45.15.05.05.1 1.35-.35 1.3-.35.7M46.8 129.4l-.35.3-.65-.8-.1-.05-.45.5q-.3 0-2.2-1.7l.65.3h.05q.9.75 1.65.75h.05q.5 0 .8-.55l.2-.6-.1-.8.85-.25.1-.55-.5-1.05-.25-.25q.65-.15 1.1-.55l.35-.6v-.45l-.15-.1-.4-.1q-.4 0-.6.3l-.8.25q-2 0-4.25-1.1-3.15-4.35-3.8-4.5-.85-1.9-1.4-4.1.55 2.2 1.4 4.1h-.1q-.55 0-.7.35l-.2.35-.5-.55-.4-3-.5-2.85q.4 1 1 1.6l.65.55.3-.25 2.15 3.2 2.15 2.4q2 2.25 3.35 2.25l.7-.3.15-.2.3.35.2.15.55-.15 1.6-.3 1.15-.1q.65 0 .95.3l.25.25.05.1q.45.05.75.3l.3.25.15.4-.6.55-.85-.05-.2-.1q-.65.55-2.2.7 0 1.35-1.65 3.45l-.2.35v.05l.45 1.25-.25.3-1-.5 1 .5m-3.95-1.9l-.3.25q-2.2.15-4.45-3.1l-.25-.35.4-.45-.55-1.15.35.2 1.6 1.5h.05l2.9 2.9q-2.5-1.35-4.5-2.65 2 1.3 4.5 2.65l.25.2M2 81.35q.2-1.15 1.8-1.55 1.95-.55 6.4-.1 2.2.2 3.5 1.5l2 2.35q1.6 1.7 2.95 4.2l2.1 4.25 2.6 6.5.6 1.1 2.35 4.45.05.1q.65.05 1.25 1l.25.5.1.15.7.75q-1.55-.95-2.9-2.9-1.5-2.15-4.9-10.2-3.05-7.25-5.7-10.15l-2.4-2.05 2.4 2.05q2.65 2.9 5.7 10.15 3.4 8.05 4.9 10.2 1.35 1.95 2.9 2.9 3.2 3.05 3.2 3.4l-.35.4h.35l.55-.5q0-.75-1.8-2.3l.45.15.3-.3.7-.3h.05l.05.3.9 4.15-.9.3-.2.2-.05.6.15 1.35-.55-.9-.15-.25-1.25-.6v-.1h.15q1 0 1.15-.6l.05-.25-1.05-1.45.3.15-.55-.55-.2-.2-.05-.05-1.4-1.35-.1.35.5.85-.15.15.35.4v.85l-.05 1.1-.05.05-.45-2.2-.25.2-1.05-.95v-.1l-.1-.05v.4q-.15.3-.6.3l-1.05-.95-.1-.15-1.35-1.75q-.1.1-.05.65l-.15.35-.4.15q-.5 0-.9-.7l-.3-.8-.35-1.75-.65 1-.4.65-.1.1-.25.35-.35.4-.7-.9.15-.5.15-.35.45-1.15.1-.1-.25-.15-.35-.25-.6-.4-.55-.3-.65.05-.4-1.55q.25-.85 1.25-.3l-.25-.8h.05l.1.05.3.85.6.4.65.55.7.6.1-.15q.45.45.9.45l.4-.1.2-.3v-.45l-1.2-3.6-1.75-4.6-1.95-4.1-1-1.45.2-.05q.45 0 .65.45l.35.85v-.6l.15-.25q-2.95-5.25-5.2-7.35Q11 79.6 9.6 79.9q-.4.1-.8.35l.4.2 1.55.05q.85.25 1.2 1.15.95-.4 1.3.4l.25 1-.1.5-.2.05 1.85 2.1.1.1-.05.05q-.25-.45-.65-.45h-.1q-.3-.25-.45.1-1.1-1.5-1.95-1.5L8.9 81.85h-.4l-.1.1-.3-.15q.55.6.55 1.15l-.6.55-.9-.9q-.7-.85-1.75-.85l-1.25.6q-.35 0-.5-.2l-.05.2-.25.4.1.25.05.1-.7-.2H1.45q.1-.75.55-1.1V81.35q.6-.65 1.5-1.05-.9.4-1.5 1.05m35.25-.25v-.25q0-.55.35-1.15l.15-.3h.05l.5-.65q1.05-1 1.1.15v.1q0 1.9-1.15 2.65l-.4.25-.3-.1.7-.15-.7.15-.2-.15-.05-.15-.05-.4.35-1.4-.35 1.4m4.55-14.75l-.05-.4.15-1.3 1.3-2.35.4-.25.25-.05.15-.05q.45-.05.5.6h.15l.05 1.2-.05.95-.35 3.45V69l.15 1.05.75 1.75 1 2.1.2.4.6 1.2h.05l-.6.55-.15-.15-.2-.25.1.25.85 2.1-.6.55-.75-1.05-.05-.15-.4-.75-1.4-3.2-.95-2.6-.15-.4-.2-1.95-.65-1.85-.1-.25q.95-2.25 2.05-4.35-1.1 2.1-2.05 4.35m8.3-14.55q.4-.4.7-.5h.35l.05.15.5-1.25.3-.6.9-1.3q.45-.5.85-.5h.7l.35.15.15-.55.1-.5q.35-1.45 1.15-1l.2.15.1-.35q.4-1.1 1.45-1.35l.4-.05.7.15.3.85-.35.85-.1.1q-.2-.65-1 1.2L57.3 49l.3.9q0 4.45-.55 8.4v4.95l.85 7.25-.1-1.65-.15-1.65.15-.75v-.05l.05-2.3-.25-6.55.05-1.65.1.1.15.25v-.35l.05-.65q0-.2.15-.4l.05-.2v-1.1l.2-2.15.4-2.45.25-.6.75-1.2.25-1.55.1-.6.05-.4q.25-1.1.65-1.8l.55-.55-.1-.85V41l-.2.35-.35-.05-.05-.05-.1-.1-.1-.4.2-.7.05-.05.05-.25-.05.25 1.75-1-1.75 1-.05.05.1-.3v-.05l.6-2.05v-.25l.1-.15.15-.25.6-.25.15-.05h.25v.05-.05.05l.05.1-1.05.15 1.05-.15.3.5V37.5l-.3-.65.3.65-.65 1.4h.05l.1.1.6.7.45.6.1.25Q61.65 42.8 60 45.6q1.65-2.8 3.6-5.05l2.15 4.25-.15.65-.05.25-1.1-.95.05-.35-1.05-1.5-.05.1-.15 1q-.2.85-.85.85h-.25l-.1-.1-.5-1.3-.4 2.7.45.95.25.75q0 .35 1.55 2.7l.95 1.6.4.95 1.2 1.1.9.95.25.5-.55.55-2-1.55-.2.15-.35-.55-1.35-1.2-.15-.1-1.1-.95-.05.25q-.5 1.35-1.6 1.4l-.05.05.2.75q0 2.2 1.5 4.45l.95 1.3 2.4 2.95v.05l-.55-.05q-.8 0-2-1.15l-.2-.15-.5-.5-.05.1q-.8-.55-1.45-.6l-.1.15-.15-.2q-.6-.55-.7-1.05l-.1.1.1 2.55.4.5 1.65 3.25.5 1 1.4 2.1 1.2 1.85-.25.7-.2-.15-1-.6-.05-.15-.85-.85-.15.15-.45.2-1.25-.2-.1.2-.1.55.3.95v.4q.15 2-.2 4.1v.5q-.35.25-.35 1.65v.25l-.1.2h.1q.15-.05.1.55l-.1.7-.4 1.15-.15.55q.55-.15 1.2 0l.85.2.2.15.1-.05.65.3.6.4-.2-.6q0-.25.15-.4l.5-.2q.95 0 1.35.8.35.65.35 1.9v.7l-.05.2-.5.45q-3.75 0-5.2-1.55l-.3.3.05.45-.6.25h-.1v.05l-.1 1.4v.15l.15.75.25 1.45q-.2.05-.25.4l-.05.6-.3.05h-.3l-.7-6.8.4-.5-.4.5.7 6.8-.1-.15-.4-1.65v.6l-.2 1.6-.15-.65v-.8l-.25-1.3-.35-.5.25-1.05-.85.15-.45-.45-1-1.25-.9-1.1-.25-.35-.2-.3-1.1-1.4q-1.55-2.1-1.55-2.35l.6-.6q.8.55 1.95 2.15l.1.15v.05l.2.25.65.9.05.15v-.25h.05l-.05.25.55.65v-.1l-.9-1.95-.05-.05-.35-.8-.3-1.05q0-1.25.4-1.15.4.05 1.25 1.5l.95 1.65q.75 1.4.75 1.9 0 .75.4 1.65l.2.5.2-1.75-.15-.45.2-.45.3.25h.15l.05.2v.05l-.05.15.1-.3.05-.15-.05.15v-.15h.05l.15-.1.2-.25-.1-.2q.65-1.8.75-5l.05-.9-.05.9q-.1 3.2-.75 5l-.05-.35.2-1.05.3-1.15V79l-.05-1.7-.05.2-.15.5V78.15l-.05.1v.05l-.05 1.55q-.1.75-.4 1.1l-.3-.9-.35-.65L55 74.5q-1.3-3.45-1.5-2.05l-.1-.25.1-1.65v-.05q.4.85 1.3 2 1.8 2.35 3.1 2.45l-.3.55.1.3q.15.25.45.25h.15q1 0 1-.8 0-.85-.7-1.4l-.3-.25-.5-7.15.5 7.15-.85-.55-.85.3L51.35 65l-.4-.85.1-.35.15-.15.05.05q1.05.3 1.9 1.7l1.3 2 .15-.5-.2-1.25q.3.5.6.5.5 0 .65-.5l.25.15.15.4-.2.35-.2.35v.35l.15.1.4.1q.65 0 1-.45l.15-.5-1.15-2.85q-1.2-2.3-2.1-2.8l.8-2.5.75-2.9.1-1.5.05-.1-.05-.2.05-.4v-.1l-.4-.1-.15-.5.15-1.55.25-1.65-.05-.4.05-.15-.1-.35v-.05l-.25-.1q-.15-.8-.5-.35l.2.4v.1l-.15 1.85q-.4 1.95-1 1.95-.2 0-.45-.15l-.2-.2-.05-.05-.35-.25h-.05l-.4.4-.65.45h-.2l-.25-.1-.6 2.4-.55 2.2-.15 1v3.5l-.1 1.15q-.2 1.15-.7 1.15-.35 0-.5-.35l-.05-.7.1-1.5V61.05l.05-.55.05-1.3-.05-.35-.05-.9.3-.6q0-1.7-.6-1.5v-.25l.2-1.25.25-.65 1.95-2.4-1.95 2.4.35-.65.05-.05.6-.85.25-.35M64.7 7.85l.05.05q1.4 1.8 1.4 2.3l-.05.05-1.4-2.4 1.4 2.4-.5.45h-.05q-1.5-1.05-3.25-3.6-1.15-.65-2.35-1.6l-.9-.65-.55-.5-.15-.25.05-.4h.05v-.1q1.95.2 3.5 1.45l1.3 1.35 1.4 1.35.05.1M59.75 27.1q.25-1.6 2.45-1.25l.7.1h.05L63 26q.5.25 1.05.35l1.1.55.1.05.35.25.35.25.2.45-1 1.3.8-1.75-.8 1.75-.25.25-.75.8v-.4L63 29.8l-.6-.1-.9.05-.4-.45-.9-1h-.4l-.1-.65v-.25l.3.9-.3-.9.05-.3m8.3-15.35v-.7.7m-9.55-7.4l-.05-.65.05.65M73 14.9l-.1.3-.9 2.9-.3 1.05-.1-.05h-.05l.15-.9q.4-2.85 1.3-3.3m-.05 3.3q.05-1 .65-2.15l1.05-2.9L76.1 10l.45-.55.4.05.1.6q.65-.9.75.1l.25.85-.1.75q-.15.7-.7.7l-.4 1-.85 1.35q-1.55 2.55-2.05 4.45l-.05.4-.35.2q-.5 0-.5-.15l-.1-1.4v-.15m-3.6.75l.1-.25v.2l-.1.05m3.8 7.95h.2l.65-.1.2-.15 1.2-.05-.15-.25.1-.4.1-.1h.1l1.35.15-1.35-.15.4-.05.2-.05q.4.2.75.25.75.2 1.4 0 .25-.05.5-.2l.55-.35 1.2-.9.4-.3q.2-.15.2.75l-1.35 1.2-.6.45 2.4-.4.65-.6q.85-.9 1.7-.2l.55.7.15.2-.05.2.05.1v.25l-.6.6-.15.05 1.15.6.2.1v.15l.05.1.05.15.05.1-.1.2-.35.15.85.45.05.3-.2.55-.1.15q-.3.3-.65.3h-.1l.75-.3-.75.3-.65-.25-.7-.3q-.7-.05-2.1-.55h-1.2l-.55-.3q-.95-.35-1.15 1.3l-.85-.3-1.9-1.2q-.4 0-.5.25l-.3.45-2.1.05-.15.15-.15-.3-.35-1.15q0-1.1.55-1.5l.45-.3m9.35-3.75l.05-.05v-.65l.25-.25.05-.2v-.35l.55-.3 1-.7q1.65-.85 2.45.15l1.25 1.3-.3.4q0 .4.7.65l.55.2.2.15.8 1v.2l.15.55h-.1q.9.9 1.1 2l-.05-.05q-.2-.7-.7-.9l-.55-.05-.55-.4q-1.2-.7-1.65-.45l-.3.35-.15-.4.05-.25-.45-.95-2.2-.35q-1.7-.3-2.15-.65m-4.7-9.25l.45-1-.05-.25q.35-1.05.8-1.65.8-1.15.8.5l-.35 1.35-.2.5q-.55 1.85-1 1.85l-.45-.1-.15-.15v-.3l.15-.75M60.65 41.25L60.7 40l-.05 1.25M56.5 45.7l1.85-1.4-1.85 1.4m-1.45 1.2l1.15-1-1.15 1m-3.35 3.3l2.35-2.4-2.35 2.4m3.4 30.1l-.35-1.35-1.3-3.7.15-.5v-.5L55 78.6v.2l.4 1.15-.15.2-.15.15m-16.25-5.05l.05-.35.1-.15q1.15.25 1.8 3l.3 1.9.1 1.05-.6.65q-.45-.5-.9-2.1l-.85-3.95v-.05m33.75 1.4l.55-1.55.25-.8.9-2.05v-.05l.25.05.65.2h.15l-.05.25-.3 1.15q.7-1.1.7.7l-.8 3.25-.15.75-.25.2-.55 2.1v.05l-.4 1.9-.05.3-.75 1.85.05.75v1.25q-.15 1.2-.65 1.2l-.4-.1-.1-.15-.25-2.3-.65 1.2-.55.4-.45-.1v-.15l-.05-.35 1.4-5.25 1.5-4.7M61.7 50.2l-.05.4.45.35-.4-.75M90.1 6.75q.4-.7.4 1.7v.6l.4 1.05.05.95q-.2.15-.3.95l-.05.9-.15-.25-.1.8L90 14.6q.6-3.8.25-6.8l-.15-1.05.15 1.05q.35 3-.25 6.8l-.45.4h-.15l-.05-.55v-.3l-.1-.15-.1-.05-.3-.05-.05-.1-.05-.45q0-1.45.35-3.15l-.05-.2-.5-1.75.1-.8v-.1L87.8 5.2q.35-.7.65-.9.7-.5 1.2 1.3l.3 1.5.15-.35M83.85 38l.25-.2.95-.35-.95.35-.25.2-.3-.05.3.05m14.05-5.2q3.15 7.8 4.3 14.7-1.15-6.9-4.3-14.7m.65 10.9l-.1 1.5-.4-.15-.3-.4-.2.9q-.25.65-.8.65-.45 0-.45-.15l-.15-.35q.25-1.35.65-1.9.5.5 1.1.5.5 0 .6-.4v-.25l.05.05M78.8 25.8q1.1-.35 1.75-1.25-.65.9-1.75 1.25m2.25 13.25l-.05-.1-.05-.1.1.15.05.05.2.15-.25-.05v-.1m14.6 45.5l-.05-.25.35-1.2 2.5-1.55 1.1-1.15.15-.25-.05.4-.05.35.25 1.15v1.05q-.15.95-.85 1.15l.55-3.85-.55 3.85H98.35q-.35-.05-.5-.25l-.3-.55-.55.95q-.35.45-.85.45t-.5-.25v-.05m2.25 6.6v.4l-.2.65-.5 1.65-.05.15-.7 1.9-.5.85q-.2 0-.35-.2l-.35-.2h-.05l-.15-.1L94 96q.1-1.15 1.25-1.7 1.3-.6 1.3-1.95 0-.45.15-.8.15-.45.55-.7l.1-.05q.45-.2.55.35l-.2 1.05.2-1.05m-7.95 8.2q.25-.85 1.05-.6l.05.25-.55.55q-.9.95-1.15 2.45l-.25-.15-.05-.05q-.9-.65-.9-1.15l.1-.4.1-.1 1.15-.15.45-.65M74.4 98.1l.2-.45q.4-.55 1-.25l.45 4.3v.1l.4 1.25q.6 1.35 1.95 1.8l1.8.5-.05.35-.1.05-1.45.4-1.85.3h-.1l.2.3 1 2.3-.3.6-.7.55-.45-.15q-.15.05-.15-.45l-.2-1.35-.2-1.35.05-.6-.1-.05-.1-.35.05-.35-.2-.5-.65-2.4-.3-1.55-.1-.55V98.7l-.1-.6m6.3 8.85l.05.15v.3l-2.7 3.75-.45-.15-.1-.25-.05-.2q.3-.9 1.3-2.15 1.15-1.4 1.95-1.45m2.6 8l.1.2-.3.2.1-.45.1.05m-.45 1.65l.05.15-.3.5v-.1l-.05-.1.1-.05.15-.3.05-.1m-.3 1.75v.35l-.05-.3.05-.05m-.7.35h.1v.1l-.1-.05v-.05m.15.65v.1l-.05-.05.05-.05m-.2 1l.05-.15.15.15h-.2m-6.95 15.7l1.15-.1-1.15.1m.35-63.6q-1.7 8.75-4.6 14.2l.15.15-.15-.15q2.9-5.45 4.6-14.2M56.4 82.6l-.55-.85.25-.2.45.75-.15.3m5.55 1.25l-.95.05 2.3.5-.5-.9-.05.25-.8.1m-7.9 1.2q.45 1.25.9 1.5l.05.2q-.4-.2-.4.85l.65 2.15.35 1.2.1.45.1.45-.45-1.15-.05-.1.3.35-.3-.35v-.05l-.05-.1.05.15-.05-.15-1.2-5.4M58.4 95.3l-.05-1 .1-1.5v-.15l.3 1v1.1l.1 2.15.05.2v.05l.05.05.4.6-.25.1h-.05l-.45-.5-.15-1.5-.05-.6.45 1.6-.45-1.6M37.2 82.35l.65.35 1 1.6q1.55 2.8 1.55 3.45l-.6.6q-.6-.3-.95-1.15l-.75-1.55-.35 2.4q-.4 1.7-1.05 1.7l-.4-.15-.15-.15-.05-.45v-.65l-.15-1.8V85.3q0-.6.15-1.1.25-1 .9-1.45l.2-.4m20.45 19.2l.15.15.05.55.1.75v-.6l.05-.4.05-.05.55.45.6-.55-.05-.3q.45 1.2.55 3.2l.1 3-.45-.8q-1-1.75-1.35-3.1l-.25-1.7v-.2l-.1-.4m4.1-2.9l-.1-.55.15.5.05.15-.1-.1M35.9 89.3l.05.35.1.15.4.15-.1.5.15 1.35-.05 1-.65.65q-.55.6-.55 1.15l.25 1.4.2.65-.1.15-.15.4h-.35q-.25.1-.35.75V91.2v6.75l-.1 1.3-.3.8.1 2.35.1 2.85q0 2.65.5 4.95v.1l-.8-2.2q-.25-.3-.4.45l-.05-1q-.1-1.35-1.05-1.85l-.45-2.95.3.2q.7 0 .8-2.75v-4.35l.05-.7q.25-1.95 1.2-3.8l.1-.15.3-.4.15-.4.7-1.1m2.5 18.15l.3-.05.05.1-.1 1.6v.25l-.25-.55-.1-.3.25-.2-.15-.85m1-10.95q-.4-.1-.55-.95l-.2-1 .05-.05.6-1.85q0-.9-.5-1l.05-.45q.95-.05.95 2.85.3-.3.7-.15l.7.65.25.5-1.25.95-.5.55h-.05l-.25-.05M38 91.8l-.3.15.35-.4-.05.25m4 4.5q-.4.65-.65 1.55l-.3-.45q.3-1.1.9-1.25l.05.15m-1.2 14.3l.1.25.7 1.85-.05.85v.5l-.1-.35q-.4-.75-.4-1.3-.15-1.35-1.2-.65v.05l-.65-1.2h.05q.6-.5.6-1.55l.1-1.35.05-.15.05-.4q.1 1.5.75 3.45m11.8 5l.2-.45-.05-.2v-.05l.05-.55-.5-1.1.15-.2.2-.5q1.1.3 1.3 1.25l.15 2.15.35-1.05q.3-.65.8-.65l.15.05v.2l.4.35v.05l-.1.65-.05.6.55-.85.55.55.6.7-.15 1.4v.1l.5-.4.45-.25h.05l.1.05.15-.05.15.1.05.1.1.1v.3l-.75 1.8-.5 1.05q-.7 1.2-1.1 1.2L56 122h-.05v-.05l-.1-.1-.05-2.9-.15.25-.4.15-.3-.05-.1-.05q-1.1-.5-2.25-3.65m-6.9 13.25l-.3-.15.3.15M34.35 116l.05.05-.05.15-.1.1q-.7-1.5-1.1-3.2l.7 1.9.5 1m-1.75-.6l.25.55.05.1h-.05l-.05.4.85 1.15.15 1.05-.85-1.1-.65-1.15-.1-.35v-.2l.2-.25v-.05l.2-.15m30.15-8.3h.05l.3.15h-.05l-.3-.15m-3.7-9.2l-.1-.7.1.7m1.4 7.3l-.55-.45.1-.4.05-.1.65-.05-.25 1m2.6 19.8l-.7 1.5-.5.25.5-.25.7-1.5.05-.05.25-.4v-.3l-.05-.7-.2.4-.05 1.05m1.4-4.55l-1.1 3.8 1.1-3.8.2-.3-.1-.4-.25-.15-.65.05-.1.1-.1.4.15.4.45.15.1-.05.3-.2m-.7-7.2l.75 1.85-.75-1.85v-.05l.05-.2h-.9l.45.95.1-.15.3-.55m-.55-1.35l.4 1.1-.4-1.1m-5.25 9.7l-.15.7-.45.4-3.6.85-.55.1-.2-.15-.35-.4.6-.65h1.4l1.05-.15 2.25-.7M3.75 80.2l1.5-.4 4.35.1-4.35-.1-1.5.4q-.15 0-.25.1l-.3.5q.4-.35.9-.55l-.35-.05m6.3 7.55l1.5-.05.7.45 1.35 1.4.85 1.4-.3-1.35q-.15-1.05.65-1.05l.35.05.55 1 .35 1-.05-.55q1.85 3 2.4 5l.45 1.9q-1.8-2.85-2-4.15h-.25l-1.05-.4-.3.4q-.15.25-.45.25l-1.55-1.65-2.65-2.8-.4.5-.4.25q-.3 0-.6-.6.4-.7.85-1m4.25 5.3l.05.2h-.1l.05-.2m5.3.25l1.55 1.85-.5-1.05-.45-1.25-.4-.8-.1.7-.1.55M4.8 83.55l.25-.2 1 .9.8-.1L8.4 85.9l.65.8-1.9-1.15q-1.95-1.1-2.35-2m27.25 17.6l-.4-3.55q0-.75.55-2l-.15 1.15v4.4m-5 5.8l-.05-.15v.1l.05.05m4.3.45h.8-.8m-1.15 8.9l.45-.4-.65-.65-2.05-1.75v-.2l-.5-1.2.15-.1.1-.25.4 1.25q.4.95 1 1.05l.3.4.55.2.3.55.4.65 1 1.8-.6.5-.75-.5-.55-.5.5-.55-.05-.3m-7.35-13.8l.05.55.15-.35-.2-.2m2 5.7l.35.25h.1l.05.35-.5-.55v-.05m44.2 26.45Q67 133 66.7 131.1q.3 1.9 2.35 3.55m-3.3-9.95v-.35q0-.95-.7-1.05-.65-.1-.65.85 0 .5.15.65.15.2.5.2.6 0 .7-.3m-3.4 1.8l1.6-.55-1.6.55m-2.45-1.7l.4.4.25.45.1-.1v-.2l.2-.85-.4.3-.25-.3-.3.3m-4.1 3.65q-.55-1.85-.55-2.3 0-1.5.85.05t.85 2.85v.65q-.1.55-.55.55l-.6-1.8m-2.05-4.9l-.75-.05.75.05M51.9 132q-1.65-.65-3.65-1.8 2 1.15 3.65 1.8m-8.7-7.75l-.45-.65q1.35.65 2.35.9l-.45.15q-.25-.25-.7-.3l-.75-.1m31.15 11.8l-3.1-.25 3.1.25" fill="#9a6243"/><path fill-rule="evenodd" d="M93.4 115.55l.2 4.5q-.1 1.5-.6 2.4l-.05-.75.05.75-.1.25.05-1 .1-1.3.05-2.55.2-1.45.1-.85-.1.85-.2 1.45.15-4.5-.15-.8.75-2.8.65-.5-.15.6-.9 4.65-.05 1.05M65.6 10.7l.35.5-.05.25-1.05.5-.75.55H64q-1.1 0-1.4-.6-1.6-1.1-3.55-7.05l.9.65q1.2.95 2.35 1.6 1.75 2.55 3.25 3.6h.05m6.2 8.45q.55-1.65.85-2.1l.45-.9-.3 1.4.15.65v.15l.1 1.4q0 .15.5.15l.35-.2-.15 1.25.05.65.1.15.2.1q-.7.9-.75 1.55-.25-.25-.7-2.4-.35-1.6-.85-1.85M71.3 23l.1.35-.1.1V23m2.9 2.8l-.35-.35q.25-1.3.9-2.5 1.35-2.45 3.35-2.45l.4.2-.85.1q-1.35.25-2.1 1.4l-.6.45v.1h-.05v.1l-.15.3v.2l-.05 1.05.05.3-.2.7v.05l-.35.35m6.1-4.55l.15-.3.05-.25.55.95-.7-.4h-.05M81.75 19l-.4-.55.2.05.2.25V19M63.5 34.2l-.2-.4 1.1-.05h.05l.25-.2 1.05-.75.6.15q1.15 0 1.75-.35l.35-.05.35.05 1.1.9-.05.45 1.35 1.15q.25 0 .5-.3l.05-.05q.75.45 1.5.45l.8-.15h.25l.6.25-.6-.25.55.05h.1l-.05.15v.05l.05.1.15.05h.1v-.05l.1-.15-.1-.15q.65-.1 1.1-.45 3.7.3 7.5.15-3.8.15-7.5-.15l.05-.05.45-.3.15-.05.05-.05.45-.05.35.3v.05l.7-.55.35-.2.1-.35.05-.2-.05-.4v-.15l.7-1.5.15-.05h.2q.45-.5 1.05-.55l.55.15.15.05.4.25.7.6-3.9 1.2 3.9-1.2q1.05 1.05 1.05 2.3l-.1.9q-.25 1-1 2l-.7.8-.5.45-.25-.2-.85-.5-1.05 1.45-.25.25-1.05.1-.1.05-1.15.5q-3.55 1.4-6 1.4-1 0-1.6-.45l-2.4-1.35-1.3-.9-.85-.7-1-.95-.05-.05q-.35-.4-.2-1.15l.1-1.15-.1-.2.15.05-.15-.05m1.15 1.25l-1.15.1 1.15-.1v.05l.15.05.15-.05.05-.05v-.1l-.05-.15-.15-.05-.15.05-.05.15.05.1m-.6-1.15v-.1l-.05-.15-.2-.05-.1.05-.05.15v.05l.05.1.1.05.2-.05.05-.05h1.1l.15.05.15-.05.1-.15-.1-.15-.15-.05-.15.05-.05.15.05.15h-1.1m.05 2.35l-.4.05.4-.05h.05l.05.05.15-.05.1-.2-.1-.1-.15-.05-.1.05-.05.1.05.2m1.35-.2l-1.1.2 1.1-.2m-.25 1.1l-.45.15.45-.15-.05.1.1.15h.3v-.3l-.15-.1-.15.1-.05.05m-2.6-.85l-.05-.05.05.05h-.25l-.1-.4.1-.2.2.55.05.05m.6 1.1l.45.55-.1.05.1-.05.4.45-.5-.4.5.4.15.25-.35-.15-.2-.15-.25-.25-.15-.5-.05-.2m9.2-1.45q2.45 1.45 4.5 3.35-2.05-1.9-4.5-3.35l-.05-.05-.2-.05-.15.05v.25l.15.1q.1 0 .2-.1l.05-.1v-.1m-8.85 2.05l-.3-.4.3.4-.15.1.15-.1m8.1-3.35l-.1.05-.1.15.1.15q0 .05.1.05l.15-.05.05-.15-.05-.15-.15-.05m-5.1 3.1q1.25-.15 2.2-1.05 1.55 1.15 4.65.65-3.1.5-4.65-.65-.95.9-2.2 1.05m-.45-3.25l.05-.15-.05-.15h-.3l-.05.15.05.15.15.1.15-.1m0 1.45l-.15-.05-.15.05-.05.1.05.2.15.05.15-.05.05-.2-.05-.1m10.3 12.3q-.7-.35-1.25-1-.8-1-.8-1.65l.05-.3-.8-.8-1.45-.95 1.1.15 1.95.3 2.3-.15.55.1q-.6-.65-3.15-1.2l-4.75-.55-.05.1-.05.4q0 .35.9 1l-.75.2q-.75 0-1.65-1.55.4-.4 1.15-.4l.6-.1 1.5.1q.4 0 .55-.35l.05-.15v-.55l.45.1.7.1h.55l1.65-.35L76 41l.85-.25.85-.35.3.3-.3-.3 1.2-.6.1.15.45.35-1.45.4 1.45-.4.15.05q.85 0 1.15-.55l.05-.05v-.05l.15-.65h.1v.1l.25.05h.65l.6-.05.15.05q.95 0 2.25-.65l.55-.2.8-.3 1.4-.65.5-.15-.05.1-.85 1.3-1.8-.3 1.8.3-.5.95.05.25.15.2.4.1 1.25-1.25 1.3-1.75v.95q.05.7.55.7.3 0 .8-.45l.4-.55.35.7q.25.35.95.25l-.25 1.95-.85.35q.55.4.55 1.8l-1.35 3.1-.1.2v.55q.85-.8 1.6-2.3l.45-1.2q.2.3.6.3.3 0 .55-.25l-.9 1.25-2.3 2.35-.75 1.75-.15.2-.1.15-.05.1-.1.05-.1.5v.25q.4.35 1.3.6l1.1.45.4.35.05.1.05.1.15.5q.6.35.6 1.7l-.5 1.45 2.5.25q-2.55 2.1-2.55 2.8l.1.6q.25.55 1 .55l.75-.25h.35v.25q.3.8 1 .9l.1.7-1.05 2.05V63l1.1.65 1.25.75-2.4 3.15q-.45.3-3.9 1.7 1 1.1 1 1.7l-.25 1.25q-.9.15-1.25.55-.35.45-.35 1.85l.05.6.65.5-.3 1.05-.1.45 1.05-.2-.7.45-.45-.15-.6 1.1-.35.45q.75 1.05.75 2.85l-.35 2 .6-1.2 2.35-1.95q1.1-1 1.3-1.9l.6-.55.3-.25.1.15.15.4-.9 1.15-.25.55q-.95 0-2.35 1.4-1.35 1.4-2.4 3.35l-.1.15v.1l-.1.15q-.6 1.15-.75 2.1-.7.55-2.15 3.65l-.05.05-.85 3.3.6-1.55-.05-.2h.4l.35-.05-1.1 1.45.1.4q-.05.2.45.2l.5-.15-.25.45-.25.35-.5.35-.75.35-.2.45v-.05l-.2.6-.65 1.25q-.85 1.45-1.65 1.45h-.6l-.25-.05v.05q-3.9-.55-5.35-5.65v-.1l-.1-.35-.25-1.2-.4.55q-1.8-.95-2.2.3-1.1-4.35-2.35-6.4 1.25 2.05 2.35 6.4-.15.4-.15.95l.4 1.25.3.8-.3-.4q-.45-.5-.8-.45-.4.05-.4.6l.25.5.15.5-.15.5-.15.55-.1.25-.3-.05-.55-.1-.6.05.4.65.2.9.25.2q.55.4 1 .25l.1.7q.25.55 1.1.55.55 0 .75-.65v-.2l.1.55.15 1.45-.25-1.8.25 1.8.35 3.8q-.35-.45-1.05-.35-.15.6.1 1l-.55.15h-.15l-.05-.3-.05-.1-.3.5-1.05.65-.35.75-1.1.7.55.05.85-.2q.3 1 .85 1l.4-.7.2.35q.65.9 1.35.9.55 0 .7-.95l.1.8v.8l.15.75v.2l.05.05v.1l.05.6.05.55v.05l-.3.65-.2.35q-.7-1.25-1.8-.5l-.6 2.4-.15-.25q-.8-.85-.8.25l.2 1.05.15.7-.75 1.8q.3.35.9.4l.75.05.25.75q.25.35.65.35l.6-.4v-.55l.1.25.4.1q.45 0 .65-.55l.1.35.15.15.3 1.8.2 1.2-.1.4-.15.4q-.4.75-1.25.75l-.95-.3-.45-.25-.6.15-.5.2-.7-.05-1.2-.7q-.3-.5-.3-1.05l.2-.6.25-.6-1.05-4.45-.1-.35-1.1-4.7-.05-.15v-.2l-.55-2.05v-.55l-.2-1.05q.4.7 1 .7l.75-.3q-.9-.4-1.55-1.95l-.4-1.15-.4-.3-.1-.2-.2-1.25q-.45-2.45-.75-4.9l.35-.3.15-.45v-.25l-.05-.2h-.55q-.35-3.3-.35-6.5-.05-1.45.2-2.8l.1-.6-.55-1.7-.25-.9q.05-.05.2-.15v-.2l.15.15.85-.25q2.05-.3 2.35 2.3.45-.1.95-.6l.45.1.55-.4.65-1.2.25 2.3.1.15.4.1q.5 0 .65-1.2l.1 1q0 .2.45.2l.9-2-.2-2.6q0-.9 1.1-2.2l.6-.65-.05-.8q0-2 1.45-3 .35-.2.65-.3-1 .2-1.65.65l-.1.05.2-.75.3.4.3-1.4-.25-.6-.2-.65.8-1.6-.25-.7-.4.15-.1.35v.15l-.6-.15-.55.2.05-.25h-.15l-.65-.2-.25-.05v.05l-.25-.05-.25.15q-2.5 1.9-3.95 1.9l-.7-.1.4.85.35-.25.3-.5 2.75.85h.2l-.55 1.55q-.9.85-1.15 1.95l-.2.5-.95.3-.15.05.2.8v.45l-.15 1.8q-1.05 1.05-2.25 1.05l-2.3-.6.2-1.9-.25-1.2-.05-.35.2-1.4.4-.6v-.2q0-1.65.6-2.75l.3-.45q.45-.55 1-.55l.3.05-.1-.2q-.3-.5-.3-.95l.25-.45-.2-.15-.55-.55h-.1v-.2l-.2-.45q.45-1.45 1.5-2.2L68.6 68l.65-.15 1.05.3 1.05-.6.7-1.1.6-.55-.05-.15q-.6-.4-1.2-.4l-.7.2-.65.25-1.6-1.65-.2-2.8.1-.65q.3.2.75.45l.1-.7.65-.85 1.2.15.6-.25.2.05.1-.05.25-.3.1-.1h.05L73.6 58l-.2-.45-.9-.6-.15-.1-.1-.1-.95-.75-.75-.7q.7 0 1.1-.65l.35-.8q0-1.4-2-1.95l-.55-.05q.3-.4.9-.45l.2-.2q.75-.55 2.35-.55h.05q1.25.55 1.95.55.55 0 .85-.4l.25-.65-.15-.75.25-.1.95-.3.25-.05-.85-.3h-.05M73.9 35.7q2.95 1.4 5.55 3.1-2.6-1.7-5.55-3.1m-5.15 1.4q-1-1.3-1.3-3.35.3 2.05 1.3 3.35M75.5 71l-.3 1.45.3-1.45m9.45-65.9q1.35-1.5 2.6-1.5.4 0 .9.7-.3.2-.65.9l.85 2.15v.1l-.8 1.25q-.35 1.4-.35 2.25l.1 1.75q0 .85-.7 1.85l-.05.1-2.6-.75q-.6 0-.6.9l-1-.6-.35-.45-.05-.3-.5-.4-.2-.6.15-.5V11.8l.6-1.25.7-1.85.65-1.35 1.3-2.25m-8.7 13.6q.3 0 .45-.35.25-.35.7-.35 1.15 0 2.25 1.05-.55-.1-.75.7-1.9-.35-2.95.35l-.95.8q.2-1 .75-2.45l.05.05q-.05.2.45.2m16.2 3.3l.1.05v.6l-.15-.4.05-.25m-1.95 8.8l-1.25 1.15.55-1h.15l.5-.15h.05m-2.75 2.3l-.45.35-.15.15-.05-.25.25-.45.4.2m3.3 2.4h.3l-.2.45q-.1 0-.1-.45m2.85-3.15l.4-.5.1.1.05.05q1 1.9 1.7 2.5l.2.25-.55.6-.1-.25-1.35-2.35-.45-.4m.45 10.7l.1-.35.2-1.1.3.25-.6 1.2M87.4 25.9v.2l.6 1.1-.55-.25q-2.2-.5-2.2 1.25v.05l-.2-.1-1.15-.6.15-.05.6-.6v-.25l.3-.25.95-.5.7.25q.5 0 .8-.25m.85 2.7h.1l.05.05-.15-.05m3.4-.1l.05.1.05.05-.05.2-.05-.35M78.7 20.8q-.25.45-.25 0-.8.15-2.15.95l-.75.45q.75-1.15 2.1-1.4l.85-.1.2.1m-4.15 4.6l.15-1-.15 1m2.1 10.55l-1.45-.5 1.45.5.15.05h.05l.1-.05.05-.1-.05-.15-.15-.1-.15.1-.05.15.05.1m5.45 1.65q-2.55-.65-5.25-1.6 2.7.95 5.25 1.6m1.95-.95v-.1l.15-.15-.1.1-.05.15m-5.4-1.25l.1-.15-.1-.15-.15-.05-.1.05-.05.15.05.15.1.05.15-.05m-3.2 2.15l.1.15.15.05.1-.05.05-.15-.05-.15-.1-.05-.15.05-.1.15m-.8-1.3l-.15-.05-.15.05-.05.15.05.15.15.05.15-.05.1-.15-.1-.15m2.9 1.85v-.15l-.15-.05-.15.05-.1.15.1.15.15.05.15-.05v-.15m.45 2.6l-2 .3 2-.3q2 1.95 3.6 4.05-1.6-2.1-3.6-4.05m2.8-.95l1.15-.55-1.15.55 4.25 3.5-4.25-3.5m17.3 28.5l.15-.3.05-.1.15.15-.35.25m.1-6.4l.25-.15-.1.5-.15-.35M72.35 42l1.75-.5-1.75.5M96 75.9l.5-.7.25-.7v-.1l.3-.25h.1q.25 0 .8-.4-.3.25-.5.95l-.3.2-1.15 1m2.3-2.5v.2l-.25.05.25-.25m-3.85 6.15l.35-1.45-.35 1.45m-3.75 10.2l.5.2.25.05v.1q0 .3.55 1.05l.5.75q-1 .4-2.3 1.25l-.45.35.7-1.6-.7 1.6-.25.15.25-.7.7-1.05q.65-1.25.55-1.5l-.25-.55-.05-.1m5.95 6.95l-.45 2.65-.7 3.05 1.1-5.7h.05m-1.55 7.7l.1.55-.45 2.95-.35-.35q-.4 1.4-1.45 1.75-.25-.35-.8-.35-.25 0-.55.25l-.1.1-.1-.1q-.75-.35-.9-1.4l.5-1q0-1.35-1.35-.95l-.15.05-.4-4.05.25.15q.25-1.5 1.15-2.45l-.05.4.05.75q.25.8 1.05.8l2.15-1.65h.05q.45 0 .8-.35l.35-.75v-.1l1-1.15.05.4-1.3 6-.1 2.95.4-1.75.15-.7m1.35-14.55l-.5.1.2-.35.15.1.05.05.1.1m-2.15 1l-.05.6-.7.05q.15-.6.45-.6l.3-.05M74.9 77.8l.65-.1-.3.35-.5.5.15-.75m-1.4 5.3l-.7 3.8v-1.2l-.05-.75.75-1.85M91 90.4l.2-.45-.2.45m-1.05 8.95l-.45.65.05-.2-.25-.7.45.15.2.1m-1.3-.9l.3.35h-.25l-.05-.35m3.8 3.55l-.3-.15.2 1.45.15-1.3h-.05m-16 1.05l-.4-1.25v-.1l1.15 1.1q-.4 0-.75.25m2.2.7l-.1-.25.25.05q.3 0 1.4-.75h.5l-.25.35-1.65.5-.15.1m11.95 8.4l-.25 1.1v-.35l-.05-.9.3.15m0 5v1l-.1-.05v-.25l-.05-.75.15.05m-14.05 7.3l-.1-1.6.1 1.6M45 91.8l1.15.85q.85 0 .9-.35v-.55q.8 1.3 1.65 1.3l.75-.25.15-.6q.5 1.4 2 3.5l1.15 1.65-.75-.1h-.3l-.9.05-.65-1.35-.85-1.65q0-.6-3.75-1.7l-.3-.1L45 92v-.2m5.55 6.95l-.1 1.3-.85-.45-.2-.65.3-.3.45.35.35-.25h.05m4.55 5.55l1.6 2.1 1.5 2.85-1.05.2-.2-.05-.4.2-.3.05-.15.2-.1.6-.1.35h-.05l-.2-1.1.35-.45.2-.8q0-1.3-.9-2.85l-.75-.95.25-.15.3-.2m1.75 7.35v-.05l.45.4h-.15l-.3-.35m-5.1-10.85l.7-.25.05.6h-.15l-.6-.35m-5.25 17.65l-.15-.25.05.05.15.1-.05.1m2.2.15l1.75.25q.4 0 1.2-1.35.5.75 1.5.45l.25.85q.35.75.85.75l.45-.15.15-.15.1.05-.1 1.35.1.7q-1.5.65-3.5.5h-.4l-.25-.25q-.3-.3-.95-.3l-1.15.1-.95-.35.1-.55-.2-.4 1.15-1-.1-.5m5.15-13l.5 1 .1.3-.4.5-.15.15-.35-1.4-.3-.7v-.1l.4.35.2-.1m-4.8 10l1.1.5v.65l-1.3.2.15-.75.05-.6m8.95 4.2l.2-.35q-.15.5-.15.9v.15l-.55.35.5-1.05" fill="#fbf8e5"/><path fill-rule="evenodd" d="M98 90.55l.15.8-.7 2.75.25-1.9-.25 1.9-.05.05v.1l-.35.75-.6.9.7-1.9.05-.15.5-1.65.2-.65v-.4q-.1-.55-.55-.35l-.1.05q-.4.25-.55.7-.15.35-.15.8 0 1.35-1.3 1.95-1.15.55-1.25 1.7l-.45.15-.8-.3-.8.55-1 .55-.65-.15-.25 1q-.25.7-1.1.7l-.3-.05-.5-.35-.1-.25-.05-.35.25-.8.85-1.85-.85 1.85.25-.7.5-1 .1-.15q.5-.65 1-.65l2.65-1.3 2.05-1.55q.45-1.1 1.15-1.4l.5-.1h.4q.6.05.9.4l.25.3-.1.6.1-.6M29.55 117.3l-.15.15-2.1-1.15-.6-.4-.9-.35-1.05-.5q-1.9-1-2.85-2.1l-.25-.3-.55-.75-.35.05q-1.15 0-3-3.4-1.35-2.55-3.05-7l-.8-1.65.05-.5-.25-.8-.05-.15-1.6-2.45-.8-1.5q-.65-1.15-.65-1.5v-.05q0-.45.15-.75L9.4 90.15l-.4-.4q-1.25-1.15-3.5-2.8l-.2-.15-1.25-.9-.55-.1q-.2 0-.65.3l-.3.15-.35.15q-.4 0-1.1-.9l-.65-1.25q0-.95.7-1.2l.3-.15H2.8l.7.2q.3.75.85.75.25 0 .4-.2l.05-.1q.4.9 2.35 2l1.9 1.15 1 1.05q-.45.3-.85 1 .3.6.6.6l.4-.25.4-.5 2.65 2.8 1.55 1.65q.3 0 .45-.25l.3-.4 1.05.4h.25q.2 1.3 2 4.15l.6 2.3q.55 1.7 1.15 2.6l.4.5-.1.15-.7-.6-.65-.55-.6-.4-.3-.85-.1-.05H18.4q-.95 0-1.5-.8l-.05-.05v-.05l-.25-.55-.15-.6-.2-1.5-.4.05h-.25l.45 1.25-.8-.65.65 1.6.35 1.45-.55.5q.75 1.8 2.15 4.1 2 3.35 3.45 4.75v.05l2.9 2.55q1.7.35 3.75 1.95 1.9 1.5 2.25 2.2l.05.3-.5.55-.2.15-.25-.25-2-.75 2 .75.25.25M45 59.7l.05-.1.05-.1.4-.65.1-.2.15-.25q1.05-1.65 1.2-.95l.25-.4.9-1.1-.05-.05-.05-.4q0-.8.6-1.15l-.2 1.25v.25q.6-.2.6 1.5l-.3.6.05.9-.3-.2-.1.4-.15.85.25.35.3.25-.05.55v.1q-.7-.25-1.1 1.3l-.55-.25-.15.1.05.45v.7l.1.1.75.15-.15.45q.4.45.75.45l.2.15.2.55.2.65q0 2.65 2.1 4.1l.1.05.1.1.2.15.15.05-.15-2.5v-1.15l-.1-.45-.3-.8q-.35-1-.35-1.5l.45-2.2q-.5-1-.65-2.5l-.45-2.35.55-2.2.6-2.4.25.1.2.65-.95 1.7.2.7q.15.5.7.65l.15-.55q0-1.95 1-4l.35.25-.4 2.1-.1 1.55q0 1.65 1.4 1.65l1.7-3.2-.1 1.5-.75 2.9-.8 2.5q.9.5 2.1 2.8l1.15 2.85-.15.5q-.35.45-1 .45l-.4-.1-.15-.1v-.35l.2-.35.2-.35-.15-.4-.25-.15q-.15.5-.65.5-.3 0-.6-.5l.2 1.25-.15.5-1.3-2q-.85-1.4-1.9-1.7l-.05-.05-.15.15-.1.35.4.85 5.25 8.35.85-.3.85.55.3.25q.7.55.7 1.4 0 .8-1 .8V73.6v2.45h-.15q-.3 0-.45-.25l-.1-.3.3-.55q-1.3-.1-3.1-2.45-.9-1.15-1.3-2v.05l-.1 1.65.1.25-.05.85.15.95v.5l-.15.5 1.3 3.7.35 1.35-.1.25.05.35-.95-1.65q-.85-1.45-1.25-1.5v-1.2l-.55-.1-.4.05-.15.1-.05-.45-.1-.1-.45-.15-.65.2-.1-.55-.05-.7h-.4l-.05-.4-.5-.05v-.45l-.1-.6-.15-.8-.7-.15v-.25l-.45-1.1V69.7l-.15.5v.1l-.1.2-.1.35-.2-.05-.4.3-.25 1.05-.05.4-.5.2-.45-.1-.15-.5v-.3l.3-1.5q-.7.1-1-.85-.25-.65-.25-1.25l.4-2.35-.2-1.15-.15-.05h-.1l.05-.95-.05-1.2h-.15q-.05-.65-.5-.6l.95-2.1.05-.15.1-.2-.1.2m21.5-48.4q.85-.05.85 1.05l-.65 1.05q-.7 1.1-1.3 1.1-.35 0-.55-.25l-.25-.5-.75 1.25-.8 1.05q-.65 0-.65-.9 0-.55.35-1.15.35-.75 1.35-1.5l.75-.55 1.05-.5.2-.1.4-.05m1.6 10.8q.7.6 1 1.4.6-.2.6 1.25l-.65 1.5-.2.95-.05.25-.15.6q-.6 2-1.15 2h-.2q-.7 1.2-1.15 1.2t-.85-.3q-.3-.2-.3-.5 1-2.3 2.1-4.2l-.15-.7v-1.5q0-1.45.25-1.95l-.1.35.1.3.05.15.4.1.45-.9m3.5 10.8l-.2-.35q0-.95 1.25-2.4l.15-.15 2.1-.05.3-.45q.1-.25.5-.25l1.9 1.2.45.25-.35 1.1-.6.75q-.25.8-1.65.8l-.2.1-.05-.05-.1-.05-.15.05-.05.15.05.1.1.1-.45.15-.5-.1-1.25-.45-1.25-.45m-8 7.65l-.1-.25-.45-.6.8.55-.25.3.25-.3 1.35 1.15 3.95 3.9.95 1 .75-.15q.95-.25.95.6l.05.5 3.05 1.1 1.5.3h.05l.85.3-.25.05-.95.3-.8.45q-1 .85-2.35.9h-.05q-1.6 0-2.35.55l-.6-.45q-1.85-1.4-3.1-1.4l-1.45-.3q.75.75.75 1.55l-.6.55-1.5-1.8q-1-1.5-1-2.25-.3-.25-.3-.8l-.6-1.45h.25q.65 0 .85-.85l.15-1 .05-.1 1.05 1.5-.05.35 1.1.95.05-.25.15-.65-2.15-4.25m-5.55 49.5l.05-.6q.05-.35.25-.4.25 0 .7.65l1.4 2.35 1.65 2.35.8 1.15q1.1.25 1.65.9T65 98.2l1.1.15h.55l.05.2v.25l-.15.45-.35.3-.65.15-1-.25-.45-.3q-.55-.6-.9-.6l-.3.25-.5.25q-.35 0-.55-.3l-.05-.15-.15-.5.1.55.2.6q.15.6-.7.95l-1.9-2.4-.4-.6-.05-.1.05.1-.05-.05v-.05l-.05-.2-.1-2.15v-1.1l-.3-1-.05-.1v-.05q-.35-1.35-.35-2.25v-.2M60.1 71.9l-.3-.95.1-.55.1-.2 1.25.2.8.25-.35-.45.15-.15.85.85.05.15 1 .6.2.15.25-.7-1.2-1.85-1.4-2.1.85.95-1.25-2.35q-1.4-2.8-1.4-3.3l.05-.45-.05-.4.1-.6.1-.15q.65.05 1.45.6l.05-.1.5.5.2.15q1.2 1.15 2 1.15l.55.05v-.05l-2.4-2.95-.95-1.3q.75.7 1.8 1.15 1.5.6 4.3 3.2l.5.5.45.4 1.6 1.65.65-.25.7-.2q.6 0 1.2.4l.05.15-.6.55-.7 1.1-1.05.6-1.05-.3-.65.15-.1.05-.55-.2q-1.6-.65-4.05-2.2l-1-.6q1 2.1 1 2.85l-.75.9q2.45 2.5 3.25 2.5h1.05l.55.55.2.15-.25.45q0 .45.3.95l.1.2-.3-.05q-.55 0-1 .55l-.15.2-1.35-1.1-.65-.4.4 1.1-.85.8q-2.2-1-2.85-1.4-1.1-.7-1.5-1.4m2.4-18.95l.15.1 1.35 1.2.35.55.2-.15 2 1.55.55-.55-.25-.5.5-.45q.6-.45 1.25-.45l1.5.6.45.45.75.7.95.75.1.1.15.1.9.6.2.45-1.25 1.1h-.05l-.1.1-.2-.05-.35.3v.05l-.6.25-1.2-.15q-2.4-.45-4.55-2.75v.3l-.05.55-.1.2-1.1.15-1-.2-.55-.6-.4.45q-.3.35-.55.35-.45 0-.6-.15l-.1-.15q-.15-.6-.15-1.45 0-3.5 2.3-2.4h.05l-.55-.95m-10.1 4.6h-.2l.05.45.15-.45M42.9 70.8l.95 2.6-.15.85-.3 1.55q.9.1 1.5.55l.35.25.4.75v.15h.05l.75 1.05.6-.55 1.35 1.4 1 1.55-.25 1-.15.2q-1.15-.4-1.35-1.2l-.45-1.1-.1.65-.65.45q-.5 0-.4-.15l-.2-.85-.15.3-.45.1-.3-.2q-.05-.2-.3-.2L44 80l-.4-.05-.05-1.1.05-1.5h-.15l-1.25 1.4-1.1.9-.3-1.9q-.65-2.75-1.8-3 1.3-3.55 1.8-3.55l.5.15.55.2q-.15-1.8.95-.8l.1.05m24.2-5.7l-.45-.55-.05.4.5.15m23.8-55l-.1-1.85q-.45-5.6-3.55-5.6l-.6.3q-.7.5-1.7 2.15l-1.3 2.25L83 8.7l-.7 1.85-.6 1.25v.05l-.15.25-.95 1.2q-.25 0-.55-.4l-.25-.75q0-.95 1.6-3.55l.55-.75q.9-2.35 2.1-3.85 1.8-2.35 3.75-2.25 1.85.1 3 2.6 1.25 2.55 1.25 6.9l.1 2.6-.3 1.35v1.15q-.25 2.55-1.35 2.55h-.05q-.2.25-.5.25-1.25 0-1.55-.45l-.2-.7q-.9.65-1.6-.5-.75-1.4-1.15-1.4l-.2.5-.35.2q-.8 0-2.25-1.1-1.5-1.05-1.5-1.4l.05-.4.05-.15h.05l.65.15.7.3 1 .6q0-.9.6-.9l2.6.75 1 .65.2-.8q.15-.6.7-.6h.1l.3.05.1.05.1.15v.3l.05.55.05.5.1 1.35.25-.05-.05-.7V16l.05-.35.25-.6.05-.1.1-.25.4-1.8.05-.9q.1-.8.3-.95l-.05-.95M89.3 18l.25-1.15L89.3 18m-7.6-6.2q1.15-4.65 2.9-7.05 1-1.5 2.05-1.8-1.05.3-2.05 1.8-1.75 2.4-2.9 7.05m15.25 25.6q.5-.05.8.55l.15.95q.95 0 1.75 2.65.6 2.1.6 3.05l-.1.35q-.75 1.65-1.05 1.65h-.15q-1.35 2.55-2.75 2.55-.4 0-2.25 1.6l-1.2.9-.1-.2-.05-.1-.05-.1-.4-.35-1.1-.45q-.9-.25-1.3-.6v-.25l.1-.5.1-.05.05-.1.1-.15.05-.05.35-.2q2.4 0 3.3-1.65l.85-2.7.65-1.3.5-1.15-.05-.25.35-1.35.05-2.05v-.3l.3-.15.5-.25m-.1 20l1.45-.25.7.25-.5.35.6.15 1.15.25 1.05.45.35.25q.55.4.55 1.05l-.1.55-.05.1-.8.1-1.8.05q-.75 0-2-.5l-1.15-.5-.5-.05-.2-.3 1.25-1.95m2.75 10.1l-.35.4-.45.75-.5.85-.6.05v.4l.1.55v.05l-.5.75-.55.65.05.2.1.3.45.05q.35 0 .7-.35h.25l.45-.15.1-.25q0 .55.45.75l-.1.8-.25-.1-.25-.2-.4.4-.25.25-.05.05-.05.05q-.55.4-.8.4l-.15-.5q-.35-.25-1.3.3l.25-1.55-.25 1.55-.45.3-.1-.15-.4-.25q-1.2 0-1.9-.4-.55-.4-.55-.9 0-.55 1.85-1.8l2.5-1.5 1.45-1 .35-.25q.65-.35 1.15-.5m-.7 9.4q.75-.15 1.05.45l-.4 3.05.4-3.05.05.2.2 1.35-.5 1.25-.15.25-1.1 1.15-2.5 1.55-.35 1.2.05.25-.45.25-.05-.6-1 .1-.1-.4q0-.75.3-1.35l-.05-.2q1.4-3.45 3.55-4.95l1.05-.5m-.35-33.2l-.05-.05v.25q-.1.4-.6.4-.6 0-1.1-.5-.4.55-.65 1.9l.15.35q0 .15.45.15.55 0 .8-.65l.2-.9.3.4.4.15.1-1.5m-23.6-10.05l-.85.15.85-.15M37.85 82.7v-.05l.55.3.65.4q-.1-1.65.8-.85l1.2 1.35v-.55q.15-.4.5-.4.4 0 .55.4l.5.7q1.25-.3 1.65 1.1l.6 2.15q0-.85.15-1.55.35-1.25 1.05-1.25.6 0 .75.4l.05.7q1.3.05 1.8 1.25l.65 1.4.25 1 .15.55.25 1.9q0 .5.1.45l.5.15.65-.45.45-.45 1.4 2.9q.45 0 1.25.65l.1.1q1.9 1.7 1.9 3.05l-.3.55-.6.4-1 .6.15.85q.4 0 .65.3l.35.55q.9-1.25 1.5-.7l.2.15.4.8.1.4v.2l.25 1.7q.35 1.35 1.35 3.1l.45.8-.1-3 .15.45q.2.5.2 1.9l-.05.05-.05.9q1 1.85 1 2.3l-.15.65-.1.15-.3.25-.85.2-.35-.05-.3-.15-.2-.15-.5-2-1.5-2.85-1.6-2.1-.8-.5q-3.85-1.15-3.85-2.15l.2-.3.45-.4-.5-.1q-.15 0-.15-.7v-.1l.1-1.3q.25-1.5 1.15-1.5h.3l.5.15.4.25-.1-.3h-.05L51.6 95.7q-1.5-2.1-2-3.5l-.15.6-.75.25q-.85 0-1.65-1.3v.55q-.05.35-.9.35L45 91.8l-.15-.2q-1.4-1.2-1.65-2.25-1.6.5-2.15-.25L40.5 88l-.95.7-.9.45-.35-.1.3.95-.55 1.55-.35.4.3-.15.8-.15q.5.1.5 1l-.6 1.85-.05.05.2 1q.15.85.55.95v.55l-.3.8-.4-.4-.3 1.2q-.5 1.2-1.1 1.2h-.1l-.2.95.95.45v-.3l.3.25-.05.2.4.3.65.65.35.35.55.6.15.2.4.55q.95 1.25.95 1.65l-.85.9-1.1-.85-.45 1.4-.55.25-.3.05-.8.05-.7-.1.3 1.5.1.2v.1l.1.45.2.7.3 1.1q.4.05 1.05.8l2.8 3.7 2.4 2.15q1.55 1.4 1.55 2.3l-.7.75-.15.05q-1.4-.2-3-1.6l-2.15-2.4-2.15-3.2-.3.25-.65-.55q-1.65-5.75-1.8-13.7.15 7.95 1.8 13.7-.6-.6-1-1.6l-.1-.5-.45-1.3v-.1q-.5-2.3-.5-4.95l-.1-2.85-.1-2.35.3-.8v.1l.05.85.1-.2.4-.75.15-.25q.4-.75.45-1.8h-.35l.15-.4.1-.15-.2-.65-.25-1.4q0-.55.55-1.15l.65-.65.8-.55-.35-2.5-.4.2h-.05l-.4-.15-.1-.15-.05-.35.2-.3.05.45.15.15.4.15q.65 0 1.05-1.7l.35-2.4.75 1.55q.35.85.95 1.15l.6-.6q0-.65-1.55-3.45l-1-1.6m13.8-8.25l-.1.1.2.85.25.95-.1-2.25-.1-.1-.1.25-.05.2m-3.1 33.8q.2.2.45.2.45.75.95.75.4 0 .6-.55l.4.15.4-.2q3.3 4 4.65 4l.5-.4.35-.55.3.35h.2q.2-.3.5 0l.9.25.55.25.6.35q.2-1 .5-1.15.25-.05.55.4l.05.05q.75.95 1.1 2.55v.05l.2 1.4.1 2.2v2.55q-.3 1.7-1.55 2-.4.95-.75.95l-.75-.05-.75-.2-.2-.1q-.65-.3-.65-.8l.05-.4.15-.7.1-.45v-.8q0-.4.15-.9l-.2.35.75-1.8v-.3l-.1-.1-.05-.1-.15-.1-.15.05-.1-.05h-.05l-.45.25-.5.4v-.1l.15-1.4-.6-.7-.55-.55-.55.85.05-.6.1-.65v-.05l-.4-.35v-.2l-.15-.05q-.5 0-.8.65l-.35 1.05-.15-2.15q-.2-.95-1.3-1.25l.15-.45q0-1.35-.5-1.35l-1.55.15-1.45-1.1q-1.1-.8-1.8-1.05l-.25-.1h-.05l-.05-.15-.1-.45.6.5.2.1q.45 0 .7-.4m-2.8-18.3l.05.45h.05l-.05-.75-.05.3m6.6 11.2h.15l-.05-.6-.7.25-.2.05.6.25.2.05m-14.3-4.95l.25.5.05-.45.15-1.35-.45 1.3m-1.95 12.1l.05.25.65 2.2.5 1.55q.1-.55.3-.7l.1-.05-1-4.2q-.6-.2-.9-.65l.25 1.35.05.25m30.7-3.05l.35.45.1.2.4.3.4 1.15q.65 1.55 1.55 1.95l-.75.3q-.6 0-1-.7h-.05l-.45-1.05-.15.25-.5.15-.7.1-.45.1-.4-.25-.4.05q-.8 0-1.25-.7l-.1-.2-.3-.1-.3-.15h-.05l-.35.15q-.5 0-.85-1.15h-.05l-.1.15-.05.05-.45-1.65-.15-.6.15.6.45 1.65h-.05l-.1-.05-.2-.1-.15-.05-.45.2v-.05l-.15-.3.2-.75.25-1 .05-.15.05-.15.25-.5v-.15q0-1.25.8-1.7.8-.55 1.2 1.65.75-.5 1.1.15l.4.7q1.15 0 1.8.8l.2.3.25.1m-52.45-12l.2.05-.25-.25-.05.2h.1m-11.8-7q-.85-.25-1.25-1-.5-.85-.2-2.05l.05-.15-.05.15q-.3 1.2.2 2.05.4.75 1.25 1M9 89.75l-.2-.35q-1.1-1.75-2.7-2.35l-.8-.25.8.25q1.6.6 2.7 2.35l.2.35m8.75 18.8l.4.55 2.6 2.85-2.6-2.85-.4-.55m4.15 4.4l1.3 1 2.6 1.6-2.6-1.6-1.3-1" fill="#d07d40"/><path fill-rule="evenodd" d="M62.5 21.2q-.55.1-1.05-.8 1.1-1.85 3.15-.7 1.95 1.1 1.95 2.2l-.55.55q-.7-1-1.85-1.3 1.15.3 1.85 1.3h-.05q-.65-.2-1.4-1l-.4-.3-.1-.1-.1-.05-.7-.3-.6.5h-.15m5.8-2.7l.95-2.35q.95-2.05 1.25-1.5l.1.85-.45 1.3-.3.85-.4 1.05-.1.25-1.25 3.15-.45.9-.4-.1-.05-.15-.1-.3.1-.35 1.1-3.6m2.3-.35q.55-1.8 1.55-3.65.9-1.5 1.5-1.85l.45.05.2.9-.15.55q-.3.65-.8.65l-.35.1q-.9.45-1.3 3.3l-.15.9h.05l.1.05h.1q.5.25.85 1.85.45 2.15.7 2.4.05-.65.75-1.55l-.2-.1-.1-.15-.05-.65.15-1.25.05-.4q.5-1.9 2.05-4.45l.85-1.35q1.25-1.85 1.35-.85l.05.25-.45 1-1.2 2.45-.55 1.3q.9-.9 1.9-1 1.15-.1 2.4.95l1 .85.4.55q.95 1.25 1.1 2.65V22l-.05.2-.25.25v.65l-.05.05-.2.15-.35.05-.45-.1-.1-.15-.35-1.35v-.1l-.55-.95-.05.25-.15.3h-.05q-.75-.55-1.75-.55 1 0 1.75.55l-.3.2h-.15l-1.1-.65-.2-.1-.4-.2q-2 0-3.35 2.45-.65 1.2-.9 2.5l.35.35.3.3-.2.4-.1.15-.2.15-.65.1h-.2l-.45-.25h-.15q-.55 0-1-1.15-.35-.9-.35-1.4l.1-.65.1-.1-.1-.35-.2-1.2-.25 1.2-.5-.4-.3-.7q0-1.9.55-3.75m-.3 14.8l.35-.15-.1.15h-.25.25l.1-.15.45-.05.5.15 1.25.45 1.25.45-.65.2.65-.2.5.1.45-.15h.05l.1-.1.1-.05v-.05l-.05-.1.2-.1q1.4 0 1.65-.8l.6-.75h.5l.35.15.4.7v.15l.05.4-.05.2-.1.35-.35.2-.7.55v-.05l-.35-.3-.45.05v-.05l-.05-.15-.15-.1-.15.1-.05.15.05.1.15.05-.45.3-.05.05q-.45.35-1.1.45l-.1-.05-.15.05h-.1l-.55-.05h-.25l-.65-.2-.2-.05-1.2-.35-.25.3-.05.05q-.25.3-.5.3l-1.35-1.15.05-.45.4-.55m2.85 1.15l-.05.05.1.15.15.05.1-.05.05-.15-.05-.15-.1-.05-.15.05-.05.1m.25.75l.9.2-.9-.2m-1.25 9.1L72 43.9l-.2.3q-.2.25-.4.25l-.45-.35q-.9-.65-.9-1l.05-.4.05-.1 4.75.55q2.55.55 3.15 1.2l-.55-.1-2.3.15-1.95-.3-1.1-.15m4.1-25.25q-.5 0-.45-.2l-.05-.05Q75.2 19.9 75 20.9l.95-.8q1.05-.7 2.95-.35.2-.8.75-.7Q78.55 18 77.4 18q-.45 0-.7.35-.15.35-.45.35m14.4 3.1l.1-.3.1-.15.55-.1.3.05.4.25.2.3v.1l.1.3.15.4V21.75q.1-3.15 1.1-1.95l.65 1 .5 2v.35l-.2 1.3-.05.2-.05.1q-.3.95-.85 1.35l-.15-.1-.45-.45-1-1.3-.2-.3v-.05q-1.2-1.65-1.2-2v-.1m1.05 7.25v.1l-.1.85q-.25.65-.95.8h-.2l-.5.15h-.15l-.55 1-.15.35q-.4 1.05-.95 1.05l-.4-.25-.4-.2-.5-.35-.45-.35.6-.8 1.45-2.35.05-.1.05-.2-.15-.1-.05-.05h-.1l-.8-.15-.35-.1-.4-.05-.15.05-.3.25q-.2.2-.4.2l-.45-.05-.05-.1-.05-.15-.05-.1v-.2q0-1.75 2.2-1.25l.55.25-.6-1.1v-.35l.3-.35q.45-.25 1.65.45l.55.4.55.05q.5.2.7.9l.05.05.45 1.25.05.35v.2m-3.5 8.2q1.45-2 2.3-2l.45.15.1.1q0 .45.1.45l.2-.45 1.25-2.35q.75-1 1.3-.8l.45.4 1.35 2.35.1.25q.35 1 .35 2.45v.3l-.05 2.05-.35 1.35-.35.6-.45-.25-.3-.25-.2 1.1-.1.35-.15.2q-.25.25-.55.25-.4 0-.6-.3l-.45 1.2q-.75 1.5-1.6 2.3v-.55l.1-.2 1.35-3.1q0-1.4-.55-1.8l.85-.35.25-1.95q-.7.1-.95-.25l-.35-.7-.4.55q-.5.45-.8.45-.5 0-.55-.7v-.95l-1.3 1.75-1.25 1.25-.4-.1-.15-.2-.05-.25.5-.95.85-1.3.05-.1M75.3 33.6l3.65-.8-3.65.8m-.6.85l1.6.2-1.6-.2m12.9 4.2h-.3.3M91.65 77l.2-.25q.7-.7 1-.7.5-.95.8-.95l.3.1 1.1-.85.2-.1.45-.3q.95-.55 1.3-.3l.15.5h-.1l-.3.25v.1l-.25.7-.5.7-.05.05q.4.4.4.85l-.15.25-.4.15-.7.65-.3.25-.6.55q-.2.9-1.3 1.9l-2.35 1.95-.6 1.2.35-2q0-1.8-.75-2.85l.35-.45.6-1.1.45.15.7-.45m3.15 1.1l.9-4.15-.9 4.15m-6.3 9.25q.45-.45.45.6l-.2.7-.05.15-.05.1-.15.7.2.4.2.1.05.2-.45.8-.1.1-.25.25q-.7.9-1.4 1.1l-.35.05H86l.05.2-.6 1.55.85-3.3.05-.05q1.45-3.1 2.15-3.65M75.55 77.7l.5-.4.1-.05q.65-.45 1.65-.65-.3.1-.65.3-1.45 1-1.45 3l.05.8-.6.65q-1.1 1.3-1.1 2.2l.2 2.6-.9 2q-.45 0-.45-.2l-.1-1v-.05l.7-3.8.05-.3.4-1.9v-.05l.55-2.1.25-.2.5-.5.3-.35m-.25 15.2l.4-.55.25 1.2.1.35v.1l-.6.15q-.45 0-.45-.2l-.1-.4.4-.65" fill="#edcaa7"/><path fill-rule="evenodd" d="M69.4-44.25l-.15-.15-.4-1-.1-.45v-.25q0-1.25.85-2.1.65-.65 1.5-.8l.25.05-.25-.05.15-.05.1.1.4.3q.75.8 1.4 1l.35.6.4 1.25v.45l-.4-1.7.4 1.7-.25.9-.3.6h-.75.75l-.2.4-.7.3-.1-.05-1.1-.55h1l.35-.1q-1.8-.1-2.65-.55-.95-.55-1.2-1.6.25 1.05 1.2 1.6.85.45 2.65.55l1.05-.6-1.05.6-.35.1h-1q-.55-.1-1.05-.35l-.05-.05h-.05l-.7-.1m2-3.5l-.3-.4-.3.4q-.15.45-.15 1.1 0 .6.15 1.1.1.45.3.45l.3-.45.15-1.1-.15-1.1m-.4 3h.05l-.75-.5q-.7-.7-.7-1.6V-47l-.15.75q0 .6.5 1.05.4.45 1.05.45m-2.15-.65q.4.7 1.15 1.15l.15.1-.15-.1q-.75-.45-1.15-1.15" fill="url(#gradient0)" transform="translate(-7.2 70.1)"/><path fill-rule="evenodd" d="M64.2 22.35l.15 1.1-.15 1.1-.3.45q-.2 0-.3-.45-.15-.5-.15-1.1 0-.65.15-1.1l.3-.4.3.4m12.95 1l.15-1.1.35-.4.3.4.1 1.1-.1 1.1q-.15.45-.3.45-.2 0-.35-.45t-.15-1.1" fill="#0e1116"/><path fill-rule="evenodd" d="M63.8 25.35q-.65 0-1.05-.45-.5-.45-.5-1.05l.15-.75v.15q0 .9.7 1.6l.75.5h-.05m11.95-2.15v.15q0 .95.65 1.6l.75.5h-.05q-.65 0-1.05-.45-.45-.45-.45-1.05l.15-.75" fill="#dcd5c1"/><path fill-rule="evenodd" d="M100.1 81.4v.25l-.25.4-.25-1.15.05-.35q.4.25.45.85m-57.05 46.25l-.2-.15-.25-.2-2.9-2.9h-.05l-1.6-1.5.65.4q-2.9-3.2-2.9-3.8l.1-.55.1-.25q1.25.1 2.8 1.8l2 2.4.7.65q.75.55 1.7.7l.75.1q.45.05.7.3.55.55.55 1.85l.6.25h.55l.1.8-.2.6q-.3.55-.8.55h-.05q-.75 0-1.65-.75h-.05l-.65-.3m-6.8-4.2h-.15q-1.05 0-1.7-1.15l-.15-.35-.65-1.15-2.05-1.35-.5-.4-.7-.7-.1-.4.05-.3.75.5.6-.5-1-1.8-.4-.65-.3-.55h.4l.45-.4h.05l.6-.5-.15-.45-.85-.1-.1.15-.05.05-.4-.05.2-1.05v-.05l1.25.6.15.25.55.9.55 1.4-.2.15v.05l-.2.25v.2l.1.35.65 1.15.85 1.1q.05.45 1.45 2.6l1.45 2.05-.45.15-.25-.2-1.75-1.3 1.75 1.3.25.2m-8.65-18.3l1.2.95 1.4 1.1q-.8-.25-1.55-.65.75.4 1.55.65l.4.35q1.8 1.55 1.8 2.3l-.55.5h-.35l.35-.4q0-.35-3.2-3.4l-.7-.75-.1-.15-.25-.5M37.7 79.2l-.05-.3.5-1.5.25-.75.45-1.4v.05l.85 3.95-.3-.35q-.05-1.15-1.1-.15l-.5.65h-.05v-.05l-.05-.15.7-2.55-.7 2.55m11.5-26.15l.05-.3q.15-.65.7-.9l.15-.05-.25.35-.6.85-.05.05m14.95-22.8l.05.3q0 .85-1 2.65-.45-.1-.65-.6l-.3-.95-.8-.65-.1-.05-.3-.1q-.4-.15-.4-.55l.05-.2.05-.15.1-.15h.1l.55-.05.9-.05.6.1 1.15.05v.4m-3.1.6l-.35-.75.35.75m-2.3 18.1l-.4 2.45-.1.55-.3 1.75.2-.15v1.1l-.05.2q-.15.2-.15.4l-.05.65v.35l-.15-.25-.1-.1-.05 1.65.25 6.55-.05 2.3v.05l-.15.75.15 1.65.1 1.65-.85-7.25V58.3q.55-3.95.55-8.4l-.3-.9.6-1.55q.8-1.85 1-1.2l.05.55-.05.7v.2l-.15 1.25m5.95 36.4l.05-.2v-.7q0-1.25-.35-1.9l1.25.4 2.3.6q1.2 0 2.25-1.05l.9-1.15-1.4 5.25.05.35v.15q-.5.5-.95.6-.3-2.6-2.35-2.3l-.85.25-.15-.15-.2-.1-.55-.05m-2.15-3.4q-.15.15-.15.4l.2.6-.6-.4-.65-.3-.1.05-.2-.15-.85-.2q-.65-.15-1.2 0l.15-.55.4-1.15.1-.7q.05-.6-.1-.55h-.1l.1-.2v-.25q0-1.4.35-1.65.3-.25.95.4 1.3 1.4 1.3 3.65l-.2.5-.1.25.7.25m3.4-27.75l-1.2-1.1-.4-.95 1.6 2.05M54.8 47.95q.35-.45.5.35l.25.1-.55.05v-.1l-.2-.4m.75.5l.1.35-.05.15-.05-.5m-.15 4.6l.4.1v.1l-.05.4-.25-.5-.1-.1m2.3 25.05V78l.15-.5-.15.6m15.45-3h-.2l-2.75-.85-.3.5-.35.25-.4-.85.7.1q1.45 0 3.95-1.9l.25-.15.25.05-.9 2.05-.25.8M58.2 48.9l.7-1.4-.7 1.4m3.5 1.3l.4.75-.45-.35.05-.4m-2.8-2.5q-2.15 7.9-1.1 18.7-1.05-10.8 1.1-18.7m31.15-26.05l.6.15v.1q0 .35 1.2 2v.05l.2.3 1 1.3v.4q-.1 1.35-.75 1.35l-.45-.1-.1-.1-.3-1.75-.1.3-.45.15q-.4 0-.7-.55l-.15-.55v-.2l-.15-1.2-.85.05-.55-.2q-.7-.25-.7-.65l.3-.4.25-.25 1.2-.15.5-.05m4.75 3.05l.1.25.1.5v.35l-.25.9-1.25 2.15-.45.6-1.6 2.1-.55.8-.65.75-.7.75-1.2 1.15-.2.15-1.95 1.7-1.15.6h-.25q-.45 0-.4-.2l-.15-.35v-.05l.4-.75 1.2-1.4 1.3-1.1.15-.15.45-.35.4.25q.55 0 .95-1.05l.15-.35 1.25-1.15h.15q.7-.15.95-.8l.1-.85v-.1L93.5 26l.15.1q.55-.4.85-1.35l.05-.1.25.05m-6.7 9.75l-2.25.25 2.25-.25m12.4 17.8l-.25 1.7-.35-.25q-1.1-.75-.65 1.4v.4l-.85-.05-.05-.1q-.45-.4-1.3-.25l-.05.15-.05.35.1.25-.6.3-.9-.7.75-1.1q.9-1.5 1.45-1.5l1.8.25q.5 0 .95-.85m-.1 20.45l.25-2.65v-.55l.2-1.2-.05-.65.15.2.3 1.2-.3 2.15-.45 1.35-.1.15m1.65-22.2l-.05.2v-.2h.05m-3.7 33.75l-.6.45q-.45 0-.75-.3l.55-.95.3.55q.15.2.5.25m-3.15 12.1h.05l.35.2-.1.1-.3-.3m-7.5 12.55l.25 2.15-.95.3h-.15l-.5-2.25h.1l1.25-.2M74.4 98.1l.1.6V100.75q-.2.65-.75.65-.85 0-1.1-.55l-.1-.7q-.45.15-1-.25l-.25-.2-.2-.9-.4-.65.6-.05.55.1.3.05.1-.25.15-.55.15-.5-.15-.5-.25-.5q0-.55.4-.6.35-.05.8.45l.3.4.1.1.65 1.8m1 9l.05 1.3v1.4q-.15.95-.7.95-.7 0-1.35-.9l-.2-.35-.4.7q-.55 0-.85-1l-.85.2-.55-.05 1.1-.7.35-.75 1.05-.65.3-.5.05.1.05.3h.15l.55-.15q-.25-.4-.1-1 .7-.1 1.05.35l.1.2.15.45.05.1m.7 6.2l.15-.2.35.25.1-.1q.1-.1.15-.1l.65-.15.25-.1-.7.75-.2.35-.05.1-.1.1-.05.4v.05l-.2.3-.2.1q-.2 0-.25-.1l-.05-.6.05-.3.1-.75m-.9-6.75l.25 2.7-.25-2.7m7.1.4l.15-.35q.1-.35.35-.55l.5-.3v.45l-.7 1.9-.9 1.75q-.1-.45-.5-.25l.05-.1.6-1.5.45-1.05m-2 3.6l-.55.8-.1.05.05-.15.05-.15q0-.75.3-.75l.15.1.1.1m-1.55 2.25l.05-.1.3-.45-.3.55h-.05m-3.4 1.9l.25.55q.4 1.15.45 2.7v.45l-.05 1.55-.05.45-.05.15q-.2.55-.65.55l-.4-.1-.1-.25v.55l-.6.4q-.4 0-.65-.35l-.25-.75-.75-.05q-.6-.05-.9-.4l.75-1.8-.15-.7-.2-1.05q0-1.1.8-.25l.15.25.6-2.4q1.1-.75 1.8.5m1.6 9.5l.15-.1.6.4-.15.15-.4-.1-.2-.35m7.95-1.05l-.4.15-.3.1.65-.65.05.05.05.15v.05l-.05.15m-5.25-9.5l.15-.15-.1.15h-.05M56.55 82.3h.1l-.2.45-.05-.15.15-.3m3.9-1.05l-.3-.5-.05.45.35.05m1.5 2.6l.8-.1.05-.25.5.9-2.3-.5.95-.05m-8.85-3.1l.05.05.9 1.95v.1l-.55-.65.05-.25h-.1v.1l-.65-.9.3-.4m.95 4.3l-.1-.4 1 1.25v.65q-.45-.25-.9-1.5m3.75 16.65l.25.25-.05.05-.05.4v.6l-.1-.75-.05-.55m1.35-.15q-.2-1.25-1.9-4l-.75-1.1q.15-.1.25-.1.75 0 .85 1.05l.1.7v-.15q.05-.55.6-.6h.05l.25.05.45.5.1.35.1 1.2v.5l-.1 1.6m-4.35-7.9l-.35-.85.55 1.25-.2-.4M52.1 83.6l-.45-1.6-.15-.5 1.1 1.4.2.3-.7.4m-16.15 2.95l.15 1.8q-.1-.6-.35-.65l.2-1.15m2.85 4.05q.9.35 1.2 1.5l.5 1.8.15-1.4q.15-.7.65-.95l.2-.05v.05h-.2l-.1.2q-.15.15-.15.55l.1.35-.1 1 .15.9-.7-.65q-.4-.15-.7.15 0-2.9-.95-2.85v-.05l-.05-.55m3.95 1.05q.25-.3.3.25l-.15-.05-.15-.2m-.3 2.35l.65.4-.05.2h-.25l-.35-.6m-1.1 3.85l-.3 1.5-.25-.25.1-.8.15-.9.3.45M42.4 103l.65.2q.85 0 1.3-.9l.15.25v.85l-.25.4-.1.15-1-.4-.45.2-.3-.75m2.75-.45l.25.55h-.25l-.05-.8.05.25m-5.1 4.6l.15-.3q0 1.6.6 3.75-.65-1.95-.75-3.45m6.75 13.05l.4-.45-.05-.35-.65-.95.05-.1.3.05.45-.3.3-.35.3.25.3.15.5.45.1.5-1.15 1-.3.25-.8.55.3-.35-.05-.35m4.85-2.7l.95-1.9q1.15 3.15 2.25 3.65l-.15.15-.45.15q-.5 0-.85-.75l-.25-.85q-1 .3-1.5-.45m-12.15-17l.05-.1.2.05.05.15-.3-.1m-2.5 18l-.35.25-.45-.4.25-.2.05-.2.5.55m9.25-.8v.05l.05.4-.2-.3.15-.15m8.7 3.65l-.1-.7.1-1.35.3.05.4-.15.15-.25.05 2.9.1.1v.05l-.3.05q-.5 0-.7-.7m9.85-5.6l-.05-.55q0-1.1.95-1.05.95.1 1.5 1l1.55 1.3.3.3.7.85.1.35-.2.75-.3.55q-.6 1.1-1.5 1.65l-1.9-2.2-.25-.4-.25-.35-.55-1.95-.05-.1.05.1.55 1.95-.3-.65-.25-.85v-.05l-.05-.5-.05-.15m.1.25v.4-.4m-51-30.5q.15-.35.45-.1h.1q.4 0 .65.45l.05-.05-.1-.1-1.85-2.1.2-.05.1-.5-.25-1q-.35-.8-1.3-.4-.35-.9-1.2-1.15l-1.55-.05-.4-.2q.4-.25.8-.35 1.65.4 3.15 1.35-1.5-.95-3.15-1.35 1.4-.3 3.15 1.35 2.25 2.1 5.2 7.35l-.15.25v.6l-.35-.85q-.2-.45-.65-.45l-.2.05q-1.15-1.35-2.55-2.05l-.1.1-.05.35 1.25 2-.35-.05q-.8 0-.65 1.05l.3 1.35-.85-1.4.15-1.05-1.25-.4-.9-.45-.05.05-1.5.05-.05-.4-.25-.95-.15-.75.05-.4.1-.1q.6-.25 1.5.7 1.1 1.2 2.45 1.3v-.25q0-1.05.2-1.4m1.8 4.1l.1.1.2.35.05.55-.35-1m3.9 3.7l.1-.55.1-.7.4.8.45 1.25.5 1.05-1.55-1.85m7.45 13.65l-.05-.05v-.1l.05.15m-3.2.4L24 107q-.05-.55.05-.65l1.35 1.75.1.15-.2.2h-.1l-.35-.25-.2-.2-.05.05-.65-.6-.1-.1m5.25 2.25l-.35-.4.15-.15-.5-.85.1-.35 1.4 1.35.05.05.25.3-.05-.1.55.55-.3-.15 1.05 1.45-.05.25q-.15.6-1.15.6h-.15l-.15-.2-.3-.35q.35-.85-.55-2m-1.15 3.9l-.1-.1-.7-.6q-2.45-2-4.1-2.95l-1.8-1.8-1.1-1.3.35-.4 1.05 1.05 5.4 5.15.45-.4.05-.05.5 1.2v.2m-8.5-7.65l-1.45-2.7v-.05l1.6 2.25-.15.5m3.4-3.35l.2.2-.15.35-.05-.55m-2.8 1.1l.25.15-.1.1-.15-.25m1.2 1.65l.65-1 .35 1.75.3.8-1.3-1.55m3.55 3.05l.15.2.4.4.15.95v.1l-.05-.05-1.05-1.15.4-.45m19.5 17.75q-1.55-1.05-2.8-2.5 1.25 1.45 2.8 2.5m.7.95l-.15.3-.4.45h.05l.6-.55-.1-.2m.4 1.7l-2.8-1.4 2.8 1.4m55.1-56.15l.45-4.7-.45 4.7m-26 28.2l-.75-4.45.75 4.45" fill="#d88d56"/><path fill-rule="evenodd" d="M64.65 35.45l-.05-.1.05-.15.15-.05.15.05.05.15v.1l-.05.05-.15.05-.15-.05v-.05H65h-.35m-1-1.2v-.05l.05-.15.1-.05.2.05.05.15v.1l-.05.05-.2.05-.1-.05-.05-.1.4.05-.4-.05m1.5.05l-.05-.15.05-.15.15-.05.15.05.1.15-.1.15-.15.05-.15-.05m-1.05 2.35l-.05-.2.05-.1.1-.05.15.05.1.1-.1.2-.15.05-.05-.05h-.05m-1-1.15l-.05-.15.05-.15.15-.05.15.05.05.15-.05.15-.15.05-.15-.05m2.1 2.05l.05-.05.15-.1.15.1v.3h-.3l-.1-.15.05-.1m7.2-1.2v.1l-.05.1q-.1.1-.2.1l-.15-.1v-.25l.15-.05.2.05.05.05-.05-.05.05.05M73.45 34l.05.15-.05.15-.1.05-.15-.05-.1-.15.05-.05.3-.1-.3.1.05-.1.15-.05.1.05m-1.8 1.05l.15.05.05.15-.05.15-.15.05q-.1 0-.1-.05l-.1-.15.1-.15.1-.05m-5.55 1.3l.05.1-.05.2-.15.05-.15-.05-.05-.2.05-.1.15-.05.15.05m0-1.45l-.15.1-.15-.1-.05-.15.05-.15h.3l.05.15-.05.15m-1.75 1.75h-.2.2M75.3 33.6l-.1.05-.1.1h-.05l-.1-.1-.05-.1.05-.15.15-.05.1.05.05.05.05.1v.05l-.35.05.35-.05m-.1 1.5l.1.15-.1.15v.05h-.1l-.15-.05-.05-.1.3.15-.3-.15v-.05l.05-.15.15-.05.1.05m1.45.85l-.05-.1.05-.15.15-.1.15.1.05.15-.05.1-.1.05h-.05l-.15-.05m.15-1.65l-.15-.05-.05-.1.05-.15.15-.1.15.1.05.15v.05l-.05.05-.15.05m1.85 1.1l-.15.05-.1-.05-.05-.15.05-.15.1-.05.15.05.1.15-.1.15m-1.1 2.7v.15l-.15.05-.15-.05-.1-.15.1-.15.15-.05.15.05v.15m-2.9-1.85l.1.15-.1.15-.15.05-.15-.05-.05-.15.05-.15.15-.05.15.05m.8 1.3l.1-.15.15-.05.1.05.05.15-.05.15-.1.05-.15-.05-.1-.15" fill="#ccc"/><path fill-rule="evenodd" d="M57.5 81.95l.1.2-.2.25-.15.1.25-.55-.25.55h-.05l-.1.05h-.15l-.3-.25h-.1l-.45-.75-.25.2.55.85.05.15.15.45-.2 1.75-.2-.5q-.4-.9-.4-1.65 0-.5-.75-1.9l-.05-.35.1-.25.15-.15.15-.2-.4-1.15v-.2l-1.4-4.35-.15-.95.05-.85q.2-1.4 1.5 2.05l1.55 4.9.35.65.3.9.25.65.05.35M55.55 48.4v.05l.05.5.05.4L55.4 51l-.15 1.55.15.5.1.1.25.5.05.2-.05.1-1.7 3.2q-1.4 0-1.4-1.65l.1-1.55.4-2.1.05.05.2.2q.25.15.45.15.6 0 1-1.95l.15-1.85.55-.05m22.9-17.65v.1l.05.35.4.05h.05l.05.05-.2.2-.6.3h-.5l.35-1.1-.45-.25.85.3M89.4 88.9v-.05q1.65-3.9 1.65-2.45l-.25 1.05-.1.3-.05.05h.1q.55-.1.55.55l-.4.7-.3.5.05.2h.05l.05.1.25.55q.1.25-.55 1.5l-.7 1.05-.55.95-1.05 1.65-.45.7-.9.9-.45-.1-.15-.55.35-.8v-.1q-.15.1-.15-.45l.05-.25.25-.45-.5.15q-.5 0-.45-.2l-.1-.4 1.1-1.45q.7-.2 1.4-1.1l.25-.25.1-.1.45-.8-.05-.2.35-.8.15-.4m-4.55 33.85l.1-.15v.2h-.05l-.05-.05m.9-4.05l-.35 1.05.15-1.15.05-.85.2.25.05.2-.1.45v.05m-8.2.8l.15-1 .05.45-.2.55m1.1-2.05v-.2l.1.3-.1-.1m5.5-8.05l.1-.1.1.05-.1.9.15.35.15.3-.15.6-.1.2-.25-1.9.1-.4m1.35 1.5v-.6l-.35.35V109.7q.7.65.8 2.35l-.1 2.6-.05.5.05-1.15q0-1.3-.35-1.25v-1.85m-7.7 9.4l.05.15-.1.3-.1.05-.15-.3-.1-.05.05-.15.2.05.15-.05M54.95 86.55v-.65l.45.45.85-.15-.25 1.05.35.5.25 1.3v.8l.15.65.2.65v1.05l-.2.15-.1.05h-.45l-.25-.1-.1-.1-.05-.35-.1-.45-.1-.45 1.05 1.45-1.05-1.45-.35-1.2-.65-2.15q0-1.05.4-.85l-.05-.2M35.45 97.2h.35q-.05 1.05-.45 1.8l-.15.25-.4.75-.05-2.05.05 2.05-.1.2-.05-.85v-.1l.1-1.3q.1-.65.35-.75h.35m6.4 22.4q1.6 1.4 3 1.6l.15-.05.7-.75q0-.9-1.55-2.3l-2.4-2.15-2.8-3.7q-.65-.75-1.05-.8l-.3-1.1-.2-.7-.1-.45v-.1l-.1-.2-.3-1.5.7.1.8-.05.15.85-.25.2.1.3.25.55.55 1.25.65 1.2v-.05q1.05-.7 1.2.65 0 .55.4 1.3l.1.35.8 1.1.4.45q1.1 2.45 2.45 2.45l.25-.05.25.3.55.1.1.05.25.15v.2l.05.8.15.6.05.35-.3.35q-.15.05-.3.2l-.05-.05-.15.3-.15.2-.7.3q-1.35 0-3.35-2.25m-1.7-16.3l-.55-.6-.3-.55-.05.15v.05l-.65-.65-.4-.3.05-.2-.3-.25v.3l-.95-.45.2-.95h.1q.6 0 1.1-1.2l.3-1.2.4.4.3-.8.3-.5.5-.55 1.25-.95-.25-.5-.15-.9.1-1 1.3 1.35.35.6h.25l.05-.2.2.15 2.15.25.25.1q.8.55.9 1.5l1.1.55q-.8.15-1.45.8v-.7l-.55.45h-.05q-1-.15-1.35-.75l.05.3-.25-.55q-.5-.35-1.95-.35h-.1l-.05.15-.05-.15q-.6.15-.9 1.25l-.15.9-.1.8.25.25-.05 1.25.25.45.75.15v.95l-.2-.05-.2-.4v-.1q-1 1.75-1.2 1.75l-.25-.05M38.8 91.65l-.8.15.05-.25.55-1.55q.2-.3.2.6l.05.55v.05l-.05.45m13.95 5.7h.05l.1.3-.4-.25-.5-.15.75.1m-1.05-.1q-.9 0-1.15 1.5h-.05q-.35-.3-.35-.6l.1-.6.1-.15.45-.1.9-.05m6.5 12l.5 2 .2.15.3.15.35.05.85-.2V111.7q-.3.15-.5 1.15l-.6-.35-.55-.25-.9-.25q-.3-.3-.5 0h-.05l-.45-.4q-.85-.75-.85-1.15l.1-.6.15-.2.3-.05.6-.15 1.05-.2m-9.2-.8l.75-.65.35-.7.1 1 .35.55q-.2.55-.6.55-.5 0-.95-.75m.4-9.5l.2.65q-.85-.4-1.55-.65.4 0 .95.35l.4-.35m4.45 6.65l-.2.1-.4-.35.3-.15.3.4m-14.35-5.1l.3.1-.05-.15-.2-.05-.05.1m-1.45-4.3l.45-1.3-.15 1.35-.05.45-.25-.5m20.3 27.35l-.2.1-.9.45-.2-.15-3.3-.4 3.3.4.2.15-1.4.65-3.7 1.05-.65.1-1.7.1-.3-.05-.2-.15-.1-.4.55-.5q1-.7 3.3-1.2l.15-.05.55-.1 3.6-.85.45-.4-.05.4q0 .5.65.8l-.05.05m6.1-3.1l-.3.2-.1.05-.45-.15-.15-.4.1-.4.1-.1.65-.05.25.15.1.4-.2.3.1-.7-.1.7M16.9 99.25l.15.45.45 1.45.4 1.55.05.3.05.1v.05l1.45 2.7.7.9 1.1 1.3 1.8 1.8q1.65.95 4.1 2.95l.7.6.1.1 2.05 1.75.65.65-.45.4q-.35-.7-2.25-2.2-2.05-1.6-3.75-1.95l-2.9-2.55v-.05q-1.45-1.4-3.45-4.75-1.4-2.3-2.15-4.1l.55-.5-.35-1.45-.65-1.6.8.65.55.8.25.55v.05l.05.05m13.9 15l-.45.4h-.4l-.55-.2-.3-.4v-.1l.1-.4.05-.15.65-.05.4.05.35.2.25.5-.1.15m34.95 10.45q-.1.3-.7.3-.35 0-.5-.2-.15-.15-.15-.65 0-.95.65-.85.7.1.7 1.05v.35M45 127l.1.2-.6.55h-.05l.4-.45.15-.3" fill="#e0a67a"/><path fill-rule="evenodd" d="M48.7 61.15v.05l-.1 1.5.05.7q.15.35.5.35.5 0 .7-1.15l1.3 3.2v.5q-.1.45-.6.45-.95 0-1.55-1.4l-.6-1.7-.6.05-.75-.15-.1-.1v-.7l-.05-.45.15-.1.55.25q.4-1.55 1.1-1.3m-3.05 11l.15.5.4 1.25-1-2.1-.75-1.75L44.3 69q.65.65 1.05 2.1l.3 1.05m1.1.4l.05-.4.25-1.05.4-.3.2.05.35.2.45 1.1v.25l.15 1.35.25.95q.25-.3.55-.3l.5.05.05.4.3 1.55.1.1.15-.4.65-.2.45.15.1.1.05.45.15-.1.4-.05.55.1v1.2q-.4-.1-.4 1.15l.3 1.05.05.6-.2.35v-.05l-.1-.15q-1.15-1.6-1.95-2.15l-.6.6q0 .25 1.55 2.35l.15.5.45 1.6.15.25q.55 0 .95.3l.25.3.2 1.5-.05.55v.05l-.55.65q-1.05-.95-1.75-2.4l-.9-2.65-.05.1-.1.75q-.35.65-1.25.65l-.65-.3q-.5-.3-.5-.6l.05-.4.1-.15.75.05.3.1.1-.4.25-1 .35-1.2v-.05l-.2-.3-.4-2.1-.55.2h-.5l-.1-.55v-.3l-.15-.4-.35-1.4-.45.55-.05.1-.6-1.2.1-.05.25-1.7m-.55 3.35l-.1-.25.2.25h-.1m47.95 8.4l1-.1.05.6.05.35.15.8-.45 1.5q-.4.85-.4 1.35l.25 1.1q.05.8-.5.95l-.3.05q-.3 0-.45.6-.2.55-.7.55-.15 0-.35-.15l-.5-.75q-.55-.75-.55-1.05V90q.05-.45.45-1.55.55-1.45.95-1.8.5-.4.95-1.8.1-.4.35-.55m-5.4 4.35l.65.25-.15.4-.35.8-.2-.1-.2-.4.15-.7.05-.1.05-.15m1.95-.9l.05.05h-.1l.05-.05m.2 1.3l-.25.7-.05-.2.3-.5M89 95l-.5 1-.5.35-.3-.1.45-.7 1.05-1.65.55-.95-.25.7L89 95m2.85 2.75q.15-.35.4-.4l-.4 1.1v.05l-.15.1-.25.15q.05-.5.4-1m-41.4 2.3v.1q0 .7.15.7l.5.1-.45.4-.2.3q0 1 3.85 2.15l.8.5-.3.2-.25.15.75.95q.9 1.55.9 2.85l-.2.8-.35.45.2 1.1h.05l.1-.35q0 .4.85 1.15v.05l-.35.55-.5.4q-1.35 0-4.65-4l-.4.2-.4-.15-.35-.55-.1-1-.35.7-.75.65q-.25 0-.45-.2l.25-.45.2-.95-.25-1.4-.65-1.15q-.95-1.1-2.6-1.2l-.15-.4-.2-1.35-.05.65-.05.2q-.1.3-.55.35l-.15-.25q-.45.9-1.3.9l-.65-.2q-.35-.25-.4-.85v-.95l-.75-.15-.25-.45.05-1.25.3-1.5q.25-.9.65-1.55l.05-.15h.1q1.45 0 1.95.35l.25.55-.05-.3q.35.6 1.35.75h.05l.55-.45v.7q.65-.65 1.45-.8l-1.1-.55q-.1-.95-.9-1.5l-.25-.1-2.15-.25-.2-.15-.65-.4-1.3-1.35-.1-.35q0-.4.15-.55l.1-.2h.2v-.05l-.45-1.35-.25.65-.6.45-.4-.1-.15-.15v-.3q-.05-3.1 1.6-1.25l1.5 2.2.15.2.15.05.65.15.7-.2.6.15.25.5.3.1q3.75 1.1 3.75 1.7l.85 1.65.65 1.35-.45.1-.1.15-.1.6q0 .3.35.6l-.35.25-.45-.35-.3.3-.4.35q-.55-.35-.95-.35.7.25 1.55.65l.85.45m1.9 1.1l-.2-.05-.6-.25.2-.05.6.35m-12.3 6v-1l1.15 1 .1.65.3-.45.4.15.85-.05 1.45-.55.15-.05v.1l2.55 1.7h-.05l-1.45.1-.1.05-.15.15-.05.4v.15q0 .8 3.7 3.15l2.15 1.25q.7 0 1.25-.65l.5 1.1-.05.55v.05l.05.2-.2.45-.95 1.9q-.8 1.35-1.2 1.35l-1.75-.25-.5-.45-.3-.15-.3-.25-.3.35-.45.3-.3-.05-.15-.1-.05-.05.15.25.65.95.05.35-.4.45-.15-.6-.05-.8v-.2l-.25-.15-.1-.05-.55-.1-.25-.3-.25.05q-1.35 0-2.45-2.45l-.4-.45-.8-1.1v-.5l.05-.85-.7-1.85-.1-.25q-.6-2.15-.6-3.75l-.15.3m7.1 1.35l-.4-.8-.05-.15.35.5.1.45m6.1-3.15v.1l.3.7.35 1.4.15-.15.4-.5-.1-.3-.5-1-.3-.4-.3.15m-13.3 2.35l-.1 1.35q0 1.05-.6 1.55h-.05l-.55-1.25v-.25l.1-1.6.5.75q.45 0 .7-.55m6.3 10l-.15.15.2.3-.05-.4v-.05m2.8-2.1l-.05.6-.15.75 1.3-.2v-.65l-1.1-.5m8.1-6.15l-.6.15.4-.2.2.05M3.75 80.2l.35.05q-.5.2-.9.55l.3-.5q.1-.1.25-.1m-.25 2.9l-.05-.1-.1-.25.25-.4.05-.2q.15.2.5.2l1.25-.6q1.05 0 1.75.85l.9.9.6-.55q0-.55-.55-1.15l.3.15.1-.1h.4L11.95 84q.85 0 1.95 1.5-.2.35-.2 1.4v.25q-1.35-.1-2.45-1.3-.9-.95-1.5-.7l-.1.1-.05.4.15.75.25.95.05.4-1-1.05-.65-.8-1.55-1.75-.8.1-1-.9-.25.2-.05.1q-.15.2-.4.2-.55 0-.85-.75m8.05 4.6l.05-.05.9.45 1.25.4-.15 1.05-1.35-1.4-.7-.45m2.8 5.55l-.05-.2.25.25-.2-.05m11.15 15l1.05.95q.45 0 .6-.3v-.4l.1.05v.1l1.05.95.25-.2.45 2.2.05-.05.05-1.1v-.85q.9 1.15.55 2l.3.35.15.2V112.3l-.2 1.05-.65.05-.05.15-.1.4v.1q-.6-.1-1-1.05l-.4-1.25-.1.25-.15.1-.05.05-.45.4-5.4-5.15-1.05-1.05.25-.35.1-.1.4-.65 1.3 1.55q.4.7.9.7l.4-.15.1.1.65.6.05-.05.2.2v.05l-.05.05-.4.45 1.05 1.15.05.05v-.1l-.15-.95v-.1l-.05-.35.2-.2m4.45 1l.2.2.05.1-.25-.3m-13.05-10q.55.8 1.5.8h.1l.25.8q-1-.55-1.25.3l-.45-1.45-.15-.45m-.85-1.45l-.45-1.25h.25l.4-.05.2 1.5.15.6-.55-.8m1.95 5.3l-.05-.1-.05-.3.65-.05.55.3.6.4.35.25.15.25-.45 1.15-.15.35-1.6-2.25m12.3 10.3l.05-.05.1-.15.85.1.15.45-.6.5h-.05l.1-.15-.25-.5-.35-.2" fill="#fff"/><path fill-rule="evenodd" d="M87.15-48.65q.7.8.7 2l-.05.7-1.9 1.5-.3.3-1.5.05 1.5-.05-.1.05q-.65.2-1.4 0-.35-.05-.75-.25l-.2.05-.25-.25q-.8-.8-.85-1.9l.7-1.45-.7 1.45v-.2l.05-.65v-.05h.05v-.1l.6-.45.75-.45q1.35-.8 2.15-.95 0 .45.25 0l1.1.65h.15m-2.8 1.9q0 .65.15 1.1t.35.45q.15 0 .3-.45l.1-1.1-.1-1.1-.3-.4-.35.4-.15 1.1m-1.4-.15l-.15.75q0 .6.45 1.05.4.45 1.05.45h.05l-.75-.5q-.65-.65-.65-1.6v-.15" fill="url(#gradient1)" transform="translate(-7.2 70.1)"/><path fill-rule="evenodd" d="M81.4 99.65v-.05l.25.05h.6q.8 0 1.65-1.45l.65-1.25.2-.6v.05l.15 1-.75 1.45q-.65 1.15-.65 1.75l.1 1.85-.05.4-1.15.75-.25.15-.6-.4-.2-.55.05-2.8v-.35" fill="#cb9a62"/><path fill-rule="evenodd" d="M94.8 107.95l.25.85-.5.4.25-1.25-.25 1.25-.05.05-.65.5-1.55 1.05q-.4 0-.75-.45-.35-.4-.95-.4-.8.35-1.45.65v1.15l-.35 5.15q-.45 4.65-1.25 5.1l.05.8.55 4.4v.35l-.05.05-.7.15.1.15q.9.55 1.85.55.25 0 .4-.2l.35-.3q.35 0 .85.5l.25.25.25-.05v.25l1.75-.45.35-.15-.25-.8-.25-1.35.05-.35.1-.15q1.25.5 1.5 1.2l.1 1.15.2-.05h.6v-.9q.1-.35.55-.45l.35-.05.35.05.35.15.15.65-.5-.8.5.8v.1l-.35 1.3-.05.15-.15.35q-.4.65-.95.75l-.25.05-2.15.75-.8-.2.2.45-.25.2-.25.3h-.05l-2.4-.85-.7-.45-.15-.2-.1-.4-.7-.1-.25-.1v.3q-.1.3-.6.3l-1.05-1.55v-.05q-1.3-1.05-1.3-1.55v-.1l.1-.25.05-.15h.05v-.3l.05-.65q.1-.3.55-.5l-.25-.1-.15-.15v-.35l.4-3.25.1-.8q-.05-.2.05-.35l.2-2.05-.05-1.3.05-2.15q-.1-3.9-1.2-7.4 1.1 3.5 1.2 7.4l-.05 2.15-.2-1.65-.15 3-.2-.25-.05.85-.15 1.15.35-1.05.1 1.5-.4 1.65-.15.55-.35.6v-.05l-.05-.15h.05v-.2l-.1.15-.65.65.3-.1.4-.15q-.4.5-.95.5l-.15.15-1.1.55-1.5-.15q-1.6 0-2.55.7l-.25-.15h-.05l-.1-.05-.6.1-.35-.05-.15-.2.4.1.15-.15-.6-.4-.15.1q-.35-.7-.45-2.3l-.05-.3v-.5h-.1l-.2-3.65.2 3.65-.2-.05-.15-.15-.1-.35.05-.15.05-.45.05-1.55v-.45l.1-.5q.1-.55.35-1v-.1l-.05-1.4.2-.3v-.05l.05-.4.1-.1.05-.1.2-.35.7-.75-.25.1.6-.75.1-.15 2.5-2.7q1.5-1.75 1.45-2.95v-.05l.35-1.25-.75.15-.45-.1-.1-.25-.05-.25q.15-.4 1-.95l.25-.15 1.15-.75.35-.3q.5-.75 1.1-.75h.3l.05.05q.3.15.3.7l-1.3 1.35-.45.4-.25.2-.2.1.05.05.3.35q.85 1.25 1.1 2.8l.05.45.05.1-.1-1.05.1-.2.45-.45.1.2q.5.95.8 2.25l.5 2.25v.15l.25.65.7 2.45.05-.6.15-2.25-.05-.7-.25-2.15-.2-1.2-.5-2.15.1-.4.05-.15q1.5 0 1.9 2.85v.35l.7-.5.7-.35.05.45q.15 1.05.9 1.4l.1.1.8.1.65-.1q1.05-.35 1.45-1.75l.35.35.05.05m-9.45-6.1l-1.5 2.35-.2.3.2-.3 1.5-2.35m2.65 27.7q-1.5-1.05-2.95-2.7 1.45 1.65 2.95 2.7m4.6 1.75l-2.75-.65-.65-.35.65.35 2.75.65m-8.7-27l-.05-.1.05.1m-1.6 2.65l-.45 1.05-.6 1.5-.05.1q.4-.2.5.25l.9-1.75.7-1.9v-.45l-.5.3q-.25.2-.35.55l-.15.35m1.2-2.3l-1.35 1.8 1.35-1.8m-3.2 5.9l-.1-.1-.15-.1q-.3 0-.3.75l-.05.15-.05.15.1-.05.55-.8m-1.55 2.25h.05l.3-.55-.3.45-.05.1m5.05 11l-3.6.4-2.9.55 2.9-.55 3.6-.4m-5.15-6.35l.1.1-.1-.3v.2m-1.1 2.05l.2-.55-.05-.45-.15 1m5.75-4.55l-.1-.05-.1.45.3-.2-.1-.2m-3.65-1.3h.05l.1-.15-.15.15m2.35 5.7l-.05.05.05.05v-.1m-.15-.65v.05l.1.05v-.1h-.1m.7-.35l-.05.05.05.3v-.35m.3-1.75l-.05.1-.15.3-.1.05.05.1v.1l.3-.5-.05-.15m1.3-7.2l-.1.4.25 1.9.1-.2.15-.6-.15-.3-.15-.35.1-.9-.1-.05-.1.1m1.35 1.5v1.85q.35-.05.35 1.25l-.05 1.15.05-.5.1-2.6q-.1-1.7-.8-2.35V110.65l.35-.35v.6m-3.7 9.45h.2l-.15-.15-.05.15m-4-.05l-.15.05-.2-.05-.05.15.1.05.15.3.1-.05.1-.3-.05-.15" fill="#ba692e"/><path stroke-linejoin="round" d="M58.45 3.6v-.05L58.5 3q.45-1.2 2.65 0l1.7 1.15 4.2 2.6M68.8 8.2l.2.15m1.6 1.2l1.1-.1.8-.05 1.4-.1h.65m3.9.45l.85.2.5.15m6.95-8.95q.9-.3 1.8 0 1.75.5 2.75 2.95m2.35 11.1l.25.5m1.05 4.45l.15 1.2m.05.95l-.1 4.05 1.45 3.1 1.4 3.35m.2 57.3l-.1.45-.1.6m-.45 2.95l-.05.15-.2 1.1-.15.85-1.7 8.85-.55 2.9-.25 1.25-1.15 6.35-.1.85-.2 1.45q-.25 2.2-.15 3.85l.05.75.25 1.25q2.5 1.55 3.6 2.9l.5.8q1 2.1-2.4 3.45l-.6.25-1.75.2m-3.4-1q-.65-.3-1.2-.75m-2.95-2.7l-.2-.25.5-2.9-1.55.1m-6.5.95l-.75.15.15 1.15v.15l.6.8q3.85 4.95 2.7 7.15-.7 1.25-2.9 1.6l-.65.15-.45.05-1.15.1m-.35 0H74.35m-3.1-.25h-.05q-1.1-.3-1.9-.95l-.25-.2m-2.35-3.55q-.15-1.05.25-2.15m1.15-2.1l.2-.25-.7-1.15-2.1.2-.9.15-.65.15-1.6.55.7-1.5m-2.4 2.55l-.8.75q.7 1.3-.15 2.5l-.85.85-.75.55-1.5.5m-.9.1h-.2m-7.25-2.6l-1.2-.7-.25-.1-1-.5-.1-.05m-7.6-4.2l-.4-.25-1.45-.95-.25-.2-1.75-1.3-3.2-2.9-.7-.7-.8-1.05-.25-.25-2-.75-1.5-.75-2.6-1.6-1.3-1-1.15-1-2.6-2.85-.4-.55q-2.4-3.5-4.85-9.9l-1.65-4.15q-.65-1.15-.65-1.5L9 89.75M5.3 86.8l-2.35-.45-.4-.1m-1.4-3.2q.25-1 .85-1.7m28.2 25.85l1.15.2m1.3-1.8q-2.15-7.25-.5-13.8.3-1.85 1.25-3.75 1.4-3.15 3.65-6.1l.2-.85m.35-1.4l.1-.5.7-2.55m2.7-8.4l.7-1.9q.95-2.25 2.05-4.35L45 59.7m5.8-8.4l.7-.85.2-.25m2.35-2.4l1-.9m1.15-1l.3-.2m1.85-1.4l2.35-1.55-.05-1.5m1.55-26.6l-.1 1.1-.3 2.75m-1.15 1.35Q58.9 22.55 59.4 26l.3 1.4m9.1-19.2l-1.75-1.45m1 4.3v.7m-9.6-8.05v-.05m0 .05l.05.65q.45 2.6 3.9 8.35l-.2 1.95m-.45 4.05l-1.1 1.15m9.95-10.3l-.25.05L69 8.35m6.05.95h-.5m2 .15l-1.5-.15m1.9.2l-.4-.05m-13.7-5.3l3.05 3q2 2.35 2.15 3.9m-6.25 21.2l.4.65V34.1m-1.5-4l.35.75.75 1.4M60 28.3l.7 1.8m-.7-1.8l-.3-.9m2.6 8.2l-.1-1.5m0 1.65l.1-.15.25 1.05.05.05v.05l.05.1.3.65.3.5.3.4.5.4.7.45m-3.3-2l-.1.15q-.45 1.1-.6 2.3v.05l-.05.25-.05 1.25m.8-4l.05-.2m.7-1.3l-.7 1.3m-1.55 7.45l-.7 2.05-.25.75m-1.2 19.1v.05l.5 7.15v2.45l-.05.9q-.1 3.2-.75 5l-.25.55-.05.15-.05.1v.05l-.4.5.7 6.8q.35 2.95.9 4.95l.05.25m-.05-51l-1.85 1.4m-.3.2l-1.15 1m4.9-2.4l.75-1.75M72.35 42q-4.2.75-6.55-2.45l-1.05-.3m9.35 2.25l1.25-.5H76l2-.3 1.45-.4 1.3-.5M50.8 51.3l-1.95 2.4-3.1 4.7-.15.25-.5.85-.1.2m9.05-11.9l-2.35 2.4M41.1 68.25q-1.55 3.95-2.7 8.4m36.8-4.2l.3-1.45M59 47.4l-.1.3m-1.1 18.7q-1.05-10.8 1.1-18.7m33.45-31.1l.2-3.1q.15-4.45-.7-7.6l-.55-1.8m-4.55-2.95q-1.45.45-2.9 2.2-2.35 2.8-4.05 8.15l-.35 1.35m-1-3.1l-1.5-.25m15.4 7.1l-.3.95m3.1 4.75l-.05-.95m-.15-1.2l-.2-1.35-.85-3.1m-.25-.5l-1.1-1.7m2.05 14.65l.45-1.8m-.55 2.1l-.8 1.45-3 3.3q-2.45 2.4-4.5 3.65l-1.15.6-.95.35-.25.2-1.9 1.2-1.15.55-.05.05m19.2 37.55l.3-2.6.1-.65m2-13.1q.75-5.6.1-11.4l-.25-1.8v-.3q-1.15-6.9-4.3-14.7m-3.3-4.65l-.1.3m6.45 39.4l.1-.7q.85-3.05 1.3-6.15m-1.85 11.55l-.15 1.55M74.1 41.5l-1.75.5M95.7 73.95l-.9 4.15-.35 1.45m1.5-7.15l-.25 1.55m3.85 6.45l.4-3.05m-8.75 12.6q1.9-4.95 3.25-10.4m5.1.85L99 84.25l-.9 5.85m-.4 2.1l-.25 1.9m.25-1.9l.2-1.05m-8.8 3.7l-.85 1.85-.85 1.55-.25.5m2.6-5.25l-.65 1.35M70.75 86.8q1.25 2.05 2.35 6.4m18.1-3.25l-.2.45q.1.25-.55 1.5l-.7 1.6m-3.5 6.9l.85-1.55.05-.1m-3.25 5.55l1.1 2.8q1.1 3.5 1.2 7.4l-.05 2.15q-.1 3.1-.8 7.05m.9-23.3l-.9 1.45m-10.85-1.1l.25 1.8.45 4m.3 3l.25 2.85m2.35-.15l.1-.15 3.95-5.65 1.35-1.8m-8.05 4.65v-.05l-.25-2.7m8.45-2.05l.2-.3 1.5-2.35m-1.7 2.65l-.15.15m1.55 22.2q1.45 1.65 2.95 2.7m1.2.75l.65.35 2.75.65m-8.75-27.1l.05.1m-8.45 5l.05.25m.25 2.95l.05.6.05.55v.05l.3 3.75.2 3.65.1 1.75.1 1.6v.45m.75-.15l2.9-.55 3.6-.4m-9.3 12.25h.35m-4.1-49.25l-.15-.15q2.9-5.45 4.6-14.2M56.65 92.4l1.7 2.65m-1.7-2.65l-1.05-1.45-.3-.35-.05-.15q-8.1-10.5-17-8.8l-.7.15-.25.1-.25.05m21.8 14.95l.05.2.05.1.1.7m14.7-1.6l-.65-3.1M37.6 79.7l-.35 1.4m8.15 47.6l.3.15m15.05-24.8l.15.6.45 1.65.05.15q.4.65.65 2.2l.05.15.15.5M59.4 99v-.1l-.2-.65-.15-.35m1.7 6.15L59.4 99m5.1 16.1l.3.65.05.15.05.1.55 1.95m-6.6-21.05l-.45-1.6m-1.15 28.8q1.3 1.15 2 2.6l.6 1.6m2-1.55l.5-.25m1-2.25l1.1-3.8m.1-.7l.35-3.3V116m-.4-.9l-.75-1.85-.15-.25-.4-1.1-.95-2.6m4.25 12.3l-1.05-3.65m2 6.9l.15.6M9.6 79.9l-4.35-.1-1.5.4m-.25.1q-.9.4-1.5 1.05m10.75-.1q-1.5-.95-3.15-1.35m3.15 1.35l2.4 2.05q2.65 2.9 5.7 10.15 3.4 8.05 4.9 10.2 1.35 1.95 2.9 2.9.75.4 1.55.65M3.5 80.3q.1-.1.25-.1m-2.6 2.85l-.05.15q-.3 1.2.2 2.05.4.75 1.25 1m2.75.55l.8.25q1.6.6 2.7 2.35l.2.35m23.15 17.65h-.8m1.3-1.8l.55 1.7-1.05.1m35.95 19.45q-.8 1.1-1.15 2.1m-.25 2.15q.3 1.9 2.35 3.55m-2.5-13l-.05-.05m-1.95-1.85l-.1.7m2.1 1.2l.7 2.55.2.65m-4.35.1l-.05.05m.3-.75v.05l-.25.65m-5.85-.85l-.2-.15-3.3-.4m6.9 4q.55-.45 1.2-.8m-7.1 6l.75.05m-2.05-.3l.45.1.85.15m.95.05l.9-.1m-3.6-9.2l.75.05m-4 .6q-.8.4-1.3 1.2l-.05.05-.7 1.35-.45 1.65m1 1.8q2 1.15 3.65 1.8m1.55.5l-1.55-.5m-2.15-7.85l.1-.1q1.2-.55 3.15-.55m-5.8 5.15l.05-.25m-.05.25l-.15.85m-4.45-2.2l2.8 1.4m-7.3-4.05q2 1.3 4.5 2.65m28.65 8.5l3.1.25m-.6-39.75l.75 4.45m26.45-32.9l-.45 4.7" stroke="#2e1d14" stroke-linecap="round" stroke-width="2" fill="none"/><path stroke-linejoin="round" d="M66.1 10.25l.4 1.05m0 14.95l-.55 1.2-.8 1.75q-.75 1.85-.7 3 0 .45.15.8l1-.25.55-.55m-1.5-24.45l.05.1 1.4 2.4m-1.45-2.5Q62.4 4.6 58.5 3m9.85 29.35l.1.05.15.1 1.7.45h.25l.1-.15 1.85-2.95m14.15-26.9l1.45.15q1.45.75 2 3.65l.15 1.05q.35 3-.25 6.8l-.2 1.05-.05.35m0 .05v.05l-.2.75L89.3 18m-7.6-6.2v.05m0 .1l-.15.5m5.1-9.5q-1.05.3-2.05 1.8-1.75 2.4-2.9 7.05m-.4 1.95l.05-.25.2-1.05" stroke="#2e1d14" stroke-linecap="round" stroke-width="1.5" fill="none"/><path stroke-linejoin="round" d="M61.65 22.45l.4-.8.4-.35M66 22.45l.3.6.4 1.7-.2 1.5m12-5.55q1 0 1.75.55m-16.1-.1q1.15.3 1.85 1.3m.15 3.8h.35m-2.35-5.1l-.25-.05-.1-.05-.5-.05-.65.2-.2.1m-.9 2.8q.25 1.05 1.2 1.6.85.45 2.65.55h.75m-4.5-3.8q-.15.45-.15 1.05l.05.6m18.95-2.6l-.25-.25m.75 2.5l.3-1.15-.7-1.05m-5.05.65l-.7 1.45-.15.75-.15 1v.05m2.35.55l1.5-.05.4-.15m2.2-2.05l-.45.8q-.65.9-1.75 1.25m-1.9.2l-1.35-.15h-.05m3-5.15l-.85.1q-1.35.25-2.1 1.4m-.1 3.65l-.95-.25.05-.15" stroke="#000" stroke-linecap="round" stroke-width="1.5" fill="none"/><path stroke-linejoin="round" d="M65.4 26.25l1.05-.6m-2.4.7h1l.35-.1m-2.45-.3l-.15-.1q-.75-.45-1.15-1.15m2.4 1.65q-.55-.1-1.05-.35l-.05-.05m1-4.95h-.65m17.55 2.9l.05-.2q.3-1.2-.3-2.15l-.1-.05m-.15-.25l.15.2v.05m-5 4.35h-.05m-.5-3.15v.05h-.05m-.2 1.65l.05.3.45.85.25.3m-.55-3v-.1m-.15.6l.15-.5m-.15.5l-.05 1.05" stroke="#1d2d15" stroke-linecap="round" stroke-width="2" fill="none"/><path stroke-linejoin="round" d="M60.65 40.05l-8 4.4M62.2 34.1l1.3.1.15.05.4.05h1.1m-2.95-.2l-13.8-1.9m16.35 5.5l.45-.15m-1.55.8l1.1-.65m-1.95 1.1l.6-.3.15-.1.1-.05M60.7 40l1.75-1 .35-.2m-2.15 1.25l.05-.05m25.15-5.3l2.25-.25m-4.3.35l2.05-.1m-2.05.1q-3.8.15-7.5-.15l-1.6-.2" stroke="#d9ced3" stroke-linecap="round" stroke-width=".05" fill="none"/><path stroke-linejoin="round" d="M63.5 35.55l1.15-.1H65m-2.8.15h.1l1.2-.05m.2 1.15l.4-.05m.25 0l1.1-.2m-2.8.4l1.05-.15m-2.1.3l1.05-.15M76.9 39.7q-2.05-1.9-4.5-3.35l-.05-.05m-7.6 2.95l.85-.85m-4.1-1.35l.1-.05m-.1.05L48.75 38.8M60 45.6q1.65-2.8 3.6-5.05l.25-.3m-4.5 6.45l.65-1.1m-1 1.7l.35-.6m4.8-10.05h.2m.4 2.6l-.9 1m13.85.15l-.8-.7m2.55-.9q-2.6-1.7-5.55-3.1m-15 11.8l.1-.1v-.1m-.1.2l-.7 1.4m4-13.3l-12.45.7m29.7 2.5l.15.15 1.2.8 4.25 3.5M77.7 40.4l.3.3q2 1.95 3.6 4.05" stroke="#acacac" stroke-linecap="round" stroke-width=".05" fill="none"/><path stroke-linejoin="round" d="M73.45 34l-.3.1m.3-.1l.65-.2.85-.15m13.55-4.7l-.05.1m-2.9 1.5q1.5-.7 2.9-1.5m-2.9 1.5l-.75.3m-1.95.75l1.95-.75m-5.85 1.95l3.9-1.2m-3.9 1.2l-3.65.8-.35.05" stroke="#b7b7b7" stroke-linecap="round" stroke-width=".05" fill="none"/><path stroke-linejoin="round" d="M73.4 37.75q-3.1.5-4.65-.65-.95.9-2.2 1.05m.9-4.4q.3 2.05 1.3 3.35" stroke="#333" stroke-linecap="round" stroke-width="1.5" fill="none"/><path stroke-linejoin="round" d="M74.3 35.05l-.9-.2M83.85 38l1.65.35 1.8.3h.3m-4.05-.7l-1.45-.35m-6.9-2.15l1.45.5.15.05h.05q2.7.95 5.25 1.6m1.45.35l.3.05m-9.55-2.95l.6.25m.3.15l-.3-.15" stroke="#999" stroke-linecap="round" stroke-width=".05" fill="none"/><path stroke-linejoin="round" d="M34.8 100q.15 7.95 1.8 13.7.55 2.2 1.4 4.1m-3.25-26.6v6.75l.05 2.05m6.7 23.55q-2.1-2.4-3.5-5.75m3.5 5.75q1.25 1.45 2.8 2.5" stroke="#333" stroke-linecap="round" stroke-width="2" fill="none"/><defs id="defs3841"><radialGradient id="gradient0" gradientUnits="userSpaceOnUse" cy="0" cx="0" gradientTransform="matrix(-.004 0 0 .004 72.65 -46.6)" r="819.2"><stop id="stop3844" stop-color="#fff7ea" offset="0"/><stop id="stop3846" stop-color="#969171" offset=".18"/></radialGradient><radialGradient id="gradient1" gradientUnits="userSpaceOnUse" cy="0" cx="0" gradientTransform="matrix(-.004 0 0 .004 86.6 -47.15)" r="819.2"><stop id="stop3849" stop-color="#fff7ea" offset="0"/><stop id="stop3851" stop-color="#969171" offset=".224"/></radialGradient></defs></svg>