<?xml version="1.0" encoding="utf-8"?>
<!-- Generator: Adobe Illustrator 16.0.0, SVG Export Plug-In . SVG Version: 6.00 Build 0)  -->
<!DOCTYPE svg PUBLIC "-//W3C//DTD SVG 1.1//EN" "http://www.w3.org/Graphics/SVG/1.1/DTD/svg11.dtd">
<svg version="1.1" id="Layer_1" xmlns="http://www.w3.org/2000/svg" xmlns:xlink="http://www.w3.org/1999/xlink" x="0px" y="0px"
	 width="900px" height="450px" viewBox="0 0 900 450" enable-background="new 0 0 900 450" xml:space="preserve">
<g>
	<g transform="matrix( 0.8424224853515625, 0, 0, 0.8424224853515625, 7.75,106.9) ">
		<g transform="matrix( 1.187042236328125, 0, 0, 1.187042236328125, -9.15,-126.85) ">
			<g id="Layer2_0_1_STROKES">
				<path fill="#555555" d="M202.486,396.888c-0.511,0-1.027-0.032-1.548-0.099c-6.627-0.846-11.313-6.903-10.467-13.531
					l1.834-14.37c0.767-5.747,3.464-11,8.028-15.678c0.219-0.225,0.445-0.439,0.681-0.646c0.404-0.458,0.853-0.9,1.317-1.29
					c2.244-1.887,4.899-3.707,7.895-5.421l48.103-28.719c15.062-8.803,22.366-3.247,25.486,1.162
					c1.664,2.267,3.361,5.982,2.846,11.387c-0.012,0.126-0.025,0.251-0.041,0.376l-1.835,14.471
					c-0.839,6.63-6.912,11.325-13.523,10.479c-5.816-0.737-10.143-5.49-10.545-11.125l-38.289,22.86
					c-1.636,0.939-2.93,1.787-3.975,2.603c-0.361,0.38-0.724,0.735-1.092,1.067c-0.811,0.894-1.045,1.454-1.065,1.606l-1.826,14.301
					C213.69,392.427,208.483,396.885,202.486,396.888z M311.726,331.874c-0.511,0-1.028-0.034-1.547-0.101
					c-6.628-0.846-11.314-6.902-10.468-13.53l1.834-14.37c0.621-5.59,3.297-10.931,7.926-15.679c1.32-1.322,2.717-2.522,4.254-3.676
					c0.104-0.078,0.208-0.152,0.315-0.229c1.572-1.102,3.268-2.207,5.043-3.285l48.383-28.886
					c15.254-8.918,22.613-3.036,25.653,1.256c2.203,3.147,3.092,6.925,2.681,11.283c-0.012,0.128-0.026,0.258-0.042,0.386
					l-1.834,14.471c-0.84,6.629-6.908,11.326-13.524,10.479c-5.817-0.737-10.143-5.49-10.546-11.126l-38.288,22.86
					c-1.183,0.722-2.373,1.494-3.471,2.258c-0.561,0.426-1.036,0.833-1.412,1.209c-0.964,0.989-1.119,1.562-1.12,1.567
					l-1.854,14.543C322.932,327.412,317.724,331.874,311.726,331.874z M422.801,265.835c-0.479,0-0.964-0.028-1.454-0.085
					c-6.633-0.797-11.366-6.816-10.571-13.45l1.731-14.469c0.784-5.896,3.518-11.15,8.145-15.777
					c0.934-0.935,1.965-1.875,3.06-2.784c0.111-0.092,0.223-0.184,0.337-0.271c1.875-1.449,3.971-2.862,6.227-4.199l48.282-28.726
					c15.171-9.057,22.574-3.161,25.635,1.16c2.212,3.163,3.1,6.948,2.681,11.311c-0.012,0.12-0.026,0.243-0.043,0.363l-1.834,14.471
					c-0.838,6.627-6.855,11.328-13.521,10.481c-5.792-0.736-10.102-5.448-10.539-11.049l-38.31,22.794
					c-1.349,0.798-2.557,1.604-3.607,2.402c-0.453,0.383-0.871,0.766-1.253,1.149c-0.971,0.97-1.24,1.577-1.259,1.715l-1.713,14.309
					C434.06,261.322,428.839,265.835,422.801,265.835z M531.939,200.823c-0.507,0-1.021-0.032-1.536-0.096
					c-6.629-0.841-11.318-6.896-10.478-13.524l1.836-14.47c0.628-5.656,3.335-10.998,8.027-15.692
					c0.953-0.952,1.981-1.887,3.069-2.79c0.11-0.09,0.219-0.177,0.329-0.264c1.883-1.457,3.978-2.872,6.233-4.205l48.387-28.729
					c15.036-9.091,22.449-3.172,25.524,1.165c2.207,3.155,3.094,6.931,2.681,11.291c-0.626,6.65-6.558,11.518-13.179,10.906
					c-1.673-0.159-3.233-0.65-4.624-1.403l-46.453,27.58c-1.338,0.792-2.543,1.596-3.599,2.399
					c-0.457,0.387-0.879,0.773-1.269,1.162c-0.953,0.953-1.11,1.463-1.113,1.468l-1.853,14.626
					C543.15,196.359,537.943,200.823,531.939,200.823z M643.627,134.279c-0.506,0-1.017-0.032-1.535-0.097
					c-6.627-0.839-11.319-6.894-10.479-13.522l1.834-14.47c0.63-5.554,3.303-10.85,7.924-15.589c0.23-0.235,0.472-0.463,0.719-0.68
					l1.642-1.447c0.111-0.097,0.221-0.193,0.335-0.287c1.995-1.645,4.308-3.276,6.875-4.851l48.444-28.821
					c15.17-9.057,22.573-3.161,25.632,1.159c0.117,0.167,0.233,0.336,0.343,0.51c1.945,3.065,2.732,6.727,2.34,10.883
					c-0.629,6.649-6.523,11.532-13.18,10.906c-1.728-0.163-3.337-0.683-4.761-1.478l-46.306,27.547
					c-1.408,0.865-2.738,1.792-3.84,2.684c-0.413,0.368-0.81,0.72-1.194,1.057c-0.674,0.742-0.923,1.23-0.964,1.369l-1.84,14.549
					C654.841,129.815,649.633,134.279,643.627,134.279z"/>
			</g>
		</g>
	</g>
	<g transform="matrix( 0.8424224853515625, 0, 0, 0.8424224853515625, 8.1,105.65) ">
		<g transform="matrix( 1.187042236328125, 0, 0, 1.187042236328125, -9.6,-125.4) ">
			<g id="Layer1_0_1_STROKES">
				<path fill="#707070" d="M167.605,439.889c-0.406,0-0.809-0.01-1.212-0.031c-5.388-0.36-13.089-2.692-20.137-11.813
					l-16.631-21.627c-7.684-9.75-7.094-18.004-5.169-23.262c1.736-4.995,5.372-9.132,10.81-12.3l48.3-28.777
					c9.223-5.461,18.886-5.418,27.232,0.099c2.792,1.827,5.43,4.276,8.015,7.456c0.077,0.095,0.152,0.189,0.224,0.283l15.183,19.869
					c0.14,0.184,0.272,0.367,0.4,0.554c0.388,0.392,0.754,0.814,1.094,1.269c2.437,3.248,4.125,6.336,5.16,9.438
					c0.052,0.154,0.099,0.307,0.144,0.464c2.895,9.984-1.242,19.493-11.064,25.436l-48.489,28.791
					C176.918,438.482,172.242,439.889,167.605,439.889z M148.425,391.179c0.09,0.119,0.186,0.245,0.291,0.378l16.699,21.716
					c1.173,1.521,2.001,2.129,2.367,2.349c0.21-0.086,0.638-0.269,1.251-0.64l47.711-28.329c-0.118-0.164-0.246-0.342-0.386-0.528
					c-0.115-0.154-0.226-0.31-0.333-0.468c-0.362-0.366-0.706-0.759-1.027-1.178l-15.063-19.711c-1.216-1.478-2.04-2.12-2.428-2.376
					c-0.098-0.063-0.172-0.109-0.227-0.139c-0.209,0.055-0.652,0.208-1.359,0.627L148.425,391.179z M278.677,373.753
					c-0.404,0-0.807-0.009-1.21-0.029c-5.41-0.36-13.089-2.668-20.001-11.636l-1.447-1.716c-0.121-0.143-0.237-0.289-0.352-0.438
					l-15.082-19.668c-7.577-9.809-6.97-18.02-5.056-23.243c1.737-5.001,5.376-9.14,10.817-12.304l48.182-28.768
					c9.351-5.471,19.028-5.411,27.346,0.096c2.805,1.83,5.538,4.411,8.053,7.631l16.517,21.36c0.17,0.206,0.331,0.416,0.486,0.632
					c2.22,3.088,3.819,5.991,4.887,8.877c0.101,0.273,0.193,0.55,0.273,0.831c2.903,10.015-1.293,19.535-11.221,25.467
					l-48.323,28.75C287.992,372.347,283.313,373.753,278.677,373.753z M274.697,344.994l1.45,1.719
					c0.135,0.161,0.267,0.324,0.393,0.492c1.154,1.522,1.954,2.098,2.287,2.293c0.199-0.083,0.636-0.267,1.281-0.653l47.665-28.359
					c-0.084-0.127-0.175-0.26-0.272-0.4l-1.151-1.396c-0.086-0.105-0.17-0.211-0.253-0.317l-15.285-19.871
					c-1.129-1.446-1.93-2.048-2.219-2.237c-0.26-0.17-0.355-0.206-0.356-0.209c0.082,0.043-0.48,0.188-1.4,0.725l-47.399,28.3
					c0.098,0.136,0.205,0.28,0.324,0.432L274.697,344.994z M389.035,308.026c-0.404,0-0.804-0.011-1.206-0.03
					c-5.397-0.365-13.097-2.7-20.141-11.818l-1.635-2.18l-14.984-19.434c-7.689-9.758-7.103-18.008-5.179-23.267
					c1.741-5.01,5.406-9.145,10.902-12.299l48.2-28.776c9.316-5.565,19.066-5.508,27.452,0.164c2.662,1.739,5.352,4.237,7.836,7.318
					c0.063,0.079,0.125,0.159,0.187,0.24l15.286,19.973c0.001,0.001,0.002,0.001,0.002,0.005l1.324,1.731
					c2.505,3.338,4.193,6.426,5.229,9.53c0.035,0.102,0.065,0.203,0.099,0.307c3.065,10.07-1.074,19.65-11.075,25.624
					l-48.322,28.749C398.322,306.634,393.634,308.026,389.035,308.026z M369.894,259.356c0.08,0.105,0.167,0.22,0.258,0.336
					l16.788,21.835c1.119,1.445,1.934,2.031,2.291,2.24c0.23-0.087,0.722-0.286,1.444-0.714l47.507-28.261
					c-0.117-0.169-0.246-0.346-0.386-0.531l-16.435-21.477c-1.127-1.379-1.932-2.004-2.316-2.256
					c-0.123-0.083-0.212-0.141-0.278-0.18c-0.227,0.066-0.675,0.231-1.367,0.646L369.894,259.356z M498.281,243.012
					c-0.404,0-0.808-0.01-1.209-0.031c-5.465-0.364-13.248-2.715-20.213-11.906l-1.443-1.959l-14.62-18.863
					c-0.201-0.223-0.395-0.453-0.578-0.69c-7.607-9.842-6.998-18.057-5.085-23.283c1.738-5,5.375-9.137,10.817-12.301l48.181-28.769
					c9.321-5.568,19.069-5.509,27.453,0.165c2.667,1.745,5.356,4.242,7.837,7.322c0.062,0.078,0.123,0.156,0.183,0.236
					l16.443,21.364c0.168,0.205,0.33,0.414,0.486,0.627c2.215,3.083,3.813,5.984,4.885,8.872c0.104,0.278,0.196,0.56,0.278,0.844
					c2.9,10.014-1.299,19.533-11.224,25.465l-48.323,28.749C507.595,241.602,502.916,243.012,498.281,243.012z M479.125,194.453
					l0.577,0.643c0.206,0.228,0.401,0.462,0.589,0.705l14.366,18.648c0.052,0.068,0.104,0.136,0.153,0.207l1.427,1.937
					c1.08,1.423,1.859,1.976,2.19,2.167c0.197-0.083,0.635-0.267,1.279-0.655l47.668-28.359c-0.085-0.127-0.176-0.26-0.271-0.396
					l-1.153-1.399c-0.092-0.112-0.183-0.226-0.271-0.34l-15.184-19.843c-1.125-1.376-1.931-2.002-2.314-2.253
					c-0.124-0.081-0.212-0.138-0.277-0.179c-0.225,0.066-0.674,0.231-1.366,0.646l-47.497,28.36
					C479.068,194.375,479.093,194.413,479.125,194.453z M609.245,176.875c-0.398,0-0.798-0.009-1.194-0.031
					c-5.4-0.365-13.1-2.699-20.147-11.816l-1.588-2.113l-15.032-19.502c-7.69-9.759-7.103-18.015-5.174-23.273
					c1.742-5.005,5.406-9.14,10.898-12.29l48.2-28.779c9.351-5.462,19.031-5.41,27.345,0.094c2.824,1.845,5.553,4.428,8.059,7.64
					l16.663,21.673c2.526,3.367,4.216,6.454,5.25,9.558c0.033,0.1,0.066,0.201,0.098,0.305c3.066,10.072-1.074,19.651-11.076,25.626
					l-48.32,28.748C618.542,175.483,613.851,176.875,609.245,176.875z M590.106,128.207c0.081,0.106,0.169,0.218,0.261,0.335
					l15.16,19.667c0.033,0.042,0.063,0.083,0.098,0.126l1.528,2.038c1.12,1.449,1.935,2.034,2.291,2.244
					c0.231-0.087,0.721-0.285,1.443-0.712l47.507-28.264c-0.117-0.168-0.248-0.343-0.388-0.531l-16.521-21.489
					c-1.125-1.441-1.936-2.05-2.229-2.241c-0.244-0.163-0.343-0.198-0.343-0.2c0.079,0.04-0.481,0.185-1.4,0.723L590.106,128.207z
					 M719.713,111.15c-0.397,0-0.8-0.011-1.199-0.032c-5.471-0.364-13.251-2.715-20.215-11.909c-0.27-0.356-0.518-0.724-0.742-1.099
					c-0.254-0.273-0.495-0.56-0.728-0.86L681.75,77.683c-7.689-9.903-7.097-18.096-5.166-23.301
					c1.715-4.917,5.289-9.044,10.629-12.269l48.484-28.785c9.049-5.476,19.038-5.43,27.326,0.179
					c2.627,1.714,5.227,4.085,7.785,7.133c0.116,0.138,0.229,0.28,0.34,0.425L787.76,42.77c2.515,3.352,4.201,6.442,5.234,9.549
					c0.046,0.147,0.094,0.294,0.137,0.441c2.907,10.018-1.285,19.543-11.221,25.477l-48.32,28.747
					C729.037,109.74,724.356,111.15,719.713,111.15z M716.793,83.659c0.276,0.297,0.538,0.61,0.788,0.939
					c1.153,1.521,1.949,2.099,2.284,2.295c0.2-0.083,0.637-0.267,1.277-0.653l47.686-28.371c-0.108-0.155-0.226-0.318-0.357-0.489
					l-16.356-21.373c-1.225-1.427-2.081-2.086-2.495-2.356c-0.111-0.075-0.196-0.13-0.26-0.169
					c-0.224,0.071-0.627,0.234-1.229,0.599l-47.637,28.283c0.116,0.163,0.245,0.336,0.39,0.521l15.104,19.597
					C716.285,82.863,716.553,83.256,716.793,83.659z"/>
			</g>
		</g>
		<g transform="matrix( 1.187042236328125, 0, 0, 1.187042236328125, -9.6,-125.4) ">
			<g id="Layer1_0_2_STROKES">
				<path fill="#555555" d="M213.003,396.163c-4.121,0-8.137-2.109-10.401-5.903c-3.422-5.738-1.545-13.164,4.191-16.585
					l11.617-6.93c5.735-3.424,13.164-1.544,16.586,4.191c3.422,5.738,1.546,13.166-4.191,16.586l-11.617,6.928
					C217.247,395.609,215.111,396.163,213.003,396.163z M261.306,367.426c-4.138,0-8.167-2.126-10.424-5.943
					c-3.401-5.75-1.496-13.169,4.254-16.569c0.956-0.565,1.779-1.129,2.444-1.676c5.16-4.248,12.784-3.507,17.028,1.653
					c4.245,5.157,3.504,12.781-1.654,17.025c-1.627,1.34-3.48,2.625-5.504,3.823C265.52,366.882,263.398,367.426,261.306,367.426z
					 M322.143,331.146c-4.129,0-8.151-2.114-10.412-5.923c-3.412-5.744-1.52-13.165,4.224-16.575l13.553-8.051
					c5.743-3.414,13.167-1.518,16.577,4.223c3.412,5.744,1.521,13.167-4.223,16.577l-13.553,8.05
					C326.37,330.598,324.243,331.146,322.143,331.146z M370.548,302.41c-4.089,0-8.076-2.072-10.352-5.821
					c-3.468-5.71-1.648-13.15,4.063-16.619c1.487-0.902,2.839-1.828,4.017-2.75c5.262-4.119,12.863-3.191,16.981,2.066
					c4.12,5.261,3.195,12.862-2.065,16.982c-1.929,1.512-4.076,2.986-6.378,4.384C374.851,301.842,372.686,302.41,370.548,302.41z
					 M433.218,265.01c-4.141,0-8.171-2.126-10.429-5.95c-3.396-5.753-1.485-13.168,4.268-16.567l12.942-7.641
					c5.757-3.393,13.172-1.482,16.566,4.268c3.397,5.753,1.486,13.169-4.268,16.567l-12.942,7.641
					C437.426,264.466,435.308,265.01,433.218,265.01z M481.521,236.274c-4.069,0-8.043-2.053-10.325-5.775
					c-3.491-5.694-1.706-13.144,3.991-16.636c0.994-0.609,1.966-1.245,2.903-1.909c5.455-3.859,13.003-2.562,16.862,2.894
					c3.856,5.455,2.561,13.004-2.895,16.86c-1.34,0.946-2.76,1.883-4.227,2.78C485.857,235.699,483.676,236.274,481.521,236.274z
					 M542.356,200.099c-4.114,0-8.125-2.101-10.391-5.888c-3.431-5.732-1.564-13.161,4.167-16.591l12.942-7.745
					c5.735-3.43,13.163-1.562,16.591,4.169c3.43,5.733,1.564,13.161-4.167,16.592l-12.942,7.744
					C546.611,199.543,544.467,200.099,542.356,200.099z M590.762,171.258c-4.09,0-8.078-2.072-10.352-5.824
					c-3.468-5.711-1.646-13.149,4.064-16.615c1.449-0.878,2.777-1.786,3.949-2.696c1.443-1.175,1.899-1.947,2.009-2.161
					c0.098-0.204,0.129-0.305,0.129-0.306c0.638-6.652,6.504-11.429,13.184-10.794c6.648,0.639,11.509,6.638,10.87,13.289
					c-0.28,2.904-1.137,5.806-2.545,8.629c-0.01,0.017-0.017,0.034-0.025,0.051c-1.865,3.703-4.716,7.123-8.482,10.161
					c-0.026,0.02-0.05,0.04-0.075,0.06c-0.041,0.032-0.081,0.064-0.121,0.096c-1.932,1.507-4.066,2.971-6.342,4.353
					C595.063,170.693,592.896,171.258,590.762,171.258z M702.349,104.818c-4.136,0-8.168-2.124-10.426-5.944
					c-3.398-5.751-1.49-13.17,4.261-16.569c0.901-0.533,1.711-1.095,2.413-1.673c0.121-0.101,0.24-0.2,0.365-0.297
					c0.121-0.094,0.241-0.186,0.365-0.274c2.058-1.521,2.727-2.538,2.898-2.852c0.007-0.015,0.011-0.025,0.015-0.031
					c0.749-6.537,6.588-11.284,13.176-10.662c6.651,0.638,11.523,6.547,10.885,13.197c-0.287,2.993-1.182,5.936-2.655,8.745
					c-0.015,0.023-0.026,0.048-0.041,0.071c-2.102,3.96-5.378,7.617-9.741,10.87c-1.637,1.337-3.441,2.594-5.372,3.734
					C706.559,104.274,704.438,104.818,702.349,104.818z"/>
			</g>
		</g>
	</g>
	<g transform="matrix( 0.8424224853515625, 0, 0, 0.8424224853515625, 7.4,104.5) ">
		<g transform="matrix( 1.187042236328125, 0, 0, 1.187042236328125, -8.75,-124) ">
			<g id="Layer0_0_1_STROKES">
				<path fill="#555555" d="M205.07,398.919c-5.226,0.003-8.591-2.499-10.233-4.14c-2.378-2.371-5.016-6.659-4.065-13.619
					c0.904-6.618,7.002-11.256,13.621-10.352c1.501,0.207,2.901,0.679,4.157,1.361l46.305-27.589c0.522-0.31,1.059-0.575,1.605-0.8
					c0.428-0.44,0.895-0.852,1.399-1.229c1.94-1.457,2.779-2.539,3.11-3.062c0.815-6.459,6.628-11.156,13.146-10.518
					c6.651,0.633,11.53,6.537,10.897,13.188c-0.292,3.066-1.221,6.044-2.76,8.854c-2.215,3.983-5.523,7.623-9.864,10.882
					c-0.843,0.636-1.744,1.143-2.676,1.524c-0.72,0.738-1.546,1.395-2.473,1.948l-48.404,28.838
					c-4.404,2.561-7.874,3.968-11.03,4.494c-0.106,0.019-0.214,0.036-0.322,0.049C206.638,398.868,205.834,398.919,205.07,398.919z
					 M314.298,333.905c-5.291,0-8.682-2.526-10.331-4.177c-1.942-1.943-5.051-6.294-4.057-13.582
					c0.904-6.621,7.002-11.251,13.621-10.352c1.487,0.204,2.875,0.669,4.122,1.345l46.346-27.574
					c0.665-0.397,1.354-0.72,2.054-0.975c0.519-0.627,1.108-1.211,1.768-1.739c1.436-1.147,2.109-2.048,2.419-2.601
					c0.941-6.615,7.084-11.193,13.676-10.249c6.615,0.943,11.211,7.09,10.269,13.706c-0.408,2.863-1.35,5.653-2.796,8.292
					c-2.041,3.63-4.862,6.868-8.444,9.739c-1.061,0.848-2.221,1.492-3.431,1.931c-0.863,1.041-1.915,1.958-3.143,2.688
					l-48.302,28.737c-4.265,2.58-7.793,4.055-11.026,4.594c-0.121,0.021-0.243,0.041-0.367,0.057
					C315.846,333.853,315.051,333.905,314.298,333.905z M425.324,267.766c-3.871,0-7.39-1.382-10.09-4.005
					c-2.389-2.319-5.072-6.543-4.282-13.484c0.754-6.641,6.762-11.437,13.385-10.652c1.566,0.179,3.029,0.647,4.338,1.35
					l46.407-27.551c0.342-0.202,0.688-0.386,1.039-0.552c0.516-0.506,1.083-0.974,1.701-1.395c2.301-1.564,3.102-2.675,3.357-3.122
					c0.806-6.437,6.563-11.119,13.089-10.539c6.653,0.601,11.559,6.481,10.96,13.133c-0.286,3.184-1.231,6.206-2.808,8.984
					c-2.355,4.306-6.056,8.192-11.001,11.553c-0.535,0.363-1.092,0.68-1.662,0.949c-0.687,0.677-1.462,1.279-2.326,1.791
					l-48.404,28.737c-4.266,2.579-7.798,4.057-11.029,4.591c-0.086,0.013-0.173,0.025-0.259,0.037
					C426.925,267.709,426.117,267.766,425.324,267.766z M534.51,202.754c-5.292,0.002-8.68-2.526-10.329-4.178
					c-1.942-1.944-5.052-6.295-4.055-13.585c0.905-6.621,7.005-11.249,13.623-10.347c1.501,0.205,2.896,0.677,4.151,1.36
					l51.254-29.573l3.32-17.582c1.24-6.566,7.569-10.888,14.13-9.643c6.563,1.24,10.882,7.565,9.643,14.13l-4.078,21.603
					c-0.562,2.983-2.177,5.5-4.383,7.245c-0.999,1.493-2.346,2.784-4.004,3.742l-55.538,32.042
					c-4.289,2.583-7.784,4.035-10.986,4.569c-0.123,0.02-0.246,0.037-0.365,0.055C536.06,202.704,535.266,202.754,534.51,202.754z
					 M646.199,136.313c-5.293,0-8.686-2.529-10.334-4.181c-1.94-1.945-5.049-6.295-4.053-13.584
					c0.905-6.621,7.011-11.252,13.623-10.347c1.453,0.198,2.808,0.647,4.032,1.295l52.546-31.255
					c0.007-0.498,0.045-1.003,0.116-1.51l1.937-13.859c0.927-6.616,7.017-11.242,13.657-10.304
					c6.615,0.925,11.229,7.038,10.306,13.655l-1.938,13.859c-0.241,1.72-0.832,3.305-1.692,4.692
					c0.522,4.584-1.612,9.262-5.837,11.775l-58.477,34.78c-4.331,2.707-7.876,4.222-11.143,4.766
					c-0.123,0.02-0.246,0.039-0.367,0.056C647.744,136.263,646.951,136.313,646.199,136.313z"/>
			</g>
		</g>
	</g>
</g>
</svg>
