<svg xmlns="http://www.w3.org/2000/svg" width="900" height="450" viewBox="0 0 900 450"><path fill="#555" d="M202.526 396.923c-.511 0-1.027-.032-1.548-.099-6.627-.846-11.313-6.903-10.467-13.53l1.834-14.37c.767-5.748 3.464-11 8.028-15.678.219-.225.445-.44.681-.646.404-.458.853-.9 1.317-1.29 2.244-1.887 4.899-3.707 7.895-5.421l48.103-28.72c15.061-8.802 22.365-3.246 25.485 1.163 1.664 2.267 3.361 5.982 2.846 11.387-.012.126-.025.25-.04.376l-1.836 14.47c-.839 6.63-6.912 11.326-13.523 10.48-5.816-.737-10.142-5.49-10.544-11.125l-38.29 22.86c-1.635.938-2.93 1.786-3.974 2.602-.361.38-.724.735-1.092 1.067-.811.894-1.045 1.454-1.065 1.606l-1.826 14.301c-.78 6.106-5.987 10.564-11.984 10.567zm109.24-65.013c-.512 0-1.029-.034-1.548-.101-6.628-.846-11.314-6.902-10.468-13.53l1.834-14.37c.621-5.59 3.297-10.93 7.926-15.679a39.218 39.218 0 0 1 4.254-3.676c.104-.078.208-.152.315-.229a92.223 92.223 0 0 1 5.043-3.285l48.383-28.886c15.253-8.917 22.612-3.036 25.652 1.256 2.203 3.147 3.092 6.925 2.681 11.283-.012.128-.026.258-.042.386l-1.834 14.471c-.84 6.63-6.908 11.326-13.524 10.48-5.817-.738-10.142-5.49-10.545-11.127l-38.288 22.86a70.089 70.089 0 0 0-3.471 2.258c-.561.426-1.036.833-1.412 1.209-.964.989-1.12 1.562-1.12 1.567l-1.854 14.543c-.777 6.108-5.985 10.57-11.983 10.57zm111.073-66.039c-.479 0-.964-.028-1.454-.085-6.633-.797-11.366-6.816-10.57-13.45l1.73-14.468c.784-5.896 3.518-11.15 8.145-15.777a44.724 44.724 0 0 1 3.06-2.784c.111-.092.223-.184.337-.271a61.489 61.489 0 0 1 6.227-4.2l48.282-28.725c15.17-9.057 22.573-3.16 25.634 1.16 2.212 3.163 3.1 6.948 2.681 11.31-.012.12-.026.244-.043.364l-1.834 14.47a12.07 12.07 0 0 1-13.52 10.482c-5.793-.736-10.102-5.448-10.54-11.05l-38.31 22.795a37.734 37.734 0 0 0-3.606 2.402c-.453.383-.871.766-1.253 1.149-.971.97-1.24 1.577-1.26 1.715l-1.712 14.308c-.735 6.142-5.956 10.655-11.994 10.655zm109.137-65.011c-.507 0-1.02-.032-1.536-.096-6.629-.841-11.318-6.896-10.478-13.524l1.836-14.47c.628-5.656 3.335-10.998 8.027-15.692a45.145 45.145 0 0 1 3.07-2.79c.11-.09.218-.177.328-.264a60.646 60.646 0 0 1 6.233-4.205l48.387-28.728c15.035-9.091 22.448-3.172 25.523 1.165 2.207 3.155 3.094 6.93 2.681 11.29-.626 6.65-6.558 11.518-13.179 10.906a12.088 12.088 0 0 1-4.624-1.403l-46.452 27.58a37.637 37.637 0 0 0-3.6 2.4c-.456.386-.878.772-1.268 1.161-.953.953-1.11 1.463-1.113 1.468l-1.853 14.626c-.771 6.112-5.978 10.576-11.982 10.576zm111.687-66.543a12.31 12.31 0 0 1-1.535-.097c-6.627-.84-11.319-6.894-10.479-13.522l1.834-14.47c.63-5.554 3.303-10.85 7.924-15.59.23-.234.472-.462.72-.68l1.641-1.446c.111-.097.221-.193.335-.287 1.995-1.645 4.308-3.276 6.875-4.851l48.444-28.82c15.17-9.058 22.572-3.162 25.631 1.158.117.167.233.336.343.51 1.945 3.065 2.732 6.727 2.34 10.883-.629 6.649-6.523 11.532-13.18 10.906a12.068 12.068 0 0 1-4.76-1.478L663.49 104.08c-1.408.865-2.738 1.792-3.84 2.684-.413.368-.81.72-1.194 1.057-.674.742-.923 1.23-.964 1.369l-1.84 14.549c-.775 6.114-5.983 10.578-11.989 10.578z"/><path fill="#707070" d="M167.616 439.895c-.406 0-.809-.01-1.212-.03-5.388-.36-13.089-2.693-20.137-11.814l-16.63-21.626c-7.684-9.75-7.094-18.004-5.17-23.262 1.737-4.995 5.373-9.132 10.81-12.3l48.3-28.777c9.223-5.46 18.886-5.418 27.232.1 2.792 1.826 5.43 4.275 8.015 7.455.077.095.152.19.224.283l15.183 19.869c.14.184.272.367.4.554.388.392.754.814 1.094 1.269 2.437 3.248 4.125 6.336 5.16 9.438.052.154.099.307.144.464 2.895 9.984-1.242 19.493-11.064 25.436l-48.489 28.79c-4.547 2.744-9.223 4.151-13.86 4.151zm-19.18-48.71c.09.12.186.246.291.379l16.7 21.716c1.172 1.52 2 2.129 2.366 2.349.21-.086.638-.27 1.251-.64l47.71-28.33c-.117-.163-.245-.341-.385-.527-.115-.154-.226-.31-.333-.468a12.397 12.397 0 0 1-1.027-1.178l-15.063-19.711c-1.216-1.478-2.04-2.12-2.428-2.376a4.057 4.057 0 0 0-.227-.139c-.209.055-.652.208-1.359.627l-47.496 28.299zm130.251-17.425c-.404 0-.807-.01-1.21-.03-5.41-.36-13.089-2.667-20-11.635l-1.448-1.716a12.478 12.478 0 0 1-.352-.438l-15.081-19.668c-7.577-9.809-6.97-18.02-5.056-23.243 1.737-5 5.376-9.14 10.817-12.304l48.181-28.767c9.351-5.471 19.028-5.411 27.346.096 2.805 1.83 5.538 4.41 8.053 7.63l16.517 21.36c.17.206.33.416.486.632 2.22 3.088 3.819 5.991 4.887 8.877.1.273.193.55.273.831 2.903 10.015-1.293 19.535-11.221 25.467l-48.323 28.75c-4.554 2.752-9.233 4.158-13.869 4.158zM274.707 345l1.45 1.72c.135.16.267.323.393.491 1.154 1.522 1.954 2.098 2.287 2.293a9.443 9.443 0 0 0 1.281-.653l47.665-28.359c-.084-.127-.175-.26-.272-.4l-1.151-1.396c-.086-.105-.17-.21-.253-.317l-15.285-19.87c-1.129-1.446-1.93-2.048-2.219-2.237-.26-.17-.355-.206-.356-.21.082.044-.48.189-1.4.726l-47.399 28.3c.098.135.205.28.324.431l14.935 19.481zm114.337-36.968c-.404 0-.804-.01-1.206-.03-5.397-.365-13.097-2.7-20.14-11.817l-1.636-2.18-14.983-19.434c-7.69-9.758-7.103-18.008-5.18-23.267 1.742-5.01 5.407-9.145 10.903-12.299l48.2-28.776c9.315-5.565 19.065-5.508 27.45.164 2.663 1.74 5.353 4.237 7.837 7.318l.187.24 15.286 19.973c0 .001.002.001.002.005l1.324 1.731c2.505 3.338 4.193 6.426 5.229 9.53.035.102.065.203.099.307 3.065 10.07-1.074 19.65-11.075 25.624l-48.322 28.749c-4.688 2.77-9.376 4.162-13.975 4.162zm-19.14-48.67c.08.106.166.22.257.337l16.788 21.835c1.12 1.445 1.934 2.03 2.291 2.24.23-.087.722-.286 1.444-.714l47.507-28.261a15.608 15.608 0 0 0-.386-.531l-16.435-21.477c-1.127-1.379-1.932-2.004-2.316-2.256a5.98 5.98 0 0 0-.278-.18c-.227.066-.675.231-1.367.646l-47.506 28.362zm128.385-16.343c-.404 0-.808-.01-1.209-.03-5.465-.365-13.248-2.716-20.213-11.907l-1.443-1.959-14.62-18.863a11.855 11.855 0 0 1-.577-.69c-7.607-9.842-6.998-18.056-5.085-23.282 1.738-5 5.375-9.137 10.817-12.301l48.18-28.77c9.321-5.567 19.069-5.508 27.453.166 2.667 1.745 5.356 4.242 7.837 7.322.062.078.123.156.183.236l16.443 21.364c.168.205.33.414.486.627 2.215 3.083 3.813 5.984 4.885 8.872.104.278.196.56.278.844 2.9 10.013-1.3 19.532-11.224 25.464l-48.323 28.75c-4.554 2.747-9.233 4.157-13.868 4.157zm-19.156-48.559l.577.643c.206.228.401.462.59.705l14.365 18.648c.052.068.104.136.153.207l1.427 1.937c1.08 1.423 1.86 1.976 2.19 2.167.197-.083.635-.267 1.28-.655l47.667-28.358c-.085-.127-.176-.26-.271-.396l-1.153-1.4a14.405 14.405 0 0 1-.271-.34l-15.184-19.842c-1.125-1.376-1.931-2.002-2.314-2.253a22.435 22.435 0 0 0-.277-.18c-.225.067-.674.232-1.366.647l-47.497 28.36c.027.032.052.07.084.11zm130.12-17.577c-.399 0-.799-.01-1.195-.031-5.4-.365-13.1-2.7-20.147-11.816l-1.587-2.113-15.032-19.502c-7.69-9.759-7.103-18.015-5.174-23.273 1.742-5.005 5.406-9.14 10.898-12.29l48.2-28.778c9.35-5.462 19.03-5.41 27.344.094 2.824 1.844 5.553 4.427 8.059 7.64l16.663 21.672c2.526 3.367 4.216 6.454 5.25 9.558.033.1.066.201.098.305 3.066 10.072-1.074 19.651-11.076 25.626l-48.32 28.748c-4.685 2.768-9.376 4.16-13.982 4.16zm-19.14-48.668c.081.106.17.218.261.335l15.16 19.667c.033.042.063.083.098.126l1.528 2.038c1.12 1.449 1.935 2.034 2.291 2.244a9.12 9.12 0 0 0 1.443-.712l47.507-28.264c-.117-.168-.248-.343-.388-.53l-16.521-21.49c-1.125-1.44-1.936-2.05-2.229-2.24-.244-.164-.343-.199-.343-.2.079.04-.481.184-1.4.722l-47.407 28.304zM719.72 111.16c-.397 0-.8-.01-1.199-.032-5.47-.364-13.25-2.715-20.214-11.909a12.03 12.03 0 0 1-.742-1.099c-.254-.273-.495-.56-.728-.86l-15.08-19.566c-7.688-9.903-7.096-18.096-5.165-23.301 1.715-4.917 5.289-9.044 10.629-12.27l48.483-28.784c9.05-5.476 19.038-5.43 27.326.18 2.627 1.713 5.227 4.084 7.785 7.132.116.138.229.28.34.425l16.612 21.705c2.515 3.352 4.2 6.442 5.234 9.549.046.147.094.294.137.44 2.907 10.019-1.285 19.544-11.221 25.478l-48.32 28.746c-4.553 2.756-9.234 4.166-13.877 4.166zm-2.92-27.49c.276.296.538.61.788.938 1.153 1.521 1.95 2.1 2.284 2.295.2-.083.637-.267 1.277-.653l47.686-28.37a13.353 13.353 0 0 0-.357-.49L752.12 36.018c-1.225-1.427-2.081-2.086-2.495-2.356a6.873 6.873 0 0 0-.26-.17c-.224.072-.627.235-1.229.6L700.5 62.374c.116.163.245.336.39.52l15.104 19.597c.297.381.565.774.805 1.177z"/><path fill="#555" d="M213.014 396.17a12.095 12.095 0 0 1-10.401-5.903c-3.422-5.738-1.545-13.164 4.19-16.585l11.618-6.93c5.735-3.424 13.164-1.544 16.586 4.19 3.422 5.739 1.546 13.167-4.191 16.587l-11.617 6.928a12.034 12.034 0 0 1-6.185 1.713zm48.302-28.737a12.093 12.093 0 0 1-10.423-5.943c-3.401-5.75-1.496-13.169 4.253-16.569.956-.565 1.78-1.129 2.444-1.676 5.16-4.248 12.784-3.507 17.028 1.653 4.245 5.157 3.504 12.781-1.654 17.025-1.627 1.34-3.48 2.625-5.504 3.823a12.028 12.028 0 0 1-6.144 1.687zm60.837-36.28c-4.13 0-8.151-2.114-10.412-5.923-3.412-5.744-1.52-13.165 4.224-16.575l13.553-8.05c5.743-3.414 13.167-1.518 16.577 4.222 3.412 5.744 1.52 13.167-4.223 16.577l-13.553 8.05a12.044 12.044 0 0 1-6.166 1.7zm48.404-28.735a12.088 12.088 0 0 1-10.351-5.821c-3.468-5.71-1.648-13.15 4.062-16.62a41.324 41.324 0 0 0 4.017-2.75c5.262-4.118 12.863-3.19 16.981 2.067 4.12 5.26 3.195 12.862-2.065 16.982a65.433 65.433 0 0 1-6.378 4.384 12.054 12.054 0 0 1-6.266 1.758zm62.67-37.4a12.09 12.09 0 0 1-10.429-5.95c-3.396-5.753-1.485-13.168 4.268-16.567l12.942-7.64c5.757-3.394 13.172-1.483 16.566 4.267 3.397 5.753 1.486 13.169-4.268 16.567l-12.942 7.64a12.05 12.05 0 0 1-6.137 1.683zm48.302-28.736a12.091 12.091 0 0 1-10.324-5.775c-3.491-5.694-1.706-13.144 3.99-16.636a52.087 52.087 0 0 0 2.903-1.909c5.455-3.859 13.003-2.562 16.862 2.894 3.856 5.455 2.561 13.004-2.895 16.86a77.065 77.065 0 0 1-4.227 2.78 12.021 12.021 0 0 1-6.309 1.786zm60.835-36.175a12.09 12.09 0 0 1-10.391-5.888c-3.431-5.731-1.564-13.16 4.167-16.59l12.942-7.745c5.735-3.43 13.163-1.562 16.59 4.169 3.43 5.733 1.565 13.16-4.166 16.592l-12.942 7.743a12.058 12.058 0 0 1-6.2 1.72zm48.405-28.84a12.08 12.08 0 0 1-10.351-5.824c-3.468-5.711-1.646-13.15 4.064-16.615a41.722 41.722 0 0 0 3.948-2.696c1.443-1.175 1.9-1.947 2.01-2.161.097-.204.128-.305.128-.306.638-6.652 6.504-11.429 13.184-10.794 6.648.639 11.51 6.638 10.87 13.289-.28 2.904-1.137 5.806-2.545 8.629-.01.017-.017.034-.025.05-1.865 3.704-4.716 7.124-8.482 10.162l-.075.06-.12.096a66.272 66.272 0 0 1-6.343 4.353 12.031 12.031 0 0 1-6.263 1.757zm111.586-66.44a12.094 12.094 0 0 1-10.425-5.944c-3.398-5.75-1.49-13.17 4.26-16.569a19.117 19.117 0 0 0 2.414-1.672 13.118 13.118 0 0 1 .73-.571c2.057-1.521 2.726-2.538 2.897-2.852l.015-.031c.75-6.537 6.588-11.284 13.176-10.662 6.651.638 11.523 6.547 10.885 13.197-.287 2.992-1.182 5.935-2.655 8.744-.015.023-.026.048-.04.071-2.103 3.96-5.379 7.617-9.742 10.87a43.343 43.343 0 0 1-5.372 3.734 12.058 12.058 0 0 1-6.143 1.685z"/><g><path fill="#555" d="M205.097 398.955c-5.226.003-8.591-2.499-10.233-4.14-2.378-2.37-5.016-6.659-4.065-13.619.904-6.618 7.002-11.256 13.621-10.352 1.501.207 2.901.68 4.157 1.361l46.305-27.588c.522-.31 1.059-.575 1.605-.8.428-.44.895-.852 1.399-1.23 1.94-1.456 2.778-2.538 3.11-3.061.814-6.46 6.627-11.156 13.145-10.518 6.651.633 11.53 6.537 10.897 13.188-.292 3.066-1.22 6.044-2.76 8.853-2.215 3.983-5.523 7.623-9.864 10.882a11.949 11.949 0 0 1-2.676 1.524 12.132 12.132 0 0 1-2.473 1.948l-48.403 28.838c-4.404 2.561-7.874 3.968-11.03 4.494a17.123 17.123 0 0 1-2.735.22zm109.227-65.013c-5.291 0-8.682-2.526-10.33-4.177-1.943-1.943-5.052-6.294-4.058-13.582.904-6.621 7.002-11.251 13.621-10.352 1.487.204 2.875.669 4.122 1.345l46.346-27.574c.665-.397 1.354-.72 2.054-.975a12.128 12.128 0 0 1 1.768-1.739c1.436-1.147 2.109-2.048 2.418-2.6.941-6.616 7.084-11.194 13.676-10.25 6.615.943 11.211 7.09 10.27 13.706-.409 2.863-1.35 5.653-2.797 8.292-2.04 3.63-4.862 6.868-8.444 9.739a12.108 12.108 0 0 1-3.43 1.931 12.125 12.125 0 0 1-3.144 2.688l-48.301 28.737c-4.265 2.58-7.793 4.055-11.026 4.594a8.514 8.514 0 0 1-.367.057c-.83.108-1.625.16-2.378.16zm111.025-66.139c-3.871 0-7.39-1.382-10.09-4.005-2.389-2.319-5.072-6.543-4.282-13.484.754-6.64 6.762-11.437 13.385-10.652 1.566.18 3.029.647 4.338 1.35l46.407-27.55c.342-.202.688-.386 1.039-.552a12.394 12.394 0 0 1 1.7-1.395c2.302-1.564 3.103-2.675 3.358-3.122.805-6.437 6.562-11.12 13.088-10.54 6.653.602 11.56 6.482 10.96 13.134a22.076 22.076 0 0 1-2.808 8.984c-2.355 4.306-6.056 8.192-11 11.553-.536.363-1.093.68-1.663.949a12.077 12.077 0 0 1-2.326 1.79L439.052 263c-4.266 2.58-7.798 4.057-11.029 4.591l-.259.037c-.814.118-1.622.175-2.415.175zm109.185-65.011c-5.292.002-8.68-2.526-10.329-4.178-1.942-1.944-5.052-6.295-4.055-13.585.905-6.621 7.005-11.249 13.623-10.347 1.501.205 2.896.677 4.151 1.36l51.254-29.573 3.32-17.582c1.24-6.565 7.568-10.887 14.13-9.642 6.562 1.24 10.881 7.564 9.642 14.13l-4.078 21.602a12.053 12.053 0 0 1-4.383 7.245 12.061 12.061 0 0 1-4.004 3.742l-55.537 32.042c-4.29 2.583-7.784 4.035-10.986 4.569-.123.02-.246.037-.365.055a17.86 17.86 0 0 1-2.383.162zm111.688-66.44c-5.293 0-8.686-2.53-10.334-4.182-1.94-1.945-5.049-6.295-4.053-13.583.905-6.621 7.011-11.252 13.623-10.347 1.453.198 2.808.647 4.032 1.295l52.546-31.255c.007-.498.045-1.003.116-1.51l1.937-13.859c.927-6.616 7.016-11.242 13.656-10.304 6.615.925 11.23 7.038 10.306 13.655l-1.938 13.859a12.055 12.055 0 0 1-1.692 4.692c.522 4.584-1.612 9.262-5.837 11.775l-58.476 34.78c-4.331 2.706-7.876 4.221-11.143 4.765a17.78 17.78 0 0 1-2.743.218z"/></g></svg>