<svg xmlns="http://www.w3.org/2000/svg" width="900" height="450" viewBox="0 0 900 450"><path fill="#E19C97" d="M347.078 41.892v-.102l-4.009 4.933c.548-.068 1.13-.103 1.748-.103.068-.206.136-.377.206-.514l-.103-.104c1.027.139 1.747-1.231 2.158-4.11m88.801 46.765a135.395 135.395 0 0 1-6.475-.616l-5.755.616h12.23m-242.456 4.83c-.069-.068-.104-.136-.104-.206a5.356 5.356 0 0 0-.411-.616v-.103a3.272 3.272 0 0 0-.206-.206 51.77 51.77 0 0 0 1.028 1.952V94l-.206-.411c.001-.068-.033-.102-.101-.102m520.885-18.396c.343-.754.687-1.474 1.027-2.159.068-.136.137-.24.207-.308l.103-.412a52.564 52.564 0 0 0-1.337 2.879m0 0c-.137.342-.308.719-.515 1.13a191.826 191.826 0 0 1-1.849 3.803c-3.427 6.611-6.851 13.224-10.277 19.836-2.126 36.521-1.198 81.401 2.774 134.641 3.836 49.882 7.433 91.474 10.791 124.774-3.358-33.301-6.955-74.893-10.791-124.774-3.973-53.24-4.9-98.12-2.774-134.641-32.273 53.24-69.069 93.872-110.386 121.896-44.264 30.013-92.604 44.779-145.021 44.298-51.595-.546-104.013-22.269-157.252-65.162-20.487-16.513-39.742-35.219-57.762-56.117l-12.437-14.903a251.013 251.013 0 0 1-1.747-2.159c-1.851 22.063-2.707 54.542-2.569 97.436.136 57.692 6.063 111.516 17.78 161.466-21.721-9.25-38.988-18.466-51.801-27.648-.068.275-.137.585-.206.926 33.438 24.53 77.222 40.359 131.353 47.483 54.473 7.126 108.809 9.661 163.008 7.605 54.609-2.191 98.395-5.789 131.353-10.791 33.026-5.14 71.156-19.733 114.393-43.784-6.372-33.849-11.374-75.27-15.006-124.261-4.043-53.17-5.003-98.05-2.879-134.641 2.606-4.248 6.888-13.771 12.848-28.572a64.237 64.237 0 0 0-1.028 2.159M552.842 43.948v1.645l.616-.72-.616-.925m-.926-.514h.618l-1.439-2.261c.344.617.582 1.302.719 2.056-.001.068.034.137.102.205m2.056 2.159l-.514-.72-.616.72v-1.645l-.308-.514h-.618c.068.343.137.685.207 1.027v1.337l-1.645 6.269a82.631 82.631 0 0 0 3.494-6.474M547.6 35.417c0 .137.068.308.205.514.137.343.482.891 1.028 1.645.136.205.309.445.514.719l1.542 2.569c.068.069.136.172.206.309l1.439 2.261.308.514.616.925.514.72a83.164 83.164 0 0 1-3.493 6.475l-.721 2.569c-1.644 3.289-4.145 6.886-7.501 10.792-5.758 6.852-11.956 11.683-18.605 14.491l-3.186 1.234c-.137.137-1.13.274-2.98.411-1.85.137-2.843.206-2.979.206l-.207.102-3.186 1.028c-3.083.959-6.715 1.816-10.894 2.57-5.14.959-11.031 1.747-17.68 2.363-1.405.104-2.809.206-4.214.308-2.944.206-5.996.377-9.147.514l-4.111.104H438.655c-.891 0-1.816-.034-2.775-.104h-12.23l-4.625.412h-18.192c-3.427-.274-6.064-.616-7.914-1.028-10.004-1.85-18.603-5.447-25.797-10.792a72.255 72.255 0 0 1-11.819-11.1 9.065 9.065 0 0 1-1.131-.925c-2.124-1.986-4.419-5.241-6.886-9.764a31.704 31.704 0 0 1-1.336-2.569 44.132 44.132 0 0 0 0 0c-1.302-2.809-1.679-4.899-1.13-6.269-.617 0-1.2.034-1.748.103l4.009-4.933.103-.103v-.104c.342-2.056.925-3.7 1.748-4.933l-178.63.103c.205.411.514 1.131.924 2.159 1.439 3.494 4.18 10.518 8.223 21.07h7.606c2.398 4.521 4.625 8.462 6.681 11.82 9.592 16.033 22.098 32.958 37.514 50.772 18.021 20.831 37.275 39.57 57.762 56.221 53.24 42.825 105.657 64.511 157.252 65.059 52.417.479 100.757-14.287 145.021-44.297 41.316-28.093 78.112-68.726 110.386-121.896 1.303-2.125 3.563-6.407 6.782-12.848 3.7-7.264 5.963-11.649 6.783-13.156h8.736c4.043-10.141 6.306-15.279 6.783-15.417L547.6 35.417m-44.195 90.652c12.401 5.619 26.963 15.657 43.681 30.114-16.718-14.457-31.279-24.495-43.681-30.114-14.801-6.715-32.308-10.142-52.52-10.278-43.579-.342-79.963 13.121-109.152 40.392 29.189-27.271 65.573-40.734 109.152-40.392 20.213.136 37.719 3.563 52.52 10.278z"/><path fill="#C9636E" d="M352.011 60.702c-2.33-2.741-4.351-5.345-6.064-7.812.343.754.788 1.611 1.336 2.569 2.467 4.523 4.762 7.778 6.886 9.764.274.274.651.583 1.131.925 2.055 1.85 4.933 4.214 8.633 7.091 9.388 7.4 19.048 12.129 28.984 14.185l7.914 1.232h7.811c-16.65-.616-30.594-5.241-41.832-13.875-5.274-4.041-10.207-8.736-14.799-14.079m142.76 25.385l5.448-1.028a177.735 177.735 0 0 0 8.222-1.85c9.73-2.604 18.467-7.023 26.209-13.258a70.408 70.408 0 0 0 15.828-17.884l1.645-6.269v-1.337c-.07-.342-.139-.684-.207-1.027-36.246-1.37-63.755-1.576-82.53-.617-12.745 1.37-20.352 2.09-22.817 2.158-5.551-.479-13.465-.788-23.743-.924-20.144-.343-46.147.514-78.009 2.569-.548 1.37-.172 3.46 1.13 6.269 1.713 2.467 3.734 5.071 6.064 7.812 4.591 5.344 9.524 10.038 14.8 14.08 11.237 8.634 25.181 13.259 41.832 13.875h10.792l9.97-1.028c3.563.412 6.646.651 9.25.72l30.524-.206c9.8-.41 18.33-1.095 25.592-2.055m5.449-1.027c4.179-.753 7.811-1.576 10.894-2.466l3.186-1.028.207-.103c.137-.068 1.13-.171 2.979-.308 1.851-.137 2.844-.24 2.98-.309l3.186-1.336c6.649-2.741 12.848-7.502 18.605-14.287 3.288-3.905 5.789-7.434 7.501-10.586l.721-2.569a70.408 70.408 0 0 1-15.828 17.884c-7.742 6.235-16.479 10.654-26.209 13.258a179.046 179.046 0 0 1-8.222 1.85m49.127-46.765a16.164 16.164 0 0 1-.514-.719l2.056 3.288-1.542-2.569m-1.542-2.364c-.137-.206-.205-.376-.205-.514.068-1.165-10.859-1.678-32.786-1.542-27.819.412-47.69.651-59.612.72-23.57-.068-41.042-.103-52.417-.103-20.007 0-37.789.376-53.342 1.13h.308a6.692 6.692 0 0 0-.822 1.028c-.822 1.233-1.405 2.877-1.748 4.933l3.803-4.933-3.803 4.933v.104l-.103.103v.102c-.412 2.879-1.131 4.249-2.159 4.111l.103.104a3.9 3.9 0 0 0-.206.514c31.861-2.056 57.865-2.913 78.009-2.569 10.278.136 18.192.445 23.743.924 2.466-.068 10.072-.788 22.817-2.158 18.775-.959 46.284-.753 82.53.617-.068-.068-.103-.137-.103-.205a6.614 6.614 0 0 0-.719-2.056 1.265 1.265 0 0 0-.206-.309l-2.056-3.288c-.544-.755-.89-1.303-1.026-1.646z"/><path fill="#D28781" d="M217.063 127.713l-.823-1.028-22.508-32.684v.308c2.466 40.084 1.712 86.198-2.262 138.341-4.316 55.982-8.324 97.847-12.025 125.597a9.15 9.15 0 0 1 1.028.719c12.813 9.183 30.08 18.398 51.801 27.648-11.717-49.95-17.644-103.773-17.78-161.466-.139-42.893.717-75.372 2.569-97.435m-37.926-67.731h-3.083c6.365 13.619 11.915 24.343 16.65 32.17-2.787-5.291-7.309-16.014-13.567-32.17m534.656 16.239c.207-.411.378-.788.515-1.13-.821 1.712-1.61 3.357-2.363 4.933a200.495 200.495 0 0 0 1.848-3.803m11.102-24.565h-.412a6980.45 6980.45 0 0 0-5.652 13.465c1.779-3.975 3.803-8.462 6.064-13.465m-.413 0h-9.25c-.82 1.507-3.083 5.893-6.783 13.156-3.22 6.441-5.479 10.723-6.782 12.848-32.273 53.17-69.069 93.803-110.386 121.896-44.264 30.01-92.604 44.777-145.021 44.297-51.595-.548-104.013-22.234-157.252-65.059-20.487-16.65-39.742-35.39-57.762-56.221-15.417-17.814-27.922-34.739-37.514-50.772-2.056-3.357-4.283-7.298-6.681-11.82h-7.914c6.258 16.156 10.781 26.879 13.567 32.17v.102c.018.038.018.072 0 .104.09.084.159.152.206.206v.103c.163.215.3.419.411.616 0 .069.034.138.104.206.068 0 .102.034.102.104l.206.411 22.508 32.684.823 1.028c.548.686 1.13 1.405 1.747 2.159l12.437 14.903c18.021 20.898 37.275 39.604 57.762 56.117 53.24 42.893 105.657 64.616 157.252 65.162 52.417.481 100.757-14.285 145.021-44.298 41.316-28.024 78.112-68.656 110.386-121.896 3.427-6.612 6.851-13.225 10.277-19.836.753-1.576 1.542-3.221 2.363-4.933.411-.959.856-1.919 1.337-2.879.068-.136.137-.239.204-.308 0-.136.036-.274.104-.411.41-.959.855-1.919 1.335-2.878l1.542-3.494c1.575-3.771 3.46-8.259 5.651-13.467z"/><g><path fill="none" stroke="#432727" stroke-width="2" stroke-linecap="round" stroke-linejoin="round" d="M347.181 41.584l3.803-4.933m197.849.925l2.056 3.288c.068.069.136.172.206.309l1.439 2.261.308.514.616.925.514.72a83.164 83.164 0 0 1-3.493 6.475M482.54 87.834c-1.405.104-2.809.206-4.214.308-2.944.206-5.996.377-9.147.514l-4.111.104h-18.499m-10.69-.103h-12.23M345.947 52.89a43.9 43.9 0 0 1-2.98-5.036m205.866-10.278c-.546-.754-.892-1.302-1.028-1.645M500.22 85.06l-5.448 1.028c-4.041.686-8.12 1.268-12.231 1.747m67.938-35.767a70.408 70.408 0 0 1-15.828 17.884c-7.742 6.235-16.479 10.654-26.209 13.258-2.74.686-5.482 1.302-8.222 1.85m52.314-41.626h-.618m1.542 1.439l-.616.72v-1.645M341.733 156.183c29.189-27.271 65.573-40.734 109.152-40.392 20.212.136 37.719 3.563 52.52 10.278 12.401 5.619 26.963 15.657 43.681 30.114M179.137 59.982c6.258 16.156 10.781 26.896 13.567 32.221m0 .051l.051.104c.056.084.107.169.154.257l.051.051c.128.215.249.419.359.616 0 .069.034.138.104.206.068 0 .102.034.102.104l.206.411 22.508 32.684.823 1.028c.548.686 1.13 1.405 1.747 2.159l12.437 14.903c18.021 20.898 37.275 39.604 57.762 56.117 53.24 42.893 105.657 64.616 157.252 65.162 52.417.481 100.757-14.285 145.021-44.298 41.316-28.024 78.112-68.656 110.386-121.896 3.427-6.612 6.851-13.225 10.277-19.836.753-1.576 1.542-3.221 2.363-4.933m2.981-6.478l1.542-3.494a6980.45 6980.45 0 0 1 5.652-13.465 3263.91 3263.91 0 0 1 6.27-15.417m-16.444 38.852c.343-.754.687-1.474 1.027-2.159.068-.136.137-.24.207-.308l.103-.412m-544.423-33.3a1610.77 1610.77 0 0 0 7.915 21.07m14.594 34.019v.308c2.466 40.084 1.712 86.198-2.262 138.341-4.316 55.982-8.324 97.847-12.025 125.597m244.205-269.59h-15.007m37.926.103a541.61 541.61 0 0 0-10.689-.104m116.037-45.222c-36.246-1.37-63.755-1.576-82.53-.617-12.745 1.37-20.352 2.09-22.817 2.158-5.551-.479-13.465-.788-23.743-.924-20.144-.343-46.147.514-78.009 2.569m1.13 6.27c1.713 2.467 3.734 5.071 6.064 7.812 4.591 5.344 9.524 10.038 14.8 14.08 11.237 8.634 25.181 13.259 41.832 13.875M347.078 41.79l.103-.103v-.104m-2.364 5.038c-.617 0-1.2.034-1.748.103l4.009-4.933m368.154 317.484c-3.358-33.301-6.955-74.893-10.791-124.774-3.973-53.24-4.9-98.12-2.774-134.641"/></g></svg>