<?xml version="1.0" encoding="utf-8"?>
<!-- Generator: Adobe Illustrator 16.0.0, SVG Export Plug-In . SVG Version: 6.00 Build 0)  -->
<!DOCTYPE svg PUBLIC "-//W3C//DTD SVG 1.1//EN" "http://www.w3.org/Graphics/SVG/1.1/DTD/svg11.dtd">
<svg version="1.1" id="Layer_1" xmlns="http://www.w3.org/2000/svg" xmlns:xlink="http://www.w3.org/1999/xlink" x="0px" y="0px"
	 width="900px" height="450px" viewBox="0 0 900 450" enable-background="new 0 0 900 450" xml:space="preserve">
<g transform="matrix( 1, 0, 0, 1, 0,0) ">
	<g>
		<g id="Layer1_0_FILL">
			<path fill="#EFBD9C" d="M309.734,81.19c-0.248,1.05-0.433,2.102-0.557,3.152c4.884-0.495,8.779,0.093,11.685,1.762
				c2.844,1.731,4.946,4.513,6.306,8.346c1.113,3.215,1.762,5.873,1.947,7.975c0.063,1.731-0.154,4.019-0.648,6.862
				c-5.069,2.288-10.912,2.751-17.527,1.391c-0.803,1.978-1.267,5.286-1.391,9.922c-0.125,4.328,0.092,8.871,0.649,13.632
				l0.556,4.821c7.976,1.731,15.301,1.731,21.978,0c-6.677,1.731-14.002,1.731-21.978,0l1.855,17.341v29.768
				c0.68,5.873,1.082,13.477,1.205,22.812c0.247,4.822,0.866,8.81,1.854,11.963c0.496,1.606,1.052,2.967,1.67,4.08l5.101,19.288
				c8.036,26.213,25.191,37.434,51.466,33.662c-26.274,3.771-43.43-7.449-51.466-33.662c0.494,10.326-1.979,19.876-7.419,28.654
				c-62.996,59.349-102.963,98.05-119.902,116.1c17.587,20.022,41.079,33.53,70.476,40.524l112.02-121.941l-112.02,121.941
				l22.626,5.656c21.514-28.252,49.828-62.501,84.942-102.747c7.976-13.044,16.63-24.666,25.965-34.866
				c11.499-12.55,21.267-27.264,29.304-44.141c-3.524-4.697-6.708-9.768-9.551-15.208c0-1.978,0.309-3.832,0.927-5.563
				c-2.782-3.523-5.719-7.697-8.81-12.519c-6.801-11.004-11.993-19.35-15.58-25.038c-13.291-20.648-26.273-34.032-38.947-40.152
				c12.674,6.121,25.656,19.504,38.947,40.152c3.586,5.688,8.779,14.034,15.58,25.038c3.091,4.822,6.028,8.996,8.81,12.519
				c1.112-3.462,3.555-6.059,7.325-7.789c4.328-2.102,8.717-2.751,13.168-1.948c5.131-16.32,8.995-34.187,11.591-53.599
				c1.36-2.596,2.782-6.027,4.266-10.292c1.731-4.884,3.153-9.83,4.266-14.837c0.742-0.804,1.452-1.669,2.133-2.596
				c-4.142-7.109-7.882-14.188-11.22-21.236c-3.524,8.532-7.635,16.661-12.334,24.388c-2.102,9.953-0.865,17.155,3.709,21.606
				c-4.574-4.451-5.811-11.653-3.709-21.606c-6.8-2.164-12.117-6.15-15.949-11.962c3.833,5.812,9.149,9.798,15.949,11.962
				c4.699-7.727,8.81-15.856,12.334-24.388c-1.299-2.535-2.535-5.1-3.709-7.696c-0.618-1.236-1.206-2.412-1.762-3.524
				c-3.215-6.058-5.966-11.715-8.253-16.97c-6.367,14.714-12.92,26.614-19.658,35.701c-5.811-0.062-10.88-1.7-15.208-4.915
				c4.328,3.215,9.397,4.853,15.208,4.915c6.738-9.087,13.291-20.987,19.658-35.701c-0.309-0.679-0.587-1.329-0.834-1.947
				c-3.771-0.804-6.893-2.535-9.366-5.192c2.473,2.658,5.595,4.388,9.366,5.192c-1.607-3.957-2.999-7.696-4.173-11.22
				c-1.237-5.564-0.68-10.417,1.669-14.559c2.782-5.069,6.089-7.666,9.922-7.79l-2.596-5.471
				c-4.513,4.513-9.521,8.531-15.023,12.055c-6.305,9.768-13.354,18.236-21.143,25.408c-2.597,12.612-6.306,22.998-11.127,31.158
				c-4.575,0.556-9.521-0.618-14.837-3.524c5.316,2.906,10.262,4.081,14.837,3.524c4.821-8.161,8.53-18.546,11.127-31.158
				c7.789-7.171,14.837-15.64,21.143-25.408c5.502-3.524,10.51-7.542,15.023-12.055l-2.968-6.307
				c-0.124-11.065,3.987-16.32,12.333-15.764c0.124,0.247,0.309,0.433,0.556,0.557c0.68,0.742,1.329,1.545,1.947,2.411
				c0.062-1.113-0.029-2.164-0.277-3.152c-0.31-1.423-0.896-2.751-1.762-3.988c-3.338-3.029-7.017-4.698-11.036-5.007
				c-11.313,4.822-20.833,11.097-28.561,18.824c-9.212,7.542-17.187,15.703-23.925,24.481l-23.09,33.568
				c-5.007,11.932-10.385,24.234-16.135,36.908c-1.855,4.142-3.833,8.315-5.935,12.519c0.062,0.556-0.031,0.711-0.278,0.463
				c0.433,11.746,2.288,20.432,5.564,26.058c-3.276-5.625-5.131-14.312-5.564-26.058c0.247,0.248,0.34,0.093,0.278-0.463
				c-0.186-0.804-0.834-2.659-1.947-5.564c2.225-7.976,0.618-20.617-4.822-37.928C330.413,85.548,321.665,78.346,309.734,81.19
				 M425.277,62.736c-3.833-1.607-6.769-4.08-8.81-7.418C418.508,58.656,421.444,61.128,425.277,62.736 M404.042,88.701
				c-4.266-0.247-8.068-1.824-11.407-4.729C395.974,86.877,399.776,88.454,404.042,88.701 M459.494,144.247
				c-2.658-1.731-4.821-3.678-6.491-5.842C454.673,140.569,456.836,142.516,459.494,144.247 M382.528,210.457
				c9.273,16.878,12.858,35.732,10.757,56.566C395.386,246.189,391.801,227.335,382.528,210.457
				c-9.15-16.876-18.268-27.51-27.355-31.899C364.26,182.947,373.378,193.581,382.528,210.457 M380.488,130.06
				c8.902,31.899,25.501,55.576,49.797,71.032C405.989,185.636,389.39,161.958,380.488,130.06 M488.892,52.165l-0.743-1.206
				c-1.299,2.288-3.617,4.42-6.955,6.399l-9.736-9.181c1.299-4.698,3.556-7.666,6.77-8.902c-0.556-0.371-1.175-0.68-1.854-0.927
				c-0.248-0.124-0.463-0.216-0.649-0.278c-1.793-0.495-3.863-0.525-6.213-0.093c-1.978,2.102-3.307,4.544-3.988,7.326
				c-0.062,0.68-0.123,1.329-0.185,1.947c-0.185,1.299-0.185,2.628,0,3.988c0.185,1.792,0.619,3.616,1.299,5.471l11.868,16.136
				l0.464,0.649l24.481,33.754l0.65,0.742l2.782,5.008l28.56,50.075l-28.56-50.075c-4.268,3.276-9.306,5.224-15.116,5.842
				c5.811-0.618,10.849-2.565,15.116-5.842l-2.782-5.008l-0.65-0.742c-4.08,0.927-7.667,2.782-10.757,5.564
				c3.09-2.782,6.677-4.637,10.757-5.564l-24.481-33.754l-0.464-0.649c-1.483,2.719-4.05,4.451-7.695,5.192
				c3.646-0.742,6.212-2.473,7.695-5.192l-11.868-16.136l-2.041-4.543l-2.596-5.193l-1.391-3.06
				c-1.299,1.73-3.835,3.246-7.605,4.544l-8.623-11.499c0.68-1.669,1.7-3.06,3.06-4.173c0.495-0.433,1.855-1.452,4.08-3.06
				c-0.247-0.124-0.432-0.31-0.556-0.557c-8.346-0.556-12.458,4.699-12.333,15.764l2.968,6.307l2.596,5.471l1.02,1.762l7.789,12.425
				l2.041,3.432l12.332,19.937l3.246,5.286l5.658,9.181l9.921,16.135l7.883,11.406l1.762,2.689l15.578,41.543l-15.578-41.543
				l-1.762-2.689c-3.463,4.328-7.574,6.985-12.334,7.975c4.76-0.99,8.871-3.647,12.334-7.975l-7.883-11.406l-9.921-16.135
				l-5.658-9.181c-1.545,2.102-4.111,3.987-7.695,5.656c3.584-1.669,6.15-3.555,7.695-5.656l-3.246-5.286l-12.332-19.937
				c-1.36,2.906-4.235,5.039-8.625,6.398c-2.843-3.215-6.089-8.006-9.737-14.373c1.546-4.514,4.39-7.141,8.531-7.882l-1.02-1.762
				c-3.833,0.124-7.141,2.72-9.922,7.79c-2.349,4.142-2.906,8.995-1.669,14.559c1.174,3.524,2.565,7.264,4.173,11.22
				c0.247,0.619,0.525,1.268,0.834,1.947c2.288,5.255,5.039,10.912,8.253,16.97c0.556,1.112,1.144,2.288,1.762,3.524
				c0.989-2.845,2.442-4.699,4.358-5.564c-1.916,0.865-3.369,2.719-4.358,5.564c1.175,2.596,2.411,5.162,3.709,7.696
				c3.338,7.047,7.078,14.126,11.22,21.236c0.805,1.422,1.608,2.844,2.411,4.266c2.534,19.102,7.326,36.907,14.373,53.413
				l1.299,51.374l-1.947,3.43c4.204,5.564,7.542,11.346,10.015,17.342c1.916,5.008,3.401,10.572,4.451,16.692
				c-1.05-6.12-2.535-11.685-4.451-16.692c-2.473-5.996-5.811-11.777-10.015-17.342c-0.494,2.165-1.454,3.246-2.874,3.246
				c-1.547,0.062-2.969-0.833-4.268-2.688c0.188,1.234,0.279,2.131,0.279,2.688c6.676,7.977,12.055,16.074,16.136,24.297
				c-4.081-8.223-9.46-16.32-16.136-24.297c0-0.557-0.092-1.453-0.279-2.688c-0.927-4.329-3.986-9.708-9.179-16.136
				c-6.43-7.79-12.55-12.673-18.361-14.652c-1.175-0.371-2.411-0.679-3.709-0.928c-4.451-0.803-8.841-0.154-13.168,1.948
				c-3.771,1.73-6.213,4.327-7.325,7.789c-0.619,1.731-0.927,3.586-0.927,5.563c2.844,5.44,6.027,10.511,9.551,15.208
				c3.895,5.193,8.16,9.983,12.797,14.374c5.75,5.81,10.417,11.652,14.001,17.526c2.846,8.902,6.12,16.32,9.83,22.256
				c11.188,12.61,23.028,19.968,35.517,22.068c12.736-5.067,23.893-2.781,33.476,6.863l74.093,97.739
				c37.307-10.13,69.886-26.761,97.739-49.891L594.605,277.688c-13.354-18.052-22.535-49.117-27.543-93.195
				c-6.182-16.939-13.385-34.744-21.605-53.413c-1.422,2.102-3.029,3.307-4.822,3.617c1.793-0.31,3.4-1.515,4.822-3.617
				c-0.248-0.494-0.463-1.02-0.649-1.577l-9.087-21.05l-2.318-5.378l-5.472,3.153l5.472-3.153l-7.326-16.692
				c-1.051,0.99-3.431,1.236-7.14,0.742l-6.678-8.252c3.399-2.288,5.656-5.131,6.771-8.531l-0.928-2.226
				c-4.204-0.247-7.326,0.371-9.365,1.854c-1.237,1.607-2.104,3.308-2.598,5.101c-0.246,0.68-0.402,1.421-0.464,2.226
				c0,1.731,0.341,3.4,1.021,5.008l18.825,26.984l1.854,2.69l19.474,49.981l-19.474-49.981c-1.854,4.265-5.164,7.48-9.924,9.644
				c4.76-2.164,8.069-5.378,9.924-9.644l-1.854-2.69c-3.215,0.989-5.936,2.813-8.161,5.472c2.226-2.659,4.946-4.482,8.161-5.472
				l-18.825-26.984L504.1,78.5l-1.114-1.577l-2.781-3.987l-1.576-2.875c-2.659,3.338-5.349,5.409-8.068,6.213
				c2.72-0.804,5.409-2.875,8.068-6.213L488.892,52.165 M422.217,239.391c5.069-6.614,11.499-10.324,19.288-11.128l7.326,13.631
				c-4.081,5.687-9.706,8.871-16.877,9.552L422.217,239.391 M512.538,226.222c10.262-4.019,14.96-11.715,14.094-23.09
				C527.498,214.507,522.8,222.203,512.538,226.222 M495.938,301.984c22.194,9.024,41.173,13.011,56.938,11.961
				C537.111,314.995,518.133,311.009,495.938,301.984 M488.148,132.656c-2.41,0.927-4.296,2.535-5.656,4.822
				C483.853,135.19,485.738,133.583,488.148,132.656 M557.42,196.641c5.254-7.913,6.305-14.745,3.151-20.494
				C563.725,181.896,562.674,188.728,557.42,196.641 M534.701,205.82c9.458-3.152,13.384-9.551,11.775-19.194
				C548.085,196.27,544.159,202.668,534.701,205.82 M441.505,228.263c-7.789,0.804-14.219,4.514-19.288,11.128l9.737,12.055
				c7.171-0.681,12.797-3.865,16.877-9.552L441.505,228.263 M436.683,66.353c3.647,6.367,6.894,11.158,9.737,14.373
				c4.389-1.36,7.264-3.493,8.625-6.398l-2.041-3.432l-7.789-12.425C441.072,59.212,438.229,61.839,436.683,66.353 M478.227,39.275
				c-3.214,1.236-5.471,4.204-6.77,8.902l9.736,9.181c3.338-1.979,5.656-4.111,6.955-6.399L478.227,39.275 M466.636,56.708
				c-0.68-1.854-1.114-3.679-1.299-5.471c-0.246,0.309-0.494,0.618-0.742,0.927L466.636,56.708 M453.467,32.135
				c-0.618-0.866-1.268-1.669-1.947-2.411c-2.225,1.607-3.585,2.627-4.08,3.06c-1.36,1.113-2.38,2.504-3.06,4.173l8.623,11.499
				c3.771-1.299,6.307-2.814,7.605-4.544l-0.187-0.186C458.197,39.151,455.879,35.288,453.467,32.135 M479.896,31.393
				c2.041-5.625,2.133-10.448,0.278-14.466c-4.575-2.968-9.088-3.431-13.538-1.391l-13.446,13.446
				c0.248,0.989,0.339,2.039,0.277,3.152c2.412,3.153,4.73,7.016,6.955,11.591l0.187,0.186l1.391,3.06l2.596,5.193
				c0.248-0.31,0.496-0.619,0.742-0.927c-0.185-1.36-0.185-2.689,0-3.988c0.062-0.618,0.123-1.267,0.185-1.947
				c0.682-2.782,2.011-5.225,3.988-7.326c2.35-0.432,4.42-0.401,6.213,0.093C477.33,35.844,478.722,33.619,479.896,31.393
				 M309.177,84.342c-0.742,4.204-0.989,8.161-0.742,11.87c0.248,3.647,1.083,8.469,2.504,14.466
				c6.615,1.36,12.458,0.896,17.527-1.391c0.494-2.843,0.711-5.131,0.648-6.862c-0.185-2.102-0.834-4.76-1.947-7.975
				c-1.36-3.833-3.462-6.614-6.306-8.346C317.956,84.436,314.061,83.848,309.177,84.342 M519.029,70.34
				c-1.114,3.4-3.371,6.244-6.771,8.531l6.678,8.252c3.709,0.495,6.089,0.248,7.14-0.742L519.029,70.34 M488.148,50.959l0.743,1.206
				c0.123-0.68,0.31-1.391,0.556-2.133c0.433-11.499-3.927-15.393-13.075-11.684c0.68,0.248,1.299,0.556,1.854,0.927L488.148,50.959
				z"/>
		</g>
	</g>
	<g>
		<path id="Layer1_0_1_STROKES" fill="none" stroke="#4F3222" stroke-linecap="round" stroke-linejoin="round" d="M476.372,38.348
			c0.68,0.248,1.299,0.556,1.854,0.927l9.922,11.684l0.743,1.206c0.123-0.68,0.31-1.391,0.556-2.133
			C489.88,38.533,485.521,34.639,476.372,38.348c-0.248-0.124-0.463-0.216-0.649-0.278c-1.793-0.495-3.863-0.525-6.213-0.093
			c-1.978,2.102-3.307,4.544-3.988,7.326c-0.062,0.68-0.123,1.329-0.185,1.947c-0.185,1.299-0.185,2.628,0,3.988
			c0.185,1.792,0.619,3.616,1.299,5.471l11.868,16.136l0.464,0.649l24.481,33.754l0.65,0.742l2.782,5.008l28.56,50.075
			 M488.892,52.165l9.736,17.897l1.576,2.875l2.781,3.987L504.1,78.5l2.596,3.802c-0.68-1.607-1.021-3.276-1.021-5.008
			c0.062-0.804,0.218-1.546,0.464-2.226c0.494-1.792,1.36-3.493,2.598-5.101c2.039-1.483,5.161-2.102,9.365-1.854l0.928,2.226
			l7.047,16.042l7.326,16.692l2.318,5.378l9.087,21.05c0.187,0.557,0.401,1.083,0.649,1.577
			c8.221,18.669,15.424,36.474,21.605,53.413c5.008,44.078,14.188,75.144,27.543,93.195l111.277,106.733 M608.144,434.312
			l-74.093-97.739c-9.583-9.645-20.739-11.931-33.476-6.863c-12.488-2.101-24.328-9.458-35.517-22.068
			c-3.71-5.936-6.984-13.354-9.83-22.256c-3.584-5.874-8.252-11.717-14.001-17.526c-4.637-4.391-8.902-9.181-12.797-14.374
			c-8.037,16.877-17.805,31.591-29.304,44.141c-9.335,10.2-17.989,21.822-25.965,34.866
			c-35.114,40.246-63.428,74.495-84.942,102.747 M195.117,389.058c16.939-18.05,56.907-56.751,119.902-116.1
			c5.44-8.778,7.913-18.328,7.419-28.654l-5.101-19.288c-0.618-1.113-1.174-2.473-1.67-4.08c-0.989-3.153-1.607-7.141-1.854-11.963
			c-0.123-9.334-0.525-16.939-1.205-22.812v-29.768l-1.855-17.341l-0.556-4.821c-0.557-4.761-0.773-9.304-0.649-13.632
			c0.124-4.636,0.587-7.944,1.391-9.922c-1.421-5.997-2.256-10.819-2.504-14.466c-0.247-3.709,0-7.667,0.742-11.87
			c0.124-1.05,0.31-2.102,0.557-3.152c11.931-2.844,20.679,4.358,26.243,21.606c5.44,17.311,7.047,29.952,4.822,37.928
			c1.113,2.905,1.761,4.76,1.947,5.564c2.102-4.204,4.08-8.376,5.935-12.519c5.75-12.674,11.127-24.976,16.135-36.908l23.09-33.568
			c6.738-8.779,14.713-16.939,23.925-24.481c7.728-7.728,17.249-14.002,28.561-18.824c4.019,0.309,7.697,1.978,11.036,5.007
			c0.865,1.237,1.452,2.565,1.762,3.988l13.446-13.446c4.45-2.04,8.963-1.577,13.538,1.391c1.854,4.018,1.763,8.84-0.278,14.466
			c-1.174,2.226-2.565,4.451-4.173,6.677 M519.029,70.34c-1.114,3.4-3.371,6.244-6.771,8.531l6.678,8.252
			c3.709,0.495,6.089,0.248,7.14-0.742 M506.695,82.303l18.825,26.984l1.854,2.69l19.474,49.981 M466.636,56.708l-2.041-4.543
			l-2.596-5.193l-1.391-3.06c-1.299,1.73-3.835,3.246-7.605,4.544l-8.623-11.499c0.68-1.669,1.7-3.06,3.06-4.173
			c0.495-0.433,1.855-1.452,4.08-3.06c-0.247-0.124-0.432-0.31-0.556-0.557c-8.346-0.556-12.458,4.699-12.333,15.764l2.968,6.307
			l2.596,5.471l1.02,1.762l7.789,12.425l2.041,3.432l12.332,19.937l3.246,5.286l5.658,9.181l9.921,16.135l7.883,11.406l1.762,2.689
			l15.578,41.543 M310.939,110.678c6.615,1.36,12.458,0.896,17.527-1.391c0.494-2.843,0.711-5.131,0.648-6.862
			c-0.185-2.102-0.834-4.76-1.947-7.975c-1.36-3.833-3.462-6.614-6.306-8.346c-2.906-1.669-6.801-2.257-11.685-1.762 M451.52,29.724
			c0.68,0.742,1.329,1.545,1.947,2.411c0.062-1.113-0.029-2.164-0.277-3.152 M453.467,32.135c2.412,3.153,4.73,7.016,6.955,11.591
			l0.187,0.186 M465.337,51.238c-0.246,0.309-0.494,0.618-0.742,0.927 M478.227,39.275c-3.214,1.236-5.471,4.204-6.77,8.902
			l9.736,9.181c3.338-1.979,5.656-4.111,6.955-6.399 M445.214,58.471c-4.142,0.742-6.985,3.369-8.531,7.882
			c3.647,6.367,6.894,11.158,9.737,14.373c4.389-1.36,7.264-3.493,8.625-6.398 M436.776,90.277
			c-1.607-3.957-2.999-7.696-4.173-11.22c-1.237-5.564-0.68-10.417,1.669-14.559c2.782-5.069,6.089-7.666,9.922-7.79
			 M417.952,127.926c6.738-9.087,13.291-20.987,19.658-35.701c-0.309-0.679-0.587-1.329-0.834-1.947 M441.598,51.238
			c-4.513,4.513-9.521,8.531-15.023,12.055c-6.305,9.768-13.354,18.236-21.143,25.408c-2.597,12.612-6.306,22.998-11.127,31.158
			 M419.806,232.713c1.112-3.462,3.555-6.059,7.325-7.789c4.328-2.102,8.717-2.751,13.168-1.948
			c5.131-16.32,8.995-34.187,11.591-53.599c1.36-2.596,2.782-6.027,4.266-10.292c1.731-4.884,3.153-9.83,4.266-14.837
			c0.742-0.804,1.452-1.669,2.133-2.596c-4.142-7.109-7.882-14.188-11.22-21.236c-3.524,8.532-7.635,16.661-12.334,24.388
			 M342.746,146.288c0.062,0.556-0.031,0.711-0.278,0.463c0.433,11.746,2.288,20.432,5.564,26.058 M440.3,222.976
			c1.298,0.249,2.534,0.557,3.709,0.928c5.811,1.979,11.932,6.862,18.361,14.652c5.192,6.428,8.252,11.807,9.179,16.136
			c1.299,1.854,2.721,2.749,4.268,2.688c1.42,0,2.38-1.081,2.874-3.246l1.947-3.43l-1.299-51.374
			c-7.047-16.506-11.839-34.311-14.373-53.413c-0.803-1.422-1.606-2.844-2.411-4.266 M451.335,120.415
			c-1.299-2.535-2.535-5.1-3.709-7.696c-0.618-1.236-1.206-2.412-1.762-3.524c-3.215-6.058-5.966-11.715-8.253-16.97
			 M428.43,253.484c-3.524-4.697-6.708-9.768-9.551-15.208c0-1.978,0.309-3.832,0.927-5.563 M431.954,251.445
			c7.171-0.681,12.797-3.865,16.877-9.552l-7.326-13.631c-7.789,0.804-14.219,4.514-19.288,11.128L431.954,251.445z
			 M471.549,254.691c0.188,1.234,0.279,2.131,0.279,2.688 M322.438,244.304c8.036,26.213,25.191,37.434,51.466,33.662"/>
	</g>
	<g>
		<path id="Layer1_0_2_STROKES" fill="none" stroke="#AE6F4D" stroke-linecap="round" stroke-linejoin="round" d="M310.753,139.054
			c7.976,1.731,15.301,1.731,21.978,0 M436.776,90.277c-3.771-0.804-6.893-2.535-9.366-5.192 M394.305,119.859
			c-4.575,0.556-9.521-0.618-14.837-3.524 M425.277,62.736c-3.833-1.607-6.769-4.08-8.81-7.418 M404.042,88.701
			c-4.266-0.247-8.068-1.824-11.407-4.729 M439.001,144.803c-2.102,9.953-0.865,17.155,3.709,21.606 M459.494,144.247
			c-2.658-1.731-4.821-3.678-6.491-5.842 M423.052,132.841c3.833,5.812,9.149,9.798,15.949,11.962 M417.952,127.926
			c-5.811-0.062-10.88-1.7-15.208-4.915"/>
	</g>
	<g>
		<path id="Layer1_0_3_STROKES" fill="none" stroke="#C5967C" stroke-linecap="round" stroke-linejoin="round" d="M498.628,70.062
			c-2.659,3.338-5.349,5.409-8.068,6.213 M545.457,131.079c-1.422,2.102-3.029,3.307-4.822,3.617 M491.766,118.838
			c5.811-0.618,10.849-2.565,15.116-5.842 M503.449,107.247c-4.08,0.927-7.667,2.782-10.757,5.564 M527.375,111.977
			c-1.854,4.265-5.164,7.48-9.924,9.644 M525.521,109.287c-3.215,0.989-5.936,2.813-8.161,5.472 M527.931,106.228l5.472-3.153
			 M470.809,78.037c3.646-0.742,6.212-2.473,7.695-5.192 M356.47,155.004c12.674,6.121,25.656,19.504,38.947,40.152
			c3.586,5.688,8.779,14.034,15.58,25.038c3.091,4.822,6.028,8.996,8.81,12.519 M447.625,112.719
			c0.989-2.845,2.442-4.699,4.358-5.564 M470.622,99.551c-1.545,2.102-4.111,3.987-7.695,5.656 M471.828,257.379
			c6.676,7.977,12.055,16.074,16.136,24.297 M355.172,178.558c9.087,4.389,18.206,15.022,27.355,31.899
			c9.273,16.878,12.858,35.732,10.757,56.566 M377.613,307.641l-112.02,121.941 M512.538,226.222
			c10.262-4.019,14.96-11.715,14.094-23.09 M495.938,301.984c22.194,9.024,41.173,13.011,56.938,11.961 M478.69,254.133
			c4.204,5.564,7.542,11.346,10.015,17.342c1.916,5.008,3.401,10.572,4.451,16.692 M494.084,136.272
			c-3.463,4.328-7.574,6.985-12.334,7.975 M488.148,132.656c-2.41,0.927-4.296,2.535-5.656,4.822 M557.42,196.641
			c5.254-7.913,6.305-14.745,3.151-20.494 M534.701,205.82c9.458-3.152,13.384-9.551,11.775-19.194 M380.488,130.06
			c8.902,31.899,25.501,55.576,49.797,71.032"/>
	</g>
</g>
</svg>
