<svg xmlns="http://www.w3.org/2000/svg" width="900" height="450" viewBox="0 0 900 450"><path fill="#EFBD9C" d="M309.734 81.19a27.99 27.99 0 0 0-.557 3.152c4.884-.495 8.779.093 11.685 1.762 2.844 1.731 4.946 4.513 6.306 8.346 1.113 3.215 1.762 5.873 1.947 7.975.063 1.731-.154 4.019-.648 6.862-5.069 2.288-10.912 2.751-17.527 1.391-.803 1.978-1.267 5.286-1.391 9.922-.125 4.328.092 8.871.649 13.632l.556 4.821c7.976 1.731 15.301 1.731 21.978 0-6.677 1.731-14.002 1.731-21.978 0l1.855 17.341v29.768c.68 5.873 1.082 13.477 1.205 22.812.247 4.822.866 8.81 1.854 11.963.496 1.606 1.052 2.967 1.67 4.08l5.101 19.288c8.036 26.213 25.191 37.434 51.466 33.662-26.274 3.771-43.43-7.449-51.466-33.662.494 10.326-1.979 19.876-7.419 28.654-62.996 59.349-102.963 98.05-119.902 116.1 17.587 20.022 41.079 33.53 70.476 40.524l112.02-121.941-112.02 121.941 22.626 5.656c21.514-28.252 49.828-62.501 84.942-102.747 7.976-13.044 16.63-24.666 25.965-34.866 11.499-12.55 21.267-27.264 29.304-44.141-3.524-4.697-6.708-9.768-9.551-15.208 0-1.978.309-3.832.927-5.563-2.782-3.523-5.719-7.697-8.81-12.519-6.801-11.004-11.993-19.35-15.58-25.038-13.291-20.648-26.273-34.032-38.947-40.152 12.674 6.121 25.656 19.504 38.947 40.152 3.586 5.688 8.779 14.034 15.58 25.038 3.091 4.822 6.028 8.996 8.81 12.519 1.112-3.462 3.555-6.059 7.325-7.789 4.328-2.102 8.717-2.751 13.168-1.948 5.131-16.32 8.995-34.187 11.591-53.599 1.36-2.596 2.782-6.027 4.266-10.292a126.637 126.637 0 0 0 4.266-14.837 30.07 30.07 0 0 0 2.133-2.596c-4.142-7.109-7.882-14.188-11.22-21.236a176.603 176.603 0 0 1-12.334 24.388c-2.102 9.953-.865 17.155 3.709 21.606-4.574-4.451-5.811-11.653-3.709-21.606-6.8-2.164-12.117-6.15-15.949-11.962 3.833 5.812 9.149 9.798 15.949 11.962a176.603 176.603 0 0 0 12.334-24.388 174.94 174.94 0 0 1-3.709-7.696l-1.762-3.524c-3.215-6.058-5.966-11.715-8.253-16.97-6.367 14.714-12.92 26.614-19.658 35.701-5.811-.062-10.88-1.7-15.208-4.915 4.328 3.215 9.397 4.853 15.208 4.915 6.738-9.087 13.291-20.987 19.658-35.701a45.323 45.323 0 0 1-.834-1.947c-3.771-.804-6.893-2.535-9.366-5.192 2.473 2.658 5.595 4.388 9.366 5.192-1.607-3.957-2.999-7.696-4.173-11.22-1.237-5.564-.68-10.417 1.669-14.559 2.782-5.069 6.089-7.666 9.922-7.79L441.6 51.24c-4.513 4.513-9.521 8.531-15.023 12.055-6.305 9.768-13.354 18.236-21.143 25.408-2.597 12.612-6.306 22.998-11.127 31.158-4.575.556-9.521-.618-14.837-3.524 5.316 2.906 10.262 4.081 14.837 3.524 4.821-8.161 8.53-18.546 11.127-31.158 7.789-7.171 14.837-15.64 21.143-25.408 5.502-3.524 10.51-7.542 15.023-12.055l-2.968-6.307c-.124-11.065 3.987-16.32 12.333-15.764.124.247.309.433.556.557.68.742 1.329 1.545 1.947 2.411a10.492 10.492 0 0 0-.277-3.152 10.963 10.963 0 0 0-1.762-3.988c-3.338-3.029-7.017-4.698-11.036-5.007-11.313 4.822-20.833 11.097-28.561 18.824-9.212 7.542-17.187 15.703-23.925 24.481l-23.09 33.568a1409.639 1409.639 0 0 1-16.135 36.908 325.411 325.411 0 0 1-5.935 12.519c.062.556-.031.711-.278.463.433 11.746 2.288 20.432 5.564 26.058-3.276-5.625-5.131-14.312-5.564-26.058.247.248.34.093.278-.463-.186-.804-.834-2.659-1.947-5.564 2.225-7.976.618-20.617-4.822-37.928-5.565-17.25-14.313-24.452-26.244-21.608m115.543-18.454c-3.833-1.607-6.769-4.08-8.81-7.418 2.041 3.338 4.977 5.81 8.81 7.418m-21.235 25.965c-4.266-.247-8.068-1.824-11.407-4.729 3.339 2.905 7.141 4.482 11.407 4.729m55.452 55.546c-2.658-1.731-4.821-3.678-6.491-5.842 1.67 2.164 3.833 4.111 6.491 5.842m-76.966 66.21c9.273 16.878 12.858 35.732 10.757 56.566 2.101-20.834-1.484-39.688-10.757-56.566-9.15-16.876-18.268-27.51-27.355-31.899 9.087 4.389 18.205 15.023 27.355 31.899m-2.04-80.397c8.902 31.899 25.501 55.576 49.797 71.032-24.296-15.456-40.895-39.134-49.797-71.032m108.404-77.895l-.743-1.206c-1.299 2.288-3.617 4.42-6.955 6.399l-9.736-9.181c1.299-4.698 3.556-7.666 6.77-8.902a8.66 8.66 0 0 0-1.854-.927 5.068 5.068 0 0 0-.649-.278c-1.793-.495-3.863-.525-6.213-.093-1.978 2.102-3.307 4.544-3.988 7.326-.062.68-.123 1.329-.185 1.947a14.396 14.396 0 0 0 0 3.988c.185 1.792.619 3.616 1.299 5.471l11.868 16.136.464.649 24.481 33.754.65.742 2.782 5.008 28.56 50.075-28.56-50.075c-4.268 3.276-9.306 5.224-15.116 5.842 5.811-.618 10.849-2.565 15.116-5.842l-2.782-5.008-.65-.742c-4.08.927-7.667 2.782-10.757 5.564 3.09-2.782 6.677-4.637 10.757-5.564L478.97 73.494l-.464-.649c-1.483 2.719-4.05 4.451-7.695 5.192 3.646-.742 6.212-2.473 7.695-5.192l-11.868-16.136-2.041-4.543-2.596-5.193-1.391-3.06c-1.299 1.73-3.835 3.246-7.605 4.544l-8.623-11.499c.68-1.669 1.7-3.06 3.06-4.173.495-.433 1.855-1.452 4.08-3.06a1.22 1.22 0 0 1-.556-.557c-8.346-.556-12.458 4.699-12.333 15.764l2.968 6.307 2.596 5.471 1.02 1.762 7.789 12.425 2.041 3.432 12.332 19.937 3.246 5.286 5.658 9.181 9.921 16.135 7.883 11.406 1.762 2.689 15.578 41.543-15.578-41.543-1.762-2.689c-3.463 4.328-7.574 6.985-12.334 7.975 4.76-.99 8.871-3.647 12.334-7.975l-7.883-11.406-9.921-16.135-5.658-9.181c-1.545 2.102-4.111 3.987-7.695 5.656 3.584-1.669 6.15-3.555 7.695-5.656l-3.246-5.286-12.332-19.937c-1.36 2.906-4.235 5.039-8.625 6.398-2.843-3.215-6.089-8.006-9.737-14.373 1.546-4.514 4.39-7.141 8.531-7.882l-1.02-1.762c-3.833.124-7.141 2.72-9.922 7.79-2.349 4.142-2.906 8.995-1.669 14.559 1.174 3.524 2.565 7.264 4.173 11.22.247.619.525 1.268.834 1.947 2.288 5.255 5.039 10.912 8.253 16.97l1.762 3.524c.989-2.845 2.442-4.699 4.358-5.564-1.916.865-3.369 2.719-4.358 5.564a176.676 176.676 0 0 0 3.709 7.696c3.338 7.047 7.078 14.126 11.22 21.236.805 1.422 1.608 2.844 2.411 4.266 2.534 19.102 7.326 36.907 14.373 53.413l1.299 51.374-1.947 3.43c4.204 5.564 7.542 11.346 10.015 17.342 1.916 5.008 3.401 10.572 4.451 16.692-1.05-6.12-2.535-11.685-4.451-16.692-2.473-5.996-5.811-11.777-10.015-17.342-.494 2.165-1.454 3.246-2.874 3.246-1.547.062-2.969-.833-4.268-2.688.188 1.234.279 2.131.279 2.688 6.676 7.977 12.055 16.074 16.136 24.297-4.081-8.223-9.46-16.32-16.136-24.297 0-.557-.092-1.453-.279-2.688-.927-4.329-3.986-9.708-9.179-16.136-6.43-7.79-12.55-12.673-18.361-14.652a32.895 32.895 0 0 0-3.709-.928c-4.451-.803-8.841-.154-13.168 1.948-3.771 1.73-6.213 4.327-7.325 7.789-.619 1.731-.927 3.586-.927 5.563 2.844 5.44 6.027 10.511 9.551 15.208a113.729 113.729 0 0 0 12.797 14.374c5.75 5.81 10.417 11.652 14.001 17.526 2.846 8.902 6.12 16.32 9.83 22.256 11.188 12.61 23.028 19.968 35.517 22.068 12.736-5.067 23.893-2.781 33.476 6.863l74.093 97.739c37.307-10.13 69.886-26.761 97.739-49.891l-111.28-106.732c-13.354-18.052-22.535-49.117-27.543-93.195-6.182-16.939-13.385-34.744-21.605-53.413-1.422 2.102-3.029 3.307-4.822 3.617 1.793-.31 3.4-1.515 4.822-3.617a11.934 11.934 0 0 1-.649-1.577l-9.087-21.05-2.318-5.378-5.472 3.153 5.472-3.153-7.326-16.692c-1.051.99-3.431 1.236-7.14.742l-6.678-8.252c3.399-2.288 5.656-5.131 6.771-8.531l-.928-2.226c-4.204-.247-7.326.371-9.365 1.854-1.237 1.607-2.104 3.308-2.598 5.101a8.413 8.413 0 0 0-.464 2.226c0 1.731.341 3.4 1.021 5.008l18.825 26.984 1.854 2.69 19.474 49.981-19.474-49.981c-1.854 4.265-5.164 7.48-9.924 9.644 4.76-2.164 8.069-5.378 9.924-9.644l-1.854-2.69c-3.215.989-5.936 2.813-8.161 5.472 2.226-2.659 4.946-4.482 8.161-5.472l-18.825-26.984L504.1 78.5l-1.114-1.577-2.781-3.987-1.576-2.875c-2.659 3.338-5.349 5.409-8.068 6.213 2.72-.804 5.409-2.875 8.068-6.213l-9.737-17.896m-66.675 187.226c5.069-6.614 11.499-10.324 19.288-11.128l7.326 13.631c-4.081 5.687-9.706 8.871-16.877 9.552l-9.737-12.055m90.321-13.169c10.262-4.019 14.96-11.715 14.094-23.09.866 11.375-3.832 19.071-14.094 23.09m-16.6 75.762c22.194 9.024 41.173 13.011 56.938 11.961-15.765 1.05-34.743-2.936-56.938-11.961m-7.79-169.328c-2.41.927-4.296 2.535-5.656 4.822 1.361-2.288 3.246-3.895 5.656-4.822m69.272 63.985c5.254-7.913 6.305-14.745 3.151-20.494 3.154 5.749 2.103 12.581-3.151 20.494m-22.719 9.179c9.458-3.152 13.384-9.551 11.775-19.194 1.609 9.644-2.317 16.042-11.775 19.194m-93.196 22.443c-7.789.804-14.219 4.514-19.288 11.128l9.737 12.055c7.171-.681 12.797-3.865 16.877-9.552l-7.326-13.631m-4.822-161.91c3.647 6.367 6.894 11.158 9.737 14.373 4.389-1.36 7.264-3.493 8.625-6.398l-2.041-3.432-7.789-12.425c-4.143.741-6.986 3.368-8.532 7.882m41.544-27.078c-3.214 1.236-5.471 4.204-6.77 8.902l9.736 9.181c3.338-1.979 5.656-4.111 6.955-6.399l-9.921-11.684m-11.591 17.433c-.68-1.854-1.114-3.679-1.299-5.471-.246.309-.494.618-.742.927l2.041 4.544m-13.169-24.573a25.554 25.554 0 0 0-1.947-2.411c-2.225 1.607-3.585 2.627-4.08 3.06-1.36 1.113-2.38 2.504-3.06 4.173l8.623 11.499c3.771-1.299 6.307-2.814 7.605-4.544l-.187-.186c-2.224-4.575-4.542-8.438-6.954-11.591m26.429-.742c2.041-5.625 2.133-10.448.278-14.466-4.575-2.968-9.088-3.431-13.538-1.391L453.19 28.982c.248.989.339 2.039.277 3.152 2.412 3.153 4.73 7.016 6.955 11.591l.187.186 1.391 3.06 2.596 5.193.742-.927a14.396 14.396 0 0 1 0-3.988c.062-.618.123-1.267.185-1.947a16.126 16.126 0 0 1 3.988-7.326c2.35-.432 4.42-.401 6.213.093a56.35 56.35 0 0 0 4.172-6.676M309.177 84.342c-.742 4.204-.989 8.161-.742 11.87.248 3.647 1.083 8.469 2.504 14.466 6.615 1.36 12.458.896 17.527-1.391.494-2.843.711-5.131.648-6.862-.185-2.102-.834-4.76-1.947-7.975-1.36-3.833-3.462-6.614-6.306-8.346-2.905-1.668-6.8-2.256-11.684-1.762M519.029 70.34c-1.114 3.4-3.371 6.244-6.771 8.531l6.678 8.252c3.709.495 6.089.248 7.14-.742l-7.047-16.041m-30.881-19.381l.743 1.206c.123-.68.31-1.391.556-2.133.433-11.499-3.927-15.393-13.075-11.684a8.66 8.66 0 0 1 1.854.927l9.922 11.684z"/><path fill="none" stroke="#4F3222" stroke-linecap="round" stroke-linejoin="round" d="M476.372 38.348a8.66 8.66 0 0 1 1.854.927l9.922 11.684.743 1.206c.123-.68.31-1.391.556-2.133.433-11.499-3.926-15.393-13.075-11.684a5.068 5.068 0 0 0-.649-.278c-1.793-.495-3.863-.525-6.213-.093-1.978 2.102-3.307 4.544-3.988 7.326-.062.68-.123 1.329-.185 1.947a14.396 14.396 0 0 0 0 3.988c.185 1.792.619 3.616 1.299 5.471l11.868 16.136.464.649 24.481 33.754.65.742 2.782 5.008 28.56 50.075M488.892 52.165l9.736 17.897 1.576 2.875 2.781 3.987L504.1 78.5l2.596 3.802a12.726 12.726 0 0 1-1.021-5.008 8.422 8.422 0 0 1 .464-2.226c.494-1.792 1.36-3.493 2.598-5.101 2.039-1.483 5.161-2.102 9.365-1.854l.928 2.226 7.047 16.042 7.326 16.692 2.318 5.378 9.087 21.05c.187.557.401 1.083.649 1.577 8.221 18.669 15.424 36.474 21.605 53.413 5.008 44.078 14.188 75.144 27.543 93.195l111.277 106.733m-97.738 49.893l-74.093-97.739c-9.583-9.645-20.739-11.931-33.476-6.863-12.488-2.101-24.328-9.458-35.517-22.068-3.71-5.936-6.984-13.354-9.83-22.256-3.584-5.874-8.252-11.717-14.001-17.526a113.729 113.729 0 0 1-12.797-14.374c-8.037 16.877-17.805 31.591-29.304 44.141-9.335 10.2-17.989 21.822-25.965 34.866-35.114 40.246-63.428 74.495-84.942 102.747m-93.102-46.182c16.939-18.05 56.907-56.751 119.902-116.1 5.44-8.778 7.913-18.328 7.419-28.654l-5.101-19.288c-.618-1.113-1.174-2.473-1.67-4.08-.989-3.153-1.607-7.141-1.854-11.963-.123-9.334-.525-16.939-1.205-22.812v-29.768l-1.855-17.341-.556-4.821c-.557-4.761-.773-9.304-.649-13.632.124-4.636.587-7.944 1.391-9.922-1.421-5.997-2.256-10.819-2.504-14.466-.247-3.709 0-7.667.742-11.87.124-1.05.31-2.102.557-3.152 11.931-2.844 20.679 4.358 26.243 21.606 5.44 17.311 7.047 29.952 4.822 37.928 1.113 2.905 1.761 4.76 1.947 5.564a324.704 324.704 0 0 0 5.935-12.519 1413.014 1413.014 0 0 0 16.135-36.908l23.09-33.568c6.738-8.779 14.713-16.939 23.925-24.481 7.728-7.728 17.249-14.002 28.561-18.824 4.019.309 7.697 1.978 11.036 5.007a10.98 10.98 0 0 1 1.762 3.988l13.446-13.446c4.45-2.04 8.963-1.577 13.538 1.391 1.854 4.018 1.763 8.84-.278 14.466a56.193 56.193 0 0 1-4.173 6.677m43.306 32.27c-1.114 3.4-3.371 6.244-6.771 8.531l6.678 8.252c3.709.495 6.089.248 7.14-.742m-19.381-4.078l18.825 26.984 1.854 2.69 19.474 49.981m-80.212-105.25l-2.041-4.543-2.596-5.193-1.391-3.06c-1.299 1.73-3.835 3.246-7.605 4.544l-8.623-11.499c.68-1.669 1.7-3.06 3.06-4.173.495-.433 1.855-1.452 4.08-3.06a1.22 1.22 0 0 1-.556-.557c-8.346-.556-12.458 4.699-12.333 15.764l2.968 6.307 2.596 5.471 1.02 1.762 7.789 12.425 2.041 3.432 12.332 19.937 3.246 5.286 5.658 9.181 9.921 16.135 7.883 11.406 1.762 2.689 15.578 41.543m-200.486-69.827c6.615 1.36 12.458.896 17.527-1.391.494-2.843.711-5.131.648-6.862-.185-2.102-.834-4.76-1.947-7.975-1.36-3.833-3.462-6.614-6.306-8.346-2.906-1.669-6.801-2.257-11.685-1.762M451.52 29.724c.68.742 1.329 1.545 1.947 2.411a10.492 10.492 0 0 0-.277-3.152m.277 3.152c2.412 3.153 4.73 7.016 6.955 11.591l.187.186m4.728 7.326c-.246.309-.494.618-.742.927m13.632-12.89c-3.214 1.236-5.471 4.204-6.77 8.902l9.736 9.181c3.338-1.979 5.656-4.111 6.955-6.399m-42.934 7.512c-4.142.742-6.985 3.369-8.531 7.882 3.647 6.367 6.894 11.158 9.737 14.373 4.389-1.36 7.264-3.493 8.625-6.398m-18.269 15.949c-1.607-3.957-2.999-7.696-4.173-11.22-1.237-5.564-.68-10.417 1.669-14.559 2.782-5.069 6.089-7.666 9.922-7.79m-26.242 71.218c6.738-9.087 13.291-20.987 19.658-35.701a45.323 45.323 0 0 1-.834-1.947m4.822-39.04c-4.513 4.513-9.521 8.531-15.023 12.055-6.305 9.768-13.354 18.236-21.143 25.408-2.597 12.612-6.306 22.998-11.127 31.158m25.501 112.854c1.112-3.462 3.555-6.059 7.325-7.789 4.328-2.102 8.717-2.751 13.168-1.948 5.131-16.32 8.995-34.187 11.591-53.599 1.36-2.596 2.782-6.027 4.266-10.292a126.637 126.637 0 0 0 4.266-14.837 30.07 30.07 0 0 0 2.133-2.596c-4.142-7.109-7.882-14.188-11.22-21.236a176.603 176.603 0 0 1-12.334 24.388m-96.255 1.484c.062.556-.031.711-.278.463.433 11.746 2.288 20.432 5.564 26.058m92.268 50.167c1.298.249 2.534.557 3.709.928 5.811 1.979 11.932 6.862 18.361 14.652 5.192 6.428 8.252 11.807 9.179 16.136 1.299 1.854 2.721 2.749 4.268 2.688 1.42 0 2.38-1.081 2.874-3.246l1.947-3.43-1.299-51.374c-7.047-16.506-11.839-34.311-14.373-53.413-.803-1.422-1.606-2.844-2.411-4.266m-11.22-21.236a174.94 174.94 0 0 1-3.709-7.696l-1.762-3.524c-3.215-6.058-5.966-11.715-8.253-16.97m-9.181 161.259c-3.524-4.697-6.708-9.768-9.551-15.208 0-1.978.309-3.832.927-5.563m12.148 18.732c7.171-.681 12.797-3.865 16.877-9.552l-7.326-13.631c-7.789.804-14.219 4.514-19.288 11.128l9.737 12.055zm39.595 3.246c.188 1.234.279 2.131.279 2.688m-149.39-13.075c8.036 26.213 25.191 37.434 51.466 33.662"/><path fill="none" stroke="#AE6F4D" stroke-linecap="round" stroke-linejoin="round" d="M310.753 139.054c7.976 1.731 15.301 1.731 21.978 0m104.045-48.777c-3.771-.804-6.893-2.535-9.366-5.192m-33.105 34.774c-4.575.556-9.521-.618-14.837-3.524m45.809-53.599c-3.833-1.607-6.769-4.08-8.81-7.418m-12.425 33.383c-4.266-.247-8.068-1.824-11.407-4.729m46.366 60.831c-2.102 9.953-.865 17.155 3.709 21.606m16.784-22.162c-2.658-1.731-4.821-3.678-6.491-5.842m-29.951-5.564c3.833 5.812 9.149 9.798 15.949 11.962m-21.049-16.877c-5.811-.062-10.88-1.7-15.208-4.915"/><path fill="none" stroke="#C5967C" stroke-linecap="round" stroke-linejoin="round" d="M498.628 70.062c-2.659 3.338-5.349 5.409-8.068 6.213m54.897 54.804c-1.422 2.102-3.029 3.307-4.822 3.617m-48.869-15.858c5.811-.618 10.849-2.565 15.116-5.842m-3.433-5.749c-4.08.927-7.667 2.782-10.757 5.564m34.683-.834c-1.854 4.265-5.164 7.48-9.924 9.644m8.07-12.334c-3.215.989-5.936 2.813-8.161 5.472m10.571-8.531l5.472-3.153m-62.594-25.038c3.646-.742 6.212-2.473 7.695-5.192M356.47 155.004c12.674 6.121 25.656 19.504 38.947 40.152 3.586 5.688 8.779 14.034 15.58 25.038 3.091 4.822 6.028 8.996 8.81 12.519m27.818-119.994c.989-2.845 2.442-4.699 4.358-5.564m18.639-7.604c-1.545 2.102-4.111 3.987-7.695 5.656m8.901 152.172c6.676 7.977 12.055 16.074 16.136 24.297M355.172 178.558c9.087 4.389 18.206 15.022 27.355 31.899 9.273 16.878 12.858 35.732 10.757 56.566m-15.671 40.618l-112.02 121.941m246.945-203.36c10.262-4.019 14.96-11.715 14.094-23.09m-30.694 98.852c22.194 9.024 41.173 13.011 56.938 11.961m-74.186-59.812c4.204 5.564 7.542 11.346 10.015 17.342 1.916 5.008 3.401 10.572 4.451 16.692m.928-151.895c-3.463 4.328-7.574 6.985-12.334 7.975m6.398-11.591c-2.41.927-4.296 2.535-5.656 4.822m74.928 59.163c5.254-7.913 6.305-14.745 3.151-20.494m-25.87 29.673c9.458-3.152 13.384-9.551 11.775-19.194M380.488 130.06c8.902 31.899 25.501 55.576 49.797 71.032"/></svg>