
<svg xmlns="http://www.w3.org/2000/svg" version="1.1" xmlns:xlink="http://www.w3.org/1999/xlink" preserveAspectRatio="none" x="0px" y="0px" width="285px" height="427px" viewBox="0 0 285 427">
<defs>
<radialGradient id="Gradient_1" gradientUnits="userSpaceOnUse" cx="0" cy="0" r="3.6113103577510586" fx="0" fy="0" gradientTransform="matrix( 0.9657159464333159, -0.25960106086917095, 0.33575070539079443, 1.2495464396502762, 278,319.45) " spreadMethod="pad">
<stop  offset="0%" stop-color="#111111"/>

<stop  offset="54.90196078431372%" stop-color="#1A1A1A"/>

<stop  offset="100%" stop-color="#000000"/>
</radialGradient>

<radialGradient id="Gradient_2" gradientUnits="userSpaceOnUse" cx="0" cy="0" r="3.6113103577510484" fx="0" fy="0" gradientTransform="matrix( 0.9657159464333186, 0.2596010608691717, -0.3357507053907954, 1.2495464396502796, 7.1,323.55) " spreadMethod="pad">
<stop  offset="0%" stop-color="#111111"/>

<stop  offset="54.90196078431372%" stop-color="#1A1A1A"/>

<stop  offset="100%" stop-color="#000000"/>
</radialGradient>

<radialGradient id="Gradient_3" gradientUnits="userSpaceOnUse" cx="0" cy="0" r="4.662499999999994" fx="0" fy="0" gradientTransform="matrix( 1.0000000000000013, 0, 0, 1.0000000000000013, 118.15,179.9) " spreadMethod="pad">
<stop  offset="0%" stop-color="#111111"/>

<stop  offset="54.90196078431372%" stop-color="#1A1A1A"/>

<stop  offset="100%" stop-color="#000000"/>
</radialGradient>

<radialGradient id="Gradient_4" gradientUnits="userSpaceOnUse" cx="0" cy="0" r="4.662499999999994" fx="0" fy="0" gradientTransform="matrix( 1.0000000000000013, 0, 0, 1.0000000000000013, 160.35,284.4) " spreadMethod="pad">
<stop  offset="0%" stop-color="#111111"/>

<stop  offset="54.90196078431372%" stop-color="#1A1A1A"/>

<stop  offset="100%" stop-color="#000000"/>
</radialGradient>

<radialGradient id="Gradient_5" gradientUnits="userSpaceOnUse" cx="0" cy="0" r="4.662499999999994" fx="0" fy="0" gradientTransform="matrix( 1.0000000000000013, 0, 0, 1.0000000000000013, 119.8,283.15) " spreadMethod="pad">
<stop  offset="0%" stop-color="#111111"/>

<stop  offset="54.90196078431372%" stop-color="#1A1A1A"/>

<stop  offset="100%" stop-color="#000000"/>
</radialGradient>

<radialGradient id="Gradient_6" gradientUnits="userSpaceOnUse" cx="0" cy="0" r="4.662499999999994" fx="0" fy="0" gradientTransform="matrix( 1.0000000000000013, 0, 0, 1.0000000000000013, 121.05,230.2) " spreadMethod="pad">
<stop  offset="0%" stop-color="#111111"/>

<stop  offset="54.90196078431372%" stop-color="#1A1A1A"/>

<stop  offset="100%" stop-color="#000000"/>
</radialGradient>

<radialGradient id="Gradient_7" gradientUnits="userSpaceOnUse" cx="0" cy="0" r="4.662499999999994" fx="0" fy="0" gradientTransform="matrix( 1.0000000000000013, 0, 0, 1.0000000000000013, 160.35,232.4) " spreadMethod="pad">
<stop  offset="0%" stop-color="#111111"/>

<stop  offset="54.90196078431372%" stop-color="#1A1A1A"/>

<stop  offset="100%" stop-color="#000000"/>
</radialGradient>

<radialGradient id="Gradient_8" gradientUnits="userSpaceOnUse" cx="0" cy="0" r="4.662499999999994" fx="0" fy="0" gradientTransform="matrix( 1.0000000000000013, 0, 0, 1.0000000000000013, 164.05,178.05) " spreadMethod="pad">
<stop  offset="0%" stop-color="#111111"/>

<stop  offset="54.90196078431372%" stop-color="#1A1A1A"/>

<stop  offset="100%" stop-color="#000000"/>
</radialGradient>

<g id="Layer0_0_FILL">
<path fill="#9A6243" stroke="none" d="
M 279.95 333.25
L 278.1 326.75
Q 260.85 333.45 241.3 336.8
L 243.35 342.75
Q 261.85 339.3 279.95 333.25
M 239 337.4
L 241.3 336.8
Q 260.85 333.45 278.1 326.75
L 281.75 325.75
Q 281.4 324.15 281 322.55 280.3 323.55 279.2 323.85 277.75 324.2 276.4 323.25 275.1 322.2 274.6 320.35 274.1 318.5 274.7 316.95 275.4 315.3 276.8 314.95 277.55 314.8 278.45 315 277.9 313.8 277.35 312.6
L 274.7 313.25 235 322.7
Q 235.75 330.05 239 337.4
M 6.85 331.15
L 4.9 338.15 38.05 345.2 40 339.2
Q 22.95 336.25 6.85 331.15
M 41.75 339.4
L 46.15 325
Q 27.45 321.65 9.2 316.4
L 6.3 315.8 5.5 319.85
Q 6.95 318.75 8.35 319.1 9.75 319.5 10.4 321.15 11.05 322.7 10.55 324.5 10.05 326.4 8.7 327.45 7.4 328.4 5.9 328.05 4.75 327.75 4.1 326.6
L 3.35 330.05
Q 5.05 330.6 6.85 331.15 22.95 336.25 40 339.2 40.9 339.3 41.75 339.4 Z"/>

<path fill="url(#Gradient_1)" stroke="none" d="
M 278.45 315
Q 277.55 314.8 276.8 314.95 275.4 315.3 274.7 316.95 274.1 318.5 274.6 320.35 275.1 322.2 276.4 323.25 277.75 324.2 279.2 323.85 280.3 323.55 281 322.55 281.15 322.25 281.35 321.9 281.95 320.35 281.45 318.5 281 316.65 279.65 315.65 279.05 315.2 278.45 315 Z"/>

<path fill="url(#Gradient_2)" stroke="none" d="
M 10.4 321.15
Q 9.75 319.5 8.35 319.1 6.95 318.75 5.5 319.85
L 5.5 319.9
Q 4.15 320.85 3.65 322.7 3.2 324.5 3.8 326.05 3.9 326.35 4.1 326.6 4.75 327.75 5.9 328.05 7.4 328.4 8.7 327.45 10.05 326.4 10.55 324.5 11.05 322.7 10.4 321.15 Z"/>

<path fill="#AF765E" stroke="none" d="
M 79.6 148.3
Q 71.45 148.5 71.95 142.9 80.05 133.25 81 122.4 67.6 128.55 61 147.2
L 36.05 217.55 9.2 316.4
Q 27.45 321.65 46.15 325
L 73.65 231.4
Q 74.15 205.35 81.3 173.65 74.15 205.35 73.65 231.4
L 75.55 275.6 101.7 275.2 75.55 275.6 70.3 343.15
Q 85.9 347.25 107.55 349 107 294.35 109.9 237.85 109.2 227.7 113 217.6 113.35 216.75 113.65 215.95 113.65 215.9 113.7 215.9 113.7 215.8 113.7 215.75 116 210.35 119.6 205
L 119.6 204.95
Q 119.65 204.8 119.7 204.7
L 130.65 186
Q 121.8 176.25 110.35 166.55 118.95 158.4 126.4 147.35
L 123.65 143.2
Q 114.55 140.25 108.45 144.3 108.35 144.4 108.3 144.45 107.9 144.5 107.55 144.6 91.4 148.05 79.6 148.3
M 118.2 184.55
Q 116.3 184.55 114.9 183.15 113.55 181.8 113.55 179.9 113.55 178.05 114.9 176.7 116.3 175.3 118.2 175.3 120.1 175.3 121.4 176.7 122.8 178.05 122.8 179.9 122.8 181.8 121.4 183.15 120.1 184.55 118.2 184.55
M 216.95 133.05
L 214.95 130.95 213.3 132.45
Q 216.7 140.95 207.15 144.3
L 177.3 142.9 176.7 143.35
Q 179.05 146.45 181.85 150.45
L 172.95 155.05
Q 169.85 148.3 164.7 142.15
L 164.1 142.45 162.05 143.45 173.9 167.95
Q 139 182.9 121.85 206.35 118.2 211.25 116.45 217.15
L 113 217.6
Q 109.2 227.7 109.9 237.85 107 294.35 107.55 349 163.8 351.85 209.05 342.2
L 205.4 275.3 175.8 273.7 205.4 275.3 209.35 232.3
Q 207 209.6 202.3 185.65
L 201.4 162.25 202.3 185.65
Q 207 209.6 209.35 232.3
L 235 322.7 274.7 313.25 274.45 312.1 265.9 277.1
Q 243.25 204.5 216.95 133.05
M 167.3 181.3
Q 165.95 182.65 164.1 182.65 162.15 182.65 160.8 181.3 159.45 180 159.45 178.1 159.45 176.15 160.8 174.8 162.15 173.45 164.1 173.45 165.95 173.45 167.3 174.8 168.65 176.15 168.65 178.1 168.65 180 167.3 181.3
M 157.15 235.65
Q 155.75 234.3 155.75 232.45 155.75 230.5 157.15 229.15 158.5 227.8 160.35 227.8 162.25 227.8 163.65 229.15 165 230.5 165 232.45 165 234.3 163.65 235.65 162.25 237 160.35 237 158.5 237 157.15 235.65
M 125.7 230.25
Q 125.7 232.2 124.35 233.55 123 234.85 121.05 234.85 119.15 234.85 117.85 233.55 116.5 232.2 116.5 230.25 116.5 228.35 117.85 227 119.15 225.7 121.05 225.7 123 225.7 124.35 227 125.7 228.35 125.7 230.25
M 116.6 279.95
Q 117.95 278.65 119.85 278.65 121.7 278.65 123.1 279.95 124.45 281.3 124.45 283.2 124.45 285.1 123.1 286.5 121.7 287.8 119.85 287.8 117.95 287.8 116.6 286.5 115.2 285.1 115.2 283.2 115.2 281.3 116.6 279.95
M 157.15 287.7
Q 155.75 286.35 155.75 284.4 155.75 282.5 157.15 281.2 158.5 279.85 160.35 279.85 162.25 279.85 163.65 281.2 165 282.5 165 284.4 165 286.35 163.65 287.7 162.25 289.05 160.35 289.05 158.5 289.05 157.15 287.7 Z"/>

<path fill="url(#Gradient_3)" stroke="none" d="
M 114.9 183.15
Q 116.3 184.55 118.2 184.55 120.1 184.55 121.4 183.15 122.8 181.8 122.8 179.9 122.8 178.05 121.4 176.7 120.1 175.3 118.2 175.3 116.3 175.3 114.9 176.7 113.55 178.05 113.55 179.9 113.55 181.8 114.9 183.15 Z"/>

<path fill="#935942" stroke="none" d="
M 146.75 83.45
Q 133.25 82.35 130.1 84.6 116.45 91.3 121.3 121.25
L 127.7 141.7 141.55 167.4 149.45 154
Q 153.8 147.35 156.8 140.8 165.85 120.4 162.05 100.55 160.25 84.5 146.75 83.45 Z"/>

<path fill="#6A402F" stroke="none" d="
M 207.15 144.3
Q 216.7 140.95 213.3 132.45
L 205.85 121.4
Q 201.1 109.15 191.55 102.4
L 170.35 87.95
Q 159.1 79.7 150.7 78.7 142.25 77.75 141.7 77.85 141.1 77.85 140.65 77.95 133.1 78.1 126.9 79.65 126.85 79.65 126.8 79.65 126.7 79.65 126.65 79.7 126.6 79.7 126.55 79.7 126.4 79.7 126.35 79.75 118.5 81.8 112.8 85.95
L 92.95 101
Q 86.2 106.95 81 122.4 80.05 133.25 71.95 142.9 71.45 148.5 79.6 148.3 91.4 148.05 107.55 144.6 107.9 144.5 108.3 144.45 108.35 144.4 108.45 144.3 114.55 140.25 123.65 143.2
L 126.4 147.35
Q 118.95 158.4 110.35 166.55 121.8 176.25 130.65 186
L 141.55 167.4 127.7 141.7 121.3 121.25
Q 116.45 91.3 130.1 84.6 133.25 82.35 146.75 83.45 160.25 84.5 162.05 100.55 165.85 120.4 156.8 140.8 153.8 147.35 149.45 154
L 141.55 167.4 130.65 186 119.7 204.7
Q 119.65 204.8 119.6 204.95
L 119.6 205
Q 116 210.35 113.7 215.75 113.7 215.8 113.7 215.9 113.65 215.9 113.65 215.95 113.35 216.75 113 217.6
L 116.45 217.15
Q 118.2 211.25 121.85 206.35 139 182.9 173.9 167.95
L 162.05 143.45 162 143.4 164.1 142.45 164.7 142.15
Q 169.85 148.3 172.95 155.05
L 181.85 150.45
Q 179.05 146.45 176.7 143.35 176.6 143.35 176.6 143.3 173.05 138.55 170.4 135.85 173.05 138.55 176.6 143.3 176.6 143.35 176.7 143.35
L 177.3 142.9 207.15 144.3 Z"/>

<path fill="url(#Gradient_4)" stroke="none" d="
M 155.75 284.4
Q 155.75 286.35 157.15 287.7 158.5 289.05 160.35 289.05 162.25 289.05 163.65 287.7 165 286.35 165 284.4 165 282.5 163.65 281.2 162.25 279.85 160.35 279.85 158.5 279.85 157.15 281.2 155.75 282.5 155.75 284.4 Z"/>

<path fill="url(#Gradient_5)" stroke="none" d="
M 119.85 278.65
Q 117.95 278.65 116.6 279.95 115.2 281.3 115.2 283.2 115.2 285.1 116.6 286.5 117.95 287.8 119.85 287.8 121.7 287.8 123.1 286.5 124.45 285.1 124.45 283.2 124.45 281.3 123.1 279.95 121.7 278.65 119.85 278.65 Z"/>

<path fill="url(#Gradient_6)" stroke="none" d="
M 124.35 233.55
Q 125.7 232.2 125.7 230.25 125.7 228.35 124.35 227 123 225.7 121.05 225.7 119.15 225.7 117.85 227 116.5 228.35 116.5 230.25 116.5 232.2 117.85 233.55 119.15 234.85 121.05 234.85 123 234.85 124.35 233.55 Z"/>

<path fill="url(#Gradient_7)" stroke="none" d="
M 155.75 232.45
Q 155.75 234.3 157.15 235.65 158.5 237 160.35 237 162.25 237 163.65 235.65 165 234.3 165 232.45 165 230.5 163.65 229.15 162.25 227.8 160.35 227.8 158.5 227.8 157.15 229.15 155.75 230.5 155.75 232.45 Z"/>

<path fill="url(#Gradient_8)" stroke="none" d="
M 164.1 182.65
Q 165.95 182.65 167.3 181.3 168.65 180 168.65 178.1 168.65 176.15 167.3 174.8 165.95 173.45 164.1 173.45 162.15 173.45 160.8 174.8 159.45 176.15 159.45 178.1 159.45 180 160.8 181.3 162.15 182.65 164.1 182.65 Z"/>
</g>

<path id="Layer0_0_1_STROKES" stroke="#1F140E" stroke-width="1.5" stroke-linejoin="round" stroke-linecap="round" fill="none" d="
M 214.95 130.95
L 216.95 133.05
Q 243.25 204.5 265.9 277.1
L 274.45 312.1
M 274.7 313.25
L 277.35 312.6
Q 277.9 313.8 278.45 315 279.05 315.2 279.65 315.65 281 316.65 281.45 318.5 281.95 320.35 281.35 321.9 281.15 322.25 281 322.55 281.4 324.15 281.75 325.75
L 278.1 326.75 279.95 333.25
Q 261.85 339.3 243.35 342.75
L 241.3 336.8 239 337.4
Q 235.75 330.05 235 322.7
L 209.35 232.3 205.4 275.3 209.05 342.2
Q 163.8 351.85 107.55 349 85.9 347.25 70.3 343.15
L 75.55 275.6 73.65 231.4 46.15 325 41.75 339.4
Q 40.9 339.3 40 339.2
L 38.05 345.2 4.9 338.15 6.85 331.15
Q 5.05 330.6 3.35 330.05
L 4.1 326.6
Q 3.9 326.35 3.8 326.05 3.2 324.5 3.65 322.7 4.15 320.85 5.5 319.9
L 5.5 319.85 6.3 315.8 9.2 316.4 36.05 217.55 61 147.2
Q 67.6 128.55 81 122.4 86.2 106.95 92.95 101
L 112.8 85.95
Q 118.5 81.8 126.35 79.75 126.4 79.7 126.55 79.7 126.6 79.7 126.65 79.7 126.7 79.65 126.8 79.65 126.85 79.65 126.9 79.65 133.1 78.1 140.65 77.95 141.1 77.85 141.7 77.85 142.25 77.75 150.7 78.7 159.1 79.7 170.35 87.95
L 191.55 102.4
Q 201.1 109.15 205.85 121.4
L 214.95 130.95
M 213.3 132.45
Q 216.7 140.95 207.15 144.3
L 177.3 142.9
M 176.7 143.35
Q 179.05 146.45 181.85 150.45
L 172.95 155.05
Q 169.85 148.3 164.7 142.15
L 164.1 142.45
M 162.05 143.45
L 173.9 167.95
Q 139 182.9 121.85 206.35 118.2 211.25 116.45 217.15
M 113 217.6
Q 109.2 227.7 109.9 237.85 107 294.35 107.55 349
M 213.3 132.45
L 205.85 121.4
M 162.05 143.45
L 162 143.4 164.1 142.45
M 176.7 143.35
Q 176.6 143.35 176.6 143.3 173.05 138.55 170.4 135.85
M 209.35 232.3
Q 207 209.6 202.3 185.65
L 201.4 162.25
M 164.1 173.45
Q 165.95 173.45 167.3 174.8 168.65 176.15 168.65 178.1 168.65 180 167.3 181.3 165.95 182.65 164.1 182.65 162.15 182.65 160.8 181.3 159.45 180 159.45 178.1 159.45 176.15 160.8 174.8 162.15 173.45 164.1 173.45 Z
M 141.55 167.4
L 127.7 141.7 121.3 121.25
Q 116.45 91.3 130.1 84.6 133.25 82.35 146.75 83.45 160.25 84.5 162.05 100.55 165.85 120.4 156.8 140.8 153.8 147.35 149.45 154
L 141.55 167.4 130.65 186 119.7 204.7
Q 119.65 204.8 119.6 204.95
L 119.6 205
Q 116 210.35 113.7 215.75 113.7 215.8 113.7 215.9 113.65 215.9 113.65 215.95 113.35 216.75 113 217.6
M 81 122.4
Q 80.05 133.25 71.95 142.9 71.45 148.5 79.6 148.3 91.4 148.05 107.55 144.6 107.9 144.5 108.3 144.45 108.35 144.4 108.45 144.3 114.55 140.25 123.65 143.2
L 126.4 147.35
Q 118.95 158.4 110.35 166.55 121.8 176.25 130.65 186
M 114.9 176.7
Q 116.3 175.3 118.2 175.3 120.1 175.3 121.4 176.7 122.8 178.05 122.8 179.9 122.8 181.8 121.4 183.15 120.1 184.55 118.2 184.55 116.3 184.55 114.9 183.15 113.55 181.8 113.55 179.9 113.55 178.05 114.9 176.7 Z
M 160.35 227.8
Q 162.25 227.8 163.65 229.15 165 230.5 165 232.45 165 234.3 163.65 235.65 162.25 237 160.35 237 158.5 237 157.15 235.65 155.75 234.3 155.75 232.45 155.75 230.5 157.15 229.15 158.5 227.8 160.35 227.8 Z
M 116.5 230.25
Q 116.5 228.35 117.85 227 119.15 225.7 121.05 225.7 123 225.7 124.35 227 125.7 228.35 125.7 230.25 125.7 232.2 124.35 233.55 123 234.85 121.05 234.85 119.15 234.85 117.85 233.55 116.5 232.2 116.5 230.25 Z
M 119.85 287.8
Q 117.95 287.8 116.6 286.5 115.2 285.1 115.2 283.2 115.2 281.3 116.6 279.95 117.95 278.65 119.85 278.65 121.7 278.65 123.1 279.95 124.45 281.3 124.45 283.2 124.45 285.1 123.1 286.5 121.7 287.8 119.85 287.8 Z
M 160.35 289.05
Q 158.5 289.05 157.15 287.7 155.75 286.35 155.75 284.4 155.75 282.5 157.15 281.2 158.5 279.85 160.35 279.85 162.25 279.85 163.65 281.2 165 282.5 165 284.4 165 286.35 163.65 287.7 162.25 289.05 160.35 289.05 Z
M 5.5 319.85
Q 6.95 318.75 8.35 319.1 9.75 319.5 10.4 321.15 11.05 322.7 10.55 324.5 10.05 326.4 8.7 327.45 7.4 328.4 5.9 328.05 4.75 327.75 4.1 326.6
M 40 339.2
Q 22.95 336.25 6.85 331.15
M 9.2 316.4
Q 27.45 321.65 46.15 325
M 75.55 275.6
L 101.7 275.2
M 205.4 275.3
L 175.8 273.7
M 281 322.55
Q 280.3 323.55 279.2 323.85 277.75 324.2 276.4 323.25 275.1 322.2 274.6 320.35 274.1 318.5 274.7 316.95 275.4 315.3 276.8 314.95 277.55 314.8 278.45 315
M 274.7 313.25
L 235 322.7
M 278.1 326.75
Q 260.85 333.45 241.3 336.8
M 73.65 231.4
Q 74.15 205.35 81.3 173.65"/>
</defs>

<g transform="matrix( 1, 0, 0, 1, 0,0) ">
<use xlink:href="#Layer0_0_FILL"/>

<use xlink:href="#Layer0_0_1_STROKES"/>
</g>
</svg>
