<svg xmlns="http://www.w3.org/2000/svg" xmlns:xlink="http://www.w3.org/1999/xlink" preserveAspectRatio="none" width="285" height="427" viewBox="0 0 285 427"><defs><radialGradient id="a" gradientUnits="userSpaceOnUse" cx="0" cy="0" r="3.611" fx="0" fy="0" gradientTransform="matrix(.96572 -.2596 .33575 1.24955 278 319.45)" spreadMethod="pad"><stop offset="0%" stop-color="#111"/><stop offset="54.902%" stop-color="#1A1A1A"/><stop offset="100%"/></radialGradient><radialGradient id="b" gradientUnits="userSpaceOnUse" cx="0" cy="0" r="3.611" fx="0" fy="0" gradientTransform="matrix(.96572 .2596 -.33575 1.24955 7.1 323.55)" spreadMethod="pad"><stop offset="0%" stop-color="#111"/><stop offset="54.902%" stop-color="#1A1A1A"/><stop offset="100%"/></radialGradient><radialGradient id="c" gradientUnits="userSpaceOnUse" cx="0" cy="0" r="4.662" fx="0" fy="0" gradientTransform="translate(118.15 179.9)" spreadMethod="pad"><stop offset="0%" stop-color="#111"/><stop offset="54.902%" stop-color="#1A1A1A"/><stop offset="100%"/></radialGradient><radialGradient id="d" gradientUnits="userSpaceOnUse" cx="0" cy="0" r="4.662" fx="0" fy="0" gradientTransform="translate(160.35 284.4)" spreadMethod="pad"><stop offset="0%" stop-color="#111"/><stop offset="54.902%" stop-color="#1A1A1A"/><stop offset="100%"/></radialGradient><radialGradient id="e" gradientUnits="userSpaceOnUse" cx="0" cy="0" r="4.662" fx="0" fy="0" gradientTransform="translate(119.8 283.15)" spreadMethod="pad"><stop offset="0%" stop-color="#111"/><stop offset="54.902%" stop-color="#1A1A1A"/><stop offset="100%"/></radialGradient><radialGradient id="f" gradientUnits="userSpaceOnUse" cx="0" cy="0" r="4.662" fx="0" fy="0" gradientTransform="translate(121.05 230.2)" spreadMethod="pad"><stop offset="0%" stop-color="#111"/><stop offset="54.902%" stop-color="#1A1A1A"/><stop offset="100%"/></radialGradient><radialGradient id="g" gradientUnits="userSpaceOnUse" cx="0" cy="0" r="4.662" fx="0" fy="0" gradientTransform="translate(160.35 232.4)" spreadMethod="pad"><stop offset="0%" stop-color="#111"/><stop offset="54.902%" stop-color="#1A1A1A"/><stop offset="100%"/></radialGradient><radialGradient id="h" gradientUnits="userSpaceOnUse" cx="0" cy="0" r="4.662" fx="0" fy="0" gradientTransform="translate(164.05 178.05)" spreadMethod="pad"><stop offset="0%" stop-color="#111"/><stop offset="54.902%" stop-color="#1A1A1A"/><stop offset="100%"/></radialGradient><g id="i"><path fill="#9A6243" d="M279.95 333.25l-1.85-6.5q-17.25 6.7-36.8 10.05l2.05 5.95q18.5-3.45 36.6-9.5M239 337.4l2.3-.6q19.55-3.35 36.8-10.05l3.65-1q-.35-1.6-.75-3.2-.7 1-1.8 1.3-1.45.35-2.8-.6-1.3-1.05-1.8-2.9-.5-1.85.1-3.4.7-1.65 2.1-2 .75-.15 1.65.05l-1.1-2.4-2.65.65-39.7 9.45q.75 7.35 4 14.7M6.85 331.15l-1.95 7 33.15 7.05 1.95-6q-17.05-2.95-33.15-8.05m34.9 8.25l4.4-14.4q-18.7-3.35-36.95-8.6l-2.9-.6-.8 4.05q1.45-1.1 2.85-.75 1.4.4 2.05 2.05.65 1.55.15 3.35-.5 1.9-1.85 2.95-1.3.95-2.8.6-1.15-.3-1.8-1.45l-.75 3.45q1.7.55 3.5 1.1 16.1 5.1 33.15 8.05.9.1 1.75.2z"/><path fill="url(#a)" d="M278.45 315q-.9-.2-1.65-.05-1.4.35-2.1 2-.6 1.55-.1 3.4.5 1.85 1.8 2.9 1.35.95 2.8.6 1.1-.3 1.8-1.3.15-.3.35-.65.6-1.55.1-3.4-.45-1.85-1.8-2.85-.6-.45-1.2-.65z"/><path fill="url(#b)" d="M10.4 321.15q-.65-1.65-2.05-2.05-1.4-.35-2.85.75v.05q-1.35.95-1.85 2.8-.45 1.8.15 3.35.1.3.3.55.65 1.15 1.8 1.45 1.5.35 2.8-.6 1.35-1.05 1.85-2.95.5-1.8-.15-3.35z"/><path fill="#AF765E" d="M79.6 148.3q-8.15.2-7.65-5.4 8.1-9.65 9.05-20.5-13.4 6.15-20 24.8l-24.95 70.35L9.2 316.4q18.25 5.25 36.95 8.6l27.5-93.6q.5-26.05 7.65-57.75-7.15 31.7-7.65 57.75l1.9 44.2 26.15-.4-26.15.4-5.25 67.55q15.6 4.1 37.25 5.85-.55-54.65 2.35-111.15-.7-10.15 3.1-20.25.35-.85.65-1.65 0-.05.05-.05v-.15q2.3-5.4 5.9-10.75v-.05q.05-.15.1-.25l10.95-18.7q-8.85-9.75-20.3-19.45 8.6-8.15 16.05-19.2l-2.75-4.15q-9.1-2.95-15.2 1.1l-.15.15q-.4.05-.75.15-16.15 3.45-27.95 3.7m38.6 36.25q-1.9 0-3.3-1.4-1.35-1.35-1.35-3.25 0-1.85 1.35-3.2 1.4-1.4 3.3-1.4t3.2 1.4q1.4 1.35 1.4 3.2 0 1.9-1.4 3.25-1.3 1.4-3.2 1.4m98.75-51.5l-2-2.1-1.65 1.5q3.4 8.5-6.15 11.85l-29.85-1.4-.6.45q2.35 3.1 5.15 7.1l-8.9 4.6q-3.1-6.75-8.25-12.9l-.6.3-2.05 1 11.85 24.5q-34.9 14.95-52.05 38.4-3.65 4.9-5.4 10.8l-3.45.45q-3.8 10.1-3.1 20.25-2.9 56.5-2.35 111.15 56.25 2.85 101.5-6.8l-3.65-66.9-29.6-1.6 29.6 1.6 3.95-43q-2.35-22.7-7.05-46.65l-.9-23.4.9 23.4q4.7 23.95 7.05 46.65L235 322.7l39.7-9.45-.25-1.15-8.55-35q-22.65-72.6-48.95-144.05M167.3 181.3q-1.35 1.35-3.2 1.35-1.95 0-3.3-1.35-1.35-1.3-1.35-3.2 0-1.95 1.35-3.3 1.35-1.35 3.3-1.35 1.85 0 3.2 1.35t1.35 3.3q0 1.9-1.35 3.2m-10.15 54.35q-1.4-1.35-1.4-3.2 0-1.95 1.4-3.3 1.35-1.35 3.2-1.35 1.9 0 3.3 1.35 1.35 1.35 1.35 3.3 0 1.85-1.35 3.2-1.4 1.35-3.3 1.35-1.85 0-3.2-1.35m-31.45-5.4q0 1.95-1.35 3.3-1.35 1.3-3.3 1.3-1.9 0-3.2-1.3-1.35-1.35-1.35-3.3 0-1.9 1.35-3.25 1.3-1.3 3.2-1.3 1.95 0 3.3 1.3 1.35 1.35 1.35 3.25m-9.1 49.7q1.35-1.3 3.25-1.3 1.85 0 3.25 1.3 1.35 1.35 1.35 3.25t-1.35 3.3q-1.4 1.3-3.25 1.3-1.9 0-3.25-1.3-1.4-1.4-1.4-3.3t1.4-3.25m40.55 7.75q-1.4-1.35-1.4-3.3 0-1.9 1.4-3.2 1.35-1.35 3.2-1.35 1.9 0 3.3 1.35 1.35 1.3 1.35 3.2 0 1.95-1.35 3.3-1.4 1.35-3.3 1.35-1.85 0-3.2-1.35z"/><path fill="url(#c)" d="M114.9 183.15q1.4 1.4 3.3 1.4t3.2-1.4q1.4-1.35 1.4-3.25 0-1.85-1.4-3.2-1.3-1.4-3.2-1.4-1.9 0-3.3 1.4-1.35 1.35-1.35 3.2 0 1.9 1.35 3.25z"/><path fill="#935942" d="M146.75 83.45q-13.5-1.1-16.65 1.15-13.65 6.7-8.8 36.65l6.4 20.45 13.85 25.7 7.9-13.4q4.35-6.65 7.35-13.2 9.05-20.4 5.25-40.25-1.8-16.05-15.3-17.1z"/><path fill="#6A402F" d="M207.15 144.3q9.55-3.35 6.15-11.85l-7.45-11.05q-4.75-12.25-14.3-19l-21.2-14.45Q159.1 79.7 150.7 78.7q-8.45-.95-9-.85-.6 0-1.05.1-7.55.15-13.75 1.7h-.1q-.1 0-.15.05h-.1q-.15 0-.2.05-7.85 2.05-13.55 6.2L92.95 101Q86.2 106.95 81 122.4q-.95 10.85-9.05 20.5-.5 5.6 7.65 5.4 11.8-.25 27.95-3.7.35-.1.75-.15l.15-.15q6.1-4.05 15.2-1.1l2.75 4.15q-7.45 11.05-16.05 19.2 11.45 9.7 20.3 19.45l10.9-18.6-13.85-25.7-6.4-20.45q-4.85-29.95 8.8-36.65 3.15-2.25 16.65-1.15 13.5 1.05 15.3 17.1 3.8 19.85-5.25 40.25-3 6.55-7.35 13.2l-7.9 13.4-10.9 18.6-10.95 18.7q-.05.1-.1.25v.05q-3.6 5.35-5.9 10.75v.15q-.05 0-.05.05-.3.8-.65 1.65l3.45-.45q1.75-5.9 5.4-10.8 17.15-23.45 52.05-38.4l-11.85-24.5-.05-.05 2.1-.95.6-.3q5.15 6.15 8.25 12.9l8.9-4.6q-2.8-4-5.15-7.1-.1 0-.1-.05-3.55-4.75-6.2-7.45 2.65 2.7 6.2 7.45 0 .05.1.05l.6-.45 29.85 1.4z"/><path fill="url(#d)" d="M155.75 284.4q0 1.95 1.4 3.3 1.35 1.35 3.2 1.35 1.9 0 3.3-1.35 1.35-1.35 1.35-3.3 0-1.9-1.35-3.2-1.4-1.35-3.3-1.35-1.85 0-3.2 1.35-1.4 1.3-1.4 3.2z"/><path fill="url(#e)" d="M119.85 278.65q-1.9 0-3.25 1.3-1.4 1.35-1.4 3.25t1.4 3.3q1.35 1.3 3.25 1.3 1.85 0 3.25-1.3 1.35-1.4 1.35-3.3t-1.35-3.25q-1.4-1.3-3.25-1.3z"/><path fill="url(#f)" d="M124.35 233.55q1.35-1.35 1.35-3.3 0-1.9-1.35-3.25-1.35-1.3-3.3-1.3-1.9 0-3.2 1.3-1.35 1.35-1.35 3.25 0 1.95 1.35 3.3 1.3 1.3 3.2 1.3 1.95 0 3.3-1.3z"/><path fill="url(#g)" d="M155.75 232.45q0 1.85 1.4 3.2 1.35 1.35 3.2 1.35 1.9 0 3.3-1.35 1.35-1.35 1.35-3.2 0-1.95-1.35-3.3-1.4-1.35-3.3-1.35-1.85 0-3.2 1.35-1.4 1.35-1.4 3.3z"/><path fill="url(#h)" d="M164.1 182.65q1.85 0 3.2-1.35 1.35-1.3 1.35-3.2 0-1.95-1.35-3.3-1.35-1.35-3.2-1.35-1.95 0-3.3 1.35-1.35 1.35-1.35 3.3 0 1.9 1.35 3.2 1.35 1.35 3.3 1.35z"/></g><path id="j" stroke="#1F140E" stroke-width="1.5" stroke-linejoin="round" stroke-linecap="round" fill="none" d="M214.95 130.95l2 2.1q26.3 71.45 48.95 144.05l8.55 35m.25 1.15l2.65-.65 1.1 2.4q.6.2 1.2.65 1.35 1 1.8 2.85.5 1.85-.1 3.4-.2.35-.35.65.4 1.6.75 3.2l-3.65 1 1.85 6.5q-18.1 6.05-36.6 9.5l-2.05-5.95-2.3.6q-3.25-7.35-4-14.7l-25.65-90.4-3.95 43 3.65 66.9q-45.25 9.65-101.5 6.8-21.65-1.75-37.25-5.85l5.25-67.55-1.9-44.2-27.5 93.6-4.4 14.4q-.85-.1-1.75-.2l-1.95 6-33.15-7.05 1.95-7q-1.8-.55-3.5-1.1l.75-3.45q-.2-.25-.3-.55-.6-1.55-.15-3.35.5-1.85 1.85-2.8v-.05l.8-4.05 2.9.6 26.85-98.85L61 147.2q6.6-18.65 20-24.8 5.2-15.45 11.95-21.4l19.85-15.05q5.7-4.15 13.55-6.2.05-.05.2-.05h.1q.05-.05.15-.05h.1q6.2-1.55 13.75-1.7.45-.1 1.05-.1.55-.1 9 .85 8.4 1 19.65 9.25l21.2 14.45q9.55 6.75 14.3 19l9.1 9.55m-1.65 1.5q3.4 8.5-6.15 11.85l-29.85-1.4m-.6.45q2.35 3.1 5.15 7.1l-8.9 4.6q-3.1-6.75-8.25-12.9l-.6.3m-2.05 1l11.85 24.5q-34.9 14.95-52.05 38.4-3.65 4.9-5.4 10.8m-3.45.45q-3.8 10.1-3.1 20.25-2.9 56.5-2.35 111.15M213.3 132.45l-7.45-11.05m-43.8 22.05l-.05-.05 2.1-.95m12.6.9q-.1 0-.1-.05-3.55-4.75-6.2-7.45m38.95 96.45q-2.35-22.7-7.05-46.65l-.9-23.4m-37.3 11.2q1.85 0 3.2 1.35t1.35 3.3q0 1.9-1.35 3.2-1.35 1.35-3.2 1.35-1.95 0-3.3-1.35-1.35-1.3-1.35-3.2 0-1.95 1.35-3.3 1.35-1.35 3.3-1.35zm-22.55-6.05l-13.85-25.7-6.4-20.45q-4.85-29.95 8.8-36.65 3.15-2.25 16.65-1.15 13.5 1.05 15.3 17.1 3.8 19.85-5.25 40.25-3 6.55-7.35 13.2l-7.9 13.4-10.9 18.6-10.95 18.7q-.05.1-.1.25v.05q-3.6 5.35-5.9 10.75v.15q-.05 0-.05.05-.3.8-.65 1.65m-32-95.2q-.95 10.85-9.05 20.5-.5 5.6 7.65 5.4 11.8-.25 27.95-3.7.35-.1.75-.15l.15-.15q6.1-4.05 15.2-1.1l2.75 4.15q-7.45 11.05-16.05 19.2 11.45 9.7 20.3 19.45m-15.75-9.3q1.4-1.4 3.3-1.4t3.2 1.4q1.4 1.35 1.4 3.2 0 1.9-1.4 3.25-1.3 1.4-3.2 1.4-1.9 0-3.3-1.4-1.35-1.35-1.35-3.25 0-1.85 1.35-3.2zm45.45 51.1q1.9 0 3.3 1.35 1.35 1.35 1.35 3.3 0 1.85-1.35 3.2-1.4 1.35-3.3 1.35-1.85 0-3.2-1.35-1.4-1.35-1.4-3.2 0-1.95 1.4-3.3 1.35-1.35 3.2-1.35zm-43.85 2.45q0-1.9 1.35-3.25 1.3-1.3 3.2-1.3 1.95 0 3.3 1.3 1.35 1.35 1.35 3.25 0 1.95-1.35 3.3-1.35 1.3-3.3 1.3-1.9 0-3.2-1.3-1.35-1.35-1.35-3.3zm3.35 57.55q-1.9 0-3.25-1.3-1.4-1.4-1.4-3.3t1.4-3.25q1.35-1.3 3.25-1.3 1.85 0 3.25 1.3 1.35 1.35 1.35 3.25t-1.35 3.3q-1.4 1.3-3.25 1.3zm40.5 1.25q-1.85 0-3.2-1.35-1.4-1.35-1.4-3.3 0-1.9 1.4-3.2 1.35-1.35 3.2-1.35 1.9 0 3.3 1.35 1.35 1.3 1.35 3.2 0 1.95-1.35 3.3-1.4 1.35-3.3 1.35zM5.5 319.85q1.45-1.1 2.85-.75 1.4.4 2.05 2.05.65 1.55.15 3.35-.5 1.9-1.85 2.95-1.3.95-2.8.6-1.15-.3-1.8-1.45M40 339.2q-17.05-2.95-33.15-8.05M9.2 316.4q18.25 5.25 36.95 8.6m29.4-49.4l26.15-.4m103.7.1l-29.6-1.6M281 322.55q-.7 1-1.8 1.3-1.45.35-2.8-.6-1.3-1.05-1.8-2.9-.5-1.85.1-3.4.7-1.65 2.1-2 .75-.15 1.65.05m-3.75-1.75L235 322.7m43.1 4.05q-17.25 6.7-36.8 10.05M73.65 231.4q.5-26.05 7.65-57.75"/></defs><g><use xlink:href="#i"/><use xlink:href="#j"/></g></svg>