<?xml version="1.0" encoding="utf-8"?>
<!-- Generator: Adobe Illustrator 16.0.0, SVG Export Plug-In . SVG Version: 6.00 Build 0)  -->
<!DOCTYPE svg PUBLIC "-//W3C//DTD SVG 1.1//EN" "http://www.w3.org/Graphics/SVG/1.1/DTD/svg11.dtd">
<svg version="1.1" id="Layer_1" xmlns="http://www.w3.org/2000/svg" xmlns:xlink="http://www.w3.org/1999/xlink" x="0px" y="0px"
	 width="900px" height="450px" viewBox="0 0 900 450" enable-background="new 0 0 900 450" xml:space="preserve">
<g id="t100" transform="matrix( 2.1847381591796875, 0, 0, 2.1847381591796875, 150.25,220.85) ">
	<g id="highlight" transform="matrix( 1.079986572265625, 0, 0, 1.079986572265625, -45.8,-45.8) ">
	</g>
	<g transform="matrix( 1, 0, 0, 1, 0,0) ">
		<g>
			<g id="p100_0_Layer1_0_FILL">
				<path fill="#F9E975" d="M230.041-0.557c0-25.557-9.065-47.361-27.195-65.41c-18.13-18.13-40.013-27.195-65.65-27.195
					c-25.557,0-47.361,9.065-65.41,27.195c-18.13,18.05-27.195,39.853-27.195,65.41c0,25.637,9.065,47.52,27.195,65.65
					c18.05,18.13,39.853,27.195,65.41,27.195c25.637,0,47.52-9.066,65.65-27.195C220.976,46.963,230.041,25.08,230.041-0.557
					 M198.174-61.415c16.772,16.772,25.158,37.058,25.158,60.858c0,23.88-8.386,44.206-25.158,60.978
					c-16.772,16.772-37.097,25.157-60.978,25.157c-23.8,0-44.086-8.386-60.858-25.157C59.486,43.649,51.061,23.323,51.061-0.557
					c0-23.8,8.426-44.086,25.278-60.858c16.772-16.852,37.058-25.278,60.858-25.278C161.077-86.693,181.403-78.267,198.174-61.415z"
					/>
				<path fill="#EEDD60" d="M223.332-0.557c0-23.8-8.386-44.086-25.158-60.858c-16.772-16.852-37.097-25.278-60.978-25.278
					c-23.8,0-44.086,8.426-60.858,25.278C59.486-44.644,51.061-24.357,51.061-0.557c0,23.88,8.426,44.206,25.278,60.978
					c16.772,16.772,37.058,25.157,60.858,25.157c23.881,0,44.206-8.386,60.978-25.157C214.946,43.649,223.332,23.323,223.332-0.557z
					"/>
			</g>
		</g>
		<g>
			
				<path id="p100_0_Layer1_0_1_STROKES" fill="none" stroke="#24201A" stroke-width="0.05" stroke-linecap="round" stroke-linejoin="round" d="
				M223.332-0.557c0,23.88-8.386,44.206-25.158,60.978c-16.772,16.772-37.097,25.157-60.978,25.157
				c-23.8,0-44.086-8.386-60.858-25.157C59.486,43.649,51.061,23.323,51.061-0.557c0-23.8,8.426-44.086,25.278-60.858
				c16.772-16.852,37.058-25.278,60.858-25.278c23.881,0,44.206,8.426,60.978,25.278C214.946-44.644,223.332-24.357,223.332-0.557z"
				/>
		</g>
		<g>
			<path id="p100_0_Layer1_0_2_STROKES" fill="none" stroke="#24201A" stroke-linecap="round" stroke-linejoin="round" d="
				M230.041-0.557c0,25.637-9.065,47.52-27.195,65.65c-18.13,18.13-40.013,27.195-65.65,27.195c-25.557,0-47.361-9.066-65.41-27.195
				c-18.13-18.13-27.195-40.013-27.195-65.65c0-25.557,9.065-47.361,27.195-65.41c18.05-18.13,39.853-27.195,65.41-27.195
				c25.637,0,47.52,9.065,65.65,27.195C220.976-47.918,230.041-26.114,230.041-0.557z"/>
		</g>
	</g>
	<g transform="matrix( 1, 0, 0, 1, -11.25,14.95) ">
		<g>
			<defs>
				<rect id="SVGID_1_" x="82.756" y="-20.44" width="125.632" height="137.932"/>
			</defs>
			<clipPath id="SVGID_2_">
				<use xlink:href="#SVGID_1_"  overflow="visible"/>
			</clipPath>
			<text transform="matrix(0.4577 0 0 0.4577 121.6112 65.1174)" font-family="'Arial-BoldMT'" font-size="104.6925">£1</text>
		</g>
	</g>
	<g transform="matrix( 1, 0, 0, 1, 0,0) ">
		<g>
			<g id="p100_0_Layer0_0_FILL">
				<path fill="#F9E975" d="M119.107-4.391l0.12,3.834c2.236,8.626,7.667,15.215,16.292,19.767l0.36-23.601H119.107 M119.107-4.391
					l-0.359-9.463v-0.12c-2.476,3.754-3.794,7.388-3.954,10.902c-0.16,3.035,0.52,6.508,2.036,10.423
					c3.354,8.306,9.584,12.618,18.689,12.939l0.48-0.84c-0.24-0.079-0.401-0.158-0.48-0.239
					c-8.625-4.553-14.056-11.142-16.292-19.767L119.107-4.391 M135.999-19.965l0.12-0.239l-12.579-1.677v0.119l-4.792,7.907
					l0.359,9.463h16.772L135.999-19.965 M96.464-7.026c-2.715-0.479-4.672-1.198-5.87-2.156L82.688,9.506l-0.599,1.198
					c0.08,4.233-1.917,6.948-5.989,8.146c-1.038,3.994,0.16,8.626,3.594,13.897l4.073,3.833l3.594-2.156
					c-7.029-7.667-6.788-13.737,0.719-18.21l5.511-9.343l1.677,0.239c0.719,2.156,0.479,4.951-0.719,8.386
					c2.475,5.431,6.868,9.584,13.178,12.459l6.469-0.957l-13.897-11.98c3.274-3.674,4.073-7.348,2.396-11.023l-5.99-10.302
					L96.464-7.026 M109.882-18.048c0.16-0.24,0.319-0.479,0.479-0.719l-0.479,0.12C109.882-18.407,109.882-18.208,109.882-18.048
					 M105.689-27.871v-0.12l-1.318-0.12l-5.032-5.032l-0.24,6.23l-4.313,1.438l-3.714-1.318l-0.599-0.599
					c-1.677,3.354-1.997,8.386-0.959,15.095l-0.12,1.318l1.198,1.797c1.198,0.958,3.155,1.677,5.87,2.156h0.12l9.464-2.156
					c0.799-2.956,2.077-5.91,3.834-8.865c0-0.16,0-0.36,0-0.599l-9.824,2.995l9.824-2.995c0-2.875-1.038-5.67-3.115-8.386
					l-0.959,0.119h-0.119h-0.12v-0.119v-0.12L105.689-27.871 M129.649-33.741l0.12-0.12h6.47l0.119-5.391l-0.119-5.391
					c-4.793,0-8.227,0.559-10.304,1.677L129.649-33.741 M88.438-41.888c-4.632,1.198-5.032,3.953-1.198,8.266l4.313-2.636
					L88.438-41.888 M86.641-33.262l0.479,0.839l3.953,5.631l3.714,1.318l4.313-1.438l0.24-6.23l-2.156-5.75l-0.959-0.24
					l-4.672,2.875l-4.313,2.636L86.641-33.262 M88.558-41.888h-0.12l3.115,5.63l4.672-2.875c-0.08-4.712-2.636-5.671-7.667-2.875
					V-41.888 M118.508-60.457l-5.511-1.677l-4.073,6.709l3.834,2.636l-0.479,1.557l-0.719,1.797l0.719-1.797l-14.137-6.349
					l-6.469,6.948l7.188,2.636l4.792,2.636l2.876,2.157l0.958,1.198l12.22-9.824l-12.22,9.824l-1.677,1.198l-2.157,4.792
					l2.396,4.313l-0.359,3.714l1.078,0.959l4.313-0.359l2.396,1.677l-2.396-1.677l-4.313,0.359c2.077,2.715,3.115,5.511,3.115,8.386
					l0.479-0.12c0.719-1.198,1.757-2.715,3.114-4.552l8.386,0.479l0.12-0.12l7.667-10.782l-3.714-9.225
					c2.077-1.118,5.511-1.677,10.304-1.677l0.119-4.792l-0.239-6.829c-2.556-0.32-4.753-0.32-6.59,0
					c-3.035,0.479-4.952,1.677-5.75,3.594c-0.08,0.08-0.12,0.2-0.12,0.359c-0.798,2.077-0.439,4.952,1.078,8.626
					c-1.518-3.674-1.877-6.549-1.078-8.626c0-0.16,0.04-0.28,0.12-0.359L118.508-60.457 M116.83-45.841l-2.635,11.022l11.022,3.594
					l-11.022-3.594L116.83-45.841 M154.088-4.391l0.36-9.463l-4.553-8.147l-0.479-0.839l-12.22,2.636l-0.24,0.12l-0.24,0.12
					l-0.359,15.573H154.088 M153.968-0.557l0.12-3.834h-17.73V19.21C146.102,14.098,151.972,7.51,153.968-0.557 M154.088-4.391
					l-0.12,3.834c-1.996,8.067-7.866,14.656-17.61,19.767c-0.08,0.08,0.24,0.16,0.958,0.239l0.36,0.84
					c9.105-0.32,15.335-4.633,18.689-12.939c1.516-3.915,2.195-7.388,2.036-10.423c-0.16-3.514-1.477-7.148-3.953-10.902v0.12
					L154.088-4.391 M159.72-23.319l-8.386,0.479l-1.438,0.839l4.553,8.147v-0.12c2.476,3.754,3.793,7.388,3.953,10.902
					c0.16,3.035-0.519,6.508-2.036,10.423c-3.355,8.306-9.584,12.618-18.689,12.939h-2.157c-9.105-0.32-15.335-4.633-18.689-12.939
					c-1.517-3.915-2.196-7.388-2.036-10.423c0.16-3.514,1.478-7.148,3.954-10.902v0.12l4.792-7.907v-0.119l-1.678-0.959
					l-8.386-0.479c-1.358,1.837-2.396,3.354-3.114,4.552c-0.16,0.24-0.32,0.479-0.479,0.719c-1.757,2.955-3.035,5.91-3.834,8.865
					c-2.156,7.428-1.278,14.895,2.636,22.402c2.795,5.191,6.549,9.264,11.261,12.22c4.153,2.475,8.426,3.833,12.819,4.072h7.666
					c11.501-0.798,19.767-6.788,24.799-17.969c2.955-6.469,3.713-12.899,2.276-19.288c-0.479-2.157-1.198-4.313-2.156-6.469
					C163.911-17.249,162.035-20.284,159.72-23.319 M143.066-33.741l-0.119-0.12h-6.47h-0.239h-6.47l-0.12,0.12l-7.667,10.782
					l1.558,1.078l12.579,1.677h1.077l12.22-2.636L143.066-33.741 M143.066-33.741l3.715-9.225
					c-2.077-1.118-5.511-1.677-10.303-1.677l-0.12,5.391l0.12,5.391h6.47L143.066-33.741 M159.72-62.134l-5.511,1.677l-5.152,7.787
					c0,0.08,0.041,0.2,0.12,0.359c0.718,2.077,0.319,4.952-1.198,8.626c1.517-3.674,1.916-6.549,1.198-8.626
					c-0.08-0.16-0.12-0.28-0.12-0.359c-0.878-1.916-2.754-3.075-5.63-3.474c-0.08-0.08-0.16-0.12-0.24-0.12
					c-1.837-0.32-4.034-0.32-6.589,0l-0.24,6.829l-0.119,4.792c0.079,0,0.158,0,0.239,0c4.793,0,8.226,0.559,10.303,1.677
					l-3.715,9.225l6.35,10.901h1.917l8.386-0.479c2.315,3.035,4.192,6.07,5.63,9.105l6.947,0.24
					c-1.037-3.514-0.079-7.188,2.877-11.021c-2.956,3.833-3.913,7.507-2.877,11.021l-6.947-0.24
					c0.958,2.156,1.677,4.313,2.156,6.469l2.037-0.719l6.708,1.438c0.799-0.16,1.518-0.32,2.157-0.479
					c3.593-0.959,5.271-2.556,5.031-4.792c0.24,2.236-1.438,3.834-5.031,4.792l-8.386,11.5l2.395,11.023l-13.896,11.98l6.47,0.957
					l13.177-12.459l-0.72-8.386l3.116-1.198l4.073,10.303c7.508,4.473,7.748,10.543,0.72,18.21l3.593,2.156l4.073-3.833
					c3.435-5.271,4.633-9.903,3.594-13.897c-4.233-1.278-6.229-4.152-5.99-8.625l7.187-1.917c-5.591-1.437-8.904-9.744-9.943-24.919
					c-0.079-0.239-0.12-0.519-0.12-0.839c0.16-0.479,0.32-0.959,0.48-1.437l-11.262-5.152l11.262,5.152c0-0.08,0.04-0.12,0.12-0.12
					c5.989-18.449,2.955-24.999-9.105-19.647l-7.188,6.469l2.876,5.152l6.229-2.756l-6.229,2.756l-2.876-5.152l7.188-6.469
					l-9.464-7.068l-0.72,0.359l-2.874,2.157l2.874-2.157l0.72-0.359l4.073-2.276l7.188-2.636l-6.469-6.948l-10.543,6.229v1.198
					l-2.875,0.719l2.875-0.719v-1.198l-0.239-4.073L159.72-62.134 M166.907-31.705l2.396-4.313l-2.156-4.792L153.25-51.831
					l13.897,11.022l2.156,4.792L166.907-31.705l0.479,4.792l-5.51-0.479l-2.396,1.677l2.396-1.677l5.51,0.479L166.907-31.705
					 M155.885-45.841l2.636,11.022L147.5-31.226l11.022-3.594L155.885-45.841z"/>
			</g>
		</g>
		<g>
			<path id="p100_0_Layer0_0_1_STROKES" fill="none" stroke="#333333" stroke-linecap="round" stroke-linejoin="round" d="
				M144.145-70.041v-0.479l-1.917-7.427l-3.234,1.916l0.48,2.277L144.145-70.041l1.438,1.198l-1.557,2.396l-0.12,1.797l2.397,2.875
				 M144.025-66.447l0.12-3.594 M140.311-63.572l-0.239-0.479l-3.714,0.24L140.311-63.572h1.198l2.276,1.677l0.12-2.755
				l-2.156-2.756l-5.391-1.438l-5.39,1.438l-2.157,2.756l0.12,2.755l2.276-1.677h1.318l0.12-0.479l3.713,0.24l-3.833,0.239
				l-2.277,4.313 M140.311-63.572l2.157,4.313 M143.785-61.895l1.319,0.959l-1.079,2.755l-0.839,1.917c0.08,0,0.16,0.04,0.24,0.12
				c2.875,0.399,4.752,1.558,5.63,3.474l5.152-7.787l5.511-1.677l4.073,6.709l0.239,4.073l10.543-6.229l6.469,6.948l-7.188,2.636
				l-4.073,2.276l9.464,7.068c12.06-5.351,15.094,1.198,9.105,19.647c-0.08,0-0.12,0.04-0.12,0.12
				c-0.16,0.479-0.319,0.958-0.48,1.437c0,0.32,0.041,0.599,0.12,0.839c1.039,15.175,4.352,23.482,9.943,24.919l0.12,0.12
				c0.401,0.08,0.839,0.12,1.318,0.12c4.392-1.198,3.034-7.268-4.073-18.21c-2.635-10.303,0-13.577,7.906-9.824
				c0,0.16,0.041,0.359,0.12,0.599c0.08,3.354-0.759,5.271-2.516,5.75 M125.935-61.176l2.875-3.474v-1.797l-1.677-2.396l1.438-1.198
				v-0.479l1.917-7.427l3.234,1.916l-0.479,2.277l-0.839,3.714l3.953,1.198l3.953-1.198l-0.838-3.714 M169.782-45.722l-0.72,0.359
				l-2.874,2.157 M164.031-51.352v1.198l-2.875,0.719 M159.479-25.715l2.396-1.677l5.51,0.479l-0.479-4.792l2.396-4.313
				l-2.156-4.792L153.25-51.831 M179.246-38.653l-7.188,6.469l2.876,5.152l6.229-2.756 M149.057-52.67c0,0.08,0.041,0.2,0.12,0.359
				c0.718,2.077,0.319,4.952-1.198,8.626 M136.478-44.644c4.793,0,8.226,0.559,10.303,1.677l-3.715,9.225l6.35,10.901
				 M151.333-22.84l8.386-0.479c2.315,3.035,4.192,6.07,5.63,9.105l6.947,0.24c-1.037-3.514-0.079-7.188,2.877-11.021
				 M143.066-33.741l-0.119-0.12h-6.47 M136.239-33.861h-6.47l-0.12,0.12l-7.667,10.782 M123.54-21.881l12.579,1.677h1.077
				l12.22-2.636l0.479,0.839 M155.885-45.841l2.636,11.022L147.5-31.226 M137.676,20.289c9.105-0.32,15.335-4.633,18.689-12.939
				c1.516-3.915,2.195-7.388,2.036-10.423c-0.16-3.514-1.477-7.148-3.953-10.902v0.12l-0.36,9.463l-0.12,3.834
				c-1.996,8.067-7.866,14.656-17.61,19.767c-0.08,0.08,0.24,0.16,0.958,0.239 M137.676,20.289l-1.078-0.48l-1.078,0.48H137.676z
				 M149.895-22.001l4.553,8.147 M169.543-8.464l6.708,1.438c0.799-0.16,1.518-0.32,2.157-0.479
				c3.593-0.959,5.271-2.556,5.031-4.792 M165.35-14.214c0.958,2.156,1.677,4.313,2.156,6.469 M208.837-10.261
				c-0.08-2.795-1.758-5.711-5.031-8.745c5.35,2.476,7.866,1.757,7.546-2.157 M144.025-58.181l-0.24-3.714 M188.231-18.886
				l-11.262-5.152 M197.814,8.309l-7.187,1.917c-0.239,4.473,1.758,7.347,5.99,8.625c1.039,3.994-0.16,8.626-3.594,13.897
				l-4.073,3.833l-3.593-2.156c7.028-7.667,6.788-13.737-0.72-18.21l-4.073-10.303l-3.116,1.198l0.72,8.386l-13.177,12.459
				l-6.47-0.957l13.896-11.98l-2.395-11.023l8.386-11.5 M167.506-7.745c1.437,6.389,0.679,12.819-2.276,19.288
				c-5.031,11.181-13.298,17.171-24.799,17.969h-7.666c-4.393-0.239-8.666-1.597-12.819-4.072
				c-4.712-2.956-8.466-7.029-11.261-12.22c-3.913-7.508-4.792-14.974-2.636-22.402l-9.464,2.156h-0.12 M101.017-6.307l1.677,10.302
				 M133.243-73.755l-4.672,3.714l0.239,3.594 M129.529-56.264l-0.719-1.917l-1.198-2.755l1.318-0.959l-0.12,3.714 M123.779-52.67
				l-5.271-7.787l-5.511-1.677l-4.073,6.709l3.834,2.636l-0.479,1.557l-0.719,1.797 M87.12-44.404l1.318,2.516h0.12v-0.12
				c5.032-2.795,7.587-1.837,7.667,2.875 M97.184-38.893l2.156,5.75l5.032,5.032 M105.689-27.991l0.359-3.714l-2.396-4.313
				l2.157-4.792l1.677-1.198 M106.528-43.206l-2.876-2.157l-4.792-2.636l-7.188-2.636l6.469-6.948l14.137,6.349 M86.641-33.262
				l0.599-0.359c-3.834-4.313-3.434-7.068,1.198-8.266l3.115,5.63l4.672-2.875 M82.688,9.506L75.14,9.027
				c-0.959-1.118-1.198-3.075-0.719-5.87c0.24-1.757,0.959-3.954,2.157-6.589c1.677-3.196,2.955-5.751,3.834-7.668
				c2.396-4.792,2.556-8.985,0.479-12.579c-2.077-3.594-5.191-4.273-9.344-2.036c0,0.16,0,0.359,0,0.599
				c-0.16,3.274,0.639,5.192,2.396,5.751 M65.796-16.49c0.16-2.875,1.837-5.79,5.031-8.746c-5.431,2.556-7.947,1.837-7.547-2.156
				 M143.187-56.264c-1.837-0.32-4.034-0.32-6.589,0l-0.24,6.829l-0.119,4.792c0.079,0,0.158,0,0.239,0l-0.12,5.391l0.12,5.391
				 M136.358-49.435l-0.239-6.829c-2.556-0.32-4.753-0.32-6.59,0c-3.035,0.479-4.952,1.677-5.75,3.594
				c-0.08,0.08-0.12,0.2-0.12,0.359c-0.798,2.077-0.439,4.952,1.078,8.626 M136.239-33.861l0.119-5.391l-0.119-5.391
				c-4.793,0-8.227,0.559-10.304,1.677l3.714,9.225 M116.83-45.841l-2.635,11.022l11.022,3.594 M105.689-27.991v0.12l-0.12,0.719
				v0.12v0.119h0.12h0.119l0.959-0.119 M109.882-18.048c0.16-0.24,0.319-0.479,0.479-0.719l-0.479,0.12
				C109.882-18.407,109.882-18.208,109.882-18.048c-1.757,2.955-3.035,5.91-3.834,8.865 M106.767-27.033l4.313-0.359l2.396,1.677
				 M106.767-27.033c2.077,2.715,3.115,5.511,3.115,8.386l-9.824,2.995 M99.34-33.143l-0.24,6.23l-4.313,1.438l-3.714-1.318
				 M90.475-27.392c-1.677,3.354-1.997,8.386-0.959,15.095l-0.12,1.318 M90.594-9.182c1.198,0.958,3.155,1.677,5.87,2.156
				 M89.396-10.979c0.16,0.559,0.479,1.078,0.959,1.557c0.08,0.08,0.16,0.16,0.239,0.24L82.688,9.506l-0.599,1.198
				c0.08,4.233-1.917,6.948-5.989,8.146c-1.038,3.994,0.16,8.626,3.594,13.897l4.073,3.833l3.594-2.156
				c-7.029-7.667-6.788-13.737,0.719-18.21l5.511-9.343l1.677,0.239c0.719,2.156,0.479,4.951-0.719,8.386
				c2.475,5.431,6.868,9.584,13.178,12.459l6.469-0.957l-13.897-11.98c3.274-3.674,4.073-7.348,2.396-11.023 M136.119-20.204
				l0.837,0.12h-0.359l0.119,0.12l-0.359,15.573h17.73 M135.999-19.965l0.599-0.12l-0.479-0.12 M110.362-18.767
				c0.719-1.198,1.757-2.715,3.114-4.552l8.386,0.479l0.12-0.12 M123.54-21.881v0.119l-4.792,7.907l0.359,9.463h16.772h0.479V19.21
				 M119.107-4.391l0.12,3.834c2.236,8.626,7.667,15.215,16.292,19.767 M118.747-13.855v-0.12
				c-2.476,3.754-3.794,7.388-3.954,10.902c-0.16,3.035,0.52,6.508,2.036,10.423c3.354,8.306,9.584,12.618,18.689,12.939
				 M135.519,19.21c0.079,0.08,0.24,0.16,0.48,0.239 M119.706-51.831l-12.22,9.824 M91.073-26.793l-3.953-5.631 M87.24-33.622
				l4.313-2.636 M136.598-56.264l0.119-6.11l-0.598,6.11 M135.999,19.449c0.159,0.161,0.359,0.281,0.599,0.36
				c0.239-0.079,0.479-0.199,0.719-0.36"/>
		</g>
	</g>
</g>
</svg>
