<svg xmlns="http://www.w3.org/2000/svg" width="900" height="450" viewBox="0 0 900 450"><path fill="#F9E975" d="M652.83 219.633c0-55.835-19.805-103.471-59.415-142.904-39.609-39.609-87.418-59.414-143.428-59.414-55.835 0-103.471 19.805-142.903 59.414-39.61 39.435-59.414 87.069-59.414 142.904 0 56.01 19.804 103.819 59.414 143.428 39.434 39.61 87.068 59.414 142.903 59.414 56.01 0 103.82-19.807 143.428-59.414 39.61-39.61 59.414-87.418 59.414-143.428M583.21 86.674c36.642 36.643 54.963 80.962 54.963 132.96 0 52.17-18.321 96.578-54.964 133.22-36.642 36.642-81.047 54.962-133.22 54.962-51.997 0-96.317-18.322-132.96-54.962-36.817-36.642-55.223-81.05-55.223-133.22 0-51.998 18.409-96.317 55.226-132.96 36.642-36.817 80.962-55.226 132.959-55.226 52.171 0 96.578 18.41 133.218 55.226z"/><path fill="#EEDD60" d="M638.172 219.633c0-51.997-18.321-96.316-54.964-132.959-36.642-36.817-81.047-55.226-133.22-55.226-51.997 0-96.317 18.41-132.96 55.226-36.817 36.64-55.223 80.962-55.223 132.96 0 52.17 18.409 96.578 55.226 133.22 36.642 36.642 80.962 54.962 132.959 54.962 52.173 0 96.578-18.322 133.22-54.962 36.64-36.642 54.962-81.05 54.962-133.22z"/><path fill="none" stroke="#24201A" stroke-width=".10923700000000001" stroke-linecap="round" stroke-linejoin="round" d="M638.172 219.633c0 52.172-18.321 96.579-54.964 133.221-36.642 36.642-81.047 54.962-133.22 54.962-51.997 0-96.317-18.322-132.96-54.962-36.817-36.642-55.223-81.05-55.223-133.22 0-51.998 18.409-96.317 55.226-132.96 36.642-36.817 80.962-55.226 132.959-55.226 52.173 0 96.578 18.41 133.22 55.226 36.64 36.64 54.962 80.962 54.962 132.96z"/><g><path fill="none" stroke="#24201A" stroke-linecap="round" stroke-linejoin="round" d="M652.83 219.633c0 56.01-19.805 103.819-59.415 143.428-39.609 39.61-87.418 59.414-143.428 59.414-55.835 0-103.471-19.807-142.903-59.414-39.61-39.61-59.414-87.418-59.414-143.428 0-55.835 19.804-103.471 59.414-142.904 39.434-39.609 87.068-59.414 142.903-59.414 56.01 0 103.82 19.805 143.428 59.414 39.61 39.433 59.414 87.069 59.414 142.904z" stroke-width="2.18474"/></g><g><g transform="matrix(2.18474 0 0 2.18474 125.672 253.512)"><defs><path id="a" d="M82.756-20.44h125.632v137.932H82.756z"/></defs><text transform="translate(121.611 65.117) scale(.4577)" font-family="'Arial-BoldMT'" font-size="104.692">£1</text></g></g><g><path fill="#F9E975" d="M410.468 211.257l.262 8.376c4.885 18.846 16.75 33.24 35.594 43.186l.786-51.562h-36.642m0 0l-.785-20.674v-.263c-5.41 8.202-8.289 16.141-8.638 23.818-.35 6.631 1.136 14.219 4.448 22.772 7.328 18.146 20.938 27.567 40.83 28.268l1.05-1.835c-.525-.172-.877-.345-1.05-.522-18.843-9.947-30.708-24.342-35.593-43.186l-.262-8.378m36.904-34.025l.262-.522-27.481-3.664v.26l-10.47 17.274.785 20.675h36.642l.262-34.023M361 205.5c-5.932-1.046-10.208-2.617-12.825-4.71l-17.272 40.828-1.309 2.617c.175 9.248-4.188 15.18-13.084 17.797-2.268 8.726.35 18.846 7.852 30.362l8.898 8.374 7.852-4.71c-15.357-16.751-14.83-30.012 1.57-39.785l12.04-20.412 3.665.522c1.57 4.71 1.046 10.817-1.571 18.322 5.407 11.865 15.005 20.938 28.79 27.22l14.133-2.091-30.36-26.174c7.152-8.026 8.897-16.053 5.234-24.082l-13.087-22.507L361 205.5m29.314-24.08l1.047-1.571-1.047.262v1.309m-9.16-21.46v-.263l-2.88-.262-10.993-10.994-.525 13.611-9.422 3.142-8.115-2.88-1.308-1.308c-3.664 7.327-4.363 18.32-2.095 32.978l-.263 2.88 2.618 3.926c2.617 2.093 6.893 3.664 12.824 4.71h.262l20.677-4.71c1.745-6.458 4.537-12.912 8.376-19.368v-1.309l-21.463 6.544 21.463-6.544c0-6.28-2.268-12.387-6.805-18.32l-2.096.26h-.522v-.523l.267-1.57m52.346-12.825l.262-.262h14.136l.26-11.778-.26-11.778c-10.472 0-17.974 1.221-22.512 3.664l8.114 20.154m-90.035-17.8c-10.12 2.618-10.994 8.637-2.617 18.06l9.422-5.76-6.805-12.3m-3.926 18.846l1.046 1.833 8.637 12.302 8.114 2.88 9.423-3.142.524-13.61-4.71-12.563-2.096-.524-10.207 6.28-9.422 5.76-1.31.784m4.189-18.845h-.262l6.805 12.3 10.207-6.281c-.174-10.295-5.759-12.39-16.75-6.281v.262m65.433-40.569l-12.04-3.664-8.899 14.658 8.377 5.759-1.047 3.401-1.57 3.926 1.57-3.926-30.885-13.87-14.133 15.18 15.703 5.758 10.47 5.76 6.283 4.712 2.093 2.617 26.697-21.463-26.697 21.463-3.664 2.617-4.712 10.47 5.234 9.422-.784 8.114 2.355 2.096 9.423-.785 5.235 3.664-5.235-3.664-9.423.785c4.538 5.931 6.806 12.04 6.806 18.32l1.046-.261c1.57-2.618 3.839-5.932 6.803-9.945l18.322 1.046.262-.262 16.75-23.556-8.114-20.154c4.538-2.443 12.04-3.664 22.512-3.664l.26-10.47-.523-14.919c-5.584-.699-10.384-.699-14.397 0-6.63 1.047-10.819 3.664-12.562 7.852-.175.175-.262.437-.262.785-1.744 4.537-.96 10.818 2.355 18.845-3.317-8.027-4.101-14.308-2.355-18.845 0-.35.087-.612.262-.785l-11.516-17.017m-3.666 31.932l-5.757 24.08 24.08 7.853-24.08-7.852 5.757-24.08m81.399 90.557l.786-20.674-9.947-17.8-1.046-1.832-26.698 5.759-.524.262-.524.262-.785 34.023h38.738m-.262 8.376l.262-8.376h-38.735v51.562c21.288-11.169 34.112-25.562 38.473-43.186m.262-8.376l-.262 8.376c-4.361 17.624-17.185 32.02-38.473 43.186-.175.175.524.35 2.093.522l.786 1.835c19.892-.699 33.503-10.122 40.83-28.268 3.313-8.553 4.796-16.141 4.449-22.772-.35-7.677-3.227-15.616-8.637-23.818v.262l-.786 20.677m12.304-41.353l-18.32 1.047-3.142 1.833 9.947 17.799v-.263c5.409 8.202 8.286 16.141 8.636 23.818.35 6.631-1.134 14.219-4.448 22.772-7.33 18.146-20.939 27.567-40.83 28.268h-4.713c-19.892-.699-33.503-10.122-40.83-28.268-3.315-8.553-4.799-16.14-4.449-22.772.35-7.677 3.23-15.616 8.638-23.818v.263l10.47-17.275v-.26l-3.666-2.095-18.321-1.047c-2.967 4.014-5.235 7.328-6.804 9.945-.35.525-.699 1.047-1.046 1.571-3.839 6.456-6.63 12.912-8.377 19.368-4.71 16.228-2.792 32.541 5.76 48.942 6.106 11.341 14.307 20.24 24.602 26.698 9.073 5.407 18.408 8.374 28.006 8.896h16.748c25.127-1.743 43.186-14.83 54.18-39.258 6.455-14.133 8.111-28.18 4.972-42.139-1.047-4.712-2.617-9.423-4.71-14.133-3.146-6.63-7.245-13.261-12.303-19.892m-36.384-22.77l-.26-.261h-28.793l-.262.262-16.75 23.556 3.403 2.355 27.482 3.664h2.353l26.698-5.76-13.871-23.815m0 0l8.116-20.154c-4.538-2.443-12.04-3.664-22.51-3.664l-.261 11.778.262 11.778h14.135l.258.262m36.384-62.032l-12.04 3.664-11.255 17.013c0 .175.09.437.262.784 1.568 4.538.697 10.819-2.618 18.846 3.315-8.027 4.186-14.308 2.618-18.846-.175-.35-.262-.612-.262-.784-1.919-4.186-6.017-6.718-12.3-7.59-.175-.175-.35-.262-.525-.262-4.013-.7-8.813-.7-14.395 0l-.524 14.92-.26 10.469h.522c10.471 0 17.971 1.221 22.51 3.664l-8.117 20.154 13.873 23.816h4.188l18.321-1.047c5.058 6.63 9.159 13.261 12.3 19.892l15.178.524c-2.266-7.677-.173-15.703 6.285-24.078-6.458 8.375-8.549 16.401-6.285 24.078l-15.178-.524c2.093 4.71 3.664 9.423 4.71 14.133l4.45-1.57 14.656 3.141c1.746-.35 3.317-.7 4.713-1.046 7.85-2.096 11.515-5.585 10.991-10.47.524 4.885-3.142 8.377-10.991 10.47L521.7 229.578l5.233 24.082-30.36 26.174 14.136 2.09 28.788-27.22-1.573-18.32 6.808-2.618 8.898 22.51c16.403 9.772 16.928 23.033 1.573 39.784l7.85 4.71 8.899-8.374c7.504-11.516 10.121-21.636 7.851-30.362-9.248-2.792-13.608-9.07-13.086-18.843l15.702-4.188c-12.215-3.14-19.453-21.288-21.723-54.442-.173-.522-.262-1.133-.262-1.832l1.048-3.14-24.604-11.256 24.604 11.256c0-.175.088-.262.262-.262 13.085-40.306 6.456-54.616-19.892-42.924l-15.704 14.133 6.284 11.256 13.609-6.021-13.61 6.021-6.283-11.256 15.704-14.133-20.676-15.441-1.573.784-6.279 4.712 6.279-4.712 1.573-.784 8.898-4.973 15.704-5.759-14.133-15.18-23.033 13.61v2.617l-6.282 1.57 6.282-1.57v-2.618l-.523-8.898-8.894-14.658m15.702 66.48l5.235-9.423-4.71-10.47-30.362-24.077 30.361 24.08 4.71 10.47-5.234 9.42 1.047 10.47-12.038-1.047-5.235 3.663 5.235-3.663 12.038 1.046-1.047-10.47m-24.08-30.883l5.759 24.08-24.078 7.85 24.08-7.852-5.761-24.078z"/><path fill="none" stroke="#333" stroke-linecap="round" stroke-linejoin="round" d="M465.17 67.829v-1.047l-4.19-16.226-7.065 4.186 1.05 4.975 10.204 8.112 3.142 2.617-3.402 5.235-.262 3.926 5.237 6.28m-4.977-10.206l.262-7.852m-8.376 14.133l-.522-1.047-8.114.525 8.636.522h2.617l4.973 3.664.262-6.02-4.71-6.02-11.778-3.142-11.776 3.142-4.713 6.02.262 6.02 4.973-3.664h2.88l.262-1.047 8.112.525-8.375.522-4.974 9.423m21.985-9.423l4.712 9.423m2.878-5.76l2.881 2.096-2.357 6.019-1.833 4.188c.175 0 .35.087.524.262 6.281.872 10.382 3.404 12.3 7.59l11.256-17.013 12.04-3.664 8.899 14.658.522 8.898 23.033-13.608 14.134 15.18-15.704 5.758-8.899 4.973 20.677 15.441c26.348-11.69 32.976 2.618 19.892 42.924-.175 0-.263.087-.263.262-.35 1.047-.696 2.093-1.048 3.14 0 .699.09 1.308.262 1.832 2.27 33.154 9.508 51.303 21.723 54.442l.262.262c.876.175 1.833.262 2.88.262 9.595-2.617 6.628-15.878-8.899-39.784-5.757-22.51 0-29.662 17.273-21.463 0 .35.09.785.262 1.309.174 7.328-1.658 11.516-5.497 12.562M425.385 87.196l6.281-7.59v-3.925l-3.664-5.235 3.142-2.617v-1.047l4.188-16.226 7.066 4.186-1.047 4.975-1.833 8.114 8.636 2.617 8.637-2.617-1.831-8.114m66.22 61.242l-1.574.785-6.279 4.712m-4.712-17.797v2.618l-6.281 1.57m-3.664 51.822l5.234-3.663 12.038 1.046-1.046-10.47 5.235-9.422-4.71-10.47-30.36-24.077m56.795 28.79l-15.704 14.133 6.283 11.256 13.609-6.021M475.9 105.78c0 .175.09.437.262.784 1.568 4.538.697 10.819-2.618 18.846m-25.126-2.095c10.471 0 17.971 1.22 22.51 3.663l-8.117 20.155 13.873 23.815m4.188.003l18.321-1.047c5.058 6.63 9.159 13.261 12.3 19.892l15.178.524c-2.266-7.677-.173-15.703 6.285-24.078m-70.145-19.107l-.26-.262h-14.135m-.52 0H433.76l-.262.262-16.75 23.556m3.404 2.355l27.481 3.664h2.353l26.698-5.76 1.046 1.834m13.087-52.085l5.759 24.08-24.078 7.85m-21.463 112.547c19.892-.699 33.503-10.122 40.83-28.268 3.313-8.553 4.796-16.141 4.449-22.772-.35-7.677-3.227-15.616-8.637-23.818v.262l-.786 20.675-.262 8.376c-4.361 17.624-17.185 32.02-38.473 43.186-.175.174.524.35 2.093.522m.786 1.837l-2.355-1.049-2.355 1.05h4.71zm26.695-92.392l9.947 17.799m32.98 11.775l14.654 3.142c1.746-.35 3.317-.7 4.713-1.046 7.85-2.096 11.516-5.585 10.991-10.47m-39.52-4.188c2.093 4.71 3.664 9.423 4.71 14.133m90.298-5.497c-.175-6.106-3.84-12.477-10.991-19.105 11.688 5.41 17.185 3.838 16.486-4.713M464.907 93.74l-.524-8.114m97.102 93.963l-24.604-11.256m45.54 70.67l-15.7 4.188c-.523 9.772 3.84 16.051 13.086 18.843 2.27 8.726-.35 18.846-7.852 30.362l-8.899 8.374-7.85-4.71c15.355-16.75 14.83-30.012-1.573-39.784l-8.898-22.51-6.808 2.617 1.573 18.322-28.788 27.22-14.135-2.091 30.359-26.174-5.232-24.082 18.32-25.124m-23.817-.525c3.14 13.958 1.483 28.006-4.973 42.14-10.991 24.427-29.052 37.514-54.179 39.257h-16.748c-9.598-.522-18.933-3.489-28.006-8.896-10.295-6.458-18.496-15.357-24.603-26.698-8.549-16.403-10.469-32.714-5.759-48.942l-20.676 4.71H361m9.945 1.57l3.664 22.508M441.35 59.715l-10.207 8.114.522 7.852m1.57 22.247l-1.57-4.188-2.617-6.02 2.88-2.094-.263 8.114m-10.991 12.04l-11.516-17.013-12.04-3.664-8.899 14.658 8.377 5.759-1.047 3.401-1.57 3.926m-53.396 10.992l2.88 5.497h.262v-.262c10.994-6.107 16.576-4.014 16.75 6.28m2.096.525l4.71 12.562 10.993 10.994m2.878.262l.784-8.114-5.235-9.423 4.713-10.47 3.664-2.616m-2.093-2.618l-6.284-4.712-10.469-5.76-15.704-5.758 14.133-15.18 30.886 13.871m-56.01 39.264l1.309-.784c-8.377-9.423-7.503-15.442 2.617-18.06l6.805 12.3 10.207-6.28m-29.574 106.261l-16.49-1.046c-2.096-2.443-2.618-6.718-1.572-12.825.525-3.838 2.096-8.638 4.713-14.395 3.664-6.982 6.456-12.564 8.376-16.753 5.235-10.469 5.584-19.63 1.047-27.481-4.538-7.852-11.341-9.336-20.415-4.449v1.31c-.35 7.152 1.397 11.342 5.235 12.564m-17.799 6.28c.35-6.28 4.013-12.649 10.991-19.107-11.865 5.584-17.362 4.013-16.488-4.71m174.576-63.078c-4.013-.7-8.813-.7-14.395 0l-.524 14.92-.26 10.469h.522l-.262 11.778.262 11.778m-.262-34.026l-.523-14.92c-5.584-.698-10.384-.698-14.397 0-6.63 1.047-10.819 3.665-12.562 7.853-.175.175-.262.437-.262.784-1.744 4.538-.96 10.819 2.355 18.846m25.129 21.463l.26-11.778-.26-11.778c-10.472 0-17.974 1.221-22.512 3.664l8.114 20.154m-28.006-26.436l-5.757 24.08 24.08 7.853m-42.663 7.065v.262l-.262 1.571v.522h.522l2.095-.26m6.805 19.628l1.047-1.571-1.047.262v1.309c-3.838 6.456-6.63 12.912-8.376 19.368m1.57-38.998l9.424-.784 5.234 3.663m-14.657-2.879c4.538 5.932 6.805 12.04 6.805 18.321l-21.462 6.543m-1.57-38.213l-.523 13.611-9.423 3.142-8.114-2.88m-1.307-1.308c-3.664 7.327-4.363 18.32-2.095 32.978l-.262 2.88m2.617 3.926c2.617 2.093 6.893 3.664 12.825 4.71m-15.442-8.636c.35 1.221 1.046 2.355 2.095 3.401.175.175.35.35.522.525l-17.272 40.828-1.309 2.617c.175 9.248-4.188 15.18-13.084 17.797-2.268 8.726.35 18.846 7.852 30.362l8.898 8.374 7.852-4.71c-15.357-16.751-14.83-30.012 1.57-39.785l12.04-20.412 3.665.522c1.57 4.71 1.046 10.817-1.571 18.322 5.407 11.865 15.005 20.938 28.79 27.22l14.133-2.091-30.36-26.174c7.152-8.026 8.897-16.053 5.234-24.082m73.022-52.868l1.829.262h-.784l.26.262-.785 34.023h38.736m-39.518-34.025l1.309-.262-1.047-.263m-56.272 3.142c1.57-2.617 3.839-5.932 6.803-9.945l18.322 1.047.262-.263m3.404 2.358v.26l-10.47 17.274.785 20.675h37.689v51.564m-37.69-51.562l.263 8.376c4.885 18.846 16.75 33.24 35.594 43.186M409.68 190.58v-.262c-5.41 8.202-8.289 16.141-8.638 23.818-.35 6.631 1.136 14.219 4.448 22.772 7.327 18.146 20.938 27.567 40.83 28.268m.003-2.357c.172.175.524.35 1.048.522m-35.596-155.728l-26.697 21.463m-35.858 33.238l-8.637-12.302m.263-2.617l9.422-5.76m98.412-43.707l.26-13.349-1.307 13.349m-.262 165.413c.348.352.785.614 1.309.786a6.483 6.483 0 0 0 1.57-.786" stroke-width="2.18474"/></g></svg>