<?xml version="1.0" encoding="utf-8"?>
<!-- Generator: Adobe Illustrator 16.0.0, SVG Export Plug-In . SVG Version: 6.00 Build 0)  -->
<!DOCTYPE svg PUBLIC "-//W3C//DTD SVG 1.1//EN" "http://www.w3.org/Graphics/SVG/1.1/DTD/svg11.dtd">
<svg version="1.1" id="Layer_1" xmlns="http://www.w3.org/2000/svg" xmlns:xlink="http://www.w3.org/1999/xlink" x="0px" y="0px"
	 width="285px" height="427px" viewBox="0 0 285 427" enable-background="new 0 0 285 427" xml:space="preserve">
<g transform="matrix( 1, 0, 0, 1, 0,0) ">
	<g>
		<g id="Layer0_0_FILL">
			<path fill="#F7F7F7" d="M249.488,262.854c-21.725-13.024-42.295-22.519-61.71-28.483c0.305,6.025-1.278,13.389-4.746,22.093
				c-3.347,8.641-6.238,12.901-8.673,12.78l10.864,1.186l-1.278,121.141L285,392.846l-16.432-95.303
				C266.621,284.884,260.262,273.319,249.488,262.854 M227.579,327.575l3.927,62.168L227.579,327.575 M167.329,252.812
				c-2.128,2.981-2.706,8.216-1.732,15.701l8.488,0.638l0.274,0.093c2.435,0.121,5.326-4.14,8.673-12.78
				c3.468-8.704,5.051-16.067,4.746-22.093c-0.121-3.043-1.186-5.964-3.195-8.763c-2.494-3.651-5.811-5.934-9.95-6.847l2.647,23.46
				C174.604,245.69,171.286,249.221,167.329,252.812 M132.732,265.043c-16.675-5.233-25.134-16.614-25.378-34.141
				c-22.944,8.885-43.027,18.318-60.25,28.3c-12.597,6.938-19.504,15.063-20.722,24.373C15.732,311.204,6.938,346.261,0,388.738
				l54.772,0.912l5.295-66.184l-5.295,66.184l129.173,1.919l1.278-121.141l-10.864-1.186l-0.274-0.093l-8.488-0.638L132.732,265.043
				 M109.363,272.073c0.73,0.668,1.096,1.521,1.096,2.555c0,0.913-0.366,1.735-1.096,2.466c-0.669,0.729-1.522,1.095-2.556,1.095
				c-0.913,0-1.735-0.365-2.465-1.095c-0.669-0.73-1.005-1.553-1.005-2.466c0-1.034,0.335-1.887,1.005-2.555
				c0.73-0.731,1.552-1.097,2.465-1.097C107.841,270.977,108.693,271.342,109.363,272.073 M103.612,357.243
				c-1.096,0-2.039-0.396-2.831-1.186c-0.791-0.791-1.187-1.734-1.187-2.829c0-1.157,0.396-2.131,1.187-2.923
				c0.792-0.789,1.735-1.186,2.831-1.186c1.156,0,2.129,0.396,2.92,1.186c0.792,0.792,1.188,1.766,1.188,2.923
				c0,1.095-0.396,2.038-1.188,2.829C105.741,356.848,104.768,357.243,103.612,357.243 M174.359,280.654
				c-0.668,0.729-1.492,1.095-2.466,1.095c-0.973,0-1.825-0.365-2.555-1.095c-0.669-0.67-1.004-1.49-1.004-2.466
				c0-0.974,0.335-1.825,1.004-2.555c0.729-0.671,1.582-1.006,2.555-1.006c0.974,0,1.798,0.335,2.466,1.006
				c0.729,0.729,1.095,1.581,1.095,2.555C175.454,279.164,175.089,279.984,174.359,280.654 M167.97,359.618
				c-1.157,0-2.161-0.365-3.014-1.097c-0.789-0.85-1.186-1.825-1.186-2.92c0-1.157,0.396-2.161,1.186-3.014
				c0.853-0.789,1.856-1.186,3.014-1.186c1.095,0,2.07,0.396,2.921,1.186c0.791,0.853,1.187,1.856,1.187,3.014
				c0,1.095-0.396,2.07-1.187,2.92C170.04,359.253,169.064,359.618,167.97,359.618 M113.653,222.047
				c-1.826,1.097-3.226,2.373-4.2,3.835c-0.669,1.155-1.369,2.829-2.1,5.021c0.244,17.526,8.703,28.907,25.378,34.141
				c1.643-9.554-0.365-16.339-6.024-20.356l-7.03-4.383c-2.435-1.825-4.017-4.198-4.747-7.119L113.653,222.047 M183.123,167.274
				l6.024-40.349c-1.763-2.13-3.863-4.078-6.299-5.843c-2.129-1.643-4.472-3.165-7.028-4.564c-0.427-0.243-0.853-0.457-1.278-0.639
				c-2.131-1.034-4.32-1.978-6.572-2.83c-0.184-0.062-0.365-0.122-0.548-0.183c-0.305-0.121-0.549-0.213-0.73-0.274
				c-2.617-0.913-5.387-1.704-8.307-2.374l-0.366-0.091h-0.274l-0.547-0.091l-7.669-1.552c-0.424-0.062-0.881-0.122-1.369-0.183
				c-3.163-0.547-6.268-0.882-9.311-1.004c-3.286-0.244-6.481-0.305-9.585-0.183c-3.286,0.121-6.451,0.457-9.494,1.004
				c-2.86,0.487-5.721,1.126-8.581,1.917l-1.005,0.273c-2.343,0.875-3.864,2.275-4.564,4.199l-1.003,45.917
				c2.373-4.991,7.181-8.672,14.423-11.045c6.999-2.252,14.849-3.042,23.552-2.373c8.885,0.791,16.951,2.83,24.191,6.115
				C174.633,156.776,180.081,161.493,183.123,167.274z"/>
			<path fill="#EBC6AF" d="M174.633,218.761l-0.364-3.926c-3.712,7.912-8.49,14.059-14.333,18.44
				c-5.964,4.564-12.657,7.12-20.083,7.669c-11.563,0.363-20.297-5.934-26.199-18.897l1.277,11.138
				c0.73,2.921,2.313,5.294,4.747,7.119l7.03,4.383c5.66,4.018,7.667,10.803,6.024,20.356l32.865,3.47
				c-0.974-7.485-0.396-12.72,1.732-15.701c3.957-3.591,7.275-7.121,9.951-10.591L174.633,218.761 M104.616,160.427
				c-3.834-1.156-5.387,4.2-4.656,16.067c0.73,11.806,2.039,17.101,3.925,15.883C103.033,180.693,103.276,170.043,104.616,160.427
				 M119.039,149.382c-7.243,2.373-12.05,6.055-14.423,11.045c-1.339,9.616-1.583,20.266-0.73,31.951
				c-0.243,11.99,3.012,21.879,9.768,29.669c5.902,12.964,14.636,19.261,26.199,18.897c7.426-0.549,14.119-3.104,20.083-7.669
				c5.843-4.382,10.621-10.528,14.333-18.44c1.216-3.104,2.25-6.481,3.103-10.133l2.282-10.68c1.887-8.277,3.044-17.193,3.47-26.748
				c-3.042-5.781-8.49-10.498-16.341-14.15c-7.24-3.286-15.307-5.325-24.191-6.115C133.888,146.339,126.038,147.13,119.039,149.382
				 M118.856,167.183c0.183-0.122,0.396-0.213,0.639-0.274c2.191-0.73,4.261-0.76,6.208-0.092c0.244,0.062,0.488,0.152,0.731,0.274
				c1.643,0.73,3.226,2.038,4.746,3.925c-1.643,1.522-3.408,2.586-5.294,3.195c-0.243,0.061-0.517,0.091-0.821,0.091
				c-1.705,0.366-3.561,0.304-5.569-0.183c-0.183-0.122-0.396-0.212-0.639-0.274c-1.886-0.609-3.895-1.552-6.024-2.83
				C114.961,169.252,116.97,167.975,118.856,167.183 M130.998,173.482c-3.408,4.016-6.847,6.481-10.316,7.394
				C124.151,179.963,127.59,177.498,130.998,173.482 M131.18,164.354c-7.06-7.182-14.393-7.182-22,0
				C116.787,157.172,124.12,157.172,131.18,164.354 M153.546,167.548c0.062,0,0.122,0,0.184,0c1.704-0.122,3.498,0.244,5.384,1.095
				c0.121,0,0.215,0.03,0.275,0.092c2.313,0.913,4.686,2.374,7.121,4.382c-2.86,1.278-5.449,2.069-7.76,2.373
				c-0.121,0-0.244,0-0.365,0c-1.826,0.244-3.53,0.183-5.112-0.182c-0.061-0.062-0.121-0.092-0.184-0.092
				c-2.434-0.609-4.564-2.009-6.39-4.199C148.769,168.888,151.051,167.73,153.546,167.548 M146.333,173.299
				c1.766,3.348,4.353,5.721,7.76,7.121C150.686,179.02,148.099,176.647,146.333,173.299 M146.061,164.444
				c10.286-5.66,18.774-4.108,25.47,4.655C164.835,160.336,156.347,158.784,146.061,164.444 M142.227,200.229l12.872,5.204
				c-4.443,5.781-8.216,9.128-11.32,10.042c-2.313,0.729-4.626,0.974-6.938,0.729c-1.704-0.243-3.621-0.699-5.751-1.369
				c-2.861-2.008-5.386-5.539-7.577-10.589c-0.122-0.304-0.243-0.608-0.365-0.913l10.955-3.56l4.017,1.096L142.227,200.229
				 M152.451,189.183c2.313,5.782,5.081,9.707,8.307,11.776C157.532,198.89,154.764,194.965,152.451,189.183 M123.786,189.458
				c-1.339,4.991-4.442,8.977-9.312,11.958C119.344,198.434,122.447,194.448,123.786,189.458 M145.97,194.479
				c-6.452,1.095-10.833,1.034-13.146-0.183c-9.251-1.399-9.251-5.69,0-12.872c-9.251,7.182-9.251,11.473,0,12.872
				C135.136,195.513,139.518,195.573,145.97,194.479c6.512-1.096,6.176-5.447-1.006-13.055
				C152.146,189.031,152.481,193.383,145.97,194.479 M159.936,222.138c-6.756,8.216-14.361,11.928-22.822,11.138
				c-8.277-0.73-14.423-5.446-18.439-14.149c4.016,8.703,10.163,13.419,18.439,14.149
				C145.574,234.065,153.18,230.354,159.936,222.138 M189.238,169.739c-1.155-3.103-3.194-3.925-6.115-2.465
				c-0.426,9.555-1.583,18.471-3.47,26.748c2.254,1.399,4.353,0.547,6.3-2.557c1.825-2.617,3.073-6.238,3.742-10.863
				C190.365,176.038,190.212,172.417,189.238,169.739z"/>
			<path fill="#E09489" d="M123.512,204.246l0.547,0.092c-0.304-0.366-0.608-0.7-0.913-1.005
				C123.269,203.638,123.39,203.941,123.512,204.246 M155.099,205.433l-12.872-5.204l-4.108,0.639l-4.017-1.096l-10.955,3.56
				C132.093,203.151,142.743,203.851,155.099,205.433 M155.099,205.433c-0.61,0.243-1.188,0.487-1.735,0.73
				c-12.172,5.721-21.94,5.112-29.304-1.826l-0.547-0.092c2.19,5.051,4.716,8.581,7.577,10.589c2.13,0.67,4.047,1.126,5.751,1.369
				c2.313,0.244,4.625,0,6.938-0.729C146.883,214.562,150.655,211.214,155.099,205.433z"/>
			<path fill="#88B4FB" d="M159.113,168.643c-1.886-0.851-3.68-1.217-5.384-1.095c-2.01,1.704-2.161,4.29-0.457,7.76
				c1.582,0.364,3.286,0.426,5.112,0.182C160.21,173.604,160.454,171.321,159.113,168.643 M154.549,172.934
				c-0.424-0.304-0.638-0.73-0.638-1.278c0-0.548,0.214-1.035,0.638-1.461c0.306-0.304,0.731-0.457,1.279-0.457
				c0.486,0,0.942,0.152,1.369,0.457c0.305,0.426,0.456,0.913,0.456,1.461c0,0.547-0.151,0.974-0.456,1.278
				c-0.427,0.365-0.883,0.548-1.369,0.548C155.28,173.482,154.854,173.299,154.549,172.934 M119.495,166.909
				c-1.339,2.069-1.339,4.473,0,7.211c2.009,0.487,3.865,0.548,5.569,0.183c1.947-2.495,2.16-4.991,0.638-7.486
				C123.756,166.149,121.687,166.179,119.495,166.909 M122.417,172.204c-0.487,0-0.882-0.183-1.187-0.547
				c-0.365-0.305-0.548-0.761-0.548-1.369c0-0.487,0.183-0.913,0.548-1.278c0.304-0.366,0.7-0.547,1.187-0.547
				c0.609,0,1.096,0.182,1.46,0.547c0.305,0.365,0.457,0.792,0.457,1.278c0,0.608-0.152,1.064-0.457,1.369
				C123.512,172.021,123.025,172.204,122.417,172.204z"/>
			<path d="M153.911,171.656c0,0.547,0.214,0.974,0.638,1.278c0.306,0.365,0.731,0.548,1.279,0.548c0.486,0,0.942-0.183,1.369-0.548
				c0.305-0.304,0.456-0.73,0.456-1.278c0-0.548-0.151-1.035-0.456-1.461c-0.427-0.304-0.883-0.457-1.369-0.457
				c-0.548,0-0.974,0.152-1.279,0.457C154.125,170.622,153.911,171.108,153.911,171.656 M121.23,171.656
				c0.304,0.365,0.7,0.547,1.187,0.547c0.609,0,1.096-0.183,1.46-0.547c0.305-0.305,0.457-0.761,0.457-1.369
				c0-0.487-0.152-0.913-0.457-1.278c-0.365-0.366-0.852-0.547-1.46-0.547c-0.487,0-0.882,0.182-1.187,0.547
				c-0.365,0.365-0.548,0.792-0.548,1.278C120.682,170.895,120.865,171.352,121.23,171.656z"/>
			<path fill="#DDDDDD" d="M105.711,110.037l-0.092,1.917h0.092V110.037 M113.471,43.214c-2.739,2.008-4.869,4.381-6.39,7.12
				l-1.37,59.703v1.917c1.427-0.57,2.917-1.118,4.473-1.643l1.005-0.273L113.471,43.214 M143.504,34.725
				c-4.016,0.061-7.82,0.425-11.411,1.095l-2.83,71.296c3.104-0.122,6.299-0.062,9.585,0.183L143.504,34.725 M132.093,35.819
				c-1.826,0.305-3.56,0.7-5.203,1.188c-1.522,0.425-3.013,0.913-4.474,1.46l-2.647,69.653c3.043-0.547,6.208-0.883,9.494-1.004
				L132.093,35.819 M122.417,38.467c-3.469,1.279-6.451,2.861-8.946,4.748l-2.282,66.823c2.86-0.792,5.721-1.431,8.581-1.917
				L122.417,38.467 M155.919,35.181c-0.364-0.062-0.76-0.092-1.187-0.092l-6.573,73.213c0.488,0.061,0.945,0.121,1.369,0.183
				c0.792,0.061,1.583,0.183,2.375,0.365c1.826,0.305,3.591,0.701,5.294,1.188l0.547,0.091l7.943-73.304
				C162.522,36.094,159.267,35.546,155.919,35.181 M154.732,35.089c-3.835-0.365-7.577-0.487-11.229-0.365l-4.655,72.574
				c3.042,0.122,6.147,0.457,9.311,1.004L154.732,35.089 M199.28,58.368c-1.155-3.529-3.438-6.755-6.847-9.676l-9.585,72.391
				c2.436,1.765,4.536,3.712,6.299,5.843L199.28,58.368 M185.04,43.762c-0.427-0.304-0.883-0.547-1.369-0.73
				c-2.313-1.156-4.687-2.191-7.12-3.104c-3.287-1.217-6.725-2.221-10.316-3.012c-0.182-0.061-0.365-0.091-0.547-0.091
				l-7.943,73.304h0.274l0.366,0.091c2.92,0.67,5.689,1.461,8.307,2.374l8.49-72.666l-8.49,72.666
				c0.182,0.061,0.426,0.153,0.73,0.274c0.183,0.061,0.364,0.121,0.548,0.183c2.252,0.852,4.441,1.795,6.572,2.83l9.22-72.117
				l-9.22,72.117c0.426,0.183,0.852,0.396,1.278,0.639c2.557,1.4,4.899,2.921,7.028,4.564l9.585-72.391
				C190.426,46.926,187.962,45.283,185.04,43.762z"/>
		</g>
	</g>
	<g>
		
			<path id="Layer0_0_1_STROKES" fill="none" stroke="#FFFFFF" stroke-width="3.5" stroke-linecap="round" stroke-linejoin="round" d="
			M157.744,110.128l7.943-73.304 M166.691,112.593l8.49-72.666 M182.849,121.083l9.585-72.391 M138.849,107.298l4.655-72.574
			 M148.159,108.302l6.573-73.213 M111.188,110.037l2.282-66.823 M119.769,108.12l2.647-69.653 M174.542,115.879l9.22-72.117
			 M129.263,107.116l2.83-71.296"/>
	</g>
	<g>
		<path id="Layer0_0_2_STROKES" fill="none" stroke="#000000" stroke-width="2" stroke-linecap="round" stroke-linejoin="round" d="
			M192.434,48.691c-2.008-1.765-4.472-3.408-7.394-4.93c-0.427-0.304-0.883-0.547-1.369-0.73c-2.313-1.156-4.687-2.191-7.12-3.104
			c-3.287-1.217-6.725-2.221-10.316-3.012c-0.182-0.061-0.365-0.091-0.547-0.091 M157.744,110.128h0.274l0.366,0.091
			c2.92,0.67,5.689,1.461,8.307,2.374 M189.147,126.925l10.133-68.558c-1.155-3.529-3.438-6.755-6.847-9.676 M182.849,121.083
			c2.436,1.765,4.536,3.712,6.299,5.843l-6.024,40.349c2.921-1.46,4.96-0.638,6.115,2.465c0.974,2.678,1.127,6.299,0.457,10.864
			c-0.669,4.625-1.917,8.246-3.742,10.863c-1.947,3.104-4.046,3.956-6.3,2.557l-2.282,10.68c-0.853,3.651-1.887,7.029-3.103,10.133
			l0.364,3.926c4.14,0.913,7.456,3.195,9.95,6.847c2.01,2.799,3.074,5.72,3.195,8.763c19.415,5.965,39.985,15.459,61.71,28.483
			c10.773,10.466,17.133,22.03,19.08,34.689L285,392.846 M54.772,389.65l-0.274,2.923 M154.732,35.089
			c-3.835-0.365-7.577-0.487-11.229-0.365 M138.849,107.298c3.042,0.122,6.147,0.457,9.311,1.004 M154.732,35.089
			c0.427,0,0.822,0.03,1.187,0.092c3.348,0.365,6.604,0.913,9.769,1.643 M122.417,38.467c-3.469,1.279-6.451,2.861-8.946,4.748
			 M111.188,110.037c2.86-0.792,5.721-1.431,8.581-1.917 M122.417,38.467c1.46-0.547,2.952-1.035,4.474-1.46
			c1.643-0.488,3.377-0.883,5.203-1.188c3.591-0.669,7.395-1.034,11.411-1.095 M113.471,43.214c-2.739,2.008-4.869,4.381-6.39,7.12
			l-1.37,59.703v1.917 M110.23,110.311l0.958-0.273 M174.542,115.879c0.426,0.183,0.852,0.396,1.278,0.639
			c2.557,1.4,4.899,2.921,7.028,4.564 M166.691,112.593c0.182,0.061,0.426,0.153,0.73,0.274c0.183,0.061,0.364,0.121,0.548,0.183
			c2.252,0.852,4.441,1.795,6.572,2.83 M157.744,110.128l-0.547-0.091l-7.669-1.552c-0.424-0.062-0.881-0.122-1.369-0.183
			 M129.263,107.116c3.104-0.122,6.299-0.062,9.585,0.183 M105.711,111.954l-0.092,2.556c0.7-1.924,2.237-3.324,4.611-4.199
			 M119.769,108.12c3.043-0.547,6.208-0.883,9.494-1.004 M183.123,167.274c-3.042-5.781-8.49-10.498-16.341-14.15
			c-7.24-3.286-15.307-5.325-24.191-6.115c-8.703-0.669-16.553,0.121-23.552,2.373c-7.243,2.373-12.05,6.055-14.423,11.045
			c-1.339,9.616-1.583,20.266-0.73,31.951c-0.243,11.99,3.012,21.879,9.768,29.669c5.902,12.964,14.636,19.261,26.199,18.897
			c7.426-0.549,14.119-3.104,20.083-7.669c5.843-4.382,10.621-10.528,14.333-18.44 M105.619,114.51l-1.003,45.917
			c-3.834-1.156-5.387,4.2-4.656,16.067c0.73,11.806,2.039,17.101,3.925,15.883 M113.653,222.047
			c-1.826,1.097-3.226,2.373-4.2,3.835c-0.669,1.155-1.369,2.829-2.1,5.021c0.244,17.526,8.703,28.907,25.378,34.141
			c1.643-9.554-0.365-16.339-6.024-20.356l-7.03-4.383c-2.435-1.825-4.017-4.198-4.747-7.119L113.653,222.047z M110.458,274.628
			c0-1.034-0.366-1.887-1.096-2.555c-0.669-0.731-1.522-1.097-2.556-1.097c-0.913,0-1.735,0.365-2.465,1.097
			c-0.669,0.668-1.005,1.521-1.005,2.555c0,0.913,0.335,1.735,1.005,2.466c0.73,0.729,1.552,1.095,2.465,1.095
			c1.034,0,1.887-0.365,2.556-1.095C110.093,276.363,110.458,275.541,110.458,274.628z M132.732,265.043l32.865,3.47
			c-0.974-7.485-0.396-12.72,1.732-15.701c3.957-3.591,7.275-7.121,9.951-10.591l-2.647-23.46 M183.945,391.569l1.278-121.141
			l-10.864-1.186l-0.274-0.093l-8.488-0.638 M100.781,350.306c-0.791,0.792-1.187,1.766-1.187,2.923
			c0,1.095,0.396,2.038,1.187,2.829c0.792,0.79,1.735,1.186,2.831,1.186c1.156,0,2.129-0.396,2.92-1.186
			c0.792-0.791,1.188-1.734,1.188-2.829c0-1.157-0.396-2.131-1.188-2.923c-0.791-0.789-1.764-1.186-2.92-1.186
			C102.516,349.12,101.573,349.517,100.781,350.306z M171.894,274.628c-0.973,0-1.825,0.335-2.555,1.006
			c-0.669,0.729-1.004,1.581-1.004,2.555c0,0.976,0.335,1.796,1.004,2.466c0.729,0.729,1.582,1.095,2.555,1.095
			c0.974,0,1.798-0.365,2.466-1.095c0.729-0.67,1.095-1.49,1.095-2.466c0-0.974-0.365-1.825-1.095-2.555
			C173.691,274.963,172.867,274.628,171.894,274.628z M167.97,359.618c1.095,0,2.07-0.365,2.921-1.097
			c0.791-0.85,1.187-1.825,1.187-2.92c0-1.157-0.396-2.161-1.187-3.014c-0.851-0.789-1.826-1.186-2.921-1.186
			c-1.157,0-2.161,0.396-3.014,1.186c-0.789,0.853-1.186,1.856-1.186,3.014c0,1.095,0.396,2.07,1.186,2.92
			C165.809,359.253,166.813,359.618,167.97,359.618z M107.354,230.902c-22.944,8.885-43.027,18.318-60.25,28.3
			c-12.597,6.938-19.504,15.063-20.722,24.373C15.732,311.204,6.938,346.261,0,388.738 M60.067,323.467l-5.295,66.184
			 M187.778,234.37c0.305,6.025-1.278,13.389-4.746,22.093c-3.347,8.641-6.238,12.901-8.673,12.78 M227.579,327.575l3.927,62.168
			 M183.123,167.274c-0.426,9.555-1.583,18.471-3.47,26.748"/>
	</g>
	<g>
		<path id="Layer0_0_3_STROKES" fill="none" stroke="#000000" stroke-linecap="round" stroke-linejoin="round" d="M119.495,166.909
			c-0.243,0.061-0.456,0.152-0.639,0.274c-1.886,0.792-3.895,2.069-6.024,3.834c2.129,1.278,4.138,2.221,6.024,2.83
			c0.244,0.062,0.457,0.152,0.639,0.274C118.156,171.382,118.156,168.979,119.495,166.909c2.191-0.73,4.261-0.76,6.208-0.092
			c0.244,0.062,0.488,0.152,0.731,0.274c1.643,0.73,3.226,2.038,4.746,3.925c-1.643,1.522-3.408,2.586-5.294,3.195
			c-0.243,0.061-0.517,0.091-0.821,0.091c-1.705,0.366-3.561,0.304-5.569-0.183 M125.703,166.817
			c1.522,2.495,1.309,4.991-0.638,7.486 M130.998,173.482c-3.408,4.016-6.847,6.481-10.316,7.394 M153.272,175.308
			c-0.061-0.062-0.121-0.092-0.184-0.092c-2.434-0.609-4.564-2.009-6.39-4.199c2.069-2.129,4.352-3.287,6.847-3.469
			c0.062,0,0.122,0,0.184,0c1.704-0.122,3.498,0.244,5.384,1.095c0.121,0,0.215,0.03,0.275,0.092
			c2.313,0.913,4.686,2.374,7.121,4.382c-2.86,1.278-5.449,2.069-7.76,2.373c-0.121,0-0.244,0-0.365,0
			C156.559,175.734,154.854,175.672,153.272,175.308c-1.704-3.47-1.553-6.056,0.457-7.76 M146.333,173.299
			c1.766,3.348,4.353,5.721,7.76,7.121 M159.113,168.643c1.341,2.678,1.097,4.96-0.729,6.847 M155.099,205.433
			c-0.61,0.243-1.188,0.487-1.735,0.73c-12.172,5.721-21.94,5.112-29.304-1.826l-0.547-0.092c2.19,5.051,4.716,8.581,7.577,10.589
			c2.13,0.67,4.047,1.126,5.751,1.369c2.313,0.244,4.625,0,6.938-0.729C146.883,214.562,150.655,211.214,155.099,205.433
			c-12.355-1.583-23.006-2.282-31.952-2.101c0.305,0.305,0.609,0.639,0.913,1.005c7.12,3.651,16.888,4.26,29.304,1.826
			 M155.099,205.433l-12.872-5.204l-4.108,0.639l-4.017-1.096l-10.955,3.56c0.122,0.305,0.243,0.609,0.365,0.913 M152.451,189.183
			c2.313,5.782,5.081,9.707,8.307,11.776 M123.786,189.458c-1.339,4.991-4.442,8.977-9.312,11.958 M144.964,181.423
			c7.182,7.608,7.518,11.959,1.006,13.055c-6.452,1.095-10.833,1.034-13.146-0.183c-9.251-1.399-9.251-5.69,0-12.872
			 M159.936,222.138c-6.756,8.216-14.361,11.928-22.822,11.138c-8.277-0.73-14.423-5.446-18.439-14.149"/>
	</g>
	<g>
		<path id="Layer0_0_4_STROKES" fill="none" stroke="#4B3021" stroke-width="2" stroke-linecap="round" stroke-linejoin="round" d="
			M131.18,164.354c-7.06-7.182-14.393-7.182-22,0 M146.061,164.444c10.286-5.66,18.774-4.108,25.47,4.655"/>
	</g>
</g>
</svg>
