<svg xmlns="http://www.w3.org/2000/svg" width="285" height="427" viewBox="0 0 285 427"><path fill="#F7F7F7" d="M249.488 262.854c-21.725-13.024-42.295-22.519-61.71-28.483.305 6.025-1.278 13.389-4.746 22.093-3.347 8.641-6.238 12.901-8.673 12.78l10.864 1.186-1.278 121.141L285 392.846l-16.432-95.303c-1.947-12.659-8.306-24.224-19.08-34.689m-21.909 64.721l3.927 62.168-3.927-62.168m-60.25-74.763c-2.128 2.981-2.706 8.216-1.732 15.701l8.488.638.274.093c2.435.121 5.326-4.14 8.673-12.78 3.468-8.704 5.051-16.067 4.746-22.093-.121-3.043-1.186-5.964-3.195-8.763-2.494-3.651-5.811-5.934-9.95-6.847l2.647 23.46c-2.676 3.469-5.994 7-9.951 10.591m-34.597 12.231c-16.675-5.233-25.134-16.614-25.378-34.141-22.944 8.885-43.027 18.318-60.25 28.3-12.597 6.938-19.504 15.063-20.722 24.373C15.732 311.204 6.938 346.261 0 388.738l54.772.912 5.295-66.184-5.295 66.184 129.173 1.919 1.278-121.141-10.864-1.186-.274-.093-8.488-.638-32.865-3.468m-23.369 7.03c.73.668 1.096 1.521 1.096 2.555 0 .913-.366 1.735-1.096 2.466-.669.729-1.522 1.095-2.556 1.095-.913 0-1.735-.365-2.465-1.095-.669-.73-1.005-1.553-1.005-2.466 0-1.034.335-1.887 1.005-2.555.73-.731 1.552-1.097 2.465-1.097 1.034.001 1.886.366 2.556 1.097m-5.751 85.17c-1.096 0-2.039-.396-2.831-1.186-.791-.791-1.187-1.734-1.187-2.829 0-1.157.396-2.131 1.187-2.923.792-.789 1.735-1.186 2.831-1.186 1.156 0 2.129.396 2.92 1.186.792.792 1.188 1.766 1.188 2.923 0 1.095-.396 2.038-1.188 2.829-.791.791-1.764 1.186-2.92 1.186m70.747-76.589c-.668.729-1.492 1.095-2.466 1.095-.973 0-1.825-.365-2.555-1.095-.669-.67-1.004-1.49-1.004-2.466 0-.974.335-1.825 1.004-2.555.729-.671 1.582-1.006 2.555-1.006.974 0 1.798.335 2.466 1.006.729.729 1.095 1.581 1.095 2.555 0 .976-.365 1.796-1.095 2.466m-6.389 78.964c-1.157 0-2.161-.365-3.014-1.097-.789-.85-1.186-1.825-1.186-2.92 0-1.157.396-2.161 1.186-3.014.853-.789 1.856-1.186 3.014-1.186 1.095 0 2.07.396 2.921 1.186.791.853 1.187 1.856 1.187 3.014 0 1.095-.396 2.07-1.187 2.92-.851.732-1.827 1.097-2.921 1.097m-54.317-137.571c-1.826 1.097-3.226 2.373-4.2 3.835-.669 1.155-1.369 2.829-2.1 5.021.244 17.526 8.703 28.907 25.378 34.141 1.643-9.554-.365-16.339-6.024-20.356l-7.03-4.383c-2.435-1.825-4.017-4.198-4.747-7.119l-1.277-11.139m69.47-54.773l6.024-40.349c-1.763-2.13-3.863-4.078-6.299-5.843a53.6 53.6 0 0 0-7.028-4.564 12.688 12.688 0 0 0-1.278-.639 79.413 79.413 0 0 0-6.572-2.83l-.548-.183a15.807 15.807 0 0 0-.73-.274 78.541 78.541 0 0 0-8.307-2.374l-.366-.091h-.274l-.547-.091-7.669-1.552a67.063 67.063 0 0 0-1.369-.183 71.422 71.422 0 0 0-9.311-1.004 84.57 84.57 0 0 0-9.585-.183 67.704 67.704 0 0 0-9.494 1.004 86.91 86.91 0 0 0-8.581 1.917l-1.005.273c-2.343.875-3.864 2.275-4.564 4.199l-1.003 45.917c2.373-4.991 7.181-8.672 14.423-11.045 6.999-2.252 14.849-3.042 23.552-2.373 8.885.791 16.951 2.83 24.191 6.115 7.85 3.655 13.298 8.372 16.34 14.153z"/><path fill="#EBC6AF" d="M174.633 218.761l-.364-3.926c-3.712 7.912-8.49 14.059-14.333 18.44-5.964 4.564-12.657 7.12-20.083 7.669-11.563.363-20.297-5.934-26.199-18.897l1.277 11.138c.73 2.921 2.313 5.294 4.747 7.119l7.03 4.383c5.66 4.018 7.667 10.803 6.024 20.356l32.865 3.47c-.974-7.485-.396-12.72 1.732-15.701 3.957-3.591 7.275-7.121 9.951-10.591l-2.647-23.46m-70.017-58.334c-3.834-1.156-5.387 4.2-4.656 16.067.73 11.806 2.039 17.101 3.925 15.883-.852-11.684-.609-22.334.731-31.95m14.423-11.045c-7.243 2.373-12.05 6.055-14.423 11.045-1.339 9.616-1.583 20.266-.73 31.951-.243 11.99 3.012 21.879 9.768 29.669 5.902 12.964 14.636 19.261 26.199 18.897 7.426-.549 14.119-3.104 20.083-7.669 5.843-4.382 10.621-10.528 14.333-18.44 1.216-3.104 2.25-6.481 3.103-10.133l2.282-10.68c1.887-8.277 3.044-17.193 3.47-26.748-3.042-5.781-8.49-10.498-16.341-14.15-7.24-3.286-15.307-5.325-24.191-6.115-8.704-.67-16.554.121-23.553 2.373m-.183 17.801c.183-.122.396-.213.639-.274 2.191-.73 4.261-.76 6.208-.092.244.062.488.152.731.274 1.643.73 3.226 2.038 4.746 3.925-1.643 1.522-3.408 2.586-5.294 3.195a3.382 3.382 0 0 1-.821.091c-1.705.366-3.561.304-5.569-.183a2.058 2.058 0 0 0-.639-.274c-1.886-.609-3.895-1.552-6.024-2.83 2.128-1.763 4.137-3.04 6.023-3.832m12.142 6.299c-3.408 4.016-6.847 6.481-10.316 7.394 3.469-.913 6.908-3.378 10.316-7.394m.182-9.128c-7.06-7.182-14.393-7.182-22 0 7.607-7.182 14.94-7.182 22 0m22.366 3.194h.184c1.704-.122 3.498.244 5.384 1.095.121 0 .215.03.275.092 2.313.913 4.686 2.374 7.121 4.382-2.86 1.278-5.449 2.069-7.76 2.373h-.365c-1.826.244-3.53.183-5.112-.182-.061-.062-.121-.092-.184-.092-2.434-.609-4.564-2.009-6.39-4.199 2.07-2.129 4.352-3.287 6.847-3.469m-7.213 5.751c1.766 3.348 4.353 5.721 7.76 7.121-3.407-1.4-5.994-3.773-7.76-7.121m-.272-8.855c10.286-5.66 18.774-4.108 25.47 4.655-6.696-8.763-15.184-10.315-25.47-4.655m-3.834 35.785l12.872 5.204c-4.443 5.781-8.216 9.128-11.32 10.042-2.313.729-4.626.974-6.938.729-1.704-.243-3.621-.699-5.751-1.369-2.861-2.008-5.386-5.539-7.577-10.589l-.365-.913 10.955-3.56 4.017 1.096 4.107-.64m10.224-11.046c2.313 5.782 5.081 9.707 8.307 11.776-3.226-2.069-5.994-5.994-8.307-11.776m-28.665.275c-1.339 4.991-4.442 8.977-9.312 11.958 4.87-2.982 7.973-6.968 9.312-11.958m22.184 5.021c-6.452 1.095-10.833 1.034-13.146-.183-9.251-1.399-9.251-5.69 0-12.872-9.251 7.182-9.251 11.473 0 12.872 2.312 1.217 6.694 1.277 13.146.183 6.512-1.096 6.176-5.447-1.006-13.055 7.182 7.607 7.517 11.959 1.006 13.055m13.966 27.659c-6.756 8.216-14.361 11.928-22.822 11.138-8.277-.73-14.423-5.446-18.439-14.149 4.016 8.703 10.163 13.419 18.439 14.149 8.46.789 16.066-2.922 22.822-11.138m29.302-52.399c-1.155-3.103-3.194-3.925-6.115-2.465-.426 9.555-1.583 18.471-3.47 26.748 2.254 1.399 4.353.547 6.3-2.557 1.825-2.617 3.073-6.238 3.742-10.863.67-4.564.517-8.185-.457-10.863z"/><path fill="#E09489" d="M123.512 204.246l.547.092c-.304-.366-.608-.7-.913-1.005l.366.913m31.587 1.187l-12.872-5.204-4.108.639-4.017-1.096-10.955 3.56c8.946-.181 19.596.519 31.952 2.101m0 0c-.61.243-1.188.487-1.735.73-12.172 5.721-21.94 5.112-29.304-1.826l-.547-.092c2.19 5.051 4.716 8.581 7.577 10.589 2.13.67 4.047 1.126 5.751 1.369 2.313.244 4.625 0 6.938-.729 3.104-.912 6.876-4.26 11.32-10.041z"/><path fill="#88B4FB" d="M159.113 168.643c-1.886-.851-3.68-1.217-5.384-1.095-2.01 1.704-2.161 4.29-.457 7.76 1.582.364 3.286.426 5.112.182 1.826-1.886 2.07-4.169.729-6.847m-4.564 4.291c-.424-.304-.638-.73-.638-1.278s.214-1.035.638-1.461c.306-.304.731-.457 1.279-.457.486 0 .942.152 1.369.457.305.426.456.913.456 1.461 0 .547-.151.974-.456 1.278-.427.365-.883.548-1.369.548-.548 0-.974-.183-1.279-.548m-35.054-6.025c-1.339 2.069-1.339 4.473 0 7.211 2.009.487 3.865.548 5.569.183 1.947-2.495 2.16-4.991.638-7.486-1.946-.668-4.015-.638-6.207.092m2.922 5.295c-.487 0-.882-.183-1.187-.547-.365-.305-.548-.761-.548-1.369 0-.487.183-.913.548-1.278.304-.366.7-.547 1.187-.547.609 0 1.096.182 1.46.547.305.365.457.792.457 1.278 0 .608-.152 1.064-.457 1.369-.365.364-.852.547-1.46.547z"/><path d="M153.911 171.656c0 .547.214.974.638 1.278.306.365.731.548 1.279.548.486 0 .942-.183 1.369-.548.305-.304.456-.73.456-1.278s-.151-1.035-.456-1.461a2.318 2.318 0 0 0-1.369-.457c-.548 0-.974.152-1.279.457-.424.427-.638.913-.638 1.461m-32.681 0c.304.365.7.547 1.187.547.609 0 1.096-.183 1.46-.547.305-.305.457-.761.457-1.369 0-.487-.152-.913-.457-1.278-.365-.366-.852-.547-1.46-.547-.487 0-.882.182-1.187.547-.365.365-.548.792-.548 1.278 0 .608.183 1.065.548 1.369z"/><path fill="#DDD" d="M105.711 110.037l-.092 1.917h.092v-1.917m7.76-66.823c-2.739 2.008-4.869 4.381-6.39 7.12l-1.37 59.703v1.917a87.275 87.275 0 0 1 4.473-1.643l1.005-.273 2.282-66.824m30.033-8.489c-4.016.061-7.82.425-11.411 1.095l-2.83 71.296a84.338 84.338 0 0 1 9.585.183l4.656-72.574m-11.411 1.094c-1.826.305-3.56.7-5.203 1.188a54.75 54.75 0 0 0-4.474 1.46l-2.647 69.653a67.704 67.704 0 0 1 9.494-1.004l2.83-71.297m-9.676 2.648c-3.469 1.279-6.451 2.861-8.946 4.748l-2.282 66.823a86.343 86.343 0 0 1 8.581-1.917l2.647-69.654m33.502-3.286a7.089 7.089 0 0 0-1.187-.092l-6.573 73.213c.488.061.945.121 1.369.183.792.061 1.583.183 2.375.365 1.826.305 3.591.701 5.294 1.188l.547.091 7.943-73.304a83.649 83.649 0 0 0-9.768-1.644m-1.187-.092c-3.835-.365-7.577-.487-11.229-.365l-4.655 72.574a71.46 71.46 0 0 1 9.311 1.004l6.573-73.213m44.548 23.279c-1.155-3.529-3.438-6.755-6.847-9.676l-9.585 72.391c2.436 1.765 4.536 3.712 6.299 5.843l10.133-68.558m-14.24-14.606a5.99 5.99 0 0 0-1.369-.73 74.336 74.336 0 0 0-7.12-3.104 77.99 77.99 0 0 0-10.316-3.012 1.714 1.714 0 0 0-.547-.091l-7.943 73.304h.274l.366.091a78.61 78.61 0 0 1 8.307 2.374l8.49-72.666-8.49 72.666c.182.061.426.153.73.274l.548.183a79.075 79.075 0 0 1 6.572 2.83l9.22-72.117-9.22 72.117c.426.183.852.396 1.278.639 2.557 1.4 4.899 2.921 7.028 4.564l9.585-72.391c-2.007-1.767-4.471-3.41-7.393-4.931z"/><g><path fill="none" stroke="#FFF" stroke-width="3.5" stroke-linecap="round" stroke-linejoin="round" d="M157.744 110.128l7.943-73.304m1.004 75.769l8.49-72.666m7.668 81.156l9.585-72.391m-53.585 58.606l4.655-72.574m4.655 73.578l6.573-73.213m-43.544 74.948l2.282-66.823m6.299 64.906l2.647-69.653m52.126 77.412l9.22-72.117m-54.499 63.354l2.83-71.296"/></g><g><path fill="none" stroke="#000" stroke-width="2" stroke-linecap="round" stroke-linejoin="round" d="M192.434 48.691c-2.008-1.765-4.472-3.408-7.394-4.93a5.99 5.99 0 0 0-1.369-.73 74.336 74.336 0 0 0-7.12-3.104 77.99 77.99 0 0 0-10.316-3.012 1.714 1.714 0 0 0-.547-.091m-7.944 73.304h.274l.366.091a78.61 78.61 0 0 1 8.307 2.374m22.456 14.332l10.133-68.558c-1.155-3.529-3.438-6.755-6.847-9.676m-9.584 72.392c2.436 1.765 4.536 3.712 6.299 5.843l-6.024 40.349c2.921-1.46 4.96-.638 6.115 2.465.974 2.678 1.127 6.299.457 10.864-.669 4.625-1.917 8.246-3.742 10.863-1.947 3.104-4.046 3.956-6.3 2.557l-2.282 10.68c-.853 3.651-1.887 7.029-3.103 10.133l.364 3.926c4.14.913 7.456 3.195 9.95 6.847 2.01 2.799 3.074 5.72 3.195 8.763 19.415 5.965 39.985 15.459 61.71 28.483 10.773 10.466 17.133 22.03 19.08 34.689L285 392.846M54.772 389.65l-.274 2.923M154.732 35.089c-3.835-.365-7.577-.487-11.229-.365m-4.654 72.574a71.46 71.46 0 0 1 9.311 1.004m6.572-73.213c.427 0 .822.03 1.187.092 3.348.365 6.604.913 9.769 1.643m-43.271 1.643c-3.469 1.279-6.451 2.861-8.946 4.748m-2.283 66.822a86.343 86.343 0 0 1 8.581-1.917m2.648-69.653a54.625 54.625 0 0 1 4.474-1.46 43.349 43.349 0 0 1 5.203-1.188c3.591-.669 7.395-1.034 11.411-1.095m-30.034 8.49c-2.739 2.008-4.869 4.381-6.39 7.12l-1.37 59.703v1.917m4.519-1.643l.958-.273m63.354 5.841c.426.183.852.396 1.278.639 2.557 1.4 4.899 2.921 7.028 4.564m-16.157-8.489c.182.061.426.153.73.274l.548.183a79.075 79.075 0 0 1 6.572 2.83m-16.797-5.752l-.547-.091-7.669-1.552a67.063 67.063 0 0 0-1.369-.183m-18.896-1.186a84.338 84.338 0 0 1 9.585.183m-33.137 4.655l-.092 2.556c.7-1.924 2.237-3.324 4.611-4.199m9.539-2.191a67.704 67.704 0 0 1 9.494-1.004m53.86 60.158c-3.042-5.781-8.49-10.498-16.341-14.15-7.24-3.286-15.307-5.325-24.191-6.115-8.703-.669-16.553.121-23.552 2.373-7.243 2.373-12.05 6.055-14.423 11.045-1.339 9.616-1.583 20.266-.73 31.951-.243 11.99 3.012 21.879 9.768 29.669 5.902 12.964 14.636 19.261 26.199 18.897 7.426-.549 14.119-3.104 20.083-7.669 5.843-4.382 10.621-10.528 14.333-18.44m-68.65-100.325l-1.003 45.917c-3.834-1.156-5.387 4.2-4.656 16.067.73 11.806 2.039 17.101 3.925 15.883m9.768 29.67c-1.826 1.097-3.226 2.373-4.2 3.835-.669 1.155-1.369 2.829-2.1 5.021.244 17.526 8.703 28.907 25.378 34.141 1.643-9.554-.365-16.339-6.024-20.356l-7.03-4.383c-2.435-1.825-4.017-4.198-4.747-7.119l-1.277-11.139zm-3.195 52.581c0-1.034-.366-1.887-1.096-2.555-.669-.731-1.522-1.097-2.556-1.097-.913 0-1.735.365-2.465 1.097-.669.668-1.005 1.521-1.005 2.555 0 .913.335 1.735 1.005 2.466.73.729 1.552 1.095 2.465 1.095 1.034 0 1.887-.365 2.556-1.095.731-.731 1.096-1.553 1.096-2.466zm22.274-9.585l32.865 3.47c-.974-7.485-.396-12.72 1.732-15.701 3.957-3.591 7.275-7.121 9.951-10.591l-2.647-23.46m9.312 172.808l1.278-121.141-10.864-1.186-.274-.093-8.488-.638m-64.816 81.795c-.791.792-1.187 1.766-1.187 2.923 0 1.095.396 2.038 1.187 2.829.792.79 1.735 1.186 2.831 1.186 1.156 0 2.129-.396 2.92-1.186.792-.791 1.188-1.734 1.188-2.829 0-1.157-.396-2.131-1.188-2.923-.791-.789-1.764-1.186-2.92-1.186-1.096 0-2.039.397-2.831 1.186zm71.113-75.678c-.973 0-1.825.335-2.555 1.006-.669.729-1.004 1.581-1.004 2.555 0 .976.335 1.796 1.004 2.466.729.729 1.582 1.095 2.555 1.095.974 0 1.798-.365 2.466-1.095.729-.67 1.095-1.49 1.095-2.466 0-.974-.365-1.825-1.095-2.555-.669-.671-1.493-1.006-2.466-1.006zm-3.924 84.99c1.095 0 2.07-.365 2.921-1.097.791-.85 1.187-1.825 1.187-2.92 0-1.157-.396-2.161-1.187-3.014-.851-.789-1.826-1.186-2.921-1.186-1.157 0-2.161.396-3.014 1.186-.789.853-1.186 1.856-1.186 3.014 0 1.095.396 2.07 1.186 2.92.853.732 1.857 1.097 3.014 1.097zm-60.616-128.716c-22.944 8.885-43.027 18.318-60.25 28.3-12.597 6.938-19.504 15.063-20.722 24.373C15.732 311.204 6.938 346.261 0 388.738m60.067-65.271l-5.295 66.184M187.778 234.37c.305 6.025-1.278 13.389-4.746 22.093-3.347 8.641-6.238 12.901-8.673 12.78m53.22 58.332l3.927 62.168m-48.383-222.469c-.426 9.555-1.583 18.471-3.47 26.748"/></g><g><path fill="none" stroke="#000" stroke-linecap="round" stroke-linejoin="round" d="M119.495 166.909a2.034 2.034 0 0 0-.639.274c-1.886.792-3.895 2.069-6.024 3.834 2.129 1.278 4.138 2.221 6.024 2.83.244.062.457.152.639.274-1.339-2.739-1.339-5.142 0-7.212 2.191-.73 4.261-.76 6.208-.092.244.062.488.152.731.274 1.643.73 3.226 2.038 4.746 3.925-1.643 1.522-3.408 2.586-5.294 3.195a3.382 3.382 0 0 1-.821.091c-1.705.366-3.561.304-5.569-.183m6.207-7.302c1.522 2.495 1.309 4.991-.638 7.486m5.933-.821c-3.408 4.016-6.847 6.481-10.316 7.394m32.59-5.568c-.061-.062-.121-.092-.184-.092-2.434-.609-4.564-2.009-6.39-4.199 2.069-2.129 4.352-3.287 6.847-3.469h.184c1.704-.122 3.498.244 5.384 1.095.121 0 .215.03.275.092 2.313.913 4.686 2.374 7.121 4.382-2.86 1.278-5.449 2.069-7.76 2.373h-.365c-1.825.244-3.53.182-5.112-.182-1.704-3.47-1.553-6.056.457-7.76m-7.396 5.751c1.766 3.348 4.353 5.721 7.76 7.121m5.02-11.777c1.341 2.678 1.097 4.96-.729 6.847m-3.285 29.943c-.61.243-1.188.487-1.735.73-12.172 5.721-21.94 5.112-29.304-1.826l-.547-.092c2.19 5.051 4.716 8.581 7.577 10.589 2.13.67 4.047 1.126 5.751 1.369 2.313.244 4.625 0 6.938-.729 3.104-.912 6.876-4.26 11.32-10.041-12.355-1.583-23.006-2.282-31.952-2.101.305.305.609.639.913 1.005 7.12 3.651 16.888 4.26 29.304 1.826m1.735-.73l-12.872-5.204-4.108.639-4.017-1.096-10.955 3.56.365.913m28.939-15.062c2.313 5.782 5.081 9.707 8.307 11.776m-36.972-11.501c-1.339 4.991-4.442 8.977-9.312 11.958m30.49-19.993c7.182 7.608 7.518 11.959 1.006 13.055-6.452 1.095-10.833 1.034-13.146-.183-9.251-1.399-9.251-5.69 0-12.872m27.112 40.715c-6.756 8.216-14.361 11.928-22.822 11.138-8.277-.73-14.423-5.446-18.439-14.149"/></g><g><path fill="none" stroke="#4B3021" stroke-width="2" stroke-linecap="round" stroke-linejoin="round" d="M131.18 164.354c-7.06-7.182-14.393-7.182-22 0m36.881.09c10.286-5.66 18.774-4.108 25.47 4.655"/></g></svg>