<svg xmlns="http://www.w3.org/2000/svg" width="900" height="450" viewBox="0 0 900 450"><path fill="#D9A537" d="M626.825 377.833l-2.057 2.057a108.63 108.63 0 0 0 3.215-3.086c-.429.341-.814.685-1.158 1.029m5.016-146.979a114.263 114.263 0 0 1 4.372-3.602c-.55.406-1.107.836-1.672 1.285a77.434 77.434 0 0 0-2.7 2.317m35.106-19.675l-9.903 3.085c-1.115.515-2.228 1.03-3.343 1.543l-14.145 8.874c-.556.411-1.113.838-1.671 1.286l-1.673 1.285a114.263 114.263 0 0 0-4.372 3.602l-21.346 20.06c-.085.088-.171.173-.256.258a1.555 1.555 0 0 0-.259.385c-.086 0-.171.088-.256.259-.088.085-.214.213-.387.384a17.794 17.794 0 0 0-1.671 1.929 1.6 1.6 0 0 0-.387.259 1.519 1.519 0 0 0-.387.257 1.968 1.968 0 0 0-.384.515.842.842 0 0 0-.387.384c-.086.086-.214.217-.385.387a21 21 0 0 1-.259.257v.131l66.483-45.651h-1.158a33.432 33.432 0 0 0-3.854.511m2.956-.515h.901a39.683 39.683 0 0 1 4.501 0 28.49 28.49 0 0 0-5.402 0m.902 0h-.901c-.942.087-1.929.257-2.956.515a34.286 34.286 0 0 1 3.857-.515M435.74 381.176l-38.19-12.859 30.604 13.887c-13.459 3.517-25.461 6.302-36.006 8.358 12.517-2.143 27.047-5.272 43.592-9.386M318.337 354.3c-1.286 4.802 4.415 6.901 17.102 6.302 22.461 1.198 43.165 3.77 62.11 7.715l38.19 12.859h11.573-11.572c-16.545 4.114-31.075 7.243-43.592 9.386l-10.159 1.801c-24.175 3.687-39.606 2.66-46.292-3.087 22.29 23.232 61.08 38.708 116.375 46.424 76.125-5.314 133.689-23.92 172.696-55.81l-.644-.771-1.285-1.417 1.285 1.417.644.771 2.057-2.057c.344-.344.729-.688 1.158-1.029a83.554 83.554 0 0 1 2.571-2.186l10.931-11.061c.686-.771 1.374-1.542 2.057-2.313.603-.6 1.246-1.2 1.929-1.801l13.374-16.073.644-.899c.394-.49.78-1.005 1.157-1.545 22.891-30.176 35.749-61.979 38.577-95.413l.256-3.343.387-7.715v-3.858l-20.188-19.16-4.372-.772a39.683 39.683 0 0 0-4.501 0h1.158l-66.483 45.651v-.131a75.398 75.398 0 0 0-2.313 2.702l-39.735 48.992 1.286 1.027-1.286-1.027c-43.809-7.974-87.229-6.944-130.263 3.087 2.401 2.999 4.544 10.714 6.429 23.146 1.629 12.256 6.944 28.031 15.946 47.319-9.002-19.288-14.317-35.063-15.946-47.319-1.885-12.433-4.028-20.147-6.429-23.146-1.029 1.799-3 2.7-5.915 2.7.6 24.088 7.158 43.806 19.674 59.151-12.516-15.346-19.074-35.063-19.674-59.151-54.694 6.686-91 20.23-108.917 40.634m263.226-27.391l15.175 12.088c4.973 4.116 9.215 8.188 12.729 12.216 2.657 2.916 4.93 5.83 6.816 8.746a93.863 93.863 0 0 1 2.443 3.857 126.434 126.434 0 0 1-7.072-4.245 115.448 115.448 0 0 1-9.517-7.2c-4.199-3.431-8.443-7.328-12.73-11.701h-.129c-1.114-1.2-2.27-2.443-3.471-3.729l-3.602-3.986c-3.772-4.201-7.63-8.787-11.573-13.761l.257.259c.085 0 .171.043.259.128a61.095 61.095 0 0 1 3.729 2.7 235.95 235.95 0 0 1 6.686 4.628m-84.356-114.444a97.821 97.821 0 0 1-13.245-3.729 153.65 153.65 0 0 1-4.501-1.671c-9.087 3.772-18.473 5.915-28.16 6.429l65.967 23.146c58.036 3.943 87.441 10.458 88.212 19.545a21 21 0 0 0 .259-.257c.171-.17.299-.301.385-.387a.842.842 0 0 1 .387-.384c.085-.173.213-.344.384-.515.086-.086.216-.171.387-.257a1.6 1.6 0 0 1 .387-.259 17.794 17.794 0 0 1 1.671-1.929c.173-.171.299-.299.387-.384.085-.171.17-.259.256-.259.088-.171.173-.299.259-.385.085-.085.171-.17.256-.258l21.346-20.06a77.426 77.426 0 0 1 2.7-2.316 57.98 57.98 0 0 1 1.672-1.285l1.673-1.285a54.268 54.268 0 0 1 1.671-1.286l14.145-8.874 3.343-1.543 9.903-3.085a19.642 19.642 0 0 1 2.956-.515l-102.357.129-.771.256-4.757.9h-.259c-19.804 3.857-38.147 4.63-55.035 2.314a6.179 6.179 0 0 0-1.673-.256 402.907 402.907 0 0 0-4.244-.772 983.647 983.647 0 0 1-3.604-.768m-170.769-83.07c-10.458 11.06-24.218 16.074-41.277 15.045 17.488 2.486 31.247-2.529 41.277-15.045M186.404 92.232l-1.286-.643a5.013 5.013 0 0 0-1.029-.386c-2.658-.943-5.273-1.63-7.845-2.058l-23.532 2.314c-12.859 4.801-25.633 15.388-38.32 31.762-16.889 23.574-22.418 53.965-16.589 91.171h23.146-23.145c-1.028 32.576 7.758 60.481 26.361 83.714 18.432 23.316 34.206 36.861 47.321 40.634 10.802 3.172 20.917 6.302 30.348 9.386-24.261-10.373-43.978-45.949-59.151-106.73 2.314-5.399 2.657-10.971 1.028-16.715a34.975 34.975 0 0 0-1.671-3.858c-.772-1.972-1.843-3.9-3.215-5.787 1.372 1.886 2.442 3.815 3.215 5.787a34.785 34.785 0 0 1 1.671 3.858l7.073 19.545a140.439 140.439 0 0 1 20.317 10.159c15.688 9.087 28.547 21.603 38.577 37.548 11.488 18.174 17.703 24.304 18.646 18.39-1.371-35.579-9.858-66.44-25.46-92.587-15.603-25.976-23.532-39.648-23.79-41.02-2.572.256-6.044-2.916-10.415-9.516l-25.718 37.034 25.718-37.034c-1.458-2.229-1.973-3.986-1.543-5.271-16.203 8.229-26.619 23.574-31.247 46.035 4.628-22.461 15.044-37.806 31.247-46.035-11.23-15.003-18.045-24.133-20.446-27.391 2.401 3.258 9.216 12.388 20.446 27.391-.43 1.286.085 3.042 1.543 5.271 4.371 6.6 7.843 9.772 10.415 9.516 6.858-7.544 11.874-16.503 15.045-26.876.085-.257.171-.558.257-.9.256-.771.514-1.671.771-2.7.429-1.629.815-3.215 1.158-4.758 2.828-15.26.986-30.99-5.53-47.193-.771-.343-1.5-.686-2.186-1.028l-1.801-.9-.384-.129m433.608 83.713a186.031 186.031 0 0 0 9.258-2.572 867.042 867.042 0 0 0 8.102-2.83c-2.66.858-5.357 1.715-8.102 2.572a190.289 190.289 0 0 1-9.258 2.83m-17.875 4.115c.515 0 1.07-.042 1.673-.128l16.202-3.987c3.086-.858 6.171-1.8 9.258-2.83a891.379 891.379 0 0 0 8.102-2.572l23.402-9.257c.174 0 .259-.043.259-.129l21.474-11.316a396.608 396.608 0 0 1 4.501-2.957c2.401-1.629 4.757-3.215 7.072-4.758 6.214-5.229 12.433-10.458 18.646-15.688l-73.04-56.966C544.271 26.952 455.071 9.72 372.088 17.778c-50.063 5.744-87.742 16.932-113.03 33.563L240.54 66.515a25.006 25.006 0 0 0-2.057 2.314h-.129v.128l1.543-.386-1.543.386a45.816 45.816 0 0 0-1.929 2.315l-2.958 3.858c-3.515 4.972-6.3 10.201-8.358 15.687.085.515.215 1.072.386 1.673a36.51 36.51 0 0 0 1.286 4.628c.087.515.258 1.029.515 1.543 0 .085.042.171.128.257l.387 1.157c2.057 5.315 5.144 10.417 9.258 15.303 5.058 5.829 11.617 11.316 19.675 16.459l28.418 12.602c17.06 1.028 30.819-3.986 41.277-15.045a9.447 9.447 0 0 1-.256-4.371c.428-3.515 1.929-6.172 4.5-7.973s5.572-2.271 9.001-1.414c3.343.942 6 2.915 7.972 5.915 1.628 2.229 2.486 4.543 2.572 6.944.429.256.815.514 1.158.771l5.529 2.829c.751.364 1.479.707 2.186 1.028-.343-1.714-.986-3.472-1.929-5.271.943 1.799 1.586 3.558 1.929 5.271a38.23 38.23 0 0 0 1.929.9l2.187 1.029 29.446 7.587h.129c4.372.343 8.872.428 13.502.256l.9.257c.771-1.628 1.885-3 3.343-4.115 2.486-1.714 5.443-2.143 8.873-1.286 3.428.858 6.129 2.829 8.101 5.916 2.142 3 2.958 6.3 2.442 9.902 0 1.114-.171 2.142-.514 3.085 8.487 11.745 20.917 19.546 37.291 23.403 56.068 13.547 101.203 13.547 135.407.003z"/><path fill="#D38A2B" d="M660.646 340.926c-.377.54-.764 1.055-1.157 1.545.396-.462.78-.935 1.157-1.417v-.128m0 .128a41.28 41.28 0 0 0 2.315-.643c-.751.216-1.479.387-2.188.515h-.128v.128m21.989-5.914l-19.673 5.271c-.769.236-1.542.452-2.315.643-.377.482-.761.955-1.157 1.417l-.644.899-13.374 16.073a43.098 43.098 0 0 0-1.929 1.801h1.03c.6 0 1.242.043 1.929.128l18.259.257c9.086 0 18.261-.171 27.519-.513v-.643c14.145-9.946 10.93-18.389-9.645-25.333m16.717-89.627c.088-1.115.128-2.228.128-3.343l-.256 3.343h.128m31.763 36.904a11.54 11.54 0 0 0-3.215-1.285c-2.06-.601-4.202-.729-6.43-.385l-2.315.256-36.521 54.137c20.575 6.944 23.79 15.388 9.645 25.334 20.146-12.859 38.921-29.104 56.323-48.736l-17.487-29.321m-12.346-8.873l-2.057 1.417v.128l2.057-1.545m-1.414 2.572l2.7-1.027 1.673-.771 1.285-3.857-.771.643-3.474 2.441-2.057 1.545.644 1.026m10.929-30.089v-.902c-2.142-23.917 6.816-36.991 26.877-39.22-14.487-11.829-62.025-16.202-142.607-13.115-.086.085-.171.128-.257.128v.128l-5.658 3.087-17.36 8.744c-7.544 2.314-14.787 4.286-21.731 5.916l102.357-.129a28.49 28.49 0 0 1 5.402 0l4.372.772 20.188 19.16v3.858l-.387 7.715c0 1.115-.04 2.228-.128 3.343l28.932.515m31.505-32.148c-.171-3-1.715-5.657-4.628-7.973-20.061 2.229-29.019 15.303-26.877 39.22l1.801.387c4.373-18.86 14.273-29.405 29.704-31.634m8.231 29.961l.128 2.831a63.43 63.43 0 0 1 0 5.786v.257l37.42-17.36-.385-1.029c-4.372-10.629-12.646-11.702-24.818-3.215l-12.731 8.745c.17 1.286.301 2.614.386 3.985m-.387-3.986l-.128.128c.173 1.2.344 2.486.515 3.857a57.081 57.081 0 0 0-.387-3.985m-.128.128v-.128c-.128-.965-.256-1.949-.385-2.959l-.643-3.471-6.688-18.388v-1.158c-15.431 2.229-25.331 12.774-29.704 31.634l1.93.515-2.058 5.656-3.214 9.002-3.215 8.745-.516 1.029-1.285 3.857-1.673 4.242-.899 2.443 2.315-.256c2.228-.344 4.37-.216 6.43.385a11.57 11.57 0 0 1 3.215 1.285l17.487 29.32c12.26-20.748 18.774-40.162 19.545-58.253v-.384-.387-.257a63.43 63.43 0 0 0 0-5.786l-.128-2.831c-.17-1.368-.341-2.654-.514-3.855l-.899.643.899-.643m.128-.128h-.128v.128l.128-.128m-623.921-15.173c1.629 5.745 1.286 11.316-1.028 16.715 15.173 60.781 34.89 96.357 59.151 106.73h.258c.085 0 .17.045.256.13.257.086.558.214.9.385l.386.128c3.259-27.86-7.586-59.322-32.533-94.384a140.439 140.439 0 0 0-20.317-10.159l-7.073-19.545m22.761 65.452l16.717-2.313-16.717 2.313m-9.13-16.717l17.746-3.087-17.746 3.087m17.231 37.163l16.074-4.244-16.074 4.244m207.417 81.783l10.159-1.801c10.545-2.057 22.546-4.842 36.006-8.358l-30.604-13.887c-33.776 5.915-54.395 12.902-61.853 20.959 6.686 5.747 22.117 6.774 46.292 3.087m-24.818-10.028l3.729 8.742-3.729-8.742m14.402-3.602l5.271 9.129-5.271-9.129m15.046-2.057l5.915 8.487-5.915-8.487m210.117-37.678l-15.175-12.088a236.587 236.587 0 0 0-6.686-4.629 61.095 61.095 0 0 0-3.729-2.7c-.088-.085-.174-.128-.259-.128l-.257-.259c3.943 4.974 7.801 9.56 11.573 13.761l3.602 3.986c1.201 1.286 2.356 2.529 3.471 3.729h.129c4.287 4.373 8.531 8.271 12.73 11.701 3.172 2.657 6.344 5.059 9.517 7.2a126.434 126.434 0 0 0 7.072 4.245 93.863 93.863 0 0 0-2.443-3.857c-1.887-2.916-4.159-5.83-6.816-8.746-3.514-4.027-7.756-8.099-12.729-12.215M278.86 143.154a495.46 495.46 0 0 0-18.646-7.33c6.601 3.344 12.816 5.787 18.646 7.33m3.987 1.029h.128a59.166 59.166 0 0 0-.385-.128l.257.128m-49.38-30.219v-.256l-7.715-3.344 7.715 3.6m3.601 1.415l-3.601-1.671v.256c3.344 6.173 10.159 12.646 20.447 19.418l6.3 2.442a493.759 493.759 0 0 1 18.646 7.33l.129.129h.257c-8.488-3.602-15.989-7.417-22.503-11.445-8.058-5.143-14.617-10.63-19.675-16.459m-34.077-15.56v-.129l-3.471-1.543 3.471 1.672m0 1.158v-1.158l-3.471-1.671-10.931-4.886c.686.343 1.414.686 2.186 1.028 6.516 16.203 8.358 31.933 5.53 47.193l1.542 7.33c19.631 4.543 36.263 13.03 49.894 25.461 43.378 30.947 95.971 41.149 157.78 30.604-8.314-2.829-20.317-10.373-36.005-22.631l-84.355-37.806a7.276 7.276 0 0 0-1.414-.128h-.387a1.549 1.549 0 0 0-.386-.129h-.128l-.257-.128a139.24 139.24 0 0 1-2.7-.515.54.54 0 0 0-.258-.128h-.129c-.085-.085-.17-.128-.256-.128h-.257l-.129-.129c-5.83-1.543-12.044-3.986-18.646-7.33l-6.3-2.442c-10.288-6.772-17.103-13.245-20.447-19.418l-7.715-3.601-17.745-8.358-5.016-2.186v1.156m33.434-29.705c.6-.772 1.243-1.543 1.929-2.315l-5.144 1.158-35.49 7.973c6.429.17 8.144 6.515 5.144 19.031h23.917c-.513-1.457-.943-3-1.286-4.628-.171-.601-.3-1.158-.386-1.673 2.059-5.486 4.844-10.715 8.358-15.687l2.958-3.859m1.929-2.315v-.128l-5.144 1.286 5.144-1.158m-51.437 22.761l-.128.643 1.801.9 10.931 4.886 3.471 1.543c0-.857-.042-1.714-.128-2.572 3-12.516 1.286-18.86-5.144-19.031-1.972-.087-4.329.428-7.073 1.543l-.643.256-3.087 11.832m-1.799-.128l1.286.643-1.415-.772.129.129m591.902 76.254h-.128c-.344-.085-.6-.128-.771-.128h-.643l-19.932 16.717 24.816 46.677c12.173-8.487 20.446-7.414 24.818 3.215l-23.917-64.937-2.06-.772-2.183-.772m-.128 0l-1.673-.771-1.157-.387-59.151-21.603c-6.171 1.972-10.544 10.374-13.115 25.204l53.752 14.146 19.932-16.717h.643c.169 0 .425.042.769.128m-94.386-18.003a390.294 390.294 0 0 1 4.757-2.957h-.256a396.608 396.608 0 0 0-4.501 2.957m-48.478 30.219l.771 1.029 66.995-10.801c2.571-14.83 6.944-23.232 13.115-25.204l-27.647 1.801a390.294 390.294 0 0 0-4.757 2.957l-21.474 11.316c0 .086-.085.129-.259.129L640.84 175.56a854.179 854.179 0 0 1-6.812 4.5z"/><path fill="#B3631E" d="M612.553 192.791h-.516l.259.256v-.128c.086 0 .171-.043.257-.128m-253.452-59.539v-.128a96.325 96.325 0 0 1-2.186-1.028c.749.385 1.478.771 2.186 1.156m0-.128v.128l1.929.772a37.826 37.826 0 0 1-1.929-.9m-30.347 1.543c-1.201-1.628-1.973-3.387-2.315-5.273-10.03 12.516-23.79 17.532-41.277 15.045l84.355 37.806c15.688 12.259 27.691 19.802 36.005 22.631 18.86 6.43 34.12 9.301 45.779 8.616 9.688-.515 19.073-2.657 28.16-6.429a44.143 44.143 0 0 1-5.144-2.187c-42.691-27.604-74.068-44.234-94.127-49.893-1.801-.515-3.429-.9-4.887-1.158-3 3.087-5.229 6.516-6.686 10.288 1.457-3.771 3.686-7.201 6.686-10.288-1.8-.343-3.471-.556-5.015-.643a24.797 24.797 0 0 0-2.443-.128l-11.831 3.986 11.831-3.986c.772 0 1.586.043 2.443.128 1.543.087 3.215.3 5.015.643 4.2-4.371 9.987-8.101 17.359-11.186l-29.446-7.587-2.187-1.029-1.929-.772c1.458 7.459-1.543 15.345-9.001 23.661 7.458-8.316 10.459-16.202 9.001-23.661-.708-.386-1.437-.771-2.186-1.157l-5.529-2.829a13.293 13.293 0 0 0-1.158-.771v2.957c-.343 3.43-1.8 6.044-4.372 7.844-2.657 1.801-5.616 2.229-8.873 1.286-3.342-.856-6.086-2.828-8.228-5.914m275.056 45.265c-.603.085-1.158.128-1.673.128-34.204 13.545-79.339 13.545-135.406 0-16.373-3.857-28.804-11.658-37.291-23.403-.858 1.971-2.144 3.558-3.858 4.758-.772.601-1.671 1.071-2.701 1.414-.943.857-2.142 1.286-3.6 1.286-4.458 0-7.929-1.929-10.416-5.787-1.286-2.228-2.058-4.071-2.314-5.529a12.08 12.08 0 0 1-.515-5.529c.172-1.628.558-3 1.158-4.115l-.9-.257c-4.63.172-9.131.087-13.502-.256h-.129c-7.373 3.085-13.159 6.815-17.359 11.186 1.458.257 3.086.643 4.887 1.158 20.06 5.659 51.436 22.289 94.127 49.893a44.143 44.143 0 0 0 5.144 2.187c1.545.6 3.044 1.158 4.501 1.671a97.676 97.676 0 0 0 13.245 3.729l3.6.771c1.457.257 2.873.515 4.244.772.516 0 1.07.085 1.673.256 16.888 2.316 35.231 1.543 55.035-2.314h.259l4.757-.9.771-.256c6.944-1.63 14.188-3.602 21.731-5.916l17.36-8.744 5.658-3.087-.259-.256h.516l16.201-9.388a277.187 277.187 0 0 0 5.274-3.343 872.579 872.579 0 0 0 6.813-4.5l19.932-14.273-23.402 9.257c-2.66.943-5.357 1.886-8.102 2.83a186.031 186.031 0 0 1-9.258 2.572l-16.201 3.985z"/><path d="M415.938 141.482c-6.344-1.628-9.516 1.801-9.516 10.288 0 .343.042.686.129 1.028.256 1.458 1.028 3.301 2.314 5.529 2.487 3.857 5.958 5.787 10.416 5.787 1.458 0 2.657-.429 3.6-1.286 1.801-1.629 2.701-4.757 2.701-9.387 0-2.915-1.028-5.529-3.086-7.844-1.8-2.143-3.986-3.514-6.558-4.115m2.057 11.959c0 .772-.085 1.2-.258 1.286-2.229-.943-3.428-2.314-3.6-4.115 2.572 0 3.858.943 3.858 2.829m-80.883-34.334c-2.659-.601-4.973-.085-6.944 1.543-1.972 1.543-2.958 3.944-2.958 7.202 0 2.057.686 4.286 2.057 6.686 2.314 3.858 5.786 5.787 10.417 5.787 2.828 0 4.886-.899 6.172-2.7.943-1.286 1.414-2.657 1.414-4.115 0-8.402-3.385-13.202-10.158-14.403m-1.415 10.031l1.415-1.415c.599.515 1.114 1.243 1.542 2.187.172.515.472 1.243.9 2.186l-.9.128c-1.884-1.029-2.872-2.057-2.957-3.086z"/><path fill="#7A5118" d="M417.737 154.727c.172-.085.258-.514.258-1.286 0-1.886-1.286-2.83-3.858-2.83.172 1.802 1.372 3.173 3.6 4.116m-11.315-2.957c0-8.487 3.172-11.916 9.516-10.288 2.572.601 4.758 1.972 6.558 4.115 2.058 2.314 3.086 4.929 3.086 7.844 0 4.63-.9 7.758-2.701 9.387 1.03-.343 1.929-.813 2.701-1.414 1.714-1.2 3-2.787 3.858-4.758.343-.943.514-1.972.514-3.085.515-3.602-.3-6.902-2.442-9.902-1.972-3.087-4.673-5.058-8.101-5.916-3.43-.856-6.387-.428-8.873 1.286a11.09 11.09 0 0 0-3.343 4.115c-.601 1.115-.986 2.487-1.158 4.115a12.094 12.094 0 0 0 .515 5.529 4.11 4.11 0 0 1-.13-1.028m-66.738-36.134c-3.43-.857-6.43-.387-9.001 1.414s-4.072 4.458-4.5 7.973a9.472 9.472 0 0 0 .256 4.371c.343 1.886 1.115 3.645 2.315 5.273 2.142 3.085 4.886 5.057 8.229 5.915 3.257.943 6.216.515 8.873-1.286 2.572-1.8 4.029-4.414 4.372-7.844v-2.957c-.085-2.401-.943-4.715-2.572-6.944-1.972-3-4.629-4.973-7.972-5.915m-9.516 5.015c1.972-1.629 4.286-2.144 6.944-1.543 6.772 1.2 10.158 6.001 10.158 14.402 0 1.458-.471 2.829-1.414 4.115-1.286 1.801-3.344 2.7-6.172 2.7-4.63 0-8.102-1.929-10.417-5.787-1.372-2.399-2.057-4.628-2.057-6.686 0-3.257.986-5.658 2.958-7.201m6.944 7.072l-1.415 1.415c.085 1.029 1.072 2.057 2.957 3.085l.9-.128c-.428-.943-.729-1.671-.9-2.186-.428-.943-.943-1.671-1.542-2.186z"/><g><path fill="none" stroke="#40281C" stroke-width="1.5" stroke-linecap="round" stroke-linejoin="round" d="M375.303 153.827c1.458.257 3.086.643 4.887 1.158m126.534 59.279c16.888 2.316 35.231 1.543 55.035-2.314h.259m66.736-28.548a277.187 277.187 0 0 0 5.274-3.343 872.579 872.579 0 0 0 6.813-4.5m-3.47-5.016c-2.66.943-5.357 1.886-8.102 2.83a186.031 186.031 0 0 1-9.258 2.572m67.252-29.061h-.256a396.608 396.608 0 0 0-4.501 2.957m11.573-7.716a1037.146 1037.146 0 0 0-7.072 4.758m87.055 19.803l1.157.387m1.801.771h.257l-2.058-.771m3.021 1.156l.965.386 2.06.772M644.572 361.244h-1.03c-.683.771-1.371 1.542-2.057 2.313m-16.716 16.333a108.63 108.63 0 0 0 3.215-3.086M197.848 148.813l-1.542-7.33a126.407 126.407 0 0 1-1.158 4.758 37.606 37.606 0 0 1-.771 2.7c-.086.343-.172.643-.257.9m-10.031-58.637a4.9 4.9 0 0 1 1.029.386l-.129-.129 1.415.772.385.128.128-.643m46.293-21.603l5.209-1.286h.064c.6-.771 1.286-1.543 2.057-2.314M185.118 91.59l1.286.643m39.091.257a36.51 36.51 0 0 0 1.286 4.628c.087.515.258 1.029.515 1.543m.514 1.415c2.057 5.315 5.144 10.417 9.258 15.303 5.058 5.829 11.617 11.316 19.675 16.459l28.418 12.602m73.94-11.316l-2.122-.964M238.354 68.957a.15.15 0 0 1 .065-.128m-35.428 30.99l-3.471-1.671-10.931-4.886c.686.343 1.414.686 2.186 1.028 6.516 16.203 8.358 31.933 5.53 47.193m11.702-39.478l-5.016-2.186m30.476 13.889l-7.715-3.344m1.028-13.245h-.771m11.059 18.26l-3.601-1.671m45.78 29.575c-8.488-3.602-15.989-7.417-22.503-11.445m25.845 12.216c.143.048.294.091.45.128.102.03.208.073.321.129h.387m42.691-14.916c-10.03 12.516-23.79 17.532-41.277 15.045M188.59 93.261l-1.801-.9m174.24 41.728l-1.929-.965m11.188 20.06c1.543.087 3.215.3 5.015.643m16.845 236.735c10.545-2.057 22.546-4.842 36.006-8.358l-30.604-13.887m369.569-131.421c.129 1.01.257 1.994.385 2.959h.128m-40.89 20.831l3.214-9.002m-6.429 17.747l-.516 1.029-1.285 3.857-1.673 4.242m7.846 2.573c-2.06-.601-4.202-.729-6.43-.385m46.035-40.893v.128c.173 1.2.344 2.486.515 3.857m-39.736 2.188v-.643m-13.373 30.732l1.801-1.155 2.057-1.417m3.473-2.441l.771-.643m-1.285 3.857l-1.673.771m-50.151-64.424c-.942.087-1.929.257-2.956.515m-29.061 14.788a54.268 54.268 0 0 1 1.671-1.286m-3.344 2.571a114.263 114.263 0 0 0-4.372 3.602m43.465-20.19a28.49 28.49 0 0 0-5.402 0m29.575 31.506l-.256 3.343h.128M589.406 340.67c4.287 4.373 8.531 8.271 12.73 11.701 3.172 2.657 6.344 5.059 9.517 7.2a126.434 126.434 0 0 0 7.072 4.245 93.863 93.863 0 0 0-2.443-3.857c-1.887-2.916-4.159-5.83-6.816-8.746-3.514-4.028-7.756-8.1-12.729-12.216m64.036 1.929a49.37 49.37 0 0 0 2.188-.449m36.262-94.964c-2.828 33.434-15.687 65.237-38.577 95.413-.377.54-.764 1.055-1.157 1.545m-15.947 18.773c.603-.6 1.246-1.2 1.929-1.801m-17.488 17.361a83.554 83.554 0 0 1 2.571-2.186m-7.714 3.084l1.285 1.417"/></g><g><path fill="none" stroke="#D9A537" stroke-width="1.5" stroke-linecap="round" stroke-linejoin="round" d="M392.662 142.641c-7.373 3.085-13.159 6.815-17.359 11.186m-18.131-25.974c.943 1.799 1.586 3.558 1.929 5.271v.128m16.202 20.575c-3 3.087-5.229 6.516-6.686 10.288m-9.516-30.863c1.458 7.459-1.543 15.345-9.001 23.661m48.736-16.716a79.863 79.863 0 0 0-6.044 2.444"/></g><g><path fill="none" stroke="#40281C" stroke-width="2" stroke-linecap="round" stroke-linejoin="round" d="M620.012 175.945l-16.202 3.987c-.603.085-1.158.128-1.673.128-34.204 13.545-79.339 13.545-135.406 0-16.373-3.857-28.804-11.658-37.291-23.403-.858 1.971-2.144 3.558-3.858 4.758-.772.601-1.671 1.071-2.701 1.414m-16.33-10.031a12.08 12.08 0 0 1-.515-5.529c.172-1.628.558-3 1.158-4.115m-.9-.258c-4.63.172-9.131.087-13.502-.256h-.129m-12.473 12.344c20.06 5.659 51.436 22.289 94.127 49.893a44.143 44.143 0 0 0 5.144 2.187c1.545.6 3.044 1.158 4.501 1.671a97.676 97.676 0 0 0 13.245 3.729l3.6.771c1.457.257 2.873.515 4.244.772.516 0 1.07.085 1.673.256m55.294-2.313l4.757-.9.771-.256c6.944-1.63 14.188-3.602 21.731-5.916l17.36-8.744 5.658-3.087-.259-.256h.516l16.201-9.388m12.089-7.844l19.932-14.273-23.402 9.257m-17.36 5.402c3.086-.858 6.171-1.8 9.258-2.83a891.379 891.379 0 0 0 8.102-2.572m-3.344 9.517l.771 1.029 66.995-10.801c2.571-14.83 6.944-23.232 13.115-25.204l-27.647 1.801a390.294 390.294 0 0 0-4.757 2.957l-21.474 11.316c0 .086-.085.129-.259.129m33.307-19.162a193.29 193.29 0 0 1-6.816 4.758m86.799 19.803l-59.151-21.603m61.981 22.761h.128m-21.473 16.589l19.932-16.717h.643c.171 0 .427.042.771.128m1.347.385l-.964-.385m3.989 1.543l23.917 64.937.385 1.029-37.42 17.36v.771c-.771 18.091-7.285 37.505-19.545 58.253-17.402 19.633-36.178 35.877-56.323 48.736m-.001.643c-9.258.342-18.433.513-27.519.513l-18.259-.257a15.754 15.754 0 0 0-1.929-.128m-3.086 2.314l-10.931 11.061c-.43.427-.856.813-1.285 1.155-.43.43-.857.773-1.286 1.03m-3.214 3.086c-39.007 31.89-96.571 50.495-172.696 55.81-55.295-7.716-94.085-23.191-116.375-46.424 7.458-8.057 28.076-15.044 61.853-20.959-18.946-3.945-39.649-6.517-62.11-7.715-12.687.6-18.388-1.5-17.102-6.302 17.917-20.403 54.223-33.948 108.917-40.634 2.915 0 4.886-.901 5.915-2.7 43.035-10.031 86.455-11.061 130.263-3.087l39.735-48.992a75.398 75.398 0 0 1 2.313-2.702c-.771-9.087-30.176-15.602-88.212-19.545l-65.967-23.146c-11.659.686-26.919-2.186-45.779-8.616-61.809 10.545-114.402.343-157.78-30.604-13.631-12.431-30.263-20.917-49.894-25.461m-3.731 1.028c-3.172 10.373-8.188 19.332-15.045 26.876.257 1.372 8.187 15.044 23.79 41.02 15.603 26.146 24.089 57.008 25.46 92.587-.943 5.914-7.158-.216-18.646-18.39-10.03-15.945-22.889-28.461-38.577-37.548 24.947 35.062 35.792 66.523 32.533 94.384l-.386-.128a7.16 7.16 0 0 0-.9-.385 1.204 1.204 0 0 0-.514-.13c-9.431-3.084-19.546-6.214-30.348-9.386-13.115-3.772-28.889-17.317-47.321-40.634-18.603-23.232-27.39-51.138-26.361-83.714-5.829-37.206-.3-67.597 16.589-91.171 12.687-16.374 25.46-26.961 38.32-31.762l23.532-2.314c2.572.428 5.187 1.115 7.845 2.058m2.827.514l3.086-11.831.643-.256c2.744-1.115 5.101-1.63 7.073-1.543l35.49-7.973m7.331-3.6l18.518-15.173c25.289-16.631 62.967-27.819 113.03-33.563 82.983-8.059 172.184 9.173 267.597 51.693l73.04 56.966c-6.213 5.23-12.432 10.459-18.646 15.688m73.553 97.728l12.731-8.745-24.816-46.677-53.752-14.146m-522.721 6.431c-2.572.256-6.044-2.916-10.415-9.516l-25.718 37.034m25.718-37.034c-1.458-2.229-1.973-3.986-1.543-5.271-16.203 8.229-26.619 23.574-31.247 46.035m31.246-46.036c-11.23-15.003-18.045-24.133-20.446-27.391m93.228-65.967l-1.543.386a45.816 45.816 0 0 0-1.929 2.315l-2.958 3.858c-3.515 4.972-6.3 10.201-8.358 15.687.085.515.215 1.072.386 1.673m1.8 6.172c0 .085.042.171.128.257l.387 1.157m57.351 44.364c17.06 1.028 30.819-3.986 41.277-15.045a9.447 9.447 0 0 1-.256-4.371c.428-3.515 1.929-6.172 4.5-7.973s5.572-2.271 9.001-1.414c3.343.942 6 2.915 7.972 5.915 1.628 2.229 2.486 4.543 2.572 6.944.429.256.815.514 1.158.771l5.593 2.893M233.21 70.115l5.144-1.158m-35.363 32.02V99.69l-3.471-1.543m26.489-1.028h-23.146c.085.858.128 1.714.128 2.572l5.016 2.314 17.745 8.358m2.058-10.287c1.8 5.144 3.686 9.687 5.657 13.631v.256c3.344 6.173 10.159 12.646 20.447 19.418l6.3 2.442a493.759 493.759 0 0 1 18.646 7.33l.129.129h.257m-53.494-32.919l7.715 3.601m-30.604-16.845c3-12.516 1.286-18.86-5.144-19.031m81.528 65.195c.085 0 .17.043.256.128h.194c1.011.178 1.975.393 2.893.643m2.571.386a7.276 7.276 0 0 0-1.414-.128m42.691-14.917c.343 1.886 1.115 3.645 2.315 5.273 2.142 3.085 4.886 5.057 8.229 5.915 3.257.943 6.216.515 8.873-1.286 2.572-1.8 4.029-4.414 4.372-7.844v-2.957m-67.638 15.558a139.24 139.24 0 0 1-2.7-.515.566.566 0 0 0-.193-.128m3.343.772h-.192l-.257-.128m-3.73-.901c-5.83-1.543-12.044-3.986-18.646-7.33m100.815-1.735c-.643-.3-1.286-.579-1.929-.836m33.562 9.388l-29.446-7.587-2.187-.964m-5.015 22.952l11.831-3.986c.772 0 1.586.043 2.443.128m-11.187-19.932a50.289 50.289 0 0 0-2.122-1.093m72.461 24.497c.343-.943.514-1.972.514-3.085.515-3.602-.3-6.902-2.442-9.902-1.972-3.087-4.673-5.058-8.101-5.916-3.43-.856-6.387-.428-8.873 1.286a11.09 11.09 0 0 0-3.343 4.115m-122.034 1.286l84.355 37.806c15.688 12.259 27.691 19.802 36.005 22.631m73.94 2.187c-9.087 3.772-18.473 5.915-28.16 6.429M335.697 389.275c6.687 5.747 22.118 6.773 46.292 3.087l10.159-1.801m5.402-22.245l38.19 12.859h11.573m-90.141 1.159l3.729 8.742m10.673-12.344l5.271 9.129m9.775-11.186l5.915 8.487m40.633-74.196c2.401 2.999 4.544 10.714 6.429 23.146 1.629 12.256 6.944 28.031 15.946 47.319m-28.289-67.765c.6 24.088 7.158 43.806 19.674 59.151m-54.78 17.745c12.517-2.143 27.047-5.271 43.592-9.386M143.711 224.681a34.975 34.975 0 0 0-1.671-3.858c-.772-1.972-1.843-3.9-3.215-5.787m63.009 133.091c-24.261-10.373-43.978-45.949-59.151-106.73 2.314-5.399 2.657-10.971 1.028-16.715l7.073 19.545a140.439 140.439 0 0 1 20.317 10.159m-73.297-39.992h23.146m45.522 75.739l16.717-2.313m-25.847-14.404l17.746-3.087m27.26 77.928c-.085-.085-.17-.13-.256-.13h-.258m-27.261-37.548l16.074-4.244m576.985-66.481a66.619 66.619 0 0 1-.513-2.959l-.643-3.471-6.688-18.388v-1.158c-15.431 2.229-25.331 12.774-29.704 31.634l1.93.515-2.058 5.656m-6.429 17.748l3.215-8.745m-6.688 17.874l-.899 2.443 2.315-.256m6.429.385a11.57 11.57 0 0 1 3.215 1.285l17.487 29.32m18.903-71.755l.128-.128c.171 1.286.302 2.614.387 3.985l.128 2.831a63.43 63.43 0 0 1 0 5.786v.257m-1.543-12.088l.899-.643m12.86-8.873c12.173-8.487 20.446-7.414 24.818 3.215m-192.628-41.533c80.582-3.086 128.12 1.286 142.607 13.115 2.913 2.316 4.457 4.973 4.628 7.973m-31.505 31.506v-.259c-2.142-23.917 6.816-36.991 26.877-39.22m-23.146 40.121h-3.73c.174.513.345 1.07.516 1.671m1.284-2.185l-1.801-.387m-8.229 29.963l-2.7 1.027m-2.444 0l1.801-1.027m5.53-3.986l-3.474 2.441-2.057 1.545m-49.763-63.91a34.58 34.58 0 0 1 3.857-.515h-.901m-2.956.515l-9.903 3.085c-1.115.515-2.228 1.03-3.343 1.543l-14.145 8.874m-3.343 2.571l1.673-1.285m-6.045 4.887l-21.346 20.06c-.085.088-.171.173-.256.258a1.555 1.555 0 0 0-.259.385c-.086 0-.171.088-.256.259-.088.085-.214.213-.387.384a17.794 17.794 0 0 0-1.671 1.929 1.6 1.6 0 0 0-.387.259 1.519 1.519 0 0 0-.387.257 1.968 1.968 0 0 0-.384.515.842.842 0 0 0-.387.384c-.086.086-.214.217-.385.387a21 21 0 0 1-.259.257v.131l66.483-45.651h-1.158a39.683 39.683 0 0 1 4.501 0m-5.4-.004l-102.357.129m131.933 31.377l.387-7.715v-3.858l-20.188-19.16-4.372-.772m24.173 31.505c0 1.115-.04 2.228-.128 3.343l28.933.515m-115.988-52.981v-.128c.086 0 .171-.043.257-.128m19.288 38.063a77.426 77.426 0 0 1 2.7-2.316 57.98 57.98 0 0 1 1.672-1.285m-72.781 80.626l1.286 1.027m32.019 30.091l-15.175-12.088a236.587 236.587 0 0 0-6.686-4.629 61.095 61.095 0 0 0-3.729-2.7c-.088-.085-.174-.128-.259-.128l-.257-.259c3.943 4.974 7.801 9.56 11.573 13.761l3.602 3.986c1.201 1.286 2.356 2.529 3.471 3.729m73.684-.192l19.673-5.337 36.521-54.137m-58.509 59.923v.128c.773-.19 1.547-.387 2.315-.577m-2.315.449h.128m-15.303 18.517l13.374-16.073.644-.899c.396-.462.78-.935 1.157-1.417m21.988-5.914c20.575 6.944 23.79 15.388 9.645 25.334m-68.154 18.645l.644.771 2.057-2.057c.344-.344.729-.688 1.158-1.029m32.789-35.878c22.803-30.261 35.661-62.067 38.577-95.413"/></g></svg>