<?xml version="1.0" encoding="utf-8"?>
<!-- Generator: Adobe Illustrator 16.0.0, SVG Export Plug-In . SVG Version: 6.00 Build 0)  -->
<!DOCTYPE svg PUBLIC "-//W3C//DTD SVG 1.1//EN" "http://www.w3.org/Graphics/SVG/1.1/DTD/svg11.dtd">
<svg version="1.1" id="Layer_1" xmlns="http://www.w3.org/2000/svg" xmlns:xlink="http://www.w3.org/1999/xlink" x="0px" y="0px"
	 width="900px" height="450px" viewBox="0 0 900 450" enable-background="new 0 0 900 450" xml:space="preserve">
<g transform="matrix( 1, 0, 0, 1, 0,0) ">
	<g>
		<g id="Layer0_0_FILL">
			<path fill="#D9A537" d="M626.825,377.833c-0.598,0.598-1.286,1.286-2.057,2.057c1.115-1.029,2.188-2.057,3.215-3.086
				C627.554,377.145,627.169,377.489,626.825,377.833 M631.841,230.854c1.464-1.267,2.921-2.467,4.372-3.602
				c-0.55,0.406-1.107,0.836-1.672,1.285C633.599,229.311,632.697,230.082,631.841,230.854 M666.947,211.179
				c-3.303,1.029-6.604,2.057-9.903,3.085c-1.115,0.515-2.228,1.03-3.343,1.543c-4.714,2.958-9.431,5.916-14.145,8.874
				c-0.556,0.411-1.113,0.838-1.671,1.286l-1.673,1.285c-1.451,1.135-2.908,2.335-4.372,3.602
				c-7.115,6.686-14.23,13.373-21.346,20.06c-0.085,0.088-0.171,0.173-0.256,0.258c-0.086,0.086-0.171,0.214-0.259,0.385
				c-0.086,0-0.171,0.088-0.256,0.259c-0.088,0.085-0.214,0.213-0.387,0.384c-0.601,0.601-1.158,1.243-1.671,1.929
				c-0.171,0.088-0.301,0.174-0.387,0.259c-0.171,0.086-0.301,0.171-0.387,0.257c-0.171,0.171-0.299,0.342-0.384,0.515
				c-0.174,0.085-0.299,0.214-0.387,0.384c-0.086,0.086-0.214,0.217-0.385,0.387c-0.085,0.086-0.171,0.171-0.259,0.257v0.131
				l66.483-45.651h-1.158C669.604,210.751,668.318,210.921,666.947,211.179 M669.903,210.664h0.901c1.63-0.085,3.127-0.085,4.501,0
				C673.59,210.493,671.792,210.493,669.903,210.664 M670.805,210.664h-0.901c-0.942,0.087-1.929,0.257-2.956,0.515
				C668.318,210.921,669.604,210.751,670.805,210.664 M435.74,381.176l-38.19-12.859l30.604,13.887
				c-13.459,3.517-25.461,6.302-36.006,8.358C404.665,388.419,419.195,385.29,435.74,381.176 M318.337,354.3
				c-1.286,4.802,4.415,6.901,17.102,6.302c22.461,1.198,43.165,3.77,62.11,7.715l38.19,12.859h11.573H435.74
				c-16.545,4.114-31.075,7.243-43.592,9.386l-10.159,1.801c-24.175,3.687-39.606,2.66-46.292-3.087
				c22.29,23.232,61.08,38.708,116.375,46.424c76.125-5.314,133.689-23.92,172.696-55.81l-0.644-0.771l-1.285-1.417l1.285,1.417
				l0.644,0.771c0.771-0.771,1.459-1.459,2.057-2.057c0.344-0.344,0.729-0.688,1.158-1.029c0.771-0.687,1.63-1.414,2.571-2.186
				l10.931-11.061c0.686-0.771,1.374-1.542,2.057-2.313c0.603-0.6,1.246-1.2,1.929-1.801l13.374-16.073l0.644-0.899
				c0.394-0.49,0.78-1.005,1.157-1.545c22.891-30.176,35.749-61.979,38.577-95.413c0.086-1.115,0.171-2.228,0.256-3.343l0.387-7.715
				c0-1.201,0-2.487,0-3.858l-20.188-19.16c-1.456-0.258-2.916-0.515-4.372-0.772c-1.374-0.085-2.871-0.085-4.501,0h1.158
				l-66.483,45.651v-0.131c-0.771,0.858-1.542,1.758-2.313,2.702l-39.735,48.992l1.286,1.027l-1.286-1.027
				c-43.809-7.974-87.229-6.944-130.263,3.087c2.401,2.999,4.544,10.714,6.429,23.146c1.629,12.256,6.944,28.031,15.946,47.319
				c-9.002-19.288-14.317-35.063-15.946-47.319c-1.885-12.433-4.028-20.147-6.429-23.146c-1.029,1.799-3,2.7-5.915,2.7
				c0.6,24.088,7.158,43.806,19.674,59.151c-12.516-15.346-19.074-35.063-19.674-59.151
				C372.56,320.352,336.254,333.896,318.337,354.3 M581.563,326.909l15.175,12.088c4.973,4.116,9.215,8.188,12.729,12.216
				c2.657,2.916,4.93,5.83,6.816,8.746c0.858,1.285,1.672,2.571,2.443,3.857c-2.315-1.286-4.674-2.7-7.072-4.245
				c-3.173-2.142-6.345-4.543-9.517-7.2c-4.199-3.431-8.443-7.328-12.73-11.701h-0.129c-1.114-1.2-2.27-2.443-3.471-3.729
				l-3.602-3.986c-3.772-4.201-7.63-8.787-11.573-13.761c0.086,0.086,0.171,0.171,0.257,0.259c0.085,0,0.171,0.043,0.259,0.128
				c1.285,0.859,2.528,1.759,3.729,2.7C577.189,323.825,579.418,325.367,581.563,326.909 M497.207,212.465
				c-4.543-0.943-8.958-2.187-13.245-3.729c-1.457-0.514-2.956-1.071-4.501-1.671c-9.087,3.772-18.473,5.915-28.16,6.429
				l65.967,23.146c58.036,3.943,87.441,10.458,88.212,19.545c0.088-0.086,0.174-0.171,0.259-0.257
				c0.171-0.17,0.299-0.301,0.385-0.387c0.088-0.17,0.213-0.299,0.387-0.384c0.085-0.173,0.213-0.344,0.384-0.515
				c0.086-0.086,0.216-0.171,0.387-0.257c0.086-0.085,0.216-0.171,0.387-0.259c0.513-0.686,1.07-1.328,1.671-1.929
				c0.173-0.171,0.299-0.299,0.387-0.384c0.085-0.171,0.17-0.259,0.256-0.259c0.088-0.171,0.173-0.299,0.259-0.385
				c0.085-0.085,0.171-0.17,0.256-0.258c7.115-6.687,14.23-13.374,21.346-20.06c0.856-0.771,1.758-1.543,2.7-2.316
				c0.564-0.449,1.122-0.879,1.672-1.285l1.673-1.285c0.558-0.447,1.115-0.875,1.671-1.286c4.714-2.958,9.431-5.916,14.145-8.874
				c1.115-0.514,2.228-1.028,3.343-1.543c3.3-1.028,6.601-2.057,9.903-3.085c1.027-0.257,2.014-0.428,2.956-0.515l-102.357,0.129
				c-0.257,0.085-0.516,0.171-0.771,0.256l-4.757,0.9c-0.085,0-0.171,0-0.259,0c-19.804,3.857-38.147,4.63-55.035,2.314
				c-0.603-0.17-1.157-0.256-1.673-0.256c-1.371-0.257-2.787-0.515-4.244-0.772C499.605,212.979,498.405,212.722,497.207,212.465
				 M326.438,129.395c-10.458,11.06-24.218,16.074-41.277,15.045C302.649,146.926,316.408,141.911,326.438,129.395 M186.404,92.232
				c-0.515-0.257-0.943-0.472-1.286-0.643c-0.343-0.172-0.686-0.3-1.029-0.386c-2.658-0.943-5.273-1.63-7.845-2.058l-23.532,2.314
				c-12.859,4.801-25.633,15.388-38.32,31.762c-16.889,23.574-22.418,53.965-16.589,91.171h23.146H97.804
				c-1.028,32.576,7.758,60.481,26.361,83.714c18.432,23.316,34.206,36.861,47.321,40.634c10.802,3.172,20.917,6.302,30.348,9.386
				c-24.261-10.373-43.978-45.949-59.151-106.73c2.314-5.399,2.657-10.971,1.028-16.715c-0.428-1.201-0.986-2.487-1.671-3.858
				c-0.772-1.972-1.843-3.9-3.215-5.787c1.372,1.886,2.442,3.815,3.215,5.787c0.686,1.371,1.243,2.657,1.671,3.858l7.073,19.545
				c7.03,2.828,13.802,6.217,20.317,10.159c15.688,9.087,28.547,21.603,38.577,37.548c11.488,18.174,17.703,24.304,18.646,18.39
				c-1.371-35.579-9.858-66.44-25.46-92.587c-15.603-25.976-23.532-39.648-23.79-41.02c-2.572,0.256-6.044-2.916-10.415-9.516
				l-25.718,37.034l25.718-37.034c-1.458-2.229-1.973-3.986-1.543-5.271c-16.203,8.229-26.619,23.574-31.247,46.035
				c4.628-22.461,15.044-37.806,31.247-46.035c-11.23-15.003-18.045-24.133-20.446-27.391c2.401,3.258,9.216,12.388,20.446,27.391
				c-0.43,1.286,0.085,3.042,1.543,5.271c4.371,6.6,7.843,9.772,10.415,9.516c6.858-7.544,11.874-16.503,15.045-26.876
				c0.085-0.257,0.171-0.558,0.257-0.9c0.256-0.771,0.514-1.671,0.771-2.7c0.429-1.629,0.815-3.215,1.158-4.758
				c2.828-15.26,0.986-30.99-5.53-47.193c-0.771-0.343-1.5-0.686-2.186-1.028l-1.801-0.9L186.404,92.232 M620.012,175.945
				c3.086-0.771,6.171-1.629,9.258-2.572c2.744-0.943,5.441-1.886,8.102-2.83c-2.66,0.858-5.357,1.715-8.102,2.572
				C626.183,174.145,623.098,175.087,620.012,175.945 M602.137,180.06c0.515,0,1.07-0.042,1.673-0.128l16.202-3.987
				c3.086-0.858,6.171-1.8,9.258-2.83c2.744-0.856,5.441-1.714,8.102-2.572l23.402-9.257c0.174,0,0.259-0.043,0.259-0.129
				l21.474-11.316c1.542-1.028,3.044-2.014,4.501-2.957c2.401-1.629,4.757-3.215,7.072-4.758
				c6.214-5.229,12.433-10.458,18.646-15.688l-73.04-56.966C544.271,26.952,455.071,9.72,372.088,17.778
				c-50.063,5.744-87.742,16.932-113.03,33.563L240.54,66.515c-0.771,0.771-1.457,1.543-2.057,2.314h-0.129c0,0.032,0,0.075,0,0.128
				l1.543-0.386l-1.543,0.386c-0.686,0.772-1.329,1.543-1.929,2.315l-2.958,3.858c-3.515,4.972-6.3,10.201-8.358,15.687
				c0.085,0.515,0.215,1.072,0.386,1.673c0.343,1.628,0.772,3.172,1.286,4.628c0.087,0.515,0.258,1.029,0.515,1.543
				c0,0.085,0.042,0.171,0.128,0.257c0.129,0.386,0.257,0.771,0.387,1.157c2.057,5.315,5.144,10.417,9.258,15.303
				c5.058,5.829,11.617,11.316,19.675,16.459l28.418,12.602c17.06,1.028,30.819-3.986,41.277-15.045
				c-0.429-1.457-0.514-2.915-0.256-4.371c0.428-3.515,1.929-6.172,4.5-7.973s5.572-2.271,9.001-1.414
				c3.343,0.942,6,2.915,7.972,5.915c1.628,2.229,2.486,4.543,2.572,6.944c0.429,0.256,0.815,0.514,1.158,0.771l5.529,2.829
				c0.751,0.364,1.479,0.707,2.186,1.028c-0.343-1.714-0.986-3.472-1.929-5.271c0.943,1.799,1.586,3.558,1.929,5.271
				c0.645,0.322,1.287,0.623,1.929,0.9l2.187,1.029l29.446,7.587h0.129c1.886-0.858,3.901-1.673,6.044-2.444
				c-2.144,0.771-4.158,1.586-6.044,2.444c4.372,0.343,8.872,0.428,13.502,0.256l0.9,0.257c0.771-1.628,1.885-3,3.343-4.115
				c2.486-1.714,5.443-2.143,8.873-1.286c3.428,0.858,6.129,2.829,8.101,5.916c2.142,3,2.958,6.3,2.442,9.902
				c0,1.114-0.171,2.142-0.514,3.085c8.487,11.745,20.917,19.546,37.291,23.403C522.798,193.604,567.933,193.604,602.137,180.06z"/>
			<path fill="#D38A2B" d="M660.646,340.926c-0.377,0.54-0.764,1.055-1.157,1.545c0.396-0.462,0.78-0.935,1.157-1.417V340.926
				 M660.646,341.054c0.773-0.19,1.547-0.406,2.315-0.643c-0.751,0.216-1.479,0.387-2.188,0.515h-0.128V341.054 M682.634,335.14
				l-19.673,5.271c-0.769,0.236-1.542,0.452-2.315,0.643c-0.377,0.482-0.761,0.955-1.157,1.417l-0.644,0.899l-13.374,16.073
				c-0.683,0.601-1.326,1.201-1.929,1.801c0.344,0,0.688,0,1.03,0c0.6,0,1.242,0.043,1.929,0.128l18.259,0.257
				c9.086,0,18.261-0.171,27.519-0.513v-0.643C706.424,350.527,703.209,342.084,682.634,335.14 M699.351,245.513
				c0.088-1.115,0.128-2.228,0.128-3.343c-0.085,1.115-0.17,2.228-0.256,3.343H699.351 M731.114,282.417
				c-1.03-0.6-2.1-1.026-3.215-1.285c-2.06-0.601-4.202-0.729-6.43-0.385c-0.773,0.086-1.544,0.171-2.315,0.256l-36.521,54.137
				c20.575,6.944,23.79,15.388,9.645,25.334c20.146-12.859,38.921-29.104,56.323-48.736L731.114,282.417 M718.768,273.544
				l-2.057,1.417v0.128L718.768,273.544 M717.354,276.116l2.7-1.027l1.673-0.771l1.285-3.857l-0.771,0.643l-3.474,2.441
				l-2.057,1.545L717.354,276.116 M728.283,246.027c0-0.258,0-0.472,0-0.643v-0.259c-2.142-23.917,6.816-36.991,26.877-39.22
				c-14.487-11.829-62.025-16.202-142.607-13.115c-0.086,0.085-0.171,0.128-0.257,0.128v0.128c-1.886,1.03-3.772,2.058-5.658,3.087
				l-17.36,8.744c-7.544,2.314-14.787,4.286-21.731,5.916l102.357-0.129c1.889-0.171,3.687-0.171,5.402,0
				c1.456,0.257,2.916,0.515,4.372,0.772l20.188,19.16c0,1.371,0,2.657,0,3.858l-0.387,7.715c0,1.115-0.04,2.228-0.128,3.343
				L728.283,246.027 M759.788,213.879c-0.171-3-1.715-5.657-4.628-7.973c-20.061,2.229-29.019,15.303-26.877,39.22l1.801,0.387
				C734.457,226.653,744.357,216.108,759.788,213.879 M768.019,243.84l0.128,2.831c0.088,1.884,0.088,3.813,0,5.786
				c0,0.086,0,0.171,0,0.257l37.42-17.36l-0.385-1.029c-4.372-10.629-12.646-11.702-24.818-3.215l-12.731,8.745
				C767.803,241.141,767.934,242.469,768.019,243.84 M767.632,239.854l-0.128,0.128c0.173,1.2,0.344,2.486,0.515,3.857
				C767.934,242.469,767.803,241.141,767.632,239.854 M767.504,239.982v-0.128c-0.128-0.965-0.256-1.949-0.385-2.959l-0.643-3.471
				l-6.688-18.388c0-0.428,0-0.815,0-1.158c-15.431,2.229-25.331,12.774-29.704,31.634l1.93,0.515l-2.058,5.656l-3.214,9.002
				l-3.215,8.745l-0.516,1.029l-1.285,3.857l-1.673,4.242l-0.899,2.443c0.771-0.085,1.542-0.17,2.315-0.256
				c2.228-0.344,4.37-0.216,6.43,0.385c1.115,0.259,2.185,0.686,3.215,1.285l17.487,29.32c12.26-20.748,18.774-40.162,19.545-58.253
				v-0.384c0-0.086,0-0.217,0-0.387c0-0.086,0-0.171,0-0.257c0.088-1.974,0.088-3.902,0-5.786l-0.128-2.831
				C767.848,242.469,767.677,241.183,767.504,239.982l-0.899,0.643L767.504,239.982 M767.632,239.854h-0.128v0.128L767.632,239.854
				 M143.711,224.681c1.629,5.745,1.286,11.316-1.028,16.715c15.173,60.781,34.89,96.357,59.151,106.73c0.093,0,0.18,0,0.258,0
				c0.085,0,0.17,0.045,0.256,0.13c0.257,0.086,0.558,0.214,0.9,0.385l0.386,0.128c3.259-27.86-7.586-59.322-32.533-94.384
				c-6.515-3.942-13.287-7.331-20.317-10.159L143.711,224.681 M166.472,290.133l16.717-2.313L166.472,290.133 M157.342,273.416
				l17.746-3.087L157.342,273.416 M174.573,310.579l16.074-4.244L174.573,310.579 M381.99,392.362l10.159-1.801
				c10.545-2.057,22.546-4.842,36.006-8.358l-30.604-13.887c-33.776,5.915-54.395,12.902-61.853,20.959
				C342.384,395.022,357.815,396.049,381.99,392.362 M357.172,382.334l3.729,8.742L357.172,382.334 M371.574,378.732l5.271,9.129
				L371.574,378.732 M386.62,376.675l5.915,8.487L386.62,376.675 M596.737,338.997l-15.175-12.088
				c-2.145-1.542-4.373-3.084-6.686-4.629c-1.201-0.941-2.444-1.841-3.729-2.7c-0.088-0.085-0.174-0.128-0.259-0.128
				c-0.086-0.088-0.171-0.173-0.257-0.259c3.943,4.974,7.801,9.56,11.573,13.761l3.602,3.986c1.201,1.286,2.356,2.529,3.471,3.729
				h0.129c4.287,4.373,8.531,8.271,12.73,11.701c3.172,2.657,6.344,5.059,9.517,7.2c2.398,1.545,4.757,2.959,7.072,4.245
				c-0.771-1.286-1.585-2.572-2.443-3.857c-1.887-2.916-4.159-5.83-6.816-8.746C605.952,347.185,601.71,343.113,596.737,338.997
				 M278.86,143.154c-6.172-2.572-12.387-5.014-18.646-7.33C266.815,139.168,273.03,141.611,278.86,143.154 M282.847,144.183
				c0.058,0,0.101,0,0.128,0c-0.113-0.038-0.242-0.081-0.385-0.128L282.847,144.183 M233.467,113.964c0-0.085,0-0.171,0-0.256
				l-7.715-3.344L233.467,113.964 M237.068,115.379l-3.601-1.671c0,0.085,0,0.171,0,0.256c3.344,6.173,10.159,12.646,20.447,19.418
				l6.3,2.442c6.259,2.315,12.474,4.758,18.646,7.33l0.129,0.129c0.085,0,0.17,0,0.257,0c-8.488-3.602-15.989-7.417-22.503-11.445
				C248.685,126.695,242.126,121.208,237.068,115.379 M202.991,99.819V99.69l-3.471-1.543L202.991,99.819 M202.991,100.977
				c0-0.428,0-0.814,0-1.158l-3.471-1.671l-10.931-4.886c0.686,0.343,1.414,0.686,2.186,1.028
				c6.516,16.203,8.358,31.933,5.53,47.193l1.542,7.33c19.631,4.543,36.263,13.03,49.894,25.461
				c43.378,30.947,95.971,41.149,157.78,30.604c-8.314-2.829-20.317-10.373-36.005-22.631l-84.355-37.806
				c-0.428-0.085-0.9-0.128-1.414-0.128c-0.086,0-0.215,0-0.387,0c-0.113-0.057-0.241-0.099-0.386-0.129c-0.027,0-0.07,0-0.128,0
				l-0.257-0.128c-0.943-0.17-1.843-0.343-2.7-0.515c-0.059-0.058-0.145-0.101-0.258-0.128h-0.129
				c-0.085-0.085-0.17-0.128-0.256-0.128c-0.087,0-0.172,0-0.257,0l-0.129-0.129c-5.83-1.543-12.044-3.986-18.646-7.33l-6.3-2.442
				c-10.288-6.772-17.103-13.245-20.447-19.418l-7.715-3.601l-17.745-8.358l-5.016-2.186
				C202.991,100.163,202.991,100.548,202.991,100.977 M236.425,71.272c0.6-0.772,1.243-1.543,1.929-2.315l-5.144,1.158l-35.49,7.973
				c6.429,0.17,8.144,6.515,5.144,19.031h23.146h0.771c-0.513-1.457-0.943-3-1.286-4.628c-0.171-0.601-0.3-1.158-0.386-1.673
				c2.059-5.486,4.844-10.715,8.358-15.687L236.425,71.272 M238.354,68.957c0-0.053,0-0.096,0-0.128l-5.144,1.286L238.354,68.957
				 M186.917,91.718l-0.128,0.643l1.801,0.9l10.931,4.886l3.471,1.543c0-0.857-0.042-1.714-0.128-2.572
				c3-12.516,1.286-18.86-5.144-19.031c-1.972-0.087-4.329,0.428-7.073,1.543l-0.643,0.256L186.917,91.718 M185.118,91.59
				c0.343,0.171,0.771,0.385,1.286,0.643l-1.415-0.772L185.118,91.59 M777.02,167.844h-0.128c-0.344-0.085-0.6-0.128-0.771-0.128
				c-0.259,0-0.473,0-0.643,0l-19.932,16.717l24.816,46.677c12.173-8.487,20.446-7.414,24.818,3.215l-23.917-64.937l-2.06-0.772
				L777.02,167.844 M776.892,167.844l-1.673-0.771l-1.157-0.387l-59.151-21.603c-6.171,1.972-10.544,10.374-13.115,25.204
				l53.752,14.146l19.932-16.717c0.17,0,0.384,0,0.643,0C776.292,167.716,776.548,167.758,776.892,167.844 M682.506,149.841
				c1.628-1.028,3.215-2.014,4.757-2.957h-0.256C685.55,147.827,684.048,148.813,682.506,149.841 M634.028,180.06l0.771,1.029
				l66.995-10.801c2.571-14.83,6.944-23.232,13.115-25.204l-27.647,1.801c-1.542,0.943-3.129,1.929-4.757,2.957l-21.474,11.316
				c0,0.086-0.085,0.129-0.259,0.129l-19.932,14.273C638.529,177.103,636.256,178.603,634.028,180.06z"/>
			<path fill="#B3631E" d="M612.553,192.791c-0.171,0-0.345,0-0.516,0l0.259,0.256v-0.128
				C612.382,192.919,612.467,192.876,612.553,192.791 M359.101,133.252v-0.128c-0.707-0.321-1.435-0.664-2.186-1.028
				C357.664,132.481,358.393,132.867,359.101,133.252 M359.101,133.124v0.128c0.643,0.257,1.286,0.515,1.929,0.772
				C360.388,133.747,359.745,133.446,359.101,133.124 M328.754,134.667c-1.201-1.628-1.973-3.387-2.315-5.273
				c-10.03,12.516-23.79,17.532-41.277,15.045l84.355,37.806c15.688,12.259,27.691,19.802,36.005,22.631
				c18.86,6.43,34.12,9.301,45.779,8.616c9.688-0.515,19.073-2.657,28.16-6.429c-1.715-0.601-3.428-1.329-5.144-2.187
				c-42.691-27.604-74.068-44.234-94.127-49.893c-1.801-0.515-3.429-0.9-4.887-1.158c-3,3.087-5.229,6.516-6.686,10.288
				c1.457-3.771,3.686-7.201,6.686-10.288c-1.8-0.343-3.471-0.556-5.015-0.643c-0.857-0.085-1.671-0.128-2.443-0.128l-11.831,3.986
				l11.831-3.986c0.772,0,1.586,0.043,2.443,0.128c1.543,0.087,3.215,0.3,5.015,0.643c4.2-4.371,9.987-8.101,17.359-11.186
				l-29.446-7.587l-2.187-1.029c-0.643-0.257-1.286-0.515-1.929-0.772c1.458,7.459-1.543,15.345-9.001,23.661
				c7.458-8.316,10.459-16.202,9.001-23.661c-0.708-0.386-1.437-0.771-2.186-1.157l-5.529-2.829
				c-0.343-0.257-0.729-0.515-1.158-0.771c0,0.942,0,1.929,0,2.957c-0.343,3.43-1.8,6.044-4.372,7.844
				c-2.657,1.801-5.616,2.229-8.873,1.286C333.64,139.725,330.896,137.753,328.754,134.667 M603.81,179.932
				c-0.603,0.085-1.158,0.128-1.673,0.128c-34.204,13.545-79.339,13.545-135.406,0c-16.373-3.857-28.804-11.658-37.291-23.403
				c-0.858,1.971-2.144,3.558-3.858,4.758c-0.772,0.601-1.671,1.071-2.701,1.414c-0.943,0.857-2.142,1.286-3.6,1.286
				c-4.458,0-7.929-1.929-10.416-5.787c-1.286-2.228-2.058-4.071-2.314-5.529c-0.601-1.799-0.772-3.643-0.515-5.529
				c0.172-1.628,0.558-3,1.158-4.115l-0.9-0.257c-4.63,0.172-9.131,0.087-13.502-0.256h-0.129
				c-7.373,3.085-13.159,6.815-17.359,11.186c1.458,0.257,3.086,0.643,4.887,1.158c20.06,5.659,51.436,22.289,94.127,49.893
				c1.716,0.858,3.429,1.586,5.144,2.187c1.545,0.6,3.044,1.158,4.501,1.671c4.287,1.543,8.702,2.786,13.245,3.729
				c1.198,0.257,2.398,0.514,3.6,0.771c1.457,0.257,2.873,0.515,4.244,0.772c0.516,0,1.07,0.085,1.673,0.256
				c16.888,2.316,35.231,1.543,55.035-2.314c0.088,0,0.174,0,0.259,0l4.757-0.9c0.256-0.085,0.515-0.171,0.771-0.256
				c6.944-1.63,14.188-3.602,21.731-5.916l17.36-8.744c1.886-1.029,3.772-2.057,5.658-3.087l-0.259-0.256c0.171,0,0.345,0,0.516,0
				l16.201-9.388c1.801-1.114,3.559-2.228,5.274-3.343c2.228-1.457,4.501-2.957,6.813-4.5l19.932-14.273l-23.402,9.257
				c-2.66,0.943-5.357,1.886-8.102,2.83c-3.087,0.943-6.172,1.801-9.258,2.572L603.81,179.932z"/>
			<path d="M415.938,141.482c-6.344-1.628-9.516,1.801-9.516,10.288c0,0.343,0.042,0.686,0.129,1.028
				c0.256,1.458,1.028,3.301,2.314,5.529c2.487,3.857,5.958,5.787,10.416,5.787c1.458,0,2.657-0.429,3.6-1.286
				c1.801-1.629,2.701-4.757,2.701-9.387c0-2.915-1.028-5.529-3.086-7.844C420.696,143.454,418.51,142.083,415.938,141.482
				 M417.995,153.441c0,0.772-0.085,1.2-0.258,1.286c-2.229-0.943-3.428-2.314-3.6-4.115
				C416.709,150.612,417.995,151.555,417.995,153.441 M337.112,119.107c-2.659-0.601-4.973-0.085-6.944,1.543
				c-1.972,1.543-2.958,3.944-2.958,7.202c0,2.057,0.686,4.286,2.057,6.686c2.314,3.858,5.786,5.787,10.417,5.787
				c2.828,0,4.886-0.899,6.172-2.7c0.943-1.286,1.414-2.657,1.414-4.115C347.27,125.108,343.885,120.308,337.112,119.107
				 M335.697,129.138l1.415-1.415c0.599,0.515,1.114,1.243,1.542,2.187c0.172,0.515,0.472,1.243,0.9,2.186l-0.9,0.128
				C336.77,131.195,335.782,130.167,335.697,129.138z"/>
			<path fill="#7A5118" d="M417.737,154.727c0.172-0.085,0.258-0.514,0.258-1.286c0-1.886-1.286-2.83-3.858-2.83
				C414.309,152.413,415.509,153.784,417.737,154.727 M406.422,151.77c0-8.487,3.172-11.916,9.516-10.288
				c2.572,0.601,4.758,1.972,6.558,4.115c2.058,2.314,3.086,4.929,3.086,7.844c0,4.63-0.9,7.758-2.701,9.387
				c1.03-0.343,1.929-0.813,2.701-1.414c1.714-1.2,3-2.787,3.858-4.758c0.343-0.943,0.514-1.972,0.514-3.085
				c0.515-3.602-0.3-6.902-2.442-9.902c-1.972-3.087-4.673-5.058-8.101-5.916c-3.43-0.856-6.387-0.428-8.873,1.286
				c-1.458,1.115-2.572,2.486-3.343,4.115c-0.601,1.115-0.986,2.487-1.158,4.115c-0.257,1.886-0.085,3.73,0.515,5.529
				C406.464,152.456,406.422,152.113,406.422,151.77 M339.684,115.636c-3.43-0.857-6.43-0.387-9.001,1.414s-4.072,4.458-4.5,7.973
				c-0.257,1.457-0.172,2.915,0.256,4.371c0.343,1.886,1.115,3.645,2.315,5.273c2.142,3.085,4.886,5.057,8.229,5.915
				c3.257,0.943,6.216,0.515,8.873-1.286c2.572-1.8,4.029-4.414,4.372-7.844c0-1.028,0-2.015,0-2.957
				c-0.085-2.401-0.943-4.715-2.572-6.944C345.684,118.551,343.027,116.578,339.684,115.636 M330.168,120.651
				c1.972-1.629,4.286-2.144,6.944-1.543c6.772,1.2,10.158,6.001,10.158,14.402c0,1.458-0.471,2.829-1.414,4.115
				c-1.286,1.801-3.344,2.7-6.172,2.7c-4.63,0-8.102-1.929-10.417-5.787c-1.372-2.399-2.057-4.628-2.057-6.686
				C327.21,124.595,328.196,122.194,330.168,120.651 M337.112,127.723l-1.415,1.415c0.085,1.029,1.072,2.057,2.957,3.085l0.9-0.128
				c-0.428-0.943-0.729-1.671-0.9-2.186C338.226,128.966,337.711,128.238,337.112,127.723z"/>
		</g>
	</g>
	<g>
		
			<path id="Layer0_0_1_STROKES" fill="none" stroke="#40281C" stroke-width="1.5" stroke-linecap="round" stroke-linejoin="round" d="
			M375.303,153.827c1.458,0.257,3.086,0.643,4.887,1.158 M506.724,214.264c16.888,2.316,35.231,1.543,55.035-2.314
			c0.088,0,0.174,0,0.259,0 M628.754,183.402c1.801-1.114,3.559-2.228,5.274-3.343c2.228-1.457,4.501-2.957,6.813-4.5
			 M637.371,170.543c-2.66,0.943-5.357,1.886-8.102,2.83c-3.087,0.943-6.172,1.801-9.258,2.572 M687.263,146.884h-0.256
			c-1.457,0.943-2.959,1.929-4.501,2.957 M694.079,142.125c-2.315,1.543-4.671,3.129-7.072,4.758 M774.062,166.686l1.157,0.387
			 M777.02,167.844c0.086,0,0.171,0,0.257,0l-2.058-0.771 M778.24,168.229l0.965,0.386l2.06,0.772 M644.572,361.244
			c-0.342,0-0.687,0-1.03,0c-0.683,0.771-1.371,1.542-2.057,2.313 M624.769,379.89c1.115-1.029,2.188-2.057,3.215-3.086
			 M197.848,148.813l-1.542-7.33c-0.343,1.543-0.729,3.129-1.158,4.758c-0.257,1.028-0.515,1.929-0.771,2.7
			c-0.086,0.343-0.172,0.643-0.257,0.9 M184.089,91.204c0.343,0.085,0.686,0.213,1.029,0.386l-0.129-0.129l1.415,0.772l0.385,0.128
			l0.128-0.643 M233.21,70.115l5.209-1.286h0.064c0.6-0.771,1.286-1.543,2.057-2.314 M185.118,91.59
			c0.343,0.171,0.771,0.385,1.286,0.643 M225.495,92.49c0.343,1.628,0.772,3.172,1.286,4.628c0.087,0.515,0.258,1.029,0.515,1.543
			 M227.81,100.076c2.057,5.315,5.144,10.417,9.258,15.303c5.058,5.829,11.617,11.316,19.675,16.459l28.418,12.602 M359.101,133.124
			c-0.707-0.321-1.414-0.643-2.122-0.964 M238.354,68.957c0-0.053,0.021-0.096,0.065-0.128 M202.991,99.819l-3.471-1.671
			l-10.931-4.886c0.686,0.343,1.414,0.686,2.186,1.028c6.516,16.203,8.358,31.933,5.53,47.193 M208.007,102.005l-5.016-2.186
			 M233.467,113.708l-7.715-3.344 M226.78,97.119h-0.771 M237.068,115.379l-3.601-1.671 M279.247,143.283
			c-8.488-3.602-15.989-7.417-22.503-11.445 M282.589,144.054c0.143,0.048,0.294,0.091,0.45,0.128
			c0.102,0.03,0.208,0.073,0.321,0.129c0.172,0,0.3,0,0.387,0 M326.438,129.395c-10.03,12.516-23.79,17.532-41.277,15.045
			 M188.59,93.261l-1.801-0.9 M361.029,134.089c-0.642-0.322-1.284-0.643-1.929-0.965 M370.288,153.184
			c1.543,0.087,3.215,0.3,5.015,0.643 M392.148,390.562c10.545-2.057,22.546-4.842,36.006-8.358l-30.604-13.887 M767.119,236.896
			c0.129,1.01,0.257,1.994,0.385,2.959h0.128 M726.742,260.686l3.214-9.002 M723.527,269.431l-0.516,1.029l-1.285,3.857
			l-1.673,4.242 M727.899,281.132c-2.06-0.601-4.202-0.729-6.43-0.385 M767.504,239.854v0.128c0.173,1.2,0.344,2.486,0.515,3.857
			 M728.283,246.027c0-0.258,0-0.472,0-0.643 M714.91,276.116l1.801-1.155l2.057-1.417 M722.241,271.103l0.771-0.643
			 M721.727,274.317l-1.673,0.771 M669.903,210.664c-0.942,0.087-1.929,0.257-2.956,0.515 M637.886,225.967
			c0.558-0.447,1.115-0.875,1.671-1.286 M636.213,227.252c-1.451,1.135-2.908,2.335-4.372,3.602 M675.306,210.664
			c-1.716-0.171-3.514-0.171-5.402,0 M699.479,242.17c-0.085,1.115-0.17,2.228-0.256,3.343h0.128 M589.406,340.67
			c4.287,4.373,8.531,8.271,12.73,11.701c3.172,2.657,6.344,5.059,9.517,7.2c2.398,1.545,4.757,2.959,7.072,4.245
			c-0.771-1.286-1.585-2.572-2.443-3.857c-1.887-2.916-4.159-5.83-6.816-8.746c-3.514-4.028-7.756-8.1-12.729-12.216
			 M660.773,340.926c0.709-0.128,1.437-0.278,2.188-0.449 M699.223,245.513c-2.828,33.434-15.687,65.237-38.577,95.413
			c-0.377,0.54-0.764,1.055-1.157,1.545 M643.542,361.244c0.603-0.6,1.246-1.2,1.929-1.801 M627.983,376.804
			c0.771-0.687,1.63-1.414,2.571-2.186 M622.84,377.702l1.285,1.417"/>
	</g>
	<g>
		
			<path id="Layer0_0_2_STROKES" fill="none" stroke="#D9A537" stroke-width="1.5" stroke-linecap="round" stroke-linejoin="round" d="
			M392.662,142.641c-7.373,3.085-13.159,6.815-17.359,11.186 M357.172,127.853c0.943,1.799,1.586,3.558,1.929,5.271v0.128
			 M375.303,153.827c-3,3.087-5.229,6.516-6.686,10.288 M359.101,133.252c1.458,7.459-1.543,15.345-9.001,23.661 M398.836,140.197
			c-2.144,0.771-4.158,1.586-6.044,2.444"/>
	</g>
	<g>
		<path id="Layer0_0_3_STROKES" fill="none" stroke="#40281C" stroke-width="2" stroke-linecap="round" stroke-linejoin="round" d="
			M620.012,175.945l-16.202,3.987c-0.603,0.085-1.158,0.128-1.673,0.128c-34.204,13.545-79.339,13.545-135.406,0
			c-16.373-3.857-28.804-11.658-37.291-23.403c-0.858,1.971-2.144,3.558-3.858,4.758c-0.772,0.601-1.671,1.071-2.701,1.414
			 M406.551,152.798c-0.601-1.799-0.772-3.643-0.515-5.529c0.172-1.628,0.558-3,1.158-4.115 M406.294,142.896
			c-4.63,0.172-9.131,0.087-13.502-0.256h-0.129 M380.19,154.984c20.06,5.659,51.436,22.289,94.127,49.893
			c1.716,0.858,3.429,1.586,5.144,2.187c1.545,0.6,3.044,1.158,4.501,1.671c4.287,1.543,8.702,2.786,13.245,3.729
			c1.198,0.257,2.398,0.514,3.6,0.771c1.457,0.257,2.873,0.515,4.244,0.772c0.516,0,1.07,0.085,1.673,0.256 M562.018,211.95
			l4.757-0.9c0.256-0.085,0.515-0.171,0.771-0.256c6.944-1.63,14.188-3.602,21.731-5.916l17.36-8.744
			c1.886-1.029,3.772-2.057,5.658-3.087l-0.259-0.256c0.171,0,0.345,0,0.516,0l16.201-9.388 M640.842,175.559l19.932-14.273
			l-23.402,9.257 M620.012,175.945c3.086-0.858,6.171-1.8,9.258-2.83c2.744-0.856,5.441-1.714,8.102-2.572 M634.028,180.06
			l0.771,1.029l66.995-10.801c2.571-14.83,6.944-23.232,13.115-25.204l-27.647,1.801c-1.542,0.943-3.129,1.929-4.757,2.957
			l-21.474,11.316c0,0.086-0.085,0.129-0.259,0.129 M694.079,142.125c-2.23,1.629-4.501,3.215-6.816,4.758 M774.062,166.686
			l-59.151-21.603 M776.892,167.844h0.128 M755.547,184.433l19.932-16.717c0.17,0,0.384,0,0.643,0c0.171,0,0.427,0.042,0.771,0.128
			 M778.24,168.229c-0.321-0.128-0.643-0.257-0.964-0.385 M781.265,169.387l23.917,64.937l0.385,1.029l-37.42,17.36
			c0,0.17,0,0.301,0,0.387v0.384c-0.771,18.091-7.285,37.505-19.545,58.253c-17.402,19.633-36.178,35.877-56.323,48.736
			 M692.278,361.116c-9.258,0.342-18.433,0.513-27.519,0.513l-18.259-0.257c-0.687-0.085-1.329-0.128-1.929-0.128 M641.485,363.558
			l-10.931,11.061c-0.43,0.427-0.856,0.813-1.285,1.155c-0.43,0.43-0.857,0.773-1.286,1.03 M624.769,379.89
			c-39.007,31.89-96.571,50.495-172.696,55.81c-55.295-7.716-94.085-23.191-116.375-46.424c7.458-8.057,28.076-15.044,61.853-20.959
			c-18.946-3.945-39.649-6.517-62.11-7.715c-12.687,0.6-18.388-1.5-17.102-6.302c17.917-20.403,54.223-33.948,108.917-40.634
			c2.915,0,4.886-0.901,5.915-2.7c43.035-10.031,86.455-11.061,130.263-3.087l39.735-48.992c0.771-0.944,1.542-1.844,2.313-2.702
			c-0.771-9.087-30.176-15.602-88.212-19.545l-65.967-23.146c-11.659,0.686-26.919-2.186-45.779-8.616
			c-61.809,10.545-114.402,0.343-157.78-30.604c-13.631-12.431-30.263-20.917-49.894-25.461 M194.119,149.841
			c-3.172,10.373-8.188,19.332-15.045,26.876c0.257,1.372,8.187,15.044,23.79,41.02c15.603,26.146,24.089,57.008,25.46,92.587
			c-0.943,5.914-7.158-0.216-18.646-18.39c-10.03-15.945-22.889-28.461-38.577-37.548c24.947,35.062,35.792,66.523,32.533,94.384
			l-0.386-0.128c-0.343-0.171-0.643-0.299-0.9-0.385c-0.163-0.082-0.334-0.125-0.514-0.13c-9.431-3.084-19.546-6.214-30.348-9.386
			c-13.115-3.772-28.889-17.317-47.321-40.634c-18.603-23.232-27.39-51.138-26.361-83.714c-5.829-37.206-0.3-67.597,16.589-91.171
			c12.687-16.374,25.46-26.961,38.32-31.762l23.532-2.314c2.572,0.428,5.187,1.115,7.845,2.058 M186.917,91.718l3.086-11.831
			l0.643-0.256c2.744-1.115,5.101-1.63,7.073-1.543l35.49-7.973 M240.54,66.515l18.518-15.173
			c25.289-16.631,62.967-27.819,113.03-33.563c82.983-8.059,172.184,9.173,267.597,51.693l73.04,56.966
			c-6.213,5.23-12.432,10.459-18.646,15.688 M767.632,239.854l12.731-8.745l-24.816-46.677l-53.752-14.146 M179.074,176.717
			c-2.572,0.256-6.044-2.916-10.415-9.516l-25.718,37.034 M168.659,167.201c-1.458-2.229-1.973-3.986-1.543-5.271
			c-16.203,8.229-26.619,23.574-31.247,46.035 M167.115,161.929c-11.23-15.003-18.045-24.133-20.446-27.391 M239.897,68.571
			l-1.543,0.386c-0.686,0.772-1.329,1.543-1.929,2.315l-2.958,3.858c-3.515,4.972-6.3,10.201-8.358,15.687
			c0.085,0.515,0.215,1.072,0.386,1.673 M227.295,98.662c0,0.085,0.042,0.171,0.128,0.257c0.129,0.386,0.257,0.771,0.387,1.157
			 M285.161,144.44c17.06,1.028,30.819-3.986,41.277-15.045c-0.429-1.457-0.514-2.915-0.256-4.371
			c0.428-3.515,1.929-6.172,4.5-7.973s5.572-2.271,9.001-1.414c3.343,0.942,6,2.915,7.972,5.915
			c1.628,2.229,2.486,4.543,2.572,6.944c0.429,0.256,0.815,0.514,1.158,0.771l5.593,2.893 M233.21,70.115l5.144-1.158
			 M202.991,100.977c0-0.428,0-0.814,0-1.158V99.69l-3.471-1.543 M226.009,97.119h-23.146c0.085,0.858,0.128,1.714,0.128,2.572
			l5.016,2.314l17.745,8.358 M227.81,100.076c1.8,5.144,3.686,9.687,5.657,13.631c0,0.085,0,0.171,0,0.256
			c3.344,6.173,10.159,12.646,20.447,19.418l6.3,2.442c6.259,2.315,12.474,4.758,18.646,7.33l0.129,0.129c0.085,0,0.17,0,0.257,0
			 M225.752,110.363l7.715,3.601 M202.863,97.119c3-12.516,1.286-18.86-5.144-19.031 M279.247,143.283
			c0.085,0,0.17,0.043,0.256,0.128h0.194c1.011,0.178,1.975,0.393,2.893,0.643 M285.161,144.44c-0.428-0.085-0.9-0.128-1.414-0.128
			 M326.438,129.395c0.343,1.886,1.115,3.645,2.315,5.273c2.142,3.085,4.886,5.057,8.229,5.915c3.257,0.943,6.216,0.515,8.873-1.286
			c2.572-1.8,4.029-4.414,4.372-7.844c0-1.028,0-2.015,0-2.957 M282.589,144.054c-0.943-0.17-1.843-0.343-2.7-0.515
			c-0.059-0.058-0.123-0.101-0.193-0.128 M283.039,144.183c-0.07,0-0.135,0-0.192,0l-0.257-0.128 M278.86,143.154
			c-5.83-1.543-12.044-3.986-18.646-7.33 M361.029,134.089c-0.643-0.3-1.286-0.579-1.929-0.836 M392.662,142.641l-29.446-7.587
			l-2.187-0.964 M356.014,157.042l11.831-3.986c0.772,0,1.586,0.043,2.443,0.128 M359.101,133.252
			c-0.708-0.386-1.415-0.75-2.122-1.093 M429.44,156.656c0.343-0.943,0.514-1.972,0.514-3.085c0.515-3.602-0.3-6.902-2.442-9.902
			c-1.972-3.087-4.673-5.058-8.101-5.916c-3.43-0.856-6.387-0.428-8.873,1.286c-1.458,1.115-2.572,2.486-3.343,4.115
			 M285.161,144.44l84.355,37.806c15.688,12.259,27.691,19.802,36.005,22.631 M479.461,207.064
			c-9.087,3.772-18.473,5.915-28.16,6.429 M335.697,389.275c6.687,5.747,22.118,6.773,46.292,3.087l10.159-1.801 M397.55,368.316
			l38.19,12.859h11.573 M357.172,382.334l3.729,8.742 M371.574,378.732l5.271,9.129 M386.62,376.675l5.915,8.487 M433.168,310.966
			c2.401,2.999,4.544,10.714,6.429,23.146c1.629,12.256,6.944,28.031,15.946,47.319 M427.254,313.666
			c0.6,24.088,7.158,43.806,19.674,59.151 M392.148,390.562c12.517-2.143,27.047-5.271,43.592-9.386 M143.711,224.681
			c-0.428-1.201-0.986-2.487-1.671-3.858c-0.772-1.972-1.843-3.9-3.215-5.787 M201.834,348.127
			c-24.261-10.373-43.978-45.949-59.151-106.73c2.314-5.399,2.657-10.971,1.028-16.715l7.073,19.545
			c7.03,2.828,13.802,6.217,20.317,10.159 M97.804,214.394h23.146 M166.472,290.133l16.717-2.313 M157.342,273.416l17.746-3.087
			 M202.348,348.257c-0.085-0.085-0.17-0.13-0.256-0.13c-0.078,0-0.165,0-0.258,0 M174.573,310.579l16.074-4.244 M767.632,239.854
			c-0.19-0.965-0.361-1.949-0.513-2.959l-0.643-3.471l-6.688-18.388c0-0.428,0-0.815,0-1.158
			c-15.431,2.229-25.331,12.774-29.704,31.634l1.93,0.515l-2.058,5.656 M723.527,269.431l3.215-8.745 M720.054,278.56l-0.899,2.443
			c0.771-0.085,1.542-0.17,2.315-0.256 M727.899,281.132c1.115,0.259,2.185,0.686,3.215,1.285l17.487,29.32 M767.504,239.982
			l0.128-0.128c0.171,1.286,0.302,2.614,0.387,3.985l0.128,2.831c0.088,1.884,0.088,3.813,0,5.786c0,0.086,0,0.171,0,0.257
			 M766.604,240.625l0.899-0.643 M780.363,231.109c12.173-8.487,20.446-7.414,24.818,3.215 M612.553,192.791
			c80.582-3.086,128.12,1.286,142.607,13.115c2.913,2.316,4.457,4.973,4.628,7.973 M728.283,245.385v-0.259
			c-2.142-23.917,6.816-36.991,26.877-39.22 M732.014,246.027h-3.73c0.174,0.513,0.345,1.07,0.516,1.671 M730.084,245.513
			l-1.801-0.387 M720.054,275.089l-2.7,1.027 M714.91,276.116l1.801-1.027 M722.241,271.103l-3.474,2.441l-2.057,1.545
			 M666.947,211.179c1.371-0.257,2.657-0.428,3.857-0.515h-0.901 M666.947,211.179c-3.303,1.029-6.604,2.057-9.903,3.085
			c-1.115,0.515-2.228,1.03-3.343,1.543c-4.714,2.958-9.431,5.916-14.145,8.874 M636.213,227.252l1.673-1.285 M631.841,230.854
			c-7.115,6.686-14.23,13.373-21.346,20.06c-0.085,0.088-0.171,0.173-0.256,0.258c-0.086,0.086-0.171,0.214-0.259,0.385
			c-0.086,0-0.171,0.088-0.256,0.259c-0.088,0.085-0.214,0.213-0.387,0.384c-0.601,0.601-1.158,1.243-1.671,1.929
			c-0.171,0.088-0.301,0.174-0.387,0.259c-0.171,0.086-0.301,0.171-0.387,0.257c-0.171,0.171-0.299,0.342-0.384,0.515
			c-0.174,0.085-0.299,0.214-0.387,0.384c-0.086,0.086-0.214,0.217-0.385,0.387c-0.085,0.086-0.171,0.171-0.259,0.257v0.131
			l66.483-45.651h-1.158c1.63-0.085,3.127-0.085,4.501,0 M669.903,210.664l-102.357,0.129 M699.479,242.17l0.387-7.715
			c0-1.201,0-2.487,0-3.858l-20.188-19.16c-1.456-0.258-2.916-0.515-4.372-0.772 M699.479,242.17c0,1.115-0.04,2.228-0.128,3.343
			l28.933,0.515 M612.296,193.047v-0.128c0.086,0,0.171-0.043,0.257-0.128 M631.841,230.854c0.856-0.771,1.758-1.543,2.7-2.316
			c0.564-0.449,1.122-0.879,1.672-1.285 M563.432,307.879l1.286,1.027 M596.737,338.997l-15.175-12.088
			c-2.145-1.542-4.373-3.084-6.686-4.629c-1.201-0.941-2.444-1.841-3.729-2.7c-0.088-0.085-0.174-0.128-0.259-0.128
			c-0.086-0.088-0.171-0.173-0.257-0.259c3.943,4.974,7.801,9.56,11.573,13.761l3.602,3.986c1.201,1.286,2.356,2.529,3.471,3.729
			 M662.961,340.477l19.673-5.337l36.521-54.137 M660.646,340.926v0.128c0.773-0.19,1.547-0.387,2.315-0.577 M660.646,340.926h0.128
			 M645.471,359.443l13.374-16.073l0.644-0.899c0.396-0.462,0.78-0.935,1.157-1.417 M682.634,335.14
			c20.575,6.944,23.79,15.388,9.645,25.334 M624.125,379.119l0.644,0.771c0.771-0.771,1.459-1.459,2.057-2.057
			c0.344-0.344,0.729-0.688,1.158-1.029 M660.773,340.926c22.803-30.261,35.661-62.067,38.577-95.413"/>
	</g>
</g>
</svg>
