<svg xmlns="http://www.w3.org/2000/svg" width="900" height="450" viewBox="0 0 900 450"><g><linearGradient id="a" gradientUnits="userSpaceOnUse" x1="240.236" y1="57.083" x2="258.587" y2="30.465" gradientTransform="matrix(1 0 0 -1 29.04 379.34)"><stop offset=".486"/><stop offset=".667" stop-color="#222"/><stop offset=".914"/></linearGradient><path fill="url(#a)" d="M144.727 408.5c1.323 12.42 7.422 21.201 18.298 26.345l128.637-88.624 120.919-90.826-133.155 83.883 127.755-91.711-132.385 76.608L144.727 408.5z"/><linearGradient id="b" gradientUnits="userSpaceOnUse" x1="466.852" y1="209.894" x2="483.33" y2="185.59" gradientTransform="matrix(1 0 0 -1 29.04 379.34)"><stop offset=".459" stop-color="#d1a747"/><stop offset=".729" stop-color="#e2ca94"/><stop offset=".855" stop-color="#d7b057"/></linearGradient><path fill="url(#b)" d="M737.203 36.26l-4.409-6.283-1.763-2.535-456.235 296.733 132.385-76.608-127.755 91.711 133.155-83.883-120.919 90.826 55.445-38.358L737.203 36.26m-4.409-6.283l-1.763-2.645v.11l1.763 2.535z"/><path fill="#FFF" d="M747.346 17.08l-.112.111-16.202 10.141 1.763 2.645 4.409 6.283 15.873-10.913v-.11l-5.731-8.157z"/><path d="M750.431 14.655l-3.085 2.424 5.73 8.157 3.197-2.205c-.883-2.205-1.653-3.674-2.314-4.409-.368-.66-1.544-1.983-3.528-3.967z"/></g><path fill="none" stroke="#000" stroke-width="2" stroke-linecap="round" stroke-linejoin="round" d="M747.346 17.08l3.085-2.424c1.984 1.984 3.16 3.307 3.528 3.968.661.735 1.432 2.205 2.314 4.409l-3.197 2.205m0 .109L737.425 36.59l-.222-.331M291.662 346.221l-128.637 88.624c-10.876-5.144-16.976-13.925-18.298-26.345l130.069-84.325M731.031 27.441l-.332-.441 16.534-9.81m-10.03 19.07l-4.409-6.283-1.763-2.535"/><path fill="none" stroke="#000" stroke-linecap="round" stroke-linejoin="round" d="M753.076 25.237l-5.73-8.157"/><path fill="none" stroke="#4F3222" stroke-width="2" stroke-linecap="round" stroke-linejoin="round" d="M737.203 36.26L347.106 307.862l-55.445 38.358m-16.865-22.045L731.031 27.441v-.11"/></svg>