<?xml version="1.0" encoding="utf-8"?>
<!-- Generator: Adobe Illustrator 16.0.0, SVG Export Plug-In . SVG Version: 6.00 Build 0)  -->
<!DOCTYPE svg PUBLIC "-//W3C//DTD SVG 1.1//EN" "http://www.w3.org/Graphics/SVG/1.1/DTD/svg11.dtd">
<svg version="1.1" id="Layer_1" xmlns="http://www.w3.org/2000/svg" xmlns:xlink="http://www.w3.org/1999/xlink" x="0px" y="0px"
	 width="900px" height="450px" viewBox="0 0 900 450" enable-background="new 0 0 900 450" xml:space="preserve">
<g transform="matrix( 1, 0, 0, 1, 0,0) ">
	<g>
		<g id="Layer0_0_FILL">
			
				<linearGradient id="SVGID_1_" gradientUnits="userSpaceOnUse" x1="499.2031" y1="177.105" x2="490.8381" y2="190.712" gradientTransform="matrix(1 0 0 -1 29.04 379.3398)">
				<stop  offset="0" style="stop-color:#000000"/>
				<stop  offset="0.7412" style="stop-color:#6A6A6A"/>
				<stop  offset="1" style="stop-color:#0D0D0D"/>
			</linearGradient>
			<path fill="url(#SVGID_1_)" d="M516.726,191.398l7.697,12.382c2.453-1.19,4.906-2.417,7.361-3.681l-8.701-13.497
				C521.076,188.165,518.957,189.762,516.726,191.398z"/>
			
				<linearGradient id="SVGID_2_" gradientUnits="userSpaceOnUse" x1="487.4424" y1="170.5684" x2="479.8022" y2="182.9489" gradientTransform="matrix(1 0 0 -1 29.04 379.3398)">
				<stop  offset="0" style="stop-color:#000000"/>
				<stop  offset="0.7412" style="stop-color:#6A6A6A"/>
				<stop  offset="1" style="stop-color:#0D0D0D"/>
			</linearGradient>
			<path fill="url(#SVGID_2_)" d="M508.024,212.927c5.429-3.272,10.896-6.321,16.398-9.146l-7.697-12.382
				c-4.686,3.421-9.558,6.842-14.611,10.262L508.024,212.927z"/>
			
				<linearGradient id="SVGID_3_" gradientUnits="userSpaceOnUse" x1="178.0508" y1="-21.7944" x2="169.3516" y2="-7.7419" gradientTransform="matrix(1 0 0 -1 29.04 379.3398)">
				<stop  offset="0" style="stop-color:#444444"/>
				<stop  offset="0.7412" style="stop-color:#848484"/>
				<stop  offset="1" style="stop-color:#515151"/>
			</linearGradient>
			<path fill="url(#SVGID_3_)" d="M264.975,363.397l-7.027-11.268c-42.982,25.284-80.831,51.608-113.551,78.973
				C182.917,413.256,223.11,390.687,264.975,363.397z"/>
			
				<linearGradient id="SVGID_4_" gradientUnits="userSpaceOnUse" x1="278.0522" y1="24.5674" x2="255.5755" y2="60.9876" gradientTransform="matrix(1 0 0 -1 29.04 379.3398)">
				<stop  offset="0" style="stop-color:#555555"/>
				<stop  offset="0.7412" style="stop-color:#AAAAAA"/>
				<stop  offset="1" style="stop-color:#777777"/>
			</linearGradient>
			<path fill="url(#SVGID_4_)" d="M296.765,312.646c-9.593,4.535-17.438,8.849-23.536,12.938l22.421,36.141
				c6.395-3.57,13.756-8.701,22.085-15.394L296.765,312.646z"/>
			
				<linearGradient id="SVGID_5_" gradientUnits="userSpaceOnUse" x1="255.1113" y1="10.5117" x2="232.7565" y2="46.6919" gradientTransform="matrix(1 0 0 -1 29.04 379.3398)">
				<stop  offset="0" style="stop-color:#555555"/>
				<stop  offset="0.7412" style="stop-color:#AAAAAA"/>
				<stop  offset="1" style="stop-color:#777777"/>
			</linearGradient>
			<path fill="url(#SVGID_5_)" d="M265.533,363.173c4.61,7.959,14.649,7.475,30.117-1.448l-22.421-36.141
				c-14.798,9.889-19.705,18.664-14.723,26.324c-0.297,0.074-0.483,0.147-0.558,0.222l7.027,11.268L265.533,363.173z"/>
			
				<linearGradient id="SVGID_6_" gradientUnits="userSpaceOnUse" x1="301.6504" y1="40.9185" x2="280.8119" y2="74.6835" gradientTransform="matrix(1 0 0 -1 29.04 379.3398)">
				<stop  offset="0" style="stop-color:#555555"/>
				<stop  offset="0.7412" style="stop-color:#AAAAAA"/>
				<stop  offset="1" style="stop-color:#777777"/>
			</linearGradient>
			<path fill="url(#SVGID_6_)" d="M325.989,301.603l-0.781-0.893c-8.031,3.124-15.356,6.172-21.974,9.147
				C309.926,307.104,317.511,304.354,325.989,301.603 M339.485,326.589h-0.111c-0.447,0.669-2.306,2.602-5.577,5.799
				c-1.562,1.637-3.346,3.384-5.355,5.242c3.644-3.198,7.474-6.653,11.49-10.372c0.074,0,0.185,0,0.334,0L339.485,326.589
				 M339.374,326.589h0.111l-0.558-0.558l-14.166-23.202c0.373-0.446,0.781-0.854,1.228-1.227
				c-8.478,2.752-16.063,5.501-22.755,8.255c-2.157,0.928-4.313,1.858-6.469,2.789l20.97,33.685
				c3.123-2.453,6.395-5.094,9.815-7.919c0.297-0.26,0.595-0.521,0.892-0.782c2.009-1.858,3.793-3.605,5.355-5.242
				C337.068,329.19,338.927,327.258,339.374,326.589z"/>
			
				<linearGradient id="SVGID_7_" gradientUnits="userSpaceOnUse" x1="324.0112" y1="56.2871" x2="304.4723" y2="87.8843" gradientTransform="matrix(1 0 0 -1 29.04 379.3398)">
				<stop  offset="0" style="stop-color:#555555"/>
				<stop  offset="0.7412" style="stop-color:#AAAAAA"/>
				<stop  offset="1" style="stop-color:#777777"/>
			</linearGradient>
			<path fill="url(#SVGID_7_)" d="M338.927,326.031c0.223-0.148,0.372-0.262,0.447-0.336c0.445,0,0.855-0.111,1.227-0.335
				c4.164-1.338,8.477-2.899,12.938-4.685c3.644-1.562,7.288-3.124,10.932-4.684l-19.409-31.679
				c-7.213,5.876-13.571,11.636-19.073,17.289c-0.447,0.373-0.855,0.78-1.228,1.227L338.927,326.031z"/>
			
				<linearGradient id="SVGID_8_" gradientUnits="userSpaceOnUse" x1="349.541" y1="68.6533" x2="326.9694" y2="105.2138" gradientTransform="matrix(1 0 0 -1 29.04 379.3398)">
				<stop  offset="0" style="stop-color:#555555"/>
				<stop  offset="0.7412" style="stop-color:#AAAAAA"/>
				<stop  offset="1" style="stop-color:#777777"/>
			</linearGradient>
			<path fill="url(#SVGID_8_)" d="M368.597,266.356c-8.626,6.095-16.471,12.082-23.535,17.957l19.409,31.679
				c8.328-3.793,17.214-8.144,26.658-13.052L368.597,266.356z"/>
			
				<linearGradient id="SVGID_9_" gradientUnits="userSpaceOnUse" x1="389.5552" y1="93.3579" x2="366.9841" y2="129.9175" gradientTransform="matrix(1 0 0 -1 29.04 379.3398)">
				<stop  offset="0" style="stop-color:#555555"/>
				<stop  offset="0.7412" style="stop-color:#AAAAAA"/>
				<stop  offset="1" style="stop-color:#777777"/>
			</linearGradient>
			<path fill="url(#SVGID_9_)" d="M441.323,261.559l-13.162-21.528c-11.898,3.124-31.753,11.899-59.564,26.326l22.532,36.584
				C416.56,284.499,433.292,270.704,441.323,261.559z"/>
			
				<linearGradient id="SVGID_10_" gradientUnits="userSpaceOnUse" x1="466.3916" y1="158.4473" x2="459.5325" y2="169.6003" gradientTransform="matrix(1 0 0 -1 29.04 379.3398)">
				<stop  offset="0" style="stop-color:#000000"/>
				<stop  offset="0.7412" style="stop-color:#6A6A6A"/>
				<stop  offset="1" style="stop-color:#0D0D0D"/>
			</linearGradient>
			<path fill="url(#SVGID_10_)" d="M475.455,218.058l6.581,11.154c6.022-4.09,12.271-8.105,18.738-12.046
				c2.455-1.413,4.871-2.826,7.25-4.239l-5.91-11.266c-2.529,1.636-5.133,3.346-7.808,5.131
				C488.059,210.733,481.775,214.488,475.455,218.058z"/>
			
				<linearGradient id="SVGID_11_" gradientUnits="userSpaceOnUse" x1="434.3286" y1="131.4624" x2="421.1107" y2="152.8788" gradientTransform="matrix(1 0 0 -1 29.04 379.3398)">
				<stop  offset="0" style="stop-color:#000000"/>
				<stop  offset="0.7412" style="stop-color:#6A6A6A"/>
				<stop  offset="1" style="stop-color:#0D0D0D"/>
			</linearGradient>
			<path fill="url(#SVGID_11_)" d="M441.323,261.559c12.418-11.524,25.989-22.309,40.713-32.347l-6.581-11.154
				c-15.616,8.701-31.381,16.025-47.294,21.973L441.323,261.559z"/>
			<path fill="#77F2E0" d="M588.781,158.717l3.011,5.02l-30.228,23.424c37.702,1.934,75.18,5.763,112.436,11.489
				c29.447-13.906,56.998-30.934,82.652-51.086c-1.189-32.124-4.723-60.79-10.597-85.999L588.781,158.717 M567.699,119.454
				c-5.799,15.988-12.27,31.418-19.408,46.29l17.847-9.703l38.371-58.337l100.723-62.128c-7.064-4.611-12.903-8.031-17.513-10.262
				c-7.809-3.644-15.392-5.95-22.753-6.916c-30.861,14.054-58.485,31.158-82.877,51.31
				C579.039,84.728,574.244,101.31,567.699,119.454z"/>
			<path fill="#53CDD7" d="M566.138,156.041l-10.93,16.396l33.573-13.72l157.274-97.153l-37.366-28.22l-3.458,2.231L604.509,97.703
				L566.138,156.041z"/>
			
				<linearGradient id="SVGID_12_" gradientUnits="userSpaceOnUse" x1="534.9258" y1="193.6611" x2="521.7062" y2="215.0802" gradientTransform="matrix(1 0 0 -1 29.04 379.3398)">
				<stop  offset="0" style="stop-color:#000000"/>
				<stop  offset="0.7412" style="stop-color:#6A6A6A"/>
				<stop  offset="1" style="stop-color:#0D0D0D"/>
			</linearGradient>
			<path fill="url(#SVGID_12_)" d="M548.291,165.744c-7.882,7.213-16.285,14.166-25.208,20.859l8.701,13.497
				c9.962-4.834,19.893-9.146,29.78-12.939l30.228-23.424l-3.011-5.02l-33.573,13.72l10.93-16.396L548.291,165.744z"/>
		</g>
	</g>
	<g>
		<path id="Layer0_0_1_STROKES" fill="none" stroke="#258596" stroke-width="2" stroke-linecap="round" stroke-linejoin="round" d="
			M561.564,187.16l30.228-23.424l-3.011-5.02l-33.573,13.72l10.93-16.396l-17.847,9.703c7.139-14.872,13.609-30.301,19.408-46.29
			c6.545-18.145,11.34-34.727,14.39-49.748c24.392-20.152,52.016-37.255,82.877-51.31c7.361,0.966,14.944,3.272,22.753,6.916
			c4.609,2.231,10.448,5.651,17.513,10.262l3.458-2.231l37.366,28.22c5.874,25.208,9.407,53.875,10.597,85.999
			c-25.654,20.153-53.205,37.181-82.652,51.086C636.744,192.923,599.267,189.094,561.564,187.16z M705.231,35.575L604.509,97.703
			l-38.371,58.337 M588.781,158.717l157.274-97.153"/>
	</g>
	<g>
		<path id="Layer0_0_2_STROKES" fill="none" stroke="#666666" stroke-width="2" stroke-linecap="round" stroke-linejoin="round" d="
			M531.784,200.1l-8.701-13.497 M475.455,218.058l6.581,11.154 M502.114,201.661l5.91,11.266 M524.423,203.78l-7.697-12.382"/>
	</g>
	<g>
		<path id="Layer0_0_3_STROKES" fill="none" stroke="#2993A5" stroke-width="2" stroke-linecap="round" stroke-linejoin="round" d="
			M324.761,302.829l14.166,23.202 M391.129,302.94l-22.532-36.584 M364.471,315.992l-19.409-31.679 M273.229,325.584l22.421,36.141
			 M317.734,346.331l-20.97-33.685"/>
	</g>
	<g>
		<path id="Layer0_0_4_STROKES" fill="none" stroke="#171717" stroke-width="2" stroke-linecap="round" stroke-linejoin="round" d="
			M548.291,165.744c-7.882,7.213-16.285,14.166-25.208,20.859 M561.564,187.16c-9.888,3.793-19.818,8.105-29.78,12.939
			 M482.036,229.212c-14.725,10.038-28.295,20.822-40.713,32.347c-8.031,9.146-24.763,22.94-50.194,41.382
			c-9.444,4.908-18.331,9.259-26.658,13.052c-3.644,1.56-7.288,3.122-10.932,4.684c-3.049,1.338-5.502,2.306-7.361,2.9
			c-3.793,1.34-5.838,2.082-6.135,2.23c-0.149,0.076-0.297,0.111-0.446,0.111c0,0.074,0,0.148,0,0.225
			c0,0.147-0.037,0.298-0.111,0.446 M328.442,337.63c-0.297,0.261-0.595,0.522-0.892,0.782c-3.42,2.825-6.692,5.466-9.815,7.919
			c-8.329,6.692-15.69,11.823-22.085,15.394c-15.468,8.923-25.507,9.407-30.117,1.448l-0.558,0.225
			c-41.865,27.289-82.058,49.858-120.578,67.705c32.72-27.364,70.569-53.688,113.551-78.973c0.074-0.074,0.26-0.147,0.558-0.222
			c-4.982-7.66-0.075-16.436,14.723-26.324c6.098-4.089,13.943-8.402,23.536-12.938c2.157-0.931,4.313-1.861,6.469-2.789
			 M325.989,301.603c5.502-5.653,11.86-11.413,19.073-17.289c7.064-5.875,14.909-11.862,23.535-17.957
			c27.811-14.427,47.666-23.202,59.564-26.326c15.913-5.947,31.678-13.271,47.294-21.973c6.32-3.57,12.604-7.324,18.852-11.266
			c2.675-1.785,5.278-3.495,7.808-5.131c5.054-3.42,9.926-6.841,14.611-10.262c2.231-1.636,4.351-3.234,6.357-4.796
			 M482.036,229.212c6.022-4.09,12.271-8.105,18.738-12.046c2.455-1.413,4.871-2.826,7.25-4.239 M441.323,261.559l-13.162-21.528
			 M328.442,337.63c2.009-1.858,3.793-3.605,5.355-5.242c3.271-3.197,5.13-5.13,5.577-5.799h0.111 M325.989,301.603
			c-8.478,2.752-16.063,5.501-22.755,8.255 M257.948,352.13l7.027,11.268 M508.024,212.927c5.429-3.272,10.896-6.321,16.398-9.146
			c2.453-1.19,4.906-2.417,7.361-3.681"/>
	</g>
</g>
</svg>
