<svg xmlns="http://www.w3.org/2000/svg" width="900" height="450" viewBox="0 0 900 450"><g><linearGradient id="a" gradientUnits="userSpaceOnUse" x1="499.203" y1="177.105" x2="490.838" y2="190.712" gradientTransform="matrix(1 0 0 -1 29.04 379.34)"><stop offset="0"/><stop offset=".741" stop-color="#6a6a6a"/><stop offset="1" stop-color="#0d0d0d"/></linearGradient><path fill="url(#a)" d="M516.726 191.398l7.697 12.382a345.813 345.813 0 0 0 7.361-3.681l-8.701-13.497a275.725 275.725 0 0 1-6.357 4.796z"/><linearGradient id="b" gradientUnits="userSpaceOnUse" x1="487.442" y1="170.568" x2="479.802" y2="182.949" gradientTransform="matrix(1 0 0 -1 29.04 379.34)"><stop offset="0"/><stop offset=".741" stop-color="#6a6a6a"/><stop offset="1" stop-color="#0d0d0d"/></linearGradient><path fill="url(#b)" d="M508.024 212.927a275.962 275.962 0 0 1 16.398-9.146l-7.697-12.382a501.79 501.79 0 0 1-14.611 10.262l5.91 11.266z"/><linearGradient id="c" gradientUnits="userSpaceOnUse" x1="178.051" y1="-21.794" x2="169.352" y2="-7.742" gradientTransform="matrix(1 0 0 -1 29.04 379.34)"><stop offset="0" stop-color="#444"/><stop offset=".741" stop-color="#848484"/><stop offset="1" stop-color="#515151"/></linearGradient><path fill="url(#c)" d="M264.975 363.397l-7.027-11.268c-42.982 25.284-80.831 51.608-113.551 78.973 38.52-17.846 78.713-40.415 120.578-67.705z"/><linearGradient id="d" gradientUnits="userSpaceOnUse" x1="278.052" y1="24.567" x2="255.576" y2="60.988" gradientTransform="matrix(1 0 0 -1 29.04 379.34)"><stop offset="0" stop-color="#555"/><stop offset=".741" stop-color="#aaa"/><stop offset="1" stop-color="#777"/></linearGradient><path fill="url(#d)" d="M296.765 312.646c-9.593 4.535-17.438 8.849-23.536 12.938l22.421 36.141c6.395-3.57 13.756-8.701 22.085-15.394l-20.97-33.685z"/><linearGradient id="e" gradientUnits="userSpaceOnUse" x1="255.111" y1="10.512" x2="232.756" y2="46.692" gradientTransform="matrix(1 0 0 -1 29.04 379.34)"><stop offset="0" stop-color="#555"/><stop offset=".741" stop-color="#aaa"/><stop offset="1" stop-color="#777"/></linearGradient><path fill="url(#e)" d="M265.533 363.173c4.61 7.959 14.649 7.475 30.117-1.448l-22.421-36.141c-14.798 9.889-19.705 18.664-14.723 26.324-.297.074-.483.147-.558.222l7.027 11.268.558-.225z"/><linearGradient id="f" gradientUnits="userSpaceOnUse" x1="301.65" y1="40.919" x2="280.812" y2="74.683" gradientTransform="matrix(1 0 0 -1 29.04 379.34)"><stop offset="0" stop-color="#555"/><stop offset=".741" stop-color="#aaa"/><stop offset="1" stop-color="#777"/></linearGradient><path fill="url(#f)" d="M325.989 301.603l-.781-.893c-8.031 3.124-15.356 6.172-21.974 9.147 6.692-2.753 14.277-5.503 22.755-8.254m13.496 24.986h-.111c-.447.669-2.306 2.602-5.577 5.799a120.706 120.706 0 0 1-5.355 5.242 580.46 580.46 0 0 0 11.49-10.372h.334l-.781-.669m-.111 0h.111l-.558-.558-14.166-23.202a9.683 9.683 0 0 1 1.228-1.227c-8.478 2.752-16.063 5.501-22.755 8.255-2.157.928-4.313 1.858-6.469 2.789l20.97 33.685a514.226 514.226 0 0 0 9.815-7.919l.892-.782a120.706 120.706 0 0 0 5.355-5.242c3.271-3.198 5.13-5.13 5.577-5.799z"/><linearGradient id="g" gradientUnits="userSpaceOnUse" x1="324.011" y1="56.287" x2="304.472" y2="87.884" gradientTransform="matrix(1 0 0 -1 29.04 379.34)"><stop offset="0" stop-color="#555"/><stop offset=".741" stop-color="#aaa"/><stop offset="1" stop-color="#777"/></linearGradient><path fill="url(#g)" d="M338.927 326.031a3.34 3.34 0 0 0 .447-.336c.445 0 .855-.111 1.227-.335a197.112 197.112 0 0 0 12.938-4.685c3.644-1.562 7.288-3.124 10.932-4.684l-19.409-31.679c-7.213 5.876-13.571 11.636-19.073 17.289-.447.373-.855.78-1.228 1.227l14.166 23.203z"/><linearGradient id="h" gradientUnits="userSpaceOnUse" x1="349.541" y1="68.653" x2="326.969" y2="105.214" gradientTransform="matrix(1 0 0 -1 29.04 379.34)"><stop offset="0" stop-color="#555"/><stop offset=".741" stop-color="#aaa"/><stop offset="1" stop-color="#777"/></linearGradient><path fill="url(#h)" d="M368.597 266.356c-8.626 6.095-16.471 12.082-23.535 17.957l19.409 31.679c8.328-3.793 17.214-8.144 26.658-13.052l-22.532-36.584z"/><linearGradient id="i" gradientUnits="userSpaceOnUse" x1="389.555" y1="93.358" x2="366.984" y2="129.917" gradientTransform="matrix(1 0 0 -1 29.04 379.34)"><stop offset="0" stop-color="#555"/><stop offset=".741" stop-color="#aaa"/><stop offset="1" stop-color="#777"/></linearGradient><path fill="url(#i)" d="M441.323 261.559l-13.162-21.528c-11.898 3.124-31.753 11.899-59.564 26.326l22.532 36.584c25.431-18.442 42.163-32.237 50.194-41.382z"/><linearGradient id="j" gradientUnits="userSpaceOnUse" x1="466.392" y1="158.447" x2="459.533" y2="169.6" gradientTransform="matrix(1 0 0 -1 29.04 379.34)"><stop offset="0"/><stop offset=".741" stop-color="#6a6a6a"/><stop offset="1" stop-color="#0d0d0d"/></linearGradient><path fill="url(#j)" d="M475.455 218.058l6.581 11.154a451.986 451.986 0 0 1 18.738-12.046 612.87 612.87 0 0 0 7.25-4.239l-5.91-11.266a656.07 656.07 0 0 0-7.808 5.131 451.747 451.747 0 0 1-18.851 11.266z"/><linearGradient id="k" gradientUnits="userSpaceOnUse" x1="434.329" y1="131.462" x2="421.111" y2="152.879" gradientTransform="matrix(1 0 0 -1 29.04 379.34)"><stop offset="0"/><stop offset=".741" stop-color="#6a6a6a"/><stop offset="1" stop-color="#0d0d0d"/></linearGradient><path fill="url(#k)" d="M441.323 261.559c12.418-11.524 25.989-22.309 40.713-32.347l-6.581-11.154c-15.616 8.701-31.381 16.025-47.294 21.973l13.162 21.528z"/><path fill="#77F2E0" d="M588.781 158.717l3.011 5.02-30.228 23.424A1116.036 1116.036 0 0 1 674 198.65a432.044 432.044 0 0 0 82.652-51.086c-1.189-32.124-4.723-60.79-10.597-85.999l-157.274 97.152m-21.082-39.263c-5.799 15.988-12.27 31.418-19.408 46.29l17.847-9.703 38.371-58.337 100.723-62.128c-7.064-4.611-12.903-8.031-17.513-10.262-7.809-3.644-15.392-5.95-22.753-6.916-30.861 14.054-58.485 31.158-82.877 51.31-3.05 15.02-7.845 31.602-14.39 49.746z"/><path fill="#53CDD7" d="M566.138 156.041l-10.93 16.396 33.573-13.72 157.274-97.153-37.366-28.22-3.458 2.231-100.722 62.128-38.371 58.338z"/><linearGradient id="l" gradientUnits="userSpaceOnUse" x1="534.926" y1="193.661" x2="521.706" y2="215.08" gradientTransform="matrix(1 0 0 -1 29.04 379.34)"><stop offset="0"/><stop offset=".741" stop-color="#6a6a6a"/><stop offset="1" stop-color="#0d0d0d"/></linearGradient><path fill="url(#l)" d="M548.291 165.744c-7.882 7.213-16.285 14.166-25.208 20.859l8.701 13.497c9.962-4.834 19.893-9.146 29.78-12.939l30.228-23.424-3.011-5.02-33.573 13.72 10.93-16.396-17.847 9.703z"/></g><path fill="none" stroke="#258596" stroke-width="2" stroke-linecap="round" stroke-linejoin="round" d="M561.564 187.16l30.228-23.424-3.011-5.02-33.573 13.72 10.93-16.396-17.847 9.703c7.139-14.872 13.609-30.301 19.408-46.29 6.545-18.145 11.34-34.727 14.39-49.748 24.392-20.152 52.016-37.255 82.877-51.31 7.361.966 14.944 3.272 22.753 6.916 4.609 2.231 10.448 5.651 17.513 10.262l3.458-2.231 37.366 28.22c5.874 25.208 9.407 53.875 10.597 85.999a431.944 431.944 0 0 1-82.652 51.086 1116.633 1116.633 0 0 0-112.437-11.487zM705.231 35.575L604.509 97.703l-38.371 58.337m22.643 2.677l157.274-97.153"/><path fill="none" stroke="#666" stroke-width="2" stroke-linecap="round" stroke-linejoin="round" d="M531.784 200.1l-8.701-13.497m-47.628 31.455l6.581 11.154m20.078-27.551l5.91 11.266m16.399-9.147l-7.697-12.382"/><path fill="none" stroke="#2993A5" stroke-width="2" stroke-linecap="round" stroke-linejoin="round" d="M324.761 302.829l14.166 23.202m52.202-23.091l-22.532-36.584m-4.126 49.636l-19.409-31.679m-71.833 41.271l22.421 36.141m22.084-15.394l-20.97-33.685"/><path fill="none" stroke="#171717" stroke-width="2" stroke-linecap="round" stroke-linejoin="round" d="M548.291 165.744c-7.882 7.213-16.285 14.166-25.208 20.859m38.481.557c-9.888 3.793-19.818 8.105-29.78 12.939m-49.748 29.113c-14.725 10.038-28.295 20.822-40.713 32.347-8.031 9.146-24.763 22.94-50.194 41.382-9.444 4.908-18.331 9.259-26.658 13.052-3.644 1.56-7.288 3.122-10.932 4.684-3.049 1.338-5.502 2.306-7.361 2.9-3.793 1.34-5.838 2.082-6.135 2.23a.968.968 0 0 1-.446.111v.225a.996.996 0 0 1-.111.446m-11.044 11.041l-.892.782a514.226 514.226 0 0 1-9.815 7.919c-8.329 6.692-15.69 11.823-22.085 15.394-15.468 8.923-25.507 9.407-30.117 1.448l-.558.225c-41.865 27.289-82.058 49.858-120.578 67.705 32.72-27.364 70.569-53.688 113.551-78.973.074-.074.26-.147.558-.222-4.982-7.66-.075-16.436 14.723-26.324 6.098-4.089 13.943-8.402 23.536-12.938 2.157-.931 4.313-1.861 6.469-2.789m22.755-8.254c5.502-5.653 11.86-11.413 19.073-17.289 7.064-5.875 14.909-11.862 23.535-17.957 27.811-14.427 47.666-23.202 59.564-26.326 15.913-5.947 31.678-13.271 47.294-21.973a451.34 451.34 0 0 0 18.852-11.266 648.046 648.046 0 0 1 7.808-5.131 499.08 499.08 0 0 0 14.611-10.262 276.43 276.43 0 0 0 6.357-4.796m-41.047 42.609a451.986 451.986 0 0 1 18.738-12.046 612.87 612.87 0 0 0 7.25-4.239m-66.701 48.632l-13.162-21.528m-99.719 97.599a120.706 120.706 0 0 0 5.355-5.242c3.271-3.197 5.13-5.13 5.577-5.799h.111m-13.496-24.986c-8.478 2.752-16.063 5.501-22.755 8.255m-45.286 42.272l7.027 11.268m243.049-150.471a275.962 275.962 0 0 1 16.398-9.146 345.813 345.813 0 0 0 7.361-3.681"/></svg>