<svg xmlns="http://www.w3.org/2000/svg" width="900" height="450" viewBox="0 0 900 450"><path fill="#D69055" d="M343.448 315.221l189.691-28.365V103.279l-189.691 16.133v195.809m289.123-7.804l.527 42.388 71.068-13.496-45.128-32.372-26.467 3.48M279.55 334.305l-37.222 6.01v67.589l88.467-17.504-51.245-56.095m0-159.745l-37.222 3.479v31l88.467-10.333-51.245-24.146m-47.766-45.447l-19.717 1.582-32.583-32.898v239.987l52.299 86.043V129.113m389.612-33.32l-88.255 7.486v183.576l88.255 79.293V95.793m9.174 46.711l.315 29.419 73.915-8.226-47.342-23.197-26.888 2.004z"/><path fill="#BD7946" d="M279.55 219.373l-37.222 4.534v116.408l37.222-6.01V219.373m-37.222-91.314v49.98l37.222-3.479v-49.664l-37.222 3.163M656.823 92.63l-26.888 2.425.634 47.449 26.888-2.004-.634-47.87m2.216 90.048l-27.942 3.796 1.475 120.943 26.468-3.48V182.678z"/><path fill="#A76C41" d="M330.795 390.399V213.151l-51.245 6.222v114.932l51.245 56.094M279.55 124.896v49.664l51.245 24.146v-78.027l-51.14 4.218h-.105m425.144 51.771l-45.655 6.009v121.259l45.128 32.372.527-159.64M656.823 92.63l.634 47.87 47.343 23.197.212-75.074-48.189 4.007z"/><path fill="#FDBE6F" d="M330.795 213.151v-14.446l-88.467 10.333v14.868l37.222-4.534 51.245-6.221m-88.467-35.112v-49.98l-10.544 1.054v294.713l111.665-19.507V119.412l-12.548 1.266h-.105V390.4l-88.467 17.504V178.039M158.291 61.208v14.867l21.193 21.721 32.583 32.898v-14.867l-53.776-54.619m551.466 12.021l33.002-2.741-122.314-44.814-462.154 35.534 53.776 54.619 497.69-42.598m-88.362 22.564l8.541-.738 26.888-2.425 48.188-4.007 8.33-.633h.105l29.312-2.636V70.487l-33.002 2.741-497.69 42.599v14.867l19.717-1.582 10.544-1.054 37.222-3.163h.105l51.14-4.218h.105l12.548-1.266 189.691-16.133 88.256-7.485m9.49 76.13l.212 14.551 27.942-3.796 45.655-6.009.105-12.971-73.914 8.225m0 0l-.315-29.419-.634-47.449-8.541.738v270.355l91.947-16.977V87.99l-8.33.633-.212 75.074-.105 12.971-.527 159.64-71.068 13.496-.527-42.388-1.475-120.943-.213-14.55z"/><g><path fill="none" stroke="#5A3927" stroke-width="2" stroke-linecap="round" stroke-linejoin="round" d="M630.885 171.923l-.315-29.419-.634-47.449-8.541.738v270.355l91.947-16.977V87.99l-8.33.633-.212 75.074-.105 12.971-.527 159.64-71.068 13.496-.527-42.388-1.475-120.943-.213-14.55 73.915-8.226-47.343-23.197-26.888 2.004m.528 43.97l27.942-3.796 45.655-6.009m-74.758-81.614l26.888-2.425.634 47.87m47.554-51.876l-48.188 4.007m-35.429 3.162l-88.255 7.486v183.576l88.255 79.293M179.484 97.796l-21.193-21.721V61.208l462.154-35.535 122.313 44.813v14.867l-29.312 2.636h-.105m-555.05-26.781l53.776 54.619 497.69-42.599 33.002-2.741m-530.692 60.208v-14.867m19.717 307.998V129.113l-19.717 1.582-32.583-32.898v239.987l52.3 86.042 111.665-19.507V119.412l-12.548 1.266h-.105V390.4l-88.467 17.504V128.058l-10.544 1.054m47.765-4.216v49.664l51.245 24.146-88.467 10.333m37.222-34.479l-37.222 3.479m37.222-53.143l-37.222 3.163m88.467-7.381l-51.14 4.218h-.105m-37.222 99.01l37.222-4.534 51.245-6.222m-88.467 127.164l37.222-6.01V219.373m51.245 171.026l-51.245-56.095m353.021-26.887l26.468-3.48V182.678m0 121.259l45.128 32.372M533.14 286.855L343.449 315.22M533.14 103.279l-189.691 16.133"/></g></svg>