<?xml version="1.0" encoding="utf-8"?>
<!-- Generator: Adobe Illustrator 16.0.0, SVG Export Plug-In . SVG Version: 6.00 Build 0)  -->
<!DOCTYPE svg PUBLIC "-//W3C//DTD SVG 1.1//EN" "http://www.w3.org/Graphics/SVG/1.1/DTD/svg11.dtd">
<svg version="1.1" id="Layer_1" xmlns="http://www.w3.org/2000/svg" xmlns:xlink="http://www.w3.org/1999/xlink" x="0px" y="0px"
	 width="900px" height="450px" viewBox="0 0 900 450" enable-background="new 0 0 900 450" xml:space="preserve">
<g transform="matrix( 1, 0, 0, 1, 0,0) ">
	<g>
		<g id="Layer0_0_FILL">
			<path fill="#D69055" d="M343.448,315.221l189.691-28.365V103.279l-189.691,16.133V315.221 M632.571,307.417l0.527,42.388
				l71.068-13.496l-45.128-32.372L632.571,307.417 M279.55,334.305l-37.222,6.01v67.589l88.467-17.504L279.55,334.305
				 M279.55,174.56l-37.222,3.479v31l88.467-10.333L279.55,174.56 M231.784,129.113l-19.717,1.582l-32.583-32.898v239.987
				l52.299,86.043V129.113 M621.395,95.793l-88.255,7.486v183.576l88.255,79.293V95.793 M630.569,142.504l0.315,29.419l73.915-8.226
				L657.457,140.5L630.569,142.504z"/>
			<path fill="#BD7946" d="M279.55,219.373l-37.222,4.534v116.408l37.222-6.01V219.373 M242.328,128.059v49.98l37.222-3.479v-49.664
				L242.328,128.059 M656.823,92.63l-26.888,2.425l0.634,47.449l26.888-2.004L656.823,92.63 M659.039,182.678l-27.942,3.796
				l1.475,120.943l26.468-3.48V182.678z"/>
			<path fill="#A76C41" d="M330.795,390.399V213.151l-51.245,6.222v114.932L330.795,390.399 M279.55,124.896v49.664l51.245,24.146
				v-78.027l-51.14,4.218H279.55 M704.694,176.668l-45.655,6.009v121.259l45.128,32.372L704.694,176.668 M656.823,92.63l0.634,47.87
				l47.343,23.197l0.212-75.074L656.823,92.63z"/>
			<path fill="#FDBE6F" d="M330.795,213.151v-14.446l-88.467,10.333v14.868l37.222-4.534L330.795,213.151 M242.328,178.039v-49.98
				l-10.544,1.054v294.713l111.665-19.507v-89.099V119.412l-12.548,1.266h-0.105v78.027v14.446v177.249l-88.467,17.504v-67.589
				V223.906v-14.868V178.039 M158.291,61.208v14.867l21.193,21.721l32.583,32.898v-14.867L158.291,61.208 M709.757,73.229
				l33.002-2.741L620.445,25.674L158.291,61.208l53.776,54.619L709.757,73.229 M621.395,95.793l8.541-0.738l26.888-2.425
				l48.188-4.007l8.33-0.633h0.105l29.312-2.636V70.487l-33.002,2.741l-497.69,42.599v14.867l19.717-1.582l10.544-1.054
				l37.222-3.163h0.105l51.14-4.218h0.105l12.548-1.266l189.691-16.133L621.395,95.793 M630.885,171.923l0.212,14.551l27.942-3.796
				l45.655-6.009l0.105-12.971L630.885,171.923 M630.885,171.923l-0.315-29.419l-0.634-47.449l-8.541,0.738v270.355l91.947-16.977
				V87.99l-8.33,0.633l-0.212,75.074l-0.105,12.971l-0.527,159.64l-71.068,13.496l-0.527-42.388l-1.475-120.943L630.885,171.923z"/>
		</g>
	</g>
	<g>
		<path id="Layer0_0_1_STROKES" fill="none" stroke="#5A3927" stroke-width="2" stroke-linecap="round" stroke-linejoin="round" d="
			M630.885,171.923l-0.315-29.419l-0.634-47.449l-8.541,0.738v270.355l91.947-16.977V87.99l-8.33,0.633l-0.212,75.074l-0.105,12.971
			l-0.527,159.64l-71.068,13.496l-0.527-42.388l-1.475-120.943L630.885,171.923l73.915-8.226L657.457,140.5l-26.888,2.004
			 M631.097,186.474l27.942-3.796l45.655-6.009 M629.936,95.055l26.888-2.425l0.634,47.87 M705.012,88.624l-48.188,4.007
			 M621.395,95.793l-88.255,7.486v183.576l88.255,79.293 M179.484,97.796l-21.193-21.721V61.208l462.154-35.535l122.313,44.813
			v14.867l-29.312,2.636h-0.105 M158.291,61.208l53.776,54.619l497.69-42.599l33.002-2.741 M212.067,130.695v-14.867
			 M231.784,423.826V129.113l-19.717,1.582l-32.583-32.898v239.987L231.784,423.826l111.665-19.507v-89.099V119.412l-12.548,1.266
			h-0.105v78.027v14.446v177.249l-88.467,17.504v-67.589V223.906v-14.868v-31v-49.98l-10.544,1.054 M279.55,124.896v49.664
			l51.245,24.146l-88.467,10.333 M279.55,174.56l-37.222,3.479 M279.55,124.896l-37.222,3.163 M330.795,120.678l-51.14,4.218h-0.105
			 M242.328,223.906l37.222-4.534l51.245-6.222 M242.328,340.314l37.222-6.01V219.373 M330.795,390.399l-51.245-56.095
			 M632.571,307.417l26.468-3.48V182.678 M659.039,303.937l45.128,32.372 M533.14,286.855l-189.691,28.365 M533.14,103.279
			l-189.691,16.133"/>
	</g>
</g>
</svg>
