<svg xmlns="http://www.w3.org/2000/svg" viewBox="0 0 114.5 106"><path fill-rule="evenodd" d="M14.05.8h2.2q-1.7 1.2-2.7 2.95l-.1.1q-.8 1.45-1.25 3.6l-.4 1.95q-.25 1.3-.35 4.35v.1q-.1 2.45.25 3.9v.05l.3.65q.6 1.55-.35 3.9l-.3.7q-1 1.7-2.45 1.6L7.75 24l-.25-.2q-.35-1.35-1.3-2.25Q5 20.5 4.1 20.6q-.8.1-1.2.85l-.1 1.2.1-1.2q.4-.75 1.2-.85.9-.1 2.1.95.95.9 1.3 2.25l-2.3-.05q-1.25-.35-2.4-1.1l.2.9Q1 22.6.8 21q-.35-1.6 1-4.05.85 1 2.5 1.75 2.55 0 4.85-2.7-.75-1.85-2.35-2.45L4.55 13H4.3l-2.1.75.85-1.6.95-1.1 1.3-.35 1-.35.55-.25q2.35-1.15 3.5-3.3l1.45-2.95Q12.8 2 14.05.8M10.9 8.15q-.4 1.1-2.15 2.5l-2.05 1.4q-1 .6-2.15.95 1.15-.35 2.15-.95l2.05-1.4q1.75-1.4 2.15-2.5m3.75 16.1l2.4-.25 2.35-.9q1.35 11.75 5.45 21.3l3.05 7.15q1.6 4 2.05 8.2L27.1 56.4l-.7-.95q-2.15-3-3.8-7.05l-3.3-8.5q-1.9-4.95-2.7-9.25-.65-3-1.95-6.4M37.1 96.3l-.2 1.2q-3 1.85-6.75.85l-.4-.1-2-.8q1.15-3.9 6.25-3.85.6 2.3 3.1 2.7m-.55 3l1 1.45q1.6 1.9 3.95 2.55-1.8 2.15-5.95 1.95h-.8L33 105l-.45-.1-.25-.05-1.35-.3q.75-3.7 5.6-5.25M94 90.55q1.25 1.7 3.65 1.7l-.5 2q-2.25 2.05-7.5.85l-.25-.05q1.35-2.2 3.7-2.75-2.35.55-3.7 2.75l-.4-.1-2.15-.7q.8-3.1 7.15-3.7m12.35 5.3q1 3.65 3.65 5.4-.65.85-1.55.9l-2.85.55h-.8l-2.35-.25h-.05l-1.75-.3q-.8-1 .7-2.75 1.6-1.9 5-3.55m-.65 3.3q-1.15 1.65-.9 3.55-.25-1.9.9-3.55m-1.65-.55q-1.7 1.55-1.65 3.85-.05-2.3 1.65-3.85m-71.5-3.4q-2.1 1.1-2.8 3.05.7-1.95 2.8-3.05m4.25 6.45q-1.9 1.9-1.85 3.6-.05-1.7 1.85-3.6m-1.35-.55q-2.65 2.05-2.9 3.8.25-1.75 2.9-3.8" fill="#f3f3f3"/><path fill-rule="evenodd" d="M6.85 10.1l-.55.25-1 .35-.2-.35q-.35-.75-.35-1.55v-.1q0-.85.4-1.55l.25-.4.8.15 2.05.1q-.1 1.5-1.05 2.6l-.4.4.05.1m10.7-1.75q1.5 1 2.55 1.25-3.2 3.05-6.85.2.95-2.15 2.8-2.5l.6.45-.35-.05q-.65 0-1.1.45-.4.45-.4 1.05 0 .65.4 1.05.45.45 1.1.45t1.05-.45q.45-.4.45-1.05l-.25-.85M6.8 10l-.6.2-1.1.15 1.1-.15.6-.2m.25-2.5l-.85-.35q-.55 0-.9.35-.35.4-.35.95t.35 1q.35.35.9.35t.85-.35l.45-1-.45-.95" fill="#d6d6d6"/><path fill-rule="evenodd" d="M2.2 13.75L4.3 13h.25l2.25.55q1.6.6 2.35 2.45-2.3 2.7-4.85 2.7-1.65-.75-2.5-1.75l-.25-2 .35-.85.3-.35m15.35-5.4l.25.85q0 .65-.45 1.05-.4.45-1.05.45t-1.1-.45q-.4-.4-.4-1.05 0-.6.4-1.05.45-.45 1.1-.45l.35.05.9.6m-1.7.5L16 8.8l.05-.1-.05-.2-.15-.1-.15.1-.05.2.05.1.15.05m1.25.6l-.05.05-.2.3-.7.3h-.1l.25.05.1.05.55-.2.2-.5v-.25l-.05.1v.1M7.05 7.5l.45.95-.45 1q-.3.35-.85.35t-.9-.35q-.35-.45-.35-1t.35-.95q.35-.35.9-.35l.85.35m-.95.35h-.25L5.8 8l.05.15.15.1.1-.1.1-.15-.1-.15m-.25 1.3l.35.1.55-.15.2-.3.05-.15v-.1l-.05-.2v.2l-.05.1-.25.25q-.25.25-.6.25h-.2m-2.55 5.8v.8l-.3.5.3-.5v-.8m3.65 1.4q-1.55.15-1.9-1.3.35 1.45 1.9 1.3"/><path fill-rule="evenodd" d="M14.05.8Q12.8 2 11.8 3.85L10.35 6.8q-1.15 2.15-3.5 3.3L6.8 10l.4-.4Q8.15 8.5 8.25 7L6.2 6.9l-.8-.15-.05-.05q0-.65.3-1.2l.9-1.3q2.4-3.15 7.5-3.4m9.2 4.95q1.95 1.15 3.2 3.15 1.05 1.75 1.95 4.5v3.85q0 2.65-.35 4.85-.8 5.3.25 5.1l3.45-2.75q1.85-1.4 2.6-2.55-.75 1.15-2.6 2.55L28.3 27.2q-1.05.2-.25-5.1.35-2.2.35-4.85V13.4q-.9-2.75-1.95-4.5-1.25-2-3.2-3.15m-6.6 2l-.6-.45q-1.85.35-2.8 2.5 3.65 2.85 6.85-.2-1.05-.25-2.55-1.25l-.9-.6m10.2 4.9q0 2.45-.6 4.2-.75 1.95-2.4 3.4-1.15 1-2.7 1.9l-1.75.95 1.75-.95q1.55-.9 2.7-1.9 1.65-1.45 2.4-3.4.6-1.75.6-4.2M21.9 16.1q-1.55 1.25-2.4 2.55l-1 1.95q-1.1 2.2-5.2 4.05 4.1-1.85 5.2-4.05l1-1.95q.85-1.3 2.4-2.55M16.25.8Q22.2 1 27.2 4.5 33.65 9 37.5 18.2q-1.4.6-3.15 3.7 2.3 4.2 10.95 5.3 4.95.55 18.4.3l19.3.65q9.85 1.45 13.8 6.15l3.8 5-3.8-5q2.5 1.05 5.35.85 1.85-.15 4.7-.95 2.9-.85 3.9-.9 1.9-.15 3 1-.9 1.55-4.8 3.1-4 1.55-8.35 1.9 3.85 4.5 4.1 7.75-3.25 11.75-1.55 19.9 1.7 7.95 8.45 11.9l-.8 11q-.15 4.7.35 7.15-.05 2.4-.9 3.8l-.25.45q-2.65-1.75-3.65-5.4.95-7-.6-11.05-1.2-3.1-4.15-5.3l-7.15-6.05q-4.2-4-6.9-9.8l-.3-.55-.1-.3q-3.3-6.6-7.35-8.4l-.95-.5-.8-.25q-4.45-1.3-11.15 1.45-2.15.85-5.9 2.7l-6.05 2.9q-7.2 3.15-12.05 2.75-1.95 20.35 2.05 27.2-2.7 2.05-2.55 11.1l-.9 1.55q-2.35-.65-3.95-2.55l-1-1.45.35-1.8.2-1.2.95-5.15q-1.15-4.7-2.2-11.25l-1.6-9.4q-1.35-6.5-4.3-10.75-.45-4.2-2.05-8.2l-3.05-7.15q-4.1-9.55-5.45-21.3l-2.35.9-2.4.25-1.35.4q-2.4.7-4.4 0 1.45.1 2.45-1.6l.3-.7q.95-2.35.35-3.9l-.3-.65v-.05q-.35-1.45-.25-3.9v-.1q.1-3.05.35-4.35l.4-1.95q.45-2.15 1.25-3.6l.1-.1q1-1.75 2.7-2.95m28.9 47.9l-1.3 7.75q-.75 4.35-.95 7 .2-2.65.95-7l1.3-7.75m39.95-6.15Q83.25 52.8 87.15 62.8q-3.9-10-2.05-20.25" fill="#755b46"/><path fill-rule="evenodd" d="M15.85 8.85l-.15-.05-.05-.1.05-.2.15-.1.15.1.05.2-.05.1-.15.05m-9.75-1l.1.15-.1.15-.1.1-.15-.1L5.8 8l.05-.15h.25" fill="#fff"/><path fill-rule="evenodd" d="M17.1 9.45v-.1l.05-.1v.25l-.2.5-.55.2-.1-.05-.25-.05h.1l.7-.3.2-.3.05-.05m-11.25-.3h.2q.35 0 .6-.25l.25-.25.05-.1v-.2l.05.2v.1l-.05.15-.2.3-.55.15-.35-.1" fill="#ccc"/><path fill-rule="evenodd" d="M29.95 59.75Q32.9 64 34.25 70.5l1.6 9.4q1.05 6.55 2.2 11.25l-.95 5.15q-2.5-.4-3.1-2.7 1.3-1.65 1.3-8.25-2.35-16.35-8.9-29.9l.7.95 2.85 3.35M94 90.55q2.8-6.45 1.25-10.95-1.05-3-5.35-6.9-5.35-4.85-6.95-7.05Q79.4 60.7 79.8 54.4q4.05 1.8 7.35 8.4l.1.3.3.55q2.7 5.8 6.9 9.8l7.15 6.05-1.7 5-2.25 7.75q-2.4 0-3.65-1.7" fill="#4f3e2f"/><path stroke-linejoin="round" d="M16.25.8h-2.2Q12.8 2 11.8 3.85L10.35 6.8q-1.15 2.15-3.5 3.3l-.55.25-1 .35-1.3.35-.95 1.1-.85 1.6L4.3 13h.25q1.15-.35 2.15-.95l2.05-1.4q1.75-1.4 2.15-2.5M34.35 21.9q-.75 1.15-2.6 2.55L28.3 27.2q-1.05.2-.25-5.1.35-2.2.35-4.85V13.4q-.9-2.75-1.95-4.5-1.25-2-3.2-3.15m-6.6 2l-.6-.45q-1.85.35-2.8 2.5 3.65 2.85 6.85-.2-1.05-.25-2.55-1.25m-.9-.6l.9.6m-4.25 16.3q4.1-1.85 5.2-4.05l1-1.95q.85-1.3 2.4-2.55m-2.5 7l1.75-.95q1.55-.9 2.7-1.9 1.65-1.45 2.4-3.4.6-1.75.6-4.2m7.5 9.25q1.75-3.1 3.15-3.7Q33.65 9 27.2 4.5 22.2 1 16.25.8q-1.7 1.2-2.7 2.95l-.1.1q-.8 1.45-1.25 3.6l-.4 1.95q-.25 1.3-.35 4.35v.1q-.1 2.45.25 3.9m0 .05l.3.65q.6 1.55-.35 3.9l-.3.7q-1 1.7-2.45 1.6 2 .7 4.4 0l1.35-.4 2.4-.25 2.35-.9q1.35 11.75 5.45 21.3l3.05 7.15q1.6 4 2.05 8.2Q32.9 64 34.25 70.5l1.6 9.4q1.05 6.55 2.2 11.25l-.95 5.15-.2 1.2-.35 1.8 1 1.45q1.6 1.9 3.95 2.55l.9-1.55q-.15-9.05 2.55-11.1-4-6.85-2.05-27.2.2-2.65.95-7l1.3-7.75M14.05.8q-5.1.25-7.5 3.4l-.9 1.3q-.3.55-.3 1.2l.05.05.8.15 2.05.1q-.1 1.5-1.05 2.6l-.4.4M4.75 8.7q-.1.5.1 1.65h.25l1.1-.15.6-.2M5.35 6.7l-.2.45q-.4.7-.4 1.55M2.2 13.75l-.3.35-.35.85.25 2q.85 1 2.5 1.75 2.55 0 4.85-2.7-.75-1.85-2.35-2.45L4.55 13m.3-2.65l-.85.7m-1 5.2l.3-.5v-.8m4.2 8.85q-.35-1.35-1.3-2.25Q5 20.5 4.1 20.6q-.8.1-1.2.85l-.1 1.2q1.15.75 2.4 1.1l2.3.05m.25.2l1.15.65m-7.1-7.7Q.45 19.4.8 21 1 22.6 3 23.55l-.2-.9m2.25-7.6q.35 1.45 1.9 1.3m7.7 7.9q1.3 3.4 1.95 6.4.8 4.3 2.7 9.25l3.3 8.5q1.65 4.05 3.8 7.05l.7.95 2.85 3.35M96.8 34.3q-3.95-4.7-13.8-6.15l-19.3-.65q-13.45.25-18.4-.3-8.65-1.1-10.95-5.3M110 101.25l.25-.45q.85-1.4.9-3.8-.5-2.45-.35-7.15l.8-11q-6.75-3.95-8.45-11.9-1.7-8.15 1.55-19.9-.25-3.25-4.1-7.75l-3.8-5q2.5 1.05 5.35.85 1.85-.15 4.7-.95 2.9-.85 3.9-.9 1.9-.15 3 1-.9 1.55-4.8 3.1-4 1.55-8.35 1.9M79.8 54.4q-.4 6.3 3.15 11.25 1.6 2.2 6.95 7.05 4.3 3.9 5.35 6.9Q96.8 84.1 94 90.55q1.25 1.7 3.65 1.7l2.25-7.75 1.7-5-7.15-6.05q-4.2-4-6.9-9.8l-.3-.55-.1-.3q-3.3-6.6-7.35-8.4l-.95-.5-.8-.25q-4.45-1.3-11.15 1.45-2.15.85-5.9 2.7l-6.05 2.9q-7.2 3.15-12.05 2.75m46.5 31.6l.25.05q5.25 1.2 7.5-.85l.5-2m-8.25 2.8q1.35-2.2 3.7-2.75m.9-1.75q-6.35.6-7.15 3.7l2.15.7.4.1m12.2-15.55q2.95 2.2 4.15 5.3 1.55 4.05.6 11.05 1 3.65 3.65 5.4-.65.85-1.55.9l-2.85.55h-.8l-2.35-.25h-.05l-1.75-.3q-.8-1 .7-2.75 1.6-1.9 5-3.55m-3.95 6.6q-.05-2.3 1.65-3.85m.75 4.1q-.25-1.9.9-3.55M34 93.6q-5.1-.05-6.25 3.85l2 .8q.7-1.95 2.8-3.05m-2.8 3.05l.4.1q3.75 1 6.75-.85M34 93.6q.6 2.3 3.1 2.7M26.4 55.45q6.55 13.55 8.9 29.9 0 6.6-1.3 8.25M33 105l-.45-.1-.25-.05.7.15 1.75.25h.2q-.05-1.7 1.85-3.6m-1.85 3.6h.6q4.15.2 5.95-1.95m-4.95-4q-4.85 1.55-5.6 5.25l1.35.3m.25.05q.25-1.75 2.9-3.8m51.7-38.3q-3.9-10-2.05-20.25" stroke="#202020" stroke-linecap="round" stroke-width="1.5" fill="none"/><path stroke-linejoin="round" d="M11.7 17.75v.05" stroke="#333" stroke-linecap="round" stroke-width="1.5" fill="none"/></svg>