<?xml version="1.0" encoding="UTF-8" standalone="no"?>
<svg id="svg3953" xmlns:inkscape="http://www.inkscape.org/namespaces/inkscape" xmlns:rdf="http://www.w3.org/1999/02/22-rdf-syntax-ns#" xmlns="http://www.w3.org/2000/svg" sodipodi:docname="dog.svg" viewBox="0 0 114.5 106" version="1.1" xmlns:cc="http://creativecommons.org/ns#" xmlns:dc="http://purl.org/dc/elements/1.1/" inkscape:version="0.48.2 r9819" xmlns:sodipodi="http://sodipodi.sourceforge.net/DTD/sodipodi-0.dtd">
 <metadata id="metadata3979">
  <rdf:RDF>
   <cc:Work rdf:about="">
    <dc:format>image/svg+xml</dc:format>
    <dc:type rdf:resource="http://purl.org/dc/dcmitype/StillImage"/>
    <dc:title/>
   </cc:Work>
  </rdf:RDF>
 </metadata>
 <sodipodi:namedview id="namedview3975" bordercolor="#666666" inkscape:pageshadow="2" guidetolerance="10" pagecolor="#ffffff" gridtolerance="10" inkscape:window-maximized="0" inkscape:zoom="2.2264151" objecttolerance="10" borderopacity="1" inkscape:current-layer="svg3953" inkscape:cx="57.25" inkscape:cy="53" inkscape:window-y="0" inkscape:window-x="0" inkscape:window-width="640" showgrid="false" inkscape:pageopacity="0" inkscape:window-height="480"/>
 <g id="g3955" transform="matrix(1.0, 0.0, 0.0, 1.0, -2.75, 52.85)">
  <path id="path3957" stroke="none" fill-rule="evenodd" d="M16.8-52.05h0.1,2.1q-1.7,1.2-2.7,2.95l-0.1,0.1q-0.8,1.45-1.25,3.6l-0.4,1.95q-0.25,1.3-0.35,4.35v0.1q-0.1,2.45,0.25,3.9v0.05l0.3,0.65q0.6,1.55-0.35,3.9l-0.3,0.7q-1,1.7-2.45,1.6l-1.15-0.65-0.25-0.2q-0.35-1.35-1.3-2.25-1.2-1.05-2.1-0.95-0.8,0.1-1.2,0.85l-0.1,1.2,0.1-1.2q0.4-0.75,1.2-0.85,0.9-0.1,2.1,0.95,0.95,0.9,1.3,2.25l-2.3-0.05q-1.25-0.35-2.4-1.1l0.2,0.9q-2-0.95-2.2-2.55-0.35-1.6,1-4.05,0.85,1,2.5,1.75,2.55,0,4.85-2.7-0.75-1.85-2.35-2.45l-2.25-0.55h-0.25l-2.1,0.75,0.85-1.6,0.95-1.1,1.3-0.35,1-0.35,0.55-0.25q2.35-1.15,3.5-3.3l1.45-2.95q1-1.85,2.25-3.05m-3.15,7.35q-0.4,1.1-2.15,2.5l-2.05,1.4q-1,0.6-2.15,0.95,1.15-0.35,2.15-0.95l2.05-1.4q1.75-1.4,2.15-2.5m3.75,16.1l2.4-0.25,2.35-0.9q1.35,11.75,5.45,21.3l3.05,7.15q1.6,4,2.05,8.2l-2.85-3.35-0.7-0.95q-2.15-3-3.8-7.05l-3.3-8.5q-1.9-4.95-2.7-9.25-0.65-3-1.95-6.4m22.45,72.05l-0.2,1.2q-3,1.85-6.75,0.85l-0.4-0.1-2-0.8q1.15-3.9,6.25-3.85,0.6,2.3,3.1,2.7m-0.55,3l1,1.45q1.6,1.9,3.95,2.55-1.8,2.15-5.95,1.95h-0.6-0.2l-1.75-0.25-0.45-0.1-0.25-0.05-1.35-0.3q0.75-3.7,5.6-5.25m57.45-8.75q1.25,1.7,3.65,1.7l-0.5,2q-2.25,2.05-7.5,0.85l-0.25-0.05q1.35-2.2,3.7-2.75-2.35,0.55-3.7,2.75l-0.4-0.1-2.15-0.7q0.8-3.1,7.15-3.7m12.35,5.3q1,3.65,3.65,5.4-0.65,0.85-1.55,0.9l-2.85,0.55h-0.8l-2.35-0.25h-0.05l-1.75-0.3q-0.8-1,0.7-2.75,1.6-1.9,5-3.55m-0.65,3.3q-1.15,1.65-0.9,3.55-0.25-1.9,0.9-3.55m-1.65-0.55q-1.7,1.55-1.65,3.85-0.05-2.3,1.65-3.85m-71.5-3.4q-2.1,1.1-2.8,3.05,0.7-1.95,2.8-3.05m4.25,6.45q-1.9,1.9-1.85,3.6-0.05-1.7,1.85-3.6m-1.35-0.55q-2.65,2.05-2.9,3.8,0.25-1.75,2.9-3.8" fill="#f3f3f3"/>
  <path id="path3959" stroke="none" fill-rule="evenodd" d="M9.6-42.75l-0.55,0.25-1,0.35-0.2-0.35q-0.35-0.75-0.35-1.55v-0.1q0-0.85,0.4-1.55l0.25-0.4,0.8,0.15,2.05,0.1q-0.1,1.5-1.05,2.6l-0.4,0.4,0.05,0.1m10.7-1.75q1.5,1,2.55,1.25-3.2,3.05-6.85,0.2,0.95-2.15,2.8-2.5l0.6,0.45-0.35-0.05q-0.65,0-1.1,0.45-0.4,0.45-0.4,1.05,0,0.65,0.4,1.05,0.45,0.45,1.1,0.45t1.05-0.45q0.45-0.4,0.45-1.05l-0.25-0.85m-10.75,1.65l-0.6,0.2-1.1,0.15,1.1-0.15,0.6-0.2m0.25-2.5l-0.85-0.35q-0.55,0-0.9,0.35-0.35,0.4-0.35,0.95t0.35,1q0.35,0.35,0.9,0.35t0.85-0.35l0.45-1-0.45-0.95" fill="#d6d6d6"/>
  <path id="path3961" stroke="none" fill-rule="evenodd" d="M4.95-39.1l2.1-0.75h0.25l2.25,0.55q1.6,0.6,2.35,2.45-2.3,2.7-4.85,2.7-1.65-0.75-2.5-1.75l-0.25-2,0.35-0.85,0.3-0.35m15.35-5.4l0.25,0.85q0,0.65-0.45,1.05-0.4,0.45-1.05,0.45t-1.1-0.45q-0.4-0.4-0.4-1.05,0-0.6,0.4-1.05,0.45-0.45,1.1-0.45l0.35,0.05,0.9,0.6m-1.7,0.5l0.15-0.05,0.05-0.1-0.05-0.2-0.15-0.1-0.15,0.1-0.05,0.2,0.05,0.1,0.15,0.05m1.25,0.6l-0.05,0.05-0.2,0.3-0.7,0.3h-0.1l0.25,0.05,0.1,0.05,0.55-0.2,0.2-0.5v-0.05-0.2l-0.05,0.1v0.1m-10.05-1.95l0.45,0.95-0.45,1q-0.3,0.35-0.85,0.35t-0.9-0.35q-0.35-0.45-0.35-1t0.35-0.95q0.35-0.35,0.9-0.35l0.85,0.35m-0.95,0.35h-0.1-0.15l-0.05,0.15,0.05,0.15,0.15,0.1,0.1-0.1,0.1-0.15-0.1-0.15m-0.25,1.3l0.35,0.1,0.55-0.15,0.2-0.3,0.05-0.15v-0.1l-0.05-0.2v0.1,0.1l-0.05,0.1-0.25,0.25q-0.25,0.25-0.6,0.25h-0.1-0.1m-2.55,5.8v0.8l-0.3,0.5,0.3-0.5v-0.8m3.65,1.4q-1.55,0.15-1.9-1.3,0.35,1.45,1.9,1.3" fill="#000000"/>
  <path id="path3963" stroke="none" fill-rule="evenodd" d="M16.8-52.05q-1.25,1.2-2.25,3.05l-1.45,2.95q-1.15,2.15-3.5,3.3l-0.05-0.1,0.4-0.4q0.95-1.1,1.05-2.6l-2.05-0.1-0.8-0.15-0.05-0.05q0-0.65,0.3-1.2l0.9-1.3q2.4-3.15,7.5-3.4m9.2,4.95q1.95,1.15,3.2,3.15,1.05,1.75,1.95,4.5v3.85q0,2.65-0.35,4.85-0.8,5.3,0.25,5.1l3.45-2.75q1.85-1.4,2.6-2.55-0.75,1.15-2.6,2.55l-3.45,2.75q-1.05,0.2-0.25-5.1,0.35-2.2,0.35-4.85v-3.85q-0.9-2.75-1.95-4.5-1.25-2-3.2-3.15m-6.6,2l-0.6-0.45q-1.85,0.35-2.8,2.5,3.65,2.85,6.85-0.2-1.05-0.25-2.55-1.25l-0.9-0.6m10.2,4.9q0,2.45-0.6,4.2-0.75,1.95-2.4,3.4-1.15,1-2.7,1.9l-1.75,0.95,1.75-0.95q1.55-0.9,2.7-1.9,1.65-1.45,2.4-3.4,0.6-1.75,0.6-4.2m-4.95,3.45q-1.55,1.25-2.4,2.55l-1,1.95q-1.1,2.2-5.2,4.05,4.1-1.85,5.2-4.05l1-1.95q0.85-1.3,2.4-2.55m-5.65-15.3q5.95,0.2,10.95,3.7,6.45,4.5,10.3,13.7-1.4,0.6-3.15,3.7,2.3,4.2,10.95,5.3,4.95,0.55,18.4,0.3l19.3,0.65q9.85,1.45,13.8,6.15l3.8,5-3.8-5q2.5,1.05,5.35,0.85,1.85-0.15,4.7-0.95,2.9-0.85,3.9-0.9,1.9-0.15,3,1-0.9,1.55-4.8,3.1-4,1.55-8.35,1.9,3.85,4.5,4.1,7.75-3.25,11.75-1.55,19.9,1.7,7.95,8.45,11.9l-0.8,11q-0.15,4.7,0.35,7.15-0.05,2.4-0.9,3.8l-0.25,0.45q-2.65-1.75-3.65-5.4,0.95-7-0.6-11.05-1.2-3.1-4.15-5.3l-7.15-6.05q-4.2-4-6.9-9.8l-0.3-0.55-0.1-0.3q-3.3-6.6-7.35-8.4l-0.95-0.5-0.8-0.25q-4.45-1.3-11.15,1.45-2.15,0.85-5.9,2.7l-6.05,2.9q-7.2,3.15-12.05,2.75-1.95,20.35,2.05,27.2-2.7,2.05-2.55,11.1l-0.9,1.55q-2.35-0.65-3.95-2.55l-1-1.45,0.35-1.8,0.2-1.2,0.95-5.15q-1.15-4.7-2.2-11.25l-1.6-9.4q-1.35-6.5-4.3-10.75-0.45-4.2-2.05-8.2l-3.05-7.15q-4.1-9.55-5.45-21.3l-2.35,0.9-2.4,0.25-1.35,0.4q-2.4,0.7-4.4,0,1.45,0.1,2.45-1.6l0.3-0.7q0.95-2.35,0.35-3.9l-0.3-0.65v-0.05q-0.35-1.45-0.25-3.9v-0.1q0.1-3.05,0.35-4.35l0.4-1.95q0.45-2.15,1.25-3.6l0.1-0.1q1-1.75,2.7-2.95m28.9,47.9l-1.3,7.75q-0.75,4.35-0.95,7,0.2-2.65,0.95-7l1.3-7.75m39.95-6.15q-1.85,10.25,2.05,20.25-3.9-10-2.05-20.25" fill="#755b46"/>
  <path id="path3965" stroke="none" fill-rule="evenodd" d="M18.6-44l-0.15-0.05-0.05-0.1,0.05-0.2,0.15-0.1,0.15,0.1,0.05,0.2-0.05,0.1-0.15,0.05m-9.75-1l0.1,0.15-0.1,0.15-0.1,0.1-0.15-0.1-0.05-0.15,0.05-0.15h0.15,0.1" fill="#ffffff"/>
  <path id="path3967" stroke="none" fill-rule="evenodd" d="M19.85-43.4v-0.1l0.05-0.1v0.2,0.05l-0.2,0.5-0.55,0.2-0.1-0.05-0.25-0.05h0.1l0.7-0.3,0.2-0.3,0.05-0.05m-11.25-0.3h0.1,0.1q0.35,0,0.6-0.25l0.25-0.25,0.05-0.1v-0.1-0.1l0.05,0.2v0.1l-0.05,0.15-0.2,0.3-0.55,0.15-0.35-0.1" fill="#cccccc"/>
  <path id="path3969" stroke="none" fill-rule="evenodd" d="M32.7,6.9q2.95,4.25,4.3,10.75l1.6,9.4q1.05,6.55,2.2,11.25l-0.95,5.15q-2.5-0.4-3.1-2.7,1.3-1.65,1.3-8.25-2.35-16.35-8.9-29.9l0.7,0.95,2.85,3.35m64.05,30.8q2.8-6.45,1.25-10.95-1.05-3-5.35-6.9-5.35-4.85-6.95-7.05-3.55-4.95-3.15-11.25,4.05,1.8,7.35,8.4l0.1,0.3,0.3,0.55q2.7,5.8,6.9,9.8l7.15,6.05-1.7,5-2.25,7.75q-2.4,0-3.65-1.7" fill="#4f3e2f"/>
  <path id="path3971" stroke-linejoin="round" d="M19-52.05h-2.1-0.1q-1.25,1.2-2.25,3.05l-1.45,2.95q-1.15,2.15-3.5,3.3l-0.55,0.25-1,0.35-1.3,0.35-0.95,1.1-0.85,1.6,2.1-0.75h0.25q1.15-0.35,2.15-0.95l2.05-1.4q1.75-1.4,2.15-2.5m23.45,13.75q-0.75,1.15-2.6,2.55l-3.45,2.75q-1.05,0.2-0.25-5.1,0.35-2.2,0.35-4.85v-3.85q-0.9-2.75-1.95-4.5-1.25-2-3.2-3.15m-6.6,2l-0.6-0.45q-1.85,0.35-2.8,2.5,3.65,2.85,6.85-0.2-1.05-0.25-2.55-1.25m-0.9-0.6l0.9,0.6m-4.25,16.3q4.1-1.85,5.2-4.05l1-1.95q0.85-1.3,2.4-2.55m-2.5,7l1.75-0.95q1.55-0.9,2.7-1.9,1.65-1.45,2.4-3.4,0.6-1.75,0.6-4.2m7.5,9.25q1.75-3.1,3.15-3.7-3.85-9.2-10.3-13.7-5-3.5-10.95-3.7-1.7,1.2-2.7,2.95l-0.1,0.1q-0.8,1.45-1.25,3.6l-0.4,1.95q-0.25,1.3-0.35,4.35v0.1q-0.1,2.45,0.25,3.9m0,0.05l0.3,0.65q0.6,1.55-0.35,3.9l-0.3,0.7q-1,1.7-2.45,1.6,2,0.7,4.4,0l1.35-0.4,2.4-0.25,2.35-0.9q1.35,11.75,5.45,21.3l3.05,7.15q1.6,4,2.05,8.2,2.95,4.25,4.3,10.75l1.6,9.4q1.05,6.55,2.2,11.25l-0.95,5.15-0.2,1.2-0.35,1.8,1,1.45q1.6,1.9,3.95,2.55l0.9-1.55q-0.15-9.05,2.55-11.1-4-6.85-2.05-27.2,0.2-2.65,0.95-7l1.3-7.75m-31.1-47.9q-5.1,0.25-7.5,3.4l-0.9,1.3q-0.3,0.55-0.3,1.2l0.05,0.05,0.8,0.15,2.05,0.1q-0.1,1.5-1.05,2.6l-0.4,0.4m-2.05-1.3q-0.1,0.5,0.1,1.65h0.25l1.1-0.15,0.6-0.2m-1.45-3.3l-0.2,0.45q-0.4,0.7-0.4,1.55m-2.55,5.05l-0.3,0.35-0.35,0.85,0.25,2q0.85,1,2.5,1.75,2.55,0,4.85-2.7-0.75-1.85-2.35-2.45l-2.25-0.55m0.3-2.65l-0.85,0.7m-1,5.2l0.3-0.5v-0.8m4.2,8.85q-0.35-1.35-1.3-2.25-1.2-1.05-2.1-0.95-0.8,0.1-1.2,0.85l-0.1,1.2q1.15,0.75,2.4,1.1l2.3,0.05m0.25,0.2l1.15,0.65m-7.1-7.7q-1.35,2.45-1,4.05,0.2,1.6,2.2,2.55l-0.2-0.9m2.25-7.6q0.35,1.45,1.9,1.3m7.7,7.9q1.3,3.4,1.95,6.4,0.8,4.3,2.7,9.25l3.3,8.5q1.65,4.05,3.8,7.05l0.7,0.95,2.85,3.35m66.85-25.45q-3.95-4.7-13.8-6.15l-19.3-0.65q-13.45,0.25-18.4-0.3-8.65-1.1-10.95-5.3m75.65,79.35l0.25-0.45q0.85-1.4,0.9-3.8-0.5-2.45-0.35-7.15l0.8-11q-6.75-3.95-8.45-11.9-1.7-8.15,1.55-19.9-0.25-3.25-4.1-7.75l-3.8-5q2.5,1.05,5.35,0.85,1.85-0.15,4.7-0.95,2.9-0.85,3.9-0.9,1.9-0.15,3,1-0.9,1.55-4.8,3.1-4,1.55-8.35,1.9m-20.8,15.1q-0.4,6.3,3.15,11.25,1.6,2.2,6.95,7.05,4.3,3.9,5.35,6.9,1.55,4.5-1.25,10.95,1.25,1.7,3.65,1.7l2.25-7.75,1.7-5-7.15-6.05q-4.2-4-6.9-9.8l-0.3-0.55-0.1-0.3q-3.3-6.6-7.35-8.4l-0.95-0.5-0.8-0.25q-4.45-1.3-11.15,1.45-2.15,0.85-5.9,2.7l-6.05,2.9q-7.2,3.15-12.05,2.75m46.5,31.6l0.25,0.05q5.25,1.2,7.5-0.85l0.5-2m-8.25,2.8q1.35-2.2,3.7-2.75m0.9-1.75q-6.35,0.6-7.15,3.7l2.15,0.7,0.4,0.1m12.2-15.55q2.95,2.2,4.15,5.3,1.55,4.05,0.6,11.05,1,3.65,3.65,5.4-0.65,0.85-1.55,0.9l-2.85,0.55h-0.8l-2.35-0.25h-0.05l-1.75-0.3q-0.8-1,0.7-2.75,1.6-1.9,5-3.55m-3.95,6.6q-0.05-2.3,1.65-3.85m0.75,4.1q-0.25-1.9,0.9-3.55m-71.7-5.55q-5.1-0.05-6.25,3.85l2,0.8q0.7-1.95,2.8-3.05m-2.8,3.05l0.4,0.1q3.75,1,6.75-0.85m-2.9-3.9q0.6,2.3,3.1,2.7m-10.7-40.85q6.55,13.55,8.9,29.9,0,6.6-1.3,8.25m-1,11.4l-0.45-0.1-0.25-0.05,0.7,0.15,1.75,0.25h0.2q-0.05-1.7,1.85-3.6m-1.85,3.6h0.6q4.15,0.2,5.95-1.95m-4.95-4q-4.85,1.55-5.6,5.25l1.35,0.3m0.25,0.05q0.25-1.75,2.9-3.8m51.7-38.3q-3.9-10-2.05-20.25" stroke="#202020" stroke-linecap="round" stroke-width="1.5" fill="none"/>
  <path id="path3973" stroke-linejoin="round" d="M14.45-35.1v0.05" stroke="#333333" stroke-linecap="round" stroke-width="1.5" fill="none"/>
 </g>
</svg>
