<svg stroke-width=".501" stroke-linejoin="bevel" fill-rule="evenodd" xmlns="http://www.w3.org/2000/svg" overflow="visible" width="793.703" height="1122.521" viewBox="0 0 595.277 841.891"><g stroke-linejoin="miter" stroke-width="2.5" stroke-miterlimit="79.84" fill="none" stroke="#000" font-family="Times New Roman" font-size="16"><path d="M112.037 322.005v326.999h140.549V322.005H112.037z" fill="#c2805f" stroke="#7f4100"/><path d="M138.174 353.164v140.251h34.732V353.164h-34.732zM193.911 353.3v140.115h34.732V353.3h-34.732zM138.174 515.165v98.25h34.732v-98.25h-34.732zM193.911 515.165v98.25h34.732v-98.25h-34.732z" fill="#9a6243" stroke="#7f4100"/><path d="M117.242 486.607v33.299h15.299v-33.299h-15.299z" stroke="#402100" fill="#929292"/><path d="M120.542 490.066v7.199h29.999v-7.199h-29.999z" stroke="#402100" fill="#929292"/><path d="M123.217 507.368a1.75 1.75 0 1 1 2.762 2.15 1.75 1.75 0 0 1-2.762-2.15z" fill="#562424"/><path d="M123.524 509.823v4.68h2.071v-4.68h-2.071z" fill="#531414"/><path d="M95.15 313.504v350.999h173.999V313.504H95.15z" stroke="none"/></g></svg>