<svg xmlns="http://www.w3.org/2000/svg" width="500" height="500" viewBox="0 0 500 500"><g stroke-width="2.5" stroke-miterlimit="79.84"><path fill="#C2805F" stroke="#7F4100" d="M149.715 10.782V479.2h201.333V10.782H149.715z"/><path fill="#9A6243" stroke="#7F4100" d="M187.156 55.417v200.905h49.753V55.417h-49.753zM266.998 55.611v200.711h49.751V55.611h-49.751zM187.156 287.479V428.22h49.753V287.479h-49.753zM266.998 287.479V428.22h49.751V287.479h-49.751z"/><path fill="#929292" stroke="#402100" d="M157.172 246.571v47.7h21.915v-47.7h-21.915z"/><path fill="#929292" stroke="#402100" d="M161.898 251.526v10.311h42.973v-10.311h-42.973z"/><g stroke="#000"><path fill="#562424" d="M165.73 276.311a2.509 2.509 0 0 1 3.517-.441 2.508 2.508 0 0 1-3.078 3.958 2.51 2.51 0 0 1-.439-3.517z"/><path fill="#531414" d="M166.17 279.827v6.704h2.967v-6.704h-2.967z"/></g></g><path fill="none" d="M125.525-1.395v502.797h249.249V-1.395H125.525z"/></svg>