<?xml version="1.0" encoding="utf-8"?>
<!-- Generator: Adobe Illustrator 16.0.0, SVG Export Plug-In . SVG Version: 6.00 Build 0)  -->
<!DOCTYPE svg PUBLIC "-//W3C//DTD SVG 1.1//EN" "http://www.w3.org/Graphics/SVG/1.1/DTD/svg11.dtd">
<svg version="1.1" id="Layer_1" xmlns="http://www.w3.org/2000/svg" xmlns:xlink="http://www.w3.org/1999/xlink" x="0px" y="0px"
	 width="900px" height="450px" viewBox="0 0 900 450" enable-background="new 0 0 900 450" xml:space="preserve">
<g transform="matrix( 1, 0, 0, 1, 0,0) ">
	<g>
		<g id="Layer1_0_FILL">
			<path fill="#959595" d="M540.91,347.083l-10.562,2.756v16.299l8.954,8.151L540.91,347.083 M282.293,332.047l10.217-4.478
				l-0.46-15.266l-11.134-2.412L282.293,332.047z"/>
			
				<linearGradient id="SVGID_1_" gradientUnits="userSpaceOnUse" x1="508.0811" y1="15.8408" x2="526.6774" y2="15.8408" gradientTransform="matrix(1 0 0 -1 29.04 379.3398)">
				<stop  offset="0" style="stop-color:#6A6A6A"/>
				<stop  offset="0.6431" style="stop-color:#D5D5D5"/>
				<stop  offset="1" style="stop-color:#5E5E5E"/>
			</linearGradient>
			<path fill="url(#SVGID_1_)" d="M555.832,311.499c-1.762,0.765-3.789,1.148-6.084,1.148c-2.601,0-4.861-0.496-6.773-1.491
				l-2.064,35.927l-1.607,27.206l-0.92,15.38l-1.262,21.581l0.114,0.114c1.227,2.755,3.177,4.249,5.854,4.478
				c2.604-2.144,3.484-4.668,2.642-7.576l2.41-22.154L555.832,311.499z"/>
			
				<radialGradient id="SVGID_2_" cx="333.7915" cy="324.3145" r="13.0867" gradientTransform="matrix(1 0 0 -1 213.8901 627.0898)" gradientUnits="userSpaceOnUse">
				<stop  offset="0" style="stop-color:#D5D5D5"/>
				<stop  offset="1" style="stop-color:#6A6A6A"/>
			</radialGradient>
			<path fill="url(#SVGID_2_)" d="M557.209,301.054c-2.067-1.452-4.554-2.181-7.461-2.181c-2.296,0-4.363,0.459-6.199,1.379
				c-0.46,0.229-0.917,0.497-1.377,0.802c-1.912,1.301-2.869,2.908-2.869,4.82c0,1.072,0.419,2.144,1.262,3.215
				c0.382,0.536,0.92,1.072,1.607,1.607c0.152,0.153,0.42,0.308,0.803,0.46c1.912,0.995,4.173,1.491,6.773,1.491
				c2.295,0,4.322-0.384,6.084-1.148c0.534-0.229,0.996-0.495,1.377-0.803c2.144-1.455,3.215-3.06,3.215-4.822
				c0-1.071-0.308-1.988-0.919-2.753C558.893,302.354,558.128,301.666,557.209,301.054z"/>
			
				<linearGradient id="SVGID_3_" gradientUnits="userSpaceOnUse" x1="238.8755" y1="53.6201" x2="255.4621" y2="53.6201" gradientTransform="matrix(1 0 0 -1 29.04 379.3398)">
				<stop  offset="0" style="stop-color:#6A6A6A"/>
				<stop  offset="0.6431" style="stop-color:#D5D5D5"/>
				<stop  offset="1" style="stop-color:#5E5E5E"/>
			</linearGradient>
			<path fill="url(#SVGID_3_)" d="M268.059,273.733h-0.114l8.035,71.169l2.525,22.5v9.525c3.138,1.76,5.166,0.536,6.083-3.672
				c0-0.078,0-0.154,0-0.231l-1.148-21.004l-1.148-19.974l-1.377-22.155l-1.836-33.288l-0.229-2.87h-0.344
				c-0.612,0.46-1.263,0.806-1.952,1.034c-0.918,0.307-1.952,0.459-3.1,0.459C271.312,275.227,269.513,274.729,268.059,273.733z"/>
			
				<radialGradient id="SVGID_4_" cx="178.6909" cy="342.9082" r="7.8624" gradientTransform="matrix(1 0 0 -1 94.1899 612.7402)" gradientUnits="userSpaceOnUse">
				<stop  offset="0" style="stop-color:#D5D5D5"/>
				<stop  offset="1" style="stop-color:#6A6A6A"/>
			</radialGradient>
			<path fill="url(#SVGID_4_)" d="M273.454,265.47c-2.142,0-3.941,0.536-5.395,1.607c-0.076,0.076-0.152,0.114-0.229,0.114
				c-1.147,0.92-1.722,1.951-1.722,3.099c0,1.301,0.612,2.448,1.836,3.443h0.114c1.454,0.996,3.253,1.493,5.395,1.493
				c1.148,0,2.182-0.152,3.1-0.459c0.688-0.229,1.34-0.574,1.952-1.034c0.152-0.076,0.268-0.114,0.344-0.114
				c1.301-0.993,1.952-2.104,1.952-3.329c0-1.224-0.766-2.296-2.296-3.213c-0.076-0.078-0.192-0.154-0.344-0.23
				C276.708,265.93,275.138,265.47,273.454,265.47z"/>
			
				<linearGradient id="SVGID_5_" gradientUnits="userSpaceOnUse" x1="218.7593" y1="59.4614" x2="613.513" y2="59.4614" gradientTransform="matrix(1 0 0 -1 29.04 379.3398)">
				<stop  offset="0" style="stop-color:#000000"/>
				<stop  offset="0.6902" style="stop-color:#4D4D4D"/>
				<stop  offset="0.9765" style="stop-color:#151515"/>
			</linearGradient>
			<path fill="url(#SVGID_5_)" d="M405.804,321.716c0,1.76-0.918,3.367-2.754,4.82c-0.076,0-0.23,0.04-0.46,0.116h0.46
				l-1.034,74.727c13.544,1.76,27.703,2.639,42.471,2.639c34.666,0,65.964-4.782,93.896-14.349l0.92-15.38l-8.954-8.151v-16.299
				l10.562-2.756l2.064-35.927c-0.383-0.152-0.65-0.307-0.803-0.46c-0.688-0.535-1.226-1.071-1.607-1.607
				c-28.62,7.959-60.568,11.938-95.847,11.938c-13.698,0-26.937-0.574-39.716-1.722
				C405.536,319.994,405.804,320.797,405.804,321.716 M387.324,326.536c-1.76-1.529-2.64-3.137-2.64-4.82
				c0-1.76,0.994-3.291,2.984-4.592c-30.839-4.438-58.465-12.778-82.876-25.024c-9.871-4.896-18.442-10.062-25.712-15.496
				l1.836,33.288l11.134,2.412l0.46,15.266l-10.217,4.478l1.148,19.974c7.041,6.274,15.229,12.243,24.565,17.906
				c24.258,14.693,51.807,24.641,82.647,29.845l-3.329-73.119h0.344C387.515,326.576,387.4,326.536,387.324,326.536
				 M637.331,293.938l2.18-26.059l0.116-2.182l0.114-0.688l1.722-29.271c-5.511,21.503-24.372,40.29-56.591,56.36
				c-8.111,4.058-16.565,7.73-25.367,11.021c0.611,0.765,0.919,1.682,0.919,2.753c0,1.763-1.071,3.367-3.215,4.822
				c-0.381,0.308-0.843,0.574-1.377,0.803l-7.691,74.612c11.479-4.514,22.421-9.909,32.828-16.185
				C616.096,348.729,634.883,323.399,637.331,293.938 M252.678,300.825c0,0.076,0,0.19,0,0.343
				c2.754,15.842,10.521,30.419,23.302,43.734l-8.035-71.169c-1.224-0.995-1.836-2.143-1.836-3.443c0-1.147,0.574-2.179,1.722-3.099
				c-9.106-8.802-15.268-18.251-18.481-28.352l3.33,61.755C252.678,300.673,252.678,300.749,252.678,300.825z"/>
			
				<linearGradient id="SVGID_6_" gradientUnits="userSpaceOnUse" x1="358.0259" y1="0.2876" x2="373.6943" y2="0.2876" gradientTransform="matrix(1 0 0 -1 29.04 379.3398)">
				<stop  offset="0" style="stop-color:#6A6A6A"/>
				<stop  offset="0.6431" style="stop-color:#D5D5D5"/>
				<stop  offset="1" style="stop-color:#5E5E5E"/>
			</linearGradient>
			<path fill="url(#SVGID_6_)" d="M387.667,326.652h-0.344l3.329,73.119l1.032,21.235c0.46,4.284,1.952,7.769,4.478,10.445
				c3.06-1.453,4.897-4.439,5.509-8.952l0.344-21.121l1.034-74.727h-0.46c-1.989,1.377-4.399,2.065-7.231,2.065
				C392.451,328.718,389.887,328.029,387.667,326.652z"/>
			
				<radialGradient id="SVGID_7_" cx="247.3008" cy="314.6621" r="10.6458" gradientTransform="matrix(1 0 0 -1 147.1401 634.5391)" gradientUnits="userSpaceOnUse">
				<stop  offset="0" style="stop-color:#D5D5D5"/>
				<stop  offset="1" style="stop-color:#6A6A6A"/>
			</radialGradient>
			<path fill="url(#SVGID_7_)" d="M396.163,314.943c-0.23,0-0.498,0-0.804,0c-2.908,0-5.433,0.729-7.575,2.181h-0.116
				c-1.99,1.301-2.984,2.832-2.984,4.592c0,1.684,0.88,3.291,2.64,4.82c0.076,0,0.191,0.04,0.344,0.116
				c2.22,1.377,4.783,2.065,7.691,2.065c2.832,0,5.242-0.688,7.231-2.065c0.23-0.076,0.384-0.116,0.46-0.116
				c1.836-1.453,2.754-3.061,2.754-4.82c0-0.919-0.268-1.722-0.802-2.41c-0.536-0.841-1.34-1.569-2.412-2.182
				C400.83,315.748,398.688,315.021,396.163,314.943z"/>
			
				<linearGradient id="SVGID_8_" gradientUnits="userSpaceOnUse" x1="218.1284" y1="66.6929" x2="614.8903" y2="66.6929" gradientTransform="matrix(1 0 0 -1 29.04 379.3398)">
				<stop  offset="0" style="stop-color:#959595"/>
				<stop  offset="0.6431" style="stop-color:#C8C8C8"/>
				<stop  offset="1" style="stop-color:#959595"/>
			</linearGradient>
			<path fill="url(#SVGID_8_)" d="M395.358,314.943c0.306,0,0.574,0,0.804,0c2.525,0.078,4.667,0.805,6.427,2.181
				c1.072,0.612,1.875,1.341,2.412,2.182c12.779,1.147,26.018,1.722,39.716,1.722c35.279,0,67.227-3.979,95.847-11.938
				c-0.843-1.071-1.262-2.143-1.262-3.215c0-1.912,0.957-3.52,2.869-4.82c0.46-0.305,0.917-0.573,1.377-0.802
				c1.836-0.92,3.903-1.379,6.199-1.379c2.907,0,5.394,0.729,7.461,2.181c0.919,0.612,1.684,1.301,2.296,2.067
				c8.802-3.291,17.256-6.964,25.367-11.021c32.219-16.07,51.08-34.857,56.591-56.36l2.065-34.665
				c-4.208,25.022-23.379,46.717-57.508,65.083c-38.721,20.893-85.594,31.338-140.615,31.338
				c-54.944,0-101.854-10.445-140.729-31.338c-34.437-18.673-53.606-40.711-57.508-66.117l0.574,9.987l1.606,28.696v0.116
				c3.214,10.101,9.375,19.55,18.481,28.352c0.077,0,0.153-0.038,0.229-0.114c1.454-1.071,3.253-1.607,5.395-1.607
				c1.684,0,3.253,0.46,4.707,1.377c0.152,0.076,0.268,0.152,0.344,0.23c1.53,0.917,2.296,1.989,2.296,3.213
				c0,1.225-0.65,2.336-1.952,3.329c-0.076,0-0.192,0.038-0.344,0.114h0.344l0.229,2.87c7.27,5.435,15.841,10.6,25.712,15.496
				c24.411,12.246,52.038,20.586,82.876,25.024h0.116C389.925,315.672,392.451,314.943,395.358,314.943 M639.511,267.88
				l-2.18,26.059c-2.448,29.461-21.235,54.79-56.362,75.988c-10.407,6.275-21.35,11.671-32.828,16.185l-2.41,22.154
				c12.321-4.746,23.912-10.409,34.781-16.989c35.046-21.121,53.719-46.45,56.015-75.988l0.688-10.217L639.511,267.88
				 M278.505,367.402l-2.525-22.5c-12.78-13.315-20.547-27.893-23.302-43.734l0.804,14.12
				C254.936,334.267,263.277,351.637,278.505,367.402 M284.589,373.024c0,0.077,0,0.153,0,0.231
				c7.041,6.275,15.305,12.281,24.793,18.021c24.183,14.694,51.616,24.604,82.303,29.73l-1.032-21.235
				c-30.84-5.204-58.389-15.151-82.647-29.845c-9.336-5.663-17.524-11.632-24.565-17.906L284.589,373.024 M444.487,404.018
				c-14.769,0-28.927-0.879-42.471-2.639l-0.344,21.121c13.774,1.836,28.161,2.753,43.16,2.753c34.053,0,64.855-4.63,92.404-13.889
				l-0.114-0.114l1.262-21.581C510.451,399.235,479.153,404.018,444.487,404.018z"/>
			
				<linearGradient id="SVGID_9_" gradientUnits="userSpaceOnUse" x1="205.6733" y1="127.8154" x2="223.4653" y2="127.8154" gradientTransform="matrix(1 0 0 -1 29.04 379.3398)">
				<stop  offset="0" style="stop-color:#6A6A6A"/>
				<stop  offset="0.6431" style="stop-color:#D5D5D5"/>
				<stop  offset="1" style="stop-color:#5E5E5E"/>
			</linearGradient>
			<path fill="url(#SVGID_9_)" d="M242.806,197.516c-0.842,0.536-1.338,0.766-1.492,0.689c-0.765-0.459-1.492-0.728-2.181-0.804
				c-0.459,0.076-0.995,0.114-1.607,0.114c-0.306,0-0.65,0-1.033,0c-0.535,0-1.071,0.115-1.606,0.344l11.363,105.718
				c2.373,4.439,4.515,3.521,6.429-2.753c0-0.076,0-0.152,0-0.23l-3.33-61.755v-0.116l-1.606-28.696l-0.116-0.804
				c-1.76,1.99-3.06-2.181-3.902-12.512C243.342,197.019,243.036,197.286,242.806,197.516l5.855,48.786L242.806,197.516z"/>
			
				<radialGradient id="SVGID_10_" cx="158.606" cy="385.7959" r="7.7777" gradientTransform="matrix(1 0 0 -1 78.6899 579.6406)" gradientUnits="userSpaceOnUse">
				<stop  offset="0" style="stop-color:#D5D5D5"/>
				<stop  offset="1" style="stop-color:#6A6A6A"/>
			</radialGradient>
			<path fill="url(#SVGID_10_)" d="M242.577,195.564c0.535-0.536,0.803-1.186,0.803-1.95c0-1.148-0.535-2.067-1.606-2.755
				c-1.224-0.688-2.64-1.034-4.248-1.034s-2.984,0.345-4.132,1.034c-1.148,0.688-1.722,1.607-1.722,2.755
				c0,0.918,0.574,1.798,1.722,2.64c0.918,0.688,1.951,1.11,3.099,1.262c0.383,0,0.727,0,1.033,0c0.612,0,1.148-0.038,1.607-0.114
				c0.612-0.154,1.262-0.382,1.951-0.689c0.153-0.152,0.383-0.306,0.689-0.458C242.003,196.023,242.271,195.794,242.577,195.564z"/>
			
				<radialGradient id="SVGID_11_" cx="-72.9004" cy="576.8438" r="8.8051" gradientTransform="matrix(-0.4563 0.8898 1.7144 0.8898 -622.1699 -288.207)" gradientUnits="userSpaceOnUse">
				<stop  offset="0" style="stop-color:#CB9A62"/>
				<stop  offset="1" style="stop-color:#9A6243"/>
			</radialGradient>
			<path fill="url(#SVGID_11_)" d="M388.815,150.797l-0.344,0.116c-1.225,0.766-2.066,1.53-2.526,2.295v0.114
				c-0.23,0.306-0.306,0.689-0.23,1.148c-0.076,0.154-0.038,0.536,0.116,1.148l0.114,0.459c0.459,1.148,1.148,2.372,2.066,3.674
				c1.914,2.754,4.783,5.127,8.609,7.116c4.285,2.296,7.92,3.444,10.905,3.444c3.291,0.077,5.51-0.88,6.658-2.87
				c1.071-1.988,0.535-4.361-1.607-7.116c-1.454-2.296-4.4-4.591-8.839-6.887c-2.448-1.377-4.782-2.258-7.001-2.641
				c-0.306-0.076-0.574-0.152-0.804-0.229c-1.072-0.078-2.104-0.116-3.1-0.116C390.921,150.453,389.581,150.568,388.815,150.797z"/>
			
				<linearGradient id="SVGID_12_" gradientUnits="userSpaceOnUse" x1="233.7788" y1="298.9873" x2="226.8343" y2="285.3853" gradientTransform="matrix(1 0 0 -1 29.04 379.3398)">
				<stop  offset="0" style="stop-color:#9A6243"/>
				<stop  offset="0.549" style="stop-color:#CB9A62"/>
				<stop  offset="1" style="stop-color:#9A6243"/>
			</linearGradient>
			<path fill="url(#SVGID_12_)" d="M131.462,21.433c-2.218,4.132,0.766,8.417,8.955,12.855l162.998,80.811l13.201,6.657
				l68.986,34.207l0.23-0.344c-0.154-0.612-0.192-0.994-0.116-1.148c-0.076-0.458,0-0.842,0.23-1.148v-0.114l1.492-2.755
				l-61.066-32.944l-13.431-7.346l-165.523-89.42C139,16.994,133.682,17.223,131.462,21.433z"/>
			
				<linearGradient id="SVGID_13_" gradientUnits="userSpaceOnUse" x1="607.832" y1="134.7617" x2="621.3783" y2="134.7617" gradientTransform="matrix(1 0 0 -1 29.04 379.3398)">
				<stop  offset="0" style="stop-color:#6A6A6A"/>
				<stop  offset="0.6431" style="stop-color:#D5D5D5"/>
				<stop  offset="1" style="stop-color:#5E5E5E"/>
			</linearGradient>
			<path fill="url(#SVGID_13_)" d="M644.676,181.675l-0.343,6.199l-0.805,13.201l-2.065,34.665l-1.722,29.271l-0.114,0.688
				l-0.116,2.182l-2.296,37.191l-0.114,2.41l5.511-9.297l7.921-115.132c-0.384,0-0.69,0-0.92,0c-1.76,0-3.215-0.344-4.362-1.033
				C644.945,181.867,644.752,181.751,644.676,181.675z"/>
			
				<linearGradient id="SVGID_14_" gradientUnits="userSpaceOnUse" x1="217.439" y1="189.1128" x2="615.293" y2="189.1128" gradientTransform="matrix(1 0 0 -1 29.04 379.3398)">
				<stop  offset="0" style="stop-color:#6A6A6A"/>
				<stop  offset="0.6431" style="stop-color:#D5D5D5"/>
				<stop  offset="1" style="stop-color:#5E5E5E"/>
			</linearGradient>
			<path fill="url(#SVGID_14_)" d="M644.333,187.874c-0.154-2.679-0.422-5.319-0.805-7.92c0-0.23-0.036-0.46-0.114-0.688
				c-2.984-17.678-13.43-33.672-31.336-47.982l-11.364,5.281c23.569,16.3,35.354,35.125,35.354,56.476
				c0,1.148-0.036,2.218-0.115,3.214c0,0.306,0,0.65,0,1.032l-0.114,1.148c-2.372,24.335-20.854,45.265-55.442,62.79
				c-37.189,18.899-82.109,28.352-134.76,28.352c-52.572,0-97.493-9.452-134.76-28.352c-33.06-16.685-51.425-36.503-55.098-59.46
				c-0.383-2.832-0.574-5.74-0.574-8.724c0-26.785,18.557-49.626,55.672-68.528c1.836-0.995,3.75-1.914,5.74-2.755l-13.201-6.657
				c-37.958,20.814-56.936,45.877-56.936,75.186c0,3.291,0.23,6.543,0.689,9.757c3.902,25.406,23.072,47.444,57.508,66.117
				c38.874,20.893,85.784,31.338,140.729,31.338c55.021,0,101.895-10.445,140.615-31.338c34.129-18.366,53.3-40.062,57.508-65.083
				L644.333,187.874 M591.646,130.709l11.707-5.854c-5.28-3.673-11.058-7.193-17.332-10.561
				C547.3,93.403,500.427,82.958,445.405,82.958c-51.194,0-95.35,9.069-132.464,27.205l13.431,7.346
				c33.977-14.081,73.731-21.12,119.263-21.12c52.651,0,97.571,9.375,134.76,28.123
				C584.298,126.501,588.049,128.567,591.646,130.709z"/>
			
				<radialGradient id="SVGID_15_" cx="390.9336" cy="394.2168" r="6.7155" gradientTransform="matrix(1 0 0 -1 257.9902 573.1406)" gradientUnits="userSpaceOnUse">
				<stop  offset="0" style="stop-color:#D5D5D5"/>
				<stop  offset="1" style="stop-color:#6A6A6A"/>
			</radialGradient>
			<path fill="url(#SVGID_15_)" d="M645.25,176.74c-1.225,0.688-1.836,1.53-1.836,2.525c0.078,0.229,0.114,0.458,0.114,0.688
				c0.152,0.612,0.538,1.186,1.147,1.722c0.076,0.076,0.27,0.191,0.574,0.344c1.147,0.689,2.603,1.033,4.362,1.033
				c0.229,0,0.536,0,0.92,0c1.224-0.153,2.296-0.498,3.212-1.033c1.227-0.688,1.837-1.606,1.837-2.754
				c0-0.996-0.61-1.837-1.837-2.525c-1.069-0.842-2.447-1.264-4.132-1.264C647.853,175.476,646.397,175.898,645.25,176.74z"/>
			
				<radialGradient id="SVGID_16_" cx="-63.7925" cy="315.082" r="96.4813" gradientTransform="matrix(0 -1 -2.0247 0 1083.584 129.1895)" gradientUnits="userSpaceOnUse">
				<stop  offset="0.1608" style="stop-color:#FFFFFF"/>
				<stop  offset="0.8353" style="stop-color:#F0F0F0"/>
				<stop  offset="1" style="stop-color:#BBBBBB"/>
			</radialGradient>
			<path fill="url(#SVGID_16_)" d="M512.787,177.083l-1.265-2.525c0.308,0.766,0.346,1.799,0.117,3.1L512.787,177.083
				 M508.998,172.262l0.114-0.114l82.533-41.439c-3.597-2.142-7.348-4.208-11.25-6.198c-37.189-18.748-82.109-28.123-134.76-28.123
				c-45.532,0-85.287,7.04-119.263,21.12l61.066,32.944l-1.492,2.755c0.459-0.766,1.301-1.53,2.526-2.295l0.344-0.116
				c0.766-0.229,2.105-0.344,4.018-0.344c0.996,0,2.028,0.038,3.1,0.116c0.23,0.076,0.498,0.152,0.804,0.229
				c2.22,0.383,4.553,1.264,7.001,2.641c4.439,2.296,7.385,4.591,8.839,6.887c2.142,2.754,2.678,5.127,1.607,7.116
				c-1.148,1.99-3.367,2.947-6.658,2.87c-2.984,0-6.62-1.148-10.905-3.444c-3.826-1.989-6.696-4.362-8.609-7.116
				c-0.918-1.302-1.606-2.526-2.066-3.674l-0.114-0.459l-0.23,0.344l-68.986-34.207c-1.99,0.842-3.903,1.76-5.74,2.755
				c-37.115,18.902-55.672,41.744-55.672,68.528c0,2.984,0.191,5.892,0.574,8.724c3.672,22.958,22.038,42.776,55.098,59.46
				c37.267,18.899,82.188,28.352,134.76,28.352c52.651,0,97.571-9.452,134.76-28.352c34.588-17.525,53.07-38.455,55.442-62.79
				l0.114-1.148c0-0.382,0-0.726,0-1.032c0.079-0.996,0.115-2.066,0.115-3.214c0-21.351-11.784-40.175-35.354-56.476l-87.927,40.52
				l-1.147,0.574l-0.231,0.23c-0.229,0.766-0.917,1.913-2.064,3.443c-1.991,2.754-4.938,5.05-8.84,6.887
				c-4.592,2.218-8.227,3.252-10.905,3.1c-3.443-0.154-5.661-1.186-6.656-3.1c-0.919-2.066-0.346-4.439,1.722-7.117
				c1.758-2.295,4.782-4.515,9.066-6.657c3.903-1.837,7.613-2.717,11.136-2.64C506.474,171.804,507.851,171.957,508.998,172.262
				 M508.998,172.262l0.346,0.344l-0.231-0.458L508.998,172.262z"/>
			
				<linearGradient id="SVGID_17_" gradientUnits="userSpaceOnUse" x1="614.2549" y1="260.2959" x2="607.6545" y2="274.0707" gradientTransform="matrix(1 0 0 -1 29.04 379.3398)">
				<stop  offset="0" style="stop-color:#9A6243"/>
				<stop  offset="0.549" style="stop-color:#CB9A62"/>
				<stop  offset="1" style="stop-color:#9A6243"/>
			</linearGradient>
			<path fill="url(#SVGID_17_)" d="M511.294,174.214v0.114l0.114,0.116v0.114h0.114l1.265,2.525l87.927-40.52l11.364-5.281
				l148.649-68.643c8.035-4.362,11.02-8.686,8.952-12.971c-1.988-4.362-7.154-4.63-15.496-0.804l-150.831,75.989l-11.707,5.854
				l-82.533,41.439l0.231,0.458c0.457,0.23,0.841,0.421,1.147,0.574C510.796,173.41,511.065,173.754,511.294,174.214z"/>
			
				<radialGradient id="SVGID_18_" cx="-183.5806" cy="321.4043" r="8.8444" gradientTransform="matrix(-0.4316 -0.9021 -1.7328 0.8372 974.752 -253.5767)" gradientUnits="userSpaceOnUse">
				<stop  offset="0" style="stop-color:#CB9A62"/>
				<stop  offset="1" style="stop-color:#9A6243"/>
			</radialGradient>
			<path fill="url(#SVGID_18_)" d="M511.294,174.328v-0.114c-0.229-0.459-0.498-0.804-0.803-1.033
				c-0.307-0.153-0.69-0.344-1.147-0.574l-0.346-0.344c-1.147-0.306-2.524-0.458-4.132-0.458c-3.522-0.077-7.232,0.803-11.136,2.64
				c-4.284,2.142-7.309,4.362-9.066,6.657c-2.067,2.678-2.641,5.051-1.722,7.117c0.995,1.914,3.213,2.946,6.656,3.1
				c2.679,0.152,6.313-0.881,10.905-3.1c3.902-1.837,6.849-4.133,8.84-6.887c1.147-1.53,1.836-2.678,2.064-3.443l0.231-0.23
				c0.229-1.3,0.19-2.334-0.117-3.1h-0.114v-0.114L511.294,174.328z"/>
		</g>
	</g>
	<g>
		<path id="Layer1_0_1_STROKES" fill="none" stroke="#3E3E3E" stroke-width="2" stroke-linecap="round" stroke-linejoin="round" d="
			M252.678,300.825c-1.914,6.273-4.056,7.192-6.429,2.753L234.886,197.86 M236.493,197.516c-1.148-0.152-2.181-0.574-3.099-1.262
			c-1.148-0.842-1.722-1.722-1.722-2.64c0-1.148,0.574-2.067,1.722-2.755c1.148-0.688,2.524-1.034,4.132-1.034
			s3.023,0.345,4.248,1.034c1.072,0.688,1.606,1.607,1.606,2.755c0,0.764-0.268,1.415-0.803,1.95l0.114,1.148h1.034
			 M312.941,110.163c37.114-18.136,81.27-27.205,132.464-27.205c55.021,0,101.895,10.445,140.615,31.337
			c6.274,3.367,12.052,6.887,17.332,10.561 M326.372,117.509c33.977-14.081,73.731-21.12,119.263-21.12
			c52.651,0,97.571,9.375,134.76,28.123c3.902,1.99,7.653,4.056,11.25,6.198 M600.714,136.564
			c23.569,16.3,35.354,35.125,35.354,56.476c0,1.148-0.036,2.218-0.115,3.214c0,0.306,0,0.65,0,1.032l-0.114,1.148
			c-2.372,24.335-20.854,45.265-55.442,62.79c-37.189,18.899-82.109,28.352-134.76,28.352c-52.572,0-97.493-9.452-134.76-28.352
			c-33.06-16.685-51.425-36.503-55.098-59.46c-0.383-2.832-0.574-5.74-0.574-8.724c0-26.785,18.557-49.626,55.672-68.528
			c1.836-0.995,3.75-1.914,5.74-2.755 M242.806,197.516l-0.114-0.804h-1.607l0.23,1.493 M242.577,195.564
			c-0.306,0.23-0.574,0.459-0.804,0.689c-0.306,0.152-0.536,0.306-0.689,0.458c-0.688,0.307-1.338,0.536-1.951,0.689
			c-0.459,0.076-0.995,0.114-1.607,0.114c-0.306,0-0.65,0-1.033,0 M252.678,300.825c0-0.076,0-0.152,0-0.23l-3.33-61.755
			 M248.661,246.302l-5.855-48.786"/>
	</g>
	<g>
		<path id="Layer1_0_2_STROKES" fill="none" stroke="#DADDD4" stroke-width="2" stroke-linecap="round" stroke-linejoin="round" d="
			M252.678,301.168c0-0.152,0-0.267,0-0.343 M405.001,319.306c12.779,1.147,26.018,1.722,39.716,1.722
			c35.279,0,67.227-3.979,95.847-11.938 M559.505,303.121c8.802-3.291,17.256-6.964,25.367-11.021
			c32.219-16.07,51.08-34.857,56.591-56.36 M387.667,317.124c-30.839-4.438-58.465-12.778-82.876-25.024
			c-9.871-4.896-18.442-10.062-25.712-15.496 M283.441,352.021c7.041,6.274,15.229,12.243,24.565,17.906
			c24.258,14.693,51.807,24.641,82.647,29.845 M402.016,401.379c13.544,1.76,27.703,2.639,42.471,2.639
			c34.666,0,65.964-4.782,93.896-14.349 M249.349,238.724v0.116c3.214,10.101,9.375,19.55,18.481,28.352 M275.98,344.902
			c-12.78-13.315-20.547-27.893-23.302-43.734 M639.511,267.88l-2.18,26.059c-2.448,29.461-21.235,54.79-56.362,75.988
			c-10.407,6.275-21.35,11.671-32.828,16.185"/>
	</g>
	<g>
		<path id="Layer1_0_3_STROKES" fill="none" stroke="#452D1F" stroke-width="2" stroke-linecap="round" stroke-linejoin="round" d="
			M511.522,174.558h-0.114v-0.114l-0.114-0.116v-0.114c-0.229-0.459-0.498-0.804-0.803-1.033c-0.307-0.153-0.69-0.344-1.147-0.574
			l-0.346-0.344c-1.147-0.306-2.524-0.458-4.132-0.458c-3.522-0.077-7.232,0.803-11.136,2.64c-4.284,2.142-7.309,4.362-9.066,6.657
			c-2.067,2.678-2.641,5.051-1.722,7.117c0.995,1.914,3.213,2.946,6.656,3.1c2.679,0.152,6.313-0.881,10.905-3.1
			c3.902-1.837,6.849-4.133,8.84-6.887c1.147-1.53,1.836-2.678,2.064-3.443l0.231-0.23
			C511.868,176.357,511.83,175.324,511.522,174.558z M512.787,177.083l87.927-40.52l11.364-5.281l148.649-68.643
			c8.035-4.362,11.02-8.686,8.952-12.971c-1.988-4.362-7.154-4.63-15.496-0.804l-150.831,75.989l-11.707,5.854l-82.533,41.439
			l-0.114,0.114 M512.787,177.083l-1.147,0.574 M303.415,115.099L140.417,34.288c-8.189-4.438-11.173-8.723-8.955-12.855
			c2.22-4.209,7.539-4.439,15.956-0.689l165.523,89.42l13.431,7.346 M303.415,115.099l13.201,6.657 M385.946,153.208
			c0.459-0.766,1.301-1.53,2.526-2.295l0.344-0.116c0.766-0.229,2.105-0.344,4.018-0.344c0.996,0,2.028,0.038,3.1,0.116
			c0.23,0.076,0.498,0.152,0.804,0.229c2.22,0.383,4.553,1.264,7.001,2.641c4.439,2.296,7.385,4.591,8.839,6.887
			c2.142,2.754,2.678,5.127,1.607,7.116c-1.148,1.99-3.367,2.947-6.658,2.87c-2.984,0-6.62-1.148-10.905-3.444
			c-3.826-1.989-6.696-4.362-8.609-7.116c-0.918-1.302-1.606-2.526-2.066-3.674l-0.114-0.459 M316.615,121.756l68.986,34.207
			 M385.832,155.618c-0.154-0.612-0.192-0.994-0.116-1.148c-0.076-0.458,0-0.842,0.23-1.148v-0.114 M387.438,150.453l-61.066-32.944
			"/>
	</g>
</g>
</svg>
