<svg xmlns="http://www.w3.org/2000/svg" width="900" height="450" viewBox="0 0 900 450"><g><path fill="#959595" d="M540.91 347.083l-10.562 2.756v16.299l8.954 8.151 1.608-27.206m-258.617-15.036l10.217-4.478-.46-15.266-11.134-2.412 1.377 22.156z"/><linearGradient id="a" gradientUnits="userSpaceOnUse" x1="508.081" y1="15.841" x2="526.677" y2="15.841" gradientTransform="matrix(1 0 0 -1 29.04 379.34)"><stop offset="0" stop-color="#6a6a6a"/><stop offset=".643" stop-color="#d5d5d5"/><stop offset="1" stop-color="#5e5e5e"/></linearGradient><path fill="url(#a)" d="M555.832 311.499c-1.762.765-3.789 1.148-6.084 1.148-2.601 0-4.861-.496-6.773-1.491l-2.064 35.927-1.607 27.206-.92 15.38-1.262 21.581.114.114c1.227 2.755 3.177 4.249 5.854 4.478 2.604-2.144 3.484-4.668 2.642-7.576l2.41-22.154 7.69-74.613z"/><radialGradient id="b" cx="333.791" cy="324.315" r="13.087" gradientTransform="matrix(1 0 0 -1 213.89 627.09)" gradientUnits="userSpaceOnUse"><stop offset="0" stop-color="#d5d5d5"/><stop offset="1" stop-color="#6a6a6a"/></radialGradient><path fill="url(#b)" d="M557.209 301.054c-2.067-1.452-4.554-2.181-7.461-2.181-2.296 0-4.363.459-6.199 1.379-.46.229-.917.497-1.377.802-1.912 1.301-2.869 2.908-2.869 4.82 0 1.072.419 2.144 1.262 3.215.382.536.92 1.072 1.607 1.607.152.153.42.308.803.46 1.912.995 4.173 1.491 6.773 1.491 2.295 0 4.322-.384 6.084-1.148a5.845 5.845 0 0 0 1.377-.803c2.144-1.455 3.215-3.06 3.215-4.822 0-1.071-.308-1.988-.919-2.753-.612-.767-1.377-1.455-2.296-2.067z"/><linearGradient id="c" gradientUnits="userSpaceOnUse" x1="238.875" y1="53.62" x2="255.462" y2="53.62" gradientTransform="matrix(1 0 0 -1 29.04 379.34)"><stop offset="0" stop-color="#6a6a6a"/><stop offset=".643" stop-color="#d5d5d5"/><stop offset="1" stop-color="#5e5e5e"/></linearGradient><path fill="url(#c)" d="M268.059 273.733h-.114l8.035 71.169 2.525 22.5v9.525c3.138 1.76 5.166.536 6.083-3.672v-.231l-1.148-21.004-1.148-19.974-1.377-22.155-1.836-33.288-.229-2.87h-.344a6.791 6.791 0 0 1-1.952 1.034c-.918.307-1.952.459-3.1.459-2.142.001-3.941-.497-5.395-1.493z"/><radialGradient id="d" cx="178.691" cy="342.908" r="7.862" gradientTransform="matrix(1 0 0 -1 94.19 612.74)" gradientUnits="userSpaceOnUse"><stop offset="0" stop-color="#d5d5d5"/><stop offset="1" stop-color="#6a6a6a"/></radialGradient><path fill="url(#d)" d="M273.454 265.47c-2.142 0-3.941.536-5.395 1.607-.076.076-.152.114-.229.114-1.147.92-1.722 1.951-1.722 3.099 0 1.301.612 2.448 1.836 3.443h.114c1.454.996 3.253 1.493 5.395 1.493 1.148 0 2.182-.152 3.1-.459a6.829 6.829 0 0 0 1.952-1.034c.152-.076.268-.114.344-.114 1.301-.993 1.952-2.104 1.952-3.329 0-1.224-.766-2.296-2.296-3.213a1.292 1.292 0 0 0-.344-.23c-1.453-.917-3.023-1.377-4.707-1.377z"/><linearGradient id="e" gradientUnits="userSpaceOnUse" x1="218.759" y1="59.461" x2="613.513" y2="59.461" gradientTransform="matrix(1 0 0 -1 29.04 379.34)"><stop offset="0"/><stop offset=".69" stop-color="#4d4d4d"/><stop offset=".977" stop-color="#151515"/></linearGradient><path fill="url(#e)" d="M405.804 321.716c0 1.76-.918 3.367-2.754 4.82-.076 0-.23.04-.46.116h.46l-1.034 74.727c13.544 1.76 27.703 2.639 42.471 2.639 34.666 0 65.964-4.782 93.896-14.349l.92-15.38-8.954-8.151v-16.299l10.562-2.756 2.064-35.927c-.383-.152-.65-.307-.803-.46-.688-.535-1.226-1.071-1.607-1.607-28.62 7.959-60.568 11.938-95.847 11.938-13.698 0-26.937-.574-39.716-1.722.534.689.802 1.492.802 2.411m-18.48 4.82c-1.76-1.529-2.64-3.137-2.64-4.82 0-1.76.994-3.291 2.984-4.592-30.839-4.438-58.465-12.778-82.876-25.024-9.871-4.896-18.442-10.062-25.712-15.496l1.836 33.288 11.134 2.412.46 15.266-10.217 4.478 1.148 19.974c7.041 6.274 15.229 12.243 24.565 17.906 24.258 14.693 51.807 24.641 82.647 29.845l-3.329-73.119h.344c-.153-.078-.268-.118-.344-.118m250.007-32.598l2.18-26.059.116-2.182.114-.688 1.722-29.271c-5.511 21.503-24.372 40.29-56.591 56.36-8.111 4.058-16.565 7.73-25.367 11.021.611.765.919 1.682.919 2.753 0 1.763-1.071 3.367-3.215 4.822a5.845 5.845 0 0 1-1.377.803l-7.691 74.612a217.741 217.741 0 0 0 32.828-16.185c35.127-21.195 53.914-46.525 56.362-75.986m-384.653 6.887v.343c2.754 15.842 10.521 30.419 23.302 43.734l-8.035-71.169c-1.224-.995-1.836-2.143-1.836-3.443 0-1.147.574-2.179 1.722-3.099-9.106-8.802-15.268-18.251-18.481-28.352l3.33 61.755c-.002.079-.002.155-.002.231z"/><linearGradient id="f" gradientUnits="userSpaceOnUse" x1="358.026" y1=".288" x2="373.694" y2=".288" gradientTransform="matrix(1 0 0 -1 29.04 379.34)"><stop offset="0" stop-color="#6a6a6a"/><stop offset=".643" stop-color="#d5d5d5"/><stop offset="1" stop-color="#5e5e5e"/></linearGradient><path fill="url(#f)" d="M387.667 326.652h-.344l3.329 73.119 1.032 21.235c.46 4.284 1.952 7.769 4.478 10.445 3.06-1.453 4.897-4.439 5.509-8.952l.344-21.121 1.034-74.727h-.46c-1.989 1.377-4.399 2.065-7.231 2.065-2.907.002-5.471-.687-7.691-2.064z"/><radialGradient id="g" cx="247.301" cy="314.662" r="10.646" gradientTransform="matrix(1 0 0 -1 147.14 634.54)" gradientUnits="userSpaceOnUse"><stop offset="0" stop-color="#d5d5d5"/><stop offset="1" stop-color="#6a6a6a"/></radialGradient><path fill="url(#g)" d="M396.163 314.943h-.804c-2.908 0-5.433.729-7.575 2.181h-.116c-1.99 1.301-2.984 2.832-2.984 4.592 0 1.684.88 3.291 2.64 4.82.076 0 .191.04.344.116 2.22 1.377 4.783 2.065 7.691 2.065 2.832 0 5.242-.688 7.231-2.065.23-.076.384-.116.46-.116 1.836-1.453 2.754-3.061 2.754-4.82 0-.919-.268-1.722-.802-2.41-.536-.841-1.34-1.569-2.412-2.182-1.76-1.376-3.902-2.103-6.427-2.181z"/><linearGradient id="h" gradientUnits="userSpaceOnUse" x1="218.128" y1="66.693" x2="614.89" y2="66.693" gradientTransform="matrix(1 0 0 -1 29.04 379.34)"><stop offset="0" stop-color="#959595"/><stop offset=".643" stop-color="#c8c8c8"/><stop offset="1" stop-color="#959595"/></linearGradient><path fill="url(#h)" d="M395.358 314.943h.804c2.525.078 4.667.805 6.427 2.181 1.072.612 1.875 1.341 2.412 2.182 12.779 1.147 26.018 1.722 39.716 1.722 35.279 0 67.227-3.979 95.847-11.938-.843-1.071-1.262-2.143-1.262-3.215 0-1.912.957-3.52 2.869-4.82.46-.305.917-.573 1.377-.802 1.836-.92 3.903-1.379 6.199-1.379 2.907 0 5.394.729 7.461 2.181.919.612 1.684 1.301 2.296 2.067 8.802-3.291 17.256-6.964 25.367-11.021 32.219-16.07 51.08-34.857 56.591-56.36l2.065-34.665c-4.208 25.022-23.379 46.717-57.508 65.083-38.721 20.893-85.594 31.338-140.615 31.338-54.944 0-101.854-10.445-140.729-31.338-34.437-18.673-53.606-40.711-57.508-66.117l.574 9.987 1.606 28.696v.116c3.214 10.101 9.375 19.55 18.481 28.352.077 0 .153-.038.229-.114 1.454-1.071 3.253-1.607 5.395-1.607 1.684 0 3.253.46 4.707 1.377.152.076.268.152.344.23 1.53.917 2.296 1.989 2.296 3.213 0 1.225-.65 2.336-1.952 3.329-.076 0-.192.038-.344.114h.344l.229 2.87c7.27 5.435 15.841 10.6 25.712 15.496 24.411 12.246 52.038 20.586 82.876 25.024h.116c2.145-1.453 4.671-2.182 7.578-2.182m244.153-47.063l-2.18 26.059c-2.448 29.461-21.235 54.79-56.362 75.988a217.883 217.883 0 0 1-32.828 16.185l-2.41 22.154c12.321-4.746 23.912-10.409 34.781-16.989 35.046-21.121 53.719-46.45 56.015-75.988l.688-10.217 2.296-37.192m-361.006 99.522l-2.525-22.5c-12.78-13.315-20.547-27.893-23.302-43.734l.804 14.12c1.454 18.979 9.795 36.349 25.023 52.114m6.084 5.622v.231c7.041 6.275 15.305 12.281 24.793 18.021 24.183 14.694 51.616 24.604 82.303 29.73l-1.032-21.235c-30.84-5.204-58.389-15.151-82.647-29.845-9.336-5.663-17.524-11.632-24.565-17.906l1.148 21.004m159.898 30.994c-14.769 0-28.927-.879-42.471-2.639l-.344 21.121c13.774 1.836 28.161 2.753 43.16 2.753 34.053 0 64.855-4.63 92.404-13.889l-.114-.114 1.262-21.581c-27.933 9.566-59.231 14.349-93.897 14.349z"/><linearGradient id="i" gradientUnits="userSpaceOnUse" x1="205.673" y1="127.815" x2="223.465" y2="127.815" gradientTransform="matrix(1 0 0 -1 29.04 379.34)"><stop offset="0" stop-color="#6a6a6a"/><stop offset=".643" stop-color="#d5d5d5"/><stop offset="1" stop-color="#5e5e5e"/></linearGradient><path fill="url(#i)" d="M242.806 197.516c-.842.536-1.338.766-1.492.689-.765-.459-1.492-.728-2.181-.804a9.955 9.955 0 0 1-1.607.114h-1.033c-.535 0-1.071.115-1.606.344l11.363 105.718c2.373 4.439 4.515 3.521 6.429-2.753v-.23l-3.33-61.755v-.116l-1.606-28.696-.116-.804c-1.76 1.99-3.06-2.181-3.902-12.512-.383.308-.689.575-.919.805l5.855 48.786-5.855-48.786z"/><radialGradient id="j" cx="158.606" cy="385.796" r="7.778" gradientTransform="matrix(1 0 0 -1 78.69 579.64)" gradientUnits="userSpaceOnUse"><stop offset="0" stop-color="#d5d5d5"/><stop offset="1" stop-color="#6a6a6a"/></radialGradient><path fill="url(#j)" d="M242.577 195.564a2.658 2.658 0 0 0 .803-1.95c0-1.148-.535-2.067-1.606-2.755-1.224-.688-2.64-1.034-4.248-1.034s-2.984.345-4.132 1.034c-1.148.688-1.722 1.607-1.722 2.755 0 .918.574 1.798 1.722 2.64a6.51 6.51 0 0 0 3.099 1.262h1.033c.612 0 1.148-.038 1.607-.114a12.028 12.028 0 0 0 1.951-.689c.153-.152.383-.306.689-.458.23-.232.498-.461.804-.691z"/><radialGradient id="k" cx="-72.9" cy="576.844" r="8.805" gradientTransform="matrix(-.4563 .8898 1.7144 .8898 -622.17 -288.207)" gradientUnits="userSpaceOnUse"><stop offset="0" stop-color="#cb9a62"/><stop offset="1" stop-color="#9a6243"/></radialGradient><path fill="url(#k)" d="M388.815 150.797l-.344.116c-1.225.766-2.066 1.53-2.526 2.295v.114c-.23.306-.306.689-.23 1.148-.076.154-.038.536.116 1.148l.114.459c.459 1.148 1.148 2.372 2.066 3.674 1.914 2.754 4.783 5.127 8.609 7.116 4.285 2.296 7.92 3.444 10.905 3.444 3.291.077 5.51-.88 6.658-2.87 1.071-1.988.535-4.361-1.607-7.116-1.454-2.296-4.4-4.591-8.839-6.887-2.448-1.377-4.782-2.258-7.001-2.641a10.654 10.654 0 0 1-.804-.229 42.71 42.71 0 0 0-3.1-.116c-1.911.001-3.251.116-4.017.345z"/><linearGradient id="l" gradientUnits="userSpaceOnUse" x1="233.779" y1="298.987" x2="226.834" y2="285.385" gradientTransform="matrix(1 0 0 -1 29.04 379.34)"><stop offset="0" stop-color="#9a6243"/><stop offset=".549" stop-color="#cb9a62"/><stop offset="1" stop-color="#9a6243"/></linearGradient><path fill="url(#l)" d="M131.462 21.433c-2.218 4.132.766 8.417 8.955 12.855l162.998 80.811 13.201 6.657 68.986 34.207.23-.344c-.154-.612-.192-.994-.116-1.148-.076-.458 0-.842.23-1.148v-.114l1.492-2.755-61.066-32.944-13.431-7.346-165.523-89.42c-8.418-3.75-13.736-3.521-15.956.689z"/><linearGradient id="m" gradientUnits="userSpaceOnUse" x1="607.832" y1="134.762" x2="621.378" y2="134.762" gradientTransform="matrix(1 0 0 -1 29.04 379.34)"><stop offset="0" stop-color="#6a6a6a"/><stop offset=".643" stop-color="#d5d5d5"/><stop offset="1" stop-color="#5e5e5e"/></linearGradient><path fill="url(#m)" d="M644.676 181.675l-.343 6.199-.805 13.201-2.065 34.665-1.722 29.271-.114.688-.116 2.182-2.296 37.191-.114 2.41 5.511-9.297 7.921-115.132h-.92c-1.76 0-3.215-.344-4.362-1.033-.306-.153-.499-.269-.575-.345z"/><linearGradient id="n" gradientUnits="userSpaceOnUse" x1="217.439" y1="189.113" x2="615.293" y2="189.113" gradientTransform="matrix(1 0 0 -1 29.04 379.34)"><stop offset="0" stop-color="#6a6a6a"/><stop offset=".643" stop-color="#d5d5d5"/><stop offset="1" stop-color="#5e5e5e"/></linearGradient><path fill="url(#n)" d="M644.333 187.874a89.663 89.663 0 0 0-.805-7.92c0-.23-.036-.46-.114-.688-2.984-17.678-13.43-33.672-31.336-47.982l-11.364 5.281c23.569 16.3 35.354 35.125 35.354 56.476 0 1.148-.036 2.218-.115 3.214v1.032l-.114 1.148c-2.372 24.335-20.854 45.265-55.442 62.79-37.189 18.899-82.109 28.352-134.76 28.352-52.572 0-97.493-9.452-134.76-28.352-33.06-16.685-51.425-36.503-55.098-59.46a65.039 65.039 0 0 1-.574-8.724c0-26.785 18.557-49.626 55.672-68.528a65.797 65.797 0 0 1 5.74-2.755l-13.201-6.657c-37.958 20.814-56.936 45.877-56.936 75.186 0 3.291.23 6.543.689 9.757 3.902 25.406 23.072 47.444 57.508 66.117 38.874 20.893 85.784 31.338 140.729 31.338 55.021 0 101.895-10.445 140.615-31.338 34.129-18.366 53.3-40.062 57.508-65.083l.804-13.204m-52.687-57.165l11.707-5.854c-5.28-3.673-11.058-7.193-17.332-10.561-38.721-20.891-85.594-31.336-140.616-31.336-51.194 0-95.35 9.069-132.464 27.205l13.431 7.346c33.977-14.081 73.731-21.12 119.263-21.12 52.651 0 97.571 9.375 134.76 28.123a195.293 195.293 0 0 1 11.251 6.197z"/><radialGradient id="o" cx="390.934" cy="394.217" r="6.715" gradientTransform="matrix(1 0 0 -1 257.99 573.14)" gradientUnits="userSpaceOnUse"><stop offset="0" stop-color="#d5d5d5"/><stop offset="1" stop-color="#6a6a6a"/></radialGradient><path fill="url(#o)" d="M645.25 176.74c-1.225.688-1.836 1.53-1.836 2.525.078.229.114.458.114.688.152.612.538 1.186 1.147 1.722.076.076.27.191.574.344 1.147.689 2.603 1.033 4.362 1.033h.92c1.224-.153 2.296-.498 3.212-1.033 1.227-.688 1.837-1.606 1.837-2.754 0-.996-.61-1.837-1.837-2.525-1.069-.842-2.447-1.264-4.132-1.264-1.758 0-3.214.422-4.361 1.264z"/><radialGradient id="p" cx="-63.792" cy="315.082" r="96.481" gradientTransform="matrix(0 -1 -2.0247 0 1083.584 129.19)" gradientUnits="userSpaceOnUse"><stop offset=".161" stop-color="#fff"/><stop offset=".835" stop-color="#f0f0f0"/><stop offset="1" stop-color="#bbb"/></radialGradient><path fill="url(#p)" d="M512.787 177.083l-1.265-2.525c.308.766.346 1.799.117 3.1l1.148-.575m-3.789-4.821l.114-.114 82.533-41.439a196.213 196.213 0 0 0-11.25-6.198c-37.189-18.748-82.109-28.123-134.76-28.123-45.532 0-85.287 7.04-119.263 21.12l61.066 32.944-1.492 2.755c.459-.766 1.301-1.53 2.526-2.295l.344-.116c.766-.229 2.105-.344 4.018-.344.996 0 2.028.038 3.1.116.23.076.498.152.804.229 2.22.383 4.553 1.264 7.001 2.641 4.439 2.296 7.385 4.591 8.839 6.887 2.142 2.754 2.678 5.127 1.607 7.116-1.148 1.99-3.367 2.947-6.658 2.87-2.984 0-6.62-1.148-10.905-3.444-3.826-1.989-6.696-4.362-8.609-7.116-.918-1.302-1.606-2.526-2.066-3.674l-.114-.459-.23.344-68.986-34.207a66.226 66.226 0 0 0-5.74 2.755c-37.115 18.902-55.672 41.744-55.672 68.528 0 2.984.191 5.892.574 8.724 3.672 22.958 22.038 42.776 55.098 59.46 37.267 18.899 82.188 28.352 134.76 28.352 52.651 0 97.571-9.452 134.76-28.352 34.588-17.525 53.07-38.455 55.442-62.79l.114-1.148v-1.032c.079-.996.115-2.066.115-3.214 0-21.351-11.784-40.175-35.354-56.476l-87.927 40.52-1.147.574-.231.23c-.229.766-.917 1.913-2.064 3.443-1.991 2.754-4.938 5.05-8.84 6.887-4.592 2.218-8.227 3.252-10.905 3.1-3.443-.154-5.661-1.186-6.656-3.1-.919-2.066-.346-4.439 1.722-7.117 1.758-2.295 4.782-4.515 9.066-6.657 3.903-1.837 7.613-2.717 11.136-2.64 1.606.002 2.983.155 4.13.46m0 0l.346.344-.231-.458-.115.114z"/><linearGradient id="q" gradientUnits="userSpaceOnUse" x1="614.255" y1="260.296" x2="607.654" y2="274.071" gradientTransform="matrix(1 0 0 -1 29.04 379.34)"><stop offset="0" stop-color="#9a6243"/><stop offset=".549" stop-color="#cb9a62"/><stop offset="1" stop-color="#9a6243"/></linearGradient><path fill="url(#q)" d="M511.294 174.214v.114l.114.116v.114h.114l1.265 2.525 87.927-40.52 11.364-5.281 148.649-68.643c8.035-4.362 11.02-8.686 8.952-12.971-1.988-4.362-7.154-4.63-15.496-.804l-150.831 75.989-11.707 5.854-82.533 41.439.231.458c.457.23.841.421 1.147.574.306.232.575.576.804 1.036z"/><radialGradient id="r" cx="-183.581" cy="321.404" r="8.844" gradientTransform="matrix(-.4316 -.9021 -1.7328 .8372 974.752 -253.577)" gradientUnits="userSpaceOnUse"><stop offset="0" stop-color="#cb9a62"/><stop offset="1" stop-color="#9a6243"/></radialGradient><path fill="url(#r)" d="M511.294 174.328v-.114c-.229-.459-.498-.804-.803-1.033-.307-.153-.69-.344-1.147-.574l-.346-.344c-1.147-.306-2.524-.458-4.132-.458-3.522-.077-7.232.803-11.136 2.64-4.284 2.142-7.309 4.362-9.066 6.657-2.067 2.678-2.641 5.051-1.722 7.117.995 1.914 3.213 2.946 6.656 3.1 2.679.152 6.313-.881 10.905-3.1 3.902-1.837 6.849-4.133 8.84-6.887 1.147-1.53 1.836-2.678 2.064-3.443l.231-.23c.229-1.3.19-2.334-.117-3.1h-.114v-.114l-.113-.117z"/></g><path fill="none" stroke="#3E3E3E" stroke-width="2" stroke-linecap="round" stroke-linejoin="round" d="M252.678 300.825c-1.914 6.273-4.056 7.192-6.429 2.753L234.886 197.86m1.607-.344a6.51 6.51 0 0 1-3.099-1.262c-1.148-.842-1.722-1.722-1.722-2.64 0-1.148.574-2.067 1.722-2.755 1.148-.688 2.524-1.034 4.132-1.034s3.023.345 4.248 1.034c1.072.688 1.606 1.607 1.606 2.755 0 .764-.268 1.415-.803 1.95l.114 1.148h1.034m69.216-86.549c37.114-18.136 81.27-27.205 132.464-27.205 55.021 0 101.895 10.445 140.615 31.337 6.274 3.367 12.052 6.887 17.332 10.561m-276.98-7.347c33.977-14.081 73.731-21.12 119.263-21.12 52.651 0 97.571 9.375 134.76 28.123a196.213 196.213 0 0 1 11.25 6.198m9.069 5.854c23.569 16.3 35.354 35.125 35.354 56.476 0 1.148-.036 2.218-.115 3.214v1.032l-.114 1.148c-2.372 24.335-20.854 45.265-55.442 62.79-37.189 18.899-82.109 28.352-134.76 28.352-52.572 0-97.493-9.452-134.76-28.352-33.06-16.685-51.425-36.503-55.098-59.46a65.039 65.039 0 0 1-.574-8.724c0-26.785 18.557-49.626 55.672-68.528a65.797 65.797 0 0 1 5.74-2.755m-73.811 75.759l-.114-.804h-1.607l.23 1.493m1.262-2.641c-.306.23-.574.459-.804.689-.306.152-.536.306-.689.458-.688.307-1.338.536-1.951.689a9.955 9.955 0 0 1-1.607.114h-1.033m16.185 103.311v-.23l-3.33-61.755m-.687 7.462l-5.855-48.786"/><path fill="none" stroke="#DADDD4" stroke-width="2" stroke-linecap="round" stroke-linejoin="round" d="M252.678 301.168v-.343m152.323 18.481c12.779 1.147 26.018 1.722 39.716 1.722 35.279 0 67.227-3.979 95.847-11.938m18.941-5.969c8.802-3.291 17.256-6.964 25.367-11.021 32.219-16.07 51.08-34.857 56.591-56.36m-253.796 81.384c-30.839-4.438-58.465-12.778-82.876-25.024-9.871-4.896-18.442-10.062-25.712-15.496m4.362 75.417c7.041 6.274 15.229 12.243 24.565 17.906 24.258 14.693 51.807 24.641 82.647 29.845m11.363 1.607c13.544 1.76 27.703 2.639 42.471 2.639 34.666 0 65.964-4.782 93.896-14.349M249.349 238.724v.116c3.214 10.101 9.375 19.55 18.481 28.352m8.15 77.71c-12.78-13.315-20.547-27.893-23.302-43.734m386.833-33.288l-2.18 26.059c-2.448 29.461-21.235 54.79-56.362 75.988a217.883 217.883 0 0 1-32.828 16.185"/><path fill="none" stroke="#452D1F" stroke-width="2" stroke-linecap="round" stroke-linejoin="round" d="M511.522 174.558h-.114v-.114l-.114-.116v-.114c-.229-.459-.498-.804-.803-1.033-.307-.153-.69-.344-1.147-.574l-.346-.344c-1.147-.306-2.524-.458-4.132-.458-3.522-.077-7.232.803-11.136 2.64-4.284 2.142-7.309 4.362-9.066 6.657-2.067 2.678-2.641 5.051-1.722 7.117.995 1.914 3.213 2.946 6.656 3.1 2.679.152 6.313-.881 10.905-3.1 3.902-1.837 6.849-4.133 8.84-6.887 1.147-1.53 1.836-2.678 2.064-3.443l.231-.23c.23-1.302.192-2.335-.116-3.101zm1.265 2.525l87.927-40.52 11.364-5.281 148.649-68.643c8.035-4.362 11.02-8.686 8.952-12.971-1.988-4.362-7.154-4.63-15.496-.804l-150.831 75.989-11.707 5.854-82.533 41.439-.114.114m3.789 4.823l-1.147.574m-208.225-62.558L140.417 34.288c-8.189-4.438-11.173-8.723-8.955-12.855 2.22-4.209 7.539-4.439 15.956-.689l165.523 89.42 13.431 7.346m-22.957-2.411l13.201 6.657m69.33 31.452c.459-.766 1.301-1.53 2.526-2.295l.344-.116c.766-.229 2.105-.344 4.018-.344.996 0 2.028.038 3.1.116.23.076.498.152.804.229 2.22.383 4.553 1.264 7.001 2.641 4.439 2.296 7.385 4.591 8.839 6.887 2.142 2.754 2.678 5.127 1.607 7.116-1.148 1.99-3.367 2.947-6.658 2.87-2.984 0-6.62-1.148-10.905-3.444-3.826-1.989-6.696-4.362-8.609-7.116-.918-1.302-1.606-2.526-2.066-3.674l-.114-.459m-69.218-33.863l68.986 34.207m.231-.345c-.154-.612-.192-.994-.116-1.148-.076-.458 0-.842.23-1.148v-.114m1.492-2.755l-61.066-32.944"/></svg>