<?xml version="1.0" encoding="utf-8"?>
<!-- Generator: Adobe Illustrator 16.0.0, SVG Export Plug-In . SVG Version: 6.00 Build 0)  -->
<!DOCTYPE svg PUBLIC "-//W3C//DTD SVG 1.1//EN" "http://www.w3.org/Graphics/SVG/1.1/DTD/svg11.dtd">
<svg version="1.1" id="Layer_1" xmlns="http://www.w3.org/2000/svg" xmlns:xlink="http://www.w3.org/1999/xlink" x="0px" y="0px"
	 width="900px" height="450px" viewBox="0 0 900 450" enable-background="new 0 0 900 450" xml:space="preserve">
<g>
	<g transform="matrix( 0.9272918701171875, 0, 0, 0.9272918701171875, -5.1,103.7) ">
		<g>
			<g id="Layer0_0_FILL">
				<path fill="#F2F2F2" d="M836.61,29.37l-94.786-3.504L597.53,25.282L413.944,6.878l-66.89-1.605l-41.041,3.651l-36.657,9.347
					l-16.65,7.011l-5.842,3.651l-3.943,4.381l-2.191,4.382L240,42.953l1.313,10.662l7.742,22.784l2.044,10.954l-0.583,5.257
					l-1.899,4.965l-3.213,4.382l-5.111,3.943l-8.616,4.088l-21.762,4.674l-39.141,0.731l-80.619-2.046l-20.446,4.236l-8.033,3.359
					l-6.134,5.111l-3.798,4.967l-1.898,5.404l-0.292,5.549l0.877,5.696l5.695,11.1l10.224,11.245l13.291,10.662l32.569,18.694
					l54.33,19.423l41.185,10.514l91.718,15.484l100.336,8.908l104.571,2.042l52.286-1.313l101.648-7.011l94.056-12.415l99.46-22.93
					l16.94-5.694l6.575-3.357l3.065-3.359l0.732-3.214l-2.045-2.483l-9.494-5.548l-36.366-14.021l-10.66-7.298l-2.631-4.385
					l-0.585-4.673l2.191-5.112l5.112-6.282l15.043-11.389l79.89-41.334l11.391-10.953l2.338-5.404l-0.147-5.843l-2.918-6.133
					l-9.35-9.932l-12.121-8.032l-32.133-11.393L836.61,29.37z"/>
			</g>
		</g>
	</g>
	<g transform="matrix( 0.9272918701171875, 0, 0, 0.9272918701171875, -5.1,103.7) ">
		<g transform="matrix( 1.078399658203125, 0, 0, 1.078399658203125, 5.45,-111.8) ">
			
				<path id="Layer0_1_1_STROKES" fill="none" stroke="#272727" stroke-width="2" stroke-linecap="round" stroke-linejoin="round" d="
				M766.803,131.557l36.667,6.29l29.44,10.437l11.107,7.36l8.565,9.1l2.675,5.621l0.135,5.353l-2.143,4.951l-10.438,10.037
				l-73.195,37.87l-13.786,10.439l-4.682,5.754l-2.006,4.683l0.531,4.281l2.411,4.018l9.768,6.689l33.323,12.846l8.698,5.085
				l1.872,2.276l-0.671,2.942l-2.809,3.078l-6.023,3.077l-15.522,5.22l-91.132,21.01l-86.177,11.373l-93.139,6.423l-47.907,1.206
				l-95.813-1.876l-91.933-8.162l-84.038-14.184l-37.736-9.633l-49.781-17.799l-29.841-17.128l-12.177-9.77l-9.367-10.305
				l-5.219-10.168l-0.804-5.219l0.268-5.088l1.74-4.947l3.479-4.549l5.619-4.685l7.362-3.078l18.734-3.879l73.868,1.873
				l35.864-0.669l19.939-4.282l7.895-3.748l4.683-3.613l2.944-4.014l1.74-4.551l0.536-4.817l-1.875-10.036l-7.092-20.876
				l-1.205-9.769l0.668-4.818l2.007-4.014l3.613-4.015l5.353-3.346l15.255-6.422l33.588-8.565l37.602-3.345l61.289,1.472
				l168.207,16.86l132.216,0.535L766.803,131.557z"/>
		</g>
	</g>
	<g transform="matrix( 1, 0, 0, 1, 0,0) ">
		<g>
			<g id="Layer0_2_FILL">
				<path fill="#FFFFFF" d="M585.257,169.087l-45.424-4.674l-136.409-19.424l-45.128-2.483l-44.692,2.191l-22.491,3.504
					l-38.412,11.976l-15.188,9.056c2.646,31.031-11.812,50.114-43.376,57.25h-31.546l-17.965,7.742l-5.988,3.506l-3.505,3.797
					l-1.46,4.82l0.439,4.672l2.336,5.402l9.931,10.809l16.503,10.369l34.468,13.293l59.588,8.179l45.13-8.179l21.468-1.314
					l62.363,4.525l125.019,20.594l69.664,2.483l39.288-3.65l14.896-4.381l14.753-6.866l13.728-9.493l11.832-11.829l9.345-13.729
					l5.991-15.48l1.751-8.617l0.585-8.908l9.639-9.639l11.538-6.865l24.534-11.101l11.103-7.155l5.258-4.674l7.594-12.415
					l2.921-8.178l2.19-20.447l-3.941-9.055l-4.967-6.134l-6.281-4.089l-7.009-1.607l-8.178-0.291l-8.618,1.46l-79.741,32.568
					l-18.405,3.213L585.257,169.087z"/>
			</g>
		</g>
	</g>
	<g transform="matrix( 0.9272918701171875, 0, 0, 0.9272918701171875, -13.55,120) ">
		<g>
			<g id="Layer0_3_FILL">
				<path fill="#FEDE01" d="M643.7,96.874c-23.074-29.599-53.257-48.098-90.548-55.498c-47.419-12.95-93.618-8.764-138.601,12.56
					c-23.465,11.197-41.284,24.877-53.455,41.04c-12.56,16.746-19.814,37.241-21.761,61.488
					c68.741,30.085,139.234,41.086,211.479,33.007c41.381-3.214,78.136-14.217,110.264-33.007
					c1.654-11.492,1.073-21.908-1.749-31.254C656.599,116.154,651.394,106.709,643.7,96.874z"/>
			</g>
		</g>
		<g transform="matrix( 1.078399658203125, 0, 0, 1.078399658203125, 14.6,-129.4) ">
			
				<path id="Layer0_3_1_STROKES" fill="none" stroke="#333333" stroke-width="2" stroke-linecap="round" stroke-linejoin="round" d="
				M500.56,157.067c-44.76-12.224-88.373-8.271-130.836,11.856c-22.151,10.57-38.97,23.484-50.458,38.741
				c-11.856,15.808-18.704,35.157-20.542,58.043c64.888,28.4,131.431,38.785,199.629,31.157
				c39.062-3.033,73.757-13.422,104.087-31.157c1.563-10.847,1.012-20.681-1.651-29.503c-2.576-8.55-7.491-17.464-14.752-26.747
				C564.252,181.516,535.761,164.052,500.56,157.067z"/>
		</g>
	</g>
	<g transform="matrix( 1, 0, 0, 1, -7,-8.5) ">
		<g>
			<g id="Layer0_4_FILL">
				<path fill="#FFEC5F" d="M413.783,215.267c3.409,6.816,11.149,11.392,23.222,13.728c6.038-11.293,13.778-20.348,23.222-27.165
					c-11.101-4.089-18.841-8.714-23.222-13.875C426.586,197.108,418.846,206.212,413.783,215.267z"/>
			</g>
		</g>
	</g>
</g>
</svg>
