<svg xmlns="http://www.w3.org/2000/svg" width="900" height="450" viewBox="0 0 900 450"><path fill="#F2F2F2" d="M770.682 130.935l-87.895-3.25-133.802-.541-170.238-17.066-62.027-1.488-38.057 3.385-33.991 8.668-15.44 6.5-5.417 3.386-3.656 4.063-2.032 4.063-.677 4.875 1.218 9.887 7.179 21.127 1.895 10.158-.54 4.875-1.761 4.604-2.98 4.063-4.74 3.656-7.989 3.791-20.18 4.334-36.295.678-74.757-1.897-18.96 3.928-7.448 3.115-5.688 4.739-3.522 4.606-1.76 5.01-.271 5.146.813 5.282 5.281 10.293 9.48 10.428 12.325 9.886 30.201 17.335 50.38 18.011 38.19 9.75 85.05 14.358 93.04 8.26 96.969 1.894 48.484-1.218 94.257-6.501 87.218-11.513 92.228-21.262 15.709-5.28 6.096-3.113 2.843-3.115.678-2.98-1.896-2.303-8.804-5.144-33.722-13.002-9.884-6.767-2.44-4.067-.543-4.333 2.032-4.74 4.74-5.825 13.95-10.561 74.081-38.329 10.563-10.157 2.168-5.01-.137-5.419-2.705-5.687-8.67-9.21-11.24-7.448-29.797-10.564-37.107-6.364z"/><path fill="none" stroke="#272727" stroke-width="1.99998" stroke-linecap="round" stroke-linejoin="round" d="M766.75 131.585l36.667 6.29 29.44 10.436 11.106 7.36 8.565 9.1 2.675 5.621.135 5.353-2.143 4.951-10.438 10.037-73.194 37.87-13.786 10.439-4.682 5.754-2.006 4.683.531 4.28 2.411 4.019 9.768 6.688 33.323 12.846 8.698 5.085 1.872 2.276-.671 2.942-2.81 3.078-6.022 3.077-15.522 5.22L689.536 320l-86.177 11.373-93.138 6.423-47.906 1.206-95.812-1.876-91.933-8.162-84.037-14.184-37.736-9.633-49.78-17.799-29.84-17.128-12.178-9.77-9.367-10.304-5.219-10.168-.804-5.22.268-5.087 1.74-4.947 3.48-4.55 5.618-4.684 7.362-3.078 18.734-3.88 73.867 1.874 35.864-.67 19.939-4.281 7.895-3.748 4.683-3.613 2.944-4.014 1.74-4.55.536-4.818-1.875-10.036-7.092-20.876-1.205-9.768.668-4.818 2.007-4.014 3.613-4.015 5.353-3.346 15.255-6.422 33.587-8.565 37.602-3.345 61.288 1.472 168.206 16.86 132.215.535 86.849 3.21z"/><path fill="#FFF" d="M585.257 169.087l-45.424-4.674-136.409-19.424-45.128-2.483-44.692 2.191-22.491 3.504-38.412 11.976-15.188 9.056c2.646 31.031-11.812 50.114-43.376 57.25h-31.546l-17.965 7.742-5.988 3.506-3.505 3.797-1.46 4.82.439 4.672 2.336 5.402 9.931 10.809 16.503 10.369 34.468 13.293 59.588 8.179 45.13-8.179 21.468-1.314 62.363 4.525 125.019 20.594 69.664 2.483 39.288-3.65 14.896-4.381 14.753-6.866 13.728-9.493 11.832-11.829 9.345-13.729 5.991-15.48 1.751-8.617.585-8.908 9.639-9.639 11.538-6.865 24.534-11.101 11.103-7.155 5.258-4.674 7.594-12.415 2.921-8.178 2.19-20.447-3.941-9.055-4.967-6.134-6.281-4.089-7.009-1.607-8.178-.291-8.618 1.46-79.741 32.568-18.405 3.213-45.131-.732z"/><path fill="#FEDE01" d="M583.348 209.83c-21.397-27.446-49.385-44.6-83.965-51.462-43.97-12.009-86.81-8.127-128.523 11.646-21.76 10.383-38.283 23.069-49.569 38.056-11.646 15.529-18.373 34.534-20.178 57.018 63.743 27.897 129.11 38.099 196.102 30.607 38.373-2.98 72.455-13.183 102.247-30.607 1.534-10.657.995-20.315-1.622-28.982-2.531-8.397-7.358-17.156-14.492-26.276z"/><path fill="none" stroke="#333" stroke-width="1.99998" stroke-linecap="round" stroke-linejoin="round" d="M500.544 157.074c-44.76-12.224-88.372-8.27-130.835 11.856-22.15 10.57-38.97 23.484-50.457 38.74-11.856 15.808-18.704 35.157-20.542 58.043 64.887 28.4 131.43 38.785 199.627 31.157 39.062-3.033 73.756-13.422 104.086-31.157 1.563-10.847 1.012-20.68-1.65-29.503-2.577-8.55-7.492-17.463-14.753-26.746-21.784-27.941-50.275-45.405-85.476-52.39z"/><g><path fill="#FFEC5F" d="M406.783 206.767c3.409 6.816 11.149 11.392 23.222 13.728 6.038-11.293 13.778-20.348 23.222-27.165-11.101-4.089-18.841-8.714-23.222-13.875-10.419 9.153-18.159 18.257-23.222 27.312z"/></g></svg>