<?xml version="1.0" encoding="utf-8"?>
<!-- Generator: Adobe Illustrator 16.0.0, SVG Export Plug-In . SVG Version: 6.00 Build 0)  -->
<!DOCTYPE svg PUBLIC "-//W3C//DTD SVG 1.1//EN" "http://www.w3.org/Graphics/SVG/1.1/DTD/svg11.dtd">
<svg version="1.1" id="Layer_1" xmlns="http://www.w3.org/2000/svg" xmlns:xlink="http://www.w3.org/1999/xlink" x="0px" y="0px"
	 width="900px" height="450px" viewBox="0 0 900 450" enable-background="new 0 0 900 450" xml:space="preserve">
<g>
	<g transform="matrix( 0.9272918701171875, 0, 0, 0.9272918701171875, -5.1,103.7) ">
		<g>
			<g id="Layer0_0_FILL">
				<path fill="#F2F2F2" d="M836.61,29.37l-94.786-3.504L597.53,25.282L413.944,6.878l-66.89-1.605l-41.041,3.651l-36.657,9.347
					l-16.65,7.011l-5.842,3.651l-3.943,4.381l-2.191,4.382L240,42.953l1.313,10.662l7.742,22.784l2.044,10.954l-0.583,5.257
					l-1.899,4.965l-3.213,4.382l-5.111,3.943l-8.616,4.088l-21.762,4.674l-39.141,0.731l-80.619-2.046l-20.446,4.236l-8.033,3.359
					l-6.134,5.111l-3.798,4.967l-1.898,5.404l-0.292,5.549l0.877,5.697l5.695,11.099l10.224,11.246l13.291,10.662l32.569,18.694
					l54.33,19.423l41.185,10.514l91.718,15.485l100.336,8.908l104.571,2.042l52.286-1.313l101.649-7.011l94.056-12.415l99.46-22.93
					l16.94-5.694l6.575-3.358l3.064-3.359l0.732-3.214l-2.045-2.483l-9.494-5.549l-36.366-14.021l-10.66-7.299l-2.63-4.384
					l-0.585-4.673l2.191-5.112l5.112-6.282l15.043-11.388l79.889-41.335l11.391-10.953l2.338-5.404l-0.147-5.843l-2.919-6.133
					l-9.349-9.932l-12.121-8.032l-32.133-11.393L836.61,29.37z"/>
			</g>
		</g>
	</g>
	<g transform="matrix( 0.9272918701171875, 0, 0, 0.9272918701171875, -5.1,103.7) ">
		<g transform="matrix( 1.078399658203125, 0, 0, 1.078399658203125, 5.45,-111.8) ">
			
				<path id="Layer0_1_1_STROKES" fill="none" stroke="#272727" stroke-width="2" stroke-linecap="round" stroke-linejoin="round" d="
				M836.456,29.456l40.018,6.864l32.13,11.391l12.121,8.033l9.349,9.932l2.919,6.134l0.147,5.842l-2.338,5.403l-11.391,10.954
				l-79.885,41.332l-15.046,11.391l-5.109,6.281l-2.19,5.11l0.581,4.673l2.63,4.384l10.662,7.299l36.367,14.021l9.493,5.549
				l2.043,2.485l-0.732,3.212l-3.065,3.359l-6.574,3.358l-16.94,5.697l-99.46,22.93l-94.053,12.412l-101.65,7.011l-52.286,1.316
				l-104.569-2.048l-100.335-8.908l-91.718-15.48L166.39,218.88l-54.33-19.426l-32.568-18.693l-13.291-10.662l-10.223-11.247
				l-5.696-11.098l-0.877-5.694l0.292-5.553l1.899-5.401l3.797-4.965l6.133-5.113l8.034-3.359l20.446-4.234l80.619,2.044
				l39.141-0.731l21.761-4.673l8.616-4.09l5.111-3.943l3.213-4.381l1.899-4.967l0.585-5.257l-2.046-10.954l-7.74-22.784
				l-1.315-10.661l0.73-5.259l2.19-4.381l3.944-4.382l5.842-3.652l16.65-7.009l36.657-9.347l41.039-3.651l66.89,1.606l183.58,18.401
				l144.298,0.584L836.456,29.456z"/>
		</g>
	</g>
	<g transform="matrix( 1, 0, 0, 1, 0,0) ">
		<g>
			<g id="Layer0_2_FILL">
				<path fill="#FFFFFF" d="M585.257,169.087l-45.424-4.674l-136.409-19.424l-45.128-2.483l-44.692,2.191l-22.491,3.504
					l-38.412,11.976l-15.188,9.056c2.646,31.031-11.812,50.114-43.376,57.25h-31.546l-17.965,7.741l-5.988,3.506l-3.505,3.797
					l-1.46,4.821l0.439,4.672l2.336,5.402l9.931,10.809l16.503,10.369l34.468,13.292l59.588,8.179l45.13-8.179l21.468-1.314
					l62.363,4.526l125.019,20.593l69.664,2.484l39.288-3.651l14.896-4.381l14.753-6.866l13.727-9.493l11.832-11.829l9.345-13.729
					l5.991-15.48l1.751-8.617l0.585-8.909l9.639-9.638l11.538-6.865l24.534-11.101l11.103-7.155l5.257-4.674l7.594-12.415
					l2.921-8.178l2.19-20.447l-3.941-9.055l-4.967-6.134l-6.281-4.089l-7.009-1.607l-8.178-0.291l-8.618,1.46l-79.741,32.568
					l-18.405,3.213L585.257,169.087z"/>
			</g>
		</g>
	</g>
	<g transform="matrix( 0.9272918701171875, 0, 0, 0.9272918701171875, -13.55,120) ">
		<g>
			<g id="Layer0_3_FILL">
				<path fill="#FEDE01" d="M643.7,96.874c-23.074-29.599-53.257-48.098-90.549-55.498c-47.419-12.95-93.618-8.764-138.601,12.56
					c-23.465,11.197-41.284,24.877-53.455,41.04c-12.56,16.746-19.814,37.241-21.761,61.488
					c68.741,30.085,139.234,41.086,211.479,33.007c41.381-3.214,78.137-14.217,110.265-33.007
					c1.654-11.492,1.073-21.908-1.75-31.254C656.599,116.154,651.394,106.709,643.7,96.874z"/>
			</g>
		</g>
		<g transform="matrix( 1.078399658203125, 0, 0, 1.078399658203125, 14.6,-129.4) ">
			
				<path id="Layer0_3_1_STROKES" fill="none" stroke="#333333" stroke-width="2" stroke-linecap="round" stroke-linejoin="round" d="
				M553.11,41.397c-47.416-12.949-93.618-8.762-138.601,12.56c-23.465,11.197-41.282,24.877-53.453,41.04
				c-12.56,16.746-19.814,37.244-21.761,61.487c68.739,30.085,139.231,41.088,211.477,33.007
				c41.381-3.212,78.135-14.218,110.265-33.007c1.656-11.49,1.071-21.908-1.75-31.254c-2.729-9.057-7.936-18.5-15.627-28.334
				C620.582,67.297,590.4,48.796,553.11,41.397z"/>
		</g>
	</g>
	<g transform="matrix( 1, 0, 0, 1, -7,-8.5) ">
		<g>
			<g id="Layer0_4_FILL">
				<path fill="#FFEC5F" d="M413.783,215.267c3.409,6.816,11.149,11.392,23.222,13.728c6.038-11.293,13.778-20.348,23.222-27.165
					c-11.101-4.089-18.841-8.714-23.222-13.875C426.586,197.108,418.846,206.212,413.783,215.267z"/>
			</g>
		</g>
	</g>
</g>
</svg>
