<svg xmlns="http://www.w3.org/2000/svg" viewBox="0 0 115.1 88.05"><path fill-rule="evenodd" d="M33.75 17.1l1 .9-1-.9q-.6-.6-.95-1.25-.95-.2-1.4.55-.55.7-.8 1.55 2.45.35 3.15-.85m-3.35 2.2l.2-1.35-.2 1.35M12.85 34q.55-3.7 1.65-7.2 1-3.1 2.45-6.1 3.1-10.1 9.45-16.85Q34.15-1.2 41.05 2 53.3-1.55 56 5.8l1.65 1.1q1.25 2.05 2.3 4.75L61 14.7q2.7 10-2.25 13.35l-4.5 1.75q-2.45 4.25-4.15 5.35.35.75 0 1.7-3.35 2.5-6.9 3.65-4.9 1.4-4.05-3.15.3-4.3 1.3-7.6-1 3.3-1.3 7.6-.85 4.55 4.05 3.15 3.55-1.15 6.9-3.65.35-.95 0-1.7 1.7-1.1 4.15-5.35l4.5-1.75Q63.7 24.7 61 14.7l-1.05-3.05q9.45 3.9 15.55 1.05Q88.15 8.4 97.05 16q8.9 7.55 13.4 18.2l.3 2.55q1.65.55 2-.8.35-1.7-.15-3.95l-.95-3.05-1.35-2.8-1.5-2.3-.05-.15h.85l.35.5q3.35 4.3 4.05 7.5.95 3.7-.7 7.85-.8 1-2.1 1-1.25 0-2.25-1l-1.1 1.55q1.55-3.05.25-6.6-.25 4.35-1.8 8.1-1.3 4.95-3.35 9.5l-2.85 5.55q-.15 3.35.85 8.75l3 13.1q.3.25.65 2.95.3 2.8.05 4.05l-3.75.3h-.5l-2.45-.15-.2-.05-.35-.05-1.25-.25q-.45-1.5 0-2.85.3-1 1.1-1.9-.55-7.6-3.15-13.15-.45 1.6-1.05 6.45l-.85 6.35.35 3.2-.8 2.3-6.55.2H85l-3.45-.2q-.4-1.5-.05-2.95.3-1.1.95-2.2L83 74.3q.25-3.8-.05-6.25l-.6-6.55v-1.25l.05-.55q.25-6.7.95-8.35.85-2.05 1.25-4.25l.75-3.5q0-.85.4-1.9l.85-1.85q1.4-3.3 3.55-5.85-2.15 2.55-3.55 5.85l-.85 1.85q-.4 1.05-.4 1.9l-.75 3.5-1.95 2.8q-1.35 1.55-4 1.75t-5.4-1q-2.7-1.2-3.6-5.25l.9 5-.2 8.2-.1 1.15q-.15 2-.7 3.2l-.95 1.95q-.8 8.1.2 16.05.4.05.95 2.2.55 2.1-.85 3.65l-6.75.4-1.75-.1-.9-.1q-1.85-.5-1.25-2.9.55-2.4 1.5-3.25l-.35-8.5q-.3-3.5-.9-5.65-1.15-4.2-3.3-7.5t-4.05-4.75q-2.45-1.9-3.9-4.9L45.7 44.8l.25 1.15q2.45 11.3 1.45 18.6-.6 1.85-1.6 3.3l-1.15 4.25-1.75 4v4q1.35 2.8 1.45 4.7 0 1.85-1.3 2.15l-4.2.35h-.35l-1.85-.05h-.2l-.95-.1-1.7-.2q-.55-1.7-.1-3.1l.25-.7q.35-.95 1-1.85.85-6.6-.05-12.7-.3-6.4 1.35-13.35 1.3-4.55 1.35-11.55-.5-5.25-3.65-8.35L32.4 34.1l-.9.05q-1.6 1.5-2.15 3.15-.3 2.55-1.95 3.15.5-3.05 0-6.15-.7 2.35-2.5 4.4-1.3.8-1.6 2.05v.9l-.65 2.5Q22.4 45.5 22.3 47v6q.3 9.75-.95 17.75.75-.9 1.4-.25.65.7.2 1.9-.85 2.4-2 2.7-1.2.25-2.75-.8-.8-.55-1.3-3.5l-.95-7.8q-1.3-9.85-3.1-16.7-.8-6.3 0-12.3m15.4-1.45q1.5.25 2.85-1.35.55-.6.9-1.75.35-1.25.15-3.35.2 2.1-.15 3.35-.35 1.15-.9 1.75-1.35 1.6-2.85 1.35.05-3.15-2.9-3.15-1.75 1.75-6.75-3.05-2.45-2.1-1.25.95 2.3 3.6 4.75 5 2.35 1.4 4.8.75l1.35-.5m8 .45q-1.75.8-3.85 1.1 2.1-.3 3.85-1.1 2.45-1.1 4.2-3.25l.95-2.45q.05-4.5 1-8.3-2.75 9.9-6.15 14m7.45-17.85q-.6 1.4-1.05 3l-.05.05-.2.8.2-.8.05-.05q.45-1.6 1.05-3l.85-1.75q2.7-2.75 6 0 4.2 1.15 2.75-2.4-4.8-4.8-9.6-3.85 2.25 1.85 0 8m23.4 21.1q1.3 2.45 2.55 9.15-1.25-6.7-2.55-9.15m3.3 9.15q2.5-4.95 3.35-8.75-.85 3.8-3.35 8.75m29.7 12.25l-4.55 6.8-.8 2-.65 1.95.65-1.95.8-2 4.55-6.8m-79 15.2l.25-2.1-.25 2.1" fill="#666547"/><path fill-rule="evenodd" d="M33.75 17.1q-.7 1.2-3.15.85.25-.85.8-1.55.45-.75 1.4-.55.35.65.95 1.25M24.9 38.7q1.8-2.05 2.5-4.4.5 3.1 0 6.15-.9 1.5-2.5-1.75m4.45-1.4q.55-1.65 2.15-3.15l.9-.05 1.55 1.25-.1 4.15q-.25 2.85-3 1.3-1.1-1.75-1.5-3.5m6.9-4.3q3.4-4.1 6.15-14-.95 3.8-1 8.3l-.95 2.45Q38.7 31.9 36.25 33m9.7 12.95l-.25-1.15 1.55 4.75-1.3-3.6m60.35-3.35q1.55-3.75 1.8-8.1 1.3 3.55-.25 6.6l-1.55 1.5" fill="#36372b"/><path fill-rule="evenodd" d="M12.6 33.5q-.75-1.7-.8-3.5-.05-.65.05-1.3 1.65-1.45 2.65-1.9-1.1 3.5-1.65 7.2l-.25-.5m31.1-18.35q2.25-6.15 0-8 4.8-.95 9.6 3.85 1.45 3.55-2.75 2.4-3.3-2.75-6 0l-.85 1.75m3.7 49.4q1-7.3-1.45-18.6l1.3 3.6q1.45 3 3.9 4.9l-3 7.05-.75 3.05m22.95-5.95l.2-8.2-.9-5q.9 4.05 3.6 5.25 2.75 1.2 5.4 1t4-1.75l1.95-2.8q-.4 2.2-1.25 4.25-.7 1.65-.95 8.35l-.05.55q-3.85.8-12-1.65m29.75-.95l2.85-5.55q-.3 5.6.4 12.65.5 4.75 2.15 14.7.7.85 1.1 2.2.3 1.2.25 2.45 0 2.35-.6 2.2l-1.6.2q.25-1.25-.05-4.05-.35-2.7-.65-2.95l-3-13.1q-1-5.4-.85-8.75" fill="#4e4d36"/><path fill-rule="evenodd" d="M11.8 30q.05 1.8.8 3.5-8.95.35-11.85-6.75l1.05-.55q5.55 4.75 10 3.8m16.45 2.55l-1.35.5q-2.45.65-4.8-.75-2.45-1.4-4.75-5l1.25-.95q5 4.8 6.75 3.05 2.95 0 2.9 3.15" fill="#f8ecbc"/><path stroke-linejoin="round" d="M34.75 18l-1-.9q-.7 1.2-3.15.85l-.2 1.35m3.35-2.2q-.6-.6-.95-1.25-.95-.2-1.4.55-.55.7-.8 1.55m-18 15.55q-.75-1.7-.8-3.5-4.45.95-10-3.8m-1.05.55q2.9 7.1 11.85 6.75l.25.5q.55-3.7 1.65-7.2-1 .45-2.65 1.9-.1.65-.05 1.3M.75 26.75q-.1-1.5 1.05-.55m30.35-.1q.2 2.1-.15 3.35-.35 1.15-.9 1.75-1.35 1.6-2.85 1.35l-1.35.5q-2.45.65-4.8-.75-2.45-1.4-4.75-5-1.2-3.05 1.25-.95 5 4.8 6.75 3.05 2.95 0 2.9 3.15m-6.9 38.2q1.25-8 .95-17.75v-6q.1-1.5.35-2.85l.65-2.5v-.9q.3-1.25 1.6-2.05 1.8-2.05 2.5-4.4.5 3.1 0 6.15 1.65-.6 1.95-3.15.55-1.65 2.15-3.15l.9-.05q2.1-.3 3.85-1.1 2.45-1.1 4.2-3.25l.95-2.45q.05-4.5 1-8.3l.2-.8.05-.05q.45-1.6 1.05-3m.85-1.75l-.85 1.75m-16.3 25.3q-.9 1.5-2.5-1.75m9.05-3.35q3.15 3.1 3.65 8.35-.05 7-1.35 11.55Q34.6 62.2 34.9 68.6q.9 6.1.05 12.7-.65.9-1 1.85l-.25.7q-.45 1.4.1 3.1l1.7.2.95.1h.2l1.85.05h.35l4.2-.35q1.3-.3 1.3-2.15-.1-1.9-1.45-4.7v-4l1.75-4 1.15-4.25q1-1.45 1.6-3.3l.75-3.05 3-7.05q1.9 1.45 4.05 4.75t3.3 7.5q.6 2.15.9 5.65l.35 8.5q-.95.85-1.5 3.25-.6 2.4 1.25 2.9l.9.1 1.75.1 6.75-.4q1.4-1.55.85-3.65-.55-2.15-.95-2.2-1-7.95-.2-16.05l.95-1.95q.55-1.2.7-3.2l.1-1.15.2-8.2-.9-5q-1.25-6.7-2.55-9.15m-21.15 9.7l-.25-1.15m1.55 4.75q1.45 3 3.9 4.9M29.35 37.3q.4 1.75 1.5 3.5 2.75 1.55 3-1.3l.1-4.15-1.55-1.25m27.55-22.45q-1.05-2.7-2.3-4.75L56 5.8Q53.3-1.55 41.05 2q-6.9-3.2-14.65 1.85-6.35 6.75-9.45 16.85-1.45 3-2.45 6.1m25.95 2.95q-1 3.3-1.3 7.6-.85 4.55 4.05 3.15 3.55-1.15 6.9-3.65.35-.95 0-1.7 1.7-1.1 4.15-5.35l4.5-1.75Q63.7 24.7 61 14.7l-1.05-3.05q9.45 3.9 15.55 1.05Q88.15 8.4 97.05 16q8.9 7.55 13.4 18.2l.3 2.55q1.65.55 2-.8.35-1.7-.15-3.95l-.95-3.05-1.35-2.8-1.5-2.3m-.05-.15q-1.8-5 1.35-9M90.15 34Q88 36.55 86.6 39.85l-.85 1.85q-.4 1.05-.4 1.9l-.75 3.5q-.4 2.2-1.25 4.25-.7 1.65-.95 8.35l-.05.55v1.25l.6 6.55q.3 2.45.05 6.25l-.55 7.25q-.65 1.1-.95 2.2-.35 1.45.05 2.95l3.45.2h.2l6.55-.2.8-2.3-.35-3.2.85-6.35q.6-4.85 1.05-6.45l.65-1.95.8-2 4.55-6.8 2.85-5.55q2.05-4.55 3.35-9.5l1.55-1.5 1.1-1.55q1 1 2.25 1 1.3 0 2.1-1 1.65-4.15.7-7.85-.7-3.2-4.05-7.5l-.35-.5q-.9-4.05 2.45-5.4m-3.3 5.4l.05-.25q-1.2-4.8 1.45-7.65m3.55.3q-5.1-.25-5 7.35.05-5.7 4.6-6.65m-8.75 69.7l1.6-.2q.6.15.6-2.2.05-1.25-.25-2.45-.4-1.35-1.1-2.2-1.65-9.95-2.15-14.7-.7-7.05-.4-12.65M94.1 68.4q2.6 5.55 3.15 13.15-.8.9-1.1 1.9-.45 1.35 0 2.85l1.25.25.35.05.2.05 2.45.15h.5l3.75-.3M12.85 34q-.8 6 0 12.3 1.8 6.85 3.1 16.7l.95 7.8q.5 2.95 1.3 3.5 1.55 1.05 2.75.8 1.15-.3 2-2.7.45-1.2-.2-1.9-.65-.65-1.4.25l-.25 2.1M70.35 58.6q8.15 2.45 12 1.65m-35.1-10.7l-1.3-3.6" stroke="#141410" stroke-linecap="round" stroke-width="1.5" fill="none"/><path stroke-linejoin="round" d="M73.75 36.65q-.85 3.8-3.35 8.75" stroke="#4e4d36" stroke-linecap="round" stroke-width="1.5" fill="none"/></svg>