<svg xmlns="http://www.w3.org/2000/svg" viewBox="0 0 93.45 148.7"><path fill-rule="evenodd" d="M45.75 6.7q-.55 1.9-1 4.5l-4.35-.25q-4.15 0-8 .9 3.85-.9 8-.9l4.35.25q.45-2.6 1-4.5 10.3-.55 18.55 5.8l3.05 2.65-4.05 4.4q-8.2-7.15-18.55-8.35-1.65 8.45-2.95 24.1 1.3-15.65 2.95-24.1 10.35 1.2 18.55 8.35l4.05-4.4q6.45 6.75 7.1 17l-.2 2.15-.15.35-7.45 3.15 7.45-3.15q-.65 1.45-2.4 2.2-1.6.7-5.05.95l-1.95.05-5.4.25-2.55.2q-2.1.4-3.5 1.25 1.4-.85 3.5-1.25l2.55-.2 2.25 1.9-4.85 2.2 4.85-2.2.45.55q3.25 3.7 3.9 8.6L60 47.2l5.9 1.95q3.6 1.45 6.35 3.25 3 2 4.9 4.5l.6.9q3 4.55 2.55 10.5l-4.4-1.2q-2.15 6.8-6.55 12.6l5.35 3.55-5.35-3.55q4.4-5.8 6.55-12.6l4.4 1.2q-.35 4.6-2.65 10-1.2 2.8-2.95 4.95-2.35 2.9-5.6 4.8-2.2 1.25-4.6 1.9l.05.3.2 4.25.15 3.4.05 1.05.75 16.05 1.9 1.7v4.65l19.6 3.8-28.4 19.35-39.25-7.05 28.9-18.65 2.4.45v-2.05l1.6-1.9.4-12.8q6.4-.85 12.1-3.55-5.7 2.7-12.1 3.55l.1-3.45q5.1-1.05 9.75-3.4l-3.95-4.95 3.95 4.95q-4.65 2.35-9.75 3.4l.2-6.5.1-2.8q-2.05-.7-3.6-2-3.4-2.8-2.3-6.75l1.25-5.1.4-2.6q.15-3.2-1.5-6.2l-.2-.3q-1.6 1.15-3.4 1.8-2.15.7-4.5.7h-.35l-1.45 1.6-.05-1.7.05 1.7q-6.05 6.7-11.75 9l-2.1.7q-4.7 1.25-8.35-.8-3.5-2-5.45-6.6L9 70.5q-1.6-5.6-1.25-13.25l.3-4.2q.7-6.05 2.8-10.55l.3-.6q2.2-4.25 5.3-6 2.9-1.65 5.65-.55l.25.1q3.05 1.35 5.05 5.15l.5-.7q1.25-1.4 2.65-2.5Q24.6 23.5 30 14.85l.05-.05 2.35-2.95q4.7-4.65 13-5.15h.35M34.5 35.45q-3.15-13.1-4.45-20.65 1.3 7.55 4.45 20.65l3.95-.55 3.35.4-3.35-.4-3.95.55q-2.1.65-3.95 1.95 1.85-1.3 3.95-1.95M24 48.4q-8.15-3.5-13.15-5.9 5 2.4 13.15 5.9.55-3.7 2.6-6.8-2.05 3.1-2.6 6.8-.3 1.75-.25 3.65.05 1.4.25 2.75.55 3.55 2.4 6.55-1.85-3-2.4-6.55Q13.55 56 7.75 57.25 13.55 56 24 54.8q-.2-1.35-.25-2.75-.05-1.9.25-3.65m-1.9-13.05l4.5 6.25-4.5-6.25m4.3 26Q14.35 69.45 9.95 73.2q4.4-3.75 16.45-11.85.9 1.5 2.15 2.9l1.7 1.6-1.7-1.6q-1.25-1.4-2.15-2.9m3.85 4.5q-4.15 8.55-6.5 14.75 2.35-6.2 6.5-14.75 3.25 2.8 7.3 3.35-4.05-.55-7.3-3.35m17.8-27.25Q57.3 26.45 63.3 19.55l3.7 3.7q4.55 5.1 7.25 11.05-2.7-5.95-7.25-11.05l-3.7-3.7q-6 6.9-15.25 19.05l1.35 1.3 1.5 1.9-1.5-1.9-1.35-1.3-.45-.4-1.05-.8q-2.2-1.55-4.75-2.1 2.55.55 4.75 2.1l1.05.8.45.4m3.1 3l-.25.2 1.45 2.4.6 1.45L60 47.2q-1-2.4-2.75-4.4l-.55-.6q-1.6-1.7-3.45-2.65-1.4.8-2.1 2.05m-24.55 0l.8-1-.8 1m26.35 4.05q1.15 2.95 1.25 6.4v.1q.05 3.7-1.05 6.8-1.05 2.9-3.1 5.3l-.85.9-1.6 1.45-.3.2.3-.2 1.6-1.45.85-.9q2.05-2.4 3.1-5.3 1.1-3.1 1.05-6.8v-.1q-.1-3.45-1.25-6.4M37.55 69.2l1.5.1-1.5-.1m11.65-4.05Q61.8 74.5 69.35 79.7L67 82.6q-4.1 4.5-8.8 7.4-3.95-5.45-9.6-14.1 5.65 8.65 9.6 14.1 4.7-2.9 8.8-7.4l2.35-2.9Q61.8 74.5 49.2 65.15m3.95-6.2Q67 64.45 75.9 67.1q1.4-4.45 1.85-9.3-.45 4.85-1.85 9.3-8.9-2.65-22.75-8.15m19.1-6.55l-18.05-.25 18.05.25m-21.4 66.85v6.1q3.2 2.1 8.85 2.1 5.7-.05 7.9-2.1v-4 4q-2.2 2.05-7.9 2.1-5.65 0-8.85-2.1v-6.1m7.9-28.55l-.55-.7-1 .6 1-.6.55.7-.4-.05-1.15-.05 1.15.05.4.05 5.75-.75-5.75.75m6.15 7.2l-2.2-2.25 2.05-1.15-2.05 1.15 2.2 2.25m-7.7-7.3l-4.05 1.95 4.05-1.95q-2.2-.25-3.95-.85 1.75.6 3.95.85m-6.35 26.6q3.3 2.1 8.6 2.1h.4q5.75-.15 7.75-2.6-2 2.45-7.75 2.6h-.4q-5.3 0-8.6-2.1m1.6-1.9q2.45 1.6 7.1 1.45 4.55-.15 6.15-1.75-1.6 1.6-6.15 1.75-4.65.15-7.1-1.45" fill="#d9ddd0"/><path fill-rule="evenodd" d="M87.2 125.15l1.6 6.4L60.15 147q-1.05.2-1.35-.7v1.3h-.55l-38.7-6.8v-3.35l39.25 7.05 28.4-19.35M50.9 41.8l.25-.2q.7-1.25 2.1-2.05 1.85.95 3.45 2.65l.55.6q1.75 2 2.75 4.4l-7.05-1.55-.6-1.45 4.35-2-4.35 2-1.45-2.4m7.9 102.7v1.8-1.8" fill="#9fa392"/><path fill-rule="evenodd" d="M58.8 147.7l-.55-.1h.55v.1" fill="#a0a68e"/><path stroke-linejoin="round" d="M45.75 6.7h-.35q-8.3.5-13 5.15l-2.35 2.95m4.45 20.65l3.95-.55 3.35.4m25.55-20.15L64.3 12.5q-8.25-6.35-18.55-5.8M29.5 4.45q-8.9 3.95-16.05 12.3l-1.15 1.4M29.8 4.3Q37 1.2 45.35 1l3.7.05q13.65.75 24.45 9.7m.2.2l4.35 4.1q6.6 6.95 10.2 15.4 3.8 9.05 4.2 19.9v.35q.25 10.15-2.6 18.9-2.9 8.95-9.05 16.55l-.8.9Q73.25 95 64.95 98.95L65.7 115l1.9 1.7v4.65l19.6 3.8 1.6 6.4L60.15 147l-1.35.7-.55-.1-38.7-6.8v-3.35l28.9-18.65 2.4.45v-2.05l1.6-1.9.4-12.8-4.75.35-6.85-.3q-11.45-1.45-20.8-9L15.4 88.8Q3.6 76.4 1.5 59.2q-.4-2.95-.5-6.05-.2-8.2 1.65-15.5m.05-.35q2.65-10.4 9.5-19.05m9.9 17.1l.25.1q3.05 1.35 5.05 5.15l.5-.7q1.25-1.4 2.65-2.5Q24.6 23.5 30 14.85l.05-.05M22.1 35.35q-2.75-1.1-5.65.55-3.1 1.75-5.3 6l-.3.6M24 48.4q.55-3.7 2.6-6.8M7.75 57.25l.3-4.2q.7-6.05 2.8-10.55M26.4 61.35q-1.85-3-2.4-6.55-.2-1.35-.25-2.75-.05-1.9.25-3.65M7.75 57.25Q7.4 64.9 9 70.5l.95 2.7q1.95 4.6 5.45 6.6 3.65 2.05 8.35.8l2.1-.7q5.7-2.3 11.75-9l1.45-1.6-1.5-.1q-4.05-.55-7.3-3.35l-1.7-1.6q-1.25-1.4-2.15-2.9m26.85-21.8q1.4-.85 3.5-1.25l2.55-.2 5.4-.25 1.95-.05q3.45-.25 5.05-.95 1.75-.75 2.4-2.2l.15-.35.2-2.15q-.65-10.25-7.1-17M48.05 38.6l1.35 1.3 1.5 1.9m.25-.2q.7-1.25 2.1-2.05 1.85.95 3.45 2.65m4.85-2.2l-2.25-1.9m-11.25.5l-.45-.4-1.05-.8q-2.2-1.55-4.75-2.1m10.55 8.9l.6 1.45L60 47.2q-1-2.4-2.75-4.4l-.55-.6m-4.35 2l-1.45-2.4m15 7.35q-.65-4.9-3.9-8.6l-.45-.55M60 47.2l5.9 1.95q3.6 1.45 6.35 3.25 3 2 4.9 4.5l.6.9q3 4.55 2.55 10.5M27.4 40.6l-.8 1m3.95-4.2q1.85-1.3 3.95-1.95m4.55 33.85h.35q2.35 0 4.5-.7 1.8-.65 3.4-1.8l.3-.2 1.6-1.45.85-.9q2.05-2.4 3.1-5.3 1.1-3.1 1.05-6.8v-.1q-.1-3.45-1.25-6.4m.2 46.9l.1-2.8q-2.05-.7-3.6-2-3.4-2.8-2.3-6.75l1.25-5.1m-1.1-8.8q1.65 3 1.5 6.2l-.4 2.6m26.1 7.35q1.75-2.15 2.95-4.95 2.3-5.4 2.65-10M64.5 89.95q2.4-.65 4.6-1.9 3.25-1.9 5.6-4.8M64.75 94.5l.15 3.4.05 1.05q-5.7 2.7-12.1 3.55l.1-3.45.2-6.5m14.45 28.8v4q-2.2 2.05-7.9 2.1-5.65 0-8.85-2.1v-6.1m13.7-29l.2 4.25m-6-3.8l5.75-.75m-7.3.65l1.15.05.4.05m-1.55-.1q-2.2-.25-3.95-.85M65.7 115q-1.6 1.6-6.15 1.75-4.65.15-7.1-1.45m15.15 1.4q-2 2.45-7.75 2.6h-.4q-5.3 0-8.6-2.1m7.95 29.1V147.7m0-1.4v-1.8l-39.25-7.05m67.65-12.3L58.8 144.5" stroke="#344041" stroke-linecap="round" stroke-width="2" fill="none"/><path stroke-linejoin="round" d="M32.4 11.85q3.85-.9 8-.9l4.35.25q.45-2.6 1-4.5l.5-1.7h-1.6Q36.3 5 29.1 8.05l.6 4.55 2.7-.75m-2.35 2.95q1.3 7.55 4.45 20.65m7.3-.15q1.3-15.65 2.95-24.1 10.35 1.2 18.55 8.35l4.05-4.4 1.85-1.75q3 2.35 5.8 5.45 5.2 5.75 8.25 12.5 3.6-1.1 5-.9M12.3 18.15l-.1.1q-.3.6.55 2.45l1.6-1.85Q21 11.5 29.1 8.05q-.2-3.05.4-3.6l.3-.15m43.7 6.45l.2.2M2.65 37.65l.05-.35m27.35-22.5l-.35-2.2Q20.9 15.35 14 23.05q2.45 4.3 8.1 12.3M10.85 42.5q5 2.4 13.15 5.9m2.6-6.8l-4.5-6.25m26.95-34.3q-1.5 0-2.8 3.95 12.85.45 22.95 8.4 3.15-3 4.3-2.65M12.75 20.7q-6.6 8-9.2 17.8l1.2.8q2.65-8.9 9.1-16.05l.15-.2-1.25-2.35M1.5 59.2l.65-.35Q1.8 55.7 1.8 52.4q0-7.35 1.75-13.9l-.9-.85m8.2 4.85l-6.1-3.2Q2.8 45.65 2.8 52.9q0 2.85.3 5.55l4.65-1.2m-5.6 1.6Q3.2 68.2 7.4 76.2q0-.45.85-1.4-4.2-7.4-5.15-16.35l-.95.4m7.8 14.35q4.4-3.75 16.45-11.85M24 54.8Q13.55 56 7.75 57.25m16 23.35q2.35-6.2 6.5-14.75m36.4-28.05l7.45-3.15.25-.1-.1-.25q-2.7-5.95-7.25-11.05l-3.7-3.7q-6 6.9-15.25 19.05m8.65 3.6l4.85-2.2 5.1-2.2m-9.95 4.4l-4.35 2m19.9 8.2l5.75-.05q-.1-9.7-3.65-17.8 5.5-2.2 8.9-3.2Q87.5 40.6 87.6 51.8q4.6-.55 4.85-1.45M37.55 69.2l.05 1.7q.6 15.65 1.85 23.95h.95q6.8 0 12.75-2.3l4.05-1.95 1-.6.55.7 3.95 4.95q-4.65 2.35-9.75 3.4l-8.3.8-4.35-.2.95 2.9M48.6 75.9l-4.7-7.3m4.7 7.3q5.65 8.65 9.6 14.1 4.7-2.9 8.8-7.4l2.35-2.9Q61.8 74.5 49.2 65.15m31.1 3.15l4.65 1q2.65-7.85 2.65-16.9v-.6l-9.6.55v.55l-.25 4.9q-.45 4.85-1.85 9.3-8.9-2.65-22.75-8.15M80.3 68.3l-4.4-1.2q-2.15 6.8-6.55 12.6l5.35 3.55 1.75 1.1-1.45 1.6q-4.75 5.3-10.25 8.55l-2.05 1.15 2.2 2.25m24.95-28.3l-4.9-.3q-2.8 8.2-8.5 15.05 3.8 2.2 4.35 1.8m-26.6-34l18.05.25m-32.8 42.45q-10.2-.25-18.4-5.85l-.5 2.75q8.85 6.75 19.75 7.9l-.85-4.8M9.95 73.2l-1.7 1.6q2.3 4.1 5.6 7.8 3.4 3.75 7.2 6.4.8-3.5 2.7-8.4M7.4 76.2q2.75 5.2 6.95 9.75 2.95 3.3 6.2 5.8l-.1 1.8" stroke="#344041" stroke-linecap="round" fill="none"/></svg>