<?xml version="1.0" encoding="UTF-8" standalone="no"?>
<svg id="svg4045" xmlns:inkscape="http://www.inkscape.org/namespaces/inkscape" xmlns:rdf="http://www.w3.org/1999/02/22-rdf-syntax-ns#" xmlns="http://www.w3.org/2000/svg" sodipodi:docname="fan.svg" viewBox="0 0 93.45 148.7" version="1.1" xmlns:cc="http://creativecommons.org/ns#" xmlns:dc="http://purl.org/dc/elements/1.1/" inkscape:version="0.48.2 r9819" xmlns:sodipodi="http://sodipodi.sourceforge.net/DTD/sodipodi-0.dtd">
 <metadata id="metadata4063">
  <rdf:RDF>
   <cc:Work rdf:about="">
    <dc:format>image/svg+xml</dc:format>
    <dc:type rdf:resource="http://purl.org/dc/dcmitype/StillImage"/>
    <dc:title/>
   </cc:Work>
  </rdf:RDF>
 </metadata>
 <sodipodi:namedview id="namedview4059" bordercolor="#666666" inkscape:pageshadow="2" guidetolerance="10" pagecolor="#ffffff" gridtolerance="10" inkscape:window-maximized="0" inkscape:zoom="1.5870881" objecttolerance="10" borderopacity="1" inkscape:current-layer="svg4045" inkscape:cx="46.724998" inkscape:cy="74.349998" inkscape:window-y="0" inkscape:window-x="0" inkscape:window-width="640" showgrid="false" inkscape:pageopacity="0" inkscape:window-height="480"/>
 <g id="g4047" transform="matrix(1.0, 0.0, 0.0, 1.0, -14.05, 74.2)">
  <path id="path4049" stroke="none" fill-rule="evenodd" d="M59.8-67.5q-0.55,1.9-1,4.5l-4.35-0.25q-4.15,0-8,0.9,3.85-0.9,8-0.9l4.35,0.25q0.45-2.6,1-4.5,10.3-0.55,18.55,5.8l3.05,2.65-4.05,4.4q-8.2-7.15-18.55-8.35-1.65,8.45-2.95,24.1,1.3-15.65,2.95-24.1,10.35,1.2,18.55,8.35l4.05-4.4q6.45,6.75,7.1,17l-0.2,2.15-0.15,0.35-7.45,3.15,7.45-3.15q-0.65,1.45-2.4,2.2-1.6,0.7-5.05,0.95l-1.95,0.05-5.4,0.25-2.55,0.2q-2.1,0.4-3.5,1.25,1.4-0.85,3.5-1.25l2.55-0.2,2.25,1.9-4.85,2.2,4.85-2.2,0.45,0.55q3.25,3.7,3.9,8.6l-5.9-1.95,5.9,1.95q3.6,1.45,6.35,3.25,3,2,4.9,4.5l0.6,0.9q3,4.55,2.55,10.5l-4.4-1.2q-2.15,6.8-6.55,12.6l5.35,3.55-5.35-3.55q4.4-5.8,6.55-12.6l4.4,1.2q-0.35,4.6-2.65,10-1.2,2.8-2.95,4.95-2.35,2.9-5.6,4.8-2.2,1.25-4.6,1.9l0.05,0.3,0.2,4.25,0.15,3.4,0.05,1.05,0.75,16.05,1.9,1.7v4.65l19.6,3.8-28.4,19.35-39.25-7.05,28.9-18.65,2.4,0.45v-2.05l1.6-1.9,0.4-12.8q6.4-0.85,12.1-3.55-5.7,2.7-12.1,3.55l0.1-3.45q5.1-1.05,9.75-3.4l-3.95-4.95,3.95,4.95q-4.65,2.35-9.75,3.4l0.2-6.5,0.1-2.8q-2.05-0.7-3.6-2-3.4-2.8-2.3-6.75l1.25-5.1,0.4-2.6q0.15-3.2-1.5-6.2l-0.2-0.3q-1.6,1.15-3.4,1.8-2.15,0.7-4.5,0.7h-0.35l-1.45,1.6-0.05-1.7,0.05,1.7q-6.05,6.7-11.75,9l-2.1,0.7q-4.7,1.25-8.35-0.8-3.5-2-5.45-6.6l-0.95-2.7q-1.6-5.6-1.25-13.25l0.3-4.2q0.7-6.05,2.8-10.55l0.3-0.6q2.2-4.25,5.3-6,2.9-1.65,5.65-0.55l0.25,0.1q3.05,1.35,5.05,5.15l0.5-0.7q1.25-1.4,2.65-2.5-5.95-13.9-0.55-22.55l0.05-0.05,2.35-2.95q4.7-4.65,13-5.15h0.35m-11.25,28.75q-3.15-13.1-4.45-20.65,1.3,7.55,4.45,20.65l3.95-0.55,3.35,0.4-3.35-0.4-3.95,0.55q-2.1,0.65-3.95,1.95,1.85-1.3,3.95-1.95m-10.5,12.95q-8.15-3.5-13.15-5.9,5,2.4,13.15,5.9,0.55-3.7,2.6-6.8-2.05,3.1-2.6,6.8-0.3,1.75-0.25,3.65,0.05,1.4,0.25,2.75,0.55,3.55,2.4,6.55-1.85-3-2.4-6.55-10.45,1.2-16.25,2.45,5.8-1.25,16.25-2.45-0.2-1.35-0.25-2.75-0.05-1.9,0.25-3.65m-1.9-13.05l4.5,6.25-4.5-6.25m4.3,26q-12.05,8.1-16.45,11.85,4.4-3.75,16.45-11.85,0.9,1.5,2.15,2.9l1.7,1.6-1.7-1.6q-1.25-1.4-2.15-2.9m3.85,4.5q-4.15,8.55-6.5,14.75,2.35-6.2,6.5-14.75,3.25,2.8,7.3,3.35-4.05-0.55-7.3-3.35m17.8-27.25q9.25-12.15,15.25-19.05l3.7,3.7q4.55,5.1,7.25,11.05-2.7-5.95-7.25-11.05l-3.7-3.7q-6,6.9-15.25,19.05l1.35,1.3,1.5,1.9-1.5-1.9-1.35-1.3-0.45-0.4-1.05-0.8q-2.2-1.55-4.75-2.1,2.55,0.55,4.75,2.1l1.05,0.8,0.45,0.4m3.1,3l-0.25,0.2,1.45,2.4,0.6,1.45,7.05,1.55q-1-2.4-2.75-4.4l-0.55-0.6q-1.6-1.7-3.45-2.65-1.4,0.8-2.1,2.05m-24.55,0l0.8-1-0.8,1m26.35,4.05q1.15,2.95,1.25,6.4v0.1q0.05,3.7-1.05,6.8-1.05,2.9-3.1,5.3l-0.85,0.9-1.6,1.45-0.3,0.2,0.3-0.2,1.6-1.45,0.85-0.9q2.05-2.4,3.1-5.3,1.1-3.1,1.05-6.8v-0.1q-0.1-3.45-1.25-6.4m-15.4,23.55l1.5,0.1-1.5-0.1m11.65-4.05q12.6,9.35,20.15,14.55l-2.35,2.9q-4.1,4.5-8.8,7.4-3.95-5.45-9.6-14.1,5.65,8.65,9.6,14.1,4.7-2.9,8.8-7.4l2.35-2.9q-7.55-5.2-20.15-14.55m3.95-6.2q13.85,5.5,22.75,8.15,1.4-4.45,1.85-9.3-0.45,4.85-1.85,9.3-8.9-2.65-22.75-8.15m19.1-6.55l-18.05-0.25,18.05,0.25m-21.4,66.85v6.1q3.2,2.1,8.85,2.1,5.7-0.05,7.9-2.1v-4,4q-2.2,2.05-7.9,2.1-5.65,0-8.85-2.1v-6.1m7.9-28.55l-0.55-0.7-1,0.6,1-0.6,0.55,0.7-0.4-0.05-1.15-0.05,1.15,0.05,0.4,0.05,5.75-0.75-5.75,0.75m6.15,7.2l-2.2-2.25,2.05-1.15-2.05,1.15,2.2,2.25m-7.7-7.3l-4.05,1.95,4.05-1.95q-2.2-0.25-3.95-0.85,1.75,0.6,3.95,0.85m-6.35,26.6q3.3,2.1,8.6,2.1h0.4q5.75-0.15,7.75-2.6-2,2.45-7.75,2.6h-0.4q-5.3,0-8.6-2.1m1.6-1.9q2.45,1.6,7.1,1.45,4.55-0.15,6.15-1.75-1.6,1.6-6.15,1.75-4.65,0.15-7.1-1.45" fill="#d9ddd0"/>
  <path id="path4051" stroke="none" fill-rule="evenodd" d="M101.25,50.95l1.6,6.4-28.65,15.45q-1.05,0.2-1.35-0.7v1.3h-0.55l-38.7-6.8v-3.35l39.25,7.05,28.4-19.35m-36.3-83.35l0.25-0.2q0.7-1.25,2.1-2.05,1.85,0.95,3.45,2.65l0.55,0.6q1.75,2,2.75,4.4l-7.05-1.55-0.6-1.45,4.35-2-4.35,2-1.45-2.4m7.9,102.7v1.8-1.8" fill="#9fa392"/>
  <path id="path4053" stroke="none" fill-rule="evenodd" d="M72.85,73.5l-0.55-0.1h0.55v0.1" fill="#a0a68e"/>
  <path id="path4055" stroke-linejoin="round" d="M59.8-67.5h-0.35q-8.3,0.5-13,5.15l-2.35,2.95m4.45,20.65l3.95-0.55,3.35,0.4m25.55-20.15l-3.05-2.65q-8.25-6.35-18.55-5.8m-16.25-2.25q-8.9,3.95-16.05,12.3l-1.15,1.4m17.5-13.85q7.2-3.1,15.55-3.3l3.7,0.05q13.65,0.75,24.45,9.7m0.2,0.2l4.35,4.1q6.6,6.95,10.2,15.4,3.8,9.05,4.2,19.9v0.35q0.25,10.15-2.6,18.9-2.9,8.95-9.05,16.55l-0.8,0.9q-6.75,7.95-15.05,11.9l0.75,16.05,1.9,1.7v4.65l19.6,3.8,1.6,6.4-28.65,15.45-1.35,0.7-0.55-0.1-38.7-6.8v-3.35l28.9-18.65,2.4,0.45v-2.05l1.6-1.9,0.4-12.8-4.75,0.35-6.85-0.3q-11.45-1.45-20.8-9l-5.05-4.75q-11.8-12.4-13.9-29.6-0.4-2.95-0.5-6.05-0.2-8.2,1.65-15.5m0.05-0.35q2.65-10.4,9.5-19.05m9.9,17.1l0.25,0.1q3.05,1.35,5.05,5.15l0.5-0.7q1.25-1.4,2.65-2.5-5.95-13.9-0.55-22.55l0.05-0.05m-7.95,20.55q-2.75-1.1-5.65,0.55-3.1,1.75-5.3,6l-0.3,0.6m13.15,5.9q0.55-3.7,2.6-6.8m-18.85,15.65l0.3-4.2q0.7-6.05,2.8-10.55m15.55,18.85q-1.85-3-2.4-6.55-0.2-1.35-0.25-2.75-0.05-1.9,0.25-3.65m-16.25,8.85q-0.35,7.65,1.25,13.25l0.95,2.7q1.95,4.6,5.45,6.6,3.65,2.05,8.35,0.8l2.1-0.7q5.7-2.3,11.75-9l1.45-1.6-1.5-0.1q-4.05-0.55-7.3-3.35l-1.7-1.6q-1.25-1.4-2.15-2.9m26.85-21.8q1.4-0.85,3.5-1.25l2.55-0.2,5.4-0.25,1.95-0.05q3.45-0.25,5.05-0.95,1.75-0.75,2.4-2.2l0.15-0.35,0.2-2.15q-0.65-10.25-7.1-17m-19.3,23.45l1.35,1.3,1.5,1.9m0.25-0.2q0.7-1.25,2.1-2.05,1.85,0.95,3.45,2.65m4.85-2.2l-2.25-1.9m-11.25,0.5l-0.45-0.4-1.05-0.8q-2.2-1.55-4.75-2.1m10.55,8.9l0.6,1.45,7.05,1.55q-1-2.4-2.75-4.4l-0.55-0.6m-4.35,2l-1.45-2.4m15,7.35q-0.65-4.9-3.9-8.6l-0.45-0.55m-1.55,7.2l5.9,1.95q3.6,1.45,6.35,3.25,3,2,4.9,4.5l0.6,0.9q3,4.55,2.55,10.5m-52.9-27.7l-0.8,1m3.95-4.2q1.85-1.3,3.95-1.95m4.55,33.85h0.35q2.35,0,4.5-0.7,1.8-0.65,3.4-1.8l0.3-0.2,1.6-1.45,0.85-0.9q2.05-2.4,3.1-5.3,1.1-3.1,1.05-6.8v-0.1q-0.1-3.45-1.25-6.4m0.2,46.9l0.1-2.8q-2.05-0.7-3.6-2-3.4-2.8-2.3-6.75l1.25-5.1m-1.1-8.8q1.65,3,1.5,6.2l-0.4,2.6m26.1,7.35q1.75-2.15,2.95-4.95,2.3-5.4,2.65-10m-15.8,21.65q2.4-0.65,4.6-1.9,3.25-1.9,5.6-4.8m-9.95,11.25l0.15,3.4,0.05,1.05q-5.7,2.7-12.1,3.55l0.1-3.45,0.2-6.5m14.45,28.8v4q-2.2,2.05-7.9,2.1-5.65,0-8.85-2.1v-6.1m13.7-29l0.2,4.25m-6-3.8l5.75-0.75m-7.3,0.65l1.15,0.05,0.4,0.05m-1.55-0.1q-2.2-0.25-3.95-0.85m12.45,25.25q-1.6,1.6-6.15,1.75-4.65,0.15-7.1-1.45m15.15,1.4q-2,2.45-7.75,2.6h-0.4q-5.3,0-8.6-2.1m7.95,29.1v1.3,0.1m0-1.4v-1.8l-39.25-7.05m67.65-12.3l-28.4,19.35" stroke="#344041" stroke-linecap="round" stroke-width="2.0" fill="none"/>
  <path id="path4057" stroke-linejoin="round" d="M46.45-62.35q3.85-0.9,8-0.9l4.35,0.25q0.45-2.6,1-4.5l0.5-1.7h-1.6q-8.35,0-15.55,3.05l0.6,4.55,2.7-0.75m-2.35,2.95q1.3,7.55,4.45,20.65m7.3-0.15q1.3-15.65,2.95-24.1,10.35,1.2,18.55,8.35l4.05-4.4,1.85-1.75q3,2.35,5.8,5.45,5.2,5.75,8.25,12.5,3.6-1.1,5-0.9m-75.95-12.3l-0.1,0.1q-0.3,0.6,0.55,2.45l1.6-1.85q6.65-7.35,14.75-10.8-0.2-3.05,0.4-3.6l0.3-0.15m43.7,6.45l0.2,0.2m-71.05,26.7l0.05-0.35m27.35-22.5l-0.35-2.2q-8.8,2.75-15.7,10.45,2.45,4.3,8.1,12.3m-11.25,7.15q5,2.4,13.15,5.9m2.6-6.8l-4.5-6.25m26.95-34.3q-1.5,0-2.8,3.95,12.85,0.45,22.95,8.4,3.15-3,4.3-2.65m-60.75,9.95q-6.6,8-9.2,17.8l1.2,0.8q2.65-8.9,9.1-16.05l0.15-0.2-1.25-2.35m-11.25,38.5l0.65-0.35q-0.35-3.15-0.35-6.45,0-7.35,1.75-13.9l-0.9-0.85m8.2,4.85l-6.1-3.2q-1.95,6.35-1.95,13.6,0,2.85,0.3,5.55l4.65-1.2m-5.6,1.6q1.05,9.35,5.25,17.35,0-0.45,0.85-1.4-4.2-7.4-5.15-16.35l-0.95,0.4m7.8,14.35q4.4-3.75,16.45-11.85m-2.4-6.55q-10.45,1.2-16.25,2.45m16,23.35q2.35-6.2,6.5-14.75m36.4-28.05l7.45-3.15,0.25-0.1-0.1-0.25q-2.7-5.95-7.25-11.05l-3.7-3.7q-6,6.9-15.25,19.05m8.65,3.6l4.85-2.2,5.1-2.2m-9.95,4.4l-4.35,2m19.9,8.2l5.75-0.05q-0.1-9.7-3.65-17.8,5.5-2.2,8.9-3.2,4.25,9.25,4.35,20.45,4.6-0.55,4.85-1.45m-54.9,18.85l0.05,1.7q0.6,15.65,1.85,23.95h0.95q6.8,0,12.75-2.3l4.05-1.95,1-0.6,0.55,0.7,3.95,4.95q-4.65,2.35-9.75,3.4l-8.3,0.8-4.35-0.2,0.95,2.9m7.35-26.65l-4.7-7.3m4.7,7.3q5.65,8.65,9.6,14.1,4.7-2.9,8.8-7.4l2.35-2.9q-7.55-5.2-20.15-14.55m31.1,3.15l4.65,1q2.65-7.85,2.65-16.9v-0.6l-9.6,0.55v0.55l-0.25,4.9q-0.45,4.85-1.85,9.3-8.9-2.65-22.75-8.15m27.15,9.35l-4.4-1.2q-2.15,6.8-6.55,12.6l5.35,3.55,1.75,1.1-1.45,1.6q-4.75,5.3-10.25,8.55l-2.05,1.15,2.2,2.25m24.95-28.3l-4.9-0.3q-2.8,8.2-8.5,15.05,3.8,2.2,4.35,1.8m-26.6-34l18.05,0.25m-32.8,42.45q-10.2-0.25-18.4-5.85l-0.5,2.75q8.85,6.75,19.75,7.9l-0.85-4.8m-29.5-21.65l-1.7,1.6q2.3,4.1,5.6,7.8,3.4,3.75,7.2,6.4,0.8-3.5,2.7-8.4m-16.35-4.4q2.75,5.2,6.95,9.75,2.95,3.3,6.2,5.8l-0.1,1.8" stroke="#344041" stroke-linecap="round" stroke-width="1.0" fill="none"/>
 </g>
</svg>
