<?xml version="1.0" encoding="utf-8"?>
<!-- Generator: Adobe Illustrator 16.0.0, SVG Export Plug-In . SVG Version: 6.00 Build 0)  -->
<!DOCTYPE svg PUBLIC "-//W3C//DTD SVG 1.1//EN" "http://www.w3.org/Graphics/SVG/1.1/DTD/svg11.dtd">
<svg version="1.1" id="Layer_1" xmlns="http://www.w3.org/2000/svg" xmlns:xlink="http://www.w3.org/1999/xlink" x="0px" y="0px"
	 width="285px" height="427px" viewBox="0 0 285 427" enable-background="new 0 0 285 427" xml:space="preserve">
<g transform="matrix( 1, 0, 0, 1, 0,0) ">
	<g>
		<g id="Layer0_0_FILL">
			<path fill="#E4B092" d="M30.235,211.31c-1.386-0.594-3.643-2.653-6.771-6.177c-2.93-3.366-5.603-5.405-8.019-6.118
				c-3.445,0.871-6.256,5.167-8.434,12.889c-1.901,6.85-3.049,15.264-3.446,25.244c-0.316,9.543,0.099,18.097,1.248,25.659
				c1.227,8.038,3.048,12.811,5.464,14.314c12.196,11.246,20.354,20.037,24.471,26.373l3.98-2.495
				c0.515-7.998-0.812-25.699-3.98-53.101c-2.177-12.949-3.484-21.442-3.92-25.481c-0.08-1.108-0.198-1.96-0.356-2.554
				c0.039-0.159,0.02-0.437-0.06-0.832L30.235,211.31 M143.031,203.647c-3.881,7.167-9.048,14.513-15.503,22.036
				c-5.147,10.058-8.771,19.581-10.87,28.569c-1.307,5.228-2.217,10.891-2.732,16.989c5.663,2.375,10.018,7.364,13.067,14.967
				C141.011,264.51,146.357,236.988,143.031,203.647z"/>
			<path fill="#D2997D" d="M128.122,148.408c-6.89-3.564-11.82-8.87-14.79-15.918l-0.297,9.623
				C116.758,145.002,121.787,147.101,128.122,148.408 M82.564,136.351c-1.228,6.177-4.672,10.454-10.335,12.83v3.564
				c3.247-3.801,7.603-7.623,13.067-11.464C83.634,142.151,82.723,140.508,82.564,136.351 M104.601,140.746l6.474-0.475
				c-2.296-6.969-3.267-12.474-2.91-16.512c-1.742,9.939-5.939,14.691-12.592,14.255c-2.455-0.159-5.326-0.416-8.612-0.772
				c-0.356,1.425-0.911,2.772-1.663,4.039c3.167-0.673,5.999-1.089,8.494-1.247c2.495-0.238,4.712-0.257,6.652-0.06
				C102.027,140.092,103.413,140.35,104.601,140.746 M59.756,155.12c-1.663,4.039-5.128,7.405-10.395,10.098l3.623,5.524
				c2.06-3.999,5.92-7.642,11.583-10.929C60.845,159.178,59.241,157.615,59.756,155.12 M255.054,172.286l-3.86,3.801
				c1.227,4.118,2.91,6.732,5.048,7.84c-0.831-1.821-1.346-3.722-1.544-5.702C254.578,176.246,254.697,174.266,255.054,172.286
				 M244.956,152.744l-6.354,9.087c0.751,3.287,2.869,6.256,6.354,8.91C243.096,163.574,243.096,157.575,244.956,152.744
				 M211.041,114.017l-10.098,19.72c-3.564,7.722-6.831,9.385-9.801,4.99c-3.881,3.841-8.296,6.593-13.246,8.256
				c11.761-2.574,20.473-3.663,26.135-3.267c1.188-11.206,6.257-15.978,15.205-14.314
				C212.862,127.381,210.13,122.253,211.041,114.017z"/>
			<path fill="#EBC6AF" d="M84.287,118.175c0.475,0.871,0.97,1.742,1.485,2.614c2.178,6.256,2.574,11.741,1.188,16.453
				c3.287,0.356,6.157,0.613,8.612,0.772c6.653,0.436,10.85-4.316,12.592-14.255c0.159-2.376,0.812-4.277,1.96-5.702
				c4.039-6.574,3.267-13.819-2.316-21.74c-7.642-3.643-14.671-2.138-21.086,4.515C82.525,106.414,81.713,112.195,84.287,118.175
				 M26.019,170.504c0.317,5.899,3.049,10.533,8.197,13.898c6.335-0.911,10.573-2.534,12.71-4.87
				c2.456-2.812,3.267-7.583,2.436-14.315c-4.871-5.266-9.761-7.84-14.671-7.722C28.592,159.951,25.701,164.287,26.019,170.504
				 M58.984,137.182c1.228,1.664,2.277,3.267,3.148,4.812c4.435,7.524,5.247,13.464,2.435,17.819
				c-5.663,3.287-9.523,6.93-11.583,10.929l-3.623-5.524c0.832,6.731,0.02,11.503-2.436,14.315c-2.138,2.336-6.375,3.959-12.71,4.87
				c-1.505,6.099-2.574,11.167-3.208,15.206c-0.594,4.197-0.852,8.098-0.772,11.701l0.178,7.722c0.08,0.396,0.099,0.673,0.06,0.832
				c0.158,0.594,0.276,1.445,0.356,2.554c0.436,4.039,1.743,12.532,3.92,25.481c3.168,27.401,4.495,45.103,3.98,53.101
				c-0.237,3.169-0.237,6.218,0,9.147c1.307,14.453,8.672,26.233,22.096,35.342c17.423,7.681,32.768,7.681,46.033,0
				c7.484-5.387,10.75-16.256,9.8-32.609c-0.356-6.811-1.445-14.572-3.267-23.284c-0.158-6.494,0.02-12.611,0.535-18.353
				c0.515-6.099,1.425-11.762,2.732-16.989c2.099-8.988,5.722-18.512,10.87-28.569c6.455-7.523,11.622-14.869,15.503-22.036
				c2.85-5.068,5.049-10.117,6.593-15.146c3.92-12.473,3.96-24.571,0.118-36.292c5.86-15.839,7.801-29.936,5.821-42.291
				c-0.158-0.832-0.297-1.644-0.415-2.436c-2.061-9.305-6.197-16.493-12.415-21.561c-6.257-4.989-12.85-6.573-19.78-4.752
				c-7.246,1.821-12.294,6.87-15.146,15.146c5.583,7.92,6.355,15.166,2.316,21.74c0.356,5.464,1.426,10.276,3.208,14.434
				c2.97,7.048,7.899,12.354,14.79,15.918c0.673,0.316,1.386,0.653,2.139,1.01c3.326,1.425,7.563,2.653,12.71,3.683
				c-5.147-1.029-9.385-2.257-12.71-3.683c-0.752-0.357-1.465-0.693-2.139-1.01c-6.335-1.307-11.364-3.406-15.087-6.296
				c-0.752-0.555-1.406-1.168-1.96-1.842l-6.474,0.475c-1.188-0.396-2.574-0.653-4.158-0.772c-1.94-0.198-4.158-0.178-6.652,0.06
				c-2.495,0.158-5.326,0.574-8.494,1.247c-5.465,3.841-9.82,7.663-13.067,11.464v-3.564c5.663-2.376,9.107-6.653,10.335-12.83
				c0.356-3.366-0.04-7.266-1.188-11.701c-0.436-1.624-0.931-3.109-1.485-4.455c-3.445-9.306-8.711-11.682-15.799-7.127
				C56.054,118.293,54.351,126.332,58.984,137.182 M49.361,165.217c5.267-2.692,8.732-6.059,10.395-10.098
				c0.079-0.356,0.178-0.732,0.297-1.128c1.029-3.524,0.594-6.91-1.307-10.157c-0.673-1.069-1.465-2.138-2.376-3.207
				c-7.88-8.554-14.532-7.9-19.957,1.96c-1.228,2.217-2.059,4.692-2.495,7.424c-0.515,3.168-0.258,5.663,0.772,7.484
				C39.601,157.377,44.491,159.951,49.361,165.217 M259.688,141.221c-3.01,5.781-7.92,9.622-14.731,11.523
				c-1.86,4.831-1.86,10.83,0,17.997l6.237,5.346l3.86-3.801c7.563,0.356,13.858-3.128,18.889-10.454
				C277.625,145.28,272.873,138.41,259.688,141.221 M237.531,101.9c-8.513-6.653-15.76-5.663-21.739,2.97l-4.751,9.147
				c-0.911,8.236,1.821,13.364,8.195,15.384c-8.948-1.663-14.018,3.108-15.205,14.314c-5.662-0.396-14.374,0.693-26.135,3.267
				c-5.741,2.059-12.196,2.633-19.363,1.723c7.167,0.911,13.622,0.336,19.363-1.723c4.95-1.663,9.365-4.415,13.246-8.256
				c3.088-3.049,5.841-6.712,8.257-10.989c4.038-7.247,7.187-16.294,9.442-27.145c0.595-8.672-2.612-15.681-9.621-21.027
				c-12.236-5.741-21.918-3.9-29.046,5.524l-15.026,22.393c0.118,0.792,0.257,1.604,0.415,2.436
				c1.979,12.354,0.039,26.451-5.821,42.291c3.842,11.721,3.802,23.818-0.118,36.292c-1.544,5.029-3.743,10.078-6.593,15.146
				c3.326,33.341-2.02,60.862-16.038,82.562c-1.544,3.881-3.228,7.683-5.049,11.404c-1.109,5.505-1.624,10.514-1.544,15.027
				c0.356,19.681,12.058,30.728,35.104,33.145c24.115,2.138,39.52-8.909,46.211-33.145c10.098-27.759,25.204-50.645,45.32-68.662
				c17.265-11.484,25.521-26.512,24.768-45.083c12.276-18.413,12.989-30.768,2.14-37.064c-5.03,7.326-11.325,10.811-18.889,10.454
				c-0.356,1.98-0.476,3.96-0.356,5.94c0.198,1.979,0.713,3.88,1.544,5.702c0.95,2.257,2.337,4.435,4.158,6.534
				c1.86,2.02,4.158,4,6.89,5.94c-2.731-1.94-5.029-3.92-6.89-5.94c-1.821-2.099-3.208-4.276-4.158-6.534
				c-2.138-1.108-3.821-3.722-5.048-7.84l-6.237-5.346c-3.485-2.653-5.604-5.623-6.354-8.91l6.354-9.087
				c6.812-1.901,11.722-5.742,14.731-11.523c3.285-15.839-1.803-23.105-15.266-21.799c-2.218,5.94-6.693,10.216-13.424,12.83
				c-0.95,6.771-3.346,12.176-7.188,16.215c-5.939-3.92-3.544-9.325,7.188-16.215c6.73-2.613,11.206-6.89,13.424-12.83
				C246.679,111.78,244.382,105.939,237.531,101.9z"/>
		</g>
	</g>
	<g>
		<path id="Layer0_0_1_STROKES" fill="none" stroke="#000000" stroke-width="2" stroke-linecap="round" stroke-linejoin="round" d="
			M211.041,114.017l4.751-9.147c5.979-8.632,13.227-9.623,21.739-2.97c6.851,4.039,9.147,9.879,6.891,17.522
			c13.463-1.307,18.551,5.959,15.266,21.799c13.186-2.812,17.938,4.059,14.255,20.61c10.85,6.296,10.137,18.651-2.14,37.064
			c0.753,18.571-7.503,33.599-24.768,45.083c-20.116,18.018-35.223,40.903-45.32,68.662c-6.691,24.235-22.096,35.282-46.211,33.145
			c-23.046-2.417-34.747-13.464-35.104-33.145c-0.079-4.514,0.436-9.522,1.544-15.027c1.821-3.722,3.504-7.523,5.049-11.404
			c-3.049-7.603-7.405-12.592-13.067-14.967c-0.515,5.741-0.693,11.858-0.535,18.353c1.821,8.712,2.911,16.474,3.267,23.284
			c0.95,16.354-2.316,27.223-9.8,32.609c-13.265,7.681-28.61,7.681-46.033,0c-13.424-9.108-20.789-20.889-22.096-35.342
			c-1.267-2.336-2.594-4.555-3.98-6.652c-4.118-6.336-12.275-15.127-24.471-26.373 M15.445,199.015
			c2.416,0.713,5.089,2.751,8.019,6.118c3.128,3.524,5.386,5.583,6.771,6.177c-0.079-3.604,0.178-7.504,0.772-11.701
			c0.633-4.039,1.703-9.107,3.208-15.206c-5.148-3.365-7.88-7.999-8.197-13.898c-0.317-6.217,2.574-10.553,8.672-13.008
			c-1.03-1.821-1.287-4.316-0.772-7.484c0.436-2.732,1.267-5.207,2.495-7.424c5.425-9.86,12.077-10.514,19.957-1.96
			c0.911,1.069,1.703,2.138,2.376,3.207c1.901,3.247,2.336,6.633,1.307,10.157c-0.119,0.396-0.218,0.772-0.297,1.128
			c-0.515,2.495,1.089,4.059,4.811,4.693c2.812-4.355,2-10.295-2.435-17.819c-0.871-1.544-1.92-3.148-3.148-4.812
			c-4.633-10.85-2.93-18.888,5.108-24.115c7.088-4.554,12.354-2.178,15.799,7.127c0.555,1.346,1.049,2.831,1.485,4.455
			c1.148,4.435,1.544,8.335,1.188,11.701c0.158,4.158,1.069,5.801,2.732,4.93c0.752-1.267,1.307-2.614,1.663-4.039
			c1.386-4.712,0.99-10.197-1.188-16.453c-0.515-0.872-1.01-1.743-1.485-2.614c-2.574-5.979-1.762-11.761,2.435-17.344
			c6.415-6.652,13.444-8.157,21.086-4.515c2.852-8.276,7.9-13.325,15.146-15.146c6.93-1.821,13.523-0.237,19.78,4.752
			c6.217,5.068,10.354,12.256,12.415,21.561l15.026-22.393c7.128-9.424,16.81-11.266,29.046-5.524
			c7.009,5.346,10.216,12.355,9.621,21.027c-2.256,10.85-5.404,19.898-9.442,27.145c-2.416,4.277-5.169,7.939-8.257,10.989
			c2.97,4.395,6.236,2.732,9.801-4.99l10.098-19.72 M244.422,119.422c-2.218,5.94-6.693,10.216-13.424,12.83
			c-0.95,6.771-3.346,12.176-7.188,16.215c-5.939-3.92-3.544-9.325,7.188-16.215 M238.602,161.832l6.354-9.087
			c6.812-1.901,11.722-5.742,14.731-11.523 M255.054,172.286c7.563,0.356,13.858-3.128,18.889-10.454 M49.361,165.217
			c-4.871-5.266-9.761-7.84-14.671-7.722 M143.031,203.647c2.85-5.068,5.049-10.117,6.593-15.146
			c3.92-12.473,3.96-24.571,0.118-36.292c5.86-15.839,7.801-29.936,5.821-42.291c-0.158-0.832-0.297-1.644-0.415-2.436
			 M107.808,96.316c5.583,7.92,6.355,15.166,2.316,21.74c0.356,5.464,1.426,10.276,3.208,14.434 M110.125,118.056
			c-1.148,1.425-1.801,3.326-1.96,5.702c-0.356,4.039,0.614,9.543,2.91,16.512c0.555,0.673,1.208,1.287,1.96,1.842l0.297-9.623
			 M113.926,271.242c0.515-6.099,1.425-11.762,2.732-16.989c2.099-8.988,5.722-18.512,10.87-28.569
			c6.455-7.523,11.622-14.869,15.503-22.036c3.326,33.341-2.02,60.862-16.038,82.562 M30.235,211.31l0.178,7.722
			c0.08,0.396,0.099,0.673,0.06,0.832c0.158,0.594,0.276,1.445,0.356,2.554c0.436,4.039,1.743,12.532,3.92,25.481
			c3.168,27.401,4.495,45.103,3.98,53.101c-0.237,3.169-0.237,6.218,0,9.147"/>
	</g>
	<g>
		<path id="Layer0_0_2_STROKES" fill="none" stroke="#000000" stroke-linecap="round" stroke-linejoin="round" d="M204.031,143.715
			c-5.662-0.396-14.374,0.693-26.135,3.267c-5.741,2.059-12.196,2.633-19.363,1.723 M177.896,146.982
			c4.95-1.663,9.365-4.415,13.246-8.256 M256.241,183.927c-0.831-1.821-1.346-3.722-1.544-5.702c-0.119-1.98,0-3.96,0.356-5.94
			 M267.289,196.401c-2.731-1.94-5.029-3.92-6.89-5.94c-1.821-2.099-3.208-4.276-4.158-6.534 M251.193,176.087l-6.237-5.346
			c-3.485-2.653-5.604-5.623-6.354-8.91 M59.756,155.12c-1.663,4.039-5.128,7.405-10.395,10.098 M64.567,159.813
			c-5.663,3.287-9.523,6.93-11.583,10.929 M49.361,165.217c0.832,6.731,0.02,11.503-2.436,14.315
			c-2.138,2.336-6.375,3.959-12.71,4.87 M113.333,132.49c2.97,7.048,7.899,12.354,14.79,15.918c0.673,0.316,1.386,0.653,2.139,1.01
			c3.326,1.425,7.563,2.653,12.71,3.683 M85.297,141.28c3.167-0.673,5.999-1.089,8.494-1.247c2.495-0.238,4.712-0.257,6.652-0.06
			c1.584,0.119,2.97,0.376,4.158,0.772 M72.229,149.18c5.663-2.376,9.107-6.653,10.335-12.83"/>
	</g>
</g>
</svg>
