<svg xmlns="http://www.w3.org/2000/svg" width="900" height="450" viewBox="0 0 900 450"><g transform="translate(-4.85 53.35)"><path fill="#EEEEF2" d="M129.505 3.631c.745-5.878 2.18-11.518 4.304-16.918l2.125-.891.561.101 4.323-1.538 10.569-2.847 2.313.646-3.418 1.006-16.901 6.568c4.434 3.647 11.445 11.84 21.032 24.581l12.873 18.494-37.781-29.202 37.778 29.201-12.873-18.494c-9.587-12.741-16.598-20.934-21.032-24.581l16.901-6.568 3.418-1.006 4.984 2.511 27.117 11.913-2.268.403c-2.93.862-5.141 2.663-6.634 5.401-1.656 2.787-2.052 5.645-1.189 8.574.7 2.977 2.395 5.131 5.085 6.461 2.366 1.427 5.013 1.708 7.942.845s5.222-2.687 6.877-5.474c1.492-2.738 1.808-5.572.945-8.502L194.917.553c107.8 48.377 204.705 99.696 290.715 153.958 97.674 61.438 147.714 93.838 150.118 97.197 2.824 3.591 7.589 7.758 14.292 12.505l11.663 7.177 5.816 1.737.317.172c2.278-.671 3.781-.671 4.509-.001 1.197 1.062.739 3.408-1.377 7.037l-.589.703-.616 1.508-5.527 8.26c-3.646 4.435-6.613 6.37-8.901 5.805l-.646 2.313-2.011 2.183c-1.091.498-2.13.273-3.116-.674l-1.379 2.527-3.733.835-2.513.475-4.022-9.161c-2.637-5.945-6.189-10.205-10.661-12.779l-10.901-3.688c-8.341-2.496-14.841-3.854-19.504-4.074l-20.623-4.273c-10.907-2.803-17.411-4.776-19.519-5.925l-1.869-1.839-29.557-6.684c-33.693-8.119-66.593-17.445-98.698-27.977l-61.286-22.544-25.565-10.247-7.684-3.574-4.912-2.268-15.125-7.22c-18.136-9.339-37.508-20.171-58.116-32.497-46.652-28.709-80.769-57.485-102.348-86.326-16.021-21.986-23.37-41.841-22.044-59.563m166.226 83.436l-.977.288c-2.393.881-4.141.954-5.242.216l-8.674-.629-12.293 1.497-8.862-2.166-1.752-.545-1.924-.229-4.51.001-.904.532-2.254 2.255-1.348 6.233-1.649 7.914c-.316 1.331-1.967 3.231-4.954 5.703-.478 1.379.528 3.293 3.018 5.744l7.871 5.11 2.342 4.351c.24.813.747 1.636 1.523 2.469l5.215 5.097 1.335.932 1.509.618 1.623 1.909c4.845 2.641 10.475 1.338 16.888-3.911l1.909-1.624 3.03-1.422 6.317-5.574.833-.775-.517.948.517-.948 1.593-1.795 2.728-4.252 4.378-7.656 1.95-9.594.201-1.12.273-.876c1.493-2.739 1.617-4.721.372-5.946l-.403-2.27 4.021.143c-2.208 12.322-6.714 22.846-13.52 31.57 6.805-8.724 11.312-19.248 13.52-31.57l-4.021-.143c-.69-1.742-2.059-2.488-4.107-2.239l-5.055 1.754-37.8-1.339 37.8 1.339M192.064 10.679c.804-1.474.943-3.107.416-4.897-.412-2-1.462-3.46-3.147-4.378-1.637-.756-3.351-.871-5.141-.344l-4.207 2.831L184.293.5c1.953-.576 3.748-.485 5.385.271 1.686.918 2.653 2.402 2.902 4.451.623 2.116.451 3.935-.516 5.457m101.221 111.329l-.316-.173.316.173c-7.619 8.963-16.598 13.906-26.938 14.828l-5.99-5.929 5.99 5.929c10.34-.921 19.319-5.865 26.938-14.828m-38.143 3.802l-11.736-11.931 11.736 11.931m-83.598-58.685c29.809 14.746 48.043.092 54.704-43.961-6.661 44.052-24.896 58.707-54.704 43.961m31.845 21.662c18.191 1.719 29.681-12.718 34.469-43.309-4.789 30.591-16.278 45.027-34.469 43.309M637.64 277.946l-.244.071-1.493 1.236 3.103 3.331.015-2.656-1.381-1.982"/><linearGradient id="a" gradientUnits="userSpaceOnUse" x1="364.298" y1="171.21" x2="654.636" y2="171.21" gradientTransform="rotate(-16.403 455.975 169.988)"><stop offset="0" stop-color="#ebebf1"/><stop offset=".847" stop-color="#97b08c"/></linearGradient><path fill="url(#a)" d="M178.139-21.3l14.247-2.071c5.917-.328 10.651.136 14.203 1.389 5.39-2.117 13.083-1.817 23.079.898l10.241 4.147 15.368 2.638.804.028 19.591 6.17 17.148 6.888 16.158 5.323c4.778 3.015 12.827 6.923 24.145 11.727l20.597 9.587 14.12 8.312c2.997 1.771 5.99 2.923 8.977 3.458l9.452 5.972.315.172 2.427 1.938 5.832 3.588-35.808-18.903c-54.686-27.76-97.65-43.938-128.892-48.534-18.901-2.922-36.235-3.832-52.004-2.727 15.769-1.105 33.103-.195 52.003 2.729 31.242 4.596 74.206 20.774 128.892 48.534l35.808 18.903 5.099 3.805 13.56 8.21 5.299 2.685 6.852 4.35 1.795 1.593.704.588 3.821 1.263 7.067 5.083.804.028 2.672 1.866 4.208 1.679 4.969.659c4.012 3.417 9.414 7.043 16.202 10.881l3.017 1.234 1.308 1.738 6.766 6.763c4.74 4.086 10.74 8.245 17.998 12.474l6.779 4.106 7.397 2.597 6.178 7.467 17.381 13.982 1.867 1.838 7.512 3.889 16.521 15.563 10.844 9.805 2.112 1.767 5.918 5.686 3.735 3.674 2.744 2.111 1.191.445c10.399 6.488 17.778 12.628 22.136 18.419l2.945 5.5 16.249 16.439 8.964 10.624 3.432.846 3.246 3.82 7.743 6.475 14.923 3.829c2.584-.229 4.184.096 4.797.977l2.241.4.315.174.172-.317c1.377-2.527 4.01-4.099 7.897-4.713l.732-.216.66-.459 6.419-1.625c1.398-.058 2.704.176 3.921.704l3.519-1.567 4.007-1.71 7.466-1.667 1.682.301 9.319-1.684 1.221-.359c3.763-1.639 8.989-2.204 15.683-1.698l.243-.072c7.555.429 14.31 1.446 20.265 3.052 4.156.9 6.511 2.595 7.067 5.083l-2.784 5.86 2.784-5.86c.479 1.627.03 3.705-1.348 6.233l-3.23 2.542-.102.561-.243.071-.317-.172-4.679 9.337-4.621 7.728-2.656 4.495-.085 2.414-.646 2.311-6.173 10.572-.688 1.265-4.35 6.851-4.349 6.853-6.519 11.203-4.276 7.097-7.71 10.759-1.35 1.723-1.722 3.159-7.593 12.051-.531 3.606-2.699 3.446-40.945-57.979 40.945 57.979-4.265 4.439-5.727 9.381c-4.27 5.323-8.51 6.837-12.724 4.541-3.418-2-6.473-5.169-9.165-9.505l-3.161-6.231-1.854-4.494c-1.293-4.396-1.447-7.622-.462-9.681-2.978-2.307-5.785-6.432-8.419-12.376l-3.563-8.503-3.19-9.936c-1.792-5.486-2.401-8.755-1.827-9.808 1.033-1.897 3.297-2.917 6.792-3.063l.244-.071 6.376-2.673 2.282-3.06 1.693-2.355 6.36-9.035-6.36 9.035 3.732-5.344 2.628-3.691 1.45-2.283 1.061-2.701 2.698-7.957.861-1.579-.072-.245.172-.316 1.479-3.087-1.077.848-2.153 1.695c-.728-.67-2.23-.67-4.509.001l-.317-.172-5.816-1.737-11.663-7.177c-6.704-4.747-11.468-8.914-14.292-12.505-2.404-3.359-52.444-35.76-150.118-97.197C399.624 100.25 302.719 48.93 194.919.554l-3.203-2.771c-1.896-1.033-3.869-1.426-5.918-1.176l-27.117-11.913c2.68-2.911 7.562-4.348 14.647-4.313l1.637-.747 3.174-.934m300.846 122.591l-32.261-21.275 32.261 21.275m92.477 71.721l-34.877-29.257-26.66-20.271-12.942-9.719 12.942 9.719 26.66 20.271 34.877 29.257m95.339 79.635l-5.758 1.165c-6.233 1.659-21.46-11.013-45.68-38.014l-29.392-29.549 29.392 29.549c24.22 27.001 39.446 39.673 45.68 38.014l5.758-1.165m7.254 6.619l-2.457-5.643 2.457 5.643 87.588-6.156-87.588 6.156c1.149 3.906 1.299 8.018.448 12.337.851-4.319.701-8.431-.448-12.337m-.053 15.138l-2.181 7.009-1.379 2.527 1.379-2.527 2.181-7.009m-9.428 22.937l44.791 44.908-44.791-44.908m20.385 79.154l-33.983-70.376 33.983 70.376m-32.194-39.068l-6.754-18.438 6.754 18.438m13.896 32.783l-5.016-10.726 5.016 10.726m1.774-79.578l51.711 35.977-51.711-35.977m93.208-37.522l-1.795 2.916 1.795-2.916m-84.627 13.508l72.87 6.932-72.87-6.932m-2.914 7.224l65.537 20.764-65.537-20.764m-2.28 7.571l59.119 26.896-59.119-26.896m75.324-.954l-6.818 12.883 6.818-12.883"/><path fill="#DEE8DD" d="M257.932 85.728l1.752.545 8.861 2.167 12.293-1.498 8.674.629c1.102.737 2.849.665 5.242-.216l.977-.288 9.163.486-9.163-.486 5.055-1.753c2.048-.249 3.417.497 4.108 2.239l.403 2.269c1.245 1.225 1.121 3.207-.372 5.946l-.273.876-.201 1.12-1.95 9.594-4.378 7.656-2.728 4.252-1.594 1.795-.833.775-6.317 5.574-3.03 1.422-1.909 1.624c-6.414 5.249-12.043 6.552-16.888 3.911l-1.623-1.909-1.508-.618-1.336-.933-5.214-5.097c-.776-.833-1.284-1.656-1.523-2.47l-2.342-4.351-7.872-5.111c-2.49-2.45-3.496-4.365-3.018-5.744 2.987-2.471 4.637-4.372 4.954-5.703l1.648-7.914 1.348-6.233 2.254-2.256.904-.532 6.436.232-6.434-.229 4.51-.001 1.924.23m-12.718 22.579l36.499 22.149-36.499-22.149m2.613-5.545l45.142 19.073-45.142-19.073m84.527 91.574l3.921.702 3.576 1.334 7.469 2.842 2.844 1.55.316.174 1.508.615-.245.072 2.212 1.206c3.629 2.114 6.023 4.239 7.183 6.375l1.408 1.177 3.175 3.574c.794.297 1.336.934 1.623 1.91l.531.904 1.739 3.203-.617 1.508-.028.806-.244.07-.272.877-.761 1.02-2.527 3.131-2.627 3.691-3.776 4.295-1.493 1.235-5.686 5.919c-3.608 3.362-5.939 4.756-6.992 4.182-1.264-.688-1.834-2.025-1.71-4.007l.272-.875c-4.319-3.858-7.346-10.838-9.082-20.937l-.964-6.88-2.573-6.936c-2.386-6.901-3.292-10.88-2.717-11.933l4.537-.804c3.854 18.496 10.264 34.56 19.229 48.19-8.965-13.631-15.376-29.694-19.229-48.19m18.342 7.333l3.26 1.162-3.26-1.162c3.084 6.873 7.908 15.445 14.469 25.717-6.562-10.272-11.385-18.844-14.469-25.717l-.216-.731.216.731-10.701-4.808-3.72-1.823 3.72 1.823-.144-.489.144.489 10.701 4.808M249.791 90.511l54.66 7.252-54.66-7.252m108.97 144.861c-9.272-14.071-15.527-26.909-18.767-38.511 3.24 11.601 9.495 24.439 18.767 38.511m-58.973-126.42l-50.297-12.25 50.297 12.25m214.066 146.812l4.728 5.241 1.982 3.13c1.303 2.623 1.471 4.695.504 6.218l-2.599 2.888c-4.961-5.438-9.339-12.195-13.132-20.274 3.793 8.079 8.171 14.837 13.132 20.274l-5.541 6.407-1.937 2.427-6.979 6.034c-4.59-8.376-9.082-17.93-13.479-28.661 4.397 10.731 8.89 20.285 13.479 28.661l-.935 1.336-5.14 4.165-.76 1.021-.69 1.264-1.521 2.04-6.175 1.554c-6.367-3.608-12.063-19.352-17.088-47.23l-.461-.659-2.04-6.031c.689-1.265 1.439-2.016 2.254-2.256.928-.45 2.178-.111 3.749 1.019l1.091 1.005c5.501 17.481 12.231 34.334 20.191 50.56-7.96-16.226-14.69-33.078-20.191-50.56l1.408 1.177 1.163 1.249c1.369-.757 3.807-.591 7.311.501l.703.588 9.322 2.827 4.023 9.161-4.023-9.161 9.134 1.29 4.654.488 3.863 2.307 1.738 3.202 4.972 5.169-4.972-5.169-1.738-3.202m-23.638 3.512l-4.038-11.015 4.038 11.015-1.751-.547.303 2.83.271-.876c.345-.632.843-1.043 1.493-1.235l.173-.315-.489.143m11.894 5.253l10.818 15.119-10.818-15.119c.688-1.265 1.368-2.261 2.039-2.989l-3.922-.702-1.12-.2-1.364-.129 2.183 2.009 2.011 2.327.173-.316m7.912 1.648l.245-.071-.389-.417.144.488"/><path fill="#B5D1AD" d="M194.919.554l1.639 3.762c.862 2.93.547 5.764-.945 8.502-1.656 2.787-3.948 4.611-6.877 5.474s-5.577.582-7.942-.845c-2.69-1.33-4.385-3.484-5.085-6.461-.863-2.929-.467-5.787 1.189-8.574 1.493-2.738 3.704-4.539 6.634-5.401l2.268-.403c2.05-.25 4.022.143 5.918 1.176l3.201 2.77m-11.274-2.252c2.604-.767 5.065-.519 7.382.745 2.155 1.311 3.615 3.269 4.382 5.872.507 2.327.073 4.754-1.305 7.282-1.263 2.317-3.091 3.917-5.484 4.799-2.604.767-4.984.494-7.138-.817-2.318-1.263-3.86-3.197-4.626-5.801-.556-2.489-.203-4.892 1.061-7.209 1.377-2.528 3.287-4.152 5.728-4.871-2.441.719-4.351 2.342-5.729 4.87-1.263 2.317-1.617 4.721-1.061 7.209.766 2.604 2.308 4.538 4.626 5.801 2.154 1.311 4.534 1.583 7.138.817 2.393-.881 4.221-2.481 5.484-4.799 1.378-2.528 1.813-4.955 1.305-7.282-.767-2.603-2.227-4.561-4.382-5.872-2.316-1.262-4.777-1.51-7.381-.744m-3.66 5.588l-.173.316c-.918 1.685-1.09 3.504-.515 5.457.412 2.001 1.437 3.379 3.074 4.136 1.685.918 3.423 1.114 5.213.587 1.953-.575 3.389-1.705 4.308-3.39l.173-.316c.966-1.523 1.138-3.342.515-5.458-.249-2.048-1.217-3.533-2.902-4.451-1.638-.756-3.433-.847-5.385-.271l-4.308 3.39"/><path d="M179.985 3.89l4.207-2.831c1.79-.527 3.504-.412 5.141.344 1.685.918 2.734 2.378 3.146 4.379.527 1.791.389 3.422-.415 4.897l-.173.316c-.919 1.685-2.354 2.815-4.308 3.39-1.79.527-3.528.331-5.213-.587-1.637-.756-2.662-2.135-3.074-4.136-.575-1.953-.403-3.772.515-5.457l.174-.315"/><path fill="#97B08C" d="M386.582 43.339l.129-1.364-.144-.488.401-2.24 10.426-3.335.373-1.436.66-.46c2.479-1.791 10.779-4.234 24.9-7.331l12.149-1.985h4.509l.733-.216c5.829-2.424 8.727-.094 8.689 6.992l.144.488c-.315 1.331 1.07 5.434 4.154 12.307l1.855 4.494 2.572 6.936 1.466 4.078 5.129 7.51 4.095 4.896c3.056 3.168 3.918 6.098 2.587 8.789l-1.005 1.091-1.393.676c-1.513.267-3.753-.134-6.722-1.205l8.114.528-8.114-.528-.388-.417-.805-.029-3.704.029-2.614 1.035-.288-.977-1.437-.373-1.364-.129-4.969-.659-4.208-1.679-2.672-1.866-.804-.028-7.067-5.083-3.821-1.263-.704-.588-1.795-1.593-6.852-4.35-5.299-2.685-13.56-8.21-5.099-3.805 51.882 31.15-51.882-31.15-5.832-3.588-2.425-1.939m-2.441-3.79l14.288-5.533 37.049-9.316-37.049 9.316-14.288 5.533m9.723 5.095l55.545-13.17-55.545 13.17m13.386 8.527l46.457-8.902-46.457 8.902m45.807 27.633l8.042.285-8.042-.285m11.672-13.517l-27.071 2.665 27.071-2.665m-43.573-6.537l36.979-5.051-36.979 5.051"/><path fill="none" stroke="#21281E" stroke-width="2" stroke-linecap="round" stroke-linejoin="round" d="M129.505 3.631l37.778 29.201-12.873-18.494c-9.587-12.741-16.598-20.934-21.032-24.581l16.901-6.568 3.418-1.006 24.441-3.483c15.769-1.105 33.103-.195 52.003 2.729 31.242 4.596 74.206 20.774 128.892 48.534l35.808 18.903m40.636-24.167l13.442-2.101c2.636 11.957 6.383 22.88 11.24 32.769m.388.417c1.686 3.925 3.567 7.616 5.646 11.071l11.523 15.708-7.311-.5-8.114-.528-1.192-.445-8.042-.285m25.929 20.485c4.739 4.087 10.739 8.245 17.997 12.475l12.942 9.718 26.66 20.271 34.877 29.257 2.112 1.767 12.397 11.471 29.392 29.549c24.22 27.001 39.446 39.673 45.68 38.014l5.758-1.165c2.584-.229 4.184.096 4.797.977l2.458 5.643m9.561-10.774l-10.569 2.846M129.505 3.631l-1.479-1.421-1.419 10.499c-.888 8.396.694 16.774 4.747 25.131 3.152 6.5 9.353 15.551 18.605 27.152 22.814 28.831 57.581 57.415 104.301 85.75 25.481 15.666 49.675 29.059 72.579 40.178l.301-1.682m-69.208-103.51l-6.434-.229m3.645 40.312l5.214 5.097m35.038-11.643c6.805-8.724 11.312-19.248 13.52-31.57l-4.021-.143-9.163-.486-37.8-1.339m35.354 36.282l.517-.949 1.593-1.795m-51.989-5.386l11.737 11.931m38.142-3.801c-7.619 8.962-16.598 13.906-26.938 14.828l-5.99-5.929m75.918 64.13l-4.208-1.679-5.228-2.439c1.046 11.363 2.864 21.438 5.451 30.228 2.971 10.091 7.521 19.539 13.651 28.346l13.497-12.728 13.868-18.674-10.301-11.559-.704-.589-8.345-3.113-3.26-1.162-10.701-4.808m-3.72-1.823l3.72 1.823M237.858 45.478c-4.788 30.591-16.277 45.027-34.469 43.309m22.858-65.623c-6.661 44.053-24.895 58.707-54.704 43.961m263.934-42.426l-37.049 9.316-14.288 5.533m62.584 40.468l-51.882-31.15m51.882 31.15l32.262 21.274m211.05 145.578l-6.419 1.625m78.026 4.617l2.784-5.86m-27.332-8.135l-.243.072c-6.693-.506-11.92.06-15.683 1.698l-12.222 1.742-7.466 1.667-11.446 2.573m-16.033 27.537l-.072-.245.172-.316.401-2.239c.853-4.318.701-8.431-.448-12.337m-3.612 24.673l1.379-2.527 2.181-7.009m-6.071 14.52l-6.36 9.035-5.239 4.726-5.5 2.945c-3.159 1.285-6.094 1.529-8.803.735l-.733.215 4.715 12.408 6.754 18.438m17.677-53.486l-2.511 4.984m-26.636 17.657c-1.639-.755-3.338-3.525-5.101-8.313-2.395-5.132-6.747-8.801-13.058-11.012l-44.825-14.392c-23.46-7.595-40.991-12.779-52.596-15.553l-11.49-2.983-.373 1.436m6.711 8.371l4.051 3.848c-4.03 6.139-10.021 13.119-17.975 20.943l-1.32.92-8.228 7.198-10.683 6.063c-11.209-26.058-17.573-46.468-19.089-61.231l-20.64-6.126-19.979-6.586-57.666-20.161-6.032-2.47m298.643 152.951l5.016 10.726m-5.016-10.726l-8.881-22.057m58.711 6.59l9.689-16.648m38.683-71.343l-.101.56-12.602 23.873m-6.817 12.882l-.688 1.265-7.752 14.22-3.861 6.708-6.86 11.835m38.681-71.343l1.795-2.916m-24.548-13.995l5.486-.29c15.146-.214 22.486 2.489 22.018 8.108l-.172.316m-24.099 46.092l6.818-12.883m-35.67 63.559l-17.025 25.969c-10.642 15.514-19.503 16.354-26.582 2.521l-1.207-2.298M495.944 249.897l-10.369-2.784-9.494-2.511m28.481 7.531l-8.618-2.236m24.62 14.238l-4.972-5.169-1.738-3.202m-3.862-2.309l-5.43-1.321m9.665 2.195l-4.235-.874m-34.787-9.125c-1.57-1.13-2.821-1.469-3.749-1.019m3.749 1.019l.875.272m-8.759-2.726l4.136 1.436"/><path fill="none" stroke="#333" stroke-linecap="round" stroke-linejoin="round" d="M185.798-3.393l-2.268.403c-2.93.862-5.141 2.663-6.634 5.401-1.656 2.787-2.052 5.645-1.189 8.574.7 2.977 2.395 5.131 5.085 6.461 2.366 1.427 5.013 1.708 7.942.845s5.222-2.687 6.877-5.474c1.492-2.738 1.808-5.572.945-8.502L194.917.553l-3.203-2.771c-1.894-1.032-3.866-1.424-5.916-1.175"/><path fill="none" stroke="#000" stroke-width=".5" stroke-linecap="round" stroke-linejoin="round" d="M183.645-1.698c-2.441.719-4.351 2.342-5.729 4.87-1.263 2.317-1.617 4.721-1.061 7.209.766 2.604 2.308 4.538 4.626 5.801 2.154 1.311 4.534 1.583 7.138.817 2.393-.881 4.221-2.481 5.484-4.799 1.378-2.528 1.813-4.955 1.305-7.282-.767-2.603-2.227-4.561-4.382-5.872-2.316-1.262-4.777-1.51-7.381-.744"/><path fill="none" stroke="#21281E" stroke-linecap="round" stroke-linejoin="round" d="M460.16 55.368l.388.417m-178.835 74.671l-36.499-22.149m47.755 13.529l.316.173m-.316-.173l-45.142-19.073m84.239 90.596l.288.977c3.854 18.496 10.264 34.56 19.229 48.19m-19.517-49.167l-.015-1.854m18.112 9.258l.316.174.216.731c3.084 6.873 7.908 15.445 14.469 25.717m-25.169-30.524l-.144-.489-.115-1.292m.259 1.781c3.239 11.602 9.495 24.439 18.767 38.511M304.451 97.763l-54.66-7.252m-.301 6.191l50.297 12.25m149.622-77.478l-55.545 13.17m59.843-.375l-46.457 8.902m52.91 2.197l-2.025.331-36.979 5.051m43.573 6.537l1.464-.431m-28.535 3.095l27.071-2.665m209.326 191.98l87.588-6.156m-104.047 50.265l40.945 57.979m10.824-19.104l-44.791-44.908m-13.742 8.288l.144.488 33.983 70.376m24.406-34.244l2.111 1.768m9.689-16.649l-1.02-.76-51.711-35.977m81.453-17.083l-72.871-6.932m62.623 27.989l-65.537-20.764m56.839 34.467l-59.119-26.896m59.119 26.896l.946.517m-246.312-61.713l.604 1.148 4.038 11.014m5.987-7.599l-.26-1.779m-19.864-5.295l.216.732m14.237 14.114c4.397 10.731 8.89 20.285 13.479 28.661m8.916-8.461l-10.818-15.119m-1.883-3.692l-4.023-9.161m9.133 1.29l-.775-.833m-14.029 7.315l-.316-.173m15.12-6.309c3.793 8.079 8.171 14.837 13.132 20.274m-18.242-12.403l1.883 3.691m-5.62 31.366c-7.962-16.226-14.692-33.078-20.193-50.56m20.193 50.56l.603 1.15m8.227-7.198l-1.308-1.737"/></g></svg>