<?xml version="1.0" encoding="utf-8"?>
<!-- Generator: Adobe Illustrator 16.0.0, SVG Export Plug-In . SVG Version: 6.00 Build 0)  -->
<!DOCTYPE svg PUBLIC "-//W3C//DTD SVG 1.1//EN" "http://www.w3.org/Graphics/SVG/1.1/DTD/svg11.dtd">
<svg version="1.1" id="Layer_1" xmlns="http://www.w3.org/2000/svg" xmlns:xlink="http://www.w3.org/1999/xlink" x="0px" y="0px"
	 width="900px" height="450px" viewBox="0 0 900 450" enable-background="new 0 0 900 450" xml:space="preserve">
<g id="g4102" transform="matrix(1.0, 0.0, 0.0, 1.0, -4.85, 53.35)">
	<path id="path4104" fill="#EEEEF2" d="M129.505,3.631c0.745-5.878,2.18-11.518,4.304-16.918l2.125-0.891l0.561,0.101l4.323-1.538
		l10.569-2.847l2.313,0.646l-3.418,1.006l-16.901,6.568c4.434,3.647,11.445,11.84,21.032,24.581l12.873,18.494L129.505,3.631
		l37.778,29.201L154.41,14.338c-9.587-12.741-16.598-20.934-21.032-24.581l16.901-6.568l3.418-1.006l4.984,2.511l27.117,11.913
		L183.53-2.99c-2.93,0.862-5.141,2.663-6.634,5.401c-1.656,2.787-2.052,5.645-1.189,8.574c0.7,2.977,2.395,5.131,5.085,6.461
		c2.366,1.427,5.013,1.708,7.942,0.845s5.222-2.687,6.877-5.474c1.492-2.738,1.808-5.572,0.945-8.502l-1.639-3.762
		c107.8,48.377,204.705,99.696,290.715,153.958c97.674,61.438,147.714,93.838,150.118,97.197c2.824,3.591,7.589,7.758,14.292,12.505
		l11.663,7.177l5.816,1.737l0.317,0.172c2.278-0.671,3.781-0.671,4.509-0.001c1.197,1.062,0.739,3.408-1.377,7.037l-0.589,0.703
		l-0.616,1.508l-5.527,8.26c-3.646,4.435-6.613,6.37-8.901,5.805l-0.646,2.313l-2.011,2.183c-1.091,0.498-2.13,0.273-3.116-0.674
		l-1.379,2.527l-3.733,0.835l-2.513,0.475l-4.022-9.161c-2.637-5.945-6.189-10.205-10.661-12.779l-10.901-3.688
		c-8.341-2.496-14.841-3.854-19.504-4.074l-20.623-4.273c-10.907-2.803-17.411-4.776-19.519-5.925l-1.869-1.839l-29.557-6.684
		c-33.693-8.119-66.593-17.445-98.698-27.977l-61.286-22.544l-25.565-10.247l-7.684-3.574l-4.912-2.268l-15.125-7.22
		c-18.136-9.339-37.508-20.171-58.116-32.497c-46.652-28.709-80.769-57.485-102.348-86.326
		C135.528,41.208,128.179,21.353,129.505,3.631 M295.731,87.067l-0.977,0.288c-2.393,0.881-4.141,0.954-5.242,0.216l-8.674-0.629
		l-12.293,1.497l-8.862-2.166l-1.752-0.545l-1.924-0.229l-4.51,0.001l-0.904,0.532l-2.254,2.255l-1.348,6.233l-1.649,7.914
		c-0.316,1.331-1.967,3.231-4.954,5.703c-0.478,1.379,0.528,3.293,3.018,5.744l7.871,5.11l2.342,4.351
		c0.24,0.813,0.747,1.636,1.523,2.469l5.215,5.097l1.335,0.932l1.509,0.618l1.623,1.909c4.845,2.641,10.475,1.338,16.888-3.911
		l1.909-1.624l3.03-1.422l6.317-5.574l0.833-0.775l-0.517,0.948l0.517-0.948l1.593-1.795l2.728-4.252l4.378-7.656l1.95-9.594
		l0.201-1.12l0.273-0.876c1.493-2.739,1.617-4.721,0.372-5.946l-0.403-2.27l4.021,0.143c-2.208,12.322-6.714,22.846-13.52,31.57
		c6.805-8.724,11.312-19.248,13.52-31.57l-4.021-0.143c-0.69-1.742-2.059-2.488-4.107-2.239L295.731,87.067l-37.8-1.339
		L295.731,87.067 M192.064,10.679c0.804-1.474,0.943-3.107,0.416-4.897c-0.412-2-1.462-3.46-3.147-4.378
		c-1.637-0.756-3.351-0.871-5.141-0.344l-4.207,2.831l4.308-3.391c1.953-0.576,3.748-0.485,5.385,0.271
		c1.686,0.918,2.653,2.402,2.902,4.451C193.203,7.338,193.031,9.157,192.064,10.679 M293.285,122.008l-0.316-0.173L293.285,122.008
		c-7.619,8.963-16.598,13.906-26.938,14.828l-5.99-5.929l5.99,5.929C276.687,135.915,285.666,130.971,293.285,122.008
		 M255.142,125.81l-11.736-11.931L255.142,125.81 M171.544,67.125c29.809,14.746,48.043,0.092,54.704-43.961
		C219.587,67.216,201.352,81.871,171.544,67.125 M203.389,88.787c18.191,1.719,29.681-12.718,34.469-43.309
		C233.069,76.069,221.58,90.505,203.389,88.787 M637.64,277.946l-0.244,0.071l-1.493,1.236l3.103,3.331l0.015-2.656L637.64,277.946"
		/>
	
		<linearGradient id="path4106_1_" gradientUnits="userSpaceOnUse" x1="364.2978" y1="171.2096" x2="654.6356" y2="171.2096" gradientTransform="matrix(0.9593 -0.2824 0.2824 0.9593 -29.4465 135.686)">
		<stop  offset="0" style="stop-color:#EBEBF1"/>
		<stop  offset="0.8471" style="stop-color:#97B08C"/>
	</linearGradient>
	<path id="path4106" fill="url(#path4106_1_)" d="M178.139-21.3l14.247-2.071c5.917-0.328,10.651,0.136,14.203,1.389
		c5.39-2.117,13.083-1.817,23.079,0.898l10.241,4.147l15.368,2.638l0.804,0.028l19.591,6.17l17.148,6.888l16.158,5.323
		c4.778,3.015,12.827,6.923,24.145,11.727l20.597,9.587l14.12,8.312c2.997,1.771,5.99,2.923,8.977,3.458l9.452,5.972l0.315,0.172
		l2.427,1.938l5.832,3.588l-35.808-18.903c-54.686-27.76-97.65-43.938-128.892-48.534C211.242-21.495,193.908-22.405,178.139-21.3
		c15.769-1.105,33.103-0.195,52.003,2.729c31.242,4.596,74.206,20.774,128.892,48.534l35.808,18.903l5.099,3.805l13.56,8.21
		l5.299,2.685l6.852,4.35l1.795,1.593l0.704,0.588l3.821,1.263l7.067,5.083l0.804,0.028l2.672,1.866l4.208,1.679l4.969,0.659
		c4.012,3.417,9.414,7.043,16.202,10.881l3.017,1.234l1.308,1.738l6.766,6.763c4.74,4.086,10.74,8.245,17.998,12.474l6.779,4.106
		l7.397,2.597l6.178,7.467l17.381,13.982l1.867,1.838l7.512,3.889l16.521,15.563l10.844,9.805l2.112,1.767l5.918,5.686l3.735,3.674
		l2.744,2.111l1.191,0.445c10.399,6.488,17.778,12.628,22.136,18.419l2.945,5.5l16.249,16.439l8.964,10.624l3.432,0.846l3.246,3.82
		l7.743,6.475l14.923,3.829c2.584-0.229,4.184,0.096,4.797,0.977l2.241,0.4l0.315,0.174l0.172-0.317
		c1.377-2.527,4.01-4.099,7.897-4.713l0.732-0.216l0.66-0.459l6.419-1.625c1.398-0.058,2.704,0.176,3.921,0.704l3.519-1.567
		l4.007-1.71l7.466-1.667l1.682,0.301l9.319-1.684l1.221-0.359c3.763-1.639,8.989-2.204,15.683-1.698l0.243-0.072
		c7.555,0.429,14.31,1.446,20.265,3.052c4.156,0.9,6.511,2.595,7.067,5.083l-2.784,5.86l2.784-5.86
		c0.479,1.627,0.03,3.705-1.348,6.233l-3.23,2.542l-0.102,0.561l-0.243,0.071l-0.317-0.172l-4.679,9.337l-4.621,7.728l-2.656,4.495
		l-0.085,2.414l-0.646,2.311l-6.173,10.572l-0.688,1.265l-4.35,6.851l-4.349,6.853l-6.519,11.203l-4.276,7.097l-7.71,10.759
		l-1.35,1.723l-1.722,3.159l-7.593,12.051l-0.531,3.606l-2.699,3.446l-40.945-57.979l40.945,57.979l-4.265,4.439l-5.727,9.381
		c-4.27,5.323-8.51,6.837-12.724,4.541c-3.418-2-6.473-5.169-9.165-9.505l-3.161-6.231l-1.854-4.494
		c-1.293-4.396-1.447-7.622-0.462-9.681c-2.978-2.307-5.785-6.432-8.419-12.376l-3.563-8.503l-3.19-9.936
		c-1.792-5.486-2.401-8.755-1.827-9.808c1.033-1.897,3.297-2.917,6.792-3.063l0.244-0.071l6.376-2.673l2.282-3.06l1.693-2.355
		l6.36-9.035l-6.36,9.035l3.732-5.344l2.628-3.691l1.45-2.283l1.061-2.701l2.698-7.957l0.861-1.579l-0.072-0.245l0.172-0.316
		l1.479-3.087l-1.077,0.848l-2.153,1.695c-0.728-0.67-2.23-0.67-4.509,0.001l-0.317-0.172l-5.816-1.737l-11.663-7.177
		c-6.704-4.747-11.468-8.914-14.292-12.505c-2.404-3.359-52.444-35.76-150.118-97.197C399.624,100.25,302.719,48.93,194.919,0.554
		l-3.203-2.771c-1.896-1.033-3.869-1.426-5.918-1.176l-27.117-11.913c2.68-2.911,7.562-4.348,14.647-4.313l1.637-0.747L178.139-21.3
		 M478.985,101.291l-32.261-21.275L478.985,101.291 M571.462,173.012l-34.877-29.257l-26.66-20.271l-12.942-9.719l12.942,9.719
		l26.66,20.271L571.462,173.012 M666.801,252.647l-5.758,1.165c-6.233,1.659-21.46-11.013-45.68-38.014l-29.392-29.549
		l29.392,29.549c24.22,27.001,39.446,39.673,45.68,38.014L666.801,252.647 M674.055,259.266l-2.457-5.643L674.055,259.266
		l87.588-6.156L674.055,259.266c1.149,3.906,1.299,8.018,0.448,12.337C675.354,267.284,675.204,263.172,674.055,259.266
		 M674.002,274.404l-2.181,7.009l-1.379,2.527l1.379-2.527L674.002,274.404 M664.574,297.341l44.791,44.908L664.574,297.341
		 M684.959,376.495l-33.983-70.376L684.959,376.495 M652.765,337.427l-6.754-18.438L652.765,337.427 M666.661,370.21l-5.016-10.726
		L666.661,370.21 M668.435,290.632l51.711,35.977L668.435,290.632 M761.643,253.11l-1.795,2.916L761.643,253.11 M677.016,266.618
		l72.87,6.932L677.016,266.618 M674.102,273.842l65.537,20.764L674.102,273.842 M671.822,281.413l59.119,26.896L671.822,281.413
		 M747.146,280.459l-6.818,12.883L747.146,280.459"/>
	<path id="path4108" fill="#DEE8DD" d="M257.932,85.728l1.752,0.545l8.861,2.167l12.293-1.498l8.674,0.629
		c1.102,0.737,2.849,0.665,5.242-0.216l0.977-0.288l9.163,0.486l-9.163-0.486l5.055-1.753c2.048-0.249,3.417,0.497,4.108,2.239
		l0.403,2.269c1.245,1.225,1.121,3.207-0.372,5.946l-0.273,0.876l-0.201,1.12l-1.95,9.594l-4.378,7.656l-2.728,4.252l-1.594,1.795
		l-0.833,0.775l-6.317,5.574l-3.03,1.422l-1.909,1.624c-6.414,5.249-12.043,6.552-16.888,3.911l-1.623-1.909l-1.508-0.618
		l-1.336-0.933l-5.214-5.097c-0.776-0.833-1.284-1.656-1.523-2.47l-2.342-4.351l-7.872-5.111c-2.49-2.45-3.496-4.365-3.018-5.744
		c2.987-2.471,4.637-4.372,4.954-5.703l1.648-7.914l1.348-6.233l2.254-2.256l0.904-0.532L257.932,85.728l-6.434-0.229l4.51-0.001
		L257.932,85.728 M245.214,108.307l36.499,22.149L245.214,108.307 M247.827,102.762l45.142,19.073L247.827,102.762 M332.354,194.336
		l3.921,0.702l3.576,1.334l7.469,2.842l2.844,1.55l0.316,0.174l1.508,0.615l-0.245,0.072l2.212,1.206
		c3.629,2.114,6.023,4.239,7.183,6.375l1.408,1.177l3.175,3.574c0.794,0.297,1.336,0.934,1.623,1.91l0.531,0.904l1.739,3.203
		l-0.617,1.508l-0.028,0.806l-0.244,0.07l-0.272,0.877l-0.761,1.02l-2.527,3.131l-2.627,3.691l-3.776,4.295l-1.493,1.235
		l-5.686,5.919c-3.608,3.362-5.939,4.756-6.992,4.182c-1.264-0.688-1.834-2.025-1.71-4.007l0.272-0.875
		c-4.319-3.858-7.346-10.838-9.082-20.937l-0.964-6.88l-2.573-6.936c-2.386-6.901-3.292-10.88-2.717-11.933L332.354,194.336
		c3.854,18.496,10.264,34.56,19.229,48.19C342.618,228.895,336.207,212.832,332.354,194.336 M350.696,201.669l3.26,1.162
		L350.696,201.669c3.084,6.873,7.908,15.445,14.469,25.717C358.603,217.114,353.78,208.542,350.696,201.669l-0.216-0.731
		L350.696,201.669l-10.701-4.808l-3.72-1.823l3.72,1.823l-0.144-0.489l0.144,0.489L350.696,201.669 M249.791,90.511l54.66,7.252
		L249.791,90.511 M358.761,235.372c-9.272-14.071-15.527-26.909-18.767-38.511C343.234,208.462,349.489,221.3,358.761,235.372
		 M299.788,108.952l-50.297-12.25L299.788,108.952 M513.854,255.764l4.728,5.241l1.982,3.13c1.303,2.623,1.471,4.695,0.504,6.218
		l-2.599,2.888c-4.961-5.438-9.339-12.195-13.132-20.274c3.793,8.079,8.171,14.837,13.132,20.274l-5.541,6.407l-1.937,2.427
		l-6.979,6.034c-4.59-8.376-9.082-17.93-13.479-28.661c4.397,10.731,8.89,20.285,13.479,28.661l-0.935,1.336l-5.14,4.165
		l-0.76,1.021l-0.69,1.264l-1.521,2.04l-6.175,1.554c-6.367-3.608-12.063-19.352-17.088-47.23l-0.461-0.659l-2.04-6.031
		c0.689-1.265,1.439-2.016,2.254-2.256c0.928-0.45,2.178-0.111,3.749,1.019l1.091,1.005c5.501,17.481,12.231,34.334,20.191,50.56
		c-7.96-16.226-14.69-33.078-20.191-50.56l1.408,1.177l1.163,1.249c1.369-0.757,3.807-0.591,7.311,0.501l0.703,0.588l9.322,2.827
		l4.023,9.161l-4.023-9.161l9.134,1.29l4.654,0.488L513.854,255.764l1.738,3.202l4.972,5.169l-4.972-5.169L513.854,255.764
		 M490.216,259.276l-4.038-11.015L490.216,259.276l-1.751-0.547l0.303,2.83l0.271-0.876c0.345-0.632,0.843-1.043,1.493-1.235
		l0.173-0.315L490.216,259.276 M502.11,264.529l10.818,15.119L502.11,264.529c0.688-1.265,1.368-2.261,2.039-2.989l-3.922-0.702
		l-1.12-0.2l-1.364-0.129l2.183,2.009l2.011,2.327L502.11,264.529 M510.022,266.177l0.245-0.071l-0.389-0.417L510.022,266.177"/>
	<path id="path4110" fill="#B5D1AD" d="M194.919,0.554l1.639,3.762c0.862,2.93,0.547,5.764-0.945,8.502
		c-1.656,2.787-3.948,4.611-6.877,5.474s-5.577,0.582-7.942-0.845c-2.69-1.33-4.385-3.484-5.085-6.461
		c-0.863-2.929-0.467-5.787,1.189-8.574c1.493-2.738,3.704-4.539,6.634-5.401l2.268-0.403c2.05-0.25,4.022,0.143,5.918,1.176
		L194.919,0.554 M183.645-1.698c2.604-0.767,5.065-0.519,7.382,0.745c2.155,1.311,3.615,3.269,4.382,5.872
		c0.507,2.327,0.073,4.754-1.305,7.282c-1.263,2.317-3.091,3.917-5.484,4.799c-2.604,0.767-4.984,0.494-7.138-0.817
		c-2.318-1.263-3.86-3.197-4.626-5.801c-0.556-2.489-0.203-4.892,1.061-7.209C179.294,0.645,181.204-0.979,183.645-1.698
		c-2.441,0.719-4.351,2.342-5.729,4.87c-1.263,2.317-1.617,4.721-1.061,7.209c0.766,2.604,2.308,4.538,4.626,5.801
		c2.154,1.311,4.534,1.583,7.138,0.817c2.393-0.881,4.221-2.481,5.484-4.799c1.378-2.528,1.813-4.955,1.305-7.282
		c-0.767-2.603-2.227-4.561-4.382-5.872C188.71-2.216,186.249-2.464,183.645-1.698 M179.985,3.89l-0.173,0.316
		c-0.918,1.685-1.09,3.504-0.515,5.457c0.412,2.001,1.437,3.379,3.074,4.136c1.685,0.918,3.423,1.114,5.213,0.587
		c1.953-0.575,3.389-1.705,4.308-3.39l0.173-0.316c0.966-1.523,1.138-3.342,0.515-5.458c-0.249-2.048-1.217-3.533-2.902-4.451
		c-1.638-0.756-3.433-0.847-5.385-0.271L179.985,3.89"/>
	<path id="path4112" d="M179.985,3.89l4.207-2.831c1.79-0.527,3.504-0.412,5.141,0.344c1.685,0.918,2.734,2.378,3.146,4.379
		c0.527,1.791,0.389,3.422-0.415,4.897l-0.173,0.316c-0.919,1.685-2.354,2.815-4.308,3.39c-1.79,0.527-3.528,0.331-5.213-0.587
		c-1.637-0.756-2.662-2.135-3.074-4.136c-0.575-1.953-0.403-3.772,0.515-5.457L179.985,3.89"/>
	<path id="path4114" fill="#97B08C" d="M386.582,43.339l0.129-1.364l-0.144-0.488l0.401-2.24l10.426-3.335l0.373-1.436l0.66-0.46
		c2.479-1.791,10.779-4.234,24.9-7.331l12.149-1.985l4.509,0l0.733-0.216c5.829-2.424,8.727-0.094,8.689,6.992l0.144,0.488
		c-0.315,1.331,1.07,5.434,4.154,12.307l1.855,4.494l2.572,6.936l1.466,4.078l5.129,7.51l4.095,4.896
		c3.056,3.168,3.918,6.098,2.587,8.789l-1.005,1.091l-1.393,0.676c-1.513,0.267-3.753-0.134-6.722-1.205l8.114,0.528l-8.114-0.528
		l-0.388-0.417l-0.805-0.029l-3.704,0.029l-2.614,1.035l-0.288-0.977l-1.437-0.373l-1.364-0.129l-4.969-0.659l-4.208-1.679
		l-2.672-1.866l-0.804-0.028l-7.067-5.083l-3.821-1.263l-0.704-0.588l-1.795-1.593l-6.852-4.35l-5.299-2.685l-13.56-8.21
		l-5.099-3.805l51.882,31.15l-51.882-31.15l-5.832-3.588L386.582,43.339 M384.141,39.549l14.288-5.533l37.049-9.316l-37.049,9.316
		L384.141,39.549 M393.864,44.644l55.545-13.17L393.864,44.644 M407.25,53.171l46.457-8.902L407.25,53.171 M453.057,80.804
		l8.042,0.285L453.057,80.804 M464.729,67.287l-27.071,2.665L464.729,67.287 M421.156,60.75l36.979-5.051L421.156,60.75"/>
	<path id="path4116" fill="none" stroke="#21281E" stroke-width="2" stroke-linecap="round" stroke-linejoin="round" d="
		M129.505,3.631l37.778,29.201L154.41,14.338c-9.587-12.741-16.598-20.934-21.032-24.581l16.901-6.568l3.418-1.006l24.441-3.483
		c15.769-1.105,33.103-0.195,52.003,2.729c31.242,4.596,74.206,20.774,128.892,48.534l35.808,18.903 M435.477,24.699l13.442-2.101
		c2.636,11.957,6.383,22.88,11.24,32.769 M460.547,55.784c1.686,3.925,3.567,7.616,5.646,11.071l11.523,15.708l-7.311-0.5
		l-8.114-0.528l-1.192-0.445l-8.042-0.285 M478.986,101.29c4.739,4.087,10.739,8.245,17.997,12.475l12.942,9.718l26.66,20.271
		l34.877,29.257l2.112,1.767l12.397,11.471l29.392,29.549c24.22,27.001,39.446,39.673,45.68,38.014l5.758-1.165
		c2.584-0.229,4.184,0.096,4.797,0.977l2.458,5.643 M683.617,248.493l-10.569,2.846 M129.505,3.631l-1.479-1.421l-1.419,10.499
		c-0.888,8.396,0.694,16.774,4.747,25.131c3.152,6.5,9.353,15.551,18.605,27.152c22.814,28.831,57.581,57.415,104.301,85.75
		c25.481,15.666,49.675,29.059,72.579,40.178l0.301-1.682 M257.932,85.728l-6.434-0.229 M255.143,125.811l5.214,5.097
		 M295.395,119.265c6.805-8.724,11.312-19.248,13.52-31.57l-4.021-0.143l-9.163-0.486l-37.8-1.339 M293.285,122.009l0.517-0.949
		l1.593-1.795 M243.406,113.879l11.737,11.931 M293.285,122.009c-7.619,8.962-16.598,13.906-26.938,14.828l-5.99-5.929
		 M336.275,195.038l-4.208-1.679l-5.228-2.439c1.046,11.363,2.864,21.438,5.451,30.228c2.971,10.091,7.521,19.539,13.651,28.346
		l13.497-12.728l13.868-18.674l-10.301-11.559l-0.704-0.589l-8.345-3.113l-3.26-1.162l-10.701-4.808 M336.275,195.038l3.72,1.823
		 M237.858,45.478c-4.788,30.591-16.277,45.027-34.469,43.309 M226.247,23.164c-6.661,44.053-24.895,58.707-54.704,43.961
		 M435.477,24.699l-37.049,9.316l-14.288,5.533 M446.724,80.016l-51.882-31.15 M446.724,80.016l32.262,21.274 M690.036,246.868
		l-6.419,1.625 M761.643,253.11l2.784-5.86 M737.095,239.115l-0.243,0.072c-6.693-0.506-11.92,0.06-15.683,1.698l-12.222,1.742
		l-7.466,1.667l-11.446,2.573 M674.002,274.404l-0.072-0.245l0.172-0.316l0.401-2.239c0.853-4.318,0.701-8.431-0.448-12.337
		 M670.443,283.94l1.379-2.527l2.181-7.009 M667.932,288.924l-6.36,9.035l-5.239,4.726l-5.5,2.945
		c-3.159,1.285-6.094,1.529-8.803,0.735l-0.733,0.215l4.715,12.408l6.754,18.438 M670.443,283.94l-2.511,4.984 M641.296,306.581
		c-1.639-0.755-3.338-3.525-5.101-8.313c-2.395-5.132-6.747-8.801-13.058-11.012l-44.825-14.392
		c-23.46-7.595-40.991-12.779-52.596-15.553l-11.49-2.983l-0.373,1.436 M520.564,264.135l4.051,3.848
		c-4.03,6.139-10.021,13.119-17.975,20.943l-1.32,0.92l-8.228,7.198l-10.683,6.063c-11.209-26.058-17.573-46.468-19.089-61.231
		l-20.64-6.126l-19.979-6.586l-57.666-20.161l-6.032-2.47 M661.646,359.484l5.016,10.726 M661.646,359.484l-8.881-22.057
		 M711.476,344.017l9.689-16.648 M759.848,256.026l-0.101,0.56l-12.602,23.873 M740.328,293.341l-0.688,1.265l-7.752,14.22
		l-3.861,6.708l-6.86,11.835 M759.848,256.026l1.795-2.916 M737.095,239.115l5.486-0.29c15.146-0.214,22.486,2.489,22.018,8.108
		l-0.172,0.316 M740.328,293.341l6.818-12.883 M711.476,344.017l-17.025,25.969c-10.642,15.514-19.503,16.354-26.582,2.521
		l-1.207-2.298 M495.944,249.897l-10.369-2.784l-9.494-2.511 M504.562,252.133l-8.618-2.236 M520.564,264.135l-4.972-5.169
		l-1.738-3.202 M509.992,253.455l-5.43-1.321 M514.227,254.329l-4.235-0.874 M475.205,244.33c-1.57-1.13-2.821-1.469-3.749-1.019
		 M475.205,244.33l0.875,0.272 M467.321,241.876l4.136,1.436"/>
	<path id="path4118" fill="none" stroke="#333333" stroke-linecap="round" stroke-linejoin="round" d="M185.798-3.393L183.53-2.99
		c-2.93,0.862-5.141,2.663-6.634,5.401c-1.656,2.787-2.052,5.645-1.189,8.574c0.7,2.977,2.395,5.131,5.085,6.461
		c2.366,1.427,5.013,1.708,7.942,0.845s5.222-2.687,6.877-5.474c1.492-2.738,1.808-5.572,0.945-8.502l-1.639-3.762l-3.203-2.771
		C189.82-3.25,187.848-3.642,185.798-3.393"/>
	<path id="path4120" fill="none" stroke="#000000" stroke-width="0.5" stroke-linecap="round" stroke-linejoin="round" d="
		M183.645-1.698c-2.441,0.719-4.351,2.342-5.729,4.87c-1.263,2.317-1.617,4.721-1.061,7.209c0.766,2.604,2.308,4.538,4.626,5.801
		c2.154,1.311,4.534,1.583,7.138,0.817c2.393-0.881,4.221-2.481,5.484-4.799c1.378-2.528,1.813-4.955,1.305-7.282
		c-0.767-2.603-2.227-4.561-4.382-5.872C188.71-2.216,186.249-2.464,183.645-1.698"/>
	<path id="path4122" fill="none" stroke="#21281E" stroke-linecap="round" stroke-linejoin="round" d="M460.16,55.368l0.388,0.417
		 M281.713,130.456l-36.499-22.149 M292.969,121.836l0.316,0.173 M292.969,121.836l-45.142-19.073 M332.066,193.359l0.288,0.977
		c3.854,18.496,10.264,34.56,19.229,48.19 M332.066,193.359l-0.015-1.854 M350.163,200.763l0.316,0.174l0.216,0.731
		c3.084,6.873,7.908,15.445,14.469,25.717 M339.995,196.861l-0.144-0.489l-0.115-1.292 M339.995,196.861
		c3.239,11.602,9.495,24.439,18.767,38.511 M304.451,97.763l-54.66-7.252 M249.49,96.702l50.297,12.25 M449.409,31.474
		l-55.545,13.17 M453.707,44.269l-46.457,8.902 M460.16,55.368l-2.025,0.331l-36.979,5.051 M464.729,67.287l1.464-0.431
		 M437.658,69.951l27.071-2.665 M674.055,259.266l87.588-6.156 M657.596,303.375l40.945,57.979 M709.365,342.25l-44.791-44.908
		 M650.832,305.63l0.144,0.488l33.983,70.376 M709.365,342.25l2.111,1.768 M721.165,327.369l-1.02-0.76l-51.711-35.977
		 M749.887,273.549l-72.871-6.932 M739.639,294.606l-65.537-20.764 M730.941,308.309l-59.119-26.896 M730.941,308.309l0.946,0.517
		 M485.575,247.113l0.604,1.148l4.038,11.014 M496.204,251.676l-0.26-1.779 M476.08,244.602l0.216,0.732 M490.533,259.448
		c4.397,10.731,8.89,20.285,13.479,28.661 M512.928,279.648l-10.818-15.119 M500.227,260.837l-4.023-9.161 M505.337,252.966
		l-0.775-0.833 M490.533,259.448l-0.316-0.173 M505.337,252.966c3.793,8.079,8.171,14.837,13.132,20.274 M500.227,260.837
		l1.883,3.691 M496.49,295.894c-7.962-16.226-14.692-33.078-20.193-50.56 M496.49,295.894l0.603,1.15 M505.32,289.846l-1.308-1.737"
		/>
</g>
</svg>
