
<svg xmlns="http://www.w3.org/2000/svg" version="1.1" xmlns:xlink="http://www.w3.org/1999/xlink" preserveAspectRatio="none" x="0px" y="0px" width="285px" height="427px" viewBox="0 0 285 427">
<defs>
<g id="Layer0_0_FILL">
<path fill="#EFBD9C" stroke="none" d="
M 244.7 363.2
Q 244.7 362.1 244.7 361.05 244.65 362.1 244.6 363.2 244.55 363.65 244.55 364.2
L 244.7 364.2
Q 244.7 363.75 244.7 363.2
M 243.95 327.15
Q 243.9 327.15 243.85 327.2 243.9 327.45 244 327.7 243.95 327.4 243.95 327.15
M 243.8 326.95
Q 243.85 327.05 243.85 327.2 243.9 327.15 243.95 327.15 245.15 324.6 246.3 322.1 245.75 322.5 245.3 322.6 245.2 324.55 243.8 326.95
M 182.7 200.75
Q 182.9 200.1 183.15 199.55 182.7 199.25 182.3 199 182 198.65 181.75 198.15 181.25 197.4 180.9 196.75 179.75 197.8 178 198.55 181.05 199.9 182.7 200.75
M 258.6 281.6
Q 258.3 282.4 258.05 283.3 256.8 290.45 255.6 295.75 257.45 288.6 258.6 281.6
M 270.75 203.15
Q 270.6 210.75 269.7 223.75 267.75 251.95 263.85 259.55 263.45 260.2 263.05 260.75 262.85 261.75 262.45 262.8 260.15 270 259.4 273.25 258.25 277.7 258.75 280.4 259 278.75 259.2 277.1 272.05 245.65 270.75 203.15
M 119.6 166.95
Q 119.55 167.05 119.5 167.15 119.9 167.55 120.35 167.95 122.9 170.35 125.2 172.05 127.45 173.65 129.45 174.55 130.5 175 131.5 175.25 132.85 175.6 134.4 176.05 135.4 176 136.55 175.55 138.95 176.25 141.65 176.6 143.5 175.25 148.55 175.65 149.6 175.7 152.9 174.7 152.95 174.7 153.05 174.65 148.35 175.1 148.05 175.1 145.1 174.9 141.45 173.7
L 136.6 174.3
Q 127.2 173.65 123.25 163.2 122.25 160.75 122.25 158.75 119.6 159.7 117.7 160.45 117.65 162.6 118.15 164.6 118.8 165.8 119.6 166.95
M 116.65 160.95
Q 116.9 161.85 117.3 162.85 117.7 163.75 118.15 164.6 117.65 162.6 117.7 160.45 117.15 160.7 116.65 160.95
M 139.75 136.8
Q 139.3 137.3 138.75 137.7 136.15 139.6 135.35 142.55 134.95 144.2 133.85 146.5 138.05 141.7 139.75 136.8
M 136.55 121.25
Q 137.6 119.35 137.2 118.05 136.1 113.95 121.05 114.1
L 101.55 113.25
Q 101.05 114.75 99.35 116.4 97.05 118.55 95.9 122.65 94.75 126.8 99.75 129.75 104.65 132.65 108.95 133.45 110.85 133.75 118.65 134.8 122.75 135.6 124.35 136.8 132.1 130.95 136.55 121.25
M 137.2 118.05
Q 137.6 119.35 136.55 121.25 132.1 130.95 124.35 136.8 124.65 137.05 124.9 137.3 125.1 137.15 125.3 136.9 128 134.35 132.45 129.75 135.95 126.6 137.5 126.7 139.9 126.8 140.8 128.7 140.35 123.4 137.2 118.05
M 77.05 167.75
Q 77.05 168 77 168.2 79.15 168.75 81.45 169.15 81.45 169.1 81.45 169.05 81.65 169.05 81.9 169.05 82 169.05 82.15 169.1 83.15 168.3 84.6 167.65 86.05 167.95 87.75 168.05 87.8 168.05 88.55 168.1 90.25 167.95 92.2 167.6 89.3 167.65 86.2 167.45 81.6 167.15 78.1 163.45 76.45 163.35 73.25 163.4 77.2 165.95 77.05 167.75
M 79.7 169.45
Q 80.3 169.65 80.7 170 80.9 169.9 81.15 169.9 81.3 169.5 81.45 169.15 79.15 168.75 77 168.2 76.95 168.75 76.75 169.2 77.95 169.55 78.95 169.85 79.05 169.75 79.15 169.7 79.4 169.6 79.7 169.45
M 114.05 71.25
Q 116.05 72.9 118.45 73.55 119.65 74.1 120.95 74.4 116.1 65.8 96.65 63.55 81.5 61.85 66.25 73.2 51.7 87.55 52.8 98 57.15 98.05 62.15 99.65 93.2 108.65 121.05 114.1 120.8 112.65 120.6 111.25 120.4 111.3 120.25 111.4 118.4 112.35 116.8 112.2 113.65 112 112.7 109.75 111.1 106.6 111.75 96.6 111.9 95.5 110.2 93.45 110.1 88.6 107.9 86.5 106.3 84.9 102.4 84.7 98 84.4 95.15 86.65 94.4 87.2 93.8 87.9 93.2 87.95 92.55 87.9 89.2 89.8 88.3 90.25 86.9 90.75 85.45 90.5 85.65 95.7 83.75 97.65 82.55 98.8 81 98.65 78.75 98.55 77.95 96.55 77.2 94.7 76.35 88.2 77.05 84.15 79.55 83.1 80.85 82.55 83.3 82.15 88.4 79.45 91.7 75.5 93.5 73.5 97.55 73.8 100.7 74 104.35 76.5 109.35 80.2 111.45 81.05 112 74.15 114.05 71.25
M 272.3 182.4
Q 272.45 181.7 272.55 181 272.1 182.05 271.65 183.3 270.6 186.25 269.9 192.25 270.1 192.8 270.25 193.5 271.275 187.95 272.3 182.4
M 274.35 166.25
Q 274.35 164.25 274.2 162.85 273.65 164.7 273.35 166.9 273.85 166.55 274.35 166.25
M 273.35 166.9
Q 273.15 168.25 273.05 169.7 273.2 173.9 273.3 176.25 274.15 170.15 274.35 166.25 273.85 166.55 273.35 166.9
M 215 170.75
Q 214.65 170.3 214.3 169.85
L 213.85 170.9
Q 214.35 170.8 215 170.75
M 171.4 179.25
Q 171.45 179.25 171.5 179.25 171.4 179.15 171.3 179.1 171.35 179.15 171.4 179.25
M 167.15 122.5
Q 164.45 127.05 164.85 141.1 164.2 147.3 164.75 151.15 164.65 151.35 164.65 151.5 163.3 156.7 163.5 160.55 162.75 161.3 161.8 162 160.6 165.65 160.6 166.1 160.15 171.9 155.6 174 156.45 173.8 156.65 173.8 157.5 173.85 158.4 174.5 158.55 174.25 158.7 174.05 159.95 173.3 161.2 172.15 162.95 170.45 164.25 169.9
L 175.65 84.6
Q 175.5 71.9 150.15 64.7 132.95 62.55 122.4 75.55 122.4 78.2 121.6 82.15 121.75 82.15 124.2 82.55 123.9 84.7 124 87.2 124.1 92.75 126 96.6 125.75 96.95 125.55 97.3 124.55 99.7 125.7 102.55 126.55 104.75 123.35 108.9 122.25 110.35 120.6 111.25 120.8 112.65 121.05 114.1 136.1 113.95 137.2 118.05 140.35 123.4 140.8 128.7 141.4 130 141.25 132.25 141.1 135.15 139.75 136.8 138.05 141.7 133.85 146.5 132.6 149.05 130.55 152.4 129.9 153.55 129.1 154.35 129.5 154.85 129.85 155.3 132.8 159.65 132.85 159.7
L 133.2 159.85
Q 133.25 155.25 137.65 155.6 139.3 155.7 140.55 156.5 141.95 157.35 143.05 157.4 145.2 157.55 146.25 154.85 146.85 153.4 147.5 148.8 149.05 140 153.05 140.25 154.2 140.35 155.25 141 156.25 141.65 156.65 142.7 157.05 142.1 157.75 141.6 159.4 140.25 159.75 135.65 159.8 134.5 159.3 128.45 159.6 124.4 162.95 122.6 164.8 121.65 166.45 121.45 166.85 121.55 167.25 121.6 167.25 122.05 167.15 122.5
M 169.45 78.1
Q 172.15 82.4 171.65 89.8 170.8 101.95 167.95 104.9 167.15 105.65 164.35 105.45 162.65 105.35 161.65 104.7 160.15 103.7 159.65 101.5 159.2 102 158.9 104.1 158.6 106.1 157.9 106.7 156.7 107.45 155.8 107.75 155.4 107.75 154.35 107.65 146 107.05 153.65 95.9 156.1 92.1 159.8 88.2 163 84.8 163.6 84.8 163.5 84.2 161.8 81.95 160.4 80.2 160.55 78.15 160.65 75.7 162.75 75 163.75 74.6 164.85 74.65 167.35 74.85 169.45 78.1
M 217.95 130.65
Q 217.65 131.25 217.3 131.9 214.4 137.15 214.3 138.75 214.3 139.35 214.5 141.5 214.7 143.7 214.7 144.35
L 217.95 130.65
M 219.85 122.65
Q 220.1 123.1 220.35 123.55 220.15 126.25 217.95 130.65
L 214.7 144.35 214.7 144.4
Q 215.8 147.5 215.75 147.8 215.6 149.85 214.1 150.85 213.35 151.35 213 151.85 210.95 164 214.3 169.85 214.65 170.3 215 170.75 215.25 170.75 215.55 170.75 217.95 173.45 221.15 174.65 221.15 174.75 221.15 174.9 221.25 175.15 221.4 175.55 226.1 176.75 228.7 177.95 228.5 178.05 228.35 178.15 231.15 178.6 234.35 178.6 252 180.15 257.8 170.5 264.05 160.95 267.15 144.2
L 269.05 117.6 267.15 144.2
Q 264.05 160.95 257.8 170.5 252 180.15 234.35 178.6 231.15 178.6 228.35 178.15 227.7 178.5 227.05 178.9 228.95 179.35 231.05 179.55 232.05 179.65 239 178.9 245.4 179.05 245.05 184.15 244.85 186.4 237.65 188.2 231.65 189.7 229.55 189.55 228.95 189.55 223.95 186.95
L 218.95 184.5
Q 216.15 186.1 212.95 187.6 212.35 188.2 211.95 188.8 214.2 189.5 215 190.1 218.3 192.05 230.65 197.4 241.35 202.55 241.1 205.8 241.05 207.5 240 208.45 241.85 209.8 243.65 211.2 241.85 209.8 240 208.45 239.5 208.85 238.75 209.1 236.5 209.35 236.4 209.3 235.85 209.3 223.75 203.25 211.15 196.8 207.05 195.75 202.2 194.4 199.85 193.9 199 193.65 198.25 193.5 190.65 195.95 185.5 195.55 185.05 195.5 184.55 195.45 185.3 196.35 185.85 197.15 186.35 197 186.9 197.05 187.85 197.2 194 205.85 199.95 214.75 199.9 215.9 199.65 218.75 197.2 219.8 194.85 220.4 194.75 220.4 194.45 220.3 186.55 214.6 177.35 207.9 172.1 204.75 175.3 208.5 177.7 211.8 182.55 218.1 182.2 221.45 182.1 224 180 224.8 179.55 224.85 179.2 224.9 179.45 225.45 179.7 226.05 179.45 225.45 179.2 224.9 177.9 225 177.8 225 175.2 222.25 171.35 218.6 163.6 211.4 155.6 207.25 153.45 206.1 149.8 206.05 145.8 206.3 143.85 206.1 140.85 205.45 137.8 203.95 135.3 202.9 132.4 202.7 129.55 202.5 120.75 203.25 111.95 203.9 110.5 203.75 108.2 203.6 106.65 201.45 104.8 198.75 108.6 196.55 109.8 195.85 112.1 195.75 113.4 195.65 115.9 195.6 116.55 195.55 117.5 195.4 115.55 194.35 113.45 193.15 106.7 189.35 103.5 186.25 103.55 187.15 103.55 188.1 103.35 190.75 98.15 198.3 92.5 205.95 91.8 206.85 87.65 212.35 86.25 213.6 84.1 215.5 80.95 215.2 75 214.85 78.3 209.35 80.2 206.4 84.55 200.35 85.05 199.75 91.85 191.35 93.05 189.8 94.1 188.65 85.4 190.95 85.55 190.95 81.8 190.7 79.8 189.45 79.75 189.4 79.65 189.3 79.45 189.45 79.2 189.65 79.35 190.25 79.35 190.95 78.9 197 63.7 201.8 48.6 205.25 48.35 205.25 45.45 205.05 44.1 202.05 42.6 198.85 47.85 197.4 48.55 197.2 52.35 196.6 55.35 196.05 57 195.6 57.65 195.4 58.6 195.15 55.75 194.35 56.3 192 56.35 191.75 56.4 191.55 53.7 191.85 50.85 192 45.7 192.05 45.55 192.05 35.95 191.4 33.65 186.85 33.3 186.2 33.25 185.65 30.1 184.35 27.35 182.45 30.1 184.35 33.25 185.65 33.05 184.6 33.75 183.9 34.75 182.6 37.2 182.7 45.55 184.35 46.15 184.35 54.25 184.95 62.45 181.45 60.3 179.95 60.25 177.65 60.25 177.4 60.25 177.2 46.35 176.15 37.1 168 33.5 164.85 33.5 162.6 33.5 161.95 33.9 161.55 32 159.9 30.05 158.1 32 159.9 33.9 161.55 34.85 160.4 38.1 160.65 39 160.7 46.6 164.85 55.1 169 60.6 169.45 60.9 169.45 61.5 169.45 61.65 167.75 62.75 166.75 62.35 166.55 61.95 166.3 56.15 161.9 51.15 156.05 46.05 149.95 45.05 146.2 45.05 146 45.1 145.85 43.6 143.35 42.8 140.45 42.1 137.8 42.15 136.05 42.15 135.8 42.2 135.6 42.5 132 46.4 132.25 48 132.4 50.15 135.6 52.85 139.75 52.6 145.3 53.8 146.85 55.65 148.8 62.65 156.85 63.2 157.35 63.4 157.55 65.7 158.95 66.15 158.2 66.75 157.35 68.45 155.4 70.9 153.65 73.25 152.1 74.1 152.1 75.3 152.15 76.9 153 78.7 153.85 79.4 153.95 79.5 153.95 79.6 152.9 80 151.55 77.65 150.25 75.3 148.85 80.1 150.8 84.9 152.6 95.85 152.95 106.75 153.3 116.35 148.15 125.9 142.95 120.45 141.25
L 120.05 141.3
Q 117.35 141.05 113.35 140.05 109.15 139.15 103.55 138.75 100.7 138.55 94.6 135.65 86.3 131.7 86.65 127.2 86.65 126.65 87.3 126.05 87.85 125.5 87.9 124.9 88.05 123.05 86.25 120.7 85.65 118 91.2 113.45 92.35 112.55 99.35 109.55 101.9 109.7 101.7 112.35 101.65 112.8 101.55 113.25
L 121.05 114.1
Q 93.2 108.65 62.15 99.65 57.15 98.05 52.8 98 34.8 97.35 25.6 118.85
L 10.8 186.15
Q 3.65 226.15 31.2 245.45 68.7 277.15 91.8 314.7 92.45 314.9 93.1 315.1 93.15 312.5 96.95 312.8 99.6 312.95 104.2 313.9 105.7 313.2 108.25 313.6 111.45 314 117.8 315.15 120.5 315.1 125.55 315.3 131.35 315.55 133.7 315.55 137.5 315.55 143.65 314 146.6 313.25 149.35 312.55 150.4 312.65 151.45 313.5 152.55 314.35 152.8 315.55 155.6 314.65 158.4 313.65 194.85 299.15 225.05 318.3 194.85 299.15 158.4 313.65 155.6 314.65 152.8 315.55 152.9 316.1 152.85 316.7 152.4 322.85 133.95 323.4
L 117 322.65
Q 116.75 322.9 116.35 323.1 115.25 323.7 114.3 323.6 112.15 323.2 110.3 322.9 109.05 322.85 107.95 322.7 106.25 322.55 105.05 322 102.4 321.75 100.5 321.6 94 320.15 93.2 316.3 93.05 315.65 93.1 315.1 92.45 314.9 91.8 314.7 91.65 321.75 91.6 328.45 108.15 350.9 136.1 351.5 108.15 350.9 91.6 328.45 91.2 346.85 90.75 363.2 90.65 363.75 90.65 364.2
L 162.35 364.2
Q 162.3 363.75 162.35 363.2 162.35 361.5 162.35 359.75 162.35 361.5 162.35 363.2 162.3 363.75 162.35 364.2
L 184.2 364.2
Q 184.3 363.75 184.5 363.3 184.5 363.2 184.6 363.2 185.45 361.55 185.55 360.45 185.65 359.35 185.05 357.8 184.3 356.25 184.4 355.25 184.9 347.75 189.4 346.9 189.95 346.7 192.75 346.7 194.5 346.65 194.95 346 197.8 341.3 201.35 339.8 203.45 338.95 206.25 339.15 209.05 339.35 210.1 339.7 212.8 340.75 212.6 343.5 212.6 344.1 208.4 348.6 203.5 354 202.8 355 203.5 355.5 205.15 355.7 206.25 356.85 205.95 363.2 205.9 363.4 205.9 363.6 205.9 363.95 205.9 364.2
L 235.45 364.2
Q 235.45 363.75 235.45 363.2 235.4 354.2 235.4 344.35 235.5 339.2 235.85 335.35 234.1 336.35 232.45 336.35 231.4 336.2 225.2 336.55 219 336.7 218.3 336.65 210.95 336.2 213 331.85 211.75 331.6 210.4 331.25 203.8 329.55 199.25 329.05 186.55 327.4 185.65 322.8 185.25 321.1 187.1 319.9 189 318.7 192 318.9 194.7 319.1 211.2 323.65 213.9 324.25 221.6 324.5 223.1 323.75 224.8 322.9 226.05 322.8 228.95 317.6 230.2 315.35 233.35 309.2 234.4 307.1 235.45 305.7 233.7 305.35 231.85 304.85 233.7 305.35 235.45 305.7 237.1 303.5 238.7 302.95 240.2 302.35 240.4 298.6 240.5 298 241.1 297 241.7 295.85 241.75 295.3 241.85 295.1 240.3 291.7 240.3 291.1 240.9 290.25 241.3 289.4 241.35 288.85 241.35 288.75 240.3 285.45 240.5 282.95 242.7 282.1 244.85 281.25 245 279.85 245 279.65 243.4 275.8 243.5 274.2 246.05 271.25 248.4 268.3 248.55 266.45 248.55 265.65 245.45 254.25 245.45 253.65 246.1 252.8 246.7 251.95 246.85 251.35 246.85 251.2 246.05 250.15 245.3 249.05 245.4 248 245.5 246.8 246.25 245.9 246.95 244.85 246.95 244.75 247 244.3 246.15 242.8 245.4 241.4 245.45 240.75 245.6 239.3 247.2 238.05 249 236.8 249.05 235.05 248.75 234.4 248.25 233.6 247.4 232.15 247.5 231.35 247.7 227.55 250.5 225.75 252.4 224.45 254.25 224.55 253.95 223.85 252.2 221.85 251.1 220.6 251.25 218.8 251.55 214.95 255.15 214.6 257.1 214.45 259.5 215.2 263.7 179.95 265.55 169.85 263.5 170.2 261.5 170.05 263.5 170.2 265.55 169.85 265.8 168.45 266 167.55 267.25 161.95 269.05 160 270.55 158.2 273.4 158.35 273.5 158.35 273.65 158.4 272.7 151.35 270.9 138.7 274.85 132.25 272.6 124.8 271.3 113.65 268 108.65 263.65 98.05 250.05 92.95 236.3 87.8 225.6 95.75 225.8 98 225.15 100.3
L 219.85 122.65
M 239.25 111.85
Q 239.45 109.3 241.25 107.25 243.15 105.15 245.4 105.35 247.2 105.5 252.85 107.95 252.95 107.6 252.75 106.35 252.55 104.95 252.7 104.45 252.85 101.3 255.45 100.1 256.75 99.5 258.15 99.5 260.95 99.8 262 102.1 262.55 103.7 262.55 106.7 263.2 106.3 263.85 105.75 265.35 105.8 266.5 106.75 267.75 107.95 267.6 110.25 267.45 112.25 265.7 113.8 263.9 115.15 263.85 116.8 263.7 118.05 264.5 120.35 265.25 122.7 265.05 125.3 261.75 136.5 261.6 138.55 261.5 139.55 262.65 141.9 263.8 144.15 263.65 145.3 263.5 147.75 261.5 148.8 259.3 149.85 259.3 150.4 259.25 150.9 259.5 155.25 259.8 159.5 259.7 160.1 259.6 162.3 250.85 168.6 250.05 169.2 249.4 169.65 248.2 173.65 242.95 175.45
L 236.85 176.6
Q 233.7 176.35 231.65 172.75 229.5 169.1 235.7 168.8 237.45 168.9 241.05 166.3 241.7 165.85 242.25 165.5 242.4 164.9 242.8 164.3 245.6 159.3 249.3 154.35 249.4 153.2 246.95 151.95 244.55 150.7 244.65 148.15 244.85 145.4 247.9 144.85 250.75 144.25 250.9 143.1 250.9 142.45 250.2 139.4 249.4 136.4 249.45 136 249.6 133.7 251.15 130.6 252.55 127.8 254 126.4 253.65 125.15 252.6 123.65 251.75 122.6 251.8 121.25 251.9 120.5 252.15 119.45 250.55 119.75 249.05 119.65 238.8 118.9 239.25 111.85
M 138.45 294.7
Q 139.5 294.35 146.35 291.35 147.95 289.8 149.7 288.8 150.6 288.4 156.2 284.6 156.7 283.7 157.55 282.7 160.6 279.2 166.65 273.95 167.95 272 173.2 259.55 176.55 251.35 180.45 251.6 180.9 251.6 181.35 251.8 182.3 247.9 183 243.7 182.3 247.9 181.35 251.8 181.95 252 182.55 252.4 184.2 253.6 184.05 255.7 183.45 264.15 173.6 277.5 165.8 288.3 161.45 289.85 160.8 290.45 159.95 291.1 159.85 291.3 159.85 291.55 159.65 294.7 150 298.75 145 302.55 145.2 302.6 142.85 302.4 141.95 301.5 141.8 301.55 141.7 301.6 125.05 308.45 102.1 308.2 125.05 308.45 141.7 301.6 130.25 304.9 130.15 304.9 127.35 304.7 125.9 301.95 124.3 298.85 129.55 297.3 132.55 296.35 138.45 294.7
M 157.9 307.35
Q 156.75 307.3 155.9 307.1 146 311 133.2 312.8 146 311 155.9 307.1 151.5 306.1 155 302.15 157.55 299.3 163.5 295.5 164.95 294.35 170.45 287.9 175.9 282.15 178.4 282.35 179.6 282.35 180.7 283.3 181.8 284.25 181.95 285.75 182.35 285.05 182.7 284.35 182.35 285.05 181.95 285.75 181.95 286 181.95 286.3 181.5 292.05 169.8 300.3 159.55 307.4 157.9 307.35
M 193.9 75.2
Q 182.4 74.65 175.65 84.6
L 164.25 169.9
Q 164.85 169.6 165.35 169.6 166.5 173.2 168.85 175.8 168.85 175.85 168.8 175.95 169.55 176.85 170.65 178.3 170.95 178.7 171.3 179.1 171.4 179.15 171.5 179.25 171.85 179.35 172.25 179.45 174.4 181.8 176.95 182.05 178.45 182.55 179.9 182.55 180.7 182.55 181.3 182.35 184.6 183.3 187.35 183.3 188.7 183.3 189.45 182.45 190.15 182.45 191 182.55 191.5 182.6 194.1 182.45 196.75 182.4 197.95 182.55 199.15 182.6 200.15 182.9 201 182.85 204.25 180.4 206.35 178.85 210.85 176.6 210.7 175.95 210.55 175.15 210.4 171.5 213.85 170.9
L 214.3 169.85
Q 210.95 164 213 151.85 212.6 152.3 212.6 152.8 212.45 154.4 210.95 157.55 209.05 161.25 208.9 161.8
L 206.35 169.6 207.7 173.8
Q 207.4 177.6 198.9 179.9 190.65 181.55 190.55 181.55 184.3 181.1 180 179.25 175.85 177.55 175.5 175.35 175.05 171.15 186.75 169.45 187.1 169.05 187.5 168.65 189.8 166.5 192.95 164.5 195.55 162.75 196.55 162.6 203.1 149.15 203.2 147.95 203.25 147.35 202.85 146.55 202.4 145.7 202.45 145.2 202.55 144.1 206.2 134.2 208 129.15 209.8 124.3 208.55 119.55 208.55 119.35 208.85 116 211.05 114.7 212.2 114.1 213.45 114.15 215.25 114.3 219.85 122.65
L 225.15 100.3
Q 225.8 98 225.6 95.75 225.2 91.3 221.5 87
L 214.4 80.7
Q 205.7 75.45 193.9 75.2
M 190.3 96.1
Q 193.4 94.3 193.8 93.8 195.7 92.15 197 91.9 197.4 91.9 200.1 92.1 202.85 92.3 204.75 92.85 207.7 93.8 211 94.4 211.85 91.95 213.25 90.75 214.35 89.7 215.55 89.85 217.25 90 219.75 92.1 222.9 94.85 222.7 98.4 222.05 107.55 219.8 110.1 218.9 111.15 216.45 111 214.8 110.9 213.85 110.1 212.5 109 210.7 105.3 207.45 105.9 206.65 105.75 205.8 105.45 204.25 105.35 203.9 105.25 202.4 106.4 200.9 107.55 199.9 107.55 198.6 107.4 193.8 104.45 188.65 101.2 188.55 99.7 188.25 97.3 190.3 96.1 Z"/>

<path fill="#D09A7C" stroke="none" d="
M 244.7 360.9
Q 244.8 357.3 244.9 353.95 245.6 335.35 244 327.7 244.6 344 244.7 360.9
M 249.65 317.35
Q 250.05 314.9 252.7 306.15 252.75 305.65 252.85 305.05 252.7 305.5 252.55 305.95 249.85 314 246.3 322.1 247.65 320.95 249.6 317.55 249.6 317.45 249.65 317.4
L 249.65 317.35
M 253.9 301.8
Q 254.05 301.35 254.3 300.9 254.3 300.7 254.45 300.55 255 298.35 255.6 295.75 254.8 298.75 253.9 301.8
M 212.6 343.5
Q 212.8 340.75 210.1 339.7 209.05 339.35 206.25 339.15 203.45 338.95 201.35 339.8 197.8 341.3 194.95 346 194.5 346.65 192.75 346.7 189.95 346.7 189.4 346.9 184.9 347.75 184.4 355.25 184.3 356.25 185.05 357.8 185.65 359.35 185.55 360.45 185.45 361.55 184.6 363.2 184.5 363.2 184.5 363.3 184.3 363.75 184.2 364.2
L 194.65 364.2
Q 194.65 363.75 194.65 363.2 194.65 356.55 194.85 349.95 194.65 356.55 194.65 363.2 194.65 363.75 194.65 364.2
L 205.9 364.2
Q 205.9 363.95 205.9 363.6 205.9 363.4 205.95 363.2 206.25 356.85 205.15 355.7 203.5 355.5 202.8 355 203.5 354 208.4 348.6 212.6 344.1 212.6 343.5
M 233.35 309.2
Q 230.2 315.35 228.95 317.6 226.05 322.8 224.8 322.9 223.1 323.75 221.6 324.5 213.9 324.25 211.2 323.65 194.7 319.1 192 318.9 189 318.7 187.1 319.9 185.25 321.1 185.65 322.8 186.55 327.4 199.25 329.05 203.8 329.55 210.4 331.25 211.75 331.6 213 331.85 210.95 336.2 218.3 336.65 219 336.7 225.2 336.55 231.4 336.2 232.45 336.35 234.1 336.35 235.85 335.35 235.5 339.2 235.4 344.35 235.4 354.2 235.45 363.2 235.45 363.75 235.45 364.2
L 244.55 364.2
Q 244.55 363.65 244.6 363.2 244.65 362.1 244.7 361.05 244.7 360.95 244.7 360.9 244.6 344 244 327.7 243.9 327.45 243.85 327.2 232.95 329.25 217.45 327 202.45 325 187.75 320.55 202.45 325 217.45 327 232.95 329.25 243.85 327.2 243.85 327.05 243.8 326.95 245.2 324.55 245.3 322.6 245.75 322.5 246.3 322.1 249.85 314 252.55 305.95 245.75 307.85 235.45 305.7 234.4 307.1 233.35 309.2
M 258.6 281.6
Q 258.7 281.2 258.85 280.85 258.8 280.65 258.75 280.4 258.65 281 258.6 281.6
M 152.85 316.7
Q 152.9 316.1 152.8 315.55 122.95 324.65 93.1 315.1 93.05 315.65 93.2 316.3 94 320.15 100.5 321.6 102.4 321.75 105.05 322 106.25 322.55 107.95 322.7 109.05 322.85 110.3 322.9 112.15 323.2 114.3 323.6 115.25 323.7 116.35 323.1 116.75 322.9 117 322.65
L 133.95 323.4
Q 152.4 322.85 152.85 316.7
M 149.35 312.55
Q 146.6 313.25 143.65 314 137.5 315.55 133.7 315.55 131.35 315.55 125.55 315.3 120.5 315.1 117.8 315.15 111.45 314 108.25 313.6 105.7 313.2 104.2 313.9 99.6 312.95 96.95 312.8 93.15 312.5 93.1 315.1 122.95 324.65 152.8 315.55 152.55 314.35 151.45 313.5 150.4 312.65 149.35 312.55
M 129.85 175
Q 129.95 175.2 129.95 175.35 130.95 175.65 131.95 175.85 130.85 175.45 129.85 175
M 131.95 175.85
Q 132.75 175.95 133.6 176 134 176.05 134.4 176.05 132.85 175.6 131.5 175.25 130.5 175 129.45 174.55 129.7 174.75 129.85 175 130.85 175.45 131.95 175.85
M 84.55 168.15
Q 85.25 168.15 85.95 168.15 86.2 168.15 86.5 168.15 87.5 168.15 88.55 168.1 87.8 168.05 87.75 168.05 86.05 167.95 84.6 167.65 83.15 168.3 82.15 169.1 82.75 169.1 83.45 169.1 83.9 168.6 84.55 168.15
M 119.5 167.15
Q 119.45 167.3 119.4 167.4 119.7 167.45 119.95 167.6 121.4 169.45 123.15 171.1 124.25 171.6 125.2 172.05 122.9 170.35 120.35 167.95 119.9 167.55 119.5 167.15
M 117.75 159.45
Q 117.1 159.85 116.45 160.25 116.55 160.6 116.65 160.95 117.15 160.7 117.7 160.45 117.7 159.95 117.75 159.45
M 95.9 122.65
Q 97.05 118.55 99.35 116.4 101.05 114.75 101.55 113.25
L 95.4 113
Q 84.75 121.15 94.1 132.2 105.1 138.6 120.75 139.15 122.6 138.05 124.35 136.8 122.75 135.6 118.65 134.8 110.85 133.75 108.95 133.45 104.65 132.65 99.75 129.75 94.75 126.8 95.9 122.65
M 141.25 132.25
Q 141.4 130 140.8 128.7 141.1 132.75 139.75 136.8 141.1 135.15 141.25 132.25
M 79.65 189.3
Q 79.75 189.4 79.8 189.45 81.8 190.7 85.55 190.95 85.4 190.95 94.1 188.65 93.05 189.8 91.85 191.35 85.05 199.75 84.55 200.35 80.2 206.4 78.3 209.35 75 214.85 80.95 215.2 84.1 215.5 86.25 213.6 87.65 212.35 91.8 206.85 92.5 205.95 98.15 198.3 103.35 190.75 103.55 188.1 103.55 187.15 103.5 186.25 106.7 189.35 113.45 193.15 115.55 194.35 117.5 195.4 116.55 195.55 115.9 195.6 113.4 195.65 112.1 195.75 109.8 195.85 108.6 196.55 104.8 198.75 106.65 201.45 108.2 203.6 110.5 203.75 111.95 203.9 120.75 203.25 129.55 202.5 132.4 202.7 135.3 202.9 137.8 203.95 140.85 205.45 143.85 206.1 145.8 206.3 149.8 206.05 153.45 206.1 155.6 207.25 163.6 211.4 171.35 218.6 175.2 222.25 177.8 225 177.9 225 179.2 224.9 172.85 210.05 160.05 196.55 159.55 197.45 158.4 197.45 158.3 197.45 149.2 187.65 148.95 187.5 148.75 187.45 148.5 187.2 148.25 187 147.65 186.45 147 186 143.1 183.25 135.4 180.7 133.3 179.1 131.2 178.6 131 178.45 130.9 178.4 127.25 176.2 122.25 175.05 121.7 174.9 121.15 174.75 118.65 173.5 115.9 172.6 111.5 171.1 108.8 171.15 108.1 170.75 107.15 170.5 104.6 169.45 101.9 169.1 101.55 169.25 101.2 169.45 100.85 169.4 100.45 169.4 100.25 169.4 100.1 169.4 99.85 169.4 99.6 169.45 99 169.45 98.35 169.5 94.25 169.9 92.5 171.35 92.35 171.3 92.25 171.2 91.05 171.55 89.4 172.25 86.25 173.65 85.95 173.65 85.85 173.7 85.8 173.85 85.85 174.05 86 174.4 86.1 174.9 86.2 175.65 86.6 176.15 86.6 177 86.6 178.2 86.3 179.5
L 86.3 179.55
Q 85.95 180.05 85.75 180.7 85.55 181.1 85.4 181.45 85.35 181.6 84.75 183 83.95 185.55 82.9 186.75 82.5 187 82.05 187.4 81.15 188.05 80.1 188.95 79.9 189.15 79.65 189.3
M 80.7 170
Q 80.85 170.1 80.95 170.25 81.05 170.05 81.15 169.9 80.9 169.9 80.7 170
M 33.75 183.9
Q 33.05 184.6 33.25 185.65 44 190.1 59.05 187.6 62.1 186.55 64.9 185.2 64.8 185.1 64.75 185 64.5 184.1 64.5 184.05 64.5 182.65 69.5 179.55 69.7 179.45 69.8 179.35 70.3 178.3 72.1 176.6 68 178 64.55 178 63.1 178 62.45 177.35 57.05 176.6 49.9 173.85 40.7 170.25 40.7 168.15 40.7 167.5 40.85 167.05 37.45 164.6 33.9 161.55 33.5 161.95 33.5 162.6 33.5 164.85 37.1 168 46.35 176.15 60.25 177.2 60.25 177.4 60.25 177.65 60.3 179.95 62.45 181.45 54.25 184.95 46.15 184.35 45.55 184.35 37.2 182.7 34.75 182.6 33.75 183.9
M 33.25 185.65
Q 33.3 186.2 33.65 186.85 35.95 191.4 45.55 192.05 45.7 192.05 50.85 192 53.7 191.85 56.4 191.55 56.35 191.75 56.3 192 55.75 194.35 58.6 195.15 57.65 195.4 57 195.6 55.35 196.05 52.35 196.6 48.55 197.2 47.85 197.4 42.6 198.85 44.1 202.05 45.45 205.05 48.35 205.25 48.6 205.25 63.7 201.8 78.9 197 79.35 190.95 79.35 190.25 79.2 189.65 77.35 191 74.55 192.45 74.35 192.05 74.35 191.45 74.35 191.25 74.6 190.85
L 74.55 190.65
Q 60.7 199.7 46.55 200.95 60.7 199.7 74.55 190.65
L 74.55 190.6
Q 74.55 189.35 77.9 185.55 79.4 183.8 80.35 182.8 80.4 182.35 80.8 181.55 81.25 180.5 81.25 179.7 81.25 178.4 80.4 177.4 80 176.85 79.8 176.5 79.7 176.5 79.55 176.6 76.2 181.35 66.55 185.95 65.45 185.95 64.9 185.2 62.1 186.55 59.05 187.6 44 190.1 33.25 185.65
M 42.8 140.45
Q 43.6 143.35 45.1 145.85 45.05 146 45.05 146.2 46.05 149.95 51.15 156.05 56.15 161.9 61.95 166.3 62.35 166.55 62.75 166.75 61.65 167.75 61.5 169.45 60.9 169.45 60.6 169.45 55.1 169 46.6 164.85 39 160.7 38.1 160.65 34.85 160.4 33.9 161.55 37.45 164.6 40.85 167.05 41 166.55 41.35 166.3 42.1 166.95 43.55 168.2 44.05 168.7 45.5 169.5 47 170.3 47.65 170.3 47.95 170.3 48.2 170.3 49.25 170.85 50.65 171.5 53.65 172.85 56.15 173.45 58.7 174.9 62.75 174.9 64.05 174.9 65.2 174.65 71.05 174.65 73.35 172.95 74.1 172.75 74.7 172.45 75.75 172 76.45 171.4 76.65 171.5 76.8 171.6 76.85 171.5 76.9 171.4 77 171.3 77 171.2 77.05 171 77.2 170.85 78 170.4 78.95 169.85 77.95 169.55 76.75 169.2 76.95 168.75 77 168.2 52.7 162.05 42.15 136.05 42.1 137.8 42.8 140.45
M 52.6 145.3
Q 52.85 139.75 50.15 135.6 48 132.4 46.4 132.25 42.5 132 42.2 135.6 42.15 135.8 42.15 136.05 52.7 162.05 77 168.2 77.05 168 77.05 167.75 77.2 165.95 73.25 163.4 76.45 163.35 78.1 163.45 81.6 167.15 86.2 167.45 89.3 167.65 92.2 167.6 95.05 167.1 98.4 166.1 100.3 165.5 101.75 165 102.25 164.9 102.7 164.9 103.95 164.3 104.85 163.6 105.65 163.2 106.3 162.75 106.85 162.55 107.3 162.4 114.05 160.3 116.35 159.9 116.4 160.05 116.45 160.25 117.1 159.85 117.75 159.45 120.35 157.9 123 155.9 129.65 151.25 133.85 146.5 134.95 144.2 135.35 142.55 136.15 139.6 138.75 137.7 139.3 137.3 139.75 136.8 141.1 132.75 140.8 128.7 139.9 126.8 137.5 126.7 135.95 126.6 132.45 129.75 128 134.35 125.3 136.9 125.1 137.15 124.9 137.3 124.65 137.05 124.35 136.8 122.6 138.05 120.75 139.15 105.1 138.6 94.1 132.2 84.75 121.15 95.4 113
L 101.55 113.25
Q 101.65 112.8 101.7 112.35 101.9 109.7 99.35 109.55 92.35 112.55 91.2 113.45 85.65 118 86.25 120.7 88.05 123.05 87.9 124.9 87.85 125.5 87.3 126.05 86.65 126.65 86.65 127.2 86.3 131.7 94.6 135.65 100.7 138.55 103.55 138.75 109.15 139.15 113.35 140.05 117.35 141.05 120.05 141.3
L 120.45 141.25
Q 125.9 142.95 116.35 148.15 106.75 153.3 95.85 152.95 84.9 152.6 80.1 150.8 75.3 148.85 77.65 150.25 80 151.55 79.6 152.9 79.5 153.95 79.4 153.95 78.7 153.85 76.9 153 75.3 152.15 74.1 152.1 73.25 152.1 70.9 153.65 68.45 155.4 66.75 157.35 66.15 158.2 65.7 158.95 63.4 157.55 63.2 157.35 62.65 156.85 55.65 148.8 53.8 146.85 52.6 145.3
M 122.4 75.55
Q 122.1 75.9 121.8 76.25 118.1 94.25 120.6 111.25 122.25 110.35 123.35 108.9 126.55 104.75 125.7 102.55 124.55 99.7 125.55 97.3 125.75 96.95 126 96.6 124.1 92.75 124 87.2 123.9 84.7 124.2 82.55 121.75 82.15 121.6 82.15 122.4 78.2 122.4 75.55
M 121.8 76.25
Q 122.1 75.9 122.4 75.55 122.4 75.05 122.35 74.6 121.65 74.55 120.95 74.4 121.45 75.3 121.8 76.25
M 118.45 73.55
Q 116.05 72.9 114.05 71.25 112 74.15 111.45 81.05 109.35 80.2 104.35 76.5 100.7 74 97.55 73.8 93.5 73.5 91.7 75.5 88.4 79.45 83.3 82.15 80.85 82.55 79.55 83.1 77.05 84.15 76.35 88.2 77.2 94.7 77.95 96.55 78.75 98.55 81 98.65 82.55 98.8 83.75 97.65 85.65 95.7 85.45 90.5 86.9 90.75 88.3 90.25 89.2 89.8 92.55 87.9 93.2 87.95 93.8 87.9 94.4 87.2 95.15 86.65 98 84.4 102.4 84.7 106.3 84.9 107.9 86.5 110.1 88.6 110.2 93.45 111.9 95.5 111.75 96.6 111.1 106.6 112.7 109.75 113.65 112 116.8 112.2 118.4 112.35 120.25 111.4 120.4 111.3 120.6 111.25 118.1 94.25 121.8 76.25 121.45 75.3 120.95 74.4 119.65 74.1 118.45 73.55
M 270.55 195.4
Q 270.45 194.35 270.25 193.5 270.6 198.4 270.75 203.15 270.8 198.1 270.55 195.4
M 273.25 179.25
Q 273.35 178.7 273.3 176.25 272.95 178.45 272.55 181 272.9 180.05 273.25 179.25
M 273.05 169.7
Q 273.15 168.25 273.35 166.9 269.4 169.2 265.55 169.85 263.7 179.95 259.5 215.2 257.1 214.45 255.15 214.6 251.55 214.95 251.25 218.8 251.1 220.6 252.2 221.85 253.95 223.85 254.25 224.55 252.4 224.45 250.5 225.75 247.7 227.55 247.5 231.35 247.4 232.15 248.25 233.6 248.75 234.4 249.05 235.05 249 236.8 247.2 238.05 245.6 239.3 245.45 240.75 245.4 241.4 246.15 242.8 247 244.3 246.95 244.75 246.95 244.85 246.25 245.9 245.5 246.8 245.4 248 245.3 249.05 246.05 250.15 246.85 251.2 246.85 251.35 246.7 251.95 246.1 252.8 245.45 253.65 245.45 254.25 248.55 265.65 248.55 266.45 248.4 268.3 246.05 271.25 243.5 274.2 243.4 275.8 245 279.65 245 279.85 244.85 281.25 242.7 282.1 240.5 282.95 240.3 285.45 241.35 288.75 241.35 288.85 241.3 289.4 240.9 290.25 240.3 291.1 240.3 291.7 241.85 295.1 241.75 295.3 241.7 295.85 241.1 297 240.5 298 240.4 298.6 240.2 302.35 238.7 302.95 237.1 303.5 235.45 305.7 245.75 307.85 252.55 305.95 252.7 305.5 252.85 305.05 253.4 303.4 253.9 301.8 254.8 298.75 255.6 295.75 256.8 290.45 258.05 283.3 258.3 282.4 258.6 281.6 258.65 281 258.75 280.4 258.25 277.7 259.4 273.25 260.15 270 262.45 262.8 262.85 261.75 263.05 260.75 263.45 260.2 263.85 259.55 267.75 251.95 269.7 223.75 270.6 210.75 270.75 203.15 270.6 198.4 270.25 193.5 270.1 192.8 269.9 192.25 270.6 186.25 271.65 183.3 272.1 182.05 272.55 181 272.95 178.45 273.3 176.25 273.2 173.9 273.05 169.7
M 273.65 158.4
Q 273.5 158.35 273.4 158.35 270.55 158.2 269.05 160 267.25 161.95 266 167.55 265.8 168.45 265.55 169.85 269.4 169.2 273.35 166.9 273.65 164.7 274.2 162.85 274.2 162.6 274.15 162.4 273.95 160.7 273.65 158.4
M 275.7 159.05
Q 274.8 158.5 273.65 158.4 273.95 160.7 274.15 162.4 274.2 162.6 274.2 162.85 274.8 160.75 275.7 159.05
M 219.55 182.9
Q 215.25 185.05 212.95 187.6 216.15 186.1 218.95 184.5
L 223.95 186.95
Q 228.95 189.55 229.55 189.55 231.65 189.7 237.65 188.2 244.85 186.4 245.05 184.15 245.4 179.05 239 178.9 232.05 179.65 231.05 179.55 228.95 179.35 227.05 178.9 226.45 179.3 225.8 179.75 221.45 181.15 219.55 182.9
M 211.95 188.8
Q 210.95 190.2 210.5 191.7 226.7 198.7 240 208.45 241.05 207.5 241.1 205.8 241.35 202.55 230.65 197.4 218.3 192.05 215 190.1 214.2 189.5 211.95 188.8
M 187.5 190.75
Q 185.75 191 183.6 191.6 182.8 191.95 182.15 192.25 183.85 194.15 184.2 195 184.4 195.2 184.55 195.45 185.05 195.5 185.5 195.55 190.65 195.95 198.25 193.5 199 193.65 199.85 193.9 202.2 194.4 207.05 195.75 211.15 196.8 223.75 203.25 235.85 209.3 236.4 209.3 236.5 209.35 238.75 209.1 239.5 208.85 240 208.45 226.7 198.7 210.5 191.7 210.3 192.3 210.2 193
L 203 191.05
Q 202.9 191.05 202.8 191.05 202.4 190.8 202.05 190.6 199.7 189.3 197.45 189.15 192 188.7 187.5 190.75
M 164.75 190.2
Q 164.35 190.2 163.9 190.2
L 161.45 190
Q 159.6 189.95 159 190 158.25 190 157.45 190.15 160.4 193.25 160.4 195.4 160.4 195.95 160.05 196.55 172.85 210.05 179.2 224.9 179.55 224.85 180 224.8 182.1 224 182.2 221.45 182.55 218.1 177.7 211.8 175.3 208.5 172.1 204.75 177.35 207.9 186.55 214.6 194.45 220.3 194.75 220.4 194.85 220.4 197.2 219.8 199.65 218.75 199.9 215.9 199.95 214.75 194 205.85 187.85 197.2 186.9 197.05 186.35 197 185.85 197.15 187.1 198.95 187.1 199.8 187.1 200.35 186.65 201 194.35 208.8 198.1 216.95 194.35 208.8 186.65 201 186.6 201 186.55 201.05 186.25 201.45 185.85 201.65 184.85 200.75 183.4 199.7 183.25 199.6 183.15 199.55 182.9 200.1 182.7 200.75 181.05 199.9 178 198.55 179.75 197.8 180.9 196.75
L 180.9 196.7
Q 179.15 195.75 176.5 192.7 175.65 192.05 174.4 191.05
L 174.35 191
Q 173.1 190.95 172.25 190.8 167.5 190.5 166.7 190.4 166.4 190.4 166.05 190.35
L 165.45 190.35
Q 165.05 190.3 164.75 190.2
M 171.3 179.1
Q 170.95 178.7 170.65 178.3 169.55 176.85 168.8 175.95 168.7 176.2 168.6 176.5 169.9 177.95 171.3 179.1
M 168.6 176.5
Q 168.5 176.8 168.35 177.15 169.05 177.6 169.25 178.7 170.35 179 171.4 179.25 171.35 179.15 171.3 179.1 169.9 177.95 168.6 176.5
M 164.85 141.1
Q 164.45 127.05 167.15 122.5 167.25 122.05 167.25 121.6 166.85 121.55 166.45 121.45 164.8 121.65 162.95 122.6 159.6 124.4 159.3 128.45 159.8 134.5 159.75 135.65 159.4 140.25 157.75 141.6 157.05 142.1 156.65 142.7 156.25 141.65 155.25 141 154.2 140.35 153.05 140.25 149.05 140 147.5 148.8 146.85 153.4 146.25 154.85 145.2 157.55 143.05 157.4 141.95 157.35 140.55 156.5 139.3 155.7 137.65 155.6 133.25 155.25 133.2 159.85
L 132.85 159.7
Q 132.8 159.65 129.85 155.3 129.5 154.85 129.1 154.35 129.9 153.55 130.55 152.4 132.6 149.05 133.85 146.5 129.65 151.25 123 155.9 120.35 157.9 117.75 159.45 117.7 159.95 117.7 160.45 119.6 159.7 122.25 158.75 122.25 160.75 123.25 163.2 127.2 173.65 136.6 174.3
L 141.45 173.7
Q 145.1 174.9 148.05 175.1 148.35 175.1 153.05 174.65 152.95 174.7 152.9 174.7 149.6 175.7 148.55 175.65 143.5 175.25 141.65 176.6 142.85 176.7 144.1 176.8 144.25 176.8 147.85 176.6 149.5 176.75 152.95 176.95 156.8 176.6 158.4 174.5 157.5 173.85 156.65 173.8 156.45 173.8 155.6 174 160.15 171.9 160.6 166.1 160.6 165.65 161.8 162 162.75 161.3 163.5 160.55 163.3 156.7 164.65 151.5 164.65 151.35 164.75 151.15 164.2 147.3 164.85 141.1
M 171.65 89.8
Q 172.15 82.4 169.45 78.1 167.35 74.85 164.85 74.65 163.75 74.6 162.75 75 160.65 75.7 160.55 78.15 160.4 80.2 161.8 81.95 163.5 84.2 163.6 84.8 163 84.8 159.8 88.2 156.1 92.1 153.65 95.9 146 107.05 154.35 107.65 155.4 107.75 155.8 107.75 156.7 107.45 157.9 106.7 158.6 106.1 158.9 104.1 159.2 102 159.65 101.5 160.15 103.7 161.65 104.7 162.65 105.35 164.35 105.45 167.15 105.65 167.95 104.9 170.8 101.95 171.65 89.8
M 215.75 147.8
Q 215.8 147.5 214.7 144.4
L 213.1 151.15
Q 213.05 151.5 213 151.85 213.35 151.35 214.1 150.85 215.6 149.85 215.75 147.8
M 220.35 123.55
Q 220.1 123.1 219.85 122.65
L 217.95 130.65
Q 220.15 126.25 220.35 123.55
M 155 302.15
Q 151.5 306.1 155.9 307.1 173.8 299.95 181.95 285.75 181.8 284.25 180.7 283.3 179.6 282.35 178.4 282.35 175.9 282.15 170.45 287.9 164.95 294.35 163.5 295.5 157.55 299.3 155 302.15
M 155.9 307.1
Q 156.75 307.3 157.9 307.35 159.55 307.4 169.8 300.3 181.5 292.05 181.95 286.3 181.95 286 181.95 285.75 173.8 299.95 155.9 307.1
M 159.95 291.1
Q 160.8 290.45 161.45 289.85 165.8 288.3 173.6 277.5 183.45 264.15 184.05 255.7 184.2 253.6 182.55 252.4 181.95 252 181.35 251.8 172.4 288.7 141.95 301.5 142.85 302.4 145.2 302.6 145 302.55 150 298.75 159.65 294.7 159.85 291.55 159.85 291.3 159.95 291.1
M 146.35 291.35
Q 139.5 294.35 138.45 294.7 132.55 296.35 129.55 297.3 124.3 298.85 125.9 301.95 127.35 304.7 130.15 304.9 130.25 304.9 141.7 301.6 141.8 301.55 141.95 301.5 172.4 288.7 181.35 251.8 180.9 251.6 180.45 251.6 176.55 251.35 173.2 259.55 167.95 272 166.65 273.95 160.6 279.2 157.55 282.7 156.7 283.7 156.2 284.6 150.6 288.4 149.7 288.8 147.95 289.8 146.35 291.35
M 241.25 107.25
Q 239.45 109.3 239.25 111.85 238.8 118.9 249.05 119.65 250.55 119.75 252.15 119.45 251.9 120.5 251.8 121.25 251.75 122.6 252.6 123.65 253.65 125.15 254 126.4 252.55 127.8 251.15 130.6 249.6 133.7 249.45 136 249.4 136.4 250.2 139.4 250.9 142.45 250.9 143.1 250.75 144.25 247.9 144.85 244.85 145.4 244.65 148.15 244.55 150.7 246.95 151.95 249.4 153.2 249.3 154.35 245.6 159.3 242.8 164.3 242.4 164.9 242.25 165.5 241.7 165.85 241.05 166.3 237.45 168.9 235.7 168.8 229.5 169.1 231.65 172.75 233.7 176.35 236.85 176.6
L 242.95 175.45
Q 248.2 173.65 249.4 169.65 250.05 169.2 250.85 168.6 259.6 162.3 259.7 160.1 259.8 159.5 259.5 155.25 259.25 150.9 259.3 150.4 259.3 149.85 261.5 148.8 263.5 147.75 263.65 145.3 263.8 144.15 262.65 141.9 261.5 139.55 261.6 138.55 261.75 136.5 265.05 125.3 265.25 122.7 264.5 120.35 263.7 118.05 263.85 116.8 263.9 115.15 265.7 113.8 267.45 112.25 267.6 110.25 267.75 107.95 266.5 106.75 265.35 105.8 263.85 105.75 263.2 106.3 262.55 106.7 262.55 103.7 262 102.1 260.95 99.8 258.15 99.5 256.75 99.5 255.45 100.1 252.85 101.3 252.7 104.45 252.55 104.95 252.75 106.35 252.95 107.6 252.85 107.95 247.2 105.5 245.4 105.35 243.15 105.15 241.25 107.25
M 211.05 114.7
Q 208.85 116 208.55 119.35 208.55 119.55 209.8 124.3 208 129.15 206.2 134.2 202.55 144.1 202.45 145.2 202.4 145.7 202.85 146.55 203.25 147.35 203.2 147.95 203.1 149.15 196.55 162.6 195.55 162.75 192.95 164.5 189.8 166.5 187.5 168.65 187.1 169.05 186.75 169.45 175.05 171.15 175.5 175.35 175.85 177.55 180 179.25 184.3 181.1 190.55 181.55 190.65 181.55 198.9 179.9 207.4 177.6 207.7 173.8
L 206.35 169.6 208.9 161.8
Q 209.05 161.25 210.95 157.55 212.45 154.4 212.6 152.8 212.6 152.3 213 151.85 213.05 151.5 213.1 151.15
L 214.7 144.4 214.7 144.35
Q 214.7 143.7 214.5 141.5 214.3 139.35 214.3 138.75 214.4 137.15 217.3 131.9 217.65 131.25 217.95 130.65
L 219.85 122.65
Q 215.25 114.3 213.45 114.15 212.2 114.1 211.05 114.7
M 193.8 93.8
Q 193.4 94.3 190.3 96.1 188.25 97.3 188.55 99.7 188.65 101.2 193.8 104.45 198.6 107.4 199.9 107.55 200.9 107.55 202.4 106.4 203.9 105.25 204.25 105.35 205.8 105.45 206.65 105.75 207.45 105.9 210.7 105.3 212.5 109 213.85 110.1 214.8 110.9 216.45 111 218.9 111.15 219.8 110.1 222.05 107.55 222.7 98.4 222.9 94.85 219.75 92.1 217.25 90 215.55 89.85 214.35 89.7 213.25 90.75 211.85 91.95 211 94.4 207.7 93.8 204.75 92.85 202.85 92.3 200.1 92.1 197.4 91.9 197 91.9 195.7 92.15 193.8 93.8 Z"/>

<path fill="#9A6243" stroke="none" d="
M 118.15 164.6
Q 118.6 166.65 119.65 168.55 124.6 172.75 129.85 175 129.7 174.75 129.45 174.55 127.45 173.65 125.2 172.05 124.25 171.6 123.15 171.1 121.4 169.45 119.95 167.6 119.7 167.45 119.4 167.4 119.45 167.3 119.5 167.15 119.55 167.05 119.6 166.95 118.8 165.8 118.15 164.6
M 116.45 160.25
Q 116.4 160.05 116.35 159.9 114.05 160.3 107.3 162.4 106.85 162.55 106.3 162.75 105.65 163.2 104.85 163.6 103.95 164.3 102.7 164.9 102.25 164.9 101.75 165 100.3 165.5 98.4 166.1 95.05 167.1 92.2 167.6 90.25 167.95 88.55 168.1 87.5 168.15 86.5 168.15 86.2 168.15 85.95 168.15 85.25 168.15 84.55 168.15 83.9 168.6 83.45 169.1 82.75 169.1 82.15 169.1 82 169.05 81.9 169.05 81.65 169.05 81.45 169.05 81.45 169.1 81.45 169.15 81.6 169.15 81.8 169.2 84.2 169.6 86.8 169.8 102.2 168.7 116.45 160.25
M 74.7 172.45
Q 74.1 172.75 73.35 172.95 71.05 174.65 65.2 174.65 64.05 174.9 62.75 174.9 58.7 174.9 56.15 173.45 53.65 172.85 50.65 171.5 49.25 170.85 48.2 170.3 47.95 170.3 47.65 170.3 47 170.3 45.5 169.5 44.05 168.7 43.55 168.2 42.1 166.95 41.35 166.3 41 166.55 40.85 167.05 57.35 178.9 69.75 176.3 57.35 178.9 40.85 167.05 40.7 167.5 40.7 168.15 40.7 170.25 49.9 173.85 57.05 176.6 62.45 177.35 63.1 178 64.55 178 68 178 72.1 176.6 70.3 178.3 69.8 179.35 69.7 179.45 69.5 179.55 64.5 182.65 64.5 184.05 64.5 184.1 64.75 185 64.8 185.1 64.9 185.2 76 179.65 81.8 169.2 81.6 169.15 81.45 169.15 81.3 169.5 81.15 169.9 81.05 170.05 80.95 170.25 80.85 170.1 80.7 170 80.3 169.65 79.7 169.45 79.4 169.6 79.15 169.7 79.05 169.75 78.95 169.85 78 170.4 77.2 170.85 77.05 171 77 171.2 77 171.3 76.9 171.4 76.85 171.5 76.8 171.6 76.65 171.5 76.45 171.4 75.75 172 74.7 172.45
M 215.55 170.75
Q 215.25 170.75 215 170.75 219.8 176.7 228.35 178.15 228.5 178.05 228.7 177.95 226.1 176.75 221.4 175.55 221.25 175.15 221.15 174.9 221.15 174.75 221.15 174.65 217.95 173.45 215.55 170.75
M 168.35 177.15
Q 168.5 176.8 168.6 176.5 166.2 173.7 164.25 169.95 159 180.4 142.45 177.6 137.05 177.6 131.95 175.85 130.95 175.65 129.95 175.35 129.95 175.2 129.85 175 124.6 172.75 119.65 168.55 118.6 166.65 118.15 164.6 117.7 163.75 117.3 162.85 116.9 161.85 116.65 160.95 116.55 160.6 116.45 160.25 102.2 168.7 86.8 169.8 84.2 169.6 81.8 169.2 76 179.65 64.9 185.2 65.45 185.95 66.55 185.95 76.2 181.35 79.55 176.6 79.7 176.5 79.8 176.5 80 176.85 80.4 177.4 81.25 178.4 81.25 179.7 81.25 180.5 80.8 181.55 80.4 182.35 80.35 182.8 79.4 183.8 77.9 185.55 74.55 189.35 74.55 190.6
L 74.55 190.65
Q 78.2 188.25 81.85 185.3 86.1 178 82.3 176.1 86.1 178 81.85 185.3 78.2 188.25 74.55 190.65
L 74.6 190.85
Q 74.35 191.25 74.35 191.45 74.35 192.05 74.55 192.45 77.35 191 79.2 189.65 79.45 189.45 79.65 189.3 79.9 189.15 80.1 188.95 81.15 188.05 82.05 187.4 82.5 187 82.9 186.75 83.95 185.55 84.75 183 85.35 181.6 85.4 181.45 85.55 181.1 85.75 180.7 85.95 180.05 86.3 179.55
L 86.3 179.5
Q 86.6 178.2 86.6 177 86.6 176.15 86.2 175.65 86.1 174.9 86 174.4 85.85 174.05 85.8 173.85 85.85 173.7 85.95 173.65 86.25 173.65 89.4 172.25 91.05 171.55 92.25 171.2 92.35 171.3 92.5 171.35 94.25 169.9 98.35 169.5 99 169.45 99.6 169.45 99.85 169.4 100.1 169.4 100.25 169.4 100.45 169.4 100.85 169.4 101.2 169.45 101.55 169.25 101.9 169.1 104.6 169.45 107.15 170.5 108.1 170.75 108.8 171.15 111.5 171.1 115.9 172.6 118.65 173.5 121.15 174.75 121.7 174.9 122.25 175.05 127.25 176.2 130.9 178.4 131 178.45 131.2 178.6 133.3 179.1 135.4 180.7 143.1 183.25 147 186 147.65 186.45 148.25 187 148.5 187.2 148.75 187.45 148.95 187.5 149.2 187.65 158.3 197.45 158.4 197.45 159.55 197.45 160.05 196.55 152.7 188.75 143.2 181.45 152.7 188.75 160.05 196.55 160.4 195.95 160.4 195.4 160.4 193.25 157.45 190.15 158.25 190 159 190 159.6 189.95 161.45 190
L 163.9 190.2
Q 164.35 190.2 164.75 190.2 165.05 190.3 165.45 190.35
L 166.05 190.35
Q 166.4 190.4 166.7 190.4 167.5 190.5 172.25 190.8 173.1 190.95 174.35 191
L 174.4 191.05
Q 175.65 192.05 176.5 192.7 179.15 195.75 180.9 196.7
L 180.9 196.75
Q 181.25 197.4 181.75 198.15 182 198.65 182.3 199 182.7 199.25 183.15 199.55 183.25 199.6 183.4 199.7 184.85 200.75 185.85 201.65 186.25 201.45 186.55 201.05 186.6 201 186.65 201 179.5 193.75 168.95 186.85 179.5 193.75 186.65 201 187.1 200.35 187.1 199.8 187.1 198.95 185.85 197.15 185.3 196.35 184.55 195.45 184.4 195.2 184.2 195 183.85 194.15 182.15 192.25 182.8 191.95 183.6 191.6 185.75 191 187.5 190.75 192 188.7 197.45 189.15 199.7 189.3 202.05 190.6 202.4 190.8 202.8 191.05 202.9 191.05 203 191.05
L 210.2 193
Q 210.3 192.3 210.5 191.7 205.3 189.4 199.85 187.45 205.3 189.4 210.5 191.7 210.95 190.2 211.95 188.8 212.35 188.2 212.95 187.6 215.25 185.05 219.55 182.9 221.45 181.15 225.8 179.75 226.45 179.3 227.05 178.9 227.7 178.5 228.35 178.15 219.8 176.7 215 170.75 214.35 170.8 213.85 170.9
L 210.85 177.35
Q 203.4 184.9 185.55 184.05 177.35 184.05 171.5 179.25 171.45 179.25 171.4 179.25 170.35 179 169.25 178.7 169.05 177.6 168.35 177.15
M 181.3 182.35
Q 180.7 182.55 179.9 182.55 178.45 182.55 176.95 182.05 174.4 181.8 172.25 179.45 171.85 179.35 171.5 179.25 177.35 184.05 185.55 184.05 203.4 184.9 210.85 177.35
L 213.85 170.9
Q 210.4 171.5 210.55 175.15 210.7 175.95 210.85 176.6 206.35 178.85 204.25 180.4 201 182.85 200.15 182.9 199.15 182.6 197.95 182.55 196.75 182.4 194.1 182.45 191.5 182.6 191 182.55 190.15 182.45 189.45 182.45 188.7 183.3 187.35 183.3 184.6 183.3 181.3 182.35
M 164.25 169.9
L 164.25 169.95
Q 166.2 173.7 168.6 176.5 168.7 176.2 168.8 175.95 168.85 175.85 168.85 175.8 166.5 173.2 165.35 169.6 164.85 169.6 164.25 169.9
M 164.25 169.95
L 164.25 169.9
Q 162.95 170.45 161.2 172.15 159.95 173.3 158.7 174.05 158.55 174.25 158.4 174.5 156.8 176.6 152.95 176.95 149.5 176.75 147.85 176.6 144.25 176.8 144.1 176.8 142.85 176.7 141.65 176.6 138.95 176.25 136.55 175.55 135.4 176 134.4 176.05 134 176.05 133.6 176 132.75 175.95 131.95 175.85 137.05 177.6 142.45 177.6 159 180.4 164.25 169.95 Z"/>
</g>

<path id="Layer0_0_1_STROKES" stroke="#492C23" stroke-width="2" stroke-linejoin="round" stroke-linecap="round" fill="none" d="
M 122.4 75.55
Q 132.95 62.55 150.15 64.7 175.5 71.9 175.65 84.6 182.4 74.65 193.9 75.2 205.7 75.45 214.4 80.7
L 221.5 87
Q 225.2 91.3 225.6 95.75 236.3 87.8 250.05 92.95 263.65 98.05 268 108.65 271.3 113.65 272.6 124.8 274.85 132.25 270.9 138.7 272.7 151.35 273.65 158.4
M 274.2 162.85
Q 274.35 164.25 274.35 166.25 274.15 170.15 273.3 176.25
M 272.55 181
Q 272.45 181.7 272.3 182.4 271.275 187.95 270.25 193.5
M 270.75 203.15
Q 272.05 245.65 259.2 277.1 259 278.75 258.75 280.4
M 258.6 281.6
Q 257.45 288.6 255.6 295.75
M 253.9 301.8
Q 253.4 303.4 252.85 305.05
M 246.3 322.1
Q 245.15 324.6 243.95 327.15 243.95 327.4 244 327.7
M 244.7 360.9
Q 244.7 360.95 244.7 361.05 244.7 362.1 244.7 363.2 244.7 363.75 244.7 364.2
M 90.65 364.2
Q 90.65 363.75 90.75 363.2 91.2 346.85 91.6 328.45 91.65 321.75 91.8 314.7 68.7 277.15 31.2 245.45 3.65 226.15 10.8 186.15
L 25.6 118.85
Q 34.8 97.35 52.8 98 51.7 87.55 66.25 73.2 81.5 61.85 96.65 63.55 116.1 65.8 120.95 74.4
M 120.6 111.25
Q 120.8 112.65 121.05 114.1 136.1 113.95 137.2 118.05 140.35 123.4 140.8 128.7
M 139.75 136.8
Q 138.05 141.7 133.85 146.5
M 164.25 169.9
L 175.65 84.6
M 219.85 122.65
L 225.15 100.3
Q 225.8 98 225.6 95.75
M 217.95 130.65
L 214.7 144.35 214.7 144.4
M 213 151.85
Q 210.95 164 214.3 169.85 214.65 170.3 215 170.75
M 228.35 178.15
Q 231.15 178.6 234.35 178.6 252 180.15 257.8 170.5 264.05 160.95 267.15 144.2
L 269.05 117.6
M 217.95 130.65
L 219.85 122.65
M 131.95 175.85
Q 137.05 177.6 142.45 177.6 159 180.4 164.25 169.95
L 164.25 169.9
M 171.5 179.25
Q 171.4 179.15 171.3 179.1
M 214.3 169.85
L 213.85 170.9
M 164.25 169.95
Q 166.2 173.7 168.6 176.5 169.9 177.95 171.3 179.1
M 168.95 186.85
Q 179.5 193.75 186.65 201
M 199.85 187.45
Q 205.3 189.4 210.5 191.7
M 179.2 224.9
Q 179.45 225.45 179.7 226.05
M 186.65 201
Q 194.35 208.8 198.1 216.95
M 213.85 170.9
L 210.85 177.35
Q 203.4 184.9 185.55 184.05 177.35 184.05 171.5 179.25
M 213 151.85
Q 213.05 151.5 213.1 151.15
L 214.7 144.4
M 228.35 178.15
Q 219.8 176.7 215 170.75
M 240 208.45
Q 241.85 209.8 243.65 211.2
M 273.65 158.4
Q 273.95 160.7 274.15 162.4 274.2 162.6 274.2 162.85
M 274.35 166.25
Q 273.85 166.55 273.35 166.9
M 272.55 181
Q 272.95 178.45 273.3 176.25
M 270.75 203.15
Q 270.6 198.4 270.25 193.5
M 258.6 281.6
Q 258.65 281 258.75 280.4
M 253.9 301.8
Q 254.8 298.75 255.6 295.75
M 273.35 166.9
Q 269.4 169.2 265.55 169.85
M 235.45 305.7
Q 245.75 307.85 252.55 305.95 252.7 305.5 252.85 305.05
M 265.55 169.85
Q 263.5 170.2 261.5 170.05
M 120.6 111.25
Q 118.1 94.25 121.8 76.25 121.45 75.3 120.95 74.4
M 121.8 76.25
Q 122.1 75.9 122.4 75.55
M 101.55 113.25
L 121.05 114.1
Q 93.2 108.65 62.15 99.65 57.15 98.05 52.8 98
M 42.15 136.05
Q 42.15 135.8 42.2 135.6
M 33.25 185.65
Q 30.1 184.35 27.35 182.45
M 30.05 158.1
Q 32 159.9 33.9 161.55
M 40.85 167.05
Q 57.35 178.9 69.75 176.3
M 42.15 136.05
Q 52.7 162.05 77 168.2 79.15 168.75 81.45 169.15
M 116.45 160.25
Q 117.1 159.85 117.75 159.45 120.35 157.9 123 155.9 129.65 151.25 133.85 146.5
M 140.8 128.7
Q 141.1 132.75 139.75 136.8
M 124.35 136.8
Q 122.6 138.05 120.75 139.15 105.1 138.6 94.1 132.2 84.75 121.15 95.4 113
L 101.55 113.25
M 124.35 136.8
Q 132.1 130.95 136.55 121.25 137.6 119.35 137.2 118.05
M 81.45 169.15
Q 81.6 169.15 81.8 169.2 84.2 169.6 86.8 169.8 102.2 168.7 116.45 160.25
M 117.7 160.45
Q 117.7 159.95 117.75 159.45
M 81.8 169.2
Q 76 179.65 64.9 185.2
M 74.55 190.65
Q 78.2 188.25 81.85 185.3 86.1 178 82.3 176.1
M 143.2 181.45
Q 152.7 188.75 160.05 196.55
M 64.9 185.2
Q 62.1 186.55 59.05 187.6 44 190.1 33.25 185.65
M 33.9 161.55
Q 37.45 164.6 40.85 167.05
M 129.85 175
Q 124.6 172.75 119.65 168.55 118.6 166.65 118.15 164.6 117.65 162.6 117.7 160.45
M 131.95 175.85
Q 130.85 175.45 129.85 175
M 181.35 251.8
Q 182.3 247.9 183 243.7
M 141.95 301.5
Q 141.8 301.55 141.7 301.6 125.05 308.45 102.1 308.2
M 133.2 312.8
Q 146 311 155.9 307.1
M 181.95 285.75
Q 182.35 285.05 182.7 284.35
M 152.8 315.55
Q 155.6 314.65 158.4 313.65 194.85 299.15 225.05 318.3
M 93.1 315.1
Q 92.45 314.9 91.8 314.7
M 136.1 351.5
Q 108.15 350.9 91.6 328.45
M 152.8 315.55
Q 122.95 324.65 93.1 315.1
M 231.85 304.85
Q 233.7 305.35 235.45 305.7
M 194.65 364.2
Q 194.65 363.75 194.65 363.2 194.65 356.55 194.85 349.95
M 162.35 359.75
Q 162.35 361.5 162.35 363.2 162.3 363.75 162.35 364.2
M 243.85 327.2
Q 232.95 329.25 217.45 327 202.45 325 187.75 320.55
M 243.95 327.15
Q 243.9 327.15 243.85 327.2
M 244.7 360.9
Q 244.6 344 244 327.7
M 246.3 322.1
Q 249.85 314 252.55 305.95
M 141.95 301.5
Q 172.4 288.7 181.35 251.8
M 155.9 307.1
Q 173.8 299.95 181.95 285.75
M 160.05 196.55
Q 172.85 210.05 179.2 224.9
M 46.55 200.95
Q 60.7 199.7 74.55 190.65
M 210.5 191.7
Q 226.7 198.7 240 208.45"/>
</defs>

<g transform="matrix( 1, 0, 0, 1, 0,0) ">
<use xlink:href="#Layer0_0_FILL"/>

<use xlink:href="#Layer0_0_1_STROKES"/>
</g>
</svg>
