<svg xmlns="http://www.w3.org/2000/svg" xmlns:xlink="http://www.w3.org/1999/xlink" preserveAspectRatio="none" width="285" height="427" viewBox="0 0 285 427"><defs><g id="a"><path fill="#EFBD9C" d="M244.7 363.2v-2.15q-.05 1.05-.1 2.15-.05.45-.05 1h.15v-1m-.75-36.05q-.05 0-.1.05.05.25.15.5-.05-.3-.05-.55m-.15-.2q.05.1.05.25.05-.05.1-.05 1.2-2.55 2.35-5.05-.55.4-1 .5-.1 1.95-1.5 4.35m-61.1-126.2q.2-.65.45-1.2-.45-.3-.85-.55-.3-.35-.55-.85-.5-.75-.85-1.4-1.15 1.05-2.9 1.8 3.05 1.35 4.7 2.2m75.9 80.85q-.3.8-.55 1.7-1.25 7.15-2.45 12.45 1.85-7.15 3-14.15m12.15-78.45q-.15 7.6-1.05 20.6-1.95 28.2-5.85 35.8-.4.65-.8 1.2-.2 1-.6 2.05-2.3 7.2-3.05 10.45-1.15 4.45-.65 7.15.25-1.65.45-3.3 12.85-31.45 11.55-73.95m-151.15-36.2l-.1.2q.4.4.85.8 2.55 2.4 4.85 4.1 2.25 1.6 4.25 2.5 1.05.45 2.05.7 1.35.35 2.9.8 1-.05 2.15-.5 2.4.7 5.1 1.05 1.85-1.35 6.9-.95 1.05.05 4.35-.95.05 0 .15-.05-4.7.45-5 .45-2.95-.2-6.6-1.4l-4.85.6q-9.4-.65-13.35-11.1-1-2.45-1-4.45-2.65.95-4.55 1.7-.05 2.15.45 4.15.65 1.2 1.45 2.35m-2.95-6q.25.9.65 1.9.4.9.85 1.75-.5-2-.45-4.15-.55.25-1.05.5m23.1-24.15q-.45.5-1 .9-2.6 1.9-3.4 4.85-.4 1.65-1.5 3.95 4.2-4.8 5.9-9.7m-3.2-15.55q1.05-1.9.65-3.2-1.1-4.1-16.15-3.95l-19.5-.85q-.5 1.5-2.2 3.15-2.3 2.15-3.45 6.25-1.15 4.15 3.85 7.1 4.9 2.9 9.2 3.7 1.9.3 9.7 1.35 4.1.8 5.7 2 7.75-5.85 12.2-15.55m.65-3.2q.4 1.3-.65 3.2-4.45 9.7-12.2 15.55.3.25.55.5.2-.15.4-.4 2.7-2.55 7.15-7.15 3.5-3.15 5.05-3.05 2.4.1 3.3 2-.45-5.3-3.6-10.65m-60.15 49.7q0 .25-.05.45 2.15.55 4.45.95v-.1h.45q.1 0 .25.05 1-.8 2.45-1.45 1.45.3 3.15.4.05 0 .8.05 1.7-.15 3.65-.5-2.9.05-6-.15-4.6-.3-8.1-4-1.65-.1-4.85-.05 3.95 2.55 3.8 4.35m2.65 1.7q.6.2 1 .55.2-.1.45-.1.15-.4.3-.75-2.3-.4-4.45-.95-.05.55-.25 1 1.2.35 2.2.65.1-.1.2-.15.25-.1.55-.25m34.35-98.2q2 1.65 4.4 2.3 1.2.55 2.5.85-4.85-8.6-24.3-10.85-15.15-1.7-30.4 9.65Q51.7 87.55 52.8 98q4.35.05 9.35 1.65 31.05 9 58.9 14.45-.25-1.45-.45-2.85-.2.05-.35.15-1.85.95-3.45.8-3.15-.2-4.1-2.45-1.6-3.15-.95-13.15.15-1.1-1.55-3.15-.1-4.85-2.3-6.95-1.6-1.6-5.5-1.8-4.4-.3-7.25 1.95-.75.55-1.35 1.25-.6.05-1.25 0-3.35 1.9-4.25 2.35-1.4.5-2.85.25.2 5.2-1.7 7.15-1.2 1.15-2.75 1-2.25-.1-3.05-2.1-.75-1.85-1.6-8.35.7-4.05 3.2-5.1 1.3-.55 3.75-.95 5.1-2.7 8.4-6.65 1.8-2 5.85-1.7 3.15.2 6.8 2.7 5 3.7 7.1 4.55.55-6.9 2.6-9.8M272.3 182.4q.15-.7.25-1.4-.45 1.05-.9 2.3-1.05 2.95-1.75 8.95.2.55.35 1.25l2.05-11.1m2.05-16.15q0-2-.15-3.4-.55 1.85-.85 4.05.5-.35 1-.65m-1 .65q-.2 1.35-.3 2.8.15 4.2.25 6.55.85-6.1 1.05-10-.5.3-1 .65M215 170.75l-.7-.9-.45 1.05q.5-.1 1.15-.15m-43.6 8.5h.1q-.1-.1-.2-.15.05.05.1.15m-4.25-56.75q-2.7 4.55-2.3 18.6-.65 6.2-.1 10.05-.1.2-.1.35-1.35 5.2-1.15 9.05-.75.75-1.7 1.45-1.2 3.65-1.2 4.1-.45 5.8-5 7.9.85-.2 1.05-.2.85.05 1.75.7.15-.25.3-.45 1.25-.75 2.5-1.9 1.75-1.7 3.05-2.25l11.4-85.3q-.15-12.7-25.5-19.9-17.2-2.15-27.75 10.85 0 2.65-.8 6.6.15 0 2.6.4-.3 2.15-.2 4.65.1 5.55 2 9.4-.25.35-.45.7-1 2.4.15 5.25.85 2.2-2.35 6.35-1.1 1.45-2.75 2.35.2 1.4.45 2.85 15.05-.15 16.15 3.95 3.15 5.35 3.6 10.65.6 1.3.45 3.55-.15 2.9-1.5 4.55-1.7 4.9-5.9 9.7-1.25 2.55-3.3 5.9-.65 1.15-1.45 1.95.4.5.75.95 2.95 4.35 3 4.4l.35.15q.05-4.6 4.45-4.25 1.65.1 2.9.9 1.4.85 2.5.9 2.15.15 3.2-2.55.6-1.45 1.25-6.05 1.55-8.8 5.55-8.55 1.15.1 2.2.75 1 .65 1.4 1.7.4-.6 1.1-1.1 1.65-1.35 2-5.95.05-1.15-.45-7.2.3-4.05 3.65-5.85 1.85-.95 3.5-1.15.4.1.8.15 0 .45-.1.9m2.3-44.4q2.7 4.3 2.2 11.7-.85 12.15-3.7 15.1-.8.75-3.6.55-1.7-.1-2.7-.75-1.5-1-2-3.2-.45.5-.75 2.6-.3 2-1 2.6-1.2.75-2.1 1.05-.4 0-1.45-.1-8.35-.6-.7-11.75 2.45-3.8 6.15-7.7 3.2-3.4 3.8-3.4-.1-.6-1.8-2.85-1.4-1.75-1.25-3.8.1-2.45 2.2-3.15 1-.4 2.1-.35 2.5.2 4.6 3.45m48.5 52.55q-.3.6-.65 1.25-2.9 5.25-3 6.85 0 .6.2 2.75.2 2.2.2 2.85l3.25-13.7m1.9-8l.5.9q-.2 2.7-2.4 7.1l-3.25 13.7v.05q1.1 3.1 1.05 3.4-.15 2.05-1.65 3.05-.75.5-1.1 1-2.05 12.15 1.3 18l.7.9h.55q2.4 2.7 5.6 3.9v.25q.1.25.25.65 4.7 1.2 7.3 2.4-.2.1-.35.2 2.8.45 6 .45 17.65 1.55 23.45-8.1 6.25-9.55 9.35-26.3l1.9-26.6-1.9 26.6q-3.1 16.75-9.35 26.3-5.8 9.65-23.45 8.1-3.2 0-6-.45-.65.35-1.3.75 1.9.45 4 .65 1 .1 7.95-.65 6.4.15 6.05 5.25-.2 2.25-7.4 4.05-6 1.5-8.1 1.35-.6 0-5.6-2.6l-5-2.45q-2.8 1.6-6 3.1-.6.6-1 1.2 2.25.7 3.05 1.3 3.3 1.95 15.65 7.3 10.7 5.15 10.45 8.4-.05 1.7-1.1 2.65 1.85 1.35 3.65 2.75-1.8-1.4-3.65-2.75-.5.4-1.25.65-2.25.25-2.35.2-.55 0-12.65-6.05-12.6-6.45-16.7-7.5-4.85-1.35-7.2-1.85-.85-.25-1.6-.4-7.6 2.45-12.75 2.05-.45-.05-.95-.1.75.9 1.3 1.7.5-.15 1.05-.1.95.15 7.1 8.8 5.95 8.9 5.9 10.05-.25 2.85-2.7 3.9-2.35.6-2.45.6-.3-.1-8.2-5.8-9.2-6.7-14.45-9.85 3.2 3.75 5.6 7.05 4.85 6.3 4.5 9.65-.1 2.55-2.2 3.35-.45.05-.8.1.25.55.5 1.15-.25-.6-.5-1.15-1.3.1-1.4.1-2.6-2.75-6.45-6.4-7.75-7.2-15.75-11.35-2.15-1.15-5.8-1.2-4 .25-5.95.05-3-.65-6.05-2.15-2.5-1.05-5.4-1.25-2.85-.2-11.65.55-8.8.65-10.25.5-2.3-.15-3.85-2.3-1.85-2.7 1.95-4.9 1.2-.7 3.5-.8 1.3-.1 3.8-.15.65-.05 1.6-.2-1.95-1.05-4.05-2.25-6.75-3.8-9.95-6.9.05.9.05 1.85-.2 2.65-5.4 10.2-5.65 7.65-6.35 8.55-4.15 5.5-5.55 6.75-2.15 1.9-5.3 1.6-5.95-.35-2.65-5.85 1.9-2.95 6.25-9 .5-.6 7.3-9 1.2-1.55 2.25-2.7-8.7 2.3-8.55 2.3-3.75-.25-5.75-1.5l-.15-.15q-.2.15-.45.35.15.6.15 1.3Q78.9 197 63.7 201.8q-15.1 3.45-15.35 3.45-2.9-.2-4.25-3.2-1.5-3.2 3.75-4.65.7-.2 4.5-.8 3-.55 4.65-1 .65-.2 1.6-.45-2.85-.8-2.3-3.15.05-.25.1-.45-2.7.3-5.55.45-5.15.05-5.3.05-9.6-.65-11.9-5.2-.35-.65-.4-1.2-3.15-1.3-5.9-3.2 2.75 1.9 5.9 3.2-.2-1.05.5-1.75 1-1.3 3.45-1.2 8.35 1.65 8.95 1.65 8.1.6 16.3-2.9-2.15-1.5-2.2-3.8v-.45q-13.9-1.05-23.15-9.2-3.6-3.15-3.6-5.4 0-.65.4-1.05-1.9-1.65-3.85-3.45 1.95 1.8 3.85 3.45.95-1.15 4.2-.9.9.05 8.5 4.2 8.5 4.15 14 4.6h.9q.15-1.7 1.25-2.7-.4-.2-.8-.45-5.8-4.4-10.8-10.25-5.1-6.1-6.1-9.85 0-.2.05-.35-1.5-2.5-2.3-5.4-.7-2.65-.65-4.4 0-.25.05-.45.3-3.6 4.2-3.35 1.6.15 3.75 3.35 2.7 4.15 2.45 9.7 1.2 1.55 3.05 3.5 7 8.05 7.55 8.55.2.2 2.5 1.6.45-.75 1.05-1.6 1.7-1.95 4.15-3.7 2.35-1.55 3.2-1.55 1.2.05 2.8.9 1.8.85 2.5.95.1 0 .2-1.05.4-1.35-1.95-2.65-2.35-1.4 2.45.55 4.8 1.8 15.75 2.15 10.9.35 20.5-4.8 9.55-5.2 4.1-6.9l-.4.05q-2.7-.25-6.7-1.25-4.2-.9-9.8-1.3-2.85-.2-8.95-3.1-8.3-3.95-7.95-8.45 0-.55.65-1.15.55-.55.6-1.15.15-1.85-1.65-4.2-.6-2.7 4.95-7.25 1.15-.9 8.15-3.9 2.55.15 2.35 2.8-.05.45-.15.9l19.5.85q-27.85-5.45-58.9-14.45-5-1.6-9.35-1.65-18-.65-27.2 20.85l-14.8 67.3q-7.15 40 20.4 59.3 37.5 31.7 60.6 69.25l1.3.4q.05-2.6 3.85-2.3 2.65.15 7.25 1.1 1.5-.7 4.05-.3 3.2.4 9.55 1.55 2.7-.05 7.75.15 5.8.25 8.15.25 3.8 0 9.95-1.55l5.7-1.45q1.05.1 2.1.95 1.1.85 1.35 2.05 2.8-.9 5.6-1.9 36.45-14.5 66.65 4.65-30.2-19.15-66.65-4.65-2.8 1-5.6 1.9.1.55.05 1.15-.45 6.15-18.9 6.7l-16.95-.75q-.25.25-.65.45-1.1.6-2.05.5-2.15-.4-4-.7-1.25-.05-2.35-.2-1.7-.15-2.9-.7-2.65-.25-4.55-.4-6.5-1.45-7.3-5.3-.15-.65-.1-1.2l-1.3-.4q-.15 7.05-.2 13.75 16.55 22.45 44.5 23.05-27.95-.6-44.5-23.05-.4 18.4-.85 34.75-.1.55-.1 1h71.7q-.05-.45 0-1v-3.45 3.45q-.05.55 0 1h21.85q.1-.45.3-.9 0-.1.1-.1.85-1.65.95-2.75.1-1.1-.5-2.65-.75-1.55-.65-2.55.5-7.5 5-8.35.55-.2 3.35-.2 1.75-.05 2.2-.7 2.85-4.7 6.4-6.2 2.1-.85 4.9-.65 2.8.2 3.85.55 2.7 1.05 2.5 3.8 0 .6-4.2 5.1-4.9 5.4-5.6 6.4.7.5 2.35.7 1.1 1.15.8 7.5-.05.2-.05.4v.6h29.55v-1q-.05-9-.05-18.85.1-5.15.45-9-1.75 1-3.4 1-1.05-.15-7.25.2-6.2.15-6.9.1-7.35-.45-5.3-4.8-1.25-.25-2.6-.6-6.6-1.7-11.15-2.2-12.7-1.65-13.6-6.25-.4-1.7 1.45-2.9 1.9-1.2 4.9-1 2.7.2 19.2 4.75 2.7.6 10.4.85l3.2-1.6q1.25-.1 4.15-5.3 1.25-2.25 4.4-8.4 1.05-2.1 2.1-3.5-1.75-.35-3.6-.85 1.85.5 3.6.85 1.65-2.2 3.25-2.75 1.5-.6 1.7-4.35.1-.6.7-1.6.6-1.15.65-1.7.1-.2-1.45-3.6 0-.6.6-1.45.4-.85.45-1.4 0-.1-1.05-3.4.2-2.5 2.4-3.35 2.15-.85 2.3-2.25 0-.2-1.6-4.05.1-1.6 2.65-4.55 2.35-2.95 2.5-4.8 0-.8-3.1-12.2 0-.6.65-1.45.6-.85.75-1.45 0-.15-.8-1.2-.75-1.1-.65-2.15.1-1.2.85-2.1.7-1.05.7-1.15.05-.45-.8-1.95-.75-1.4-.7-2.05.15-1.45 1.75-2.7 1.8-1.25 1.85-3-.3-.65-.8-1.45-.85-1.45-.75-2.25.2-3.8 3-5.6 1.9-1.3 3.75-1.2-.3-.7-2.05-2.7-1.1-1.25-.95-3.05.3-3.85 3.9-4.2 1.95-.15 4.35.6 4.2-35.25 6.05-45.35-2.05.35-4.05.2 2 .15 4.05-.2.25-1.4.45-2.3 1.25-5.6 3.05-7.55 1.5-1.8 4.35-1.65.1 0 .25.05-.95-7.05-2.75-19.7 3.95-6.45 1.7-13.9-1.3-11.15-4.6-16.15-4.35-10.6-17.95-15.7-13.75-5.15-24.45 2.8.2 2.25-.45 4.55l-5.3 22.35m19.4-10.8q.2-2.55 2-4.6 1.9-2.1 4.15-1.9 1.8.15 7.45 2.6.1-.35-.1-1.6-.2-1.4-.05-1.9.15-3.15 2.75-4.35 1.3-.6 2.7-.6 2.8.3 3.85 2.6.55 1.6.55 4.6.65-.4 1.3-.95 1.5.05 2.65 1 1.25 1.2 1.1 3.5-.15 2-1.9 3.55-1.8 1.35-1.85 3-.15 1.25.65 3.55.75 2.35.55 4.95-3.3 11.2-3.45 13.25-.1 1 1.05 3.35 1.15 2.25 1 3.4-.15 2.45-2.15 3.5-2.2 1.05-2.2 1.6-.05.5.2 4.85.3 4.25.2 4.85-.1 2.2-8.85 8.5-.8.6-1.45 1.05-1.2 4-6.45 5.8l-6.1 1.15q-3.15-.25-5.2-3.85-2.15-3.65 4.05-3.95 1.75.1 5.35-2.5.65-.45 1.2-.8.15-.6.55-1.2 2.8-5 6.5-9.95.1-1.15-2.35-2.4-2.4-1.25-2.3-3.8.2-2.75 3.25-3.3 2.85-.6 3-1.75 0-.65-.7-3.7-.8-3-.75-3.4.15-2.3 1.7-5.4 1.4-2.8 2.85-4.2-.35-1.25-1.4-2.75-.85-1.05-.8-2.4.1-.75.35-1.8-1.6.3-3.1.2-10.25-.75-9.8-7.8M138.45 294.7q1.05-.35 7.9-3.35 1.6-1.55 3.35-2.55.9-.4 6.5-4.2.5-.9 1.35-1.9 3.05-3.5 9.1-8.75 1.3-1.95 6.55-14.4 3.35-8.2 7.25-7.95.45 0 .9.2.95-3.9 1.65-8.1-.7 4.2-1.65 8.1.6.2 1.2.6 1.65 1.2 1.5 3.3-.6 8.45-10.45 21.8-7.8 10.8-12.15 12.35-.65.6-1.5 1.25-.1.2-.1.45-.2 3.15-9.85 7.2-5 3.8-4.8 3.85-2.35-.2-3.25-1.1-.15.05-.25.1-16.65 6.85-39.6 6.6 22.95.25 39.6-6.6-11.45 3.3-11.55 3.3-2.8-.2-4.25-2.95-1.6-3.1 3.65-4.65 3-.95 8.9-2.6m19.45 12.65q-1.15-.05-2-.25-9.9 3.9-22.7 5.7 12.8-1.8 22.7-5.7-4.4-1-.9-4.95 2.55-2.85 8.5-6.65 1.45-1.15 6.95-7.6 5.45-5.75 7.95-5.55 1.2 0 2.3.95 1.1.95 1.25 2.45.4-.7.75-1.4-.35.7-.75 1.4v.55q-.45 5.75-12.15 14-10.25 7.1-11.9 7.05m36-232.15q-11.5-.55-18.25 9.4l-11.4 85.3q.6-.3 1.1-.3 1.15 3.6 3.5 6.2 0 .05-.05.15.75.9 1.85 2.35.3.4.65.8.1.05.2.15.35.1.75.2 2.15 2.35 4.7 2.6 1.5.5 2.95.5.8 0 1.4-.2 3.3.95 6.05.95 1.35 0 2.1-.85.7 0 1.55.1.5.05 3.1-.1 2.65-.05 3.85.1 1.2.05 2.2.35.85-.05 4.1-2.5 2.1-1.55 6.6-3.8-.15-.65-.3-1.45-.15-3.65 3.3-4.25l.45-1.05q-3.35-5.85-1.3-18-.4.45-.4.95-.15 1.6-1.65 4.75-1.9 3.7-2.05 4.25l-2.55 7.8 1.35 4.2q-.3 3.8-8.8 6.1-8.25 1.65-8.35 1.65-6.25-.45-10.55-2.3-4.15-1.7-4.5-3.9-.45-4.2 11.25-5.9.35-.4.75-.8 2.3-2.15 5.45-4.15 2.6-1.75 3.6-1.9 6.55-13.45 6.65-14.65.05-.6-.35-1.4-.45-.85-.4-1.35.1-1.1 3.75-11 1.8-5.05 3.6-9.9-1.25-4.75-1.25-4.95.3-3.35 2.5-4.65 1.15-.6 2.4-.55 1.8.15 6.4 8.5l5.3-22.35q.65-2.3.45-4.55-.4-4.45-4.1-8.75l-7.1-6.3q-8.7-5.25-20.5-5.5m-3.6 20.9q3.1-1.8 3.5-2.3 1.9-1.65 3.2-1.9.4 0 3.1.2 2.75.2 4.65.75 2.95.95 6.25 1.55.85-2.45 2.25-3.65 1.1-1.05 2.3-.9 1.7.15 4.2 2.25 3.15 2.75 2.95 6.3-.65 9.15-2.9 11.7-.9 1.05-3.35.9-1.65-.1-2.6-.9-1.35-1.1-3.15-4.8-3.25.6-4.05.45-.85-.3-2.4-.4-.35-.1-1.85 1.05-1.5 1.15-2.5 1.15-1.3-.15-6.1-3.1-5.15-3.25-5.25-4.75-.3-2.4 1.75-3.6z"/><path fill="#D09A7C" d="M244.7 360.9q.1-3.6.2-6.95.7-18.6-.9-26.25.6 16.3.7 33.2m4.95-43.55q.4-2.45 3.05-11.2.05-.5.15-1.1l-.3.9q-2.7 8.05-6.25 16.15 1.35-1.15 3.3-4.55 0-.1.05-.15v-.05m4.25-15.55q.15-.45.4-.9 0-.2.15-.35.55-2.2 1.15-4.8-.8 3-1.7 6.05m-41.3 41.7q.2-2.75-2.5-3.8-1.05-.35-3.85-.55-2.8-.2-4.9.65-3.55 1.5-6.4 6.2-.45.65-2.2.7-2.8 0-3.35.2-4.5.85-5 8.35-.1 1 .65 2.55.6 1.55.5 2.65-.1 1.1-.95 2.75-.1 0-.1.1-.2.45-.3.9h10.45v-1q0-6.65.2-13.25-.2 6.6-.2 13.25v1h11.25v-.6q0-.2.05-.4.3-6.35-.8-7.5-1.65-.2-2.35-.7.7-1 5.6-6.4 4.2-4.5 4.2-5.1m20.75-34.3q-3.15 6.15-4.4 8.4-2.9 5.2-4.15 5.3l-3.2 1.6q-7.7-.25-10.4-.85-16.5-4.55-19.2-4.75-3-.2-4.9 1-1.85 1.2-1.45 2.9.9 4.6 13.6 6.25 4.55.5 11.15 2.2 1.35.35 2.6.6-2.05 4.35 5.3 4.8.7.05 6.9-.1 6.2-.35 7.25-.2 1.65 0 3.4-1-.35 3.85-.45 9 0 9.85.05 18.85v1h9.1q0-.55.05-1 .05-1.1.1-2.15v-.15q-.1-16.9-.7-33.2-.1-.25-.15-.5-10.9 2.05-26.4-.2-15-2-29.7-6.45 14.7 4.45 29.7 6.45 15.5 2.25 26.4.2 0-.15-.05-.25 1.4-2.4 1.5-4.35.45-.1 1-.5 3.55-8.1 6.25-16.15-6.8 1.9-17.1-.25-1.05 1.4-2.1 3.5m25.25-27.6q.1-.4.25-.75-.05-.2-.1-.45-.1.6-.15 1.2m-105.75 35.1q.05-.6-.05-1.15-29.85 9.1-59.7-.45-.05.55.1 1.2.8 3.85 7.3 5.3 1.9.15 4.55.4 1.2.55 2.9.7 1.1.15 2.35.2 1.85.3 4 .7.95.1 2.05-.5.4-.2.65-.45l16.95.75q18.45-.55 18.9-6.7m-3.5-4.15l-5.7 1.45q-6.15 1.55-9.95 1.55-2.35 0-8.15-.25-5.05-.2-7.75-.15-6.35-1.15-9.55-1.55-2.55-.4-4.05.3-4.6-.95-7.25-1.1-3.8-.3-3.85 2.3 29.85 9.55 59.7.45-.25-1.2-1.35-2.05-1.05-.85-2.1-.95M129.85 175q.1.2.1.35 1 .3 2 .5-1.1-.4-2.1-.85m2.1.85q.8.1 1.65.15.4.05.8.05-1.55-.45-2.9-.8-1-.25-2.05-.7.25.2.4.45 1 .45 2.1.85m-47.4-7.7h1.95q1 0 2.05-.05-.75-.05-.8-.05-1.7-.1-3.15-.4-1.45.65-2.45 1.45h1.3q.45-.5 1.1-.95m34.95-1q-.05.15-.1.25.3.05.55.2 1.45 1.85 3.2 3.5 1.1.5 2.05.95-2.3-1.7-4.85-4.1-.45-.4-.85-.8m-1.75-7.7l-1.3.8.2.7q.5-.25 1.05-.5 0-.5.05-1m-21.85-36.8q1.15-4.1 3.45-6.25 1.7-1.65 2.2-3.15L95.4 113q-10.65 8.15-1.3 19.2 11 6.4 26.65 6.95 1.85-1.1 3.6-2.35-1.6-1.2-5.7-2-7.8-1.05-9.7-1.35-4.3-.8-9.2-3.7-5-2.95-3.85-7.1m45.35 9.6q.15-2.25-.45-3.55.3 4.05-1.05 8.1 1.35-1.65 1.5-4.55m-61.6 57.05l.15.15q2 1.25 5.75 1.5-.15 0 8.55-2.3-1.05 1.15-2.25 2.7-6.8 8.4-7.3 9-4.35 6.05-6.25 9-3.3 5.5 2.65 5.85 3.15.3 5.3-1.6 1.4-1.25 5.55-6.75.7-.9 6.35-8.55 5.2-7.55 5.4-10.2 0-.95-.05-1.85 3.2 3.1 9.95 6.9 2.1 1.2 4.05 2.25-.95.15-1.6.2-2.5.05-3.8.15-2.3.1-3.5.8-3.8 2.2-1.95 4.9 1.55 2.15 3.85 2.3 1.45.15 10.25-.5 8.8-.75 11.65-.55 2.9.2 5.4 1.25 3.05 1.5 6.05 2.15 1.95.2 5.95-.05 3.65.05 5.8 1.2 8 4.15 15.75 11.35 3.85 3.65 6.45 6.4.1 0 1.4-.1-6.35-14.85-19.15-28.35-.5.9-1.65.9-.1 0-9.2-9.8-.25-.15-.45-.2-.25-.25-.5-.45-.6-.55-1.25-1-3.9-2.75-11.6-5.3-2.1-1.6-4.2-2.1-.2-.15-.3-.2-3.65-2.2-8.65-3.35l-1.1-.3q-2.5-1.25-5.25-2.15-4.4-1.5-7.1-1.45-.7-.4-1.65-.65-2.55-1.05-5.25-1.4-.35.15-.7.35-.35-.05-.75-.05h-.35q-.25 0-.5.05-.6 0-1.25.05-4.1.4-5.85 1.85-.15-.05-.25-.15-1.2.35-2.85 1.05-3.15 1.4-3.45 1.4-.1.05-.15.2.05.2.2.55.1.5.2 1.25.4.5.4 1.35 0 1.2-.3 2.5v.05q-.35.5-.55 1.15-.2.4-.35.75-.05.15-.65 1.55-.8 2.55-1.85 3.75-.4.25-.85.65-.9.65-1.95 1.55-.2.2-.45.35M80.7 170q.15.1.25.25.1-.2.2-.35-.25 0-.45.1m-46.95 13.9q-.7.7-.5 1.75 10.75 4.45 25.8 1.95 3.05-1.05 5.85-2.4-.1-.1-.15-.2-.25-.9-.25-.95 0-1.4 5-4.5.2-.1.3-.2.5-1.05 2.3-2.75-4.1 1.4-7.55 1.4-1.45 0-2.1-.65-5.4-.75-12.55-3.5-9.2-3.6-9.2-5.7 0-.65.15-1.1-3.4-2.45-6.95-5.5-.4.4-.4 1.05 0 2.25 3.6 5.4 9.25 8.15 23.15 9.2v.45q.05 2.3 2.2 3.8-8.2 3.5-16.3 2.9-.6 0-8.95-1.65-2.45-.1-3.45 1.2m-.5 1.75q.05.55.4 1.2 2.3 4.55 11.9 5.2.15 0 5.3-.05 2.85-.15 5.55-.45-.05.2-.1.45-.55 2.35 2.3 3.15-.95.25-1.6.45-1.65.45-4.65 1-3.8.6-4.5.8-5.25 1.45-3.75 4.65 1.35 3 4.25 3.2.25 0 15.35-3.45 15.2-4.8 15.65-10.85 0-.7-.15-1.3-1.85 1.35-4.65 2.8-.2-.4-.2-1 0-.2.25-.6l-.05-.2q-13.85 9.05-28 10.3 14.15-1.25 28-10.3v-.05q0-1.25 3.35-5.05 1.5-1.75 2.45-2.75.05-.45.45-1.25.45-1.05.45-1.85 0-1.3-.85-2.3-.4-.55-.6-.9-.1 0-.25.1-3.35 4.75-13 9.35-1.1 0-1.65-.75-2.8 1.35-5.85 2.4-15.05 2.5-25.8-1.95m9.55-45.2q.8 2.9 2.3 5.4-.05.15-.05.35 1 3.75 6.1 9.85 5 5.85 10.8 10.25.4.25.8.45-1.1 1-1.25 2.7h-.9q-5.5-.45-14-4.6-7.6-4.15-8.5-4.2-3.25-.25-4.2.9 3.55 3.05 6.95 5.5.15-.5.5-.75.75.65 2.2 1.9.5.5 1.95 1.3 1.5.8 2.15.8h.55q1.05.55 2.45 1.2 3 1.35 5.5 1.95 2.55 1.45 6.6 1.45 1.3 0 2.45-.25 5.85 0 8.15-1.7.75-.2 1.35-.5 1.05-.45 1.75-1.05.2.1.35.2l.1-.2q.1-.1.1-.2.05-.2.2-.35.8-.45 1.75-1-1-.3-2.2-.65.2-.45.25-1-24.3-6.15-34.85-32.15-.05 1.75.65 4.4m9.8 4.85q.25-5.55-2.45-9.7-2.15-3.2-3.75-3.35-3.9-.25-4.2 3.35-.05.2-.05.45 10.55 26 34.85 32.15.05-.2.05-.45.15-1.8-3.8-4.35 3.2-.05 4.85.05 3.5 3.7 8.1 4 3.1.2 6 .15 2.85-.5 6.2-1.5 1.9-.6 3.35-1.1.5-.1.95-.1 1.25-.6 2.15-1.3.8-.4 1.45-.85.55-.2 1-.35 6.75-2.1 9.05-2.5.05.15.1.35l1.3-.8q2.6-1.55 5.25-3.55 6.65-4.65 10.85-9.4 1.1-2.3 1.5-3.95.8-2.95 3.4-4.85.55-.4 1-.9 1.35-4.05 1.05-8.1-.9-1.9-3.3-2-1.55-.1-5.05 3.05-4.45 4.6-7.15 7.15-.2.25-.4.4-.25-.25-.55-.5-1.75 1.25-3.6 2.35-15.65-.55-26.65-6.95-9.35-11.05 1.3-19.2l6.15.25q.1-.45.15-.9.2-2.65-2.35-2.8-7 3-8.15 3.9-5.55 4.55-4.95 7.25 1.8 2.35 1.65 4.2-.05.6-.6 1.15-.65.6-.65 1.15-.35 4.5 7.95 8.45 6.1 2.9 8.95 3.1 5.6.4 9.8 1.3 4 1 6.7 1.25l.4-.05q5.45 1.7-4.1 6.9-9.6 5.15-20.5 4.8-10.95-.35-15.75-2.15-4.8-1.95-2.45-.55 2.35 1.3 1.95 2.65-.1 1.05-.2 1.05-.7-.1-2.5-.95-1.6-.85-2.8-.9-.85 0-3.2 1.55-2.45 1.75-4.15 3.7-.6.85-1.05 1.6-2.3-1.4-2.5-1.6-.55-.5-7.55-8.55-1.85-1.95-3.05-3.5m69.8-69.75l-.6.7q-3.7 18-1.2 35 1.65-.9 2.75-2.35 3.2-4.15 2.35-6.35-1.15-2.85-.15-5.25.2-.35.45-.7-1.9-3.85-2-9.4-.1-2.5.2-4.65-2.45-.4-2.6-.4.8-3.95.8-6.6m-.6.7l.6-.7q0-.5-.05-.95-.7-.05-1.4-.2.5.9.85 1.85m-3.35-2.7q-2.4-.65-4.4-2.3-2.05 2.9-2.6 9.8-2.1-.85-7.1-4.55-3.65-2.5-6.8-2.7-4.05-.3-5.85 1.7-3.3 3.95-8.4 6.65-2.45.4-3.75.95-2.5 1.05-3.2 5.1.85 6.5 1.6 8.35.8 2 3.05 2.1 1.55.15 2.75-1 1.9-1.95 1.7-7.15 1.45.25 2.85-.25.9-.45 4.25-2.35.65.05 1.25 0 .6-.7 1.35-1.25Q98 84.4 102.4 84.7q3.9.2 5.5 1.8 2.2 2.1 2.3 6.95 1.7 2.05 1.55 3.15-.65 10 .95 13.15.95 2.25 4.1 2.45 1.6.15 3.45-.8.15-.1.35-.15-2.5-17 1.2-35-.35-.95-.85-1.85-1.3-.3-2.5-.85m152.1 121.85q-.1-1.05-.3-1.9.35 4.9.5 9.65.05-5.05-.2-7.75m2.7-16.15q.1-.55.05-3-.35 2.2-.75 4.75.35-.95.7-1.75m-.2-9.55q.1-1.45.3-2.8-3.95 2.3-7.8 2.95-1.85 10.1-6.05 45.35-2.4-.75-4.35-.6-3.6.35-3.9 4.2-.15 1.8.95 3.05 1.75 2 2.05 2.7-1.85-.1-3.75 1.2-2.8 1.8-3 5.6-.1.8.75 2.25.5.8.8 1.45-.05 1.75-1.85 3-1.6 1.25-1.75 2.7-.05.65.7 2.05.85 1.5.8 1.95 0 .1-.7 1.15-.75.9-.85 2.1-.1 1.05.65 2.15.8 1.05.8 1.2-.15.6-.75 1.45-.65.85-.65 1.45 3.1 11.4 3.1 12.2-.15 1.85-2.5 4.8-2.55 2.95-2.65 4.55 1.6 3.85 1.6 4.05-.15 1.4-2.3 2.25-2.2.85-2.4 3.35 1.05 3.3 1.05 3.4-.05.55-.45 1.4-.6.85-.6 1.45 1.55 3.4 1.45 3.6-.05.55-.65 1.7-.6 1-.7 1.6-.2 3.75-1.7 4.35-1.6.55-3.25 2.75 10.3 2.15 17.1.25l.3-.9q.55-1.65 1.05-3.25.9-3.05 1.7-6.05 1.2-5.3 2.45-12.45.25-.9.55-1.7.05-.6.15-1.2-.5-2.7.65-7.15.75-3.25 3.05-10.45.4-1.05.6-2.05.4-.55.8-1.2 3.9-7.6 5.85-35.8.9-13 1.05-20.6-.15-4.75-.5-9.65-.15-.7-.35-1.25.7-6 1.75-8.95.45-1.25.9-2.3.4-2.55.75-4.75-.1-2.35-.25-6.55m.6-11.3q-.15-.05-.25-.05-2.85-.15-4.35 1.65-1.8 1.95-3.05 7.55-.2.9-.45 2.3 3.85-.65 7.8-2.95.3-2.2.85-4.05 0-.25-.05-.45-.2-1.7-.5-4m2.05.65q-.9-.55-2.05-.65.3 2.3.5 4 .05.2.05.45.6-2.1 1.5-3.8m-56.15 23.85q-4.3 2.15-6.6 4.7 3.2-1.5 6-3.1l5 2.45q5 2.6 5.6 2.6 2.1.15 8.1-1.35 7.2-1.8 7.4-4.05.35-5.1-6.05-5.25-6.95.75-7.95.65-2.1-.2-4-.65-.6.4-1.25.85-4.35 1.4-6.25 3.15m-7.6 5.9q-1 1.4-1.45 2.9 16.2 7 29.5 16.75 1.05-.95 1.1-2.65.25-3.25-10.45-8.4-12.35-5.35-15.65-7.3-.8-.6-3.05-1.3m-24.45 1.95q-1.75.25-3.9.85-.8.35-1.45.65 1.7 1.9 2.05 2.75.2.2.35.45.5.05.95.1 5.15.4 12.75-2.05.75.15 1.6.4 2.35.5 7.2 1.85 4.1 1.05 16.7 7.5 12.1 6.05 12.65 6.05.1.05 2.35-.2.75-.25 1.25-.65-13.3-9.75-29.5-16.75-.2.6-.3 1.3l-7.2-1.95h-.2q-.4-.25-.75-.45-2.35-1.3-4.6-1.45-5.45-.45-9.95 1.6m-22.75-.55h-.85l-2.45-.2q-1.85-.05-2.45 0-.75 0-1.55.15 2.95 3.1 2.95 5.25 0 .55-.35 1.15 12.8 13.5 19.15 28.35.35-.05.8-.1 2.1-.8 2.2-3.35.35-3.35-4.5-9.65-2.4-3.3-5.6-7.05 5.25 3.15 14.45 9.85 7.9 5.7 8.2 5.8.1 0 2.45-.6 2.45-1.05 2.7-3.9.05-1.15-5.9-10.05-6.15-8.65-7.1-8.8-.55-.05-1.05.1 1.25 1.8 1.25 2.65 0 .55-.45 1.2 7.7 7.8 11.45 15.95-3.75-8.15-11.45-15.95-.05 0-.1.05-.3.4-.7.6-1-.9-2.45-1.95-.15-.1-.25-.15-.25.55-.45 1.2-1.65-.85-4.7-2.2 1.75-.75 2.9-1.8v-.05q-1.75-.95-4.4-4-.85-.65-2.1-1.65l-.05-.05q-1.25-.05-2.1-.2-4.75-.3-5.55-.4-.3 0-.65-.05h-.6q-.4-.05-.7-.15m6.55-11.1q-.35-.4-.65-.8-1.1-1.45-1.85-2.35-.1.25-.2.55 1.3 1.45 2.7 2.6m-2.7-2.6q-.1.3-.25.65.7.45.9 1.55 1.1.3 2.15.55-.05-.1-.1-.15-1.4-1.15-2.7-2.6m-3.75-35.4q-.4-14.05 2.3-18.6.1-.45.1-.9-.4-.05-.8-.15-1.65.2-3.5 1.15-3.35 1.8-3.65 5.85.5 6.05.45 7.2-.35 4.6-2 5.95-.7.5-1.1 1.1-.4-1.05-1.4-1.7-1.05-.65-2.2-.75-4-.25-5.55 8.55-.65 4.6-1.25 6.05-1.05 2.7-3.2 2.55-1.1-.05-2.5-.9-1.25-.8-2.9-.9-4.4-.35-4.45 4.25l-.35-.15q-.05-.05-3-4.4-.35-.45-.75-.95.8-.8 1.45-1.95 2.05-3.35 3.3-5.9-4.2 4.75-10.85 9.4-2.65 2-5.25 3.55-.05.5-.05 1 1.9-.75 4.55-1.7 0 2 1 4.45 3.95 10.45 13.35 11.1l4.85-.6q3.65 1.2 6.6 1.4.3 0 5-.45-.1.05-.15.05-3.3 1-4.35.95-5.05-.4-6.9.95 1.2.1 2.45.2.15 0 3.75-.2 1.65.15 5.1.35 3.85-.35 5.45-2.45-.9-.65-1.75-.7-.2 0-1.05.2 4.55-2.1 5-7.9 0-.45 1.2-4.1.95-.7 1.7-1.45-.2-3.85 1.15-9.05 0-.15.1-.35-.55-3.85.1-10.05m6.8-51.3q.5-7.4-2.2-11.7-2.1-3.25-4.6-3.45-1.1-.05-2.1.35-2.1.7-2.2 3.15-.15 2.05 1.25 3.8 1.7 2.25 1.8 2.85-.6 0-3.8 3.4-3.7 3.9-6.15 7.7-7.65 11.15.7 11.75 1.05.1 1.45.1.9-.3 2.1-1.05.7-.6 1-2.6.3-2.1.75-2.6.5 2.2 2 3.2 1 .65 2.7.75 2.8.2 3.6-.55 2.85-2.95 3.7-15.1m44.1 58q.05-.3-1.05-3.4l-1.6 6.75-.1.7q.35-.5 1.1-1 1.5-1 1.65-3.05m4.6-24.25l-.5-.9-1.9 8q2.2-4.4 2.4-7.1M155 302.15q-3.5 3.95.9 4.95 17.9-7.15 26.05-21.35-.15-1.5-1.25-2.45-1.1-.95-2.3-.95-2.5-.2-7.95 5.55-5.5 6.45-6.95 7.6-5.95 3.8-8.5 6.65m.9 4.95q.85.2 2 .25 1.65.05 11.9-7.05 11.7-8.25 12.15-14v-.55q-8.15 14.2-26.05 21.35m4.05-16q.85-.65 1.5-1.25 4.35-1.55 12.15-12.35 9.85-13.35 10.45-21.8.15-2.1-1.5-3.3-.6-.4-1.2-.6-8.95 36.9-39.4 49.7.9.9 3.25 1.1-.2-.05 4.8-3.85 9.65-4.05 9.85-7.2 0-.25.1-.45m-13.6.25q-6.85 3-7.9 3.35-5.9 1.65-8.9 2.6-5.25 1.55-3.65 4.65 1.45 2.75 4.25 2.95.1 0 11.55-3.3.1-.05.25-.1 30.45-12.8 39.4-49.7-.45-.2-.9-.2-3.9-.25-7.25 7.95-5.25 12.45-6.55 14.4-6.05 5.25-9.1 8.75-.85 1-1.35 1.9-5.6 3.8-6.5 4.2-1.75 1-3.35 2.55m94.9-184.1q-1.8 2.05-2 4.6-.45 7.05 9.8 7.8 1.5.1 3.1-.2-.25 1.05-.35 1.8-.05 1.35.8 2.4 1.05 1.5 1.4 2.75-1.45 1.4-2.85 4.2-1.55 3.1-1.7 5.4-.05.4.75 3.4.7 3.05.7 3.7-.15 1.15-3 1.75-3.05.55-3.25 3.3-.1 2.55 2.3 3.8 2.45 1.25 2.35 2.4-3.7 4.95-6.5 9.95-.4.6-.55 1.2-.55.35-1.2.8-3.6 2.6-5.35 2.5-6.2.3-4.05 3.95 2.05 3.6 5.2 3.85l6.1-1.15q5.25-1.8 6.45-5.8.65-.45 1.45-1.05 8.75-6.3 8.85-8.5.1-.6-.2-4.85-.25-4.35-.2-4.85 0-.55 2.2-1.6 2-1.05 2.15-3.5.15-1.15-1-3.4-1.15-2.35-1.05-3.35.15-2.05 3.45-13.25.2-2.6-.55-4.95-.8-2.3-.65-3.55.05-1.65 1.85-3 1.75-1.55 1.9-3.55.15-2.3-1.1-3.5-1.15-.95-2.65-1-.65.55-1.3.95 0-3-.55-4.6-1.05-2.3-3.85-2.6-1.4 0-2.7.6-2.6 1.2-2.75 4.35-.15.5.05 1.9.2 1.25.1 1.6-5.65-2.45-7.45-2.6-2.25-.2-4.15 1.9m-30.2 7.45q-2.2 1.3-2.5 4.65 0 .2 1.25 4.95-1.8 4.85-3.6 9.9-3.65 9.9-3.75 11-.05.5.4 1.35.4.8.35 1.4-.1 1.2-6.65 14.65-1 .15-3.6 1.9-3.15 2-5.45 4.15-.4.4-.75.8-11.7 1.7-11.25 5.9.35 2.2 4.5 3.9 4.3 1.85 10.55 2.3.1 0 8.35-1.65 8.5-2.3 8.8-6.1l-1.35-4.2 2.55-7.8q.15-.55 2.05-4.25 1.5-3.15 1.65-4.75 0-.5.4-.95l.1-.7 1.6-6.75v-.05q0-.65-.2-2.85-.2-2.15-.2-2.75.1-1.6 3-6.85.35-.65.65-1.25l1.9-8q-4.6-8.35-6.4-8.5-1.25-.05-2.4.55M193.8 93.8q-.4.5-3.5 2.3-2.05 1.2-1.75 3.6.1 1.5 5.25 4.75 4.8 2.95 6.1 3.1 1 0 2.5-1.15t1.85-1.05q1.55.1 2.4.4.8.15 4.05-.45 1.8 3.7 3.15 4.8.95.8 2.6.9 2.45.15 3.35-.9 2.25-2.55 2.9-11.7.2-3.55-2.95-6.3-2.5-2.1-4.2-2.25-1.2-.15-2.3.9-1.4 1.2-2.25 3.65-3.3-.6-6.25-1.55-1.9-.55-4.65-.75-2.7-.2-3.1-.2-1.3.25-3.2 1.9z"/><path fill="#9A6243" d="M118.15 164.6q.45 2.05 1.5 3.95 4.95 4.2 10.2 6.45-.15-.25-.4-.45-2-.9-4.25-2.5-.95-.45-2.05-.95-1.75-1.65-3.2-3.5-.25-.15-.55-.2.05-.1.1-.25l.1-.2q-.8-1.15-1.45-2.35m-1.7-4.35q-.05-.2-.1-.35-2.3.4-9.05 2.5-.45.15-1 .35-.65.45-1.45.85-.9.7-2.15 1.3-.45 0-.95.1-1.45.5-3.35 1.1-3.35 1-6.2 1.5-1.95.35-3.65.5-1.05.05-2.05.05h-1.95q-.65.45-1.1.95h-1.3q-.15-.05-.25-.05h-.45v.1q.15 0 .35.05 2.4.4 5 .6 15.4-1.1 29.65-9.55m-41.75 12.2q-.6.3-1.35.5-2.3 1.7-8.15 1.7-1.15.25-2.45.25-4.05 0-6.6-1.45-2.5-.6-5.5-1.95-1.4-.65-2.45-1.2h-.55q-.65 0-2.15-.8-1.45-.8-1.95-1.3-1.45-1.25-2.2-1.9-.35.25-.5.75 16.5 11.85 28.9 9.25-12.4 2.6-28.9-9.25-.15.45-.15 1.1 0 2.1 9.2 5.7 7.15 2.75 12.55 3.5.65.65 2.1.65 3.45 0 7.55-1.4-1.8 1.7-2.3 2.75-.1.1-.3.2-5 3.1-5 4.5 0 .05.25.95.05.1.15.2 11.1-5.55 16.9-16-.2-.05-.35-.05-.15.35-.3.75-.1.15-.2.35-.1-.15-.25-.25-.4-.35-1-.55-.3.15-.55.25-.1.05-.2.15-.95.55-1.75 1-.15.15-.2.35 0 .1-.1.2l-.1.2q-.15-.1-.35-.2-.7.6-1.75 1.05m140.85-1.7H215q4.8 5.95 13.35 7.4.15-.1.35-.2-2.6-1.2-7.3-2.4-.15-.4-.25-.65v-.25q-3.2-1.2-5.6-3.9m-47.2 6.4q.15-.35.25-.65-2.4-2.8-4.35-6.55-5.25 10.45-21.8 7.65-5.4 0-10.5-1.75-1-.2-2-.5 0-.15-.1-.35-5.25-2.25-10.2-6.45-1.05-1.9-1.5-3.95-.45-.85-.85-1.75-.4-1-.65-1.9l-.2-.7q-14.25 8.45-29.65 9.55-2.6-.2-5-.6-5.8 10.45-16.9 16 .55.75 1.65.75 9.65-4.6 13-9.35.15-.1.25-.1.2.35.6.9.85 1 .85 2.3 0 .8-.45 1.85-.4.8-.45 1.25-.95 1-2.45 2.75-3.35 3.8-3.35 5.05v.05q3.65-2.4 7.3-5.35 4.25-7.3.45-9.2 3.8 1.9-.45 9.2-3.65 2.95-7.3 5.35l.05.2q-.25.4-.25.6 0 .6.2 1 2.8-1.45 4.65-2.8.25-.2.45-.35.25-.15.45-.35 1.05-.9 1.95-1.55.45-.4.85-.65 1.05-1.2 1.85-3.75.6-1.4.65-1.55.15-.35.35-.75.2-.65.55-1.15v-.05q.3-1.3.3-2.5 0-.85-.4-1.35-.1-.75-.2-1.25-.15-.35-.2-.55.05-.15.15-.2.3 0 3.45-1.4 1.65-.7 2.85-1.05.1.1.25.15 1.75-1.45 5.85-1.85.65-.05 1.25-.05.25-.05.5-.05h.35q.4 0 .75.05.35-.2.7-.35 2.7.35 5.25 1.4.95.25 1.65.65 2.7-.05 7.1 1.45 2.75.9 5.25 2.15l1.1.3q5 1.15 8.65 3.35.1.05.3.2 2.1.5 4.2 2.1 7.7 2.55 11.6 5.3.65.45 1.25 1 .25.2.5.45.2.05.45.2 9.1 9.8 9.2 9.8 1.15 0 1.65-.9-7.35-7.8-16.85-15.1 9.5 7.3 16.85 15.1.35-.6.35-1.15 0-2.15-2.95-5.25.8-.15 1.55-.15.6-.05 2.45 0l2.45.2h.85q.3.1.7.15h.6q.35.05.65.05.8.1 5.55.4.85.15 2.1.2l.05.05q1.25 1 2.1 1.65 2.65 3.05 4.4 4v.05q.35.65.85 1.4.25.5.55.85.4.25.85.55.1.05.25.15 1.45 1.05 2.45 1.95.4-.2.7-.6.05-.05.1-.05-7.15-7.25-17.7-14.15 10.55 6.9 17.7 14.15.45-.65.45-1.2 0-.85-1.25-2.65-.55-.8-1.3-1.7-.15-.25-.35-.45-.35-.85-2.05-2.75.65-.3 1.45-.65 2.15-.6 3.9-.85 4.5-2.05 9.95-1.6 2.25.15 4.6 1.45.35.2.75.45h.2l7.2 1.95q.1-.7.3-1.3-5.2-2.3-10.65-4.25 5.45 1.95 10.65 4.25.45-1.5 1.45-2.9.4-.6 1-1.2 2.3-2.55 6.6-4.7 1.9-1.75 6.25-3.15.65-.45 1.25-.85.65-.4 1.3-.75-8.55-1.45-13.35-7.4-.65.05-1.15.15l-3 6.45q-7.45 7.55-25.3 6.7-8.2 0-14.05-4.8h-.1q-1.05-.25-2.15-.55-.2-1.1-.9-1.55m12.95 5.2q-.6.2-1.4.2-1.45 0-2.95-.5-2.55-.25-4.7-2.6-.4-.1-.75-.2 5.85 4.8 14.05 4.8 17.85.85 25.3-6.7l3-6.45q-3.45.6-3.3 4.25.15.8.3 1.45-4.5 2.25-6.6 3.8-3.25 2.45-4.1 2.5-1-.3-2.2-.35-1.2-.15-3.85-.1-2.6.15-3.1.1-.85-.1-1.55-.1-.75.85-2.1.85-2.75 0-6.05-.95m-17.05-12.45v.05q1.95 3.75 4.35 6.55.1-.3.2-.55.05-.1.05-.15-2.35-2.6-3.5-6.2-.5 0-1.1.3m0 .05v-.05q-1.3.55-3.05 2.25-1.25 1.15-2.5 1.9-.15.2-.3.45-1.6 2.1-5.45 2.45-3.45-.2-5.1-.35-3.6.2-3.75.2-1.25-.1-2.45-.2-2.7-.35-5.1-1.05-1.15.45-2.15.5-.4 0-.8-.05-.85-.05-1.65-.15 5.1 1.75 10.5 1.75 16.55 2.8 21.8-7.65z"/></g><path id="b" stroke="#492C23" stroke-width="2" stroke-linejoin="round" stroke-linecap="round" fill="none" d="M122.4 75.55q10.55-13 27.75-10.85 25.35 7.2 25.5 19.9 6.75-9.95 18.25-9.4 11.8.25 20.5 5.5l7.1 6.3q3.7 4.3 4.1 8.75 10.7-7.95 24.45-2.8 13.6 5.1 17.95 15.7 3.3 5 4.6 16.15 2.25 7.45-1.7 13.9 1.8 12.65 2.75 19.7m.55 4.45q.15 1.4.15 3.4-.2 3.9-1.05 10m-.75 4.75q-.1.7-.25 1.4l-2.05 11.1m.5 9.65q1.3 42.5-11.55 73.95-.2 1.65-.45 3.3m-.15 1.2q-1.15 7-3 14.15m-1.7 6.05q-.5 1.6-1.05 3.25m-6.55 17.05q-1.15 2.5-2.35 5.05 0 .25.05.55m.7 33.2v3.3m-154.05 0q0-.45.1-1 .45-16.35.85-34.75.05-6.7.2-13.75-23.1-37.55-60.6-69.25-27.55-19.3-20.4-59.3l14.8-67.3Q34.8 97.35 52.8 98q-1.1-10.45 13.45-24.8 15.25-11.35 30.4-9.65 19.45 2.25 24.3 10.85m-.35 36.85q.2 1.4.45 2.85 15.05-.15 16.15 3.95 3.15 5.35 3.6 10.65m-1.05 8.1q-1.7 4.9-5.9 9.7m30.4 23.4l11.4-85.3m44.2 38.05l5.3-22.35q.65-2.3.45-4.55m-7.65 34.9l-3.25 13.7v.05m-1.7 7.45q-2.05 12.15 1.3 18l.7.9m13.35 7.4q2.8.45 6 .45 17.65 1.55 23.45-8.1 6.25-9.55 9.35-26.3l1.9-26.6m-51.1 13.05l1.9-8m-87.9 53.2q5.1 1.75 10.5 1.75 16.55 2.8 21.8-7.65v-.05m7.25 9.35q-.1-.1-.2-.15m43-9.25l-.45 1.05m-49.6-.95q1.95 3.75 4.35 6.55 1.3 1.45 2.7 2.6m-2.35 7.75q10.55 6.9 17.7 14.15m13.2-13.55q5.45 1.95 10.65 4.25m-31.3 33.2q.25.55.5 1.15m6.95-25.05q7.7 7.8 11.45 15.95m15.75-46.05l-3 6.45q-7.45 7.55-25.3 6.7-8.2 0-14.05-4.8m41.5-27.4l.1-.7 1.6-6.75m13.65 33.75q-8.55-1.45-13.35-7.4m25 37.7q1.85 1.35 3.65 2.75m30-52.8q.3 2.3.5 4 .05.2.05.45m.15 3.4q-.5.3-1 .65m-.8 14.1q.4-2.55.75-4.75m-2.55 26.9q-.15-4.75-.5-9.65m-11.65 88.1q.05-.6.15-1.2m-4.85 21.4q.9-3.05 1.7-6.05m17.75-128.85q-3.95 2.3-7.8 2.95m-30.1 135.85q10.3 2.15 17.1.25l.3-.9m12.7-135.2q-2.05.35-4.05.2m-140.9-58.8q-2.5-17 1.2-35-.35-.95-.85-1.85m.85 1.85l.6-.7m-20.85 37.7l19.5.85q-27.85-5.45-58.9-14.45-5-1.6-9.35-1.65m-10.65 38.05q0-.25.05-.45m-8.95 50.05q-3.15-1.3-5.9-3.2m2.7-24.35q1.95 1.8 3.85 3.45m6.95 5.5q16.5 11.85 28.9 9.25m-27.6-40.25q10.55 26 34.85 32.15 2.15.55 4.45.95m35-8.9l1.3-.8q2.6-1.55 5.25-3.55 6.65-4.65 10.85-9.4m6.95-17.8q.3 4.05-1.05 8.1m-15.4 0q-1.75 1.25-3.6 2.35-15.65-.55-26.65-6.95-9.35-11.05 1.3-19.2l6.15.25m22.8 23.55q7.75-5.85 12.2-15.55 1.05-1.9.65-3.2m-55.75 51.1q.15 0 .35.05 2.4.4 5 .6 15.4-1.1 29.65-9.55m1.25.2q0-.5.05-1M81.8 169.2q-5.8 10.45-16.9 16m9.65 5.45q3.65-2.4 7.3-5.35 4.25-7.3.45-9.2m60.9 5.35q9.5 7.3 16.85 15.1M64.9 185.2q-2.8 1.35-5.85 2.4-15.05 2.5-25.8-1.95m.65-24.1q3.55 3.05 6.95 5.5m89 7.95q-5.25-2.25-10.2-6.45-1.05-1.9-1.5-3.95-.5-2-.45-4.15m14.25 15.4q-1.1-.4-2.1-.85m51.5 76.8q.95-3.9 1.65-8.1m-41.05 57.8q-.15.05-.25.1-16.65 6.85-39.6 6.6m31.1 4.6q12.8-1.8 22.7-5.7m26.05-21.35q.4-.7.75-1.4m-29.9 31.2q2.8-.9 5.6-1.9 36.45-14.5 66.65 4.65M93.1 315.1l-1.3-.4m44.3 36.8q-27.95-.6-44.5-23.05m61.2-12.9q-29.85 9.1-59.7-.45m138.75-10.25q1.85.5 3.6.85m-40.8 58.5v-1q0-6.65.2-13.25m-32.5 9.8v3.45q-.05.55 0 1m81.5-37q-10.9 2.05-26.4-.2-15-2-29.7-6.45m56.2 6.6q-.05 0-.1.05m.85 33.7q-.1-16.9-.7-33.2m2.3-5.6q3.55-8.1 6.25-16.15m-110.6-4.45q30.45-12.8 39.4-49.7m-25.45 55.3q17.9-7.15 26.05-21.35m-21.9-89.2q12.8 13.5 19.15 28.35M46.55 200.95q14.15-1.25 28-10.3m135.95 1.05q16.2 7 29.5 16.75"/></defs><g><use xlink:href="#a"/><use xlink:href="#b"/></g></svg>