<svg xmlns="http://www.w3.org/2000/svg" xmlns:xlink="http://www.w3.org/1999/xlink" preserveAspectRatio="none" width="285" height="427" viewBox="0 0 285 427"><defs><linearGradient id="a" gradientUnits="userSpaceOnUse" x1="12.413" y1="213.75" x2="27.788" y2="213.75" spreadMethod="pad"><stop offset="30.588%" stop-color="#333"/><stop offset="63.529%" stop-color="#666"/><stop offset="84.706%" stop-color="#333"/></linearGradient><g id="b"><path fill="url(#a)" d="M27.8 91.75q-8.7-5.15-15.4 0V338.4h15.4v-83.75h-.05V97.05h.05v-5.3z"/><path fill="#7BA65B" d="M233.85 102.35q-12.25-.4-27.95-1.15-24.15-1.35-37.45-1.95-.1-.05-.2-.05h-.5q-.05-.1-.1 0-.15-.1-.3 0-.05-.05-.1 0-.2-.1-.4-.1h-1.5q-6.15-.25-10.8-.2-29.7.2-59.45-.65-40.15-1.25-60.55-2-1.1-.05-3.3.4-2.3.5-3.45.4h-.05v157.6h.05q1.25.1 3.5.8 2.25.7 3.25.75 29.55 3 59.35 2.25 21.65-1 48.35.4h15.3L198 260.3q43.95 1.35 61.65 1.25 6.6-.05 10.95-2.35l2-158.75q-2.7.95-5.55 1.6l-5.8.7q-5.15.05-11.9.05l-15.5-.45z"/><path fill="#3A8B18" fill-opacity=".302" d="M169.1 99.25h-.35q.878.016 1.45 0h-1.1z"/></g><path id="c" stroke="#000" stroke-width="2" stroke-linejoin="round" stroke-linecap="round" fill="none" d="M168.45 99.25q13.3.6 37.45 1.95 15.7.75 27.95 1.15l15.5.45q6.75 0 11.9-.05l5.8-.7q2.85-.65 5.55-1.6l-2 158.75q-4.35 2.3-10.95 2.35-17.7.1-61.65-1.25l-40.45-1.45h-15.3q-26.7-1.4-48.35-.4-29.8.75-59.35-2.25-1-.05-3.25-.75t-3.5-.8v83.75H12.4V91.75q6.7-5.15 15.4 0v5.3q1.15.1 3.45-.4 2.2-.45 3.3-.4 20.4.75 60.55 2 29.75.85 59.45.65 4.65-.05 10.8.2h1.5q.2 0 .4.1m.1 0q.15-.1.3 0 .05-.1.1 0m.15 0h.35q.1 0 .2.05H169.1M27.8 254.65h-.05V97.05h.05"/></defs><g><use xlink:href="#b"/><use xlink:href="#c"/></g></svg>