
<svg xmlns="http://www.w3.org/2000/svg" version="1.1" xmlns:xlink="http://www.w3.org/1999/xlink" preserveAspectRatio="none" x="0px" y="0px" width="285px" height="427px" viewBox="0 0 285 427">
<defs>
<linearGradient id="Gradient_1" gradientUnits="userSpaceOnUse" x1="12.412500000000001" y1="213.75" x2="27.7875" y2="213.75" spreadMethod="pad">
<stop  offset="30.58823529411765%" stop-color="#333333"/>

<stop  offset="63.529411764705884%" stop-color="#666666"/>

<stop  offset="84.70588235294117%" stop-color="#333333"/>
</linearGradient>

<g id="Layer0_0_FILL">
<path fill="url(#Gradient_1)" stroke="none" d="
M 27.8 91.75
Q 19.1 86.6 12.4 91.75
L 12.4 338.4 27.8 338.4 27.8 254.65 27.75 254.65 27.75 97.05 27.8 97.05 27.8 91.75 Z"/>

<path fill="#7BA65B" stroke="none" d="
M 233.85 102.35
Q 221.6 101.95 205.9 101.2 181.75 99.85 168.45 99.25 168.35 99.2 168.25 99.2 168.128125 99.2 168.05 99.2
L 167.9 99.2 167.75 99.2
Q 167.7 99.1 167.65 99.2 167.5 99.1 167.35 99.2 167.3 99.15 167.25 99.2 167.05 99.1 166.85 99.1
L 165.35 99.1
Q 159.2 98.85 154.55 98.9 124.85 99.1 95.1 98.25 54.95 97 34.55 96.25 33.45 96.2 31.25 96.65 28.95 97.15 27.8 97.05
L 27.75 97.05 27.75 254.65 27.8 254.65
Q 29.05 254.75 31.3 255.45 33.55 256.15 34.55 256.2 64.1 259.2 93.9 258.45 115.55 257.45 142.25 258.85
L 157.55 258.85 198 260.3
Q 241.95 261.65 259.65 261.55 266.25 261.5 270.6 259.2
L 272.6 100.45
Q 269.9 101.4 267.05 102.05
L 261.25 102.75
Q 256.1 102.8 249.35 102.8 241.6 102.575 233.85 102.35 Z"/>

<path fill="#3A8B18" fill-opacity="0.30196078431372547" stroke="none" d="
M 169.1 99.25
Q 168.9 99.25 168.75 99.25 169.6279296875 99.2662109375 170.2 99.25 169.65 99.25 169.1 99.25 Z"/>
</g>

<path id="Layer0_0_1_STROKES" stroke="#000000" stroke-width="2" stroke-linejoin="round" stroke-linecap="round" fill="none" d="
M 168.45 99.25
Q 181.75 99.85 205.9 101.2 221.6 101.95 233.85 102.35 241.6 102.575 249.35 102.8 256.1 102.8 261.25 102.75
L 267.05 102.05
Q 269.9 101.4 272.6 100.45
L 270.6 259.2
Q 266.25 261.5 259.65 261.55 241.95 261.65 198 260.3
L 157.55 258.85 142.25 258.85
Q 115.55 257.45 93.9 258.45 64.1 259.2 34.55 256.2 33.55 256.15 31.3 255.45 29.05 254.75 27.8 254.65
L 27.8 338.4 12.4 338.4 12.4 91.75
Q 19.1 86.6 27.8 91.75
L 27.8 97.05
Q 28.95 97.15 31.25 96.65 33.45 96.2 34.55 96.25 54.95 97 95.1 98.25 124.85 99.1 154.55 98.9 159.2 98.85 165.35 99.1
L 166.85 99.1
Q 167.05 99.1 167.25 99.2
M 167.35 99.2
Q 167.5 99.1 167.65 99.2 167.7 99.1 167.75 99.2
M 167.9 99.2
L 168.05 99.2
Q 168.128125 99.2 168.25 99.2 168.35 99.2 168.45 99.25 168.586328125 99.251171875 168.75 99.25 168.9 99.25 169.1 99.25
M 27.8 254.65
L 27.75 254.65 27.75 97.05 27.8 97.05"/>
</defs>

<g transform="matrix( 1, 0, 0, 1, 0,0) ">
<use xlink:href="#Layer0_0_FILL"/>

<use xlink:href="#Layer0_0_1_STROKES"/>
</g>
</svg>
