<svg xmlns="http://www.w3.org/2000/svg" xmlns:xlink="http://www.w3.org/1999/xlink" preserveAspectRatio="none" width="285" height="427" viewBox="0 0 285 427"><defs><linearGradient id="a" gradientUnits="userSpaceOnUse" x1="45.8" y1="284.65" x2="133.5" y2="284.65" spreadMethod="pad"><stop offset="0%" stop-color="gray"/><stop offset="53.333%" stop-color="#BFBFBF"/><stop offset="64.314%" stop-color="#CCC"/><stop offset="73.725%" stop-color="#BABABA"/><stop offset="100%" stop-color="#777"/></linearGradient><linearGradient id="b" gradientUnits="userSpaceOnUse" x1="43.625" y1="260.85" x2="132.775" y2="260.85" spreadMethod="pad"><stop offset="0%" stop-color="#BFBFBF"/><stop offset="64.314%" stop-color="#777"/><stop offset="100%" stop-color="#959595"/></linearGradient><linearGradient id="c" gradientUnits="userSpaceOnUse" x1="149.962" y1="305.8" x2="242.238" y2="305.8" spreadMethod="pad"><stop offset="0%" stop-color="#262626"/><stop offset="64.314%" stop-color="#333"/><stop offset="100%" stop-color="#090909"/></linearGradient><linearGradient id="d" gradientUnits="userSpaceOnUse" x1="149.962" y1="294.75" x2="242.238" y2="294.75" spreadMethod="pad"><stop offset="0%" stop-color="#999"/><stop offset="53.333%" stop-color="#BFBFBF"/><stop offset="64.314%" stop-color="#CCC"/><stop offset="73.725%" stop-color="#BABABA"/><stop offset="100%" stop-color="#999"/></linearGradient><linearGradient id="e" gradientUnits="userSpaceOnUse" x1="152.362" y1="227.25" x2="239.838" y2="227.25" spreadMethod="pad"><stop offset="0%" stop-color="gray"/><stop offset="53.333%" stop-color="#BFBFBF"/><stop offset="64.314%" stop-color="#CCC"/><stop offset="73.725%" stop-color="#BABABA"/><stop offset="100%" stop-color="#7B7B7B"/></linearGradient><linearGradient id="f" gradientUnits="userSpaceOnUse" x1="149.962" y1="148.3" x2="242.238" y2="148.3" spreadMethod="pad"><stop offset="0%" stop-color="#262626"/><stop offset="64.314%" stop-color="#404040"/><stop offset="100%" stop-color="#090909"/></linearGradient><linearGradient id="g" gradientUnits="userSpaceOnUse" x1="172.85" y1="118.1" x2="219.45" y2="118.1" spreadMethod="pad"><stop offset="0%" stop-color="#262626"/><stop offset="64.314%" stop-color="#333"/><stop offset="100%" stop-color="#090909"/></linearGradient><radialGradient id="h" gradientUnits="userSpaceOnUse" cx="0" cy="0" r="5" fx="0" fy="0" gradientTransform="matrix(0 -1 4.69 0 196.1 109.1)" spreadMethod="pad"><stop offset="0%" stop-color="#333"/><stop offset="100%" stop-color="#090909"/></radialGradient><g id="i"><path fill="#242728" d="M59.8 313.35q1.3 1 2.75 1.85 24.55 9.1 50.1 0 5.1-2.8 7.45-4.7-31.45 11.65-64.4-.45 1.8 2.1 3.1 3.15.5.1 1 .15z"/><path fill="#333" d="M14.15 254.95v21.35q.4 14.05 14.15 28.1 15.3 6.55 30.5 8.8-1.3-1.05-3.1-3.15-1.25-1.55-1.25-1.65-8.75-10.05-8.65-27.2v-20.3q-.05 0-.05-.05-2.1-1.75-2.1-3.75v-2.15q-11.45-1.2-29.5 0m6.7 9.85q1.65-2.8 7.95-2.75 6.25.1 8.1 2.75l2.65 27.35q.95 10.35-8.65 6.25-8.4-8.5-10.05-19.9v-13.7M242.1 150.95q-.4 1.6-2.25 3.1v130.4q2.35 2.35 2.35 5.05v.2l-.05 15.5q7.85-3.7 11.85-18.5V183.3l8.55-13.65q10.55-16.9 7.65-32.2-8.8-2.65-28-1.2l-.05 12.95.05.85-.1.9z"/><path fill="url(#a)" d="M133.5 261.1q-.25-.15-.55-.25-.05-.05-.15-.05-1.8 2.3-4.95 4.15-10.55 6.2-36.05 6.85-27.95.75-42.9-7.85-1.1-1.25-3.1-3.05v20.3q-.1 17.15 8.65 27.2 0 .1 1.25 1.65 32.95 12.1 64.4.45 1.6-1.9 1.6-1.95 10-9.6 11.8-25.2V261.1z"/><path fill="#CCC" d="M88.05 254q15.35.35 26.05 2.5 9.25 1.85 13.3 4.65h.45q.65 1.9 0 3.8 3.15-1.85 4.95-4.15-7.75-9.1-41.2-10.1-33.5-1.05-47.35 4.3h-.6v2.1q0 2 2.1 3.75 0 .05.05.05 2 1.8 3.1 3.05-1.8-4.6 0-5.55 4.25-2.2 13.2-3.4 10.7-1.4 25.95-1z"/><path fill="url(#b)" d="M114.1 256.5q-10.7-2.15-26.05-2.5-15.25-.4-25.95 1-8.95 1.2-13.2 3.4-1.8.95 0 5.55 14.95 8.6 42.9 7.85 25.5-.65 36.05-6.85.65-1.9 0-3.8h-.45q-4.05-2.8-13.3-4.65z"/><path fill="url(#c)" d="M150.15 304.95v2.85q1.35 5.5 13.3 9.55 13.55 4.6 32.65 4.6 19.05 0 32.55-4.6 12.3-4.15 13.45-9.85l.05-2.3.05-15.5q-.15 4.6-7.1 8.25-2.7 1.35-6.45 2.65-13.5 4.55-32.55 4.55-19.1 0-32.65-4.55-3.7-1.3-6.35-2.65-6.9-3.65-7.15-8.15l.2 15.15z"/><path fill="url(#d)" d="M152.35 284.4q-2.4 2.4-2.4 5.1v.3q.25 4.5 7.15 8.15 2.65 1.35 6.35 2.65 13.55 4.55 32.65 4.55 19.05 0 32.55-4.55 3.75-1.3 6.45-2.65 6.95-3.65 7.1-8.25v-.2q0-2.7-2.35-5.05v3.85q-.2 3.6-6.8 6.45-2.5 1.1-6.05 2.1-12.85 3.6-30.9 3.6-18.15 0-30.95-3.6-3.55-1-6.1-2.1-6.5-2.85-6.7-6.45v-3.9z"/><path fill="url(#e)" d="M196.1 162.35q-19.15 0-32.65-3.6-7.8-2.1-11.1-4.6V288.3q.2 3.6 6.7 6.45 2.55 1.1 6.1 2.1 12.8 3.6 30.95 3.6 18.05 0 30.9-3.6 3.55-1 6.05-2.1 6.6-2.85 6.8-6.45V154.05q-3.3 2.6-11.2 4.7-13.35 3.6-32.55 3.6z"/><path fill="url(#f)" d="M235.1 140.8q-2.7 1.05-6.45 2.05-13.5 3.6-32.55 3.6-19.1 0-32.65-3.6-3.7-1-6.35-2.05-6.9-2.95-7.15-6.4l.2 14.55v2.3q.45 1.5 2.2 2.9 3.3 2.5 11.1 4.6 13.5 3.6 32.65 3.6 19.2 0 32.55-3.6 7.9-2.1 11.2-4.7 1.85-1.5 2.25-3.1l.05-1.75.05-12.95v-1.9q-.15 3.5-7.1 6.45z"/><path fill="#B9B9B9" d="M242.2 134.35l-2.3-3.75q-.15 3.15-6.75 5.7-2.5.9-6.1 1.75-12.7 3.2-30.7 3.2-18.1 0-30.85-3.2-3.5-.85-6-1.75-6.5-2.55-6.75-5.65.25 3.1 6.75 5.65 2.5.9 6 1.75 12.75 3.2 30.85 3.2 18 0 30.7-3.2 3.6-.85 6.1-1.75 6.6-2.55 6.75-5.7-5.85-3-16.1-4.55.55.55 1.1 1 1.2.55 1.85 1.15l.05.05q.55.55.55 1.15 0 2.45-9.2 4.15-9.15 1.75-22.1 1.75-13 0-22.15-1.75-9.2-1.7-9.2-4.15 0-.1.05-.25.15-.8 1.3-1.5.45-.3 1.05-.6 1.1-.65 2.05-1.45-10.95 1.45-16.85 4.6-2.35 1.2-2.35 3.9v.3q.25 3.45 7.15 6.4 2.65 1.05 6.35 2.05 13.55 3.6 32.65 3.6 19.05 0 32.55-3.6 3.75-1 6.45-2.05 6.95-2.95 7.1-6.45m-22.65-14.05h-.1q0 2.15-6.85 3.65-.65.1-1.4.3-.95.2-1.9.35-5.75.85-13.15.85-8 0-14.1-1l-1.1-.2q-.65-.2-1.3-.3-6.8-1.5-6.8-3.65-1.4 3.25-3.7 5.3-.95.8-2.05 1.45-.6.3-1.05.6-1.15.7-1.3 1.5-.05.15-.05.25 0 2.45 9.2 4.15 9.15 1.75 22.15 1.75 12.95 0 22.1-1.75 9.2-1.7 9.2-4.15 0-.6-.55-1.15l-.05-.05q-.65-.6-1.85-1.15-.55-.45-1.1-1-2-2.05-4.25-5.75z"/><path fill="url(#g)" d="M212.6 114.35q-.65.1-1.4.3-6.35 1.2-15.05 1.2-8.75 0-15.2-1.2-.65-.2-1.3-.3-.1 0-.25-.05-6.45-1.5-6.55-3.55v9.55q0 2.15 6.8 3.65.65.1 1.3.3l1.1.2q6.1 1 14.1 1 7.4 0 13.15-.85.95-.15 1.9-.35.75-.2 1.4-.3 6.85-1.5 6.85-3.65V110.75q-.1 2.05-6.55 3.55-.2.05-.3.05z"/><path fill="url(#h)" d="M219.45 110.75v-.05-.2q-.3-2.05-6.85-3.45-6.8-1.5-16.45-1.5-9.65 0-16.5 1.5-5.45 1.2-6.5 2.85-.1.2-.15.35-.15.15-.15.3v.2q.1 2.05 6.55 3.55.15.05.25.05.65.1 1.3.3 6.45 1.2 15.2 1.2 8.7 0 15.05-1.2.75-.2 1.4-.3.1 0 .3-.05 6.45-1.5 6.55-3.55z"/></g><path id="j" stroke="#000" stroke-width="2" stroke-linejoin="round" stroke-linecap="round" fill="none" d="M172.85 110.75v-.05-.15q0-.15.15-.3.05-.15.15-.35 1.05-1.65 6.5-2.85 6.85-1.5 16.5-1.5t16.45 1.5q6.55 1.4 6.85 3.45v9.6q.05.05.1.2 2.25 3.7 4.25 5.75 10.25 1.55 16.1 4.55l2.3 3.75m0 1.9q19.2-1.45 28 1.2 2.9 15.3-7.65 32.2L254 183.3v103.4q-4 14.8-11.85 18.5.05.55.05 1.1 0 .6-.1 1.2-1.15 5.7-13.45 9.85-13.5 4.6-32.55 4.6-19.1 0-32.65-4.6-11.95-4.05-13.3-9.55-.2-.75-.2-1.5 0-.7.2-1.35l-.2-15.15v-.3q0-2.7 2.4-5.1V154.15q-1.75-1.4-2.2-2.9-.2-.6-.2-1.2 0-.55.2-1.1l-.2-14.55v-.3q0-2.7 2.35-3.9 5.9-3.15 16.85-4.6 2.3-2.05 3.7-5.3v-9.55q.1 2.05 6.55 3.55.15.05.25.05.65.1 1.3.3 6.45 1.2 15.2 1.2 8.7 0 15.05-1.2.75-.2 1.4-.3.1 0 .3-.05 6.45-1.5 6.55-3.55m0 9.55q0 2.15-6.85 3.65-.65.1-1.4.3-.95.2-1.9.35-5.75.85-13.15.85-8 0-14.1-1l-1.1-.2q-.65-.2-1.3-.3-6.8-1.5-6.8-3.65m46.6-.2v.2m-50.3 5.3q-.95.8-2.05 1.45-.6.3-1.05.6-1.15.7-1.3 1.5-.05.15-.05.25 0 2.45 9.2 4.15 9.15 1.75 22.15 1.75 12.95 0 22.1-1.75 9.2-1.7 9.2-4.15 0-.6-.55-1.15l-.05-.05q-.65-.6-1.85-1.15-.55-.45-1.1-1m18.4 8.3q-.15 3.5-7.1 6.45-2.7 1.05-6.45 2.05-13.5 3.6-32.55 3.6-19.1 0-32.65-3.6-3.7-1-6.35-2.05-6.9-2.95-7.15-6.4m89.95-3.8q-.15 3.15-6.75 5.7-2.5.9-6.1 1.75-12.7 3.2-30.7 3.2-18.1 0-30.85-3.2-3.5-.85-6-1.75-6.5-2.55-6.75-5.65m87.1 23.4q-3.3 2.6-11.2 4.7-13.35 3.6-32.55 3.6-19.15 0-32.65-3.6-7.8-2.1-11.1-4.6m89.75-3.2q-.4 1.6-2.25 3.1v130.4q2.35 2.35 2.35 5.05v.2l-.05 15.5-.05 2.3m0-156.55l.05-1.75.05-12.95m-.05 12.95l.05.85-.1.9m-91.95-2v2.3m-22.75 109.9q-4.05-2.8-13.3-4.65-10.7-2.15-26.05-2.5-15.25-.4-25.95 1-8.95 1.2-13.2 3.4-1.8.95 0 5.55 14.95 8.6 42.9 7.85 25.5-.65 36.05-6.85.65-1.9 0-3.8m4.95-.35q.1 0 .15.05.3.1.55.25v22.25q-1.8 15.6-11.8 25.2 0 .05-1.6 1.95-2.35 1.9-7.45 4.7-25.55 9.1-50.1 0-1.45-.85-2.75-1.85-.1.6-1-.15-15.2-2.25-30.5-8.8-13.75-14.05-14.15-28.1v-21.35q18.05-1.2 29.5 0l.6.05q13.85-5.35 47.35-4.3 33.45 1 41.2 10.1-1.8 2.3-4.95 4.15m112 19.5v3.85q-.2 3.6-6.8 6.45-2.5 1.1-6.05 2.1-12.85 3.6-30.9 3.6-18.15 0-30.95-3.6-3.55-1-6.1-2.1-6.5-2.85-6.7-6.45v-3.9m-131.5-5.9q1.65 11.4 10.05 19.9 9.6 4.1 8.65-6.25L36.9 264.8q-1.85-2.65-8.1-2.75-6.3-.05-7.95 2.75v13.7zm22.8-23.5v2.1q0 2 2.1 3.75 0 .05.05.05 2 1.8 3.1 3.05m-5.25-9v.05m12.05 55.05q-1.25-1.55-1.25-1.65-8.75-10.05-8.65-27.2v-20.3m14 52.45q-.5-.05-1-.15-1.3-1.05-3.1-3.15 32.95 12.1 64.4.45m30.05-5.55v2.85m92.05-18.1q-.15 4.6-7.1 8.25-2.7 1.35-6.45 2.65-13.5 4.55-32.55 4.55-19.1 0-32.65-4.55-3.7-1.3-6.35-2.65-6.9-3.65-7.15-8.15"/></defs><g><use xlink:href="#i"/><use xlink:href="#j"/></g></svg>