<svg xmlns="http://www.w3.org/2000/svg" width="900" height="450" viewBox="0 0 900 450"><path fill="#CCC" d="M112.599 101.484h-6.473l6.077 66.444c1.497 4.58 4.491 8.63 8.982 12.153 3.698 2.994 8.057 5.372 13.077 7.133l37.251 171.462 25.627-.397-36.855-171.592c8.982-1.762 13.562-7.398 13.738-16.908l-15.72-68.823-6.472.265 9.114 55.216c-2.465 1.409-4.932 1.409-7.397 0l-11.36-55.747h-5.812l8.058 55.745c-2.29 1.585-4.755 1.585-7.397 0l-9.511-55.084-5.68.133 6.076 54.556c-2.025 1.321-4.799 1.321-8.322 0l-7.001-54.556M742.17 210.463h-30.383l52.839 142.796h30.248L742.17 210.463M698.181 91.577c-14.18-.264-19.639 9.511-16.381 29.326 2.467 16.908 12.462 46.761 29.987 89.561h30.383L698.181 91.577z"/><path fill="#E8DFBE" d="M625.265 111.127c-40.07-25.363-87.143-40.466-141.211-45.309-29.679-2.377-56.23-2.377-79.655 0-54.423 4.843-102.55 19.946-144.381 45.309-51.166 31.263-77.408 69.13-78.729 113.603-1.321 44.296 22.676 82.121 71.993 113.471 49.58 31.525 109.948 47.289 181.103 47.289 71.333 0 132.67-15.764 184.01-47.289 50.196-30.735 76.483-67.547 78.862-110.432.088-1.058.132-2.069.132-3.039.088-3.259.044-6.473-.132-9.643-2.203-40.334-26.2-74.987-71.992-103.96m-31.441 19.814c2.204-2.113 4.799-3.171 7.795-3.171 3.083 0 5.679 1.058 7.794 3.171 2.2 2.29 3.303 4.932 3.303 7.926 0 3.082-1.103 5.68-3.303 7.794-1.639 1.774-3.576 2.83-5.813 3.169 1.039.862 2.051 1.699 3.036 2.51.408-2.015 1.375-3.821 2.908-5.417 2.288-2.201 4.93-3.302 7.926-3.302 3.083 0 5.679 1.102 7.794 3.302 2.288 2.202 3.434 4.8 3.434 7.794 0 3.082-1.146 5.68-3.434 7.794-1.419 1.482-3.05 2.451-4.89 2.905 16.543 18.28 24.469 38.755 23.777 61.425-.263 8.983-1.938 17.657-5.018 26.024-8.367 23.424-27.608 44.03-57.728 61.819-40.509 24.306-88.987 36.458-145.438 36.458-56.449 0-104.268-12.152-143.456-36.458-30.823-19.022-49.184-41.304-55.084-66.84a83.842 83.842 0 0 1-2.114-21.004c.438-15.679 4.929-30.297 13.474-43.855.962-6.373 3.163-11.877 6.605-16.512 4.228-5.9 7.97-9.732 11.228-11.493-3.346-5.108-4.755-10.964-4.227-17.568.352-6.517 3.348-13.299 8.983-20.343 5.459-7.222 12.769-10.876 21.927-10.964 9.07-.265 16.644 2.069 22.721 7.001 4.253 3.491 7.335 7.234 9.247 11.228 13.792-5.91 28.322-10.666 43.592-14.266 1.957-1.985 4.378-3.79 7.265-5.417 9.07-5.195 18.45-8.497 28.136-9.907 9.577-1.406 18.252 1.061 26.023 7.398 4.339-.089 8.698-.133 13.077-.133 54.616 0 101.201 11.317 139.758 33.949a14.07 14.07 0 0 1 2.773-.264c1.76 0 3.391.352 4.887 1.058.357-2.112 1.37-4.05 3.042-5.811m-42.799 7.926c0-2.994 1.058-5.636 3.17-7.926 2.292-2.113 4.934-3.171 7.926-3.171 2.993 0 5.548 1.058 7.663 3.171 2.201 2.29 3.303 4.932 3.303 7.926 0 1.85-.397 3.478-1.189 4.888 1.055.264 2.112.571 3.171.925.351-2.202 1.32-4.14 2.904-5.813 1.505-1.444 3.221-2.413 5.152-2.907-38.558-22.632-85.143-33.949-139.758-33.949-4.378 0-8.737.044-13.077.133l.131.131c7.838 6.34 11.757 14.091 11.757 23.25 0 8.982-3.744 15.896-11.229 20.738-7.398 4.667-16.732 7.663-28.004 8.984-8.277.89-15.629-.123-22.06-3.04.856 2.956 1.34 6.037 1.454 9.247.528 9.863-2.202 17.966-8.19 24.306-3.875 4.05-8.895 7.044-15.059 8.982 1.938 2.819 3.302 5.68 4.096 8.586 1.014 3.342.31 6.908-2.114 10.701 11.985-1.127 24.755-.907 38.308.66 28.269 3.257 48.788 7.485 61.558 12.681.354.088.57.223.66.397 1.763.526 3.347 1.187 4.755 1.981.617.264 1.189.526 1.719.792a62.86 62.86 0 0 1 5.415 3.037c5.963 3.297 11.027 7.085 15.191 11.362a13.747 13.747 0 0 1 2.376-3.303c2.115-2.027 4.711-3.039 7.794-3.039s5.638 1.012 7.663 3.039c2.201 2.289 3.303 4.931 3.303 7.926 0 3.081-1.102 5.679-3.303 7.792-1.463 1.589-3.223 2.603-5.284 3.039a198.348 198.348 0 0 1 11.491 18.493 523.115 523.115 0 0 0 3.435 7.002c2.729 5.986 3.215 14.926 1.455 26.814-1.851 11.889-17.57 18.979-47.16 21.267-29.676 2.204-57.109.485-82.295-5.149-25.098-5.725-46.894-13.65-65.388-23.777-18.758-10.217-28.401-24.396-28.928-42.536-.611-17.98 9.56-31.233 30.514-39.761a243.464 243.464 0 0 1-7.266-1.981c-6.604-2.025-9.599-6.076-8.982-12.153l-1.85 1.85c-7.221 6.164-16.291 8.41-27.211 6.736-11.009-1.761-19.022-4.932-24.042-9.511-5.107-4.58-7.353-11.139-6.736-19.682a46.2 46.2 0 0 1 .527-5.019c-8.545 13.558-13.035 28.176-13.474 43.855a83.842 83.842 0 0 0 2.114 21.004c5.9 25.536 24.261 47.817 55.084 66.84 39.188 24.306 87.007 36.458 143.456 36.458 56.45 0 104.929-12.152 145.438-36.458 30.119-17.789 49.36-38.396 57.728-61.819 3.08-8.367 4.755-17.041 5.018-26.024.691-22.669-7.234-43.145-23.777-61.425a7.303 7.303 0 0 1-1.98.397c.967 1.761 1.452 3.566 1.452 5.416 0 3.171-1.146 5.813-3.435 7.926-1.32 1.409-2.816 2.377-4.491 2.906.354.617.573 1.321.66 2.113 1.409-.705 3.04-1.057 4.89-1.057 3.083 0 5.679 1.057 7.794 3.171 2.288 2.289 3.434 4.93 3.434 7.926 0 3.082-1.146 5.68-3.434 7.793-2.115 2.29-4.711 3.435-7.794 3.435-2.996 0-5.638-1.146-7.926-3.435-1.499-1.585-2.467-3.478-2.908-5.68-1.496.792-3.168 1.189-5.018 1.189-2.996 0-5.591-1.102-7.795-3.302-2.112-2.202-3.17-4.844-3.17-7.926 0-2.996 1.058-5.592 3.17-7.794 1.497-1.409 3.127-2.333 4.887-2.773-.701-1.321-1.055-2.818-1.055-4.492 0-2.994 1.055-5.592 3.171-7.794 2.022-1.938 4.357-2.994 6.999-3.17-.967-1.585-1.452-3.435-1.452-5.548 0-.825.088-1.617.263-2.378-.985-.811-1.997-1.648-3.036-2.51a7.262 7.262 0 0 1-1.981.265c-1.85 0-3.48-.352-4.89-1.057-.438 2.113-1.452 3.963-3.036 5.548-2.201 2.201-4.802 3.302-7.795 3.302-1.759 0-3.39-.353-4.886-1.058-.441 2.114-1.497 4.007-3.171 5.681-2.113 2.201-4.755 3.302-7.926 3.302-.617 0-1.233-.045-1.85-.133l.263.133c2.203 2.113 3.303 4.755 3.303 7.926 0 1.937-.438 3.743-1.321 5.416 1.675-1.673 3.656-2.642 5.944-2.906-1.056-1.673-1.584-3.567-1.584-5.68 0-3.082 1.099-5.724 3.302-7.926 2.204-2.113 4.846-3.171 7.926-3.171 2.993 0 5.594 1.058 7.795 3.171 2.113 2.202 3.171 4.844 3.171 7.926s-1.058 5.68-3.171 7.794c-1.763 1.761-3.832 2.861-6.21 3.302.97 1.497 1.455 3.303 1.455 5.416 0 1.321-.135 2.554-.397 3.698.263 1.057.397 2.202.397 3.436 0 3.082-1.058 5.68-3.171 7.793-2.201 2.29-4.802 3.435-7.795 3.435-2.992 0-5.681-1.146-8.057-3.435-2.113-2.113-3.171-4.711-3.171-7.793a7.57 7.57 0 0 1 .792-3.436c-.529-1.144-.792-2.377-.792-3.698 0-2.113.572-4.051 1.718-5.813l-.134.133c-2.2 2.29-4.755 3.434-7.66 3.434-3.171 0-5.856-1.144-8.058-3.434-2.115-2.025-3.17-4.58-3.17-7.662 0-3.17 1.055-5.813 3.17-7.926 2.201-2.114 4.887-3.17 8.058-3.17.616 0 1.189.043 1.716.131l-.264-.263c-2.112-2.114-3.17-4.712-3.17-7.794 0-1.85.354-3.479 1.058-4.888-2.201-.44-4.142-1.496-5.813-3.169-2.116-2.113-3.174-4.711-3.174-7.793m-52.441-23.646c2.201 2.202 3.303 4.844 3.303 7.926 0 2.994-1.102 5.592-3.303 7.794-2.025 2.113-4.536 3.17-7.531 3.17-3.168 0-5.811-1.058-7.926-3.17-2.113-2.202-3.168-4.8-3.168-7.794 0-3.082 1.055-5.724 3.168-7.926 2.115-2.113 4.758-3.169 7.926-3.169 2.995 0 5.506 1.056 7.531 3.169m-18.625 31.703c0-3.169 1.055-5.855 3.168-8.057 2.115-2.113 4.758-3.171 7.926-3.171 2.995 0 5.506 1.058 7.531 3.171 2.201 2.202 3.303 4.888 3.303 8.057 0 2.906-1.102 5.46-3.303 7.663-1.499 1.673-3.347 2.729-5.55 3.169.707 1.409 1.058 3.038 1.058 4.888 0 3.082-1.099 5.68-3.302 7.794-2.025 2.201-4.58 3.302-7.663 3.302-2.467 0-4.623-.66-6.471-1.981-.528-.441-1.058-.881-1.587-1.321-2.112-2.114-3.171-4.712-3.171-7.794s1.059-5.724 3.171-7.926a10.504 10.504 0 0 1 1.587-1.321 12.334 12.334 0 0 1 4.357-1.585c-.703-1.496-1.054-3.125-1.054-4.888m34.345-.528c-1.94-2.025-2.907-4.536-2.907-7.529 0-2.994 1.058-5.636 3.171-7.926 2.291-2.113 4.974-3.171 8.057-3.171 2.996 0 5.504 1.058 7.531 3.171 2.288 2.29 3.435 4.932 3.435 7.926 0 2.994-.968 5.504-2.908 7.529 1.94 2.113 2.908 4.624 2.908 7.53 0 3.169-1.146 5.724-3.435 7.662-2.027 2.201-4.535 3.302-7.531 3.302-3.083 0-5.766-1.102-8.057-3.302-2.113-1.938-3.171-4.492-3.171-7.662-.001-2.906.966-5.416 2.907-7.53m24.172.528c2.201-2.201 4.802-3.302 7.795-3.302 3.171 0 5.769 1.102 7.794 3.302 2.2 2.202 3.303 4.8 3.303 7.794 0 3.082-1.103 5.68-3.303 7.794-2.025 2.201-4.623 3.302-7.794 3.302-2.993 0-5.594-1.102-7.795-3.302l-.923-.925c-1.5-1.85-2.248-4.14-2.248-6.869 0-2.642.748-4.932 2.248-6.87a4.54 4.54 0 0 1 .923-.924m86.92 59.972c2.995 0 5.547 1.057 7.66 3.171 2.291 2.201 3.437 4.843 3.437 7.926 0 3.082-1.146 5.68-3.437 7.794-2.113 2.113-4.665 3.168-7.66 3.168-3.083 0-5.726-1.055-7.926-3.168-2.113-2.114-3.171-4.712-3.171-7.794 0-3.083 1.058-5.725 3.171-7.926 2.201-2.114 4.843-3.171 7.926-3.171m-60.235-4.754c0 2.994-1.058 5.591-3.171 7.793-1.499 1.498-3.171 2.51-5.021 3.038-.176.704-.441 1.41-.792 2.114 2.291.352 4.226 1.321 5.813 2.906 2.113 2.201 3.171 4.799 3.171 7.794 0 3.168-1.058 5.811-3.171 7.926v.132c2.113 2.2 3.171 4.799 3.171 7.794 0 3.081-1.058 5.679-3.171 7.792-2.113 2.291-4.714 3.437-7.795 3.437-3.08 0-5.722-1.146-7.925-3.437h-.132c-2.113 2.291-4.667 3.437-7.663 3.437h-.923c-2.732-.266-5.065-1.409-7.003-3.437-2.2-2.113-3.302-4.711-3.302-7.792 0-2.995 1.102-5.594 3.302-7.794 1.938-1.938 4.271-2.995 7.003-3.171h.923c2.996 0 5.55 1.058 7.663 3.171h.263l-.131-.132c-2.113-2.115-3.171-4.758-3.171-7.926 0-1.762.354-3.391 1.058-4.889-2.201-.352-4.095-1.365-5.682-3.038-.354-.353-.66-.617-.923-.792-1.5-2.025-2.248-4.359-2.248-7.001 0-2.642.748-4.932 2.248-6.869.263-.353.569-.705.923-1.057 1.411-1.498 3.083-2.423 5.021-2.775.354-1.938 1.277-3.655 2.774-5.151 2.203-2.114 4.845-3.171 7.925-3.171 3.081 0 5.682 1.057 7.795 3.171 2.114 2.289 3.171 4.931 3.171 7.927m4.755 7.925c2.376-2.114 5.064-3.171 8.057-3.171 2.993 0 5.594 1.057 7.795 3.171 2.113 2.201 3.171 4.843 3.171 7.926 0 3.082-1.058 5.68-3.171 7.794-2.201 2.113-4.802 3.168-7.795 3.168-2.992 0-5.681-1.055-8.057-3.168-2.113-2.114-3.171-4.712-3.171-7.794 0-3.083 1.058-5.725 3.171-7.926m20.738 0c0-3.083 1.058-5.725 3.17-7.926 2.204-2.114 4.799-3.171 7.795-3.171 3.083 0 5.679 1.057 7.794 3.171 2.2 2.201 3.303 4.843 3.303 7.926 0 2.994-1.103 5.591-3.303 7.793v.133c2.2 2.201 3.303 4.799 3.303 7.794 0 3.168-1.103 5.811-3.303 7.926-2.115 2.201-4.711 3.303-7.794 3.303-2.996 0-5.591-1.102-7.795-3.303-2.112-2.115-3.17-4.758-3.17-7.926 0-2.995 1.058-5.593 3.17-7.794h.132l-.132-.133c-2.112-2.202-3.17-4.798-3.17-7.793m-4.886 23.778c2.113 2.2 3.171 4.799 3.171 7.794 0 3.081-1.058 5.679-3.171 7.792-2.201 2.291-4.802 3.437-7.795 3.437-2.992 0-5.681-1.146-8.057-3.437-2.113-2.113-3.171-4.711-3.171-7.792 0-2.995 1.058-5.594 3.171-7.794 2.376-2.113 5.064-3.171 8.057-3.171 2.993 0 5.593 1.057 7.795 3.171m-15.852 31.571c2.376-2.115 5.064-3.171 8.057-3.171 2.993 0 5.594 1.056 7.795 3.171 2.113 2.201 3.171 4.843 3.171 7.926 0 2.905-1.058 5.459-3.171 7.66-2.201 2.201-4.802 3.303-7.795 3.303-2.992 0-5.681-1.102-8.057-3.303-2.113-2.201-3.171-4.755-3.171-7.66 0-3.083 1.058-5.725 3.171-7.926m-32.363-98.017h.923c2.996 0 5.55 1.058 7.663 3.171 2.2 2.113 3.303 4.755 3.303 7.925 0 2.994-1.103 5.548-3.303 7.662-2.113 2.29-4.667 3.435-7.663 3.435h-.923c-2.732-.264-5.065-1.41-7.003-3.435-2.2-2.113-3.302-4.667-3.302-7.662 0-3.17 1.102-5.813 3.302-7.925 1.937-1.938 4.27-2.994 7.003-3.171m-23.117-4.754c2.288 2.202 3.434 4.844 3.434 7.926 0 1.761-.397 3.39-1.189 4.888a10.888 10.888 0 0 1 5.682 3.038c2.288 2.202 3.434 4.799 3.434 7.794 0 1.849-.397 3.521-1.189 5.02 2.201.439 4.054 1.409 5.55 2.906 2.288 2.289 3.435 4.93 3.435 7.926 0 2.994-1.146 5.591-3.435 7.793-2.027 2.202-4.535 3.302-7.531 3.302-3.083 0-5.766-1.1-8.057-3.302-2.113-2.202-3.171-4.799-3.171-7.793 0-1.762.396-3.436 1.189-5.021-2.204-.353-4.139-1.321-5.813-2.905-2.112-2.202-3.171-4.844-3.171-7.926 0-1.85.354-3.479 1.059-4.888-2.204-.441-4.139-1.454-5.813-3.038-2.112-2.114-3.171-4.712-3.171-7.794s1.059-5.724 3.171-7.926c2.113-2.113 4.755-3.171 7.926-3.171 3.079 0 5.634 1.057 7.66 3.171m-23.383 12.68c2.995 0 5.506 1.058 7.531 3.17 2.201 2.202 3.303 4.799 3.303 7.794 0 3.082-1.102 5.724-3.303 7.926 2.201 2.289 3.303 4.93 3.303 7.926 0 2.994-1.102 5.591-3.303 7.793-2.025 2.202-4.536 3.302-7.531 3.302-3.168 0-5.811-1.1-7.926-3.302-2.113-2.202-3.168-4.799-3.168-7.793 0-2.996 1.055-5.637 3.168-7.926-2.113-2.202-3.168-4.844-3.168-7.926 0-2.996 1.055-5.592 3.168-7.794 2.115-2.112 4.758-3.17 7.926-3.17m-22.456-26.947c2.203 2.29 3.302 4.932 3.302 7.926 0 3.082-1.099 5.68-3.302 7.793 2.203 2.29 3.302 4.976 3.302 8.059 0 2.994-1.099 5.592-3.302 7.793-2.113 2.114-4.665 3.171-7.66 3.171-1.85 0-3.48-.352-4.89-1.057-.525 2.201-1.584 4.139-3.168 5.812-2.203 2.114-4.8 3.171-7.794 3.171-3.083 0-5.725-1.057-7.926-3.171-2.114-2.201-3.171-4.799-3.171-7.793 0-3.083 1.057-5.725 3.171-7.926h.132l-.132-.133c-2.114-2.113-3.171-4.755-3.171-7.926 0-2.905 1.057-5.503 3.171-7.793 2.201-2.114 4.843-3.17 7.926-3.17 1.761 0 3.39.352 4.887 1.056.352-2.201 1.366-4.138 3.039-5.812 2.113-2.114 4.755-3.17 7.926-3.17 2.995 0 5.546 1.056 7.66 3.17m-1.453 57.066c-2.995 0-5.637-1.146-7.925-3.435-2.025-2.113-3.037-4.711-3.037-7.793 0-2.996 1.012-5.637 3.037-7.926 2.288-2.114 4.93-3.171 7.925-3.171 3.083 0 5.682 1.057 7.795 3.171a9.132 9.132 0 0 1 1.718 2.377c1.056 1.585 1.584 3.434 1.584 5.548 0 2.201-.528 4.094-1.584 5.68a7.904 7.904 0 0 1-1.718 2.113c-2.114 2.29-4.712 3.436-7.795 3.436m63.011 12.549c2.288 2.201 3.435 4.799 3.435 7.794 0 3.168-1.146 5.811-3.435 7.926-2.027 2.201-4.535 3.303-7.531 3.303-3.083 0-5.766-1.102-8.057-3.303-2.113-2.115-3.171-4.758-3.171-7.926 0-2.995 1.058-5.593 3.171-7.794 2.291-2.027 4.974-3.039 8.057-3.039 2.996 0 5.504 1.012 7.531 3.039m16.115 36.326c3.171 0 5.769 1.056 7.794 3.171 2.2 2.201 3.303 4.843 3.303 7.926 0 2.993-1.103 5.591-3.303 7.792-2.025 2.203-4.623 3.302-7.794 3.302-2.993 0-5.594-1.099-7.795-3.302a6.702 6.702 0 0 0-.923-.792c-1.5-2.025-2.248-4.358-2.248-7s.748-4.977 2.248-7.002a4.54 4.54 0 0 1 .923-.924c2.202-2.115 4.802-3.171 7.795-3.171M325.273 124.336a23.588 23.588 0 0 1 1.717 4.755c5.372-2.905 12.197-4.359 20.475-4.359 5.188 0 10.208 1.409 15.06 4.228a24.996 24.996 0 0 1-.133-3.171c.061-6.124 2.217-11.362 6.473-15.719-15.269 3.601-29.8 8.357-43.592 14.266m-8.719 66.444a18.69 18.69 0 0 1 1.981-1.717l.529-.265a2.383 2.383 0 0 0-.66-.66l-1.453-1.453a20.69 20.69 0 0 1-.397 4.095z"/><path fill="#C0833F" d="M363.186 203.33c-.793-2.906-2.158-5.768-4.096-8.586-1.409-1.938-3.082-3.919-5.02-5.944-4.844-4.755-10.655-7.132-17.437-7.132-6.428 0-12.285 2.377-17.569 7.132l-.529.265a18.59 18.59 0 0 0-1.981 1.717c-4.315 4.58-7.088 9.951-8.322 16.116a12.352 12.352 0 0 0-.131 1.717c-.617 6.077 2.377 10.128 8.982 12.153 2.5.722 4.922 1.383 7.266 1.981.25-.013.471-.057.66-.132 11.108-4.435 23.129-7.296 36.063-8.586 2.423-3.793 3.127-7.359 2.114-10.701m-69.88-97.223c-9.159.088-16.468 3.742-21.927 10.964-5.636 7.044-8.631 13.826-8.983 20.343-.528 6.604.881 12.46 4.227 17.568 3.55-1.809 7.382-2.954 11.493-3.435a58.341 58.341 0 0 1 3.963-.132c9.687 0 17.877 3.39 24.569 10.172.352.352.617.66.793.925v-.529c0-10.392 3.655-19.198 10.964-26.419 2.642-2.642 5.504-4.8 8.586-6.473a23.588 23.588 0 0 0-1.717-4.755c-1.912-3.994-4.994-7.737-9.247-11.228-6.077-4.931-13.651-7.265-22.721-7.001z"/><path fill="#FAD692" d="M461.597 227.769c-.09-.175-.307-.31-.66-.397-12.77-5.196-33.289-9.423-61.558-12.681-13.553-1.567-26.322-1.788-38.308-.66-12.934 1.29-24.954 4.151-36.063 8.586-.189.075-.41.119-.66.132-20.954 8.527-31.125 21.78-30.514 39.761.527 18.14 10.17 32.319 28.928 42.536 18.494 10.127 40.29 18.053 65.388 23.777 25.186 5.635 52.619 7.354 82.295 5.149 29.59-2.288 45.31-9.378 47.16-21.267 1.76-11.889 1.274-20.828-1.455-26.814a523.115 523.115 0 0 1-3.435-7.002 198.428 198.428 0 0 0-11.491-18.493 70.852 70.852 0 0 0-1.981-2.905 22.349 22.349 0 0 1-1.85-2.379 138.865 138.865 0 0 0-5.284-6.473l-1.85-2.113a24.146 24.146 0 0 0-1.584-1.584c-4.164-4.277-9.229-8.065-15.191-11.362a62.86 62.86 0 0 0-5.415-3.037 30.88 30.88 0 0 0-1.719-.792c-1.407-.796-2.991-1.456-4.753-1.982m-52.046 1.055c56.185 5.108 87.271 26.992 93.259 65.653-5.988-38.661-37.075-60.544-93.259-65.653m-101.846 41.741c54.335 36.899 112.853 50.595 175.557 41.084-62.704 9.511-121.222-4.184-175.557-41.084z"/><path fill="#690" d="M491.053 241.639a13.728 13.728 0 0 0-2.376 3.303 24.146 24.146 0 0 1 1.584 1.584l1.85 2.113a138.343 138.343 0 0 1 5.284 6.473 22.22 22.22 0 0 0 1.85 2.379 71.544 71.544 0 0 1 1.981 2.905c2.062-.437 3.821-1.45 5.284-3.039 2.201-2.113 3.303-4.711 3.303-7.792 0-2.995-1.102-5.637-3.303-7.926-2.025-2.027-4.58-3.039-7.663-3.039s-5.679 1.011-7.794 3.039m63.011 15.851c-2.025-2.115-4.623-3.171-7.794-3.171-2.993 0-5.594 1.056-7.795 3.171a4.54 4.54 0 0 0-.923.924c-1.5 2.025-2.248 4.36-2.248 7.002s.748 4.975 2.248 7c.263.178.569.44.923.792 2.201 2.203 4.802 3.302 7.795 3.302 3.171 0 5.769-1.099 7.794-3.302 2.2-2.201 3.303-4.799 3.303-7.792 0-3.083-1.102-5.725-3.303-7.926m-20.474-31.703c0-2.995-1.146-5.593-3.435-7.794-2.027-2.027-4.535-3.039-7.531-3.039-3.083 0-5.766 1.012-8.057 3.039-2.113 2.201-3.171 4.799-3.171 7.794 0 3.168 1.058 5.811 3.171 7.926 2.291 2.201 4.974 3.303 8.057 3.303 2.996 0 5.504-1.102 7.531-3.303 2.288-2.115 3.435-4.758 3.435-7.926m-74.371-23.778c2.288 2.29 4.93 3.435 7.925 3.435 3.083 0 5.682-1.146 7.795-3.435a7.94 7.94 0 0 0 1.718-2.113c1.056-1.585 1.584-3.479 1.584-5.68 0-2.114-.528-3.963-1.584-5.548a9.109 9.109 0 0 0-1.718-2.377c-2.113-2.114-4.712-3.171-7.795-3.171-2.995 0-5.637 1.057-7.925 3.171-2.025 2.289-3.037 4.93-3.037 7.926 0 3.081 1.011 5.679 3.037 7.792m-6.208-22.061c-2.114-2.201-3.171-4.799-3.171-7.793 0-.793.044-1.498.132-2.114-1.497-.704-3.126-1.057-4.887-1.057-3.083 0-5.681 1.057-7.794 3.171h-.132c-2.114 2.201-3.171 4.843-3.171 7.926 0 2.994 1.057 5.592 3.171 7.793 2.201 2.114 4.843 3.171 7.926 3.171 2.994 0 5.591-1.057 7.794-3.171 1.584-1.673 2.643-3.61 3.168-5.812a13.463 13.463 0 0 1-3.036-2.114m.132-15.851h-.132c-1.673 1.762-2.687 3.744-3.039 5.944a15.1 15.1 0 0 0-.132 2.114c0 2.994 1.057 5.592 3.171 7.793a13.528 13.528 0 0 0 3.036 2.114c1.409.705 3.04 1.057 4.89 1.057 2.995 0 5.547-1.057 7.66-3.171 2.203-2.201 3.302-4.799 3.302-7.793 0-3.083-1.099-5.769-3.302-8.059-2.113-2.113-4.665-3.169-7.66-3.169-3.171 0-5.769 1.057-7.794 3.17m18.755-7.793c0-2.994-1.099-5.636-3.302-7.926-2.113-2.114-4.665-3.17-7.66-3.17-3.171 0-5.813 1.056-7.926 3.17-1.673 1.673-2.687 3.611-3.039 5.812a15.1 15.1 0 0 0-.132 2.114c0 3.082 1.057 5.68 3.171 7.793h.132c2.025-2.113 4.623-3.169 7.794-3.169 2.995 0 5.547 1.057 7.66 3.169 2.204-2.113 3.302-4.711 3.302-7.793m11.364 37.912h-.135c-2.113 2.289-3.168 4.93-3.168 7.926 0 2.994 1.055 5.591 3.168 7.793 2.115 2.202 4.758 3.302 7.926 3.302 2.995 0 5.506-1.1 7.531-3.302 2.201-2.202 3.303-4.799 3.303-7.793 0-2.996-1.102-5.637-3.303-7.926-2.025 2.201-4.536 3.302-7.531 3.302-3.168 0-5.769-1.101-7.791-3.302m41.343-2.906c-.528 1.056-1.276 2.025-2.244 2.906-2.025 2.201-4.623 3.302-7.794 3.302a4.975 4.975 0 0 1-1.981-.397 11.073 11.073 0 0 0-1.189 5.021c0 2.994 1.058 5.591 3.171 7.793 2.291 2.202 4.974 3.302 8.057 3.302 2.996 0 5.504-1.1 7.531-3.302 2.288-2.202 3.435-4.799 3.435-7.793 0-2.996-1.146-5.637-3.435-7.926-1.497-1.498-3.349-2.467-5.551-2.906m-7.925-15.852c-.528-.089-1.23-.133-2.112-.133-2.993 0-5.594 1.058-7.795 3.17-.88.969-1.584 1.938-2.112 2.907-.705 1.409-1.059 3.038-1.059 4.888 0 3.082 1.059 5.724 3.171 7.926 1.675 1.584 3.609 2.553 5.813 2.905a4.975 4.975 0 0 0 1.981.397c3.171 0 5.769-1.102 7.794-3.302.968-.881 1.716-1.85 2.244-2.906.792-1.498 1.189-3.171 1.189-5.02 0-2.996-1.146-5.592-3.434-7.794a10.878 10.878 0 0 0-5.68-3.038m1.189-4.888c0-3.082-1.146-5.724-3.434-7.926-2.025-2.113-4.58-3.171-7.663-3.171-3.171 0-5.813 1.058-7.926 3.171-2.112 2.202-3.171 4.844-3.171 7.926s1.059 5.68 3.171 7.794c1.675 1.584 3.609 2.597 5.813 3.038.528-.969 1.232-1.938 2.112-2.907 2.201-2.113 4.802-3.17 7.795-3.17.882 0 1.584.043 2.112.133.794-1.498 1.191-3.127 1.191-4.888m20.607-3.171h-.923c-2.732.177-5.065 1.233-7.003 3.171-2.2 2.113-3.302 4.755-3.302 7.925 0 2.994 1.102 5.548 3.302 7.662 1.938 2.025 4.271 3.171 7.003 3.435h.923c2.996 0 5.55-1.146 7.663-3.435 2.2-2.113 3.303-4.667 3.303-7.662 0-3.17-1.103-5.813-3.303-7.925-2.114-2.113-4.667-3.171-7.663-3.171m39.497 94.846c-2.992 0-5.681 1.056-8.057 3.171-2.113 2.201-3.171 4.843-3.171 7.926 0 2.905 1.058 5.459 3.171 7.66 2.376 2.201 5.064 3.303 8.057 3.303 2.993 0 5.594-1.102 7.795-3.303 2.113-2.201 3.171-4.755 3.171-7.66 0-3.083-1.058-5.725-3.171-7.926-2.202-2.115-4.802-3.171-7.795-3.171m10.965-20.606c0-2.995-1.058-5.594-3.171-7.794-2.201-2.113-4.802-3.171-7.795-3.171-2.992 0-5.681 1.058-8.057 3.171-2.113 2.2-3.171 4.799-3.171 7.794 0 3.081 1.058 5.679 3.171 7.792 2.376 2.291 5.064 3.437 8.057 3.437 2.993 0 5.594-1.146 7.795-3.437 2.114-2.114 3.171-4.711 3.171-7.792m20.475-23.646c-2.115-2.027-4.711-3.039-7.794-3.039-2.996 0-5.55 1.012-7.663 3.039h-.132c-2.112 2.201-3.17 4.799-3.17 7.794 0 3.168 1.058 5.811 3.17 7.926 2.204 2.201 4.799 3.303 7.795 3.303 3.083 0 5.679-1.102 7.794-3.303 2.2-2.115 3.303-4.758 3.303-7.926 0-2.995-1.103-5.593-3.303-7.794m-15.589-15.851c-2.112 2.201-3.17 4.843-3.17 7.926 0 2.994 1.058 5.591 3.17 7.793l.132.133c2.113-2.027 4.667-3.039 7.663-3.039 3.083 0 5.679 1.012 7.794 3.039v-.133c2.2-2.202 3.303-4.799 3.303-7.793 0-3.083-1.103-5.725-3.303-7.926-2.115-2.114-4.711-3.171-7.794-3.171-2.996 0-5.591 1.056-7.795 3.171m-56.271 28.532c-2.732.176-5.065 1.233-7.003 3.171-2.2 2.2-3.302 4.799-3.302 7.794 0 3.081 1.102 5.679 3.302 7.792 1.938 2.027 4.271 3.171 7.003 3.437h.923c2.996 0 5.55-1.146 7.663-3.437h.132c2.112-2.113 3.171-4.711 3.171-7.792 0-2.995-1.059-5.594-3.171-7.794h-.132c-2.113-2.113-4.667-3.171-7.663-3.171h-.923m.923-28.532c-.354.352-.66.704-.923 1.057-1.5 1.938-2.248 4.227-2.248 6.869 0 2.642.748 4.976 2.248 7.001.263.175.569.439.923.792 1.587 1.673 3.48 2.686 5.682 3.038a17.54 17.54 0 0 1 2.113-2.905c2.203-2.027 4.845-3.039 7.925-3.039.793 0 1.453.043 1.982.133.351-.705.616-1.41.792-2.114-.88.176-1.804.264-2.774.264-3.08 0-5.722-1.1-7.925-3.302-2.113-2.202-3.171-4.799-3.171-7.793 0-.881.131-1.806.396-2.775-1.937.351-3.609 1.276-5.02 2.774m26.685 39.497c0-2.995-1.058-5.594-3.171-7.794-2.113 2.113-4.714 3.171-7.795 3.171-3.08 0-5.681-1.058-7.794-3.171h-.131c2.112 2.2 3.171 4.799 3.171 7.794 0 3.081-1.059 5.679-3.171 7.792 2.203 2.291 4.845 3.437 7.925 3.437 3.081 0 5.682-1.146 7.795-3.437 2.114-2.114 3.171-4.711 3.171-7.792m-3.171-7.926c2.113-2.115 3.171-4.758 3.171-7.926 0-2.995-1.058-5.593-3.171-7.794-1.587-1.585-3.521-2.554-5.813-2.906-.529-.089-1.189-.133-1.982-.133-3.08 0-5.722 1.012-7.925 3.039a17.54 17.54 0 0 0-2.113 2.905c-.704 1.498-1.058 3.127-1.058 4.889 0 3.168 1.058 5.811 3.171 7.926l.131.132c2.113 2.113 4.714 3.171 7.794 3.171 3.081 0 5.682-1.058 7.795-3.171v-.132m0-23.778c2.113-2.202 3.171-4.799 3.171-7.793 0-2.996-1.058-5.637-3.171-7.926-2.113-2.114-4.714-3.171-7.795-3.171-3.08 0-5.722 1.057-7.925 3.171-1.497 1.496-2.421 3.213-2.774 5.151a10.475 10.475 0 0 0-.396 2.775c0 2.994 1.058 5.591 3.171 7.793 2.203 2.202 4.845 3.302 7.925 3.302.971 0 1.895-.088 2.774-.264 1.849-.528 3.521-1.541 5.02-3.038m-47.686-63.539l.264-.264c2.291-2.202 4.974-3.302 8.057-3.302 2.996 0 5.504 1.1 7.531 3.302.264.087.438.175.526.264 1.94-2.025 2.908-4.536 2.908-7.529 0-2.994-1.146-5.636-3.435-7.926-2.027-2.113-4.535-3.171-7.531-3.171-3.083 0-5.766 1.058-8.057 3.171-2.113 2.29-3.171 4.932-3.171 7.926 0 2.994.967 5.505 2.908 7.529m.263-.264l-.264.264c-1.94 2.113-2.907 4.624-2.907 7.53 0 3.169 1.058 5.724 3.171 7.662 2.291 2.201 4.974 3.302 8.057 3.302 2.996 0 5.504-1.102 7.531-3.302 2.288-1.938 3.435-4.492 3.435-7.662 0-2.906-.968-5.417-2.908-7.53-.088-.089-.263-.177-.526-.264-2.027-2.202-4.535-3.302-7.531-3.302-3.084 0-5.767 1.1-8.058 3.302m-21.533 11.624a12.857 12.857 0 0 0-2.244-3.038c-2.025-2.202-4.58-3.303-7.663-3.303-.792 0-1.496.132-2.113.396a12.353 12.353 0 0 0-4.357 1.585c-.528.352-1.058.792-1.587 1.321-2.112 2.202-3.171 4.844-3.171 7.926s1.059 5.68 3.171 7.794c.529.44 1.059.88 1.587 1.321 1.848 1.321 4.004 1.981 6.471 1.981 3.083 0 5.638-1.102 7.663-3.302 2.203-2.114 3.302-4.712 3.302-7.794-.001-1.849-.352-3.478-1.059-4.887m8.853-34.609c0-3.082-1.102-5.724-3.303-7.926-2.025-2.113-4.536-3.169-7.531-3.169-3.168 0-5.811 1.057-7.926 3.169-2.113 2.202-3.168 4.844-3.168 7.926 0 2.994 1.055 5.592 3.168 7.794 2.115 2.113 4.758 3.17 7.926 3.17 2.995 0 5.506-1.058 7.531-3.17 2.201-2.202 3.303-4.8 3.303-7.794m123.378 23.777c-2.115-2.201-4.711-3.302-7.794-3.302-2.996 0-5.638 1.102-7.926 3.302-1.533 1.596-2.5 3.402-2.908 5.417a10.575 10.575 0 0 0-.263 2.378c0 2.113.485 3.963 1.452 5.548a10.2 10.2 0 0 0 1.719 2.246c2.288 2.201 4.93 3.302 7.926 3.302h.924a7.303 7.303 0 0 0 1.98-.397c1.84-.454 3.471-1.423 4.89-2.905 2.288-2.114 3.434-4.712 3.434-7.794-.001-2.994-1.146-5.593-3.434-7.795m-23.646-19.153c-2.996 0-5.591 1.058-7.795 3.171-1.672 1.761-2.686 3.698-3.039 5.813.971.615 1.94 1.321 2.908 2.113 1.617 1.685 2.585 3.622 2.904 5.813.179.752.267 1.501.267 2.245 0 .705-.047 1.41-.135 2.114 1.409.705 3.04 1.057 4.89 1.057.693 0 1.354-.088 1.981-.265 2.236-.339 4.174-1.396 5.813-3.169 2.2-2.114 3.303-4.712 3.303-7.794 0-2.994-1.103-5.636-3.303-7.926-2.115-2.115-4.711-3.172-7.794-3.172m-26.551 16.909c-.266.615-.397 1.365-.397 2.245 0 2.906 1.099 5.46 3.302 7.663a9.437 9.437 0 0 0 3.04 2.245c1.496.705 3.127 1.058 4.886 1.058 2.993 0 5.594-1.102 7.795-3.302 1.584-1.585 2.598-3.435 3.036-5.548.088-.704.135-1.41.135-2.114 0-.743-.088-1.493-.267-2.245-.319-2.19-1.287-4.128-2.904-5.813a29.848 29.848 0 0 0-2.908-2.113c-1.496-.706-3.127-1.058-4.887-1.058-.978 0-1.901.089-2.773.264-1.932.494-3.647 1.463-5.152 2.907-1.585 1.671-2.555 3.609-2.906 5.811m-7.531 46.1a7.567 7.567 0 0 0-.792 3.436c0 3.082 1.058 5.68 3.171 7.793 2.376 2.29 5.064 3.435 8.057 3.435 2.993 0 5.594-1.146 7.795-3.435 2.113-2.113 3.171-4.711 3.171-7.793 0-1.233-.135-2.379-.397-3.436a16.75 16.75 0 0 0-2.773-4.49c-2.201-2.114-4.802-3.171-7.795-3.171-2.992 0-5.681 1.057-8.057 3.171-1.234 1.321-2.026 2.817-2.38 4.49m10.436-14.662c-.528 0-1.099.044-1.718.132-2.288.264-4.27 1.233-5.944 2.906h-.395c-.617.705-1.102 1.409-1.453 2.113a10.444 10.444 0 0 0-1.718 5.813c0 1.321.263 2.554.792 3.698.354-1.673 1.146-3.169 2.379-4.49 2.376-2.114 5.064-3.171 8.057-3.171 2.993 0 5.594 1.057 7.795 3.171a16.726 16.726 0 0 1 2.773 4.49c.263-1.144.397-2.377.397-3.698 0-2.113-.485-3.919-1.455-5.416a6.105 6.105 0 0 0-1.716-2.51c-2.201-2.025-4.801-3.038-7.794-3.038m-15.588-13.342a10.44 10.44 0 0 0-1.716-.131c-3.171 0-5.856 1.056-8.058 3.17-2.115 2.113-3.17 4.755-3.17 7.926 0 3.082 1.055 5.636 3.17 7.662 2.201 2.29 4.887 3.434 8.058 3.434 2.905 0 5.46-1.144 7.66-3.434l.134-.133c.352-.705.836-1.409 1.453-2.113h.395c.883-1.673 1.321-3.479 1.321-5.416 0-3.17-1.1-5.813-3.303-7.926l-.263-.133c-1.585-1.673-3.478-2.642-5.681-2.906m50.196 21.4c-.087-.792-.307-1.497-.66-2.113a12.44 12.44 0 0 0-2.508-3.567c-2.115-2.113-4.711-3.17-7.794-3.17-1.059 0-2.025.133-2.908.397-1.76.44-3.39 1.365-4.887 2.773-2.112 2.202-3.17 4.799-3.17 7.794 0 3.082 1.058 5.724 3.17 7.926 2.204 2.201 4.799 3.302 7.795 3.302 1.85 0 3.521-.397 5.018-1.189.971-.529 1.895-1.233 2.776-2.113 2.2-2.202 3.303-4.844 3.303-7.926 0-.706-.047-1.41-.135-2.114m16.117 10.04c0-2.996-1.146-5.637-3.434-7.926-2.115-2.114-4.711-3.171-7.794-3.171-1.85 0-3.48.352-4.89 1.057.088.704.135 1.409.135 2.114 0 3.082-1.103 5.724-3.303 7.926-.882.88-1.806 1.584-2.776 2.113.441 2.202 1.409 4.095 2.908 5.68 2.288 2.29 4.93 3.435 7.926 3.435 3.083 0 5.679-1.146 7.794-3.435 2.289-2.113 3.434-4.711 3.434-7.793m-12.286-15.06c2.289-2.113 3.435-4.755 3.435-7.926 0-1.85-.485-3.654-1.452-5.416h-.924c-2.996 0-5.638-1.102-7.926-3.302a10.255 10.255 0 0 1-1.719-2.246c-2.642.176-4.977 1.232-6.999 3.17-2.116 2.202-3.171 4.8-3.171 7.794 0 1.673.354 3.171 1.055 4.492.883-.264 1.85-.397 2.908-.397 3.083 0 5.679 1.058 7.794 3.17a12.44 12.44 0 0 1 2.508 3.567c1.675-.528 3.171-1.497 4.491-2.906m-46.496-35.534c-2.908 0-5.503 1.102-7.795 3.302-.791.793-1.496 1.762-2.112 2.906-.704 1.409-1.058 3.038-1.058 4.888 0 3.082 1.058 5.68 3.17 7.794l.264.263c2.203.264 4.097 1.233 5.682 2.906a13.06 13.06 0 0 0 1.85.133c3.171 0 5.813-1.102 7.926-3.302 1.674-1.674 2.729-3.567 3.171-5.681a9.426 9.426 0 0 1-3.04-2.245c-2.203-2.202-3.302-4.756-3.302-7.663 0-.88.132-1.629.397-2.245a42.662 42.662 0 0 0-3.171-.925c-.442-.087-1.102-.131-1.982-.131m-15.721-12.681c-2.112 2.29-3.17 4.932-3.17 7.926 0 3.082 1.058 5.68 3.17 7.794 1.672 1.673 3.612 2.729 5.813 3.169.616-1.144 1.321-2.113 2.112-2.906 2.292-2.201 4.887-3.302 7.795-3.302.88 0 1.54.044 1.981.133.792-1.41 1.189-3.038 1.189-4.888 0-2.994-1.102-5.636-3.303-7.926-2.115-2.113-4.67-3.171-7.663-3.171-2.99.001-5.632 1.058-7.924 3.171z"/><path fill="#578200" d="M453.011 164.097c-2.114-2.113-3.171-4.711-3.171-7.793 0-.793.044-1.498.132-2.114-1.497-.704-3.126-1.056-4.887-1.056-3.083 0-5.725 1.056-7.926 3.17-2.114 2.29-3.171 4.888-3.171 7.793 0 3.171 1.057 5.813 3.171 7.926l.132.133c2.113-2.114 4.711-3.171 7.794-3.171 1.761 0 3.39.353 4.887 1.057.352-2.202 1.366-4.183 3.039-5.945m45.573 14.399c-2.025-2.113-4.536-3.17-7.531-3.17-3.168 0-5.811 1.058-7.926 3.17-2.113 2.202-3.168 4.799-3.168 7.794 0 3.082 1.055 5.724 3.168 7.926h.135c2.022 2.201 4.623 3.302 7.791 3.302 2.995 0 5.506-1.102 7.531-3.302 2.201-2.202 3.303-4.844 3.303-7.926 0-2.996-1.102-5.592-3.303-7.794m79.389 28.4c-2.992 0-5.681 1.057-8.057 3.171-2.113 2.201-3.171 4.843-3.171 7.926 0 3.082 1.058 5.68 3.171 7.794 2.376 2.113 5.064 3.168 8.057 3.168 2.993 0 5.594-1.055 7.795-3.168 2.113-2.114 3.171-4.712 3.171-7.794 0-3.083-1.058-5.725-3.171-7.926-2.202-2.114-4.802-3.171-7.795-3.171m55.084 3.171c-2.113-2.114-4.665-3.171-7.66-3.171-3.083 0-5.726 1.057-7.926 3.171-2.113 2.201-3.171 4.843-3.171 7.926 0 3.082 1.058 5.68 3.171 7.794 2.2 2.113 4.843 3.168 7.926 3.168 2.995 0 5.547-1.055 7.66-3.168 2.291-2.114 3.437-4.712 3.437-7.794-.001-3.083-1.146-5.725-3.437-7.926m-86.787-66.445c-2.993 0-5.594 1.102-7.795 3.302-.354.265-.66.573-.923.925-1.5 1.938-2.248 4.228-2.248 6.87 0 2.729.748 5.019 2.248 6.869l.923.925c2.201 2.201 4.802 3.302 7.795 3.302 3.171 0 5.769-1.102 7.794-3.302 2.2-2.114 3.303-4.712 3.303-7.794 0-2.994-1.103-5.592-3.303-7.794-2.025-2.201-4.623-3.303-7.794-3.303m-63.143-4.755c-2.113 2.202-3.168 4.888-3.168 8.057 0 1.762.351 3.392 1.055 4.888.617-.264 1.321-.396 2.113-.396 3.083 0 5.638 1.101 7.663 3.303.882.881 1.63 1.894 2.244 3.038 2.203-.44 4.051-1.496 5.55-3.169 2.201-2.202 3.303-4.756 3.303-7.663 0-3.169-1.102-5.855-3.303-8.057-2.025-2.113-4.536-3.171-7.531-3.171-3.168-.001-5.811 1.057-7.926 3.17m110.566 23.778c-2.201-2.113-4.802-3.171-7.795-3.171-3.08 0-5.722 1.058-7.926 3.171-2.203 2.202-3.302 4.844-3.302 7.926 0 2.113.528 4.006 1.584 5.68a12.235 12.235 0 0 1 1.718-.132c2.993 0 5.594 1.013 7.795 3.038a6.118 6.118 0 0 1 1.716 2.51c2.378-.441 4.447-1.542 6.21-3.302 2.113-2.114 3.171-4.712 3.171-7.794 0-3.083-1.057-5.725-3.171-7.926z"/><path fill="#CB9A62" d="M307.44 162.513a6.426 6.426 0 0 0-.793-.925c-6.692-6.782-14.882-10.172-24.569-10.172-1.349 0-2.67.044-3.963.132-4.111.481-7.942 1.626-11.493 3.435-3.258 1.761-7 5.592-11.228 11.493-3.442 4.635-5.643 10.14-6.605 16.512a45.952 45.952 0 0 0-.527 5.019c-.617 8.542 1.629 15.102 6.736 19.682 5.02 4.58 13.033 7.75 24.042 9.511 10.92 1.673 19.99-.573 27.211-6.736l1.85-1.85c0-.527.044-1.1.131-1.717 1.233-6.165 4.007-11.537 8.322-16.116a20.77 20.77 0 0 0 .397-4.094v-.396c.001-9.072-3.17-16.998-9.511-23.778m55.085-33.553c2.875 1.708 5.693 3.91 8.454 6.604 4.912 4.913 8.214 10.461 9.907 16.644 6.431 2.917 13.783 3.93 22.06 3.04 11.272-1.321 20.606-4.316 28.004-8.984 7.485-4.842 11.229-11.756 11.229-20.738 0-9.159-3.919-16.91-11.757-23.25l-.131-.131c-7.771-6.338-16.446-8.804-26.023-7.398-9.687 1.41-19.066 4.712-28.136 9.907-2.887 1.627-5.308 3.432-7.265 5.417-4.256 4.356-6.413 9.595-6.473 15.719a24.635 24.635 0 0 0 .131 3.17m-35.535.131c-3.082 1.673-5.944 3.832-8.586 6.473-7.309 7.222-10.964 16.027-10.964 26.419v.529c6.34 6.78 9.511 14.706 9.511 23.777v.396l1.453 1.453c.265.177.483.396.66.66 5.284-4.755 11.141-7.132 17.569-7.132 6.782 0 12.593 2.377 17.437 7.132 1.938 2.025 3.61 4.007 5.02 5.944 6.165-1.938 11.184-4.932 15.059-8.982 5.988-6.34 8.718-14.443 8.19-24.306-.114-3.21-.597-6.292-1.454-9.247-1.693-6.183-4.995-11.731-9.907-16.644-2.761-2.695-5.578-4.896-8.454-6.604-4.852-2.819-9.871-4.228-15.06-4.228-8.277.001-15.102 1.455-20.474 4.36z"/><g><path fill="none" stroke="#000" stroke-width="2" stroke-linecap="round" stroke-linejoin="round" d="M711.787 210.463c-17.525-42.8-27.521-72.653-29.987-89.561-3.258-19.814 2.201-29.59 16.381-29.326l43.989 118.887 52.704 142.796h-30.248l-52.839-142.796h30.383m-262.211-87.316c0-3.082 1.055-5.724 3.168-7.926 2.115-2.113 4.758-3.169 7.926-3.169 2.995 0 5.506 1.057 7.531 3.169 2.201 2.202 3.303 4.844 3.303 7.926 0 2.994-1.102 5.592-3.303 7.794-2.025 2.113-4.536 3.17-7.531 3.17-3.168 0-5.811-1.058-7.926-3.17-2.113-2.202-3.168-4.8-3.168-7.794zm1.055 28.665c-.704-1.496-1.055-3.125-1.055-4.888 0-3.169 1.055-5.855 3.168-8.057 2.115-2.113 4.758-3.171 7.926-3.171 2.995 0 5.506 1.058 7.531 3.171 2.201 2.202 3.303 4.888 3.303 8.057 0 2.906-1.102 5.46-3.303 7.663-1.499 1.673-3.347 2.729-5.55 3.169.707 1.409 1.058 3.038 1.058 4.888 0 3.082-1.099 5.68-3.302 7.794-2.025 2.201-4.58 3.302-7.663 3.302-2.467 0-4.623-.66-6.471-1.981-.528-.441-1.058-.881-1.587-1.321-2.112-2.114-3.171-4.712-3.171-7.794s1.059-5.724 3.171-7.926a10.504 10.504 0 0 1 1.587-1.321 12.365 12.365 0 0 1 4.358-1.585c.617-.264 1.321-.396 2.113-.396 3.083 0 5.638 1.101 7.663 3.303.882.881 1.63 1.894 2.244 3.038m37.648-11.361c-.088-.089-.263-.177-.526-.264-2.027-2.202-4.535-3.302-7.531-3.302-3.083 0-5.766 1.1-8.057 3.302l-.264.264c-1.94 2.113-2.907 4.624-2.907 7.53 0 3.169 1.058 5.724 3.171 7.662 2.291 2.201 4.974 3.302 8.057 3.302 2.996 0 5.504-1.102 7.531-3.302 2.288-1.938 3.435-4.492 3.435-7.662-.001-2.906-.969-5.416-2.909-7.53 1.94-2.025 2.908-4.536 2.908-7.529 0-2.994-1.146-5.636-3.435-7.926-2.027-2.113-4.535-3.171-7.531-3.171-3.083 0-5.766 1.058-8.057 3.171-2.113 2.29-3.171 4.932-3.171 7.926 0 2.994.967 5.504 2.907 7.529m73.18 35.271c.97 1.497 1.455 3.303 1.455 5.416 0 1.321-.135 2.554-.397 3.698.263 1.057.397 2.202.397 3.436 0 3.082-1.058 5.68-3.171 7.793-2.201 2.29-4.802 3.435-7.795 3.435-2.992 0-5.681-1.146-8.057-3.435-2.113-2.113-3.171-4.711-3.171-7.793a7.57 7.57 0 0 1 .792-3.436c-.529-1.144-.792-2.377-.792-3.698 0-2.113.572-4.051 1.718-5.813l-.134.133c-2.2 2.29-4.755 3.434-7.66 3.434-3.171 0-5.856-1.144-8.058-3.434-2.115-2.025-3.17-4.58-3.17-7.662 0-3.17 1.055-5.813 3.17-7.926 2.201-2.114 4.887-3.17 8.058-3.17.616 0 1.189.043 1.716.131l-.264-.263c-2.112-2.114-3.17-4.712-3.17-7.794 0-1.85.354-3.479 1.058-4.888-2.201-.44-4.142-1.496-5.813-3.169-2.112-2.114-3.17-4.712-3.17-7.794 0-2.994 1.058-5.636 3.17-7.926 2.292-2.113 4.934-3.171 7.926-3.171 2.993 0 5.548 1.058 7.663 3.171 2.201 2.29 3.303 4.932 3.303 7.926 0 1.85-.397 3.478-1.189 4.888 1.055.264 2.112.571 3.171.925.351-2.202 1.32-4.14 2.904-5.813 1.505-1.444 3.221-2.391 5.152-2.841-38.558-22.676-85.143-34.015-139.758-34.015-4.378 0-8.715.067-13.011.199l.066.065c7.838 6.34 11.757 14.091 11.757 23.25 0 8.982-3.744 15.896-11.229 20.738-7.398 4.667-16.732 7.663-28.004 8.984-8.277.89-15.608-.101-21.995-2.972.813 2.91 1.274 5.97 1.388 9.18.528 9.863-2.202 17.966-8.19 24.306-3.875 4.05-8.895 7.044-15.059 8.982 1.938 2.819 3.302 5.68 4.096 8.586 1.014 3.342.31 6.93-2.114 10.766 11.985-1.171 24.755-.973 38.308.595 28.269 3.257 48.788 7.485 61.558 12.681.354.088.57.223.66.397 1.763.526 3.347 1.187 4.755 1.981.617.264 1.189.526 1.719.792a62.86 62.86 0 0 1 5.415 3.037c5.963 3.297 11.051 7.085 15.256 11.362.552-1.174 1.323-2.275 2.312-3.303 2.115-2.027 4.711-3.039 7.794-3.039s5.638 1.012 7.663 3.039c2.201 2.289 3.303 4.931 3.303 7.926 0 3.081-1.102 5.679-3.303 7.792-1.463 1.589-3.202 2.603-5.22 3.039a206.97 206.97 0 0 1 11.427 18.493 523.115 523.115 0 0 0 3.435 7.002c2.729 5.986 3.215 14.926 1.455 26.814-1.851 11.889-17.57 18.979-47.16 21.267-29.676 2.204-57.109.485-82.295-5.149-25.098-5.725-46.894-13.65-65.388-23.777-18.758-10.217-28.401-24.396-28.928-42.536-.611-17.98 9.582-31.211 30.579-39.695a420.04 420.04 0 0 1-7.331-2.047c-6.604-2.025-9.599-6.076-8.982-12.153l-1.85 1.85c-7.221 6.164-16.291 8.41-27.211 6.736-11.009-1.761-19.022-4.932-24.042-9.511-5.107-4.58-7.353-11.139-6.736-19.682a46.2 46.2 0 0 1 .527-5.019c-8.545 13.558-13.035 28.176-13.474 43.855a83.842 83.842 0 0 0 2.114 21.004c5.9 25.536 24.261 47.817 55.084 66.84 39.188 24.306 87.007 36.458 143.456 36.458 56.45 0 104.929-12.152 145.438-36.458 30.119-17.789 49.36-38.396 57.728-61.819 3.08-8.367 4.755-17.041 5.018-26.024.691-22.669-7.211-43.123-23.71-61.358-.657.173-1.339.283-2.048.33.967 1.761 1.452 3.566 1.452 5.416 0 3.171-1.146 5.813-3.435 7.926-1.32 1.409-2.816 2.377-4.491 2.906.354.617.573 1.321.66 2.113 1.409-.705 3.04-1.057 4.89-1.057 3.083 0 5.679 1.057 7.794 3.171 2.288 2.289 3.434 4.93 3.434 7.926 0 3.082-1.146 5.68-3.434 7.793-2.115 2.29-4.711 3.435-7.794 3.435-2.996 0-5.638-1.146-7.926-3.435-1.499-1.585-2.467-3.478-2.908-5.68-1.496.792-3.168 1.189-5.018 1.189-2.996 0-5.591-1.102-7.795-3.302-2.112-2.202-3.17-4.844-3.17-7.926 0-2.996 1.058-5.592 3.17-7.794 1.497-1.409 3.127-2.333 4.887-2.773-.701-1.321-1.055-2.818-1.055-4.492 0-2.994 1.055-5.592 3.171-7.794 2.022-1.938 4.357-2.994 6.999-3.17-.967-1.585-1.452-3.435-1.452-5.548 0-.825.088-1.617.263-2.378a178.226 178.226 0 0 0-3.036-2.444 9.533 9.533 0 0 1-1.981.199c-1.85 0-3.48-.352-4.89-1.057-.438 2.113-1.452 3.963-3.036 5.548-2.201 2.201-4.802 3.302-7.795 3.302-1.759 0-3.39-.353-4.886-1.058-.441 2.114-1.497 4.007-3.171 5.681-2.113 2.201-4.755 3.302-7.926 3.302-.617 0-1.233-.045-1.85-.133l.263.133c2.203 2.113 3.303 4.755 3.303 7.926 0 1.937-.438 3.743-1.321 5.416 1.675-1.673 3.656-2.642 5.944-2.906-1.056-1.673-1.584-3.567-1.584-5.68 0-3.082 1.099-5.724 3.302-7.926 2.204-2.113 4.846-3.171 7.926-3.171 2.993 0 5.594 1.058 7.795 3.171 2.113 2.202 3.171 4.844 3.171 7.926s-1.058 5.68-3.171 7.794c-1.766 1.76-3.836 2.861-6.214 3.302a6.105 6.105 0 0 0-1.716-2.51c-2.201-2.025-4.802-3.038-7.795-3.038-.528 0-1.099.044-1.718.132m-38.701-14.663c-1.5-1.85-2.248-4.14-2.248-6.869 0-2.642.748-4.932 2.248-6.87.263-.352.569-.66.923-.925 2.201-2.201 4.802-3.302 7.795-3.302 3.171 0 5.769 1.102 7.794 3.302 2.2 2.202 3.303 4.8 3.303 7.794 0 3.082-1.103 5.68-3.303 7.794-2.025 2.201-4.623 3.302-7.794 3.302-2.993 0-5.594-1.102-7.795-3.302-.354-.353-.661-.66-.923-.924zm34.344-17.833c-.441-.089-1.102-.133-1.981-.133-2.908 0-5.503 1.102-7.795 3.302-.791.793-1.496 1.762-2.112 2.906m15.059-5.15c-.266.615-.397 1.365-.397 2.245 0 2.906 1.099 5.46 3.302 7.663a9.437 9.437 0 0 0 3.04 2.245m2.112-20.807c.872-.219 1.796-.33 2.773-.33 1.76 0 3.391.352 4.887 1.058.354-2.114 1.367-4.052 3.039-5.813 2.204-2.113 4.799-3.171 7.795-3.171 3.083 0 5.679 1.058 7.794 3.171 2.2 2.29 3.303 4.932 3.303 7.926 0 3.082-1.103 5.68-3.303 7.794-1.639 1.774-3.576 2.852-5.813 3.235m-12.815-13.142c.971.615 1.94 1.321 2.908 2.113 1.617 1.685 2.608 3.644 2.972 5.878.132.708.199 1.436.199 2.179 0 .705-.047 1.41-.135 2.114m9.908 3.303c.408-2.015 1.375-3.821 2.908-5.417 2.288-2.201 4.93-3.302 7.926-3.302 3.083 0 5.679 1.102 7.794 3.302 2.288 2.202 3.434 4.8 3.434 7.794 0 3.082-1.146 5.68-3.434 7.794-1.419 1.482-3.026 2.473-4.822 2.972m76.814 62.285c-2.379 42.885-28.666 79.696-78.862 110.432-51.34 31.525-112.677 47.289-184.01 47.289-71.155 0-131.523-15.764-181.103-47.289-49.317-31.35-73.313-69.175-71.993-113.471 1.321-44.473 27.563-82.339 78.729-113.603 41.831-25.363 89.958-40.466 144.381-45.309 23.425-2.377 49.977-2.377 79.655 0 54.068 4.843 101.141 19.946 141.211 45.309 45.792 28.973 69.789 63.626 71.992 103.96.176 3.169.22 6.384.132 9.643 0 .97-.044 1.981-.132 3.039zm-78.862-61.954h-.924c-2.996 0-5.638-1.102-7.926-3.302a10.255 10.255 0 0 1-1.719-2.246m4.755 23.909c.088.704.135 1.409.135 2.114 0 3.082-1.103 5.724-3.303 7.926-.882.88-1.806 1.584-2.776 2.113m7.663 21.664c0-3.083 1.058-5.725 3.171-7.926 2.2-2.114 4.843-3.171 7.926-3.171 2.995 0 5.547 1.057 7.66 3.171 2.291 2.201 3.437 4.843 3.437 7.926 0 3.082-1.146 5.68-3.437 7.794-2.113 2.113-4.665 3.168-7.66 3.168-3.083 0-5.726-1.055-7.926-3.168-2.114-2.114-3.171-4.712-3.171-7.794zm-2.379-35.931a12.44 12.44 0 0 0-2.508-3.567c-2.115-2.113-4.711-3.17-7.794-3.17-1.059 0-2.025.133-2.908.397m-30.645-10.04c-1.585-1.673-3.479-2.642-5.682-2.906m6.079 18.494c.352-.705.836-1.409 1.453-2.113h.395m18.23 11.623a16.75 16.75 0 0 0-2.773-4.49c-2.201-2.114-4.802-3.171-7.795-3.171-2.992 0-5.681 1.057-8.057 3.171-1.233 1.321-2.025 2.817-2.379 4.49m-24.041 8.587c.354-1.938 1.277-3.655 2.774-5.151 2.203-2.114 4.845-3.171 7.925-3.171 3.081 0 5.682 1.057 7.795 3.171 2.113 2.289 3.171 4.93 3.171 7.926 0 2.994-1.058 5.591-3.171 7.793-1.499 1.498-3.171 2.51-5.021 3.038-.176.704-.441 1.41-.792 2.114 2.291.352 4.226 1.321 5.813 2.906 2.113 2.201 3.171 4.799 3.171 7.794 0 3.168-1.058 5.811-3.171 7.926v.132c2.113 2.2 3.171 4.799 3.171 7.794 0 3.081-1.058 5.679-3.171 7.792-2.113 2.291-4.714 3.437-7.795 3.437-3.08 0-5.722-1.146-7.925-3.437h-.132c-2.113 2.291-4.667 3.437-7.663 3.437h-.923c-2.732-.266-5.065-1.409-7.003-3.437-2.2-2.113-3.302-4.711-3.302-7.792 0-2.995 1.102-5.594 3.302-7.794 1.938-1.938 4.271-2.995 7.003-3.171h.923c2.996 0 5.55 1.058 7.663 3.171h.263l-.131-.132c-2.113-2.115-3.171-4.758-3.171-7.926 0-1.762.354-3.391 1.058-4.889-2.201-.352-4.095-1.365-5.682-3.038-.354-.353-.66-.617-.923-.792-1.5-2.025-2.248-4.359-2.248-7.001 0-2.642.748-4.932 2.248-6.869.263-.353.569-.705.923-1.057 1.412-1.497 3.084-2.422 5.021-2.774a10.475 10.475 0 0 0-.396 2.775c0 2.994 1.058 5.591 3.171 7.793 2.203 2.202 4.845 3.302 7.925 3.302.971 0 1.895-.088 2.774-.264m21.003-6.077c2.993 0 5.594 1.057 7.795 3.171 2.113 2.201 3.171 4.843 3.171 7.926 0 3.082-1.058 5.68-3.171 7.794-2.201 2.113-4.802 3.168-7.795 3.168-2.992 0-5.681-1.055-8.057-3.168-2.113-2.114-3.171-4.712-3.171-7.794 0-3.083 1.058-5.725 3.171-7.926 2.376-2.114 5.064-3.171 8.057-3.171zm15.983 11.097l-.132-.133c-2.112-2.202-3.17-4.799-3.17-7.793 0-3.083 1.058-5.725 3.17-7.926 2.204-2.114 4.799-3.171 7.795-3.171 3.083 0 5.679 1.057 7.794 3.171 2.2 2.201 3.303 4.843 3.303 7.926 0 2.994-1.103 5.591-3.303 7.793v.133c2.2 2.201 3.303 4.799 3.303 7.794 0 3.168-1.103 5.811-3.303 7.926-2.115 2.201-4.711 3.303-7.794 3.303-2.996 0-5.591-1.102-7.795-3.303-2.112-2.115-3.17-4.758-3.17-7.926 0-2.995 1.058-5.593 3.17-7.794h.132c2.113-2.027 4.667-3.039 7.663-3.039 3.083 0 5.679 1.012 7.794 3.039m-31.44 12.681c2.993 0 5.594 1.058 7.795 3.171 2.113 2.2 3.171 4.799 3.171 7.794 0 3.081-1.058 5.679-3.171 7.792-2.201 2.291-4.802 3.437-7.795 3.437-2.992 0-5.681-1.146-8.057-3.437-2.113-2.113-3.171-4.711-3.171-7.792 0-2.995 1.058-5.594 3.171-7.794 2.376-2.114 5.064-3.171 8.057-3.171zm0 31.571c2.993 0 5.594 1.056 7.795 3.171 2.113 2.201 3.171 4.843 3.171 7.926 0 2.905-1.058 5.459-3.171 7.66-2.201 2.201-4.802 3.303-7.795 3.303-2.992 0-5.681-1.102-8.057-3.303-2.113-2.201-3.171-4.755-3.171-7.66 0-3.083 1.058-5.725 3.171-7.926 2.376-2.115 5.064-3.171 8.057-3.171zm-39.497-94.846c2.996 0 5.55 1.058 7.663 3.171 2.2 2.113 3.303 4.755 3.303 7.925 0 2.994-1.103 5.548-3.303 7.662-2.113 2.29-4.667 3.435-7.663 3.435h-.923c-2.732-.264-5.065-1.41-7.003-3.435-2.2-2.113-3.302-4.667-3.302-7.662 0-3.17 1.102-5.813 3.302-7.925 1.938-1.938 4.271-2.994 7.003-3.171h.923zm-33.816 14.003c-2.204-.441-4.139-1.454-5.813-3.038-2.112-2.114-3.171-4.712-3.171-7.794s1.059-5.724 3.171-7.926c2.113-2.113 4.755-3.171 7.926-3.171 3.083 0 5.638 1.058 7.663 3.171 2.288 2.202 3.434 4.844 3.434 7.926 0 1.761-.397 3.39-1.189 4.888a10.888 10.888 0 0 1 5.682 3.038c2.288 2.202 3.434 4.799 3.434 7.794 0 1.849-.397 3.521-1.189 5.02 2.201.439 4.054 1.409 5.55 2.906 2.288 2.289 3.435 4.93 3.435 7.926 0 2.994-1.146 5.591-3.435 7.793-2.027 2.202-4.535 3.302-7.531 3.302-3.083 0-5.766-1.1-8.057-3.302-2.113-2.202-3.171-4.799-3.171-7.793 0-1.762.396-3.436 1.189-5.021-2.204-.353-4.139-1.321-5.813-2.905-2.112-2.202-3.171-4.844-3.171-7.926-.002-1.85.351-3.479 1.056-4.888.528-.969 1.232-1.938 2.112-2.907 2.201-2.113 4.802-3.17 7.795-3.17.882 0 1.584.043 2.112.133m7.926 15.852c-.528 1.056-1.276 2.025-2.244 2.906-2.025 2.201-4.623 3.302-7.794 3.302a4.975 4.975 0 0 1-1.981-.397m-29.459-2.905c-2.113-2.202-3.168-4.844-3.168-7.926 0-2.996 1.055-5.592 3.168-7.794 2.115-2.113 4.758-3.17 7.926-3.17 2.995 0 5.506 1.058 7.531 3.17 2.201 2.202 3.303 4.799 3.303 7.794 0 3.082-1.102 5.724-3.303 7.926 2.201 2.289 3.303 4.93 3.303 7.926 0 2.994-1.102 5.591-3.303 7.793-2.025 2.202-4.536 3.302-7.531 3.302-3.168 0-5.811-1.1-7.926-3.302-2.113-2.202-3.168-4.799-3.168-7.793 0-2.996 1.055-5.638 3.168-7.926h.135c2.022 2.201 4.623 3.302 7.791 3.302 2.995 0 5.506-1.102 7.531-3.302m-48.612-40.027c.352-2.201 1.366-4.138 3.039-5.812 2.113-2.114 4.755-3.17 7.926-3.17 2.995 0 5.547 1.056 7.66 3.17 2.203 2.29 3.302 4.932 3.302 7.926 0 3.082-1.099 5.68-3.302 7.793 2.203 2.29 3.302 4.976 3.302 8.059 0 2.994-1.099 5.592-3.302 7.793-2.113 2.114-4.665 3.171-7.66 3.171-1.85 0-3.48-.352-4.89-1.057-.525 2.201-1.584 4.139-3.168 5.812-2.203 2.114-4.8 3.171-7.794 3.171-3.083 0-5.725-1.057-7.926-3.171-2.114-2.201-3.171-4.799-3.171-7.793 0-3.083 1.057-5.725 3.171-7.926h.132l-.132-.133c-2.114-2.113-3.171-4.755-3.171-7.926 0-2.905 1.057-5.503 3.171-7.793 2.201-2.114 4.843-3.17 7.926-3.17 1.761 0 3.39.352 4.887 1.056a15.1 15.1 0 0 0-.132 2.114c0 3.082 1.057 5.68 3.171 7.793h.132c2.025-2.113 4.623-3.169 7.794-3.169 2.995 0 5.547 1.057 7.66 3.169m-12.55 17.966a13.528 13.528 0 0 1-3.036-2.114c-2.114-2.201-3.171-4.799-3.171-7.793 0-.793.044-1.498.132-2.114-1.497-.704-3.126-1.057-4.887-1.057-3.083 0-5.681 1.057-7.794 3.171m12.681-2.114c.352-2.201 1.366-4.182 3.039-5.944m23.645 24.57c1.056 1.585 1.584 3.434 1.584 5.548 0 2.201-.528 4.094-1.584 5.68a7.904 7.904 0 0 1-1.718 2.113c-2.113 2.29-4.712 3.435-7.795 3.435-2.995 0-5.637-1.146-7.925-3.435-2.025-2.113-3.037-4.711-3.037-7.793 0-2.996 1.012-5.637 3.037-7.926 2.288-2.114 4.93-3.171 7.925-3.171 3.083 0 5.682 1.057 7.795 3.171a9.107 9.107 0 0 1 1.718 2.378zm12.085 56.274a40.289 40.289 0 0 1 1.52 1.584l1.85 2.113a138.343 138.343 0 0 1 5.284 6.473 22.22 22.22 0 0 0 1.85 2.379c.694.965 1.375 1.936 2.046 2.905m42.866-39.497a17.54 17.54 0 0 1 2.113-2.905c2.203-2.027 4.845-3.039 7.925-3.039.793 0 1.453.043 1.982.133m-26.022 18.626c-2.027 2.201-4.535 3.303-7.531 3.303-3.083 0-5.766-1.102-8.057-3.303-2.113-2.115-3.171-4.758-3.171-7.926 0-2.995 1.058-5.593 3.171-7.794 2.291-2.027 4.974-3.039 8.057-3.039 2.996 0 5.504 1.012 7.531 3.039 2.288 2.201 3.435 4.799 3.435 7.794 0 3.168-1.147 5.811-3.435 7.926zm31.835.132c-2.113 2.113-4.714 3.171-7.795 3.171-3.08 0-5.681-1.058-7.794-3.171m-.131 15.586c2.112-2.113 3.171-4.711 3.171-7.792 0-2.995-1.059-5.594-3.171-7.794m-7.794 23.645c2.201-2.115 4.802-3.171 7.795-3.171 3.171 0 5.769 1.056 7.794 3.171 2.2 2.201 3.303 4.843 3.303 7.926 0 2.993-1.103 5.591-3.303 7.792-2.025 2.203-4.623 3.302-7.794 3.302-2.993 0-5.594-1.099-7.795-3.302a6.702 6.702 0 0 0-.923-.792c-1.5-2.025-2.248-4.358-2.248-7s.748-4.977 2.248-7.002c.262-.351.569-.66.923-.924zM326.99 129.091a23.588 23.588 0 0 0-1.717-4.755c-1.912-3.994-4.994-7.737-9.247-11.228-6.077-4.932-13.651-7.266-22.721-7.001-9.159.088-16.468 3.742-21.927 10.964-5.636 7.044-8.631 13.826-8.983 20.343-.528 6.604.881 12.46 4.227 17.568 3.55-1.809 7.382-2.932 11.493-3.368a38.7 38.7 0 0 1 3.963-.199c9.687 0 17.877 3.39 24.569 10.172.352.352.617.66.793.925v-.529c0-10.392 3.655-19.198 10.964-26.419 2.642-2.641 5.505-4.799 8.586-6.473 5.372-2.905 12.197-4.359 20.475-4.359 5.188 0 10.208 1.409 15.06 4.228a24.996 24.996 0 0 1-.133-3.171c.061-6.124 2.217-11.34 6.473-15.653-15.27 3.558-29.8 8.291-43.592 14.2m37.252 4.624c2.875 1.708 5.693 3.91 8.454 6.604 4.912 4.913 8.236 10.482 9.973 16.711m-12.087-42.139c1.957-2.029 4.378-3.856 7.265-5.483 9.07-5.195 18.45-8.497 28.136-9.907 9.577-1.406 18.274 1.083 26.089 7.464m-278.523-.99l9.114 55.216c-2.465 1.409-4.932 1.409-7.397 0l-11.361-55.746h-5.812l8.058 55.745c-2.29 1.585-4.755 1.585-7.397 0l-9.511-55.084-5.68.133 6.076 54.556c-2.025 1.321-4.799 1.321-8.322 0l-7.001-54.556h-6.473l6.077 66.444c1.497 4.58 4.491 8.63 8.982 12.153 3.698 2.994 8.057 5.372 13.077 7.133l37.251 171.462 25.627-.397-36.855-171.592c8.982-1.762 13.562-7.398 13.738-16.908l-15.72-68.823-6.471.264zm207.258 93.523c-1.409-1.938-3.082-3.919-5.02-5.944-4.844-4.755-10.655-7.132-17.437-7.132-6.428 0-12.285 2.377-17.569 7.132l-.529.265a18.59 18.59 0 0 0-1.981 1.717c-4.315 4.58-7.088 9.951-8.322 16.116a12.352 12.352 0 0 0-.131 1.717m8.453-17.834a20.77 20.77 0 0 0 .397-4.094v-.396c0-9.071-3.171-16.997-9.511-23.777m11.624 26.286a2.383 2.383 0 0 0-.66-.66l-1.453-1.453m-68.162-3.698c.962-6.373 3.163-11.877 6.605-16.512 4.228-5.9 7.97-9.732 11.228-11.493m57.792 67.831c.207-.057.405-.123.595-.198 11.108-4.435 23.129-7.274 36.063-8.521m48.479 14.729c56.185 5.108 87.271 26.992 93.259 65.653m-195.105-23.912c54.335 36.899 112.853 50.595 175.557 41.084"/></g></svg>