<svg xmlns="http://www.w3.org/2000/svg" viewBox="0 0 111.55 98.85"><path fill-rule="evenodd" d="M86.1 93.45q-1.6 2.5-4.2 2.85h-.2q-2.55.25-6.05-1.6-1.5 1.9-3.3 2.7l-.1.05Q68.1 99 62.2 94.35q-7 .5-14.1-.95-7-1.5-12.95-4.35-5.85-2.85-13.5-3.9-7.8-1.1-8.35-1.6Q-1.35 77.7 9.6 50.4q1.9-1.9.1-9.5L6.35 24.6Q3.25 10.55 1 6q19.85-9.65 36.85-3.75.3 13 .75 18.15.7 8.1 2.8 12.85 4.65 10.4 13.15 15.25 8.5 4.8 17.5 13.4 12.3 6.85 12.3 6.15 8.8 2 12.05 3.8 2.55 1.35 7 1.55h2.65l.9.25.2 1.8-.1-1.75q1.6.6 2.5 1.9 1.2 1.7.95 3.9-.5 5.15-6.6 7.65l-.9-1.2-.2-.25q-.95-2.75-3.6-4.65l-1.05-.75-4.35-2.25q-2.05-2.1-6.25-2.25l-3.55.05 3.55-.05-1.75-2.35 1.75 2.35q4.2.15 6.25 2.25l4.35 2.25 1.05.75q2.65 1.9 3.6 4.65l.2.25.15.3v.15l.05.05-.95.35 1.2.45q.55 2.05-1.2 3.25-3.75 2.85-6.3.85l-.05-.05-.65-1.05-.65-1.15q-1.8-2.9-3.15-3.85L86 81.8q-2.7-1.55-5.7-1.95 3 .4 5.7 1.95l5.45 3.45q1.35.95 3.15 3.85l-.3 1.8 1.35.9q-1.05 2.35-3.45 3.15l-.25.1-2.8.25-3.05-1.85q.4-.4-.45-1.95-.8-1.5-1.65-2.1l-8.05-5.9L84 89.4q.85.6 1.65 2.1.85 1.55.45 1.95m17.2-18.65q-2.45.65-2.65 4.05l3.15 1.1q.9-3.55 3.35-4.5l-3.85-.65M80.45 93.3l1.3 1.4q1.3-1.7 2.7-2.05l-1.4-1.6q-1.8.2-2.6 2.25m13.85-2.4l-1.65-1.7q-1.8-.3-2.65 1.95l1.55 2.15q1.1-1.8 2.75-2.4m4.65-1.65q1.75-2.3 3.3-2.45l-1.9-1.95q-2.7.3-2.8 2.3l1.4 2.1m-38.1 3.95l1.35 1.15-1.35-1.15m11.95-.7l-.05-.05q-1.3.25-1.75 1v.05l-.05.05v.2l-.4.85 1.35 1.7.15-.3.05.05.45-.7 1.7-1.2 1.05-.45-1.35-2.2-1.15 1m-5.2-5.7q4.3 2 6.35 4.7-2.05-2.7-6.35-4.7m7.7 6.9l.35 1-.35-1M19.05 65.3q-7.8-4.15-5.5-12.55-2.3 8.4 5.5 12.55" fill="#ebc6af"/><path fill-rule="evenodd" d="M103.3 74.8l3.85.65q-2.45.95-3.35 4.5l-3.15-1.1q.2-3.4 2.65-4.05M80.45 93.3q.8-2.05 2.6-2.25l1.4 1.6q-1.4.35-2.7 2.05l-1.3-1.4m13.85-2.4q-1.65.6-2.75 2.4L90 91.15q.85-2.25 2.65-1.95l1.65 1.7m4.65-1.65l-1.4-2.1q.1-2 2.8-2.3l1.9 1.95q-1.55.15-3.3 2.45m-28 4.5v-.2l.05-.05v-.05q.45-.75 1.75-1l.05.05 1.7 1.45-.35.15q-.95.35-1.6 1.25l-.45.7-.05-.05-1.3-1.7.2-.55" fill="#e3b193"/><path fill-rule="evenodd" d="M95.9 91.3l-.2.35-1.4-.75.95-.65.65 1.05" fill="#facfee"/><path fill-rule="evenodd" d="M95.7 91.65l-.05.15-1.35-.9.3-1.8.65 1.15-.95.65 1.4.75m-22.9.85l1.15-1 1.35 2.2-1.05.45-.1-.05.35-.15-1.7-1.45" fill="#f5d2f9"/><path fill-rule="evenodd" d="M103.9 87.15l-.45.1-.05-.15-.2-.65.2.65.05.15-1.2-.45.95-.35-.05-.05v-.15l-.15-.3.9 1.2" fill="#f8c0e9"/><path stroke-linejoin="round" d="M86.1 93.45q-1.6 2.5-4.2 2.85h-.2q-2.55.25-6.05-1.6-1.5 1.9-3.3 2.7l-.1.05Q68.1 99 62.2 94.35q-7 .5-14.1-.95-7-1.5-12.95-4.35-5.85-2.85-13.5-3.9-7.8-1.1-8.35-1.6Q-1.35 77.7 9.6 50.4q1.9-1.9.1-9.5L6.35 24.6Q3.25 10.55 1 6m36.85-3.75q.3 13 .75 18.15.7 8.1 2.8 12.85 4.65 10.4 13.15 15.25 8.5 4.8 17.5 13.4 12.3 6.85 12.3 6.15 8.8 2 12.05 3.8 2.55 1.35 7 1.55h2.65l.9.25.1.05q1.6.6 2.5 1.9 1.2 1.7.95 3.9-.5 5.15-6.6 7.65m-.45.1q.55 2.05-1.2 3.25-3.75 2.85-6.3.85l-.05-.05-.2.35-.05.15q-1.05 2.35-3.45 3.15l-.25.1-2.8.25q-1.7-.15-3.05-1.85.4-.4-.45-1.95-.8-1.5-1.65-2.1l-8.05-5.9M84 75.85l3.55-.05-1.75-2.35m8.8 15.65q-1.8-2.9-3.15-3.85L86 81.8q-2.7-1.55-5.7-1.95m14.3 9.25l.65 1.15.65 1.05m7.1-5.35l-.2-.25q-.95-2.75-3.6-4.65l-1.05-.75-4.35-2.25q-2.05-2.1-6.25-2.25M103 85.95l.15.3v.15l.05.05.2.65.05.15m-41.25 7.1l-1.35-1.15m13.1-1.7q-2.05-2.7-6.35-4.7m8.05 7.9l-.35-1-1.35-2.2m-60.4-38.75q-2.3 8.4 5.5 12.55" stroke="#000" stroke-linecap="round" stroke-width="2" fill="none"/><path stroke-linejoin="round" d="M103.3 74.8q-2.45.65-2.65 4.05l3.15 1.1q.9-3.55 3.35-4.5l-3.85-.65M80.45 93.3l1.3 1.4q1.3-1.7 2.7-2.05l-1.4-1.6q-1.8.2-2.6 2.25m13.85-2.4q-1.65.6-2.75 2.4L90 91.15q.85-2.25 2.65-1.95l1.65 1.7m4.65-1.65q1.75-2.3 3.3-2.45l-1.9-1.95q-2.7.3-2.8 2.3l1.4 2.1m-28 4.5v-.2l.05-.05v-.05q.45-.75 1.75-1l.05.05m-.75 3.5l-1.3-1.7.2-.55m1.1 2.25l.05.05.45-.7q.65-.9 1.6-1.25l.35-.15-1.7-1.45" stroke="#000" stroke-linecap="round" fill="none"/></svg>