<svg xmlns="http://www.w3.org/2000/svg" width="900" height="450" viewBox="0 0 900 450"><path fill="#B3B3B3" d="M503.796 142.099c-.35 7.928 1.965 18.206 6.947 30.834-62.511 44.761-178.271 105.552-347.282 182.375-4.63 1.965-6.419 7.928-5.367 17.89 1.122 9.684 4.349 18.698 9.682 27.048 5.191 8.137 11.611 14.768 19.258 19.888 8.139 5.474 13.961 6.735 17.469 3.79 50.022-39.78 101.027-77.771 153.014-113.972 69.667-48.831 126.916-84.155 171.747-105.974 14.733 19.504 30.483 27.432 47.251 23.785 11.365-2.387 37.746-15.962 79.138-40.727l84.61-58.407c3.016-3.368 3.788-6.42 2.314-9.156-1.893-2.596-4.945-3.403-9.154-2.42l-100.187 59.353c-5.192 1.895-9.19.491-11.995-4.209-2.948-4.701-2.245-8.839 2.104-12.417l98.605-64.405c2.314-2.946 2.701-5.542 1.157-7.787-1.543-2.246-3.965-2.947-7.262-2.105l-102.394 58.196-1.896.315c-4.631 1.403-7.998.315-10.103-3.262-1.401-2.526-.702-5.894 2.104-10.104l1.158-1.684 99.869-62.405c2.314-2.456 2.809-4.946 1.475-7.473-1.265-2.596-3.648-3.438-7.157-2.525l-103.763 56.196c-5.263 1.965-9.192.491-11.786-4.419-2.737-4.701-2.072-8.77 1.998-12.208l99.87-60.09c2.875-3.368 3.543-6.384 2-9.051-1.475-2.666-4.42-3.473-8.841-2.42l-91.766 46.62c-42.446 25.187-66.897 41.499-73.351 48.935-5.888 6.596-9.045 13.927-9.466 21.995z"/><path fill="none" stroke="#555" stroke-width="2" stroke-linecap="round" stroke-linejoin="round" d="M704.588 66.54l-99.869 62.405-1.158 1.684c-2.807 4.209-3.506 7.577-2.104 10.104 2.104 3.577 5.472 4.665 10.103 3.262l1.896-.315L715.85 85.484c3.297-.842 5.719-.141 7.262 2.105 1.544 2.244 1.157 4.84-1.157 7.787l-98.605 64.405c-4.35 3.578-5.053 7.717-2.104 12.417 2.805 4.701 6.803 6.104 11.995 4.209l100.187-59.353c4.209-.983 7.262-.176 9.154 2.42 1.474 2.736.701 5.788-2.314 9.156l-84.61 58.407c-41.392 24.765-67.772 38.34-79.138 40.727-16.768 3.647-32.518-4.281-47.251-23.785-44.831 21.819-102.08 57.143-171.747 105.974a3000.658 3000.658 0 0 0-153.014 113.972c-3.508 2.945-9.331 1.684-17.469-3.79-7.647-5.12-14.067-11.751-19.258-19.888-5.333-8.35-8.56-17.364-9.682-27.048-1.052-9.962.737-15.925 5.367-17.89 169.011-76.823 284.771-137.615 347.282-182.375-4.982-12.628-7.297-22.906-6.947-30.834.421-8.068 3.578-15.399 9.472-21.995 6.453-7.436 30.904-23.748 73.351-48.935l91.766-46.62c4.421-1.052 7.366-.246 8.841 2.42 1.543 2.667.875 5.683-2 9.051l-99.87 60.09c-4.07 3.438-4.735 7.507-1.998 12.208 2.594 4.911 6.523 6.384 11.786 4.419l103.763-56.196c3.509-.913 5.893-.071 7.157 2.525 1.327 2.526.833 5.017-1.481 7.473z"/></svg>