<?xml version="1.0" encoding="utf-8"?>
<!-- Generator: Adobe Illustrator 16.0.0, SVG Export Plug-In . SVG Version: 6.00 Build 0)  -->
<!DOCTYPE svg PUBLIC "-//W3C//DTD SVG 1.1//EN" "http://www.w3.org/Graphics/SVG/1.1/DTD/svg11.dtd">
<svg version="1.1" id="Layer_1" xmlns="http://www.w3.org/2000/svg" xmlns:xlink="http://www.w3.org/1999/xlink" x="0px" y="0px"
	 width="900px" height="450px" viewBox="0 0 900 450" enable-background="new 0 0 900 450" xml:space="preserve">
<g transform="matrix( 1, 0, 0, 1, 0,0) ">
	<g>
		<g id="Layer0_0_FILL">
			<path fill="#B3B3B3" d="M503.796,142.099c-0.35,7.928,1.965,18.206,6.947,30.834c-62.511,44.761-178.271,105.552-347.282,182.375
				c-4.63,1.965-6.419,7.928-5.367,17.89c1.122,9.684,4.349,18.698,9.682,27.048c5.191,8.137,11.611,14.768,19.258,19.888
				c8.139,5.474,13.961,6.735,17.469,3.79c50.022-39.78,101.027-77.771,153.014-113.972
				c69.667-48.831,126.916-84.155,171.747-105.974c14.733,19.504,30.483,27.432,47.251,23.785
				c11.365-2.387,37.746-15.962,79.138-40.727l84.61-58.407c3.016-3.368,3.788-6.42,2.314-9.156
				c-1.893-2.596-4.945-3.403-9.154-2.42l-100.187,59.353c-5.192,1.895-9.19,0.491-11.995-4.209
				c-2.948-4.701-2.245-8.839,2.104-12.417l98.605-64.405c2.314-2.946,2.701-5.542,1.157-7.787
				c-1.543-2.246-3.965-2.947-7.262-2.105l-102.394,58.196l-1.896,0.315c-4.631,1.403-7.998,0.315-10.103-3.262
				c-1.401-2.526-0.702-5.894,2.104-10.104l1.158-1.684l99.869-62.405c2.314-2.456,2.809-4.946,1.475-7.473
				c-1.265-2.596-3.648-3.438-7.157-2.525l-103.763,56.196c-5.263,1.965-9.192,0.491-11.786-4.419
				c-2.737-4.701-2.072-8.77,1.998-12.208l99.87-60.09c2.875-3.368,3.543-6.384,2-9.051c-1.475-2.666-4.42-3.473-8.841-2.42
				l-91.766,46.62c-42.446,25.187-66.897,41.499-73.351,48.935C507.374,126.7,504.217,134.031,503.796,142.099z"/>
		</g>
	</g>
	<g>
		<path id="Layer0_0_1_STROKES" fill="none" stroke="#555555" stroke-width="2" stroke-linecap="round" stroke-linejoin="round" d="
			M704.588,66.54l-99.869,62.405l-1.158,1.684c-2.807,4.209-3.506,7.577-2.104,10.104c2.104,3.577,5.472,4.665,10.103,3.262
			l1.896-0.315l102.394-58.196c3.297-0.842,5.719-0.141,7.262,2.105c1.544,2.244,1.157,4.84-1.157,7.787l-98.605,64.405
			c-4.35,3.578-5.053,7.717-2.104,12.417c2.805,4.701,6.803,6.104,11.995,4.209l100.187-59.353c4.209-0.983,7.262-0.176,9.154,2.42
			c1.474,2.736,0.701,5.788-2.314,9.156l-84.61,58.407c-41.392,24.765-67.772,38.34-79.138,40.727
			c-16.768,3.647-32.518-4.281-47.251-23.785c-44.831,21.819-102.08,57.143-171.747,105.974
			c-51.987,36.201-102.992,74.191-153.014,113.972c-3.508,2.945-9.331,1.684-17.469-3.79c-7.647-5.12-14.067-11.751-19.258-19.888
			c-5.333-8.35-8.56-17.364-9.682-27.048c-1.052-9.962,0.737-15.925,5.367-17.89c169.011-76.823,284.771-137.615,347.282-182.375
			c-4.982-12.628-7.297-22.906-6.947-30.834c0.421-8.068,3.578-15.399,9.472-21.995c6.453-7.436,30.904-23.748,73.351-48.935
			l91.766-46.62c4.421-1.052,7.366-0.246,8.841,2.42c1.543,2.667,0.875,5.683-2,9.051l-99.87,60.09
			c-4.07,3.438-4.735,7.507-1.998,12.208c2.594,4.911,6.523,6.384,11.786,4.419l103.763-56.196c3.509-0.913,5.893-0.071,7.157,2.525
			C707.396,61.593,706.902,64.084,704.588,66.54z"/>
	</g>
</g>
</svg>
