<?xml version="1.0" encoding="utf-8"?>
<!-- Generator: Adobe Illustrator 16.0.0, SVG Export Plug-In . SVG Version: 6.00 Build 0)  -->
<!DOCTYPE svg PUBLIC "-//W3C//DTD SVG 1.1//EN" "http://www.w3.org/Graphics/SVG/1.1/DTD/svg11.dtd">
<svg version="1.1" id="Layer_1" xmlns="http://www.w3.org/2000/svg" xmlns:xlink="http://www.w3.org/1999/xlink" x="0px" y="0px"
	 width="900px" height="450px" viewBox="0 0 900 450" enable-background="new 0 0 900 450" xml:space="preserve">
<g transform="matrix( 1, 0, 0, 1, 0,0) ">
	<g>
		<g id="Layer0_0_FILL">
			<path fill="#DE7221" d="M522.327,364.75c-4.067-6.667-8.36-14.999-12.881-25c-7.515,26.103-13.193,41.837-17.034,47.203
				c-3.729,5.368-3.983,10.142-0.763,14.322c3.163,4.125,6.129,6.64,8.898,7.543c1.468,0.452,3.163,0.819,5.085,1.103
				c2.09-4.804,2.118-10.001,0.084-15.594c2.034,5.593,2.006,10.79-0.084,15.594c2.259,0.169,4.971,0.084,8.135-0.255l2.627-0.424
				c1.074-4.916,0.141-9.661-2.795-14.238c2.936,4.577,3.869,9.322,2.795,14.238l4.322-0.932
				c1.525-11.356-0.848-20.114-7.117-26.271L522.327,364.75 M558.26,280.173c6.157-6.667,10.282-13.361,12.373-20.085
				c-6.385,4.689-12.43,8.617-18.137,11.78c-12.089,13.955-18.021,30.339-17.797,49.153c0.735,3.559,1.414,6.242,2.035,8.051
				c1.355,2.938,2.683,6.328,3.983,10.17C549.813,324.664,555.661,304.976,558.26,280.173 M395.038,353.648l-0.169-0.084
				l0.593,1.017L395.038,353.648 M394.869,353.564l-0.254-0.51l0.423,2.034l0.169,0.084l0.255-0.423v-0.169L394.869,353.564
				 M665.888,10.001c-24.576,2.881-41.668,14.322-51.271,34.322c5.707,0.226,11.073,1.469,16.103,3.729
				C626.368,31.555,638.091,18.871,665.888,10.001z"/>
			<path fill="#A8561A" d="M522.327,364.75l0.508,0.848c3.053,5.311,5.34,10.058,6.866,14.238c1.694,4.294,3.022,8.982,3.982,14.067
				c5.988,13.503,9.378,27.486,10.169,41.95c-1.243-45.482-17.515-92.233-48.813-140.256c-0.452,9.83,1.779,18.248,6.695,25.253
				c1.751,5.482,4.322,11.78,7.712,18.899C513.967,349.751,518.26,358.083,522.327,364.75 M552.496,271.868
				c-7.965,4.294-15.111,7.204-21.439,8.729c0.96,18.25,2.175,31.724,3.643,40.425C534.475,302.207,540.407,285.823,552.496,271.868
				 M363.173,329.072c1.921,3.106,4.605,7.119,8.051,12.033c2.26,3.107,3.362,4.944,3.305,5.509
				c2.316,3.39,4.209,6.808,5.678,10.254c0.848,1.922,1.695,3.926,2.542,6.019c1.921,4.011,3.135,6.977,3.644,8.898l2.119,13.896
				l3.898,1.442c-2.938-22.486-9.632-41.3-20.085-56.441c10.96-32.882,1.3-58.531-28.983-76.95
				c4.52,7.402,8.361,14.491,11.525,21.271c2.146,4.521,4.011,8.927,5.593,13.221C366.393,304.835,367.298,318.451,363.173,329.072
				 M363.936,363.056c3.107-6.214,3.729-11.921,1.865-17.118C367.665,351.135,367.043,356.842,363.936,363.056
				c2.655,0.339,5.452,0.281,8.39-0.169c2.938-4.35,3.673-9.775,2.204-16.272c0.057-0.564-1.045-2.401-3.305-5.509
				c-3.446-4.914-6.13-8.927-8.051-12.033c4.125-10.621,3.22-24.237-2.712-40.849c-1.582-4.294-3.446-8.7-5.593-13.221
				l-5.085,19.068c7.401,14.746,5.707,32.967-5.085,54.661C350.065,357.151,356.479,361.927,363.936,363.056 M377.326,233.394
				c5.367,7.627,13.052,15.111,23.051,22.457c0.96-2.654,3.022-4.038,6.187-4.152c0.791-0.057,1.723,0.028,2.796,0.255
				c-19.943-9.153-34.294-24.747-43.051-46.78C367.948,215.681,371.62,225.087,377.326,233.394 M423.683,256.698
				c-0.961-0.339-1.921-0.734-2.882-1.187c-4.576-1.979-8.39-3.163-11.441-3.559c-1.073-0.227-2.005-0.312-2.796-0.255
				c-3.164,0.114-5.226,1.498-6.187,4.152c-2.09,5.989-3.277,12.204-3.559,18.645v5.593
				C404.389,278.676,413.343,270.88,423.683,256.698 M380.292,250.343c-23.729-13.616-40.904-46.215-51.526-97.798
				C327.862,208.195,345.038,240.795,380.292,250.343 M472.581,171.444c-18.248,52.486-13.163,79.945,15.255,82.373
				C470.547,238.506,465.462,211.048,472.581,171.444 M425.462,125.002c5.254,0.847,10.593,1.441,16.018,1.78l20.169-3.136
				l-20.169,3.136c26.158,1.355,53.616-4.096,82.374-16.356C502.496,118.618,469.699,123.477,425.462,125.002z"/>
			<path fill="#A35318" d="M315.376,256.953l14.407-23.645c-4.633-3.221-8.786-8.248-12.458-15.085
				c-2.769-5.028-4.831-9.972-6.187-14.831c-8.08,28.475-21.074,54.041-38.983,76.695c-14.238,17.911-26.78,35.425-37.628,52.543
				c4.407-4.521,10.48-9.406,18.221-14.66C269.189,306.897,290.065,286.559,315.376,256.953z"/>
			<path fill="#D2C2A2" d="M638.261,134.494c-0.17-0.169-0.396-0.254-0.679-0.254c-0.339,0-0.65,0.112-0.932,0.339
				c-0.057,0.112-0.112,0.282-0.169,0.508L638.261,134.494 M638.854,135.511c0-0.339-0.141-0.649-0.424-0.932l-0.169-0.085
				l-1.779,0.593c-0.056,0.113-0.086,0.254-0.086,0.424c0,0.282,0.086,0.565,0.255,0.848c0.281,0.226,0.593,0.339,0.932,0.339
				c0.34,0,0.621-0.114,0.848-0.339C638.713,136.076,638.854,135.793,638.854,135.511 M646.651,137.375
				c0,0.169,0.026,0.338,0.084,0.508l1.188-0.762l-1.188,0.762c0.057,0.114,0.112,0.198,0.169,0.254
				c0.34,0.283,0.679,0.424,1.019,0.424c0.281,0,0.508-0.141,0.677-0.424c0.396-0.169,0.594-0.424,0.594-0.762
				c0-0.396-0.198-0.706-0.594-0.933c-0.169-0.169-0.396-0.254-0.677-0.254c-0.34,0-0.679,0.085-1.019,0.254
				C646.735,136.669,646.651,136.98,646.651,137.375 M642.922,133.223c0-0.057,0-0.113,0-0.17l-2.373,0.763
				c0.114,0.112,0.196,0.198,0.255,0.254c0.282,0.226,0.564,0.339,0.847,0.339c0.396,0,0.678-0.113,0.848-0.339
				C642.781,133.9,642.922,133.618,642.922,133.223 M640.464,133.223c0,0.169,0.028,0.367,0.085,0.593l2.373-0.763
				c-0.058-0.282-0.197-0.536-0.424-0.762c-0.17-0.169-0.451-0.254-0.848-0.254c-0.282,0-0.564,0.084-0.847,0.254
				C640.576,132.573,640.464,132.884,640.464,133.223 M646.904,130.342c-0.169,0.226-0.253,0.48-0.253,0.762
				c0,0.339,0.056,0.621,0.169,0.847l1.103-0.338l-1.103,0.338l0.084,0.085c0.34,0.226,0.679,0.338,1.019,0.338
				c0.281,0,0.508-0.113,0.677-0.338c0.396-0.227,0.594-0.537,0.594-0.933c0-0.282-0.198-0.537-0.594-0.762
				c-0.169-0.283-0.396-0.424-0.677-0.424C647.583,129.918,647.244,130.059,646.904,130.342 M656.143,132.375
				c0.339,0,0.592-0.113,0.763-0.338c0.339-0.227,0.508-0.537,0.508-0.933c0-0.282-0.169-0.537-0.508-0.762
				c-0.171-0.283-0.424-0.424-0.763-0.424c-0.34,0-0.649,0.141-0.933,0.424c-0.227,0.226-0.339,0.48-0.339,0.762
				c0,0.396,0.112,0.706,0.339,0.933l0.085,0.084l0.424-0.678l-0.424,0.678C655.52,132.291,655.803,132.375,656.143,132.375
				 M663.515,131.104c0-0.282-0.112-0.537-0.338-0.762c-0.171-0.283-0.453-0.424-0.848-0.424c-0.339,0-0.65,0.141-0.934,0.424
				c-0.225,0.226-0.337,0.48-0.337,0.762c0,0.396,0.112,0.706,0.337,0.933c0.113,0.112,0.312,0.226,0.595,0.338
				c0.112,0,0.227,0,0.339,0c0.395,0,0.677-0.113,0.848-0.338C663.402,131.81,663.515,131.5,663.515,131.104 M641.228,47.968
				c8.926-0.904,15.113-10.848,18.56-29.831C643.967,28.702,637.779,38.646,641.228,47.968 M591.903,172.884
				c2.996-1.808,7.967-6.243,14.917-13.305c3.671-3.164,7.653-5.48,11.949-6.949c4.35-1.639,8.898-2.373,13.644-2.204
				c2.824,0.961,5.904,1.639,9.237,2.034c-3.333-2.655-6.92-4.604-10.764-5.848l-1.016,0.424l1.016-0.424
				c-15.535-5.423-34.914-0.396-58.136,15.085c1.526,2.429,3.39,4.548,5.593,6.356c5.764,4.576,10.144,6.243,13.136,5
				L591.903,172.884 M618.77,152.63c0.733,9.548-1.95,18.39-8.051,26.525c-6.159,8.305-12.035,14.379-17.628,18.221
				c-5.933,3.729-9.491,9.124-10.678,16.186c-1.243,6.949-3.701,14.604-7.373,22.966c-3.502,8.249-18.164,22.938-43.983,44.068
				c6.328-1.524,13.475-4.435,21.439-8.729c5.707-3.163,11.752-7.091,18.137-11.78c15.649-8.193,27.854-24.492,36.611-48.898
				c19.209-21.469,27.599-41.724,25.169-60.764C627.668,150.257,623.119,150.991,618.77,152.63 M653.176,140.426
				c0-0.338-0.112-0.649-0.339-0.932c-0.169-0.17-0.452-0.254-0.848-0.254c-0.339,0-0.65,0.084-0.932,0.254
				c-0.169,0.282-0.255,0.593-0.255,0.932c0,0.396,0.086,0.678,0.255,0.848c0.281,0.226,0.593,0.339,0.932,0.339
				c0.396,0,0.679-0.113,0.848-0.339C653.063,141.104,653.176,140.821,653.176,140.426 M638.43,128.138
				c-0.227-0.226-0.508-0.338-0.848-0.338c-0.339,0-0.65,0.112-0.932,0.338c-0.169,0.339-0.255,0.678-0.255,1.017
				c0,0.056,0,0.142,0,0.254l0.848-0.084l-0.848,0.084c0.057,0.17,0.143,0.339,0.255,0.509c0.281,0.338,0.593,0.508,0.932,0.508
				c0.34,0,0.621-0.169,0.848-0.508c0.283-0.227,0.424-0.481,0.424-0.763C638.854,128.815,638.713,128.477,638.43,128.138
				 M653.176,133.223c0-0.339-0.112-0.65-0.339-0.932c-0.169-0.169-0.452-0.254-0.848-0.254c-0.339,0-0.65,0.084-0.932,0.254
				c-0.169,0.282-0.255,0.593-0.255,0.932c0,0.396,0.086,0.678,0.255,0.847c0.281,0.226,0.593,0.339,0.932,0.339
				c0.396,0,0.679-0.113,0.848-0.339C653.063,133.9,653.176,133.618,653.176,133.223 M640.464,137.545
				c0,0.338,0.112,0.593,0.34,0.762c0.282,0.339,0.564,0.509,0.847,0.509c0.396,0,0.678-0.17,0.848-0.509
				c0.283-0.169,0.424-0.424,0.424-0.762c0-0.339-0.141-0.65-0.424-0.933c-0.17-0.169-0.451-0.254-0.848-0.254
				c-0.282,0-0.564,0.084-0.847,0.254C640.576,136.895,640.464,137.206,640.464,137.545 M646.82,126.273
				c-0.057-0.056-0.113-0.112-0.169-0.168c-0.227-0.17-0.48-0.255-0.763-0.255c-0.228,0-0.452,0.028-0.679,0.085L646.82,126.273
				 M644.617,127.121c0,0.283,0.084,0.509,0.253,0.679c0.227,0.338,0.566,0.508,1.019,0.508c0.282,0,0.536-0.169,0.763-0.508
				c0.281-0.17,0.424-0.396,0.424-0.679c0-0.396-0.086-0.678-0.255-0.848l-1.61-0.338c-0.169,0.056-0.283,0.113-0.34,0.17
				C644.701,126.33,644.617,126.668,644.617,127.121 M651.058,126.104c-0.169,0.226-0.255,0.536-0.255,0.932v0.084
				c0,0.283,0.086,0.509,0.255,0.679c0.281,0.338,0.593,0.508,0.932,0.508c0.396,0,0.679-0.169,0.848-0.508
				c0.227-0.17,0.339-0.396,0.339-0.679c0-0.452-0.112-0.791-0.339-1.016c-0.169-0.17-0.452-0.255-0.848-0.255
				C651.65,125.849,651.339,125.935,651.058,126.104 M662.074,137.799c0.34,0,0.649-0.142,0.932-0.424
				c0.228-0.226,0.34-0.509,0.34-0.848c0-0.396-0.112-0.706-0.34-0.933c-0.282-0.169-0.592-0.254-0.932-0.254
				c-0.339,0-0.648,0.085-0.932,0.254c-0.171,0.227-0.255,0.537-0.255,0.933c0,0.338,0.084,0.622,0.255,0.848
				C661.426,137.658,661.735,137.799,662.074,137.799 M656.143,136.528c0.339,0,0.592-0.113,0.763-0.339
				c0.339-0.282,0.508-0.565,0.508-0.847c0-0.396-0.169-0.734-0.508-1.017c-0.171-0.169-0.424-0.254-0.763-0.254
				c-0.34,0-0.649,0.085-0.933,0.254c-0.227,0.283-0.339,0.621-0.339,1.017c0,0.282,0.112,0.565,0.339,0.847
				C655.493,136.415,655.803,136.528,656.143,136.528 M552.412,25.594c-0.283,1.299-0.452,2.571-0.508,3.813
				c-1.3,15.311,2.23,26.357,10.593,33.137c0.622,0.508,1.384,1.045,2.288,1.609C570.04,52.007,565.915,39.154,552.412,25.594z"/>
			<path fill="#EDE7D9" d="M657.158,151.443c7.119-0.508,13.476-4.124,19.068-10.847l-3.135-5.085
				c-5.537,3.842-11.046,6.44-16.525,7.797l-0.848,1.61l0.848-1.61c-3.446,0.791-6.893,1.13-10.339,1.017l-2.713,3.729l2.713-3.729
				c-2.77-0.169-5.538-0.622-8.306-1.356c-0.113-0.056-0.226-0.084-0.34-0.084l-6.695,3.729c3.844,1.243,7.431,3.193,10.764,5.848
				C646.792,152.799,651.961,152.46,657.158,151.443 M630.719,48.052l0.339,0.169c6.497,2.995,11.469,7.486,14.915,13.475
				c11.13-9.548,17.769-26.78,19.915-51.695C638.091,18.871,626.368,31.555,630.719,48.052 M659.787,18.137
				c-3.446,18.983-9.634,28.927-18.56,29.831C637.779,38.646,643.967,28.702,659.787,18.137 M546.311,179.495
				c2.484,4.633,3.955,7.994,4.406,10.084c0.621,5.084-2.795,13.927-10.254,26.525c-7.458,12.429-15.085,22.092-22.881,28.984
				c-9.831,8.868-13.729,16.61-11.696,23.219c0.397,1.074,0.791,1.979,1.187,2.713c1.922,3.22,5.029,5.678,9.322,7.373
				c3.842,1.468,8.729,2.203,14.662,2.203c25.819-21.131,40.481-35.819,43.983-44.068c3.672-8.362,6.13-16.017,7.373-22.966
				c1.187-7.062,4.745-12.457,10.678-16.186c5.593-3.842,11.469-9.916,17.628-18.221c6.101-8.135,8.784-16.978,8.051-26.525
				c-4.296,1.469-8.278,3.785-11.949,6.949c-6.95,7.062-11.921,11.497-14.917,13.305l-0.424,0.169
				c-2.992,1.243-7.372-0.424-13.136-5c-2.203-1.808-4.066-3.927-5.593-6.356c-2.882-4.294-4.773-9.436-5.677-15.424
				c0.903,5.988,2.795,11.129,5.677,15.424c23.222-15.481,42.601-20.509,58.136-15.085l6.695-3.729
				c-5.874-1.977-10.197-3.418-12.965-4.322l-1.018,0.255l1.018-0.255c-4.973-1.525-9.21-2.034-12.712-1.525
				c3.502-0.508,7.739,0,12.712,1.525l11.864-3.475c0.057-0.226,0.112-0.396,0.169-0.508c0.281-0.227,0.593-0.339,0.932-0.339
				c0.283,0,0.509,0.084,0.679,0.254l2.288-0.678c-0.057-0.226-0.085-0.424-0.085-0.593c0-0.339,0.112-0.65,0.34-0.932
				c0.282-0.169,0.564-0.254,0.847-0.254c0.396,0,0.678,0.084,0.848,0.254c0.227,0.226,0.366,0.48,0.424,0.762l3.898-1.102
				c-0.113-0.226-0.169-0.508-0.169-0.847c0-0.282,0.084-0.537,0.253-0.762c0.34-0.283,0.679-0.424,1.019-0.424
				c0.281,0,0.508,0.141,0.677,0.424c0.396,0.226,0.594,0.48,0.594,0.762c0,0.396-0.198,0.706-0.594,0.933
				c-0.169,0.226-0.396,0.338-0.677,0.338c-0.34,0-0.679-0.113-1.019-0.338l-0.084-0.085l-3.898,1.102c0,0.057,0,0.113,0,0.17
				c0,0.396-0.141,0.678-0.424,0.847c-0.17,0.226-0.451,0.339-0.848,0.339c-0.282,0-0.564-0.113-0.847-0.339
				c-0.059-0.056-0.141-0.142-0.255-0.254l-2.288,0.678l0.169,0.085c0.283,0.282,0.424,0.592,0.424,0.932
				c0,0.282-0.141,0.565-0.424,0.848c-0.227,0.226-0.508,0.339-0.848,0.339c-0.339,0-0.65-0.114-0.932-0.339
				c-0.169-0.282-0.255-0.565-0.255-0.848c0-0.169,0.03-0.311,0.086-0.424l-11.864,3.475c2.768,0.904,7.091,2.345,12.965,4.322
				l9.153-5c-0.058-0.169-0.084-0.338-0.084-0.508c0-0.396,0.084-0.706,0.253-0.933c0.34-0.169,0.679-0.254,1.019-0.254
				c0.281,0,0.508,0.085,0.677,0.254c0.396,0.227,0.594,0.537,0.594,0.933c0,0.338-0.198,0.593-0.594,0.762
				c-0.169,0.283-0.396,0.424-0.677,0.424c-0.34,0-0.679-0.141-1.019-0.424c-0.057-0.056-0.112-0.141-0.169-0.254l-9.153,5
				c0.114,0,0.227,0.028,0.34,0.084c2.768,0.735,5.536,1.187,8.306,1.356l9.067-12.204l-0.085-0.084
				c-0.227-0.227-0.339-0.537-0.339-0.933c0-0.282,0.112-0.537,0.339-0.762c0.283-0.283,0.593-0.424,0.933-0.424
				c0.339,0,0.592,0.141,0.763,0.424c0.339,0.226,0.508,0.48,0.508,0.762c0,0.396-0.169,0.706-0.508,0.933
				c-0.171,0.226-0.424,0.338-0.763,0.338c-0.34,0-0.623-0.084-0.848-0.254l-9.067,12.204c3.446,0.113,6.893-0.227,10.339-1.017
				l5.424-10.933c-0.283-0.113-0.481-0.226-0.595-0.338c-0.225-0.227-0.337-0.537-0.337-0.933c0-0.282,0.112-0.537,0.337-0.762
				c0.283-0.283,0.595-0.424,0.934-0.424c0.395,0,0.677,0.141,0.848,0.424c0.226,0.226,0.338,0.48,0.338,0.762
				c0,0.396-0.112,0.706-0.338,0.933c-0.171,0.226-0.453,0.338-0.848,0.338c-0.112,0-0.227,0-0.339,0l-5.424,10.933
				c5.479-1.356,10.988-3.955,16.525-7.797l3.135,5.085c1.357-0.735,2.996-3.22,4.916-7.458s2.685-7.599,2.287-10.085
				c-3.615,4.633-6.524,6.724-8.728,6.271c-6.611-0.452-10.734-3.051-12.373-7.796c-11.188-1.865-25.877-3.757-44.068-5.678
				c-18.757-2.034-34.21-1.045-46.356,2.966c-12.092,4.012-20.848,9.408-26.271,16.187c-7.74,9.718-9.491,20.424-5.254,32.119
				C541.168,169.551,543.147,173.675,546.311,179.495 M656.905,136.188c-0.171,0.226-0.424,0.339-0.763,0.339
				c-0.34,0-0.649-0.113-0.933-0.339c-0.227-0.282-0.339-0.565-0.339-0.847c0-0.396,0.112-0.734,0.339-1.017
				c0.283-0.169,0.593-0.254,0.933-0.254c0.339,0,0.592,0.085,0.763,0.254c0.339,0.283,0.508,0.621,0.508,1.017
				C657.413,135.624,657.244,135.906,656.905,136.188 M663.006,137.375c-0.282,0.282-0.592,0.424-0.932,0.424
				c-0.339,0-0.648-0.142-0.932-0.424c-0.171-0.226-0.255-0.509-0.255-0.848c0-0.396,0.084-0.706,0.255-0.933
				c0.283-0.169,0.593-0.254,0.932-0.254c0.34,0,0.649,0.085,0.932,0.254c0.228,0.227,0.34,0.537,0.34,0.933
				C663.346,136.866,663.233,137.149,663.006,137.375 M650.803,127.036c0-0.396,0.086-0.706,0.255-0.932
				c0.281-0.17,0.593-0.255,0.932-0.255c0.396,0,0.679,0.085,0.848,0.255c0.227,0.226,0.339,0.564,0.339,1.016
				c0,0.283-0.112,0.509-0.339,0.679c-0.169,0.338-0.452,0.508-0.848,0.508c-0.339,0-0.65-0.169-0.932-0.508
				c-0.169-0.17-0.255-0.396-0.255-0.679V127.036l-3.982-0.763c0.169,0.17,0.255,0.452,0.255,0.848c0,0.283-0.143,0.509-0.424,0.679
				c-0.227,0.338-0.48,0.508-0.763,0.508c-0.452,0-0.792-0.169-1.019-0.508c-0.169-0.17-0.253-0.396-0.253-0.679
				c0-0.452,0.084-0.791,0.253-1.016c0.057-0.057,0.171-0.114,0.34-0.17l-19.321-3.729l19.321,3.729
				c0.227-0.057,0.451-0.085,0.679-0.085c0.282,0,0.536,0.085,0.763,0.255c0.056,0.056,0.112,0.112,0.169,0.168L650.803,127.036
				 M640.804,138.307c-0.228-0.169-0.34-0.424-0.34-0.762c0-0.339,0.112-0.65,0.34-0.933c0.282-0.169,0.564-0.254,0.847-0.254
				c0.396,0,0.678,0.084,0.848,0.254c0.283,0.282,0.424,0.593,0.424,0.933c0,0.338-0.141,0.593-0.424,0.762
				c-0.17,0.339-0.451,0.509-0.848,0.509C641.368,138.816,641.086,138.646,640.804,138.307 M652.837,132.291
				c0.227,0.282,0.339,0.593,0.339,0.932c0,0.396-0.112,0.678-0.339,0.847c-0.169,0.226-0.452,0.339-0.848,0.339
				c-0.339,0-0.65-0.113-0.932-0.339c-0.169-0.169-0.255-0.452-0.255-0.847c0-0.339,0.086-0.65,0.255-0.932
				c0.281-0.169,0.593-0.254,0.932-0.254C652.385,132.037,652.668,132.121,652.837,132.291 M637.582,127.799
				c0.34,0,0.621,0.112,0.848,0.338c0.283,0.339,0.424,0.678,0.424,1.017c0,0.282-0.141,0.536-0.424,0.763
				c-0.227,0.338-0.508,0.508-0.848,0.508c-0.339,0-0.65-0.169-0.932-0.508c-0.112-0.17-0.198-0.339-0.255-0.509l-21.355,1.187
				l21.355-1.187c0-0.112,0-0.198,0-0.254c0-0.339,0.086-0.678,0.255-1.017C636.932,127.912,637.243,127.799,637.582,127.799
				 M652.837,139.494c0.227,0.282,0.339,0.593,0.339,0.932c0,0.396-0.112,0.678-0.339,0.848c-0.169,0.226-0.452,0.339-0.848,0.339
				c-0.339,0-0.65-0.113-0.932-0.339c-0.169-0.17-0.255-0.452-0.255-0.848c0-0.338,0.086-0.649,0.255-0.932
				c0.281-0.17,0.593-0.254,0.932-0.254C652.385,139.24,652.668,139.324,652.837,139.494 M543.938,70.086
				c18.192,3.22,31.047-3.475,38.56-20.085C549.106-0.112,536.254,6.583,543.938,70.086 M551.904,29.408
				c0.056-1.243,0.225-2.514,0.508-3.813c13.503,13.56,17.628,26.413,12.373,38.56c-0.904-0.564-1.666-1.102-2.288-1.609
				C554.135,55.765,550.604,44.719,551.904,29.408z"/>
			<path d="M676.736,114.833c-1.639-0.339-3.758,0.085-6.356,1.271c-2.092,1.074-4.773,2.882-8.051,5.424
				c1.639,4.745,5.762,7.345,12.373,7.796c2.203,0.452,5.112-1.638,8.728-6.271C681.622,118.25,679.392,115.511,676.736,114.833
				 M653.261,86.612l-0.593-0.762l-0.084,0.424l-0.171,0.084c0.848,0.847,1.3,1.893,1.355,3.136v1.017l-0.084,0.592l-0.509,1.018
				l-0.932,1.356v0.084c-0.621,0.565-1.299,0.989-2.034,1.271h-0.085c1.752,2.316,3.617,4.265,5.594,5.848
				c0.056,0.056,0.169,0.113,0.339,0.169c0.564-1.638,1.045-3.672,1.44-6.101c-0.113,0-0.593,1.751-1.44,5.253
				c0.396-3.446,0.452-5.169,0.169-5.169l-3.39-1.017l0.255-0.762c0.677-0.848,1.074-1.667,1.187-2.458
				C654.278,89.126,653.939,87.799,653.261,86.612 M651.736,86.358l-0.086,0.084l0.339,0.255v0.084
				c-0.112,0-0.169,0.028-0.169,0.084c-0.734,1.131-1.639,2.77-2.713,4.916c0.34,0.904,0.707,1.667,1.103,2.288l0.084,0.17
				l1.103-0.848v-0.084c0.283-0.169,0.564-0.368,0.848-0.593l0.424-0.593l0.084-0.084l0.424-1.102c0-0.17,0-0.283,0-0.339v-1.102
				c-0.056-1.017-0.424-1.977-1.102-2.882L651.736,86.358 M651.481,85.68v0.169l0.255,0.424L651.481,85.68 M608.516,94.239
				c0.225,0.452,0.536,0.96,0.932,1.525c1.863,0.565,3.39,0.876,4.576,0.933c1.639,0.056,3.814-0.114,6.525-0.509
				c0.451-0.396,0.848-0.847,1.187-1.355c1.355-2.373,1.187-5.057-0.508-8.051c-2.486-0.904-4.718-1.384-6.695-1.441
				c-1.355-0.057-2.825,0.028-4.408,0.254C607.244,88.194,606.708,91.075,608.516,94.239 M609.363,90.171
				c0.791-1.751,1.694-2.769,2.711-3.051l2.034,3.22C613.203,90.228,611.622,90.171,609.363,90.171 M620.041,87.375
				c0.959,1.017,1.439,2.26,1.439,3.728c0,1.469-0.48,2.684-1.439,3.645c-0.171,0.112-0.34,0.282-0.509,0.508
				c-0.848,0.622-1.894,0.932-3.137,0.932c-1.13,0-2.091-0.254-2.882-0.762c0.735,0.396,1.555,0.593,2.458,0.593
				c1.074,0,1.866-0.141,2.374-0.423c0.451-0.452,0.903-0.848,1.355-1.187c0.34-0.396,0.648-1.413,0.932-3.05
				c0.396-1.752,0.085-3.136-0.932-4.153c-0.169-0.112-0.312-0.226-0.424-0.339C619.559,87.036,619.813,87.205,620.041,87.375z"/>
			<path fill="#FFFFFF" d="M651.396,93.307v0.084l-1.103,0.848l-0.084-0.17l-0.339,0.17h-0.085l-0.424,0.169h-0.084l-0.764,0.254
				l-0.592,0.085l-0.087,0.254h0.34l0.848-0.169h0.084c0.171-0.056,0.312-0.113,0.424-0.17c0.735-0.282,1.357-0.649,1.865-1.102
				v-0.084l0.848-0.763C651.961,92.939,651.68,93.138,651.396,93.307 M651.396,86.358l0.254,0.254
				c0.056,0.057,0.112,0.142,0.17,0.254c0-0.056,0.057-0.084,0.169-0.084l-0.339-0.339l-0.678-0.593l-0.763-0.424l0.679,0.424
				l0.338,0.424L651.396,86.358 M621.48,91.103c0-1.468-0.48-2.711-1.439-3.728c-0.228-0.17-0.482-0.339-0.764-0.509
				c0.112,0.114,0.255,0.227,0.424,0.339c1.017,1.017,1.327,2.401,0.932,4.153c-0.283,1.638-0.592,2.655-0.932,3.05
				c-0.452,0.339-0.904,0.735-1.355,1.187c-0.508,0.282-1.3,0.423-2.374,0.423c-0.903,0-1.723-0.198-2.458-0.593
				c0.791,0.508,1.752,0.762,2.882,0.762c1.243,0,2.289-0.31,3.137-0.932c0.169-0.226,0.338-0.396,0.509-0.508
				C621,93.787,621.48,92.572,621.48,91.103 M612.074,87.121c-1.017,0.282-1.92,1.299-2.711,3.051c2.259,0,3.84,0.056,4.745,0.169
				L612.074,87.121z"/>
			<path fill="#4F4226" d="M651.736,86.273l0.084,0.084l0.424-0.508l0.34,0.424l0.084-0.424l0.593,0.762
				c0.679,1.187,1.018,2.514,1.018,3.983c-0.112,0.791-0.51,1.61-1.187,2.458l-0.255,0.762l3.39,1.017
				c0.283,0,0.564-0.028,0.848-0.084l0.084-3.813c0-1.526-0.394-3.729-1.185-6.611c-1.808-0.226-3.306,0.227-4.492,1.356
				L651.736,86.273 M621.735,94.833c-0.339,0.508-0.735,0.96-1.187,1.355c1.47-0.226,4.095-0.932,7.882-2.119l2.627-1.44
				c-0.283-0.283-0.65-0.509-1.103-0.679c-1.751-1.299-3.078-2.259-3.982-2.881c-1.639-1.073-3.221-1.836-4.745-2.288
				C622.922,89.776,623.091,92.459,621.735,94.833 M609.447,95.764c-0.396-0.564-0.707-1.073-0.932-1.525
				c-1.808-3.164-1.271-6.045,1.608-8.645c-3.728,0.452-7.372,1.723-10.931,3.813c-0.34,0.227-0.679,0.424-1.019,0.594l2.798,1.864
				C604.87,93.957,607.694,95.256,609.447,95.764z"/>
			<path fill="#CF8030" d="M651.481,85.85V85.68c1.187-1.13,2.685-1.583,4.492-1.356l-4.492-11.61
				c-2.882,3.616-4.519,7.316-4.916,11.102c-0.338,2.825,0.086,5.48,1.271,7.966c1.245-2.769,2.374-4.604,3.391-5.508l-0.338-0.424
				l-0.679-0.424l0.763,0.424l-0.679-0.424l1.019,0.593l0.084-0.169l-0.508-0.424L651.481,85.85z"/>
			<path fill="#E0782C" d="M614.616,44.324c-6.271-0.396-13.22,0.311-20.847,2.119c-41.414-53.052-60.622-48.051-57.628,15
				c-4.011,11.13-4.832,22.797-2.458,35.001c-15.424,14.746-31.045,18.164-46.866,10.254
				c-92.26-18.362-154.407-14.943-186.441,10.254c-20.734,14.576-32.712,39.294-35.933,74.153
				c-4.181,11.3-14.689,30.679-31.526,58.136c-15.197,28.701-17.458,60.961-6.78,96.781c0.679-4.011,3.475-8.475,8.39-13.391
				c10.848-17.118,23.39-34.632,37.628-52.543c17.909-22.654,30.903-48.221,38.983-76.695c-1.13-3.786-1.639-10.142-1.526-19.068
				c0.169-12.091,1.102-20.311,2.797-24.661c-1.695,4.35-2.627,12.57-2.797,24.661c-0.113,8.926,0.396,15.282,1.526,19.068
				c1.355,4.859,3.418,9.803,6.187,14.831c3.672,6.838,7.825,11.865,12.458,15.085c5.198,7.345,9.717,14.152,13.56,20.424
				c30.283,18.419,39.943,44.068,28.983,76.95c10.453,15.142,17.147,33.955,20.085,56.441c9.436,2.994,16.837,3.163,22.204,0.508
				c-1.413-6.328-4.633-10.254-9.661-11.78c5.028,1.526,8.249,5.452,9.661,11.78c2.147-1.131,4.068-2.825,5.763-5.085
				c-1.355-9.378-8.191-15.029-20.509-16.949l-4.152-10.254l-0.509-0.171l-0.169-0.084l-0.423-2.034l-0.424-1.524l-2.712-7.119
				l-7.627-19.491l12.966-44.832v-5.593c0.282-6.44,1.469-12.655,3.559-18.645c-10-7.346-17.684-14.83-23.051-22.457
				c-5.706-8.306-9.378-17.713-11.017-28.221c8.757,22.033,23.107,37.627,43.051,46.78c3.051,0.396,6.865,1.58,11.441,3.559
				c0.961,0.452,1.921,0.848,2.882,1.187c7.797,2.994,16.921,5.142,27.373,6.44c13.278,1.865,24.321,1.498,33.136-1.101
				c1.753,11.978,5.367,23.163,10.848,33.56c31.299,48.022,47.57,94.773,48.813,140.256l0.085,2.881
				c4.352,5.989,10.565,8.927,18.645,8.813c-0.057-6.665-1.328-12.033-3.814-16.102c2.486,4.068,3.758,9.437,3.814,16.102
				c3.504-0.056,7.486-0.791,11.948-2.203c2.317-4.633,0.34-10.451-5.932-17.457c6.271,7.006,8.249,12.824,5.932,17.457
				c2.655-0.848,4.973-1.694,6.95-2.542c-0.734-14.236-7.063-23.163-18.983-26.779c-8.136-33.278-15.396-58.871-21.779-76.78
				c-1.301-3.842-2.628-7.231-3.983-10.17c-0.621-1.809-1.3-4.492-2.035-8.051c-1.468-8.701-2.683-22.175-3.643-40.425
				c-5.933,0-10.82-0.735-14.662-2.203c-4.293-1.695-7.4-4.153-9.322-7.373c-0.396-0.734-0.789-1.639-1.187-2.713
				c-2.032-6.608,1.865-14.351,11.696-23.219c7.796-6.893,15.423-16.556,22.881-28.984c7.459-12.599,10.875-21.441,10.254-26.525
				c-0.451-2.091-1.922-5.452-4.406-10.084c-3.163-5.82-5.143-9.944-5.932-12.374c-4.237-11.695-2.486-22.401,5.254-32.119
				c5.424-6.779,14.18-12.175,26.271-16.187c12.146-4.011,27.6-5,46.356-2.966c18.191,1.921,32.881,3.813,44.068,5.678
				c3.277-2.542,5.959-4.35,8.051-5.424c2.599-1.186,4.718-1.61,6.356-1.271c-7.91-4.35-14.943-9.011-21.103-13.983
				c-2.091-1.582-4.097-3.644-6.017-6.187c-0.112,0.057-0.255,0.114-0.424,0.17h-0.086l-0.932,0.169h-0.34l0.087-0.254l0.592-0.085
				l0.764-0.254h0.084l-0.255-0.339l-1.271-2.288c-1.185-2.486-1.608-5.142-1.271-7.966c0.397-3.786,2.034-7.486,4.916-11.102
				c-0.509-1.808-1.271-3.645-2.288-5.508c-1.357-2.26-2.43-4.097-3.221-5.509c-3.446-5.989-8.418-10.48-14.915-13.475l-0.339-0.169
				C625.689,45.793,620.323,44.55,614.616,44.324 M620.549,96.188c-2.711,0.396-4.887,0.565-6.525,0.509
				c-1.187-0.057-2.713-0.368-4.576-0.933c-1.753-0.508-4.577-1.807-8.475-3.898l-2.798-1.864l-5.169,2.542
				c5.366,4.689,10.989,7.345,16.865,7.967c6.045,0.452,12.684-1.413,19.915-5.594l-0.932,1.695
				c-1.526,1.808-2.996,3.164-4.408,4.068c-1.808,1.13-4.04,1.836-6.695,2.119c-12.937,1.412-22.371-1.498-28.304-8.729l-0.17-0.254
				c-0.228-0.226-0.424-0.452-0.593-0.678l3.306-1.356c0.225,0.226,0.563,0.48,1.016,0.762l5.169-2.542
				c0.34-0.17,0.679-0.367,1.019-0.594c3.559-2.09,7.203-3.362,10.931-3.813c1.583-0.226,3.053-0.311,4.408-0.254
				c1.978,0.057,4.209,0.537,6.695,1.441c1.524,0.452,3.106,1.215,4.745,2.288c0.904,0.622,2.231,1.582,3.982,2.881
				c0.452,0.17,0.819,0.396,1.103,0.679l1.017,0.678l-1.017-0.678l-0.171,0.762v0.169c-0.056,0.17-0.253,0.848-0.592,2.035
				l-1.44,2.203c-1.526,1.865-2.996,3.249-4.408,4.153c-1.808,1.129-4.04,1.835-6.695,2.119c2.655-0.283,4.888-0.989,6.695-2.119
				c1.412-0.905,2.882-2.289,4.408-4.153l1.44-2.203c0.339-1.187,0.536-1.865,0.592-2.035v-0.169l0.171-0.762l-2.627,1.44
				C624.644,95.256,622.019,95.962,620.549,96.188 M582.497,50.001c-7.513,16.611-20.367,23.306-38.56,20.085
				C536.254,6.583,549.106-0.112,582.497,50.001 M446.902,132.629l9.406,2.882L446.902,132.629 M441.479,126.782
				c-5.424-0.339-10.763-0.933-16.018-1.78c44.237-1.525,77.034-6.384,98.392-14.576
				C495.096,122.686,467.638,128.138,441.479,126.782 M447.412,119.833l8.22-6.186L447.412,119.833 M487.836,253.816
				c-28.418-2.428-33.503-29.887-15.255-82.373C465.462,211.048,470.547,238.506,487.836,253.816 M328.766,152.544
				c10.622,51.583,27.797,84.182,51.526,97.798C345.038,240.795,327.862,208.195,328.766,152.544z"/>
			<path fill="#C8661E" d="M591.99,93.053l-2.543,1.016c5.933,7.231,15.367,10.142,28.304,8.729
				c2.655-0.283,4.888-0.989,6.695-2.119c1.412-0.904,2.882-2.26,4.408-4.068l0.932-1.695c-7.231,4.181-13.87,6.045-19.915,5.594
				c-5.876-0.622-11.499-3.277-16.865-7.967L591.99,93.053 M588.685,93.138c0.169,0.226,0.365,0.452,0.593,0.678l0.17,0.254
				l2.543-1.016l1.016-0.509c-0.452-0.282-0.791-0.536-1.016-0.762L588.685,93.138z"/>
		</g>
	</g>
	<g>
		<path id="Layer0_0_1_STROKES" fill="none" stroke="#000000" stroke-linecap="round" stroke-linejoin="round" d="M564.785,64.154
			c5.255-12.146,1.13-25-12.373-38.56 M609.447,95.764c1.863,0.565,3.39,0.876,4.576,0.933c1.639,0.056,3.814-0.114,6.525-0.509
			 M621.228,86.782c-2.486-0.904-4.718-1.384-6.695-1.441c-1.355-0.057-2.825,0.028-4.408,0.254
			c-3.728,0.452-7.372,1.723-10.931,3.813c-0.34,0.227-0.679,0.424-1.019,0.594l2.798,1.864c3.897,2.091,6.722,3.39,8.475,3.898
			 M589.277,93.815l0.17,0.254l2.543-1.016l1.016-0.509l5.169-2.542 M543.938,70.086c18.192,3.22,31.047-3.475,38.56-20.085
			C549.106-0.112,536.254,6.583,543.938,70.086z M651.736,86.273l-0.255-0.593 M620.549,96.188c1.47-0.226,4.095-0.932,7.882-2.119
			l2.627-1.44c-0.283-0.283-0.65-0.509-1.103-0.679c-1.751-1.299-3.078-2.259-3.982-2.881c-1.639-1.073-3.221-1.836-4.745-2.288
			 M632.074,93.307l-1.017-0.678l-0.171,0.762v0.169c-0.056,0.17-0.253,0.848-0.592,2.035l-1.44,2.203
			c-1.526,1.865-2.996,3.249-4.408,4.153c-1.808,1.129-4.04,1.835-6.695,2.119 M641.228,47.968
			c-3.448-9.322,2.739-19.266,18.56-29.831 M414.614,387.632c-1.413-6.328-4.633-10.254-9.661-11.78 M562.582,447.547
			c-0.057-6.665-1.328-12.033-3.814-16.102 M574.53,445.344c2.317-4.633,0.34-10.451-5.932-17.457 M516.395,409.242
			c1.074-4.916,0.141-9.661-2.795-14.238 M505.633,409.921c2.09-4.804,2.118-10.001,0.084-15.594"/>
	</g>
	<g>
		<path id="Layer0_0_2_STROKES" fill="none" stroke="#160E0A" stroke-width="2" stroke-linecap="round" stroke-linejoin="round" d="
			M234.528,332.631c-4.915,4.916-7.711,9.38-8.39,13.391c-10.678-35.82-8.417-68.08,6.78-96.781
			c16.837-27.458,27.345-46.836,31.526-58.136c3.22-34.858,15.198-59.577,35.933-74.153c32.034-25.197,94.182-28.616,186.441-10.254
			c15.821,7.91,31.442,4.492,46.866-10.254c-2.374-12.204-1.553-23.871,2.458-35.001c-2.994-63.051,16.214-68.051,57.628-15
			c7.627-1.808,14.575-2.514,20.847-2.119c9.604-20,26.695-31.441,51.271-34.322c-2.146,24.915-8.785,42.147-19.915,51.695
			c0.791,1.412,1.863,3.249,3.221,5.509c1.017,1.864,1.779,3.7,2.288,5.508l4.492,11.61c0.791,2.881,1.185,5.084,1.185,6.611
			l-0.084,3.813l-1.017,5.253 M655.719,100.68c-0.057,0.056-0.085,0.113-0.085,0.169c6.159,4.972,13.192,9.633,21.103,13.983
			c2.655,0.678,4.886,3.418,6.693,8.22c0.397,2.486-0.367,5.848-2.287,10.085s-3.559,6.723-4.916,7.458
			c-5.593,6.723-11.949,10.339-19.068,10.847c-5.197,1.017-10.366,1.356-15.508,1.017c-3.333-0.396-6.413-1.073-9.237-2.034
			c2.43,19.04-5.96,39.295-25.169,60.764c-8.758,24.406-20.962,40.705-36.611,48.898c-2.091,6.724-6.216,13.418-12.373,20.085
			c-2.599,24.803-8.446,44.491-17.542,59.069c6.383,17.909,13.644,43.502,21.779,76.78c11.921,3.616,18.249,12.543,18.983,26.779
			c-1.978,0.848-4.295,1.694-6.95,2.542c-4.462,1.412-8.444,2.147-11.948,2.203c-8.079,0.114-14.293-2.823-18.645-8.813
			l-0.085-2.881c-0.791-14.464-4.181-28.447-10.169-41.95c-0.96-5.085-2.288-9.773-3.982-14.067
			c-1.526-4.181-3.813-8.928-6.866-14.238l-0.508-0.848l-8.728,17.289c6.27,6.157,8.643,14.915,7.117,26.271l-4.322,0.932
			l-2.627,0.424c-3.164,0.339-5.876,0.424-8.135,0.255c-1.922-0.283-3.617-0.65-5.085-1.103c-2.77-0.903-5.735-3.418-8.898-7.543
			c-3.221-4.181-2.966-8.954,0.763-14.322c3.841-5.366,9.52-21.101,17.034-47.203c-3.39-7.119-5.961-13.417-7.712-18.899
			c-4.916-7.005-7.147-15.423-6.695-25.253c-5.48-10.396-9.095-21.582-10.848-33.56c-8.814,2.599-19.857,2.966-33.136,1.101
			c-10.452-1.299-19.576-3.446-27.373-6.44c-10.339,14.182-19.294,21.978-26.865,23.39l-12.966,44.832l7.627,19.491l2.712,7.119
			l0.424,1.524l0.254,0.51l0.169,0.084l0.424,0.933v0.169l0.254,0.594l4.152,10.254c12.317,1.92,19.153,7.571,20.509,16.949
			c-1.695,2.26-3.616,3.954-5.763,5.085c-5.367,2.655-12.768,2.486-22.204-0.508l-3.898-1.442l-2.119-13.896
			c-0.509-1.922-1.723-4.888-3.644-8.898c-0.848-2.093-1.695-4.097-2.542-6.019c-1.469-3.446-3.362-6.864-5.678-10.254
			c1.469,6.497,0.734,11.923-2.204,16.272c-2.938,0.45-5.734,0.508-8.39,0.169c-7.458-1.129-13.871-5.904-19.238-14.323
			c10.792-21.694,12.486-39.915,5.085-54.661l5.085-19.068c-3.164-6.779-7.006-13.868-11.525-21.271
			c-3.842-6.271-8.362-13.079-13.56-20.424l-14.407,23.645c-25.312,29.605-46.187,49.944-62.628,61.018
			c-7.741,5.254-13.813,10.14-18.221,14.66 M311.139,203.393c-1.13-3.786-1.639-10.142-1.526-19.068
			c0.169-12.091,1.102-20.311,2.797-24.661 M618.77,152.63c-4.296,1.469-8.278,3.785-11.949,6.949
			c-6.95,7.062-11.921,11.497-14.917,13.305l-0.424,0.169c-2.992,1.243-7.372-0.424-13.136-5c-2.203-1.808-4.066-3.927-5.593-6.356
			c-2.882-4.294-4.773-9.436-5.677-15.424 M645.973,61.697c-3.446-5.989-8.418-10.48-14.915-13.475l-0.339-0.169
			c-5.029-2.259-10.396-3.502-16.103-3.729 M651.481,85.85V85.68c1.187-1.13,2.685-1.583,4.492-1.356 M649.617,94.663
			c1.92,2.542,3.926,4.605,6.017,6.187 M651.227,86.273c-1.017,0.904-2.146,2.739-3.391,5.508l1.271,2.288l0.255,0.339
			 M651.481,72.714c-2.882,3.616-4.519,7.316-4.916,11.102c-0.338,2.825,0.086,5.48,1.271,7.966 M676.736,114.833
			c-1.639-0.339-3.758,0.085-6.356,1.271c-2.092,1.074-4.773,2.882-8.051,5.424c1.639,4.745,5.762,7.345,12.373,7.796
			c2.203,0.452,5.112-1.638,8.728-6.271 M656.566,143.308c5.479-1.356,10.988-3.955,16.525-7.797l3.135,5.085 M646.228,144.325
			c3.446,0.113,6.893-0.227,10.339-1.017 M624.617,138.562c2.768,0.904,7.091,2.345,12.965,4.322c0.114,0,0.227,0.028,0.34,0.084
			c2.768,0.735,5.536,1.187,8.306,1.356 M611.905,137.036c3.502-0.508,7.739,0,12.712,1.525 M632.413,150.426
			c-4.745-0.169-9.294,0.565-13.644,2.204 M665.888,10.001c-27.797,8.87-39.52,21.553-35.169,38.051 M423.683,256.698
			c-0.961-0.339-1.921-0.734-2.882-1.187c-4.576-1.979-8.39-3.163-11.441-3.559c-1.073-0.227-2.005-0.312-2.796-0.255
			c-3.164,0.114-5.226,1.498-6.187,4.152c-2.09,5.989-3.277,12.204-3.559,18.645v5.593 M374.529,346.614
			c0.057-0.564-1.045-2.401-3.305-5.509c-3.446-4.914-6.13-8.927-8.051-12.033c4.125-10.621,3.22-24.237-2.712-40.849
			c-1.582-4.294-3.446-8.7-5.593-13.221 M395.207,355.173l0.255-0.423 M394.615,353.055l0.423,2.034l0.169,0.084l0.509,0.171
			 M394.869,353.564l0.593,1.017 M311.139,203.393c1.355,4.859,3.418,9.803,6.187,14.831c3.672,6.838,7.825,11.865,12.458,15.085
			 M552.496,271.868c-7.965,4.294-15.111,7.204-21.439,8.729c0.96,18.25,2.175,31.724,3.643,40.425 M570.633,260.088
			c-6.385,4.689-12.43,8.617-18.137,11.78 M534.699,321.021c0.735,3.559,1.414,6.242,2.035,8.051
			c1.355,2.938,2.683,6.328,3.983,10.17 M522.327,364.75c-4.067-6.667-8.36-14.999-12.881-25"/>
	</g>
	<g>
		<path id="Layer0_0_3_STROKES" fill="none" stroke="#160E0A" stroke-linecap="round" stroke-linejoin="round" d="M662.329,121.528
			c-11.188-1.865-25.877-3.757-44.068-5.678c-18.757-2.034-34.21-1.045-46.356,2.966c-12.092,4.012-20.848,9.408-26.271,16.187
			c-7.74,9.718-9.491,20.424-5.254,32.119c0.789,2.43,2.769,6.554,5.932,12.374c2.484,4.633,3.955,7.994,4.406,10.084
			c0.621,5.084-2.795,13.927-10.254,26.525c-7.458,12.429-15.085,22.092-22.881,28.984c-9.831,8.868-13.729,16.61-11.696,23.219
			c0.397,1.074,0.791,1.979,1.187,2.713c1.922,3.22,5.029,5.678,9.322,7.373c3.842,1.468,8.729,2.203,14.662,2.203 M363.936,363.056
			c3.107-6.214,3.729-11.921,1.865-17.118"/>
	</g>
	<g>
		<path id="Layer0_0_4_STROKES" fill="none" stroke="#000000" stroke-width="2" stroke-linecap="round" stroke-linejoin="round" d="
			M651.396,85.85l-0.084,0.169"/>
	</g>
	<g>
		
			<path id="Layer0_0_5_STROKES" fill="none" stroke="#666666" stroke-width="0.05" stroke-linecap="round" stroke-linejoin="round" stroke-opacity="0.4588" d="
			M661.99,132.375l-5.424,10.933 M655.295,132.121l-9.067,12.204 M656.566,143.308l-0.848,1.61 M650.803,127.036l-3.982-0.763
			 M625.889,122.206l19.321,3.729l1.61,0.338 M646.82,131.951l-3.898,1.102 M640.549,133.816l-2.288,0.678 M636.481,135.087
			l-11.864,3.475 M637.582,142.884l9.153-5l1.188-0.762 M642.922,133.053l-2.373,0.763 M655.719,131.443l-0.424,0.678
			 M647.923,131.613l-1.103,0.338 M636.396,129.409l-21.355,1.187 M624.617,138.562l-1.018,0.255 M637.243,129.324l-0.848,0.084
			 M638.261,134.494l-1.779,0.593 M637.582,142.884l-6.695,3.729 M646.228,144.325l-2.713,3.729 M630.887,146.612l-1.016,0.424
			 M446.902,132.629l9.406,2.882 M441.479,126.782l20.169-3.136 M447.412,119.833l8.22-6.186"/>
	</g>
</g>
</svg>
