<svg xmlns="http://www.w3.org/2000/svg" width="900" height="450" viewBox="0 0 900 450"><path fill="#DE7221" d="M522.327 364.75c-4.067-6.667-8.36-14.999-12.881-25-7.515 26.103-13.193 41.837-17.034 47.203-3.729 5.368-3.983 10.142-.763 14.322 3.163 4.125 6.129 6.64 8.898 7.543 1.468.452 3.163.819 5.085 1.103 2.09-4.804 2.118-10.001.084-15.594 2.034 5.593 2.006 10.79-.084 15.594 2.259.169 4.971.084 8.135-.255l2.627-.424c1.074-4.916.141-9.661-2.795-14.238 2.936 4.577 3.869 9.322 2.795 14.238l4.322-.932c1.525-11.356-.848-20.114-7.117-26.271l8.728-17.289m35.933-84.577c6.157-6.667 10.282-13.361 12.373-20.085-6.385 4.689-12.43 8.617-18.137 11.78-12.089 13.955-18.021 30.339-17.797 49.153.735 3.559 1.414 6.242 2.035 8.051 1.355 2.938 2.683 6.328 3.983 10.17 9.096-14.578 14.944-34.266 17.543-59.069m-163.222 73.475l-.169-.084.593 1.017-.424-.933m-.169-.084l-.254-.51.423 2.034.169.084.255-.423v-.169l-.593-1.016M665.888 10.001c-24.576 2.881-41.668 14.322-51.271 34.322 5.707.226 11.073 1.469 16.103 3.729-4.352-16.497 7.371-29.181 35.168-38.051z"/><path fill="#A8561A" d="M522.327 364.75l.508.848c3.053 5.311 5.34 10.058 6.866 14.238 1.694 4.294 3.022 8.982 3.982 14.067 5.988 13.503 9.378 27.486 10.169 41.95-1.243-45.482-17.515-92.233-48.813-140.256-.452 9.83 1.779 18.248 6.695 25.253 1.751 5.482 4.322 11.78 7.712 18.899 4.521 10.002 8.814 18.334 12.881 25.001m30.169-92.882c-7.965 4.294-15.111 7.204-21.439 8.729.96 18.25 2.175 31.724 3.643 40.425-.225-18.815 5.707-35.199 17.796-49.154m-189.323 57.204c1.921 3.106 4.605 7.119 8.051 12.033 2.26 3.107 3.362 4.944 3.305 5.509 2.316 3.39 4.209 6.808 5.678 10.254a210.917 210.917 0 0 1 2.542 6.019c1.921 4.011 3.135 6.977 3.644 8.898l2.119 13.896 3.898 1.442c-2.938-22.486-9.632-41.3-20.085-56.441 10.96-32.882 1.3-58.531-28.983-76.95 4.52 7.402 8.361 14.491 11.525 21.271 2.146 4.521 4.011 8.927 5.593 13.221 5.933 16.611 6.838 30.227 2.713 40.848m.763 33.984c3.107-6.214 3.729-11.921 1.865-17.118 1.864 5.197 1.242 10.904-1.865 17.118 2.655.339 5.452.281 8.39-.169 2.938-4.35 3.673-9.775 2.204-16.272.057-.564-1.045-2.401-3.305-5.509-3.446-4.914-6.13-8.927-8.051-12.033 4.125-10.621 3.22-24.237-2.712-40.849-1.582-4.294-3.446-8.7-5.593-13.221l-5.085 19.068c7.401 14.746 5.707 32.967-5.085 54.661 5.366 8.419 11.78 13.195 19.237 14.324m13.39-129.662c5.367 7.627 13.052 15.111 23.051 22.457.96-2.654 3.022-4.038 6.187-4.152.791-.057 1.723.028 2.796.255-19.943-9.153-34.294-24.747-43.051-46.78 1.639 10.507 5.311 19.913 11.017 28.22m46.357 23.304a30.738 30.738 0 0 1-2.882-1.187c-4.576-1.979-8.39-3.163-11.441-3.559-1.073-.227-2.005-.312-2.796-.255-3.164.114-5.226 1.498-6.187 4.152-2.09 5.989-3.277 12.204-3.559 18.645v5.593c7.571-1.411 16.525-9.207 26.865-23.389m-43.391-6.355c-23.729-13.616-40.904-46.215-51.526-97.798-.904 55.65 16.272 88.25 51.526 97.798m92.289-78.899c-18.248 52.486-13.163 79.945 15.255 82.373-17.289-15.311-22.374-42.769-15.255-82.373m-47.119-46.442a165.396 165.396 0 0 0 16.018 1.78l20.169-3.136-20.169 3.136c26.158 1.355 53.616-4.096 82.374-16.356-21.358 8.192-54.155 13.051-98.392 14.576z"/><path fill="#A35318" d="M315.376 256.953l14.407-23.645c-4.633-3.221-8.786-8.248-12.458-15.085-2.769-5.028-4.831-9.972-6.187-14.831-8.08 28.475-21.074 54.041-38.983 76.695-14.238 17.911-26.78 35.425-37.628 52.543 4.407-4.521 10.48-9.406 18.221-14.66 16.441-11.073 37.317-31.411 62.628-61.017z"/><path fill="#D2C2A2" d="M638.261 134.494c-.17-.169-.396-.254-.679-.254-.339 0-.65.112-.932.339a2.601 2.601 0 0 0-.169.508l1.78-.593m.593 1.017c0-.339-.141-.649-.424-.932l-.169-.085-1.779.593a.95.95 0 0 0-.086.424c0 .282.086.565.255.848.281.226.593.339.932.339.34 0 .621-.114.848-.339.282-.283.423-.566.423-.848m7.797 1.864c0 .169.026.338.084.508l1.188-.762-1.188.762a.958.958 0 0 0 .169.254c.34.283.679.424 1.019.424.281 0 .508-.141.677-.424.396-.169.594-.424.594-.762 0-.396-.198-.706-.594-.933-.169-.169-.396-.254-.677-.254-.34 0-.679.085-1.019.254-.169.227-.253.538-.253.933m-3.729-4.152v-.17l-2.373.763c.114.112.196.198.255.254.282.226.564.339.847.339.396 0 .678-.113.848-.339.282-.17.423-.452.423-.847m-2.458 0c0 .169.028.367.085.593l2.373-.763a1.48 1.48 0 0 0-.424-.762c-.17-.169-.451-.254-.848-.254-.282 0-.564.084-.847.254a1.451 1.451 0 0 0-.339.932m6.44-2.881a1.24 1.24 0 0 0-.253.762c0 .339.056.621.169.847l1.103-.338-1.103.338.084.085c.34.226.679.338 1.019.338a.807.807 0 0 0 .677-.338c.396-.227.594-.537.594-.933 0-.282-.198-.537-.594-.762-.169-.283-.396-.424-.677-.424-.34.001-.679.142-1.019.425m9.239 2.033c.339 0 .592-.113.763-.338.339-.227.508-.537.508-.933 0-.282-.169-.537-.508-.762a.834.834 0 0 0-.763-.424c-.34 0-.649.141-.933.424-.227.226-.339.48-.339.762 0 .396.112.706.339.933l.085.084.424-.678-.424.678c.225.17.508.254.848.254m7.372-1.271c0-.282-.112-.537-.338-.762-.171-.283-.453-.424-.848-.424-.339 0-.65.141-.934.424-.225.226-.337.48-.337.762 0 .396.112.706.337.933.113.112.312.226.595.338h.339c.395 0 .677-.113.848-.338.225-.227.338-.537.338-.933m-22.287-83.136c8.926-.904 15.113-10.848 18.56-29.831-15.821 10.565-22.009 20.509-18.56 29.831m-49.325 124.916c2.996-1.808 7.967-6.243 14.917-13.305 3.671-3.164 7.653-5.48 11.949-6.949 4.35-1.639 8.898-2.373 13.644-2.204 2.824.961 5.904 1.639 9.237 2.034-3.333-2.655-6.92-4.604-10.764-5.848l-1.016.424 1.016-.424c-15.535-5.423-34.914-.396-58.136 15.085a26.186 26.186 0 0 0 5.593 6.356c5.764 4.576 10.144 6.243 13.136 5l.424-.169m26.867-20.254c.733 9.548-1.95 18.39-8.051 26.525-6.159 8.305-12.035 14.379-17.628 18.221-5.933 3.729-9.491 9.124-10.678 16.186-1.243 6.949-3.701 14.604-7.373 22.966-3.502 8.249-18.164 22.938-43.983 44.068 6.328-1.524 13.475-4.435 21.439-8.729 5.707-3.163 11.752-7.091 18.137-11.78 15.649-8.193 27.854-24.492 36.611-48.898 19.209-21.469 27.599-41.724 25.169-60.764-4.745-.168-9.294.566-13.643 2.205m34.406-12.204c0-.338-.112-.649-.339-.932-.169-.17-.452-.254-.848-.254-.339 0-.65.084-.932.254a1.781 1.781 0 0 0-.255.932c0 .396.086.678.255.848.281.226.593.339.932.339.396 0 .679-.113.848-.339.226-.17.339-.453.339-.848m-14.746-12.288a1.15 1.15 0 0 0-.848-.338c-.339 0-.65.112-.932.338a2.264 2.264 0 0 0-.255 1.017v.254l.848-.084-.848.084c.057.17.143.339.255.509.281.338.593.508.932.508.34 0 .621-.169.848-.508.283-.227.424-.481.424-.763 0-.34-.141-.678-.424-1.017m14.746 5.085c0-.339-.112-.65-.339-.932-.169-.169-.452-.254-.848-.254-.339 0-.65.084-.932.254a1.781 1.781 0 0 0-.255.932c0 .396.086.678.255.847.281.226.593.339.932.339.396 0 .679-.113.848-.339.226-.17.339-.452.339-.847m-12.712 4.322c0 .338.112.593.34.762.282.339.564.509.847.509.396 0 .678-.17.848-.509.283-.169.424-.424.424-.762 0-.339-.141-.65-.424-.933-.17-.169-.451-.254-.848-.254-.282 0-.564.084-.847.254-.228.283-.34.594-.34.933m6.356-11.272l-.169-.168a1.239 1.239 0 0 0-.763-.255c-.228 0-.452.028-.679.085l1.611.338m-2.203.848c0 .283.084.509.253.679.227.338.566.508 1.019.508.282 0 .536-.169.763-.508.281-.17.424-.396.424-.679 0-.396-.086-.678-.255-.848l-1.61-.338c-.169.056-.283.113-.34.17-.17.225-.254.563-.254 1.016m6.441-1.017c-.169.226-.255.536-.255.932v.084c0 .283.086.509.255.679.281.338.593.508.932.508.396 0 .679-.169.848-.508a.805.805 0 0 0 .339-.679c0-.452-.112-.791-.339-1.016-.169-.17-.452-.255-.848-.255-.34 0-.651.086-.932.255m11.016 11.695c.34 0 .649-.142.932-.424.228-.226.34-.509.34-.848 0-.396-.112-.706-.34-.933a1.778 1.778 0 0 0-.932-.254c-.339 0-.648.085-.932.254-.171.227-.255.537-.255.933 0 .338.084.622.255.848.284.283.593.424.932.424m-5.931-1.271c.339 0 .592-.113.763-.339.339-.282.508-.565.508-.847 0-.396-.169-.734-.508-1.017-.171-.169-.424-.254-.763-.254-.34 0-.649.085-.933.254a1.572 1.572 0 0 0-.339 1.017c0 .282.112.565.339.847.283.226.593.339.933.339M552.412 25.594a22.713 22.713 0 0 0-.508 3.813c-1.3 15.311 2.23 26.357 10.593 33.137a22.314 22.314 0 0 0 2.288 1.609c5.255-12.146 1.13-24.999-12.373-38.559z"/><path fill="#EDE7D9" d="M657.158 151.443c7.119-.508 13.476-4.124 19.068-10.847l-3.135-5.085c-5.537 3.842-11.046 6.44-16.525 7.797l-.848 1.61.848-1.61a40.156 40.156 0 0 1-10.339 1.017l-2.713 3.729 2.713-3.729a42.417 42.417 0 0 1-8.306-1.356.758.758 0 0 0-.34-.084l-6.695 3.729c3.844 1.243 7.431 3.193 10.764 5.848 5.142.337 10.311-.002 15.508-1.019M630.719 48.052l.339.169c6.497 2.995 11.469 7.486 14.915 13.475 11.13-9.548 17.769-26.78 19.915-51.695-27.797 8.87-39.52 21.554-35.169 38.051m29.068-29.915c-3.446 18.983-9.634 28.927-18.56 29.831-3.448-9.322 2.74-19.266 18.56-29.831M546.311 179.495c2.484 4.633 3.955 7.994 4.406 10.084.621 5.084-2.795 13.927-10.254 26.525-7.458 12.429-15.085 22.092-22.881 28.984-9.831 8.868-13.729 16.61-11.696 23.219.397 1.074.791 1.979 1.187 2.713 1.922 3.22 5.029 5.678 9.322 7.373 3.842 1.468 8.729 2.203 14.662 2.203 25.819-21.131 40.481-35.819 43.983-44.068 3.672-8.362 6.13-16.017 7.373-22.966 1.187-7.062 4.745-12.457 10.678-16.186 5.593-3.842 11.469-9.916 17.628-18.221 6.101-8.135 8.784-16.978 8.051-26.525-4.296 1.469-8.278 3.785-11.949 6.949-6.95 7.062-11.921 11.497-14.917 13.305l-.424.169c-2.992 1.243-7.372-.424-13.136-5a26.207 26.207 0 0 1-5.593-6.356c-2.882-4.294-4.773-9.436-5.677-15.424.903 5.988 2.795 11.129 5.677 15.424 23.222-15.481 42.601-20.509 58.136-15.085l6.695-3.729a1689.193 1689.193 0 0 0-12.965-4.322l-1.018.255 1.018-.255c-4.973-1.525-9.21-2.034-12.712-1.525 3.502-.508 7.739 0 12.712 1.525l11.864-3.475c.057-.226.112-.396.169-.508a1.45 1.45 0 0 1 .932-.339c.283 0 .509.084.679.254l2.288-.678a2.468 2.468 0 0 1-.085-.593c0-.339.112-.65.34-.932.282-.169.564-.254.847-.254.396 0 .678.084.848.254.227.226.366.48.424.762l3.898-1.102c-.113-.226-.169-.508-.169-.847 0-.282.084-.537.253-.762.34-.283.679-.424 1.019-.424.281 0 .508.141.677.424.396.226.594.48.594.762 0 .396-.198.706-.594.933a.804.804 0 0 1-.677.338c-.34 0-.679-.113-1.019-.338l-.084-.085-3.898 1.102v.17c0 .396-.141.678-.424.847-.17.226-.451.339-.848.339-.282 0-.564-.113-.847-.339-.059-.056-.141-.142-.255-.254l-2.288.678.169.085c.283.282.424.592.424.932 0 .282-.141.565-.424.848a1.151 1.151 0 0 1-.848.339c-.339 0-.65-.114-.932-.339a1.64 1.64 0 0 1-.255-.848c0-.169.03-.311.086-.424l-11.864 3.475c2.768.904 7.091 2.345 12.965 4.322l9.153-5a1.55 1.55 0 0 1-.084-.508c0-.396.084-.706.253-.933a2.27 2.27 0 0 1 1.019-.254c.281 0 .508.085.677.254.396.227.594.537.594.933 0 .338-.198.593-.594.762-.169.283-.396.424-.677.424-.34 0-.679-.141-1.019-.424a.975.975 0 0 1-.169-.254l-9.153 5c.114 0 .227.028.34.084a42.343 42.343 0 0 0 8.306 1.356l9.067-12.204-.085-.084c-.227-.227-.339-.537-.339-.933 0-.282.112-.537.339-.762.283-.283.593-.424.933-.424.339 0 .592.141.763.424.339.226.508.48.508.762 0 .396-.169.706-.508.933-.171.226-.424.338-.763.338-.34 0-.623-.084-.848-.254l-9.067 12.204a40.2 40.2 0 0 0 10.339-1.017l5.424-10.933c-.283-.113-.481-.226-.595-.338-.225-.227-.337-.537-.337-.933 0-.282.112-.537.337-.762.283-.283.595-.424.934-.424.395 0 .677.141.848.424.226.226.338.48.338.762 0 .396-.112.706-.338.933-.171.226-.453.338-.848.338h-.339l-5.424 10.933c5.479-1.356 10.988-3.955 16.525-7.797l3.135 5.085c1.357-.735 2.996-3.22 4.916-7.458s2.685-7.599 2.287-10.085c-3.615 4.633-6.524 6.724-8.728 6.271-6.611-.452-10.734-3.051-12.373-7.796-11.188-1.865-25.877-3.757-44.068-5.678-18.757-2.034-34.21-1.045-46.356 2.966-12.092 4.012-20.848 9.408-26.271 16.187-7.74 9.718-9.491 20.424-5.254 32.119.788 2.43 2.767 6.554 5.931 12.374m110.594-43.307c-.171.226-.424.339-.763.339-.34 0-.649-.113-.933-.339-.227-.282-.339-.565-.339-.847 0-.396.112-.734.339-1.017.283-.169.593-.254.933-.254.339 0 .592.085.763.254.339.283.508.621.508 1.017 0 .283-.169.565-.508.847m6.101 1.187c-.282.282-.592.424-.932.424-.339 0-.648-.142-.932-.424-.171-.226-.255-.509-.255-.848 0-.396.084-.706.255-.933.283-.169.593-.254.932-.254.34 0 .649.085.932.254.228.227.34.537.34.933 0 .339-.113.622-.34.848m-12.203-10.339c0-.396.086-.706.255-.932a1.77 1.77 0 0 1 .932-.255c.396 0 .679.085.848.255.227.226.339.564.339 1.016a.805.805 0 0 1-.339.679c-.169.338-.452.508-.848.508-.339 0-.65-.169-.932-.508-.169-.17-.255-.396-.255-.679v-.084l-3.982-.763c.169.17.255.452.255.848 0 .283-.143.509-.424.679-.227.338-.48.508-.763.508-.452 0-.792-.169-1.019-.508-.169-.17-.253-.396-.253-.679 0-.452.084-.791.253-1.016.057-.057.171-.114.34-.17l-19.321-3.729 19.321 3.729c.227-.057.451-.085.679-.085.282 0 .536.085.763.255l.169.168 3.982.763m-9.999 11.271c-.228-.169-.34-.424-.34-.762 0-.339.112-.65.34-.933.282-.169.564-.254.847-.254.396 0 .678.084.848.254.283.282.424.593.424.933 0 .338-.141.593-.424.762-.17.339-.451.509-.848.509-.283 0-.565-.17-.847-.509m12.033-6.016c.227.282.339.593.339.932 0 .396-.112.678-.339.847-.169.226-.452.339-.848.339-.339 0-.65-.113-.932-.339-.169-.169-.255-.452-.255-.847 0-.339.086-.65.255-.932.281-.169.593-.254.932-.254.396 0 .679.084.848.254m-15.255-4.492c.34 0 .621.112.848.338.283.339.424.678.424 1.017 0 .282-.141.536-.424.763-.227.338-.508.508-.848.508-.339 0-.65-.169-.932-.508a2.204 2.204 0 0 1-.255-.509l-21.355 1.187 21.355-1.187v-.254c0-.339.086-.678.255-1.017.282-.225.593-.338.932-.338m15.255 11.695c.227.282.339.593.339.932 0 .396-.112.678-.339.848-.169.226-.452.339-.848.339-.339 0-.65-.113-.932-.339-.169-.17-.255-.452-.255-.848 0-.338.086-.649.255-.932.281-.17.593-.254.932-.254.396 0 .679.084.848.254M543.938 70.086c18.192 3.22 31.047-3.475 38.56-20.085-33.392-50.113-46.244-43.418-38.56 20.085m7.966-40.678a22.7 22.7 0 0 1 .508-3.813c13.503 13.56 17.628 26.413 12.373 38.56a22.471 22.471 0 0 1-2.288-1.609c-8.362-6.781-11.893-17.827-10.593-33.138z"/><path d="M676.736 114.833c-1.639-.339-3.758.085-6.356 1.271-2.092 1.074-4.773 2.882-8.051 5.424 1.639 4.745 5.762 7.345 12.373 7.796 2.203.452 5.112-1.638 8.728-6.271-1.808-4.803-4.038-7.542-6.694-8.22m-23.475-28.221l-.593-.762-.084.424-.171.084c.848.847 1.3 1.893 1.355 3.136v1.017l-.084.592-.509 1.018-.932 1.356v.084a6.438 6.438 0 0 1-2.034 1.271h-.085c1.752 2.316 3.617 4.265 5.594 5.848.056.056.169.113.339.169.564-1.638 1.045-3.672 1.44-6.101-.113 0-.593 1.751-1.44 5.253.396-3.446.452-5.169.169-5.169l-3.39-1.017.255-.762c.677-.848 1.074-1.667 1.187-2.458 0-1.469-.339-2.796-1.017-3.983m-1.525-.254l-.086.084.339.255v.084c-.112 0-.169.028-.169.084-.734 1.131-1.639 2.77-2.713 4.916.34.904.707 1.667 1.103 2.288l.084.17 1.103-.848v-.084a7.88 7.88 0 0 0 .848-.593l.424-.593.084-.084.424-1.102v-1.441c-.056-1.017-.424-1.977-1.102-2.882l-.339-.254m-.255-.678v.169l.255.424-.255-.593m-42.965 8.559c.225.452.536.96.932 1.525 1.863.565 3.39.876 4.576.933 1.639.056 3.814-.114 6.525-.509a6.873 6.873 0 0 0 1.187-1.355c1.355-2.373 1.187-5.057-.508-8.051-2.486-.904-4.718-1.384-6.695-1.441-1.355-.057-2.825.028-4.408.254-2.881 2.599-3.417 5.48-1.609 8.644m.847-4.068c.791-1.751 1.694-2.769 2.711-3.051l2.034 3.22c-.905-.112-2.486-.169-4.745-.169m10.678-2.796c.959 1.017 1.439 2.26 1.439 3.728 0 1.469-.48 2.684-1.439 3.645a2.1 2.1 0 0 0-.509.508c-.848.622-1.894.932-3.137.932-1.13 0-2.091-.254-2.882-.762.735.396 1.555.593 2.458.593 1.074 0 1.866-.141 2.374-.423.451-.452.903-.848 1.355-1.187.34-.396.648-1.413.932-3.05.396-1.752.085-3.136-.932-4.153a2.697 2.697 0 0 1-.424-.339c.283.169.537.338.765.508z"/><path fill="#FFF" d="M651.396 93.307v.084l-1.103.848-.084-.17-.339.17h-.085l-.424.169h-.084l-.764.254-.592.085-.087.254h.34l.848-.169h.084a3.02 3.02 0 0 0 .424-.17c.735-.282 1.357-.649 1.865-1.102v-.084l.848-.763a7.466 7.466 0 0 1-.847.594m0-6.949l.254.254c.056.057.112.142.17.254 0-.056.057-.084.169-.084l-.339-.339-.678-.593-.763-.424.679.424.338.424.17.084m-29.916 4.745c0-1.468-.48-2.711-1.439-3.728a9.376 9.376 0 0 0-.764-.509c.112.114.255.227.424.339 1.017 1.017 1.327 2.401.932 4.153-.283 1.638-.592 2.655-.932 3.05-.452.339-.904.735-1.355 1.187-.508.282-1.3.423-2.374.423-.903 0-1.723-.198-2.458-.593.791.508 1.752.762 2.882.762 1.243 0 2.289-.31 3.137-.932a2.1 2.1 0 0 1 .509-.508c.958-.96 1.438-2.175 1.438-3.644m-9.406-3.982c-1.017.282-1.92 1.299-2.711 3.051 2.259 0 3.84.056 4.745.169l-2.034-3.22z"/><path fill="#4F4226" d="M651.736 86.273l.084.084.424-.508.34.424.084-.424.593.762c.679 1.187 1.018 2.514 1.018 3.983-.112.791-.51 1.61-1.187 2.458l-.255.762 3.39 1.017c.283 0 .564-.028.848-.084l.084-3.813c0-1.526-.394-3.729-1.185-6.611-1.808-.226-3.306.227-4.492 1.356l.254.594m-30.001 8.56c-.339.508-.735.96-1.187 1.355 1.47-.226 4.095-.932 7.882-2.119l2.627-1.44c-.283-.283-.65-.509-1.103-.679-1.751-1.299-3.078-2.259-3.982-2.881-1.639-1.073-3.221-1.836-4.745-2.288 1.695 2.995 1.864 5.678.508 8.052m-12.288.931a12.112 12.112 0 0 1-.932-1.525c-1.808-3.164-1.271-6.045 1.608-8.645-3.728.452-7.372 1.723-10.931 3.813-.34.227-.679.424-1.019.594l2.798 1.864c3.899 2.092 6.723 3.391 8.476 3.899z"/><path fill="#CF8030" d="M651.481 85.85v-.17c1.187-1.13 2.685-1.583 4.492-1.356l-4.492-11.61c-2.882 3.616-4.519 7.316-4.916 11.102-.338 2.825.086 5.48 1.271 7.966 1.245-2.769 2.374-4.604 3.391-5.508l-.338-.424-.679-.424.763.424-.679-.424 1.019.593.084-.169-.508-.424.592.424z"/><path fill="#E0782C" d="M614.616 44.324c-6.271-.396-13.22.311-20.847 2.119-41.414-53.052-60.622-48.051-57.628 15-4.011 11.13-4.832 22.797-2.458 35.001-15.424 14.746-31.045 18.164-46.866 10.254-92.26-18.362-154.407-14.943-186.441 10.254-20.734 14.576-32.712 39.294-35.933 74.153-4.181 11.3-14.689 30.679-31.526 58.136-15.197 28.701-17.458 60.961-6.78 96.781.679-4.011 3.475-8.475 8.39-13.391 10.848-17.118 23.39-34.632 37.628-52.543 17.909-22.654 30.903-48.221 38.983-76.695-1.13-3.786-1.639-10.142-1.526-19.068.169-12.091 1.102-20.311 2.797-24.661-1.695 4.35-2.627 12.57-2.797 24.661-.113 8.926.396 15.282 1.526 19.068 1.355 4.859 3.418 9.803 6.187 14.831 3.672 6.838 7.825 11.865 12.458 15.085 5.198 7.345 9.717 14.152 13.56 20.424 30.283 18.419 39.943 44.068 28.983 76.95 10.453 15.142 17.147 33.955 20.085 56.441 9.436 2.994 16.837 3.163 22.204.508-1.413-6.328-4.633-10.254-9.661-11.78 5.028 1.526 8.249 5.452 9.661 11.78 2.147-1.131 4.068-2.825 5.763-5.085-1.355-9.378-8.191-15.029-20.509-16.949l-4.152-10.254-.509-.171-.169-.084-.423-2.034-.424-1.524-2.712-7.119-7.627-19.491 12.966-44.832v-5.593c.282-6.44 1.469-12.655 3.559-18.645-10-7.346-17.684-14.83-23.051-22.457-5.706-8.306-9.378-17.713-11.017-28.221 8.757 22.033 23.107 37.627 43.051 46.78 3.051.396 6.865 1.58 11.441 3.559a31.01 31.01 0 0 0 2.882 1.187c7.797 2.994 16.921 5.142 27.373 6.44 13.278 1.865 24.321 1.498 33.136-1.101 1.753 11.978 5.367 23.163 10.848 33.56 31.299 48.022 47.57 94.773 48.813 140.256l.085 2.881c4.352 5.989 10.565 8.927 18.645 8.813-.057-6.665-1.328-12.033-3.814-16.102 2.486 4.068 3.758 9.437 3.814 16.102 3.504-.056 7.486-.791 11.948-2.203 2.317-4.633.34-10.451-5.932-17.457 6.271 7.006 8.249 12.824 5.932 17.457 2.655-.848 4.973-1.694 6.95-2.542-.734-14.236-7.063-23.163-18.983-26.779-8.136-33.278-15.396-58.871-21.779-76.78-1.301-3.842-2.628-7.231-3.983-10.17-.621-1.809-1.3-4.492-2.035-8.051-1.468-8.701-2.683-22.175-3.643-40.425-5.933 0-10.82-.735-14.662-2.203-4.293-1.695-7.4-4.153-9.322-7.373-.396-.734-.789-1.639-1.187-2.713-2.032-6.608 1.865-14.351 11.696-23.219 7.796-6.893 15.423-16.556 22.881-28.984 7.459-12.599 10.875-21.441 10.254-26.525-.451-2.091-1.922-5.452-4.406-10.084-3.163-5.82-5.143-9.944-5.932-12.374-4.237-11.695-2.486-22.401 5.254-32.119 5.424-6.779 14.18-12.175 26.271-16.187 12.146-4.011 27.6-5 46.356-2.966 18.191 1.921 32.881 3.813 44.068 5.678 3.277-2.542 5.959-4.35 8.051-5.424 2.599-1.186 4.718-1.61 6.356-1.271-7.91-4.35-14.943-9.011-21.103-13.983-2.091-1.582-4.097-3.644-6.017-6.187a3.123 3.123 0 0 1-.424.17h-.086l-.932.169h-.34l.087-.254.592-.085.764-.254h.084l-.255-.339-1.271-2.288c-1.185-2.486-1.608-5.142-1.271-7.966.397-3.786 2.034-7.486 4.916-11.102-.509-1.808-1.271-3.645-2.288-5.508a220.83 220.83 0 0 1-3.221-5.509c-3.446-5.989-8.418-10.48-14.915-13.475l-.339-.169c-5.029-2.261-10.395-3.504-16.102-3.73m5.933 51.864c-2.711.396-4.887.565-6.525.509-1.187-.057-2.713-.368-4.576-.933-1.753-.508-4.577-1.807-8.475-3.898l-2.798-1.864-5.169 2.542c5.366 4.689 10.989 7.345 16.865 7.967 6.045.452 12.684-1.413 19.915-5.594l-.932 1.695c-1.526 1.808-2.996 3.164-4.408 4.068-1.808 1.13-4.04 1.836-6.695 2.119-12.937 1.412-22.371-1.498-28.304-8.729l-.17-.254a6.092 6.092 0 0 1-.593-.678l3.306-1.356c.225.226.563.48 1.016.762l5.169-2.542c.34-.17.679-.367 1.019-.594 3.559-2.09 7.203-3.362 10.931-3.813 1.583-.226 3.053-.311 4.408-.254 1.978.057 4.209.537 6.695 1.441 1.524.452 3.106 1.215 4.745 2.288.904.622 2.231 1.582 3.982 2.881.452.17.819.396 1.103.679l1.017.678-1.017-.678-.171.762v.169c-.056.17-.253.848-.592 2.035l-1.44 2.203c-1.526 1.865-2.996 3.249-4.408 4.153-1.808 1.129-4.04 1.835-6.695 2.119 2.655-.283 4.888-.989 6.695-2.119 1.412-.905 2.882-2.289 4.408-4.153l1.44-2.203c.339-1.187.536-1.865.592-2.035v-.169l.171-.762-2.627 1.44c-3.787 1.186-6.412 1.892-7.882 2.118m-38.052-46.187c-7.513 16.611-20.367 23.306-38.56 20.085-7.683-63.503 5.169-70.198 38.56-20.085m-135.595 82.628l9.406 2.882-9.406-2.882m-5.423-5.847a165.465 165.465 0 0 1-16.018-1.78c44.237-1.525 77.034-6.384 98.392-14.576-28.757 12.26-56.215 17.712-82.374 16.356m5.933-6.949l8.22-6.186-8.22 6.186m40.424 133.983c-28.418-2.428-33.503-29.887-15.255-82.373-7.119 39.605-2.034 67.063 15.255 82.373m-159.07-101.272c10.622 51.583 27.797 84.182 51.526 97.798-35.254-9.547-52.43-42.147-51.526-97.798z"/><path fill="#C8661E" d="M591.99 93.053l-2.543 1.016c5.933 7.231 15.367 10.142 28.304 8.729 2.655-.283 4.888-.989 6.695-2.119 1.412-.904 2.882-2.26 4.408-4.068l.932-1.695c-7.231 4.181-13.87 6.045-19.915 5.594-5.876-.622-11.499-3.277-16.865-7.967l-1.016.51m-3.305.085c.169.226.365.452.593.678l.17.254 2.543-1.016 1.016-.509c-.452-.282-.791-.536-1.016-.762l-3.306 1.355z"/><g><path fill="none" stroke="#000" stroke-linecap="round" stroke-linejoin="round" d="M564.785 64.154c5.255-12.146 1.13-25-12.373-38.56m57.035 70.17c1.863.565 3.39.876 4.576.933 1.639.056 3.814-.114 6.525-.509m.68-9.406c-2.486-.904-4.718-1.384-6.695-1.441-1.355-.057-2.825.028-4.408.254-3.728.452-7.372 1.723-10.931 3.813-.34.227-.679.424-1.019.594l2.798 1.864c3.897 2.091 6.722 3.39 8.475 3.898m-20.171-1.949l.17.254 2.543-1.016 1.016-.509 5.169-2.542m-54.237-19.916c18.192 3.22 31.047-3.475 38.56-20.085-33.392-50.113-46.244-43.418-38.56 20.085zm107.798 16.187l-.255-.593m-30.932 10.508c1.47-.226 4.095-.932 7.882-2.119l2.627-1.44c-.283-.283-.65-.509-1.103-.679-1.751-1.299-3.078-2.259-3.982-2.881-1.639-1.073-3.221-1.836-4.745-2.288m10.846 6.526l-1.017-.678-.171.762v.169c-.056.17-.253.848-.592 2.035l-1.44 2.203c-1.526 1.865-2.996 3.249-4.408 4.153-1.808 1.129-4.04 1.835-6.695 2.119m23.477-56.102c-3.448-9.322 2.739-19.266 18.56-29.831M414.614 387.632c-1.413-6.328-4.633-10.254-9.661-11.78m157.629 71.695c-.057-6.665-1.328-12.033-3.814-16.102m15.762 13.899c2.317-4.633.34-10.451-5.932-17.457m-52.203-18.645c1.074-4.916.141-9.661-2.795-14.238m-7.967 14.917c2.09-4.804 2.118-10.001.084-15.594"/></g><g><path fill="none" stroke="#160E0A" stroke-width="2" stroke-linecap="round" stroke-linejoin="round" d="M234.528 332.631c-4.915 4.916-7.711 9.38-8.39 13.391-10.678-35.82-8.417-68.08 6.78-96.781 16.837-27.458 27.345-46.836 31.526-58.136 3.22-34.858 15.198-59.577 35.933-74.153 32.034-25.197 94.182-28.616 186.441-10.254 15.821 7.91 31.442 4.492 46.866-10.254-2.374-12.204-1.553-23.871 2.458-35.001-2.994-63.051 16.214-68.051 57.628-15 7.627-1.808 14.575-2.514 20.847-2.119 9.604-20 26.695-31.441 51.271-34.322-2.146 24.915-8.785 42.147-19.915 51.695a217.726 217.726 0 0 0 3.221 5.509c1.017 1.864 1.779 3.7 2.288 5.508l4.492 11.61c.791 2.881 1.185 5.084 1.185 6.611l-.084 3.813-1.017 5.253m-.339.679c-.057.056-.085.113-.085.169 6.159 4.972 13.192 9.633 21.103 13.983 2.655.678 4.886 3.418 6.693 8.22.397 2.486-.367 5.848-2.287 10.085s-3.559 6.723-4.916 7.458c-5.593 6.723-11.949 10.339-19.068 10.847-5.197 1.017-10.366 1.356-15.508 1.017-3.333-.396-6.413-1.073-9.237-2.034 2.43 19.04-5.96 39.295-25.169 60.764-8.758 24.406-20.962 40.705-36.611 48.898-2.091 6.724-6.216 13.418-12.373 20.085-2.599 24.803-8.446 44.491-17.542 59.069 6.383 17.909 13.644 43.502 21.779 76.78 11.921 3.616 18.249 12.543 18.983 26.779-1.978.848-4.295 1.694-6.95 2.542-4.462 1.412-8.444 2.147-11.948 2.203-8.079.114-14.293-2.823-18.645-8.813l-.085-2.881c-.791-14.464-4.181-28.447-10.169-41.95-.96-5.085-2.288-9.773-3.982-14.067-1.526-4.181-3.813-8.928-6.866-14.238l-.508-.848-8.728 17.289c6.27 6.157 8.643 14.915 7.117 26.271l-4.322.932-2.627.424c-3.164.339-5.876.424-8.135.255-1.922-.283-3.617-.65-5.085-1.103-2.77-.903-5.735-3.418-8.898-7.543-3.221-4.181-2.966-8.954.763-14.322 3.841-5.366 9.52-21.101 17.034-47.203-3.39-7.119-5.961-13.417-7.712-18.899-4.916-7.005-7.147-15.423-6.695-25.253-5.48-10.396-9.095-21.582-10.848-33.56-8.814 2.599-19.857 2.966-33.136 1.101-10.452-1.299-19.576-3.446-27.373-6.44-10.339 14.182-19.294 21.978-26.865 23.39l-12.966 44.832 7.627 19.491 2.712 7.119.424 1.524.254.51.169.084.424.933v.169l.254.594 4.152 10.254c12.317 1.92 19.153 7.571 20.509 16.949-1.695 2.26-3.616 3.954-5.763 5.085-5.367 2.655-12.768 2.486-22.204-.508l-3.898-1.442-2.119-13.896c-.509-1.922-1.723-4.888-3.644-8.898a216.838 216.838 0 0 0-2.542-6.019c-1.469-3.446-3.362-6.864-5.678-10.254 1.469 6.497.734 11.923-2.204 16.272-2.938.45-5.734.508-8.39.169-7.458-1.129-13.871-5.904-19.238-14.323 10.792-21.694 12.486-39.915 5.085-54.661l5.085-19.068c-3.164-6.779-7.006-13.868-11.525-21.271-3.842-6.271-8.362-13.079-13.56-20.424l-14.407 23.645c-25.312 29.605-46.187 49.944-62.628 61.018-7.741 5.254-13.813 10.14-18.221 14.66m76.613-129.238c-1.13-3.786-1.639-10.142-1.526-19.068.169-12.091 1.102-20.311 2.797-24.661m306.36-7.034c-4.296 1.469-8.278 3.785-11.949 6.949-6.95 7.062-11.921 11.497-14.917 13.305l-.424.169c-2.992 1.243-7.372-.424-13.136-5a26.207 26.207 0 0 1-5.593-6.356c-2.882-4.294-4.773-9.436-5.677-15.424m78.899-84.576c-3.446-5.989-8.418-10.48-14.915-13.475l-.339-.169c-5.029-2.259-10.396-3.502-16.103-3.729m36.865 41.526v-.17c1.187-1.13 2.685-1.583 4.492-1.356m-6.356 10.339c1.92 2.542 3.926 4.605 6.017 6.187m-4.407-14.577c-1.017.904-2.146 2.739-3.391 5.508l1.271 2.288.255.339m2.119-21.694c-2.882 3.616-4.519 7.316-4.916 11.102-.338 2.825.086 5.48 1.271 7.966m28.9 23.051c-1.639-.339-3.758.085-6.356 1.271-2.092 1.074-4.773 2.882-8.051 5.424 1.639 4.745 5.762 7.345 12.373 7.796 2.203.452 5.112-1.638 8.728-6.271m-26.864 20.255c5.479-1.356 10.988-3.955 16.525-7.797l3.135 5.085m-29.998 3.729a40.2 40.2 0 0 0 10.339-1.017m-31.95-4.746c2.768.904 7.091 2.345 12.965 4.322.114 0 .227.028.34.084a42.343 42.343 0 0 0 8.306 1.356m-34.323-7.288c3.502-.508 7.739 0 12.712 1.525m7.796 11.865c-4.745-.169-9.294.565-13.644 2.204m47.119-142.629c-27.797 8.87-39.52 21.553-35.169 38.051M423.683 256.698a30.738 30.738 0 0 1-2.882-1.187c-4.576-1.979-8.39-3.163-11.441-3.559-1.073-.227-2.005-.312-2.796-.255-3.164.114-5.226 1.498-6.187 4.152-2.09 5.989-3.277 12.204-3.559 18.645v5.593m-22.289 66.527c.057-.564-1.045-2.401-3.305-5.509-3.446-4.914-6.13-8.927-8.051-12.033 4.125-10.621 3.22-24.237-2.712-40.849-1.582-4.294-3.446-8.7-5.593-13.221m40.339 80.171l.255-.423m-.847-1.695l.423 2.034.169.084.509.171m-.847-1.78l.593 1.017m-84.323-151.188c1.355 4.859 3.418 9.803 6.187 14.831 3.672 6.838 7.825 11.865 12.458 15.085m222.712 38.559c-7.965 4.294-15.111 7.204-21.439 8.729.96 18.25 2.175 31.724 3.643 40.425m35.933-60.934c-6.385 4.689-12.43 8.617-18.137 11.78m-17.797 49.153c.735 3.559 1.414 6.242 2.035 8.051 1.355 2.938 2.683 6.328 3.983 10.17m-18.39 25.508c-4.067-6.667-8.36-14.999-12.881-25"/></g><g><path fill="none" stroke="#160E0A" stroke-linecap="round" stroke-linejoin="round" d="M662.329 121.528c-11.188-1.865-25.877-3.757-44.068-5.678-18.757-2.034-34.21-1.045-46.356 2.966-12.092 4.012-20.848 9.408-26.271 16.187-7.74 9.718-9.491 20.424-5.254 32.119.789 2.43 2.769 6.554 5.932 12.374 2.484 4.633 3.955 7.994 4.406 10.084.621 5.084-2.795 13.927-10.254 26.525-7.458 12.429-15.085 22.092-22.881 28.984-9.831 8.868-13.729 16.61-11.696 23.219.397 1.074.791 1.979 1.187 2.713 1.922 3.22 5.029 5.678 9.322 7.373 3.842 1.468 8.729 2.203 14.662 2.203m-167.122 82.459c3.107-6.214 3.729-11.921 1.865-17.118"/></g><g><path fill="none" stroke="#000" stroke-width="2" stroke-linecap="round" stroke-linejoin="round" d="M651.396 85.85l-.084.169"/></g><g><path fill="none" stroke="#666" stroke-width=".05" stroke-linecap="round" stroke-linejoin="round" stroke-opacity=".459" d="M661.99 132.375l-5.424 10.933m-1.271-11.187l-9.067 12.204m10.338-1.017l-.848 1.61m-4.915-17.882l-3.982-.763m-20.932-4.067l19.321 3.729 1.61.338m0 5.678l-3.898 1.102m-2.373.763l-2.288.678m-1.78.593l-11.864 3.475m12.965 4.322l9.153-5 1.188-.762m-5.001-4.069l-2.373.763m15.17-2.373l-.424.678m-7.372-.508l-1.103.338m-10.424-2.542l-21.355 1.187m9.576 7.966l-1.018.255m13.644-9.493l-.848.084m1.866 5.086l-1.779.593m1.1 7.797l-6.695 3.729m15.341-2.288l-2.713 3.729m-12.628-1.442l-1.016.424m-182.969-14.407l9.406 2.882m-14.829-8.729l20.169-3.136m-14.236-3.813l8.22-6.186"/></g></svg>