<svg xmlns="http://www.w3.org/2000/svg" xmlns:xlink="http://www.w3.org/1999/xlink" preserveAspectRatio="none" width="800" height="600" viewBox="0 0 800 600"><defs><g id="a"><path fill="#BD7653" d="M100.85 49.2h-16v155.7h16V49.2m114.35 59.9V97.75H100.85v11.35H215.2m0 60.55v-12.7H100.85v12.7H215.2m0 27.25v-11H100.85v11H215.2m0-56.75v-11.3H100.85v11.3H215.2m0-66.7V60.5H100.85v12.95H215.2m15.1-22.9h-15.1V206.55H230.3v-156m2.6 0h-2v156h2v-156z"/><path fill="#C2805F" d="M84.85 49.2h-.25v155.7h.25V49.2m146.05 1.35h-.6v156h.6v-156z"/></g><path fill="#BD7653" d="M83.75 45.35h-15.7v164h15.7v-164m-69 164V195.4H-.95v13.95h15.7m0-90.4v-50.4H-.95v50.4h15.7m0 64.65v-52H-.95v52h15.7m33.6 11.8h-15.7v13.95h15.7V195.4m0-11.8v-52h-15.7v52h15.7m-33.6 11.8H63.6v-11.8H-8.5v11.8h23.25m48.85-76.45H-8.5v12.65h72.1v-12.65m-15.25-50.4h-15.7v50.4h15.7v-50.4m0-11v-12.2h-15.7v12.2h15.7m-33.6 0v-12.2H-.95v12.2h15.7m17.9 0H-8.5v11h72.1v-11H32.65m182 16.9V60.5l-113.5 123.2h-.3v14h.3l113.5-123.25m29.45-5.9h17.2v-11H244.1h2.55v-12.2H230.9v164h15.75V195.4h-2.55 17.2v-11.8H244.1h2.55v-52h-2.55 17.2v-12.65H244.1h2.55v-50.4h-2.55m37.65-23.2h-15.7v164h15.7v-164m33.6 150.05h-15.7v13.95h15.7V195.4m0-63.8h-15.7v52h15.7v-52m0-63.05h-15.7v50.4h15.7v-50.4m0-23.2h-15.7v12.2h15.7v-12.2M327.3 195.4v-11.8H290v11.8h37.3m0-63.8v-12.65H290v12.65h37.3m0-63.05v-11H290v11h37.3z" id="d"/><g id="i"><path fill="#C2805F" d="M84.25 183.6v11.8h.15v-11.8h-.15m0-64.65v12.65h.15v-12.65h-.15M230.9 195.4v-11.8h-.25v11.8h.25m0-63.8v-12.65h-.25v12.65h.25z"/><path fill="#BD7653" d="M62.45 183.6v11.8h21.8v-11.8h-21.8m0-64.65v12.65h21.8v-12.65h-21.8m21.65-50.4v-11H62.45v11H84.1M260.6 183.6v11.8h34v-11.8h-34m34-52v-12.65h-34v12.65h34m-63.7 52v11.8h18.5v-11.8H230.9m0-64.65v12.65h18.5v-12.65H230.9m17.7-61.4H230.95v11H249.4v-11h-.8m12 0v11h34v-11h-34z"/></g><path fill="#999" d="M83 187.75h.75v-5.5h-6.1v18.45h6.1v-6.25H83v-6.7m.75 0v6.7h32.85v-6.7H83.75m26.95 3.3q0-.85.6-1.45.188-.188.4-.35.466-.25 1.05-.25.85 0 1.45.6t.6 1.45q0 .8-.6 1.4-.6.6-1.45.6-.584 0-1.05-.3-.212-.112-.4-.3-.6-.6-.6-1.4m.6-1.45q-.6.6-.6 1.45 0 .8.6 1.4.188.188.4.3.466.3 1.05.3.85 0 1.45-.6t.6-1.4q0-.85-.6-1.45t-1.45-.6q-.584 0-1.05.25-.212.162-.4.35M83.75 70.55H83v-6.7h.75v-5.8h-6.1V76.5h6.1v-5.95m32.85 0v-6.7H83.75v6.7h32.85m-5.3-2q-.6-.6-.6-1.4 0-.85.6-1.45.188-.188.4-.35.466-.25 1.05-.25.85 0 1.45.6t.6 1.45q0 .8-.6 1.4-.6.6-1.45.6-.584 0-1.05-.3-.212-.112-.4-.3m-.6-1.4q0 .8.6 1.4.188.188.4.3.466.3 1.05.3.85 0 1.45-.6t.6-1.4q0-.85-.6-1.45t-1.45-.6q-.584 0-1.05.25-.212.162-.4.35-.6.6-.6 1.45M230.9 82.3h-5.25v4.25h5.25V82.3m11.15 0h-4.95v4.25h4.95V82.3m-4.95-9.2h-6.2V98.4h6.2V73.1z" id="l"/><path id="b" stroke="#573726" stroke-width="2" stroke-linejoin="round" stroke-linecap="round" fill="none" d="M231.55 50.55h1.35"/><path id="c" stroke="#573726" stroke-width="2.5" stroke-linejoin="round" stroke-linecap="round" fill="none" d="M229.25 206.55H215.2v-9.65H100.85v8H84.6V49.2h16.25v11.3H215.2v-9.95H231.55M215.2 60.5V196.9m0-123.45H100.85v24.3H215.2m-114.35-24.3V60.5m114.35 48.6H100.85v19.75H215.2m-114.35 0v11.3H215.2M100.85 185.9v11m114.35-27.25H100.85v16.25H215.2m-114.35-16.25v-29.5m0-31.05V97.75m0 59.2H215.2"/><path id="e" stroke="#69432E" stroke-width="2" stroke-linejoin="round" stroke-linecap="round" fill="none" d="M327.3 57.55H290m0 11h37.3m0 50.4H290m0 12.65h37.3m0 52H290m0 11.8h37.3M315.35 57.55v-12.2h-15.7v12.2m-17.9-12.2v164h-15.7v-164h15.7zm-37.65 23.2h17.2m0-11H248m-.025 0H244.1m2.55 0v-12.2h-15.1m0 164h15.1V195.4h-2.55m0-63.8h17.2m0-12.65H248m-.025 0H244.1m0 64.65h3.875m-1.325 0v-52m14.65 52H248m-1.35 11.8h14.65m54.05-11.8v-52m-15.7 0v52m-53-64.65v-50.4m68.7 50.4v-50.4m-15.7 0v50.4M-8.5 57.55h7.55v-12.2h15.7v12.2h17.9v-12.2h15.7v12.2H63.6m0 11H48.35v50.4H63.6m0 12.65H48.35v52H63.6m0 11.8H48.35v13.95h-15.7V195.4h-17.9v13.95H-.95V195.4H-8.5m0-11.8h7.55v-52H-8.5m0-12.65h7.55v-50.4H-8.5m41.15 0h-17.9v50.4h17.9v-50.4h15.7m-15.7-11h15.7m-15.7 74.05h-17.9v52h17.9v-52h15.7m0 63.8h-15.7m0-11.8h15.7m-15.7-64.65h15.7m35.4 90.4h-15.7v-164h15.7m215.9 150.05v13.95h15.7V195.4m-300.6 0H-.95m0-63.8h15.7m0 52H-.95m15.7-126.05H-.95m0 11h15.7m0 50.4H-.95"/><path id="f" stroke="#573726" stroke-width="2" stroke-linejoin="round" stroke-linecap="round" fill="none" d="M83.75 45.35v164"/><path id="g" stroke="#69432E" stroke-width="2.5" stroke-linejoin="round" stroke-linecap="round" fill="none" d="M231.55 45.35h-.65m0 164h.65m-130.4-25.65l113.5-123.2v13.95L101.15 197.7m-.3 0v-14"/><path id="h" stroke="#573726" stroke-width="2.5" stroke-linejoin="round" stroke-linecap="round" fill="none" d="M230.9 45.35v164"/><path id="j" stroke="#69432E" stroke-width="2" stroke-linejoin="round" stroke-linecap="round" fill="none" d="M260.6 68.55h34m0-11h-34m-12 0h.8m0 11h-17.85m0-11H248m1.4 74.05h-17.85m17.05-12.65h.8m-17.85 0H248m1.4 76.45h-17.85m17.05-11.8h.8m-17.85 0H248m46.6-64.65h-34m0 12.65h34m-34 63.8h34m0-11.8h-34M62.45 68.55H84.1v-11H62.45m0 74.05h21.8m0-12.65h-21.8m0 76.45h21.8m0-11.8h-21.8"/><path id="k" stroke="#69432E" stroke-width="2.5" stroke-linejoin="round" stroke-linecap="round" fill="none" d="M231.55 68.55h-.6v-11h.6m0 74.05h-.65m.65-12.65h-.9v12.65h.25m.65 63.8h-.65m.65-11.8h-.9v11.8h.25M84.25 131.6h.15v-12.65h-.15m0 76.45h.15v-11.8h-.15"/><path id="m" stroke="#3C3C3C" stroke-width="2" stroke-linejoin="round" stroke-linecap="round" fill="none" d="M230.9 82.3v-9.2h6.2v9.2h4.95v4.25h-4.95V98.4h-6.2V86.55h-5.25V82.3h5.25v4.25m6.2-4.25v4.25m-153.35-16v5.95h-6.1V58.05h6.1v5.8h32.85v6.7H83.75v-6.7H83v6.7h.75zm0 123.9v-6.7H83v6.7h33.6v-6.7H83.75v-5.5h-6.1v18.45h6.1v-6.25z"/><path id="n" stroke="#3C3C3C" stroke-width="1" stroke-linejoin="round" stroke-linecap="round" fill="none" d="M110.7 67.15q0-.85.6-1.45.188-.188.4-.325.466-.275 1.05-.275.85 0 1.45.6t.6 1.45q0 .8-.6 1.4-.6.6-1.45.6-.584 0-1.05-.275-.212-.137-.4-.325-.6-.6-.6-1.4zm.6 122.45q.188-.188.4-.325.466-.275 1.05-.275.85 0 1.45.6t.6 1.45q0 .8-.6 1.4-.6.6-1.45.6-.584 0-1.05-.275-.212-.137-.4-.325-.6-.6-.6-1.4 0-.85.6-1.45z"/></defs><g><use xlink:href="#a"/><use xlink:href="#b"/><use xlink:href="#c"/></g><g><use xlink:href="#d"/><use xlink:href="#e"/><use xlink:href="#f"/><use xlink:href="#g"/><use xlink:href="#h"/></g><g><use xlink:href="#i"/><use xlink:href="#j"/><use xlink:href="#k"/></g><g><use xlink:href="#l"/><use xlink:href="#m"/><use xlink:href="#n"/></g></svg>