<svg xmlns="http://www.w3.org/2000/svg" width="900" height="450" viewBox="0 0 900 450"><path fill="#BD7653" d="M310.128 38.656h-38.223v371.956h38.223V38.656m273.174 143.096v-27.114H310.128v27.114h273.174m0 144.65v-30.34H310.128v30.34h273.174m0 65.098v-26.277H310.128V391.5h273.174m0-135.571v-26.996H310.128v26.996h273.174m0-159.342V65.65H310.128v30.937h273.174m36.072-54.707h-36.072v372.672h36.072V41.88m6.211 0H620.807v372.672h4.777V41.88z"/><path fill="#C2805F" d="M271.906 38.656h-.597v371.956h.597V38.656m348.902 3.224h-1.434v372.672h1.434V41.88z"/><path fill="none" stroke="#573726" stroke-width="2" stroke-linecap="round" stroke-linejoin="round" d="M622.36 41.88h3.225"/><path fill="none" stroke="#573726" stroke-width="2.5" stroke-linecap="round" stroke-linejoin="round" d="M616.866 414.552h-33.564V391.5H310.128v19.111h-38.82V38.656h38.82V65.65h273.173V41.88h39.059m-39.058 23.77V391.5m0-294.913H310.128v58.05h273.173m-273.173-58.05V65.65m273.174 116.102H310.128v47.181h273.173m-273.173 0v26.996h273.173M310.128 365.223V391.5m273.174-65.098H310.128v38.82h273.173m-273.173-38.82v-70.474m0-74.176v-27.114m0 141.425h273.173"/><g><path fill="#BD7653" d="M269.278 29.458h-37.507V421.24h37.507V29.458M104.442 421.24v-33.323H66.936v33.323h37.506m0-215.957V84.881H66.936v120.402h37.506m0 154.443V235.502H66.936v124.224h37.506m80.268 28.191h-37.506v33.323h37.506v-33.323m0-28.191V235.502h-37.506v124.224h37.506m-80.268 28.191h116.699v-28.191H48.899v28.191h55.543m116.699-182.634H48.899v30.219H221.14v-30.219M184.71 84.881h-37.506v120.402h37.506V84.881m0-26.278V29.458h-37.506v29.144h37.506m-80.268.001V29.458H66.936v29.144h37.506m42.762.001H48.899v26.278H221.14V58.603h-73.936m434.783 40.373V65.65L310.845 359.966h-.716v33.445h.716L581.987 98.976m70.355-14.095h41.089V58.603H652.343h6.092V29.458h-37.628V421.24h37.626v-33.323h-6.092 41.089v-28.191H652.342h6.092V235.502h-6.092 41.089v-30.219H652.343h6.092V84.881h-6.093m89.942-55.423h-37.506V421.24h37.506V29.458m80.268 358.459h-37.505v33.323h37.505v-33.323m0-152.415h-37.505v124.224h37.505V235.502m0-150.621h-37.505v120.402h37.505V84.881m0-55.423h-37.505v29.144h37.505V29.458M851.1 387.917v-28.191h-89.107v28.191H851.1m0-152.415v-30.219h-89.107v30.219H851.1m0-150.621V58.603h-89.107v26.278H851.1z"/><path fill="none" stroke="#69432E" stroke-width="2" stroke-linecap="round" stroke-linejoin="round" d="M851.1 58.603h-89.107m0 26.278H851.1m0 120.402h-89.107m0 30.219H851.1m0 124.224h-89.107m0 28.191H851.1M822.552 58.603V29.458h-37.505v29.144m-42.763-29.144V421.24h-37.506V29.458h37.506zm-89.942 55.423h41.089m0-26.278h-31.772m-.06 0h-9.257m6.092 0V29.458H622.36m0 391.782h36.073v-33.323h-6.092m.001-152.415h41.089m0-30.219h-31.772m-.06 0h-9.257m0 154.443h9.257m-3.165 0V235.502m34.997 124.224h-31.772m-3.225 28.191h34.997m129.121-28.191V235.502m-37.505 0v124.224M658.434 205.283V84.881m164.118 120.402V84.881m-37.505 0v120.402M48.899 58.603h18.036V29.458h37.506v29.144h42.762V29.458h37.506v29.144h36.431m.001 26.279H184.71v120.402h36.431m0 30.219H184.71v124.224h36.431m0 28.191H184.71v33.323h-37.506v-33.323h-42.762v33.323H66.936v-33.323H48.899m0-28.191h18.036V235.502H48.899m0-30.219h18.036V84.881H48.899m98.305 0h-42.762v120.402h42.762V84.881h37.506m-37.506-26.278h37.506m-37.506 176.899h-42.762v124.224h42.762V235.502h37.506m0 152.415h-37.506m0-28.191h37.506m-37.506-154.443h37.506m84.568 215.957h-37.507V29.458h37.507m515.769 358.459v33.323h37.505v-33.323m-718.11 0H66.936m0-152.415h37.506m0 124.224H66.936m37.506-301.123H66.936m0 26.278h37.506m0 120.402H66.936"/><path fill="none" stroke="#573726" stroke-width="2" stroke-linecap="round" stroke-linejoin="round" d="M269.278 29.458V421.24"/><path fill="none" stroke="#69432E" stroke-width="2.5" stroke-linecap="round" stroke-linejoin="round" d="M622.36 29.458h-1.553m.001 391.782h1.553m-311.516-61.274L581.987 65.65v33.326L310.845 393.411m-.717 0v-33.445"/><path fill="none" stroke="#573726" stroke-width="2.5" stroke-linecap="round" stroke-linejoin="round" d="M620.808 29.458V421.24"/></g><g><path fill="#C2805F" d="M270.472 359.726v28.191h.358v-28.191h-.358m0-154.443v30.219h.358v-30.219h-.358m350.336 182.634v-28.191h-.598v28.191h.598m0-152.415v-30.219h-.598v30.219h.598z"/><path fill="#BD7653" d="M218.394 359.726v28.191h52.078v-28.191h-52.078m0-154.443v30.219h52.078v-30.219h-52.078m51.72-120.402V58.603h-51.72v26.278h51.72m421.644 274.845v28.191h81.224v-28.191h-81.224m81.223-124.224v-30.219h-81.224v30.219h81.224M620.808 359.726v28.191h44.196v-28.191h-44.196m0-154.443v30.219h44.196v-30.219h-44.196m42.284-146.68h-42.165v26.278h44.076V58.603h-1.911m28.666 0v26.278h81.224V58.603h-81.224z"/><path fill="none" stroke="#69432E" stroke-width="2" stroke-linecap="round" stroke-linejoin="round" d="M691.758 84.881h81.224m-.001-26.278h-81.224m-28.665 0h1.911m0 26.278H622.36m0-26.278h39.298m3.345 176.899H622.36m40.732-30.219h1.911m-42.643 0h39.298m3.345 182.634H622.36m40.732-28.191h1.911m-42.643 0h39.298m111.323-154.443h-81.224m.001 30.219h81.224m-81.224 152.415h81.224m-.001-28.191h-81.224M218.394 84.881h51.72V58.603h-51.72m0 176.899h52.078m0-30.219h-52.078m0 182.634h52.078m0-28.191h-52.078"/><g><path fill="none" stroke="#69432E" stroke-width="2.5" stroke-linecap="round" stroke-linejoin="round" d="M622.36 84.881h-1.433V58.603h1.433m0 176.899h-1.553m1.553-30.219h-2.151v30.219h.598m1.553 152.415h-1.553m1.553-28.191h-2.151v28.191h.598M270.472 235.502h.358v-30.219h-.358m0 182.634h.358v-28.191h-.358"/></g></g><g><path fill="#999" d="M267.486 369.641h1.792v-13.139h-14.573v44.076h14.573v-14.931h-1.792v-16.006m1.792 0v16.007h78.476v-16.007h-78.476m64.382 7.882c0-1.353.477-2.508 1.432-3.464.3-.299.619-.576.957-.835.742-.396 1.579-.598 2.508-.598 1.354 0 2.508.479 3.464 1.433.955.956 1.432 2.111 1.432 3.464 0 1.276-.477 2.39-1.432 3.346-.957.954-2.11 1.433-3.464 1.433-.93 0-1.766-.238-2.508-.716a4.004 4.004 0 0 1-.957-.717c-.955-.956-1.432-2.069-1.432-3.346m1.432-3.463c-.955.956-1.432 2.111-1.432 3.464 0 1.276.477 2.39 1.432 3.346.3.299.619.539.957.717.742.478 1.579.716 2.508.716 1.354 0 2.508-.479 3.464-1.433.955-.956 1.432-2.069 1.432-3.346 0-1.353-.477-2.508-1.432-3.464-.957-.954-2.11-1.433-3.464-1.433-.93 0-1.766.201-2.508.598a9.522 9.522 0 0 0-.957.835M269.278 89.659h-1.792V73.653h1.792V59.797h-14.573v44.076h14.573V89.659m78.476 0V73.653h-78.476v16.005h78.476m-12.662-4.777c-.955-.956-1.432-2.069-1.432-3.345 0-1.353.477-2.508 1.432-3.463.3-.3.619-.579.957-.836.742-.398 1.579-.597 2.508-.597 1.354 0 2.508.477 3.464 1.434.955.955 1.432 2.11 1.432 3.463 0 1.275-.477 2.389-1.432 3.345-.957.956-2.11 1.434-3.464 1.434-.93 0-1.766-.239-2.508-.716a4.048 4.048 0 0 1-.957-.719m-1.432-3.345c0 1.275.477 2.389 1.432 3.345.3.3.619.539.957.717.742.477 1.579.716 2.508.716 1.354 0 2.508-.478 3.464-1.434.955-.956 1.432-2.069 1.432-3.345 0-1.353-.477-2.508-1.432-3.463-.957-.957-2.11-1.434-3.464-1.434-.93 0-1.766.199-2.508.597a9.643 9.643 0 0 0-.957.836c-.955.957-1.432 2.112-1.432 3.465m287.148 36.193h-12.542v10.153h12.542v-10.153m26.635 0h-11.824v10.153h11.824v-10.153m-11.824-21.978h-14.812v60.44h14.812V95.751z"/><path fill="none" stroke="#3C3C3C" stroke-width="2" stroke-linecap="round" stroke-linejoin="round" d="M620.808 117.729V95.751h14.812v21.978h11.824v10.153H635.62v28.309h-14.812v-28.309h-12.542v-10.153h12.542v10.153m14.811-10.153v10.153M269.278 89.659v14.214h-14.573V59.797h14.573v13.856h78.476v16.005h-78.476V73.653h-1.792v16.005h1.792zm0 295.988V369.64h-1.792v16.007h80.268V369.64h-78.476v-13.139h-14.573v44.076h14.573v-14.93z"/><path fill="none" stroke="#3C3C3C" stroke-linecap="round" stroke-linejoin="round" d="M333.66 81.536c0-1.353.477-2.508 1.432-3.463.3-.3.619-.558.957-.777.742-.439 1.579-.657 2.508-.657 1.354 0 2.508.477 3.464 1.434.955.955 1.432 2.11 1.432 3.463 0 1.275-.477 2.389-1.432 3.345-.957.956-2.11 1.434-3.464 1.434-.93 0-1.766-.218-2.508-.657a5.848 5.848 0 0 1-.957-.777c-.955-.956-1.432-2.069-1.432-3.345zm1.432 292.524c.3-.299.619-.556.957-.774.742-.438 1.579-.658 2.508-.658 1.354 0 2.508.479 3.464 1.433.955.956 1.432 2.111 1.432 3.464 0 1.276-.477 2.39-1.432 3.346-.957.954-2.11 1.433-3.464 1.433-.93 0-1.766-.217-2.508-.655a6.009 6.009 0 0 1-.957-.777c-.955-.956-1.432-2.069-1.432-3.346 0-1.355.477-2.51 1.432-3.466z"/></g></svg>