
<svg xmlns="http://www.w3.org/2000/svg" version="1.1" xmlns:xlink="http://www.w3.org/1999/xlink" preserveAspectRatio="none" x="0px" y="0px" width="285px" height="427px" viewBox="0 0 285 427">
<defs>
<g id="Layer0_0_FILL">
<path fill="#517AC8" stroke="none" d="
M 58.45 150.05
Q 33.6 136.7 7.2 123.4
L 16.7 284.1
Q 38.45 300.25 60.85 315.45 57.55 250.3 58.45 150.05
M 136.65 194.3
Q 107.45 176.8 75.5 159.3 72.9 246 76.3 325.8 104.05 344.15 132.75 361.1
L 136.65 194.3 Z"/>

<path fill="#DA1414" stroke="none" d="
M 58.45 150.05
L 75.5 159.25
Q 107 141.35 135.75 127.75 134.7 126.1 133.85 124.35
L 132 123.75
Q 116.6 125.75 103.25 126.7 80.8 137.55 58.45 150.05
M 132 123.75
L 133.85 124.35
Q 133.65 123.95 133.5 123.55 132.7 123.65 132 123.75
M 95 86.95
Q 94.55 86.8 94.15 86.6 84.85 88.95 78.35 92.8 99.85 97.15 129.95 111.9 129.85 111.45 129.8 111.05
L 136.1 110.6
Q 138.05 109.3 140.4 108.4 118.4 97.25 95 86.95
M 202.6 162.8
L 220.25 155 220.2 155
Q 197.7 139.85 173.15 125.95 166.2 126 158.7 125.85 158.75 127.45 158.5 129.15
L 146.4 130
Q 146.25 130.05 146.1 130.15 174.55 145.7 202.6 162.8
M 194 89.6
Q 193.6 89.75 193.15 89.9 169.9 97.7 146.75 107.25
L 149.6 109.7 149.8 109.65
Q 150.2 110 150.6 110.4 182.8 96.9 202.35 92.95 198.55 91.15 194 89.6 Z"/>

<path fill="#AB1010" stroke="none" d="
M 75.5 159.25
L 58.45 150.05
Q 57.55 250.3 60.85 315.45 60.85 315.5 60.85 315.55
L 68.75 320.8 75.85 325.5
Q 76.1 325.65 76.3 325.8 72.9 246 75.5 159.3
L 75.5 159.25 Z"/>

<path fill="#9EADE9" stroke="none" d="
M 39.6 109.95
L 7.2 123.4
Q 33.6 136.7 58.45 150.05 80.8 137.55 103.25 126.7 59 129.8 37.3 120.95 37.5 118.95 38.25 117.3 38.7 113.3 39.6 109.95
M 202.6 162.85
L 202.6 162.8
Q 174.55 145.7 146.1 130.15 144.7 130.85 143.3 131.4
L 142 130.3 137.75 130.55
Q 136.7 129.2 135.75 127.75 107 141.35 75.5 159.25
L 75.5 159.3
Q 107.45 176.8 136.65 194.3 169.4 177.9 202.6 162.85
M 68.05 105.65
Q 56.4 105.05 47.6 108.6 65.35 115.95 96.7 115.35 97.85 115.25 101.05 113.85 79.8 106.25 68.05 105.65
M 144.5 66.4
L 95 86.95
Q 118.4 97.25 140.4 108.4 143.05 107.3 146.2 106.75
L 146.75 107.25
Q 169.9 97.7 193.15 89.9
L 144.5 66.4
M 224.75 105.1
L 223.9 104.7
Q 217.55 104.15 208.7 105.6 197.6 107.25 182.9 111.95 205.45 112.75 224.75 105.1
M 238.15 111.6
Q 238.75 112.95 239.05 114.6 217.35 125.5 173.15 125.95 197.7 139.85 220.2 155 248.85 142.35 277.8 130.7
L 238.15 111.6 Z"/>

<path fill="#728DD6" stroke="none" d="
M 192.2 330.7
L 191.75 330.9
Q 200 245.05 202.6 162.85 169.4 177.9 136.65 194.3
L 132.75 361.1
Q 163.1 346.1 192.2 330.7
M 220.2 155
L 220.25 155
Q 216.4 236.35 208.4 322 235.85 307.15 262.2 291.9
L 277.8 130.7
Q 248.85 142.35 220.2 155 Z"/>

<path fill="#EE1717" stroke="none" d="
M 143.3 131.4
Q 144.7 130.85 146.1 130.15 146.25 130.05 146.4 130
L 144.05 130.15
Q 143.65 130.75 143.3 131.4
M 142 130.3
L 143.3 131.4
Q 143.65 130.75 144.05 130.15
L 142 130.3
M 129.95 111.9
Q 130.3 113.9 130.75 115.8 131.65 119.5 133.1 122.75 133.25 123.05 133.4 123.4 133.45 123.45 133.5 123.55 133.65 123.95 133.85 124.35
L 137.45 125.5 133.85 124.35
Q 134.7 126.1 135.75 127.75 136.7 129.2 137.75 130.55 137.9 128.6 137.9 126.8 137.8 117.6 132.95 113.2 131.55 111.9 129.8 111.05 129.85 111.45 129.95 111.9
M 130.75 115.8
Q 129.65 117.3 128.8 119.1
L 133.1 122.75
Q 131.65 119.5 130.75 115.8
M 156.95 118.75
Q 158.5 118.45 160.1 118.6
L 151.75 111.5
Q 155.2 115 156.95 118.75
M 160.1 118.6
Q 158.5 118.45 156.95 118.75 157.5 119.9 157.9 121.1 157.95 121 158 120.95 159.05 119.8 160.1 118.6
M 149.6 109.7
L 146.75 107.25 146.2 106.75
Q 143.05 107.3 140.4 108.4 138.05 109.3 136.1 110.6
L 149.6 109.7
M 150.6 110.4
Q 150.2 110 149.8 109.65
L 149.6 109.7 136.1 110.6 129.8 111.05
Q 131.55 111.9 132.95 113.2 137.8 117.6 137.9 126.8 137.9 128.6 137.75 130.55
L 142 130.3 144.05 130.15 146.4 130 158.5 129.15
Q 158.75 127.45 158.7 125.85 158.6 123.4 157.9 121.1 157.5 119.9 156.95 118.75 155.2 115 151.75 111.5 151.2 110.95 150.6 110.4
M 78.35 92.8
Q 72.25 91.5 66.8 91.1 45 89.4 39.6 109.95 38.7 113.3 38.25 117.3 41.1 112.55 47.6 108.6 56.4 105.05 68.05 105.65 79.8 106.25 101.05 113.85
L 133.4 123.4
Q 133.25 123.05 133.1 122.75
L 128.8 119.1
Q 129.65 117.3 130.75 115.8 130.3 113.9 129.95 111.9 99.85 97.15 78.35 92.8
M 204.1 92.6
Q 203.25 92.75 202.35 92.95 182.8 96.9 150.6 110.4 151.2 110.95 151.75 111.5
L 160.1 118.6
Q 159.05 119.8 158 120.95 159.8 120.2 161.6 119.55 173.05 115.1 182.9 111.95 197.6 107.25 208.7 105.6 217.55 104.15 223.9 104.7 224.65 104.75 225.35 104.85 234.35 105.8 237.85 111 232.5 87.25 204.1 92.6 Z"/>

<path fill="#F04A4A" stroke="none" d="
M 133.5 123.55
Q 133.45 123.45 133.4 123.4
L 101.05 113.85 132 123.75
Q 132.7 123.65 133.5 123.55
M 38.25 117.3
Q 37.5 118.95 37.3 120.95 59 129.8 103.25 126.7 116.6 125.75 132 123.75
L 101.05 113.85
Q 97.85 115.25 96.7 115.35 65.35 115.95 47.6 108.6 41.1 112.55 38.25 117.3
M 238.15 111.6
Q 238 111.3 237.85 111 234.35 105.8 225.35 104.85 225.05 105 224.75 105.1 205.45 112.75 182.9 111.95 173.05 115.1 161.6 119.55 159.8 120.2 158 120.95 157.95 121 157.9 121.1 158.6 123.4 158.7 125.85 166.2 126 173.15 125.95 217.35 125.5 239.05 114.6 238.75 112.95 238.15 111.6 Z"/>

<path fill="#BB1111" stroke="none" d="
M 202.6 162.8
L 202.6 162.85
Q 200 245.05 191.75 330.9
L 192.2 330.7 193.5 330 208.4 322.1
Q 208.4 322.05 208.4 322 216.4 236.35 220.25 155
L 202.6 162.8 Z"/>
</g>

<path id="Layer0_0_1_STROKES" stroke="#0E1241" stroke-width="2" stroke-linejoin="round" stroke-linecap="round" fill="none" d="
M 238.15 111.6
L 277.8 130.7 262.2 291.9
Q 235.85 307.15 208.4 322
M 193.5 330
L 192.2 330.7
Q 163.1 346.1 132.75 361.1 104.05 344.15 76.3 325.8
M 68.75 320.8
L 75.85 325.5
M 60.85 315.45
Q 38.45 300.25 16.7 284.1
L 7.2 123.4 39.6 109.95
M 95 86.95
L 144.5 66.4 193.15 89.9
M 220.2 155
Q 248.85 142.35 277.8 130.7
M 224.75 105.1
L 223.9 104.7
M 75.5 159.3
Q 107.45 176.8 136.65 194.3 169.4 177.9 202.6 162.85
M 7.2 123.4
Q 33.6 136.7 58.45 150.05
M 132.75 361.1
L 136.65 194.3"/>

<path id="Layer0_0_2_STROKES" stroke="#4B0505" stroke-width="2" stroke-linejoin="round" stroke-linecap="round" fill="none" d="
M 193.15 89.9
Q 193.6 89.75 194 89.6 198.55 91.15 202.35 92.95 203.25 92.75 204.1 92.6 232.5 87.25 237.85 111 238 111.3 238.15 111.6
M 208.4 322
Q 208.4 322.05 208.4 322.1
L 193.5 330
M 75.85 325.5
Q 76.1 325.65 76.3 325.8
M 68.75 320.8
L 60.85 315.55
Q 60.85 315.5 60.85 315.45
M 39.6 109.95
Q 45 89.4 66.8 91.1 72.25 91.5 78.35 92.8 84.85 88.95 94.15 86.6 94.55 86.8 95 86.95
M 193.15 89.9
Q 169.9 97.7 146.75 107.25
L 149.6 109.7 149.8 109.65
Q 150.2 110 150.6 110.4 182.8 96.9 202.35 92.95
M 173.15 125.95
Q 217.35 125.5 239.05 114.6 238.75 112.95 238.15 111.6
M 237.85 111
Q 234.35 105.8 225.35 104.85 225.05 105 224.75 105.1 205.45 112.75 182.9 111.95 173.05 115.1 161.6 119.55 159.8 120.2 158 120.95 157.95 121 157.9 121.1 158.6 123.4 158.7 125.85 166.2 126 173.15 125.95 197.7 139.85 220.2 155
M 223.9 104.7
Q 217.55 104.15 208.7 105.6 197.6 107.25 182.9 111.95
M 225.35 104.85
Q 224.65 104.75 223.9 104.7
M 202.6 162.85
L 202.6 162.8
Q 174.55 145.7 146.1 130.15 144.7 130.85 143.3 131.4
L 142 130.3 137.75 130.55
Q 136.7 129.2 135.75 127.75 107 141.35 75.5 159.25
L 75.5 159.3
M 202.6 162.85
Q 200 245.05 191.75 330.9
L 192.2 330.7
M 220.2 155
L 220.25 155
M 47.6 108.6
Q 56.4 105.05 68.05 105.65 79.8 106.25 101.05 113.85
L 133.4 123.4
Q 133.25 123.05 133.1 122.75
L 128.8 119.1
Q 129.65 117.3 130.75 115.8 130.3 113.9 129.95 111.9 99.85 97.15 78.35 92.8
M 39.6 109.95
Q 38.7 113.3 38.25 117.3 37.5 118.95 37.3 120.95 59 129.8 103.25 126.7 116.6 125.75 132 123.75
L 101.05 113.85
Q 97.85 115.25 96.7 115.35 65.35 115.95 47.6 108.6 41.1 112.55 38.25 117.3
M 60.85 315.45
Q 57.55 250.3 58.45 150.05 80.8 137.55 103.25 126.7
M 146.75 107.25
L 146.2 106.75
Q 143.05 107.3 140.4 108.4 138.05 109.3 136.1 110.6
L 149.6 109.7
M 158 120.95
Q 159.05 119.8 160.1 118.6 158.5 118.45 156.95 118.75 157.5 119.9 157.9 121.1
M 150.6 110.4
Q 151.2 110.95 151.75 111.5
L 160.1 118.6
M 151.75 111.5
Q 155.2 115 156.95 118.75
M 133.5 123.55
Q 133.45 123.45 133.4 123.4
M 129.95 111.9
Q 129.85 111.45 129.8 111.05
L 136.1 110.6
M 133.1 122.75
Q 131.65 119.5 130.75 115.8
M 137.75 130.55
Q 137.9 128.6 137.9 126.8 137.8 117.6 132.95 113.2 131.55 111.9 129.8 111.05
M 137.45 125.5
L 133.85 124.35 132 123.75
M 133.85 124.35
Q 133.65 123.95 133.5 123.55 132.7 123.65 132 123.75
M 135.75 127.75
Q 134.7 126.1 133.85 124.35
M 158.7 125.85
Q 158.75 127.45 158.5 129.15
L 146.4 130
Q 146.25 130.05 146.1 130.15
M 143.3 131.4
Q 143.65 130.75 144.05 130.15
L 142 130.3
M 146.4 130
L 144.05 130.15
M 95 86.95
Q 118.4 97.25 140.4 108.4
M 220.25 155
Q 216.4 236.35 208.4 322
M 75.5 159.3
Q 72.9 246 76.3 325.8"/>
</defs>

<g transform="matrix( 1, 0, 0, 1, 0,0) ">
<use xlink:href="#Layer0_0_FILL"/>

<use xlink:href="#Layer0_0_1_STROKES"/>

<use xlink:href="#Layer0_0_2_STROKES"/>
</g>
</svg>
