<svg xmlns="http://www.w3.org/2000/svg" xmlns:xlink="http://www.w3.org/1999/xlink" preserveAspectRatio="none" width="285" height="427" viewBox="0 0 285 427"><defs><g id="a"><path fill="#517AC8" d="M58.45 150.05Q33.6 136.7 7.2 123.4l9.5 160.7q21.75 16.15 44.15 31.35-3.3-65.15-2.4-165.4m78.2 44.25q-29.2-17.5-61.15-35-2.6 86.7.8 166.5 27.75 18.35 56.45 35.3l3.9-166.8z"/><path fill="#DA1414" d="M58.45 150.05l17.05 9.2q31.5-17.9 60.25-31.5-1.05-1.65-1.9-3.4l-1.85-.6q-15.4 2-28.75 2.95-22.45 10.85-44.8 23.35m73.55-26.3l1.85.6q-.2-.4-.35-.8-.8.1-1.5.2m-37-36.8q-.45-.15-.85-.35-9.3 2.35-15.8 6.2 21.5 4.35 51.6 19.1-.1-.45-.15-.85l6.3-.45q1.95-1.3 4.3-2.2-22-11.15-45.4-21.45m107.6 75.85l17.65-7.8h-.05q-22.5-15.15-47.05-29.05-6.95.05-14.45-.1.05 1.6-.2 3.3l-12.1.85q-.15.05-.3.15 28.45 15.55 56.5 32.65M194 89.6q-.4.15-.85.3-23.25 7.8-46.4 17.35l2.85 2.45.2-.05q.4.35.8.75 32.2-13.5 51.75-17.45-3.8-1.8-8.35-3.35z"/><path fill="#AB1010" d="M75.5 159.25l-17.05-9.2q-.9 100.25 2.4 165.4v.1l7.9 5.25 7.1 4.7q.25.15.45.3-3.4-79.8-.8-166.5v-.05z"/><path fill="#9EADE9" d="M39.6 109.95L7.2 123.4q26.4 13.3 51.25 26.65 22.35-12.5 44.8-23.35-44.25 3.1-65.95-5.75.2-2 .95-3.65.45-4 1.35-7.35m163 52.9v-.05q-28.05-17.1-56.5-32.65-1.4.7-2.8 1.25l-1.3-1.1-4.25.25q-1.05-1.35-2-2.8-28.75 13.6-60.25 31.5v.05q31.95 17.5 61.15 35 32.75-16.4 65.95-31.45m-134.55-57.2q-11.65-.6-20.45 2.95 17.75 7.35 49.1 6.75 1.15-.1 4.35-1.5-21.25-7.6-33-8.2M144.5 66.4L95 86.95q23.4 10.3 45.4 21.45 2.65-1.1 5.8-1.65l.55.5q23.15-9.55 46.4-17.35L144.5 66.4m80.25 38.7l-.85-.4q-6.35-.55-15.2.9-11.1 1.65-25.8 6.35 22.55.8 41.85-6.85m13.4 6.5q.6 1.35.9 3-21.7 10.9-65.9 11.35 24.55 13.9 47.05 29.05 28.65-12.65 57.6-24.3l-39.65-19.1z"/><path fill="#728DD6" d="M192.2 330.7l-.45.2q8.25-85.85 10.85-168.05-33.2 15.05-65.95 31.45l-3.9 166.8q30.35-15 59.45-30.4m28-175.7h.05q-3.85 81.35-11.85 167 27.45-14.85 53.8-30.1l15.6-161.2q-28.95 11.65-57.6 24.3z"/><path fill="#EE1717" d="M143.3 131.4q1.4-.55 2.8-1.25.15-.1.3-.15l-2.35.15q-.4.6-.75 1.25m-1.3-1.1l1.3 1.1q.35-.65.75-1.25l-2.05.15m-12.05-18.4q.35 2 .8 3.9.9 3.7 2.35 6.95.15.3.3.65.05.05.1.15.15.4.35.8l3.6 1.15-3.6-1.15q.85 1.75 1.9 3.4.95 1.45 2 2.8.15-1.95.15-3.75-.1-9.2-4.95-13.6-1.4-1.3-3.15-2.15.05.4.15.85m.8 3.9q-1.1 1.5-1.95 3.3l4.3 3.65q-1.45-3.25-2.35-6.95m26.2 2.95q1.55-.3 3.15-.15l-8.35-7.1q3.45 3.5 5.2 7.25m3.15-.15q-1.6-.15-3.15.15.55 1.15.95 2.35.05-.1.1-.15 1.05-1.15 2.1-2.35m-10.5-8.9l-2.85-2.45-.55-.5q-3.15.55-5.8 1.65-2.35.9-4.3 2.2l13.5-.9m1 .7q-.4-.4-.8-.75l-.2.05-13.5.9-6.3.45q1.75.85 3.15 2.15 4.85 4.4 4.95 13.6 0 1.8-.15 3.75l4.25-.25 2.05-.15 2.35-.15 12.1-.85q.25-1.7.2-3.3-.1-2.45-.8-4.75-.4-1.2-.95-2.35-1.75-3.75-5.2-7.25-.55-.55-1.15-1.1M78.35 92.8q-6.1-1.3-11.55-1.7-21.8-1.7-27.2 18.85-.9 3.35-1.35 7.35 2.85-4.75 9.35-8.7 8.8-3.55 20.45-2.95 11.75.6 33 8.2l32.35 9.55q-.15-.35-.3-.65l-4.3-3.65q.85-1.8 1.95-3.3-.45-1.9-.8-3.9-30.1-14.75-51.6-19.1m125.75-.2q-.85.15-1.75.35-19.55 3.95-51.75 17.45.6.55 1.15 1.1l8.35 7.1q-1.05 1.2-2.1 2.35 1.8-.75 3.6-1.4 11.45-4.45 21.3-7.6 14.7-4.7 25.8-6.35 8.85-1.45 15.2-.9.75.05 1.45.15 9 .95 12.5 6.15-5.35-23.75-33.75-18.4z"/><path fill="#F04A4A" d="M133.5 123.55q-.05-.1-.1-.15l-32.35-9.55 30.95 9.9q.7-.1 1.5-.2m-95.25-6.25q-.75 1.65-.95 3.65 21.7 8.85 65.95 5.75 13.35-.95 28.75-2.95l-30.95-9.9q-3.2 1.4-4.35 1.5-31.35.6-49.1-6.75-6.5 3.95-9.35 8.7m199.9-5.7l-.3-.6q-3.5-5.2-12.5-6.15-.3.15-.6.25-19.3 7.65-41.85 6.85-9.85 3.15-21.3 7.6-1.8.65-3.6 1.4-.05.05-.1.15.7 2.3.8 4.75 7.5.15 14.45.1 44.2-.45 65.9-11.35-.3-1.65-.9-3z"/><path fill="#B11" d="M202.6 162.8v.05q-2.6 82.2-10.85 168.05l.45-.2 1.3-.7 14.9-7.9v-.1q8-85.65 11.85-167l-17.65 7.8z"/></g><path id="b" stroke="#0E1241" stroke-width="2" stroke-linejoin="round" stroke-linecap="round" fill="none" d="M238.15 111.6l39.65 19.1-15.6 161.2q-26.35 15.25-53.8 30.1m-14.9 8l-1.3.7q-29.1 15.4-59.45 30.4-28.7-16.95-56.45-35.3m-7.55-5l7.1 4.7m-15-10.05q-22.4-15.2-44.15-31.35L7.2 123.4l32.4-13.45m55.4-23l49.5-20.55 48.65 23.5M220.2 155q28.65-12.65 57.6-24.3m-53.05-25.6l-.85-.4M75.5 159.3q31.95 17.5 61.15 35 32.75-16.4 65.95-31.45M7.2 123.4q26.4 13.3 51.25 26.65m74.3 211.05l3.9-166.8"/><path id="c" stroke="#4B0505" stroke-width="2" stroke-linejoin="round" stroke-linecap="round" fill="none" d="M193.15 89.9q.45-.15.85-.3 4.55 1.55 8.35 3.35.9-.2 1.75-.35 28.4-5.35 33.75 18.4l.3.6M208.4 322v.1l-14.9 7.9m-117.65-4.5q.25.15.45.3m-7.55-5l-7.9-5.25v-.1M39.6 109.95Q45 89.4 66.8 91.1q5.45.4 11.55 1.7 6.5-3.85 15.8-6.2.4.2.85.35m98.15 2.95q-23.25 7.8-46.4 17.35l2.85 2.45.2-.05q.4.35.8.75 32.2-13.5 51.75-17.45m-29.2 33q44.2-.45 65.9-11.35-.3-1.65-.9-3m-.3-.6q-3.5-5.2-12.5-6.15-.3.15-.6.25-19.3 7.65-41.85 6.85-9.85 3.15-21.3 7.6-1.8.65-3.6 1.4-.05.05-.1.15.7 2.3.8 4.75 7.5.15 14.45.1 24.55 13.9 47.05 29.05m3.7-50.3q-6.35-.55-15.2.9-11.1 1.65-25.8 6.35m42.45-7.1q-.7-.1-1.45-.15m-21.3 58.15v-.05q-28.05-17.1-56.5-32.65-1.4.7-2.8 1.25l-1.3-1.1-4.25.25q-1.05-1.35-2-2.8-28.75 13.6-60.25 31.5v.05m127.1 3.55q-2.6 82.2-10.85 168.05l.45-.2m28-175.7h.05M47.6 108.6q8.8-3.55 20.45-2.95 11.75.6 33 8.2l32.35 9.55q-.15-.35-.3-.65l-4.3-3.65q.85-1.8 1.95-3.3-.45-1.9-.8-3.9-30.1-14.75-51.6-19.1M39.6 109.95q-.9 3.35-1.35 7.35-.75 1.65-.95 3.65 21.7 8.85 65.95 5.75 13.35-.95 28.75-2.95l-30.95-9.9q-3.2 1.4-4.35 1.5-31.35.6-49.1-6.75-6.5 3.95-9.35 8.7m22.6 198.15q-3.3-65.15-2.4-165.4 22.35-12.5 44.8-23.35m43.5-19.45l-.55-.5q-3.15.55-5.8 1.65-2.35.9-4.3 2.2l13.5-.9m8.4 11.25q1.05-1.15 2.1-2.35-1.6-.15-3.15.15.55 1.15.95 2.35m-7.3-10.7q.6.55 1.15 1.1l8.35 7.1m-8.35-7.1q3.45 3.5 5.2 7.25m-23.45 4.8q-.05-.1-.1-.15m-3.45-11.5q-.1-.45-.15-.85l6.3-.45m-3 12.15q-1.45-3.25-2.35-6.95m7 14.75q.15-1.95.15-3.75-.1-9.2-4.95-13.6-1.4-1.3-3.15-2.15m7.65 14.45l-3.6-1.15-1.85-.6m1.85.6q-.2-.4-.35-.8-.8.1-1.5.2m3.75 4q-1.05-1.65-1.9-3.4m24.85 1.5q.05 1.6-.2 3.3l-12.1.85q-.15.05-.3.15m-2.8 1.25q.35-.65.75-1.25l-2.05.15m4.4-.3l-2.35.15M95 86.95q23.4 10.3 45.4 21.45m79.85 46.6q-3.85 81.35-11.85 167M75.5 159.3q-2.6 86.7.8 166.5"/></defs><g><use xlink:href="#a"/><use xlink:href="#b"/><use xlink:href="#c"/></g></svg>