<svg xmlns="http://www.w3.org/2000/svg" width="900" height="450" viewBox="0 0 900 450"><path fill="none" stroke="#7E90FF" stroke-width="1.5" stroke-linecap="round" stroke-linejoin="round" d="M834.216 233.455c-40.729 7.626-91.35 13.116-151.857 16.468-58.583 3.268-118.296 4.146-179.14 2.639-62.855-1.674-117.918-5.74-165.186-12.192-51.29-6.959-87.83-16.051-109.621-27.281m601.782 5.154c-45.173 7.291-98.473 12.361-159.905 15.212-58.749 2.765-118.252 3.182-178.511 1.257-60.928-1.93-114.732-6.035-161.413-12.321-49.699-6.621-85.945-15.002-108.74-25.142m617.119 53.302c-18.523 3.603-56.109 8.297-112.766 14.079-56.569 5.698-138.282 7.712-245.137 6.035-106.939-1.677-188.316-14.248-244.131-37.714m614.478 71.906c-42.238 7.039-95.541 11.65-159.904 13.828-64.281 2.178-128.101 2.473-191.459.882-63.359-1.594-116.87-6.119-160.534-13.578-47.938-8.213-76.559-18.479-85.861-30.799m571.736-75.302c-96.295 14.75-209.31 20.659-339.045 17.726-133.254-2.933-223.473-14.247-270.657-33.942m604.549-1.132c-113.896 14.75-228 20.827-342.313 18.229-113.308-2.598-202.898-13.158-268.772-31.68m607.187-2.388c-112.386 10.896-222.007 15.21-328.861 12.948-102.414-2.263-197.201-10.393-284.36-24.389m607.94-5.153c-112.805 9.974-222.845 13.787-330.117 11.439-106.772-2.346-202.271-10.559-286.498-24.639m611.337-4.903c-96.967 8.129-204.408 11.482-322.325 10.057-119.091-1.508-217.565-7.501-295.422-17.977m-36.582-46.136c-14.249 10.477-32.77 18.773-55.565 24.892m39.472-55.692c-9.47 5.784-22.25 10.728-38.342 14.835m46.64.879c-12.823 8.55-28.537 14.96-47.142 19.235m63.986 12.822c-17.935 9.722-39.641 18.648-65.118 26.778m73.668-9.178c-19.444 11.314-44.167 21.079-74.17 29.292m102.203 29.29c-28.997 11.566-63.611 21.496-103.838 29.794m113.644-8.298c-35.87 12.404-73.918 21.875-114.146 28.412m125.335-3.018c-35.032 11.147-77.019 19.947-125.963 26.399m134.259-7.163c-38.3 12.234-83.263 21.955-134.888 29.164m142.431-11.44c-41.066 12.821-88.752 23.969-143.06 33.438m148.465-20.114c-45.843 14.752-95.499 27.952-148.968 39.6m151.357-.378c-46.262 16.426-97.092 30.591-152.488 42.491m152.111-25.142c-41.737 12.571-88.083 24.348-139.038 35.325m139.792-69.896c-46.848 18.187-97.636 31.178-152.363 38.971m99.061-175.62c-26.064 11.314-57.742 20.994-95.037 29.041m85.987-48.526c-22.796 10.896-51.292 20.156-85.484 27.783m706.246-47.77c-201.138 19.946-407.808 18.06-620.009-5.657m-6.914-13.703c204.575 22.041 411.916 22.711 622.022 2.011m-5.531-18.228c-259.721 22.879-468.276 22.251-625.667-1.886m77.689 168.831c126.969 50.955 327.354 58.414 601.152 22.375m4.778 20.871c-301.372 27.74-501.296 18.69-599.77-27.155m604.548 61.976c-312.939 23.635-512.653 14.415-599.143-27.656m599.143 50.913c-268.186 11.063-467.9 1.635-599.143-28.285M781.042 49.286C525.26 64.54 314.483 63.953 148.712 47.527m636.854 17.221c-264.581 19.108-474.268 18.229-629.061-2.639"/><path fill="none" stroke="#224FFF" stroke-width="1.5" stroke-linecap="round" stroke-linejoin="round" d="M749.235 374.252c2.178-8.884.921-30.215-3.771-63.988-4.524-32.602-11.145-68.555-19.86-107.861-9.22-41.903-18.606-77.563-28.16-106.98-10.979-33.607-20.659-54.14-29.04-61.599m-57.073 330.371c3.437-7.796 3.729-27.573.879-59.338-2.85-31.848-9.344-67.256-19.485-106.226-10.057-38.971-20.742-73.96-32.057-104.969-11.229-31.092-21.621-50.577-31.176-58.456m59.588 327.857c2.431-4.861 2.556-23.635.377-56.319-2.096-32.685-8.297-68.427-18.605-107.232-10.309-38.886-21.623-73.373-33.941-103.46-12.32-30.087-24.012-50.285-35.074-60.593m64.866 324.712c1.592-6.789 2.347-25.479 2.263-56.067 0-30.588-6.118-61.221-18.354-91.895-12.236-30.758-23.382-63.149-33.439-97.176-10.057-34.025-25.225-60.467-45.508-79.323m187.814 331.124c2.096-3.94 1.424-21.999-2.013-54.181-3.352-32.268-9.889-68.975-19.61-110.125-9.722-41.233-19.945-77.774-30.674-109.621-10.728-31.931-20.909-51.332-30.548-58.204m103.964 335.022c2.263-5.866 1.969-25.394-.88-58.582-2.85-33.188-9.261-70.062-19.234-110.626-9.973-40.646-20.49-76.726-31.553-108.237-10.979-31.512-21.707-50.747-32.183-57.702M702.094 370.48c2.179-6.369 1.886-26.149-.879-59.338-2.683-33.188-8.927-70.062-18.731-110.626-9.806-40.646-20.365-76.726-31.68-108.237-11.314-31.512-23.047-50.83-35.199-57.953m22.502 331.251c1.257-3.101.377-21.034-2.641-53.806-3.017-32.769-9.764-69.645-20.239-110.626s-20.91-77.228-31.303-108.741c-10.308-31.595-20.7-50.745-31.177-57.449m-162.291 4.023c19.945 14.248 39.557 45.424 58.833 93.53 19.36 48.105 32.434 80.833 39.222 98.18 6.789 17.35 10.938 34.195 12.445 50.538 1.342 14.412.127 39.638-3.645 75.677M370.341 38.978c20.533 17.013 40.312 48.902 59.336 95.667 19.023 46.681 31.93 78.695 38.719 96.043 6.787 17.35 10.938 34.195 12.445 50.538 1.342 14.412.084 38.759-3.771 73.037M436.969 38.978c16.008.755 34.487 28.495 55.438 83.221 21.036 54.726 35.241 92.483 42.616 113.267 7.375 20.7 11.607 37.126 12.697 49.277 1.173 12.068.628 37.085-1.635 75.052M411.826 38.978c22.376 13.41 43.16 44.544 62.353 93.404 19.192 48.859 32.56 84.729 40.103 107.609 7.543 22.878 11.23 39.516 11.063 49.906-.168 10.31-2.011 33.021-5.531 68.137m204.154 14.204c2.265-7.543 1.719-27.781-1.635-60.717-3.352-32.938-9.721-69.729-19.107-110.376-9.387-40.73-19.275-75.804-29.667-105.22-10.393-29.5-20.617-50.118-30.675-61.851m49.404-.502C718.1 56.87 746.68 170.932 778.024 375.76M723.843 33.32c47.771 102.917 71.739 217.314 71.906 343.192M259.715 38.978c17.516 33.271 38.384 72.62 62.604 118.043 16.761 31.931 28.327 55.942 34.696 72.034 7.292 18.438 11.692 35.828 13.2 52.171 1.342 14.412.672 36.412-2.011 65.998M303.086 38.978c17.516 27.741 36.498 62.354 56.947 103.838 20.533 41.4 33.984 70.147 40.353 86.239 7.292 18.438 11.692 35.828 13.2 52.171 1.342 14.412-.335 37.293-5.028 68.638M278.572 38.978c17.516 33.271 38.384 72.62 62.604 118.043 16.761 31.931 28.327 55.942 34.696 72.034 7.292 18.438 11.692 35.828 13.2 52.171 1.342 14.412.126 36.495-3.645 66.249M347.085 38.978c19.359 23.383 38.802 56.906 58.33 100.569 19.611 43.58 32.601 73.416 38.97 89.508 7.293 18.438 11.692 35.828 13.199 52.171 1.342 14.412-.166 38.509-4.524 72.284M322.571 38.978c18.688 24.388 37.965 58.164 57.827 101.324 19.946 43.077 33.104 72.661 39.473 88.753 7.292 18.438 11.692 35.828 13.2 52.171 1.342 14.412-.167 37.88-4.525 70.398M165.432 38.978c17.516 33.271 38.384 72.62 62.604 118.043 16.761 31.931 28.327 55.942 34.696 72.034 7.292 18.438 11.692 35.828 13.2 52.171 1.342 14.412.755 33.981-1.759 58.706M184.288 38.978c17.516 33.271 38.384 72.62 62.604 118.043 16.761 31.931 28.327 55.942 34.696 72.034 7.292 18.438 11.692 35.828 13.2 52.171 1.342 14.412.755 33.981-1.759 58.706M152.86 38.978c17.516 33.271 38.384 72.62 62.604 118.043 16.761 31.931 28.327 55.942 34.696 72.034 7.292 18.438 11.692 35.828 13.2 52.171 1.342 14.412.755 33.981-1.759 58.706m-46.388-128.351c1.005 47.937 3.729 91.308 8.171 130.112m5.657-97.931c-.754 38.554.545 70.944 3.898 97.177m-31.178-159.152c-.335 55.901 3.101 109.913 10.309 162.042m-8.925-304.851c17.516 33.271 38.384 72.62 62.604 118.043 16.761 31.931 28.327 55.942 34.696 72.034 7.292 18.438 11.692 35.828 13.2 52.171 1.342 14.412.755 33.981-1.759 58.706M222.002 38.978c17.516 33.271 38.384 72.62 62.604 118.043 16.761 31.931 28.327 55.942 34.696 72.034 7.292 18.438 11.692 35.828 13.2 52.171 1.342 14.412.755 33.981-1.759 58.706M240.858 38.978c17.516 33.271 38.384 72.62 62.604 118.043 16.761 31.931 28.327 55.942 34.696 72.034 7.292 18.438 11.692 35.828 13.2 52.171 1.342 14.412.755 35.866-1.759 64.363M188.562 153.626c1.761 69.729 6.119 133.589 13.075 191.583M105.09 39.355c-1.677 105.178-.293 211.907 4.148 320.187m4.904-320.313c.167 104.089 2.639 209.687 7.416 316.794m16.217-3.898c-6.873-105.849-9.177-210.189-6.914-313.021m12.571 23.758c-1.09 93.782 2.179 188.987 9.805 285.618m11.566 2.387c-7.542-89.84-11.021-178.971-10.434-267.387m10.811 21.246c1.509 80.706 6.076 162.043 13.703 244.006m-1.635-219.242c2.431 77.271 7.208 149.805 14.332 217.606"/><path fill="none" stroke="#224FFF" stroke-width="1.5" stroke-linecap="round" stroke-linejoin="round" d="M845.658 279.465l6.914 101.323M831.326 223.02c5.362 56.654 8.464 111.044 9.304 163.175m-22.756-211.574c8.213 72.326 11.775 144.652 10.686 216.978m-24.387-264.623c8.547 88.418 13.954 176.166 16.215 263.24m-29.414-307.49c10.057 106.687 16.888 212.161 20.489 316.416M780.288 46.27c10.057 120.18 16.382 239.731 18.981 358.654M771.488 35.206c10.895 125.88 16.804 250.544 17.725 373.992"/><path fill="none" stroke="#224FFF" stroke-width="1.5" stroke-linecap="round" stroke-linejoin="round" d="M783.431 56.577c-6.035 8.046-12.07 12.739-18.103 14.08m23.632 4.526c-4.188 6.873-11.731 12.948-22.628 18.229m28.16 1.13c-7.543 8.465-16.719 13.619-27.531 15.462m33.691 5.029c-6.872 10.057-17.725 16.93-32.56 20.617m50.16 40.228c-12.738 12.488-28.496 22-47.268 28.537m53.553-6.79c-13.494 12.571-31.01 23.55-52.548 32.937m58.33-11.313c-15.336 11.731-34.484 22.669-57.449 32.81m62.732-12.572c-15.506 13.998-36.081 26.569-61.727 37.714m78.697 93.529l-24.013 20.868m22.629-86.363c-21.705 16.09-46.47 30.63-74.295 43.621m75.679-21.496c-21.204 19.023-46.052 35.157-74.548 48.399m74.548-28.913c-21.624 22.041-45.929 41.401-72.913 58.078m66.5-123.323c-21.204 16.596-44.667 30.171-70.398 40.731m65.998-59.085c-16.76 13.912-39.096 25.477-67.003 34.696m38.09-141.173c-10.475 11.732-24.765 20.407-42.867 26.022m36.08-49.027c-7.709 11.314-20.03 20.281-36.959 26.902"/><path fill="#FFF" d="M781.921 25.024c-4.608-4.106-10.853-7.081-18.731-8.925L97.044 23.515c-9.387-.083-14.374 4.4-14.959 13.451L76.05 379.53l169.837-28.285 515.794 35.578-.378-11.817-507.873-36.331V275.19c-29.919-78.695-66.375-157.434-109.369-236.213l-13.2.126c41.82 77.354 78.905 156.259 111.255 236.714l-1.257 63.484L88.621 362.56l8.8-323.204 33.44-.251 13.2-.126L745.59 33.07l15.714 341.936.378 11.817 2.136 44.878c3.855 3.101 9.345 3.101 16.471 0l86.112-38.342v-81.713c-6.202-31.762-16.47-73.625-30.799-125.586-13.912-50.452-28.58-99.144-44-146.076-2.347-6.286-5.574-11.272-9.681-14.96m-18.104 8.046c8.717 1.172 14.207 5.572 16.471 13.2 20.531 69.309 34.695 117.791 42.489 145.447 15.505 55.229 25.437 95.627 29.795 121.187v67.885L828.559 391.6l-48.399 21.874-1.633-25.143-.503-12.57L763.817 33.07z"/><path fill="none" stroke="#151515" stroke-width="2" stroke-linecap="round" stroke-linejoin="round" d="M852.572 380.788v-67.885c-4.358-25.56-14.29-65.957-29.795-121.187-7.794-27.656-21.958-76.139-42.489-145.447-2.264-7.627-7.754-12.027-16.471-13.2l14.207 342.69 74.548 5.029-24.013 10.811-48.399 21.874-1.633-25.143-.503-12.57m-16.342 11.063l2.136 44.878c3.855 3.101 9.345 3.101 16.471 0l86.112-38.342v-81.713c-6.202-31.762-16.47-73.625-30.799-125.586-13.912-50.452-28.58-99.144-44-146.076-2.347-6.286-5.573-11.272-9.681-14.96-4.608-4.106-10.853-7.081-18.731-8.925L97.044 23.515c-9.387-.083-14.374 4.4-14.959 13.451L76.05 379.53l169.837-28.285 515.795 35.578-.378-11.817-507.874-36.331V275.19c-29.919-78.695-66.375-157.434-109.369-236.213l-13.2.126c41.82 77.354 78.905 156.259 111.255 236.714l-1.257 63.484L88.621 362.56l8.8-323.204 33.44-.251M778.527 388.33l50.032 3.269m-67.255-16.593L745.59 33.07l-601.529 5.908"/></svg>