<svg xmlns="http://www.w3.org/2000/svg" xmlns:xlink="http://www.w3.org/1999/xlink" preserveAspectRatio="none" width="800" height="600" viewBox="0 0 800 600"><defs><path fill="#FFF" d="M288.8 45.5q-2.75-2.45-7.45-3.55L16.4 44.9q-5.6-.05-5.95 5.35L8.05 186.5l67.55-11.25 205.15 14.15-.15-4.7-202-14.45V145Q60.75 98.05 35.1 51.05l-5.25.05Q54.8 97.25 74.1 145.25l-.5 25.25-60.55 9.25 3.5-128.55 13.3-.1 5.25-.05 239.25-2.35 6.25 136 .15 4.7.85 17.85q2.3 1.85 6.55 0L322.4 192v-32.5q-3.7-18.95-12.25-49.95-8.3-30.1-17.5-58.1-1.4-3.75-3.85-5.95m-7.2 3.2q5.2.7 6.55 5.25 12.25 41.35 16.9 57.85 9.25 32.95 11.85 48.2v27l-9.55 4.3-19.25 8.7-.65-10-.2-5-5.65-136.3z" id="e"/><path id="a" stroke="#7E90FF" stroke-width="1.5" stroke-linejoin="round" stroke-linecap="round" fill="none" d="M309.6 128.4q-24.3 4.55-60.4 6.55-34.95 1.95-71.25 1.05-37.5-1-65.7-4.85-30.6-4.15-43.6-10.85M308 122.35q-26.95 4.35-63.6 6.05-35.05 1.65-71 .5-36.35-1.15-64.2-4.9-29.65-3.95-43.25-10m245.45 21.2q-11.05 2.15-44.85 5.6-33.75 3.4-97.5 2.4-63.8-1-97.1-15m244.4 28.6q-25.2 4.2-63.6 5.5-38.35 1.3-76.15.35-37.8-.95-63.85-5.4-28.6-4.9-34.15-12.25M306 115.05q-57.45 8.8-134.85 7.05-79.5-1.75-107.65-13.5m240.45-.45q-67.95 8.8-136.15 7.25-67.6-1.55-106.9-12.6m241.5-.95q-67.05 6.5-130.8 5.15-61.1-1.35-113.1-9.7m241.8-2.05Q233 101.2 169 99.8 105.3 98.4 55.05 90m243.15-1.95q-57.85 4.85-128.2 4-71.05-.9-117.5-7.15M37.95 66.55q-8.5 6.25-22.1 9.9m15.7-22.15q-5.65 3.45-15.25 5.9m18.55.35q-7.65 5.1-18.75 7.65m25.45 5.1q-10.7 5.8-25.9 10.65m29.3-3.65q-11.6 6.75-29.5 11.65M56.1 103.6q-17.3 6.9-41.3 11.85m45.2-3.3q-21.4 7.4-45.4 11.3m49.85-1.2q-20.9 6.65-50.1 10.5m53.4-2.85q-22.85 7.3-53.65 11.6m56.65-4.55q-24.5 7.65-56.9 13.3m59.05-8q-27.35 8.8-59.25 15.75m60.2-.15q-27.6 9.8-60.65 16.9m60.5-10q-24.9 7.5-55.3 14.05M74 151q-27.95 10.85-60.6 15.5m39.4-69.85Q37.25 103.4 15 108.2m34.2-19.3q-13.6 6.5-34 11.05m280.9-19q-120 11.9-246.6-2.25m-2.75-5.45q122.05 13.15 247.4.8m-2.2-7.25Q137 80.45 43.1 66.05M74 133.2q75.75 30.4 239.1 8.9m1.9 8.3q-179.8 16.55-238.55-10.8m240.45 24.65q-186.7 14.1-238.3-11m238.3 20.25q-160 6.6-238.3-11.25m209.85-107.1q-152.6 9.1-251.5-.7m253.3 6.85Q132.4 72.7 40.05 60.25"/><path id="b" stroke="#224FFF" stroke-width="1.5" stroke-linejoin="round" stroke-linecap="round" fill="none" d="M275.8 184.4q1.3-5.3-1.5-25.45-2.7-19.45-7.9-42.9-5.5-25-11.2-42.55-6.55-20.05-11.55-24.5m-22.7 131.4q2.05-4.65.35-23.6-1.7-19-7.75-42.25-6-23.25-12.75-41.75-6.7-18.55-12.4-23.25m23.7 130.4q1.45-2.9.15-22.4-1.25-19.5-7.4-42.65-6.15-23.2-13.5-41.15t-13.95-24.1m25.8 129.15q.95-4.05.9-22.3 0-18.25-7.3-36.55-7.3-18.35-13.3-38.65-6-20.3-18.1-31.55m74.7 131.7q1.25-2.35-.8-21.55-2-19.25-7.8-43.8-5.8-24.6-12.2-43.6-6.4-19.05-12.15-23.15M248.5 182.6q1.35-3.5-.35-23.3-1.7-19.8-7.65-44-5.95-24.25-12.55-43.05-6.55-18.8-12.8-22.95m41.9 133.6q1.3-3.8-.35-23.6-1.6-19.8-7.45-44-5.85-24.25-12.6-43.05-6.75-18.8-14-23.05m8.95 131.75q.75-1.85-1.05-21.4-1.8-19.55-8.05-44-6.25-24.45-12.45-43.25-6.15-18.85-12.4-22.85m-64.55 1.6q11.9 8.5 23.4 37.2 11.55 28.7 15.6 39.05 4.05 10.35 4.95 20.1.8 8.6-1.45 30.1M125.1 51.05q12.25 10.15 23.6 38.05 11.35 27.85 15.4 38.2 4.05 10.35 4.95 20.1.8 8.6-1.5 29.05M151.6 51.05q9.55.45 22.05 33.1 12.55 32.65 16.95 45.05 4.4 12.35 5.05 19.6.7 7.2-.65 29.85m-53.4-127.6q13.35 8 24.8 37.15 11.45 29.15 15.95 42.8 4.5 13.65 4.4 19.85-.1 6.15-2.2 27.1m81.2 5.65q1.35-4.5-.65-24.15t-7.6-43.9q-5.6-24.3-11.8-41.85-6.2-17.6-12.2-24.6m19.65-.2q15.4 13.9 34.1 136.1M265.7 48.8q28.5 61.4 28.6 136.5M81.1 51.05Q91.55 70.9 106 98q10 19.05 13.8 28.65 4.35 11 5.25 20.75.8 8.6-.8 26.25m-25.9-122.6Q108.8 67.6 121 92.35q12.25 24.7 16.05 34.3 4.35 11 5.25 20.75.8 8.6-2 27.3M88.6 51.05Q99.05 70.9 113.5 98q10 19.05 13.8 28.65 4.35 11 5.25 20.75.8 8.6-1.45 26.35m-15.25-122.7q11.55 13.95 23.2 40 11.7 26 15.5 35.6 4.35 11 5.25 20.75.8 8.6-1.8 28.75m-51.9-125.1q11.15 14.55 23 40.3 11.9 25.7 15.7 35.3 4.35 11 5.25 20.75.8 8.6-1.8 28M43.6 51.05Q54.05 70.9 68.5 98q10 19.05 13.8 28.65 4.35 11 5.25 20.75.8 8.6-.7 23.35M51.1 51.05Q61.55 70.9 76 98q10 19.05 13.8 28.65 4.35 11 5.25 20.75.8 8.6-.7 23.35M38.6 51.05Q49.05 70.9 63.5 98q10 19.05 13.8 28.65 4.35 11 5.25 20.75.8 8.6-.7 23.35M63.4 119.7q.6 28.6 3.25 51.75m2.25-38.95q-.45 23 1.55 38.65m-12.4-63.3q-.2 33.35 4.1 64.45M58.6 51.05Q69.05 70.9 83.5 98q10 19.05 13.8 28.65 4.35 11 5.25 20.75.8 8.6-.7 23.35M66.1 51.05Q76.55 70.9 91 98q10 19.05 13.8 28.65 4.35 11 5.25 20.75.8 8.6-.7 23.35M73.6 51.05Q84.05 70.9 98.5 98q10 19.05 13.8 28.65 4.35 11 5.25 20.75.8 8.6-.7 25.6M52.8 96.65q1.05 41.6 5.2 76.2M19.6 51.2q-1 62.75 1.65 127.35m1.95-127.4q.1 62.1 2.95 126m6.45-1.55q-4.1-63.15-2.75-124.5m5 9.45q-.65 55.95 3.9 113.6m4.6.95q-4.5-53.6-4.15-106.35m4.3 8.45q.9 48.15 5.45 97.05m-.65-87.2q1.45 46.1 5.7 86.55"/><path id="c" stroke="#224FFF" stroke-width="1.5" stroke-linejoin="round" stroke-linecap="round" fill="none" d="M314.15 146.7l2.75 40.3m-8.45-62.75q3.2 33.8 3.7 64.9M303.1 105q4.9 43.15 4.25 86.3m-9.7-105.25q5.1 52.75 6.45 104.7m-11.7-122.3q6 63.65 8.15 125.85m-12.4-140.35q6 71.7 7.55 142.65M284.65 49.55q6.5 75.1 7.05 148.75"/><path id="d" stroke="#224FFF" stroke-width="1.5" stroke-linejoin="round" stroke-linecap="round" fill="none" d="M289.4 58.05q-3.6 4.8-7.2 5.6m9.4 1.8q-2.5 4.1-9 7.25m11.2.45q-4.5 5.05-10.95 6.15m13.4 2q-4.1 6-12.95 8.2m19.95 16q-7.6 7.45-18.8 11.35m21.3-2.7q-8.05 7.5-20.9 13.1m23.2-4.5q-9.15 7-22.85 13.05m24.95-5q-9.25 8.35-24.55 15m31.3 37.2l-9.55 8.3m9-34.35q-12.95 9.6-29.55 17.35m30.1-8.55Q304.25 177.1 287.25 185m29.65-11.5q-12.9 13.15-29 23.1m26.45-49.05q-12.65 9.9-28 16.2m26.25-23.5q-10 8.3-26.65 13.8M301.1 97.9q-6.25 7-17.05 10.35m14.35-19.5q-4.6 6.75-14.7 10.7"/><path id="f" stroke="#151515" stroke-width="2" stroke-linejoin="round" stroke-linecap="round" fill="none" d="M316.9 187v-27q-2.6-15.25-11.85-48.2-4.65-16.5-16.9-57.85-1.35-4.55-6.55-5.25l5.65 136.3 29.65 2-9.55 4.3-19.25 8.7-.65-10-.2-5m-6.5 4.4l.85 17.85q2.3 1.85 6.55 0L322.4 192v-32.5q-3.7-18.95-12.25-49.95-8.3-30.1-17.5-58.1-1.4-3.75-3.85-5.95-2.75-2.45-7.45-3.55L16.4 44.9q-5.6-.05-5.95 5.35L8.05 186.5l67.55-11.25 205.15 14.15-.15-4.7-202-14.45V145Q60.75 98.05 35.1 51.05l-5.25.05Q54.8 97.25 74.1 145.25l-.5 25.25-60.55 9.25 3.5-128.55 13.3-.1M287.45 190l19.9 1.3m-26.75-6.6l-6.25-136L35.1 51.05"/></defs><use xlink:href="#a"/><use xlink:href="#b"/><use xlink:href="#c"/><use xlink:href="#d"/><g><use xlink:href="#e"/><use xlink:href="#f"/></g></svg>