<?xml version="1.0" encoding="utf-8"?>
<!-- Generator: Adobe Illustrator 16.0.0, SVG Export Plug-In . SVG Version: 6.00 Build 0)  -->
<!DOCTYPE svg PUBLIC "-//W3C//DTD SVG 1.1//EN" "http://www.w3.org/Graphics/SVG/1.1/DTD/svg11.dtd">
<svg version="1.1" id="Layer_1" xmlns="http://www.w3.org/2000/svg" xmlns:xlink="http://www.w3.org/1999/xlink" x="0px" y="0px"
	 width="900px" height="450px" viewBox="0 0 900 450" enable-background="new 0 0 900 450" xml:space="preserve">
<g transform="matrix( 1, 0, 0, 1, 0,0) ">
	<g>
		<g id="Layer0_0_FILL">
			<path fill="#999999" d="M620.168,348.459c-1.987-1.028-3.716-0.994-5.188,0.109c-1.472,1.177-2.243,2.944-2.316,5.298
				c-0.366,2.5,0.186,5.076,1.655,7.726l10.703,21.851l1.436,2.647c1.396,2.575,3.053,4.341,4.967,5.298
				c1.104,0.737,1.802,1.14,2.097,1.213c0.735,0.223,1.434,0.076,2.098-0.441c1.47-0.882,2.427-2.391,2.868-4.524
				c0.589-1.912,0.662-3.494,0.22-4.744c-0.22-0.736-0.402-1.436-0.552-2.097c-0.146-0.589-0.329-1.179-0.552-1.766v-0.222
				c-5.664-2.869-7.688-6.805-6.069-11.808l-0.552-0.993l-0.22-0.442l-1.104-2.097l-4.966-9.601
				C623.439,351.513,621.934,349.711,620.168,348.459 M656.474,292.398l11.478-58.049c-4.119,2.503-7.649,1.399-10.594-3.311
				l-11.697,61.138l-4.967,25.824l-3.2,16.553l-5.96,32.445c-1.618,5.003,0.405,8.938,6.069,11.808v0.222
				c0.223,0.587,0.405,1.177,0.552,1.766l9.161-42.378l4.082-19.974L656.474,292.398z"/>
			<path d="M276.849,310.938c-1.104-0.735-2.576-1.398-4.414-1.985c-4.047-1.325-8.755-2.061-14.125-2.207v7.394h-5.518v-7.394
				c-5.372,0.146-10.08,0.882-14.126,2.207c-4.708,1.543-7.062,3.421-7.062,5.628c0,2.28,2.354,4.192,7.062,5.737
				c4.708,1.546,10.337,2.317,16.885,2.317c6.547,0,12.176-0.771,16.884-2.317c1.838-0.661,3.311-1.398,4.414-2.207
				c1.692-0.955,2.538-2.132,2.538-3.53C279.387,313.255,278.541,312.041,276.849,310.938z"/>
			<path fill="#93C995" d="M175.432,293.942c-12.139,0.222-24.242,0.479-36.307,0.773v139.82c0,4.194,1.838,6.292,5.518,6.292
				h611.815c3.677,0,5.518-2.098,5.518-6.292v-139.82c-3.975-0.075-7.947-0.183-11.919-0.332c0.073,0.735,0.22,1.473,0.441,2.207
				c-0.222-0.734-0.368-1.472-0.441-2.207c-0.516,0-1.03,0-1.546,0c0.075,0.735,0.184,1.473,0.332,2.207
				c-0.148-0.734-0.257-1.472-0.332-2.207c-0.661-0.073-1.286-0.109-1.875-0.109c0.073,0.737,0.146,1.509,0.22,2.316
				c-0.073-0.808-0.146-1.579-0.22-2.316c-29.649-0.737-59.702-1.362-90.162-1.876l-5.076,26.044l-4.082,19.974l-9.161,42.378
				c0.149,0.661,0.332,1.36,0.552,2.097c0.442,1.25,0.369,2.832-0.22,4.744c-0.441,2.134-1.398,3.643-2.868,4.524
				c-0.664,0.518-1.362,0.664-2.098,0.441c-0.295-0.073-0.993-0.476-2.097-1.213c-1.914-0.957-3.57-2.723-4.967-5.298l-1.436-2.647
				l-10.703-21.851c-1.47-2.649-2.021-5.226-1.655-7.726c0.073-2.354,0.845-4.121,2.316-5.298c1.473-1.104,3.201-1.138,5.188-0.109
				c1.766,1.252,3.271,3.054,4.524,5.407l4.966,9.601l1.104,2.097l0.22,0.442l0.552,0.993l5.96-32.445l3.2-16.553l4.967-25.824
				c-123.011-1.985-252.127-1.912-387.351,0.222v14.347c5.37,0.146,10.079,0.882,14.125,2.207c1.838,0.587,3.311,1.25,4.414,1.985
				c1.692,1.104,2.538,2.317,2.538,3.643c0,1.398-0.846,2.575-2.538,3.53c-1.104,0.809-2.576,1.546-4.414,2.207
				c-4.708,1.546-10.337,2.317-16.884,2.317c-6.548,0-12.177-0.771-16.885-2.317c-4.708-1.545-7.062-3.457-7.062-5.737
				c0-2.207,2.354-4.085,7.062-5.628c4.046-1.325,8.755-2.061,14.126-2.207v-14.236c-24.5,0.368-49.183,0.809-74.05,1.323
				c0.073,0.957,0.258,1.878,0.552,2.759c-0.294-0.881-0.479-1.802-0.552-2.759c-0.515,0-1.03,0.037-1.544,0.11
				c0.147,0.884,0.294,1.768,0.441,2.648c-0.146-0.881-0.294-1.765-0.441-2.648C176.608,293.942,176.02,293.942,175.432,293.942
				c0.073,0.811,0.147,1.694,0.221,2.648C175.579,295.637,175.505,294.753,175.432,293.942 M577.349,365.122
				c0-3.53,1.177-6.548,3.53-9.049c2.576-2.5,5.557-3.752,8.941-3.752c3.457,0,6.475,1.252,9.048,3.752
				c2.427,2.501,3.643,5.519,3.643,9.049c0,3.457-1.216,6.364-3.643,8.719c-2.573,2.575-5.591,3.862-9.048,3.862
				c-3.385,0-6.365-1.287-8.941-3.862C578.525,371.486,577.349,368.579,577.349,365.122z"/>
			<path fill="#FFFFFF" d="M580.879,356.073c-2.354,2.501-3.53,5.519-3.53,9.049c0,3.457,1.177,6.364,3.53,8.719
				c2.576,2.575,5.557,3.862,8.941,3.862c3.457,0,6.475-1.287,9.048-3.862c2.427-2.354,3.643-5.262,3.643-8.719
				c0-3.53-1.216-6.548-3.643-9.049c-2.573-2.5-5.591-3.752-9.048-3.752C586.436,352.321,583.455,353.573,580.879,356.073
				 M258.31,145.735v-24.831v-0.663c-1.839-1.177-3.679-1.177-5.518,0v172.267v14.236v7.394h5.518v-7.394v-14.347V145.735z"/>
			<path fill="#FF0000" d="M314.591,139.445l-56.282-18.54v24.831L314.591,139.445z"/>
			<path fill="#333333" d="M691.235,46.855c5.371,1.178,10.743,2.354,16.114,3.531l5.296-26.375
				c-4.192-3.089-9.676-4.193-16.444-3.311L691.235,46.855z"/>
			<path fill="#BB803E" d="M703.597,65.947l3.753-15.56c-5.371-1.177-10.743-2.354-16.114-3.531l-33.878,184.184
				c2.944,4.71,6.475,5.813,10.594,3.311L703.597,65.947z"/>
			<path fill="#D9F3FF" d="M707.35,50.387l-3.753,15.56L667.951,234.35l-11.478,58.049c30.46,0.514,60.513,1.139,90.162,1.876
				c-0.516-4.194-1.619-7.652-3.311-10.374c1.691,2.722,2.795,6.18,3.311,10.374c0.589,0,1.214,0.036,1.875,0.109
				c-0.809-5.886-0.441-11.99,1.104-18.318c-1.545,6.328-1.912,12.433-1.104,18.318c0.516,0,1.03,0,1.546,0
				c-0.367-2.942,0.404-6.253,2.316-9.932c-1.912,3.679-2.684,6.989-2.316,9.932c3.972,0.149,7.944,0.257,11.919,0.332V14.852
				c0-4.12-1.841-6.18-5.518-6.18H144.643c-3.679,0-5.518,2.06-5.518,6.18v279.864c12.065-0.295,24.167-0.552,36.307-0.773
				c-0.588-4.046-1.766-7.394-3.532-10.042c1.766,2.648,2.943,5.996,3.532,10.042c0.588,0,1.177,0,1.766,0
				c-0.736-5.738-0.332-11.697,1.213-17.877c-1.545,6.18-1.949,12.139-1.213,17.877c0.514-0.073,1.029-0.11,1.544-0.11
				c-0.221-2.795,0.552-5.921,2.318-9.38c-1.767,3.459-2.539,6.585-2.318,9.38c24.867-0.515,49.55-0.955,74.05-1.323V120.242
				c1.838-1.177,3.678-1.177,5.518,0v0.663l56.282,18.54l-56.282,6.291v146.663c135.223-2.134,264.34-2.207,387.351-0.222
				l11.697-61.138l33.878-184.184l4.966-26.155c6.769-0.882,12.252,0.221,16.444,3.311L707.35,50.387z"/>
		</g>
	</g>
	<g>
		<path id="Layer0_0_1_STROKES" fill="none" stroke="#472E1F" stroke-width="2" stroke-linecap="round" stroke-linejoin="round" d="
			M707.35,50.387l-3.753,15.56L667.951,234.35 M691.235,46.855l-33.878,184.184c2.944,4.71,6.475,5.813,10.594,3.311"/>
	</g>
	<g>
		<path id="Layer0_0_2_STROKES" fill="none" stroke="#333333" stroke-width="2" stroke-linecap="round" stroke-linejoin="round" d="
			M667.951,234.35l-11.478,58.049 M657.357,231.039l-11.697,61.138 M602.511,365.122c0,3.457-1.216,6.364-3.643,8.719
			c-2.573,2.575-5.591,3.862-9.048,3.862c-3.385,0-6.365-1.287-8.941-3.862c-2.354-2.354-3.53-5.262-3.53-8.719
			c0-3.53,1.177-6.548,3.53-9.049c2.576-2.5,5.557-3.752,8.941-3.752c3.457,0,6.475,1.252,9.048,3.752
			C601.295,358.574,602.511,361.592,602.511,365.122z M645.66,292.177l-4.967,25.824l-3.2,16.553l-5.96,32.445
			c-1.618,5.003,0.405,8.938,6.069,11.808v0.222c0.223,0.587,0.405,1.177,0.552,1.766l9.161-42.378l4.082-19.974l5.076-26.044
			 M631.533,366.999l-0.552-0.993l-0.22-0.442l-1.104-2.097l-4.966-9.601c-1.253-2.354-2.759-4.155-4.524-5.407
			c-1.987-1.028-3.716-0.994-5.188,0.109c-1.472,1.177-2.243,2.944-2.316,5.298c-0.366,2.5,0.186,5.076,1.655,7.726l10.703,21.851
			l1.436,2.647c1.396,2.575,3.053,4.341,4.967,5.298c1.104,0.737,1.802,1.14,2.097,1.213c0.735,0.223,1.434,0.076,2.098-0.441
			c1.47-0.882,2.427-2.391,2.868-4.524c0.589-1.912,0.662-3.494,0.22-4.744c-0.22-0.736-0.402-1.436-0.552-2.097"/>
	</g>
	<g>
		<path id="Layer0_0_3_STROKES" fill="none" stroke="#000000" stroke-width="2" stroke-linecap="round" stroke-linejoin="round" d="
			M707.35,50.387c-5.371-1.177-10.743-2.354-16.114-3.531l4.966-26.155c6.769-0.882,12.252,0.221,16.444,3.311L707.35,50.387z"/>
	</g>
	<g>
		<path id="Layer0_0_4_STROKES" fill="none" stroke="#46CA2F" stroke-linecap="round" stroke-linejoin="round" d="M746.636,294.274
			c-0.516-4.194-1.619-7.652-3.311-10.374 M171.9,283.9c1.766,2.648,2.943,5.996,3.532,10.042c0.073,0.811,0.147,1.694,0.221,2.648
			 M178.411,276.065c-1.545,6.18-1.949,12.139-1.213,17.877c0.147,0.884,0.294,1.768,0.441,2.648 M179.294,296.591
			c-0.294-0.881-0.479-1.802-0.552-2.759c-0.221-2.795,0.552-5.921,2.318-9.38 M750.498,296.591
			c-0.222-0.734-0.368-1.472-0.441-2.207 M746.855,296.591c-0.073-0.808-0.146-1.579-0.22-2.316 M749.614,276.065
			c-1.545,6.328-1.912,12.433-1.104,18.318c0.075,0.735,0.184,1.473,0.332,2.207 M750.057,294.384
			c-0.367-2.942,0.404-6.253,2.316-9.932"/>
	</g>
	<g>
		
			<path id="Layer0_0_5_STROKES" fill="none" stroke="#999999" stroke-width="1.5" stroke-linecap="round" stroke-linejoin="round" d="
			M258.31,292.398V145.735 M258.31,120.905v-0.663c-1.839-1.177-3.679-1.177-5.518,0v172.267v14.236v7.394h5.518v-7.394v-14.347"/>
	</g>
	<g>
		
			<path id="Layer0_0_6_STROKES" fill="none" stroke="#8A0101" stroke-width="1.5" stroke-linecap="round" stroke-linejoin="round" d="
			M258.31,145.735v-24.831"/>
	</g>
	<g>
		<path id="Layer0_0_7_STROKES" fill="none" stroke="#8A0101" stroke-linecap="round" stroke-linejoin="round" d="M258.31,120.905
			l56.282,18.54l-56.282,6.291"/>
	</g>
	<g>
		<path id="Layer0_0_8_STROKES" fill="none" stroke="#77A878" stroke-width="2" stroke-linecap="round" stroke-linejoin="round" d="
			M258.31,306.745c5.37,0.146,10.079,0.882,14.125,2.207c1.838,0.587,3.311,1.25,4.414,1.985c1.692,1.104,2.538,2.317,2.538,3.643
			c0,1.398-0.846,2.575-2.538,3.53c-1.104,0.809-2.576,1.546-4.414,2.207c-4.708,1.546-10.337,2.317-16.884,2.317
			c-6.548,0-12.177-0.771-16.885-2.317c-4.708-1.545-7.062-3.457-7.062-5.737c0-2.207,2.354-4.085,7.062-5.628
			c4.046-1.325,8.755-2.061,14.126-2.207"/>
	</g>
</g>
</svg>
