<?xml version="1.0" encoding="utf-8"?>
<!-- Generator: Adobe Illustrator 16.0.0, SVG Export Plug-In . SVG Version: 6.00 Build 0)  -->
<!DOCTYPE svg PUBLIC "-//W3C//DTD SVG 1.1//EN" "http://www.w3.org/Graphics/SVG/1.1/DTD/svg11.dtd">
<svg version="1.1" id="Layer_1" xmlns="http://www.w3.org/2000/svg" xmlns:xlink="http://www.w3.org/1999/xlink" x="0px" y="0px"
	 width="285px" height="427px" viewBox="0 0 285 427" enable-background="new 0 0 285 427" xml:space="preserve">
<g transform="matrix( 1, 0, 0, 1, 0,0) ">
	<g>
		<g id="Layer0_0_FILL">
			<path fill="#EBC6AF" d="M121.075,333.229c-3.592,1.109-7.252,1.996-10.978,2.661c14.504-2.173,28.32-7.85,41.449-17.032
				C140.325,325.689,130.168,330.479,121.075,333.229 M69.513,326.908l-2.794,11.909c2.928-0.399,5.789-1.176,8.583-2.329
				c2.307,1.419,4.923,2.151,7.851,2.196c0.089,0,0.155,0,0.199,0l0.466-27.013L69.513,326.908 M57.538,336.688
				c-1.064,0.71-2.129,1.264-3.193,1.663c4.302,0.798,8.428,0.953,12.375,0.466l2.794-11.909
				C65.699,332.364,61.707,335.623,57.538,336.688 M77.165,296.037c-0.931,1.643-2.373,3.128-4.325,4.458
				c3.238,7.097,6.055,9.869,8.45,8.316c-2.395,1.553-5.211-1.22-8.45-8.316c-1.464,0.932-3.193,1.774-5.189,2.527l-22.487,8.316
				c-3.105,0.754-5.944,1.043-8.516,0.866c-5.678,7.052-6.432,13.262-2.263,18.628c5.677,8.206,12.331,10.712,19.959,7.519
				c1.064-0.399,2.129-0.953,3.193-1.663c4.169-1.065,8.161-4.324,11.976-9.78l14.304-15.236c0.621-2.129,0.998-4.036,1.131-5.722
				C85.348,300.097,82.753,296.791,77.165,296.037 M75.168,266.831c-0.088,0-0.155,0-0.2,0c-0.089,0.044-0.199,0.088-0.333,0.133
				c-0.354,0.088-0.709,0.199-1.064,0.332c-3.194,2.617-6.698,4.701-10.513,6.254c-2.262,0.844-4.612,1.509-7.052,1.996
				l-26.546,2.329c-8.294,4.968-11.399,12.486-9.314,22.554c1.818,6.032,5.988,9.647,12.508,10.845
				c1.242,0.442,2.572,0.755,3.992,0.932c2.572,0.177,5.411-0.112,8.516-0.866l22.487-8.316c1.996-0.753,3.726-1.596,5.189-2.527
				c1.952-1.33,3.394-2.815,4.325-4.458c3.814-2.573,6.586-5.699,8.316-9.381c1.685-3.637,2.373-7.783,2.063-12.44
				c-0.222-0.487-0.421-0.954-0.599-1.397c-0.044-0.088-0.089-0.155-0.133-0.2c-0.044-0.088-0.066-0.155-0.066-0.199
				c-1.131-1.441-2.262-2.883-3.394-4.325c-0.62-0.443-1.264-0.798-1.929-1.064c-0.91-0.198-1.819-0.398-2.729-0.599
				c-0.044,0-0.088,0-0.132,0c-0.798-0.044-1.597,0.023-2.396,0.2c-0.222,0-0.399,0.022-0.532,0.066
				C75.457,266.742,75.302,266.787,75.168,266.831 M77.963,271.288c3.016,4.347,4.591,8.87,4.724,13.572
				C82.554,280.158,80.979,275.635,77.963,271.288 M73.572,240.15c-3.061,1.864-7.274,2.861-12.641,2.994l-22.688,1.996
				c-7.429-1.019-14.858-2.04-22.288-3.061h-0.066l-0.665-0.132c-7.896,7.85-10.956,14.591-9.181,20.226
				c1.596,10.245,6.896,15.701,15.9,16.366l7.518-0.665l26.546-2.329c2.44-0.487,4.791-1.152,7.052-1.996
				c3.814-1.553,7.318-3.637,10.513-6.254c1.596-0.709,2.949-1.686,4.058-2.928c-1.774,0.09-3.149-0.775-4.125-2.595
				c-0.931-1.596-1.375-3.68-1.331-6.253c0.133-6.076,2.151-10.113,6.055-12.109C76.987,241.858,75.435,240.771,73.572,240.15
				 M81.423,254.455c-0.178-4.878-1.243-8.561-3.193-11.044c-3.904,1.996-5.922,6.033-6.055,12.109
				c-0.044,2.573,0.4,4.657,1.331,6.253c0.976,1.819,2.351,2.685,4.125,2.595C79.715,262.018,80.979,258.713,81.423,254.455
				 M76.233,238.022c0.843-0.976,1.397-2.284,1.663-3.926c0.576-3.637,0.532-6.587-0.133-8.848
				c-4.613,0.044-7.918,0.577-9.914,1.596c-2.084,1.109-3.26,2.973-3.526,5.589c-0.133,2.751,0.842,4.945,2.927,6.587
				c1.996,1.597,4.169,1.93,6.52,0.998c0.088-0.045,0.2-0.112,0.333-0.2C75.08,239.197,75.79,238.6,76.233,238.022 M155.938,215.335
				c2.174,0.666,4.835,1.197,7.983,1.598c1.021,0.133,2.04,0.221,3.062,0.265c-3.727-0.309-7.431-0.953-11.111-1.928
				L155.938,215.335 M155.805,215.335c0.044,0,0.088,0,0.133,0l-0.066-0.065L155.805,215.335 M72.441,190.652
				c-0.222,0.355-0.444,0.732-0.666,1.131c-3.127,2.417-6.254,4.834-9.381,7.252c-0.222,0.088-0.443,0.177-0.666,0.266
				c-0.132,0-0.266,0.022-0.399,0.067c-0.089,0-0.177,0.022-0.267,0.066c-0.132,0.044-0.266,0.088-0.399,0.133
				c-0.177,0.044-0.333,0.088-0.466,0.133c-0.133,0-0.266,0.022-0.399,0.066c-0.311,0.044-0.643,0.111-0.998,0.2
				c-0.222,0-0.421,0.022-0.599,0.067c-0.178,0.044-0.333,0.066-0.466,0.066L27.2,202.827c-17.121,3.637-25.548,11.244-25.282,22.82
				c-1.198,8.25,1.552,13.439,8.249,15.569l5.057,0.731l0.665,0.132h0.066c7.43,1.021,14.859,2.042,22.288,3.061l22.688-1.996
				c5.367-0.133,9.58-1.13,12.641-2.994c0.088-0.044,0.155-0.088,0.199-0.132c-2.351,0.932-4.524,0.599-6.52-0.998
				c-2.085-1.642-3.061-3.836-2.927-6.587c0.266-2.616,1.441-4.479,3.526-5.589c1.996-1.019,5.3-1.552,9.914-1.596
				c-0.133-0.444-0.267-0.844-0.4-1.198c-1.197-2.75-3.614-4.635-7.251-5.655c-0.133-0.044-0.244-0.088-0.333-0.133
				c-2.351-0.665-4.791-1.153-7.318-1.464c-2.263-0.311-4.613-0.466-7.053-0.466c-3.504,0.045-6.365,0.089-8.583,0.133
				c-1.197,0-2.218,0-3.061,0c-6.165-4.746-14.016-7.429-23.552-8.05c9.536,0.621,17.387,3.304,23.552,8.05c0.843,0,1.863,0,3.061,0
				c-0.311-3.548-1.774-7.385-4.391-11.51c2.617,4.125,4.081,7.962,4.391,11.51c2.218-0.044,5.079-0.088,8.583-0.133
				c2.439,0,4.79,0.155,7.053,0.466c0.088-5.367-1.664-9.758-5.256-13.173c3.593,3.416,5.345,7.806,5.256,13.173
				c2.528,0.311,4.967,0.799,7.318,1.464c0.088,0.045,0.199,0.089,0.333,0.133C68.648,208.504,69.425,199.257,72.441,190.652
				 M45.429,225.049c1.065,5.899-0.11,11.244-3.526,16.033C45.318,236.293,46.494,230.948,45.429,225.049 M86.279,87.928
				c-4.036,0.355-7.474,1.996-10.313,4.923c-0.177,0.177-0.354,0.399-0.532,0.665c-6.387,7.097-10.557,14.903-12.507,23.419
				c-1.42,10.068-0.555,19.959,2.594,29.672c6.919,15.258,9.891,28.254,8.916,38.988c0,0.088-0.022,0.177-0.067,0.266
				c-0.465,1.22-0.931,2.44-1.397,3.659c-0.177,0.4-0.355,0.777-0.532,1.131c-3.016,8.605-3.792,17.853-2.329,27.744
				c3.637,1.021,6.054,2.905,7.251,5.655c0.133,0.354,0.267,0.754,0.4,1.198c0.665,2.261,0.709,5.211,0.133,8.848
				c-0.266,1.642-0.82,2.95-1.663,3.926c-0.444,0.577-1.153,1.175-2.129,1.796c-0.133,0.088-0.244,0.155-0.333,0.2
				c-0.044,0.044-0.111,0.088-0.199,0.132c1.862,0.621,3.415,1.708,4.657,3.261c1.951,2.483,3.016,6.166,3.193,11.044
				c-0.444,4.258-1.708,7.563-3.792,9.913c-1.109,1.242-2.462,2.219-4.058,2.928c0.354-0.133,0.709-0.244,1.064-0.332
				c0.133-0.045,0.244-0.089,0.333-0.133c0.044,0,0.111,0,0.2,0c0.133-0.044,0.289-0.089,0.466-0.134
				c0.133-0.044,0.311-0.066,0.532-0.066c0.798-0.177,1.597-0.244,2.396-0.2c0.044,0,0.088,0,0.132,0
				c0.91,0.2,1.819,0.4,2.729,0.599c0.665,0.267,1.309,0.621,1.929,1.064c1.131,1.442,2.262,2.884,3.394,4.325
				c0,0.044,0.022,0.111,0.066,0.199c0.044,0.045,0.089,0.112,0.133,0.2c6.476,11.311,9.98,24.063,10.512,38.256
				c-0.532-14.193-4.036-26.945-10.512-38.256c0.178,0.443,0.377,0.91,0.599,1.397c0.31,4.657-0.377,8.804-2.063,12.44
				c-1.73,3.682-4.502,6.808-8.316,9.381c5.589,0.754,8.183,4.06,7.784,9.913c-0.133,1.686-0.51,3.593-1.131,5.722l-0.466,27.013
				c2.661-0.09,5.101-0.732,7.318-1.93c5.212-0.134,10.424-0.267,15.635-0.398c1.287-0.134,2.551-0.289,3.792-0.467
				c3.726-0.665,7.386-1.552,10.978-2.661c9.093-2.75,19.25-7.539,30.471-14.371c7.762-2.04,15.524-4.08,23.286-6.12
				c4.082-0.888,20.715-2.617,49.898-5.189c29.052-2.529,47.592-3.904,55.62-4.125c2.352-16.988,3.326-32.401,2.928-46.239
				c-0.487-17.742-3.127-34.752-7.918-51.03l-99.597,11.178c-2.928-0.045-5.855-0.09-8.781-0.134
				c-1.021-0.044-2.04-0.132-3.062-0.265c-3.148-0.4-5.81-0.932-7.983-1.598c9.402,25.726,3.638,42.314-17.298,49.765
				c-2.44,0.888-5.079,1.598-7.917,2.13c2.838-0.532,5.478-1.242,7.917-2.13c20.936-7.45,26.7-24.039,17.298-49.765
				c-0.045,0-0.089,0-0.133,0c-3.061,1.951-12.641-7.939-28.742-29.673c-2.927-7.186-7.807-14.215-14.637-21.091
				c-5.898-10.777-10.312-19.915-13.239-27.41c-1.286,0.709-2.439,1.13-3.459,1.264c-0.976,0.089-2.396-0.066-4.258-0.466
				c1.863,0.399,3.282,0.555,4.258,0.466c1.02-0.133,2.173-0.554,3.459-1.264c-0.045-0.089-0.067-0.155-0.067-0.2
				c-0.843-2.128-1.53-4.102-2.062-5.921l-4.857,1.597l4.857-1.597c-0.532-1.597-0.954-3.105-1.265-4.524
				c-0.177-0.754-0.311-1.486-0.399-2.196c-0.044-0.133-0.067-0.244-0.067-0.333c-0.044-0.177-0.066-0.333-0.066-0.465
				c-0.044-0.045-0.066-0.089-0.066-0.133l-5.057,5.389l5.057-5.389c-0.133-0.976-0.222-1.885-0.267-2.729c0-0.088,0-0.154,0-0.199
				c-0.133-8.428,0.066-14.416,0.599-17.963c0.532-3.637,0.666-5.988,0.399-7.052c-0.444-1.685-1.064-3.083-1.863-4.191
				C92.378,88.726,89.783,87.617,86.279,87.928 M67.251,136.296c3.903,2.839,9.78,3.394,17.631,1.663
				C77.031,139.689,71.154,139.135,67.251,136.296 M77.031,168.497c3.637,1.508,9.736,2.44,18.296,2.794
				C86.767,170.937,80.668,170.005,77.031,168.497 M79.959,188.058c12.685,3.104,25.459,3.237,38.322,0.399
				C105.418,191.295,92.644,191.162,79.959,188.058 M77.764,216.399c11.266,28.697,25.037,46.46,41.315,53.292
				C102.801,262.859,89.029,245.097,77.764,216.399 M95.128,268.027c11.931,11.844,21.623,24.262,29.074,37.258
				C116.75,292.289,107.059,279.871,95.128,268.027 M108.234,268.894c11.798,6.21,22.621,13.593,32.467,22.153
				C130.855,282.486,120.033,275.104,108.234,268.894 M167.115,221.057c11.442,29.186,10.733,58.481-2.129,87.888
				C177.849,279.538,178.558,250.242,167.115,221.057z"/>
		</g>
	</g>
	<g>
		<path id="Layer0_0_1_STROKES" fill="none" stroke="#DBB09B" stroke-linecap="round" stroke-linejoin="round" d="M72.441,190.652
			c0.177-0.354,0.355-0.731,0.532-1.131 M92.201,132.637l4.857-1.597 M91.469,137.959c1.863,0.399,3.282,0.555,4.258,0.466
			c1.02-0.133,2.173-0.554,3.459-1.264 M67.251,136.296c3.903,2.839,9.78,3.394,17.631,1.663 M77.031,168.497
			c3.637,1.508,9.736,2.44,18.296,2.794 M79.959,188.058c12.685,3.104,25.459,3.237,38.322,0.399 M90.138,128.778l5.057-5.389
			 M155.871,215.27l0.066,0.065 M86.944,272.818c6.476,11.311,9.98,24.063,10.512,38.256 M155.938,215.335
			c9.402,25.726,3.638,42.314-17.298,49.765c-2.44,0.888-5.079,1.598-7.917,2.13 M77.764,216.399
			c11.266,28.697,25.037,46.46,41.315,53.292 M95.128,268.027c11.931,11.844,21.623,24.262,29.074,37.258 M108.234,268.894
			c11.798,6.21,22.621,13.593,32.467,22.153 M46.826,216.466c-0.311-3.548-1.774-7.385-4.391-11.51 M45.429,225.049
			c1.065,5.899-0.11,11.244-3.526,16.033 M69.513,326.908l-2.794,11.909 M83.817,311.672l-0.466,27.013 M57.205,203.625
			c3.593,3.416,5.345,7.806,5.256,13.173 M167.115,221.057c11.442,29.186,10.733,58.481-2.129,87.888 M72.441,190.652
			c-3.016,8.605-3.792,17.853-2.329,27.744"/>
	</g>
	<g>
		<path id="Layer0_0_2_STROKES" fill="none" stroke="#000000" stroke-width="2" stroke-linecap="round" stroke-linejoin="round" d="
			M72.973,189.521c0.466-1.219,0.932-2.439,1.397-3.659c0.044-0.088,0.067-0.177,0.067-0.266
			c0.976-10.734-1.996-23.729-8.916-38.988c-3.149-9.713-4.014-19.604-2.594-29.672c1.951-8.516,6.12-16.322,12.507-23.419
			c0.178-0.266,0.355-0.488,0.532-0.665c2.839-2.927,6.276-4.568,10.313-4.923c3.504-0.311,6.099,0.798,7.784,3.327
			c0.799,1.108,1.419,2.506,1.863,4.191c0.267,1.064,0.133,3.415-0.399,7.052c-0.533,3.548-0.732,9.536-0.599,17.963
			c0,0.045,0,0.111,0,0.199c0.044,0.844,0.133,1.752,0.267,2.729c0,0.044,0.022,0.088,0.066,0.133c0,0.132,0.022,0.288,0.066,0.465
			c0,0.089,0.023,0.2,0.067,0.333c0.088,0.71,0.222,1.441,0.399,2.196c0.311,1.419,0.732,2.927,1.265,4.524
			c0.532,1.819,1.219,3.792,2.062,5.921c0,0.045,0.022,0.111,0.067,0.2c2.927,7.496,7.341,16.633,13.239,27.41
			c6.831,6.875,11.71,13.905,14.637,21.091c0.842,0.932,5.611,6.72,14.304,17.365c4.346,5.322,8.161,9.026,11.443,11.11
			c0.887,0.442,1.884,0.843,2.994,1.197 M166.982,217.197c2.926,0.044,5.854,0.089,8.781,0.134l99.597-11.178 M280.351,303.423
			c-8.028,0.221-26.568,1.596-55.62,4.125c-29.184,2.572-45.816,4.302-49.898,5.189c-7.762,2.04-15.524,4.08-23.286,6.12
			 M110.097,335.89c-1.241,0.178-2.506,0.333-3.792,0.467c-5.211,0.132-10.422,0.265-15.635,0.398
			c-2.217,1.197-4.657,1.84-7.318,1.93c-0.044,0-0.11,0-0.199,0c-2.927-0.045-5.544-0.777-7.851-2.196
			c-2.794,1.153-5.655,1.93-8.583,2.329c-3.947,0.487-8.072,0.332-12.375-0.466c-7.629,3.193-14.282,0.688-19.959-7.519
			c-4.169-5.366-3.416-11.576,2.263-18.628c-1.42-0.177-2.75-0.489-3.992-0.932c-6.521-1.197-10.69-4.813-12.508-10.845
			c-2.084-10.067,1.021-17.586,9.314-22.554l-7.518,0.665c-9.004-0.665-14.304-6.121-15.9-16.366
			c-1.774-5.635,1.286-12.376,9.181-20.226l-5.057-0.731c-6.697-2.13-9.447-7.319-8.249-15.569
			c-0.267-11.576,8.161-19.183,25.282-22.82l30.538-2.728c0.133,0,0.288-0.022,0.466-0.066c0.177-0.045,0.376-0.067,0.599-0.067
			c0.355-0.088,0.688-0.155,0.998-0.2c0.133-0.044,0.266-0.066,0.399-0.066c0.133-0.045,0.289-0.089,0.466-0.133
			c0.133-0.045,0.267-0.089,0.399-0.133c0.089-0.044,0.178-0.066,0.267-0.066c0.133-0.044,0.267-0.067,0.399-0.067
			c0.222-0.088,0.444-0.177,0.666-0.266c3.127-2.417,6.254-4.835,9.381-7.252c0.222-0.399,0.443-0.776,0.666-1.131 M155.805,215.335
			c0.044,0,0.088,0,0.133,0c2.174,0.666,4.835,1.197,7.983,1.598c1.021,0.133,2.04,0.221,3.062,0.265 M77.764,225.249
			c-0.133-0.444-0.267-0.844-0.4-1.198c-1.197-2.75-3.614-4.635-7.251-5.655c-0.133-0.044-0.244-0.088-0.333-0.133
			c-2.351-0.665-4.791-1.153-7.318-1.464c-2.263-0.311-4.613-0.466-7.053-0.466c-3.504,0.045-6.365,0.089-8.583,0.133
			c-1.197,0-2.218,0-3.061,0c-6.165-4.746-14.016-7.429-23.552-8.05 M74.104,239.818c0.976-0.621,1.686-1.219,2.129-1.796
			c0.843-0.976,1.397-2.284,1.663-3.926c0.576-3.637,0.532-6.587-0.133-8.848 M15.224,241.948l0.665,0.132h0.066
			c7.43,1.021,14.859,2.042,22.288,3.061l22.688-1.996c5.367-0.133,9.58-1.13,12.641-2.994c0.088-0.044,0.155-0.088,0.199-0.132
			 M77.63,264.368c2.085-2.351,3.349-5.655,3.792-9.913c-0.178-4.878-1.243-8.561-3.193-11.044 M77.63,264.368
			c-1.109,1.242-2.462,2.219-4.058,2.928c0.354-0.133,0.709-0.244,1.064-0.332c0.133-0.045,0.244-0.089,0.333-0.133
			c0.044,0,0.111,0,0.2,0c0.133-0.044,0.289-0.089,0.466-0.134c0.133-0.044,0.311-0.066,0.532-0.066
			c0.798-0.177,1.597-0.244,2.396-0.2c0.044,0,0.088,0,0.132,0c0.91,0.2,1.819,0.4,2.729,0.599c0.665,0.267,1.309,0.621,1.929,1.064
			c1.131,1.442,2.262,2.884,3.394,4.325c0,0.044,0.022,0.111,0.066,0.199c0.044,0.045,0.089,0.112,0.133,0.2 M78.229,243.411
			c-1.243-1.553-2.795-2.64-4.657-3.261 M36.647,312.205c2.572,0.177,5.411-0.112,8.516-0.866l22.487-8.316
			c1.996-0.753,3.726-1.596,5.189-2.527c1.952-1.33,3.394-2.815,4.325-4.458c3.814-2.573,6.586-5.699,8.316-9.381
			c1.685-3.637,2.373-7.783,2.063-12.44c-0.222-0.487-0.421-0.954-0.599-1.397 M29.461,277.875l26.546-2.329
			c2.44-0.487,4.791-1.152,7.052-1.996c3.814-1.553,7.318-3.637,10.513-6.254 M54.344,338.352c1.064-0.399,2.129-0.953,3.193-1.663
			c4.169-1.065,8.161-4.324,11.976-9.78l14.304-15.236c0.621-2.129,0.998-4.036,1.131-5.722c0.399-5.854-2.195-9.159-7.784-9.913
			 M110.097,335.89c3.726-0.665,7.386-1.552,10.978-2.661c9.093-2.75,19.25-7.539,30.471-14.371"/>
	</g>
	<g>
		<path id="Layer0_0_3_STROKES" fill="none" stroke="#000000" stroke-linecap="round" stroke-linejoin="round" d="M77.764,225.249
			c-4.613,0.044-7.918,0.577-9.914,1.596c-2.084,1.109-3.26,2.973-3.526,5.589c-0.133,2.751,0.842,4.945,2.927,6.587
			c1.996,1.597,4.169,1.93,6.52,0.998c0.088-0.045,0.2-0.112,0.333-0.2 M78.229,243.411c-3.904,1.996-5.922,6.033-6.055,12.109
			c-0.044,2.573,0.4,4.657,1.331,6.253c0.976,1.819,2.351,2.685,4.125,2.595 M77.963,271.288c3.016,4.347,4.591,8.87,4.724,13.572
			 M72.84,300.495c3.238,7.097,6.055,9.869,8.45,8.316"/>
	</g>
</g>
</svg>
