<svg xmlns="http://www.w3.org/2000/svg" width="285" height="427" viewBox="0 0 285 427"><path fill="#EBC6AF" d="M121.075 333.229a91.935 91.935 0 0 1-10.978 2.661c14.504-2.173 28.32-7.85 41.449-17.032-11.221 6.831-21.378 11.621-30.471 14.371m-51.562-6.321l-2.794 11.909a34.705 34.705 0 0 0 8.583-2.329c2.307 1.419 4.923 2.151 7.851 2.196h.199l.466-27.013-14.305 15.237m-11.975 9.78a15.7 15.7 0 0 1-3.193 1.663c4.302.798 8.428.953 12.375.466l2.794-11.909c-3.815 5.456-7.807 8.715-11.976 9.78m19.627-40.651c-.931 1.643-2.373 3.128-4.325 4.458 3.238 7.097 6.055 9.869 8.45 8.316-2.395 1.553-5.211-1.22-8.45-8.316-1.464.932-3.193 1.774-5.189 2.527l-22.487 8.316c-3.105.754-5.944 1.043-8.516.866-5.678 7.052-6.432 13.262-2.263 18.628 5.677 8.206 12.331 10.712 19.959 7.519a15.7 15.7 0 0 0 3.193-1.663c4.169-1.065 8.161-4.324 11.976-9.78l14.304-15.236c.621-2.129.998-4.036 1.131-5.722.4-5.853-2.195-9.159-7.783-9.913m-1.997-29.206h-.2a2.701 2.701 0 0 1-.333.133 9.714 9.714 0 0 0-1.064.332 40.72 40.72 0 0 1-10.513 6.254 45.749 45.749 0 0 1-7.052 1.996l-26.546 2.329c-8.294 4.968-11.399 12.486-9.314 22.554 1.818 6.032 5.988 9.647 12.508 10.845 1.242.442 2.572.755 3.992.932 2.572.177 5.411-.112 8.516-.866l22.487-8.316c1.996-.753 3.726-1.596 5.189-2.527 1.952-1.33 3.394-2.815 4.325-4.458 3.814-2.573 6.586-5.699 8.316-9.381 1.685-3.637 2.373-7.783 2.063-12.44a33.317 33.317 0 0 1-.599-1.397.802.802 0 0 0-.133-.2.51.51 0 0 1-.066-.199l-3.394-4.325a9.185 9.185 0 0 0-1.929-1.064c-.91-.198-1.819-.398-2.729-.599h-.132a8.794 8.794 0 0 0-2.396.2 1.74 1.74 0 0 0-.532.066c-.175.042-.33.087-.464.131m2.795 4.457c3.016 4.347 4.591 8.87 4.724 13.572-.133-4.702-1.708-9.225-4.724-13.572m-4.391-31.138c-3.061 1.864-7.274 2.861-12.641 2.994l-22.688 1.996c-7.429-1.019-14.858-2.04-22.288-3.061h-.066l-.665-.132c-7.896 7.85-10.956 14.591-9.181 20.226 1.596 10.245 6.896 15.701 15.9 16.366l7.518-.665 26.546-2.329a45.717 45.717 0 0 0 7.052-1.996 40.753 40.753 0 0 0 10.513-6.254c1.596-.709 2.949-1.686 4.058-2.928-1.774.09-3.149-.775-4.125-2.595-.931-1.596-1.375-3.68-1.331-6.253.133-6.076 2.151-10.113 6.055-12.109-1.242-1.552-2.794-2.639-4.657-3.26m7.851 14.305c-.178-4.878-1.243-8.561-3.193-11.044-3.904 1.996-5.922 6.033-6.055 12.109-.044 2.573.4 4.657 1.331 6.253.976 1.819 2.351 2.685 4.125 2.595 2.084-2.35 3.348-5.655 3.792-9.913m-5.19-16.433c.843-.976 1.397-2.284 1.663-3.926.576-3.637.532-6.587-.133-8.848-4.613.044-7.918.577-9.914 1.596-2.084 1.109-3.26 2.973-3.526 5.589-.133 2.751.842 4.945 2.927 6.587 1.996 1.597 4.169 1.93 6.52.998.088-.045.2-.112.333-.2.977-.621 1.687-1.218 2.13-1.796m79.705-22.687c2.174.666 4.835 1.197 7.983 1.598 1.021.133 2.04.221 3.062.265a63.942 63.942 0 0 1-11.111-1.928l.066.065m-.133 0h.133l-.066-.065-.067.065m-83.364-24.683c-.222.355-.444.732-.666 1.131a59235.61 59235.61 0 0 0-9.381 7.252l-.666.266c-.132 0-.266.022-.399.067a.601.601 0 0 0-.267.066l-.399.133a5.981 5.981 0 0 0-.466.133c-.133 0-.266.022-.399.066a9.726 9.726 0 0 0-.998.2c-.222 0-.421.022-.599.067a1.976 1.976 0 0 1-.466.066L27.2 202.827c-17.121 3.637-25.548 11.244-25.282 22.82-1.198 8.25 1.552 13.439 8.249 15.569l5.057.731.665.132h.066c7.43 1.021 14.859 2.042 22.288 3.061l22.688-1.996c5.367-.133 9.58-1.13 12.641-2.994a.776.776 0 0 0 .199-.132c-2.351.932-4.524.599-6.52-.998-2.085-1.642-3.061-3.836-2.927-6.587.266-2.616 1.441-4.479 3.526-5.589 1.996-1.019 5.3-1.552 9.914-1.596a18.613 18.613 0 0 0-.4-1.198c-1.197-2.75-3.614-4.635-7.251-5.655a2.47 2.47 0 0 1-.333-.133 48.712 48.712 0 0 0-7.318-1.464 51.768 51.768 0 0 0-7.053-.466c-3.504.045-6.365.089-8.583.133h-3.061c-6.165-4.746-14.016-7.429-23.552-8.05 9.536.621 17.387 3.304 23.552 8.05h3.061c-.311-3.548-1.774-7.385-4.391-11.51 2.617 4.125 4.081 7.962 4.391 11.51 2.218-.044 5.079-.088 8.583-.133 2.439 0 4.79.155 7.053.466.088-5.367-1.664-9.758-5.256-13.173 3.593 3.416 5.345 7.806 5.256 13.173 2.528.311 4.967.799 7.318 1.464.088.045.199.089.333.133-1.465-9.891-.688-19.138 2.328-27.743m-27.012 34.397c1.065 5.899-.11 11.244-3.526 16.033 3.415-4.789 4.591-10.134 3.526-16.033m40.85-137.121c-4.036.355-7.474 1.996-10.313 4.923a4.404 4.404 0 0 0-.532.665c-6.387 7.097-10.557 14.903-12.507 23.419-1.42 10.068-.555 19.959 2.594 29.672 6.919 15.258 9.891 28.254 8.916 38.988a.586.586 0 0 1-.067.266l-1.397 3.659c-.177.4-.355.777-.532 1.131-3.016 8.605-3.792 17.853-2.329 27.744 3.637 1.021 6.054 2.905 7.251 5.655.133.354.267.754.4 1.198.665 2.261.709 5.211.133 8.848-.266 1.642-.82 2.95-1.663 3.926-.444.577-1.153 1.175-2.129 1.796a3.495 3.495 0 0 1-.333.2.776.776 0 0 1-.199.132c1.862.621 3.415 1.708 4.657 3.261 1.951 2.483 3.016 6.166 3.193 11.044-.444 4.258-1.708 7.563-3.792 9.913-1.109 1.242-2.462 2.219-4.058 2.928a9.581 9.581 0 0 1 1.064-.332c.133-.045.244-.089.333-.133h.2a6.97 6.97 0 0 1 .466-.134c.133-.044.311-.066.532-.066a8.787 8.787 0 0 1 2.396-.2h.132l2.729.599a9.23 9.23 0 0 1 1.929 1.064l3.394 4.325a.51.51 0 0 0 .066.199.802.802 0 0 1 .133.2c6.476 11.311 9.98 24.063 10.512 38.256-.532-14.193-4.036-26.945-10.512-38.256.178.443.377.91.599 1.397.31 4.657-.377 8.804-2.063 12.44-1.73 3.682-4.502 6.808-8.316 9.381 5.589.754 8.183 4.06 7.784 9.913-.133 1.686-.51 3.593-1.131 5.722l-.466 27.013c2.661-.09 5.101-.732 7.318-1.93 5.212-.134 10.424-.267 15.635-.398a98.715 98.715 0 0 0 3.792-.467 91.935 91.935 0 0 0 10.978-2.661c9.093-2.75 19.25-7.539 30.471-14.371l23.286-6.12c4.082-.888 20.715-2.617 49.898-5.189 29.052-2.529 47.592-3.904 55.62-4.125 2.352-16.988 3.326-32.401 2.928-46.239-.487-17.742-3.127-34.752-7.918-51.03l-99.597 11.178-8.781-.134a35.562 35.562 0 0 1-3.062-.265c-3.148-.4-5.81-.932-7.983-1.598 9.402 25.726 3.638 42.314-17.298 49.765-2.44.888-5.079 1.598-7.917 2.13 2.838-.532 5.478-1.242 7.917-2.13 20.936-7.45 26.7-24.039 17.298-49.765h-.133c-3.061 1.951-12.641-7.939-28.742-29.673-2.927-7.186-7.807-14.215-14.637-21.091-5.898-10.777-10.312-19.915-13.239-27.41-1.286.709-2.439 1.13-3.459 1.264-.976.089-2.396-.066-4.258-.466 1.863.399 3.282.555 4.258.466 1.02-.133 2.173-.554 3.459-1.264a.502.502 0 0 1-.067-.2c-.843-2.128-1.53-4.102-2.062-5.921l-4.857 1.597 4.857-1.597a44.576 44.576 0 0 1-1.265-4.524 20.841 20.841 0 0 1-.399-2.196 1.108 1.108 0 0 1-.067-.333 1.969 1.969 0 0 1-.066-.465c-.044-.045-.066-.089-.066-.133l-5.057 5.389 5.057-5.389a33.503 33.503 0 0 1-.267-2.729v-.199c-.133-8.428.066-14.416.599-17.963.532-3.637.666-5.988.399-7.052-.444-1.685-1.064-3.083-1.863-4.191-1.685-2.529-4.28-3.638-7.784-3.327m-19.028 48.368c3.903 2.839 9.78 3.394 17.631 1.663-7.851 1.73-13.728 1.176-17.631-1.663m9.78 32.201c3.637 1.508 9.736 2.44 18.296 2.794-8.56-.354-14.659-1.286-18.296-2.794m2.928 19.561c12.685 3.104 25.459 3.237 38.322.399-12.863 2.838-25.637 2.705-38.322-.399m-2.195 28.341c11.266 28.697 25.037 46.46 41.315 53.292-16.278-6.832-30.05-24.594-41.315-53.292m17.364 51.628c11.931 11.844 21.623 24.262 29.074 37.258-7.452-12.996-17.143-25.414-29.074-37.258m13.106.867c11.798 6.21 22.621 13.593 32.467 22.153-9.846-8.561-20.668-15.943-32.467-22.153m58.881-47.837c11.442 29.186 10.733 58.481-2.129 87.888 12.863-29.407 13.572-58.703 2.129-87.888z"/><path fill="none" stroke="#DBB09B" stroke-linecap="round" stroke-linejoin="round" d="M72.441 190.652c.177-.354.355-.731.532-1.131m19.228-56.884l4.857-1.597m-5.589 6.919c1.863.399 3.282.555 4.258.466 1.02-.133 2.173-.554 3.459-1.264m-31.935-.865c3.903 2.839 9.78 3.394 17.631 1.663m-7.851 30.538c3.637 1.508 9.736 2.44 18.296 2.794m-15.368 16.767c12.685 3.104 25.459 3.237 38.322.399m-28.143-59.679l5.057-5.389m60.676 91.881l.066.065m-68.993 57.483c6.476 11.311 9.98 24.063 10.512 38.256m58.482-95.739c9.402 25.726 3.638 42.314-17.298 49.765-2.44.888-5.079 1.598-7.917 2.13m-52.959-50.831c11.266 28.697 25.037 46.46 41.315 53.292m-23.951-1.664c11.931 11.844 21.623 24.262 29.074 37.258m-15.968-36.391c11.798 6.21 22.621 13.593 32.467 22.153m-93.875-74.581c-.311-3.548-1.774-7.385-4.391-11.51m2.994 20.093c1.065 5.899-.11 11.244-3.526 16.033m27.61 85.826l-2.794 11.909m17.098-27.145l-.466 27.013m-26.146-135.06c3.593 3.416 5.345 7.806 5.256 13.173m104.654 4.259c11.442 29.186 10.733 58.481-2.129 87.888M72.441 190.652c-3.016 8.605-3.792 17.853-2.329 27.744"/><path fill="none" stroke="#000" stroke-width="2" stroke-linecap="round" stroke-linejoin="round" d="M72.973 189.521l1.397-3.659a.592.592 0 0 0 .067-.266c.976-10.734-1.996-23.729-8.916-38.988-3.149-9.713-4.014-19.604-2.594-29.672 1.951-8.516 6.12-16.322 12.507-23.419.178-.266.355-.488.532-.665 2.839-2.927 6.276-4.568 10.313-4.923 3.504-.311 6.099.798 7.784 3.327.799 1.108 1.419 2.506 1.863 4.191.267 1.064.133 3.415-.399 7.052-.533 3.548-.732 9.536-.599 17.963v.199c.044.844.133 1.752.267 2.729 0 .044.022.088.066.133 0 .132.022.288.066.465 0 .089.023.2.067.333.088.71.222 1.441.399 2.196a44.318 44.318 0 0 0 1.265 4.524c.532 1.819 1.219 3.792 2.062 5.921 0 .045.022.111.067.2 2.927 7.496 7.341 16.633 13.239 27.41 6.831 6.875 11.71 13.905 14.637 21.091.842.932 5.611 6.72 14.304 17.365 4.346 5.322 8.161 9.026 11.443 11.11.887.442 1.884.843 2.994 1.197m11.178 1.862l8.781.134 99.597-11.178m4.991 97.27c-8.028.221-26.568 1.596-55.62 4.125-29.184 2.572-45.816 4.302-49.898 5.189l-23.286 6.12m-41.45 17.033a98.96 98.96 0 0 1-3.792.467l-15.635.398c-2.217 1.197-4.657 1.84-7.318 1.93h-.199c-2.927-.045-5.544-.777-7.851-2.196a34.705 34.705 0 0 1-8.583 2.329c-3.947.487-8.072.332-12.375-.466-7.629 3.193-14.282.688-19.959-7.519-4.169-5.366-3.416-11.576 2.263-18.628a18.751 18.751 0 0 1-3.992-.932c-6.521-1.197-10.69-4.813-12.508-10.845-2.084-10.067 1.021-17.586 9.314-22.554l-7.518.665c-9.004-.665-14.304-6.121-15.9-16.366-1.774-5.635 1.286-12.376 9.181-20.226l-5.057-.731c-6.697-2.13-9.447-7.319-8.249-15.569-.267-11.576 8.161-19.183 25.282-22.82l30.538-2.728c.133 0 .288-.022.466-.066.177-.045.376-.067.599-.067.355-.088.688-.155.998-.2.133-.044.266-.066.399-.066.133-.045.289-.089.466-.133l.399-.133a.598.598 0 0 1 .267-.066 1.27 1.27 0 0 1 .399-.067l.666-.266 9.381-7.252c.222-.399.443-.776.666-1.131m83.36 24.683h.133c2.174.666 4.835 1.197 7.983 1.598 1.021.133 2.04.221 3.062.265m-89.219 8.051a18.613 18.613 0 0 0-.4-1.198c-1.197-2.75-3.614-4.635-7.251-5.655a2.47 2.47 0 0 1-.333-.133 48.712 48.712 0 0 0-7.318-1.464 51.768 51.768 0 0 0-7.053-.466c-3.504.045-6.365.089-8.583.133h-3.061c-6.165-4.746-14.016-7.429-23.552-8.05m53.891 31.402c.976-.621 1.686-1.219 2.129-1.796.843-.976 1.397-2.284 1.663-3.926.576-3.637.532-6.587-.133-8.848m-62.539 16.7l.665.132h.066c7.43 1.021 14.859 2.042 22.288 3.061l22.688-1.996c5.367-.133 9.58-1.13 12.641-2.994a.776.776 0 0 0 .199-.132m3.859 24.349c2.085-2.351 3.349-5.655 3.792-9.913-.178-4.878-1.243-8.561-3.193-11.044m-.599 20.957c-1.109 1.242-2.462 2.219-4.058 2.928a9.581 9.581 0 0 1 1.064-.332c.133-.045.244-.089.333-.133h.2a6.97 6.97 0 0 1 .466-.134c.133-.044.311-.066.532-.066a8.787 8.787 0 0 1 2.396-.2h.132l2.729.599a9.23 9.23 0 0 1 1.929 1.064l3.394 4.325a.51.51 0 0 0 .066.199.802.802 0 0 1 .133.2m-8.717-29.407c-1.243-1.553-2.795-2.64-4.657-3.261m-36.925 72.055c2.572.177 5.411-.112 8.516-.866l22.487-8.316c1.996-.753 3.726-1.596 5.189-2.527 1.952-1.33 3.394-2.815 4.325-4.458 3.814-2.573 6.586-5.699 8.316-9.381 1.685-3.637 2.373-7.783 2.063-12.44a33.317 33.317 0 0 1-.599-1.397m-57.483 5.055l26.546-2.329a45.717 45.717 0 0 0 7.052-1.996 40.753 40.753 0 0 0 10.513-6.254m-19.228 71.056a15.7 15.7 0 0 0 3.193-1.663c4.169-1.065 8.161-4.324 11.976-9.78l14.304-15.236c.621-2.129.998-4.036 1.131-5.722.399-5.854-2.195-9.159-7.784-9.913m32.933 39.852a91.935 91.935 0 0 0 10.978-2.661c9.093-2.75 19.25-7.539 30.471-14.371"/><path fill="none" stroke="#000" stroke-linecap="round" stroke-linejoin="round" d="M77.764 225.249c-4.613.044-7.918.577-9.914 1.596-2.084 1.109-3.26 2.973-3.526 5.589-.133 2.751.842 4.945 2.927 6.587 1.996 1.597 4.169 1.93 6.52.998.088-.045.2-.112.333-.2m4.125 3.592c-3.904 1.996-5.922 6.033-6.055 12.109-.044 2.573.4 4.657 1.331 6.253.976 1.819 2.351 2.685 4.125 2.595m.333 6.92c3.016 4.347 4.591 8.87 4.724 13.572m-9.847 15.635c3.238 7.097 6.055 9.869 8.45 8.316"/></svg>