<?xml version="1.0" encoding="utf-8"?>
<!-- Generator: Adobe Illustrator 16.0.0, SVG Export Plug-In . SVG Version: 6.00 Build 0)  -->
<!DOCTYPE svg PUBLIC "-//W3C//DTD SVG 1.1//EN" "http://www.w3.org/Graphics/SVG/1.1/DTD/svg11.dtd">
<svg version="1.1" id="Layer_1" xmlns="http://www.w3.org/2000/svg" xmlns:xlink="http://www.w3.org/1999/xlink" x="0px" y="0px"
	 width="900px" height="450px" viewBox="0 0 900 450" enable-background="new 0 0 900 450" xml:space="preserve">
<g transform="matrix( 1, 0, 0, 1, -2.45,-28.9) ">
	<g>
		<g id="Layer0_0_FILL">
			<path fill="#FFFFFF" d="M211.631,158.474l-1.201,3.519l72.942,21.454l0.343,0.085l10.298,3.003l-8.753,20.767l63.932-10.126
				l-41.191-52.089l-8.238,25.058l-81.782-29.692l-5.32,15.189L211.631,158.474z"/>
			<path fill="#EFBD9C" d="M517.647,402.875c3.929-2.614,7.561-5.646,10.897-9.096c-0.162,0.124-0.333,0.237-0.515,0.342
				C524.593,397.49,521.132,400.408,517.647,402.875 M500.311,410.339c0.46-0.028,0.915-0.085,1.375-0.171
				c-0.128-0.122-0.271-0.237-0.43-0.343C500.94,410.021,500.625,410.194,500.311,410.339 M578.232,412.141
				c0.047,0.332,0.077,0.674,0.085,1.031c3.592-6.858,7.312-14.353,11.156-22.484C585.753,398.123,582.007,405.273,578.232,412.141
				 M571.625,423.899c-1.187,1.57-2.561,3.315-4.12,5.234c-1.028,1.315-2.06,2.546-3.089,3.69c-0.115,1.144-0.314,1.916-0.602,2.316
				c-0.456,0.688-3.174,3.09-8.152,7.209c-0.686,0.571-2.66,2.803-5.92,6.692h3.089c2.571-2.031,5.375-4.634,8.409-7.809
				C564.731,435.689,568.192,429.912,571.625,423.899 M574.8,419.78c-0.877,1.205-1.935,2.577-3.175,4.119
				c-3.433,6.013-6.894,11.79-10.385,17.334c1.135-1.205,2.307-2.492,3.52-3.861C567.948,432.119,571.293,426.254,574.8,419.78
				 M616.249,335.939c0.466-0.445,0.924-0.903,1.373-1.373l0,0C617.152,335.029,616.694,335.488,616.249,335.939 M579.519,334.566
				c-1.202,1.258-3.205,3.061-6.007,5.406c-2.688,3.946-6.008,8.839-9.954,14.674c-12.415,18.078-19.166,27.118-20.252,27.118
				c-0.915,0-1.717-0.343-2.403-1.03c-0.084-0.084-0.17-0.17-0.259-0.257c-1.688,2.186-3.433,4.305-5.234,6.349
				c-2.193,2.484-4.483,4.801-6.865,6.953c-3.337,3.449-6.969,6.481-10.897,9.096c-4.956,3.58-9.935,6.297-14.933,8.152
				c-0.314-0.316-0.66-0.604-1.028-0.858c-0.46,0.086-0.915,0.143-1.375,0.171c-1.743,0.91-3.573,1.368-5.49,1.373
				c-0.505,0.131-1.02,0.245-1.546,0.344c16.114,3.641,29.928,14.854,41.449,33.641c-0.229-0.59-0.344-1.247-0.344-1.975
				c0-1.43,1.115-3.146,3.348-5.149c0.801-0.744,1.743-1.517,2.831-2.315c0.457-0.344,0.943-0.688,1.459-1.031
				c1.487-1.029,2.803-1.944,3.947-2.745c6.008-2.461,13.186-7.868,21.539-16.22c1.087-1.088,2.146-2.202,3.175-3.347
				c1.946-1.773,3.52-3.433,4.72-4.977c1.663,0.049,2.608,1.45,2.833,4.203c3.774-6.868,7.521-14.019,11.241-21.453l10.985-23.083
				c0.028-0.117,0.057-0.231,0.085-0.344c0.028-0.115,0.057-0.229,0.086-0.344c0.028-0.113,0.059-0.228,0.085-0.343
				c0.03-0.112,0.058-0.227,0.087-0.344l15.447-30.292c0.445-0.451,0.903-0.91,1.373-1.373c-0.872-0.442-1.787-1.072-2.748-1.889
				l-0.171,0.344c0.285,0.63,0.058,1.717-0.687,3.262c-1.029,1.944-2.746,2.916-5.149,2.916c-0.171,0-1.486-0.284-3.947-0.857
				c-0.799-1.258-1.858-2.402-3.174-3.433c-3.089-2.461-7.008-3.919-11.758-4.377c-1.717-0.171-3.376-0.199-4.977-0.085
				C581.923,332.621,580.093,333.994,579.519,334.566 M571.108,329.846c-0.649,0-1.307,0.027-1.973,0.086
				c-0.33,0.853-0.672,1.683-1.03,2.489c0.774-0.594,1.545-1.195,2.318-1.804C570.653,330.333,570.881,330.075,571.108,329.846
				 M631.094,326.5c1.601-0.518,3.26-0.947,4.978-1.287c-11.67-2.574-23.399-5.436-35.184-8.582c-1.16-0.307-2.274-0.62-3.348-0.943
				c2.723,1.364,4.895,2.279,6.522,2.745c6.694,1.717,12.472,3.289,17.335,4.72C625.571,324.393,628.803,325.509,631.094,326.5
				 M620.969,331.819c0.449-0.303,0.906-0.618,1.372-0.943c-0.382,0.252-0.752,0.51-1.115,0.772
				C621.139,331.715,621.053,331.772,620.969,331.819 M630.665,326.671c-0.295,0.068-0.582,0.154-0.858,0.258
				c-3.201,0.961-6.063,2.533-8.581,4.72c0.363-0.263,0.733-0.521,1.115-0.772L630.665,326.671 M683.44,274.668
				c-0.278-0.207-0.592-0.437-0.943-0.688v0.087C682.859,274.278,683.173,274.478,683.44,274.668 M685.33,276.983
				c-0.018-0.008-0.048-0.036-0.088-0.085l-1.802-2.23c-0.268-0.189-0.581-0.39-0.943-0.601l2.745,3.346l-0.256,1.889
				c0.171,0.171,0.256,0.515,0.256,1.029c0,0.801-0.256,1.716-0.771,2.747c-0.173,0.285-0.659,0.714-1.46,1.287
				c-0.229,0.171-0.429,0.315-0.601,0.429c-0.146,0.145-0.316,0.287-0.514,0.43c0.213,0.042,0.412,0.07,0.6,0.085
				c0.458-0.286,0.858-0.602,1.202-0.943c1.945-1.317,2.546-3.577,1.802-6.779c-0.018-0.059-0.044-0.116-0.086-0.173
				C685.4,277.282,685.373,277.137,685.33,276.983 M678.206,271.921l0.171-0.087c-0.113,0.057-0.256,0.145-0.429,0.258
				C678.052,272.041,678.139,271.984,678.206,271.921 M678.377,271.835L678.377,271.835l-0.171,0.087
				C678.29,271.895,678.346,271.865,678.377,271.835 M678.035,272.092h-0.087c-0.337,0.185-0.681,0.355-1.029,0.515
				c0.889-0.078,1.919-0.021,3.089,0.173C679.408,272.548,678.749,272.319,678.035,272.092 M678.55,263.254
				c-0.595,0.768-1.225,1.597-1.889,2.488c0.459-0.533,0.945-1.135,1.46-1.802C678.288,263.703,678.43,263.472,678.55,263.254
				 M685.415,256.817h0.086c-0.496-0.339-1.069-0.623-1.717-0.858C684.294,256.162,684.837,256.448,685.415,256.817
				 M686.014,257.246c0.053,0,0.109,0,0.173,0c-0.094-0.04-0.209-0.097-0.343-0.171c0.052,0.037,0.082,0.065,0.085,0.086
				L686.014,257.246 M685.93,257.161v0.085h0.085L685.93,257.161 M687.904,259.135c-0.058-0.116-0.145-0.229-0.259-0.344
				c-0.17-0.4-0.457-0.714-0.857-0.944c-0.183-0.195-0.383-0.396-0.601-0.602c-0.063,0-0.12,0-0.173,0h-0.085
				c0.045,0.058,0.073,0.114,0.085,0.173c0.23,0.171,0.401,0.458,0.516,0.858c0.229,0,0.459,0.143,0.687,0.429
				c0.114,0.171,0.171,0.313,0.171,0.43c0,0.057,0,0.113,0,0.171c0.057,0.059,0.145,0.143,0.258,0.258
				c0.344,0.286,0.486,0.6,0.43,0.943c0,0.688-0.114,1.202-0.344,1.546c0.458,0.171,0.658,0.429,0.602,0.771
				c0,0.344-0.573,1.317-1.716,2.918c-1.202,1.603-1.975,2.375-2.318,2.318c-0.057,0-0.114,0-0.171,0
				c-0.059,0-0.115,0.026-0.173,0.085c-0.801,0.629-1.372,1.001-1.716,1.115c-0.915,1.088-1.916,1.603-3.004,1.545l-1.629,0.688
				c-0.287,0.285-0.602,0.686-0.945,1.2c0.094-0.017,0.181-0.044,0.258-0.086c0.349-0.159,0.692-0.33,1.029-0.515
				c0.173-0.113,0.315-0.201,0.429-0.258l0,0c0.071-0.026,0.128-0.056,0.173-0.086l1.373-0.772c3.89-1.773,6.58-4.118,8.066-7.036
				C688.847,262.337,688.819,260.736,687.904,259.135 M441.358,424.07c-0.286,0-0.573,0-0.858,0c-0.114,0-0.257,0.029-0.429,0.086
				c-2.402,1.603-5.578,3.605-9.525,6.007c-1.259,0.801-5.521,3.978-12.787,9.526c-4.291,3.146-7.438,5.349-9.44,6.607
				c-0.915,0.915-1.802,1.83-2.66,2.745h131.038c-0.651-1.14-1.309-2.254-1.973-3.345c-11.521-18.786-25.335-30-41.449-33.641
				c-1.847,0.468-3.734,0.868-5.663,1.201c-10.698,1.373-18.737,2.461-24.113,3.262c-3.309,0.491-6.457,1.064-9.44,1.717
				c-0.197,0.196-0.398,0.397-0.602,0.6c-2.219,1.651-5.107,2.538-8.667,2.66C443.68,422.31,442.536,423.169,441.358,424.07
				 M633.841,110.675c5.688,5.68,10.609,12.116,14.76,19.309c6.58,11.499,10.298,23.198,11.155,35.098
				c0.802,11.842,4.462,21.625,10.985,29.349c6.463,7.667,12.872,16.362,19.221,26.088c6.352,9.668,5.552,16.333-2.401,19.995
				c8.868-3.661,10.298-9.869,4.291-18.622c-7.667-11.271-15.705-22.34-24.114-33.21c-4.463-5.893-6.808-12.729-7.037-20.509
				c-0.344-13.96-4.232-26.889-11.671-38.789C644.702,122.446,639.639,116.21,633.841,110.675 M648.6,129.984
				c-4.15-7.192-9.071-13.628-14.76-19.309l-14.847-11.929c0.281,0.581,0.511,1.152,0.688,1.716
				c1.716,0.744,2.288,3.805,1.716,9.183c-0.573,5.377-2.661,22.798-6.265,52.261c-3.547,29.406-6.151,49.229-7.81,59.47
				c-1.602,10.183-4.919,23.942-9.953,41.276c-6.18,21.511-11.729,36.327-16.648,44.453c1.372,0.342,2.86,0.915,4.461,1.716
				c4.928,2.95,9.046,5.238,12.357,6.865c1.073,0.323,2.188,0.637,3.348,0.943c11.784,3.146,23.514,6.008,35.184,8.582
				c1.202,0.4,2.316,0.799,3.348,1.201c1.603,0.572,4.348,1.087,8.238,1.544c3.719,0.4,6.464,0.545,8.237,0.429
				c11.27-0.571,18.192-5.777,20.767-15.617c-1.659-7.038-1.544-13.96,0.344-20.769c0.4-1.83,1.975-3.861,4.72-6.092
				c0.286-0.171,0.545-0.371,0.772-0.601c-0.188-0.015-0.387-0.043-0.6-0.085c-0.067,0.122-0.153,0.237-0.259,0.342
				c-0.171-0.057-0.314-0.114-0.429-0.171c-0.285,0.285-0.6,0.429-0.943,0.429c-0.744,0-2.318-0.457-4.72-1.372
				c-0.229-0.06-0.43-0.116-0.603-0.173c-0.744-0.171-1.43-0.43-2.058-0.771c-0.973-0.173-1.804-0.602-2.489-1.287
				c-0.286,0-0.658-0.344-1.116-1.03c-0.114-0.171-0.199-0.313-0.257-0.43c-0.113-0.113-0.201-0.199-0.258-0.256l-0.171-0.858
				c0.228-0.63,0.571-1.145,1.029-1.546c0-0.228,0.028-0.372,0.085-0.429c0.034-0.082,0.091-0.167,0.173-0.258
				c0.164-0.245,0.449-0.531,0.858-0.858c0.228-0.171,0.429-0.257,0.6-0.257l-0.085-0.085c0-0.344-0.199-0.344-0.602,0
				c0.648-1.545,1.193-2.833,1.631-3.861c0.392-0.905,0.707-1.619,0.943-2.146c0.517-1.145,1.202-2.089,2.06-2.833
				c0.411-0.442,0.868-0.985,1.373-1.631c0.664-0.892,1.294-1.721,1.889-2.488c0.907-1.184,1.651-2.042,2.231-2.575
				c0.27-0.174,0.527-0.345,0.772-0.515c1.064-0.714,1.809-1.313,2.23-1.802c0.154-0.077,0.269-0.162,0.344-0.258
				c0.4-0.628,0.8-1.029,1.202-1.2l0.085-0.087c-0.578-0.369-1.121-0.655-1.631-0.858h-0.085c-1.603-4.633-1.745-8.151-0.43-10.554
				c1.029-1.832,2.459-3.462,4.291-4.892c7.953-3.661,8.753-10.326,2.401-19.995c-6.349-9.726-12.758-18.421-19.221-26.088
				c-6.523-7.723-10.184-17.506-10.985-29.349C658.898,153.182,655.18,141.483,648.6,129.984 M634.784,168.514
				c0.208-0.153,0.407-0.325,0.601-0.515c0.574-0.395,1.147-0.795,1.716-1.202c1.603-1.201,3.491-2.146,5.664-2.832
				c2.118-0.744,4.177-1.258,6.18-1.544c1.145-0.168,2.287-0.054,3.432,0.343c0.455,0.041,0.884,0.099,1.288,0.172
				c2.86,0.516,4.29,2.002,4.29,4.462c0,0.582-0.258,1.354-0.772,2.317c0.014,0.089,0.014,0.175,0,0.257l-0.515,0.686l-0.085,0.086
				c0.057,0,0.085,0.029,0.085,0.085h-0.172c0.229,0.801,0.258,2.631,0.087,5.493c-0.229,5.32-0.603,8.953-1.116,10.898
				c0.184-6.386-0.704-11.877-2.66-16.476c-0.726-1.361-1.897-2.19-3.519-2.489c-2.517-0.458-5.808,0.4-9.868,2.574
				c-3.147,1.66-6.037,3.718-8.669,6.179c-0.171-0.573-0.256-1.259-0.256-2.06c0-1.43,0.658-2.889,1.973-4.376l0,0
				c0.078-0.073,0.164-0.158,0.258-0.257C633.284,169.733,633.971,169.132,634.784,168.514 M657.782,187.65
				c-0.229,1.774-1.087,3.062-2.575,3.862c-1.486,0.744-2.172,0.916-2.058,0.516c0.057-0.401,0.057-0.658,0-0.773
				c-0.592,0.354-1.45,0.612-2.574,0.773c-0.275,0.044-0.561,0.073-0.858,0.085l-10.298,3.003c-0.063,0.081-0.149,0.137-0.258,0.172
				l5.492-1.373l0.344-0.086c0.084-0.119,0.169-0.233,0.256-0.343l2.574-0.516l0,0h0.259c0.159,0.398,0.304,0.77,0.429,1.115
				c0.052,0.019,0.109,0.019,0.171,0c0.229,0.344,0.401,0.773,0.515,1.288c0,0.229,0,0.515,0,0.858c0,0.229,0,0.516,0,0.858
				c0.057,0.287,0.057,0.629,0,1.03c0,0.515-0.143,1.087-0.429,1.716c-0.107,0.483-0.307,0.969-0.601,1.459
				c1.507,0.472,2.479,1.015,2.918,1.631c0.067,0.049,0.124,0.078,0.172,0.085c0.316,0.09,0.604,0.177,0.857,0.257
				c0.023,0.003,0.052,0.003,0.086,0c0.097-0.022,0.213,0.036,0.344,0.172c0.125,0.212,0.27,0.527,0.429,0.943
				c0.431,1.187,0.976,3.332,1.631,6.436c1.029,5.092,1.372,11.014,1.029,17.764c-0.285,5.835-1.516,10.613-3.689,14.331
				c0.629-4.977,1.145-9.726,1.544-14.245c0.858-9.04,0.716-15.504-0.43-19.395c-1.136-3.734-1.451-5.736-0.943-6.007
				c-0.253-0.081-0.541-0.167-0.857-0.257c-0.048-0.007-0.104-0.036-0.172-0.085c0.23,0.34,0.344,0.684,0.344,1.029
				c0,0.058-0.057,0.343-0.172,0.858c-0.287,0.572-1.345,0.372-3.175-0.6c-1.832-0.973-4.319-2.175-7.467-3.604
				c-3.089-1.487-5.035-2.46-5.835-2.918c-1.545,0.744-2.574,1.116-3.089,1.116c-0.687,0-1.201-0.229-1.545-0.687
				c-0.229-0.343-0.344-0.629-0.344-0.858c0-0.286,4.062-1.945,12.187-4.978c8.122-3.032,12.186-3.918,12.186-2.66
				c0,0.231-0.058,0.431-0.172,0.6c0.198-0.037,0.397-0.094,0.601-0.171c1.259-0.458,2.146-1.431,2.66-2.918
				C657.839,185.649,658.012,185.82,657.782,187.65 M685.759,237.252c0.56,0.077,0.989,0.333,1.287,0.772
				c0.947-0.531,1.063-0.303,0.342,0.687c-0.972,1.202-2.688,2.46-5.148,3.776c-2.518,1.259-4.548,2.06-6.093,2.403
				c0.679-0.991,1.338-1.906,1.975-2.746c-0.779,0.553-1.665,1.097-2.66,1.631c-2.256,1.155-4.773,1.498-7.553,1.03
				c-0.308,0.458-0.764,0.687-1.372,0.687c-3.491,0-6.123-2.747-7.896-8.238c0-1.831,1.088-4.005,3.262-6.522
				c2.174-2.459,3.262-2.23,3.262,0.687c0,1.087-0.516,2.117-1.545,3.09c-0.973,1.03-1.459,1.974-1.459,2.832
				c0,0.687,1.001,1.716,3.004,3.089c2.059,1.374,3.089,2.403,3.089,3.09c0,0.057-0.059,0.4-0.173,1.03
				c-0.05,0.114-0.108,0.2-0.171,0.257c2.779,0.468,5.297,0.125,7.553-1.03c0.995-0.534,1.881-1.078,2.66-1.631
				c1.479-1.754,2.938-3.155,4.376-4.205C684.223,236.704,685.311,236.475,685.759,237.252 M687.046,238.024
				c-0.298-0.438-0.728-0.695-1.287-0.772c0.228,0.345,0.342,0.832,0.342,1.458C686.481,238.441,686.796,238.212,687.046,238.024
				 M643.795,198.292c0.059,0.632,0.173,1.261,0.344,1.888c0.067,0.012,0.124,0.012,0.171,0
				C644.046,199.567,643.876,198.938,643.795,198.292 M647.913,201.296v-0.085V201.296L647.913,201.296 M648.342,194.173
				c0.069-0.012,0.128-0.041,0.173-0.086c-0.125-0.345-0.27-0.717-0.429-1.115h-0.259
				C648.051,193.395,648.221,193.796,648.342,194.173 M641.906,193.83c-0.131,0.043-0.959,0.473-2.487,1.287l10.298-3.003
				C645.955,192.776,643.35,193.348,641.906,193.83 M644.997,193.83l-0.344,0.086c-0.531,0.979-0.847,2.009-0.943,3.089
				C643.837,195.897,644.265,194.838,644.997,193.83 M640.104,198.035c-0.357-0.299-0.671-0.585-0.943-0.858
				c0.449,0.449,0.935,0.936,1.458,1.459c0.325,0.195,0.697,0.395,1.116,0.6C641.122,198.829,640.579,198.429,640.104,198.035
				 M637.959,195.975c-0.021,0.036-0.049,0.064-0.086,0.086c0.245,0.208,0.503,0.437,0.773,0.687
				C638.333,196.439,638.104,196.182,637.959,195.975 M638.132,195.889c-0.023,0.047-0.081,0.076-0.173,0.085
				c0.146,0.207,0.374,0.464,0.688,0.773c0.165,0.149,0.337,0.292,0.515,0.429c0.272,0.273,0.586,0.559,0.943,0.858
				c0.475,0.394,1.018,0.794,1.631,1.201c0.288,0.13,0.604,0.245,0.943,0.344c-1.285-0.785-2.4-1.615-3.347-2.489
				c-0.309-0.194-0.51-0.394-0.601-0.6C638.542,196.293,638.343,196.092,638.132,195.889 M639.332,195.546
				c0.343-0.172,0.63-0.257,0.857-0.257l1.89-0.601c0.628,0,1.028,0.115,1.201,0.344c0.057,0.114,0.086,0.371,0.086,0.771
				l-0.173,1.716l0.173,0.688c0,0.399-0.287,0.6-0.858,0.6s-1.173-0.486-1.802-1.458c-0.402,0.171-0.858,0.085-1.374-0.258
				c0.946,0.874,2.062,1.704,3.347,2.489c0.454,0.214,0.94,0.414,1.46,0.601c-0.171-0.627-0.285-1.256-0.344-1.888
				c-0.015-0.071-0.044-0.158-0.085-0.257c0.013-0.274,0.013-0.561,0-0.858c0.026-0.042,0.026-0.101,0-0.171
				c0.097-1.081,0.412-2.11,0.943-3.089l-5.492,1.373c-0.295,0.194-0.639,0.395-1.029,0.601c0.211,0.203,0.41,0.403,0.6,0.601
				c-0.057-0.118-0.085-0.233-0.085-0.344C638.646,195.918,638.876,195.717,639.332,195.546z"/>
			<path fill="#6A4D2D" d="M500.311,410.339c-0.368,0.065-0.74,0.094-1.114,0.086c-1.428,0.476-2.888,0.905-4.376,1.287
				C496.738,411.708,498.568,411.25,500.311,410.339 M511.725,406.478c-3.688,1.926-7.032,3.156-10.039,3.69
				c0.368,0.255,0.714,0.542,1.028,0.858c4.998-1.855,9.977-4.572,14.933-8.152C515.741,404.185,513.767,405.387,511.725,406.478
				 M501.686,410.169c3.007-0.534,6.352-1.765,10.039-3.69c2.042-1.091,4.016-2.293,5.922-3.604
				c3.484-2.467,6.945-5.385,10.383-8.754c-8.377,7.486-17.987,12.921-28.833,16.305c0.374,0.008,0.746-0.021,1.114-0.086
				c0.313-0.146,0.629-0.318,0.945-0.514C501.415,409.931,501.558,410.046,501.686,410.169 M577.973,306.676
				c-0.829,2.005-1.602,3.893-2.315,5.664c1.461-3.383,2.864-6.787,4.205-10.213C579.257,303.592,578.628,305.11,577.973,306.676
				 M580.636,300.67c-0.255,0.468-0.512,0.926-0.772,1.373c0.015,0.059,0.015,0.085,0,0.085c-1.341,3.426-2.744,6.83-4.205,10.213
				c-1.502,3.892-2.704,7.268-3.604,10.125c-1.891,3.972-4.407,9.235-7.552,15.79c-0.18,0.585-0.379,1.155-0.601,1.717
				c-5.095,12.26-11.045,23.302-17.85,33.124c4.153-5.692,8.015-11.756,11.585-18.192c4.12-7.266,6.837-12.815,8.152-16.648
				c0.794-1.94,1.565-3.887,2.316-5.834c0.358-0.807,0.7-1.637,1.03-2.489c3.287-8.11,6.463-16.149,9.525-24.113
				c0.604-1.576,1.205-3.149,1.802-4.72C580.52,300.95,580.577,300.807,580.636,300.67 M601.143,235.621
				c-0.211,0.672-0.438,1.33-0.685,1.974c-0.029,0.319-0.086,0.635-0.173,0.945c-0.077,0.798-0.163,1.599-0.257,2.402
				c0.021,0.354,0.021,0.698,0,1.03C600.487,240,600.859,237.883,601.143,235.621 M365.497,449.042
				c0.386-0.569,0.758-1.141,1.116-1.716h-6.608c-0.432,0.605-0.86,1.177-1.287,1.716H365.497 M379.314,449.042
				c0.209-0.563,0.438-1.136,0.686-1.716h-6.092h-7.294c-0.358,0.575-0.73,1.146-1.116,1.716H379.314 M396.477,449.042
				c0.47-0.576,0.927-1.147,1.373-1.716h-10.899c-0.505,0.61-0.991,1.184-1.458,1.716H396.477 M331,447.326
				c-0.158,0.112-0.33,0.228-0.516,0.344c-0.497,0.447-1.04,0.848-1.63,1.201c-0.047,0.058-0.105,0.114-0.172,0.171h26.259
				c0.057-0.113,0.143-0.256,0.257-0.429c0.292-0.431,0.579-0.859,0.858-1.287h-7.809H331 M317.956,419.179
				c-0.744,0.601-1.487,1.172-2.232,1.717c-0.353,0.323-0.725,0.637-1.115,0.943c-4.965,4.559-10,8.65-15.103,12.272
				c-1.681,1.191-3.397,2.364-5.149,3.518c-2.071,1.539-4.188,3.084-6.351,4.635c2.163-1.551,4.28-3.096,6.351-4.635
				c-3.768,2.515-7.687,4.946-11.757,7.294c-2.803,1.66-3.718,3.032-2.746,4.118h40.247c1.116-0.585,2.174-1.156,3.175-1.716
				h-37.416H282.6c0.997-0.748,1.97-1.492,2.918-2.23c0.394-0.973,1.538-1.831,3.433-2.575c7.527-5.7,13.963-10.705,19.308-15.018
				C311.591,424.823,314.823,422.048,317.956,419.179 M315.295,421.24c-0.212,0.194-0.44,0.395-0.686,0.6
				c0.39-0.307,0.763-0.62,1.115-0.943C315.577,421.021,315.434,421.135,315.295,421.24 M395.189,176.237
				c0.19-2.431,0.391-4.805,0.601-7.123c-0.807,3.513-1.036,5.715-0.688,6.608C395.153,175.863,395.181,176.035,395.189,176.237
				 M437.152,84.33c0.042-0.081,0.07-0.195,0.086-0.344c-0.437,0.366-0.866,0.71-1.287,1.03
				c-8.582,6.808-14.904,13.33-18.966,19.565c-3.261,3.833-5.435,6.693-6.521,8.582c-1.087,1.831-2.117,3.805-3.089,5.921
				c-1.768,4.314-3.198,9.034-4.291,14.16c1.109-2.991,2.31-5.908,3.604-8.753c1.056-2.932,2.172-5.792,3.347-8.582
				C418.146,103.296,427.185,92.769,437.152,84.33 M436.723,86.561c0.045-0.706,0.188-1.449,0.429-2.231
				c-9.967,8.439-19.006,18.966-27.117,31.58c-1.175,2.789-2.291,5.65-3.347,8.582c5.793-12.502,13.803-23.171,24.028-32.009
				c0.803-0.695,1.603-1.381,2.403-2.06C434.324,88.995,435.526,87.708,436.723,86.561z"/>
			<path fill="#E2AE93" d="M567.505,429.133c1.56-1.919,2.934-3.664,4.12-5.234c2.243-3.821,4.445-7.741,6.607-11.758
				c-0.225-2.753-1.17-4.154-2.833-4.203c-1.2,1.544-2.773,3.203-4.72,4.977c-1.029,1.145-2.088,2.259-3.175,3.347
				c-8.354,8.352-15.531,13.759-21.539,16.22c-1.145,0.801-2.46,1.716-3.947,2.745c-0.516,0.344-1.002,0.688-1.459,1.031
				c-1.088,0.799-2.03,1.571-2.831,2.315c-2.232,2.003-3.348,3.72-3.348,5.149c0,0.728,0.114,1.385,0.344,1.975
				c0.664,1.091,1.321,2.205,1.973,3.345h13.045c3.26-3.89,5.234-6.121,5.92-6.692c4.979-4.119,7.696-6.521,8.152-7.209
				c0.287-0.4,0.486-1.173,0.602-2.316C565.445,431.679,566.476,430.449,567.505,429.133 M571.625,423.899
				c1.24-1.542,2.298-2.914,3.175-4.119c2.347-3.247,3.518-5.278,3.518-6.093c0-0.175,0-0.346,0-0.515
				c-0.008-0.357-0.038-0.699-0.085-1.031C576.07,416.158,573.868,420.078,571.625,423.899 M620.969,331.819
				c0.084-0.047,0.171-0.104,0.257-0.171c-1.239,0.9-2.441,1.873-3.604,2.918l0,0c0.184,0.101,0.356,0.187,0.514,0.257
				c0.4-0.515,0.83-1.001,1.287-1.458C619.93,332.83,620.442,332.314,620.969,331.819 M629.806,326.928
				c0.276-0.104,0.563-0.189,0.858-0.258c0.139-0.035,0.281-0.092,0.429-0.171c-2.291-0.99-5.522-2.106-9.696-3.348
				c-4.863-1.431-10.641-3.003-17.335-4.72c-1.628-0.466-3.8-1.381-6.522-2.745c-9.791-2.799-16.026-5.745-18.708-8.84
				c-0.059-0.342-0.115-0.686-0.171-1.028c-3.063,7.964-6.238,16.003-9.525,24.113c0.666-0.059,1.323-0.086,1.973-0.086
				c-0.228,0.229-0.455,0.486-0.685,0.771c-0.773,0.608-1.544,1.21-2.318,1.804c-0.751,1.947-1.522,3.894-2.316,5.834
				c-1.315,3.833-4.032,9.383-8.152,16.648c-3.57,6.437-7.432,12.5-11.585,18.192c-1.722,2.551-3.523,5.011-5.407,7.381
				c0.089,0.087,0.175,0.173,0.259,0.257c0.687,0.688,1.488,1.03,2.403,1.03c1.086,0,7.837-9.04,20.252-27.118
				c3.946-5.835,7.266-10.728,9.954-14.674c2.802-2.346,4.805-4.148,6.007-5.406c0.573-0.572,2.403-1.945,5.492-4.119
				c1.601-0.114,3.26-0.086,4.977,0.085c4.75,0.458,8.669,1.916,11.758,4.377c1.315,1.03,2.375,2.175,3.174,3.433
				c2.461,0.573,3.776,0.857,3.947,0.857c2.403,0,4.12-0.972,5.149-2.916c0.744-1.545,0.972-2.632,0.687-3.262l0.171-0.344
				c0.961,0.816,1.876,1.446,2.748,1.889c1.162-1.045,2.364-2.018,3.604-2.918C623.744,329.462,626.605,327.889,629.806,326.928
				 M630.75,326.671c0.151-0.04,0.295-0.068,0.429-0.086l-0.085-0.085c-0.147,0.079-0.29,0.136-0.429,0.171
				C630.708,326.685,630.737,326.685,630.75,326.671 M662.159,237.337c0-0.858,0.486-1.802,1.459-2.832
				c1.029-0.973,1.545-2.003,1.545-3.09c0-2.917-1.088-3.146-3.262-0.687c-2.174,2.518-3.262,4.691-3.262,6.522
				c1.773,5.492,4.405,8.238,7.896,8.238c0.608,0,1.064-0.229,1.372-0.687c-0.117,0.019-0.23,0.019-0.343,0
				c-3.72-0.687-5.835-2.718-6.352-6.093c-0.398-2.517,0.145-4.862,1.631-7.036c-1.486,2.174-2.029,4.52-1.631,7.036
				c0.517,3.375,2.632,5.407,6.352,6.093c0.112,0.019,0.226,0.019,0.343,0c0.063-0.057,0.121-0.144,0.171-0.257
				c0.114-0.629,0.173-0.973,0.173-1.03c0-0.687-1.03-1.716-3.089-3.09C663.16,239.054,662.159,238.024,662.159,237.337
				 M644.48,200.609c-0.061,0.018-0.117,0.018-0.171,0c-0.571-0.322-1.116-0.665-1.631-1.03c-0.34-0.099-0.655-0.214-0.943-0.344
				c0.811,0.511,1.727,1.025,2.745,1.545C644.501,200.741,644.501,200.684,644.48,200.609 M644.309,200.609
				c-0.051-0.145-0.107-0.288-0.171-0.429c-0.52-0.187-1.006-0.387-1.46-0.601C643.193,199.944,643.738,200.287,644.309,200.609
				 M644.138,200.18c0.063,0.141,0.12,0.284,0.171,0.429c0.054,0.018,0.11,0.018,0.171,0c-0.065-0.116-0.122-0.26-0.171-0.429
				C644.263,200.192,644.206,200.192,644.138,200.18 M648.171,201.296c0.019,0.078,0.019,0.136,0,0.172
				c-0.04-0.035-0.097-0.064-0.171-0.086c-0.11,0.258-0.251,0.516-0.429,0.773c0.228,0.08,0.457,0.166,0.686,0.257
				c0.286,0.057,0.545,0.115,0.772,0.172c0.697,0.161,1.383,0.275,2.06,0.344C650.65,202.31,649.678,201.767,648.171,201.296
				 M647.313,202.068c0.09,0.023,0.176,0.051,0.258,0.086c0.178-0.257,0.318-0.515,0.429-0.773c-0.001-0.036-0.03-0.065-0.087-0.085
				l0,0C647.728,201.548,647.527,201.805,647.313,202.068 M653.149,191.255v-0.085l-3.433,0.944
				c0.298-0.013,0.583-0.042,0.858-0.085C651.699,191.867,652.557,191.609,653.149,191.255 M637.873,196.061
				c0.037-0.022,0.065-0.05,0.086-0.086c-0.119-0.189-0.119-0.303,0-0.343l-5.492,1.288l5.492-1.288l0.085-0.086l1.375-0.429
				c1.528-0.814,2.356-1.244,2.487-1.287c1.444-0.482,4.049-1.054,7.811-1.716l3.433-0.944c-0.027-0.083-0.084-0.168-0.173-0.257
				c-0.096-0.095,0.25-0.324,1.03-0.687c0.114-0.169,0.172-0.369,0.172-0.6c0-1.259-4.063-0.372-12.186,2.66
				c-8.125,3.032-12.187,4.691-12.187,4.978c0,0.229,0.115,0.515,0.344,0.858c0.344,0.458,0.858,0.687,1.545,0.687
				c0.515,0,1.544-0.372,3.089-1.116c0.8,0.458,2.746,1.431,5.835,2.918c3.147,1.43,5.635,2.632,7.467,3.604
				c1.83,0.972,2.888,1.172,3.175,0.6c0.115-0.515,0.172-0.8,0.172-0.858c0-0.346-0.113-0.689-0.344-1.029
				c-0.677-0.069-1.362-0.183-2.06-0.344c-0.228-0.057-0.486-0.115-0.772-0.172c-0.229-0.091-0.458-0.177-0.686-0.257
				c-0.082-0.035-0.168-0.063-0.258-0.086c-0.03,0.025-0.061,0.055-0.086,0.086c-1.373-0.401-2.204-0.715-2.489-0.944
				c-0.07-0.137-0.157-0.281-0.258-0.429c-1.019-0.521-1.935-1.035-2.745-1.545c-0.419-0.205-0.791-0.405-1.116-0.6
				c-0.523-0.523-1.009-1.01-1.458-1.459c-0.178-0.136-0.35-0.28-0.515-0.429C638.376,196.498,638.118,196.269,637.873,196.061
				 M637.959,195.632c0.075,0.09,0.132,0.175,0.173,0.257c0.391-0.206,0.734-0.406,1.029-0.601L637.959,195.632 M637.959,195.975
				c0.092-0.01,0.149-0.039,0.173-0.085c-0.041-0.082-0.098-0.167-0.173-0.257C637.84,195.671,637.84,195.785,637.959,195.975
				 M639.161,195.289c0.108-0.035,0.194-0.091,0.258-0.172l-1.375,0.429l-0.085,0.086L639.161,195.289 M653.664,162.936
				c-0.404-0.073-0.833-0.131-1.288-0.172c0.835,0.293,1.665,0.723,2.489,1.287c1.938,1.329,2.71,3.217,2.316,5.665
				c0.515-0.964,0.772-1.736,0.772-2.317C657.954,164.938,656.524,163.452,653.664,162.936 M632.21,171.346l0.257-0.772
				c-1.314,1.488-1.973,2.947-1.973,4.376c0,0.801,0.085,1.487,0.256,2.06c2.632-2.461,5.521-4.52,8.669-6.179
				c4.061-2.174,7.352-3.032,9.868-2.574c1.621,0.298,2.793,1.128,3.519,2.489c-0.433-1.103-0.947-2.161-1.545-3.175
				c-0.629-0.686-1.43-1.173-2.402-1.459c-2.003-0.629-3.835-0.515-5.492,0.344c-1.43,0.743-2.774,1.43-4.034,2.059
				c-2.402,1.202-4.576,2.574-6.522,4.119l-0.17-0.343L632.21,171.346 M632.724,170.317c0.875-0.778,1.762-1.551,2.66-2.317
				c-0.193,0.189-0.393,0.361-0.601,0.515C633.971,169.132,633.284,169.733,632.724,170.317 M618.994,98.747L618.994,98.747
				c0.749,4.086,0.892,8.549,0.429,13.387c-1.021,10.675-3.367,28.124-7.035,52.347c-2.109,23.902-4.226,39.892-6.352,47.971
				c0.401,1.553,0.601,3.326,0.601,5.321c-1.626,5.807-3.458,11.757-5.493,17.849c-0.284,2.262-0.656,4.379-1.114,6.351
				c0.017,2.794-0.555,5.884-1.716,9.268c-0.431,1.269-0.86,2.498-1.287,3.689c-3.976,18.811-7.581,30.854-10.813,36.128
				c-1.993,3.196-3.852,6.399-5.578,9.612c-0.059,0.138-0.115,0.28-0.173,0.43c-0.597,1.57-1.198,3.144-1.802,4.72
				c0.056,0.343,0.112,0.687,0.171,1.028c2.682,3.095,8.917,6.041,18.708,8.84c-3.312-1.627-7.43-3.915-12.357-6.865
				c-1.601-0.801-3.089-1.374-4.461-1.716c4.919-8.126,10.469-22.942,16.648-44.453c5.034-17.334,8.352-31.093,9.953-41.276
				c1.658-10.241,4.263-30.064,7.81-59.47c3.604-29.463,5.691-46.883,6.265-52.261c0.572-5.378,0-8.439-1.716-9.183
				C619.505,99.899,619.275,99.328,618.994,98.747 M618.994,98.661v0.085l0,0C619.004,98.735,619.004,98.707,618.994,98.661z"/>
			<path fill="#291C16" fill-opacity="0.6" d="M563.901,339.972c0.222-0.562,0.421-1.132,0.601-1.717
				c1.203-2.941,2.291-5.66,3.262-8.152c-1.708,3.672-3.483,7.363-5.321,11.07c-5.436,11.042-10.213,19.852-14.331,26.432
				c-5.836,9.725-12.072,18.135-18.708,25.229c-0.29,0.313-0.575,0.627-0.858,0.945c2.382-2.152,4.672-4.469,6.865-6.953
				c1.802-2.044,3.547-4.163,5.234-6.349c1.884-2.37,3.686-4.83,5.407-7.381C552.856,363.274,558.806,352.232,563.901,339.972
				 M282.6,447.326h3.261c-0.472-0.793-0.586-1.537-0.343-2.23C284.571,445.834,283.597,446.578,282.6,447.326 M405.058,318.862
				c-0.057,1.086-0.086,2.146-0.086,3.174c0,0.037,0.229,0.865,0.687,2.489C405.441,322.72,405.241,320.833,405.058,318.862
				 M393.387,219.059c-1.979,8.109-3.61,17.635-4.891,28.576c-0.858,6.808-1.917,17.191-3.175,31.151
				c-1.019,9.764-2.306,18.803-3.861,27.117c1.042-2.15,2.128-3.779,3.261-4.893c0.846-4.783,1.59-9.676,2.23-14.674
				C389.827,263.867,391.973,241.439,393.387,219.059 M406.688,124.491c-1.294,2.845-2.495,5.762-3.604,8.753
				c-2.177,6.231-3.893,12.839-5.148,19.823c-0.886,4.796-1.602,10.145-2.146,16.047c-0.21,2.317-0.411,4.691-0.601,7.123
				c-0.167,3.112-0.311,6.345-0.429,9.697c-0.21,5.316-0.438,12.354-0.687,21.111c0.231-4.327,0.432-8.646,0.6-12.959
				C395.72,167.41,399.724,144.211,406.688,124.491 M514.471,55.925c-0.175,0.008-0.346,0.008-0.515,0
				c0.234,0.175,0.464,0.346,0.687,0.516c7.953-0.916,15.305-0.858,22.054,0.172c3.662,0.571,6.894,1.401,9.698,2.488
				c0.816-0.428,1.674-0.8,2.574-1.115C537.675,55.992,526.174,55.306,514.471,55.925z"/>
			<path fill="#A4764D" d="M572.054,322.465c0.9-2.857,2.103-6.233,3.604-10.125c-2.459,5.893-5.091,11.814-7.895,17.763
				c-0.971,2.492-2.059,5.211-3.262,8.152C567.646,331.701,570.163,326.437,572.054,322.465 M575.658,312.34
				c0.714-1.771,1.486-3.659,2.315-5.664c0.654-1.566,1.283-3.084,1.89-4.549c-2.724,5.152-5.099,10.302-7.124,15.447
				c-1.241,3.141-2.9,7.315-4.976,12.528C570.567,324.155,573.199,318.233,575.658,312.34 M606.637,217.772
				c0-1.995-0.199-3.768-0.601-5.321c2.126-8.079,4.242-24.069,6.352-47.971c-1.851,12.426-4.053,26.614-6.609,42.565
				c-0.174,1.082-0.347,2.14-0.515,3.175c-0.082-0.148-0.167-0.319-0.258-0.516c-2.279,13.014-4.797,25.2-7.551,36.558
				c-2.563,10.735-5.338,20.749-8.325,30.035c-2.745,8.515-5.834,17.097-9.267,25.745c0.261-0.447,0.518-0.905,0.772-1.373
				c1.727-3.213,3.585-6.416,5.578-9.612c3.231-5.274,6.837-17.317,10.813-36.128c0.427-1.191,0.856-2.421,1.287-3.689
				c1.161-3.384,1.732-6.474,1.716-9.268c0.021-0.332,0.021-0.676,0-1.03c0.094-0.804,0.18-1.604,0.257-2.402
				c0.087-0.31,0.144-0.625,0.173-0.945c0.246-0.644,0.474-1.301,0.685-1.974C603.179,229.529,605.011,223.579,606.637,217.772
				 M354.942,449.042h3.776c0.427-0.539,0.855-1.11,1.287-1.716h-3.948c-0.279,0.428-0.566,0.856-0.858,1.287
				C355.085,448.786,354.999,448.928,354.942,449.042 M386.951,447.326H380c-0.248,0.58-0.477,1.153-0.686,1.716h6.179
				C385.959,448.509,386.445,447.936,386.951,447.326 M326.194,449.042c0.399-0.555,0.799-1.126,1.202-1.716h-4.119
				c-1.001,0.56-2.06,1.131-3.175,1.716H326.194 M330.485,447.67c0.186-0.116,0.358-0.231,0.516-0.344h-0.858
				c-0.426,0.526-0.855,1.042-1.287,1.545C329.445,448.517,329.988,448.117,330.485,447.67 M618.994,98.661l-1.287-0.171
				c0.014,0.193,0.014,0.394,0,0.601c-1.589,23.305-3.62,45.073-6.093,65.305l0.773,0.085c3.668-24.223,6.014-41.672,7.035-52.347
				c0.463-4.838,0.32-9.301-0.429-13.387V98.661z"/>
			<path fill="#241A11" d="M530.091,332.334c-0.444,1.127-1.417,3.9-2.918,8.325c-0.98,3.056-2.211,6.86-3.691,11.412
				c-0.915,2.861-3.861,10.042-8.838,21.541c-4.463,10.298-6.694,15.846-6.694,16.647c0,1.431,0.143,1.746,0.43,0.945h0.858
				c5.148-9.956,10.497-22.427,16.048-37.417c1.554-4.385,3.014-8.505,4.376-12.356c3.982-11.068,7.186-19.792,9.611-26.173
				C536.069,319.033,533.009,324.724,530.091,332.334 M324.306,451.617h2.231c0.725-0.832,1.441-1.689,2.146-2.575
				c0.067-0.057,0.125-0.113,0.172-0.171c0.432-0.503,0.861-1.019,1.287-1.545c3.176-3.873,6.437-8.164,9.783-12.872
				c3.286-4.836,6.261-9.212,8.925-13.129c4.696-6.929,8.415-12.421,11.156-16.478c6.236-9.153,11.699-18.937,16.391-29.348
				c4.691-10.412,8.067-20.195,10.126-29.348c-2.174,4.004-6.321,13.187-12.443,27.546c-5.32,12.528-10.298,22.34-14.931,29.434
				c-3.138,4.798-7.085,10.521-11.842,17.163c-2.616,3.637-5.477,7.556-8.582,11.757c-4.432,5.978-8.207,11.069-11.328,15.274
				c-0.402,0.59-0.803,1.161-1.202,1.716C325.528,449.947,324.898,450.805,324.306,451.617 M420.247,194.258
				c-1.605,7.112-3.036,13.52-4.291,19.223c-4.463,20.337-6.694,31.78-6.694,34.326c0,1.43,0.143,1.745,0.429,0.944h0.858
				c1.55-7.629,3.553-17.012,6.007-28.147c2.389-10.607,5.192-22.822,8.41-36.643c7.094-30.321,12.014-52.061,14.76-65.219
				C434.75,133.673,428.257,158.846,420.247,194.258 M424.709,130.67c-0.171-0.343-0.8-0.572-1.887-0.686l-1.545-0.172
				c-5.664,8.238-10.269,29.548-13.816,63.932c-2.803,27.346-4.205,52.404-4.205,75.175c0,17.791,0.429,32.38,1.287,43.766
				c0.157,2.148,0.329,4.206,0.515,6.178c0.183,1.971,0.383,3.858,0.601,5.663c0.723,6.189,1.61,11.625,2.66,16.305
				c1.03,4.417,2.203,8.164,3.518,11.241c-0.946-4.435-1.804-9.014-2.574-13.729c-0.368-2.464-0.74-4.981-1.115-7.551
				c-0.831-6.552-1.489-13.33-1.974-20.34c-0.801-11.213-1.202-25.028-1.202-41.447c0-23.799,1.374-49.458,4.12-76.976
				C412.867,154.269,418.073,133.816,424.709,130.67 M579.091,131.271c-0.058-0.058-0.172-0.229-0.344-0.516h-1.202
				c-0.905,10.616-2.363,21.629-4.376,33.039c-0.618,3.516-1.306,7.063-2.061,10.641c-4.917,24.573-12.295,50.917-22.139,79.035
				c-7.296,20.873-19.482,51.366-36.557,91.479c-4.063,9.573-8.41,19.698-13.045,30.379l0.858,0.429
				c4.621-10.64,8.999-20.881,13.13-30.723c14.098-33.143,25.538-61.547,34.326-85.214c8.987-24.171,16.052-45.768,21.195-64.79
				c0.465-1.683,0.894-3.371,1.287-5.063c6.008-23.059,9.011-42.11,9.011-57.152C579.176,131.9,579.147,131.385,579.091,131.271
				 M608.782,125.607h-1.202c-1.773,34.154-11.498,77.12-29.177,128.894c-4.062,11.9-9.238,26.202-15.532,42.907
				c4.577-14.417,8.868-28.147,12.872-41.19c16.019-52.233,24.028-87.446,24.028-105.638c0-2.346-0.429-4.091-1.287-5.235
				l-1.287,0.343c-0.809,9.955-2.067,20.11-3.776,30.464c-1.605,10.219-3.637,20.631-6.093,31.236
				c-2.857,12.198-6.26,24.67-10.212,37.416c-1.314,4.348-7.036,21.453-17.163,51.317c-9.497,28.604-14.245,44.825-14.245,48.656
				c0,1.432,0.143,1.746,0.43,0.945l0.943-0.087c2.06-6.235,4.091-12.387,6.094-18.45c0.057-0.114,0.143-0.229,0.257-0.342
				l0.515-0.43c2.176-7.095,6.865-20.768,14.073-41.02c8.238-23.17,14.359-40.877,18.365-53.12
				c15.219-46.34,22.826-80.494,22.826-102.462C609.211,127.867,609.068,126.465,608.782,125.607 M435.522,404.162
				c14.245-7.552,24.743-13.93,31.494-19.137c10.927-8.409,18.422-17.649,22.482-27.718c-2.458,2.115-5.348,5.149-8.667,9.096
				c-5.549,6.579-8.524,10.099-8.925,10.555c-8.066,8.983-17.191,15.989-27.374,21.024c-17.792,8.697-30.351,16.02-37.673,21.97
				c-8.124,6.579-12.186,13.271-12.186,20.08c0,1.431,0.143,1.744,0.429,0.945h0.858c-0.171-7.038,3.719-13.73,11.671-20.081
				C412.209,417.234,421.505,411.656,435.522,404.162 M482.205,137.278c0-0.916-0.057-1.402-0.171-1.459l-0.258,0.085h-1.202
				c-2.115,24.486-4.462,46.168-7.036,65.047c-3.262,23.743-7.209,45.654-11.843,65.734c-1.373,5.722-4.633,18.479-9.783,38.274
				c1.258-12.815,2.803-27.119,4.633-42.907c7.953-69.568,11.929-115.222,11.929-136.961c0-1.087-0.028-1.745-0.085-1.974
				c0-0.229-0.114-0.544-0.344-0.944h-1.202c-2.688,27.403-6.606,71.855-11.756,133.355c-1.716,20.596-3.175,38.616-4.376,54.063
				c-2.131,7.942-4.534,16.896-7.209,26.86c-0.472,1.841-0.958,3.699-1.459,5.578c-0.752,2.815-1.497,5.534-2.23,8.152
				c-5.422,20.562-8.97,34.549-10.642,41.964c-0.687,3.243-1.03,5.244-1.03,6.007c0,1.43,0.287,1.688,0.858,0.772l0.516-0.429
				c0.717-2.45,1.433-4.911,2.145-7.382c6.156-21.394,12.106-43.705,17.85-66.936c-2.231,28.949-3.347,46.454-3.347,52.52
				c0,1.146,0.029,1.859,0.086,2.146c0.114,0.344,0.372,0.743,0.771,1.202l0.516-0.43c-0.915-9.211,0.028-28.861,2.832-58.955
				c3.604-14.76,7.15-29.893,10.642-45.396C475.14,212.337,482.205,166.34,482.205,137.278 M494.477,71.544
				c0.061-0.268,0.117-0.553,0.171-0.858c-0.559,0.339-1.102,0.826-1.631,1.459c-3.573,4.445-5.861,16.144-6.865,35.099
				c-0.342,5.893-0.515,18.135-0.515,36.729c0,1.43,0.143,1.745,0.429,0.944c0.629-0.057,1.088-0.343,1.373-0.858
				C489.072,113.578,491.417,89.406,494.477,71.544 M386.007,407.251c-1.144,2.632-2.689,6.294-4.634,10.985
				c-0.343,0.342-2.146,3.774-5.406,10.298c-3.546,7.036-5.321,11.213-5.321,12.528c0,1.43,0.287,1.688,0.858,0.772
				c0.229-0.573,3.805-7.867,10.727-21.883c4.406-8.868,7.552-16.305,9.44-22.312C390.012,399.297,388.124,402.503,386.007,407.251
				 M461.18,374.042l0.943-0.088c4.348-10.753,12.53-29.691,24.545-56.809c10.812-24.485,18.879-43.651,24.198-57.495
				c17.277-44.681,25.889-82.783,25.83-114.306c-2.631,11.671-6.149,30.321-10.554,55.951c-4.521,23.399-9.869,42.622-16.049,57.667
				c-2.688,6.637-11.929,26.832-27.717,60.586c-14.418,31.522-21.626,49.371-21.626,53.548
				C460.752,374.527,460.893,374.842,461.18,374.042 M431.575,332.935c0,5.949,0.143,10.213,0.429,12.787h0.858
				c2.003-46.97,4.148-84.93,6.436-113.877c3.262-41.706,7.695-79.693,13.301-113.962c-3.146,4.348-7.465,35.642-12.958,93.882
				C434.263,268.459,431.575,308.849,431.575,332.935 M510.095,93.855h-1.201c-1.544,28.491-7.609,69.882-18.192,124.174
				c-5.263,27.003-10.383,52.662-15.361,76.975c0,1.432,0.143,1.746,0.43,0.945h0.857c3.433-12.301,9.869-45.339,19.309-99.117
				c9.727-55.322,14.589-87.674,14.589-97.056C510.524,97.202,510.382,95.229,510.095,93.855 M528.46,114.193
				c-0.058-0.115-0.171-0.315-0.344-0.601h-1.287c0,5.206-2.433,20.481-7.295,45.825c-4.861,25.344-7.294,40.505-7.294,45.482
				c0,1.43,0.143,1.745,0.43,0.943l0.943-0.085c2.06-8.925,5.092-25.572,9.098-49.944c3.889-23.799,5.834-37.129,5.834-39.989
				C528.545,114.852,528.516,114.308,528.46,114.193 M531.12,69.742c0-1.945-0.143-3.347-0.43-4.206h-1.201
				c-0.399,7.438-2.974,19.652-7.724,36.643c-2.345,8.525-4.663,16.791-6.951,24.801c0,1.43,0.287,1.687,0.858,0.772
				c1.946-4.52,5.007-14.617,9.184-30.292C529.033,81.784,531.12,72.545,531.12,69.742 M594.708,87.591
				c-0.057-0.172-0.086,0.172-0.086,1.03c0,11.385-1,22.598-3.003,33.64c-2.003,11.098-3.004,17.42-3.004,18.965
				c0,1.431,0.287,1.802,0.858,1.115l0.943-0.943c0.744-6.065,1.804-12.787,3.177-20.166c0.171-1.087,1.372-7.237,3.604-18.45
				V87.848h-2.489V87.591 M563.814,74.976l-0.085,5.492c0,21.454-1.574,43.108-4.72,64.962c-1.544,10.87-3.118,21.596-4.72,32.181
				c0,1.43,0.286,1.687,0.857,0.772l0.943-0.944c0.23-1.602,2.318-14.331,6.266-38.188c2.632-15.562,3.947-28.09,3.947-37.586
				c-0.571-11.786-1.001-20.682-1.287-26.689H563.814z"/>
			<path fill="#291C16" d="M571.023,226.01h-1.202c-0.674,3.065-1.702,8.157-3.089,15.275c-1.191,6.202-2.649,13.927-4.376,23.17
				c-3.032,16.134-5.836,29.177-8.41,39.131c-1.565,6.148-3.282,12.099-5.149,17.851c-1.686,5.27-3.486,10.359-5.405,15.275
				c-6.456,16.528-14.265,31.373-23.428,44.537c0.286,0.344,0.716,0.516,1.287,0.516c15.39-22.026,26.918-48.086,34.584-78.179
				c2.631-10.354,5.379-23.397,8.238-39.131c1.957-10.991,3.501-19.659,4.634-26.001C570.01,231.313,570.78,227.166,571.023,226.01z
				"/>
			<path fill="#72421F" d="M567.677,202.497c0.438-2.543,0.838-5.032,1.201-7.466c-5.144,19.021-12.208,40.619-21.195,64.79
				c-8.788,23.667-20.229,52.071-34.326,85.214c0.753,0.114,1.525,0.172,2.316,0.172c2.06,0,4.778-2.288,8.152-6.865
				c0.964,1.016,2.08,1.786,3.348,2.317c1.501-4.425,2.474-7.198,2.918-8.325c2.918-7.609,5.979-13.301,9.182-17.075
				c-2.426,6.381-5.629,15.104-9.611,26.173c0.989,0.229,2.047,0.343,3.175,0.343c4.369,0,7.886-1.687,10.556-5.063
				c1.919-4.916,3.72-10.006,5.405-15.275c0.566-3.985,0.796-8.478,0.688-13.473c-0.228-4.692-0.344-7.294-0.344-7.81
				c0-9.326-0.943-16.82-2.831-22.483c4.348-8.524,8.267-17.307,11.756-26.345l0.086-0.085c1.201-5.207,2.088-9.354,2.66-12.443
				C564.015,222.949,566.304,210.849,567.677,202.497 M591.19,81.841c-1.088-0.858-2.288-1.66-3.604-2.403
				c-2.061-1.888-4.49-3.69-7.295-5.406c-9.727-5.893-21.539-9.611-35.442-11.156c-14.017-1.603-25.801-0.487-35.354,3.346
				c-2.003,0.801-3.805,1.688-5.407,2.661c-3.357,0.709-6.56,1.597-9.61,2.66c-3.061,17.863-5.405,42.034-7.038,72.513
				c-0.285,0.516-0.744,0.801-1.373,0.858c-0.286,0.801-0.429,0.486-0.429-0.944c0-18.593,0.173-30.836,0.515-36.729
				c1.004-18.955,3.292-30.653,6.865-35.099c-6.423,2.495-12.144,5.899-17.163,10.212c-2.631,2.231-4.834,4.605-6.607,7.123
				c-3.204,1.087-6.606,2.688-10.212,4.805c-8.638,5.092-15.904,11.557-21.796,19.395c-4.92,6.579-8.01,13.072-9.268,19.479
				c-5.035,10.584-7.553,20.624-7.553,30.122l-0.085,0.686c-0.801,1.66-1.487,3.576-2.06,5.75c-0.972,3.604-1.488,8.724-1.545,15.36
				c-0.686,3.147-1.144,6.551-1.373,10.212c6.637-25.401,10.755-40.047,12.357-43.938c-2.288,10.698-5.578,24-9.869,39.904
				c-0.743,2.689-1.573,5.807-2.488,9.354c0.057,1.545,0.172,4.691,0.343,9.44c0.081,1.156,0.166,2.301,0.258,3.433
				c1.254-5.704,2.685-12.111,4.291-19.223c8.009-35.413,14.502-60.585,19.479-75.517c-2.746,13.158-7.666,34.898-14.76,65.219
				c-3.218,13.821-6.021,26.036-8.41,36.643c0.096,1.937,0.267,3.796,0.515,5.578c-0.057,1.03-0.086,2.088-0.086,3.175
				c0,0.057,0.058,2.889,0.172,8.495c0.057,0.858,0.115,1.716,0.172,2.575c-0.057,0.4-0.115,0.83-0.172,1.287c0,0.4,0,0.772,0,1.116
				c-0.4,5.664,0.115,13.472,1.544,23.426c0,4.291-0.171,9.354-0.514,15.19c-2.689,4.175-5.121,8.868-7.294,14.074
				c-2.163,5.141-3.736,10.116-4.72,14.93c0.485,7.01,1.143,13.788,1.974,20.34c0.83,0.987,1.773,1.788,2.832,2.401v0.087
				c-0.179,0.945-0.752,2.632-1.716,5.063c0.77,4.716,1.628,9.295,2.574,13.729c-1.315-3.077-2.488-6.824-3.518-11.241
				c-1.432,3.652-3.462,8.488-6.092,14.503c-7.037,16.134-14.532,31.352-22.483,45.653c-0.458,0.857-0.945,1.716-1.459,2.574
				c-1.144,2.347-2.517,4.921-4.119,7.724c-0.915,1.602-1.773,3.091-2.575,4.463c-2.746,6.636-5.921,14.444-9.526,23.427
				l-0.858,0.945c-0.458-0.229-0.715-0.4-0.772-0.517c-0.057-0.228-0.086-0.858-0.086-1.887c0-1.773,0.83-4.834,2.489-9.182
				c-5.034,7.322-9.897,13.586-14.589,18.792h7.809h3.948h6.608h7.294c0.4-0.458,0.8-0.943,1.201-1.458
				c9.612-11.442,19.423-25.802,29.435-43.079c2.861-4.92,5.578-9.812,8.152-14.675c2.346,3.262,6.065,4.892,11.156,4.892
				c1.928,0,3.703-0.286,5.321-0.857c1.672-7.415,5.219-21.402,10.642-41.964c-0.587-1.158-1.302-2.159-2.146-3.004
				c-0.115-0.113-0.2-0.201-0.257-0.258c1.544-4.404,2.832-9.954,3.862-16.646c1.418,1.418,2.161,3.476,2.23,6.178
				c2.675-9.964,5.078-18.918,7.209-26.86c1.201-15.447,2.66-33.468,4.376-54.063c5.149-61.5,9.067-105.952,11.756-133.355h1.202
				c0.229,0.4,0.344,0.715,0.344,0.944c0.057,0.229,0.085,0.887,0.085,1.974c0,21.739-3.976,67.393-11.929,136.961
				c-1.83,15.788-3.375,30.092-4.633,42.907c5.15-19.795,8.41-32.553,9.783-38.274c4.634-20.081,8.581-41.992,11.843-65.734
				c2.574-18.879,4.921-40.562,7.036-65.047h1.202l0.258-0.085c0.114,0.057,0.171,0.543,0.171,1.459
				c0,29.063-7.064,75.059-21.195,137.989c-3.491,15.504-7.038,30.637-10.642,45.396c-2.803,30.094-3.747,49.744-2.832,58.955
				l-0.516,0.43c-0.399-0.459-0.658-0.858-0.771-1.202c-0.057-0.286-0.086-1-0.086-2.146c0-6.065,1.116-23.57,3.347-52.52
				c-5.743,23.23-11.693,45.542-17.85,66.936c2.075-1.163,3.877-2.851,5.406-5.062c1.716,0.228,3.604,0.342,5.664,0.342
				c12.13,0,22.283-3.831,30.464-11.498c5.55-5.205,8.954-10.641,10.213-16.305c2.518-2.289,5.234-5.436,8.152-9.439
				c5.492-11.442,10.097-22.971,13.815-34.584c0.515-1.545,1.001-3.089,1.46-4.634c0.229,0.687,0.456,1.372,0.686,2.06
				c-0.344,1.029-0.658,2.06-0.943,3.089c-1.659,3.203-2.775,6.437-3.348,9.697c-2.688,7.665-5.348,14.675-7.979,21.025
				c2.345-2.575,4.404-5.836,6.178-9.783c0.515-0.401,1.029-0.773,1.546-1.116c0.171,0.915,0.398,1.803,0.686,2.661
				c1.488,4.137,4.406,6.597,8.754,7.38c17.074-40.113,29.261-70.606,36.557-91.479c9.844-28.118,17.222-54.462,22.139-79.035
				c0.23-3.177,0.344-6.181,0.344-9.01c0-0.916-0.286-2.689-0.857-5.321c-0.572-2.575-0.858-4.177-0.858-4.805
				c0-0.745,0.545-1.345,1.631-1.803c0.687-0.286,1.287-0.429,1.802-0.429v10.727c2.013-11.41,3.471-22.423,4.376-33.039h1.202
				c0.172,0.286,0.286,0.458,0.344,0.516c0.057,0.114,0.085,0.628,0.085,1.544c0,15.042-3.003,34.094-9.011,57.152
				c-2.576,14.221-5.522,32.384-8.838,54.492c-0.229,1.431-0.459,2.832-0.687,4.206c2.277-2.468,4.309-4.929,6.092-7.381
				c1.387-7.118,2.415-12.21,3.089-15.275h1.202c-0.243,1.156-1.014,5.303-2.316,12.443c3.105-4.651,5.31-9.256,6.607-13.816
				c1.372-5.207,3.805-9.668,7.294-13.388c1.5-1.577,3.072-2.864,4.72-3.861c2.456-10.605,4.487-21.017,6.093-31.236
				c-0.342-0.963-0.515-1.935-0.515-2.918c0-3.604,0.744-11.699,2.23-24.286c1.546-12.415,2.375-19.08,2.489-19.995
				c1.43-10.012,2.146-17.563,2.146-22.655c0.628-9.039,3.089-11.699,7.38-7.98c1.659,1.373,3.117,3.375,4.378,6.007
				c1.313,2.631,1.973,4.892,1.973,6.78c0,4.977-1.373,16.791-4.118,35.441c-0.517,3.546-1.031,6.807-1.546,9.782
				c0.344,2.575,0.515,5.75,0.515,9.526c0,7.666-1.372,21.11-4.118,40.333c-0.113,0.629-0.2,1.287-0.258,1.974
				c0.384,0.482,0.728,0.997,1.029,1.544c2.485-14.118,4.688-29.221,6.608-45.31c2.473-20.232,4.504-42,6.093-65.305
				c0.014-0.207,0.014-0.407,0-0.601c0.157-2.164,0.157-3.508,0-4.034c-1.315-3.318-2.89-5.75-4.72-7.294
				c-8.501-7.234-18.055-13.298-28.662-18.193C588.746,73.203,591.034,77.494,591.19,81.841 M563.729,80.468l0.085-5.492h1.202
				c0.286,6.007,0.716,14.903,1.287,26.689c0,9.497-1.315,22.025-3.947,37.586c-3.947,23.856-6.035,36.585-6.266,38.188
				l-0.943,0.944c-0.571,0.915-0.857,0.658-0.857-0.772c1.602-10.584,3.176-21.311,4.72-32.181
				C562.155,123.576,563.729,101.922,563.729,80.468 M594.622,88.621c0-0.858,0.029-1.202,0.086-1.03v0.257h2.489v14.932
				c-2.231,11.213-3.433,17.363-3.604,18.45c-1.373,7.38-2.433,14.102-3.177,20.166l-0.943,0.943
				c-0.571,0.687-0.858,0.315-0.858-1.115c0-1.544,1.001-7.867,3.004-18.965C593.622,111.218,594.622,100.005,594.622,88.621
				 M530.69,65.536c0.287,0.858,0.43,2.26,0.43,4.206c0,2.803-2.087,12.042-6.264,27.718c-4.177,15.676-7.237,25.773-9.184,30.292
				c-0.571,0.915-0.858,0.658-0.858-0.772c2.288-8.01,4.606-16.276,6.951-24.801c4.75-16.991,7.324-29.205,7.724-36.643H530.69
				 M528.116,113.593c0.173,0.286,0.286,0.486,0.344,0.601c0.057,0.114,0.085,0.658,0.085,1.631c0,2.86-1.945,16.19-5.834,39.989
				c-4.006,24.372-7.038,41.02-9.098,49.944l-0.943,0.085c-0.287,0.801-0.43,0.486-0.43-0.943c0-4.977,2.433-20.138,7.294-45.482
				c4.862-25.344,7.295-40.62,7.295-45.825H528.116 M508.893,93.855h1.201c0.287,1.374,0.43,3.347,0.43,5.922
				c0,9.382-4.862,41.734-14.589,97.056c-9.439,53.777-15.876,86.816-19.309,99.117h-0.857c-0.287,0.801-0.43,0.486-0.43-0.945
				c4.979-24.313,10.099-49.972,15.361-76.975C501.284,163.737,507.349,122.346,508.893,93.855 M432.003,345.722
				c-0.286-2.574-0.429-6.838-0.429-12.787c0-24.086,2.689-64.477,8.067-121.17c5.492-58.24,9.812-89.534,12.958-93.882
				c-5.606,34.269-10.04,72.256-13.301,113.962c-2.288,28.947-4.433,66.907-6.436,113.877H432.003 M462.124,373.954l-0.943,0.088
				c-0.287,0.801-0.429,0.485-0.429-0.945c0-4.177,7.208-22.025,21.626-53.548c15.788-33.754,25.028-53.949,27.717-60.586
				c6.18-15.045,11.528-34.268,16.049-57.667c4.404-25.63,7.923-44.28,10.554-55.951c0.059,31.522-8.553,69.625-25.83,114.306
				c-5.319,13.844-13.387,33.01-24.198,57.495C474.654,344.262,466.471,363.201,462.124,373.954 M381.373,418.236
				c1.945-4.691,3.49-8.354,4.634-10.985c2.117-4.748,4.005-7.953,5.664-9.61c-1.888,6.007-5.034,13.443-9.44,22.312
				c-6.922,14.016-10.498,21.31-10.727,21.883c-0.572,0.915-0.858,0.657-0.858-0.772c0-1.315,1.774-5.492,5.321-12.528
				C379.227,422.01,381.03,418.578,381.373,418.236 M517.389,247.463h1.287c0.286,1.374,0.429,3.633,0.429,6.779
				c0,6.351-0.772,13.703-2.316,22.055c-0.059-0.059-0.143-0.115-0.258-0.172c-0.686-0.342-1.345-0.629-1.973-0.858
				C515.93,266.171,516.875,256.904,517.389,247.463z"/>
			<path fill="#5F3516" d="M570.165,189.968c-0.394,1.693-0.822,3.38-1.287,5.063c-0.363,2.434-0.764,4.922-1.201,7.466
				c-1.373,8.352-3.661,20.452-6.865,36.299c-0.572,3.089-1.459,7.237-2.66,12.443l-0.086,0.085
				c-3.489,9.039-7.408,17.821-11.756,26.345c1.888,5.663,2.831,13.157,2.831,22.483c0,0.516,0.116,3.117,0.344,7.81
				c0.108,4.995-0.121,9.487-0.688,13.473c1.867-5.752,3.584-11.702,5.149-17.851c2.574-9.954,5.378-22.997,8.41-39.131
				c1.727-9.243,3.185-16.968,4.376-23.17c-1.783,2.452-3.814,4.913-6.092,7.381c0.228-1.374,0.457-2.775,0.687-4.206
				C564.642,222.352,567.589,204.189,570.165,189.968 M443.503,336.454c-0.069-2.702-0.813-4.76-2.23-6.178
				c-1.03,6.692-2.317,12.242-3.862,16.646c0.057,0.057,0.143,0.145,0.257,0.258c0.844,0.845,1.559,1.846,2.146,3.004
				c0.734-2.618,1.478-5.337,2.23-8.152C442.544,340.153,443.031,338.295,443.503,336.454 M408.147,330.791
				c0.375,2.569,0.748,5.087,1.115,7.551c0.964-2.431,1.537-4.117,1.716-5.063v-0.087
				C409.92,332.579,408.977,331.778,408.147,330.791 M381.459,305.904c-0.927,2.062-1.814,4.579-2.661,7.551
				c-0.754,2.602-1.498,7.205-2.231,13.817c-1.533,5.403-3.22,10.382-5.063,14.931c-11.707,28.905-28.67,53.762-50.888,74.573
				c20.653-17.915,34.955-34.649,42.907-50.201c4.616-8.982,8.62-18.593,12.014-28.834c3.823-11.456,6.884-23.699,9.183-36.729
				C383.588,302.125,382.501,303.754,381.459,305.904 M571.108,174.436c0.755-3.579,1.442-7.125,2.061-10.641v-10.727
				c-0.515,0-1.115,0.143-1.802,0.429c-1.086,0.458-1.631,1.058-1.631,1.803c0,0.628,0.286,2.23,0.858,4.805
				c0.571,2.631,0.857,4.405,0.857,5.321C571.452,168.255,571.339,171.259,571.108,174.436 M613.502,111.105
				c0-1.888-0.659-4.148-1.973-6.78c-1.261-2.631-2.719-4.634-4.378-6.007c-4.291-3.718-6.752-1.059-7.38,7.98
				c0,5.092-0.716,12.644-2.146,22.655c-0.114,0.915-0.943,7.58-2.489,19.995c-1.486,12.586-2.23,20.681-2.23,24.286
				c0,0.983,0.173,1.955,0.515,2.918c1.709-10.354,2.968-20.509,3.776-30.464l1.287-0.343c0.858,1.144,1.287,2.889,1.287,5.235
				c0,18.192-8.01,53.405-24.028,105.638c-4.004,13.043-8.295,26.773-12.872,41.19c6.294-16.705,11.471-31.007,15.532-42.907
				c17.679-51.774,27.403-94.74,29.177-128.894h1.202c0.286,0.858,0.429,2.26,0.429,4.206c0,21.968-7.607,56.122-22.826,102.462
				c-4.006,12.243-10.127,29.95-18.365,53.12c-7.208,20.252-11.897,33.925-14.073,41.02l-0.515,0.43
				c-0.114,0.113-0.2,0.228-0.257,0.342c-2.003,6.063-4.034,12.215-6.094,18.45l-0.943,0.087c-0.287,0.801-0.43,0.486-0.43-0.945
				c0-3.831,4.748-20.053,14.245-48.656c10.127-29.864,15.849-46.969,17.163-51.317c3.952-12.746,7.354-25.217,10.212-37.416
				c-1.647,0.997-3.22,2.284-4.72,3.861c-3.489,3.719-5.922,8.181-7.294,13.388c-1.298,4.56-3.502,9.165-6.607,13.816
				c-1.133,6.343-2.677,15.011-4.634,26.001c-2.859,15.733-5.607,28.776-8.238,39.131c-7.666,30.093-19.194,56.152-34.584,78.179
				c-0.571,0-1.001-0.172-1.287-0.516c9.163-13.164,16.972-28.009,23.428-44.537c-2.67,3.376-6.187,5.063-10.556,5.063
				c-1.128,0-2.186-0.114-3.175-0.343c-1.362,3.852-2.822,7.972-4.376,12.356c-5.551,14.99-10.899,27.461-16.048,37.417h-0.858
				c-0.287,0.801-0.43,0.485-0.43-0.945c0-0.802,2.231-6.35,6.694-16.647c4.977-11.499,7.923-18.68,8.838-21.541
				c1.48-4.552,2.711-8.356,3.691-11.412c-1.268-0.531-2.384-1.302-3.348-2.317c-3.374,4.577-6.093,6.865-8.152,6.865
				c-0.791,0-1.563-0.058-2.316-0.172c-4.131,9.842-8.509,20.083-13.13,30.723l-0.858-0.429
				c4.635-10.681,8.982-20.806,13.045-30.379c-4.348-0.783-7.266-3.243-8.754-7.38c-0.287-0.858-0.515-1.746-0.686-2.661
				c-0.517,0.343-1.031,0.715-1.546,1.116c-1.773,3.947-3.833,7.208-6.178,9.783c2.632-6.351,5.291-13.36,7.979-21.025
				c0.572-3.261,1.688-6.494,3.348-9.697c0.285-1.029,0.6-2.06,0.943-3.089c-0.229-0.688-0.457-1.373-0.686-2.06
				c-0.459,1.545-0.945,3.089-1.46,4.634c-3.719,11.613-8.323,23.142-13.815,34.584c-2.918,4.004-5.635,7.15-8.152,9.439
				c-1.259,5.664-4.663,11.1-10.213,16.305c-8.181,7.667-18.334,11.498-30.464,11.498c-2.059,0-3.947-0.114-5.664-0.342
				c-1.529,2.211-3.331,3.898-5.406,5.062c-0.712,2.471-1.428,4.932-2.145,7.382L429,398.927c-0.571,0.915-0.858,0.657-0.858-0.772
				c0-0.763,0.343-2.764,1.03-6.007c-1.618,0.571-3.393,0.857-5.321,0.857c-5.091,0-8.81-1.63-11.156-4.892
				c-2.575,4.863-5.292,9.755-8.152,14.675c-10.011,17.277-19.823,31.637-29.435,43.079c-0.4,0.515-0.801,1-1.201,1.458H380h6.951
				h10.899c-0.445,0.568-0.903,1.14-1.373,1.716h9.182c0.858-0.915,1.745-1.83,2.66-2.745c2.002-1.259,5.149-3.461,9.44-6.607
				c7.266-5.549,11.528-8.726,12.787-9.526c3.947-2.401,7.123-4.404,9.525-6.007c0.172-0.057,0.315-0.086,0.429-0.086
				c0.286,0,0.572,0,0.858,0c1.178-0.901,2.323-1.76,3.433-2.574c3.559-0.122,6.448-1.009,8.667-2.66
				c0.203-0.202,0.404-0.403,0.602-0.6c2.983-0.652,6.132-1.226,9.44-1.717c5.376-0.801,13.415-1.889,24.113-3.262
				c1.929-0.333,3.816-0.733,5.663-1.201c0.526-0.099,1.041-0.213,1.546-0.344c1.488-0.382,2.948-0.812,4.376-1.287
				c-1.272,0.07-2.502-0.101-3.69-0.515c1.188,0.414,2.418,0.585,3.69,0.515c10.846-3.384,20.456-8.818,28.833-16.305
				c0.182-0.104,0.353-0.218,0.515-0.342c0.283-0.318,0.568-0.632,0.858-0.945c6.636-7.094,12.872-15.504,18.708-25.229
				c4.118-6.58,8.896-15.39,14.331-26.432c1.838-3.707,3.613-7.398,5.321-11.07c2.075-5.213,3.734-9.388,4.976-12.528
				c2.025-5.146,4.4-10.295,7.124-15.447c0.015,0,0.015-0.026,0-0.085c3.433-8.648,6.521-17.23,9.267-25.745
				c2.987-9.286,5.763-19.3,8.325-30.035c2.754-11.358,5.271-23.544,7.551-36.558c-0.302-0.547-0.646-1.062-1.029-1.544
				c0.058-0.687,0.145-1.344,0.258-1.974c2.746-19.223,4.118-32.667,4.118-40.333c0-3.776-0.171-6.951-0.515-9.526
				c0.515-2.975,1.029-6.236,1.546-9.782C612.129,127.896,613.502,116.082,613.502,111.105 M467.016,385.025
				c-6.751,5.207-17.249,11.585-31.494,19.137c-14.017,7.494-23.313,13.072-27.89,16.734c-7.952,6.351-11.842,13.043-11.671,20.081
				h-0.858c-0.286,0.799-0.429,0.485-0.429-0.945c0-6.809,4.062-13.501,12.186-20.08c7.323-5.95,19.881-13.272,37.673-21.97
				c10.183-5.035,19.308-12.041,27.374-21.024c0.4-0.456,3.376-3.976,8.925-10.555c3.319-3.946,6.209-6.98,8.667-9.096
				C485.438,367.376,477.943,376.616,467.016,385.025 M518.677,247.463h-1.287c-0.515,9.44-1.459,18.708-2.831,27.804
				c0.628,0.229,1.287,0.517,1.973,0.858c0.115,0.057,0.199,0.113,0.258,0.172c1.544-8.352,2.316-15.704,2.316-22.055
				C519.105,251.097,518.963,248.837,518.677,247.463 M584.325,68.969c-4.236-1.92-8.641-3.666-13.217-5.234
				c-7.292-2.484-14.672-4.4-22.139-5.75c-0.9,0.315-1.758,0.687-2.574,1.115c-2.805-1.087-6.036-1.917-9.698-2.488
				c-6.749-1.03-14.101-1.088-22.054-0.172c-0.223-0.169-0.452-0.34-0.687-0.516c-20.058,1.048-38.622,5.881-55.694,14.503
				c-7.445,3.723-14.482,8.357-21.11,13.902c-0.241,0.782-0.384,1.525-0.429,2.231c-1.198,1.146-2.399,2.434-3.604,3.862
				c-0.8,0.679-1.601,1.365-2.403,2.06c-10.225,8.837-18.235,19.507-24.028,32.009c-6.964,19.72-10.968,42.918-12.014,69.595
				c-0.168,4.313-0.369,8.632-0.6,12.959c-0.08,3.196-0.166,6.628-0.258,10.297c-0.145,0.567-0.288,1.14-0.429,1.716
				c-1.414,22.38-3.56,44.808-6.437,67.278c-0.64,4.998-1.384,9.891-2.23,14.674c-2.299,13.03-5.359,25.273-9.183,36.729
				c-3.394,10.241-7.398,19.852-12.014,28.834c-7.952,15.552-22.254,32.286-42.907,50.201c-0.881,0.823-1.768,1.624-2.66,2.403
				c-3.134,2.869-6.366,5.644-9.697,8.323c-5.345,4.313-11.781,9.317-19.308,15.018c-1.895,0.744-3.039,1.603-3.433,2.575
				c-0.244,0.693-0.129,1.438,0.343,2.23h37.416h4.119c3.121-4.205,6.896-9.297,11.328-15.274c3.105-4.201,5.966-8.12,8.582-11.757
				c4.757-6.643,8.705-12.365,11.842-17.163c4.633-7.094,9.611-16.905,14.931-29.434c6.122-14.359,10.27-23.542,12.443-27.546
				c-2.059,9.152-5.435,18.936-10.126,29.348c-4.691,10.411-10.155,20.194-16.391,29.348c-2.741,4.057-6.459,9.549-11.156,16.478
				c-2.664,3.917-5.639,8.293-8.925,13.129c-3.346,4.708-6.606,8.999-9.783,12.872H331h17.248
				c4.691-5.206,9.555-11.47,14.589-18.792c-1.66,4.348-2.489,7.408-2.489,9.182c0,1.028,0.029,1.659,0.086,1.887
				c0.057,0.116,0.314,0.287,0.772,0.517l0.858-0.945c3.604-8.982,6.78-16.791,9.526-23.427c0.801-1.372,1.66-2.861,2.575-4.463
				c1.602-2.803,2.975-5.377,4.119-7.724c0.515-0.858,1.001-1.717,1.459-2.574c7.952-14.302,15.446-29.52,22.483-45.653
				c2.63-6.015,4.66-10.851,6.092-14.503c-1.05-4.68-1.937-10.115-2.66-16.305c-0.458-1.624-0.687-2.452-0.687-2.489
				c0-1.028,0.029-2.088,0.086-3.174c-0.186-1.972-0.358-4.029-0.515-6.178c-0.858-11.386-1.287-25.975-1.287-43.766
				c0-22.771,1.402-47.829,4.205-75.175c3.547-34.383,8.152-55.694,13.816-63.932l1.545,0.172c1.087,0.114,1.716,0.343,1.887,0.686
				c-6.637,3.146-11.842,23.599-15.618,61.358c-2.746,27.518-4.12,53.176-4.12,76.976c0,16.419,0.4,30.234,1.202,41.447
				c0.984-4.813,2.557-9.789,4.72-14.93c2.174-5.206,4.605-9.899,7.294-14.074c0.343-5.836,0.514-10.899,0.514-15.19
				c-1.43-9.954-1.945-17.763-1.544-23.426c0-0.344,0-0.716,0-1.116c0.057-0.458,0.115-0.887,0.172-1.287
				c-0.057-0.858-0.115-1.716-0.172-2.575c-0.114-5.606-0.172-8.438-0.172-8.495c0-1.087,0.029-2.146,0.086-3.175
				c-0.248-1.782-0.419-3.641-0.515-5.578c-2.455,11.135-4.458,20.518-6.007,28.147h-0.858c-0.286,0.801-0.429,0.486-0.429-0.944
				c0-2.546,2.231-13.988,6.694-34.326c-0.092-1.131-0.178-2.276-0.258-3.433c-0.171-4.749-0.286-7.895-0.343-9.44
				c0.915-3.547,1.745-6.665,2.488-9.354c4.291-15.904,7.581-29.206,9.869-39.904c-1.602,3.89-5.72,18.537-12.357,43.938
				c0.229-3.662,0.687-7.065,1.373-10.212c0.057-6.636,0.573-11.756,1.545-15.36c0.572-2.174,1.258-4.09,2.06-5.75l0.085-0.686
				c0-9.498,2.518-19.537,7.553-30.122c1.258-6.408,4.348-12.901,9.268-19.479c5.892-7.838,13.158-14.303,21.796-19.395
				c3.605-2.117,7.008-3.718,10.212-4.805c1.773-2.518,3.977-4.892,6.607-7.123c5.02-4.313,10.74-7.717,17.163-10.212
				c0.529-0.633,1.072-1.12,1.631-1.459c-0.054,0.305-0.11,0.591-0.171,0.858c3.051-1.063,6.253-1.951,9.61-2.66
				c1.603-0.973,3.404-1.859,5.407-2.661c9.554-3.833,21.338-4.949,35.354-3.346c13.903,1.544,25.716,5.263,35.442,11.156
				c2.805,1.716,5.234,3.518,7.295,5.406c1.315,0.743,2.516,1.544,3.604,2.403C591.034,77.494,588.746,73.203,584.325,68.969z"/>
			<path fill="#D5786A" d="M669.883,277.413c0.47-0.379,0.956-0.751,1.458-1.115c-0.171,0-0.372,0.086-0.6,0.257
				C670.332,276.881,670.047,277.168,669.883,277.413 M682.497,273.98l-0.688-0.771c-0.628-0.171-1.229-0.313-1.802-0.429
				c0.979,0.416,1.809,0.845,2.489,1.287V273.98 M680.008,272.78c-1.17-0.194-2.2-0.251-3.089-0.173
				c-2.011,1.188-3.871,2.419-5.578,3.69c-0.502,0.364-0.988,0.736-1.458,1.115c-0.082,0.091-0.139,0.176-0.173,0.258
				c-0.057,0.057-0.085,0.201-0.085,0.429c-0.458,0.401-0.802,0.916-1.029,1.546l0.171,0.858c0.057,0.057,0.145,0.143,0.258,0.256
				c0.058,0.116,0.143,0.259,0.257,0.43c0.458,0.687,0.83,1.03,1.116,1.03c0.686,0.686,1.517,1.114,2.489,1.287
				c0.628,0.342,1.313,0.601,2.058,0.771c0.173,0.057,0.373,0.113,0.603,0.173c2.401,0.915,3.976,1.372,4.72,1.372
				c0.344,0,0.658-0.144,0.943-0.429c0.114,0.057,0.258,0.114,0.429,0.171c0.105-0.104,0.191-0.22,0.259-0.342
				c-5.435-0.473-8.98-1.79-10.642-3.949c1.661,2.159,5.207,3.477,10.642,3.949c0.197-0.143,0.368-0.285,0.514-0.43
				c0.172-0.113,0.371-0.258,0.601-0.429c0.801-0.573,1.287-1.002,1.46-1.287c0.515-1.031,0.771-1.946,0.771-2.747
				c0-0.515-0.085-0.858-0.256-1.029l0.256-1.889l-2.745-3.346C681.816,273.625,680.987,273.196,680.008,272.78 M673.228,270.206
				c-0.236,0.526-0.552,1.24-0.943,2.146c1.56-2.476,3.019-4.679,4.376-6.609c-0.505,0.646-0.962,1.188-1.373,1.631
				C674.43,268.117,673.745,269.061,673.228,270.206 M685.93,257.161c-0.003-0.021-0.033-0.049-0.085-0.086
				c-0.09-0.09-0.203-0.176-0.344-0.258h-0.086C685.595,256.946,685.766,257.062,685.93,257.161 M684.128,258.104
				c-0.075,0.096-0.189,0.181-0.344,0.258c0.754-0.432,1.469-0.803,2.146-1.116v-0.085c-0.163-0.099-0.335-0.215-0.515-0.344
				l-0.085,0.087C684.928,257.075,684.528,257.476,684.128,258.104 M683.784,258.362c-0.422,0.488-1.166,1.088-2.23,1.802
				c-0.98,0.88-1.981,1.909-3.004,3.09c-0.119,0.219-0.262,0.449-0.429,0.687c-0.515,0.667-1.001,1.269-1.46,1.802
				c-1.357,1.931-2.816,4.134-4.376,6.609c-0.438,1.028-0.982,2.316-1.631,3.861c0.402-0.344,0.602-0.344,0.602,0l0.085,0.085
				c1.707-1.271,3.567-2.502,5.578-3.69c-0.077,0.042-0.164,0.069-0.258,0.086c0.344-0.515,0.658-0.915,0.945-1.2l1.629-0.688
				c1.088,0.058,2.089-0.457,3.004-1.545c0.344-0.114,0.915-0.486,1.716-1.115c0.058-0.059,0.114-0.085,0.173-0.085
				c0.057,0,0.114,0,0.171,0c0.344,0.057,1.116-0.716,2.318-2.318c1.143-1.601,1.716-2.574,1.716-2.918
				c0.057-0.342-0.144-0.6-0.602-0.771c0.229-0.344,0.344-0.858,0.344-1.546c0.057-0.344-0.086-0.657-0.43-0.943
				c-0.113-0.115-0.201-0.199-0.258-0.258c0-0.058,0-0.114,0-0.171c0-0.116-0.057-0.259-0.171-0.43
				c-0.228-0.286-0.457-0.429-0.687-0.429c-0.114-0.4-0.285-0.688-0.516-0.858c-0.012-0.059-0.04-0.115-0.085-0.173
				C685.253,257.559,684.538,257.93,683.784,258.362 M681.554,260.164c-0.245,0.17-0.503,0.341-0.772,0.515
				c-0.58,0.533-1.324,1.392-2.231,2.575C679.572,262.073,680.573,261.044,681.554,260.164z"/>
			<path fill="#DC9F7E" d="M684.813,237.423c0.37-0.111,0.686-0.168,0.945-0.171c-0.447-0.777-1.535-0.548-3.262,0.687
				c-1.438,1.049-2.896,2.45-4.376,4.205c1.154-0.73,2.127-1.474,2.918-2.231C682.411,238.54,683.671,237.71,684.813,237.423
				 M685.759,237.252c-0.26,0.003-0.575,0.061-0.945,0.171c-1.143,0.286-2.402,1.116-3.774,2.489
				c-0.791,0.757-1.764,1.501-2.918,2.231c-0.637,0.84-1.296,1.755-1.975,2.746c1.545-0.343,3.575-1.144,6.093-2.403
				c2.46-1.315,4.177-2.574,5.148-3.776c0.721-0.989,0.605-1.218-0.342-0.687c-0.25,0.188-0.564,0.417-0.945,0.687
				C686.1,238.084,685.986,237.597,685.759,237.252z"/>
			<path fill="#8283BF" d="M647.313,202.068c-0.577-0.248-1.148-0.505-1.717-0.772c-0.02-0.02-0.049-0.049-0.085-0.085
				c-0.344-0.172-0.545-0.287-0.603-0.344c-0.157-0.079-0.301-0.165-0.429-0.257c0.021,0.075,0.021,0.132,0,0.172
				c0.101,0.148,0.188,0.292,0.258,0.429c0.285,0.229,1.116,0.543,2.489,0.944C647.253,202.123,647.283,202.093,647.313,202.068
				 M643.71,197.005c0.026,0.071,0.026,0.129,0,0.171c0.013,0.298,0.013,0.584,0,0.858c0.041,0.1,0.07,0.186,0.085,0.257
				c0.081,0.646,0.251,1.275,0.515,1.888c0.049,0.169,0.105,0.313,0.171,0.429c0.128,0.092,0.271,0.179,0.429,0.257
				c0.058,0.057,0.259,0.172,0.603,0.344c0.036,0.037,0.065,0.065,0.085,0.085c0.568,0.268,1.14,0.524,1.717,0.772
				c0.214-0.263,0.415-0.52,0.6-0.772v-0.085c-0.711-0.649-1.166-1.307-1.373-1.975c-0.229-0.743-0.199-1.688,0.086-2.832
				c0.208-1.086,0.779-1.83,1.716-2.231c-0.12-0.377-0.291-0.778-0.515-1.202l-2.83,0.858
				C644.265,194.838,643.837,195.897,643.71,197.005 M645.253,193.487c-0.087,0.109-0.172,0.224-0.256,0.343l2.83-0.858l0,0
				L645.253,193.487z"/>
			<path fill="#E4B79E" d="M652.548,203.441c-0.138-0.029-0.28-0.086-0.43-0.172c-0.508,0.271-0.192,2.272,0.943,6.007
				c1.146,3.89,1.288,10.355,0.43,19.395c-0.399,4.52-0.915,9.268-1.544,14.245c2.174-3.718,3.404-8.496,3.689-14.331
				c0.343-6.75,0-12.672-1.029-17.764c-0.655-3.104-1.2-5.249-1.631-6.436C652.817,203.968,652.673,203.653,652.548,203.441
				 M652.548,203.441c-0.131-0.136-0.247-0.194-0.344-0.172c-0.034,0.003-0.063,0.003-0.086,0
				C652.267,203.355,652.41,203.412,652.548,203.441z"/>
			<path d="M649.2,195.374c-0.113-0.515-0.285-0.944-0.515-1.288c-0.062,0.019-0.119,0.019-0.171,0
				c-0.045,0.045-0.104,0.075-0.173,0.086c-0.937,0.401-1.508,1.145-1.716,2.231c-0.285,1.144-0.315,2.088-0.086,2.832
				c0.207,0.667,0.662,1.325,1.373,1.975v0.085c0.057,0.02,0.086,0.049,0.087,0.085c0.074,0.022,0.131,0.051,0.171,0.086
				c0.019-0.036,0.019-0.094,0-0.172c0.294-0.49,0.493-0.976,0.601-1.459c0.286-0.629,0.429-1.201,0.429-1.716
				c0.057-0.4,0.057-0.743,0-1.03c0-0.343,0-0.629,0-0.858C649.2,195.889,649.2,195.603,649.2,195.374 M655.207,191.512
				c1.488-0.8,2.347-2.087,2.575-3.862c0.229-1.83,0.057-2.002-0.515-0.514c-0.515,1.487-1.401,2.459-2.66,2.918
				c-0.203,0.077-0.402,0.134-0.601,0.171c-0.78,0.363-1.126,0.592-1.03,0.687c0.089,0.089,0.146,0.174,0.173,0.257v0.085
				c0.057,0.115,0.057,0.372,0,0.773C653.035,192.428,653.721,192.256,655.207,191.512z"/>
			<path fill="#CCCCCC" d="M640.189,195.289c-0.228,0-0.515,0.085-0.857,0.257c-0.456,0.171-0.686,0.372-0.686,0.601
				c0,0.111,0.028,0.226,0.085,0.344c0.091,0.206,0.292,0.406,0.601,0.6c0.516,0.343,0.972,0.429,1.374,0.258
				c0.629,0.972,1.23,1.458,1.802,1.458s0.858-0.201,0.858-0.6l-0.173-0.688l0.173-1.716c0-0.4-0.029-0.658-0.086-0.771
				c-0.173-0.229-0.573-0.344-1.201-0.344L640.189,195.289z"/>
			<path fill="#DFAA91" fill-opacity="0.7608" d="M651.261,167.57c0.598,1.014,1.112,2.073,1.545,3.175
				c1.956,4.599,2.844,10.09,2.66,16.476c0.514-1.945,0.887-5.578,1.116-10.898c0.171-2.861,0.143-4.691-0.087-5.493h-1.459
				c-1.372-0.458-2.488-1.43-3.347-2.918C651.575,167.799,651.432,167.685,651.261,167.57z"/>
			<path fill="#1F100A" d="M635.385,168c-0.898,0.767-1.785,1.54-2.66,2.317c-0.094,0.099-0.18,0.184-0.258,0.257l0,0l-0.257,0.772
				l0.43,0.944c6.146-6.112,12.866-8.773,20.166-7.98c1.601,0.8,2.546,1.716,2.831,2.746c0.286,0.973,0.402,1.774,0.343,2.403
				c0.06-0.629-0.057-1.431-0.343-2.403c-0.285-1.029-1.23-1.945-2.831-2.746c-7.3-0.792-14.021,1.868-20.166,7.98l0.17,0.343
				c1.946-1.544,4.12-2.917,6.522-4.119c1.26-0.629,2.604-1.316,4.034-2.059c1.657-0.858,3.489-0.973,5.492-0.344
				c0.973,0.286,1.773,0.773,2.402,1.459c0.172,0.114,0.314,0.229,0.429,0.343c0.858,1.488,1.975,2.46,3.347,2.918h1.459h0.172
				c0-0.057-0.028-0.085-0.085-0.085l0.085-0.086l0.515-0.686c0.014-0.082,0.014-0.168,0-0.257c0.394-2.447-0.379-4.335-2.316-5.665
				c-0.824-0.564-1.654-0.994-2.489-1.287c-1.145-0.397-2.287-0.511-3.432-0.343c-2.003,0.286-4.062,0.8-6.18,1.544
				c-2.173,0.687-4.062,1.631-5.664,2.832C636.532,167.204,635.959,167.605,635.385,168z"/>
		</g>
	</g>
	<g>
		<path id="Layer0_0_1_STROKES" fill="none" stroke="#1A120B" stroke-linecap="round" stroke-linejoin="round" d="M584.325,69.012
			c-4.236-1.949-8.641-3.709-13.217-5.277c-7.292-2.484-14.672-4.386-22.139-5.707 M513.957,55.969
			c-20.058,1.018-38.622,5.837-55.694,14.459c-7.445,3.723-14.482,8.372-21.11,13.945 M406.688,124.534
			c-6.964,19.691-10.968,42.875-12.014,69.552c-0.168,4.313-0.369,8.632-0.6,12.959 M393.387,219.059
			c-1.414,22.38-3.56,44.808-6.437,67.278c-0.64,4.998-1.384,9.891-2.23,14.674c-2.299,13.03-5.359,25.273-9.183,36.729
			c-3.394,10.241-7.398,19.852-12.014,28.834c-7.952,15.552-22.254,32.286-42.907,50.201 M584.325,69.012
			c10.607,4.866,20.161,10.916,28.662,18.15c1.83,1.545,3.404,3.976,4.72,7.294c0.157,0.525,0.171,1.87,0.044,4.034 M548.97,58.027
			c-11.295-2.021-22.796-2.722-34.498-2.103c-0.175,0.008-0.346,0.023-0.515,0.044 M605.006,209.748
			c2.485-14.146,4.703-29.25,6.65-45.31c2.445-20.26,4.462-42.042,6.051-65.348c0.014-0.207,0.028-0.407,0.044-0.601
			 M437.152,84.373c-9.967,8.41-19.006,18.923-27.117,31.537c-1.175,2.789-2.291,5.665-3.347,8.625 M394.074,207.046
			c-0.206,4.006-0.435,8.011-0.687,12.014 M320.616,416.776c-1.595,1.381-3.226,2.769-4.892,4.162
			c-0.353,0.295-0.71,0.595-1.073,0.901c-6.242,5.162-13.008,10.427-20.294,15.79c-2.071,1.539-4.188,3.084-6.351,4.635
			 M495.55,409.955c1.16,0.384,2.391,0.555,3.689,0.515 M579.905,302.085c3.405-8.676,6.479-17.272,9.225-25.787
			c2.987-9.286,5.775-19.286,8.367-29.992c2.726-11.386,5.229-23.572,7.509-36.557 M579.905,302.085
			c-0.012,0.03-0.027,0.059-0.042,0.087c-1.341,3.396-2.729,6.802-4.162,10.211c-2.487,5.866-5.118,11.772-7.896,17.721
			 M528.545,393.779c0.283-0.318,0.568-0.632,0.858-0.945c6.636-7.094,12.872-15.504,18.708-25.229
			c4.118-6.58,8.896-15.39,14.331-26.432c1.838-3.707,3.628-7.398,5.363-11.07 M517.647,402.917
			c3.929-2.642,7.561-5.688,10.897-9.138 M500.311,410.383c0.46-0.059,0.931-0.129,1.417-0.215c2.978-0.534,6.31-1.765,9.997-3.69
			c2.042-1.091,4.016-2.277,5.922-3.562 M499.239,410.469c0.347-0.022,0.704-0.051,1.072-0.086"/>
	</g>
	<g>
		<path id="Layer0_0_2_STROKES" fill="none" stroke="#492C23" stroke-linecap="round" stroke-linejoin="round" d="M633.841,110.675
			L619.038,98.79 M687.56,240.513c-1.832,1.43-3.262,3.061-4.291,4.892c-1.315,2.402-1.173,5.92,0.43,10.554l0.085,0.044
			 M686.187,257.29c0.218,0.176,0.418,0.362,0.601,0.558c0.4,0.23,0.688,0.544,0.857,0.944c0.114,0.114,0.201,0.228,0.259,0.344
			c0.915,1.601,0.943,3.202,0.085,4.805c-1.486,2.918-4.177,5.263-8.066,7.036l-1.458,0.858l-0.43,0.258
			c0.714,0.227,1.388,0.47,2.017,0.729 M683.44,274.711l1.846,2.188c0.012,0.049,0.026,0.092,0.044,0.129
			c0.043,0.126,0.085,0.255,0.127,0.386c0.014,0.057,0.026,0.114,0.044,0.173c0.744,3.202,0.144,5.462-1.802,6.779
			c-0.344,0.342-0.744,0.657-1.202,0.943c-0.228,0.229-0.486,0.43-0.772,0.601c-2.745,2.23-4.319,4.262-4.72,6.092
			c-1.888,6.809-2.003,13.73-0.344,20.769c-2.574,9.84-9.497,15.046-20.767,15.617c-1.773,0.116-4.519-0.028-8.237-0.429
			c-3.891-0.457-6.636-0.972-8.238-1.544c-1.031-0.402-2.146-0.801-3.348-1.201c-1.718,0.34-3.377,0.784-4.978,1.329
			 M622.341,330.876l8.324-4.161 M616.249,335.981l-15.447,30.25c-0.029,0.117-0.057,0.231-0.087,0.344
			c-0.026,0.115-0.057,0.229-0.085,0.343c-0.029,0.114-0.058,0.229-0.086,0.344c-0.028,0.112-0.057,0.227-0.085,0.344
			l-10.941,23.127 M558.753,445.095c0.824-1.274,1.652-2.562,2.487-3.862 M619.038,98.79l-0.044-0.043 M597.54,315.729
			c1.073,0.297,2.188,0.595,3.348,0.901c11.784,3.146,23.514,6.008,35.184,8.582 M687.56,240.513
			c7.953-3.661,8.753-10.326,2.401-19.995c-6.349-9.726-12.758-18.421-19.221-26.088c-6.523-7.723-10.184-17.506-10.985-29.349
			c-0.857-11.899-4.575-23.599-11.155-35.098c-4.15-7.192-9.071-13.628-14.76-19.309 M536.697,449.042
			c-0.651-1.14-1.309-2.254-1.973-3.345c-11.521-18.786-25.322-29.985-41.405-33.598 M685.801,237.295
			c-0.287-0.025-0.617,0.018-0.987,0.128c-1.143,0.286-2.402,1.116-3.774,2.489c-0.791,0.757-1.75,1.501-2.876,2.231
			c-0.807,0.553-1.707,1.097-2.702,1.631c-2.256,1.155-4.773,1.513-7.553,1.072c-0.117-0.008-0.23-0.023-0.343-0.042
			c-3.72-0.687-5.835-2.718-6.352-6.093c-0.398-2.517,0.145-4.862,1.631-7.036 M687.046,238.067
			c-0.298-0.467-0.712-0.724-1.245-0.772 M683.784,256.003c0.51,0.174,1.053,0.459,1.631,0.858c0.18,0.101,0.367,0.214,0.559,0.343
			 M686.187,257.29c-0.063-0.028-0.12-0.044-0.173-0.044l-0.041-0.042 M676.963,272.651c0.32-0.188,0.648-0.374,0.985-0.559
			 M682.541,274.067c-0.711-0.442-1.539-0.858-2.489-1.245 M678.421,271.835h0.044 M677.948,272.092
			c0.173-0.113,0.315-0.201,0.429-0.258h0.044 M678.377,271.835l-0.127,0.087l-0.215,0.171 M683.44,274.711
			c-0.268-0.218-0.568-0.433-0.899-0.644 M669.883,277.413c0.47-0.379,0.956-0.751,1.458-1.115c1.707-1.271,3.58-2.488,5.622-3.646
			 M630.665,326.714c0.139-0.065,0.281-0.123,0.429-0.173 M597.54,315.729c-9.791-2.827-16.026-5.787-18.708-8.882
			c-0.059-0.342-0.115-0.686-0.171-1.028 M617.622,334.608c1.162-1.074,2.364-2.06,3.604-2.96c0.363-0.263,0.733-0.521,1.115-0.772
			 M616.249,335.981c0.445-0.479,0.903-0.937,1.373-1.373 M571.667,423.899c2.214-3.821,4.416-7.741,6.608-11.758
			c3.745-6.868,7.492-14.005,11.242-21.409 M561.24,441.233c3.491-5.544,6.968-11.321,10.427-17.334"/>
	</g>
	<g>
		<path id="Layer0_0_3_STROKES" fill="none" stroke="#1F100A" stroke-linecap="round" stroke-linejoin="round" d="M632.68,172.333
			c6.118-6.141,12.825-8.816,20.125-8.023c1.601,0.8,2.546,1.716,2.831,2.746c0.286,0.973,0.402,1.774,0.343,2.403"/>
	</g>
	<g>
		<path id="Layer0_0_4_STROKES" fill="none" stroke="#000000" stroke-width="2" stroke-linecap="round" stroke-linejoin="round" d="
			M299.763,170.145l-81.782-29.692l-5.32,15.189l-1.03,2.832l-1.201,3.519l72.942,21.454l0.343,0.085l10.298,3.003l-8.753,20.767
			l63.932-10.126l-41.191-52.089L299.763,170.145z"/>
	</g>
	<g>
		
			<path id="Layer0_0_5_STROKES" fill="none" stroke="#4D3620" stroke-linecap="round" stroke-linejoin="round" stroke-opacity="0.902" d="
			M396.477,449.042c0.47-0.576,0.942-1.147,1.415-1.716 M366.656,447.326c-0.387,0.575-0.773,1.146-1.159,1.716"/>
	</g>
	<g>
		<path id="Layer0_0_6_STROKES" fill="none" stroke="#000000" stroke-linecap="round" stroke-linejoin="round" d="M649.759,192.156
			l-10.298,3.003 M639.161,195.331l5.492-1.416l0.344-0.086 M647.871,193.014l0.215-0.043c0.159,0.398,0.304,0.784,0.429,1.159
			 M651.131,202.969c0.04,0.021,0.082,0.035,0.13,0.042c0.316,0.09,0.604,0.191,0.857,0.3 M652.976,204.384
			c-0.159-0.417-0.304-0.717-0.429-0.901c-0.138-0.057-0.28-0.115-0.43-0.172 M642.679,199.622c-1.285-0.814-2.4-1.658-3.347-2.532
			 M644.18,200.18c-0.198-0.627-0.327-1.242-0.386-1.846c-0.015-0.1-0.028-0.2-0.044-0.3c-0.013-0.274-0.013-0.545,0-0.815
			c0-0.071,0-0.144,0-0.214c0.069-1.081,0.371-2.11,0.902-3.089 M638.174,195.889c-0.067-0.082-0.14-0.167-0.215-0.257
			c-0.119,0.04-0.104,0.168,0.044,0.386c0.115,0.178,0.33,0.421,0.644,0.73c0.165,0.149,0.337,0.307,0.515,0.472
			c0.272,0.245,0.586,0.516,0.943,0.815c0.475,0.394,1.018,0.794,1.631,1.201 M642.679,199.622c0.515,0.336,1.06,0.665,1.631,0.987
			c-0.051-0.145-0.094-0.288-0.129-0.429 M638.731,196.49c-0.189-0.198-0.375-0.398-0.558-0.601 M639.161,195.331l-1.202,0.301
			l0.085-0.086l1.417-0.387 M653.149,191.17l-3.391,0.986 M651.131,202.969c-0.704-0.098-1.404-0.226-2.102-0.387
			c-0.228-0.057-0.486-0.115-0.772-0.172c-0.229-0.091-0.458-0.177-0.686-0.257c-0.082-0.035-0.168-0.063-0.258-0.086
			 M641.735,199.235c0.811,0.511,1.741,1.025,2.789,1.545 M639.332,197.09c-0.309-0.194-0.51-0.394-0.601-0.6 M647.871,193.014
			l-2.874,0.815 M644.48,200.652c0.128,0.063,0.271,0.136,0.429,0.214c0.058,0.057,0.259,0.172,0.603,0.344
			c0.036,0.037,0.078,0.08,0.129,0.128c0.539,0.239,1.096,0.481,1.673,0.729 M647.571,202.154c0.178-0.257,0.334-0.515,0.471-0.773
			 M644.309,200.609c0.054,0.018,0.11,0.032,0.171,0.043 M632.467,196.92l5.492-1.288"/>
	</g>
	<g>
		
			<path id="Layer0_0_7_STROKES" fill="none" stroke="#623A2F" stroke-width="0.5" stroke-linecap="round" stroke-linejoin="round" d="
			M678.592,263.254c0.996-1.181,1.981-2.21,2.962-3.09c1.064-0.714,1.823-1.299,2.274-1.758c0.724-0.461,1.439-0.847,2.146-1.16
			h0.041 M678.592,263.254c-0.623,0.768-1.252,1.597-1.888,2.488c-1.386,1.931-2.859,4.134-4.419,6.609 M682.497,285.308
			c-0.188-0.015-0.372-0.028-0.559-0.043c-5.462-0.502-9.021-1.832-10.683-3.991"/>
	</g>
</g>
</svg>
