<svg xmlns="http://www.w3.org/2000/svg" width="900" height="450" viewBox="0 0 900 450"><path fill="#FFF" d="M209.181 129.574l-1.201 3.519 72.942 21.454.343.085 10.298 3.003-8.753 20.767 63.932-10.126-41.191-52.089-8.238 25.058-81.782-29.692-5.32 15.189-1.03 2.832z"/><path fill="#EFBD9C" d="M515.197 373.975a65.918 65.918 0 0 0 10.897-9.096 4.742 4.742 0 0 1-.515.342c-3.436 3.369-6.897 6.287-10.382 8.754m-17.336 7.464c.46-.028.915-.085 1.375-.171a3.172 3.172 0 0 0-.43-.343 8.803 8.803 0 0 1-.945.514m77.921 1.802c.047.332.077.674.085 1.031 3.592-6.858 7.312-14.353 11.156-22.484a626.868 626.868 0 0 1-11.241 21.453m-6.607 11.758a192.872 192.872 0 0 1-4.12 5.234 69.83 69.83 0 0 1-3.089 3.69c-.115 1.144-.314 1.916-.602 2.316-.456.688-3.174 3.09-8.152 7.209-.686.571-2.66 2.803-5.92 6.692h3.089c2.571-2.031 5.375-4.634 8.409-7.809a466.26 466.26 0 0 0 10.385-17.332m3.175-4.119a109.733 109.733 0 0 1-3.175 4.119 468.019 468.019 0 0 1-10.385 17.334 172.077 172.077 0 0 0 3.52-3.861c3.188-5.253 6.533-11.118 10.04-17.592m41.449-83.841c.466-.445.924-.903 1.373-1.373-.47.463-.928.922-1.373 1.373m-36.73-1.373c-1.202 1.258-3.205 3.061-6.007 5.406a5364.569 5364.569 0 0 0-9.954 14.674c-12.415 18.078-19.166 27.118-20.252 27.118-.915 0-1.717-.343-2.403-1.03l-.259-.257a127.164 127.164 0 0 1-5.234 6.349 86.6 86.6 0 0 1-6.865 6.953 66.1 66.1 0 0 1-10.897 9.096c-4.956 3.58-9.935 6.297-14.933 8.152a7.286 7.286 0 0 0-1.028-.858c-.46.086-.915.143-1.375.171-1.743.91-3.573 1.368-5.49 1.373-.505.131-1.02.245-1.546.344 16.114 3.641 29.928 14.854 41.449 33.641-.229-.59-.344-1.247-.344-1.975 0-1.43 1.115-3.146 3.348-5.149a31.809 31.809 0 0 1 2.831-2.315c.457-.344.943-.688 1.459-1.031a886.34 886.34 0 0 0 3.947-2.745c6.008-2.461 13.186-7.868 21.539-16.22a87.268 87.268 0 0 0 3.175-3.347c1.946-1.773 3.52-3.433 4.72-4.977 1.663.049 2.608 1.45 2.833 4.203a629.593 629.593 0 0 0 11.241-21.453l10.985-23.083.085-.344.086-.344c.028-.113.059-.228.085-.343.03-.112.058-.227.087-.344l15.447-30.292c.445-.451.903-.91 1.373-1.373-.872-.442-1.787-1.072-2.748-1.889l-.171.344c.285.63.058 1.717-.687 3.262-1.029 1.944-2.746 2.916-5.149 2.916-.171 0-1.486-.284-3.947-.857-.799-1.258-1.858-2.402-3.174-3.433-3.089-2.461-7.008-3.919-11.758-4.377a29.23 29.23 0 0 0-4.977-.085c-3.088 2.174-4.918 3.547-5.492 4.119m-8.411-4.72c-.649 0-1.307.027-1.973.086a55.17 55.17 0 0 1-1.03 2.489c.774-.594 1.545-1.195 2.318-1.804.23-.284.458-.542.685-.771m59.986-3.346a43.74 43.74 0 0 1 4.978-1.287 827.37 827.37 0 0 1-35.184-8.582 104.14 104.14 0 0 1-3.348-.943c2.723 1.364 4.895 2.279 6.522 2.745 6.694 1.717 12.472 3.289 17.335 4.72 4.174 1.24 7.406 2.356 9.697 3.347m-10.125 5.319c.449-.303.906-.618 1.372-.943-.382.252-.752.51-1.115.772a2.12 2.12 0 0 1-.257.171m9.696-5.148a6.706 6.706 0 0 0-.858.258 23.044 23.044 0 0 0-8.581 4.72c.363-.263.733-.521 1.115-.772l8.324-4.206m52.775-52.003a60.538 60.538 0 0 0-.943-.688v.087c.362.211.676.411.943.601m1.89 2.315a.328.328 0 0 1-.088-.085l-1.802-2.23c-.268-.189-.581-.39-.943-.601l2.745 3.346-.256 1.889c.171.171.256.515.256 1.029 0 .801-.256 1.716-.771 2.747-.173.285-.659.714-1.46 1.287-.229.171-.429.315-.601.429a4.288 4.288 0 0 1-.514.43c.213.042.412.07.6.085a6.863 6.863 0 0 0 1.202-.943c1.945-1.317 2.546-3.577 1.802-6.779a.56.56 0 0 0-.086-.173 2.649 2.649 0 0 0-.084-.431m-7.124-5.062l.171-.087a4.827 4.827 0 0 0-.429.258c.104-.051.191-.108.258-.171m.171-.086l-.171.087a.45.45 0 0 0 .171-.087m-.342.257h-.087c-.337.185-.681.355-1.029.515.889-.078 1.919-.021 3.089.173-.6-.232-1.259-.461-1.973-.688m.515-8.838c-.595.768-1.225 1.597-1.889 2.488.459-.533.945-1.135 1.46-1.802.167-.237.309-.468.429-.686m6.865-6.437h.086a7.65 7.65 0 0 0-1.717-.858c.51.203 1.053.489 1.631.858m.599.429h.173a3.855 3.855 0 0 1-.343-.171c.052.037.082.065.085.086l.085.085m-.084-.085v.085h.085l-.085-.085m1.974 1.974a1.367 1.367 0 0 0-.259-.344c-.17-.4-.457-.714-.857-.944a14.182 14.182 0 0 0-.601-.602h-.258a.417.417 0 0 1 .085.173c.23.171.401.458.516.858.229 0 .459.143.687.429.114.171.171.313.171.43v.171c.057.059.145.143.258.258.344.286.486.6.43.943 0 .688-.114 1.202-.344 1.546.458.171.658.429.602.771 0 .344-.573 1.317-1.716 2.918-1.202 1.603-1.975 2.375-2.318 2.318h-.171c-.059 0-.115.026-.173.085-.801.629-1.372 1.001-1.716 1.115-.915 1.088-1.916 1.603-3.004 1.545l-1.629.688c-.287.285-.602.686-.945 1.2a.852.852 0 0 0 .258-.086c.349-.159.692-.33 1.029-.515.173-.113.315-.201.429-.258a.818.818 0 0 0 .173-.086l1.373-.772c3.89-1.773 6.58-4.118 8.066-7.036.857-1.603.829-3.204-.086-4.805M438.908 395.17h-.858c-.114 0-.257.029-.429.086-2.402 1.603-5.578 3.605-9.525 6.007-1.259.801-5.521 3.978-12.787 9.526-4.291 3.146-7.438 5.349-9.44 6.607-.915.915-1.802 1.83-2.66 2.745h131.038a139.292 139.292 0 0 0-1.973-3.345c-11.521-18.786-25.335-30-41.449-33.641a74.958 74.958 0 0 1-5.663 1.201c-10.698 1.373-18.737 2.461-24.113 3.262a140.914 140.914 0 0 0-9.44 1.717l-.602.6c-2.219 1.651-5.107 2.538-8.667 2.66-1.11.815-2.254 1.674-3.432 2.575M631.391 81.775c5.688 5.68 10.609 12.116 14.76 19.309 6.58 11.499 10.298 23.198 11.155 35.098.802 11.842 4.462 21.625 10.985 29.349 6.463 7.667 12.872 16.362 19.221 26.088 6.352 9.668 5.552 16.333-2.401 19.995 8.868-3.661 10.298-9.869 4.291-18.622a671.74 671.74 0 0 0-24.114-33.21c-4.463-5.893-6.808-12.729-7.037-20.509-.344-13.96-4.232-26.889-11.671-38.789-4.328-6.938-9.391-13.174-15.189-18.709m14.759 19.309c-4.15-7.192-9.071-13.628-14.76-19.309l-14.847-11.929c.281.581.511 1.152.688 1.716 1.716.744 2.288 3.805 1.716 9.183-.573 5.377-2.661 22.798-6.265 52.261-3.547 29.406-6.151 49.229-7.81 59.47-1.602 10.183-4.919 23.942-9.953 41.276-6.18 21.511-11.729 36.327-16.648 44.453 1.372.342 2.86.915 4.461 1.716 4.928 2.95 9.046 5.238 12.357 6.865 1.073.323 2.188.637 3.348.943a827 827 0 0 0 35.184 8.582c1.202.4 2.316.799 3.348 1.201 1.603.572 4.348 1.087 8.238 1.544 3.719.4 6.464.545 8.237.429 11.27-.571 18.192-5.777 20.767-15.617-1.659-7.038-1.544-13.96.344-20.769.4-1.83 1.975-3.861 4.72-6.092.286-.171.545-.371.772-.601a5.268 5.268 0 0 1-.6-.085 1.49 1.49 0 0 1-.259.342 3.408 3.408 0 0 1-.429-.171c-.285.285-.6.429-.943.429-.744 0-2.318-.457-4.72-1.372-.229-.06-.43-.116-.603-.173a8.09 8.09 0 0 1-2.058-.771 4.568 4.568 0 0 1-2.489-1.287c-.286 0-.658-.344-1.116-1.03a4.06 4.06 0 0 1-.257-.43l-.258-.256-.171-.858c.228-.63.571-1.145 1.029-1.546 0-.228.028-.372.085-.429a.923.923 0 0 1 .173-.258c.164-.245.449-.531.858-.858.228-.171.429-.257.6-.257l-.085-.085c0-.344-.199-.344-.602 0a749.584 749.584 0 0 1 1.631-3.861c.392-.905.707-1.619.943-2.146.517-1.145 1.202-2.089 2.06-2.833.411-.442.868-.985 1.373-1.631.664-.892 1.294-1.721 1.889-2.488.907-1.184 1.651-2.042 2.231-2.575.27-.174.527-.345.772-.515 1.064-.714 1.809-1.313 2.23-1.802a.988.988 0 0 0 .344-.258c.4-.628.8-1.029 1.202-1.2l.085-.087a9.814 9.814 0 0 0-1.631-.858h-.085c-1.603-4.633-1.745-8.151-.43-10.554 1.029-1.832 2.459-3.462 4.291-4.892 7.953-3.661 8.753-10.326 2.401-19.995-6.349-9.726-12.758-18.421-19.221-26.088-6.523-7.723-10.184-17.506-10.985-29.349-.854-11.897-4.572-23.596-11.152-35.095m-13.816 38.53c.208-.153.407-.325.601-.515.574-.395 1.147-.795 1.716-1.202 1.603-1.201 3.491-2.146 5.664-2.832 2.118-.744 4.177-1.258 6.18-1.544 1.145-.168 2.287-.054 3.432.343.455.041.884.099 1.288.172 2.86.516 4.29 2.002 4.29 4.462 0 .582-.258 1.354-.772 2.317a.791.791 0 0 1 0 .257l-.515.686-.085.086c.057 0 .085.029.085.085h-.172c.229.801.258 2.631.087 5.493-.229 5.32-.603 8.953-1.116 10.898.184-6.386-.704-11.877-2.66-16.476-.726-1.361-1.897-2.19-3.519-2.489-2.517-.458-5.808.4-9.868 2.574a39.894 39.894 0 0 0-8.669 6.179c-.171-.573-.256-1.259-.256-2.06 0-1.43.658-2.889 1.973-4.376.078-.073.164-.158.258-.257a17.665 17.665 0 0 1 2.058-1.801m22.998 19.136c-.229 1.774-1.087 3.062-2.575 3.862-1.486.744-2.172.916-2.058.516.057-.401.057-.658 0-.773-.592.354-1.45.612-2.574.773a7.29 7.29 0 0 1-.858.085l-10.298 3.003a.514.514 0 0 1-.258.172l5.492-1.373.344-.086c.084-.119.169-.233.256-.343l2.574-.516h.259c.159.398.304.77.429 1.115a.263.263 0 0 0 .171 0c.229.344.401.773.515 1.288v1.716c.057.287.057.629 0 1.03 0 .515-.143 1.087-.429 1.716a4.9 4.9 0 0 1-.601 1.459c1.507.472 2.479 1.015 2.918 1.631a.417.417 0 0 0 .172.085c.316.09.604.177.857.257a.408.408 0 0 0 .086 0c.097-.022.213.036.344.172.125.212.27.527.429.943.431 1.187.976 3.332 1.631 6.436 1.029 5.092 1.372 11.014 1.029 17.764-.285 5.835-1.516 10.613-3.689 14.331a381.453 381.453 0 0 0 1.544-14.245c.858-9.04.716-15.504-.43-19.395-1.136-3.734-1.451-5.736-.943-6.007a28.083 28.083 0 0 0-.857-.257.423.423 0 0 1-.172-.085c.23.34.344.684.344 1.029 0 .058-.057.343-.172.858-.287.572-1.345.372-3.175-.6-1.832-.973-4.319-2.175-7.467-3.604-3.089-1.487-5.035-2.46-5.835-2.918-1.545.744-2.574 1.116-3.089 1.116-.687 0-1.201-.229-1.545-.687-.229-.343-.344-.629-.344-.858 0-.286 4.062-1.945 12.187-4.978 8.122-3.032 12.186-3.918 12.186-2.66 0 .231-.058.431-.172.6a3.54 3.54 0 0 0 .601-.171c1.259-.458 2.146-1.431 2.66-2.918.57-1.484.743-1.313.513.517m27.977 49.602c.56.077.989.333 1.287.772.947-.531 1.063-.303.342.687-.972 1.202-2.688 2.46-5.148 3.776-2.518 1.259-4.548 2.06-6.093 2.403a70.467 70.467 0 0 1 1.975-2.746 25.117 25.117 0 0 1-2.66 1.631c-2.256 1.155-4.773 1.498-7.553 1.03-.308.458-.764.687-1.372.687-3.491 0-6.123-2.747-7.896-8.238 0-1.831 1.088-4.005 3.262-6.522 2.174-2.459 3.262-2.23 3.262.687 0 1.087-.516 2.117-1.545 3.09-.973 1.03-1.459 1.974-1.459 2.832 0 .687 1.001 1.716 3.004 3.089 2.059 1.374 3.089 2.403 3.089 3.09 0 .057-.059.4-.173 1.03a.75.75 0 0 1-.171.257c2.779.468 5.297.125 7.553-1.03a25.117 25.117 0 0 0 2.66-1.631c1.479-1.754 2.938-3.155 4.376-4.205 1.724-1.237 2.812-1.466 3.26-.689m1.287.772c-.298-.438-.728-.695-1.287-.772.228.345.342.832.342 1.458.38-.269.695-.498.945-.686m-43.251-39.732c.059.632.173 1.261.344 1.888a.408.408 0 0 0 .171 0 6.926 6.926 0 0 1-.515-1.888m4.118 3.004v-.085.085m.429-7.123a.317.317 0 0 0 .173-.086c-.125-.345-.27-.717-.429-1.115h-.259c.224.423.394.824.515 1.201m-6.436-.343c-.131.043-.959.473-2.487 1.287l10.298-3.003c-3.762.662-6.367 1.234-7.811 1.716m3.091 0l-.344.086a7.887 7.887 0 0 0-.943 3.089c.127-1.108.555-2.167 1.287-3.175m-4.893 4.205a14.244 14.244 0 0 1-.943-.858l1.458 1.459c.325.195.697.395 1.116.6a19.14 19.14 0 0 1-1.631-1.201m-2.145-2.06a.236.236 0 0 1-.086.086c.245.208.503.437.773.687a6.063 6.063 0 0 1-.687-.773m.173-.086c-.023.047-.081.076-.173.085.146.207.374.464.688.773.165.149.337.292.515.429.272.273.586.559.943.858a19.14 19.14 0 0 0 1.631 1.201c.288.13.604.245.943.344-1.285-.785-2.4-1.615-3.347-2.489-.309-.194-.51-.394-.601-.6a21.147 21.147 0 0 0-.599-.601m1.2-.343c.343-.172.63-.257.857-.257l1.89-.601c.628 0 1.028.115 1.201.344.057.114.086.371.086.771l-.173 1.716.173.688c0 .399-.287.6-.858.6s-1.173-.486-1.802-1.458c-.402.171-.858.085-1.374-.258.946.874 2.062 1.704 3.347 2.489.454.214.94.414 1.46.601a11.072 11.072 0 0 1-.344-1.888 1.526 1.526 0 0 0-.085-.257 9.44 9.44 0 0 0 0-.858c.026-.042.026-.101 0-.171a7.899 7.899 0 0 1 .943-3.089l-5.492 1.373c-.295.194-.639.395-1.029.601.211.203.41.403.6.601a.789.789 0 0 1-.085-.344c-.001-.231.229-.432.685-.603z"/><path fill="#6A4D2D" d="M497.861 381.439c-.368.065-.74.094-1.114.086a64.767 64.767 0 0 1-4.376 1.287c1.917-.004 3.747-.462 5.49-1.373m11.414-3.861c-3.688 1.926-7.032 3.156-10.039 3.69.368.255.714.542 1.028.858 4.998-1.855 9.977-4.572 14.933-8.152a61.987 61.987 0 0 1-5.922 3.604m-10.039 3.691c3.007-.534 6.352-1.765 10.039-3.69a61.987 61.987 0 0 0 5.922-3.604c3.484-2.467 6.945-5.385 10.383-8.754-8.377 7.486-17.987 12.921-28.833 16.305.374.008.746-.021 1.114-.086.313-.146.629-.318.945-.514.159.105.302.22.43.343m76.287-103.493a661.549 661.549 0 0 0-2.315 5.664 319.361 319.361 0 0 0 4.205-10.213c-.606 1.465-1.235 2.983-1.89 4.549m2.663-6.006a56.45 56.45 0 0 1-.772 1.373c.015.059.015.085 0 .085a319.361 319.361 0 0 1-4.205 10.213c-1.502 3.892-2.704 7.268-3.604 10.125a5990.724 5990.724 0 0 1-7.552 15.79 23.36 23.36 0 0 1-.601 1.717c-5.095 12.26-11.045 23.302-17.85 33.124 4.153-5.692 8.015-11.756 11.585-18.192 4.12-7.266 6.837-12.815 8.152-16.648.794-1.94 1.565-3.887 2.316-5.834.358-.807.7-1.637 1.03-2.489 3.287-8.11 6.463-16.149 9.525-24.113.604-1.576 1.205-3.149 1.802-4.72.058-.151.115-.294.174-.431m20.507-65.049c-.211.672-.438 1.33-.685 1.974a5.255 5.255 0 0 1-.173.945 118.82 118.82 0 0 1-.257 2.402c.021.354.021.698 0 1.03a62.274 62.274 0 0 0 1.115-6.351M363.047 420.142a52.23 52.23 0 0 0 1.116-1.716h-6.608c-.432.605-.86 1.177-1.287 1.716h6.779m13.817 0a38.07 38.07 0 0 1 .686-1.716h-13.386c-.358.575-.73 1.146-1.116 1.716h13.816m17.163 0c.47-.576.927-1.147 1.373-1.716h-10.899c-.505.61-.991 1.184-1.458 1.716h10.984m-65.477-1.716c-.158.112-.33.228-.516.344-.497.447-1.04.848-1.63 1.201a1.324 1.324 0 0 1-.172.171h26.259c.057-.113.143-.256.257-.429.292-.431.579-.859.858-1.287H328.55m-13.044-28.147a58.75 58.75 0 0 1-2.232 1.717c-.353.323-.725.637-1.115.943-4.965 4.559-10 8.65-15.103 12.272a183.609 183.609 0 0 1-5.149 3.518 211.949 211.949 0 0 1-11.757 7.294c-2.803 1.66-3.718 3.032-2.746 4.118h40.247a132.766 132.766 0 0 0 3.175-1.716H280.15c.997-.748 1.97-1.492 2.918-2.23.394-.973 1.538-1.831 3.433-2.575 7.527-5.7 13.963-10.705 19.308-15.018a198.874 198.874 0 0 0 9.697-8.323m-2.661 2.061c-.212.194-.44.395-.686.6.39-.307.763-.62 1.115-.943-.147.124-.29.238-.429.343m79.894-245.003c.19-2.431.391-4.805.601-7.123-.807 3.513-1.036 5.715-.688 6.608.051.141.079.313.087.515m41.963-91.907a.997.997 0 0 0 .086-.344c-.437.366-.866.71-1.287 1.03-8.582 6.808-14.904 13.33-18.966 19.565-3.261 3.833-5.435 6.693-6.521 8.582a63.604 63.604 0 0 0-3.089 5.921c-1.768 4.314-3.198 9.034-4.291 14.16a131.817 131.817 0 0 1 3.604-8.753 174.12 174.12 0 0 1 3.347-8.582c8.111-12.613 17.15-23.14 27.117-31.579m-.429 2.231a9.68 9.68 0 0 1 .429-2.231c-9.967 8.439-19.006 18.966-27.117 31.58a173.731 173.731 0 0 0-3.347 8.582c5.793-12.502 13.803-23.171 24.028-32.009a327.55 327.55 0 0 1 2.403-2.06 50.033 50.033 0 0 1 3.604-3.862z"/><path fill="#E2AE93" d="M565.055 400.233a188.984 188.984 0 0 0 4.12-5.234 363.897 363.897 0 0 0 6.607-11.758c-.225-2.753-1.17-4.154-2.833-4.203-1.2 1.544-2.773 3.203-4.72 4.977a87.268 87.268 0 0 1-3.175 3.347c-8.354 8.352-15.531 13.759-21.539 16.22-1.145.801-2.46 1.716-3.947 2.745-.516.344-1.002.688-1.459 1.031a31.985 31.985 0 0 0-2.831 2.315c-2.232 2.003-3.348 3.72-3.348 5.149 0 .728.114 1.385.344 1.975a142.697 142.697 0 0 1 1.973 3.345h13.045c3.26-3.89 5.234-6.121 5.92-6.692 4.979-4.119 7.696-6.521 8.152-7.209.287-.4.486-1.173.602-2.316a70.799 70.799 0 0 0 3.089-3.692m4.12-5.234a109.733 109.733 0 0 0 3.175-4.119c2.347-3.247 3.518-5.278 3.518-6.093v-.515a8.723 8.723 0 0 0-.085-1.031 365.818 365.818 0 0 1-6.608 11.758m49.344-92.08c.084-.047.171-.104.257-.171a44.684 44.684 0 0 0-3.604 2.918c.184.101.356.187.514.257.4-.515.83-1.001 1.287-1.458a37.564 37.564 0 0 1 1.546-1.546m8.837-4.891a6.87 6.87 0 0 1 .858-.258c.139-.035.281-.092.429-.171-2.291-.99-5.522-2.106-9.696-3.348-4.863-1.431-10.641-3.003-17.335-4.72-1.628-.466-3.8-1.381-6.522-2.745-9.791-2.799-16.026-5.745-18.708-8.84-.059-.342-.115-.686-.171-1.028a1448.323 1448.323 0 0 1-9.525 24.113 22.33 22.33 0 0 1 1.973-.086 9.929 9.929 0 0 0-.685.771 246.59 246.59 0 0 1-2.318 1.804 308.669 308.669 0 0 1-2.316 5.834c-1.315 3.833-4.032 9.383-8.152 16.648-3.57 6.437-7.432 12.5-11.585 18.192a117.463 117.463 0 0 1-5.407 7.381l.259.257c.687.688 1.488 1.03 2.403 1.03 1.086 0 7.837-9.04 20.252-27.118a5364.569 5364.569 0 0 1 9.954-14.674c2.802-2.346 4.805-4.148 6.007-5.406.573-.572 2.403-1.945 5.492-4.119a29.23 29.23 0 0 1 4.977.085c4.75.458 8.669 1.916 11.758 4.377 1.315 1.03 2.375 2.175 3.174 3.433 2.461.573 3.776.857 3.947.857 2.403 0 4.12-.972 5.149-2.916.744-1.545.972-2.632.687-3.262l.171-.344c.961.816 1.876 1.446 2.748 1.889a44.337 44.337 0 0 1 3.604-2.918 23.054 23.054 0 0 1 8.578-4.718m.944-.257a3.5 3.5 0 0 1 .429-.086l-.085-.085a1.88 1.88 0 0 1-.429.171c.043.014.072.014.085 0m31.409-89.334c0-.858.486-1.802 1.459-2.832 1.029-.973 1.545-2.003 1.545-3.09 0-2.917-1.088-3.146-3.262-.687-2.174 2.518-3.262 4.691-3.262 6.522 1.773 5.492 4.405 8.238 7.896 8.238.608 0 1.064-.229 1.372-.687a1.04 1.04 0 0 1-.343 0c-3.72-.687-5.835-2.718-6.352-6.093-.398-2.517.145-4.862 1.631-7.036-1.486 2.174-2.029 4.52-1.631 7.036.517 3.375 2.632 5.407 6.352 6.093.112.019.226.019.343 0a.76.76 0 0 0 .171-.257c.114-.629.173-.973.173-1.03 0-.687-1.03-1.716-3.089-3.09-2.002-1.37-3.003-2.4-3.003-3.087m-17.679-36.728a.277.277 0 0 1-.171 0 18.73 18.73 0 0 1-1.631-1.03 7.158 7.158 0 0 1-.943-.344 35.251 35.251 0 0 0 2.745 1.545c.021-.039.021-.096 0-.171m-.171 0a5.247 5.247 0 0 0-.171-.429 16.588 16.588 0 0 1-1.46-.601c.515.365 1.06.708 1.631 1.03m-.171-.429c.063.141.12.284.171.429.054.018.11.018.171 0a2.058 2.058 0 0 1-.171-.429.407.407 0 0 1-.171 0m4.033 1.116c.019.078.019.136 0 .172a.455.455 0 0 0-.171-.086c-.11.258-.251.516-.429.773.228.08.457.166.686.257.286.057.545.115.772.172a16.64 16.64 0 0 0 2.06.344c-.439-.618-1.411-1.161-2.918-1.632m-.858.772c.09.023.176.051.258.086.178-.257.318-.515.429-.773-.001-.036-.03-.065-.087-.085a19.73 19.73 0 0 1-.6.772m5.836-10.813v-.085l-3.433.944c.298-.013.583-.042.858-.085 1.125-.162 1.983-.42 2.575-.774m-15.276 4.806a.236.236 0 0 0 .086-.086c-.119-.189-.119-.303 0-.343l-5.492 1.288 5.492-1.288.085-.086 1.375-.429c1.528-.814 2.356-1.244 2.487-1.287 1.444-.482 4.049-1.054 7.811-1.716l3.433-.944a.668.668 0 0 0-.173-.257c-.096-.095.25-.324 1.03-.687.114-.169.172-.369.172-.6 0-1.259-4.063-.372-12.186 2.66-8.125 3.032-12.187 4.691-12.187 4.978 0 .229.115.515.344.858.344.458.858.687 1.545.687.515 0 1.544-.372 3.089-1.116.8.458 2.746 1.431 5.835 2.918 3.147 1.43 5.635 2.632 7.467 3.604 1.83.972 2.888 1.172 3.175.6.115-.515.172-.8.172-.858 0-.346-.113-.689-.344-1.029a16.672 16.672 0 0 1-2.06-.344 16.487 16.487 0 0 0-.772-.172 17.98 17.98 0 0 0-.686-.257 1.774 1.774 0 0 0-.258-.086.635.635 0 0 0-.086.086c-1.373-.401-2.204-.715-2.489-.944a3.996 3.996 0 0 0-.258-.429 35.538 35.538 0 0 1-2.745-1.545 14.955 14.955 0 0 1-1.116-.6l-1.458-1.459a8.183 8.183 0 0 1-.515-.429c-.27-.251-.528-.48-.773-.688m.086-.429c.075.09.132.175.173.257.391-.206.734-.406 1.029-.601l-1.202.344m0 .343c.092-.01.149-.039.173-.085a1.347 1.347 0 0 0-.173-.257c-.119.038-.119.152 0 .342m1.202-.686a.523.523 0 0 0 .258-.172l-1.375.429-.085.086 1.202-.343m14.503-32.353a14.628 14.628 0 0 0-1.288-.172c.835.293 1.665.723 2.489 1.287 1.938 1.329 2.71 3.217 2.316 5.665.515-.964.772-1.736.772-2.317.001-2.461-1.429-3.947-4.289-4.463m-21.454 8.41l.257-.772c-1.314 1.488-1.973 2.947-1.973 4.376 0 .801.085 1.487.256 2.06a39.836 39.836 0 0 1 8.669-6.179c4.061-2.174 7.352-3.032 9.868-2.574 1.621.298 2.793 1.128 3.519 2.489a22.222 22.222 0 0 0-1.545-3.175c-.629-.686-1.43-1.173-2.402-1.459-2.003-.629-3.835-.515-5.492.344-1.43.743-2.774 1.43-4.034 2.059-2.402 1.202-4.576 2.574-6.522 4.119l-.17-.343-.431-.945m.514-1.029c.875-.778 1.762-1.551 2.66-2.317a5.753 5.753 0 0 1-.601.515 17.65 17.65 0 0 0-2.059 1.802m-13.73-71.57c.749 4.086.892 8.549.429 13.387-1.021 10.675-3.367 28.124-7.035 52.347-2.109 23.902-4.226 39.892-6.352 47.971.401 1.553.601 3.326.601 5.321a378.541 378.541 0 0 1-5.493 17.849 62.558 62.558 0 0 1-1.114 6.351c.017 2.794-.555 5.884-1.716 9.268-.431 1.269-.86 2.498-1.287 3.689-3.976 18.811-7.581 30.854-10.813 36.128a171.952 171.952 0 0 0-5.578 9.612c-.059.138-.115.28-.173.43-.597 1.57-1.198 3.144-1.802 4.72.056.343.112.687.171 1.028 2.682 3.095 8.917 6.041 18.708 8.84-3.312-1.627-7.43-3.915-12.357-6.865-1.601-.801-3.089-1.374-4.461-1.716 4.919-8.126 10.469-22.942 16.648-44.453 5.034-17.334 8.352-31.093 9.953-41.276 1.658-10.241 4.263-30.064 7.81-59.47 3.604-29.463 5.691-46.883 6.265-52.261.572-5.378 0-8.439-1.716-9.183a12.6 12.6 0 0 0-.688-1.717m0-.086v.085c.01-.011.01-.039 0-.085z"/><path fill="#291C16" fill-opacity=".6" d="M561.451 311.072a23.36 23.36 0 0 0 .601-1.717 527.937 527.937 0 0 0 3.262-8.152 492.982 492.982 0 0 1-5.321 11.07c-5.436 11.042-10.213 19.852-14.331 26.432-5.836 9.725-12.072 18.135-18.708 25.229-.29.313-.575.627-.858.945a86.6 86.6 0 0 0 6.865-6.953 126.069 126.069 0 0 0 5.234-6.349c1.884-2.37 3.686-4.83 5.407-7.381 6.804-9.822 12.754-20.864 17.849-33.124M280.15 418.426h3.261c-.472-.793-.586-1.537-.343-2.23-.947.738-1.921 1.482-2.918 2.23m122.458-128.464a60.65 60.65 0 0 0-.086 3.174c0 .037.229.865.687 2.489a206.521 206.521 0 0 1-.601-5.663m-11.671-99.803c-1.979 8.109-3.61 17.635-4.891 28.576-.858 6.808-1.917 17.191-3.175 31.151-1.019 9.764-2.306 18.803-3.861 27.117 1.042-2.15 2.128-3.779 3.261-4.893.846-4.783 1.59-9.676 2.23-14.674a1052.555 1052.555 0 0 0 6.436-67.277m13.301-94.568a131.817 131.817 0 0 0-3.604 8.753c-2.177 6.231-3.893 12.839-5.148 19.823-.886 4.796-1.602 10.145-2.146 16.047-.21 2.317-.411 4.691-.601 7.123a527.126 527.126 0 0 0-.429 9.697c-.21 5.316-.438 12.354-.687 21.111.231-4.327.432-8.646.6-12.959 1.047-26.676 5.051-49.875 12.015-69.595m107.783-68.566a5.528 5.528 0 0 1-.515 0c.234.175.464.346.687.516 7.953-.916 15.305-.858 22.054.172 3.662.571 6.894 1.401 9.698 2.488.816-.428 1.674-.8 2.574-1.115-11.294-1.994-22.795-2.68-34.498-2.061z"/><path fill="#A4764D" d="M569.604 293.565c.9-2.857 2.103-6.233 3.604-10.125a430.609 430.609 0 0 1-7.895 17.763 527.937 527.937 0 0 1-3.262 8.152 5891.58 5891.58 0 0 0 7.553-15.79m3.604-10.125a695.723 695.723 0 0 1 2.315-5.664c.654-1.566 1.283-3.084 1.89-4.549a152.753 152.753 0 0 0-7.124 15.447 5337.56 5337.56 0 0 1-4.976 12.528 429.382 429.382 0 0 0 7.895-17.762m30.979-94.568c0-1.995-.199-3.768-.601-5.321 2.126-8.079 4.242-24.069 6.352-47.971-1.851 12.426-4.053 26.614-6.609 42.565-.174 1.082-.347 2.14-.515 3.175a7.974 7.974 0 0 1-.258-.516c-2.279 13.014-4.797 25.2-7.551 36.558-2.563 10.735-5.338 20.749-8.325 30.035a414.422 414.422 0 0 1-9.267 25.745c.261-.447.518-.905.772-1.373a172.575 172.575 0 0 1 5.578-9.612c3.231-5.274 6.837-17.317 10.813-36.128.427-1.191.856-2.421 1.287-3.689 1.161-3.384 1.732-6.474 1.716-9.268a8.426 8.426 0 0 0 0-1.03c.094-.804.18-1.604.257-2.402.087-.31.144-.625.173-.945a34.19 34.19 0 0 0 .685-1.974 378.541 378.541 0 0 0 5.493-17.849m-251.695 231.27h3.776c.427-.539.855-1.11 1.287-1.716h-3.948c-.279.428-.566.856-.858 1.287-.114.173-.2.315-.257.429m32.009-1.716h-6.951a38.07 38.07 0 0 0-.686 1.716h6.179c.466-.533.952-1.106 1.458-1.716m-60.757 1.716c.399-.555.799-1.126 1.202-1.716h-4.119c-1.001.56-2.06 1.131-3.175 1.716h6.092m4.291-1.372c.186-.116.358-.231.516-.344h-.858a69.724 69.724 0 0 1-1.287 1.545 10.571 10.571 0 0 0 1.629-1.201M616.544 69.761l-1.287-.171c.014.193.014.394 0 .601-1.589 23.305-3.62 45.073-6.093 65.305l.773.085c3.668-24.223 6.014-41.672 7.035-52.347.463-4.838.32-9.301-.429-13.387v-.086z"/><path fill="#241A11" d="M527.641 303.434c-.444 1.127-1.417 3.9-2.918 8.325-.98 3.056-2.211 6.86-3.691 11.412-.915 2.861-3.861 10.042-8.838 21.541-4.463 10.298-6.694 15.846-6.694 16.647 0 1.431.143 1.746.43.945h.858c5.148-9.956 10.497-22.427 16.048-37.417 1.554-4.385 3.014-8.505 4.376-12.356 3.982-11.068 7.186-19.792 9.611-26.173-3.204 3.775-6.264 9.466-9.182 17.076M321.856 422.717h2.231a75.01 75.01 0 0 0 2.146-2.575c.067-.057.125-.113.172-.171.432-.503.861-1.019 1.287-1.545 3.176-3.873 6.437-8.164 9.783-12.872 3.286-4.836 6.261-9.212 8.925-13.129a14797.49 14797.49 0 0 0 11.156-16.478c6.236-9.153 11.699-18.937 16.391-29.348 4.691-10.412 8.067-20.195 10.126-29.348-2.174 4.004-6.321 13.187-12.443 27.546-5.32 12.528-10.298 22.34-14.931 29.434-3.138 4.798-7.085 10.521-11.842 17.163a1129.392 1129.392 0 0 1-8.582 11.757 37707.22 37707.22 0 0 1-11.328 15.274c-.402.59-.803 1.161-1.202 1.716-.667.906-1.297 1.764-1.889 2.576m95.941-257.359a3722.954 3722.954 0 0 0-4.291 19.223c-4.463 20.337-6.694 31.78-6.694 34.326 0 1.43.143 1.745.429.944h.858c1.55-7.629 3.553-17.012 6.007-28.147a5268.568 5268.568 0 0 1 8.41-36.643c7.094-30.321 12.014-52.061 14.76-65.219-4.976 14.931-11.469 40.104-19.479 75.516m4.462-63.588c-.171-.343-.8-.572-1.887-.686l-1.545-.172c-5.664 8.238-10.269 29.548-13.816 63.932-2.803 27.346-4.205 52.404-4.205 75.175 0 17.791.429 32.38 1.287 43.766.157 2.148.329 4.206.515 6.178.183 1.971.383 3.858.601 5.663.723 6.189 1.61 11.625 2.66 16.305 1.03 4.417 2.203 8.164 3.518 11.241a289.583 289.583 0 0 1-2.574-13.729c-.368-2.464-.74-4.981-1.115-7.551a358.185 358.185 0 0 1-1.974-20.34c-.801-11.213-1.202-25.028-1.202-41.447 0-23.799 1.374-49.458 4.12-76.976 3.775-37.76 8.981-58.213 15.617-61.359m154.382.601c-.058-.058-.172-.229-.344-.516h-1.202c-.905 10.616-2.363 21.629-4.376 33.039a319.131 319.131 0 0 1-2.061 10.641c-4.917 24.573-12.295 50.917-22.139 79.035-7.296 20.873-19.482 51.366-36.557 91.479a4117.939 4117.939 0 0 1-13.045 30.379l.858.429a2715.375 2715.375 0 0 0 13.13-30.723c14.098-33.143 25.538-61.547 34.326-85.214 8.987-24.171 16.052-45.768 21.195-64.79a126.36 126.36 0 0 0 1.287-5.063c6.008-23.059 9.011-42.11 9.011-57.152.002-.915-.027-1.43-.083-1.544m29.691-5.664h-1.202c-1.773 34.154-11.498 77.12-29.177 128.894-4.062 11.9-9.238 26.202-15.532 42.907a4525.428 4525.428 0 0 0 12.872-41.19c16.019-52.233 24.028-87.446 24.028-105.638 0-2.346-.429-4.091-1.287-5.235l-1.287.343c-.809 9.955-2.067 20.11-3.776 30.464-1.605 10.219-3.637 20.631-6.093 31.236-2.857 12.198-6.26 24.67-10.212 37.416-1.314 4.348-7.036 21.453-17.163 51.317-9.497 28.604-14.245 44.825-14.245 48.656 0 1.432.143 1.746.43.945l.943-.087 6.094-18.45c.057-.114.143-.229.257-.342l.515-.43c2.176-7.095 6.865-20.768 14.073-41.02 8.238-23.17 14.359-40.877 18.365-53.12 15.219-46.34 22.826-80.494 22.826-102.462 0-1.944-.143-3.346-.429-4.204m-173.26 278.555c14.245-7.552 24.743-13.93 31.494-19.137 10.927-8.409 18.422-17.649 22.482-27.718-2.458 2.115-5.348 5.149-8.667 9.096-5.549 6.579-8.524 10.099-8.925 10.555-8.066 8.983-17.191 15.989-27.374 21.024-17.792 8.697-30.351 16.02-37.673 21.97-8.124 6.579-12.186 13.271-12.186 20.08 0 1.431.143 1.744.429.945h.858c-.171-7.038 3.719-13.73 11.671-20.081 4.578-3.662 13.874-9.24 27.891-16.734m46.683-266.884c0-.916-.057-1.402-.171-1.459l-.258.085h-1.202c-2.115 24.486-4.462 46.168-7.036 65.047-3.262 23.743-7.209 45.654-11.843 65.734-1.373 5.722-4.633 18.479-9.783 38.274 1.258-12.815 2.803-27.119 4.633-42.907 7.953-69.568 11.929-115.222 11.929-136.961 0-1.087-.028-1.745-.085-1.974 0-.229-.114-.544-.344-.944h-1.202c-2.688 27.403-6.606 71.855-11.756 133.355a9964.987 9964.987 0 0 0-4.376 54.063l-7.209 26.86a600.894 600.894 0 0 1-1.459 5.578 707.281 707.281 0 0 1-2.23 8.152c-5.422 20.562-8.97 34.549-10.642 41.964-.687 3.243-1.03 5.244-1.03 6.007 0 1.43.287 1.688.858.772l.516-.429c.717-2.45 1.433-4.911 2.145-7.382 6.156-21.394 12.106-43.705 17.85-66.936-2.231 28.949-3.347 46.454-3.347 52.52 0 1.146.029 1.859.086 2.146.114.344.372.743.771 1.202l.516-.43c-.915-9.211.028-28.861 2.832-58.955 3.604-14.76 7.15-29.893 10.642-45.396 14.13-62.927 21.195-108.924 21.195-137.986m12.272-65.734c.061-.268.117-.553.171-.858-.559.339-1.102.826-1.631 1.459-3.573 4.445-5.861 16.144-6.865 35.099-.342 5.893-.515 18.135-.515 36.729 0 1.43.143 1.745.429.944.629-.057 1.088-.343 1.373-.858 1.633-30.481 3.978-54.653 7.038-72.515m-108.47 335.707c-1.144 2.632-2.689 6.294-4.634 10.985-.343.342-2.146 3.774-5.406 10.298-3.546 7.036-5.321 11.213-5.321 12.528 0 1.43.287 1.688.858.772.229-.573 3.805-7.867 10.727-21.883 4.406-8.868 7.552-16.305 9.44-22.312-1.659 1.658-3.547 4.864-5.664 9.612m75.173-33.209l.943-.088c4.348-10.753 12.53-29.691 24.545-56.809 10.812-24.485 18.879-43.651 24.198-57.495 17.277-44.681 25.889-82.783 25.83-114.306-2.631 11.671-6.149 30.321-10.554 55.951-4.521 23.399-9.869 42.622-16.049 57.667-2.688 6.637-11.929 26.832-27.717 60.586-14.418 31.522-21.626 49.371-21.626 53.548.002 1.431.143 1.746.43.946m-29.605-41.107c0 5.949.143 10.213.429 12.787h.858c2.003-46.97 4.148-84.93 6.436-113.877 3.262-41.706 7.695-79.693 13.301-113.962-3.146 4.348-7.465 35.642-12.958 93.882-5.378 56.694-8.066 97.084-8.066 121.17m78.52-239.08h-1.201c-1.544 28.491-7.609 69.882-18.192 124.174a8311.054 8311.054 0 0 1-15.361 76.975c0 1.432.143 1.746.43.945h.857c3.433-12.301 9.869-45.339 19.309-99.117 9.727-55.322 14.589-87.674 14.589-97.056-.002-2.574-.144-4.547-.431-5.921m18.365 20.338a10.226 10.226 0 0 0-.344-.601h-1.287c0 5.206-2.433 20.481-7.295 45.825-4.861 25.344-7.294 40.505-7.294 45.482 0 1.43.143 1.745.43.943l.943-.085c2.06-8.925 5.092-25.572 9.098-49.944 3.889-23.799 5.834-37.129 5.834-39.989 0-.972-.029-1.516-.085-1.631m2.66-44.451c0-1.945-.143-3.347-.43-4.206h-1.201c-.399 7.438-2.974 19.652-7.724 36.643a2628.9 2628.9 0 0 1-6.951 24.801c0 1.43.287 1.687.858.772 1.946-4.52 5.007-14.617 9.184-30.292 4.177-15.676 6.264-24.915 6.264-27.718m63.588 17.849c-.057-.172-.086.172-.086 1.03 0 11.385-1 22.598-3.003 33.64-2.003 11.098-3.004 17.42-3.004 18.965 0 1.431.287 1.802.858 1.115l.943-.943c.744-6.065 1.804-12.787 3.177-20.166.171-1.087 1.372-7.237 3.604-18.45V58.948h-2.489v-.257m-30.894-12.615l-.085 5.492c0 21.454-1.574 43.108-4.72 64.962a3571.026 3571.026 0 0 1-4.72 32.181c0 1.43.286 1.687.857.772l.943-.944c.23-1.602 2.318-14.331 6.266-38.188 2.632-15.562 3.947-28.09 3.947-37.586-.571-11.786-1.001-20.682-1.287-26.689h-1.201z"/><path fill="#291C16" d="M568.573 197.11h-1.202c-.674 3.065-1.702 8.157-3.089 15.275a4872.173 4872.173 0 0 0-4.376 23.17c-3.032 16.134-5.836 29.177-8.41 39.131a287.734 287.734 0 0 1-5.149 17.851 259.14 259.14 0 0 1-5.405 15.275c-6.456 16.528-14.265 31.373-23.428 44.537.286.344.716.516 1.287.516 15.39-22.026 26.918-48.086 34.584-78.179 2.631-10.354 5.379-23.397 8.238-39.131 1.957-10.991 3.501-19.659 4.634-26.001 1.303-7.141 2.073-11.288 2.316-12.444z"/><path fill="#72421F" d="M565.227 173.597c.438-2.543.838-5.032 1.201-7.466-5.144 19.021-12.208 40.619-21.195 64.79-8.788 23.667-20.229 52.071-34.326 85.214.753.114 1.525.172 2.316.172 2.06 0 4.778-2.288 8.152-6.865a9.77 9.77 0 0 0 3.348 2.317c1.501-4.425 2.474-7.198 2.918-8.325 2.918-7.609 5.979-13.301 9.182-17.075-2.426 6.381-5.629 15.104-9.611 26.173.989.229 2.047.343 3.175.343 4.369 0 7.886-1.687 10.556-5.063a258.674 258.674 0 0 0 5.405-15.275c.566-3.985.796-8.478.688-13.473-.228-4.692-.344-7.294-.344-7.81 0-9.326-.943-16.82-2.831-22.483a279.308 279.308 0 0 0 11.756-26.345l.086-.085c1.201-5.207 2.088-9.354 2.66-12.443 3.202-15.849 5.491-27.949 6.864-36.301M588.74 52.941a28.18 28.18 0 0 0-3.604-2.403c-2.061-1.888-4.49-3.69-7.295-5.406-9.727-5.893-21.539-9.611-35.442-11.156-14.017-1.603-25.801-.487-35.354 3.346-2.003.801-3.805 1.688-5.407 2.661a78.4 78.4 0 0 0-9.61 2.66c-3.061 17.863-5.405 42.034-7.038 72.513-.285.516-.744.801-1.373.858-.286.801-.429.486-.429-.944 0-18.593.173-30.836.515-36.729 1.004-18.955 3.292-30.653 6.865-35.099-6.423 2.495-12.144 5.899-17.163 10.212-2.631 2.231-4.834 4.605-6.607 7.123-3.204 1.087-6.606 2.688-10.212 4.805-8.638 5.092-15.904 11.557-21.796 19.395-4.92 6.579-8.01 13.072-9.268 19.479-5.035 10.584-7.553 20.624-7.553 30.122l-.085.686c-.801 1.66-1.487 3.576-2.06 5.75-.972 3.604-1.488 8.724-1.545 15.36-.686 3.147-1.144 6.551-1.373 10.212 6.637-25.401 10.755-40.047 12.357-43.938-2.288 10.698-5.578 24-9.869 39.904a572.244 572.244 0 0 0-2.488 9.354c.057 1.545.172 4.691.343 9.44.081 1.156.166 2.301.258 3.433a3503.433 3503.433 0 0 1 4.291-19.223c8.009-35.413 14.502-60.585 19.479-75.517-2.746 13.158-7.666 34.898-14.76 65.219a5268.568 5268.568 0 0 0-8.41 36.643 63.17 63.17 0 0 0 .515 5.578 57.46 57.46 0 0 0-.086 3.175c0 .057.058 2.889.172 8.495l.172 2.575c-.057.4-.115.83-.172 1.287v1.116c-.4 5.664.115 13.472 1.544 23.426 0 4.291-.171 9.354-.514 15.19-2.689 4.175-5.121 8.868-7.294 14.074-2.163 5.141-3.736 10.116-4.72 14.93a358.185 358.185 0 0 0 1.974 20.34c.83.987 1.773 1.788 2.832 2.401v.087c-.179.945-.752 2.632-1.716 5.063.77 4.716 1.628 9.295 2.574 13.729-1.315-3.077-2.488-6.824-3.518-11.241-1.432 3.652-3.462 8.488-6.092 14.503-7.037 16.134-14.532 31.352-22.483 45.653a60.515 60.515 0 0 1-1.459 2.574c-1.144 2.347-2.517 4.921-4.119 7.724a517.857 517.857 0 0 1-2.575 4.463 2400.452 2400.452 0 0 0-9.526 23.427l-.858.945c-.458-.229-.715-.4-.772-.517-.057-.228-.086-.858-.086-1.887 0-1.773.83-4.834 2.489-9.182-5.034 7.322-9.897 13.586-14.589 18.792h25.659c.4-.458.8-.943 1.201-1.458 9.612-11.442 19.423-25.802 29.435-43.079a420.859 420.859 0 0 0 8.152-14.675c2.346 3.262 6.065 4.892 11.156 4.892 1.928 0 3.703-.286 5.321-.857 1.672-7.415 5.219-21.402 10.642-41.964-.587-1.158-1.302-2.159-2.146-3.004-.115-.113-.2-.201-.257-.258 1.544-4.404 2.832-9.954 3.862-16.646 1.418 1.418 2.161 3.476 2.23 6.178l7.209-26.86a9956.802 9956.802 0 0 1 4.376-54.063c5.149-61.5 9.067-105.952 11.756-133.355h1.202c.229.4.344.715.344.944.057.229.085.887.085 1.974 0 21.739-3.976 67.393-11.929 136.961-1.83 15.788-3.375 30.092-4.633 42.907 5.15-19.795 8.41-32.553 9.783-38.274 4.634-20.081 8.581-41.992 11.843-65.734 2.574-18.879 4.921-40.562 7.036-65.047h1.202l.258-.085c.114.057.171.543.171 1.459 0 29.063-7.064 75.059-21.195 137.989a2587.37 2587.37 0 0 1-10.642 45.396c-2.803 30.094-3.747 49.744-2.832 58.955l-.516.43c-.399-.459-.658-.858-.771-1.202-.057-.286-.086-1-.086-2.146 0-6.065 1.116-23.57 3.347-52.52-5.743 23.23-11.693 45.542-17.85 66.936 2.075-1.163 3.877-2.851 5.406-5.062 1.716.228 3.604.342 5.664.342 12.13 0 22.283-3.831 30.464-11.498 5.55-5.205 8.954-10.641 10.213-16.305 2.518-2.289 5.234-5.436 8.152-9.439 5.492-11.442 10.097-22.971 13.815-34.584a147.327 147.327 0 0 0 1.46-4.634l.686 2.06a61.628 61.628 0 0 0-.943 3.089c-1.659 3.203-2.775 6.437-3.348 9.697-2.688 7.665-5.348 14.675-7.979 21.025 2.345-2.575 4.404-5.836 6.178-9.783a25.148 25.148 0 0 1 1.546-1.116c.171.915.398 1.803.686 2.661 1.488 4.137 4.406 6.597 8.754 7.38 17.074-40.113 29.261-70.606 36.557-91.479 9.844-28.118 17.222-54.462 22.139-79.035.23-3.177.344-6.181.344-9.01 0-.916-.286-2.689-.857-5.321-.572-2.575-.858-4.177-.858-4.805 0-.745.545-1.345 1.631-1.803.687-.286 1.287-.429 1.802-.429v10.727c2.013-11.41 3.471-22.423 4.376-33.039h1.202c.172.286.286.458.344.516.057.114.085.628.085 1.544 0 15.042-3.003 34.094-9.011 57.152-2.576 14.221-5.522 32.384-8.838 54.492a738.095 738.095 0 0 1-.687 4.206c2.277-2.468 4.309-4.929 6.092-7.381 1.387-7.118 2.415-12.21 3.089-15.275h1.202c-.243 1.156-1.014 5.303-2.316 12.443 3.105-4.651 5.31-9.256 6.607-13.816 1.372-5.207 3.805-9.668 7.294-13.388 1.5-1.577 3.072-2.864 4.72-3.861 2.456-10.605 4.487-21.017 6.093-31.236a8.664 8.664 0 0 1-.515-2.918c0-3.604.744-11.699 2.23-24.286l2.489-19.995c1.43-10.012 2.146-17.563 2.146-22.655.628-9.039 3.089-11.699 7.38-7.98 1.659 1.373 3.117 3.375 4.378 6.007 1.313 2.631 1.973 4.892 1.973 6.78 0 4.977-1.373 16.791-4.118 35.441a374.41 374.41 0 0 1-1.546 9.782c.344 2.575.515 5.75.515 9.526 0 7.666-1.372 21.11-4.118 40.333-.113.629-.2 1.287-.258 1.974.384.482.728.997 1.029 1.544 2.485-14.118 4.688-29.221 6.608-45.31 2.473-20.232 4.504-42 6.093-65.305a4.304 4.304 0 0 0 0-.601c.157-2.164.157-3.508 0-4.034-1.315-3.318-2.89-5.75-4.72-7.294-8.501-7.234-18.055-13.298-28.662-18.193 4.415 4.237 6.703 8.528 6.859 12.875m-27.461-1.373l.085-5.492h1.202c.286 6.007.716 14.903 1.287 26.689 0 9.497-1.315 22.025-3.947 37.586-3.947 23.856-6.035 36.585-6.266 38.188l-.943.944c-.571.915-.857.658-.857-.772a3565.784 3565.784 0 0 0 4.72-32.181c3.145-21.854 4.719-43.508 4.719-64.962m30.893 8.153c0-.858.029-1.202.086-1.03v.257h2.489V73.88c-2.231 11.213-3.433 17.363-3.604 18.45-1.373 7.38-2.433 14.102-3.177 20.166l-.943.943c-.571.687-.858.315-.858-1.115 0-1.544 1.001-7.867 3.004-18.965a188.067 188.067 0 0 0 3.003-33.638M528.24 36.636c.287.858.43 2.26.43 4.206 0 2.803-2.087 12.042-6.264 27.718s-7.237 25.773-9.184 30.292c-.571.915-.858.658-.858-.772a2628.9 2628.9 0 0 0 6.951-24.801c4.75-16.991 7.324-29.205 7.724-36.643h1.201m-2.574 48.057c.173.286.286.486.344.601.057.114.085.658.085 1.631 0 2.86-1.945 16.19-5.834 39.989-4.006 24.372-7.038 41.02-9.098 49.944l-.943.085c-.287.801-.43.486-.43-.943 0-4.977 2.433-20.138 7.294-45.482 4.862-25.344 7.295-40.62 7.295-45.825h1.287m-19.223-19.738h1.201c.287 1.374.43 3.347.43 5.922 0 9.382-4.862 41.734-14.589 97.056-9.439 53.777-15.876 86.816-19.309 99.117h-.857c-.287.801-.43.486-.43-.945a8245.566 8245.566 0 0 0 15.361-76.975c10.584-54.293 16.649-95.684 18.193-124.175m-76.89 251.867c-.286-2.574-.429-6.838-.429-12.787 0-24.086 2.689-64.477 8.067-121.17 5.492-58.24 9.812-89.534 12.958-93.882-5.606 34.269-10.04 72.256-13.301 113.962-2.288 28.947-4.433 66.907-6.436 113.877h-.859m30.121 28.232l-.943.088c-.287.801-.429.485-.429-.945 0-4.177 7.208-22.025 21.626-53.548 15.788-33.754 25.028-53.949 27.717-60.586 6.18-15.045 11.528-34.268 16.049-57.667 4.404-25.63 7.923-44.28 10.554-55.951.059 31.522-8.553 69.625-25.83 114.306-5.319 13.844-13.387 33.01-24.198 57.495-12.016 27.116-20.199 46.055-24.546 56.808m-80.751 44.282c1.945-4.691 3.49-8.354 4.634-10.985 2.117-4.748 4.005-7.953 5.664-9.61-1.888 6.007-5.034 13.443-9.44 22.312-6.922 14.016-10.498 21.31-10.727 21.883-.572.915-.858.657-.858-.772 0-1.315 1.774-5.492 5.321-12.528 3.26-6.526 5.063-9.958 5.406-10.3m136.016-170.773h1.287c.286 1.374.429 3.633.429 6.779 0 6.351-.772 13.703-2.316 22.055a.974.974 0 0 0-.258-.172 19.161 19.161 0 0 0-1.973-.858 293.174 293.174 0 0 0 2.831-27.804z"/><path fill="#5F3516" d="M567.715 161.068c-.394 1.693-.822 3.38-1.287 5.063a342.847 342.847 0 0 1-1.201 7.466c-1.373 8.352-3.661 20.452-6.865 36.299-.572 3.089-1.459 7.237-2.66 12.443l-.086.085a279.193 279.193 0 0 1-11.756 26.345c1.888 5.663 2.831 13.157 2.831 22.483 0 .516.116 3.117.344 7.81.108 4.995-.121 9.487-.688 13.473a287.534 287.534 0 0 0 5.149-17.851c2.574-9.954 5.378-22.997 8.41-39.131a4872.173 4872.173 0 0 1 4.376-23.17c-1.783 2.452-3.814 4.913-6.092 7.381.228-1.374.457-2.775.687-4.206 3.315-22.106 6.262-40.269 8.838-54.49M441.053 307.554c-.069-2.702-.813-4.76-2.23-6.178-1.03 6.692-2.317 12.242-3.862 16.646.057.057.143.145.257.258.844.845 1.559 1.846 2.146 3.004a634.165 634.165 0 0 0 3.689-13.73m-35.356-5.663c.375 2.569.748 5.087 1.115 7.551.964-2.431 1.537-4.117 1.716-5.063v-.087a10.694 10.694 0 0 1-2.831-2.401m-26.688-24.887c-.927 2.062-1.814 4.579-2.661 7.551-.754 2.602-1.498 7.205-2.231 13.817-1.533 5.403-3.22 10.382-5.063 14.931-11.707 28.905-28.67 53.762-50.888 74.573 20.653-17.915 34.955-34.649 42.907-50.201 4.616-8.982 8.62-18.593 12.014-28.834 3.823-11.456 6.884-23.699 9.183-36.729-1.132 1.113-2.219 2.742-3.261 4.892m189.649-131.468a322.208 322.208 0 0 0 2.061-10.641v-10.727c-.515 0-1.115.143-1.802.429-1.086.458-1.631 1.058-1.631 1.803 0 .628.286 2.23.858 4.805.571 2.631.857 4.405.857 5.321.001 2.829-.112 5.833-.343 9.01m42.394-63.331c0-1.888-.659-4.148-1.973-6.78-1.261-2.631-2.719-4.634-4.378-6.007-4.291-3.718-6.752-1.059-7.38 7.98 0 5.092-.716 12.644-2.146 22.655l-2.489 19.995c-1.486 12.586-2.23 20.681-2.23 24.286 0 .983.173 1.955.515 2.918 1.709-10.354 2.968-20.509 3.776-30.464l1.287-.343c.858 1.144 1.287 2.889 1.287 5.235 0 18.192-8.01 53.405-24.028 105.638a4525.428 4525.428 0 0 1-12.872 41.19c6.294-16.705 11.471-31.007 15.532-42.907 17.679-51.774 27.403-94.74 29.177-128.894h1.202c.286.858.429 2.26.429 4.206 0 21.968-7.607 56.122-22.826 102.462-4.006 12.243-10.127 29.95-18.365 53.12-7.208 20.252-11.897 33.925-14.073 41.02l-.515.43c-.114.113-.2.228-.257.342l-6.094 18.45-.943.087c-.287.801-.43.486-.43-.945 0-3.831 4.748-20.053 14.245-48.656 10.127-29.864 15.849-46.969 17.163-51.317 3.952-12.746 7.354-25.217 10.212-37.416-1.647.997-3.22 2.284-4.72 3.861-3.489 3.719-5.922 8.181-7.294 13.388-1.298 4.56-3.502 9.165-6.607 13.816-1.133 6.343-2.677 15.011-4.634 26.001-2.859 15.733-5.607 28.776-8.238 39.131-7.666 30.093-19.194 56.152-34.584 78.179-.571 0-1.001-.172-1.287-.516 9.163-13.164 16.972-28.009 23.428-44.537-2.67 3.376-6.187 5.063-10.556 5.063-1.128 0-2.186-.114-3.175-.343-1.362 3.852-2.822 7.972-4.376 12.356-5.551 14.99-10.899 27.461-16.048 37.417h-.858c-.287.801-.43.485-.43-.945 0-.802 2.231-6.35 6.694-16.647 4.977-11.499 7.923-18.68 8.838-21.541 1.48-4.552 2.711-8.356 3.691-11.412a9.785 9.785 0 0 1-3.348-2.317c-3.374 4.577-6.093 6.865-8.152 6.865-.791 0-1.563-.058-2.316-.172a2715.375 2715.375 0 0 1-13.13 30.723l-.858-.429a4117.939 4117.939 0 0 0 13.045-30.379c-4.348-.783-7.266-3.243-8.754-7.38a19.912 19.912 0 0 1-.686-2.661c-.517.343-1.031.715-1.546 1.116-1.773 3.947-3.833 7.208-6.178 9.783 2.632-6.351 5.291-13.36 7.979-21.025.572-3.261 1.688-6.494 3.348-9.697.285-1.029.6-2.06.943-3.089l-.686-2.06a147.327 147.327 0 0 1-1.46 4.634c-3.719 11.613-8.323 23.142-13.815 34.584-2.918 4.004-5.635 7.15-8.152 9.439-1.259 5.664-4.663 11.1-10.213 16.305-8.181 7.667-18.334 11.498-30.464 11.498-2.059 0-3.947-.114-5.664-.342-1.529 2.211-3.331 3.898-5.406 5.062-.712 2.471-1.428 4.932-2.145 7.382l-.514.426c-.571.915-.858.657-.858-.772 0-.763.343-2.764 1.03-6.007-1.618.571-3.393.857-5.321.857-5.091 0-8.81-1.63-11.156-4.892a424.181 424.181 0 0 1-8.152 14.675c-10.011 17.277-19.823 31.637-29.435 43.079-.4.515-.801 1-1.201 1.458H395.4c-.445.568-.903 1.14-1.373 1.716h9.182c.858-.915 1.745-1.83 2.66-2.745 2.002-1.259 5.149-3.461 9.44-6.607 7.266-5.549 11.528-8.726 12.787-9.526 3.947-2.401 7.123-4.404 9.525-6.007.172-.057.315-.086.429-.086h.858c1.178-.901 2.323-1.76 3.433-2.574 3.559-.122 6.448-1.009 8.667-2.66l.602-.6a141.67 141.67 0 0 1 9.44-1.717c5.376-.801 13.415-1.889 24.113-3.262a74.958 74.958 0 0 0 5.663-1.201 23.364 23.364 0 0 0 1.546-.344 65.352 65.352 0 0 0 4.376-1.287c10.846-3.384 20.456-8.818 28.833-16.305a4.6 4.6 0 0 0 .515-.342c.283-.318.568-.632.858-.945 6.636-7.094 12.872-15.504 18.708-25.229 4.118-6.58 8.896-15.39 14.331-26.432a492.982 492.982 0 0 0 5.321-11.07c2.075-5.213 3.734-9.388 4.976-12.528a152.652 152.652 0 0 1 7.124-15.447c.015 0 .015-.026 0-.085a415.07 415.07 0 0 0 9.267-25.745c2.987-9.286 5.763-19.3 8.325-30.035 2.754-11.358 5.271-23.544 7.551-36.558a11.112 11.112 0 0 0-1.029-1.544c.058-.687.145-1.344.258-1.974 2.746-19.223 4.118-32.667 4.118-40.333 0-3.776-.171-6.951-.515-9.526a374.41 374.41 0 0 0 1.546-9.782c2.744-18.649 4.117-30.463 4.117-35.44m-146.486 273.92c-6.751 5.207-17.249 11.585-31.494 19.137-14.017 7.494-23.313 13.072-27.89 16.734-7.952 6.351-11.842 13.043-11.671 20.081h-.858c-.286.799-.429.485-.429-.945 0-6.809 4.062-13.501 12.186-20.08 7.323-5.95 19.881-13.272 37.673-21.97 10.183-5.035 19.308-12.041 27.374-21.024.4-.456 3.376-3.976 8.925-10.555 3.319-3.946 6.209-6.98 8.667-9.096-4.061 10.069-11.556 19.309-22.483 27.718m51.661-137.562h-1.287a293.535 293.535 0 0 1-2.831 27.804c.628.229 1.287.517 1.973.858a.974.974 0 0 1 .258.172c1.544-8.352 2.316-15.704 2.316-22.055-.001-3.145-.143-5.405-.429-6.779m65.648-178.494a148.95 148.95 0 0 0-13.217-5.234 152.982 152.982 0 0 0-22.139-5.75c-.9.315-1.758.687-2.574 1.115-2.805-1.087-6.036-1.917-9.698-2.488-6.749-1.03-14.101-1.088-22.054-.172-.223-.169-.452-.34-.687-.516-20.058 1.048-38.622 5.881-55.694 14.503-7.445 3.723-14.482 8.357-21.11 13.902a9.68 9.68 0 0 0-.429 2.231 49.656 49.656 0 0 0-3.604 3.862c-.8.679-1.601 1.365-2.403 2.06-10.225 8.837-18.235 19.507-24.028 32.009-6.964 19.72-10.968 42.918-12.014 69.595a900.685 900.685 0 0 1-.6 12.959l-.258 10.297c-.145.567-.288 1.14-.429 1.716a1051.937 1051.937 0 0 1-6.437 67.278 311.222 311.222 0 0 1-2.23 14.674c-2.299 13.03-5.359 25.273-9.183 36.729-3.394 10.241-7.398 19.852-12.014 28.834-7.952 15.552-22.254 32.286-42.907 50.201-.881.823-1.768 1.624-2.66 2.403a199.824 199.824 0 0 1-9.697 8.323c-5.345 4.313-11.781 9.317-19.308 15.018-1.895.744-3.039 1.603-3.433 2.575-.244.693-.129 1.438.343 2.23h41.535c3.121-4.205 6.896-9.297 11.328-15.274 3.105-4.201 5.966-8.12 8.582-11.757 4.757-6.643 8.705-12.365 11.842-17.163 4.633-7.094 9.611-16.905 14.931-29.434 6.122-14.359 10.27-23.542 12.443-27.546-2.059 9.152-5.435 18.936-10.126 29.348-4.691 10.411-10.155 20.194-16.391 29.348-2.741 4.057-6.459 9.549-11.156 16.478-2.664 3.917-5.639 8.293-8.925 13.129-3.346 4.708-6.606 8.999-9.783 12.872h18.107c4.691-5.206 9.555-11.47 14.589-18.792-1.66 4.348-2.489 7.408-2.489 9.182 0 1.028.029 1.659.086 1.887.057.116.314.287.772.517l.858-.945a2385.62 2385.62 0 0 1 9.526-23.427c.801-1.372 1.66-2.861 2.575-4.463 1.602-2.803 2.975-5.377 4.119-7.724a59.443 59.443 0 0 0 1.459-2.574c7.952-14.302 15.446-29.52 22.483-45.653 2.63-6.015 4.66-10.851 6.092-14.503-1.05-4.68-1.937-10.115-2.66-16.305-.458-1.624-.687-2.452-.687-2.489 0-1.028.029-2.088.086-3.174a293.684 293.684 0 0 1-.515-6.178c-.858-11.386-1.287-25.975-1.287-43.766 0-22.771 1.402-47.829 4.205-75.175 3.547-34.383 8.152-55.694 13.816-63.932l1.545.172c1.087.114 1.716.343 1.887.686-6.637 3.146-11.842 23.599-15.618 61.358-2.746 27.518-4.12 53.176-4.12 76.976 0 16.419.4 30.234 1.202 41.447.984-4.813 2.557-9.789 4.72-14.93 2.174-5.206 4.605-9.899 7.294-14.074.343-5.836.514-10.899.514-15.19-1.43-9.954-1.945-17.763-1.544-23.426v-1.116c.057-.458.115-.887.172-1.287l-.172-2.575c-.114-5.606-.172-8.438-.172-8.495 0-1.087.029-2.146.086-3.175a63.17 63.17 0 0 1-.515-5.578c-2.455 11.135-4.458 20.518-6.007 28.147h-.858c-.286.801-.429.486-.429-.944 0-2.546 2.231-13.988 6.694-34.326a283.915 283.915 0 0 1-.258-3.433c-.171-4.749-.286-7.895-.343-9.44a572.244 572.244 0 0 1 2.488-9.354c4.291-15.904 7.581-29.206 9.869-39.904-1.602 3.89-5.72 18.537-12.357 43.938.229-3.662.687-7.065 1.373-10.212.057-6.636.573-11.756 1.545-15.36.572-2.174 1.258-4.09 2.06-5.75l.085-.686c0-9.498 2.518-19.537 7.553-30.122 1.258-6.408 4.348-12.901 9.268-19.479 5.892-7.838 13.158-14.303 21.796-19.395 3.605-2.117 7.008-3.718 10.212-4.805 1.773-2.518 3.977-4.892 6.607-7.123 5.02-4.313 10.74-7.717 17.163-10.212.529-.633 1.072-1.12 1.631-1.459-.054.305-.11.591-.171.858a78.45 78.45 0 0 1 9.61-2.66c1.603-.973 3.404-1.859 5.407-2.661 9.554-3.833 21.338-4.949 35.354-3.346 13.903 1.544 25.716 5.263 35.442 11.156 2.805 1.716 5.234 3.518 7.295 5.406a28.146 28.146 0 0 1 3.604 2.403c-.154-4.346-2.442-8.637-6.863-12.871z"/><path fill="#D5786A" d="M667.433 248.513c.47-.379.956-.751 1.458-1.115-.171 0-.372.086-.6.257-.409.326-.694.613-.858.858m12.614-3.433l-.688-.771a28.043 28.043 0 0 0-1.802-.429c.979.416 1.809.845 2.489 1.287v-.087m-2.488-1.2c-1.17-.194-2.2-.251-3.089-.173a62.935 62.935 0 0 0-5.578 3.69 35.82 35.82 0 0 0-1.458 1.115.923.923 0 0 0-.173.258c-.057.057-.085.201-.085.429a3.66 3.66 0 0 0-1.029 1.546l.171.858.258.256c.058.116.143.259.257.43.458.687.83 1.03 1.116 1.03a4.568 4.568 0 0 0 2.489 1.287 8.001 8.001 0 0 0 2.058.771c.173.057.373.113.603.173 2.401.915 3.976 1.372 4.72 1.372.344 0 .658-.144.943-.429.114.057.258.114.429.171.105-.104.191-.22.259-.342-5.435-.473-8.98-1.79-10.642-3.949 1.661 2.159 5.207 3.477 10.642 3.949.197-.143.368-.285.514-.43.172-.113.371-.258.601-.429.801-.573 1.287-1.002 1.46-1.287.515-1.031.771-1.946.771-2.747 0-.515-.085-.858-.256-1.029l.256-1.889-2.745-3.346c-.684-.44-1.513-.869-2.492-1.285m-6.78-2.574c-.236.526-.552 1.24-.943 2.146a158.016 158.016 0 0 1 4.376-6.609 25.62 25.62 0 0 1-1.373 1.631c-.858.743-1.543 1.687-2.06 2.832m12.702-13.045c-.003-.021-.033-.049-.085-.086a1.666 1.666 0 0 0-.344-.258h-.086c.18.129.351.245.515.344m-1.802.943a.98.98 0 0 1-.344.258 27.813 27.813 0 0 1 2.146-1.116v-.085a8.238 8.238 0 0 1-.515-.344l-.085.087c-.402.171-.802.572-1.202 1.2m-.344.258c-.422.488-1.166 1.088-2.23 1.802-.98.88-1.981 1.909-3.004 3.09a7.13 7.13 0 0 1-.429.687 43.815 43.815 0 0 1-1.46 1.802 159.35 159.35 0 0 0-4.376 6.609 850.92 850.92 0 0 0-1.631 3.861c.402-.344.602-.344.602 0l.085.085a62.935 62.935 0 0 1 5.578-3.69.852.852 0 0 1-.258.086c.344-.515.658-.915.945-1.2l1.629-.688c1.088.058 2.089-.457 3.004-1.545.344-.114.915-.486 1.716-1.115.058-.059.114-.085.173-.085h.171c.344.057 1.116-.716 2.318-2.318 1.143-1.601 1.716-2.574 1.716-2.918.057-.342-.144-.6-.602-.771.229-.344.344-.858.344-1.546.057-.344-.086-.657-.43-.943-.113-.115-.201-.199-.258-.258v-.171c0-.116-.057-.259-.171-.43-.228-.286-.457-.429-.687-.429-.114-.4-.285-.688-.516-.858a.417.417 0 0 0-.085-.173 28.16 28.16 0 0 0-2.144 1.116m-2.23 1.802c-.245.17-.503.341-.772.515-.58.533-1.324 1.392-2.231 2.575a34.147 34.147 0 0 1 3.003-3.09z"/><path fill="#DC9F7E" d="M682.363 208.523c.37-.111.686-.168.945-.171-.447-.777-1.535-.548-3.262.687-1.438 1.049-2.896 2.45-4.376 4.205 1.154-.73 2.127-1.474 2.918-2.231 1.373-1.373 2.633-2.203 3.775-2.49m.946-.171c-.26.003-.575.061-.945.171-1.143.286-2.402 1.116-3.774 2.489-.791.757-1.764 1.501-2.918 2.231a70.467 70.467 0 0 0-1.975 2.746c1.545-.343 3.575-1.144 6.093-2.403 2.46-1.315 4.177-2.574 5.148-3.776.721-.989.605-1.218-.342-.687-.25.188-.564.417-.945.687-.001-.626-.115-1.113-.342-1.458z"/><path fill="#8283BF" d="M644.863 173.168a57.325 57.325 0 0 1-1.717-.772l-.085-.085c-.344-.172-.545-.287-.603-.344a3.202 3.202 0 0 1-.429-.257c.021.075.021.132 0 .172.101.148.188.292.258.429.285.229 1.116.543 2.489.944a.715.715 0 0 1 .087-.087m-3.603-5.063c.026.071.026.129 0 .171.013.298.013.584 0 .858.041.1.07.186.085.257.081.646.251 1.275.515 1.888.049.169.105.313.171.429.128.092.271.179.429.257.058.057.259.172.603.344l.085.085c.568.268 1.14.524 1.717.772.214-.263.415-.52.6-.772v-.085c-.711-.649-1.166-1.307-1.373-1.975-.229-.743-.199-1.688.086-2.832.208-1.086.779-1.83 1.716-2.231a7.392 7.392 0 0 0-.515-1.202l-2.83.858c-.734 1.011-1.162 2.07-1.289 3.178m1.543-3.518a7.283 7.283 0 0 0-.256.343l2.83-.858-2.574.515z"/><path fill="#E4B79E" d="M650.098 174.541a1.48 1.48 0 0 1-.43-.172c-.508.271-.192 2.272.943 6.007 1.146 3.89 1.288 10.355.43 19.395-.399 4.52-.915 9.268-1.544 14.245 2.174-3.718 3.404-8.496 3.689-14.331.343-6.75 0-12.672-1.029-17.764-.655-3.104-1.2-5.249-1.631-6.436a6.54 6.54 0 0 0-.428-.944m0 0c-.131-.136-.247-.194-.344-.172a.408.408 0 0 1-.086 0c.149.086.292.143.43.172z"/><path d="M646.75 166.474c-.113-.515-.285-.944-.515-1.288a.263.263 0 0 1-.171 0 .31.31 0 0 1-.173.086c-.937.401-1.508 1.145-1.716 2.231-.285 1.144-.315 2.088-.086 2.832.207.667.662 1.325 1.373 1.975v.085c.057.02.086.049.087.085a.455.455 0 0 1 .171.086c.019-.036.019-.094 0-.172.294-.49.493-.976.601-1.459.286-.629.429-1.201.429-1.716.057-.4.057-.743 0-1.03v-.858-.857m6.007-3.862c1.488-.8 2.347-2.087 2.575-3.862.229-1.83.057-2.002-.515-.514-.515 1.487-1.401 2.459-2.66 2.918a3.488 3.488 0 0 1-.601.171c-.78.363-1.126.592-1.03.687a.668.668 0 0 1 .173.257v.085c.057.115.057.372 0 .773-.114.401.572.229 2.058-.515z"/><path fill="#CCC" d="M637.739 166.389c-.228 0-.515.085-.857.257-.456.171-.686.372-.686.601 0 .111.028.226.085.344.091.206.292.406.601.6.516.343.972.429 1.374.258.629.972 1.23 1.458 1.802 1.458s.858-.201.858-.6l-.173-.688.173-1.716c0-.4-.029-.658-.086-.771-.173-.229-.573-.344-1.201-.344l-1.89.601z"/><path fill="#DFAA91" fill-opacity=".761" d="M648.811 138.67a22.274 22.274 0 0 1 1.545 3.175c1.956 4.599 2.844 10.09 2.66 16.476.514-1.945.887-5.578 1.116-10.898.171-2.861.143-4.691-.087-5.493h-1.459c-1.372-.458-2.488-1.43-3.347-2.918a2.936 2.936 0 0 0-.428-.342z"/><path fill="#1F100A" d="M632.935 139.1c-.898.767-1.785 1.54-2.66 2.317-.094.099-.18.184-.258.257l-.257.772.43.944c6.146-6.112 12.866-8.773 20.166-7.98 1.601.8 2.546 1.716 2.831 2.746.286.973.402 1.774.343 2.403.06-.629-.057-1.431-.343-2.403-.285-1.029-1.23-1.945-2.831-2.746-7.3-.792-14.021 1.868-20.166 7.98l.17.343c1.946-1.544 4.12-2.917 6.522-4.119 1.26-.629 2.604-1.316 4.034-2.059 1.657-.858 3.489-.973 5.492-.344.973.286 1.773.773 2.402 1.459.172.114.314.229.429.343.858 1.488 1.975 2.46 3.347 2.918h1.631c0-.057-.028-.085-.085-.085l.085-.086.515-.686a.791.791 0 0 0 0-.257c.394-2.447-.379-4.335-2.316-5.665a10.685 10.685 0 0 0-2.489-1.287c-1.145-.397-2.287-.511-3.432-.343-2.003.286-4.062.8-6.18 1.544-2.173.687-4.062 1.631-5.664 2.832-.569.406-1.142.807-1.716 1.202z"/><g><path fill="none" stroke="#1A120B" stroke-linecap="round" stroke-linejoin="round" d="M581.875 40.112a140.754 140.754 0 0 0-13.217-5.277 149.153 149.153 0 0 0-22.139-5.707m-35.012-2.059c-20.058 1.018-38.622 5.837-55.694 14.459-7.445 3.723-14.482 8.372-21.11 13.945m-30.465 40.161c-6.964 19.691-10.968 42.875-12.014 69.552a900.685 900.685 0 0 1-.6 12.959m-.687 12.014a1051.937 1051.937 0 0 1-6.437 67.278 311.222 311.222 0 0 1-2.23 14.674c-2.299 13.03-5.359 25.273-9.183 36.729-3.394 10.241-7.398 19.852-12.014 28.834-7.952 15.552-22.254 32.286-42.907 50.201M581.875 40.112c10.607 4.866 20.161 10.916 28.662 18.15 1.83 1.545 3.404 3.976 4.72 7.294.157.525.171 1.87.044 4.034M546.52 29.127c-11.295-2.021-22.796-2.722-34.498-2.103a6.617 6.617 0 0 0-.515.044m91.049 153.78c2.485-14.146 4.703-29.25 6.65-45.31 2.445-20.26 4.462-42.042 6.051-65.348.014-.207.028-.407.044-.601M434.702 55.473c-9.967 8.41-19.006 18.923-27.117 31.537a165.125 165.125 0 0 0-3.347 8.625m-12.614 82.511c-.206 4.006-.435 8.011-.687 12.014m-72.771 197.716a372.978 372.978 0 0 1-4.892 4.162c-.353.295-.71.595-1.073.901-6.242 5.162-13.008 10.427-20.294 15.79a462.606 462.606 0 0 1-6.351 4.635M493.1 381.055c1.16.384 2.391.555 3.689.515m80.666-108.385a441.594 441.594 0 0 0 9.225-25.787c2.987-9.286 5.775-19.286 8.367-29.992 2.726-11.386 5.229-23.572 7.509-36.557m-25.101 92.336a.872.872 0 0 1-.042.087 504.805 504.805 0 0 1-4.162 10.211 540.727 540.727 0 0 1-7.896 17.721m-39.26 63.675c.283-.318.568-.632.858-.945 6.636-7.094 12.872-15.504 18.708-25.229 4.118-6.58 8.896-15.39 14.331-26.432a651.327 651.327 0 0 0 5.363-11.07m-50.158 72.814a67.592 67.592 0 0 0 10.897-9.138m-28.233 16.604c.46-.059.931-.129 1.417-.215 2.978-.534 6.31-1.765 9.997-3.69a67.4 67.4 0 0 0 5.922-3.562m-18.408 7.553c.347-.022.704-.051 1.072-.086"/></g><g><path fill="none" stroke="#492C23" stroke-linecap="round" stroke-linejoin="round" d="M631.391 81.775L616.588 69.89m68.522 141.723c-1.832 1.43-3.262 3.061-4.291 4.892-1.315 2.402-1.173 5.92.43 10.554l.085.044m2.403 1.287c.218.176.418.362.601.558.4.23.688.544.857.944.114.114.201.228.259.344.915 1.601.943 3.202.085 4.805-1.486 2.918-4.177 5.263-8.066 7.036l-1.458.858-.43.258c.714.227 1.388.47 2.017.729m3.388 1.889l1.846 2.188a.648.648 0 0 0 .044.129c.043.126.085.255.127.386.014.057.026.114.044.173.744 3.202.144 5.462-1.802 6.779a6.816 6.816 0 0 1-1.202.943c-.228.229-.486.43-.772.601-2.745 2.23-4.319 4.262-4.72 6.092-1.888 6.809-2.003 13.73-.344 20.769-2.574 9.84-9.497 15.046-20.767 15.617-1.773.116-4.519-.028-8.237-.429-3.891-.457-6.636-.972-8.238-1.544a70.663 70.663 0 0 0-3.348-1.201 38.81 38.81 0 0 0-4.978 1.329m-8.752 4.333l8.324-4.161m-14.416 9.266l-15.447 30.25c-.029.117-.057.231-.087.344-.026.115-.057.229-.085.343a34.56 34.56 0 0 0-.086.344l-.085.344-10.941 23.127m-30.765 54.362c.824-1.274 1.652-2.562 2.487-3.862M616.588 69.89l-.044-.043M595.09 286.829c1.073.297 2.188.595 3.348.901a827 827 0 0 0 35.184 8.582m51.488-84.699c7.953-3.661 8.753-10.326 2.401-19.995-6.349-9.726-12.758-18.421-19.221-26.088-6.523-7.723-10.184-17.506-10.985-29.349-.857-11.899-4.575-23.599-11.155-35.098-4.15-7.192-9.071-13.628-14.76-19.309m-97.143 338.368a139.292 139.292 0 0 0-1.973-3.345c-11.521-18.786-25.322-29.985-41.405-33.598m192.482-174.804c-.287-.025-.617.018-.987.128-1.143.286-2.402 1.116-3.774 2.489-.791.757-1.75 1.501-2.876 2.231a29.258 29.258 0 0 1-2.702 1.631c-2.256 1.155-4.773 1.513-7.553 1.072a3.492 3.492 0 0 1-.343-.042c-3.72-.687-5.835-2.718-6.352-6.093-.398-2.517.145-4.862 1.631-7.036m24.201 6.392c-.298-.467-.712-.724-1.245-.772m-2.017 18.708c.51.174 1.053.459 1.631.858.18.101.367.214.559.343m.213.086a.433.433 0 0 0-.173-.044l-.041-.042m-9.01 15.447c.32-.188.648-.374.985-.559m4.593 1.975a16.524 16.524 0 0 0-2.489-1.245m-1.631-.987h.044m-.517.257c.173-.113.315-.201.429-.258h.044m-.044.001l-.127.087-.215.171m5.405 2.618a9.617 9.617 0 0 0-.899-.644m-12.658 3.346c.47-.379.956-.751 1.458-1.115a54.034 54.034 0 0 1 5.622-3.646m-46.298 54.062c.139-.065.281-.123.429-.173m-33.554-10.812c-9.791-2.827-16.026-5.787-18.708-8.882-.059-.342-.115-.686-.171-1.028m38.961 28.789a39.442 39.442 0 0 1 3.604-2.96c.363-.263.733-.521 1.115-.772m-6.092 5.105c.445-.479.903-.937 1.373-1.373m-45.955 89.291a526.335 526.335 0 0 0 6.608-11.758 796.188 796.188 0 0 0 11.242-21.409m-28.277 50.501a506.672 506.672 0 0 0 10.427-17.334"/></g><g><path fill="none" stroke="#1F100A" stroke-linecap="round" stroke-linejoin="round" d="M630.23 143.433c6.118-6.141 12.825-8.816 20.125-8.023 1.601.8 2.546 1.716 2.831 2.746.286.973.402 1.774.343 2.403"/></g><g><path fill="none" stroke="#000" stroke-width="2" stroke-linecap="round" stroke-linejoin="round" d="M297.313 141.245l-81.782-29.692-5.32 15.189-1.03 2.832-1.201 3.519 72.942 21.454.343.085 10.298 3.003-8.753 20.767 63.932-10.126-41.191-52.089-8.238 25.058z"/></g><g><path fill="none" stroke="#4D3620" stroke-linecap="round" stroke-linejoin="round" stroke-opacity=".902" d="M394.027 420.142c.47-.576.942-1.147 1.415-1.716m-31.236 0c-.387.575-.773 1.146-1.159 1.716"/></g><g><path fill="none" stroke="#000" stroke-linecap="round" stroke-linejoin="round" d="M647.309 163.256l-10.298 3.003m-.3.172l5.492-1.416.344-.086m2.874-.815l.215-.043c.159.398.304.784.429 1.159m2.616 8.839c.04.021.082.035.13.042.316.09.604.191.857.3m.858 1.073c-.159-.417-.304-.717-.429-.901-.138-.057-.28-.115-.43-.172m-9.438-3.689c-1.285-.814-2.4-1.658-3.347-2.532m4.848 3.09a9.047 9.047 0 0 1-.386-1.846c-.015-.1-.028-.2-.044-.3a8.52 8.52 0 0 1 0-.815v-.214a7.4 7.4 0 0 1 .902-3.089m-6.478 1.973c-.067-.082-.14-.167-.215-.257-.119.04-.104.168.044.386.115.178.33.421.644.73.165.149.337.307.515.472.272.245.586.516.943.815a19.14 19.14 0 0 0 1.631 1.201m.943.386c.515.336 1.06.665 1.631.987a4.722 4.722 0 0 1-.129-.429m-5.45-3.69a28.747 28.747 0 0 1-.558-.601m.988-.558l-1.202.301.085-.086 1.417-.387m13.688-3.989l-3.391.986m1.373 10.813a24.165 24.165 0 0 1-2.102-.387 16.487 16.487 0 0 0-.772-.172 17.98 17.98 0 0 0-.686-.257 1.774 1.774 0 0 0-.258-.086m-5.578-2.832a31.618 31.618 0 0 0 2.789 1.545m-5.192-3.69c-.309-.194-.51-.394-.601-.6m9.14-3.476l-2.874.815m-.517 6.823l.429.214c.058.057.259.172.603.344.036.037.078.08.129.128.539.239 1.096.481 1.673.729m.257.087c.178-.257.334-.515.471-.773m-3.733-.772c.054.018.11.032.171.043m-12.013-3.732l5.492-1.288"/></g><g><path fill="none" stroke="#623A2F" stroke-width=".5" stroke-linecap="round" stroke-linejoin="round" d="M676.142 234.354a30.916 30.916 0 0 1 2.962-3.09c1.064-.714 1.823-1.299 2.274-1.758a16.256 16.256 0 0 1 2.146-1.16h.041m-7.423 6.008a50.787 50.787 0 0 0-1.888 2.488 133.25 133.25 0 0 0-4.419 6.609m10.212 12.957l-.559-.043c-5.462-.502-9.021-1.832-10.683-3.991"/></g></svg>