<svg xmlns="http://www.w3.org/2000/svg" xmlns:xlink="http://www.w3.org/1999/xlink" preserveAspectRatio="none" width="285" height="427" viewBox="0 0 285 427"><defs><path fill="#EFBD9C" d="M176 204.3q7.75-17 11.45-35.15L176 204.3m-66.05-23.05v3.95q.1-2 .15-4-.05 0-.15.05m.8-38q-.05-2.7-.05-5.45-.35.1-.75.2v43.25q.1-.05.15-.05.8-18.9.65-37.95m-.95-33.45l.15 28.2q.4-.1.75-.2-.2-13.95-.9-28m-53.3 18.8q.5 1.5 1.05 2.95h.05q-.55-1.45-1.1-2.95m1.05 2.95q.25.65.55 1.3-.3-.7-.5-1.3h-.05m75.5-52.2q-1.65-3.7-3.6-5.8 2.2 2.5 3.6 6.6l.15 2.2-.15-3M109.6 80q.009-.489.1-.9-.05.1-.1.25V80m9.4-10.45q-2.3-.85-4.8 1.3-1.3 1.05-2.2 2.65 2.3-2.85 7-3.95M180.55 102l-6.75 22.4-9.6 28.75-13.1 32.65q-1.6 3.2-4.3 4.7 6.95.35 14.45 4.4-7.5-4.05-14.45-4.4-1.95.9-4.6 1-2.1-.25-3.35-1.45l-9.45.15 9.45-.15q-1.85-2-1.45-6.25v-41.5l-4.2-59.95-.15-2.2q-1.4-4.1-3.6-6.6-.85-.9-1.65-1.5-2.9-2.15-8.55-2.35-.15-.1-.25-.15-4.7 1.1-7 3.95-1.45 2.25-2.3 5.6-.091.411-.1.9v.15l.2 29.2v.45q.7 14.05.9 28 7.6-2.15 14.05.2-6.45-2.35-14.05-.2 0 2.75.05 5.45 10.8 5.6 19.1.8-8.3 4.8-19.1-.8.15 19.05-.65 37.95 6.1-2.25 13.35-2.3-7.25.05-13.35 2.3-.05 2-.15 4-2.25 7.3-11.55 3.45l-6.05-34.9q-8.8-14.8-13.1-30.3l-9.6-28.75q-6.1-5.65-14.05-3.2-7.45 4.5-6.35 13.45 1.85 7.35 4.15 14.7l3.1 8.95q.55 1.5 1.1 2.95 8.75-1.05 16.35-5.65-7.6 4.6-16.35 5.65.2.6.5 1.3 3 13.8 8.05 26.65 5.45-4.7 12.8-5.2-7.35.5-12.8 5.2.65 1.75 1.35 3.55 11.65-.65 18.95-5.85-7.3 5.2-18.95 5.85 3.35 16 9.25 30.2 8.5-.3 14.45-4.75-5.95 4.45-14.45 4.75.45 1.05.9 2.15.25 2.75-.15 4.85 7.9-4.95 14.85-6.05-6.95 1.1-14.85 6.05-1 4.1-4.9 6-9.1 3.6-15.4-3.85L47 186.75q-9.75-7.3-17.25-15.75-6.35-10.85-13.7-16.55-6-3.6-10.85 0-4.5 6.45 0 16.3l10.85 16q5.6 10.35 14.35 18.2.15.2.25.4 4.75-3.1 8.35-8.25-3.6 5.15-8.35 8.25 7 11.95 17.6 23.85 8.7-5 12.9-14-4.2 9-12.9 14L54 257.6q24.3-6.35 45.85-17.3 23.9-12.8 29.9-18.75-6 5.95-29.9 18.75Q78.3 251.25 54 257.6q7.7 34.1 24.65 62.05 2.6 4.3 7.25 7.3 9.2 5.75 23.05 6.1-13.85-.35-23.05-6.1 3.7 17.5 3.2 31.35h82.8q-2.6-11.1-3.4-26.9-16.75 7.95-27.4 7-11.5-.8-18.6-7.05 7.1 6.25 18.6 7.05 10.65.95 27.4-7 11.95-5.6 26.7-16.85l21.45-14.1q11-9.1 23.9-10.25 15.15-4.2 29.15-11.5 12.15-4.75 12.45-11.85-.85-9.15-10.25-14.7-17.15-5.45-41.15 8.6-3.8 13.9 5.25 25-9.05-11.1-5.25-25-15.5 7-29.15 7.7-3.65 16.15 4 25.2-7.65-9.05-4-25.2-10.05-.45-15-10.5l-7.4-17.6-2.85-12.45q-25.3 3.2-49.15 36.8-9.8 20.85-13.8 40.4 4-19.55 13.8-40.4 23.85-33.6 49.15-36.8-1.45-11.25-.35-23.6l11.45-35.15q4.85-15.05 8.1-32.65 4.95-16.25 7.3-30.95-1.35-8.45-9.25-10.85-10-.7-13.05 7.3m14.3 34.25q-5.45-.7-16.1-5.15 10.65 4.45 16.1 5.15m-21.05-8.15q5.4.55 11.7 3.15-6.3-2.6-11.7-3.15m13.4 40.3q-9.85-5.5-18.95-8.25 9.1 2.75 18.95 8.25M164.55 154q8.75.75 16.8 5.6-8.05-4.85-16.8-5.6M16.8 186.4q2.5-4.95 9.4-8.95-6.9 4-9.4 8.95m-2.25-2.6q1.85-4.25 5.75-8.1-3.9 3.85-5.75 8.1m8.15-6.7q3.2-3.65 7.7-4.75-4.5 1.1-7.7 4.75m88.3 10.75q8.25 1.25 10.35.75-2.1.5-10.35-.75m-.6-79.85q10.75 2.15 18.05-.35-7.3 2.5-18.05.35m-8.35 149.65q24.4-16.4 52.15-26.6-27.75 10.2-52.15 26.6m129.9 3.1q-.55 17.05 9.25 23.9-9.8-6.85-9.25-23.9m-40 12.4q5.35 20.15-1.6 36.3 6.95-16.15 1.6-36.3M28.6 202.2q3.05-6.3 11.85-10.85-8.8 4.55-11.85 10.85z" id="a"/><path id="b" stroke="#B87C5C" stroke-width="1" stroke-linejoin="round" stroke-linecap="round" fill="none" d="M194.85 136.25q-5.45-.7-16.1-5.15m-4.95-3q5.4.55 11.7 3.15m1.7 37.15q-9.85-5.5-18.95-8.25m-3.7-6.15q8.75.75 16.8 5.6m-107.4-33.7q-7.6 4.6-16.35 5.65h-.05M16.8 186.4q2.5-4.95 9.4-8.95m-11.65 6.35q1.85-4.25 5.75-8.1m2.4 1.4q3.2-3.65 7.7-4.75m35.75-12.85q5.45-4.7 12.8-5.2m31-16.3q.4-.1.75-.2m.3 50.05q8.25 1.25 10.35.75m-11.4-7.35q.1-.05.15-.05m36.7 9.3q6.95.35 14.45 4.4m-22.4-4.85l-9.45.15m-19.3-9q6.1-2.25 13.35-2.3m-12.75-41.1q7.6-2.15 14.05.2m-14 5.25q10.8 5.6 19.1.8M110.4 108q10.75 2.15 18.05-.35m-60.95 55.4q11.65-.65 18.95-5.85m-9.7 36.05q8.5-.3 14.45-4.75M54 257.6q24.3-6.35 45.85-17.3 23.9-12.8 29.9-18.75m-27.7 36.1q24.4-16.4 52.15-26.6M48.25 229.2q8.7-5 12.9-14m115.2 12.7q-25.3 3.2-49.15 36.8-9.8 20.85-13.8 40.4m117.35-44.35q-3.8 13.9 5.25 25m-4.05-25q-.55 17.05 9.25 23.9m-39.6-16.2q-3.65 16.15 4 25.2m-13.65-20.5q5.35 20.15-1.6 36.3M77.5 200.25q7.9-4.95 14.85-6.05m-63.75 8q3.05-6.3 11.85-10.85m-9.8 14q4.75-3.1 8.35-8.25"/><path id="c" stroke="#805137" stroke-width="2" stroke-linejoin="round" stroke-linecap="round" fill="none" d="M133.2 82.35l4.2 59.95v41.5q-.4 4.25 1.45 6.25 1.25 1.2 3.35 1.45 2.65-.1 4.6-1 2.7-1.5 4.3-4.7l13.1-32.65 9.6-28.75 6.75-22.4q3.05-8 13.05-7.3 7.9 2.4 9.25 10.85-2.35 14.7-7.3 30.95-3.25 17.6-8.1 32.65M176 204.3q-1.1 12.35.35 23.6l2.85 12.45 7.4 17.6q4.95 10.05 15 10.5 13.65-.7 29.15-7.7 24-14.05 41.15-8.6 9.4 5.55 10.25 14.7-.3 7.1-12.45 11.85-14 7.3-29.15 11.5-12.9 1.15-23.9 10.25l-21.45 14.1q-14.75 11.25-26.7 16.85.8 15.8 3.4 26.9m-82.8 0q.5-13.85-3.2-31.35-4.65-3-7.25-7.3Q61.7 291.7 54 257.6l-5.75-28.4q-10.6-11.9-17.6-23.85-.1-.2-.25-.4-8.75-7.85-14.35-18.2l-10.85-16q-4.5-9.85 0-16.3 4.85-3.6 10.85 0 7.35 5.7 13.7 16.55 7.5 8.45 17.25 15.75l10.2 15.65q6.3 7.45 15.4 3.85 3.9-1.9 4.9-6 .4-2.1.15-4.85-.45-1.1-.9-2.15-5.9-14.2-9.25-30.2-.7-1.8-1.35-3.55-5.05-12.85-8.05-26.65m-1.6-4.25l-3.1-8.95q-2.3-7.35-4.15-14.7Q48.15 96 55.6 91.5q7.95-2.45 14.05 3.2l9.6 28.75q4.3 15.5 13.1 30.3l6.05 34.9q9.3 3.85 11.55-3.45m-.15-75.4v-.425q-.012-.424-.1-.775-1.3-15.05-.1-28.45V80m.1-.9q.35-3.35 2.3-5.6m7-3.95q.55-.15 1.15-.25 5.7.05 9.3 4.25m3.75 8.8l-.15-2.2q-1.4-4.1-3.6-6.6M112 73.5q2.3-2.85 7-3.95M109.6 80q.009-.489.1-.9m-53.2 49.5q.55 1.5 1.1 2.95.2.6.5 1.3m52.6 4.95q-.2-13.95-.9-28m.3 71.4q.8-18.9.65-37.95-.05-2.7-.05-5.45m-.75 47.4q.1-2 .15-4m58.4 150.2q-16.75 7.95-27.4 7-11.5-.8-18.6-7.05m-13.55 1.7q-13.85-.35-23.05-6.1m101.55-157.8L176 204.3"/></defs><g><use xlink:href="#a"/><use xlink:href="#b"/><use xlink:href="#c"/></g></svg>