
<svg xmlns="http://www.w3.org/2000/svg" version="1.1" xmlns:xlink="http://www.w3.org/1999/xlink" preserveAspectRatio="none" x="0px" y="0px" width="285px" height="427px" viewBox="0 0 285 427">
<defs>
<g id="Layer0_0_FILL">
<path fill="#EFBD9C" stroke="none" d="
M 176 204.3
Q 183.75 187.3 187.45 169.15
L 176 204.3
M 109.95 181.25
L 109.95 185.2
Q 110.05 183.2 110.1 181.2 110.05 181.2 109.95 181.25
M 110.75 143.25
Q 110.7 140.55 110.7 137.8 110.35 137.9 109.95 138
L 109.95 181.25
Q 110.05 181.2 110.1 181.2 110.9 162.3 110.75 143.25
M 109.8 109.8
L 109.95 138
Q 110.35 137.9 110.7 137.8 110.5 123.85 109.8 109.8
M 56.5 128.6
Q 57 130.1 57.55 131.55
L 57.6 131.55
Q 57.05 130.1 56.5 128.6
M 57.55 131.55
Q 57.8 132.2 58.1 132.85 57.8 132.15 57.6 131.55
L 57.55 131.55
M 133.05 79.35
Q 131.4 75.65 129.45 73.55 131.65 76.05 133.05 80.15
L 133.2 82.35 133.05 79.35
M 109.6 80
Q 109.60859375 79.511328125 109.7 79.1 109.65 79.2 109.6 79.35
L 109.6 80
M 119 69.55
Q 116.7 68.7 114.2 70.85 112.9 71.9 112 73.5 114.3 70.65 119 69.55
M 180.55 102
L 173.8 124.4 164.2 153.15 151.1 185.8
Q 149.5 189 146.8 190.5 153.75 190.85 161.25 194.9 153.75 190.85 146.8 190.5 144.85 191.4 142.2 191.5 140.1 191.25 138.85 190.05
L 129.4 190.2 138.85 190.05
Q 137 188.05 137.4 183.8
L 137.4 142.3 133.2 82.35 133.05 80.15
Q 131.65 76.05 129.45 73.55 128.6 72.65 127.8 72.05 124.9 69.9 119.25 69.7 119.1 69.6 119 69.55 114.3 70.65 112 73.5 110.55 75.75 109.7 79.1 109.60859375 79.511328125 109.6 80
L 109.6 80.15 109.8 109.35 109.8 109.8
Q 110.5 123.85 110.7 137.8 118.3 135.65 124.75 138 118.3 135.65 110.7 137.8 110.7 140.55 110.75 143.25 121.55 148.85 129.85 144.05 121.55 148.85 110.75 143.25 110.9 162.3 110.1 181.2 116.2 178.95 123.45 178.9 116.2 178.95 110.1 181.2 110.05 183.2 109.95 185.2 107.7 192.5 98.4 188.65
L 92.35 153.75
Q 83.55 138.95 79.25 123.45
L 69.65 94.7
Q 63.55 89.05 55.6 91.5 48.15 96 49.25 104.95 51.1 112.3 53.4 119.65
L 56.5 128.6
Q 57.05 130.1 57.6 131.55 66.35 130.5 73.95 125.9 66.35 130.5 57.6 131.55 57.8 132.15 58.1 132.85 61.1 146.65 66.15 159.5 71.6 154.8 78.95 154.3 71.6 154.8 66.15 159.5 66.8 161.25 67.5 163.05 79.15 162.4 86.45 157.2 79.15 162.4 67.5 163.05 70.85 179.05 76.75 193.25 85.25 192.95 91.2 188.5 85.25 192.95 76.75 193.25 77.2 194.3 77.65 195.4 77.9 198.15 77.5 200.25 85.4 195.3 92.35 194.2 85.4 195.3 77.5 200.25 76.5 204.35 72.6 206.25 63.5 209.85 57.2 202.4
L 47 186.75
Q 37.25 179.45 29.75 171 23.4 160.15 16.05 154.45 10.05 150.85 5.2 154.45 0.7 160.9 5.2 170.75
L 16.05 186.75
Q 21.65 197.1 30.4 204.95 30.55 205.15 30.65 205.35 35.4 202.25 39 197.1 35.4 202.25 30.65 205.35 37.65 217.3 48.25 229.2 56.95 224.2 61.15 215.2 56.95 224.2 48.25 229.2
L 54 257.6
Q 78.3 251.25 99.85 240.3 123.75 227.5 129.75 221.55 123.75 227.5 99.85 240.3 78.3 251.25 54 257.6 61.7 291.7 78.65 319.65 81.25 323.95 85.9 326.95 95.1 332.7 108.95 333.05 95.1 332.7 85.9 326.95 89.6 344.45 89.1 358.3
L 171.9 358.3
Q 169.3 347.2 168.5 331.4 151.75 339.35 141.1 338.4 129.6 337.6 122.5 331.35 129.6 337.6 141.1 338.4 151.75 339.35 168.5 331.4 180.45 325.8 195.2 314.55
L 216.65 300.45
Q 227.65 291.35 240.55 290.2 255.7 286 269.7 278.7 281.85 273.95 282.15 266.85 281.3 257.7 271.9 252.15 254.75 246.7 230.75 260.75 226.95 274.65 236 285.75 226.95 274.65 230.75 260.75 215.25 267.75 201.6 268.45 197.95 284.6 205.6 293.65 197.95 284.6 201.6 268.45 191.55 268 186.6 257.95
L 179.2 240.35 176.35 227.9
Q 151.05 231.1 127.2 264.7 117.4 285.55 113.4 305.1 117.4 285.55 127.2 264.7 151.05 231.1 176.35 227.9 174.9 216.65 176 204.3
L 187.45 169.15
Q 192.3 154.1 195.55 136.5 200.5 120.25 202.85 105.55 201.5 97.1 193.6 94.7 183.6 94 180.55 102
M 194.85 136.25
Q 189.4 135.55 178.75 131.1 189.4 135.55 194.85 136.25
M 173.8 128.1
Q 179.2 128.65 185.5 131.25 179.2 128.65 173.8 128.1
M 187.2 168.4
Q 177.35 162.9 168.25 160.15 177.35 162.9 187.2 168.4
M 164.55 154
Q 173.3 154.75 181.35 159.6 173.3 154.75 164.55 154
M 16.8 186.4
Q 19.3 181.45 26.2 177.45 19.3 181.45 16.8 186.4
M 14.55 183.8
Q 16.4 179.55 20.3 175.7 16.4 179.55 14.55 183.8
M 22.7 177.1
Q 25.9 173.45 30.4 172.35 25.9 173.45 22.7 177.1
M 111 187.85
Q 119.25 189.1 121.35 188.6 119.25 189.1 111 187.85
M 110.4 108
Q 121.15 110.15 128.45 107.65 121.15 110.15 110.4 108
M 102.05 257.65
Q 126.45 241.25 154.2 231.05 126.45 241.25 102.05 257.65
M 231.95 260.75
Q 231.4 277.8 241.2 284.65 231.4 277.8 231.95 260.75
M 191.95 273.15
Q 197.3 293.3 190.35 309.45 197.3 293.3 191.95 273.15
M 28.6 202.2
Q 31.65 195.9 40.45 191.35 31.65 195.9 28.6 202.2 Z"/>
</g>

<path id="Layer0_0_1_STROKES" stroke="#B87C5C" stroke-width="1" stroke-linejoin="round" stroke-linecap="round" fill="none" d="
M 194.85 136.25
Q 189.4 135.55 178.75 131.1
M 173.8 128.1
Q 179.2 128.65 185.5 131.25
M 187.2 168.4
Q 177.35 162.9 168.25 160.15
M 164.55 154
Q 173.3 154.75 181.35 159.6
M 73.95 125.9
Q 66.35 130.5 57.6 131.55
L 57.55 131.55
M 16.8 186.4
Q 19.3 181.45 26.2 177.45
M 14.55 183.8
Q 16.4 179.55 20.3 175.7
M 22.7 177.1
Q 25.9 173.45 30.4 172.35
M 66.15 159.5
Q 71.6 154.8 78.95 154.3
M 109.95 138
Q 110.35 137.9 110.7 137.8
M 111 187.85
Q 119.25 189.1 121.35 188.6
M 109.95 181.25
Q 110.05 181.2 110.1 181.2
M 146.8 190.5
Q 153.75 190.85 161.25 194.9
M 138.85 190.05
L 129.4 190.2
M 110.1 181.2
Q 116.2 178.95 123.45 178.9
M 110.7 137.8
Q 118.3 135.65 124.75 138
M 110.75 143.25
Q 121.55 148.85 129.85 144.05
M 110.4 108
Q 121.15 110.15 128.45 107.65
M 67.5 163.05
Q 79.15 162.4 86.45 157.2
M 76.75 193.25
Q 85.25 192.95 91.2 188.5
M 54 257.6
Q 78.3 251.25 99.85 240.3 123.75 227.5 129.75 221.55
M 102.05 257.65
Q 126.45 241.25 154.2 231.05
M 48.25 229.2
Q 56.95 224.2 61.15 215.2
M 176.35 227.9
Q 151.05 231.1 127.2 264.7 117.4 285.55 113.4 305.1
M 230.75 260.75
Q 226.95 274.65 236 285.75
M 231.95 260.75
Q 231.4 277.8 241.2 284.65
M 201.6 268.45
Q 197.95 284.6 205.6 293.65
M 191.95 273.15
Q 197.3 293.3 190.35 309.45
M 77.5 200.25
Q 85.4 195.3 92.35 194.2
M 28.6 202.2
Q 31.65 195.9 40.45 191.35
M 30.65 205.35
Q 35.4 202.25 39 197.1"/>

<path id="Layer0_0_2_STROKES" stroke="#805137" stroke-width="2" stroke-linejoin="round" stroke-linecap="round" fill="none" d="
M 133.2 82.35
L 137.4 142.3 137.4 183.8
Q 137 188.05 138.85 190.05 140.1 191.25 142.2 191.5 144.85 191.4 146.8 190.5 149.5 189 151.1 185.8
L 164.2 153.15 173.8 124.4 180.55 102
Q 183.6 94 193.6 94.7 201.5 97.1 202.85 105.55 200.5 120.25 195.55 136.5 192.3 154.1 187.45 169.15
M 176 204.3
Q 174.9 216.65 176.35 227.9
L 179.2 240.35 186.6 257.95
Q 191.55 268 201.6 268.45 215.25 267.75 230.75 260.75 254.75 246.7 271.9 252.15 281.3 257.7 282.15 266.85 281.85 273.95 269.7 278.7 255.7 286 240.55 290.2 227.65 291.35 216.65 300.45
L 195.2 314.55
Q 180.45 325.8 168.5 331.4 169.3 347.2 171.9 358.3
M 89.1 358.3
Q 89.6 344.45 85.9 326.95 81.25 323.95 78.65 319.65 61.7 291.7 54 257.6
L 48.25 229.2
Q 37.65 217.3 30.65 205.35 30.55 205.15 30.4 204.95 21.65 197.1 16.05 186.75
L 5.2 170.75
Q 0.7 160.9 5.2 154.45 10.05 150.85 16.05 154.45 23.4 160.15 29.75 171 37.25 179.45 47 186.75
L 57.2 202.4
Q 63.5 209.85 72.6 206.25 76.5 204.35 77.5 200.25 77.9 198.15 77.65 195.4 77.2 194.3 76.75 193.25 70.85 179.05 67.5 163.05 66.8 161.25 66.15 159.5 61.1 146.65 58.1 132.85
M 56.5 128.6
L 53.4 119.65
Q 51.1 112.3 49.25 104.95 48.15 96 55.6 91.5 63.55 89.05 69.65 94.7
L 79.25 123.45
Q 83.55 138.95 92.35 153.75
L 98.4 188.65
Q 107.7 192.5 109.95 185.2
M 109.8 109.8
L 109.8 109.375
Q 109.7876953125 108.9505859375 109.7 108.6 108.4 93.55 109.6 80.15
L 109.6 80
M 109.7 79.1
Q 110.05 75.75 112 73.5
M 119 69.55
Q 119.55 69.4 120.15 69.3 125.85 69.35 129.45 73.55
M 133.2 82.35
L 133.05 80.15
Q 131.65 76.05 129.45 73.55
M 112 73.5
Q 114.3 70.65 119 69.55
M 109.6 80
Q 109.60859375 79.511328125 109.7 79.1
M 56.5 128.6
Q 57.05 130.1 57.6 131.55 57.8 132.15 58.1 132.85
M 110.7 137.8
Q 110.5 123.85 109.8 109.8
M 110.1 181.2
Q 110.9 162.3 110.75 143.25 110.7 140.55 110.7 137.8
M 109.95 185.2
Q 110.05 183.2 110.1 181.2
M 168.5 331.4
Q 151.75 339.35 141.1 338.4 129.6 337.6 122.5 331.35
M 108.95 333.05
Q 95.1 332.7 85.9 326.95
M 187.45 169.15
L 176 204.3"/>
</defs>

<g transform="matrix( 1, 0, 0, 1, 0,0) ">
<use xlink:href="#Layer0_0_FILL"/>

<use xlink:href="#Layer0_0_1_STROKES"/>

<use xlink:href="#Layer0_0_2_STROKES"/>
</g>
</svg>
