<?xml version="1.0" encoding="UTF-8" standalone="no"?>
<svg id="svg4203" xmlns:inkscape="http://www.inkscape.org/namespaces/inkscape" xmlns:rdf="http://www.w3.org/1999/02/22-rdf-syntax-ns#" xmlns="http://www.w3.org/2000/svg" sodipodi:docname="hat.svg" viewBox="0 0 105.9 82.1" version="1.1" xmlns:cc="http://creativecommons.org/ns#" xmlns:dc="http://purl.org/dc/elements/1.1/" inkscape:version="0.48.2 r9819" xmlns:sodipodi="http://sodipodi.sourceforge.net/DTD/sodipodi-0.dtd">
 <metadata id="metadata4221">
  <rdf:RDF>
   <cc:Work rdf:about="">
    <dc:format>image/svg+xml</dc:format>
    <dc:type rdf:resource="http://purl.org/dc/dcmitype/StillImage"/>
    <dc:title/>
   </cc:Work>
  </rdf:RDF>
 </metadata>
 <sodipodi:namedview id="namedview4217" bordercolor="#666666" inkscape:pageshadow="2" guidetolerance="10" pagecolor="#ffffff" gridtolerance="10" inkscape:window-maximized="0" inkscape:zoom="2.8745433" objecttolerance="10" borderopacity="1" inkscape:current-layer="svg4203" inkscape:cx="52.950001" inkscape:cy="41.049999" inkscape:window-y="0" inkscape:window-x="0" inkscape:window-width="640" showgrid="false" inkscape:pageopacity="0" inkscape:window-height="480"/>
 <g id="g4205" transform="matrix(1.0, 0.0, 0.0, 1.0, -7.05, 42.4)">
  <path id="path4207" stroke="none" fill-rule="evenodd" d="M33.1-25.65q2.8-8.45,6.1-11.4l0.7-0.55q3.35-2.5,10.4-3.3,16.5-1.15,24.55,0.45l4.1,1.2q4.4,0.85,6.4,5.2,1.85,4.1,1.8,12.1l16.85,3.45q6.25,1.65,7.5,3.8,1.4,2.3-1.7,6.85-5,7.5-18.3,20.95-9,9.05-20.15,15.55-11.1,6.4-21.95,8.95-10.55,2.45-20.6-0.55-9.55-2.85-15-9.4-2.7-3.2-4.2-7.9-1.35-4.05-1.5-8.25,1.65-9.2,7.9-16.65,5.9-7.1,15.75-12.25l-0.8,6.6-0.2,2.6,0.2-2.6,0.8-6.6,1.35-8.25q0.6,2.95,4.3,2.9,3.55-0.15,10.75-3.1,3.9-1.6,9.25-2.8l9.4-1.8,8.65-1.95q4.35-1.25,7.05-3-0.25-2.4-3.55-3.85,3.3,1.45,3.55,3.85-2.7,1.75-7.05,3l-8.65,1.95-9.4,1.8q-5.35,1.2-9.25,2.8-7.2,2.95-10.75,3.1-3.7,0.05-4.3-2.9m10.8-1l-3.3,1.25-2.35,0.25q-1.45-0.1-1.8-0.9t-0.1-1.55q0.2-0.8,1.45-2.95-1.25,2.15-1.45,2.95-0.25,0.75,0.1,1.55t1.8,0.9l2.35-0.25,3.3-1.25m44.25,13.35q-7.05,10.1-17.45,15.55-9.25,4.9-18.95,5.05-9.2,0.1-15.1-4-6.1-4.35-5.9-11.5-0.25,5.1,0.4,8.55,1.35,6.95,8,10.5,6.35,3.35,15.35,2.55,9.3-0.8,18.05-5.75,9.6-5.45,16-14.55l-0.1-2.75-0.3-3.65q0.3-0.4-0.3-4.4l-0.7-4.25,0.7,4.25q0.6,4,0.3,4.4m-22.5-24.15l-0.45-0.15-1.25-0.15-0.4-0.05-0.5-0.05-2.05,0.05h-0.45l-1,0.1,1-0.1h0.45l2.05-0.05,0.5,0.05,0.4,0.05,1.25,0.15,0.45,0.15-0.2-0.05-0.25-0.1,0.25,0.1,0.2,0.05,0.6,0.15,2.1,0.6,2.9,0.95,1.45,0.6-1.45-0.65-2.9-0.95-1.8-0.5-0.9-0.2m9.8,3.95l-2.75-1.65,2.75,1.65m-15.9-4.2q-7.15,0.65-12.85,4.95l-0.1,0.05q-1.4,0.9-2.65,2.35l-0.25,0.45-0.1,0.15,3.15-2.95q5.2-3.95,11.75-4.8l1.05-0.2m-12.5,31.55q1.85,4.45,7.75,5.9-3.8-9.65,1.45-15.3t17.5-7.15q-1.8-2.1-5.15-2.9-4.05-0.9-9.2,0.55-5.2,1.45-8.85,4.8-3.05,2.85-3.9,5.75-0.7,2.5-0.6,4.3,0.05,1.8,1,4.05m18.3,35.75q30.9-19.6,43.7-41.75-12.8,22.15-43.7,41.75" fill="#b7a371"/>
  <path id="path4209" stroke="none" fill-rule="evenodd" d="M8.1,11.5q-0.25-5.75,1.85-12.45,4.15-13.15,23.15-24.7l-1.35,8.25q-9.85,5.15-15.75,12.25-6.25,7.45-7.9,16.65m38.95-17.65q-0.95-2.25-1-4.05-0.1-1.8,0.6-4.3,0.85-2.9,3.9-5.75,3.65-3.35,8.85-4.8,5.15-1.45,9.2-0.55,3.35,0.8,5.15,2.9-12.25,1.5-17.5,7.15t-1.45,15.3q-5.9-1.45-7.75-5.9" fill="#9f8c5b"/>
  <path id="path4211" stroke="none" fill-rule="evenodd" d="M30.75-8.2q-0.2,7.15,5.9,11.5,5.9,4.1,15.1,4,9.7-0.15,18.95-5.05,10.4-5.45,17.45-15.55l0.3,3.65,0.1,2.75q-6.4,9.1-16,14.55-8.75,4.95-18.05,5.75-9,0.8-15.35-2.55-6.65-3.55-8-10.5-0.65-3.45-0.4-8.55" fill="#362f1d"/>
  <path id="path4213" stroke-linejoin="round" d="M33.1-25.65q2.8-8.45,6.1-11.4l0.7-0.55q3.35-2.5,10.4-3.3,16.5-1.15,24.55,0.45l4.1,1.2q4.4,0.85,6.4,5.2,1.85,4.1,1.8,12.1l16.85,3.45q6.25,1.65,7.5,3.8,1.4,2.3-1.7,6.85-5,7.5-18.3,20.95-9,9.05-20.15,15.55-11.1,6.4-21.95,8.95-10.55,2.45-20.6-0.55-9.55-2.85-15-9.4-2.7-3.2-4.2-7.9-1.35-4.05-1.5-8.25-0.25-5.75,1.85-12.45,4.15-13.15,23.15-24.7,0.6,2.95,4.3,2.9,3.55-0.15,10.75-3.1,3.9-1.6,9.25-2.8l9.4-1.8,8.65-1.95q4.35-1.25,7.05-3-0.25-2.4-3.55-3.85m-41.15,8.7q-1.25,2.15-1.45,2.95-0.25,0.75,0.1,1.55t1.8,0.9l2.35-0.25,3.3-1.25m-12.15,9.25l-0.8,6.6-0.2,2.6q-0.2,7.15,5.9,11.5,5.9,4.1,15.1,4,9.7-0.15,18.95-5.05,10.4-5.45,17.45-15.55,0.3-0.4-0.3-4.4l-0.7-4.25m-54.05-3.7l-1.35,8.25m27.8-20.3l1-0.1h0.45l2.05-0.05,0.5,0.05,0.4,0.05,1.25,0.15,0.45,0.15,0.9,0.2,1.8,0.5,2.9,0.95,1.45,0.65,2.75,1.65m-10.25-4.1l0.25,0.1,0.2,0.05,0.6,0.15,2.1,0.6,2.9,0.95,1.45,0.6m-13.15-2.55l-1.05,0.2q-6.55,0.85-11.75,4.8l-3.15,2.95,0.1-0.15,0.25-0.45q1.25-1.45,2.65-2.35l0.1-0.05q5.7-4.3,12.85-4.95m-15.85,7.8l0.3-0.4,2.75-2.4-3.05,2.8m-12.95,21.7q-0.25,5.1,0.4,8.55,1.35,6.95,8,10.5,6.35,3.35,15.35,2.55,9.3-0.8,18.05-5.75,9.6-5.45,16-14.55l-0.1-2.75-0.3-3.65" stroke="#000000" stroke-linecap="round" stroke-width="2.0" fill="none"/>
  <path id="path4215" stroke-linejoin="round" d="M109.05-12.15q-12.8,22.15-43.7,41.75" stroke="#000000" stroke-linecap="round" stroke-width="1.0" fill="none"/>
 </g>
</svg>
