<svg xmlns="http://www.w3.org/2000/svg" viewBox="0 0 105.9 82.1"><path fill-rule="evenodd" d="M26.05 16.75q2.8-8.45 6.1-11.4l.7-.55q3.35-2.5 10.4-3.3 16.5-1.15 24.55.45l4.1 1.2q4.4.85 6.4 5.2 1.85 4.1 1.8 12.1l16.85 3.45q6.25 1.65 7.5 3.8 1.4 2.3-1.7 6.85-5 7.5-18.3 20.95-9 9.05-20.15 15.55-11.1 6.4-21.95 8.95-10.55 2.45-20.6-.55-9.55-2.85-15-9.4-2.7-3.2-4.2-7.9-1.35-4.05-1.5-8.25 1.65-9.2 7.9-16.65 5.9-7.1 15.75-12.25l-.8 6.6-.2 2.6.2-2.6.8-6.6 1.35-8.25q.6 2.95 4.3 2.9 3.55-.15 10.75-3.1 3.9-1.6 9.25-2.8l9.4-1.8L68.4 10q4.35-1.25 7.05-3-.25-2.4-3.55-3.85Q75.2 4.6 75.45 7q-2.7 1.75-7.05 3l-8.65 1.95-9.4 1.8q-5.35 1.2-9.25 2.8-7.2 2.95-10.75 3.1-3.7.05-4.3-2.9m10.8-1L33.55 17l-2.35.25q-1.45-.1-1.8-.9t-.1-1.55q.2-.8 1.45-2.95Q29.5 14 29.3 14.8q-.25.75.1 1.55t1.8.9l2.35-.25 3.3-1.25M81.1 29.1q-7.05 10.1-17.45 15.55-9.25 4.9-18.95 5.05-9.2.1-15.1-4-6.1-4.35-5.9-11.5-.25 5.1.4 8.55 1.35 6.95 8 10.5 6.35 3.35 15.35 2.55 9.3-.8 18.05-5.75 9.6-5.45 16-14.55l-.1-2.75-.3-3.65q.3-.4-.3-4.4l-.7-4.25.7 4.25q.6 4 .3 4.4M58.6 4.95l-.45-.15-1.25-.15-.4-.05-.5-.05-2.05.05h-.45l-1 .1 1-.1h.45L56 4.55l.5.05.4.05 1.25.15.45.15-.2-.05-.25-.1.25.1.2.05.6.15 2.1.6 2.9.95 1.45.6-1.45-.65-2.9-.95-1.8-.5-.9-.2m9.8 3.95l-2.75-1.65L68.4 8.9M52.5 4.7q-7.15.65-12.85 4.95l-.1.05q-1.4.9-2.65 2.35l-.25.45-.1.15L39.7 9.7q5.2-3.95 11.75-4.8l1.05-.2M40 36.25q1.85 4.45 7.75 5.9-3.8-9.65 1.45-15.3t17.5-7.15q-1.8-2.1-5.15-2.9-4.05-.9-9.2.55-5.2 1.45-8.85 4.8-3.05 2.85-3.9 5.75-.7 2.5-.6 4.3.05 1.8 1 4.05M58.3 72Q89.2 52.4 102 30.25 89.2 52.4 58.3 72" fill="#b7a371"/><path fill-rule="evenodd" d="M1.05 53.9Q.8 48.15 2.9 41.45q4.15-13.15 23.15-24.7L24.7 25q-9.85 5.15-15.75 12.25Q2.7 44.7 1.05 53.9M40 36.25q-.95-2.25-1-4.05-.1-1.8.6-4.3.85-2.9 3.9-5.75 3.65-3.35 8.85-4.8 5.15-1.45 9.2-.55 3.35.8 5.15 2.9-12.25 1.5-17.5 7.15t-1.45 15.3q-5.9-1.45-7.75-5.9" fill="#9f8c5b"/><path fill-rule="evenodd" d="M23.7 34.2q-.2 7.15 5.9 11.5 5.9 4.1 15.1 4 9.7-.15 18.95-5.05Q74.05 39.2 81.1 29.1l.3 3.65.1 2.75q-6.4 9.1-16 14.55Q56.75 55 47.45 55.8q-9 .8-15.35-2.55-6.65-3.55-8-10.5-.65-3.45-.4-8.55" fill="#362f1d"/><path stroke-linejoin="round" d="M26.05 16.75q2.8-8.45 6.1-11.4l.7-.55q3.35-2.5 10.4-3.3 16.5-1.15 24.55.45l4.1 1.2q4.4.85 6.4 5.2 1.85 4.1 1.8 12.1l16.85 3.45q6.25 1.65 7.5 3.8 1.4 2.3-1.7 6.85-5 7.5-18.3 20.95-9 9.05-20.15 15.55-11.1 6.4-21.95 8.95-10.55 2.45-20.6-.55-9.55-2.85-15-9.4-2.7-3.2-4.2-7.9-1.35-4.05-1.5-8.25Q.8 48.15 2.9 41.45q4.15-13.15 23.15-24.7.6 2.95 4.3 2.9 3.55-.15 10.75-3.1 3.9-1.6 9.25-2.8l9.4-1.8L68.4 10q4.35-1.25 7.05-3-.25-2.4-3.55-3.85m-41.15 8.7Q29.5 14 29.3 14.8q-.25.75.1 1.55t1.8.9l2.35-.25 3.3-1.25M24.7 25l-.8 6.6-.2 2.6q-.2 7.15 5.9 11.5 5.9 4.1 15.1 4 9.7-.15 18.95-5.05Q74.05 39.2 81.1 29.1q.3-.4-.3-4.4l-.7-4.25m-54.05-3.7L24.7 25M52.5 4.7l1-.1h.45L56 4.55l.5.05.4.05 1.25.15.45.15.9.2 1.8.5 2.9.95 1.45.65L68.4 8.9M58.15 4.8l.25.1.2.05.6.15 2.1.6 2.9.95 1.45.6M52.5 4.7l-1.05.2q-6.55.85-11.75 4.8l-3.15 2.95.1-.15.25-.45q1.25-1.45 2.65-2.35l.1-.05q5.7-4.3 12.85-4.95m-15.85 7.8l.3-.4 2.75-2.4-3.05 2.8M23.7 34.2q-.25 5.1.4 8.55 1.35 6.95 8 10.5 6.35 3.35 15.35 2.55 9.3-.8 18.05-5.75 9.6-5.45 16-14.55l-.1-2.75-.3-3.65" stroke="#000" stroke-linecap="round" stroke-width="2" fill="none"/><path stroke-linejoin="round" d="M102 30.25Q89.2 52.4 58.3 72" stroke="#000" stroke-linecap="round" fill="none"/></svg>