<svg xmlns="http://www.w3.org/2000/svg" width="900" height="450" viewBox="0 0 900 450"><path fill="#EBC6AF" d="M697.572 115.246L572.886 51.001c-40.992 29.841-72.007 48.056-93.041 54.646-10.961 3.421-20.465 6.177-28.511 8.269l-.856.285c-12.102 3.168-21.32 5.1-27.655 5.797l-34.784 3.802c-15.459 1.584-29.841 3.357-43.146 5.322 13.305-1.965 27.687-3.738 43.146-5.322l34.784-3.802c6.335-.697 15.554-2.629 27.655-5.797l-17.582-10.074c-6.843-3.737-15.238-5.606-25.185-5.606-9.947-.064-16.758 0-20.433.19l17.297 14.445-17.297-14.445c-12.482-7.159-23.315-10.74-32.502-10.74-8.617 0-18.279 1.932-28.986 5.798l33.073 26.99-33.073-26.99-9.028-3.042a82.364 82.364 0 0 0-13.685-3.041l-15.681 5.892-19.482-1.141c-2.091 1.141-3.865 2.186-5.323 3.136l28.321 13.876 20.244 21.573-20.244-21.573-28.321-13.876-8.933-5.131 12.259 15.681-22.333 10.739c-4.625-.951-9.313-2.978-14.065-6.083-7.096-5.195-14.128-10.01-21.098-14.445-3.231 3.738-4.878 8.617-4.942 14.635-.063 5.068 1.679 10.422 5.227 16.062 4.119 6.525 7.762 11.467 10.929 14.825 3.359 3.866 9.916 7.825 19.673 11.879 9.884 4.182 18.216 15.555 24.995 34.119 3.358 9.123 11.024 17.265 22.999 24.424 11.405 6.906 27.498 13.337 48.278 19.292 40.74 11.596 69.029 32.028 84.868 61.298 10.201 18.882 21.288 33.58 33.263 44.098l13.969-3.991-4.657 11.214c4.5 3.042 9.125 5.544 13.877 7.508 21.796 8.934 40.199 13.749 55.216 14.447 14.952.695 28.605-.318 40.96-3.043 12.418-2.66 24.521-12.227 36.304-28.7 11.785-16.474 16.694-31.773 14.73-45.903-.887-6.398-1.709-14.762-2.471-25.09-.696-9.123-1.014-15.172-.95-18.151.317-11.594.57-17.962.761-19.102 1.205-6.019 2.946-11.721 5.228-17.107 7.283-17.488 30.916-48.755 70.894-93.802m-170.97 98.742c20.973 7.413 37.444 6.812 49.419-1.806 11.658-8.363 17.962-23.538 18.913-45.522-.951 21.984-7.255 37.159-18.913 45.522-11.975 8.618-28.447 9.219-49.419 1.806z"/><path d="M457.511 357.113l5.511-12.926 4.657-11.214-13.969 3.991-46.188 13.21 33.738 41.816 8.838-20.243 75.173 26.801 6.178-18.912-73.938-22.523z"/><path fill="#E8BB9F" d="M230.279 83.504c-7.982.633-15.269 4.91-21.858 12.83 6.97 4.435 14.002 9.25 21.098 14.445 4.752 3.105 9.44 5.132 14.065 6.083l22.333-10.739-12.259-15.681c-7.603-5.259-15.396-7.572-23.379-6.938m57.117 10.073l15.681-5.892c-13.496-2.027-25.217-.444-35.164 4.751l19.483 1.141z"/><g><path fill="none" stroke="#000" stroke-width="2" stroke-linecap="round" stroke-linejoin="round" d="M572.886 51.001c-40.992 29.841-72.007 48.056-93.041 54.646-10.961 3.421-20.465 6.177-28.511 8.269l-.856.285c-12.102 3.168-21.32 5.1-27.655 5.797l-34.784 3.802c-15.459 1.584-29.841 3.357-43.146 5.322M325.79 93.768l-9.028-3.042a82.364 82.364 0 0 0-13.685-3.041l-15.681 5.892-19.482-1.141c-2.091 1.141-3.865 2.186-5.323 3.136l28.321 13.876 20.244 21.573M208.42 96.333c6.589-7.92 13.876-12.197 21.858-12.83 7.983-.634 15.776 1.679 23.379 6.938l8.933 5.131m-54.17.761c-3.231 3.738-4.878 8.617-4.942 14.635-.063 5.068 1.679 10.422 5.227 16.062 4.119 6.525 7.762 11.467 10.929 14.825 3.359 3.866 9.916 7.825 19.673 11.879 9.884 4.182 18.216 15.555 24.995 34.119 3.358 9.123 11.024 17.265 22.999 24.424 11.405 6.906 27.498 13.337 48.278 19.292 40.74 11.596 69.029 32.028 84.868 61.298 10.201 18.882 21.288 33.58 33.263 44.098m9.311 7.223c4.5 3.042 9.125 5.544 13.877 7.508 21.796 8.934 40.199 13.749 55.216 14.447 14.952.695 28.605-.318 40.96-3.043 12.418-2.66 24.521-12.227 36.304-28.7 11.785-16.474 16.694-31.773 14.73-45.903-.887-6.398-1.709-14.762-2.471-25.09-.696-9.123-1.014-15.172-.95-18.151.317-11.594.57-17.962.761-19.102 1.205-6.019 2.946-11.721 5.228-17.107 7.285-17.487 30.918-48.753 70.896-93.801M253.658 90.441l12.259 15.681-22.333 10.739c-4.625-.951-9.313-2.978-14.065-6.083-7.096-5.195-14.128-10.01-21.098-14.445m94.656-8.648c-13.496-2.027-25.217-.444-35.164 4.751m119.366 6.273c-12.482-7.159-23.315-10.74-32.502-10.74-8.617 0-18.279 1.932-28.986 5.798l33.073 26.99m91.614-6.557l-17.582-10.074c-6.843-3.737-15.238-5.606-25.185-5.606-9.947-.064-16.758 0-20.433.19l17.297 14.445m122.027 100.833c20.973 7.413 37.444 6.812 49.419-1.806 11.658-8.363 17.962-23.538 18.913-45.522"/></g></svg>