<?xml version="1.0" encoding="utf-8"?>
<!-- Generator: Adobe Illustrator 16.0.0, SVG Export Plug-In . SVG Version: 6.00 Build 0)  -->
<!DOCTYPE svg PUBLIC "-//W3C//DTD SVG 1.1//EN" "http://www.w3.org/Graphics/SVG/1.1/DTD/svg11.dtd">
<svg version="1.1" id="Layer_1" xmlns="http://www.w3.org/2000/svg" xmlns:xlink="http://www.w3.org/1999/xlink" x="0px" y="0px"
	 width="900px" height="450px" viewBox="0 0 900 450" enable-background="new 0 0 900 450" xml:space="preserve">
<g transform="matrix( 1, 0, 0, 1, 0,0) ">
	<g>
		<g id="Layer0_0_FILL">
			<path fill="#EBC6AF" d="M697.572,115.246L572.886,51.001c-40.992,29.841-72.007,48.056-93.041,54.646
				c-10.961,3.421-20.465,6.177-28.511,8.269l-0.856,0.285c-12.102,3.168-21.32,5.1-27.655,5.797l-34.784,3.802
				c-15.459,1.584-29.841,3.357-43.146,5.322c13.305-1.965,27.687-3.738,43.146-5.322l34.784-3.802
				c6.335-0.697,15.554-2.629,27.655-5.797l-17.582-10.074c-6.843-3.737-15.238-5.606-25.185-5.606
				c-9.947-0.064-16.758,0-20.433,0.19l17.297,14.445l-17.297-14.445c-12.482-7.159-23.315-10.74-32.502-10.74
				c-8.617,0-18.279,1.932-28.986,5.798l33.073,26.99l-33.073-26.99l-9.028-3.042c-4.435-1.394-8.997-2.407-13.685-3.041
				l-15.681,5.892l-19.482-1.141c-2.091,1.141-3.865,2.186-5.323,3.136l28.321,13.876l20.244,21.573l-20.244-21.573l-28.321-13.876
				l-8.933-5.131l12.259,15.681l-22.333,10.739c-4.625-0.951-9.313-2.978-14.065-6.083c-7.096-5.195-14.128-10.01-21.098-14.445
				c-3.231,3.738-4.878,8.617-4.942,14.635c-0.063,5.068,1.679,10.422,5.227,16.062c4.119,6.525,7.762,11.467,10.929,14.825
				c3.359,3.866,9.916,7.825,19.673,11.879c9.884,4.182,18.216,15.555,24.995,34.119c3.358,9.123,11.024,17.265,22.999,24.424
				c11.405,6.906,27.498,13.337,48.278,19.292c40.74,11.596,69.029,32.028,84.868,61.298c10.201,18.882,21.288,33.58,33.263,44.098
				l13.969-3.991l-4.657,11.214c4.5,3.042,9.125,5.544,13.877,7.508c21.796,8.934,40.199,13.749,55.216,14.447
				c14.952,0.695,28.605-0.318,40.96-3.043c12.418-2.66,24.521-12.227,36.304-28.7c11.785-16.474,16.694-31.773,14.73-45.903
				c-0.887-6.398-1.709-14.762-2.471-25.09c-0.696-9.123-1.014-15.172-0.95-18.151c0.317-11.594,0.57-17.962,0.761-19.102
				c1.205-6.019,2.946-11.721,5.228-17.107C633.961,191.56,657.594,160.293,697.572,115.246 M526.602,213.988
				c20.973,7.413,37.444,6.812,49.419-1.806c11.658-8.363,17.962-23.538,18.913-45.522c-0.951,21.984-7.255,37.159-18.913,45.522
				C564.046,220.8,547.574,221.401,526.602,213.988z"/>
			<path d="M457.511,357.113l5.511-12.926l4.657-11.214l-13.969,3.991l-46.188,13.21l33.738,41.816l8.838-20.243l75.173,26.801
				l6.178-18.912L457.511,357.113z"/>
			<path fill="#E8BB9F" d="M230.279,83.504c-7.982,0.633-15.269,4.91-21.858,12.83c6.97,4.435,14.002,9.25,21.098,14.445
				c4.752,3.105,9.44,5.132,14.065,6.083l22.333-10.739l-12.259-15.681C246.055,85.183,238.262,82.87,230.279,83.504
				 M287.396,93.577l15.681-5.892c-13.496-2.027-25.217-0.444-35.164,4.751L287.396,93.577z"/>
		</g>
	</g>
	<g>
		<path id="Layer0_0_1_STROKES" fill="none" stroke="#000000" stroke-width="2" stroke-linecap="round" stroke-linejoin="round" d="
			M572.886,51.001c-40.992,29.841-72.007,48.056-93.041,54.646c-10.961,3.421-20.465,6.177-28.511,8.269l-0.856,0.285
			c-12.102,3.168-21.32,5.1-27.655,5.797l-34.784,3.802c-15.459,1.584-29.841,3.357-43.146,5.322 M325.79,93.768l-9.028-3.042
			c-4.435-1.394-8.997-2.407-13.685-3.041l-15.681,5.892l-19.482-1.141c-2.091,1.141-3.865,2.186-5.323,3.136l28.321,13.876
			l20.244,21.573 M208.42,96.333c6.589-7.92,13.876-12.197,21.858-12.83c7.983-0.634,15.776,1.679,23.379,6.938l8.933,5.131
			 M208.42,96.333c-3.231,3.738-4.878,8.617-4.942,14.635c-0.063,5.068,1.679,10.422,5.227,16.062
			c4.119,6.525,7.762,11.467,10.929,14.825c3.359,3.866,9.916,7.825,19.673,11.879c9.884,4.182,18.216,15.555,24.995,34.119
			c3.358,9.123,11.024,17.265,22.999,24.424c11.405,6.906,27.498,13.337,48.278,19.292c40.74,11.596,69.029,32.028,84.868,61.298
			c10.201,18.882,21.288,33.58,33.263,44.098 M463.021,344.188c4.5,3.042,9.125,5.544,13.877,7.508
			c21.796,8.934,40.199,13.749,55.216,14.447c14.952,0.695,28.605-0.318,40.96-3.043c12.418-2.66,24.521-12.227,36.304-28.7
			c11.785-16.474,16.694-31.773,14.73-45.903c-0.887-6.398-1.709-14.762-2.471-25.09c-0.696-9.123-1.014-15.172-0.95-18.151
			c0.317-11.594,0.57-17.962,0.761-19.102c1.205-6.019,2.946-11.721,5.228-17.107c7.285-17.487,30.918-48.753,70.896-93.801
			 M253.658,90.441l12.259,15.681l-22.333,10.739c-4.625-0.951-9.313-2.978-14.065-6.083c-7.096-5.195-14.128-10.01-21.098-14.445
			 M303.077,87.685c-13.496-2.027-25.217-0.444-35.164,4.751 M387.279,98.709c-12.482-7.159-23.315-10.74-32.502-10.74
			c-8.617,0-18.279,1.932-28.986,5.798l33.073,26.99 M450.478,114.2l-17.582-10.074c-6.843-3.737-15.238-5.606-25.185-5.606
			c-9.947-0.064-16.758,0-20.433,0.19l17.297,14.445 M526.602,213.988c20.973,7.413,37.444,6.812,49.419-1.806
			c11.658-8.363,17.962-23.538,18.913-45.522"/>
	</g>
</g>
</svg>
