<?xml version="1.0" encoding="UTF-8" standalone="no"?>
<svg id="svg3891" xmlns:inkscape="http://www.inkscape.org/namespaces/inkscape" xmlns:rdf="http://www.w3.org/1999/02/22-rdf-syntax-ns#" xmlns="http://www.w3.org/2000/svg" sodipodi:docname="chicken.svg" viewBox="0 0 97.25 154.3" version="1.1" xmlns:cc="http://creativecommons.org/ns#" xmlns:dc="http://purl.org/dc/elements/1.1/" inkscape:version="0.48.2 r9819" xmlns:sodipodi="http://sodipodi.sourceforge.net/DTD/sodipodi-0.dtd">
 <metadata id="metadata3923">
  <rdf:RDF>
   <cc:Work rdf:about="">
    <dc:format>image/svg+xml</dc:format>
    <dc:type rdf:resource="http://purl.org/dc/dcmitype/StillImage"/>
    <dc:title/>
   </cc:Work>
  </rdf:RDF>
 </metadata>
 <sodipodi:namedview id="namedview3919" bordercolor="#666666" inkscape:pageshadow="2" guidetolerance="10" pagecolor="#ffffff" gridtolerance="10" inkscape:window-maximized="0" inkscape:zoom="1.529488" objecttolerance="10" borderopacity="1" inkscape:current-layer="svg3891" inkscape:cx="48.625" inkscape:cy="77.150002" inkscape:window-y="0" inkscape:window-x="0" inkscape:window-width="640" showgrid="false" inkscape:pageopacity="0" inkscape:window-height="480"/>
 <g id="g3893" transform="matrix(1.0, 0.0, 0.0, 1.0, -13.75, 77.0)">
  <path id="path3895" d="M31.65-68.25l1.5,1.15q6.35,4.95,6.9,7.2t1.85,5.2l1.55,4.15q1,2.85,1,4.4l-0.3,0.8-0.2,0.6q0,0.55,0.7,3.75l0.85,4.3q0.15,1.1,1.05,4.7l0.2,0.7,0.05,0.1,0.05,0.35v0.05l0.1,0.35,0.1,0.5v0.1l0.1,0.3,0.05,0.3v0.05l0.05,0.2,0.1,0.55-0.4,0.7-0.4,0.6q0,0.65,5.35,10.4l2.55,1.6,0.7,0.2,3.15,1.4,3.3,1.6,0.75-0.2,0.65-0.15,5.1,1.1,3.8,0.95q-10.85-0.25-16.75-4.7,5.9,4.45,16.75,4.7l1.5,0.15,0.95-0.1h0.05v-0.05l3.4-0.5,1.45-0.05-0.1,0.3-4.75,0.25,4.75-0.25,0.1-0.3h2.5v-0.1l6.9-11.05,2.6-5.7q2.1-5,2.1-5.65,0-2.55,1.35-2.9,1.4-0.4,1.4,1.8l-0.05,0.4q-0.15,1.9-1.85,6.35-1.7,4.4-2.6,5.75l-3.95,7.45q-1.4,2.6-2.65,3.85l1.05,0.2,2.7,0.7,3.75-5.45,5.2-7.1q4.75-9.5,4.75-11.1l-0.2-0.4q-0.1-0.15,0.5-2.65,0.65-2.5,1.65-1.45,1,0.9,1,2.3t-0.5,2.8l-0.4,1.35q0,1.9-1.75,5.65-1.6,3.35-3.05,5.15l-0.9,1.3-3,4.95q-2.9,4.5-4.85,5.5l7.85-10.45-7.85,10.45h-0.05l-0.1,0.05,0.1,0.05q1.3,0.75,1.95,1.7l0.8-0.2q1,0,2.1-1.15l1.75-2.2q0.6-0.9,2.45-2.2l2.75-1.95,2.25-2.1,1.55-2.05q1.15-1.9,2.05-2.1,0.9-0.1,0.9,1.45,0,1.45-2.1,3.85l-3.55,3.9-5.3,5.45-1.1,1.1-1.05,1.2-0.1-0.4,1.15-0.8-1.15,0.8,0.1,0.4-0.4,0.6,0.7,0.7v0.05l0.1,0.2v0.25,0.05l0.05,0.15,0.05,0.25-0.1-0.4,0.1,0.4,0.05,3.3-0.65,5.5q-0.9,2.9-2.85,5.55,1.95-2.65,2.85-5.55v0.1q-0.95,4.9-2.85,5.45l-0.4,0.05-0.45-0.15-0.1-0.05-0.95,1.35q-1.6,2.3-3.4,3.35-0.1,0.6-0.8,1.05l-2.7,1.55q-1.35,0.8-1.8,1.75l-0.2,0.65-0.05,0.45-0.2,3.5-0.65,1.75,0.05,1.05-0.15,0.75-0.35,1.15-0.65,1.75q-0.15,0.35-1.05,0.65h-0.05-0.05l-0.2,0.1-0.8,0.95-0.05,0.05-0.05,0.05q-2.85,3.45-5.4,3.45l-0.65-0.1-0.8-0.55-0.1-0.2-0.75,0.2-2.55,1.15-1.15,0.65h-0.05l-1.65,0.45-0.7-0.25-0.35-0.45-0.4-0.55-2.8,0.5-1.65,0.45-0.4-0.05-1,0.2q-0.95,0-1.45-0.65l-0.05,0.7-0.05,0.25-0.5,0.3-0.3,2.85,0.3-2.85-0.3-0.6-0.25-1.45q6.05-3.15,12.05-4.3-6,1.15-12.05,4.3l0.25,1.45,0.3,0.6,0.5-0.3-0.35,1.65-0.3,1.05-0.15,0.45-0.75,2.15q-2.25,5.8-5.2,5.8l-2.7-2.45q-2.4-2.55-2.7-3.6l-1.3-4.05-0.35-0.9-0.65-2v-0.15q0.1-0.75,0.8-1.1,0.9-0.5,1.8,0.75,0.7,0.85,1,2.5l0.75,2.65q1,2.25,2.85,2.25,2.05,0,2.75-1.15,0.55-0.8,0.65-2.6,0.15-1.9,0.45-2.5,0.3-0.7,1-0.95l-0.05-0.85q-0.05-0.65,0.55-1.7,0.55-1,3.1-2,2.55-1.05,4-1.25l2.2-0.3,2.6,0.45,1.45,0.45,0.3-0.1v-0.1q-0.65-1.45,1.15-1.6,1.55-0.15,1.75,0.9,1.15-0.65,1.75-1.6,0.85-1.7,2.95-2.1,1.35-0.25,1.25-0.9h0.2-0.2l-0.1-0.2-0.85-0.3-0.7,0.2-0.75,0.2-0.95-0.5q-0.65-0.5-1.6-0.5l-1,0.3-1.35,0.2q0.95,0.4,1.35,1.05,0.45,0.6,0.45,1.35l-0.2,0.7q-0.35,0.65-1.1,0.65-0.7,0-1.1-0.55l-0.65-0.7-2.15-0.45-1.8-0.3q-1.35-0.35-2.95-1.25l-2.45-1.45-0.2-0.1-5.6-2.6-3.3-1.65-0.15-0.1q-1.75-0.35-4.3-1.75-2.55-1.5-2.55-2.3,0-2.45,3.05-0.85l2.2,1.35q-1.4-1.3-1.4-2l0.25-0.9q0.4-0.85,1.25-0.85,0.55,0,1.3,0.55l0.9,0.55,2.25,0.5,1.1,0.5q1.8,0,3.1,1.15l2.15,2.25q1.15,1.05,4.25,2.4,3,1.25,4.05,1.25l1.35-0.3v-0.1q-0.9-1.05,1.45-0.2,2.3,0.75,3.3-1.4,1.15-2.15-1.95-4.15v-0.05l-0.45-0.55q0-3.25-2.7-7.05-1.95-2.85-4.8-5.1l-2.75-2.3-3.75-2.3,0.15-0.5q0.25-0.6,1.15-0.65l-0.35-1.25q-0.35-0.85-0.35-1.2,0-1.85,1.2-1.35l-0.6-0.85-2.85-2.1q-2.1-1.45-2.1-2.2,0-0.8,0.3-1.2l-1.75-1.2q-3.1-2.2-3.1-2.75v-0.1l-1.6-1.9-0.75-1.05q-1.25-1.85-1.25-2.4,0-1-1.25-4.8-1.2-3.8-1.2-5.15l0.2-0.65,0.3-0.7-1.25-3.95,0.1-1.05-0.35-3.15-0.2-2.2-0.75-4.5-0.55-2.4-0.05-0.05-0.25-1.25-1.35-5.45q-1.3-4.6-6.55-9.85l-2.1-2.2,1.6,0.8-1.6-0.8q-1.05-1.25,1.6,0.8l0.05,0.05m31.7,64.85q-7.05-7.95-16.85-15.95,9.8,8,16.85,15.95v0.05q-0.3,0.55-0.85,0.6,0.9,1.15,3.8,3.15l0.5,0.4q2.4,1.8,2.9,3.8v0.05l1.15,1.8,1.2,1.65,0.1,0.05q1,0.9,1.75,2.6l0.6,1.45,0.55,1.5,0.1,0.2-0.1-0.6,1.35-1.45,1.6-1.5,0.65,0.25,0.65,0.2,0.7-0.2,0.75-0.25,1,0.25,0.65,0.4q0.7-1.25,2.05-2,1.4-0.8,2.1-0.35-0.75-0.7-0.75-1.1,0-0.8,1.25-1.3l2.75-0.85q4-1.35,4-3.95l-0.35-1.9-0.3-1.7,0.05-0.75q-0.55-1.05-3.6-3.25-2.95-2.25-4.85-2.15l-8.35,0.5-0.25-0.05-0.15,0.05-2.45,0.4-3.45-0.5-0.6,0.15-0.6,0.15-0.9-0.15-1-0.05-1.9-0.1-1.1-0.4-2.25-0.2-0.45,0.3-0.5,0.3,1.1,1.25q1.6,1.95,1.6,2.65l-0.15,0.6m12.5,18.2l-0.8-1.5,0.8,1.5-0.4-0.4-0.1-0.1,3.85,9.3v-0.35l0.1-1.65-0.35-0.8-0.3-0.6q0-0.65,0.45-1.7-0.55-0.25-1.35-1.35l-0.75-1.3q0-0.35,0.3-0.8l0.05-0.05-0.55,0.05-0.95-0.25m3.15,11.35l0.9-0.3-0.7-2.6,0.7,2.6-0.9,0.3v-0.1l-0.1,0.15q-0.45,0.4-1.05,0.4l-0.45-0.05,1.5-0.35-1.5,0.35-0.4-0.15,0.2,0.2,1.75,0.2,0.05-0.65m-36.4,13.45l-0.1-1.7-0.55-0.45,0.55,0.45,0.1,1.7m-3.7-5q-2.1-1.35-4.9-4.55l-2.1-2.6-0.05-0.05q-2.1-2.65-2.1-3.5-1.6-0.8-3.25-3.7l-1.25-2.4q-1.7-1.1-3.9-5.35l-2-4.3q-0.9-1.1-1.8-3.5-1.45-3.75-1.45-4.55l-0.5-2.3q-0.65-3.8-0.65-6l0.05-2.15q0.05-1,0.6-2.65l0.35-1.4q0.2-0.7,0.8-1.1,0.95-0.6,1.6-0.45l0.4,0.15q0.45,0.3,0.45,1.05l-0.45,1.25,0.1,0.3,0.35,1.55,0.15,1.75q1.8,8.95,2.65,10.95l1.75,3.25q0.9,1.65,3.35,4.95,2.4,3.25,4.9,5.2l2.2,1.7,1.5,1.1,3.45,2.8,2.6,2.15q0.4,0.25,0.2,0.85l-0.05,0.05q1.4,1.15,1.4,2.25l-0.2,0.65q-0.3,0.6-1.15,0.6l-0.3-0.2,1.1,1.55,0.9,2q0.45,1.15,1.5,1.9l1.8,1.85q1.2,1.55,1.2,2.25l-0.15,0.65q-0.35,0.65-1.15,0.65l-3.35-3.3,0.15,0.5-0.25,0.7q-0.4,0.6-1.35,0.6l-0.7-0.3q-1.05,0-2.45-0.85l-7-7.15,7,7.15m-21.1-58.6q-0.35-0.35-0.4-1.05l2.05-5.25,1.7-4.2-0.9,2.9-2.45,7.6,2.45-7.6,0.9-2.9,1.25-3.15q1.35-3.6,1.3-9.1-0.05-2.9,0.4-4,0.9,0.7,2.4,0.25l0.4-0.2,0.75-0.15q0.7-0.45,1.65-2.15,0.75-2.05,1.85-1.9,1.15,0.2,1.05,1.25l-0.75,2.25q-0.55,1-0.4,1.8l0.1,1.9q-0.2,1.55-1.55,1.55-1.9,0-2.65,2.25-0.35,0.95-0.6,2.9-0.1,1.2-0.9,2.95l-1.25,2.8-2.5,6.95q-1.9,4.6-3,4.6-0.55,0-0.9-0.3m25.75,56.55q-19.35-16-24.1-32.05-2.35-8.05-1.1-16.45-1.25,8.4,1.1,16.45,4.75,16.05,24.1,32.05m27.5-5.5l-5.45-0.55-6.5-1.45,6.5,1.45,5.45,0.55m1-18.95l2.45,4.1-2.45-4.1m-5.25-7.3l2.9,3.8-2.9-3.8m17.6-10.65q6.4-10.2,11.65-24.15-5.25,13.95-11.65,24.15m5.5,2.45l1-1.35-1,1.35m3.5,3.6l0.1,0.15,0.05-0.05-0.15-0.1m3.25,1.1l0.1,0.45-0.1-0.45m-13.85,24.15q-0.1,0.05-0.25,0.15l0.05,0.5-0.05-0.5q0.15-0.1,0.25-0.15m-15.9,17.45l-2.35,0.2,2.35-0.2m-11.3,0.3l0.85,0.05-0.85-0.05m22.75-4.9q-2.35,2.1-6.05,3.35,3.7-1.25,6.05-3.35m3.25-4.7q-0.75,2-2.15,3.55,1.4-1.55,2.15-3.55m-48.65-12.25l0.15,0.25,0.05-0.05-0.2-0.2m45.4-1.75q10.8-1.75,14.8-6.9-4,5.15-14.8,6.9" fill-rule="evenodd" fill-opacity="0.47843137" stroke="none" fill="#aebfba"/>
  <path id="path3897" stroke="none" fill-rule="evenodd" d="M46.75-31.3l-0.2-0.7q-0.9-3.6-1.05-4.7l-0.85-4.3q-0.7-3.2-0.7-3.75l0.2-0.6,0.3-0.8q0-1.55-1-4.4l-1.55-4.15q-1.3-2.95-1.85-5.2t-6.9-7.2l-1.5-1.15,0.4,0.2q2.95,1.65,5.15,4.1l0.4,0.45,0.1,0.1,0.35,0.4,0.1,0.1q2.3,2.75,3.75,6.35,1.65,4.05,2.65,10.15l1.45,10.85,0.1,0.4,0.65,3.85m-16.75-37.8l2.1,2.2q5.25,5.25,6.55,9.85l1.35,5.45,0.25,1.25,0.05,0.05,0.55,2.4,0.75,4.5,0.2,2.2,0.35,3.15-0.1,1.05,1.25,3.95-0.3,0.7-0.2,0.65q0,1.35,1.2,5.15,1.25,3.8,1.25,4.8,0,0.55,1.25,2.4l0.75,1.05,1.6,1.9v0.1q0,0.55,3.1,2.75l1.75,1.2q-0.3,0.4-0.3,1.2,0,0.75,2.1,2.2l2.85,2.1,0.6,0.85q-1.2-0.5-1.2,1.35,0,0.35,0.35,1.2l0.35,1.25q-0.9,0.05-1.15,0.65l-0.15,0.5,3.75,2.3,2.75,2.3q2.85,2.25,4.8,5.1,2.7,3.8,2.7,7.05l0.45,0.55v0.05q3.1,2,1.95,4.15-1,2.15-3.3,1.4-2.35-0.85-1.45,0.2v0.1l-1.35,0.3q-1.05,0-4.05-1.25-3.1-1.35-4.25-2.4l-2.15-2.25q-1.3-1.15-3.1-1.15l-1.1-0.5-2.25-0.5-0.9-0.55q-0.75-0.55-1.3-0.55-0.85,0-1.25,0.85l-0.25,0.9q0,0.7,1.4,2l-2.2-1.35q-3.05-1.6-3.05,0.85,0,0.8,2.55,2.3,2.55,1.4,4.3,1.75l0.15,0.1,3.3,1.65,5.6,2.6,0.2,0.1,2.45,1.45q1.6,0.9,2.95,1.25l1.8,0.3,2.15,0.45,0.65,0.7q0.4,0.55,1.1,0.55,0.75,0,1.1-0.65l0.2-0.7q0-0.75-0.45-1.35-0.4-0.65-1.35-1.05l1.35-0.2,1-0.3q0.95,0,1.6,0.5l0.95,0.5,0.75-0.2,0.7-0.2,0.85,0.3,0.1,0.2q0.1,0.65-1.25,0.9-2.1,0.4-2.95,2.1-0.6,0.95-1.75,1.6-0.2-1.05-1.75-0.9-1.8,0.15-1.15,1.6v0.1l-0.3,0.1-1.45-0.45-2.6-0.45-2.2,0.3q-1.45,0.2-4,1.25-2.55,1-3.1,2-0.6,1.05-0.55,1.7l0.05,0.85q-0.7,0.25-1,0.95-0.3,0.6-0.45,2.5-0.1,1.8-0.65,2.6-0.7,1.15-2.75,1.15-1.85,0-2.85-2.25l-0.75-2.65q-0.3-1.65-1-2.5-0.9-1.25-1.8-0.75-0.7,0.35-0.8,1.1l-3.05-2.85q1.4,0.85,2.45,0.85l0.7,0.3q0.95,0,1.35-0.6l0.25-0.7-0.15-0.5,3.35,3.3q0.8,0,1.15-0.65l0.15-0.65q0-0.7-1.2-2.25l-1.8-1.85q-1.05-0.75-1.5-1.9l-0.9-2-1.1-1.55,0.3,0.2q0.85,0,1.15-0.6l0.2-0.65q0-1.1-1.4-2.25l0.05-0.05q0.2-0.6-0.2-0.85l-2.6-2.15-3.45-2.8-1.5-1.1-2.2-1.7q-2.5-1.95-4.9-5.2-2.45-3.3-3.35-4.95l-1.75-3.25q-0.85-2-2.65-10.95l-0.15-1.75-0.35-1.55-0.1-0.3,0.45-1.25q0-0.75-0.45-1.05l-0.4-0.15q-0.65-0.15-1.6,0.45-0.6,0.4-0.8,1.1l-0.35,1.4q-0.55,1.65-0.6,2.65l-0.05,2.15q0,2.2,0.65,6l0.5,2.3q0,0.8,1.45,4.55,0.9,2.4,1.8,3.5l2,4.3q2.2,4.25,3.9,5.35l1.25,2.4q1.65,2.9,3.25,3.7,0,0.85,2.1,3.5l-0.45-0.45q-7.25-8.05-11.25-15.35l-0.2-0.35-1.15-2.2q-5.2-10.8-3.75-21.9,0.6-4.2,2.2-9.5l0.55-1.65q0.35,0.3,0.9,0.3,1.1,0,3-4.6l2.5-6.95,1.25-2.8q0.8-1.75,0.9-2.95,0.25-1.95,0.6-2.9,0.75-2.25,2.65-2.25,1.35,0,1.55-1.55l-0.1-1.9q-0.15-0.8,0.4-1.8l0.75-2.25q0.1-1.05-1.05-1.25-1.1-0.15-1.85,1.9-0.95,1.7-1.65,2.15l-0.75,0.15q1.1-0.55,1.85-2,0.85-1.75,0.8-3.65-2.55-2.25-4.65-2.3h-0.8l-0.35-0.05-2.15-0.15,1.8-1.85q1-0.05,2.6-1.3-2.35-1.6-4.3-2.05l-4.35-0.1,0.85-0.85,0.5-0.3q1.75-1,4,0.3,0.85-4.65,4-5.3l3.3,1.2m33.35,65.7l0.15-0.6q0-0.7-1.6-2.65l-1.1-1.25,0.5-0.3,0.45-0.3,2.25,0.2,1.1,0.4,1.9,0.1,1,0.05,0.9,0.15,0.6-0.15,0.6-0.15,3.45,0.5,2.45-0.4,0.15-0.05,0.25,0.05,8.35-0.5q1.9-0.1,4.85,2.15,3.05,2.2,3.6,3.25l-0.05,0.75,0.3,1.7,0.35,1.9q0,2.6-4,3.95l-2.75,0.85q-1.25,0.5-1.25,1.3,0,0.4,0.75,1.1-0.7-0.45-2.1,0.35-1.35,0.75-2.05,2l-0.65-0.4-1-0.25-0.75,0.25-0.7,0.2-0.65-0.2-0.65-0.25-1.6,1.5-1.35,1.45-0.55-1.1,0.55,1.1,0.1,0.6-0.1-0.2-0.55-1.5-0.6-1.45q-0.75-1.7-1.75-2.6l-0.1-0.05-1.2-1.65-1.15-1.8v-0.05q-0.5-2-2.9-3.8l-0.5-0.4q-2.9-2-3.8-3.15,0.55-0.05,0.85-0.6v-0.05l3.45,4.2-3.45-4.2m12.5,18.2l0.95,0.25,0.55-0.05-0.05,0.05q-0.3,0.45-0.3,0.8l0.75,1.3q0.8,1.1,1.35,1.35-0.45,1.05-0.45,1.7l0.3,0.6,0.35,0.8-0.1,1.65v0.35l-3.85-9.3,0.1,0.1,0.4,0.4q2.05,4.2,3.35,8.45-1.3-4.25-3.35-8.45m3.15,11.35l-0.05,0.65-1.75-0.2-0.2-0.2,0.4,0.15-0.2,0.05,0.2-0.05,0.45,0.05q0.6,0,1.05-0.4l0.1-0.15v0.1l-0.1,0.05,0.1-0.05m-36.4,13.45l0.35,0.9,1.3,4.05q0.3,1.05,2.7,3.6l2.7,2.45q2.95,0,5.2-5.8l0.75-2.15,0.15-0.45q-0.45,5.25-3.05,8l-1.75,1.55-3.05-2.05q-4.45-3.8-5.3-10.1m4.65-68.6q2.05,8.15,5.85,12.15l2.05,1.9-0.7-0.2-2.55-1.6q-5.35-9.75-5.35-10.4l0.4-0.6,0.4-0.7-0.1-0.55m24.65,18.75l0.55,0.05h0.7,0.65,0.55l-0.95,0.1-1.5-0.15m7.35-0.55l0.3-0.85q4.85-13.3,7.3-24.35l0.1-0.5,0.05-0.35,0.1-0.35q6.85-6.8,9.15,2.7,14.85-10.95,6.35,10.15,7.25-2.7,7.4,3.85l-0.05,1.8q-5.95,8.8-12.55,13.45l1.1-1.1,5.3-5.45,3.55-3.9q2.1-2.4,2.1-3.85,0-1.55-0.9-1.45-0.9,0.2-2.05,2.1l-1.55,2.05-2.25,2.1-2.75,1.95q-1.85,1.3-2.45,2.2l-1.75,2.2q-1.1,1.15-2.1,1.15l-0.8,0.2q-0.65-0.95-1.95-1.7l0.05-0.1-0.05,0.1-0.1-0.05,0.1-0.05h0.05q1.95-1,4.85-5.5l3-4.95,0.9-1.3q1.45-1.8,3.05-5.15,1.75-3.75,1.75-5.65l0.4-1.35q0.5-1.4,0.5-2.8t-1-2.3q-1-1.05-1.65,1.45-0.6,2.5-0.5,2.65l0.2,0.4q0,1.6-4.75,11.1l-5.2,7.1-3.75,5.45-2.7-0.7-1.05-0.2q1.25-1.25,2.65-3.85l3.95-7.45q0.9-1.35,2.6-5.75,1.7-4.45,1.85-6.35l0.05-0.4q0-2.2-1.4-1.8-1.35,0.35-1.35,2.9,0,0.65-2.1,5.65l-2.6,5.7-6.9,11.05v0.1h-2.5m17.1,6.75l0.2,0.65,0.1,0.65-0.7-0.7,0.4-0.6m0.5,2.25l0.1,0.65q0.55,4.3-0.7,8.15l0.65-5.5-0.05-3.3m-3.45,14.35q-3.5,4.9-10.6,8.9,0.45-0.95,1.8-1.75l2.7-1.55q0.7-0.45,0.8-1.05,1.8-1.05,3.4-3.35l0.95-1.35,0.1,0.05,0.45,0.15,0.4-0.05m-10.8,9.55q0.3,4.3-1,7.5l0.15-0.75-0.05-1.05,0.65-1.75,0.2-3.5,0.05-0.45m-3.1,11.05l-0.6,0.65-0.25,0.2-0.2,0.2,0.8-0.95,0.2-0.1-0.55,0.65,0.55-0.65h0.05m-7.2,4.5l-5.35,1.25,1.15-0.65,2.55-1.15,0.75-0.2,0.1,0.2,0.8,0.55m-7.75,1.45l-1.45,0.1-5.75,0.1,0.1,0.25,0.05,0.1,0.1,0.25q0.85,1.95,1.7,5.85-1.25-3.4-3.25-4.6l0.35-1.65,0.05-0.25,0.05-0.7q0.5,0.65,1.45,0.65l1-0.2,0.4,0.05,1.65-0.45,2.8-0.5,0.4,0.55,0.35,0.45m-43.4-73.6q2.85-9.65,2.5-16.7l0.45,0.45q-0.45,1.1-0.4,4,0.05,5.5-1.3,9.1l-1.25,3.15m10.35-32.1q-0.95-0.75-2.45-0.8-1.4-0.05-2.45,0.6-1.05,0.7-1.05,1.7t1.05,1.7q1,0.6,2.45,0.6,1.5,0,2.55-0.6,1.15-0.7,1-1.55-0.1-0.85-1.1-1.65m-6.8,32.95q-5.1,9-6.35,17.7,1.25-8.7,6.35-17.7m46.35,60.7l5.95-0.45-5.95,0.45m-28.55-49.6l4,3.2-4-3.2m2.25,42q7.6,3.7,14.35,5.6-6.75-1.9-14.35-5.6m27.3-11.35l-2.35-3.5,2.35,3.5m24.2-42.6l-0.2,0.5,0.2-0.5m-2.85,30.7l0.15,0.1-0.05,0.05-0.1-0.15m5.4-15.5l3.8-5.05-3.8,5.05m-41.6,58.6h0.15-0.15l-0.8,0.2,0.8-0.2-0.75-0.05,0.75,0.05m-24.25-21.95l0.2,0.2-0.05,0.05-0.15-0.25m19.75,32.85q2.2-2.7,2.9-7.55-0.7,4.85-2.9,7.55" fill="#f0f4f3"/>
  <path id="path3899" stroke="none" fill-rule="evenodd" d="M31.65-68.25l-0.05-0.05q-2.65-2.05-1.6-0.8l-3.3-1.2q-3.15,0.65-4,5.3-2.25-1.3-4-0.3-0.75-7.45,3.65-9.15,4.45-1.75,6.6-1.8-1.45,0.95-1.25,2.15,2-0.9,4.3-0.65-1.3,0.65-0.9,1.85,2.35-0.55,4.25,0-1.15,0.75-1.3,2.2,2.6-0.15,3.8,1-2.05,0.8-2.2,1.65,3.5,2.6,2.5,5.15l-0.1-0.1-0.35-0.4-0.1-0.1-0.4-0.45q-2.2-2.45-5.15-4.1l-0.4-0.2,0.4,0.2-0.4-0.2m-8,17.05l-1.35-1.55q-1-1.6-2.25-4.45,2.25-1.25,4.05-1.45h0.8q2.1,0.05,4.65,2.3,0.05,1.9-0.8,3.65-0.75,1.45-1.85,2l-0.4,0.2q-1.5,0.45-2.4-0.25l-0.45-0.45" fill="#a6112f"/>
  <path id="path3901" stroke="none" fill-rule="evenodd" d="M63.1,39.2l1.55,10.2,0.95,7.05,2.45,1.85,2.3,1.75-4.75-0.5q-3.55,3.95-6.7,4.9l3.45-5.7q-5.7,2.55-8.95,2.6l0.75-0.35,5.6-3.2h-5.05l7.5-1.65q-1.95-6.3-2.9-10.4-0.85-3.9-1.7-5.85l-0.1-0.25-0.05-0.1-0.1-0.25,5.75-0.1m-10.4,11l-0.95,3.85-0.75,2.9-2.2,9.1-0.1-0.45,2.3-8.65-2.3,8.65,0.1,0.45-0.1,0.5q0.15,2.1,3.55,3.6l-5.2-0.8-10.1,6.95,10.1-6.95,5.2,0.8h-5.7l-9.6,6.15,4.85-7.3-12.3,1.45,3.75-1.25,3.7-1.25q3.9-1.35,7.65-3.2-3.75,1.85-7.65,3.2l-3.7,1.25,6.65-2.55-7.05-1.05,11.75-0.85,3.3-15.05,3.05,2.05,1.75-1.55m-32.65-107.4q0.1-1.6-0.3-0.6-2.25-1.25-5.25-0.45,0.25-3,2.85-5.9l4.35,0.1q1.95,0.45,4.3,2.05-1.6,1.25-2.6,1.3l-1.8,1.85-1.55,1.65m3.35-3.5q-5.05-0.25-8.9,2.45,3.85-2.7,8.9-2.45m30.75,121.7q5.4-2.3,8.05-4.85-1.45-9.6-4.6-16.25,3.15,6.65,4.6,16.25-2.65,2.55-8.05,4.85" fill="#ffff00"/>
  <path id="path3903" stroke="none" fill-rule="evenodd" d="M31.5-66.6q1,0.8,1.1,1.65,0.15,0.85-1,1.55-1.05,0.6-2.55,0.6-1.45,0-2.45-0.6-1.05-0.7-1.05-1.7t1.05-1.7q1.05-0.65,2.45-0.6,1.5,0.05,2.45,0.8m-3.6,0.55q-0.5,0.45-0.5,0.95,0,0.55,0.5,0.95l0.6,0.4h0.3,0.55l0.75-0.4q0.45-0.4,0.45-0.95l-0.45-0.95-0.8-0.4h-0.5l-0.9,0.4" fill="#93133d"/>
  <path id="path3905" stroke="none" fill-rule="evenodd" d="M27.9-66.05l0.9-0.4h0.5l0.8,0.4,0.45,0.95q0,0.55-0.45,0.95l-0.75,0.4h-0.55-0.3l-0.6-0.4q-0.5-0.4-0.5-0.95,0-0.5,0.5-0.95m0.45,0.5l-0.15,0.3,0.15,0.15,0.25,0.2,0.25-0.2,0.1-0.15-0.1-0.3-0.25-0.05-0.25,0.05" fill="#000000"/>
  <path id="path3907" stroke="none" fill-rule="evenodd" d="M28.35-65.55l0.25-0.05,0.25,0.05,0.1,0.3-0.1,0.15-0.25,0.2-0.25-0.2-0.15-0.15,0.15-0.3" fill="#ffffff"/>
  <path id="path3909" stroke-linejoin="round" d="M18.7-65.3q-0.75-7.45,3.65-9.15,4.45-1.75,6.6-1.8-1.45,0.95-1.25,2.15,2-0.9,4.3-0.65-1.3,0.65-0.9,1.85,2.35-0.55,4.25,0-1.15,0.75-1.3,2.2,2.6-0.15,3.8,1-2.05,0.8-2.2,1.65,3.5,2.6,2.5,5.15m-14.5,11.7l-1.35-1.55q-1.5-2.05-2.25-4.45,2.25-1.25,4.05-1.45h0.8q2.1,0.05,4.65,2.3,0.05,1.9-0.8,3.65-0.75,1.45-1.85,2l-0.4,0.2q-1.5,0.45-2.4-0.25l-0.45-0.45" stroke="#7d1d39" stroke-linecap="round" stroke-width="1.5" fill="none"/>
  <path id="path3911" stroke-linejoin="round" d="M59.75,57.8h-5.05l7.5-1.65m-22.3,10.5l-7.05-1.05,11.75-0.85m-24.85-122.55q-2.25-1.25-5.25-0.45,0.25-3,2.85-5.9l0.85-0.85,0.5-0.3q1.75-1,4,0.3,0.85-4.65,4-5.3m-9.35,6.15l4.35,0.1q1.95,0.45,4.3,2.05-1.6,1.25-2.6,1.3l-1.8,1.85m-7.1,0.6q3.85-2.7,8.9-2.45m-3.35,3.5l1.55-1.65" stroke="#414f50" stroke-linecap="round" stroke-width="1.5" fill="none"/>
  <path id="path3913" stroke-linejoin="round" d="M31.65-68.25l-0.05-0.05-1.6-0.8m16.5,49.75q9.8,8,16.85,15.95l3.45,4.2m8.25,12.5l0.8,1.5m3.35,8.45l0.7,2.6-0.9,0.3m-1.8,0.45h-0.2l-5.95,0.45m-29.1,10.4l0.55,0.45,0.1,1.7m13,3.05l0.3-2.85-0.3-0.6-0.25-1.45q6.05-3.15,12.05-4.3m-29.25-96.35q2.3,2.75,3.75,6.35,1.65,4.05,2.65,10.15l1.45,10.85,0.1,0.4,0.65,3.85,0.05,0.1,0.05,0.35,0.1,0.4m0.1,0.5v0.1l0.1,0.3,0.05,0.3m0,0.05l0.05,0.2q2.05,8.15,5.85,12.15l2.05,1.9q5.9,4.45,16.75,4.7l0.55,0.05h0.7,0.65l0.6-0.05,4.75-0.25,0.1-0.3,0.3-0.85q4.85-13.3,7.3-24.35l0.1-0.5,0.05-0.35,0.1-0.35q6.85-6.8,9.15,2.7,14.85-10.95,6.35,10.15,7.6-7.8,7.4,3.85l-0.05,1.8q-5.95,8.8-12.55,13.45l-1.15,0.8,0.1,0.4,0.2,0.65m0.1,0.65v0.05m0.1,0.45v0.05m0.1,0.4l0.1,0.65q0.55,4.3-0.7,8.15m-2.85,5.55q-3.5,4.9-10.6,8.9m-0.2,0.65q0.3,4.3-1,7.5m-2.7,4.2l-0.25,0.2-0.2,0.2-0.05,0.05-0.05,0.05m-6.05,3.35l-5.35,1.25h-0.05m-2.35,0.2l-1.45,0.1,1.55,10.2,0.95,6.1,1.75,2.1,0.7,0.7,2.3,1.75-4.75-0.5q-3.55,3.95-6.7,4.9l3.45-5.7q-5.7,2.55-8.95,2.6l0.75-0.35m-1.45-10.8l-0.95,3.85-0.75,2.9m-2.2,9.1q0.25,0.75,0.95,1.75,0.95,1.35,2.5,2.35m-15.3,6.15l4.85-7.3q-5.7,1.75-12.85,1.45l4.3-1.25m11.35-4.45l3.3-15.05q-4.45-3.8-5.3-10.1m-0.65-2.15l-3.05-2.85m-7-7.15l-0.05-0.05-0.45-0.45q-7.25-8.05-11.25-15.35l-0.2-0.35-1.15-2.2q-5.2-10.8-3.75-21.9,0.6-4.2,2.2-9.5l0.55-1.65,2.45-7.6,0.9-2.9q2.85-9.65,2.5-16.7m3.05-19.1l3.3,1.2m8.15,6.2l-0.1-0.1-0.35-0.4-0.1-0.1-0.4-0.45q-2.2-2.45-5.15-4.1l-0.4-0.2m-13.3,52.3q-1.25,8.4,1.1,16.45,4.75,16.05,24.1,32.05m-25.2-48.5q1.25-8.7,6.35-17.7m34.4,58.7l6.5,1.45,5.45,0.55m-11.95-2q-6.75-1.9-14.35-5.6m1.75-38.8l-4-3.2m27.2,27.15l2.35,3.5m2.45,4.1l0.55,1.1m-0.55-1.1l-2.45-4.1m-2.35-3.5l-2.9-3.8m29.25-34.8l0.2-0.5m-0.2,0.5q-5.25,13.95-11.65,24.15m14.4-9.45l-7.85,10.45-0.05,0.1-1,1.35m6.95,5.6l-0.1-0.4m0-0.05l-0.1-0.45m5.95-21.65l-3.8,5.05m-5.4,31.85q1.95-2.65,2.85-5.55m-13.65,15.1l-0.05-0.5q0.15-0.1,0.25-0.15m-3.6,1.8q-1.3-4.25-3.35-8.45m-11.3,24.3l2.35-0.2m-10.45,0.35l-0.85-0.05m0.3,0.6l0.5-0.3,0.8-0.2-0.75-0.05m0.9,0.05h-0.15m5.9-0.1l-5.75,0.1,0.1,0.25,0.05,0.1,0.1,0.25q3.15,6.65,4.6,16.25-2.65,2.55-8.05,4.85m24.75-34.8l0.1-0.05m-0.1,0.05l-1.5,0.35m-0.2,0.05l0.2-0.05m-5.1,11.1q3.7-1.25,6.05-3.35m1.1-1.15l-0.55,0.65m0.55-0.65q1.4-1.55,2.15-3.55m-49.7-2.15l7,7.15m5.7,30.15q-3.75,1.85-7.65,3.2l-3.7,1.25m19.45-19l-1.75,1.55-3.05-2.05m0.9,16.35l-0.1-0.45,2.3-8.65m-14.05,19.35l10.1-6.95,5.2,0.8m3.35-27.5q-0.7,4.85-2.9,7.55" stroke="#414f50" stroke-linecap="round" stroke-width="2.0" fill="none"/>
  <path id="path3915" stroke-linejoin="round" d="M31.5-66.6q-0.95-0.75-2.45-0.8-1.4-0.05-2.45,0.6-1.05,0.7-1.05,1.7t1.05,1.7q1,0.6,2.45,0.6,1.5,0,2.55-0.6,1.15-0.7,1-1.55-0.1-0.85-1.1-1.65" stroke="#7d1d39" stroke-linecap="round" stroke-width="1.0" fill="none"/>
  <path id="path3917" stroke-linejoin="round" d="M93.15,8.7q-4,5.15-14.8,6.9" stroke="#4b5b5c" stroke-linecap="round" stroke-width="2.0" fill="none"/>
 </g>
</svg>
