<svg xmlns="http://www.w3.org/2000/svg" viewBox="0 0 97.25 154.3"><path d="M17.9 8.75l1.5 1.15q6.35 4.95 6.9 7.2t1.85 5.2l1.55 4.15q1 2.85 1 4.4l-.3.8-.2.6q0 .55.7 3.75l.85 4.3q.15 1.1 1.05 4.7l.2.7.05.1.05.35v.05l.1.35.1.5v.1l.1.3.05.3v.05l.05.2.1.55-.4.7-.4.6q0 .65 5.35 10.4l2.55 1.6.7.2 3.15 1.4 3.3 1.6.75-.2.65-.15 5.1 1.1 3.8.95q-10.85-.25-16.75-4.7 5.9 4.45 16.75 4.7l1.5.15.95-.1h.05v-.05l3.4-.5 1.45-.05-.1.3-4.75.25 4.75-.25.1-.3H68v-.1l6.9-11.05 2.6-5.7q2.1-5 2.1-5.65 0-2.55 1.35-2.9 1.4-.4 1.4 1.8l-.05.4q-.15 1.9-1.85 6.35-1.7 4.4-2.6 5.75l-3.95 7.45q-1.4 2.6-2.65 3.85l1.05.2 2.7.7 3.75-5.45 5.2-7.1q4.75-9.5 4.75-11.1l-.2-.4q-.1-.15.5-2.65.65-2.5 1.65-1.45 1 .9 1 2.3t-.5 2.8l-.4 1.35q0 1.9-1.75 5.65-1.6 3.35-3.05 5.15l-.9 1.3-3 4.95q-2.9 4.5-4.85 5.5l7.85-10.45-7.85 10.45h-.05l-.1.05.1.05q1.3.75 1.95 1.7l.8-.2q1 0 2.1-1.15l1.75-2.2q.6-.9 2.45-2.2l2.75-1.95 2.25-2.1 1.55-2.05q1.15-1.9 2.05-2.1.9-.1.9 1.45 0 1.45-2.1 3.85l-3.55 3.9-5.3 5.45-1.1 1.1-1.05 1.2-.1-.4 1.15-.8-1.15.8.1.4-.4.6.7.7v.05l.1.2v.3l.05.15.05.25-.1-.4.1.4.05 3.3-.65 5.5q-.9 2.9-2.85 5.55Q81.6 86.9 82.5 84v.1q-.95 4.9-2.85 5.45l-.4.05-.45-.15-.1-.05-.95 1.35q-1.6 2.3-3.4 3.35-.1.6-.8 1.05l-2.7 1.55q-1.35.8-1.8 1.75l-.2.65-.05.45-.2 3.5-.65 1.75.05 1.05-.15.75-.35 1.15-.65 1.75q-.15.35-1.05.65h-.1l-.2.1-.8.95-.05.05-.05.05q-2.85 3.45-5.4 3.45l-.65-.1-.8-.55-.1-.2-.75.2-2.55 1.15-1.15.65h-.05l-1.65.45-.7-.25-.35-.45-.4-.55-2.8.5-1.65.45-.4-.05-1 .2q-.95 0-1.45-.65l-.05.7-.05.25-.5.3-.3 2.85.3-2.85-.3-.6-.25-1.45q6.05-3.15 12.05-4.3-6 1.15-12.05 4.3l.25 1.45.3.6.5-.3-.35 1.65-.3 1.05-.15.45-.75 2.15q-2.25 5.8-5.2 5.8l-2.7-2.45q-2.4-2.55-2.7-3.6l-1.3-4.05-.35-.9-.65-2v-.15q.1-.75.8-1.1.9-.5 1.8.75.7.85 1 2.5l.75 2.65q1 2.25 2.85 2.25 2.05 0 2.75-1.15.55-.8.65-2.6.15-1.9.45-2.5.3-.7 1-.95l-.05-.85q-.05-.65.55-1.7.55-1 3.1-2 2.55-1.05 4-1.25l2.2-.3 2.6.45 1.45.45.3-.1v-.1q-.65-1.45 1.15-1.6 1.55-.15 1.75.9 1.15-.65 1.75-1.6.85-1.7 2.95-2.1 1.35-.25 1.25-.9h.2-.2l-.1-.2-.85-.3-.7.2-.75.2-.95-.5q-.65-.5-1.6-.5l-1 .3-1.35.2q.95.4 1.35 1.05.45.6.45 1.35l-.2.7q-.35.65-1.1.65-.7 0-1.1-.55l-.65-.7-2.15-.45-1.8-.3q-1.35-.35-2.95-1.25l-2.45-1.45-.2-.1-5.6-2.6-3.3-1.65-.15-.1q-1.75-.35-4.3-1.75-2.55-1.5-2.55-2.3 0-2.45 3.05-.85l2.2 1.35q-1.4-1.3-1.4-2l.25-.9q.4-.85 1.25-.85.55 0 1.3.55l.9.55 2.25.5 1.1.5q1.8 0 3.1 1.15l2.15 2.25q1.15 1.05 4.25 2.4 3 1.25 4.05 1.25l1.35-.3v-.1q-.9-1.05 1.45-.2 2.3.75 3.3-1.4 1.15-2.15-1.95-4.15v-.05l-.45-.55q0-3.25-2.7-7.05-1.95-2.85-4.8-5.1l-2.75-2.3-3.75-2.3.15-.5q.25-.6 1.15-.65l-.35-1.25q-.35-.85-.35-1.2 0-1.85 1.2-1.35l-.6-.85-2.85-2.1q-2.1-1.45-2.1-2.2 0-.8.3-1.2l-1.75-1.2q-3.1-2.2-3.1-2.75v-.1l-1.6-1.9-.75-1.05q-1.25-1.85-1.25-2.4 0-1-1.25-4.8-1.2-3.8-1.2-5.15l.2-.65.3-.7L28.3 40l.1-1.05-.35-3.15-.2-2.2-.75-4.5-.55-2.4-.05-.05-.25-1.25-1.35-5.45q-1.3-4.6-6.55-9.85l-2.1-2.2 1.6.8-1.6-.8q-1.05-1.25 1.6.8l.05.05M49.6 73.6q-7.05-7.95-16.85-15.95 9.8 8 16.85 15.95v.05q-.3.55-.85.6.9 1.15 3.8 3.15l.5.4q2.4 1.8 2.9 3.8v.05l1.15 1.8 1.2 1.65.1.05q1 .9 1.75 2.6l.6 1.45.55 1.5.1.2-.1-.6 1.35-1.45 1.6-1.5.65.25.65.2.7-.2.75-.25 1 .25.65.4q.7-1.25 2.05-2 1.4-.8 2.1-.35-.75-.7-.75-1.1 0-.8 1.25-1.3l2.75-.85q4-1.35 4-3.95l-.35-1.9-.3-1.7.05-.75q-.55-1.05-3.6-3.25Q72.9 68.6 71 68.7l-8.35.5-.25-.05-.15.05-2.45.4-3.45-.5-.6.15-.6.15-.9-.15-1-.05-1.9-.1-1.1-.4-2.25-.2-.45.3-.5.3 1.1 1.25q1.6 1.95 1.6 2.65l-.15.6m12.5 18.2l-.8-1.5.8 1.5-.4-.4-.1-.1 3.85 9.3v-.35l.1-1.65-.35-.8-.3-.6q0-.65.45-1.7-.55-.25-1.35-1.35l-.75-1.3q0-.35.3-.8l.05-.05-.55.05-.95-.25m3.15 11.35l.9-.3-.7-2.6.7 2.6-.9.3v-.1l-.1.15q-.45.4-1.05.4l-.45-.05 1.5-.35-1.5.35-.4-.15.2.2 1.75.2.05-.65m-36.4 13.45l-.1-1.7-.55-.45.55.45.1 1.7m-3.7-5q-2.1-1.35-4.9-4.55l-2.1-2.6-.05-.05q-2.1-2.65-2.1-3.5-1.6-.8-3.25-3.7l-1.25-2.4q-1.7-1.1-3.9-5.35l-2-4.3q-.9-1.1-1.8-3.5-1.45-3.75-1.45-4.55l-.5-2.3q-.65-3.8-.65-6l.05-2.15q.05-1 .6-2.65l.35-1.4q.2-.7.8-1.1.95-.6 1.6-.45l.4.15q.45.3.45 1.05L5 63.5l.1.3.35 1.55.15 1.75q1.8 8.95 2.65 10.95L10 81.3q.9 1.65 3.35 4.95 2.4 3.25 4.9 5.2l2.2 1.7 1.5 1.1 3.45 2.8L28 99.2q.4.25.2.85l-.05.05q1.4 1.15 1.4 2.25l-.2.65q-.3.6-1.15.6l-.3-.2 1.1 1.55.9 2q.45 1.15 1.5 1.9l1.8 1.85q1.2 1.55 1.2 2.25l-.15.65q-.35.65-1.15.65l-3.35-3.3.15.5-.25.7q-.4.6-1.35.6l-.7-.3q-1.05 0-2.45-.85l-7-7.15 7 7.15M4.05 53q-.35-.35-.4-1.05L5.7 46.7l1.7-4.2-.9 2.9L4.05 53l2.45-7.6.9-2.9 1.25-3.15q1.35-3.6 1.3-9.1-.05-2.9.4-4 .9.7 2.4.25l.4-.2.75-.15q.7-.45 1.65-2.15.75-2.05 1.85-1.9 1.15.2 1.05 1.25l-.75 2.25q-.55 1-.4 1.8l.1 1.9q-.2 1.55-1.55 1.55-1.9 0-2.65 2.25-.35.95-.6 2.9-.1 1.2-.9 2.95l-1.25 2.8-2.5 6.95q-1.9 4.6-3 4.6-.55 0-.9-.3m25.75 56.55q-19.35-16-24.1-32.05-2.35-8.05-1.1-16.45-1.25 8.4 1.1 16.45 4.75 16.05 24.1 32.05m27.5-5.5l-5.45-.55-6.5-1.45 6.5 1.45 5.45.55m1-18.95l2.45 4.1-2.45-4.1m-5.25-7.3l2.9 3.8-2.9-3.8m17.6-10.65Q77.05 56.95 82.3 43q-5.25 13.95-11.65 24.15m5.5 2.45l1-1.35-1 1.35m3.5 3.6l.1.15.05-.05-.15-.1m3.25 1.1l.1.45-.1-.45M69.05 98.45q-.1.05-.25.15l.05.5-.05-.5q.15-.1.25-.15m-15.9 17.45l-2.35.2 2.35-.2m-11.3.3l.85.05-.85-.05m22.75-4.9q-2.35 2.1-6.05 3.35 3.7-1.25 6.05-3.35m3.25-4.7q-.75 2-2.15 3.55 1.4-1.55 2.15-3.55M19.2 94.35l.15.25.05-.05-.2-.2m45.4-1.75q10.8-1.75 14.8-6.9-4 5.15-14.8 6.9" fill-rule="evenodd" fill-opacity=".478" fill="#aebfba"/><path fill-rule="evenodd" d="M33 45.7l-.2-.7q-.9-3.6-1.05-4.7L30.9 36q-.7-3.2-.7-3.75l.2-.6.3-.8q0-1.55-1-4.4l-1.55-4.15q-1.3-2.95-1.85-5.2t-6.9-7.2l-1.5-1.15.4.2q2.95 1.65 5.15 4.1l.4.45.1.1.35.4.1.1q2.3 2.75 3.75 6.35Q29.8 24.5 30.8 30.6l1.45 10.85.1.4.65 3.85M16.25 7.9l2.1 2.2q5.25 5.25 6.55 9.85l1.35 5.45.25 1.25.05.05.55 2.4.75 4.5.2 2.2.35 3.15-.1 1.05 1.25 3.95-.3.7-.2.65q0 1.35 1.2 5.15 1.25 3.8 1.25 4.8 0 .55 1.25 2.4l.75 1.05 1.6 1.9v.1q0 .55 3.1 2.75l1.75 1.2q-.3.4-.3 1.2 0 .75 2.1 2.2l2.85 2.1.6.85q-1.2-.5-1.2 1.35 0 .35.35 1.2l.35 1.25q-.9.05-1.15.65l-.15.5 3.75 2.3 2.75 2.3q2.85 2.25 4.8 5.1 2.7 3.8 2.7 7.05l.45.55v.05q3.1 2 1.95 4.15-1 2.15-3.3 1.4-2.35-.85-1.45.2v.1l-1.35.3q-1.05 0-4.05-1.25-3.1-1.35-4.25-2.4l-2.15-2.25q-1.3-1.15-3.1-1.15l-1.1-.5-2.25-.5-.9-.55q-.75-.55-1.3-.55-.85 0-1.25.85l-.25.9q0 .7 1.4 2l-2.2-1.35q-3.05-1.6-3.05.85 0 .8 2.55 2.3 2.55 1.4 4.3 1.75l.15.1 3.3 1.65 5.6 2.6.2.1 2.45 1.45q1.6.9 2.95 1.25l1.8.3 2.15.45.65.7q.4.55 1.1.55.75 0 1.1-.65l.2-.7q0-.75-.45-1.35-.4-.65-1.35-1.05l1.35-.2 1-.3q.95 0 1.6.5l.95.5.75-.2.7-.2.85.3.1.2q.1.65-1.25.9-2.1.4-2.95 2.1-.6.95-1.75 1.6-.2-1.05-1.75-.9-1.8.15-1.15 1.6v.1l-.3.1-1.45-.45-2.6-.45-2.2.3q-1.45.2-4 1.25-2.55 1-3.1 2-.6 1.05-.55 1.7l.05.85q-.7.25-1 .95-.3.6-.45 2.5-.1 1.8-.65 2.6-.7 1.15-2.75 1.15-1.85 0-2.85-2.25l-.75-2.65q-.3-1.65-1-2.5-.9-1.25-1.8-.75-.7.35-.8 1.1l-3.05-2.85q1.4.85 2.45.85l.7.3q.95 0 1.35-.6l.25-.7-.15-.5 3.35 3.3q.8 0 1.15-.65l.15-.65q0-.7-1.2-2.25l-1.8-1.85q-1.05-.75-1.5-1.9l-.9-2-1.1-1.55.3.2q.85 0 1.15-.6l.2-.65q0-1.1-1.4-2.25l.05-.05q.2-.6-.2-.85l-2.6-2.15-3.45-2.8-1.5-1.1-2.2-1.7q-2.5-1.95-4.9-5.2-2.45-3.3-3.35-4.95l-1.75-3.25q-.85-2-2.65-10.95l-.15-1.75-.35-1.55-.1-.3.45-1.25q0-.75-.45-1.05l-.4-.15q-.65-.15-1.6.45-.6.4-.8 1.1L1.85 64q-.55 1.65-.6 2.65L1.2 68.8q0 2.2.65 6l.5 2.3q0 .8 1.45 4.55.9 2.4 1.8 3.5l2 4.3q2.2 4.25 3.9 5.35l1.25 2.4q1.65 2.9 3.25 3.7 0 .85 2.1 3.5l-.45-.45Q10.4 95.9 6.4 88.6l-.2-.35-1.15-2.2q-5.2-10.8-3.75-21.9.6-4.2 2.2-9.5L4.05 53q.35.3.9.3 1.1 0 3-4.6l2.5-6.95 1.25-2.8q.8-1.75.9-2.95.25-1.95.6-2.9.75-2.25 2.65-2.25 1.35 0 1.55-1.55l-.1-1.9q-.15-.8.4-1.8l.75-2.25q.1-1.05-1.05-1.25-1.1-.15-1.85 1.9-.95 1.7-1.65 2.15l-.75.15q1.1-.55 1.85-2 .85-1.75.8-3.65-2.55-2.25-4.65-2.3h-.8L10 18.3l-2.15-.15 1.8-1.85q1-.05 2.6-1.3-2.35-1.6-4.3-2.05l-4.35-.1.85-.85.5-.3q1.75-1 4 .3.85-4.65 4-5.3l3.3 1.2M49.6 73.6l.15-.6q0-.7-1.6-2.65l-1.1-1.25.5-.3.45-.3 2.25.2 1.1.4 1.9.1 1 .05.9.15.6-.15.6-.15 3.45.5 2.45-.4.15-.05.25.05 8.35-.5q1.9-.1 4.85 2.15 3.05 2.2 3.6 3.25l-.05.75.3 1.7.35 1.9q0 2.6-4 3.95l-2.75.85q-1.25.5-1.25 1.3 0 .4.75 1.1-.7-.45-2.1.35-1.35.75-2.05 2l-.65-.4-1-.25-.75.25-.7.2-.65-.2-.65-.25-1.6 1.5-1.35 1.45-.55-1.1.55 1.1.1.6-.1-.2-.55-1.5-.6-1.45q-.75-1.7-1.75-2.6l-.1-.05-1.2-1.65-1.15-1.8v-.05q-.5-2-2.9-3.8l-.5-.4q-2.9-2-3.8-3.15.55-.05.85-.6v-.05l3.45 4.2-3.45-4.2m12.5 18.2l.95.25.55-.05-.05.05q-.3.45-.3.8l.75 1.3q.8 1.1 1.35 1.35-.45 1.05-.45 1.7l.3.6.35.8-.1 1.65v.35l-3.85-9.3.1.1.4.4q2.05 4.2 3.35 8.45-1.3-4.25-3.35-8.45m3.15 11.35l-.05.65-1.75-.2-.2-.2.4.15-.2.05.2-.05.45.05q.6 0 1.05-.4l.1-.15v.1l-.1.05.1-.05m-36.4 13.45l.35.9 1.3 4.05q.3 1.05 2.7 3.6l2.7 2.45q2.95 0 5.2-5.8l.75-2.15.15-.45q-.45 5.25-3.05 8l-1.75 1.55-3.05-2.05q-4.45-3.8-5.3-10.1M33.5 48q2.05 8.15 5.85 12.15l2.05 1.9-.7-.2-2.55-1.6q-5.35-9.75-5.35-10.4l.4-.6.4-.7-.1-.55m24.65 18.75l.55.05H60.6l-.95.1-1.5-.15m7.35-.55l.3-.85q4.85-13.3 7.3-24.35l.1-.5.05-.35.1-.35q6.85-6.8 9.15 2.7 14.85-10.95 6.35 10.15 7.25-2.7 7.4 3.85l-.05 1.8q-5.95 8.8-12.55 13.45l1.1-1.1 5.3-5.45 3.55-3.9q2.1-2.4 2.1-3.85 0-1.55-.9-1.45-.9.2-2.05 2.1l-1.55 2.05-2.25 2.1-2.75 1.95q-1.85 1.3-2.45 2.2L82 68.6q-1.1 1.15-2.1 1.15l-.8.2q-.65-.95-1.95-1.7l.05-.1-.05.1-.1-.05.1-.05h.05q1.95-1 4.85-5.5l3-4.95.9-1.3q1.45-1.8 3.05-5.15 1.75-3.75 1.75-5.65l.4-1.35q.5-1.4.5-2.8t-1-2.3q-1-1.05-1.65 1.45-.6 2.5-.5 2.65l.2.4q0 1.6-4.75 11.1l-5.2 7.1L75 67.3l-2.7-.7-1.05-.2q1.25-1.25 2.65-3.85l3.95-7.45q.9-1.35 2.6-5.75 1.7-4.45 1.85-6.35l.05-.4q0-2.2-1.4-1.8-1.35.35-1.35 2.9 0 .65-2.1 5.65l-2.6 5.7L68 66.1v.1h-2.5m17.1 6.75l.2.65.1.65-.7-.7.4-.6m.5 2.25l.1.65q.55 4.3-.7 8.15l.65-5.5-.05-3.3m-3.45 14.35q-3.5 4.9-10.6 8.9.45-.95 1.8-1.75l2.7-1.55q.7-.45.8-1.05 1.8-1.05 3.4-3.35l.95-1.35.1.05.45.15.4-.05m-10.8 9.55q.3 4.3-1 7.5l.15-.75-.05-1.05.65-1.75.2-3.5.05-.45m-3.1 11.05l-.6.65-.25.2-.2.2.8-.95.2-.1-.55.65.55-.65h.05m-7.2 4.5l-5.35 1.25 1.15-.65 2.55-1.15.75-.2.1.2.8.55m-7.75 1.45l-1.45.1-5.75.1.1.25.05.1.1.25q.85 1.95 1.7 5.85-1.25-3.4-3.25-4.6l.35-1.65.05-.25.05-.7q.5.65 1.45.65l1-.2.4.05 1.65-.45 2.8-.5.4.55.35.45M7.4 42.5q2.85-9.65 2.5-16.7l.45.45q-.45 1.1-.4 4 .05 5.5-1.3 9.1L7.4 42.5m10.35-32.1q-.95-.75-2.45-.8-1.4-.05-2.45.6-1.05.7-1.05 1.7t1.05 1.7q1 .6 2.45.6 1.5 0 2.55-.6 1.15-.7 1-1.55-.1-.85-1.1-1.65m-6.8 32.95q-5.1 9-6.35 17.7 1.25-8.7 6.35-17.7m46.35 60.7l5.95-.45-5.95.45m-28.55-49.6l4 3.2-4-3.2m2.25 42q7.6 3.7 14.35 5.6-6.75-1.9-14.35-5.6M58.3 85.1l-2.35-3.5 2.35 3.5m24.2-42.6l-.2.5.2-.5m-2.85 30.7l.15.1-.05.05-.1-.15m5.4-15.5l3.8-5.05-3.8 5.05m-41.6 58.6h.15-.15l-.8.2.8-.2-.75-.05.75.05M19.2 94.35l.2.2-.05.05-.15-.25m19.75 32.85q2.2-2.7 2.9-7.55-.7 4.85-2.9 7.55" fill="#f0f4f3"/><path fill-rule="evenodd" d="M17.9 8.75l-.05-.05q-2.65-2.05-1.6-.8l-3.3-1.2q-3.15.65-4 5.3-2.25-1.3-4-.3Q4.2 4.25 8.6 2.55 13.05.8 15.2.75q-1.45.95-1.25 2.15 2-.9 4.3-.65-1.3.65-.9 1.85 2.35-.55 4.25 0-1.15.75-1.3 2.2 2.6-.15 3.8 1-2.05.8-2.2 1.65 3.5 2.6 2.5 5.15l-.1-.1-.35-.4-.1-.1-.4-.45q-2.2-2.45-5.15-4.1l-.4-.2.4.2-.4-.2m-8 17.05l-1.35-1.55q-1-1.6-2.25-4.45 2.25-1.25 4.05-1.45h.8q2.1.05 4.65 2.3.05 1.9-.8 3.65-.75 1.45-1.85 2l-.4.2q-1.5.45-2.4-.25l-.45-.45" fill="#a6112f"/><path fill-rule="evenodd" d="M49.35 116.2l1.55 10.2.95 7.05 2.45 1.85 2.3 1.75-4.75-.5q-3.55 3.95-6.7 4.9l3.45-5.7q-5.7 2.55-8.95 2.6l.75-.35 5.6-3.2h-5.05l7.5-1.65q-1.95-6.3-2.9-10.4-.85-3.9-1.7-5.85l-.1-.25-.05-.1-.1-.25 5.75-.1m-10.4 11l-.95 3.85-.75 2.9-2.2 9.1-.1-.45 2.3-8.65-2.3 8.65.1.45-.1.5q.15 2.1 3.55 3.6l-5.2-.8-10.1 6.95 10.1-6.95 5.2.8h-5.7l-9.6 6.15 4.85-7.3-12.3 1.45 3.75-1.25 3.7-1.25q3.9-1.35 7.65-3.2-3.75 1.85-7.65 3.2l-3.7 1.25 6.65-2.55-7.05-1.05 11.75-.85 3.3-15.05 3.05 2.05 1.75-1.55M6.3 19.8q.1-1.6-.3-.6-2.25-1.25-5.25-.45.25-3 2.85-5.9l4.35.1q1.95.45 4.3 2.05-1.6 1.25-2.6 1.3l-1.8 1.85L6.3 19.8m3.35-3.5q-5.05-.25-8.9 2.45 3.85-2.7 8.9-2.45M40.4 138q5.4-2.3 8.05-4.85-1.45-9.6-4.6-16.25 3.15 6.65 4.6 16.25-2.65 2.55-8.05 4.85" fill="#ff0"/><path fill-rule="evenodd" d="M17.75 10.4q1 .8 1.1 1.65.15.85-1 1.55-1.05.6-2.55.6-1.45 0-2.45-.6-1.05-.7-1.05-1.7t1.05-1.7q1.05-.65 2.45-.6 1.5.05 2.45.8m-3.6.55q-.5.45-.5.95 0 .55.5.95l.6.4H15.6l.75-.4q.45-.4.45-.95l-.45-.95-.8-.4h-.5l-.9.4" fill="#93133d"/><path fill-rule="evenodd" d="M14.15 10.95l.9-.4h.5l.8.4.45.95q0 .55-.45.95l-.75.4H14.75l-.6-.4q-.5-.4-.5-.95 0-.5.5-.95m.45.5l-.15.3.15.15.25.2.25-.2.1-.15-.1-.3-.25-.05-.25.05"/><path fill-rule="evenodd" d="M14.6 11.45l.25-.05.25.05.1.3-.1.15-.25.2-.25-.2-.15-.15.15-.3" fill="#fff"/><path stroke-linejoin="round" d="M4.95 11.7Q4.2 4.25 8.6 2.55 13.05.8 15.2.75q-1.45.95-1.25 2.15 2-.9 4.3-.65-1.3.65-.9 1.85 2.35-.55 4.25 0-1.15.75-1.3 2.2 2.6-.15 3.8 1-2.05.8-2.2 1.65 3.5 2.6 2.5 5.15M9.9 25.8l-1.35-1.55Q7.05 22.2 6.3 19.8q2.25-1.25 4.05-1.45h.8q2.1.05 4.65 2.3.05 1.9-.8 3.65-.75 1.45-1.85 2l-.4.2q-1.5.45-2.4-.25l-.45-.45" stroke="#7d1d39" stroke-linecap="round" stroke-width="1.5" fill="none"/><path stroke-linejoin="round" d="M46 134.8h-5.05l7.5-1.65m-22.3 10.5l-7.05-1.05 11.75-.85M6 19.2q-2.25-1.25-5.25-.45.25-3 2.85-5.9l.85-.85.5-.3q1.75-1 4 .3.85-4.65 4-5.3M3.6 12.85l4.35.1q1.95.45 4.3 2.05-1.6 1.25-2.6 1.3l-1.8 1.85m-7.1.6q3.85-2.7 8.9-2.45M6.3 19.8l1.55-1.65" stroke="#414f50" stroke-linecap="round" stroke-width="1.5" fill="none"/><path stroke-linejoin="round" d="M17.9 8.75l-.05-.05-1.6-.8m16.5 49.75q9.8 8 16.85 15.95l3.45 4.2m8.25 12.5l.8 1.5m3.35 8.45l.7 2.6-.9.3m-1.8.45h-.2l-5.95.45m-29.1 10.4l.55.45.1 1.7m13 3.05l.3-2.85-.3-.6-.25-1.45q6.05-3.15 12.05-4.3M24.4 14.1q2.3 2.75 3.75 6.35Q29.8 24.5 30.8 30.6l1.45 10.85.1.4.65 3.85.05.1.05.35.1.4m.1.5v.1l.1.3.05.3m0 .05l.05.2q2.05 8.15 5.85 12.15l2.05 1.9q5.9 4.45 16.75 4.7l.55.05h1.35l.6-.05 4.75-.25.1-.3.3-.85q4.85-13.3 7.3-24.35l.1-.5.05-.35.1-.35q6.85-6.8 9.15 2.7 14.85-10.95 6.35 10.15 7.6-7.8 7.4 3.85l-.05 1.8q-5.95 8.8-12.55 13.45l-1.15.8.1.4.2.65m.1.65v.05m.1.45v.05m.1.4l.1.65q.55 4.3-.7 8.15m-2.85 5.55q-3.5 4.9-10.6 8.9m-.2.65q.3 4.3-1 7.5m-2.7 4.2l-.25.2-.2.2-.05.05-.05.05m-6.05 3.35l-5.35 1.25h-.05m-2.35.2l-1.45.1 1.55 10.2.95 6.1 1.75 2.1.7.7 2.3 1.75-4.75-.5q-3.55 3.95-6.7 4.9l3.45-5.7q-5.7 2.55-8.95 2.6l.75-.35m-1.45-10.8l-.95 3.85-.75 2.9m-2.2 9.1q.25.75.95 1.75.95 1.35 2.5 2.35m-15.3 6.15l4.85-7.3q-5.7 1.75-12.85 1.45l4.3-1.25m11.35-4.45l3.3-15.05q-4.45-3.8-5.3-10.1m-.65-2.15l-3.05-2.85m-7-7.15l-.05-.05-.45-.45Q10.4 95.9 6.4 88.6l-.2-.35-1.15-2.2q-5.2-10.8-3.75-21.9.6-4.2 2.2-9.5L4.05 53l2.45-7.6.9-2.9q2.85-9.65 2.5-16.7m3.05-19.1l3.3 1.2m8.15 6.2l-.1-.1-.35-.4-.1-.1-.4-.45q-2.2-2.45-5.15-4.1l-.4-.2M4.6 61.05q-1.25 8.4 1.1 16.45 4.75 16.05 24.1 32.05M4.6 61.05q1.25-8.7 6.35-17.7m34.4 58.7l6.5 1.45 5.45.55m-11.95-2q-6.75-1.9-14.35-5.6m1.75-38.8l-4-3.2m27.2 27.15l2.35 3.5m2.45 4.1l.55 1.1m-.55-1.1l-2.45-4.1m-2.35-3.5l-2.9-3.8M82.3 43l.2-.5m-.2.5q-5.25 13.95-11.65 24.15m14.4-9.45L77.2 68.15l-.05.1-1 1.35m6.95 5.6l-.1-.4m0-.05l-.1-.45m5.95-21.65l-3.8 5.05m-5.4 31.85Q81.6 86.9 82.5 84M68.85 99.1l-.05-.5q.15-.1.25-.15m-3.6 1.8Q64.15 96 62.1 91.8m-11.3 24.3l2.35-.2m-10.45.35l-.85-.05m.3.6l.5-.3.8-.2-.75-.05m.9.05h-.15m5.9-.1l-5.75.1.1.25.05.1.1.25q3.15 6.65 4.6 16.25-2.65 2.55-8.05 4.85m24.75-34.8l.1-.05m-.1.05l-1.5.35m-.2.05l.2-.05m-5.1 11.1q3.7-1.25 6.05-3.35m1.1-1.15l-.55.65m.55-.65q1.4-1.55 2.15-3.55m-49.7-2.15l7 7.15m5.7 30.15q-3.75 1.85-7.65 3.2l-3.7 1.25m19.45-19l-1.75 1.55-3.05-2.05m.9 16.35l-.1-.45 2.3-8.65M23.2 153.3l10.1-6.95 5.2.8m3.35-27.5q-.7 4.85-2.9 7.55" stroke="#414f50" stroke-linecap="round" stroke-width="2" fill="none"/><path stroke-linejoin="round" d="M17.75 10.4q-.95-.75-2.45-.8-1.4-.05-2.45.6-1.05.7-1.05 1.7t1.05 1.7q1 .6 2.45.6 1.5 0 2.55-.6 1.15-.7 1-1.55-.1-.85-1.1-1.65" stroke="#7d1d39" stroke-linecap="round" fill="none"/><path stroke-linejoin="round" d="M79.4 85.7q-4 5.15-14.8 6.9" stroke="#4b5b5c" stroke-linecap="round" stroke-width="2" fill="none"/></svg>