<svg xmlns="http://www.w3.org/2000/svg" width="900" height="450" viewBox="0 0 900 450"><path fill="#141C2C" d="M401.6 314.704c3.157 1.105 6.314 2.211 9.473 3.313-2.764-1.658-5.407-3.748-7.934-6.273a107.37 107.37 0 0 0-1.539 2.96m38.126 19.416c2.131-.946 3.709-1.734 4.736-2.368l-3.908-5.92c-1.104.555-2.684 1.896-4.736 4.026a41.563 41.563 0 0 1 3.908 4.262m16.338 13.025a45.212 45.212 0 0 0-3.433 1.54c1.185 1.577 1.973 2.999 2.368 4.262.079-.157.118-.354.118-.592.196-1.066.396-2.13.592-3.196.158-.868.276-1.541.355-2.014M355.186 246.502c1.026.396 1.935.592 2.723.592.79 0 1.619-.117 2.487-.354-1.184-2.842-1.935-5.012-2.25-6.512a93.452 93.452 0 0 0 2.368-6.395 96.445 96.445 0 0 0 2.842-12.078c1.657-3.946 3.709-8.486 6.156-13.616-17.128 6.551-32.047 14.208-44.756 22.969-3.946 2.606-7.183 5.407-9.709 8.408a32.145 32.145 0 0 0-1.539 1.895c-.434.671-.869 1.341-1.302 2.012-2.842 4.657-4.026 9.828-3.552 15.511.789 11.29 8.289 22.616 22.497 33.982 7.419 2.209 20.601 6.156 39.545 11.841-3.63-6.63-6.828-15.196-9.59-25.695-2.368-9.233-4.262-19.298-5.683-30.192-.079-.867-.159-1.656-.237-2.368m272.326-89.393c-2.132-5.92-4.854-9.472-8.17-10.656 3 4.184 5.92 8.406 8.763 12.669-.237-.948-.435-1.619-.593-2.013m-98.51 159.25a14.965 14.965 0 0 1-1.658-.945c-.081.157-.159.316-.238.474.317.314.75.671 1.305 1.063.156-.314.353-.513.591-.592m41.795-52.096a64.514 64.514 0 0 0-3.67 4.264c1.026.472 1.815 1.143 2.368 2.013l.474.474c.157-1.579.317-3.078.475-4.5a19 19 0 0 1 .353-2.251m-63.819 36.587l.712-.71c-.396.235-.749.393-1.066.474 0 .079.04.118.118.118.078-.001.156.039.236.118m75.897-119.824a596.313 596.313 0 0 0 3.906 6.156c.396.631.867 1.303 1.422 2.013.472 1.5.946 2.92 1.42 4.263.87 4.578 1.976 13.773 3.316 27.587.394 2.368.906 4.539 1.538 6.511-.867 2.289-1.973 4.144-3.314 5.566-1.263 8.762-2.093 14.957-2.488 18.588-1.894 16.736-2.84 25.14-2.84 25.221-1.738 10.261-4.5 18.706-8.288 25.339-2.446 4.341-5.92 8.05-10.42 11.128-6.79 3.631-12.825 6.986-18.117 10.064-.314.238-1.184 1.066-2.604 2.488 10.264-1.501 21.627-5.171 34.101-11.013 14.838-6.868 29.009-19.772 42.505-38.717 13.58-19.022 20.17-40.891 19.775-65.595-10.499-9.552-24.946-18.078-43.336-25.576-4.263-1.734-9.789-3.075-16.576-4.023z"/><path fill="#0F1420" d="M452.632 348.685c-1.026-1.341-2.29-2.761-3.79-4.262-2.841-2.921-4.814-5.012-5.92-6.276l8.88 10.895c.238-.158.513-.278.83-.357m134.149-161.502a579.806 579.806 0 0 1-3.906-6.156c-22.575-3.158-59.005-1.855-109.286 3.907-40.889 4.578-75.581 12.313-104.077 23.207-2.446 5.13-4.499 9.67-6.156 13.616a96.486 96.486 0 0 1-2.842 12.078 94.183 94.183 0 0 1-2.368 6.395c.316 1.5 1.066 3.67 2.25 6.512a9.49 9.49 0 0 1-2.487.354c-.789 0-1.697-.196-2.723-.592.079.712.159 1.501.237 2.368 1.421 10.895 3.315 20.959 5.683 30.192 2.762 10.499 5.959 19.065 9.59 25.695.633.235 1.264.433 1.896.592a1049.492 1049.492 0 0 1 29.008 9.354c.473-.948.986-1.934 1.539-2.96 2.526 2.525 5.17 4.615 7.934 6.273 4.973 1.737 9.866 3.474 14.681 5.21 3.632 1.577 6.986 3.788 10.064 6.631 2.053-2.13 3.632-3.472 4.736-4.026l3.908 5.92c-1.027.634-2.605 1.422-4.736 2.368a25.125 25.125 0 0 1 1.776 2.25c.157.238.315.475.473.71l.947 1.066c1.105 1.265 3.079 3.355 5.92 6.276 1.5 1.501 2.764 2.921 3.79 4.262a45.036 45.036 0 0 1 3.433-1.54v-.592c-.551-9.156 2.488-14.838 9.118-17.049 3.788-1.263 8.366-1.341 13.734-.238 29.207-1.024 49.729-1.933 61.569-2.722 1.894-.157 3.866-.355 5.92-.592 1.42-1.422 2.289-2.25 2.604-2.488 5.292-3.078 11.327-6.434 18.117-10.064 4.5-3.078 7.974-6.787 10.42-11.128 3.788-6.633 6.55-15.078 8.288-25.339 0-.081.946-8.484 2.84-25.221.396-3.631 1.226-9.826 2.488-18.588 1.342-1.423 2.447-3.277 3.314-5.566-.632-1.973-1.145-4.143-1.538-6.511-1.341-13.814-2.446-23.01-3.316-27.587a131.378 131.378 0 0 1-1.42-4.263 24.154 24.154 0 0 1-1.422-2.014M507.689 300.14l-.712.71c-.079-.079-.157-.118-.236-.118-.078 0-.118-.039-.118-.118.317-.082.671-.239 1.066-.474m59.438-31.614a64.514 64.514 0 0 1 3.67-4.264 19.434 19.434 0 0 0-.354 2.25 440.436 440.436 0 0 0-.475 4.5l-.474-.474c-.552-.869-1.341-1.54-2.367-2.012m-39.783 46.888c.475.316 1.024.631 1.658.945-.238.079-.435.277-.592.592a10.58 10.58 0 0 1-1.305-1.063c.08-.158.158-.317.239-.474z"/><path fill="#355068" d="M317.179 295.047h-.119c-82.014 15-144.096 46.256-186.247 93.776l-.118 43.218c1.973 1.815 3.946 3.631 5.92 5.445a66.303 66.303 0 0 0 2.486 2.368l630.495-.71a8.346 8.346 0 0 1 .71-2.132c-28.495-64.49-80.433-109.405-155.817-134.741-9.394 17.286-30.271 27.27-62.636 29.955a5.4 5.4 0 0 1-1.066.117h-.472a209.35 209.35 0 0 1-10.42.475c-6.313.238-13.024.238-20.129 0 7.104.238 13.815.238 20.129 0a208.15 208.15 0 0 0 10.42-.475c-3.316-.078-6.554-.157-9.71-.235-38.125-1.263-58.688-2.211-61.688-2.843-5.368-1.103-9.946-1.024-13.734.238-6.63 2.211-9.669 7.893-9.118 17.049v.592a158.29 158.29 0 0 1-.354 2.014c-.196 1.066-.396 2.13-.592 3.196 0 .238-.039.435-.118.592.157 2.921.551 9.554 1.185 19.893-.634-10.339-1.027-16.972-1.185-19.893l-3.198-3.905-8.88-10.895-.947-1.066-.473-.71a25.307 25.307 0 0 0-1.776-2.25 41.45 41.45 0 0 0-3.908-4.262c-3.078-2.843-6.432-5.054-10.064-6.631-2.447-.078-4.815-.157-7.104-.235-7.973-.396-15.511-.948-22.615-1.658-3.868-.396-7.657-.83-11.366-1.302-31.024-4.343-53.52-12.671-67.491-24.985m242.962-127.519c5.132.157 10.064.435 14.801.829 26.286 1.736 45.822 5.565 58.609 11.485 6.079 2.762 10.616 6.038 13.616 9.827a526.63 526.63 0 0 0-19.063-30.548 452.976 452.976 0 0 0-8.763-12.669c-24.312-33.784-53.677-66.425-88.092-97.919-48.858-44.756-91.327-46.414-127.4-4.973-36.152 41.362-70.567 104.866-103.246 190.509 1.341-2.051 5.644-5.05 12.905-8.998 7.657-4.183 18.668-9.511 33.035-15.984a441.643 441.643 0 0 1 28.297-11.603c19.893-7.577 41.086-14.248 63.583-20.009 33.232-8.526 73.804-11.841 121.718-9.947z"/><path fill="#293E50" d="M574.941 168.357a281.93 281.93 0 0 0-14.801-.829c-47.914-1.894-88.485 1.421-121.718 9.946-22.497 5.762-43.69 12.432-63.583 20.009a441.168 441.168 0 0 0-28.297 11.603c-14.367 6.473-25.378 11.801-33.035 15.984-7.262 3.948-11.564 6.947-12.905 8.998a15.412 15.412 0 0 0-1.896 3.553c-4.499 9.71-2.881 22.653 4.855 38.837 2.841 6.947 7.34 13.143 13.497 18.588h.119c13.972 12.314 36.468 20.643 67.49 24.985 3.709.472 7.499.906 11.366 1.302 7.104.71 14.642 1.263 22.615 1.658 2.289.078 4.657.157 7.104.235a1558.545 1558.545 0 0 0-14.681-5.21c-3.158-1.103-6.316-2.208-9.473-3.313a1049.492 1049.492 0 0 0-29.008-9.354 18.05 18.05 0 0 1-1.896-.592 22530.681 22530.681 0 0 0-39.545-11.841c-14.208-11.366-21.708-22.692-22.497-33.982-.474-5.683.71-10.854 3.552-15.511.434-.671.869-1.341 1.302-2.012.474-.632.987-1.265 1.539-1.895 2.526-3.001 5.763-5.802 9.709-8.408 12.708-8.761 27.628-16.418 44.756-22.969 28.497-10.893 63.188-18.629 104.077-23.207 50.281-5.763 86.711-7.065 109.286-3.907 6.787.947 12.313 2.289 16.576 4.025 18.39 7.498 32.837 16.023 43.336 25.576.395 24.705-6.195 46.573-19.775 65.595-13.496 18.944-27.667 31.849-42.505 38.717-12.474 5.842-23.837 9.512-34.101 11.013-2.054.236-4.026.435-5.92.592-11.841.789-32.362 1.697-61.569 2.722 2.999.632 23.563 1.58 61.688 2.843 3.156.078 6.394.157 9.71.235h.472c.317 0 .671-.037 1.066-.117 32.364-2.686 53.242-12.669 62.636-29.955 11.604-6.633 24.785-32.956 39.547-78.976 1.973-10.972 1.184-19.733-2.368-26.285a4.197 4.197 0 0 0-.592-1.184 12.18 12.18 0 0 0-1.895-2.487 55.848 55.848 0 0 0-2.014-3.67c-3-3.789-7.537-7.065-13.616-9.827-12.785-5.92-32.321-9.748-58.608-11.485z"/><g><path fill="none" stroke="#000" stroke-width="2" stroke-linecap="round" stroke-linejoin="round" d="M647.167 189.67c-3-3.789-7.537-7.065-13.616-9.827-12.787-5.92-32.323-9.749-58.609-11.485a281.93 281.93 0 0 0-14.801-.829c-47.914-1.894-88.485 1.421-121.718 9.946-22.497 5.762-43.69 12.432-63.583 20.009a441.168 441.168 0 0 0-28.297 11.603c-14.367 6.473-25.378 11.801-33.035 15.984-7.262 3.948-11.564 6.947-12.905 8.998a15.412 15.412 0 0 0-1.896 3.553c-4.499 9.71-2.881 22.653 4.855 38.837 2.841 6.947 7.34 13.143 13.497 18.588h.119c13.972 12.314 36.468 20.643 67.49 24.985 3.709.472 7.499.906 11.366 1.302 7.104.71 14.642 1.263 22.615 1.658 2.289.078 4.657.157 7.104.235a1558.545 1558.545 0 0 0-14.681-5.21c-3.158-1.103-6.316-2.208-9.473-3.313a1049.492 1049.492 0 0 0-29.008-9.354 18.05 18.05 0 0 1-1.896-.592 22530.681 22530.681 0 0 0-39.545-11.841c-14.208-11.366-21.708-22.692-22.497-33.982-.474-5.683.71-10.854 3.552-15.511.434-.671.869-1.341 1.302-2.012.474-.632.987-1.265 1.539-1.895 2.526-3.001 5.763-5.802 9.709-8.408 12.708-8.761 27.628-16.418 44.756-22.969 28.497-10.893 63.188-18.629 104.077-23.207 50.281-5.763 86.711-7.065 109.286-3.907 6.787.947 12.313 2.289 16.576 4.025 18.39 7.498 32.837 16.023 43.336 25.576.395 24.705-6.195 46.573-19.775 65.595-13.496 18.944-27.667 31.849-42.505 38.717-12.474 5.842-23.837 9.512-34.101 11.013-2.054.236-4.026.435-5.92.592-11.841.789-32.362 1.697-61.569 2.722 2.999.632 23.563 1.58 61.688 2.843 3.156.078 6.394.157 9.71.235h.472c.317 0 .671-.037 1.066-.117 32.364-2.686 53.242-12.669 62.636-29.955 11.604-6.633 24.785-32.956 39.547-78.976 1.973-10.972 1.184-19.733-2.368-26.285a4.197 4.197 0 0 0-.592-1.184 12.18 12.18 0 0 0-1.895-2.487 55.375 55.375 0 0 0-2.013-3.67 526.63 526.63 0 0 0-19.063-30.548 452.976 452.976 0 0 0-8.763-12.669c-24.312-33.784-53.677-66.425-88.092-97.919-48.858-44.757-91.327-46.415-127.4-4.974-36.152 41.362-70.567 104.866-103.246 190.509m152.029 114.616c1.185 1.577 1.973 2.999 2.368 4.262.079-.157.118-.354.118-.592.196-1.066.396-2.13.592-3.196.157-.867.275-1.54.354-2.014v-.592c-.551-9.156 2.488-14.838 9.118-17.049 3.788-1.263 8.366-1.341 13.734-.238m-35.994 8.88c1.105 1.265 3.079 3.355 5.92 6.276 1.5 1.501 2.764 2.921 3.79 4.262m-.83.357l3.198 3.905c.157 2.921.551 9.554 1.185 19.893m-20.368-42.981a41.336 41.336 0 0 1 3.908 4.262 25.125 25.125 0 0 1 1.776 2.25c.157.238.315.475.473.71l.947 1.066 8.88 10.895m-26.048-25.813c3.632 1.577 6.986 3.788 10.064 6.631M139.101 439.854l630.495-.71m.71-2.131c-28.495-64.49-80.433-109.405-155.817-134.741m-297.429-7.225c-82.014 15-144.096 46.256-186.247 93.776l-.118 43.218m419.619-99.697a209.35 209.35 0 0 1-10.42.475c-6.313.238-13.024.238-20.129 0"/></g></svg>