<?xml version="1.0" encoding="utf-8"?>
<!-- Generator: Adobe Illustrator 16.0.0, SVG Export Plug-In . SVG Version: 6.00 Build 0)  -->
<!DOCTYPE svg PUBLIC "-//W3C//DTD SVG 1.1//EN" "http://www.w3.org/Graphics/SVG/1.1/DTD/svg11.dtd">
<svg version="1.1" id="Layer_1" xmlns="http://www.w3.org/2000/svg" xmlns:xlink="http://www.w3.org/1999/xlink" x="0px" y="0px"
	 width="900px" height="450px" viewBox="0 0 900 450" enable-background="new 0 0 900 450" xml:space="preserve">
<g transform="matrix( 1, 0, 0, 1, 0,0) ">
	<g>
		<g id="Layer0_0_FILL">
			<path fill="#141C2C" d="M401.6,314.704c3.157,1.105,6.314,2.211,9.473,3.313c-2.764-1.658-5.407-3.748-7.934-6.273
				C402.586,312.771,402.073,313.756,401.6,314.704 M439.726,334.12c2.131-0.946,3.709-1.734,4.736-2.368l-3.908-5.92
				c-1.104,0.555-2.684,1.896-4.736,4.026C437.16,331.123,438.462,332.543,439.726,334.12 M456.064,347.145
				c-1.185,0.474-2.327,0.987-3.433,1.54c1.185,1.577,1.973,2.999,2.368,4.262c0.079-0.157,0.118-0.354,0.118-0.592
				c0.196-1.066,0.396-2.13,0.592-3.196C455.867,348.291,455.985,347.618,456.064,347.145 M355.186,246.502
				c1.026,0.396,1.935,0.592,2.723,0.592c0.79,0,1.619-0.117,2.487-0.354c-1.184-2.842-1.935-5.012-2.25-6.512
				c0.79-1.895,1.579-4.026,2.368-6.395c1.184-3.867,2.131-7.896,2.842-12.078c1.657-3.946,3.709-8.486,6.156-13.616
				c-17.128,6.551-32.047,14.208-44.756,22.969c-3.946,2.606-7.183,5.407-9.709,8.408c-0.552,0.63-1.065,1.263-1.539,1.895
				c-0.434,0.671-0.869,1.341-1.302,2.012c-2.842,4.657-4.026,9.828-3.552,15.511c0.789,11.29,8.289,22.616,22.497,33.982
				c7.419,2.209,20.601,6.156,39.545,11.841c-3.63-6.63-6.828-15.196-9.59-25.695c-2.368-9.233-4.262-19.298-5.683-30.192
				C355.344,248.003,355.264,247.214,355.186,246.502 M627.512,157.109c-2.132-5.92-4.854-9.472-8.17-10.656
				c3,4.184,5.92,8.406,8.763,12.669C627.868,158.174,627.67,157.503,627.512,157.109 M529.002,316.359
				c-0.634-0.314-1.184-0.629-1.658-0.945c-0.081,0.157-0.159,0.316-0.238,0.474c0.317,0.314,0.75,0.671,1.305,1.063
				C528.567,316.637,528.764,316.438,529.002,316.359 M570.797,264.263c-1.263,1.341-2.486,2.764-3.67,4.264
				c1.026,0.472,1.815,1.143,2.368,2.013c0.078,0.078,0.235,0.235,0.474,0.474c0.157-1.579,0.317-3.078,0.475-4.5
				C570.521,265.724,570.64,264.975,570.797,264.263 M506.978,300.85c0.157-0.157,0.396-0.396,0.712-0.71
				c-0.396,0.235-0.749,0.393-1.066,0.474c0,0.079,0.04,0.118,0.118,0.118C506.82,300.731,506.898,300.771,506.978,300.85
				 M582.875,181.026c1.185,1.894,2.486,3.947,3.906,6.156c0.396,0.631,0.867,1.303,1.422,2.013c0.472,1.5,0.946,2.92,1.42,4.263
				c0.87,4.578,1.976,13.773,3.316,27.587c0.394,2.368,0.906,4.539,1.538,6.511c-0.867,2.289-1.973,4.144-3.314,5.566
				c-1.263,8.762-2.093,14.957-2.488,18.588c-1.894,16.736-2.84,25.14-2.84,25.221c-1.738,10.261-4.5,18.706-8.288,25.339
				c-2.446,4.341-5.92,8.05-10.42,11.128c-6.79,3.631-12.825,6.986-18.117,10.064c-0.314,0.238-1.184,1.066-2.604,2.488
				c10.264-1.501,21.627-5.171,34.101-11.013c14.838-6.868,29.009-19.772,42.505-38.717c13.58-19.022,20.17-40.891,19.775-65.595
				c-10.499-9.552-24.946-18.078-43.336-25.576C595.188,183.315,589.662,181.974,582.875,181.026z"/>
			<path fill="#0F1420" d="M452.632,348.685c-1.026-1.341-2.29-2.761-3.79-4.262c-2.841-2.921-4.814-5.012-5.92-6.276l8.88,10.895
				C452.04,348.884,452.315,348.764,452.632,348.685 M586.781,187.183c-1.42-2.209-2.722-4.262-3.906-6.156
				c-22.575-3.158-59.005-1.855-109.286,3.907c-40.889,4.578-75.581,12.313-104.077,23.207c-2.446,5.13-4.499,9.67-6.156,13.616
				c-0.711,4.182-1.658,8.21-2.842,12.078c-0.79,2.368-1.578,4.5-2.368,6.395c0.316,1.5,1.066,3.67,2.25,6.512
				c-0.869,0.236-1.698,0.354-2.487,0.354c-0.789,0-1.697-0.196-2.723-0.592c0.079,0.712,0.159,1.501,0.237,2.368
				c1.421,10.895,3.315,20.959,5.683,30.192c2.762,10.499,5.959,19.065,9.59,25.695c0.633,0.235,1.264,0.433,1.896,0.592
				c10.025,3.078,19.693,6.195,29.008,9.354c0.473-0.948,0.986-1.934,1.539-2.96c2.526,2.525,5.17,4.615,7.934,6.273
				c4.973,1.737,9.866,3.474,14.681,5.21c3.632,1.577,6.986,3.788,10.064,6.631c2.053-2.13,3.632-3.472,4.736-4.026l3.908,5.92
				c-1.027,0.634-2.605,1.422-4.736,2.368c0.631,0.712,1.224,1.462,1.776,2.25c0.157,0.238,0.315,0.475,0.473,0.71l0.947,1.066
				c1.105,1.265,3.079,3.355,5.92,6.276c1.5,1.501,2.764,2.921,3.79,4.262c1.105-0.553,2.248-1.066,3.433-1.54
				c0-0.236,0-0.435,0-0.592c-0.551-9.156,2.488-14.838,9.118-17.049c3.788-1.263,8.366-1.341,13.734-0.238
				c29.207-1.024,49.729-1.933,61.569-2.722c1.894-0.157,3.866-0.355,5.92-0.592c1.42-1.422,2.289-2.25,2.604-2.488
				c5.292-3.078,11.327-6.434,18.117-10.064c4.5-3.078,7.974-6.787,10.42-11.128c3.788-6.633,6.55-15.078,8.288-25.339
				c0-0.081,0.946-8.484,2.84-25.221c0.396-3.631,1.226-9.826,2.488-18.588c1.342-1.423,2.447-3.277,3.314-5.566
				c-0.632-1.973-1.145-4.143-1.538-6.511c-1.341-13.814-2.446-23.01-3.316-27.587c-0.474-1.343-0.948-2.764-1.42-4.263
				C587.648,188.486,587.177,187.814,586.781,187.183 M507.689,300.14c-0.316,0.314-0.555,0.553-0.712,0.71
				c-0.079-0.079-0.157-0.118-0.236-0.118c-0.078,0-0.118-0.039-0.118-0.118C506.94,300.532,507.294,300.375,507.689,300.14
				 M567.127,268.526c1.184-1.5,2.407-2.923,3.67-4.264c-0.157,0.712-0.275,1.461-0.354,2.25c-0.157,1.422-0.317,2.921-0.475,4.5
				c-0.238-0.238-0.396-0.396-0.474-0.474C568.942,269.669,568.153,268.998,567.127,268.526 M527.344,315.414
				c0.475,0.316,1.024,0.631,1.658,0.945c-0.238,0.079-0.435,0.277-0.592,0.592c-0.555-0.393-0.987-0.749-1.305-1.063
				C527.185,315.73,527.263,315.571,527.344,315.414z"/>
			<path fill="#355068" d="M317.179,295.047h-0.119c-82.014,15-144.096,46.256-186.247,93.776l-0.118,43.218
				c1.973,1.815,3.946,3.631,5.92,5.445c0.869,0.867,1.696,1.658,2.486,2.368l630.495-0.71c0.157-0.791,0.393-1.501,0.71-2.132
				c-28.495-64.49-80.433-109.405-155.817-134.741c-9.394,17.286-30.271,27.27-62.636,29.955c-0.396,0.08-0.749,0.117-1.066,0.117
				c-0.157,0-0.314,0-0.472,0c-3.316,0.238-6.789,0.396-10.42,0.475c-6.313,0.238-13.024,0.238-20.129,0
				c7.104,0.238,13.815,0.238,20.129,0c3.631-0.079,7.104-0.236,10.42-0.475c-3.316-0.078-6.554-0.157-9.71-0.235
				c-38.125-1.263-58.688-2.211-61.688-2.843c-5.368-1.103-9.946-1.024-13.734,0.238c-6.63,2.211-9.669,7.893-9.118,17.049
				c0,0.157,0,0.355,0,0.592c-0.079,0.474-0.197,1.146-0.354,2.014c-0.196,1.066-0.396,2.13-0.592,3.196
				c0,0.238-0.039,0.435-0.118,0.592c0.157,2.921,0.551,9.554,1.185,19.893c-0.634-10.339-1.027-16.972-1.185-19.893l-3.198-3.905
				l-8.88-10.895l-0.947-1.066c-0.157-0.235-0.315-0.472-0.473-0.71c-0.553-0.788-1.145-1.538-1.776-2.25
				c-1.264-1.577-2.565-2.997-3.908-4.262c-3.078-2.843-6.432-5.054-10.064-6.631c-2.447-0.078-4.815-0.157-7.104-0.235
				c-7.973-0.396-15.511-0.948-22.615-1.658c-3.868-0.396-7.657-0.83-11.366-1.302C353.646,315.689,331.15,307.361,317.179,295.047
				 M560.141,167.528c5.132,0.157,10.064,0.435,14.801,0.829c26.286,1.736,45.822,5.565,58.609,11.485
				c6.079,2.762,10.616,6.038,13.616,9.827c-5.921-10.262-12.273-20.444-19.063-30.548c-2.843-4.263-5.763-8.486-8.763-12.669
				c-24.312-33.784-53.677-66.425-88.092-97.919C482.391,3.777,439.922,2.119,403.849,43.56
				c-36.152,41.362-70.567,104.866-103.246,190.509c1.341-2.051,5.644-5.05,12.905-8.998c7.657-4.183,18.668-9.511,33.035-15.984
				c9.077-4.104,18.51-7.971,28.297-11.603c19.893-7.577,41.086-14.248,63.583-20.009
				C471.655,168.949,512.227,165.634,560.141,167.528z"/>
			<path fill="#293E50" d="M574.941,168.357c-4.736-0.395-9.669-0.672-14.801-0.829c-47.914-1.894-88.485,1.421-121.718,9.946
				c-22.497,5.762-43.69,12.432-63.583,20.009c-9.788,3.632-19.221,7.499-28.297,11.603c-14.367,6.473-25.378,11.801-33.035,15.984
				c-7.262,3.948-11.564,6.947-12.905,8.998c-0.79,1.105-1.421,2.29-1.896,3.553c-4.499,9.71-2.881,22.653,4.855,38.837
				c2.841,6.947,7.34,13.143,13.497,18.588h0.119c13.972,12.314,36.468,20.643,67.49,24.985c3.709,0.472,7.499,0.906,11.366,1.302
				c7.104,0.71,14.642,1.263,22.615,1.658c2.289,0.078,4.657,0.157,7.104,0.235c-4.815-1.736-9.708-3.473-14.681-5.21
				c-3.158-1.103-6.316-2.208-9.473-3.313c-9.315-3.159-18.983-6.276-29.008-9.354c-0.631-0.159-1.263-0.356-1.896-0.592
				c-18.944-5.685-32.126-9.632-39.545-11.841c-14.208-11.366-21.708-22.692-22.497-33.982c-0.474-5.683,0.71-10.854,3.552-15.511
				c0.434-0.671,0.869-1.341,1.302-2.012c0.474-0.632,0.987-1.265,1.539-1.895c2.526-3.001,5.763-5.802,9.709-8.408
				c12.708-8.761,27.628-16.418,44.756-22.969c28.497-10.893,63.188-18.629,104.077-23.207c50.281-5.763,86.711-7.065,109.286-3.907
				c6.787,0.947,12.313,2.289,16.576,4.025c18.39,7.498,32.837,16.023,43.336,25.576c0.395,24.705-6.195,46.573-19.775,65.595
				c-13.496,18.944-27.667,31.849-42.505,38.717c-12.474,5.842-23.837,9.512-34.101,11.013c-2.054,0.236-4.026,0.435-5.92,0.592
				c-11.841,0.789-32.362,1.697-61.569,2.722c2.999,0.632,23.563,1.58,61.688,2.843c3.156,0.078,6.394,0.157,9.71,0.235
				c0.157,0,0.314,0,0.472,0c0.317,0,0.671-0.037,1.066-0.117c32.364-2.686,53.242-12.669,62.636-29.955
				c11.604-6.633,24.785-32.956,39.547-78.976c1.973-10.972,1.184-19.733-2.368-26.285c-0.159-0.474-0.356-0.868-0.592-1.184
				c-0.553-0.948-1.185-1.776-1.895-2.487c-0.634-1.263-1.304-2.486-2.014-3.67c-3-3.789-7.537-7.065-13.616-9.827
				C620.764,173.922,601.228,170.094,574.941,168.357z"/>
		</g>
	</g>
	<g>
		<path id="Layer0_0_1_STROKES" fill="none" stroke="#000000" stroke-width="2" stroke-linecap="round" stroke-linejoin="round" d="
			M647.167,189.67c-3-3.789-7.537-7.065-13.616-9.827c-12.787-5.92-32.323-9.749-58.609-11.485
			c-4.736-0.395-9.669-0.672-14.801-0.829c-47.914-1.894-88.485,1.421-121.718,9.946c-22.497,5.762-43.69,12.432-63.583,20.009
			c-9.788,3.632-19.221,7.499-28.297,11.603c-14.367,6.473-25.378,11.801-33.035,15.984c-7.262,3.948-11.564,6.947-12.905,8.998
			c-0.79,1.105-1.421,2.29-1.896,3.553c-4.499,9.71-2.881,22.653,4.855,38.837c2.841,6.947,7.34,13.143,13.497,18.588h0.119
			c13.972,12.314,36.468,20.643,67.49,24.985c3.709,0.472,7.499,0.906,11.366,1.302c7.104,0.71,14.642,1.263,22.615,1.658
			c2.289,0.078,4.657,0.157,7.104,0.235c-4.815-1.736-9.708-3.473-14.681-5.21c-3.158-1.103-6.316-2.208-9.473-3.313
			c-9.315-3.159-18.983-6.276-29.008-9.354c-0.631-0.159-1.263-0.356-1.896-0.592c-18.944-5.685-32.126-9.632-39.545-11.841
			c-14.208-11.366-21.708-22.692-22.497-33.982c-0.474-5.683,0.71-10.854,3.552-15.511c0.434-0.671,0.869-1.341,1.302-2.012
			c0.474-0.632,0.987-1.265,1.539-1.895c2.526-3.001,5.763-5.802,9.709-8.408c12.708-8.761,27.628-16.418,44.756-22.969
			c28.497-10.893,63.188-18.629,104.077-23.207c50.281-5.763,86.711-7.065,109.286-3.907c6.787,0.947,12.313,2.289,16.576,4.025
			c18.39,7.498,32.837,16.023,43.336,25.576c0.395,24.705-6.195,46.573-19.775,65.595c-13.496,18.944-27.667,31.849-42.505,38.717
			c-12.474,5.842-23.837,9.512-34.101,11.013c-2.054,0.236-4.026,0.435-5.92,0.592c-11.841,0.789-32.362,1.697-61.569,2.722
			c2.999,0.632,23.563,1.58,61.688,2.843c3.156,0.078,6.394,0.157,9.71,0.235c0.157,0,0.314,0,0.472,0
			c0.317,0,0.671-0.037,1.066-0.117c32.364-2.686,53.242-12.669,62.636-29.955c11.604-6.633,24.785-32.956,39.547-78.976
			c1.973-10.972,1.184-19.733-2.368-26.285c-0.159-0.474-0.356-0.868-0.592-1.184c-0.553-0.948-1.185-1.776-1.895-2.487
			C648.547,192.077,647.877,190.854,647.167,189.67c-5.921-10.262-12.273-20.444-19.063-30.548
			c-2.843-4.263-5.763-8.486-8.763-12.669c-24.312-33.784-53.677-66.425-88.092-97.919C482.391,3.777,439.922,2.119,403.849,43.56
			c-36.152,41.362-70.567,104.866-103.246,190.509 M452.632,348.685c1.185,1.577,1.973,2.999,2.368,4.262
			c0.079-0.157,0.118-0.354,0.118-0.592c0.196-1.066,0.396-2.13,0.592-3.196c0.157-0.867,0.275-1.54,0.354-2.014
			c0-0.236,0-0.435,0-0.592c-0.551-9.156,2.488-14.838,9.118-17.049c3.788-1.263,8.366-1.341,13.734-0.238 M442.922,338.146
			c1.105,1.265,3.079,3.355,5.92,6.276c1.5,1.501,2.764,2.921,3.79,4.262 M451.802,349.041l3.198,3.905
			c0.157,2.921,0.551,9.554,1.185,19.893 M435.817,329.858c1.343,1.265,2.645,2.685,3.908,4.262c0.631,0.712,1.224,1.462,1.776,2.25
			c0.157,0.238,0.315,0.475,0.473,0.71l0.947,1.066l8.88,10.895 M425.753,323.228c3.632,1.577,6.986,3.788,10.064,6.631
			 M139.101,439.854l630.495-0.71 M770.306,437.013c-28.495-64.49-80.433-109.405-155.817-134.741 M317.06,295.047
			c-82.014,15-144.096,46.256-186.247,93.776l-0.118,43.218 M550.314,332.344c-3.316,0.238-6.789,0.396-10.42,0.475
			c-6.313,0.238-13.024,0.238-20.129,0"/>
	</g>
</g>
</svg>
