<svg xmlns="http://www.w3.org/2000/svg" width="900" height="450" viewBox="0 0 900 450"><g><radialGradient id="a" cx="125.908" cy="516.741" r="1506.533" gradientTransform="scale(1 -1) rotate(-5.054 -5321.098 -233.789)" gradientUnits="userSpaceOnUse"><stop offset="0" stop-color="#ebebf1"/><stop offset=".443" stop-color="#e6e6eb"/><stop offset=".682" stop-color="#999"/></radialGradient><path fill="url(#a)" d="M713.675 64.954c-9.964 2.049-20.28 8.268-30.953 18.656-10.67 10.317-18.62 21.094-23.85 32.33 10.884-5.3 21.872-12.967 32.965-23.002 10.813-10.105 18.091-19.434 21.838-27.984z"/><radialGradient id="b" cx="-216.559" cy="378.827" r="200.623" gradientTransform="matrix(-.6421 -.7666 -1.7533 1.4683 953.484 -537.942)" gradientUnits="userSpaceOnUse"><stop offset="0" stop-color="#ebebf1"/><stop offset=".443" stop-color="#e6e6eb"/><stop offset=".682" stop-color="#999"/></radialGradient><path fill="url(#b)" d="M659.932 72.904c-4.451 4.663-10.316 13.673-17.596 27.03L378.715 350.729c-23.956 21.906-50.95 30.811-80.983 26.711-27.277-3.675-50.032-16.148-68.264-37.419-18.727-21.905-25.828-45.19-21.306-69.852 4.522-25.158 20.917-46.358 49.183-63.601l-2.862 31.693c14.699-32.859 36.252-65.189 64.66-96.989l-66.567 44.732c-23.39 14.698-40.173 29.998-50.35 45.896-7.773 12.438-12.543 27.384-14.31 44.839-2.897 28.479 5.654 54.271 25.652 77.38 19.928 22.896 47.064 37.24 81.407 43.035 34.132 5.865 66.427-4.168 96.884-30.104l267.013-251.112c5.229-11.235 13.18-22.012 23.85-32.33 10.673-10.388 20.989-16.607 30.953-18.656l-17.067-16.218c-8.762 1.483-15.793 4.664-21.093 9.54-5.44 4.593-8.233 7.031-8.374 7.313-.284.215-2.686 2.653-7.209 7.317z"/></g><path fill="none" stroke="#000" stroke-width="2" stroke-linecap="round" stroke-linejoin="round" d="M658.872 115.939L391.859 367.052c-30.457 25.937-62.752 35.97-96.884 30.104-34.343-5.795-61.479-20.14-81.407-43.035-19.999-23.109-28.55-48.9-25.652-77.38 1.767-17.455 6.537-32.4 14.31-44.839 10.176-15.899 26.959-31.198 50.35-45.896l66.567-44.732c-28.408 31.8-49.96 64.13-64.66 96.989l2.862-31.693c-28.266 17.242-44.661 38.442-49.183 63.601-4.522 24.661 2.579 47.946 21.306 69.852 18.232 21.271 40.987 33.744 68.264 37.419 30.033 4.1 57.027-4.805 80.983-26.711L642.336 99.934c7.279-13.356 13.145-22.367 17.596-27.03 4.523-4.665 6.926-7.103 7.209-7.314.141-.283 2.934-2.721 8.374-7.313 5.3-4.876 12.331-8.057 21.093-9.54l17.067 16.218c-3.747 8.55-11.024 17.878-21.838 27.983-11.093 10.034-22.081 17.702-32.965 23.001 5.229-11.235 13.18-22.012 23.85-32.33 10.673-10.388 20.989-16.607 30.953-18.656"/></svg>