<svg xmlns="http://www.w3.org/2000/svg" width="900" height="450" viewBox="0 0 900 450"><g><radialGradient id="a" cx="-194.865" cy="377.063" r="65.235" gradientTransform="matrix(-.4589 -.8885 -1.0811 .5583 564.469 -64.245)" gradientUnits="userSpaceOnUse"><stop offset="0" stop-color="#4d4d4d"/><stop offset="1" stop-color="#1a1a1a"/></radialGradient><path fill="url(#a)" d="M332.322 365.501c6.871-18.843 7.154-36.906.85-54.189a81.205 81.205 0 0 0-4.038-9.243 80.782 80.782 0 0 0-7.225-11.688c-10.129-13.672-24.12-23.023-41.97-28.052-22.667-6.518-44.91-4.25-66.727 6.801-21.959 11.119-36.976 27.768-45.052 49.939-8.288 22.029-7.331 43.174 2.869 63.433 10.271 20.117 26.811 33.364 49.621 39.739 22.596 6.375 44.768 4.036 66.514-7.013 21.889-11.121 36.941-27.696 45.158-49.727z"/><path fill="#171717" d="M350.28 258.717l3.506 7.118 17 33.895 3.082 5.845c3.895 2.339 6.233 1.098 7.012-3.719l-23.907-46.326c-3.896-1.346-6.127-.283-6.693 3.187z"/><linearGradient id="b" gradientUnits="userSpaceOnUse" x1="306.274" y1="111.585" x2="324.71" y2="65.152" gradientTransform="matrix(1 0 0 -1 29.04 379.34)"><stop offset="0"/><stop offset=".51" stop-color="#444"/><stop offset="1" stop-color="#232323"/></linearGradient><path fill="url(#b)" d="M353.786 265.835c-9.279 10.979-20.401 18.241-33.364 21.781l1.488 2.765a80.728 80.728 0 0 1 7.225 11.688 81.383 81.383 0 0 1 4.038 9.243l.107.212c11.617-7.649 24.12-11.58 37.507-11.794l-17.001-33.895z"/><radialGradient id="c" cx="-335.322" cy="494.766" r="32.089" gradientTransform="matrix(-.8924 .4512 2.1301 4.1981 -684.633 -1796.695)" gradientUnits="userSpaceOnUse"><stop offset="0" stop-color="#919191"/><stop offset=".62" stop-color="#555"/><stop offset=".98" stop-color="#848484"/></radialGradient><path fill="url(#c)" d="M634.826 39.09a36.117 36.117 0 0 1-.319-2.338v.212c.07.71.179 1.418.319 2.126m.107-12.963c-.212.425-.389.992-.531 1.701-.142.354-.212.779-.212 1.275l.317 7.649c.07.708.179 1.488.319 2.338 1.7 6.447 3.399 12.893 5.102 19.338 6.445 20.613 16.54 44.414 30.282 71.402 13.599 26.988 26.811 49.23 39.631 66.727 7.083 9.704 12.965 16.399 17.638 20.083l1.488 1.063c.284.211.604.424.957.637.07.07.178.141.319.212.637.354 1.238.637 1.806.85l1.913.425a5.83 5.83 0 0 0 1.594-.213l.212-.212c4.462-2.338 3.366-13.849-3.294-34.533-6.519-20.542-16.612-44.272-30.282-71.19-13.672-27.13-26.918-49.408-39.739-66.833-12.75-17.354-21.356-24.898-25.82-22.632a2.635 2.635 0 0 0-1.38 1.381 1.316 1.316 0 0 1-.214.32c-.001.071-.034.142-.106.212m-.532 1.701c.143-.708.319-1.275.531-1.701-.212.355-.389.814-.531 1.382v.319z"/><linearGradient id="d" gradientUnits="userSpaceOnUse" x1="446.881" y1="280.262" x2="544.209" y2="81.567" gradientTransform="matrix(1 0 0 -1 29.04 379.34)"><stop offset="0" stop-color="#1a1a1a"/><stop offset=".486" stop-color="#aaa"/><stop offset=".667" stop-color="#959595"/><stop offset="1" stop-color="#232323"/></linearGradient><path fill="url(#d)" d="M634.401 27.828v-.318c-39.951 85.499-130.939 160.654-272.965 225.469l-4.462 2.551 23.907 46.326c136.856-74.662 253.204-102.5 349.043-83.515a11.857 11.857 0 0 1-.957-.637l-1.488-1.063c-4.673-3.684-10.555-10.378-17.638-20.083-12.82-17.497-26.032-39.739-39.631-66.727-13.742-26.989-23.837-50.789-30.282-71.402-1.702-6.446-3.401-12.892-5.102-19.338a21.934 21.934 0 0 1-.319-2.125v-.212l-.317-7.649c-.001-.498.07-.923.211-1.277z"/></g><path fill="none" stroke="#666" stroke-width="2" stroke-linecap="round" stroke-linejoin="round" d="M635.038 25.916c.07-.072.142-.178.214-.32M321.91 290.381l-1.488-2.765m12.857 23.907l-.107-.212"/><path fill="none" stroke="#999" stroke-width="2" stroke-linecap="round" stroke-linejoin="round" d="M634.507 36.965a22.2 22.2 0 0 0 .319 2.125"/><path fill="none" stroke="#000" stroke-width="2" stroke-linecap="round" stroke-linejoin="round" d="M320.422 287.616c12.963-3.54 24.084-10.802 33.364-21.781l-3.506-7.118c.566-3.47 2.797-4.533 6.694-3.188l4.462-2.551m9.35 46.751l3.082 5.845c3.895 2.339 6.233 1.098 7.012-3.719l-23.907-46.326m13.813 44.2c-13.387.214-25.89 4.145-37.507 11.794m-.107-.211c6.304 17.283 6.021 35.347-.85 54.189-8.217 22.031-23.269 38.606-45.158 49.728-21.747 11.049-43.918 13.388-66.514 7.013-22.81-6.375-39.349-19.622-49.621-39.739-10.2-20.259-11.157-41.403-2.869-63.433 8.076-22.172 23.092-38.82 45.052-49.939 21.817-11.051 44.06-13.318 66.727-6.801 17.851 5.028 31.841 14.38 41.97 28.052a80.728 80.728 0 0 1 7.225 11.688 80.96 80.96 0 0 1 4.038 9.242zm20.614-45.477l17 33.895"/><path fill="none" stroke="#3E3E3E" stroke-width="2" stroke-linecap="round" stroke-linejoin="round" d="M634.933 26.127c-.212.425-.389.992-.531 1.701-.142.354-.212.779-.212 1.275l.317 7.649c.07.708.179 1.488.319 2.338 1.7 6.447 3.399 12.893 5.102 19.338 6.445 20.613 16.54 44.414 30.282 71.402 13.599 26.988 26.811 49.23 39.631 66.727 7.083 9.704 12.965 16.399 17.638 20.083l1.488 1.063m.957.637c.07.07.178.141.319.212.637.354 1.238.637 1.806.85l1.913.425a5.83 5.83 0 0 0 1.594-.213l.212-.212c4.462-2.338 3.366-13.849-3.294-34.533-6.519-20.542-16.612-44.272-30.282-71.19-13.672-27.13-26.918-49.408-39.739-66.833-12.75-17.354-21.356-24.898-25.82-22.632a2.635 2.635 0 0 0-1.38 1.381c-.144.142-.247.32-.319.531M361.436 252.979c142.026-64.815 233.014-139.971 272.965-225.47m95.523 190.831c-95.84-18.985-212.188 8.853-349.043 83.515"/></svg>