<?xml version="1.0" encoding="utf-8"?>
<!-- Generator: Adobe Illustrator 16.0.0, SVG Export Plug-In . SVG Version: 6.00 Build 0)  -->
<!DOCTYPE svg PUBLIC "-//W3C//DTD SVG 1.1//EN" "http://www.w3.org/Graphics/SVG/1.1/DTD/svg11.dtd">
<svg version="1.1" id="Layer_1" xmlns="http://www.w3.org/2000/svg" xmlns:xlink="http://www.w3.org/1999/xlink" x="0px" y="0px"
	 width="900px" height="450px" viewBox="0 0 900 450" enable-background="new 0 0 900 450" xml:space="preserve">
<g transform="matrix( 1, 0, 0, 1, 0,0) ">
	<g>
		<g id="Layer0_0_FILL">
			
				<radialGradient id="SVGID_1_" cx="-194.8647" cy="377.0625" r="65.2353" gradientTransform="matrix(-0.4589 -0.8885 -1.0811 0.5583 564.4688 -64.2451)" gradientUnits="userSpaceOnUse">
				<stop  offset="0" style="stop-color:#4D4D4D"/>
				<stop  offset="1" style="stop-color:#1A1A1A"/>
			</radialGradient>
			<path fill="url(#SVGID_1_)" d="M332.322,365.501c6.871-18.843,7.154-36.906,0.85-54.189c-1.133-3.116-2.479-6.196-4.038-9.243
				c-2.125-4.179-4.533-8.076-7.225-11.688c-10.129-13.672-24.12-23.023-41.97-28.052c-22.667-6.518-44.91-4.25-66.727,6.801
				c-21.959,11.119-36.976,27.768-45.052,49.939c-8.288,22.029-7.331,43.174,2.869,63.433
				c10.271,20.117,26.811,33.364,49.621,39.739c22.596,6.375,44.768,4.036,66.514-7.013
				C309.053,404.107,324.105,387.532,332.322,365.501z"/>
			<path fill="#171717" d="M350.28,258.717l3.506,7.118l17,33.895l3.082,5.845c3.895,2.339,6.233,1.098,7.012-3.719l-23.907-46.326
				C353.077,254.184,350.846,255.247,350.28,258.717z"/>
			
				<linearGradient id="SVGID_2_" gradientUnits="userSpaceOnUse" x1="306.2744" y1="111.585" x2="324.7096" y2="65.1517" gradientTransform="matrix(1 0 0 -1 29.04 379.3398)">
				<stop  offset="0" style="stop-color:#000000"/>
				<stop  offset="0.5098" style="stop-color:#444444"/>
				<stop  offset="1" style="stop-color:#232323"/>
			</linearGradient>
			<path fill="url(#SVGID_2_)" d="M353.786,265.835c-9.279,10.979-20.401,18.241-33.364,21.781l1.488,2.765
				c2.692,3.611,5.1,7.509,7.225,11.688c1.559,3.047,2.904,6.127,4.038,9.243l0.107,0.212c11.617-7.649,24.12-11.58,37.507-11.794
				L353.786,265.835z"/>
			
				<radialGradient id="SVGID_3_" cx="-335.3218" cy="494.7656" r="32.0888" gradientTransform="matrix(-0.8924 0.4512 2.1301 4.1981 -684.6328 -1796.6953)" gradientUnits="userSpaceOnUse">
				<stop  offset="0" style="stop-color:#919191"/>
				<stop  offset="0.6196" style="stop-color:#555555"/>
				<stop  offset="0.9804" style="stop-color:#848484"/>
			</radialGradient>
			<path fill="url(#SVGID_3_)" d="M634.826,39.09c-0.141-0.85-0.249-1.629-0.319-2.338c0,0.071,0,0.142,0,0.212
				C634.577,37.674,634.686,38.382,634.826,39.09 M634.933,26.127c-0.212,0.425-0.389,0.992-0.531,1.701
				c-0.142,0.354-0.212,0.779-0.212,1.275c0.105,2.549,0.212,5.1,0.317,7.649c0.07,0.708,0.179,1.488,0.319,2.338
				c1.7,6.447,3.399,12.893,5.102,19.338c6.445,20.613,16.54,44.414,30.282,71.402c13.599,26.988,26.811,49.23,39.631,66.727
				c7.083,9.704,12.965,16.399,17.638,20.083l1.488,1.063c0.284,0.211,0.604,0.424,0.957,0.637c0.07,0.07,0.178,0.141,0.319,0.212
				c0.637,0.354,1.238,0.637,1.806,0.85l1.913,0.425c0.564,0,1.096-0.072,1.594-0.213l0.212-0.212
				c4.462-2.338,3.366-13.849-3.294-34.533c-6.519-20.542-16.612-44.272-30.282-71.19c-13.672-27.13-26.918-49.408-39.739-66.833
				c-12.75-17.354-21.356-24.898-25.82-22.632c-0.637,0.283-1.096,0.744-1.38,1.381c-0.072,0.142-0.144,0.248-0.214,0.32
				C635.038,25.986,635.005,26.057,634.933,26.127 M634.401,27.828c0.143-0.708,0.319-1.275,0.531-1.701
				c-0.212,0.355-0.389,0.814-0.531,1.382C634.401,27.58,634.401,27.686,634.401,27.828z"/>
			
				<linearGradient id="SVGID_4_" gradientUnits="userSpaceOnUse" x1="446.8809" y1="280.2617" x2="544.2092" y2="81.5674" gradientTransform="matrix(1 0 0 -1 29.04 379.3398)">
				<stop  offset="0" style="stop-color:#1A1A1A"/>
				<stop  offset="0.4863" style="stop-color:#AAAAAA"/>
				<stop  offset="0.6667" style="stop-color:#959595"/>
				<stop  offset="1" style="stop-color:#232323"/>
			</linearGradient>
			<path fill="url(#SVGID_4_)" d="M634.401,27.828c0-0.142,0-0.248,0-0.318c-39.951,85.499-130.939,160.654-272.965,225.469
				l-4.462,2.551l23.907,46.326c136.856-74.662,253.204-102.5,349.043-83.515c-0.354-0.213-0.673-0.426-0.957-0.637l-1.488-1.063
				c-4.673-3.684-10.555-10.378-17.638-20.083c-12.82-17.497-26.032-39.739-39.631-66.727
				c-13.742-26.989-23.837-50.789-30.282-71.402c-1.702-6.446-3.401-12.892-5.102-19.338c-0.141-0.708-0.249-1.417-0.319-2.125
				c0-0.07,0-0.141,0-0.212c-0.105-2.549-0.212-5.1-0.317-7.649C634.189,28.607,634.26,28.182,634.401,27.828z"/>
		</g>
	</g>
	<g>
		<path id="Layer0_0_1_STROKES" fill="none" stroke="#666666" stroke-width="2" stroke-linecap="round" stroke-linejoin="round" d="
			M635.038,25.916c0.07-0.072,0.142-0.178,0.214-0.32 M321.91,290.381l-1.488-2.765 M333.279,311.523l-0.107-0.212"/>
	</g>
	<g>
		<path id="Layer0_0_2_STROKES" fill="none" stroke="#999999" stroke-width="2" stroke-linecap="round" stroke-linejoin="round" d="
			M634.507,36.965c0.07,0.709,0.179,1.417,0.319,2.125"/>
	</g>
	<g>
		<path id="Layer0_0_3_STROKES" fill="none" stroke="#000000" stroke-width="2" stroke-linecap="round" stroke-linejoin="round" d="
			M320.422,287.616c12.963-3.54,24.084-10.802,33.364-21.781l-3.506-7.118c0.566-3.47,2.797-4.533,6.694-3.188l4.462-2.551
			 M370.786,299.729l3.082,5.845c3.895,2.339,6.233,1.098,7.012-3.719l-23.907-46.326 M370.786,299.729
			c-13.387,0.214-25.89,4.145-37.507,11.794 M333.172,311.312c6.304,17.283,6.021,35.347-0.85,54.189
			c-8.217,22.031-23.269,38.606-45.158,49.728c-21.747,11.049-43.918,13.388-66.514,7.013c-22.81-6.375-39.349-19.622-49.621-39.739
			c-10.2-20.259-11.157-41.403-2.869-63.433c8.076-22.172,23.092-38.82,45.052-49.939c21.817-11.051,44.06-13.318,66.727-6.801
			c17.851,5.028,31.841,14.38,41.97,28.052c2.692,3.611,5.1,7.509,7.225,11.688C330.693,305.115,332.039,308.195,333.172,311.312z
			 M353.786,265.835l17,33.895"/>
	</g>
	<g>
		<path id="Layer0_0_4_STROKES" fill="none" stroke="#3E3E3E" stroke-width="2" stroke-linecap="round" stroke-linejoin="round" d="
			M634.933,26.127c-0.212,0.425-0.389,0.992-0.531,1.701c-0.142,0.354-0.212,0.779-0.212,1.275c0.105,2.549,0.212,5.1,0.317,7.649
			c0.07,0.708,0.179,1.488,0.319,2.338c1.7,6.447,3.399,12.893,5.102,19.338c6.445,20.613,16.54,44.414,30.282,71.402
			c13.599,26.988,26.811,49.23,39.631,66.727c7.083,9.704,12.965,16.399,17.638,20.083l1.488,1.063 M729.924,218.34
			c0.07,0.07,0.178,0.141,0.319,0.212c0.637,0.354,1.238,0.637,1.806,0.85l1.913,0.425c0.564,0,1.096-0.072,1.594-0.213l0.212-0.212
			c4.462-2.338,3.366-13.849-3.294-34.533c-6.519-20.542-16.612-44.272-30.282-71.19c-13.672-27.13-26.918-49.408-39.739-66.833
			c-12.75-17.354-21.356-24.898-25.82-22.632c-0.637,0.283-1.096,0.744-1.38,1.381c-0.144,0.142-0.247,0.32-0.319,0.531
			 M361.436,252.979C503.462,188.164,594.45,113.008,634.401,27.509 M729.924,218.34c-95.84-18.985-212.188,8.853-349.043,83.515"/>
	</g>
</g>
</svg>
