<svg xmlns="http://www.w3.org/2000/svg" width="900" height="450" viewBox="0 0 900 450"><path fill="#F2F2F2" d="M714.977 96.307c-24.72-19.494-51.017-34.551-78.891-45.169H422.929c-27.957 10.618-54.212 25.675-78.767 45.169 145.174 8.296 268.779 8.296 370.815 0m127.297 212.784a476.26 476.26 0 0 0-13.688-49.523c-4.479-12.526-9.25-24.516-14.31-35.962-217.844 15.761-407.648 15.761-569.414 0-5.227 11.447-9.997 23.436-14.31 35.962a476.149 476.149 0 0 0-13.688 49.523c205.567 15.929 414.038 15.929 625.41 0M636.086 51.138c-33.183-12.526-68.729-18.79-106.641-18.79-37.91 0-73.417 6.263-106.516 18.79h213.157z"/><path fill="#F8F8F8" d="M814.277 223.605c-12.691-27.625-27.916-52.388-45.667-74.288-173.463 14.269-332.865 14.269-478.204 0-17.919 21.9-33.099 46.663-45.543 74.288 161.766 15.761 351.571 15.761 569.414 0m38.201 180.678c-.083-32.601-3.482-64.332-10.203-95.192-211.372 15.929-419.843 15.929-625.409 0-6.72 30.86-10.122 62.592-10.204 95.192 212.452 16.758 427.724 16.758 645.816 0m-94.571-267.658c-13.771-15.015-28.081-28.455-42.931-40.317-102.035 8.296-225.641 8.296-370.814 0-15.015 11.863-29.325 25.303-42.93 40.317a218.808 218.808 0 0 0-10.826 12.693c145.339 14.269 304.741 14.269 478.204 0a390.72 390.72 0 0 0-10.703-12.693z"/><path fill="none" stroke="#7C7C7C" stroke-width="2" stroke-linecap="round" stroke-linejoin="round" d="M714.977 96.307c14.85 11.863 29.16 25.303 42.931 40.317a393.075 393.075 0 0 1 10.703 12.693c17.751 21.9 32.976 46.663 45.667 74.288 5.06 11.447 9.83 23.436 14.31 35.962a476.645 476.645 0 0 1 13.688 49.523c6.721 30.86 10.12 62.592 10.203 95.192-218.092 16.758-433.364 16.758-645.816 0 .083-32.601 3.484-64.332 10.204-95.192a476.012 476.012 0 0 1 13.688-49.523c4.313-12.526 9.083-24.516 14.31-35.962 12.444-27.625 27.624-52.388 45.543-74.288a219.143 219.143 0 0 1 10.826-12.693c13.605-15.015 27.915-28.455 42.93-40.317 24.555-19.494 50.811-34.551 78.767-45.169 33.099-12.526 68.606-18.79 106.516-18.79 37.911 0 73.458 6.263 106.641 18.79 27.872 10.618 54.169 25.675 78.889 45.169-102.035 8.296-225.641 8.296-370.814 0m78.766-45.169h213.157M244.863 223.605c161.766 15.761 351.57 15.761 569.414 0m27.997 85.486c-211.372 15.929-419.843 15.929-625.409 0M768.61 149.317c-173.463 14.269-332.865 14.269-478.204 0"/><g><path fill="none" stroke="#7C7C7C" stroke-width="2" stroke-linecap="round" stroke-linejoin="round" d="M695.192 154.418l-8.088-56.12m-187.897-47.16l5.85-18.167M479.92 159.894l7.592-58.36m103.28 57.613l-1.493-56.866m-42.557.124l-2.115-51.267m88.722 50.147l-9.581-54.626m-57.49 4.479l-4.231-17.296m-7.59 287.32l.124 95.564m23.519-95.814l-1.12-86.108m250.611 75.782l-13.313-86.981m-133.644 94.32l3.484 96.065m24.764-96.935l-5.476-86.856m99.174 81.504l7.716 95.815M616.799 233.932l-2.116-75.407m-105.644 77.149l4.229-75.78m222.615 68.688l-10.824-76.03m-363.352 2.738l11.075-57.116m-78.643 216.018l-11.448 95.192m132.523-89.592l-5.474 95.442m43.552-94.82l6.719-85.486m-131.403 81.381l11.572-85.611m45.295 2.738l8.088-76.652m-117.591 69.807l14.434-77.273m162.512-48.033l8.586-50.147"/></g><g><path fill="#F2F2F2" d="M212.136 322.28l-30.984.873c2.571 11.446 4.065 24.802 4.479 40.066.498 12.028.208 27.417-.872 46.165h84.616c1.66-34.259 1.66-63.668 0-88.223l-57.239 1.119m25.509-88.844h-57.24c17.67 9.539 28.247 39.153 31.731 88.845l57.24-1.118c-3.649-48.946-14.226-78.188-31.731-87.727z"/><path fill="#F8F8F8" d="M118.437 324.273c.83 25.465.705 53.838-.373 85.111h66.696c1.079-18.748 1.37-34.137.872-46.165-.415-15.265-1.908-28.62-4.479-40.066l-62.716 1.12z"/><path fill="#B5B5B5" d="M87.453 247.124c-1.576.911-3.028 2.323-4.355 4.229-12.527 16.76-15.721 69.436-9.582 158.032h35.339c.913-28.785 1.038-54.917.375-78.394-.084-6.718-.249-12.444-.499-17.171-1.659-30.28-6.014-50.272-13.065-59.979-.249-.33-.456-.622-.622-.87-.083-.165-.167-.247-.249-.247-2.24-2.823-4.688-4.689-7.342-5.6z"/><path fill="#FBFCFF" d="M97.781 239.159c.165 0 .332.124.497.372.167.333.416.622.747.872 10.038 10.701 16.218 32.478 18.54 65.329.499 5.06.789 11.24.872 18.541l62.715-1.12 30.984-.873c-3.484-49.691-14.061-79.306-31.731-88.845H87.453c3.816.913 7.258 2.82 10.328 5.724l.497-3.361-.497 3.361z"/><g><path fill="none" stroke="#7C7C7C" stroke-width="2" stroke-linecap="round" stroke-linejoin="round" d="M269.376 321.162c-3.649-48.945-14.226-78.188-31.731-87.727h-57.24c17.67 9.539 28.247 39.153 31.731 88.845l57.24-1.118c1.66 24.555 1.66 53.964 0 88.223h13.315M87.453 233.436c-2.241.912-4.314 2.406-6.222 4.479-17.67 18.25-22.191 75.407-13.564 171.47h5.849c-6.139-88.597-2.945-141.272 9.582-158.032 1.327-1.905 2.779-3.317 4.355-4.229 2.654.911 5.102 2.777 7.341 5.6.083 0 .167.082.249.247.167.248.373.54.622.87 7.052 9.707 11.407 29.699 13.065 59.979.25 4.727.415 10.453.499 17.171.664 23.477.538 49.608-.375 78.394h9.209c1.078-31.273 1.203-59.646.373-85.111-.083-7.301-.373-13.481-.872-18.541-2.322-32.852-8.502-54.628-18.54-65.329a2.472 2.472 0 0 1-.747-.872c-.166-.248-.332-.372-.497-.372-3.069-2.905-6.511-4.812-10.327-5.724h92.952m-82.624 5.723l.497-3.361M73.516 409.385h35.339m103.281-87.105l-30.984.873c2.571 11.446 4.065 24.802 4.479 40.066.498 12.028.208 27.417-.872 46.165h84.616m-150.938-85.111l62.715-1.12m-63.088 86.232h66.696"/></g></g></svg>