<svg xmlns="http://www.w3.org/2000/svg" xmlns:xlink="http://www.w3.org/1999/xlink" preserveAspectRatio="none" width="800" height="600" viewBox="0 0 800 600"><defs><g id="a"><path fill="#F2F2F2" d="M263.85 61.05q-14.9-11.75-31.7-18.15H146.5q-16.85 6.4-31.65 18.15 87.5 5 149 0m51.15 85.5q-2.2-10.05-5.5-19.9-2.7-7.55-5.75-14.45-131.3 9.5-228.8 0-3.15 6.9-5.75 14.45-3.3 9.85-5.5 19.9 123.9 9.6 251.3 0M232.15 42.9q-20-7.55-42.85-7.55t-42.8 7.55h85.65z"/><path fill="#F8F8F8" d="M303.75 112.2q-7.65-16.65-18.35-29.85-104.55 8.6-192.15 0-10.8 13.2-18.3 29.85 97.5 9.5 228.8 0m15.35 72.6q-.05-19.65-4.1-38.25-127.4 9.6-251.3 0-4.05 18.6-4.1 38.25 128.05 10.1 259.5 0m-38-107.55q-8.3-9.05-17.25-16.2-61.5 5-149 0-9.05 7.15-17.25 16.2-2.3 2.5-4.35 5.1 87.6 8.6 192.15 0-2.1-2.6-4.3-5.1z"/></g><g id="d"><path fill="#F2F2F2" d="M61.8 151.85l-12.45.35q1.55 6.9 1.8 16.1.3 7.25-.35 18.55h34q1-20.65 0-35.45l-23 .45m10.25-35.7h-23q10.65 5.75 12.75 35.7l23-.45q-2.2-29.5-12.75-35.25z"/><path fill="#F8F8F8" d="M24.15 152.65q.5 15.35-.15 34.2h26.8q.65-11.3.35-18.55-.25-9.2-1.8-16.1l-25.2.45z"/><path fill="#B5B5B5" d="M11.7 121.65q-.95.55-1.75 1.7-7.55 10.1-3.85 63.5h14.2q.55-17.35.15-31.5-.05-4.05-.2-6.9-1-18.25-5.25-24.1-.15-.2-.25-.35-.05-.1-.1-.1-1.35-1.7-2.95-2.25z"/><path fill="#FBFCFF" d="M15.85 118.45q.1 0 .2.15.1.2.3.35 6.05 6.45 7.45 26.25.3 3.05.35 7.45l25.2-.45 12.45-.35q-2.1-29.95-12.75-35.7H11.7q2.3.55 4.15 2.3l.2-1.35-.2 1.35z"/></g><path id="b" stroke="#7C7C7C" stroke-width="2" stroke-linejoin="round" stroke-linecap="round" fill="none" d="M263.85 61.05q8.95 7.15 17.25 16.2 2.2 2.5 4.3 5.1 10.7 13.2 18.35 29.85 3.05 6.9 5.75 14.45 3.3 9.85 5.5 19.9 4.05 18.6 4.1 38.25-131.45 10.1-259.5 0 .05-19.65 4.1-38.25 2.2-10.05 5.5-19.9 2.6-7.55 5.75-14.45 7.5-16.65 18.3-29.85 2.05-2.6 4.35-5.1 8.2-9.05 17.25-16.2 14.8-11.75 31.65-18.15 19.95-7.55 42.8-7.55 22.85 0 42.85 7.55 16.8 6.4 31.7 18.15-61.5 5-149 0M146.5 42.9h85.65m-157.2 69.3q97.5 9.5 228.8 0M315 146.55q-127.4 9.6-251.3 0m221.7-64.2q-104.55 8.6-192.15 0"/><path id="c" stroke="#7C7C7C" stroke-width="2" stroke-linejoin="round" stroke-linecap="round" fill="none" d="M255.9 84.4l-3.25-22.55m-75.5-18.95l2.35-7.3m-10.1 51l3.05-23.45m41.5 23.15l-.6-22.85m-17.1.05l-.85-20.6m35.65 20.15L227.2 41.1m-23.1 1.8l-1.7-6.95m-3.05 115.45l.05 38.4m9.45-38.5l-.45-34.6m100.7 30.45l-5.35-34.95m-53.7 37.9l1.4 38.6m9.95-38.95l-2.2-34.9m39.85 32.75l3.1 38.5m-77.75-69.75l-.85-30.3m-42.45 31l1.7-30.45m89.45 27.6l-4.35-30.55m-146 1.1l4.45-22.95m-31.6 86.8l-4.6 38.25m53.25-36l-2.2 38.35m17.5-38.1l2.7-34.35m-52.8 32.7l4.65-34.4m18.2 1.1l3.25-30.8M87.45 113.4l5.8-31.05m65.3-19.3L162 42.9"/><path id="e" stroke="#7C7C7C" stroke-width="2" stroke-linejoin="round" stroke-linecap="round" fill="none" d="M84.8 151.4q-2.2-29.5-12.75-35.25h-23q10.65 5.75 12.75 35.7l23-.45q1 14.8 0 35.45h5.35m-78.45-70.7q-1.35.55-2.5 1.8-10.65 11-5.45 68.9H6.1q-3.7-53.4 3.85-63.5.8-1.15 1.75-1.7 1.6.55 2.95 2.25.05 0 .1.1.1.15.25.35 4.25 5.85 5.25 24.1.15 2.85.2 6.9.4 14.15-.15 31.5H24q.65-18.85.15-34.2-.05-4.4-.35-7.45-1.4-19.8-7.45-26.25-.2-.15-.3-.35-.1-.15-.2-.15-1.85-1.75-4.15-2.3h37.35m-33.2 2.3l.2-1.35M6.1 186.85h14.2m41.5-35l-12.45.35q1.55 6.9 1.8 16.1.3 7.25-.35 18.55h34m-60.65-34.2l25.2-.45M24 186.85h26.8"/></defs><g><use xlink:href="#a"/><use xlink:href="#b"/></g><use xlink:href="#c"/><g><use xlink:href="#d"/><use xlink:href="#e"/></g></svg>