<svg xmlns="http://www.w3.org/2000/svg" width="900" height="450" viewBox="0 0 900 450"><path fill="#ECCFC1" d="M579.723 283.972c-18.77-3.781-28.559-2.801-29.369 2.938 12.49 2.901 28.999 12.187 49.521 27.85 2.972-13.572-3.746-23.834-20.152-30.788m-38.786-139.855c.945 17.824-.036 29.402-2.938 34.736 13.772 12.017 35.141 8.878 64.104-9.418-1.958-5.672-2.767-11.612-2.429-17.824.067-1.013 1.181-7.494 3.341-19.444-.876 2.768-.845 2.465.101-.911.542-2.094 1.418-5.267 2.635-9.52-2.363 3.308-4.896 6.313-7.596 9.014-8.305 8.574-17.926 14.279-28.862 17.114-10.737 2.43-20.188 1.181-28.356-3.747m68.254-57.724c-1.08-8.44-3.611-15.63-7.595-21.572-7.898-13.232-19.578-19.309-35.04-18.229-17.216 1.148-27.175 5.941-29.875 14.38-2.633 8.305-4.051 13.334-4.252 15.09-.675 5.401-.372 10.094.911 14.076a86.476 86.476 0 0 0-2.431 9.317l10.734 12.457c1.418-.945 3.139-1.688 5.164-2.228l2.938 1.417 3.646-1.417c2.162.81 4.322 1.89 6.481 3.24 1.485 1.081 2.702 2.127 3.646 3.14.339.337.644.709.912 1.114-.135.135-.237.27-.305.405a.665.665 0 0 1 .305.304c-2.903 3.781-7.562 5.671-13.977 5.671-6.479 0-10.633-2.16-12.455-6.481 0-.135.034-.27.101-.405 0-.135-.033-.236-.101-.304a4.26 4.26 0 0 1 .405-1.215c.135-.203.303-.405.507-.607l-9.014-9.723c-1.216 8.373-.845 16.069 1.113 23.091a44.182 44.182 0 0 0 6.482 13.874 23.704 23.704 0 0 0 3.443 2.33c8.169 4.928 17.619 6.177 28.355 3.747 10.937-2.835 20.558-8.54 28.862-17.114 2.7-2.701 5.232-5.706 7.596-9.014.202-.404.439-.81.708-1.215.945-4.118 1.689-8.034 2.228-11.747 1.015-8.238 1.185-15.699.508-22.382m-23.087-2.735c-5.064 3.511-8.88 5.03-11.445 4.557-2.431-.608-4.962-2.633-7.595-6.076 1.958-1.688 5.2-2.397 9.722-2.127 4.525.271 7.63 1.485 9.318 3.646m-36.965 3.139h-.101l-2.33 1.418c-1.08.27-2.16.304-3.239.101-2.025-.203-4.526-1.35-7.495-3.442 1.215-2.701 3.848-4.187 7.898-4.457 4.118-.27 6.887.439 8.305 2.126a38.79 38.79 0 0 1-1.418 2.431c-.134.135-.237.236-.305.304-.134.135-.235.27-.303.405a9.8 9.8 0 0 1 1.215-1.013l3.038-2.127-3.038 2.127a9.714 9.714 0 0 0-1.215 1.013c-.271.337-.54.641-.811.911l-.201.203v.102c-.405.674-1.248 1.553-2.531 2.632-1.62 1.485-2.803 2.633-3.545 3.444-.945.944-1.248 2.295-.912 4.051.406 1.823 1.385 3.24 2.938 4.252 3.105.878 7.696 1.013 13.772.406 4.388-2.565 4.118-5.739-.811-9.52 4.929 3.781 5.198 6.955.811 9.52-6.076.607-10.667.473-13.772-.406-1.553-1.013-2.531-2.43-2.938-4.252-.336-1.755-.033-3.106.912-4.051.742-.811 1.925-1.958 3.545-3.444 1.283-1.08 2.126-1.958 2.531-2.632v-.102m2.835-11.241c-6.751-2.363-12.524-2.363-17.317 0 4.792-2.363 10.566-2.363 17.317 0m.71 20.558c1.351.473 2.193 1.316 2.531 2.532-.338-1.216-1.181-2.059-2.531-2.532m-6.684 0c1.08.337 1.923 1.249 2.532 2.734-.609-1.485-1.452-2.397-2.532-2.734m53.57-1.822c1.352 7.696-1.146 15.46-7.492 23.292 6.346-7.832 8.844-15.597 7.492-23.292m-32.507-18.635c7.696-3.848 15.63-3.848 23.799 0-8.169-3.848-16.102-3.848-23.799 0z"/><path fill="#899EE2" d="M470.755 263.413a410.714 410.714 0 0 0-43.243-5.974 404.13 404.13 0 0 0-37.368-1.519c-13.166 0-26.433.674-39.8 2.025-61.843 12.085-114.503 26.431-157.983 43.04-8.979 2.971-17.114 6.784-24.406 11.442V418.56h63.091c6.886 1.958 14.415 1.958 22.583 0h3.038c4.457.269 13.2 1.315 26.229 3.139 17.892 2.498 34.803 1.688 50.736-2.431a44.485 44.485 0 0 1 3.444-.708h373.386c2.903-18.701.305-34.737-7.797-48.104-2.972-4.93-7.426-9.419-13.367-13.47-10.331-7.156-25.083-13.132-44.257-17.925-.473-.137-.943-.271-1.418-.405-8.169-4.929-17.181-9.014-27.039-12.254a257.254 257.254 0 0 0-16.71-11.646c-20.522-15.663-37.031-24.948-49.521-27.85-23.494-9.453-47.226-16.71-71.192-21.773a508.158 508.158 0 0 0-8.406-1.72m-113.829 11.039c-79.801 16.001-140.024 35.951-180.667 59.851 40.643-23.9 100.866-43.85 180.667-59.851m56.813 136.514c81.692-4.728 156.091-23.899 223.201-57.522-67.11 33.622-141.508 52.794-223.201 57.522z"/><path fill="#CAD5FF" d="M603.725 131.255c-.204.27-.439.574-.71.911-2.16 11.951-3.273 18.432-3.341 19.444-.338 6.212.471 12.152 2.429 17.824 10.871 3.511 21.334 8.776 31.395 15.798 12.22 8.642 21.369 18.499 27.445 29.571l8.103 89.422c-1.014 14.245-3.344 24.001-6.988 29.269-3.646 5.401-9.318 7.257-17.015 5.569 19.174 4.793 33.926 10.769 44.257 17.925 37.064-37.538 48.238-105.39 33.52-203.555-38.213-10.802-77.913-18.195-119.095-22.178m-66.232 10.532a44.128 44.128 0 0 1-6.482-13.874c-19.376-.068-39.022.607-58.938 2.025-38.146 31.528-65.456 73.522-81.929 125.982a403.78 403.78 0 0 1 37.368 1.519c13.301-13.503 24.307-28.12 33.016-43.851 5.604-10.6 19.376-20.254 41.317-28.963a736.347 736.347 0 0 0 19.546-4.76c4.727-.945 10.262-1.283 16.608-1.013 2.901-5.333 3.883-16.912 2.938-34.736a23.573 23.573 0 0 1-3.444-2.329z"/><path fill="#AA0404" d="M521.391 179.865a736.347 736.347 0 0 1-19.546 4.76c-21.941 8.708-35.714 18.363-41.317 28.963-8.709 15.731-19.715 30.348-33.016 43.851a410.714 410.714 0 0 1 43.243 5.974c1.215-3.308 3.173-7.054 5.874-11.241 1.484-2.363 3.78-5.872 6.886-10.532 5.268-8.438 7.461-16.338 6.583-23.697.878 7.359-1.315 15.259-6.583 23.697-3.105 4.66-5.401 8.169-6.886 10.532-2.701 4.188-4.659 7.934-5.874 11.241 2.77.542 5.57 1.115 8.406 1.723 23.967 5.063 47.698 12.32 71.192 21.773.811-5.738 10.6-6.719 29.369-2.938 17.216 2.77 29.604 2.77 37.167 0-12.829-17.756-16.44-38.416-10.837-61.978-5.604 23.562-1.992 44.222 10.837 61.978 11.477-4.861 22.076-4.861 31.798 0-9.722-4.861-20.321-4.861-31.798 0-7.563 2.77-19.951 2.77-37.167 0 16.406 6.954 23.124 17.216 20.152 30.787a256.863 256.863 0 0 1 16.71 11.646c9.858 3.24 18.87 7.325 27.039 12.254l1.418.405c7.696 1.688 13.369-.168 17.015-5.569 3.645-5.268 5.975-15.023 6.988-29.269l-8.103-89.422c-6.076-11.072-15.226-20.93-27.445-29.571-10.061-7.021-20.523-12.287-31.395-15.798-28.963 18.296-50.331 21.435-64.104 9.418-6.345-.269-11.88.068-16.606 1.013z"/><path fill="#FFF" d="M544.378 115.052l.812-.608c-.27.135-.574.304-.912.506l.1.102m4.66-28.255h.101c.067-.067.135-.134.202-.203.271-.27.54-.574.811-.911.067-.135.169-.27.303-.405.067-.067.171-.169.305-.304a38.79 38.79 0 0 0 1.418-2.431c-1.418-1.688-4.187-2.396-8.305-2.126-4.051.27-6.684 1.755-7.898 4.457 2.969 2.092 5.47 3.24 7.495 3.442a7.493 7.493 0 0 0 3.239-.101l2.329-1.418m-3.748-4.962c.54.675.811 1.451.811 2.329 0 .81-.271 1.485-.811 2.025-.675.676-1.45 1.013-2.328 1.013-.812 0-1.555-.337-2.229-1.013-.54-.54-.809-1.215-.809-2.025 0-.878.269-1.654.809-2.329.675-.54 1.418-.811 2.229-.811a3.62 3.62 0 0 1 2.328.811m29.368 6.38c2.565.473 6.381-1.046 11.445-4.557-1.688-2.161-4.793-3.375-9.318-3.646-4.521-.27-7.764.439-9.722 2.127 2.633 3.443 5.165 5.468 7.595 6.076m-1.924-7.292c.542-.473 1.283-.709 2.229-.709.877 0 1.587.236 2.127.709.676.675 1.013 1.452 1.013 2.329 0 .743-.337 1.452-1.013 2.127-.54.54-1.25.81-2.127.81-.945 0-1.687-.27-2.229-.81-.675-.676-1.013-1.385-1.013-2.127.001-.877.339-1.653 1.013-2.329z"/><path fill="#FF9D9B" d="M538.404 117.077h-.405c1.822 4.321 5.976 6.481 12.455 6.481 6.415 0 11.073-1.89 13.977-5.671-.202-.067-.336-.101-.405-.101a5.35 5.35 0 0 0-1.114-.305 55.336 55.336 0 0 0-17.621-1.417c-.876.405-1.688.641-2.431.709-.404 0-.843-.102-1.315-.305-.812.135-1.62.271-2.431.405-.27.069-.508.136-.71.204m.709-2.228a4.68 4.68 0 0 0-.709.912 7.422 7.422 0 0 0-.305.911.918.918 0 0 0-.101.405h.405c.202-.068.439-.135.709-.203.811-.134 1.619-.27 2.431-.405-.473-.135-.979-.371-1.52-.708l-.91-.912m14.279-4.456l-3.646 1.418-2.938-1.418c-1.821.473-3.407 1.148-4.759 2.026l2.228 2.532c.338-.202.643-.371.912-.506l-.812.608.204.101.303.506a1.203 1.203 0 0 1-.404.405 5.52 5.52 0 0 0 .507-.304l.303.202v.102c5.941-.473 11.814 0 17.621 1.417a5.35 5.35 0 0 1 1.114.305c.069 0 .203.033.405.101a.67.67 0 0 0-.305-.304 4.126 4.126 0 0 0-.607-.81c-.943-1.081-2.16-2.127-3.646-3.14-2.158-1.35-4.318-2.43-6.48-3.241z"/><path fill="#F7F7F7" d="M515.82 82.037c-.269.811-.811 1.553-1.62 2.228-.674.473-1.451.709-2.33.709v.101l3.14 3.544 14.888 16.203 9.014 9.723.202.304.911.912c.54.337 1.047.574 1.52.708.473.203.911.305 1.315.305.743-.068 1.555-.305 2.431-.709v-.102l-.303-.202a5.756 5.756 0 0 1-.507.304c.141-.077.277-.212.404-.405l-.303-.506-.204-.101-.101-.102-2.228-2.532-.405-.506-10.734-12.457-11.85-13.671-3.24-3.748z"/><path fill="#06F" d="M515.01 78.493c-.742-1.013-1.587-1.62-2.532-1.823-1.013-.067-2.025.27-3.038 1.013-.945.608-1.519 1.485-1.721 2.633-.135.945.135 1.924.811 2.937.675 1.013 1.52 1.553 2.532 1.621.336.067.573.101.708.101h.101c.879 0 1.656-.236 2.33-.709.81-.675 1.352-1.417 1.62-2.228v-.405c0-.135.067-.236.202-.304.067-.946-.27-1.891-1.013-2.836z"/><path fill="#EBC6AF" d="M621.75 88.316c.473-5.806-.102-9.215-1.721-10.228-1.824-1.148-3.984-.844-6.482.911-2.633 1.958-4.084 4.422-4.355 7.394.677 6.683.507 14.144-.506 22.38 3.038.743 6.279-1.789 9.724-7.595 1.753-3.038 2.867-7.326 3.34-12.862m-7.495-3.038c3.105-3.443 3.074 1.148-.101 13.773 3.175-12.625 3.206-17.216.101-13.773z"/><path fill="#301411" d="M601.597 64.821c3.983 5.942 6.515 13.132 7.595 21.572.271-2.971 1.723-5.436 4.355-7.394 2.498-1.755 4.658-2.059 6.482-.911 1.619 1.013 2.193 4.422 1.721 10.228-.473 5.536-1.587 9.824-3.341 12.862-3.444 5.806-6.686 8.338-9.724 7.595-.538 3.713-1.282 7.629-2.228 11.747-.269.405-.506.811-.708 1.215-1.217 4.253-2.093 7.426-2.635 9.52-.945 3.375-.977 3.679-.101.911.271-.337.506-.641.71-.911 5.671-7.089 9.652-12.254 11.949-15.495 7.629-11.342 11.917-21.065 12.862-29.167 1.013-9.316.336-18.431-2.025-27.343-2.229-8.506-5.503-14.853-9.825-19.039-7.494-7.562-16.98-11.95-28.456-13.166-10.667-1.215-20.492-.641-29.47 1.722-9.587 2.431-16.34 6.447-20.254 12.052-8.844 12.49-10.869 24.237-6.076 35.242.201-1.755 1.619-6.785 4.252-15.09 2.7-8.439 12.659-13.232 29.875-14.38 15.464-1.079 27.143 4.997 35.042 18.23z"/><path d="M546.101 84.164c0-.878-.271-1.654-.811-2.329a3.62 3.62 0 0 0-2.328-.811c-.812 0-1.555.271-2.229.811a3.622 3.622 0 0 0-.809 2.329c0 .81.269 1.485.809 2.025.675.676 1.418 1.013 2.229 1.013.878 0 1.653-.337 2.328-1.013.54-.54.811-1.215.811-2.025m28.862-3.95c-.945 0-1.687.236-2.229.709-.675.675-1.013 1.452-1.013 2.329 0 .743.338 1.452 1.013 2.127.542.54 1.283.81 2.229.81.877 0 1.587-.27 2.127-.81.676-.676 1.013-1.385 1.013-2.127 0-.877-.337-1.654-1.013-2.329-.54-.472-1.25-.709-2.127-.709z"/><g><path fill="none" stroke="#000328" stroke-width="2" stroke-linecap="round" stroke-linejoin="round" d="M603.725 131.255c41.183 3.982 80.883 11.376 119.094 22.178 14.719 98.166 3.545 166.017-33.52 203.555 5.941 4.051 10.396 8.54 13.367 13.47 8.102 13.366 10.7 29.402 7.797 48.104M167.955 312.429c7.292-4.658 15.427-8.472 24.406-11.442 43.479-16.609 96.14-30.955 157.983-43.04a395.319 395.319 0 0 1 39.8-2.025c16.473-52.459 43.783-94.454 81.929-125.982 19.916-1.418 39.563-2.094 58.938-2.025m114.031 211.148c19.174 4.793 33.926 10.769 44.257 17.925m-261.787-99.549a410.714 410.714 0 0 1 43.243 5.974c2.77.542 5.57 1.115 8.406 1.723 23.967 5.063 47.698 12.32 71.192 21.773m-160.209-30.988a403.78 403.78 0 0 1 37.368 1.519m172.363 57.319a256.863 256.863 0 0 1 16.71 11.646c9.858 3.24 18.87 7.325 27.039 12.254l1.418.405m-94.688-52.155c12.49 2.901 28.999 12.187 49.521 27.85"/></g><g><path fill="none" stroke="#0069B7" stroke-width="1.5" stroke-linecap="round" stroke-linejoin="round" d="M577.09 80.923c.676.675 1.013 1.452 1.013 2.329 0 .743-.337 1.452-1.013 2.127-.54.54-1.25.81-2.127.81-.945 0-1.687-.27-2.229-.81-.675-.676-1.013-1.385-1.013-2.127 0-.877.338-1.654 1.013-2.329.542-.473 1.283-.709 2.229-.709.877 0 1.587.237 2.127.709zm-30.989 3.241c0 .81-.271 1.485-.811 2.025-.675.676-1.45 1.013-2.328 1.013-.812 0-1.555-.337-2.229-1.013-.54-.54-.809-1.215-.809-2.025 0-.878.269-1.654.809-2.329.675-.54 1.418-.811 2.229-.811a3.62 3.62 0 0 1 2.328.811c.54.675.811 1.451.811 2.329z"/></g><g><path fill="none" stroke="#371A1A" stroke-width="2" stroke-linecap="round" stroke-linejoin="round" d="M609.191 86.393c-1.08-8.44-3.611-15.63-7.595-21.572-7.898-13.232-19.578-19.309-35.04-18.229-17.216 1.148-27.175 5.941-29.875 14.38-2.633 8.305-4.051 13.334-4.252 15.09-.675 5.401-.372 10.094.911 14.076a86.476 86.476 0 0 0-2.431 9.317m-1.012 5.368c-1.216 8.373-.845 16.069 1.113 23.091a44.182 44.182 0 0 0 6.482 13.874 23.704 23.704 0 0 0 3.443 2.33c8.169 4.928 17.619 6.177 28.355 3.747 10.937-2.835 20.558-8.54 28.862-17.114 2.7-2.701 5.232-5.706 7.596-9.014.202-.404.439-.81.708-1.215.945-4.118 1.689-8.034 2.228-11.747 1.013-8.236 1.183-15.697.506-22.38.271-2.971 1.723-5.436 4.355-7.394 2.498-1.755 4.658-2.059 6.482-.911 1.619 1.013 2.193 4.422 1.721 10.228-.473 5.536-1.587 9.824-3.341 12.862-3.444 5.806-6.686 8.338-9.724 7.595m-4.958 22.48c5.671-7.089 9.652-12.254 11.949-15.495 7.629-11.342 11.917-21.065 12.862-29.167 1.013-9.316.336-18.431-2.025-27.343-2.229-8.506-5.503-14.853-9.825-19.039-7.494-7.562-16.98-11.95-28.456-13.166-10.667-1.215-20.492-.641-29.47 1.722-9.587 2.431-16.34 6.447-20.254 12.052-8.844 12.49-10.869 24.237-6.076 35.242m19.544-.505c-6.751-2.363-12.524-2.363-17.317 0m6.28 68.561c.945 17.824-.036 29.402-2.938 34.736m65.016-46.687c.271-.337.506-.641.71-.911m2.025-9.52c-1.217 4.253-2.093 7.426-2.635 9.52-.945 3.375-.977 3.679-.101.911-2.16 11.951-3.273 18.432-3.341 19.444-.338 6.212.471 12.152 2.429 17.824m-35.039-93.777c7.696-3.848 15.63-3.848 23.799 0"/></g><g><path fill="none" stroke="#371A1A" stroke-linecap="round" stroke-linejoin="round" d="M567.063 82.139c2.633 3.443 5.164 5.468 7.595 6.076 2.565.473 6.381-1.046 11.445-4.557-1.688-2.161-4.793-3.375-9.318-3.646-4.521-.27-7.764.439-9.722 2.127zm-18.025 4.658h.101c.067-.067.135-.134.202-.203.271-.27.54-.574.811-.911.067-.135.169-.27.303-.405.067-.067.171-.169.305-.304a38.79 38.79 0 0 0 1.418-2.431c-1.418-1.688-4.187-2.396-8.305-2.126-4.051.27-6.684 1.755-7.898 4.457 2.969 2.092 5.47 3.24 7.495 3.442a7.493 7.493 0 0 0 3.239-.101l2.329-1.418zm.101 0v.102c-.405.674-1.248 1.553-2.531 2.632-1.62 1.485-2.803 2.633-3.545 3.444-.945.944-1.248 2.295-.912 4.051.406 1.823 1.385 3.24 2.938 4.252 3.105.878 7.696 1.013 13.772.406 4.388-2.565 4.118-5.739-.811-9.52m-3.646-9.621l-3.038 2.127a9.714 9.714 0 0 0-1.215 1.013m2.533 10.431c1.351.473 2.193 1.316 2.531 2.532M546 96.114c1.08.337 1.923 1.249 2.532 2.734m51.038-4.556c1.352 7.696-1.146 15.46-7.492 23.292m22.177-32.306c3.105-3.443 3.074 1.148-.101 13.773"/></g><g><path fill="none" stroke="#A62320" stroke-width="2" stroke-linecap="round" stroke-linejoin="round" d="M545.29 116.064c5.941-.473 11.814 0 17.621 1.417a5.35 5.35 0 0 1 1.114.305c.069 0 .203.033.405.101m-26.431-.81h.405c.202-.068.439-.135.709-.203.811-.134 1.619-.27 2.431-.405"/></g><g><path fill="none" stroke="#D83A36" stroke-width="2" stroke-linecap="round" stroke-linejoin="round" d="M564.126 117.583a.665.665 0 0 1 .305.304c-2.903 3.781-7.562 5.671-13.977 5.671-6.479 0-10.633-2.16-12.455-6.481 0-.135.034-.27.101-.405m26.026.911a4.126 4.126 0 0 0-.607-.81c-.943-1.081-2.16-2.127-3.646-3.14-2.159-1.35-4.319-2.43-6.481-3.241l-3.646 1.418-2.938-1.418c-1.821.473-3.407 1.148-4.759 2.026m-2.936 2.431a4.68 4.68 0 0 0-.709.912 7.422 7.422 0 0 0-.305.911"/></g><g><path fill="none" stroke="#440202" stroke-width="2" stroke-linecap="round" stroke-linejoin="round" d="M427.512 257.439c13.301-13.503 24.307-28.12 33.016-43.851 5.604-10.6 19.376-20.254 41.317-28.963a736.347 736.347 0 0 0 19.546-4.76c4.727-.945 10.262-1.283 16.608-1.013m64.104-9.417c10.871 3.511 21.334 8.776 31.395 15.798 12.22 8.642 21.369 18.499 27.445 29.571l8.103 89.422c-1.014 14.245-3.344 24.001-6.988 29.269-3.646 5.401-9.318 7.257-17.015 5.569M537.999 178.853c13.772 12.017 35.141 8.878 64.104-9.418m-131.348 93.978c1.215-3.308 3.173-7.054 5.874-11.241 1.484-2.363 3.78-5.872 6.886-10.532 5.268-8.438 7.461-16.338 6.583-23.697m60.256 68.966c.811-5.738 10.6-6.719 29.369-2.938 17.216 2.77 29.604 2.77 37.167 0-12.829-17.756-16.44-38.416-10.837-61.978m10.837 61.979c11.477-4.861 22.076-4.861 31.798 0m-68.965 0c16.406 6.954 23.124 17.216 20.152 30.787"/></g><g><path fill="none" stroke="#2F5EFF" stroke-width="2" stroke-linecap="round" stroke-linejoin="round" d="M337.077 418.562a44.485 44.485 0 0 0-3.444.708c-15.933 4.118-32.845 4.929-50.736 2.431-13.03-1.823-21.773-2.87-26.229-3.139h-3.038c-8.169 1.958-15.697 1.958-22.583 0m125.879-144.11c-79.801 16.001-140.024 35.951-180.667 59.851m237.48 76.663c81.692-4.728 156.091-23.899 223.201-57.522"/></g><g><path fill="none" stroke="#333" stroke-width="2" stroke-linecap="round" stroke-linejoin="round" d="M541.645 111.912L530.91 99.456m-1.013 5.367l9.014 9.723M511.87 84.974h-.101c-.135 0-.372-.034-.708-.101-1.013-.068-1.857-.608-2.532-1.621-.676-1.013-.945-1.992-.811-2.937.202-1.148.775-2.025 1.721-2.633 1.013-.743 2.025-1.08 3.038-1.013.945.203 1.79.81 2.532 1.823.743.945 1.08 1.891 1.013 2.836-.135.067-.202.168-.202.304v.405l3.24 3.747 11.85 13.671m-15.09-17.418c-.269.811-.811 1.553-1.62 2.228-.674.473-1.451.709-2.33.709m0 .101l3.14 3.544 14.888 16.203m14.379 10.128l-2.228-2.532m2.329 2.634l.204.101.303.506m.102.102l.303.202v.102m-6.379-1.52l.202.304.911.912c.54.337 1.047.574 1.52.708.473.203.911.305 1.315.305.743-.068 1.555-.305 2.431-.709m-3.24-3.647l-.405-.506m2.733 3.14l-.101-.102"/></g></svg>