<?xml version="1.0" encoding="utf-8"?>
<!-- Generator: Adobe Illustrator 16.0.0, SVG Export Plug-In . SVG Version: 6.00 Build 0)  -->
<!DOCTYPE svg PUBLIC "-//W3C//DTD SVG 1.1//EN" "http://www.w3.org/Graphics/SVG/1.1/DTD/svg11.dtd">
<svg version="1.1" id="Layer_1" xmlns="http://www.w3.org/2000/svg" xmlns:xlink="http://www.w3.org/1999/xlink" x="0px" y="0px"
	 width="900px" height="450px" viewBox="0 0 900 450" enable-background="new 0 0 900 450" xml:space="preserve">
<g transform="matrix( 1, 0, 0, 1, 0,0) ">
	<g>
		<g id="Layer0_0_FILL">
			<path fill="#ECCFC1" d="M579.723,283.972c-18.77-3.781-28.559-2.801-29.369,2.938c12.49,2.901,28.999,12.187,49.521,27.85
				C602.847,301.188,596.129,290.926,579.723,283.972 M540.937,144.117c0.945,17.824-0.036,29.402-2.938,34.736
				c13.772,12.017,35.141,8.878,64.104-9.418c-1.958-5.672-2.767-11.612-2.429-17.824c0.067-1.013,1.181-7.494,3.341-19.444
				c-0.876,2.768-0.845,2.465,0.101-0.911c0.542-2.094,1.418-5.267,2.635-9.52c-2.363,3.308-4.896,6.313-7.596,9.014
				c-8.305,8.574-17.926,14.279-28.862,17.114C558.556,150.294,549.105,149.045,540.937,144.117 M609.191,86.393
				c-1.08-8.44-3.611-15.63-7.595-21.572c-7.898-13.232-19.578-19.309-35.04-18.229c-17.216,1.148-27.175,5.941-29.875,14.38
				c-2.633,8.305-4.051,13.334-4.252,15.09c-0.675,5.401-0.372,10.094,0.911,14.076c-1.013,3.174-1.823,6.279-2.431,9.317
				l10.734,12.457c1.418-0.945,3.139-1.688,5.164-2.228l2.938,1.417l3.646-1.417c2.162,0.81,4.322,1.89,6.481,3.24
				c1.485,1.081,2.702,2.127,3.646,3.14c0.339,0.337,0.644,0.709,0.912,1.114c-0.135,0.135-0.237,0.27-0.305,0.405
				c0.135,0.067,0.237,0.169,0.305,0.304c-2.903,3.781-7.562,5.671-13.977,5.671c-6.479,0-10.633-2.16-12.455-6.481
				c0-0.135,0.034-0.27,0.101-0.405c0-0.135-0.033-0.236-0.101-0.304c0.067-0.405,0.202-0.81,0.405-1.215
				c0.135-0.203,0.303-0.405,0.507-0.607l-9.014-9.723c-1.216,8.373-0.845,16.069,1.113,23.091c1.35,4.995,3.511,9.621,6.482,13.874
				c1.08,0.878,2.227,1.654,3.443,2.33c8.169,4.928,17.619,6.177,28.355,3.747c10.937-2.835,20.558-8.54,28.862-17.114
				c2.7-2.701,5.232-5.706,7.596-9.014c0.202-0.404,0.439-0.81,0.708-1.215c0.945-4.118,1.689-8.034,2.228-11.747
				C609.698,100.537,609.868,93.076,609.191,86.393 M586.104,83.658c-5.064,3.511-8.88,5.03-11.445,4.557
				c-2.431-0.608-4.962-2.633-7.595-6.076c1.958-1.688,5.2-2.397,9.722-2.127C581.311,80.283,584.416,81.497,586.104,83.658
				 M549.139,86.797h-0.101l-2.33,1.418c-1.08,0.27-2.16,0.304-3.239,0.101c-2.025-0.203-4.526-1.35-7.495-3.442
				c1.215-2.701,3.848-4.187,7.898-4.457c4.118-0.27,6.887,0.439,8.305,2.126c-0.473,0.878-0.945,1.688-1.418,2.431
				c-0.134,0.135-0.237,0.236-0.305,0.304c-0.134,0.135-0.235,0.27-0.303,0.405c0.339-0.337,0.742-0.675,1.215-1.013l3.038-2.127
				l-3.038,2.127c-0.473,0.337-0.876,0.676-1.215,1.013c-0.271,0.337-0.54,0.641-0.811,0.911
				C549.273,86.663,549.206,86.729,549.139,86.797v0.102c-0.405,0.674-1.248,1.553-2.531,2.632c-1.62,1.485-2.803,2.633-3.545,3.444
				c-0.945,0.944-1.248,2.295-0.912,4.051c0.406,1.823,1.385,3.24,2.938,4.252c3.105,0.878,7.696,1.013,13.772,0.406
				c4.388-2.565,4.118-5.739-0.811-9.52c4.929,3.781,5.198,6.955,0.811,9.52c-6.076,0.607-10.667,0.473-13.772-0.406
				c-1.553-1.013-2.531-2.43-2.938-4.252c-0.336-1.755-0.033-3.106,0.912-4.051c0.742-0.811,1.925-1.958,3.545-3.444
				c1.283-1.08,2.126-1.958,2.531-2.632V86.797 M551.974,75.556c-6.751-2.363-12.524-2.363-17.317,0
				C539.449,73.193,545.223,73.193,551.974,75.556 M552.684,96.114c1.351,0.473,2.193,1.316,2.531,2.532
				C554.877,97.43,554.034,96.587,552.684,96.114 M546,96.114c1.08,0.337,1.923,1.249,2.532,2.734
				C547.923,97.363,547.08,96.451,546,96.114 M599.57,94.292c1.352,7.696-1.146,15.46-7.492,23.292
				C598.424,109.752,600.922,101.987,599.57,94.292 M567.063,75.657c7.696-3.848,15.63-3.848,23.799,0
				C582.693,71.809,574.76,71.809,567.063,75.657z"/>
			<path fill="#899EE2" d="M470.755,263.413c-14.38-2.768-28.795-4.759-43.243-5.974c-12.355-1.08-24.811-1.586-37.368-1.519
				c-13.166,0-26.433,0.674-39.8,2.025c-61.843,12.085-114.503,26.431-157.983,43.04c-8.979,2.971-17.114,6.784-24.406,11.442
				v106.133h63.091c6.886,1.958,14.415,1.958,22.583,0h3.038c4.457,0.269,13.2,1.315,26.229,3.139
				c17.892,2.498,34.803,1.688,50.736-2.431c1.081-0.269,2.229-0.506,3.444-0.708h373.386c2.903-18.701,0.305-34.737-7.797-48.104
				c-2.972-4.93-7.426-9.419-13.367-13.47c-10.331-7.156-25.083-13.132-44.257-17.925c-0.473-0.137-0.943-0.271-1.418-0.405
				c-8.169-4.929-17.181-9.014-27.039-12.254c-5.536-4.187-11.106-8.067-16.71-11.646c-20.522-15.663-37.031-24.948-49.521-27.85
				c-23.494-9.453-47.226-16.71-71.192-21.773C476.325,264.528,473.524,263.955,470.755,263.413 M356.926,274.452
				c-79.801,16.001-140.024,35.951-180.667,59.851C216.902,310.403,277.125,290.453,356.926,274.452 M413.739,410.966
				c81.692-4.728,156.091-23.899,223.201-57.522C569.83,387.066,495.432,406.238,413.739,410.966z"/>
			<path fill="#CAD5FF" d="M603.725,131.255c-0.204,0.27-0.439,0.574-0.71,0.911c-2.16,11.951-3.273,18.432-3.341,19.444
				c-0.338,6.212,0.471,12.152,2.429,17.824c10.871,3.511,21.334,8.776,31.395,15.798c12.22,8.642,21.369,18.499,27.445,29.571
				l8.103,89.422c-1.014,14.245-3.344,24.001-6.988,29.269c-3.646,5.401-9.318,7.257-17.015,5.569
				c19.174,4.793,33.926,10.769,44.257,17.925c37.064-37.538,48.238-105.39,33.52-203.555
				C684.607,142.631,644.907,135.238,603.725,131.255 M537.493,141.787c-2.972-4.253-5.133-8.878-6.482-13.874
				c-19.376-0.068-39.022,0.607-58.938,2.025c-38.146,31.528-65.456,73.522-81.929,125.982c12.557-0.067,25.013,0.438,37.368,1.519
				c13.301-13.503,24.307-28.12,33.016-43.851c5.604-10.6,19.376-20.254,41.317-28.963c6.21-1.418,12.726-3.005,19.546-4.76
				c4.727-0.945,10.262-1.283,16.608-1.013c2.901-5.333,3.883-16.912,2.938-34.736C539.72,143.441,538.573,142.665,537.493,141.787z
				"/>
			<path fill="#AA0404" d="M521.391,179.865c-6.82,1.755-13.336,3.342-19.546,4.76c-21.941,8.708-35.714,18.363-41.317,28.963
				c-8.709,15.731-19.715,30.348-33.016,43.851c14.448,1.215,28.863,3.206,43.243,5.974c1.215-3.308,3.173-7.054,5.874-11.241
				c1.484-2.363,3.78-5.872,6.886-10.532c5.268-8.438,7.461-16.338,6.583-23.697c0.878,7.359-1.315,15.259-6.583,23.697
				c-3.105,4.66-5.401,8.169-6.886,10.532c-2.701,4.188-4.659,7.934-5.874,11.241c2.77,0.542,5.57,1.115,8.406,1.723
				c23.967,5.063,47.698,12.32,71.192,21.773c0.811-5.738,10.6-6.719,29.369-2.938c17.216,2.77,29.604,2.77,37.167,0
				c-12.829-17.756-16.44-38.416-10.837-61.978c-5.604,23.562-1.992,44.222,10.837,61.978c11.477-4.861,22.076-4.861,31.798,0
				c-9.722-4.861-20.321-4.861-31.798,0c-7.563,2.77-19.951,2.77-37.167,0c16.406,6.954,23.124,17.216,20.152,30.787
				c5.604,3.578,11.174,7.459,16.71,11.646c9.858,3.24,18.87,7.325,27.039,12.254c0.475,0.135,0.945,0.269,1.418,0.405
				c7.696,1.688,13.369-0.168,17.015-5.569c3.645-5.268,5.975-15.023,6.988-29.269l-8.103-89.422
				c-6.076-11.072-15.226-20.93-27.445-29.571c-10.061-7.021-20.523-12.287-31.395-15.798
				c-28.963,18.296-50.331,21.435-64.104,9.418C531.652,178.583,526.117,178.92,521.391,179.865z"/>
			<path fill="#FFFFFF" d="M544.378,115.052c0.271-0.203,0.542-0.405,0.812-0.608c-0.27,0.135-0.574,0.304-0.912,0.506
				L544.378,115.052 M549.038,86.797h0.101c0.067-0.067,0.135-0.134,0.202-0.203c0.271-0.27,0.54-0.574,0.811-0.911
				c0.067-0.135,0.169-0.27,0.303-0.405c0.067-0.067,0.171-0.169,0.305-0.304c0.473-0.743,0.945-1.553,1.418-2.431
				c-1.418-1.688-4.187-2.396-8.305-2.126c-4.051,0.27-6.684,1.755-7.898,4.457c2.969,2.092,5.47,3.24,7.495,3.442
				c1.079,0.203,2.159,0.169,3.239-0.101L549.038,86.797 M545.29,81.835c0.54,0.675,0.811,1.451,0.811,2.329
				c0,0.81-0.271,1.485-0.811,2.025c-0.675,0.676-1.45,1.013-2.328,1.013c-0.812,0-1.555-0.337-2.229-1.013
				c-0.54-0.54-0.809-1.215-0.809-2.025c0-0.878,0.269-1.654,0.809-2.329c0.675-0.54,1.418-0.811,2.229-0.811
				C543.84,81.024,544.615,81.295,545.29,81.835 M574.658,88.215c2.565,0.473,6.381-1.046,11.445-4.557
				c-1.688-2.161-4.793-3.375-9.318-3.646c-4.521-0.27-7.764,0.439-9.722,2.127C569.696,85.582,572.228,87.607,574.658,88.215
				 M572.734,80.923c0.542-0.473,1.283-0.709,2.229-0.709c0.877,0,1.587,0.236,2.127,0.709c0.676,0.675,1.013,1.452,1.013,2.329
				c0,0.743-0.337,1.452-1.013,2.127c-0.54,0.54-1.25,0.81-2.127,0.81c-0.945,0-1.687-0.27-2.229-0.81
				c-0.675-0.676-1.013-1.385-1.013-2.127C571.722,82.375,572.06,81.599,572.734,80.923z"/>
			<path fill="#FF9D9B" d="M538.404,117.077c-0.134,0-0.271,0-0.405,0c1.822,4.321,5.976,6.481,12.455,6.481
				c6.415,0,11.073-1.89,13.977-5.671c-0.202-0.067-0.336-0.101-0.405-0.101c-0.339-0.136-0.708-0.237-1.114-0.305
				c-5.807-1.417-11.68-1.89-17.621-1.417c-0.876,0.405-1.688,0.641-2.431,0.709c-0.404,0-0.843-0.102-1.315-0.305
				c-0.812,0.135-1.62,0.271-2.431,0.405C538.844,116.942,538.606,117.009,538.404,117.077 M539.113,114.849
				c-0.27,0.27-0.507,0.574-0.709,0.912c-0.134,0.337-0.237,0.641-0.305,0.911c-0.066,0.135-0.101,0.27-0.101,0.405
				c0.135,0,0.271,0,0.405,0c0.202-0.068,0.439-0.135,0.709-0.203c0.811-0.134,1.619-0.27,2.431-0.405
				c-0.473-0.135-0.979-0.371-1.52-0.708L539.113,114.849 M553.392,110.393l-3.646,1.418l-2.938-1.418
				c-1.821,0.473-3.407,1.148-4.759,2.026l2.228,2.532c0.338-0.202,0.643-0.371,0.912-0.506c-0.27,0.203-0.54,0.405-0.812,0.608
				l0.204,0.101l0.303,0.506c-0.127,0.193-0.264,0.328-0.404,0.405c0.143-0.074,0.313-0.175,0.507-0.304l0.303,0.202v0.102
				c5.941-0.473,11.814,0,17.621,1.417c0.406,0.068,0.775,0.169,1.114,0.305c0.069,0,0.203,0.033,0.405,0.101
				c-0.067-0.134-0.17-0.236-0.305-0.304c-0.202-0.337-0.403-0.608-0.607-0.81c-0.943-1.081-2.16-2.127-3.646-3.14
				C557.714,112.284,555.554,111.204,553.392,110.393z"/>
			<path fill="#F7F7F7" d="M515.82,82.037c-0.269,0.811-0.811,1.553-1.62,2.228c-0.674,0.473-1.451,0.709-2.33,0.709v0.101
				l3.14,3.544l14.888,16.203l9.014,9.723l0.202,0.304l0.911,0.912c0.54,0.337,1.047,0.574,1.52,0.708
				c0.473,0.203,0.911,0.305,1.315,0.305c0.743-0.068,1.555-0.305,2.431-0.709v-0.102l-0.303-0.202
				c-0.194,0.129-0.364,0.229-0.507,0.304c0.141-0.077,0.277-0.212,0.404-0.405l-0.303-0.506l-0.204-0.101l-0.101-0.102
				l-2.228-2.532l-0.405-0.506L530.91,99.456l-11.85-13.671L515.82,82.037z"/>
			<path fill="#0066FF" d="M515.01,78.493c-0.742-1.013-1.587-1.62-2.532-1.823c-1.013-0.067-2.025,0.27-3.038,1.013
				c-0.945,0.608-1.519,1.485-1.721,2.633c-0.135,0.945,0.135,1.924,0.811,2.937c0.675,1.013,1.52,1.553,2.532,1.621
				c0.336,0.067,0.573,0.101,0.708,0.101h0.101c0.879,0,1.656-0.236,2.33-0.709c0.81-0.675,1.352-1.417,1.62-2.228
				c0-0.135,0-0.27,0-0.405c0-0.135,0.067-0.236,0.202-0.304C516.09,80.383,515.753,79.438,515.01,78.493z"/>
			<path fill="#EBC6AF" d="M621.75,88.316c0.473-5.806-0.102-9.215-1.721-10.228c-1.824-1.148-3.984-0.844-6.482,0.911
				c-2.633,1.958-4.084,4.422-4.355,7.394c0.677,6.683,0.507,14.144-0.506,22.38c3.038,0.743,6.279-1.789,9.724-7.595
				C620.163,98.14,621.277,93.852,621.75,88.316 M614.255,85.278c3.105-3.443,3.074,1.148-0.101,13.773
				C617.329,86.426,617.36,81.835,614.255,85.278z"/>
			<path fill="#301411" d="M601.597,64.821c3.983,5.942,6.515,13.132,7.595,21.572c0.271-2.971,1.723-5.436,4.355-7.394
				c2.498-1.755,4.658-2.059,6.482-0.911c1.619,1.013,2.193,4.422,1.721,10.228c-0.473,5.536-1.587,9.824-3.341,12.862
				c-3.444,5.806-6.686,8.338-9.724,7.595c-0.538,3.713-1.282,7.629-2.228,11.747c-0.269,0.405-0.506,0.811-0.708,1.215
				c-1.217,4.253-2.093,7.426-2.635,9.52c-0.945,3.375-0.977,3.679-0.101,0.911c0.271-0.337,0.506-0.641,0.71-0.911
				c5.671-7.089,9.652-12.254,11.949-15.495c7.629-11.342,11.917-21.065,12.862-29.167c1.013-9.316,0.336-18.431-2.025-27.343
				c-2.229-8.506-5.503-14.853-9.825-19.039c-7.494-7.562-16.98-11.95-28.456-13.166c-10.667-1.215-20.492-0.641-29.47,1.722
				c-9.587,2.431-16.34,6.447-20.254,12.052c-8.844,12.49-10.869,24.237-6.076,35.242c0.201-1.755,1.619-6.785,4.252-15.09
				c2.7-8.439,12.659-13.232,29.875-14.38C582.019,45.512,593.698,51.588,601.597,64.821z"/>
			<path d="M546.101,84.164c0-0.878-0.271-1.654-0.811-2.329c-0.675-0.54-1.45-0.811-2.328-0.811c-0.812,0-1.555,0.271-2.229,0.811
				c-0.54,0.675-0.809,1.451-0.809,2.329c0,0.81,0.269,1.485,0.809,2.025c0.675,0.676,1.418,1.013,2.229,1.013
				c0.878,0,1.653-0.337,2.328-1.013C545.83,85.649,546.101,84.974,546.101,84.164 M574.963,80.214
				c-0.945,0-1.687,0.236-2.229,0.709c-0.675,0.675-1.013,1.452-1.013,2.329c0,0.743,0.338,1.452,1.013,2.127
				c0.542,0.54,1.283,0.81,2.229,0.81c0.877,0,1.587-0.27,2.127-0.81c0.676-0.676,1.013-1.385,1.013-2.127
				c0-0.877-0.337-1.654-1.013-2.329C576.55,80.451,575.84,80.214,574.963,80.214z"/>
		</g>
	</g>
	<g>
		<path id="Layer0_0_1_STROKES" fill="none" stroke="#000328" stroke-width="2" stroke-linecap="round" stroke-linejoin="round" d="
			M603.725,131.255c41.183,3.982,80.883,11.376,119.094,22.178c14.719,98.166,3.545,166.017-33.52,203.555
			c5.941,4.051,10.396,8.54,13.367,13.47c8.102,13.366,10.7,29.402,7.797,48.104 M167.955,312.429
			c7.292-4.658,15.427-8.472,24.406-11.442c43.479-16.609,96.14-30.955,157.983-43.04c13.368-1.352,26.635-2.025,39.8-2.025
			c16.473-52.459,43.783-94.454,81.929-125.982c19.916-1.418,39.563-2.094,58.938-2.025 M645.042,339.063
			c19.174,4.793,33.926,10.769,44.257,17.925 M427.512,257.439c14.448,1.215,28.863,3.206,43.243,5.974
			c2.77,0.542,5.57,1.115,8.406,1.723c23.967,5.063,47.698,12.32,71.192,21.773 M390.144,255.921
			c12.557-0.067,25.013,0.438,37.368,1.519 M599.875,314.759c5.604,3.578,11.174,7.459,16.71,11.646
			c9.858,3.24,18.87,7.325,27.039,12.254c0.475,0.135,0.945,0.269,1.418,0.405 M550.354,286.909
			c12.49,2.901,28.999,12.187,49.521,27.85"/>
	</g>
	<g>
		
			<path id="Layer0_0_2_STROKES" fill="none" stroke="#0069B7" stroke-width="1.5" stroke-linecap="round" stroke-linejoin="round" d="
			M577.09,80.923c0.676,0.675,1.013,1.452,1.013,2.329c0,0.743-0.337,1.452-1.013,2.127c-0.54,0.54-1.25,0.81-2.127,0.81
			c-0.945,0-1.687-0.27-2.229-0.81c-0.675-0.676-1.013-1.385-1.013-2.127c0-0.877,0.338-1.654,1.013-2.329
			c0.542-0.473,1.283-0.709,2.229-0.709C575.84,80.214,576.55,80.451,577.09,80.923z M546.101,84.164
			c0,0.81-0.271,1.485-0.811,2.025c-0.675,0.676-1.45,1.013-2.328,1.013c-0.812,0-1.555-0.337-2.229-1.013
			c-0.54-0.54-0.809-1.215-0.809-2.025c0-0.878,0.269-1.654,0.809-2.329c0.675-0.54,1.418-0.811,2.229-0.811
			c0.878,0,1.653,0.271,2.328,0.811C545.83,82.51,546.101,83.286,546.101,84.164z"/>
	</g>
	<g>
		<path id="Layer0_0_3_STROKES" fill="none" stroke="#371A1A" stroke-width="2" stroke-linecap="round" stroke-linejoin="round" d="
			M609.191,86.393c-1.08-8.44-3.611-15.63-7.595-21.572c-7.898-13.232-19.578-19.309-35.04-18.229
			c-17.216,1.148-27.175,5.941-29.875,14.38c-2.633,8.305-4.051,13.334-4.252,15.09c-0.675,5.401-0.372,10.094,0.911,14.076
			c-1.013,3.174-1.823,6.279-2.431,9.317 M529.897,104.823c-1.216,8.373-0.845,16.069,1.113,23.091
			c1.35,4.995,3.511,9.621,6.482,13.874c1.08,0.878,2.227,1.654,3.443,2.33c8.169,4.928,17.619,6.177,28.355,3.747
			c10.937-2.835,20.558-8.54,28.862-17.114c2.7-2.701,5.232-5.706,7.596-9.014c0.202-0.404,0.439-0.81,0.708-1.215
			c0.945-4.118,1.689-8.034,2.228-11.747c1.013-8.236,1.183-15.697,0.506-22.38c0.271-2.971,1.723-5.436,4.355-7.394
			c2.498-1.755,4.658-2.059,6.482-0.911c1.619,1.013,2.193,4.422,1.721,10.228c-0.473,5.536-1.587,9.824-3.341,12.862
			c-3.444,5.806-6.686,8.338-9.724,7.595 M603.725,131.255c5.671-7.089,9.652-12.254,11.949-15.495
			c7.629-11.342,11.917-21.065,12.862-29.167c1.013-9.316,0.336-18.431-2.025-27.343c-2.229-8.506-5.503-14.853-9.825-19.039
			c-7.494-7.562-16.98-11.95-28.456-13.166c-10.667-1.215-20.492-0.641-29.47,1.722c-9.587,2.431-16.34,6.447-20.254,12.052
			c-8.844,12.49-10.869,24.237-6.076,35.242 M551.974,75.556c-6.751-2.363-12.524-2.363-17.317,0 M540.937,144.117
			c0.945,17.824-0.036,29.402-2.938,34.736 M603.015,132.166c0.271-0.337,0.506-0.641,0.71-0.911 M605.75,121.735
			c-1.217,4.253-2.093,7.426-2.635,9.52c-0.945,3.375-0.977,3.679-0.101,0.911c-2.16,11.951-3.273,18.432-3.341,19.444
			c-0.338,6.212,0.471,12.152,2.429,17.824 M567.063,75.657c7.696-3.848,15.63-3.848,23.799,0"/>
	</g>
	<g>
		<path id="Layer0_0_4_STROKES" fill="none" stroke="#371A1A" stroke-linecap="round" stroke-linejoin="round" d="M567.063,82.139
			c2.633,3.443,5.164,5.468,7.595,6.076c2.565,0.473,6.381-1.046,11.445-4.557c-1.688-2.161-4.793-3.375-9.318-3.646
			C572.264,79.742,569.021,80.451,567.063,82.139z M549.038,86.797h0.101c0.067-0.067,0.135-0.134,0.202-0.203
			c0.271-0.27,0.54-0.574,0.811-0.911c0.067-0.135,0.169-0.27,0.303-0.405c0.067-0.067,0.171-0.169,0.305-0.304
			c0.473-0.743,0.945-1.553,1.418-2.431c-1.418-1.688-4.187-2.396-8.305-2.126c-4.051,0.27-6.684,1.755-7.898,4.457
			c2.969,2.092,5.47,3.24,7.495,3.442c1.079,0.203,2.159,0.169,3.239-0.101L549.038,86.797z M549.139,86.797v0.102
			c-0.405,0.674-1.248,1.553-2.531,2.632c-1.62,1.485-2.803,2.633-3.545,3.444c-0.945,0.944-1.248,2.295-0.912,4.051
			c0.406,1.823,1.385,3.24,2.938,4.252c3.105,0.878,7.696,1.013,13.772,0.406c4.388-2.565,4.118-5.739-0.811-9.52 M554.404,82.543
			l-3.038,2.127c-0.473,0.337-0.876,0.676-1.215,1.013 M552.684,96.114c1.351,0.473,2.193,1.316,2.531,2.532 M546,96.114
			c1.08,0.337,1.923,1.249,2.532,2.734 M599.57,94.292c1.352,7.696-1.146,15.46-7.492,23.292 M614.255,85.278
			c3.105-3.443,3.074,1.148-0.101,13.773"/>
	</g>
	<g>
		<path id="Layer0_0_5_STROKES" fill="none" stroke="#A62320" stroke-width="2" stroke-linecap="round" stroke-linejoin="round" d="
			M545.29,116.064c5.941-0.473,11.814,0,17.621,1.417c0.406,0.068,0.775,0.169,1.114,0.305c0.069,0,0.203,0.033,0.405,0.101
			 M537.999,117.077c0.135,0,0.271,0,0.405,0c0.202-0.068,0.439-0.135,0.709-0.203c0.811-0.134,1.619-0.27,2.431-0.405"/>
	</g>
	<g>
		<path id="Layer0_0_6_STROKES" fill="none" stroke="#D83A36" stroke-width="2" stroke-linecap="round" stroke-linejoin="round" d="
			M564.126,117.583c0.135,0.067,0.237,0.169,0.305,0.304c-2.903,3.781-7.562,5.671-13.977,5.671c-6.479,0-10.633-2.16-12.455-6.481
			c0-0.135,0.034-0.27,0.101-0.405 M564.126,117.583c-0.202-0.337-0.403-0.608-0.607-0.81c-0.943-1.081-2.16-2.127-3.646-3.14
			c-2.159-1.35-4.319-2.43-6.481-3.241l-3.646,1.418l-2.938-1.418c-1.821,0.473-3.407,1.148-4.759,2.026 M539.113,114.849
			c-0.27,0.27-0.507,0.574-0.709,0.912c-0.134,0.337-0.237,0.641-0.305,0.911"/>
	</g>
	<g>
		<path id="Layer0_0_7_STROKES" fill="none" stroke="#440202" stroke-width="2" stroke-linecap="round" stroke-linejoin="round" d="
			M427.512,257.439c13.301-13.503,24.307-28.12,33.016-43.851c5.604-10.6,19.376-20.254,41.317-28.963
			c6.21-1.418,12.726-3.005,19.546-4.76c4.727-0.945,10.262-1.283,16.608-1.013 M602.103,169.435
			c10.871,3.511,21.334,8.776,31.395,15.798c12.22,8.642,21.369,18.499,27.445,29.571l8.103,89.422
			c-1.014,14.245-3.344,24.001-6.988,29.269c-3.646,5.401-9.318,7.257-17.015,5.569 M537.999,178.853
			c13.772,12.017,35.141,8.878,64.104-9.418 M470.755,263.413c1.215-3.308,3.173-7.054,5.874-11.241
			c1.484-2.363,3.78-5.872,6.886-10.532c5.268-8.438,7.461-16.338,6.583-23.697 M550.354,286.909
			c0.811-5.738,10.6-6.719,29.369-2.938c17.216,2.77,29.604,2.77,37.167,0c-12.829-17.756-16.44-38.416-10.837-61.978
			 M616.89,283.972c11.477-4.861,22.076-4.861,31.798,0 M579.723,283.972c16.406,6.954,23.124,17.216,20.152,30.787"/>
	</g>
	<g>
		<path id="Layer0_0_8_STROKES" fill="none" stroke="#2F5EFF" stroke-width="2" stroke-linecap="round" stroke-linejoin="round" d="
			M337.077,418.562c-1.215,0.202-2.363,0.439-3.444,0.708c-15.933,4.118-32.845,4.929-50.736,2.431
			c-13.03-1.823-21.773-2.87-26.229-3.139h-3.038c-8.169,1.958-15.697,1.958-22.583,0 M356.926,274.452
			c-79.801,16.001-140.024,35.951-180.667,59.851 M413.739,410.966c81.692-4.728,156.091-23.899,223.201-57.522"/>
	</g>
	<g>
		<path id="Layer0_0_9_STROKES" fill="none" stroke="#333333" stroke-width="2" stroke-linecap="round" stroke-linejoin="round" d="
			M541.645,111.912L530.91,99.456 M529.897,104.823l9.014,9.723 M511.87,84.974h-0.101c-0.135,0-0.372-0.034-0.708-0.101
			c-1.013-0.068-1.857-0.608-2.532-1.621c-0.676-1.013-0.945-1.992-0.811-2.937c0.202-1.148,0.775-2.025,1.721-2.633
			c1.013-0.743,2.025-1.08,3.038-1.013c0.945,0.203,1.79,0.81,2.532,1.823c0.743,0.945,1.08,1.891,1.013,2.836
			c-0.135,0.067-0.202,0.168-0.202,0.304c0,0.135,0,0.27,0,0.405l3.24,3.747l11.85,13.671 M515.82,82.037
			c-0.269,0.811-0.811,1.553-1.62,2.228c-0.674,0.473-1.451,0.709-2.33,0.709 M511.87,85.075l3.14,3.544l14.888,16.203
			 M544.277,114.95l-2.228-2.532 M544.378,115.052l0.204,0.101l0.303,0.506 M544.987,115.761l0.303,0.202v0.102 M538.911,114.545
			l0.202,0.304l0.911,0.912c0.54,0.337,1.047,0.574,1.52,0.708c0.473,0.203,0.911,0.305,1.315,0.305
			c0.743-0.068,1.555-0.305,2.431-0.709 M542.05,112.418l-0.405-0.506 M544.378,115.052l-0.101-0.102"/>
	</g>
</g>
</svg>
