
<svg xmlns="http://www.w3.org/2000/svg" version="1.1" xmlns:xlink="http://www.w3.org/1999/xlink" preserveAspectRatio="none" x="0px" y="0px" width="285px" height="427px" viewBox="0 0 285 427">
<defs>
<g id="Layer0_0_FILL">
<path fill="#7EC28B" stroke="none" d="
M 223.25 107.85
Q 218.3 105.85 214.75 106.35 213.2 106.55 211.85 106.8 206.65 107.65 200.3 108.25 175 111 141 110.7 107.85 110.45 82.2 107.55 77.95 106.9 74.1 106.45
L 74.05 106.45 73.7 106.4 73.65 106.4
Q 66.5 105.9 61.05 110.05 58.65 111.95 55.7 116.75 55.5 117.1 50.75 125.7
L 50.75 339.4
Q 61.8 350.45 88.8 356.35 113.65 361.75 144.6 361.55 175.05 361.3 199.5 355.8 225.5 349.75 234.95 339.4
L 234.95 125.7
Q 230.4 116.9 228.5 113.9 225.35 108.75 223.25 107.85 Z"/>

<path fill="#B3B3B3" stroke="none" d="
M 233.45 73
Q 223.8 77.05 197.45 79.5 172.75 81.9 142.4 82.15 70.65 82.6 50.1 73
L 50.1 99.25
Q 54.95 103.1 69.65 105.85 71.5 106.05 73.65 106.4
L 73.7 106.4 74.05 106.45 74.1 106.45
Q 77.95 106.9 82.2 107.55 107.85 110.45 141 110.7 175 111 200.3 108.25 206.65 107.65 211.85 106.8 213.2 106.55 214.75 106.35 215.15 106.15 215.4 106.15 228.3 103.65 233.45 99.25
L 233.45 73
M 197.45 79.5
Q 223.8 77.05 233.45 73 211.25 66 140.75 66 70.35 66 50.1 73 70.65 82.6 142.4 82.15 172.75 81.9 197.45 79.5 Z"/>
</g>

<path id="Layer0_0_1_STROKES" stroke="#000000" stroke-width="2" stroke-linejoin="round" stroke-linecap="round" fill="none" d="
M 50.1 73
Q 70.65 82.6 142.4 82.15 172.75 81.9 197.45 79.5 223.8 77.05 233.45 73 211.25 66 140.75 66 70.35 66 50.1 73
L 50.1 99.25
Q 54.95 103.1 69.65 105.85 71.5 106.05 73.65 106.4
L 73.7 106.4 74.05 106.45 74.1 106.45
Q 77.95 106.9 82.2 107.55 107.85 110.45 141 110.7 175 111 200.3 108.25 206.65 107.65 211.85 106.8 213.2 106.55 214.75 106.35 215.15 106.15 215.4 106.15 228.3 103.65 233.45 99.25
L 233.45 73
M 73.65 106.4
Q 66.5 105.9 61.05 110.05 58.65 111.95 55.7 116.75 55.5 117.1 50.75 125.7
L 50.75 339.4
Q 61.8 350.45 88.8 356.35 113.65 361.75 144.6 361.55 175.05 361.3 199.5 355.8 225.5 349.75 234.95 339.4
L 234.95 125.7
Q 230.4 116.9 228.5 113.9 225.35 108.75 223.25 107.85 218.3 105.85 214.75 106.35"/>
</defs>

<g transform="matrix( 1, 0, 0, 1, 0,0) ">
<use xlink:href="#Layer0_0_FILL"/>

<use xlink:href="#Layer0_0_1_STROKES"/>
</g>
</svg>
