<svg xmlns="http://www.w3.org/2000/svg" xmlns:xlink="http://www.w3.org/1999/xlink" preserveAspectRatio="none" width="285" height="427" viewBox="0 0 285 427"><defs><g id="a"><path fill="#7EC28B" d="M223.25 107.85q-4.95-2-8.5-1.5-1.55.2-2.9.45-5.2.85-11.55 1.45Q175 111 141 110.7q-33.15-.25-58.8-3.15-4.25-.65-8.1-1.1h-.05l-.35-.05h-.05q-7.15-.5-12.6 3.65-2.4 1.9-5.35 6.7-.2.35-4.95 8.95v213.7q11.05 11.05 38.05 16.95 24.85 5.4 55.8 5.2 30.45-.25 54.9-5.75 26-6.05 35.45-16.4V125.7q-4.55-8.8-6.45-11.8-3.15-5.15-5.25-6.05z"/><path fill="#B3B3B3" d="M233.45 73q-9.65 4.05-36 6.5-24.7 2.4-55.05 2.65-71.75.45-92.3-9.15v26.25q4.85 3.85 19.55 6.6 1.85.2 4 .55h.05l.35.05h.05q3.85.45 8.1 1.1 25.65 2.9 58.8 3.15 34 .3 59.3-2.45 6.35-.6 11.55-1.45 1.35-.25 2.9-.45.4-.2.65-.2 12.9-2.5 18.05-6.9V73m-36 6.5q26.35-2.45 36-6.5-22.2-7-92.7-7-70.4 0-90.65 7 20.55 9.6 92.3 9.15 30.35-.25 55.05-2.65z"/></g><path id="b" stroke="#000" stroke-width="2" stroke-linejoin="round" stroke-linecap="round" fill="none" d="M50.1 73q20.55 9.6 92.3 9.15 30.35-.25 55.05-2.65 26.35-2.45 36-6.5-22.2-7-92.7-7-70.4 0-90.65 7v26.25q4.85 3.85 19.55 6.6 1.85.2 4 .55h.05l.35.05h.05q3.85.45 8.1 1.1 25.65 2.9 58.8 3.15 34 .3 59.3-2.45 6.35-.6 11.55-1.45 1.35-.25 2.9-.45.4-.2.65-.2 12.9-2.5 18.05-6.9V73m-159.8 33.4q-7.15-.5-12.6 3.65-2.4 1.9-5.35 6.7-.2.35-4.95 8.95v213.7q11.05 11.05 38.05 16.95 24.85 5.4 55.8 5.2 30.45-.25 54.9-5.75 26-6.05 35.45-16.4V125.7q-4.55-8.8-6.45-11.8-3.15-5.15-5.25-6.05-4.95-2-8.5-1.5"/></defs><g><use xlink:href="#a"/><use xlink:href="#b"/></g></svg>