<?xml version="1.0" encoding="utf-8"?>
<!-- Generator: Adobe Illustrator 16.0.0, SVG Export Plug-In . SVG Version: 6.00 Build 0)  -->
<!DOCTYPE svg PUBLIC "-//W3C//DTD SVG 1.1//EN" "http://www.w3.org/Graphics/SVG/1.1/DTD/svg11.dtd">
<svg version="1.1" id="Layer_1" xmlns="http://www.w3.org/2000/svg" xmlns:xlink="http://www.w3.org/1999/xlink" x="0px" y="0px"
	 width="900px" height="450px" viewBox="0 0 900 450" enable-background="new 0 0 900 450" xml:space="preserve">
<g transform="matrix( 1, 0, 0, 1, 0,0) ">
	<g>
		<g id="Layer0_0_FILL">
			<path fill="#444D53" d="M524.466,422.656v0.117c0.078,0,0.195,0,0.352,0C524.661,422.695,524.544,422.656,524.466,422.656
				 M201.985,299.285c-6.587-1.02-12.937-2.037-19.053-3.058c-2.274,5.881-3.411,12.271-3.411,19.169
				c0,13.643,4.313,25.286,12.937,34.931c8.703,9.644,19.21,14.465,31.52,14.465c12.309,0,22.776-4.821,31.4-14.465
				c5.175-5.724,8.821-12.075,10.938-19.054c-17.641-1.568-35.087-3.291-52.335-5.175L201.985,299.285 M136.948,284.348
				c-1.96,5.49-3.294,11.173-3.999,17.053c-0.627,4.236-0.94,8.626-0.94,13.174c0,4.624,0.313,9.136,0.94,13.525
				c2.195,16.936,8.585,31.4,19.17,43.397c11.918,13.798,25.756,21.091,41.515,21.874l2.706-4.94
				c-9.566-3.841-18.229-10.033-25.992-18.581c-14.113-15.525-21.169-34.343-21.169-56.451c0-7.918,0.981-15.406,2.94-22.463
				c-4.077-0.707-7.997-1.451-11.761-2.235L136.948,284.348 M460.721,333.979c0-8.469,0.864-16.545,2.589-24.227
				c-9.567,0.391-18.975,0.666-28.226,0.822c-1.489,7.135-2.235,14.584-2.235,22.346c0,11.056,1.333,21.444,3.999,31.166
				c3.371,11.839,10.35,24.541,20.933,38.105c9.565,12.7,20.779,19.052,33.638,19.052c2.038,0,6.232,0.117,12.583,0.354
				c7.921,0.549,14.426,0.9,19.522,1.059c-18.346-4.86-32.498-13.566-42.455-26.11C467.504,379.298,460.721,358.44,460.721,333.979z
				"/>
			<path fill="#040809" d="M598.91,325.159l72.095-9.88c-0.078-2.664-0.117-5.331-0.117-7.998l-0.825-6.114l-72.917,9.879
				C598.01,315.67,598.598,320.374,598.91,325.159 M592.207,294.464l1.765-0.588c-3.999-28.934-11.329-56.179-21.992-81.739
				c-17.173-0.313-32.578,2.274-46.221,7.763l-11.29,21.64l-7.174,0.469l0.234,2.94c6.666-0.469,13.879-0.273,21.641,0.588h0.939
				c19.054,0,35.324,8.625,48.808,25.874C584.484,278.468,588.913,286.153,592.207,294.464 M739.217,232.249h0.354
				c6.741,0,12.427,7.563,17.053,22.696c2.898,8.233,4.938,17.446,6.114,27.639l2.353-0.234c0.313-27.128-1.488-53.158-5.409-78.092
				l-30.814,2.118l-9.644,25.874H739.217 M436.848,237.658c-0.393,2.901-1.02,5.49-1.882,7.762
				c-0.156,0.314-0.274,0.627-0.353,0.941c-3.92,9.251-12.035,13.799-24.345,13.643l49.043,4.351
				c9.408-9.565,21.602-15.641,36.575-18.229l-0.705-3.174L436.848,237.658z"/>
			<path fill="#3D4A5A" d="M518.702,204.375c13.801-5.332,31.793-7.958,53.982-7.88l-47.631-10.584
				c-23.758,1.098-45.359,4.43-64.802,9.997L518.702,204.375 M765.679,202.964c-0.627-2.744-1.215-5.528-1.764-8.35l-40.929,3.293
				l-31.754,84.442h9.057l18.935-50.101l9.644-25.874l30.814-2.118c3.921,24.934,5.722,50.964,5.409,78.092
				c5.017-28.305,5.214-54.648,0.588-79.033c0-0.078,0-0.156,0-0.235V202.964 M763.915,194.614l-10.938-5.88l-8.35-4.704
				l-41.868,5.645l20.228,8.232L763.915,194.614 M151.414,191.438l50.219-2.117c0.548-3.607,1.49-6.939,2.822-9.997L151.414,191.438
				 M451.431,274l26.463,1.764l3.997,0.234l23.287-7.645l-20.11-1.764l-25.757-2.235l-49.043-4.351l-192.17-9.525
				c-2.745-0.081-5.214-0.589-7.41-1.53l-32.107,0.117h-18.699h-5.999v6.234l17.289,1.059l101.26,6.352l5.292,0.352L451.431,274
				 M495.181,242.951h0.471l11.644-0.942l7.174-0.469l11.29-21.64c13.643-5.489,29.048-8.076,46.221-7.763
				c10.663,25.56,17.993,52.805,21.992,81.739c0.627-26.188-3.372-54.178-11.995-83.973l-9.292-13.408
				c-22.189-0.078-40.182,2.548-53.982,7.88C511.802,211.274,503.963,224.133,495.181,242.951z"/>
			<path fill="#303536" d="M686.177,283.172l-92.205,10.704l-1.765,0.588c2.118,5.329,3.763,10.858,4.938,16.582l72.917-9.879
				l0.942-0.117L685,299.168L686.177,283.172 M481.302,298.932l-0.588,10.233c15.055-7.213,23.012-13.488,23.876-18.817
				L481.302,298.932 M424.381,310.692l-10.232,27.521c-15.131-0.234-30.107-0.627-44.925-1.176
				c8.938,20.62,30.107,29.99,63.508,28.108l4.116-1.059c-2.666-9.722-3.999-20.11-3.999-31.166c0-7.762,0.746-15.211,2.235-22.346
				C431.476,310.653,427.909,310.692,424.381,310.692 M414.148,338.213l10.232-27.521c-46.259,0.705-89.813-0.195-130.662-2.704
				c-8.859-0.471-17.524-1.02-25.992-1.646c-22.894-1.803-44.808-4.155-65.742-7.057l11.996,26.813
				c17.249,1.884,34.694,3.606,52.335,5.175c8.467,0.549,17.013,1.138,25.638,1.765c25.167,1.646,50.924,2.979,77.269,3.999
				C384.042,337.586,399.017,337.979,414.148,338.213 M481.302,298.932c-5.173,0.236-10.27,0.51-15.288,0.824
				c-3.058,0.156-12.781,0.352-29.166,0.588c-23.287,0.313-57.472-0.471-102.554-2.352c-37.321-1.569-60.176-2.745-68.565-3.528
				c-18.348-1.254-31.912-2.274-40.693-3.06c-15.054-1.332-27.874-2.743-38.458-4.233c-3.136-0.393-8.625-1.018-16.465-1.882
				c-6.743-0.627-11.995-1.293-15.759-1.998c-5.411-1.098-10.703-2.157-15.877-3.177c-0.627,1.335-1.137,2.745-1.529,4.233
				l3.41,4.353c3.764,0.784,7.684,1.528,11.761,2.235c10.036,2.037,20.307,3.802,30.813,5.292
				c6.116,1.021,12.466,2.038,19.053,3.058c20.934,2.901,42.849,5.254,65.742,7.057c8.468,0.627,17.132,1.176,25.992,1.646
				c40.849,2.509,84.403,3.409,130.662,2.704c3.528,0,7.095-0.039,10.703-0.117c9.251-0.156,18.659-0.432,28.226-0.822
				c5.644-0.236,11.446-0.432,17.404-0.588L481.302,298.932 M481.891,275.998l-0.589,22.934l23.288-8.584l0.588-21.994
				L481.891,275.998z"/>
			<path fill="#404748" d="M700.289,282.35h-9.057l-5.056,0.822L685,299.168l-13.995,1.882c-0.078,2.037-0.117,4.116-0.117,6.231
				c0,2.667,0.039,5.334,0.117,7.998c0.549,17.015,2.822,31.832,6.822,44.457c4.86,14.425,10.621,21.638,17.287,21.638h43.28
				c-6.272-0.939-11.604-8.154-15.996-21.638c-2.196-6.822-3.841-14.27-4.938-22.346c-1.411-9.252-2.118-19.288-2.118-30.109
				c0-10.897,0.707-20.933,2.118-30.107c1.098-8.074,2.742-15.484,4.938-22.229c4.94-14.896,10.548-22.462,16.818-22.696h-19.993
				L700.289,282.35z"/>
			<path fill="#5C6E86" d="M722.986,197.907l-20.228-8.232l-35.636,93.028l24.109-0.354L722.986,197.907 M201.044,227.073
				l0.588-37.751l-50.219,2.117l-7.645,32.695L201.044,227.073 M460.252,195.908c-9.252,10.976-17.054,24.894-23.404,41.75
				l58.333,5.293c8.782-18.818,16.621-31.677,23.521-38.576L460.252,195.908 M481.302,298.932l0.589-22.934l-3.997-0.234
				L451.431,274l-173.707-10.938l-5.292-0.352l-101.26-6.352l-17.289-1.059l-20.934-1.294h-0.824v24.815
				c0.236,0.078,0.51,0.156,0.824,0.234c1.803,0.393,3.646,0.744,5.528,1.059c5.174,1.02,10.466,2.079,15.877,3.177
				c3.764,0.705,9.016,1.371,15.759,1.998c7.841,0.864,13.33,1.489,16.465,1.882c10.584,1.49,23.404,2.901,38.458,4.233
				c8.781,0.785,22.345,1.806,40.693,3.06c8.389,0.783,31.244,1.959,68.565,3.528c45.083,1.881,79.267,2.664,102.554,2.352
				c16.385-0.236,26.108-0.432,29.166-0.588C471.032,299.441,476.129,299.168,481.302,298.932z"/>
			<path fill="#091918" d="M739.571,232.249h-0.354c-6.271,0.234-11.878,7.801-16.818,22.696
				c-2.196,6.744-3.841,14.154-4.938,22.229c-1.411,9.175-2.118,19.21-2.118,30.107c0,10.821,0.707,20.857,2.118,30.109
				c1.098,8.076,2.742,15.523,4.938,22.346c4.392,13.483,9.724,20.698,15.996,21.638h2.353c6.349-0.861,11.642-8.076,15.877-21.638
				c4.938-14.506,7.408-31.991,7.408-52.455c0-8.857-0.43-17.09-1.294-24.697c-1.176-10.192-3.216-19.405-6.114-27.639
				C751.998,239.813,746.313,232.249,739.571,232.249 M740.394,258.006c4.548,0,8.311,4.821,11.289,14.464
				c3.136,9.646,4.705,21.209,4.705,34.694c0,13.564-1.569,25.169-4.705,34.812c-2.979,9.564-6.741,14.35-11.289,14.35
				c-4.471,0-8.311-4.785-11.526-14.35c-2.978-9.799-4.468-21.403-4.468-34.812s1.49-24.971,4.468-34.694
				C732.083,262.827,735.923,258.006,740.394,258.006 M182.932,296.228c-10.507-1.49-20.778-3.255-30.813-5.292
				c-1.959,7.057-2.94,14.545-2.94,22.463c0,22.108,7.057,40.926,21.169,56.451c7.763,8.548,16.426,14.74,25.992,18.581
				c7.762,3.216,16.151,4.824,25.167,4.824c2.43,0,4.782-0.12,7.056-0.354c16.936-1.646,31.637-9.33,44.103-23.051
				c9.801-10.743,16.23-23.014,19.288-36.812c-8.625-0.627-17.171-1.216-25.638-1.765c-2.118,6.979-5.763,13.33-10.938,19.054
				c-8.624,9.644-19.092,14.465-31.4,14.465c-12.31,0-22.816-4.821-31.52-14.465c-8.625-9.645-12.937-21.288-12.937-34.931
				C179.521,308.499,180.658,302.108,182.932,296.228 M204.454,244.01c-1.254-1.882-2.117-4.354-2.588-7.41
				c-8.389,2.511-16.151,6.663-23.286,12.466l32.107-0.117C208.021,247.853,205.944,246.203,204.454,244.01 M480.714,309.165
				c-5.958,0.156-11.761,0.352-17.404,0.588c-1.725,7.682-2.589,15.758-2.589,24.227c0,24.461,6.783,45.318,20.348,62.566
				c9.957,12.544,24.109,21.25,42.455,26.11c0.394,0,0.706,0,0.942,0c0.078,0,0.195,0.039,0.352,0.117
				c0.551-0.156,2.315-0.236,5.292-0.236c19.054,0,35.324-8.664,48.808-25.991c13.566-17.248,20.347-38.105,20.347-62.566
				c0-2.901-0.117-5.841-0.354-8.82c-0.313-4.785-0.9-9.489-1.765-14.113l-1.293,0.117l1.293-0.117
				c-1.176-5.724-2.82-11.253-4.938-16.582c-3.294-8.311-7.723-15.996-13.29-23.053c-13.483-17.249-29.754-25.874-48.808-25.874
				h-0.939c-4.548,0.078-8.938,0.666-13.174,1.764c-11.445,2.745-21.757,9.175-30.929,19.289l20.11,1.764l-0.588,21.994
				C503.726,295.677,495.769,301.952,480.714,309.165 M503.53,297.521c8.232-10.665,18.112-15.994,29.639-15.994
				c11.446,0,21.287,5.329,29.52,15.994c8.152,10.818,12.231,23.717,12.231,38.693c0,15.052-4.079,27.911-12.231,38.574
				c-8.232,10.665-18.073,15.994-29.52,15.994c-11.526,0-21.406-5.329-29.639-15.994c-8.074-10.663-12.112-23.522-12.112-38.574
				C491.418,321.238,495.456,308.34,503.53,297.521z"/>
			<path fill="#B0ACBD" d="M751.683,272.47c-2.979-9.643-6.741-14.464-11.289-14.464c-4.471,0-8.311,4.821-11.526,14.464
				c-2.978,9.724-4.468,21.286-4.468,34.694s1.49,25.013,4.468,34.812c3.216,9.564,7.056,14.35,11.526,14.35
				c4.548,0,8.311-4.785,11.289-14.35c3.136-9.643,4.705-21.247,4.705-34.812C756.388,293.679,754.818,282.115,751.683,272.47
				 M748.979,283.996c0.939,7.371,1.527,12.82,1.764,16.348c0.313,5.645,0.195,10.585-0.354,14.818l-8.703-7.881L748.979,283.996
				 M745.332,270.354l-7.879,20.698L734.278,274C737.885,269.137,741.569,267.924,745.332,270.354 M750.624,327.745
				c-3.292,12.544-7.135,20.188-11.524,22.934v-22.934H750.624 M734.983,312.339l-3.999,14.818c-1.725-8.152-1.725-16.779,0-25.873
				L734.983,312.339 M533.169,281.527c-11.526,0-21.406,5.329-29.639,15.994c-8.074,10.818-12.112,23.717-12.112,38.693
				c0,15.052,4.038,27.911,12.112,38.574c8.232,10.665,18.112,15.994,29.639,15.994c11.446,0,21.287-5.329,29.52-15.994
				c8.152-10.663,12.231-23.522,12.231-38.574c0-14.977-4.079-27.875-12.231-38.693
				C554.456,286.856,544.615,281.527,533.169,281.527 M567.627,320.926l-20.815,3.763l1.293-31.755
				C555.71,298.502,562.218,307.833,567.627,320.926 M544.576,348.327l25.286-7.174c-3.294,15.289-8.743,26.696-16.349,34.224
				L544.576,348.327 M524.583,328.217c1.881-2.196,4.116-3.294,6.702-3.294c2.509,0,4.668,1.098,6.469,3.294
				c1.962,2.195,2.94,4.704,2.94,7.527c0,0.314,0,0.588,0,0.822c0,0.236,0,0.471,0,0.705c0,3.06-0.979,5.685-2.94,7.881
				c-1.801,2.037-3.96,3.058-6.469,3.058c-2.586,0-4.821-1.021-6.702-3.058c-1.726-2.196-2.587-4.821-2.587-7.881
				c0-0.234,0-0.469,0-0.705c0-0.234,0-0.508,0-0.822C521.996,332.921,522.857,330.412,524.583,328.217 M513.998,339.035
				l-12.114,22.582c-3.763-11.056-5.056-23.758-3.88-38.105L513.998,339.035 M523.523,315.396l-18.229-11.29
				c8.938-9.408,18.346-14.778,28.226-16.111L523.523,315.396 M537.637,383.492c-10.191,0.863-19.052-1.998-26.579-8.586
				l16.349-16.817L537.637,383.492 M531.285,324.923c-2.586,0-4.821,1.098-6.702,3.294c-1.726,2.195-2.587,4.704-2.587,7.527
				c0,0.314,0,0.588,0,0.822c0.156-2.587,1.021-4.861,2.587-6.82c1.881-2.196,4.116-3.294,6.702-3.294
				c2.509,0,4.668,1.098,6.469,3.294c1.806,1.959,2.784,4.233,2.94,6.82c0-0.234,0-0.508,0-0.822c0-2.823-0.979-5.332-2.94-7.527
				C535.953,326.021,533.794,324.923,531.285,324.923z"/>
			<path fill="#808791" d="M730.984,327.157l3.999-14.818l-3.999-11.055C729.26,310.378,729.26,319.005,730.984,327.157
				 M739.1,350.679c4.39-2.745,8.232-10.39,11.524-22.934H739.1V350.679 M737.453,291.053l7.879-20.698
				c-3.763-2.431-7.447-1.218-11.054,3.646L737.453,291.053 M750.743,300.344c-0.236-3.527-0.824-8.977-1.764-16.348l-7.293,23.285
				l8.703,7.881C750.938,310.929,751.056,305.988,750.743,300.344 M511.058,374.906c7.527,6.588,16.388,9.449,26.579,8.586
				l-10.23-25.403L511.058,374.906 M505.295,304.106l18.229,11.29l9.997-27.401C523.641,289.328,514.232,294.698,505.295,304.106
				 M501.884,361.617l12.114-22.582l-15.994-15.523C496.828,337.859,498.121,350.562,501.884,361.617 M540.694,336.566
				c-0.156,2.744-1.135,5.136-2.94,7.173c-1.801,1.962-3.96,2.94-6.469,2.94c-2.586,0-4.821-0.979-6.702-2.94
				c-1.566-2.037-2.431-4.429-2.587-7.173c0,0.236,0,0.471,0,0.705c0,3.06,0.861,5.685,2.587,7.881
				c1.881,2.037,4.116,3.058,6.702,3.058c2.509,0,4.668-1.021,6.469-3.058c1.962-2.196,2.94-4.821,2.94-7.881
				C540.694,337.037,540.694,336.803,540.694,336.566 M531.285,326.452c-2.586,0-4.821,1.098-6.702,3.294
				c-1.566,1.959-2.431,4.233-2.587,6.82c0.156,2.744,1.021,5.136,2.587,7.173c1.881,1.962,4.116,2.94,6.702,2.94
				c2.509,0,4.668-0.979,6.469-2.94c1.806-2.037,2.784-4.429,2.94-7.173c-0.156-2.587-1.135-4.861-2.94-6.82
				C535.953,327.55,533.794,326.452,531.285,326.452 M569.862,341.153l-25.286,7.174l8.938,27.05
				C561.119,367.85,566.568,356.442,569.862,341.153 M546.812,324.688l20.815-3.763c-5.409-13.093-11.917-22.424-19.522-27.992
				L546.812,324.688z"/>
			<path fill="#5C6769" d="M193.634,393.371c8.704,0.472,13.838,0.745,15.407,0.823c5.018,0.158,9.212,0.08,12.584-0.234
				c2.43-0.315,4.744-0.669,6.938-1.06c-2.274,0.234-4.626,0.354-7.056,0.354c-9.016,0-17.406-1.608-25.167-4.824L193.634,393.371
				 M201.866,236.6c-0.392-1.491-0.627-3.058-0.705-4.704c-15.524,0.705-29.285,6.429-41.28,17.17h18.699
				C185.715,243.263,193.478,239.11,201.866,236.6 M459.311,264.354l25.757,2.235c9.172-10.114,19.483-16.544,30.929-19.289
				c4.236-1.098,8.626-1.686,13.174-1.764c-7.762-0.861-14.975-1.057-21.641-0.588c-4.077,0.236-7.956,0.629-11.644,1.176
				C480.912,248.714,468.719,254.789,459.311,264.354z"/>
			<path fill="#394046" d="M153.883,255.3v-6.234h-8.702l-13.056,4.94h0.824L153.883,255.3z"/>
			<path fill="#DB0D1D" d="M225.388,161.684c0.313-0.079,0.549-0.118,0.706-0.118c4.312-1.254,9.251-1.92,14.818-2l173.236,7.763
				l165.476-22.816c-0.629-7.135-92.166-12.31-274.615-15.524c-62.724,14.035-94.831,28.5-96.32,43.397
				c1.724-2.039,3.685-3.841,5.88-5.409C217.705,164.625,221.312,162.86,225.388,161.684 M208.688,172.386
				c-1.725,2.039-3.136,4.352-4.234,6.939c-1.332,3.058-2.274,6.389-2.822,9.997l-0.588,37.751c0,0.864,0,1.726,0,2.587
				c0,0.078,0,0.156,0,0.236c0,0.549,0.039,1.215,0.117,1.999c0.078,1.646,0.313,3.213,0.705,4.704
				c0.471,3.057,1.333,5.528,2.588,7.41c1.49,2.193,3.567,3.843,6.233,4.938c2.196,0.941,4.666,1.449,7.41,1.53l192.17,9.525
				c12.31,0.156,20.425-4.392,24.345-13.643c0.078-0.314,0.196-0.627,0.353-0.941c0.863-2.271,1.49-4.86,1.882-7.762l7.997-36.223
				c1.019-6.352,0.51-11.879-1.528-16.583c-2.588-5.488-7.331-9.8-14.231-12.937c-0.235-0.156-0.47-0.273-0.705-0.353
				c-3.999-1.803-8.743-3.215-14.231-4.233l-173.236-7.763c-5.567,0.079-10.507,0.745-14.818,2c-0.157,0-0.393,0.039-0.706,0.118
				c-4.076,1.176-7.684,2.94-10.819,5.292C212.373,168.544,210.413,170.347,208.688,172.386 M225.859,167.564
				c1.098-0.314,2.235-0.471,3.411-0.471c0.313,0,0.588,0,0.822,0c0.235,0,0.51,0,0.824,0c5.018,0,9.33,2.274,12.937,6.821
				c2.588,3.293,4.235,7.096,4.94,11.408c0.235,1.568,0.353,3.176,0.353,4.822c0,6.273-1.764,11.644-5.292,16.112
				c-3.606,4.626-7.919,6.939-12.937,6.939c-0.313,0-0.588,0-0.824,0c-0.234,0-0.509,0-0.822,0c-5.018,0-9.292-2.313-12.82-6.939
				c-3.528-4.469-5.292-9.839-5.292-16.112c0-6.351,1.764-11.761,5.292-16.23C219.194,170.466,222.331,168.348,225.859,167.564
				 M255.966,183.911c0.158-1.725,0.824-3.096,2-4.116c1.02-1.097,2.196-1.567,3.528-1.411c1.489,0.157,2.626,0.902,3.411,2.235
				c0.863,1.254,1.215,2.784,1.058,4.587l-4.586,47.514c-0.078,1.723-0.667,3.175-1.764,4.351c-1.098,1.176-2.313,1.646-3.647,1.41
				h-0.117c-1.333-0.234-2.43-1.02-3.293-2.352c-0.785-1.333-1.098-2.821-0.941-4.468L255.966,183.911 M276.195,184.618
				c0.157-1.803,0.785-3.215,1.882-4.234c1.097-1.097,2.273-1.568,3.528-1.412c1.41,0.235,2.586,0.981,3.528,2.235
				c0.862,1.333,1.215,2.862,1.058,4.587l-4.704,47.631c-0.078,1.647-0.627,3.058-1.646,4.233c-1.098,1.176-2.352,1.687-3.764,1.53
				h-0.118c-1.333-0.237-2.43-1.021-3.293-2.353c-0.783-1.332-1.098-2.862-0.94-4.587L276.195,184.618 M297.364,181.207
				c1.098-1.02,2.313-1.451,3.646-1.293c1.49,0.156,2.627,0.861,3.41,2.117c0.784,1.254,1.137,2.783,1.059,4.586l-4.587,47.631
				c-0.156,1.726-0.744,3.177-1.764,4.353c-1.176,1.177-2.43,1.646-3.764,1.411h-0.117c-1.333-0.234-2.43-1.021-3.293-2.353
				c-0.784-1.332-1.059-2.823-0.823-4.47l4.233-47.749C295.522,183.637,296.188,182.227,297.364,181.207 M340.644,181.089
				c1.412,0.234,2.549,0.98,3.411,2.234c0.863,1.255,1.215,2.784,1.059,4.587l-4.587,47.629c-0.157,1.728-0.745,3.177-1.764,4.354
				c-1.098,1.176-2.353,1.646-3.764,1.41h-0.117c-1.333-0.234-2.431-0.98-3.293-2.235c-0.628-1.41-0.901-2.977-0.824-4.704
				l4.352-47.63c0.156-1.803,0.783-3.215,1.881-4.234C338.096,181.403,339.312,180.932,340.644,181.089 M315.358,186.028
				c0.08-1.725,0.707-3.096,1.882-4.116c0.941-1.097,2.078-1.567,3.41-1.41c1.412,0.156,2.548,0.861,3.411,2.117
				c0.862,1.332,1.215,2.861,1.059,4.586l-4.47,47.748c-0.156,1.647-0.783,3.097-1.881,4.354c-0.94,1.096-2.117,1.527-3.528,1.293
				h-0.117c-1.489-0.156-2.626-0.9-3.411-2.235c-0.785-1.332-1.137-2.859-1.059-4.587L315.358,186.028 M356.051,187.558
				c0.236-1.725,0.902-3.136,2-4.234c1.097-1.019,2.312-1.49,3.645-1.412c1.412,0.236,2.549,0.981,3.411,2.235
				c0.783,1.254,1.097,2.784,0.941,4.587l-4.469,47.749c-0.158,1.725-0.746,3.138-1.765,4.233c-1.098,1.176-2.352,1.646-3.764,1.412
				h-0.118c-1.332-0.155-2.43-0.902-3.292-2.234c-0.784-1.413-1.098-2.94-0.941-4.587L356.051,187.558 M377.809,184.852
				c1.098-1.097,2.313-1.568,3.646-1.411c1.333,0.234,2.43,0.98,3.292,2.234c0.863,1.255,1.216,2.784,1.059,4.587l-4.469,47.63
				c-0.158,1.806-0.785,3.255-1.883,4.353c-1.019,1.096-2.233,1.528-3.645,1.294h-0.117c-1.333-0.156-2.471-0.9-3.411-2.235
				c-0.785-1.332-1.098-2.859-0.941-4.587l4.586-47.63C376.005,187.283,376.632,185.872,377.809,184.852 M418.736,175.679
				c2.666,0,5.135,0.549,7.409,1.647c2.274,1.097,4.43,2.705,6.468,4.822c3.686,4.313,5.528,9.488,5.528,15.524
				c0,5.958-1.842,11.133-5.528,15.524c-3.92,4.233-8.546,6.35-13.877,6.35c-5.41,0-9.997-2.117-13.76-6.35
				c-3.92-4.391-5.88-9.566-5.88-15.524c0-6.037,1.96-11.212,5.88-15.524C408.739,177.834,413.326,175.679,418.736,175.679
				 M413.326,231.424c1.803-1.959,4.076-2.939,6.821-2.939c2.43,0,4.547,0.98,6.35,2.939c1.882,2.04,2.823,4.549,2.823,7.527
				c0,1.491-0.196,2.823-0.588,4c-0.549,1.176-1.293,2.273-2.235,3.293c-1.803,2.038-3.92,3.058-6.35,3.058
				c-2.745,0-5.018-1.02-6.821-3.058c-1.882-1.961-2.823-4.392-2.823-7.293C410.503,235.973,411.444,233.464,413.326,231.424
				 M223.624,221.898c1.96,2.196,2.94,4.743,2.94,7.645c0,1.49-0.234,2.901-0.705,4.233c-0.549,1.098-1.293,2.118-2.235,3.06
				c-1.803,2.115-3.959,3.175-6.469,3.175c-2.586,0-4.782-1.06-6.585-3.175c-0.705-0.629-1.254-1.296-1.647-2.001
				c-0.548-0.939-0.901-1.92-1.058-2.939c-0.157-0.862-0.235-1.647-0.235-2.353c0-2.901,0.979-5.449,2.94-7.645
				c1.803-2.038,3.999-3.058,6.585-3.058C219.665,218.841,221.821,219.861,223.624,221.898 M607.967,40.43
				c0-2.039-0.746-3.803-2.234-5.292c-1.41-1.332-3.646-2.666-6.703-3.998l-133.133-2.471l-108.552-2
				c-9.331-0.313-15.484,3.489-18.465,11.408l-33.871,90.911c182.449,3.215,273.986,8.39,274.615,15.524
				c5.725,3.372,8.506,8.507,8.35,15.407l9.88-58.099l4.821-28.697l4.938-29.284C607.85,42.979,607.967,41.841,607.967,40.43
				 M585.856,38.901c6.194,0.471,9.213,3.45,9.057,8.938l-11.173,78.328l-268.146-8.233l27.638-76.797
				c0.078-0.158,0.196-0.354,0.353-0.588c2.039-4.626,5.959-6.625,11.761-5.999c35.204-0.392,72.054-0.235,110.552,0.471
				C504.313,35.726,544.301,37.02,585.856,38.901 M639.367,114.287l16.819-7.173c-13.018-2.117-25.208-2.469-36.575-1.059
				l-7.177,7.88L639.367,114.287z"/>
			<path fill="#FF5E21" d="M226.564,229.543c0-2.901-0.979-5.449-2.94-7.645c-1.803-2.038-3.959-3.058-6.469-3.058
				c-2.586,0-4.782,1.02-6.585,3.058c-1.96,2.196-2.94,4.743-2.94,7.645c0,0.705,0.078,1.49,0.235,2.353
				c0.156,1.02,0.51,2,1.058,2.939c0.393,0.705,0.942,1.372,1.647,2.001c1.803,2.115,3.999,3.175,6.585,3.175
				c2.51,0,4.666-1.06,6.469-3.175c0.941-0.941,1.686-1.962,2.235-3.06C226.33,232.444,226.564,231.033,226.564,229.543
				 M420.147,228.484c-2.745,0-5.018,0.98-6.821,2.939c-1.882,2.04-2.823,4.549-2.823,7.527c0,2.901,0.94,5.332,2.823,7.293
				c1.803,2.038,4.076,3.058,6.821,3.058c2.43,0,4.547-1.02,6.35-3.058c0.942-1.02,1.686-2.117,2.235-3.293
				c0.392-1.177,0.588-2.509,0.588-4c0-2.979-0.94-5.487-2.823-7.527C424.694,229.465,422.578,228.484,420.147,228.484z"/>
			<path fill="#FFFDDD" d="M426.145,177.326c-2.274-1.098-4.744-1.647-7.409-1.647c-5.41,0-9.997,2.156-13.76,6.469
				c-3.92,4.313-5.88,9.488-5.88,15.524c0,5.958,1.96,11.133,5.88,15.524c3.764,4.233,8.351,6.35,13.76,6.35
				c5.332,0,9.958-2.117,13.877-6.35c3.686-4.391,5.528-9.566,5.528-15.524c0-6.037-1.842-11.212-5.528-15.524
				C430.575,180.03,428.419,178.422,426.145,177.326 M229.27,167.094c-1.176,0-2.313,0.156-3.411,0.471
				c-3.528,0.783-6.665,2.901-9.409,6.35c-3.528,4.469-5.292,9.879-5.292,16.23c0,6.273,1.764,11.644,5.292,16.112
				c3.528,4.626,7.802,6.939,12.82,6.939c0.313,0,0.588,0,0.822,0c4.705-0.235,8.743-2.549,12.115-6.939
				c3.528-4.469,5.292-9.839,5.292-16.112c0-1.646-0.079-3.254-0.235-4.822c-0.706-4.313-2.391-8.115-5.057-11.408
				c-3.372-4.391-7.41-6.665-12.115-6.821C229.858,167.094,229.583,167.094,229.27,167.094z"/>
			<path fill="#1E3138" d="M381.454,183.441c-1.333-0.157-2.548,0.313-3.646,1.411c-1.176,1.02-1.803,2.431-1.882,4.234
				l-4.586,47.63c-0.157,1.728,0.156,3.255,0.941,4.587c0.94,1.335,2.078,2.079,3.411,2.235h0.117
				c1.412,0.234,2.626-0.198,3.645-1.294c1.098-1.098,1.725-2.547,1.883-4.353l4.469-47.63c0.157-1.803-0.196-3.332-1.059-4.587
				C383.884,184.421,382.787,183.676,381.454,183.441 M358.051,183.323c-1.098,1.098-1.764,2.51-2,4.234l-4.352,47.749
				c-0.157,1.646,0.157,3.174,0.941,4.587c0.862,1.332,1.96,2.079,3.292,2.234h0.118c1.412,0.234,2.666-0.236,3.764-1.412
				c1.019-1.096,1.607-2.509,1.765-4.233l4.469-47.749c0.156-1.803-0.158-3.333-0.941-4.587c-0.862-1.254-2-2-3.411-2.235
				C360.362,181.833,359.147,182.305,358.051,183.323 M317.24,181.912c-1.176,1.02-1.803,2.391-1.882,4.116l-4.704,47.749
				c-0.078,1.728,0.274,3.255,1.059,4.587c0.784,1.335,1.921,2.079,3.411,2.235h0.117c1.412,0.234,2.588-0.197,3.528-1.293
				c1.098-1.257,1.725-2.706,1.881-4.354l4.47-47.748c0.156-1.725-0.197-3.254-1.059-4.586c-0.863-1.255-2-1.96-3.411-2.117
				C319.318,180.344,318.181,180.815,317.24,181.912 M344.055,183.323c-0.862-1.254-2-2-3.411-2.234
				c-1.332-0.157-2.547,0.313-3.645,1.411c-1.098,1.02-1.725,2.431-1.881,4.234l-4.352,47.63c-0.078,1.728,0.195,3.294,0.824,4.704
				c0.862,1.255,1.959,2.001,3.293,2.235h0.117c1.411,0.236,2.666-0.234,3.764-1.41c1.019-1.177,1.606-2.626,1.764-4.354
				l4.587-47.629C345.27,186.107,344.917,184.579,344.055,183.323 M301.011,179.914c-1.333-0.158-2.548,0.273-3.646,1.293
				c-1.176,1.02-1.842,2.43-2,4.233l-4.233,47.749c-0.235,1.646,0.039,3.138,0.823,4.47c0.863,1.332,1.959,2.118,3.293,2.353h0.117
				c1.333,0.234,2.587-0.234,3.764-1.411c1.02-1.176,1.608-2.627,1.764-4.353l4.587-47.631c0.078-1.803-0.274-3.332-1.059-4.586
				C303.638,180.775,302.5,180.069,301.011,179.914 M278.077,180.383c-1.098,1.02-1.725,2.431-1.882,4.234l-4.469,47.631
				c-0.157,1.725,0.157,3.255,0.94,4.587c0.863,1.332,1.96,2.115,3.293,2.353h0.118c1.412,0.156,2.666-0.354,3.764-1.53
				c1.019-1.176,1.568-2.586,1.646-4.233l4.704-47.631c0.157-1.725-0.195-3.255-1.058-4.587c-0.942-1.254-2.118-2-3.528-2.235
				C280.35,178.815,279.174,179.286,278.077,180.383 M257.966,179.795c-1.176,1.02-1.842,2.392-2,4.116l-4.351,47.75
				c-0.157,1.646,0.156,3.135,0.941,4.468c0.863,1.332,1.959,2.117,3.293,2.352h0.117c1.333,0.236,2.549-0.234,3.647-1.41
				c1.098-1.176,1.686-2.628,1.764-4.351l4.586-47.514c0.157-1.803-0.195-3.333-1.058-4.587c-0.784-1.333-1.921-2.078-3.411-2.235
				C260.162,178.228,258.985,178.698,257.966,179.795z"/>
			<path fill="#B50B17" d="M658.422,161.213v8.35l18.463-1.646c0-0.392,0-0.784,0-1.176c-0.156-2.353-0.313-4.744-0.471-7.175
				c-0.078-0.234-0.117-0.431-0.117-0.588L658.422,161.213 M612.435,135.811l26.933,0.588v-22.111l-26.933-0.353V135.811
				 M626.313,139.927v1.646l29.873,0.941l-10.585-3.763l-6.234-2.352l-26.933-0.588l3.648,4.938L626.313,139.927z"/>
			<path fill="#9A0A14" d="M587.974,159.92c-0.08,2.666-0.588,5.606-1.529,8.821l-143.128,16.111
				c2.039,4.704,2.547,10.232,1.528,16.583l-7.997,36.223c6.35-16.856,14.152-30.774,23.404-41.75
				c19.442-5.567,41.044-8.899,64.802-9.997l47.631,10.584l9.292,13.408c8.623,29.795,12.622,57.784,11.995,83.973l92.205-10.704
				l5.056-0.822l-24.109,0.354l35.636-93.028l41.868-5.645l8.35,4.704v-33.636l-33.519,2l-16.465,0.94l-26.462,1.529
				c0.156,2.431,0.314,4.822,0.471,7.175c0.861,15.916,1.569,32.498,2.118,49.748l-17.524,56.098l-61.39,7.057l-2.353-177.822
				L587.974,159.92 M587.974,159.92c0.156-6.9-2.625-12.035-8.35-15.407l-165.476,22.816c5.489,1.019,10.232,2.43,14.231,4.233
				c0.235,0.079,0.47,0.196,0.705,0.353c6.9,3.137,11.644,7.449,14.231,12.937l143.128-16.111
				C587.386,165.526,587.894,162.586,587.974,159.92z"/>
			<path fill="#1D384D" d="M594.913,47.839c0.156-5.488-2.862-8.467-9.057-8.938c-41.556-1.881-81.543-3.176-119.96-3.881
				c-38.498-0.707-75.348-0.863-110.552-0.471c-5.801-0.627-9.722,1.373-11.761,5.999c-0.156,0.234-0.274,0.431-0.353,0.588
				l-27.638,76.797l268.146,8.233L594.913,47.839 M583.033,46.075c2.667,0.863,4.079,2.979,4.235,6.351l-2.823,20.699l-5.058,36.341
				c-1.254,5.489-4.86,8.311-10.819,8.468l-236.627-6.704c-3.059-0.941-4.469-2.862-4.234-5.763l11.408-32.342l9.879-28.696
				c2.039-3.372,4.704-4.743,7.997-4.116C430.849,39.528,506.197,41.45,583.033,46.075z"/>
			<path fill="#DFE1EC" d="M587.269,52.426c-0.156-3.372-1.568-5.488-4.235-6.351c-76.836-4.625-152.184-6.546-226.042-5.762
				c-3.293-0.627-5.958,0.744-7.997,4.116l-9.879,28.696l-11.408,32.342l4.234,5.763l236.627,6.704
				c5.959-0.157,9.565-2.979,10.819-8.468l5.058-36.341L587.269,52.426 M649.718,48.074l-32.93,0.353
				c-2.901,1.803-4.821,4.979-5.764,9.527l-1.764,15.171l-4.351,34.225v33.988l11.173-0.588l-3.648-4.938v-21.876l7.177-7.88
				c11.367-1.41,23.558-1.058,36.575,1.059c1.568,10.271,1.764,20.503,0.588,30.695l9.292-0.588l-4.941-79.267
				C661.986,51.211,658.185,47.918,649.718,48.074z"/>
			<path fill="#2F3946" d="M665.595,41.136c0.783,5.018,1.491,10.153,2.116,15.406h26.462c6.351,0,9.291,4.233,8.82,12.701v88.794
				l16.465-0.94l-1.176-90.558c0.156-17.092-6.938-25.561-21.287-25.403H665.595z"/>
			<path fill="#79070F" d="M665.595,41.136l-57.628-0.707c0,1.412-0.117,2.549-0.354,3.411l-4.938,29.284l-4.821,28.697
				l2.353,177.822l61.39-7.057l17.524-56.098c-0.549-17.25-1.257-33.832-2.118-49.748h-0.117c0,0.392,0,0.784,0,1.176l-18.463,1.646
				v-8.35l17.875-2.235c0,0.158,0.039,0.354,0.117,0.588h0.117c-1.801-31.439-4.116-60.253-6.938-86.442
				c-0.629-5.723-1.254-11.251-1.883-16.582C667.086,51.289,666.378,46.154,665.595,41.136 M616.788,48.427l32.93-0.353
				c8.467-0.156,12.269,3.137,11.407,9.879l4.941,79.267l-9.292,0.588c-0.158,1.647-0.354,3.215-0.588,4.705l-29.873-0.941v9.762
				v9.644l-21.052,3.999c-2.745-3.92-2.86-8.743-0.352-14.466h11.523v-9.292l-0.351-0.471l-11.173,0.588v-33.988l4.351-34.225
				l1.764-15.171C611.967,53.406,613.887,50.23,616.788,48.427 M626.313,151.334l-9.88-0.823H604.91
				c-2.509,5.723-2.394,10.546,0.352,14.466l21.052-3.999V151.334 M626.313,141.572l-9.88-0.353v9.292l9.88,0.823V141.572
				 M616.083,140.749l0.351,0.471l9.88,0.353v-1.646L616.083,140.749 M656.187,107.114l-16.819,7.173v22.111l6.234,2.352
				l10.585,3.763c0.234-1.49,0.43-3.057,0.588-4.705C657.95,127.617,657.755,117.385,656.187,107.114z"/>
		</g>
	</g>
	<g>
		<path id="Layer0_0_1_STROKES" fill="none" stroke="#000000" stroke-width="2" stroke-linecap="round" stroke-linejoin="round" d="
			M607.967,40.43l57.628,0.707h31.4c14.35-0.158,21.443,8.311,21.287,25.403l1.176,90.558l33.519-2v33.636l10.938,5.88
			c0.549,2.822,1.137,5.606,1.764,8.35v0.117c0,0.08,0,0.157,0,0.235c4.626,24.385,4.429,50.729-0.588,79.033 M762.738,282.584
			c0.864,7.607,1.294,15.84,1.294,24.697c0,20.464-2.47,37.949-7.408,52.455c-4.235,13.562-9.528,20.776-15.877,21.638h-2.353
			h-43.28c-6.666,0-12.427-7.213-17.287-21.638c-4-12.625-6.273-27.442-6.822-44.457l-72.095,9.88
			c0.236,2.979,0.354,5.919,0.354,8.82c0,24.461-6.78,45.318-20.347,62.566c-13.483,17.327-29.754,25.991-48.808,25.991
			c-2.977,0-4.741,0.08-5.292,0.236v0.117c-0.156,0-0.273-0.039-0.352-0.117c-0.236,0-0.549-0.039-0.942-0.117
			c-5.097-0.158-11.602-0.51-19.522-1.059c-6.351-0.236-10.545-0.354-12.583-0.354c-12.858,0-24.072-6.352-33.638-19.052
			c-10.583-13.564-17.562-26.267-20.933-38.105 M432.731,365.146c-33.401,1.882-54.57-7.488-63.508-28.108
			c-26.344-1.02-52.101-2.353-77.269-3.999c-3.058,13.798-9.487,26.068-19.288,36.812c-12.466,13.721-27.167,21.404-44.103,23.051
			c-2.194,0.391-4.508,0.744-6.938,1.06c-3.372,0.314-7.566,0.393-12.584,0.234c-1.569-0.078-6.704-0.352-15.407-0.823
			c-15.759-0.783-29.597-8.076-41.515-21.874c-10.585-11.997-16.975-26.462-19.17-43.397c-0.627-4.39-0.94-8.901-0.94-13.525
			c0-4.548,0.313-8.938,0.94-13.174c0.705-5.88,2.039-11.563,3.999-17.053l-4.823-5.526v-24.815l13.056-4.94h8.702h5.999
			c11.995-10.741,25.755-16.465,41.28-17.17c-0.078-0.784-0.117-1.45-0.117-1.999c0-0.08,0-0.158,0-0.236c0-0.861,0-1.723,0-2.587
			l-57.275-2.94l7.645-32.695l53.041-12.113c1.098-2.587,2.509-4.9,4.234-6.939c1.49-14.897,33.597-29.363,96.32-43.397
			l33.871-90.911c2.98-7.919,9.134-11.722,18.465-11.408l108.552,2l133.133,2.471c3.058,1.332,5.293,2.666,6.703,3.998
			c1.488,1.49,2.234,3.254,2.234,5.292c0,1.412-0.117,2.549-0.354,3.411l-4.938,29.284l-4.821,28.697l2.353,177.822l61.39-7.057
			l17.524-56.098c-0.549-17.25-1.257-33.832-2.118-49.748 M676.885,166.741c0,0.392,0,0.784,0,1.176l-18.463,1.646v-8.35
			l17.875-2.235c0,0.158,0.039,0.354,0.117,0.588 M676.531,159.566c-1.801-31.439-4.116-60.253-6.938-86.442
			c-0.629-5.723-1.254-11.251-1.883-16.582c-0.625-5.253-1.333-10.389-2.116-15.406 M656.187,107.114
			c1.568,10.271,1.764,20.503,0.588,30.695l9.292-0.588l-4.941-79.267c0.861-6.743-2.94-10.036-11.407-9.879l-32.93,0.353
			c-2.901,1.803-4.821,4.979-5.764,9.527l-1.764,15.171l-4.351,34.225v33.988l11.173-0.588l-3.648-4.938v-21.876l7.177-7.88
			C630.979,104.645,643.169,104.997,656.187,107.114l-16.819,7.173v22.111l6.234,2.352l10.585,3.763
			c0.234-1.49,0.43-3.057,0.588-4.705 M331.941,111.23l236.627,6.704c5.959-0.157,9.565-2.979,10.819-8.468l5.058-36.341
			l2.823-20.699c-0.156-3.372-1.568-5.488-4.235-6.351c-76.836-4.625-152.184-6.546-226.042-5.762
			c-3.293-0.627-5.958,0.744-7.997,4.116l-9.879,28.696l-11.408,32.342C327.473,108.368,328.883,110.289,331.941,111.23z
			 M587.974,159.92c0.156-6.9-2.625-12.035-8.35-15.407l-165.476,22.816c5.489,1.019,10.232,2.43,14.231,4.233
			c0.235,0.079,0.47,0.196,0.705,0.353c6.9,3.137,11.644,7.449,14.231,12.937l143.128-16.111
			C587.386,165.526,587.894,162.586,587.974,159.92l9.88-58.099 M616.083,140.749l0.351,0.471l9.88,0.353 M626.313,160.978v-9.644
			l-9.88-0.823H604.91c-2.509,5.723-2.394,10.546,0.352,14.466L626.313,160.978z M616.434,150.511v-9.292 M626.313,141.572v9.762
			 M676.414,159.566c0.158,2.431,0.314,4.822,0.471,7.175 M626.313,141.572l29.873,0.941 M639.367,136.398l-26.933-0.588
			 M639.367,114.287l-26.933-0.353 M594.913,47.839l-11.173,78.328l-268.146-8.233l27.638-76.797
			c0.078-0.158,0.196-0.354,0.353-0.588c2.039-4.626,5.959-6.625,11.761-5.999c35.204-0.392,72.054-0.235,110.552,0.471
			c38.417,0.705,78.404,2,119.96,3.881C592.051,39.372,595.069,42.351,594.913,47.839z M667.711,56.542h26.462
			c6.351,0,9.291,4.233,8.82,12.701v88.794l16.465-0.94 M702.993,158.038l-26.462,1.529 M230.092,213.196c-0.234,0-0.509,0-0.822,0
			c-5.018,0-9.292-2.313-12.82-6.939c-3.528-4.469-5.292-9.839-5.292-16.112c0-6.351,1.764-11.761,5.292-16.23
			c2.744-3.449,5.88-5.567,9.409-6.35c1.098-0.314,2.235-0.471,3.411-0.471c0.313,0,0.588,0,0.822,0 M230.092,213.196
			c4.705-0.235,8.743-2.549,12.115-6.939c3.528-4.469,5.292-9.839,5.292-16.112c0-1.646-0.079-3.254-0.235-4.822
			c-0.706-4.313-2.391-8.115-5.057-11.408c-3.372-4.391-7.41-6.665-12.115-6.821 M414.148,167.329l-173.236-7.763
			c-5.567,0.079-10.507,0.745-14.818,2c-0.157,0-0.393,0.039-0.706,0.118c-4.076,1.176-7.684,2.94-10.819,5.292
			c-2.196,1.568-4.156,3.371-5.88,5.409 M264.905,180.619c-0.784-1.333-1.921-2.078-3.411-2.235
			c-1.333-0.156-2.509,0.314-3.528,1.411c-1.176,1.02-1.842,2.392-2,4.116l-4.351,47.75c-0.157,1.646,0.156,3.135,0.941,4.468
			c0.863,1.332,1.959,2.117,3.293,2.352h0.117c1.333,0.236,2.549-0.234,3.647-1.41c1.098-1.176,1.686-2.628,1.764-4.351
			l4.586-47.514C266.12,183.402,265.768,181.873,264.905,180.619z M276.195,184.618l-4.469,47.631
			c-0.157,1.725,0.157,3.255,0.94,4.587c0.863,1.332,1.96,2.115,3.293,2.353h0.118c1.412,0.156,2.666-0.354,3.764-1.53
			c1.019-1.176,1.568-2.586,1.646-4.233l4.704-47.631c0.157-1.725-0.195-3.255-1.058-4.587c-0.942-1.254-2.118-2-3.528-2.235
			c-1.255-0.156-2.432,0.314-3.528,1.412C276.979,181.403,276.352,182.814,276.195,184.618z M295.365,185.44l-4.233,47.749
			c-0.235,1.646,0.039,3.138,0.823,4.47c0.863,1.332,1.959,2.118,3.293,2.353h0.117c1.333,0.234,2.587-0.234,3.764-1.411
			c1.02-1.176,1.608-2.627,1.764-4.353l4.587-47.631c0.078-1.803-0.274-3.332-1.059-4.586c-0.783-1.255-1.92-1.961-3.41-2.117
			c-1.333-0.158-2.548,0.273-3.646,1.293C296.188,182.227,295.522,183.637,295.365,185.44z M336.999,182.5
			c-1.098,1.02-1.725,2.431-1.881,4.234l-4.352,47.63c-0.078,1.728,0.195,3.294,0.824,4.704c0.862,1.255,1.959,2.001,3.293,2.235
			h0.117c1.411,0.236,2.666-0.234,3.764-1.41c1.019-1.177,1.606-2.626,1.764-4.354l4.587-47.629
			c0.156-1.803-0.196-3.332-1.059-4.587c-0.862-1.254-2-2-3.411-2.234C339.312,180.932,338.096,181.403,336.999,182.5z
			 M315.358,186.028l-4.704,47.749c-0.078,1.728,0.274,3.255,1.059,4.587c0.784,1.335,1.921,2.079,3.411,2.235h0.117
			c1.412,0.234,2.588-0.197,3.528-1.293c1.098-1.257,1.725-2.706,1.881-4.354l4.47-47.748c0.156-1.725-0.197-3.254-1.059-4.586
			c-0.863-1.255-2-1.96-3.411-2.117c-1.332-0.157-2.469,0.313-3.41,1.41C316.064,182.932,315.438,184.303,315.358,186.028z
			 M358.051,183.323c-1.098,1.098-1.764,2.51-2,4.234l-4.352,47.749c-0.157,1.646,0.157,3.174,0.941,4.587
			c0.862,1.332,1.96,2.079,3.292,2.234h0.118c1.412,0.234,2.666-0.236,3.764-1.412c1.019-1.096,1.607-2.509,1.765-4.233
			l4.469-47.749c0.156-1.803-0.158-3.333-0.941-4.587c-0.862-1.254-2-2-3.411-2.235
			C360.362,181.833,359.147,182.305,358.051,183.323z M384.747,185.675c-0.862-1.254-1.959-2-3.292-2.234
			c-1.333-0.157-2.548,0.313-3.646,1.411c-1.176,1.02-1.803,2.431-1.882,4.234l-4.586,47.63c-0.157,1.728,0.156,3.255,0.941,4.587
			c0.94,1.335,2.078,2.079,3.411,2.235h0.117c1.412,0.234,2.626-0.198,3.645-1.294c1.098-1.098,1.725-2.547,1.883-4.353l4.469-47.63
			C385.963,188.459,385.609,186.931,384.747,185.675z M432.613,182.147c3.686,4.313,5.528,9.488,5.528,15.524
			c0,5.958-1.842,11.133-5.528,15.524c-3.92,4.233-8.546,6.35-13.877,6.35c-5.41,0-9.997-2.117-13.76-6.35
			c-3.92-4.391-5.88-9.566-5.88-15.524c0-6.037,1.96-11.212,5.88-15.524c3.764-4.313,8.351-6.469,13.76-6.469
			c2.666,0,5.135,0.549,7.409,1.647C428.419,178.422,430.575,180.03,432.613,182.147z M495.181,242.951h0.471l11.644-0.942
			l7.174-0.469l11.29-21.64c13.643-5.489,29.048-8.076,46.221-7.763c10.663,25.56,17.993,52.805,21.992,81.739
			c0.627-26.188-3.372-54.178-11.995-83.973l-9.292-13.408c-22.189-0.078-40.182,2.548-53.982,7.88
			C511.802,211.274,503.963,224.133,495.181,242.951l-58.333-5.293c-0.393,2.901-1.02,5.49-1.882,7.762
			c-0.156,0.314-0.274,0.627-0.353,0.941c-3.92,9.251-12.035,13.799-24.345,13.643l49.043,4.351
			c9.408-9.565,21.602-15.641,36.575-18.229 M426.498,231.424c1.882,2.04,2.823,4.549,2.823,7.527c0,1.491-0.196,2.823-0.588,4
			c-0.549,1.176-1.293,2.273-2.235,3.293c-1.803,2.038-3.92,3.058-6.35,3.058c-2.745,0-5.018-1.02-6.821-3.058
			c-1.882-1.961-2.823-4.392-2.823-7.293c0-2.979,0.94-5.487,2.823-7.527c1.803-1.959,4.076-2.939,6.821-2.939
			C422.578,228.484,424.694,229.465,426.498,231.424z M436.848,237.658l7.997-36.223c1.019-6.352,0.51-11.879-1.528-16.583
			 M138.477,280.114c5.174,1.02,10.466,2.079,15.877,3.177c3.764,0.705,9.016,1.371,15.759,1.998
			c7.841,0.864,13.33,1.489,16.465,1.882c10.584,1.49,23.404,2.901,38.458,4.233c8.781,0.785,22.345,1.806,40.693,3.06
			c8.389,0.783,31.244,1.959,68.565,3.528c45.083,1.881,79.267,2.664,102.554,2.352c16.385-0.236,26.108-0.432,29.166-0.588
			c5.019-0.314,10.115-0.588,15.288-0.824l0.589-22.934l-3.997-0.234L451.431,274l-173.707-10.938l-5.292-0.352l-101.26-6.352
			l-17.289-1.059l-20.934-1.294h-0.824 M485.067,266.59l-25.757-2.235 M460.252,195.908c-9.252,10.976-17.054,24.894-23.404,41.75
			 M505.178,268.354l-0.588,21.994c-0.864,5.329-8.821,11.604-23.876,18.817c-5.958,0.156-11.761,0.352-17.404,0.588
			c-1.725,7.682-2.589,15.758-2.589,24.227c0,24.461,6.783,45.318,20.348,62.566c9.957,12.544,24.109,21.25,42.455,26.11
			c0.394,0,0.706,0,0.942,0c0.078,0,0.195,0.039,0.352,0.117c-0.156,0-0.273,0-0.352,0 M369.223,337.037
			c14.818,0.549,29.794,0.941,44.925,1.176l10.232-27.521c-46.259,0.705-89.813-0.195-130.662-2.704
			c-8.859-0.471-17.524-1.02-25.992-1.646c-22.894-1.803-44.808-4.155-65.742-7.057l11.996,26.813
			c17.249,1.884,34.694,3.606,52.335,5.175c8.467,0.549,17.013,1.138,25.638,1.765 M436.848,364.087
			c-2.666-9.722-3.999-20.11-3.999-31.166c0-7.762,0.746-15.211,2.235-22.346c-3.607,0.078-7.174,0.117-10.703,0.117
			 M463.31,309.753c-9.567,0.391-18.975,0.666-28.226,0.822 M504.59,290.348l-23.288,8.584l-0.588,10.233 M226.564,229.543
			c0,1.49-0.234,2.901-0.705,4.233c-0.549,1.098-1.293,2.118-2.235,3.06c-1.803,2.115-3.959,3.175-6.469,3.175
			c-2.586,0-4.782-1.06-6.585-3.175c-0.705-0.629-1.254-1.296-1.647-2.001c-0.548-0.939-0.901-1.92-1.058-2.939
			c-0.157-0.862-0.235-1.647-0.235-2.353c0-2.901,0.979-5.449,2.94-7.645c1.803-2.038,3.999-3.058,6.585-3.058
			c2.51,0,4.666,1.02,6.469,3.058C225.584,224.094,226.564,226.642,226.564,229.543z M410.268,260.004l-192.17-9.525
			c-2.745-0.081-5.214-0.589-7.41-1.53l-32.107,0.117h-18.699 M210.687,248.948c-2.666-1.096-4.743-2.745-6.233-4.938
			c-1.254-1.882-2.117-4.354-2.588-7.41c-8.389,2.511-16.151,6.663-23.286,12.466 M201.161,231.896
			c0.078,1.646,0.313,3.213,0.705,4.704 M201.044,227.073l0.588-37.751l-50.219,2.117 M138.477,280.114
			c-1.882-0.314-3.725-0.666-5.528-1.059c-0.313-0.078-0.588-0.156-0.824-0.234 M136.948,284.348
			c0.392-1.488,0.902-2.898,1.529-4.233 M152.119,290.936c-4.077-0.707-7.997-1.451-11.761-2.235l-3.41-4.353 M201.985,299.285
			c-6.587-1.02-12.937-2.037-19.053-3.058c-2.274,5.881-3.411,12.271-3.411,19.169c0,13.643,4.313,25.286,12.937,34.931
			c8.703,9.644,19.21,14.465,31.52,14.465c12.309,0,22.776-4.821,31.4-14.465c5.175-5.724,8.821-12.075,10.938-19.054
			 M182.932,296.228c-10.507-1.49-20.778-3.255-30.813-5.292c-1.959,7.057-2.94,14.545-2.94,22.463
			c0,22.108,7.057,40.926,21.169,56.451c7.763,8.548,16.426,14.74,25.992,18.581c7.762,3.216,16.151,4.824,25.167,4.824
			c2.43,0,4.782-0.12,7.056-0.354 M739.217,232.249h0.354c6.741,0,12.427,7.563,17.053,22.696
			c2.898,8.233,4.938,17.446,6.114,27.639 M691.232,282.35l31.754-84.442l-20.228-8.232l-35.636,93.028L691.232,282.35h9.057
			l18.935-50.101l9.644-25.874l30.814-2.118c3.921,24.934,5.722,50.964,5.409,78.092 M738.395,381.374
			c-6.272-0.939-11.604-8.154-15.996-21.638c-2.196-6.822-3.841-14.27-4.938-22.346c-1.411-9.252-2.118-19.288-2.118-30.109
			c0-10.897,0.707-20.933,2.118-30.107c1.098-8.074,2.742-15.484,4.938-22.229c4.94-14.896,10.548-22.462,16.818-22.696h-19.993
			 M756.388,307.164c0,13.564-1.569,25.169-4.705,34.812c-2.979,9.564-6.741,14.35-11.289,14.35c-4.471,0-8.311-4.785-11.526-14.35
			c-2.978-9.799-4.468-21.403-4.468-34.812s1.49-24.971,4.468-34.694c3.216-9.643,7.056-14.464,11.526-14.464
			c4.548,0,8.311,4.821,11.289,14.464C754.818,282.115,756.388,293.679,756.388,307.164z M763.915,194.614l-40.929,3.293
			 M686.177,283.172l-92.205,10.704 M592.207,294.464c2.118,5.329,3.763,10.858,4.938,16.582l72.917-9.879l0.942-0.117L685,299.168
			l1.177-15.996l5.056-0.822 M507.529,244.949c6.666-0.469,13.879-0.273,21.641,0.588h0.939c19.054,0,35.324,8.625,48.808,25.874
			c5.567,7.057,9.996,14.742,13.29,23.053 M533.169,281.527c11.446,0,21.287,5.329,29.52,15.994
			c8.152,10.818,12.231,23.717,12.231,38.693c0,15.052-4.079,27.911-12.231,38.574c-8.232,10.665-18.073,15.994-29.52,15.994
			c-11.526,0-21.406-5.329-29.639-15.994c-8.074-10.663-12.112-23.522-12.112-38.574c0-14.977,4.038-27.875,12.112-38.693
			C511.763,286.856,521.643,281.527,533.169,281.527z M485.067,266.59c9.172-10.114,19.483-16.544,30.929-19.289
			c4.236-1.098,8.626-1.686,13.174-1.764 M595.853,311.163l1.293-0.117c0.864,4.624,1.452,9.328,1.765,14.113 M671.005,315.279
			c-0.078-2.664-0.117-5.331-0.117-7.998c0-2.115,0.039-4.194,0.117-6.231 M579.624,144.513
			c-0.629-7.135-92.166-12.31-274.615-15.524 M572.685,196.496l-47.631-10.584c-23.758,1.098-45.359,4.43-64.802,9.997l58.45,8.468
			 M505.178,268.354l-20.11-1.764 M507.529,244.949c-4.077,0.236-7.956,0.629-11.644,1.176 M481.891,275.998l23.287-7.645
			 M204.454,179.325c-1.332,3.058-2.274,6.389-2.822,9.997 M752.977,188.734l-8.35-4.704l-41.868,5.645"/>
	</g>
	<g>
		<path id="Layer0_0_2_STROKES" fill="none" stroke="#242424" stroke-width="2" stroke-linecap="round" stroke-linejoin="round" d="
			M750.743,300.344c0.313,5.645,0.195,10.585-0.354,14.818l-8.703-7.881l7.293-23.285
			C749.919,291.367,750.507,296.816,750.743,300.344z M745.332,270.354c-3.763-2.431-7.447-1.218-11.054,3.646l3.175,17.053
			L745.332,270.354z M739.1,350.679c4.39-2.745,8.232-10.39,11.524-22.934H739.1V350.679z M730.984,327.157
			c-1.725-8.152-1.725-16.779,0-25.873l3.999,11.055L730.984,327.157z M567.627,320.926c-5.409-13.093-11.917-22.424-19.522-27.992
			l-1.293,31.755L567.627,320.926z M544.576,348.327l8.938,27.05c7.605-7.527,13.055-18.935,16.349-34.224L544.576,348.327z
			 M521.996,336.566c0-0.234,0-0.508,0-0.822c0-2.823,0.861-5.332,2.587-7.527c1.881-2.196,4.116-3.294,6.702-3.294
			c2.509,0,4.668,1.098,6.469,3.294c1.962,2.195,2.94,4.704,2.94,7.527c0,0.314,0,0.588,0,0.822
			c-0.156,2.744-1.135,5.136-2.94,7.173c-1.801,1.962-3.96,2.94-6.469,2.94c-2.586,0-4.821-0.979-6.702-2.94
			C523.017,341.702,522.152,339.311,521.996,336.566z M513.998,339.035l-12.114,22.582c-3.763-11.056-5.056-23.758-3.88-38.105
			L513.998,339.035z M505.295,304.106l18.229,11.29l9.997-27.401C523.641,289.328,514.232,294.698,505.295,304.106z
			 M511.058,374.906l16.349-16.817l10.23,25.403C527.445,384.355,518.585,381.494,511.058,374.906z"/>
	</g>
</g>
</svg>
