<svg xmlns="http://www.w3.org/2000/svg" width="900" height="450" viewBox="0 0 900 450"><path fill="#444D53" d="M524.466 422.656v.117h.352c-.157-.078-.274-.117-.352-.117M201.985 299.285a1640.718 1640.718 0 0 1-19.053-3.058c-2.274 5.881-3.411 12.271-3.411 19.169 0 13.643 4.313 25.286 12.937 34.931 8.703 9.644 19.21 14.465 31.52 14.465 12.309 0 22.776-4.821 31.4-14.465 5.175-5.724 8.821-12.075 10.938-19.054a2610.62 2610.62 0 0 1-52.335-5.175l-11.996-26.813m-65.037-14.937a78.257 78.257 0 0 0-3.999 17.053c-.627 4.236-.94 8.626-.94 13.174 0 4.624.313 9.136.94 13.525 2.195 16.936 8.585 31.4 19.17 43.397 11.918 13.798 25.756 21.091 41.515 21.874l2.706-4.94c-9.566-3.841-18.229-10.033-25.992-18.581-14.113-15.525-21.169-34.343-21.169-56.451 0-7.918.981-15.406 2.94-22.463a356.197 356.197 0 0 1-11.761-2.235l-3.41-4.353m323.773 49.631c0-8.469.864-16.545 2.589-24.227-9.567.391-18.975.666-28.226.822-1.489 7.135-2.235 14.584-2.235 22.346 0 11.056 1.333 21.444 3.999 31.166 3.371 11.839 10.35 24.541 20.933 38.105 9.565 12.7 20.779 19.052 33.638 19.052 2.038 0 6.232.117 12.583.354 7.921.549 14.426.9 19.522 1.059-18.346-4.86-32.498-13.566-42.455-26.11-13.565-17.248-20.348-38.106-20.348-62.567z"/><path fill="#040809" d="M598.91 325.159l72.095-9.88a273.316 273.316 0 0 1-.117-7.998l-.825-6.114-72.917 9.879a118.879 118.879 0 0 1 1.764 14.113m-6.703-30.695l1.765-.588c-3.999-28.934-11.329-56.179-21.992-81.739-17.173-.313-32.578 2.274-46.221 7.763l-11.29 21.64-7.174.469.234 2.94c6.666-.469 13.879-.273 21.641.588h.939c19.054 0 35.324 8.625 48.808 25.874a91.421 91.421 0 0 1 13.29 23.053m147.01-62.215h.354c6.741 0 12.427 7.563 17.053 22.696 2.898 8.233 4.938 17.446 6.114 27.639l2.353-.234c.313-27.128-1.488-53.158-5.409-78.092l-30.814 2.118-9.644 25.874h19.993m-302.369 5.408c-.393 2.901-1.02 5.49-1.882 7.762a4.682 4.682 0 0 0-.353.941c-3.92 9.251-12.035 13.799-24.345 13.643l49.043 4.351c9.408-9.565 21.602-15.641 36.575-18.229l-.705-3.174-58.333-5.294z"/><path fill="#3D4A5A" d="M518.702 204.375c13.801-5.332 31.793-7.958 53.982-7.88l-47.631-10.584c-23.758 1.098-45.359 4.43-64.802 9.997l58.451 8.467m246.977-1.411a262.652 262.652 0 0 1-1.764-8.35l-40.929 3.293-31.754 84.442h9.057l18.935-50.101 9.644-25.874 30.814-2.118c3.921 24.934 5.722 50.964 5.409 78.092 5.017-28.305 5.214-54.648.588-79.033v-.351m-1.764-8.35l-10.938-5.88-8.35-4.704-41.868 5.645 20.228 8.232 40.928-3.293m-612.501-3.176l50.219-2.117c.548-3.607 1.49-6.939 2.822-9.997l-53.041 12.114M451.431 274l26.463 1.764 3.997.234 23.287-7.645-20.11-1.764-25.757-2.235-49.043-4.351-192.17-9.525c-2.745-.081-5.214-.589-7.41-1.53l-32.107.117h-24.698v6.234l17.289 1.059 101.26 6.352 5.292.352L451.431 274m43.75-31.049h.471l11.644-.942 7.174-.469 11.29-21.64c13.643-5.489 29.048-8.076 46.221-7.763 10.663 25.56 17.993 52.805 21.992 81.739.627-26.188-3.372-54.178-11.995-83.973l-9.292-13.408c-22.189-.078-40.182 2.548-53.982 7.88-6.902 6.899-14.741 19.758-23.523 38.576z"/><path fill="#303536" d="M686.177 283.172l-92.205 10.704-1.765.588a98.35 98.35 0 0 1 4.938 16.582l72.917-9.879.942-.117L685 299.168l1.177-15.996m-204.875 15.76l-.588 10.233c15.055-7.213 23.012-13.488 23.876-18.817l-23.288 8.584m-56.921 11.76l-10.232 27.521a2083.723 2083.723 0 0 1-44.925-1.176c8.938 20.62 30.107 29.99 63.508 28.108l4.116-1.059c-2.666-9.722-3.999-20.11-3.999-31.166 0-7.762.746-15.211 2.235-22.346-3.608.079-7.175.118-10.703.118m-10.233 27.521l10.232-27.521c-46.259.705-89.813-.195-130.662-2.704-8.859-.471-17.524-1.02-25.992-1.646-22.894-1.803-44.808-4.155-65.742-7.057l11.996 26.813a2618.728 2618.728 0 0 0 52.335 5.175c8.467.549 17.013 1.138 25.638 1.765a2908.453 2908.453 0 0 0 77.269 3.999c14.82.549 29.795.942 44.926 1.176m67.154-39.281c-5.173.236-10.27.51-15.288.824-3.058.156-12.781.352-29.166.588-23.287.313-57.472-.471-102.554-2.352-37.321-1.569-60.176-2.745-68.565-3.528-18.348-1.254-31.912-2.274-40.693-3.06-15.054-1.332-27.874-2.743-38.458-4.233-3.136-.393-8.625-1.018-16.465-1.882-6.743-.627-11.995-1.293-15.759-1.998a2914.42 2914.42 0 0 0-15.877-3.177 24.781 24.781 0 0 0-1.529 4.233l3.41 4.353c3.764.784 7.684 1.528 11.761 2.235a526.72 526.72 0 0 0 30.813 5.292 1640.718 1640.718 0 0 0 19.053 3.058c20.934 2.901 42.849 5.254 65.742 7.057 8.468.627 17.132 1.176 25.992 1.646 40.849 2.509 84.403 3.409 130.662 2.704 3.528 0 7.095-.039 10.703-.117 9.251-.156 18.659-.432 28.226-.822 5.644-.236 11.446-.432 17.404-.588l.588-10.233m.589-22.934l-.589 22.934 23.288-8.584.588-21.994-23.287 7.644z"/><path fill="#404748" d="M700.289 282.35h-9.057l-5.056.822L685 299.168l-13.995 1.882a162.95 162.95 0 0 0-.117 6.231c0 2.667.039 5.334.117 7.998.549 17.015 2.822 31.832 6.822 44.457 4.86 14.425 10.621 21.638 17.287 21.638h43.28c-6.272-.939-11.604-8.154-15.996-21.638-2.196-6.822-3.841-14.27-4.938-22.346-1.411-9.252-2.118-19.288-2.118-30.109 0-10.897.707-20.933 2.118-30.107 1.098-8.074 2.742-15.484 4.938-22.229 4.94-14.896 10.548-22.462 16.818-22.696h-19.993l-18.934 50.101z"/><path fill="#5C6E86" d="M722.986 197.907l-20.228-8.232-35.636 93.028 24.109-.354 31.755-84.442m-521.942 29.166l.588-37.751-50.219 2.117-7.645 32.695 57.276 2.939m259.208-31.165c-9.252 10.976-17.054 24.894-23.404 41.75l58.333 5.293c8.782-18.818 16.621-31.677 23.521-38.576l-58.45-8.467m21.05 103.024l.589-22.934-3.997-.234L451.431 274l-173.707-10.938-5.292-.352-101.26-6.352-17.289-1.059-20.934-1.294h-.824v24.815c.236.078.51.156.824.234 1.803.393 3.646.744 5.528 1.059a2914.42 2914.42 0 0 1 15.877 3.177c3.764.705 9.016 1.371 15.759 1.998 7.841.864 13.33 1.489 16.465 1.882 10.584 1.49 23.404 2.901 38.458 4.233 8.781.785 22.345 1.806 40.693 3.06 8.389.783 31.244 1.959 68.565 3.528 45.083 1.881 79.267 2.664 102.554 2.352 16.385-.236 26.108-.432 29.166-.588a906.184 906.184 0 0 1 15.288-.823z"/><path fill="#091918" d="M739.571 232.249h-.354c-6.271.234-11.878 7.801-16.818 22.696-2.196 6.744-3.841 14.154-4.938 22.229-1.411 9.175-2.118 19.21-2.118 30.107 0 10.821.707 20.857 2.118 30.109 1.098 8.076 2.742 15.523 4.938 22.346 4.392 13.483 9.724 20.698 15.996 21.638h2.353c6.349-.861 11.642-8.076 15.877-21.638 4.938-14.506 7.408-31.991 7.408-52.455 0-8.857-.43-17.09-1.294-24.697-1.176-10.192-3.216-19.405-6.114-27.639-4.627-15.132-10.312-22.696-17.054-22.696m.823 25.757c4.548 0 8.311 4.821 11.289 14.464 3.136 9.646 4.705 21.209 4.705 34.694 0 13.564-1.569 25.169-4.705 34.812-2.979 9.564-6.741 14.35-11.289 14.35-4.471 0-8.311-4.785-11.526-14.35-2.978-9.799-4.468-21.403-4.468-34.812s1.49-24.971 4.468-34.694c3.215-9.643 7.055-14.464 11.526-14.464m-557.462 38.222a526.43 526.43 0 0 1-30.813-5.292c-1.959 7.057-2.94 14.545-2.94 22.463 0 22.108 7.057 40.926 21.169 56.451 7.763 8.548 16.426 14.74 25.992 18.581 7.762 3.216 16.151 4.824 25.167 4.824 2.43 0 4.782-.12 7.056-.354 16.936-1.646 31.637-9.33 44.103-23.051 9.801-10.743 16.23-23.014 19.288-36.812a3287.373 3287.373 0 0 0-25.638-1.765c-2.118 6.979-5.763 13.33-10.938 19.054-8.624 9.644-19.092 14.465-31.4 14.465-12.31 0-22.816-4.821-31.52-14.465-8.625-9.645-12.937-21.288-12.937-34.931 0-6.897 1.137-13.288 3.411-19.168m21.522-52.218c-1.254-1.882-2.117-4.354-2.588-7.41-8.389 2.511-16.151 6.663-23.286 12.466l32.107-.117c-2.666-1.096-4.743-2.746-6.233-4.939m276.26 65.155c-5.958.156-11.761.352-17.404.588-1.725 7.682-2.589 15.758-2.589 24.227 0 24.461 6.783 45.318 20.348 62.566 9.957 12.544 24.109 21.25 42.455 26.11h.942c.078 0 .195.039.352.117.551-.156 2.315-.236 5.292-.236 19.054 0 35.324-8.664 48.808-25.991 13.566-17.248 20.347-38.105 20.347-62.566 0-2.901-.117-5.841-.354-8.82a118.88 118.88 0 0 0-1.765-14.113l-1.293.117 1.293-.117a98.442 98.442 0 0 0-4.938-16.582 91.421 91.421 0 0 0-13.29-23.053c-13.483-17.249-29.754-25.874-48.808-25.874h-.939c-4.548.078-8.938.666-13.174 1.764-11.445 2.745-21.757 9.175-30.929 19.289l20.11 1.764-.588 21.994c-.864 5.328-8.821 11.603-23.876 18.816m22.816-11.644c8.232-10.665 18.112-15.994 29.639-15.994 11.446 0 21.287 5.329 29.52 15.994 8.152 10.818 12.231 23.717 12.231 38.693 0 15.052-4.079 27.911-12.231 38.574-8.232 10.665-18.073 15.994-29.52 15.994-11.526 0-21.406-5.329-29.639-15.994-8.074-10.663-12.112-23.522-12.112-38.574 0-14.976 4.038-27.874 12.112-38.693z"/><path fill="#B0ACBD" d="M751.683 272.47c-2.979-9.643-6.741-14.464-11.289-14.464-4.471 0-8.311 4.821-11.526 14.464-2.978 9.724-4.468 21.286-4.468 34.694s1.49 25.013 4.468 34.812c3.216 9.564 7.056 14.35 11.526 14.35 4.548 0 8.311-4.785 11.289-14.35 3.136-9.643 4.705-21.247 4.705-34.812 0-13.485-1.57-25.049-4.705-34.694m-2.704 11.526c.939 7.371 1.527 12.82 1.764 16.348.313 5.645.195 10.585-.354 14.818l-8.703-7.881 7.293-23.285m-3.647-13.642l-7.879 20.698L734.278 274c3.607-4.863 7.291-6.076 11.054-3.646m5.292 57.391c-3.292 12.544-7.135 20.188-11.524 22.934v-22.934h11.524m-15.641-15.406l-3.999 14.818c-1.725-8.152-1.725-16.779 0-25.873l3.999 11.055m-201.814-30.812c-11.526 0-21.406 5.329-29.639 15.994-8.074 10.818-12.112 23.717-12.112 38.693 0 15.052 4.038 27.911 12.112 38.574 8.232 10.665 18.112 15.994 29.639 15.994 11.446 0 21.287-5.329 29.52-15.994 8.152-10.663 12.231-23.522 12.231-38.574 0-14.977-4.079-27.875-12.231-38.693-8.233-10.665-18.074-15.994-29.52-15.994m34.458 39.399l-20.815 3.763 1.293-31.755c7.605 5.568 14.113 14.899 19.522 27.992m-23.051 27.401l25.286-7.174c-3.294 15.289-8.743 26.696-16.349 34.224l-8.937-27.05m-19.993-20.11c1.881-2.196 4.116-3.294 6.702-3.294 2.509 0 4.668 1.098 6.469 3.294 1.962 2.195 2.94 4.704 2.94 7.527v1.527c0 3.06-.979 5.685-2.94 7.881-1.801 2.037-3.96 3.058-6.469 3.058-2.586 0-4.821-1.021-6.702-3.058-1.726-2.196-2.587-4.821-2.587-7.881v-.705-.822c0-2.823.861-5.332 2.587-7.527m-10.585 10.818l-12.114 22.582c-3.763-11.056-5.056-23.758-3.88-38.105l15.994 15.523m9.525-23.639l-18.229-11.29c8.938-9.408 18.346-14.778 28.226-16.111l-9.997 27.401m14.114 68.096c-10.191.863-19.052-1.998-26.579-8.586l16.349-16.817 10.23 25.403m-6.352-58.569c-2.586 0-4.821 1.098-6.702 3.294-1.726 2.195-2.587 4.704-2.587 7.527v.822c.156-2.587 1.021-4.861 2.587-6.82 1.881-2.196 4.116-3.294 6.702-3.294 2.509 0 4.668 1.098 6.469 3.294 1.806 1.959 2.784 4.233 2.94 6.82v-.822c0-2.823-.979-5.332-2.94-7.527-1.801-2.196-3.96-3.294-6.469-3.294z"/><path fill="#808791" d="M730.984 327.157l3.999-14.818-3.999-11.055c-1.724 9.094-1.724 17.721 0 25.873m8.116 23.522c4.39-2.745 8.232-10.39 11.524-22.934H739.1v22.934m-1.647-59.626l7.879-20.698c-3.763-2.431-7.447-1.218-11.054 3.646l3.175 17.052m13.29 9.291c-.236-3.527-.824-8.977-1.764-16.348l-7.293 23.285 8.703 7.881c.549-4.233.667-9.174.354-14.818m-239.685 74.562c7.527 6.588 16.388 9.449 26.579 8.586l-10.23-25.403-16.349 16.817m-5.763-70.8l18.229 11.29 9.997-27.401c-9.88 1.333-19.289 6.703-28.226 16.111m-3.411 57.511l12.114-22.582-15.994-15.523c-1.176 14.347.117 27.05 3.88 38.105m38.81-25.051c-.156 2.744-1.135 5.136-2.94 7.173-1.801 1.962-3.96 2.94-6.469 2.94-2.586 0-4.821-.979-6.702-2.94-1.566-2.037-2.431-4.429-2.587-7.173v.705c0 3.06.861 5.685 2.587 7.881 1.881 2.037 4.116 3.058 6.702 3.058 2.509 0 4.668-1.021 6.469-3.058 1.962-2.196 2.94-4.821 2.94-7.881v-.705m-9.409-10.114c-2.586 0-4.821 1.098-6.702 3.294-1.566 1.959-2.431 4.233-2.587 6.82.156 2.744 1.021 5.136 2.587 7.173 1.881 1.962 4.116 2.94 6.702 2.94 2.509 0 4.668-.979 6.469-2.94 1.806-2.037 2.784-4.429 2.94-7.173-.156-2.587-1.135-4.861-2.94-6.82-1.801-2.196-3.96-3.294-6.469-3.294m38.577 14.701l-25.286 7.174 8.938 27.05c7.605-7.527 13.054-18.935 16.348-34.224m-23.05-16.465l20.815-3.763c-5.409-13.093-11.917-22.424-19.522-27.992l-1.293 31.755z"/><path fill="#5C6769" d="M193.634 393.371c8.704.472 13.838.745 15.407.823 5.018.158 9.212.08 12.584-.234a148.17 148.17 0 0 0 6.938-1.06 68.915 68.915 0 0 1-7.056.354c-9.016 0-17.406-1.608-25.167-4.824l-2.706 4.941m8.232-156.771a22.67 22.67 0 0 1-.705-4.704c-15.524.705-29.285 6.429-41.28 17.17h18.699c7.135-5.803 14.898-9.956 23.286-12.466m257.445 27.754l25.757 2.235c9.172-10.114 19.483-16.544 30.929-19.289 4.236-1.098 8.626-1.686 13.174-1.764-7.762-.861-14.975-1.057-21.641-.588-4.077.236-7.956.629-11.644 1.176-14.974 2.59-27.167 8.665-36.575 18.23z"/><path fill="#394046" d="M153.883 255.3v-6.234h-8.702l-13.056 4.94h.824l20.934 1.294z"/><path fill="#DB0D1D" d="M225.388 161.684c.313-.079.549-.118.706-.118 4.312-1.254 9.251-1.92 14.818-2l173.236 7.763 165.476-22.816c-.629-7.135-92.166-12.31-274.615-15.524-62.724 14.035-94.831 28.5-96.32 43.397a32.096 32.096 0 0 1 5.88-5.409c3.136-2.352 6.743-4.117 10.819-5.293m-16.7 10.702c-1.725 2.039-3.136 4.352-4.234 6.939-1.332 3.058-2.274 6.389-2.822 9.997l-.588 37.751V229.896c0 .549.039 1.215.117 1.999a22.67 22.67 0 0 0 .705 4.704c.471 3.057 1.333 5.528 2.588 7.41 1.49 2.193 3.567 3.843 6.233 4.938 2.196.941 4.666 1.449 7.41 1.53l192.17 9.525c12.31.156 20.425-4.392 24.345-13.643.078-.314.196-.627.353-.941.863-2.271 1.49-4.86 1.882-7.762l7.997-36.223c1.019-6.352.51-11.879-1.528-16.583-2.588-5.488-7.331-9.8-14.231-12.937a3.059 3.059 0 0 0-.705-.353c-3.999-1.803-8.743-3.215-14.231-4.233l-173.236-7.763c-5.567.079-10.507.745-14.818 2-.157 0-.393.039-.706.118-4.076 1.176-7.684 2.94-10.819 5.292a32.162 32.162 0 0 0-5.882 5.412m17.171-4.822a12.344 12.344 0 0 1 3.411-.471h1.646c5.018 0 9.33 2.274 12.937 6.821 2.588 3.293 4.235 7.096 4.94 11.408a32.5 32.5 0 0 1 .353 4.822c0 6.273-1.764 11.644-5.292 16.112-3.606 4.626-7.919 6.939-12.937 6.939h-1.646c-5.018 0-9.292-2.313-12.82-6.939-3.528-4.469-5.292-9.839-5.292-16.112 0-6.351 1.764-11.761 5.292-16.23 2.743-3.448 5.88-5.566 9.408-6.35m30.107 16.347c.158-1.725.824-3.096 2-4.116 1.02-1.097 2.196-1.567 3.528-1.411 1.489.157 2.626.902 3.411 2.235.863 1.254 1.215 2.784 1.058 4.587l-4.586 47.514c-.078 1.723-.667 3.175-1.764 4.351-1.098 1.176-2.313 1.646-3.647 1.41h-.117c-1.333-.234-2.43-1.02-3.293-2.352-.785-1.333-1.098-2.821-.941-4.468l4.351-47.75m20.229.707c.157-1.803.785-3.215 1.882-4.234 1.097-1.097 2.273-1.568 3.528-1.412 1.41.235 2.586.981 3.528 2.235.862 1.333 1.215 2.862 1.058 4.587l-4.704 47.631c-.078 1.647-.627 3.058-1.646 4.233-1.098 1.176-2.352 1.687-3.764 1.53h-.118c-1.333-.237-2.43-1.021-3.293-2.353-.783-1.332-1.098-2.862-.94-4.587l4.469-47.63m21.169-3.411c1.098-1.02 2.313-1.451 3.646-1.293 1.49.156 2.627.861 3.41 2.117.784 1.254 1.137 2.783 1.059 4.586l-4.587 47.631c-.156 1.726-.744 3.177-1.764 4.353-1.176 1.177-2.43 1.646-3.764 1.411h-.117c-1.333-.234-2.43-1.021-3.293-2.353-.784-1.332-1.059-2.823-.823-4.47l4.233-47.749c.158-1.803.824-3.213 2-4.233m43.28-.118c1.412.234 2.549.98 3.411 2.234.863 1.255 1.215 2.784 1.059 4.587l-4.587 47.629c-.157 1.728-.745 3.177-1.764 4.354-1.098 1.176-2.353 1.646-3.764 1.41h-.117c-1.333-.234-2.431-.98-3.293-2.235-.628-1.41-.901-2.977-.824-4.704l4.352-47.63c.156-1.803.783-3.215 1.881-4.234 1.098-1.097 2.314-1.568 3.646-1.411m-25.286 4.939c.08-1.725.707-3.096 1.882-4.116.941-1.097 2.078-1.567 3.41-1.41 1.412.156 2.548.861 3.411 2.117.862 1.332 1.215 2.861 1.059 4.586l-4.47 47.748c-.156 1.647-.783 3.097-1.881 4.354-.94 1.096-2.117 1.527-3.528 1.293h-.117c-1.489-.156-2.626-.9-3.411-2.235-.785-1.332-1.137-2.859-1.059-4.587l4.704-47.75m40.693 1.53c.236-1.725.902-3.136 2-4.234 1.097-1.019 2.312-1.49 3.645-1.412 1.412.236 2.549.981 3.411 2.235.783 1.254 1.097 2.784.941 4.587l-4.469 47.749c-.158 1.725-.746 3.138-1.765 4.233-1.098 1.176-2.352 1.646-3.764 1.412h-.118c-1.332-.155-2.43-.902-3.292-2.234-.784-1.413-1.098-2.94-.941-4.587l4.352-47.749m21.758-2.706c1.098-1.097 2.313-1.568 3.646-1.411 1.333.234 2.43.98 3.292 2.234.863 1.255 1.216 2.784 1.059 4.587l-4.469 47.63c-.158 1.806-.785 3.255-1.883 4.353-1.019 1.096-2.233 1.528-3.645 1.294h-.117c-1.333-.156-2.471-.9-3.411-2.235-.785-1.332-1.098-2.859-.941-4.587l4.586-47.63c.079-1.804.706-3.215 1.883-4.235m40.927-9.173c2.666 0 5.135.549 7.409 1.647 2.274 1.097 4.43 2.705 6.468 4.822 3.686 4.313 5.528 9.488 5.528 15.524 0 5.958-1.842 11.133-5.528 15.524-3.92 4.233-8.546 6.35-13.877 6.35-5.41 0-9.997-2.117-13.76-6.35-3.92-4.391-5.88-9.566-5.88-15.524 0-6.037 1.96-11.212 5.88-15.524 3.763-4.314 8.35-6.469 13.76-6.469m-5.41 55.745c1.803-1.959 4.076-2.939 6.821-2.939 2.43 0 4.547.98 6.35 2.939 1.882 2.04 2.823 4.549 2.823 7.527 0 1.491-.196 2.823-.588 4a12.864 12.864 0 0 1-2.235 3.293c-1.803 2.038-3.92 3.058-6.35 3.058-2.745 0-5.018-1.02-6.821-3.058-1.882-1.961-2.823-4.392-2.823-7.293 0-2.978.941-5.487 2.823-7.527m-189.702-9.526c1.96 2.196 2.94 4.743 2.94 7.645 0 1.49-.234 2.901-.705 4.233a11.763 11.763 0 0 1-2.235 3.06c-1.803 2.115-3.959 3.175-6.469 3.175-2.586 0-4.782-1.06-6.585-3.175-.705-.629-1.254-1.296-1.647-2.001a8.307 8.307 0 0 1-1.058-2.939 13.233 13.233 0 0 1-.235-2.353c0-2.901.979-5.449 2.94-7.645 1.803-2.038 3.999-3.058 6.585-3.058 2.51.001 4.666 1.021 6.469 3.058M607.967 40.43c0-2.039-.746-3.803-2.234-5.292-1.41-1.332-3.646-2.666-6.703-3.998l-133.133-2.471-108.552-2c-9.331-.313-15.484 3.489-18.465 11.408l-33.871 90.911c182.449 3.215 273.986 8.39 274.615 15.524 5.725 3.372 8.506 8.507 8.35 15.407l9.88-58.099 4.821-28.697 4.938-29.284c.237-.86.354-1.998.354-3.409m-22.111-1.529c6.194.471 9.213 3.45 9.057 8.938l-11.173 78.328-268.146-8.233 27.638-76.797c.078-.158.196-.354.353-.588 2.039-4.626 5.959-6.625 11.761-5.999 35.204-.392 72.054-.235 110.552.471 38.415.705 78.403 1.999 119.958 3.88m53.511 75.386l16.819-7.173c-13.018-2.117-25.208-2.469-36.575-1.059l-7.177 7.88 26.933.352z"/><path fill="#FF5E21" d="M226.564 229.543c0-2.901-.979-5.449-2.94-7.645-1.803-2.038-3.959-3.058-6.469-3.058-2.586 0-4.782 1.02-6.585 3.058-1.96 2.196-2.94 4.743-2.94 7.645 0 .705.078 1.49.235 2.353.156 1.02.51 2 1.058 2.939.393.705.942 1.372 1.647 2.001 1.803 2.115 3.999 3.175 6.585 3.175 2.51 0 4.666-1.06 6.469-3.175a11.77 11.77 0 0 0 2.235-3.06c.471-1.332.705-2.743.705-4.233m193.583-1.059c-2.745 0-5.018.98-6.821 2.939-1.882 2.04-2.823 4.549-2.823 7.527 0 2.901.94 5.332 2.823 7.293 1.803 2.038 4.076 3.058 6.821 3.058 2.43 0 4.547-1.02 6.35-3.058a12.864 12.864 0 0 0 2.235-3.293c.392-1.177.588-2.509.588-4 0-2.979-.94-5.487-2.823-7.527-1.803-1.958-3.919-2.939-6.35-2.939z"/><path fill="#FFFDDD" d="M426.145 177.326c-2.274-1.098-4.744-1.647-7.409-1.647-5.41 0-9.997 2.156-13.76 6.469-3.92 4.313-5.88 9.488-5.88 15.524 0 5.958 1.96 11.133 5.88 15.524 3.764 4.233 8.351 6.35 13.76 6.35 5.332 0 9.958-2.117 13.877-6.35 3.686-4.391 5.528-9.566 5.528-15.524 0-6.037-1.842-11.212-5.528-15.524-2.038-2.118-4.194-3.726-6.468-4.822M229.27 167.094c-1.176 0-2.313.156-3.411.471-3.528.783-6.665 2.901-9.409 6.35-3.528 4.469-5.292 9.879-5.292 16.23 0 6.273 1.764 11.644 5.292 16.112 3.528 4.626 7.802 6.939 12.82 6.939h.822c4.705-.235 8.743-2.549 12.115-6.939 3.528-4.469 5.292-9.839 5.292-16.112 0-1.646-.079-3.254-.235-4.822-.706-4.313-2.391-8.115-5.057-11.408-3.372-4.391-7.41-6.665-12.115-6.821h-.822z"/><path fill="#1E3138" d="M381.454 183.441c-1.333-.157-2.548.313-3.646 1.411-1.176 1.02-1.803 2.431-1.882 4.234l-4.586 47.63c-.157 1.728.156 3.255.941 4.587.94 1.335 2.078 2.079 3.411 2.235h.117c1.412.234 2.626-.198 3.645-1.294 1.098-1.098 1.725-2.547 1.883-4.353l4.469-47.63c.157-1.803-.196-3.332-1.059-4.587-.863-1.253-1.96-1.998-3.293-2.233m-23.403-.118c-1.098 1.098-1.764 2.51-2 4.234l-4.352 47.749c-.157 1.646.157 3.174.941 4.587.862 1.332 1.96 2.079 3.292 2.234h.118c1.412.234 2.666-.236 3.764-1.412 1.019-1.096 1.607-2.509 1.765-4.233l4.469-47.749c.156-1.803-.158-3.333-.941-4.587-.862-1.254-2-2-3.411-2.235-1.334-.078-2.549.394-3.645 1.412m-40.811-1.411c-1.176 1.02-1.803 2.391-1.882 4.116l-4.704 47.749c-.078 1.728.274 3.255 1.059 4.587.784 1.335 1.921 2.079 3.411 2.235h.117c1.412.234 2.588-.197 3.528-1.293 1.098-1.257 1.725-2.706 1.881-4.354l4.47-47.748c.156-1.725-.197-3.254-1.059-4.586-.863-1.255-2-1.96-3.411-2.117-1.332-.157-2.469.314-3.41 1.411m26.815 1.411c-.862-1.254-2-2-3.411-2.234-1.332-.157-2.547.313-3.645 1.411-1.098 1.02-1.725 2.431-1.881 4.234l-4.352 47.63c-.078 1.728.195 3.294.824 4.704.862 1.255 1.959 2.001 3.293 2.235H335c1.411.236 2.666-.234 3.764-1.41 1.019-1.177 1.606-2.626 1.764-4.354l4.587-47.629c.155-1.803-.198-3.331-1.06-4.587m-43.044-3.409c-1.333-.158-2.548.273-3.646 1.293-1.176 1.02-1.842 2.43-2 4.233l-4.233 47.749c-.235 1.646.039 3.138.823 4.47.863 1.332 1.959 2.118 3.293 2.353h.117c1.333.234 2.587-.234 3.764-1.411 1.02-1.176 1.608-2.627 1.764-4.353l4.587-47.631c.078-1.803-.274-3.332-1.059-4.586-.783-1.256-1.921-1.962-3.41-2.117m-22.934.469c-1.098 1.02-1.725 2.431-1.882 4.234l-4.469 47.631c-.157 1.725.157 3.255.94 4.587.863 1.332 1.96 2.115 3.293 2.353h.118c1.412.156 2.666-.354 3.764-1.53 1.019-1.176 1.568-2.586 1.646-4.233l4.704-47.631c.157-1.725-.195-3.255-1.058-4.587-.942-1.254-2.118-2-3.528-2.235-1.255-.157-2.431.314-3.528 1.411m-20.111-.588c-1.176 1.02-1.842 2.392-2 4.116l-4.351 47.75c-.157 1.646.156 3.135.941 4.468.863 1.332 1.959 2.117 3.293 2.352h.117c1.333.236 2.549-.234 3.647-1.41 1.098-1.176 1.686-2.628 1.764-4.351l4.586-47.514c.157-1.803-.195-3.333-1.058-4.587-.784-1.333-1.921-2.078-3.411-2.235-1.332-.156-2.509.314-3.528 1.411z"/><path fill="#B50B17" d="M658.422 161.213v8.35l18.463-1.646v-1.176c-.156-2.353-.313-4.744-.471-7.175a1.936 1.936 0 0 1-.117-.588l-17.875 2.235m-45.987-25.402l26.933.588v-22.111l-26.933-.353v21.876m13.878 4.116v1.646l29.873.941-10.585-3.763-6.234-2.352-26.933-.588 3.648 4.938 10.231-.822z"/><path fill="#9A0A14" d="M587.974 159.92c-.08 2.666-.588 5.606-1.529 8.821l-143.128 16.111c2.039 4.704 2.547 10.232 1.528 16.583l-7.997 36.223c6.35-16.856 14.152-30.774 23.404-41.75 19.442-5.567 41.044-8.899 64.802-9.997l47.631 10.584 9.292 13.408c8.623 29.795 12.622 57.784 11.995 83.973l92.205-10.704 5.056-.822-24.109.354 35.636-93.028 41.868-5.645 8.35 4.704v-33.636l-33.519 2-16.465.94-26.462 1.529c.156 2.431.314 4.822.471 7.175a2242.163 2242.163 0 0 1 2.118 49.748l-17.524 56.098-61.39 7.057-2.353-177.822-9.88 58.096m0 0c.156-6.9-2.625-12.035-8.35-15.407l-165.476 22.816c5.489 1.019 10.232 2.43 14.231 4.233.235.079.47.196.705.353 6.9 3.137 11.644 7.449 14.231 12.937l143.128-16.111c.943-3.215 1.451-6.155 1.531-8.821z"/><path fill="#1D384D" d="M594.913 47.839c.156-5.488-2.862-8.467-9.057-8.938-41.556-1.881-81.543-3.176-119.96-3.881-38.498-.707-75.348-.863-110.552-.471-5.801-.627-9.722 1.373-11.761 5.999a5.868 5.868 0 0 0-.353.588l-27.638 76.797 268.146 8.233 11.175-78.327m-11.88-1.764c2.667.863 4.079 2.979 4.235 6.351l-2.823 20.699-5.058 36.341c-1.254 5.489-4.86 8.311-10.819 8.468l-236.627-6.704c-3.059-.941-4.469-2.862-4.234-5.763l11.408-32.342 9.879-28.696c2.039-3.372 4.704-4.743 7.997-4.116 73.858-.785 149.206 1.137 226.042 5.762z"/><path fill="#DFE1EC" d="M587.269 52.426c-.156-3.372-1.568-5.488-4.235-6.351-76.836-4.625-152.184-6.546-226.042-5.762-3.293-.627-5.958.744-7.997 4.116l-9.879 28.696-11.408 32.342 4.234 5.763 236.627 6.704c5.959-.157 9.565-2.979 10.819-8.468l5.058-36.341 2.823-20.699m62.449-4.352l-32.93.353c-2.901 1.803-4.821 4.979-5.764 9.527l-1.764 15.171-4.351 34.225v33.988l11.173-.588-3.648-4.938v-21.876l7.177-7.88c11.367-1.41 23.558-1.058 36.575 1.059 1.568 10.271 1.764 20.503.588 30.695l9.292-.588-4.941-79.267c.861-6.744-2.94-10.037-11.407-9.881z"/><path fill="#2F3946" d="M665.595 41.136a427.6 427.6 0 0 1 2.116 15.406h26.462c6.351 0 9.291 4.233 8.82 12.701v88.794l16.465-.94-1.176-90.558c.156-17.092-6.938-25.561-21.287-25.403h-31.4z"/><path fill="#79070F" d="M665.595 41.136l-57.628-.707c0 1.412-.117 2.549-.354 3.411l-4.938 29.284-4.821 28.697 2.353 177.822 61.39-7.057 17.524-56.098a2242.163 2242.163 0 0 0-2.118-49.748h-.117v1.176l-18.463 1.646v-8.35l17.875-2.235c0 .158.039.354.117.588h.117c-1.801-31.439-4.116-60.253-6.938-86.442a2098.304 2098.304 0 0 0-1.883-16.582 427.85 427.85 0 0 0-2.116-15.405m-48.807 7.291l32.93-.353c8.467-.156 12.269 3.137 11.407 9.879l4.941 79.267-9.292.588a78.96 78.96 0 0 1-.588 4.705l-29.873-.941v19.406l-21.052 3.999c-2.745-3.92-2.86-8.743-.352-14.466h11.523v-9.292l-.351-.471-11.173.588v-33.988l4.351-34.225 1.764-15.171c.944-4.546 2.864-7.722 5.765-9.525m9.525 102.907l-9.88-.823H604.91c-2.509 5.723-2.394 10.546.352 14.466l21.052-3.999v-9.644m-.001-9.762l-9.88-.353v9.292l9.88.823v-9.762m-10.23-.823l.351.471 9.88.353v-1.646l-10.231.822m40.104-33.635l-16.819 7.173v22.111l6.234 2.352 10.585 3.763c.234-1.49.43-3.057.588-4.705 1.175-10.191.98-20.423-.588-30.694z"/><g><path fill="none" stroke="#000" stroke-width="2" stroke-linecap="round" stroke-linejoin="round" d="M607.967 40.43l57.628.707h31.4c14.35-.158 21.443 8.311 21.287 25.403l1.176 90.558 33.519-2v33.636l10.938 5.88a262.652 262.652 0 0 0 1.764 8.35v.352c4.626 24.385 4.429 50.729-.588 79.033m-2.353.235c.864 7.607 1.294 15.84 1.294 24.697 0 20.464-2.47 37.949-7.408 52.455-4.235 13.562-9.528 20.776-15.877 21.638h-45.633c-6.666 0-12.427-7.213-17.287-21.638-4-12.625-6.273-27.442-6.822-44.457l-72.095 9.88c.236 2.979.354 5.919.354 8.82 0 24.461-6.78 45.318-20.347 62.566-13.483 17.327-29.754 25.991-48.808 25.991-2.977 0-4.741.08-5.292.236v.117c-.156 0-.273-.039-.352-.117-.236 0-.549-.039-.942-.117-5.097-.158-11.602-.51-19.522-1.059-6.351-.236-10.545-.354-12.583-.354-12.858 0-24.072-6.352-33.638-19.052-10.583-13.564-17.562-26.267-20.933-38.105m-4.116 1.061c-33.401 1.882-54.57-7.488-63.508-28.108a2908.893 2908.893 0 0 1-77.269-3.999c-3.058 13.798-9.487 26.068-19.288 36.812-12.466 13.721-27.167 21.404-44.103 23.051-2.194.391-4.508.744-6.938 1.06-3.372.314-7.566.393-12.584.234-1.569-.078-6.704-.352-15.407-.823-15.759-.783-29.597-8.076-41.515-21.874-10.585-11.997-16.975-26.462-19.17-43.397a95.588 95.588 0 0 1-.94-13.525c0-4.548.313-8.938.94-13.174a78.257 78.257 0 0 1 3.999-17.053l-4.823-5.526v-24.815l13.056-4.94h14.701c11.995-10.741 25.755-16.465 41.28-17.17a20.685 20.685 0 0 1-.117-1.999v-.236-2.587l-57.275-2.94 7.645-32.695 53.041-12.113c1.098-2.587 2.509-4.9 4.234-6.939 1.49-14.897 33.597-29.363 96.32-43.397l33.871-90.911c2.98-7.919 9.134-11.722 18.465-11.408l108.552 2 133.133 2.471c3.058 1.332 5.293 2.666 6.703 3.998 1.488 1.49 2.234 3.254 2.234 5.292 0 1.412-.117 2.549-.354 3.411l-4.938 29.284-4.821 28.697 2.353 177.822 61.39-7.057 17.524-56.098a2242.163 2242.163 0 0 0-2.118-49.748m-.119-.005v1.176l-18.463 1.646v-8.35l17.875-2.235c0 .158.039.354.117.588m.117 0c-1.801-31.439-4.116-60.253-6.938-86.442a2098.304 2098.304 0 0 0-1.883-16.582 427.291 427.291 0 0 0-2.116-15.406m-9.407 65.978c1.568 10.271 1.764 20.503.588 30.695l9.292-.588-4.941-79.267c.861-6.743-2.94-10.036-11.407-9.879l-32.93.353c-2.901 1.803-4.821 4.979-5.764 9.527l-1.764 15.171-4.351 34.225v33.988l11.173-.588-3.648-4.938v-21.876l7.177-7.88c11.367-1.412 23.557-1.06 36.575 1.057l-16.819 7.173v22.111l6.234 2.352 10.585 3.763c.234-1.49.43-3.057.588-4.705M331.941 111.23l236.627 6.704c5.959-.157 9.565-2.979 10.819-8.468l5.058-36.341 2.823-20.699c-.156-3.372-1.568-5.488-4.235-6.351-76.836-4.625-152.184-6.546-226.042-5.762-3.293-.627-5.958.744-7.997 4.116l-9.879 28.696-11.408 32.342c-.234 2.901 1.176 4.822 4.234 5.763zm256.033 48.69c.156-6.9-2.625-12.035-8.35-15.407l-165.476 22.816c5.489 1.019 10.232 2.43 14.231 4.233.235.079.47.196.705.353 6.9 3.137 11.644 7.449 14.231 12.937l143.128-16.111c.943-3.215 1.451-6.155 1.531-8.821l9.88-58.099m18.229 38.928l.351.471 9.88.353m-.001 19.405v-9.644l-9.88-.823H604.91c-2.509 5.723-2.394 10.546.352 14.466l21.051-3.999zm-9.879-10.467v-9.292m9.879.353v9.762m50.101 8.232c.158 2.431.314 4.822.471 7.175m-50.572-25.169l29.873.941m-16.819-6.115l-26.933-.588m26.933-21.523l-26.933-.353m-17.521-66.095l-11.173 78.328-268.146-8.233 27.638-76.797c.078-.158.196-.354.353-.588 2.039-4.626 5.959-6.625 11.761-5.999 35.204-.392 72.054-.235 110.552.471 38.417.705 78.404 2 119.96 3.881 6.193.47 9.211 3.449 9.055 8.937zm72.798 8.703h26.462c6.351 0 9.291 4.233 8.82 12.701v88.794l16.465-.94m-16.465.941l-26.462 1.529m-446.439 53.629h-.822c-5.018 0-9.292-2.313-12.82-6.939-3.528-4.469-5.292-9.839-5.292-16.112 0-6.351 1.764-11.761 5.292-16.23 2.744-3.449 5.88-5.567 9.409-6.35a12.344 12.344 0 0 1 3.411-.471h.822m0 46.102c4.705-.235 8.743-2.549 12.115-6.939 3.528-4.469 5.292-9.839 5.292-16.112 0-1.646-.079-3.254-.235-4.822-.706-4.313-2.391-8.115-5.057-11.408-3.372-4.391-7.41-6.665-12.115-6.821m184.056.235l-173.236-7.763c-5.567.079-10.507.745-14.818 2-.157 0-.393.039-.706.118-4.076 1.176-7.684 2.94-10.819 5.292a32.098 32.098 0 0 0-5.88 5.409m56.216 8.234c-.784-1.333-1.921-2.078-3.411-2.235-1.333-.156-2.509.314-3.528 1.411-1.176 1.02-1.842 2.392-2 4.116l-4.351 47.75c-.157 1.646.156 3.135.941 4.468.863 1.332 1.959 2.117 3.293 2.352h.117c1.333.236 2.549-.234 3.647-1.41 1.098-1.176 1.686-2.628 1.764-4.351l4.586-47.514c.157-1.804-.195-3.333-1.058-4.587zm11.29 3.999l-4.469 47.631c-.157 1.725.157 3.255.94 4.587.863 1.332 1.96 2.115 3.293 2.353h.118c1.412.156 2.666-.354 3.764-1.53 1.019-1.176 1.568-2.586 1.646-4.233l4.704-47.631c.157-1.725-.195-3.255-1.058-4.587-.942-1.254-2.118-2-3.528-2.235-1.255-.156-2.432.314-3.528 1.412-1.098 1.018-1.725 2.429-1.882 4.233zm19.17.822l-4.233 47.749c-.235 1.646.039 3.138.823 4.47.863 1.332 1.959 2.118 3.293 2.353h.117c1.333.234 2.587-.234 3.764-1.411 1.02-1.176 1.608-2.627 1.764-4.353l4.587-47.631c.078-1.803-.274-3.332-1.059-4.586-.783-1.255-1.92-1.961-3.41-2.117-1.333-.158-2.548.273-3.646 1.293-1.177 1.02-1.843 2.43-2 4.233zm41.634-2.94c-1.098 1.02-1.725 2.431-1.881 4.234l-4.352 47.63c-.078 1.728.195 3.294.824 4.704.862 1.255 1.959 2.001 3.293 2.235H335c1.411.236 2.666-.234 3.764-1.41 1.019-1.177 1.606-2.626 1.764-4.354l4.587-47.629c.156-1.803-.196-3.332-1.059-4.587-.862-1.254-2-2-3.411-2.234-1.333-.157-2.549.314-3.646 1.411zm-21.641 3.528l-4.704 47.749c-.078 1.728.274 3.255 1.059 4.587.784 1.335 1.921 2.079 3.411 2.235h.117c1.412.234 2.588-.197 3.528-1.293 1.098-1.257 1.725-2.706 1.881-4.354l4.47-47.748c.156-1.725-.197-3.254-1.059-4.586-.863-1.255-2-1.96-3.411-2.117-1.332-.157-2.469.313-3.41 1.41-1.176 1.021-1.802 2.392-1.882 4.117zm42.693-2.705c-1.098 1.098-1.764 2.51-2 4.234l-4.352 47.749c-.157 1.646.157 3.174.941 4.587.862 1.332 1.96 2.079 3.292 2.234h.118c1.412.234 2.666-.236 3.764-1.412 1.019-1.096 1.607-2.509 1.765-4.233l4.469-47.749c.156-1.803-.158-3.333-.941-4.587-.862-1.254-2-2-3.411-2.235-1.334-.078-2.549.394-3.645 1.412zm26.696 2.352c-.862-1.254-1.959-2-3.292-2.234-1.333-.157-2.548.313-3.646 1.411-1.176 1.02-1.803 2.431-1.882 4.234l-4.586 47.63c-.157 1.728.156 3.255.941 4.587.94 1.335 2.078 2.079 3.411 2.235h.117c1.412.234 2.626-.198 3.645-1.294 1.098-1.098 1.725-2.547 1.883-4.353l4.469-47.63c.156-1.802-.198-3.33-1.06-4.586zm47.866-3.528c3.686 4.313 5.528 9.488 5.528 15.524 0 5.958-1.842 11.133-5.528 15.524-3.92 4.233-8.546 6.35-13.877 6.35-5.41 0-9.997-2.117-13.76-6.35-3.92-4.391-5.88-9.566-5.88-15.524 0-6.037 1.96-11.212 5.88-15.524 3.764-4.313 8.351-6.469 13.76-6.469 2.666 0 5.135.549 7.409 1.647 2.274 1.097 4.43 2.705 6.468 4.822zm62.568 60.804h.471l11.644-.942 7.174-.469 11.29-21.64c13.643-5.489 29.048-8.076 46.221-7.763 10.663 25.56 17.993 52.805 21.992 81.739.627-26.188-3.372-54.178-11.995-83.973l-9.292-13.408c-22.189-.078-40.182 2.548-53.982 7.88-6.902 6.899-14.741 19.758-23.523 38.576l-58.333-5.293c-.393 2.901-1.02 5.49-1.882 7.762a4.682 4.682 0 0 0-.353.941c-3.92 9.251-12.035 13.799-24.345 13.643l49.043 4.351c9.408-9.565 21.602-15.641 36.575-18.229m-69.388-14.702c1.882 2.04 2.823 4.549 2.823 7.527 0 1.491-.196 2.823-.588 4a12.864 12.864 0 0 1-2.235 3.293c-1.803 2.038-3.92 3.058-6.35 3.058-2.745 0-5.018-1.02-6.821-3.058-1.882-1.961-2.823-4.392-2.823-7.293 0-2.979.94-5.487 2.823-7.527 1.803-1.959 4.076-2.939 6.821-2.939 2.43-.001 4.546.98 6.35 2.939zm10.35 6.234l7.997-36.223c1.019-6.352.51-11.879-1.528-16.583m-304.84 95.262a2914.42 2914.42 0 0 1 15.877 3.177c3.764.705 9.016 1.371 15.759 1.998 7.841.864 13.33 1.489 16.465 1.882 10.584 1.49 23.404 2.901 38.458 4.233 8.781.785 22.345 1.806 40.693 3.06 8.389.783 31.244 1.959 68.565 3.528 45.083 1.881 79.267 2.664 102.554 2.352 16.385-.236 26.108-.432 29.166-.588a906.654 906.654 0 0 1 15.288-.824l.589-22.934-3.997-.234L451.431 274l-173.707-10.938-5.292-.352-101.26-6.352-17.289-1.059-20.934-1.294h-.824m352.942 12.585l-25.757-2.235m.942-68.447c-9.252 10.976-17.054 24.894-23.404 41.75m68.33 30.696l-.588 21.994c-.864 5.329-8.821 11.604-23.876 18.817-5.958.156-11.761.352-17.404.588-1.725 7.682-2.589 15.758-2.589 24.227 0 24.461 6.783 45.318 20.348 62.566 9.957 12.544 24.109 21.25 42.455 26.11h.942c.078 0 .195.039.352.117h-.352m-155.243-85.736c14.818.549 29.794.941 44.925 1.176l10.232-27.521c-46.259.705-89.813-.195-130.662-2.704-8.859-.471-17.524-1.02-25.992-1.646-22.894-1.803-44.808-4.155-65.742-7.057l11.996 26.813a2618.728 2618.728 0 0 0 52.335 5.175c8.467.549 17.013 1.138 25.638 1.765m144.895 31.049c-2.666-9.722-3.999-20.11-3.999-31.166 0-7.762.746-15.211 2.235-22.346-3.607.078-7.174.117-10.703.117m38.929-.939c-9.567.391-18.975.666-28.226.822m69.506-20.227l-23.288 8.584-.588 10.233m-254.15-79.622c0 1.49-.234 2.901-.705 4.233a11.763 11.763 0 0 1-2.235 3.06c-1.803 2.115-3.959 3.175-6.469 3.175-2.586 0-4.782-1.06-6.585-3.175-.705-.629-1.254-1.296-1.647-2.001a8.307 8.307 0 0 1-1.058-2.939 13.233 13.233 0 0 1-.235-2.353c0-2.901.979-5.449 2.94-7.645 1.803-2.038 3.999-3.058 6.585-3.058 2.51 0 4.666 1.02 6.469 3.058 1.96 2.196 2.94 4.744 2.94 7.645zm183.704 30.461l-192.17-9.525c-2.745-.081-5.214-.589-7.41-1.53l-32.107.117h-18.699m50.805-.118c-2.666-1.096-4.743-2.745-6.233-4.938-1.254-1.882-2.117-4.354-2.588-7.41-8.389 2.511-16.151 6.663-23.286 12.466m22.581-17.17a22.67 22.67 0 0 0 .705 4.704m-.822-9.527l.588-37.751-50.219 2.117m-12.936 88.675a114.23 114.23 0 0 1-5.528-1.059 11.582 11.582 0 0 1-.824-.234m4.823 5.527a24.781 24.781 0 0 1 1.529-4.233m13.642 10.821a356.197 356.197 0 0 1-11.761-2.235l-3.41-4.353m65.037 14.937a1640.718 1640.718 0 0 1-19.053-3.058c-2.274 5.881-3.411 12.271-3.411 19.169 0 13.643 4.313 25.286 12.937 34.931 8.703 9.644 19.21 14.465 31.52 14.465 12.309 0 22.776-4.821 31.4-14.465 5.175-5.724 8.821-12.075 10.938-19.054m-83.384-35.045a526.43 526.43 0 0 1-30.813-5.292c-1.959 7.057-2.94 14.545-2.94 22.463 0 22.108 7.057 40.926 21.169 56.451 7.763 8.548 16.426 14.74 25.992 18.581 7.762 3.216 16.151 4.824 25.167 4.824 2.43 0 4.782-.12 7.056-.354m510.654-160.652h.354c6.741 0 12.427 7.563 17.053 22.696 2.898 8.233 4.938 17.446 6.114 27.639m-71.506-.234l31.754-84.442-20.228-8.232-35.636 93.028 24.11-.354h9.057l18.935-50.101 9.644-25.874 30.814-2.118c3.921 24.934 5.722 50.964 5.409 78.092m-26.696 99.025c-6.272-.939-11.604-8.154-15.996-21.638-2.196-6.822-3.841-14.27-4.938-22.346-1.411-9.252-2.118-19.288-2.118-30.109 0-10.897.707-20.933 2.118-30.107 1.098-8.074 2.742-15.484 4.938-22.229 4.94-14.896 10.548-22.462 16.818-22.696h-19.993m37.164 74.915c0 13.564-1.569 25.169-4.705 34.812-2.979 9.564-6.741 14.35-11.289 14.35-4.471 0-8.311-4.785-11.526-14.35-2.978-9.799-4.468-21.403-4.468-34.812s1.49-24.971 4.468-34.694c3.216-9.643 7.056-14.464 11.526-14.464 4.548 0 8.311 4.821 11.289 14.464 3.135 9.645 4.705 21.209 4.705 34.694zm7.527-112.55l-40.929 3.293m-36.809 85.265l-92.205 10.704m-1.765.588a98.35 98.35 0 0 1 4.938 16.582l72.917-9.879.942-.117L685 299.168l1.177-15.996 5.056-.822m-183.704-37.401c6.666-.469 13.879-.273 21.641.588h.939c19.054 0 35.324 8.625 48.808 25.874a91.421 91.421 0 0 1 13.29 23.053m-59.038-12.937c11.446 0 21.287 5.329 29.52 15.994 8.152 10.818 12.231 23.717 12.231 38.693 0 15.052-4.079 27.911-12.231 38.574-8.232 10.665-18.073 15.994-29.52 15.994-11.526 0-21.406-5.329-29.639-15.994-8.074-10.663-12.112-23.522-12.112-38.574 0-14.977 4.038-27.875 12.112-38.693 8.233-10.665 18.113-15.994 29.639-15.994zm-48.102-14.937c9.172-10.114 19.483-16.544 30.929-19.289 4.236-1.098 8.626-1.686 13.174-1.764m66.683 65.626l1.293-.117a119.088 119.088 0 0 1 1.765 14.113m72.094-9.88a273.316 273.316 0 0 1-.117-7.998c0-2.115.039-4.194.117-6.231m-91.381-156.537c-.629-7.135-92.166-12.31-274.615-15.524m267.676 67.507l-47.631-10.584c-23.758 1.098-45.359 4.43-64.802 9.997l58.45 8.468m-13.524 63.977l-20.11-1.764m22.461-21.641c-4.077.236-7.956.629-11.644 1.176m-13.994 29.873l23.287-7.645m-300.724-89.028c-1.332 3.058-2.274 6.389-2.822 9.997m551.345-.588l-8.35-4.704-41.868 5.645"/></g><g><path fill="none" stroke="#242424" stroke-width="2" stroke-linecap="round" stroke-linejoin="round" d="M750.743 300.344c.313 5.645.195 10.585-.354 14.818l-8.703-7.881 7.293-23.285c.94 7.371 1.528 12.82 1.764 16.348zm-5.411-29.99c-3.763-2.431-7.447-1.218-11.054 3.646l3.175 17.053 7.879-20.699zm-6.232 80.325c4.39-2.745 8.232-10.39 11.524-22.934H739.1v22.934zm-8.116-23.522c-1.725-8.152-1.725-16.779 0-25.873l3.999 11.055-3.999 14.818zm-163.357-6.231c-5.409-13.093-11.917-22.424-19.522-27.992l-1.293 31.755 20.815-3.763zm-23.051 27.401l8.938 27.05c7.605-7.527 13.055-18.935 16.349-34.224l-25.287 7.174zm-22.58-11.761v-.822c0-2.823.861-5.332 2.587-7.527 1.881-2.196 4.116-3.294 6.702-3.294 2.509 0 4.668 1.098 6.469 3.294 1.962 2.195 2.94 4.704 2.94 7.527v.822c-.156 2.744-1.135 5.136-2.94 7.173-1.801 1.962-3.96 2.94-6.469 2.94-2.586 0-4.821-.979-6.702-2.94-1.566-2.037-2.431-4.428-2.587-7.173zm-7.998 2.469l-12.114 22.582c-3.763-11.056-5.056-23.758-3.88-38.105l15.994 15.523zm-8.703-34.929l18.229 11.29 9.997-27.401c-9.88 1.333-19.289 6.703-28.226 16.111zm5.763 70.8l16.349-16.817 10.23 25.403c-10.192.863-19.052-1.998-26.579-8.586z"/></g></svg>