<svg xmlns="http://www.w3.org/2000/svg" xmlns:xlink="http://www.w3.org/1999/xlink" preserveAspectRatio="none" width="285" height="427" viewBox="0 0 285 427"><defs><g id="a"><path fill="#4B8200" d="M163.5 237.9h.65q-.15-.15-.25-.3l-.4.3m.65 0h.05q-.35-.45-.7-.85.15.2.4.55.1.15.25.3z"/><path fill="#416E00" d="M92.3 132.7q-.7 2.2-1.35 4.25-.05.05-.05.15-3.1 10.1-4.35 17.25v.2q-2.05 11.95-.4 22.05 0 .05.05.1l.1.6q2.25 12.25 9.3 23.7 8.2 13.5 22.35 24.45 7.8 4.5 16 7.4 14.25 5 29.55 5.05l.4-.3q-.25-.35-.4-.55-10.05-1.65-24.15-11.1-2.8-1.85-8.8-7.45-6.1-5.65-15.5-18.1-9.4-12.45-16.35-38.4-6.9-25.9-3.8-37.3-1.2 3.55-2.6 8z"/><path fill="#689311" d="M103.2 92.35v.2q.1-.45.05-.55-.04 0-.05.05v.3m.3-8.5q.1-5.85-.3-8.65-1.45-10.9-6.65-21.15-17.6-12.1-28.45-12.3-10.85-.2-19.05 6.45-8.25 6.5-11 21.75-2.85 15.25 15.45 43.6Q71.65 141.6 86 176.7l.3.6-.1-.6q-.05-.05-.05-.1-1.65-10.1.4-22.05v-.2q1.25-7.15 4.35-17.25 0-.1.05-.15Q67.8 112.4 59.5 94.65q-8.55-18.1-6.6-25.55 2-7.4 9.2-11.1 7.3-3.65 22.85 5.75 13.4 8.1 18.45 24.55.05-2.25.1-4.25v-.2m118.25-22.5q6.75-7.55 21.2-11.75-10.05-2.3-17.85-9.45-10 5.75-29.25 8.65-17.6 2.7-39.8 2.55-11.55-.15-22.1-1.05-9.45-.7-18.1-2.05-9.15-1.5-16.95-5.15-6.8-3.15-12.05-7.65 2.45 4.1 5.45 10 .2.35.4.75 1.55 3.05 3.85 7.85 5.2 10.25 6.65 21.15.4 2.8.3 8.65v.2q-.05 2-.1 4.25-.1 1.834-.2 3.75.01-.05.05-.05.05.1-.05.55-1.05 8.25-3.85 18.1-.45 1.55-3.75 11.9l-.1.3q-.2.5-.3 1.05l-.3.8q-3.1 11.4 3.8 37.3 6.95 25.95 16.35 38.4 9.4 12.45 15.5 18.1 6 5.6 8.8 7.45 14.1 9.45 24.15 11.1.35.4.7.85 6.2-.05 12.55-.85 15.9-2.15 32.75-9.4 2.3-1.75 4.35-3.65 23.9-21.3 25.1-49.35.55-12.05-3.1-26.7-2.45-10.05-8.3-25.65-6.85-18.7-8.4-23.65-3.85-12.4-3.6-20.65.25-9.95 6.2-16.65z"/><path fill="#396400" d="M195.85 48.8q19.25-2.9 29.25-8.65 7.8 7.15 17.85 9.45-5.6-11.9-18.05-19-9.8-5-29.05-7.95-17.6-2.7-39.8-2.5-10.65.1-21.4 1.05l-.7.1q-9.95.9-17.4 2.35-9.4 1.75-16.55 4.75-6.45 2.55-13.15 7.05 5.25 4.5 12.05 7.65 7.8 3.65 16.95 5.15 8.65 1.35 18.1 2.05 10.55.9 22.1 1.05 22.2.15 39.8-2.55z"/></g><path id="b" stroke="#1F3300" stroke-width="2" stroke-linejoin="round" stroke-linecap="round" fill="none" d="M280.616 106.892q-19.444 5.652-28.527 15.811-8.006 9.016-8.342 22.405-.337 11.101 4.844 27.787 2.085 6.66 11.303 31.823 7.872 20.992 11.168 34.515 4.912 19.713 4.172 35.928-1.615 37.744-33.775 66.406-2.758 2.557-5.853 4.911-22.674 9.756-44.07 12.65-8.544 1.076-16.887 1.143h-.942q-20.587-.067-39.762-6.795-11.034-3.903-21.53-9.958-19.04-14.734-30.075-32.9-9.486-15.407-12.514-31.891l-.403-.807q-19.31-47.231-43.733-84.976Q1.066 154.796 4.9 134.276q3.701-20.521 14.802-29.268 11.034-8.948 25.634-8.679 14.6.27 38.283 16.551-3.095-6.459-5.18-10.563-.27-.538-.54-1.009-4.036-7.94-7.333-13.456 9.016-6.055 17.695-9.487 9.621-4.036 22.27-6.391 10.025-1.951 23.414-3.162l.942-.135q14.465-1.278 28.796-1.413 29.872-.269 53.555 3.364 25.903 3.97 39.09 10.698 16.753 9.554 24.288 25.566zm0 0q-13.523-3.095-24.019-12.716-13.456 7.738-39.359 11.64-23.683 3.633-53.555 3.431-15.542-.202-29.738-1.413-12.716-.942-24.356-2.758-12.312-2.019-22.808-6.93-9.15-4.239-16.215-10.294m22.405 65.128q.134-7.872-.404-11.64-1.951-14.667-8.948-28.46m-1.279 92.175q4.441-13.927 5.047-16.013 3.767-13.254 5.18-24.356v-.269-.37q.136-2.611.27-5.08-6.796-22.135-24.827-33.034-20.925-12.649-30.748-7.738-9.688 4.98-12.38 14.937-2.623 10.025 8.882 34.38 11.168 23.885 42.32 56.92.874-2.759 1.816-5.72 1.884-5.987 3.499-10.764l.403-1.077m10.765-42.185q.135-.605.067-.74-.055 0-.067.101m.27-5.08q.067-3.027.134-5.718m-16.888 71.183q-.067.067-.067.201-4.171 13.591-5.853 23.212v.27q-2.759 16.08-.539 29.67 0 .067.068.135l.134.807"/><path id="c" stroke="#1F3300" stroke-width="1" stroke-linejoin="round" stroke-linecap="round" fill="none" d="M92.97 153.249v-.27m-11.168 53.892q.135-.74.404-1.413l.134-.403m92.31 155.216q-.472-.606-.943-1.144.202.27.539.74.134.202.336.404"/></defs><g transform="translate(-46.3 40.15) scale(1.34561)"><use xlink:href="#a"/><use xlink:href="#b" transform="matrix(.74315 0 0 .74315 34.4 -29.8)"/><use xlink:href="#c" transform="matrix(.74315 0 0 .74315 34.4 -29.8)"/></g></svg>