<svg xmlns="http://www.w3.org/2000/svg" width="900" height="450" viewBox="0 0 900 450"><path fill="#656364" d="M323.068 317.758c.5-1.429 1.429-3.107 2.786-5.036L232.01 431.206v.535h2.036c1.357-2.071 3.606-5.106 6.749-9.105 4.5-5.928 7.784-10.177 9.856-12.748 2.286-2.785 5.927-7.572 10.927-14.355 5.07-6.713 9.07-11.891 11.998-15.534 4.784-6.498 8.57-11.604 11.355-15.319 4.927-6.713 9.785-12.211 14.568-16.496 1.715-1.573 5.75-6.57 12.106-14.998.643-.857 2.964-3.536 6.963-8.034 2.215-2.573 3.715-5.038 4.5-7.394m85.702-109.484h-.428l-76.489 96.736c.856-1 1.75-2.001 2.678-3.001 7.071-7.641 10.927-12.032 11.569-13.175 1.144-2.143 5.179-7.786 12.106-16.928.713-.855 2.891-3.32 6.534-7.392 3.643-3.999 5.713-6.356 6.213-7.07 9.5-12.426 16.284-21.318 20.354-26.675a3439.54 3439.54 0 0 1 17.463-22.495m71.026 11.784l-9.856-6.535-35.672-5.249H408.77a3355.193 3355.193 0 0 0-17.461 22.496 13600.15 13600.15 0 0 1-20.354 26.675c-.5.714-2.57 3.071-6.213 7.07-3.643 4.071-5.821 6.536-6.534 7.392-6.928 9.142-10.963 14.785-12.106 16.928-.643 1.143-4.499 5.534-11.569 13.175-.928 1-1.822 2.001-2.678 3.001l-5.999 7.712c-1.357 1.929-2.286 3.607-2.786 5.036-.786 2.356-2.285 4.821-4.499 7.393-4 4.498-6.321 7.177-6.963 8.034-6.356 8.428-10.392 13.425-12.106 14.998-4.784 4.285-9.641 9.783-14.568 16.496a2346.824 2346.824 0 0 0-11.355 15.319c-2.928 3.644-6.928 8.821-11.998 15.534-5 6.783-8.642 11.57-10.927 14.355-2.072 2.571-5.356 6.82-9.856 12.748-3.143 3.999-5.392 7.034-6.749 9.105h138.623l19.711-29.782c14.783-26.853 28.709-53.67 41.779-80.451a1707.049 1707.049 0 0 0 20.462-43.493l14.355-31.176 10.817-26.781m-68.025 18.319c2.143-.929 4.57-1.394 7.284-1.394.5 0 1.536.251 3.106.749 1.644.43 2.928.645 3.857.645-.929 0-2.214-.215-3.857-.645-1.57-.498-2.606-.749-3.106-.749-2.714 0-5.142.465-7.284 1.394-2.715 1-6.036 1.679-9.964 2.034 3.928-.355 7.249-1.034 9.964-2.034m18.853 18.212c.928 1.143 1.786 1.927 2.572 2.355.642.214 1.643.322 3 .322 1 0 3.178-.393 6.534-1.18 2.928-.784 5.214-1.033 6.856-.749-1.643-.284-3.928-.035-6.856.749-3.356.787-5.534 1.18-6.534 1.18-1.357 0-2.357-.108-3-.322-.786-.428-1.644-1.213-2.572-2.355m-46.6 47.242h1.928a7.897 7.897 0 0 1 1.5-.322c1.643-.213 2.678-.319 3.106-.319.929 0 2.286.319 4.072.962 1.714.645 2.964.965 3.75.965 1.428 0 2.964-.429 4.606-1.285h6.642v1.285-1.285h-6.642c-1.643.856-3.178 1.285-4.606 1.285-.786 0-2.036-.32-3.75-.965-1.786-.643-3.143-.962-4.072-.962-.428 0-1.463.106-3.106.319a7.975 7.975 0 0 0-1.5.322h-1.928m-5.25 43.923c.929.429 3 .606 6.214.535 2.929-.073 5.249.429 6.963 1.5-1.714-1.071-4.035-1.573-6.963-1.5-3.213.071-5.285-.106-6.214-.535m-39.315-17.034c1.785-.429 4.606-.643 8.462-.643-3.855 0-6.677.214-8.462.643m42.316 50.136c1.357.643 2.32.962 2.892.962.714 0 1.143-.033 1.286-.106.5-.286.964-1.106 1.393-2.463-.428 1.356-.893 2.177-1.393 2.463-.143.073-.571.106-1.286.106-.572 0-1.535-.319-2.892-.962-1.429-.645-2.428-.965-3-.965-2 0-4.535.643-7.605 1.927-2.928 1.358-5.071 2.036-6.428 2.036-.571 0-1.071-.106-1.5-.32.429.214.929.32 1.5.32 1.357 0 3.5-.678 6.428-2.036 3.07-1.284 5.606-1.927 7.605-1.927.572.001 1.571.321 3 .965m-104.985 4.606c-.143.144-.214.286-.214.429h-.644l.858-.429h.213l4.5-2.25c1.928-.929 3.429-1.394 4.5-1.394 1 0 3.25.573 6.749 1.716a33.31 33.31 0 0 0 10.606 1.714c.643 0 1 .035 1.071.106-.071-.071-.429-.106-1.071-.106a33.31 33.31 0 0 1-10.606-1.714c-3.5-1.143-5.749-1.716-6.749-1.716-1.071 0-2.571.465-4.5 1.394-1.713.858-3.214 1.607-4.5 2.25.358-.143.858-.214 1.5-.214v1.82-1.82c-.643 0-1.143.071-1.5.214h-.213m16.818 35.031c2.357 0 4.82-.645 7.392-1.929 2.5-1.285 4.392-1.93 5.677-1.93.429 0 1.965 1.071 4.606 3.214 2.643 2.216 4.821 3.323 6.536 3.323-1.715 0-3.893-1.107-6.536-3.323-2.642-2.143-4.177-3.214-4.606-3.214-1.286 0-3.178.645-5.677 1.93-2.571 1.285-5.035 1.929-7.392 1.929-.499 0-1.464-.073-2.892-.216-1.357-.284-2.393-.429-3.107-.429.715 0 1.75.145 3.107.429 1.429.143 2.393.216 2.892.216M479.796 207.63l-9.212 2.25 9.212 10.177V207.63m37.708-78.951l4.607-16.712-4.285-4.606-14.678-3.964h-25.601l-8.57 8.57-7.179 14.783-10.819 11.999-11.142 20.033 1.179 5.463c1.571.287 3.429-.286 5.571-1.714 2-1.286 4.285-1.607 6.857-.964-2.572-.643-4.857-.321-6.857.964-2.142 1.428-4 2-5.571 1.714l-3.321-2.25-11.569 16.498-9.856 17.033 9.856 5.892h3.213l19.712 4.606 21.534 3.857 9.212-2.25 9.535-14.998 4.498-14.462 10.284-15.426 4.82-15.105 2.358-1.393 1.284-.856-4.178-6.963h5.143l3.963-9.749m-34.494 36.208c1.571 0 3.643.607 6.212 1.821 2.285 1.071 4.572 1.393 6.856.964-2.284.429-4.571.107-6.856-.964-2.57-1.214-4.641-1.821-6.212-1.821m5.25-16.39c3.927 0 6.783.213 8.57.643-1.787-.43-4.643-.643-8.57-.643m38.349-50.35v-4.285l-24.532-2.678 24.532 6.963m2.25-80.238h-32.674c1 7.355.894 15.069-.32 23.139L491.9 60.117l-8.142 21.639c-7.212 9.07-10.497 14.749-9.854 17.034l16.389 4.606h12.855l14.678 3.964 4.285 4.606 4.498-13.819-24.532-6.963 24.532 2.678v-3.964l3.644-8.463 1.929-6.855a683.004 683.004 0 0 0-.645-24.318 130.71 130.71 0 0 0-1.284-12.855h-15.32 15.32l-1.394-19.498m-24.853 50.029c.643 0 1.501.106 2.572.321.998.215 1.749.321 2.249.321.787 0 2.249-.142 4.392-.428 2.143-.287 3.823-.536 5.036-.75-1.213.214-2.894.463-5.036.75-2.143.286-3.604.428-4.392.428-.5 0-1.251-.106-2.249-.321-1.071-.215-1.93-.321-2.572-.321m108.628-16.284l-25.391-.429-45.849-.856-9.857-.107c.357 8.07.573 16.176.645 24.318l-1.606 6.855.427 16.39-1.607 9.642 12 .429 60.42 1.607 38.565 1.071 48.207 1.286-39.423-59.563-4.179 2.572 1.5 2.463.106.215 2.036 3.428 2.465 3.964 2.034 3.32 1.5 2.572 1.822 2.892.535 1.071 2.569 4.071 3.323 5.57 3.214 5.25 3.533 5.892 3.107 5.142 3.643 5.892-138.623-3.535V53.475l107.234 1.393V52.19l-32.35-.536z"/><path fill="#404248" d="M416.269 195.525l-.642 5.892h10.499l-9.857-5.892m54.315 14.356l-.645 3.642 9.856 6.535-9.211-10.177m-29.568-45.637l-1.179-5.463-2.143 3.214 3.322 2.249m86.665-47.028l-5.569 18.318v6.856l-3.856 5.249v12.106l-5.679 12.533v10.713l-6.534 19.391-11.784 25.174-6.214 16.714-8.248 7.605v5.892l-6.75 14.782v0l-.749 1.607v14.355l-10.605 18.747a8.56 8.56 0 0 1-.322 1.287l-1.285 3.962 1.285-3.962c.143-.43.251-.858.322-1.287l-15.319 29.46-9.535 12.855-9.748 23.89-8.892 16.712-8.57 25.817-10.713 15.748h194.007v-.644l-2.355-7.713a23.205 23.205 0 0 1-.322-2.036c-.143-1.071.106-1.962.749-2.678.07-.214.751-.678 2.035-1.392 1.071-.571 1.681-1.322 1.822-2.251-1.573-1.214-2.357-2.32-2.357-3.32.713-.214 1.5-.32 2.357-.32v-4.607c-.573-.5-.929-.822-1.071-.965a1.158 1.158 0 0 1-.215-.643c0-.857.429-1.571 1.286-2.142.856-.643 1.285-1.252 1.285-1.82 0-.503-.355-1.323-1.071-2.465-.787-1.143-1.178-2.001-1.178-2.572 0-.357.32-.998.964-1.927.643-.857.963-1.429.963-1.716 0-.213-.143-.643-.427-1.284-.357-.643-.536-1.071-.536-1.285 0-.786.643-1.606 1.928-2.465 1.357-.929 2.035-1.606 2.035-2.035 0-.643-.571-1.358-1.713-2.143-1.145-.785-1.785-1.571-1.93-2.356 1.643-.216 2.643-.894 3.001-2.036l-1.714-1.284c0-.502.178-1 .535-1.5.356-.5.536-.858.536-1.071-.502-2.001-.751-3.287-.751-3.856 0-1.071.5-1.894 1.5-2.465 1-.643 1.5-1.787 1.5-3.427 0-.503-.178-1.214-.535-2.143-.287-.787-.43-1.43-.43-1.93 0-1.071.607-2.143 1.82-3.214 1.143-1.071 1.716-1.929 1.716-2.571 0-.214-.429-1.429-1.286-3.643-.856-2.214-1.285-3.641-1.285-4.285 0-.714.536-1.498 1.607-2.356 1.071-.857 1.606-1.642 1.606-2.355 0-.645-.145-1.143-.429-1.5-.355-.5-.536-.894-.536-1.178 0-.787.465-1.607 1.394-2.465.856-.858 1.285-1.679 1.285-2.465 0-.427-.214-1.179-.643-2.25s-.643-1.927-.643-2.571c0-.569.356-1.178 1.071-1.82.785-.642 1.179-1.106 1.179-1.394 0-.427-.145-1.104-.43-2.033-.355-.858-.535-1.43-.535-1.716 0-.929.284-1.714.857-2.356.643-.642 1-1.213 1.071-1.713.071-.43.106-1.394.106-2.895-.072-.929.107-1.64.536-2.142.571-.569.784-1.356.643-2.356-.214-1-.322-1.714-.322-2.143 0-.284.286-.857.857-1.714.5-.857.749-1.606.749-2.249 0-.573-.249-1.606-.749-3.107-.571-1.571-.857-2.751-.857-3.535 0-2.356.357-3.75 1.071-4.179 2.357-1.641 4.071-3.034 5.143-4.177-.716-.429-1.571-.964-2.571-1.606-1.071-.858-1.607-1.394-1.607-1.607 0-.286.216-.751.643-1.394.216-.284.429-.606.645-.964 0-.214-.322-.536-.965-.965-.642-.498-.964-1.104-.964-1.82 0-.284.251-.892.749-1.82.573-.929.857-1.536.857-1.822 0-.358-.322-.998-.965-1.927-.642-.858-.964-1.43-.964-1.716 0-1.285.502-2.963 1.5-5.034.857-1.858 1.606-3.034 2.249-3.536l-.855-.749c0-1.5-.145-3.214-.429-5.144-.356-2-.536-3.355-.536-4.069 0-.429.394-1.216 1.178-2.357.714-1.143 1.071-2.143 1.071-2.999-1.071-2.357-1.606-3.785-1.606-4.285 0-.857.216-1.894.643-3.106.429-1.143.645-1.749.645-1.82 0-.716-.322-1.501-.965-2.358-.643-.927-.965-1.894-.965-2.892 0-1 .18-1.929.536-2.785.284-.857.429-1.645.429-2.357-.929-1.43-1.394-2.392-1.394-2.892s.322-.93.965-1.287c.5-.355.749-.892.749-1.607 0-.285-.569-2.285-1.714-5.999 0-1.285.178-2.428.535-3.427.358-1 .536-1.857.536-2.572 0-.429-.32-1.178-.965-2.249-.713-1.071-1.071-1.857-1.071-2.357.287-4.5.429-7.963.429-10.392 0-.357.216-.964.643-1.821.429-.928.645-1.607.645-2.035 0-1.144-.464-2.357-1.394-3.643-1-1.286-1.5-2.071-1.5-2.357 0-.571.322-1.286.965-2.143.642-.857.964-1.713.964-2.57 0-.644-.249-1.286-.751-1.929-.642-.571-.962-1.143-.962-1.713 0-.786.284-1.321.855-1.607.714-.5 1.216-1.393 1.5-2.678-.786-1.643-1.427-2.821-1.929-3.535-.93-1.357-1.928-2.036-2.998-2.036 0-.786-.145-1.643-.43-2.571-.355-.929-.535-1.464-.535-1.607 0-.287.213-.857.643-1.714.429-.928.642-1.607.642-2.035 0-.571-.427-1.429-1.284-2.572.5-.642 1.035-.964 1.606-.964-.142-.999-.571-1.714-1.284-2.143-.502-.428-1.394-.821-2.679-1.178 0-.856.785-2.249 2.356-4.178 1.571-1.928 2.355-3.214 2.355-3.856 0-.715-.213-1.607-.642-2.678-.571-1.286-1.25-2.072-2.036-2.357.216-.715.502-1.143.857-1.286h1.393c-.142-.213-.464-.713-.964-1.499-.358-.644-.93-1.144-1.714-1.5 0-.643.535-1.535 1.606-2.678 1-1.071 1.498-2.214 1.498-3.428 0-.143-.355-1.107-1.071-2.892 0-.644.181-1.144.536-1.5.357-.429.535-.821.535-1.178 0-.929-.355-1.75-1.071-2.465-.642-.643-.962-1.607-.962-2.892 0-1.071-.181-2.178-.536-3.322a5.66 5.66 0 0 0-.322-1.286c-.142-.5-.213-.821-.213-.963 0-.357.106-.644.32-.857.073-.143.215-.393.429-.75-.716-.5-1.285-.893-1.714-1.179-.784-.571-1.178-1.32-1.178-2.249v-1.607l-60.42-1.607-12-.429-1.711 9.75m23.784 3.749c2.427 0 4.318.214 5.676.642V123v-1.393c-1.358-.427-3.249-.642-5.676-.642-1.93 0-3.323.214-4.179.642.856-.427 2.249-.642 4.179-.642m-15.32 1.714c.214-.071.429-.214.643-.428-.215.213-.43.357-.643.428-.355.144-.787.25-1.285.321h-.429a41.048 41.048 0 0 0-2.678-1.499c-.714-.357-1.249-.536-1.607-.536.358 0 .894.179 1.607.536.713.356 1.606.856 2.678 1.499h.429a5.615 5.615 0 0 0 1.285-.321m35.994.965c.429 0 .643.179.643.536 0 .356-.143.571-.427.642-.071 0-.143.036-.216.108 2.216 0 3.75-.25 4.607-.75v1.392-1.392c-.857.5-2.392.75-4.607.75h-1.392c-.429 0-1.213-.108-2.357-.322-1.143-.286-2.069-.428-2.785-.428.716 0 1.643.142 2.785.428 1.145.214 1.929.322 2.357.322h1.392v-1.286m-41.993-6.643h2.679c0 1.286-.216 2.428-.643 3.428.427-1 .643-2.143.643-3.428h-2.679m-.964 69.418c.284.286.429.536.429.75-.5.214-1.178.536-2.036.965a1.26 1.26 0 0 1-.322.213c-.713.358-1.284.608-1.714.75.43-.142 1.001-.392 1.714-.75-.569-.785-.855-1.607-.855-2.464h2.463c-.002.144.107.322.321.536m20.031-35.244c-.929-.929-1.464-1.75-1.606-2.465a18.279 18.279 0 0 1 0 0c.215-.142.394-.213.535-.213.43 0 1.181.357 2.252 1.071 1.213.713 1.927 1.249 2.143 1.607h-3.324m3.323 28.067v-.536c.354.284.568.462.642.536-.074-.07-.288-.07-.642 0m21.639-7.391c.857.142 1.5.214 1.929.214-.429 0-1.072-.072-1.929-.214-.929-.286-1.607-.429-2.036-.429.428 0 1.107.143 2.036.429m-11.142-6.964h3.214-3.214m27.853-46.708c.43.214.751.322.965.322v1.285h-1.929v-2.035c.141 0 .464.143.964.428m.965 17.141c.429-.571.857-1 1.285-1.285v2.035h-.643a5.076 5.076 0 0 1-.642-.75c-.214.143-.465.393-.749.75.284-.357.535-.607.749-.75-.5-.643-.749-1.25-.749-1.82.498 0 .749-.215.749-.644 0 .429-.251.644-.749.644 0 .57.249 1.177.749 1.82M475.082 273.729c2.355 1 4.356 1.178 5.999.535-1.643.643-3.643.465-5.999-.535m4.714 65.667c-.073-1.143-.073-1.82 0-2.035h2.571c.856.786 1.285 1.749 1.285 2.894 0 .643-.071 1.143-.214 1.5-.286.355-.429.606-.429.749h-2.678c-.643-.643-1.249-1.749-1.822-3.32.429 0 .644-.178.644-.536.427 1.285.643 1.534.643.748m-41.352 53.564v1.93-1.93c-1 .93-5.142 3.966-12.426 9.106-6.999 5.143-10.927 8.893-11.784 11.248.857-2.355 4.785-6.105 11.784-11.248 7.284-5.14 11.426-8.176 12.426-9.106m39.316-1.927c.643 0 1.179.106 1.607.32.571.216.892.322.965.322v5.999h-1.179c0-.214-.108-.394-.322-.536l-.321-.106c0-.216-.32-.714-.963-1.5-.857-.858-1.678-1.465-2.465-1.82.643-.716 1.106-1.43 1.394-2.143.142-.358.569-.536 1.284-.536m-24.961 29.46c.071.998-.071 1.785-.427 2.356-.071.07-.573.606-1.5 1.606-.858-1.284-1.286-2.143-1.286-2.571.428 0 .643-.178.643-.536.429.571.643.679.643.322v-1.178h1.927m135.089-219.503c.427.357 1.104.536 2.034.536-.93 0-1.608-.179-2.034-.536m4.605 53.671c.145 0 .5-.071 1.071-.214.571-.287 1.106-.429 1.606-.429-.5 0-1.035.142-1.606.429-.571.143-.926.214-1.071.214m-34.281-47.779c.858.428 1.571.643 2.143.643.5 0 1.179-.107 2.036-.321.857-.286 1.5-.429 1.929-.429h.643v-1.178c-1.714-.429-3.249-.644-4.607-.644 1.358 0 2.894.214 4.607.644v1.178h-.643c-.429 0-1.071.144-1.929.429-.857.214-1.536.321-2.036.321-.572 0-1.285-.215-2.143-.643-.784-.429-1.391-.644-1.82-.644.429.001 1.036.216 1.82.644m-31.816 26.14c.071 0 .643-.108 1.714-.322.571 0 1 .071 1.284.214-.284-.143-.713-.214-1.284-.214-1.071.213-1.642.322-1.714.322m-16.498 34.816c-.643.498-1.536 1.071-2.679 1.714-1.642 1.071-2.82 1.606-3.535 1.606-.569 0-1.071-.144-1.499-.429-.357-.213-.644-.322-.857-.322v-3.427c2.93-.716 5.785-1.285 8.57-1.714v2.572m47.995-12.964l1.82 3.107h1.929c0-1.285.249-1.928.749-1.928v-3.213h-2.678 2.678v3.213c-.5 0-.749.643-.749 1.928h-1.929l-1.82-3.107m10.925 53.564a110.048 110.048 0 0 0-2.356-1.071c-1-.498-1.715-1-2.143-1.498.785-.929 1.428-1.606 1.928-2.036h2.571v4.605m5.999 27.639c-1.928.858-3.141 1.285-3.644 1.285-4.998 0-8.428-.679-10.283-2.034 1.855 1.355 5.285 2.034 10.283 2.034.504 0 1.717-.426 3.644-1.285 1.642-.716 2.927-.965 3.855-.749v-.645c-.355 0-.642-.106-.855-.32-.287-.286-.429-.608-.429-.964h-5.25 5.25c0 .355.142.678.429.964.214.214.5.32.855.32v.645c-.928-.216-2.213.033-3.855.749m-44.671-35.351h-1.286c-1.428-1.5-2.25-2.428-2.463-2.785 1.071 0 1.927.071 2.571.214.643.073 1.033.215 1.178.429v2.142m-29.247 18.211c.713-.284 1.249-.213 1.606.214.43.645.714 1 .858 1.071h3.214v-3.32c-1.93-.998-3.214-1.43-3.856-1.285.643-.145 1.927.287 3.856 1.285v3.32h-3.214c-.145-.071-.429-.427-.858-1.071-.357-.427-.893-.499-1.606-.214m-.213 17.034c1.285.429 2.605 1.106 3.963 2.036v-2.679c-2.143-1.573-3.892-2.214-5.249-1.929 1.357-.285 3.106.355 5.249 1.929v2.679c-1.358-.93-2.678-1.608-3.963-2.036m30.851 39.314c0-.286.357-.429 1.071-.429.716 0 1.214.143 1.5.429v2.571h-1.284c-.858-.786-1.287-1.642-1.287-2.571m-22.281-6.534v-2.036 2.036l.32.106c.216.073.322.249.322.536.071-.358.213-.749.429-1.178.287-.571.571-.858.855-.858v2.036h-1.284c0-.287-.106-.463-.322-.536l-.32-.106m7.177 33.423c.929-.784 1.571-1.465 1.93-2.034h2.678v3.963h-2.678c0-.857-.643-1.284-1.93-1.284-.643 0-1.035.143-1.178.427-.071.071-.106.357-.106.857 0-.5.035-.786.106-.857.143-.284.535-.427 1.178-.427v-.645m60.42-29.995c-.857-.214-1.5-.465-1.929-.75.429.285 1.071.536 1.929.75.716.357 1.107.964 1.179 1.822-.287 0-.463.142-.536.429l-.106.213c-.787 0-1.394-.035-1.82-.106.427.071 1.033.106 1.82.106l.106-.213c.073-.287.249-.429.536-.429-.072-.858-.464-1.465-1.179-1.822m-40.708-20.461c.284.286.571.535.857.751 0-.143.034-.251.107-.322.213-.571.319-.929.319-1.071h1.394v2.571c-.284-.145-.749-.429-1.394-.857a1.717 1.717 0 0 1-.427-.32 8.246 8.246 0 0 1-.856-.752m32.673 64.276h-3.214v-3.321c1.214 0 2 .43 2.355 1.285l.859 2.036m-39.959-115.268h1.286v-2.143c-.145-.214-.535-.355-1.178-.429-.645-.143-1.5-.214-2.571-.214.213.358 1.036 1.286 2.463 2.786m-257.533-.859c-.286.216-.607.607-.964 1.181-.429.355-1 .427-1.714.213.786 1 1.786 1.465 3 1.394l2.893-.108v-2.679h-3.215m-44.137 31.067a14.064 14.064 0 0 1-1.071-.214l.644.643c.071-.143.214-.288.427-.429m1.715-.857c-.786.287-1.357.571-1.715.856 1.144.357 2.75.929 4.821 1.716v-2.572c-.428 0-.643-.249-.643-.751-.499 0-1.321.251-2.463.751m-11.998-10.499c.5 0 1-.071 1.5-.213-.714-.643-1.214-1-1.5-1.071v1.284m3.214-.965a17.97 17.97 0 0 1-1.714.752c.143.07.286.178.428.319.856.787 1.606 1.181 2.25 1.181.643 0 1.035-.109 1.178-.322.214-.214.392-.322.536-.322v-2.678c-.571 0-1.464.357-2.678 1.07m179.331-125.551c-.429-.786-.858-1.178-1.286-1.178-.857 0-2.036.606-3.535 1.82h1.928c1.643.857 2.928 1.286 3.856 1.286v-1.286c-.286.214-.606 0-.963-.642m245.534-137.23c.357.428.857.928 1.5 1.499l-1.5-2.463v.964m0-3.643v2.678l4.179-2.572-4.179-.106m-50.992-29.566c0 .499.284.893.857 1.178.643.356 1.001.606 1.071.75.071.142.143.607.214 1.393.071.571.251.928.535 1.071.571.571 1.036 1.428 1.394 2.571.143.499.394.857.749 1.071.571.428.892.678.965.749.5.5 1.571 2.107 3.214 4.821 0 .143-.035.25-.106.322-.143.071-.216.178-.216.321 0 .428.714 1.428 2.143 2.999s2.178 2.857 2.249 3.856c.071.571.465 1.107 1.181 1.607.929.643 1.535 1.25 1.82 1.821 1.143 2.215 2 3.357 2.571 3.428v1.071l32.352.536 4.179.106 39.423 59.563-48.207-1.286c.071.071.214.179.427.321.358.429.536.821.536 1.179 0 .428-.214.964-.643 1.607-.429.713-.643 1.107-.643 1.178.858.571 1.465 1.321 1.82 2.249.071.358.143.715.216 1.071.213 1.358.106 2.536-.322 3.536 1.429.928 2.287 2.606 2.571 5.034.285 2.429 1.178 4.143 2.679 5.143-.571.428-.892.713-.965.856v.643c0 .571.394 1.071 1.178 1.5 1.071.571 1.645.893 1.716.964v.964c-.429.214-1.071.321-1.929.321.142.429.5 1.536 1.071 3.321.715 1.571 1.749 2.428 3.106 2.571a2.935 2.935 0 0 1-.751.856c-.284.144-.465.322-.535.536.286.929.929 1.607 1.929 2.036.571.356 1.251.642 2.036.856v2.464c0 .929.213 1.643.642 2.143 1.071 1.071 1.394 2.822.965 5.25-.073.5.287 1.286 1.071 2.357.855 1.214 1.285 2.107 1.285 2.678 0 .715-.287 1.178-.856 1.393-.573.143-.857.5-.857 1.071 0 .857.251 1.571.749 2.143.143.357.357.678.645.964 0 .286-.143.5-.429.643-.216.142-.322.357-.322.642 0 .715.357 1.358 1.071 1.929.642.643.964 1.285.964 1.928 0 .286-.322.75-.964 1.393-.714.642-1.071 1.213-1.071 1.713 0 .358.393 1.144 1.178 2.357.716 1.286 1.071 2.428 1.071 3.429 0 .571-.143.929-.427 1.071-.358.143-.536.321-.536.536 0 .643.465 1.321 1.392 2.036.858.713 1.287 1.249 1.287 1.607 0 .5-.216 1.071-.645 1.713-.569.571-.929.965-1.071 1.178.929.858 1.716 1.286 2.358 1.286-.5.286-1.287.429-2.358.429-1 .071-1.749.25-2.249.536.286 1.071 1.035 1.714 2.249 1.928.716.071 1.716.179 3 .321v.644c0 .5-.284 1.178-.857 2.035-.498.857-.749 1.464-.749 1.821 0 .571.18.929.535 1.071l.43 2.357c.213.428.429.821.642 1.178.43 1.071.643 1.857.643 2.357v1.178c-.213.5-.643.894-1.284 1.179.357.714 1.035 1.678 2.035 2.893.856 1.213 1.285 2.5 1.285 3.856 0 .143-.214.536-.643 1.178-.5.714-.751 1.179-.751 1.394 2 3.07 3 4.642 3 4.713 0 .571-.035.929-.106 1.071-.287.429-.929.608-1.929.536.357.644 1 1.537 1.929 2.679.5.643.749 1.465.749 2.463l-.965 3.001c0 .429.251 1.106.751 2.035.43.93.643 2.034.643 3.321v.429c0 .713.181 1.498.536 2.355.429 1.071.642 1.858.642 2.356 0 .573-.213 1.213-.642 1.929-.355.716-.536 1.178-.536 1.394 0 .214.607 1.178 1.82 2.892 0 .071.038.143.109.214l.106.108c1.357 2 2.604 3.356 3.749 4.069.643.43 1.107 1.93 1.392 4.501 0 .355.645 1.678 1.93 3.963-.285.071-.536.143-.749.213-.787.216-1.181.679-1.181 1.394 0 .43.822 1.322 2.465 2.679 1.571 1.284 2.356 2.249 2.356 2.892 0 .357-.465.857-1.392 1.5-1 .643-1.5 1.249-1.5 1.822 0 1.071.284 2 .857 2.785.355.429.929 1.035 1.714 1.82v3.214c-.714.286-1.358.429-1.93.429-.713 0-1.249-.251-1.606-.749h-1.927v1.927c.784.714 1.82 1.107 3.104 1.179.929.357 1.394 1.535 1.394 3.535 0 .071-.284.679-.857 1.82-.498 1.358-.749 2.607-.749 3.75-2.572-.427-4.072.143-4.499 1.716-.716 2.355-1.536 3.856-2.465 4.498.355.429 1.465 1 3.32 1.714 1.287.571 1.93 1.571 1.93 3 0 .571-.178 1.643-.536 3.214-.286 1.571-.429 2.534-.429 2.892.143.073 1.036.5 2.679 1.287v1.607c-.214 0-.607.213-1.179.642-.713.429-1.215.678-1.5.749.143.785.929 1.643 2.356 2.571 1.286.858 1.929 1.428 1.929 1.714 0 .714-.606 1.394-1.82 2.036-1.143.571-1.716 1.427-1.716 2.571 0 .855 1.214 2.785 3.643 5.785a182.991 182.991 0 0 0 3.536 4.069c0 .643-1.32 2.358-3.965 5.144 0 .643.038 1.643.109 2.998 0 1.358-.252 2.858-.752 4.501v2.355c2.143.429 3.214 1.93 3.214 4.501 0 .569-.32 1-.964 1.284-.643.285-.963.965-.963 2.036.214 1.429.536 2.714.963 3.856.286.571.502 1.071.644 1.5 0 .643-.321 1.143-.964 1.5-.643.355-.965.963-.965 1.82 0 .858.214 1.643.643 2.356.429.573.643 1.071.643 1.5 0 .216-.32.929-.963 2.143-.645 1.071-.965 1.714-.965 1.929 0 1.285.894 3.392 2.679 6.321.855 1.427 1.5 2.498 1.927 3.214.429.784.645 1.249.645 1.392 0 1.071-.429 1.751-1.287 2.035a46.249 46.249 0 0 0-3.643.858h-.106c-.143.142-.214.394-.214.749 0 .643.643 1.82 1.928 3.536 1.357 1.713 2.035 3.176 2.035 4.392 0 .643-.391 1.143-1.178 1.5-.787.427-1.178.929-1.178 1.498 0 .573.249 1.965.749 4.179 0 1.216-1.214 1.751-3.643 1.606v3.214c.573.571 1.394 1.214 2.465 1.93.786.642 1.178 1.535 1.178 2.678 0 .284-.143.643-.429 1.071-.214.5-.32.892-.32 1.178 0 1.358.391 2.25 1.178 2.679.787.357 1.178 1.143 1.178 2.355 0 1.93-.749 3.823-2.249 5.679-1.571 1.856-2.355 3.892-2.355 6.105 0 .357.393.965 1.178 1.822l.106.107c.071.142.143.248.214.321h68.561l3.001-406.012-3.75-7.82H528.859l1.394 19.498c.642 4.285 1.071 8.57 1.284 12.855l9.857.107 45.849.856c-.213-1.213-.394-1.999-.535-2.356-.285-.5-.785-.786-1.498-.857 0-.643-.143-1.393-.43-2.25l-.535-1.178a.95.95 0 0 1 .106-.429c0-.142.071-.286.214-.429.142-.213.215-.428.215-.643 0-.286-.249-.5-.751-.642-.569-.287-.929-.571-1.071-.858-.213-.213-.249-.536-.106-.963.073-.358 0-.679-.214-.965-.144-.356-.5-.786-1.071-1.286-.5-.428-.822-.999-.964-1.714-.143-.571-.607-1.036-1.394-1.392-.643-.358-.892-1.036-.749-2.036 0-1.142-.214-1.928-.643-2.357-.5-.428-.751-.892-.751-1.393 0-.356.143-.75.429-1.178.145-.429.216-.679.216-.75l-2.143-1.821a17.568 17.568 0 0 0-.216-1.5 2.081 2.081 0 0 0-.749-1.394c-.357-.285-.714-.786-1.071-1.499-.286-.5-.68-.857-1.178-1.071l-1.607-1.071 13.498-1.071 5.463.536 2.679.107-2.679-.107c.284.214.643.571 1.071 1.071a8.54 8.54 0 0 0 1.394.75c1.214.217 1.82.932 1.82 2.147m21.961-3.214h1.394-1.394v1.285-1.285m45.958 35.459c.143.142.32.393.536.75 1.855 2.714 7.392 10.356 16.604 22.924a643.06 643.06 0 0 0 3.963 5.571c.5.356 1.035.75 1.606 1.179 1.643 1.285 3.536 3.106 5.679 5.463.143.071.287.179.429.321.071.144.178.286.32.429.145.142.287.286.429.428 2.428 2.786 4.428 5 5.999 6.642 1.071 1.286 1.929 2.178 2.571 2.678-.643-.5-1.5-1.393-2.571-2.678-1.571-1.643-3.571-3.856-5.999-6.642-.142-.142-.284-.286-.429-.428a1.676 1.676 0 0 1-.32-.429 1.67 1.67 0 0 0-.429-.321c-2.143-2.357-4.036-4.179-5.679-5.463l-.213.857c1.429 2.143 2.82 4.25 4.178 6.32.071.214.143.358.214.429.143.215.251.394.322.536a153.454 153.454 0 0 0 0 0 5.408 5.408 0 0 0-.322-.536c-.071-.071-.143-.214-.214-.429a965.96 965.96 0 0 0-4.178-6.32c-.43-.644-.894-1.321-1.394-2.036a665.445 665.445 0 0 1-3.963-5.571c-9.213-12.568-14.749-20.21-16.604-22.924-.215-.357-.392-.608-.535-.75m-24.21-19.069c0-.215.106-.394.32-.536h.215c0 .357-.179.536-.535.536m-82.597-8.463h2.035-2.035m7.286 12.427h3.856-3.856m-13.82-6.535h2.035-2.035m108.091 110.77c4.428-.929 7.215-1.607 8.357-2.036h1.82c4.143 0 11.604 2.071 22.39 6.213a3.8 3.8 0 0 0 .965.322 823.704 823.704 0 0 1 14.354 5.892c1.213 0 2.465-.429 3.749-1.286 1.214-.929 2.143-1.393 2.787-1.393.569 0 1.606.249 3.104.749 1.646.429 2.679.644 3.107.644.571 0 2.071-.215 4.501-.644 2.427-.5 3.855-.749 4.285-.749.929 0 1.749.178 2.462.536.643.286 1.643.999 3.001 2.143-1.358-1.144-2.358-1.857-3.001-2.143-.713-.358-1.533-.536-2.462-.536-.43 0-1.858.249-4.285.749-2.43.429-3.93.644-4.501.644-.429 0-1.462-.215-3.107-.644-1.498-.5-2.535-.749-3.104-.749-.645 0-1.573.463-2.787 1.393-1.284.856-2.536 1.286-3.749 1.286a817.327 817.327 0 0 0-14.354-5.892 3.853 3.853 0 0 1-.965-.322c-10.786-4.142-18.247-6.213-22.39-6.213h-1.82c-1.142.429-3.929 1.106-8.357 2.036m9.856-113.449c.857.429 2.357.644 4.5.644-2.143 0-3.643-.214-4.5-.644m39.316 25.496h2.679-2.679m-10.499-18.211v.536c.429 0 1.106-.071 2.036-.213.857-.214 1.5-.322 1.929-.322-.429 0-1.071.108-1.929.322-.93.142-1.607.213-2.036.213v-.536m40.389 2.143c.142-.071.427-.357.855-.857-.429.5-.714.785-.855.857-.43.286-1.001.429-1.716.429-.498 0-1.034-.106-1.607-.321-.427-.214-.784-.321-1.071-.321.287 0 .645.106 1.071.321.573.215 1.109.321 1.607.321.715-.001 1.286-.144 1.716-.429m-19.393 47.671h1.93-1.93m8.464 12.427c.5.428 1.607.643 3.32.643-1.713 0-2.82-.215-3.32-.643m8.57 28.817h2.036-2.036m-56.348 7.178c1.143-.428 2.643-.643 4.499-.643-1.857 0-3.357.215-4.499.643m20.996-13.713h4.607-4.607m.536 23.569c2.071 0 4.643-.465 7.715-1.393 2.998-.857 5.39-1.286 7.176-1.286 1.501 0 3.144.356 4.928 1.071 1.785.642 3.214.964 4.285.964.858 0 2.358-.322 4.501-.964 2.213-.715 3.533-1.071 3.963-1.071.642 0 1.142.142 1.5.429.213.213.462.536.749.963-.287-.428-.536-.75-.749-.963-.358-.287-.858-.429-1.5-.429-.43 0-1.75.356-3.963 1.071-2.143.642-3.643.964-4.501.964-1.071 0-2.5-.322-4.285-.964-1.784-.715-3.427-1.071-4.928-1.071-1.786 0-4.178.429-7.176 1.286-3.073.928-5.644 1.393-7.715 1.393-2.069 0-4.356-.394-6.856-1.178 2.499.784 4.786 1.178 6.856 1.178m-32.78 9.856h3.32-3.32m26.995 24.318h3.965-3.965m6.536-12.428c.855.429 2.356.643 4.499.643-2.143 0-3.644-.214-4.499-.643m41.887 11.034c.286.287.784.536 1.5.75.427.144 1.284.357 2.569.644-1.285-.287-2.143-.5-2.569-.644-.716-.214-1.214-.463-1.5-.75m-23.569 21.64h5.25-5.25m11.784 28.816h3.427-3.427m-40.601-33.422c1.571.786 3.427 2.036 5.569 3.75 1.858 1.143 3.716 1.213 5.572.214-1.856.999-3.714.928-5.572-.214-2.142-1.715-3.998-2.965-5.569-3.75h-4.499 4.499m-.643 15.104h4.605-4.605m-9.856 18.963c1.357.714 2.678.714 3.965 0-1.288.714-2.608.714-3.965 0m24.854 17.032h4.714-4.714m-14.677 15.427a.73.73 0 0 0-.536.215 5.456 5.456 0 0 1-1.071.107c0 1.142-.535 3.392-1.606 6.747a72.774 72.774 0 0 0-1.178 4.285c-.287 1.143-.429 2.036-.429 2.679 0 .502.215 1.749.644 3.749.427 2 .643 3.285.643 3.858 0 1.285-.464 3.034-1.394 5.247-.855 2.214-1.284 3.607-1.284 4.179 0 .929.357 2.287 1.071 4.072.642 1.784.964 2.855.964 3.213 0 .43-.464 1.501-1.394 3.214-.857 1.785-1.284 3.107-1.284 3.963 0 .287.033.571.106.858.214.927.822 1.678 1.82 2.249 1.287.787 1.93 2.465 1.93 5.034 0 2-.287 3.571-.858 4.714-.643 1.287-.964 2.32-.964 3.107 0 1.355.644 3.106 1.929 5.249.143.214.284.392.429.536v.214c0 .072.036.144.106.215.93 1.856 1.394 3.856 1.394 5.999 0 1.643-.322 3.069-.964 4.285-.714 1.284-1.071 2.463-1.071 3.534 0 2 .106 3.213.319 3.643.287.857 1.287 1.855 3.001 3-1.714-1.145-2.714-2.143-3.001-3-.213-.43-.319-1.643-.319-3.643 0-1.071.357-2.25 1.071-3.534.642-1.216.964-2.643.964-4.285 0-2.143-.464-4.143-1.394-5.999-.07-.071-.106-.143-.106-.215v-.214a3.513 3.513 0 0 1-.429-.536c-1.285-2.143-1.929-3.894-1.929-5.249 0-.787.321-1.82.964-3.107.571-1.143.858-2.714.858-4.714 0-2.569-.643-4.247-1.93-5.034-.998-.571-1.606-1.322-1.82-2.249a3.452 3.452 0 0 1-.106-.858c0-.855.427-2.178 1.284-3.963.93-1.713 1.394-2.784 1.394-3.214 0-.357-.322-1.429-.964-3.213-.714-1.785-1.071-3.144-1.071-4.072 0-.571.429-1.965 1.284-4.179.93-2.213 1.394-3.962 1.394-5.247 0-.573-.216-1.858-.643-3.858-.429-2-.644-3.247-.644-3.749 0-.643.142-1.536.429-2.679.286-1.213.68-2.641 1.178-4.285 1.071-3.355 1.606-5.605 1.606-6.747.358 0 .716-.036 1.071-.107a.73.73 0 0 1 .536-.215c.502-.287.822-.43.965-.43-.43-1.284-.643-3.892-.643-7.818-2 0-3.82-.107-5.463-.322-3.572-.5-6.501-1.534-8.786-3.107-1.355-.855-2.463-1.892-3.32-3.104.857 1.213 1.965 2.249 3.32 3.104 2.285 1.573 5.214 2.607 8.786 3.107 1.643.215 3.463.322 5.463.322 0 3.927.213 6.534.643 7.818-.143 0-.464.143-.965.43m25.819 26.032h2.678-2.678m20.567-26.462c0-.07.571-.464 1.714-1.178-1.142.714-1.714 1.108-1.714 1.178-.787.287-1.678.322-2.678.109 1.001.213 1.891.178 2.678-.109m-25.71 61.062h3.213-3.213m23.033-8.569h3.214-3.214m-41.459 6.643h2.034-2.034m.75 45.742c0 1.287-.964 3.287-2.892 5.999-2.071 2.787-3.106 4.428-3.106 4.93 0 .355.142.713.429 1.071.213.355.535.643.962.855.787.358 1.038 1.287.752 2.785.286-1.498.035-2.427-.752-2.785-.427-.213-.749-.5-.962-.855-.287-.358-.429-.716-.429-1.071 0-.502 1.035-2.143 3.106-4.93 1.928-2.712 2.892-4.712 2.892-5.999 0-1.213-.678-2.998-2.035-5.356-1.071-1.855-1.928-3.106-2.572-3.749.645.643 1.501 1.894 2.572 3.749 1.357 2.358 2.035 4.143 2.035 5.356m24.852-11.032c.43 0 1.287.427 2.572 1.284-1.285-.858-2.142-1.284-2.572-1.284m22.284 14.998h3.32c0-.503.464-1.143 1.394-1.93-.93.787-1.394 1.427-1.394 1.93h-3.32m-8.464 36.743c.857-.214 2.178-.32 3.965-.32 1.569 0 2.82-.109 3.75-.322-.93.213-2.181.322-3.75.322-1.787 0-3.107.106-3.965.32m-19.712-3.963c1.573.571 2.465.894 2.679.964.929.214 1.786.32 2.571.32 0-.855.429-1.713 1.286-2.571-.857.858-1.286 1.716-1.286 2.571-.785 0-1.643-.106-2.571-.32-.214-.07-1.105-.393-2.679-.964m1.288 17.033c4.714.855 9.105.855 13.175 0-4.07.856-8.462.856-13.175 0M638.022 35.264c-.214.142-.32.321-.32.536.355 0 .535-.179.535-.536h-.215z"/><path fill="#383138" d="M480.332 225.413a45.4 45.4 0 0 0-.536-5.355l-10.819 26.781-14.355 31.176a1707.049 1707.049 0 0 1-20.462 43.493c.786 2.571 1.965 6.249 3.535 11.032.929 2.645 1.394 5.75 1.394 9.321 0-3.571-.465-6.677-1.394-9.321-1.57-4.783-2.75-8.461-3.535-11.032-13.07 26.781-26.996 53.599-41.779 80.451l-19.711 29.782h26.246l10.713-15.748 8.57-25.817 8.892-16.712 9.748-23.89 9.535-12.855 15.319-29.46c.213-1.071.322-2.069.322-2.998 0-.573-.216-1.536-.645-2.894-.498-1.358-.749-2.25-.749-2.679 0-1.998-.071-3.927-.214-5.785-.215-1.927-.322-4.605-.322-8.034 0 3.429.107 6.107.322 8.034.143 1.858.214 3.787.214 5.785 0 .429.251 1.32.749 2.679.429 1.357.645 2.32.645 2.894 0 .929-.109 1.927-.322 2.998l10.605-18.747v-14.355l.749-1.607a48.88 48.88 0 0 0-.213-4.605c-.216-2.713-.322-4.606-.322-5.678-.429-5.928-.643-10.427-.643-13.498 0 3.071.214 7.57.643 13.498 0 1.071.106 2.965.322 5.678a48.88 48.88 0 0 1 .213 4.605l6.75-14.782v-5.892c.997-9.356 1.177-18.177.535-26.463m-15.104 38.566c.071.216.355 1.716.855 4.501.429 2.643.857 4.605 1.287 5.892-.43-1.286-.858-3.249-1.287-5.892-.5-2.786-.784-4.286-.855-4.501m-9.107 29.996h-.645v15.106-15.106h.645m-30.853 62.991c-.429 4.785-.643 10.927-.643 18.425 0-7.498.214-13.64.643-18.425-.286 0-.5.143-.643.429-.143.143-.358.463-.643.965-.5-1-.857-3.143-1.071-6.428-.215-2.143-.321-3.749-.321-4.82 0 1.071.106 2.678.321 4.82.214 3.285.571 5.428 1.071 6.428.285-.502.5-.822.643-.965.143-.287.357-.429.643-.429v-.642.642m-26.889 73.382c.571-2.927.286-6.285-.858-10.07-.999-3.213-2.464-6.392-4.392-9.534 1.928 3.143 3.393 6.321 4.392 9.534 1.144 3.785 1.43 7.143.858 10.07m168.083-122.983c.498.216 1.285.573 2.356 1.071v-4.605h-2.571c-.5.43-1.143 1.107-1.928 2.036.428.498 1.143 1 2.143 1.498m-59.242-37.814c1.143-.643 2.036-1.216 2.679-1.714v-2.571a100.58 100.58 0 0 0-8.57 1.714v1.5c.571 0 1.251.429 2.036 1.284-.785-.855-1.465-1.284-2.036-1.284v1.927c.214 0 .5.109.857.322.428.285.93.429 1.499.429.714-.001 1.893-.536 3.535-1.607m14.891-134.017v-23.568l-4.607 16.712-3.963 9.748h-5.143l4.178 6.963-1.284.856c.143 1.071.535 2.286 1.178 3.643v10.498h-.643c.143-.786.034-1.357-.322-1.713l-1.071-.965 1.071.965c.356.356.465.928.322 1.713h.643V149.89c-.643-1.357-1.035-2.572-1.178-3.643l-2.358 1.393-4.82 15.105-10.284 15.426-4.498 14.462-9.535 14.998v12.427c.287 1.786.463 3.571.536 5.355.642 8.286.462 17.106-.536 26.462l8.248-7.605 6.214-16.714 11.784-25.174 6.534-19.391v-10.713l5.679-12.533v-12.106l3.856-5.249v-6.856m-4.392 2.571c0 .643.427 2.393 1.284 5.249-.858-2.856-1.284-4.606-1.284-5.249m-15.749 37.923c0 1.571.464 4.893 1.394 9.964h.642-.642c-.93-5.071-1.394-8.393-1.394-9.964m-16.39 27.104h.643c.429 2.5.643 6.82.643 12.962 0-6.142-.214-10.462-.643-12.962h-.643m10.284 5.142c.429 4 .249 7.249-.536 9.748.785-2.5.965-5.749.536-9.748-.571-4.5-.894-7.357-.965-8.57-.071-.429-.106-.679-.106-.75 0 .071.035.321.106.75.072 1.213.394 4.07.965 8.57m-159.298-32.246c-1.143-.857-2.571-1.285-4.285-1.285-1.286 0-2.393.428-3.322 1.285h.429c-.277.011-.6.047-.964.108-.571.142-1.178.321-1.82.536-1.357.428-2.072.642-2.143.642.285.429 2.035 1.215 5.249 2.357 3.357 1.071 5.5 1.606 6.427 1.606 1.572 0 2.5-.035 2.786-.106.499-.287 1.107-1.321 1.82-3.107-1.428-.286-2.82-.965-4.177-2.036m194.008-94.593h-.322l-3.644 8.463v8.249l-4.498 13.819v23.568l5.569-18.318 1.714-9.749 1.607-9.642-.426-16.39m-4.394 27.746h.858c.355 1.786.535 3.106.535 3.964 0-.858-.18-2.178-.535-3.964h-.858z"/><path fill="#201C20" d="M662.877 84.434H537.751v5.464l128.34-.214-3.214-5.25m-125.126 5.464v4.927l131.873.75-3.533-5.892-128.34.215m0 4.928v4.929l134.98.963-3.107-5.142-131.873-.75m0 4.928v3.32l138.623 3.535-3.643-5.892-134.98-.963m125.126-15.32l-3.323-5.57-121.803.536v5.034h125.126m-5.893-9.641l-.535-1.071-118.698.214V79.4l121.803-.536-2.57-4.071m-3.857-6.535l-2.034-3.32-113.342.321v4.392l116.02-.214-.644-1.179m1.5 2.572l-.856-1.394-116.02.214v4.285l118.698-.214-1.822-2.891m-.856-1.393l.856 1.394-1.5-2.572.644 1.178m-2.678-4.499l-2.465-3.964H537.751v4.285l113.342-.321m-4.501-7.392h-1.606l-107.234-.643v4.071h108.841v-3.428m-1.608 0v-2.678l-107.234-1.393v3.428l107.234.643z"/><path fill="#E0E938" d="M640.807 110.895a3.338 3.338 0 0 1-.427-.321l-38.565-1.071v1.607c0 .929.394 1.678 1.178 2.249.429.287.998.679 1.714 1.179a15.5 15.5 0 0 0-.429.75c-.214.213-.32.5-.32.857 0 .142.071.463.213.963.143.358.251.786.322 1.286.355 1.144.536 2.25.536 3.322 0 1.285.32 2.249.962 2.892.716.714 1.071 1.536 1.071 2.465 0 .356-.178.749-.535 1.178-.355.357-.536.857-.536 1.5.716 1.785 1.071 2.749 1.071 2.892 0 1.214-.498 2.357-1.498 3.428-1.071 1.144-1.606 2.036-1.606 2.678.784.356 1.355.856 1.714 1.5.5.786.822 1.286.964 1.499h-1.393c-.355.144-.642.571-.857 1.286.786.285 1.465 1.071 2.036 2.357.429 1.071.642 1.963.642 2.678 0 .642-.784 1.928-2.355 3.856-1.571 1.929-2.356 3.322-2.356 4.178 1.285.357 2.177.75 2.679 1.178.713.429 1.143 1.144 1.284 2.143-.571 0-1.106.322-1.606.964.857 1.143 1.284 2 1.284 2.572 0 .428-.213 1.106-.642 2.035-.43.857-.643 1.428-.643 1.714 0 .143.18.678.535 1.607.285.928.43 1.785.43 2.571 1.07 0 2.068.679 2.998 2.036.502.714 1.143 1.893 1.929 3.535-.284 1.286-.786 2.178-1.5 2.678-.571.286-.855.821-.855 1.607 0 .571.32 1.142.962 1.713.502.644.751 1.286.751 1.929 0 .857-.322 1.713-.964 2.57-.643.857-.965 1.571-.965 2.143 0 .286.5 1.071 1.5 2.357.93 1.286 1.394 2.5 1.394 3.643 0 .428-.216 1.106-.645 2.035-.427.857-.643 1.464-.643 1.821 0 2.428-.142 5.892-.429 10.392 0 .5.358 1.286 1.071 2.357.645 1.071.965 1.82.965 2.249 0 .715-.178 1.571-.536 2.572-.357.999-.535 2.143-.535 3.427 1.145 3.714 1.714 5.714 1.714 5.999 0 .715-.249 1.251-.749 1.607-.643.357-.965.787-.965 1.287s.465 1.462 1.394 2.892c0 .713-.145 1.5-.429 2.357a7.184 7.184 0 0 0-.536 2.785c0 .998.322 1.965.965 2.892.643.857.965 1.643.965 2.358 0 .071-.216.678-.645 1.82-.427 1.213-.643 2.249-.643 3.106 0 .5.535 1.928 1.606 4.285 0 .856-.357 1.856-1.071 2.999-.784 1.142-1.178 1.929-1.178 2.357 0 .714.18 2.069.536 4.069.284 1.93.429 3.644.429 5.144l.855.749c-.643.502-1.392 1.678-2.249 3.536-.998 2.071-1.5 3.749-1.5 5.034 0 .286.322.857.964 1.716.643.929.965 1.568.965 1.927 0 .286-.284.894-.857 1.822-.498.929-.749 1.536-.749 1.82 0 .716.322 1.322.964 1.82.643.429.965.751.965.965-.216.357-.429.68-.645.964-.427.643-.643 1.107-.643 1.394 0 .214.536.749 1.607 1.607 1 .643 1.855 1.178 2.571 1.606-1.071 1.143-2.785 2.536-5.143 4.177-.714.429-1.071 1.822-1.071 4.179 0 .784.286 1.964.857 3.535.5 1.501.749 2.534.749 3.107 0 .643-.249 1.392-.749 2.249-.571.856-.857 1.43-.857 1.714 0 .429.108 1.143.322 2.143.142 1-.071 1.787-.643 2.356-.429.502-.608 1.213-.536 2.142 0 1.501-.035 2.465-.106 2.895-.071.5-.429 1.071-1.071 1.713-.573.643-.857 1.428-.857 2.356 0 .286.18.857.535 1.716.285.929.43 1.606.43 2.033 0 .287-.394.752-1.179 1.394-.715.643-1.071 1.251-1.071 1.82 0 .645.214 1.5.643 2.571s.643 1.823.643 2.25c0 .786-.429 1.606-1.285 2.465-.929.857-1.394 1.678-1.394 2.465 0 .284.181.678.536 1.178.284.357.429.855.429 1.5 0 .714-.535 1.498-1.606 2.355-1.071.858-1.607 1.643-1.607 2.356 0 .645.429 2.071 1.285 4.285.857 2.214 1.286 3.429 1.286 3.643 0 .643-.573 1.5-1.716 2.571-1.213 1.071-1.82 2.143-1.82 3.214 0 .5.143 1.143.43 1.93.357.929.535 1.64.535 2.143 0 1.64-.5 2.784-1.5 3.427-1 .571-1.5 1.394-1.5 2.465 0 .569.249 1.855.751 3.856 0 .213-.18.571-.536 1.071-.357.5-.535.998-.535 1.5l1.714 1.284c-.358 1.143-1.358 1.82-3.001 2.036.145.785.785 1.571 1.93 2.356 1.142.784 1.713 1.5 1.713 2.143 0 .429-.678 1.106-2.035 2.035-1.285.858-1.928 1.679-1.928 2.465 0 .214.179.643.536 1.285.284.642.427 1.071.427 1.284 0 .287-.32.858-.963 1.716-.644.929-.964 1.569-.964 1.927 0 .571.391 1.43 1.178 2.572.716 1.142 1.071 1.962 1.071 2.465 0 .568-.429 1.178-1.285 1.82-.857.57-1.286 1.284-1.286 2.142 0 .214.073.43.215.643.143.143.498.465 1.071.965v4.607c-.857 0-1.645.106-2.357.32 0 1 .784 2.106 2.357 3.32-.142.929-.751 1.68-1.822 2.251-1.284.714-1.965 1.178-2.035 1.392-.643.716-.892 1.606-.749 2.678.07.643.18 1.323.322 2.036l2.355 7.713v.644h77.881c3.858-.286 6.285-.393 7.285-.321l-.106-.107c-.785-.857-1.178-1.465-1.178-1.822 0-2.214.784-4.249 2.355-6.105 1.5-1.855 2.249-3.749 2.249-5.679 0-1.213-.391-1.998-1.178-2.355-.787-.429-1.178-1.32-1.178-2.679 0-.286.106-.678.32-1.178.286-.429.429-.787.429-1.071 0-1.143-.392-2.036-1.178-2.678-1.071-.716-1.892-1.358-2.465-1.93v-3.214c2.429.145 3.643-.391 3.643-1.606-.5-2.214-.749-3.605-.749-4.179 0-.569.391-1.071 1.178-1.498.787-.357 1.178-.857 1.178-1.5 0-1.216-.678-2.679-2.035-4.392-1.285-1.716-1.928-2.894-1.928-3.536 0-.355.071-.607.214-.749h.106c1-.287 2.214-.573 3.643-.858.858-.284 1.287-.964 1.287-2.035 0-.143-.216-.607-.645-1.392-.427-.716-1.071-1.787-1.927-3.214-1.785-2.93-2.679-5.036-2.679-6.321 0-.215.32-.857.965-1.929.643-1.214.963-1.927.963-2.143 0-.429-.214-.927-.643-1.5a4.485 4.485 0 0 1-.643-2.356c0-.857.322-1.465.965-1.82.643-.357.964-.857.964-1.5a11.432 11.432 0 0 0-.644-1.5c-.427-1.143-.749-2.428-.963-3.856 0-1.071.32-1.751.963-2.036.644-.284.964-.715.964-1.284 0-2.571-1.071-4.072-3.214-4.501v-2.355c.5-1.643.752-3.143.752-4.501-.071-1.355-.109-2.355-.109-2.998 2.645-2.785 3.965-4.501 3.965-5.144a180.419 180.419 0 0 1-3.536-4.069c-2.429-3-3.643-4.93-3.643-5.785 0-1.145.573-2 1.716-2.571 1.214-.643 1.82-1.322 1.82-2.036 0-.286-.643-.855-1.929-1.714-1.428-.929-2.214-1.786-2.356-2.571.285-.071.787-.32 1.5-.749.571-.429.965-.642 1.179-.642v-1.607c-1.643-.787-2.536-1.214-2.679-1.287 0-.357.143-1.32.429-2.892.358-1.571.536-2.643.536-3.214 0-1.429-.643-2.429-1.93-3-1.855-.714-2.965-1.285-3.32-1.714.929-.642 1.749-2.143 2.465-4.498.427-1.573 1.927-2.143 4.499-1.716 0-1.143.251-2.392.749-3.75.573-1.142.857-1.749.857-1.82 0-2-.465-3.178-1.394-3.535-1.284-.071-2.32-.465-3.104-1.179v-1.927h1.927c.357.498.894.749 1.606.749.571 0 1.216-.143 1.93-.429v-3.214c-.785-.785-1.358-1.392-1.714-1.82-.573-.785-.857-1.714-.857-2.785 0-.573.5-1.18 1.5-1.822.927-.643 1.392-1.143 1.392-1.5 0-.643-.785-1.607-2.356-2.892-1.643-1.356-2.465-2.249-2.465-2.679 0-.715.394-1.178 1.181-1.394.213-.07.464-.142.749-.213-1.285-2.285-1.93-3.607-1.93-3.963-.284-2.571-.749-4.071-1.392-4.501-1.145-.713-2.392-2.069-3.749-4.069l-.106-.108c-.071-.071-.109-.143-.109-.214-1.213-1.714-1.82-2.678-1.82-2.892 0-.216.181-.678.536-1.394.429-.716.642-1.355.642-1.929 0-.498-.213-1.285-.642-2.356-.355-.857-.536-1.643-.536-2.355v-.429c0-1.287-.213-2.392-.643-3.321-.5-.929-.751-1.606-.751-2.035l.965-3.001c0-.998-.249-1.82-.749-2.463-.929-1.142-1.571-2.035-1.929-2.679 1 .072 1.642-.107 1.929-.536.071-.143.106-.5.106-1.071 0-.071-1-1.643-3-4.713 0-.214.251-.679.751-1.394.429-.643.643-1.036.643-1.178 0-1.356-.429-2.643-1.285-3.856-1-1.215-1.678-2.178-2.035-2.893.642-.286 1.071-.679 1.284-1.179v-1.178c0-.5-.213-1.286-.643-2.357-.213-.356-.429-.75-.642-1.178l-.43-2.357c-.355-.142-.535-.5-.535-1.071 0-.357.251-.964.749-1.821.573-.857.857-1.535.857-2.035v-.644c-1.284-.143-2.284-.25-3-.321-1.214-.214-1.963-.857-2.249-1.928.5-.286 1.249-.464 2.249-.536 1.071 0 1.858-.143 2.358-.429-.643 0-1.43-.428-2.358-1.286.143-.213.502-.607 1.071-1.178.429-.642.645-1.213.645-1.713 0-.358-.429-.894-1.287-1.607-.927-.715-1.392-1.394-1.392-2.036 0-.214.178-.393.536-.536.284-.142.427-.5.427-1.071 0-1-.355-2.143-1.071-3.429-.785-1.213-1.178-1.999-1.178-2.357 0-.5.357-1.071 1.071-1.713.642-.643.964-1.107.964-1.393 0-.644-.322-1.286-.964-1.928-.714-.571-1.071-1.214-1.071-1.929 0-.285.106-.5.322-.642.286-.142.429-.357.429-.643a2.857 2.857 0 0 1-.645-.964c-.498-.571-.749-1.286-.749-2.143 0-.571.284-.929.857-1.071.569-.214.856-.678.856-1.393 0-.571-.43-1.464-1.285-2.678-.784-1.071-1.145-1.857-1.071-2.357.429-2.428.106-4.178-.965-5.25-.429-.5-.642-1.213-.642-2.143v-2.464c-.785-.214-1.465-.5-2.036-.856-1-.429-1.643-1.107-1.929-2.036.07-.213.251-.392.535-.536.287-.213.536-.5.751-.856-1.357-.143-2.392-1-3.106-2.571-.571-1.786-.93-2.893-1.071-3.321.857 0 1.5-.107 1.929-.321v-.964c-.071-.071-.645-.393-1.716-.964-.784-.429-1.178-.929-1.178-1.5v-.643c.073-.143.394-.429.965-.856-1.501-1-2.394-2.714-2.679-5.143-.284-2.428-1.143-4.106-2.571-5.034.429-1 .535-2.178.322-3.536-.073-.356-.145-.713-.216-1.071-.355-.928-.962-1.678-1.82-2.249 0-.071.214-.465.643-1.178.429-.643.643-1.179.643-1.607-.002-.358-.18-.75-.538-1.179M626.561 127.5c.642 1.215 1.713 2 3.214 2.357.855.214 2.462.536 4.82.965-2.358-.429-3.965-.75-4.82-.965-1.502-.357-2.573-1.143-3.214-2.357m1.5 32.352c.713 0 1.749-.071 3.104-.214-1.355.143-2.392.214-3.104.214-1.143.071-2.071.464-2.787 1.178.715-.714 1.644-1.107 2.787-1.178m5.676 16.176h7.179-7.179m-5.57 106.162c1.214.929 2.43 1.394 3.643 1.394-.215.5-.464.892-.751 1.178v.107a1.68 1.68 0 0 1-.643.429c-.213.145-.642.215-1.284.215-.929 0-1.787-.464-2.571-1.394-.93-1.07-1.571-1.713-1.93-1.929h-1.284v1.394-1.394h1.284c.358.216 1 .858 1.93 1.929.784.93 1.643 1.394 2.571 1.394.643 0 1.071-.07 1.284-.215.214-.071.43-.214.643-.429v-.107c.287-.286.536-.678.751-1.178-1.213 0-2.429-.465-3.643-1.394-1.216-.855-2.606-1.284-4.179-1.284 1.573 0 2.963.429 4.179 1.284m11.568 3.323c0 .427.394.643 1.181.643-.358.429-.645.785-.858 1.071-.355.358-.857.463-1.5.32.643.143 1.145.038 1.5-.32.214-.286.5-.643.858-1.071-.787-.001-1.181-.217-1.181-.643h-7.283 7.283m-21.745-38.03h7.283-7.283m25.069 131.766c.784-.857 1.391-1.286 1.82-1.286.429 0 1.891.642 4.392 1.929 2.5 1.285 4.071 1.927 4.714 1.927.787 0 2.249.252 4.392.752 2.143.429 3.75.642 4.821.642-1.071 0-2.679-.213-4.821-.642-2.143-.5-3.604-.752-4.392-.752-.643 0-2.214-.642-4.714-1.927-2.501-1.287-3.963-1.929-4.392-1.929-.43 0-1.036.429-1.82 1.286-.787.785-1.93 1.249-3.43 1.392 1.5-.143 2.642-.607 3.43-1.392M594.851 23.801c-.573-.286-.857-.679-.857-1.178 0-1.214-.606-1.929-1.82-2.143a8.54 8.54 0 0 1-1.394-.75c-.429-.5-.787-.857-1.071-1.071l-5.463-.536-13.498 1.071c.427.286.963.643 1.607 1.071.498.214.892.571 1.178 1.071.357.713.714 1.214 1.071 1.499.429.358.678.821.749 1.394.073.357.145.857.216 1.5l2.143 1.821c0 .071-.071.321-.216.75-.286.428-.429.821-.429 1.178 0 .5.251.965.751 1.393.429.429.643 1.215.643 2.357-.143 1 .106 1.678.749 2.036.786.356 1.251.821 1.394 1.392.142.715.464 1.286.964 1.714.571.5.928.929 1.071 1.286.214.286.287.607.214.965-.143.428-.106.75.106.963.143.287.502.571 1.071.858.502.142.751.356.751.642 0 .214-.073.429-.215.643-.143.143-.214.287-.214.429a.957.957 0 0 0-.106.429l.535 1.178c.287.857.43 1.607.43 2.25.713.072 1.213.357 1.498.857.142.357.322 1.143.535 2.356l25.391.429v-1.071c-.571-.071-1.429-1.213-2.571-3.428-.285-.571-.892-1.178-1.82-1.821-.716-.5-1.109-1.036-1.181-1.607-.071-.999-.82-2.285-2.249-3.856s-2.143-2.571-2.143-2.999c0-.144.073-.25.216-.321.071-.072.106-.179.106-.322-1.643-2.714-2.714-4.321-3.214-4.821-.073-.071-.394-.321-.965-.749-.355-.214-.606-.572-.749-1.071-.357-1.144-.822-2-1.394-2.571-.284-.144-.464-.5-.535-1.071-.071-.786-.143-1.25-.214-1.393-.07-.147-.429-.397-1.071-.753m-4.394 9.962v-.536.536h-3.963v-.536.536h3.963z"/><path fill="#141414" d="M565.604 415.993h3.214l-.858-2.036c-.355-.855-1.142-1.285-2.355-1.285v3.321m-49.172-13.82h2.679-2.679v.645c1.287 0 1.93.427 1.93 1.284h2.678v-3.963h-2.678c-.359.569-1.002 1.25-1.93 2.034m16.175-27.318c-.714 0-1.071.143-1.071.429 0 .929.429 1.785 1.287 2.571h1.284v-2.571c-.286-.286-.784-.429-1.5-.429m-53.241 16.499c-.429-.214-.965-.32-1.607-.32-.715 0-1.142.178-1.284.536-.287.713-.751 1.427-1.394 2.143.787.355 1.607.962 2.465 1.82.643.786.963 1.284.963 1.5l.321.106c.214.143.322.322.322.536h1.179v-5.999c-.073 0-.394-.107-.965-.322m.429-53.993c-.073.215-.073.893 0 2.035 0 .785-.216.536-.643-.749 0 .358-.215.536-.644.536.573 1.571 1.18 2.678 1.822 3.32h2.678c0-.143.143-.394.429-.749.143-.357.214-.857.214-1.5 0-1.145-.429-2.107-1.285-2.894h-2.571m-311.633 69.955c1.215-.857 1.928-1.713 2.143-2.571v-1.284h-5.142c-.857.429-2.143.642-3.857.642v.43a.727.727 0 0 1-.536.213c1 1.787 1.607 2.679 1.821 2.679.5 0 .929.215 1.286.642.356.43.786.645 1.286.645.857-.002 1.857-.466 2.999-1.396m103.806-57.526c-.429 0-.643-.464-.643-1.394h-3.321c-.429.43-1.107 1.001-2.036 1.714-.713.429-1.286.894-1.714 1.394a1.2 1.2 0 0 0 .215.32c.356.786.856 1.18 1.499 1.18.143 0 .714-.322 1.715-.964.999-.643 2.428-.965 4.285-.965v-1.285m-19.176-12.105c-.429-.214-.928-.322-1.5-.322-.999 0-1.928.678-2.785 2.035.786.287 1.392.465 1.821.536 1.071.073 1.928.286 2.57.643.214-.214.464-.679.75-1.392.214-.643.429-1.036.644-1.178-.429 0-.929-.11-1.5-.322m-6.427-22.069c-.571 0-1.393.106-2.464.32-1 .287-1.678.429-2.036.429v1.93c1.5 0 2.821.429 3.964 1.284 1.143.858 1.893 1.287 2.249 1.287.715 0 1.321-.429 1.821-1.287.5-.713.857-1.606 1.071-2.678-1.784-.856-3.32-1.285-4.605-1.285m-29.354 53.992c-.286-.142-1.178-.215-2.678-.215-.571 0-1.285.145-2.143.429-.786.143-1.392.214-1.82.214.643.929 1.678 1.606 3.106 2.035 1.857.571 2.999 1.036 3.428 1.394.071-.145.286-.464.642-.964.215-.356.429-.536.644-.536-.071-1.284-.464-2.071-1.179-2.357m-34.281-.214c-1.856 0-3.356.68-4.498 2.035 3.356 1.356 7.07 2.036 11.141 2.036.429-.857.75-1.429.964-1.714a4.862 4.862 0 0 0 .321-1.715c-4.214-.428-6.856-.642-7.928-.642m48.637-26.247c-.286 1.145-.642 1.894-1.071 2.249-.429.429-.75 1-.964 1.716 0 .284.429.962 1.286 2.033h2.678c0-2 .429-3.749 1.286-5.247-.429 0-.964-.143-1.607-.429-.643-.215-1.179-.322-1.608-.322m-37.388 3.965c-.928.498-1.393 1.033-1.393 1.606 0 .714.036 1.179.108 1.392.071.073.286.394.643.965 2.857.071 5-.82 6.427-2.679-.356-1.071-.606-1.713-.75-1.929h-2.463c-.857.001-1.714.217-2.572.645z"/><path fill="#6B717A" d="M495.865 41.048c1.214-8.07 1.32-15.784.32-23.139H152.522l-1.286 412.226 24.639 1.606h56.134v-.535l93.844-118.484 5.999-7.712 76.489-96.736h25.925l35.672 5.249.645-3.642-21.534-3.857-19.712-4.606h-13.712l.642-5.892 9.856-17.033 11.569-16.498 2.143-3.214 11.142-20.033 10.819-11.999 7.179-14.783 8.57-8.57h12.746l-16.389-4.606c-.643-2.285 2.643-7.963 9.854-17.034l8.142-21.639 3.967-19.069M305.714 64.616c.571.358.893.571.963.644-.07-.073-.391-.286-.963-.644m-54.742 3.322c2.572 0 4.535-.25 5.892-.75-1.357.5-3.321.75-5.892.75m-15.748-3.322c.214 0 .572.108 1.071.322.5.213.821.321.964.321-.144 0-.464-.108-.964-.321-.499-.214-.857-.322-1.071-.322M182.089 69.865h2.678-2.678m-6.534-21.639c.356-.214.892-.393 1.607-.536h1.071-1.071c-.715.143-1.25.321-1.607.536m23.032 61.598c.786-.643 1.857-1.25 3.214-1.822-1.357.571-2.428 1.179-3.214 1.822m-24.854 17.997c.357-.357.964-.678 1.822-.963-.858.285-1.465.606-1.822.963-.071.072-.321.393-.75.964.43-.571.68-.892.75-.964m-3.642 26.996c.286.214.821.536 1.607.965-.786-.429-1.322-.751-1.607-.965-.428-.286-.75-.428-.963-.428.213 0 .535.142.963.428m18.747 14.677h2.572-2.572m10.071-24.104l.321-.107c0 .428-.214.643-.642.643-.001-.286.106-.465.321-.536m27.853 10.392c.214.286.75.5 1.607.642.928.286 1.463.5 1.607.644-.144-.144-.679-.358-1.607-.644-.857-.142-1.393-.357-1.607-.642m-39.959-66.313h3.856-3.856m96.307-3.32h2.678-2.678m7.82 49.278h2.678-2.678m22.283-10.498h4.606-4.606m-72.097-13.178c.714 0 1.606-.071 2.678-.213 1.071-.287 1.929-.429 2.572-.429-.643 0-1.5.142-2.572.429-1.071.143-1.963.213-2.678.213m1.715 75.098c.643.214 1.178.321 1.607.321-.429-.001-.965-.107-1.607-.321-.643-.286-1.214-.429-1.714-.429.499-.001 1.071.143 1.714.429m-.429-18.534h5.25-5.25m21.746-19.175l3.857 2.036-3.857-2.036m-31.602 5.891h5.356-5.356m49.278 7.928c.358 0 .894-.144 1.607-.429.644-.214 1.214-.321 1.715-.321-.5 0-1.071.107-1.715.321-.713.286-1.249.429-1.607.429M473.797 60.76c.498-.429 1.392-.643 2.679-.643.855 0 1.427.036 1.714.107.429.142.964.5 1.606 1.071-.643-.571-1.178-.929-1.606-1.071-.287-.071-.858-.107-1.714-.107-1.288 0-2.181.214-2.679.643M347.922 45.655c.5-.5 1.607-.75 3.322-.75-1.715 0-2.822.25-3.322.75m2.678 28.067h4.606-4.606m25.604-37.923c.428-.358 1.536-.536 3.32-.536-1.784.001-2.892.178-3.32.536m11.141 41.887c2.357 1.786 4.214 2.678 5.571 2.678.071 0 .643-.463 1.714-1.393.857-.714 1.249-.893 1.178-.536h5.25v1.178-1.178h-5.25c.071-.357-.321-.179-1.178.536-1.071.929-1.644 1.393-1.714 1.393-1.357 0-3.214-.893-5.571-2.678m1.5-16.07c1.643.215 2.857.786 3.643 1.715-.786-.929-2.001-1.5-3.643-1.715-1-.214-2.607-.321-4.821-.321 2.214 0 3.821.107 4.821.321m-26.782 33.745c1.357-.857 2.143-1.286 2.357-1.286.713 0 1.143.108 1.286.322.428.357.857 1.357 1.285 3-.428-1.643-.856-2.643-1.285-3-.143-.214-.572-.322-1.286-.322-.214.001-1 .429-2.357 1.286-1.428.857-2.178 1.321-2.25 1.393.072-.071.822-.536 2.25-1.393m16.069 34.817c.429 0 .893-.107 1.393-.321.5-.286 1-.429 1.5-.429 1.071 0 2.072.464 3 1.394-.928-.929-1.928-1.394-3-1.394-.5 0-1 .143-1.5.429-.501.214-.964.321-1.393.321m-48.85-22.497c.786.214 1.57.714 2.356 1.5-.785-.785-1.57-1.285-2.356-1.5-.929-.143-1.679-.321-2.25-.536.572.215 1.322.394 2.25.536m3 67.062c1.714 0 3.143.428 4.285 1.285 1.357 1.071 2.75 1.75 4.177 2.036-.713 1.786-1.321 2.82-1.82 3.107-.286.071-1.214.106-2.786.106-.928 0-3.07-.535-6.427-1.606-3.214-1.143-4.963-1.928-5.249-2.357.071 0 .786-.214 2.143-.642a24.463 24.463 0 0 1 1.82-.536l.535-.108c.929-.857 2.036-1.285 3.322-1.285m25.281 14.998c1.142-.215 1.893-.429 2.25-.644-.357.215-1.107.429-2.25.644-.928.213-1.499.463-1.714.749.215-.285.786-.535 1.714-.749m-4.392-18.962c.5-.429 2.072-.644 4.713-.644-2.641.001-4.212.216-4.713.644m14.463 14.463c1.143-1.286 2.249-1.928 3.32-1.928-1.071-.001-2.178.642-3.32 1.928m13.926-36.745h3.106-3.106m-2.036-5.892h3.214-3.214m-1.392 20.997c.928.429 2.25.643 3.964.643-1.715-.001-3.036-.214-3.964-.643m56.992-43.172h2.57v1.178-1.178h-2.57m-22.926 3.214h7.284-7.284m-6.427 28.067c1.215 0 2.286.249 3.214.749-.928-.5-2-.749-3.214-.749m-2.785 24.317c1.357 0 2.285.214 2.785.644-.5-.43-1.428-.644-2.785-.644m-4.821 15.856c.428 0 .857.392 1.286 1.178.357.643.678.857.963.643v1.286c-.928 0-2.213-.428-3.856-1.286h-3.214v1.286-1.286h1.286c1.499-1.215 2.678-1.821 3.535-1.821m-.965 11.033c0 .357.144.678.429.963.214.287.5.429.857.429v.642h-2.678c-.786-.856-1.678-1.249-2.678-1.178-.357 0-1 .179-1.928.536.928-.357 1.571-.536 1.928-.536 1-.071 1.893.321 2.678 1.178h2.678v-.642c-.357 0-.643-.143-.857-.429-.285-.285-.429-.606-.429-.963h-7.284 7.284m-23.353 17.355c.571.286 1.357.821 2.357 1.607-1-.785-1.786-1.321-2.357-1.607m-28.174-6.321c.571 0 1.571.929 2.999 2.785-1.428-1.856-2.428-2.785-2.999-2.785-.644 0-1.821.571-3.535 1.714-1.786 1.144-3.107 1.715-3.964 1.715-.5 0-1.143-.215-1.928-.644-.786-.428-1.429-.643-1.929-.643-.428 0-1.106.429-2.035 1.286-.714.856-1.179 1.463-1.393 1.821.213-.358.678-.965 1.393-1.821.928-.857 1.607-1.286 2.035-1.286.5 0 1.144.215 1.929.643.786.429 1.428.644 1.928.644.857 0 2.178-.571 3.964-1.715 1.714-1.143 2.891-1.714 3.535-1.714m-21.962-10.391c.5 0 .75-.214.75-.642.356 0 .786.142 1.285.428-.499-.286-.928-.428-1.285-.428.001.427-.249.642-.75.642m-2.892 18.319c.715 0 1.464-.394 2.25-1.179.786-.643 1.893-.893 3.321-.75-1.429-.143-2.536.107-3.321.75-.786.786-1.535 1.179-2.25 1.179-.143 0-.679-.322-1.607-.965-.928-.642-1.821-.964-2.678-.964-1.214 0-2.535.643-3.964 1.929.429.928.644 2.463.644 4.605 0-2.142-.214-3.677-.644-4.605 1.429-1.286 2.75-1.929 3.964-1.929.857 0 1.75.322 2.678.964.928.643 1.464.965 1.607.965m11.463 24.317c1.571-.429 2.856-.643 3.856-.643.929 0 1.822.394 2.678 1.178-.856-.784-1.749-1.178-2.678-1.178-1 .001-2.285.215-3.856.643-1.857.714-3.178 1.145-3.964 1.287.786-.142 2.107-.573 3.964-1.287m-12.534 1.929v1.928-1.928c-.071 0-.321-.106-.75-.322-.428-.213-.928-.319-1.499-.319-.786 0-2.75-.322-5.892-.965-3.143-.643-4.75-.965-4.821-.965-1 0-1.571.036-1.714.106-.215.216-.75.822-1.607 1.823.856-1.001 1.392-1.607 1.607-1.823.143-.07.714-.106 1.714-.106.071 0 1.678.322 4.821.965 3.142.643 5.106.965 5.892.965.571 0 1.071.106 1.499.319.429.216.679.322.75.322m0 15.747c1-.855 2-1.284 3-1.284.929 0 2.714.106 5.356.319 3.071.287 5.321.607 6.749.965v3.214c-1.57.073-2.749.929-3.535 2.571-.714 1.427-.857 2.785-.428 4.072h-1.286c-2.214-1.001-3.82-1.679-4.821-2.036-1.571-.357-3.428-.536-5.571-.536v-4.714l-.75-.322c0-.784.429-1.535 1.286-2.249m-43.172-46.492c.786-.857 1.643-1.286 2.57-1.286 1.715 0 3.5.429 5.356 1.286v-1.286 1.286c-1.857-.857-3.642-1.286-5.356-1.286-.928 0-1.785.429-2.57 1.286m7.926-18.426c.286-.357.858-.643 1.715-.857.786-.286 1.499-.429 2.143-.429-.644 0-1.357.143-2.143.429-.857.214-1.429.5-1.715.857m4.821 26.888c1.144 0 2.571.681 4.285 2.036 1.714 1.284 3.107 1.929 4.178 1.929.786 0 2.036-.322 3.75-.964 1.713-.714 2.893-1.071 3.535-1.071.429 0 1.179.249 2.25.749 1.071.429 1.964.642 2.678.642-.714 0-1.607-.213-2.678-.642-1.071-.5-1.821-.749-2.25-.749-.643 0-1.822.357-3.535 1.071-1.714.642-2.964.964-3.75.964-1.071 0-2.464-.645-4.178-1.929-1.713-1.356-3.141-2.036-4.285-2.036-.999 0-1.964.643-2.892 1.93.499.142 1.035.462 1.607.964.928.785 1.463 1.785 1.607 2.999-.144-1.214-.679-2.214-1.607-2.999-.572-.502-1.108-.822-1.607-.964.928-1.288 1.893-1.93 2.892-1.93m-38.993-24.853c1.357-.429 3.392-1.286 6.106-2.571-2.715 1.286-4.749 2.143-6.106 2.571m5.142 41.993c.856-.927 1.642-1.392 2.357-1.392.071 0 .392.143.963.427.929.143 2.465.216 4.607.216-2.143 0-3.679-.073-4.607-.216-.571-.284-.893-.427-.963-.427-.715.001-1.501.466-2.357 1.392-.715.784-1.107 1.394-1.178 1.822.071-.428.463-1.037 1.178-1.822m-16.284-32.887c.857.5 2.178.749 3.964.749-1.786 0-3.107-.249-3.964-.749m27.532-4.499c.429.428 1.5.642 3.214.642-1.714 0-2.786-.215-3.214-.642m-9.856-6.214c.714-.287 2.071-.429 4.071-.429-2 .001-3.357.143-4.071.429m-20.246 82.808h10.39-10.39m7.82 7.286v1.285-1.285c-1.357 0-2.928-.322-4.714-.964 1.785.641 3.357.964 4.714.964m34.172-26.782c-.071-.5-.106-1-.106-1.5 0-1.928.071-3.036.214-3.321.286-.5 1.107-.929 2.464-1.284 0 .498.214.749.642.749-.428 0-.642-.251-.642-.749-1.357.355-2.178.784-2.464 1.284-.144.285-.214 1.394-.214 3.321 0 .5.035 1 .106 1.5l.536-2.143h7.286c.713.716 2.106 1.284 4.177 1.714 1.071.215 2.714.535 4.929.964 0 1.356-.215 2.25-.644 2.679H283.11c-2.428-.214-3.856-.643-4.285-1.285-.142-.215-.215-.857-.215-1.929m16.713 29.783c.5-.502 1-1.109 1.5-1.822.214-.358.786-.536 1.714-.536.928 0 2 .429 3.214 1.287 1.286.855 2.25 1.284 2.893 1.284.786 0 2.32-.786 4.606-2.355 2.143-1.5 4.356-2.252 6.642-2.252-2.286 0-4.5.752-6.642 2.252-2.286 1.569-3.821 2.355-4.606 2.355-.643 0-1.607-.429-2.893-1.284-1.214-.858-2.286-1.287-3.214-1.287-.929 0-1.5.178-1.714.536-.5.712-1 1.32-1.5 1.822m-24.639-99.951c3.143-.929 5.285-1.393 6.428-1.393-1.143 0-3.286.464-6.428 1.393m-42.53 4.821c.928-.214 1.75-.321 2.464-.321-.714-.001-1.536.106-2.464.321-1 .214-1.678.321-2.036.321.358 0 1.036-.107 2.036-.321m-17.14 14.676c.786.928 1.463 1.392 2.036 1.392-.573.001-1.251-.464-2.036-1.392m-20.354-12.427h3.856-3.856m13.176-3.214c2.143 0 3.643-.213 4.5-.642-.857.428-2.357.642-4.5.642m-7.927 27.532c1.285-1.428 2.214-2.357 2.785-2.785 1.071-.714 2.322-.892 3.75-.536-1.428-.356-2.678-.179-3.75.536-.571.428-1.5 1.357-2.785 2.785m28.281-3.321c.429.428 1.465.643 3.107.643 0 1-.394 1.893-1.179 2.678l-1.928 1.928h-2.678v-1.284 1.284h2.678c.071-.071.715-.713 1.928-1.928.786-.786 1.179-1.678 1.179-2.678-1.642 0-2.678-.215-3.107-.643m-58.384 9.856c1.715 0 2.822.214 3.322.643-.501-.429-1.607-.643-3.322-.643m14.676 8.677c.5-.142 1.714-.213 3.643-.213-1.929 0-3.143.071-3.643.213-1 .285-1.75 1.107-2.249 2.465.499-1.358 1.249-2.18 2.249-2.465m-19.389-31.923c.571.214 1.107.321 1.607.321-.5 0-1.036-.107-1.607-.321-.572-.286-.929-.429-1.071-.429.142-.001.499.143 1.071.429m2.249-14.035h3.107-3.107m14.891 16.927c.285-.214 1.034-.571 2.249-1.071 1.071-.5 1.857-.786 2.357-.858-.5.072-1.286.358-2.357.858-1.214.5-1.963.857-2.249 1.071M162.7 262.588c2.07 0 3.5.213 4.285.642-.786-.429-2.215-.642-4.285-.642m12.855 34.064h2.678c.142.143.499.394 1.071.752-.572-.358-.929-.609-1.071-.752h-2.678m-2.142-10.497c.642.214 1.82.643 3.535 1.285-1.715-.642-2.893-1.071-3.535-1.285-1.071-.429-2.107-.643-3.107-.643 1 .001 2.035.215 3.107.643m48.634-38.672c1.215 0 2.964.427 5.25 1.284-2.286-.857-4.035-1.284-5.25-1.284m-14.997-1.287c.214 0 .714.106 1.5.322.714.143 1.321.213 1.821.213-.5 0-1.107-.07-1.821-.213-.786-.215-1.286-.322-1.5-.322m-14.033 38.031c-1.5.357-2.5.322-3-.107.499.429 1.499.464 3 .107a31.806 31.806 0 0 0 2.893-.643v-2.678c-.5.213-1.286.429-2.357.642 1.071-.213 1.857-.429 2.357-.642v2.678c-1.072.284-2.037.5-2.893.643m30.423-8.571l3.857 2.036-3.857-2.036m-37.387-3.32h6.534-6.534m28.281 32.566c.5.643 1.536.749 3.107.32-1.571.429-2.607.323-3.107-.32-.142-.713-.285-1.071-.428-1.071-1.286 0-2.286.894-2.999 2.679-.715 1.714-1.215 2.855-1.5 3.427.286-.571.786-1.713 1.5-3.427.713-1.785 1.713-2.679 2.999-2.679.143 0 .286.358.428 1.071m4.072 14.463a17.97 17.97 0 0 0 1.714-.752c1.214-.713 2.107-1.07 2.678-1.07v2.678c-.144 0-.321.108-.536.322-.144.213-.536.322-1.178.322-.644 0-1.394-.394-2.25-1.181a1.715 1.715 0 0 0-.428-.319c-.5.142-1 .213-1.5.213v-1.284c.285.071.785.429 1.5 1.071m-19.177-20.14c.786-.43 2.072-.822 3.856-1.179 1.714-.429 3.036-.891 3.964-1.394-.928.503-2.25.965-3.964 1.394-1.784.356-3.07.749-3.856 1.179m-6.642 49.493c0-.573.465-1.108 1.393-1.606.858-.429 1.715-.645 2.572-.645h2.463c.144.216.394.857.75 1.929-1.428 1.858-3.57 2.75-6.427 2.679-.357-.571-.571-.892-.643-.965-.072-.214-.108-.678-.108-1.392m34.602-17.784c.358-.285.929-.569 1.715-.856 1.142-.5 1.963-.751 2.463-.751 0 .502.214.751.643.751v2.572c-2.07-.788-3.677-1.359-4.821-1.716-.213.142-.357.286-.428.429l-.644-.643c.287.071.645.142 1.072.214m3.107 14.462c.429-.355.786-1.104 1.071-2.249.429 0 .965.106 1.607.322.643.286 1.178.429 1.607.429-.857 1.498-1.286 3.247-1.286 5.247h-2.678c-.857-1.071-1.286-1.749-1.286-2.033.215-.716.537-1.288.965-1.716m-71.56-31.603h3.964-3.964m11.569 7.715c2.072-1.501 4.5-2.143 7.285-1.93-2.785-.213-5.213.429-7.285 1.93m11.784 33.423c-1.286-.856-2.25-1.534-2.893-2.036-1.071-.643-1.964-1.034-2.678-1.178.714.144 1.607.535 2.678 1.178.644.501 1.608 1.179 2.893 2.036-.857.5-2.357.751-4.5.751-1.857 0-2.856-.038-3-.109-.786-.284-1.321-1.143-1.607-2.569.286 1.427.821 2.285 1.607 2.569.144.071 1.143.109 3 .109 2.143 0 3.643-.251 4.5-.751m-3.856 16.497c1.142-1.355 2.642-2.035 4.498-2.035 1.071 0 3.714.215 7.928.643 0 .573-.107 1.142-.321 1.715-.214.285-.536.856-.964 1.714-4.071-.001-7.785-.681-11.141-2.037m-22.711-20.354h4.5-4.5m58.812 18.319c1.5 0 2.393.073 2.678.215.715.285 1.108 1.072 1.179 2.356-.214 0-.429.18-.644.536-.356.5-.571.819-.642.964-.429-.357-1.571-.822-3.428-1.394-1.428-.429-2.464-1.106-3.106-2.035.428 0 1.035-.071 1.82-.214.858-.284 1.572-.428 2.143-.428m-2.035 30.102c1.143.502 2 .964 2.57 1.394-.57-.43-1.427-.892-2.57-1.394-1.071-.427-1.857-.785-2.357-1.071.5.286 1.286.644 2.357 1.071m58.063-98.448c.357-.573.678-.965.964-1.181h3.214v2.679l-2.893.108c-1.214.071-2.214-.394-3-1.394.715.215 1.287.143 1.715-.212m-26.46 14.889c1.071-.214 1.893-.32 2.464-.32 1.286 0 2.821.429 4.606 1.285-.214 1.071-.571 1.965-1.071 2.678-.5.858-1.106 1.287-1.821 1.287-.356 0-1.106-.429-2.249-1.287-1.143-.855-2.464-1.284-3.964-1.284v-1.93c.357-.001 1.035-.142 2.035-.429m7.391 21.425c.572 0 1.071.108 1.5.322.571.213 1.071.322 1.5.322-.214.142-.429.535-.644 1.178-.286.713-.536 1.178-.75 1.392-.642-.356-1.499-.569-2.57-.643-.429-.071-1.036-.249-1.821-.536.857-1.357 1.786-2.035 2.785-2.035m20.033 11.035c0 .93.214 1.394.643 1.394v1.285c-1.857 0-3.286.322-4.285.965-1 .642-1.572.964-1.715.964-.643 0-1.143-.394-1.499-1.18a1.217 1.217 0 0 1-.215-.32c-.071.071-.107.143-.107.214-.357 0-.786-.143-1.285-.43-.5-.284-.75-.568-.75-.855h.643c.571.143 1.071.5 1.5 1.071.428-.5 1-.965 1.714-1.394.929-.713 1.607-1.284 2.036-1.714h3.32m-17.676 26.888a524.265 524.265 0 0 0 2.572-4.604h1.286v1.927-1.927h-1.286c-.43.784-1.286 2.32-2.572 4.604-1.286-.571-2.463-.713-3.535-.429-1.215.287-2.036 1.287-2.464 3 .428-1.713 1.249-2.713 2.464-3 1.072-.284 2.249-.142 3.535.429m-5.142-15.747c2.143-.073 3.606-.286 4.392-.642-.786.356-2.249.569-4.392.642m-8.034 32.781v2.571h-2.785 2.785v-2.571a5.575 5.575 0 0 1-.536-.858l-.107-.427h-3.213 3.213l.107.427a5.5 5.5 0 0 0 .536.858m-54.421 24.317c0 .216-.108.536-.321.965-.214.429-.322.751-.322.965 0-.214.108-.536.322-.965.213-.429.321-.749.321-.965h-3.964 3.964m-15.748-11.891c-.214.858-.928 1.714-2.143 2.571-1.142.93-2.142 1.394-2.999 1.394-.5 0-.929-.215-1.286-.645-.357-.427-.786-.642-1.286-.642-.214 0-.821-.892-1.821-2.679a.727.727 0 0 0 .536-.213v-.43c1.715 0 3-.213 3.857-.642h5.142v1.286m7.928-212.218c4.784-1.143 7.391-1.821 7.82-2.036-.428.215-3.036.893-7.82 2.036z"/><path fill="#2B2B2B" d="M278.61 262.694c0 1.071.072 1.714.215 1.929.429.643 1.856 1.071 4.285 1.285h11.784c.429-.429.644-1.322.644-2.679a870.542 870.542 0 0 1-4.929-.964c-2.071-.43-3.464-.998-4.177-1.714h-7.286l-.536 2.143m44.137-.106c-1 0-1.999.429-3 1.284-.857.714-1.286 1.465-1.286 2.249l.75.322v-.535h1.178-1.178V271.157c2.143 0 4 .179 5.571.536 1 .357 2.607 1.035 4.821 2.036h1.286c-.429-1.287-.286-2.646.428-4.072.786-1.643 1.964-2.498 3.535-2.571v-3.214c-1.428-.357-3.677-.678-6.749-.965-2.642-.213-4.427-.319-5.356-.319z"/><g><path fill="none" stroke="#2B2B2B" stroke-linecap="round" stroke-linejoin="round" d="M612.634 50.583c-.571-.071-1.429-1.213-2.571-3.428-.285-.571-.892-1.178-1.82-1.821-.716-.5-1.109-1.036-1.181-1.607-.071-.999-.82-2.285-2.249-3.856s-2.143-2.571-2.143-2.999c0-.144.073-.25.216-.321.071-.072.106-.179.106-.322-1.643-2.714-2.714-4.321-3.214-4.821-.073-.071-.394-.321-.965-.749-.355-.214-.606-.572-.749-1.071-.357-1.144-.822-2-1.394-2.571-.284-.144-.464-.5-.535-1.071-.071-.786-.143-1.25-.214-1.393-.07-.144-.429-.394-1.071-.75-.573-.286-.857-.679-.857-1.178 0-1.214-.606-1.929-1.82-2.143a8.54 8.54 0 0 1-1.394-.75c-.429-.5-.787-.857-1.071-1.071l-5.463-.536-13.498 1.071c.427.286.963.643 1.607 1.071.498.214.892.571 1.178 1.071.357.713.714 1.214 1.071 1.499.429.358.678.821.749 1.394.073.357.145.857.216 1.5l2.143 1.821c0 .071-.071.321-.216.75-.286.428-.429.821-.429 1.178 0 .5.251.965.751 1.393.429.429.643 1.215.643 2.357-.143 1 .106 1.678.749 2.036.786.356 1.251.821 1.394 1.392.142.715.464 1.286.964 1.714.571.5.928.929 1.071 1.286.214.286.287.607.214.965-.143.428-.106.75.106.963.143.287.502.571 1.071.858.502.142.751.356.751.642 0 .214-.073.429-.215.643-.143.143-.214.287-.214.429a.957.957 0 0 0-.106.429l.535 1.178c.287.857.43 1.607.43 2.25.713.072 1.213.357 1.498.857.142.357.322 1.143.535 2.356l25.391.429m-22.926-32.998l2.679.107m56.777 33.53l-4.179-.106-32.352-.536m133.48-33.745l3.75 7.82-3.001 406.012m-68.56 0a1.307 1.307 0 0 1-.214-.321c-1-.071-3.427.035-7.285.321M541.395 107.896l60.42 1.607 38.565 1.071 48.207 1.286-39.423-59.563m-8.784 58.277c.071.071.214.179.427.321.358.429.536.821.536 1.179 0 .428-.214.964-.643 1.607-.429.713-.643 1.107-.643 1.178.858.571 1.465 1.321 1.82 2.249.071.358.143.715.216 1.071.213 1.358.106 2.536-.322 3.536 1.429.928 2.287 2.606 2.571 5.034.285 2.429 1.178 4.143 2.679 5.143-.571.428-.892.713-.965.856v.643c0 .571.394 1.071 1.178 1.5 1.071.571 1.645.893 1.716.964v.964c-.429.214-1.071.321-1.929.321.142.429.5 1.536 1.071 3.321.715 1.571 1.749 2.428 3.106 2.571a2.935 2.935 0 0 1-.751.856c-.284.144-.465.322-.535.536.286.929.929 1.607 1.929 2.036.571.356 1.251.642 2.036.856v2.464c0 .929.213 1.643.642 2.143 1.071 1.071 1.394 2.822.965 5.25-.073.5.287 1.286 1.071 2.357.855 1.214 1.285 2.107 1.285 2.678 0 .715-.287 1.178-.856 1.393-.573.143-.857.5-.857 1.071 0 .857.251 1.571.749 2.143.143.357.357.678.645.964 0 .286-.143.5-.429.643-.216.142-.322.357-.322.642 0 .715.357 1.358 1.071 1.929.642.643.964 1.285.964 1.928 0 .286-.322.75-.964 1.393-.714.642-1.071 1.213-1.071 1.713 0 .358.393 1.144 1.178 2.357.716 1.286 1.071 2.428 1.071 3.429 0 .571-.143.929-.427 1.071-.358.143-.536.321-.536.536 0 .643.465 1.321 1.392 2.036.858.713 1.287 1.249 1.287 1.607 0 .5-.216 1.071-.645 1.713-.569.571-.929.965-1.071 1.178.929.858 1.716 1.286 2.358 1.286-.5.286-1.287.429-2.358.429-1 .071-1.749.25-2.249.536.286 1.071 1.035 1.714 2.249 1.928.716.071 1.716.179 3 .321v.644c0 .5-.284 1.178-.857 2.035-.498.857-.749 1.464-.749 1.821 0 .571.18.929.535 1.071m.429 2.357c.213.428.429.821.642 1.178.43 1.071.643 1.857.643 2.357v1.178c-.213.5-.643.894-1.284 1.179.357.714 1.035 1.678 2.035 2.893.856 1.213 1.285 2.5 1.285 3.856 0 .143-.214.536-.643 1.178-.5.714-.751 1.179-.751 1.394 2 3.07 3 4.642 3 4.713 0 .571-.035.929-.106 1.071-.287.429-.929.608-1.929.536.357.644 1 1.537 1.929 2.679.5.643.749 1.465.749 2.463l-.965 3.001c0 .429.251 1.106.751 2.035.43.93.643 2.034.643 3.321v.429c0 .713.181 1.498.536 2.355.429 1.071.642 1.858.642 2.356 0 .573-.213 1.213-.642 1.929-.355.716-.536 1.178-.536 1.394 0 .214.607 1.178 1.82 2.892 0 .071.038.143.109.214l.106.108c1.357 2 2.604 3.356 3.749 4.069.643.43 1.107 1.93 1.392 4.501 0 .355.645 1.678 1.93 3.963-.285.071-.536.143-.749.213-.787.216-1.181.679-1.181 1.394 0 .43.822 1.322 2.465 2.679 1.571 1.284 2.356 2.249 2.356 2.892 0 .357-.465.857-1.392 1.5-1 .643-1.5 1.249-1.5 1.822 0 1.071.284 2 .857 2.785.355.429.929 1.035 1.714 1.82v3.214c-.714.286-1.358.429-1.93.429-.713 0-1.249-.251-1.606-.749h-1.927v1.927c.784.714 1.82 1.107 3.104 1.179.929.357 1.394 1.535 1.394 3.535 0 .071-.284.679-.857 1.82-.498 1.358-.749 2.607-.749 3.75-2.572-.427-4.072.143-4.499 1.716-.716 2.355-1.536 3.856-2.465 4.498.355.429 1.465 1 3.32 1.714 1.287.571 1.93 1.571 1.93 3 0 .571-.178 1.643-.536 3.214-.286 1.571-.429 2.534-.429 2.892.143.073 1.036.5 2.679 1.287v1.607c-.214 0-.607.213-1.179.642-.713.429-1.215.678-1.5.749.143.785.929 1.643 2.356 2.571 1.286.858 1.929 1.428 1.929 1.714 0 .714-.606 1.394-1.82 2.036-1.143.571-1.716 1.427-1.716 2.571 0 .855 1.214 2.785 3.643 5.785a182.991 182.991 0 0 0 3.536 4.069c0 .643-1.32 2.358-3.965 5.144 0 .643.038 1.643.109 2.998 0 1.358-.252 2.858-.752 4.501v2.355c2.143.429 3.214 1.93 3.214 4.501 0 .569-.32 1-.964 1.284-.643.285-.963.965-.963 2.036.214 1.429.536 2.714.963 3.856.286.571.502 1.071.644 1.5 0 .643-.321 1.143-.964 1.5-.643.355-.965.963-.965 1.82 0 .858.214 1.643.643 2.356.429.573.643 1.071.643 1.5 0 .216-.32.929-.963 2.143-.645 1.071-.965 1.714-.965 1.929 0 1.285.894 3.392 2.679 6.321.855 1.427 1.5 2.498 1.927 3.214.429.784.645 1.249.645 1.392 0 1.071-.429 1.751-1.287 2.035a46.249 46.249 0 0 0-3.643.858h-.106c-.143.142-.214.394-.214.749 0 .643.643 1.82 1.928 3.536 1.357 1.713 2.035 3.176 2.035 4.392 0 .643-.391 1.143-1.178 1.5-.787.427-1.178.929-1.178 1.498 0 .573.249 1.965.749 4.179 0 1.216-1.214 1.751-3.643 1.606v3.214c.573.571 1.394 1.214 2.465 1.93.786.642 1.178 1.535 1.178 2.678 0 .284-.143.643-.429 1.071-.214.5-.32.892-.32 1.178 0 1.358.391 2.25 1.178 2.679.787.357 1.178 1.143 1.178 2.355 0 1.93-.749 3.823-2.249 5.679-1.571 1.856-2.355 3.892-2.355 6.105 0 .357.393.965 1.178 1.822l.106.107m-76.275-320.311c0 .929.394 1.678 1.178 2.249.429.287.998.679 1.714 1.179a15.5 15.5 0 0 0-.429.75c-.214.213-.32.5-.32.857 0 .142.071.463.213.963.143.358.251.786.322 1.286.355 1.144.536 2.25.536 3.322 0 1.285.32 2.249.962 2.892.716.714 1.071 1.536 1.071 2.465 0 .356-.178.749-.535 1.178-.355.357-.536.857-.536 1.5.716 1.785 1.071 2.749 1.071 2.892 0 1.214-.498 2.357-1.498 3.428-1.071 1.144-1.606 2.036-1.606 2.678.784.356 1.355.856 1.714 1.5.5.786.822 1.286.964 1.499h-1.393c-.355.144-.642.571-.857 1.286.786.285 1.465 1.071 2.036 2.357.429 1.071.642 1.963.642 2.678 0 .642-.784 1.928-2.355 3.856-1.571 1.929-2.356 3.322-2.356 4.178 1.285.357 2.177.75 2.679 1.178.713.429 1.143 1.144 1.284 2.143-.571 0-1.106.322-1.606.964.857 1.143 1.284 2 1.284 2.572 0 .428-.213 1.106-.642 2.035-.43.857-.643 1.428-.643 1.714 0 .143.18.678.535 1.607.285.928.43 1.785.43 2.571 1.07 0 2.068.679 2.998 2.036.502.714 1.143 1.893 1.929 3.535-.284 1.286-.786 2.178-1.5 2.678-.571.286-.855.821-.855 1.607 0 .571.32 1.142.962 1.713.502.644.751 1.286.751 1.929 0 .857-.322 1.713-.964 2.57-.643.857-.965 1.571-.965 2.143 0 .286.5 1.071 1.5 2.357.93 1.286 1.394 2.5 1.394 3.643 0 .428-.216 1.106-.645 2.035-.427.857-.643 1.464-.643 1.821 0 2.428-.142 5.892-.429 10.392 0 .5.358 1.286 1.071 2.357.645 1.071.965 1.82.965 2.249 0 .715-.178 1.571-.536 2.572-.357.999-.535 2.143-.535 3.427 1.145 3.714 1.714 5.714 1.714 5.999 0 .715-.249 1.251-.749 1.607-.643.357-.965.787-.965 1.287s.465 1.462 1.394 2.892c0 .713-.145 1.5-.429 2.357a7.184 7.184 0 0 0-.536 2.785c0 .998.322 1.965.965 2.892.643.857.965 1.643.965 2.358 0 .071-.216.678-.645 1.82-.427 1.213-.643 2.249-.643 3.106 0 .5.535 1.928 1.606 4.285 0 .856-.357 1.856-1.071 2.999-.784 1.142-1.178 1.929-1.178 2.357 0 .714.18 2.069.536 4.069.284 1.93.429 3.644.429 5.144m.854.75c-.643.502-1.392 1.678-2.249 3.536-.998 2.071-1.5 3.749-1.5 5.034 0 .286.322.857.964 1.716.643.929.965 1.568.965 1.927 0 .286-.284.894-.857 1.822-.498.929-.749 1.536-.749 1.82 0 .716.322 1.322.964 1.82.643.429.965.751.965.965-.216.357-.429.68-.645.964-.427.643-.643 1.107-.643 1.394 0 .214.536.749 1.607 1.607 1 .643 1.855 1.178 2.571 1.606-1.071 1.143-2.785 2.536-5.143 4.177-.714.429-1.071 1.822-1.071 4.179 0 .784.286 1.964.857 3.535.5 1.501.749 2.534.749 3.107 0 .643-.249 1.392-.749 2.249-.571.856-.857 1.43-.857 1.714 0 .429.108 1.143.322 2.143.142 1-.071 1.787-.643 2.356-.429.502-.608 1.213-.536 2.142 0 1.501-.035 2.465-.106 2.895-.071.5-.429 1.071-1.071 1.713-.573.643-.857 1.428-.857 2.356 0 .286.18.857.535 1.716.285.929.43 1.606.43 2.033 0 .287-.394.752-1.179 1.394-.715.643-1.071 1.251-1.071 1.82 0 .645.214 1.5.643 2.571s.643 1.823.643 2.25c0 .786-.429 1.606-1.285 2.465-.929.857-1.394 1.678-1.394 2.465 0 .284.181.678.536 1.178.284.357.429.855.429 1.5 0 .714-.535 1.498-1.606 2.355-1.071.858-1.607 1.643-1.607 2.356 0 .645.429 2.071 1.285 4.285.857 2.214 1.286 3.429 1.286 3.643 0 .643-.573 1.5-1.716 2.571-1.213 1.071-1.82 2.143-1.82 3.214 0 .5.143 1.143.43 1.93.357.929.535 1.64.535 2.143 0 1.64-.5 2.784-1.5 3.427-1 .571-1.5 1.394-1.5 2.465 0 .569.249 1.855.751 3.856 0 .213-.18.571-.536 1.071-.357.5-.535.998-.535 1.5l1.714 1.284c-.358 1.143-1.358 1.82-3.001 2.036.145.785.785 1.571 1.93 2.356 1.142.784 1.713 1.5 1.713 2.143 0 .429-.678 1.106-2.035 2.035-1.285.858-1.928 1.679-1.928 2.465 0 .214.179.643.536 1.285.284.642.427 1.071.427 1.284 0 .287-.32.858-.963 1.716-.644.929-.964 1.569-.964 1.927 0 .571.391 1.43 1.178 2.572.716 1.142 1.071 1.962 1.071 2.465 0 .568-.429 1.178-1.285 1.82-.857.57-1.286 1.284-1.286 2.142 0 .214.073.43.215.643.143.143.498.465 1.071.965v4.607c-.857 0-1.645.106-2.357.32 0 1 .784 2.106 2.357 3.32-.142.929-.751 1.68-1.822 2.251-1.284.714-1.965 1.178-2.035 1.392-.643.716-.892 1.606-.749 2.678.07.643.18 1.323.322 2.036l2.355 7.713v.644M541.395 50.368l45.849.856"/></g><g><path fill="none" stroke="#333" stroke-linecap="round" stroke-linejoin="round" d="M644.985 54.868l-107.234-1.393v3.428m107.234.643h1.606l-.106-.215-1.5-2.463m16.927 0c.143.142.32.393.536.75 1.855 2.714 7.392 10.356 16.604 22.924a643.06 643.06 0 0 0 3.963 5.571m-31.922-19.175l-2.465-3.964h-2.036m-108.841 4.285v-4.285m113.342 3.964l2.034 3.32m1.5 2.572l1.822 2.892.535 1.071 2.569 4.071 3.323 5.57 3.214 5.25 3.533 5.892 3.107 5.142 3.643 5.892-138.623-3.535V65.259m115.377 2.999l.644 1.178.856 1.394m-5.999-9.856l-2.036-3.428M504.006 67.938c.643 0 1.501.106 2.572.321.998.215 1.749.321 2.249.321.787 0 2.249-.142 4.392-.428 2.143-.287 3.823-.536 5.036-.75m19.496-6.428v-4.071m-7.605 64.062c.358 0 .894.179 1.607.536.713.356 1.606.856 2.678 1.499h.429c.498-.071.93-.178 1.285-.321.214-.071.429-.214.643-.428m-6.642-5.25h2.679c0 1.286-.216 2.428-.643 3.428M305.714 64.616c.571.358.893.571.963.644m-55.705 2.678c2.572 0 4.535-.25 5.892-.75m-21.64-2.572c.214 0 .572.108 1.071.322.5.213.821.321.964.321m24.854-32.031c.143.071.465.25.964.536m-80.988 36.101h2.678m-9.212-21.639c.356-.214.892-.393 1.607-.536h1.071m20.354 62.134c.786-.643 1.857-1.25 3.214-1.822m-28.818 20.783c.429-.571.679-.892.75-.964.357-.357.964-.678 1.822-.963m-6.428 27.531c.213 0 .536.142.963.428.286.214.821.536 1.607.965m17.141 13.712h2.572m7.177-23.568c.428 0 .642-.215.642-.643l-.321.107c-.214.071-.321.25-.321.536zm28.175 9.856c.214.286.75.5 1.607.642.928.286 1.463.5 1.607.644m-43.173-67.599h3.856m92.451-3.32h2.678m5.142 49.278h2.678m19.605-10.498h4.606m-76.703-13.178c.714 0 1.606-.071 2.678-.213 1.071-.287 1.929-.429 2.572-.429m-5.25 75.31c.5 0 1.071.144 1.714.429.643.214 1.178.321 1.607.321m-2.035-18.854h5.25m16.496-19.175l3.857 2.036m-35.459 3.855h5.356m43.922 7.928c.358 0 .894-.144 1.607-.429.644-.214 1.214-.321 1.715-.321M473.797 60.76c.498-.429 1.392-.643 2.679-.643.855 0 1.427.036 1.714.107.429.142.964.5 1.606 1.071m-131.874-15.64c.5-.5 1.607-.75 3.322-.75m-.644 28.817h4.606m20.998-37.923c.428-.358 1.536-.536 3.32-.536m7.821 42.423c2.357 1.786 4.214 2.678 5.571 2.678.071 0 .643-.463 1.714-1.393.857-.714 1.249-.893 1.178-.536h5.25v1.178m-17.034-18.318c2.214 0 3.821.106 4.821.321 1.643.215 2.857.786 3.643 1.715m-32.675 33.423c.071-.071.821-.536 2.25-1.393 1.357-.857 2.143-1.286 2.357-1.286.713 0 1.143.108 1.286.322.428.357.857 1.357 1.285 3m11.141 32.781c.429 0 .893-.107 1.393-.321.5-.286 1-.429 1.5-.429 1.071 0 2.072.464 3 1.394m-56.993-23.676c.571.214 1.321.393 2.25.536.786.214 1.57.714 2.356 1.5m-3.213 66.954c-.571.142-1.178.321-1.82.536-1.357.428-2.072.642-2.143.642.285.429 2.035 1.215 5.249 2.357 3.357 1.071 5.5 1.606 6.427 1.606 1.572 0 2.5-.035 2.786-.106.499-.287 1.107-1.321 1.82-3.107-1.428-.286-2.82-.965-4.177-2.036-1.143-.857-2.571-1.285-4.285-1.285-1.286 0-2.393.428-3.322 1.285h.482a7.896 7.896 0 0 0-1.017.108l.535-.108m26.89 14.462c.215-.286.786-.536 1.714-.749 1.142-.215 1.893-.429 2.25-.644m-6.643-18.318c.5-.429 2.072-.644 4.713-.644m9.75 15.107c1.143-1.286 2.249-1.928 3.32-1.928m10.606-34.817h3.106m-5.142-5.892h3.214m-4.606 20.997c.928.429 2.25.643 3.964.643m53.028-43.815h2.57v1.178m-25.496 2.036h7.284m21.534 40.6c1.571.287 3.429-.286 5.571-1.714 2-1.286 4.285-1.607 6.857-.964m-47.673-9.855c1.215 0 2.286.249 3.214.749m74.025 12.427c1.571 0 3.643.607 6.212 1.821 2.285 1.071 4.572 1.393 6.856.964m-93.092 8.356c1.357 0 2.285.214 2.785.644m-3.964 63.739c3.928-.355 7.249-1.034 9.964-2.034 2.143-.929 4.57-1.394 7.284-1.394.5 0 1.536.251 3.106.749 1.644.43 2.928.645 3.857.645m4.606 18.212c.928 1.143 1.786 1.927 2.572 2.355.642.214 1.643.322 3 .322 1 0 3.178-.393 6.534-1.18 2.928-.784 5.214-1.033 6.856-.749m25.496 16.392c2.355 1 4.356 1.178 5.999.535m-86.451-80.56c1.499-1.214 2.678-1.82 3.535-1.82.428 0 .857.392 1.286 1.178.357.643.678.857.963.643v1.286c-.928 0-2.213-.428-3.856-1.286h-3.214v1.286m-3.428 7.926h7.284c0 .357.144.678.429.963.214.287.5.429.857.429v.642h-2.678c-.786-.856-1.678-1.249-2.678-1.178-.357 0-1 .179-1.928.536m-19.604 15.641c.786 0 1.535.107 2.249.322.571.286 1.357.821 2.357 1.607m-45.315-2.678c.213-.358.678-.965 1.393-1.821.928-.857 1.607-1.286 2.035-1.286.5 0 1.144.215 1.929.643.786.429 1.428.644 1.928.644.857 0 2.178-.571 3.964-1.715 1.714-1.143 2.892-1.714 3.535-1.714.571 0 1.571.929 2.999 2.785m-24.961-13.177c.5 0 .75-.214.75-.642.356 0 .786.142 1.285.428.5.287.929.608 1.286.965m-13.819 22.173c0-2.142-.214-3.677-.644-4.605 1.429-1.286 2.75-1.929 3.964-1.929.857 0 1.75.322 2.678.964.928.643 1.464.965 1.607.965.715 0 1.464-.394 2.25-1.179.786-.643 1.893-.893 3.321-.75m1.929 27.533c.786-.143 2.107-.573 3.964-1.287 1.571-.429 2.856-.643 3.856-.643.929 0 1.822.394 2.678 1.178m-35.352.752c.856-1.001 1.392-1.607 1.607-1.823.143-.07.714-.106 1.714-.106.071 0 1.678.322 4.821.965 3.142.643 5.106.965 5.892.965.571 0 1.071.106 1.499.319.429.216.679.322.75.322v1.928m-.535 16.39v4.714c2.143 0 4 .179 5.571.536 1 .357 2.607 1.035 4.821 2.036h1.286c-.429-1.287-.286-2.646.428-4.072.786-1.643 1.964-2.498 3.535-2.571v-3.214c-1.428-.357-3.677-.678-6.749-.965-2.643-.213-4.428-.319-5.356-.319-1 0-1.999.429-3 1.284-.857.714-1.286 1.465-1.286 2.249l.75.322v-.535h1.178m63.634 37.923h1.928a7.897 7.897 0 0 1 1.5-.322c1.643-.213 2.678-.319 3.106-.319.929 0 2.286.319 4.072.962 1.714.645 2.964.965 3.75.965 1.428 0 2.964-.429 4.606-1.285h6.642v1.285m-30.854 42.637c.929.429 3 .606 6.214.535 2.929-.073 5.249.429 6.963 1.5m-52.492-19.069c1.785-.429 4.606-.643 8.462-.643m15.32 53.457c.429.214.929.32 1.5.32 1.357 0 3.5-.678 6.428-2.036 3.07-1.284 5.606-1.927 7.605-1.927.572 0 1.571.32 3 .965 1.357.643 2.32.962 2.892.962.714 0 1.143-.033 1.286-.106.5-.286.964-1.106 1.393-2.463M276.576 217.38c.786-.857 1.643-1.286 2.57-1.286 1.715 0 3.5.429 5.356 1.286v-1.286m0-17.14c.286-.357.858-.643 1.715-.857.786-.286 1.499-.429 2.143-.429m1.286 34.066c-.144-1.214-.679-2.214-1.607-2.999-.572-.502-1.108-.822-1.607-.964.928-1.287 1.893-1.93 2.892-1.93 1.144 0 2.571.681 4.285 2.036 1.714 1.284 3.107 1.929 4.178 1.929.786 0 2.036-.322 3.75-.964 1.713-.714 2.893-1.071 3.535-1.071.429 0 1.179.249 2.25.749 1.071.429 1.964.642 2.678.642m-59.67-28.173c1.357-.429 3.392-1.286 6.106-2.571a35.581 35.581 0 0 0 3.106-1.393m-5.249 47.78c.071-.429.463-1.038 1.178-1.822.856-.927 1.642-1.392 2.357-1.392.071 0 .392.143.963.427.929.143 2.465.216 4.607.216m-24.21-32.139c.857.5 2.178.749 3.964.749m23.568-5.248c.429.428 1.5.642 3.214.642m-13.07-6.856c.714-.287 2.071-.429 4.071-.429m-24.317 83.237h10.39m-8.463 5.892c.428.143.821.287 1.178.43 1.786.642 3.357.964 4.714.964v1.285m34.173-28.067c-.071-.5-.106-1-.106-1.5 0-1.928.071-3.036.214-3.321.286-.5 1.107-.929 2.464-1.284 0 .498.214.749.642.749m-3.214 5.356l.536-2.143h7.286c.713.716 2.106 1.284 4.177 1.714 1.071.215 2.714.535 4.929.964 0 1.356-.215 2.25-.644 2.679H283.11c-2.428-.214-3.856-.643-4.285-1.285-.142-.215-.215-.857-.215-1.929zm16.713 29.783c.5-.502 1-1.109 1.5-1.822.214-.358.786-.536 1.714-.536.928 0 2 .429 3.214 1.287 1.286.855 2.25 1.284 2.893 1.284.786 0 2.32-.786 4.606-2.355 2.143-1.5 4.356-2.252 6.642-2.252m-45.208-95.557c3.143-.929 5.285-1.393 6.428-1.393m-50.994 6.535c.358 0 1.036-.107 2.036-.321.928-.214 1.75-.321 2.464-.321m-19.604 14.997c.786.928 1.463 1.392 2.036 1.392m-22.39-13.819h3.856m9.32-3.214c2.143 0 3.643-.213 4.5-.642m-12.427 28.174c1.285-1.428 2.214-2.357 2.785-2.785 1.071-.714 2.322-.892 3.75-.536m21.746 0c.429.428 1.465.643 3.107.643 0 1-.394 1.893-1.179 2.678l-1.928 1.928h-2.678v-1.284m-55.706 5.891c1.715 0 2.822.214 3.322.643m9.105 10.499c.499-1.357 1.249-2.18 2.249-2.465.5-.142 1.714-.213 3.643-.213m-24.104-32.14c.143 0 .499.144 1.071.429.571.214 1.107.321 1.607.321m.643-14.355h3.107m11.784 16.927c.285-.214 1.034-.571 2.249-1.071 1.071-.5 1.857-.786 2.357-.858M162.7 262.588c2.07 0 3.5.213 4.285.642m8.57 33.422h2.678c.142.143.499.394 1.071.752.499.286.999.678 1.499 1.178m-10.498-13.069c1 0 2.036.214 3.107.643.642.214 1.82.643 3.535 1.285m45.1-39.958c1.215 0 2.964.427 5.25 1.284m-20.247-2.571c.214 0 .714.106 1.5.322.714.143 1.321.213 1.821.213m-18.747 35.353c.428-.143 1.071-.32 1.928-.536 1.071-.213 1.857-.429 2.357-.642v2.678c-1.071.284-2.036.5-2.893.643-1.5.357-2.5.322-3-.107m33.424-8.464l3.857 2.036m-41.244-5.356h6.534m16.82 37.601c.286-.571.786-1.713 1.5-3.427.713-1.785 1.713-2.679 2.999-2.679.143 0 .286.358.428 1.071.5.643 1.536.749 3.107.32m.965 14.143a17.97 17.97 0 0 0 1.714-.752c1.214-.713 2.107-1.07 2.678-1.07v2.678c-.144 0-.321.108-.536.322-.144.213-.536.322-1.178.322-.644 0-1.394-.394-2.25-1.181a1.715 1.715 0 0 0-.428-.319c-.5.142-1 .213-1.5.213v-1.284c.285.071.785.429 1.5 1.071zm-19.177-20.14c.786-.43 2.072-.822 3.856-1.179 1.714-.429 3.036-.891 3.964-1.394m-8.034 49.815h-2.463c-.857 0-1.714.216-2.572.645-.928.498-1.393 1.033-1.393 1.606 0 .714.036 1.179.108 1.392.071.073.286.394.643.965 2.857.071 5-.82 6.427-2.679-.356-1.072-.606-1.713-.75-1.929zm28.174-15.533c1.144.357 2.75.929 4.821 1.716v-2.572c-.428 0-.643-.249-.643-.751-.5 0-1.321.251-2.463.751-.786.286-1.357.57-1.715.856a14.064 14.064 0 0 1-1.071-.214l.644.643c.071-.143.214-.288.427-.429zm3.429 18.211h2.678c0-2 .429-3.749 1.286-5.247-.429 0-.964-.143-1.607-.429-.642-.216-1.178-.322-1.607-.322-.286 1.145-.642 1.894-1.071 2.249-.429.429-.75 1-.964 1.716-.001.284.428.961 1.285 2.033zm-71.882-35.352h3.964m7.605 7.715c2.072-1.501 4.5-2.143 7.285-1.93m-4.607 33.425c.286 1.427.821 2.285 1.607 2.569.144.071 1.143.109 3 .109 2.143 0 3.643-.251 4.5-.751-1.286-.856-2.25-1.534-2.893-2.036-1.071-.643-1.964-1.034-2.678-1.178m13.819 20.034c-.214.285-.536.856-.964 1.714-4.071 0-7.785-.68-11.141-2.036 1.142-1.355 2.642-2.035 4.498-2.035 1.071 0 3.714.215 7.928.643a4.817 4.817 0 0 1-.321 1.714zm-34.816-20.676h4.5m57.526 21.426c.215-.356.429-.536.644-.536-.071-1.284-.464-2.071-1.179-2.356-.286-.142-1.178-.215-2.678-.215-.571 0-1.285.145-2.143.429-.786.143-1.392.214-1.82.214.643.929 1.678 1.606 3.106 2.035 1.857.571 2.999 1.036 3.428 1.394.071-.146.285-.465.642-.965zm-7.606 25.924c.5.286 1.286.645 2.357 1.071 1.143.502 2 .964 2.57 1.394m59.671-101.023h-3.214c-.286.216-.607.607-.964 1.181-.429.355-1 .427-1.714.213.786 1 1.786 1.465 3 1.394l2.893-.108v-2.68zm-28.174 15.749c1.286 0 2.821.429 4.606 1.285-.214 1.071-.571 1.965-1.071 2.678-.5.858-1.106 1.287-1.821 1.287-.356 0-1.106-.429-2.249-1.287-1.143-.855-2.464-1.284-3.964-1.284v-1.93c.357 0 1.036-.142 2.036-.429 1.07-.213 1.891-.32 2.463-.32zm2.142 23.781c.857-1.357 1.786-2.035 2.785-2.035.572 0 1.071.108 1.5.322.571.213 1.071.322 1.5.322-.214.142-.429.535-.644 1.178-.286.713-.536 1.178-.75 1.392-.642-.356-1.499-.569-2.57-.643-.429-.071-1.035-.248-1.821-.536-.286.358-.571.752-.857 1.179m16.605 10.928c.428-.5 1-.965 1.714-1.394.929-.713 1.607-1.284 2.036-1.714h3.321c0 .93.214 1.394.643 1.394v1.285c-1.857 0-3.286.322-4.285.965-1 .642-1.572.964-1.715.964-.643 0-1.143-.394-1.499-1.18a1.177 1.177 0 0 1-.215-.32c-.071.071-.107.143-.107.214-.357 0-.786-.143-1.285-.43-.5-.284-.75-.568-.75-.855h.643c.57.142 1.07.5 1.499 1.071zm-16.605 26.352c.428-1.713 1.249-2.713 2.464-3 1.071-.284 2.249-.143 3.535.429a524.265 524.265 0 0 0 2.572-4.604h1.286v1.927m-9-13.07c2.143-.073 3.606-.286 4.392-.642m-16.282 32.138h3.213l.107.427a5.5 5.5 0 0 0 .536.858v2.571h-2.785m39.101-9.427c-.143.144-.214.286-.214.429h-.644l.858-.429h.213l4.5-2.25c1.928-.929 3.429-1.394 4.5-1.394 1 0 3.25.573 6.749 1.716a33.31 33.31 0 0 0 10.606 1.714c.643 0 1 .035 1.071.106m-25.925 1.714v-1.82c-.643 0-1.143.071-1.5.214m10.605 34.387c.715 0 1.75.145 3.107.429 1.428.143 2.393.216 2.892.216 2.357 0 4.82-.645 7.392-1.929 2.5-1.285 4.392-1.93 5.677-1.93.429 0 1.965 1.071 4.606 3.214 2.643 2.216 4.821 3.323 6.536 3.323m-135.73-6.537h3.964c0 .216-.108.536-.321.965-.214.429-.322.751-.322.965m-17.247-11.25c1.215-.857 1.928-1.713 2.143-2.571v-1.284h-5.142c-.857.429-2.143.642-3.857.642v.43a.727.727 0 0 1-.536.213c1 1.787 1.607 2.679 1.821 2.679.5 0 .929.215 1.286.642.356.43.786.645 1.286.645.857-.002 1.857-.466 2.999-1.396zm246.071 5.999c.857-2.355 4.785-6.105 11.784-11.248m-247.785-209.54c4.784-1.143 7.391-1.821 7.82-2.036m302.207-41.993c3.927 0 6.783.213 8.57.643"/></g><g><path fill="none" stroke="#383138" stroke-linecap="round" stroke-linejoin="round" d="M683.016 84.113c.5.356 1.035.75 1.606 1.179 1.643 1.285 3.536 3.106 5.679 5.463.143.071.287.179.429.321.071.144.178.286.32.429.145.142.287.286.429.428 2.428 2.786 4.428 5 5.999 6.642 1.071 1.286 1.929 2.178 2.571 2.678m-15.64-15.104c1.429 2.143 2.82 4.25 4.178 6.32.071.214.143.358.214.429.143.215.251.394.322.536a153.97 153.97 0 0 1 4.176 7.177c1 1.786 1.93 3.571 2.787 5.356m-13.07-21.854c.5.714.964 1.392 1.394 2.036"/></g><g><path fill="none" stroke="#111" stroke-linecap="round" stroke-linejoin="round" d="M615.954 20.693v-1.285h1.394m-30.854 13.82v.536h3.963v-.536m47.245 2.571c.355 0 .535-.179.535-.536h-.215c-.213.143-.32.321-.32.536zm-82.597-8.463h2.035m5.251 12.427h3.856m-17.676-6.535h2.035m-3.32 88.379c.855-.428 2.249-.642 4.179-.642 2.427 0 4.318.214 5.676.642V123m14.998 1.929v-1.286c.429 0 .643.179.643.536 0 .356-.143.571-.427.642-.072 0-.143.036-.216.108 2.216 0 3.75-.25 4.607-.75v1.392m-11.142-1.392c.716 0 1.643.142 2.785.428 1.145.214 1.929.322 2.357.322h1.392m-44.886 63.419c-.569-.785-.855-1.607-.855-2.464h2.463c0 .144.108.321.322.536.284.286.429.536.429.75-.5.214-1.178.536-2.036.965-.072.07-.18.141-.323.213-.713.358-1.284.608-1.714.75m22.068-40.388c.143.714.678 1.536 1.606 2.465h3.323c-.216-.358-.93-.894-2.143-1.607-1.071-.714-1.822-1.071-2.252-1.071-.14 0-.319.071-.534.213a17.36 17.36 0 0 0-.749.536c-.5.358-.892.679-1.178.965m6.857 29.031v-.536c.354.284.568.462.642.536-.074-.07-.288-.07-.642 0zm19.603-7.82c.429 0 1.107.143 2.036.429.857.142 1.5.214 1.929.214m-13.071-7.178h3.214m60.314-37.387c.642 1.215 1.713 2 3.214 2.357.855.214 2.462.536 4.82.965m-43.709-12.643c-.5-.286-.822-.428-.964-.428v2.035h1.929v-1.285c-.214 0-.536-.107-.965-.322zm.965 17.141c.429-.571.857-1 1.285-1.285v2.035h-.643a5.076 5.076 0 0 1-.642-.75c-.214.143-.465.393-.749.75m.749-3.214c0 .429-.251.644-.749.644 0 .571.249 1.178.749 1.82m64.811 8.678c4.428-.929 7.215-1.607 8.357-2.036h1.82c4.143 0 11.604 2.071 22.39 6.213a3.8 3.8 0 0 0 .965.322 823.704 823.704 0 0 1 14.354 5.892c1.213 0 2.465-.429 3.749-1.286 1.214-.929 2.143-1.393 2.787-1.393.569 0 1.606.249 3.104.749 1.646.429 2.679.644 3.107.644.571 0 2.071-.215 4.501-.644 2.427-.5 3.855-.749 4.285-.749.929 0 1.749.178 2.462.536.643.286 1.643.999 3.001 2.143m-106.271 6.641c.716-.714 1.645-1.107 2.787-1.178.713 0 1.749-.071 3.104-.214m2.573 16.39h7.179m25.602-145.479c.857.429 2.357.644 4.5.644m34.816 24.852h2.679m-13.178-18.211v.536c.429 0 1.106-.071 2.036-.213.857-.214 1.5-.322 1.929-.322m32.029 1.928c.287 0 .645.106 1.071.321.573.215 1.109.321 1.607.321.715 0 1.286-.143 1.716-.429.142-.071.427-.357.855-.857m-20.247 48.529h1.93m6.534 12.427c.5.428 1.607.643 3.32.643m5.25 28.174h2.036m-58.384 7.178c1.143-.428 2.643-.643 4.499-.643m16.497-13.07h4.607m-10.928 22.391c2.5.785 4.787 1.178 6.856 1.178 2.071 0 4.643-.465 7.715-1.393 2.998-.857 5.39-1.286 7.176-1.286 1.501 0 3.144.356 4.928 1.071 1.785.642 3.214.964 4.285.964.858 0 2.358-.322 4.501-.964 2.213-.715 3.533-1.071 3.963-1.071.642 0 1.142.142 1.5.429.213.213.462.536.749.963m-67.596 11.143h3.32m23.675 24.318h3.965m2.571-12.428c.855.429 2.356.643 4.499.643m37.388 10.391c.286.287.784.536 1.5.75.427.144 1.284.357 2.569.644M479.153 338.647c0 .358-.215.536-.644.536.573 1.571 1.18 2.678 1.822 3.32h2.678c0-.143.143-.394.429-.749.143-.357.214-.857.214-1.5 0-1.145-.429-2.107-1.285-2.894h-2.571c-.073.215-.073.893 0 2.035 0 .787-.216.538-.643-.748zm-53.135 63.419c7.284-5.141 11.426-8.177 12.426-9.106v1.93m36.638-1.178c.787.355 1.607.962 2.465 1.82.643.786.963 1.284.963 1.5l.321.106c.214.143.322.322.322.536h1.179v-5.999c-.073 0-.394-.106-.965-.322-.429-.214-.965-.32-1.607-.32-.715 0-1.142.178-1.284.536-.288.713-.751 1.427-1.394 2.143zm-24.853 27.637c0 .358-.215.536-.643.536 0 .429.428 1.287 1.286 2.571.927-1 1.429-1.536 1.5-1.606.355-.571.498-1.358.427-2.356h-1.927v1.178c0 .355-.215.248-.643-.323zm267.389-221.003h5.25m6.534 28.816h3.427m-48.527-33.422h4.499c1.571.786 3.427 2.036 5.569 3.75 1.858 1.143 3.716 1.213 5.572.214m-11.784 11.14h4.605m-14.461 18.963c1.357.714 2.678.714 3.965 0m20.889 17.032h4.714m-36.639.644c.857 1.213 1.965 2.249 3.32 3.104 2.285 1.573 5.214 2.607 8.786 3.107 1.643.215 3.463.322 5.463.322 0 3.927.213 6.534.643 7.818-.143 0-.463.143-.965.43a.73.73 0 0 0-.536.215 5.456 5.456 0 0 1-1.071.107c0 1.142-.535 3.392-1.606 6.747a72.774 72.774 0 0 0-1.178 4.285c-.287 1.143-.429 2.036-.429 2.679 0 .502.215 1.749.644 3.749.427 2 .643 3.285.643 3.858 0 1.285-.464 3.034-1.394 5.247-.855 2.214-1.284 3.607-1.284 4.179 0 .929.357 2.287 1.071 4.072.642 1.784.964 2.855.964 3.213 0 .43-.464 1.501-1.394 3.214-.857 1.785-1.284 3.107-1.284 3.963 0 .287.033.571.106.858.214.927.822 1.678 1.82 2.249 1.287.787 1.93 2.465 1.93 5.034 0 2-.287 3.571-.858 4.714-.643 1.287-.964 2.32-.964 3.107 0 1.355.644 3.106 1.929 5.249.143.214.284.392.429.536v.214c0 .072.036.144.106.215.93 1.856 1.394 3.856 1.394 5.999 0 1.643-.322 3.069-.964 4.285-.714 1.284-1.071 2.463-1.071 3.534 0 2 .106 3.213.319 3.643.287.857 1.287 1.855 3.001 3m25.497-62.131h2.678m15.212-26.353c1 .213 1.891.178 2.678-.109 0-.07.571-.464 1.714-1.178m-27.425 62.24h3.213m19.82-8.569h3.214m-44.673 6.643h2.034m-5.892 36.636c.645.643 1.501 1.894 2.572 3.749 1.357 2.358 2.035 4.144 2.035 5.356 0 1.287-.964 3.287-2.892 5.999-2.071 2.787-3.106 4.428-3.106 4.93 0 .355.142.713.429 1.071.213.355.535.643.962.855.787.358 1.038 1.287.752 2.785m28.708-26.671c.43 0 1.287.427 2.572 1.284m19.712 13.714h3.32c0-.503.464-1.143 1.394-1.93M587.888 200.989c.427.357 1.104.536 2.034.536m2.571 53.135c.145 0 .5-.071 1.071-.214.571-.287 1.106-.429 1.606-.429m28.818 26.889c1.572 0 2.963.429 4.179 1.284 1.214.929 2.43 1.394 3.643 1.394-.215.5-.464.892-.751 1.178v.107a1.68 1.68 0 0 1-.643.429c-.213.145-.642.215-1.284.215-.929 0-1.787-.464-2.571-1.394-.93-1.07-1.571-1.713-1.93-1.929h-1.284v1.394m9.105 1.929h7.283c0 .427.394.643 1.181.643-.358.429-.645.785-.858 1.071-.355.358-.857.463-1.5.32m-20.568-40.064h7.283m-68.881-41.245c.43 0 1.036.215 1.82.644.858.428 1.571.643 2.143.643.5 0 1.179-.107 2.036-.321.857-.286 1.5-.429 1.929-.429h.643v-1.178c-1.714-.429-3.249-.644-4.607-.644m-33.96 28.068c.071 0 .643-.108 1.714-.322.571 0 1 .071 1.284.214m-28.066 34.066c2.93-.716 5.785-1.285 8.57-1.714v2.571c-.643.498-1.536 1.071-2.679 1.714-1.642 1.071-2.82 1.606-3.535 1.606-.569 0-1.071-.144-1.499-.429-.357-.213-.644-.322-.857-.322v-1.927c.571 0 1.251.429 2.036 1.284m54.529-14.889l1.82 3.107h1.929c0-1.285.249-1.928.749-1.928v-3.213h-2.678m6.534 50.992c-.5.43-1.143 1.107-1.928 2.036.428.498 1.143 1 2.143 1.498.498.216 1.285.573 2.356 1.071v-4.605h-2.571zm5.892 29.567h5.25c0 .355.142.678.429.964.214.214.5.32.855.32v.645c-.929-.216-2.214.033-3.855.749-1.928.858-3.141 1.285-3.644 1.285-4.998 0-8.428-.679-10.283-2.034m-30.745-34.602v-2.143c-.145-.214-.535-.355-1.178-.429-.645-.143-1.5-.214-2.571-.214.213.357 1.035 1.285 2.463 2.785h1.286zm-29.247 18.211c.713-.284 1.249-.213 1.606.214.43.645.714 1 .858 1.071h3.214v-3.32c-1.93-.998-3.214-1.43-3.856-1.285m-2.035 20.354c1.285.429 2.605 1.106 3.963 2.036v-2.679c-2.143-1.573-3.892-2.214-5.249-1.929m34.708 41.886c-.286-.286-.784-.429-1.5-.429-.714 0-1.071.143-1.071.429 0 .929.429 1.785 1.287 2.571h1.284v-2.571zm-24.21-5.891c0-.287-.106-.463-.322-.536l-.32-.106v-2.036m.642 2.678c.071-.358.213-.749.429-1.178.287-.571.571-.858.855-.858v2.036h-1.284zm6.535 32.78h2.679m-2.679.644c1.287 0 1.93.427 1.93 1.284h2.678v-3.963h-2.678c-.358.569-1.001 1.25-1.93 2.034m0 .645c-.643 0-1.035.143-1.178.427-.071.071-.106.357-.106.857m60.419-29.566c.427.071 1.033.106 1.82.106l.106-.213c.073-.287.249-.429.536-.429-.071-.858-.463-1.465-1.179-1.822-.857-.214-1.5-.465-1.929-.75m-38.777-19.71c.284.286.571.535.857.751 0-.143.034-.251.107-.322.213-.571.319-.929.319-1.071h1.394v2.571c-.284-.145-.749-.429-1.394-.857a1.717 1.717 0 0 1-.427-.32c-.142.427-.215.82-.215 1.178m102.843 26.994c1.5-.143 2.643-.606 3.43-1.392.784-.857 1.391-1.286 1.82-1.286.429 0 1.891.642 4.392 1.929 2.5 1.285 4.071 1.927 4.714 1.927.787 0 2.249.252 4.392.752 2.143.429 3.75.642 4.821.642m-97.594 32.78h3.214l-.858-2.036c-.355-.855-1.142-1.285-2.355-1.285v3.321zm164.547-8.57c.857-.214 2.178-.32 3.965-.32 1.569 0 2.82-.109 3.75-.322m-27.427-3.321c1.573.571 2.465.894 2.679.964.929.214 1.786.32 2.571.32 0-.855.429-1.713 1.286-2.571m-5.248 18.32c4.714.855 9.105.855 13.175 0"/></g><g><path fill="none" stroke="#242424" stroke-linecap="round" stroke-linejoin="round" d="M175.876 431.741l-24.639-1.606 1.286-412.226m343.663 0c1 7.355.894 15.069-.32 23.139L491.9 60.117l-8.142 21.639c-7.212 9.07-10.497 14.749-9.854 17.034l16.389 4.606h12.855l14.678 3.964 4.285 4.606 4.498-13.819-24.532-6.963 24.532 2.678v-3.964l3.644-8.463 1.929-6.855a683.004 683.004 0 0 0-.645-24.318 130.71 130.71 0 0 0-1.284-12.855h-15.32m15.642 44.028l1.606-6.855m9.214-24.212l-9.857-.107m-1.285-12.855l-1.394-19.498m.536 89.559l1.607-9.642-.427-16.39m-3.966 12.427v4.285m-.428 11.034h.858c.355 1.786.535 3.106.535 3.964m-5.463-1.179v23.568l5.569-18.318 1.714-9.749 12 .429m-19.283 4.07l-4.607 16.712-3.963 9.748h-5.143l4.178 6.963-1.284.856c.143 1.071.535 2.286 1.178 3.643v10.498h-.643c.143-.786.034-1.357-.322-1.713l-1.071-.965m7.286-19.603c0 .643.427 2.393 1.284 5.249m-39.208 108.521l8.248-7.605 6.214-16.714 11.784-25.174 6.534-19.391v-10.713l5.679-12.533v-12.106l3.856-5.249v-6.856m-10.928 9.749c0 .286.038.607.109.963l-2.358 1.393-4.82 15.105-10.284 15.426-4.498 14.462-9.535 14.998v12.427c.287 1.786.463 3.571.536 5.355.642 8.286.462 17.106-.536 26.462v5.892l-6.75 14.782v3.323m28.924-99.843c0 1.571.464 4.893 1.394 9.964h.642m-64.17-27.211l11.142-20.033 10.819-11.999 7.179-14.783 8.57-8.57h12.746m-74.024 92.129l9.856-17.033 11.569-16.498 2.143-3.214m45.744 44.352h.643c.429 2.5.643 6.82.643 12.962m-7.071-8.464l-9.212 2.25 9.212 10.177-9.856-6.535-35.672-5.249H408.77a3355.193 3355.193 0 0 0-17.461 22.496 13600.15 13600.15 0 0 1-20.354 26.675c-.5.714-2.57 3.071-6.213 7.07-3.643 4.071-5.821 6.536-6.534 7.392-6.928 9.142-10.963 14.785-12.106 16.928-.643 1.143-4.499 5.534-11.569 13.175-.928 1-1.822 2.001-2.678 3.001l-5.999 7.712c-1.357 1.929-2.286 3.607-2.786 5.036-.786 2.356-2.285 4.821-4.499 7.393-4 4.498-6.321 7.177-6.963 8.034-6.356 8.428-10.392 13.425-12.106 14.998-4.784 4.285-9.641 9.783-14.568 16.496a2346.824 2346.824 0 0 0-11.355 15.319c-2.928 3.644-6.928 8.821-11.998 15.534-5 6.783-8.642 11.57-10.927 14.355-2.072 2.571-5.356 6.82-9.856 12.748-3.143 3.999-5.392 7.034-6.749 9.105m236.535-221.859l-21.534-3.857-19.712-4.606h-13.712l.642-5.892 9.856 5.892m-17.782 6.856h.428m63.098 40.494c0 3.071.214 7.57.643 13.498 0 1.071.106 2.965.322 5.678a48.88 48.88 0 0 1 .213 4.605l-.749 1.607v14.355l-10.605 18.747a8.56 8.56 0 0 1-.322 1.287l-1.285 3.962m5.143-48.528c.071.216.355 1.716.855 4.501.429 2.643.857 4.605 1.287 5.892m-11.249 19.603h-.645v15.106m4.608-24.212c0 3.429.107 6.107.322 8.034.143 1.858.214 3.787.214 5.785 0 .429.251 1.32.749 2.679.429 1.357.645 2.32.645 2.894 0 .929-.109 1.927-.322 2.998l-15.319 29.46-9.535 12.855-9.748 23.89-8.892 16.712-8.57 25.817-10.713 15.748m80.881-211.683l-10.819 26.781-14.355 31.176a1707.049 1707.049 0 0 1-20.462 43.493c.786 2.571 1.965 6.249 3.535 11.032.929 2.645 1.394 5.75 1.394 9.321m-13.821 14.463v.642c-.429 4.785-.643 10.927-.643 18.425m-2.035-28.28c0 1.071.106 2.678.321 4.82.214 3.285.571 5.428 1.071 6.428.285-.502.5-.822.643-.965.143-.286.357-.429.643-.429m8.891-35.457c-13.07 26.781-26.996 53.599-41.779 80.451l-19.711 29.782m-140.659 0v-.535m166.369-.858c.571-2.927.286-6.285-.858-10.07-.999-3.213-2.464-6.392-4.392-9.534m101.665-211.79c0 .071.035.321.106.75.071 1.213.394 4.071.965 8.57.429 4 .249 7.249-.536 9.748"/></g><g><path fill="none" stroke="gray" stroke-linecap="round" stroke-linejoin="round" d="M537.751 56.903l107.234.643m-107.234 3.428h108.841m4.501 3.964l-113.342.321m0 14.141l121.803-.536m3.323 5.57H537.751m0-14.783l116.02-.214m2.678 4.285l-118.698.214m0 20.89l131.873.75m3.107 5.142l-134.98-.963m128.34-10.071l-128.34.214"/></g></svg>