<svg xmlns="http://www.w3.org/2000/svg" viewBox="0 0 112 147.85"><path fill-rule="evenodd" d="M24.4-64l5.65 10.45-20 10.25-1.9 1.05L5.6-47l1.9-1.05-2.9-5.3L24.4-64" fill="url(#gradient0)" transform="translate(-3.6 74.8)"/><path fill-rule="evenodd" d="M30.05-53.55L24.4-64l-3.05-5.7q3.35-3.7 7.6-4.1l21.1 39.15-7.6 4.1-1.8-3.4-1.75-3.25-5.45-10.1-3.4-6.25" fill="url(#gradient1)" transform="translate(-3.6 74.8)"/><path fill-rule="evenodd" d="M33.45-47.3l5.45 10.1-18.45 9.95-2.7-4.95-3.25 1.75-2.75-5.15 1.9-1.05 19.8-10.65" fill="url(#gradient2)" transform="translate(-3.6 74.8)"/><path fill-rule="evenodd" d="M35.3 37.6l1.75 3.25-.8.4-20.9 11.3-1.75-3.25 3.25-1.75L35.3 37.6" fill="#797979"/><path fill-rule="evenodd" d="M30.05-53.55l3.4 6.25-19.8 10.65-3.6-6.65 20-10.25" fill="url(#gradient3)" transform="translate(-3.6 74.8)"/><path fill-rule="evenodd" d="M42.45-30.55l7.6-4.1 1.9-1.05 2.1 3.85-1.9 1.05-7.6 4.1-1.9 1-2.1-3.85 1.9-1" fill="url(#gradient4)" transform="translate(-3.6 74.8)"/><path fill-rule="evenodd" d="M44.55-26.7l7.6-4.1L88.7 36.95l-7.6 4.1L44.55-26.7" fill="url(#gradient5)" transform="translate(-3.6 74.8)"/><path fill-rule="evenodd" d="M88.7 36.95l4.75-2.6q5.05-2.7 10.6-.75 5.65 1.95 8.55 7.35 2.95 5.5 1.5 11.25t-6.5 8.45q-8.7 5.6-18.2 9.85-5.05 2.7-10.6.75-5.65-1.95-8.6-7.45-2.9-5.4-1.45-11.15t6.5-8.45l5.85-3.15 7.6-4.1M106.85 44q-1.85-3.4-5.7-4.3-3.9-1-7.6 1L80.2 47.9q-3.7 2-4.95 5.75-1.4 3.75.45 7.15 1.85 3.45 5.75 4.35Q85.3 66.2 89 64.2q7.05-2.95 13.35-7.2 3.7-2 5-5.8 1.35-3.75-.5-7.2" fill="url(#gradient6)" transform="translate(-3.6 74.8)"/><path stroke-linejoin="round" d="M20.8 10.8l5.65 10.45 3.4 6.25 5.45 10.1 1.75 3.25 1.8 3.4 7.6-4.1L25.35 1q-4.25.4-7.6 4.1l3.05 5.7L1 21.45l2.9 5.3L2 27.8l2.55 4.75 1.9-1.05 20-10.25M35.3 37.6l-18.45 9.95-3.25 1.75 1.75 3.25 20.9-11.3M6.45 31.5l3.6 6.65 19.8-10.65m-19.8 10.65l-1.9 1.05 2.75 5.15 3.25-1.75 2.7 4.95m22-3.3l-1.9 1 2.1 3.85 1.9-1 7.6-4.1 1.9-1.05-2.1-3.85-1.9 1.05m31.05 75.7L71.65 119q-5.05 2.7-6.5 8.45t1.45 11.15q2.95 5.5 8.6 7.45 5.55 1.95 10.6-.75 9.5-4.25 18.2-9.85 5.05-2.7 6.5-8.45t-1.5-11.25q-2.9-5.4-8.55-7.35-5.55-1.95-10.6.75l-4.75 2.6-7.6 4.1L40.95 48.1m62.3 70.7q1.85 3.45.5 7.2-1.3 3.8-5 5.8-6.3 4.25-13.35 7.2-3.7 2-7.55.95-3.9-.9-5.75-4.35-1.85-3.4-.45-7.15 1.25-3.75 4.95-5.75l13.35-7.2q3.7-2 7.6-1 3.85.9 5.7 4.3m-18.15-7.05L48.55 44" stroke="#000" stroke-linecap="round" stroke-width="2" fill="none"/><defs id="defs4322"><linearGradient id="gradient0" gradientUnits="userSpaceOnUse" gradientTransform="matrix(-.0034 -.0064 -.0132 .0071 13.95 -53.65)" x2="819.2" x1="-819.2"><stop id="stop4325" stop-color="#666" offset=".004"/><stop id="stop4327" stop-color="#a4a4a4" offset=".69"/><stop id="stop4329" stop-color="#666" offset="1"/></linearGradient><linearGradient id="gradient1" gradientUnits="userSpaceOnUse" gradientTransform="matrix(.0043 -.0023 -.0025 -.0046 35.35 -52.5)" x2="819.2" x1="-819.2"><stop id="stop4332" stop-color="#666" offset=".004"/><stop id="stop4334" stop-color="#a4a4a4" offset=".69"/><stop id="stop4336" stop-color="#666" offset="1"/></linearGradient><linearGradient id="gradient2" gradientUnits="userSpaceOnUse" gradientTransform="matrix(-.0069 -.0127 -.0132 .0071 22.6 -40.45)" x2="819.2" x1="-819.2"><stop id="stop4339" stop-color="#666" offset=".004"/><stop id="stop4341" stop-color="#a4a4a4" offset=".69"/><stop id="stop4343" stop-color="#666" offset="1"/></linearGradient><linearGradient id="gradient3" gradientUnits="userSpaceOnUse" gradientTransform="matrix(-.0059 -.0109 -.0121 .0065 21.2 -53.5)" x2="819.2" x1="-819.2"><stop id="stop4346" stop-color="#666" offset=".004"/><stop id="stop4348" stop-color="#a4a4a4" offset=".69"/><stop id="stop4350" stop-color="#666" offset="1"/></linearGradient><linearGradient id="gradient4" gradientUnits="userSpaceOnUse" gradientTransform="matrix(.0071 -.0038 -.0037 -.007 47.3 -30.65)" x2="819.2" x1="-819.2"><stop id="stop4353" stop-color="#666" offset=".004"/><stop id="stop4355" stop-color="#a4a4a4" offset=".69"/><stop id="stop4357" stop-color="#666" offset="1"/></linearGradient><linearGradient id="gradient5" gradientUnits="userSpaceOnUse" gradientTransform="matrix(.0055 -.003 -.0025 -.0046 66.6 5.1)" x2="819.2" x1="-819.2"><stop id="stop4360" stop-color="#666" offset=".004"/><stop id="stop4362" stop-color="#a4a4a4" offset=".69"/><stop id="stop4364" stop-color="#666" offset="1"/></linearGradient><linearGradient id="gradient6" gradientUnits="userSpaceOnUse" gradientTransform="matrix(-.0087 -.0161 -.0259 .014 91.45 52.4)" x2="819.2" x1="-819.2"><stop id="stop4367" stop-color="#666" offset=".004"/><stop id="stop4369" stop-color="#a4a4a4" offset=".69"/><stop id="stop4371" stop-color="#666" offset="1"/></linearGradient></defs></svg>