<?xml version="1.0" encoding="utf-8"?>
<!-- Generator: Adobe Illustrator 16.0.0, SVG Export Plug-In . SVG Version: 6.00 Build 0)  -->
<!DOCTYPE svg PUBLIC "-//W3C//DTD SVG 1.1//EN" "http://www.w3.org/Graphics/SVG/1.1/DTD/svg11.dtd">
<svg version="1.1" id="Layer_1" xmlns="http://www.w3.org/2000/svg" xmlns:xlink="http://www.w3.org/1999/xlink" x="0px" y="0px"
	 width="900px" height="450px" viewBox="0 0 900 450" enable-background="new 0 0 900 450" xml:space="preserve">
<g transform="matrix( 1, 0, 0, 1, 0,0) ">
	<g>
		<g id="Layer0_0_FILL">
			
				<linearGradient id="SVGID_1_" gradientUnits="userSpaceOnUse" x1="636.6162" y1="28.3896" x2="321.6116" y2="38.9564" gradientTransform="matrix(1 0 0 -1 29.04 379.3398)">
				<stop  offset="0" style="stop-color:#7C1010"/>
				<stop  offset="1" style="stop-color:#4B0A0A"/>
			</linearGradient>
			<path fill="url(#SVGID_1_)" d="M576.789,376.046c-0.614-0.821-1.264-1.606-1.949-2.36c-6.155,23.051-13.714,44.32-22.672,63.813
				l53.449-0.103C597.273,416.878,587.664,396.428,576.789,376.046 M424.954,247.498l-4,6.155v0.104
				c0.41,0.958,0.992,1.948,1.744,2.974c14.772,12.792,30.23,22.125,46.37,28.009c6.978,3.831,10.534,8.548,10.67,14.158
				l-1.334,17.132l-22.774,30.88c-17.852,29.408-33.548,59.675-47.09,90.793l85.664-0.103h0.103
				c19.288-30.162,34.096-65.009,44.423-104.541c-6.292-6.43-12.79-12.857-19.492-19.286c-1.23-1.162-2.564-2.395-4.002-3.694
				c-5.744-4.581-7.762-11.388-6.053-20.414c7.523-2.873,11.594-5.917,12.209-9.131l-2.053-3.387
				c-2.188,0.07-5.847,2.259-10.976,6.566c-5.2,5.13-7.388,10.432-6.566,15.901c-0.89,0.547-1.88,0.958-2.976,1.23
				c-3.146,0.617-7.079,0.036-11.798-1.743c-0.411-12.447-2.908-19.32-7.488-20.62c-27.836-8.823-45.996-19.082-54.477-30.777
				C425.058,247.635,425.023,247.566,424.954,247.498z"/>
			<path fill="#544BC2" d="M539.755,334.188c-0.341-0.408-0.686-0.785-1.026-1.128c-10.327,39.532-25.135,74.379-44.423,104.541
				l57.862-0.102c8.958-19.493,16.517-40.763,22.672-63.813C564.104,360.349,552.406,347.185,539.755,334.188z"/>
			
				<linearGradient id="SVGID_2_" gradientUnits="userSpaceOnUse" x1="661.5713" y1="12.2666" x2="483.7303" y2="18.2168" gradientTransform="matrix(1 0 0 -1 29.04 379.3398)">
				<stop  offset="0" style="stop-color:#D5D5D5"/>
				<stop  offset="1" style="stop-color:#FFFFFF"/>
			</linearGradient>
			<path fill="url(#SVGID_2_)" d="M519.236,313.773c6.702,6.429,13.2,12.856,19.492,19.286c0.341,0.343,0.686,0.72,1.026,1.128
				c12.651,12.997,24.349,26.161,35.085,39.498c0.686,0.754,1.335,1.539,1.949,2.36c10.875,20.382,20.484,40.832,28.828,61.351
				l53.041-0.206c-9.233-31.393-19.458-63.162-30.675-95.308c-22.981-20.519-54.614-38.266-94.897-53.244
				c-0.547,2.598-1.334,5.162-2.36,7.694C528.265,302.146,524.434,307.959,519.236,313.773z"/>
			
				<linearGradient id="SVGID_3_" gradientUnits="userSpaceOnUse" x1="503.4004" y1="83.3013" x2="479.4447" y2="84.122" gradientTransform="matrix(1 0 0 -1 29.04 379.3398)">
				<stop  offset="0" style="stop-color:#D5D5D5"/>
				<stop  offset="1" style="stop-color:#FFFFFF"/>
			</linearGradient>
			<path fill="url(#SVGID_3_)" d="M520.877,277.456c0.479,1.026,0.651,2.052,0.514,3.078c-0.615,3.214-4.686,6.258-12.209,9.131
				c-1.709,9.026,0.309,15.833,6.053,20.414c1.438,1.3,2.771,2.532,4.002,3.694c5.197-5.814,9.028-11.627,11.489-17.44
				c1.026-2.532,1.813-5.097,2.36-7.694L520.877,277.456z"/>
			
				<linearGradient id="SVGID_4_" gradientUnits="userSpaceOnUse" x1="443.4619" y1="18.7612" x2="195.4473" y2="27.1223" gradientTransform="matrix(1 0 0 -1 29.04 379.3398)">
				<stop  offset="0" style="stop-color:#D5D5D5"/>
				<stop  offset="1" style="stop-color:#FFFFFF"/>
			</linearGradient>
			<path fill="url(#SVGID_4_)" d="M403,272.941c-20.929,2.12-43.567,7.318-67.916,15.594c-14.842,8.824-26.947,18.57-36.318,29.238
				c-18.535,31.53-34.642,63.197-48.32,95.001l-8.105,25.339l166.198-0.41c13.542-31.118,29.239-61.385,47.09-90.793l22.774-30.88
				c-25.784-4.444-49.894-17.749-72.326-39.908C405.052,275.027,404.026,273.968,403,272.941z"/>
			
				<linearGradient id="SVGID_5_" gradientUnits="userSpaceOnUse" x1="452.0527" y1="96.0337" x2="373.6234" y2="98.5984" gradientTransform="matrix(1 0 0 -1 29.04 379.3398)">
				<stop  offset="0" style="stop-color:#D5D5D5"/>
				<stop  offset="1" style="stop-color:#FFFFFF"/>
			</linearGradient>
			<path fill="url(#SVGID_5_)" d="M420.954,253.653c-0.752-1.845-0.787-3.554-0.104-5.129L403,272.941
				c1.026,1.026,2.052,2.086,3.078,3.181c22.433,22.159,46.542,35.464,72.326,39.908l1.334-17.132
				c-0.136-5.61-3.692-10.327-10.67-14.158c-16.14-5.884-31.598-15.217-46.37-28.009c-0.752-1.025-1.334-2.016-1.744-2.974V253.653z
				"/>
			<path fill="#E39975" fill-opacity="0.3922" d="M449.474,159.167h0.102c0.206-0.204,0.548-0.649,1.026-1.333
				c-0.204,0.273-0.41,0.479-0.615,0.616C449.782,158.655,449.611,158.894,449.474,159.167 M523.853,150.243
				c2.052,0.068,4.48,0.581,7.284,1.539c2.667,0.751,5.199,1.162,7.592,1.23c1.641,0.069,2.701-0.205,3.18-0.821
				c0.207-0.273,0.309-0.581,0.309-0.922c0-0.138,0-0.24,0-0.309c-0.615-0.205-1.3-0.41-2.052-0.615
				c-2.803-0.89-5.643-1.641-8.516-2.257c-3.282-0.684-6.599-1.299-9.95-1.847c-4.311-0.615-8.687-1.06-13.133-1.333
				c-4.033-0.274-8.138-0.342-12.312-0.206c-5.948,0.273-11.968,0.854-18.056,1.744c-5.129,0.889-10.259,2.052-15.389,3.488
				c-2.188,0.547-4.344,1.163-6.464,1.847c-1.298,0.751-2.29,1.299-2.974,1.641c8.616-0.958,14.327-1.675,17.132-2.154
				c2.737-0.685,8.071-1.471,16.004-2.361c8.755-1.094,14.501-1.607,17.236-1.539c3.421,0.137,7.352,0.582,11.798,1.334
				C520.467,149.73,523.237,150.243,523.853,150.243z"/>
			<path fill="#E39975" fill-opacity="0.4902" d="M451.219,157.014l-0.104,0.102v0.103l-0.205,0.103
				c-0.137,0.205-0.239,0.376-0.309,0.513c-0.478,0.685-0.82,1.129-1.026,1.333c-0.615,0.958-0.683,1.437-0.204,1.437l2.871-4.822
				C451.971,156.124,451.628,156.535,451.219,157.014 M525.289,267.914c-0.342-0.888-0.89-1.332-1.641-1.332
				c-0.686-0.068-1.575,0.513-2.669,1.743c-1.162,1.094-2.393,1.471-3.693,1.128c-1.3-0.274-2.153-0.547-2.564-0.819
				c-0.684-0.274-1.301-0.445-1.846-0.513c-1.162,0-2.428,0.136-3.797,0.408c-1.3,0.411-2.052,0.617-2.256,0.617
				c-0.752,0-3.112-1.232-7.079-3.694c-2.806-1.571-4.309-1.196-4.515,1.13c-0.068,1.641,1.709,3.282,5.336,4.923
				c3.555,1.505,6.839,2.326,9.849,2.463c3.146,0,6.053-0.479,8.72-1.437c2.667-0.888,4.343-1.846,5.027-2.872
				C524.913,268.702,525.289,268.121,525.289,267.914 M522.416,269.659c-6.292,3.419-14.054,2.872-23.287-1.643
				C508.362,272.531,516.124,273.078,522.416,269.659 M525.803,252.937c0.547-0.068,1.025-0.309,1.437-0.718
				c0.341-0.48,0.513-0.855,0.513-1.13c0.137-1.503-1.471-2.597-4.823-3.282c-2.326-0.41-3.933-0.24-4.82,0.514
				c-0.684-0.479-1.505-0.718-2.463-0.718c-0.753-0.068-1.642-0.274-2.667-0.617c-0.684-0.272-1.096,0.24-1.232,1.539
				c0.068,0.48,0.068,0.89,0,1.232C516.467,249.414,521.151,250.474,525.803,252.937z"/>
			<path fill="#77422B" d="M438.6,158.552c-3.42,1.505-6.806,3.044-10.157,4.617c-2.599,1.368-5.232,2.77-7.9,4.206
				c-2.12,1.231-4.479,2.086-7.078,2.564l1.743,9.542l0.104,0.717c1.846-4.308,5.403-6.394,10.669-6.258
				c3.899,0.206,7.524,2.736,10.875,7.592c3.693,14.157,5.164,16.585,4.411,7.284c-0.547-9.438-0.137-16.038,1.231-19.8
				c1.368-4.036,3.659-6.84,6.874-8.413c-0.479,0-0.411-0.479,0.204-1.437h-0.102c0.137-0.273,0.308-0.513,0.513-0.717
				c0.205-0.137,0.411-0.343,0.615-0.616c0.069-0.136,0.171-0.308,0.309-0.513l0.205-0.103v-0.103l0.104-0.102
				c0.409-0.479,0.752-0.89,1.024-1.231v-0.206c0.549-0.82,0.924-1.539,1.13-2.154c0.684-0.342,1.676-0.89,2.974-1.641
				c-1.57,0.479-3.146,1.026-4.719,1.641C447.32,154.928,442.977,156.637,438.6,158.552z"/>
			<path fill="#990000" d="M416.542,104.692c-2.6,1.573-4.583,4.617-5.951,9.131l5.335,9.848l1.231-13.439L416.542,104.692
				 M415.414,99.255c-1.641-2.325-4.104-4.445-7.387-6.361l-0.821,4.411C409.942,98.742,412.679,99.391,415.414,99.255
				 M422.595,82.43c0,0.205,0.034,0.411,0.104,0.616c0.204,0.068,0.41,0.103,0.615,0.103c-1.3,4.377-1.573,9.097-0.821,14.157
				c3.693-1.573,6.361-4.685,8.002-9.335l4.104,15.696c-3.009-1.026-5.848-1.402-8.515-1.128l0.718,4.206
				c10.737,8.618,19.492,7.215,26.263-4.206l2.976-6.772c-0.206-2.325-1.264-3.453-3.18-3.385c-0.617,0.479-2.087,3.249-4.412,8.31
				c-5.608-5.129-7.626-10.122-6.053-14.978c3.899-3.898,7.763-4.548,11.593-1.95l0.819-5.333c-0.067-2.327,0.822-4.343,2.669-6.054
				l-4.925-2.975c-12.311,1.573-22.57,4.788-30.777,9.644C421.843,80.344,422.116,81.473,422.595,82.43 M468.864,26.209
				c-0.479-0.479-1.06-0.718-1.745-0.718c-0.752-0.068-1.402,0.103-1.948,0.513c-0.549,0.547-0.89,1.197-1.025,1.95
				c0,0.752,0.238,1.367,0.718,1.846c0.41,0.547,0.991,0.854,1.743,0.924c0.685,0,1.334-0.24,1.949-0.718
				c0.615-0.479,0.924-1.094,0.924-1.847C469.548,27.407,469.343,26.757,468.864,26.209 M448.038,124.595
				c-0.752-0.616-1.436-0.89-2.052-0.822c-0.547,0.137-0.991,0.616-1.333,1.437c-0.41,0.615-0.615,1.437-0.615,2.462
				c0.341,1.162,0.718,2.018,1.128,2.565c0.547,0.683,1.094,0.922,1.642,0.717c0.683,0.069,1.265-0.376,1.743-1.333
				c0.206-0.821,0.273-1.641,0.206-2.462C448.688,126.065,448.448,125.21,448.038,124.595 M486.92,117.311c-0.068,0-0.137,0-0.204,0
				l-0.207-0.102h-0.102c-0.547,0.068-1.026,0.375-1.437,0.922c-0.548,0.616-0.856,1.403-0.924,2.36
				c0,0.068-0.032,0.137-0.103,0.205c0.139,1.026,0.479,1.813,1.026,2.36c0.342,0.547,0.821,0.787,1.437,0.717
				c0.41,0,0.717-0.068,0.924-0.204c0.41-0.137,0.683-0.343,0.819-0.616c0.068-0.068,0.104-0.136,0.104-0.206
				c0.068-0.136,0.171-0.273,0.307-0.41c0.07-0.273,0.103-0.547,0.103-0.82c0.137-0.343,0.206-0.752,0.206-1.231
				c0-1.026-0.238-1.778-0.719-2.257C487.81,117.618,487.398,117.379,486.92,117.311 M523.955,122.338
				c0.615-0.479,0.958-1.06,1.025-1.744c0-0.752-0.204-1.437-0.615-2.052c-0.41-0.342-0.957-0.513-1.641-0.513
				c-0.684-0.068-1.265,0.102-1.745,0.513c-0.684,0.479-1.026,1.128-1.026,1.949c-0.067,0.684,0.137,1.265,0.617,1.744
				c0.478,0.411,1.059,0.65,1.743,0.718C522.999,122.953,523.544,122.748,523.955,122.338 M510.927,73.504l-4.104,7.387
				c3.625,0.89,7.352-0.273,11.183-3.487l-1.232,15.389c-2.599-3.831-5.3-5.712-8.105-5.643v5.437
				c5.062,10.669,10.909,12.55,17.545,5.643l3.486-9.336c-1.845-0.751-3.967,0.445-6.359,3.591c0.341-2.941-0.445-6.394-2.36-10.361
				c2.669,0,5.13-0.992,7.388-2.976c1.026-1.436,1.846-2.838,2.463-4.206c-3.353-4.104-8.618-6.908-15.8-8.413
				C514.141,69.469,512.772,71.794,510.927,73.504 M495.229,72.889l0.103-6.463c-5.813,0-11.456,0.375-16.928,1.128
				c-0.684,0.684-1.435,1.368-2.257,2.052c-5.266,3.419-11.284,4.445-18.056,3.078c1.505,0.342,2.633,1.333,3.385,2.976l2.771,5.13
				c3.829-2.942,7.011-3.898,9.539-2.873c3.078,6.429,2.701,11.695-1.128,15.798c-4.104-4.788-6.325-4.822-6.668-0.102l2.873,5.129
				c11.56,8.549,21.374,6.703,29.442-5.54c1.777-6.908-1.845-7.01-10.874-0.308l-1.539-16.517c3.557,3.009,7.661,4.753,12.312,5.232
				L495.229,72.889 M412.336,76.787c-0.273-1.094-0.718-2.018-1.333-2.771c-0.821-0.615-1.573-0.786-2.257-0.513
				c-0.82,0.274-1.401,0.89-1.744,1.847c-0.136,0.957-0.136,1.949,0,2.975c0.343,1.026,0.821,1.88,1.437,2.565
				c0.752,0.616,1.573,0.854,2.463,0.718c0.683-0.273,1.23-0.958,1.641-2.052C412.679,78.667,412.609,77.745,412.336,76.787
				 M411.721,102.742c-0.273-0.273-0.616-0.444-1.026-0.513c-0.479,0-0.924,0.137-1.333,0.411c-0.343,0.342-0.513,0.752-0.513,1.231
				c0,0.479,0.103,0.854,0.308,1.128c0.273,0.411,0.649,0.616,1.128,0.616c0.479,0,0.89-0.171,1.231-0.513
				c0.342-0.274,0.513-0.65,0.513-1.129S411.926,103.085,411.721,102.742 M422.082,102.333c0-0.616-0.136-1.163-0.41-1.642
				c-0.411-0.547-0.958-0.82-1.642-0.82c-0.615,0-1.128,0.205-1.539,0.616c-0.547,0.479-0.82,1.026-0.82,1.641
				c-0.068,0.615,0.068,1.128,0.411,1.539c0.478,0.479,1.026,0.718,1.641,0.718c0.684,0,1.231-0.205,1.641-0.616
				C421.774,103.427,422.014,102.948,422.082,102.333 M428.341,100.178c0.478,0,0.957-0.17,1.436-0.513
				c0.479-0.479,0.787-1.026,0.924-1.641c0-0.547-0.24-0.992-0.718-1.333c-0.411-0.547-0.855-0.82-1.333-0.82
				c-0.547,0-1.06,0.238-1.539,0.717c-0.547,0.274-0.82,0.684-0.82,1.231c-0.138,0.616,0.068,1.197,0.615,1.744
				C427.383,99.973,427.862,100.178,428.341,100.178 M469.684,82.02c-0.272,0.41-0.408,0.821-0.408,1.23
				c-0.068,0.479,0,0.89,0.204,1.231c0.341,0.273,0.753,0.411,1.23,0.411c0.48,0.068,0.855-0.034,1.13-0.308
				c0.408-0.343,0.615-0.752,0.615-1.231c0-0.411-0.139-0.82-0.411-1.231c-0.204-0.274-0.513-0.445-0.924-0.513
				C470.642,81.609,470.165,81.745,469.684,82.02 M458.194,79.659c-0.411,0.822-0.513,1.813-0.309,2.976
				c0,1.162,0.24,2.188,0.72,3.078c0.204,0.821,0.513,1.197,0.924,1.128c0.408,0,0.751-0.479,1.025-1.436
				c0.068-0.958,0.068-2.018,0-3.181c0-1.23-0.172-2.188-0.513-2.873c-0.343-0.82-0.72-1.265-1.13-1.333
				C458.571,78.086,458.33,78.633,458.194,79.659 M446.499,86.944c-0.478,0.41-0.752,0.923-0.821,1.539
				c0,0.547,0.206,0.957,0.616,1.231c0.205,0.41,0.615,0.615,1.23,0.615c0.548,0.068,1.026-0.102,1.437-0.513
				c0.342-0.274,0.547-0.685,0.615-1.231c0-0.615-0.136-1.128-0.41-1.539c-0.343-0.273-0.821-0.444-1.437-0.513
				C447.183,86.533,446.772,86.67,446.499,86.944 M417.773,89.201c-0.547-0.411-1.094-0.616-1.641-0.616
				c-0.684,0-1.197,0.137-1.539,0.411c-0.411,0.479-0.684,0.992-0.82,1.539c0,0.547,0.239,0.957,0.718,1.231
				c0.205,0.684,0.649,1.026,1.333,1.026c0.547,0,1.128-0.275,1.744-0.822c0.342-0.342,0.513-0.751,0.513-1.23
				C418.218,90.124,418.116,89.611,417.773,89.201 M531.343,86.124c-0.068,1.094,0.068,2.052,0.409,2.872
				c0.206,0.821,0.581,1.266,1.13,1.333c0.615,0,1.196-0.411,1.743-1.231c0.41-0.752,0.686-1.675,0.821-2.77
				c0.068-1.162-0.068-2.222-0.411-3.18c-0.41-0.752-0.889-1.128-1.437-1.128c-0.547-0.069-1.025,0.273-1.437,1.026
				C531.684,83.934,531.411,84.96,531.343,86.124 M526.828,82.84c-0.41,0-0.751,0.171-1.025,0.513
				c-0.547,0.342-0.822,0.821-0.822,1.436c0,0.547,0.171,1.026,0.514,1.437c0.274,0.411,0.583,0.615,0.924,0.615
				c0.41,0,0.821-0.205,1.229-0.615c0.343-0.273,0.514-0.718,0.514-1.333c0-0.616-0.068-1.129-0.205-1.539
				C527.616,83.012,527.239,82.84,526.828,82.84 M513.183,82.84c-0.343,0-0.683,0.102-1.025,0.308
				c-0.343,0.341-0.547,0.718-0.615,1.128c0,0.411,0.172,0.788,0.513,1.129c0.137,0.342,0.411,0.513,0.821,0.513
				c0.409,0,0.854-0.137,1.333-0.411c0.343-0.342,0.513-0.718,0.513-1.128c0.07-0.411-0.034-0.786-0.307-1.129
				C514.072,82.977,513.662,82.84,513.183,82.84 M503.232,87.765c0.615,0,1.23-0.171,1.846-0.513
				c0.41-0.479,0.648-1.026,0.719-1.641c0.068-0.616-0.138-1.197-0.615-1.744c-0.48-0.616-1.025-0.924-1.643-0.924
				c-0.615,0-1.128,0.273-1.539,0.82c-0.545,0.479-0.854,1.026-0.922,1.642c-0.068,0.615,0.137,1.163,0.615,1.641
				C502.104,87.525,502.617,87.765,503.232,87.765 M502.411,73.915c-0.343,0.342-0.548,0.752-0.615,1.231
				c-0.068,0.547,0.067,1.026,0.41,1.436c0.479,0.479,0.956,0.718,1.437,0.718c0.546,0,1.026-0.205,1.436-0.615
				c0.41-0.341,0.648-0.786,0.719-1.333c0.068-0.479-0.138-0.958-0.615-1.437c-0.274-0.411-0.685-0.615-1.232-0.615
				C503.402,73.299,502.89,73.504,502.411,73.915 M507.951,64.168c0.479-0.752,0.785-1.744,0.924-2.976
				c0.136-1.23-0.034-2.291-0.513-3.18c-0.479-0.752-1.097-1.162-1.848-1.231c-0.752,0-1.4,0.411-1.95,1.231
				c-0.615,0.752-0.957,1.745-1.025,2.976c-0.068,1.23,0.136,2.256,0.617,3.078c0.341,0.889,0.89,1.333,1.641,1.333
				C506.549,65.468,507.266,65.058,507.951,64.168z"/>
			<path fill="#FFFF62" d="M481.38,54.935c0.069-0.034,0.138-0.068,0.206-0.102l2.77-1.437c0.067-0.411,0.102-0.821,0.102-1.231
				c0.07-0.889,0.034-1.744-0.102-2.565c-12.927-1.231-23.869,0.854-32.83,6.259c0.615,2.531,1.88,4.787,3.796,6.771
				c2.873,3.352,6.668,5.13,11.389,5.335c1.435,0.068,2.804-0.034,4.104-0.308C476.08,63.622,479.603,59.38,481.38,54.935
				 M421.98,69.298c-0.616,3.762-0.685,7.01-0.206,9.746c8.208-4.856,18.466-8.071,30.777-9.644l-4.822-2.565
				C437.334,58.971,428.75,59.791,421.98,69.298 M469.377,35.443c-2.53-0.068-4.854,0.308-6.977,1.128
				c-1.914,0.685-3.659,1.71-5.232,3.078c-3.557,3.147-5.54,6.977-5.949,11.491c-0.138,1.642-0.034,3.215,0.307,4.72
				c8.961-5.404,19.903-7.49,32.83-6.259c-0.341-3.419-1.642-6.429-3.899-9.028c-2.257-2.394-4.924-3.932-8.001-4.617
				C471.497,35.682,470.472,35.511,469.377,35.443 M462.4,32.263v4.308c2.122-0.82,4.446-1.196,6.977-1.128
				c1.095,0.068,2.12,0.239,3.078,0.513l0.204-3.693c4.242,0.957,7.593,2.975,10.055,6.053h5.13
				c-1.096-4.514-3.216-8.823-6.362-12.926l-1.229-9.131c-3.215,3.625-6.601,5.78-10.157,6.463l6.361-11.285
				c-7.73,1.984-15.697,2.155-23.904,0.513l8.31,12.311c-3.966-0.41-8.037-2.529-12.208-6.36l0.923,10.464
				c-2.12,3.694-3.761,7.694-4.924,12.003l3.59,2.462C453.237,37.836,457.954,34.314,462.4,32.263 M465.067,22.208l-2.257-4.411
				L465.067,22.208l2.36-4.821L465.067,22.208 M467.119,25.491c0.686,0,1.267,0.239,1.745,0.718c0.479,0.547,0.684,1.197,0.615,1.95
				c0,0.752-0.309,1.368-0.924,1.847c-0.615,0.479-1.265,0.718-1.949,0.718c-0.752-0.069-1.333-0.377-1.743-0.924
				c-0.479-0.479-0.718-1.094-0.718-1.846c0.136-0.752,0.477-1.403,1.025-1.95C465.717,25.594,466.367,25.423,467.119,25.491
				 M458.398,28.159l-4.616,4.104L458.398,28.159l-3.692-1.847L458.398,28.159 M473.48,27.03l3.385-1.641L473.48,27.03l4.924,2.564
				L473.48,27.03 M539.55,134.341c1.23,0.204,2.529,0.513,3.897,0.923l-5.847-21.646c-46.44-9.165-88.092-2.873-124.957,18.876
				l0.513,20.211c2.325-1.094,4.515-2.154,6.566-3.18c2.94-1.231,5.814-2.428,8.618-3.59c2.529-1.026,5.094-1.984,7.694-2.873
				c1.778-0.684,3.556-1.3,5.334-1.848c0.137-0.068,0.273-0.102,0.411-0.102c4.514-1.71,8.994-3.18,13.439-4.411
				c5.062-1.437,10.123-2.599,15.185-3.489c5.949-1.094,11.832-1.846,17.645-2.257c5.54-0.615,11.011-0.854,16.415-0.717
				c4.035-0.069,8.07,0.102,12.106,0.513c3.965,0.41,7.933,0.957,11.9,1.641C532.094,132.871,535.787,133.52,539.55,134.341
				 M539.14,122.646c-0.07,0.958-0.514,1.778-1.335,2.462c-0.684,0.615-1.539,0.957-2.564,1.026
				c-0.888-0.069-1.676-0.445-2.358-1.129c-0.686-0.752-0.994-1.607-0.924-2.565c0.136-0.957,0.547-1.778,1.23-2.461
				c0.89-0.752,1.777-1.095,2.667-1.026c1.025-0.069,1.813,0.308,2.36,1.128C538.9,120.833,539.207,121.688,539.14,122.646
				 M504.36,113.104c1.366,0.068,2.531,0.649,3.488,1.745c0.888,1.026,1.301,2.222,1.23,3.59c-0.136,1.368-0.751,2.496-1.846,3.385
				c-1.094,1.026-2.326,1.505-3.694,1.436c-1.367,0-2.497-0.581-3.385-1.743c-0.89-0.958-1.264-2.121-1.128-3.489
				c0.068-1.368,0.684-2.531,1.846-3.488C501.83,113.583,502.994,113.104,504.36,113.104 M524.98,120.594
				c-0.067,0.684-0.41,1.265-1.025,1.744c-0.411,0.41-0.956,0.615-1.642,0.615c-0.685-0.068-1.266-0.308-1.743-0.718
				c-0.48-0.479-0.685-1.06-0.617-1.744c0-0.821,0.343-1.471,1.026-1.949c0.48-0.411,1.062-0.581,1.745-0.513
				c0.684,0,1.23,0.171,1.641,0.513C524.776,119.157,524.98,119.841,524.98,120.594 M463.528,118.85
				c0.753-0.821,1.745-1.197,2.976-1.128c1.164,0,2.154,0.479,2.976,1.436c0.753,0.89,1.094,1.916,1.025,3.078
				c-0.067,1.163-0.614,2.223-1.641,3.181c-0.89,0.685-1.916,1.026-3.078,1.026c-1.096,0-2.052-0.445-2.873-1.333
				c-0.819-0.958-1.162-2.018-1.026-3.181C461.957,120.765,462.502,119.739,463.528,118.85 M486.716,117.311
				c0.067,0,0.136,0,0.204,0c0.615,0.069,1.128,0.376,1.539,0.924c0.341,0.615,0.513,1.401,0.513,2.359
				c-0.068,0.341-0.172,0.649-0.309,0.924c0,0.273-0.032,0.547-0.103,0.82c-0.136,0.136-0.238,0.273-0.307,0.41
				c0,0.069-0.035,0.137-0.104,0.206c-0.137,0.273-0.409,0.479-0.819,0.616c-0.343,0.273-0.72,0.41-1.129,0.41
				c-0.685-0.068-1.231-0.444-1.643-1.128c-0.409-0.547-0.615-1.265-0.615-2.155c0.07-0.068,0.103-0.136,0.103-0.205
				c-0.137-0.89,0.067-1.642,0.617-2.257c0.408-0.616,0.989-0.958,1.743-1.026h0.102L486.716,117.311 M424.75,132.802
				c0.068-1.505,0.581-2.77,1.539-3.796c0.957-1.026,1.948-1.539,2.974-1.539c1.094,0.068,2.052,0.685,2.873,1.847
				c0.752,1.026,1.061,2.257,0.924,3.693c-0.137,1.573-0.615,2.839-1.437,3.796c-1.026,1.026-2.12,1.505-3.282,1.437
				c-1.026,0-1.882-0.583-2.565-1.745C424.954,135.538,424.613,134.307,424.75,132.802 M445.985,123.773
				c0.616-0.068,1.3,0.206,2.052,0.822c0.411,0.615,0.65,1.47,0.718,2.564c0.068,0.821,0,1.641-0.206,2.462
				c-0.478,0.958-1.06,1.402-1.743,1.333c-0.548,0.205-1.095-0.034-1.642-0.717c-0.41-0.547-0.787-1.403-1.128-2.565
				c0-1.026,0.205-1.848,0.615-2.462C444.995,124.39,445.438,123.911,445.985,123.773 M484.664,118.234
				c-0.55,0.615-0.754,1.367-0.617,2.257c0.067-0.958,0.376-1.744,0.924-2.36c0.41-0.547,0.89-0.854,1.437-0.922
				C485.653,117.276,485.072,117.618,484.664,118.234 M495.332,66.426l0.617-7.592c-0.481-5.129-4.345-5.608-11.594-1.436
				c-1.162,3.761-3.146,7.147-5.951,10.156C483.876,66.801,489.519,66.426,495.332,66.426 M515.03,66.528
				c7.182,1.505,12.447,4.309,15.8,8.413c0.683-1.368,1.094-2.906,1.23-4.617l2.975,9.028c1.095-3.762,1.401-7.591,0.924-11.49
				c-2.805-8.754-9.269-12.379-19.39-10.875C516.499,60.612,515.986,63.792,515.03,66.528 M498.615,61.809
				c0.275-4.173-0.342-7.592-1.847-10.259c-4.104-0.137-8.275,0.581-12.516,2.154c-0.89,0.341-1.777,0.718-2.667,1.129
				c-0.068,0.034-0.137,0.068-0.206,0.102c-1.777,4.445-5.3,8.687-10.566,12.722c-0.48,0.273-0.923,0.581-1.334,0.923
				c-5.608,0.752-11.319-0.787-17.132-4.617c-9.167-6.361-18.434-7.762-27.803-4.206l-18.774,10.156
				c-5.882,6.019-6.464,12.961-1.744,20.827l18.876-7.49l-0.204-0.205c-0.069-0.205-0.104-0.411-0.104-0.616
				c-0.479-0.957-0.752-2.086-0.82-3.386c-0.479-2.736-0.411-5.984,0.206-9.746c6.771-9.507,15.354-10.327,25.75-2.462l4.822,2.565
				l4.925,2.975l0.205,0.206h0.204c0.068,0.034,0.137,0.068,0.206,0.102c6.771,1.368,12.79,0.342,18.056-3.078
				c0.822-0.684,1.573-1.368,2.257-2.052c2.805-3.009,4.789-6.395,5.951-10.156c7.249-4.173,11.112-3.694,11.594,1.436l-0.617,7.592
				l-0.103,6.463C497.281,69.605,498.409,65.913,498.615,61.809 M411.002,74.017c0.615,0.752,1.06,1.676,1.333,2.771
				c0.273,0.958,0.343,1.88,0.205,2.77c-0.411,1.094-0.958,1.778-1.641,2.052c-0.89,0.136-1.71-0.102-2.463-0.718
				c-0.615-0.685-1.094-1.539-1.437-2.565c-0.136-1.026-0.136-2.018,0-2.975c0.343-0.958,0.924-1.573,1.744-1.847
				C409.429,73.23,410.182,73.401,411.002,74.017 M514.619,53.089c0.958,1.162,1.607,2.461,1.95,3.898
				c10.121-1.504,16.585,2.12,19.39,10.875c0.478,3.899,0.171,7.729-0.924,11.49l-2.975-9.028c-0.137,1.71-0.548,3.249-1.23,4.617
				c-0.617,1.368-1.437,2.77-2.463,4.206c-2.258,1.983-4.719,2.976-7.388,2.976c1.915,3.967,2.701,7.42,2.36,10.361
				c2.393-3.146,4.515-4.342,6.359-3.591l-3.486,9.336c-6.636,6.908-12.483,5.026-17.545-5.643v-5.437
				c2.806-0.069,5.507,1.812,8.105,5.643l1.232-15.389c-3.831,3.214-7.558,4.377-11.183,3.487l4.104-7.387
				c1.846-1.709,3.214-4.035,4.104-6.976c0.956-2.736,1.469-5.916,1.539-9.541C516.227,55.55,515.577,54.251,514.619,53.089
				c-2.188-2.804-5.814-4.446-10.874-4.924l-12.518,1.539l-6.872,3.693l-2.77,1.437c0.89-0.411,1.777-0.788,2.667-1.129
				c4.24-1.573,8.412-2.292,12.516-2.154c1.505,2.667,2.122,6.086,1.847,10.259c-0.206,4.104-1.334,7.796-3.386,11.08l2.976,8.72
				c-4.65-0.479-8.755-2.223-12.312-5.232l1.539,16.517c9.029-6.703,12.651-6.601,10.874,0.308
				c-8.068,12.243-17.883,14.089-29.442,5.54l-2.873-5.129c0.343-4.72,2.564-4.686,6.668,0.102
				c3.829-4.104,4.206-9.369,1.128-15.798c-2.528-1.026-5.71-0.069-9.539,2.873l-2.771-5.13c-0.752-1.642-1.88-2.634-3.385-2.976
				c-0.069-0.034-0.138-0.068-0.206-0.102h-0.204l-0.205-0.206c-1.847,1.71-2.736,3.727-2.669,6.054l-0.819,5.333
				c-3.83-2.599-7.694-1.948-11.593,1.95c-1.573,4.856,0.445,9.849,6.053,14.978c2.325-5.061,3.795-7.831,4.412-8.31
				c1.916-0.068,2.974,1.06,3.18,3.385l-2.976,6.772c-6.771,11.421-15.525,12.824-26.263,4.206l-0.718-4.206
				c2.667-0.274,5.505,0.102,8.515,1.128l-4.104-15.696c-1.641,4.651-4.309,7.763-8.002,9.335c-0.752-5.061-0.479-9.78,0.821-14.157
				l-0.411,0.102l-18.876,7.49c1.505,0.684,2.838,1.402,4,2.154c3.283,1.916,5.746,4.036,7.387,6.361
				c-2.735,0.136-5.471-0.513-8.208-1.95c-0.41-0.273-0.854-0.581-1.333-0.923l4.719,17.441c1.368-4.515,3.351-7.559,5.951-9.131
				l0.615,5.541l-1.231,13.439l-5.335-9.848l1.744,10.259l0.308,8.412c36.865-21.749,78.517-28.041,124.957-18.876l0.103-18.877
				l2.052-23.801c0.479-3.761-0.581-8.07-3.181-12.926C530.008,53.157,522.69,51.516,514.619,53.089 M508.875,61.193
				c-0.139,1.231-0.445,2.223-0.924,2.976c-0.686,0.89-1.402,1.299-2.154,1.231c-0.751,0-1.3-0.445-1.641-1.333
				c-0.481-0.822-0.686-1.848-0.617-3.078c0.068-1.231,0.41-2.223,1.025-2.976c0.55-0.82,1.198-1.231,1.95-1.231
				c0.751,0.069,1.368,0.479,1.848,1.231C508.841,58.902,509.011,59.962,508.875,61.193 M501.796,75.146
				c0.067-0.479,0.272-0.89,0.615-1.231c0.479-0.411,0.991-0.615,1.538-0.615c0.548,0,0.958,0.205,1.232,0.615
				c0.478,0.479,0.684,0.958,0.615,1.437c-0.07,0.547-0.309,0.992-0.719,1.333c-0.409,0.41-0.89,0.615-1.436,0.615
				c-0.48,0-0.957-0.239-1.437-0.718C501.863,76.172,501.728,75.693,501.796,75.146 M491.741,83.661
				c0.343,0.068,0.581,0.206,0.719,0.411c0.274,0.274,0.411,0.547,0.411,0.821c-0.068,0.342-0.24,0.649-0.513,0.923
				c-0.274,0.205-0.581,0.274-0.924,0.205c-0.274,0-0.513-0.102-0.72-0.308c-0.272-0.273-0.377-0.581-0.307-0.923
				c0-0.274,0.137-0.547,0.411-0.821C491.092,83.763,491.4,83.661,491.741,83.661 M505.078,87.251
				c-0.615,0.342-1.23,0.513-1.846,0.513s-1.128-0.24-1.539-0.719c-0.479-0.479-0.684-1.026-0.615-1.641
				c0.068-0.616,0.377-1.163,0.922-1.642c0.411-0.547,0.924-0.82,1.539-0.82c0.617,0,1.162,0.308,1.643,0.924
				c0.478,0.547,0.684,1.128,0.615,1.744C505.727,86.226,505.488,86.772,505.078,87.251 M512.157,83.148
				c0.343-0.206,0.683-0.308,1.025-0.308c0.479,0,0.89,0.136,1.232,0.41c0.272,0.343,0.377,0.718,0.307,1.129
				c0,0.41-0.17,0.787-0.513,1.128c-0.479,0.273-0.924,0.411-1.333,0.411c-0.41,0-0.685-0.171-0.821-0.513
				c-0.341-0.341-0.513-0.718-0.513-1.129C511.61,83.866,511.814,83.489,512.157,83.148 M525.803,83.353
				c0.274-0.341,0.615-0.513,1.025-0.513c0.411,0,0.788,0.171,1.128,0.513c0.137,0.41,0.205,0.923,0.205,1.539
				c0,0.615-0.171,1.06-0.514,1.333c-0.408,0.411-0.819,0.615-1.229,0.615c-0.341,0-0.649-0.205-0.924-0.615
				c-0.343-0.411-0.514-0.89-0.514-1.437C524.98,84.174,525.256,83.695,525.803,83.353 M531.752,88.996
				c-0.341-0.82-0.478-1.778-0.409-2.872c0.068-1.164,0.341-2.189,0.819-3.078c0.411-0.752,0.89-1.095,1.437-1.026
				c0.548,0,1.026,0.376,1.437,1.128c0.343,0.958,0.479,2.018,0.411,3.18c-0.136,1.095-0.411,2.018-0.821,2.77
				c-0.547,0.821-1.128,1.231-1.743,1.231C532.333,90.261,531.958,89.816,531.752,88.996 M505.899,102.64
				c-0.547,0.479-1.162,0.718-1.848,0.718c-0.751-0.069-1.402-0.342-1.947-0.82c-0.274-0.547-0.377-1.163-0.309-1.848
				c0.067-0.751,0.272-1.368,0.615-1.846c0.615-0.479,1.3-0.685,2.052-0.615c0.751,0,1.3,0.273,1.641,0.82
				c0.481,0.411,0.686,0.992,0.617,1.745C506.652,101.546,506.378,102.161,505.899,102.64 M416.132,88.585
				c0.547,0,1.094,0.206,1.641,0.616c0.343,0.41,0.445,0.923,0.309,1.539c0,0.479-0.171,0.889-0.513,1.23
				c-0.616,0.547-1.197,0.822-1.744,0.822c-0.684,0-1.129-0.343-1.333-1.026c-0.479-0.274-0.718-0.684-0.718-1.231
				c0.136-0.547,0.41-1.06,0.82-1.539C414.935,88.722,415.448,88.585,416.132,88.585 M445.678,88.483
				c0.068-0.616,0.343-1.129,0.821-1.539c0.273-0.273,0.684-0.411,1.231-0.411c0.616,0.069,1.094,0.239,1.437,0.513
				c0.273,0.411,0.41,0.924,0.41,1.539c-0.068,0.547-0.273,0.958-0.615,1.231c-0.411,0.411-0.889,0.581-1.437,0.513
				c-0.615,0-1.026-0.205-1.23-0.615C445.883,89.439,445.678,89.03,445.678,88.483 M457.886,82.635
				c-0.204-1.162-0.103-2.154,0.309-2.976c0.136-1.026,0.377-1.573,0.718-1.641c0.41,0.068,0.787,0.513,1.13,1.333
				c0.341,0.685,0.513,1.642,0.513,2.873c0.068,1.163,0.068,2.223,0,3.181c-0.274,0.957-0.617,1.436-1.025,1.436
				c-0.411,0.069-0.72-0.308-0.924-1.128C458.126,84.823,457.886,83.797,457.886,82.635 M469.275,83.25
				c0-0.41,0.136-0.82,0.408-1.23c0.481-0.274,0.958-0.411,1.437-0.411c0.411,0.068,0.72,0.239,0.924,0.513
				c0.272,0.411,0.411,0.82,0.411,1.231c0,0.479-0.207,0.889-0.615,1.231c-0.274,0.273-0.649,0.375-1.13,0.308
				c-0.478,0-0.89-0.137-1.23-0.411C469.275,84.14,469.207,83.729,469.275,83.25 M429.776,99.665
				c-0.479,0.343-0.958,0.513-1.436,0.513c-0.479,0-0.958-0.205-1.437-0.615c-0.547-0.547-0.752-1.128-0.615-1.744
				c0-0.547,0.273-0.957,0.82-1.231c0.479-0.479,0.992-0.717,1.539-0.717c0.479,0,0.922,0.273,1.333,0.82
				c0.479,0.342,0.718,0.787,0.718,1.333C430.563,98.639,430.255,99.186,429.776,99.665 M421.672,100.69
				c0.273,0.479,0.41,1.026,0.41,1.642c-0.068,0.615-0.308,1.094-0.718,1.436c-0.41,0.411-0.957,0.616-1.641,0.616
				c-0.615,0-1.163-0.239-1.641-0.718c-0.343-0.411-0.479-0.924-0.411-1.539c0-0.615,0.273-1.162,0.82-1.641
				c0.411-0.411,0.924-0.616,1.539-0.616C420.714,99.87,421.262,100.144,421.672,100.69 M410.695,102.229
				c0.41,0.069,0.752,0.239,1.026,0.513c0.205,0.343,0.308,0.752,0.308,1.231s-0.171,0.854-0.513,1.129
				c-0.341,0.342-0.752,0.513-1.231,0.513c-0.479,0-0.855-0.206-1.128-0.616c-0.205-0.273-0.308-0.649-0.308-1.128
				c0-0.479,0.17-0.89,0.513-1.231C409.771,102.367,410.216,102.229,410.695,102.229 M425.16,113.104
				c0.479,0.547,0.684,1.197,0.616,1.949c0,0.684-0.309,1.266-0.924,1.744c-0.547,0.479-1.163,0.718-1.846,0.718
				c-0.752-0.068-1.333-0.341-1.744-0.82c-0.274-0.547-0.411-1.163-0.411-1.846c0-0.752,0.24-1.369,0.718-1.848
				c0.547-0.41,1.197-0.581,1.95-0.513C424.202,112.488,424.75,112.694,425.16,113.104z"/>
			<path fill="#EFBD9C" d="M531.137,151.782c-2.804-0.958-5.232-1.471-7.284-1.539c-0.615,0-3.386-0.513-8.31-1.539
				c-4.446-0.752-8.377-1.197-11.798-1.334c-2.735-0.068-8.481,0.445-17.236,1.539c-7.933,0.89-13.267,1.676-16.004,2.361
				c-2.805,0.479-8.516,1.196-17.132,2.154c-0.206,0.615-0.581,1.333-1.13,2.154v0.206l-2.871,4.822
				c-3.215,1.573-5.506,4.377-6.874,8.413c-1.369,3.762-1.778,10.361-1.231,19.8c0.752,9.301-0.718,6.874-4.411-7.284
				c-3.351-4.856-6.976-7.387-10.875-7.592c-5.266-0.136-8.823,1.95-10.669,6.258l-0.104-0.717l-0.204,6.463
				c1.367-4.104,3.282-7.421,5.745-9.951c3.488-1.163,6.463-1.06,8.926,0.307c5.676,2.599,8.549,7.285,8.617,14.055
				c-0.068-6.771-2.94-11.456-8.617-14.055c-2.463-1.367-5.438-1.47-8.926-0.307c-2.462,2.53-4.377,5.848-5.745,9.951
				c-0.479,2.667-0.411,6.258,0.204,10.772c2.531,5.608,5.985,10.738,10.362,15.389c0.615,0.615,1.196,1.128,1.745,1.539
				c3.555,2.667,6.736,2.292,9.541-1.129c-2.804,3.42-5.985,3.796-9.541,1.129c1.299,13.954,0.547,25.306-2.257,34.061
				c8.48,11.695,26.641,21.954,54.477,30.777c4.58,1.3,7.077,8.173,7.488,20.62c4.719,1.779,8.651,2.36,11.798,1.743
				c2.052-8.275,6.771-16.482,14.158-24.622c-11.217-1.025-22.264-3.01-33.138-5.949c-2.735-0.821-5.368-1.709-7.898-2.667
				c-2.052-1.162-4.002-2.326-5.85-3.488c1.848,1.162,3.798,2.326,5.85,3.488c2.53,0.958,5.163,1.846,7.898,2.667
				c10.874,2.939,21.921,4.924,33.138,5.949c1.505,0.068,3.008,0.137,4.515,0.207c7.113-4.036,12.139-10.191,15.08-18.467
				c3.146-8.207,5.883-15.459,8.207-21.751c0.068,0.137,1.402-6.155,4.002-18.876c2.599-12.652,2.222-26.4-1.129-41.242
				c-0.067-0.273-0.104-0.547-0.104-0.821s0-0.479,0-0.615c0-0.206,0-0.411,0-0.616c-0.205-0.274-0.445-0.479-0.718-0.615
				c-7.797-7.318-15.216-6.703-22.262,1.846c7.046-8.549,14.465-9.164,22.262-1.846c0.272,0.136,0.513,0.341,0.718,0.615
				c-0.205-1.915-0.409-3.864-0.615-5.847c-0.752-1.71-2.463-2.976-5.13-3.796c-4.854-1.163-10.188-0.718-16.004,1.333
				c-0.41,0.205-0.753,0.376-1.025,0.513c0.272-0.136,0.615-0.308,1.025-0.513c5.815-2.052,11.149-2.497,16.004-1.333
				c2.667,0.82,4.378,2.086,5.13,3.796l-1.026-16.005c-0.479,0.616-1.539,0.89-3.18,0.821
				C536.336,152.944,533.804,152.533,531.137,151.782 M501.283,177.326c0.614,0.479,1.229,1.06,1.847,1.745
				c-0.89,0.615-1.745,1.197-2.564,1.744c-6.43,3.693-12.106,3.557-17.032-0.411c-1.025-0.889-2.016-1.915-2.973-3.078
				c0.957-0.547,1.915-1.026,2.871-1.436C490.408,172.813,496.357,173.292,501.283,177.326 M516.98,170.043
				c-0.411,0.889-0.173,2.633,0.717,5.231l8.516,19.903c2.735,5.061,3.11,9.473,1.129,13.233c-1.71,3.831-5.541,5.506-11.492,5.028
				c5.951,0.479,9.782-1.197,11.492-5.028c1.981-3.761,1.606-8.173-1.129-13.233l-8.516-19.903
				C516.808,172.676,516.569,170.932,516.98,170.043 M524.365,181.43c-0.753-0.479-1.471-1.026-2.153-1.641
				c0.615-0.547,1.23-1.06,1.846-1.539c6.224-4.65,12.072-4.173,17.544,1.436C536.336,185.226,530.59,185.807,524.365,181.43
				 M541.807,187.585c-6.224,5.335-12.003,5.13-17.339-0.615C529.804,192.715,535.583,192.92,541.807,187.585 M430.289,187.073
				c-0.683-3.078-2.599-5.096-5.745-6.052c-6.019,1.436-6.566,8.036-1.642,19.8c-4.924-11.764-4.377-18.364,1.642-19.8
				C427.69,181.977,429.606,183.995,430.289,187.073 M486.716,161.835c-5.473,0.068-10.228,1.47-14.261,4.206
				C476.488,163.305,481.243,161.904,486.716,161.835c9.301,0.342,16.14,1.607,20.518,3.796
				C502.855,163.442,496.017,162.177,486.716,161.835 M479.943,232.622c-0.752,0.617-1.471,1.198-2.154,1.746
				C478.473,233.82,479.191,233.239,479.943,232.622c8.893-7.454,16.278-16.516,22.161-27.185
				C496.222,216.106,488.836,225.168,479.943,232.622 M424.852,193.741c2.873,2.325,4.445,5.471,4.719,9.438
				C429.297,199.212,427.725,196.066,424.852,193.741c2.531,0.341,5.198-0.444,8.002-2.359l-0.615,4.924l0.615-4.924
				C430.05,193.297,427.383,194.083,424.852,193.741 M445.371,241.24c-0.685-1.505-1.231-3.043-1.641-4.616l-4.309-15.286
				l4.309,15.286C444.139,238.197,444.686,239.735,445.371,241.24 M498.514,231.29c1.777-0.821,5.574-2.19,11.387-4.104
				c0.479,0.136,1.162,0.274,2.052,0.411c0.684,0.136,1.642,0.306,2.872,0.513c1.162,0.204,2.292,0.17,3.386-0.104
				c1.095-0.272,1.812-0.408,2.154-0.408c0.411,0,1.437,0.306,3.078,0.921c1.709,0.617,4.241,1.779,7.592,3.489l0.513,0.206
				l0.514-0.309c0.34-0.341,0.033,0.753-0.924,3.282c-1.026,2.532-3.829,3.865-8.412,4.001c-4.582,0.07-7.352,0.139-8.31,0.207
				c-0.958-0.068-3.284-0.343-6.977-0.822c-3.693-0.547-8.105-2.018-13.235-4.412C495.3,232.999,496.734,232.041,498.514,231.29
				 M516.672,209.746c-3.351-4.036-7.318-3.387-11.9,1.948C509.354,206.359,513.321,205.71,516.672,209.746 M527.239,252.219
				c-0.411,0.409-0.89,0.649-1.437,0.718c-4.651-2.463-9.336-3.522-14.057-3.18c-2.667,0.204-5.334,0.819-8.001,1.845
				c2.667-1.025,5.334-1.641,8.001-1.845c0.068-0.343,0.068-0.752,0-1.232c0.137-1.299,0.549-1.812,1.232-1.539
				c1.025,0.343,1.914,0.549,2.667,0.617c0.958,0,1.779,0.238,2.463,0.718c0.888-0.754,2.494-0.924,4.82-0.514
				c3.353,0.686,4.96,1.779,4.823,3.282C527.752,251.363,527.58,251.738,527.239,252.219 M523.648,266.582
				c0.751,0,1.299,0.444,1.641,1.332c0,0.207-0.376,0.788-1.128,1.745c-0.685,1.026-2.36,1.984-5.027,2.872
				c-2.667,0.957-5.574,1.437-8.72,1.437c-3.01-0.137-6.294-0.958-9.849-2.463c-3.627-1.641-5.404-3.282-5.336-4.923
				c0.206-2.326,1.709-2.701,4.515-1.13c3.967,2.462,6.327,3.694,7.079,3.694c0.204,0,0.956-0.206,2.256-0.617
				c1.369-0.272,2.635-0.408,3.797-0.408c0.545,0.067,1.162,0.238,1.846,0.513c0.411,0.272,1.265,0.545,2.564,0.819
				c1.301,0.343,2.531-0.034,3.693-1.128C522.073,267.095,522.963,266.514,523.648,266.582 M529.187,209.13
				c2.188,8.892,5.234,17.611,9.131,26.161C534.421,226.741,531.375,218.021,529.187,209.13 M501.796,186.15
				c-5.402,5.403-13.064,5.608-22.981,0.615C488.731,191.758,496.394,191.553,501.796,186.15 M504.669,174.249
				c-8.275-9.096-16.859-9.677-25.752-1.744C487.81,164.572,496.394,165.153,504.669,174.249z"/>
			<path fill="#DE8076" d="M500.461,233.033c-0.751,0-1.471,0-2.154,0C498.99,233.033,499.71,233.033,500.461,233.033
				c8.482-0.343,16.724-0.343,24.727,0c1.915,0.07,3.863,0.139,5.847,0.206c0.068-0.274,0.136-0.444,0.204-0.513
				c0-0.068,0-0.136,0-0.206c0-0.137-0.068-0.307-0.204-0.513c-3.351-1.71-5.883-2.872-7.592-3.489
				c-1.642-0.615-2.667-0.921-3.078-0.921c-0.343,0-1.06,0.136-2.154,0.408c-1.094,0.274-2.224,0.309-3.386,0.104
				c-1.23-0.207-2.188-0.377-2.872-0.513c-0.89-0.137-1.572-0.275-2.052-0.411c-5.813,1.913-9.609,3.282-11.387,4.104
				c-1.779,0.751-3.214,1.709-4.311,2.871c5.13,2.395,9.542,3.865,13.235,4.412c3.692,0.479,6.019,0.754,6.977,0.822
				c0.958-0.068,3.728-0.137,8.31-0.207c4.583-0.136,7.386-1.469,8.412-4.001c0.957-2.529,1.264-3.623,0.924-3.282l-0.514,0.309
				l-0.513-0.206c0.136,0.206,0.204,0.376,0.204,0.513c0,0.07,0,0.138,0,0.206c-0.068,0.068-0.136,0.238-0.204,0.513
				c-1.983-0.067-3.932-0.136-5.847-0.206C517.185,232.69,508.943,232.69,500.461,233.033z"/>
			<path fill="#EEEEEE" d="M524.058,178.25c0,0.068,0,0.136,0,0.206c-0.068,1.094,0.036,2.086,0.308,2.975
				c6.225,4.377,11.971,3.796,17.236-1.744C536.13,174.077,530.281,173.6,524.058,178.25 M529.699,178.968
				c0.137-1.095,0.55-1.916,1.232-2.462c0.752-0.684,1.676-1.026,2.77-1.026c0.89,0,1.609,0.376,2.154,1.128
				c0.136,0.069,0.206,0.137,0.206,0.206c0.547,0.684,0.787,1.437,0.718,2.257c0,1.026-0.443,1.916-1.333,2.667
				c-0.549,0.547-1.334,0.821-2.36,0.821c-0.821,0-1.607-0.239-2.36-0.718l-0.103-0.103c0-0.068-0.033-0.103-0.102-0.103
				C529.975,180.815,529.699,179.925,529.699,178.968 M501.181,177.634c0-0.136,0.034-0.238,0.103-0.308
				c-4.926-4.034-10.875-4.513-17.852-1.436c-0.137,0.342-0.205,0.717-0.205,1.128c-0.069,1.162,0.034,2.291,0.307,3.385
				c4.926,3.967,10.603,4.104,17.032,0.411C500.906,179.857,501.11,178.797,501.181,177.634 M492.665,174.146
				c1.025,0,1.813,0.375,2.36,1.128c0.067,0.069,0.136,0.137,0.204,0.206c0.615,0.684,0.855,1.437,0.72,2.257
				c-0.068,0.957-0.514,1.813-1.335,2.564c-0.686,0.547-1.539,0.821-2.564,0.821c-0.822-0.068-1.539-0.308-2.154-0.718l-0.103-0.103
				c0-0.069-0.067-0.103-0.206-0.103c-0.547-0.82-0.787-1.709-0.718-2.667c0.137-1.026,0.514-1.813,1.129-2.359
				C490.819,174.42,491.709,174.077,492.665,174.146z"/>
			<path d="M531.034,176.608c-0.686,0.547-1.06,1.334-1.128,2.36c0,0.957,0.238,1.813,0.717,2.565c0.07,0,0.103,0.034,0.103,0.102
				l0.104,0.103c0.683,0.479,1.435,0.718,2.256,0.718c1.026,0,1.779-0.273,2.256-0.821c0.89-0.684,1.335-1.539,1.335-2.564
				c0.136-0.752-0.103-1.471-0.718-2.154c0-0.069-0.036-0.137-0.104-0.205c-0.545-0.685-1.265-1.026-2.154-1.026
				C532.675,175.686,531.787,175.993,531.034,176.608 M495.025,175.274c-0.547-0.752-1.335-1.128-2.36-1.128
				c-0.956-0.069-1.846,0.273-2.667,1.026c-0.615,0.547-0.992,1.333-1.129,2.359c-0.069,0.958,0.171,1.847,0.718,2.667
				c0.139,0,0.206,0.034,0.206,0.103l0.103,0.103c0.615,0.411,1.332,0.65,2.154,0.718c1.025,0,1.879-0.273,2.564-0.821
				c0.821-0.752,1.267-1.608,1.335-2.564c0.136-0.821-0.104-1.573-0.72-2.257C495.161,175.412,495.093,175.344,495.025,175.274z"/>
			<path fill="#F6F6F6" d="M426.289,129.006c-0.958,1.026-1.471,2.291-1.539,3.796c-0.137,1.505,0.204,2.735,1.026,3.693
				c0.683,1.162,1.539,1.745,2.565,1.745c1.162,0.068,2.256-0.411,3.282-1.437c0.821-0.957,1.299-2.223,1.437-3.796
				c0.137-1.436-0.171-2.667-0.924-3.693c-0.82-1.162-1.778-1.778-2.873-1.847C428.237,127.467,427.246,127.98,426.289,129.006
				 M486.202,123.979c0.409,0,0.786-0.136,1.129-0.41c-0.207,0.136-0.514,0.204-0.924,0.204c-0.615,0.069-1.095-0.17-1.437-0.717
				c-0.548-0.547-0.888-1.334-1.026-2.36c0,0.89,0.206,1.608,0.615,2.155C484.971,123.535,485.518,123.911,486.202,123.979
				 M488.663,121.518c0.137-0.275,0.24-0.583,0.309-0.924c0-0.958-0.172-1.744-0.513-2.359c-0.411-0.547-0.924-0.855-1.539-0.924
				c0.479,0.069,0.89,0.308,1.23,0.718c0.48,0.479,0.719,1.231,0.719,2.257C488.869,120.765,488.8,121.175,488.663,121.518
				 M466.504,117.721c-1.23-0.069-2.223,0.308-2.976,1.128c-1.026,0.89-1.571,1.916-1.642,3.078
				c-0.136,1.163,0.207,2.223,1.026,3.181c0.821,0.889,1.777,1.333,2.873,1.333c1.162,0,2.188-0.341,3.078-1.026
				c1.026-0.958,1.573-2.018,1.641-3.181c0.068-1.163-0.272-2.188-1.025-3.078C468.658,118.2,467.668,117.721,466.504,117.721
				 M507.849,114.849c-0.957-1.095-2.122-1.676-3.488-1.745c-1.366,0-2.53,0.479-3.488,1.436c-1.162,0.958-1.777,2.121-1.846,3.488
				c-0.136,1.368,0.238,2.531,1.128,3.489c0.888,1.162,2.018,1.743,3.385,1.743c1.368,0.069,2.601-0.41,3.694-1.436
				c1.095-0.89,1.71-2.018,1.846-3.385C509.149,117.071,508.736,115.875,507.849,114.849 M537.805,125.108
				c0.821-0.684,1.265-1.505,1.335-2.462c0.067-0.958-0.239-1.813-0.924-2.565c-0.547-0.82-1.335-1.197-2.36-1.128
				c-0.89-0.069-1.777,0.273-2.667,1.026c-0.684,0.683-1.095,1.505-1.23,2.461c-0.07,0.958,0.238,1.813,0.924,2.565
				c0.683,0.684,1.471,1.06,2.358,1.129C536.266,126.065,537.121,125.723,537.805,125.108 M425.776,115.053
				c0.068-0.751-0.137-1.401-0.616-1.949c-0.41-0.411-0.958-0.616-1.641-0.616c-0.752-0.068-1.402,0.104-1.95,0.513
				c-0.479,0.479-0.718,1.095-0.718,1.848c0,0.683,0.137,1.299,0.411,1.846c0.411,0.479,0.992,0.752,1.744,0.82
				c0.683,0,1.299-0.239,1.846-0.718C425.467,116.319,425.776,115.737,425.776,115.053 M504.052,103.358
				c0.686,0,1.301-0.239,1.848-0.718c0.479-0.479,0.753-1.094,0.821-1.846c0.068-0.752-0.136-1.334-0.617-1.745
				c-0.341-0.547-0.89-0.82-1.641-0.82c-0.752-0.069-1.437,0.136-2.052,0.615c-0.343,0.479-0.548,1.095-0.615,1.846
				c-0.068,0.685,0.034,1.3,0.309,1.848C502.649,103.017,503.301,103.29,504.052,103.358 M492.46,84.071
				c-0.138-0.205-0.376-0.342-0.719-0.411c-0.341,0-0.649,0.102-0.922,0.308c-0.274,0.273-0.411,0.547-0.411,0.821
				c-0.07,0.342,0.034,0.65,0.307,0.923c0.207,0.206,0.445,0.308,0.72,0.308c0.343,0.069,0.649,0,0.924-0.205
				c0.272-0.274,0.444-0.581,0.513-0.923C492.871,84.619,492.734,84.345,492.46,84.071z"/>
			<path fill="#F9F9F9" d="M543.447,135.264c-1.368-0.41-2.667-0.719-3.897-0.923l-0.206,2.667l0.206-2.667
				c-3.763-0.822-7.456-1.471-11.08-1.95l-0.205,2.462l0.205-2.462c-3.968-0.684-7.936-1.231-11.9-1.641l-0.309,3.18l0.309-3.18
				c-4.036-0.411-8.071-0.582-12.106-0.513l-0.82,2.667l0.82-2.667c-5.404-0.137-10.875,0.102-16.415,0.717v3.694v-3.694
				c-5.813,0.411-11.695,1.163-17.645,2.257l0.204,3.591l-0.204-3.591c-5.062,0.89-10.123,2.052-15.185,3.489l0.72,3.385
				l-0.72-3.385c-4.445,1.231-8.925,2.701-13.439,4.411c-0.137,0-0.273,0.034-0.411,0.102l1.129,4.001l-1.129-4.001
				c-1.778,0.547-3.556,1.164-5.334,1.848c-2.6,0.889-5.165,1.847-7.694,2.873l1.23,2.872l-1.23-2.872
				c-2.804,1.162-5.678,2.359-8.618,3.59l1.026,4.206l-1.026-4.206c-2.052,1.026-4.241,2.086-6.566,3.18
				c-3.146,7.045-3.042,12.79,0.309,17.235c2.599-0.479,4.958-1.333,7.078-2.564l-0.615-3.591l0.615,3.591
				c2.668-1.436,5.301-2.838,7.9-4.206l-1.333-3.078l1.333,3.078c3.351-1.573,6.737-3.112,10.157-4.617l-0.923-3.283l0.923,3.283
				c4.377-1.916,8.721-3.625,13.028-5.129l-0.513-3.488l0.513,3.488c1.573-0.615,3.148-1.162,4.719-1.641
				c2.12-0.684,4.276-1.3,6.464-1.847l-0.309-4.104l0.309,4.104c5.13-1.436,10.26-2.599,15.389-3.488l-0.102-3.181l0.102,3.181
				c6.088-0.89,12.107-1.471,18.056-1.744l0.615-3.385l-0.615,3.385c4.174-0.136,8.278-0.068,12.312,0.206l0.615-3.898l-0.615,3.898
				c4.446,0.273,8.822,0.718,13.133,1.333l0.614-3.078l-0.614,3.078c3.352,0.547,6.668,1.163,9.95,1.847l0.103-0.513l0.104-0.102
				l0.514-2.77l-0.514,2.77l-0.104,0.102l-0.103,0.513c2.873,0.616,5.713,1.368,8.516,2.257l0.924-2.771l-0.924,2.771
				c0.752,0.205,1.437,0.411,2.052,0.615c0.274,0.069,0.547,0.171,0.819,0.309l0.72-1.437
				C544.85,144.839,544.748,139.984,543.447,135.264z"/>
		</g>
	</g>
	<g>
		<path id="Layer0_0_1_STROKES" fill="none" stroke="#794D35" stroke-linecap="round" stroke-linejoin="round" d="M501.283,177.326
			c-0.068,0.069-0.103,0.171-0.103,0.308c-0.07,1.164-0.274,2.223-0.615,3.181 M495.025,175.274
			c-0.547-0.752-1.335-1.128-2.36-1.128c-0.956-0.069-1.846,0.273-2.667,1.026c-0.615,0.547-0.992,1.333-1.129,2.359
			c-0.069,0.958,0.171,1.847,0.718,2.667c0.139,0,0.206,0.034,0.206,0.103l0.103,0.103c0.615,0.411,1.332,0.65,2.154,0.718
			c1.025,0,1.879-0.273,2.564-0.821c0.821-0.752,1.267-1.608,1.335-2.564c0.136-0.821-0.104-1.573-0.72-2.257
			C495.161,175.412,495.093,175.344,495.025,175.274z M535.855,176.711c-0.545-0.685-1.265-1.026-2.154-1.026
			c-1.026,0-1.914,0.308-2.667,0.922c-0.686,0.547-1.06,1.334-1.128,2.36c0,0.957,0.238,1.813,0.717,2.565
			c0.07,0,0.103,0.034,0.103,0.102l0.104,0.103c0.683,0.479,1.435,0.718,2.256,0.718c1.026,0,1.779-0.273,2.256-0.821
			c0.89-0.684,1.335-1.539,1.335-2.564c0.136-0.752-0.103-1.471-0.718-2.154C535.959,176.848,535.923,176.779,535.855,176.711z
			 M524.058,178.25c0,0.068,0,0.136,0,0.206c-0.068,1.094,0.036,2.086,0.308,2.975 M483.432,175.891
			c-0.137,0.342-0.205,0.717-0.205,1.128c-0.069,1.162,0.034,2.291,0.307,3.385"/>
	</g>
	<g>
		<path id="Layer0_0_2_STROKES" fill="none" stroke="#7B4B37" stroke-width="2" stroke-linecap="round" stroke-linejoin="round" d="
			M520.775,166.247c0.272-0.136,0.615-0.308,1.025-0.513c5.815-2.052,11.149-2.497,16.004-1.333c2.667,0.82,4.378,2.086,5.13,3.796
			 M507.233,165.632c-4.378-2.189-11.217-3.455-20.518-3.796c-5.473,0.068-10.228,1.47-14.261,4.206"/>
	</g>
	<g>
		<path id="Layer0_0_3_STROKES" fill="none" stroke="#7B4B37" stroke-linecap="round" stroke-linejoin="round" d="M415.208,179.481
			l-0.204,6.463c1.367-4.104,3.282-7.421,5.745-9.951c3.488-1.163,6.463-1.06,8.926,0.307c5.676,2.599,8.549,7.285,8.617,14.055
			 M542.935,168.196l-1.026-16.005 M501.283,177.326c0.614,0.479,1.229,1.06,1.847,1.745c-0.89,0.615-1.745,1.197-2.564,1.744
			c-6.43,3.693-12.106,3.557-17.032-0.411c-1.025-0.889-2.016-1.915-2.973-3.078c0.957-0.547,1.915-1.026,2.871-1.436
			C490.408,172.813,496.357,173.292,501.283,177.326z M524.365,181.43c6.225,4.377,11.971,3.796,17.236-1.744
			c-5.472-5.609-11.32-6.086-17.544-1.436c-0.615,0.479-1.23,0.992-1.846,1.539C522.895,180.404,523.612,180.951,524.365,181.43z
			 M516.98,170.043c-0.411,0.889-0.173,2.633,0.717,5.231l8.516,19.903c2.735,5.061,3.11,9.473,1.129,13.233
			c-1.71,3.831-5.541,5.506-11.492,5.028 M512.979,276.224c1.505,0.068,3.008,0.137,4.515,0.207
			c7.113-4.036,12.139-10.191,15.08-18.467c3.146-8.207,5.883-15.459,8.207-21.751c0.068,0.137,1.402-6.155,4.002-18.876
			c2.599-12.652,2.222-26.4-1.129-41.242c-0.067-0.273-0.104-0.547-0.104-0.821s0-0.479,0-0.615c0-0.206,0-0.411,0-0.616
			c-0.205-0.274-0.445-0.479-0.718-0.615c-7.797-7.318-15.216-6.703-22.262,1.846 M543.55,174.043
			c-0.205-1.915-0.409-3.864-0.615-5.847 M430.289,187.073c-0.683-3.078-2.599-5.096-5.745-6.052
			c-6.019,1.436-6.566,8.036-1.642,19.8 M415.004,185.944c-0.479,2.667-0.411,6.258,0.204,10.772
			c2.531,5.608,5.985,10.738,10.362,15.389c0.615,0.615,1.196,1.128,1.745,1.539c3.555,2.667,6.736,2.292,9.541-1.129
			 M432.239,196.306l0.615-4.924c-2.804,1.916-5.471,2.701-8.002,2.359c2.873,2.325,4.445,5.471,4.719,9.438 M445.371,241.24
			c-0.685-1.505-1.231-3.043-1.641-4.616l-4.309-15.286 M427.315,213.644c1.299,13.954,0.547,25.306-2.257,34.061 M512.979,276.224
			c-11.217-1.025-22.264-3.01-33.138-5.949c-2.735-0.821-5.368-1.709-7.898-2.667c-2.052-1.162-4.002-2.326-5.85-3.488
			 M498.82,300.846c2.052-8.275,6.771-16.482,14.158-24.622 M516.672,209.746c-3.351-4.036-7.318-3.387-11.9,1.948 M504.669,174.249
			c-8.275-9.096-16.859-9.677-25.752-1.744"/>
	</g>
	<g>
		
			<path id="Layer0_0_4_STROKES" fill="none" stroke="#D7675B" stroke-width="0.5" stroke-linecap="round" stroke-linejoin="round" d="
			M531.034,232.008c-3.351-1.71-5.883-2.872-7.592-3.489c-1.642-0.615-2.667-0.921-3.078-0.921c-0.343,0-1.06,0.136-2.154,0.408
			c-1.094,0.274-2.224,0.309-3.386,0.104c-1.23-0.207-2.188-0.377-2.872-0.513c-0.89-0.137-1.572-0.275-2.052-0.411
			c-5.813,1.913-9.609,3.282-11.387,4.104 M494.203,234.161c5.13,2.395,9.542,3.865,13.235,4.412
			c3.692,0.479,6.019,0.754,6.977,0.822c0.958-0.068,3.728-0.137,8.31-0.207c4.583-0.136,7.386-1.469,8.412-4.001 M531.547,232.214
			l-0.513-0.206c0.136,0.206,0.204,0.376,0.204,0.513c0,0.07,0,0.138,0,0.206c-0.068,0.068-0.136,0.238-0.204,0.513"/>
	</g>
	<g>
		
			<path id="Layer0_0_5_STROKES" fill="none" stroke="#662B2B" stroke-width="0.3" stroke-linecap="round" stroke-linejoin="round" d="
			M531.034,233.239c-1.983-0.067-3.932-0.136-5.847-0.206c-8.003-0.343-16.244-0.343-24.727,0c-0.751,0-1.471,0-2.154,0"/>
	</g>
	<g>
		<path id="Layer0_0_6_STROKES" fill="none" stroke="#572B17" stroke-linecap="round" stroke-linejoin="round" d="M453.373,153.423
			c-0.206,0.615-0.581,1.333-1.13,2.154v0.206l-2.871,4.822c-3.215,1.573-5.506,4.377-6.874,8.413
			c-1.369,3.762-1.778,10.361-1.231,19.8c0.752,9.301-0.718,6.874-4.411-7.284c-3.351-4.856-6.976-7.387-10.875-7.592
			c-5.266-0.136-8.823,1.95-10.669,6.258l-0.104-0.717l-1.743-9.542"/>
	</g>
	<g>
		
			<path id="Layer0_0_7_STROKES" fill="none" stroke="#7B4B37" stroke-linecap="round" stroke-linejoin="round" stroke-opacity="0.502" d="
			M541.807,187.585c-6.224,5.335-12.003,5.13-17.339-0.615 M502.104,205.437c-5.883,10.669-13.269,19.731-22.161,27.185
			c-0.752,0.617-1.471,1.198-2.154,1.746 M525.803,252.937c-4.651-2.463-9.336-3.522-14.057-3.18 M522.416,269.659
			c-6.292,3.419-14.054,2.872-23.287-1.643 M511.746,249.757c-2.667,0.204-5.334,0.819-8.001,1.845 M529.187,209.13
			c2.188,8.892,5.234,17.611,9.131,26.161 M501.796,186.15c-5.402,5.403-13.064,5.608-22.981,0.615"/>
	</g>
	<g>
		<path id="Layer0_0_8_STROKES" fill="none" stroke="#333333" stroke-linecap="round" stroke-linejoin="round" d="M543.447,135.264
			c-1.368-0.41-2.667-0.719-3.897-0.923l-0.206,2.667 M504.463,130.238l-0.82,2.667 M516.569,130.75l-0.309,3.18 M528.265,134.854
			l0.205-2.462c-3.968-0.684-7.936-1.231-11.9-1.641c-4.036-0.411-8.071-0.582-12.106-0.513c-5.404-0.137-10.875,0.102-16.415,0.717
			v3.694 M542.217,150.96c-0.615-0.205-1.3-0.41-2.052-0.615c-2.803-0.89-5.643-1.641-8.516-2.257
			c-3.282-0.684-6.599-1.299-9.95-1.847c-4.311-0.615-8.687-1.06-13.133-1.333c-4.033-0.274-8.138-0.342-12.312-0.206
			c-5.948,0.273-11.968,0.854-18.056,1.744c-5.129,0.889-10.259,2.052-15.389,3.488c-2.188,0.547-4.344,1.163-6.464,1.847
			 M531.649,148.088l0.103-0.513l0.104-0.102l0.514-2.77 M521.699,146.241l0.614-3.078 M542.217,150.96
			c0.274,0.069,0.547,0.171,0.819,0.309 M543.756,149.832c1.094-4.993,0.992-9.848-0.309-14.568 M540.165,150.345l0.924-2.771
			 M539.55,134.341c-3.763-0.822-7.456-1.471-11.08-1.95 M508.566,144.908l0.615-3.898 M496.255,144.703l0.615-3.385
			 M455.219,136.701l0.72,3.385 M470.607,136.803l-0.204-3.591c5.949-1.094,11.832-1.846,17.645-2.257 M470.403,133.212
			c-5.062,0.89-10.123,2.052-15.185,3.489c-4.445,1.231-8.925,2.701-13.439,4.411c-0.137,0-0.273,0.034-0.411,0.102l1.129,4.001
			 M437.676,155.27l0.923,3.283c-3.42,1.505-6.806,3.044-10.157,4.617 M438.6,158.552c4.377-1.916,8.721-3.625,13.028-5.129
			l-0.513-3.488 M428.341,145.934l1.23,2.872 M413.156,152.705c2.325-1.094,4.515-2.154,6.566-3.18
			c2.94-1.231,5.814-2.428,8.618-3.59c2.529-1.026,5.094-1.984,7.694-2.873c1.778-0.684,3.556-1.3,5.334-1.848 M419.723,149.524
			l1.026,4.206 M413.465,169.939c2.599-0.479,4.958-1.333,7.078-2.564l-0.615-3.591 M413.156,152.705
			c-3.146,7.045-3.042,12.79,0.309,17.235 M420.543,167.375c2.668-1.436,5.301-2.838,7.9-4.206l-1.333-3.078 M478.199,146.447
			l-0.102-3.181 M462.811,149.935l-0.309-4.104 M451.628,153.423c1.573-0.615,3.148-1.162,4.719-1.641 M420.954,253.653
			c-0.752-1.845-0.787-3.554-0.104-5.129L403,272.941c1.026,1.026,2.052,2.086,3.078,3.181
			c22.433,22.159,46.542,35.464,72.326,39.908l1.334-17.132c-0.136-5.61-3.692-10.327-10.67-14.158
			c-16.14-5.884-31.598-15.217-46.37-28.009c-0.752-1.025-1.334-2.016-1.744-2.974V253.653z M420.851,248.524l3.489-1.948
			 M242.342,438.113l8.105-25.339c13.679-31.804,29.786-63.471,48.32-95.001c9.371-10.668,21.476-20.414,36.318-29.238
			c24.348-8.275,46.986-13.474,67.916-15.594 M478.404,316.03l-22.774,30.88c-17.852,29.408-33.548,59.675-47.09,90.793
			 M538.729,333.06c-6.292-6.43-12.79-12.857-19.492-19.286c-1.23-1.162-2.564-2.395-4.002-3.694
			c-5.744-4.581-7.762-11.388-6.053-20.414c7.523-2.873,11.594-5.917,12.209-9.131 M533.086,288.639l-12.209-11.183
			c0.479,1.026,0.651,2.052,0.514,3.078 M538.729,333.06c0.341,0.343,0.686,0.72,1.026,1.128
			c12.651,12.997,24.349,26.161,35.085,39.498c0.686,0.754,1.335,1.539,1.949,2.36c10.875,20.382,20.484,40.832,28.828,61.351
			 M658.658,437.19c-9.233-31.393-19.458-63.162-30.675-95.308c-22.981-20.519-54.614-38.266-94.897-53.244
			c-0.547,2.598-1.334,5.162-2.36,7.694c-2.461,5.813-6.292,11.626-11.489,17.44"/>
	</g>
	<g>
		<path id="Layer0_0_9_STROKES" fill="none" stroke="#360707" stroke-linecap="round" stroke-linejoin="round" d="M420.954,253.653
			l4-6.155c0.069,0.068,0.104,0.137,0.104,0.207c8.48,11.695,26.641,21.954,54.477,30.777c4.58,1.3,7.077,8.173,7.488,20.62
			c4.719,1.779,8.651,2.36,11.798,1.743 M494.203,437.601h0.103c19.288-30.162,34.096-65.009,44.423-104.541 M521.391,280.534
			l-2.053-3.387c-2.188,0.07-5.847,2.259-10.976,6.566c-5.2,5.13-7.388,10.432-6.566,15.901c-0.89,0.547-1.88,0.958-2.976,1.23
			 M552.168,437.499c8.958-19.493,16.517-40.763,22.672-63.813"/>
	</g>
	<g>
		<path id="Layer0_0_10_STROKES" fill="none" stroke="#A4582B" stroke-linecap="round" stroke-linejoin="round" d="M514.619,53.089
			c0.958,1.162,1.607,2.461,1.95,3.898c10.121-1.504,16.585,2.12,19.39,10.875c0.478,3.899,0.171,7.729-0.924,11.49l-2.975-9.028
			c-0.137,1.71-0.548,3.249-1.23,4.617c-0.617,1.368-1.437,2.77-2.463,4.206c-2.258,1.983-4.719,2.976-7.388,2.976
			c1.915,3.967,2.701,7.42,2.36,10.361c2.393-3.146,4.515-4.342,6.359-3.591l-3.486,9.336c-6.636,6.908-12.483,5.026-17.545-5.643
			v-5.437c2.806-0.069,5.507,1.812,8.105,5.643l1.232-15.389c-3.831,3.214-7.558,4.377-11.183,3.487l4.104-7.387
			c1.846-1.709,3.214-4.035,4.104-6.976c0.956-2.736,1.469-5.916,1.539-9.541 M484.355,53.396l-2.77,1.437
			c0.89-0.411,1.777-0.788,2.667-1.129c4.24-1.573,8.412-2.292,12.516-2.154c1.505,2.667,2.122,6.086,1.847,10.259
			c-0.206,4.104-1.334,7.796-3.386,11.08l2.976,8.72c-4.65-0.479-8.755-2.223-12.312-5.232l1.539,16.517
			c9.029-6.703,12.651-6.601,10.874,0.308c-8.068,12.243-17.883,14.089-29.442,5.54l-2.873-5.129
			c0.343-4.72,2.564-4.686,6.668,0.102c3.829-4.104,4.206-9.369,1.128-15.798c-2.528-1.026-5.71-0.069-9.539,2.873l-2.771-5.13
			c-0.752-1.642-1.88-2.634-3.385-2.976c-0.069-0.034-0.138-0.068-0.206-0.102h-0.204l-0.205-0.206
			c-1.847,1.71-2.736,3.727-2.669,6.054l-0.819,5.333c-3.83-2.599-7.694-1.948-11.593,1.95c-1.573,4.856,0.445,9.849,6.053,14.978
			c2.325-5.061,3.795-7.831,4.412-8.31c1.916-0.068,2.974,1.06,3.18,3.385l-2.976,6.772c-6.771,11.421-15.525,12.824-26.263,4.206
			l-0.718-4.206c2.667-0.274,5.505,0.102,8.515,1.128l-4.104-15.696c-1.641,4.651-4.309,7.763-8.002,9.335
			c-0.752-5.061-0.479-9.78,0.821-14.157l-0.411,0.102l-18.876,7.49c1.505,0.684,2.838,1.402,4,2.154
			c3.283,1.916,5.746,4.036,7.387,6.361c-2.735,0.136-5.471-0.513-8.208-1.95c-0.41-0.273-0.854-0.581-1.333-0.923l4.719,17.441
			c1.368-4.515,3.351-7.559,5.951-9.131l0.615,5.541l-1.231,13.439l-5.335-9.848l1.744,10.259l0.308,8.412
			c36.865-21.749,78.517-28.041,124.957-18.876l0.103-18.877l2.052-23.801c0.479-3.761-0.581-8.07-3.181-12.926
			c-6.566-4.856-13.884-6.497-21.955-4.924c-2.188-2.804-5.814-4.446-10.874-4.924l-12.518,1.539L484.355,53.396
			c0.067-0.411,0.102-0.821,0.102-1.231c0.07-0.889,0.034-1.744-0.102-2.565c-12.927-1.231-23.869,0.854-32.83,6.259
			c0.615,2.531,1.88,4.787,3.796,6.771c2.873,3.352,6.668,5.13,11.389,5.335c1.435,0.068,2.804-0.034,4.104-0.308
			c5.267-4.035,8.789-8.276,10.566-12.722c0.069-0.034,0.138-0.068,0.206-0.102 M495.332,66.426l-0.103,6.463 M515.03,66.528
			c7.182,1.505,12.447,4.309,15.8,8.413 M478.404,67.554c2.805-3.009,4.789-6.395,5.951-10.156
			c7.249-4.173,11.112-3.694,11.594,1.436l-0.617,7.592C489.519,66.426,483.876,66.801,478.404,67.554
			c-0.684,0.684-1.435,1.368-2.257,2.052c-5.266,3.419-11.284,4.445-18.056,3.078 M543.447,135.264l-5.847-21.646 M467.428,17.387
			l-2.36,4.821l-2.257-4.411 M454.706,26.312l3.692,1.847l-4.616,4.104 M451.525,55.859c-0.341-1.505-0.444-3.078-0.307-4.72
			c0.409-4.514,2.393-8.344,5.949-11.491c1.573-1.367,3.318-2.393,5.232-3.078v-4.308c-4.446,2.052-9.163,5.574-14.158,10.567
			l-3.59-2.462c1.163-4.309,2.804-8.31,4.924-12.003L448.653,17.9c4.171,3.831,8.242,5.95,12.208,6.36l-8.31-12.311
			c8.207,1.642,16.174,1.471,23.904-0.513l-6.361,11.285c3.557-0.684,6.942-2.838,10.157-6.463l1.229,9.131
			c3.146,4.104,5.267,8.413,6.362,12.926h-5.13c-2.462-3.078-5.813-5.096-10.055-6.053l-0.204,3.693
			c3.077,0.685,5.744,2.223,8.001,4.617c2.258,2.599,3.559,5.608,3.899,9.028 M472.455,35.956c-0.958-0.273-1.983-0.445-3.078-0.513
			c-2.53-0.068-4.854,0.308-6.977,1.128 M478.404,29.595l-4.924-2.564l3.385-1.641 M422.902,83.25l-0.204-0.205
			c-0.069-0.205-0.104-0.411-0.104-0.616c-0.479-0.957-0.752-2.086-0.82-3.386c-0.479-2.736-0.411-5.984,0.206-9.746
			c6.771-9.507,15.354-10.327,25.75-2.462l4.822,2.565l4.925,2.975 M423.313,83.148c-0.206,0-0.411-0.034-0.615-0.103
			 M470.813,67.657c-0.48,0.273-0.923,0.581-1.334,0.923c-5.608,0.752-11.319-0.787-17.132-4.617
			c-9.167-6.361-18.434-7.762-27.803-4.206l-18.774,10.156c-5.882,6.019-6.464,12.961-1.744,20.827 M421.774,79.044
			c8.208-4.856,18.466-8.071,30.777-9.644 M412.644,132.494l0.513,20.211 M408.027,92.894l-0.821,4.411"/>
	</g>
	<g>
		
			<path id="Layer0_0_11_STROKES" fill="none" stroke="#333333" stroke-width="0.5" stroke-linecap="round" stroke-linejoin="round" d="
			M508.362,58.013c-0.479-0.752-1.097-1.162-1.848-1.231c-0.752,0-1.4,0.411-1.95,1.231c-0.615,0.752-0.957,1.745-1.025,2.976
			c-0.068,1.23,0.136,2.256,0.617,3.078c0.341,0.889,0.89,1.333,1.641,1.333c0.752,0.068,1.469-0.342,2.154-1.231
			c0.479-0.752,0.785-1.744,0.924-2.976C509.011,59.962,508.841,58.902,508.362,58.013z M502.206,76.582
			c0.479,0.479,0.956,0.718,1.437,0.718c0.546,0,1.026-0.205,1.436-0.615c0.41-0.341,0.648-0.786,0.719-1.333
			c0.068-0.479-0.138-0.958-0.615-1.437c-0.274-0.411-0.685-0.615-1.232-0.615c-0.547,0-1.06,0.205-1.538,0.615
			c-0.343,0.342-0.548,0.752-0.615,1.231C501.728,75.693,501.863,76.172,502.206,76.582z M492.46,84.071
			c-0.138-0.205-0.376-0.342-0.719-0.411c-0.341,0-0.649,0.102-0.922,0.308c-0.274,0.273-0.411,0.547-0.411,0.821
			c-0.07,0.342,0.034,0.65,0.307,0.923c0.207,0.206,0.445,0.308,0.72,0.308c0.343,0.069,0.649,0,0.924-0.205
			c0.272-0.274,0.444-0.581,0.513-0.923C492.871,84.619,492.734,84.345,492.46,84.071z M505.182,83.866
			c-0.48-0.616-1.025-0.924-1.643-0.924c-0.615,0-1.128,0.273-1.539,0.82c-0.545,0.479-0.854,1.026-0.922,1.642
			c-0.068,0.615,0.137,1.163,0.615,1.641c0.411,0.479,0.924,0.719,1.539,0.719s1.23-0.171,1.846-0.513
			c0.41-0.479,0.648-1.026,0.719-1.641C505.865,84.994,505.659,84.413,505.182,83.866z M514.415,83.25
			c-0.343-0.273-0.753-0.41-1.232-0.41c-0.343,0-0.683,0.102-1.025,0.308c-0.343,0.341-0.547,0.718-0.615,1.128
			c0,0.411,0.172,0.788,0.513,1.129c0.137,0.342,0.411,0.513,0.821,0.513c0.409,0,0.854-0.137,1.333-0.411
			c0.343-0.342,0.513-0.718,0.513-1.128C514.792,83.968,514.688,83.593,514.415,83.25z M525.803,83.353
			c-0.547,0.342-0.822,0.821-0.822,1.436c0,0.547,0.171,1.026,0.514,1.437c0.274,0.411,0.583,0.615,0.924,0.615
			c0.41,0,0.821-0.205,1.229-0.615c0.343-0.273,0.514-0.718,0.514-1.333c0-0.616-0.068-1.129-0.205-1.539
			c-0.34-0.341-0.717-0.513-1.128-0.513C526.418,82.84,526.077,83.012,525.803,83.353z M535.035,83.148
			c-0.41-0.752-0.889-1.128-1.437-1.128c-0.547-0.069-1.025,0.273-1.437,1.026c-0.479,0.889-0.751,1.915-0.819,3.078
			c-0.068,1.094,0.068,2.052,0.409,2.872c0.206,0.821,0.581,1.266,1.13,1.333c0.615,0,1.196-0.411,1.743-1.231
			c0.41-0.752,0.686-1.675,0.821-2.77C535.515,85.166,535.378,84.105,535.035,83.148z M531.958,122.44
			c-0.07,0.958,0.238,1.813,0.924,2.565c0.683,0.684,1.471,1.06,2.358,1.129c1.025-0.069,1.881-0.411,2.564-1.026
			c0.821-0.684,1.265-1.505,1.335-2.462c0.067-0.958-0.239-1.813-0.924-2.565c-0.547-0.82-1.335-1.197-2.36-1.128
			c-0.89-0.069-1.777,0.273-2.667,1.026C532.505,120.662,532.094,121.483,531.958,122.44z M501.796,100.69
			c-0.068,0.685,0.034,1.3,0.309,1.848c0.545,0.479,1.196,0.751,1.947,0.82c0.686,0,1.301-0.239,1.848-0.718
			c0.479-0.479,0.753-1.094,0.821-1.846c0.068-0.752-0.136-1.334-0.617-1.745c-0.341-0.547-0.89-0.82-1.641-0.82
			c-0.752-0.069-1.437,0.136-2.052,0.615C502.068,99.323,501.863,99.939,501.796,100.69z M499.026,118.029
			c-0.136,1.368,0.238,2.531,1.128,3.489c0.888,1.162,2.018,1.743,3.385,1.743c1.368,0.069,2.601-0.41,3.694-1.436
			c1.095-0.89,1.71-2.018,1.846-3.385c0.07-1.368-0.343-2.564-1.23-3.59c-0.957-1.095-2.122-1.676-3.488-1.745
			c-1.366,0-2.53,0.479-3.488,1.436C499.71,115.498,499.095,116.661,499.026,118.029z M519.953,120.491
			c-0.067,0.684,0.137,1.265,0.617,1.744c0.478,0.411,1.059,0.65,1.743,0.718c0.686,0,1.23-0.206,1.642-0.615
			c0.615-0.479,0.958-1.06,1.025-1.744c0-0.752-0.204-1.437-0.615-2.052c-0.41-0.342-0.957-0.513-1.641-0.513
			c-0.684-0.068-1.265,0.102-1.745,0.513C520.296,119.021,519.953,119.67,519.953,120.491z M466.606,30.724
			c0.685,0,1.334-0.24,1.949-0.718c0.615-0.479,0.924-1.094,0.924-1.847c0.068-0.752-0.137-1.402-0.615-1.95
			c-0.479-0.479-1.06-0.718-1.745-0.718c-0.752-0.068-1.402,0.103-1.948,0.513c-0.549,0.547-0.89,1.197-1.025,1.95
			c0,0.752,0.238,1.367,0.718,1.846C465.273,30.347,465.854,30.655,466.606,30.724z M408.745,73.504
			c-0.82,0.274-1.401,0.89-1.744,1.847c-0.136,0.957-0.136,1.949,0,2.975c0.343,1.026,0.821,1.88,1.437,2.565
			c0.752,0.616,1.573,0.854,2.463,0.718c0.683-0.273,1.23-0.958,1.641-2.052c0.138-0.89,0.068-1.813-0.205-2.77
			c-0.273-1.094-0.718-2.018-1.333-2.771C410.182,73.401,409.429,73.23,408.745,73.504z M416.132,88.585
			c-0.684,0-1.197,0.137-1.539,0.411c-0.411,0.479-0.684,0.992-0.82,1.539c0,0.547,0.239,0.957,0.718,1.231
			c0.205,0.684,0.649,1.026,1.333,1.026c0.547,0,1.128-0.275,1.744-0.822c0.342-0.342,0.513-0.751,0.513-1.23
			c0.136-0.616,0.034-1.129-0.309-1.539C417.226,88.791,416.679,88.585,416.132,88.585z M447.524,90.329
			c0.548,0.068,1.026-0.102,1.437-0.513c0.342-0.274,0.547-0.685,0.615-1.231c0-0.615-0.136-1.128-0.41-1.539
			c-0.343-0.273-0.821-0.444-1.437-0.513c-0.547,0-0.958,0.137-1.231,0.411c-0.478,0.41-0.752,0.923-0.821,1.539
			c0,0.547,0.206,0.957,0.616,1.231C446.499,90.124,446.909,90.329,447.524,90.329z M459.529,86.841
			c0.408,0,0.751-0.479,1.025-1.436c0.068-0.958,0.068-2.018,0-3.181c0-1.23-0.172-2.188-0.513-2.873
			c-0.343-0.82-0.72-1.265-1.13-1.333c-0.341,0.068-0.582,0.615-0.718,1.641c-0.411,0.822-0.513,1.813-0.309,2.976
			c0,1.162,0.24,2.188,0.72,3.078C458.81,86.533,459.118,86.91,459.529,86.841z M469.275,83.25c-0.068,0.479,0,0.89,0.204,1.231
			c0.341,0.273,0.753,0.411,1.23,0.411c0.48,0.068,0.855-0.034,1.13-0.308c0.408-0.343,0.615-0.752,0.615-1.231
			c0-0.411-0.139-0.82-0.411-1.231c-0.204-0.274-0.513-0.445-0.924-0.513c-0.479,0-0.955,0.136-1.437,0.411
			C469.411,82.43,469.275,82.84,469.275,83.25z M463.528,118.85c-1.026,0.89-1.571,1.916-1.642,3.078
			c-0.136,1.163,0.207,2.223,1.026,3.181c0.821,0.889,1.777,1.333,2.873,1.333c1.162,0,2.188-0.341,3.078-1.026
			c1.026-0.958,1.573-2.018,1.641-3.181c0.068-1.163-0.272-2.188-1.025-3.078c-0.821-0.957-1.812-1.436-2.976-1.436
			C465.273,117.652,464.281,118.029,463.528,118.85z M486.92,117.311c-0.068,0-0.137,0-0.204,0l-0.207-0.102h-0.102
			 M484.047,120.491c0,0.068-0.032,0.137-0.103,0.205c0.139,1.026,0.479,1.813,1.026,2.36c0.342,0.547,0.821,0.787,1.437,0.717
			c0.41,0,0.717-0.068,0.924-0.204c0.41-0.137,0.683-0.343,0.819-0.616c0.068-0.068,0.104-0.136,0.104-0.206
			c0.068-0.136,0.171-0.273,0.307-0.41c0.07-0.273,0.103-0.547,0.103-0.82c0.137-0.343,0.206-0.752,0.206-1.231
			c0-1.026-0.238-1.778-0.719-2.257c-0.341-0.411-0.752-0.649-1.23-0.718 M486.407,117.208c-0.754,0.068-1.335,0.41-1.743,1.026
			c-0.55,0.615-0.754,1.367-0.617,2.257 M428.341,100.178c0.478,0,0.957-0.17,1.436-0.513c0.479-0.479,0.787-1.026,0.924-1.641
			c0-0.547-0.24-0.992-0.718-1.333c-0.411-0.547-0.855-0.82-1.333-0.82c-0.547,0-1.06,0.238-1.539,0.717
			c-0.547,0.274-0.82,0.684-0.82,1.231c-0.138,0.616,0.068,1.197,0.615,1.744C427.383,99.973,427.862,100.178,428.341,100.178z
			 M418.491,100.486c-0.547,0.479-0.82,1.026-0.82,1.641c-0.068,0.615,0.068,1.128,0.411,1.539c0.478,0.479,1.026,0.718,1.641,0.718
			c0.684,0,1.231-0.205,1.641-0.616c0.411-0.341,0.65-0.82,0.718-1.436c0-0.616-0.136-1.163-0.41-1.642
			c-0.411-0.547-0.958-0.82-1.642-0.82C419.415,99.87,418.902,100.075,418.491,100.486z M412.028,103.974
			c0-0.479-0.103-0.889-0.308-1.231c-0.273-0.273-0.616-0.444-1.026-0.513c-0.479,0-0.924,0.137-1.333,0.411
			c-0.343,0.342-0.513,0.752-0.513,1.231c0,0.479,0.103,0.854,0.308,1.128c0.273,0.411,0.649,0.616,1.128,0.616
			c0.479,0,0.89-0.171,1.231-0.513C411.857,104.828,412.028,104.453,412.028,103.974z M420.851,114.849
			c0,0.683,0.137,1.299,0.411,1.846c0.411,0.479,0.992,0.752,1.744,0.82c0.683,0,1.299-0.239,1.846-0.718
			c0.615-0.479,0.924-1.06,0.924-1.744c0.068-0.751-0.137-1.401-0.616-1.949c-0.41-0.411-0.958-0.616-1.641-0.616
			c-0.752-0.068-1.402,0.104-1.95,0.513C421.09,113.48,420.851,114.097,420.851,114.849z M431.623,136.803
			c0.821-0.957,1.299-2.223,1.437-3.796c0.137-1.436-0.171-2.667-0.924-3.693c-0.82-1.162-1.778-1.778-2.873-1.847
			c-1.026,0-2.018,0.513-2.974,1.539c-0.958,1.026-1.471,2.291-1.539,3.796c-0.137,1.505,0.204,2.735,1.026,3.693
			c0.683,1.162,1.539,1.745,2.565,1.745C429.503,138.308,430.597,137.829,431.623,136.803z M445.165,130.238
			c0.547,0.683,1.094,0.922,1.642,0.717c0.683,0.069,1.265-0.376,1.743-1.333c0.206-0.821,0.273-1.641,0.206-2.462
			c-0.068-1.095-0.308-1.949-0.718-2.564c-0.752-0.616-1.436-0.89-2.052-0.822c-0.547,0.137-0.991,0.616-1.333,1.437
			c-0.41,0.615-0.615,1.437-0.615,2.462C444.378,128.835,444.755,129.69,445.165,130.238z"/>
	</g>
</g>
</svg>
