<svg xmlns="http://www.w3.org/2000/svg" width="900" height="450" viewBox="0 0 900 450"><g><linearGradient id="a" gradientUnits="userSpaceOnUse" x1="636.616" y1="28.39" x2="321.612" y2="38.956" gradientTransform="matrix(1 0 0 -1 29.04 379.34)"><stop offset="0" stop-color="#7c1010"/><stop offset="1" stop-color="#4b0a0a"/></linearGradient><path fill="url(#a)" d="M576.789 376.046a32.076 32.076 0 0 0-1.949-2.36c-6.155 23.051-13.714 44.32-22.672 63.813l53.449-.103c-8.344-20.518-17.953-40.968-28.828-61.35M424.954 247.498l-4 6.155v.104c.41.958.992 1.948 1.744 2.974 14.772 12.792 30.23 22.125 46.37 28.009 6.978 3.831 10.534 8.548 10.67 14.158l-1.334 17.132-22.774 30.88c-17.852 29.408-33.548 59.675-47.09 90.793l85.664-.103h.103c19.288-30.162 34.096-65.009 44.423-104.541a866.987 866.987 0 0 0-19.492-19.286 244.405 244.405 0 0 0-4.002-3.694c-5.744-4.581-7.762-11.388-6.053-20.414 7.523-2.873 11.594-5.917 12.209-9.131l-2.053-3.387c-2.188.07-5.847 2.259-10.976 6.566-5.2 5.13-7.388 10.432-6.566 15.901-.89.547-1.88.958-2.976 1.23-3.146.617-7.079.036-11.798-1.743-.411-12.447-2.908-19.32-7.488-20.62-27.836-8.823-45.996-19.082-54.477-30.777 0-.069-.035-.138-.104-.206z"/><path fill="#544BC2" d="M539.755 334.188a18.023 18.023 0 0 0-1.026-1.128c-10.327 39.532-25.135 74.379-44.423 104.541l57.862-.102c8.958-19.493 16.517-40.763 22.672-63.813-10.736-13.337-22.434-26.501-35.085-39.498z"/><linearGradient id="b" gradientUnits="userSpaceOnUse" x1="661.571" y1="12.267" x2="483.73" y2="18.217" gradientTransform="matrix(1 0 0 -1 29.04 379.34)"><stop offset="0" stop-color="#d5d5d5"/><stop offset="1" stop-color="#fff"/></linearGradient><path fill="url(#b)" d="M519.236 313.773a866.987 866.987 0 0 1 19.492 19.286c.341.343.686.72 1.026 1.128 12.651 12.997 24.349 26.161 35.085 39.498a31.825 31.825 0 0 1 1.949 2.36c10.875 20.382 20.484 40.832 28.828 61.351l53.041-.206c-9.233-31.393-19.458-63.162-30.675-95.308-22.981-20.519-54.614-38.266-94.897-53.244a45.32 45.32 0 0 1-2.36 7.694c-2.46 5.814-6.291 11.627-11.489 17.441z"/><linearGradient id="c" gradientUnits="userSpaceOnUse" x1="503.4" y1="83.301" x2="479.445" y2="84.122" gradientTransform="matrix(1 0 0 -1 29.04 379.34)"><stop offset="0" stop-color="#d5d5d5"/><stop offset="1" stop-color="#fff"/></linearGradient><path fill="url(#c)" d="M520.877 277.456c.479 1.026.651 2.052.514 3.078-.615 3.214-4.686 6.258-12.209 9.131-1.709 9.026.309 15.833 6.053 20.414 1.438 1.3 2.771 2.532 4.002 3.694 5.197-5.814 9.028-11.627 11.489-17.44a45.347 45.347 0 0 0 2.36-7.694l-12.209-11.183z"/><linearGradient id="d" gradientUnits="userSpaceOnUse" x1="443.462" y1="18.761" x2="195.447" y2="27.122" gradientTransform="matrix(1 0 0 -1 29.04 379.34)"><stop offset="0" stop-color="#d5d5d5"/><stop offset="1" stop-color="#fff"/></linearGradient><path fill="url(#d)" d="M403 272.941c-20.929 2.12-43.567 7.318-67.916 15.594-14.842 8.824-26.947 18.57-36.318 29.238-18.535 31.53-34.642 63.197-48.32 95.001l-8.105 25.339 166.198-.41c13.542-31.118 29.239-61.385 47.09-90.793l22.774-30.88c-25.784-4.444-49.894-17.749-72.326-39.908a136.029 136.029 0 0 0-3.077-3.181z"/><linearGradient id="e" gradientUnits="userSpaceOnUse" x1="452.053" y1="96.034" x2="373.623" y2="98.598" gradientTransform="matrix(1 0 0 -1 29.04 379.34)"><stop offset="0" stop-color="#d5d5d5"/><stop offset="1" stop-color="#fff"/></linearGradient><path fill="url(#e)" d="M420.954 253.653c-.752-1.845-.787-3.554-.104-5.129L403 272.941a136.115 136.115 0 0 1 3.078 3.181c22.433 22.159 46.542 35.464 72.326 39.908l1.334-17.132c-.136-5.61-3.692-10.327-10.67-14.158-16.14-5.884-31.598-15.217-46.37-28.009-.752-1.025-1.334-2.016-1.744-2.974v-.104z"/><path fill="#E39975" fill-opacity=".392" d="M449.474 159.167h.102c.206-.204.548-.649 1.026-1.333a2.61 2.61 0 0 1-.615.616 2.748 2.748 0 0 0-.513.717m74.379-8.924c2.052.068 4.48.581 7.284 1.539 2.667.751 5.199 1.162 7.592 1.23 1.641.069 2.701-.205 3.18-.821.207-.273.309-.581.309-.922v-.309c-.615-.205-1.3-.41-2.052-.615a91.542 91.542 0 0 0-8.516-2.257 233.353 233.353 0 0 0-9.95-1.847 164.194 164.194 0 0 0-13.133-1.333 122.656 122.656 0 0 0-12.312-.206c-5.948.273-11.968.854-18.056 1.744a155.737 155.737 0 0 0-15.389 3.488 100.186 100.186 0 0 0-6.464 1.847c-1.298.751-2.29 1.299-2.974 1.641 8.616-.958 14.327-1.675 17.132-2.154 2.737-.685 8.071-1.471 16.004-2.361 8.755-1.094 14.501-1.607 17.236-1.539 3.421.137 7.352.582 11.798 1.334 4.925 1.028 7.695 1.541 8.311 1.541z"/><path fill="#E39975" fill-opacity=".49" d="M451.219 157.014l-.104.102v.103l-.205.103a5.291 5.291 0 0 0-.309.513c-.478.685-.82 1.129-1.026 1.333-.615.958-.683 1.437-.204 1.437l2.871-4.822c-.271.341-.614.752-1.023 1.231m74.07 110.9c-.342-.888-.89-1.332-1.641-1.332-.686-.068-1.575.513-2.669 1.743-1.162 1.094-2.393 1.471-3.693 1.128-1.3-.274-2.153-.547-2.564-.819-.684-.274-1.301-.445-1.846-.513-1.162 0-2.428.136-3.797.408-1.3.411-2.052.617-2.256.617-.752 0-3.112-1.232-7.079-3.694-2.806-1.571-4.309-1.196-4.515 1.13-.068 1.641 1.709 3.282 5.336 4.923 3.555 1.505 6.839 2.326 9.849 2.463 3.146 0 6.053-.479 8.72-1.437 2.667-.888 4.343-1.846 5.027-2.872.752-.957 1.128-1.538 1.128-1.745m-2.873 1.745c-6.292 3.419-14.054 2.872-23.287-1.643 9.233 4.515 16.995 5.062 23.287 1.643m3.387-16.722a2.422 2.422 0 0 0 1.437-.718c.341-.48.513-.855.513-1.13.137-1.503-1.471-2.597-4.823-3.282-2.326-.41-3.933-.24-4.82.514-.684-.479-1.505-.718-2.463-.718-.753-.068-1.642-.274-2.667-.617-.684-.272-1.096.24-1.232 1.539.068.48.068.89 0 1.232 4.719-.343 9.403.717 14.055 3.18z"/><path fill="#77422B" d="M438.6 158.552a458.723 458.723 0 0 0-10.157 4.617 967.464 967.464 0 0 0-7.9 4.206c-2.12 1.231-4.479 2.086-7.078 2.564l1.743 9.542.104.717c1.846-4.308 5.403-6.394 10.669-6.258 3.899.206 7.524 2.736 10.875 7.592 3.693 14.157 5.164 16.585 4.411 7.284-.547-9.438-.137-16.038 1.231-19.8 1.368-4.036 3.659-6.84 6.874-8.413-.479 0-.411-.479.204-1.437h-.102c.137-.273.308-.513.513-.717a2.61 2.61 0 0 0 .615-.616 5.02 5.02 0 0 1 .309-.513l.205-.103v-.103l.104-.102c.409-.479.752-.89 1.024-1.231v-.206c.549-.82.924-1.539 1.13-2.154.684-.342 1.676-.89 2.974-1.641a65.296 65.296 0 0 0-4.719 1.641 184.31 184.31 0 0 0-13.029 5.131z"/><path fill="#900" d="M416.542 104.692c-2.6 1.573-4.583 4.617-5.951 9.131l5.335 9.848 1.231-13.439-.615-5.54m-1.128-5.437c-1.641-2.325-4.104-4.445-7.387-6.361l-.821 4.411c2.736 1.437 5.473 2.086 8.208 1.95m7.181-16.825c0 .205.034.411.104.616.204.068.41.103.615.103-1.3 4.377-1.573 9.097-.821 14.157 3.693-1.573 6.361-4.685 8.002-9.335l4.104 15.696c-3.009-1.026-5.848-1.402-8.515-1.128l.718 4.206c10.737 8.618 19.492 7.215 26.263-4.206l2.976-6.772c-.206-2.325-1.264-3.453-3.18-3.385-.617.479-2.087 3.249-4.412 8.31-5.608-5.129-7.626-10.122-6.053-14.978 3.899-3.898 7.763-4.548 11.593-1.95l.819-5.333c-.067-2.327.822-4.343 2.669-6.054l-4.925-2.975c-12.311 1.573-22.57 4.788-30.777 9.644.068 1.298.341 2.427.82 3.384m46.269-56.221a2.374 2.374 0 0 0-1.745-.718c-.752-.068-1.402.103-1.948.513a3.586 3.586 0 0 0-1.025 1.95c0 .752.238 1.367.718 1.846.41.547.991.854 1.743.924.685 0 1.334-.24 1.949-.718.615-.479.924-1.094.924-1.847.068-.752-.137-1.402-.616-1.95m-20.826 98.386c-.752-.616-1.436-.89-2.052-.822-.547.137-.991.616-1.333 1.437-.41.615-.615 1.437-.615 2.462.341 1.162.718 2.018 1.128 2.565.547.683 1.094.922 1.642.717.683.069 1.265-.376 1.743-1.333.206-.821.273-1.641.206-2.462-.069-1.094-.309-1.949-.719-2.564m38.882-7.284h-.204l-.207-.102h-.102c-.547.068-1.026.375-1.437.922-.548.616-.856 1.403-.924 2.36 0 .068-.032.137-.103.205.139 1.026.479 1.813 1.026 2.36.342.547.821.787 1.437.717.41 0 .717-.068.924-.204.41-.137.683-.343.819-.616.068-.068.104-.136.104-.206.068-.136.171-.273.307-.41a3.29 3.29 0 0 0 .103-.82c.137-.343.206-.752.206-1.231 0-1.026-.238-1.778-.719-2.257-.34-.411-.752-.65-1.23-.718m37.035 5.027c.615-.479.958-1.06 1.025-1.744 0-.752-.204-1.437-.615-2.052-.41-.342-.957-.513-1.641-.513-.684-.068-1.265.102-1.745.513-.684.479-1.026 1.128-1.026 1.949-.067.684.137 1.265.617 1.744.478.411 1.059.65 1.743.718.686 0 1.231-.205 1.642-.615m-13.028-48.834l-4.104 7.387c3.625.89 7.352-.273 11.183-3.487l-1.232 15.389c-2.599-3.831-5.3-5.712-8.105-5.643v5.437c5.062 10.669 10.909 12.55 17.545 5.643l3.486-9.336c-1.845-.751-3.967.445-6.359 3.591.341-2.941-.445-6.394-2.36-10.361 2.669 0 5.13-.992 7.388-2.976 1.026-1.436 1.846-2.838 2.463-4.206-3.353-4.104-8.618-6.908-15.8-8.413-.891 2.94-2.26 5.265-4.105 6.975m-15.698-.615l.103-6.463c-5.813 0-11.456.375-16.928 1.128a33.407 33.407 0 0 1-2.257 2.052c-5.266 3.419-11.284 4.445-18.056 3.078 1.505.342 2.633 1.333 3.385 2.976l2.771 5.13c3.829-2.942 7.011-3.898 9.539-2.873 3.078 6.429 2.701 11.695-1.128 15.798-4.104-4.788-6.325-4.822-6.668-.102l2.873 5.129c11.56 8.549 21.374 6.703 29.442-5.54 1.777-6.908-1.845-7.01-10.874-.308l-1.539-16.517c3.557 3.009 7.661 4.753 12.312 5.232l-2.975-8.72m-82.893 3.898c-.273-1.094-.718-2.018-1.333-2.771-.821-.615-1.573-.786-2.257-.513-.82.274-1.401.89-1.744 1.847a10.894 10.894 0 0 0 0 2.975c.343 1.026.821 1.88 1.437 2.565.752.616 1.573.854 2.463.718.683-.273 1.23-.958 1.641-2.052.136-.889.066-1.811-.207-2.769m-.615 25.955a1.845 1.845 0 0 0-1.026-.513 2.35 2.35 0 0 0-1.333.411 1.675 1.675 0 0 0-.513 1.231c0 .479.103.854.308 1.128.273.411.649.616 1.128.616.479 0 .89-.171 1.231-.513.342-.274.513-.65.513-1.129s-.103-.888-.308-1.231m10.361-.409c0-.616-.136-1.163-.41-1.642-.411-.547-.958-.82-1.642-.82-.615 0-1.128.205-1.539.616-.547.479-.82 1.026-.82 1.641-.068.615.068 1.128.411 1.539.478.479 1.026.718 1.641.718.684 0 1.231-.205 1.641-.616.41-.342.65-.821.718-1.436m6.259-2.155c.478 0 .957-.17 1.436-.513.479-.479.787-1.026.924-1.641 0-.547-.24-.992-.718-1.333-.411-.547-.855-.82-1.333-.82-.547 0-1.06.238-1.539.717-.547.274-.82.684-.82 1.231-.138.616.068 1.197.615 1.744.477.41.956.615 1.435.615m41.343-18.158c-.272.41-.408.821-.408 1.23-.068.479 0 .89.204 1.231.341.273.753.411 1.23.411.48.068.855-.034 1.13-.308.408-.343.615-.752.615-1.231 0-.411-.139-.82-.411-1.231-.204-.274-.513-.445-.924-.513-.478 0-.955.136-1.436.411m-11.49-2.361c-.411.822-.513 1.813-.309 2.976 0 1.162.24 2.188.72 3.078.204.821.513 1.197.924 1.128.408 0 .751-.479 1.025-1.436.068-.958.068-2.018 0-3.181 0-1.23-.172-2.188-.513-2.873-.343-.82-.72-1.265-1.13-1.333-.34.068-.581.615-.717 1.641m-11.695 7.285c-.478.41-.752.923-.821 1.539 0 .547.206.957.616 1.231.205.41.615.615 1.23.615.548.068 1.026-.102 1.437-.513.342-.274.547-.685.615-1.231 0-.615-.136-1.128-.41-1.539-.343-.273-.821-.444-1.437-.513-.546 0-.957.137-1.23.411m-28.726 2.257c-.547-.411-1.094-.616-1.641-.616-.684 0-1.197.137-1.539.411-.411.479-.684.992-.82 1.539 0 .547.239.957.718 1.231.205.684.649 1.026 1.333 1.026.547 0 1.128-.275 1.744-.822.342-.342.513-.751.513-1.23.137-.616.035-1.129-.308-1.539m113.57-3.077c-.068 1.094.068 2.052.409 2.872.206.821.581 1.266 1.13 1.333.615 0 1.196-.411 1.743-1.231.41-.752.686-1.675.821-2.77.068-1.162-.068-2.222-.411-3.18-.41-.752-.889-1.128-1.437-1.128-.547-.069-1.025.273-1.437 1.026-.477.888-.75 1.914-.818 3.078m-4.515-3.284c-.41 0-.751.171-1.025.513-.547.342-.822.821-.822 1.436 0 .547.171 1.026.514 1.437.274.411.583.615.924.615.41 0 .821-.205 1.229-.615.343-.273.514-.718.514-1.333 0-.616-.068-1.129-.205-1.539-.341-.342-.718-.514-1.129-.514m-13.645 0c-.343 0-.683.102-1.025.308-.343.341-.547.718-.615 1.128 0 .411.172.788.513 1.129.137.342.411.513.821.513.409 0 .854-.137 1.333-.411.343-.342.513-.718.513-1.128.07-.411-.034-.786-.307-1.129-.344-.273-.754-.41-1.233-.41m-9.951 4.925c.615 0 1.23-.171 1.846-.513a3 3 0 0 0 .719-1.641c.068-.616-.138-1.197-.615-1.744-.48-.616-1.025-.924-1.643-.924-.615 0-1.128.273-1.539.82-.545.479-.854 1.026-.922 1.642-.068.615.137 1.163.615 1.641.411.479.924.719 1.539.719m-.821-13.85a2.106 2.106 0 0 0-.615 1.231c-.068.547.067 1.026.41 1.436.479.479.956.718 1.437.718.546 0 1.026-.205 1.436-.615.41-.341.648-.786.719-1.333.068-.479-.138-.958-.615-1.437-.274-.411-.685-.615-1.232-.615-.549-.001-1.061.204-1.54.615m5.54-9.747c.479-.752.785-1.744.924-2.976.136-1.23-.034-2.291-.513-3.18-.479-.752-1.097-1.162-1.848-1.231-.752 0-1.4.411-1.95 1.231-.615.752-.957 1.745-1.025 2.976-.068 1.23.136 2.256.617 3.078.341.889.89 1.333 1.641 1.333.752.069 1.469-.341 2.154-1.231z"/><path fill="#FFFF62" d="M481.38 54.935l.206-.102 2.77-1.437c.067-.411.102-.821.102-1.231.07-.889.034-1.744-.102-2.565-12.927-1.231-23.869.854-32.83 6.259.615 2.531 1.88 4.787 3.796 6.771 2.873 3.352 6.668 5.13 11.389 5.335a16.138 16.138 0 0 0 4.104-.308c5.265-4.035 8.788-8.277 10.565-12.722m-59.4 14.363c-.616 3.762-.685 7.01-.206 9.746 8.208-4.856 18.466-8.071 30.777-9.644l-4.822-2.565c-10.395-7.864-18.979-7.044-25.749 2.463m47.397-33.855c-2.53-.068-4.854.308-6.977 1.128a16.27 16.27 0 0 0-5.232 3.078c-3.557 3.147-5.54 6.977-5.949 11.491a15.404 15.404 0 0 0 .307 4.72c8.961-5.404 19.903-7.49 32.83-6.259-.341-3.419-1.642-6.429-3.899-9.028-2.257-2.394-4.924-3.932-8.001-4.617a14.433 14.433 0 0 0-3.079-.513m-6.977-3.18v4.308c2.122-.82 4.446-1.196 6.977-1.128 1.095.068 2.12.239 3.078.513l.204-3.693c4.242.957 7.593 2.975 10.055 6.053h5.13c-1.096-4.514-3.216-8.823-6.362-12.926l-1.229-9.131c-3.215 3.625-6.601 5.78-10.157 6.463l6.361-11.285c-7.73 1.984-15.697 2.155-23.904.513l8.31 12.311c-3.966-.41-8.037-2.529-12.208-6.36l.923 10.464c-2.12 3.694-3.761 7.694-4.924 12.003l3.59 2.462c4.993-4.994 9.71-8.516 14.156-10.567m2.667-10.055l-2.257-4.411 2.257 4.411 2.36-4.821-2.36 4.821m2.052 3.283c.686 0 1.267.239 1.745.718.479.547.684 1.197.615 1.95 0 .752-.309 1.368-.924 1.847-.615.479-1.265.718-1.949.718-.752-.069-1.333-.377-1.743-.924-.479-.479-.718-1.094-.718-1.846a3.602 3.602 0 0 1 1.025-1.95c.547-.41 1.197-.581 1.949-.513m-8.721 2.668l-4.616 4.104 4.616-4.104-3.692-1.847 3.692 1.847m15.082-1.129l3.385-1.641-3.385 1.641 4.924 2.564-4.924-2.564m66.07 107.311c1.23.204 2.529.513 3.897.923l-5.847-21.646c-46.44-9.165-88.092-2.873-124.957 18.876l.513 20.211a304.437 304.437 0 0 0 6.566-3.18 2548.74 2548.74 0 0 1 8.618-3.59 146.808 146.808 0 0 1 7.694-2.873 82.68 82.68 0 0 1 5.334-1.848.914.914 0 0 1 .411-.102c4.514-1.71 8.994-3.18 13.439-4.411a151.882 151.882 0 0 1 15.185-3.489 159.874 159.874 0 0 1 17.645-2.257c5.54-.615 11.011-.854 16.415-.717 4.035-.069 8.07.102 12.106.513 3.965.41 7.933.957 11.9 1.641a134.88 134.88 0 0 1 11.081 1.949m-.41-11.695c-.07.958-.514 1.778-1.335 2.462-.684.615-1.539.957-2.564 1.026-.888-.069-1.676-.445-2.358-1.129-.686-.752-.994-1.607-.924-2.565a4.239 4.239 0 0 1 1.23-2.461c.89-.752 1.777-1.095 2.667-1.026 1.025-.069 1.813.308 2.36 1.128.684.752.991 1.607.924 2.565m-34.78-9.542c1.366.068 2.531.649 3.488 1.745.888 1.026 1.301 2.222 1.23 3.59-.136 1.368-.751 2.496-1.846 3.385-1.094 1.026-2.326 1.505-3.694 1.436-1.367 0-2.497-.581-3.385-1.743-.89-.958-1.264-2.121-1.128-3.489.068-1.368.684-2.531 1.846-3.488.959-.957 2.123-1.436 3.489-1.436m20.62 7.49c-.067.684-.41 1.265-1.025 1.744-.411.41-.956.615-1.642.615-.685-.068-1.266-.308-1.743-.718-.48-.479-.685-1.06-.617-1.744 0-.821.343-1.471 1.026-1.949.48-.411 1.062-.581 1.745-.513.684 0 1.23.171 1.641.513.411.615.615 1.299.615 2.052m-61.452-1.744c.753-.821 1.745-1.197 2.976-1.128 1.164 0 2.154.479 2.976 1.436a4.214 4.214 0 0 1 1.025 3.078c-.067 1.163-.614 2.223-1.641 3.181-.89.685-1.916 1.026-3.078 1.026-1.096 0-2.052-.445-2.873-1.333-.819-.958-1.162-2.018-1.026-3.181.07-1.164.615-2.19 1.641-3.079m23.188-1.539h.204c.615.069 1.128.376 1.539.924.341.615.513 1.401.513 2.359a3.676 3.676 0 0 1-.309.924c0 .273-.032.547-.103.82a1.617 1.617 0 0 0-.307.41c0 .069-.035.137-.104.206-.137.273-.409.479-.819.616-.343.273-.72.41-1.129.41-.685-.068-1.231-.444-1.643-1.128-.409-.547-.615-1.265-.615-2.155.07-.068.103-.136.103-.205-.137-.89.067-1.642.617-2.257.408-.616.989-.958 1.743-1.026h.102l.208.102m-61.966 15.491c.068-1.505.581-2.77 1.539-3.796.957-1.026 1.948-1.539 2.974-1.539 1.094.068 2.052.685 2.873 1.847.752 1.026 1.061 2.257.924 3.693-.137 1.573-.615 2.839-1.437 3.796-1.026 1.026-2.12 1.505-3.282 1.437-1.026 0-1.882-.583-2.565-1.745-.822-.957-1.163-2.188-1.026-3.693m21.235-9.029c.616-.068 1.3.206 2.052.822.411.615.65 1.47.718 2.564.068.821 0 1.641-.206 2.462-.478.958-1.06 1.402-1.743 1.333-.548.205-1.095-.034-1.642-.717-.41-.547-.787-1.403-1.128-2.565 0-1.026.205-1.848.615-2.462.344-.82.787-1.299 1.334-1.437m38.679-5.539c-.55.615-.754 1.367-.617 2.257.067-.958.376-1.744.924-2.36.41-.547.89-.854 1.437-.922-.755.067-1.336.409-1.744 1.025m10.668-51.808l.617-7.592c-.481-5.129-4.345-5.608-11.594-1.436-1.162 3.761-3.146 7.147-5.951 10.156 5.472-.753 11.115-1.128 16.928-1.128m19.698.102c7.182 1.505 12.447 4.309 15.8 8.413.683-1.368 1.094-2.906 1.23-4.617l2.975 9.028a28.365 28.365 0 0 0 .924-11.49c-2.805-8.754-9.269-12.379-19.39-10.875-.07 3.625-.583 6.805-1.539 9.541m-16.415-4.719c.275-4.173-.342-7.592-1.847-10.259-4.104-.137-8.275.581-12.516 2.154-.89.341-1.777.718-2.667 1.129l-.206.102c-1.777 4.445-5.3 8.687-10.566 12.722-.48.273-.923.581-1.334.923-5.608.752-11.319-.787-17.132-4.617-9.167-6.361-18.434-7.762-27.803-4.206L405.77 69.913c-5.882 6.019-6.464 12.961-1.744 20.827l18.876-7.49-.204-.205a1.924 1.924 0 0 1-.104-.616c-.479-.957-.752-2.086-.82-3.386-.479-2.736-.411-5.984.206-9.746 6.771-9.507 15.354-10.327 25.75-2.462l4.822 2.565 4.925 2.975.205.206h.204l.206.102c6.771 1.368 12.79.342 18.056-3.078a33.407 33.407 0 0 0 2.257-2.052c2.805-3.009 4.789-6.395 5.951-10.156 7.249-4.173 11.112-3.694 11.594 1.436l-.617 7.592-.103 6.463c2.051-3.283 3.179-6.975 3.385-11.079m-87.613 12.208c.615.752 1.06 1.676 1.333 2.771.273.958.343 1.88.205 2.77-.411 1.094-.958 1.778-1.641 2.052-.89.136-1.71-.102-2.463-.718-.615-.685-1.094-1.539-1.437-2.565a10.894 10.894 0 0 1 0-2.975c.343-.958.924-1.573 1.744-1.847.686-.275 1.439-.104 2.259.512m103.617-20.928a9.534 9.534 0 0 1 1.95 3.898c10.121-1.504 16.585 2.12 19.39 10.875a28.346 28.346 0 0 1-.924 11.49l-2.975-9.028c-.137 1.71-.548 3.249-1.23 4.617-.617 1.368-1.437 2.77-2.463 4.206-2.258 1.983-4.719 2.976-7.388 2.976 1.915 3.967 2.701 7.42 2.36 10.361 2.393-3.146 4.515-4.342 6.359-3.591l-3.486 9.336c-6.636 6.908-12.483 5.026-17.545-5.643v-5.437c2.806-.069 5.507 1.812 8.105 5.643l1.232-15.389c-3.831 3.214-7.558 4.377-11.183 3.487l4.104-7.387c1.846-1.709 3.214-4.035 4.104-6.976.956-2.736 1.469-5.916 1.539-9.541a9.51 9.51 0 0 0-1.949-3.897c-2.188-2.804-5.814-4.446-10.874-4.924l-12.518 1.539-6.872 3.693-2.77 1.437c.89-.411 1.777-.788 2.667-1.129 4.24-1.573 8.412-2.292 12.516-2.154 1.505 2.667 2.122 6.086 1.847 10.259-.206 4.104-1.334 7.796-3.386 11.08l2.976 8.72c-4.65-.479-8.755-2.223-12.312-5.232l1.539 16.517c9.029-6.703 12.651-6.601 10.874.308-8.068 12.243-17.883 14.089-29.442 5.54l-2.873-5.129c.343-4.72 2.564-4.686 6.668.102 3.829-4.104 4.206-9.369 1.128-15.798-2.528-1.026-5.71-.069-9.539 2.873l-2.771-5.13c-.752-1.642-1.88-2.634-3.385-2.976l-.206-.102h-.204l-.205-.206c-1.847 1.71-2.736 3.727-2.669 6.054l-.819 5.333c-3.83-2.599-7.694-1.948-11.593 1.95-1.573 4.856.445 9.849 6.053 14.978 2.325-5.061 3.795-7.831 4.412-8.31 1.916-.068 2.974 1.06 3.18 3.385l-2.976 6.772c-6.771 11.421-15.525 12.824-26.263 4.206l-.718-4.206c2.667-.274 5.505.102 8.515 1.128l-4.104-15.696c-1.641 4.651-4.309 7.763-8.002 9.335-.752-5.061-.479-9.78.821-14.157l-.411.102-18.876 7.49c1.505.684 2.838 1.402 4 2.154 3.283 1.916 5.746 4.036 7.387 6.361-2.735.136-5.471-.513-8.208-1.95-.41-.273-.854-.581-1.333-.923l4.719 17.441c1.368-4.515 3.351-7.559 5.951-9.131l.615 5.541-1.231 13.439-5.335-9.848 1.744 10.259.308 8.412c36.865-21.749 78.517-28.041 124.957-18.876l.103-18.877 2.052-23.801c.479-3.761-.581-8.07-3.181-12.926-6.567-4.859-13.885-6.5-21.956-4.927m-5.744 8.104c-.139 1.231-.445 2.223-.924 2.976-.686.89-1.402 1.299-2.154 1.231-.751 0-1.3-.445-1.641-1.333-.481-.822-.686-1.848-.617-3.078.068-1.231.41-2.223 1.025-2.976.55-.82 1.198-1.231 1.95-1.231.751.069 1.368.479 1.848 1.231.479.889.649 1.949.513 3.18m-7.079 13.953c.067-.479.272-.89.615-1.231.479-.411.991-.615 1.538-.615.548 0 .958.205 1.232.615.478.479.684.958.615 1.437a2 2 0 0 1-.719 1.333c-.409.41-.89.615-1.436.615-.48 0-.957-.239-1.437-.718-.341-.41-.476-.889-.408-1.436m-10.055 8.515c.343.068.581.206.719.411.274.274.411.547.411.821a1.79 1.79 0 0 1-.513.923c-.274.205-.581.274-.924.205a.988.988 0 0 1-.72-.308c-.272-.273-.377-.581-.307-.923 0-.274.137-.547.411-.821.274-.206.582-.308.923-.308m13.337 3.59c-.615.342-1.23.513-1.846.513s-1.128-.24-1.539-.719c-.479-.479-.684-1.026-.615-1.641.068-.616.377-1.163.922-1.642.411-.547.924-.82 1.539-.82.617 0 1.162.308 1.643.924.478.547.684 1.128.615 1.744a2.989 2.989 0 0 1-.719 1.641m7.079-4.103c.343-.206.683-.308 1.025-.308.479 0 .89.136 1.232.41.272.343.377.718.307 1.129 0 .41-.17.787-.513 1.128-.479.273-.924.411-1.333.411-.41 0-.685-.171-.821-.513-.341-.341-.513-.718-.513-1.129.069-.41.273-.787.616-1.128m13.646.205c.274-.341.615-.513 1.025-.513.411 0 .788.171 1.128.513.137.41.205.923.205 1.539 0 .615-.171 1.06-.514 1.333-.408.411-.819.615-1.229.615-.341 0-.649-.205-.924-.615a2.174 2.174 0 0 1-.514-1.437c0-.614.276-1.093.823-1.435m5.949 5.643c-.341-.82-.478-1.778-.409-2.872.068-1.164.341-2.189.819-3.078.411-.752.89-1.095 1.437-1.026.548 0 1.026.376 1.437 1.128.343.958.479 2.018.411 3.18-.136 1.095-.411 2.018-.821 2.77-.547.821-1.128 1.231-1.743 1.231-.55-.068-.925-.513-1.131-1.333m-25.853 13.644c-.547.479-1.162.718-1.848.718a3.342 3.342 0 0 1-1.947-.82c-.274-.547-.377-1.163-.309-1.848.067-.751.272-1.368.615-1.846.615-.479 1.3-.685 2.052-.615.751 0 1.3.273 1.641.82.481.411.686.992.617 1.745-.068.752-.342 1.367-.821 1.846m-89.767-14.055c.547 0 1.094.206 1.641.616.343.41.445.923.309 1.539 0 .479-.171.889-.513 1.23-.616.547-1.197.822-1.744.822-.684 0-1.129-.343-1.333-1.026-.479-.274-.718-.684-.718-1.231.136-.547.41-1.06.82-1.539.341-.274.854-.411 1.538-.411m29.546-.102a2.297 2.297 0 0 1 .821-1.539c.273-.273.684-.411 1.231-.411.616.069 1.094.239 1.437.513.273.411.41.924.41 1.539-.068.547-.273.958-.615 1.231-.411.411-.889.581-1.437.513-.615 0-1.026-.205-1.23-.615-.412-.275-.617-.684-.617-1.231m12.208-5.848c-.204-1.162-.103-2.154.309-2.976.136-1.026.377-1.573.718-1.641.41.068.787.513 1.13 1.333.341.685.513 1.642.513 2.873a24.769 24.769 0 0 1 0 3.181c-.274.957-.617 1.436-1.025 1.436-.411.069-.72-.308-.924-1.128-.481-.89-.721-1.916-.721-3.078m11.389.615c0-.41.136-.82.408-1.23.481-.274.958-.411 1.437-.411.411.068.72.239.924.513.272.411.411.82.411 1.231 0 .479-.207.889-.615 1.231-.274.273-.649.375-1.13.308-.478 0-.89-.137-1.23-.411-.205-.341-.273-.752-.205-1.231m-39.499 16.415c-.479.343-.958.513-1.436.513-.479 0-.958-.205-1.437-.615-.547-.547-.752-1.128-.615-1.744 0-.547.273-.957.82-1.231.479-.479.992-.717 1.539-.717.479 0 .922.273 1.333.82.479.342.718.787.718 1.333-.135.615-.443 1.162-.922 1.641m-8.104 1.025c.273.479.41 1.026.41 1.642-.068.615-.308 1.094-.718 1.436-.41.411-.957.616-1.641.616-.615 0-1.163-.239-1.641-.718-.343-.411-.479-.924-.411-1.539 0-.615.273-1.162.82-1.641.411-.411.924-.616 1.539-.616.684 0 1.232.274 1.642.82m-10.977 1.539c.41.069.752.239 1.026.513.205.343.308.752.308 1.231s-.171.854-.513 1.129a1.677 1.677 0 0 1-1.231.513c-.479 0-.855-.206-1.128-.616-.205-.273-.308-.649-.308-1.128 0-.479.17-.89.513-1.231a2.357 2.357 0 0 1 1.333-.411m14.465 10.875c.479.547.684 1.197.616 1.949 0 .684-.309 1.266-.924 1.744-.547.479-1.163.718-1.846.718-.752-.068-1.333-.341-1.744-.82-.274-.547-.411-1.163-.411-1.846 0-.752.24-1.369.718-1.848.547-.41 1.197-.581 1.95-.513.683 0 1.231.206 1.641.616z"/><path fill="#EFBD9C" d="M531.137 151.782c-2.804-.958-5.232-1.471-7.284-1.539-.615 0-3.386-.513-8.31-1.539-4.446-.752-8.377-1.197-11.798-1.334-2.735-.068-8.481.445-17.236 1.539-7.933.89-13.267 1.676-16.004 2.361-2.805.479-8.516 1.196-17.132 2.154-.206.615-.581 1.333-1.13 2.154v.206l-2.871 4.822c-3.215 1.573-5.506 4.377-6.874 8.413-1.369 3.762-1.778 10.361-1.231 19.8.752 9.301-.718 6.874-4.411-7.284-3.351-4.856-6.976-7.387-10.875-7.592-5.266-.136-8.823 1.95-10.669 6.258l-.104-.717-.204 6.463c1.367-4.104 3.282-7.421 5.745-9.951 3.488-1.163 6.463-1.06 8.926.307 5.676 2.599 8.549 7.285 8.617 14.055-.068-6.771-2.94-11.456-8.617-14.055-2.463-1.367-5.438-1.47-8.926-.307-2.462 2.53-4.377 5.848-5.745 9.951-.479 2.667-.411 6.258.204 10.772 2.531 5.608 5.985 10.738 10.362 15.389a16.466 16.466 0 0 0 1.745 1.539c3.555 2.667 6.736 2.292 9.541-1.129-2.804 3.42-5.985 3.796-9.541 1.129 1.299 13.954.547 25.306-2.257 34.061 8.48 11.695 26.641 21.954 54.477 30.777 4.58 1.3 7.077 8.173 7.488 20.62 4.719 1.779 8.651 2.36 11.798 1.743 2.052-8.275 6.771-16.482 14.158-24.622a194.677 194.677 0 0 1-33.138-5.949 118.57 118.57 0 0 0 0 0 194.677 194.677 0 0 0 33.138 5.949l4.515.207c7.113-4.036 12.139-10.191 15.08-18.467a1927.639 1927.639 0 0 0 8.207-21.751c.068.137 1.402-6.155 4.002-18.876 2.599-12.652 2.222-26.4-1.129-41.242-.067-.273-.104-.547-.104-.821v-.615-.616a2.025 2.025 0 0 0-.718-.615c-7.797-7.318-15.216-6.703-22.262 1.846 7.046-8.549 14.465-9.164 22.262-1.846.272.136.513.341.718.615-.205-1.915-.409-3.864-.615-5.847-.752-1.71-2.463-2.976-5.13-3.796-4.854-1.163-10.188-.718-16.004 1.333l-1.025.513 1.025-.513c5.815-2.052 11.149-2.497 16.004-1.333 2.667.82 4.378 2.086 5.13 3.796l-1.026-16.005c-.479.616-1.539.89-3.18.821-2.393-.07-4.925-.481-7.592-1.232m-29.854 25.544c.614.479 1.229 1.06 1.847 1.745-.89.615-1.745 1.197-2.564 1.744-6.43 3.693-12.106 3.557-17.032-.411a25.54 25.54 0 0 1-2.973-3.078 28.153 28.153 0 0 1 2.871-1.436c6.976-3.077 12.925-2.598 17.851 1.436m15.697-7.283c-.411.889-.173 2.633.717 5.231l8.516 19.903c2.735 5.061 3.11 9.473 1.129 13.233-1.71 3.831-5.541 5.506-11.492 5.028 5.951.479 9.782-1.197 11.492-5.028 1.981-3.761 1.606-8.173-1.129-13.233l-8.516-19.903c-.889-2.598-1.128-4.342-.717-5.231m7.385 11.387a16.183 16.183 0 0 1-2.153-1.641c.615-.547 1.23-1.06 1.846-1.539 6.224-4.65 12.072-4.173 17.544 1.436-5.266 5.54-11.012 6.121-17.237 1.744m17.442 6.155c-6.224 5.335-12.003 5.13-17.339-.615 5.336 5.745 11.115 5.95 17.339.615m-111.518-.512c-.683-3.078-2.599-5.096-5.745-6.052-6.019 1.436-6.566 8.036-1.642 19.8-4.924-11.764-4.377-18.364 1.642-19.8 3.146.956 5.062 2.974 5.745 6.052m56.427-25.238c-5.473.068-10.228 1.47-14.261 4.206 4.033-2.736 8.788-4.137 14.261-4.206 9.301.342 16.14 1.607 20.518 3.796-4.379-2.189-11.217-3.454-20.518-3.796m-6.773 70.787c8.893-7.454 16.278-16.516 22.161-27.185-5.882 10.669-13.268 19.731-22.161 27.185m-55.091-38.881c2.873 2.325 4.445 5.471 4.719 9.438-.274-3.967-1.846-7.113-4.719-9.438 2.531.341 5.198-.444 8.002-2.359l-.615 4.924.615-4.924c-2.804 1.915-5.471 2.701-8.002 2.359m20.519 47.499a28.432 28.432 0 0 1-1.641-4.616l-4.309-15.286 4.309 15.286a28.338 28.338 0 0 0 1.641 4.616m53.143-9.95c1.777-.821 5.574-2.19 11.387-4.104.479.136 1.162.274 2.052.411.684.136 1.642.306 2.872.513a8.06 8.06 0 0 0 3.386-.104c1.095-.272 1.812-.408 2.154-.408.411 0 1.437.306 3.078.921 1.709.617 4.241 1.779 7.592 3.489l.513.206.514-.309c.34-.341.033.753-.924 3.282-1.026 2.532-3.829 3.865-8.412 4.001-4.582.07-7.352.139-8.31.207-.958-.068-3.284-.343-6.977-.822-3.693-.547-8.105-2.018-13.235-4.412 1.096-1.162 2.53-2.12 4.31-2.871m18.158-21.544c-3.351-4.036-7.318-3.387-11.9 1.948 4.582-5.335 8.549-5.984 11.9-1.948m10.567 42.473c-.411.409-.89.649-1.437.718-4.651-2.463-9.336-3.522-14.057-3.18-2.667.204-5.334.819-8.001 1.845 2.667-1.025 5.334-1.641 8.001-1.845.068-.343.068-.752 0-1.232.137-1.299.549-1.812 1.232-1.539 1.025.343 1.914.549 2.667.617.958 0 1.779.238 2.463.718.888-.754 2.494-.924 4.82-.514 3.353.686 4.96 1.779 4.823 3.282.002.274-.17.649-.511 1.13m-3.591 14.363c.751 0 1.299.444 1.641 1.332 0 .207-.376.788-1.128 1.745-.685 1.026-2.36 1.984-5.027 2.872-2.667.957-5.574 1.437-8.72 1.437-3.01-.137-6.294-.958-9.849-2.463-3.627-1.641-5.404-3.282-5.336-4.923.206-2.326 1.709-2.701 4.515-1.13 3.967 2.462 6.327 3.694 7.079 3.694.204 0 .956-.206 2.256-.617 1.369-.272 2.635-.408 3.797-.408.545.067 1.162.238 1.846.513.411.272 1.265.545 2.564.819 1.301.343 2.531-.034 3.693-1.128 1.094-1.23 1.984-1.811 2.669-1.743m5.539-57.452c2.188 8.892 5.234 17.611 9.131 26.161-3.897-8.55-6.943-17.27-9.131-26.161m-27.391-22.98c-5.402 5.403-13.064 5.608-22.981.615 9.916 4.993 17.579 4.788 22.981-.615m2.873-11.901c-8.275-9.096-16.859-9.677-25.752-1.744 8.893-7.933 17.477-7.352 25.752 1.744z"/><path fill="#DE8076" d="M500.461 233.033h-2.154 2.154c8.482-.343 16.724-.343 24.727 0 1.915.07 3.863.139 5.847.206.068-.274.136-.444.204-.513v-.206c0-.137-.068-.307-.204-.513-3.351-1.71-5.883-2.872-7.592-3.489-1.642-.615-2.667-.921-3.078-.921-.343 0-1.06.136-2.154.408a8.044 8.044 0 0 1-3.386.104 106.48 106.48 0 0 1-2.872-.513c-.89-.137-1.572-.275-2.052-.411-5.813 1.913-9.609 3.282-11.387 4.104-1.779.751-3.214 1.709-4.311 2.871 5.13 2.395 9.542 3.865 13.235 4.412 3.692.479 6.019.754 6.977.822.958-.068 3.728-.137 8.31-.207 4.583-.136 7.386-1.469 8.412-4.001.957-2.529 1.264-3.623.924-3.282l-.514.309-.513-.206c.136.206.204.376.204.513v.206c-.068.068-.136.238-.204.513-1.983-.067-3.932-.136-5.847-.206-8.002-.343-16.244-.343-24.726 0z"/><path fill="#EEE" d="M524.058 178.25v.206c-.068 1.094.036 2.086.308 2.975 6.225 4.377 11.971 3.796 17.236-1.744-5.472-5.61-11.321-6.087-17.544-1.437m5.641.718c.137-1.095.55-1.916 1.232-2.462.752-.684 1.676-1.026 2.77-1.026.89 0 1.609.376 2.154 1.128.136.069.206.137.206.206.547.684.787 1.437.718 2.257 0 1.026-.443 1.916-1.333 2.667-.549.547-1.334.821-2.36.821-.821 0-1.607-.239-2.36-.718l-.103-.103c0-.068-.033-.103-.102-.103a4.724 4.724 0 0 1-.822-2.667m-28.518-1.334c0-.136.034-.238.103-.308-4.926-4.034-10.875-4.513-17.852-1.436a3.003 3.003 0 0 0-.205 1.128 11.17 11.17 0 0 0 .307 3.385c4.926 3.967 10.603 4.104 17.032.411.34-.957.544-2.017.615-3.18m-8.516-3.488c1.025 0 1.813.375 2.36 1.128l.204.206c.615.684.855 1.437.72 2.257-.068.957-.514 1.813-1.335 2.564-.686.547-1.539.821-2.564.821-.822-.068-1.539-.308-2.154-.718l-.103-.103c0-.069-.067-.103-.206-.103-.547-.82-.787-1.709-.718-2.667.137-1.026.514-1.813 1.129-2.359.821-.752 1.711-1.095 2.667-1.026z"/><path d="M531.034 176.608c-.686.547-1.06 1.334-1.128 2.36 0 .957.238 1.813.717 2.565.07 0 .103.034.103.102l.104.103a3.843 3.843 0 0 0 2.256.718c1.026 0 1.779-.273 2.256-.821.89-.684 1.335-1.539 1.335-2.564.136-.752-.103-1.471-.718-2.154 0-.069-.036-.137-.104-.205-.545-.685-1.265-1.026-2.154-1.026-1.026 0-1.914.307-2.667.922m-36.009-1.334c-.547-.752-1.335-1.128-2.36-1.128-.956-.069-1.846.273-2.667 1.026-.615.547-.992 1.333-1.129 2.359-.069.958.171 1.847.718 2.667.139 0 .206.034.206.103l.103.103c.615.411 1.332.65 2.154.718 1.025 0 1.879-.273 2.564-.821.821-.752 1.267-1.608 1.335-2.564.136-.821-.104-1.573-.72-2.257l-.204-.206z"/><path fill="#F6F6F6" d="M426.289 129.006c-.958 1.026-1.471 2.291-1.539 3.796-.137 1.505.204 2.735 1.026 3.693.683 1.162 1.539 1.745 2.565 1.745 1.162.068 2.256-.411 3.282-1.437.821-.957 1.299-2.223 1.437-3.796.137-1.436-.171-2.667-.924-3.693-.82-1.162-1.778-1.778-2.873-1.847-1.026 0-2.017.513-2.974 1.539m59.913-5.027c.409 0 .786-.136 1.129-.41-.207.136-.514.204-.924.204-.615.069-1.095-.17-1.437-.717-.548-.547-.888-1.334-1.026-2.36 0 .89.206 1.608.615 2.155.412.684.959 1.06 1.643 1.128m2.461-2.461c.137-.275.24-.583.309-.924 0-.958-.172-1.744-.513-2.359-.411-.547-.924-.855-1.539-.924.479.069.89.308 1.23.718.48.479.719 1.231.719 2.257 0 .479-.069.889-.206 1.232m-22.159-3.797c-1.23-.069-2.223.308-2.976 1.128-1.026.89-1.571 1.916-1.642 3.078-.136 1.163.207 2.223 1.026 3.181.821.889 1.777 1.333 2.873 1.333 1.162 0 2.188-.341 3.078-1.026 1.026-.958 1.573-2.018 1.641-3.181.068-1.163-.272-2.188-1.025-3.078-.821-.956-1.811-1.435-2.975-1.435m41.345-2.872c-.957-1.095-2.122-1.676-3.488-1.745-1.366 0-2.53.479-3.488 1.436-1.162.958-1.777 2.121-1.846 3.488-.136 1.368.238 2.531 1.128 3.489.888 1.162 2.018 1.743 3.385 1.743 1.368.069 2.601-.41 3.694-1.436 1.095-.89 1.71-2.018 1.846-3.385.069-1.368-.344-2.564-1.231-3.59m29.956 10.259c.821-.684 1.265-1.505 1.335-2.462.067-.958-.239-1.813-.924-2.565-.547-.82-1.335-1.197-2.36-1.128-.89-.069-1.777.273-2.667 1.026a4.23 4.23 0 0 0-1.23 2.461c-.07.958.238 1.813.924 2.565.683.684 1.471 1.06 2.358 1.129 1.025-.069 1.88-.411 2.564-1.026m-112.029-10.055c.068-.751-.137-1.401-.616-1.949-.41-.411-.958-.616-1.641-.616-.752-.068-1.402.104-1.95.513-.479.479-.718 1.095-.718 1.848 0 .683.137 1.299.411 1.846.411.479.992.752 1.744.82.683 0 1.299-.239 1.846-.718.615-.478.924-1.06.924-1.744m78.276-11.695c.686 0 1.301-.239 1.848-.718.479-.479.753-1.094.821-1.846.068-.752-.136-1.334-.617-1.745-.341-.547-.89-.82-1.641-.82-.752-.069-1.437.136-2.052.615-.343.479-.548 1.095-.615 1.846-.068.685.034 1.3.309 1.848a3.326 3.326 0 0 0 1.947.82M492.46 84.071c-.138-.205-.376-.342-.719-.411-.341 0-.649.102-.922.308-.274.273-.411.547-.411.821-.07.342.034.65.307.923a.986.986 0 0 0 .72.308c.343.069.649 0 .924-.205.272-.274.444-.581.513-.923-.001-.273-.138-.547-.412-.821z"/><path fill="#F9F9F9" d="M543.447 135.264a31.695 31.695 0 0 0-3.897-.923l-.206 2.667.206-2.667a134.52 134.52 0 0 0-11.08-1.95l-.205 2.462.205-2.462a177.62 177.62 0 0 0-11.9-1.641l-.309 3.18.309-3.18a102.147 102.147 0 0 0-12.106-.513l-.82 2.667.82-2.667a120.866 120.866 0 0 0-16.415.717v3.694-3.694a159.904 159.904 0 0 0-17.645 2.257l.204 3.591-.204-3.591a151.882 151.882 0 0 0-15.185 3.489l.72 3.385-.72-3.385a153.864 153.864 0 0 0-13.439 4.411.92.92 0 0 0-.411.102l1.129 4.001-1.129-4.001a82.077 82.077 0 0 0-5.334 1.848c-2.6.889-5.165 1.847-7.694 2.873l1.23 2.872-1.23-2.872a2548.74 2548.74 0 0 0-8.618 3.59l1.026 4.206-1.026-4.206a306.734 306.734 0 0 1-6.566 3.18c-3.146 7.045-3.042 12.79.309 17.235 2.599-.479 4.958-1.333 7.078-2.564l-.615-3.591.615 3.591a967.464 967.464 0 0 1 7.9-4.206l-1.333-3.078 1.333 3.078a458.723 458.723 0 0 1 10.157-4.617l-.923-3.283.923 3.283a182.715 182.715 0 0 1 13.028-5.129l-.513-3.488.513 3.488a65.128 65.128 0 0 1 4.719-1.641c2.12-.684 4.276-1.3 6.464-1.847l-.309-4.104.309 4.104a155.737 155.737 0 0 1 15.389-3.488l-.102-3.181.102 3.181a182.675 182.675 0 0 1 18.056-1.744l.615-3.385-.615 3.385a122.66 122.66 0 0 1 12.312.206l.615-3.898-.615 3.898c4.446.273 8.822.718 13.133 1.333l.614-3.078-.614 3.078c3.352.547 6.668 1.163 9.95 1.847l.103-.513.104-.102.514-2.77-.514 2.77-.104.102-.103.513a91.856 91.856 0 0 1 8.516 2.257l.924-2.771-.924 2.771c.752.205 1.437.411 2.052.615.274.069.547.171.819.309l.72-1.437c1.091-4.994.989-9.849-.312-14.569z"/></g><path fill="none" stroke="#794D35" stroke-linecap="round" stroke-linejoin="round" d="M501.283 177.326c-.068.069-.103.171-.103.308-.07 1.164-.274 2.223-.615 3.181m-5.54-5.541c-.547-.752-1.335-1.128-2.36-1.128-.956-.069-1.846.273-2.667 1.026-.615.547-.992 1.333-1.129 2.359-.069.958.171 1.847.718 2.667.139 0 .206.034.206.103l.103.103c.615.411 1.332.65 2.154.718 1.025 0 1.879-.273 2.564-.821.821-.752 1.267-1.608 1.335-2.564.136-.821-.104-1.573-.72-2.257l-.204-.206zm40.83 1.437c-.545-.685-1.265-1.026-2.154-1.026-1.026 0-1.914.308-2.667.922-.686.547-1.06 1.334-1.128 2.36 0 .957.238 1.813.717 2.565.07 0 .103.034.103.102l.104.103a3.843 3.843 0 0 0 2.256.718c1.026 0 1.779-.273 2.256-.821.89-.684 1.335-1.539 1.335-2.564.136-.752-.103-1.471-.718-2.154 0-.068-.036-.137-.104-.205zm-11.797 1.539v.206c-.068 1.094.036 2.086.308 2.975m-40.934-5.54a3.003 3.003 0 0 0-.205 1.128 11.17 11.17 0 0 0 .307 3.385"/><path fill="none" stroke="#7B4B37" stroke-width="2" stroke-linecap="round" stroke-linejoin="round" d="M520.775 166.247l1.025-.513c5.815-2.052 11.149-2.497 16.004-1.333 2.667.82 4.378 2.086 5.13 3.796m-35.701-2.565c-4.378-2.189-11.217-3.455-20.518-3.796-5.473.068-10.228 1.47-14.261 4.206"/><path fill="none" stroke="#7B4B37" stroke-linecap="round" stroke-linejoin="round" d="M415.208 179.481l-.204 6.463c1.367-4.104 3.282-7.421 5.745-9.951 3.488-1.163 6.463-1.06 8.926.307 5.676 2.599 8.549 7.285 8.617 14.055m104.643-22.159l-1.026-16.005m-40.626 25.135c.614.479 1.229 1.06 1.847 1.745-.89.615-1.745 1.197-2.564 1.744-6.43 3.693-12.106 3.557-17.032-.411a25.54 25.54 0 0 1-2.973-3.078 28.153 28.153 0 0 1 2.871-1.436c6.976-3.077 12.925-2.598 17.851 1.436zm23.082 4.104c6.225 4.377 11.971 3.796 17.236-1.744-5.472-5.609-11.32-6.086-17.544-1.436-.615.479-1.23.992-1.846 1.539a16.322 16.322 0 0 0 2.154 1.641zm-7.385-11.387c-.411.889-.173 2.633.717 5.231l8.516 19.903c2.735 5.061 3.11 9.473 1.129 13.233-1.71 3.831-5.541 5.506-11.492 5.028m-2.871 62.786l4.515.207c7.113-4.036 12.139-10.191 15.08-18.467a1927.639 1927.639 0 0 0 8.207-21.751c.068.137 1.402-6.155 4.002-18.876 2.599-12.652 2.222-26.4-1.129-41.242-.067-.273-.104-.547-.104-.821v-.615-.616a2.025 2.025 0 0 0-.718-.615c-7.797-7.318-15.216-6.703-22.262 1.846m22.98-1.231c-.205-1.915-.409-3.864-.615-5.847m-112.646 18.877c-.683-3.078-2.599-5.096-5.745-6.052-6.019 1.436-6.566 8.036-1.642 19.8m-7.898-14.877c-.479 2.667-.411 6.258.204 10.772 2.531 5.608 5.985 10.738 10.362 15.389a16.466 16.466 0 0 0 1.745 1.539c3.555 2.667 6.736 2.292 9.541-1.129m-4.617-16.209l.615-4.924c-2.804 1.916-5.471 2.701-8.002 2.359 2.873 2.325 4.445 5.471 4.719 9.438m15.8 38.061a28.432 28.432 0 0 1-1.641-4.616l-4.309-15.286m-12.106-7.694c1.299 13.954.547 25.306-2.257 34.061m87.921 28.519a194.677 194.677 0 0 1-33.138-5.949 118.57 118.57 0 0 1-7.898-2.667 147.974 147.974 0 0 1-5.85-3.488m32.727 36.726c2.052-8.275 6.771-16.482 14.158-24.622m3.694-66.478c-3.351-4.036-7.318-3.387-11.9 1.948m-.103-37.445c-8.275-9.096-16.859-9.677-25.752-1.744"/><path fill="none" stroke="#D7675B" stroke-width=".5" stroke-linecap="round" stroke-linejoin="round" d="M531.034 232.008c-3.351-1.71-5.883-2.872-7.592-3.489-1.642-.615-2.667-.921-3.078-.921-.343 0-1.06.136-2.154.408a8.044 8.044 0 0 1-3.386.104 106.48 106.48 0 0 1-2.872-.513c-.89-.137-1.572-.275-2.052-.411-5.813 1.913-9.609 3.282-11.387 4.104m-4.31 2.871c5.13 2.395 9.542 3.865 13.235 4.412 3.692.479 6.019.754 6.977.822.958-.068 3.728-.137 8.31-.207 4.583-.136 7.386-1.469 8.412-4.001m.41-2.973l-.513-.206c.136.206.204.376.204.513v.206c-.068.068-.136.238-.204.513"/><path fill="none" stroke="#662B2B" stroke-width=".3" stroke-linecap="round" stroke-linejoin="round" d="M531.034 233.239c-1.983-.067-3.932-.136-5.847-.206-8.003-.343-16.244-.343-24.727 0h-2.154"/><path fill="none" stroke="#572B17" stroke-linecap="round" stroke-linejoin="round" d="M453.373 153.423c-.206.615-.581 1.333-1.13 2.154v.206l-2.871 4.822c-3.215 1.573-5.506 4.377-6.874 8.413-1.369 3.762-1.778 10.361-1.231 19.8.752 9.301-.718 6.874-4.411-7.284-3.351-4.856-6.976-7.387-10.875-7.592-5.266-.136-8.823 1.95-10.669 6.258l-.104-.717-1.743-9.542"/><path fill="none" stroke="#7B4B37" stroke-linecap="round" stroke-linejoin="round" stroke-opacity=".502" d="M541.807 187.585c-6.224 5.335-12.003 5.13-17.339-.615m-22.364 18.467c-5.883 10.669-13.269 19.731-22.161 27.185a252.24 252.24 0 0 1-2.154 1.746m48.014 18.569c-4.651-2.463-9.336-3.522-14.057-3.18m10.67 19.902c-6.292 3.419-14.054 2.872-23.287-1.643m12.617-18.259c-2.667.204-5.334.819-8.001 1.845m25.442-42.472c2.188 8.892 5.234 17.611 9.131 26.161m-36.522-49.141c-5.402 5.403-13.064 5.608-22.981.615"/><path fill="none" stroke="#333" stroke-linecap="round" stroke-linejoin="round" d="M543.447 135.264a31.695 31.695 0 0 0-3.897-.923l-.206 2.667m-34.881-6.77l-.82 2.667m12.926-2.155l-.309 3.18m12.005.924l.205-2.462a177.62 177.62 0 0 0-11.9-1.641 102.147 102.147 0 0 0-12.106-.513 120.866 120.866 0 0 0-16.415.717v3.694m54.168 16.311c-.615-.205-1.3-.41-2.052-.615a91.542 91.542 0 0 0-8.516-2.257 233.353 233.353 0 0 0-9.95-1.847 164.194 164.194 0 0 0-13.133-1.333 122.656 122.656 0 0 0-12.312-.206c-5.948.273-11.968.854-18.056 1.744a155.737 155.737 0 0 0-15.389 3.488 100.186 100.186 0 0 0-6.464 1.847m75.304-3.693l.103-.513.104-.102.514-2.77m-10.671 1.538l.614-3.078m19.904 7.797c.274.069.547.171.819.309m.72-1.437c1.094-4.993.992-9.848-.309-14.568m-3.282 15.081l.924-2.771m-1.539-13.233a134.52 134.52 0 0 0-11.08-1.95m-19.904 12.517l.615-3.898m-12.926 3.693l.615-3.385m-41.651-4.617l.72 3.385m14.668-3.283l-.204-3.591a159.874 159.874 0 0 1 17.645-2.257m-17.645 2.257a151.882 151.882 0 0 0-15.185 3.489 153.864 153.864 0 0 0-13.439 4.411.92.92 0 0 0-.411.102l1.129 4.001m-4.821 10.055l.923 3.283a458.723 458.723 0 0 0-10.157 4.617m10.158-4.618a182.715 182.715 0 0 1 13.028-5.129l-.513-3.488m-22.774-4.001l1.23 2.872m-16.415 3.899a304.437 304.437 0 0 0 6.566-3.18 2548.74 2548.74 0 0 1 8.618-3.59 146.808 146.808 0 0 1 7.694-2.873 82.68 82.68 0 0 1 5.334-1.848m-21.645 8.31l1.026 4.206m-7.284 16.209c2.599-.479 4.958-1.333 7.078-2.564l-.615-3.591m-6.772-11.079c-3.146 7.045-3.042 12.79.309 17.235m7.078-2.565a967.464 967.464 0 0 1 7.9-4.206l-1.333-3.078m51.089-13.644l-.102-3.181m-15.286 6.669l-.309-4.104m-10.874 7.592a65.128 65.128 0 0 1 4.719-1.641m-35.393 101.871c-.752-1.845-.787-3.554-.104-5.129L403 272.941a136.115 136.115 0 0 1 3.078 3.181c22.433 22.159 46.542 35.464 72.326 39.908l1.334-17.132c-.136-5.61-3.692-10.327-10.67-14.158-16.14-5.884-31.598-15.217-46.37-28.009-.752-1.025-1.334-2.016-1.744-2.974v-.104zm-.103-5.129l3.489-1.948M242.342 438.113l8.105-25.339c13.679-31.804 29.786-63.471 48.32-95.001 9.371-10.668 21.476-20.414 36.318-29.238 24.348-8.275 46.986-13.474 67.916-15.594m75.403 43.089l-22.774 30.88c-17.852 29.408-33.548 59.675-47.09 90.793M538.729 333.06a866.987 866.987 0 0 0-19.492-19.286 244.405 244.405 0 0 0-4.002-3.694c-5.744-4.581-7.762-11.388-6.053-20.414 7.523-2.873 11.594-5.917 12.209-9.131m11.695 8.104l-12.209-11.183c.479 1.026.651 2.052.514 3.078m17.338 52.526c.341.343.686.72 1.026 1.128 12.651 12.997 24.349 26.161 35.085 39.498a31.825 31.825 0 0 1 1.949 2.36c10.875 20.382 20.484 40.832 28.828 61.351m53.041-.207c-9.233-31.393-19.458-63.162-30.675-95.308-22.981-20.519-54.614-38.266-94.897-53.244a45.32 45.32 0 0 1-2.36 7.694c-2.461 5.813-6.292 11.626-11.489 17.44"/><path fill="none" stroke="#360707" stroke-linecap="round" stroke-linejoin="round" d="M420.954 253.653l4-6.155c.069.068.104.137.104.207 8.48 11.695 26.641 21.954 54.477 30.777 4.58 1.3 7.077 8.173 7.488 20.62 4.719 1.779 8.651 2.36 11.798 1.743m-4.618 136.756h.103c19.288-30.162 34.096-65.009 44.423-104.541m-17.338-52.526l-2.053-3.387c-2.188.07-5.847 2.259-10.976 6.566-5.2 5.13-7.388 10.432-6.566 15.901-.89.547-1.88.958-2.976 1.23m53.348 136.655c8.958-19.493 16.517-40.763 22.672-63.813"/><path fill="none" stroke="#A4582B" stroke-linecap="round" stroke-linejoin="round" d="M514.619 53.089a9.534 9.534 0 0 1 1.95 3.898c10.121-1.504 16.585 2.12 19.39 10.875a28.346 28.346 0 0 1-.924 11.49l-2.975-9.028c-.137 1.71-.548 3.249-1.23 4.617-.617 1.368-1.437 2.77-2.463 4.206-2.258 1.983-4.719 2.976-7.388 2.976 1.915 3.967 2.701 7.42 2.36 10.361 2.393-3.146 4.515-4.342 6.359-3.591l-3.486 9.336c-6.636 6.908-12.483 5.026-17.545-5.643v-5.437c2.806-.069 5.507 1.812 8.105 5.643l1.232-15.389c-3.831 3.214-7.558 4.377-11.183 3.487l4.104-7.387c1.846-1.709 3.214-4.035 4.104-6.976.956-2.736 1.469-5.916 1.539-9.541m-32.213-3.59l-2.77 1.437c.89-.411 1.777-.788 2.667-1.129 4.24-1.573 8.412-2.292 12.516-2.154 1.505 2.667 2.122 6.086 1.847 10.259-.206 4.104-1.334 7.796-3.386 11.08l2.976 8.72c-4.65-.479-8.755-2.223-12.312-5.232l1.539 16.517c9.029-6.703 12.651-6.601 10.874.308-8.068 12.243-17.883 14.089-29.442 5.54l-2.873-5.129c.343-4.72 2.564-4.686 6.668.102 3.829-4.104 4.206-9.369 1.128-15.798-2.528-1.026-5.71-.069-9.539 2.873l-2.771-5.13c-.752-1.642-1.88-2.634-3.385-2.976l-.206-.102h-.204l-.205-.206c-1.847 1.71-2.736 3.727-2.669 6.054l-.819 5.333c-3.83-2.599-7.694-1.948-11.593 1.95-1.573 4.856.445 9.849 6.053 14.978 2.325-5.061 3.795-7.831 4.412-8.31 1.916-.068 2.974 1.06 3.18 3.385l-2.976 6.772c-6.771 11.421-15.525 12.824-26.263 4.206l-.718-4.206c2.667-.274 5.505.102 8.515 1.128l-4.104-15.696c-1.641 4.651-4.309 7.763-8.002 9.335-.752-5.061-.479-9.78.821-14.157l-.411.102-18.876 7.49c1.505.684 2.838 1.402 4 2.154 3.283 1.916 5.746 4.036 7.387 6.361-2.735.136-5.471-.513-8.208-1.95-.41-.273-.854-.581-1.333-.923l4.719 17.441c1.368-4.515 3.351-7.559 5.951-9.131l.615 5.541-1.231 13.439-5.335-9.848 1.744 10.259.308 8.412c36.865-21.749 78.517-28.041 124.957-18.876l.103-18.877 2.052-23.801c.479-3.761-.581-8.07-3.181-12.926-6.566-4.856-13.884-6.497-21.955-4.924-2.188-2.804-5.814-4.446-10.874-4.924l-12.518 1.539-6.873 3.69c.067-.411.102-.821.102-1.231.07-.889.034-1.744-.102-2.565-12.927-1.231-23.869.854-32.83 6.259.615 2.531 1.88 4.787 3.796 6.771 2.873 3.352 6.668 5.13 11.389 5.335a16.138 16.138 0 0 0 4.104-.308c5.267-4.035 8.789-8.276 10.566-12.722l.206-.102m13.746 11.593l-.103 6.463m19.801-6.361c7.182 1.505 12.447 4.309 15.8 8.413m-52.426-7.387c2.805-3.009 4.789-6.395 5.951-10.156 7.249-4.173 11.112-3.694 11.594 1.436l-.617 7.592c-5.813 0-11.456.375-16.928 1.128a33.407 33.407 0 0 1-2.257 2.052c-5.266 3.419-11.284 4.445-18.056 3.078m85.356 62.58l-5.847-21.646m-70.172-96.231l-2.36 4.821-2.257-4.411m-8.105 8.515l3.692 1.847-4.616 4.104m-2.257 23.596a15.435 15.435 0 0 1-.307-4.72c.409-4.514 2.393-8.344 5.949-11.491a16.288 16.288 0 0 1 5.232-3.078v-4.308c-4.446 2.052-9.163 5.574-14.158 10.567l-3.59-2.462c1.163-4.309 2.804-8.31 4.924-12.003l-.922-10.464c4.171 3.831 8.242 5.95 12.208 6.36l-8.31-12.311c8.207 1.642 16.174 1.471 23.904-.513l-6.361 11.285c3.557-.684 6.942-2.838 10.157-6.463l1.229 9.131c3.146 4.104 5.267 8.413 6.362 12.926h-5.13c-2.462-3.078-5.813-5.096-10.055-6.053l-.204 3.693c3.077.685 5.744 2.223 8.001 4.617 2.258 2.599 3.559 5.608 3.899 9.028m-11.898-13.644a14.476 14.476 0 0 0-3.078-.513c-2.53-.068-4.854.308-6.977 1.128m16.004-6.976l-4.924-2.564 3.385-1.641m-53.963 57.86l-.204-.205a1.924 1.924 0 0 1-.104-.616c-.479-.957-.752-2.086-.82-3.386-.479-2.736-.411-5.984.206-9.746 6.771-9.507 15.354-10.327 25.75-2.462l4.822 2.565 4.925 2.975m-34.164 10.773c-.206 0-.411-.034-.615-.103m48.115-15.388c-.48.273-.923.581-1.334.923-5.608.752-11.319-.787-17.132-4.617-9.167-6.361-18.434-7.762-27.803-4.206L405.77 69.913c-5.882 6.019-6.464 12.961-1.744 20.827m17.748-11.696c8.208-4.856 18.466-8.071 30.777-9.644m-39.907 63.094l.513 20.211m-5.13-59.811l-.821 4.411"/><path fill="none" stroke="#333" stroke-width=".5" stroke-linecap="round" stroke-linejoin="round" d="M508.362 58.013c-.479-.752-1.097-1.162-1.848-1.231-.752 0-1.4.411-1.95 1.231-.615.752-.957 1.745-1.025 2.976-.068 1.23.136 2.256.617 3.078.341.889.89 1.333 1.641 1.333.752.068 1.469-.342 2.154-1.231.479-.752.785-1.744.924-2.976.136-1.231-.034-2.291-.513-3.18zm-6.156 18.569c.479.479.956.718 1.437.718.546 0 1.026-.205 1.436-.615.41-.341.648-.786.719-1.333.068-.479-.138-.958-.615-1.437-.274-.411-.685-.615-1.232-.615-.547 0-1.06.205-1.538.615a2.106 2.106 0 0 0-.615 1.231c-.07.547.065 1.026.408 1.436zm-9.746 7.489c-.138-.205-.376-.342-.719-.411-.341 0-.649.102-.922.308-.274.273-.411.547-.411.821-.07.342.034.65.307.923a.986.986 0 0 0 .72.308c.343.069.649 0 .924-.205.272-.274.444-.581.513-.923-.001-.273-.138-.547-.412-.821zm12.722-.205c-.48-.616-1.025-.924-1.643-.924-.615 0-1.128.273-1.539.82-.545.479-.854 1.026-.922 1.642-.068.615.137 1.163.615 1.641.411.479.924.719 1.539.719s1.23-.171 1.846-.513a3 3 0 0 0 .719-1.641c.068-.616-.138-1.197-.615-1.744zm9.233-.616c-.343-.273-.753-.41-1.232-.41-.343 0-.683.102-1.025.308-.343.341-.547.718-.615 1.128 0 .411.172.788.513 1.129.137.342.411.513.821.513.409 0 .854-.137 1.333-.411.343-.342.513-.718.513-1.128.069-.411-.035-.786-.308-1.129zm11.388.103c-.547.342-.822.821-.822 1.436 0 .547.171 1.026.514 1.437.274.411.583.615.924.615.41 0 .821-.205 1.229-.615.343-.273.514-.718.514-1.333 0-.616-.068-1.129-.205-1.539-.34-.341-.717-.513-1.128-.513-.411-.001-.752.171-1.026.512zm9.232-.205c-.41-.752-.889-1.128-1.437-1.128-.547-.069-1.025.273-1.437 1.026-.479.889-.751 1.915-.819 3.078-.068 1.094.068 2.052.409 2.872.206.821.581 1.266 1.13 1.333.615 0 1.196-.411 1.743-1.231.41-.752.686-1.675.821-2.77.07-1.162-.067-2.223-.41-3.18zm-3.077 39.292c-.07.958.238 1.813.924 2.565.683.684 1.471 1.06 2.358 1.129 1.025-.069 1.881-.411 2.564-1.026.821-.684 1.265-1.505 1.335-2.462.067-.958-.239-1.813-.924-2.565-.547-.82-1.335-1.197-2.36-1.128-.89-.069-1.777.273-2.667 1.026a4.239 4.239 0 0 0-1.23 2.461zm-30.162-21.75c-.068.685.034 1.3.309 1.848a3.335 3.335 0 0 0 1.947.82c.686 0 1.301-.239 1.848-.718.479-.479.753-1.094.821-1.846.068-.752-.136-1.334-.617-1.745-.341-.547-.89-.82-1.641-.82-.752-.069-1.437.136-2.052.615-.343.479-.548 1.095-.615 1.846zm-2.77 17.339c-.136 1.368.238 2.531 1.128 3.489.888 1.162 2.018 1.743 3.385 1.743 1.368.069 2.601-.41 3.694-1.436 1.095-.89 1.71-2.018 1.846-3.385.07-1.368-.343-2.564-1.23-3.59-.957-1.095-2.122-1.676-3.488-1.745-1.366 0-2.53.479-3.488 1.436-1.163.957-1.778 2.12-1.847 3.488zm20.927 2.462c-.067.684.137 1.265.617 1.744.478.411 1.059.65 1.743.718.686 0 1.23-.206 1.642-.615.615-.479.958-1.06 1.025-1.744 0-.752-.204-1.437-.615-2.052-.41-.342-.957-.513-1.641-.513-.684-.068-1.265.102-1.745.513-.683.479-1.026 1.128-1.026 1.949zm-53.347-89.767c.685 0 1.334-.24 1.949-.718.615-.479.924-1.094.924-1.847.068-.752-.137-1.402-.615-1.95a2.374 2.374 0 0 0-1.745-.718c-.752-.068-1.402.103-1.948.513a3.586 3.586 0 0 0-1.025 1.95c0 .752.238 1.367.718 1.846.409.547.99.855 1.742.924zm-57.861 42.78c-.82.274-1.401.89-1.744 1.847a10.894 10.894 0 0 0 0 2.975c.343 1.026.821 1.88 1.437 2.565.752.616 1.573.854 2.463.718.683-.273 1.23-.958 1.641-2.052.138-.89.068-1.813-.205-2.77-.273-1.094-.718-2.018-1.333-2.771-.822-.615-1.575-.786-2.259-.512zm7.387 15.081c-.684 0-1.197.137-1.539.411-.411.479-.684.992-.82 1.539 0 .547.239.957.718 1.231.205.684.649 1.026 1.333 1.026.547 0 1.128-.275 1.744-.822.342-.342.513-.751.513-1.23.136-.616.034-1.129-.309-1.539-.546-.41-1.093-.616-1.64-.616zm31.392 1.744c.548.068 1.026-.102 1.437-.513.342-.274.547-.685.615-1.231 0-.615-.136-1.128-.41-1.539-.343-.273-.821-.444-1.437-.513-.547 0-.958.137-1.231.411-.478.41-.752.923-.821 1.539 0 .547.206.957.616 1.231.206.41.616.615 1.231.615zm12.005-3.488c.408 0 .751-.479 1.025-1.436.068-.958.068-2.018 0-3.181 0-1.23-.172-2.188-.513-2.873-.343-.82-.72-1.265-1.13-1.333-.341.068-.582.615-.718 1.641-.411.822-.513 1.813-.309 2.976 0 1.162.24 2.188.72 3.078.206.82.514 1.197.925 1.128zm9.746-3.591c-.068.479 0 .89.204 1.231.341.273.753.411 1.23.411.48.068.855-.034 1.13-.308.408-.343.615-.752.615-1.231 0-.411-.139-.82-.411-1.231-.204-.274-.513-.445-.924-.513-.479 0-.955.136-1.437.411-.271.41-.407.82-.407 1.23zm-5.747 35.6c-1.026.89-1.571 1.916-1.642 3.078-.136 1.163.207 2.223 1.026 3.181.821.889 1.777 1.333 2.873 1.333 1.162 0 2.188-.341 3.078-1.026 1.026-.958 1.573-2.018 1.641-3.181.068-1.163-.272-2.188-1.025-3.078-.821-.957-1.812-1.436-2.976-1.436-1.23-.069-2.222.308-2.975 1.129zm23.392-1.539h-.204l-.207-.102h-.102m-2.36 3.282c0 .068-.032.137-.103.205.139 1.026.479 1.813 1.026 2.36.342.547.821.787 1.437.717.41 0 .717-.068.924-.204.41-.137.683-.343.819-.616.068-.068.104-.136.104-.206.068-.136.171-.273.307-.41a3.29 3.29 0 0 0 .103-.82c.137-.343.206-.752.206-1.231 0-1.026-.238-1.778-.719-2.257-.341-.411-.752-.649-1.23-.718m-.514-.103c-.754.068-1.335.41-1.743 1.026-.55.615-.754 1.367-.617 2.257m-55.706-20.313c.478 0 .957-.17 1.436-.513.479-.479.787-1.026.924-1.641 0-.547-.24-.992-.718-1.333-.411-.547-.855-.82-1.333-.82-.547 0-1.06.238-1.539.717-.547.274-.82.684-.82 1.231-.138.616.068 1.197.615 1.744.477.41.956.615 1.435.615zm-9.85.308c-.547.479-.82 1.026-.82 1.641-.068.615.068 1.128.411 1.539.478.479 1.026.718 1.641.718.684 0 1.231-.205 1.641-.616.411-.341.65-.82.718-1.436 0-.616-.136-1.163-.41-1.642-.411-.547-.958-.82-1.642-.82-.615 0-1.128.205-1.539.616zm-6.463 3.488c0-.479-.103-.889-.308-1.231a1.845 1.845 0 0 0-1.026-.513 2.35 2.35 0 0 0-1.333.411 1.675 1.675 0 0 0-.513 1.231c0 .479.103.854.308 1.128.273.411.649.616 1.128.616.479 0 .89-.171 1.231-.513.342-.275.513-.65.513-1.129zm8.823 10.875c0 .683.137 1.299.411 1.846.411.479.992.752 1.744.82.683 0 1.299-.239 1.846-.718.615-.479.924-1.06.924-1.744.068-.751-.137-1.401-.616-1.949-.41-.411-.958-.616-1.641-.616-.752-.068-1.402.104-1.95.513-.479.479-.718 1.096-.718 1.848zm10.772 21.954c.821-.957 1.299-2.223 1.437-3.796.137-1.436-.171-2.667-.924-3.693-.82-1.162-1.778-1.778-2.873-1.847-1.026 0-2.018.513-2.974 1.539-.958 1.026-1.471 2.291-1.539 3.796-.137 1.505.204 2.735 1.026 3.693.683 1.162 1.539 1.745 2.565 1.745 1.162.068 2.256-.411 3.282-1.437zm13.542-6.565c.547.683 1.094.922 1.642.717.683.069 1.265-.376 1.743-1.333.206-.821.273-1.641.206-2.462-.068-1.095-.308-1.949-.718-2.564-.752-.616-1.436-.89-2.052-.822-.547.137-.991.616-1.333 1.437-.41.615-.615 1.437-.615 2.462.34 1.162.717 2.017 1.127 2.565z"/></svg>