<svg xmlns="http://www.w3.org/2000/svg" viewBox="0 0 106.45 154.9"><path fill-rule="evenodd" d="M72.05 125.6l4.75-5.9 1.2-1.4.55 1.4 2.85 6.8-9.2-.6-.35-.05-3.45 6.55-3.75-8.15 7.2 1.6.2-.25m14.35 18.3h.15l2.5-9.3 6.6 6.05-9.1 3.25v.1l-1.35 5.85-6.65-5.9 7.85-.05" fill="#fc0"/><path stroke-linejoin="round" d="M72.05 125.6l4.75-5.9 1.2-1.4.55 1.4 2.85 6.8-9.2-.6-.35-.05-3.45 6.55-3.75-8.15 7.2 1.6.2-.25m14.35 18.3h.15l2.5-9.3 6.6 6.05-9.1 3.25v.1l-1.35 5.85-6.65-5.9 7.85-.05" stroke="#a80400" stroke-linecap="round" stroke-width="2" fill="none"/><path stroke-linejoin="round" d="M72.2 125.9q5.85 10.9 14.2 18m.15.1q8.45 7.1 19.4 10.4m-33.9-28.8q-3.5-6.45-6.1-14.35" stroke="#8a8a8a" stroke-linecap="round" fill="none"/><path fill-rule="evenodd" d="M25.8 4.45Q34 9.65 46.75 16.2l19.9 10.3-29.2 10.95-11.65-33 11.65 33 29.2-10.95q-2.05 25.1-2.8 39.45-1.1 21.8-.45 38.7-13.9-15.2-28.65-29.35l-12.2-11.5-17.8-15.6 4.95-9.15 4.85-9.75 1.1-2.2q5.1-10.65 10.15-22.65m37.6 100.2l-25.95-67.2L4.75 48.2l32.7-10.75 25.95 67.2" fill="#ff7171"/><path stroke-linejoin="round" d="M66.65 26.5l3.95-1.7M25.8 4.45L24.45 1M4.75 48.2L1 49.65m62.4 55l2.45 6.6" stroke="#9a6243" stroke-linecap="round" stroke-width="2" fill="none"/><path stroke-linejoin="round" d="M66.65 26.5l-19.9-10.3Q34 9.65 25.8 4.45l11.65 33 29.2-10.95M25.8 4.45q-5.05 12-10.15 22.65l-1.1 2.2-4.85 9.75-4.95 9.15 32.7-10.75 25.95 67.2q-.65-16.9.45-38.7.75-14.35 2.8-39.45M4.75 48.2l17.8 15.6 12.2 11.5Q49.5 89.45 63.4 104.65" stroke="#a80400" stroke-linecap="round" stroke-width="2" fill="none"/></svg>