<svg xmlns="http://www.w3.org/2000/svg" width="500" height="500" viewBox="0 0 500 500"><path fill="#CB9A62" d="M170.642 446.206l7.034-14.837-33.521-29.785c-6.302.367-8.755 4.506-7.363 12.419l1.208.989 32.642 31.214m10.33-123.864c-6.813 2.053-8.902 5.86-6.264 11.429l.989.88 33.632 29.017 6.484-13.52-34.291-27.477-.55-.329m-19.123 41.215l-.44-.439c-4.835 2.198-6.851 6.19-6.045 11.98l.879.658 33.412 30.115 6.375-13.629-34.181-28.685m39.567-81.443a3.924 3.924 0 0 0-.989.331c-6.741 2.198-9.086 6.594-7.034 13.188l.55.44 34.181 27.805 6.924-14.947-33.632-26.817m18.573-40.884l-.988-.879c-6.302 2.637-8.39 6.814-6.265 12.529l1.208.989 35.17 25.169 6.815-14.618-35.94-23.19m50.667-8.134l5.936-12.858-35.939-23.191-.44-.109c-6.814 3.297-9.415 7.62-7.803 12.969l1.648.99 36.598 22.199m21.872-46.71l5.935-12.858-36.6-21.213-.109-.109c-5.348 3.956-7.657 8.097-6.923 12.419l.878.77 36.819 20.991m-9.892-78.583l-.878-.439c-5.641 2.564-7.839 6.191-6.594 10.88l2.086.99 37.259 20.003 6.267-13.409-38.14-18.025m12.97-29.894l.878.439 37.808 18.684 6.155-13.078-38.468-17.146-1.978-.989c-4.689 3.15-6.153 7.181-4.395 12.09M322.203 5.37c-6.741-4.177-12.015-2.748-15.827 4.286L111.401 425.543c-2.344 7.183.22 11.725 7.694 13.629-2.344-.878-3.225-3.076-2.637-6.595L313.96 12.404c1.903-3.077 3.737-5.166 5.495-6.265.953-.586 1.87-.843 2.748-.769m33.412 46.38l5.935-12.309-39.457-15.277-.439-.22c-6.228 1.685-8.316 5.861-6.264 12.53l.769.439 39.456 14.837m5.935-12.309l-5.935 12.309-15.168 32.204-6.155 13.078-13.517 28.796-6.267 13.409-16.046 34.292-5.935 12.858-15.937 33.853-5.936 12.858-14.724 31.322-6.815 14.618-14.068 29.894-6.924 14.947-12.31 26.269-6.484 13.52-13.299 28.575-6.375 13.629-11.98 25.498-7.034 14.837-14.948 31.873c-1.172 8.646 2.529 14.142 11.101 16.486-1.466-1.026-2.345-2.602-2.638-4.728-.22-1.391-.22-3.186 0-5.383L373.2 36.913c3.956-7.033 8.023-9.635 12.199-7.803-7.181-7.328-14.105-6.082-20.773 3.737l-3.076 6.594z"/><path fill="#999" d="M161.409 363.117l.44.328v-.109l-.44-.219m100.454-210.802v-.109h-.109l.109.109z"/><path fill="#A57C50" d="M321.653 23.944l.439.22 1.979-4.506c2.782-7.181 2.82-11.76.109-13.738a3.46 3.46 0 0 0-1.869-.55h-.109c-.878-.074-1.795.183-2.748.769-1.758 1.099-3.592 3.188-5.495 6.265L116.458 432.577c-.587 3.519.293 5.717 2.637 6.595.073.075 1.026.294 2.858.659 1.978.294 3.81-.659 5.496-2.857l10.55-21.981-1.208-.989c-1.392-7.913 1.062-12.052 7.363-12.419l12.089-25.828-.879-.658c-.806-5.79 1.209-9.782 6.045-11.98l.44.219 13.848-28.686-.989-.88c-2.638-5.568-.549-9.376 6.264-11.429l.55.219 12.42-26.486-.55-.44c-2.052-6.595.293-10.99 7.034-13.188l13.518-28.576-1.208-.989c-2.125-5.715-.037-9.892 6.265-12.529l.988.77 14.069-30.225-1.648-.99c-1.612-5.349.988-9.671 7.803-12.969h.44l15.056-31.543-.878-.77c-.734-4.322 1.575-8.463 6.923-12.419h.109l15.387-32.972-2.086-.99c-1.245-4.689.953-8.316 6.594-10.88l.878.439 13.849-29.455-.878-.439c-1.759-4.909-.295-8.939 4.396-12.09l1.978.989 14.179-29.895-.769-.439c-2.054-6.671.035-10.847 6.262-12.532m63.746 5.166c-4.176-1.833-8.243.77-12.199 7.803L164.157 484.455c-.22 2.197-.22 3.992 0 5.383l3.408 5.167c.439.295.989.514 1.649.659 4.469 1.245 8.389-.88 11.759-6.375L387.488 44.167c2.932-8.279 2.235-13.299-2.089-15.057z"/><g><path fill="none" stroke="#1F1F1F" stroke-width="2" stroke-linecap="round" stroke-linejoin="round" d="M361.55 39.441l-5.935 12.309-15.168 32.204-6.155 13.078-13.517 28.796-6.267 13.409-16.046 34.292-5.935 12.858-15.937 33.853-5.936 12.858-14.724 31.322-6.815 14.618-14.068 29.894-6.924 14.947-12.31 26.269-6.484 13.52-13.299 28.575-6.375 13.629-11.98 25.498-7.034 14.837-14.948 31.873c-1.172 8.646 2.529 14.142 11.101 16.486-1.466-1.026-2.345-2.602-2.638-4.728-.22-1.391-.22-3.186 0-5.383L373.2 36.913c3.956-7.033 8.023-9.635 12.199-7.803-7.181-7.328-14.105-6.082-20.773 3.737l-3.076 6.594-39.457-15.277-.439-.22c-6.228 1.685-8.316 5.861-6.264 12.53l.769.439 39.457 14.837m29.783-22.64c4.323 1.758 5.021 6.778 2.089 15.057L180.972 489.289c-3.37 5.495-7.29 7.62-11.759 6.375-.66-.146-1.21-.364-1.649-.659-.074-.075-.147-.109-.22-.109v-.111h-.111l-.439-.219m-47.699-55.394c-7.474-1.904-10.038-6.446-7.694-13.629L306.376 9.656c3.813-7.033 9.086-8.463 15.827-4.286h.109a3.46 3.46 0 0 1 1.869.55c2.711 1.978 2.673 6.558-.109 13.738l-1.979 4.506M119.095 439.172c-2.344-.878-3.225-3.076-2.637-6.595L313.96 12.404c1.903-3.077 3.737-5.166 5.495-6.265.953-.586 1.87-.842 2.748-.769m-20.224 61.438l-1.978-.989c-4.69 3.15-6.154 7.181-4.396 12.09l.878.439 37.808 18.684m-18.133-60.119l-14.179 29.895 38.468 17.146m-57.811 23.849l-.878-.439c-5.641 2.564-7.839 6.191-6.594 10.88l2.086.99 37.259 20.003m-16.046 34.291l-36.6-21.213v-.055m-.109-.054l.109.109m30.665 34.071l-36.819-20.992-15.056 31.543v.109l35.939 23.191m-14.838-68.031c-5.348 3.956-7.657 8.097-6.923 12.419l.878.77m65.066-39.567l-38.14-18.025 13.849-29.455m-19.234 40.885l-15.387 33.027m-21.651 44.678c-6.814 3.297-9.415 7.62-7.803 12.969l1.648.99 36.598 22.2m-30.443-36.159l.44.109m-21.651 43.304l.988.879v-.109l14.069-30.225m-33.632 71.549c.293-.146.623-.258.989-.331l33.631 26.817m-34.62-26.486c-6.741 2.198-9.086 6.594-7.034 13.188l.55.44 34.181 27.805m-14.179-70.009l35.17 25.169m-30.113-38.687c-6.302 2.637-8.39 6.814-6.265 12.529l1.208.989-13.518 28.576m-39.017 80.672l.44.439v-.111l.055-.109m-.495-.219c-4.835 2.198-6.851 6.19-6.045 11.98l.879.658 33.412 30.115m-33.412-30.114l-12.089 25.828 33.521 29.785m3.297-109.027l.55.329v-.11l12.42-26.486m-12.97 26.267c-6.813 2.053-8.902 5.86-6.264 11.429l.989.88 33.632 29.017m6.484-13.521l-34.291-27.477m14.508 69.572l-34.181-28.686m13.848-28.906l-13.793 28.686m-23.905 51.656l-10.55 21.981c-1.686 2.198-3.518 3.151-5.496 2.857-1.832-.365-2.785-.584-2.858-.659m25.059-37.587c-6.302.367-8.755 4.506-7.363 12.419l1.208.989 32.643 31.214m-3.078 48.799l-3.408-5.167M255.93 264.42l-35.94-23.19"/></g></svg>