
<svg xmlns="http://www.w3.org/2000/svg" version="1.1" xmlns:xlink="http://www.w3.org/1999/xlink" preserveAspectRatio="none" x="0px" y="0px" width="285px" height="427px" viewBox="0 0 285 427">
<defs>
<g id="Layer0_0_FILL">
<path fill="#999999" stroke="none" d="
M 213.5 315.9
Q 213.2 310.3 212.95 305.15 203.8 306.5 193.95 306 194.05 309.25 194.2 312.75
L 194.3 316.7
Q 194.3 317.35 194.3 318.05
L 194.35 318.05
Q 204.05 319.8 213.6 318.1 213.55 317.55 213.55 317
L 213.5 315.9
M 193.4 292.15
Q 193.45 293.75 193.55 295.45
L 193.95 306
Q 203.8 306.5 212.95 305.15 212.75 301.05 212.5 297.25
L 212.3 293.7
Q 212.25 293.25 212.2 292.75 202.8 294.25 193.5 293.85
L 193.4 292.15
M 194.55 326.3
Q 194.6 329.9 194.75 333.65 194.75 332.35 194.7 331.05 194.65 328.65 194.55 326.3
M 205.1 343.75
Q 205.15 343.75 205.2 343.75 211 343.75 214.6 341.75
L 214.25 333.4
Q 214.15 332 214.1 330.65 204.05 332.5 194.7 331.05 194.75 332.35 194.75 333.65
L 194.85 341.75
Q 195 341.8 195.15 341.9 199.55 343.75 205.1 343.75
M 214 326.9
Q 213.95 326 213.9 325.1 214 327.8 214.1 330.65 214.15 332 214.25 333.4 214.1 330.05 214 326.9
M 213.65 319.3
Q 213.6 318.7 213.6 318.1 204.05 319.8 194.35 318.05
L 194.3 318.05
Q 194.35 319 194.4 320
L 194.5 324.7
Q 194.55 325.5 194.55 326.3 194.65 328.65 194.7 331.05 204.05 332.5 214.1 330.65 214 327.8 213.9 325.1
L 213.65 319.3
M 210.6 271.05
Q 210.55 270.3 210.45 269.5 210.45 270.25 210.5 271.05
L 211.45 281.8 212.2 292.75
Q 212.25 293.25 212.3 293.7 211.45 280.4 210.6 271.05
M 209.15 257.45
Q 209.2 258.05 209.25 258.65 209.35 259.3 209.45 260 209.3 258.7 209.15 257.45
M 192.35 274.5
Q 192.4 275.3 192.45 276.1
L 192.8 283.35
Q 192.85 283.35 192.95 283.35 202.15 283.9 211.45 281.8
L 210.5 271.05
Q 210.45 270.25 210.45 269.5 210.45 269.45 210.45 269.4 201.7 271.1 192.1 271.1 192.15 271.95 192.2 272.8
L 192.35 274.5
M 192.8 283.35
L 193.4 292.15 193.5 293.85
Q 202.8 294.25 212.2 292.75
L 211.45 281.8
Q 202.15 283.9 192.95 283.35 192.85 283.35 192.8 283.35
M 192.1 271.1
Q 192 270.1 191.9 269.15 192.05 270.95 192.2 272.8 192.15 271.95 192.1 271.1
M 191 261
Q 191.2 262.6 191.4 264.25
L 191.9 269.15
Q 192 270.1 192.1 271.1 201.7 271.1 210.45 269.4
L 209.45 260
Q 209.35 259.3 209.25 258.65 200.65 260.35 191.05 261
L 191 261
M 189.6 249.55
L 189.55 249.55
Q 190.4 255.1 191 261
L 191.05 261
Q 200.65 260.35 209.25 258.65 209.2 258.05 209.15 257.45
L 209.1 257.05
Q 208.7 253.9 208.3 250.85
L 208 248.9
Q 207.8 247.9 207.65 246.9 198.65 248.7 189.6 249.55
M 182.9 218.2
Q 182.95 218.2 183 218.2 192.7 216.35 200.55 211.85
L 197.65 201
Q 190.1 204.6 179.85 207.7
L 181.45 212.9
Q 182.2 215.55 182.9 218.2
M 205.8 235
L 203.65 223.6
Q 203.6 223.65 203.55 223.65 196.85 226.75 185.6 228.2
L 185.55 228.2
Q 186.7 233.2 187.75 238.6
L 187.8 238.6
Q 197.5 237.7 205.8 235
M 207.35 244.7
Q 207.5 245.8 207.65 246.9 207.8 247.9 208 248.9 207.7 246.75 207.35 244.7
M 206.05 236.55
Q 205.95 235.75 205.8 235 197.5 237.7 187.8 238.6
L 187.75 238.6
Q 188.7 243.85 189.55 249.55
L 189.6 249.55
Q 198.65 248.7 207.65 246.9 207.5 245.8 207.35 244.7
L 206.05 236.55
M 203.65 223.6
Q 203.5 223 202.95 221 202.15 218 200.55 211.85 192.7 216.35 183 218.2 182.95 218.2 182.9 218.2 183 218.65 183.25 219.05
L 184.75 224.65
Q 185.15 226.4 185.55 228.2
L 185.6 228.2
Q 196.85 226.75 203.55 223.65 203.6 223.65 203.65 223.6
M 115.05 348
Q 115.05 348.05 115.05 348.1 115.05 349.95 116.1 351.75 119.95 358.35 138.4 363.35 161.8 369.8 194.85 369.8 227.9 369.8 251.25 363.35 271.15 357.95 274.1 350.65 274.4 349.95 274.5 349.25 274.6 348.7 274.6 348.1 274.6 339 251.25 332.5 235 328.2 214 326.9 214.1 330.05 214.25 333.4
L 214.6 341.75
Q 211 343.75 205.2 343.75 205.15 343.75 205.1 343.75 199.55 343.75 195.15 341.9 195 341.8 194.85 341.75
L 194.75 333.65
Q 194.6 329.9 194.55 326.3 161.7 326.35 138.4 332.5 117.2 338.4 115.25 346.45 115.2 346.65 115.15 346.85
L 115.05 348
M 161.4 349.5
Q 160.1 348.4 160.1 347 160.1 345 162.6 343.55 165.1 342.25 168.8 342.25 172.35 342.25 174.9 343.55 177.45 345 177.45 347 177.45 348.4 176.2 349.45 179.15 350.95 179.15 352.85 179.15 354.85 176.15 356.15 173.2 357.65 168.9 357.65 164.6 357.65 161.5 356.15 158.55 354.85 158.55 352.85 158.55 351 161.4 349.5
M 74.65 88.9
Q 41.75 75.55 16.8 91.75 25.65 87.9 44 95.3 55.05 99.7 66.5 106.95 79.45 115.15 92.95 127.05 105.8 138.45 115.25 150 124.35 160.85 130.3 171.7 138.1 186 137.6 194.75 145.55 170.5 136.15 147.6 133.05 139.5 128.45 131.95 113.25 108.15 81 91.85 77.85 90.35 74.65 88.9
M 135.4 45.5
Q 124.85 42.65 116.8 46.3
L 74.65 88.9
Q 77.85 90.35 81 91.85 113.25 108.15 128.45 131.95 133.05 139.5 136.15 147.6
L 147.85 132.5 159.95 116.85 174.35 98.2
Q 175.7 72.25 154.65 55.3 145.7 48.15 135.4 45.5
M 193.95 189.05
Q 186.15 194.05 176.05 196.15 178 201.85 179.85 207.7 190.1 204.6 197.65 201 195.85 194.85 193.95 189.05
M 193.7 188.15
Q 193.8 188.6 193.95 189.05 195.85 194.85 197.65 201
L 200.55 211.85
Q 202.15 218 202.95 221 201.4 214.1 199.65 207.8 196.75 197.6 193.7 188.15
M 172.35 185.75
Q 174.25 190.9 176.05 196.15 186.15 194.05 193.95 189.05 193.8 188.6 193.7 188.15
L 190.6 179.05
Q 190.25 177.95 189.85 176.9
L 189.85 176.95
Q 182.05 181.5 172.15 185.2 172.2 185.3 172.25 185.4
L 172.35 185.75
M 164.35 165.75
L 165.25 167.9
Q 166.7 171.4 168.15 174.95 178.3 169.9 185.15 164.8 182.7 158.45 180.05 152.7 174.35 157.65 163.45 163.65 163.9 164.7 164.35 165.75
M 163 162.75
Q 163.225 163.2 163.45 163.65 174.35 157.65 180.05 152.7 177.2 146.3 174.2 140.5 167.5 147.7 158.4 152.7 158.6 153.1 158.8 153.5 160.25 156.65 161.75 159.9
L 163 162.75
M 163 162.75
Q 163.665625 164.2443359375 164.35 165.75 163.9 164.7 163.45 163.65 163.225 163.2 163 162.75
M 186.15 167.2
Q 185.65 166 185.15 164.8 178.3 169.9 168.15 174.95 169.85 179.2 171.5 183.5 171.8 184.35 172.15 185.2 182.05 181.5 189.85 176.95
L 189.85 176.9
Q 189.45 175.85 189.05 174.8
L 186.15 167.2
M 167.3 128.05
Q 167.05 127.65 166.8 127.2 163.375 122.025 159.95 116.85
L 147.85 132.5
Q 150.15 136.625 152.45 140.75 152.55 140.95 152.65 141.15 163.1 135.8 167.3 128.05
M 167.3 128.05
Q 170.8 133.9 174.2 140.5 177.2 146.3 180.05 152.7 182.7 158.45 185.15 164.8 185.65 166 186.15 167.2 177.25 144.35 166.8 127.2 167.05 127.65 167.3 128.05
M 174.2 140.5
Q 170.8 133.9 167.3 128.05 163.1 135.8 152.65 141.15 155.65 146.75 158.4 152.7 167.5 147.7 174.2 140.5 Z"/>

<path fill="#8A8A8A" stroke="none" d="
M 116.1 351.75
Q 116.05 351.85 116.05 352 115.45 355.25 115.25 357.15 114.15 358.7 113.85 360.35 113.75 360.85 113.75 361.35 113.75 361.45 113.75 361.5 113.75 370.4 137.45 376.8 161.2 383.3 194.7 383.3 228.3 383.3 252.05 376.8 275.7 370.4 275.7 361.5 275.7 361.15 275.7 360.8 275.7 360.75 275.7 360.7 275.45 359.05 274.45 357.5 274.35 356.85 274.15 355.95 273.6 353.95 273.6 353
L 274.15 351.4
Q 274.15 351.1 274.1 350.65 271.15 357.95 251.25 363.35 227.9 369.8 194.85 369.8 161.8 369.8 138.4 363.35 119.95 358.35 116.1 351.75 Z"/>

<path fill="#191919" stroke="none" d="
M 158.55 352.85
Q 158.55 354.85 161.5 356.15 164.6 357.65 168.9 357.65 173.2 357.65 176.15 356.15 179.15 354.85 179.15 352.85 179.15 350.95 176.2 349.45 175.65 349.9 174.9 350.3 172.35 351.7 168.8 351.7 165.1 351.7 162.6 350.3 161.9 349.9 161.4 349.5 158.55 351 158.55 352.85
M 160.1 347
Q 160.1 348.4 161.4 349.5 161.9 349.9 162.6 350.3 165.1 351.7 168.8 351.7 172.35 351.7 174.9 350.3 175.65 349.9 176.2 349.45 177.45 348.4 177.45 347 177.45 345 174.9 343.55 172.35 342.25 168.8 342.25 165.1 342.25 162.6 343.55 160.1 345 160.1 347 Z"/>

<path fill="#FFFFFF" stroke="none" d="
M 65.65 108.1
Q 59.75 118.55 60.75 130.8 62.05 146 73.45 154.95 85 163.7 99.95 161 109.55 159.45 116.8 153.75 115.6 152.25 114.35 150.75 105.2 140.05 93.4 129.45 79.3 116.85 65.8 108.25 65.75 108.15 65.65 108.1 Z"/>

<path fill="#CCCCCC" stroke="none" d="
M 16.35 92.05
Q 14.1 93 12.55 94.85 4.5 103.85 16.6 126.2 29 148.45 54.1 170.8 79.3 193.3 102.85 202.7 126.5 212.15 134.45 203.1 135.9 201.6 136.7 199.55 137.55 197.3 137.6 194.75 138.1 186 130.3 171.7 124.35 160.85 115.25 150 114.8 150.4 114.35 150.75 115.6 152.25 116.8 153.75 109.55 159.45 99.95 161 85 163.7 73.45 154.95 62.05 146 60.75 130.8 59.75 118.55 65.65 108.1 65.75 108.15 65.8 108.25 66.1 107.55 66.5 106.95 55.05 99.7 44 95.3 25.65 87.9 16.8 91.75 16.5 91.85 16.35 92.05 Z"/>
</g>

<path id="Layer0_0_1_STROKES" stroke="#363636" stroke-width="3" stroke-linejoin="round" stroke-linecap="round" fill="none" d="
M 174.2 140.5
Q 170.8 133.9 167.3 128.05
M 152.65 141.15
Q 155.65 146.75 158.4 152.7
M 174.2 140.5
Q 177.2 146.3 180.05 152.7 182.7 158.45 185.15 164.8 185.65 166 186.15 167.2
M 167.3 128.05
Q 167.05 127.65 166.8 127.2
M 163.025 162.775
L 161.75 159.9
Q 160.25 156.65 158.8 153.5 158.6 153.1 158.4 152.7
M 163.025 162.775
Q 163.225 163.2 163.45 163.65
M 164.35 165.75
L 165.25 167.9
Q 166.7 171.4 168.15 174.95
M 163.45 163.65
Q 163.9 164.7 164.35 165.75
M 191.9 269.15
L 191.4 264.25
Q 191.2 262.6 191 261 190.4 255.1 189.55 249.55 188.7 243.85 187.75 238.6 186.7 233.2 185.55 228.2 185.15 226.4 184.75 224.65
L 183.25 219.05
Q 183 218.65 182.9 218.2 182.2 215.55 181.45 212.9
L 179.85 207.7
Q 178 201.85 176.05 196.15 174.25 190.9 172.35 185.75
L 172.25 185.4
Q 172.2 185.3 172.15 185.2 171.8 184.35 171.5 183.5 169.85 179.2 168.15 174.95
M 193.7 188.15
L 190.6 179.05
Q 190.25 177.95 189.85 176.9
M 193.95 189.05
Q 193.8 188.6 193.7 188.15
M 202.95 221
Q 203.5 223 203.65 223.6
L 205.8 235
Q 205.95 235.75 206.05 236.55
L 207.35 244.7
M 208 248.9
L 208.3 250.85
Q 208.7 253.9 209.1 257.05
L 209.15 257.45
M 210.45 269.4
L 209.45 260
M 212.3 293.7
L 212.5 297.25
Q 212.75 301.05 212.95 305.15 213.2 310.3 213.5 315.9
L 213.55 317
Q 213.55 317.55 213.6 318.1 213.6 318.7 213.65 319.3
L 213.9 325.1
M 214 326.9
Q 235 328.2 251.25 332.5 274.6 339 274.6 348.1 274.6 348.7 274.5 349.25
L 275.7 360.7
Q 275.7 360.75 275.7 360.8 275.7 361.15 275.7 361.5 275.7 370.4 252.05 376.8 228.3 383.3 194.7 383.3 161.2 383.3 137.45 376.8 113.75 370.4 113.75 361.5 113.75 361.45 113.75 361.35 113.75 360.85 113.85 360.35
L 115.05 348 115.15 346.85
Q 115.2 346.65 115.25 346.45 117.2 338.4 138.4 332.5 161.7 326.35 194.55 326.3
M 194.5 324.7
L 194.4 320
Q 194.35 319 194.3 318.05 194.3 317.35 194.3 316.7
L 194.2 312.75
Q 194.05 309.25 193.95 306
M 193.4 292.15
L 192.8 283.35 192.45 276.1
Q 192.4 275.3 192.35 274.5
L 192.2 272.8
M 191.9 269.15
Q 192 270.1 192.1 271.1
M 189.85 176.9
Q 189.45 175.85 189.05 174.8
L 186.15 167.2
M 193.95 189.05
Q 195.85 194.85 197.65 201
L 200.55 211.85
Q 202.15 218 202.95 221
M 159.95 116.85
L 174.35 98.2
Q 175.7 72.25 154.65 55.3 145.7 48.15 135.4 45.5 124.85 42.65 116.8 46.3
L 74.65 88.9
Q 77.85 90.35 81 91.85 113.25 108.15 128.45 131.95 133.05 139.5 136.15 147.6
L 147.85 132.5 159.95 116.85
Q 163.375 122.025 166.8 127.2
M 137.6 194.75
Q 137.55 197.3 136.7 199.55 135.9 201.6 134.45 203.1 126.5 212.15 102.85 202.7 79.3 193.3 54.1 170.8 29 148.45 16.6 126.2 4.5 103.85 12.55 94.85 14.1 93 16.35 92.05 16.5 91.85 16.8 91.75 41.75 75.55 74.65 88.9
M 16.8 91.75
Q 25.65 87.9 44 95.3 55.05 99.7 66.5 106.95 79.45 115.15 92.95 127.05 105.8 138.45 115.25 150 124.35 160.85 130.3 171.7 138.1 186 137.6 194.75 145.55 170.5 136.15 147.6
M 116.8 153.75
Q 109.55 159.45 99.95 161 85 163.7 73.45 154.95 62.05 146 60.75 130.8 59.75 118.55 65.65 108.1
M 147.85 132.5
Q 150.15 136.625 152.45 140.75 152.55 140.95 152.65 141.15
M 116.1 351.75
Q 115.05 349.95 115.05 348.1 115.05 348.05 115.05 348
M 116.1 351.75
Q 119.95 358.35 138.4 363.35 161.8 369.8 194.85 369.8 227.9 369.8 251.25 363.35 271.15 357.95 274.1 350.65 274.4 349.95 274.5 349.25
M 113.85 360.35
Q 114.15 358.7 115.25 357.15
M 207.35 244.7
Q 207.5 245.8 207.65 246.9 207.8 247.9 208 248.9
M 193.4 292.15
L 193.5 293.85
M 212.2 292.75
L 211.45 281.8
M 192.1 271.1
Q 192.15 271.95 192.2 272.8
M 209.25 258.65
Q 209.2 258.05 209.15 257.45
M 211.45 281.8
L 210.5 271.05
Q 210.45 270.25 210.45 269.5
M 209.45 260
Q 209.35 259.3 209.25 258.65
M 212.3 293.7
Q 212.25 293.25 212.2 292.75
M 214.25 333.4
L 214.6 341.75
Q 211 343.75 205.2 343.75 205.15 343.75 205.1 343.75 199.55 343.75 195.15 341.9 195 341.8 194.85 341.75
L 194.75 333.65
M 194.55 326.3
Q 194.65 328.65 194.7 331.05
M 213.9 325.1
Q 214 327.8 214.1 330.65 214.15 332 214.25 333.4
M 194.7 331.05
Q 194.75 332.35 194.75 333.65
M 274.45 357.5
Q 275.45 359.05 275.7 360.7"/>

<path id="Layer0_0_2_STROKES" stroke="#272727" stroke-width="2" stroke-linejoin="round" stroke-linecap="round" fill="none" d="
M 166.8 127.2
Q 177.25 144.35 186.15 167.2
M 164.35 165.75
Q 163.665625 164.2443359375 163.025 162.775
M 193.7 188.15
Q 196.75 197.6 199.65 207.8 201.4 214.1 202.95 221
M 207.35 244.7
Q 207.7 246.75 208 248.9
M 209.15 257.45
Q 209.3 258.7 209.45 260
M 210.45 269.5
Q 210.55 270.3 210.6 271.05 211.45 280.4 212.3 293.7
M 213.9 325.1
Q 213.95 326 214 326.9
M 194.5 324.7
Q 194.55 325.5 194.55 326.3
M 193.95 306
L 193.55 295.45
Q 193.45 293.75 193.4 292.15
M 192.2 272.8
Q 192.05 270.95 191.9 269.15
M 194.75 333.65
Q 194.6 329.9 194.55 326.3
M 214 326.9
Q 214.1 330.05 214.25 333.4"/>

<path id="Layer0_0_3_STROKES" stroke="#666666" stroke-width="1" stroke-linejoin="round" stroke-linecap="round" fill="none" d="
M 167.3 128.05
Q 163.1 135.8 152.65 141.15
M 158.4 152.7
Q 167.5 147.7 174.2 140.5
M 180.05 152.7
Q 174.35 157.65 163.45 163.65
M 168.15 174.95
Q 178.3 169.9 185.15 164.8
M 189.85 176.9
L 189.85 176.95
Q 182.05 181.5 172.15 185.2
M 192.1 271.1
Q 201.7 271.1 210.45 269.4
M 176.05 196.15
Q 186.15 194.05 193.95 189.05
M 203.65 223.6
Q 203.6 223.65 203.55 223.65 196.85 226.75 185.6 228.2
L 185.55 228.2
M 200.55 211.85
Q 192.7 216.35 183 218.2 182.95 218.2 182.9 218.2
M 205.8 235
Q 197.5 237.7 187.8 238.6
L 187.75 238.6
M 197.65 201
Q 190.1 204.6 179.85 207.7
M 189.55 249.55
L 189.6 249.55
Q 198.65 248.7 207.65 246.9
M 209.25 258.65
Q 200.65 260.35 191.05 261
L 191 261
M 193.5 293.85
Q 202.8 294.25 212.2 292.75
M 211.45 281.8
Q 202.15 283.9 192.95 283.35 192.85 283.35 192.8 283.35
M 194.7 331.05
Q 204.05 332.5 214.1 330.65
M 213.6 318.1
Q 204.05 319.8 194.35 318.05
L 194.3 318.05
M 193.95 306
Q 203.8 306.5 212.95 305.15"/>

<path id="Layer0_0_4_STROKES" stroke="#000000" stroke-width="2" stroke-linejoin="round" stroke-linecap="round" fill="none" d="
M 179.15 352.85
Q 179.15 354.85 176.15 356.15 173.2 357.65 168.9 357.65 164.6 357.65 161.5 356.15 158.55 354.85 158.55 352.85 158.55 351 161.4 349.5 160.1 348.4 160.1 347 160.1 345 162.6 343.55 165.1 342.25 168.8 342.25 172.35 342.25 174.9 343.55 177.45 345 177.45 347 177.45 348.4 176.2 349.45 179.15 350.95 179.15 352.85 Z
M 176.2 349.45
Q 175.65 349.9 174.9 350.3 172.35 351.7 168.8 351.7 165.1 351.7 162.6 350.3 161.9 349.9 161.4 349.5"/>
</defs>

<g transform="matrix( 1, 0, 0, 1, 0,0) ">
<use xlink:href="#Layer0_0_FILL"/>

<use xlink:href="#Layer0_0_1_STROKES"/>

<use xlink:href="#Layer0_0_2_STROKES"/>

<use xlink:href="#Layer0_0_3_STROKES"/>

<use xlink:href="#Layer0_0_4_STROKES"/>
</g>
</svg>
