<svg xmlns="http://www.w3.org/2000/svg" xmlns:xlink="http://www.w3.org/1999/xlink" preserveAspectRatio="none" width="285" height="427" viewBox="0 0 285 427"><defs><g id="a"><path fill="#999" d="M213.5 315.9q-.3-5.6-.55-10.75-9.15 1.35-19 .85.1 3.25.25 6.75l.1 3.95v1.35h.05q9.7 1.75 19.25.05-.05-.55-.05-1.1l-.05-1.1m-20.1-23.75q.05 1.6.15 3.3l.4 10.55q9.85.5 19-.85-.2-4.1-.45-7.9l-.2-3.55q-.05-.45-.1-.95-9.4 1.5-18.7 1.1l-.1-1.7m1.15 34.15q.05 3.6.2 7.35 0-1.3-.05-2.6-.05-2.4-.15-4.75m10.55 17.45h.1q5.8 0 9.4-2l-.35-8.35q-.1-1.4-.15-2.75-10.05 1.85-19.4.4.05 1.3.05 2.6l.1 8.1q.15.05.3.15 4.4 1.85 9.95 1.85m8.9-16.85l-.1-1.8q.1 2.7.2 5.55.05 1.35.15 2.75-.15-3.35-.25-6.5m-.35-7.6q-.05-.6-.05-1.2-9.55 1.7-19.25-.05h-.05q.05.95.1 1.95l.1 4.7q.05.8.05 1.6.1 2.35.15 4.75 9.35 1.45 19.4-.4-.1-2.85-.2-5.55l-.25-5.8m-3.05-48.25q-.05-.75-.15-1.55 0 .75.05 1.55l.95 10.75.75 10.95q.05.5.1.95-.85-13.3-1.7-22.65m-1.45-13.6l.1 1.2q.1.65.2 1.35-.15-1.3-.3-2.55m-16.8 17.05l.1 1.6.35 7.25h.15q9.2.55 18.5-1.55l-.95-10.75q-.05-.8-.05-1.55v-.1q-8.75 1.7-18.35 1.7l.1 1.7.15 1.7m.45 8.85l.6 8.8.1 1.7q9.3.4 18.7-1.1l-.75-10.95q-9.3 2.1-18.5 1.55h-.15m-.7-12.25q-.1-1-.2-1.95.15 1.8.3 3.65l-.1-1.7M191 261q.2 1.6.4 3.25l.5 4.9q.1.95.2 1.95 9.6 0 18.35-1.7l-1-9.4q-.1-.7-.2-1.35-8.6 1.7-18.2 2.35H191m-1.4-11.45h-.05q.85 5.55 1.45 11.45h.05q9.6-.65 18.2-2.35l-.1-1.2-.05-.4q-.4-3.15-.8-6.2l-.3-1.95q-.2-1-.35-2-9 1.8-18.05 2.65m-6.7-31.35h.1q9.7-1.85 17.55-6.35l-2.9-10.85q-7.55 3.6-17.8 6.7l1.6 5.2q.75 2.65 1.45 5.3m22.9 16.8l-2.15-11.4q-.05.05-.1.05-6.7 3.1-17.95 4.55h-.05q1.15 5 2.2 10.4h.05q9.7-.9 18-3.6m1.55 9.7l.3 2.2q.15 1 .35 2-.3-2.15-.65-4.2m-1.3-8.15q-.1-.8-.25-1.55-8.3 2.7-18 3.6h-.05q.95 5.25 1.8 10.95h.05q9.05-.85 18.05-2.65l-.3-2.2-1.3-8.15m-2.4-12.95q-.15-.6-.7-2.6-.8-3-2.4-9.15-7.85 4.5-17.55 6.35h-.1q.1.45.35.85l1.5 5.6q.4 1.75.8 3.55h.05q11.25-1.45 17.95-4.55.05 0 .1-.05M115.05 348v.1q0 1.85 1.05 3.65 3.85 6.6 22.3 11.6 23.4 6.45 56.45 6.45 33.05 0 56.4-6.45 19.9-5.4 22.85-12.7.3-.7.4-1.4.1-.55.1-1.15 0-9.1-23.35-15.6-16.25-4.3-37.25-5.6.1 3.15.25 6.5l.35 8.35q-3.6 2-9.4 2h-.1q-5.55 0-9.95-1.85-.15-.1-.3-.15l-.1-8.1q-.15-3.75-.2-7.35-32.85.05-56.15 6.2-21.2 5.9-23.15 13.95l-.1.4-.1 1.15m46.35 1.5q-1.3-1.1-1.3-2.5 0-2 2.5-3.45 2.5-1.3 6.2-1.3 3.55 0 6.1 1.3 2.55 1.45 2.55 3.45 0 1.4-1.25 2.45 2.95 1.5 2.95 3.4 0 2-3 3.3-2.95 1.5-7.25 1.5t-7.4-1.5q-2.95-1.3-2.95-3.3 0-1.85 2.85-3.35M74.65 88.9q-32.9-13.35-57.85 2.85Q25.65 87.9 44 95.3q11.05 4.4 22.5 11.65 12.95 8.2 26.45 20.1 12.85 11.4 22.3 22.95 9.1 10.85 15.05 21.7 7.8 14.3 7.3 23.05 7.95-24.25-1.45-47.15-3.1-8.1-7.7-15.65-15.2-23.8-47.45-40.1-3.15-1.5-6.35-2.95m60.75-43.4q-10.55-2.85-18.6.8L74.65 88.9q3.2 1.45 6.35 2.95 32.25 16.3 47.45 40.1 4.6 7.55 7.7 15.65l11.7-15.1 12.1-15.65 14.4-18.65q1.35-25.95-19.7-42.9-8.95-7.15-19.25-9.8m58.55 143.55q-7.8 5-17.9 7.1 1.95 5.7 3.8 11.55 10.25-3.1 17.8-6.7-1.8-6.15-3.7-11.95m-.25-.9q.1.45.25.9 1.9 5.8 3.7 11.95l2.9 10.85q1.6 6.15 2.4 9.15-1.55-6.9-3.3-13.2-2.9-10.2-5.95-19.65m-21.35-2.4q1.9 5.15 3.7 10.4 10.1-2.1 17.9-7.1-.15-.45-.25-.9l-3.1-9.1q-.35-1.1-.75-2.15v.05q-7.8 4.55-17.7 8.25l.1.2.1.35m-8-20l.9 2.15q1.45 3.5 2.9 7.05 10.15-5.05 17-10.15-2.45-6.35-5.1-12.1-5.7 4.95-16.6 10.95l.9 2.1m-1.35-3l.45.9q10.9-6 16.6-10.95-2.85-6.4-5.85-12.2-6.7 7.2-15.8 12.2l.4.8q1.45 3.15 2.95 6.4l1.25 2.85m0 0q.666 1.494 1.35 3l-.9-2.1-.45-.9m23.15 4.45l-1-2.4q-6.85 5.1-17 10.15 1.7 4.25 3.35 8.55.3.85.65 1.7 9.9-3.7 17.7-8.25v-.05l-.8-2.1-2.9-7.6m-18.85-39.15q-.25-.4-.5-.85l-6.85-10.35-12.1 15.65 4.6 8.25.2.4q10.45-5.35 14.65-13.1m0 0q3.5 5.85 6.9 12.45 3 5.8 5.85 12.2 2.65 5.75 5.1 12.1l1 2.4q-8.9-22.85-19.35-40 .25.45.5.85m6.9 12.45q-3.4-6.6-6.9-12.45-4.2 7.75-14.65 13.1 3 5.6 5.75 11.55 9.1-5 15.8-12.2z"/><path fill="#8A8A8A" d="M116.1 351.75q-.05.1-.05.25-.6 3.25-.8 5.15-1.1 1.55-1.4 3.2-.1.5-.1 1v.15q0 8.9 23.7 15.3 23.75 6.5 57.25 6.5 33.6 0 57.35-6.5 23.65-6.4 23.65-15.3v-.7-.1q-.25-1.65-1.25-3.2-.1-.65-.3-1.55-.55-2-.55-2.95l.55-1.6q0-.3-.05-.75-2.95 7.3-22.85 12.7-23.35 6.45-56.4 6.45t-56.45-6.45q-18.45-5-22.3-11.6z"/><path fill="#191919" d="M158.55 352.85q0 2 2.95 3.3 3.1 1.5 7.4 1.5 4.3 0 7.25-1.5 3-1.3 3-3.3 0-1.9-2.95-3.4-.55.45-1.3.85-2.55 1.4-6.1 1.4-3.7 0-6.2-1.4-.7-.4-1.2-.8-2.85 1.5-2.85 3.35m1.55-5.85q0 1.4 1.3 2.5.5.4 1.2.8 2.5 1.4 6.2 1.4 3.55 0 6.1-1.4.75-.4 1.3-.85 1.25-1.05 1.25-2.45 0-2-2.55-3.45-2.55-1.3-6.1-1.3-3.7 0-6.2 1.3-2.5 1.45-2.5 3.45z"/><path fill="#FFF" d="M65.65 108.1q-5.9 10.45-4.9 22.7 1.3 15.2 12.7 24.15Q85 163.7 99.95 161q9.6-1.55 16.85-7.25-1.2-1.5-2.45-3-9.15-10.7-20.95-21.3-14.1-12.6-27.6-21.2-.05-.1-.15-.15z"/><path fill="#CCC" d="M16.35 92.05q-2.25.95-3.8 2.8-8.05 9 4.05 31.35 12.4 22.25 37.5 44.6 25.2 22.5 48.75 31.9 23.65 9.45 31.6.4 1.45-1.5 2.25-3.55.85-2.25.9-4.8.5-8.75-7.3-23.05-5.95-10.85-15.05-21.7-.45.4-.9.75 1.25 1.5 2.45 3-7.25 5.7-16.85 7.25-14.95 2.7-26.5-6.05-11.4-8.95-12.7-24.15-1-12.25 4.9-22.7.1.05.15.15.3-.7.7-1.3Q55.05 99.7 44 95.3q-18.35-7.4-27.2-3.55-.3.1-.45.3z"/></g><path id="b" stroke="#363636" stroke-width="3" stroke-linejoin="round" stroke-linecap="round" fill="none" d="M174.2 140.5q-3.4-6.6-6.9-12.45m-14.65 13.1q3 5.6 5.75 11.55m15.8-12.2q3 5.8 5.85 12.2 2.65 5.75 5.1 12.1l1 2.4m-18.85-39.15q-.25-.4-.5-.85m-3.775 35.575l-1.275-2.875q-1.5-3.25-2.95-6.4l-.4-.8m4.625 10.075q.2.425.425.875m.9 2.1l.9 2.15q1.45 3.5 2.9 7.05m-4.7-11.3l.9 2.1m27.55 103.4l-.5-4.9q-.2-1.65-.4-3.25-.6-5.9-1.45-11.45-.85-5.7-1.8-10.95-1.05-5.4-2.2-10.4-.4-1.8-.8-3.55l-1.5-5.6q-.25-.4-.35-.85-.7-2.65-1.45-5.3l-1.6-5.2q-1.85-5.85-3.8-11.55-1.8-5.25-3.7-10.4l-.1-.35-.1-.2q-.35-.85-.65-1.7-1.65-4.3-3.35-8.55m25.55 13.2l-3.1-9.1q-.35-1.1-.75-2.15m4.1 12.15q-.15-.45-.25-.9m9.25 32.85q.55 2 .7 2.6l2.15 11.4q.15.75.25 1.55l1.3 8.15m.65 4.2l.3 1.95q.4 3.05.8 6.2l.05.4m1.3 11.95l-1-9.4m2.85 33.7l.2 3.55q.25 3.8.45 7.9.25 5.15.55 10.75l.05 1.1q0 .55.05 1.1 0 .6.05 1.2l.25 5.8m.1 1.8q21 1.3 37.25 5.6 23.35 6.5 23.35 15.6 0 .6-.1 1.15l1.2 11.45V361.5q0 8.9-23.65 15.3-23.75 6.5-57.35 6.5-33.5 0-57.25-6.5-23.7-6.4-23.7-15.3v-.15q0-.5.1-1l1.2-12.35.1-1.15.1-.4q1.95-8.05 23.15-13.95 23.3-6.15 56.15-6.2m-.05-1.6l-.1-4.7q-.05-1-.1-1.95v-1.35l-.1-3.95q-.15-3.5-.25-6.75m-.55-13.85l-.6-8.8-.35-7.25-.1-1.6-.15-1.7m-.3-3.65q.1.95.2 1.95m-2.25-94.2l-.8-2.1-2.9-7.6m7.8 21.85q1.9 5.8 3.7 11.95l2.9 10.85q1.6 6.15 2.4 9.15m-43-104.15l14.4-18.65q1.35-25.95-19.7-42.9-8.95-7.15-19.25-9.8-10.55-2.85-18.6.8L74.65 88.9q3.2 1.45 6.35 2.95 32.25 16.3 47.45 40.1 4.6 7.55 7.7 15.65l11.7-15.1 12.1-15.65 6.85 10.35m-29.2 67.55q-.05 2.55-.9 4.8-.8 2.05-2.25 3.55-7.95 9.05-31.6-.4-23.55-9.4-48.75-31.9-25.1-22.35-37.5-44.6-12.1-22.35-4.05-31.35 1.55-1.85 3.8-2.8.15-.2.45-.3 24.95-16.2 57.85-2.85M16.8 91.75Q25.65 87.9 44 95.3q11.05 4.4 22.5 11.65 12.95 8.2 26.45 20.1 12.85 11.4 22.3 22.95 9.1 10.85 15.05 21.7 7.8 14.3 7.3 23.05 7.95-24.25-1.45-47.15m-19.35 6.15q-7.25 5.7-16.85 7.25-14.95 2.7-26.5-6.05-11.4-8.95-12.7-24.15-1-12.25 4.9-22.7m82.2 24.4l4.6 8.25.2.4m-36.55 210.6q-1.05-1.8-1.05-3.65v-.1m1.05 3.75q3.85 6.6 22.3 11.6 23.4 6.45 56.45 6.45 33.05 0 56.4-6.45 19.9-5.4 22.85-12.7.3-.7.4-1.4m-160.65 11.1q.3-1.65 1.4-3.2m92.1-112.45l.3 2.2q.15 1 .35 2m-14.6 43.25l.1 1.7m18.7-1.1l-.75-10.95m-19.35-10.7l.1 1.7m17.05-14.15l-.1-1.2m2.3 24.35l-.95-10.75q-.05-.8-.05-1.55m-1-9.5q-.1-.7-.2-1.35m3.05 35.05q-.05-.45-.1-.95m2.05 40.65l.35 8.35q-3.6 2-9.4 2h-.1q-5.55 0-9.95-1.85-.15-.1-.3-.15l-.1-8.1m-.2-7.35q.1 2.35.15 4.75m19.2-5.95q.1 2.7.2 5.55.05 1.35.15 2.75m-19.55-2.35q.05 1.3.05 2.6m79.7 23.85q1 1.55 1.25 3.2"/><path id="c" stroke="#272727" stroke-width="2" stroke-linejoin="round" stroke-linecap="round" fill="none" d="M166.8 127.2q10.45 17.15 19.35 40m-21.8-1.45q-.684-1.506-1.325-2.975M193.7 188.15q3.05 9.45 5.95 19.65 1.75 6.3 3.3 13.2m4.4 23.7q.35 2.05.65 4.2m1.15 8.55q.15 1.25.3 2.55m1 9.5q.1.8.15 1.55.85 9.35 1.7 22.65m1.6 31.4l.1 1.8m-19.5-2.2q.05.8.05 1.6m-.6-20.3l-.4-10.55q-.1-1.7-.15-3.3m-1.2-19.35q-.15-1.85-.3-3.65m2.85 64.5q-.15-3.75-.2-7.35m19.45.6q.1 3.15.25 6.5"/><path id="d" stroke="#666" stroke-width="1" stroke-linejoin="round" stroke-linecap="round" fill="none" d="M167.3 128.05q-4.2 7.75-14.65 13.1m5.75 11.55q9.1-5 15.8-12.2m5.85 12.2q-5.7 4.95-16.6 10.95m4.7 11.3q10.15-5.05 17-10.15m4.7 12.1v.05q-7.8 4.55-17.7 8.25m19.95 85.9q9.6 0 18.35-1.7m-34.4-73.25q10.1-2.1 17.9-7.1m9.7 34.55q-.05.05-.1.05-6.7 3.1-17.95 4.55h-.05m15-16.35q-7.85 4.5-17.55 6.35h-.1m22.9 16.8q-8.3 2.7-18 3.6h-.05m9.9-37.6q-7.55 3.6-17.8 6.7m9.7 41.85h.05q9.05-.85 18.05-2.65m1.6 11.75q-8.6 1.7-18.2 2.35H191m2.5 32.85q9.3.4 18.7-1.1m-.75-10.95q-9.3 2.1-18.5 1.55h-.15m1.9 47.7q9.35 1.45 19.4-.4m-.5-12.55q-9.55 1.7-19.25-.05h-.05m-.35-12.05q9.85.5 19-.85"/><path id="e" stroke="#000" stroke-width="2" stroke-linejoin="round" stroke-linecap="round" fill="none" d="M179.15 352.85q0 2-3 3.3-2.95 1.5-7.25 1.5t-7.4-1.5q-2.95-1.3-2.95-3.3 0-1.85 2.85-3.35-1.3-1.1-1.3-2.5 0-2 2.5-3.45 2.5-1.3 6.2-1.3 3.55 0 6.1 1.3 2.55 1.45 2.55 3.45 0 1.4-1.25 2.45 2.95 1.5 2.95 3.4zm-2.95-3.4q-.55.45-1.3.85-2.55 1.4-6.1 1.4-3.7 0-6.2-1.4-.7-.4-1.2-.8"/></defs><g><use xlink:href="#a"/><use xlink:href="#b"/><use xlink:href="#c"/><use xlink:href="#d"/><use xlink:href="#e"/></g></svg>