<?xml version="1.0" encoding="utf-8"?>
<!-- Generator: Adobe Illustrator 16.0.0, SVG Export Plug-In . SVG Version: 6.00 Build 0)  -->
<!DOCTYPE svg PUBLIC "-//W3C//DTD SVG 1.1//EN" "http://www.w3.org/Graphics/SVG/1.1/DTD/svg11.dtd">
<svg version="1.1" id="Layer_1" xmlns="http://www.w3.org/2000/svg" xmlns:xlink="http://www.w3.org/1999/xlink" x="0px" y="0px"
	 width="900px" height="450px" viewBox="0 0 900 450" enable-background="new 0 0 900 450" xml:space="preserve">
<g transform="matrix( 0.8746490478515625, 0, 0, 0.8746490478515625, -6.35,96.25) ">
	<g>
		<g id="Layer0_0_FILL">
			<path fill="#8C0000" d="M831.985,206.724c-2.136,0.205-5.714,0.759-10.742,1.65c-8.124,1.722-17.662,9.743-28.606,24.065
				c-11.086,14.182-20.173,23.754-27.267,28.711c-14.389,9.503-29.226,13.597-44.515,12.287c9.709,27.471,10.845,46.821,3.41,58.043
				c-7.023,10.123-23.379,15.698-49.06,16.732c0.893,4.82,2.444,9.81,4.649,14.975c25.128-11.431,46.168-10.878,63.103,1.652
				c-16.935-12.533-37.975-13.086-63.103-1.652c0.757,1.722,1.551,3.476,2.375,5.267h60.313c4.134-7.024,8.334-14.907,12.602-23.651
				c30.501-19.485,52.36-40.313,65.58-62.484c12.325-20.313,19.245-44.924,20.762-73.843
				C838.386,207.242,835.221,206.654,831.985,206.724 M795.733,250.099c6.199-6.198,13.359-14.873,21.483-26.025
				c9.641-6.748,16.456-9.297,20.449-7.644c-3.993-1.655-10.808,0.893-20.449,7.644C809.092,235.226,801.93,243.903,795.733,250.099
				c5.99,15.08,8.851,31.57,8.574,49.47C804.582,281.669,801.723,265.179,795.733,250.099c-0.274,0.276-0.448,0.482-0.517,0.619
				c-25.268,26.303-46.988,38.523-65.168,36.664c18.18,1.859,39.9-10.361,65.168-36.664
				C795.285,250.583,795.459,250.375,795.733,250.099 M754.32,283.665l4.543,57.215L754.32,283.665 M774.87,271.064
				c6.402,17.144,8.951,33.185,7.643,48.129C783.823,304.249,781.274,288.208,774.87,271.064z"/>
			<path fill="#E7B1AD" d="M549.002,238.222c9.845,5.786,18.73,10.606,26.643,14.461c20.104,9.843,34.598,14.182,43.482,13.012
				c-1.31,8.125,11.153,28.85,37.384,62.171c6.336,6.13,12.571,12.909,18.694,20.35c25.682-1.035,42.037-6.61,49.06-16.732
				c7.435-11.222,6.301-30.574-3.41-58.043c-11.842-5.231-25.405-12.599-40.69-22.101c-15.698-9.916-33.015-24.03-51.951-42.346
				c-18.934-18.175-40.208-44.167-63.824-77.973c-23.55-33.876-39.835-58.661-48.853-74.36
				c-9.157-15.973-51.638-41.416-127.445-76.324C311.735-54.571,256.86-75.641,223.467-82.871
				c-21.276,40.553-30.123,79.456-26.544,116.706l25.614,10.223c38.625,15.355,78.078,28.299,118.356,38.833
				c36.767,9.364,77.183,17.626,121.248,24.786l12.499-0.518l0.309,0.518c-1.929,9.019,0.173,17.144,6.301,24.374
				c-3.443,1.377-4.855,6.92-4.236,16.627c2.409,11.085,6.678,23.134,12.807,36.148c6.265,12.94,20.105,27.022,41.517,42.24
				C536.849,230.856,542.736,234.574,549.002,238.222 M709.288,334.786c-3.649,2.687-7.676,3.822-12.083,3.409
				c-10.74-1.237-15.665-10.464-14.769-27.676c12.532,17.142,23.823,21.205,33.877,12.187
				C715.623,327.731,713.283,331.759,709.288,334.786 M487.655,44.472c-4.339,20.793,3.889,33.495,24.683,38.11
				C491.543,77.969,483.315,65.266,487.655,44.472z"/>
			<path fill="#F0ACF0" d="M697.205,338.195c4.407,0.413,8.434-0.721,12.083-3.409c3.995-3.027,6.335-7.055,7.025-12.082
				c-10.054,9.018-21.347,4.956-33.877-12.186C681.542,327.731,686.466,336.958,697.205,338.195z"/>
			<path fill="#E29F9A" d="M575.645,252.683c-16.249-6.747-31.017-15.284-44.307-25.613c-21.409-15.216-35.251-29.296-41.517-42.24
				c-6.129-13.013-10.398-25.065-12.807-36.147c-0.619-9.709,0.793-15.252,4.236-16.628c-6.128-7.23-8.23-15.354-6.301-24.373
				l-0.309-0.518l-12.499,0.518c-44.065-7.161-84.48-15.423-121.248-24.786c-40.278-10.535-79.731-23.48-118.356-38.834
				l-25.614-10.223c1.86,18.728,6.61,36.663,14.253,53.807c36.973,7.437,74.395,13.6,112.263,18.487
				c24.58,3.305,58.007,7.024,100.282,11.155l21.07,8.262c9.157,30.228,24.235,58.525,45.236,84.898
				c16.042,20.239,36.146,36.696,60.312,49.367c24.58,12.943,48.265,26.437,71.056,40.483c10.671,6.887,22.377,16.077,35.113,27.575
				c-26.234-33.326-38.695-54.047-37.386-62.173C610.243,266.865,595.751,262.526,575.645,252.683z"/>
			<path fill="#ED94BE" fill-opacity="0.7412" d="M531.34,227.069c13.29,10.329,28.059,18.866,44.307,25.614
				c-7.915-3.855-16.798-8.678-26.643-14.461C542.736,234.574,536.849,230.856,531.34,227.069z"/>
		</g>
	</g>
	<g transform="matrix( 1.143310546875, 0, 0, 1.143310546875, 7.25,-110) ">
		<path id="Layer0_0_1_STROKES" fill="none" stroke="#000000" stroke-width="5" stroke-linecap="round" stroke-linejoin="round" d="
			M730.665,279.515c-0.3-0.117-0.567-0.208-0.807-0.267c-1.312,25.063-7.31,46.396-17.99,64.002
			c-11.458,19.214-30.407,37.268-56.84,54.153c-3.701,7.58-7.344,14.412-10.923,20.501 M589.77,413.339
			c0.658,1.49,1.345,3.014,2.06,4.565 M585.743,400.36c0.775,4.178,2.12,8.505,4.025,12.979 M569.541,382.724
			c5.488,5.313,10.891,11.189,16.203,17.636 M539.106,358.827c9.252,5.969,19.395,13.934,30.435,23.897 M663.888,324.9
			c-12.474,8.236-25.332,11.788-38.581,10.653 M687.519,300.016c-9.606,12.295-17.484,20.589-23.631,24.884 M712.316,279.161
			c-7.043,1.491-15.31,8.442-24.799,20.855 M721.623,277.726c-1.849,0.179-4.954,0.657-9.308,1.435 M729.858,279.248
			c-2.687-1.074-5.431-1.58-8.235-1.521 M664.335,417.906c2.627-10.625,12.949-20.142,30.972-28.557
			c14.385-16.946,26.169-34.433,35.358-52.454 M625.308,335.553c8.414,23.81,9.399,40.582,2.955,50.308
			c-6.087,8.771-20.259,13.604-42.52,14.499"/>
	</g>
	<g transform="matrix( 1.143310546875, 0, 0, 1.143310546875, 7.25,-110) ">
		<path id="Layer0_0_2_STROKES" fill="none" stroke="#333333" stroke-width="5" stroke-miterlimit="10" d="M477.521,323.737
			c21.304,11.22,41.832,22.915,61.585,35.09 M425.246,280.95c13.904,17.545,31.328,31.809,52.275,42.787 M386.039,207.369
			c7.938,26.196,21.005,50.723,39.207,73.58 M367.777,200.208l18.262,7.161 M280.861,190.54c21.304,2.865,50.276,6.088,86.917,9.667
			 M183.56,174.518c32.045,6.445,64.479,11.787,97.301,16.022 M336.896,81.513c-66.181-30.255-113.742-48.515-142.684-54.782
			 M447.355,147.664c-7.938-13.844-44.756-35.895-110.458-66.15 M489.694,212.113c-20.408-29.36-34.521-50.844-42.339-64.45
			 M545.014,279.697c-16.41-15.755-34.851-38.282-55.318-67.583 M590.039,316.395c-13.606-8.591-28.614-20.824-45.025-36.698
			 M625.308,335.553c-10.264-4.537-22.02-10.922-35.268-19.158"/>
	</g>
	<g transform="matrix( 1.143310546875, 0, 0, 1.143310546875, 7.25,-110) ">
		
			<path id="Layer0_0_3_STROKES" fill="none" stroke="#000000" stroke-width="2" stroke-linecap="round" stroke-linejoin="round" stroke-opacity="0.2" d="
			M633.273,344.637c15.754,1.61,34.584-8.983,56.482-31.777c0.061-0.12,0.208-0.299,0.448-0.536
			c5.372-5.373,11.576-12.891,18.619-22.559c8.353-5.851,14.262-8.058,17.725-6.625 M654.309,341.414l3.94,49.592 M589.77,410.339
			c21.783-9.904,40.014-9.43,54.692,1.432 M697.635,355.2c0.236-15.515-2.236-29.808-7.43-42.876 M672.123,330.492
			c5.548,14.86,7.758,28.766,6.625,41.714"/>
	</g>
	<g transform="matrix( 1.143310546875, 0, 0, 1.143310546875, 7.25,-110) ">
		<path id="Layer0_0_4_STROKES" fill="none" stroke="#000000" stroke-linecap="round" stroke-linejoin="round" d="M620.002,378.371
			c-8.714,7.818-18.499,4.297-29.362-10.563"/>
	</g>
	<g transform="matrix( 1.143310546875, 0, 0, 1.143310546875, 7.25,-110) ">
		
			<path id="Layer0_0_5_STROKES" fill="none" stroke="#000000" stroke-width="3" stroke-linecap="round" stroke-linejoin="round" stroke-opacity="0.1294" d="
			M419.302,137.063c-3.761,18.021,3.371,29.031,21.394,33.031"/>
	</g>
</g>
</svg>
