<svg xmlns="http://www.w3.org/2000/svg" width="900" height="450" viewBox="0 0 900 450"><path fill="#8C0000" d="M721.345 277.06c-1.868.18-4.998.665-9.396 1.444-7.105 1.506-15.448 8.522-25.02 21.049-9.696 12.404-17.644 20.776-23.849 25.112-12.585 8.311-25.562 11.892-38.935 10.746 8.492 24.028 9.486 40.952 2.983 50.768-6.143 8.854-20.449 13.73-42.91 14.634.78 4.216 2.137 8.58 4.066 13.098 21.978-9.998 40.38-9.514 55.193 1.445-14.813-10.962-33.215-11.446-55.193-1.445.662 1.506 1.356 3.04 2.077 4.607h52.753c3.615-6.144 7.289-13.038 11.022-20.686 26.678-17.043 45.797-35.26 57.36-54.652 10.78-17.767 16.832-39.293 18.159-64.587-2.711-1.079-5.48-1.593-8.31-1.532m-31.708 37.938c5.422-5.421 11.685-13.009 18.79-22.763 8.433-5.902 14.393-8.132 17.886-6.686-3.493-1.447-9.453.781-17.886 6.686-7.105 9.754-13.37 17.344-18.79 22.763 5.24 13.19 7.742 27.613 7.5 43.269.24-15.656-2.26-30.08-7.5-43.27-.24.242-.392.422-.452.542-22.1 23.006-41.098 33.694-57 32.068 15.902 1.626 34.9-9.062 57-32.068.06-.118.212-.3.452-.541m-36.222 29.358l3.974 50.043-3.974-50.043m17.974-11.021c5.6 14.995 7.83 29.025 6.685 42.096 1.146-13.07-1.083-27.101-6.685-42.096z"/><path fill="#E7B1AD" d="M473.834 304.61c8.611 5.061 16.382 9.277 23.303 12.649 17.584 8.61 30.261 12.404 38.032 11.38-1.146 7.107 9.755 25.235 32.698 54.379 5.541 5.361 10.995 11.29 16.35 17.799 22.463-.905 36.768-5.782 42.91-14.635 6.504-9.815 5.512-26.741-2.982-50.767-10.357-4.575-22.22-11.02-35.59-19.33-13.73-8.674-28.876-21.019-45.438-37.039-16.56-15.896-35.168-38.63-55.824-68.199-20.598-29.63-34.841-51.307-42.73-65.039-8.008-13.97-45.164-36.224-111.469-66.756C266.31 48.52 218.312 30.09 189.105 23.767c-18.609 35.47-26.347 69.496-23.216 102.077l22.403 8.941a888.526 888.526 0 0 0 103.52 33.966c32.158 8.19 67.508 15.416 106.05 21.679l10.931-.453.27.453c-1.687 7.888.152 14.995 5.512 21.318-3.012 1.205-4.247 6.053-3.705 14.543 2.107 9.696 5.84 20.234 11.201 31.617 5.48 11.318 17.585 23.635 36.313 36.945 4.82 3.315 9.97 6.567 15.45 9.758m140.194 84.46c-3.192 2.35-6.714 3.342-10.568 2.98-9.394-1.081-13.702-9.151-12.918-24.206 10.961 14.993 20.837 18.547 29.63 10.66-.603 4.395-2.65 7.918-6.144 10.565M420.177 135.147c-3.795 18.187 3.401 29.297 21.589 33.333-18.188-4.034-25.385-15.145-21.589-33.333z"/><path fill="#F0ACF0" d="M603.46 392.052c3.854.361 7.376-.63 10.568-2.982 3.494-2.647 5.541-6.17 6.144-10.567-8.793 7.887-18.67 4.335-29.63-10.659-.782 15.056 3.525 23.126 12.918 24.208z"/><path fill="#E29F9A" d="M497.137 317.259c-14.212-5.901-27.129-13.368-38.753-22.402-18.725-13.31-30.832-25.624-36.313-36.946-5.36-11.381-9.094-21.923-11.201-31.616-.542-8.492.693-13.34 3.705-14.543-5.36-6.324-7.199-13.43-5.511-21.318l-.27-.453-10.933.453c-38.541-6.263-73.89-13.49-106.05-21.68a888.861 888.861 0 0 1-103.52-33.965l-22.402-8.942c1.626 16.38 5.78 32.068 12.466 47.062a1418.414 1418.414 0 0 0 98.19 16.17c21.5 2.89 50.736 6.144 87.712 9.757l18.429 7.226c8.01 26.44 21.197 51.189 39.566 74.256 14.03 17.702 31.615 32.096 52.751 43.179 21.5 11.32 42.215 23.123 62.15 35.408 9.333 6.024 19.572 14.062 30.711 24.119-22.945-29.149-33.844-47.272-32.7-54.38-7.766 1.02-20.441-2.776-38.027-11.385z"/><path fill="#ED94BE" fill-opacity=".741" d="M458.386 294.856c11.624 9.034 24.542 16.5 38.753 22.403-6.923-3.372-14.692-7.59-23.303-12.648-5.482-3.191-10.632-6.443-15.45-9.755z"/><path fill="none" stroke="#000" stroke-width="5" stroke-linecap="round" stroke-linejoin="round" d="M730.653 279.552a6.627 6.627 0 0 0-.807-.267c-1.312 25.063-7.31 46.396-17.99 64.002-11.458 19.214-30.407 37.268-56.84 54.153-3.7 7.58-7.344 14.412-10.923 20.5m-54.334-4.564c.658 1.49 1.345 3.014 2.06 4.565m-6.087-17.544c.775 4.178 2.12 8.505 4.025 12.979M569.53 382.76c5.488 5.313 10.89 11.189 16.203 17.636m-46.638-41.533c9.252 5.969 19.395 13.934 30.435 23.897m94.346-57.824c-12.474 8.236-25.332 11.788-38.58 10.653m62.211-35.537c-9.606 12.295-17.484 20.59-23.63 24.884m48.427-45.739c-7.043 1.491-15.31 8.442-24.799 20.855m34.106-22.29c-1.849.18-4.954.657-9.308 1.435m17.543.087c-2.687-1.074-5.431-1.58-8.235-1.52m-57.288 140.178c2.627-10.625 12.95-20.142 30.972-28.557 14.385-16.946 26.169-34.433 35.358-52.454m-105.357-1.342c8.414 23.81 9.4 40.582 2.955 50.308-6.087 8.77-20.259 13.604-42.52 14.499"/><g><path fill="none" stroke="#333" stroke-width="5" stroke-miterlimit="10" d="M477.51 323.774c21.304 11.22 41.832 22.915 61.585 35.09m-113.86-77.877c13.904 17.545 31.328 31.81 52.275 42.787m-91.482-116.367c7.938 26.196 21.005 50.722 39.207 73.58m-57.468-80.741l18.261 7.16m-105.177-16.828c21.304 2.865 50.276 6.088 86.917 9.667m-184.218-25.69a1405.513 1405.513 0 0 0 97.3 16.023M336.887 81.55C270.705 51.296 223.144 33.036 194.202 26.77m253.142 120.933c-7.938-13.844-44.756-35.895-110.457-66.15m152.796 130.599c-20.408-29.36-34.52-50.844-42.339-64.45m97.659 132.033c-16.41-15.755-34.851-38.281-55.318-67.582m100.343 104.28c-13.606-8.59-28.614-20.824-45.025-36.698m80.293 55.856c-10.264-4.537-22.02-10.922-35.267-19.158"/></g><g><path fill="none" stroke="#000" stroke-width="2" stroke-linecap="round" stroke-linejoin="round" stroke-opacity=".2" d="M633.261 344.674c15.754 1.61 34.584-8.983 56.482-31.777.061-.12.208-.299.448-.536 5.372-5.373 11.576-12.89 18.619-22.559 8.353-5.85 14.262-8.058 17.725-6.625m-72.238 58.274l3.94 49.592m-68.478 19.333c21.782-9.904 40.013-9.43 54.691 1.432m53.173-56.571c.236-15.515-2.236-29.808-7.43-42.876m-18.082 18.168c5.548 14.86 7.758 28.766 6.625 41.714"/></g><g><path fill="none" stroke="#000" stroke-linecap="round" stroke-linejoin="round" d="M619.99 378.408c-8.714 7.818-18.499 4.297-29.361-10.563"/></g><g><path fill="none" stroke="#000" stroke-width="3" stroke-linecap="round" stroke-linejoin="round" stroke-opacity=".129" d="M419.291 137.101c-3.76 18.02 3.371 29.03 21.394 33.03"/></g></svg>