<?xml version="1.0" encoding="utf-8"?>
<!-- Generator: Adobe Illustrator 16.0.0, SVG Export Plug-In . SVG Version: 6.00 Build 0)  -->
<!DOCTYPE svg PUBLIC "-//W3C//DTD SVG 1.1//EN" "http://www.w3.org/Graphics/SVG/1.1/DTD/svg11.dtd">
<svg version="1.1" id="Layer_1" xmlns="http://www.w3.org/2000/svg" xmlns:xlink="http://www.w3.org/1999/xlink" x="0px" y="0px"
	 width="900px" height="450px" viewBox="0 0 900 450" enable-background="new 0 0 900 450" xml:space="preserve">
<g transform="matrix( 1, 0, 0, 1, 0,0) ">
	<g>
		
			<path id="Layer0_0_1_STROKES" fill="none" stroke="#3E58B5" stroke-width="12" stroke-linecap="round" stroke-linejoin="round" d="
			M129.546,320.973c95.801,45.721,194.274,60.769,295.42,45.145c-29.191-11.677-55.178-26.807-77.957-45.391
			c-36.346-29.521-54.519-65.211-54.519-107.068c0-41.774,14.759-77.463,44.281-107.066c29.604-29.604,65.293-44.406,107.066-44.406
			c41.856,0,77.546,14.802,107.068,44.406c29.519,29.604,44.034,65.046,43.54,106.327c-0.655,41.363-10.402,70.472-29.232,87.33
			c-18.996,16.777-39.145,30.755-60.441,41.938c-21.379,11.102-47.982,19.08-79.807,23.93c17.516,7.071,47.365,13.405,89.552,18.996
			c42.103,5.592,127.748,0.453,256.935-15.418"/>
	</g>
</g>
</svg>
