<svg xmlns="http://www.w3.org/2000/svg" width="900" height="450" viewBox="0 0 900 450"><path fill="none" stroke="#3E58B5" stroke-width="12" stroke-linecap="round" stroke-linejoin="round" d="M129.546 320.973c95.801 45.721 194.274 60.769 295.42 45.145-29.191-11.677-55.178-26.807-77.957-45.391-36.346-29.521-54.519-65.211-54.519-107.068 0-41.774 14.759-77.463 44.281-107.066 29.604-29.604 65.293-44.406 107.066-44.406 41.856 0 77.546 14.802 107.068 44.406 29.519 29.604 44.034 65.046 43.54 106.327-.655 41.363-10.402 70.472-29.232 87.33-18.996 16.777-39.145 30.755-60.441 41.938-21.379 11.102-47.982 19.08-79.807 23.93 17.516 7.071 47.365 13.405 89.552 18.996 42.103 5.592 127.748.453 256.935-15.418"/></svg>