<?xml version="1.0" encoding="UTF-8" standalone="no"?>
<svg id="svg4457" xmlns:inkscape="http://www.inkscape.org/namespaces/inkscape" xmlns:rdf="http://www.w3.org/1999/02/22-rdf-syntax-ns#" xmlns="http://www.w3.org/2000/svg" sodipodi:docname="man.svg" viewBox="0 0 44.2 156.3" version="1.1" xmlns:cc="http://creativecommons.org/ns#" xmlns:dc="http://purl.org/dc/elements/1.1/" inkscape:version="0.48.2 r9819" xmlns:sodipodi="http://sodipodi.sourceforge.net/DTD/sodipodi-0.dtd">
 <metadata id="metadata4479">
  <rdf:RDF>
   <cc:Work rdf:about="">
    <dc:format>image/svg+xml</dc:format>
    <dc:type rdf:resource="http://purl.org/dc/dcmitype/StillImage"/>
    <dc:title/>
   </cc:Work>
  </rdf:RDF>
 </metadata>
 <sodipodi:namedview id="namedview4475" bordercolor="#666666" inkscape:pageshadow="2" guidetolerance="10" pagecolor="#ffffff" gridtolerance="10" inkscape:window-maximized="0" inkscape:zoom="1.5099168" objecttolerance="10" borderopacity="1" inkscape:current-layer="svg4457" inkscape:cx="22.1" inkscape:cy="78.150002" inkscape:window-y="0" inkscape:window-x="0" inkscape:window-width="640" showgrid="false" inkscape:pageopacity="0" inkscape:window-height="480"/>
 <g id="g4459" transform="matrix(1.0, 0.0, 0.0, 1.0, -37.55, 79.2)">
  <path id="path4461" stroke="none" fill-rule="evenodd" d="M67.65-71.45q-3.5,0.75-7.95-0.95t-5.3,2.95q-0.95,4.6-2.4,3.65-0.45-1.85-0.1-5.15,0.45-4.4,2.25-5.75,4.3-2.25,8.9-1.1,4.55,1.15,5.2,3.8,0.35,1.4,0.15,2.05-0.1,0.7-0.75,0.5" fill="#9a6243"/>
  <path id="path4463" stroke="none" fill-rule="evenodd" d="M60.35-56.35q-0.55-0.15-2.3-1.2l-2.6-1.9-0.65-0.6-0.45-0.65q-0.5-0.55-0.85-1.35l-1.05-2.65-0.45-1.1q1.45,0.95,2.4-3.65,0.85-4.65,5.3-2.95t7.95,0.95l0.1,0.35q0.75,2.2,0.25,5.45-0.55,3.3-1.65,5.35l-1.5,2.35-0.35,0.45-0.5,0.6q-0.5,0.5-1.1,0.55h-1.3-0.75-0.5,0.5,0.75,1.3q0.6-0.05,1.1-0.55l0.5-0.6,0.35,3.6q-0.85,1.2-1.85,1.6-1.45,0.6-3.3-0.3,1.85,0.9,3.3,0.3l-1.25,1-2.05-1.3-2.05-1.4-2.5-1.6-0.45-1.2v-3.15l0.6,0.6,2.55,1.85,2.25,1.15h0.25m-1.85-10.4q0,0.3,0.25,0.45,0.15,0.2,0.4,0.2l0.45-0.2,0.2-0.45-0.2-0.4-0.45-0.2-0.4,0.2-0.25,0.4m-1.45-1.1q1.1-0.65,2.1-0.55t1.35,0.55q-0.35-0.45-1.35-0.55t-2.1,0.55m0.6,13.85l-2.95-2.8,2.95,2.8m22,48.8l1.1,6.25-3.2,5.15-3.2-1.95,0.15-1.2q0.7-3.05,1-6.7l4.15-1.55m-34.6,12.95l-1.85-2.1-0.6-6.15v-0.25l7.5-2.05,2.1,5.85q0.35,3.9-2.1,6.4-4.3-0.9-5.05-1.7m20.7-74.55l-0.15-0.45-0.5-0.15-0.4,0.15-0.25,0.45q0,0.3,0.25,0.45l0.4,0.2,0.5-0.2,0.15-0.45m-2.75-1.05q1.05-0.65,2.1-0.55,1,0.1,1.3,0.55-0.3-0.45-1.3-0.55-1.05-0.1-2.1,0.55m-2.3,5.4q0.95,0.6,1.6,0.5,0.6-0.05,1.2-0.7l-0.8-3.55,0.8,3.55q-0.6,0.65-1.2,0.7-0.65,0.1-1.6-0.5m-0.65,2.35q1.6,0.35,3.55,0-1.95,0.35-3.55,0" fill="#ebc6af"/>
  <path id="path4465" stroke="none" fill-rule="evenodd" d="M58.5-66.75l0.25-0.4,0.4-0.2,0.45,0.2,0.2,0.4-0.2,0.45-0.45,0.2q-0.25,0-0.4-0.2-0.25-0.15-0.25-0.45m5.7,126.7q7.5,3.65,7.2,5.9-5.7,3.55-13.65-2.15l0.75-4.2q-0.05,2.2,5.7,0.45m-6.7,6.75q4.35,4.1,4.8,8.05-4.8,2.7-9.6,0-4.8-2.75-5.85-4.95l-0.2-5.55q0.4,5.1,10.85,2.45m8.25-133.5l-0.15,0.45-0.5,0.2-0.4-0.2q-0.25-0.15-0.25-0.45l0.25-0.45,0.4-0.15,0.5,0.15,0.15,0.45" fill="#000000"/>
  <path id="path4467" stroke="none" fill-rule="evenodd" d="M57.65-54l2.05,1.4,2.05,1.3,1.25-1q1-0.4,1.85-1.6,0.85,3.5,1.3,6.85,0.8,5.65,0.4,10.95l-0.05,0.5q-0.15,1.9-1.1,6.2l-1.15-2.55-1.85-4.5v-0.45l-0.2,0.05q-1.45-3.4-3.45-9l-3.6-9.75,2.5,1.6" fill="#ffffff"/>
  <path id="path4469" stroke="none" fill-rule="evenodd" d="M54.7-56.8l0.45,1.2,3.6,9.75q2,5.6,3.45,9l0.2-0.05v0.45l1.85,4.5,1.15,2.55q0.95-4.3,1.1-6.2l0.05-0.5q0.4-5.3-0.4-10.95-0.45-3.35-1.3-6.85l11.05,5.5,3.75,42.55v0.65l-4.15,1.55q-0.3,3.65-1,6.7h-0.15v1.2l-2.75,24.35-7.4,31.35q-5.75,1.75-5.7-0.45l-0.75,4.2-0.25,3q-10.45,2.65-10.85-2.45-0.35-18.8,1.4-34.8,0-6.05-0.7-11.15-0.7-4.45-2.3-10.55,0.75,0.8,5.05,1.7,2.45-2.5,2.1-6.4,7.35,1.3,14.65,0.9l7.5-0.9-7.5,0.9q-7.3,0.4-14.65-0.9l-2.1-5.85-7.5,2.05-1.65,0.4q-2.05-9.05-2.4-22.05l0.2-22q0.75-2.05,2.25-3.85l3.45-3.7,10.25-4.85m7.7,20.35l-0.2-0.4,0.2,0.4m-12.3-2.3q-1.45,19.5,0,35.95-1.45-16.45,0-35.95m23.05-2.45v19.85l2.35,17.7-2.35-17.7v-19.85m-10.85,52v22.75l-3.8,25.95,3.8-25.95v-22.75m4.55-6.85l-1.45-33.35,1.45,33.35" fill="#666666"/>
  <path id="path4471" stroke-linejoin="round" d="M52.45-64.7l-0.3-0.3-0.2-0.5,0.2,0.35v0.15m-0.15-0.8l0.45,1.1,1.05,2.65q0.35,0.8,0.85,1.35l0.45,0.65,0.65,0.6,2.6,1.9q1.75,1.05,2.3,1.2h0.5,0.75,1.3q0.6-0.05,1.1-0.55l0.5-0.6,0.35-0.45,1.5-2.35q1.1-2.05,1.65-5.35,0.5-3.25-0.25-5.45l-0.1-0.35q-3.5,0.75-7.95-0.95t-5.3,2.95q-0.95,4.6-2.4,3.65-0.45-1.85-0.1-5.15,0.45-4.4,2.25-5.75,4.3-2.25,8.9-1.1,4.55,1.15,5.2,3.8,0.35,1.4,0.15,2.05-0.1,0.7-0.75,0.5m-12.95,11.5v3.15l2.95,2.8,2.05,1.4q1.85,0.9,3.3,0.3,1-0.4,1.85-1.6l-0.35-3.6m-9.8,0.7l0.45,1.2,3.6,9.75q2,5.6,3.45,9l0.2,0.4,1.85,4.5,1.15,2.55q0.95-4.3,1.1-6.2l0.05-0.5q0.4-5.3-0.4-10.95-0.45-3.35-1.3-6.85l11.05,5.5,3.75,42.55m0,0.65l1.1,6.25-3.2,5.15-3.2-1.95-2.75,24.35-7.4,31.35q7.5,3.65,7.2,5.9-5.7,3.55-13.65-2.15l-0.25,3q4.35,4.1,4.8,8.05-4.8,2.7-9.6,0-4.8-2.75-5.85-4.95l-0.2-5.55q-0.35-18.8,1.4-34.8,0-6.05-0.7-11.15-0.7-4.45-2.3-10.55l-1.85-2.1-0.6-6.15v-0.25l-1.65,0.4q-2.05-9.05-2.4-22.05l0.2-22q0.75-2.05,2.25-3.85l3.45-3.7,10.25-4.85m-12.1,56.05l7.5-2.05q-1.45-16.45,0-35.95m29.55,33.55l-4.15,1.55q-0.3,3.65-1,6.7l-0.15,1.2m0-1.2l-7.5,0.9q-7.3,0.4-14.65-0.9,0.35,3.9-2.1,6.4-4.3-0.9-5.05-1.7m30.45-11.4l-2.35-17.7v-19.85m1.2,44.25h0.15m-16,56.45l3.8-25.95v-22.75m-15.65,53.45q0.4,5.1,10.85,2.45m0.25-3l0.75-4.2q-0.05,2.2,5.7,0.45m-12-56.9l-2.1-5.85m15.3-26.6l1.45,33.35" stroke="#000000" stroke-linecap="round" stroke-width="2.0" fill="none"/>
  <path id="path4473" stroke-linejoin="round" d="M60.5-67.85q-0.35-0.45-1.35-0.55t-2.1,0.55m5.65,1.65l0.8,3.55q-0.6,0.65-1.2,0.7-0.65,0.1-1.6-0.5m5.7-5.4q-0.3-0.45-1.3-0.55-1.05-0.1-2.1,0.55m0.6,7.75q-1.95,0.35-3.55,0" stroke="#000000" stroke-linecap="round" stroke-width="1.0" fill="none"/>
 </g>
</svg>
