<svg xmlns="http://www.w3.org/2000/svg" viewBox="0 0 44.2 156.3"><path fill-rule="evenodd" d="M30.1 7.75q-3.5.75-7.95-.95t-5.3 2.95q-.95 4.6-2.4 3.65-.45-1.85-.1-5.15.45-4.4 2.25-5.75 4.3-2.25 8.9-1.1 4.55 1.15 5.2 3.8.35 1.4.15 2.05-.1.7-.75.5" fill="#9a6243"/><path fill-rule="evenodd" d="M22.8 22.85q-.55-.15-2.3-1.2l-2.6-1.9-.65-.6-.45-.65q-.5-.55-.85-1.35L14.9 14.5l-.45-1.1q1.45.95 2.4-3.65.85-4.65 5.3-2.95t7.95.95l.1.35q.75 2.2.25 5.45-.55 3.3-1.65 5.35l-1.5 2.35-.35.45-.5.6q-.5.5-1.1.55H22.8h2.55q.6-.05 1.1-.55l.5-.6.35 3.6q-.85 1.2-1.85 1.6-1.45.6-3.3-.3 1.85.9 3.3.3l-1.25 1-2.05-1.3-2.05-1.4-2.5-1.6-.45-1.2v-3.15l.6.6 2.55 1.85 2.25 1.15h.25m-1.85-10.4q0 .3.25.45.15.2.4.2l.45-.2.2-.45-.2-.4-.45-.2-.4.2-.25.4m-1.45-1.1q1.1-.65 2.1-.55t1.35.55q-.35-.45-1.35-.55t-2.1.55m.6 13.85l-2.95-2.8 2.95 2.8m22 48.8l1.1 6.25L40 85.4l-3.2-1.95.15-1.2q.7-3.05 1-6.7L42.1 74M7.5 86.95l-1.85-2.1-.6-6.15v-.25l7.5-2.05 2.1 5.85q.35 3.9-2.1 6.4-4.3-.9-5.05-1.7M28.2 12.4l-.15-.45-.5-.15-.4.15-.25.45q0 .3.25.45l.4.2.5-.2.15-.45m-2.75-1.05q1.05-.65 2.1-.55 1 .1 1.3.55-.3-.45-1.3-.55-1.05-.1-2.1.55m-2.3 5.4q.95.6 1.6.5.6-.05 1.2-.7l-.8-3.55.8 3.55q-.6.65-1.2.7-.65.1-1.6-.5m-.65 2.35q1.6.35 3.55 0-1.95.35-3.55 0" fill="#ebc6af"/><path fill-rule="evenodd" d="M20.95 12.45l.25-.4.4-.2.45.2.2.4-.2.45-.45.2q-.25 0-.4-.2-.25-.15-.25-.45m5.7 126.7q7.5 3.65 7.2 5.9-5.7 3.55-13.65-2.15l.75-4.2q-.05 2.2 5.7.45m-6.7 6.75q4.35 4.1 4.8 8.05-4.8 2.7-9.6 0-4.8-2.75-5.85-4.95l-.2-5.55q.4 5.1 10.85 2.45M28.2 12.4l-.15.45-.5.2-.4-.2q-.25-.15-.25-.45l.25-.45.4-.15.5.15.15.45"/><path fill-rule="evenodd" d="M20.1 25.2l2.05 1.4 2.05 1.3 1.25-1q1-.4 1.85-1.6.85 3.5 1.3 6.85.8 5.65.4 10.95l-.05.5q-.15 1.9-1.1 6.2l-1.15-2.55-1.85-4.5v-.45l-.2.05q-1.45-3.4-3.45-9l-3.6-9.75 2.5 1.6" fill="#fff"/><path fill-rule="evenodd" d="M17.15 22.4l.45 1.2 3.6 9.75q2 5.6 3.45 9l.2-.05v.45l1.85 4.5 1.15 2.55q.95-4.3 1.1-6.2l.05-.5q.4-5.3-.4-10.95-.45-3.35-1.3-6.85l11.05 5.5 3.75 42.55V74l-4.15 1.55q-.3 3.65-1 6.7h-.15v1.2l-2.75 24.35-7.4 31.35q-5.75 1.75-5.7-.45l-.75 4.2-.25 3Q9.5 148.55 9.1 143.45q-.35-18.8 1.4-34.8 0-6.05-.7-11.15-.7-4.45-2.3-10.55.75.8 5.05 1.7 2.45-2.5 2.1-6.4 7.35 1.3 14.65.9l7.5-.9-7.5.9q-7.3.4-14.65-.9l-2.1-5.85-7.5 2.05-1.65.4Q1.35 69.8 1 56.8l.2-22q.75-2.05 2.25-3.85l3.45-3.7 10.25-4.85m7.7 20.35l-.2-.4.2.4m-12.3-2.3q-1.45 19.5 0 35.95-1.45-16.45 0-35.95M35.6 38v19.85l2.35 17.7-2.35-17.7V38M24.75 90v22.75l-3.8 25.95 3.8-25.95V90m4.55-6.85L27.85 49.8l1.45 33.35" fill="#666"/><path stroke-linejoin="round" d="M14.9 14.5l-.3-.3-.2-.5.2.35v.15m-.15-.8l.45 1.1 1.05 2.65q.35.8.85 1.35l.45.65.65.6 2.6 1.9q1.75 1.05 2.3 1.2h2.55q.6-.05 1.1-.55l.5-.6.35-.45 1.5-2.35q1.1-2.05 1.65-5.35.5-3.25-.25-5.45l-.1-.35q-3.5.75-7.95-.95t-5.3 2.95q-.95 4.6-2.4 3.65-.45-1.85-.1-5.15.45-4.4 2.25-5.75 4.3-2.25 8.9-1.1 4.55 1.15 5.2 3.8.35 1.4.15 2.05-.1.7-.75.5m-12.95 11.5v3.15l2.95 2.8 2.05 1.4q1.85.9 3.3.3 1-.4 1.85-1.6l-.35-3.6m-9.8.7l.45 1.2 3.6 9.75q2 5.6 3.45 9l.2.4 1.85 4.5 1.15 2.55q.95-4.3 1.1-6.2l.05-.5q.4-5.3-.4-10.95-.45-3.35-1.3-6.85l11.05 5.5 3.75 42.55m0 .65l1.1 6.25L40 85.4l-3.2-1.95-2.75 24.35-7.4 31.35q7.5 3.65 7.2 5.9-5.7 3.55-13.65-2.15l-.25 3q4.35 4.1 4.8 8.05-4.8 2.7-9.6 0-4.8-2.75-5.85-4.95l-.2-5.55q-.35-18.8 1.4-34.8 0-6.05-.7-11.15-.7-4.45-2.3-10.55l-1.85-2.1-.6-6.15v-.25l-1.65.4Q1.35 69.8 1 56.8l.2-22q.75-2.05 2.25-3.85l3.45-3.7 10.25-4.85M5.05 78.45l7.5-2.05q-1.45-16.45 0-35.95M42.1 74l-4.15 1.55q-.3 3.65-1 6.7l-.15 1.2m0-1.2l-7.5.9q-7.3.4-14.65-.9.35 3.9-2.1 6.4-4.3-.9-5.05-1.7m30.45-11.4l-2.35-17.7V38m1.2 44.25h.15m-16 56.45l3.8-25.95V90M9.1 143.45q.4 5.1 10.85 2.45m.25-3l.75-4.2q-.05 2.2 5.7.45m-12-56.9l-2.1-5.85m15.3-26.6l1.45 33.35" stroke="#000" stroke-linecap="round" stroke-width="2" fill="none"/><path stroke-linejoin="round" d="M22.95 11.35q-.35-.45-1.35-.55t-2.1.55M25.15 13l.8 3.55q-.6.65-1.2.7-.65.1-1.6-.5m5.7-5.4q-.3-.45-1.3-.55-1.05-.1-2.1.55m.6 7.75q-1.95.35-3.55 0" stroke="#000" stroke-linecap="round" fill="none"/></svg>