<svg xmlns="http://www.w3.org/2000/svg" width="900" height="450" viewBox="0 0 900 450"><path fill="#57A95C" d="M277.749 130.608h-.228c-11.277.153-21.03.42-29.259.8l-10.515.914h-.571l-9.715 1.143 1.372 2.857-1.028 9.715c-.077.762-.077 1.791 0 3.086l4 8.914 1.942 8.8.571 1.486 9.487 8.8c1.219 1.22 2.438 2.743 3.656 4.572l5.714 11.771c.611.609 2.058 1.638 4.344 3.086l8.228 4.914 6.515 5.372h.115l1.714 1.714 5.028 2.628 9.486 3.086c.741.539 1.808 1.796 3.201 3.771l6.743.229-.457-9.715-.916-1.714-4.571-2.17-2.514-4.687h-1.143l-.344.342-3.656 4.229-9.258-.8c3.124-6.628 11.811-12.457 26.058-17.486l1.943 1.485h.115c.228-.456.571-2.286 1.028-5.485v-4l-2.857-5.943.115-1.714 9.942-5.143c.305-.076.381-1.028.229-2.857l-.229-8.228 4.915-.915 1.942-.572 1.143-.914.915-1.714 1.371-5.943.344-.914 2.514-.229 1.143-.571-2.286-4.915-22.857 9.715v-7.429l-5.371-3.658a19.048 19.048 0 0 0-1.83-.799 20.527 20.527 0 0 0-1.372-.344h-5.371c-1.143-.228-2.286-.799-3.429-1.714l-2.629-2.514-3.427-.342m35.202 197.949V340.671l-1.487 12.571v1.828l1.714 6.63 6.515 8.114h.115l1.143 1.601 1.714 1.599 6.286 4.115 1.371-2.172-8.915-7.886-.457-.228-4-6.63v-.113l-.915-1.828c-.99-1.83-1.562-3.087-1.714-3.772l1.143-4 .229-.344 2.628-8.228-1.942-9.257v-.114l-.572-2.743-.115-.114-2.515-4-.228-.115v2.972M167.233 67.178l-8.344 5.715-2.514 4 6.514 5.372.571.343c-.076.229-2.438.915-7.085 2.058l-.915 2.513v1.943l1.143.115h7.658v.228l-5.372 4.571-.799.8.799 2.286.344.572c.838 2.514 1.41 3.886 1.714 4.115l4.228 2.742 4.344 4.915 1.028 2.629 9.829-11.201 19.657-.572v-26.63l-2.628-2.17c-1.599-.382-3.58-.687-5.943-.916-3.961 0-7.2-.189-9.714-.571l-10.857-3.429c-1.144-.227-2.363-.038-3.658.572m67.658-10.286l-1.942.8-2.058 1.258-5.714 4.799 1.143 1.714c1.829 1.143 3.162 1.601 4 1.372l5.487-3.314.457-.115.686 1.258 2.857 7.313v2.972l-1.714-2.058-4.115-2.057h-2.171a10.426 10.426 0 0 1-4.344 0h-1.143l-2.857-.572-3.656-1.372c-.838 0-1.792.382-2.857 1.143l-4 3.429-2.058.229h-10.857v26.629l4.344 3.086 1.714.342h4l2.857 2.286.228.229 3.429 5.258.572 2.743 1.143 1.829 6.058 5.028v5.715l3.085 6.628 9.715-1.143h.571l10.515-.914c8.229-.38 17.981-.647 29.259-.8h.228l3.429.344 2.629 2.514c1.143.915 2.286 1.486 3.429 1.714h5.371c.46.099.917.213 1.372.344.612.229 1.222.495 1.83.799l5.371 3.658v7.429l22.857-9.715 2.286 4.915.572 1.372 2.857.687c2.21.305 4.687 0 7.429-.916l2.63-.799c1.371-.153 4.114-1.029 8.228-2.63.991-.914 1.867-2.324 2.63-4.228l.571-2.401-4.572-11.086h-.115l-1.6-2.857-4.915-6.628-.228-.229-4.916-7.2c-.99-1.066-2.324-1.714-4-1.943l-3.085.572-.571.229-1.714 1.486h-2.63v-5.486l-1.714-1.372a25.176 25.176 0 0 0-2.514-1.714v-.114a16.248 16.248 0 0 1-.915-.458l-3.656-1.371h-5.143v.228l-1.714 7.429h-.115l2.972 4.344.457 2.514-.457.344-2.857 3.885-4 3.2-2.63-.343-2.513-2.171-1.487-.115c-1.828 0-3.085-.191-3.771-.571l-5.372-5.943-2.857-2.514-4.228-2.4v-7.087l1.028-1.485 2.628-1.372.572-.228 3.429-1.714 2.514-2.058.914-1.143 1.487-3.085 1.942 7.885 3.772 3.2c1.828.609 3.695.991 5.6 1.143l2.401-4-2.401-4-5.028-4.343V83.18h5.942v-3.43l-5.942-5.485 6.857-2.857c.914.229 1.942.725 3.085 1.486l7.086 6.286c.382.838.191 2.058-.571 3.657l-.8 2.286h-7.2l-.229 2.857h8.229l4.914 6.857c1.372.838 4.153 1.258 8.344 1.258h3.085l.344-1.258v-4c-.229-.534-.838-1.295-1.83-2.286l-4.571-3.428v-1.028l1.829-.686 5.028 3.2h.343l2.63-4.914-9.487-7.086v-1.714c0-1.219-.189-2.171-.571-2.857l-15.2-9.486-12.572-.571-1.028-1.143-.344-.229-.914-.914H294.1l-5.487 2.972-.343 1.143v4l.343.228 6.629 7.086v1.714l-1.143.687c-.611.38-1.41.457-2.401.228-1.219-.152-2.171-.457-2.857-.914-1.372-.457-3.162-2.057-5.372-4.8l-3.085-3.656-4.916 5.714-3.656 7.656-10.857-2.857H247.12v-2.057h14.857l7.771-3.429v-.229l-2.857-.915c-1.143-.456-2.667-2.323-4.572-5.599l-2.513-4.916-4.687 1.714-3.429.8c-2.895-1.066-4.496-1.637-4.8-1.714-4.113-1.601-8.113-2.821-11.999-3.659m79.203 162.861l-4 2.286-2.286.229-2.058-.457-6.514-3.543h-.686l-6.743-.229c.187.251.376.518.572.8l2.857 3.429 5.714 4a14.98 14.98 0 0 1 2.742 2.171c.838.764 1.334 1.373 1.486 1.83l2.857 6.17 7.658-13.257 11.429-4.914h-8.8l-4.228 1.485m28.572 91.889v.344l1.143 12 .457-.344 5.143-5.942v-8.915l-6.743 2.857m20.228-67.659l-6.286-4.571-.571-.571-2.057-1.601-2.171.113-6.286.915-2.857-.115-7.429-1.485-4.687 5.829-6.857 4-1.372 5.486-6.628 9.828 7.544 7.199 5.714-3.198 6.286 8.913 1.371 1.259 8.8 5.143-2.742 3.085v.344l-5.829 6.741-.229.116h.229l4.914-1.486 7.086 13.486.572 2.399V317.699l2.628-3.545 2.286-2.169.571-.458 2.857-3.658 2.286-11.313 10.857-4.571.571-.688 2.857-4.342c.915-1.143 1.372-2.895 1.372-5.257v-4.457c.153-2.364.382-4.078.687-5.144l.228-.229 4.915-6.857 1.6-4.228v-.114l.343-1.257-3.2-5.029-6.171-6.285a12.189 12.189 0 0 0-2.857-.802l-5.714-1.37-1.487-.8-1.144-1.143m-41.943 77.6v-1.37l-1.143-14.514-2.857 9.715-.115.571-3.885 9.599.228.115 2.515 4 .115.114.572 2.743v.114l1.942 9.257 2.628-20.344m6.857-27.884l-6.515-2.857.114 2.971c0 2.668-.152 5.065-.457 7.199l-.571 2.285-.571 2.402 1.143 14.514v1.37l-2.629 20.345-2.628 8.228-.229.344-1.143 4c.153.686.724 1.942 1.714 3.772l.915 1.828v.114l4 6.63.457.228 8.915 7.886c.838-1.297.838-2.971 0-5.028l-5.942-11.086 1.143-1.486 4.457-4.799.343-1.144-2.514-6.743v-.802l2.286-1.598.457-.458c.762-.609 1.372-1.408 1.83-2.399v-5.486l3.885-1.942a11.531 11.531 0 0 0 2.972-2.172l.572-1.029.456-.228 2.401-2.973v-.229l1.143-1.37-1.143-12v-.344l6.743-2.857v-2.972l-.572-2.399-7.086-13.486-4.914 1.486h-.229l-.571.686-.799-.458-7.433 2.057m-6.857-11.201h-2.857l3.085 4.457.115 3.887 6.515 2.857 7.429-2.059-7.429-5.828-.115-.229-4.801-3.085h-1.942m35.086-43.657l.571.571-3.085-6.974-6.972-2.857-2.515-1.484-4.914-4.687-.8-.456-.799-.916-.344-.228-10.057-3.543-11.429 4.914-7.658 13.257-1.485 2.974c-1.143 3.047-2.057 6.476-2.742 10.286v10.285l3.656-12 7.658-4 .571-.116 8-8.342 6.857 6.972 4.687-5.829 4.572-3.658v-7.313 7.313l-4.572 3.658 7.429 1.485 2.857.115 6.286-.915 2.171-.113 2.057 1.601m-19.43 37.143l-1.371-1.259-6.286-8.913-5.714 3.198-2.058 12.688-.228.8h1.942l4.801 3.085.115.229 7.429 5.828 1.371-.228.229-.116 5.829-6.741v-.344l2.742-3.085-8.801-5.142m-12.914-40.459l-8 8.342 6.401 8.116h.228l1.372-5.486 6.857-4-6.858-6.972m-8 8.342l-.571.116-7.658 4-3.656 12 8.799 14.742.344.344 5.143 7.429h2.857l.228-.8 2.058-12.688-7.544-7.199 6.628-9.828h-.228l-6.4-8.116M293.521 44.892v.229l.572 1.485v4l.571 1.487 7.429 3.885 10.857-11.086 2.286-5.485c2.514-1.448 4.419-2.4 5.714-2.857l4.228-1.372 4.915 5.143c-3.962.153-7.962 1.295-12 3.429l-1.143 1.143 6.743 5.487 8.115.799c2.971.458 5.143.953 6.514 1.486l5.714 3.314 4 12.343 6.857 4.229-3.085 7.2-.115.344c-.152.305-.229.952-.229 1.942 0 1.296.077 2.058.229 2.286l.342.8 5.487 10.628 9.371 7.429 8-16.915 8-4.571.344-.457 22.857-11.544-2.629-4.229 1.143-1.714.229-.571 4-5.942 1.258-13.715h-1.486l-2.286-.687 1.143-2.17.571-.344 4.572-3.429.229-.343 4.914-5.143-.799-.8-26.059-6.513-6.857.228c-1.981 0-3.238-.076-3.771-.228h-14.742l-33.715 6.857c-.564-.518-1.06-.975-1.486-1.372a9.42 9.42 0 0 0-.228-.229c-.847-.716-1.418-1.174-1.714-1.372l-1.714-1.143-18.058-1.372-19.657 4.229-12.572 5.486v.229l2.742 2.628.343.229.915 1.143 13.141 5.486m367.208 175.89l-.341-3.086-1.715-7.086-8.114-6.857-2.401 11.429c0 .534.611 1.41 1.83 2.63l.571.457a60.028 60.028 0 0 1 2.4 2.172c.136.197.25.35.341.457a13.942 13.942 0 0 1 .915 1.143l7.086 10.516.229-.688v-4.342l-.801-6.745m0 0l.344-.229v-.114l-.344-1.258-.341-1.486.341 3.087m-189.603-45.601l-9.83-5.143-4.571-3.2 3.428 10.629 1.26 15.086 8.113 1.485 14.4 7.201 2.743-6.401.342-1.714-.913-16.229-1.715-4.914-10.285 4.115c-.535.227-1.526-.077-2.972-.915m25.715 1.371l-.344-.229-12.114-4.343 1.715 4.914.913 16.229-.342 1.714-2.743 6.401-.686 14.742 1.143 8.915-1.143.8 6.857 7.313 1.143-.228.342 1.143 23.773 2.514 7.771-7.313.229-.571-3.772-6.859-3.313-2.514-.915-.343-3.657-2.742-1.601 9.6h-8l-2.857-12.229 10.514-7.085-.912-5.486-5.831-10.286-.341-1.485.113-6.629-.344-.458-5.143-5.028-.455-.457m41.716-120.574l-.458.342-3.658 3.772v7.085l.915.8 1.601.687 9.601 1.028 1.143.343-7.201-6.857 10.63-8 10.286-4.799-18.857 1.371-.571.344-1.029 1.143v.228l-2.402 2.513m91.885 5.829c-1.522.457-3.161.457-4.913 0l-9.601-4.344-3.542-2.286c-.762-.305-1.869-.572-3.315-.799l-13.828 3.085-9.715 4.229-8.571 6.286c-.533.229-1.677.229-3.429 0l-6.857-1.028-10.857 5.028-1.373.343-6.741-2.286-1.143-.343-2.743 3.771-.686.8-1.486 1.143-8.686 2.628-7.543.8h-.458l-5.372.343c-.272.124-.576.277-.913.458l-1.828 1.485-10.744 13.486 6.744 8.572-2.286.229h-.458l-8.457 1.485-7.201 3.086 3.087 7.544c.382.837 1.37 2.057 2.971 3.656l7.085 6.286c1.219.762 2.438 1.714 3.659 2.857l6.857 4 2.856 2.286v6.857l8.001-2.057h.113l6.743-1.943 2.744 12.344 10.741-10.972-10.741 10.972v.228l-5.26 12 1.373 1.943 3.315-1.372h.113l5.029-2.057c2.589.534 5.026 1.676 7.313 3.429l1.831 1.714 2.399.571 4-.8h.341l2.402-.343-4 3.2h-.116l-8 6.286 5.373 5.714-6.857 9.715 6.857-2.857 4.341 4 11.545-10.857c1.522-.837 2.514-1.333 2.972-1.485h12l9.484 7.544.571.799 2.402 5.372 3.313 6.057 7.658 8.229c.838 1.067 1.561 2.515 2.173 4.343l1.026 1.143 7.201 3.086c2.134.458 3.962.571 5.486.343l2.741-.572 1.259-.799-.457-.687-.802-2.286v-.229l-2.741-7.429 2.286-.914.455-.457 21.374-10.629 2.743-2.857c.991-.914 1.408-2.248 1.257-4l-1.144-7.429-1.028-.914-.229-.457-1.486-1.487.344-.914 1.143-8.229v-.343l-1.143-3.657-.344-.571-1.143-4.228 2.743-1.486c1.448-.534 2.743-.799 3.886-.799l6.514 2.171 1.029-.457 15.429-13.143 1.715-2.972c.609 0 1.219-1.219 1.828-3.658l3.201-5.371v-.115l-1.259.342-4.001.572-2.856-.343-9.485-2.515-7.429-8.799-3.429-.687h-4l-1.257 6.973-3.314 12.228c-.457.915-1.029 1.6-1.714 2.058l-5.829 3.885c-1.981 1.448-3.544 2.21-4.688 2.286l-14.857 1.486c-4.723-.837-8.913-2.362-12.571-4.572-3.353-2.438-5.333-3.771-5.942-4l-8.114-7.771-8 4-9.257-2.742-.116 14.171-8.342-1.6-6.399-2.286-.458-.115-9.714-3.658 9.714 3.658.458.115 6.399 2.286 8.342 1.6.116-14.171 9.257 2.742 8-4 14.744-2.515c1.522-.228 2.552-.494 3.085-.799l7.314-3.201.686-.571 5.486 2.515c2.59 1.22 4.266 1.829 5.027 1.829l10.286-.115c1.143-.457 2.285-.609 3.429-.457l6.973-2.286 1.257-6.973h4l3.429.687 7.429 8.799 9.485 2.515 2.856.343 4.001-.572 1.259-.342h.113l1.144-.229v-11.2l-1.601-1.143-4.916-2.857 5.373-6.515c.609 0 1.105-.189 1.484-.571.382-.381.571-.876.571-1.486l3.201-3.657 20.345-1.714 13.143-5.143c3.047-.609 5.219-.609 6.514 0l4.571 2.857 1.144.915 1.941-.687.23-.229 6.056-2.857h.23l5.484-2.857 1.372-1.486c-.229-1.676-.685-3.009-1.372-4l-.342-.229.913-.343 5.944-3.314 2.743-.115 8.228 2.057 2.63-3.771-6.63-2.515-.113-.228c-5.409-2.744-10.364-5.449-14.857-8.115-7.163 1.448-13.487 2.057-18.972 1.83l-1.259-.344h-.913l-3.315-.343-6.513 1.485-.458-1.143c-1.524-3.047-3.239-4.381-5.143-4l-1.257.229c-1.831.38-3.849.229-6.059-.457l-13.828-4.115-7.087 3.771-7.086 1.372-3.656-2.171c-1.981.228-3.658-.153-5.029-1.143l-2.856-.572h-.458l-2.514-.344c-2.438-.228-4.571-.799-6.401-1.714l-7.199-4c-2.363-1.143-4.114-1.714-5.257-1.714l-2.401.344-9.712 3.433M468.383 79.75h-.113l-7.43 11.429-4.915.915-4 4 .228 5.486-.113-.115 2.629 4.572 1.715.229 5.484-2.857h.116l1.828 4.343 4 3.772 1.714-2.629v-.228l2.857-5.258.686-2.286c0-1.676.151-3.962.457-6.857l1.257-1.372 8.458-8.914 1.029-1.372-.116-1.486c-.228-1.676-.531-2.78-.913-3.313l-5.715-2.629 5.029-6.057-12.457 8.115-1.715 2.512m29.715-9.942l-1.601-.687h-13.942l-5.029 6.057 5.715 2.629c.382.534.686 1.637.913 3.313l.116 1.486-1.029 1.372-8.458 8.914.228.229 8.23 6.972v.457l1.257 5.486 1.029 2.857v.572l-.571 2.286-1.144 3.086 3.199 8.687v.457l-3.656 11.2-.571 1.143-3.772 4-.342.229-2.286 2.401 5.601 5.942 1.257-1.714-1.257 1.714h.114l1.143 1.372-1.143-1.372h-.23l-.228.229-2.285 2.857 3.886 6.057h8-8l-3.886-6.057-.344-.571h-9.485l-5.373-3.658-.341-.342-2.399-1.6c-1.525-.458-2.516-.686-2.974-.686l-7.199.342-.343.572-.343.344-5.372 6.513-3.657 8.344-.344.228.458 2.857 3.543-.572 11.087 1.714.456 1.372 4.571 3.2 9.83 5.143c1.446.838 2.438 1.143 2.972.915l10.285-4.115 12.114 4.343.344.229.456.458 6.058-6.401-.799-5.143c-.458-1.828-1.144-3.085-2.059-3.771l-8-3.658 8 3.658c.915.686 1.601 1.943 2.059 3.771l.799 5.143-6.058 6.401 5.143 5.028.344.458 7.314 10.058c1.065 2.743 1.98 4.762 2.744 6.057l2.399 5.487.114.457 3.656 7.771.688 1.143 5.143-1.37 16.114-6.857 2.857-6.286.113-.344 3.887-8.571-12.114-6.514-1.83-1.487-3.656-5.485-.344-1.143-2.857-4.229-4.229-4.343-.685-1.943 4.342-5.371.116-.115 1.026-1.372 4.229 3.201 1.484.799 5.26-12v-.228l-2.744-12.344-6.743 1.943h-.113l-8.001 2.057v-6.857l-2.856-2.286-6.857-4c-1.222-1.143-2.44-2.095-3.659-2.857l-7.085-6.286c-1.601-1.6-2.589-2.819-2.971-3.656l-3.087-7.544 7.201-3.086 8.457-1.485h.458l2.286-.229-6.744-8.572 10.744-13.486-16.345-9.943c0-.534-.228-.837-.685-.915-.609-.308-1.181-.459-1.714-.459m1.142 202.975l-4 4.344 11.771 5.371.571.344 5.26-5.715-.802-9.83-7.542.115-5.258 5.371m33.716-55.316l-13.373 4.229 3.772 6.859-.229.571-7.771 7.313 3.2 7.545 4.686-6.743 9.715-19.774m-62.174-99.431h-10.63l-.341.229-6.4 5.258v1.143h1.599-3.771c-1.676.228-3.201.952-4.571 2.171l-1.486 1.714-10.629 3.2.914 1.943 4.344 4.915 1.714 1.372c1.524 1.523 2.362 2.666 2.514 3.429v1.143l-10.857-.457-3.2.457h-.229l-4.228.343 2.17 4v3.086l-1.028 4.115.228 1.028 4.229 4.115.572.228h9.485l.344-.228 3.657-8.344 5.372-6.513.343-.344.343-.572-2.058.229 2.058-.229 7.199-.342c.458 0 1.448.229 2.974.686l2.399 1.6.341.342 5.373 3.658h9.485l.344.571 2.285-2.857.228-.229h.116l-5.601-5.942 2.286-2.401.342-.229 3.772-4 .571-1.143 3.656-11.2v-.457l-3.199-8.687-7.314-.8-4.114 2.629-1.601 1.37m-41.601 48.23l-2.857 2.972 1.372 8.799 1.486 9.143 7.201 3.086c1.6.914 2.934 1.867 4 2.857l6.857 6.857 1.942.571h.229l2.4-.571 1.601-1.028 5.942-4.915.571-.343 1.487-1.143-1.26-15.086-3.428-10.629-.456-1.372-11.087-1.714-3.543.572-12.457 1.944m80.917 41.83l-.344-1.714-10.514 7.085 2.857 12.229h8l1.601-9.6v-.115l-1.486-7.657-.114-.228m-85.26-27.544l-7.885 6.628-2.629 16.916.229 1.371.343.571 1.372 2.286c.991.609 2.134.877 3.429.8l5.258-.572 8.228-.571-1.485-16.801 1.485 16.801-8.228.571v.572l.228.342 1.143 6.857 5.372-.228c2.514 0 4.342-.229 5.485-.687l.229-.229 7.2-4 .572-.571 3.086-7.429.343-.343.8-2.286h-.229l-1.942-.571-6.857-6.857c-1.067-.99-2.401-1.943-4-2.857l-7.201-3.086-1.486-9.143-2.742 2.286-.118.23m20.344 30.058l-.572.571-7.2 4-.229.229c-1.143.458-2.971.687-5.485.687l-5.372.228-12.228-1.371.228.228 1.714 2.286v.229l.915.914 5.371 7.086 6.857 6.171c.915.611 2.058.611 3.429 0l2.629-1.257 4.571-2.056 4.228-4.802.229-.343 7.199-8.571-6.284-4.229m25.6 13.943l-5.257-8.229-14.059-1.485-7.199 8.571-.229.343-4.228 4.802-4.571 2.056.571 1.257 1.371-.455 14.286 1.37 1.601 1.714 6.857 10.63.228.114.802-6.399v-.116l.342-1.371v-.113l.116-1.257 1.143-2.286.455-.571 9.144-8.458-1.373-.117m-9.486 12.801l-.342 1.371v.116l-.802 6.399 1.26 4.458h.113l1.257 4.571.344.571 6.399-7.887 1.257-1.714-1.143-8.114-.686-1.714-5.944-2.286-.455.571-1.143 2.286-.116 1.257v.115m21.945-11.658h-.113l-10.974-1.028-9.144 8.458 5.944 2.286.686 1.714 1.143 8.114-1.257 1.714 12.114 6.628 2.743 17.83 4-.915h.114l5.371-1.37v-1.486 1.486c.839 0 1.714.379 2.629 1.143l.458.114 2.285 2.399 5.258-5.371v-1.143 1.143l7.542-.115-.686-7.885v-.344l-6.856 2.743v3.199-3.199h-10.63v4.458-4.458l.116-1.028 2.513-12.8v-.116l-4.915-13.942-1.143-.799-.342-.116-19.429 2.516 19.429-2.516-6.856-7.314m75.772-34.515l.688.344 4.572 4.457h.113l5.144 4.915 2.627 11.429.116 1.143 2.741 5.715v.229l2.63 6.286 2.743-3.429v-.229l1.257-1.714v-12.343l8-5.714 6.743-7.658v-.343l1.601-1.714-2.402-5.372-.571-.799-9.484-7.544h-12c-.458.153-1.449.648-2.972 1.485l-11.546 10.856m-32.455-31.772l-.116.115-4.342 5.371.685 1.943 4.229 4.343 2.857 4.229.344 1.143 3.656 5.485 1.83 1.487 12.114 6.514 6.857-9.715-5.373-5.714 8-6.286h.116l4-3.2-2.402.343h-.341l-4 .8-2.399-.571-1.831-1.714c-2.286-1.752-4.724-2.895-7.313-3.429l-5.029 2.057h-.113l-3.315 1.372-1.373-1.943-1.484-.799-4.229-3.201-1.028 1.37m117.029-30.743c-1.144-.153-2.286 0-3.429.457l-10.286.115c-.762 0-2.438-.609-5.027-1.829l-5.486-2.515-.686.571-7.314 3.201c-.533.305-1.563.571-3.085.799l-14.744 2.515 8.114 7.771c.609.229 2.59 1.563 5.942 4 3.658 2.21 7.849 3.734 12.571 4.572l14.857-1.486c1.144-.076 2.706-.838 4.688-2.286l5.829-3.885c.685-.458 1.257-1.143 1.714-2.058l3.314-12.228-6.972 2.286M502.783 242.954l1.715 1.029h.457l10.286 5.828v-.457c1.448-2.666 2.552-4.458 3.314-5.371l-3.2-7.545-23.773-2.514 4.915 13.942v.116l2.743-2.172.342-.114 3.201-2.742m-23.772 57.603l-4.8 5.37.571 6.059 1.144 1.37 9.143 5.601 2.63-.229 9.828-9.599c1.064-.915 1.636-1.679 1.714-2.286l.458-1.714-8.116-6.974-.342-.455-.801.455-11.429 3.545v-1.143m13.373-18.859l-1.029 1.027-1.486 2.516 6.629 6.971-5.257 5.487.342.455 8.116 6.974v-.458l2.857-15.887 5.026-5.941-.571-.344-11.771-5.371-2.856 4.571m1.6-20.915l-.116 1.028h10.63l6.856-2.743 3.887-9.257-10.286-5.828h-.457l-1.715-1.029-3.201 2.743-.342.114-2.743 2.172-2.513 12.8m-16.459 21.715l-.113-.114-13.26-5.257 2.402 12.572 6.971 12.228.458 1.486.228 2.514 4.8-5.37v-5.26 6.403l11.429-3.545.801-.455 5.257-5.487-6.629-6.971h-.342l-10.516 1.257v7.315-5.714l-1.486-5.602m-61.258-74.174l-1.372-2.286-.799 8.916 12.228 1.371-1.143-6.857-.228-.342v-.572l-5.258.572c-1.295.075-2.437-.192-3.428-.802m67.886 70.518l-.342-.344-6.286 4 1.485 5.601v-1.601l10.516-1.257h.342l1.486-2.516-7.201-3.883m.23-7.43v.456l-1.143 5.373v.341l.571.916.342.344 7.201 3.884 1.029-1.027 2.856-4.571 4-4.344-2.285-2.399-.458-.114c-.915-.764-1.79-1.143-2.629-1.143l-5.371 1.37h-.114l-3.999.914m-2.743-17.83l-12.114-6.628-6.399 7.887.114 1.026 2.285 7.429-1.373 12.688v1.143l13.26 5.257.113.114 6.286-4-.571-.916v-.341l1.143-5.373v-.456l-2.744-17.83-15.543 6.516 15.543-6.516m1.6-37.601l.686-14.742-14.4-7.201v11.086l-1.143 3.2-.113.229-2.744 7.771 5.257 8.229 1.371.115 10.974 1.028h.113l1.143-.8-1.144-8.915m-13.715-21.943l-8.113-1.485-1.487 1.143-.571.343-5.942 4.915-1.601 1.028-2.4.571-.8 2.286-.343.343-3.086 7.429 6.285 4.229 14.059 1.485 2.744-7.771.113-.229 1.143-3.2v-11.087M488.27 42.035l1.37-.343-.915-4.8-9.484-1.371h-.229c-1.98 0-3.809.152-5.485.457-2.439 1.143-4.685 1.829-6.743 2.057h-5.37l.455 4.572.915 1.143.458.229c1.37 1.296 3.047 2.553 5.029 3.771l.685.229.571.343 10.744 2.058h3.429l1.026-1.143.344-1.258c0-1.447.344-2.857 1.029-4.229.608-1.067 1.331-1.639 2.171-1.715m49.829-4.572h.114l9.601-.914 12-6.171v-.571l-9.143 1.371c-.23.229-1.182.305-2.857.229l-7.087 1.143h-22.515l.344 1.258 1.828 1.714 3.315.571 1.37.799a4.808 4.808 0 0 0 1.487 0l6.971 1.143 4.572-.572m75.43 4.344l4.571-2.4 1.257-5.715-18.857 2.857.915 1.714 1.143 1.143 2.286.571c2.594.729 4.649 1.223 6.17 1.485 1.093.23 1.932.345 2.515.345m-186.862 79.315c.152 1.296.495 2.095 1.028 2.401l.572.457c1.6.229 3.239.343 4.914.343l-1.714-7.771c-1.904-.076-3.352.609-4.343 2.057l-.457 2.513m5.371-11.086c.153 1.372.42 2.324.8 2.857l2.628 2.63.571 2.17c.611 1.981.725 3.124.344 3.429l-1.829 1.714-.457.914v4.229l.114-.114 8.458-1.829c.305 0 .571-.305.799-.914.293-.41.445-.829.458-1.257a.574.574 0 0 0 .114-.343v-2.286c0-.458-.571-1.83-1.714-4.115l-5.371-5.143 2.857-3.313v-.115l-2.857-3.086-2.629 1.487c-1.219 1.219-1.981 2.248-2.286 3.085M288.95 53.692l-1.83-3.428-1.372-1.372v-1.143l-1.371-1.143-10.058-6.857h-.571l2.286 6.857-1.371.8-10.058-.571-4.228.914 8 5.714 1.143 1.487-.915 2.742-.228.342-1.143 2.515v.914l7.885 4 4-4.914 3.2-2.857 2.286-1.372h.229l4.116-2.628m-46.059-5.714l-.228.115-7.772 2.057.572 1.943h3.772l7.085 1.599 1.372.572 4.914 1.485.344.229h.457c3.2.991 5.029 1.485 5.486 1.485l6.058-.228.228-.344-7.429-6.286-.228-.228-13.487-2.629-1.144.23m192.233 369.837l-15.657 5.257 322.979-.571-16.001-7.429c-4.035-1.601-8.571-3.161-13.599-4.686l-12.571-3.886-50.173-2.63c-25.144-.228-45.869 1.714-62.174 5.83-11.656 4.342-18.896 6.628-21.715 6.857l-1.828-2.401-9.257-8.342-12.571-3.543c-2.361 0-4.23.19-5.601.571-4.038.913-11.694 3.199-22.972 6.857l-12.458 2.741c-.991.382-1.904.571-2.743.571-4.42 1.067-8.269 1.831-11.543 2.286-1.676.458-3.391.458-5.143 0H463.01l-27.886 2.518m91.316-142.289l-5.485 6.972-1.372 5.601 3.772 6.743 3.085-4.571 1.372-3.315 1.144-8.686-2.516-2.744m133.376-8.458l1.714.344v-1.143l-9.715-6.059-10.743 1.601.571.342 8 3.772 10.173 1.143M608.5 235.983l-.799 1.257 5.026 6.743v.114l1.944 2.856 11.429 10.744 13.601 2.513v-.799l-1.259-2.285-8.228-2.857-1.371-1.029-1.028-2.286-4.23-3.429-1.026-1.828 2.285-7.429-5.486-3.429-.228-.344-3.772-2.513c-.991-.076-2.324.455-4 1.598l-2.858 2.403m60.917 9.257l.113.457 2.743 5.144a4.305 4.305 0 0 0 1.715.342 7.288 7.288 0 0 0 2.17-.229v-5.714l-8.001-2.743 1.26 2.743m-17.602 6.627l1.828.116 5.487-1.143-6.857-9.144-4 8.456.686.801 2.856.914m-3.086-17.371l-.228-.228-3.429-5.714-10.857 12.799-1.143 6.286c0 .458.304.764.915.915.607.304 1.179.455 1.714.455l4.686 1.715 2.056-.342 5.373-11.658v-.228c.685-1.521.989-2.856.913-4m40.916 36.916l-2.629 10.286-9.485-7.545-2.285-.571c-1.449 1.067-3.734 1.831-6.857 2.286-2.21.229-4.496.268-6.857.116l-2.857-.458-.113.458-5.144 9.143c-.535.531-1.79 1.103-3.772 1.715h-.571l-9.371 4-1.028 7.313-.23.802 1.144 1.828.115.344 3.885 5.941c.151.458.229 1.563.229 3.315v4.113l.342.916c.457.379 1.259.761 2.401 1.143l2.4 1.143h.341l2.516.799 9.715-5.37c2.819-.611 6.819-1.107 12-1.486l2.857.344 9.144 9.143v4.571l.457 1.144 6.399-1.259 3.199.115 2.286.572c.915 0 1.754-.382 2.516-1.144.912-.688 1.484-1.448 1.714-2.285l5.484-7.887 2.286-12.114-4-9.143-8-7.429-4.8-13.029c0-.458-.304-.838-.915-1.144-.688-.457-1.525-.686-2.516-.686m-8.686-21.714l.114 1.143 2.172 4.686 7.771 5.257.115.228 3.885 2.516c1.524.457 3.314.457 5.373 0l1.484-.23-6.286-9.484a23.735 23.735 0 0 0-3.313-2.971l-2.63-1.143-9.371-1.715.114.114.572 1.599M326.321 408.102l-7.429 5.256-10.628 10.059 31.544-2.743-7.429-6.399-1.83-2.857V407.3c0-.762.115-1.484.343-2.17l8.916-9.259c-.423.129-.843.281-1.258.457-2.832 1.128-5.574 3.186-8.229 6.172-1.371 1.753-2.514 3.354-3.429 4.8l-.571.802M145.403 80.893c-2.286 0-4-.19-5.143-.571l-8.229-5.486v10.057h2.515l1.143.229 5.715 3.2 1.258.229 2.742-1.143 1.829-1.714v-4.572l-1.83-.229m472.698-31.201l-2.743 3.429 5.486 4.572h.114l1.029.686 12.799-3.201 1.601-1.486-6.399-5.143-6.857-1.372c-.724 0-1.524.191-2.402.572-.8.458-1.675 1.105-2.628 1.943m132.461 283.092c.685-.533 1.294-1.294 1.828-2.285-.382-4.114-.915-6.666-1.601-7.656l-5.486-5.601-.229.457-5.828 4.686 1.715 2.857.457.457 2.286 3.656v.344l-1.029.572-2.285 2.285-2.173 1.715-1.256 1.143-1.144 2.857-.113 2.857-.571.799-5.487 4.344c-1.295 1.295-2.438 2.817-3.429 4.571h2.286l4-1.714h.458l4-1.601 7.429-10.286 2.056-1.257 2.516-2.058v-.114l1.6-1.028m-470.527 90.632l-10.286-6.857-3.656 2.972-.344.457-4 3.429h18.286m-95.774-74.859l.914 1.941c1.601 1.982 2.667 3.125 3.201 3.429.457.38 1.79.915 4 1.601l1.599.458.115.113 2.513.913v-7.884 7.884l4.229-.455.115-.344 6.857-5.715 1.143-2.058.571-2.056.228-1.715h-13.143v3.315-3.315h-13.371l1.029 3.888m9.143-18.287l-4.457 1.941-1.487 1.029-1.942 2.399c-.991 2.59-1.753 5.067-2.286 7.429v1.601h13.371v-14.857l-3.199.458m14.629 7.657c-.914-2.059-1.562-3.277-1.942-3.656l-.115-.344-2.515-1.942-2.628-1.486-4.229-.686v14.857h13.143l-.228-3.658-1.486-3.085z"/><path fill="none" stroke="#000" stroke-linecap="round" stroke-linejoin="round" d="M613.529 41.807l4.571-2.4 1.257-5.715-18.857 2.857.915 1.714 1.143 1.143 2.286.571c2.594.729 4.67 1.242 6.228 1.543 1.053.191 1.874.287 2.457.287zm16.458 6.742l-6.857-1.372c-.724 0-1.505.21-2.344.63-.84.418-1.732 1.047-2.686 1.885l-2.743 3.429 5.486 4.572h.114l1.029.686 12.799-3.201 1.601-1.486-6.399-5.143zm55.544 79.546v-8.687l-1.601-1.143-4.916-2.857 5.373-6.515c.609 0 1.105-.189 1.484-.571.382-.381.571-.876.571-1.486l3.201-3.657 20.345-1.714 13.143-5.143c3.047-.609 5.219-.609 6.514 0l4.571 2.857 1.144.915 1.941-.687.23-.229 6.056-2.857h.23l5.484-2.857 1.372-1.486c-.229-1.676-.685-3.009-1.372-4l-.342-.229.913-.343 5.944-3.314 2.743-.115 8.228 2.057 2.63-3.771-6.63-2.515-.113-.228c-5.409-2.744-10.364-5.449-14.857-8.115-7.163 1.448-13.487 2.057-18.972 1.83l-1.259-.344h-.913l-3.315-.343-6.513 1.485-.458-1.143c-1.524-3.047-3.239-4.381-5.143-4l-1.257.229c-1.831.38-3.849.229-6.059-.457L690.1 64.547l-7.087 3.771-7.086 1.372-3.656-2.171c-1.981.228-3.658-.153-5.029-1.143l-2.856-.572h-.458l-2.514-.344c-2.438-.228-4.571-.799-6.401-1.714l-7.199-4c-2.363-1.143-4.114-1.714-5.257-1.714l-2.401.344-9.715 3.429c-1.522.457-3.161.457-4.913 0l-9.601-4.344-3.542-2.286c-.762-.305-1.869-.572-3.315-.799l-13.828 3.085-9.715 4.229-8.571 6.286c-.533.229-1.677.229-3.429 0l-6.857-1.028-10.857 5.028-1.373.343-6.686-2.228-1.198-.401-2.743 3.771-.686.8-1.486 1.143-8.686 2.628-7.543.8h-.458l-5.372.343a8.274 8.274 0 0 0-.857.458m-1.883 1.488l-10.744 13.486 6.744 8.572-2.286.229h-.458l-8.457 1.485-7.201 3.086 3.087 7.544c.382.837 1.37 2.057 2.971 3.656l7.085 6.286c1.219.762 2.438 1.714 3.659 2.857l6.857 4 2.856 2.286v6.857l8.001-2.057h.113l6.743-1.943 2.744 12.344 10.741-10.972m-1.484-102.288l12-6.171v-.571l-9.143 1.371c-.23.229-1.182.305-2.857.229l-7.087 1.143h-22.515l.344 1.258 1.828 1.714 3.315.571 1.37.799a4.808 4.808 0 0 0 1.487 0l6.971 1.143 4.571-.571h.114l9.602-.915zm-1.256 33.143l-9.601-1.028-1.601-.687-.915-.8v-7.085l3.658-3.772.458-.342 2.399-2.515v-.228l1.029-1.143.571-.344 18.857-1.371-10.286 4.799-10.63 8 7.257 6.916m-30.911 11.029l-16.345-9.943c0-.534-.228-.837-.685-.915-.609-.305-1.182-.456-1.715-.456l-1.601-.687h-13.942l-5.029 6.057 5.715 2.629c.382.534.686 1.637.913 3.313l.116 1.486-1.029 1.372-8.458 8.914.228.229 8.23 6.972v.457l1.257 5.486 1.029 2.857v.572l-.571 2.286-1.144 3.086 3.199 8.687v.457l-3.656 11.2-.571 1.143-3.772 4-.342.229-2.286 2.401 5.601 5.942 1.257-1.714m35.485-67.545l-.114.057c-.558.378-1.149.855-1.77 1.428m167.432 49.716l-1.259.342-4.001.572-2.856-.343-9.485-2.515-7.429-8.799-3.429-.687h-4l-1.257 6.973-3.314 12.228c-.457.915-1.029 1.6-1.714 2.058l-5.829 3.885c-1.981 1.448-3.544 2.21-4.688 2.286l-14.857 1.486c-4.723-.837-8.913-2.362-12.571-4.572-3.353-2.438-5.333-3.771-5.942-4l-8.114-7.771-8 4-9.257-2.742-.116 14.171-8.342-1.6-6.399-2.286-.458-.115-9.714-3.658m-3.43 50.288l-12.114-6.514-1.83-1.487-3.656-5.485-.344-1.143-2.857-4.229-4.229-4.343-.685-1.943 4.342-5.371.116-.115 1.026-1.372 4.229 3.201 1.484.799 5.26-12v-.228m-5.258 12.229l1.373 1.943 3.315-1.372h.113l5.029-2.057c2.589.534 5.026 1.676 7.313 3.429l1.831 1.714 2.399.571 4-.8h.341l2.402-.343-4 3.2h-.116l-8 6.286 5.373 5.714-6.857 9.715 6.857-2.857 4.341 4 11.545-10.857c1.522-.837 2.514-1.333 2.972-1.485h12l9.484 7.544.571.799 2.402 5.372 3.313 6.057 7.658 8.229c.838 1.067 1.561 2.515 2.173 4.343l1.026 1.143 7.201 3.086c2.134.458 3.962.571 5.486.343l2.741-.572 1.259-.799-.457-.687-.802-2.286v-.229l-2.741-7.429 2.286-.914.455-.457 21.374-10.629 2.743-2.857c.991-.914 1.408-2.248 1.257-4l-1.144-7.429-1.028-.914-.229-.457-1.486-1.487.344-.914 1.143-8.229v-.343l-1.143-3.657-.344-.571-1.143-4.228 2.743-1.486c1.448-.534 2.743-.799 3.886-.799l6.514 2.171 1.029-.457 15.429-13.143 1.715-2.972c.609 0 1.219-1.219 1.828-3.658l3.201-5.371v-.115h.113l1.144-.229v-1.143m-193.032 28.573l8 3.658c.915.686 1.601 1.943 2.059 3.771l.799 5.143-6 6.458 5.085 4.971.344.458 7.314 10.058c1.065 2.743 1.98 4.762 2.744 6.057l2.399 5.487.114.457 3.656 7.771.688 1.143 5.143-1.37 16.114-6.857 2.857-6.286.113-.344 3.887-8.571m-50.459-12.975l-.514-.514-.344-.229-12.114-4.343 1.715 4.914.913 16.229-.342 1.714-2.743 6.401-.686 14.742 1.143 8.915-1.143.8 6.857 7.313 1.143-.228.342 1.143 23.773 2.514 7.771-7.313.229-.571-3.772-6.859-3.313-2.514-.915-.343-3.657-2.742-1.601 9.6h-8l-2.857-12.229 10.572-7.028-.971-5.543-5.831-10.286-.341-1.485.113-6.629m56.231 8.686l.688.344 4.572 4.457h.113l5.144 4.915 2.627 11.429.116 1.143 2.741 5.715v.229l2.63 6.286 2.743-3.429v-.229l1.257-1.714v-3.771m0-1.375v-7.2l8-5.714 6.743-7.658v-.343l1.601-1.714m-4.459-60.573l14.744-2.515c1.522-.228 2.552-.494 3.085-.799l7.314-3.201.686-.571 5.486 2.515c2.59 1.22 4.266 1.829 5.027 1.829l10.286-.115c1.143-.457 2.285-.609 3.429-.457l6.973-2.286m-415.609-76.23l7.714-2.057.228-.115 1.143-.229 13.487 2.629.228.228 7.429 6.286m-.228.345l-6.058.228c-.457 0-2.286-.495-5.486-1.485h-.457l-.344-.229-4.914-1.485-1.372-.572-7.085-1.599h-3.772m-2.228-1.488l1.714-.457m85.431 253.148l.571-2.285c.305-2.134.457-4.531.457-7.199l-.114-2.915-.115-3.942-3.085-4.457-5.143-7.429-.344-.344-8.799-14.742v-10.285c.685-3.811 1.599-7.239 2.742-10.286l1.485-2.974-2.857-6.17c-.152-.457-.647-1.066-1.486-1.83a14.98 14.98 0 0 0-2.742-2.171l-5.714-4-2.857-3.429a27.967 27.967 0 0 0-.572-.8c-1.393-1.976-2.459-3.232-3.201-3.771l-9.486-3.086-5.028-2.628-1.714-1.714h-.115l-6.515-5.372-8.228-4.914c-2.286-1.448-3.733-2.477-4.344-3.086l-5.714-11.771c-1.219-1.829-2.438-3.352-3.656-4.572l-9.487-8.8-.571-1.486-1.942-8.8-4-8.914c-.077-1.295-.077-2.324 0-3.086l1.028-9.715-1.372-2.857-3.085-6.628v-5.715l-6.058-5.028-1.143-1.829-.572-2.743-3.429-5.258-.228-.229-2.857-2.286h-4l-1.714-.342-4.344-3.086-19.657.572-9.829 11.201-1.028-2.629-4.344-4.915-4.228-2.742c-.305-.229-.876-1.601-1.714-4.115l-.344-.572-.799-2.286.799-.8 5.372-4.571v-.228h-7.658l-1.143-.115V87.18l.915-2.513c4.647-1.143 7.009-1.83 7.085-2.058l-.571-.343-6.514-5.372 2.514-4 8.344-5.715c1.295-.609 2.514-.799 3.656-.571l10.857 3.429c2.515.382 5.753.571 9.714.571 2.363.229 4.344.534 5.943.916l2.628 2.17h10.857l2.058-.229 4-3.429c1.066-.761 2.019-1.143 2.857-1.143l3.656 1.372 2.857.572h1.143c1.448.305 2.896.305 4.344 0h2.171l4.115 2.057 1.714 2.058V71.98l-2.857-7.313-.686-1.258-.457.115-5.487 3.314c-.838.229-2.171-.229-4-1.372l-1.143-1.714 5.714-4.799 2.058-1.258 1.942-.8c3.886.838 7.887 2.058 12 3.657.305.077 1.905.648 4.8 1.714l3.429-.8 4.687-1.714 2.513 4.916c1.905 3.276 3.429 5.143 4.572 5.599l2.857.915v.229l-7.771 3.429H247.12v2.057h13.829l10.857 2.857 3.656-7.656 4.916-5.714 3.085 3.656c2.21 2.743 4 4.344 5.372 4.8.687.458 1.639.762 2.857.914.991.229 1.79.153 2.401-.228l1.143-.687v-1.714l-6.629-7.086-.343-.228v-4l.343-1.143 5.487-2.972h1.599l.914.914.344.229 1.028 1.143 12.572.571 15.2 9.486c.382.687.571 1.638.571 2.857v1.714l9.487 7.086-2.63 4.914h-.343l-5.028-3.2-1.829.686v1.028l4.571 3.428c.991.991 1.601 1.752 1.83 2.286v4l-.344 1.258h-3.085c-4.191 0-6.973-.419-8.344-1.258l-4.914-6.857h-8.229l.229-2.857h7.2l.8-2.286c.762-1.599.953-2.819.571-3.657l-7.086-6.286c-1.143-.761-2.171-1.257-3.085-1.486l-6.857 2.857 5.942 5.485v3.429h-5.942v1.943l5.028 4.343 2.401 4-2.401 4a23.616 23.616 0 0 1-5.6-1.143l-3.772-3.2-1.942-7.885-1.487 3.085-.914 1.143-2.514 2.058-3.429 1.714-.572.228-2.628 1.372-1.028 1.485v5.487m0 1.598l4.228 2.4 2.857 2.514 5.372 5.943c.687.38 1.943.571 3.771.571l1.487.115 2.513 2.171 2.63.343 4-3.2 2.857-3.885.457-.344-.457-2.514-2.972-4.344h.115l1.714-7.429v-.228h5.143l3.656 1.371c.289.156.594.328.915.514l.057.057a30.573 30.573 0 0 1 2.457 1.714l1.714 1.372v5.486h2.63l1.714-1.486.571-.229 3.085-.572c1.676.229 3.01.877 4 1.943l4.916 7.2.228.229 4.915 6.628 1.6 2.857h.115l4.572 11.086-.571 2.401c-.763 1.904-1.639 3.313-2.63 4.228-4.114 1.601-6.857 2.477-8.228 2.63l-2.63.799c-2.742.916-5.219 1.22-7.429.916l-2.857-.687-1.714-.8-2.514.229-.344.914-1.371 5.943-.915 1.714-1.143.914-1.942.572-4.915.915.229 8.228c.153 1.829.076 2.781-.229 2.857l-9.942 5.143-.115 1.714 2.857 5.943v4c-.457 3.2-.8 5.029-1.028 5.485h-.115l-1.943-1.485c-14.247 5.029-22.934 10.857-26.058 17.486l9.258.8 3.656-4.229.344-.342h1.143l2.514 4.687 4.571 2.17.916 1.714.457 9.715h.686l6.514 3.543 2.058.457 2.286-.229 4-2.286 4.228-1.485h8.8l10.057 3.543.344.228.799.916.8.456 4.914 4.687 2.515 1.484 6.972 2.857 3.085 6.974 6.286 4.571 1.143 1.143 1.487.8 5.714 1.37c.99.151 1.942.42 2.857.802l6.171 6.285 3.2 5.029-.343 1.257v.114l-1.6 4.228-4.915 6.857-.228.229c-.305 1.065-.534 2.779-.687 5.144v4.457c0 2.362-.457 4.114-1.372 5.257l-2.857 4.342-.571.688-10.857 4.571-2.286 11.313-2.857 3.658-.571.458-2.286 2.169-2.628 3.545-5.143 5.942-.457.344-1.143 1.37v.229l-2.401 2.973-.456.228-.572 1.029a11.531 11.531 0 0 1-2.972 2.172l-3.885 1.942v5.486c-.458.991-1.067 1.79-1.83 2.399l-.457.458-2.286 1.598v.802l2.514 6.743-.343 1.144-4.457 4.799-1.143 1.486 5.942 11.086c.838 2.058.838 3.731 0 5.028l-1.371 2.172-6.286-4.115-1.714-1.599-1.143-1.601h-.115l-6.515-8.114-1.714-6.63v-1.828l1.487-12.571V330.27m.003-1.713v-2.973l3.885-9.599.115-.571 2.857-9.715v-.688l.571-1.715-.571 2.402 1.143 14.514v1.37l-2.629 20.345-2.628 8.228-.229.344-1.143 4c.153.686.724 1.942 1.714 3.772l.915 1.828v.114l4 6.63.457.228 8.915 7.886m60.572-350.865l-6.857.228c-1.981 0-3.238-.076-3.771-.228h-14.742l-33.715 6.857c-.564-.518-1.06-.975-1.486-1.372a5.562 5.562 0 0 0-.171-.172c-.885-.754-1.476-1.231-1.771-1.429l-1.714-1.143-18.058-1.372-19.657 4.229-12.572 5.486v.229l2.742 2.628.343.229.915 1.143 13.143 5.485.057.229.515 1.485v4l.571 1.487 7.429 3.885 10.857-11.086 2.286-5.485c2.514-1.448 4.419-2.4 5.714-2.857l4.228-1.372 4.915 5.143c-3.962.153-7.962 1.295-12 3.429l-1.143 1.143 6.743 5.487 8.115.799c2.971.458 5.143.953 6.514 1.486l5.714 3.314 4 12.343 6.857 4.229-3.085 7.2-.115.344c-.152.305-.229.952-.229 1.942 0 1.296.077 2.058.229 2.286l.342.8 5.487 10.628 9.371 7.429 8-16.915 8-4.571.344-.457 22.857-11.544-2.629-4.229 1.143-1.714.229-.571 4-5.942 1.258-13.715h-1.486l-2.286-.687 1.143-2.17.571-.344 4.572-3.429.229-.343 4.914-5.143-.799-.8-26.061-6.512zM289.007 53.749l.971-.628-.8-1.028-.571-.344-1.486-1.485m1.886 3.485l-4.172 2.571h-.229l-2.286 1.372-3.2 2.857-4 4.914-7.885-4v-.914l1.143-2.515.228-.342.915-2.742-1.143-1.487-8-5.714 4.228-.914 10.058.571 1.371-.8-2.286-6.857h.571l10.058 6.857 1.371 1.143m1.372 2.515l-1.372-1.372M132.031 74.835l8.229 5.486c1.143.381 2.857.571 5.143.571l1.829.229v4.572l-1.829 1.714-2.742 1.143-1.258-.229-5.715-3.2-1.143-.229h-2.515V74.835zm194.29 67.832l-2.286-4.973-22.857 9.715v-7.429l-5.371-3.658a12.211 12.211 0 0 0-1.83-.742 10.035 10.035 0 0 0-1.372-.4h-5.371c-1.143-.228-2.286-.799-3.429-1.714l-2.629-2.514-3.429-.344h-.228c-11.277.153-21.03.42-29.259.8l-10.515.914h-.571l-9.715 1.143m-27.426-33.144V73.692m210.063-30.171v-1.258m76.002 1.486c.609-1.066 1.332-1.638 2.172-1.714l1.37-.343-.915-4.8-9.484-1.371h-.229c-1.98 0-3.809.152-5.485.457-2.439 1.143-4.685 1.829-6.743 2.057h-5.37l.455 4.572.915 1.143.458.229c1.37 1.296 3.047 2.553 5.029 3.771l.685.229.571.343 10.744 2.058h3.429l1.026-1.143.344-1.258c-.002-1.449.342-2.858 1.028-4.23zm-3.543 25.372l-12.457 8.115-1.715 2.513h-.113l-7.43 11.429-4.915.915-4 4 .228 5.486m-.056-.057l2.571 4.514 1.715.229 5.484-2.857h.116l1.828 4.343 4 3.772 1.714-2.629v-.228l2.857-5.258.686-2.286c0-1.676.151-3.962.457-6.857l1.257-1.372M326.893 143.98l-.572-1.313m157.491-27.831l-7.314-.8-4.114 2.629-1.601 1.371h-10.63l-.341.229-6.4 5.258m1.598 1.143h-3.771c-1.676.228-3.201.952-4.571 2.171l-1.486 1.714-10.629 3.2.914 1.943 4.344 4.915 1.714 1.372c1.524 1.523 2.362 2.666 2.514 3.429v1.143l-10.857-.457-3.2.457h-.229l-4.228.343 2.17 4v3.086l-1.028 4.115.228 1.028 4.229 4.115.572.228h9.485l.344-.228 3.657-8.344 5.372-6.513.343-.344.343-.572-2.058.229m-6.858-28.574c1.143 2.286 1.714 3.658 1.714 4.115v2.286c0 .123-.019.257-.057.399-.05.391-.221.791-.514 1.2-.228.609-.495.914-.799.914l-8.401 1.886-.171.057v-4.229l.457-.914 1.829-1.714c.381-.305.267-1.447-.344-3.429l-.571-2.17-2.628-2.63c-.38-.533-.647-1.485-.8-2.857.305-.837 1.067-1.866 2.286-3.085l2.629-1.487 2.857 3.086v.115l-2.857 3.313 5.37 5.144zm-10.857-.571c-1.904-.076-3.352.609-4.343 2.057l-.457 2.515c.152 1.296.495 2.095 1.028 2.401l.572.457c1.6.229 3.239.343 4.914.343l-1.714-7.773zm10.172 47.772l-12.458 1.943m-1.486 11.772l1.486 9.143 7.201 3.086c1.6.914 2.934 1.867 4 2.857l6.857 6.857 1.942.571h.229l2.4-.571 1.601-1.028 5.942-4.915.571-.343 1.487-1.143-1.26-15.086-3.428-10.629-.456-1.372-11.087-1.714-3.543.572m-6.398 66.345l-2.629 1.199c-1.371.611-2.514.611-3.429 0l-6.857-6.171-5.371-7.086-.915-.914v-.229l-1.714-2.286-.228-.228.857-8.857-.401-.629-.229-1.371 2.629-16.916 7.885-6.628.115-.229 2.742-2.286-1.372-8.799m55.661-20.344h.114l1.143 1.372m-32.001-4.801l7.199-.342c.458 0 1.448.229 2.974.686l2.399 1.6.341.342 5.373 3.658h9.485l.344.571 2.285-2.857.228-.229h.116m9.257 9.143h-8l-3.886-6.057m5.029 20l-10.285 4.115c-.534.228-1.525-.077-2.972-.915l-9.83-5.143-4.571-3.2m4.687 25.716l8.113 1.485 14.4 7.201m-14.4-7.201v11.086l-1.143 3.2-.113.229-2.744 7.771 5.257 8.229 1.371.115 10.974 1.028h.113m-51.544-34.515l1.485 16.801-8.228.571v.572l.228.342 1.143 6.857 5.372-.228c2.514 0 4.342-.229 5.485-.687l.229-.229 7.2-4 .572-.571 3.086-7.429.343-.343.8-2.286m16.114 15.773l-14.059-1.485-7.199 8.571-.229.343-4.228 4.802-4.571 2.113m.572 1.199l1.371-.455 14.286 1.37 1.601 1.714 6.857 10.63.228.114.802-6.399v-.116l.342-1.371v-.113l.116-1.257 1.143-2.286.455-.571 9.144-8.458m-9.146 8.457l5.944 2.286.686 1.714 1.143 8.114-1.257 1.714 12.114 6.628 2.743 17.83 4-.915h.114l5.371-1.37v-1.486m25.715-45.945l13.373-4.229-9.715 19.773-4.686 6.743c-.763.913-1.866 2.705-3.314 5.371v.457l-3.887 9.257v.344l.686 7.942.802 9.772-5.26 5.715-5.026 5.941-2.857 15.887v.458l-.458 1.714c-.078.607-.649 1.371-1.714 2.286l-9.828 9.599-2.63.229-9.143-5.601-1.144-1.37-.571-6.001-.228-2.571-.458-1.486-6.971-12.228-2.402-12.572v-1.143l1.373-12.688-2.285-7.429-.114-1.026-.344-.571-1.257-4.571h-.113l-1.26-4.458m29.946-12.23l.342.116 1.143.799 4.915 13.942v.116l2.743-2.172.342-.114 3.201-2.743 1.715 1.029h.457l10.286 5.828m-44.573-14.286l19.429-2.516m-65.145-24.456l-5.258.572c-1.295.077-2.438-.191-3.429-.8l-1.313-2.228m-.857 8.857l12.228 1.371m67.544 49.945v-4.458l.116-1.028 2.513-12.8m-32.345 29.143l13.26 5.257.113.114 6.286-4-.571-.916v-.341l1.143-5.373v-.456m-.571 7.086l.342.344 7.201 3.884 1.029-1.027 2.856-4.571 4-4.344-2.285-2.399-.458-.114c-.915-.764-1.79-1.143-2.629-1.143m-16.343 13.37l1.485 5.601v-1.601l10.516-1.257h.342l1.486-2.516m-12.343 5.374v5.714m20.687 11.315l-8.116-6.974-.342-.455-.801.455-11.429 3.545v-1.143l-4.8 5.428m4.801-10.687v5.26m-9.486-53.603l-6.399 7.887m18.514-1.259l-15.543 6.516m-14.63-45.259l-6.285-4.229m-88.574 28.802l-.571-.571-2.057-1.601-2.171.113-6.286.915-2.857-.115-7.429-1.485-4.687 5.829-6.857 4-1.372 5.486-6.628 9.828 7.544 7.199 5.714-3.198 6.286 8.913 1.371 1.259 8.8 5.143-2.742 3.085v.344l-5.829 6.741-.229.116h.229l4.914-1.486 7.086 13.486.572 2.399V317.699m-41.374-81.261l7.658-13.257 11.429-4.914m-4.801 33.716h-.228l-6.401-8.116-.571.116-7.658 4-3.656 12m26.743-17.486l-6.857-6.972-8 8.342m19.544-7.199l4.572-3.658v-7.313m-21.715 56.801h2.857l.228-.8 2.058-12.688m-1.944 21.887l6.515 2.802 7.429-2.059-7.429-5.828-.115-.229-4.801-3.085h-1.942m14.287 9.143l.799.458.571-.686-1.37.228zm14.171 17.143l-6.743 2.857v.344l1.143 12m-25.487 17.943l-1.942-9.257v-.114l-.572-2.743-.115-.114-2.515-4-.228-.115m-4.685 97.831l10.628-10.059 7.429-5.256.572-.802c.915-1.446 2.058-3.047 3.429-4.8 2.655-2.986 5.397-5.044 8.229-6.172.415-.176.834-.328 1.258-.457l-8.916 9.259a6.83 6.83 0 0 0-.343 2.17v4.116l1.83 2.857 7.429 6.399m402.636 1.83l-16.001-7.429c-4.035-1.601-8.571-3.161-13.599-4.686l-12.571-3.886-50.173-2.63c-25.144-.228-45.869 1.714-62.174 5.83-11.656 4.342-18.896 6.628-21.715 6.857l-1.828-2.401-9.257-8.342-12.571-3.543c-2.361 0-4.23.19-5.601.571-4.038.913-11.694 3.199-22.972 6.857l-12.458 2.741c-.991.382-1.904.571-2.743.571-4.42 1.067-8.269 1.831-11.543 2.286-1.676.458-3.391.458-5.143 0H463.01l-27.886 2.516-15.657 5.257m322.978-.569h3.658c1.677.228 3.429.228 5.257 0M298.55 218.268l-6.743-.229M183.233 344.671v-1.601c.532-2.361 1.294-4.839 2.286-7.429l1.942-2.399 1.487-1.029 4.457-1.941 3.2-.458 4.229.686 2.628 1.486 2.515 1.942.115.344c.381.379 1.028 1.598 1.942 3.656l1.486 3.085.228 3.658h1.715m-1.716 0l-.228 1.715-.571 2.056-1.143 2.058-6.857 5.715-.115.344-4.229.455-2.513-.913-.115-.113-1.599-.458c-2.21-.686-3.543-1.221-4-1.601-.534-.304-1.601-1.446-3.201-3.429l-.914-1.941-1.028-3.887h-1.487m14.857 3.314v-3.315h-13.371m13.371 12.342v-7.884m0-19.316v14.857h13.143m70.288 78.746l.229.114 2.4 1.828m-2.629-1.942h-18.286l4-3.429.344-.457 3.656-2.972 10.286 6.858zm410.981-162.633l.115.228 3.885 2.516c1.524.457 3.314.457 5.373 0l1.484-.23-6.286-9.484a23.735 23.735 0 0 0-3.313-2.971l-2.63-1.143-9.371-1.715.114.114.571 1.601.114 1.143 2.172 4.686 7.772 5.255zm-4 20.915l2.629-10.286c.991 0 1.828.229 2.514.686.611.306.915.686.915 1.144l4.8 13.029 8 7.429 4 9.143-2.286 12.114-5.484 7.887c-.229.837-.802 1.598-1.714 2.285-.762.762-1.601 1.144-2.516 1.144l-2.286-.572-3.199-.115-6.399 1.259-.457-1.144v-4.571l-9.144-9.143-2.857-.344c-5.181.379-9.181.875-12 1.486l-9.715 5.37-2.516-.799h-.341l-2.4-1.143c-1.143-.382-1.944-.764-2.401-1.143l-.342-.916v-4.113c0-1.753-.078-2.857-.229-3.315l-3.885-5.941-.115-.344-1.144-1.828.23-.802 1.028-7.313 9.371-4h.571c1.982-.612 3.237-1.184 3.772-1.715l5.144-9.143.113-.458 2.857.458c2.361.151 4.647.113 6.857-.116 3.123-.455 5.408-1.219 6.857-2.286l2.285.571 9.487 7.545zm51.201 52.573l2.173-1.715 2.285-2.285 1.029-.572v-.344l-2.286-3.656-.457-.457-1.715-2.857 5.828-4.686.229-.457 5.486 5.601c.686.99 1.219 3.542 1.601 7.656-.534.991-1.144 1.752-1.828 2.285l-1.601 1.029v.114l-2.516 2.058-2.056 1.257-7.429 10.286-4 1.601h-.458l-4 1.714h-2.286c.991-1.754 2.134-3.276 3.429-4.571l5.487-4.344.571-.799.113-2.857 1.144-2.857m-76.173-114.633l.743 6.744v4.342l-.229.688-7.086-10.516c-.091-.127-.188-.261-.285-.399a35.633 35.633 0 0 0-.571-.686c-.13-.145-.264-.298-.399-.458a40.98 40.98 0 0 0-2.4-2.229l-.571-.457c-1.219-1.22-1.83-2.096-1.83-2.63l2.401-11.429 8.114 6.857 1.715 7.086m.398 1.544l.285 1.2m-.285.343l-.399-3.086m-26.173 23.658l10.857-12.799 3.486 5.714.17.228c.076 1.144-.228 2.479-.913 4.001v.228l-5.373 11.658-2.056.342-4.686-1.715c-.535 0-1.106-.151-1.714-.455-.611-.151-.915-.457-.915-.915l1.144-6.287zm14.058 8.799l4-8.456 6.857 9.144-5.487 1.143-1.828-.116-2.856-.913-.686-.802zm21.257-4.456l-.113-.457-1.26-2.743 8.001 2.743v5.714c-.762.19-1.465.286-2.114.286a5.275 5.275 0 0 1-1.771-.399l-2.743-5.144zm-58.173-12.116c1.676-1.143 3.009-1.674 4-1.598l3.772 2.513.228.344 5.486 3.429-2.285 7.429 1.026 1.828 4.23 3.429 1.028 2.286 1.371 1.029 8.228 2.857 1.259 2.285v.799l-13.601-2.513-11.429-10.744-1.944-2.856v-.114l-5.026-6.743.799-1.257 2.858-2.403zm48.459 33.487l1.714.344v-1.143l-9.715-6.059-10.743 1.601.571.342 8 3.772 10.173 1.143zm-150.003-60.629l.285 1.657.114.228 1.486 7.657v.115m6.858 27.887l-3.2-7.545m4.227 51.661l3.772 6.743 3.085-4.571 1.372-3.315 1.144-8.686-2.516-2.743-5.485 6.972-1.372 5.6zm-8.229-29.031l-6.856 2.743v3.199m0 1.26v1.143l7.542-.058m-7.542.057l-5.258 5.371m8.342 10.059l-.571-.344-11.771-5.371m-4 20.572l5.257-5.487-6.629-6.971m14.63-23.429h-10.63M339.809 420.673l-31.544 2.743m434.18-.915l-322.979.571"/></svg>