<?xml version="1.0" encoding="utf-8"?>
<!-- Generator: Adobe Illustrator 16.0.0, SVG Export Plug-In . SVG Version: 6.00 Build 0)  -->
<!DOCTYPE svg PUBLIC "-//W3C//DTD SVG 1.1//EN" "http://www.w3.org/Graphics/SVG/1.1/DTD/svg11.dtd">
<svg version="1.1" id="Layer_1" xmlns="http://www.w3.org/2000/svg" xmlns:xlink="http://www.w3.org/1999/xlink" x="0px" y="0px"
	 width="900px" height="450px" viewBox="0 0 900 450" enable-background="new 0 0 900 450" xml:space="preserve">
<g transform="matrix( 1, 0, 0, 1, 0,0) ">
	<g>
		<g id="Layer11_0_MEMBER_1_MEMBER_0_FILL">
			<path fill="#57A95C" d="M277.749,130.608h-0.228c-11.277,0.153-21.03,0.42-29.259,0.8l-10.515,0.914h-0.571l-9.715,1.143
				l1.372,2.857l-1.028,9.715c-0.077,0.762-0.077,1.791,0,3.086l4,8.914l1.942,8.8l0.571,1.486l9.487,8.8
				c1.219,1.22,2.438,2.743,3.656,4.572l5.714,11.771c0.611,0.609,2.058,1.638,4.344,3.086l8.228,4.914l6.515,5.372h0.115
				l1.714,1.714l5.028,2.628l9.486,3.086c0.741,0.539,1.808,1.796,3.201,3.771l6.743,0.229l-0.457-9.715l-0.916-1.714l-4.571-2.17
				l-2.514-4.687h-1.143l-0.344,0.342l-3.656,4.229l-9.258-0.8c3.124-6.628,11.811-12.457,26.058-17.486l1.943,1.485h0.115
				c0.228-0.456,0.571-2.286,1.028-5.485v-4l-2.857-5.943l0.115-1.714l9.942-5.143c0.305-0.076,0.381-1.028,0.229-2.857
				l-0.229-8.228l4.915-0.915l1.942-0.572l1.143-0.914l0.915-1.714l1.371-5.943l0.344-0.914l2.514-0.229l1.143-0.571l-2.286-4.915
				l-22.857,9.715v-7.429l-5.371-3.658c-0.607-0.304-1.218-0.569-1.83-0.799c-0.454-0.131-0.912-0.245-1.372-0.344h-5.371
				c-1.143-0.228-2.286-0.799-3.429-1.714l-2.629-2.514L277.749,130.608 M312.951,328.557v1.715v10.399l-1.487,12.571
				c0,1.065,0,1.677,0,1.828l1.714,6.63l6.515,8.114h0.115l1.143,1.601l1.714,1.599l6.286,4.115l1.371-2.172l-8.915-7.886
				l-0.457-0.228l-4-6.63V360.1l-0.915-1.828c-0.99-1.83-1.562-3.087-1.714-3.772l1.143-4l0.229-0.344l2.628-8.228l-1.942-9.257
				v-0.114l-0.572-2.743l-0.115-0.114l-2.515-4l-0.228-0.115V328.557 M167.233,67.178l-8.344,5.715l-2.514,4l6.514,5.372
				l0.571,0.343c-0.076,0.229-2.438,0.915-7.085,2.058l-0.915,2.513v1.943l1.143,0.115h7.658v0.228l-5.372,4.571l-0.799,0.8
				l0.799,2.286l0.344,0.572c0.838,2.514,1.41,3.886,1.714,4.115l4.228,2.742l4.344,4.915l1.028,2.629l9.829-11.201l19.657-0.572
				V73.692l-2.628-2.17c-1.599-0.382-3.58-0.687-5.943-0.916c-3.961,0-7.2-0.189-9.714-0.571l-10.857-3.429
				C169.747,66.379,168.528,66.568,167.233,67.178 M234.891,56.892l-1.942,0.8l-2.058,1.258l-5.714,4.799l1.143,1.714
				c1.829,1.143,3.162,1.601,4,1.372l5.487-3.314l0.457-0.115l0.686,1.258l2.857,7.313v2.972l-1.714-2.058l-4.115-2.057h-2.171
				c-1.447,0.305-2.896,0.305-4.344,0h-1.143l-2.857-0.572l-3.656-1.372c-0.838,0-1.792,0.382-2.857,1.143l-4,3.429l-2.058,0.229
				h-10.857v26.629l4.344,3.086l1.714,0.342h4l2.857,2.286l0.228,0.229l3.429,5.258l0.572,2.743l1.143,1.829l6.058,5.028v5.715
				l3.085,6.628l9.715-1.143h0.571l10.515-0.914c8.229-0.38,17.981-0.647,29.259-0.8h0.228l3.429,0.344l2.629,2.514
				c1.143,0.915,2.286,1.486,3.429,1.714h5.371c0.46,0.099,0.917,0.213,1.372,0.344c0.612,0.229,1.222,0.495,1.83,0.799l5.371,3.658
				v7.429l22.857-9.715l2.286,4.915l0.572,1.372l2.857,0.687c2.21,0.305,4.687,0,7.429-0.916l2.63-0.799
				c1.371-0.153,4.114-1.029,8.228-2.63c0.991-0.914,1.867-2.324,2.63-4.228l0.571-2.401l-4.572-11.086h-0.115l-1.6-2.857
				l-4.915-6.628l-0.228-0.229l-4.916-7.2c-0.99-1.066-2.324-1.714-4-1.943l-3.085,0.572l-0.571,0.229l-1.714,1.486h-2.63v-5.486
				l-1.714-1.372c-0.89-0.681-1.728-1.252-2.514-1.714v-0.114c-0.321-0.149-0.626-0.301-0.915-0.458l-3.656-1.371h-5.143v0.228
				l-1.714,7.429h-0.115l2.972,4.344l0.457,2.514l-0.457,0.344l-2.857,3.885l-4,3.2l-2.63-0.343l-2.513-2.171l-1.487-0.115
				c-1.828,0-3.085-0.191-3.771-0.571l-5.372-5.943l-2.857-2.514l-4.228-2.4v-1.6v-5.487l1.028-1.485l2.628-1.372l0.572-0.228
				l3.429-1.714l2.514-2.058l0.914-1.143l1.487-3.085l1.942,7.885l3.772,3.2c1.828,0.609,3.695,0.991,5.6,1.143l2.401-4l-2.401-4
				l-5.028-4.343v-1.943h5.942V79.75l-5.942-5.485l6.857-2.857c0.914,0.229,1.942,0.725,3.085,1.486l7.086,6.286
				c0.382,0.838,0.191,2.058-0.571,3.657l-0.8,2.286h-7.2l-0.229,2.857h8.229l4.914,6.857c1.372,0.838,4.153,1.258,8.344,1.258
				h3.085l0.344-1.258v-4c-0.229-0.534-0.838-1.295-1.83-2.286l-4.571-3.428v-1.028l1.829-0.686l5.028,3.2h0.343l2.63-4.914
				l-9.487-7.086v-1.714c0-1.219-0.189-2.171-0.571-2.857l-15.2-9.486l-12.572-0.571l-1.028-1.143l-0.344-0.229l-0.914-0.914h-1.599
				l-5.487,2.972l-0.343,1.143v4l0.343,0.228l6.629,7.086v1.714l-1.143,0.687c-0.611,0.38-1.41,0.457-2.401,0.228
				c-1.219-0.152-2.171-0.457-2.857-0.914c-1.372-0.457-3.162-2.057-5.372-4.8l-3.085-3.656l-4.916,5.714l-3.656,7.656
				l-10.857-2.857H247.12v-2.057h14.857l7.771-3.429v-0.229l-2.857-0.915c-1.143-0.456-2.667-2.323-4.572-5.599l-2.513-4.916
				l-4.687,1.714l-3.429,0.8c-2.895-1.066-4.496-1.637-4.8-1.714C242.777,58.95,238.777,57.73,234.891,56.892 M314.094,219.753
				l-4,2.286l-2.286,0.229l-2.058-0.457l-6.514-3.543h-0.686l-6.743-0.229c0.187,0.251,0.376,0.518,0.572,0.8l2.857,3.429l5.714,4
				c0.99,0.609,1.904,1.334,2.742,2.171c0.838,0.764,1.334,1.373,1.486,1.83l2.857,6.17l7.658-13.257l11.429-4.914h-8.8
				L314.094,219.753 M342.666,311.642v0.344l1.143,12l0.457-0.344l5.143-5.942v-8.915L342.666,311.642 M362.894,243.983
				l-6.286-4.571l-0.571-0.571l-2.057-1.601l-2.171,0.113l-6.286,0.915l-2.857-0.115l-7.429-1.485l-4.687,5.829l-6.857,4
				l-1.372,5.486l-6.628,9.828l7.544,7.199l5.714-3.198l6.286,8.913l1.371,1.259l8.8,5.143l-2.742,3.085v0.344l-5.829,6.741
				l-0.229,0.116h0.229l4.914-1.486l7.086,13.486l0.572,2.399v2.972v8.915l2.628-3.545l2.286-2.169l0.571-0.458l2.857-3.658
				l2.286-11.313l10.857-4.571l0.571-0.688l2.857-4.342c0.915-1.143,1.372-2.895,1.372-5.257v-4.457
				c0.153-2.364,0.382-4.078,0.687-5.144l0.228-0.229l4.915-6.857l1.6-4.228v-0.114l0.343-1.257l-3.2-5.029l-6.171-6.285
				c-0.915-0.382-1.867-0.65-2.857-0.802l-5.714-1.37l-1.487-0.8L362.894,243.983 M320.951,321.583v-1.37l-1.143-14.514
				l-2.857,9.715l-0.115,0.571l-3.885,9.599l0.228,0.115l2.515,4l0.115,0.114l0.572,2.743v0.114l1.942,9.257L320.951,321.583
				 M327.808,293.699l-6.515-2.857l0.114,2.971c0,2.668-0.152,5.065-0.457,7.199l-0.571,2.285l-0.571,2.402l1.143,14.514v1.37
				l-2.629,20.345l-2.628,8.228l-0.229,0.344l-1.143,4c0.153,0.686,0.724,1.942,1.714,3.772l0.915,1.828v0.114l4,6.63l0.457,0.228
				l8.915,7.886c0.838-1.297,0.838-2.971,0-5.028l-5.942-11.086l1.143-1.486l4.457-4.799l0.343-1.144l-2.514-6.743v-0.802
				l2.286-1.598l0.457-0.458c0.762-0.609,1.372-1.408,1.83-2.399v-5.486l3.885-1.942c1.067-0.536,2.057-1.259,2.972-2.172
				l0.572-1.029l0.456-0.228l2.401-2.973v-0.229l1.143-1.37l-1.143-12v-0.344l6.743-2.857v-2.972l-0.572-2.399l-7.086-13.486
				l-4.914,1.486h-0.229l-0.571,0.686l-0.799-0.458L327.808,293.699 M320.951,282.498h-2.857l3.085,4.457l0.115,3.887l6.515,2.857
				l7.429-2.059l-7.429-5.828l-0.115-0.229l-4.801-3.085H320.951 M356.037,238.841l0.571,0.571l-3.085-6.974l-6.972-2.857
				l-2.515-1.484l-4.914-4.687l-0.8-0.456l-0.799-0.916l-0.344-0.228l-10.057-3.543l-11.429,4.914l-7.658,13.257l-1.485,2.974
				c-1.143,3.047-2.057,6.476-2.742,10.286v10.285l3.656-12l7.658-4l0.571-0.116l8-8.342l6.857,6.972l4.687-5.829l4.572-3.658
				v-7.313v7.313l-4.572,3.658l7.429,1.485l2.857,0.115l6.286-0.915l2.171-0.113L356.037,238.841 M336.607,275.984l-1.371-1.259
				l-6.286-8.913l-5.714,3.198l-2.058,12.688l-0.228,0.8h1.942l4.801,3.085l0.115,0.229l7.429,5.828l1.371-0.228l0.229-0.116
				l5.829-6.741v-0.344l2.742-3.085L336.607,275.984 M323.693,235.525l-8,8.342l6.401,8.116h0.228l1.372-5.486l6.857-4
				L323.693,235.525 M315.693,243.867l-0.571,0.116l-7.658,4l-3.656,12l8.799,14.742l0.344,0.344l5.143,7.429h2.857l0.228-0.8
				l2.058-12.688l-7.544-7.199l6.628-9.828h-0.228L315.693,243.867 M293.521,44.892v0.229l0.572,1.485v4l0.571,1.487l7.429,3.885
				l10.857-11.086l2.286-5.485c2.514-1.448,4.419-2.4,5.714-2.857l4.228-1.372l4.915,5.143c-3.962,0.153-7.962,1.295-12,3.429
				l-1.143,1.143l6.743,5.487l8.115,0.799c2.971,0.458,5.143,0.953,6.514,1.486l5.714,3.314l4,12.343l6.857,4.229l-3.085,7.2
				l-0.115,0.344c-0.152,0.305-0.229,0.952-0.229,1.942c0,1.296,0.077,2.058,0.229,2.286l0.342,0.8l5.487,10.628l9.371,7.429
				l8-16.915l8-4.571l0.344-0.457l22.857-11.544l-2.629-4.229l1.143-1.714l0.229-0.571l4-5.942l1.258-13.715h-1.486l-2.286-0.687
				l1.143-2.17l0.571-0.344l4.572-3.429l0.229-0.343l4.914-5.143l-0.799-0.8l-26.059-6.513l-6.857,0.228
				c-1.981,0-3.238-0.076-3.771-0.228h-14.742l-33.715,6.857c-0.564-0.518-1.06-0.975-1.486-1.372
				c-0.057-0.06-0.133-0.136-0.228-0.229c-0.847-0.716-1.418-1.174-1.714-1.372l-1.714-1.143l-18.058-1.372l-19.657,4.229
				l-12.572,5.486v0.229l2.742,2.628l0.343,0.229l0.915,1.143L293.521,44.892 M660.729,220.782l-0.341-3.086l-1.715-7.086
				l-8.114-6.857l-2.401,11.429c0,0.534,0.611,1.41,1.83,2.63l0.571,0.457c0.936,0.809,1.737,1.532,2.4,2.172
				c0.136,0.197,0.25,0.35,0.341,0.457c0.243,0.278,0.434,0.506,0.571,0.686c0.139,0.176,0.253,0.33,0.344,0.457l7.086,10.516
				l0.229-0.688v-4.342L660.729,220.782 M660.729,220.782l0.344-0.229v-0.114l-0.344-1.258l-0.341-1.486L660.729,220.782
				 M471.126,175.181l-9.83-5.143l-4.571-3.2l3.428,10.629l1.26,15.086l8.113,1.485l14.4,7.201l2.743-6.401l0.342-1.714
				l-0.913-16.229l-1.715-4.914l-10.285,4.115C473.563,176.323,472.572,176.019,471.126,175.181 M496.841,176.552l-0.344-0.229
				l-12.114-4.343l1.715,4.914l0.913,16.229l-0.342,1.714l-2.743,6.401l-0.686,14.742l1.143,8.915l-1.143,0.8l6.857,7.313
				l1.143-0.228l0.342,1.143l23.773,2.514l7.771-7.313l0.229-0.571l-3.772-6.859l-3.313-2.514l-0.915-0.343l-3.657-2.742l-1.601,9.6
				h-8l-2.857-12.229l10.514-7.085l-0.912-5.486l-5.831-10.286l-0.341-1.485l0.113-6.629l-0.344-0.458l-5.143-5.028L496.841,176.552
				 M538.557,55.978l-0.458,0.342l-3.658,3.772v7.085l0.915,0.8l1.601,0.687l9.601,1.028l1.143,0.343l-7.201-6.857l10.63-8
				l10.286-4.799l-18.857,1.371l-0.571,0.344l-1.029,1.143v0.228L538.557,55.978 M630.442,61.807c-1.522,0.457-3.161,0.457-4.913,0
				l-9.601-4.344l-3.542-2.286c-0.762-0.305-1.869-0.572-3.315-0.799l-13.828,3.085l-9.715,4.229l-8.571,6.286
				c-0.533,0.229-1.677,0.229-3.429,0l-6.857-1.028l-10.857,5.028l-1.373,0.343l-6.741-2.286l-1.143-0.343l-2.743,3.771l-0.686,0.8
				l-1.486,1.143l-8.686,2.628l-7.543,0.8h-0.458l-5.372,0.343c-0.272,0.124-0.576,0.277-0.913,0.458l-1.828,1.485l-10.744,13.486
				l6.744,8.572l-2.286,0.229h-0.458l-8.457,1.485l-7.201,3.086l3.087,7.544c0.382,0.837,1.37,2.057,2.971,3.656l7.085,6.286
				c1.219,0.762,2.438,1.714,3.659,2.857l6.857,4l2.856,2.286v6.857l8.001-2.057h0.113l6.743-1.943l2.744,12.344l10.741-10.972
				l-10.741,10.972v0.228l-5.26,12l1.373,1.943l3.315-1.372h0.113l5.029-2.057c2.589,0.534,5.026,1.676,7.313,3.429l1.831,1.714
				l2.399,0.571l4-0.8h0.341l2.402-0.343l-4,3.2h-0.116l-8,6.286l5.373,5.714l-6.857,9.715l6.857-2.857l4.341,4l11.545-10.857
				c1.522-0.837,2.514-1.333,2.972-1.485h12l9.484,7.544l0.571,0.799l2.402,5.372l3.313,6.057l7.658,8.229
				c0.838,1.067,1.561,2.515,2.173,4.343l1.026,1.143l7.201,3.086c2.134,0.458,3.962,0.571,5.486,0.343l2.741-0.572l1.259-0.799
				l-0.457-0.687l-0.802-2.286v-0.229l-2.741-7.429l2.286-0.914l0.455-0.457l21.374-10.629l2.743-2.857
				c0.991-0.914,1.408-2.248,1.257-4l-1.144-7.429l-1.028-0.914l-0.229-0.457l-1.486-1.487l0.344-0.914l1.143-8.229v-0.343
				l-1.143-3.657l-0.344-0.571l-1.143-4.228l2.743-1.486c1.448-0.534,2.743-0.799,3.886-0.799l6.514,2.171l1.029-0.457
				l15.429-13.143l1.715-2.972c0.609,0,1.219-1.219,1.828-3.658l3.201-5.371v-0.115l-1.259,0.342l-4.001,0.572l-2.856-0.343
				l-9.485-2.515l-7.429-8.799l-3.429-0.687h-4l-1.257,6.973l-3.314,12.228c-0.457,0.915-1.029,1.6-1.714,2.058l-5.829,3.885
				c-1.981,1.448-3.544,2.21-4.688,2.286l-14.857,1.486c-4.723-0.837-8.913-2.362-12.571-4.572c-3.353-2.438-5.333-3.771-5.942-4
				l-8.114-7.771l-8,4l-9.257-2.742l-0.116,14.171l-8.342-1.6l-6.399-2.286l-0.458-0.115l-9.714-3.658l9.714,3.658l0.458,0.115
				l6.399,2.286l8.342,1.6l0.116-14.171l9.257,2.742l8-4l14.744-2.515c1.522-0.228,2.552-0.494,3.085-0.799l7.314-3.201l0.686-0.571
				l5.486,2.515c2.59,1.22,4.266,1.829,5.027,1.829l10.286-0.115c1.143-0.457,2.285-0.609,3.429-0.457l6.973-2.286l1.257-6.973h4
				l3.429,0.687l7.429,8.799l9.485,2.515l2.856,0.343l4.001-0.572l1.259-0.342h0.113l1.144-0.229v-1.143v-1.37v-8.687l-1.601-1.143
				l-4.916-2.857l5.373-6.515c0.609,0,1.105-0.189,1.484-0.571c0.382-0.381,0.571-0.876,0.571-1.486l3.201-3.657l20.345-1.714
				l13.143-5.143c3.047-0.609,5.219-0.609,6.514,0l4.571,2.857l1.144,0.915l1.941-0.687l0.23-0.229l6.056-2.857h0.23l5.484-2.857
				l1.372-1.486c-0.229-1.676-0.685-3.009-1.372-4l-0.342-0.229l0.913-0.343l5.944-3.314l2.743-0.115l8.228,2.057l2.63-3.771
				l-6.63-2.515l-0.113-0.228c-5.409-2.744-10.364-5.449-14.857-8.115c-7.163,1.448-13.487,2.057-18.972,1.83l-1.259-0.344h-0.913
				l-3.315-0.343l-6.513,1.485l-0.458-1.143c-1.524-3.047-3.239-4.381-5.143-4l-1.257,0.229c-1.831,0.38-3.849,0.229-6.059-0.457
				l-13.828-4.115l-7.087,3.771l-7.086,1.372l-3.656-2.171c-1.981,0.228-3.658-0.153-5.029-1.143l-2.856-0.572h-0.458l-2.514-0.344
				c-2.438-0.228-4.571-0.799-6.401-1.714l-7.199-4c-2.363-1.143-4.114-1.714-5.257-1.714l-2.401,0.344L630.442,61.807
				 M468.383,79.75h-0.113l-7.43,11.429l-4.915,0.915l-4,4l0.228,5.486l-0.113-0.115l2.629,4.572l1.715,0.229l5.484-2.857h0.116
				l1.828,4.343l4,3.772l1.714-2.629v-0.228l2.857-5.258l0.686-2.286c0-1.676,0.151-3.962,0.457-6.857l1.257-1.372l8.458-8.914
				l1.029-1.372l-0.116-1.486c-0.228-1.676-0.531-2.78-0.913-3.313l-5.715-2.629l5.029-6.057l-12.457,8.115L468.383,79.75
				 M498.098,69.808l-1.601-0.687h-13.942l-5.029,6.057l5.715,2.629c0.382,0.534,0.686,1.637,0.913,3.313l0.116,1.486l-1.029,1.372
				l-8.458,8.914l0.228,0.229l8.23,6.972v0.457l1.257,5.486l1.029,2.857v0.572l-0.571,2.286l-1.144,3.086l3.199,8.687v0.457
				l-3.656,11.2l-0.571,1.143l-3.772,4l-0.342,0.229l-2.286,2.401l5.601,5.942l1.257-1.714l-1.257,1.714h0.114l1.143,1.372
				l-1.143-1.372h-0.114h-0.116l-0.228,0.229l-2.285,2.857l3.886,6.057h8h-8l-3.886-6.057l-0.344-0.571h-9.485l-5.373-3.658
				l-0.341-0.342l-2.399-1.6c-1.525-0.458-2.516-0.686-2.974-0.686l-7.199,0.342l-0.343,0.572l-0.343,0.344l-5.372,6.513
				l-3.657,8.344l-0.344,0.228l0.458,2.857l3.543-0.572l11.087,1.714l0.456,1.372l4.571,3.2l9.83,5.143
				c1.446,0.838,2.438,1.143,2.972,0.915l10.285-4.115l12.114,4.343l0.344,0.229l0.456,0.458l6.058-6.401l-0.799-5.143
				c-0.458-1.828-1.144-3.085-2.059-3.771l-8-3.658l8,3.658c0.915,0.686,1.601,1.943,2.059,3.771l0.799,5.143l-6.058,6.401
				l5.143,5.028l0.344,0.458l7.314,10.058c1.065,2.743,1.98,4.762,2.744,6.057l2.399,5.487l0.114,0.457l3.656,7.771l0.688,1.143
				l5.143-1.37l16.114-6.857l2.857-6.286l0.113-0.344l3.887-8.571l-12.114-6.514l-1.83-1.487l-3.656-5.485l-0.344-1.143
				l-2.857-4.229l-4.229-4.343l-0.685-1.943l4.342-5.371l0.116-0.115l1.026-1.372l4.229,3.201l1.484,0.799l5.26-12v-0.228
				l-2.744-12.344l-6.743,1.943h-0.113l-8.001,2.057v-6.857l-2.856-2.286l-6.857-4c-1.222-1.143-2.44-2.095-3.659-2.857
				l-7.085-6.286c-1.601-1.6-2.589-2.819-2.971-3.656l-3.087-7.544l7.201-3.086l8.457-1.485h0.458l2.286-0.229l-6.744-8.572
				l10.744-13.486l-16.345-9.943c0-0.534-0.228-0.837-0.685-0.915C499.203,69.959,498.631,69.808,498.098,69.808 M499.24,272.783
				l-4,4.344l11.771,5.371l0.571,0.344l5.26-5.715l-0.802-9.83l-7.542,0.115L499.24,272.783 M532.956,217.467l-13.373,4.229
				l3.772,6.859l-0.229,0.571l-7.771,7.313l3.2,7.545l4.686-6.743L532.956,217.467 M470.782,118.036h-10.63l-0.341,0.229l-6.4,5.258
				v1.143h1.599h-1.599h-2.172c-1.676,0.228-3.201,0.952-4.571,2.171l-1.486,1.714l-10.629,3.2l0.914,1.943l4.344,4.915l1.714,1.372
				c1.524,1.523,2.362,2.666,2.514,3.429v1.143l-10.857-0.457l-3.2,0.457h-0.229l-4.228,0.343l2.17,4v3.086l-1.028,4.115
				l0.228,1.028l4.229,4.115l0.572,0.228h9.485l0.344-0.228l3.657-8.344l5.372-6.513l0.343-0.344l0.343-0.572l-2.058,0.229
				l2.058-0.229l7.199-0.342c0.458,0,1.448,0.229,2.974,0.686l2.399,1.6l0.341,0.342l5.373,3.658h9.485l0.344,0.571l2.285-2.857
				l0.228-0.229h0.116l-5.601-5.942l2.286-2.401l0.342-0.229l3.772-4l0.571-1.143l3.656-11.2v-0.457l-3.199-8.687l-7.314-0.8
				l-4.114,2.629L470.782,118.036 M429.181,166.266l-2.857,2.972l1.372,8.799l1.486,9.143l7.201,3.086
				c1.6,0.914,2.934,1.867,4,2.857l6.857,6.857l1.942,0.571h0.229l2.4-0.571l1.601-1.028l5.942-4.915l0.571-0.343l1.487-1.143
				l-1.26-15.086l-3.428-10.629l-0.456-1.372l-11.087-1.714l-3.543,0.572L429.181,166.266 M510.098,208.096l-0.344-1.714
				l-10.514,7.085l2.857,12.229h8l1.601-9.6v-0.115l-1.486-7.657L510.098,208.096 M424.838,180.552l-7.885,6.628l-2.629,16.916
				l0.229,1.371l0.343,0.571l1.372,2.286c0.991,0.609,2.134,0.877,3.429,0.8l5.258-0.572l8.228-0.571l-1.485-16.801l1.485,16.801
				l-8.228,0.571v0.572l0.228,0.342l1.143,6.857l5.372-0.228c2.514,0,4.342-0.229,5.485-0.687l0.229-0.229l7.2-4l0.572-0.571
				l3.086-7.429l0.343-0.343l0.8-2.286h-0.229l-1.942-0.571l-6.857-6.857c-1.067-0.99-2.401-1.943-4-2.857l-7.201-3.086
				l-1.486-9.143l-2.742,2.286L424.838,180.552 M445.182,210.61l-0.572,0.571l-7.2,4l-0.229,0.229
				c-1.143,0.458-2.971,0.687-5.485,0.687l-5.372,0.228l-12.228-1.371l0.228,0.228l1.714,2.286v0.229l0.915,0.914l5.371,7.086
				l6.857,6.171c0.915,0.611,2.058,0.611,3.429,0l2.629-1.257l4.571-2.056l4.228-4.802l0.229-0.343l7.199-8.571L445.182,210.61
				 M470.782,224.553l-5.257-8.229l-14.059-1.485l-7.199,8.571l-0.229,0.343l-4.228,4.802l-4.571,2.056l0.571,1.257l1.371-0.455
				l14.286,1.37l1.601,1.714l6.857,10.63l0.228,0.114l0.802-6.399v-0.116l0.342-1.371v-0.113l0.116-1.257l1.143-2.286l0.455-0.571
				l9.144-8.458L470.782,224.553 M461.296,237.354l-0.342,1.371v0.116l-0.802,6.399l1.26,4.458h0.113l1.257,4.571l0.344,0.571
				l6.399-7.887l1.257-1.714l-1.143-8.114l-0.686-1.714l-5.944-2.286l-0.455,0.571l-1.143,2.286l-0.116,1.257V237.354
				 M483.24,225.696h-0.113l-10.974-1.028l-9.144,8.458l5.944,2.286l0.686,1.714l1.143,8.114l-1.257,1.714l12.114,6.628l2.743,17.83
				l4-0.915h0.114l5.371-1.37v-1.486v1.486c0.839,0,1.714,0.379,2.629,1.143l0.458,0.114l2.285,2.399l5.258-5.371v-1.143v1.143
				l7.542-0.115l-0.686-7.885v-0.344l-6.856,2.743v3.199v-3.199h-10.63v4.458v-4.458l0.116-1.028l2.513-12.8v-0.116l-4.915-13.942
				l-1.143-0.799l-0.342-0.116l-19.429,2.516l19.429-2.516L483.24,225.696 M559.012,191.181l0.688,0.344l4.572,4.457h0.113
				l5.144,4.915l2.627,11.429l0.116,1.143l2.741,5.715v0.229l2.63,6.286l2.743-3.429v-0.229l1.257-1.714v-3.771v-1.372v-7.2l8-5.714
				l6.743-7.658v-0.343l1.601-1.714l-2.402-5.372l-0.571-0.799l-9.484-7.544h-12c-0.458,0.153-1.449,0.648-2.972,1.485
				L559.012,191.181 M526.557,159.409l-0.116,0.115l-4.342,5.371l0.685,1.943l4.229,4.343l2.857,4.229l0.344,1.143l3.656,5.485
				l1.83,1.487l12.114,6.514l6.857-9.715l-5.373-5.714l8-6.286h0.116l4-3.2l-2.402,0.343h-0.341l-4,0.8l-2.399-0.571l-1.831-1.714
				c-2.286-1.752-4.724-2.895-7.313-3.429l-5.029,2.057h-0.113l-3.315,1.372l-1.373-1.943l-1.484-0.799l-4.229-3.201
				L526.557,159.409 M643.586,128.666c-1.144-0.153-2.286,0-3.429,0.457l-10.286,0.115c-0.762,0-2.438-0.609-5.027-1.829
				l-5.486-2.515l-0.686,0.571l-7.314,3.201c-0.533,0.305-1.563,0.571-3.085,0.799l-14.744,2.515l8.114,7.771
				c0.609,0.229,2.59,1.563,5.942,4c3.658,2.21,7.849,3.734,12.571,4.572l14.857-1.486c1.144-0.076,2.706-0.838,4.688-2.286
				l5.829-3.885c0.685-0.458,1.257-1.143,1.714-2.058l3.314-12.228L643.586,128.666 M502.783,242.954l1.715,1.029h0.457
				l10.286,5.828v-0.457c1.448-2.666,2.552-4.458,3.314-5.371l-3.2-7.545l-23.773-2.514l4.915,13.942v0.116l2.743-2.172l0.342-0.114
				L502.783,242.954 M479.011,300.557l-4.8,5.37l0.571,6.059l1.144,1.37l9.143,5.601l2.63-0.229l9.828-9.599
				c1.064-0.915,1.636-1.679,1.714-2.286l0.458-1.714l-8.116-6.974l-0.342-0.455l-0.801,0.455l-11.429,3.545V300.557
				 M492.384,281.698l-1.029,1.027l-1.486,2.516l6.629,6.971l-5.257,5.487l0.342,0.455l8.116,6.974v-0.458l2.857-15.887l5.026-5.941
				l-0.571-0.344l-11.771-5.371L492.384,281.698 M493.984,260.783l-0.116,1.028h10.63l6.856-2.743l3.887-9.257l-10.286-5.828h-0.457
				l-1.715-1.029l-3.201,2.743l-0.342,0.114l-2.743,2.172L493.984,260.783 M477.525,282.498l-0.113-0.114l-13.26-5.257l2.402,12.572
				l6.971,12.228l0.458,1.486l0.228,2.514l4.8-5.37v-5.26v5.26v1.143l11.429-3.545l0.801-0.455l5.257-5.487l-6.629-6.971h-0.342
				l-10.516,1.257v1.601v5.714v-5.714L477.525,282.498 M416.267,208.324l-1.372-2.286l-0.799,8.916l12.228,1.371l-1.143-6.857
				l-0.228-0.342v-0.572l-5.258,0.572C418.4,209.201,417.258,208.934,416.267,208.324 M484.153,278.842l-0.342-0.344l-6.286,4
				l1.485,5.601v-1.601l10.516-1.257h0.342l1.486-2.516L484.153,278.842 M484.383,271.412v0.456l-1.143,5.373v0.341l0.571,0.916
				l0.342,0.344l7.201,3.884l1.029-1.027l2.856-4.571l4-4.344l-2.285-2.399l-0.458-0.114c-0.915-0.764-1.79-1.143-2.629-1.143
				l-5.371,1.37h-0.114L484.383,271.412 M481.64,253.582l-12.114-6.628l-6.399,7.887l0.114,1.026l2.285,7.429l-1.373,12.688v1.143
				l13.26,5.257l0.113,0.114l6.286-4l-0.571-0.916v-0.341l1.143-5.373v-0.456L481.64,253.582l-15.543,6.516L481.64,253.582
				 M483.24,215.981l0.686-14.742l-14.4-7.201v11.086l-1.143,3.2l-0.113,0.229l-2.744,7.771l5.257,8.229l1.371,0.115l10.974,1.028
				h0.113l1.143-0.8L483.24,215.981 M469.525,194.038l-8.113-1.485l-1.487,1.143l-0.571,0.343l-5.942,4.915l-1.601,1.028l-2.4,0.571
				l-0.8,2.286l-0.343,0.343l-3.086,7.429l6.285,4.229l14.059,1.485l2.744-7.771l0.113-0.229l1.143-3.2V194.038 M488.27,42.035
				l1.37-0.343l-0.915-4.8l-9.484-1.371h-0.229c-1.98,0-3.809,0.152-5.485,0.457c-2.439,1.143-4.685,1.829-6.743,2.057h-5.37
				l0.455,4.572l0.915,1.143l0.458,0.229c1.37,1.296,3.047,2.553,5.029,3.771l0.685,0.229l0.571,0.343l10.744,2.058h3.429
				l1.026-1.143l0.344-1.258c0-1.447,0.344-2.857,1.029-4.229C486.707,42.683,487.43,42.111,488.27,42.035 M538.099,37.463h0.114
				l9.601-0.914l12-6.171v-0.571l-9.143,1.371c-0.23,0.229-1.182,0.305-2.857,0.229l-7.087,1.143h-22.515l0.344,1.258l1.828,1.714
				l3.315,0.571l1.37,0.799c0.533,0.077,1.029,0.077,1.487,0l6.971,1.143L538.099,37.463 M613.529,41.807l4.571-2.4l1.257-5.715
				L600.5,36.549l0.915,1.714l1.143,1.143l2.286,0.571c2.594,0.729,4.649,1.223,6.17,1.485
				C612.107,41.692,612.946,41.807,613.529,41.807 M426.667,121.122c0.152,1.296,0.495,2.095,1.028,2.401l0.572,0.457
				c1.6,0.229,3.239,0.343,4.914,0.343l-1.714-7.771c-1.904-0.076-3.352,0.609-4.343,2.057L426.667,121.122 M432.038,110.036
				c0.153,1.372,0.42,2.324,0.8,2.857l2.628,2.63l0.571,2.17c0.611,1.981,0.725,3.124,0.344,3.429l-1.829,1.714l-0.457,0.914v4.229
				l0.114-0.114l8.458-1.829c0.305,0,0.571-0.305,0.799-0.914c0.293-0.41,0.445-0.829,0.458-1.257
				c0.076-0.105,0.114-0.22,0.114-0.343v-2.286c0-0.458-0.571-1.83-1.714-4.115l-5.371-5.143l2.857-3.313v-0.115l-2.857-3.086
				l-2.629,1.487C433.105,108.17,432.343,109.199,432.038,110.036 M288.95,53.692l-1.83-3.428l-1.372-1.372v-1.143l-1.371-1.143
				l-10.058-6.857h-0.571l2.286,6.857l-1.371,0.8l-10.058-0.571l-4.228,0.914l8,5.714l1.143,1.487l-0.915,2.742l-0.228,0.342
				l-1.143,2.515v0.914l7.885,4l4-4.914l3.2-2.857l2.286-1.372h0.229L288.95,53.692 M242.891,47.978l-0.228,0.115l-7.772,2.057
				l0.572,1.943h3.772l7.085,1.599l1.372,0.572l4.914,1.485l0.344,0.229h0.457c3.2,0.991,5.029,1.485,5.486,1.485l6.058-0.228
				l0.228-0.344l-7.429-6.286l-0.228-0.228l-13.487-2.629L242.891,47.978 M435.124,417.815l-15.657,5.257l322.979-0.571
				l-16.001-7.429c-4.035-1.601-8.571-3.161-13.599-4.686l-12.571-3.886l-50.173-2.63c-25.144-0.228-45.869,1.714-62.174,5.83
				c-11.656,4.342-18.896,6.628-21.715,6.857l-1.828-2.401l-9.257-8.342l-12.571-3.543c-2.361,0-4.23,0.19-5.601,0.571
				c-4.038,0.913-11.694,3.199-22.972,6.857l-12.458,2.741c-0.991,0.382-1.904,0.571-2.743,0.571
				c-4.42,1.067-8.269,1.831-11.543,2.286c-1.676,0.458-3.391,0.458-5.143,0H463.01L435.124,417.815 M526.44,275.526l-5.485,6.972
				l-1.372,5.601l3.772,6.743l3.085-4.571l1.372-3.315l1.144-8.686L526.44,275.526 M659.816,267.068l1.714,0.344v-1.143
				l-9.715-6.059l-10.743,1.601l0.571,0.342l8,3.772L659.816,267.068 M608.5,235.983l-0.799,1.257l5.026,6.743v0.114l1.944,2.856
				l11.429,10.744l13.601,2.513v-0.799l-1.259-2.285l-8.228-2.857l-1.371-1.029l-1.028-2.286l-4.23-3.429l-1.026-1.828l2.285-7.429
				l-5.486-3.429l-0.228-0.344l-3.772-2.513c-0.991-0.076-2.324,0.455-4,1.598L608.5,235.983 M669.417,245.24l0.113,0.457
				l2.743,5.144c0.531,0.228,1.104,0.342,1.715,0.342c0.686,0.037,1.408-0.038,2.17-0.229v-5.714l-8.001-2.743L669.417,245.24
				 M651.815,251.867l1.828,0.116l5.487-1.143l-6.857-9.144l-4,8.456l0.686,0.801L651.815,251.867 M648.729,234.496l-0.228-0.228
				l-3.429-5.714l-10.857,12.799l-1.143,6.286c0,0.458,0.304,0.764,0.915,0.915c0.607,0.304,1.179,0.455,1.714,0.455l4.686,1.715
				l2.056-0.342l5.373-11.658v-0.228C648.501,236.975,648.805,235.64,648.729,234.496 M689.645,271.412l-2.629,10.286l-9.485-7.545
				l-2.285-0.571c-1.449,1.067-3.734,1.831-6.857,2.286c-2.21,0.229-4.496,0.268-6.857,0.116l-2.857-0.458l-0.113,0.458
				l-5.144,9.143c-0.535,0.531-1.79,1.103-3.772,1.715h-0.571l-9.371,4l-1.028,7.313l-0.23,0.802l1.144,1.828l0.115,0.344
				l3.885,5.941c0.151,0.458,0.229,1.563,0.229,3.315v4.113l0.342,0.916c0.457,0.379,1.259,0.761,2.401,1.143l2.4,1.143h0.341
				l2.516,0.799l9.715-5.37c2.819-0.611,6.819-1.107,12-1.486l2.857,0.344l9.144,9.143v4.571l0.457,1.144l6.399-1.259l3.199,0.115
				l2.286,0.572c0.915,0,1.754-0.382,2.516-1.144c0.912-0.688,1.484-1.448,1.714-2.285l5.484-7.887l2.286-12.114l-4-9.143l-8-7.429
				l-4.8-13.029c0-0.458-0.304-0.838-0.915-1.144C691.473,271.641,690.636,271.412,689.645,271.412 M680.959,249.698l0.114,1.143
				l2.172,4.686l7.771,5.257l0.115,0.228l3.885,2.516c1.524,0.457,3.314,0.457,5.373,0l1.484-0.23l-6.286-9.484
				c-1.067-1.143-2.17-2.134-3.313-2.971l-2.63-1.143l-9.371-1.715l0.114,0.114L680.959,249.698 M326.321,408.102l-7.429,5.256
				l-10.628,10.059l31.544-2.743l-7.429-6.399l-1.83-2.857V407.3c0-0.762,0.115-1.484,0.343-2.17l8.916-9.259
				c-0.423,0.129-0.843,0.281-1.258,0.457c-2.832,1.128-5.574,3.186-8.229,6.172c-1.371,1.753-2.514,3.354-3.429,4.8
				L326.321,408.102 M145.403,80.893c-2.286,0-4-0.19-5.143-0.571l-8.229-5.486v10.057h2.515l1.143,0.229l5.715,3.2l1.258,0.229
				l2.742-1.143l1.829-1.714v-4.572L145.403,80.893 M618.101,49.692l-2.743,3.429l5.486,4.572h0.114l1.029,0.686l12.799-3.201
				l1.601-1.486l-6.399-5.143l-6.857-1.372c-0.724,0-1.524,0.191-2.402,0.572C619.929,48.207,619.054,48.854,618.101,49.692
				 M750.562,332.784c0.685-0.533,1.294-1.294,1.828-2.285c-0.382-4.114-0.915-6.666-1.601-7.656l-5.486-5.601l-0.229,0.457
				l-5.828,4.686l1.715,2.857l0.457,0.457l2.286,3.656v0.344l-1.029,0.572l-2.285,2.285l-2.173,1.715l-1.256,1.143l-1.144,2.857
				l-0.113,2.857l-0.571,0.799l-5.487,4.344c-1.295,1.295-2.438,2.817-3.429,4.571h2.286l4-1.714h0.458l4-1.601l7.429-10.286
				l2.056-1.257l2.516-2.058v-0.114L750.562,332.784 M280.035,423.416l-10.286-6.857l-3.656,2.972l-0.344,0.457l-4,3.429H280.035
				 M184.261,348.558l0.914,1.941c1.601,1.982,2.667,3.125,3.201,3.429c0.457,0.38,1.79,0.915,4,1.601l1.599,0.458l0.115,0.113
				l2.513,0.913v-7.884v7.884l4.229-0.455l0.115-0.344l6.857-5.715l1.143-2.058l0.571-2.056l0.228-1.715h-13.143v3.315v-3.315
				h-13.371L184.261,348.558 M193.404,330.271l-4.457,1.941l-1.487,1.029l-1.942,2.399c-0.991,2.59-1.753,5.067-2.286,7.429v1.601
				h13.371v-14.857L193.404,330.271 M208.033,337.928c-0.914-2.059-1.562-3.277-1.942-3.656l-0.115-0.344l-2.515-1.942l-2.628-1.486
				l-4.229-0.686v14.857h13.143l-0.228-3.658L208.033,337.928z"/>
		</g>
	</g>
	<g>
		
			<path id="Layer11_0_MEMBER_1_MEMBER_0_1_STROKES" fill="none" stroke="#000000" stroke-linecap="round" stroke-linejoin="round" d="
			M613.529,41.807l4.571-2.4l1.257-5.715L600.5,36.549l0.915,1.714l1.143,1.143l2.286,0.571c2.594,0.729,4.67,1.242,6.228,1.543
			C612.125,41.711,612.946,41.807,613.529,41.807z M629.987,48.549l-6.857-1.372c-0.724,0-1.505,0.21-2.344,0.63
			c-0.84,0.418-1.732,1.047-2.686,1.885l-2.743,3.429l5.486,4.572h0.114l1.029,0.686l12.799-3.201l1.601-1.486L629.987,48.549z
			 M685.531,128.095v-8.687l-1.601-1.143l-4.916-2.857l5.373-6.515c0.609,0,1.105-0.189,1.484-0.571
			c0.382-0.381,0.571-0.876,0.571-1.486l3.201-3.657l20.345-1.714l13.143-5.143c3.047-0.609,5.219-0.609,6.514,0l4.571,2.857
			l1.144,0.915l1.941-0.687l0.23-0.229l6.056-2.857h0.23l5.484-2.857l1.372-1.486c-0.229-1.676-0.685-3.009-1.372-4l-0.342-0.229
			l0.913-0.343l5.944-3.314l2.743-0.115l8.228,2.057l2.63-3.771l-6.63-2.515l-0.113-0.228c-5.409-2.744-10.364-5.449-14.857-8.115
			c-7.163,1.448-13.487,2.057-18.972,1.83l-1.259-0.344h-0.913l-3.315-0.343l-6.513,1.485l-0.458-1.143
			c-1.524-3.047-3.239-4.381-5.143-4l-1.257,0.229c-1.831,0.38-3.849,0.229-6.059-0.457l-13.828-4.115l-7.087,3.771l-7.086,1.372
			l-3.656-2.171c-1.981,0.228-3.658-0.153-5.029-1.143l-2.856-0.572h-0.458l-2.514-0.344c-2.438-0.228-4.571-0.799-6.401-1.714
			l-7.199-4c-2.363-1.143-4.114-1.714-5.257-1.714l-2.401,0.344l-9.715,3.429c-1.522,0.457-3.161,0.457-4.913,0l-9.601-4.344
			l-3.542-2.286c-0.762-0.305-1.869-0.572-3.315-0.799l-13.828,3.085l-9.715,4.229l-8.571,6.286c-0.533,0.229-1.677,0.229-3.429,0
			l-6.857-1.028l-10.857,5.028l-1.373,0.343l-6.686-2.228l-1.198-0.401l-2.743,3.771l-0.686,0.8l-1.486,1.143l-8.686,2.628
			l-7.543,0.8h-0.458l-5.372,0.343c-0.272,0.124-0.559,0.277-0.857,0.458 M516.842,81.121l-10.744,13.486l6.744,8.572l-2.286,0.229
			h-0.458l-8.457,1.485l-7.201,3.086l3.087,7.544c0.382,0.837,1.37,2.057,2.971,3.656l7.085,6.286
			c1.219,0.762,2.438,1.714,3.659,2.857l6.857,4l2.856,2.286v6.857l8.001-2.057h0.113l6.743-1.943l2.744,12.344l10.741-10.972
			 M547.813,36.549l12-6.171v-0.571l-9.143,1.371c-0.23,0.229-1.182,0.305-2.857,0.229l-7.087,1.143h-22.515l0.344,1.258
			l1.828,1.714l3.315,0.571l1.37,0.799c0.533,0.077,1.029,0.077,1.487,0l6.971,1.143l4.571-0.571h0.114L547.813,36.549z
			 M546.557,69.692l-9.601-1.028l-1.601-0.687l-0.915-0.8v-7.085l3.658-3.772l0.458-0.342l2.399-2.515v-0.228l1.029-1.143
			l0.571-0.344l18.857-1.371l-10.286,4.799l-10.63,8l7.257,6.916 M516.842,81.121l-16.345-9.943c0-0.534-0.228-0.837-0.685-0.915
			c-0.609-0.305-1.182-0.456-1.715-0.456l-1.601-0.687h-13.942l-5.029,6.057l5.715,2.629c0.382,0.534,0.686,1.637,0.913,3.313
			l0.116,1.486l-1.029,1.372l-8.458,8.914l0.228,0.229l8.23,6.972v0.457l1.257,5.486l1.029,2.857v0.572l-0.571,2.286l-1.144,3.086
			l3.199,8.687v0.457l-3.656,11.2l-0.571,1.143l-3.772,4l-0.342,0.229l-2.286,2.401l5.601,5.942l1.257-1.714 M518.726,79.636
			l-0.114,0.057c-0.558,0.378-1.149,0.855-1.77,1.428 M684.274,130.837l-1.259,0.342l-4.001,0.572l-2.856-0.343l-9.485-2.515
			l-7.429-8.799l-3.429-0.687h-4l-1.257,6.973l-3.314,12.228c-0.457,0.915-1.029,1.6-1.714,2.058l-5.829,3.885
			c-1.981,1.448-3.544,2.21-4.688,2.286l-14.857,1.486c-4.723-0.837-8.913-2.362-12.571-4.572c-3.353-2.438-5.333-3.771-5.942-4
			l-8.114-7.771l-8,4l-9.257-2.742l-0.116,14.171l-8.342-1.6l-6.399-2.286l-0.458-0.115l-9.714-3.658 M547.813,190.038
			l-12.114-6.514l-1.83-1.487l-3.656-5.485l-0.344-1.143l-2.857-4.229l-4.229-4.343l-0.685-1.943l4.342-5.371l0.116-0.115
			l1.026-1.372l4.229,3.201l1.484,0.799l5.26-12v-0.228 M533.297,162.037l1.373,1.943l3.315-1.372h0.113l5.029-2.057
			c2.589,0.534,5.026,1.676,7.313,3.429l1.831,1.714l2.399,0.571l4-0.8h0.341l2.402-0.343l-4,3.2h-0.116l-8,6.286l5.373,5.714
			l-6.857,9.715l6.857-2.857l4.341,4l11.545-10.857c1.522-0.837,2.514-1.333,2.972-1.485h12l9.484,7.544l0.571,0.799l2.402,5.372
			l3.313,6.057l7.658,8.229c0.838,1.067,1.561,2.515,2.173,4.343l1.026,1.143l7.201,3.086c2.134,0.458,3.962,0.571,5.486,0.343
			l2.741-0.572l1.259-0.799l-0.457-0.687l-0.802-2.286v-0.229l-2.741-7.429l2.286-0.914l0.455-0.457l21.374-10.629l2.743-2.857
			c0.991-0.914,1.408-2.248,1.257-4l-1.144-7.429l-1.028-0.914l-0.229-0.457l-1.486-1.487l0.344-0.914l1.143-8.229v-0.343
			l-1.143-3.657l-0.344-0.571l-1.143-4.228l2.743-1.486c1.448-0.534,2.743-0.799,3.886-0.799l6.514,2.171l1.029-0.457l15.429-13.143
			l1.715-2.972c0.609,0,1.219-1.219,1.828-3.658l3.201-5.371v-0.115h0.113l1.144-0.229v-1.143 M492.497,158.037l8,3.658
			c0.915,0.686,1.601,1.943,2.059,3.771l0.799,5.143l-6,6.458l5.085,4.971l0.344,0.458l7.314,10.058
			c1.065,2.743,1.98,4.762,2.744,6.057l2.399,5.487l0.114,0.457l3.656,7.771l0.688,1.143l5.143-1.37l16.114-6.857l2.857-6.286
			l0.113-0.344l3.887-8.571 M497.354,177.066l-0.514-0.514l-0.344-0.229l-12.114-4.343l1.715,4.914l0.913,16.229l-0.342,1.714
			l-2.743,6.401l-0.686,14.742l1.143,8.915l-1.143,0.8l6.857,7.313l1.143-0.228l0.342,1.143l23.773,2.514l7.771-7.313l0.229-0.571
			l-3.772-6.859l-3.313-2.514l-0.915-0.343l-3.657-2.742l-1.601,9.6h-8l-2.857-12.229l10.572-7.028l-0.971-5.543l-5.831-10.286
			l-0.341-1.485l0.113-6.629 M559.012,191.181l0.688,0.344l4.572,4.457h0.113l5.144,4.915l2.627,11.429l0.116,1.143l2.741,5.715
			v0.229l2.63,6.286l2.743-3.429v-0.229l1.257-1.714v-3.771 M581.643,215.181v-7.2l8-5.714l6.743-7.658v-0.343l1.601-1.714
			 M593.528,131.979l14.744-2.515c1.522-0.228,2.552-0.494,3.085-0.799l7.314-3.201l0.686-0.571l5.486,2.515
			c2.59,1.22,4.266,1.829,5.027,1.829l10.286-0.115c1.143-0.457,2.285-0.609,3.429-0.457l6.973-2.286 M234.949,50.149l7.714-2.057
			l0.228-0.115l1.143-0.229l13.487,2.629l0.228,0.228l7.429,6.286 M264.95,57.236l-6.058,0.228c-0.457,0-2.286-0.495-5.486-1.485
			h-0.457l-0.344-0.229l-4.914-1.485l-1.372-0.572l-7.085-1.599h-3.772 M233.234,50.606l1.714-0.457 M320.379,303.297l0.571-2.285
			c0.305-2.134,0.457-4.531,0.457-7.199l-0.114-2.915l-0.115-3.942l-3.085-4.457l-5.143-7.429l-0.344-0.344l-8.799-14.742v-10.285
			c0.685-3.811,1.599-7.239,2.742-10.286l1.485-2.974l-2.857-6.17c-0.152-0.457-0.647-1.066-1.486-1.83
			c-0.838-0.837-1.752-1.562-2.742-2.171l-5.714-4l-2.857-3.429c-0.195-0.282-0.385-0.549-0.572-0.8
			c-1.393-1.976-2.459-3.232-3.201-3.771l-9.486-3.086l-5.028-2.628l-1.714-1.714h-0.115l-6.515-5.372l-8.228-4.914
			c-2.286-1.448-3.733-2.477-4.344-3.086l-5.714-11.771c-1.219-1.829-2.438-3.352-3.656-4.572l-9.487-8.8l-0.571-1.486l-1.942-8.8
			l-4-8.914c-0.077-1.295-0.077-2.324,0-3.086l1.028-9.715l-1.372-2.857l-3.085-6.628v-5.715l-6.058-5.028l-1.143-1.829
			l-0.572-2.743l-3.429-5.258l-0.228-0.229l-2.857-2.286h-4l-1.714-0.342l-4.344-3.086l-19.657,0.572l-9.829,11.201l-1.028-2.629
			l-4.344-4.915l-4.228-2.742c-0.305-0.229-0.876-1.601-1.714-4.115l-0.344-0.572l-0.799-2.286l0.799-0.8l5.372-4.571v-0.228h-7.658
			l-1.143-0.115v-1.943l0.915-2.513c4.647-1.143,7.009-1.83,7.085-2.058l-0.571-0.343l-6.514-5.372l2.514-4l8.344-5.715
			c1.295-0.609,2.514-0.799,3.656-0.571l10.857,3.429c2.515,0.382,5.753,0.571,9.714,0.571c2.363,0.229,4.344,0.534,5.943,0.916
			l2.628,2.17h10.857l2.058-0.229l4-3.429c1.066-0.761,2.019-1.143,2.857-1.143l3.656,1.372l2.857,0.572h1.143
			c1.448,0.305,2.896,0.305,4.344,0h2.171l4.115,2.057l1.714,2.058v-2.972l-2.857-7.313l-0.686-1.258l-0.457,0.115l-5.487,3.314
			c-0.838,0.229-2.171-0.229-4-1.372l-1.143-1.714l5.714-4.799l2.058-1.258l1.942-0.8c3.886,0.838,7.887,2.058,12,3.657
			c0.305,0.077,1.905,0.648,4.8,1.714l3.429-0.8l4.687-1.714l2.513,4.916c1.905,3.276,3.429,5.143,4.572,5.599l2.857,0.915v0.229
			l-7.771,3.429H247.12v2.057h13.829l10.857,2.857l3.656-7.656l4.916-5.714l3.085,3.656c2.21,2.743,4,4.344,5.372,4.8
			c0.687,0.458,1.639,0.762,2.857,0.914c0.991,0.229,1.79,0.153,2.401-0.228l1.143-0.687v-1.714l-6.629-7.086l-0.343-0.228v-4
			l0.343-1.143l5.487-2.972h1.599l0.914,0.914l0.344,0.229l1.028,1.143l12.572,0.571l15.2,9.486
			c0.382,0.687,0.571,1.638,0.571,2.857v1.714l9.487,7.086l-2.63,4.914h-0.343l-5.028-3.2l-1.829,0.686v1.028l4.571,3.428
			c0.991,0.991,1.601,1.752,1.83,2.286v4l-0.344,1.258h-3.085c-4.191,0-6.973-0.419-8.344-1.258l-4.914-6.857h-8.229l0.229-2.857
			h7.2l0.8-2.286c0.762-1.599,0.953-2.819,0.571-3.657l-7.086-6.286c-1.143-0.761-2.171-1.257-3.085-1.486l-6.857,2.857l5.942,5.485
			v3.429h-5.942v1.943l5.028,4.343l2.401,4l-2.401,4c-1.904-0.152-3.771-0.534-5.6-1.143l-3.772-3.2l-1.942-7.885l-1.487,3.085
			l-0.914,1.143l-2.514,2.058l-3.429,1.714l-0.572,0.228l-2.628,1.372l-1.028,1.485v5.487 M280.378,103.408l4.228,2.4l2.857,2.514
			l5.372,5.943c0.687,0.38,1.943,0.571,3.771,0.571l1.487,0.115l2.513,2.171l2.63,0.343l4-3.2l2.857-3.885l0.457-0.344l-0.457-2.514
			l-2.972-4.344h0.115l1.714-7.429v-0.228h5.143l3.656,1.371c0.289,0.156,0.594,0.328,0.915,0.514l0.057,0.057
			c0.748,0.462,1.567,1.034,2.457,1.714l1.714,1.372v5.486h2.63l1.714-1.486l0.571-0.229l3.085-0.572
			c1.676,0.229,3.01,0.877,4,1.943l4.916,7.2l0.228,0.229l4.915,6.628l1.6,2.857h0.115l4.572,11.086l-0.571,2.401
			c-0.763,1.904-1.639,3.313-2.63,4.228c-4.114,1.601-6.857,2.477-8.228,2.63l-2.63,0.799c-2.742,0.916-5.219,1.22-7.429,0.916
			l-2.857-0.687l-1.714-0.8l-2.514,0.229l-0.344,0.914l-1.371,5.943l-0.915,1.714l-1.143,0.914l-1.942,0.572l-4.915,0.915
			l0.229,8.228c0.153,1.829,0.076,2.781-0.229,2.857l-9.942,5.143l-0.115,1.714l2.857,5.943v4c-0.457,3.2-0.8,5.029-1.028,5.485
			h-0.115l-1.943-1.485c-14.247,5.029-22.934,10.857-26.058,17.486l9.258,0.8l3.656-4.229l0.344-0.342h1.143l2.514,4.687l4.571,2.17
			l0.916,1.714l0.457,9.715h0.686l6.514,3.543l2.058,0.457l2.286-0.229l4-2.286l4.228-1.485h8.8l10.057,3.543l0.344,0.228
			l0.799,0.916l0.8,0.456l4.914,4.687l2.515,1.484l6.972,2.857l3.085,6.974l6.286,4.571l1.143,1.143l1.487,0.8l5.714,1.37
			c0.99,0.151,1.942,0.42,2.857,0.802l6.171,6.285l3.2,5.029l-0.343,1.257v0.114l-1.6,4.228l-4.915,6.857l-0.228,0.229
			c-0.305,1.065-0.534,2.779-0.687,5.144v4.457c0,2.362-0.457,4.114-1.372,5.257l-2.857,4.342l-0.571,0.688l-10.857,4.571
			l-2.286,11.313l-2.857,3.658l-0.571,0.458l-2.286,2.169l-2.628,3.545l-5.143,5.942l-0.457,0.344l-1.143,1.37v0.229l-2.401,2.973
			l-0.456,0.228l-0.572,1.029c-0.915,0.913-1.905,1.636-2.972,2.172l-3.885,1.942v5.486c-0.458,0.991-1.067,1.79-1.83,2.399
			l-0.457,0.458l-2.286,1.598v0.802l2.514,6.743l-0.343,1.144l-4.457,4.799l-1.143,1.486l5.942,11.086
			c0.838,2.058,0.838,3.731,0,5.028l-1.371,2.172l-6.286-4.115l-1.714-1.599l-1.143-1.601h-0.115l-6.515-8.114l-1.714-6.63
			c0-0.151,0-0.763,0-1.828l1.487-12.571v-10.399 M312.951,328.557v-2.973l3.885-9.599l0.115-0.571l2.857-9.715v-0.688l0.571-1.715
			l-0.571,2.402l1.143,14.514v1.37l-2.629,20.345l-2.628,8.228l-0.229,0.344l-1.143,4c0.153,0.686,0.724,1.942,1.714,3.772
			l0.915,1.828v0.114l4,6.63l0.457,0.228l8.915,7.886 M390.895,24.092l-6.857,0.228c-1.981,0-3.238-0.076-3.771-0.228h-14.742
			l-33.715,6.857c-0.564-0.518-1.06-0.975-1.486-1.372c-0.057-0.06-0.114-0.117-0.171-0.172c-0.885-0.754-1.476-1.231-1.771-1.429
			l-1.714-1.143l-18.058-1.372l-19.657,4.229l-12.572,5.486v0.229l2.742,2.628l0.343,0.229l0.915,1.143l13.143,5.485l0.057,0.229
			l0.515,1.485v4l0.571,1.487l7.429,3.885l10.857-11.086l2.286-5.485c2.514-1.448,4.419-2.4,5.714-2.857l4.228-1.372l4.915,5.143
			c-3.962,0.153-7.962,1.295-12,3.429l-1.143,1.143l6.743,5.487l8.115,0.799c2.971,0.458,5.143,0.953,6.514,1.486l5.714,3.314
			l4,12.343l6.857,4.229l-3.085,7.2l-0.115,0.344c-0.152,0.305-0.229,0.952-0.229,1.942c0,1.296,0.077,2.058,0.229,2.286l0.342,0.8
			l5.487,10.628l9.371,7.429l8-16.915l8-4.571l0.344-0.457l22.857-11.544l-2.629-4.229l1.143-1.714l0.229-0.571l4-5.942
			l1.258-13.715h-1.486l-2.286-0.687l1.143-2.17l0.571-0.344l4.572-3.429l0.229-0.343l4.914-5.143l-0.799-0.8L390.895,24.092z
			 M289.007,53.749l0.971-0.628l-0.8-1.028l-0.571-0.344l-1.486-1.485 M289.007,53.749l-4.172,2.571h-0.229l-2.286,1.372l-3.2,2.857
			l-4,4.914l-7.885-4v-0.914l1.143-2.515l0.228-0.342l0.915-2.742l-1.143-1.487l-8-5.714l4.228-0.914l10.058,0.571l1.371-0.8
			l-2.286-6.857h0.571l10.058,6.857l1.371,1.143 M287.121,50.264l-1.372-1.372 M132.031,74.835l8.229,5.486
			c1.143,0.381,2.857,0.571,5.143,0.571l1.829,0.229v4.572l-1.829,1.714l-2.742,1.143l-1.258-0.229l-5.715-3.2l-1.143-0.229h-2.515
			V74.835z M326.321,142.667l-2.286-4.973l-22.857,9.715v-7.429l-5.371-3.658c-0.607-0.304-1.218-0.551-1.83-0.742
			c-0.454-0.168-0.912-0.301-1.372-0.4h-5.371c-1.143-0.228-2.286-0.799-3.429-1.714l-2.629-2.514l-3.429-0.344h-0.228
			c-11.277,0.153-21.03,0.42-29.259,0.8l-10.515,0.914h-0.571l-9.715,1.143 M200.033,100.321V73.692 M410.096,43.521v-1.258
			 M486.098,43.749c0.609-1.066,1.332-1.638,2.172-1.714l1.37-0.343l-0.915-4.8l-9.484-1.371h-0.229
			c-1.98,0-3.809,0.152-5.485,0.457c-2.439,1.143-4.685,1.829-6.743,2.057h-5.37l0.455,4.572l0.915,1.143l0.458,0.229
			c1.37,1.296,3.047,2.553,5.029,3.771l0.685,0.229l0.571,0.343l10.744,2.058h3.429l1.026-1.143l0.344-1.258
			C485.068,46.53,485.412,45.121,486.098,43.749z M482.555,69.121l-12.457,8.115l-1.715,2.513h-0.113l-7.43,11.429l-4.915,0.915
			l-4,4l0.228,5.486 M452.097,101.522l2.571,4.514l1.715,0.229l5.484-2.857h0.116l1.828,4.343l4,3.772l1.714-2.629v-0.228
			l2.857-5.258l0.686-2.286c0-1.676,0.151-3.962,0.457-6.857l1.257-1.372 M326.893,143.98l-0.572-1.313 M483.812,114.836l-7.314-0.8
			l-4.114,2.629l-1.601,1.371h-10.63l-0.341,0.229l-6.4,5.258 M455.01,124.666h-1.599h-2.172c-1.676,0.228-3.201,0.952-4.571,2.171
			l-1.486,1.714l-10.629,3.2l0.914,1.943l4.344,4.915l1.714,1.372c1.524,1.523,2.362,2.666,2.514,3.429v1.143l-10.857-0.457
			l-3.2,0.457h-0.229l-4.228,0.343l2.17,4v3.086l-1.028,4.115l0.228,1.028l4.229,4.115l0.572,0.228h9.485l0.344-0.228l3.657-8.344
			l5.372-6.513l0.343-0.344l0.343-0.572l-2.058,0.229 M442.324,117.122c1.143,2.286,1.714,3.658,1.714,4.115v2.286
			c0,0.123-0.019,0.257-0.057,0.399c-0.05,0.391-0.221,0.791-0.514,1.2c-0.228,0.609-0.495,0.914-0.799,0.914l-8.401,1.886
			l-0.171,0.057v-4.229l0.457-0.914l1.829-1.714c0.381-0.305,0.267-1.447-0.344-3.429l-0.571-2.17l-2.628-2.63
			c-0.38-0.533-0.647-1.485-0.8-2.857c0.305-0.837,1.067-1.866,2.286-3.085l2.629-1.487l2.857,3.086v0.115l-2.857,3.313
			L442.324,117.122z M431.467,116.551c-1.904-0.076-3.352,0.609-4.343,2.057l-0.457,2.515c0.152,1.296,0.495,2.095,1.028,2.401
			l0.572,0.457c1.6,0.229,3.239,0.343,4.914,0.343L431.467,116.551z M441.639,164.323l-12.458,1.943 M427.695,178.038l1.486,9.143
			l7.201,3.086c1.6,0.914,2.934,1.867,4,2.857l6.857,6.857l1.942,0.571h0.229l2.4-0.571l1.601-1.028l5.942-4.915l0.571-0.343
			l1.487-1.143l-1.26-15.086l-3.428-10.629l-0.456-1.372l-11.087-1.714l-3.543,0.572 M435.239,230.668l-2.629,1.199
			c-1.371,0.611-2.514,0.611-3.429,0l-6.857-6.171l-5.371-7.086l-0.915-0.914v-0.229l-1.714-2.286l-0.228-0.228l0.857-8.857
			l-0.401-0.629l-0.229-1.371l2.629-16.916l7.885-6.628l0.115-0.229l2.742-2.286l-1.372-8.799 M481.983,148.894h0.114l1.143,1.372
			 M451.239,145.465l7.199-0.342c0.458,0,1.448,0.229,2.974,0.686l2.399,1.6l0.341,0.342l5.373,3.658h9.485l0.344,0.571l2.285-2.857
			l0.228-0.229h0.116 M491.24,158.037h-8l-3.886-6.057 M484.383,171.98l-10.285,4.115c-0.534,0.228-1.525-0.077-2.972-0.915
			l-9.83-5.143l-4.571-3.2 M461.412,192.553l8.113,1.485l14.4,7.201 M469.525,194.038v11.086l-1.143,3.2l-0.113,0.229l-2.744,7.771
			l5.257,8.229l1.371,0.115l10.974,1.028h0.113 M431.696,191.181l1.485,16.801l-8.228,0.571v0.572l0.228,0.342l1.143,6.857
			l5.372-0.228c2.514,0,4.342-0.229,5.485-0.687l0.229-0.229l7.2-4l0.572-0.571l3.086-7.429l0.343-0.343l0.8-2.286 M465.525,216.324
			l-14.059-1.485l-7.199,8.571l-0.229,0.343l-4.228,4.802l-4.571,2.113 M435.811,231.867l1.371-0.455l14.286,1.37l1.601,1.714
			l6.857,10.63l0.228,0.114l0.802-6.399v-0.116l0.342-1.371v-0.113l0.116-1.257l1.143-2.286l0.455-0.571l9.144-8.458
			 M463.01,233.126l5.944,2.286l0.686,1.714l1.143,8.114l-1.257,1.714l12.114,6.628l2.743,17.83l4-0.915h0.114l5.371-1.37v-1.486
			 M519.583,221.696l13.373-4.229l-9.715,19.773l-4.686,6.743c-0.763,0.913-1.866,2.705-3.314,5.371v0.457l-3.887,9.257v0.344
			l0.686,7.942l0.802,9.772l-5.26,5.715l-5.026,5.941l-2.857,15.887v0.458l-0.458,1.714c-0.078,0.607-0.649,1.371-1.714,2.286
			l-9.828,9.599l-2.63,0.229l-9.143-5.601l-1.144-1.37l-0.571-6.001l-0.228-2.571l-0.458-1.486l-6.971-12.228l-2.402-12.572v-1.143
			l1.373-12.688l-2.285-7.429l-0.114-1.026l-0.344-0.571l-1.257-4.571h-0.113l-1.26-4.458 M490.098,233.01l0.342,0.116l1.143,0.799
			l4.915,13.942v0.116l2.743-2.172l0.342-0.114l3.201-2.743l1.715,1.029h0.457l10.286,5.828 M470.669,235.525l19.429-2.516
			 M424.953,208.553l-5.258,0.572c-1.295,0.077-2.438-0.191-3.429-0.8l-1.313-2.228 M414.096,214.954l12.228,1.371 M493.868,266.27
			v-4.458l0.116-1.028l2.513-12.8 M464.152,277.127l13.26,5.257l0.113,0.114l6.286-4l-0.571-0.916v-0.341l1.143-5.373v-0.456
			 M483.812,278.498l0.342,0.344l7.201,3.884l1.029-1.027l2.856-4.571l4-4.344l-2.285-2.399l-0.458-0.114
			c-0.915-0.764-1.79-1.143-2.629-1.143 M477.525,282.498l1.485,5.601v-1.601l10.516-1.257h0.342l1.486-2.516 M479.011,288.099
			v5.714 M499.698,305.128l-8.116-6.974l-0.342-0.455l-0.801,0.455l-11.429,3.545v-1.143l-4.8,5.428 M479.011,295.297v5.26
			 M469.525,246.954l-6.399,7.887 M481.64,253.582l-15.543,6.516 M451.467,214.839l-6.285-4.229 M356.608,239.412l-0.571-0.571
			l-2.057-1.601l-2.171,0.113l-6.286,0.915l-2.857-0.115l-7.429-1.485l-4.687,5.829l-6.857,4l-1.372,5.486l-6.628,9.828l7.544,7.199
			l5.714-3.198l6.286,8.913l1.371,1.259l8.8,5.143l-2.742,3.085v0.344l-5.829,6.741l-0.229,0.116h0.229l4.914-1.486l7.086,13.486
			l0.572,2.399v2.972v8.915 M308.035,236.438l7.658-13.257l11.429-4.914 M322.321,251.983h-0.228l-6.401-8.116l-0.571,0.116
			l-7.658,4l-3.656,12 M330.55,242.497l-6.857-6.972l-8,8.342 M335.237,236.668l4.572-3.658v-7.313 M318.094,282.498h2.857
			l0.228-0.8l2.058-12.688 M321.293,290.897l6.515,2.802l7.429-2.059l-7.429-5.828l-0.115-0.229l-4.801-3.085h-1.942
			 M335.237,291.641l0.799,0.458l0.571-0.686L335.237,291.641z M349.408,308.784l-6.743,2.857v0.344l1.143,12 M318.321,341.928
			l-1.942-9.257v-0.114l-0.572-2.743l-0.115-0.114l-2.515-4l-0.228-0.115 M308.264,423.416l10.628-10.059l7.429-5.256l0.572-0.802
			c0.915-1.446,2.058-3.047,3.429-4.8c2.655-2.986,5.397-5.044,8.229-6.172c0.415-0.176,0.834-0.328,1.258-0.457l-8.916,9.259
			c-0.228,0.686-0.343,1.408-0.343,2.17v4.116l1.83,2.857l7.429,6.399 M742.445,422.501l-16.001-7.429
			c-4.035-1.601-8.571-3.161-13.599-4.686l-12.571-3.886l-50.173-2.63c-25.144-0.228-45.869,1.714-62.174,5.83
			c-11.656,4.342-18.896,6.628-21.715,6.857l-1.828-2.401l-9.257-8.342l-12.571-3.543c-2.361,0-4.23,0.19-5.601,0.571
			c-4.038,0.913-11.694,3.199-22.972,6.857l-12.458,2.741c-0.991,0.382-1.904,0.571-2.743,0.571
			c-4.42,1.067-8.269,1.831-11.543,2.286c-1.676,0.458-3.391,0.458-5.143,0H463.01l-27.886,2.516l-15.657,5.257 M742.445,422.501
			h3.658c1.677,0.228,3.429,0.228,5.257,0 M298.55,218.268l-6.743-0.229 M183.233,344.671v-1.601
			c0.532-2.361,1.294-4.839,2.286-7.429l1.942-2.399l1.487-1.029l4.457-1.941l3.2-0.458l4.229,0.686l2.628,1.486l2.515,1.942
			l0.115,0.344c0.381,0.379,1.028,1.598,1.942,3.656l1.486,3.085l0.228,3.658h1.715 M209.747,344.671l-0.228,1.715l-0.571,2.056
			l-1.143,2.058l-6.857,5.715l-0.115,0.344l-4.229,0.455l-2.513-0.913l-0.115-0.113l-1.599-0.458c-2.21-0.686-3.543-1.221-4-1.601
			c-0.534-0.304-1.601-1.446-3.201-3.429l-0.914-1.941l-1.028-3.887h-1.487 M196.604,347.986v-3.315h-13.371 M196.604,357.013
			v-7.884 M196.604,329.813v14.857h13.143 M280.035,423.416l0.229,0.114l2.4,1.828 M280.035,423.416h-18.286l4-3.429l0.344-0.457
			l3.656-2.972L280.035,423.416z M691.016,260.783l0.115,0.228l3.885,2.516c1.524,0.457,3.314,0.457,5.373,0l1.484-0.23
			l-6.286-9.484c-1.067-1.143-2.17-2.134-3.313-2.971l-2.63-1.143l-9.371-1.715l0.114,0.114l0.571,1.601l0.114,1.143l2.172,4.686
			L691.016,260.783z M687.016,281.698l2.629-10.286c0.991,0,1.828,0.229,2.514,0.686c0.611,0.306,0.915,0.686,0.915,1.144
			l4.8,13.029l8,7.429l4,9.143l-2.286,12.114l-5.484,7.887c-0.229,0.837-0.802,1.598-1.714,2.285
			c-0.762,0.762-1.601,1.144-2.516,1.144l-2.286-0.572l-3.199-0.115l-6.399,1.259l-0.457-1.144v-4.571l-9.144-9.143l-2.857-0.344
			c-5.181,0.379-9.181,0.875-12,1.486l-9.715,5.37l-2.516-0.799h-0.341l-2.4-1.143c-1.143-0.382-1.944-0.764-2.401-1.143
			l-0.342-0.916v-4.113c0-1.753-0.078-2.857-0.229-3.315l-3.885-5.941l-0.115-0.344l-1.144-1.828l0.23-0.802l1.028-7.313l9.371-4
			h0.571c1.982-0.612,3.237-1.184,3.772-1.715l5.144-9.143l0.113-0.458l2.857,0.458c2.361,0.151,4.647,0.113,6.857-0.116
			c3.123-0.455,5.408-1.219,6.857-2.286l2.285,0.571L687.016,281.698z M738.217,334.271l2.173-1.715l2.285-2.285l1.029-0.572v-0.344
			l-2.286-3.656l-0.457-0.457l-1.715-2.857l5.828-4.686l0.229-0.457l5.486,5.601c0.686,0.99,1.219,3.542,1.601,7.656
			c-0.534,0.991-1.144,1.752-1.828,2.285l-1.601,1.029v0.114l-2.516,2.058l-2.056,1.257l-7.429,10.286l-4,1.601h-0.458l-4,1.714
			h-2.286c0.991-1.754,2.134-3.276,3.429-4.571l5.487-4.344l0.571-0.799l0.113-2.857l1.144-2.857 M660.787,220.782l0.743,6.744
			v4.342l-0.229,0.688l-7.086-10.516c-0.091-0.127-0.188-0.261-0.285-0.399c-0.177-0.218-0.366-0.446-0.571-0.686
			c-0.13-0.145-0.264-0.298-0.399-0.458c-0.663-0.676-1.465-1.419-2.4-2.229l-0.571-0.457c-1.219-1.22-1.83-2.096-1.83-2.63
			l2.401-11.429l8.114,6.857l1.715,7.086 M660.787,219.239l0.285,1.2 M660.787,220.782l-0.399-3.086 M634.215,241.354l10.857-12.799
			l3.486,5.714l0.17,0.228c0.076,1.144-0.228,2.479-0.913,4.001v0.228l-5.373,11.658l-2.056,0.342l-4.686-1.715
			c-0.535,0-1.106-0.151-1.714-0.455c-0.611-0.151-0.915-0.457-0.915-0.915L634.215,241.354z M648.273,250.153l4-8.456l6.857,9.144
			l-5.487,1.143l-1.828-0.116l-2.856-0.913L648.273,250.153z M669.53,245.697l-0.113-0.457l-1.26-2.743l8.001,2.743v5.714
			c-0.762,0.19-1.465,0.286-2.114,0.286c-0.647-0.038-1.239-0.172-1.771-0.399L669.53,245.697z M611.357,233.581
			c1.676-1.143,3.009-1.674,4-1.598l3.772,2.513l0.228,0.344l5.486,3.429l-2.285,7.429l1.026,1.828l4.23,3.429l1.028,2.286
			l1.371,1.029l8.228,2.857l1.259,2.285v0.799l-13.601-2.513l-11.429-10.744l-1.944-2.856v-0.114l-5.026-6.743l0.799-1.257
			L611.357,233.581z M659.816,267.068l1.714,0.344v-1.143l-9.715-6.059l-10.743,1.601l0.571,0.342l8,3.772L659.816,267.068z
			 M509.813,206.439l0.285,1.657l0.114,0.228l1.486,7.657v0.115 M518.556,243.983l-3.2-7.545 M519.583,288.099l3.772,6.743
			l3.085-4.571l1.372-3.315l1.144-8.686l-2.516-2.743l-5.485,6.972L519.583,288.099z M511.354,259.068l-6.856,2.743v3.199
			 M504.498,266.27v1.143l7.542-0.058 M504.498,267.412l-5.258,5.371 M507.582,282.842l-0.571-0.344l-11.771-5.371 M491.24,297.699
			l5.257-5.487l-6.629-6.971 M504.498,261.812h-10.63"/>
	</g>
	<g>
		
			<path id="Layer11_0_MEMBER_1_MEMBER_0_2_STROKES" fill="none" stroke="#000000" stroke-linecap="round" stroke-linejoin="round" d="
			M339.809,420.673l-31.544,2.743 M742.445,422.501l-322.979,0.571"/>
	</g>
</g>
</svg>
