<?xml version="1.0" encoding="utf-8"?>
<!-- Generator: Adobe Illustrator 16.0.0, SVG Export Plug-In . SVG Version: 6.00 Build 0)  -->
<!DOCTYPE svg PUBLIC "-//W3C//DTD SVG 1.1//EN" "http://www.w3.org/Graphics/SVG/1.1/DTD/svg11.dtd">
<svg version="1.1" id="Layer_1" xmlns="http://www.w3.org/2000/svg" xmlns:xlink="http://www.w3.org/1999/xlink" x="0px" y="0px"
	 width="900px" height="450px" viewBox="0 0 900 450" enable-background="new 0 0 900 450" xml:space="preserve">
<g>
	<g transform="matrix( 1, 0, 0, 1, 0,0) ">
		<g>
			<g id="Layer2_0_FILL">
				<path d="M279.246,398.847c-10.887,3.214-16.297,2.755-16.232-1.378l-2.164,12.003c15.019,10.689,28.005,12.691,38.957,6.001
					C300.332,411.144,293.479,405.602,279.246,398.847 M273.835,440.952c-0.787-7.541-5.345-15.183-13.675-22.922
					c-19.938,4.918-30.268,2.557-30.989-7.083l0.492,15.839c2.033,4.131,7.641,8.821,16.823,14.068
					C255.603,446.1,264.719,446.135,273.835,440.952 M266.26,39.081c0.459-0.394,0.689-0.886,0.689-1.476
					c0-0.459-0.23-0.919-0.689-1.378c-0.394-0.328-0.852-0.492-1.378-0.492c-0.524,0-0.95,0.164-1.278,0.492
					c-0.525,0.459-0.787,0.918-0.787,1.378c0,0.59,0.262,1.082,0.787,1.476c0.329,0.393,0.754,0.59,1.278,0.59
					C265.408,39.671,265.866,39.474,266.26,39.081 M283.378,38.982c0.328-0.393,0.492-0.885,0.492-1.476
					c0-0.459-0.164-0.917-0.492-1.377c-0.459-0.394-0.984-0.591-1.575-0.591c-0.459,0-0.885,0.197-1.279,0.591
					c-0.459,0.459-0.689,0.917-0.689,1.377c0,0.591,0.229,1.083,0.689,1.476c0.394,0.394,0.819,0.591,1.279,0.591
					C282.395,39.573,282.919,39.376,283.378,38.982z"/>
				<path fill="#EBC6AF" d="M308.661,236.523l-0.393,3.346l8.952,5.706l6.591-10.43v-19.674l-0.394-2.361l-12.001,4.23
					C310.825,224.555,309.906,230.949,308.661,236.523 M219.433,244l5.214,5.902c1.443,1.641,6.23,3.247,14.362,4.821
					c4.657-4.786,6.657-10.854,6.002-18.2l-6.002-16.625l-21.348,5.706l0.099,0.787L219.433,244 M266.358,77.94l6.001,3.738
					l3.541-2.854C273.081,79.809,269.9,79.514,266.358,77.94 M252.093,56.985v9.051c2.952,3.148,5.772,5.805,8.461,7.969
					l5.804,3.935c3.542,1.574,6.723,1.869,9.542,0.885c1.968-0.787,3.673-2.295,5.116-4.525l-0.787-10.429l-1.575,1.87
					c-0.787,0.853-1.803,1.345-3.049,1.476l-6.591,0.098l-1.476-0.098c-1.049-0.262-3.181-1.377-6.395-3.345
					c-3.017-1.771-5.443-3.476-7.279-5.115L252.093,56.985 M252.093,66.036l1.28,3.443l7.182,4.526
					C257.865,71.84,255.045,69.184,252.093,66.036 M244.42,40.359l1.279,3.05l3.05,7.575c0.655,1.508,1.443,2.82,2.361,3.935
					l1.28,1.771l1.868,1.771c2.296,2.099,4.789,3.87,7.478,5.313c3.147,1.967,5.312,3.115,6.492,3.443l0.787,0.098l6.591-0.098
					c1.246-0.13,2.263-0.623,3.049-1.476l1.575-1.87l5.017-8.558c2.689-4.264,4.296-9.87,4.821-16.823
					c0.459-6.887,0.229-11.313-0.689-13.281l-0.295-0.983c-6.689,1.377-14.232,0.459-22.627-2.755
					c-8.526-3.148-13.609-0.327-15.249,8.46C249.569,38.654,247.306,42.13,244.42,40.359 M285.641,34.358
					c-0.656-0.787-1.935-1.279-3.837-1.476c-1.968-0.196-3.968,0.296-6.001,1.476c2.033-1.18,4.033-1.671,6.001-1.476
					C283.706,33.079,284.984,33.571,285.641,34.358 M283.87,37.506c0,0.591-0.164,1.083-0.492,1.476
					c-0.459,0.394-0.984,0.591-1.575,0.591c-0.459,0-0.885-0.197-1.279-0.591c-0.459-0.393-0.689-0.885-0.689-1.476
					c0-0.459,0.229-0.917,0.689-1.377c0.394-0.394,0.819-0.591,1.279-0.591c0.591,0,1.115,0.197,1.575,0.591
					C283.706,36.589,283.87,37.047,283.87,37.506 M264.882,32.882c-1.967-0.196-4,0.296-6.098,1.476
					C260.882,33.178,262.915,32.687,264.882,32.882c1.902,0.197,3.148,0.689,3.739,1.476
					C268.031,33.571,266.785,33.079,264.882,32.882 M266.949,37.605c0,0.59-0.23,1.082-0.689,1.476
					c-0.394,0.393-0.852,0.59-1.378,0.59c-0.524,0-0.95-0.197-1.278-0.59c-0.525-0.394-0.787-0.886-0.787-1.476
					c0-0.459,0.262-0.919,0.787-1.378c0.329-0.328,0.754-0.492,1.278-0.492c0.526,0,0.984,0.164,1.378,0.492
					C266.719,36.687,266.949,37.146,266.949,37.605 M277.671,56.493c-3.738,0.656-7.148,0.656-10.23,0
					C270.523,57.149,273.934,57.149,277.671,56.493 M273.736,51.279c-1.18,0.131-2.655-0.328-4.427-1.377
					C271.081,50.952,272.557,51.411,273.736,51.279c1.181-0.131,2.395-0.82,3.64-2.066l-2.459-10.035l2.459,10.035
					C276.131,50.459,274.917,51.148,273.736,51.279z"/>
				<path fill="#666666" d="M239.009,254.724c-8.132-1.574-12.919-3.181-14.362-4.821c3.082,11.74,5.246,21.773,6.492,30.105
					c1.508,9.772,2.197,20.396,2.067,31.872c-3.28,29.776-4.624,62.799-4.034,99.067c0.721,9.64,11.051,12.001,30.989,7.083
					l0.689-8.559l2.164-12.003l13.773-78.996l-2.951-59.814l2.951,59.814l-13.773,78.996c-0.065,4.133,5.346,4.592,16.232,1.378
					l21.052-89.426l7.969-69.552l0.393-3.346c-21.314,3.805-42.532,3.805-63.649,0C245.666,243.869,243.666,249.938,239.009,254.724
					 M274.032,122.702l-0.492,0.098l0.59,1.181L274.032,122.702 M307.775,158.215V112.47V158.215l3.641,59.125l12.001-4.23v-1.967
					L312.596,89.941L281.017,74.3c1.64,6.493,2.919,12.986,3.837,19.479c1.574,10.756,1.967,21.151,1.18,31.186l-0.196,1.476
					c-0.329,4.065-1.378,9.903-3.148,17.511l-3.246-7.181c-1.706-4.526-3.477-8.789-5.313-12.789l-0.59-1.181
					c-2.165-4.919-5.411-13.445-9.74-25.578c-3.411-8.395-6.886-17.643-10.428-27.743l-1.28-3.443l-26.266,16.626
					c-3.477,4.132-6.723,7.673-9.74,10.625c-2.754,3.279-4.886,6.919-6.395,10.919c-0.197,14.561-0.853,28.431-1.968,41.614
					c-0.984,12.001-1.476,18.068-1.476,18.2c0.59,24.725,2.854,45.646,6.789,62.764l4.623-1.18l21.348-5.706
					c-2.623-31.35-2.623-65.486,0-102.412c-2.623,36.925-2.623,71.062,0,102.412l6.002,16.625c21.117,3.805,42.335,3.805,63.649,0
					c1.246-5.574,2.165-11.968,2.755-19.184L307.775,158.215z"/>
				<path fill="#FFFFFF" d="M272.36,81.678l-6.001-3.738l-5.804-3.935l-7.182-4.526c3.542,10.1,7.017,19.348,10.428,27.743
					c4.329,12.133,7.575,20.659,9.74,25.578l0.492-0.098l0.098,1.279c1.836,4,3.607,8.263,5.313,12.789l3.246,7.181
					c1.771-7.608,2.82-13.445,3.148-17.511l0.196-1.476c0.788-10.035,0.394-20.43-1.18-31.186
					c-0.918-6.493-2.197-12.986-3.837-19.479c-1.443,2.23-3.148,3.738-5.116,4.525L272.36,81.678z"/>
				<path fill="#9A6243" d="M291.249,22.75c0.328-1.376,0.163-3.279-0.492-5.706c-1.246-5.05-6.165-8.689-14.756-10.919
					c-8.789-2.296-17.216-1.213-25.283,3.246c-3.476,2.361-5.673,7.804-6.591,16.331c-0.59,6.23-0.492,11.116,0.295,14.658
					c2.886,1.771,5.148-1.705,6.788-10.428c1.639-8.788,6.722-11.608,15.249-8.46c8.395,3.214,15.938,4.132,22.627,2.755
					C290.265,24.619,290.986,24.127,291.249,22.75z"/>
			</g>
		</g>
		<g>
			<path id="Layer2_0_1_STROKES" fill="none" stroke="#000000" stroke-linecap="round" stroke-linejoin="round" d="M285.641,34.358
				c-0.656-0.787-1.935-1.279-3.837-1.476c-1.968-0.196-3.968,0.296-6.001,1.476 M268.622,34.358
				c-0.591-0.787-1.837-1.279-3.739-1.476c-1.967-0.196-4,0.296-6.098,1.476 M277.671,56.493c-3.738,0.656-7.148,0.656-10.23,0
				 M274.917,39.179l2.459,10.035c-1.246,1.246-2.459,1.935-3.64,2.066c-1.18,0.131-2.655-0.328-4.427-1.377"/>
		</g>
		<g>
			
				<path id="Layer2_0_2_STROKES" fill="none" stroke="#000000" stroke-width="2" stroke-linecap="round" stroke-linejoin="round" d="
				M311.416,217.34l-3.641-59.125V112.47 M289.084,24.226c1.181,0.394,1.902-0.098,2.165-1.476c0.328-1.376,0.163-3.279-0.492-5.706
				c-1.246-5.05-6.165-8.689-14.756-10.919c-8.789-2.296-17.216-1.213-25.283,3.246c-3.476,2.361-5.673,7.804-6.591,16.331
				c-0.59,6.23-0.492,11.116,0.295,14.658c2.886,1.771,5.148-1.705,6.788-10.428c1.639-8.788,6.722-11.608,15.249-8.46
				C274.852,24.685,282.395,25.603,289.084,24.226l0.295,0.983c0.918,1.968,1.148,6.395,0.689,13.281
				c-0.525,6.953-2.132,12.559-4.821,16.823l-5.017,8.558l0.787,10.429l31.579,15.642l10.821,121.201 M323.811,215.471l-0.394-2.361
				 M323.811,235.146l-6.591,10.43l-8.952-5.706l-7.969,69.552l-21.052,89.426c14.232,6.755,21.086,12.297,20.561,16.626
				c-10.952,6.69-23.938,4.688-38.957-6.001l-0.689,8.559c8.33,7.739,12.888,15.381,13.675,22.922
				c-9.116,5.183-18.232,5.147-27.349-0.098c-9.183-5.247-14.791-9.938-16.823-14.068l-0.492-15.839
				c-0.59-36.269,0.754-69.291,4.034-99.067c0.13-11.477-0.559-22.1-2.067-31.872c-1.246-8.332-3.411-18.365-6.492-30.105
				L219.433,244l-1.673-17.608l-0.099-0.787l-4.623,1.18c-3.935-17.118-6.199-38.039-6.789-62.764c0-0.131,0.492-6.198,1.476-18.2
				c1.115-13.183,1.771-27.054,1.968-41.614c1.508-4,3.64-7.641,6.395-10.919c3.017-2.952,6.263-6.493,9.74-10.625l26.266-16.626
				v-9.051 M269.015,67.314l-0.787-0.098c-1.181-0.328-3.345-1.476-6.492-3.443c-2.689-1.443-5.181-3.214-7.478-5.313l-1.868-1.771
				l-1.28-1.771c-0.917-1.115-1.706-2.427-2.361-3.935l-3.05-7.575l-0.787-0.885l-0.59-1.476l0.492,0.984l0.098,0.492
				 M244.42,40.359l1.279,3.05 M253.373,69.479l-1.28-3.443c2.952,3.148,5.772,5.805,8.461,7.969l5.804,3.935
				c3.542,1.574,6.723,1.869,9.542,0.885c1.968-0.787,3.673-2.295,5.116-4.525c1.64,6.493,2.919,12.986,3.837,19.479
				c1.574,10.756,1.967,21.151,1.18,31.186l-0.196,1.476c-0.329,4.065-1.378,9.903-3.148,17.511l-3.246-7.181
				c-1.706-4.526-3.477-8.789-5.313-12.789l-0.59-1.181c-2.165-4.919-5.411-13.445-9.74-25.578
				C260.39,88.827,256.915,79.579,253.373,69.479z M269.015,67.314l6.591-0.098c1.246-0.13,2.263-0.623,3.049-1.476l1.575-1.87
				 M239.009,219.898l6.002,16.625c21.117,3.805,42.335,3.805,63.649,0c1.246-5.574,2.165-11.968,2.755-19.184l12.001-4.23
				 M245.011,236.523c0.655,7.346-1.345,13.414-6.002,18.2c-8.132-1.574-12.919-3.181-14.362-4.821 M217.661,225.604l21.348-5.706
				c-2.623-31.35-2.623-65.486,0-102.412 M263.014,397.469l13.773-78.996l-2.951-59.814 M308.268,239.869l0.393-3.346
				 M279.246,398.847c-10.887,3.214-16.297,2.755-16.232-1.378l-2.164,12.003 M229.172,410.947
				c0.721,9.64,11.051,12.001,30.989,7.083"/>
		</g>
	</g>
	<g transform="matrix( 1, 0, 0, 1, 0,0) ">
		<g>
			<g id="Layer1_0_FILL">
				<path fill="#926330" d="M630.944,425.606c-4.59,2.688-6.688,6.558-6.295,11.607c1.18,3.345,6.132,5.247,14.854,5.706
					c8.92,0.394,13.937-1.476,15.051-5.608c1.114-4.393-0.427-8.297-4.623-11.705C644.095,427.508,637.766,427.508,630.944,425.606
					 M622.977,411.439c-0.852-4.788-1.574-9.379-2.164-13.773c-9.183,3.147-17.053,3.147-23.61,0
					c-13.577,3.147-20.594,9.117-21.053,17.904C598.646,416.883,614.255,415.505,622.977,411.439z"/>
				<path fill="#2A2A2C" d="M584.117,201.01l-1.378-0.59l-6.099,17.314c-1.771,29.317-0.886,59.387,2.655,90.211
					c7.806,35.546,13.773,65.455,17.906,89.721c6.558,3.147,14.428,3.147,23.61,0c-3.541-20.987-5.805-35.087-6.788-42.302
					c-2.033-15.675-2.951-29.546-2.756-41.614c-2.163-9.64-3.639-21.348-4.427-35.12c-0.261-4.198-0.655-17.085-1.18-38.663
					c0.524,21.578,0.919,34.465,1.18,38.663c0.788,13.772,2.264,25.48,4.427,35.12c-0.195,12.068,0.723,25.939,2.756,41.614
					c0.983,7.215,3.247,21.314,6.788,42.302c0.59,4.395,1.313,8.985,2.164,13.773l2.263,13.083l5.705,1.084
					c6.821,1.901,13.15,1.901,18.987,0l4.329-1.084c-1.573-27.742-2.788-47.975-3.641-60.698
					c-1.507-21.839-3.344-39.745-5.509-53.714l0.689-78.604c-4.264-3.213-4.462-10.1-0.592-20.659l-0.392-5.805h-0.101
					c-20.133-0.131-34.989-0.525-44.563-1.18C591.232,203.01,585.889,202.059,584.117,201.01z"/>
				<path fill="#7595A4" d="M607.235,89.646v15.839l-15.838,82.243l9.05,14.265l15.249-15.347l-0.984-79.686l5.805-15.348
					C613.565,92.467,609.138,91.811,607.235,89.646z"/>
				<path fill="#34536B" d="M627.797,104.108l-7.28-12.494l-5.805,15.348l0.984,79.686l-15.249,15.347l-9.05-14.265l15.838-82.243
					V89.646l-2.557-4.427c-7.941,2.652-14.63,6.553-20.069,11.708l-11.708,39.646l-1.476,67.487l5.215,13.675l6.099-17.314
					l0.788-2.165c-2.81-16.033-3.858-36.757-3.147-62.175c-0.711,25.417,0.338,46.142,3.147,62.175l-0.788,2.165l1.378,0.59
					c1.771,1.049,7.115,2,16.036,2.853c9.574,0.655,24.431,1.049,44.563,1.18v-1.476c6.13-14.783,10.36-34,12.691-57.648
					l13.772,25.381c-9.221,17.141-17.879,30.323-25.972,39.548c-3.87,10.559-3.672,17.446,0.592,20.659l48.499-49.583
					c-5.036-32.922-11.727-60.535-20.069-82.833c-11.947-8.771-24.998-15.888-39.153-21.348
					C634.936,86.902,632.509,95.691,627.797,104.108 M634.586,77.448c-3.215,6.755-7.903,11.477-14.069,14.166l7.28,12.494
					c4.712-8.417,7.139-17.206,7.28-26.365L634.586,77.448z"/>
				<path fill="#EBC6AF" d="M620.517,91.614c6.166-2.689,10.854-7.411,14.069-14.166l0.491,0.295c-0.853-2.427-0.853-5.936,0-10.527
					c-2.296,3.673-5.147,6.525-8.56,8.559c-6.688,3.738-12.755,3.607-18.2-0.394l0.592,7.378l-1.674,6.887
					C609.138,91.811,613.565,92.467,620.517,91.614 M639.208,56.493l0.69-1.377c-0.131-4.657-0.427-8.657-0.886-12.002
					c-1.051-6.952-2.854-10.952-5.411-12.002l-32.858-1.574c-0.394,2.558-0.59,6.788-0.59,12.69c0,0.066,0,0.132,0,0.197
					l0.294,5.706c0.264,4.001,0.755,8.002,1.476,12.002c0.461,4.132,0.984,7.051,1.576,8.756c0.983,2.557,2.59,4.722,4.818,6.493
					c5.445,4.001,11.512,4.132,18.2,0.394c3.412-2.034,6.264-4.886,8.56-8.559l2.754-8.657V58.46L639.208,56.493 M628.781,42.72
					c1.771,0.131,3.541,0.624,5.313,1.476C632.322,43.344,630.553,42.852,628.781,42.72c-1.18-0.131-2.362-0.098-3.542,0.099
					c-1.247,0.262-2.492,0.722-3.738,1.377c1.246-0.655,2.491-1.115,3.738-1.377C626.419,42.622,627.602,42.589,628.781,42.72
					 M628.781,46.459c0.59,0,1.081,0.196,1.476,0.59c0.394,0.394,0.59,0.951,0.59,1.673c0,0.59-0.196,1.082-0.59,1.476
					c-0.395,0.393-0.886,0.59-1.476,0.59c-0.327,0-0.623-0.033-0.886-0.098c-0.329-0.132-0.623-0.295-0.886-0.492
					c-0.393-0.394-0.591-0.886-0.591-1.476c0-0.722,0.198-1.279,0.591-1.673C627.471,46.655,628.059,46.459,628.781,46.459
					 M611.369,42.228c-0.984-0.262-2.003-0.393-3.052-0.393c-1.376,0-2.753,0.13-4.131,0.393c1.378-0.262,2.755-0.393,4.131-0.393
					C609.366,41.835,610.385,41.966,611.369,42.228c1.245,0.329,2.425,0.821,3.541,1.476
					C613.794,43.049,612.614,42.557,611.369,42.228 M608.613,47.541c0-0.59,0.196-1.082,0.59-1.476h0.099
					c0.394-0.459,0.918-0.689,1.575-0.689c0.59,0,1.114,0.229,1.573,0.689c0.395,0.394,0.59,0.886,0.59,1.476
					c0,0.656-0.195,1.213-0.59,1.672c-0.459,0.393-0.983,0.59-1.573,0.59c-0.328,0-0.592-0.033-0.788-0.098
					c-0.326-0.132-0.622-0.295-0.886-0.492C608.81,48.754,608.613,48.197,608.613,47.541 M616.188,47.541l-2.262,11.313
					c1.968,1.967,4.656,2.329,8.066,1.082c-3.41,1.247-6.099,0.886-8.066-1.082L616.188,47.541 M623.272,66.43
					c-4.068,0.459-7.806,0.197-11.216-0.787C615.467,66.626,619.204,66.889,623.272,66.43z"/>
				<path fill="#CA812F" d="M639.898,55.116c6.492-10.756,7.409-20.43,2.753-29.021c-4.786-8.92-12.164-13.051-22.135-12.396
					c-11.542,1.377-18.133,6.658-19.773,15.839l32.858,1.574c2.558,1.05,4.36,5.05,5.411,12.002
					C639.472,46.459,639.768,50.459,639.898,55.116z"/>
				<path d="M609.203,46.065c-0.394,0.394-0.59,0.886-0.59,1.476c0,0.656,0.196,1.213,0.59,1.672c0.264,0.197,0.56,0.36,0.886,0.492
					c0.196,0.065,0.46,0.098,0.788,0.098c0.59,0,1.114-0.197,1.573-0.59c0.395-0.459,0.59-1.016,0.59-1.672
					c0-0.59-0.195-1.082-0.59-1.476c-0.459-0.459-0.983-0.689-1.573-0.689c-0.657,0-1.182,0.229-1.575,0.689H609.203
					 M630.257,47.049c-0.395-0.394-0.886-0.59-1.476-0.59c-0.723,0-1.311,0.196-1.771,0.59c-0.393,0.394-0.591,0.951-0.591,1.673
					c0,0.59,0.198,1.082,0.591,1.476c0.263,0.197,0.557,0.36,0.886,0.492c0.263,0.065,0.559,0.098,0.886,0.098
					c0.59,0,1.081-0.197,1.476-0.59c0.394-0.394,0.59-0.886,0.59-1.476C630.847,48,630.65,47.443,630.257,47.049z"/>
			</g>
		</g>
		<g>
			
				<path id="Layer1_0_1_STROKES" fill="none" stroke="#000000" stroke-width="2" stroke-linecap="round" stroke-linejoin="round" d="
				M635.077,67.216l1.18-2.262l0.886-3.935l0.688-2.459L635.077,67.216c-0.853,4.591-0.853,8.1,0,10.527
				c14.155,5.459,27.206,12.577,39.153,21.348c8.343,22.298,15.033,49.911,20.069,82.833l-48.499,49.583l-0.689,78.604
				c2.165,13.969,4.002,31.875,5.509,53.714c0.853,12.724,2.067,32.956,3.641,60.698l-4.329,1.084
				c4.196,3.408,5.737,7.313,4.623,11.705c-1.114,4.133-6.131,6.002-15.051,5.608c-8.723-0.459-13.675-2.361-14.854-5.706
				c-0.394-5.05,1.705-8.92,6.295-11.607l-5.705-1.084l-2.263-13.083c-8.722,4.065-24.331,5.443-46.827,4.131
				c0.459-8.787,7.476-14.757,21.053-17.904c-4.133-24.266-10.101-54.175-17.906-89.721c-3.541-30.824-4.427-60.895-2.655-90.211
				l-5.215-13.675l1.476-67.487l11.708-39.646c5.439-5.154,12.128-9.056,20.069-11.708l4.23-2.459l-0.592-7.378
				c-2.229-1.771-3.835-3.936-4.818-6.493c-0.592-1.706-1.115-4.624-1.576-8.756c-0.721-4-1.212-8-1.476-12.002l-0.294-5.706
				c0-0.065,0-0.131,0-0.197c0-5.902,0.196-10.132,0.59-12.69c1.641-9.182,8.231-14.462,19.773-15.839
				c9.971-0.655,17.349,3.476,22.135,12.396c4.656,8.592,3.739,18.265-2.753,29.021l-0.69,1.377l-1.377,1.967v0.099 M639.898,55.116
				c-0.131-4.657-0.427-8.657-0.886-12.002c-1.051-6.952-2.854-10.952-5.411-12.002l-32.858-1.574 M635.077,77.743l-0.491-0.295
				c-3.215,6.755-7.903,11.477-14.069,14.166l7.28,12.494C632.509,95.691,634.936,86.902,635.077,77.743z M635.077,67.216
				c-2.296,3.673-5.147,6.525-8.56,8.559c-6.688,3.738-12.755,3.607-18.2-0.394 M620.517,91.614l-5.805,15.348l0.984,79.686
				l-15.249,15.347l-9.05-14.265l15.838-82.243V89.646l1.674-6.887 M576.641,217.734l6.099-17.314 M644.717,205.043
				c-20.133-0.131-34.989-0.525-44.563-1.18c-8.921-0.853-14.265-1.804-16.036-2.853 M582.739,200.42l0.788-2.165
				c-2.81-16.033-3.858-36.757-3.147-62.175 M620.813,397.666c-3.541-20.987-5.805-35.087-6.788-42.302
				c-2.033-15.675-2.951-29.546-2.756-41.614c-2.163-9.64-3.639-21.348-4.427-35.12c-0.261-4.198-0.655-17.085-1.18-38.663
				 M645.801,231.507c-4.264-3.213-4.462-10.1-0.592-20.659l-0.392-5.805h-0.101 M644.717,203.567
				c6.13-14.783,10.36-34,12.691-57.648l13.772,25.381c-9.221,17.141-17.879,30.323-25.972,39.548 M644.817,205.043l-0.101-1.476
				 M607.235,89.646c1.902,2.164,6.33,2.82,13.281,1.967 M282.689,143.951l3.935,95.13 M622.977,411.439
				c-0.852-4.788-1.574-9.379-2.164-13.773c-9.183,3.147-17.053,3.147-23.61,0 M649.932,425.606c-5.837,1.901-12.166,1.901-18.987,0
				"/>
		</g>
		<g>
			<path id="Layer1_0_2_STROKES" fill="none" stroke="#000000" stroke-linecap="round" stroke-linejoin="round" d="M621.501,44.196
				c1.246-0.655,2.491-1.115,3.738-1.377c1.18-0.197,2.362-0.229,3.542-0.099c1.771,0.131,3.541,0.624,5.313,1.476 M614.91,43.704
				c-1.116-0.655-2.296-1.147-3.541-1.476c-0.984-0.262-2.003-0.393-3.052-0.393c-1.376,0-2.753,0.13-4.131,0.393 M616.188,47.541
				l-2.262,11.313c1.968,1.967,4.656,2.329,8.066,1.082 M623.272,66.43c-4.068,0.459-7.806,0.197-11.216-0.787"/>
		</g>
	</g>
	<g transform="matrix( 1, 0, 0, 1, 0,0) ">
		<g>
			<g id="Layer0_0_FILL">
				<path fill="#271815" d="M431.928,408.882v9.936l41.712,7.083c10.69,0.59,17.51-1.476,20.461-6.197
					c-1.835-4.329-5.247-7.576-10.231-9.739c-7.147-1.116-13.15-4.033-18.002-8.756
					C449.144,413.473,437.831,416.029,431.928,408.882 M424.156,415.078c-14.822,10.362-24.922,12.594-30.3,6.69v8.164
					c3.411,4.527,10.592,8.823,21.544,12.89c18.758,3.737,27.021,1.541,24.792-6.593L424.156,415.078z"/>
				<path fill="#DC9A72" d="M433.994,128.505l-14.659,4.132l14.167,12.396c5.837-6.624,10.132-9.378,12.887-8.263l3.345-0.394
					L433.994,128.505 M414.023,53.443l1.181,13.97l0.098,1.082c7.346,9.445,14.56,14.56,21.643,15.348
					c7.083,0.787,9.871-3.378,8.362-12.494l-2.263-2.952C435.092,73.409,425.417,68.425,414.023,53.443 M448.947,20.881
					c-0.738,0.062-1.427,0.127-2.066,0.196c0.75-0.061,1.504-0.061,2.263,0C449.068,21.059,449.003,20.994,448.947,20.881
					 M433.108,22.553c-1.639,0.329-3.247,0.722-4.82,1.181h-4.132c-8.001-0.524-11.937,3.05-11.805,10.724
					c-1.443-0.591-2.492-0.328-3.148,0.787c-0.721,0.984-1.049,2.886-0.983,5.706c0,5.575,1.935,9.74,5.805,12.494
					c11.394,14.981,21.068,19.966,29.021,14.954c2.886-2.099,5.083-6.067,6.592-11.904l0.492-2.164
					c1.573-7.937,2.131-15.348,1.672-22.234c-2.952-1.64-6.657-1.508-11.117,0.394c4.459-1.902,8.165-2.034,11.117-0.394
					c-0.329-3.804-1.017-7.477-2.066-11.019h-0.59c-0.759-0.061-1.513-0.061-2.263,0l-4.131,0.197
					C439.273,21.406,436.059,21.832,433.108,22.553 M444.52,35.244c0.525-0.394,1.115-0.59,1.771-0.59
					c0.59,0,1.115,0.196,1.573,0.59c0.459,0.394,0.689,0.886,0.689,1.476c0,0.854-0.229,1.476-0.689,1.87
					c-0.458,0.393-0.983,0.59-1.573,0.59c-0.656,0-1.246-0.197-1.771-0.59c-0.459-0.394-0.688-1.016-0.688-1.87
					C443.832,36.129,444.061,35.638,444.52,35.244 M428.977,34.85c0.722,0,1.312,0.197,1.771,0.591
					c0.393,0.393,0.59,0.951,0.59,1.672c0,0.721-0.197,1.279-0.59,1.672c-0.329,0.263-0.722,0.459-1.181,0.591
					c-0.131,0-0.327,0-0.59,0c-0.656,0-1.181-0.197-1.574-0.591c-0.393-0.393-0.59-0.951-0.59-1.672c0-0.591,0.13-1.083,0.393-1.476
					c0.066-0.066,0.132-0.132,0.197-0.197C427.796,35.047,428.321,34.85,428.977,34.85 M422.188,32.687
					c3.738-2.034,7.837-2.034,12.297,0C430.026,30.652,425.927,30.652,422.188,32.687 M438.42,50.197
					c1.443-0.066,2.82-0.524,4.132-1.377l-2.854-11.707l2.854,11.707C441.24,49.673,439.864,50.131,438.42,50.197
					c-1.443,0.131-2.984-0.099-4.624-0.689C435.437,50.099,436.978,50.328,438.42,50.197 M439.404,56.493
					c1.902,0,3.607-0.229,5.116-0.688C443.012,56.264,441.307,56.493,439.404,56.493c-2.557,0.066-5.313-0.23-8.264-0.885
					C434.092,56.263,436.847,56.559,439.404,56.493 M481.805,115.913c-3.936-0.459-6.658,0-8.164,1.378
					c-4.854,5.836-7.084,11.674-6.69,17.511h4.623h17.512v-17.511C486.265,116.635,483.84,116.176,481.805,115.913z"/>
				<path d="M430.748,35.441c-0.459-0.394-1.049-0.591-1.771-0.591c-0.656,0-1.181,0.197-1.574,0.591
					c-0.065,0.065-0.131,0.13-0.197,0.197c-0.262,0.393-0.393,0.885-0.393,1.476c0,0.721,0.197,1.279,0.59,1.672
					c0.394,0.394,0.918,0.591,1.574,0.591c0.263,0,0.458,0,0.59,0c0.459-0.132,0.853-0.328,1.181-0.591
					c0.393-0.393,0.59-0.951,0.59-1.672C431.337,36.392,431.14,35.833,430.748,35.441 M446.291,34.654
					c-0.656,0-1.246,0.196-1.771,0.59c-0.459,0.394-0.688,0.886-0.688,1.476c0,0.854,0.229,1.476,0.688,1.87
					c0.525,0.393,1.115,0.59,1.771,0.59c0.59,0,1.115-0.197,1.573-0.59c0.459-0.394,0.689-1.016,0.689-1.87
					c0-0.59-0.229-1.082-0.689-1.476C447.406,34.85,446.881,34.654,446.291,34.654z"/>
				<path fill="#302110" d="M428.288,23.733c1.573-0.459,3.181-0.852,4.82-1.181c2.951-0.721,6.165-1.147,9.642-1.279l4.131-0.197
					c0.64-0.069,1.329-0.135,2.066-0.196c-3.214-6.362-7.248-10.428-12.1-12.199c-4.789-1.836-10.1-1.935-15.938-0.295
					c-5.837,1.443-9.903,4.657-12.199,9.641c-2.36,4.919-2.197,10.657,0.492,17.216c0.656-1.114,1.706-1.377,3.148-0.787
					c-0.132-7.673,3.804-11.248,11.805-10.724H428.288z"/>
				<path fill="#D2B094" d="M475.214,308.438l5.805-96.803c-25.972,7.74-55.125,12.724-87.458,14.954l6.984,92.572l-6.689,102.608
					c5.378,5.903,15.478,3.672,30.3-6.69l11.805-73.585l14.462-91.491l-14.462,91.491l-4.033,67.389
					c5.902,7.147,17.216,4.591,33.94-7.674L475.214,308.438z"/>
				<path fill="#417021" d="M475.608,165.102c-3.215,0.984-6.626,1.935-10.232,2.853c-13.313,3.607-28.366,6.395-45.155,8.362
					c-11.149-7.149-21.643-16.396-31.48-27.743v78.013h4.821c32.333-2.23,61.486-7.214,87.458-14.954
					c0.065-1.377,1.541-2.689,4.427-3.935L475.608,165.102 M473.641,117.291c1.506-1.378,4.229-1.837,8.164-1.378
					c2.035,0.263,4.46,0.722,7.28,1.378v17.511h-17.512c-1.574,0.131-3.115,0.262-4.623,0.393
					c-9.248,0.459-14.987,0.853-17.216,1.181l-3.345,0.394c-2.754-1.115-7.05,1.64-12.887,8.263l52.336,15.544
					c6.429,1.246,13.15-0.689,20.167-5.805c3.87-9.182,3.87-17.052,0-23.611c-6.425-11.805-16.689-23.873-30.791-36.203
					c-14.166-12.461-24.135-20.332-29.907-23.61c1.508,9.116-1.279,13.281-8.362,12.494c-7.083-0.788-14.297-5.903-21.643-15.348
					l-5.509-0.689c-26.496,20.004-35.22,45.418-26.169,76.243l5.116,4.526c9.837,11.346,20.332,20.594,31.48,27.743
					c16.79-1.968,31.842-4.755,45.155-8.362c3.606-0.918,7.018-1.869,10.232-2.853l10.229-4.525l-52.336-15.544l-14.167-12.396
					l-6.395-8.756l6.395,8.756l14.659-4.132l15.74,7.87c2.229-0.328,7.968-0.721,17.216-1.181v-0.393
					C466.557,128.965,468.787,123.127,473.641,117.291z"/>
			</g>
		</g>
		<g>
			<path id="Layer0_0_1_STROKES" fill="none" stroke="#000000" stroke-linecap="round" stroke-linejoin="round" d="M451.8,32.096
				c-2.952-1.64-6.657-1.508-11.117,0.394 M422.188,32.687c3.738-2.034,7.837-2.034,12.297,0 M433.797,49.508
				c1.64,0.59,3.181,0.82,4.624,0.689c1.443-0.066,2.82-0.524,4.132-1.377l-2.854-11.707 M431.14,55.608
				c2.952,0.655,5.707,0.951,8.264,0.885c1.902,0,3.607-0.229,5.116-0.688"/>
		</g>
		<g>
			
				<path id="Layer0_0_2_STROKES" fill="none" stroke="#000000" stroke-width="2" stroke-linecap="round" stroke-linejoin="round" d="
				M466.95,134.802c-0.394-5.837,1.837-11.674,6.69-17.511c1.506-1.378,4.229-1.837,8.164-1.378c2.035,0.263,4.46,0.722,7.28,1.378
				v17.511h-17.512c-1.574,0.131-3.115,0.262-4.623,0.393c-9.248,0.459-14.987,0.853-17.216,1.181l-3.345,0.394
				c-2.754-1.115-7.05,1.64-12.887,8.263l52.336,15.544c6.429,1.246,13.15-0.689,20.167-5.805c3.87-9.182,3.87-17.052,0-23.611
				c-6.425-11.805-16.689-23.873-30.791-36.203c-14.166-12.461-24.135-20.332-29.907-23.61c1.508,9.116-1.279,13.281-8.362,12.494
				c-7.083-0.788-14.297-5.903-21.643-15.348l-5.509-0.689c-26.496,20.004-35.22,45.418-26.169,76.243l5.116,4.526
				c9.837,11.346,20.332,20.594,31.48,27.743c16.79-1.968,31.842-4.755,45.155-8.362c3.606-0.918,7.018-1.869,10.232-2.853
				l10.229-4.525 M471.573,134.802h-4.623 M485.445,207.699l-4.427,3.935l-5.805,96.803l-9.346,92.771
				c4.852,4.723,10.854,7.64,18.002,8.756c4.984,2.163,8.396,5.41,10.231,9.739c-2.951,4.722-9.771,6.787-20.461,6.197
				l-41.712-7.083v-9.936l4.033-67.389l-11.805,73.585l16.036,21.151c2.229,8.134-6.034,10.33-24.792,6.593
				c-10.952-4.066-18.133-8.362-21.544-12.89v-8.164l6.689-102.608l-6.984-92.572h-4.821v-78.013 M485.445,207.699l-9.837-42.597
				 M409.202,35.244c0.656-1.114,1.706-1.377,3.148-0.787c-0.132-7.673,3.804-11.248,11.805-10.724h4.132
				c1.573-0.459,3.181-0.852,4.82-1.181c2.951-0.721,6.165-1.147,9.642-1.279l4.181-0.197 M448.947,20.881
				c-3.214-6.362-7.248-10.428-12.1-12.199c-4.789-1.836-10.1-1.935-15.938-0.295c-5.837,1.443-9.903,4.657-12.199,9.641
				c-2.36,4.919-2.197,10.657,0.492,17.216c-0.721,0.984-1.049,2.886-0.983,5.706c0,5.575,1.935,9.74,5.805,12.494
				c11.394,14.981,21.068,19.966,29.021,14.954c2.886-2.099,5.083-6.067,6.592-11.904l0.492-2.164
				c1.573-7.937,2.131-15.348,1.672-22.234 M448.947,20.881c0.056,0.113,0.138,0.178,0.246,0.196c-0.792-0.061-1.546-0.061-2.263,0
				 M449.193,21.077h0.541c1.049,3.542,1.737,7.215,2.066,11.019 M415.302,68.495l-0.098-1.082l-1.181-13.97 M449.636,56.493
				c-0.854,4.132-2.067,8.428-3.64,12.888c-0.197,0.655-0.427,1.312-0.689,1.968 M449.734,136.375l-15.74-7.87l-14.659,4.132
				l14.167,12.396 M419.335,132.637l-6.395-8.756 M323.811,215.471v19.674 M435.961,341.493l14.462-91.491 M424.156,415.078
				c-14.822,10.362-24.922,12.594-30.3,6.69 M481.019,211.634c-25.972,7.74-55.125,12.724-87.458,14.954 M465.868,401.208
				c-16.724,12.265-28.038,14.821-33.94,7.674"/>
		</g>
	</g>
</g>
</svg>
