<svg xmlns="http://www.w3.org/2000/svg" width="900" height="450" viewBox="0 0 900 450"><path d="M279.246 398.847c-10.887 3.214-16.297 2.755-16.232-1.378l-2.164 12.003c15.019 10.689 28.005 12.691 38.957 6.001.525-4.329-6.328-9.871-20.561-16.626m-5.411 42.105c-.787-7.541-5.345-15.183-13.675-22.922-19.938 4.918-30.268 2.557-30.989-7.083l.492 15.839c2.033 4.131 7.641 8.821 16.823 14.068 9.117 5.246 18.233 5.281 27.349.098M266.26 39.081c.459-.394.689-.886.689-1.476 0-.459-.23-.919-.689-1.378a2.086 2.086 0 0 0-1.378-.492c-.524 0-.95.164-1.278.492-.525.459-.787.918-.787 1.378 0 .59.262 1.082.787 1.476.329.393.754.59 1.278.59.526 0 .984-.197 1.378-.59m17.118-.099c.328-.393.492-.885.492-1.476 0-.459-.164-.917-.492-1.377a2.35 2.35 0 0 0-1.575-.591c-.459 0-.885.197-1.279.591-.459.459-.689.917-.689 1.377 0 .591.229 1.083.689 1.476.394.394.819.591 1.279.591.592 0 1.116-.197 1.575-.591z"/><path fill="#EBC6AF" d="M308.661 236.523l-.393 3.346 8.952 5.706 6.591-10.43v-19.674l-.394-2.361-12.001 4.23c-.591 7.215-1.51 13.609-2.755 19.183M219.433 244l5.214 5.902c1.443 1.641 6.23 3.247 14.362 4.821 4.657-4.786 6.657-10.854 6.002-18.2l-6.002-16.625-21.348 5.706.099.787L219.433 244m46.925-166.06l6.001 3.738 3.541-2.854c-2.819.985-6 .69-9.542-.884m-14.265-20.955v9.051c2.952 3.148 5.772 5.805 8.461 7.969l5.804 3.935c3.542 1.574 6.723 1.869 9.542.885 1.968-.787 3.673-2.295 5.116-4.525l-.787-10.429-1.575 1.87c-.787.853-1.803 1.345-3.049 1.476l-6.591.098-1.476-.098c-1.049-.262-3.181-1.377-6.395-3.345-3.017-1.771-5.443-3.476-7.279-5.115l-1.771-1.772m0 9.051l1.28 3.443 7.182 4.526c-2.69-2.165-5.51-4.821-8.462-7.969m-7.673-25.677l1.279 3.05 3.05 7.575c.655 1.508 1.443 2.82 2.361 3.935l1.28 1.771 1.868 1.771a36.934 36.934 0 0 0 7.478 5.313c3.147 1.967 5.312 3.115 6.492 3.443l.787.098 6.591-.098c1.246-.13 2.263-.623 3.049-1.476l1.575-1.87 5.017-8.558c2.689-4.264 4.296-9.87 4.821-16.823.459-6.887.229-11.313-.689-13.281l-.295-.983c-6.689 1.377-14.232.459-22.627-2.755-8.526-3.148-13.609-.327-15.249 8.46-1.639 8.723-3.902 12.199-6.788 10.428m41.221-6.001c-.656-.787-1.935-1.279-3.837-1.476-1.968-.196-3.968.296-6.001 1.476 2.033-1.18 4.033-1.671 6.001-1.476 1.902.197 3.18.689 3.837 1.476m-1.771 3.148c0 .591-.164 1.083-.492 1.476a2.35 2.35 0 0 1-1.575.591c-.459 0-.885-.197-1.279-.591-.459-.393-.689-.885-.689-1.476 0-.459.229-.917.689-1.377.394-.394.819-.591 1.279-.591.591 0 1.115.197 1.575.591.328.46.492.918.492 1.377m-18.988-4.624c-1.967-.196-4 .296-6.098 1.476 2.098-1.18 4.131-1.671 6.098-1.476 1.902.197 3.148.689 3.739 1.476-.59-.787-1.836-1.279-3.739-1.476m2.067 4.723c0 .59-.23 1.082-.689 1.476-.394.393-.852.59-1.378.59-.524 0-.95-.197-1.278-.59-.525-.394-.787-.886-.787-1.476 0-.459.262-.919.787-1.378.329-.328.754-.492 1.278-.492.526 0 .984.164 1.378.492.459.46.689.919.689 1.378m10.722 18.888c-3.738.656-7.148.656-10.23 0 3.082.656 6.493.656 10.23 0m-3.935-5.214c-1.18.131-2.655-.328-4.427-1.377 1.772 1.05 3.248 1.509 4.427 1.377 1.181-.131 2.395-.82 3.64-2.066l-2.459-10.035 2.459 10.035c-1.245 1.246-2.459 1.935-3.64 2.066z"/><path fill="#666" d="M239.009 254.724c-8.132-1.574-12.919-3.181-14.362-4.821 3.082 11.74 5.246 21.773 6.492 30.105 1.508 9.772 2.197 20.396 2.067 31.872-3.28 29.776-4.624 62.799-4.034 99.067.721 9.64 11.051 12.001 30.989 7.083l.689-8.559 2.164-12.003 13.773-78.996-2.951-59.814 2.951 59.814-13.773 78.996c-.065 4.133 5.346 4.592 16.232 1.378l21.052-89.426 7.969-69.552.393-3.346c-21.314 3.805-42.532 3.805-63.649 0 .655 7.347-1.345 13.416-6.002 18.202m35.023-132.022l-.492.098.59 1.181-.098-1.279m33.743 35.513V112.47v45.745l3.641 59.125 12.001-4.23v-1.967L312.596 89.941 281.017 74.3a185.598 185.598 0 0 1 3.837 19.479c1.574 10.756 1.967 21.151 1.18 31.186l-.196 1.476c-.329 4.065-1.378 9.903-3.148 17.511l-3.246-7.181a198.579 198.579 0 0 0-5.313-12.789l-.59-1.181c-2.165-4.919-5.411-13.445-9.74-25.578-3.411-8.395-6.886-17.643-10.428-27.743l-1.28-3.443-26.266 16.626c-3.477 4.132-6.723 7.673-9.74 10.625a37.369 37.369 0 0 0-6.395 10.919c-.197 14.561-.853 28.431-1.968 41.614-.984 12.001-1.476 18.068-1.476 18.2.59 24.725 2.854 45.646 6.789 62.764l4.623-1.18 21.348-5.706c-2.623-31.35-2.623-65.486 0-102.412-2.623 36.925-2.623 71.062 0 102.412l6.002 16.625c21.117 3.805 42.335 3.805 63.649 0 1.246-5.574 2.165-11.968 2.755-19.184l-3.639-59.125z"/><path fill="#FFF" d="M272.36 81.678l-6.001-3.738-5.804-3.935-7.182-4.526c3.542 10.1 7.017 19.348 10.428 27.743 4.329 12.133 7.575 20.659 9.74 25.578l.492-.098.098 1.279c1.836 4 3.607 8.263 5.313 12.789l3.246 7.181c1.771-7.608 2.82-13.445 3.148-17.511l.196-1.476c.788-10.035.394-20.43-1.18-31.186a185.598 185.598 0 0 0-3.837-19.479c-1.443 2.23-3.148 3.738-5.116 4.525l-3.541 2.854z"/><path fill="#9A6243" d="M291.249 22.75c.328-1.376.163-3.279-.492-5.706-1.246-5.05-6.165-8.689-14.756-10.919-8.789-2.296-17.216-1.213-25.283 3.246-3.476 2.361-5.673 7.804-6.591 16.331-.59 6.23-.492 11.116.295 14.658 2.886 1.771 5.148-1.705 6.788-10.428 1.639-8.788 6.722-11.608 15.249-8.46 8.395 3.214 15.938 4.132 22.627 2.755 1.179.392 1.9-.1 2.163-1.477z"/><g><path fill="none" stroke="#000" stroke-linecap="round" stroke-linejoin="round" d="M285.641 34.358c-.656-.787-1.935-1.279-3.837-1.476-1.968-.196-3.968.296-6.001 1.476m-7.181 0c-.591-.787-1.837-1.279-3.739-1.476-1.967-.196-4 .296-6.098 1.476m18.886 22.135c-3.738.656-7.148.656-10.23 0m7.476-17.314l2.459 10.035c-1.246 1.246-2.459 1.935-3.64 2.066-1.18.131-2.655-.328-4.427-1.377"/></g><g><path fill="none" stroke="#000" stroke-width="2" stroke-linecap="round" stroke-linejoin="round" d="M311.416 217.34l-3.641-59.125V112.47m-18.691-88.244c1.181.394 1.902-.098 2.165-1.476.328-1.376.163-3.279-.492-5.706-1.246-5.05-6.165-8.689-14.756-10.919-8.789-2.296-17.216-1.213-25.283 3.246-3.476 2.361-5.673 7.804-6.591 16.331-.59 6.23-.492 11.116.295 14.658 2.886 1.771 5.148-1.705 6.788-10.428 1.639-8.788 6.722-11.608 15.249-8.46 8.393 3.213 15.936 4.131 22.625 2.754l.295.983c.918 1.968 1.148 6.395.689 13.281-.525 6.953-2.132 12.559-4.821 16.823l-5.017 8.558.787 10.429 31.579 15.642 10.821 121.201m.394 4.328l-.394-2.361m.394 22.036l-6.591 10.43-8.952-5.706-7.969 69.552-21.052 89.426c14.232 6.755 21.086 12.297 20.561 16.626-10.952 6.69-23.938 4.688-38.957-6.001l-.689 8.559c8.33 7.739 12.888 15.381 13.675 22.922-9.116 5.183-18.232 5.147-27.349-.098-9.183-5.247-14.791-9.938-16.823-14.068l-.492-15.839c-.59-36.269.754-69.291 4.034-99.067.13-11.477-.559-22.1-2.067-31.872-1.246-8.332-3.411-18.365-6.492-30.105L219.433 244l-1.673-17.608-.099-.787-4.623 1.18c-3.935-17.118-6.199-38.039-6.789-62.764 0-.131.492-6.198 1.476-18.2 1.115-13.183 1.771-27.054 1.968-41.614 1.508-4 3.64-7.641 6.395-10.919 3.017-2.952 6.263-6.493 9.74-10.625l26.266-16.626v-9.051m16.921 10.328l-.787-.098c-1.181-.328-3.345-1.476-6.492-3.443a36.962 36.962 0 0 1-7.478-5.313l-1.868-1.771-1.28-1.771c-.917-1.115-1.706-2.427-2.361-3.935l-3.05-7.575-.787-.885-.59-1.476.492.984.098.492m-.492-2.164l1.279 3.05m7.674 26.07l-1.28-3.443c2.952 3.148 5.772 5.805 8.461 7.969l5.804 3.935c3.542 1.574 6.723 1.869 9.542.885 1.968-.787 3.673-2.295 5.116-4.525a185.598 185.598 0 0 1 3.837 19.479c1.574 10.756 1.967 21.151 1.18 31.186l-.196 1.476c-.329 4.065-1.378 9.903-3.148 17.511l-3.246-7.181a198.579 198.579 0 0 0-5.313-12.789l-.59-1.181c-2.165-4.919-5.411-13.445-9.74-25.578-3.41-8.396-6.885-17.644-10.427-27.744zm15.642-2.165l6.591-.098c1.246-.13 2.263-.623 3.049-1.476l1.575-1.87m-41.221 156.028l6.002 16.625c21.117 3.805 42.335 3.805 63.649 0 1.246-5.574 2.165-11.968 2.755-19.184l12.001-4.23m-78.405 23.414c.655 7.346-1.345 13.414-6.002 18.2-8.132-1.574-12.919-3.181-14.362-4.821m-6.986-24.298l21.348-5.706c-2.623-31.35-2.623-65.486 0-102.412m24.005 279.983l13.773-78.996-2.951-59.814m34.432-18.79l.393-3.346m-29.415 162.324c-10.887 3.214-16.297 2.755-16.232-1.378l-2.164 12.003m-31.678 1.475c.721 9.64 11.051 12.001 30.989 7.083"/></g><g><path fill="#926330" d="M630.944 425.606c-4.59 2.688-6.688 6.558-6.295 11.607 1.18 3.345 6.132 5.247 14.854 5.706 8.92.394 13.937-1.476 15.051-5.608 1.114-4.393-.427-8.297-4.623-11.705-5.836 1.902-12.165 1.902-18.987 0m-7.967-14.167a327.644 327.644 0 0 1-2.164-13.773c-9.183 3.147-17.053 3.147-23.61 0-13.577 3.147-20.594 9.117-21.053 17.904 22.496 1.313 38.105-.065 46.827-4.131z"/><path fill="#2A2A2C" d="M584.117 201.01l-1.378-.59-6.099 17.314c-1.771 29.317-.886 59.387 2.655 90.211 7.806 35.546 13.773 65.455 17.906 89.721 6.558 3.147 14.428 3.147 23.61 0-3.541-20.987-5.805-35.087-6.788-42.302-2.033-15.675-2.951-29.546-2.756-41.614-2.163-9.64-3.639-21.348-4.427-35.12-.261-4.198-.655-17.085-1.18-38.663.524 21.578.919 34.465 1.18 38.663.788 13.772 2.264 25.48 4.427 35.12-.195 12.068.723 25.939 2.756 41.614.983 7.215 3.247 21.314 6.788 42.302.59 4.395 1.313 8.985 2.164 13.773l2.263 13.083 5.705 1.084c6.821 1.901 13.15 1.901 18.987 0l4.329-1.084c-1.573-27.742-2.788-47.975-3.641-60.698-1.507-21.839-3.344-39.745-5.509-53.714l.689-78.604c-4.264-3.213-4.462-10.1-.592-20.659l-.392-5.805h-.101c-20.133-.131-34.989-.525-44.563-1.18-8.918-.852-14.261-1.803-16.033-2.852z"/><path fill="#7595A4" d="M607.235 89.646v15.839l-15.838 82.243 9.05 14.265 15.249-15.347-.984-79.686 5.805-15.348c-6.952.855-11.379.199-13.282-1.966z"/><path fill="#34536B" d="M627.797 104.108l-7.28-12.494-5.805 15.348.984 79.686-15.249 15.347-9.05-14.265 15.838-82.243V89.646l-2.557-4.427c-7.941 2.652-14.63 6.553-20.069 11.708l-11.708 39.646-1.476 67.487 5.215 13.675 6.099-17.314.788-2.165c-2.81-16.033-3.858-36.757-3.147-62.175-.711 25.417.338 46.142 3.147 62.175l-.788 2.165 1.378.59c1.771 1.049 7.115 2 16.036 2.853 9.574.655 24.431 1.049 44.563 1.18v-1.476c6.13-14.783 10.36-34 12.691-57.648l13.772 25.381c-9.221 17.141-17.879 30.323-25.972 39.548-3.87 10.559-3.672 17.446.592 20.659l48.499-49.583c-5.036-32.922-11.727-60.535-20.069-82.833-11.947-8.771-24.998-15.888-39.153-21.348-.14 9.158-2.567 17.947-7.279 26.364m6.789-26.66c-3.215 6.755-7.903 11.477-14.069 14.166l7.28 12.494c4.712-8.417 7.139-17.206 7.28-26.365l-.491-.295z"/><path fill="#EBC6AF" d="M620.517 91.614c6.166-2.689 10.854-7.411 14.069-14.166l.491.295c-.853-2.427-.853-5.936 0-10.527-2.296 3.673-5.147 6.525-8.56 8.559-6.688 3.738-12.755 3.607-18.2-.394l.592 7.378-1.674 6.887c1.903 2.165 6.33 2.821 13.282 1.968m18.691-35.121l.69-1.377c-.131-4.657-.427-8.657-.886-12.002-1.051-6.952-2.854-10.952-5.411-12.002l-32.858-1.574c-.394 2.558-.59 6.788-.59 12.69v.197l.294 5.706c.264 4.001.755 8.002 1.476 12.002.461 4.132.984 7.051 1.576 8.756.983 2.557 2.59 4.722 4.818 6.493 5.445 4.001 11.512 4.132 18.2.394 3.412-2.034 6.264-4.886 8.56-8.559l2.754-8.657v-.1l1.377-1.967M628.781 42.72c1.771.131 3.541.624 5.313 1.476-1.772-.852-3.541-1.344-5.313-1.476a12.826 12.826 0 0 0-3.542.099c-1.247.262-2.492.722-3.738 1.377 1.246-.655 2.491-1.115 3.738-1.377 1.18-.197 2.363-.23 3.542-.099m0 3.739c.59 0 1.081.196 1.476.59.394.394.59.951.59 1.673 0 .59-.196 1.082-.59 1.476-.395.393-.886.59-1.476.59-.327 0-.623-.033-.886-.098a3.868 3.868 0 0 1-.886-.492c-.393-.394-.591-.886-.591-1.476 0-.722.198-1.279.591-1.673.462-.394 1.05-.59 1.772-.59m-17.412-4.231a11.82 11.82 0 0 1 0 0m-2.756 5.313c0-.59.196-1.082.59-1.476h.099c.394-.459.918-.689 1.575-.689.59 0 1.114.229 1.573.689.395.394.59.886.59 1.476 0 .656-.195 1.213-.59 1.672a2.35 2.35 0 0 1-1.573.59c-.328 0-.592-.033-.788-.098a3.954 3.954 0 0 1-.886-.492c-.393-.459-.59-1.016-.59-1.672m7.575 0l-2.262 11.313c1.968 1.967 4.656 2.329 8.066 1.082-3.41 1.247-6.099.886-8.066-1.082l2.262-11.313m7.084 18.889c-4.068.459-7.806.197-11.216-.787 3.411.983 7.148 1.246 11.216.787z"/><path fill="#CA812F" d="M639.898 55.116c6.492-10.756 7.409-20.43 2.753-29.021-4.786-8.92-12.164-13.051-22.135-12.396-11.542 1.377-18.133 6.658-19.773 15.839l32.858 1.574c2.558 1.05 4.36 5.05 5.411 12.002.46 3.345.756 7.345.886 12.002z"/><path d="M609.203 46.065c-.394.394-.59.886-.59 1.476 0 .656.196 1.213.59 1.672.264.197.56.36.886.492.196.065.46.098.788.098a2.35 2.35 0 0 0 1.573-.59c.395-.459.59-1.016.59-1.672 0-.59-.195-1.082-.59-1.476-.459-.459-.983-.689-1.573-.689-.657 0-1.182.229-1.575.689h-.099m21.054.984c-.395-.394-.886-.59-1.476-.59-.723 0-1.311.196-1.771.59-.393.394-.591.951-.591 1.673 0 .59.198 1.082.591 1.476.263.197.557.36.886.492.263.065.559.098.886.098.59 0 1.081-.197 1.476-.59.394-.394.59-.886.59-1.476-.001-.722-.198-1.279-.591-1.673z"/><g><path fill="none" stroke="#000" stroke-width="2" stroke-linecap="round" stroke-linejoin="round" d="M635.077 67.216l1.18-2.262.886-3.935.688-2.459-2.754 8.656c-.853 4.591-.853 8.1 0 10.527 14.155 5.459 27.206 12.577 39.153 21.348 8.343 22.298 15.033 49.911 20.069 82.833L645.8 231.507l-.689 78.604c2.165 13.969 4.002 31.875 5.509 53.714.853 12.724 2.067 32.956 3.641 60.698l-4.329 1.084c4.196 3.408 5.737 7.313 4.623 11.705-1.114 4.133-6.131 6.002-15.051 5.608-8.723-.459-13.675-2.361-14.854-5.706-.394-5.05 1.705-8.92 6.295-11.607l-5.705-1.084-2.263-13.083c-8.722 4.065-24.331 5.443-46.827 4.131.459-8.787 7.476-14.757 21.053-17.904-4.133-24.266-10.101-54.175-17.906-89.721-3.541-30.824-4.427-60.895-2.655-90.211l-5.215-13.675 1.476-67.487 11.708-39.646c5.439-5.154 12.128-9.056 20.069-11.708l4.23-2.459-.592-7.378c-2.229-1.771-3.835-3.936-4.818-6.493-.592-1.706-1.115-4.624-1.576-8.756-.721-4-1.212-8-1.476-12.002l-.294-5.706v-.197c0-5.902.196-10.132.59-12.69 1.641-9.182 8.231-14.462 19.773-15.839 9.971-.655 17.349 3.476 22.135 12.396 4.656 8.592 3.739 18.265-2.753 29.021l-.69 1.377-1.377 1.967v.099m2.066-3.443c-.131-4.657-.427-8.657-.886-12.002-1.051-6.952-2.854-10.952-5.411-12.002l-32.858-1.574m34.334 48.205l-.491-.295c-3.215 6.755-7.903 11.477-14.069 14.166l7.28 12.494c4.712-8.417 7.139-17.206 7.28-26.365zm0-10.527c-2.296 3.673-5.147 6.525-8.56 8.559-6.688 3.738-12.755 3.607-18.2-.394m12.2 16.233l-5.805 15.348.984 79.686-15.249 15.347-9.05-14.265 15.838-82.243V89.646l1.674-6.887m-32.268 134.975l6.099-17.314m61.977 4.623c-20.133-.131-34.989-.525-44.563-1.18-8.921-.853-14.265-1.804-16.036-2.853m-1.379-.59l.788-2.165c-2.81-16.033-3.858-36.757-3.147-62.175m40.433 261.586c-3.541-20.987-5.805-35.087-6.788-42.302-2.033-15.675-2.951-29.546-2.756-41.614-2.163-9.64-3.639-21.348-4.427-35.12-.261-4.198-.655-17.085-1.18-38.663m40.139-8.46c-4.264-3.213-4.462-10.1-.592-20.659l-.392-5.805h-.101m.001-1.476c6.13-14.783 10.36-34 12.691-57.648L671.18 171.3c-9.221 17.141-17.879 30.323-25.972 39.548m-.391-5.805l-.101-1.476M607.235 89.646c1.902 2.164 6.33 2.82 13.281 1.967m-337.827 52.338l3.935 95.13m336.353 172.358a327.644 327.644 0 0 1-2.164-13.773c-9.183 3.147-17.053 3.147-23.61 0m52.729 27.94c-5.837 1.901-12.166 1.901-18.987 0"/></g><g><path fill="none" stroke="#000" stroke-linecap="round" stroke-linejoin="round" d="M621.501 44.196c1.246-.655 2.491-1.115 3.738-1.377a12.865 12.865 0 0 1 3.542-.099c1.771.131 3.541.624 5.313 1.476m-19.184-.492a14.06 14.06 0 0 0-3.541-1.476 11.82 11.82 0 0 0-3.052-.393c-1.376 0-2.753.13-4.131.393m12.002 5.313l-2.262 11.313c1.968 1.967 4.656 2.329 8.066 1.082m1.28 6.494c-4.068.459-7.806.197-11.216-.787"/></g></g><g><path fill="#271815" d="M431.928 408.882v9.936l41.712 7.083c10.69.59 17.51-1.476 20.461-6.197-1.835-4.329-5.247-7.576-10.231-9.739-7.147-1.116-13.15-4.033-18.002-8.756-16.724 12.264-28.037 14.82-33.94 7.673m-7.772 6.196c-14.822 10.362-24.922 12.594-30.3 6.69v8.164c3.411 4.527 10.592 8.823 21.544 12.89 18.758 3.737 27.021 1.541 24.792-6.593l-16.036-21.151z"/><path fill="#DC9A72" d="M433.994 128.505l-14.659 4.132 14.167 12.396c5.837-6.624 10.132-9.378 12.887-8.263l3.345-.394-15.74-7.871m-19.971-75.062l1.181 13.97.098 1.082c7.346 9.445 14.56 14.56 21.643 15.348 7.083.787 9.871-3.378 8.362-12.494l-2.263-2.952c-7.952 5.012-17.627.028-29.021-14.954m34.924-32.562c-.738.062-1.427.127-2.066.196.75-.061 1.504-.061 2.263 0-.076-.018-.141-.083-.197-.196m-15.839 1.672a57.847 57.847 0 0 0-4.82 1.181h-4.132c-8.001-.524-11.937 3.05-11.805 10.724-1.443-.591-2.492-.328-3.148.787-.721.984-1.049 2.886-.983 5.706 0 5.575 1.935 9.74 5.805 12.494 11.394 14.981 21.068 19.966 29.021 14.954 2.886-2.099 5.083-6.067 6.592-11.904l.492-2.164c1.573-7.937 2.131-15.348 1.672-22.234-2.952-1.64-6.657-1.508-11.117.394 4.459-1.902 8.165-2.034 11.117-.394a55.559 55.559 0 0 0-2.066-11.019h-.59a14.015 14.015 0 0 0-2.263 0l-4.131.197c-3.479.131-6.693.557-9.644 1.278m11.412 12.691a2.875 2.875 0 0 1 1.771-.59c.59 0 1.115.196 1.573.59.459.394.689.886.689 1.476 0 .854-.229 1.476-.689 1.87-.458.393-.983.59-1.573.59a2.882 2.882 0 0 1-1.771-.59c-.459-.394-.688-1.016-.688-1.87 0-.591.229-1.082.688-1.476m-15.543-.394c.722 0 1.312.197 1.771.591.393.393.59.951.59 1.672s-.197 1.279-.59 1.672a3.345 3.345 0 0 1-1.181.591h-.59c-.656 0-1.181-.197-1.574-.591-.393-.393-.59-.951-.59-1.672 0-.591.13-1.083.393-1.476l.197-.197c.393-.393.918-.59 1.574-.59m-6.789-2.163c3.738-2.034 7.837-2.034 12.297 0-4.459-2.035-8.558-2.035-12.297 0m16.232 17.51c1.443-.066 2.82-.524 4.132-1.377l-2.854-11.707 2.854 11.707c-1.312.853-2.688 1.311-4.132 1.377-1.443.131-2.984-.099-4.624-.689 1.641.591 3.182.82 4.624.689m.984 6.296c1.902 0 3.607-.229 5.116-.688-1.508.459-3.213.688-5.116.688-2.557.066-5.313-.23-8.264-.885 2.952.655 5.707.951 8.264.885m42.401 59.42c-3.936-.459-6.658 0-8.164 1.378-4.854 5.836-7.084 11.674-6.69 17.511h22.135v-17.511c-2.821-.656-5.246-1.115-7.281-1.378z"/><path d="M430.748 35.441c-.459-.394-1.049-.591-1.771-.591-.656 0-1.181.197-1.574.591l-.197.197c-.262.393-.393.885-.393 1.476 0 .721.197 1.279.59 1.672.394.394.918.591 1.574.591h.59a3.337 3.337 0 0 0 1.181-.591c.393-.393.59-.951.59-1.672-.001-.722-.198-1.281-.59-1.673m15.543-.787c-.656 0-1.246.196-1.771.59-.459.394-.688.886-.688 1.476 0 .854.229 1.476.688 1.87.525.393 1.115.59 1.771.59.59 0 1.115-.197 1.573-.59.459-.394.689-1.016.689-1.87 0-.59-.229-1.082-.689-1.476a2.343 2.343 0 0 0-1.573-.59z"/><path fill="#302110" d="M428.288 23.733a57.847 57.847 0 0 1 4.82-1.181c2.951-.721 6.165-1.147 9.642-1.279l4.131-.197a83.73 83.73 0 0 1 2.066-.196c-3.214-6.362-7.248-10.428-12.1-12.199-4.789-1.836-10.1-1.935-15.938-.295-5.837 1.443-9.903 4.657-12.199 9.641-2.36 4.919-2.197 10.657.492 17.216.656-1.114 1.706-1.377 3.148-.787-.132-7.673 3.804-11.248 11.805-10.724h4.133z"/><path fill="#D2B094" d="M475.214 308.438l5.805-96.803c-25.972 7.74-55.125 12.724-87.458 14.954l6.984 92.572-6.689 102.608c5.378 5.903 15.478 3.672 30.3-6.69l11.805-73.585 14.462-91.491-14.462 91.491-4.033 67.389c5.902 7.147 17.216 4.591 33.94-7.674l9.346-92.771z"/><path fill="#417021" d="M475.608 165.102a222.978 222.978 0 0 1-10.232 2.853c-13.313 3.607-28.366 6.395-45.155 8.362-11.149-7.149-21.643-16.396-31.48-27.743v78.013h4.821c32.333-2.23 61.486-7.214 87.458-14.954.065-1.377 1.541-2.689 4.427-3.935l-9.839-42.596m-1.967-47.811c1.506-1.378 4.229-1.837 8.164-1.378 2.035.263 4.46.722 7.28 1.378v17.511h-17.512c-1.574.131-3.115.262-4.623.393-9.248.459-14.987.853-17.216 1.181l-3.345.394c-2.754-1.115-7.05 1.64-12.887 8.263l52.336 15.544c6.429 1.246 13.15-.689 20.167-5.805 3.87-9.182 3.87-17.052 0-23.611-6.425-11.805-16.689-23.873-30.791-36.203-14.166-12.461-24.135-20.332-29.907-23.61 1.508 9.116-1.279 13.281-8.362 12.494-7.083-.788-14.297-5.903-21.643-15.348l-5.509-.689c-26.496 20.004-35.22 45.418-26.169 76.243l5.116 4.526c9.837 11.346 20.332 20.594 31.48 27.743 16.79-1.968 31.842-4.755 45.155-8.362a222.623 222.623 0 0 0 10.232-2.853l10.229-4.525-52.336-15.544-14.167-12.396-6.395-8.756 6.395 8.756 14.659-4.132 15.74 7.87c2.229-.328 7.968-.721 17.216-1.181v-.393c-.391-5.836 1.839-11.674 6.693-17.51z"/><g><path fill="none" stroke="#000" stroke-linecap="round" stroke-linejoin="round" d="M451.8 32.096c-2.952-1.64-6.657-1.508-11.117.394m-18.495.197c3.738-2.034 7.837-2.034 12.297 0m-.688 16.821c1.64.59 3.181.82 4.624.689 1.443-.066 2.82-.524 4.132-1.377l-2.854-11.707m-8.559 18.495c2.952.655 5.707.951 8.264.885 1.902 0 3.607-.229 5.116-.688"/></g><g><path fill="none" stroke="#000" stroke-width="2" stroke-linecap="round" stroke-linejoin="round" d="M466.95 134.802c-.394-5.837 1.837-11.674 6.69-17.511 1.506-1.378 4.229-1.837 8.164-1.378 2.035.263 4.46.722 7.28 1.378v17.511h-17.512c-1.574.131-3.115.262-4.623.393-9.248.459-14.987.853-17.216 1.181l-3.345.394c-2.754-1.115-7.05 1.64-12.887 8.263l52.336 15.544c6.429 1.246 13.15-.689 20.167-5.805 3.87-9.182 3.87-17.052 0-23.611-6.425-11.805-16.689-23.873-30.791-36.203-14.166-12.461-24.135-20.332-29.907-23.61 1.508 9.116-1.279 13.281-8.362 12.494-7.083-.788-14.297-5.903-21.643-15.348l-5.509-.689c-26.496 20.004-35.22 45.418-26.169 76.243l5.116 4.526c9.837 11.346 20.332 20.594 31.48 27.743 16.79-1.968 31.842-4.755 45.155-8.362a222.623 222.623 0 0 0 10.232-2.853l10.229-4.525m-14.262-25.775h-4.623m18.495 72.897l-4.427 3.935-5.805 96.803-9.346 92.771c4.852 4.723 10.854 7.64 18.002 8.756 4.984 2.163 8.396 5.41 10.231 9.739-2.951 4.722-9.771 6.787-20.461 6.197l-41.712-7.083v-9.936l4.033-67.389-11.805 73.585 16.036 21.151c2.229 8.134-6.034 10.33-24.792 6.593-10.952-4.066-18.133-8.362-21.544-12.89v-8.164l6.689-102.608-6.984-92.572h-4.821v-78.013m96.706 59.125l-9.837-42.597M409.202 35.244c.656-1.114 1.706-1.377 3.148-.787-.132-7.673 3.804-11.248 11.805-10.724h4.132a57.847 57.847 0 0 1 4.82-1.181c2.951-.721 6.165-1.147 9.642-1.279l4.181-.197m2.017-.195c-3.214-6.362-7.248-10.428-12.1-12.199-4.789-1.836-10.1-1.935-15.938-.295-5.837 1.443-9.903 4.657-12.199 9.641-2.36 4.919-2.197 10.657.492 17.216-.721.984-1.049 2.886-.983 5.706 0 5.575 1.935 9.74 5.805 12.494 11.394 14.981 21.068 19.966 29.021 14.954 2.886-2.099 5.083-6.067 6.592-11.904l.492-2.164c1.573-7.937 2.131-15.348 1.672-22.234m-2.854-11.215c.056.113.138.178.246.196a14.007 14.007 0 0 0-2.263 0m2.263 0h.541a55.559 55.559 0 0 1 2.066 11.019m-36.498 36.399l-.098-1.082-1.181-13.97m35.613 3.05c-.854 4.132-2.067 8.428-3.64 12.888a23.76 23.76 0 0 1-.689 1.968m4.427 65.026l-15.74-7.87-14.659 4.132 14.167 12.396m-14.167-12.396l-6.395-8.756m-89.129 91.59v19.674m112.15 106.348l14.462-91.491m-26.267 165.076c-14.822 10.362-24.922 12.594-30.3 6.69m87.163-210.134c-25.972 7.74-55.125 12.724-87.458 14.954m72.307 174.62c-16.724 12.265-28.038 14.821-33.94 7.674"/></g></g></svg>