
<svg xmlns="http://www.w3.org/2000/svg" version="1.1" xmlns:xlink="http://www.w3.org/1999/xlink" preserveAspectRatio="none" x="0px" y="0px" width="285px" height="427px" viewBox="0 0 285 427">
<defs>
<linearGradient id="Gradient_1" gradientUnits="userSpaceOnUse" x1="221.65" y1="285.5" x2="195.45000000000002" y2="285.5" spreadMethod="pad">
<stop  offset="0%" stop-color="#585858" stop-opacity="0"/>

<stop  offset="14.901960784313726%" stop-color="#000000" stop-opacity="0.3411764705882353"/>

<stop  offset="100%" stop-color="#FFFFFF" stop-opacity="0"/>
</linearGradient>

<linearGradient id="Gradient_2" gradientUnits="userSpaceOnUse" x1="62.699999999999996" y1="285.5" x2="88.9" y2="285.5" spreadMethod="pad">
<stop  offset="0%" stop-color="#585858" stop-opacity="0"/>

<stop  offset="14.901960784313726%" stop-color="#000000" stop-opacity="0.3411764705882353"/>

<stop  offset="100%" stop-color="#FFFFFF" stop-opacity="0"/>
</linearGradient>

<linearGradient id="Gradient_3" gradientUnits="userSpaceOnUse" x1="105.20000000000002" y1="39" x2="181.4" y2="39" spreadMethod="pad">
<stop  offset="0%" stop-color="#898989"/>

<stop  offset="41.568627450980394%" stop-color="#BFBFBF"/>

<stop  offset="100%" stop-color="#595959"/>
</linearGradient>

<g id="Layer0_0_FILL">
<path fill="#FFFFFF" stroke="none" d="
M 209.4 123.7
Q 142.6 114.45 75.65 123.7 142.6 137.5 209.4 123.7
M 228.35 174.75
Q 224.2 149.65 209.4 123.7 142.6 137.5 75.65 123.7 60.9 149.65 56.7 174.75
L 56.7 385.9
Q 70.35 397.5 102.1 401.85 117.9 403.9 134.1 404.1 138.25 403.9 142.6 403.9 146.75 403.9 150.95 404.1 167.1 403.9 182.95 401.85 214.75 397.5 228.35 385.9
L 228.35 174.75
M 89 199.35
L 89 381.6 62.8 375.95 62.8 189.8 89 199.35
M 221.65 375.95
L 195.4 381.6 195.4 199.35 221.65 189.8 221.65 375.95 Z"/>

<path fill="#999999" stroke="none" d="
M 142.15 23.4
Q 121.4 23.55 105.25 27.25 114.65 33.4 141.55 33.55 168.95 33.75 181.45 27.25 164.05 23.25 142.15 23.4 Z"/>

<path fill="#C0C0C0" stroke="none" d="
M 110.3 47.95
L 105.25 44.85 105.6 52.9 110.3 55.2 110.3 47.95
M 181.45 44.85
L 176.4 47.95 176.4 55.2 181.25 53.75 181.45 44.85 Z"/>

<path fill="url(#Gradient_1)" stroke="none" d="
M 195.4 381.6
L 221.65 375.95 221.65 189.8 195.4 199.35 195.4 381.6 Z"/>

<path fill="url(#Gradient_2)" stroke="none" d="
M 89 381.6
L 89 199.35 62.8 189.8 62.8 375.95 89 381.6 Z"/>

<path fill="#999999" fill-opacity="0.6196078431372549" stroke="none" d="
M 176.4 55.2
L 176.4 47.95
Q 167.85 51.1 144.3 51.1 120.65 51.1 110.3 47.95
L 110.3 55.2
Q 143.3 61.6 176.4 55.2
M 176.4 61.9
L 176.4 55.2
Q 143.3 61.6 110.3 55.2
L 110.3 61.9
Q 105.6 72.4 101.8 80.4 94.45 95.6 89.7 101.85 81.7 112.75 75.65 123.7 142.6 114.45 209.4 123.7 203.3 112.75 195.25 101.85 193.5 99.55 185.95 82.9 177.9 65.2 176.4 61.9 Z"/>

<path fill="url(#Gradient_3)" stroke="none" d="
M 181.45 44.85
L 181.45 27.25
Q 168.95 33.75 141.55 33.55 114.65 33.4 105.25 27.25
L 105.25 44.85 110.3 47.95
Q 120.65 51.1 144.3 51.1 167.85 51.1 176.4 47.95
L 181.45 44.85 Z"/>
</g>

<path id="Layer0_0_1_STROKES" stroke="#151515" stroke-width="3" stroke-linejoin="round" stroke-linecap="round" fill="none" d="
M 181.45 44.85
L 181.25 53.75 176.4 55.2 176.4 61.9
Q 177.9 65.2 185.95 82.9 193.5 99.55 195.25 101.85 203.3 112.75 209.4 123.7 224.2 149.65 228.35 174.75
L 228.35 385.9
Q 214.75 397.5 182.95 401.85 167.1 403.9 150.95 404.1 146.75 403.9 142.6 403.9 138.25 403.9 134.1 404.1 117.9 403.9 102.1 401.85 70.35 397.5 56.7 385.9
L 56.7 174.75
Q 60.9 149.65 75.65 123.7 81.7 112.75 89.7 101.85 94.45 95.6 101.8 80.4 105.6 72.4 110.3 61.9
L 110.3 55.2 105.6 52.9 105.25 44.85
M 110.3 55.2
Q 143.3 61.6 176.4 55.2"/>

<path id="Layer0_0_2_STROKES" stroke="#333333" stroke-width="3" stroke-linejoin="round" stroke-linecap="round" fill="none" d="
M 181.45 44.85
L 181.45 27.25
Q 168.95 33.75 141.55 33.55 114.65 33.4 105.25 27.25
L 105.25 44.85 110.3 47.95
Q 120.65 51.1 144.3 51.1 167.85 51.1 176.4 47.95
L 181.45 44.85 Z
M 181.45 27.25
Q 164.05 23.25 142.15 23.4 121.4 23.55 105.25 27.25"/>

<path id="Layer0_0_3_STROKES" stroke="#362318" stroke-width="1" stroke-linejoin="round" stroke-linecap="round" fill="none" d="
M 209.4 123.7
Q 142.6 114.45 75.65 123.7 142.6 137.5 209.4 123.7 Z"/>
</defs>

<g transform="matrix( 1, 0, 0, 1, 0,0) ">
<use xlink:href="#Layer0_0_FILL"/>

<use xlink:href="#Layer0_0_1_STROKES"/>

<use xlink:href="#Layer0_0_2_STROKES"/>

<use xlink:href="#Layer0_0_3_STROKES"/>
</g>
</svg>
