<svg xmlns="http://www.w3.org/2000/svg" xmlns:xlink="http://www.w3.org/1999/xlink" preserveAspectRatio="none" width="285" height="427" viewBox="0 0 285 427"><defs><linearGradient id="a" gradientUnits="userSpaceOnUse" x1="221.65" y1="285.5" x2="195.45" y2="285.5" spreadMethod="pad"><stop offset="0%" stop-color="#585858" stop-opacity="0"/><stop offset="14.902%" stop-opacity=".341"/><stop offset="100%" stop-color="#FFF" stop-opacity="0"/></linearGradient><linearGradient id="b" gradientUnits="userSpaceOnUse" x1="62.7" y1="285.5" x2="88.9" y2="285.5" spreadMethod="pad"><stop offset="0%" stop-color="#585858" stop-opacity="0"/><stop offset="14.902%" stop-opacity=".341"/><stop offset="100%" stop-color="#FFF" stop-opacity="0"/></linearGradient><linearGradient id="c" gradientUnits="userSpaceOnUse" x1="105.2" y1="39" x2="181.4" y2="39" spreadMethod="pad"><stop offset="0%" stop-color="#898989"/><stop offset="41.569%" stop-color="#BFBFBF"/><stop offset="100%" stop-color="#595959"/></linearGradient><g id="d"><path fill="#FFF" d="M209.4 123.7q-66.8-9.25-133.75 0 66.95 13.8 133.75 0m18.95 51.05q-4.15-25.1-18.95-51.05-66.8 13.8-133.75 0-14.75 25.95-18.95 51.05V385.9q13.65 11.6 45.4 15.95 15.8 2.05 32 2.25 4.15-.2 8.5-.2 4.15 0 8.35.2 16.15-.2 32-2.25 31.8-4.35 45.4-15.95V174.75M89 199.35V381.6l-26.2-5.65V189.8l26.2 9.55m132.65 176.6l-26.25 5.65V199.35l26.25-9.55v186.15z"/><path fill="#999" d="M142.15 23.4q-20.75.15-36.9 3.85 9.4 6.15 36.3 6.3 27.4.2 39.9-6.3-17.4-4-39.3-3.85z"/><path fill="silver" d="M110.3 47.95l-5.05-3.1.35 8.05 4.7 2.3v-7.25m71.15-3.1l-5.05 3.1v7.25l4.85-1.45.2-8.9z"/><path fill="url(#a)" d="M195.4 381.6l26.25-5.65V189.8l-26.25 9.55V381.6z"/><path fill="url(#b)" d="M89 381.6V199.35l-26.2-9.55v186.15L89 381.6z"/><path fill="#999" fill-opacity=".62" d="M176.4 55.2v-7.25q-8.55 3.15-32.1 3.15-23.65 0-34-3.15v7.25q33 6.4 66.1 0m0 6.7v-6.7q-33.1 6.4-66.1 0v6.7q-4.7 10.5-8.5 18.5-7.35 15.2-12.1 21.45-8 10.9-14.05 21.85 66.95-9.25 133.75 0-6.1-10.95-14.15-21.85-1.75-2.3-9.3-18.95l-9.55-21z"/><path fill="url(#c)" d="M181.45 44.85v-17.6q-12.5 6.5-39.9 6.3-26.9-.15-36.3-6.3v17.6l5.05 3.1q10.35 3.15 34 3.15 23.55 0 32.1-3.15l5.05-3.1z"/></g><path id="e" stroke="#151515" stroke-width="3" stroke-linejoin="round" stroke-linecap="round" fill="none" d="M181.45 44.85l-.2 8.9-4.85 1.45v6.7l9.55 21q7.55 16.65 9.3 18.95 8.05 10.9 14.15 21.85 14.8 25.95 18.95 51.05V385.9q-13.6 11.6-45.4 15.95-15.85 2.05-32 2.25-4.2-.2-8.35-.2-4.35 0-8.5.2-16.2-.2-32-2.25-31.75-4.35-45.4-15.95V174.75q4.2-25.1 18.95-51.05 6.05-10.95 14.05-21.85 4.75-6.25 12.1-21.45 3.8-8 8.5-18.5v-6.7l-4.7-2.3-.35-8.05m5.05 10.35q33 6.4 66.1 0"/><path id="f" stroke="#333" stroke-width="3" stroke-linejoin="round" stroke-linecap="round" fill="none" d="M181.45 44.85v-17.6q-12.5 6.5-39.9 6.3-26.9-.15-36.3-6.3v17.6l5.05 3.1q10.35 3.15 34 3.15 23.55 0 32.1-3.15l5.05-3.1zm0-17.6q-17.4-4-39.3-3.85-20.75.15-36.9 3.85"/><path id="g" stroke="#362318" stroke-width="1" stroke-linejoin="round" stroke-linecap="round" fill="none" d="M209.4 123.7q-66.8-9.25-133.75 0 66.95 13.8 133.75 0z"/></defs><g><use xlink:href="#d"/><use xlink:href="#e"/><use xlink:href="#f"/><use xlink:href="#g"/></g></svg>