<svg xmlns="http://www.w3.org/2000/svg" width="900" height="450" viewBox="0 0 900 450"><path fill="#CCC" d="M289.968 6.753c.37.074.222.112-.445.112-.666.074-1.148.111-1.444.111l-.888 2.444c.222.148.407.444.555.889.37.666 1.111 1.296 2.222 1.889 1.037-.148 1.703-.408 1.999-.778.149-.296.333-.481.556-.555.148-.223.222-.704.222-1.444 0-.814-.186-1.37-.555-1.666-.37-.296-1.074-.629-2.111-1h-.111M681.44 426.109c-.813 0-1.481.259-2 .777-.593.592-.888 1.258-.888 2 0 .74.295 1.369.888 1.888.519.593 1.187.89 2 .89.74 0 1.369-.297 1.888-.89.593-.519.89-1.147.89-1.888 0-.742-.297-1.408-.89-2a2.57 2.57 0 0 0-1.888-.777m-44.768-59.431c.592.591 1.26.888 2 .888s1.369-.297 1.888-.888c.593-.594.89-1.258.89-2s-.297-1.371-.89-1.888c-.519-.595-1.147-.89-1.888-.89s-1.408.295-2 .89c-.593.517-.888 1.146-.888 1.888s.295 1.406.888 2m106.199-87.537c-.591-.593-1.259-.89-1.999-.89-.739 0-1.369.297-1.89.89-.59.519-.887 1.147-.887 1.887 0 .742.297 1.408.887 2.001.521.519 1.15.776 1.89.776s1.408-.258 1.999-.776c.521-.593.778-1.259.778-2.001 0-.74-.257-1.369-.778-1.887M250.087 421.332a2.567 2.567 0 0 0-1.888-.776c-.741 0-1.407.258-2 .776-.518.593-.777 1.259-.777 2.001 0 .739.259 1.368.777 1.888.593.592 1.259.889 2 .889.74 0 1.37-.297 1.888-.889.593-.52.889-1.148.889-1.888.001-.742-.295-1.408-.889-2.001m-57.653-112.42c-.741 0-1.407.296-2 .888a2.57 2.57 0 0 0-.778 1.89c0 .813.259 1.48.778 1.998.592.593 1.258.89 2 .89.74 0 1.37-.297 1.889-.89.592-.518.889-1.185.889-1.998 0-.742-.296-1.371-.889-1.89-.519-.592-1.15-.888-1.889-.888m6.553-139.526c.593-.519.889-1.148.889-1.889 0-.741-.296-1.407-.889-2a2.568 2.568 0 0 0-1.888-.778c-.741 0-1.407.259-2 .778-.592.592-.889 1.258-.889 2 0 .741.296 1.37.889 1.889.593.592 1.259.888 2 .888.74 0 1.371-.295 1.888-.888m-17.774-85.537c0-.814-.259-1.48-.776-1.999-.594-.593-1.26-.89-2-.89s-1.37.297-1.888.89c-.593.519-.89 1.185-.89 1.999 0 .741.296 1.37.89 1.889.518.592 1.147.889 1.888.889.741 0 1.407-.296 2-.889a2.577 2.577 0 0 0 .776-1.889m18.663-27.995c0-.741-.296-1.37-.889-1.889-.518-.592-1.148-.889-1.888-.889-.741 0-1.407.296-2 .889-.592.519-.889 1.148-.889 1.889 0 .814.296 1.481.889 2 .593.592 1.259.888 2 .888.74 0 1.37-.296 1.888-.888.594-.519.889-1.185.889-2m515.112 46.657c-.593-.592-1.259-.889-1.998-.889-.742 0-1.408.296-2.001.889-.519.519-.776 1.148-.776 1.889s.258 1.407.776 2c.593.519 1.259.778 2.001.778.739 0 1.405-.259 1.998-.778.519-.592.779-1.259.779-2s-.26-1.37-.779-1.889m-36.435-81.76c0-.741-.261-1.37-.779-1.889-.592-.592-1.258-.889-1.998-.889-.742 0-1.371.296-1.89.889-.593.519-.888 1.147-.888 1.889 0 .74.295 1.407.888 1.999a2.57 2.57 0 0 0 1.89.778c.74 0 1.406-.259 1.998-.778.518-.592.779-1.259.779-1.999M627.34 69.185c.595.592 1.258.888 2 .888s1.371-.296 1.888-.888c.595-.519.89-1.148.89-1.889 0-.741-.295-1.407-.89-2-.517-.592-1.146-.889-1.888-.889s-1.405.296-2 .889c-.517.592-.777 1.258-.777 2 0 .741.26 1.371.777 1.889z"/><path fill="#0D0D0D" d="M762.424 9.198c-1.408-1.852-3.333-2.667-5.777-2.444H290.079c1.037.371 1.741.704 2.111 1 .37.296.555.852.555 1.666 0 .74-.074 1.222-.222 1.444-.223.074-.407.259-.556.555-.296.37-.962.629-1.999.778-1.111-.592-1.852-1.223-2.222-1.889-.148-.445-.333-.741-.555-.889l.888-2.444c.296 0 .778-.037 1.444-.111.667 0 .814-.038.445-.112H144.443c-1.48-.296-3.036.149-4.666 1.333-1.851 1.481-2.704 3.406-2.555 5.777v421.91c-.222 1.556.296 3.111 1.556 4.665 1.481 1.927 3.37 2.703 5.665 2.334h612.203c1.629.369 3.222-.036 4.777-1.224 1.851-1.479 2.627-3.406 2.332-5.775V13.864c.296-1.556-.147-3.111-1.331-4.666M629.34 70.073c-.742 0-1.405-.296-2-.888a2.577 2.577 0 0 1-.777-1.889c0-.741.261-1.407.777-2 .595-.592 1.258-.889 2-.889s1.371.296 1.888.889c.595.592.89 1.258.89 2 0 .741-.295 1.37-.89 1.889-.517.592-1.146.888-1.888.888M495.035 40.191c4.222.444 9.221 2.073 14.997 4.887l6.443 2.444 2.667-.778c2.369.445 5.554 1.703 9.553 3.777 6.073 3.184 11.554 7.332 16.439 12.442l.556.333c1.927.741 6.518 3.776 13.775 9.109 7.11 5.332 13.183 10.256 18.219 14.774l7.11 6.776c.221.223.739.815 1.556 1.778.963 1.185 1.888 2.702 2.776 4.554 1.48 1.556 3.923 5.554 7.332 11.997a120.893 120.893 0 0 0 2.442 4.11c.89 1.333 1.891 2.814 3.001 4.444.222.296.408.592.556.888.073 0 .147.037.222.112 3.406 2 5.109 4.109 5.109 6.331 0 1.186 1.369 4.186 4.111 8.999 3.775 6.22 6.592 11.701 8.442 16.44 3.777 9.406 6.628 19.811 8.553 31.215 1.408 8.591 2.111 16.107 2.111 22.551 0 .593-.63 5.184-1.888 13.774v1.111c.221 8.444.11 16.07-.334 22.884.147 2.37.073 4.146-.222 5.331-.074 4.075-1.445 10.259-4.111 18.553-3.109 10.072-7.331 20.402-12.665 30.994-.739 5.702-5.515 14.107-14.328 25.216-7.776 9.776-15.997 18.366-24.663 25.771-.444.371-.887.742-1.332 1.111a4.49 4.49 0 0 1-.556.668c-.666.442-1.295.964-1.89 1.554l-16.773 13.886c-1.332 1.481-2.369 2.482-3.109 3.001-1.185.961-2.369 1.517-3.556 1.666-5.629 3.257-10.295 5.887-13.997 7.887a18.94 18.94 0 0 0-1.222.666c-5.704 3.259-8.739 4.962-9.11 5.109a2108.63 2108.63 0 0 1-7.553 4.001 11.247 11.247 0 0 1-4.888 1.111l-.445.221c-2.813 3.111-5.035 4.926-6.665 5.444-3.63 1.035-13.478 2.185-29.549 3.443-2 .221-3.999.444-5.999.666l-2.111.334a21.405 21.405 0 0 1-3.332 1.442c-2.074.595-5.221.779-9.441.556-3.704.595-6.592.89-8.665.89-1.259 0-4.184-.187-8.776-.556-5.109-.444-8.701-.851-10.775-1.222l-3.333-.223c-.74.147-2.185.112-4.332-.111-2.222-.147-3.963-.371-5.221-.666-8.443-.815-15.96-2.185-22.551-4.109-8.591-2.666-14.145-5.962-16.663-9.887l-21.773-11.443c-3.259-.221-7.036-1.776-11.332-4.665-5.851-3.777-11.256-9.184-16.218-16.218-7.257-6.889-13.923-13.813-19.996-20.774l-2.444-.777c-11.552-15.923-18.107-25.773-19.663-29.549-.592-3.259-2.666-8.331-6.22-15.22-.667-1.332-1.26-2.852-1.777-4.555-2.889-1.405-4.666-3.259-5.333-5.554-.962-3.407-2.073-12.886-3.333-28.438a399.235 399.235 0 0 1-2.222-19.885c-.889-11.035-1.332-17.145-1.332-18.33 0-.963.147-2.518.443-4.666.371-2.222.741-3.888 1.111-4.999a493.23 493.23 0 0 1 2.333-18.995c-.593-5.258-.222-10.294 1.111-15.109 1.185-4.146 2.777-7.035 4.777-8.665l.666-1.777c.074-1.481.926-4.443 2.555-8.887 1.852-4.592 3.333-7.443 4.443-8.554.445-1.926.815-3.259 1.111-3.999.296-.667 1.11-1.815 2.444-3.444a430.508 430.508 0 0 1 8.776-14.774c.592-1.185 1.889-3.333 3.888-6.443 2.592-4.073 4.48-6.554 5.665-7.443 1.111-2.518 3.777-6.257 7.999-11.219 5.554-6.592 10.59-10.888 15.107-12.887l.667-.667c.223-.222 1.185-1.147 2.888-2.777 1.852-1.703 2.963-2.704 3.333-3 19.403-17.404 32.104-26.106 38.103-26.106.815 0 1.556.148 2.222.445.223.074 1.445-.297 3.667-1.111a45.539 45.539 0 0 0 1.777-.555 77.714 77.714 0 0 1 4.221-1.556l4.776-1.777c9.109-3.111 14.035-4.629 14.775-4.556 2.814-1.111 6.184-1.999 10.109-2.665 3.184-.519 6.109-.778 8.776-.778l12.441-1.333c1.482-.37 4.739-.852 9.776-1.444 5.924-.815 10.368-1.223 13.331-1.223 1.332 0 4.186.186 8.553.556.74.075 1.408.148 2.001.222 3.851.371 6.48.741 7.887 1.111 1.703.963 4.998 2.036 9.887 3.222 5.775 1.48 8.703 2.222 8.776 2.222l5.333 1.34m182.738-21.328a2.57 2.57 0 0 1 .779 1.889c0 .74-.261 1.407-.779 1.999-.592.519-1.258.778-1.998.778a2.571 2.571 0 0 1-1.89-.778c-.593-.592-.888-1.259-.888-1.999 0-.741.295-1.37.888-1.889.519-.592 1.147-.889 1.89-.889.741 0 1.407.297 1.998.889m35.217 82.76c.739 0 1.405.296 1.998.889.519.519.779 1.148.779 1.889s-.261 1.407-.779 2c-.593.519-1.259.778-1.998.778-.742 0-1.408-.259-2.001-.778-.519-.592-.776-1.259-.776-2s.258-1.37.776-1.889c.593-.593 1.259-.889 2.001-.889M198.987 53.966c.593.519.889 1.148.889 1.889 0 .814-.296 1.481-.889 2-.518.592-1.148.888-1.888.888-.741 0-1.407-.296-2-.888-.592-.519-.889-1.185-.889-2 0-.741.296-1.37.889-1.889.593-.592 1.259-.889 2-.889.74 0 1.371.297 1.888.889m-18.55 27.884c.517.519.776 1.185.776 1.999 0 .741-.259 1.37-.776 1.889-.594.592-1.26.889-2 .889s-1.37-.296-1.888-.889c-.593-.519-.89-1.147-.89-1.889 0-.814.296-1.48.89-1.999.518-.593 1.147-.89 1.888-.89.74 0 1.406.297 2 .89m19.439 85.648c0 .741-.296 1.37-.889 1.889-.518.592-1.148.888-1.888.888-.741 0-1.407-.296-2-.888-.592-.519-.889-1.148-.889-1.889 0-.741.296-1.407.889-2 .593-.519 1.259-.778 2-.778.74 0 1.37.259 1.888.778.594.592.889 1.258.889 2M190.434 309.8c.592-.592 1.258-.888 2-.888.74 0 1.37.296 1.889.888.592.519.889 1.147.889 1.89 0 .813-.296 1.48-.889 1.998-.519.593-1.149.89-1.889.89-.741 0-1.407-.297-2-.89-.519-.518-.778-1.185-.778-1.998 0-.743.26-1.372.778-1.89M248.2 420.556c.74 0 1.37.258 1.888.776.593.593.889 1.259.889 2.001 0 .739-.296 1.368-.889 1.888-.518.592-1.148.889-1.888.889-.741 0-1.407-.297-2-.889a2.575 2.575 0 0 1-.777-1.888c0-.742.259-1.408.777-2.001.592-.519 1.258-.776 2-.776m492.672-142.305c.74 0 1.408.297 1.999.89a2.56 2.56 0 0 1 .778 1.887c0 .742-.258 1.408-.778 2.001-.591.519-1.259.776-1.999.776a2.581 2.581 0 0 1-1.89-.776c-.59-.593-.887-1.259-.887-2.001 0-.739.297-1.368.887-1.887.521-.593 1.151-.89 1.89-.89m-102.2 89.314c-.74 0-1.408-.297-2-.888-.593-.594-.888-1.258-.888-2s.295-1.371.888-1.888c.592-.595 1.26-.89 2-.89s1.369.295 1.888.89c.593.517.89 1.146.89 1.888s-.297 1.406-.89 2c-.519.592-1.148.888-1.888.888m40.768 59.322c.519-.519 1.187-.777 2-.777.74 0 1.369.259 1.888.777.593.592.89 1.258.89 2 0 .74-.297 1.369-.89 1.888-.519.593-1.147.89-1.888.89-.813 0-1.481-.297-2-.89-.593-.519-.888-1.147-.888-1.888.001-.742.296-1.408.888-2m-115.086-69.541c-1.926 1.111-2.998 1.667-3.222 1.667-1.481 1.776-4.443 4.849-8.887 9.219l16.773-13.886a38.44 38.44 0 0 1-4.664 3m-55.877 34.327l-.111.221.445-.221h-.334m26.995-13.22c-1.406.813-2.704 1.59-3.889 2.332 3.702-2 8.368-4.63 13.997-7.887-1.259.372-4.628 2.222-10.108 5.555m93.534-156.745l.113.555v-1.111l-.113.556m-366.477 15.885c-.444-2.74-1.074-4.999-1.889-6.775a398.184 398.184 0 0 0 2.222 19.885c0-4.889-.111-9.259-.333-13.11m201.625 164.078l-.113.11 2.111-.334-1.998.224m-121.197-32.55c3.11 2.222 5.406 4.63 6.888 7.221l-.667.11 21.773 11.443-.334-.445c-17.625-11.256-29.179-19.18-34.659-23.772.741.813 3.074 2.629 6.999 5.443m-24.772-18.551l-.334-.113c-.74-.221-2.073-1.368-3.999-3.442a46.257 46.257 0 0 1-6.221-7.998l-3.555-3.999-2.444-.223c6.073 6.962 12.738 13.886 19.996 20.774l-3.443-4.999m3.999-270.166l.222-.444-.667.667.445-.223m56.432-35.103l2.444-.666 2.333-1.111-4.777 1.777m111.088-6.443l1.666.555c1.333.37 2.554.629 3.665.778l-5.331-1.333m-68.875-2.666l4.776-.666 3.888-1.333-12.441 1.333 3.777.666M269.417 159.61l.333-1.333-.666 1.777.333-.444m-5.999 29.439l-.222-5.221a491.26 491.26 0 0 0-2.333 18.995c1.26-2.369 2-4.517 2.222-6.443v-2.555l.333-4.776m16.885-55.655l3.444-3.555c1.258-2.962 3.037-6.702 5.332-11.219a428.594 428.594 0 0 0-8.776 14.774m236.173-85.871l-6.443-2.444 2.666 1.444c1.926.963 3.185 1.296 3.777 1z"/><path fill="#E0E0E0" d="M549.136 371.232c.74-.519 1.777-1.52 3.109-3.001l-6.665 4.667c1.187-.149 2.371-.705 3.556-1.666m-40.325 20.441c1.703 0 3.332-.371 4.888-1.111.147-.073 2.667-1.408 7.553-4.001a442.295 442.295 0 0 1-12.441 5.112m21.55-10.222c.371-.221.777-.444 1.222-.666a128.483 128.483 0 0 1 3.889-2.332c5.48-3.333 8.85-5.184 10.108-5.555l6.665-4.667c4.443-4.37 7.405-7.442 8.887-9.219 1.703-1.63 3.409-3.37 5.11-5.223l-25.327 18.442c-.371.295-3.517 1.888-9.442 4.775-5.999 2.814-9.776 4.814-11.332 5.999l-1.111.666c-1.037 1.703-2.777 3.186-5.22 4.443-2.667 1.261-4.444 2.445-5.333 3.557h.334a439.788 439.788 0 0 0 12.44-5.112c.371-.146 3.406-1.849 9.11-5.108M271.528 283.25l-1-3.443.111 1 .889 2.443m1.777 5.999l-1.777-5.999-.889-2.443.889 3.888c.517 1.702 1.111 3.222 1.777 4.554m101.534 100.534h.777l-2.666-1.111c.519.371 1.149.74 1.889 1.111m-22.773-25.439c-2.297-1.111-6.518-2.738-12.665-4.887-6.146-2.074-9.775-3.185-10.886-3.332a241.556 241.556 0 0 0 7.443 7.553c5.48 4.593 17.033 12.517 34.659 23.772.6.399 1.23.771 1.889 1.111l.222.11h.223l2.666 1.111c1.259 0 3-.406 5.221-1.222-2.295-1.185-5.406-3.777-9.331-7.776-1.407-1.479-4.222-4.591-8.443-9.332-3.555-4.072-5.888-6.184-6.999-6.331-1.037.299-2.37.038-3.999-.777m-34.215-13.887l.334.113-.334-.334v.221m-2.222-3.554l-1.667-2.666c-1.185-2.74-2.258-4.814-3.221-6.221-1.703-2.591-3.925-3.593-6.666-2.999l3.555 3.999 7.999 7.887m31.882-285.827c-10.22 6.517-17.441 11.85-21.662 15.996l-2.888 2.889-3.666 4.332c5.11-3.48 13.886-9.961 26.327-19.44 12.294-8.812 24.106-15.552 35.437-20.217l-2.444.666c-1.333.445-2.74.963-4.221 1.556-7.85 3.034-16.811 7.775-26.883 14.218m-21.662 15.996c4.221-4.146 11.442-9.479 21.662-15.996 10.072-6.443 19.033-11.184 26.883-14.219-.666.221-1.26.407-1.777.555-2.222.814-3.444 1.185-3.667 1.111-.666-.297-1.407-.445-2.222-.445-5.998 0-18.699 8.702-38.103 26.106l-2.776 2.888m120.42-43.435c-3.555 0-9.146.185-16.775.555l-3.888 1.333a301.773 301.773 0 0 1 20.663-1.888m-16.775.555c7.628-.37 13.22-.555 16.775-.555 3.851-1.037 8.33-1.518 13.442-1.444 1.185 0 2.332.037 3.443.111a88.537 88.537 0 0 0-2.001-.222c-4.367-.37-7.221-.556-8.553-.556-2.963 0-7.406.408-13.331 1.223-5.036.592-8.293 1.073-9.775 1.443z"/><path fill="#777779" d="M629.006 221.708l.113-.556c.221-7.999-.224-16.996-1.335-26.994-1.408-11.701-3.479-21.699-6.22-29.994 1.703 7.999 3.295 19.478 4.777 34.438 1.333 13.775 2.222 21.476 2.665 23.106m-291.16 150.079c4.296 2.889 8.072 4.444 11.332 4.665-.962-.666-10.146-7.626-27.55-20.883 4.962 7.035 10.368 12.441 16.218 16.218m-23.884-27.55l1.667 2.666 2.222 3.333.334.334 3.443 4.999c17.404 13.257 26.587 20.217 27.55 20.883l.667-.11c-1.482-2.591-3.777-4.999-6.888-7.221-3.925-2.814-6.258-4.63-6.999-5.443a240.468 240.468 0 0 1-7.443-7.553c-1.703-.669-3.518-1.706-5.444-3.111-3.405-2.444-6.442-5.368-9.109-8.777m-39.991-190.293c2.37-6.22 3.851-10.035 4.443-11.441-1.036 1.185-2.702 4.554-4.999 10.108-2.518 5.999-3.703 10.073-3.554 12.22.148-.593 1.518-4.221 4.11-10.887m3.888-17.106c-.296.74-.667 2.073-1.111 3.999l3.555-7.443c-1.333 1.629-2.148 2.776-2.444 3.444m-12.663 44.1c1.111-4.74 1.703-7.146 1.777-7.221l2.444-14.107-.333.444-5.888 23.773.222 5.221c.222-.889.814-3.591 1.778-8.11m-.889-12.219c-1.333 4.814-1.704 9.851-1.111 15.109l5.888-23.773c-2 1.629-3.592 4.518-4.777 8.664m19.441-38.881l-3.444 3.555-3.555 7.443 2.222.333 5.333-11.775-.556.444m23.883-34.77l3.11-3.11c4.147-4.074 6.998-6.628 8.554-7.666l3.666-4.332-.778.444-.445.223c-4.664 4.37-9.367 9.183-14.107 14.441m-7.554 9.888a149.226 149.226 0 0 1 3.667-5.667 2987.361 2987.361 0 0 1-5.443 6.333l-.778 3.777c.518-.741 1.369-2.222 2.554-4.443m-1.444-.223l-.333.889c1.852-2.147 3.666-4.258 5.443-6.333l.333-.333.444-.666c.223-.37 1.26-1.444 3.111-3.222 4.74-5.258 9.442-10.072 14.107-14.441-4.518 1.999-9.553 6.295-15.107 12.887-4.221 4.962-6.887 8.701-7.998 11.219m300.268 11.664a121.211 121.211 0 0 1-2.442-4.11c-3.409-6.443-5.852-10.441-7.332-11.997l4.665 8.887c.295.296 2.001 2.703 5.109 7.22m3.557 5.332a5.763 5.763 0 0 0-.556-.888 554.886 554.886 0 0 1-3.001-4.444c-3.108-4.517-4.814-6.924-5.109-7.221a252.493 252.493 0 0 0 12.997 23.662c5.259 8.591 8.258 13.516 8.999 14.774-3.479-8.664-7.923-17.292-13.33-25.883m.222.112c-.074-.075-.148-.112-.222-.112 5.407 8.591 9.851 17.219 13.33 25.883 1.999 3.63 3.22 6.036 3.665 7.221.519 1.333 1.222 4.443 2.111 9.332 2.74 8.295 4.812 18.292 6.22 29.994 1.111 9.998 1.556 18.996 1.335 26.994 1.258-8.591 1.888-13.182 1.888-13.774 0-6.444-.703-13.96-2.111-22.551-1.925-11.405-4.775-21.81-8.553-31.215-1.851-4.74-4.667-10.22-8.442-16.44-2.742-4.813-4.111-7.813-4.111-8.999-.001-2.224-1.704-4.334-5.11-6.333z"/><path fill="#949492" d="M270.639 280.807l-.111-1c-1.926-7.036-4.592-21.107-7.999-42.214.222 3.852.333 8.222.333 13.109 4.888 19.107 7.48 29.141 7.777 30.105m-7.777-30.105c1.26 15.553 2.37 25.031 3.333 28.438.667 2.295 2.444 4.148 5.333 5.554l-.889-3.888c-.297-.963-2.889-10.997-7.777-30.104m9.443-101.312c-1.628 4.444-2.481 7.406-2.555 8.887a276.379 276.379 0 0 1 6.998-17.441c-1.111 1.111-2.591 3.962-4.443 8.554m6.11-6.887l.555-1.333-2.222-.333a276.379 276.379 0 0 0-6.998 17.441l-.333 1.333-2.444 14.107 2.889-8.887c-.149-2.147 1.036-6.221 3.554-12.22 2.296-5.554 3.962-8.923 4.999-10.108m160.966 246.725c5.554.149 8.332.149 8.332 0-2.444-.147-9.998-.519-22.663-1.111 3.629.445 8.407.813 14.331 1.111m35.992-195.403l-.223.556.223.333c.074-.148.074-.445 0-.889m-3.888 10.22l2.554-6.11-.222-.222c-1.555 4.074-2.332 6.184-2.332 6.332z"/><path fill="#6F6F71" d="M463.375 401.781h.666l.113-.11-.779.11m.666 0h-.666l-12.107 1.998c4.221.224 7.367.039 9.441-.556 1.11-.368 2.222-.85 3.332-1.442m-42.435.888c-1.037-.147-1.666-.147-1.889 0l3.333.223c-.443-.076-.925-.15-1.444-.223m-40.769-14.107c-2.222.815-3.962 1.222-5.221 1.222 4.37 1.851 9.332 3.556 14.886 5.109 6.517 1.927 12.331 3.371 17.441 4.333l-.445-.666c-1.407-.519-6.554-2.001-15.441-4.444-5.036-1.406-8.776-3.26-11.22-5.554m-8.331 0a20.049 20.049 0 0 1-1.889-1.111l.334.445c.518.192 1.036.416 1.555.666m.445.11h-.223l-.222-.11a18.032 18.032 0 0 0-1.555-.666c2.518 3.925 8.072 7.221 16.663 9.887 6.59 1.925 14.107 3.294 22.551 4.109a42.024 42.024 0 0 1-2.222-2.666c-5.111-.962-10.925-2.406-17.441-4.333-5.554-1.554-10.516-3.259-14.886-5.109h-.777c-.74-.372-1.37-.741-1.888-1.112m-59.099-41.657c1.925 2.074 3.259 3.222 3.999 3.442v-.221l-2.222-3.333-7.998-7.887a46.302 46.302 0 0 0 6.221 7.999m8.554-267.055l-.222.444.778-.444 2.888-2.889-3.444 2.889m3.443-2.888l2.777-2.888c-.37.296-1.481 1.296-3.333 3a393.296 393.296 0 0 0-2.888 2.777l3.444-2.889m80.095-39.88c2.073-.445 4.295-.741 6.665-.888l4.444-.778c-2.667 0-5.593.259-8.776.778-3.925.666-7.294 1.554-10.109 2.665l2.11-.222 2.444-.555c.445-.297 1.517-.63 3.222-1m6.665-.888c3.85.147 6.59.11 8.22-.112l-3.776-.666-4.444.778m-128.306 93.091c2.222-4.519 3.813-7.591 4.776-9.22 1.481-2.37 4.295-5.962 8.442-10.775l.778-3.777a375.804 375.804 0 0 0-9.22 12.998c-2.295 4.517-4.074 8.257-5.332 11.219l.556-.445m13.997-23.773l.333-.889c-1.185.889-3.073 3.37-5.665 7.443-2 3.11-3.296 5.258-3.888 6.443a375.77 375.77 0 0 1 9.22-12.997m175.739 92.314l1.334-3.222-.223-.333-1.333 3.333.222.222z"/><path fill="#E0E0E0" fill-opacity=".612" d="M304.076 98.956a62.031 62.031 0 0 1 3.555-3.888c-1.852 1.778-2.889 2.852-3.111 3.222-.147.223-.296.444-.444.666m205.956-53.877c-5.776-2.814-10.775-4.443-14.997-4.887-1.111-.148-2.332-.408-3.665-.778l-1.666-.555c-.073 0-3.001-.741-8.776-2.222-4.889-1.186-8.184-2.259-9.887-3.222-1.406-.37-4.036-.74-7.887-1.111a51.834 51.834 0 0 0-3.443-.111c-5.112-.074-9.591.407-13.442 1.444-6.666.37-13.553 1-20.663 1.889l-4.776.666c-1.63.222-4.37.259-8.22.112-2.37.147-4.592.443-6.665.888-1.705.37-2.777.703-3.222 1l-2.444.555-2.11.222c-.741-.074-5.666 1.444-14.775 4.556l-2.333 1.111c-11.331 4.665-23.143 11.405-35.437 20.217-12.441 9.479-21.217 15.96-26.327 19.44-1.556 1.037-4.406 3.592-8.554 7.666l-3.11 3.11a61.726 61.726 0 0 0-3.555 3.888l-.333.333a149.662 149.662 0 0 0-3.667 5.667c-1.185 2.222-2.036 3.702-2.555 4.443-4.147 4.813-6.961 8.405-8.442 10.775-.963 1.629-2.555 4.702-4.776 9.22l-5.333 11.775-.555 1.333c-.592 1.407-2.073 5.221-4.443 11.441-2.592 6.666-3.962 10.294-4.109 10.887l-2.889 8.887c-.074.075-.666 2.481-1.777 7.221-.963 4.519-1.556 7.221-1.778 8.11l-.333 4.776v2.555c-.223 1.926-.962 4.074-2.222 6.443-.37 1.111-.74 2.777-1.111 4.999-.296 2.148-.443 3.703-.443 4.666 0 1.185.443 7.294 1.332 18.33.814 1.776 1.445 4.035 1.889 6.775 3.406 21.106 6.073 35.178 7.999 42.214l1 3.443 1.777 5.999c3.555 6.889 5.628 11.961 6.22 15.22 1.556 3.775 8.11 13.626 19.663 29.549l2.444.777 2.444.223c2.741-.594 4.962.408 6.666 2.999.962 1.406 2.036 3.48 3.221 6.221 2.667 3.408 5.703 6.333 9.109 8.776 1.926 1.405 3.741 2.442 5.444 3.111 1.111.147 4.74 1.258 10.886 3.332 6.147 2.148 10.368 3.775 12.665 4.887 1.628.815 2.961 1.076 3.999.778 1.111.147 3.443 2.259 6.999 6.331 4.221 4.741 7.036 7.853 8.443 9.332 3.925 3.999 7.035 6.592 9.331 7.776 2.444 2.295 6.184 4.148 11.22 5.554 8.887 2.443 14.034 3.926 15.441 4.444l.445.666c.74.963 1.48 1.851 2.222 2.666 1.258.295 3 .519 5.221.666 2.147.224 3.592.259 4.332.111.223-.147.852-.147 1.889 0 .519.073 1 .147 1.444.223 2.074.371 5.666.777 10.775 1.222 4.592.369 7.517.556 8.776.556 2.073 0 4.961-.295 8.665-.89l12.107-1.998.779-.11 1.998-.224c2-.222 3.999-.445 5.999-.666 16.071-1.259 25.919-2.408 29.549-3.443 1.63-.519 3.852-2.333 6.665-5.444l.111-.221c.889-1.111 2.666-2.296 5.333-3.557 2.442-1.258 4.183-2.74 5.22-4.443l1.111-.666c1.556-1.185 5.333-3.185 11.332-5.999 5.926-2.888 9.071-4.48 9.442-4.775l25.327-18.442a113.084 113.084 0 0 1-5.11 5.223c.224 0 1.296-.556 3.222-1.667a38.375 38.375 0 0 0 4.665-3 12.608 12.608 0 0 1 1.89-1.554c.222-.224.406-.444.556-.668.445-.369.888-.74 1.332-1.111 3.186-2.888 7.073-6.997 11.665-12.33 4.962-5.775 7.628-9.034 7.999-9.774-.371.74-3.037 3.999-7.999 9.774-4.592 5.333-8.479 9.442-11.665 12.33 8.666-7.405 16.887-15.995 24.663-25.771 8.813-11.108 13.589-19.514 14.328-25.216 5.334-10.592 9.556-20.922 12.665-30.994 2.666-8.294 4.037-14.478 4.111-18.553.295-1.185.369-2.961.222-5.331.444-6.814.555-14.44.334-22.884l-.113-.555c-.442-1.63-1.332-9.331-2.664-23.106-1.482-14.96-3.074-26.439-4.777-34.438-.89-4.888-1.593-7.999-2.111-9.332-.445-1.185-1.666-3.591-3.665-7.221-.741-1.258-3.74-6.184-8.999-14.774a252.367 252.367 0 0 1-12.997-23.662l-4.665-8.887c-.889-1.852-1.813-3.37-2.776-4.554-.816-.963-1.335-1.556-1.556-1.778l-7.11-6.776c-5.036-4.518-11.108-9.442-18.219-14.774-7.258-5.333-11.849-8.368-13.775-9.109l-.556-.333c-4.886-5.11-10.366-9.258-16.439-12.442-3.999-2.074-7.184-3.333-9.553-3.777l-2.667.778c-.592.296-1.851-.037-3.777-1l-2.673-1.446m-34.659 149.635l-1.334 3.222-2.554 6.11c0-.148.776-2.258 2.332-6.332l1.333-3.333.223-.556c.074.444.074.741 0 .889M445.157 340.46l-3.222-.777.333-1.556 3.111.666-.222 1.667m2.555 48.768c0 .149-2.777.149-8.332 0-5.924-.298-10.702-.666-14.331-1.111 12.665.592 20.219.963 22.663 1.111z"/><path fill="#A7A7A7" d="M441.936 339.683l3.222.777.223-1.667-3.111-.666-.334 1.556z"/><g><path fill="none" stroke="#C4C4C4" stroke-width="2" stroke-linecap="round" stroke-linejoin="round" d="M510.032 45.079l6.443 2.444m28.66 15.441l.556.333m53.21 53.1c.89 1.333 1.891 2.814 3.001 4.444.222.296.408.592.556.888m26.661 99.423v1.111m-56.323 128.75c-.444.371-.887.742-1.332 1.111a4.49 4.49 0 0 1-.556.668c-.666.442-1.295.964-1.89 1.554l-16.773 13.886m-6.665 4.666c-5.629 3.257-10.295 5.887-13.997 7.887a18.94 18.94 0 0 0-1.222.666c-5.704 3.259-8.739 4.962-9.11 5.109m-12.44 5.113l-.445.221m-36.215 8.887c-2 .221-3.999.444-5.999.666l-2.111.334m-93.09-13.885l-21.773-11.443m-27.55-20.884c-7.257-6.889-13.923-13.813-19.996-20.774m-38.77-84.093a399.235 399.235 0 0 1-2.222-19.885m.223-27.994a493.23 493.23 0 0 1 2.333-18.995m5.888-23.774l.666-1.777m10.553-24.883a430.508 430.508 0 0 1 8.776-14.774m32.66-37.993l.667-.667m51.989-33.103a77.714 77.714 0 0 1 4.221-1.556l4.776-1.777m33.661-7.998l12.441-1.333m60.21 4.665l5.331 1.333m98.757 68.985c.295.296 2.001 2.704 5.109 7.221m3.557 5.332c5.407 8.591 9.851 17.219 13.33 25.883m5.776 16.553c2.74 8.295 4.812 18.292 6.22 29.994 1.111 9.998 1.556 18.996 1.335 26.994M298.3 105.622c1.852-2.147 3.666-4.258 5.443-6.333l.333-.333m3.555-3.888c4.74-5.258 9.442-10.072 14.107-14.441m.668-.667l3.443-2.889m-21.773 21.885a62.031 62.031 0 0 1 3.555-3.888m-18.551 23.551a376.77 376.77 0 0 1 9.22-12.998m-35.104 78.207l5.888-23.773m.666-1.778a276.379 276.379 0 0 1 6.998-17.441l3.555-7.443m149.191-99.201c7.628-.37 13.22-.555 16.775-.555m-33.66 2.667l4.444-.778m-16.775 3.221l2.444-.555m-76.873 38.88c4.221-4.146 11.442-9.479 21.662-15.996 10.072-6.443 19.033-11.184 26.883-14.219m-25.216 329.595c-.962-.666-10.146-7.626-27.55-20.883m51.323 33.103h-.223l-.222-.11a18.032 18.032 0 0 0-1.555-.666m4.665 1.887l-2.666-1.111m34.993 10.554c-5.111-.962-10.925-2.406-17.441-4.333-5.554-1.554-10.516-3.259-14.886-5.109m88.425 11.997h-.666M271.528 283.25l-.889-2.443c-.296-.964-2.888-10.998-7.776-30.104m258.388 135.858a441.01 441.01 0 0 1-12.44 5.112m43.434-23.442l-6.665 4.667m46.88-43.99c-.371.74-3.037 3.999-7.999 9.774-4.592 5.333-8.479 9.442-11.665 12.33"/></g></svg>