<?xml version="1.0" encoding="utf-8"?>
<!-- Generator: Adobe Illustrator 16.0.0, SVG Export Plug-In . SVG Version: 6.00 Build 0)  -->
<!DOCTYPE svg PUBLIC "-//W3C//DTD SVG 1.1//EN" "http://www.w3.org/Graphics/SVG/1.1/DTD/svg11.dtd">
<svg version="1.1" id="Layer_1" xmlns="http://www.w3.org/2000/svg" xmlns:xlink="http://www.w3.org/1999/xlink" x="0px" y="0px"
	 width="900px" height="450px" viewBox="0 0 900 450" enable-background="new 0 0 900 450" xml:space="preserve">
<g transform="matrix( 1, 0, 0, 1, 0,0) ">
	<g>
		<g id="Layer0_0_FILL">
			<path fill="#CCCCCC" d="M289.968,6.753c0.37,0.074,0.222,0.112-0.445,0.112c-0.666,0.074-1.148,0.111-1.444,0.111l-0.888,2.444
				c0.222,0.148,0.407,0.444,0.555,0.889c0.37,0.666,1.111,1.296,2.222,1.889c1.037-0.148,1.703-0.408,1.999-0.778
				c0.149-0.296,0.333-0.481,0.556-0.555c0.148-0.223,0.222-0.704,0.222-1.444c0-0.814-0.186-1.37-0.555-1.666
				c-0.37-0.296-1.074-0.629-2.111-1H289.968 M681.44,426.109c-0.813,0-1.481,0.259-2,0.777c-0.593,0.592-0.888,1.258-0.888,2
				c0,0.74,0.295,1.369,0.888,1.888c0.519,0.593,1.187,0.89,2,0.89c0.74,0,1.369-0.297,1.888-0.89
				c0.593-0.519,0.89-1.147,0.89-1.888c0-0.742-0.297-1.408-0.89-2C682.81,426.368,682.181,426.109,681.44,426.109 M636.672,366.678
				c0.592,0.591,1.26,0.888,2,0.888s1.369-0.297,1.888-0.888c0.593-0.594,0.89-1.258,0.89-2s-0.297-1.371-0.89-1.888
				c-0.519-0.595-1.147-0.89-1.888-0.89s-1.408,0.295-2,0.89c-0.593,0.517-0.888,1.146-0.888,1.888S636.079,366.084,636.672,366.678
				 M742.871,279.141c-0.591-0.593-1.259-0.89-1.999-0.89c-0.739,0-1.369,0.297-1.89,0.89c-0.59,0.519-0.887,1.147-0.887,1.887
				c0,0.742,0.297,1.408,0.887,2.001c0.521,0.519,1.15,0.776,1.89,0.776c0.74,0,1.408-0.258,1.999-0.776
				c0.521-0.593,0.778-1.259,0.778-2.001C743.649,280.288,743.392,279.659,742.871,279.141 M250.087,421.332
				c-0.518-0.519-1.148-0.776-1.888-0.776c-0.741,0-1.407,0.258-2,0.776c-0.518,0.593-0.777,1.259-0.777,2.001
				c0,0.739,0.259,1.368,0.777,1.888c0.593,0.592,1.259,0.889,2,0.889c0.74,0,1.37-0.297,1.888-0.889
				c0.593-0.52,0.889-1.148,0.889-1.888C250.977,422.591,250.681,421.925,250.087,421.332 M192.434,308.912
				c-0.741,0-1.407,0.296-2,0.888c-0.519,0.519-0.778,1.147-0.778,1.89c0,0.813,0.259,1.48,0.778,1.998
				c0.592,0.593,1.258,0.89,2,0.89c0.74,0,1.37-0.297,1.889-0.89c0.592-0.518,0.889-1.185,0.889-1.998
				c0-0.742-0.296-1.371-0.889-1.89C193.804,309.208,193.173,308.912,192.434,308.912 M198.987,169.386
				c0.593-0.519,0.889-1.148,0.889-1.889c0-0.741-0.296-1.407-0.889-2c-0.518-0.519-1.148-0.778-1.888-0.778
				c-0.741,0-1.407,0.259-2,0.778c-0.592,0.592-0.889,1.258-0.889,2c0,0.741,0.296,1.37,0.889,1.889
				c0.593,0.592,1.259,0.888,2,0.888C197.839,170.274,198.47,169.979,198.987,169.386 M181.213,83.849
				c0-0.814-0.259-1.48-0.776-1.999c-0.594-0.593-1.26-0.89-2-0.89c-0.74,0-1.37,0.297-1.888,0.89
				c-0.593,0.519-0.89,1.185-0.89,1.999c0,0.741,0.296,1.37,0.89,1.889c0.518,0.592,1.147,0.889,1.888,0.889
				c0.741,0,1.407-0.296,2-0.889C180.954,85.219,181.213,84.59,181.213,83.849 M199.876,55.854c0-0.741-0.296-1.37-0.889-1.889
				c-0.518-0.592-1.148-0.889-1.888-0.889c-0.741,0-1.407,0.296-2,0.889c-0.592,0.519-0.889,1.148-0.889,1.889
				c0,0.814,0.296,1.481,0.889,2c0.593,0.592,1.259,0.888,2,0.888c0.74,0,1.37-0.296,1.888-0.888
				C199.581,57.335,199.876,56.669,199.876,55.854 M714.988,102.511c-0.593-0.592-1.259-0.889-1.998-0.889
				c-0.742,0-1.408,0.296-2.001,0.889c-0.519,0.519-0.776,1.148-0.776,1.889s0.258,1.407,0.776,2
				c0.593,0.519,1.259,0.778,2.001,0.778c0.739,0,1.405-0.259,1.998-0.778c0.519-0.592,0.779-1.259,0.779-2
				S715.507,103.03,714.988,102.511 M678.553,20.751c0-0.741-0.261-1.37-0.779-1.889c-0.592-0.592-1.258-0.889-1.998-0.889
				c-0.742,0-1.371,0.296-1.89,0.889c-0.593,0.519-0.888,1.147-0.888,1.889c0,0.74,0.295,1.407,0.888,1.999
				c0.519,0.519,1.147,0.778,1.89,0.778c0.74,0,1.406-0.259,1.998-0.778C678.292,22.158,678.553,21.491,678.553,20.751
				 M627.34,69.185c0.595,0.592,1.258,0.888,2,0.888s1.371-0.296,1.888-0.888c0.595-0.519,0.89-1.148,0.89-1.889
				c0-0.741-0.295-1.407-0.89-2c-0.517-0.592-1.146-0.889-1.888-0.889s-1.405,0.296-2,0.889c-0.517,0.592-0.777,1.258-0.777,2
				C626.563,68.037,626.823,68.667,627.34,69.185z"/>
			<path fill="#0D0D0D" d="M762.424,9.198c-1.408-1.852-3.333-2.667-5.777-2.444H290.079c1.037,0.371,1.741,0.704,2.111,1
				c0.37,0.296,0.555,0.852,0.555,1.666c0,0.74-0.074,1.222-0.222,1.444c-0.223,0.074-0.407,0.259-0.556,0.555
				c-0.296,0.37-0.962,0.629-1.999,0.778c-1.111-0.592-1.852-1.223-2.222-1.889c-0.148-0.445-0.333-0.741-0.555-0.889l0.888-2.444
				c0.296,0,0.778-0.037,1.444-0.111c0.667,0,0.814-0.038,0.445-0.112H144.443c-1.48-0.296-3.036,0.149-4.666,1.333
				c-1.851,1.481-2.704,3.406-2.555,5.777v421.91c-0.222,1.556,0.296,3.111,1.556,4.665c1.481,1.927,3.37,2.703,5.665,2.334h612.203
				c1.629,0.369,3.222-0.036,4.777-1.224c1.851-1.479,2.627-3.406,2.332-5.775V13.864C764.051,12.308,763.608,10.753,762.424,9.198
				 M629.34,70.073c-0.742,0-1.405-0.296-2-0.888c-0.517-0.519-0.777-1.148-0.777-1.889c0-0.741,0.261-1.407,0.777-2
				c0.595-0.592,1.258-0.889,2-0.889s1.371,0.296,1.888,0.889c0.595,0.592,0.89,1.258,0.89,2c0,0.741-0.295,1.37-0.89,1.889
				C630.711,69.777,630.082,70.073,629.34,70.073 M495.035,40.191c4.222,0.444,9.221,2.073,14.997,4.887l6.443,2.444l2.667-0.778
				c2.369,0.445,5.554,1.703,9.553,3.777c6.073,3.184,11.554,7.332,16.439,12.442l0.556,0.333c1.927,0.741,6.518,3.776,13.775,9.109
				c7.11,5.332,13.183,10.256,18.219,14.774l7.11,6.776c0.221,0.223,0.739,0.815,1.556,1.778c0.963,1.185,1.888,2.702,2.776,4.554
				c1.48,1.556,3.923,5.554,7.332,11.997c0.887,1.556,1.703,2.926,2.442,4.11c0.89,1.333,1.891,2.814,3.001,4.444
				c0.222,0.296,0.408,0.592,0.556,0.888c0.073,0,0.147,0.037,0.222,0.112c3.406,2,5.109,4.109,5.109,6.331
				c0,1.186,1.369,4.186,4.111,8.999c3.775,6.22,6.592,11.701,8.442,16.44c3.777,9.406,6.628,19.811,8.553,31.215
				c1.408,8.591,2.111,16.107,2.111,22.551c0,0.593-0.63,5.184-1.888,13.774v1.111c0.221,8.444,0.11,16.07-0.334,22.884
				c0.147,2.37,0.073,4.146-0.222,5.331c-0.074,4.075-1.445,10.259-4.111,18.553c-3.109,10.072-7.331,20.402-12.665,30.994
				c-0.739,5.702-5.515,14.107-14.328,25.216c-7.776,9.776-15.997,18.366-24.663,25.771c-0.444,0.371-0.887,0.742-1.332,1.111
				c-0.149,0.224-0.334,0.444-0.556,0.668c-0.666,0.442-1.295,0.964-1.89,1.554l-16.773,13.886
				c-1.332,1.481-2.369,2.482-3.109,3.001c-1.185,0.961-2.369,1.517-3.556,1.666c-5.629,3.257-10.295,5.887-13.997,7.887
				c-0.444,0.222-0.851,0.445-1.222,0.666c-5.704,3.259-8.739,4.962-9.11,5.109c-4.886,2.593-7.405,3.928-7.553,4.001
				c-1.556,0.74-3.185,1.111-4.888,1.111l-0.445,0.221c-2.813,3.111-5.035,4.926-6.665,5.444c-3.63,1.035-13.478,2.185-29.549,3.443
				c-2,0.221-3.999,0.444-5.999,0.666l-2.111,0.334c-1.11,0.592-2.222,1.074-3.332,1.442c-2.074,0.595-5.221,0.779-9.441,0.556
				c-3.704,0.595-6.592,0.89-8.665,0.89c-1.259,0-4.184-0.187-8.776-0.556c-5.109-0.444-8.701-0.851-10.775-1.222l-3.333-0.223
				c-0.74,0.147-2.185,0.112-4.332-0.111c-2.222-0.147-3.963-0.371-5.221-0.666c-8.443-0.815-15.96-2.185-22.551-4.109
				c-8.591-2.666-14.145-5.962-16.663-9.887l-21.773-11.443c-3.259-0.221-7.036-1.776-11.332-4.665
				c-5.851-3.777-11.256-9.184-16.218-16.218c-7.257-6.889-13.923-13.813-19.996-20.774l-2.444-0.777
				c-11.552-15.923-18.107-25.773-19.663-29.549c-0.592-3.259-2.666-8.331-6.22-15.22c-0.667-1.332-1.26-2.852-1.777-4.555
				c-2.889-1.405-4.666-3.259-5.333-5.554c-0.962-3.407-2.073-12.886-3.333-28.438c-0.889-6.443-1.628-13.072-2.222-19.885
				c-0.889-11.035-1.332-17.145-1.332-18.33c0-0.963,0.147-2.518,0.443-4.666c0.371-2.222,0.741-3.888,1.111-4.999
				c0.667-6.443,1.444-12.775,2.333-18.995c-0.593-5.258-0.222-10.294,1.111-15.109c1.185-4.146,2.777-7.035,4.777-8.665
				l0.666-1.777c0.074-1.481,0.926-4.443,2.555-8.887c1.852-4.592,3.333-7.443,4.443-8.554c0.445-1.926,0.815-3.259,1.111-3.999
				c0.296-0.667,1.11-1.815,2.444-3.444c2.814-4.962,5.74-9.886,8.776-14.774c0.592-1.185,1.889-3.333,3.888-6.443
				c2.592-4.073,4.48-6.554,5.665-7.443c1.111-2.518,3.777-6.257,7.999-11.219c5.554-6.592,10.59-10.888,15.107-12.887l0.667-0.667
				c0.223-0.222,1.185-1.147,2.888-2.777c1.852-1.703,2.963-2.704,3.333-3c19.403-17.404,32.104-26.106,38.103-26.106
				c0.815,0,1.556,0.148,2.222,0.445c0.223,0.074,1.445-0.297,3.667-1.111c0.517-0.148,1.111-0.334,1.777-0.555
				c1.481-0.592,2.888-1.111,4.221-1.556l4.776-1.777c9.109-3.111,14.035-4.629,14.775-4.556c2.814-1.111,6.184-1.999,10.109-2.665
				c3.184-0.519,6.109-0.778,8.776-0.778l12.441-1.333c1.482-0.37,4.739-0.852,9.776-1.444c5.924-0.815,10.368-1.223,13.331-1.223
				c1.332,0,4.186,0.186,8.553,0.556c0.74,0.075,1.408,0.148,2.001,0.222c3.851,0.371,6.48,0.741,7.887,1.111
				c1.703,0.963,4.998,2.036,9.887,3.222c5.775,1.48,8.703,2.222,8.776,2.222L495.035,40.191 M677.773,18.863
				c0.519,0.519,0.779,1.147,0.779,1.889c0,0.74-0.261,1.407-0.779,1.999c-0.592,0.519-1.258,0.778-1.998,0.778
				c-0.742,0-1.371-0.259-1.89-0.778c-0.593-0.592-0.888-1.259-0.888-1.999c0-0.741,0.295-1.37,0.888-1.889
				c0.519-0.592,1.147-0.889,1.89-0.889C676.516,17.974,677.182,18.271,677.773,18.863 M712.99,101.623
				c0.739,0,1.405,0.296,1.998,0.889c0.519,0.519,0.779,1.148,0.779,1.889s-0.261,1.407-0.779,2
				c-0.593,0.519-1.259,0.778-1.998,0.778c-0.742,0-1.408-0.259-2.001-0.778c-0.519-0.592-0.776-1.259-0.776-2
				s0.258-1.37,0.776-1.889C711.582,101.919,712.248,101.623,712.99,101.623 M198.987,53.966c0.593,0.519,0.889,1.148,0.889,1.889
				c0,0.814-0.296,1.481-0.889,2c-0.518,0.592-1.148,0.888-1.888,0.888c-0.741,0-1.407-0.296-2-0.888
				c-0.592-0.519-0.889-1.185-0.889-2c0-0.741,0.296-1.37,0.889-1.889c0.593-0.592,1.259-0.889,2-0.889
				C197.839,53.077,198.47,53.374,198.987,53.966 M180.437,81.85c0.517,0.519,0.776,1.185,0.776,1.999
				c0,0.741-0.259,1.37-0.776,1.889c-0.594,0.592-1.26,0.889-2,0.889c-0.74,0-1.37-0.296-1.888-0.889
				c-0.593-0.519-0.89-1.147-0.89-1.889c0-0.814,0.296-1.48,0.89-1.999c0.518-0.593,1.147-0.89,1.888-0.89
				C179.177,80.96,179.843,81.257,180.437,81.85 M199.876,167.498c0,0.741-0.296,1.37-0.889,1.889
				c-0.518,0.592-1.148,0.888-1.888,0.888c-0.741,0-1.407-0.296-2-0.888c-0.592-0.519-0.889-1.148-0.889-1.889
				c0-0.741,0.296-1.407,0.889-2c0.593-0.519,1.259-0.778,2-0.778c0.74,0,1.37,0.259,1.888,0.778
				C199.581,166.09,199.876,166.756,199.876,167.498 M190.434,309.8c0.592-0.592,1.258-0.888,2-0.888c0.74,0,1.37,0.296,1.889,0.888
				c0.592,0.519,0.889,1.147,0.889,1.89c0,0.813-0.296,1.48-0.889,1.998c-0.519,0.593-1.149,0.89-1.889,0.89
				c-0.741,0-1.407-0.297-2-0.89c-0.519-0.518-0.778-1.185-0.778-1.998C189.656,310.947,189.916,310.318,190.434,309.8
				 M248.2,420.556c0.74,0,1.37,0.258,1.888,0.776c0.593,0.593,0.889,1.259,0.889,2.001c0,0.739-0.296,1.368-0.889,1.888
				c-0.518,0.592-1.148,0.889-1.888,0.889c-0.741,0-1.407-0.297-2-0.889c-0.518-0.52-0.777-1.148-0.777-1.888
				c0-0.742,0.259-1.408,0.777-2.001C246.792,420.813,247.458,420.556,248.2,420.556 M740.872,278.251
				c0.74,0,1.408,0.297,1.999,0.89c0.521,0.519,0.778,1.147,0.778,1.887c0,0.742-0.258,1.408-0.778,2.001
				c-0.591,0.519-1.259,0.776-1.999,0.776c-0.739,0-1.369-0.258-1.89-0.776c-0.59-0.593-0.887-1.259-0.887-2.001
				c0-0.739,0.297-1.368,0.887-1.887C739.503,278.548,740.133,278.251,740.872,278.251 M638.672,367.565
				c-0.74,0-1.408-0.297-2-0.888c-0.593-0.594-0.888-1.258-0.888-2s0.295-1.371,0.888-1.888c0.592-0.595,1.26-0.89,2-0.89
				s1.369,0.295,1.888,0.89c0.593,0.517,0.89,1.146,0.89,1.888s-0.297,1.406-0.89,2
				C640.041,367.269,639.412,367.565,638.672,367.565 M679.44,426.887c0.519-0.519,1.187-0.777,2-0.777
				c0.74,0,1.369,0.259,1.888,0.777c0.593,0.592,0.89,1.258,0.89,2c0,0.74-0.297,1.369-0.89,1.888
				c-0.519,0.593-1.147,0.89-1.888,0.89c-0.813,0-1.481-0.297-2-0.89c-0.593-0.519-0.888-1.147-0.888-1.888
				C678.553,428.145,678.848,427.479,679.44,426.887 M564.354,357.346c-1.926,1.111-2.998,1.667-3.222,1.667
				c-1.481,1.776-4.443,4.849-8.887,9.219l16.773-13.886C567.539,355.456,565.983,356.457,564.354,357.346 M508.477,391.673
				l-0.111,0.221l0.445-0.221H508.477 M535.472,378.453c-1.406,0.813-2.704,1.59-3.889,2.332c3.702-2,8.368-4.63,13.997-7.887
				C544.321,373.27,540.952,375.12,535.472,378.453 M629.006,221.708l0.113,0.555v-1.111L629.006,221.708 M262.529,237.593
				c-0.444-2.74-1.074-4.999-1.889-6.775c0.593,6.813,1.333,13.441,2.222,19.885C262.862,245.814,262.751,241.444,262.529,237.593
				 M464.154,401.671l-0.113,0.11l2.111-0.334L464.154,401.671 M342.957,369.121c3.11,2.222,5.406,4.63,6.888,7.221l-0.667,0.11
				l21.773,11.443l-0.334-0.445c-17.625-11.256-29.179-19.18-34.659-23.772C336.699,364.491,339.032,366.307,342.957,369.121
				 M318.185,350.57l-0.334-0.113c-0.74-0.221-2.073-1.368-3.999-3.442c-2.371-2.443-4.444-5.11-6.221-7.998l-3.555-3.999
				l-2.444-0.223c6.073,6.962,12.738,13.886,19.996,20.774L318.185,350.57 M322.184,80.404l0.222-0.444l-0.667,0.667L322.184,80.404
				 M378.616,45.301l2.444-0.666l2.333-1.111L378.616,45.301 M489.704,38.858l1.666,0.555c1.333,0.37,2.554,0.629,3.665,0.778
				L489.704,38.858 M420.829,36.192l4.776-0.666l3.888-1.333l-12.441,1.333L420.829,36.192 M269.417,159.61l0.333-1.333
				l-0.666,1.777L269.417,159.61 M263.418,189.049l-0.222-5.221c-0.89,6.22-1.666,12.552-2.333,18.995
				c1.26-2.369,2-4.517,2.222-6.443c0-1.556,0-2.407,0-2.555L263.418,189.049 M280.303,133.394l3.444-3.555
				c1.258-2.962,3.037-6.702,5.332-11.219C286.043,123.507,283.117,128.431,280.303,133.394 M516.476,47.523l-6.443-2.444
				l2.666,1.444C514.625,47.486,515.884,47.819,516.476,47.523z"/>
			<path fill="#E0E0E0" d="M549.136,371.232c0.74-0.519,1.777-1.52,3.109-3.001l-6.665,4.667
				C546.767,372.749,547.951,372.193,549.136,371.232 M508.811,391.673c1.703,0,3.332-0.371,4.888-1.111
				c0.147-0.073,2.667-1.408,7.553-4.001C517.105,388.34,512.959,390.041,508.811,391.673 M530.361,381.451
				c0.371-0.221,0.777-0.444,1.222-0.666c1.185-0.742,2.482-1.519,3.889-2.332c5.48-3.333,8.85-5.184,10.108-5.555l6.665-4.667
				c4.443-4.37,7.405-7.442,8.887-9.219c1.703-1.63,3.409-3.37,5.11-5.223l-25.327,18.442c-0.371,0.295-3.517,1.888-9.442,4.775
				c-5.999,2.814-9.776,4.814-11.332,5.999l-1.111,0.666c-1.037,1.703-2.777,3.186-5.22,4.443c-2.667,1.261-4.444,2.445-5.333,3.557
				h0.334c4.148-1.632,8.295-3.333,12.44-5.112C521.622,386.413,524.657,384.71,530.361,381.451 M271.528,283.25l-1-3.443l0.111,1
				L271.528,283.25 M273.305,289.249l-1.777-5.999l-0.889-2.443l0.889,3.888C272.045,286.397,272.639,287.917,273.305,289.249
				 M374.839,389.783c0.221,0,0.48,0,0.777,0c-0.889-0.371-1.777-0.74-2.666-1.111C373.469,389.043,374.099,389.412,374.839,389.783
				 M352.066,364.344c-2.297-1.111-6.518-2.738-12.665-4.887c-6.146-2.074-9.775-3.185-10.886-3.332
				c2.444,2.59,4.925,5.109,7.443,7.553c5.48,4.593,17.033,12.517,34.659,23.772c0.6,0.399,1.23,0.771,1.889,1.111l0.222,0.11h0.223
				c0.888,0.371,1.777,0.74,2.666,1.111c1.259,0,3-0.406,5.221-1.222c-2.295-1.185-5.406-3.777-9.331-7.776
				c-1.407-1.479-4.222-4.591-8.443-9.332c-3.555-4.072-5.888-6.184-6.999-6.331C355.028,365.42,353.695,365.159,352.066,364.344
				 M317.851,350.457l0.334,0.113l-0.334-0.334V350.457 M315.629,346.903l-1.667-2.666c-1.185-2.74-2.258-4.814-3.221-6.221
				c-1.703-2.591-3.925-3.593-6.666-2.999l3.555,3.999L315.629,346.903 M347.511,61.076c-10.22,6.517-17.441,11.85-21.662,15.996
				l-2.888,2.889l-3.666,4.332c5.11-3.48,13.886-9.961,26.327-19.44c12.294-8.812,24.106-15.552,35.437-20.217l-2.444,0.666
				c-1.333,0.445-2.74,0.963-4.221,1.556C366.544,49.892,357.583,54.633,347.511,61.076 M325.849,77.072
				c4.221-4.146,11.442-9.479,21.662-15.996c10.072-6.443,19.033-11.184,26.883-14.219c-0.666,0.221-1.26,0.407-1.777,0.555
				c-2.222,0.814-3.444,1.185-3.667,1.111c-0.666-0.297-1.407-0.445-2.222-0.445c-5.998,0-18.699,8.702-38.103,26.106
				L325.849,77.072 M446.269,33.637c-3.555,0-9.146,0.185-16.775,0.555l-3.888,1.333C432.715,34.637,439.603,34.007,446.269,33.637
				 M429.494,34.192c7.628-0.37,13.22-0.555,16.775-0.555c3.851-1.037,8.33-1.518,13.442-1.444c1.185,0,2.332,0.037,3.443,0.111
				c-0.593-0.074-1.261-0.147-2.001-0.222c-4.367-0.37-7.221-0.556-8.553-0.556c-2.963,0-7.406,0.408-13.331,1.223
				C434.233,33.341,430.976,33.822,429.494,34.192z"/>
			<path fill="#777779" d="M629.006,221.708l0.113-0.556c0.221-7.999-0.224-16.996-1.335-26.994
				c-1.408-11.701-3.479-21.699-6.22-29.994c1.703,7.999,3.295,19.478,4.777,34.438
				C627.674,212.377,628.563,220.078,629.006,221.708 M337.846,371.787c4.296,2.889,8.072,4.444,11.332,4.665
				c-0.962-0.666-10.146-7.626-27.55-20.883C326.59,362.604,331.996,368.01,337.846,371.787 M313.962,344.237l1.667,2.666
				l2.222,3.333l0.334,0.334l3.443,4.999c17.404,13.257,26.587,20.217,27.55,20.883l0.667-0.11
				c-1.482-2.591-3.777-4.999-6.888-7.221c-3.925-2.814-6.258-4.63-6.999-5.443c-2.518-2.443-4.999-4.963-7.443-7.553
				c-1.703-0.669-3.518-1.706-5.444-3.111C319.666,350.57,316.629,347.646,313.962,344.237 M273.971,153.944
				c2.37-6.22,3.851-10.035,4.443-11.441c-1.036,1.185-2.702,4.554-4.999,10.108c-2.518,5.999-3.703,10.073-3.554,12.22
				C270.009,164.238,271.379,160.61,273.971,153.944 M277.859,136.838c-0.296,0.74-0.667,2.073-1.111,3.999l3.555-7.443
				C278.97,135.023,278.155,136.17,277.859,136.838 M265.196,180.938c1.111-4.74,1.703-7.146,1.777-7.221l2.444-14.107l-0.333,0.444
				l-5.888,23.773l0.222,5.221C263.64,188.159,264.232,185.457,265.196,180.938 M264.307,168.719
				c-1.333,4.814-1.704,9.851-1.111,15.109l5.888-23.773C267.084,161.684,265.492,164.573,264.307,168.719 M283.748,129.838
				l-3.444,3.555l-3.555,7.443l2.222,0.333l5.333-11.775L283.748,129.838 M307.631,95.068c0.889-0.889,1.926-1.926,3.11-3.11
				c4.147-4.074,6.998-6.628,8.554-7.666l3.666-4.332l-0.778,0.444l-0.445,0.223C317.074,84.997,312.371,89.81,307.631,95.068
				 M300.077,104.956c1.186-1.926,2.407-3.814,3.667-5.667c-1.778,2.074-3.592,4.186-5.443,6.333l-0.778,3.777
				C298.041,108.658,298.892,107.177,300.077,104.956 M298.633,104.733l-0.333,0.889c1.852-2.147,3.666-4.258,5.443-6.333
				c0.147-0.147,0.259-0.258,0.333-0.333c0.148-0.222,0.296-0.443,0.444-0.666c0.223-0.37,1.26-1.444,3.111-3.222
				c4.74-5.258,9.442-10.072,14.107-14.441c-4.518,1.999-9.553,6.295-15.107,12.887C302.41,98.476,299.744,102.215,298.633,104.733
				 M598.901,116.397c-0.739-1.185-1.556-2.555-2.442-4.11c-3.409-6.443-5.852-10.441-7.332-11.997l4.665,8.887
				C594.087,109.473,595.793,111.88,598.901,116.397 M602.458,121.729c-0.147-0.296-0.334-0.592-0.556-0.888
				c-1.11-1.629-2.111-3.11-3.001-4.444c-3.108-4.517-4.814-6.924-5.109-7.221c3.925,8.146,8.258,16.034,12.997,23.662
				c5.259,8.591,8.258,13.516,8.999,14.774C612.309,138.948,607.865,130.32,602.458,121.729 M602.68,121.841
				c-0.074-0.075-0.148-0.112-0.222-0.112c5.407,8.591,9.851,17.219,13.33,25.883c1.999,3.63,3.22,6.036,3.665,7.221
				c0.519,1.333,1.222,4.443,2.111,9.332c2.74,8.295,4.812,18.292,6.22,29.994c1.111,9.998,1.556,18.996,1.335,26.994
				c1.258-8.591,1.888-13.182,1.888-13.774c0-6.444-0.703-13.96-2.111-22.551c-1.925-11.405-4.775-21.81-8.553-31.215
				c-1.851-4.74-4.667-10.22-8.442-16.44c-2.742-4.813-4.111-7.813-4.111-8.999C607.789,125.95,606.086,123.84,602.68,121.841z"/>
			<path fill="#949492" d="M270.639,280.807l-0.111-1c-1.926-7.036-4.592-21.107-7.999-42.214c0.222,3.852,0.333,8.222,0.333,13.109
				C267.75,269.809,270.342,279.843,270.639,280.807 M262.862,250.702c1.26,15.553,2.37,25.031,3.333,28.438
				c0.667,2.295,2.444,4.148,5.333,5.554l-0.889-3.888C270.342,279.843,267.75,269.809,262.862,250.702 M272.305,149.39
				c-1.628,4.444-2.481,7.406-2.555,8.887c2.148-5.924,4.48-11.739,6.998-17.441C275.637,141.947,274.157,144.798,272.305,149.39
				 M278.415,142.503l0.555-1.333l-2.222-0.333c-2.518,5.702-4.85,11.517-6.998,17.441l-0.333,1.333l-2.444,14.107l2.889-8.887
				c-0.149-2.147,1.036-6.221,3.554-12.22C275.712,147.057,277.378,143.688,278.415,142.503 M439.381,389.228
				c5.554,0.149,8.332,0.149,8.332,0c-2.444-0.147-9.998-0.519-22.663-1.111C428.679,388.562,433.457,388.93,439.381,389.228
				 M475.373,193.825l-0.223,0.556l0.223,0.333C475.447,194.566,475.447,194.269,475.373,193.825 M471.485,204.045l2.554-6.11
				l-0.222-0.222C472.262,201.787,471.485,203.897,471.485,204.045z"/>
			<path fill="#6F6F71" d="M463.375,401.781h0.666l0.113-0.11L463.375,401.781 M464.041,401.781h-0.666l-12.107,1.998
				c4.221,0.224,7.367,0.039,9.441-0.556C461.819,402.855,462.931,402.373,464.041,401.781 M421.606,402.669
				c-1.037-0.147-1.666-0.147-1.889,0l3.333,0.223C422.607,402.816,422.125,402.742,421.606,402.669 M380.837,388.562
				c-2.222,0.815-3.962,1.222-5.221,1.222c4.37,1.851,9.332,3.556,14.886,5.109c6.517,1.927,12.331,3.371,17.441,4.333l-0.445-0.666
				c-1.407-0.519-6.554-2.001-15.441-4.444C387.021,392.71,383.281,390.856,380.837,388.562 M372.506,388.562
				c-0.659-0.341-1.289-0.712-1.889-1.111l0.334,0.445C371.469,388.088,371.987,388.312,372.506,388.562 M372.951,388.672h-0.223
				l-0.222-0.11c-0.519-0.25-1.037-0.474-1.555-0.666c2.518,3.925,8.072,7.221,16.663,9.887c6.59,1.925,14.107,3.294,22.551,4.109
				c-0.741-0.815-1.482-1.703-2.222-2.666c-5.111-0.962-10.925-2.406-17.441-4.333c-5.554-1.554-10.516-3.259-14.886-5.109
				c-0.296,0-0.556,0-0.777,0C374.099,389.412,373.469,389.043,372.951,388.672 M313.852,347.015
				c1.925,2.074,3.259,3.222,3.999,3.442v-0.221l-2.222-3.333l-7.998-7.887C309.408,341.904,311.481,344.571,313.852,347.015
				 M322.406,79.96l-0.222,0.444l0.778-0.444l2.888-2.889L322.406,79.96 M325.849,77.072l2.777-2.888
				c-0.37,0.296-1.481,1.296-3.333,3c-1.703,1.629-2.665,2.555-2.888,2.777L325.849,77.072 M405.944,37.192
				c2.073-0.445,4.295-0.741,6.665-0.888l4.444-0.778c-2.667,0-5.593,0.259-8.776,0.778c-3.925,0.666-7.294,1.554-10.109,2.665
				l2.11-0.222l2.444-0.555C403.167,37.895,404.239,37.562,405.944,37.192 M412.609,36.304c3.85,0.147,6.59,0.11,8.22-0.112
				l-3.776-0.666L412.609,36.304 M284.303,129.395c2.222-4.519,3.813-7.591,4.776-9.22c1.481-2.37,4.295-5.962,8.442-10.775
				l0.778-3.777c-3.184,4.296-6.259,8.627-9.22,12.998c-2.295,4.517-4.074,8.257-5.332,11.219L284.303,129.395 M298.3,105.622
				l0.333-0.889c-1.185,0.889-3.073,3.37-5.665,7.443c-2,3.11-3.296,5.258-3.888,6.443
				C292.041,114.249,295.116,109.917,298.3,105.622 M474.039,197.936l1.334-3.222l-0.223-0.333l-1.333,3.333L474.039,197.936z"/>
			<path fill="#E0E0E0" fill-opacity="0.6118" d="M304.076,98.956c1.185-1.407,2.37-2.702,3.555-3.888
				c-1.852,1.778-2.889,2.852-3.111,3.222C304.373,98.513,304.224,98.734,304.076,98.956 M510.032,45.079
				c-5.776-2.814-10.775-4.443-14.997-4.887c-1.111-0.148-2.332-0.408-3.665-0.778l-1.666-0.555c-0.073,0-3.001-0.741-8.776-2.222
				c-4.889-1.186-8.184-2.259-9.887-3.222c-1.406-0.37-4.036-0.74-7.887-1.111c-1.111-0.074-2.259-0.111-3.443-0.111
				c-5.112-0.074-9.591,0.407-13.442,1.444c-6.666,0.37-13.553,1-20.663,1.889l-4.776,0.666c-1.63,0.222-4.37,0.259-8.22,0.112
				c-2.37,0.147-4.592,0.443-6.665,0.888c-1.705,0.37-2.777,0.703-3.222,1l-2.444,0.555l-2.11,0.222
				c-0.741-0.074-5.666,1.444-14.775,4.556l-2.333,1.111c-11.331,4.665-23.143,11.405-35.437,20.217
				c-12.441,9.479-21.217,15.96-26.327,19.44c-1.556,1.037-4.406,3.592-8.554,7.666c-1.185,1.185-2.222,2.222-3.11,3.11
				c-1.186,1.186-2.37,2.481-3.555,3.888c-0.074,0.075-0.186,0.186-0.333,0.333c-1.259,1.852-2.481,3.741-3.667,5.667
				c-1.185,2.222-2.036,3.702-2.555,4.443c-4.147,4.813-6.961,8.405-8.442,10.775c-0.963,1.629-2.555,4.702-4.776,9.22
				l-5.333,11.775l-0.555,1.333c-0.592,1.407-2.073,5.221-4.443,11.441c-2.592,6.666-3.962,10.294-4.109,10.887l-2.889,8.887
				c-0.074,0.075-0.666,2.481-1.777,7.221c-0.963,4.519-1.556,7.221-1.778,8.11l-0.333,4.776c0,0.147,0,0.999,0,2.555
				c-0.223,1.926-0.962,4.074-2.222,6.443c-0.37,1.111-0.74,2.777-1.111,4.999c-0.296,2.148-0.443,3.703-0.443,4.666
				c0,1.185,0.443,7.294,1.332,18.33c0.814,1.776,1.445,4.035,1.889,6.775c3.406,21.106,6.073,35.178,7.999,42.214l1,3.443
				l1.777,5.999c3.555,6.889,5.628,11.961,6.22,15.22c1.556,3.775,8.11,13.626,19.663,29.549l2.444,0.777l2.444,0.223
				c2.741-0.594,4.962,0.408,6.666,2.999c0.962,1.406,2.036,3.48,3.221,6.221c2.667,3.408,5.703,6.333,9.109,8.776
				c1.926,1.405,3.741,2.442,5.444,3.111c1.111,0.147,4.74,1.258,10.886,3.332c6.147,2.148,10.368,3.775,12.665,4.887
				c1.628,0.815,2.961,1.076,3.999,0.778c1.111,0.147,3.443,2.259,6.999,6.331c4.221,4.741,7.036,7.853,8.443,9.332
				c3.925,3.999,7.035,6.592,9.331,7.776c2.444,2.295,6.184,4.148,11.22,5.554c8.887,2.443,14.034,3.926,15.441,4.444l0.445,0.666
				c0.74,0.963,1.48,1.851,2.222,2.666c1.258,0.295,3,0.519,5.221,0.666c2.147,0.224,3.592,0.259,4.332,0.111
				c0.223-0.147,0.852-0.147,1.889,0c0.519,0.073,1,0.147,1.444,0.223c2.074,0.371,5.666,0.777,10.775,1.222
				c4.592,0.369,7.517,0.556,8.776,0.556c2.073,0,4.961-0.295,8.665-0.89l12.107-1.998l0.779-0.11l1.998-0.224
				c2-0.222,3.999-0.445,5.999-0.666c16.071-1.259,25.919-2.408,29.549-3.443c1.63-0.519,3.852-2.333,6.665-5.444l0.111-0.221
				c0.889-1.111,2.666-2.296,5.333-3.557c2.442-1.258,4.183-2.74,5.22-4.443l1.111-0.666c1.556-1.185,5.333-3.185,11.332-5.999
				c5.926-2.888,9.071-4.48,9.442-4.775l25.327-18.442c-1.701,1.853-3.407,3.593-5.11,5.223c0.224,0,1.296-0.556,3.222-1.667
				c1.63-0.889,3.186-1.89,4.665-3c0.595-0.59,1.224-1.111,1.89-1.554c0.222-0.224,0.406-0.444,0.556-0.668
				c0.445-0.369,0.888-0.74,1.332-1.111c3.186-2.888,7.073-6.997,11.665-12.33c4.962-5.775,7.628-9.034,7.999-9.774
				c-0.371,0.74-3.037,3.999-7.999,9.774c-4.592,5.333-8.479,9.442-11.665,12.33c8.666-7.405,16.887-15.995,24.663-25.771
				c8.813-11.108,13.589-19.514,14.328-25.216c5.334-10.592,9.556-20.922,12.665-30.994c2.666-8.294,4.037-14.478,4.111-18.553
				c0.295-1.185,0.369-2.961,0.222-5.331c0.444-6.814,0.555-14.44,0.334-22.884l-0.113-0.555c-0.442-1.63-1.332-9.331-2.664-23.106
				c-1.482-14.96-3.074-26.439-4.777-34.438c-0.89-4.888-1.593-7.999-2.111-9.332c-0.445-1.185-1.666-3.591-3.665-7.221
				c-0.741-1.258-3.74-6.184-8.999-14.774c-4.739-7.627-9.072-15.516-12.997-23.662l-4.665-8.887
				c-0.889-1.852-1.813-3.37-2.776-4.554c-0.816-0.963-1.335-1.556-1.556-1.778l-7.11-6.776
				c-5.036-4.518-11.108-9.442-18.219-14.774c-7.258-5.333-11.849-8.368-13.775-9.109l-0.556-0.333
				c-4.886-5.11-10.366-9.258-16.439-12.442c-3.999-2.074-7.184-3.333-9.553-3.777l-2.667,0.778c-0.592,0.296-1.851-0.037-3.777-1
				L510.032,45.079 M475.373,194.714l-1.334,3.222l-2.554,6.11c0-0.148,0.776-2.258,2.332-6.332l1.333-3.333l0.223-0.556
				C475.447,194.269,475.447,194.566,475.373,194.714 M445.157,340.46l-3.222-0.777l0.333-1.556l3.111,0.666L445.157,340.46
				 M447.712,389.228c0,0.149-2.777,0.149-8.332,0c-5.924-0.298-10.702-0.666-14.331-1.111
				C437.714,388.709,445.268,389.08,447.712,389.228z"/>
			<path fill="#A7A7A7" d="M441.936,339.683l3.222,0.777l0.223-1.667l-3.111-0.666L441.936,339.683z"/>
		</g>
	</g>
	<g>
		<path id="Layer0_0_1_STROKES" fill="none" stroke="#C4C4C4" stroke-width="2" stroke-linecap="round" stroke-linejoin="round" d="
			M510.032,45.079l6.443,2.444 M545.135,62.964l0.556,0.333 M598.901,116.397c0.89,1.333,1.891,2.814,3.001,4.444
			c0.222,0.296,0.408,0.592,0.556,0.888 M629.119,221.152v1.111 M572.796,351.013c-0.444,0.371-0.887,0.742-1.332,1.111
			c-0.149,0.224-0.334,0.444-0.556,0.668c-0.666,0.442-1.295,0.964-1.89,1.554l-16.773,13.886 M545.58,372.898
			c-5.629,3.257-10.295,5.887-13.997,7.887c-0.444,0.222-0.851,0.445-1.222,0.666c-5.704,3.259-8.739,4.962-9.11,5.109
			 M508.811,391.673l-0.445,0.221 M472.151,400.781c-2,0.221-3.999,0.444-5.999,0.666l-2.111,0.334 M370.951,387.896l-21.773-11.443
			 M321.628,355.569c-7.257-6.889-13.923-13.813-19.996-20.774 M262.862,250.702c-0.889-6.443-1.628-13.072-2.222-19.885
			 M260.863,202.823c0.667-6.443,1.444-12.775,2.333-18.995 M269.084,160.054l0.666-1.777 M280.303,133.394
			c2.814-4.962,5.74-9.886,8.776-14.774 M321.739,80.627l0.667-0.667 M374.395,46.857c1.481-0.592,2.888-1.111,4.221-1.556
			l4.776-1.777 M417.053,35.526l12.441-1.333 M489.704,38.858l5.331,1.333 M593.792,109.176c0.295,0.296,2.001,2.704,5.109,7.221
			 M602.458,121.729c5.407,8.591,9.851,17.219,13.33,25.883 M621.564,164.165c2.74,8.295,4.812,18.292,6.22,29.994
			c1.111,9.998,1.556,18.996,1.335,26.994 M298.3,105.622c1.852-2.147,3.666-4.258,5.443-6.333c0.147-0.147,0.259-0.258,0.333-0.333
			 M307.631,95.068c4.74-5.258,9.442-10.072,14.107-14.441 M322.406,79.96l3.443-2.889 M304.076,98.956
			c1.185-1.407,2.37-2.702,3.555-3.888 M289.08,118.619c2.961-4.37,6.036-8.702,9.22-12.998 M263.196,183.828l5.888-23.773
			 M269.75,158.277c2.148-5.924,4.48-11.739,6.998-17.441l3.555-7.443 M429.494,34.192c7.628-0.37,13.22-0.555,16.775-0.555
			 M412.609,36.304l4.444-0.778 M400.278,38.747l2.444-0.555 M325.849,77.072c4.221-4.146,11.442-9.479,21.662-15.996
			c10.072-6.443,19.033-11.184,26.883-14.219 M349.178,376.452c-0.962-0.666-10.146-7.626-27.55-20.883 M372.951,388.672h-0.223
			l-0.222-0.11c-0.519-0.25-1.037-0.474-1.555-0.666 M375.616,389.783c-0.889-0.371-1.777-0.74-2.666-1.111 M407.943,399.226
			c-5.111-0.962-10.925-2.406-17.441-4.333c-5.554-1.554-10.516-3.259-14.886-5.109 M464.041,401.781h-0.666 M271.528,283.25
			l-0.889-2.443c-0.296-0.964-2.888-10.998-7.776-30.104 M521.251,386.561c-4.146,1.779-8.292,3.48-12.44,5.112 M552.245,368.231
			l-6.665,4.667 M592.46,328.908c-0.371,0.74-3.037,3.999-7.999,9.774c-4.592,5.333-8.479,9.442-11.665,12.33"/>
	</g>
</g>
</svg>
