<svg xmlns="http://www.w3.org/2000/svg" width="900" height="450" viewBox="0 0 900 450"><path fill="#DE474A" d="M336.589 261c-4.614-.146-9.19-.403-13.731-.769a294.389 294.389 0 0 1-17.905-2.087 213.902 213.902 0 0 1-6.591-.989 83.651 83.651 0 0 1-4.174-.769l-2.417-.66h-.109c-5.806-1.549-11.078-3.707-15.818-6.479a53.606 53.606 0 0 1-15.159-12.963 62.382 62.382 0 0 1-4.064-5.711c-9.446-14.574-15.378-24.533-17.795-29.88-2.417-5.125-5.2-8.604-8.348-10.435l-.439-.219c-12.01-1.831-23.361.255-34.053 6.261a94.417 94.417 0 0 1-3.515 2.307c-14.061 23.581-21.09 50.713-21.09 81.397-.074 30.685 9.044 57.524 27.351 80.517 18.308 22.85 43.902 37.973 76.783 45.368 32.808 7.322 60.636 11.461 83.484 12.411l80.297-7.578c27.463-6.518 53.642-16.367 78.542-29.549a488.476 488.476 0 0 0 73.048-47.016c22.628-17.5 45.951-33.686 69.972-48.551a1062.33 1062.33 0 0 0 73.267-49.541 272.848 272.848 0 0 0 13.294-9.886c6.297-7.836 8.312-12.963 6.041-15.38a8.64 8.64 0 0 0-1.868-1.757l-.109-.11c-21.604-8.788-42.219-13.145-61.845-13.071-19.627.146-32.988-.147-40.095-.878a225.89 225.89 0 0 0-3.404.878 940.372 940.372 0 0 0-29 7.909c-.805.146-1.575.366-2.307.659h-.219a339.095 339.095 0 0 0-9.337 2.746c-1.685.44-3.332.915-4.943 1.428a229.008 229.008 0 0 0-7.58 2.308c-3.076.952-6.114 1.903-9.118 2.855a1137.406 1137.406 0 0 0-25.265 8.239c-.583.22-1.171.44-1.757.659-1.465.439-2.929.916-4.394 1.429a72.662 72.662 0 0 0-4.285 1.427c-.51.146-.986.294-1.427.44a.972.972 0 0 0-.439.109c-2.855.88-5.711 1.794-8.568 2.746a863.449 863.449 0 0 1-57.121 15.379 847.023 847.023 0 0 1-90.073 14.062A307.347 307.347 0 0 1 336.589 261m-102.707-8.679c-8.348 10.107-14.426 21.311-18.234 33.613 3.809-12.302 9.887-23.505 18.234-33.613m31.967 43.72c5.565-10.838 8.714-16.953 9.446-18.346-.732 1.393-3.881 7.508-9.446 18.346-5.566 10.837-7.25 26.069-5.054 45.696-2.197-19.627-.513-34.859 5.054-45.696m-43.171 50.53a67.39 67.39 0 0 1 .22-7.689c-.22 2.563-.293 5.125-.22 7.689.806 20.212 6.884 34.125 18.235 41.741-11.351-7.616-17.43-21.529-18.235-41.741m382.926-117.536c10.326 10.472 16.662 23.067 19.005 37.787-2.343-14.719-8.679-27.315-19.005-37.787m-97.983 113.582c1.244-24.166-3.149-47.2-13.182-69.095 10.033 21.895 14.426 44.929 13.182 69.095m-3.515-182.347c1.317.22 2.635.477 3.954.769a1129.45 1129.45 0 0 1 63.053 15.159l.438.22a797.67 797.67 0 0 1 28.672 8.238c14.791 4.54 29.987 7.835 45.587 9.886l3.732.44c7.106.731 20.468 1.024 40.095.878 19.626-.074 40.24 4.284 61.845 13.071a200.266 200.266 0 0 0-36.359-28.779 962.279 962.279 0 0 0-64.591-36.14 729.731 729.731 0 0 1-76.893-44.928c-26.143-17.501-55.655-33.209-88.536-47.124-32.881-13.913-60.343-20.833-82.386-20.76-22.042.147-36.213 1.062-42.511 2.746-6.371 1.611-15.524 5.236-27.462 10.875-11.936 5.565-21.822 6.444-29.659 2.636-8.788-3.221-21.236-5.236-37.348-6.042-15.524-.731-30.024-.182-43.499 1.648-26.07 3.515-46.355 14.244-60.855 32.186-14.573 17.868-18.345 40.898-11.314 69.093 6.884 28.122 21.018 46.21 42.401 54.265a94.417 94.417 0 0 0 3.515-2.307c10.692-6.005 22.042-8.092 34.053-6.261l.22-.549.878-2.966c2.564-7.909 5.859-14.72 9.886-20.432 4.321-6.371 9.521-11.351 15.599-14.939a34.387 34.387 0 0 1 3.954-2.197 35.91 35.91 0 0 1 5.492-2.197c.147-.146.367-.22.66-.22 9.008-2.929 19.443-3.552 31.307-1.867 2.124.367 4.247.66 6.371.879 2.197.219 4.394.402 6.591.549 1.464.073 2.966.146 4.503.219.587-.366 1.318-.366 2.197 0h.111c2.709 0 5.419-.109 8.128-.329 7.47-.513 14.903-.879 22.3-1.099 3.368-.146 6.737-.22 10.105-.22 8.935-.073 17.906.074 26.913.439.879 0 1.758.037 2.637.109a485.903 485.903 0 0 1 32.625 2.417c8.495.806 16.99 1.758 25.485 2.856 1.024.146 2.086.293 3.185.439a829.017 829.017 0 0 1 54.921 9.339m-267.477-16.366c.367.292.806.438 1.318.438-.512 0-.951-.146-1.318-.438-12.449-6.591-23.178-15.196-32.185-25.814 9.007 10.618 19.736 19.223 32.185 25.814m6.701-48.333c4.101 16.623 12.156 31.27 24.166 43.939-12.01-12.669-20.065-27.316-24.166-43.939m152.247-6.261l-3.515 46.794 3.515-46.794m82.277 6.919c-1.247 12.229-4.504 23.874-9.777 34.931 5.273-11.057 8.529-22.702 9.777-34.931z"/><path fill="#FCFCFC" d="M480.159 229.254c2.343 3.443 2.416 8.421.219 14.938a863.283 863.283 0 0 0 57.121-15.379 378.047 378.047 0 0 1 4.942-2.196c1.393-.584 2.343-1.317 2.858-2.196a18.158 18.158 0 0 0-.989-1.538c-1.83-2.197-4.027-3.515-6.591-3.954-.88.22-1.796.402-2.746.549a57.886 57.886 0 0 1-3.517-.33 229.86 229.86 0 0 1-19.772 4.724 54.434 54.434 0 0 0-8.457.22 627.427 627.427 0 0 0-12.633 2.746c-2.855.878-5.456 1.794-7.799 2.746l-.33-.88c-.804.149-1.571.331-2.306.55m-9.776-3.405a1.655 1.655 0 0 0-.659-.549 3.492 3.492 0 0 0-2.087-.44c-13.4-1.684-25.887.22-37.458 5.713a12.084 12.084 0 0 0-1.868 2.746c-.22.219-.402.364-.549.438.147-.073.33-.219.549-.438a12.084 12.084 0 0 1 1.868-2.746 44.6 44.6 0 0 0-4.614 2.307c3.075 5.638 4.137 11.862 3.186 18.674.951-6.812-.111-13.036-3.186-18.674l-.439.219a158.443 158.443 0 0 0-4.064-5.602c-1.831-2.637-4.248-3.589-7.25-2.856l-14.609-3.186c-2.49 0-4.907.184-7.25.549L379.43 225.3l-3.845 3.845c-4.687.586-8.238 3.259-10.655 8.02a1.253 1.253 0 0 1-.33-.221 51.326 51.326 0 0 0-2.635-1.648c1.61 2.856 2.416 6.042 2.416 9.559-.073 3.074 0 6.15.22 9.226-.22-3.075-.292-6.151-.22-9.226 0-3.517-.806-6.702-2.416-9.559a164.38 164.38 0 0 0-24.387-12.083 89.473 89.473 0 0 0-4.723-1.428c-1.685-.22-3.369-.402-5.053-.549-7.03.585-13.475 2.966-19.333 7.141a1.376 1.376 0 0 1-.549-.33c-3.809 9.595-4.797 19.626-2.966 30.099 5.932.877 11.9 1.572 17.905 2.087l1.428-1.978c1.318.88 2.637 1.355 3.955 1.429 1.977-.221 3.076-1.21 3.295-2.967l5.053 4.284a307.131 307.131 0 0 0 53.715-2.746 846.768 846.768 0 0 0 90.073-14.062c2.197-6.518 2.124-11.495-.219-14.938h-.109c-2.491-2.492-5.713-3.625-9.667-3.406m-229.25-59.317c1.245 3.002 3.478 5.346 6.701 7.03 4.833 2.636 9.557 2.49 14.17-.439a479.837 479.837 0 0 0-5.383-21.97c-6.078 3.588-11.277 8.568-15.599 14.939 0 .147.037.294.111.44m24.934-19.773l-3.405 3.295-1.318-.109a42.701 42.701 0 0 1-.769-.989 34.304 34.304 0 0 0-3.954 2.197 481.151 481.151 0 0 1 5.383 21.97c.219-.22.439-.403.659-.549.22 5.932 2.38 10.839 6.481 14.72 1.904 1.83 4.101 2.929 6.591 3.295 2.855-.147 5.565.109 8.128.768l3.955-1.317c2.197-1.025 3.295-2.746 3.295-5.163l-.22-5.054-.22-.659-2.856-29.33a13.148 13.148 0 0 1-4.284 1.868c-.293-.806-.733-1.428-1.318-1.868-3.369-2.27-7.067-2.417-11.094-.438l-4.394-2.857c-.292 0-.513.074-.66.22m44.928-.658a206.09 206.09 0 0 1-6.591-.549c-2.05.952-3.698 2.49-4.943 4.613l-1.868-3.185c-1.171-.585-2.636-.806-4.394-.66-1.025.074-1.904.44-2.636 1.099a16.625 16.625 0 0 1-2.746 2.417l2.856 29.33.22.659c.073.585.182 1.172.329 1.758l-.109-2.966c.586 3.368 1.904 6.481 3.954 9.337a63.724 63.724 0 0 0 5.272 6.481l.22.219c.952.44 1.977.806 3.076 1.099l1.099.22c1.025.074 2.197.074 3.515 0h.22l.33-.109c.796-.11 1.675-.293 2.637-.549 1.684-.513 4.247-.549 7.689-.11a98.812 98.812 0 0 1 8.019.11c6.518.293 12.778-.183 18.783-1.428 5.859-1.318 11.754-3.149 17.686-5.492l.768-4.614 1.209-.11.22-2.197-2.307-34.382a9.022 9.022 0 0 0-2.307 1.539c-.66-1.758-1.611-3.076-2.856-3.955-3.368 0-6.737.074-10.105.22-.587.732-.953 1.684-1.099 2.856a57.144 57.144 0 0 0-4.833-1.098 65.778 65.778 0 0 0-22.079.878 36.795 36.795 0 0 1-2.417-1.209h-.111c-.878-.366-1.61-.366-2.197 0-.219.074-.439.22-.659.44l-1.977 3.075c-.367-1.467-.989-2.713-1.868-3.737m51.628 30.646l.33-9.337-.549-5.492 2.637 12.303-2.418 2.526m145.438-15.708a76.954 76.954 0 0 0-3.954-.769l-.111 2.087a23.582 23.582 0 0 0-.438 4.394c.438-.147.914-.293 1.427-.44.221-.073.439-.109.658-.109l.112.659.768 4.504-1.208 3.185c1.393 2.49 3.624 4.65 6.7 6.481.292.146.586.329.88.549l10.873 5.492c1.099.438 2.197.878 3.296 1.318 4.028-.513 7.873.585 11.533 3.295.516.073 1.026.182 1.539.329l15.378-4.284 2.088.769a38.933 38.933 0 0 0 3.954-2.855c1.538-2.197 3.37-3.955 5.492-5.273.221-.293.439-.586.658-.879a16.212 16.212 0 0 1 3.407-3.295 1130.294 1130.294 0 0 0-63.052-15.158m-219.694 54.265a843.844 843.844 0 0 1-5.603-1.099l-1.319.768-2.855 3.955c-.952 1.977-1.868 3.881-2.746 5.712-.659 1.317-.915 2.819-.769 4.503.147 6.736.403 13.438.769 20.103 4.74 2.772 10.013 4.931 15.818 6.479v-.109l2.526.77c1.391.292 2.783.55 4.174.769 2.197.364 4.394.695 6.591.989-1.831-10.473-.842-20.504 2.966-30.099a5.79 5.79 0 0 1-.879-.549c-1.245-.514-2.307-1.136-3.186-1.867l1.099 1.757c-.366-.585-.732-1.173-1.099-1.757-.805-.733-1.428-1.538-1.868-2.418-2.417-2.782-5.309-4.869-8.677-6.26l-.77 1.099-1.758-2.087-2.414-.659m302.956-5.492c.44.366.916.732 1.429 1.099a229.008 229.008 0 0 1 7.58-2.308c.367-1.024.367-2.197 0-3.515-.366-1.024-.879-1.684-1.538-1.977-3.735-1.757-7.505-1.721-11.315.11-11.789-.732-22.151 2.892-31.085 10.875-2.563 2.197-3.186 4.76-1.869 7.689.661.366 1.356.66 2.088.879.586-.219 1.174-.439 1.757-.659a1137.406 1137.406 0 0 1 25.265-8.239 190.56 190.56 0 0 0 7.688-3.954m-200.03-61.515l-3.405-3.077a31.83 31.83 0 0 0-2.637-.109c-.219 0-.402.037-.549.109a171.646 171.646 0 0 1-10.105 2.747 9.404 9.404 0 0 1-3.186-.549c-3.003-1.317-5.64-1.428-7.909-.33l2.307 34.382a65.428 65.428 0 0 1 2.307 5.493c.073.074.109.147.109.22.147.366.367.732.66 1.099.438.66 1.062 1.172 1.868 1.538 4.32 2.123 9.006 3.661 14.06 4.614 4.54.439 9.081.695 13.621.768a167.64 167.64 0 0 0 17.137-1.099 200.15 200.15 0 0 0 8.897-1.317c1.465-.074 2.856 0 4.174.219 6.079.879 10.179-1.099 12.303-5.931 1.758-1.025 2.746-2.49 2.966-4.394 0-1.904.256-3.295.769-4.174l1.868-3.406.438.329a469.467 469.467 0 0 1 2.197-24.496 336.367 336.367 0 0 1-3.185-.439c-.147.659-.147 1.392 0 2.197-1.831-1.025-3.735-1.429-5.712-1.209a356.845 356.845 0 0 0-36.469-.769 5.64 5.64 0 0 1-2.087-1.317c-3.663-2.783-7.142-3.149-10.437-1.099m112.702 14.06l.111-2.087a827.453 827.453 0 0 0-54.924-9.337 467.204 467.204 0 0 0-2.197 24.496l7.142 6.481c-2.418-3.149-4.249-6.847-5.494-11.094 1.245 4.247 3.076 7.945 5.494 11.094l.877.769v.22a25.761 25.761 0 0 0 4.834 4.503h1.647a7.59 7.59 0 0 1 1.979 1.428c2.051 1.099 4.32 1.428 6.81.989a15.717 15.717 0 0 0 2.965 1.428c3.956.073 7.801-.659 11.534-2.197 3.589-3.002 6.775-6.115 9.558-9.337 1.611-1.611 2.746-3.661 3.405-6.151.658-2.271 1.757-4.028 3.295-5.273a56.078 56.078 0 0 1 2.964-5.932z"/><path d="M469.724 225.3c.292.146.513.33.659.549 3.954-.219 7.176.914 9.667 3.405h.109c-.586-.878-1.317-1.757-2.196-2.637-2.344-2.196-5.201-3.294-8.569-3.294-11.423-.878-22.518.293-33.282 3.515-2.417.731-4.394 1.976-5.932 3.735 11.57-5.494 24.057-7.397 37.458-5.713a3.494 3.494 0 0 1 2.086.44m35.481-50.53l.109-.22c-1.246-2.343-1.83-4.943-1.757-7.799-1.025.366-1.869.878-2.527 1.537a37.797 37.797 0 0 0-1.208 2.417c-2.563 5.272-5.567 10.033-9.009 14.28-.805 1.172-1.902 2.051-3.295 2.637-.953.513-1.867.988-2.746 1.428-.365.22-.731.476-1.099.769-2.124 1.611-4.649 2.343-7.578 2.197a13.835 13.835 0 0 1-2.857-.769 40.449 40.449 0 0 1-5.82-.659c-2.418-.294-4.504-1.025-6.263-2.197a6.22 6.22 0 0 1-1.317-.989h-.769l-4.284-3.186.219-1.317a11.8 11.8 0 0 1-.877-.989l-7.142-6.481a599.546 599.546 0 0 0-.769 11.425c-.146 2.197-1.171 3.954-3.076 5.272-4.027 2.417-8.348 3.259-12.961 2.526a196.362 196.362 0 0 0-14.609-.549 167.906 167.906 0 0 1-17.137 1.099 40.44 40.44 0 0 0-4.174.44c-2.343-.22-4.687-.477-7.029-.769l-2.417-.439c-.44 0-.878-.037-1.318-.11a23.865 23.865 0 0 1-5.492-.878 16.675 16.675 0 0 1-3.076-.989 36.727 36.727 0 0 1-5.163-2.307l-.878-1.867a4.392 4.392 0 0 1-.66-1.099c0-.073-.037-.146-.109-.22l-1.757-3.515-.769.219c-1.171 5.566-4.723 9.118-10.655 10.655-1.026.878-3.002 2.16-5.932 3.845-2.929 1.684-9.081 1.428-18.454-.77-4.54-1.098-8.348-1.83-11.423-2.197-3.295 0-6.372.184-9.228.549-.384.056-.751.092-1.099.11l-.33.109h-.22c-1.318.074-2.49.074-3.515 0-1.977-.146-3.369-.585-4.174-1.318-5.199-2.343-8.312-6.7-9.337-13.071v7.36l-3.405 1.098c-.22.146-.476.255-.769.33a32.594 32.594 0 0 1-4.943 1.647c-7.469 1.538-13.108-.989-16.917-7.58-.952-1.757-1.611-3.516-1.977-5.272-.44-2.051-.842-4.064-1.208-6.042-4.614 2.93-9.337 3.075-14.17.439-3.223-1.684-5.456-4.028-6.701-7.03a.965.965 0 0 1-.11-.44c-4.027 5.712-7.322 12.523-9.886 20.432l-.878 2.966c.073.219.147.475.22.768 3.148 1.831 5.931 5.31 8.348 10.435 2.417 5.347 8.349 15.306 17.795 29.88a62.382 62.382 0 0 0 4.064 5.711c-2.126-9.984 3.073-14.709 15.599-14.17l2.306-3.185a166.39 166.39 0 0 1 2.526-5.054c.513.074 1.062.184 1.648.331l1.538-.989 5.822 1.977.659.77a25.37 25.37 0 0 1 2.527.989l.878-1.538 7.029 5.932a5.93 5.93 0 0 0 .769 1.866c.44.88 1.063 1.685 1.868 2.418.879.731 1.941 1.354 3.186 1.867.293.219.586.403.879.549a62.12 62.12 0 0 1 1.428-3.295c.659-1.025 1.5-1.757 2.526-2.197 4.613-1.611 9.264-2.088 13.951-1.428.659.073 1.318.11 1.977.11.732-.073 1.501-.11 2.307-.11.952.22 1.867.439 2.746.659 7.25.953 14.17 2.746 20.761 5.382a16.397 16.397 0 0 1 4.284 3.077c1.684 1.538 3.039 3.222 4.065 5.052a52.75 52.75 0 0 1 2.635 1.648c.367-1.393 1.099-2.71 2.197-3.954 3.588-3.66 7.909-6.406 12.961-8.239a55.352 55.352 0 0 1 12.194-2.746l4.174-1.208 3.076.659c1.904 0 3.808.073 5.712.22 4.321-.366 8.495.366 12.523 2.197 1.684.732 3.039 1.758 4.063 3.075 1.611 1.905 2.966 3.881 4.064 5.933a44.802 44.802 0 0 1 4.614-2.307c1.538-1.76 3.515-3.004 5.932-3.735 10.765-3.222 21.859-4.394 33.282-3.515 3.368 0 6.226 1.098 8.569 3.294.879.88 1.61 1.759 2.196 2.637a22.183 22.183 0 0 1 2.307-.55c2.71-.658 5.419-1.28 8.129-1.866a61.777 61.777 0 0 1 4.394-1.429 54.806 54.806 0 0 1 8.239-1.317 498.154 498.154 0 0 1 15.048-3.077 177.745 177.745 0 0 0 9.448-2.197 64.47 64.47 0 0 0 3.733.33c.221-.074.477-.146.771-.22 1.976-.366 3.808-.366 5.492 0l1.538-.66 6.479 4.724a4.649 4.649 0 0 1-.438 1.428c.364.513.622 1.063.768 1.646a.972.972 0 0 1 .439-.109c.073-.586.146-1.208.22-1.867.366.438.77.915 1.207 1.427a73.657 73.657 0 0 1 4.285-1.427c-.513-5.712 1.868-10.509 7.14-14.391 10.545-7.982 22.373-11.058 35.481-9.227 1.466.293 2.783.842 3.954 1.648a46.758 46.758 0 0 1 6.481 5.052 339.095 339.095 0 0 1 9.337-2.746h.219l1.979-.878c.072.073.182.146.328.22a940.372 940.372 0 0 1 29-7.909c0-.513-.109-.953-.328-1.318-15.6-2.051-30.796-5.346-45.587-9.886a792.984 792.984 0 0 0-28.672-8.238c.073.439.112.953.112 1.538a17.33 17.33 0 0 0-4.615 2.416c-2.122 1.318-3.954 3.076-5.492 5.273a1.72 1.72 0 0 1-.328.438c-.588.879-1.502 1.795-2.746 2.746l-.88-.329a43.185 43.185 0 0 1-6.81 3.625 8.464 8.464 0 0 1-3.296.879 80.797 80.797 0 0 1-7.36-.988l-.878.22a4.28 4.28 0 0 0-.661-.549 77.134 77.134 0 0 1-11.533-3.295 1.222 1.222 0 0 1-.55.109l-2.746-1.428-10.873-5.492-4.725-2.417-2.963-4.393m40.862 51.297a4.864 4.864 0 0 0-.768-1.646c-.516.879-1.466 1.612-2.858 2.196a372.185 372.185 0 0 0-4.942 2.196 397.097 397.097 0 0 1 8.568-2.746M362.953 167.41l-.33 9.337 2.417-2.526-2.637-12.303.55 5.492m235.841 35.7c.659.293 1.172.953 1.538 1.977.367 1.318.367 2.491 0 3.515a97.632 97.632 0 0 1 4.943-1.428 46.877 46.877 0 0 0-6.481-5.052c-1.171-.806-2.488-1.355-3.954-1.648-13.108-1.831-24.937 1.245-35.481 9.227-5.271 3.881-7.652 8.678-7.14 14.391 1.465-.513 2.929-.989 4.394-1.429a10.55 10.55 0 0 1-2.088-.879c-1.316-2.929-.694-5.492 1.869-7.689 8.934-7.982 19.296-11.607 31.085-10.875 3.81-1.83 7.58-1.866 11.315-.11m-71.731-14.718a77.016 77.016 0 0 0 11.533 3.295c-3.659-2.71-7.504-3.808-11.533-3.295m7.911 31.086c.95-.147 1.866-.33 2.746-.549-1.685-.366-3.517-.366-5.492 0-.294.073-.55.146-.771.22 1.172.145 2.343.255 3.517.329m-31.746 4.614c-2.71.219-5.456.659-8.239 1.317-1.538.44-3.003.916-4.394 1.429a625.93 625.93 0 0 1 12.633-2.746m89.524-13.182a24.674 24.674 0 0 1-1.429-1.099 188.036 188.036 0 0 1-7.689 3.954c3.004-.952 6.042-1.903 9.118-2.855m-301.089 44.817h.109l2.417.66-2.526-.77v.11m-.88-39.764l1.758 2.087.77-1.099a25.632 25.632 0 0 0-2.528-.988m-9.337-.989l1.319-.768a16.74 16.74 0 0 0-1.648-.331 164.095 164.095 0 0 0-2.526 5.054l2.855-3.955m51.409 6.81c1.61.44 3.185.915 4.723 1.428a164.478 164.478 0 0 1 24.387 12.083c-1.026-1.83-2.381-3.514-4.065-5.052a16.374 16.374 0 0 0-4.284-3.077c-6.591-2.636-13.512-4.429-20.761-5.382m-5.053-.549c-.659 0-1.318-.037-1.977-.11-4.687-.66-9.337-.183-13.951 1.428-1.026.439-1.868 1.171-2.526 2.197a63.695 63.695 0 0 0-1.428 3.295c.146.146.329.258.549.33 5.858-4.174 12.303-6.554 19.333-7.14m47.783 7.91l3.845-3.845 12.523-3.295a55.352 55.352 0 0 0-12.194 2.746c-5.052 1.833-9.373 4.579-12.961 8.239-1.099 1.244-1.83 2.562-2.197 3.954.073.075.184.147.33.221 2.416-4.762 5.967-7.435 10.654-8.02m18.674-33.504a40.498 40.498 0 0 1 4.174-.44c-4.54-.073-9.081-.329-13.621-.768l2.417.439c2.343.293 4.687.549 7.03.769m19.553 29c3.002-.733 5.419.219 7.25 2.856a157.526 157.526 0 0 1 4.064 5.602l.439-.219c-1.099-2.052-2.454-4.027-4.064-5.933-1.025-1.317-2.379-2.343-4.063-3.075-4.028-1.832-8.202-2.563-12.523-2.197a74.176 74.176 0 0 0-5.712-.22l14.609 3.186m56.461-34.822c-2.489.439-4.759.109-6.81-.989a7.597 7.597 0 0 0-1.979-1.428h-1.647c.364.366.807.695 1.317.989 1.759 1.171 3.845 1.903 6.263 2.197 1.976.366 3.917.586 5.82.659a15.797 15.797 0 0 1-2.964-1.428m-16.146-7.909c.291.366.583.695.877.989v-.22l-.877-.769m-7.142-6.481l-.438-.329-1.868 3.406c-.513.878-.769 2.27-.769 4.174-.22 1.904-1.208 3.369-2.966 4.394-2.124 4.833-6.224 6.811-12.303 5.931-1.317-.219-2.708-.293-4.174-.219a200.15 200.15 0 0 1-8.897 1.317c4.833 0 9.703.184 14.609.549 4.614.733 8.935-.109 12.961-2.526 1.904-1.318 2.93-3.075 3.076-5.272.22-3.809.476-7.617.769-11.425m-82.605 8.349l-.768 4.614c-5.932 2.343-11.827 4.174-17.686 5.492-6.005 1.245-12.266 1.721-18.783 1.428a98.812 98.812 0 0 0-8.019-.11c3.075.367 6.883 1.099 11.423 2.197 9.374 2.197 15.525 2.454 18.454.77 2.93-1.685 4.906-2.966 5.932-3.845 5.932-1.537 9.484-5.089 10.655-10.655l-1.208.109m-73.267-5.163l.109 2.966c1.025 6.371 4.138 10.728 9.337 13.071l-.22-.219a63.724 63.724 0 0 1-5.272-6.481c-2.049-2.856-3.368-5.969-3.954-9.337m-27.901.549c.366 1.757 1.025 3.515 1.977 5.272 3.808 6.591 9.447 9.117 16.917 7.58a32.706 32.706 0 0 0 4.943-1.647c.293-.074.549-.184.769-.33l-3.955 1.317c-2.563-.659-5.272-.915-8.128-.768-2.49-.367-4.687-1.465-6.591-3.295-4.101-3.881-6.262-8.788-6.481-14.72-.22.146-.44.329-.659.549.366 1.978.768 3.991 1.208 6.042m294.39 9.337l-2.088-.769-15.378 4.284c2.418.439 4.87.77 7.36.988a8.464 8.464 0 0 0 3.296-.879 43.098 43.098 0 0 0 6.81-3.624m-56.572-20.212c-1.538 1.246-2.637 3.003-3.295 5.273-.659 2.49-1.794 4.54-3.405 6.151-2.782 3.222-5.969 6.334-9.558 9.337.879-.44 1.793-.915 2.746-1.428 1.393-.586 2.49-1.464 3.295-2.637 3.441-4.247 6.445-9.008 9.009-14.28.367-.805.769-1.611 1.208-2.416m4.725-1.428a2.968 2.968 0 0 0-.771-.549c-.513.147-.989.293-1.427.44-.073 2.855.511 5.456 1.757 7.799l1.208-3.185-.767-4.505z"/><path fill="#E6E6E6" d="M275.844 224.641c.878-1.831 1.794-3.735 2.746-5.712l-2.306 3.185c-12.525-.539-17.725 4.186-15.599 14.17a53.622 53.622 0 0 0 15.159 12.963 608.742 608.742 0 0 1-.769-20.103c-.146-1.684.111-3.186.769-4.503m291.862-45.148l-.658.879a17.36 17.36 0 0 1 4.615-2.416c0-.585-.039-1.099-.112-1.538l-.438-.22a16.212 16.212 0 0 0-3.407 3.295m-64.478 44.599a54.434 54.434 0 0 1 8.457-.22 229.398 229.398 0 0 0 19.772-4.724 64.47 64.47 0 0 1-3.733-.33 177.973 177.973 0 0 1-9.448 2.197 498.154 498.154 0 0 0-15.048 3.077m41.083-1.209c.367.513.695 1.025.989 1.538.219-.439.364-.915.438-1.428l-6.479-4.724-1.538.66c2.562.439 4.759 1.757 6.59 3.954m-4.175-30.867a11.324 11.324 0 0 0-1.539-.329c.222.146.44.329.661.549l.878-.22m-257.371 22.19c1.831.366 3.698.731 5.603 1.099.806.219 1.61.438 2.416.659l-.659-.77-5.822-1.977-1.538.989m11.424 1.208l-.878 1.538c3.368 1.392 6.26 3.478 8.677 6.26a5.939 5.939 0 0 1-.769-1.866l-7.03-5.932m9.446-19.664a18.956 18.956 0 0 1-3.076-1.099c.806.733 2.197 1.172 4.174 1.318l-1.098-.219m7.8-.438c-.961.256-1.841.439-2.637.549a12.27 12.27 0 0 0 1.099-.11c2.855-.366 5.932-.549 9.228-.549-3.443-.439-6.006-.403-7.69.11m18.674 25.813c-.806 0-1.575.037-2.307.11 1.684.146 3.368.329 5.053.549-.879-.22-1.794-.438-2.746-.659m61.844.879a46.922 46.922 0 0 1 7.25-.549l-3.076-.659-4.174 1.208m98.642 4.834c-2.71.586-5.419 1.208-8.129 1.866l.33.88c2.343-.952 4.943-1.868 7.799-2.746m-6.921-37.019a10.13 10.13 0 0 1 1.099-.769c-3.733 1.538-7.578 2.27-11.534 2.197.952.366 1.905.622 2.857.769 2.928.146 5.454-.585 7.578-2.197m-28.889-5.603l4.284 3.186h.769a25.761 25.761 0 0 1-4.834-4.503l-.219 1.317m-84.033 5.603c-.806-.366-1.429-.878-1.868-1.538l.878 1.867a36.727 36.727 0 0 0 5.163 2.307c1.025.44 2.05.769 3.076.989 1.831.513 3.661.805 5.492.878.44.074.878.11 1.318.11-5.052-.952-9.739-2.49-14.059-4.613m-5.163-6.152l.769-.219 1.757 3.515a65.428 65.428 0 0 0-2.307-5.493l-.219 2.197m-77.771 6.372l3.405-1.098v-7.36a14.71 14.71 0 0 1-.329-1.758l.22 5.054c-.001 2.416-1.099 4.137-3.296 5.162m269.784-1.538l.88.329c1.244-.951 2.158-1.867 2.746-2.746.146-.146.255-.292.328-.438a39.045 39.045 0 0 1-3.954 2.855m-33.834-1.428l2.746 1.428c.222 0 .403-.037.55-.109l-3.296-1.319m-22.738-18.784c.658-.659 1.502-1.171 2.527-1.537 0-1.391.146-2.856.438-4.394a56.165 56.165 0 0 0-2.965 5.931m4.284 6.261l-.109.22 2.965 4.394 4.725 2.417a5.816 5.816 0 0 0-.88-.549c-3.077-1.831-5.308-3.992-6.701-6.482z"/><g><path fill="none" stroke="#000" stroke-width="2" stroke-linecap="round" stroke-linejoin="round" d="M445.998 150.494c1.024.146 2.086.293 3.185.439a827.453 827.453 0 0 1 54.924 9.337c1.317.22 2.635.477 3.954.769a1129.45 1129.45 0 0 1 63.053 15.159l.438.22a797.67 797.67 0 0 1 28.672 8.238c14.791 4.54 29.987 7.835 45.587 9.886l3.732.44c7.106.731 20.468 1.024 40.095.878 19.626-.074 40.24 4.284 61.845 13.071a200.266 200.266 0 0 0-36.359-28.779 962.279 962.279 0 0 0-64.591-36.14 729.731 729.731 0 0 1-76.893-44.928c-26.143-17.501-55.655-33.209-88.536-47.124-32.882-13.913-60.344-20.833-82.387-20.76-22.042.147-36.213 1.062-42.511 2.746-6.371 1.611-15.524 5.236-27.462 10.875-11.936 5.565-21.822 6.444-29.659 2.636-8.788-3.221-21.236-5.236-37.348-6.042-15.524-.731-30.024-.182-43.499 1.648-26.07 3.515-46.355 14.244-60.855 32.186-14.573 17.868-18.345 40.898-11.314 69.093 6.884 28.122 21.018 46.21 42.401 54.265a94.417 94.417 0 0 0 3.515-2.307c10.692-6.005 22.042-8.092 34.053-6.261m1.098-3.515c2.564-7.909 5.859-14.72 9.886-20.432 4.321-6.371 9.521-11.351 15.599-14.939a34.387 34.387 0 0 1 3.954-2.197 35.91 35.91 0 0 1 5.492-2.197c.147-.146.367-.22.66-.22 9.008-2.929 19.443-3.552 31.307-1.867 2.124.367 4.247.66 6.371.879 2.197.219 4.394.402 6.591.549 1.464.073 2.966.146 4.503.219.587-.366 1.318-.366 2.197 0h.111c2.709 0 5.419-.109 8.128-.329 7.47-.513 14.903-.879 22.3-1.099 3.368-.146 6.737-.22 10.105-.22 8.935-.073 17.906.074 26.913.439.879 0 1.758.037 2.637.109a485.903 485.903 0 0 1 32.625 2.417c8.495.806 16.99 1.758 25.485 2.856m57.995 11.865l.111-2.087m-.548 6.481c-.073 2.855.511 5.456 1.757 7.799 1.393 2.49 3.624 4.65 6.7 6.481.292.146.586.329.88.549l10.873 5.492c1.099.438 2.197.878 3.296 1.318m13.072 3.626a11.324 11.324 0 0 0-1.539-.329m19.005-3.186a38.933 38.933 0 0 0 3.954-2.855c1.538-2.197 3.37-3.955 5.492-5.273.221-.293.439-.586.658-.879a16.212 16.212 0 0 1 3.407-3.295m-86.341 12.851c.879-.44 1.793-.915 2.746-1.428 1.393-.586 2.49-1.464 3.295-2.637 3.441-4.247 6.445-9.008 9.009-14.28.367-.806.769-1.611 1.208-2.417a56.165 56.165 0 0 1 2.965-5.931 23.582 23.582 0 0 0-.438 4.394m54.045 21.75a43.185 43.185 0 0 1-6.81 3.625 8.464 8.464 0 0 1-3.296.879 80.797 80.797 0 0 1-7.36-.988m-1.539-.33a77.134 77.134 0 0 1-11.533-3.295m-239.246 1.647c-.22.146-.476.255-.769.33a32.594 32.594 0 0 1-4.943 1.647c-7.469 1.538-13.108-.989-16.917-7.58-.952-1.757-1.611-3.516-1.977-5.272-.44-2.051-.842-4.064-1.208-6.042a479.837 479.837 0 0 0-5.383-21.97m31.197 38.887c2.197-1.025 3.295-2.746 3.295-5.163l-.22-5.054-.22-.659-2.856-29.33m3.406 31.748c1.025 6.371 4.138 10.728 9.337 13.071.952.44 1.977.806 3.076 1.099l1.099.22c1.025.074 2.197.074 3.515 0h.22l.33-.055a34.69 34.69 0 0 0 2.637-.604c1.684-.513 4.247-.549 7.689-.11m46.463-11.535l.22-2.197-2.307-34.382m-72.279 34.493a14.71 14.71 0 0 1-.329-1.758m72.608-32.735l-.109-.659m2.196 37.238c-1.171 5.566-4.723 9.118-10.655 10.655-1.026.878-3.002 2.16-5.932 3.845-2.929 1.684-9.081 1.428-18.454-.77-4.54-1.098-8.348-1.83-11.423-2.197m65.688-.767c-5.054-.953-9.74-2.491-14.06-4.614-.806-.366-1.429-.878-1.868-1.538m46.685 5.822a167.906 167.906 0 0 1-17.137 1.099m50.75-44.269a467.204 467.204 0 0 0-2.197 24.496m-78.101 12.852a4.392 4.392 0 0 1-.66-1.099c0-.073-.037-.146-.109-.22a65.428 65.428 0 0 0-2.307-5.493m81.176-6.04a599.546 599.546 0 0 0-.769 11.425c-.146 2.197-1.171 3.954-3.076 5.272-4.027 2.417-8.348 3.259-12.961 2.526a196.362 196.362 0 0 0-14.609-.549m38.557-12.193c.291.366.583.695.877.989a25.761 25.761 0 0 0 4.834 4.503m-5.711-5.492c-2.418-3.149-4.249-6.847-5.494-11.094m11.205 16.586c.364.366.807.695 1.317.989 1.759 1.171 3.845 1.903 6.263 2.197 1.976.366 3.917.586 5.82.659 3.956.073 7.801-.659 11.534-2.197m-4.613 40.204c-.586-.878-1.317-1.757-2.196-2.637-2.344-2.196-5.201-3.294-8.569-3.294-11.423-.878-22.518.293-33.282 3.515-2.417.731-4.394 1.976-5.932 3.735a12.084 12.084 0 0 0-1.868 2.746c-.22.219-.402.364-.549.438m52.615 10.435c2.197-6.518 2.124-11.495-.219-14.938m10.436-2.416a61.777 61.777 0 0 1 4.394-1.429 54.806 54.806 0 0 1 8.239-1.317m28.229-4.944c.221-.074.477-.146.771-.22 1.976-.366 3.808-.366 5.492 0m7.58 5.493c.364.513.622 1.063.768 1.646a.972.972 0 0 1 .439-.109m1.427-.439a73.657 73.657 0 0 1 4.285-1.427c-.513-5.712 1.868-10.509 7.14-14.391 10.545-7.982 22.373-11.058 35.481-9.227 1.466.293 2.783.842 3.954 1.648a46.758 46.758 0 0 1 6.481 5.052 339.095 339.095 0 0 1 9.337-2.746h.219m31.307-8.567a940.372 940.372 0 0 0-29 7.909m-126.543 23.068c-2.855.878-5.456 1.794-7.799 2.746l-.33-.88m-56.901 4.176c-1.099-2.052-2.454-4.027-4.064-5.933-1.025-1.317-2.379-2.343-4.063-3.075-4.028-1.832-8.202-2.563-12.523-2.197a74.176 74.176 0 0 0-5.712-.22c-2.49 0-4.907.184-7.25.549m36.798 29.55c.951-6.812-.111-13.036-3.186-18.674m-27.132-37.679a40.44 40.44 0 0 0-4.174.44c-2.343-.22-4.687-.477-7.029-.769l-2.417-.439m7.14 27.571a55.352 55.352 0 0 0-12.194 2.746c-5.052 1.833-9.373 4.579-12.961 8.239-1.099 1.244-1.83 2.562-2.197 3.954m-2.636-1.648c1.61 2.856 2.416 6.042 2.416 9.559-.073 3.074 0 6.15.22 9.226.22 1.759.44 3.589.66 5.492m-.661-22.629c-.146.731-.22 1.465-.22 2.196m-56.46-11.093a62.12 62.12 0 0 1 1.428-3.295c.659-1.025 1.5-1.757 2.526-2.197 4.613-1.611 9.264-2.088 13.951-1.428.659.073 1.318.11 1.977.11m5.053.548c7.25.953 14.17 2.746 20.761 5.382a16.397 16.397 0 0 1 4.284 3.077c1.684 1.538 3.039 3.222 4.065 5.052m-34.163-14.06c1.684.146 3.368.329 5.053.549m-24.935 6.262c-3.809 9.595-4.797 19.626-2.966 30.099 5.932.877 11.9 1.572 17.905 2.087m13.73.768a307.131 307.131 0 0 0 53.715-2.746 846.768 846.768 0 0 0 90.073-14.062 863.283 863.283 0 0 0 57.121-15.379m7.802-4.392a18.158 18.158 0 0 0-.989-1.538c-1.83-2.197-4.027-3.515-6.591-3.954m-6.263.219a229.86 229.86 0 0 1-19.772 4.724 54.434 54.434 0 0 0-8.457.22M336.589 261c-4.614-.146-9.19-.403-13.731-.769m-20.871-37.019c.44.88 1.063 1.685 1.868 2.418m-21.09-11.424c1.831.366 3.698.731 5.603 1.099.806.219 1.61.438 2.416.659m-8.019-1.758a16.74 16.74 0 0 0-1.648-.331 164.095 164.095 0 0 0-2.526 5.054m-2.747 30.318a608.742 608.742 0 0 1-.769-20.103c-.146-1.685.11-3.186.769-4.503.878-1.831 1.794-3.735 2.746-5.712m-17.904 17.355a53.622 53.622 0 0 0 15.159 12.963c4.74 2.772 10.031 4.931 15.873 6.479m2.471.661c1.391.292 2.783.55 4.174.769 2.197.364 4.394.695 6.591.989m-1.099-32.515l1.099 1.757m-14.171-11.424a25.37 25.37 0 0 1 2.527.989c3.368 1.392 6.26 3.478 8.677 6.26m-41.301 13.072a62.382 62.382 0 0 1-4.064-5.711c-9.446-14.574-15.378-24.533-17.795-29.88-2.417-5.125-5.2-8.604-8.348-10.435l-.439-.219m64.149 66.348l-2.417-.66h-.055m459.764-46.795l.109.11a8.666 8.666 0 0 1 1.868 1.757c2.271 2.417.256 7.543-6.041 15.38a272.848 272.848 0 0 1-13.294 9.886 1062.33 1062.33 0 0 1-73.267 49.541c-24.021 14.865-47.344 31.051-69.972 48.551a488.476 488.476 0 0 1-73.048 47.016c-24.9 13.182-51.079 23.031-78.542 29.549l-80.297 7.578c-22.848-.95-50.676-5.089-83.484-12.411-32.881-7.396-58.475-22.519-76.783-45.368-18.307-22.992-27.425-49.832-27.351-80.517 0-30.684 7.029-57.816 21.09-81.397m457.073-3.625a225.89 225.89 0 0 0-3.404.878m-29 7.91c-.805.146-1.575.366-2.307.659m-31.197 9.337a1299.1 1299.1 0 0 1 9.118-2.855 229.008 229.008 0 0 1 7.58-2.308m-43.72 14.06c.586-.219 1.174-.439 1.757-.659a1137.406 1137.406 0 0 1 25.265-8.239m21.641-6.59c-1.685.44-3.332.915-4.943 1.428m-43.72 14.06c-1.465.439-2.929.916-4.394 1.429m-6.151 1.975c-2.855.88-5.711 1.794-8.568 2.746"/></g><g><path fill="none" stroke="#AD2735" stroke-width="2" stroke-linecap="round" stroke-linejoin="round" d="M204.444 118.089c9.007 10.618 19.736 19.224 32.185 25.814.367.292.806.438 1.318.438m5.383-48.77c4.101 16.623 12.156 31.27 24.166 43.939m128.081-50.2l-3.515 46.794m85.792-39.875c-1.247 12.229-4.504 23.874-9.777 34.931a121.641 121.641 0 0 1-3.735 7.689M215.648 285.935c3.808-12.303 9.886-23.506 18.234-33.613 1.758-1.976 3.479-3.917 5.163-5.82m21.75 95.235c-2.197-19.627-.513-34.859 5.054-45.696 5.565-10.838 8.714-16.953 9.446-18.346m-34.382 110.618c-11.352-7.616-17.43-21.529-18.235-41.741a67.39 67.39 0 0 1 .22-7.689m441.474-124.897a134.47 134.47 0 0 1 7.47 36.36c.292 3.223.44 6.406.44 9.556m-47.674 6.92c-2.343-14.72-8.679-27.315-19.005-37.787a16.963 16.963 0 0 0-2.635-2.527m-108.529 47.014c10.032 21.895 14.426 44.929 13.182 69.095a335.828 335.828 0 0 0-.33 8.457"/></g></svg>