<?xml version="1.0" encoding="utf-8"?>
<!-- Generator: Adobe Illustrator 16.0.0, SVG Export Plug-In . SVG Version: 6.00 Build 0)  -->
<!DOCTYPE svg PUBLIC "-//W3C//DTD SVG 1.1//EN" "http://www.w3.org/Graphics/SVG/1.1/DTD/svg11.dtd">
<svg version="1.1" id="Layer_1" xmlns="http://www.w3.org/2000/svg" xmlns:xlink="http://www.w3.org/1999/xlink" x="0px" y="0px"
	 width="900px" height="450px" viewBox="0 0 900 450" enable-background="new 0 0 900 450" xml:space="preserve">
<g transform="matrix( 1, 0, 0, 1, 0,0) ">
	<g>
		<g id="Layer0_0_FILL">
			<path fill="#DE474A" d="M336.589,261c-4.614-0.146-9.19-0.403-13.731-0.769c-6.005-0.515-11.973-1.21-17.905-2.087
				c-2.197-0.294-4.394-0.625-6.591-0.989c-1.391-0.219-2.783-0.477-4.174-0.769c-0.806-0.221-1.611-0.439-2.417-0.66h-0.109
				c-5.806-1.549-11.078-3.707-15.818-6.479c-5.858-3.368-10.912-7.689-15.159-12.963c-1.465-1.832-2.819-3.735-4.064-5.711
				c-9.446-14.574-15.378-24.533-17.795-29.88c-2.417-5.125-5.2-8.604-8.348-10.435c-0.147-0.073-0.292-0.146-0.439-0.219
				c-12.01-1.831-23.361,0.255-34.053,6.261c-1.171,0.806-2.343,1.575-3.515,2.307c-14.061,23.581-21.09,50.713-21.09,81.397
				c-0.074,30.685,9.044,57.524,27.351,80.517c18.308,22.85,43.902,37.973,76.783,45.368c32.808,7.322,60.636,11.461,83.484,12.411
				l80.297-7.578c27.463-6.518,53.642-16.367,78.542-29.549c25.702-13.476,50.053-29.146,73.048-47.016
				c22.628-17.5,45.951-33.686,69.972-48.551c25.046-15.454,49.468-31.966,73.267-49.541c4.615-3.223,9.046-6.518,13.294-9.886
				c6.297-7.836,8.312-12.963,6.041-15.38c-0.515-0.659-1.137-1.245-1.868-1.757l-0.109-0.11
				c-21.604-8.788-42.219-13.145-61.845-13.071c-19.627,0.146-32.988-0.147-40.095-0.878c-1.171,0.293-2.306,0.585-3.404,0.878
				c-9.738,2.49-19.405,5.126-29,7.909c-0.805,0.146-1.575,0.366-2.307,0.659h-0.219c-3.149,0.878-6.263,1.793-9.337,2.746
				c-1.685,0.44-3.332,0.915-4.943,1.428c-2.563,0.733-5.091,1.502-7.58,2.308c-3.076,0.952-6.114,1.903-9.118,2.855
				c-8.42,2.637-16.841,5.383-25.265,8.239c-0.583,0.22-1.171,0.44-1.757,0.659c-1.465,0.439-2.929,0.916-4.394,1.429
				c-1.466,0.438-2.893,0.915-4.285,1.427c-0.51,0.146-0.986,0.294-1.427,0.44c-0.147,0-0.293,0.036-0.439,0.109
				c-2.855,0.88-5.711,1.794-8.568,2.746c-18.894,5.787-37.932,10.912-57.121,15.379c-29.73,6.299-59.756,10.984-90.073,14.062
				C372.437,260.742,354.532,261.658,336.589,261 M233.882,252.321c1.758-1.976,3.479-3.917,5.163-5.82
				C237.361,248.404,235.641,250.346,233.882,252.321c-8.348,10.107-14.426,21.311-18.234,33.613
				C219.457,273.632,225.535,262.429,233.882,252.321 M265.849,296.041c5.565-10.838,8.714-16.953,9.446-18.346
				C274.563,279.088,271.414,285.203,265.849,296.041c-5.566,10.837-7.25,26.069-5.054,45.696
				C258.598,322.11,260.282,306.878,265.849,296.041 M222.678,346.571c-0.073-2.564,0-5.126,0.22-7.689
				C222.678,341.445,222.605,344.007,222.678,346.571c0.806,20.212,6.884,34.125,18.235,41.741
				C229.562,380.696,223.483,366.783,222.678,346.571 M671.842,250.346c0.292,3.223,0.44,6.406,0.44,9.556
				C672.282,256.752,672.134,253.568,671.842,250.346c-0.807-12.45-3.295-24.57-7.47-36.36
				C668.547,225.776,671.035,237.896,671.842,250.346 M605.604,229.035c-0.805-0.953-1.682-1.796-2.635-2.527
				C603.922,227.239,604.799,228.082,605.604,229.035c10.326,10.472,16.662,23.067,19.005,37.787
				C622.266,252.103,615.93,239.507,605.604,229.035 M507.621,342.617c-0.146,2.855-0.258,5.675-0.33,8.457
				C507.363,348.292,507.476,345.473,507.621,342.617c1.244-24.166-3.149-47.2-13.182-69.095
				C504.472,295.417,508.865,318.451,507.621,342.617 M504.106,160.27c1.317,0.22,2.635,0.477,3.954,0.769
				c21.238,4.467,42.255,9.521,63.053,15.159c0.146,0.074,0.292,0.147,0.438,0.22c9.595,2.563,19.15,5.309,28.672,8.238
				c14.791,4.54,29.987,7.835,45.587,9.886c1.244,0.146,2.488,0.293,3.732,0.44c7.106,0.731,20.468,1.024,40.095,0.878
				c19.626-0.074,40.24,4.284,61.845,13.071c-10.985-10.985-23.104-20.577-36.359-28.779c-21.092-12.889-42.621-24.935-64.591-36.14
				c-26.657-13.475-52.286-28.451-76.893-44.928c-26.143-17.501-55.655-33.209-88.536-47.124
				C452.222,38.047,424.76,31.127,402.717,31.2c-22.042,0.147-36.213,1.062-42.511,2.746c-6.371,1.611-15.524,5.236-27.462,10.875
				c-11.936,5.565-21.822,6.444-29.659,2.636c-8.788-3.221-21.236-5.236-37.348-6.042c-15.524-0.731-30.024-0.182-43.499,1.648
				c-26.07,3.515-46.355,14.244-60.855,32.186c-14.573,17.868-18.345,40.898-11.314,69.093c6.884,28.122,21.018,46.21,42.401,54.265
				c1.172-0.732,2.344-1.501,3.515-2.307c10.692-6.005,22.042-8.092,34.053-6.261l0.22-0.549l0.878-2.966
				c2.564-7.909,5.859-14.72,9.886-20.432c4.321-6.371,9.521-11.351,15.599-14.939c1.245-0.805,2.563-1.538,3.954-2.197
				c1.758-0.878,3.588-1.611,5.492-2.197c0.147-0.146,0.367-0.22,0.66-0.22c9.008-2.929,19.443-3.552,31.307-1.867
				c2.124,0.367,4.247,0.66,6.371,0.879c2.197,0.219,4.394,0.402,6.591,0.549c1.464,0.073,2.966,0.146,4.503,0.219
				c0.587-0.366,1.318-0.366,2.197,0h0.111c2.709,0,5.419-0.109,8.128-0.329c7.47-0.513,14.903-0.879,22.3-1.099
				c3.368-0.146,6.737-0.22,10.105-0.22c8.935-0.073,17.906,0.074,26.913,0.439c0.879,0,1.758,0.037,2.637,0.109
				c10.912,0.44,21.786,1.246,32.625,2.417c8.495,0.806,16.99,1.758,25.485,2.856c1.024,0.146,2.086,0.293,3.185,0.439
				C467.563,153.423,485.87,156.536,504.106,160.27 M236.629,143.904c0.367,0.292,0.806,0.438,1.318,0.438
				C237.435,144.342,236.996,144.196,236.629,143.904c-12.449-6.591-23.178-15.196-32.185-25.814
				C213.451,128.708,224.18,137.313,236.629,143.904 M243.33,95.571c4.101,16.623,12.156,31.27,24.166,43.939
				C255.486,126.841,247.431,112.194,243.33,95.571 M395.577,89.31l-3.515,46.794L395.577,89.31 M477.854,96.229
				c-1.247,12.229-4.504,23.874-9.777,34.931c-1.099,2.49-2.343,5.054-3.735,7.689c1.393-2.636,2.637-5.2,3.735-7.689
				C473.35,120.103,476.606,108.458,477.854,96.229z"/>
			<path fill="#FCFCFC" d="M480.159,229.254c2.343,3.443,2.416,8.421,0.219,14.938c19.189-4.467,38.228-9.592,57.121-15.379
				c1.613-0.731,3.261-1.463,4.942-2.196c1.393-0.584,2.343-1.317,2.858-2.196c-0.294-0.513-0.622-1.025-0.989-1.538
				c-1.83-2.197-4.027-3.515-6.591-3.954c-0.88,0.22-1.796,0.402-2.746,0.549c-1.174-0.074-2.345-0.184-3.517-0.33
				c-6.37,1.83-12.961,3.405-19.772,4.724c-2.78-0.147-5.602-0.074-8.457,0.22c-4.248,0.878-8.458,1.793-12.633,2.746
				c-2.855,0.878-5.456,1.794-7.799,2.746l-0.33-0.88C481.661,228.853,480.894,229.035,480.159,229.254 M470.383,225.849
				c-0.146-0.219-0.367-0.404-0.659-0.549c-0.658-0.366-1.355-0.513-2.087-0.44c-13.4-1.684-25.887,0.22-37.458,5.713
				c-0.733,0.805-1.355,1.721-1.868,2.746c-0.22,0.219-0.402,0.364-0.549,0.438c0.147-0.073,0.33-0.219,0.549-0.438
				c0.513-1.025,1.135-1.941,1.868-2.746c-1.539,0.658-3.076,1.427-4.614,2.307c3.075,5.638,4.137,11.862,3.186,18.674
				c0.951-6.812-0.111-13.036-3.186-18.674c-0.146,0.072-0.293,0.146-0.439,0.219c-1.318-1.903-2.673-3.77-4.064-5.602
				c-1.831-2.637-4.248-3.589-7.25-2.856l-14.609-3.186c-2.49,0-4.907,0.184-7.25,0.549L379.43,225.3l-3.845,3.845
				c-4.687,0.586-8.238,3.259-10.655,8.02c-0.146-0.073-0.256-0.146-0.33-0.221c-0.146,0.731-0.22,1.465-0.22,2.196
				c0-0.731,0.074-1.465,0.22-2.196c-0.878-0.586-1.757-1.136-2.635-1.648c1.61,2.856,2.416,6.042,2.416,9.559
				c-0.073,3.074,0,6.15,0.22,9.226c0.22,1.759,0.44,3.589,0.66,5.492c-0.22-1.903-0.439-3.733-0.66-5.492
				c-0.22-3.075-0.292-6.151-0.22-9.226c0-3.517-0.806-6.702-2.416-9.559c-7.764-4.688-15.892-8.712-24.387-12.083
				c-1.538-0.513-3.113-0.988-4.723-1.428c-1.685-0.22-3.369-0.402-5.053-0.549c-7.03,0.585-13.475,2.966-19.333,7.141
				c-0.22-0.072-0.403-0.185-0.549-0.33c-3.809,9.595-4.797,19.626-2.966,30.099c5.932,0.877,11.9,1.572,17.905,2.087l1.428-1.978
				c1.318,0.88,2.637,1.355,3.955,1.429c1.977-0.221,3.076-1.21,3.295-2.967l5.053,4.284c17.942,0.658,35.847-0.258,53.715-2.746
				c30.317-3.077,60.343-7.763,90.073-14.062c2.197-6.518,2.124-11.495-0.219-14.938h-0.109
				C477.559,226.763,474.337,225.63,470.383,225.849 M241.133,166.532c1.245,3.002,3.478,5.346,6.701,7.03
				c4.833,2.636,9.557,2.49,14.17-0.439c-1.611-7.324-3.406-14.646-5.383-21.97c-6.078,3.588-11.277,8.568-15.599,14.939
				C241.022,166.239,241.059,166.386,241.133,166.532 M266.067,146.759l-3.405,3.295l-1.318-0.109
				c-0.293-0.367-0.549-0.696-0.769-0.989c-1.392,0.659-2.709,1.392-3.954,2.197c1.977,7.324,3.771,14.646,5.383,21.97
				c0.219-0.22,0.439-0.403,0.659-0.549c0.22,5.932,2.38,10.839,6.481,14.72c1.904,1.83,4.101,2.929,6.591,3.295
				c2.855-0.147,5.565,0.109,8.128,0.768l3.955-1.317c2.197-1.025,3.295-2.746,3.295-5.163c-0.074-1.685-0.147-3.37-0.22-5.054
				l-0.22-0.659l-2.856-29.33c-1.318,0.879-2.746,1.502-4.284,1.868c-0.293-0.806-0.733-1.428-1.318-1.868
				c-3.369-2.27-7.067-2.417-11.094-0.438l-4.394-2.857C266.435,146.539,266.214,146.613,266.067,146.759 M310.995,146.101
				c-2.197-0.147-4.394-0.331-6.591-0.549c-2.05,0.952-3.698,2.49-4.943,4.613l-1.868-3.185c-1.171-0.585-2.636-0.806-4.394-0.66
				c-1.025,0.074-1.904,0.44-2.636,1.099c-0.879,0.953-1.794,1.758-2.746,2.417l2.856,29.33l0.22,0.659
				c0.073,0.585,0.182,1.172,0.329,1.758l-0.109-2.966c0.586,3.368,1.904,6.481,3.954,9.337c1.611,2.27,3.368,4.43,5.272,6.481
				c0.073,0.073,0.147,0.146,0.22,0.219c0.952,0.44,1.977,0.806,3.076,1.099c0.367,0.074,0.733,0.147,1.099,0.22
				c1.025,0.074,2.197,0.074,3.515,0h0.22l0.33-0.109c0.796-0.11,1.675-0.293,2.637-0.549c1.684-0.513,4.247-0.549,7.689-0.11
				c2.563-0.073,5.236-0.037,8.019,0.11c6.518,0.293,12.778-0.183,18.783-1.428c5.859-1.318,11.754-3.149,17.686-5.492l0.768-4.614
				l1.209-0.11c0.073-0.732,0.146-1.464,0.22-2.197l-2.307-34.382c-0.806,0.366-1.575,0.879-2.307,1.539
				c-0.66-1.758-1.611-3.076-2.856-3.955c-3.368,0-6.737,0.074-10.105,0.22c-0.587,0.732-0.953,1.684-1.099,2.856
				c-1.611-0.439-3.222-0.806-4.833-1.098c-7.396-0.953-14.756-0.66-22.079,0.878c-0.806-0.366-1.611-0.769-2.417-1.209h-0.111
				c-0.878-0.366-1.61-0.366-2.197,0c-0.219,0.074-0.439,0.22-0.659,0.44l-1.977,3.075
				C312.496,148.371,311.874,147.125,310.995,146.101 M362.623,176.747l0.33-9.337l-0.549-5.492l2.637,12.303L362.623,176.747
				 M508.061,161.039c-1.319-0.292-2.637-0.549-3.954-0.769l-0.111,2.087c-0.292,1.538-0.438,3.003-0.438,4.394
				c0.438-0.147,0.914-0.293,1.427-0.44c0.221-0.073,0.439-0.109,0.658-0.109l0.112,0.659l0.768,4.504l-1.208,3.185
				c1.393,2.49,3.624,4.65,6.7,6.481c0.292,0.146,0.586,0.329,0.88,0.549l10.873,5.492c1.099,0.438,2.197,0.878,3.296,1.318
				c4.028-0.513,7.873,0.585,11.533,3.295c0.516,0.073,1.026,0.182,1.539,0.329l15.378-4.284l2.088,0.769
				c1.39-0.878,2.71-1.831,3.954-2.855c1.538-2.197,3.37-3.955,5.492-5.273c0.221-0.293,0.439-0.586,0.658-0.879
				c0.953-1.244,2.088-2.343,3.407-3.295C550.315,170.56,529.299,165.506,508.061,161.039 M288.367,215.304
				c-1.904-0.367-3.771-0.733-5.603-1.099l-1.319,0.768l-2.855,3.955c-0.952,1.977-1.868,3.881-2.746,5.712
				c-0.659,1.317-0.915,2.819-0.769,4.503c0.147,6.736,0.403,13.438,0.769,20.103c4.74,2.772,10.013,4.931,15.818,6.479
				c0-0.03,0-0.066,0-0.109l2.526,0.77c1.391,0.292,2.783,0.55,4.174,0.769c2.197,0.364,4.394,0.695,6.591,0.989
				c-1.831-10.473-0.842-20.504,2.966-30.099c-0.293-0.146-0.586-0.33-0.879-0.549c-1.245-0.514-2.307-1.136-3.186-1.867
				c0.366,0.584,0.733,1.172,1.099,1.757c-0.366-0.585-0.732-1.173-1.099-1.757c-0.805-0.733-1.428-1.538-1.868-2.418
				c-2.417-2.782-5.309-4.869-8.677-6.26l-0.77,1.099l-1.758-2.087C289.978,215.743,289.173,215.523,288.367,215.304
				 M591.323,209.812c0.44,0.366,0.916,0.732,1.429,1.099c2.489-0.806,5.017-1.575,7.58-2.308c0.367-1.024,0.367-2.197,0-3.515
				c-0.366-1.024-0.879-1.684-1.538-1.977c-3.735-1.757-7.505-1.721-11.315,0.11c-11.789-0.732-22.151,2.892-31.085,10.875
				c-2.563,2.197-3.186,4.76-1.869,7.689c0.661,0.366,1.356,0.66,2.088,0.879c0.586-0.219,1.174-0.439,1.757-0.659
				c8.424-2.856,16.845-5.602,25.265-8.239C586.198,212.521,588.762,211.203,591.323,209.812 M391.293,148.297l-3.405-3.077
				c-0.879-0.073-1.757-0.109-2.637-0.109c-0.219,0-0.402,0.037-0.549,0.109c-3.369,1.026-6.737,1.942-10.105,2.747
				c-1.099,0-2.161-0.183-3.186-0.549c-3.003-1.317-5.64-1.428-7.909-0.33l2.307,34.382c0.806,1.684,1.574,3.516,2.307,5.493
				c0.073,0.074,0.109,0.147,0.109,0.22c0.147,0.366,0.367,0.732,0.66,1.099c0.438,0.66,1.062,1.172,1.868,1.538
				c4.32,2.123,9.006,3.661,14.06,4.614c4.54,0.439,9.081,0.695,13.621,0.768c5.712-0.073,11.424-0.438,17.137-1.099
				c2.929-0.366,5.895-0.804,8.897-1.317c1.465-0.074,2.856,0,4.174,0.219c6.079,0.879,10.179-1.099,12.303-5.931
				c1.758-1.025,2.746-2.49,2.966-4.394c0-1.904,0.256-3.295,0.769-4.174l1.868-3.406l0.438,0.329
				c0.513-8.128,1.246-16.293,2.197-24.496c-1.099-0.146-2.161-0.293-3.185-0.439c-0.147,0.659-0.147,1.392,0,2.197
				c-1.831-1.025-3.735-1.429-5.712-1.209c-12.156-0.878-24.313-1.135-36.469-0.769c-0.806-0.293-1.501-0.732-2.087-1.317
				C398.067,146.613,394.588,146.247,391.293,148.297 M503.995,162.357l0.111-2.087c-18.236-3.734-36.543-6.847-54.924-9.337
				c-0.952,8.202-1.685,16.368-2.197,24.496l7.142,6.481c-2.418-3.149-4.249-6.847-5.494-11.094
				c1.245,4.247,3.076,7.945,5.494,11.094l0.877,0.769v0.22c1.393,1.684,3.002,3.185,4.834,4.503h1.647
				c0.733,0.366,1.391,0.842,1.979,1.428c2.051,1.099,4.32,1.428,6.81,0.989c0.952,0.586,1.939,1.062,2.965,1.428
				c3.956,0.073,7.801-0.659,11.534-2.197c3.589-3.002,6.775-6.115,9.558-9.337c1.611-1.611,2.746-3.661,3.405-6.151
				c0.658-2.271,1.757-4.028,3.295-5.273C501.91,166.239,502.896,164.262,503.995,162.357z"/>
			<path d="M469.724,225.3c0.292,0.146,0.513,0.33,0.659,0.549c3.954-0.219,7.176,0.914,9.667,3.405h0.109
				c-0.586-0.878-1.317-1.757-2.196-2.637c-2.344-2.196-5.201-3.294-8.569-3.294c-11.423-0.878-22.518,0.293-33.282,3.515
				c-2.417,0.731-4.394,1.976-5.932,3.735c11.57-5.494,24.057-7.397,37.458-5.713C468.368,224.787,469.065,224.934,469.724,225.3
				 M505.205,174.77l0.109-0.22c-1.246-2.343-1.83-4.943-1.757-7.799c-1.025,0.366-1.869,0.878-2.527,1.537
				c-0.439,0.806-0.841,1.611-1.208,2.417c-2.563,5.272-5.567,10.033-9.009,14.28c-0.805,1.172-1.902,2.051-3.295,2.637
				c-0.953,0.513-1.867,0.988-2.746,1.428c-0.365,0.22-0.731,0.476-1.099,0.769c-2.124,1.611-4.649,2.343-7.578,2.197
				c-0.952-0.147-1.905-0.403-2.857-0.769c-1.903-0.073-3.845-0.293-5.82-0.659c-2.418-0.294-4.504-1.025-6.263-2.197
				c-0.511-0.294-0.953-0.623-1.317-0.989h-0.769l-4.284-3.186l0.219-1.317c-0.294-0.294-0.586-0.624-0.877-0.989l-7.142-6.481
				c-0.293,3.808-0.549,7.616-0.769,11.425c-0.146,2.197-1.171,3.954-3.076,5.272c-4.027,2.417-8.348,3.259-12.961,2.526
				c-4.907-0.366-9.777-0.549-14.609-0.549c-5.712,0.66-11.425,1.026-17.137,1.099c-1.392,0.074-2.783,0.22-4.174,0.44
				c-2.343-0.22-4.687-0.477-7.029-0.769c-0.806-0.146-1.611-0.293-2.417-0.439c-0.44,0-0.878-0.037-1.318-0.11
				c-1.831-0.073-3.661-0.366-5.492-0.878c-1.025-0.22-2.05-0.549-3.076-0.989c-1.831-0.659-3.552-1.428-5.163-2.307l-0.878-1.867
				c-0.293-0.366-0.513-0.733-0.66-1.099c0-0.073-0.037-0.146-0.109-0.22l-1.757-3.515l-0.769,0.219
				c-1.171,5.566-4.723,9.118-10.655,10.655c-1.026,0.878-3.002,2.16-5.932,3.845c-2.929,1.684-9.081,1.428-18.454-0.77
				c-4.54-1.098-8.348-1.83-11.423-2.197c-3.295,0-6.372,0.184-9.228,0.549c-0.384,0.056-0.751,0.092-1.099,0.11l-0.33,0.109h-0.22
				c-1.318,0.074-2.49,0.074-3.515,0c-1.977-0.146-3.369-0.585-4.174-1.318c-5.199-2.343-8.312-6.7-9.337-13.071v7.36l-3.405,1.098
				c-0.22,0.146-0.476,0.255-0.769,0.33c-1.538,0.659-3.186,1.208-4.943,1.647c-7.469,1.538-13.108-0.989-16.917-7.58
				c-0.952-1.757-1.611-3.516-1.977-5.272c-0.44-2.051-0.842-4.064-1.208-6.042c-4.614,2.93-9.337,3.075-14.17,0.439
				c-3.223-1.684-5.456-4.028-6.701-7.03c-0.074-0.146-0.11-0.293-0.11-0.44c-4.027,5.712-7.322,12.523-9.886,20.432l-0.878,2.966
				c0.073,0.219,0.147,0.475,0.22,0.768c3.148,1.831,5.931,5.31,8.348,10.435c2.417,5.347,8.349,15.306,17.795,29.88
				c1.245,1.976,2.599,3.879,4.064,5.711c-2.126-9.984,3.073-14.709,15.599-14.17l2.306-3.185c0.806-1.684,1.648-3.369,2.526-5.054
				c0.513,0.074,1.062,0.184,1.648,0.331l1.538-0.989l5.822,1.977l0.659,0.77c0.879,0.292,1.722,0.622,2.527,0.989l0.878-1.538
				l7.029,5.932c0.147,0.659,0.403,1.281,0.769,1.866c0.44,0.88,1.063,1.685,1.868,2.418c0.879,0.731,1.941,1.354,3.186,1.867
				c0.293,0.219,0.586,0.403,0.879,0.549c0.438-1.099,0.915-2.197,1.428-3.295c0.659-1.025,1.5-1.757,2.526-2.197
				c4.613-1.611,9.264-2.088,13.951-1.428c0.659,0.073,1.318,0.11,1.977,0.11c0.732-0.073,1.501-0.11,2.307-0.11
				c0.952,0.22,1.867,0.439,2.746,0.659c7.25,0.953,14.17,2.746,20.761,5.382c1.611,0.807,3.039,1.832,4.284,3.077
				c1.684,1.538,3.039,3.222,4.065,5.052c0.878,0.513,1.757,1.063,2.635,1.648c0.367-1.393,1.099-2.71,2.197-3.954
				c3.588-3.66,7.909-6.406,12.961-8.239c4.028-1.391,8.093-2.306,12.194-2.746l4.174-1.208l3.076,0.659
				c1.904,0,3.808,0.073,5.712,0.22c4.321-0.366,8.495,0.366,12.523,2.197c1.684,0.732,3.039,1.758,4.063,3.075
				c1.611,1.905,2.966,3.881,4.064,5.933c1.538-0.88,3.075-1.648,4.614-2.307c1.538-1.76,3.515-3.004,5.932-3.735
				c10.765-3.222,21.859-4.394,33.282-3.515c3.368,0,6.226,1.098,8.569,3.294c0.879,0.88,1.61,1.759,2.196,2.637
				c0.734-0.219,1.502-0.401,2.307-0.55c2.71-0.658,5.419-1.28,8.129-1.866c1.391-0.513,2.855-0.989,4.394-1.429
				c2.783-0.659,5.529-1.099,8.239-1.317c4.979-1.099,9.995-2.124,15.048-3.077c3.223-0.659,6.372-1.391,9.448-2.197
				c1.245,0.147,2.489,0.256,3.733,0.33c0.221-0.074,0.477-0.146,0.771-0.22c1.976-0.366,3.808-0.366,5.492,0
				c0.513-0.22,1.023-0.44,1.538-0.66l6.479,4.724c-0.073,0.513-0.219,0.988-0.438,1.428c0.364,0.513,0.622,1.063,0.768,1.646
				c0.146-0.073,0.292-0.109,0.439-0.109c0.073-0.586,0.146-1.208,0.22-1.867c0.366,0.438,0.77,0.915,1.207,1.427
				c1.393-0.512,2.819-0.988,4.285-1.427c-0.513-5.712,1.868-10.509,7.14-14.391c10.545-7.982,22.373-11.058,35.481-9.227
				c1.466,0.293,2.783,0.842,3.954,1.648c2.27,1.464,4.431,3.148,6.481,5.052c3.074-0.953,6.188-1.868,9.337-2.746h0.219
				l1.979-0.878c0.072,0.073,0.182,0.146,0.328,0.22c9.595-2.783,19.262-5.419,29-7.909c0-0.513-0.109-0.953-0.328-1.318
				c-15.6-2.051-30.796-5.346-45.587-9.886c-9.521-2.93-19.077-5.676-28.672-8.238c0.073,0.439,0.112,0.953,0.112,1.538
				c-1.687,0.586-3.223,1.392-4.615,2.416c-2.122,1.318-3.954,3.076-5.492,5.273c-0.073,0.146-0.183,0.293-0.328,0.438
				c-0.588,0.879-1.502,1.795-2.746,2.746l-0.88-0.329c-2.124,1.391-4.394,2.6-6.81,3.625c-1.025,0.513-2.124,0.806-3.296,0.879
				c-2.49-0.219-4.942-0.549-7.36-0.988l-0.878,0.22c-0.221-0.22-0.439-0.403-0.661-0.549c-3.954-0.806-7.798-1.904-11.533-3.295
				c-0.146,0.073-0.328,0.109-0.55,0.109l-2.746-1.428l-10.873-5.492l-4.725-2.417L505.205,174.77 M546.067,226.067
				c-0.146-0.583-0.403-1.133-0.768-1.646c-0.516,0.879-1.466,1.612-2.858,2.196c-1.682,0.733-3.329,1.465-4.942,2.196
				C540.356,227.861,543.212,226.947,546.067,226.067 M362.953,167.41l-0.33,9.337l2.417-2.526l-2.637-12.303L362.953,167.41
				 M598.794,203.11c0.659,0.293,1.172,0.953,1.538,1.977c0.367,1.318,0.367,2.491,0,3.515c1.611-0.513,3.259-0.988,4.943-1.428
				c-2.051-1.904-4.212-3.588-6.481-5.052c-1.171-0.806-2.488-1.355-3.954-1.648c-13.108-1.831-24.937,1.245-35.481,9.227
				c-5.271,3.881-7.652,8.678-7.14,14.391c1.465-0.513,2.929-0.989,4.394-1.429c-0.731-0.219-1.427-0.513-2.088-0.879
				c-1.316-2.929-0.694-5.492,1.869-7.689c8.934-7.982,19.296-11.607,31.085-10.875C591.289,201.39,595.059,201.354,598.794,203.11
				 M527.063,188.392c3.735,1.391,7.579,2.49,11.533,3.295C534.937,188.977,531.092,187.879,527.063,188.392 M534.974,219.478
				c0.95-0.147,1.866-0.33,2.746-0.549c-1.685-0.366-3.517-0.366-5.492,0c-0.294,0.073-0.55,0.146-0.771,0.22
				C532.629,219.294,533.8,219.404,534.974,219.478 M503.228,224.092c-2.71,0.219-5.456,0.659-8.239,1.317
				c-1.538,0.44-3.003,0.916-4.394,1.429C494.77,225.885,498.979,224.97,503.228,224.092 M592.752,210.91
				c-0.513-0.367-0.988-0.732-1.429-1.099c-2.562,1.392-5.125,2.71-7.689,3.954C586.638,212.813,589.676,211.862,592.752,210.91
				 M291.663,255.727h0.109c0.806,0.221,1.611,0.439,2.417,0.66l-2.526-0.77C291.663,255.66,291.663,255.696,291.663,255.727
				 M290.783,215.963l1.758,2.087l0.77-1.099C292.505,216.585,291.663,216.255,290.783,215.963 M281.446,214.974l1.319-0.768
				c-0.586-0.147-1.135-0.256-1.648-0.331c-0.878,1.685-1.721,3.37-2.526,5.054L281.446,214.974 M332.855,221.784
				c1.61,0.44,3.185,0.915,4.723,1.428c8.495,3.371,16.623,7.396,24.387,12.083c-1.026-1.83-2.381-3.514-4.065-5.052
				c-1.245-1.245-2.673-2.271-4.284-3.077C347.025,224.53,340.104,222.737,332.855,221.784 M327.802,221.235
				c-0.659,0-1.318-0.037-1.977-0.11c-4.687-0.66-9.337-0.183-13.951,1.428c-1.026,0.439-1.868,1.171-2.526,2.197
				c-0.513,1.099-0.989,2.197-1.428,3.295c0.146,0.146,0.329,0.258,0.549,0.33C314.327,224.201,320.772,221.821,327.802,221.235
				 M375.585,229.145l3.845-3.845l12.523-3.295c-4.101,0.44-8.166,1.355-12.194,2.746c-5.052,1.833-9.373,4.579-12.961,8.239
				c-1.099,1.244-1.83,2.562-2.197,3.954c0.073,0.075,0.184,0.147,0.33,0.221C367.347,232.403,370.898,229.73,375.585,229.145
				 M394.259,195.641c1.392-0.22,2.783-0.366,4.174-0.44c-4.54-0.073-9.081-0.329-13.621-0.768c0.806,0.146,1.611,0.293,2.417,0.439
				C389.572,195.165,391.916,195.421,394.259,195.641 M413.812,224.641c3.002-0.733,5.419,0.219,7.25,2.856
				c1.391,1.832,2.746,3.698,4.064,5.602c0.146-0.073,0.293-0.146,0.439-0.219c-1.099-2.052-2.454-4.027-4.064-5.933
				c-1.025-1.317-2.379-2.343-4.063-3.075c-4.028-1.832-8.202-2.563-12.523-2.197c-1.904-0.147-3.808-0.22-5.712-0.22
				L413.812,224.641 M470.273,189.819c-2.489,0.439-4.759,0.109-6.81-0.989c-0.588-0.585-1.245-1.062-1.979-1.428h-1.647
				c0.364,0.366,0.807,0.695,1.317,0.989c1.759,1.171,3.845,1.903,6.263,2.197c1.976,0.366,3.917,0.586,5.82,0.659
				C472.213,190.881,471.226,190.405,470.273,189.819 M454.127,181.91c0.291,0.366,0.583,0.695,0.877,0.989v-0.22L454.127,181.91
				 M446.985,175.429l-0.438-0.329l-1.868,3.406c-0.513,0.878-0.769,2.27-0.769,4.174c-0.22,1.904-1.208,3.369-2.966,4.394
				c-2.124,4.833-6.224,6.811-12.303,5.931c-1.317-0.219-2.708-0.293-4.174-0.219c-3.002,0.513-5.968,0.951-8.897,1.317
				c4.833,0,9.703,0.184,14.609,0.549c4.614,0.733,8.935-0.109,12.961-2.526c1.904-1.318,2.93-3.075,3.076-5.272
				C446.436,183.045,446.692,179.237,446.985,175.429 M364.38,183.778l-0.768,4.614c-5.932,2.343-11.827,4.174-17.686,5.492
				c-6.005,1.245-12.266,1.721-18.783,1.428c-2.783-0.147-5.456-0.183-8.019-0.11c3.075,0.367,6.883,1.099,11.423,2.197
				c9.374,2.197,15.525,2.454,18.454,0.77c2.93-1.685,4.906-2.966,5.932-3.845c5.932-1.537,9.484-5.089,10.655-10.655
				L364.38,183.778 M291.113,178.615l0.109,2.966c1.025,6.371,4.138,10.728,9.337,13.071c-0.073-0.073-0.146-0.146-0.22-0.219
				c-1.904-2.051-3.661-4.211-5.272-6.481C293.018,185.096,291.699,181.983,291.113,178.615 M263.212,179.164
				c0.366,1.757,1.025,3.515,1.977,5.272c3.808,6.591,9.447,9.117,16.917,7.58c1.757-0.439,3.405-0.989,4.943-1.647
				c0.293-0.074,0.549-0.184,0.769-0.33l-3.955,1.317c-2.563-0.659-5.272-0.915-8.128-0.768c-2.49-0.367-4.687-1.465-6.591-3.295
				c-4.101-3.881-6.262-8.788-6.481-14.72c-0.22,0.146-0.44,0.329-0.659,0.549C262.37,175.1,262.772,177.113,263.212,179.164
				 M557.602,188.501l-2.088-0.769l-15.378,4.284c2.418,0.439,4.87,0.77,7.36,0.988c1.172-0.073,2.271-0.366,3.296-0.879
				C553.208,191.101,555.478,189.892,557.602,188.501 M501.03,168.289c-1.538,1.246-2.637,3.003-3.295,5.273
				c-0.659,2.49-1.794,4.54-3.405,6.151c-2.782,3.222-5.969,6.334-9.558,9.337c0.879-0.44,1.793-0.915,2.746-1.428
				c1.393-0.586,2.49-1.464,3.295-2.637c3.441-4.247,6.445-9.008,9.009-14.28C500.189,169.9,500.591,169.094,501.03,168.289
				 M505.755,166.861c-0.222-0.22-0.477-0.402-0.771-0.549c-0.513,0.147-0.989,0.293-1.427,0.44
				c-0.073,2.855,0.511,5.456,1.757,7.799l1.208-3.185L505.755,166.861z"/>
			<path fill="#E6E6E6" d="M275.844,224.641c0.878-1.831,1.794-3.735,2.746-5.712l-2.306,3.185
				c-12.525-0.539-17.725,4.186-15.599,14.17c4.247,5.273,9.301,9.595,15.159,12.963c-0.366-6.664-0.622-13.366-0.769-20.103
				C274.929,227.46,275.186,225.958,275.844,224.641 M567.706,179.493c-0.219,0.293-0.438,0.586-0.658,0.879
				c1.393-1.024,2.929-1.83,4.615-2.416c0-0.585-0.039-1.099-0.112-1.538c-0.146-0.073-0.291-0.146-0.438-0.22
				C569.794,177.15,568.659,178.249,567.706,179.493 M503.228,224.092c2.855-0.294,5.677-0.367,8.457-0.22
				c6.812-1.318,13.402-2.894,19.772-4.724c-1.244-0.074-2.488-0.183-3.733-0.33c-3.076,0.806-6.226,1.538-9.448,2.197
				C513.223,221.968,508.207,222.993,503.228,224.092 M544.311,222.883c0.367,0.513,0.695,1.025,0.989,1.538
				c0.219-0.439,0.364-0.915,0.438-1.428l-6.479-4.724c-0.515,0.22-1.025,0.44-1.538,0.66
				C540.283,219.368,542.48,220.686,544.311,222.883 M540.136,192.016c-0.513-0.147-1.023-0.256-1.539-0.329
				c0.222,0.146,0.44,0.329,0.661,0.549L540.136,192.016 M282.765,214.206c1.831,0.366,3.698,0.731,5.603,1.099
				c0.806,0.219,1.61,0.438,2.416,0.659l-0.659-0.77l-5.822-1.977L282.765,214.206 M294.189,215.414l-0.878,1.538
				c3.368,1.392,6.26,3.478,8.677,6.26c-0.366-0.585-0.622-1.208-0.769-1.866L294.189,215.414 M303.635,195.75
				c-1.099-0.293-2.124-0.659-3.076-1.099c0.806,0.733,2.197,1.172,4.174,1.318C304.368,195.897,304.002,195.824,303.635,195.75
				 M311.435,195.312c-0.961,0.256-1.841,0.439-2.637,0.549c0.348-0.018,0.714-0.055,1.099-0.11
				c2.855-0.366,5.932-0.549,9.228-0.549C315.682,194.763,313.119,194.799,311.435,195.312 M330.109,221.125
				c-0.806,0-1.575,0.037-2.307,0.11c1.684,0.146,3.368,0.329,5.053,0.549C331.976,221.564,331.061,221.346,330.109,221.125
				 M391.953,222.004c2.343-0.366,4.76-0.549,7.25-0.549l-3.076-0.659L391.953,222.004 M490.595,226.838
				c-2.71,0.586-5.419,1.208-8.129,1.866l0.33,0.88C485.139,228.632,487.739,227.716,490.595,226.838 M483.674,189.819
				c0.367-0.293,0.733-0.549,1.099-0.769c-3.733,1.538-7.578,2.27-11.534,2.197c0.952,0.366,1.905,0.622,2.857,0.769
				C479.024,192.162,481.55,191.431,483.674,189.819 M454.785,184.216l4.284,3.186h0.769c-1.832-1.318-3.441-2.819-4.834-4.503
				L454.785,184.216 M370.752,189.819c-0.806-0.366-1.429-0.878-1.868-1.538l0.878,1.867c1.611,0.879,3.332,1.648,5.163,2.307
				c1.025,0.44,2.05,0.769,3.076,0.989c1.831,0.513,3.661,0.805,5.492,0.878c0.44,0.074,0.878,0.11,1.318,0.11
				C379.759,193.48,375.072,191.942,370.752,189.819 M365.589,183.667l0.769-0.219l1.757,3.515
				c-0.733-1.977-1.501-3.809-2.307-5.493C365.735,182.203,365.662,182.936,365.589,183.667 M287.818,190.039l3.405-1.098v-7.36
				c-0.147-0.586-0.256-1.173-0.329-1.758c0.073,1.684,0.146,3.369,0.22,5.054C291.113,187.293,290.015,189.014,287.818,190.039
				 M557.602,188.501l0.88,0.329c1.244-0.951,2.158-1.867,2.746-2.746c0.146-0.146,0.255-0.292,0.328-0.438
				C560.312,186.67,558.991,187.623,557.602,188.501 M523.768,187.073l2.746,1.428c0.222,0,0.403-0.037,0.55-0.109
				C525.965,187.952,524.866,187.512,523.768,187.073 M501.03,168.289c0.658-0.659,1.502-1.171,2.527-1.537
				c0-1.391,0.146-2.856,0.438-4.394C502.896,164.262,501.91,166.239,501.03,168.289 M505.314,174.55l-0.109,0.22l2.965,4.394
				l4.725,2.417c-0.294-0.22-0.588-0.403-0.88-0.549C508.938,179.201,506.707,177.04,505.314,174.55z"/>
		</g>
	</g>
	<g>
		<path id="Layer0_0_1_STROKES" fill="none" stroke="#000000" stroke-width="2" stroke-linecap="round" stroke-linejoin="round" d="
			M445.998,150.494c1.024,0.146,2.086,0.293,3.185,0.439c18.381,2.49,36.688,5.603,54.924,9.337c1.317,0.22,2.635,0.477,3.954,0.769
			c21.238,4.467,42.255,9.521,63.053,15.159c0.146,0.074,0.292,0.147,0.438,0.22c9.595,2.563,19.15,5.309,28.672,8.238
			c14.791,4.54,29.987,7.835,45.587,9.886c1.244,0.146,2.488,0.293,3.732,0.44c7.106,0.731,20.468,1.024,40.095,0.878
			c19.626-0.074,40.24,4.284,61.845,13.071c-10.985-10.985-23.104-20.577-36.359-28.779c-21.092-12.889-42.621-24.935-64.591-36.14
			c-26.657-13.475-52.286-28.451-76.893-44.928c-26.143-17.501-55.655-33.209-88.536-47.124
			C452.222,38.047,424.76,31.127,402.717,31.2c-22.042,0.147-36.213,1.062-42.511,2.746c-6.371,1.611-15.524,5.236-27.462,10.875
			c-11.936,5.565-21.822,6.444-29.659,2.636c-8.788-3.221-21.236-5.236-37.348-6.042c-15.524-0.731-30.024-0.182-43.499,1.648
			c-26.07,3.515-46.355,14.244-60.855,32.186c-14.573,17.868-18.345,40.898-11.314,69.093c6.884,28.122,21.018,46.21,42.401,54.265
			c1.172-0.732,2.344-1.501,3.515-2.307c10.692-6.005,22.042-8.092,34.053-6.261 M231.136,186.524
			c2.564-7.909,5.859-14.72,9.886-20.432c4.321-6.371,9.521-11.351,15.599-14.939c1.245-0.805,2.563-1.538,3.954-2.197
			c1.758-0.878,3.588-1.611,5.492-2.197c0.147-0.146,0.367-0.22,0.66-0.22c9.008-2.929,19.443-3.552,31.307-1.867
			c2.124,0.367,4.247,0.66,6.371,0.879c2.197,0.219,4.394,0.402,6.591,0.549c1.464,0.073,2.966,0.146,4.503,0.219
			c0.587-0.366,1.318-0.366,2.197,0h0.111c2.709,0,5.419-0.109,8.128-0.329c7.47-0.513,14.903-0.879,22.3-1.099
			c3.368-0.146,6.737-0.22,10.105-0.22c8.935-0.073,17.906,0.074,26.913,0.439c0.879,0,1.758,0.037,2.637,0.109
			c10.912,0.44,21.786,1.246,32.625,2.417c8.495,0.806,16.99,1.758,25.485,2.856 M503.995,162.357l0.111-2.087 M503.558,166.751
			c-0.073,2.855,0.511,5.456,1.757,7.799c1.393,2.49,3.624,4.65,6.7,6.481c0.292,0.146,0.586,0.329,0.88,0.549l10.873,5.492
			c1.099,0.438,2.197,0.878,3.296,1.318 M540.136,192.016c-0.513-0.147-1.023-0.256-1.539-0.329 M557.602,188.501
			c1.39-0.878,2.71-1.831,3.954-2.855c1.538-2.197,3.37-3.955,5.492-5.273c0.221-0.293,0.439-0.586,0.658-0.879
			c0.953-1.244,2.088-2.343,3.407-3.295 M484.772,189.05c0.879-0.44,1.793-0.915,2.746-1.428c1.393-0.586,2.49-1.464,3.295-2.637
			c3.441-4.247,6.445-9.008,9.009-14.28c0.367-0.806,0.769-1.611,1.208-2.417c0.88-2.05,1.866-4.027,2.965-5.931
			c-0.292,1.538-0.438,3.003-0.438,4.394 M557.602,188.501c-2.124,1.391-4.394,2.6-6.81,3.625c-1.025,0.513-2.124,0.806-3.296,0.879
			c-2.49-0.219-4.942-0.549-7.36-0.988 M538.597,191.687c-3.954-0.806-7.798-1.904-11.533-3.295 M287.818,190.039
			c-0.22,0.146-0.476,0.255-0.769,0.33c-1.538,0.659-3.186,1.208-4.943,1.647c-7.469,1.538-13.108-0.989-16.917-7.58
			c-0.952-1.757-1.611-3.516-1.977-5.272c-0.44-2.051-0.842-4.064-1.208-6.042c-1.611-7.324-3.406-14.646-5.383-21.97
			 M287.818,190.039c2.197-1.025,3.295-2.746,3.295-5.163c-0.074-1.685-0.147-3.37-0.22-5.054l-0.22-0.659l-2.856-29.33
			 M291.223,181.581c1.025,6.371,4.138,10.728,9.337,13.071c0.952,0.44,1.977,0.806,3.076,1.099c0.367,0.074,0.733,0.147,1.099,0.22
			c1.025,0.074,2.197,0.074,3.515,0h0.22l0.33-0.055c0.796-0.146,1.675-0.348,2.637-0.604c1.684-0.513,4.247-0.549,7.689-0.11
			 M365.589,183.667c0.073-0.732,0.146-1.464,0.22-2.197l-2.307-34.382 M291.223,181.581c-0.147-0.586-0.256-1.173-0.329-1.758
			 M363.502,147.088l-0.109-0.659 M365.589,183.667c-1.171,5.566-4.723,9.118-10.655,10.655c-1.026,0.878-3.002,2.16-5.932,3.845
			c-2.929,1.684-9.081,1.428-18.454-0.77c-4.54-1.098-8.348-1.83-11.423-2.197 M384.813,194.433
			c-5.054-0.953-9.74-2.491-14.06-4.614c-0.806-0.366-1.429-0.878-1.868-1.538 M415.57,194.103
			c-5.712,0.66-11.425,1.026-17.137,1.099 M449.183,150.933c-0.952,8.202-1.685,16.368-2.197,24.496 M368.885,188.281
			c-0.293-0.366-0.513-0.733-0.66-1.099c0-0.073-0.037-0.146-0.109-0.22c-0.733-1.977-1.501-3.809-2.307-5.493 M446.985,175.429
			c-0.293,3.808-0.549,7.616-0.769,11.425c-0.146,2.197-1.171,3.954-3.076,5.272c-4.027,2.417-8.348,3.259-12.961,2.526
			c-4.907-0.366-9.777-0.549-14.609-0.549 M454.127,181.91c0.291,0.366,0.583,0.695,0.877,0.989
			c1.393,1.684,3.002,3.185,4.834,4.503 M454.127,181.91c-2.418-3.149-4.249-6.847-5.494-11.094 M459.838,187.402
			c0.364,0.366,0.807,0.695,1.317,0.989c1.759,1.171,3.845,1.903,6.263,2.197c1.976,0.366,3.917,0.586,5.82,0.659
			c3.956,0.073,7.801-0.659,11.534-2.197 M480.159,229.254c-0.586-0.878-1.317-1.757-2.196-2.637
			c-2.344-2.196-5.201-3.294-8.569-3.294c-11.423-0.878-22.518,0.293-33.282,3.515c-2.417,0.731-4.394,1.976-5.932,3.735
			c-0.733,0.805-1.355,1.721-1.868,2.746c-0.22,0.219-0.402,0.364-0.549,0.438 M480.378,244.192
			c2.197-6.518,2.124-11.495-0.219-14.938 M490.595,226.838c1.391-0.513,2.855-0.989,4.394-1.429
			c2.783-0.659,5.529-1.099,8.239-1.317 M531.457,219.148c0.221-0.074,0.477-0.146,0.771-0.22c1.976-0.366,3.808-0.366,5.492,0
			 M545.3,224.421c0.364,0.513,0.622,1.063,0.768,1.646c0.146-0.073,0.292-0.109,0.439-0.109 M547.934,225.519
			c1.393-0.512,2.819-0.988,4.285-1.427c-0.513-5.712,1.868-10.509,7.14-14.391c10.545-7.982,22.373-11.058,35.481-9.227
			c1.466,0.293,2.783,0.842,3.954,1.648c2.27,1.464,4.431,3.148,6.481,5.052c3.074-0.953,6.188-1.868,9.337-2.746h0.219
			 M646.138,195.861c-9.738,2.49-19.405,5.126-29,7.909 M490.595,226.838c-2.855,0.878-5.456,1.794-7.799,2.746l-0.33-0.88
			 M425.565,232.88c-1.099-2.052-2.454-4.027-4.064-5.933c-1.025-1.317-2.379-2.343-4.063-3.075
			c-4.028-1.832-8.202-2.563-12.523-2.197c-1.904-0.147-3.808-0.22-5.712-0.22c-2.49,0-4.907,0.184-7.25,0.549 M428.751,251.554
			c0.951-6.812-0.111-13.036-3.186-18.674 M398.433,195.201c-1.392,0.074-2.783,0.22-4.174,0.44
			c-2.343-0.22-4.687-0.477-7.029-0.769c-0.806-0.146-1.611-0.293-2.417-0.439 M391.953,222.004
			c-4.101,0.44-8.166,1.355-12.194,2.746c-5.052,1.833-9.373,4.579-12.961,8.239c-1.099,1.244-1.83,2.562-2.197,3.954
			 M361.965,235.295c1.61,2.856,2.416,6.042,2.416,9.559c-0.073,3.074,0,6.15,0.22,9.226c0.22,1.759,0.44,3.589,0.66,5.492
			 M364.6,236.943c-0.146,0.731-0.22,1.465-0.22,2.196 M307.92,228.046c0.438-1.099,0.915-2.197,1.428-3.295
			c0.659-1.025,1.5-1.757,2.526-2.197c4.613-1.611,9.264-2.088,13.951-1.428c0.659,0.073,1.318,0.11,1.977,0.11 M332.855,221.784
			c7.25,0.953,14.17,2.746,20.761,5.382c1.611,0.807,3.039,1.832,4.284,3.077c1.684,1.538,3.039,3.222,4.065,5.052 M327.802,221.235
			c1.684,0.146,3.368,0.329,5.053,0.549 M307.92,228.046c-3.809,9.595-4.797,19.626-2.966,30.099
			c5.932,0.877,11.9,1.572,17.905,2.087 M336.589,261c17.942,0.658,35.847-0.258,53.715-2.746
			c30.317-3.077,60.343-7.763,90.073-14.062c19.189-4.467,38.228-9.592,57.121-15.379 M545.3,224.421
			c-0.294-0.513-0.622-1.025-0.989-1.538c-1.83-2.197-4.027-3.515-6.591-3.954 M531.457,219.148
			c-6.37,1.83-12.961,3.405-19.772,4.724c-2.78-0.147-5.602-0.074-8.457,0.22 M336.589,261c-4.614-0.146-9.19-0.403-13.731-0.769
			 M301.987,223.212c0.44,0.88,1.063,1.685,1.868,2.418 M282.765,214.206c1.831,0.366,3.698,0.731,5.603,1.099
			c0.806,0.219,1.61,0.438,2.416,0.659 M282.765,214.206c-0.586-0.147-1.135-0.256-1.648-0.331c-0.878,1.685-1.721,3.37-2.526,5.054
			 M275.844,249.247c-0.366-6.664-0.622-13.366-0.769-20.103c-0.146-1.685,0.11-3.186,0.769-4.503
			c0.878-1.831,1.794-3.735,2.746-5.712 M260.686,236.284c4.247,5.273,9.301,9.595,15.159,12.963
			c4.74,2.772,10.031,4.931,15.873,6.479 M294.189,256.387c1.391,0.292,2.783,0.55,4.174,0.769c2.197,0.364,4.394,0.695,6.591,0.989
			 M303.855,225.63c0.366,0.584,0.733,1.172,1.099,1.757 M290.783,215.963c0.879,0.292,1.722,0.622,2.527,0.989
			c3.368,1.392,6.26,3.478,8.677,6.26 M260.686,236.284c-1.465-1.832-2.819-3.735-4.064-5.711
			c-9.446-14.574-15.378-24.533-17.795-29.88c-2.417-5.125-5.2-8.604-8.348-10.435c-0.147-0.073-0.292-0.146-0.439-0.219
			 M294.189,256.387c-0.806-0.221-1.611-0.439-2.417-0.66h-0.055 M751.481,208.932l0.109,0.11c0.731,0.513,1.354,1.099,1.868,1.757
			c2.271,2.417,0.256,7.543-6.041,15.38c-4.248,3.368-8.679,6.663-13.294,9.886c-23.799,17.575-48.221,34.087-73.267,49.541
			c-24.021,14.865-47.344,31.051-69.972,48.551c-22.995,17.87-47.346,33.54-73.048,47.016c-24.9,13.182-51.079,23.031-78.542,29.549
			l-80.297,7.578c-22.848-0.95-50.676-5.089-83.484-12.411c-32.881-7.396-58.475-22.519-76.783-45.368
			c-18.307-22.992-27.425-49.832-27.351-80.517c0-30.684,7.029-57.816,21.09-81.397 M649.542,194.982
			c-1.171,0.293-2.306,0.585-3.404,0.878 M617.138,203.77c-0.805,0.146-1.575,0.366-2.307,0.659 M583.634,213.766
			c3.004-0.953,6.042-1.904,9.118-2.855c2.489-0.806,5.017-1.575,7.58-2.308 M556.612,222.663c0.586-0.219,1.174-0.439,1.757-0.659
			c8.424-2.856,16.845-5.602,25.265-8.239 M605.275,207.175c-1.685,0.44-3.332,0.915-4.943,1.428 M556.612,222.663
			c-1.465,0.439-2.929,0.916-4.394,1.429 M546.067,226.067c-2.855,0.88-5.711,1.794-8.568,2.746"/>
	</g>
	<g>
		<path id="Layer0_0_2_STROKES" fill="none" stroke="#AD2735" stroke-width="2" stroke-linecap="round" stroke-linejoin="round" d="
			M204.444,118.089c9.007,10.618,19.736,19.224,32.185,25.814c0.367,0.292,0.806,0.438,1.318,0.438 M243.33,95.571
			c4.101,16.623,12.156,31.27,24.166,43.939 M395.577,89.31l-3.515,46.794 M477.854,96.229c-1.247,12.229-4.504,23.874-9.777,34.931
			c-1.099,2.49-2.343,5.054-3.735,7.689 M215.648,285.935c3.808-12.303,9.886-23.506,18.234-33.613
			c1.758-1.976,3.479-3.917,5.163-5.82 M260.795,341.737c-2.197-19.627-0.513-34.859,5.054-45.696
			c5.565-10.838,8.714-16.953,9.446-18.346 M240.913,388.313c-11.352-7.616-17.43-21.529-18.235-41.741
			c-0.073-2.564,0-5.126,0.22-7.689 M664.372,213.986c4.175,11.79,6.663,23.91,7.47,36.36c0.292,3.223,0.44,6.406,0.44,9.556
			 M624.608,266.822c-2.343-14.72-8.679-27.315-19.005-37.787c-0.805-0.953-1.682-1.796-2.635-2.527 M494.439,273.522
			c10.032,21.895,14.426,44.929,13.182,69.095c-0.146,2.855-0.258,5.675-0.33,8.457"/>
	</g>
</g>
</svg>
