
<svg xmlns="http://www.w3.org/2000/svg" version="1.1" xmlns:xlink="http://www.w3.org/1999/xlink" preserveAspectRatio="none" x="0px" y="0px" width="285px" height="427px" viewBox="0 0 285 427">
<defs>
<radialGradient id="Gradient_1" gradientUnits="userSpaceOnUse" cx="0" cy="0" r="76.15551523034954" fx="0" fy="0" gradientTransform="matrix( 0.09651303622289557, -0.9953317205027871, 0.7090753681682124, 0.06877374519964838, 63.3,198.75) " spreadMethod="pad">
<stop  offset="66.27450980392157%" stop-color="#012F87"/>

<stop  offset="91.76470588235294%" stop-color="#0150D1"/>

<stop  offset="100%" stop-color="#012F87"/>
</radialGradient>

<linearGradient id="Gradient_2" gradientUnits="userSpaceOnUse" x1="87.23749999999998" y1="228.1" x2="279.4625" y2="228.1" spreadMethod="pad">
<stop  offset="7.0588235294117645%" stop-color="#014BBA"/>

<stop  offset="71.37254901960785%" stop-color="#5084FC"/>
</linearGradient>

<linearGradient id="Gradient_3" gradientUnits="userSpaceOnUse" x1="96.98749999999998" y1="107.4" x2="269.2125" y2="107.4" spreadMethod="pad">
<stop  offset="0%" stop-color="#0345A7"/>

<stop  offset="21.176470588235293%" stop-color="#3572FD"/>

<stop  offset="100%" stop-color="#0348AF"/>
</linearGradient>

<g id="Layer0_0_FILL">
<path fill="url(#Gradient_1)" stroke="none" d="
M 58.4 142.8
Q 62.5 142.7 66.1 143.9 74.2 146.4 79.2 155.1 86.3 167.1 87.5 167.15 87.3 157.4 87.3 149.05 87.3 135.3 87.55 125.65 86.55 126.2 83.45 126.45 76.85 126.95 65.7 124.95 50.75 122.35 37.45 130 25.75 136.7 15.8 154.15 5.8 171.6 5.55 203.2 5.35 234.65 16.95 254.95 28.55 275.35 49.15 278.85 62.35 281.15 71.45 280.3 84.2 279.3 90.95 272.8 90.45 265.2 90.2 258.05 90 252.9 89.8 247.8 80.45 260.75 62.6 259.65 44.8 258.5 35.35 241.6 25.95 224.7 25.95 200.75 25.95 176.85 35.35 159.9 44.8 143.05 58.4 142.8 Z"/>

<path fill="#1069FE" stroke="none" d="
M 278.65 110.3
L 278.8 106.95
Q 278.75 106.65 278.75 106.55
L 278.65 110.3 Z"/>

<path fill="url(#Gradient_2)" stroke="none" d="
M 183.75 136
Q 183.45 136 183.1 136 147.1 135.95 120.9 129.1 120.7 129.05 120.6 129.05
L 120.5 129.05
Q 118.55 128.4 116.5 127.9 115.5 127.6 114.55 127.25 89.55 119.7 88.8 108.95 87.9 114.6 87.55 125.65 87.3 135.3 87.3 149.05 87.3 157.4 87.5 167.15 87.95 199.3 89.8 247.8 90 252.9 90.2 258.05 90.45 265.2 90.95 272.8 91.7 294.35 92.9 318.5 93.95 330.2 118.85 338.5 144.8 347.25 181.65 347.25 218.45 347.25 244.45 338.5 269.45 330.2 270.5 318.5 282.35 107.55 278.65 110.3 276.35 120.1 253 127.25
L 251.25 127.85
Q 251.2 127.9 251.05 127.9 250.8 127.95 250.3 128.1
L 246.6 129.15 246.55 129.15
Q 246.4 129.15 246.35 129.25 226.35 134.4 200.85 135.6 200.65 135.6 200.4 135.65 192.35 136 183.75 136 Z"/>

<path fill="#4259FF" stroke="none" d="
M 251.05 88.5
Q 248.15 87.7 245.2 86.9 241.95 86.1 238.55 85.45 235.2 84.7 231.65 84.05 231.5 84.05 231.45 84.05 215.3 81.25 196.2 80.6 190.15 80.35 183.75 80.35
L 183.1 80.35
Q 147.3 80.45 121.15 87.15 121.1 87.15 120.95 87.25 118.75 87.95 116.5 88.5 115.7 88.7 114.9 89 89.1 96.9 88.7 107.9
L 88.8 108.95
Q 89.55 119.7 114.55 127.25 115.5 127.6 116.5 127.9 118.55 128.4 120.5 129.05
L 120.6 129.05
Q 120.7 129.05 120.9 129.1 147.1 135.95 183.1 136 183.45 136 183.75 136 192.35 136 200.4 135.65 200.65 135.6 200.85 135.6 226.35 134.4 246.35 129.25 246.4 129.15 246.55 129.15
L 246.6 129.15 250.3 128.1
Q 250.8 127.95 251.05 127.9 251.2 127.9 251.25 127.85
L 253 127.25
Q 276.35 120.1 278.65 110.3
L 278.75 106.55
Q 276.7 95.95 251.05 88.5
M 243.95 91.65
Q 246.85 92.45 249.4 93.2 267.45 98.85 269.1 106.15 270.55 114.65 250.95 121.1 248 121.9 244.8 122.75 225.3 127.95 200.35 129.3 192.05 129.75 183.1 129.75 147.35 129.75 122.2 123.2 119.1 122.35 116.45 121.5 97.7 115.8 97.05 108.05
L 97 107.2
Q 97.4 99.2 116.4 93.35 119.05 92.45 122.2 91.65 147.35 85.15 183.1 85.15 189.75 85.15 196.2 85.45 215.05 86.1 230.65 88.8 234.2 89.4 237.6 90.25 240.75 90.85 243.95 91.65 Z"/>

<path fill="url(#Gradient_3)" stroke="none" d="
M 249.4 93.2
Q 246.85 92.45 243.95 91.65 240.75 90.85 237.6 90.25 234.2 89.4 230.65 88.8 215.05 86.1 196.2 85.45 189.75 85.15 183.1 85.15 147.35 85.15 122.2 91.65 119.05 92.45 116.4 93.35 97.4 99.2 97 107.2
L 97.05 108.05
Q 97.7 115.8 116.45 121.5 119.1 122.35 122.2 123.2 147.35 129.75 183.1 129.75 192.05 129.75 200.35 129.3 225.3 127.95 244.8 122.75 248 121.9 250.95 121.1 270.55 114.65 269.1 106.15 267.45 98.85 249.4 93.2 Z"/>
</g>

<path id="Layer0_0_1_STROKES" stroke="#000000" stroke-width="2" stroke-linejoin="round" stroke-linecap="round" fill="none" d="
M 278.75 106.55
Q 276.7 95.95 251.05 88.5 248.15 87.7 245.2 86.9 241.95 86.1 238.55 85.45 235.2 84.7 231.65 84.05 231.5 84.05 231.45 84.05 215.3 81.25 196.2 80.6 190.15 80.35 183.75 80.35
M 183.1 80.35
Q 147.3 80.45 121.15 87.15 121.1 87.15 120.95 87.25 118.75 87.95 116.5 88.5 115.7 88.7 114.9 89 89.1 96.9 88.7 107.9
L 88.8 108.95
Q 89.55 119.7 114.55 127.25 115.5 127.6 116.5 127.9 118.55 128.4 120.5 129.05
L 120.6 129.05
Q 120.7 129.05 120.9 129.1 147.1 135.95 183.1 136 183.45 136 183.75 136 192.35 136 200.4 135.65 200.65 135.6 200.85 135.6 226.35 134.4 246.35 129.25 246.4 129.15 246.55 129.15
L 246.6 129.15 250.3 128.1
Q 250.8 127.95 251.05 127.9 251.2 127.9 251.25 127.85
L 253 127.25
Q 276.35 120.1 278.65 110.3
M 278.75 106.55
Q 278.75 106.65 278.8 106.95 278.85 107.65 278.85 108.2 278.85 109.2 278.65 110.3 282.35 107.55 270.5 318.5 269.45 330.2 244.45 338.5 218.45 347.25 181.65 347.25 144.8 347.25 118.85 338.5 93.95 330.2 92.9 318.5 91.7 294.35 90.95 272.8 84.2 279.3 71.45 280.3 62.35 281.15 49.15 278.85 28.55 275.35 16.95 254.95 5.35 234.65 5.55 203.2 5.8 171.6 15.8 154.15 25.75 136.7 37.45 130 50.75 122.35 65.7 124.95 76.85 126.95 83.45 126.45 86.55 126.2 87.55 125.65 87.9 114.6 88.8 108.95 88.7 108.6 88.7 108.2 88.7 108 88.7 107.9
M 97 107.2
Q 97.4 99.2 116.4 93.35 119.05 92.45 122.2 91.65 147.35 85.15 183.1 85.15 189.75 85.15 196.2 85.45 215.05 86.1 230.65 88.8 234.2 89.4 237.6 90.25 240.75 90.85 243.95 91.65 246.85 92.45 249.4 93.2 267.45 98.85 269.1 106.15 270.55 114.65 250.95 121.1 248 121.9 244.8 122.75 225.3 127.95 200.35 129.3 192.05 129.75 183.1 129.75 147.35 129.75 122.2 123.2 119.1 122.35 116.45 121.5 97.7 115.8 97.05 108.05
M 278.65 110.3
L 278.8 106.95
M 89.8 247.8
Q 80.45 260.75 62.6 259.65 44.8 258.5 35.35 241.6 25.95 224.7 25.95 200.75 25.95 176.85 35.35 159.9 44.8 143.05 58.4 142.8 62.5 142.7 66.1 143.9 74.2 146.4 79.2 155.1 86.3 167.1 87.5 167.15 87.3 157.4 87.3 149.05 87.3 135.3 87.55 125.65
M 89.8 247.8
Q 90 252.9 90.2 258.05 90.45 265.2 90.95 272.8
M 87.5 167.15
Q 87.95 199.3 89.8 247.8"/>
</defs>

<g transform="matrix( 1, 0, 0, 1, 0,0) ">
<use xlink:href="#Layer0_0_FILL"/>

<use xlink:href="#Layer0_0_1_STROKES"/>
</g>
</svg>
