<svg xmlns="http://www.w3.org/2000/svg" xmlns:xlink="http://www.w3.org/1999/xlink" preserveAspectRatio="none" width="285" height="427" viewBox="0 0 285 427"><defs><radialGradient id="a" gradientUnits="userSpaceOnUse" cx="0" cy="0" r="76.156" fx="0" fy="0" gradientTransform="matrix(.09651 -.99533 .70908 .06877 63.3 198.75)" spreadMethod="pad"><stop offset="66.275%" stop-color="#012F87"/><stop offset="91.765%" stop-color="#0150D1"/><stop offset="100%" stop-color="#012F87"/></radialGradient><linearGradient id="b" gradientUnits="userSpaceOnUse" x1="87.237" y1="228.1" x2="279.462" y2="228.1" spreadMethod="pad"><stop offset="7.059%" stop-color="#014BBA"/><stop offset="71.373%" stop-color="#5084FC"/></linearGradient><linearGradient id="c" gradientUnits="userSpaceOnUse" x1="96.987" y1="107.4" x2="269.212" y2="107.4" spreadMethod="pad"><stop offset="0%" stop-color="#0345A7"/><stop offset="21.176%" stop-color="#3572FD"/><stop offset="100%" stop-color="#0348AF"/></linearGradient><g id="d"><path fill="url(#a)" d="M58.4 142.8q4.1-.1 7.7 1.1 8.1 2.5 13.1 11.2 7.1 12 8.3 12.05-.2-9.75-.2-18.1 0-13.75.25-23.4-1 .55-4.1.8-6.6.5-17.75-1.5-14.95-2.6-28.25 5.05-11.7 6.7-21.65 24.15-10 17.45-10.25 49.05-.2 31.45 11.4 51.75 11.6 20.4 32.2 23.9 13.2 2.3 22.3 1.45 12.75-1 19.5-7.5-.5-7.6-.75-14.75l-.4-10.25q-9.35 12.95-27.2 11.85-17.8-1.15-27.25-18.05-9.4-16.9-9.4-40.85 0-23.9 9.4-40.85 9.45-16.85 23.05-17.1z"/><path fill="#1069FE" d="M278.65 110.3l.15-3.35q-.05-.3-.05-.4l-.1 3.75z"/><path fill="url(#b)" d="M183.75 136h-.65q-36-.05-62.2-6.9-.2-.05-.3-.05h-.1q-1.95-.65-4-1.15-1-.3-1.95-.65-25-7.55-25.75-18.3-.9 5.65-1.25 16.7-.25 9.65-.25 23.4 0 8.35.2 18.1.45 32.15 2.3 80.65l.4 10.25q.25 7.15.75 14.75.75 21.55 1.95 45.7 1.05 11.7 25.95 20 25.95 8.75 62.8 8.75 36.8 0 62.8-8.75 25-8.3 26.05-20 11.85-210.95 8.15-208.2-2.3 9.8-25.65 16.95l-1.75.6q-.05.05-.2.05-.25.05-.75.2l-3.7 1.05h-.05q-.15 0-.2.1-20 5.15-45.5 6.35-.2 0-.45.05-8.05.35-16.65.35z"/><path fill="#4259FF" d="M251.05 88.5q-2.9-.8-5.85-1.6-3.25-.8-6.65-1.45-3.35-.75-6.9-1.4h-.2q-16.15-2.8-35.25-3.45-6.05-.25-12.45-.25h-.65q-35.8.1-61.95 6.8-.05 0-.2.1-2.2.7-4.45 1.25-.8.2-1.6.5-25.8 7.9-26.2 18.9l.1 1.05q.75 10.75 25.75 18.3.95.35 1.95.65 2.05.5 4 1.15h.1q.1 0 .3.05 26.2 6.85 62.2 6.9h.65q8.6 0 16.65-.35.25-.05.45-.05 25.5-1.2 45.5-6.35.05-.1.2-.1h.05l3.7-1.05q.5-.15.75-.2.15 0 .2-.05l1.75-.6q23.35-7.15 25.65-16.95l.1-3.75q-2.05-10.6-27.7-18.05m-7.1 3.15q2.9.8 5.45 1.55 18.05 5.65 19.7 12.95 1.45 8.5-18.15 14.95-2.95.8-6.15 1.65-19.5 5.2-44.45 6.55-8.3.45-17.25.45-35.75 0-60.9-6.55-3.1-.85-5.75-1.7-18.75-5.7-19.4-13.45l-.05-.85q.4-8 19.4-13.85 2.65-.9 5.8-1.7 25.15-6.5 60.9-6.5 6.65 0 13.1.3 18.85.65 34.45 3.35 3.55.6 6.95 1.45 3.15.6 6.35 1.4z"/><path fill="url(#c)" d="M249.4 93.2q-2.55-.75-5.45-1.55-3.2-.8-6.35-1.4-3.4-.85-6.95-1.45-15.6-2.7-34.45-3.35-6.45-.3-13.1-.3-35.75 0-60.9 6.5-3.15.8-5.8 1.7-19 5.85-19.4 13.85l.05.85q.65 7.75 19.4 13.45 2.65.85 5.75 1.7 25.15 6.55 60.9 6.55 8.95 0 17.25-.45 24.95-1.35 44.45-6.55 3.2-.85 6.15-1.65 19.6-6.45 18.15-14.95-1.65-7.3-19.7-12.95z"/></g><path id="e" stroke="#000" stroke-width="2" stroke-linejoin="round" stroke-linecap="round" fill="none" d="M278.75 106.55q-2.05-10.6-27.7-18.05-2.9-.8-5.85-1.6-3.25-.8-6.65-1.45-3.35-.75-6.9-1.4h-.2q-16.15-2.8-35.25-3.45-6.05-.25-12.45-.25m-.65 0q-35.8.1-61.95 6.8-.05 0-.2.1-2.2.7-4.45 1.25-.8.2-1.6.5-25.8 7.9-26.2 18.9l.1 1.05q.75 10.75 25.75 18.3.95.35 1.95.65 2.05.5 4 1.15h.1q.1 0 .3.05 26.2 6.85 62.2 6.9h.65q8.6 0 16.65-.35.25-.05.45-.05 25.5-1.2 45.5-6.35.05-.1.2-.1h.05l3.7-1.05q.5-.15.75-.2.15 0 .2-.05l1.75-.6q23.35-7.15 25.65-16.95m.1-3.75q0 .1.05.4.05.7.05 1.25 0 1-.2 2.1 3.7-2.75-8.15 208.2-1.05 11.7-26.05 20-26 8.75-62.8 8.75-36.85 0-62.8-8.75-24.9-8.3-25.95-20-1.2-24.15-1.95-45.7-6.75 6.5-19.5 7.5-9.1.85-22.3-1.45-20.6-3.5-32.2-23.9-11.6-20.3-11.4-51.75.25-31.6 10.25-49.05Q25.75 136.7 37.45 130q13.3-7.65 28.25-5.05 11.15 2 17.75 1.5 3.1-.25 4.1-.8.35-11.05 1.25-16.7-.1-.35-.1-.75v-.3m8.3-.7q.4-8 19.4-13.85 2.65-.9 5.8-1.7 25.15-6.5 60.9-6.5 6.65 0 13.1.3 18.85.65 34.45 3.35 3.55.6 6.95 1.45 3.15.6 6.35 1.4 2.9.8 5.45 1.55 18.05 5.65 19.7 12.95 1.45 8.5-18.15 14.95-2.95.8-6.15 1.65-19.5 5.2-44.45 6.55-8.3.45-17.25.45-35.75 0-60.9-6.55-3.1-.85-5.75-1.7-18.75-5.7-19.4-13.45m181.6 2.25l.15-3.35M89.8 247.8q-9.35 12.95-27.2 11.85-17.8-1.15-27.25-18.05-9.4-16.9-9.4-40.85 0-23.9 9.4-40.85 9.45-16.85 23.05-17.1 4.1-.1 7.7 1.1 8.1 2.5 13.1 11.2 7.1 12 8.3 12.05-.2-9.75-.2-18.1 0-13.75.25-23.4M89.8 247.8l.4 10.25q.25 7.15.75 14.75M87.5 167.15q.45 32.15 2.3 80.65"/></defs><g><use xlink:href="#d"/><use xlink:href="#e"/></g></svg>