<?xml version="1.0" encoding="utf-8"?>
<!-- Generator: Adobe Illustrator 16.0.0, SVG Export Plug-In . SVG Version: 6.00 Build 0)  -->
<!DOCTYPE svg PUBLIC "-//W3C//DTD SVG 1.1//EN" "http://www.w3.org/Graphics/SVG/1.1/DTD/svg11.dtd">
<svg version="1.1" id="Layer_1" xmlns="http://www.w3.org/2000/svg" xmlns:xlink="http://www.w3.org/1999/xlink" x="0px" y="0px"
	 width="900px" height="450px" viewBox="0 0 900 450" enable-background="new 0 0 900 450" xml:space="preserve">
<g transform="matrix( 1, 0, 0, 1, 0,0) ">
	<g>
		<g id="Layer0_0_FILL">
			<path fill="#A8A8A8" d="M265.497,33.625c-1.413,0-2.824,0-4.236,0c-26.159,0.249-49.827,2.866-71.004,7.849
				c-10.38,2.325-20.096,5.231-29.148,8.72c-2.159,0.83-4.194,1.661-6.104,2.491h0.125c-10.963,4.649-19.516,9.675-25.662,15.072
				c-9.549,8.138-14.243,17.066-14.076,26.782c0,1.827,0.124,3.529,0.374,5.107v0.125c0.332,1.495,0.748,2.989,1.246,4.484
				c1.081,3.654,3.073,7.225,5.979,10.714c1.578,1.827,3.405,3.653,5.481,5.48c0.25,0.332,0.582,0.623,0.997,0.872
				c0.664,0.665,1.412,1.081,2.242,1.246c0.416,0.914,1.081,1.66,1.994,2.242c0.747,0.499,1.66,1.122,2.741,1.869
				c1.079,0.664,2.201,1.412,3.362,2.242c1.08,0.499,2.118,1.039,3.114,1.62c1.33,0.747,2.782,1.535,4.36,2.366
				c3.157,1.578,6.603,3.114,10.34,4.609c0,0.083,0.083,0.166,0.248,0.25c0.666,0.25,1.371,0.498,2.118,0.747
				c0.332,0.084,0.623,0.208,0.872,0.374c0.167,0.084,0.332,0.167,0.499,0.249c1.246,0.333,2.491,0.749,3.737,1.246
				c0.083,0,0.166,0,0.248,0c0.582,0.249,1.246,0.499,1.994,0.748c3.155,1.079,6.394,2.158,9.716,3.238
				c3.405,0.914,6.893,1.869,10.464,2.865c0.166,0,0.374,0.042,0.623,0.125c0.166,0,0.333,0,0.498,0
				c0.416,0.083,0.831,0.207,1.246,0.374c3.903,0.831,7.847,1.661,11.834,2.492h0.125c0.166,0,0.332,0.041,0.498,0.124
				c6.977,1.246,14.325,2.283,22.049,3.114h0.124c0.167,0,0.291,0.041,0.375,0.125c3.405,0.248,6.934,0.498,10.588,0.747
				c7.474,0.664,15.239,1.038,23.293,1.122h0.125c2.159,0,4.36,0,6.602,0c1.495,0,2.947,0,4.36,0
				c5.065-0.084,10.089-0.25,15.072-0.499c0.167,0,0.332,0,0.499,0c5.149-0.25,10.215-0.541,15.198-0.873
				c0.249-0.083,0.54-0.124,0.872-0.124h0.124c4.484-0.499,8.887-1.038,13.204-1.619c0.416,0,0.79,0,1.122,0h0.124
				c6.313-0.998,12.457-2.077,18.438-3.239c0.58-0.166,1.203-0.333,1.868-0.498c0.083,0,0.166,0,0.248,0
				c2.824-0.748,5.689-1.454,8.596-2.118c0.499-0.084,1.079-0.208,1.745-0.374c0.58-0.167,1.079-0.416,1.494-0.748
				c0.582,0.084,1.246,0.042,1.994-0.124c3.487-0.996,6.975-2.035,10.463-3.114c1.33-0.499,2.699-0.996,4.112-1.495
				c1.079-0.332,2.117-0.706,3.114-1.122c0.332-0.083,0.664-0.207,0.996-0.374c0.332-0.249,0.623-0.498,0.872-0.747
				c0.665,0,1.329-0.125,1.993-0.374c5.315-2.243,10.215-4.485,14.699-6.727c1.246-0.665,2.491-1.37,3.737-2.118
				c5.065-3.073,9.384-6.229,12.956-9.467c5.065-4.65,8.512-9.55,10.339-14.699c0.167-0.416,0.249-0.789,0.249-1.122
				c0.914-3.073,1.37-6.187,1.37-9.342c0.332-9.633-4.152-18.436-13.453-26.409c-3.987-3.488-8.887-6.768-14.699-9.84l-0.25-0.125
				c-0.167-0.166-0.332-0.291-0.499-0.374c-4.982-2.741-10.671-5.273-17.064-7.598c-3.654-1.33-7.433-2.617-11.336-3.862
				C331.808,37.861,300.957,33.625,265.497,33.625 M261.386,44.712c1.329,0,2.698,0,4.111,0c9.134,0,17.979,0.291,26.533,0.872
				c12.042,0.831,23.461,2.242,34.256,4.235c10.048,1.827,19.558,4.194,28.527,7.101c0.166,0,0.374,0.084,0.623,0.249
				c3.488,0.997,6.852,2.118,10.09,3.364c5.813,2.242,11.045,4.568,15.696,6.975c0.083,0.084,0.165,0.125,0.248,0.125
				c0.167,0.166,0.332,0.29,0.499,0.374c0.083,0.083,0.208,0.166,0.374,0.25c14.284,7.722,21.593,16.483,21.925,26.283
				c0,0.747-0.042,1.454-0.125,2.118c-0.083,0.997-0.207,1.951-0.374,2.865c-0.415,0.499-0.664,1.205-0.747,2.118
				c-1.495,3.57-4.028,7.017-7.6,10.339c-3.654,3.322-8.304,6.478-13.952,9.467c-1.411,0.748-2.906,1.495-4.484,2.243
				c-1.91,0.912-3.945,1.827-6.104,2.739c-0.996,0.416-1.993,0.831-2.989,1.246c-0.664,0.25-1.246,0.623-1.745,1.122
				c-0.664,0-1.287,0.125-1.869,0.374c-5.564,1.994-11.169,3.778-16.816,5.356c-0.498,0.167-0.955,0.375-1.37,0.623h-0.125
				c-0.58-0.083-1.162-0.041-1.743,0.125c-3.156,0.831-6.311,1.619-9.468,2.366c-0.248,0.084-0.498,0.167-0.747,0.249l0.124-0.124
				c-5.979,1.246-12.125,2.366-18.436,3.364c-0.498,0.083-0.914,0.166-1.246,0.248c-4.65,0.499-9.342,1.039-14.076,1.621
				l0.124-0.125c-5.065,0.415-10.131,0.748-15.196,0.996c-0.167,0-0.332,0-0.499,0c-6.396,0.333-12.831,0.499-19.308,0.499
				c-2.159,0-4.36,0-6.602,0h-0.125c-7.723-0.083-15.196-0.415-22.422-0.997c-3.737-0.332-7.39-0.664-10.962-0.996l0.25,0.124
				c-0.332-0.083-0.582-0.124-0.747-0.124c-7.391-0.831-14.409-1.827-21.052-2.99h0.124c-0.166-0.083-0.374-0.124-0.623-0.124
				c-4.152-0.914-8.263-1.827-12.332-2.741c-0.167-0.084-0.333-0.125-0.499-0.125c-0.083,0-0.166,0-0.25,0c-0.248,0-0.415,0-0.498,0
				c-7.142-1.91-14.034-3.985-20.679-6.228l-0.124-0.124c-1.246-0.499-2.45-0.955-3.613-1.37c-1.328-0.582-2.615-1.039-3.861-1.371
				h0.249c-0.748-0.333-1.495-0.665-2.242-0.997c-0.998-0.332-1.911-0.664-2.741-0.996c-1.578-0.831-3.073-1.578-4.485-2.242
				c-3.653-1.827-6.851-3.696-9.591-5.605l-0.125-0.125c-1.079-0.664-2.034-1.246-2.865-1.743c-0.582-0.333-1.122-0.582-1.619-0.748
				c-0.167-0.332-0.291-0.539-0.374-0.623c-0.332-0.497-0.666-0.914-0.998-1.246c-0.332-0.249-0.58-0.456-0.747-0.623
				c-4.236-3.737-7.018-7.598-8.346-11.584l-0.124-0.125c-0.416-0.997-0.706-1.952-0.872-2.866l0.124,0.125
				c-0.166-1.08-0.248-2.2-0.248-3.363c0.083-5.481,2.407-10.588,6.975-15.322c0.914-1.08,1.993-2.077,3.238-2.99
				c5.149-4.484,12.083-8.636,20.803-12.457c0.581-0.332,1.246-0.623,1.994-0.872c1.743-0.83,3.653-1.619,5.729-2.366h-0.124
				c8.221-3.156,16.941-5.813,26.159-7.973c0.415-0.166,0.914-0.291,1.494-0.374c10.963-2.574,22.63-4.484,35.004-5.73
				c10.629-1.08,21.716-1.662,33.26-1.744c0.083,0,0.165,0,0.248,0H261.386 M709.333,100.145c1.08-5.729-0.044-10.089-3.365-13.08
				h-6.353H490.218h-21.924l-66.396-18.935c9.301,7.973,13.785,16.775,13.453,26.409c0,3.155-0.457,6.27-1.37,9.342
				c0,0.333-0.083,0.706-0.249,1.122c-1.827,5.148-5.273,10.048-10.339,14.699l3.611-1.121l61.289-18.436h21.924h214.006H709.333z"
				/>
			<path d="M784.321,104.255c3.406-12.954,0.21-19.889-9.591-20.803h-75.115c2.822,0.998,4.941,2.202,6.353,3.613
				c3.321,2.99,4.445,7.35,3.365,13.08c-0.166,0.747-0.667,2.283-1.497,4.609L784.321,104.255z"/>
		</g>
	</g>
	<g>
		
			<path id="Layer0_0_1_STROKES" fill="none" stroke="#333333" stroke-width="1.5" stroke-linecap="round" stroke-linejoin="round" d="
			M705.968,87.065h-6.353 M699.615,83.453h75.115c9.801,0.914,12.997,7.849,9.591,20.803l-76.485,0.499
			c-2.323-0.332-3.529-1.869-3.612-4.609H490.218h-21.924l-61.289,18.436 M705.968,87.065c3.321,2.99,4.445,7.35,3.365,13.08h-5.109
			 M709.333,100.145c-0.166,0.747-0.667,2.283-1.497,4.609 M401.898,68.131l66.396,18.935h21.924h209.397 M403.394,119.702
			l3.611-1.121"/>
	</g>
	<g>
		
			<path id="Layer0_0_2_STROKES" fill="none" stroke="#254A00" stroke-width="1.5" stroke-linecap="round" stroke-linejoin="round" d="
			M699.615,87.065v-3.613c2.822,0.998,4.941,2.202,6.353,3.613 M407.005,118.581c-0.914,4.069-1.826,8.055-2.739,11.959l-0.25,0.747
			c-0.167,1.163-0.374,2.283-0.623,3.363c-1.994,9.052-3.82,17.896-5.482,26.533c-1.827,8.969-3.446,17.813-4.857,26.533
			c-0.333,2.492-0.707,4.941-1.122,7.35c-0.914,5.729-1.744,11.502-2.491,17.314c-0.747,5.482-1.412,10.922-1.993,16.318
			c-0.332,1.912-0.54,3.819-0.623,5.731c-0.499,4.817-0.914,9.591-1.246,14.326c-0.333,2.573-0.541,5.189-0.623,7.846
			c-0.25,3.238-0.458,6.479-0.623,9.718c0.415,0.165,0.871,0.372,1.37,0.622 M227.753,46.457
			c-0.333,5.148-0.623,10.298-0.873,15.446c10.63-1.162,21.841-1.827,33.633-1.993c0.167-5.066,0.332-10.132,0.499-15.197
			 M191.254,52.56c-0.167,4.318-0.332,9.509-0.499,15.571c11.294-2.823,23.336-4.899,36.125-6.229
			c-0.332,7.973-0.706,15.862-1.122,23.668c10.714-1.246,22.007-1.993,33.883-2.242c0.25-7.806,0.54-15.612,0.872-23.418
			c2.242-0.084,4.568-0.125,6.976-0.125c7.973,0,15.696,0.208,23.17,0.623c0.333-4.898,0.789-9.84,1.37-14.823 M190.756,68.131
			c-8.969,2.077-17.481,4.692-25.537,7.848c-2.574,0.998-5.065,2.035-7.474,3.114c0.167,6.81,0.415,14.658,0.747,23.543
			c2.491-1.08,5.067-2.159,7.724-3.238c7.557-2.825,15.529-5.273,23.917-7.35C190.3,82.83,190.506,74.858,190.756,68.131z
			 M157.496,63.771c0.083,4.401,0.167,9.509,0.249,15.322c-9.965,4.153-17.73,8.804-23.294,13.952
			c0.25,4.733,0.582,9.343,0.997,13.828c0.167,1.827,0.332,3.653,0.499,5.48 M156.749,125.308c0.83-0.415,1.702-0.749,2.615-0.997
			c-0.332-5.813-0.581-11.627-0.747-17.439c-0.083-1.412-0.125-2.825-0.125-4.236c-7.142,3.238-14.076,7.101-20.802,11.584
			 M190.133,92.048c-0.083,4.651-0.167,9.592-0.249,14.824c-0.083,2.242-0.125,4.443-0.125,6.602
			c9.052-2.242,20.845-3.862,35.377-4.859c0.167-7.557,0.375-15.239,0.623-23.045C213.219,87.065,201.344,89.225,190.133,92.048z
			 M189.759,136.394c-0.083-7.722-0.083-15.363,0-22.919c-2.242,0.582-4.318,1.204-6.228,1.869
			c-7.392,2.574-15.447,5.564-24.167,8.969c0,0.665,0.042,1.329,0.125,1.993 M128.472,120.449c-1.246,0.914-2.491,1.827-3.737,2.741
			 M127.476,100.644c1.827-2.658,4.152-5.19,6.975-7.599c-0.415-4.568-0.747-9.176-0.996-13.827 M142.921,130.54
			c-0.914,0.415-1.869,0.83-2.865,1.246c0.416,6.561,0.872,12.996,1.371,19.308c0.914,0.83,1.993,1.743,3.238,2.739
			c5.149-1.91,10.506-3.695,16.07-5.356c-0.25-3.322-0.499-6.643-0.748-9.965 M122.99,114.969
			c0.332,5.231,0.666,10.421,0.998,15.571c0.747,1.827,1.951,3.944,3.612,6.353c4.153-1.745,8.305-3.446,12.457-5.107
			c-0.083-0.998-0.166-1.952-0.25-2.866 M123.988,130.54c0.166,2.491,0.374,4.983,0.623,7.474c0.996-0.416,1.993-0.79,2.989-1.122
			c2.741,4.152,7.35,8.885,13.828,14.201c0.083,1.246,0.166,2.574,0.249,3.985c0.997-0.498,1.994-0.913,2.99-1.246
			c2.242,1.662,4.692,3.489,7.35,5.482c2.74,1.91,5.979,3.695,9.716,5.356c-0.416-5.315-0.748-10.712-0.996-16.194
			c2.159-0.664,4.401-1.287,6.726-1.869c-0.083-1.827-0.124-3.653-0.124-5.48 M141.676,155.079
			c0.249,4.401,0.581,8.845,0.997,13.329c0.498,5.979,1.038,11.959,1.619,17.938c5.232-3.156,11.418-6.146,18.56-8.969
			c-0.415-4.236-0.788-8.47-1.121-12.706c2.16,0.996,4.525,1.91,7.101,2.741c-0.582-6.727-1.039-13.661-1.371-20.803
			c3.155-0.831,6.354-1.578,9.592-2.242 M128.472,160.437c4.236-1.994,8.637-3.779,13.204-5.357 M167.587,375.191
			c0.996-0.416,2.242-0.914,3.737-1.496c-4.402-10.131-8.513-21.009-12.333-32.636c-0.747-2.075-1.454-4.153-2.118-6.229
			c-2.741-8.637-5.273-17.646-7.598-27.032c-1.745-7.224-3.488-14.656-5.232-22.296c-0.499-2.657-1.038-5.316-1.619-7.973
			c-0.25-1.163-0.499-2.285-0.748-3.365c-1.578-8.053-3.072-16.359-4.484-24.913c-0.332-1.993-0.623-3.944-0.872-5.854
			c-1.163-7.475-2.283-15.158-3.363-23.045c-0.498-3.156-0.914-6.353-1.246-9.592c-0.58-4.401-1.12-8.844-1.619-13.329
			c-0.747-6.643-1.452-13.328-2.118-20.055c-1.246-12.622-2.366-25.744-3.362-39.363 M162.852,177.377
			c0.748-0.332,1.537-0.664,2.367-0.996c1.329-0.499,2.7-0.955,4.111-1.371c-0.166-2.242-0.333-4.442-0.498-6.602
			c0-0.332,0-0.664,0-0.996c3.737,1.329,7.847,2.574,12.332,3.737c3.073-0.913,6.228-1.786,9.468-2.615
			c-0.332-6.893-0.582-13.828-0.748-20.803 M181.164,171.148c3.073,0.747,6.311,1.495,9.716,2.242
			c-0.083-1.661-0.166-3.28-0.248-4.857c3.405-0.748,7.017-1.495,10.836-2.243c0.167-5.48,0.458-10.795,0.872-15.944 M169.33,175.01
			c3.819-1.411,7.765-2.698,11.834-3.861 M259.144,107.619c3.985,0,8.138,0.042,12.457,0.124c5.315,0,10.38,0.084,15.196,0.25
			c0.499-8.056,1.081-16.153,1.745-24.291c-6.478-0.249-13.162-0.374-20.055-0.374c-2.99,0-5.938,0-8.845,0
			C259.392,91.549,259.227,99.646,259.144,107.619c-0.167,8.969-0.291,17.854-0.375,26.658c9.052-0.333,17.979-0.416,26.782-0.249
			c0.25-8.637,0.666-17.315,1.246-26.035c11.793,0.249,22.34,0.831,31.641,1.744c0.664-7.641,1.495-15.239,2.491-22.795
			c-10.297-1.579-21.094-2.658-32.388-3.24c0.582-7.639,1.287-15.404,2.118-23.294c11.709,0.665,22.879,1.869,33.508,3.613
			c0.666-4.733,1.371-9.467,2.118-14.201 M224.888,142.374c-0.084-1.994-0.125-3.986-0.125-5.98
			c-7.308,0.749-14.45,1.703-21.426,2.866 M225.511,178.249c-0.25-5.232-0.416-10.464-0.499-15.696
			c-8.138,0.914-15.985,2.159-23.543,3.737c-0.166,0.748-0.249,1.454-0.249,2.118c-0.083,2.16-0.125,4.401-0.125,6.728
			C208.569,176.297,216.707,177.336,225.511,178.249c2.823,0.166,5.771,0.415,8.844,0.747c0.083-5.979,0.291-11.834,0.623-17.563
			c-3.405,0.415-6.728,0.788-9.966,1.121c-0.083-2.989-0.124-5.979-0.124-8.968 M234.978,161.433
			c0.167-2.326,0.332-4.692,0.499-7.101 M315.697,141.128c0.083-1.827,0.167-3.654,0.249-5.481
			c-10.048-0.914-20.18-1.454-30.395-1.619c-0.083,3.322-0.166,6.602-0.248,9.84 M259.144,107.619
			c-12.706,0-24.042,0.332-34.008,0.996c-0.249,9.384-0.374,18.644-0.374,27.778c9.301-0.912,18.935-1.578,28.9-1.992
			c1.745-0.083,3.446-0.125,5.107-0.125c0,3.404,0,6.768,0,10.09 M258.895,155.454c0,1.661,0,3.28,0,4.857c2.741,0,5.605,0,8.595,0
			c0.665,0,1.371,0,2.118,0c0.083-1.578,0.167-3.197,0.25-4.857 M259.392,189.834c2.409-0.083,4.9-0.124,7.474-0.124
			c0.499,0,0.955,0,1.371,0c0.083-2.908,0.25-5.939,0.498-9.095c-2.076,0-4.193,0-6.353,0c-1.079-0.083-2.159-0.124-3.238-0.124
			C259.227,183.729,259.31,186.844,259.392,189.834c0.167,6.975,0.375,13.868,0.623,20.678c2.575,0,5.19-0.042,7.849-0.124
			c0-6.644,0.124-13.537,0.374-20.678c5.729,0,11.252,0.083,16.567,0.248c0-3.238,0-6.518,0-9.84
			c-5.315,0.25-10.671,0.415-16.07,0.498c0.167-6.643,0.458-13.412,0.872-20.304c5.149,0,10.215,0.084,15.198,0.25
			c0.083-1.827,0.124-3.696,0.124-5.605 M234.354,178.996c7.724,0.664,15.986,1.163,24.79,1.495
			c-0.167-6.727-0.25-13.453-0.25-20.18c-8.222,0.167-16.194,0.54-23.917,1.122 M299.13,178.996
			c0.25-5.729,0.54-11.584,0.872-17.563c-4.9-0.332-9.965-0.623-15.197-0.872c0,6.561,0,13.08,0,19.557
			C289.621,179.868,294.396,179.495,299.13,178.996c4.982-0.415,9.841-0.955,14.575-1.619c0.083-4.817,0.25-9.592,0.498-14.325
			c-4.651-0.582-9.384-1.122-14.2-1.619c0.166-2.409,0.374-4.858,0.623-7.35 M201.095,175.135c-3.57-0.582-6.976-1.163-10.215-1.745
			c0.416,7.641,0.914,15.363,1.495,23.17c2.907-0.582,5.813-1.122,8.72-1.621C200.929,188.131,200.929,181.529,201.095,175.135z
			 M382.341,68.256c-0.996,3.902-1.951,7.847-2.865,11.833c10.962,4.983,19.184,10.504,24.664,16.567 M353.193,70.498
			c-1.081,7.225-2.077,14.657-2.99,22.297c7.142,1.91,13.911,4.112,20.304,6.603c1.578,0.582,3.114,1.205,4.609,1.869
			c1.329-7.226,2.782-14.284,4.36-21.177c-2.99-1.412-6.27-2.782-9.841-4.111C364.32,73.986,358.84,72.159,353.193,70.498
			c-9.136-2.658-18.811-4.817-29.025-6.478c-1.162,7.557-2.242,15.197-3.238,22.921c10.297,1.494,20.055,3.446,29.273,5.854
			c-0.831,6.893-1.619,13.869-2.367,20.929c3.986,0.912,7.391,1.868,10.215,2.865c4.568,1.578,9.093,3.238,13.578,4.982
			c0.997-6.81,2.159-13.578,3.488-20.304c7.973,3.321,14.74,6.893,20.304,10.712 M371.628,121.571
			c1.827,0.665,3.612,1.37,5.356,2.118 M343.85,171.273c0.083-0.997,0.124-1.952,0.124-2.865c-3.82-0.914-7.765-1.743-11.834-2.491
			c-0.332,2.824-0.664,5.605-0.996,8.346C335.545,173.349,339.781,172.353,343.85,171.273c1.661-0.582,3.362-1.079,5.107-1.494
			c-1.578-0.416-3.238-0.872-4.983-1.371c0.332-7.39,0.747-14.699,1.246-21.923 M314.825,152.339
			c-0.166,3.57-0.374,7.141-0.623,10.712c6.229,0.831,12.208,1.786,17.938,2.865c0.747-5.564,1.537-11.169,2.368-16.816
			 M329.026,193.571c0.582-6.311,1.287-12.748,2.118-19.308c-5.647,1.163-11.46,2.201-17.439,3.114
			c-0.167,4.651-0.291,9.384-0.374,14.201C318.729,192.16,323.96,192.824,329.026,193.571c4.9,0.747,9.633,1.619,14.202,2.616
			c0.165-8.553,0.373-16.858,0.623-24.914 M334.756,137.64c-6.229-0.83-12.498-1.494-18.81-1.993
			c0.665-8.72,1.495-17.357,2.492-25.91c11.709,0.997,21.508,2.325,29.397,3.987c-0.665,7.058-1.287,14.2-1.869,21.424
			 M386.577,148.104c-5.979-1.744-11.959-3.238-17.938-4.484c-0.914,6.561-1.619,13.204-2.118,19.931
			c7.226-2.825,13.454-5.939,18.685-9.343C385.705,152.131,386.161,150.096,386.577,148.104c1.163-6.311,2.45-12.622,3.861-18.935
			c4.236,1.661,8.429,3.446,12.582,5.356c0.415-0.997,0.747-2.076,0.996-3.238 M385.206,154.208
			c2.409-1.495,4.609-3.114,6.603-4.859c-1.744-0.415-3.489-0.831-5.232-1.246 M403.394,134.65
			c-0.083-0.084-0.208-0.125-0.374-0.125c-2.077,5.398-5.813,10.34-11.211,14.824c2.076,0.665,4.111,1.287,6.103,1.869
			 M365.027,140.629c-0.084,0.747-0.208,1.495-0.375,2.242c1.246,0.25,2.576,0.499,3.986,0.748c0.167-1.495,0.333-2.99,0.499-4.485
			 M348.957,169.779c3.737-1.163,7.391-2.367,10.961-3.613c1.329-7.724,2.908-15.488,4.733-23.294
			c-1.246-0.332-2.491-0.582-3.737-0.747 M364.278,195.315c-0.249,2.075-0.373,4.234-0.373,6.477
			c4.484,1.495,8.72,3.073,12.706,4.734c0.747-5.98,1.619-12.125,2.615-18.437c-4.152,2.575-9.093,4.941-14.823,7.101
			C364.32,195.19,364.278,195.231,364.278,195.315c0.333-6.977,0.749-13.787,1.246-20.43c-2.242-0.831-4.443-1.578-6.602-2.242
			c-1.661,8.885-3.031,17.522-4.11,25.91C358.05,197.474,361.206,196.395,364.278,195.315z M366.521,163.551
			c-0.415,3.819-0.747,7.598-0.996,11.335c1.328,0.415,2.699,0.914,4.11,1.495c3.821,1.495,7.433,3.03,10.837,4.609
			c1.413-8.637,2.99-17.565,4.733-26.782 M359.918,166.166c1.495-0.582,2.99-1.163,4.485-1.745c0.664-0.166,1.37-0.456,2.117-0.871
			 M348.957,169.779c3.322,0.913,6.643,1.869,9.965,2.865c0.332-2.159,0.664-4.318,0.996-6.478 M397.912,161.183
			c-1.743,7.64-4.566,13.703-8.47,18.187c-1.163,1.413-2.45,2.782-3.861,4.112c2.574,1.328,5.065,2.739,7.474,4.234 M380.472,180.99
			c-0.415,2.324-0.83,4.692-1.246,7.099c2.326-1.494,4.443-3.03,6.354-4.608C383.836,182.65,382.134,181.82,380.472,180.99z
			 M370.88,126.428c0.25-1.578,0.499-3.197,0.748-4.857 M353.193,70.498c0.747-4.568,1.494-9.01,2.242-13.329 M391.933,195.066
			c-1.328,5.813-3.778,10.837-7.35,15.072c1.412,0.664,3.031,1.412,4.858,2.242 M374.992,218.235
			c2.739-1.827,5.148-3.737,7.225-5.729c0.83-0.748,1.619-1.537,2.366-2.367c-2.492-1.162-5.148-2.366-7.972-3.612
			C375.947,210.429,375.407,214.333,374.992,218.235c-0.499,3.572-0.914,7.101-1.246,10.589c4.317,1.742,8.345,3.445,12.082,5.107
			c0.666-1.662,1.204-3.404,1.62-5.233 M354.812,198.554c-0.083,0.083-0.125,0.208-0.125,0.374c3.073,0.914,6.063,1.827,8.969,2.741
			c0.083,0,0.167,0.041,0.25,0.124c-0.333,7.226-0.582,14.616-0.747,22.174c4.484-1.744,8.429-3.654,11.834-5.731 M354.812,198.554
			c-0.332,0-0.582,0.083-0.748,0.249c0.167,0,0.375,0.042,0.623,0.125c-1.162,7.973-2.075,15.779-2.739,23.418
			c3.071,0.664,6.103,1.412,9.093,2.243c0.665-0.167,1.37-0.375,2.118-0.623c0,0.332,0,0.789,0,1.37
			c2.491,0.747,4.94,1.537,7.349,2.367c1.081,0.416,2.159,0.788,3.24,1.121c-0.748,6.56-1.33,12.914-1.745,19.058
			c1.993-1.077,3.778-2.202,5.356-3.362c3.737-2.742,6.56-6.27,8.47-10.588c0.25,0.165,0.582,0.333,0.998,0.498 M342.853,229.695
			c2.907-0.747,5.731-1.455,8.472-2.116c0.166-1.83,0.374-3.572,0.623-5.233c-2.99-0.747-6.022-1.411-9.095-1.993
			C342.77,223.426,342.77,226.54,342.853,229.695c0,7.973,0.084,16.152,0.25,24.539c2.077,0.251,4.153,0.623,6.229,1.122
			c0.416-8.886,1.08-18.146,1.994-27.777c1.91-0.584,3.82-1.122,5.729-1.621c1.329-0.414,2.658-0.872,3.986-1.37
			c0.665,0.248,1.37,0.498,2.118,0.747c-0.167,8.72-0.208,17.48-0.125,26.283c3.405-1.246,6.395-2.491,8.969-3.737
			c-0.332,4.566-0.582,9.095-0.747,13.578c3.737,1.246,7.225,2.533,10.463,3.861c0.914-2.574,1.994-5.481,3.239-8.72
			 M329.026,193.571c-0.415,3.903-0.79,7.724-1.122,11.46c5.232-0.996,10.298-2.076,15.198-3.239c0-1.91,0.042-3.778,0.125-5.605
			c3.737,0.748,7.349,1.62,10.836,2.616c-3.488,1.079-7.142,2.077-10.962,2.989c-0.166,6.063-0.25,12.25-0.25,18.561
			c-5.148-0.997-10.463-1.827-15.944-2.491c-0.415,5.065-0.747,9.965-0.996,14.7c5.979-0.749,11.626-1.703,16.94-2.866
			 M313.331,191.578c-4.817-0.416-9.759-0.748-14.824-0.998c-0.249,6.229-0.456,12.333-0.623,18.312
			c5.314-0.415,10.38-0.955,15.197-1.619C313.082,202.041,313.165,196.809,313.331,191.578z M297.884,208.893
			c0,2.242-0.042,4.444-0.124,6.602c5.23,0.25,10.339,0.541,15.321,0.873c-0.083-2.989-0.083-6.021,0-9.093
			c5.148-0.582,10.089-1.329,14.823-2.242c-0.332,4.235-0.664,8.512-0.996,12.831c-4.484-0.582-9.093-1.081-13.827-1.495
			c0,5.896,0.042,11.835,0.124,17.813c2.16-0.248,4.111-0.499,5.855-0.747c2.325-0.165,4.609-0.457,6.852-0.871
			c-0.333,6.56-0.623,12.87-0.873,18.934c6.395,0.664,12.416,1.576,18.063,2.739c0,0.915,0,1.995,0,3.241
			c2.077-0.584,4.153-1.081,6.229-1.497c0-0.333,0-0.537,0-0.622c0.416,0.085,0.831,0.124,1.246,0.124
			c4.568-1.246,8.72-2.53,12.457-3.861c0,2.408,0,4.775,0,7.102c2.409,0.662,4.733,1.37,6.977,2.117
			c0.415,0.248,0.83,0.457,1.246,0.622c-0.167,0.582-0.249,1.205-0.249,1.869c-0.167,5.313-0.208,10.712-0.125,16.193
			c2.326-1.744,4.36-3.527,6.104-5.357c1.827-2.24,3.405-5.189,4.733-8.844c0.831,0.251,1.703,0.582,2.616,0.998
			c-0.332,6.061-0.54,12.04-0.623,17.938c-0.167,0.913-0.25,1.952-0.25,3.114c0,0.995,0,2.034,0,3.114c-0.083,0-0.083,0.083,0,0.248
			c-0.167,10.131,0,20.056,0.498,29.772c0,0.664,0,1.328,0,1.993c0.582,11.958,1.578,23.667,2.99,35.127c0,0.333,0,0.705,0,1.121
			c0,0.251,0.083,0.54,0.25,0.874c1.246,11.045,2.906,21.799,4.982,32.261c-6.146,2.16-12.416,4.194-18.811,6.104
			c-2.989,0.829-5.979,1.62-8.968,2.367c-7.391,1.91-14.907,3.571-22.547,4.982c-3.82,0.747-7.681,1.455-11.584,2.117
			c-4.236,0.666-8.553,1.289-12.956,1.868c-1.743,0.166-3.529,0.375-5.356,0.623c-4.982,0.499-10.048,0.997-15.197,1.496
			c-1.329,0.165-2.657,0.29-3.985,0.372c-2.491,0.166-4.9,0.334-7.226,0.499c-8.802,0.499-17.605,0.791-26.407,0.873
			c0.248,0.913,0.498,1.825,0.747,2.74 M297.511,235.425c0,4.649,0.041,9.302,0.124,13.953c5.481,0.166,10.838,0.458,16.07,0.871
			c-0.25-5.313-0.416-10.671-0.499-16.069C308.722,234.596,303.49,235.009,297.511,235.425c0-6.477,0.083-13.121,0.25-19.931
			c-3.987-0.083-8.14-0.165-12.457-0.248c0.248,6.976,0.581,13.909,0.997,20.802C290.286,235.8,294.023,235.593,297.511,235.425z
			 M325.04,251.495c-0.083,3.238-0.124,6.353-0.124,9.343c6.229-0.915,12.29-2.034,18.187-3.362
			c0.167,7.639,0.416,15.444,0.748,23.417c1.826,0.25,3.57,0.499,5.231,0.747c-0.083-2.905-0.124-5.854-0.124-8.844
			c0-5.564,0.124-11.17,0.374-16.817c0.249-0.082,0.499-0.206,0.748-0.372c0.166,0,0.332-0.044,0.498-0.126
			c4.318,0.997,8.47,2.077,12.457,3.24c0.167,8.054,0.416,16.276,0.748,24.663c2.657-1.246,5.024-2.532,7.1-3.861
			c-0.083,2.243-0.083,4.569,0,6.976c3.904,0.997,7.6,2.119,11.087,3.365c0.25,0.082,0.54,0.206,0.873,0.372
			c0.165-0.995,0.373-1.951,0.623-2.864 M314.078,262.458c-0.665,0-1.329,0.039-1.993,0.124c-3.821,0.499-8.554,0.956-14.201,1.37
			c0,2.243,0.083,4.483,0.249,6.727c0.083,2.323,0.207,4.693,0.374,7.1c5.564,0.085,11.044,0.251,16.443,0.499
			C314.618,273.046,314.327,267.771,314.078,262.458c-0.167-4.07-0.291-8.141-0.374-12.209c3.902,0.331,7.681,0.747,11.335,1.246
			 M297.635,249.378c-3.488-0.165-7.058-0.292-10.712-0.374c0.332,5.147,0.747,10.296,1.246,15.446
			c3.488-0.168,6.726-0.333,9.716-0.498C297.801,259.135,297.717,254.278,297.635,249.378z M298.507,277.778
			c0.332,5.729,0.79,11.71,1.37,17.938c5.564-0.331,10.256-0.747,14.077-1.246c0.747,0,1.411-0.041,1.992-0.124
			c-0.332-5.316-0.664-10.673-0.996-16.069c3.488,0.165,6.934,0.413,10.339,0.746c-0.25-5.812-0.374-11.875-0.374-18.186
			c-3.572,0.581-7.183,1.121-10.837,1.62 M325.289,279.023c0,0.417,0,0.913,0,1.497c0.167,4.067,0.374,8.304,0.623,12.705
			c6.146-0.998,12.166-2.2,18.062-3.613c-0.083-2.907-0.124-5.813-0.124-8.72C337.87,280.063,331.684,279.44,325.289,279.023z
			 M325.912,293.226c-3.322,0.413-6.644,0.788-9.966,1.121c0.582,7.224,1.205,14.491,1.869,21.8
			c3.405-0.251,6.727-0.416,9.965-0.499C326.95,307.843,326.327,300.368,325.912,293.226z M363.781,283.384
			c-0.581,0.168-1.204,0.457-1.868,0.873c0.664,0.083,1.287,0.207,1.868,0.373C363.781,284.131,363.781,283.717,363.781,283.384z
			 M363.781,284.63c2.408,0.498,4.775,1.121,7.1,1.868c0,6.81,0.25,13.787,0.748,20.929c2.492-1.827,4.525-3.696,6.103-5.606
			c1.994-2.491,3.696-6.352,5.108-11.585c0.165,0,0.373,0.085,0.623,0.25 M349.331,288.366c1.08-0.333,2.159-0.664,3.239-0.995
			c3.405-0.997,6.519-2.033,9.343-3.114c-4.069-0.997-8.346-1.868-12.832-2.617C349.165,283.8,349.248,286.043,349.331,288.366
			c0.416,8.638,1.08,17.69,1.994,27.157c0.312,0,0.623,0,0.934,0h0.062c0.415-0.085,0.914-0.207,1.495-0.375
			c4.152-1.245,7.93-2.656,11.335-4.235c-0.582-8.968-1.038-17.729-1.37-26.283 M349.331,288.366
			c-1.661,0.334-3.446,0.747-5.356,1.246c0.332,8.472,0.747,17.067,1.246,25.787c2.159,0,4.193,0.039,6.104,0.124
			c-0.084,0-0.084,0.083,0,0.248c0.312-0.156,0.623-0.238,0.934-0.248 M383.96,322.499c-1.661,2.656-4.484,5.897-8.47,9.717
			c-0.582,0.414-1.121,0.912-1.619,1.494c0.996,9.883,2.283,19.972,3.861,30.271c1.994,0,3.654-0.209,4.983-0.623
			c1.33-0.914,2.45-1.829,3.364-2.741c0.499-0.83,0.789-1.827,0.872-2.99 M352.32,315.523c5.398,0.165,9.799,0.623,13.204,1.369
			c-0.166-2.077-0.291-4.067-0.374-5.979c2.409-1.08,4.568-2.241,6.478-3.486c0.166,3.486,0.415,7.099,0.747,10.836
			c6.229,1.163,10.091,1.91,11.584,2.243 M367.019,337.695c2.574-1.246,4.859-2.574,6.852-3.985
			c-0.664-5.313-1.163-10.465-1.495-15.447c-2.075-0.499-4.36-0.956-6.851-1.37C365.94,323.785,366.438,330.72,367.019,337.695
			c0.747,8.306,1.578,16.65,2.492,25.04c0.25,0.082,0.582,0.165,0.996,0.248c2.741,0.581,5.149,0.915,7.225,0.997
			c0.167,0.579,0.25,1.246,0.25,1.993c1.827-0.913,3.405-1.786,4.733-2.616 M367.019,337.695c-3.487,1.744-7.682,3.279-12.581,4.61
			c0.914,6.229,1.869,12.663,2.865,19.308c4.983,0.248,9.052,0.623,12.208,1.122c0.167,2.325,0.374,4.649,0.623,6.975
			c2.99-1.33,5.606-2.576,7.848-3.736c1.413,8.634,3.032,17.439,4.859,26.407 M357.303,361.613c-2.823-0.168-5.938-0.25-9.343-0.25
			c0.498,5.232,0.914,10.464,1.246,15.697c3.239-0.915,6.229-1.786,8.969-2.618c0.498-0.248,0.914-0.457,1.246-0.623
			C358.59,369.669,357.885,365.599,357.303,361.613z M387.2,359.621c-0.333,0.248-0.706,0.579-1.122,0.995 M346.839,344.05
			c2.741-0.499,5.273-1.08,7.6-1.744c-1.246-9.136-2.285-17.979-3.114-26.534c-1.994,0.581-3.986,1.121-5.98,1.62
			C345.76,326.194,346.258,335.079,346.839,344.05c0.416,5.729,0.79,11.501,1.122,17.313c-4.153-0.083-8.845-0.039-14.076,0.126
			c0.996,5.978,2.034,12.165,3.114,18.559c4.401-0.995,8.47-1.992,12.207-2.987c0.665,8.053,1.329,16.232,1.993,24.539
			 M345.344,317.392c-5.729,1.494-11.376,2.864-16.94,4.109c0.914,8.141,2.035,16.651,3.363,25.536
			c4.733-0.912,9.716-1.868,14.948-2.863l0.124-0.124 M317.815,316.146c0.332,2.323,0.623,4.731,0.872,7.223
			c3.238-0.578,6.478-1.201,9.716-1.868c-0.25-1.992-0.456-3.943-0.623-5.854c6.478-0.165,12.29-0.248,17.439-0.248
			c0,0.747,0.042,1.411,0.124,1.992 M317.815,316.146c-4.9,0.248-10.089,0.537-15.571,0.871c0.332,2.741,0.664,5.605,0.996,8.596
			c3.654-0.414,7.184-0.915,10.588-1.494c1.495-0.251,3.114-0.499,4.858-0.75c0.83,8.39,1.744,16.817,2.741,25.289
			c3.321-0.499,6.768-1.037,10.339-1.621c0.665,4.652,1.37,9.47,2.118,14.452c-3.322,0-6.894,0.039-10.714,0.124
			c0.914,6.728,1.869,13.496,2.865,20.303c3.903-0.661,7.558-1.284,10.963-1.868c1.411,8.058,3.03,16.486,4.857,25.288
			 M281.814,353.266c0.499,3.323,1.122,6.813,1.869,10.465c4.318-0.334,8.762-0.623,13.329-0.871
			c1.495-0.086,2.99-0.168,4.485-0.251c-0.831-3.654-1.536-7.348-2.118-11.085C294.23,351.938,288.375,352.519,281.814,353.266
			c-1.661-9.133-3.197-17.688-4.608-25.66c-2.409,0.168-4.9,0.289-7.474,0.375c1.162,8.885,2.449,17.563,3.861,26.035
			C276.417,353.765,279.158,353.517,281.814,353.266z M321.428,348.658c-4.485,0.664-8.886,1.287-13.205,1.868
			c-0.415,0-0.873,0-1.37,0c0.664,3.902,1.328,7.849,1.992,11.834c5.065-0.248,9.841-0.499,14.325-0.747
			C322.59,357.378,322.008,353.059,321.428,348.658z M308.846,362.36c-2.491,0.083-4.941,0.165-7.349,0.248
			c1.411,7.309,2.906,14.659,4.484,22.05c2.242-0.333,4.401-0.623,6.478-0.873C311.13,376.394,309.926,369.253,308.846,362.36z
			 M303.24,325.613c-2.657,0.248-5.315,0.498-7.972,0.746c1.246,8.472,2.616,16.858,4.111,25.164
			c2.657-0.416,5.148-0.749,7.474-0.997C305.525,341.89,304.32,333.586,303.24,325.613z M330.272,407.453
			c-1.578-8.886-2.99-17.396-4.236-25.537c-4.235,0.667-8.761,1.29-13.577,1.869c1.578,8.058,3.197,16.568,4.857,25.536
			 M305.981,384.658c1.91,8.552,3.904,16.982,5.979,25.286 M364.404,400.354c-1.911-9.134-3.572-17.979-4.983-26.534
			c3.903-1.411,7.474-2.78,10.712-4.109c0.997,9.302,2.077,18.727,3.238,28.276 M299.877,295.717
			c-2.657,0.165-5.563,0.374-8.72,0.623c0.913,7.06,1.827,14.115,2.74,21.176c2.824-0.165,5.606-0.331,8.347-0.498
			C301.331,309.628,300.542,302.526,299.877,295.717z M267.864,210.388c5.979-0.083,11.75-0.25,17.314-0.499
			c-0.249-6.643-0.373-13.286-0.373-19.931c4.65,0.084,9.218,0.291,13.702,0.623c0.25-3.902,0.456-7.763,0.623-11.584
			 M285.303,215.246c-3.322,0-6.727,0-10.215,0c-2.491,0-4.9,0.042-7.225,0.124c-0.167,7.557-0.167,14.783,0,21.676
			c6.643-0.334,12.789-0.665,18.436-0.998c0.165,4.318,0.373,8.638,0.623,12.956c-4.236-0.083-8.554-0.124-12.956-0.124
			c-1.993,0-3.986,0.041-5.979,0.124c0.167,5.396,0.456,10.505,0.872,15.322c0,0.414,0.042,0.788,0.125,1.119
			c7.059-0.248,13.453-0.579,19.184-0.995c0.332,4.484,0.706,8.927,1.121,13.328c3.073-0.083,6.146-0.083,9.218,0 M297.884,208.893
			c-4.069,0.332-8.305,0.664-12.707,0.996c0,1.662,0.042,3.448,0.125,5.357 M260.015,210.512c0.084,1.662,0.167,3.322,0.25,4.982
			c2.408-0.083,4.941-0.124,7.599-0.124c0-1.66,0-3.322,0-4.982 M259.392,189.834c-8.802,0.165-17.19,0.582-25.162,1.246
			c0,6.229,0.166,12.581,0.498,19.059c4.069,0.167,8.305,0.291,12.706,0.374c4.236,0,8.429,0,12.581,0 M261.261,237.294
			c0.25,3.904,0.499,7.849,0.748,11.834c1.91-0.083,3.902-0.124,5.979-0.124c-0.083-3.902-0.124-7.888-0.124-11.958
			c-0.167,0-0.291,0-0.375,0C265.414,237.128,263.337,237.211,261.261,237.294c-0.415-7.224-0.747-14.491-0.996-21.8
			c-8.885,0.333-17.314,0.914-25.287,1.745c0.332,6.394,0.747,12.956,1.246,19.683C244.86,237.335,253.207,237.462,261.261,237.294z
			 M234.23,191.08c-2.823,0.166-5.605,0.374-8.346,0.623c0.332,5.979,0.623,11.917,0.872,17.813c2.657,0.25,5.315,0.458,7.972,0.623
			c0,2.326,0.083,4.692,0.25,7.101c-2.658,0.166-5.191,0.415-7.598,0.747c0.415,6.146,0.871,12.292,1.37,18.437
			c2.491,0.165,4.982,0.333,7.474,0.499c0.332,4.398,0.747,8.844,1.246,13.327c7.806-0.581,15.986-0.953,24.54-1.121
			c0.332,5.563,0.706,11.087,1.121,16.568c1.994-0.085,3.945-0.168,5.855-0.251c0.249,3.902,0.623,8.18,1.121,12.832
			c5.315-0.248,10.754-0.414,16.318-0.499c0.914,0,1.868,0,2.865,0c0.582,6.146,1.204,12.333,1.869,18.562
			c-5.563,0.248-11.75,0.54-18.56,0.87c0.914,6.728,1.993,13.995,3.238,21.8c4.318-0.331,8.802-0.662,13.453-0.995
			c1.662-0.168,3.198-0.333,4.609-0.499c0.416,2.99,0.873,5.937,1.371,8.844c-5.73,0.582-11.751,0.998-18.062,1.246
			c-0.416-2.825-0.873-5.688-1.371-8.596c-2.409,0.165-4.775,0.375-7.101,0.623c0.25,2.824,0.582,5.605,0.998,8.348
			c-2.159,0.082-4.277,0.165-6.354,0.248c-5.065,0.25-10.089,0.333-15.072,0.25c1.743,9.801,3.529,18.934,5.356,27.405
			c1.412-0.165,2.865-0.292,4.36-0.375c5.481-0.581,10.671-1.08,15.571-1.493c0.582,3.403,1.163,6.807,1.745,10.213
			c2.739-0.165,5.521-0.33,8.345-0.498c1.246,7.226,2.617,14.699,4.111,22.422c6.394-0.416,12.457-0.912,18.187-1.494
			 M192.375,196.561c0.25,2.74,0.499,5.564,0.748,8.47c2.739,0.498,5.605,0.997,8.595,1.495c-0.333-3.986-0.541-7.849-0.623-11.586
			c7.806-1.328,16.07-2.407,24.79-3.238c-0.167-4.568-0.291-9.052-0.374-13.453 M203.711,233.932
			c-0.332-4.07-0.666-8.139-0.998-12.209c-2.657,0.582-5.231,1.163-7.722,1.745c0.332,3.156,0.706,6.311,1.12,9.466
			C198.604,233.268,201.136,233.598,203.711,233.932c8.553,1.077,16.899,1.909,25.038,2.491c0.332,4.897,0.747,9.759,1.246,14.573
			c2.491-0.248,4.983-0.499,7.474-0.747c0.415,5.231,0.955,10.465,1.619,15.695c8.222,0.251,16.235,0.168,24.042-0.248
			c0.416,4.401,0.79,8.679,1.122,12.829c1.91-0.083,3.861-0.166,5.854-0.248c0.665,5.646,1.495,11.958,2.492,18.933
			c-2.159,0.083-4.36,0.166-6.602,0.251c0.83,7.389,1.743,14.78,2.74,22.172c-7.722,0.584-14.948,1.163-21.674,1.744
			c0.498,2.326,0.914,4.693,1.246,7.102c-2.658,0-5.399-0.082-8.223-0.25c1.745,9.467,3.613,18.892,5.605,28.278
			c2.576-0.251,5.232-0.458,7.973-0.623c0.664,3.238,1.329,6.353,1.993,9.343c6.146-0.416,12.706-0.75,19.683-0.998
			c1.328,7.557,2.823,15.072,4.484,22.547c1.827-0.166,3.737-0.29,5.729-0.372c0.831-0.083,1.578-0.166,2.243-0.251
			c1.578,7.89,3.238,16.444,4.983,25.66 M227.379,217.986c-0.25-2.824-0.458-5.647-0.623-8.471
			c-8.72-0.582-17.066-1.578-25.039-2.989c0.167,5.065,0.499,10.131,0.996,15.196C210.438,220.229,218.66,218.983,227.379,217.986z
			 M239.088,265.944c-2.491-0.083-5.024-0.165-7.598-0.248c0.498,5.23,1.121,10.503,1.869,15.819c2.408-0.416,4.9-0.747,7.474-0.995
			C240.168,275.537,239.586,270.679,239.088,265.944z M229.995,250.996c-8.388,0.747-16.318,1.827-23.792,3.238
			c0.415,3.075,0.871,6.272,1.37,9.594c8.139,0.912,16.111,1.535,23.917,1.868C230.908,260.796,230.41,255.896,229.995,250.996z
			 M210.936,285.128c-1.246-7.226-2.367-14.325-3.364-21.3c-2.491-0.251-4.982-0.541-7.474-0.874
			c1.163,7.808,2.45,15.697,3.861,23.668C206.285,286.126,208.61,285.627,210.936,285.128c7.058-1.493,14.532-2.7,22.422-3.612
			c0.581,5.315,1.287,10.629,2.118,15.945c2.574,0,5.189,0.041,7.848,0.124c-0.997-5.814-1.827-11.503-2.492-17.064
			c7.475-0.832,15.28-1.497,23.419-1.995c0.581,6.394,1.163,12.707,1.744,18.936c-0.499,0-1.039,0-1.62,0
			c-7.058,0.165-14.076,0.207-21.051,0.124c0.332,2.16,0.664,4.318,0.996,6.477c0.997,5.98,1.91,11.751,2.741,17.315
			c-2.741,0.168-5.398,0.333-7.973,0.499c0.332,2.16,0.664,4.277,0.996,6.353c-6.893-0.248-13.785-0.623-20.678-1.122
			c2.325,10.798,4.733,20.805,7.225,30.023c6.063-0.083,12.416-0.292,19.059-0.623c0.499,3.07,1.122,6.185,1.869,9.343
			c2.658-0.166,5.357-0.375,8.097-0.623c1.911,8.304,3.779,15.86,5.605,22.67c5.813-0.331,12-0.705,18.561-1.121
			c1.661,8.554,3.57,17.067,5.729,25.536 M206.203,254.234c-2.409,0.333-4.817,0.749-7.226,1.246
			c0.333,2.491,0.707,4.982,1.122,7.474c-4.236-0.579-8.471-1.163-12.707-1.742c-2.325-0.416-4.566-0.788-6.726-1.121
			c-0.499,0.165-0.913,0.289-1.246,0.372c1.494,9.387,3.28,19.975,5.356,31.765c1.246-0.413,2.533-0.829,3.861-1.245
			c4.817-1.577,9.924-3.032,15.322-4.36c0.499,2.907,1.039,5.814,1.621,8.72c2.491,0.251,4.94,0.499,7.349,0.749
			c-0.747-3.736-1.411-7.391-1.993-10.963 M212.929,296.091c0.499,2.409,0.996,4.856,1.495,7.348
			c1.328,6.896,2.699,13.579,4.11,20.058c6.311-0.584,13.162-1.121,20.554-1.62c-1.329-8.056-2.533-16.194-3.612-24.415
			C227.835,297.21,220.32,296.753,212.929,296.091z M203.711,233.932c0.664,6.562,1.494,13.327,2.491,20.303 M194.992,223.467
			c-0.748-6.146-1.371-12.292-1.869-18.436c-5.896-1.246-11.627-2.741-17.191-4.485c-1.494,0.499-2.947,0.956-4.36,1.371
			c0.666,7.889,1.454,15.404,2.367,22.546c0.167,1.413,0.374,2.95,0.623,4.609c0.25,0,0.456,0.083,0.623,0.249
			c0.582-0.331,1.246-0.623,1.993-0.871C182.826,226.623,188.763,224.962,194.992,223.467z M192.375,196.561
			c-5.729,1.162-11.211,2.491-16.443,3.985c-1.578-0.498-3.197-0.997-4.857-1.494c0.166,0.913,0.332,1.869,0.498,2.865
			c-0.664,0.166-1.246,0.332-1.743,0.498c-1.495,0.582-2.949,1.081-4.36,1.495c0.83,8.056,1.786,15.986,2.865,23.793
			c2.077,0.499,4.152,0.956,6.229,1.369c0,0.166,0.042,0.292,0.124,0.375c0.167-0.083,0.332-0.126,0.499-0.126
			c3.82,0.749,7.973,1.454,12.457,2.119c2.741,0.498,5.564,0.995,8.47,1.493c0.831,7.475,1.786,14.99,2.865,22.547
			c-6.394,1.328-12.498,2.865-18.311,4.61c-0.581-0.085-1.039-0.168-1.371-0.251c0,0.251,0.042,0.458,0.125,0.623
			c-1.08,0.251-2.118,0.584-3.114,0.997c-0.914,0.249-1.827,0.582-2.741,0.998c1.578,9.632,3.321,19.264,5.232,28.898
			c1.826,0.331,3.737,0.664,5.729,0.998c0.083-0.003,0.167-0.044,0.25-0.127c-0.081,0.083-0.081,0.165,0,0.251
			c2.409,0.416,4.941,0.788,7.598,1.121c4.318,0.579,8.72,1.163,13.205,1.742c1.743,9.552,3.653,19.143,5.729,28.777
			c2.325-0.251,4.733-0.458,7.225-0.623c0.167,1.246,0.458,2.447,0.872,3.61c-2.491-0.248-5.024-0.457-7.598-0.623
			c2.242,10.049,4.608,20.224,7.1,30.52c2.575,0.083,5.149,0.127,7.723,0.127c0.831,3.403,1.703,6.642,2.617,9.715
			c5.647-0.334,11.75-0.665,18.311-0.995c1.578,7.557,3.322,15.03,5.232,22.422c2.658-0.083,5.481-0.209,8.47-0.375
			c2.741,9.384,5.481,17.315,8.222,23.792 M165.469,203.91c-7.142,2.492-13.329,5.149-18.561,7.973
			c0.416,3.238,0.79,6.478,1.122,9.716c5.397,2.159,12.166,4.194,20.304,6.104c0.167,1.245,0.332,2.491,0.499,3.737
			c1.91-0.665,3.861-1.331,5.854-1.993c0.998,8.221,2.534,18.352,4.609,30.393c-2.242-0.413-4.401-0.788-6.478-1.119
			c0.25,1.163,0.499,2.409,0.748,3.737c-6.977,2.24-13.038,4.649-18.188,7.224c0.831,5.481,1.786,10.756,2.866,15.821
			c5.647,2.158,12.498,4.109,20.554,5.854c0.166,0.832,0.374,1.786,0.623,2.866c1.661-0.584,3.363-1.207,5.107-1.868
			c0.083,0,0.167,0.041,0.25,0.124c0.166,0.912,0.332,1.909,0.498,2.99c1.744,9.965,3.613,19.391,5.605,28.275
			c0.748,0.166,1.536,0.292,2.367,0.375c2.077,0.248,4.11,0.54,6.104,0.871h0.374c3.654-0.331,7.515-0.623,11.584-0.871
			c0.167,0.747,0.332,1.535,0.499,2.364c-4.069-0.496-8.222-0.995-12.457-1.493c-2.824,0.248-5.481,0.498-7.973,0.747
			c2.409,10.712,5.065,20.678,7.973,29.896c0.415,0,0.788,0,1.12,0c5.813,0.664,11.959,1.122,18.436,1.37
			c0.914,3.489,1.869,6.978,2.866,10.464c2.325-0.248,4.816-0.455,7.474-0.622c2.325,8.138,4.651,15.529,6.976,22.174
			c5.149-0.168,10.671-0.416,16.567-0.747c1.994,8.469,4.11,16.772,6.354,24.913c-4.236,0-8.554,0-12.956,0
			c-6.976-0.165-14.035-0.416-21.177-0.749c-4.151-0.248-8.221-0.496-12.207-0.747c-0.167,0-0.291,0-0.374,0
			c-2.243-0.248-4.485-0.499-6.727-0.747c-5.315-0.413-10.671-0.997-16.07-1.744c-5.647-9.053-10.92-18.975-15.819-29.772
			c-0.084-0.331-0.208-0.622-0.375-0.871c-0.747-1.576-1.453-3.196-2.117-4.858c3.321-1.078,7.765-2.034,13.328-2.863
			c-2.823-6.479-5.48-13.123-7.972-19.931c-8.222-2.574-14.118-5.856-17.688-9.842 M171.074,199.052
			c-2.159-0.748-4.277-1.536-6.354-2.367c0.167,2.491,0.416,4.9,0.748,7.225 M150.521,239.661c0.664,4.651,1.37,9.26,2.118,13.826
			c5.397,1.91,12.125,3.654,20.179,5.233c-1.411-8.971-2.739-18.063-3.985-27.28C161.773,234.097,155.669,236.839,150.521,239.661
			c-0.831-5.897-1.662-11.917-2.491-18.063c-3.82-1.495-6.934-3.155-9.343-4.982c-1.744,1.246-3.654,2.491-5.73,3.737
			 M131.71,210.761c1.827,1.994,4.153,3.945,6.977,5.855c2.409-1.578,5.148-3.156,8.221-4.733
			c-0.83-7.889-1.661-15.986-2.491-24.291c-0.498-0.167-0.914-0.332-1.246-0.499c-5.315,3.155-9.675,6.602-13.08,10.339
			 M144.417,187.592c-0.083-0.415-0.125-0.831-0.125-1.246c-0.416,0.083-0.789,0.332-1.121,0.747
			c-5.398-3.073-10.463-6.311-15.198-9.716 M136.319,243.398c1.163,1.08,2.367,2.199,3.613,3.362
			c2.906-2.409,6.435-4.773,10.588-7.1 M141.676,274.165c0.499,0.915,1.163,1.703,1.994,2.367c3.321-2.323,7.225-4.607,11.708-6.851
			c-1.079-5.231-1.993-10.63-2.739-16.194c-5.98-1.992-10.215-4.235-12.706-6.727c-0.831,0.749-1.745,1.579-2.741,2.491
			 M149.275,307.799c0.25,0.749,0.706,1.496,1.37,2.243c2.908-2.739,6.645-5.357,11.211-7.849c-0.333-1.411-0.665-2.864-0.997-4.36
			c-0.914-3.985-1.786-8.097-2.615-12.33c-6.81-2.657-11.668-5.649-14.575-8.971c-0.582,0.251-0.997,0.582-1.246,0.998
			 M179.42,294.223c-6.81,2.491-12.665,5.148-17.564,7.971c1.246,5.481,2.699,10.921,4.36,16.32
			c5.232,1.576,11.751,3.031,19.557,4.359C183.531,313.404,181.413,303.854,179.42,294.223z M164.721,196.685
			c-7.142-2.574-13.909-5.605-20.304-9.093 M185.773,322.873c1.661,0.414,3.364,0.706,5.107,0.871
			c0.167,0.582,0.332,1.246,0.499,1.993c-1.744,0.167-3.322,0.374-4.733,0.622c2.242,9.633,4.692,19.143,7.349,28.527
			c1.744,0.248,3.53,0.498,5.357,0.746c0.664,1.91,1.287,3.778,1.868,5.605c0.914,2.492,1.826,4.941,2.74,7.351
			c1.413-0.083,2.866-0.166,4.36-0.248c4.153-0.334,8.637-0.623,13.454-0.874c1.826,7.227,3.779,14.449,5.854,21.676
			c2.741,0,5.605-0.042,8.596-0.124c3.238,9.301,6.561,17.354,9.965,24.166 M185.773,322.873c0.25,1.08,0.54,2.241,0.873,3.486
			c-6.645,0.83-12.416,1.91-17.315,3.238c2.242,7.309,4.692,14.408,7.35,21.304c4.9,1.576,10.671,2.904,17.314,3.985
			c1.412,4.816,2.823,9.59,4.236,14.325c1.744-0.249,3.654-0.458,5.729-0.623c2.575,7.143,5.44,14.033,8.596,20.678
			c4.568,0,9.592-0.042,15.072-0.124c2.077,7.309,4.194,14.617,6.354,21.923 M156.873,334.831c3.24-2.075,7.392-3.822,12.457-5.233
			c-1.079-3.654-2.118-7.348-3.114-11.084c-8.056-2.491-13.245-5.316-15.571-8.472 M173.815,379.425
			c0.83,0.667,1.702,1.246,2.616,1.745c4.401,2.741,9.716,4.775,15.944,6.104c-2.741-5.396-5.315-10.88-7.724-16.441
			c3.904-0.667,8.429-1.207,13.579-1.62c1.91,6.559,3.986,13.12,6.228,19.683c1.91,0.082,3.945,0.165,6.104,0.248
			c0.58,0,1.246,0.041,1.993,0.124c3.737,8.056,7.889,15.777,12.457,23.169 M212.431,411.688
			c-2.908-7.557-5.564-15.154-7.973-22.794c-4.401-0.334-8.429-0.874-12.083-1.621c4.236,8.222,8.678,16.111,13.329,23.668
			 M171.074,199.052c-0.664-7.723-1.246-15.738-1.744-24.042 M162.852,177.377c0.582,6.561,1.205,12.997,1.869,19.308
			 M234.23,191.08c0-4.152,0.042-8.18,0.124-12.083"/>
	</g>
	<g>
		<path id="Layer0_0_3_STROKES" fill="none" stroke="#333333" stroke-linecap="round" stroke-linejoin="round" d="M261.013,44.712
			c-11.543,0.083-22.63,0.664-33.26,1.744c-12.375,1.246-24.042,3.156-35.004,5.73c-0.581,0.083-1.079,0.208-1.494,0.374
			 M292.029,45.584c-8.553-0.582-17.398-0.872-26.533-0.872c-1.413,0-2.782,0-4.111,0h-0.125c-0.083,0-0.166,0-0.248,0
			 M401.898,68.131c-3.987-3.488-8.887-6.768-14.699-9.84l-0.25-0.125c-0.167-0.166-0.332-0.291-0.499-0.374
			c-4.982-2.741-10.671-5.273-17.064-7.598c-3.654-1.33-7.433-2.617-11.336-3.862c-26.242-8.47-57.093-12.706-92.554-12.706
			c-1.413,0-2.824,0-4.236,0c-26.159,0.249-49.827,2.866-71.004,7.849c-10.38,2.325-20.096,5.231-29.148,8.72
			c-2.159,0.83-4.194,1.661-6.104,2.491h0.125c-10.963,4.649-19.516,9.675-25.662,15.072c-9.549,8.138-14.243,17.066-14.076,26.782
			c0,1.827,0.124,3.529,0.374,5.107v0.125c0.332,1.495,0.748,2.989,1.246,4.484c1.081,3.654,3.073,7.225,5.979,10.714
			c1.578,1.827,3.405,3.653,5.481,5.48c0.25,0.332,0.582,0.623,0.997,0.872c0.664,0.665,1.412,1.081,2.242,1.246
			c0.416,0.914,1.081,1.66,1.994,2.242c0.747,0.499,1.66,1.122,2.741,1.869c1.079,0.664,2.201,1.412,3.362,2.242
			c1.08,0.499,2.118,1.039,3.114,1.62c1.33,0.747,2.782,1.535,4.36,2.366c3.157,1.578,6.603,3.114,10.34,4.609
			c0,0.083,0.083,0.166,0.248,0.25c0.666,0.25,1.371,0.498,2.118,0.747c0.332,0.084,0.623,0.208,0.872,0.374
			c0.167,0.084,0.332,0.167,0.499,0.249c1.246,0.333,2.491,0.749,3.737,1.246c0.083,0,0.166,0,0.248,0
			c0.582,0.249,1.246,0.499,1.994,0.748c3.155,1.079,6.394,2.158,9.716,3.238c3.405,0.914,6.893,1.869,10.464,2.865
			c0.166,0,0.374,0.042,0.623,0.125c0.166,0,0.333,0,0.498,0c0.416,0.083,0.831,0.207,1.246,0.374
			c3.903,0.831,7.847,1.661,11.834,2.492h0.125c0.166,0,0.332,0.041,0.498,0.124c6.977,1.246,14.325,2.283,22.049,3.114h0.124
			c0.167,0,0.291,0.041,0.375,0.125c3.405,0.248,6.934,0.498,10.588,0.747c7.474,0.664,15.239,1.038,23.293,1.122h0.125
			c2.159,0,4.36,0,6.602,0c1.495,0,2.947,0,4.36,0c5.065-0.084,10.089-0.25,15.072-0.499c0.167,0,0.332,0,0.499,0
			c5.149-0.25,10.215-0.541,15.198-0.873c0.249-0.083,0.54-0.124,0.872-0.124h0.124c4.484-0.499,8.887-1.038,13.204-1.619
			c0.416,0,0.79,0,1.122,0h0.124c6.313-0.998,12.457-2.077,18.438-3.239c0.58-0.166,1.203-0.333,1.868-0.498
			c0.083,0,0.166,0,0.248,0c2.824-0.748,5.689-1.454,8.596-2.118c0.499-0.084,1.079-0.208,1.745-0.374
			c0.58-0.167,1.079-0.416,1.494-0.748c0.582,0.084,1.246,0.042,1.994-0.124c3.487-0.996,6.975-2.035,10.463-3.114
			c1.33-0.499,2.699-0.996,4.112-1.495c1.079-0.332,2.117-0.706,3.114-1.122c0.332-0.083,0.664-0.207,0.996-0.374
			c0.332-0.249,0.623-0.498,0.872-0.747c0.665,0,1.329-0.125,1.993-0.374c5.315-2.243,10.215-4.485,14.699-6.727
			c1.246-0.665,2.491-1.37,3.737-2.118c5.065-3.073,9.384-6.229,12.956-9.467c5.065-4.65,8.512-9.55,10.339-14.699
			c0.167-0.416,0.249-0.789,0.249-1.122c0.914-3.073,1.37-6.187,1.37-9.342C415.684,84.906,411.2,76.104,401.898,68.131z
			 M292.029,45.584c12.042,0.831,23.461,2.242,34.256,4.235c10.048,1.827,19.558,4.194,28.527,7.101
			c0.166,0,0.374,0.084,0.623,0.249c3.488,0.997,6.852,2.118,10.09,3.364c5.813,2.242,11.045,4.568,15.696,6.975
			c0.083,0.084,0.165,0.125,0.248,0.125c0.167,0.166,0.332,0.29,0.499,0.374c0.083,0.083,0.208,0.166,0.374,0.25
			c14.284,7.722,21.593,16.483,21.925,26.283c0,0.747-0.042,1.454-0.125,2.118c-0.083,0.997-0.207,1.951-0.374,2.865
			c-0.415,0.499-0.664,1.205-0.747,2.118c-1.495,3.57-4.028,7.017-7.6,10.339c-3.654,3.322-8.304,6.478-13.952,9.467
			c-1.411,0.748-2.906,1.495-4.484,2.243c-1.91,0.912-3.945,1.827-6.104,2.739c-0.996,0.416-1.993,0.831-2.989,1.246
			c-0.664,0.25-1.246,0.623-1.745,1.122c-0.664,0-1.287,0.125-1.869,0.374c-5.564,1.994-11.169,3.778-16.816,5.356
			c-0.498,0.167-0.955,0.375-1.37,0.623h-0.125c-0.58-0.083-1.162-0.041-1.743,0.125c-3.156,0.831-6.311,1.619-9.468,2.366
			c-0.248,0.084-0.498,0.167-0.747,0.249l0.124-0.124c-5.979,1.246-12.125,2.366-18.436,3.364c-0.498,0.083-0.914,0.166-1.246,0.248
			c-4.65,0.499-9.342,1.039-14.076,1.621l0.124-0.125c-5.065,0.415-10.131,0.748-15.196,0.996c-0.167,0-0.332,0-0.499,0
			c-6.396,0.333-12.831,0.499-19.308,0.499c-2.159,0-4.36,0-6.602,0h-0.125c-7.723-0.083-15.196-0.415-22.422-0.997
			c-3.737-0.332-7.39-0.664-10.962-0.996l0.25,0.124c-0.332-0.083-0.582-0.124-0.747-0.124c-7.391-0.831-14.409-1.827-21.052-2.99
			h0.124c-0.166-0.083-0.374-0.124-0.623-0.124c-4.152-0.914-8.263-1.827-12.332-2.741c-0.167-0.084-0.333-0.125-0.499-0.125
			c-0.083,0-0.166,0-0.25,0c-0.248,0-0.415,0-0.498,0c-7.142-1.91-14.034-3.985-20.679-6.228l-0.124-0.124
			c-1.246-0.499-2.45-0.955-3.613-1.37c-1.328-0.582-2.615-1.039-3.861-1.371h0.249c-0.748-0.333-1.495-0.665-2.242-0.997
			c-0.998-0.332-1.911-0.664-2.741-0.996c-1.578-0.831-3.073-1.578-4.485-2.242c-3.653-1.827-6.851-3.696-9.591-5.605l-0.125-0.125
			c-1.079-0.664-2.034-1.246-2.865-1.743c-0.582-0.333-1.122-0.582-1.619-0.748c-0.167-0.332-0.291-0.539-0.374-0.623
			c-0.332-0.497-0.666-0.914-0.998-1.246c-0.332-0.249-0.58-0.456-0.747-0.623c-4.236-3.737-7.018-7.598-8.346-11.584l-0.124-0.125
			c-0.416-0.997-0.706-1.952-0.872-2.866l0.124,0.125c-0.166-1.08-0.248-2.2-0.248-3.363c0.083-5.481,2.407-10.588,6.975-15.322
			c0.914-1.08,1.993-2.077,3.238-2.99c5.149-4.484,12.083-8.636,20.803-12.457c0.581-0.332,1.246-0.623,1.994-0.872
			c1.743-0.83,3.653-1.619,5.729-2.366h-0.124c8.221-3.156,16.941-5.813,26.159-7.973"/>
	</g>
</g>
</svg>
