<svg xmlns="http://www.w3.org/2000/svg" width="900" height="450" viewBox="0 0 900 450"><path fill="#A8A8A8" d="M265.497 33.625h-4.236c-26.159.249-49.827 2.866-71.004 7.849-10.38 2.325-20.096 5.231-29.148 8.72-2.159.83-4.194 1.661-6.104 2.491h.125c-10.963 4.649-19.516 9.675-25.662 15.072-9.549 8.138-14.243 17.066-14.076 26.782 0 1.827.124 3.529.374 5.107v.125a45.167 45.167 0 0 0 1.246 4.484c1.081 3.654 3.073 7.225 5.979 10.714 1.578 1.827 3.405 3.653 5.481 5.48.25.332.582.623.997.872.664.665 1.412 1.081 2.242 1.246.416.914 1.081 1.66 1.994 2.242.747.499 1.66 1.122 2.741 1.869a58.739 58.739 0 0 1 3.362 2.242 36.85 36.85 0 0 1 3.114 1.62c1.33.747 2.782 1.535 4.36 2.366 3.157 1.578 6.603 3.114 10.34 4.609 0 .083.083.166.248.25.666.25 1.371.498 2.118.747.332.084.623.208.872.374.167.084.332.167.499.249 1.246.333 2.491.749 3.737 1.246h.248c.582.249 1.246.499 1.994.748a674.185 674.185 0 0 0 9.716 3.238c3.405.914 6.893 1.869 10.464 2.865.166 0 .374.042.623.125h.498a7 7 0 0 1 1.246.374c3.903.831 7.847 1.661 11.834 2.492h.125c.166 0 .332.041.498.124 6.977 1.246 14.325 2.283 22.049 3.114h.124c.167 0 .291.041.375.125 3.405.248 6.934.498 10.588.747 7.474.664 15.239 1.038 23.293 1.122h11.087c5.065-.084 10.089-.25 15.072-.499h.499a845.26 845.26 0 0 0 15.198-.873c.249-.083.54-.124.872-.124h.124a579.918 579.918 0 0 0 13.204-1.619h1.246a533.45 533.45 0 0 0 18.438-3.239c.58-.166 1.203-.333 1.868-.498h.248a257.618 257.618 0 0 1 8.596-2.118 23.37 23.37 0 0 0 1.745-.374 4.24 4.24 0 0 0 1.494-.748c.582.084 1.246.042 1.994-.124a501.157 501.157 0 0 0 10.463-3.114 224.97 224.97 0 0 1 4.112-1.495 34.203 34.203 0 0 0 3.114-1.122 4.81 4.81 0 0 0 .996-.374c.332-.249.623-.498.872-.747a5.64 5.64 0 0 0 1.993-.374c5.315-2.243 10.215-4.485 14.699-6.727a85.184 85.184 0 0 0 3.737-2.118c5.065-3.073 9.384-6.229 12.956-9.467 5.065-4.65 8.512-9.55 10.339-14.699.167-.416.249-.789.249-1.122a32.605 32.605 0 0 0 1.37-9.342c.332-9.633-4.152-18.436-13.453-26.409-3.987-3.488-8.887-6.768-14.699-9.84l-.25-.125a1.957 1.957 0 0 0-.499-.374c-4.982-2.741-10.671-5.273-17.064-7.598a297.364 297.364 0 0 0-11.336-3.862c-26.247-8.469-57.098-12.705-92.558-12.705m-4.111 11.087h4.111c9.134 0 17.979.291 26.533.872 12.042.831 23.461 2.242 34.256 4.235 10.048 1.827 19.558 4.194 28.527 7.101.166 0 .374.084.623.249 3.488.997 6.852 2.118 10.09 3.364 5.813 2.242 11.045 4.568 15.696 6.975.083.084.165.125.248.125.167.166.332.29.499.374.083.083.208.166.374.25 14.284 7.722 21.593 16.483 21.925 26.283 0 .747-.042 1.454-.125 2.118a29.599 29.599 0 0 1-.374 2.865c-.415.499-.664 1.205-.747 2.118-1.495 3.57-4.028 7.017-7.6 10.339-3.654 3.322-8.304 6.478-13.952 9.467a112.111 112.111 0 0 1-4.484 2.243c-1.91.912-3.945 1.827-6.104 2.739l-2.989 1.246a4.86 4.86 0 0 0-1.745 1.122c-.664 0-1.287.125-1.869.374a246.352 246.352 0 0 1-16.816 5.356 7.002 7.002 0 0 0-1.37.623h-.125a4.146 4.146 0 0 0-1.743.125 388.421 388.421 0 0 1-9.468 2.366c-.248.084-.498.167-.747.249l.124-.124a385.647 385.647 0 0 1-18.436 3.364c-.498.083-.914.166-1.246.248a918.66 918.66 0 0 0-14.076 1.621l.124-.125a463.92 463.92 0 0 1-15.196.996h-.499c-6.396.333-12.831.499-19.308.499h-6.727a322.564 322.564 0 0 1-22.422-.997c-3.737-.332-7.39-.664-10.962-.996l.25.124c-.332-.083-.582-.124-.747-.124-7.391-.831-14.409-1.827-21.052-2.99h.124a1.388 1.388 0 0 0-.623-.124 2953.9 2953.9 0 0 1-12.332-2.741 1.1 1.1 0 0 0-.499-.125h-.748a336.413 336.413 0 0 1-20.679-6.228l-.124-.124c-1.246-.499-2.45-.955-3.613-1.37a26.899 26.899 0 0 0-3.861-1.371h.249l-2.242-.997a49.34 49.34 0 0 1-2.741-.996 111.405 111.405 0 0 0-4.485-2.242c-3.653-1.827-6.851-3.696-9.591-5.605l-.125-.125a270.955 270.955 0 0 0-2.865-1.743 9.13 9.13 0 0 0-1.619-.748c-.167-.332-.291-.539-.374-.623a8.225 8.225 0 0 0-.998-1.246 7.252 7.252 0 0 1-.747-.623c-4.236-3.737-7.018-7.598-8.346-11.584l-.124-.125a13.933 13.933 0 0 1-.872-2.866l.124.125c-.166-1.08-.248-2.2-.248-3.363.083-5.481 2.407-10.588 6.975-15.322a18.703 18.703 0 0 1 3.238-2.99c5.149-4.484 12.083-8.636 20.803-12.457a11.052 11.052 0 0 1 1.994-.872 62.798 62.798 0 0 1 5.729-2.366h-.124c8.221-3.156 16.941-5.813 26.159-7.973a6.55 6.55 0 0 1 1.494-.374c10.963-2.574 22.63-4.484 35.004-5.73 10.629-1.08 21.716-1.662 33.26-1.744h.376m447.947 55.431c1.08-5.729-.044-10.089-3.365-13.08H468.294L401.898 68.13c9.301 7.973 13.785 16.775 13.453 26.409 0 3.155-.457 6.27-1.37 9.342 0 .333-.083.706-.249 1.122-1.827 5.148-5.273 10.048-10.339 14.699l3.611-1.121 61.289-18.436H709.333z"/><path d="M784.321 104.255c3.406-12.954.21-19.889-9.591-20.803h-75.115c2.822.998 4.941 2.202 6.353 3.613 3.321 2.99 4.445 7.35 3.365 13.08-.166.747-.667 2.283-1.497 4.609l76.485-.499z"/><path fill="none" stroke="#333" stroke-width="1.5" stroke-linecap="round" stroke-linejoin="round" d="M705.968 87.065h-6.353m0-3.612h75.115c9.801.914 12.997 7.849 9.591 20.803l-76.485.499c-2.323-.332-3.529-1.869-3.612-4.609h-235.93l-61.289 18.436m298.963-31.517c3.321 2.99 4.445 7.35 3.365 13.08h-5.109m5.109 0c-.166.747-.667 2.283-1.497 4.609M401.898 68.131l66.396 18.935h231.321m-296.221 32.636l3.611-1.121"/><path fill="none" stroke="#254A00" stroke-width="1.5" stroke-linecap="round" stroke-linejoin="round" d="M699.615 87.065v-3.613c2.822.998 4.941 2.202 6.353 3.613m-298.963 31.516c-.914 4.069-1.826 8.055-2.739 11.959l-.25.747a40.734 40.734 0 0 1-.623 3.363 1014.472 1014.472 0 0 0-5.482 26.533 665.64 665.64 0 0 0-4.857 26.533 196.908 196.908 0 0 1-1.122 7.35 575.88 575.88 0 0 0-2.491 17.314 583.646 583.646 0 0 0-1.993 16.318 44.796 44.796 0 0 0-.623 5.731 432.808 432.808 0 0 0-1.246 14.326 80.436 80.436 0 0 0-.623 7.846c-.25 3.238-.458 6.479-.623 9.718.415.165.871.372 1.37.622M227.753 46.457a962.759 962.759 0 0 0-.873 15.446c10.63-1.162 21.841-1.827 33.633-1.993l.499-15.197m-69.758 7.847c-.167 4.318-.332 9.509-.499 15.571 11.294-2.823 23.336-4.899 36.125-6.229a2038.27 2038.27 0 0 1-1.122 23.668c10.714-1.246 22.007-1.993 33.883-2.242.25-7.806.54-15.612.872-23.418 2.242-.084 4.568-.125 6.976-.125 7.973 0 15.696.208 23.17.623.333-4.898.789-9.84 1.37-14.823M190.756 68.131c-8.969 2.077-17.481 4.692-25.537 7.848a158.096 158.096 0 0 0-7.474 3.114c.167 6.81.415 14.658.747 23.543a359.107 359.107 0 0 1 7.724-3.238c7.557-2.825 15.529-5.273 23.917-7.35.167-9.218.373-17.19.623-23.917zm-33.26-4.36c.083 4.401.167 9.509.249 15.322-9.965 4.153-17.73 8.804-23.294 13.952.25 4.733.582 9.343.997 13.828l.499 5.48m20.802 12.955a14.1 14.1 0 0 1 2.615-.997 612.55 612.55 0 0 1-.747-17.439 72.198 72.198 0 0 1-.125-4.236c-7.142 3.238-14.076 7.101-20.802 11.584m52.443-22.172c-.083 4.651-.167 9.592-.249 14.824a178.519 178.519 0 0 0-.125 6.602c9.052-2.242 20.845-3.862 35.377-4.859.167-7.557.375-15.239.623-23.045-12.54 1.495-24.415 3.655-35.626 6.478zm-.374 44.346a1054.78 1054.78 0 0 1 0-22.919 80.51 80.51 0 0 0-6.228 1.869c-7.392 2.574-15.447 5.564-24.167 8.969 0 .665.042 1.329.125 1.993m-31.017-5.857l-3.737 2.741m2.741-22.546c1.827-2.658 4.152-5.19 6.975-7.599a373.476 373.476 0 0 1-.996-13.827m9.466 51.322c-.914.415-1.869.83-2.865 1.246.416 6.561.872 12.996 1.371 19.308.914.83 1.993 1.743 3.238 2.739a260.313 260.313 0 0 1 16.07-5.356l-.748-9.965m-36.997-23.543c.332 5.231.666 10.421.998 15.571.747 1.827 1.951 3.944 3.612 6.353a781.204 781.204 0 0 1 12.457-5.107 332.4 332.4 0 0 0-.25-2.866m-15.819 1.62c.166 2.491.374 4.983.623 7.474.996-.416 1.993-.79 2.989-1.122 2.741 4.152 7.35 8.885 13.828 14.201.083 1.246.166 2.574.249 3.985a23.046 23.046 0 0 1 2.99-1.246 1683.64 1683.64 0 0 1 7.35 5.482c2.74 1.91 5.979 3.695 9.716 5.356a493.142 493.142 0 0 1-.996-16.194 131.578 131.578 0 0 1 6.726-1.869 120.712 120.712 0 0 1-.124-5.48m-25.663 13.952c.249 4.401.581 8.845.997 13.329.498 5.979 1.038 11.959 1.619 17.938 5.232-3.156 11.418-6.146 18.56-8.969-.415-4.236-.788-8.47-1.121-12.706 2.16.996 4.525 1.91 7.101 2.741a523.456 523.456 0 0 1-1.371-20.803 178.23 178.23 0 0 1 9.592-2.242m-48.581 16.07a132.816 132.816 0 0 1 13.204-5.357m25.911 220.111c.996-.416 2.242-.914 3.737-1.496-4.402-10.131-8.513-21.009-12.333-32.636a182.88 182.88 0 0 1-2.118-6.229c-2.741-8.637-5.273-17.646-7.598-27.032a1820.621 1820.621 0 0 1-5.232-22.296 274.57 274.57 0 0 0-1.619-7.973c-.25-1.163-.499-2.285-.748-3.365a847.049 847.049 0 0 1-4.484-24.913 167.118 167.118 0 0 1-.872-5.854 1276.397 1276.397 0 0 1-3.363-23.045 177.923 177.923 0 0 1-1.246-9.592c-.58-4.401-1.12-8.844-1.619-13.329a1516.808 1516.808 0 0 1-2.118-20.055 1557.454 1557.454 0 0 1-3.362-39.363m38.24 39.364a69.091 69.091 0 0 1 2.367-.996c1.329-.499 2.7-.955 4.111-1.371-.166-2.242-.333-4.442-.498-6.602v-.996c3.737 1.329 7.847 2.574 12.332 3.737a256.4 256.4 0 0 1 9.468-2.615 855.522 855.522 0 0 1-.748-20.803m-8.72 23.417a443.73 443.73 0 0 0 9.716 2.242c-.083-1.661-.166-3.28-.248-4.857a486.041 486.041 0 0 1 10.836-2.243c.167-5.48.458-10.795.872-15.944m-33.01 24.664a164.896 164.896 0 0 1 11.834-3.861m77.98-63.53c3.985 0 8.138.042 12.457.124 5.315 0 10.38.084 15.196.25.499-8.056 1.081-16.153 1.745-24.291a522.392 522.392 0 0 0-20.055-.374h-8.845c-.25 8.221-.415 16.318-.498 24.291-.167 8.969-.291 17.854-.375 26.658a480.54 480.54 0 0 1 26.782-.249c.25-8.637.666-17.315 1.246-26.035 11.793.249 22.34.831 31.641 1.744a516.68 516.68 0 0 1 2.491-22.795c-10.297-1.579-21.094-2.658-32.388-3.24a809.599 809.599 0 0 1 2.118-23.294c11.709.665 22.879 1.869 33.508 3.613a859.352 859.352 0 0 1 2.118-14.201m-101.397 92.554a142.015 142.015 0 0 1-.125-5.98 342.87 342.87 0 0 0-21.426 2.866m22.174 38.989a492.522 492.522 0 0 1-.499-15.696c-8.138.914-15.985 2.159-23.543 3.737a9.793 9.793 0 0 0-.249 2.118c-.083 2.16-.125 4.401-.125 6.728 7.474 1.161 15.612 2.2 24.416 3.113 2.823.166 5.771.415 8.844.747.083-5.979.291-11.834.623-17.563-3.405.415-6.728.788-9.966 1.121a323.1 323.1 0 0 1-.124-8.968m10.09 7.847c.167-2.326.332-4.692.499-7.101m80.22-13.204l.249-5.481a408.194 408.194 0 0 0-30.395-1.619l-.248 9.84m-26.159-36.249c-12.706 0-24.042.332-34.008.996-.249 9.384-.374 18.644-.374 27.778a515.608 515.608 0 0 1 28.9-1.992 107.5 107.5 0 0 1 5.107-.125v10.09m.126 11.088v4.857H269.608c.083-1.578.167-3.197.25-4.857m-10.466 34.38c2.409-.083 4.9-.124 7.474-.124h1.371c.083-2.908.25-5.939.498-9.095h-6.353a42.215 42.215 0 0 0-3.238-.124c.083 3.238.166 6.353.248 9.343.167 6.975.375 13.868.623 20.678 2.575 0 5.19-.042 7.849-.124 0-6.644.124-13.537.374-20.678 5.729 0 11.252.083 16.567.248v-9.84c-5.315.25-10.671.415-16.07.498.167-6.643.458-13.412.872-20.304 5.149 0 10.215.084 15.198.25.083-1.827.124-3.696.124-5.605m-50.575 24.039c7.724.664 15.986 1.163 24.79 1.495a813.058 813.058 0 0 1-.25-20.18c-8.222.167-16.194.54-23.917 1.122m64.153 17.563c.25-5.729.54-11.584.872-17.563-4.9-.332-9.965-.623-15.197-.872v19.557c4.816-.25 9.591-.623 14.325-1.122 4.982-.415 9.841-.955 14.575-1.619.083-4.817.25-9.592.498-14.325a660.092 660.092 0 0 0-14.2-1.619c.166-2.409.374-4.858.623-7.35m-99.531 21.052a641.91 641.91 0 0 1-10.215-1.745c.416 7.641.914 15.363 1.495 23.17a321.355 321.355 0 0 1 8.72-1.621 393.739 393.739 0 0 1 0-19.804zM382.341 68.256a496.767 496.767 0 0 0-2.865 11.833c10.962 4.983 19.184 10.504 24.664 16.567m-50.947-26.158a760.96 760.96 0 0 0-2.99 22.297c7.142 1.91 13.911 4.112 20.304 6.603a76.946 76.946 0 0 1 4.609 1.869 501 501 0 0 1 4.36-21.177c-2.99-1.412-6.27-2.782-9.841-4.111a238.482 238.482 0 0 0-16.442-5.481c-9.136-2.658-18.811-4.817-29.025-6.478a951.494 951.494 0 0 0-3.238 22.921c10.297 1.494 20.055 3.446 29.273 5.854a1460.59 1460.59 0 0 0-2.367 20.929c3.986.912 7.391 1.868 10.215 2.865a378.102 378.102 0 0 1 13.578 4.982 414.419 414.419 0 0 1 3.488-20.304c7.973 3.321 14.74 6.893 20.304 10.712m-23.793 9.592a102.68 102.68 0 0 1 5.356 2.118m-33.134 47.584c.083-.997.124-1.952.124-2.865a228.091 228.091 0 0 0-11.834-2.491c-.332 2.824-.664 5.605-.996 8.346 4.401-.914 8.637-1.91 12.706-2.99a51.363 51.363 0 0 1 5.107-1.494 249.05 249.05 0 0 1-4.983-1.371c.332-7.39.747-14.699 1.246-21.923m-30.395 5.854c-.166 3.57-.374 7.141-.623 10.712a339.85 339.85 0 0 1 17.938 2.865c.747-5.564 1.537-11.169 2.368-16.816m-5.482 44.471a570.677 570.677 0 0 1 2.118-19.308 343.575 343.575 0 0 1-17.439 3.114 761.433 761.433 0 0 0-.374 14.201 405.945 405.945 0 0 1 15.695 1.993c4.9.747 9.633 1.619 14.202 2.616.165-8.553.373-16.858.623-24.914m-9.095-33.633a353.012 353.012 0 0 0-18.81-1.993 651.917 651.917 0 0 1 2.492-25.91c11.709.997 21.508 2.325 29.397 3.987-.665 7.058-1.287 14.2-1.869 21.424m40.611 12.956a235.96 235.96 0 0 0-17.938-4.484 311.336 311.336 0 0 0-2.118 19.931c7.226-2.825 13.454-5.939 18.685-9.343.499-2.077.955-4.112 1.371-6.104a513.153 513.153 0 0 1 3.861-18.935 238.304 238.304 0 0 1 12.582 5.356c.415-.997.747-2.076.996-3.238m-18.81 22.921a50.152 50.152 0 0 0 6.603-4.859l-5.232-1.246m16.817-13.453c-.083-.084-.208-.125-.374-.125-2.077 5.398-5.813 10.34-11.211 14.824a247.94 247.94 0 0 0 6.103 1.869m-32.885-10.589a21.055 21.055 0 0 1-.375 2.242c1.246.25 2.576.499 3.986.748l.499-4.485m-20.18 30.645a338.644 338.644 0 0 0 10.961-3.613 401.014 401.014 0 0 1 4.733-23.294 29.591 29.591 0 0 0-3.737-.747m3.364 53.19a54.36 54.36 0 0 0-.373 6.477 186.002 186.002 0 0 1 12.706 4.734 578.108 578.108 0 0 1 2.615-18.437c-4.152 2.575-9.093 4.941-14.823 7.101-.083 0-.125.041-.125.125.333-6.977.749-13.787 1.246-20.43a123.282 123.282 0 0 0-6.602-2.242 461.595 461.595 0 0 0-4.11 25.91 610.16 610.16 0 0 0 9.466-3.238zm2.243-31.764a272.851 272.851 0 0 0-.996 11.335c1.328.415 2.699.914 4.11 1.495a192.162 192.162 0 0 1 10.837 4.609c1.413-8.637 2.99-17.565 4.733-26.782m-25.287 11.958l4.485-1.745c.664-.166 1.37-.456 2.117-.871m-17.563 6.229a449.27 449.27 0 0 1 9.965 2.865l.996-6.478m37.994-4.983c-1.743 7.64-4.566 13.703-8.47 18.187a44.669 44.669 0 0 1-3.861 4.112 108.566 108.566 0 0 1 7.474 4.234m-12.583-6.726c-.415 2.324-.83 4.692-1.246 7.099a65.905 65.905 0 0 0 6.354-4.608 307.182 307.182 0 0 1-5.108-2.491zm-9.592-54.562c.25-1.578.499-3.197.748-4.857m-18.435-51.073c.747-4.568 1.494-9.01 2.242-13.329m36.498 137.897c-1.328 5.813-3.778 10.837-7.35 15.072 1.412.664 3.031 1.412 4.858 2.242m-14.449 5.855c2.739-1.827 5.148-3.737 7.225-5.729a32.022 32.022 0 0 0 2.366-2.367 421.667 421.667 0 0 0-7.972-3.612 188.838 188.838 0 0 0-1.619 11.708 242.86 242.86 0 0 0-1.246 10.589 376.627 376.627 0 0 1 12.082 5.107 34.757 34.757 0 0 0 1.62-5.233m-32.636-30.144c-.083.083-.125.208-.125.374 3.073.914 6.063 1.827 8.969 2.741.083 0 .167.041.25.124a916.154 916.154 0 0 0-.747 22.174c4.484-1.744 8.429-3.654 11.834-5.731m-20.181-19.682c-.332 0-.582.083-.748.249.167 0 .375.042.623.125a406.54 406.54 0 0 0-2.739 23.418c3.071.664 6.103 1.412 9.093 2.243.665-.167 1.37-.375 2.118-.623v1.37c2.491.747 4.94 1.537 7.349 2.367 1.081.416 2.159.788 3.24 1.121a415.631 415.631 0 0 0-1.745 19.058 45.812 45.812 0 0 0 5.356-3.362c3.737-2.742 6.56-6.27 8.47-10.588.25.165.582.333.998.498m-43.974-4.735a588.07 588.07 0 0 1 8.472-2.116c.166-1.83.374-3.572.623-5.233a161.52 161.52 0 0 0-9.095-1.993 175.27 175.27 0 0 0 0 9.342c0 7.973.084 16.152.25 24.539 2.077.251 4.153.623 6.229 1.122.416-8.886 1.08-18.146 1.994-27.777a144.97 144.97 0 0 1 5.729-1.621 74.254 74.254 0 0 0 3.986-1.37c.665.248 1.37.498 2.118.747-.167 8.72-.208 17.48-.125 26.283 3.405-1.246 6.395-2.491 8.969-3.737a380.073 380.073 0 0 0-.747 13.578 165.956 165.956 0 0 1 10.463 3.861 365.057 365.057 0 0 1 3.239-8.72m-55.932-63.029c-.415 3.903-.79 7.724-1.122 11.46a346.12 346.12 0 0 0 15.198-3.239c0-1.91.042-3.778.125-5.605 3.737.748 7.349 1.62 10.836 2.616a173.192 173.192 0 0 1-10.962 2.989c-.166 6.063-.25 12.25-.25 18.561a228.222 228.222 0 0 0-15.944-2.491 504.791 504.791 0 0 0-.996 14.7c5.979-.749 11.626-1.703 16.94-2.866m-29.52-38.118a403.646 403.646 0 0 0-14.824-.998 1523.37 1523.37 0 0 0-.623 18.312c5.314-.415 10.38-.955 15.197-1.619.001-5.232.084-10.464.25-15.695zm-15.447 17.315c0 2.242-.042 4.444-.124 6.602 5.23.25 10.339.541 15.321.873a166.053 166.053 0 0 1 0-9.093 192.502 192.502 0 0 0 14.823-2.242c-.332 4.235-.664 8.512-.996 12.831a332.494 332.494 0 0 0-13.827-1.495c0 5.896.042 11.835.124 17.813 2.16-.248 4.111-.499 5.855-.747a61.84 61.84 0 0 0 6.852-.871c-.333 6.56-.623 12.87-.873 18.934 6.395.664 12.416 1.576 18.063 2.739v3.241a83.899 83.899 0 0 1 6.229-1.497v-.622c.416.085.831.124 1.246.124 4.568-1.246 8.72-2.53 12.457-3.861v7.102c2.409.662 4.733 1.37 6.977 2.117.415.248.83.457 1.246.622a6.749 6.749 0 0 0-.249 1.869 347.871 347.871 0 0 0-.125 16.193c2.326-1.744 4.36-3.527 6.104-5.357 1.827-2.24 3.405-5.189 4.733-8.844.831.251 1.703.582 2.616.998-.332 6.061-.54 12.04-.623 17.938-.167.913-.25 1.952-.25 3.114v3.114c-.083 0-.083.083 0 .248-.167 10.131 0 20.056.498 29.772v1.993a476.723 476.723 0 0 0 2.99 35.127v1.121c0 .251.083.54.25.874 1.246 11.045 2.906 21.799 4.982 32.261a414.383 414.383 0 0 1-18.811 6.104c-2.989.829-5.979 1.62-8.968 2.367a328.633 328.633 0 0 1-22.547 4.982c-3.82.747-7.681 1.455-11.584 2.117a519.493 519.493 0 0 1-12.956 1.868c-1.743.166-3.529.375-5.356.623-4.982.499-10.048.997-15.197 1.496a64.7 64.7 0 0 1-3.985.372c-2.491.166-4.9.334-7.226.499a558.41 558.41 0 0 1-26.407.873l.747 2.74m37.618-180.5c0 4.649.041 9.302.124 13.953 5.481.166 10.838.458 16.07.871a508.134 508.134 0 0 1-.499-16.069c-4.484.416-9.716.829-15.695 1.245 0-6.477.083-13.121.25-19.931-3.987-.083-8.14-.165-12.457-.248.248 6.976.581 13.909.997 20.802 3.985-.248 7.722-.455 11.21-.623zm27.529 16.07a365.01 365.01 0 0 0-.124 9.343 244.501 244.501 0 0 0 18.187-3.362c.167 7.639.416 15.444.748 23.417 1.826.25 3.57.499 5.231.747a309.767 309.767 0 0 1-.124-8.844c0-5.564.124-11.17.374-16.817.249-.082.499-.206.748-.372.166 0 .332-.044.498-.126 4.318.997 8.47 2.077 12.457 3.24.167 8.054.416 16.276.748 24.663 2.657-1.246 5.024-2.532 7.1-3.861a97.72 97.72 0 0 0 0 6.976c3.904.997 7.6 2.119 11.087 3.365.25.082.54.206.873.372.165-.995.373-1.951.623-2.864m-69.388-24.914c-.665 0-1.329.039-1.993.124-3.821.499-8.554.956-14.201 1.37 0 2.243.083 4.483.249 6.727.083 2.323.207 4.693.374 7.1 5.564.085 11.044.251 16.443.499a958.157 958.157 0 0 1-.872-15.82c-.167-4.07-.291-8.141-.374-12.209 3.902.331 7.681.747 11.335 1.246m-27.404-2.117a431.5 431.5 0 0 0-10.712-.374 481.59 481.59 0 0 0 1.246 15.446c3.488-.168 6.726-.333 9.716-.498-.084-4.817-.168-9.674-.25-14.574zm.872 28.4c.332 5.729.79 11.71 1.37 17.938 5.564-.331 10.256-.747 14.077-1.246.747 0 1.411-.041 1.992-.124-.332-5.316-.664-10.673-.996-16.069 3.488.165 6.934.413 10.339.746a423.729 423.729 0 0 1-.374-18.186 429.323 429.323 0 0 1-10.837 1.62m11.211 16.566v1.497c.167 4.067.374 8.304.623 12.705 6.146-.998 12.166-2.2 18.062-3.613a305.483 305.483 0 0 1-.124-8.72 256.949 256.949 0 0 0-18.561-1.869zm.623 14.203c-3.322.413-6.644.788-9.966 1.121.582 7.224 1.205 14.491 1.869 21.8 3.405-.251 6.727-.416 9.965-.499a470.483 470.483 0 0 1-1.868-22.422zm37.869-9.842c-.581.168-1.204.457-1.868.873.664.083 1.287.207 1.868.373v-1.246zm0 1.246a68.643 68.643 0 0 1 7.1 1.868c0 6.81.25 13.787.748 20.929 2.492-1.827 4.525-3.696 6.103-5.606 1.994-2.491 3.696-6.352 5.108-11.585.165 0 .373.085.623.25m-34.132-2.12c1.08-.333 2.159-.664 3.239-.995 3.405-.997 6.519-2.033 9.343-3.114a175.178 175.178 0 0 0-12.832-2.617c.084 2.16.167 4.403.25 6.726.416 8.638 1.08 17.69 1.994 27.157h.996c.415-.085.914-.207 1.495-.375 4.152-1.245 7.93-2.656 11.335-4.235a1012.082 1012.082 0 0 1-1.37-26.283m-14.45 3.736a96.531 96.531 0 0 0-5.356 1.246c.332 8.472.747 17.067 1.246 25.787 2.159 0 4.193.039 6.104.124-.084 0-.084.083 0 .248.312-.156.623-.238.934-.248m31.701 6.976c-1.661 2.656-4.484 5.897-8.47 9.717a8.997 8.997 0 0 0-1.619 1.494 591.628 591.628 0 0 0 3.861 30.271c1.994 0 3.654-.209 4.983-.623 1.33-.914 2.45-1.829 3.364-2.741.499-.83.789-1.827.872-2.99m-34.631-42.104c5.398.165 9.799.623 13.204 1.369a164.858 164.858 0 0 1-.374-5.979c2.409-1.08 4.568-2.241 6.478-3.486.166 3.486.415 7.099.747 10.836 6.229 1.163 10.091 1.91 11.584 2.243m-16.94 17.189c2.574-1.246 4.859-2.574 6.852-3.985a268.861 268.861 0 0 1-1.495-15.447 98.516 98.516 0 0 0-6.851-1.37 908.29 908.29 0 0 0 1.494 20.802c.747 8.306 1.578 16.65 2.492 25.04.25.082.582.165.996.248 2.741.581 5.149.915 7.225.997.167.579.25 1.246.25 1.993 1.827-.913 3.405-1.786 4.733-2.616m-15.696-25.662c-3.487 1.744-7.682 3.279-12.581 4.61.914 6.229 1.869 12.663 2.865 19.308 4.983.248 9.052.623 12.208 1.122.167 2.325.374 4.649.623 6.975 2.99-1.33 5.606-2.576 7.848-3.736a693.078 693.078 0 0 0 4.859 26.407m-25.538-30.768c-2.823-.168-5.938-.25-9.343-.25.498 5.232.914 10.464 1.246 15.697a483.035 483.035 0 0 0 8.969-2.618l1.246-.623c-.831-4.15-1.536-8.22-2.118-12.206zm29.897-1.992c-.333.248-.706.579-1.122.995m-39.239-16.566c2.741-.499 5.273-1.08 7.6-1.744a686.607 686.607 0 0 1-3.114-26.534 161.674 161.674 0 0 1-5.98 1.62c.415 8.802.913 17.687 1.494 26.658.416 5.729.79 11.501 1.122 17.313-4.153-.083-8.845-.039-14.076.126.996 5.978 2.034 12.165 3.114 18.559 4.401-.995 8.47-1.992 12.207-2.987a9371.47 9371.47 0 0 1 1.993 24.539m-5.855-84.208a498.706 498.706 0 0 1-16.94 4.109 705.472 705.472 0 0 0 3.363 25.536c4.733-.912 9.716-1.868 14.948-2.863l.124-.124m-29.024-27.904c.332 2.323.623 4.731.872 7.223a373.36 373.36 0 0 0 9.716-1.868c-.25-1.992-.456-3.943-.623-5.854 6.478-.165 12.29-.248 17.439-.248 0 .747.042 1.411.124 1.992m-27.528-1.245c-4.9.248-10.089.537-15.571.871.332 2.741.664 5.605.996 8.596 3.654-.414 7.184-.915 10.588-1.494 1.495-.251 3.114-.499 4.858-.75.83 8.39 1.744 16.817 2.741 25.289a806.507 806.507 0 0 0 10.339-1.621c.665 4.652 1.37 9.47 2.118 14.452-3.322 0-6.894.039-10.714.124a1997.51 1997.51 0 0 0 2.865 20.303c3.903-.661 7.558-1.284 10.963-1.868a823.697 823.697 0 0 0 4.857 25.288m-60.041-52.07a202.105 202.105 0 0 0 1.869 10.465 582.68 582.68 0 0 1 13.329-.871c1.495-.086 2.99-.168 4.485-.251a163.238 163.238 0 0 1-2.118-11.085c-5.149.414-11.004.995-17.565 1.742a5538.905 5538.905 0 0 1-4.608-25.66c-2.409.168-4.9.289-7.474.375a749.97 749.97 0 0 0 3.861 26.035c2.824-.251 5.565-.499 8.221-.75zm39.614-4.608c-4.485.664-8.886 1.287-13.205 1.868h-1.37c.664 3.902 1.328 7.849 1.992 11.834 5.065-.248 9.841-.499 14.325-.747-.58-4.235-1.162-8.554-1.742-12.955zm-12.582 13.702c-2.491.083-4.941.165-7.349.248a1145.69 1145.69 0 0 0 4.484 22.05 236.42 236.42 0 0 1 6.478-.873 966.759 966.759 0 0 1-3.613-21.425zm-5.606-36.747l-7.972.746a795.284 795.284 0 0 0 4.111 25.164c2.657-.416 5.148-.749 7.474-.997a1405.087 1405.087 0 0 1-3.613-24.913zm27.032 81.84a1085.791 1085.791 0 0 1-4.236-25.537c-4.235.667-8.761 1.29-13.577 1.869a2515.345 2515.345 0 0 1 4.857 25.536m-11.335-24.663c1.91 8.552 3.904 16.982 5.979 25.286m52.444-9.59a631.676 631.676 0 0 1-4.983-26.534 271.047 271.047 0 0 0 10.712-4.109c.997 9.302 2.077 18.727 3.238 28.276m-73.494-102.27c-2.657.165-5.563.374-8.72.623l2.74 21.176c2.824-.165 5.606-.331 8.347-.498a839.472 839.472 0 0 1-2.367-21.301zm-32.013-85.329c5.979-.083 11.75-.25 17.314-.499a532.033 532.033 0 0 1-.373-19.931c4.65.084 9.218.291 13.702.623.25-3.902.456-7.763.623-11.584m-13.827 36.249h-10.215c-2.491 0-4.9.042-7.225.124a468.726 468.726 0 0 0 0 21.676c6.643-.334 12.789-.665 18.436-.998.165 4.318.373 8.638.623 12.956a661.513 661.513 0 0 0-12.956-.124c-1.993 0-3.986.041-5.979.124.167 5.396.456 10.505.872 15.322 0 .414.042.788.125 1.119 7.059-.248 13.453-.579 19.184-.995.332 4.484.706 8.927 1.121 13.328 3.073-.083 6.146-.083 9.218 0m-.623-68.885c-4.069.332-8.305.664-12.707.996 0 1.662.042 3.448.125 5.357m-25.287-4.734l.25 4.982c2.408-.083 4.941-.124 7.599-.124v-4.982m-8.472-20.554c-8.802.165-17.19.582-25.162 1.246 0 6.229.166 12.581.498 19.059 4.069.167 8.305.291 12.706.374h12.581m1.246 26.781c.25 3.904.499 7.849.748 11.834 1.91-.083 3.902-.124 5.979-.124a562.511 562.511 0 0 1-.124-11.958h-.375l-6.228.248a935.429 935.429 0 0 1-.996-21.8c-8.885.333-17.314.914-25.287 1.745.332 6.394.747 12.956 1.246 19.683 8.636.413 16.983.54 25.037.372zM234.23 191.08c-2.823.166-5.605.374-8.346.623.332 5.979.623 11.917.872 17.813 2.657.25 5.315.458 7.972.623 0 2.326.083 4.692.25 7.101-2.658.166-5.191.415-7.598.747.415 6.146.871 12.292 1.37 18.437 2.491.165 4.982.333 7.474.499a377.13 377.13 0 0 0 1.246 13.327c7.806-.581 15.986-.953 24.54-1.121.332 5.563.706 11.087 1.121 16.568 1.994-.085 3.945-.168 5.855-.251.249 3.902.623 8.18 1.121 12.832a520.928 520.928 0 0 1 16.318-.499h2.865c.582 6.146 1.204 12.333 1.869 18.562-5.563.248-11.75.54-18.56.87a955.703 955.703 0 0 0 3.238 21.8c4.318-.331 8.802-.662 13.453-.995 1.662-.168 3.198-.333 4.609-.499.416 2.99.873 5.937 1.371 8.844-5.73.582-11.751.998-18.062 1.246a371.94 371.94 0 0 0-1.371-8.596c-2.409.165-4.775.375-7.101.623.25 2.824.582 5.605.998 8.348-2.159.082-4.277.165-6.354.248-5.065.25-10.089.333-15.072.25 1.743 9.801 3.529 18.934 5.356 27.405a71.881 71.881 0 0 1 4.36-.375 729.097 729.097 0 0 1 15.571-1.493l1.745 10.213c2.739-.165 5.521-.33 8.345-.498a1122.239 1122.239 0 0 0 4.111 22.422 504.675 504.675 0 0 0 18.187-1.494M192.375 196.561c.25 2.74.499 5.564.748 8.47 2.739.498 5.605.997 8.595 1.495a189.12 189.12 0 0 1-.623-11.586c7.806-1.328 16.07-2.407 24.79-3.238a761.032 761.032 0 0 1-.374-13.453m-21.8 55.683l-.998-12.209a570.838 570.838 0 0 0-7.722 1.745c.332 3.156.706 6.311 1.12 9.466 2.493.334 5.025.664 7.6.998a467.321 467.321 0 0 0 25.038 2.491c.332 4.897.747 9.759 1.246 14.573l7.474-.747c.415 5.231.955 10.465 1.619 15.695 8.222.251 16.235.168 24.042-.248.416 4.401.79 8.679 1.122 12.829 1.91-.083 3.861-.166 5.854-.248a778.35 778.35 0 0 0 2.492 18.933l-6.602.251c.83 7.389 1.743 14.78 2.74 22.172-7.722.584-14.948 1.163-21.674 1.744a97.476 97.476 0 0 1 1.246 7.102c-2.658 0-5.399-.082-8.223-.25a1073.624 1073.624 0 0 0 5.605 28.278c2.576-.251 5.232-.458 7.973-.623a587.782 587.782 0 0 0 1.993 9.343c6.146-.416 12.706-.75 19.683-.998a514.246 514.246 0 0 0 4.484 22.547 116.21 116.21 0 0 1 5.729-.372 82.794 82.794 0 0 0 2.243-.251c1.578 7.89 3.238 16.444 4.983 25.66m-65.399-193.827c-.25-2.824-.458-5.647-.623-8.471-8.72-.582-17.066-1.578-25.039-2.989.167 5.065.499 10.131.996 15.196 7.725-1.493 15.947-2.739 24.666-3.736zm11.709 47.958a7113.96 7113.96 0 0 0-7.598-.248 355.132 355.132 0 0 0 1.869 15.819c2.408-.416 4.9-.747 7.474-.995a526.822 526.822 0 0 1-1.745-14.576zm-9.093-14.948c-8.388.747-16.318 1.827-23.792 3.238.415 3.075.871 6.272 1.37 9.594a348.02 348.02 0 0 0 23.917 1.868c-.582-4.9-1.08-9.8-1.495-14.7zm-19.059 34.132a749.508 749.508 0 0 1-3.364-21.3 232.096 232.096 0 0 1-7.474-.874 877.24 877.24 0 0 0 3.861 23.668c2.326-.496 4.651-.995 6.977-1.494 7.058-1.493 14.532-2.7 22.422-3.612a348.233 348.233 0 0 0 2.118 15.945c2.574 0 5.189.041 7.848.124a339.536 339.536 0 0 1-2.492-17.064 473.067 473.067 0 0 1 23.419-1.995c.581 6.394 1.163 12.707 1.744 18.936h-1.62c-7.058.165-14.076.207-21.051.124l.996 6.477c.997 5.98 1.91 11.751 2.741 17.315-2.741.168-5.398.333-7.973.499.332 2.16.664 4.277.996 6.353a570.391 570.391 0 0 1-20.678-1.122c2.325 10.798 4.733 20.805 7.225 30.023a529.255 529.255 0 0 0 19.059-.623c.499 3.07 1.122 6.185 1.869 9.343 2.658-.166 5.357-.375 8.097-.623 1.911 8.304 3.779 15.86 5.605 22.67 5.813-.331 12-.705 18.561-1.121a452.602 452.602 0 0 0 5.729 25.536m-79.348-158.079c-2.409.333-4.817.749-7.226 1.246a235.24 235.24 0 0 0 1.122 7.474c-4.236-.579-8.471-1.163-12.707-1.742a283.01 283.01 0 0 0-6.726-1.121c-.499.165-.913.289-1.246.372 1.494 9.387 3.28 19.975 5.356 31.765a245.84 245.84 0 0 1 3.861-1.245 212.231 212.231 0 0 1 15.322-4.36 320.637 320.637 0 0 0 1.621 8.72c2.491.251 4.94.499 7.349.749a311.136 311.136 0 0 1-1.993-10.963m1.993 10.962c.499 2.409.996 4.856 1.495 7.348a846.669 846.669 0 0 0 4.11 20.058 833.875 833.875 0 0 1 20.554-1.62 748.03 748.03 0 0 1-3.612-24.415 400.8 400.8 0 0 1-22.547-1.371zm-9.218-62.159a497.844 497.844 0 0 0 2.491 20.303m-11.21-30.768a460.605 460.605 0 0 1-1.869-18.436 186.09 186.09 0 0 1-17.191-4.485c-1.494.499-2.947.956-4.36 1.371a529.071 529.071 0 0 0 2.367 22.546c.167 1.413.374 2.95.623 4.609.25 0 .456.083.623.249a11.103 11.103 0 0 1 1.993-.871c5.648-1.827 11.585-3.488 17.814-4.983zm-2.617-26.906a217.009 217.009 0 0 0-16.443 3.985 343.38 343.38 0 0 0-4.857-1.494c.166.913.332 1.869.498 2.865-.664.166-1.246.332-1.743.498a53.78 53.78 0 0 1-4.36 1.495 691.178 691.178 0 0 0 2.865 23.793c2.077.499 4.152.956 6.229 1.369 0 .166.042.292.124.375.167-.083.332-.126.499-.126 3.82.749 7.973 1.454 12.457 2.119 2.741.498 5.564.995 8.47 1.493a730.635 730.635 0 0 0 2.865 22.547c-6.394 1.328-12.498 2.865-18.311 4.61a14.849 14.849 0 0 1-1.371-.251c0 .251.042.458.125.623-1.08.251-2.118.584-3.114.997a18.1 18.1 0 0 0-2.741.998 878.381 878.381 0 0 0 5.232 28.898c1.826.331 3.737.664 5.729.998.083-.003.167-.044.25-.127-.081.083-.081.165 0 .251 2.409.416 4.941.788 7.598 1.121 4.318.579 8.72 1.163 13.205 1.742a924.055 924.055 0 0 0 5.729 28.777c2.325-.251 4.733-.458 7.225-.623a17.76 17.76 0 0 0 .872 3.61 218.882 218.882 0 0 0-7.598-.623 1745.217 1745.217 0 0 0 7.1 30.52c2.575.083 5.149.127 7.723.127a203.231 203.231 0 0 0 2.617 9.715c5.647-.334 11.75-.665 18.311-.995a489.815 489.815 0 0 0 5.232 22.422 350.63 350.63 0 0 0 8.47-.375c2.741 9.384 5.481 17.315 8.222 23.792M165.469 203.91c-7.142 2.492-13.329 5.149-18.561 7.973.416 3.238.79 6.478 1.122 9.716 5.397 2.159 12.166 4.194 20.304 6.104l.499 3.737c1.91-.665 3.861-1.331 5.854-1.993.998 8.221 2.534 18.352 4.609 30.393a273.159 273.159 0 0 0-6.478-1.119c.25 1.163.499 2.409.748 3.737-6.977 2.24-13.038 4.649-18.188 7.224a269.976 269.976 0 0 0 2.866 15.821c5.647 2.158 12.498 4.109 20.554 5.854.166.832.374 1.786.623 2.866a224.993 224.993 0 0 0 5.107-1.868c.083 0 .167.041.25.124.166.912.332 1.909.498 2.99 1.744 9.965 3.613 19.391 5.605 28.275.748.166 1.536.292 2.367.375 2.077.248 4.11.54 6.104.871h.374a394.74 394.74 0 0 1 11.584-.871c.167.747.332 1.535.499 2.364-4.069-.496-8.222-.995-12.457-1.493-2.824.248-5.481.498-7.973.747 2.409 10.712 5.065 20.678 7.973 29.896h1.12c5.813.664 11.959 1.122 18.436 1.37a485.348 485.348 0 0 0 2.866 10.464c2.325-.248 4.816-.455 7.474-.622 2.325 8.138 4.651 15.529 6.976 22.174a708.828 708.828 0 0 0 16.567-.747 681.556 681.556 0 0 0 6.354 24.913h-12.956a923.762 923.762 0 0 1-21.177-.749c-4.151-.248-8.221-.496-12.207-.747h-.374c-2.243-.248-4.485-.499-6.727-.747a269.708 269.708 0 0 1-16.07-1.744c-5.647-9.053-10.92-18.975-15.819-29.772a2.776 2.776 0 0 0-.375-.871 84.77 84.77 0 0 1-2.117-4.858c3.321-1.078 7.765-2.034 13.328-2.863a357.68 357.68 0 0 1-7.972-19.931c-8.222-2.574-14.118-5.856-17.688-9.842m12.083-142.009a144.046 144.046 0 0 1-6.354-2.367c.167 2.491.416 4.9.748 7.225m-14.947 35.751a680.02 680.02 0 0 0 2.118 13.826c5.397 1.91 12.125 3.654 20.179 5.233a1274.276 1274.276 0 0 1-3.985-27.28c-7.06 2.657-13.164 5.399-18.312 8.221a3078.357 3078.357 0 0 1-2.491-18.063c-3.82-1.495-6.934-3.155-9.343-4.982a85.966 85.966 0 0 1-5.73 3.737m-1.247-9.592c1.827 1.994 4.153 3.945 6.977 5.855 2.409-1.578 5.148-3.156 8.221-4.733-.83-7.889-1.661-15.986-2.491-24.291a9.67 9.67 0 0 1-1.246-.499c-5.315 3.155-9.675 6.602-13.08 10.339m14.326-9.84a6.345 6.345 0 0 1-.125-1.246c-.416.083-.789.332-1.121.747-5.398-3.073-10.463-6.311-15.198-9.716m8.346 66.021c1.163 1.08 2.367 2.199 3.613 3.362 2.906-2.409 6.435-4.773 10.588-7.1m-8.844 34.505a7.76 7.76 0 0 0 1.994 2.367c3.321-2.323 7.225-4.607 11.708-6.851a234.27 234.27 0 0 1-2.739-16.194c-5.98-1.992-10.215-4.235-12.706-6.727-.831.749-1.745 1.579-2.741 2.491m12.083 58.548c.25.749.706 1.496 1.37 2.243 2.908-2.739 6.645-5.357 11.211-7.849a334.627 334.627 0 0 1-.997-4.36 393.376 393.376 0 0 1-2.615-12.33c-6.81-2.657-11.668-5.649-14.575-8.971-.582.251-.997.582-1.246.998m36.997 16.693c-6.81 2.491-12.665 5.148-17.564 7.971a225.42 225.42 0 0 0 4.36 16.32c5.232 1.576 11.751 3.031 19.557 4.359a1032.022 1032.022 0 0 1-6.353-28.65zm-14.699-97.538c-7.142-2.574-13.909-5.605-20.304-9.093m41.356 135.281c1.661.414 3.364.706 5.107.871.167.582.332 1.246.499 1.993a61.276 61.276 0 0 0-4.733.622 623.501 623.501 0 0 0 7.349 28.527c1.744.248 3.53.498 5.357.746.664 1.91 1.287 3.778 1.868 5.605a716.277 716.277 0 0 0 2.74 7.351c1.413-.083 2.866-.166 4.36-.248 4.153-.334 8.637-.623 13.454-.874a699.077 699.077 0 0 0 5.854 21.676c2.741 0 5.605-.042 8.596-.124 3.238 9.301 6.561 17.354 9.965 24.166m-60.416-90.311c.25 1.08.54 2.241.873 3.486-6.645.83-12.416 1.91-17.315 3.238a320.74 320.74 0 0 0 7.35 21.304c4.9 1.576 10.671 2.904 17.314 3.985 1.412 4.816 2.823 9.59 4.236 14.325a92.658 92.658 0 0 1 5.729-.623 229.843 229.843 0 0 0 8.596 20.678c4.568 0 9.592-.042 15.072-.124a2155.873 2155.873 0 0 0 6.354 21.923m-77.109-76.234c3.24-2.075 7.392-3.822 12.457-5.233a432.828 432.828 0 0 1-3.114-11.084c-8.056-2.491-13.245-5.316-15.571-8.472m23.17 69.383a17.72 17.72 0 0 0 2.616 1.745c4.401 2.741 9.716 4.775 15.944 6.104a296.815 296.815 0 0 1-7.724-16.441c3.904-.667 8.429-1.207 13.579-1.62a450.6 450.6 0 0 0 6.228 19.683c1.91.082 3.945.165 6.104.248.58 0 1.246.041 1.993.124a220.63 220.63 0 0 0 12.457 23.169m-12.581-.749a390.079 390.079 0 0 1-7.973-22.794c-4.401-.334-8.429-.874-12.083-1.621a357.612 357.612 0 0 0 13.329 23.668m-34.63-211.889a932.727 932.727 0 0 1-1.744-24.042m-6.478 2.367a1186.52 1186.52 0 0 0 1.869 19.308m69.509-5.605c0-4.152.042-8.18.124-12.083"/><g><path fill="none" stroke="#333" stroke-linecap="round" stroke-linejoin="round" d="M261.013 44.712c-11.543.083-22.63.664-33.26 1.744-12.375 1.246-24.042 3.156-35.004 5.73a6.536 6.536 0 0 0-1.494.374m100.774-6.976c-8.553-.582-17.398-.872-26.533-.872h-4.484m140.886 23.419c-3.987-3.488-8.887-6.768-14.699-9.84l-.25-.125a1.957 1.957 0 0 0-.499-.374c-4.982-2.741-10.671-5.273-17.064-7.598a297.364 297.364 0 0 0-11.336-3.862c-26.242-8.47-57.093-12.706-92.554-12.706h-4.236c-26.159.249-49.827 2.866-71.004 7.849-10.38 2.325-20.096 5.231-29.148 8.72-2.159.83-4.194 1.661-6.104 2.491h.125c-10.963 4.649-19.516 9.675-25.662 15.072-9.549 8.138-14.243 17.066-14.076 26.782 0 1.827.124 3.529.374 5.107v.125a45.167 45.167 0 0 0 1.246 4.484c1.081 3.654 3.073 7.225 5.979 10.714 1.578 1.827 3.405 3.653 5.481 5.48.25.332.582.623.997.872.664.665 1.412 1.081 2.242 1.246.416.914 1.081 1.66 1.994 2.242.747.499 1.66 1.122 2.741 1.869a58.739 58.739 0 0 1 3.362 2.242 36.85 36.85 0 0 1 3.114 1.62c1.33.747 2.782 1.535 4.36 2.366 3.157 1.578 6.603 3.114 10.34 4.609 0 .083.083.166.248.25.666.25 1.371.498 2.118.747.332.084.623.208.872.374.167.084.332.167.499.249 1.246.333 2.491.749 3.737 1.246h.248c.582.249 1.246.499 1.994.748a674.185 674.185 0 0 0 9.716 3.238c3.405.914 6.893 1.869 10.464 2.865.166 0 .374.042.623.125h.498a7 7 0 0 1 1.246.374c3.903.831 7.847 1.661 11.834 2.492h.125c.166 0 .332.041.498.124 6.977 1.246 14.325 2.283 22.049 3.114h.124c.167 0 .291.041.375.125 3.405.248 6.934.498 10.588.747 7.474.664 15.239 1.038 23.293 1.122h11.087c5.065-.084 10.089-.25 15.072-.499h.499a845.26 845.26 0 0 0 15.198-.873c.249-.083.54-.124.872-.124h.124a579.918 579.918 0 0 0 13.204-1.619h1.246a533.45 533.45 0 0 0 18.438-3.239c.58-.166 1.203-.333 1.868-.498h.248a257.618 257.618 0 0 1 8.596-2.118 23.37 23.37 0 0 0 1.745-.374 4.24 4.24 0 0 0 1.494-.748c.582.084 1.246.042 1.994-.124a501.157 501.157 0 0 0 10.463-3.114 224.97 224.97 0 0 1 4.112-1.495 34.203 34.203 0 0 0 3.114-1.122 4.81 4.81 0 0 0 .996-.374c.332-.249.623-.498.872-.747a5.64 5.64 0 0 0 1.993-.374c5.315-2.243 10.215-4.485 14.699-6.727a85.184 85.184 0 0 0 3.737-2.118c5.065-3.073 9.384-6.229 12.956-9.467 5.065-4.65 8.512-9.55 10.339-14.699.167-.416.249-.789.249-1.122a32.605 32.605 0 0 0 1.37-9.342c.329-9.633-4.155-18.435-13.457-26.408zM292.029 45.584c12.042.831 23.461 2.242 34.256 4.235 10.048 1.827 19.558 4.194 28.527 7.101.166 0 .374.084.623.249 3.488.997 6.852 2.118 10.09 3.364 5.813 2.242 11.045 4.568 15.696 6.975.083.084.165.125.248.125.167.166.332.29.499.374.083.083.208.166.374.25 14.284 7.722 21.593 16.483 21.925 26.283 0 .747-.042 1.454-.125 2.118a29.599 29.599 0 0 1-.374 2.865c-.415.499-.664 1.205-.747 2.118-1.495 3.57-4.028 7.017-7.6 10.339-3.654 3.322-8.304 6.478-13.952 9.467a112.111 112.111 0 0 1-4.484 2.243c-1.91.912-3.945 1.827-6.104 2.739l-2.989 1.246a4.86 4.86 0 0 0-1.745 1.122c-.664 0-1.287.125-1.869.374a246.352 246.352 0 0 1-16.816 5.356 7.002 7.002 0 0 0-1.37.623h-.125a4.146 4.146 0 0 0-1.743.125 388.421 388.421 0 0 1-9.468 2.366c-.248.084-.498.167-.747.249l.124-.124a385.647 385.647 0 0 1-18.436 3.364c-.498.083-.914.166-1.246.248a918.66 918.66 0 0 0-14.076 1.621l.124-.125a463.92 463.92 0 0 1-15.196.996h-.499c-6.396.333-12.831.499-19.308.499h-6.727a322.564 322.564 0 0 1-22.422-.997c-3.737-.332-7.39-.664-10.962-.996l.25.124c-.332-.083-.582-.124-.747-.124-7.391-.831-14.409-1.827-21.052-2.99h.124a1.388 1.388 0 0 0-.623-.124 2953.9 2953.9 0 0 1-12.332-2.741 1.1 1.1 0 0 0-.499-.125h-.748a336.413 336.413 0 0 1-20.679-6.228l-.124-.124c-1.246-.499-2.45-.955-3.613-1.37a26.899 26.899 0 0 0-3.861-1.371h.249l-2.242-.997a49.34 49.34 0 0 1-2.741-.996 111.405 111.405 0 0 0-4.485-2.242c-3.653-1.827-6.851-3.696-9.591-5.605l-.125-.125a270.955 270.955 0 0 0-2.865-1.743 9.13 9.13 0 0 0-1.619-.748c-.167-.332-.291-.539-.374-.623a8.225 8.225 0 0 0-.998-1.246 7.252 7.252 0 0 1-.747-.623c-4.236-3.737-7.018-7.598-8.346-11.584l-.124-.125a13.933 13.933 0 0 1-.872-2.866l.124.125c-.166-1.08-.248-2.2-.248-3.363.083-5.481 2.407-10.588 6.975-15.322a18.703 18.703 0 0 1 3.238-2.99c5.149-4.484 12.083-8.636 20.803-12.457a11.052 11.052 0 0 1 1.994-.872 62.798 62.798 0 0 1 5.729-2.366h-.124c8.221-3.156 16.941-5.813 26.159-7.973"/></g></svg>