<svg xmlns="http://www.w3.org/2000/svg" width="900" height="450" viewBox="0 0 900 450"><path fill="#B83B35" d="M324.633 236.942c-3.389 1.717-2.848 1.513 1.624-.607l12.173-6.087a74.385 74.385 0 0 1-3.753 1.724c-.677.272-4.025 1.927-10.044 4.97m172.445-92.003l38.142 16.027 2.029-1.42c24.276-15.959 42.704-37.16 55.283-63.602 7.845-16.635 4.869-28.098-8.926-34.387-18.328-8.183-29.453-3.416-33.375 14.302.88 4.126 3.821 4.701 8.826 1.725 5.207-1.825 9.298-2.603 12.273-2.333 2.976.271 4.328.845 4.058 1.725-.271.879-.44 1.353-.507 1.419-18.733 30.837-44.666 53.018-77.803 66.544z"/><path fill="#CD534B" d="M650.048 161.777c4.867-10.82 21.944-21.403 51.227-31.75 29.348-10.347 42.876-18.699 40.575-25.055-42.47-5.275-79.358 8.521-110.67 41.386-27.118 28.403-57.413 34.252-90.888 17.549a193.142 193.142 0 0 1-5.072-2.941l-38.142-16.027a117.741 117.741 0 0 1-3.245-5.478c-8.318-15.419-10.179-30.804-5.579-46.154 4.937-5.883 7.945-12.038 9.027-18.462 5.884-34.286-5.409-44.87-33.88-31.75a81.33 81.33 0 0 0-.305 4.058c-.541 10.685 1.928 20.66 7.405 29.924-5.478-9.264-7.946-19.239-7.405-29.924.067-1.353.169-2.706.305-4.058-21.235-25.766-48.454-38.75-81.658-38.953-13.661-.067-24.955 4.701-33.881 14.303-36.855 39.088-34.252 76.553 7.811 112.394 7.505 6.357 15.891 11.226 25.156 14.607 2.299.812 7.507 1.522 15.622 2.13-6.138 5.224-20.034 5.596-41.692 1.115-21.578-4.469-49.304-19.144-83.179-44.023-20.693-15.284-30.296-33.271-28.808-53.965.134-2.502.845-4.396 2.129-5.681 1.218-1.353 3.009-2.13 5.376-2.333a21.136 21.136 0 0 1 2.536 2.333 15.155 15.155 0 0 1 1.725 2.84l.811 1.826.609 2.029a28.56 28.56 0 0 0 1.115 2.536c.338.811.778 1.588 1.318 2.333a11.9 11.9 0 0 0 1.624 2.029 45.636 45.636 0 0 0 2.029 1.725c6.965-11.293 5.309-20.423-4.971-27.389-3.246-2.096-7.236-2.839-11.969-2.231-5.411.744-9.941 4.328-13.593 10.753-3.517 6.289-5.443 13.896-5.782 22.824-.338 9.603 1.251 18.867 4.768 27.794 3.99 10.009 10.076 18.428 18.259 25.258 28.605 23.872 58.902 45.614 90.889 65.225l1.521 2.739 24.346-13.897-24.346 13.897-.305.204c-29.078 26.306-65.461 37.227-109.147 32.764-16.23-1.691-30.668-5.309-43.314-10.854-11.766-5.207-18.191-10.278-19.273-15.215-1.893-8.386-5.173-14.878-9.839-19.477-4.192-4.058-8.216-5.613-12.071-4.666-3.922 1.014-5.952 4.294-6.086 9.84-.204 6.356 2.434 14.302 7.912 23.838 8.047 13.999 16.297 23.804 24.751 29.417 7.979 5.343 21.032 9.939 39.155 13.795 18.8 3.99 35.774 5.78 50.922 5.377 15.35-.476 40.744-7.406 76.18-20.795-.523.258-1.064.493-1.623.709l-12.173 6.087c-24.268 12.205-42.899 22.316-55.893 30.33-8.859 5.479-23.195 14.336-43.009 26.576-10.55 6.29-23.872 10.887-39.967 13.796-12.308 2.231-23.838 3.177-34.59 2.84-.067 0 0-.336.203-1.014.202-.474.405-.914.608-1.32.338-.538.677-1.046 1.015-1.521a21.015 21.015 0 0 1 2.637-2.23 12.693 12.693 0 0 1 1.624-1.217 613.972 613.972 0 0 1 6.391-3.348c.338-.541.608-1.049.811-1.521a4.591 4.591 0 0 0 .304-1.623c0-.54-.101-1.048-.304-1.521a5.085 5.085 0 0 0-.912-1.521 16.295 16.295 0 0 0-1.521-1.521 19.386 19.386 0 0 0-1.928-1.32c-5.68.272-10.752 2.029-15.215 5.276-6.086 4.666-9.874 10.819-11.361 18.462-1.015 5.139-.44 10.109 1.725 14.91 13.051 8.726 27.151 11.157 42.3 7.305 45.845-11.15 82.939-23.052 111.278-35.708 28.415-12.601 54.044-19.465 76.89-20.591 22.841-1.119 36.94 14.065 42.3 45.547l2.941-2.841c1.961-16.366.812-32.427-3.448-48.184 4.26 15.757 5.41 31.817 3.448 48.184a153.68 153.68 0 0 1-.71 5.478c-10.481 16.637-28.301 29.653-53.458 39.054-24.143 8.993-42.74 10.551-55.791 4.666-9.536-4.327-17.751-14.101-24.65-29.316-3.516-7.91-5.613-12.408-6.289-13.49-2.097-3.449-4.294-4.699-6.593-3.754v-.102c-6.763 8.995-8.184 20.187-4.261 33.576 4.328 14.944 14.167 26.139 29.518 33.575 54.777 26.579 103.434 17.887 145.97-26.068 10.415-10.617 18.427-22.653 24.042-36.112a226.53 226.53 0 0 0 1.724-4.971c4.396-13.321 6.188-27.016 5.376-41.082.813 14.066-.979 27.761-5.376 41.082a223.148 223.148 0 0 1-1.724 4.971c9.399-16.703 21.673-19.85 36.822-9.434l.71-.508a105.354 105.354 0 0 1-3.449-4.867c-1.488-2.029-4.7-5.411-9.637-10.145-3.72-3.519-6.324-7.167-7.811-10.956 1.486 3.789 4.091 7.438 7.811 10.956 4.937 4.733 8.148 8.115 9.637 10.145a105.354 105.354 0 0 0 3.449 4.867c.676.88 1.353 1.793 2.028 2.74 39.696 16.026 61.641 45.073 65.833 87.134 1.556 15.283 8.454 27.119 20.693 35.504 17.245-17.38 21.404-37.362 12.478-59.95-13.323-33.542-34.152-61.642-62.486-84.295-.817-1.345-1.934-3.51-3.349-6.492-1.401-2.998-2.551-9.456-3.447-19.374-.835-9.845 1.092-19.65 5.782-29.418-4.69 9.768-6.617 19.573-5.782 29.418.896 9.918 2.046 16.376 3.447 19.374 1.415 2.982 2.531 5.147 3.349 6.492 15.336-20.546 43.063-16.86 83.18 11.058 17.988 10.752 41.014 13.966 69.08 9.637 26.847-4.127 48.622-13.324 65.326-27.593 7.033-6.019 14.47-12.849 22.316-20.489.81-6.899-2.063-9.096-8.622-6.594-11.632 9.535-28.81 17.514-51.531 23.939-23.262 6.559-41.826 8.42-55.69 5.579-15.282-3.246-28.909-10.008-40.879-20.289-17.65-13.996-31.107-32.12-40.373-54.37a512.106 512.106 0 0 0-4.869-6.39c-6.763-8.589-14.336-16.264-22.722-23.027 8.386 6.763 15.959 14.438 22.722 23.027a519.603 519.603 0 0 1 4.869 6.39c31.648-5.821 55.249-25.939 70.803-60.361M401.625 47.862c2.232-1.218 4.396-1.961 6.493-2.231 24.886 1.352 38.917 14.539 42.097 39.561-3.179-25.022-17.211-38.209-42.097-39.561-2.097.27-4.261 1.014-6.493 2.231-1.826 1.015-3.517 3.517-5.072 7.506-2.096 5.545-2.705 11.97-1.825 19.273 1.014 8.521 4.835 14.945 11.462 19.273 7.101 4.531 18.226 7.203 33.374 8.014-15.148-.811-26.272-3.483-33.374-8.014-6.626-4.328-10.448-10.752-11.462-19.273-.88-7.303-.271-13.728 1.825-19.273 1.555-3.989 3.246-6.491 5.072-7.506m23.534 39.054c-1.555 1.758-2.875 2.468-3.956 2.13-9.333-2.84-14.1-9.299-14.303-19.374 10.817-.867 16.903 4.88 18.259 17.244z"/><path d="M421.203 89.046c1.082.338 2.401-.372 3.956-2.13-1.356-12.364-7.442-18.111-18.259-17.244.203 10.075 4.97 16.534 14.303 19.374z"/><path fill="none" stroke="#460D0D" stroke-width="2" stroke-linecap="round" stroke-linejoin="round" d="M579.243 222.133c31.649-5.816 55.251-25.934 70.805-60.356 4.867-10.82 21.944-21.403 51.227-31.75 29.348-10.347 42.876-18.699 40.575-25.055-42.47-5.275-79.358 8.521-110.67 41.386-27.118 28.403-57.413 34.252-90.888 17.549a193.142 193.142 0 0 1-5.072-2.941l-38.142-16.027a117.741 117.741 0 0 1-3.245-5.478c-8.318-15.419-10.179-30.804-5.579-46.154 4.937-5.883 7.945-12.038 9.027-18.462 5.884-34.286-5.409-44.87-33.88-31.75a81.33 81.33 0 0 0-.305 4.058c-.541 10.685 1.928 20.66 7.405 29.924m64.719 83.889l2.029-1.42c24.276-15.959 42.704-37.16 55.283-63.602 7.845-16.635 4.869-28.098-8.926-34.387-18.328-8.183-29.453-3.416-33.375 14.302.88 4.126 3.821 4.701 8.826 1.725 5.207-1.825 9.298-2.603 12.273-2.333 2.976.271 4.328.845 4.058 1.725-.271.879-.44 1.353-.507 1.419-18.733 30.838-44.667 53.019-77.804 66.544m82.166 77.194c9.266 22.25 22.723 40.374 40.373 54.37 11.97 10.281 25.597 17.043 40.879 20.289 13.864 2.841 32.429.979 55.69-5.579 22.722-6.426 39.899-14.404 51.531-23.939 6.56-2.502 9.432-.306 8.622 6.594-7.847 7.641-15.283 14.471-22.316 20.489-16.704 14.269-38.479 23.466-65.326 27.593-28.066 4.329-51.092 1.115-69.08-9.637-40.116-27.918-67.844-31.604-83.18-11.058 28.334 22.653 49.163 50.753 62.486 84.295 8.927 22.588 4.768 42.57-12.478 59.95-12.239-8.385-19.138-20.221-20.693-35.504-4.192-42.061-26.137-71.107-65.833-87.134a94.473 94.473 0 0 0-2.738-2.232c-15.149-10.416-27.423-7.27-36.822 9.434-5.614 13.459-13.627 25.495-24.042 36.112-42.537 43.955-91.193 52.647-145.97 26.068-15.35-7.437-25.19-18.631-29.518-33.575-3.923-13.39-2.502-24.581 4.261-33.576v.102c2.299-.945 4.496.305 6.593 3.754.675 1.082 2.772 5.58 6.289 13.49 6.898 15.216 15.114 24.989 24.65 29.316 13.051 5.885 31.648 4.327 55.791-4.666 25.157-9.4 42.976-22.417 53.458-39.054a6157.46 6157.46 0 0 1-2.231-2.637c-5.36-31.481-19.459-46.666-42.3-45.547-22.846 1.126-48.458 8.007-76.839 20.643-28.373 12.62-65.483 24.506-111.329 35.656-15.148 3.853-29.249 1.421-42.3-7.305-2.165-4.801-2.739-9.771-1.725-14.91 1.488-7.643 5.275-13.796 11.361-18.462 4.463-3.247 9.536-5.004 15.215-5.276.677.406 1.318.847 1.928 1.32.541.474 1.048.98 1.521 1.521.405.474.709.981.912 1.521.203.474.304.981.304 1.521 0 .541-.101 1.082-.304 1.623-.203.473-.473.98-.811 1.521a604.941 604.941 0 0 0-6.391 3.348c-.541.338-1.082.743-1.624 1.217a21.186 21.186 0 0 0-2.637 2.23c-.338.476-.677.983-1.015 1.521a24.31 24.31 0 0 0-.608 1.32c-.203.678-.27 1.014-.203 1.014 10.752.337 22.283-.608 34.59-2.84 16.095-2.909 29.417-7.506 39.967-13.796 19.814-12.24 34.15-21.098 43.009-26.576 12.994-8.014 31.625-18.125 55.893-30.33m13.799-6.793c-35.436 13.389-60.83 20.319-76.18 20.795-15.148.403-32.123-1.387-50.922-5.377-18.123-3.855-31.176-8.452-39.155-13.795-8.454-5.613-16.704-15.419-24.751-29.417-5.479-9.536-8.116-17.481-7.912-23.838.134-5.546 2.164-8.826 6.086-9.84 3.854-.947 7.878.608 12.071 4.666 4.667 4.599 7.947 11.091 9.839 19.477 1.082 4.937 7.507 10.009 19.273 15.215 12.646 5.545 27.084 9.164 43.314 10.854 43.686 4.462 80.069-6.458 109.147-32.764l.305-.204m-1.521-2.739c-31.987-19.611-62.284-41.353-90.889-65.225-8.183-6.83-14.269-15.25-18.259-25.258-3.517-8.927-5.106-18.191-4.768-27.794.339-8.927 2.266-16.535 5.782-22.824 3.652-6.425 8.183-10.009 13.593-10.753 4.733-.608 8.723.136 11.969 2.231 10.28 6.966 11.936 16.096 4.971 27.389a44.524 44.524 0 0 1-2.029-1.725 11.9 11.9 0 0 1-1.624-2.029 11.424 11.424 0 0 1-1.318-2.333 28.56 28.56 0 0 1-1.115-2.536l-.609-2.029-.811-1.826a15.123 15.123 0 0 0-1.725-2.84 21.136 21.136 0 0 0-2.536-2.333c-2.367.203-4.158.981-5.376 2.333-1.285 1.285-1.995 3.178-2.129 5.681-1.488 20.694 8.115 38.681 28.808 53.965 33.875 24.88 61.618 39.555 83.229 44.023 21.625 4.48 35.504 4.108 41.642-1.115-8.115-.608-13.323-1.318-15.622-2.13-9.265-3.381-17.651-8.25-25.156-14.607-42.063-35.841-44.667-73.306-7.811-112.394 8.926-9.603 20.22-14.371 33.881-14.303 33.204.203 60.423 13.188 81.658 38.953m36.517 279.769a99.17 99.17 0 0 0-2.028-2.74m-58.328-218.193c-15.148-.811-26.272-3.483-33.374-8.014-6.626-4.328-10.448-10.752-11.462-19.273-.88-7.303-.271-13.728 1.825-19.273 1.556-3.989 3.247-6.491 5.072-7.506 2.232-1.218 4.396-1.961 6.493-2.231 24.886 1.352 38.917 14.539 42.097 39.561m-25.055 1.723c-1.356-12.364-7.442-18.111-18.259-17.244.203 10.075 4.97 16.534 14.303 19.374 1.081.338 2.401-.372 3.956-2.13zM338.479 230.3l-12.223 6.035m85.614 91.7c.27-1.827.507-3.651.71-5.478"/><g><path fill="none" stroke="#871818" stroke-width="2" stroke-linecap="round" stroke-linejoin="round" d="M340.052 229.539c-.523.258-1.047.511-1.572.761"/></g><g><path fill="none" stroke="#771515" stroke-width="2" stroke-linecap="round" stroke-linejoin="round" d="M551.652 192.716c8.386 6.763 15.959 14.438 22.722 23.027a519.603 519.603 0 0 1 4.869 6.39m-43.82 23.838c-4.69 9.768-6.601 19.591-5.731 29.47.862 9.884 1.995 16.324 3.396 19.322 1.415 2.982 2.531 5.147 3.349 6.492m-38.546 18.867a105.354 105.354 0 0 1-3.449-4.867c-1.488-2.029-4.7-5.411-9.637-10.145-3.72-3.519-6.324-7.167-7.811-10.956m-9.536-10.143c.813 14.066-.979 27.761-5.376 41.082a223.148 223.148 0 0 1-1.724 4.971m-119.19-144.753l24.346-13.897M338.479 230.3a251.597 251.597 0 0 0 31.091-16.586m43.01 108.844c1.961-16.366.812-32.427-3.448-48.184"/></g></svg>