<svg xmlns="http://www.w3.org/2000/svg" width="900" height="450" viewBox="0 0 900 450"><g transform="translate(-19.75 91.95)"><path fill="#7A212A" d="M508.672 42.159a7.153 7.153 0 0 0-.224-1.449 82.593 82.593 0 0 0-1.002 2.452l1.448.112a5.735 5.735 0 0 0-.222-1.115m-.224 10.033c.496-2.754.684-5.244.557-7.469-.057 4.688-1.097 9.592-3.119 14.714l-1.339-.334v2.787c1.195-1.343 2.159-3.238 2.899-5.686a30.121 30.121 0 0 0 1.002-4.012z"/><linearGradient id="a" gradientUnits="userSpaceOnUse" x1="502.402" y1="239.348" x2="491.2" y2="232.939" gradientTransform="matrix(1 0 0 -1 9.29 287.389)"><stop offset="0" stop-color="#87a703"/><stop offset=".674" stop-color="#82b704"/><stop offset="1" stop-color="#5f7502"/></linearGradient><path fill="url(#a)" d="M508.895 43.274l-1.448-.112h-1.339a28.77 28.77 0 0 1-.333 5.796c-.161.958-.31 1.887-.446 2.787a35.328 35.328 0 0 1-2.453 7.022l1.672.335 1.339.334c2.022-5.122 3.063-10.026 3.119-14.714.009-.303.009-.6 0-.892a2.897 2.897 0 0 0-.111-.556m.11.557c.007-.19.007-.375 0-.557h-.11c.056.186.093.371.11.557z"/><linearGradient id="b" gradientUnits="userSpaceOnUse" x1="523.495" y1="246.011" x2="516.417" y2="209.562" gradientTransform="matrix(1 0 0 -1 9.29 287.389)"><stop offset="0" stop-color="#57171e"/><stop offset=".259" stop-color="#992b36"/><stop offset=".541" stop-color="#cc3343"/><stop offset=".726" stop-color="#87232e"/><stop offset="1" stop-color="#58161e"/></linearGradient><path fill="url(#b)" d="M508.672 42.159c.138.371.211.743.223 1.115h.11c.007.182.007.367 0 .557.488 4.31-.034 8.434-1.559 12.373-.74 2.447-1.704 4.342-2.899 5.686l16.162 3.901 8.25 2.006c13.927-4.866 22.659-10.067 26.194-15.605l-.222.223c-2.646-.843-4.282-2.515-4.905-5.016l-6.353-.893-35.226-5.796c.123.468.199.952.225 1.449m.223 1.115a3.505 3.505 0 0 0-.223-1.115c.111.365.185.736.223 1.115m.11.557c.009.292.009.589 0 .892.127 2.225-.061 4.714-.557 7.469a30.197 30.197 0 0 1-1.002 4.012c1.525-3.939 2.047-8.063 1.559-12.373z"/><linearGradient id="c" gradientUnits="userSpaceOnUse" x1="490.995" y1="226.801" x2="493.614" y2="246.752" gradientTransform="matrix(1 0 0 -1 9.29 287.389)"><stop offset="0" stop-color="#cafb04"/><stop offset=".674" stop-color="#d2fc72"/><stop offset="1" stop-color="#c4f204"/></linearGradient><path fill="url(#c)" d="M506.107 43.162V41.49l-7.021-1.003c.967 6.539.035 13.264-2.786 20.176l5.795.112.78-2.007a35.265 35.265 0 0 0 2.453-7.022c.137-.9.285-1.829.446-2.787.305-1.897.416-3.829.333-5.797z"/><linearGradient id="d" gradientUnits="userSpaceOnUse" x1="281.508" y1="161.001" x2="273.538" y2="174.823" gradientTransform="matrix(1 0 0 -1 9.29 287.389)"><stop offset="0" stop-color="#666"/><stop offset=".584" stop-color="#999"/><stop offset="1" stop-color="#6a6a6a"/></linearGradient><path fill="url(#d)" d="M285.399 131.111c.223.371.521.744.893 1.115l12.484-6.688c-3.492-4.31-6.316-9.178-8.471-14.602l-12.373 6.242c.222.594.482 1.226.779 1.895a59.521 59.521 0 0 0 6.688 12.038z"/><linearGradient id="e" gradientUnits="userSpaceOnUse" x1="268.935" y1="153.013" x2="262.75" y2="163.768" gradientTransform="matrix(1 0 0 -1 9.29 287.389)"><stop offset="0" stop-color="#cafb04"/><stop offset=".674" stop-color="#d2fc72"/><stop offset="1" stop-color="#c4f204"/></linearGradient><path fill="url(#e)" d="M269.794 134.566l15.605-3.455a59.454 59.454 0 0 1-6.688-12.039l-.445.111-11.37 10.144c.297 2.452 1.264 4.201 2.898 5.239z"/><linearGradient id="f" gradientUnits="userSpaceOnUse" x1="386.648" y1="208.848" x2="378.678" y2="226.46" gradientTransform="matrix(1 0 0 -1 9.29 287.389)"><stop offset="0" stop-color="#9d9d9d"/><stop offset=".518" stop-color="#d0d0d0"/><stop offset="1" stop-color="#a3a3a3"/></linearGradient><path fill="url(#f)" d="M496.3 60.663c2.821-6.912 3.753-13.637 2.786-20.176-33.887-2.675-67.216 3.828-99.988 19.507a2658.636 2658.636 0 0 0-108.793 50.941c2.155 5.424 4.979 10.292 8.471 14.602a2480.84 2480.84 0 0 1 107.345-50.384c32.994-15.679 63.054-20.509 90.179-14.49z"/><path fill="#932621" d="M550.026 47.399a9.856 9.856 0 0 1-.222-1.784l15.048-11.37-21.179 12.262 6.353.892m148.476-82.376c-4.013-.965-7.988-.892-11.926.223-3.419 1.041-12.04 6.094-25.86 15.159-9.065 5.946-28.686 19.062-58.856 39.349a872.707 872.707 0 0 0-3.901-5.461A697.018 697.018 0 0 1 586.59-2.54a8.208 8.208 0 0 0-.446-.779 545.595 545.595 0 0 1-3.011-4.682l-1.783-2.787a838.442 838.442 0 0 1-8.807-14.38c-1.188-.892-2.34-1.078-3.455-.557-1.188.743-1.596 1.784-1.226 3.121a652.587 652.587 0 0 1 8.472 14.157 673.517 673.517 0 0 1 6.688 11.481 706.233 706.233 0 0 1 8.585 15.829l3.788 6.465c-.124 1.413-3.875 4.608-11.258 9.587-5.842 3.944-13.94 8.997-24.299 15.159 10.358-6.162 18.457-11.215 24.299-15.159 7.383-4.979 11.134-8.174 11.258-9.587l-3.788-6.465-16.498 9.475-2.787 12.596-17.167 11.259c-3.535 5.539-12.268 10.74-26.194 15.605 3.568 1.263 8.51.408 14.826-2.563l42.804-27.979.333-.223 54.287-35.447c4.755-1.188 16.163 11.222 34.22 37.231 11.892 15.903 26.158 32.252 42.805 49.046 18.281 17.018 34.331 18.986 48.153 5.908 13.896-10.924 15.085-26.232 3.568-45.925l-42.358-59.189c-9.886-13.676-19.583-21.553-29.097-23.634m16.609 16.386c.076.223.185.408.335.557 17.611 20.51 34.035 42.692 49.269 66.547 7.504 10.7 10.069 20.472 7.691 29.316-3.714 10.626-11.741 17.575-24.076 20.845-7.356-.372-14.75-3.27-22.184-8.695-2.749-2.08-5.536-4.57-8.359-7.468-12.113-12.484-24.375-26.827-36.785-43.027-21.699-29.8-34.592-43.881-38.679-42.246l-41.132 26.641 41.132-26.641c16.349-11.37 30.171-20.101 41.466-26.195 10.106-3.27 19.137-1.412 27.088 5.573 1.41 1.56 2.821 3.158 4.234 4.793z"/><path fill="#BBB9BE" d="M553.706 45.391c-.372 1.858.891 2.081 3.788.669 7.185-2.801 11.46-7.78 12.818-14.938.285-1.559.434-3.23.447-5.016.149-10.477 3.045-20.175 8.695-29.093l-2.787-4.793c-3.344 4.756-6.242 11.221-8.695 19.395l-2.787 22.406-.333.222-15.048 11.37 3.902-.222c3.714-3.863 7.098-6.019 10.144-6.465-3.046.447-6.43 2.602-10.144 6.465m61.865-113.92c-4.981 8.621-9.104 17.946-12.375 27.979-6.464 11.147-12.745 19.47-18.837 24.969-1.339.892-2.639 1.969-3.901 3.232l.891 1.561 1.783 2.787a78.964 78.964 0 0 1 5.352-5.908c10.776-7.803 17.835-16.572 21.179-26.307l11.258-28.424c.816-1.412 1.783-2.415 2.898-3.01-1.784-.595-4.534.446-8.248 3.121z"/><path fill="#3D4C47" d="M554.932 52.415l.222-.223 17.167-11.259 2.787-12.596 1.003-4.125c1.039-8.322 3.194-15.567 6.464-21.736l-3.119-5.461c-5.65 8.917-8.546 18.616-8.695 29.093-.014 1.786-.162 3.458-.447 5.016-1.358 7.157-5.634 12.137-12.818 14.938-2.897 1.412-4.16 1.188-3.788-.669l-3.901.223c.026.667.103 1.262.222 1.784.62 2.5 2.257 4.172 4.903 5.015m68.886-124.066c-1.115.595-2.082 1.598-2.898 3.01l-11.258 28.424c-3.344 9.735-10.402 18.504-21.179 26.307a78.964 78.964 0 0 0-5.352 5.908 545.595 545.595 0 0 0 3.011 4.682 49.77 49.77 0 0 1 12.595-12.04l11.817-12.039 19.618-39.348c-.076-2.377-1.077-4.198-3.011-5.462-1.262-.147-2.377.039-3.343.558z"/><path fill="#C5303F" d="M772.406 77.829c2.378-8.844-.188-18.616-7.691-29.316-15.233-23.855-31.657-46.038-49.269-66.547 35.594 47.337 52.166 76.133 49.715 86.388-2.081 10.478-9.288 18.466-21.626 23.966-5.646.744-11.444-.037-17.389-2.341 7.434 5.425 14.827 8.323 22.184 8.695 12.335-3.27 20.362-10.218 24.076-20.845m-85.83-112.583c3.938-1.115 7.913-1.188 11.926-.223-10.181-3.715-18.688-3.938-25.524-.668l-75.02 49.938a861.068 861.068 0 0 1 3.901 5.461C632.03-.533 651.65-13.649 660.715-19.595c13.821-9.065 22.442-14.119 25.861-15.159z"/><path fill="#AB2A2E" d="M528.959 67.797l-8.25-2.006c-5.775 5.684-8.005 9.733-6.688 12.149 0 .075.039.112.113.112 1.114 1.783 4.197 2.229 9.25 1.337h.111a65.388 65.388 0 0 0 4.794-1.226c6.242-1.783 13.115-4.682 20.622-8.694a108.928 108.928 0 0 0 6.353-3.456 70.853 70.853 0 0 0 6.131-3.789c7.211-4.385 13.191-8.844 17.948-13.376a134.904 134.904 0 0 0 3.344-3.456c2.918-3.488 4.217-6.201 3.901-8.137l-42.804 27.979c-6.315 2.971-11.257 3.826-14.825 2.563z"/><linearGradient id="g" gradientUnits="userSpaceOnUse" x1="572.989" y1="235.82" x2="499.467" y2="193.512" gradientTransform="matrix(1 0 0 -1 9.29 287.389)"><stop offset="0" stop-color="#7a1f28"/><stop offset=".4" stop-color="#982631"/><stop offset=".584" stop-color="#c63140"/><stop offset=".772" stop-color="#9b2733"/><stop offset="1" stop-color="#82202b"/></linearGradient><path fill="url(#g)" d="M528.29 78.163a64.883 64.883 0 0 1-4.794 1.226h-.111c-5.053.893-8.136.446-9.25-1.337 1.04 4.012 2.786 7.059 5.238 9.14.147 0 .261.075.335.223a11.959 11.959 0 0 1 2.116 2.229c1.041.373 2.343.558 3.901.558 2.229-.223 5.056-.817 8.474-1.783 8.099-2.229 17.129-6.243 27.085-12.038 9.885-5.723 17.835-11.482 23.854-17.278 2.6-2.526 4.496-4.682 5.685-6.466 1.041-1.56 1.599-2.898 1.673-4.013a104.31 104.31 0 0 1-1.115-2.787 1.202 1.202 0 0 1-.222-.668c-.678-3.11-2.088-5.822-4.237-8.138l-.333.223c.315 1.937-.983 4.649-3.901 8.137a133.279 133.279 0 0 1-3.344 3.456c-4.757 4.533-10.737 8.992-17.948 13.376a70.853 70.853 0 0 1-6.131 3.789 107.695 107.695 0 0 1-6.353 3.456c-7.507 4.014-14.38 6.913-20.622 8.695z"/><path fill="#202424" d="M510.233 133.563c.37-.37.668-.78.89-1.226-2.451 3.123-4.16 5.946-5.127 8.471a1699.01 1699.01 0 0 0 4.237-7.245m123.841-69.89a5.851 5.851 0 0 0-1.339-.334c-.891 0-1.82.111-2.786.334h4.125m4.792-.224l1.562-.111c-2.153-.297-4.719-.297-7.692 0 .522.074.967.187 1.339.334 1.614-.055 3.213-.129 4.791-.223m-41.912-8.137c0-.148-.036-.26-.11-.334-.148-.297-.297-.521-.446-.669l.556 1.003z"/><linearGradient id="h" gradientUnits="userSpaceOnUse" x1="669.876" y1="136.976" x2="517.676" y2="49.47" gradientTransform="matrix(1 0 0 -1 9.29 287.389)"><stop offset="0" stop-color="#732e26"/><stop offset=".086" stop-color="#682020"/><stop offset=".267" stop-color="#982631"/><stop offset=".584" stop-color="#c63140"/><stop offset=".772" stop-color="#9b2733"/><stop offset=".957" stop-color="#87222d"/><stop offset="1" stop-color="#4a131a"/></linearGradient><path fill="url(#h)" d="M642.546 96.221c-12.262 13.079-28.871 25.675-49.826 37.788-21.03 12.113-40.315 20.175-57.853 24.189-16.944 3.788-27.46 2.674-31.547-3.344l73.681 118.268c.074.148.188.299.335.446 3.865 6.688 14.082 8.396 30.654 5.127 16.498-3.344 34.556-10.626 54.174-21.847 19.617-11.295 35.001-23.261 46.148-35.895 10.924-12.336 14.713-21.885 11.368-28.646L655.587 67.463c2.974 6.613-1.374 16.2-13.041 28.758z"/><linearGradient id="i" gradientUnits="userSpaceOnUse" x1="629.078" y1="203.502" x2="480.212" y2="135.339" gradientTransform="matrix(1 0 0 -1 9.29 287.389)"><stop offset="0" stop-color="#57171e"/><stop offset=".4" stop-color="#7e232d"/><stop offset=".584" stop-color="#962531"/><stop offset=".772" stop-color="#731e26"/><stop offset="1" stop-color="#58161e"/></linearGradient><path fill="url(#i)" d="M640.538 63.338h-.11l-1.562.111c-1.578.094-3.177.167-4.792.223 2.527.594 4.309 1.746 5.35 3.455 2.676 4.757-1.3 12.448-11.927 23.074-10.626 10.626-24.819 21.068-42.58 31.323-17.835 10.18-33.998 17.278-48.489 21.291-14.564 3.79-23.223 3.27-25.973-1.562-1.188-2.005-1.263-4.569-.222-7.691-1.339 2.303-2.752 4.72-4.237 7.245-1.484 3.418-1.561 6.205-.222 8.36 3.12 5.425 12.706 6.057 28.758 1.896 15.978-4.312 33.775-12.114 53.394-23.409 19.618-11.296 35.3-22.74 47.039-34.333 11.669-11.815 15.978-20.398 12.932-25.749-.073-.074-.113-.148-.113-.223h-.11c-1.115-1.709-2.897-2.861-5.35-3.455a10.343 10.343 0 0 0-1.786-.556z"/><linearGradient id="j" gradientUnits="userSpaceOnUse" x1="617.778" y1="190.46" x2="486.413" y2="179.369" gradientTransform="matrix(1 0 0 -1 9.29 287.389)"><stop offset="0" stop-color="#792029"/><stop offset=".11" stop-color="#6c1c24"/><stop offset=".4" stop-color="#982631"/><stop offset=".584" stop-color="#c63140"/><stop offset=".772" stop-color="#9b2733"/><stop offset="1" stop-color="#82202b"/></linearGradient><path fill="url(#j)" d="M596.397 59.994c-1.115 2.08-3.159 4.682-6.131 7.803-6.021 6.019-13.971 11.852-23.854 17.501-9.959 5.795-19.024 9.772-27.197 11.926-5.055 1.337-8.844 1.747-11.371 1.227-3.492 8.769-7.727 17.686-12.708 26.752a380.559 380.559 0 0 1-4.013 7.133c-.222.446-.52.856-.89 1.226-1.041 3.122-.967 5.687.222 7.691 2.75 4.831 11.408 5.352 25.973 1.562 14.491-4.013 30.654-11.11 48.489-21.291 17.761-10.255 31.954-20.697 42.58-31.323 10.627-10.626 14.603-18.317 11.927-23.074-1.041-1.709-2.822-2.861-5.35-3.455h-4.125l-8.583-.334h-.893l-21.179-2.787a28.382 28.382 0 0 0-2.897-.557z"/><linearGradient id="k" gradientUnits="userSpaceOnUse" x1="579.773" y1="225.949" x2="507.654" y2="184.507" gradientTransform="matrix(1 0 0 -1 9.29 287.389)"><stop offset="0" stop-color="#7a1f28"/><stop offset=".4" stop-color="#982631"/><stop offset=".584" stop-color="#c63140"/><stop offset=".772" stop-color="#9b2733"/><stop offset="1" stop-color="#82202b"/></linearGradient><path fill="url(#k)" d="M592.496 48.624c-.074 1.115-.632 2.453-1.673 4.013-1.188 1.784-3.085 3.939-5.685 6.466-6.02 5.795-13.97 11.555-23.854 17.278-9.956 5.795-18.986 9.809-27.085 12.038-3.418.966-6.244 1.56-8.474 1.783-1.559 0-2.86-.185-3.901-.558 1.114 1.412 1.896 2.824 2.343 4.236-.074.967.073 1.784.444 2.453l.113.112.11.222c.521.817 1.522 1.413 3.009 1.784 2.527.521 6.316.111 11.371-1.227 8.173-2.154 17.238-6.131 27.197-11.926 9.884-5.649 17.834-11.482 23.854-17.501 2.972-3.121 5.016-5.723 6.131-7.803.893-1.932 1.077-3.493.557-4.682l-.557-1.003c-.148-.074-.299-.222-.446-.445-1.262-1.338-2.414-3.085-3.454-5.24z"/><linearGradient id="l" gradientUnits="userSpaceOnUse" x1="629.794" y1="202.66" x2="469.951" y2="130.263" gradientTransform="matrix(1 0 0 -1 9.29 287.389)"><stop offset="0" stop-color="#7a1f28"/><stop offset=".4" stop-color="#982631"/><stop offset=".584" stop-color="#c63140"/><stop offset=".772" stop-color="#9b2733"/><stop offset="1" stop-color="#82202b"/></linearGradient><path fill="url(#l)" d="M655.587 67.463c-.148-.297-.297-.595-.444-.893-3.717-6.465-14.306-7.765-31.769-3.901a88.041 88.041 0 0 0-2.9.669h.893l8.583.334a12.389 12.389 0 0 1 2.786-.334c2.974-.297 5.539-.297 7.692 0h.11a9.964 9.964 0 0 1 1.785.558c2.452.594 4.234 1.746 5.35 3.455h.11c0 .075.04.149.113.223 3.046 5.35-1.263 13.934-12.932 25.749-11.739 11.593-27.421 23.038-47.039 34.333-19.618 11.294-37.416 19.097-53.394 23.409-16.052 4.16-25.638 3.528-28.758-1.896-1.339-2.155-1.263-4.942.222-8.36.967-2.525 2.676-5.349 5.127-8.471 1.413-2.451 2.75-4.83 4.013-7.133-11.889 12.931-15.938 22.591-12.148 28.98.074.225.186.446.333.671 4.087 6.018 14.603 7.132 31.547 3.344 17.537-4.015 36.822-12.076 57.853-24.189 20.955-12.113 37.564-24.708 49.826-37.788 11.667-12.56 16.015-22.147 13.041-28.76z"/><radialGradient id="m" cx="-161.935" cy="317.314" r="31.023" gradientTransform="matrix(-.0216 -.9998 -4.1149 .0925 1587.861 115.865)" gradientUnits="userSpaceOnUse"><stop offset="0" stop-color="#111"/><stop offset=".549" stop-color="#1a1a1a"/><stop offset="1"/></radialGradient><path fill="url(#m)" d="M275.479 286.275c-31.657 0-58.707 2.527-81.149 7.581-22.369 5.053-33.553 11.109-33.553 18.17 0 7.132 11.184 13.226 33.553 18.279 22.442 5.053 49.492 7.58 81.149 7.58 31.656 0 58.669-2.527 81.038-7.58 22.441-5.054 33.663-11.147 33.663-18.279 0-7.061-11.221-13.117-33.663-18.17-22.369-5.054-49.381-7.581-81.038-7.581z"/><linearGradient id="n" gradientUnits="userSpaceOnUse" x1="253.527" y1="52.036" x2="265.175" y2="52.538" gradientTransform="matrix(1 0 0 -1 9.29 287.389)"><stop offset=".251"/><stop offset=".62" stop-color="#2f2f2f"/><stop offset=".867"/></linearGradient><path fill="url(#n)" d="M274.253 244.92a716.982 716.982 0 0 1-3.121-11.704c-1.412-6.02-2.526-11.778-3.344-17.277-1.115 8.471-2.824 18.059-5.127 28.76-.817 6.537 1.338 9.733 6.465 9.585 2.898-.147 4.645-1.003 5.239-2.564.742-1.264.705-3.53-.112-6.8z"/><linearGradient id="o" gradientUnits="userSpaceOnUse" x1="253.945" y1="130.03" x2="264.981" y2="130.476" gradientTransform="matrix(1 0 0 -1 9.29 287.389)"><stop offset=".251"/><stop offset=".62" stop-color="#2f2f2f"/><stop offset=".867"/></linearGradient><path fill="url(#o)" d="M269.237 175.252c2.75-.148 4.421-.93 5.016-2.341.669-1.188.669-3.307 0-6.353-1.263-4.385-2.267-8.101-3.009-11.146-1.412-5.722-2.453-11.187-3.122-16.388-1.04 8.102-2.675 17.204-4.904 27.311-.818 6.094 1.189 9.068 6.019 8.917z"/></g><path fill="none" stroke="#3E0000" stroke-width="1.5" stroke-linecap="round" stroke-linejoin="round" d="M578.208 106.242a861.068 861.068 0 0 1 3.901 5.461C612.28 91.416 631.9 78.3 640.965 72.354c13.82-9.065 22.441-14.119 25.86-15.159 3.938-1.115 7.913-1.188 11.926-.223-10.181-3.715-18.688-3.938-25.524-.668l-75.019 49.938a603.884 603.884 0 0 1-11.314-16.833m-3.512-5.461l-1.727-2.787a654.634 654.634 0 0 1-8.863-14.38c-1.188-.892-2.34-1.078-3.455-.557-1.188.743-1.596 1.784-1.226 3.121a853.874 853.874 0 0 1 8.528 14.157 782.763 782.763 0 0 1 6.631 11.538 631.673 631.673 0 0 1 8.585 15.772l3.788 6.465c-.124 1.413-3.875 4.608-11.258 9.587-5.842 3.944-13.94 8.997-24.299 15.159m82.487-52.835c16.349-11.37 30.171-20.101 41.466-26.195 10.106-3.27 19.137-1.412 27.088 5.573 1.41 1.56 2.821 3.158 4.234 4.793.076.223.185.408.335.557 17.611 20.51 34.035 42.692 49.269 66.547 7.504 10.7 10.069 20.472 7.691 29.316-3.714 10.626-11.741 17.575-24.076 20.845-7.356-.372-14.75-3.27-22.184-8.695-2.749-2.08-5.536-4.57-8.359-7.468-12.113-12.484-24.375-26.827-36.785-43.027-21.699-29.8-34.592-43.881-38.679-42.246l-41.132 26.641m19.283 39.459a88.638 88.638 0 0 1 2.9-.669c17.463-3.863 28.052-2.563 31.769 3.901.147.298.296.596.444.893l64.094 124.845c3.345 6.762-.444 16.311-11.368 28.646-11.147 12.634-26.531 24.6-46.148 35.895-19.618 11.221-37.676 18.503-54.174 21.847-16.572 3.269-26.789 1.562-30.654-5.127a1.764 1.764 0 0 1-.335-.446L483.57 246.805a2.87 2.87 0 0 1-.333-.671c-3.79-6.39.26-16.05 12.148-28.98 4.981-9.066 9.216-17.984 12.708-26.752-1.486-.371-2.488-.967-3.009-1.784l-.11-.222-.113-.112c-.371-.668-.519-1.486-.444-2.453-.446-1.412-1.229-2.824-2.343-4.236-.891-.297-1.524-.78-1.895-1.449-.147-.297-.222-.557-.222-.78-.074-.148-.188-.223-.335-.223-2.452-2.081-4.198-5.127-5.238-9.14-.074 0-.113-.037-.113-.112-1.317-2.417.932-6.447 6.744-12.094l-16.219-3.957c0-.926.02-1.836.057-2.731m2.843-15.941c.318-.854.653-1.69 1.002-2.508l35.226 5.796 21.179-12.205m133.649-69.278c9.514 2.082 19.211 9.958 29.095 23.632l42.358 59.189c11.517 19.693 10.328 35.001-3.568 45.925-13.822 13.079-29.872 11.11-48.153-5.908-16.646-16.794-30.913-33.144-42.805-49.046-18.057-26.009-29.465-38.419-34.22-37.231l-54.287 35.447c2.149 2.316 3.56 5.028 4.237 8.138 0 .222.073.445.222.668.299.223.558.483.781.78.297.594.41 1.263.334 2.006 1.04 2.155 2.192 3.901 3.455 5.239.147.223.298.371.446.445.149.149.298.372.446.669.074.074.11.186.11.334.521 1.189.336 2.75-.557 4.682 1.04.148 2.007.334 2.897.557l21.179 2.787h.893l8.583.334a12.389 12.389 0 0 1 2.786-.334c2.974-.297 5.539-.297 7.692 0h.11a9.964 9.964 0 0 1 1.785.558c2.452.594 4.234 1.746 5.35 3.455h.11c0 .075.04.149.113.223 3.046 5.35-1.263 13.934-12.932 25.749-11.739 11.593-27.421 23.038-47.039 34.333-19.618 11.294-37.416 19.097-53.394 23.409-16.052 4.16-25.638 3.528-28.758-1.896-1.339-2.155-1.263-4.942.222-8.36.967-2.525 2.676-5.349 5.127-8.471 1.413-2.451 2.75-4.83 4.013-7.133M695.696 73.916c35.594 47.337 52.166 76.133 49.715 86.388-2.081 10.478-9.288 18.466-21.626 23.966-5.646.744-11.444-.037-17.389-2.341m-217.195-46.705a8.951 8.951 0 0 0-.225-1.115c.076.365.131.736.168 1.115m.111.557c.488 4.31-.015 8.434-1.504 12.373-.775 2.447-1.759 4.342-2.954 5.686m4.458-18.059a34.96 34.96 0 0 0-.054-.557m-.503-2.564c.122.468.218.952.278 1.449m.279 2.564c.127 2.225-.061 4.714-.557 7.469a37.58 37.58 0 0 1-.947 4.012m42.582-8.75l-6.409-.948m-14.715 21.291l-8.193-1.951m65.823-28.592c.315 1.937-.983 4.649-3.901 8.137a133.279 133.279 0 0 1-3.344 3.456c-4.757 4.533-10.737 8.992-17.948 13.376a70.853 70.853 0 0 1-6.131 3.789 107.695 107.695 0 0 1-6.353 3.456c-7.507 4.013-14.38 6.912-20.622 8.694a64.883 64.883 0 0 1-4.794 1.226h-.111c-5.053.893-8.136.446-9.25-1.337m14.824-10.254c13.927-4.866 22.679-10.048 26.251-15.55m31.379-14.993l-42.804 27.979c-6.316 2.972-11.258 3.826-14.826 2.563m57.963-30.765l-.333.223m5.907 11.37c-.074 1.115-.632 2.453-1.673 4.013-1.188 1.784-3.085 3.939-5.685 6.466-6.02 5.795-13.97 11.555-23.854 17.278-9.956 5.795-18.986 9.809-27.085 12.038-3.418.966-6.244 1.56-8.474 1.783-1.559 0-2.86-.185-3.901-.558-.592-.817-1.3-1.56-2.116-2.229m71.673-41.577c.372.966.742 1.895 1.115 2.787m3.901 11.369c-1.115 2.08-3.159 4.682-6.131 7.803-6.021 6.019-13.971 11.852-23.854 17.501-9.959 5.795-19.024 9.772-27.197 11.926-5.055 1.337-8.844 1.747-11.371 1.227m68.553-44.142l.557 1.003m37.12 8.361c1.615-.056 3.214-.129 4.792-.223l1.562-.111m-7.693-.001c.522.074.967.187 1.339.334h-4.125m4.125.001c2.527.594 4.309 1.746 5.35 3.455 2.676 4.757-1.3 12.448-11.927 23.074-10.626 10.626-24.819 21.068-42.58 31.323-17.835 10.18-33.998 17.278-48.489 21.291-14.564 3.79-23.223 3.27-25.973-1.562-1.188-2.005-1.263-4.569-.222-7.691-1.339 2.303-2.752 4.72-4.237 7.245m69.168-112.471l16.441-9.475M483.57 246.805c4.087 6.018 14.603 7.132 31.547 3.344 17.537-4.015 36.822-12.076 57.853-24.189 20.955-12.113 37.564-24.708 49.826-37.788 11.667-12.559 16.015-22.146 13.041-28.758m-145.354 66.099c.37-.37.668-.78.89-1.226"/><path fill="none" stroke="#333" stroke-width="1.5" stroke-linecap="round" stroke-linejoin="round" d="M566.894 89.41c-.159-.25-.329-.511-.501-.779a545.595 545.595 0 0 1-3.011-4.682m-86.832 68.664c-27.125-6.019-57.185-1.189-90.179 14.491a2480.282 2480.282 0 0 0-107.345 50.384l-12.484 6.688a5.896 5.896 0 0 1-.893-1.115m-6.688-12.039a34.217 34.217 0 0 1-.779-1.895l12.373-6.242a2657.307 2657.307 0 0 1 108.793-50.941c32.772-15.68 66.102-22.183 99.988-19.507m65.767-6.186l.333-.279 2.787-22.406c2.453-8.174 5.352-14.639 8.695-19.395l-.278-.669m47.428-63.203c-1.783-.595-4.533.446-8.247 3.122-4.981 8.621-9.104 17.946-12.375 27.979-6.464 11.147-12.745 19.47-18.837 24.969-1.339.892-2.639 1.969-3.901 3.232l.947 1.561m1.727 2.786a78.964 78.964 0 0 1 5.352-5.908c10.776-7.803 17.835-16.572 21.179-26.307l11.258-28.424c.816-1.412 1.783-2.415 2.898-3.01.966-.52 2.081-.706 3.344-.558 1.934 1.264 2.935 3.085 3.011 5.462l-19.618 39.348-11.817 12.039a49.786 49.786 0 0 0-12.595 12.04m-30.934 55.567l-.278.168c-2.646-.843-4.263-2.496-4.849-4.961m3.623-2.063c-.372 1.858.891 2.081 3.788.669 7.185-2.801 11.46-7.78 12.818-14.938.285-1.559.434-3.23.447-5.016.149-10.477 3.045-20.175 8.695-29.093l-2.787-4.793m-26.584 55.234a7.987 7.987 0 0 1-.278-1.839l15.048-11.313m-15.048 11.312l3.901-.223c3.714-3.863 7.098-6.019 10.144-6.465m-8.64 13.321l17.11-11.314 2.844-12.596.946-4.125c1.039-8.322 3.194-15.567 6.464-21.736l-3.119-5.461m3.119 5.461l.446.614M265.649 223.061a59.454 59.454 0 0 1-6.688-12.039m11.594-8.136c2.155 5.424 4.979 10.292 8.471 14.602"/><path fill="none" stroke="#39251A" stroke-width="1.5" stroke-linecap="round" stroke-linejoin="round" d="M484.854 151.108l-1.729-.391-.78 2.007-5.795-.112m-210.901 70.449l-15.605 3.455c-1.634-1.038-2.601-2.786-2.897-5.238l11.37-10.144m220.819-78.697l7.021 1.003v1.672l1.339.057m1.449.055h.111m-6.131 15.493a35.591 35.591 0 0 0 2.453-6.967c.137-.937.303-1.866.501-2.787.268-1.933.361-3.884.278-5.852m2.788.113l-1.448-.056m-2.843 15.94l1.282.278m-6.8-18.949c.967 6.539.035 13.264-2.786 20.176"/><path fill="none" stroke="#000" stroke-width="1.5" stroke-linecap="round" stroke-linejoin="round" d="M249.487 267.202c2.75-.148 4.421-.93 5.016-2.341.669-1.188.669-3.307 0-6.353-1.263-4.385-2.267-8.101-3.009-11.146-1.412-5.722-2.453-11.187-3.122-16.388-1.04 8.102-2.675 17.204-4.904 27.311-.818 6.094 1.189 9.068 6.019 8.917zm5.128 76.467c-.594 1.562-2.341 2.417-5.239 2.564-5.127.148-7.282-3.048-6.465-9.585 2.303-10.701 4.012-20.289 5.127-28.76.818 5.499 1.932 11.258 3.344 17.277a716.982 716.982 0 0 0 3.121 11.704c.817 3.271.854 5.537.112 6.8z"/></svg>