<?xml version="1.0" encoding="utf-8"?>
<!-- Generator: Adobe Illustrator 16.0.0, SVG Export Plug-In . SVG Version: 6.00 Build 0)  -->
<!DOCTYPE svg PUBLIC "-//W3C//DTD SVG 1.1//EN" "http://www.w3.org/Graphics/SVG/1.1/DTD/svg11.dtd">
<svg version="1.1" id="Layer_1" xmlns="http://www.w3.org/2000/svg" xmlns:xlink="http://www.w3.org/1999/xlink" x="0px" y="0px"
	 width="900px" height="450px" viewBox="0 0 900 450" enable-background="new 0 0 900 450" xml:space="preserve">
<g transform="matrix( 1, 0, 0, 1, -19.75,91.95) ">
	<g>
		<g id="Layer0_0_FILL">
			<path fill="#7A212A" d="M508.672,42.159c-0.025-0.498-0.102-0.981-0.224-1.449c-0.349,0.818-0.684,1.635-1.002,2.452l1.448,0.112
				C508.857,42.895,508.783,42.524,508.672,42.159 M508.448,52.192c0.496-2.754,0.684-5.244,0.557-7.469
				c-0.057,4.688-1.097,9.592-3.119,14.714l-1.339-0.334c0,0.932,0,1.86,0,2.787c1.195-1.343,2.159-3.238,2.899-5.686
				C507.843,55.003,508.178,53.665,508.448,52.192z"/>
			
				<linearGradient id="SVGID_1_" gradientUnits="userSpaceOnUse" x1="502.4023" y1="239.3479" x2="491.1999" y2="232.9385" gradientTransform="matrix(1 0 0 -1 9.29 287.389)">
				<stop  offset="0" style="stop-color:#87A703"/>
				<stop  offset="0.6745" style="stop-color:#82B704"/>
				<stop  offset="1" style="stop-color:#5F7502"/>
			</linearGradient>
			<path fill="url(#SVGID_1_)" d="M508.895,43.274L508.895,43.274l-1.448-0.112h-1.339c0.083,1.968-0.028,3.9-0.333,5.796
				c-0.161,0.958-0.31,1.887-0.446,2.787c-0.56,2.397-1.378,4.738-2.453,7.022l1.672,0.335l1.339,0.334
				c2.022-5.122,3.063-10.026,3.119-14.714c0.009-0.303,0.009-0.6,0-0.892C508.988,43.645,508.951,43.46,508.895,43.274
				 M509.005,43.831c0.007-0.19,0.007-0.375,0-0.557h-0.11C508.951,43.46,508.988,43.645,509.005,43.831z"/>
			
				<linearGradient id="SVGID_2_" gradientUnits="userSpaceOnUse" x1="523.4951" y1="246.0109" x2="516.4172" y2="209.5621" gradientTransform="matrix(1 0 0 -1 9.29 287.389)">
				<stop  offset="0" style="stop-color:#57171E"/>
				<stop  offset="0.2588" style="stop-color:#992B36"/>
				<stop  offset="0.5412" style="stop-color:#CC3343"/>
				<stop  offset="0.7255" style="stop-color:#87232E"/>
				<stop  offset="1" style="stop-color:#58161E"/>
			</linearGradient>
			<path fill="url(#SVGID_2_)" d="M508.672,42.159c0.138,0.371,0.211,0.743,0.223,1.115h0.11c0.007,0.182,0.007,0.367,0,0.557
				c0.488,4.31-0.034,8.434-1.559,12.373c-0.74,2.447-1.704,4.342-2.899,5.686l16.162,3.901l8.25,2.006
				c13.927-4.866,22.659-10.067,26.194-15.605l-0.222,0.223c-2.646-0.843-4.282-2.515-4.905-5.016l-6.353-0.893l-35.226-5.796
				C508.57,41.178,508.646,41.662,508.672,42.159 M508.895,43.274c-0.012-0.372-0.085-0.744-0.223-1.115
				C508.783,42.524,508.857,42.895,508.895,43.274L508.895,43.274 M509.005,43.831c0.009,0.292,0.009,0.589,0,0.892
				c0.127,2.225-0.061,4.714-0.557,7.469c-0.271,1.474-0.605,2.812-1.002,4.012C508.971,52.265,509.493,48.141,509.005,43.831z"/>
			
				<linearGradient id="SVGID_3_" gradientUnits="userSpaceOnUse" x1="490.9951" y1="226.801" x2="493.6144" y2="246.7519" gradientTransform="matrix(1 0 0 -1 9.29 287.389)">
				<stop  offset="0" style="stop-color:#CAFB04"/>
				<stop  offset="0.6745" style="stop-color:#D2FC72"/>
				<stop  offset="1" style="stop-color:#C4F204"/>
			</linearGradient>
			<path fill="url(#SVGID_3_)" d="M506.107,43.162V41.49l-7.021-1.003c0.967,6.539,0.035,13.264-2.786,20.176l5.795,0.112
				l0.78-2.007c1.075-2.284,1.894-4.625,2.453-7.022c0.137-0.9,0.285-1.829,0.446-2.787C506.079,47.062,506.19,45.13,506.107,43.162
				z"/>
			
				<linearGradient id="SVGID_4_" gradientUnits="userSpaceOnUse" x1="281.5078" y1="161.0012" x2="273.5378" y2="174.8233" gradientTransform="matrix(1 0 0 -1 9.29 287.389)">
				<stop  offset="0" style="stop-color:#666666"/>
				<stop  offset="0.5843" style="stop-color:#999999"/>
				<stop  offset="1" style="stop-color:#6A6A6A"/>
			</linearGradient>
			<path fill="url(#SVGID_4_)" d="M285.399,131.111c0.223,0.371,0.521,0.744,0.893,1.115l12.484-6.688
				c-3.492-4.31-6.316-9.178-8.471-14.602l-12.373,6.242c0.222,0.594,0.482,1.226,0.779,1.895
				C280.496,123.382,282.725,127.396,285.399,131.111z"/>
			
				<linearGradient id="SVGID_5_" gradientUnits="userSpaceOnUse" x1="268.9351" y1="153.0129" x2="262.7495" y2="163.768" gradientTransform="matrix(1 0 0 -1 9.29 287.389)">
				<stop  offset="0" style="stop-color:#CAFB04"/>
				<stop  offset="0.6745" style="stop-color:#D2FC72"/>
				<stop  offset="1" style="stop-color:#C4F204"/>
			</linearGradient>
			<path fill="url(#SVGID_5_)" d="M269.794,134.566l15.605-3.455c-2.674-3.715-4.904-7.729-6.688-12.039l-0.445,0.111l-11.37,10.144
				C267.193,131.779,268.16,133.528,269.794,134.566z"/>
			
				<linearGradient id="SVGID_6_" gradientUnits="userSpaceOnUse" x1="386.6484" y1="208.8479" x2="378.6785" y2="226.4597" gradientTransform="matrix(1 0 0 -1 9.29 287.389)">
				<stop  offset="0" style="stop-color:#9D9D9D"/>
				<stop  offset="0.5176" style="stop-color:#D0D0D0"/>
				<stop  offset="1" style="stop-color:#A3A3A3"/>
			</linearGradient>
			<path fill="url(#SVGID_6_)" d="M496.3,60.663c2.821-6.912,3.753-13.637,2.786-20.176c-33.887-2.675-67.216,3.828-99.988,19.507
				c-36.413,16.051-72.677,33.031-108.793,50.941c2.155,5.424,4.979,10.292,8.471,14.602c35.299-17.612,71.08-34.406,107.345-50.384
				C439.115,59.474,469.175,54.644,496.3,60.663z"/>
			<path fill="#932621" d="M550.026,47.399c-0.119-0.522-0.195-1.117-0.222-1.784l15.048-11.37l-21.179,12.262L550.026,47.399
				 M698.502-34.977c-4.013-0.965-7.988-0.892-11.926,0.223c-3.419,1.041-12.04,6.094-25.86,15.159
				c-9.065,5.946-28.686,19.062-58.856,39.349c-1.263-1.783-2.564-3.604-3.901-5.461c-3.751-5.379-7.542-10.989-11.369-16.833
				c-0.124-0.25-0.274-0.511-0.446-0.779c-1.004-1.543-2.007-3.104-3.011-4.682l-1.783-2.787c-2.915-4.651-5.85-9.444-8.807-14.38
				c-1.188-0.892-2.34-1.078-3.455-0.557c-1.188,0.743-1.596,1.784-1.226,3.121c2.946,4.788,5.77,9.506,8.472,14.157
				c2.318,3.893,4.548,7.72,6.688,11.481c3.018,5.406,5.881,10.681,8.585,15.829l3.788,6.465c-0.124,1.413-3.875,4.608-11.258,9.587
				c-5.842,3.944-13.94,8.997-24.299,15.159c10.358-6.162,18.457-11.215,24.299-15.159c7.383-4.979,11.134-8.174,11.258-9.587
				l-3.788-6.465l-16.498,9.475l-2.787,12.596l-17.167,11.259c-3.535,5.539-12.268,10.74-26.194,15.605
				c3.568,1.263,8.51,0.408,14.826-2.563l42.804-27.979l0.333-0.223l54.287-35.447c4.755-1.188,16.163,11.222,34.22,37.231
				c11.892,15.903,26.158,32.252,42.805,49.046c18.281,17.018,34.331,18.986,48.153,5.908c13.896-10.924,15.085-26.232,3.568-45.925
				l-42.358-59.189C717.713-25.019,708.016-32.896,698.502-34.977 M715.111-18.591c0.076,0.223,0.185,0.408,0.335,0.557
				c17.611,20.51,34.035,42.692,49.269,66.547c7.504,10.7,10.069,20.472,7.691,29.316c-3.714,10.626-11.741,17.575-24.076,20.845
				c-7.356-0.372-14.75-3.27-22.184-8.695c-2.749-2.08-5.536-4.57-8.359-7.468c-12.113-12.484-24.375-26.827-36.785-43.027
				C659.303,9.684,646.41-4.397,642.323-2.762l-41.132,26.641l41.132-26.641c16.349-11.37,30.171-20.101,41.466-26.195
				c10.106-3.27,19.137-1.412,27.088,5.573C712.287-21.824,713.698-20.226,715.111-18.591z"/>
			<path fill="#BBB9BE" d="M553.706,45.391c-0.372,1.858,0.891,2.081,3.788,0.669c7.185-2.801,11.46-7.78,12.818-14.938
				c0.285-1.559,0.434-3.23,0.447-5.016c0.149-10.477,3.045-20.175,8.695-29.093l-2.787-4.793
				c-3.344,4.756-6.242,11.221-8.695,19.395l-2.787,22.406l-0.333,0.222l-15.048,11.37L553.706,45.391
				c3.714-3.863,7.098-6.019,10.144-6.465C560.804,39.373,557.42,41.528,553.706,45.391 M615.571-68.529
				c-4.981,8.621-9.104,17.946-12.375,27.979c-6.464,11.147-12.745,19.47-18.837,24.969c-1.339,0.892-2.639,1.969-3.901,3.232
				l0.891,1.561l1.783,2.787c1.638-2.006,3.418-3.975,5.352-5.908c10.776-7.803,17.835-16.572,21.179-26.307l11.258-28.424
				c0.816-1.412,1.783-2.415,2.898-3.01C622.035-72.245,619.285-71.204,615.571-68.529z"/>
			<path fill="#3D4C47" d="M554.932,52.415l0.222-0.223l17.167-11.259l2.787-12.596l1.003-4.125
				c1.039-8.322,3.194-15.567,6.464-21.736l-3.119-5.461c-5.65,8.917-8.546,18.616-8.695,29.093
				c-0.014,1.786-0.162,3.458-0.447,5.016c-1.358,7.157-5.634,12.137-12.818,14.938c-2.897,1.412-4.16,1.188-3.788-0.669
				l-3.901,0.223c0.026,0.667,0.103,1.262,0.222,1.784C550.649,49.9,552.286,51.572,554.932,52.415 M623.818-71.651
				c-1.115,0.595-2.082,1.598-2.898,3.01l-11.258,28.424c-3.344,9.735-10.402,18.504-21.179,26.307
				c-1.934,1.933-3.714,3.902-5.352,5.908c1.004,1.578,2.007,3.139,3.011,4.682c3.492-4.756,7.692-8.77,12.595-12.04l11.817-12.039
				l19.618-39.348c-0.076-2.377-1.077-4.198-3.011-5.462C625.899-72.356,624.784-72.17,623.818-71.651z"/>
			<path fill="#C5303F" d="M772.406,77.829c2.378-8.844-0.188-18.616-7.691-29.316c-15.233-23.855-31.657-46.038-49.269-66.547
				c35.594,47.337,52.166,76.133,49.715,86.388c-2.081,10.478-9.288,18.466-21.626,23.966c-5.646,0.744-11.444-0.037-17.389-2.341
				c7.434,5.425,14.827,8.323,22.184,8.695C760.665,95.404,768.692,88.456,772.406,77.829 M686.576-34.754
				c3.938-1.115,7.913-1.188,11.926-0.223c-10.181-3.715-18.688-3.938-25.524-0.668l-75.02,49.938
				c1.337,1.858,2.639,3.678,3.901,5.461c30.171-20.287,49.791-33.403,58.856-39.349C674.536-28.66,683.157-33.714,686.576-34.754z"
				/>
			<path fill="#AB2A2E" d="M528.959,67.797l-8.25-2.006c-5.775,5.684-8.005,9.733-6.688,12.149c0,0.075,0.039,0.112,0.113,0.112
				c1.114,1.783,4.197,2.229,9.25,1.337h0.111c1.413-0.297,3.011-0.706,4.794-1.226c6.242-1.783,13.115-4.682,20.622-8.694
				c2.081-1.041,4.197-2.192,6.353-3.456c2.155-1.188,4.2-2.452,6.131-3.789c7.211-4.385,13.191-8.844,17.948-13.376
				c1.263-1.264,2.377-2.416,3.344-3.456c2.918-3.488,4.217-6.201,3.901-8.137l-42.804,27.979
				C537.469,68.205,532.527,69.06,528.959,67.797z"/>
			
				<linearGradient id="SVGID_7_" gradientUnits="userSpaceOnUse" x1="572.9893" y1="235.8195" x2="499.4668" y2="193.5121" gradientTransform="matrix(1 0 0 -1 9.29 287.389)">
				<stop  offset="0" style="stop-color:#7A1F28"/>
				<stop  offset="0.4" style="stop-color:#982631"/>
				<stop  offset="0.5843" style="stop-color:#C63140"/>
				<stop  offset="0.7725" style="stop-color:#9B2733"/>
				<stop  offset="1" style="stop-color:#82202B"/>
			</linearGradient>
			<path fill="url(#SVGID_7_)" d="M528.29,78.163c-1.783,0.521-3.381,0.929-4.794,1.226h-0.111c-5.053,0.893-8.136,0.446-9.25-1.337
				c1.04,4.012,2.786,7.059,5.238,9.14c0.147,0,0.261,0.075,0.335,0.223c0.816,0.669,1.524,1.412,2.116,2.229
				c1.041,0.373,2.343,0.558,3.901,0.558c2.229-0.223,5.056-0.817,8.474-1.783c8.099-2.229,17.129-6.243,27.085-12.038
				c9.885-5.723,17.835-11.482,23.854-17.278c2.6-2.526,4.496-4.682,5.685-6.466c1.041-1.56,1.599-2.898,1.673-4.013
				c-0.373-0.892-0.743-1.82-1.115-2.787c-0.148-0.223-0.222-0.446-0.222-0.668c-0.678-3.11-2.088-5.822-4.237-8.138l-0.333,0.223
				c0.315,1.937-0.983,4.649-3.901,8.137c-0.967,1.041-2.081,2.192-3.344,3.456c-4.757,4.533-10.737,8.992-17.948,13.376
				c-1.931,1.337-3.976,2.601-6.131,3.789c-2.155,1.264-4.271,2.416-6.353,3.456C541.405,73.482,534.532,76.381,528.29,78.163z"/>
			<path fill="#202424" d="M510.233,133.563c0.37-0.37,0.668-0.78,0.89-1.226c-2.451,3.123-4.16,5.946-5.127,8.471
				C507.481,138.282,508.895,135.865,510.233,133.563 M634.074,63.673c-0.372-0.148-0.816-0.26-1.339-0.334
				c-0.891,0-1.82,0.111-2.786,0.334C631.361,63.673,632.735,63.673,634.074,63.673 M638.866,63.449
				c0.522-0.037,1.041-0.074,1.562-0.111c-2.153-0.297-4.719-0.297-7.692,0c0.522,0.074,0.967,0.187,1.339,0.334
				C635.689,63.617,637.288,63.543,638.866,63.449 M596.954,55.312c0-0.148-0.036-0.26-0.11-0.334
				c-0.148-0.297-0.297-0.521-0.446-0.669L596.954,55.312z"/>
			
				<linearGradient id="SVGID_8_" gradientUnits="userSpaceOnUse" x1="669.876" y1="136.9758" x2="517.6755" y2="49.4703" gradientTransform="matrix(1 0 0 -1 9.29 287.389)">
				<stop  offset="0" style="stop-color:#732E26"/>
				<stop  offset="0.0863" style="stop-color:#682020"/>
				<stop  offset="0.2667" style="stop-color:#982631"/>
				<stop  offset="0.5843" style="stop-color:#C63140"/>
				<stop  offset="0.7725" style="stop-color:#9B2733"/>
				<stop  offset="0.9569" style="stop-color:#87222D"/>
				<stop  offset="1" style="stop-color:#4A131A"/>
			</linearGradient>
			<path fill="url(#SVGID_8_)" d="M642.546,96.221c-12.262,13.079-28.871,25.675-49.826,37.788
				c-21.03,12.113-40.315,20.175-57.853,24.189c-16.944,3.788-27.46,2.674-31.547-3.344l73.681,118.268
				c0.074,0.148,0.188,0.299,0.335,0.446c3.865,6.688,14.082,8.396,30.654,5.127c16.498-3.344,34.556-10.626,54.174-21.847
				c19.617-11.295,35.001-23.261,46.148-35.895c10.924-12.336,14.713-21.885,11.368-28.646L655.587,67.463
				C658.561,74.076,654.213,83.663,642.546,96.221z"/>
			
				<linearGradient id="SVGID_9_" gradientUnits="userSpaceOnUse" x1="629.0781" y1="203.5022" x2="480.2119" y2="135.3391" gradientTransform="matrix(1 0 0 -1 9.29 287.389)">
				<stop  offset="0" style="stop-color:#57171E"/>
				<stop  offset="0.4" style="stop-color:#7E232D"/>
				<stop  offset="0.5843" style="stop-color:#962531"/>
				<stop  offset="0.7725" style="stop-color:#731E26"/>
				<stop  offset="1" style="stop-color:#58161E"/>
			</linearGradient>
			<path fill="url(#SVGID_9_)" d="M640.538,63.338h-0.11c-0.521,0.037-1.039,0.074-1.562,0.111
				c-1.578,0.094-3.177,0.167-4.792,0.223c2.527,0.594,4.309,1.746,5.35,3.455c2.676,4.757-1.3,12.448-11.927,23.074
				c-10.626,10.626-24.819,21.068-42.58,31.323c-17.835,10.18-33.998,17.278-48.489,21.291c-14.564,3.79-23.223,3.27-25.973-1.562
				c-1.188-2.005-1.263-4.569-0.222-7.691c-1.339,2.303-2.752,4.72-4.237,7.245c-1.484,3.418-1.561,6.205-0.222,8.36
				c3.12,5.425,12.706,6.057,28.758,1.896c15.978-4.312,33.775-12.114,53.394-23.409c19.618-11.296,35.3-22.74,47.039-34.333
				c11.669-11.815,15.978-20.398,12.932-25.749c-0.073-0.074-0.113-0.148-0.113-0.223h-0.11c-1.115-1.709-2.897-2.861-5.35-3.455
				C641.801,63.673,641.209,63.487,640.538,63.338z"/>
			
				<linearGradient id="SVGID_10_" gradientUnits="userSpaceOnUse" x1="617.7783" y1="190.4602" x2="486.4134" y2="179.3691" gradientTransform="matrix(1 0 0 -1 9.29 287.389)">
				<stop  offset="0" style="stop-color:#792029"/>
				<stop  offset="0.1098" style="stop-color:#6C1C24"/>
				<stop  offset="0.4" style="stop-color:#982631"/>
				<stop  offset="0.5843" style="stop-color:#C63140"/>
				<stop  offset="0.7725" style="stop-color:#9B2733"/>
				<stop  offset="1" style="stop-color:#82202B"/>
			</linearGradient>
			<path fill="url(#SVGID_10_)" d="M596.397,59.994c-1.115,2.08-3.159,4.682-6.131,7.803c-6.021,6.019-13.971,11.852-23.854,17.501
				c-9.959,5.795-19.024,9.772-27.197,11.926c-5.055,1.337-8.844,1.747-11.371,1.227c-3.492,8.769-7.727,17.686-12.708,26.752
				c-1.263,2.304-2.6,4.682-4.013,7.133c-0.222,0.446-0.52,0.856-0.89,1.226c-1.041,3.122-0.967,5.687,0.222,7.691
				c2.75,4.831,11.408,5.352,25.973,1.562c14.491-4.013,30.654-11.11,48.489-21.291c17.761-10.255,31.954-20.697,42.58-31.323
				c10.627-10.626,14.603-18.317,11.927-23.074c-1.041-1.709-2.822-2.861-5.35-3.455c-1.339,0-2.713,0-4.125,0l-8.583-0.334
				c-0.222,0-0.521,0-0.893,0l-21.179-2.787C598.404,60.328,597.438,60.142,596.397,59.994z"/>
			
				<linearGradient id="SVGID_11_" gradientUnits="userSpaceOnUse" x1="579.7734" y1="225.9494" x2="507.6538" y2="184.5071" gradientTransform="matrix(1 0 0 -1 9.29 287.389)">
				<stop  offset="0" style="stop-color:#7A1F28"/>
				<stop  offset="0.4" style="stop-color:#982631"/>
				<stop  offset="0.5843" style="stop-color:#C63140"/>
				<stop  offset="0.7725" style="stop-color:#9B2733"/>
				<stop  offset="1" style="stop-color:#82202B"/>
			</linearGradient>
			<path fill="url(#SVGID_11_)" d="M592.496,48.624c-0.074,1.115-0.632,2.453-1.673,4.013c-1.188,1.784-3.085,3.939-5.685,6.466
				c-6.02,5.795-13.97,11.555-23.854,17.278c-9.956,5.795-18.986,9.809-27.085,12.038c-3.418,0.966-6.244,1.56-8.474,1.783
				c-1.559,0-2.86-0.185-3.901-0.558c1.114,1.412,1.896,2.824,2.343,4.236c-0.074,0.967,0.073,1.784,0.444,2.453l0.113,0.112
				l0.11,0.222c0.521,0.817,1.522,1.413,3.009,1.784c2.527,0.521,6.316,0.111,11.371-1.227c8.173-2.154,17.238-6.131,27.197-11.926
				c9.884-5.649,17.834-11.482,23.854-17.501c2.972-3.121,5.016-5.723,6.131-7.803c0.893-1.932,1.077-3.493,0.557-4.682
				l-0.557-1.003c-0.148-0.074-0.299-0.222-0.446-0.445C594.688,52.526,593.536,50.779,592.496,48.624z"/>
			
				<linearGradient id="SVGID_12_" gradientUnits="userSpaceOnUse" x1="629.7939" y1="202.6604" x2="469.9507" y2="130.2628" gradientTransform="matrix(1 0 0 -1 9.29 287.389)">
				<stop  offset="0" style="stop-color:#7A1F28"/>
				<stop  offset="0.4" style="stop-color:#982631"/>
				<stop  offset="0.5843" style="stop-color:#C63140"/>
				<stop  offset="0.7725" style="stop-color:#9B2733"/>
				<stop  offset="1" style="stop-color:#82202B"/>
			</linearGradient>
			<path fill="url(#SVGID_12_)" d="M655.587,67.463c-0.148-0.297-0.297-0.595-0.444-0.893c-3.717-6.465-14.306-7.765-31.769-3.901
				c-1.041,0.223-2.008,0.446-2.9,0.669c0.372,0,0.671,0,0.893,0l8.583,0.334c0.966-0.223,1.896-0.334,2.786-0.334
				c2.974-0.297,5.539-0.297,7.692,0h0.11c0.671,0.148,1.263,0.334,1.785,0.558c2.452,0.594,4.234,1.746,5.35,3.455h0.11
				c0,0.075,0.04,0.149,0.113,0.223c3.046,5.35-1.263,13.934-12.932,25.749c-11.739,11.593-27.421,23.038-47.039,34.333
				c-19.618,11.294-37.416,19.097-53.394,23.409c-16.052,4.16-25.638,3.528-28.758-1.896c-1.339-2.155-1.263-4.942,0.222-8.36
				c0.967-2.525,2.676-5.349,5.127-8.471c1.413-2.451,2.75-4.83,4.013-7.133c-11.889,12.931-15.938,22.591-12.148,28.98
				c0.074,0.225,0.186,0.446,0.333,0.671c4.087,6.018,14.603,7.132,31.547,3.344c17.537-4.015,36.822-12.076,57.853-24.189
				c20.955-12.113,37.564-24.708,49.826-37.788C654.213,83.663,658.561,74.076,655.587,67.463z"/>
			
				<radialGradient id="SVGID_13_" cx="-161.9351" cy="317.3137" r="31.0231" gradientTransform="matrix(-0.0216 -0.9998 -4.1149 0.0925 1587.8612 115.8652)" gradientUnits="userSpaceOnUse">
				<stop  offset="0" style="stop-color:#111111"/>
				<stop  offset="0.549" style="stop-color:#1A1A1A"/>
				<stop  offset="1" style="stop-color:#000000"/>
			</radialGradient>
			<path fill="url(#SVGID_13_)" d="M275.479,286.275c-31.657,0-58.707,2.527-81.149,7.581c-22.369,5.053-33.553,11.109-33.553,18.17
				c0,7.132,11.184,13.226,33.553,18.279c22.442,5.053,49.492,7.58,81.149,7.58c31.656,0,58.669-2.527,81.038-7.58
				c22.441-5.054,33.663-11.147,33.663-18.279c0-7.061-11.221-13.117-33.663-18.17C334.148,288.802,307.136,286.275,275.479,286.275
				z"/>
			
				<linearGradient id="SVGID_14_" gradientUnits="userSpaceOnUse" x1="253.5269" y1="52.0363" x2="265.1746" y2="52.5379" gradientTransform="matrix(1 0 0 -1 9.29 287.389)">
				<stop  offset="0.251" style="stop-color:#000000"/>
				<stop  offset="0.6196" style="stop-color:#2F2F2F"/>
				<stop  offset="0.8667" style="stop-color:#000000"/>
			</linearGradient>
			<path fill="url(#SVGID_14_)" d="M274.253,244.92c-1.263-4.606-2.304-8.508-3.121-11.704c-1.412-6.02-2.526-11.778-3.344-17.277
				c-1.115,8.471-2.824,18.059-5.127,28.76c-0.817,6.537,1.338,9.733,6.465,9.585c2.898-0.147,4.645-1.003,5.239-2.564
				C275.107,250.456,275.07,248.19,274.253,244.92z"/>
			
				<linearGradient id="SVGID_15_" gradientUnits="userSpaceOnUse" x1="253.9448" y1="130.03" x2="264.981" y2="130.4759" gradientTransform="matrix(1 0 0 -1 9.29 287.389)">
				<stop  offset="0.251" style="stop-color:#000000"/>
				<stop  offset="0.6196" style="stop-color:#2F2F2F"/>
				<stop  offset="0.8667" style="stop-color:#000000"/>
			</linearGradient>
			<path fill="url(#SVGID_15_)" d="M269.237,175.252c2.75-0.148,4.421-0.93,5.016-2.341c0.669-1.188,0.669-3.307,0-6.353
				c-1.263-4.385-2.267-8.101-3.009-11.146c-1.412-5.722-2.453-11.187-3.122-16.388c-1.04,8.102-2.675,17.204-4.904,27.311
				C262.4,172.429,264.407,175.403,269.237,175.252z"/>
		</g>
	</g>
	<g>
		
			<path id="Layer0_0_1_STROKES" fill="none" stroke="#3E0000" stroke-width="1.5" stroke-linecap="round" stroke-linejoin="round" d="
			M597.958,14.292c1.337,1.858,2.639,3.678,3.901,5.461c30.171-20.287,49.791-33.403,58.856-39.349
			c13.82-9.065,22.441-14.119,25.86-15.159c3.938-1.115,7.913-1.188,11.926-0.223c-10.181-3.715-18.688-3.938-25.524-0.668
			L597.958,14.292c-3.751-5.379-7.524-10.989-11.314-16.833 M583.132-8.002l-1.727-2.787c-2.952-4.651-5.906-9.444-8.863-14.38
			c-1.188-0.892-2.34-1.078-3.455-0.557c-1.188,0.743-1.596,1.784-1.226,3.121c2.946,4.788,5.789,9.506,8.528,14.157
			c2.281,3.893,4.491,7.739,6.631,11.538c3.018,5.368,5.881,10.625,8.585,15.772l3.788,6.465c-0.124,1.413-3.875,4.608-11.258,9.587
			c-5.842,3.944-13.94,8.997-24.299,15.159 M642.323-2.762c16.349-11.37,30.171-20.101,41.466-26.195
			c10.106-3.27,19.137-1.412,27.088,5.573c1.41,1.56,2.821,3.158,4.234,4.793c0.076,0.223,0.185,0.408,0.335,0.557
			c17.611,20.51,34.035,42.692,49.269,66.547c7.504,10.7,10.069,20.472,7.691,29.316c-3.714,10.626-11.741,17.575-24.076,20.845
			c-7.356-0.372-14.75-3.27-22.184-8.695c-2.749-2.08-5.536-4.57-8.359-7.468c-12.113-12.484-24.375-26.827-36.785-43.027
			C659.303,9.684,646.41-4.397,642.323-2.762l-41.132,26.641 M620.474,63.338c0.893-0.223,1.859-0.446,2.9-0.669
			c17.463-3.863,28.052-2.563,31.769,3.901c0.147,0.298,0.296,0.596,0.444,0.893l64.094,124.845
			c3.345,6.762-0.444,16.311-11.368,28.646c-11.147,12.634-26.531,24.6-46.148,35.895c-19.618,11.221-37.676,18.503-54.174,21.847
			c-16.572,3.269-26.789,1.562-30.654-5.127c-0.147-0.147-0.261-0.298-0.335-0.446L503.32,154.855
			c-0.147-0.225-0.259-0.446-0.333-0.671c-3.79-6.39,0.26-16.05,12.148-28.98c4.981-9.066,9.216-17.984,12.708-26.752
			c-1.486-0.371-2.488-0.967-3.009-1.784l-0.11-0.222l-0.113-0.112c-0.371-0.668-0.519-1.486-0.444-2.453
			c-0.446-1.412-1.229-2.824-2.343-4.236c-0.891-0.297-1.524-0.78-1.895-1.449c-0.147-0.297-0.222-0.557-0.222-0.78
			c-0.074-0.148-0.188-0.223-0.335-0.223c-2.452-2.081-4.198-5.127-5.238-9.14c-0.074,0-0.113-0.037-0.113-0.112
			c-1.317-2.417,0.932-6.447,6.744-12.094l-16.219-3.957c0-0.926,0.02-1.836,0.057-2.731 M507.446,43.218
			c0.318-0.854,0.653-1.69,1.002-2.508l35.226,5.796l21.179-12.205 M698.502-34.977c9.514,2.082,19.211,9.958,29.095,23.632
			l42.358,59.189c11.517,19.693,10.328,35.001-3.568,45.925c-13.822,13.079-29.872,11.11-48.153-5.908
			c-16.646-16.794-30.913-33.144-42.805-49.046c-18.057-26.009-29.465-38.419-34.22-37.231l-54.287,35.447
			c2.149,2.316,3.56,5.028,4.237,8.138c0,0.222,0.073,0.445,0.222,0.668c0.299,0.223,0.558,0.483,0.781,0.78
			c0.297,0.594,0.41,1.263,0.334,2.006c1.04,2.155,2.192,3.901,3.455,5.239c0.147,0.223,0.298,0.371,0.446,0.445
			c0.149,0.149,0.298,0.372,0.446,0.669c0.074,0.074,0.11,0.186,0.11,0.334c0.521,1.189,0.336,2.75-0.557,4.682
			c1.04,0.148,2.007,0.334,2.897,0.557l21.179,2.787c0.372,0,0.671,0,0.893,0l8.583,0.334c0.966-0.223,1.896-0.334,2.786-0.334
			c2.974-0.297,5.539-0.297,7.692,0h0.11c0.671,0.148,1.263,0.334,1.785,0.558c2.452,0.594,4.234,1.746,5.35,3.455h0.11
			c0,0.075,0.04,0.149,0.113,0.223c3.046,5.35-1.263,13.934-12.932,25.749c-11.739,11.593-27.421,23.038-47.039,34.333
			c-19.618,11.294-37.416,19.097-53.394,23.409c-16.052,4.16-25.638,3.528-28.758-1.896c-1.339-2.155-1.263-4.942,0.222-8.36
			c0.967-2.525,2.676-5.349,5.127-8.471c1.413-2.451,2.75-4.83,4.013-7.133 M715.446-18.034
			c35.594,47.337,52.166,76.133,49.715,86.388c-2.081,10.478-9.288,18.466-21.626,23.966c-5.646,0.744-11.444-0.037-17.389-2.341
			 M508.951,43.274c-0.051-0.372-0.125-0.744-0.225-1.115c0.076,0.365,0.131,0.736,0.168,1.115 M509.005,43.831
			c0.488,4.31-0.015,8.434-1.504,12.373c-0.775,2.447-1.759,4.342-2.954,5.686 M509.005,43.831
			c-0.017-0.186-0.034-0.371-0.054-0.557 M508.448,40.71c0.122,0.468,0.218,0.952,0.278,1.449 M509.005,44.723
			c0.127,2.225-0.061,4.714-0.557,7.469c-0.271,1.474-0.586,2.812-0.947,4.012 M550.083,47.454l-6.409-0.948 M528.959,67.797
			l-8.193-1.951 M586.589,37.254c0.315,1.937-0.983,4.649-3.901,8.137c-0.967,1.041-2.081,2.192-3.344,3.456
			c-4.757,4.533-10.737,8.992-17.948,13.376c-1.931,1.337-3.976,2.601-6.131,3.789c-2.155,1.264-4.271,2.416-6.353,3.456
			c-7.507,4.013-14.38,6.912-20.622,8.694c-1.783,0.521-3.381,0.929-4.794,1.226h-0.111c-5.053,0.893-8.136,0.446-9.25-1.337
			 M528.959,67.797c13.927-4.866,22.679-10.048,26.251-15.55 M586.589,37.254l-42.804,27.979
			c-6.316,2.972-11.258,3.826-14.826,2.563 M586.922,37.031l-0.333,0.223 M592.496,48.624c-0.074,1.115-0.632,2.453-1.673,4.013
			c-1.188,1.784-3.085,3.939-5.685,6.466c-6.02,5.795-13.97,11.555-23.854,17.278c-9.956,5.795-18.986,9.809-27.085,12.038
			c-3.418,0.966-6.244,1.56-8.474,1.783c-1.559,0-2.86-0.185-3.901-0.558c-0.592-0.817-1.3-1.56-2.116-2.229 M591.381,45.838
			c0.372,0.966,0.742,1.895,1.115,2.787 M596.397,59.994c-1.115,2.08-3.159,4.682-6.131,7.803
			c-6.021,6.019-13.971,11.852-23.854,17.501c-9.959,5.795-19.024,9.772-27.197,11.926c-5.055,1.337-8.844,1.747-11.371,1.227
			 M596.397,54.309l0.557,1.003 M634.074,63.673c1.615-0.056,3.214-0.129,4.792-0.223c0.522-0.037,1.041-0.074,1.562-0.111
			 M632.735,63.338c0.522,0.074,0.967,0.187,1.339,0.334c-1.339,0-2.713,0-4.125,0 M634.074,63.673
			c2.527,0.594,4.309,1.746,5.35,3.455c2.676,4.757-1.3,12.448-11.927,23.074c-10.626,10.626-24.819,21.068-42.58,31.323
			c-17.835,10.18-33.998,17.278-48.489,21.291c-14.564,3.79-23.223,3.27-25.973-1.562c-1.188-2.005-1.263-4.569-0.222-7.691
			c-1.339,2.303-2.752,4.72-4.237,7.245 M575.164,28.337l16.441-9.475 M503.32,154.855c4.087,6.018,14.603,7.132,31.547,3.344
			c17.537-4.015,36.822-12.076,57.853-24.189c20.955-12.113,37.564-24.708,49.826-37.788c11.667-12.559,16.015-22.146,13.041-28.758
			 M510.233,133.563c0.37-0.37,0.668-0.78,0.89-1.226"/>
	</g>
	<g>
		
			<path id="Layer0_0_2_STROKES" fill="none" stroke="#333333" stroke-width="1.5" stroke-linecap="round" stroke-linejoin="round" d="
			M586.644-2.54c-0.159-0.25-0.329-0.511-0.501-0.779c-1.004-1.543-2.007-3.104-3.011-4.682 M496.3,60.663
			c-27.125-6.019-57.185-1.189-90.179,14.491c-36.266,15.978-72.046,32.772-107.345,50.384l-12.484,6.688
			c-0.372-0.371-0.669-0.744-0.893-1.115 M278.711,119.072c-0.297-0.669-0.557-1.301-0.779-1.895l12.373-6.242
			c36.116-17.91,72.38-34.891,108.793-50.941c32.772-15.68,66.102-22.183,99.988-19.507 M564.853,34.301l0.333-0.279l2.787-22.406
			c2.453-8.174,5.352-14.639,8.695-19.395l-0.278-0.669 M623.818-71.651c-1.783-0.595-4.533,0.446-8.247,3.122
			c-4.981,8.621-9.104,17.946-12.375,27.979c-6.464,11.147-12.745,19.47-18.837,24.969c-1.339,0.892-2.639,1.969-3.901,3.232
			l0.947,1.561 M583.132-8.002c1.638-2.006,3.418-3.975,5.352-5.908c10.776-7.803,17.835-16.572,21.179-26.307l11.258-28.424
			c0.816-1.412,1.783-2.415,2.898-3.01c0.966-0.52,2.081-0.706,3.344-0.558c1.934,1.264,2.935,3.085,3.011,5.462l-19.618,39.348
			l-11.817,12.039c-4.902,3.27-9.103,7.284-12.595,12.04 M555.21,52.247l-0.278,0.168c-2.646-0.843-4.263-2.496-4.849-4.961
			 M553.706,45.391c-0.372,1.858,0.891,2.081,3.788,0.669c7.185-2.801,11.46-7.78,12.818-14.938c0.285-1.559,0.434-3.23,0.447-5.016
			c0.149-10.477,3.045-20.175,8.695-29.093l-2.787-4.793 M550.083,47.454c-0.156-0.559-0.252-1.172-0.278-1.839l15.048-11.313
			 M549.805,45.614l3.901-0.223c3.714-3.863,7.098-6.019,10.144-6.465 M555.21,52.247l17.11-11.314l2.844-12.596l0.946-4.125
			c1.039-8.322,3.194-15.567,6.464-21.736l-3.119-5.461 M582.574,2.476l0.446,0.614 M285.399,131.111
			c-2.674-3.715-4.904-7.729-6.688-12.039 M290.305,110.936c2.155,5.424,4.979,10.292,8.471,14.602"/>
	</g>
	<g>
		
			<path id="Layer0_0_3_STROKES" fill="none" stroke="#39251A" stroke-width="1.5" stroke-linecap="round" stroke-linejoin="round" d="
			M504.604,59.158l-1.729-0.391l-0.78,2.007l-5.795-0.112 M285.399,131.111l-15.605,3.455c-1.634-1.038-2.601-2.786-2.897-5.238
			l11.37-10.144 M499.086,40.487l7.021,1.003v1.672l1.339,0.057 M508.895,43.274h0.057h0.054 M502.875,58.767
			c1.075-2.284,1.894-4.606,2.453-6.967c0.137-0.937,0.303-1.866,0.501-2.787c0.268-1.933,0.361-3.884,0.278-5.852 M508.895,43.274
			l-1.448-0.056 M504.604,59.158l1.282,0.278 M499.086,40.487c0.967,6.539,0.035,13.264-2.786,20.176"/>
	</g>
	<g>
		
			<path id="Layer0_0_4_STROKES" fill="none" stroke="#000000" stroke-width="1.5" stroke-linecap="round" stroke-linejoin="round" d="
			M269.237,175.252c2.75-0.148,4.421-0.93,5.016-2.341c0.669-1.188,0.669-3.307,0-6.353c-1.263-4.385-2.267-8.101-3.009-11.146
			c-1.412-5.722-2.453-11.187-3.122-16.388c-1.04,8.102-2.675,17.204-4.904,27.311C262.4,172.429,264.407,175.403,269.237,175.252z
			 M274.365,251.719c-0.594,1.562-2.341,2.417-5.239,2.564c-5.127,0.148-7.282-3.048-6.465-9.585
			c2.303-10.701,4.012-20.289,5.127-28.76c0.818,5.499,1.932,11.258,3.344,17.277c0.817,3.196,1.858,7.098,3.121,11.704
			C275.07,248.19,275.107,250.456,274.365,251.719z"/>
	</g>
</g>
</svg>
