<svg xmlns="http://www.w3.org/2000/svg" viewBox="0 0 103.65 102.7"><path fill-rule="evenodd" d="M13.05 40.05Q16.45 29.1 28 20.65L40.6 39 28 20.65q8.05-9.45 23.4-11.5 16-4.9 25.7 3.55 7.8 2.8 8.65 17.75 2.5 10.15-5.85 22.45-4.3 13.25-21.05 20.35-7.95 8.4-18.7 7.7-12.25 1.95-21.25-1.9-8.45-5.8-9.8-14.25-2-11.05 3.95-24.75L37 43.95l-23.95-3.9M40.6 39l.65 1.05q-.8 3.4-4.25 3.9 1.2 1.1 1.4 1.95.25 1-.7 2l-.35.2-.35.25q2 .85 2.45 1.5.6.8-.1 2.2l2.55.1 1.6 2.2.35-1.55q.5-1.35 1.7-1.8l2.5-.2.45.9q-.2-2.75.7-3.6.85-.75 3.4-.55l.55-.1-.6-.1q-3-.8-.85-3.1l2-.9q-2.4-.05-3.05-1-.6-.95.35-3.05L49.1 41q-1.45.6-2.1-.4-.45-.7-.6-2.35l.25-1.05q-1.25 2.55-2.4 2.9-1.2.35-3.65-1.1M18.9 79.05q3.9-4.2 9.85-12.2l10.6-14.75v-.05.05l-10.6 14.75q-5.95 8-9.85 12.2m61-26.15l-26.75-5.45L79.9 52.9M66.15 10.7q-9.8 13-15.1 23.35 5.3-10.35 15.1-23.35M35.6 15.6l6 20.45-6-20.45m15.8-6.45L46.65 37.2 51.4 9.15M51 39.3q5.35-6.45 13.05-14.2L77.1 12.7 64.05 25.1Q56.35 32.85 51 39.3m-33.95-4.75L35.6 41.1l-18.55-6.55m-6.35 17.3l22.45-2.25-22.45 2.25M23.95 28.6l12.4 10.75-12.4-10.75M53.7 43.35l32.05-12.9-32.05 12.9m24.35 7.1L61 47.05l17.05 3.4M79.9 38.9l-23 5.25 23-5.25m3.3-15.2q-14.65 7.4-27.6 16.45Q68.55 31.1 83.2 23.7M44.15 75.45V59.2v16.25m-.65-21.1l-3.35 26.6 3.35-26.6m11.2 18.4L49.05 59l5.65 13.75M28.75 76.5l9.35-18.7-9.35 18.7m-16.5-8.75l18.8-12.3-18.8 12.3M48.5 51.7l10.35 21.55L48.5 51.7m16.1 15.25L52 51.15l12.6 15.8M37 48.35L9.1 64.8 37 48.35" fill="#f8ae27"/><path fill-rule="evenodd" d="M3.95 72.9q-4.6-9.5-2.05-22.5 3.55-18.25 19.15-32.6Q36.65 3.4 55.1 1.3 69.7-.35 79.4 6.5q2.55 1.75 4.7 4.1 10.5 11.45 6.95 29.65-3.55 18.3-19.1 32.65-15.6 14.4-34.1 16.45-18.45 2.15-29-9.3-3-3.3-4.9-7.15M28 20.65q-11.55 8.45-14.95 19.4Q7.1 53.75 9.1 64.8q1.35 8.45 9.8 14.25 9 3.85 21.25 1.9 10.75.7 18.7-7.7Q75.6 66.15 79.9 52.9q8.35-12.3 5.85-22.45Q84.9 15.5 77.1 12.7q-9.7-8.45-25.7-3.55Q36.05 11.2 28 20.65m9 23.3q3.45-.5 4.25-3.9L40.6 39q2.45 1.45 3.65 1.1 1.15-.35 2.4-2.9l-.25 1.05q.15 1.65.6 2.35.65 1 2.1.4l1.9-1.7q-.95 2.1-.35 3.05.65.95 3.05 1l-2 .9q-2.15 2.3.85 3.1l.05.2q-2.55-.2-3.4.55-.9.85-.7 3.6l-.45-.9-2.5.2q-1.2.45-1.7 1.8l-.35 1.55-1.6-2.2-2.55-.1q.7-1.4.1-2.2-.45-.65-2.45-1.5l.35-.25.35-.2q.95-1 .7-2-.2-.85-1.4-1.95" fill="#feeba7"/><path fill-rule="evenodd" d="M79.4 6.5q8.1 3.6 13.15 11.3 6.4 9.75 8.7 19.4 2.95 12.45-.3 26.8Q97.6 78.45 84.6 89.2 72.65 98.95 59.05 101q-10.9 1.55-21.05-.4-9.35-1.75-16.65-6.2-13.8-8.45-17.4-21.5 1.9 3.85 4.9 7.15 10.55 11.45 29 9.3 18.5-2.05 34.1-16.45 15.55-14.35 19.1-32.65 3.55-18.2-6.95-29.65-2.15-2.35-4.7-4.1m14 34.9q-.75-.9-.15-1.7-.6.8.15 1.7m-.2 7.05q-.5-1.05.25-1.65-.75.6-.25 1.65m2.5-3.25q-.4-1.05.3-1.65-.7.6-.3 1.65m0-8.5q-.7-.9-.1-1.65-.6.75.1 1.65m2.35 4.7q-.7-.9-.1-1.7-.6.8.1 1.7m2.35 10.8q-.45-1.05.3-1.65-.75.6-.3 1.65M77.55 80.35q.15-1.15 1.15-1.3-1 .15-1.15 1.3m3.85 6.15q.4-1.05 1.4-.95-1-.1-1.4.95m-7.05 0q.45-1.05 1.4-.95-.95-.1-1.4.95m17.4-10.75q-.15-1.1.75-1.5-.9.4-.75 1.5m0-14q-.15-1.15.75-1.5-.9.35-.75 1.5m-7 16.35q-.15-1.1.75-1.5-.9.4-.75 1.5m2.35-7q-.15-1.1.7-1.5-.85.4-.7 1.5m-9.7 2.05q.45-1.05 1.35-.9-.9-.15-1.35.9m7.35-6.75q-.15-1.1.75-1.5-.9.4-.75 1.5m2.35-7q-.15-1.1.7-1.5-.85.4-.7 1.5m7 9.35q-.15-1.1.75-1.5-.9.4-.75 1.5m5.15-10.05q-.45-1 .3-1.65-.75.65-.3 1.65M65 84.15q.45-1.05 1.4-.95-.95-.1-1.4.95m3.05 4.45q.45-1.05 1.4-.95-.95-.1-1.4.95m2.1-5.4q.45-1.05 1.4-.9-.95-.15-1.4.9M56 87.5q.9-.7 1.7-.15-.8-.55-1.7.15m-1.15 6.05l1.65-.1-1.65.1m0 5.4q.85-.7 1.65-.15-.8-.55-1.65.15m7-7.05l1.7-.1-1.7.1m0 4.7l1.7-.1-1.7.1M40.8 91.2l1.7-.1-1.7.1m-2.35 4.7q.9-.7 1.7-.15-.8-.55-1.7.15m3.5 3.5l1.7-.1-1.7.1m5.85-7.5l1.7-.1-1.7.1m0 6.35q.9-.7 1.7-.15-.8-.55-1.7.15m-18.65-5.1q1.1-.15 1.5.75-.4-.9-1.5-.75M22.1 91q1-.4 1.65.3-.65-.7-1.65-.3m-7-2.55q1.1-.15 1.55.75-.45-.9-1.55-.75M72 93.5q.45-1.05 1.45-.95-1-.1-1.45.95m0-14q.45-1.05 1.45-.95-1-.1-1.45.95M31.45 98q1.05-.45 1.65.35-.6-.8-1.65-.35M92.2 55.2q-.4-1.05.35-1.65-.75.6-.35 1.65m3.5-.7q-.4-1.05.35-1.65-.75.6-.35 1.65" fill="#f26d04"/><path stroke-linejoin="round" d="M28 20.65q-11.55 8.45-14.95 19.4L37 43.95q3.45-.5 4.25-3.9L40.6 39 28 20.65q8.05-9.45 23.4-11.5 16-4.9 25.7 3.55 7.8 2.8 8.65 17.75 2.5 10.15-5.85 22.45-4.3 13.25-21.05 20.35-7.95 8.4-18.7 7.7-12.25 1.95-21.25-1.9-8.45-5.8-9.8-14.25-2-11.05 3.95-24.75m39.5 7.3q-3-.8-.85-3.1l2-.9q-2.4-.05-3.05-1-.6-.95.35-3.05L49.1 41q-1.45.6-2.1-.4-.45-.7-.6-2.35l.25-1.05q-1.25 2.55-2.4 2.9-1.2.35-3.65-1.1M37 43.95q1.2 1.1 1.4 1.95.25 1-.7 2l-.35.2-.35.25q2 .85 2.45 1.5.6.8-.1 2.2l2.55.1 1.6 2.2.35-1.55q.5-1.35 1.7-1.8l2.5-.2.45.9q-.2-2.75.7-3.6.85-.75 3.4-.55l.55-.1L79.9 52.9m-27.35-5.55l.6.1m-13.8 4.6v.05l-10.6 14.75q-5.95 8-9.85 12.2M77.1 12.7L64.05 25.1Q56.35 32.85 51 39.3m-4.35-2.1L51.4 9.15m34.35 21.3L53.7 43.35m-13.55 37.6l3.35-26.6m15.35 18.9L48.5 51.7M9.1 64.8L37 48.35" stroke="#d55202" stroke-linecap="round" stroke-width="2" fill="none"/><path stroke-linejoin="round" d="M3.95 72.9q-4.6-9.5-2.05-22.5 3.55-18.25 19.15-32.6Q36.65 3.4 55.1 1.3 69.7-.35 79.4 6.5q8.1 3.6 13.15 11.3 6.4 9.75 8.7 19.4 2.95 12.45-.3 26.8Q97.6 78.45 84.6 89.2 72.65 98.95 59.05 101q-10.9 1.55-21.05-.4-9.35-1.75-16.65-6.2-13.8-8.45-17.4-21.5 1.9 3.85 4.9 7.15 10.55 11.45 29 9.3 18.5-2.05 34.1-16.45 15.55-14.35 19.1-32.65 3.55-18.2-6.95-29.65-2.15-2.35-4.7-4.1" stroke="#ad4201" stroke-linecap="round" stroke-width="2" fill="none"/><path stroke-linejoin="round" d="M41.6 36.05l-6-20.45m15.45 18.45q5.3-10.35 15.1-23.35m-29.8 28.65L23.95 28.6m9.2 21L10.7 51.85M35.6 41.1l-18.55-6.55m38.55 5.6Q68.55 31.1 83.2 23.7M56.9 44.15l23-5.25M61 47.05l17.05 3.4m-33.9 8.75v16.25M49.05 59l5.65 13.75m-23.65-17.3l-18.8 12.3M38.1 57.8l-9.35 18.7M52 51.15l12.6 15.8" stroke-opacity=".502" stroke="#fbf9af" stroke-linecap="round" stroke-width="2" fill="none"/><path stroke-linejoin="round" d="M100.7 50.55q-.75.6-.3 1.65m-2.45-12.5q-.6.8.1 1.7m-2.45-6.35q-.6.75.1 1.65m.3 6.85q-.7.6-.3 1.65m-2.25 1.6q-.75.6-.25 1.65m.05-8.75q-.6.8.15 1.7m6.15 15.65q-.75.65-.3 1.65m-4.4 8.55q-.9.4-.75 1.5M87.8 57.9q-.85.4-.7 1.5m-1.6 5.5q-.9.4-.75 1.5m-6 5.85q-.9-.15-1.35.9m10.4-3.55q-.85.4-.7 1.5m-1.6 5.5q-.9.4-.75 1.5m7.75-17.85q-.9.35-.75 1.5m.75 12.5q-.9.4-.75 1.5m-16 9.8q-.95-.1-1.4.95m8.45-.95q-1-.1-1.4.95m-2.7-7.45q-1 .15-1.15 1.3M49.5 98.1q-.8-.55-1.7.15m1.7-6.45l-1.7.1m-4.15 7.4l-1.7.1m-1.8-3.65q-.8-.55-1.7.15m4.05-4.8l-1.7.1m22.75 5.3l-1.7.1m1.7-4.8l-1.7.1m-5.35 6.9q-.8-.55-1.65.15m1.65-5.5l-1.65.1m2.85-6.2q-.8-.55-1.7.15m15.55-5.2q-.95-.15-1.4.9m-.7 4.45q-.95-.1-1.4.95m-1.65-5.4q-.95-.1-1.4.95M16.65 89.2q-.45-.9-1.55-.75m8.65 2.85q-.65-.7-1.65-.3m8.55 2.9q-.4-.9-1.5-.75m3.95 5.2q-.6-.8-1.65-.35m42-19.45q-1-.1-1.45.95m1.45 13.05q-1-.1-1.45.95m24.05-40.65q-.75.6-.35 1.65m-3.15-.95q-.75.6-.35 1.65" stroke="#a33e01" stroke-linecap="round" stroke-width="2" fill="none"/></svg>