<svg xmlns="http://www.w3.org/2000/svg" width="900" height="450" viewBox="0 0 900 450"><g><linearGradient id="a" gradientUnits="userSpaceOnUse" x1="-32.551" y1="77.424" x2="562.526" y2="77.424" gradientTransform="matrix(1 0 0 -1 29.04 379.34)"><stop offset="0" stop-color="#2b2b2b"/><stop offset=".239" stop-color="#f8f8f8"/><stop offset="1" stop-color="gray"/></linearGradient><path fill="url(#a)" d="M309.699 418.483c59.838 0 110.782-9.109 152.834-27.328 18.047-7.6 31.561-16.448 40.538-26.552 8.032-8.723 13.126-19.038 15.284-30.955l6.477-145.968c-8.809 16.491-28.583 31.128-59.321 43.907-43.432 18.219-95.412 27.328-155.94 27.328-60.443 0-112.423-9.109-155.942-27.328-20.291-8.636-35.661-17.874-46.108-27.717-6.044-5.699-10.664-11.873-13.859-18.522l6.864 140.142c0 25.817 21.068 47.704 63.205 65.665 21.673 9.41 43.865 16.232 66.574 20.465 23.658 4.573 50.123 6.863 79.394 6.863z"/><path fill="#DFDFDF" d="M811.975 46.634c-3.711-11.829-13.557-16.923-29.528-15.283l-302.56 75.51c19.17 9.671 32.898 20.248 41.188 31.732l290.9-91.959z"/><path fill="#B0B0B0" d="M529.883 162.035l.13 5.311v1.943L803.427 62.695c6.132-4.318 8.98-9.671 8.548-16.061l-290.899 91.958c5.18 7.34 8.114 15.155 8.807 23.443z"/><linearGradient id="b" gradientUnits="userSpaceOnUse" x1="280.466" y1="466.012" x2="280.466" y2="-39.175" gradientTransform="matrix(1 0 0 -1 29.04 379.34)"><stop offset="0" stop-color="#2b2b2b"/><stop offset=".165" stop-color="#a0a0a0"/><stop offset=".224" stop-color="#f8f8f8"/><stop offset=".282" stop-color="#9a9a9a"/><stop offset=".369" stop-color="#666"/><stop offset=".463" stop-color="#909090"/><stop offset=".533" stop-color="#f7f7f7"/><stop offset=".635" stop-color="#666"/><stop offset=".706" stop-color="#575757"/><stop offset=".776" stop-color="#7a7a7a"/><stop offset=".871" stop-color="#f7f7f7"/><stop offset=".929" stop-color="#9a9a9a"/><stop offset="1" stop-color="#555"/></linearGradient><path fill="url(#b)" d="M529.235 175.246c.431-1.813.688-3.798.777-5.957v-1.943l-.13-5.311c-.692-8.289-3.627-16.103-8.808-23.443-8.29-11.484-22.019-22.061-41.188-31.732a250.542 250.542 0 0 0-14.376-6.605c-42.914-18.133-94.895-27.199-155.94-27.199-61.133 0-113.114 9.066-155.942 27.199-43.086 17.959-64.629 39.849-64.629 65.665v3.498a51.965 51.965 0 0 0 4.662 15.931c3.195 6.649 7.814 12.823 13.859 18.522 10.448 9.843 25.818 19.082 46.108 27.717 43.519 18.219 95.499 27.328 155.942 27.328 60.529 0 112.508-9.109 155.94-27.328 30.738-12.779 50.513-27.416 59.321-43.907a46.544 46.544 0 0 0 4.404-12.435m-18.651-36.135c7.943 10.533 10.534 21.585 7.771 33.156-4.146 19.6-24.437 36.61-60.874 51.031-41.274 16.404-90.708 24.608-148.3 24.608-57.68 0-107.243-8.204-148.689-24.608-19.34-7.858-33.977-16.233-43.906-25.127-10.189-9.326-16.061-20.809-17.615-34.452 0-23.313 20.508-43.174 61.521-59.579 40.929-16.406 90.492-24.608 148.689-24.608 58.111 0 107.544 8.203 148.3 24.608 5.006 1.986 9.585 4.015 13.729 6.086 18.391 8.722 31.515 18.35 39.374 28.885z"/><linearGradient id="c" gradientUnits="userSpaceOnUse" x1="69.931" y1="215.62" x2="490.385" y2="215.62" gradientTransform="matrix(1 0 0 -1 29.04 379.34)"><stop offset="0" stop-color="#666"/><stop offset=".259" stop-color="#eee"/><stop offset="1" stop-color="#6f6f6f"/></linearGradient><path fill="url(#c)" d="M518.355 172.268c2.763-11.571.172-22.623-7.771-33.156-7.859-10.535-20.983-20.163-39.374-28.884-4.144-2.072-8.723-4.101-13.729-6.086-40.755-16.406-90.189-24.608-148.3-24.608-58.197 0-107.76 8.203-148.689 24.608-41.014 16.405-61.521 36.266-61.521 59.579 1.554 13.643 7.426 25.126 17.615 34.452 9.929 8.894 24.566 17.269 43.906 25.127 41.446 16.404 91.009 24.608 148.689 24.608 57.592 0 107.025-8.204 148.3-24.608 36.438-14.422 56.728-31.433 60.874-51.032z"/></g><path fill="none" stroke="#333" stroke-width="2" stroke-linecap="round" stroke-linejoin="round" d="M524.832 187.681a46.576 46.576 0 0 0 4.403-12.435c.431-1.813.688-3.798.777-5.957v-1.943l-.13-5.311c-.692-8.289-3.627-16.103-8.808-23.443-8.29-11.484-22.019-22.061-41.188-31.732a250.542 250.542 0 0 0-14.376-6.605c-42.914-18.133-94.895-27.199-155.94-27.199-61.133 0-113.114 9.066-155.942 27.199-43.086 17.959-64.629 39.849-64.629 65.665v3.498a51.965 51.965 0 0 0 4.662 15.931c3.195 6.649 7.814 12.823 13.859 18.522 10.448 9.843 25.818 19.082 46.108 27.717 43.519 18.219 95.499 27.328 155.942 27.328 60.529 0 112.508-9.109 155.94-27.328 30.739-12.779 50.513-27.416 59.322-43.907l-6.477 145.968c-2.158 11.917-7.252 22.232-15.284 30.955-8.978 10.104-22.491 18.952-40.538 26.552-42.052 18.219-92.996 27.328-152.834 27.328-29.271 0-55.736-2.29-79.395-6.863-22.709-4.232-44.9-11.055-66.574-20.465-42.137-17.961-63.205-39.848-63.205-65.665l-6.864-140.142m377.549-75.122c18.391 8.721 31.515 18.349 39.374 28.884 7.943 10.533 10.534 21.585 7.771 33.156-4.146 19.6-24.437 36.61-60.874 51.031-41.274 16.404-90.708 24.608-148.3 24.608-57.68 0-107.243-8.204-148.689-24.608-19.34-7.858-33.977-16.233-43.906-25.127-10.189-9.326-16.061-20.809-17.615-34.452 0-23.313 20.508-43.174 61.521-59.579 40.929-16.406 90.492-24.608 148.689-24.608 58.111 0 107.544 8.203 148.3 24.608 5.006 1.986 9.585 4.015 13.729 6.087zm340.765-63.593c-3.711-11.829-13.557-16.923-29.528-15.283l-302.56 75.51m332.088-60.227c.433 6.39-2.416 11.743-8.548 16.061L530.013 169.289m-8.938-30.697l290.899-91.958"/></svg>