<?xml version="1.0" encoding="utf-8"?>
<!-- Generator: Adobe Illustrator 16.0.0, SVG Export Plug-In . SVG Version: 6.00 Build 0)  -->
<!DOCTYPE svg PUBLIC "-//W3C//DTD SVG 1.1//EN" "http://www.w3.org/Graphics/SVG/1.1/DTD/svg11.dtd">
<svg version="1.1" id="Layer_1" xmlns="http://www.w3.org/2000/svg" xmlns:xlink="http://www.w3.org/1999/xlink" x="0px" y="0px"
	 width="900px" height="450px" viewBox="0 0 900 450" enable-background="new 0 0 900 450" xml:space="preserve">
<g transform="matrix( 1, 0, 0, 1, 0,0) ">
	<g>
		<g id="Layer0_0_FILL">
			
				<linearGradient id="SVGID_1_" gradientUnits="userSpaceOnUse" x1="-32.5513" y1="77.4238" x2="562.5261" y2="77.4238" gradientTransform="matrix(1 0 0 -1 29.04 379.3398)">
				<stop  offset="0" style="stop-color:#2B2B2B"/>
				<stop  offset="0.2392" style="stop-color:#F8F8F8"/>
				<stop  offset="1" style="stop-color:#808080"/>
			</linearGradient>
			<path fill="url(#SVGID_1_)" d="M309.699,418.483c59.838,0,110.782-9.109,152.834-27.328c18.047-7.6,31.561-16.448,40.538-26.552
				c8.032-8.723,13.126-19.038,15.284-30.955l6.477-145.968c-8.809,16.491-28.583,31.128-59.321,43.907
				c-43.432,18.219-95.412,27.328-155.94,27.328c-60.443,0-112.423-9.109-155.942-27.328c-20.291-8.636-35.661-17.874-46.108-27.717
				c-6.044-5.699-10.664-11.873-13.859-18.522l6.864,140.142c0,25.817,21.068,47.704,63.205,65.665
				c21.673,9.41,43.865,16.232,66.574,20.465C253.963,416.193,280.428,418.483,309.699,418.483z"/>
			<path fill="#DFDFDF" d="M811.975,46.634c-3.711-11.829-13.557-16.923-29.528-15.283l-302.56,75.51
				c19.17,9.671,32.898,20.248,41.188,31.732L811.975,46.634z"/>
			<path fill="#B0B0B0" d="M529.883,162.035l0.13,5.311v1.943L803.427,62.695c6.132-4.318,8.98-9.671,8.548-16.061l-290.899,91.958
				C526.256,145.932,529.19,153.747,529.883,162.035z"/>
			
				<linearGradient id="SVGID_2_" gradientUnits="userSpaceOnUse" x1="280.4658" y1="466.0117" x2="280.4658" y2="-39.1753" gradientTransform="matrix(1 0 0 -1 29.04 379.3398)">
				<stop  offset="0" style="stop-color:#2B2B2B"/>
				<stop  offset="0.1647" style="stop-color:#A0A0A0"/>
				<stop  offset="0.2235" style="stop-color:#F8F8F8"/>
				<stop  offset="0.2824" style="stop-color:#9A9A9A"/>
				<stop  offset="0.3686" style="stop-color:#666666"/>
				<stop  offset="0.4627" style="stop-color:#909090"/>
				<stop  offset="0.5333" style="stop-color:#F7F7F7"/>
				<stop  offset="0.6353" style="stop-color:#666666"/>
				<stop  offset="0.7059" style="stop-color:#575757"/>
				<stop  offset="0.7765" style="stop-color:#7A7A7A"/>
				<stop  offset="0.8706" style="stop-color:#F7F7F7"/>
				<stop  offset="0.9294" style="stop-color:#9A9A9A"/>
				<stop  offset="1" style="stop-color:#555555"/>
			</linearGradient>
			<path fill="url(#SVGID_2_)" d="M529.235,175.246c0.431-1.813,0.688-3.798,0.777-5.957v-1.943l-0.13-5.311
				c-0.692-8.289-3.627-16.103-8.808-23.443c-8.29-11.484-22.019-22.061-41.188-31.732c-4.487-2.245-9.281-4.447-14.376-6.605
				c-42.914-18.133-94.895-27.199-155.94-27.199c-61.133,0-113.114,9.066-155.942,27.199
				c-43.086,17.959-64.629,39.849-64.629,65.665v3.498c0.69,5.526,2.245,10.837,4.662,15.931
				c3.195,6.649,7.814,12.823,13.859,18.522c10.448,9.843,25.818,19.082,46.108,27.717c43.519,18.219,95.499,27.328,155.942,27.328
				c60.529,0,112.508-9.109,155.94-27.328c30.738-12.779,50.513-27.416,59.321-43.907
				C526.903,183.708,528.37,179.563,529.235,175.246 M510.584,139.111c7.943,10.533,10.534,21.585,7.771,33.156
				c-4.146,19.6-24.437,36.61-60.874,51.031c-41.274,16.404-90.708,24.608-148.3,24.608c-57.68,0-107.243-8.204-148.689-24.608
				c-19.34-7.858-33.977-16.233-43.906-25.127c-10.189-9.326-16.061-20.809-17.615-34.452c0-23.313,20.508-43.174,61.521-59.579
				c40.929-16.406,90.492-24.608,148.689-24.608c58.111,0,107.544,8.203,148.3,24.608c5.006,1.986,9.585,4.015,13.729,6.086
				C489.601,118.948,502.725,128.576,510.584,139.111z"/>
			
				<linearGradient id="SVGID_3_" gradientUnits="userSpaceOnUse" x1="69.9312" y1="215.6201" x2="490.3848" y2="215.6201" gradientTransform="matrix(1 0 0 -1 29.04 379.3398)">
				<stop  offset="0" style="stop-color:#666666"/>
				<stop  offset="0.2588" style="stop-color:#EEEEEE"/>
				<stop  offset="1" style="stop-color:#6F6F6F"/>
			</linearGradient>
			<path fill="url(#SVGID_3_)" d="M518.355,172.268c2.763-11.571,0.172-22.623-7.771-33.156
				c-7.859-10.535-20.983-20.163-39.374-28.884c-4.144-2.072-8.723-4.101-13.729-6.086c-40.755-16.406-90.189-24.608-148.3-24.608
				c-58.197,0-107.76,8.203-148.689,24.608c-41.014,16.405-61.521,36.266-61.521,59.579c1.554,13.643,7.426,25.126,17.615,34.452
				c9.929,8.894,24.566,17.269,43.906,25.127c41.446,16.404,91.009,24.608,148.689,24.608c57.592,0,107.025-8.204,148.3-24.608
				C493.919,208.878,514.209,191.867,518.355,172.268z"/>
		</g>
	</g>
	<g>
		<path id="Layer0_0_1_STROKES" fill="none" stroke="#333333" stroke-width="2" stroke-linecap="round" stroke-linejoin="round" d="
			M524.832,187.681c2.071-3.973,3.538-8.118,4.403-12.435c0.431-1.813,0.688-3.798,0.777-5.957v-1.943l-0.13-5.311
			c-0.692-8.289-3.627-16.103-8.808-23.443c-8.29-11.484-22.019-22.061-41.188-31.732c-4.487-2.245-9.281-4.447-14.376-6.605
			c-42.914-18.133-94.895-27.199-155.94-27.199c-61.133,0-113.114,9.066-155.942,27.199c-43.086,17.959-64.629,39.849-64.629,65.665
			v3.498c0.69,5.526,2.245,10.837,4.662,15.931c3.195,6.649,7.814,12.823,13.859,18.522c10.448,9.843,25.818,19.082,46.108,27.717
			c43.519,18.219,95.499,27.328,155.942,27.328c60.529,0,112.508-9.109,155.94-27.328
			C496.249,218.809,516.023,204.172,524.832,187.681l-6.477,145.968c-2.158,11.917-7.252,22.232-15.284,30.955
			c-8.978,10.104-22.491,18.952-40.538,26.552c-42.052,18.219-92.996,27.328-152.834,27.328c-29.271,0-55.736-2.29-79.395-6.863
			c-22.709-4.232-44.9-11.055-66.574-20.465c-42.137-17.961-63.205-39.848-63.205-65.665l-6.864-140.142 M471.21,110.227
			c18.391,8.721,31.515,18.349,39.374,28.884c7.943,10.533,10.534,21.585,7.771,33.156c-4.146,19.6-24.437,36.61-60.874,51.031
			c-41.274,16.404-90.708,24.608-148.3,24.608c-57.68,0-107.243-8.204-148.689-24.608c-19.34-7.858-33.977-16.233-43.906-25.127
			c-10.189-9.326-16.061-20.809-17.615-34.452c0-23.313,20.508-43.174,61.521-59.579c40.929-16.406,90.492-24.608,148.689-24.608
			c58.111,0,107.544,8.203,148.3,24.608C462.487,106.126,467.066,108.155,471.21,110.227z M811.975,46.634
			c-3.711-11.829-13.557-16.923-29.528-15.283l-302.56,75.51 M811.975,46.634c0.433,6.39-2.416,11.743-8.548,16.061L530.013,169.289
			 M521.075,138.592l290.899-91.958"/>
	</g>
</g>
</svg>
