<svg xmlns="http://www.w3.org/2000/svg" width="900" height="450" viewBox="0 0 900 450"><path fill="#5E9142" d="M759.776 227.082c-34.215 18.073-62.256 37.823-84.124 59.244-39.274 38.381-58.873 82.192-58.8 131.433a2036.292 2036.292 0 0 1 9.262 20.641h133.662V227.082M239.74 286.326c-25.141-28.189-58.203-51.585-99.187-70.179v222.252h158.32c-3.124-60.695-22.834-111.386-59.133-152.073z"/><path fill="#9B9187" d="M524.584 171.407c1.933-2.603 3.458-5.058 4.574-7.364 5.948-12.199 1.673-21.087-12.831-26.666-5.505-2.083-10.451-3.458-14.84-4.128-2.454-.372-8.22-.966-17.294-1.785-4.09-.372-9.928-.558-17.516-.558-7.439-.075-12.461.037-15.063.334 7.662 4.314 12.384 8.479 14.169 12.496 1.935 4.166-.035 9.484-5.912 15.955-2.009 6.248-7.699 13.054-17.071 20.417-7.587 5.728-17.516 11.901-29.789 18.521-6.992 4.76-12.646 9.855-16.959 15.285-3.868 4.91-6.992 10.451-9.373 16.625a60.813 60.813 0 0 0-1.45 3.905c-.447 1.412-.892 2.826-1.339 4.24 5.281 1.635 7.922 3.422 7.922 5.354 0 .372-.038.708-.112 1.005 2.083.745 3.942 1.673 5.579 2.789 3.049-.074 6.768-.074 11.157 0l.447.222c.297.148.445.706.445 1.674 0 .894-.111 1.34-.334 1.34-.223 0-.409.186-.558.559h-7.029c1.563 2.007 2.64 4.352 3.236 7.027l-14.84 8.368-10.822-7.475c-.373 2.826-.521 5.431-.447 7.81 0 1.116.037 2.158.111 3.125.149 1.561.335 3.495.558 5.801 10.265-5.058 16.327-7.104 18.187-6.136l.892 1.451c-1.637.817-4.166 2.007-7.586 3.569-4.76 2.009-7.922 3.012-9.484 3.012-.744 0-1.339-.035-1.786-.111.297 2.382.632 5.132 1.004 8.257.298 2.602.632 5.431 1.003 8.479.373 0 .781-.037 1.228-.11-.074-.297-.112-.78-.112-1.452 0-1.338 3.943-2.938 11.828-4.796 5.802-1.34 9.929-2.083 12.384-2.231-.074-.15-.148-.225-.223-.225 2.231-4.463 8.517-5.354 18.856-2.676 3.942 1.042 11.752 3.939 23.43 8.701-.074.521-.111 1.301-.111 2.343-.223.894-.781 1.34-1.673 1.34-9.373 0-17.927-.968-25.662-2.9a52.768 52.768 0 0 1-4.687-1.229c-.446 1.115-1.004 1.821-1.673 2.12-.744.372-2.306.595-4.686.669-2.306.299-4.649.597-7.029.894 2.752.819 4.128 2.083 4.128 3.794 0 2.9-1.228 4.685-3.683 5.354a16.03 16.03 0 0 1-1.116.225c1.339.148 2.641.407 3.905.78 5.504 1.042 8.257 5.394 8.257 13.056 0 6.396-.595 10.264-1.785 11.602-1.413 2.009-5.096 3.014-11.046 3.014-6.694 0-10.86-2.231-12.496-6.694-.074-.373-.148-1.005-.224-1.898-.148-1.115-.222-2.564-.222-4.35v-1.673c0-3.72.78-6.694 2.343-8.926 1.413-2.084 3.607-3.496 6.583-4.241-3.645.223-8.704.371-15.174.447.223 2.081.484 4.277.781 6.583a51.776 51.776 0 0 1 1.116 11.715c1.116-.372 2.566-.632 4.352-.782 0 1.414.074 2.53.222 3.348a39.469 39.469 0 0 0-3.011-.111 9.67 9.67 0 0 1-1.563-.111 61.37 61.37 0 0 1-.334 3.458l-7.81 24.882-4.24 7.585a75.173 75.173 0 0 1-1.563 2.567c4.687-.15 10.525-.15 17.517 0l.781 1.449c-2.901 1.414-5.542 1.935-7.922 1.563-2.826-.373-6.917.372-12.272 2.231h-1.674a104.548 104.548 0 0 1-2.231 3.014l-19.19 21.644c-.372.298-.706.597-1.004.893 2.529 0 4.798.706 6.806 2.121 2.008-.299 4.687-.635 8.033-1.005h2.79v-.78c0-1.115.074-2.083.223-2.902.224-.968.521-1.748.893-2.343a4.16 4.16 0 0 1-.558-.223c-.372-.595-.558-1.525-.558-2.789a23.231 23.231 0 0 1 4.574-.446c.075 0 .855.037 2.344.111.446-.074.967-.186 1.562-.334-.148-.671-.222-1.563-.222-2.678v-.559c0-2.157.185-3.384.558-3.683.669-.222 3.198-.222 7.587 0 2.826.299 5.616.521 8.368.669 1.562.074 3.124.188 4.687.336l-.112-1.785-1.227-.224c-.373-.519-.558-1.302-.558-2.343.297-.299.818-.481 1.561-.558l-.445-6.694.445 6.694c.968-.148 2.344-.148 4.128 0l.781 1.562c-.372.596-.669.968-.892 1.116-.595.446-1.376.669-2.344.669l-1.45-.223.112 1.785h1.673c5.503.37 10.971.745 16.4 1.115l1.004-2.342-1.004 2.342c3.125.223 6.286.447 9.483.67 0-.373.149-.743.447-1.116a3.587 3.587 0 0 1 1.45-1.338c.818.446 1.413 1.115 1.786 2.007a2.822 2.822 0 0 1-.335.671c9.373.593 18.559 1.151 27.559 1.674.297.223.447 1.375.447 3.458 0 2.008-.112 3.012-.334 3.012-.224 0-.41.41-.558 1.228h-18.633c.074.004.111.078.111.224.67.817 1.004 2.64 1.004 5.468 0 5.949-2.157 8.926-6.471 8.926-5.876 0-10.6-.336-14.17-1.005-1.637-.372-5.765-.634-12.385-.782l-2.454 5.579c1.562.299 3.161.632 4.797 1.004.148 0 .26.037.334.111l5.468-.222c4.388 0 10.078 1.375 17.07 4.127 3.645 1.266 6.768 2.752 9.371 4.463 1.712-.37 3.72-.558 6.025-.558 5.207.15 10.636 1.451 16.289 3.904.373-.742 1.042-1.412 2.009-2.007 1.637-1.34 4.128-2.492 7.475-3.458 7.887-2.456 20.233-4.093 37.043-4.909 33.472-1.637 50.766-.336 51.881 3.904.52 1.711.706 3.459.559 5.243-.148 2.157-.782 3.385-1.898 3.683-5.877 1.563-17.74 3.012-35.592 4.353-15.694 1.264-25.139 1.784-28.338 1.56-9.893 1.267-16.884 2.046-20.976 2.345-2.978.223-5.431-.037-7.363-.782a25.078 25.078 0 0 0-2.79 4.688h167.916a2056.393 2056.393 0 0 0-9.262-20.641 14.428 14.428 0 0 1-.446-1.005l-26.664-52.996a79.11 79.11 0 0 1-1.787-3.125c-1.264-.223-4.275-.743-9.036-1.563l-2.121 10.377V379.6l-8.479 6.248c8.553 1.115 12.831 2.418 12.831 3.904 0 .523-.037.931-.111 1.229h3.235l.334.333c.148.15.225.669.225 1.563s-.037 1.338-.111 1.338c-.225.074-.373.262-.447.559h-20.418c-.521.522-1.153 1.004-1.896 1.451-2.974 1.784-6.546 2.12-10.71 1.004-4.167-1.191-6.769-2.083-7.811-2.678-.671-.37-1.115-1.189-1.34-2.454-.892 0-1.747-.039-2.564-.113l-.336-.333c-.074-.076-.111-.15-.111-.225-20.307-1.708-30.46-3.233-30.46-4.574 0-.595.41-1.115 1.228-1.563-11.084.447-17.628.782-19.637 1.005h-10.49l-.222-.333c-.223-.225-.336-.819-.336-1.787v-.111c.225-1.115 2.157-1.785 5.803-2.007.521-.074 1.748-.148 3.681-.225-.148-.299-.222-.78-.222-1.449 0-1.34 1.821-1.86 5.467-1.563 2.9.223 11.826.892 26.777 2.007a7.414 7.414 0 0 1 1.785-.222c7.514-.074 14.615.037 21.31.335.669 0 1.375.035 2.12.111l-4.127-2.343c2.527-10.34 9.893-16.96 22.09-19.86l8.034 6.472-1.563-7.698c-9.894-1.711-15.771-2.269-17.629-1.674h-10.375l-.336-.225c-.222-.296-.335-.928-.335-1.896 0-1.19.298-2.12.894-2.789-1.785-.297-3.385-.484-4.799-.559a37.245 37.245 0 0 0-6.581.78 76.503 76.503 0 0 1-16.96 1.898l-3.123-.447c-.372-.669-.558-1.451-.558-2.342.444-.373 1.449-.743 3.012-1.116a15.059 15.059 0 0 1-.223-2.678c0-4.017 2.789-6.62 8.368-7.811-4.537-.521-8.146-1.412-10.824-2.678-7.958-4.017-12.794-6.211-14.504-6.583l-.223-2.008c-.743.669-2.083 1.005-4.016 1.005-.598 0-2.01-.188-4.241-.558a109.898 109.898 0 0 0-6.247-.447c-.373-1.266-.558-2.157-.558-2.678 1.562-.894 6.509-.929 14.837-.111a32.09 32.09 0 0 1-.11-2.343c3.646-1.414 8.293-.706 13.946 2.118 7.438 3.944 19.078 5.208 34.923 3.794l.669 3.459c-.074 2.231-.595 3.904-1.563 5.021-.669.671-1.859 1.229-3.569 1.674 1.784.073 3.681.261 5.689.558 7.884.968 15.1 2.493 21.646 4.576l-.894-4.241.894 4.241.669.222c6.843 2.158 10.264 4.054 10.264 5.69 0 1.71-.296 3.125-.892 4.24-.15.373-.335.706-.558 1.005.892 0 1.785.074 2.679.222 2.231.371 4.164.819 5.801 1.338-.819-1.485-1.637-2.9-2.454-4.238-5.544-8.74-11.083-17.479-16.625-26.219-1.414-2.01-2.789-3.981-4.129-5.915h-40.166l-.333-.333c.222-.148.446-.335.669-.558a1.29 1.29 0 0 0-.223-.336c1.412-.37 2.343-1.115 2.789-2.231 3.049-.595 8.255-.968 15.62-1.115 7.958-.297 14.095-.223 18.409.222a210.762 210.762 0 0 0-6.36-8.144c-1.04-1.266-2.081-2.529-3.123-3.793a441.245 441.245 0 0 1-13.389-17.294c-8.629-11.752-15.694-22.762-21.198-33.025-6.993-.521-15.956-1.078-26.891-1.673l-.334-.336c-.149-.223-.224-.78-.224-1.674 0-1.338 1.713-1.858 5.134-1.563a287.32 287.32 0 0 0 20.641 1.898c-2.083-4.017-3.905-7.921-5.468-11.715a8.388 8.388 0 0 1-.558-1.451c-.372-.966-.743-1.896-1.115-2.79-.076-.222-.15-.446-.225-.669-3.273.595-7.736 1.153-13.389 1.674-9.894 1.042-16.81 1.563-20.752 1.563-3.049 0-5.021-.669-5.912-2.009-.299-.447-.446-1.19-.446-2.231 0-2.827 7.81-4.574 23.43-5.243 6.321-.299 11.343-.299 15.063 0-.111-.559-.225-1.116-.336-1.674l-.223-1.228.334-19.302c2.157-9 7.551-18.261 16.178-27.782a196.104 196.104 0 0 0 4.69-5.687m-4.91-22.091c.148.074.262.148.336.224l.669-1.228-.669 1.228c.743.371 1.264.892 1.561 1.561-.593 1.042-1.228 1.674-1.896 1.897a3.958 3.958 0 0 1-1.227-.669l-2.789 5.132-.558.893-1.563-4.351h-9.819l-.334-.335c-.15-.222-.224-.78-.224-1.673 0-.669.261-1.079.782-1.227 1.71-.595 5.578-.781 11.604-.558v-1.45 1.45h.558l.445.223c.298.148.446.706.446 1.674 0 .892-.111 1.339-.333 1.339-.225 0-.41.185-.559.558h-.446v3.458l2.789-5.132a1.977 1.977 0 0 1-.558-.558c0-.446.148-.893.446-1.339.372-.596.818-.969 1.339-1.117m-4.573-2.901c-.596.967-1.192 1.599-1.785 1.897h-5.021c-.373-1.264-.558-2.156-.558-2.677.743-.818 2.938-1.004 6.581-.558l.783 1.338m-14.73-2.901c.894.372 1.525 1.042 1.898 2.008-.669.968-1.301 1.563-1.898 1.786-.816-.299-1.412-.708-1.784-1.228 0-.372.15-.818.446-1.339.371-.595.82-1.004 1.338-1.227m1.341-2.789c-1.934-1.636-4.204-1.636-6.806 0-.968-.223-1.6-.521-1.898-.892.596-.075 1.934-.855 4.017-2.344 1.041-.817 4.611-.706 10.713.335-2.531 3.198-4.538 4.165-6.026 2.901m-7.363 9.707c.074 0 .147-.037.222-.112-.446 0-.854.037-1.227.112-4.909.446-8.069.669-9.483.669-3.199 0-5.058-.297-5.579-.892 1.488-1.711 5.206-2.938 11.157-3.682 6.396-.818 10.34.111 11.826 2.789-.074.148-1.525.372-4.352.669.299.297.521.67.669 1.116-.593 1.042-1.189 1.674-1.784 1.897-.892-.297-1.523-.706-1.896-1.227-.001-.447.148-.894.447-1.339m9.483 9.929c-.745-.297-1.713-.521-2.902-.669-.371-1.264-.559-2.194-.559-2.789.968-.148 2.047-.187 3.236-.111 1.563.222 2.939.743 4.13 1.562-.148.297-.225.781-.225 1.45-.148.521-.669.781-1.563.781-.816-.001-1.524-.075-2.117-.224m8.59 10.599l.336-.669 5.243-.111c0 .297.261.892.78 1.785-.817 1.042-2.343 2.008-4.574 2.9-.743-.148-1.228-.297-1.449-.446-.299-.223-.447-.892-.447-2.008 0-.893.037-1.375.111-1.451m-12.051-5.578a3.399 3.399 0 0 1 1.898 1.897c-.669.967-1.301 1.599-1.898 1.897-.669-.298-1.189-.595-1.56-.893h-.225c-.669 0-1.711-.187-3.123-.558a50.2 50.2 0 0 0-4.688-.446c-.372-1.264-.558-2.156-.558-2.677 1.042-.373 2.604-.521 4.688-.447 2.157.148 3.718.41 4.685.781l.447.669c.075-.074.187-.148.334-.223m.559 6.694l.335.893c-.745 1.264-2.12 1.896-4.127 1.896-4.24-.521-17.407-.817-39.497-.893l-.225-.334c-.222-.224-.333-.818-.333-1.785 0-.595.706-.967 2.12-1.116 2.007-.298 5.206-.483 9.595-.558.299-.521.706-.856 1.227-1.004.521.148.929.483 1.228 1.004 4.835-.224 10.858-.224 18.075 0 .968.148 3.049.372 6.248.669 2.974.373 4.761.782 5.354 1.228m-6.581 10.041c1.189-.743 2.938-.966 5.242-.669 0 .298.262.968.78 2.008a234.808 234.808 0 0 1-3.011 2.231c2.23.223 4.798.41 7.698.558 0 .298.299.93.892 1.897-.669.744-1.19 1.227-1.561 1.45-.597.298-1.787.447-3.571.447-3.942-.521-10.042-.818-18.299-.892l-.222-.447c-.223-.224-.336-.781-.336-1.674 0-1.264 1.525-1.86 4.576-1.785 1.116 0 3.273.111 6.47.334v-.558c.001-1.189.448-2.155 1.342-2.9m-6.25-45.074l.336.781c-.223.521-.447.93-.67 1.227-.446.521-1.152.781-2.12.781l-2.231-.447c-.37-.669-.558-1.45-.558-2.343 2.008-.966 3.756-.966 5.243.001m-7.921 3.682c.816.372 1.414 1.005 1.784 1.897-.593.966-1.189 1.599-1.784 1.897-.892-.298-1.523-.744-1.896-1.339 0-.372.148-.781.447-1.228.37-.669.853-1.079 1.449-1.227m-3.681 16.067c.891.669.558 1.003-1.005 1.003-4.24 0-7.588-.334-10.041-1.003 1.488-1.116 3.495-1.563 6.024-1.339 1.934.148 3.608.594 5.022 1.339m6.023 1.003c-.37-1.264-.558-2.156-.558-2.677.745-.818 2.938-1.005 6.583-.558l.782 1.338c-.597.968-1.189 1.6-1.786 1.897h-5.021m-17.069 11.381h-5.021c-.372-1.264-.558-2.195-.558-2.79.743-.744 2.938-.929 6.583-.558l.78 1.451c-.594.967-1.189 1.599-1.784 1.897M453.4 186.135c0-.968.595-1.674 1.784-2.121 2.01-.966 5.431-.855 10.267.334l.558.224c.222.149.333.707.333 1.673 0 .893-.111 1.339-.333 1.339-.225 0-.41.186-.558.558h-11.493l-.223-.334c-.223-.223-.335-.781-.335-1.673m12.051-5.579c-.894-.297-1.525-.744-1.898-1.339 0-.371.148-.781.446-1.227.373-.595.856-1.005 1.452-1.228.816.372 1.414 1.004 1.784 1.897-.594 1.042-1.189 1.674-1.784 1.897m2.678 4.351c0-.372.186-.78.558-1.227.297-.595.743-1.004 1.338-1.227.819.372 1.412 1.003 1.785 1.896-.595 1.042-1.189 1.674-1.785 1.897-.894-.372-1.526-.818-1.896-1.339m19.412 10.264l.894 1.45c-.371.67-.67 1.042-.894 1.116-.593.595-1.375.894-2.343.894l-2.679-.558c-.37-.595-.558-1.339-.558-2.231.746-.819 2.605-1.042 5.58-.671m-15.62.558c0 .521.298 1.563.894 3.124-2.454 3.199-6.1 5.579-10.936 7.141-1.412.447-3.012.855-4.796 1.227-2.456.373-5.206.633-8.257.781-11.604-.297-18.335-.148-20.194.447-.744-.149-1.228-.298-1.451-.447-.297-.297-.445-1.116-.445-2.455-.298.299-.595.484-.893.558h-.335l-2.008 6.36-2.9-6.36h-.67c-.372-1.264-.558-2.156-.558-2.677.968-.521 2.344-.781 4.128-.781 1.265 0 2.269.148 3.013.447l.893-2.901c-.446.297-.669.633-.669 1.004v.111c-2.976-.744-4.761-1.339-5.355-1.785l-.112-2.344h.558c-.372-.595-.558-1.375-.558-2.343 1.934-.967 3.645-.967 5.133 0l.335.893c-.149.521-.373.892-.67 1.116a1.075 1.075 0 0 1-.558.447 5.7 5.7 0 0 1 1.116.111c.521.075 1.079.112 1.673.112l.447-1.451-.447 1.451c2.455.222 4.947.409 7.476.558-4.389.595-7.178 1.301-8.368 2.119l-.893 2.901c.297.074.558.186.781.334 1.116-1.413 3.942-2.678 8.479-3.794 2.008-.445 4.426-.855 7.252-1.227 6.098-.817 15.731-1.709 28.895-2.677m10.041 13.278c-.743-.149-1.189-.26-1.338-.334-.296-.149-.446-.744-.446-1.786 0-1.264 1.078-2.156 3.235-2.677 2.084-.521 5.949-.818 11.604-.894.372-.595 1.189-1.153 2.453-1.673 1.563-.669 2.826-.93 3.794-.78 0 .669.336 1.375 1.005 2.119-.521.67-.968 1.153-1.34 1.45-.669.595-2.084 1.153-4.239 1.674-.076.298-.15.447-.224.447-.297 0-.484.186-.559.558-.668-.001-5.315.631-13.945 1.896m-23.874 11.157c0-.595.558-.967 1.673-1.116 3.495-.595 11.528-.781 24.1-.558l.558.223c.223.148.333.669.333 1.562 0 .967-.11 1.45-.333 1.45-.225 0-.41.186-.558.558h-25.215l-.336-.334c-.149-.223-.222-.819-.222-1.785m9.483 23.207c.692.018 1.398.276 2.118.78l.335.782c-.222.595-.446 1.004-.669 1.227-.446.521-1.152.78-2.12.78l-2.231-.444c-.37-.598-.558-1.378-.558-2.345.894-.445 1.747-.706 2.567-.78-9.968.222-15.436.558-16.403 1.004 1.192.743 0 1.449-3.569 2.121h-9.596l-.334-.447c-.149-.446-.223-1.525-.223-3.236 0-1.784 7.141-3.347 21.422-4.685a522.277 522.277 0 0 1 21.868-1.563l.558.558c.225.148.336 1.04.336 2.679 0 1.634-.111 2.453-.336 2.453-.223 0-.407.336-.558 1.005-4.88.072-9.081.111-12.607.111m24.879-22.426c-1.488-.223-2.231-1.191-2.231-2.901 0-1.711.595-3.198 1.785-4.463 1.189-1.116 2.604-1.674 4.24-1.674s3.051.558 4.24 1.674c1.19 1.265 1.785 2.752 1.785 4.463 0 1.71-.447 2.678-1.34 2.901-.817.222-2.084.334-3.792.334a31.603 31.603 0 0 1-4.687-.334m-62.926-5.467c0-.595.185-.968.558-1.116 1.264-.669 4.166-.893 8.703-.669 0 .371.297 1.003.892 1.896-.223.67-.445 1.116-.669 1.339-.149.075-.558.297-1.228.67h-7.698l-.334-.447c-.149-.223-.224-.781-.224-1.673m-19.748-1.005c9.521-1.636 14.281-.743 14.281 2.678 0 1.19-2.64 2.492-7.921 3.905 6.024.892 13.909 2.083 23.653 3.57l.78 1.45c-.818 1.264-2.045 1.896-3.682 1.896-1.934 0-3.57-.259-4.909-.779-2.307-1.042-3.57-1.6-3.793-1.674-4.687-1.264-14.504-1.414-29.456-.447l-.222-.222c-.149-.224-.224-.521-.224-.894-1.042-.372-1.823-.93-2.344-1.674-.297-.521-.445-1.264-.445-2.231.001-2.081 4.761-3.941 14.282-5.578m3.236 22.984c0 .819-.112 1.229-.335 1.229-.222 0-.409.223-.558.669-1.487 0-4.463.111-8.926.334-5.355.224-8.071.446-8.145.671-.297.296-.781.593-1.45.892-.744-.299-1.19-.521-1.339-.669-.297-.297-.445-1.005-.445-2.121 0-1.189.408-1.896 1.227-2.12 2.603-.892 8.963-1.189 19.079-.892l.447.334c.296.148.445.705.445 1.673m.892-3.234c0-.372.148-.819.446-1.34.373-.595.818-.966 1.339-1.116a3.399 3.399 0 0 1 1.897 1.898c-.595.968-1.227 1.561-1.897 1.784-.818-.298-1.413-.708-1.785-1.226m19.749 31.24c.222-.074.78-.148 1.673-.225-15.174.299-23.84.26-25.997-.111-1.859-.147-3.012-.669-3.458-1.563-.149-.446-.224-1.636-.224-3.569 0-2.308.558-3.867 1.674-4.687 1.636-1.19 5.058-2.008 10.265-2.454 11.976-1.116 21.533-.595 28.674 1.563 6.619 2.007 9.929 4.909 9.929 8.701 0 .671-.037 1.264-.111 1.787h21.421l.447.333c.224.15.335.669.335 1.563s-.076 1.338-.225 1.338c-.296 0-.483.188-.558.559-2.75 0-10.076.113-21.979.335-.447 0-.894.037-1.338.111-.523.373-1.081.558-1.674.558-.225 0-.856-.185-1.898-.558-11.082.15-16.884.336-17.405.558-.893-.372-1.524-.817-1.897-1.338 0-.373.187-.856.558-1.451.448-.596 1.044-1.08 1.788-1.45m13.389 17.405c-.968 0-1.488-.111-1.563-.336 0-.299-.111-.595-.334-.892 2.157-2.604 5.132-4.092 8.925-4.463a17.473 17.473 0 0 1 5.914.111c0 .299.262.892.78 1.785-1.412 2.529-5.989 3.795-13.722 3.795m34.029-22.65c-.299 0-1.563-.186-3.794-.558-2.231-.223-5.096-.373-8.591-.447l-.225-.222c-.222-.223-.333-.854-.333-1.896 0-.967 3.123-1.525 9.37-1.673 10.042-.373 15.845-.672 17.407-.894 7.438.074 11.789.335 13.053.78.968.298 2.419 1.154 4.352 2.566-.076.371-.11.854-.11 1.451-.225.593-.782.892-1.674.892-.745 0-2.679-.299-5.803-.892-3.123-.597-5.096-.894-5.912-.894-.746 0-3.683.297-8.815.894-5.132.594-8.108.893-8.925.893m-31.687 39.832c-.372-1.34-.558-2.271-.558-2.789a7.907 7.907 0 0 1 2.9-1.005c.968-.149 2.046-.149 3.236 0 .745.148 1.486.299 2.231.447 1.86.519 4.166 1.338 6.916 2.454l.336.558c.148-.074.335-.111.558-.111 4.833-.669 16.03-.856 33.583-.558l.558.333c.225.148.336.671.336 1.563 0 .894-.111 1.34-.336 1.34-.223 0-.407.186-.558.559h-7.363c22.685.444 34.029 3.272 34.029 8.479 0 .966-.074 1.785-.223 2.454-.446 1.784-1.377 3.014-2.789 3.683.074.074.148.223.223.446-.223.371-.447.706-.669 1.003-.373.597-.669 1.004-.894 1.229-.521.445-1.674.669-3.459.669-13.61-2.157-24.807-3.941-33.582-5.355-12.794 1.636-19.861 2.455-21.199 2.455-2.604 0-4.277-1.041-5.021-3.124-.373-.82-.558-1.971-.558-3.459 0-.669.185-1.266.558-1.784h-22.092l-.223-.336c-.223-.223-.335-.819-.335-1.785-.297-.149-.409-.298-.334-.446.224-.296 1.19-.558 2.901-.78 3.645-.446 10.487-.706 20.53-.782.444-1.488.816-2.38 1.115-2.678.37-.519.78-.854 1.227-1.003a45.413 45.413 0 0 0-2.342-.446c-3.197-.525-6.1-.934-8.702-1.231m39.051-7.81c0-.745.669-1.264 2.009-1.563-13.613-1.785-20.419-3.384-20.419-4.799 0-4.61 10.936-6.06 32.803-4.352a5.71 5.71 0 0 0 1.116.113c2.007.148 3.904.334 5.689.559v-10.6 10.6c3.125.296 6.025.592 8.703.891l.445-.669-.445.669c13.091 1.711 19.637 3.905 19.637 6.583 0 1.338-.299 2.567-.894 3.683-.743 1.265-1.674 1.896-2.789 1.896a415.874 415.874 0 0 1-13.611-1.116c-.076.371-.186.559-.336.559-.222 0-.407.187-.558.558h-10.152c-1.412-.595-8.294-.894-20.641-.894l-.336-.333c-.148-.224-.221-.817-.221-1.785m-93.274 55.673c-.373-.593-.558-1.375-.558-2.343 3.272-1.039 8.666-.966 16.178.225.669.074 1.338.185 2.008.333 2.008-1.115 5.058-1.972 9.149-2.564 2.38-.299 5.095-.558 8.145-.782 2.306-.148 4.872-.299 7.698-.447a42.563 42.563 0 0 1 3.013-.111c-.148-.298-.224-.855-.224-1.673 0-2.155 7.401-3.348 22.203-3.569l.447.333c.222.074.333.597.333 1.563 0 .894-.074 1.34-.223 1.34-.296 0-.483.186-.558.559-5.208.073-9.483.296-12.831.669-2.381.298-4.463.558-6.248.779.595 0 1.227.037 1.896.111 5.876.074 10.525.523 13.946 1.341h11.493l.446.222c.223.15.334.669.334 1.563 0 .968-.074 1.451-.223 1.451-.225 0-.409.148-.558.445-.894 0-2.49.039-4.799.113.076.296.111.592.111.891 0 .447.039 1.079.113 1.898v.111c1.116-.596 3.234-1.228 6.359-1.898 4.833-1.115 7.921-1.635 9.261-1.561l.78 1.449c-2.678 1.267-5.541 2.308-8.59 3.125-.672.148-3.014.706-7.03 1.674-.37-.076-.632-.111-.78-.111v-.336a3.548 3.548 0 0 1-1.229 1.116h-.111c-.074 0-.148.074-.223.222-.15.299-.259.559-.335.783h-2.006c-4.762.965-19.898 1.448-45.412 1.448h-.446c-.373 0-.558.074-.558.225.669.892.224 1.338-1.339 1.338-.744 0-1.376-.669-1.897-2.007-1.487-.522-2.529-1.377-3.124-2.566-.297-.521-.447-1.412-.447-2.679a326.876 326.876 0 0 0-5.132-.892c-4.756-.82-7.769-1.416-9.032-1.788m21.978-22.983c.373-.669.818-1.079 1.339-1.228a3.394 3.394 0 0 1 1.896 1.896c-.669.968-1.302 1.6-1.896 1.897-.893-.372-1.487-.816-1.785-1.34 0-.369.149-.779.446-1.225m21.98 44.852a3755.056 3755.056 0 0 1-9.818-2.345c-3.793-.37-7.401.225-10.822 1.787-.743-.148-1.19-.225-1.339-.225-.297-.222-.446-.856-.446-1.896 0-2.009 3.608-3.347 10.823-4.017 5.876-.522 17.628-.855 35.256-1.004l.78 1.449c-7.958 6.028-16.103 8.111-24.434 6.251m-23.43 38.269a3.394 3.394 0 0 1 1.897 1.897c-.595 1.042-1.227 1.674-1.897 1.896-.818-.297-1.413-.745-1.785-1.338 0-.373.148-.746.446-1.116.373-.67.818-1.115 1.339-1.339m63.484-47.418c.894.372 1.525 1.041 1.898 2.009-.596.966-1.228 1.563-1.898 1.785-.817-.297-1.412-.706-1.785-1.228 0-.372.15-.782.447-1.227.37-.67.819-1.115 1.338-1.339M456.747 393.1c-.372-3.348-.558-5.875-.558-7.586 2.826-2.604 7.066-3.683 12.72-3.236 4.166.297 7.588 1.896 10.264 4.799v.444c0 2.53.113 4.13.336 4.799l.222.78h3.683v.225l.447 2.453c-.817 3.424-2.194 5.132-4.13 5.132-2.157 0-4.463-.854-6.916-2.564-2.901-2.383-8.257-4.131-16.068-5.246m26.108 11.046c0-.669.632-1.598 1.896-2.789a11.04 11.04 0 0 1 5.021-2.9c5.504-1.486 11.196 1.115 17.071 7.81-.447.745-.669 1.153-.669 1.227-.447.373-1.153.559-2.121.559l-2.789-.447v-1.338h-17.852l-.222-.446c-.223-.225-.335-.783-.335-1.676m45.745.111l-.335-.223c-.148-.296-.223-.928-.223-1.896 0-.523.188-.894.558-1.116 1.042-.597 3.644-.782 7.811-.558 0 .37.188 1.003.558 1.896-.296.894-.894 1.525-1.784 1.896H528.6m23.094 1.006c0-4.537 1.822-6.806 5.468-6.806 2.083 0 12.349 1.935 30.793 5.801l.559 5.134c-.074 1.338-.41 2.676-1.003 4.017-.745 2.007-1.639 3.011-2.678 3.011a322.625 322.625 0 0 0-7.142-1.673c-6.025-1.116-14.43-1.785-25.215-2.007l-.335-1.005c-.298-.894-.447-3.049-.447-6.472m43.069 15.509c-.147.073-.298.259-.446.558h-12.162c-2.083-.595-7.363-.894-15.842-.894l-.447-.333c-.225-.225-.335-.819-.335-1.785 0-1.266 1.673-1.861 5.021-1.787 2.678.076 10.6.41 23.766 1.005l.446.225c.148.147.223.706.223 1.673-.002.89-.076 1.338-.224 1.338M462.772 305.182h1.227c4.463-1.34 11.084-2.12 19.861-2.342h-19.861c.15.296.299.632.447 1.002-.37.447-.928.893-1.674 1.34m-37.265-99.077h-4.909l2.9 6.36 2.009-6.36m90.151-52.103h-2.12l1.563 4.351.558-.893v-3.458m61.139 215.445l2.121-10.377a936.794 936.794 0 0 1-7.811-1.338 3.304 3.304 0 0 0-.78-.111l1.563 7.698 4.907 3.905v.223m-183.534 35.815h-3.571l2.343 4.798 1.563.223-.335-5.021m3.57 5.689l2.454-5.579c-1.785-.074-3.792-.11-6.024-.11l.334 5.021c1.042.224 2.12.446 3.236.668m-41.952-9.817a12.7 12.7 0 0 1 2.008 4.017c2.604.074 4.501.446 5.69 1.115 2.827.074 6.211.336 10.153.78 5.876.597 12.31 1.6 19.302 3.014l-2.343-4.798c-4.76-.074-10.19-.111-16.289-.111h-7.364c-1.562 0-2.64-1.412-3.235-4.241a.99.99 0 0 0-.112-.444c0 .074-.037.186-.111.334-3.199.075-5.765.183-7.699.334m-24.769 9.483c0-.894 1.265-1.71 3.794-2.455a5.548 5.548 0 0 1-.669-1.339 1.23 1.23 0 0 1-.112-.558c-5.505 4.76-11.418 9.558-17.739 14.394.892-.148 1.858-.299 2.9-.447.149 0 4.426-.259 12.831-.78l.447.334c.297.074.446.595.446 1.563 0 .894-.111 1.338-.334 1.338-.224 0-.409.188-.558.558-3.868.076-7.401.299-10.599.671-3.719.521-6.955.929-9.707 1.228a4.415 4.415 0 0 1-.893-.336 854.947 854.947 0 0 1-11.046 7.921v5.692h159.325a25.625 25.625 0 0 0-2.566-1.005c-4.611-1.488-9.409-2.419-14.393-2.789h-.67c-.446 0-1.227-.037-2.343-.111a89.304 89.304 0 0 0-11.826.111l-.335-.669c-.074-.299-.111-.931-.111-1.898-2.455-.743-5.207-1.412-8.257-2.007-14.207-3.497-21.719-5.282-22.537-5.356l-.336-1.338a12.896 12.896 0 0 1-.222-1.229 1383.159 1383.159 0 0 1 16.513 4.909c.892 0 1.45-.632 1.673-1.896 0-1.488.074-2.493.223-3.014l-.893-3.905a4.414 4.414 0 0 0-1.116-.669 1214.292 1214.292 0 0 0-16.4-1.785c-15.397-1.784-26.777-2.938-34.142-3.458-1.19.299-2.603.521-4.239.669-.595.669-1.414 1.042-2.455 1.116-2.306 0-4.723.669-7.252 2.009 6.768-1.787 12.683-2.715 17.74-2.789l.892 1.338a15.787 15.787 0 0 1-2.231 2.231c3.124 0 6.657.074 10.599.223l.781 1.451c-1.339.893-2.938 1.6-4.797 2.12-1.786.296-2.938.521-3.459.669h-.893c0 .894-.111 1.338-.334 1.338-.223 0-.41.188-.558.558-6.249.225-12.607.819-19.08 1.787-5.95.743-8.963 1.116-9.037 1.116-2.231 0-3.608-.484-4.128-1.452 1.265-1.488 2.863-2.752 4.797-3.794-.148-.296-.223-.816-.223-1.563 0-.296 2.045-1.039 6.137-2.23-1.563-.074-3.013-.892-4.352-2.454-4.017-.074-6.621-.669-7.81-1.785-.296-.299-.446-1.042-.446-2.233m62.593-116.481v-.11c-.149 0-.334.036-.558.11h.558m-8.703-46.525a79.645 79.645 0 0 1-2.455-.446 47.78 47.78 0 0 0-.781 3.122l3.236-2.676m27.67 41.952a42.36 42.36 0 0 1-2.678-1.563c-.372.521-.966 1.041-1.785 1.563h4.463z"/><path fill="#8B7E75" d="M594.316 421.328c.148-.299.299-.484.446-.558.148 0 .223-.447.223-1.339 0-.967-.074-1.525-.223-1.673l-.446-.225c-13.166-.595-21.088-.929-23.766-1.005-3.348-.074-5.021.521-5.021 1.787 0 .966.11 1.561.335 1.785l.447.333c8.479 0 13.759.299 15.842.894h12.163m-109.565-19.971c-1.264 1.191-1.896 2.12-1.896 2.789 0 .894.111 1.451.336 1.674l.222.446h17.852v1.338l2.789.447c.968 0 1.674-.186 2.121-.559 0-.073.222-.481.669-1.227-5.875-6.694-11.567-9.296-17.071-7.81a11.069 11.069 0 0 0-5.022 2.902m-28.562-15.842c0 1.711.186 4.238.558 7.586 7.811 1.115 13.167 2.863 16.067 5.245 2.453 1.711 4.759 2.564 6.916 2.564 1.936 0 3.313-1.708 4.13-5.132l-.447-2.453v-.224h-3.683l-.222-.78c-.223-.669-.336-2.269-.336-4.799v-.444c-2.676-2.902-6.098-4.502-10.264-4.799-5.652-.447-9.892.632-12.719 3.236m24.882-22.872c-.373-.968-1.005-1.637-1.898-2.009-.519.225-.968.669-1.338 1.34-.297.444-.447.854-.447 1.227.373.521.968.931 1.785 1.228.671-.224 1.303-.821 1.898-1.786m-63.485 47.306a3.391 3.391 0 0 0-1.897-1.897c-.521.225-.966.669-1.339 1.34-.297.37-.446.743-.446 1.116.372.593.966 1.041 1.785 1.338.67-.223 1.302-.855 1.897-1.897m11.715-42.51c.298.074 3.571.856 9.818 2.345 8.331 1.859 16.476-.224 24.434-6.249l-.78-1.449c-17.628.148-29.38.481-35.256 1.004-7.215.67-10.823 2.008-10.823 4.017 0 1.039.148 1.674.446 1.896.149 0 .596.076 1.339.225 3.42-1.565 7.028-2.16 10.822-1.789m-10.822-43.736c-.521.148-.967.559-1.339 1.228-.297.446-.446.856-.446 1.227.298.523.893.968 1.785 1.34.595-.298 1.228-.93 1.896-1.897a3.391 3.391 0 0 0-1.896-1.898m47.976 26.667c0 .446.035 1.115.111 2.007-.076.147-.111.261-.111.335v.336c.148 0 .41.035.78.111 4.017-.968 6.358-1.525 7.03-1.674 3.049-.817 5.912-1.858 8.59-3.125l-.78-1.449c-1.34-.074-4.428.445-9.261 1.561-3.125.671-5.243 1.302-6.359 1.898m-.225-2.9c2.309-.074 3.905-.113 4.799-.113.148-.297.333-.445.558-.445.148 0 .223-.483.223-1.451 0-.894-.111-1.412-.334-1.563l-.446-.222h-11.493c3.125.669 5.172 1.636 6.137 2.9.223.222.409.521.556.894m-71.627-1.899c0 .968.186 1.75.558 2.343 1.264.372 4.276.968 9.037 1.786 1.785.297 3.497.593 5.132.892v-.669c0-1.264.744-2.306 2.231-3.125a4.015 4.015 0 0 1 1.228-.669 18.973 18.973 0 0 0-2.008-.333c-7.513-1.191-12.906-1.264-16.178-.225m116.592-52.438l-1.563 2.12h10.152c.15-.371.336-.558.558-.558.15 0 .26-.188.336-.559-3.199-.295-6.36-.631-9.483-1.003m-1.562 2.12v-2.231a5.7 5.7 0 0 0-1.116-.111l1.116 2.342m0-2.231v2.231l1.563-2.12a11.112 11.112 0 0 0-1.563-.111m-19.19-2.343c-1.34.299-2.009.817-2.009 1.563 0 .968.073 1.561.222 1.785l.336.333c12.347 0 19.229.299 20.641.894l-1.116-2.343a189.963 189.963 0 0 0-6.472-.782c-4.315-.52-8.181-1.003-11.602-1.45m-26.444 14.504h-1.227c-.819.521-1.784 1.005-2.9 1.449-.817-.296-1.414-.706-1.784-1.227-10.043.076-16.886.336-20.53.782-1.711.223-2.678.484-2.901.78-.074.148.037.297.334.446 0 .966.112 1.563.335 1.785l.223.336h22.092c.743-1.86 2.863-3.311 6.358-4.351m-18.52-22.65c.074.225.595.336 1.563.336 7.734 0 12.31-1.267 13.722-3.794-.519-.894-.78-1.486-.78-1.785a17.474 17.474 0 0 0-5.914-.111c-3.793.371-6.768 1.859-8.925 4.463.223.297.334.592.334.891m32.467-17.294l-.447-.333h-21.421a10.224 10.224 0 0 1-.78 2.564c-.298.669-.671 1.228-1.115 1.674a8.134 8.134 0 0 1 1.338-.111c11.902-.222 19.229-.335 21.979-.335.074-.371.262-.559.558-.559.148 0 .225-.444.225-1.338s-.113-1.411-.337-1.562m-31.798 2.343c-3.793-1.635-5.764-2.454-5.913-2.454-1.71.074-3.347.111-4.909.111-.894.076-1.451.15-1.673.225-.744.37-1.339.854-1.786 1.449-.372.595-.558 1.078-.558 1.451.373.521 1.004.966 1.897 1.338.521-.222 6.323-.407 17.405-.558a201.221 201.221 0 0 1-4.463-1.562m-31.798-34.698c-.297.521-.446.968-.446 1.34.372.519.966.929 1.785 1.227.67-.224 1.302-.816 1.897-1.784a3.396 3.396 0 0 0-1.897-1.898c-.521.149-.966.52-1.339 1.115m1.786-11.826c-1.042.223-2.231.483-3.57.781-7.661 1.561-11.529 2.342-11.604 2.342-1.041 0-1.934-.074-2.677-.223 0 .373.074.67.224.894l.222.222c14.951-.967 24.769-.817 29.456.447.223.074 1.487.632 3.793 1.674 1.338.521 2.975.779 4.909.779 1.637 0 2.863-.632 3.682-1.896l-.78-1.45a5716.573 5716.573 0 0 0-23.655-3.57m13.946-6.695c-.373.148-.558.521-.558 1.116 0 .892.074 1.45.223 1.673l.334.447h7.698c.67-.373 1.079-.595 1.228-.67.224-.224.446-.669.669-1.339-.595-.892-.892-1.524-.892-1.896-4.536-.223-7.438 0-8.702.669m37.489 29.009h-.558c-.82.074-1.674.335-2.567.78 0 .967.188 1.747.558 2.345l2.231.444c.968 0 1.674-.26 2.12-.78.223-.223.447-.632.669-1.227l-.335-.782c-.719-.504-1.425-.762-2.118-.78m-7.81-24.323c-1.115.148-1.673.521-1.673 1.116 0 .966.073 1.562.222 1.785l.336.334h25.215c.147-.372.333-.558.558-.558.223 0 .333-.483.333-1.45 0-.893-.11-1.413-.333-1.562l-.558-.223c-12.572-.223-20.605-.036-24.1.558m-39.832-12.943h.67l-1.228-2.677c0 .521.186 1.413.558 2.677m3.57-3.458c-1.785 0-3.161.261-4.128.781l1.228 2.677h4.909l1.004-3.012c-.744-.298-1.748-.446-3.013-.446m3.794.781a2.478 2.478 0 0 0-.781-.334l-1.004 3.012h.335c.297-.074.595-.259.893-.558v-.669c-.001-.521.184-1.005.557-1.451m-.558-7.699l-.335-.893c-1.488-.967-3.199-.967-5.133 0 0 .968.187 1.748.558 2.343h.112c.743 0 1.934.037 3.57.112.223-.075.41-.224.558-.447.297-.222.521-.594.67-1.115m61.7.893l-.894-1.45c-2.975-.372-4.834-.148-5.579.67 0 .892.188 1.636.558 2.231l2.679.558c.968 0 1.75-.298 2.343-.894.223-.073.521-.445.893-1.115m-19.748-12.942c-.372.447-.558.855-.558 1.227.37.521 1.002.967 1.896 1.339.596-.223 1.19-.855 1.785-1.897-.373-.892-.966-1.524-1.785-1.896-.595.222-1.042.632-1.338 1.227m-13.502.334c-1.189.447-1.784 1.153-1.784 2.121 0 .892.111 1.45.335 1.673l.223.334h11.493c.147-.372.333-.558.558-.558.222 0 .333-.447.333-1.339 0-.966-.111-1.524-.333-1.673l-.558-.224c-4.837-1.189-8.258-1.3-10.267-.334m5.245-14.838h5.021c.595-.298 1.189-.93 1.784-1.897l-.78-1.451c-3.646-.371-5.84-.186-6.583.558 0 .595.186 1.526.558 2.79m21.532-14.058c0 .521.188 1.413.558 2.677h5.021c.597-.297 1.189-.929 1.786-1.897l-.782-1.338c-3.646-.447-5.838-.26-6.583.558m0-12.496c-.37-.892-.968-1.525-1.784-1.897-.596.148-1.079.558-1.449 1.227-.299.447-.447.856-.447 1.228.373.595 1.005 1.041 1.896 1.339.594-.299 1.191-.931 1.784-1.897m6.473-4.798l-.336-.781c-1.486-.967-3.234-.967-5.243 0 0 .893.188 1.674.558 2.343l2.231.447c.968 0 1.674-.261 2.12-.781.222-.298.447-.707.67-1.228m11.156 43.624c-2.305-.297-4.053-.074-5.242.669-.894.745-1.341 1.711-1.341 2.902v.558c1.267 0 2.716.037 4.353.111.819-.595 1.821-1.339 3.011-2.231-.519-1.041-.781-1.711-.781-2.009m-30.793-11.268h2.454c-.299-.521-.706-.856-1.228-1.004-.52.148-.927.483-1.226 1.004m31.24-4.575l.333.67c-.074.595-.147 1.004-.222 1.227-.148.447-.595.706-1.338.781.37.297.891.595 1.56.893.598-.298 1.229-.93 1.898-1.897a3.402 3.402 0 0 0-1.898-1.897 1.336 1.336 0 0 0-.333.223m12.72 4.686l-.336.669c-.074.075-.111.558-.111 1.451 0 1.116.148 1.785.447 2.008.222.148.706.298 1.449.446 2.231-.893 3.757-1.859 4.574-2.9-.52-.893-.78-1.487-.78-1.785l-5.243.111m-15.845-20.306c-.669.075-1.449.187-2.343.334-.074.075-.147.112-.222.112-.299.446-.447.893-.447 1.339.373.521 1.005.93 1.896 1.227.595-.223 1.191-.855 1.784-1.897a2.764 2.764 0 0 0-.668-1.115m5.357-4.463c-.373-.966-1.005-1.636-1.898-2.008-.519.223-.967.632-1.338 1.227-.296.521-.446.968-.446 1.339.372.521.968.929 1.784 1.228.597-.224 1.229-.818 1.898-1.786m19.3 5.579c-.297-.669-.817-1.19-1.561-1.561l-1.563 2.789c.373.297.78.521 1.227.669.67-.224 1.305-.856 1.897-1.897m-1.56-1.561a1.315 1.315 0 0 0-.336-.224c-.521.148-.967.521-1.338 1.116-.298.446-.446.893-.446 1.339.148.223.333.409.558.558l1.562-2.789m59.691 205.402l-.782 4.128c4.761.819 7.772 1.34 9.036 1.563a216.413 216.413 0 0 0-2.453-4.353c-1.637-.518-3.569-.967-5.801-1.338m-.113 38.046c-1.042.595-2.975.894-5.802.894-2.9-.15-5.801-.336-8.703-.558a11.16 11.16 0 0 1-1.227 1.449h20.418c.074-.297.223-.484.447-.559.074 0 .111-.444.111-1.338s-.076-1.412-.225-1.563l-.334-.333h-3.235c-.222.893-.705 1.562-1.45 2.008m-37.6-1.338a3.184 3.184 0 0 0-.78-.111c-.745 0-1.451-.039-2.12-.113 0 .074.037.148.111.225l.336.333c.817.074 1.673.113 2.564.113a.994.994 0 0 1-.111-.447m35.034-36.929c-.595.817-1.34 1.227-2.231 1.227-.669 0-2.308-.186-4.909-.558l.446 2.231c.223 0 .481.037.78.111 2.975.521 5.579.967 7.811 1.338l.782-4.128a16.477 16.477 0 0 0-2.679-.221m-34.475-3.683c-.596.669-.894 1.599-.894 2.789 0 .968.113 1.6.335 1.896l.336.225h10.375c1.858-.595 7.735-.037 17.629 1.674l-.446-2.231c-3.273-.447-8.032-1.192-14.282-2.231a345.57 345.57 0 0 1-6.917-1.116 16.632 16.632 0 0 0-2.678-.446 101.104 101.104 0 0 0-3.458-.56m-168.251 67.501l-.781-1.451a285.601 285.601 0 0 0-10.599-.223 15.84 15.84 0 0 0 2.231-2.231l-.892-1.338c-5.058.074-10.972 1.002-17.74 2.789a4.16 4.16 0 0 0-.558.223c-1.116.595-2.194.856-3.235.78-4.091 1.191-6.137 1.935-6.137 2.23 0 .746.074 1.267.223 1.563 3.72-2.083 8.517-3.122 14.393-3.122a58.65 58.65 0 0 1 13.054 1.673l.445.334c.298.074.447.595.447 1.563h.893c.521-.148 1.673-.373 3.459-.669 1.859-.521 3.458-1.228 4.797-2.121m86.692 15.173a27.872 27.872 0 0 1 4.685-4.685c-3.271-2.084-6.435-3.831-9.483-5.246-5.653-2.453-11.082-3.754-16.289-3.904-2.306 0-4.313.188-6.025.558-2.603-1.711-5.727-3.197-9.371-4.463-6.992-2.752-12.683-4.127-17.07-4.127l-5.468.222h-.334c2.975 1.711 6.1 3.535 9.372 5.468.373.148.744.372 1.116.669l.893 3.905c-.149.521-.223 1.525-.223 3.014-.223 1.264-.781 1.896-1.673 1.896a1377.668 1377.668 0 0 0-16.513-4.909c.074.521.148.931.222 1.229l.336 1.338c.818.074 8.33 1.859 22.537 5.356 3.05.595 5.802 1.264 8.257 2.007 0 .968.037 1.6.111 1.898l.335.669a89.305 89.305 0 0 1 11.826-.111c1.116.074 1.897.111 2.343.111h.67c4.984.37 9.781 1.301 14.393 2.789.894.297 1.75.632 2.566 1.005a24.877 24.877 0 0 1 2.787-4.689m-151.069-8.926c.298.148.595.262.893.336a317.71 317.71 0 0 0 9.707-1.228c3.198-.372 6.731-.595 10.599-.671.149-.37.334-.558.558-.558.223 0 .334-.444.334-1.338 0-.968-.148-1.488-.446-1.563l-.447-.334c-8.405.521-12.681.78-12.831.78-1.042.148-2.008.299-2.9.447-1.785 1.34-3.607 2.717-5.467 4.129m183.982-45.967c-3.646-.298-5.467.223-5.467 1.563 0 .669.073 1.15.222 1.449 5.208-.223 15.882-.558 32.022-1.005-14.95-1.115-23.876-1.784-26.777-2.007m-71.183 4.352c.149-.224.261-.446.335-.671-.373-.892-.967-1.561-1.786-2.007a3.58 3.58 0 0 0-1.45 1.338c-.297.373-.447.743-.447 1.116 1.116.076 2.232.151 3.348.224m58.353-58.353c0 .521.185 1.412.558 2.678 1.858.074 3.941.223 6.247.447 2.231.37 3.644.558 4.241.558 1.933 0 3.272-.336 4.016-1.005l.223 2.008c1.71.372 6.546 2.566 14.504 6.583 2.679 1.266 6.287 2.157 10.824 2.678 2.453.223 5.28.336 8.479.336 4.313 0 7.66-.225 10.042-.671 1.71-.445 2.9-1.003 3.569-1.674.968-1.116 1.488-2.789 1.563-5.021l-.669-3.459c-15.845 1.414-27.485.15-34.923-3.794-5.653-2.824-10.301-3.532-13.946-2.118 0 .593.036 1.375.11 2.343-8.329-.817-13.276-.782-14.838.111m-92.047 41.504l-.781-1.449c-6.992-.15-12.831-.15-17.517 0h-.111a166.254 166.254 0 0 1-3.571 5.243h1.785c5.355-1.859 9.446-2.604 12.272-2.231 2.381.372 5.022-.149 7.923-1.563m-4.352-42.284v2.343c.447.074.966.111 1.563.111 1.041 0 2.045.037 3.011.111-.148-.817-.222-1.934-.222-3.348-1.786.151-3.236.411-4.352.783m13.612-52.438l-.892-1.451c-1.86-.968-7.922 1.078-18.187 6.136.075.521.149 1.116.223 1.785.447.076 1.042.111 1.786.111 1.562 0 4.724-1.003 9.484-3.012 3.421-1.563 5.949-2.752 7.586-3.569m89.481-20.308l.334.336c10.935.595 19.897 1.152 26.891 1.673a65.665 65.665 0 0 1-1.674-3.347 287.948 287.948 0 0 1-20.641-1.898c-3.421-.296-5.134.225-5.134 1.563 0 .893.074 1.45.224 1.673m-77.431 43.066h-1.005c-3.645-.37-8.702-.706-15.173-1.003l-.223-.224c-.224-.299-.334-.931-.334-1.896 0-.894.334-1.451 1.004-1.673.297-.077.595-.077.893 0h11.715c.818-.521 1.413-1.042 1.785-1.563a29.671 29.671 0 0 1-2.231-1.785c-2.455.148-6.582.892-12.384 2.231-7.884 1.858-11.828 3.458-11.828 4.796 0 .672.038 1.155.112 1.452a67.016 67.016 0 0 1 5.913-.447 61.317 61.317 0 0 1 3.571-.111c.223-.074.409-.11.558-.11v.11c4.611 0 8.145.371 10.6 1.116 2.378-.296 4.721-.594 7.027-.893m-1.45-46.302l-.447-.222c-4.389-.074-8.108-.074-11.157 0 1.636 1.041 3.013 2.306 4.128 3.794h7.029c.149-.373.334-.559.558-.559.224 0 .334-.446.334-1.34 0-.967-.148-1.525-.445-1.673z"/><path fill="#796F68" d="M557.162 398.456c-3.646 0-5.468 2.269-5.468 6.806 0 3.423.148 5.578.447 6.472l.335 1.005c10.785.222 19.189.891 25.215 2.007 2.977.669 5.356 1.227 7.142 1.673 1.039 0 1.933-1.004 2.678-3.011.593-1.341.929-2.679 1.003-4.017l-.559-5.134c-18.444-3.866-28.71-5.801-30.793-5.801m-28.897 5.578l.335.223h6.584c.891-.371 1.488-1.003 1.784-1.896-.37-.893-.558-1.525-.558-1.896-4.167-.225-6.769-.039-7.811.558-.37.223-.558.593-.558 1.116.001.967.075 1.599.224 1.895m-65.493-63.26c.074-.373.262-.559.558-.559.148 0 .223-.446.223-1.34 0-.966-.111-1.488-.333-1.563l-.447-.333c-14.802.222-22.203 1.414-22.203 3.569 0 .817.075 1.375.224 1.673h2.901c1.785-.222 3.867-.481 6.248-.779 3.346-.372 7.621-.594 12.829-.668m-.446-40.502c0 .223.111.37.335.446 0 .299.037.596.111.892-.968-.222-1.747-.185-2.343.113-.446.148-.856.484-1.227 1.003-.299.298-.671 1.189-1.115 2.678.37.521.967.931 1.784 1.227 1.116-.444 2.081-.928 2.9-1.449.745-.446 1.304-.893 1.674-1.34a12.53 12.53 0 0 0-.447-1.002h34.587c.15-.373.335-.559.558-.559.225 0 .336-.446.336-1.34 0-.892-.111-1.414-.336-1.563l-.558-.333c-17.553-.299-28.75-.111-33.583.558a1.25 1.25 0 0 0-.558.111c-1.261.223-1.967.41-2.118.558m14.951-40.612c2.231.372 3.495.558 3.794.558.816 0 3.793-.299 8.925-.892 5.133-.597 8.069-.894 8.815-.894.816 0 2.789.297 5.912.894 3.124.593 5.058.892 5.803.892.892 0 1.449-.299 1.674-.892 0-.597.034-1.08.11-1.451-1.933-1.412-3.384-2.269-4.352-2.566-1.264-.445-5.615-.706-13.053-.78-1.563.222-7.365.521-17.407.894-6.247.147-9.37.706-9.37 1.673 0 1.042.111 1.674.333 1.896l.225.222c3.496.073 6.36.224 8.591.446m-64.601-20.974c.224 0 .335-.409.335-1.229 0-.968-.149-1.525-.446-1.674l-.447-.334c-10.116-.298-16.476 0-19.079.892-.818.225-1.227.931-1.227 2.12 0 1.116.148 1.824.445 2.121.149.147.595.37 1.339.669.669-.299 1.153-.596 1.45-.892.074-.225 2.789-.447 8.145-.671 4.463-.223 7.438-.334 8.926-.334.151-.446.337-.668.559-.668m54.671 4.685h.225c3.525 0 7.727-.039 12.606-.111.15-.669.335-1.005.558-1.005.225 0 .336-.819.336-2.453 0-1.639-.111-2.53-.336-2.679l-.558-.558c-7.363.373-14.653.892-21.868 1.563-14.281 1.338-21.422 2.9-21.422 4.685 0 1.711.074 2.79.223 3.236l.334.447h9.596c3.569-.672 4.761-1.378 3.569-2.121.967-.446 6.435-.782 16.403-1.004h.334m13.277-34.699c.148.074.595.185 1.338.334 8.63-1.265 13.277-1.897 13.946-1.897.074-.372.262-.558.559-.558.073 0 .147-.148.224-.447-.742-.074-1.191-.148-1.34-.222-.296-.224-.444-.856-.444-1.897 0-.224.035-.447.111-.67-5.655.075-9.521.373-11.604.894-2.157.521-3.235 1.413-3.235 2.677-.001 1.042.149 1.637.445 1.786m-52.328-11.157l-.892 2.677c1.189-.818 3.979-1.524 8.368-2.119a239.246 239.246 0 0 1-7.476-.558m0 0c-.595 0-1.153-.037-1.673-.112a5.7 5.7 0 0 0-1.116-.111c-1.636-.075-2.827-.112-3.57-.112h-.67l.112 2.344c.595.445 2.379 1.041 5.355 1.785v-.111c0-.372.223-.707.669-1.004l.893-2.679m72.075-31.24l-.333-.67-.447-.669c-.967-.372-2.527-.633-4.685-.781-2.083-.074-3.646.074-4.688.447 0 .521.186 1.413.558 2.677a50.2 50.2 0 0 1 4.688.446c1.412.372 2.454.558 3.123.558h.225c.743-.075 1.189-.334 1.338-.781.074-.223.147-.632.221-1.227m3.572-15.509c-.521.148-.782.558-.782 1.227 0 .894.073 1.451.224 1.673l.334.335h9.819l-.447-1.339.447 1.339h2.12l-.111-3.793c-6.026-.223-9.894-.037-11.604.558m12.72 2.678c.222 0 .333-.447.333-1.339 0-.968-.148-1.525-.446-1.674l-.445-.223h-.558l.111 3.793h.446c.149-.372.334-.557.559-.557m-5.579 199.267l3.123.447c5.729 0 11.382-.635 16.96-1.898a37.245 37.245 0 0 1 6.581-.78c-1.933-.296-3.458-.446-4.574-.446-.743 0-3.458.558-8.144 1.674-4.61.894-7.291 1.34-8.034 1.34-1.563 0-2.639-1.005-3.236-3.014a9.905 9.905 0 0 0-.222-.78c-1.563.373-2.567.743-3.012 1.116 0 .89.186 1.672.558 2.341m47.976-37.154c-4.314-.444-10.451-.519-18.409-.222-7.365.147-12.571.521-15.62 1.115-.446 1.116-1.377 1.861-2.789 2.231.074.074.148.188.223.336a4.505 4.505 0 0 1-.669.558l.333.333h40.166a589.077 589.077 0 0 1-3.235-4.351M365.147 421.328c0-.968-.149-1.488-.447-1.563l-.445-.334a58.65 58.65 0 0 0-13.054-1.673c-5.876 0-10.673 1.039-14.393 3.122-1.934 1.042-3.533 2.306-4.797 3.794.521.968 1.897 1.452 4.128 1.452.074 0 3.086-.373 9.037-1.116a170.14 170.14 0 0 1 19.08-1.787c.148-.37.334-.558.558-.558.222.001.333-.443.333-1.337m36.484-9.262h.334c-.074-.074-.186-.111-.334-.111a142.733 142.733 0 0 0-4.797-1.004l-2.231 4.798c5.132.521 10.6 1.116 16.4 1.785a951.554 951.554 0 0 0-9.372-5.468m-8.033-1.784l-1.563-.223 1.786 3.458-.223-3.235m-31.017-4.016c1.042.669 1.562 1.486 1.562 2.454 0 1.115-.52 2.009-1.562 2.678-.521.299-1.228.595-2.12.894 7.364.521 18.744 1.674 34.142 3.458l2.231-4.798a214.803 214.803 0 0 1-3.236-.669l.223 3.235-1.786-3.458c-6.992-1.414-13.426-2.417-19.302-3.014-3.941-.444-7.325-.706-10.152-.78m1.562-16.514c.968-.967 2.678-1.747 5.133-2.342a206.256 206.256 0 0 0-2.344-.111c-1.561 0-3.086.148-4.574.446 0 1.264.186 2.194.558 2.789.149.074.334.148.558.223.149-.373.371-.706.669-1.005m27.335-13.499l.224 3.124 1.45.223c.967 0 1.749-.223 2.344-.669.223-.148.521-.521.892-1.116l-.781-1.562c-1.786-.149-3.162-.149-4.129 0m-1.561.558c0 1.041.185 1.824.558 2.343l1.227.224-.224-3.124c-.744.075-1.264.258-1.561.557m-36.374 22.649a9.45 9.45 0 0 1 1.339 1.674c1.934-.15 4.5-.259 7.699-.335.074-.148.111-.26.111-.334a48.505 48.505 0 0 1-.334-3.683h-2.79c-3.347.37-6.025.706-8.033 1.005.67.446 1.339 1.004 2.008 1.673m52.997-113.47c.075 0 .149.074.223.225.67.595 1.413 1.189 2.231 1.785.818.521 1.71 1.041 2.678 1.563 1.413.669 3.087 1.338 5.021 2.007 1.414.446 2.975.856 4.687 1.229 7.735 1.933 16.289 2.9 25.662 2.9.892 0 1.45-.446 1.673-1.34 0-1.042.037-1.822.111-2.343-11.678-4.762-19.488-7.659-23.43-8.701-10.339-2.678-16.625-1.788-18.856 2.675z"/><path fill="#C8C097" d="M466.342 348.359a3.56 3.56 0 0 0-.111-.891c-.147-.373-.333-.672-.558-.894-.965-1.265-3.012-2.231-6.137-2.9-3.421-.817-8.07-1.267-13.946-1.341a17.285 17.285 0 0 0-1.896-.111h-2.901c-.967 0-1.971.037-3.013.111-2.827.148-5.393.299-7.698.447-3.049.225-5.765.483-8.145.782-4.091.593-7.141 1.449-9.149 2.564-.447.15-.855.373-1.228.669-1.487.819-2.231 1.861-2.231 3.125v.669c0 1.267.149 2.157.447 2.679.595 1.189 1.637 2.044 3.124 2.566.521 1.338 1.153 2.007 1.897 2.007 1.563 0 2.008-.446 1.339-1.338 0-.15.185-.225.558-.225h.446c25.513 0 40.65-.483 45.412-1.448h2.006c.076-.225.185-.484.335-.783.074-.147.148-.222.223-.222h.111a3.557 3.557 0 0 0 1.229-1.116c0-.074.035-.188.111-.335a25.547 25.547 0 0 1-.111-2.007v-.111a22.37 22.37 0 0 1-.114-1.897m54.337-54.223c4.537.447 9.074.819 13.611 1.116 1.115 0 2.046-.632 2.789-1.896.595-1.115.894-2.345.894-3.683 0-2.678-6.546-4.872-19.637-6.583l-7.141 10.042c3.123.372 6.284.708 9.484 1.004m-11.046-1.115c.521 0 1.042.037 1.563.111l7.141-10.042a525.163 525.163 0 0 0-8.703-.891v10.822m-5.691-11.38a5.71 5.71 0 0 1-1.116-.113l5.689 11.382a5.7 5.7 0 0 1 1.116.111V282.2a110.583 110.583 0 0 0-5.689-.559m-33.919 4.238c0 1.415 6.806 3.014 20.419 4.799 3.421.447 7.287.931 11.602 1.449 2.157.225 4.314.483 6.472.782l-5.689-11.382c-21.868-1.708-32.804-.258-32.804 4.352m21.2 16.961h-7.363c-8.777.222-15.398 1.002-19.861 2.342-3.495 1.04-5.615 2.491-6.358 4.353a2.98 2.98 0 0 0-.558 1.784c0 1.488.185 2.639.558 3.459.743 2.083 2.417 3.124 5.021 3.124 1.338 0 8.405-.819 21.199-2.455 8.775 1.414 19.972 3.198 33.582 5.355 1.785 0 2.938-.224 3.459-.669.225-.225.521-.632.894-1.229.222-.297.446-.632.669-1.003-.074-.224-.148-.372-.223-.446 1.412-.669 2.343-1.898 2.789-3.683.148-.669.223-1.488.223-2.454-.002-5.206-11.347-8.034-34.031-8.478m-50.989-37.713c.149 0 2.12.819 5.913 2.454 1.86.671 3.347 1.189 4.463 1.563 1.042.373 1.673.558 1.898.558.593 0 1.15-.185 1.674-.558.444-.446.817-1.005 1.115-1.674.371-.817.632-1.673.78-2.564.074-.523.111-1.116.111-1.787 0-3.792-3.311-6.694-9.929-8.701-7.141-2.157-16.699-2.679-28.674-1.563-5.207.446-8.628 1.264-10.265 2.454-1.116.819-1.674 2.379-1.674 4.687 0 1.934.074 3.123.224 3.569.446.894 1.599 1.415 3.458 1.563 2.157.371 10.823.41 25.997.111 1.562-.001 3.198-.038 4.909-.112m-16.178-47.976c0-3.421-4.761-4.314-14.281-2.678-9.521 1.637-14.281 3.497-14.281 5.579 0 .968.148 1.711.445 2.231.521.744 1.302 1.302 2.344 1.674.743.149 1.637.223 2.677.223.075 0 3.943-.781 11.604-2.342a462.8 462.8 0 0 1 3.57-.781c5.282-1.413 7.922-2.716 7.922-3.906m73.414-15.508c-1.264.521-2.081 1.079-2.453 1.673a2.069 2.069 0 0 0-.111.67c0 1.041.148 1.673.444 1.897.148.074.598.148 1.34.222 2.155-.521 3.57-1.079 4.239-1.674.372-.297.819-.78 1.34-1.45-.669-.744-1.005-1.45-1.005-2.119-.968-.149-2.232.112-3.794.781m-24.657-2.79c-.596-1.561-.894-2.603-.894-3.124-13.164.967-22.797 1.86-28.896 2.678-2.827.372-5.244.781-7.252 1.227-4.537 1.116-7.363 2.381-8.479 3.794-.373.446-.558.93-.558 1.45v.669c0 1.339.148 2.158.445 2.455.224.149.707.297 1.451.447 1.859-.595 8.59-.744 20.194-.447 3.051-.148 5.801-.409 8.257-.781 1.784-.372 3.384-.78 4.796-1.227 4.837-1.562 8.482-3.942 10.936-7.141m-9.261-19.636c.373.595 1.005 1.042 1.898 1.339.595-.224 1.189-.855 1.784-1.897-.37-.893-.968-1.525-1.784-1.897-.596.223-1.079.633-1.452 1.228-.298.446-.446.856-.446 1.227m11.939-21.422c1.563 0 1.896-.334 1.005-1.003-1.414-.744-3.088-1.191-5.021-1.339-2.529-.224-4.536.223-6.024 1.339 2.452.668 5.8 1.003 10.04 1.003m25.326 32.245c1.784 0 2.975-.149 3.571-.447.37-.223.892-.706 1.561-1.45-.593-.967-.892-1.599-.892-1.897-2.9-.148-5.468-.334-7.698-.558a97.533 97.533 0 0 0-4.353-.111c-3.196-.223-5.354-.334-6.47-.334-3.051-.075-4.576.521-4.576 1.785 0 .893.113 1.45.336 1.674l.222.447c8.257.073 14.357.37 18.299.891m.447-17.071l-.335-.893c-.593-.446-2.38-.855-5.354-1.227-3.199-.297-5.28-.521-6.248-.669-7.217-.224-13.24-.224-18.075 0h-2.454c-4.389.074-7.588.259-9.595.558-1.414.148-2.12.521-2.12 1.116 0 .967.111 1.562.333 1.785l.225.334c22.09.075 35.257.372 39.497.893 2.006-.001 3.381-.633 4.126-1.897m-.335-13.277c1.189.148 2.157.372 2.902.669.593.149 1.301.224 2.118.224.894 0 1.414-.261 1.563-.781 0-.669.076-1.153.225-1.45-1.19-.818-2.567-1.339-4.13-1.562-1.189-.075-2.269-.037-3.236.111-.001.595.187 1.525.558 2.789m-6.36-9.373a45.838 45.838 0 0 1 2.343-.334c2.826-.297 4.277-.521 4.352-.669-1.486-2.678-5.431-3.607-11.826-2.789-5.951.744-9.669 1.971-11.157 3.682.521.595 2.38.892 5.579.892 1.414 0 4.574-.223 9.483-.669a6.14 6.14 0 0 1 1.226-.113m.336-9.594c2.602-1.636 4.872-1.636 6.806 0 1.488 1.264 3.495.297 6.025-2.9-6.102-1.042-9.672-1.153-10.713-.335-2.083 1.488-3.421 2.269-4.017 2.344.3.37.931.667 1.899.891m18.409 7.587c.593-.298 1.189-.93 1.785-1.897l-.782-1.338c-3.644-.447-5.838-.261-6.581.558 0 .521.185 1.413.558 2.677h5.02m60.471 245.57c2.827 0 4.76-.299 5.802-.894.745-.446 1.229-1.115 1.451-2.007.074-.299.111-.706.111-1.229 0-1.486-4.278-2.789-12.831-3.904l-2.007 1.34v1.227c0 1.936-.41 3.569-1.229 4.91 2.902.221 5.803.406 8.703.557m-6.247-50.319l2.343 11.826c2.602.372 4.24.558 4.909.558.892 0 1.637-.409 2.231-1.227.223-.299.407-.632.558-1.005.596-1.115.892-2.53.892-4.24 0-1.637-3.421-3.532-10.264-5.69l-.669-.222m-21.645-4.576a54.449 54.449 0 0 0-5.689-.558c-2.382.446-5.729.671-10.042.671-3.198 0-6.025-.113-8.479-.336-5.579 1.19-8.368 3.794-8.368 7.811 0 .967.074 1.86.223 2.678.074.223.147.481.222.78.598 2.009 1.674 3.014 3.236 3.014.743 0 3.424-.446 8.034-1.34 4.686-1.116 7.4-1.674 8.144-1.674 1.116 0 2.642.15 4.574.446 1.414.074 3.014.262 4.799.559 1.041.147 2.194.335 3.458.558.894.074 1.784.223 2.678.446 2.157.373 4.463.743 6.917 1.116 6.25 1.039 11.009 1.784 14.282 2.231l-2.343-11.826c-6.547-2.083-13.763-3.608-21.646-4.576m-80.221 90.04a27.872 27.872 0 0 0-4.685 4.685c1.933.745 4.386 1.005 7.363.782 4.092-.299 11.083-1.078 20.976-2.345 3.199.225 12.644-.296 28.338-1.56 17.852-1.341 29.715-2.79 35.592-4.353 1.116-.298 1.75-1.525 1.898-3.683a13.937 13.937 0 0 0-.559-5.243c-1.115-4.24-18.409-5.541-51.881-3.904-16.81.816-29.156 2.453-37.043 4.909-3.347.966-5.838 2.118-7.475 3.458-.967.595-1.636 1.265-2.009 2.007 3.05 1.416 6.214 3.163 9.485 5.247m22.983-47.196c-1.933.076-3.159.15-3.681.225-3.646.222-5.578.892-5.803 2.007v.111c0 .968.113 1.563.336 1.787l.222.333h10.488c2.009-.223 8.553-.558 19.637-1.005-.817.447-1.228.968-1.228 1.563 0 1.341 10.153 2.866 30.46 4.574.669.074 1.375.113 2.12.113.223 0 .484.035.78.111-.147-.894-.222-1.973-.222-3.236 0-3.495 1.486-5.914 4.463-7.252l-.336-.111a20.884 20.884 0 0 0-2.12-.111c-6.694-.298-13.796-.409-21.31-.335-.596 0-1.19.074-1.785.222-16.139.446-26.813.781-32.021 1.004m-65.938 1.34a939.814 939.814 0 0 1-3.347-.224c-3.198-.223-6.359-.447-9.483-.67l-10.6 23.095c6.621.148 10.749.41 12.385.782 3.57.669 8.294 1.005 14.17 1.005 4.313 0 6.471-2.977 6.471-8.926 0-2.828-.334-4.65-1.004-5.468 0-.146-.037-.22-.111-.224h18.633c.148-.817.334-1.228.558-1.228.222 0 .334-1.004.334-3.012 0-2.083-.149-3.235-.447-3.458a5143.093 5143.093 0 0 1-27.559-1.672m-29.231-2.009h-1.673l1.45 24.1c2.231 0 4.239.036 6.024.11l10.6-23.095c-5.43-.37-10.898-.745-16.401-1.115m-1.674 0a99.829 99.829 0 0 0-4.687-.336c-2.752-.147-5.542-.37-8.368-.669-4.389-.222-6.918-.222-7.587 0-.373.299-.558 1.525-.558 3.683v.559c0 1.115.074 2.007.222 2.678-.595.148-1.116.26-1.562.334-2.455.595-4.165 1.375-5.133 2.342a2.99 2.99 0 0 0-.669 1.005c-.372.595-.669 1.375-.893 2.343-.149.819-.223 1.787-.223 2.902v.78c.074 1.338.186 2.567.334 3.683a.99.99 0 0 1 .112.444c.595 2.829 1.673 4.241 3.235 4.241h7.364c6.099 0 11.529.037 16.289.111l-9.818-19.525 9.818 19.525h3.571l-1.447-24.1m-34.922 23.988c.297 1.115.446 2.269.446 3.458 0 2.009-.371 3.458-1.115 4.352 1.636-.148 3.049-.37 4.239-.669.893-.299 1.6-.595 2.12-.894 1.042-.669 1.562-1.563 1.562-2.678 0-.968-.52-1.785-1.562-2.454-1.189-.668-3.086-1.04-5.69-1.115m-22.984 3.012c-2.529.745-3.794 1.562-3.794 2.455 0 1.19.149 1.934.447 2.231 1.189 1.116 3.793 1.711 7.81 1.785l-.224-.223c-1.858-2.156-3.272-4.239-4.239-6.248m48.757-113.468c-.447.073-.855.11-1.228.11.373 3.348.818 6.993 1.339 10.936 6.471-.076 11.53-.225 15.174-.447-2.976.745-5.17 2.157-6.583 4.241-1.563 2.231-2.343 5.206-2.343 8.926v1.673c0 1.785.074 3.234.222 4.35.075.894.149 1.525.224 1.898 1.636 4.463 5.802 6.694 12.496 6.694 5.95 0 9.633-1.005 11.046-3.014 1.19-1.338 1.785-5.206 1.785-11.602 0-7.662-2.752-12.014-8.257-13.056a22.504 22.504 0 0 0-3.905-.78c.447-.076.818-.15 1.116-.225 2.455-.669 3.683-2.453 3.683-5.354 0-1.711-1.376-2.975-4.128-3.794-2.455-.745-5.988-1.116-10.6-1.116h-.558c-1.116 0-2.306.037-3.571.111a68.144 68.144 0 0 0-5.912.449m5.69-50.654c1.19.298 2.305.634 3.347 1.005a4.17 4.17 0 0 0 .112-1.005c0-1.933-2.641-3.72-7.922-5.354a188.413 188.413 0 0 0-2.343 8.479c.743.147 1.562.298 2.455.446l4.351-3.571m77.097-11.715c0 1.041.147 1.784.446 2.231.892 1.34 2.863 2.009 5.912 2.009 3.942 0 10.858-.521 20.752-1.563 5.652-.521 10.115-1.079 13.389-1.674-.817-2.157-1.449-4.24-1.896-6.247h-.11c-3.72-.299-8.741-.299-15.063 0-15.62.67-23.43 2.417-23.43 5.244z"/><path fill="#928781" d="M448.826 297.261c0 .519.186 1.449.558 2.789 2.603.297 5.505.706 8.704 1.228.891.148 1.673.298 2.342.446.596-.298 1.375-.335 2.343-.113a3.663 3.663 0 0 1-.111-.892c-.224-.076-.335-.224-.335-.446.15-.148.856-.336 2.12-.558l-.336-.558c-2.75-1.116-5.056-1.936-6.916-2.454-.745-.148-1.486-.299-2.231-.447-1.19-.149-2.269-.149-3.236 0a7.868 7.868 0 0 0-2.902 1.005m-39.497-2.903h1.005c2.38-.074 3.942-.297 4.686-.669.669-.299 1.227-1.005 1.673-2.12-1.934-.669-3.607-1.338-5.021-2.007h-16.178a1.755 1.755 0 0 0-.893 0c-.67.222-1.004.779-1.004 1.673 0 .966.111 1.598.334 1.896l.223.224c6.473.297 11.531.633 15.175 1.003z"/><path fill="#8B8B8B" d="M490.219 218.044c0 1.71.743 2.678 2.231 2.901 1.488.222 3.049.334 4.688.334 1.708 0 2.975-.112 3.792-.334.893-.223 1.34-1.191 1.34-2.901 0-1.711-.595-3.198-1.785-4.463-1.189-1.116-2.604-1.674-4.24-1.674s-3.051.558-4.24 1.674c-1.192 1.265-1.786 2.752-1.786 4.463m86.579 151.403v-.223l-4.907-3.905-8.034-6.472c-12.197 2.9-19.563 9.521-22.09 19.86l4.127 2.343.336.111c.147-.074.259-.111.333-.111a69.576 69.576 0 0 1 8.368-3.347c2.9-1.042 5.504-.41 7.81 1.896a15.047 15.047 0 0 1 1.674 2.009 13.251 13.251 0 0 1 1.563 3.459c0 .147.037.296.111.446.076.521.15 1.079.225 1.674l2.007-1.34 8.479-6.248v-10.152z"/><path fill="#4F7B37" d="M675.652 286.326c21.868-21.421 49.909-41.171 84.124-59.244V190.04c-22.166 2.231-42.509 5.802-61.029 10.71-57.57 15.323-97.03 43.848-118.377 85.576-6.174 12.051-10.824 25.215-13.947 39.497 5.542 8.74 11.081 17.479 16.625 26.219a111.108 111.108 0 0 1 2.454 4.238 213.685 213.685 0 0 1 2.453 4.353 79.11 79.11 0 0 0 1.787 3.125l26.664 52.996c.148.37.299.706.446 1.005-.073-49.24 19.526-93.052 58.8-131.433M140.553 114.171v26.554c44.332-7.438 100.86.148 169.589 22.761 59.876-24.993 104.096-19.451 132.658 16.624 9.372-7.363 15.063-14.17 17.071-20.417 5.877-6.471 7.847-11.789 5.912-15.955-1.785-4.017-6.507-8.182-14.169-12.496-3.794-5.727-12.98-11.417-27.558-17.07-102.496-23.431-196.997-23.431-283.503-.001m375.774 23.206c14.504 5.579 18.779 14.467 12.831 26.666 18.671-26.405 66.089-43.03 142.254-49.873H424.057c14.578 5.653 23.764 11.343 27.558 17.07 2.602-.297 7.623-.41 15.063-.334 7.588 0 13.426.186 17.516.558 9.074.818 14.84 1.413 17.294 1.785 4.388.67 9.334 2.045 14.839 4.128z"/><path fill="#ECF1FF" d="M759.776 19.335c0-6.323-3.049-9.484-9.148-9.484h-601.93c-4.016 0-6.731 1.339-8.145 4.016v100.304c86.505-23.43 181.007-23.43 283.504 0h247.355c42.545-7.364 71.702-7.364 87.473 0h.892V19.335M504.054 227.082a29.64 29.64 0 0 1-.446-1.674c.111.558.225 1.115.336 1.674h.11z"/><path fill="#71A240" d="M529.158 164.043c-1.116 2.306-2.642 4.761-4.574 7.364a201.98 201.98 0 0 1-4.688 5.689c-8.627 9.521-14.021 18.782-16.178 27.782l-.334 19.302.223 1.228c.131.557.279 1.113.446 1.674.447 2.007 1.079 4.09 1.896 6.247.074.223.148.447.225.669.372.894.743 1.824 1.115 2.79l1.896-.78c33.547-55.712 96.733-67.464 189.561-35.258 18.521-4.908 38.863-8.479 61.029-10.71v-75.869h-.892c-15.771-7.364-44.928-7.364-87.473 0-76.163 6.842-123.581 23.467-142.252 49.872M333.126 406.266c-.595-2.157.223-4.426 2.455-6.806 2.157-2.157 4.686-3.384 7.587-3.683 6.62-44.553-2.195-81.037-26.443-109.451-31.909-37.414-90.634-60.807-176.171-70.179 40.984 18.594 74.046 41.99 99.187 70.179 36.299 40.687 56.009 91.378 59.133 152.073v-5.692a845.41 845.41 0 0 0 11.046-7.921 1079.83 1079.83 0 0 1 5.468-4.127c6.32-4.836 12.233-9.634 17.738-14.393m109.675-226.157c-28.562-36.075-72.782-41.616-132.658-16.624 36.298 14.95 61.81 37.301 76.538 67.054 2.381-6.173 5.504-11.715 9.373-16.625 4.313-5.429 9.967-10.524 16.959-15.285 12.272-6.618 22.201-12.792 29.788-18.52z"/><path fill="#999" d="M564.414 381.608a15.047 15.047 0 0 0-1.674-2.009c-2.306-2.306-4.909-2.938-7.81-1.896a69.576 69.576 0 0 0-8.368 3.347c-.074 0-.186.037-.333.111-2.977 1.338-4.463 3.757-4.463 7.252 0 1.264.074 2.343.222 3.236a.99.99 0 0 0 .111.446c.225 1.265.669 2.084 1.34 2.454 1.042.595 3.644 1.486 7.811 2.678 4.164 1.116 7.736.78 10.71-1.004.743-.447 1.376-.929 1.896-1.451.446-.445.856-.929 1.227-1.449.819-1.341 1.229-2.975 1.229-4.91v-1.227a74.82 74.82 0 0 0-.225-1.674 1.003 1.003 0 0 1-.111-.446 13.24 13.24 0 0 0-1.562-3.458M391.701 245.045a36.189 36.189 0 0 0-3.347-1.005l-4.351 3.571-3.236 2.676-1.897 1.451v7.699l.112.111 10.822 7.475 14.84-8.368c-.596-2.676-1.673-5.021-3.236-7.027a15.513 15.513 0 0 0-4.128-3.794c-1.637-1.116-3.496-2.044-5.579-2.789z"/><path fill="#55843C" d="M509.187 236.008l-1.339 2.231c1.563 3.794 3.385 7.698 5.468 11.715a66.5 66.5 0 0 0 1.674 3.347c5.504 10.264 12.569 21.273 21.198 33.025a441.245 441.245 0 0 0 13.389 17.294c1.042 1.264 2.083 2.527 3.123 3.793a209.236 209.236 0 0 1 6.36 8.144 642.11 642.11 0 0 0 3.234 4.352c1.34 1.934 2.715 3.905 4.129 5.915 3.123-14.282 7.773-27.446 13.947-39.497 21.347-41.729 60.807-70.253 118.377-85.576-92.827-32.208-156.014-20.455-189.56 35.257m-199.044-72.522c-68.729-22.613-125.258-30.2-169.589-22.761v75.422c85.538 9.373 144.262 32.765 176.171 70.179 24.248 28.414 33.063 64.898 26.443 109.451.447-.074.93-.111 1.45-.111h.112c.298-.296.632-.595 1.004-.893l19.19-21.644a43.92 43.92 0 0 1 2.12-3.014 166.254 166.254 0 0 0 3.571-5.243c.595-.894 1.153-1.75 1.673-2.567l4.24-7.585 7.81-24.882c.148-1.189.26-2.343.334-3.458v-2.343a51.662 51.662 0 0 0-1.116-11.715 311.62 311.62 0 0 1-.781-6.583 540.667 540.667 0 0 1-1.339-10.936c-.372-3.048-.706-5.877-1.003-8.479-.373-3.125-.707-5.875-1.004-8.257a55.57 55.57 0 0 0-.223-1.785c-.223-2.306-.409-4.24-.558-5.801a41.095 41.095 0 0 1-.111-3.125c-.074-2.379.074-4.983.447-7.81l-.112-.111v-7.699l1.897-1.451a48.43 48.43 0 0 1 .781-3.122c.669-2.679 1.45-5.505 2.343-8.479.447-1.414.892-2.828 1.339-4.24.447-1.338.93-2.642 1.45-3.905-14.729-29.752-40.242-52.103-76.539-67.053z"/><path fill="#949494" d="M335.581 399.46c-2.231 2.38-3.05 4.648-2.455 6.806 0 .223.037.41.112.558.148.447.371.894.669 1.339.966 2.009 2.38 4.092 4.239 6.249l.224.223c1.339 1.563 2.789 2.38 4.352 2.454 1.041.076 2.119-.186 3.235-.78.149-.074.334-.148.558-.223 2.529-1.34 4.946-2.009 7.252-2.009 1.042-.074 1.86-.447 2.455-1.116.744-.894 1.115-2.343 1.115-4.352 0-1.189-.149-2.343-.446-3.458a12.763 12.763 0 0 0-2.008-4.017 9.487 9.487 0 0 0-1.339-1.674 13.251 13.251 0 0 0-2.008-1.673c-2.008-1.415-4.276-2.121-6.806-2.121h-.112c-.52 0-1.003.037-1.45.111-2.901.299-5.43 1.526-7.587 3.683z"/><g><path fill="none" stroke="#324A00" stroke-width="2" stroke-linecap="round" stroke-linejoin="round" d="M503.607 225.464l-.223-1.284.334-19.302c2.157-9 7.551-18.261 16.178-27.782a206.693 206.693 0 0 0 4.688-5.689c1.933-2.603 3.458-5.058 4.574-7.364 5.948-12.199 1.673-21.087-12.831-26.666-5.505-2.083-10.451-3.458-14.84-4.128-2.454-.372-8.22-.966-17.294-1.785-4.09-.372-9.928-.558-17.516-.558-7.439-.075-12.461.037-15.063.334 7.662 4.314 12.384 8.479 14.169 12.496 1.935 4.166-.035 9.484-5.912 15.955-2.009 6.248-7.699 13.054-17.071 20.417-7.587 5.728-17.516 11.901-29.789 18.521-6.992 4.76-12.646 9.855-16.959 15.285-3.868 4.91-6.992 10.451-9.373 16.625a60.813 60.813 0 0 0-1.45 3.905c-.447 1.412-.892 2.826-1.339 4.24m-4.908 20.865c-.373 2.826-.521 5.431-.447 7.81 0 1.116.037 2.158.111 3.125.149 1.561.335 3.495.558 5.801m.224 1.784c.297 2.382.632 5.132 1.004 8.257.298 2.602.632 5.431 1.003 8.479m1.34 10.935c.223 2.081.484 4.277.781 6.583a51.776 51.776 0 0 1 1.116 11.715m0 2.343a61.37 61.37 0 0 1-.334 3.458l-7.81 24.882-4.24 7.585m-7.364 10.824l-19.19 21.644c-.372.298-.706.597-1.004.893m326.682-281.496c-76.165 6.842-123.583 23.467-142.254 49.873m-105.101-49.873c-102.497-23.43-196.999-23.43-283.504 0m530.859 0c42.545-7.364 71.702-7.364 87.473 0H760.448m-619.895 26.554c44.332-7.438 100.86.148 169.589 22.761 59.876-24.993 104.096-19.451 132.658 16.624m8.815-48.869c-3.794-5.727-12.98-11.417-27.558-17.07m1.45 91.934l-2.008 6.36-2.9-6.36m5.913-3.011l.893-2.901m.891-2.678l.447-1.451m74.864 29.4c.131.52.279 1.058.446 1.618.447 2.007 1.079 4.09 1.896 6.247.074.223.148.447.225.669.372.894.743 1.824 1.115 2.79m1.898-.78c33.547-55.712 96.733-67.464 189.561-35.258 18.521-4.908 38.863-8.479 61.029-10.71m-332.373 10.152l.892-2.677m-2.789 8.59l1.004-3.012m-7.14.335l1.228 2.677m92.716 43.849c-2.083-4.017-3.905-7.921-5.468-11.715a8.388 8.388 0 0 1-.558-1.451m2.344 34.812v10.6m-128.085-35.035a47.78 47.78 0 0 0-.781 3.122m-1.562 25.997c.075.521.149 1.116.223 1.785m4.463-39.383a188.413 188.413 0 0 0-2.343 8.479m3.124 76.873v2.343m-51.546 79.885c-5.505 4.76-11.418 9.558-17.739 14.394m-5.468 4.126a854.947 854.947 0 0 1-11.046 7.921m0 5.692c-3.124-60.695-22.834-111.387-59.133-152.073-25.141-28.189-58.203-51.585-99.187-70.179 85.538 9.373 144.262 32.765 176.171 70.179 24.248 28.414 33.063 64.898 26.443 109.451m29.121-33.471c-.521.817-1.079 1.674-1.673 2.567a166.254 166.254 0 0 1-3.571 5.243 43.92 43.92 0 0 0-2.12 3.014m202.615-29.567l-.894-4.241m5.246 25.997l-1.563-7.698m-188.892-62.816c.373 3.348.818 6.993 1.339 10.936m-67.388 114.918a1079.83 1079.83 0 0 0-5.468 4.127m449.857-197.704c-34.215 18.073-62.256 37.823-84.124 59.244-39.274 38.381-58.873 82.192-58.8 131.433a2036.292 2036.292 0 0 1 9.262 20.641M507.848 238.239l1.339-2.231m4.128 13.946a66.5 66.5 0 0 0 1.674 3.347c5.504 10.264 12.569 21.273 21.198 33.025a441.245 441.245 0 0 0 13.389 17.294c1.042 1.264 2.083 2.527 3.123 3.793a209.236 209.236 0 0 1 6.36 8.144 642.11 642.11 0 0 0 3.234 4.352c1.34 1.934 2.715 3.905 4.129 5.915 3.123-14.282 7.773-27.446 13.947-39.497 21.347-41.729 60.807-70.253 118.377-85.576m-189.113 92.27v2.231l1.563-2.12m-1.563 2.12l-1.116-2.343-5.689-11.382m6.805.672v10.821m1.562.112l7.141-10.042.445-.669m51.101 72.969l-2.343-11.826m17.963 12.716c-.819-1.485-1.637-2.9-2.454-4.238-5.544-8.74-11.083-17.479-16.625-26.219m3.905 31.798l-.446-2.231m9.819-.448l-.782 4.128-2.121 10.377m11.157-8.814a216.413 216.413 0 0 0-2.453-4.353m31.351 61.479a14.428 14.428 0 0 1-.446-1.005l-26.664-52.996a79.11 79.11 0 0 1-1.787-3.125M310.143 163.486c36.298 14.95 61.81 37.301 76.538 67.054"/></g><g><path fill="none" stroke="#324A00" stroke-linecap="round" stroke-linejoin="round" d="M520.01 149.54l.669-1.228m-2.232 4.017l-2.789 5.132-.558.893-1.563-4.351m2.01-5.245v1.45m2.9 2.121l1.563-2.789m-4.352 7.92v-3.458l-.111-3.793m-2.456 2.454l.447 1.339m-89.481-39.831h247.355"/></g><g><path fill="none" stroke="#333" stroke-width="2" stroke-linecap="round" stroke-linejoin="round" d="M397.28 247.834c-1.637-1.116-3.496-2.044-5.579-2.789m9.707 6.583c1.563 2.007 2.64 4.352 3.236 7.027l-14.84 8.368-10.822-7.475m-34.253 136.118c2.529 0 4.798.706 6.806 2.121m138.684-179.743c0-1.711.595-3.198 1.785-4.463 1.189-1.116 2.604-1.674 4.24-1.674s3.051.558 4.24 1.674c1.19 1.265 1.785 2.752 1.785 4.463 0 1.71-.447 2.678-1.34 2.901-.817.222-2.084.334-3.792.334-1.639 0-3.199-.112-4.688-.334-1.487-.223-2.23-1.191-2.23-2.901zm-98.518 27.001a36.189 36.189 0 0 0-3.347-1.005l-4.351 3.571-3.236 2.676-1.897 1.451v7.699l.112.111m22.426-7.92a15.513 15.513 0 0 0-4.128-3.794m-58.91 166.8l-.224-.223c-1.859-2.157-3.273-4.24-4.239-6.249a5.548 5.548 0 0 1-.669-1.339 1.23 1.23 0 0 1-.112-.558m10.041-10.488c.447-.074.93-.111 1.45-.111h.112m-11.603 10.6c-.595-2.157.223-4.426 2.455-6.806 2.157-2.157 4.686-3.384 7.587-3.683m13.723 9.373c.297 1.115.446 2.269.446 3.458 0 2.009-.371 3.458-1.115 4.352m.669-7.81a12.763 12.763 0 0 0-2.008-4.017 9.487 9.487 0 0 0-1.339-1.674 13.251 13.251 0 0 0-2.008-1.673m194.358-16.735l-4.127-2.343c2.527-10.34 9.893-16.96 22.09-19.86l8.034 6.472m-229.169 51.768c-1.563-.074-3.013-.892-4.352-2.454m17.852-1.674c-.595.669-1.414 1.042-2.455 1.116-2.306 0-4.723.669-7.252 2.009a4.16 4.16 0 0 0-.558.223c-1.116.595-2.194.856-3.235.78m225.597-31.24l8.479-6.248v-10.375l-4.907-3.905m-25.662 15.842c.147-.074.259-.111.333-.111a69.576 69.576 0 0 1 8.368-3.347c2.9-1.042 5.504-.41 7.81 1.896a15.047 15.047 0 0 1 1.674 2.009 13.251 13.251 0 0 1 1.563 3.459c0 .147.037.296.111.446.076.521.15 1.079.225 1.674l2.007-1.34m-4.464 8.925c-.521.522-1.153 1.004-1.896 1.451-2.974 1.784-6.546 2.12-10.71 1.004-4.167-1.191-6.769-2.083-7.811-2.678-.671-.37-1.115-1.189-1.34-2.454m-.111-.446c-.147-.894-.222-1.973-.222-3.236 0-3.495 1.486-5.914 4.463-7.252l-.336-.111m-3.793 11.046a.99.99 0 0 1-.111-.446m23.094 1.673a11.16 11.16 0 0 1-1.227 1.449m2.457-7.585v1.227c0 1.936-.41 3.569-1.229 4.91"/></g><g><path fill="none" stroke="#324A00" stroke-width="3" stroke-linecap="round" stroke-linejoin="round" d="M391.813 381.162l-.112-1.785m-.669-9.818l.445 6.694.224 3.124m1.563 25.885l-1.45-24.1m7.474 24.21l10.6-23.095 1.004-2.342m-31.017 5.801l9.818 19.525m7.141 5.69l2.454-5.579m-5.69 4.91l-.334-5.021m-3.571.001l2.343 4.798m1.562.222l.223 3.235-1.786-3.458m2.568 5.69l2.231-4.798"/></g></svg>