<?xml version="1.0" encoding="utf-8"?>
<!-- Generator: Adobe Illustrator 16.0.0, SVG Export Plug-In . SVG Version: 6.00 Build 0)  -->
<!DOCTYPE svg PUBLIC "-//W3C//DTD SVG 1.1//EN" "http://www.w3.org/Graphics/SVG/1.1/DTD/svg11.dtd">
<svg version="1.1" id="Layer_1" xmlns="http://www.w3.org/2000/svg" xmlns:xlink="http://www.w3.org/1999/xlink" x="0px" y="0px"
	 width="900px" height="450px" viewBox="0 0 900 450" enable-background="new 0 0 900 450" xml:space="preserve">
<g transform="matrix( 1, 0, 0, 1, 0,0) ">
	<g>
		<g id="Layer0_0_FILL">
			<path fill="#5E9142" d="M759.776,227.082c-34.215,18.073-62.256,37.823-84.124,59.244c-39.274,38.381-58.873,82.192-58.8,131.433
				c3.049,6.694,6.137,13.573,9.262,20.641h133.662V227.082 M239.74,286.326c-25.141-28.189-58.203-51.585-99.187-70.179v222.252
				h158.32C295.749,377.704,276.039,327.013,239.74,286.326z"/>
			<path fill="#9B9187" d="M524.584,171.407c1.933-2.603,3.458-5.058,4.574-7.364c5.948-12.199,1.673-21.087-12.831-26.666
				c-5.505-2.083-10.451-3.458-14.84-4.128c-2.454-0.372-8.22-0.966-17.294-1.785c-4.09-0.372-9.928-0.558-17.516-0.558
				c-7.439-0.075-12.461,0.037-15.063,0.334c7.662,4.314,12.384,8.479,14.169,12.496c1.935,4.166-0.035,9.484-5.912,15.955
				c-2.009,6.248-7.699,13.054-17.071,20.417c-7.587,5.728-17.516,11.901-29.789,18.521c-6.992,4.76-12.646,9.855-16.959,15.285
				c-3.868,4.91-6.992,10.451-9.373,16.625c-0.521,1.264-1.003,2.567-1.45,3.905c-0.447,1.412-0.892,2.826-1.339,4.24
				c5.281,1.635,7.922,3.422,7.922,5.354c0,0.372-0.038,0.708-0.112,1.005c2.083,0.745,3.942,1.673,5.579,2.789
				c3.049-0.074,6.768-0.074,11.157,0l0.447,0.222c0.297,0.148,0.445,0.706,0.445,1.674c0,0.894-0.111,1.34-0.334,1.34
				c-0.223,0-0.409,0.186-0.558,0.559h-7.029c1.563,2.007,2.64,4.352,3.236,7.027l-14.84,8.368l-10.822-7.475
				c-0.373,2.826-0.521,5.431-0.447,7.81c0,1.116,0.037,2.158,0.111,3.125c0.149,1.561,0.335,3.495,0.558,5.801
				c10.265-5.058,16.327-7.104,18.187-6.136l0.892,1.451c-1.637,0.817-4.166,2.007-7.586,3.569c-4.76,2.009-7.922,3.012-9.484,3.012
				c-0.744,0-1.339-0.035-1.786-0.111c0.297,2.382,0.632,5.132,1.004,8.257c0.298,2.602,0.632,5.431,1.003,8.479
				c0.373,0,0.781-0.037,1.228-0.11c-0.074-0.297-0.112-0.78-0.112-1.452c0-1.338,3.943-2.938,11.828-4.796
				c5.802-1.34,9.929-2.083,12.384-2.231c-0.074-0.15-0.148-0.225-0.223-0.225c2.231-4.463,8.517-5.354,18.856-2.676
				c3.942,1.042,11.752,3.939,23.43,8.701c-0.074,0.521-0.111,1.301-0.111,2.343c-0.223,0.894-0.781,1.34-1.673,1.34
				c-9.373,0-17.927-0.968-25.662-2.9c-1.712-0.372-3.273-0.782-4.687-1.229c-0.446,1.115-1.004,1.821-1.673,2.12
				c-0.744,0.372-2.306,0.595-4.686,0.669c-2.306,0.299-4.649,0.597-7.029,0.894c2.752,0.819,4.128,2.083,4.128,3.794
				c0,2.9-1.228,4.685-3.683,5.354c-0.297,0.074-0.669,0.148-1.116,0.225c1.339,0.148,2.641,0.407,3.905,0.78
				c5.504,1.042,8.257,5.394,8.257,13.056c0,6.396-0.595,10.264-1.785,11.602c-1.413,2.009-5.096,3.014-11.046,3.014
				c-6.694,0-10.86-2.231-12.496-6.694c-0.074-0.373-0.148-1.005-0.224-1.898c-0.148-1.115-0.222-2.564-0.222-4.35
				c0-0.522,0-1.08,0-1.673c0-3.72,0.78-6.694,2.343-8.926c1.413-2.084,3.607-3.496,6.583-4.241
				c-3.645,0.223-8.704,0.371-15.174,0.447c0.223,2.081,0.484,4.277,0.781,6.583c0.818,3.865,1.189,7.771,1.116,11.715
				c1.116-0.372,2.566-0.632,4.352-0.782c0,1.414,0.074,2.53,0.222,3.348c-0.966-0.074-1.971-0.111-3.011-0.111
				c-0.596,0-1.116-0.037-1.563-0.111c-0.074,1.115-0.187,2.269-0.334,3.458l-7.81,24.882l-4.24,7.585
				c-0.521,0.894-1.042,1.75-1.563,2.567c4.687-0.15,10.525-0.15,17.517,0l0.781,1.449c-2.901,1.414-5.542,1.935-7.922,1.563
				c-2.826-0.373-6.917,0.372-12.272,2.231h-1.674c-0.743,1.042-1.487,2.046-2.231,3.014l-19.19,21.644
				c-0.372,0.298-0.706,0.597-1.004,0.893c2.529,0,4.798,0.706,6.806,2.121c2.008-0.299,4.687-0.635,8.033-1.005h2.79
				c0-0.223,0-0.483,0-0.78c0-1.115,0.074-2.083,0.223-2.902c0.224-0.968,0.521-1.748,0.893-2.343
				c-0.224-0.074-0.409-0.148-0.558-0.223c-0.372-0.595-0.558-1.525-0.558-2.789c1.487-0.298,3.013-0.446,4.574-0.446
				c0.075,0,0.855,0.037,2.344,0.111c0.446-0.074,0.967-0.186,1.562-0.334c-0.148-0.671-0.222-1.563-0.222-2.678
				c0-0.225,0-0.41,0-0.559c0-2.157,0.185-3.384,0.558-3.683c0.669-0.222,3.198-0.222,7.587,0c2.826,0.299,5.616,0.521,8.368,0.669
				c1.562,0.074,3.124,0.188,4.687,0.336l-0.112-1.785l-1.227-0.224c-0.373-0.519-0.558-1.302-0.558-2.343
				c0.297-0.299,0.818-0.481,1.561-0.558l-0.445-6.694l0.445,6.694c0.968-0.148,2.344-0.148,4.128,0l0.781,1.562
				c-0.372,0.596-0.669,0.968-0.892,1.116c-0.595,0.446-1.376,0.669-2.344,0.669l-1.45-0.223l0.112,1.785c0.52,0,1.077,0,1.673,0
				c5.503,0.37,10.971,0.745,16.4,1.115l1.004-2.342l-1.004,2.342c3.125,0.223,6.286,0.447,9.483,0.67
				c0-0.373,0.149-0.743,0.447-1.116c0.372-0.595,0.855-1.039,1.45-1.338c0.818,0.446,1.413,1.115,1.786,2.007
				c-0.075,0.225-0.186,0.447-0.335,0.671c9.373,0.593,18.559,1.151,27.559,1.674c0.297,0.223,0.447,1.375,0.447,3.458
				c0,2.008-0.112,3.012-0.334,3.012c-0.224,0-0.41,0.41-0.558,1.228h-18.633c0.074,0.004,0.111,0.078,0.111,0.224
				c0.67,0.817,1.004,2.64,1.004,5.468c0,5.949-2.157,8.926-6.471,8.926c-5.876,0-10.6-0.336-14.17-1.005
				c-1.637-0.372-5.765-0.634-12.385-0.782l-2.454,5.579c1.562,0.299,3.161,0.632,4.797,1.004c0.148,0,0.26,0.037,0.334,0.111
				l5.468-0.222c4.388,0,10.078,1.375,17.07,4.127c3.645,1.266,6.768,2.752,9.371,4.463c1.712-0.37,3.72-0.558,6.025-0.558
				c5.207,0.15,10.636,1.451,16.289,3.904c0.373-0.742,1.042-1.412,2.009-2.007c1.637-1.34,4.128-2.492,7.475-3.458
				c7.887-2.456,20.233-4.093,37.043-4.909c33.472-1.637,50.766-0.336,51.881,3.904c0.52,1.711,0.706,3.459,0.559,5.243
				c-0.148,2.157-0.782,3.385-1.898,3.683c-5.877,1.563-17.74,3.012-35.592,4.353c-15.694,1.264-25.139,1.784-28.338,1.56
				c-9.893,1.267-16.884,2.046-20.976,2.345c-2.978,0.223-5.431-0.037-7.363-0.782c-1.116,1.488-2.047,3.051-2.79,4.688h167.916
				c-3.125-7.067-6.213-13.946-9.262-20.641c-0.147-0.299-0.298-0.635-0.446-1.005l-26.664-52.996
				c-0.671-1.116-1.264-2.158-1.787-3.125c-1.264-0.223-4.275-0.743-9.036-1.563l-2.121,10.377V379.6l-8.479,6.248
				c8.553,1.115,12.831,2.418,12.831,3.904c0,0.523-0.037,0.931-0.111,1.229c1.041,0,2.12,0,3.235,0l0.334,0.333
				c0.148,0.15,0.225,0.669,0.225,1.563s-0.037,1.338-0.111,1.338c-0.225,0.074-0.373,0.262-0.447,0.559h-20.418
				c-0.521,0.522-1.153,1.004-1.896,1.451c-2.974,1.784-6.546,2.12-10.71,1.004c-4.167-1.191-6.769-2.083-7.811-2.678
				c-0.671-0.37-1.115-1.189-1.34-2.454c-0.892,0-1.747-0.039-2.564-0.113l-0.336-0.333c-0.074-0.076-0.111-0.15-0.111-0.225
				c-20.307-1.708-30.46-3.233-30.46-4.574c0-0.595,0.41-1.115,1.228-1.563c-11.084,0.447-17.628,0.782-19.637,1.005H479.73
				l-0.222-0.333c-0.223-0.225-0.336-0.819-0.336-1.787v-0.111c0.225-1.115,2.157-1.785,5.803-2.007
				c0.521-0.074,1.748-0.148,3.681-0.225c-0.148-0.299-0.222-0.78-0.222-1.449c0-1.34,1.821-1.86,5.467-1.563
				c2.9,0.223,11.826,0.892,26.777,2.007c0.595-0.147,1.189-0.222,1.785-0.222c7.514-0.074,14.615,0.037,21.31,0.335
				c0.669,0,1.375,0.035,2.12,0.111l-4.127-2.343c2.527-10.34,9.893-16.96,22.09-19.86l8.034,6.472l-1.563-7.698
				c-9.894-1.711-15.771-2.269-17.629-1.674h-10.375l-0.336-0.225c-0.222-0.296-0.335-0.928-0.335-1.896
				c0-1.19,0.298-2.12,0.894-2.789c-1.785-0.297-3.385-0.484-4.799-0.559c-2.306,0.074-4.498,0.336-6.581,0.78
				c-5.578,1.264-11.231,1.898-16.96,1.898l-3.123-0.447c-0.372-0.669-0.558-1.451-0.558-2.342c0.444-0.373,1.449-0.743,3.012-1.116
				c-0.148-0.817-0.223-1.711-0.223-2.678c0-4.017,2.789-6.62,8.368-7.811c-4.537-0.521-8.146-1.412-10.824-2.678
				c-7.958-4.017-12.794-6.211-14.504-6.583c-0.074-0.67-0.148-1.339-0.223-2.008c-0.743,0.669-2.083,1.005-4.016,1.005
				c-0.598,0-2.01-0.188-4.241-0.558c-2.306-0.225-4.389-0.373-6.247-0.447c-0.373-1.266-0.558-2.157-0.558-2.678
				c1.562-0.894,6.509-0.929,14.837-0.111c-0.074-0.968-0.11-1.75-0.11-2.343c3.646-1.414,8.293-0.706,13.946,2.118
				c7.438,3.944,19.078,5.208,34.923,3.794l0.669,3.459c-0.074,2.231-0.595,3.904-1.563,5.021c-0.669,0.671-1.859,1.229-3.569,1.674
				c1.784,0.073,3.681,0.261,5.689,0.558c7.884,0.968,15.1,2.493,21.646,4.576l-0.894-4.241l0.894,4.241
				c0.223,0.074,0.446,0.147,0.669,0.222c6.843,2.158,10.264,4.054,10.264,5.69c0,1.71-0.296,3.125-0.892,4.24
				c-0.15,0.373-0.335,0.706-0.558,1.005c0.892,0,1.785,0.074,2.679,0.222c2.231,0.371,4.164,0.819,5.801,1.338
				c-0.819-1.485-1.637-2.9-2.454-4.238c-5.544-8.74-11.083-17.479-16.625-26.219c-1.414-2.01-2.789-3.981-4.129-5.915h-40.166
				l-0.333-0.333c0.222-0.148,0.446-0.335,0.669-0.558c-0.074-0.148-0.148-0.262-0.223-0.336c1.412-0.37,2.343-1.115,2.789-2.231
				c3.049-0.595,8.255-0.968,15.62-1.115c7.958-0.297,14.095-0.223,18.409,0.222c-2.157-2.9-4.277-5.613-6.36-8.144
				c-1.04-1.266-2.081-2.529-3.123-3.793c-4.835-5.949-9.298-11.716-13.389-17.294c-8.629-11.752-15.694-22.762-21.198-33.025
				c-6.993-0.521-15.956-1.078-26.891-1.673l-0.334-0.336c-0.149-0.223-0.224-0.78-0.224-1.674c0-1.338,1.713-1.858,5.134-1.563
				c6.99,0.894,13.872,1.525,20.641,1.898c-2.083-4.017-3.905-7.921-5.468-11.715c-0.224-0.447-0.409-0.931-0.558-1.451
				c-0.372-0.966-0.743-1.896-1.115-2.79c-0.076-0.222-0.15-0.446-0.225-0.669c-3.273,0.595-7.736,1.153-13.389,1.674
				c-9.894,1.042-16.81,1.563-20.752,1.563c-3.049,0-5.021-0.669-5.912-2.009c-0.299-0.447-0.446-1.19-0.446-2.231
				c0-2.827,7.81-4.574,23.43-5.243c6.321-0.299,11.343-0.299,15.063,0c-0.111-0.559-0.225-1.116-0.336-1.674l-0.223-1.228
				c0.111-6.434,0.223-12.868,0.334-19.302c2.157-9,7.551-18.261,16.178-27.782C521.609,175.089,523.17,173.192,524.584,171.407
				 M519.674,149.316c0.148,0.074,0.262,0.148,0.336,0.224l0.669-1.228l-0.669,1.228c0.743,0.371,1.264,0.892,1.561,1.561
				c-0.593,1.042-1.228,1.674-1.896,1.897c-0.446-0.148-0.854-0.372-1.227-0.669l-2.789,5.132l-0.558,0.893l-1.563-4.351h-9.819
				l-0.334-0.335c-0.15-0.222-0.224-0.78-0.224-1.673c0-0.669,0.261-1.079,0.782-1.227c1.71-0.595,5.578-0.781,11.604-0.558v-1.45
				v1.45c0.223,0,0.41,0,0.558,0l0.445,0.223c0.298,0.148,0.446,0.706,0.446,1.674c0,0.892-0.111,1.339-0.333,1.339
				c-0.225,0-0.41,0.185-0.559,0.558h-0.446v3.458l2.789-5.132c-0.225-0.149-0.409-0.335-0.558-0.558
				c0-0.446,0.148-0.893,0.446-1.339C518.707,149.837,519.153,149.464,519.674,149.316 M515.101,146.415
				c-0.596,0.967-1.192,1.599-1.785,1.897h-5.021c-0.373-1.264-0.558-2.156-0.558-2.677c0.743-0.818,2.938-1.004,6.581-0.558
				L515.101,146.415 M500.371,143.514c0.894,0.372,1.525,1.042,1.898,2.008c-0.669,0.968-1.301,1.563-1.898,1.786
				c-0.816-0.299-1.412-0.708-1.784-1.228c0-0.372,0.15-0.818,0.446-1.339C499.404,144.146,499.853,143.737,500.371,143.514
				 M501.712,140.725c-1.934-1.636-4.204-1.636-6.806,0c-0.968-0.223-1.6-0.521-1.898-0.892c0.596-0.075,1.934-0.855,4.017-2.344
				c1.041-0.817,4.611-0.706,10.713,0.335C505.207,141.022,503.2,141.989,501.712,140.725 M494.349,150.432
				c0.074,0,0.147-0.037,0.222-0.112c-0.446,0-0.854,0.037-1.227,0.112c-4.909,0.446-8.069,0.669-9.483,0.669
				c-3.199,0-5.058-0.297-5.579-0.892c1.488-1.711,5.206-2.938,11.157-3.682c6.396-0.818,10.34,0.111,11.826,2.789
				c-0.074,0.148-1.525,0.372-4.352,0.669c0.299,0.297,0.521,0.67,0.669,1.116c-0.593,1.042-1.189,1.674-1.784,1.897
				c-0.892-0.297-1.523-0.706-1.896-1.227C493.901,151.324,494.05,150.877,494.349,150.432 M503.832,160.361
				c-0.745-0.297-1.713-0.521-2.902-0.669c-0.371-1.264-0.559-2.194-0.559-2.789c0.968-0.148,2.047-0.187,3.236-0.111
				c1.563,0.222,2.939,0.743,4.13,1.562c-0.148,0.297-0.225,0.781-0.225,1.45c-0.148,0.521-0.669,0.781-1.563,0.781
				C505.133,160.584,504.425,160.51,503.832,160.361 M512.422,170.96l0.336-0.669l5.243-0.111c0,0.297,0.261,0.892,0.78,1.785
				c-0.817,1.042-2.343,2.008-4.574,2.9c-0.743-0.148-1.228-0.297-1.449-0.446c-0.299-0.223-0.447-0.892-0.447-2.008
				C512.311,171.518,512.348,171.036,512.422,170.96 M500.371,165.382c0.894,0.373,1.525,1.004,1.898,1.897
				c-0.669,0.967-1.301,1.599-1.898,1.897c-0.669-0.298-1.189-0.595-1.56-0.893c-0.074,0-0.148,0-0.225,0
				c-0.669,0-1.711-0.187-3.123-0.558c-1.563-0.223-3.125-0.371-4.688-0.446c-0.372-1.264-0.558-2.156-0.558-2.677
				c1.042-0.373,2.604-0.521,4.688-0.447c2.157,0.148,3.718,0.41,4.685,0.781l0.447,0.669
				C500.112,165.531,500.224,165.457,500.371,165.382 M500.93,172.076l0.335,0.893c-0.745,1.264-2.12,1.896-4.127,1.896
				c-4.24-0.521-17.407-0.817-39.497-0.893l-0.225-0.334c-0.222-0.224-0.333-0.818-0.333-1.785c0-0.595,0.706-0.967,2.12-1.116
				c2.007-0.298,5.206-0.483,9.595-0.558c0.299-0.521,0.706-0.856,1.227-1.004c0.521,0.148,0.929,0.483,1.228,1.004
				c4.835-0.224,10.858-0.224,18.075,0c0.968,0.148,3.049,0.372,6.248,0.669C498.55,171.221,500.337,171.63,500.93,172.076
				 M494.349,182.117c1.189-0.743,2.938-0.966,5.242-0.669c0,0.298,0.262,0.968,0.78,2.008c-1.189,0.892-2.191,1.637-3.011,2.231
				c2.23,0.223,4.798,0.41,7.698,0.558c0,0.298,0.299,0.93,0.892,1.897c-0.669,0.744-1.19,1.227-1.561,1.45
				c-0.597,0.298-1.787,0.447-3.571,0.447c-3.942-0.521-10.042-0.818-18.299-0.892l-0.222-0.447
				c-0.223-0.224-0.336-0.781-0.336-1.674c0-1.264,1.525-1.86,4.576-1.785c1.116,0,3.273,0.111,6.47,0.334c0-0.223,0-0.41,0-0.558
				C493.008,183.828,493.455,182.862,494.349,182.117 M488.099,137.043l0.336,0.781c-0.223,0.521-0.447,0.93-0.67,1.227
				c-0.446,0.521-1.152,0.781-2.12,0.781l-2.231-0.447c-0.37-0.669-0.558-1.45-0.558-2.343
				C484.864,136.076,486.612,136.076,488.099,137.043 M480.178,140.725c0.816,0.372,1.414,1.005,1.784,1.897
				c-0.593,0.966-1.189,1.599-1.784,1.897c-0.892-0.298-1.523-0.744-1.896-1.339c0-0.372,0.148-0.781,0.447-1.228
				C479.099,141.283,479.582,140.873,480.178,140.725 M476.497,156.792c0.891,0.669,0.558,1.003-1.005,1.003
				c-4.24,0-7.588-0.334-10.041-1.003c1.488-1.116,3.495-1.563,6.024-1.339C473.409,155.601,475.083,156.047,476.497,156.792
				 M482.52,157.795c-0.37-1.264-0.558-2.156-0.558-2.677c0.745-0.818,2.938-1.005,6.583-0.558l0.782,1.338
				c-0.597,0.968-1.189,1.6-1.786,1.897H482.52 M465.451,169.176h-5.021c-0.372-1.264-0.558-2.195-0.558-2.79
				c0.743-0.744,2.938-0.929,6.583-0.558l0.78,1.451C466.641,168.246,466.046,168.878,465.451,169.176 M453.4,186.135
				c0-0.968,0.595-1.674,1.784-2.121c2.01-0.966,5.431-0.855,10.267,0.334l0.558,0.224c0.222,0.149,0.333,0.707,0.333,1.673
				c0,0.893-0.111,1.339-0.333,1.339c-0.225,0-0.41,0.186-0.558,0.558h-11.493l-0.223-0.334
				C453.512,187.585,453.4,187.027,453.4,186.135 M465.451,180.556c-0.894-0.297-1.525-0.744-1.898-1.339
				c0-0.371,0.148-0.781,0.446-1.227c0.373-0.595,0.856-1.005,1.452-1.228c0.816,0.372,1.414,1.004,1.784,1.897
				C466.641,179.701,466.046,180.333,465.451,180.556 M468.129,184.907c0-0.372,0.186-0.78,0.558-1.227
				c0.297-0.595,0.743-1.004,1.338-1.227c0.819,0.372,1.412,1.003,1.785,1.896c-0.595,1.042-1.189,1.674-1.785,1.897
				C469.131,185.874,468.499,185.428,468.129,184.907 M487.541,195.171l0.894,1.45c-0.371,0.67-0.67,1.042-0.894,1.116
				c-0.593,0.595-1.375,0.894-2.343,0.894l-2.679-0.558c-0.37-0.595-0.558-1.339-0.558-2.231
				C482.707,195.023,484.566,194.8,487.541,195.171 M471.921,195.729c0,0.521,0.298,1.563,0.894,3.124
				c-2.454,3.199-6.1,5.579-10.936,7.141c-1.412,0.447-3.012,0.855-4.796,1.227c-2.456,0.373-5.206,0.633-8.257,0.781
				c-11.604-0.297-18.335-0.148-20.194,0.447c-0.744-0.149-1.228-0.298-1.451-0.447c-0.297-0.297-0.445-1.116-0.445-2.455
				c-0.298,0.299-0.595,0.484-0.893,0.558h-0.335l-2.008,6.36l-2.9-6.36h-0.67c-0.372-1.264-0.558-2.156-0.558-2.677
				c0.968-0.521,2.344-0.781,4.128-0.781c1.265,0,2.269,0.148,3.013,0.447l0.893-2.901c-0.446,0.297-0.669,0.633-0.669,1.004v0.111
				c-2.976-0.744-4.761-1.339-5.355-1.785l-0.112-2.344c0.149,0,0.334,0,0.558,0c-0.372-0.595-0.558-1.375-0.558-2.343
				c1.934-0.967,3.645-0.967,5.133,0l0.335,0.893c-0.149,0.521-0.373,0.892-0.67,1.116c-0.148,0.223-0.334,0.372-0.558,0.447
				c0.373,0,0.744,0.037,1.116,0.111c0.521,0.075,1.079,0.112,1.673,0.112l0.447-1.451l-0.447,1.451
				c2.455,0.222,4.947,0.409,7.476,0.558c-4.389,0.595-7.178,1.301-8.368,2.119l-0.893,2.901c0.297,0.074,0.558,0.186,0.781,0.334
				c1.116-1.413,3.942-2.678,8.479-3.794c2.008-0.445,4.426-0.855,7.252-1.227C449.124,197.589,458.757,196.697,471.921,195.729
				 M481.962,209.007c-0.743-0.149-1.189-0.26-1.338-0.334c-0.296-0.149-0.446-0.744-0.446-1.786c0-1.264,1.078-2.156,3.235-2.677
				c2.084-0.521,5.949-0.818,11.604-0.894c0.372-0.595,1.189-1.153,2.453-1.673c1.563-0.669,2.826-0.93,3.794-0.78
				c0,0.669,0.336,1.375,1.005,2.119c-0.521,0.67-0.968,1.153-1.34,1.45c-0.669,0.595-2.084,1.153-4.239,1.674
				c-0.076,0.298-0.15,0.447-0.224,0.447c-0.297,0-0.484,0.186-0.559,0.558C495.239,207.11,490.592,207.742,481.962,209.007
				 M458.088,220.164c0-0.595,0.558-0.967,1.673-1.116c3.495-0.595,11.528-0.781,24.1-0.558l0.558,0.223
				c0.223,0.148,0.333,0.669,0.333,1.562c0,0.967-0.11,1.45-0.333,1.45c-0.225,0-0.41,0.186-0.558,0.558h-25.215l-0.336-0.334
				C458.161,221.726,458.088,221.13,458.088,220.164 M467.571,243.371c0.692,0.018,1.398,0.276,2.118,0.78l0.335,0.782
				c-0.222,0.595-0.446,1.004-0.669,1.227c-0.446,0.521-1.152,0.78-2.12,0.78l-2.231-0.444c-0.37-0.598-0.558-1.378-0.558-2.345
				c0.894-0.445,1.747-0.706,2.567-0.78c-9.968,0.222-15.436,0.558-16.403,1.004c1.192,0.743,0,1.449-3.569,2.121h-9.596
				l-0.334-0.447c-0.149-0.446-0.223-1.525-0.223-3.236c0-1.784,7.141-3.347,21.422-4.685c7.215-0.671,14.505-1.189,21.868-1.563
				l0.558,0.558c0.225,0.148,0.336,1.04,0.336,2.679c0,1.634-0.111,2.453-0.336,2.453c-0.223,0-0.407,0.336-0.558,1.005
				C475.298,243.332,471.097,243.371,467.571,243.371 M492.45,220.945c-1.488-0.223-2.231-1.191-2.231-2.901
				c0-1.711,0.595-3.198,1.785-4.463c1.189-1.116,2.604-1.674,4.24-1.674s3.051,0.558,4.24,1.674
				c1.19,1.265,1.785,2.752,1.785,4.463c0,1.71-0.447,2.678-1.34,2.901c-0.817,0.222-2.084,0.334-3.792,0.334
				C495.499,221.28,493.938,221.167,492.45,220.945 M429.524,215.478c0-0.595,0.185-0.968,0.558-1.116
				c1.264-0.669,4.166-0.893,8.703-0.669c0,0.371,0.297,1.003,0.892,1.896c-0.223,0.67-0.445,1.116-0.669,1.339
				c-0.149,0.075-0.558,0.297-1.228,0.67h-7.698l-0.334-0.447C429.599,216.928,429.524,216.37,429.524,215.478 M409.776,214.473
				c9.521-1.636,14.281-0.743,14.281,2.678c0,1.19-2.64,2.492-7.921,3.905c6.024,0.892,13.909,2.083,23.653,3.57l0.78,1.45
				c-0.818,1.264-2.045,1.896-3.682,1.896c-1.934,0-3.57-0.259-4.909-0.779c-2.307-1.042-3.57-1.6-3.793-1.674
				c-4.687-1.264-14.504-1.414-29.456-0.447l-0.222-0.222c-0.149-0.224-0.224-0.521-0.224-0.894
				c-1.042-0.372-1.823-0.93-2.344-1.674c-0.297-0.521-0.445-1.264-0.445-2.231C395.495,217.97,400.255,216.11,409.776,214.473
				 M413.012,237.457c0,0.819-0.112,1.229-0.335,1.229c-0.222,0-0.409,0.223-0.558,0.669c-1.487,0-4.463,0.111-8.926,0.334
				c-5.355,0.224-8.071,0.446-8.145,0.671c-0.297,0.296-0.781,0.593-1.45,0.892c-0.744-0.299-1.19-0.521-1.339-0.669
				c-0.297-0.297-0.445-1.005-0.445-2.121c0-1.189,0.408-1.896,1.227-2.12c2.603-0.892,8.963-1.189,19.079-0.892l0.447,0.334
				C412.863,235.932,413.012,236.489,413.012,237.457 M413.904,234.223c0-0.372,0.148-0.819,0.446-1.34
				c0.373-0.595,0.818-0.966,1.339-1.116c0.893,0.373,1.525,1.005,1.897,1.898c-0.595,0.968-1.227,1.561-1.897,1.784
				C414.871,235.151,414.276,234.741,413.904,234.223 M433.653,265.463c0.222-0.074,0.78-0.148,1.673-0.225
				c-15.174,0.299-23.84,0.26-25.997-0.111c-1.859-0.147-3.012-0.669-3.458-1.563c-0.149-0.446-0.224-1.636-0.224-3.569
				c0-2.308,0.558-3.867,1.674-4.687c1.636-1.19,5.058-2.008,10.265-2.454c11.976-1.116,21.533-0.595,28.674,1.563
				c6.619,2.007,9.929,4.909,9.929,8.701c0,0.671-0.037,1.264-0.111,1.787c5.727,0,12.868,0,21.421,0l0.447,0.333
				c0.224,0.15,0.335,0.669,0.335,1.563s-0.076,1.338-0.225,1.338c-0.296,0-0.483,0.188-0.558,0.559
				c-2.75,0-10.076,0.113-21.979,0.335c-0.447,0-0.894,0.037-1.338,0.111c-0.523,0.373-1.081,0.558-1.674,0.558
				c-0.225,0-0.856-0.185-1.898-0.558c-11.082,0.15-16.884,0.336-17.405,0.558c-0.893-0.372-1.524-0.817-1.897-1.338
				c0-0.373,0.187-0.856,0.558-1.451C432.313,266.317,432.909,265.833,433.653,265.463 M447.042,282.868
				c-0.968,0-1.488-0.111-1.563-0.336c0-0.299-0.111-0.595-0.334-0.892c2.157-2.604,5.132-4.092,8.925-4.463
				c2.009-0.298,3.979-0.262,5.914,0.111c0,0.299,0.262,0.892,0.78,1.785C459.352,281.602,454.775,282.868,447.042,282.868
				 M481.071,260.218c-0.299,0-1.563-0.186-3.794-0.558c-2.231-0.223-5.096-0.373-8.591-0.447l-0.225-0.222
				c-0.222-0.223-0.333-0.854-0.333-1.896c0-0.967,3.123-1.525,9.37-1.673c10.042-0.373,15.845-0.672,17.407-0.894
				c7.438,0.074,11.789,0.335,13.053,0.78c0.968,0.298,2.419,1.154,4.352,2.566c-0.076,0.371-0.11,0.854-0.11,1.451
				c-0.225,0.593-0.782,0.892-1.674,0.892c-0.745,0-2.679-0.299-5.803-0.892c-3.123-0.597-5.096-0.894-5.912-0.894
				c-0.746,0-3.683,0.297-8.815,0.894C484.864,259.919,481.888,260.218,481.071,260.218 M449.384,300.05
				c-0.372-1.34-0.558-2.271-0.558-2.789c0.892-0.522,1.86-0.856,2.9-1.005c0.968-0.149,2.046-0.149,3.236,0
				c0.745,0.148,1.486,0.299,2.231,0.447c1.86,0.519,4.166,1.338,6.916,2.454l0.336,0.558c0.148-0.074,0.335-0.111,0.558-0.111
				c4.833-0.669,16.03-0.856,33.583-0.558l0.558,0.333c0.225,0.148,0.336,0.671,0.336,1.563c0,0.894-0.111,1.34-0.336,1.34
				c-0.223,0-0.407,0.186-0.558,0.559h-7.363c22.685,0.444,34.029,3.272,34.029,8.479c0,0.966-0.074,1.785-0.223,2.454
				c-0.446,1.784-1.377,3.014-2.789,3.683c0.074,0.074,0.148,0.223,0.223,0.446c-0.223,0.371-0.447,0.706-0.669,1.003
				c-0.373,0.597-0.669,1.004-0.894,1.229c-0.521,0.445-1.674,0.669-3.459,0.669c-13.61-2.157-24.807-3.941-33.582-5.355
				c-12.794,1.636-19.861,2.455-21.199,2.455c-2.604,0-4.277-1.041-5.021-3.124c-0.373-0.82-0.558-1.971-0.558-3.459
				c0-0.669,0.185-1.266,0.558-1.784h-22.092l-0.223-0.336c-0.223-0.223-0.335-0.819-0.335-1.785
				c-0.297-0.149-0.409-0.298-0.334-0.446c0.224-0.296,1.19-0.558,2.901-0.78c3.645-0.446,10.487-0.706,20.53-0.782
				c0.444-1.488,0.816-2.38,1.115-2.678c0.37-0.519,0.78-0.854,1.227-1.003c-0.669-0.148-1.451-0.298-2.342-0.446
				C454.889,300.756,451.986,300.347,449.384,300.05 M488.435,292.24c0-0.745,0.669-1.264,2.009-1.563
				c-13.613-1.785-20.419-3.384-20.419-4.799c0-4.61,10.936-6.06,32.803-4.352c0.373,0.074,0.743,0.113,1.116,0.113
				c2.007,0.148,3.904,0.334,5.689,0.559v-10.6v10.6c3.125,0.296,6.025,0.592,8.703,0.891l0.445-0.669l-0.445,0.669
				c13.091,1.711,19.637,3.905,19.637,6.583c0,1.338-0.299,2.567-0.894,3.683c-0.743,1.265-1.674,1.896-2.789,1.896
				c-4.537-0.297-9.074-0.669-13.611-1.116c-0.076,0.371-0.186,0.559-0.336,0.559c-0.222,0-0.407,0.187-0.558,0.558h-10.152
				c-1.412-0.595-8.294-0.894-20.641-0.894l-0.336-0.333C488.508,293.801,488.435,293.208,488.435,292.24 M395.161,347.913
				c-0.373-0.593-0.558-1.375-0.558-2.343c3.272-1.039,8.666-0.966,16.178,0.225c0.669,0.074,1.338,0.185,2.008,0.333
				c2.008-1.115,5.058-1.972,9.149-2.564c2.38-0.299,5.095-0.558,8.145-0.782c2.306-0.148,4.872-0.299,7.698-0.447
				c1.042-0.074,2.046-0.111,3.013-0.111c-0.148-0.298-0.224-0.855-0.224-1.673c0-2.155,7.401-3.348,22.203-3.569l0.447,0.333
				c0.222,0.074,0.333,0.597,0.333,1.563c0,0.894-0.074,1.34-0.223,1.34c-0.296,0-0.483,0.186-0.558,0.559
				c-5.208,0.073-9.483,0.296-12.831,0.669c-2.381,0.298-4.463,0.558-6.248,0.779c0.595,0,1.227,0.037,1.896,0.111
				c5.876,0.074,10.525,0.523,13.946,1.341c3.498,0,7.329,0,11.493,0l0.446,0.222c0.223,0.15,0.334,0.669,0.334,1.563
				c0,0.968-0.074,1.451-0.223,1.451c-0.225,0-0.409,0.148-0.558,0.445c-0.894,0-2.49,0.039-4.799,0.113
				c0.076,0.296,0.111,0.592,0.111,0.891c0,0.447,0.039,1.079,0.113,1.898v0.111c1.116-0.596,3.234-1.228,6.359-1.898
				c4.833-1.115,7.921-1.635,9.261-1.561l0.78,1.449c-2.678,1.267-5.541,2.308-8.59,3.125c-0.672,0.148-3.014,0.706-7.03,1.674
				c-0.37-0.076-0.632-0.111-0.78-0.111c0-0.148,0-0.262,0-0.336c-0.298,0.447-0.706,0.819-1.229,1.116h-0.111
				c-0.074,0-0.148,0.074-0.223,0.222c-0.15,0.299-0.259,0.559-0.335,0.783c-0.595,0-1.228,0-1.896,0h-0.11
				c-4.762,0.965-19.898,1.448-45.412,1.448c-0.222,0-0.372,0-0.446,0c-0.373,0-0.558,0.074-0.558,0.225
				c0.669,0.892,0.224,1.338-1.339,1.338c-0.744,0-1.376-0.669-1.897-2.007c-1.487-0.522-2.529-1.377-3.124-2.566
				c-0.297-0.521-0.447-1.412-0.447-2.679c-1.635-0.299-3.347-0.595-5.132-0.892C399.437,348.881,396.424,348.285,395.161,347.913
				 M417.139,324.93c0.373-0.669,0.818-1.079,1.339-1.228c0.892,0.371,1.525,1.005,1.896,1.896c-0.669,0.968-1.302,1.6-1.896,1.897
				c-0.893-0.372-1.487-0.816-1.785-1.34C416.693,325.786,416.842,325.376,417.139,324.93 M439.119,369.782
				c-6.248-1.488-9.521-2.271-9.818-2.345c-3.793-0.37-7.401,0.225-10.822,1.787c-0.743-0.148-1.19-0.225-1.339-0.225
				c-0.297-0.222-0.446-0.856-0.446-1.896c0-2.009,3.608-3.347,10.823-4.017c5.876-0.522,17.628-0.855,35.256-1.004l0.78,1.449
				C455.595,369.559,447.45,371.642,439.119,369.782 M415.689,408.051c0.893,0.372,1.525,1.004,1.897,1.897
				c-0.595,1.042-1.227,1.674-1.897,1.896c-0.818-0.297-1.413-0.745-1.785-1.338c0-0.373,0.148-0.746,0.446-1.116
				C414.723,408.72,415.168,408.275,415.689,408.051 M479.173,360.633c0.894,0.372,1.525,1.041,1.898,2.009
				c-0.596,0.966-1.228,1.563-1.898,1.785c-0.817-0.297-1.412-0.706-1.785-1.228c0-0.372,0.15-0.782,0.447-1.227
				C478.205,361.302,478.654,360.857,479.173,360.633 M456.747,393.1c-0.372-3.348-0.558-5.875-0.558-7.586
				c2.826-2.604,7.066-3.683,12.72-3.236c4.166,0.297,7.588,1.896,10.264,4.799c0,0.148,0,0.297,0,0.444
				c0,2.53,0.113,4.13,0.336,4.799l0.222,0.78h3.683v0.225l0.447,2.453c-0.817,3.424-2.194,5.132-4.13,5.132
				c-2.157,0-4.463-0.854-6.916-2.564C469.914,395.963,464.558,394.215,456.747,393.1 M482.855,404.146
				c0-0.669,0.632-1.598,1.896-2.789c1.415-1.414,3.088-2.38,5.021-2.9c5.504-1.486,11.196,1.115,17.071,7.81
				c-0.447,0.745-0.669,1.153-0.669,1.227c-0.447,0.373-1.153,0.559-2.121,0.559l-2.789-0.447v-1.338h-17.852l-0.222-0.446
				C482.967,405.597,482.855,405.039,482.855,404.146 M528.6,404.257l-0.335-0.223c-0.148-0.296-0.223-0.928-0.223-1.896
				c0-0.523,0.188-0.894,0.558-1.116c1.042-0.597,3.644-0.782,7.811-0.558c0,0.37,0.188,1.003,0.558,1.896
				c-0.296,0.894-0.894,1.525-1.784,1.896H528.6 M551.694,405.262c0-4.537,1.822-6.806,5.468-6.806
				c2.083,0,12.349,1.935,30.793,5.801l0.559,5.134c-0.074,1.338-0.41,2.676-1.003,4.017c-0.745,2.007-1.639,3.011-2.678,3.011
				c-1.785-0.446-4.165-1.004-7.142-1.673c-6.025-1.116-14.43-1.785-25.215-2.007l-0.335-1.005
				C551.843,410.84,551.694,408.685,551.694,405.262 M594.763,420.771c-0.147,0.073-0.298,0.259-0.446,0.558h-12.162
				c-2.083-0.595-7.363-0.894-15.842-0.894l-0.447-0.333c-0.225-0.225-0.335-0.819-0.335-1.785c0-1.266,1.673-1.861,5.021-1.787
				c2.678,0.076,10.6,0.41,23.766,1.005l0.446,0.225c0.148,0.147,0.223,0.706,0.223,1.673
				C594.985,420.323,594.911,420.771,594.763,420.771 M462.772,305.182c0.447,0,0.854,0,1.227,0
				c4.463-1.34,11.084-2.12,19.861-2.342h-19.861c0.15,0.296,0.299,0.632,0.447,1.002
				C464.076,304.289,463.518,304.735,462.772,305.182 M425.507,206.105h-4.909l2.9,6.36L425.507,206.105 M515.658,154.002h-2.12
				l1.563,4.351l0.558-0.893V154.002 M576.798,369.447l2.121-10.377c-2.231-0.371-4.836-0.817-7.811-1.338
				c-0.299-0.074-0.558-0.111-0.78-0.111l1.563,7.698l4.907,3.905V369.447 M393.264,405.262c-1.116,0-2.306,0-3.571,0l2.343,4.798
				c0.521,0.074,1.042,0.148,1.563,0.223L393.264,405.262 M396.834,410.951l2.454-5.579c-1.785-0.074-3.792-0.11-6.024-0.11
				l0.334,5.021C394.64,410.507,395.718,410.729,396.834,410.951 M354.882,401.134c0.893,1.19,1.563,2.53,2.008,4.017
				c2.604,0.074,4.501,0.446,5.69,1.115c2.827,0.074,6.211,0.336,10.153,0.78c5.876,0.597,12.31,1.6,19.302,3.014l-2.343-4.798
				c-4.76-0.074-10.19-0.111-16.289-0.111c-2.307,0-4.76,0-7.364,0c-1.562,0-2.64-1.412-3.235-4.241
				c0-0.147-0.038-0.296-0.112-0.444c0,0.074-0.037,0.186-0.111,0.334C359.382,400.875,356.816,400.983,354.882,401.134
				 M330.113,410.617c0-0.894,1.265-1.71,3.794-2.455c-0.298-0.445-0.521-0.892-0.669-1.339c-0.075-0.147-0.112-0.335-0.112-0.558
				c-5.505,4.76-11.418,9.558-17.739,14.394c0.892-0.148,1.858-0.299,2.9-0.447c0.149,0,4.426-0.259,12.831-0.78l0.447,0.334
				c0.297,0.074,0.446,0.595,0.446,1.563c0,0.894-0.111,1.338-0.334,1.338c-0.224,0-0.409,0.188-0.558,0.558
				c-3.868,0.076-7.401,0.299-10.599,0.671c-3.719,0.521-6.955,0.929-9.707,1.228c-0.297-0.074-0.595-0.188-0.893-0.336
				c-3.57,2.604-7.252,5.245-11.046,7.921v5.692h159.325c-0.816-0.373-1.673-0.708-2.566-1.005
				c-4.611-1.488-9.409-2.419-14.393-2.789c-0.223,0-0.446,0-0.67,0c-0.446,0-1.227-0.037-2.343-0.111
				c-3.868-0.225-7.81-0.188-11.826,0.111l-0.335-0.669c-0.074-0.299-0.111-0.931-0.111-1.898c-2.455-0.743-5.207-1.412-8.257-2.007
				c-14.207-3.497-21.719-5.282-22.537-5.356l-0.336-1.338c-0.074-0.298-0.148-0.708-0.222-1.229
				c5.132,1.488,10.636,3.125,16.513,4.909c0.892,0,1.45-0.632,1.673-1.896c0-1.488,0.074-2.493,0.223-3.014l-0.893-3.905
				c-0.372-0.297-0.743-0.521-1.116-0.669c-5.801-0.669-11.269-1.264-16.4-1.785c-15.397-1.784-26.777-2.938-34.142-3.458
				c-1.19,0.299-2.603,0.521-4.239,0.669c-0.595,0.669-1.414,1.042-2.455,1.116c-2.306,0-4.723,0.669-7.252,2.009
				c6.768-1.787,12.683-2.715,17.74-2.789l0.892,1.338c-0.669,0.817-1.413,1.563-2.231,2.231c3.124,0,6.657,0.074,10.599,0.223
				l0.781,1.451c-1.339,0.893-2.938,1.6-4.797,2.12c-1.786,0.296-2.938,0.521-3.459,0.669h-0.893c0,0.894-0.111,1.338-0.334,1.338
				c-0.223,0-0.41,0.188-0.558,0.558c-6.249,0.225-12.607,0.819-19.08,1.787c-5.95,0.743-8.963,1.116-9.037,1.116
				c-2.231,0-3.608-0.484-4.128-1.452c1.265-1.488,2.863-2.752,4.797-3.794c-0.148-0.296-0.223-0.816-0.223-1.563
				c0-0.296,2.045-1.039,6.137-2.23c-1.563-0.074-3.013-0.892-4.352-2.454c-4.017-0.074-6.621-0.669-7.81-1.785
				C330.263,412.551,330.113,411.808,330.113,410.617 M392.706,294.136v-0.11c-0.149,0-0.334,0.036-0.558,0.11
				C392.371,294.136,392.557,294.136,392.706,294.136 M384.003,247.611c-0.894-0.148-1.712-0.299-2.455-0.446
				c-0.297,1.039-0.558,2.081-0.781,3.122L384.003,247.611 M411.673,289.563c-0.968-0.521-1.86-1.042-2.678-1.563
				c-0.372,0.521-0.966,1.041-1.785,1.563H411.673z"/>
			<path fill="#8B7E75" d="M594.316,421.328c0.148-0.299,0.299-0.484,0.446-0.558c0.148,0,0.223-0.447,0.223-1.339
				c0-0.967-0.074-1.525-0.223-1.673l-0.446-0.225c-13.166-0.595-21.088-0.929-23.766-1.005c-3.348-0.074-5.021,0.521-5.021,1.787
				c0,0.966,0.11,1.561,0.335,1.785l0.447,0.333c8.479,0,13.759,0.299,15.842,0.894H594.316 M484.751,401.356
				c-1.264,1.191-1.896,2.12-1.896,2.789c0,0.894,0.111,1.451,0.336,1.674l0.222,0.446h17.852v1.338l2.789,0.447
				c0.968,0,1.674-0.186,2.121-0.559c0-0.073,0.222-0.481,0.669-1.227c-5.875-6.694-11.567-9.296-17.071-7.81
				C487.839,398.977,486.166,399.942,484.751,401.356 M456.189,385.514c0,1.711,0.186,4.238,0.558,7.586
				c7.811,1.115,13.167,2.863,16.067,5.245c2.453,1.711,4.759,2.564,6.916,2.564c1.936,0,3.313-1.708,4.13-5.132l-0.447-2.453V393.1
				h-3.683l-0.222-0.78c-0.223-0.669-0.336-2.269-0.336-4.799c0-0.147,0-0.296,0-0.444c-2.676-2.902-6.098-4.502-10.264-4.799
				C463.256,381.831,459.016,382.91,456.189,385.514 M481.071,362.642c-0.373-0.968-1.005-1.637-1.898-2.009
				c-0.519,0.225-0.968,0.669-1.338,1.34c-0.297,0.444-0.447,0.854-0.447,1.227c0.373,0.521,0.968,0.931,1.785,1.228
				C479.844,364.204,480.476,363.607,481.071,362.642 M417.586,409.948c-0.372-0.894-1.004-1.525-1.897-1.897
				c-0.521,0.225-0.966,0.669-1.339,1.34c-0.297,0.37-0.446,0.743-0.446,1.116c0.372,0.593,0.966,1.041,1.785,1.338
				C416.359,411.622,416.991,410.99,417.586,409.948 M429.301,367.438c0.298,0.074,3.571,0.856,9.818,2.345
				c8.331,1.859,16.476-0.224,24.434-6.249l-0.78-1.449c-17.628,0.148-29.38,0.481-35.256,1.004
				c-7.215,0.67-10.823,2.008-10.823,4.017c0,1.039,0.148,1.674,0.446,1.896c0.149,0,0.596,0.076,1.339,0.225
				C421.899,367.662,425.507,367.067,429.301,367.438 M418.479,323.702c-0.521,0.148-0.967,0.559-1.339,1.228
				c-0.297,0.446-0.446,0.856-0.446,1.227c0.298,0.523,0.893,0.968,1.785,1.34c0.595-0.298,1.228-0.93,1.896-1.897
				C420.004,324.707,419.371,324.073,418.479,323.702 M466.455,350.369c0,0.446,0.035,1.115,0.111,2.007
				c-0.076,0.147-0.111,0.261-0.111,0.335s0,0.188,0,0.336c0.148,0,0.41,0.035,0.78,0.111c4.017-0.968,6.358-1.525,7.03-1.674
				c3.049-0.817,5.912-1.858,8.59-3.125l-0.78-1.449c-1.34-0.074-4.428,0.445-9.261,1.561
				C469.689,349.142,467.571,349.773,466.455,350.369 M466.23,347.469c2.309-0.074,3.905-0.113,4.799-0.113
				c0.148-0.297,0.333-0.445,0.558-0.445c0.148,0,0.223-0.483,0.223-1.451c0-0.894-0.111-1.412-0.334-1.563l-0.446-0.222
				c-4.164,0-7.995,0-11.493,0c3.125,0.669,5.172,1.636,6.137,2.9C465.897,346.797,466.083,347.096,466.23,347.469 M394.603,345.57
				c0,0.968,0.186,1.75,0.558,2.343c1.264,0.372,4.276,0.968,9.037,1.786c1.785,0.297,3.497,0.593,5.132,0.892
				c0-0.299,0-0.521,0-0.669c0-1.264,0.744-2.306,2.231-3.125c0.373-0.296,0.781-0.519,1.228-0.669
				c-0.67-0.148-1.339-0.259-2.008-0.333C403.268,344.604,397.875,344.531,394.603,345.57 M511.195,293.132l-1.563,2.12h10.152
				c0.15-0.371,0.336-0.558,0.558-0.558c0.15,0,0.26-0.188,0.336-0.559C517.479,293.84,514.318,293.504,511.195,293.132
				 M509.633,295.252v-2.231c-0.37-0.074-0.745-0.111-1.116-0.111L509.633,295.252 M509.633,293.021v2.231l1.563-2.12
				C510.675,293.058,510.153,293.021,509.633,293.021 M490.443,290.678c-1.34,0.299-2.009,0.817-2.009,1.563
				c0,0.968,0.073,1.561,0.222,1.785l0.336,0.333c12.347,0,19.229,0.299,20.641,0.894l-1.116-2.343
				c-2.157-0.299-4.314-0.558-6.472-0.782C497.73,291.608,493.864,291.125,490.443,290.678 M463.999,305.182
				c-0.372,0-0.779,0-1.227,0c-0.819,0.521-1.784,1.005-2.9,1.449c-0.817-0.296-1.414-0.706-1.784-1.227
				c-10.043,0.076-16.886,0.336-20.53,0.782c-1.711,0.223-2.678,0.484-2.901,0.78c-0.074,0.148,0.037,0.297,0.334,0.446
				c0,0.966,0.112,1.563,0.335,1.785l0.223,0.336h22.092C458.384,307.673,460.504,306.222,463.999,305.182 M445.479,282.532
				c0.074,0.225,0.595,0.336,1.563,0.336c7.734,0,12.31-1.267,13.722-3.794c-0.519-0.894-0.78-1.486-0.78-1.785
				c-1.936-0.373-3.905-0.409-5.914-0.111c-3.793,0.371-6.768,1.859-8.925,4.463C445.368,281.938,445.479,282.233,445.479,282.532
				 M477.946,265.238l-0.447-0.333c-8.553,0-15.694,0-21.421,0c-0.148,0.892-0.409,1.747-0.78,2.564
				c-0.298,0.669-0.671,1.228-1.115,1.674c0.444-0.074,0.891-0.111,1.338-0.111c11.902-0.222,19.229-0.335,21.979-0.335
				c0.074-0.371,0.262-0.559,0.558-0.559c0.148,0,0.225-0.444,0.225-1.338S478.17,265.389,477.946,265.238 M446.148,267.581
				c-3.793-1.635-5.764-2.454-5.913-2.454c-1.71,0.074-3.347,0.111-4.909,0.111c-0.894,0.076-1.451,0.15-1.673,0.225
				c-0.744,0.37-1.339,0.854-1.786,1.449c-0.372,0.595-0.558,1.078-0.558,1.451c0.373,0.521,1.004,0.966,1.897,1.338
				c0.521-0.222,6.323-0.407,17.405-0.558C449.495,268.771,448.008,268.252,446.148,267.581 M414.35,232.883
				c-0.297,0.521-0.446,0.968-0.446,1.34c0.372,0.519,0.966,0.929,1.785,1.227c0.67-0.224,1.302-0.816,1.897-1.784
				c-0.372-0.894-1.004-1.525-1.897-1.898C415.168,231.917,414.723,232.288,414.35,232.883 M416.136,221.057
				c-1.042,0.223-2.231,0.483-3.57,0.781c-7.661,1.561-11.529,2.342-11.604,2.342c-1.041,0-1.934-0.074-2.677-0.223
				c0,0.373,0.074,0.67,0.224,0.894l0.222,0.222c14.951-0.967,24.769-0.817,29.456,0.447c0.223,0.074,1.487,0.632,3.793,1.674
				c1.338,0.521,2.975,0.779,4.909,0.779c1.637,0,2.863-0.632,3.682-1.896l-0.78-1.45
				C430.045,223.14,422.16,221.949,416.136,221.057 M430.082,214.362c-0.373,0.148-0.558,0.521-0.558,1.116
				c0,0.892,0.074,1.45,0.223,1.673l0.334,0.447h7.698c0.67-0.373,1.079-0.595,1.228-0.67c0.224-0.224,0.446-0.669,0.669-1.339
				c-0.595-0.892-0.892-1.524-0.892-1.896C434.248,213.47,431.346,213.693,430.082,214.362 M467.571,243.371h-0.225
				c-0.148,0-0.26,0-0.333,0c-0.82,0.074-1.674,0.335-2.567,0.78c0,0.967,0.188,1.747,0.558,2.345l2.231,0.444
				c0.968,0,1.674-0.26,2.12-0.78c0.223-0.223,0.447-0.632,0.669-1.227l-0.335-0.782
				C468.97,243.647,468.264,243.389,467.571,243.371 M459.761,219.048c-1.115,0.148-1.673,0.521-1.673,1.116
				c0,0.966,0.073,1.562,0.222,1.785l0.336,0.334h25.215c0.147-0.372,0.333-0.558,0.558-0.558c0.223,0,0.333-0.483,0.333-1.45
				c0-0.893-0.11-1.413-0.333-1.562l-0.558-0.223C471.289,218.267,463.256,218.454,459.761,219.048 M419.929,206.105h0.67
				l-1.228-2.677C419.371,203.949,419.557,204.841,419.929,206.105 M423.499,202.647c-1.785,0-3.161,0.261-4.128,0.781l1.228,2.677
				h4.909l1.004-3.012C425.768,202.795,424.764,202.647,423.499,202.647 M427.293,203.428c-0.224-0.149-0.484-0.26-0.781-0.334
				l-1.004,3.012h0.335c0.297-0.074,0.595-0.259,0.893-0.558c0-0.222,0-0.408,0-0.558v-0.111
				C426.735,204.358,426.92,203.874,427.293,203.428 M426.735,195.729l-0.335-0.893c-1.488-0.967-3.199-0.967-5.133,0
				c0,0.968,0.187,1.748,0.558,2.343h0.112c0.743,0,1.934,0.037,3.57,0.112c0.223-0.075,0.41-0.224,0.558-0.447
				C426.362,196.622,426.586,196.25,426.735,195.729 M488.435,196.622l-0.894-1.45c-2.975-0.372-4.834-0.148-5.579,0.67
				c0,0.892,0.188,1.636,0.558,2.231l2.679,0.558c0.968,0,1.75-0.298,2.343-0.894C487.765,197.664,488.063,197.292,488.435,196.622
				 M468.687,183.68c-0.372,0.447-0.558,0.855-0.558,1.227c0.37,0.521,1.002,0.967,1.896,1.339c0.596-0.223,1.19-0.855,1.785-1.897
				c-0.373-0.892-0.966-1.524-1.785-1.896C469.43,182.675,468.983,183.085,468.687,183.68 M455.185,184.014
				c-1.189,0.447-1.784,1.153-1.784,2.121c0,0.892,0.111,1.45,0.335,1.673l0.223,0.334h11.493c0.147-0.372,0.333-0.558,0.558-0.558
				c0.222,0,0.333-0.447,0.333-1.339c0-0.966-0.111-1.524-0.333-1.673l-0.558-0.224
				C460.615,183.159,457.194,183.048,455.185,184.014 M460.43,169.176h5.021c0.595-0.298,1.189-0.93,1.784-1.897l-0.78-1.451
				c-3.646-0.371-5.84-0.186-6.583,0.558C459.872,166.981,460.058,167.912,460.43,169.176 M481.962,155.118
				c0,0.521,0.188,1.413,0.558,2.677h5.021c0.597-0.297,1.189-0.929,1.786-1.897l-0.782-1.338
				C484.899,154.113,482.707,154.3,481.962,155.118 M481.962,142.622c-0.37-0.892-0.968-1.525-1.784-1.897
				c-0.596,0.148-1.079,0.558-1.449,1.227c-0.299,0.447-0.447,0.856-0.447,1.228c0.373,0.595,1.005,1.041,1.896,1.339
				C480.772,144.22,481.369,143.588,481.962,142.622 M488.435,137.824l-0.336-0.781c-1.486-0.967-3.234-0.967-5.243,0
				c0,0.893,0.188,1.674,0.558,2.343l2.231,0.447c0.968,0,1.674-0.261,2.12-0.781C487.987,138.754,488.212,138.345,488.435,137.824
				 M499.591,181.448c-2.305-0.297-4.053-0.074-5.242,0.669c-0.894,0.745-1.341,1.711-1.341,2.902c0,0.148,0,0.334,0,0.558
				c1.267,0,2.716,0.037,4.353,0.111c0.819-0.595,1.821-1.339,3.011-2.231C499.853,182.416,499.591,181.746,499.591,181.448
				 M468.798,170.18c0.743,0,1.563,0,2.454,0c-0.299-0.521-0.706-0.856-1.228-1.004C469.504,169.324,469.097,169.659,468.798,170.18
				 M500.038,165.605l0.333,0.67c-0.074,0.595-0.147,1.004-0.222,1.227c-0.148,0.447-0.595,0.706-1.338,0.781
				c0.37,0.297,0.891,0.595,1.56,0.893c0.598-0.298,1.229-0.93,1.898-1.897c-0.373-0.893-1.005-1.524-1.898-1.897
				C500.224,165.457,500.112,165.531,500.038,165.605 M512.758,170.291l-0.336,0.669c-0.074,0.075-0.111,0.558-0.111,1.451
				c0,1.116,0.148,1.785,0.447,2.008c0.222,0.148,0.706,0.298,1.449,0.446c2.231-0.893,3.757-1.859,4.574-2.9
				c-0.52-0.893-0.78-1.487-0.78-1.785L512.758,170.291 M496.913,149.985c-0.669,0.075-1.449,0.187-2.343,0.334
				c-0.074,0.075-0.147,0.112-0.222,0.112c-0.299,0.446-0.447,0.893-0.447,1.339c0.373,0.521,1.005,0.93,1.896,1.227
				c0.595-0.223,1.191-0.855,1.784-1.897C497.434,150.655,497.212,150.282,496.913,149.985 M502.27,145.522
				c-0.373-0.966-1.005-1.636-1.898-2.008c-0.519,0.223-0.967,0.632-1.338,1.227c-0.296,0.521-0.446,0.968-0.446,1.339
				c0.372,0.521,0.968,0.929,1.784,1.228C500.969,147.084,501.601,146.49,502.27,145.522 M521.57,151.101
				c-0.297-0.669-0.817-1.19-1.561-1.561l-1.563,2.789c0.373,0.297,0.78,0.521,1.227,0.669
				C520.343,152.774,520.978,152.142,521.57,151.101 M520.01,149.54c-0.074-0.075-0.188-0.149-0.336-0.224
				c-0.521,0.148-0.967,0.521-1.338,1.116c-0.298,0.446-0.446,0.893-0.446,1.339c0.148,0.223,0.333,0.409,0.558,0.558L520.01,149.54
				 M579.701,354.942l-0.782,4.128c4.761,0.819,7.772,1.34,9.036,1.563c-0.816-1.488-1.634-2.938-2.453-4.353
				C583.865,355.762,581.933,355.313,579.701,354.942 M579.588,392.988c-1.042,0.595-2.975,0.894-5.802,0.894
				c-2.9-0.15-5.801-0.336-8.703-0.558c-0.37,0.521-0.78,1.004-1.227,1.449h20.418c0.074-0.297,0.223-0.484,0.447-0.559
				c0.074,0,0.111-0.444,0.111-1.338s-0.076-1.412-0.225-1.563l-0.334-0.333c-1.115,0-2.194,0-3.235,0
				C580.816,391.873,580.333,392.542,579.588,392.988 M541.988,391.65c-0.296-0.076-0.558-0.111-0.78-0.111
				c-0.745,0-1.451-0.039-2.12-0.113c0,0.074,0.037,0.148,0.111,0.225l0.336,0.333c0.817,0.074,1.673,0.113,2.564,0.113
				C542.025,391.949,541.988,391.799,541.988,391.65 M577.022,354.721c-0.595,0.817-1.34,1.227-2.231,1.227
				c-0.669,0-2.308-0.186-4.909-0.558l0.446,2.231c0.223,0,0.481,0.037,0.78,0.111c2.975,0.521,5.579,0.967,7.811,1.338l0.782-4.128
				C578.808,354.795,577.914,354.721,577.022,354.721 M542.547,351.038c-0.596,0.669-0.894,1.599-0.894,2.789
				c0,0.968,0.113,1.6,0.335,1.896l0.336,0.225h10.375c1.858-0.595,7.735-0.037,17.629,1.674l-0.446-2.231
				c-3.273-0.447-8.032-1.192-14.282-2.231c-2.454-0.373-4.76-0.743-6.917-1.116c-0.894-0.224-1.784-0.372-2.678-0.446
				C544.741,351.373,543.588,351.186,542.547,351.038 M374.296,418.539l-0.781-1.451c-3.942-0.148-7.476-0.223-10.599-0.223
				c0.818-0.669,1.562-1.414,2.231-2.231l-0.892-1.338c-5.058,0.074-10.972,1.002-17.74,2.789c-0.224,0.074-0.409,0.148-0.558,0.223
				c-1.116,0.595-2.194,0.856-3.235,0.78c-4.091,1.191-6.137,1.935-6.137,2.23c0,0.746,0.074,1.267,0.223,1.563
				c3.72-2.083,8.517-3.122,14.393-3.122c4.463,0.074,8.814,0.632,13.054,1.673l0.445,0.334c0.298,0.074,0.447,0.595,0.447,1.563
				h0.893c0.521-0.148,1.673-0.373,3.459-0.669C371.358,420.139,372.957,419.432,374.296,418.539 M460.988,433.712
				c1.338-1.711,2.9-3.272,4.685-4.685c-3.271-2.084-6.435-3.831-9.483-5.246c-5.653-2.453-11.082-3.754-16.289-3.904
				c-2.306,0-4.313,0.188-6.025,0.558c-2.603-1.711-5.727-3.197-9.371-4.463c-6.992-2.752-12.683-4.127-17.07-4.127l-5.468,0.222
				h-0.334c2.975,1.711,6.1,3.535,9.372,5.468c0.373,0.148,0.744,0.372,1.116,0.669l0.893,3.905
				c-0.149,0.521-0.223,1.525-0.223,3.014c-0.223,1.264-0.781,1.896-1.673,1.896c-5.876-1.784-11.381-3.421-16.513-4.909
				c0.074,0.521,0.148,0.931,0.222,1.229l0.336,1.338c0.818,0.074,8.33,1.859,22.537,5.356c3.05,0.595,5.802,1.264,8.257,2.007
				c0,0.968,0.037,1.6,0.111,1.898l0.335,0.669c4.017-0.299,7.958-0.336,11.826-0.111c1.116,0.074,1.897,0.111,2.343,0.111
				c0.224,0,0.447,0,0.67,0c4.984,0.37,9.781,1.301,14.393,2.789c0.894,0.297,1.75,0.632,2.566,1.005
				C458.941,436.763,459.872,435.2,460.988,433.712 M309.919,424.786c0.298,0.148,0.595,0.262,0.893,0.336
				c2.752-0.299,5.988-0.706,9.707-1.228c3.198-0.372,6.731-0.595,10.599-0.671c0.149-0.37,0.334-0.558,0.558-0.558
				c0.223,0,0.334-0.444,0.334-1.338c0-0.968-0.148-1.488-0.446-1.563l-0.447-0.334c-8.405,0.521-12.681,0.78-12.831,0.78
				c-1.042,0.148-2.008,0.299-2.9,0.447C313.601,421.997,311.779,423.374,309.919,424.786 M493.901,378.819
				c-3.646-0.298-5.467,0.223-5.467,1.563c0,0.669,0.073,1.15,0.222,1.449c5.208-0.223,15.882-0.558,32.022-1.005
				C505.728,379.711,496.802,379.042,493.901,378.819 M422.718,383.171c0.149-0.224,0.261-0.446,0.335-0.671
				c-0.373-0.892-0.967-1.561-1.786-2.007c-0.595,0.299-1.079,0.743-1.45,1.338c-0.297,0.373-0.447,0.743-0.447,1.116
				C420.486,383.023,421.602,383.098,422.718,383.171 M481.071,324.818c0,0.521,0.185,1.412,0.558,2.678
				c1.858,0.074,3.941,0.223,6.247,0.447c2.231,0.37,3.644,0.558,4.241,0.558c1.933,0,3.272-0.336,4.016-1.005
				c0.074,0.669,0.148,1.338,0.223,2.008c1.71,0.372,6.546,2.566,14.504,6.583c2.679,1.266,6.287,2.157,10.824,2.678
				c2.453,0.223,5.28,0.336,8.479,0.336c4.313,0,7.66-0.225,10.042-0.671c1.71-0.445,2.9-1.003,3.569-1.674
				c0.968-1.116,1.488-2.789,1.563-5.021l-0.669-3.459c-15.845,1.414-27.485,0.15-34.923-3.794
				c-5.653-2.824-10.301-3.532-13.946-2.118c0,0.593,0.036,1.375,0.11,2.343C487.58,323.89,482.633,323.925,481.071,324.818
				 M389.024,366.322l-0.781-1.449c-6.992-0.15-12.831-0.15-17.517,0h-0.111c-1.116,1.711-2.307,3.458-3.571,5.243h0.111h1.674
				c5.355-1.859,9.446-2.604,12.272-2.231C383.482,368.257,386.123,367.736,389.024,366.322 M384.672,324.038
				c0,0.743,0,1.525,0,2.343c0.447,0.074,0.966,0.111,1.563,0.111c1.041,0,2.045,0.037,3.011,0.111
				c-0.148-0.817-0.222-1.934-0.222-3.348C387.238,323.406,385.788,323.666,384.672,324.038 M398.284,271.6l-0.892-1.451
				c-1.86-0.968-7.922,1.078-18.187,6.136c0.075,0.521,0.149,1.116,0.223,1.785c0.447,0.076,1.042,0.111,1.786,0.111
				c1.562,0,4.724-1.003,9.484-3.012C394.119,273.606,396.647,272.417,398.284,271.6 M487.765,251.292l0.334,0.336
				c10.935,0.595,19.897,1.152,26.891,1.673c-0.598-1.115-1.155-2.231-1.674-3.347c-6.769-0.373-13.65-1.005-20.641-1.898
				c-3.421-0.296-5.134,0.225-5.134,1.563C487.541,250.512,487.615,251.069,487.765,251.292 M410.334,294.358
				c-0.372,0-0.708,0-1.005,0c-3.645-0.37-8.702-0.706-15.173-1.003l-0.223-0.224c-0.224-0.299-0.334-0.931-0.334-1.896
				c0-0.894,0.334-1.451,1.004-1.673c0.297-0.077,0.595-0.077,0.893,0h11.715c0.818-0.521,1.413-1.042,1.785-1.563
				c-0.818-0.596-1.561-1.19-2.231-1.785c-2.455,0.148-6.582,0.892-12.384,2.231c-7.884,1.858-11.828,3.458-11.828,4.796
				c0,0.672,0.038,1.155,0.112,1.452c1.785-0.223,3.756-0.371,5.913-0.447c1.265-0.074,2.455-0.111,3.571-0.111
				c0.223-0.074,0.409-0.11,0.558-0.11v0.11c4.611,0,8.145,0.371,10.6,1.116C405.685,294.955,408.028,294.657,410.334,294.358
				 M408.884,248.056l-0.447-0.222c-4.389-0.074-8.108-0.074-11.157,0c1.636,1.041,3.013,2.306,4.128,3.794h7.029
				c0.149-0.373,0.334-0.559,0.558-0.559c0.224,0,0.334-0.446,0.334-1.34C409.329,248.762,409.181,248.204,408.884,248.056z"/>
			<path fill="#796F68" d="M557.162,398.456c-3.646,0-5.468,2.269-5.468,6.806c0,3.423,0.148,5.578,0.447,6.472l0.335,1.005
				c10.785,0.222,19.189,0.891,25.215,2.007c2.977,0.669,5.356,1.227,7.142,1.673c1.039,0,1.933-1.004,2.678-3.011
				c0.593-1.341,0.929-2.679,1.003-4.017l-0.559-5.134C569.511,400.391,559.245,398.456,557.162,398.456 M528.265,404.034
				l0.335,0.223h6.584c0.891-0.371,1.488-1.003,1.784-1.896c-0.37-0.893-0.558-1.525-0.558-1.896
				c-4.167-0.225-6.769-0.039-7.811,0.558c-0.37,0.223-0.558,0.593-0.558,1.116C528.042,403.106,528.116,403.738,528.265,404.034
				 M462.772,340.774c0.074-0.373,0.262-0.559,0.558-0.559c0.148,0,0.223-0.446,0.223-1.34c0-0.966-0.111-1.488-0.333-1.563
				l-0.447-0.333c-14.802,0.222-22.203,1.414-22.203,3.569c0,0.817,0.075,1.375,0.224,1.673c1.042,0,2.008,0,2.901,0
				c1.785-0.222,3.867-0.481,6.248-0.779C453.289,341.07,457.564,340.848,462.772,340.774 M462.326,300.272
				c0,0.223,0.111,0.37,0.335,0.446c0,0.299,0.037,0.596,0.111,0.892c-0.968-0.222-1.747-0.185-2.343,0.113
				c-0.446,0.148-0.856,0.484-1.227,1.003c-0.299,0.298-0.671,1.189-1.115,2.678c0.37,0.521,0.967,0.931,1.784,1.227
				c1.116-0.444,2.081-0.928,2.9-1.449c0.745-0.446,1.304-0.893,1.674-1.34c-0.148-0.37-0.297-0.706-0.447-1.002h19.861h7.363h7.363
				c0.15-0.373,0.335-0.559,0.558-0.559c0.225,0,0.336-0.446,0.336-1.34c0-0.892-0.111-1.414-0.336-1.563l-0.558-0.333
				c-17.553-0.299-28.75-0.111-33.583,0.558c-0.223,0-0.409,0.037-0.558,0.111C463.183,299.937,462.477,300.124,462.326,300.272
				 M477.277,259.66c2.231,0.372,3.495,0.558,3.794,0.558c0.816,0,3.793-0.299,8.925-0.892c5.133-0.597,8.069-0.894,8.815-0.894
				c0.816,0,2.789,0.297,5.912,0.894c3.124,0.593,5.058,0.892,5.803,0.892c0.892,0,1.449-0.299,1.674-0.892
				c0-0.597,0.034-1.08,0.11-1.451c-1.933-1.412-3.384-2.269-4.352-2.566c-1.264-0.445-5.615-0.706-13.053-0.78
				c-1.563,0.222-7.365,0.521-17.407,0.894c-6.247,0.147-9.37,0.706-9.37,1.673c0,1.042,0.111,1.674,0.333,1.896l0.225,0.222
				C472.182,259.287,475.046,259.438,477.277,259.66 M412.676,238.686c0.224,0,0.335-0.409,0.335-1.229
				c0-0.968-0.149-1.525-0.446-1.674l-0.447-0.334c-10.116-0.298-16.476,0-19.079,0.892c-0.818,0.225-1.227,0.931-1.227,2.12
				c0,1.116,0.148,1.824,0.445,2.121c0.149,0.147,0.595,0.37,1.339,0.669c0.669-0.299,1.153-0.596,1.45-0.892
				c0.074-0.225,2.789-0.447,8.145-0.671c4.463-0.223,7.438-0.334,8.926-0.334C412.268,238.908,412.454,238.686,412.676,238.686
				 M467.347,243.371h0.225c3.525,0,7.727-0.039,12.606-0.111c0.15-0.669,0.335-1.005,0.558-1.005c0.225,0,0.336-0.819,0.336-2.453
				c0-1.639-0.111-2.53-0.336-2.679l-0.558-0.558c-7.363,0.373-14.653,0.892-21.868,1.563c-14.281,1.338-21.422,2.9-21.422,4.685
				c0,1.711,0.074,2.79,0.223,3.236l0.334,0.447h9.596c3.569-0.672,4.761-1.378,3.569-2.121c0.967-0.446,6.435-0.782,16.403-1.004
				C467.087,243.371,467.198,243.371,467.347,243.371 M480.624,208.672c0.148,0.074,0.595,0.185,1.338,0.334
				c8.63-1.265,13.277-1.897,13.946-1.897c0.074-0.372,0.262-0.558,0.559-0.558c0.073,0,0.147-0.148,0.224-0.447
				c-0.742-0.074-1.191-0.148-1.34-0.222c-0.296-0.224-0.444-0.856-0.444-1.897c0-0.224,0.035-0.447,0.111-0.67
				c-5.655,0.075-9.521,0.373-11.604,0.894c-2.157,0.521-3.235,1.413-3.235,2.677C480.178,207.928,480.328,208.523,480.624,208.672
				 M428.296,197.515l-0.892,2.677c1.189-0.818,3.979-1.524,8.368-2.119C433.243,197.924,430.751,197.737,428.296,197.515
				 M428.296,197.515c-0.595,0-1.153-0.037-1.673-0.112c-0.372-0.074-0.743-0.111-1.116-0.111c-1.636-0.075-2.827-0.112-3.57-0.112
				h-0.112c-0.224,0-0.409,0-0.558,0l0.112,2.344c0.595,0.445,2.379,1.041,5.355,1.785v-0.111c0-0.372,0.223-0.707,0.669-1.004
				L428.296,197.515 M500.371,166.275l-0.333-0.67l-0.447-0.669c-0.967-0.372-2.527-0.633-4.685-0.781
				c-2.083-0.074-3.646,0.074-4.688,0.447c0,0.521,0.186,1.413,0.558,2.677c1.563,0.075,3.125,0.223,4.688,0.446
				c1.412,0.372,2.454,0.558,3.123,0.558c0.076,0,0.15,0,0.225,0c0.743-0.075,1.189-0.334,1.338-0.781
				C500.224,167.279,500.297,166.87,500.371,166.275 M503.943,150.766c-0.521,0.148-0.782,0.558-0.782,1.227
				c0,0.894,0.073,1.451,0.224,1.673l0.334,0.335h9.819l-0.447-1.339l0.447,1.339h2.12l-0.111-3.793
				C509.521,149.985,505.653,150.171,503.943,150.766 M516.663,153.444c0.222,0,0.333-0.447,0.333-1.339
				c0-0.968-0.148-1.525-0.446-1.674l-0.445-0.223c-0.147,0-0.335,0-0.558,0l0.111,3.793h0.446
				C516.253,153.629,516.438,153.444,516.663,153.444 M511.084,352.711l3.123,0.447c5.729,0,11.382-0.635,16.96-1.898
				c2.083-0.444,4.275-0.706,6.581-0.78c-1.933-0.296-3.458-0.446-4.574-0.446c-0.743,0-3.458,0.558-8.144,1.674
				c-4.61,0.894-7.291,1.34-8.034,1.34c-1.563,0-2.639-1.005-3.236-3.014c-0.074-0.299-0.147-0.558-0.222-0.78
				c-1.563,0.373-2.567,0.743-3.012,1.116C510.526,351.26,510.712,352.042,511.084,352.711 M559.06,315.557
				c-4.314-0.444-10.451-0.519-18.409-0.222c-7.365,0.147-12.571,0.521-15.62,1.115c-0.446,1.116-1.377,1.861-2.789,2.231
				c0.074,0.074,0.148,0.188,0.223,0.336c-0.223,0.223-0.447,0.409-0.669,0.558l0.333,0.333h40.166
				C561.178,318.42,560.102,316.972,559.06,315.557 M365.147,421.328c0-0.968-0.149-1.488-0.447-1.563l-0.445-0.334
				c-4.24-1.041-8.591-1.599-13.054-1.673c-5.876,0-10.673,1.039-14.393,3.122c-1.934,1.042-3.533,2.306-4.797,3.794
				c0.521,0.968,1.897,1.452,4.128,1.452c0.074,0,3.086-0.373,9.037-1.116c6.472-0.968,12.831-1.563,19.08-1.787
				c0.148-0.37,0.334-0.558,0.558-0.558C365.036,422.666,365.147,422.222,365.147,421.328 M401.631,412.066h0.334
				c-0.074-0.074-0.186-0.111-0.334-0.111c-1.636-0.372-3.236-0.705-4.797-1.004l-2.231,4.798c5.132,0.521,10.6,1.116,16.4,1.785
				C407.731,415.602,404.606,413.777,401.631,412.066 M393.598,410.282c-0.521-0.074-1.042-0.148-1.563-0.223l1.786,3.458
				L393.598,410.282 M362.581,406.266c1.042,0.669,1.562,1.486,1.562,2.454c0,1.115-0.52,2.009-1.562,2.678
				c-0.521,0.299-1.228,0.595-2.12,0.894c7.364,0.521,18.744,1.674,34.142,3.458l2.231-4.798c-1.116-0.223-2.194-0.444-3.236-0.669
				l0.223,3.235l-1.786-3.458c-6.992-1.414-13.426-2.417-19.302-3.014C368.792,406.602,365.408,406.34,362.581,406.266
				 M364.143,389.752c0.968-0.967,2.678-1.747,5.133-2.342c-1.488-0.074-2.269-0.111-2.344-0.111c-1.561,0-3.086,0.148-4.574,0.446
				c0,1.264,0.186,2.194,0.558,2.789c0.149,0.074,0.334,0.148,0.558,0.223C363.623,390.384,363.845,390.051,364.143,389.752
				 M391.478,376.253l0.224,3.124l1.45,0.223c0.967,0,1.749-0.223,2.344-0.669c0.223-0.148,0.521-0.521,0.892-1.116l-0.781-1.562
				C393.821,376.104,392.445,376.104,391.478,376.253 M389.917,376.811c0,1.041,0.185,1.824,0.558,2.343l1.227,0.224l-0.224-3.124
				C390.734,376.329,390.214,376.512,389.917,376.811 M353.543,399.46c0.521,0.521,0.967,1.079,1.339,1.674
				c1.934-0.15,4.5-0.259,7.699-0.335c0.074-0.148,0.111-0.26,0.111-0.334c-0.148-1.115-0.26-2.345-0.334-3.683h-2.79
				c-3.347,0.37-6.025,0.706-8.033,1.005C352.205,398.233,352.874,398.791,353.543,399.46 M406.54,285.99
				c0.075,0,0.149,0.074,0.223,0.225c0.67,0.595,1.413,1.189,2.231,1.785c0.818,0.521,1.71,1.041,2.678,1.563
				c1.413,0.669,3.087,1.338,5.021,2.007c1.414,0.446,2.975,0.856,4.687,1.229c7.735,1.933,16.289,2.9,25.662,2.9
				c0.892,0,1.45-0.446,1.673-1.34c0-1.042,0.037-1.822,0.111-2.343c-11.678-4.762-19.488-7.659-23.43-8.701
				C415.057,280.637,408.771,281.527,406.54,285.99z"/>
			<path fill="#C8C097" d="M466.342,348.359c0-0.299-0.035-0.595-0.111-0.891c-0.147-0.373-0.333-0.672-0.558-0.894
				c-0.965-1.265-3.012-2.231-6.137-2.9c-3.421-0.817-8.07-1.267-13.946-1.341c-0.669-0.074-1.301-0.111-1.896-0.111
				c-0.894,0-1.86,0-2.901,0c-0.967,0-1.971,0.037-3.013,0.111c-2.827,0.148-5.393,0.299-7.698,0.447
				c-3.049,0.225-5.765,0.483-8.145,0.782c-4.091,0.593-7.141,1.449-9.149,2.564c-0.447,0.15-0.855,0.373-1.228,0.669
				c-1.487,0.819-2.231,1.861-2.231,3.125c0,0.148,0,0.37,0,0.669c0,1.267,0.149,2.157,0.447,2.679
				c0.595,1.189,1.637,2.044,3.124,2.566c0.521,1.338,1.153,2.007,1.897,2.007c1.563,0,2.008-0.446,1.339-1.338
				c0-0.15,0.185-0.225,0.558-0.225c0.074,0,0.224,0,0.446,0c25.513,0,40.65-0.483,45.412-1.448h0.11c0.669,0,1.302,0,1.896,0
				c0.076-0.225,0.185-0.484,0.335-0.783c0.074-0.147,0.148-0.222,0.223-0.222h0.111c0.522-0.297,0.931-0.669,1.229-1.116
				c0-0.074,0.035-0.188,0.111-0.335c-0.076-0.892-0.111-1.561-0.111-2.007v-0.111C466.381,349.438,466.342,348.807,466.342,348.359
				 M520.679,294.136c4.537,0.447,9.074,0.819,13.611,1.116c1.115,0,2.046-0.632,2.789-1.896c0.595-1.115,0.894-2.345,0.894-3.683
				c0-2.678-6.546-4.872-19.637-6.583l-7.141,10.042C514.318,293.504,517.479,293.84,520.679,294.136 M509.633,293.021
				c0.521,0,1.042,0.037,1.563,0.111l7.141-10.042c-2.678-0.299-5.578-0.595-8.703-0.891V293.021 M503.943,281.641
				c-0.373,0-0.743-0.039-1.116-0.113l5.689,11.382c0.371,0,0.746,0.037,1.116,0.111v-10.821
				C507.848,281.975,505.95,281.789,503.943,281.641 M470.024,285.879c0,1.415,6.806,3.014,20.419,4.799
				c3.421,0.447,7.287,0.931,11.602,1.449c2.157,0.225,4.314,0.483,6.472,0.782l-5.689-11.382
				C480.96,279.819,470.024,281.269,470.024,285.879 M491.224,302.84h-7.363c-8.777,0.222-15.398,1.002-19.861,2.342
				c-3.495,1.04-5.615,2.491-6.358,4.353c-0.373,0.519-0.558,1.115-0.558,1.784c0,1.488,0.185,2.639,0.558,3.459
				c0.743,2.083,2.417,3.124,5.021,3.124c1.338,0,8.405-0.819,21.199-2.455c8.775,1.414,19.972,3.198,33.582,5.355
				c1.785,0,2.938-0.224,3.459-0.669c0.225-0.225,0.521-0.632,0.894-1.229c0.222-0.297,0.446-0.632,0.669-1.003
				c-0.074-0.224-0.148-0.372-0.223-0.446c1.412-0.669,2.343-1.898,2.789-3.683c0.148-0.669,0.223-1.488,0.223-2.454
				C525.253,306.112,513.908,303.284,491.224,302.84 M440.235,265.127c0.149,0,2.12,0.819,5.913,2.454
				c1.86,0.671,3.347,1.189,4.463,1.563c1.042,0.373,1.673,0.558,1.898,0.558c0.593,0,1.15-0.185,1.674-0.558
				c0.444-0.446,0.817-1.005,1.115-1.674c0.371-0.817,0.632-1.673,0.78-2.564c0.074-0.523,0.111-1.116,0.111-1.787
				c0-3.792-3.311-6.694-9.929-8.701c-7.141-2.157-16.699-2.679-28.674-1.563c-5.207,0.446-8.628,1.264-10.265,2.454
				c-1.116,0.819-1.674,2.379-1.674,4.687c0,1.934,0.074,3.123,0.224,3.569c0.446,0.894,1.599,1.415,3.458,1.563
				c2.157,0.371,10.823,0.41,25.997,0.111C436.888,265.238,438.524,265.201,440.235,265.127 M424.057,217.151
				c0-3.421-4.761-4.314-14.281-2.678c-9.521,1.637-14.281,3.497-14.281,5.579c0,0.968,0.148,1.711,0.445,2.231
				c0.521,0.744,1.302,1.302,2.344,1.674c0.743,0.149,1.637,0.223,2.677,0.223c0.075,0,3.943-0.781,11.604-2.342
				c1.339-0.298,2.529-0.558,3.57-0.781C421.417,219.644,424.057,218.341,424.057,217.151 M497.471,201.643
				c-1.264,0.521-2.081,1.079-2.453,1.673c-0.076,0.224-0.111,0.447-0.111,0.67c0,1.041,0.148,1.673,0.444,1.897
				c0.148,0.074,0.598,0.148,1.34,0.222c2.155-0.521,3.57-1.079,4.239-1.674c0.372-0.297,0.819-0.78,1.34-1.45
				c-0.669-0.744-1.005-1.45-1.005-2.119C500.297,200.713,499.033,200.974,497.471,201.643 M472.814,198.853
				c-0.596-1.561-0.894-2.603-0.894-3.124c-13.164,0.967-22.797,1.86-28.896,2.678c-2.827,0.372-5.244,0.781-7.252,1.227
				c-4.537,1.116-7.363,2.381-8.479,3.794c-0.373,0.446-0.558,0.93-0.558,1.45v0.111c0,0.149,0,0.335,0,0.558
				c0,1.339,0.148,2.158,0.445,2.455c0.224,0.149,0.707,0.297,1.451,0.447c1.859-0.595,8.59-0.744,20.194-0.447
				c3.051-0.148,5.801-0.409,8.257-0.781c1.784-0.372,3.384-0.78,4.796-1.227C466.715,204.432,470.36,202.052,472.814,198.853
				 M463.553,179.217c0.373,0.595,1.005,1.042,1.898,1.339c0.595-0.224,1.189-0.855,1.784-1.897
				c-0.37-0.893-0.968-1.525-1.784-1.897c-0.596,0.223-1.079,0.633-1.452,1.228C463.701,178.436,463.553,178.846,463.553,179.217
				 M475.492,157.795c1.563,0,1.896-0.334,1.005-1.003c-1.414-0.744-3.088-1.191-5.021-1.339c-2.529-0.224-4.536,0.223-6.024,1.339
				C467.904,157.46,471.252,157.795,475.492,157.795 M500.818,190.04c1.784,0,2.975-0.149,3.571-0.447
				c0.37-0.223,0.892-0.706,1.561-1.45c-0.593-0.967-0.892-1.599-0.892-1.897c-2.9-0.148-5.468-0.334-7.698-0.558
				c-1.637-0.074-3.086-0.111-4.353-0.111c-3.196-0.223-5.354-0.334-6.47-0.334c-3.051-0.075-4.576,0.521-4.576,1.785
				c0,0.893,0.113,1.45,0.336,1.674l0.222,0.447C490.776,189.222,496.876,189.519,500.818,190.04 M501.265,172.969l-0.335-0.893
				c-0.593-0.446-2.38-0.855-5.354-1.227c-3.199-0.297-5.28-0.521-6.248-0.669c-7.217-0.224-13.24-0.224-18.075,0
				c-0.892,0-1.711,0-2.454,0c-4.389,0.074-7.588,0.259-9.595,0.558c-1.414,0.148-2.12,0.521-2.12,1.116
				c0,0.967,0.111,1.562,0.333,1.785l0.225,0.334c22.09,0.075,35.257,0.372,39.497,0.893
				C499.145,174.865,500.52,174.233,501.265,172.969 M500.93,159.692c1.189,0.148,2.157,0.372,2.902,0.669
				c0.593,0.149,1.301,0.224,2.118,0.224c0.894,0,1.414-0.261,1.563-0.781c0-0.669,0.076-1.153,0.225-1.45
				c-1.19-0.818-2.567-1.339-4.13-1.562c-1.189-0.075-2.269-0.037-3.236,0.111C500.371,157.498,500.559,158.428,500.93,159.692
				 M494.57,150.319c0.894-0.148,1.674-0.259,2.343-0.334c2.826-0.297,4.277-0.521,4.352-0.669
				c-1.486-2.678-5.431-3.607-11.826-2.789c-5.951,0.744-9.669,1.971-11.157,3.682c0.521,0.595,2.38,0.892,5.579,0.892
				c1.414,0,4.574-0.223,9.483-0.669C493.717,150.356,494.124,150.319,494.57,150.319 M494.906,140.725
				c2.602-1.636,4.872-1.636,6.806,0c1.488,1.264,3.495,0.297,6.025-2.9c-6.102-1.042-9.672-1.153-10.713-0.335
				c-2.083,1.488-3.421,2.269-4.017,2.344C493.307,140.204,493.938,140.501,494.906,140.725 M513.315,148.312
				c0.593-0.298,1.189-0.93,1.785-1.897l-0.782-1.338c-3.644-0.447-5.838-0.261-6.581,0.558c0,0.521,0.185,1.413,0.558,2.677
				H513.315 M573.786,393.882c2.827,0,4.76-0.299,5.802-0.894c0.745-0.446,1.229-1.115,1.451-2.007
				c0.074-0.299,0.111-0.706,0.111-1.229c0-1.486-4.278-2.789-12.831-3.904l-2.007,1.34c0,0.373,0,0.78,0,1.227
				c0,1.936-0.41,3.569-1.229,4.91C567.985,393.546,570.886,393.731,573.786,393.882 M567.539,343.563l2.343,11.826
				c2.602,0.372,4.24,0.558,4.909,0.558c0.892,0,1.637-0.409,2.231-1.227c0.223-0.299,0.407-0.632,0.558-1.005
				c0.596-1.115,0.892-2.53,0.892-4.24c0-1.637-3.421-3.532-10.264-5.69C567.985,343.711,567.762,343.638,567.539,343.563
				 M545.894,338.987c-2.009-0.297-3.905-0.484-5.689-0.558c-2.382,0.446-5.729,0.671-10.042,0.671
				c-3.198,0-6.025-0.113-8.479-0.336c-5.579,1.19-8.368,3.794-8.368,7.811c0,0.967,0.074,1.86,0.223,2.678
				c0.074,0.223,0.147,0.481,0.222,0.78c0.598,2.009,1.674,3.014,3.236,3.014c0.743,0,3.424-0.446,8.034-1.34
				c4.686-1.116,7.4-1.674,8.144-1.674c1.116,0,2.642,0.15,4.574,0.446c1.414,0.074,3.014,0.262,4.799,0.559
				c1.041,0.147,2.194,0.335,3.458,0.558c0.894,0.074,1.784,0.223,2.678,0.446c2.157,0.373,4.463,0.743,6.917,1.116
				c6.25,1.039,11.009,1.784,14.282,2.231l-2.343-11.826C560.993,341.48,553.777,339.955,545.894,338.987 M465.673,429.027
				c-1.784,1.412-3.347,2.974-4.685,4.685c1.933,0.745,4.386,1.005,7.363,0.782c4.092-0.299,11.083-1.078,20.976-2.345
				c3.199,0.225,12.644-0.296,28.338-1.56c17.852-1.341,29.715-2.79,35.592-4.353c1.116-0.298,1.75-1.525,1.898-3.683
				c0.147-1.784-0.039-3.532-0.559-5.243c-1.115-4.24-18.409-5.541-51.881-3.904c-16.81,0.816-29.156,2.453-37.043,4.909
				c-3.347,0.966-5.838,2.118-7.475,3.458c-0.967,0.595-1.636,1.265-2.009,2.007C459.238,425.196,462.402,426.943,465.673,429.027
				 M488.656,381.831c-1.933,0.076-3.159,0.15-3.681,0.225c-3.646,0.222-5.578,0.892-5.803,2.007v0.111
				c0,0.968,0.113,1.563,0.336,1.787l0.222,0.333h10.488c2.009-0.223,8.553-0.558,19.637-1.005
				c-0.817,0.447-1.228,0.968-1.228,1.563c0,1.341,10.153,2.866,30.46,4.574c0.669,0.074,1.375,0.113,2.12,0.113
				c0.223,0,0.484,0.035,0.78,0.111c-0.147-0.894-0.222-1.973-0.222-3.236c0-3.495,1.486-5.914,4.463-7.252l-0.336-0.111
				c-0.745-0.076-1.451-0.111-2.12-0.111c-6.694-0.298-13.796-0.409-21.31-0.335c-0.596,0-1.19,0.074-1.785,0.222
				C504.538,381.273,493.864,381.608,488.656,381.831 M422.718,383.171c-1.116-0.073-2.231-0.147-3.347-0.224
				c-3.198-0.223-6.359-0.447-9.483-0.67l-10.6,23.095c6.621,0.148,10.749,0.41,12.385,0.782c3.57,0.669,8.294,1.005,14.17,1.005
				c4.313,0,6.471-2.977,6.471-8.926c0-2.828-0.334-4.65-1.004-5.468c0-0.146-0.037-0.22-0.111-0.224h18.633
				c0.148-0.817,0.334-1.228,0.558-1.228c0.222,0,0.334-1.004,0.334-3.012c0-2.083-0.149-3.235-0.447-3.458
				C441.276,384.322,432.09,383.764,422.718,383.171 M393.487,381.162c-0.596,0-1.154,0-1.673,0l1.45,24.1
				c2.231,0,4.239,0.036,6.024,0.11l10.6-23.095C404.458,381.907,398.99,381.532,393.487,381.162 M391.813,381.162
				c-1.563-0.148-3.125-0.262-4.687-0.336c-2.752-0.147-5.542-0.37-8.368-0.669c-4.389-0.222-6.918-0.222-7.587,0
				c-0.373,0.299-0.558,1.525-0.558,3.683c0,0.148,0,0.334,0,0.559c0,1.115,0.074,2.007,0.222,2.678
				c-0.595,0.148-1.116,0.26-1.562,0.334c-2.455,0.595-4.165,1.375-5.133,2.342c-0.297,0.299-0.52,0.632-0.669,1.005
				c-0.372,0.595-0.669,1.375-0.893,2.343c-0.149,0.819-0.223,1.787-0.223,2.902c0,0.297,0,0.558,0,0.78
				c0.074,1.338,0.186,2.567,0.334,3.683c0.074,0.148,0.112,0.297,0.112,0.444c0.595,2.829,1.673,4.241,3.235,4.241
				c2.604,0,5.058,0,7.364,0c6.099,0,11.529,0.037,16.289,0.111l-9.818-19.525l9.818,19.525c1.265,0,2.455,0,3.571,0
				L391.813,381.162 M356.891,405.15c0.297,1.115,0.446,2.269,0.446,3.458c0,2.009-0.371,3.458-1.115,4.352
				c1.636-0.148,3.049-0.37,4.239-0.669c0.893-0.299,1.6-0.595,2.12-0.894c1.042-0.669,1.562-1.563,1.562-2.678
				c0-0.968-0.52-1.785-1.562-2.454C361.392,405.597,359.495,405.225,356.891,405.15 M333.907,408.162
				c-2.529,0.745-3.794,1.562-3.794,2.455c0,1.19,0.149,1.934,0.447,2.231c1.189,1.116,3.793,1.711,7.81,1.785
				c-0.074-0.074-0.149-0.148-0.224-0.223C336.288,412.254,334.874,410.171,333.907,408.162 M382.664,294.694
				c-0.447,0.073-0.855,0.11-1.228,0.11c0.373,3.348,0.818,6.993,1.339,10.936c6.471-0.076,11.53-0.225,15.174-0.447
				c-2.976,0.745-5.17,2.157-6.583,4.241c-1.563,2.231-2.343,5.206-2.343,8.926c0,0.593,0,1.15,0,1.673
				c0,1.785,0.074,3.234,0.222,4.35c0.075,0.894,0.149,1.525,0.224,1.898c1.636,4.463,5.802,6.694,12.496,6.694
				c5.95,0,9.633-1.005,11.046-3.014c1.19-1.338,1.785-5.206,1.785-11.602c0-7.662-2.752-12.014-8.257-13.056
				c-1.264-0.373-2.566-0.632-3.905-0.78c0.447-0.076,0.818-0.15,1.116-0.225c2.455-0.669,3.683-2.453,3.683-5.354
				c0-1.711-1.376-2.975-4.128-3.794c-2.455-0.745-5.988-1.116-10.6-1.116c-0.149,0-0.334,0-0.558,0
				c-1.116,0-2.306,0.037-3.571,0.111C386.42,294.323,384.449,294.472,382.664,294.694 M388.354,244.04
				c1.19,0.298,2.305,0.634,3.347,1.005c0.074-0.297,0.112-0.633,0.112-1.005c0-1.933-2.641-3.72-7.922-5.354
				c-0.893,2.975-1.674,5.801-2.343,8.479c0.743,0.147,1.562,0.298,2.455,0.446L388.354,244.04 M465.451,232.325
				c0,1.041,0.147,1.784,0.446,2.231c0.892,1.34,2.863,2.009,5.912,2.009c3.942,0,10.858-0.521,20.752-1.563
				c5.652-0.521,10.115-1.079,13.389-1.674c-0.817-2.157-1.449-4.24-1.896-6.247h-0.11c-3.72-0.299-8.741-0.299-15.063,0
				C473.261,227.751,465.451,229.498,465.451,232.325z"/>
			<path fill="#928781" d="M448.826,297.261c0,0.519,0.186,1.449,0.558,2.789c2.603,0.297,5.505,0.706,8.704,1.228
				c0.891,0.148,1.673,0.298,2.342,0.446c0.596-0.298,1.375-0.335,2.343-0.113c-0.074-0.296-0.111-0.593-0.111-0.892
				c-0.224-0.076-0.335-0.224-0.335-0.446c0.15-0.148,0.856-0.336,2.12-0.558l-0.336-0.558c-2.75-1.116-5.056-1.936-6.916-2.454
				c-0.745-0.148-1.486-0.299-2.231-0.447c-1.19-0.149-2.269-0.149-3.236,0C450.686,296.404,449.718,296.738,448.826,297.261
				 M409.329,294.358c0.297,0,0.633,0,1.005,0c2.38-0.074,3.942-0.297,4.686-0.669c0.669-0.299,1.227-1.005,1.673-2.12
				c-1.934-0.669-3.607-1.338-5.021-2.007h-4.463h-11.715c-0.298-0.077-0.595-0.077-0.893,0c-0.67,0.222-1.004,0.779-1.004,1.673
				c0,0.966,0.111,1.598,0.334,1.896l0.223,0.224C400.627,293.652,405.685,293.988,409.329,294.358z"/>
			<path fill="#8B8B8B" d="M490.219,218.044c0,1.71,0.743,2.678,2.231,2.901c1.488,0.222,3.049,0.334,4.688,0.334
				c1.708,0,2.975-0.112,3.792-0.334c0.893-0.223,1.34-1.191,1.34-2.901c0-1.711-0.595-3.198-1.785-4.463
				c-1.189-1.116-2.604-1.674-4.24-1.674s-3.051,0.558-4.24,1.674C490.813,214.846,490.219,216.333,490.219,218.044
				 M576.798,369.447v-0.223l-4.907-3.905l-8.034-6.472c-12.197,2.9-19.563,9.521-22.09,19.86l4.127,2.343l0.336,0.111
				c0.147-0.074,0.259-0.111,0.333-0.111c2.826-1.34,5.616-2.456,8.368-3.347c2.9-1.042,5.504-0.41,7.81,1.896
				c0.596,0.595,1.153,1.267,1.674,2.009c0.669,1.04,1.192,2.194,1.563,3.459c0,0.147,0.037,0.296,0.111,0.446
				c0.076,0.521,0.15,1.079,0.225,1.674l2.007-1.34l8.479-6.248V369.447z"/>
			<path fill="#4F7B37" d="M675.652,286.326c21.868-21.421,49.909-41.171,84.124-59.244V190.04
				c-22.166,2.231-42.509,5.802-61.029,10.71c-57.57,15.323-97.03,43.848-118.377,85.576c-6.174,12.051-10.824,25.215-13.947,39.497
				c5.542,8.74,11.081,17.479,16.625,26.219c0.817,1.338,1.635,2.753,2.454,4.238c0.819,1.415,1.637,2.864,2.453,4.353
				c0.523,0.967,1.116,2.009,1.787,3.125l26.664,52.996c0.148,0.37,0.299,0.706,0.446,1.005
				C616.779,368.519,636.378,324.707,675.652,286.326 M140.553,114.171v26.554c44.332-7.438,100.86,0.148,169.589,22.761
				c59.876-24.993,104.096-19.451,132.658,16.624c9.372-7.363,15.063-14.17,17.071-20.417c5.877-6.471,7.847-11.789,5.912-15.955
				c-1.785-4.017-6.507-8.182-14.169-12.496c-3.794-5.727-12.98-11.417-27.558-17.07C321.56,90.741,227.059,90.741,140.553,114.171
				 M516.327,137.377c14.504,5.579,18.779,14.467,12.831,26.666c18.671-26.405,66.089-43.03,142.254-49.873H424.057
				c14.578,5.653,23.764,11.343,27.558,17.07c2.602-0.297,7.623-0.41,15.063-0.334c7.588,0,13.426,0.186,17.516,0.558
				c9.074,0.818,14.84,1.413,17.294,1.785C505.876,133.919,510.822,135.294,516.327,137.377z"/>
			<path fill="#ECF1FF" d="M759.776,19.335c0-6.323-3.049-9.484-9.148-9.484h-601.93c-4.016,0-6.731,1.339-8.145,4.016v100.304
				c86.505-23.43,181.007-23.43,283.504,0h247.355c42.545-7.364,71.702-7.364,87.473,0h0.892V19.335 M504.054,227.082
				c-0.167-0.561-0.315-1.117-0.446-1.674c0.111,0.558,0.225,1.115,0.336,1.674H504.054z"/>
			<path fill="#71A240" d="M529.158,164.043c-1.116,2.306-2.642,4.761-4.574,7.364c-1.414,1.785-2.975,3.682-4.688,5.689
				c-8.627,9.521-14.021,18.782-16.178,27.782c-0.111,6.434-0.223,12.868-0.334,19.302l0.223,1.228
				c0.131,0.557,0.279,1.113,0.446,1.674c0.447,2.007,1.079,4.09,1.896,6.247c0.074,0.223,0.148,0.447,0.225,0.669
				c0.372,0.894,0.743,1.824,1.115,2.79l1.896-0.78c33.547-55.712,96.733-67.464,189.561-35.258
				c18.521-4.908,38.863-8.479,61.029-10.71v-75.869h-0.892c-15.771-7.364-44.928-7.364-87.473,0
				C595.247,121.013,547.829,137.638,529.158,164.043 M333.126,406.266c-0.595-2.157,0.223-4.426,2.455-6.806
				c2.157-2.157,4.686-3.384,7.587-3.683c6.62-44.553-2.195-81.037-26.443-109.451c-31.909-37.414-90.634-60.807-176.171-70.179
				c40.984,18.594,74.046,41.99,99.187,70.179c36.299,40.687,56.009,91.378,59.133,152.073v-5.692
				c3.794-2.676,7.476-5.316,11.046-7.921c1.86-1.412,3.682-2.789,5.468-4.127C321.708,415.823,327.621,411.025,333.126,406.266
				 M442.801,180.109c-28.562-36.075-72.782-41.616-132.658-16.624c36.298,14.95,61.81,37.301,76.538,67.054
				c2.381-6.173,5.504-11.715,9.373-16.625c4.313-5.429,9.967-10.524,16.959-15.285
				C425.285,192.011,435.214,185.837,442.801,180.109z"/>
			<path fill="#999999" d="M564.414,381.608c-0.521-0.742-1.078-1.414-1.674-2.009c-2.306-2.306-4.909-2.938-7.81-1.896
				c-2.752,0.891-5.542,2.007-8.368,3.347c-0.074,0-0.186,0.037-0.333,0.111c-2.977,1.338-4.463,3.757-4.463,7.252
				c0,1.264,0.074,2.343,0.222,3.236c0,0.148,0.037,0.299,0.111,0.446c0.225,1.265,0.669,2.084,1.34,2.454
				c1.042,0.595,3.644,1.486,7.811,2.678c4.164,1.116,7.736,0.78,10.71-1.004c0.743-0.447,1.376-0.929,1.896-1.451
				c0.446-0.445,0.856-0.929,1.227-1.449c0.819-1.341,1.229-2.975,1.229-4.91c0-0.446,0-0.854,0-1.227
				c-0.074-0.595-0.148-1.152-0.225-1.674c-0.074-0.15-0.111-0.299-0.111-0.446C565.606,383.803,565.083,382.648,564.414,381.608
				 M391.701,245.045c-1.042-0.371-2.157-0.707-3.347-1.005l-4.351,3.571l-3.236,2.676l-1.897,1.451v7.699l0.112,0.111l10.822,7.475
				l14.84-8.368c-0.596-2.676-1.673-5.021-3.236-7.027c-1.116-1.488-2.492-2.753-4.128-3.794
				C395.643,246.718,393.784,245.79,391.701,245.045z"/>
			<path fill="#55843C" d="M509.187,236.008c-0.447,0.743-0.892,1.488-1.339,2.231c1.563,3.794,3.385,7.698,5.468,11.715
				c0.519,1.115,1.076,2.231,1.674,3.347c5.504,10.264,12.569,21.273,21.198,33.025c4.091,5.578,8.554,11.345,13.389,17.294
				c1.042,1.264,2.083,2.527,3.123,3.793c2.083,2.53,4.203,5.243,6.36,8.144c1.042,1.415,2.118,2.863,3.234,4.352
				c1.34,1.934,2.715,3.905,4.129,5.915c3.123-14.282,7.773-27.446,13.947-39.497c21.347-41.729,60.807-70.253,118.377-85.576
				C605.92,168.543,542.733,180.296,509.187,236.008 M310.143,163.486c-68.729-22.613-125.258-30.2-169.589-22.761v75.422
				c85.538,9.373,144.262,32.765,176.171,70.179c24.248,28.414,33.063,64.898,26.443,109.451c0.447-0.074,0.93-0.111,1.45-0.111
				h0.112c0.298-0.296,0.632-0.595,1.004-0.893l19.19-21.644c0.67-1.042,1.376-2.046,2.12-3.014
				c1.264-1.785,2.455-3.532,3.571-5.243c0.595-0.894,1.153-1.75,1.673-2.567l4.24-7.585l7.81-24.882
				c0.148-1.189,0.26-2.343,0.334-3.458c0-0.817,0-1.6,0-2.343c0.074-3.944-0.297-7.85-1.116-11.715
				c-0.297-2.306-0.558-4.502-0.781-6.583c-0.521-3.942-0.966-7.588-1.339-10.936c-0.372-3.048-0.706-5.877-1.003-8.479
				c-0.373-3.125-0.707-5.875-1.004-8.257c-0.074-0.669-0.148-1.264-0.223-1.785c-0.223-2.306-0.409-4.24-0.558-5.801
				c-0.074-0.967-0.111-2.009-0.111-3.125c-0.074-2.379,0.074-4.983,0.447-7.81l-0.112-0.111v-7.699l1.897-1.451
				c0.224-1.041,0.484-2.083,0.781-3.122c0.669-2.679,1.45-5.505,2.343-8.479c0.447-1.414,0.892-2.828,1.339-4.24
				c0.447-1.338,0.93-2.642,1.45-3.905C371.953,200.787,346.44,178.436,310.143,163.486z"/>
			<path fill="#949494" d="M335.581,399.46c-2.231,2.38-3.05,4.648-2.455,6.806c0,0.223,0.037,0.41,0.112,0.558
				c0.148,0.447,0.371,0.894,0.669,1.339c0.966,2.009,2.38,4.092,4.239,6.249c0.074,0.074,0.149,0.148,0.224,0.223
				c1.339,1.563,2.789,2.38,4.352,2.454c1.041,0.076,2.119-0.186,3.235-0.78c0.149-0.074,0.334-0.148,0.558-0.223
				c2.529-1.34,4.946-2.009,7.252-2.009c1.042-0.074,1.86-0.447,2.455-1.116c0.744-0.894,1.115-2.343,1.115-4.352
				c0-1.189-0.149-2.343-0.446-3.458c-0.446-1.486-1.116-2.826-2.008-4.017c-0.372-0.595-0.818-1.152-1.339-1.674
				c-0.669-0.669-1.338-1.227-2.008-1.673c-2.008-1.415-4.276-2.121-6.806-2.121h-0.112c-0.52,0-1.003,0.037-1.45,0.111
				C340.267,396.076,337.738,397.303,335.581,399.46z"/>
		</g>
	</g>
	<g>
		<path id="Layer0_0_1_STROKES" fill="none" stroke="#324A00" stroke-width="2" stroke-linecap="round" stroke-linejoin="round" d="
			M503.607,225.464l-0.223-1.284c0.111-6.434,0.223-12.868,0.334-19.302c2.157-9,7.551-18.261,16.178-27.782
			c1.713-2.008,3.273-3.905,4.688-5.689c1.933-2.603,3.458-5.058,4.574-7.364c5.948-12.199,1.673-21.087-12.831-26.666
			c-5.505-2.083-10.451-3.458-14.84-4.128c-2.454-0.372-8.22-0.966-17.294-1.785c-4.09-0.372-9.928-0.558-17.516-0.558
			c-7.439-0.075-12.461,0.037-15.063,0.334c7.662,4.314,12.384,8.479,14.169,12.496c1.935,4.166-0.035,9.484-5.912,15.955
			c-2.009,6.248-7.699,13.054-17.071,20.417c-7.587,5.728-17.516,11.901-29.789,18.521c-6.992,4.76-12.646,9.855-16.959,15.285
			c-3.868,4.91-6.992,10.451-9.373,16.625c-0.521,1.264-1.003,2.567-1.45,3.905c-0.447,1.412-0.892,2.826-1.339,4.24
			 M378.982,259.549c-0.373,2.826-0.521,5.431-0.447,7.81c0,1.116,0.037,2.158,0.111,3.125c0.149,1.561,0.335,3.495,0.558,5.801
			 M379.428,278.069c0.297,2.382,0.632,5.132,1.004,8.257c0.298,2.602,0.632,5.431,1.003,8.479 M382.775,305.74
			c0.223,2.081,0.484,4.277,0.781,6.583c0.818,3.865,1.189,7.771,1.116,11.715 M384.672,326.381
			c-0.074,1.115-0.187,2.269-0.334,3.458l-7.81,24.882l-4.24,7.585 M364.924,373.13l-19.19,21.644
			c-0.372,0.298-0.706,0.597-1.004,0.893 M671.412,114.171c-76.165,6.842-123.583,23.467-142.254,49.873 M424.057,114.171
			c-102.497-23.43-196.999-23.43-283.504,0 M671.412,114.171c42.545-7.364,71.702-7.364,87.473,0h0.892h0.671 M140.553,140.725
			c44.332-7.438,100.86,0.148,169.589,22.761c59.876-24.993,104.096-19.451,132.658,16.624 M451.615,131.241
			c-3.794-5.727-12.98-11.417-27.558-17.07 M425.507,206.105l-2.008,6.36l-2.9-6.36 M426.512,203.094l0.893-2.901 M428.296,197.515
			l0.447-1.451 M503.607,225.464c0.131,0.52,0.279,1.058,0.446,1.618c0.447,2.007,1.079,4.09,1.896,6.247
			c0.074,0.223,0.148,0.447,0.225,0.669c0.372,0.894,0.743,1.824,1.115,2.79 M509.187,236.008
			c33.547-55.712,96.733-67.464,189.561-35.258c18.521-4.908,38.863-8.479,61.029-10.71 M427.404,200.192l0.892-2.677
			 M425.507,206.105l1.004-3.012 M419.371,203.428l1.228,2.677 M513.315,249.954c-2.083-4.017-3.905-7.921-5.468-11.715
			c-0.224-0.447-0.409-0.931-0.558-1.451 M509.633,271.6v10.6 M381.548,247.165c-0.297,1.039-0.558,2.081-0.781,3.122
			 M379.205,276.284c0.075,0.521,0.149,1.116,0.223,1.785 M383.891,238.686c-0.893,2.975-1.674,5.801-2.343,8.479 M384.672,324.038
			c0,0.743,0,1.525,0,2.343 M333.126,406.266c-5.505,4.76-11.418,9.558-17.739,14.394 M309.919,424.786
			c-3.57,2.604-7.252,5.245-11.046,7.921 M298.873,438.399c-3.124-60.695-22.834-111.387-59.133-152.073
			c-25.141-28.189-58.203-51.585-99.187-70.179c85.538,9.373,144.262,32.765,176.171,70.179
			c24.248,28.414,33.063,64.898,26.443,109.451 M372.288,362.306c-0.521,0.817-1.079,1.674-1.673,2.567
			c-1.116,1.711-2.307,3.458-3.571,5.243c-0.744,0.968-1.45,1.972-2.12,3.014 M567.539,343.563l-0.894-4.241 M571.891,365.319
			l-1.563-7.698 M381.436,294.805c0.373,3.348,0.818,6.993,1.339,10.936 M315.387,420.659c-1.786,1.338-3.608,2.715-5.468,4.127
			 M759.776,227.082c-34.215,18.073-62.256,37.823-84.124,59.244c-39.274,38.381-58.873,82.192-58.8,131.433
			c3.049,6.694,6.137,13.573,9.262,20.641 M507.848,238.239c0.447-0.743,0.892-1.488,1.339-2.231 M513.315,249.954
			c0.519,1.115,1.076,2.231,1.674,3.347c5.504,10.264,12.569,21.273,21.198,33.025c4.091,5.578,8.554,11.345,13.389,17.294
			c1.042,1.264,2.083,2.527,3.123,3.793c2.083,2.53,4.203,5.243,6.36,8.144c1.042,1.415,2.118,2.863,3.234,4.352
			c1.34,1.934,2.715,3.905,4.129,5.915c3.123-14.282,7.773-27.446,13.947-39.497c21.347-41.729,60.807-70.253,118.377-85.576
			 M509.633,293.021v2.231l1.563-2.12 M509.633,295.252l-1.116-2.343l-5.689-11.382 M509.633,282.199v10.821 M511.195,293.132
			l7.141-10.042l0.445-0.669 M569.882,355.39l-2.343-11.826 M585.502,356.28c-0.819-1.485-1.637-2.9-2.454-4.238
			c-5.544-8.74-11.083-17.479-16.625-26.219 M570.328,357.621l-0.446-2.231 M579.701,354.942l-0.782,4.128l-2.121,10.377
			 M587.955,360.633c-0.816-1.488-1.634-2.938-2.453-4.353 M616.853,417.759c-0.147-0.299-0.298-0.635-0.446-1.005l-26.664-52.996
			c-0.671-1.116-1.264-2.158-1.787-3.125 M310.143,163.486c36.298,14.95,61.81,37.301,76.538,67.054"/>
	</g>
	<g>
		<path id="Layer0_0_2_STROKES" fill="none" stroke="#324A00" stroke-linecap="round" stroke-linejoin="round" d="M520.01,149.54
			l0.669-1.228 M518.447,152.329l-2.789,5.132l-0.558,0.893l-1.563-4.351 M515.547,148.758v1.45 M518.447,152.329l1.563-2.789
			 M515.658,157.46v-3.458l-0.111-3.793 M513.091,152.663l0.447,1.339 M424.057,114.171h247.355"/>
	</g>
	<g>
		<path id="Layer0_0_3_STROKES" fill="none" stroke="#333333" stroke-width="2" stroke-linecap="round" stroke-linejoin="round" d="
			M397.28,247.834c-1.637-1.116-3.496-2.044-5.579-2.789 M401.408,251.628c1.563,2.007,2.64,4.352,3.236,7.027l-14.84,8.368
			l-10.822-7.475 M344.729,395.666c2.529,0,4.798,0.706,6.806,2.121 M490.219,218.044c0-1.711,0.595-3.198,1.785-4.463
			c1.189-1.116,2.604-1.674,4.24-1.674s3.051,0.558,4.24,1.674c1.19,1.265,1.785,2.752,1.785,4.463c0,1.71-0.447,2.678-1.34,2.901
			c-0.817,0.222-2.084,0.334-3.792,0.334c-1.639,0-3.199-0.112-4.688-0.334C490.962,220.722,490.219,219.754,490.219,218.044z
			 M391.701,245.045c-1.042-0.371-2.157-0.707-3.347-1.005l-4.351,3.571l-3.236,2.676l-1.897,1.451v7.699l0.112,0.111
			 M401.408,251.628c-1.116-1.488-2.492-2.753-4.128-3.794 M338.37,414.634c-0.074-0.074-0.149-0.148-0.224-0.223
			c-1.859-2.157-3.273-4.24-4.239-6.249c-0.298-0.445-0.521-0.892-0.669-1.339c-0.075-0.147-0.112-0.335-0.112-0.558
			 M343.167,395.777c0.447-0.074,0.93-0.111,1.45-0.111h0.112 M333.126,406.266c-0.595-2.157,0.223-4.426,2.455-6.806
			c2.157-2.157,4.686-3.384,7.587-3.683 M356.891,405.15c0.297,1.115,0.446,2.269,0.446,3.458c0,2.009-0.371,3.458-1.115,4.352
			 M356.891,405.15c-0.446-1.486-1.116-2.826-2.008-4.017c-0.372-0.595-0.818-1.152-1.339-1.674
			c-0.669-0.669-1.338-1.227-2.008-1.673 M545.894,381.051l-4.127-2.343c2.527-10.34,9.893-16.96,22.09-19.86l8.034,6.472
			 M342.722,417.088c-1.563-0.074-3.013-0.892-4.352-2.454 M356.222,412.96c-0.595,0.669-1.414,1.042-2.455,1.116
			c-2.306,0-4.723,0.669-7.252,2.009c-0.224,0.074-0.409,0.148-0.558,0.223c-1.116,0.595-2.194,0.856-3.235,0.78 M568.319,385.848
			l8.479-6.248v-10.152v-0.223l-4.907-3.905 M546.229,381.162c0.147-0.074,0.259-0.111,0.333-0.111
			c2.826-1.34,5.616-2.456,8.368-3.347c2.9-1.042,5.504-0.41,7.81,1.896c0.596,0.595,1.153,1.267,1.674,2.009
			c0.669,1.04,1.192,2.194,1.563,3.459c0,0.147,0.037,0.296,0.111,0.446c0.076,0.521,0.15,1.079,0.225,1.674l2.007-1.34
			 M563.856,394.773c-0.521,0.522-1.153,1.004-1.896,1.451c-2.974,1.784-6.546,2.12-10.71,1.004
			c-4.167-1.191-6.769-2.083-7.811-2.678c-0.671-0.37-1.115-1.189-1.34-2.454 M541.988,391.65c-0.147-0.894-0.222-1.973-0.222-3.236
			c0-3.495,1.486-5.914,4.463-7.252l-0.336-0.111 M542.1,392.097c-0.074-0.147-0.111-0.298-0.111-0.446 M565.083,393.324
			c-0.37,0.521-0.78,1.004-1.227,1.449 M566.313,387.188c0,0.373,0,0.78,0,1.227c0,1.936-0.41,3.569-1.229,4.91"/>
	</g>
	<g>
		<path id="Layer0_0_4_STROKES" fill="none" stroke="#324A00" stroke-width="3" stroke-linecap="round" stroke-linejoin="round" d="
			M391.813,381.162l-0.112-1.785 M391.032,369.559l0.445,6.694l0.224,3.124 M393.264,405.262l-1.45-24.1 M399.288,405.372
			l10.6-23.095l1.004-2.342 M379.875,385.736l9.818,19.525 M396.834,410.951l2.454-5.579 M393.598,410.282l-0.334-5.021
			 M389.693,405.262l2.343,4.798 M393.598,410.282l0.223,3.235l-1.786-3.458 M394.603,415.749l2.231-4.798"/>
	</g>
</g>
</svg>
