<?xml version="1.0" encoding="utf-8"?>
<!-- Generator: Adobe Illustrator 16.0.0, SVG Export Plug-In . SVG Version: 6.00 Build 0)  -->
<!DOCTYPE svg PUBLIC "-//W3C//DTD SVG 1.1//EN" "http://www.w3.org/Graphics/SVG/1.1/DTD/svg11.dtd">
<svg version="1.1" id="Layer_1" xmlns="http://www.w3.org/2000/svg" xmlns:xlink="http://www.w3.org/1999/xlink" x="0px" y="0px"
	 width="900px" height="450px" viewBox="0 0 900 450" enable-background="new 0 0 900 450" xml:space="preserve">
<g transform="matrix( 1, 0, 0, 1, 0,0) ">
	<g>
		<g id="Layer0_0_FILL">
			<path fill="#EECDB9" d="M276.247,295.123h-1.06H276.247c-0.296-2.58-0.649-5.248-1.06-8.001l-2.118-23.649
				c-8.707-12.237-20.943-14.158-36.71-5.766h-0.117l-2.589,13.647c-0.863,25.966,0.98,53.221,5.53,81.773v0.117
				c0.078,0.394,0.156,0.786,0.234,1.177c0.707,1.648,2.55,4.434,5.53,8.355c2.98,3.843,8.001,5.529,15.061,5.059
				c7.139-0.472,11.766-2.51,13.885-6.117c2.039-3.767,3.294-6.198,3.764-7.297c0.471-1.099,0.981-7.06,1.53-17.883
				C279.737,327.062,278.756,313.255,276.247,295.123 M269.775,339.715l1.646,12.708c-0.47,1.804-1.138,3.332-2,4.589
				c-2.587,3.923-6.627,5.725-12.119,5.412c-5.49-0.391-9.335-2.354-11.53-5.883c-0.706-1.255-1.216-2.629-1.529-4.118l0.353-12.825
				C253.067,335.44,261.46,335.479,269.775,339.715 M306.484,281.004l0.471,14.119h17.885l-5.647-26.004
				C311.74,266.766,307.504,270.728,306.484,281.004 M584.397,295.123c-1.806-2.668-2.001-10.198-0.588-22.592
				c-1.413-7.374-5.609-10.862-12.591-10.472l-8.236,33.063H584.397 M624.871,295.123h1.06H624.871
				c-2.326,19.417-2.248,38.713,0.236,57.888c0.078,0.472,0.156,0.942,0.234,1.411c0.862,1.807,1.765,3.413,2.707,4.826
				c3.923,5.727,8.98,8.746,15.179,9.059c6.508,0.313,11.883-2.785,16.118-9.295c0.864-1.411,1.648-2.941,2.354-4.59
				c0.078-0.391,0.156-0.783,0.234-1.177v-0.117c4.472-28.553,6.315-55.808,5.531-81.773l-2.707-13.647h-0.117
				c-15.767-8.393-28.004-6.472-36.709,5.766l-2.001,23.649C625.523,289.792,625.17,292.458,624.871,295.123 M656.876,352.423
				c-0.394,1.489-0.942,2.863-1.648,4.118c-2.196,3.529-6,5.492-11.412,5.883c-5.492,0.313-9.532-1.489-12.119-5.412
				c-0.864-1.257-1.567-2.785-2.119-4.589l1.647-12.708c5.021-3.452,13.414-3.488,25.18-0.117L656.876,352.423 M494.856,152.519
				c-33.884,5.491-70.516,5.648-109.893,0.471c-32.396,9.491-48.946,27.885-49.653,55.183l-6,86.951h96.952
				c4.863-11.219,5.687-20.002,2.47-26.355c3.216,6.354,2.393,15.137-2.47,26.355h41.77c-3.374-11.688-3.53-20.277-0.472-25.768
				c-3.059,5.49-2.902,14.08,0.472,25.768h94.95l-17.884-108.836C537.256,166.756,520.508,155.499,494.856,152.519 M418.968,282.649
				c-0.158,0.078-0.314,0.156-0.471,0.237c-10.825,3.607-20.081,5.49-27.768,5.646c-0.157,0-0.274,0-0.353,0
				c-10.198,0.078-17.806-2.864-22.827-8.825c-1.254,1.021-2.431,2.08-3.53,3.179c1.099-1.099,2.275-2.158,3.53-3.179
				c4.785-4.154,9.296-6.903,13.531-8.236c3.138-1.098,6.196-1.724,9.177-1.882c0.157,0,0.313,0,0.471,0
				c1.491-0.078,2.981,0.039,4.471,0.354c1.568,0.156,3.059,0.472,4.471,0.94c6.59,2.041,12.786,5.766,18.59,11.178
				c0.158,0.078,0.354,0.236,0.588,0.471L418.968,282.649c0.47,0.472,0.98,0.981,1.529,1.531
				C419.948,283.631,419.438,283.121,418.968,282.649 M423.438,252.059c-1.882,2.509-5.883,2.395-12.001-0.352
				c-8.314-3.61-13.648-5.532-16.001-5.767c-5.255-0.391-10.628-0.313-16.12,0.234c-5.569,0.552-9.688,1.453-12.354,2.708
				c-3.608,1.726-7.765,4.862-12.472,9.412c-2.902,2.666-5.569,3.374-8.002,2.119c9.492-13.963,20.787-21.809,33.887-23.532
				C393.866,235.076,408.221,240.136,423.438,252.059 M474.503,273.944c5.646-5.177,11.529-8.59,17.649-10.237
				c0.078-0.078,0.195-0.117,0.352-0.117s0.314,0,0.471,0c1.804-0.471,3.647-0.786,5.531-0.942
				c9.569-0.783,19.688,2.432,30.355,9.649h0.117c0.393,0.234,0.824,0.55,1.296,0.94c-0.472-0.391-0.903-0.706-1.296-0.94h-0.117
				c-10.668-7.218-20.786-10.433-30.355-9.649c-1.884,0.156-3.728,0.472-5.531,0.942c-0.156,0-0.314,0-0.471,0
				s-0.273,0.039-0.352,0.117C486.032,265.354,480.149,268.768,474.503,273.944 M493.446,267.708
				c0.234-0.078,0.432-0.156,0.588-0.234c1.647-0.394,3.295-0.589,4.94-0.589c0.708-0.078,1.414-0.078,2.119,0
				c2.902,0,5.844,0.433,8.824,1.294c0.078,0.078,0.234,0.156,0.472,0.234c5.255,1.647,10.667,4.551,16.235,8.708
				c0.393,0.234,0.744,0.471,1.06,0.705c0.549,0.393,1.099,0.825,1.647,1.294c-0.549-0.469-1.099-0.901-1.647-1.294
				c-0.315-0.234-0.667-0.471-1.06-0.705c-7.216,5.097-15.491,7.882-24.826,8.353h-0.117c-8.157,0.394-17.139-1.018-26.944-4.235
				l-1.528,1.648l1.528-1.648C480.306,273.944,486.543,269.434,493.446,267.708 M481.68,251.707
				c-6.117,2.746-10.157,2.86-12.12,0.352c15.296-11.923,29.691-16.982,43.183-15.177c13.1,1.724,24.394,9.569,33.885,23.532
				c-2.431,1.255-5.097,0.547-7.999-2.119c-4.707-4.55-8.864-7.687-12.472-9.412c-2.668-1.255-6.786-2.156-12.354-2.708
				c-5.492-0.547-10.865-0.625-16.12-0.234C495.328,246.175,489.994,248.097,481.68,251.707 M396.024,265.354
				c1.49,0.156,3.02,0.433,4.588,0.823c6.119,1.491,12.473,4.354,19.061,8.59c-6.588-4.235-12.942-7.099-19.061-8.59
				C399.043,265.787,397.514,265.511,396.024,265.354c-1.804-0.313-3.608-0.471-5.413-0.471c-0.078,0-0.156,0-0.234,0
				c-3.843,0-7.531,0.588-11.061,1.765c-5.255,1.647-10.237,4.472-14.943,8.473c-0.156,0.078-0.235,0.156-0.235,0.234
				c-1.491,1.177-2.901,2.471-4.235,3.884c1.334-1.413,2.745-2.707,4.235-3.884c0-0.078,0.079-0.156,0.235-0.234
				c4.706-4.001,9.688-6.825,14.943-8.473c3.53-1.177,7.217-1.765,11.061-1.765c0.078,0,0.156,0,0.234,0
				C392.416,264.884,394.22,265.042,396.024,265.354 M738.178,264.767l3.884,6.588c1.724,13.414,2.471,25.534,2.233,36.357
				c-0.156,10.824-0.469,18.826-0.939,24.003c-0.471,5.178-0.861,9.06-1.177,11.649l-0.236,2.821
				c8.236,8.158,16.904,7.846,26.005-0.939c1.176-1.177,2.39-2.512,3.646-4.001c0.393-1.567,0.705-3.217,0.94-4.94
				c1.254-8.08,2.001-17.769,2.235-29.063c0.472-13.414,0.117-25.375-1.06-35.887l-7.882-12.705
				c-1.489-0.472-2.902-0.786-4.235-0.942c-3.845-0.706-7.333-0.391-10.473,0.942L738.178,264.767 M757.592,344.658
				c-5.961,0.393-9.804-2.668-11.531-9.179l1.413-11.884c6.667-2.743,13.414-2.785,20.236-0.117l0.589,12.001
				c-0.628,2.902-1.805,5.139-3.53,6.708C762.965,343.677,760.572,344.499,757.592,344.658 M710.057,257.118l-7.882,6.825
				c1.804,13.412,2.509,27.924,2.116,43.534c-0.313,10.746-1.177,23.767-2.588,39.063l2.236,0.354l-2.236-0.236
				c-0.313,2.902-0.588,5.963-0.822,9.178l1.294,0.118c7.765,6.432,15.804,9.215,24.12,8.353
				c8.393-0.861,12.981-4.706,13.766-11.529c0.158-1.333,0.51-2.395,1.059-3.178c0.313-0.862,0.589-1.999,0.823-3.413l0.236-2.821
				c0.315-2.59,0.706-6.472,1.177-11.649c0.471-5.177,0.783-13.179,0.939-24.003c0.237-10.823-0.51-22.943-2.233-36.357
				l-3.884-6.588l-6-5.529C727.706,254.453,720.331,253.745,710.057,257.118 M707.47,347.128l1.647-12.708
				c6.981-4.313,15.374-4.353,25.177-0.117l0.354,12.825c-1.411,6.195-5.766,9.53-13.06,10.001
				C714.292,357.52,709.586,354.188,707.47,347.128 M702.175,263.943L696.88,255c-9.884-5.727-20.239-5.727-31.063,0l-1.06,2.707
				l2.707,13.647c0.784,25.966-1.06,53.221-5.531,81.773v0.117c-0.078,0.394-0.156,0.786-0.234,1.177v10.473
				c9.413,14.434,22.043,15.335,37.886,2.707c0.156-2.119,0.393-4.157,0.708-6.12l-5.649-0.588
				c-1.41,6.119-5.727,9.376-12.942,9.767c-7.372,0.471-12.12-2.785-14.236-9.767l1.647-12.706
				c6.353-3.767,14.744-3.803,25.178-0.117l0.354,12.823l5.649,0.354c0.156-1.804,0.352-3.607,0.588-5.412
				c0.234-3.215,0.51-6.275,0.822-9.178v-0.117c1.411-15.296,2.275-28.316,2.588-39.063
				C704.684,291.867,703.979,277.355,702.175,263.943 M139.407,257.707c-8.236,5.648-12.275,10.198-12.119,13.647
				c-1.176,10.512-1.529,22.473-1.058,35.887c0.234,11.295,0.98,20.983,2.235,29.063c0.313,1.724,0.627,3.373,0.941,4.94
				c1.256,1.489,2.472,2.824,3.648,4.001c9.177,8.785,17.884,9.098,26.121,0.939l-0.354-2.821c-0.234-2.59-0.47-5.258-0.706-8.002
				c-0.549-8.236-0.824-17.571-0.824-28.004c0-13.963,0.549-25.964,1.647-36.004l4-6.588l-12.942-6.117
				C146.781,257.316,143.251,257.001,139.407,257.707 M136.231,342.188c-1.726-1.569-2.863-3.806-3.413-6.708l0.471-12.001
				c5.569-3.451,12.314-3.412,20.236,0.117l1.413,11.884c-1.726,6.511-5.569,9.571-11.531,9.179
				C140.428,344.499,138.036,343.677,136.231,342.188 M191.061,257.118c-12.315-1.882-19.728-1.177-22.238,2.119l-5.883,5.529
				l-4,6.588c-1.098,10.04-1.647,22.041-1.647,36.004c0,10.433,0.274,19.768,0.824,28.004c0.236,2.744,0.471,5.412,0.706,8.002
				l0.354,2.821c0.156,1.414,0.392,2.551,0.706,3.413c0.549,0.783,0.941,1.845,1.176,3.178c5.805,6.903,12.041,10.274,18.708,10.118
				c6.588-0.314,12.981-2.626,19.178-6.941l1.294-0.118c-0.314-3.215-0.627-6.275-0.941-9.178l-2.236,0.236l2.236-0.354
				c-1.412-15.296-2.236-28.316-2.471-39.063c-0.471-15.61,0.234-30.122,2.118-43.534L191.061,257.118 M166.352,347.128
				l0.471-12.825c7.138-3.529,15.53-3.49,25.178,0.117l1.648,12.708c-2.118,7.06-6.864,10.392-14.238,10.001
				C172.196,356.658,167.842,353.323,166.352,347.128 M233.653,271.354l2.589-13.647l-1.06-2.707c-7.06-5.883-17.413-5.883-31.063,0
				l-5.176,8.943c-1.883,13.412-2.588,27.924-2.118,43.534c0.234,10.746,1.059,23.767,2.471,39.063v0.117
				c0.313,2.902,0.627,5.963,0.941,9.178c0.157,1.805,0.353,3.608,0.588,5.412l5.53-0.354l0.353-12.823
				c7.766-3.607,16.159-3.571,25.18,0.117l1.765,12.706c-2.117,6.981-6.864,10.237-14.237,9.767
				c-7.216-0.391-11.569-3.647-13.06-9.767l-5.53,0.588c0.235,1.963,0.471,4.001,0.707,6.12
				c13.491,14.668,25.217,14.746,35.18,0.234l2.706-13.414c-0.078-0.391-0.156-0.783-0.234-1.177v-0.117
				C234.634,324.575,232.791,297.32,233.653,271.354z"/>
			<path fill="#F2DBCC" d="M271.422,352.423l-1.646-12.708c-8.315-4.235-16.708-4.274-25.18-0.117l-0.353,12.825
				c0.313,1.489,0.824,2.863,1.529,4.118c2.195,3.529,6.04,5.492,11.53,5.883c5.491,0.313,9.531-1.489,12.119-5.412
				C270.284,355.755,270.952,354.227,271.422,352.423 M655.228,356.541c0.706-1.255,1.255-2.629,1.648-4.118l-0.472-12.825
				c-11.766-3.371-20.158-3.335-25.18,0.117l-1.647,12.708c0.552,1.804,1.255,3.332,2.119,4.589
				c2.587,3.923,6.627,5.725,12.119,5.412C649.228,362.033,653.031,360.07,655.228,356.541 M694.644,360.894l-0.354-12.823
				c-10.434-3.686-18.825-3.649-25.178,0.117l-1.647,12.706c2.116,6.981,6.864,10.237,14.236,9.767
				C688.917,370.27,693.233,367.013,694.644,360.894 M746.061,335.479c1.728,6.511,5.57,9.571,11.531,9.179
				c2.98-0.159,5.373-0.981,7.177-2.471c1.726-1.569,2.902-3.806,3.53-6.708l-0.589-12.001c-6.822-2.668-13.569-2.626-20.236,0.117
				L746.061,335.479 M709.117,334.42l-1.647,12.708c2.116,7.06,6.822,10.392,14.119,10.001c7.294-0.471,11.648-3.806,13.06-10.001
				l-0.354-12.825C724.491,330.067,716.099,330.106,709.117,334.42 M206.709,348.07l-0.353,12.823
				c1.49,6.119,5.844,9.376,13.06,9.767c7.373,0.471,12.12-2.785,14.237-9.767l-1.765-12.706
				C222.868,344.499,214.475,344.463,206.709,348.07 M132.819,335.479c0.549,2.902,1.687,5.139,3.413,6.708
				c1.804,1.489,4.196,2.312,7.177,2.471c5.961,0.393,9.805-2.668,11.531-9.179l-1.413-11.884
				c-7.922-3.529-14.667-3.568-20.236-0.117L132.819,335.479 M166.823,334.303l-0.471,12.825c1.49,6.195,5.844,9.53,13.06,10.001
				c7.374,0.391,12.12-2.941,14.238-10.001l-1.648-12.708C182.353,330.813,173.961,330.773,166.823,334.303z"/>
			<path fill="#9A6243" d="M469.56,252.059c1.963,2.509,6.003,2.395,12.12-0.352c8.314-3.61,13.648-5.532,16.002-5.767
				c5.255-0.391,10.628-0.313,16.12,0.234c5.568,0.552,9.687,1.453,12.354,2.708c3.607,1.726,7.765,4.862,12.472,9.412
				c2.902,2.666,5.568,3.374,7.999,2.119c-9.491-13.963-20.785-21.809-33.885-23.532
				C499.251,235.076,484.855,240.136,469.56,252.059 M411.437,251.707c6.118,2.746,10.119,2.86,12.001,0.352
				c-15.218-11.923-29.572-16.982-43.063-15.177c-13.1,1.724-24.395,9.569-33.887,23.532c2.433,1.255,5.1,0.547,8.002-2.119
				c4.707-4.55,8.864-7.687,12.472-9.412c2.667-1.255,6.785-2.156,12.354-2.708c5.491-0.547,10.864-0.625,16.12-0.234
				C397.789,246.175,403.123,248.097,411.437,251.707 M569.925,145.577c-15.608-31.141-39.966-53.535-73.066-67.184
				c-42.516-11.922-81.107-9.766-115.777,6.471c-32.004,14.041-52.555,35.103-61.654,63.184
				c-12.707,23.375-16.354,47.377-10.942,72.008l10.708,49.063l5.647,26.004h4.471l6-86.951
				c0.707-27.297,17.257-45.692,49.653-55.183c39.377,5.177,76.009,5.02,109.893-0.471c25.651,2.98,42.399,14.237,50.242,33.769
				l17.884,108.836l8.236-33.063l8.119-33.063C582.396,203.427,579.26,175.62,569.925,145.577z"/>
			<path fill="#EDE8DC" d="M510.39,268.413c1.018,1.569,1.528,3.374,1.528,5.412c0,2.824-1.021,5.217-3.06,7.179
				c-1.96,2.039-4.353,3.059-7.177,3.059l0.117,1.411c9.335-0.471,17.61-3.256,24.826-8.353
				C521.057,272.964,515.645,270.061,510.39,268.413 M491.446,273.825c0-2.354,0.667-4.392,2-6.117
				c-6.903,1.726-13.141,6.236-18.709,13.53c9.806,3.218,18.787,4.629,26.944,4.235v-1.411c-2.902,0-5.333-1.02-7.294-3.059
				C492.426,279.042,491.446,276.649,491.446,273.825 M390.376,288.533l0.117-2.942c-2.824,0-5.255-0.979-7.295-2.941
				c-1.96-1.96-2.942-4.392-2.942-7.294c0-1.489,0.275-2.785,0.824-3.884c-4.235,1.333-8.747,4.082-13.531,8.236
				C372.57,285.669,380.179,288.611,390.376,288.533 M418.497,282.887l0.353-0.354c-0.234-0.234-0.431-0.393-0.588-0.471
				c-5.804-5.412-12-9.137-18.59-11.178c0.707,1.333,1.06,2.824,1.06,4.472c0,2.902-0.981,5.334-2.941,7.294
				c-2.04,1.963-4.471,2.941-7.295,2.941l0.235,2.942C398.416,288.377,407.671,286.494,418.497,282.887z"/>
			<path fill="#88A4E3" d="M493.446,267.708c-1.333,1.726-2,3.764-2,6.117c0,2.824,0.979,5.217,2.941,7.179
				c1.961,2.039,4.392,3.059,7.294,3.059c2.824,0,5.217-1.02,7.177-3.059c2.039-1.962,3.06-4.354,3.06-7.179
				c0-2.038-0.511-3.843-1.528-5.412c-0.237-0.078-0.394-0.156-0.472-0.234c-2.98-0.861-5.922-1.294-8.824-1.294
				c-0.705-0.078-1.411-0.078-2.119,0c-1.646,0-3.293,0.195-4.94,0.589C493.878,267.552,493.681,267.63,493.446,267.708
				 M504.741,269.707c0.941,1.021,1.413,2.197,1.413,3.53c0,1.413-0.472,2.629-1.413,3.649c-1.019,1.02-2.236,1.527-3.647,1.527
				c-1.333,0-2.471-0.508-3.412-1.527c-1.019-1.021-1.528-2.236-1.528-3.649c0-1.333,0.51-2.51,1.528-3.53
				c0.941-1.021,2.079-1.528,3.412-1.528C502.505,268.179,503.723,268.687,504.741,269.707 M395.2,269.943
				c-1.49-0.314-2.98-0.432-4.471-0.354c-0.157,0-0.313,0-0.471,0c-2.981,0.158-6.04,0.784-9.177,1.882
				c-0.549,1.099-0.824,2.395-0.824,3.884c0,2.902,0.981,5.334,2.942,7.294c2.04,1.963,4.471,2.941,7.295,2.941
				s5.255-0.979,7.295-2.941c1.96-1.96,2.941-4.392,2.941-7.294c0-1.647-0.353-3.139-1.06-4.472
				C398.259,270.415,396.769,270.1,395.2,269.943 M390.376,270.884c1.411,0,2.587,0.51,3.53,1.53
				c1.019,1.021,1.529,2.197,1.529,3.53c0,1.411-0.51,2.629-1.529,3.646c-0.942,0.942-2.119,1.413-3.53,1.413
				c-1.412,0-2.589-0.471-3.53-1.413c-0.942-1.018-1.412-2.235-1.412-3.646c0-1.333,0.47-2.51,1.412-3.53
				C387.866,271.394,389.042,270.884,390.376,270.884z"/>
			<path d="M506.154,273.237c0-1.333-0.472-2.51-1.413-3.53c-1.019-1.021-2.236-1.528-3.647-1.528c-1.333,0-2.471,0.508-3.412,1.528
				c-1.019,1.021-1.528,2.197-1.528,3.53c0,1.413,0.51,2.629,1.528,3.649c0.941,1.02,2.079,1.527,3.412,1.527
				c1.411,0,2.629-0.508,3.647-1.527C505.683,275.866,506.154,274.65,506.154,273.237 M393.906,272.414
				c-0.942-1.021-2.119-1.53-3.53-1.53c-1.334,0-2.511,0.51-3.53,1.53c-0.942,1.021-1.412,2.197-1.412,3.53
				c0,1.411,0.47,2.629,1.412,3.646c0.941,0.942,2.118,1.413,3.53,1.413c1.411,0,2.587-0.471,3.53-1.413
				c1.019-1.018,1.529-2.235,1.529-3.646C395.436,274.611,394.925,273.435,393.906,272.414z"/>
		</g>
	</g>
	<g>
		<path id="Layer0_0_1_STROKES" fill="none" stroke="#000000" stroke-width="2" stroke-linecap="round" stroke-linejoin="round" d="
			M571.219,262.06l8.119-33.063c3.059-25.57-0.078-53.377-9.413-83.42c-15.608-31.141-39.966-53.535-73.066-67.184
			c-42.516-11.922-81.107-9.766-115.777,6.471c-32.004,14.041-52.555,35.103-61.654,63.184
			c-12.707,23.375-16.354,47.377-10.942,72.008l10.708,49.063l5.647,26.004h4.471l6-86.951
			c0.707-27.297,17.257-45.692,49.653-55.183c39.377,5.177,76.009,5.02,109.893-0.471c25.651,2.98,42.399,14.237,50.242,33.769
			l17.884,108.836L571.219,262.06c6.981-0.391,11.178,3.098,12.591,10.472c-1.413,12.394-1.218,19.924,0.588,22.592h40.474
			c0.299-2.665,0.652-5.331,1.06-8.001l2.001-23.649c8.705-12.237,20.942-14.158,36.709-5.766h0.117l1.06-2.707
			c10.823-5.727,21.179-5.727,31.063,0l5.295,8.943l7.882-6.825c10.274-3.373,17.649-2.665,22.121,2.119l6,5.529l12.942-6.117
			c3.14-1.333,6.628-1.648,10.473-0.942c1.333,0.156,2.746,0.471,4.235,0.942l7.882,12.705c1.177,10.512,1.531,22.473,1.06,35.887
			c-0.234,11.295-0.981,20.983-2.235,29.063c-0.235,1.724-0.548,3.373-0.94,4.94c-1.257,1.489-2.471,2.824-3.646,4.001
			c-9.101,8.785-17.769,9.098-26.005,0.939c-0.234,1.414-0.511,2.551-0.823,3.413c-0.549,0.783-0.9,1.845-1.059,3.178
			c-0.784,6.823-5.373,10.668-13.766,11.529c-8.316,0.862-16.355-1.921-24.12-8.353 M700.881,355.835
			c-0.236,1.805-0.432,3.608-0.588,5.412c0,0.078,0,0.156,0,0.234c-0.315,1.963-0.552,4.001-0.708,6.12
			c-15.843,12.628-28.473,11.727-37.886-2.707v-10.473c-0.705,1.648-1.489,3.179-2.354,4.59c-4.235,6.51-9.61,9.607-16.118,9.295
			c-6.198-0.313-11.256-3.332-15.179-9.059c-0.942-1.413-1.845-3.02-2.707-4.826c-0.078-0.469-0.156-0.939-0.234-1.411
			c-2.484-19.175-2.563-38.471-0.236-57.888h1.06 M418.497,282.887c0.157-0.081,0.313-0.159,0.471-0.237l-0.119-0.117
			 M418.497,282.887c-10.825,3.607-20.081,5.49-27.768,5.646c-0.157,0-0.274,0-0.353,0c-10.198,0.078-17.806-2.864-22.827-8.825
			c-1.254,1.021-2.431,2.08-3.53,3.179 M418.968,282.649c0.47,0.472,0.98,0.981,1.529,1.531 M418.849,282.532
			c-0.234-0.234-0.431-0.393-0.588-0.471c-5.804-5.412-12-9.137-18.59-11.178c0.707,1.333,1.06,2.824,1.06,4.472
			c0,2.902-0.981,5.334-2.941,7.294c-2.04,1.963-4.471,2.941-7.295,2.941 M428.733,268.768c3.216,6.354,2.393,15.137-2.47,26.355
			h41.77c-3.374-11.688-3.53-20.277-0.472-25.768 M379.316,246.175c-5.569,0.552-9.688,1.453-12.354,2.708
			c-3.608,1.726-7.765,4.862-12.472,9.412c-2.902,2.666-5.569,3.374-8.002,2.119c9.492-13.963,20.787-21.809,33.887-23.532
			c13.491-1.806,27.845,3.254,43.063,15.177c-1.882,2.509-5.883,2.395-12.001-0.352c-8.314-3.61-13.648-5.532-16.001-5.767
			C390.18,245.55,384.807,245.628,379.316,246.175z M501.682,284.063c-2.902,0-5.333-1.02-7.294-3.059
			c-1.962-1.962-2.941-4.354-2.941-7.179c0-2.354,0.667-4.392,2-6.117c-6.903,1.726-13.141,6.236-18.709,13.53
			c9.806,3.218,18.787,4.629,26.944,4.235 M501.682,284.063c2.824,0,5.217-1.02,7.177-3.059c2.039-1.962,3.06-4.354,3.06-7.179
			c0-2.038-0.511-3.843-1.528-5.412c-0.237-0.078-0.394-0.156-0.472-0.234c-2.98-0.861-5.922-1.294-8.824-1.294
			c-0.705-0.078-1.411-0.078-2.119,0c-1.646,0-3.293,0.195-4.94,0.589c-0.156,0.078-0.354,0.156-0.588,0.234 M474.737,281.238
			l-1.528,1.648 M538.628,258.295c-4.707-4.55-8.864-7.687-12.472-9.412c-2.668-1.255-6.786-2.156-12.354-2.708
			c-5.492-0.547-10.865-0.625-16.12-0.234c-2.354,0.234-7.688,2.156-16.002,5.767c-6.117,2.746-10.157,2.86-12.12,0.352
			c15.296-11.923,29.691-16.982,43.183-15.177c13.1,1.724,24.394,9.569,33.885,23.532
			C544.196,261.669,541.53,260.961,538.628,258.295z M319.192,269.119c-7.453-2.354-11.688,1.608-12.708,11.885l0.471,14.119h17.885
			 M399.671,270.884c-1.412-0.469-2.902-0.784-4.471-0.94c-1.49-0.314-2.98-0.432-4.471-0.354c-0.157,0-0.313,0-0.471,0
			c-2.981,0.158-6.04,0.784-9.177,1.882c-0.549,1.099-0.824,2.395-0.824,3.884c0,2.902,0.981,5.334,2.942,7.294
			c2.04,1.963,4.471,2.941,7.295,2.941 M381.081,271.472c-4.235,1.333-8.747,4.082-13.531,8.236 M329.311,295.123h96.952
			 M275.187,295.123h1.118c-0.335-2.58-0.708-5.248-1.118-8.001l-2.118-23.649c-8.707-12.237-20.943-14.158-36.71-5.766h-0.117
			l-2.589,13.647c-0.863,25.966,0.98,53.221,5.53,81.773v0.117c0.078,0.394,0.156,0.786,0.234,1.177
			c0.707,1.648,2.55,4.434,5.53,8.355c2.98,3.843,8.001,5.529,15.061,5.059c7.139-0.472,11.766-2.51,13.885-6.117
			c2.039-3.767,3.294-6.198,3.764-7.297c0.471-1.099,0.981-7.06,1.53-17.883c0.549-9.478-0.413-23.284-2.883-41.416h30.65
			 M236.242,257.707l-1.06-2.707c-7.06-5.883-17.413-5.883-31.063,0l-5.176,8.943c-1.883,13.412-2.588,27.924-2.118,43.534
			c0.234,10.746,1.059,23.767,2.471,39.063v0.117c0.313,2.902,0.627,5.963,0.941,9.178c0.157,1.805,0.353,3.608,0.588,5.412
			 M200.826,361.481c0.235,1.963,0.471,4.001,0.707,6.12c13.491,14.668,25.217,14.746,35.18,0.234l2.706-13.414 M198.944,263.943
			l-7.883-6.825c-12.315-1.882-19.728-1.177-22.238,2.119l-5.883,5.529l-4,6.588c-1.098,10.04-1.647,22.041-1.647,36.004
			c0,10.433,0.274,19.768,0.824,28.004c0.236,2.744,0.471,5.412,0.706,8.002l0.354,2.821c0.156,1.414,0.392,2.551,0.706,3.413
			c0.549,0.783,0.941,1.845,1.176,3.178c5.805,6.903,12.041,10.274,18.708,10.118c6.588-0.314,12.981-2.626,19.178-6.941
			 M159.175,346.186c-8.236,8.158-16.943,7.846-26.121-0.939c-1.177-1.177-2.393-2.512-3.648-4.001
			c-0.313-1.567-0.627-3.217-0.941-4.94c-1.255-8.08-2-17.769-2.235-29.063c-0.471-13.414-0.118-25.375,1.058-35.887
			c-0.156-3.449,3.883-7.999,12.119-13.647c3.844-0.706,7.374-0.391,10.59,0.942l12.942,6.117 M200.826,361.247
			c0,0.078,0,0.156,0,0.234 M741.942,346.186l0.236-2.821c0.315-2.59,0.706-6.472,1.177-11.649
			c0.471-5.177,0.783-13.179,0.939-24.003c0.237-10.823-0.51-22.943-2.233-36.357l-3.884-6.588 M700.881,355.835
			c0.234-3.215,0.51-6.275,0.822-9.178v-0.117 M702.175,263.943c1.804,13.412,2.509,27.924,2.116,43.534
			c-0.313,10.746-1.177,23.767-2.588,39.063 M664.758,257.707l2.707,13.647c0.784,25.966-1.06,53.221-5.531,81.773v0.117
			c-0.078,0.394-0.156,0.786-0.234,1.177 M501.799,285.474c9.335-0.471,17.61-3.256,24.826-8.353
			c-5.568-4.157-10.98-7.061-16.235-8.708 M501.799,285.474h-0.117 M526.625,277.121c0.393,0.234,0.744,0.471,1.06,0.705
			c0.549,0.393,1.099,0.825,1.647,1.294 M584.397,295.123h-21.415h-94.95"/>
	</g>
	<g>
		<path id="Layer0_0_2_STROKES" fill="none" stroke="#000000" stroke-linecap="round" stroke-linejoin="round" d="M474.503,273.944
			c5.646-5.177,11.529-8.59,17.649-10.237c0.078-0.078,0.195-0.117,0.352-0.117s0.314,0,0.471,0
			c1.804-0.471,3.647-0.786,5.531-0.942c9.569-0.783,19.688,2.432,30.355,9.649h0.117c0.393,0.234,0.824,0.55,1.296,0.94
			 M359.902,279.239c1.334-1.413,2.745-2.707,4.235-3.884c0-0.078,0.079-0.156,0.235-0.234c4.706-4.001,9.688-6.825,14.943-8.473
			c3.53-1.177,7.217-1.765,11.061-1.765c0.078,0,0.156,0,0.234,0c1.805,0,3.609,0.158,5.413,0.471
			c1.49,0.156,3.02,0.433,4.588,0.823c6.119,1.491,12.473,4.354,19.061,8.59 M206.356,360.894l0.353-12.823
			c7.766-3.607,16.159-3.571,25.18,0.117l1.765,12.706c-2.117,6.981-6.864,10.237-14.237,9.767
			C212.2,370.27,207.847,367.013,206.356,360.894z M193.649,347.128c-2.118,7.06-6.864,10.392-14.238,10.001
			c-7.216-0.471-11.569-3.806-13.06-10.001l0.471-12.825c7.138-3.529,15.53-3.49,25.178,0.117L193.649,347.128z M153.526,323.596
			c-7.922-3.529-14.667-3.568-20.236-0.117l-0.471,12.001c0.549,2.902,1.687,5.139,3.413,6.708c1.804,1.489,4.196,2.312,7.177,2.471
			c5.961,0.393,9.805-2.668,11.531-9.179L153.526,323.596z M269.775,339.715c-8.315-4.235-16.708-4.274-25.18-0.117l-0.353,12.825
			c0.313,1.489,0.824,2.863,1.529,4.118c2.195,3.529,6.04,5.492,11.53,5.883c5.491,0.313,9.531-1.489,12.119-5.412
			c0.863-1.257,1.531-2.785,2-4.589L269.775,339.715z M767.71,323.479c-6.822-2.668-13.569-2.626-20.236,0.117l-1.413,11.884
			c1.728,6.511,5.57,9.571,11.531,9.179c2.98-0.159,5.373-0.981,7.177-2.471c1.726-1.569,2.902-3.806,3.53-6.708L767.71,323.479z
			 M734.648,347.128l-0.354-12.825c-9.803-4.235-18.195-4.196-25.177,0.117l-1.647,12.708c2.116,7.06,6.822,10.392,14.119,10.001
			C728.883,356.658,733.237,353.323,734.648,347.128z M694.644,360.894l-0.354-12.823c-10.434-3.686-18.825-3.649-25.178,0.117
			l-1.647,12.706c2.116,6.981,6.864,10.237,14.236,9.767C688.917,370.27,693.233,367.013,694.644,360.894z M656.404,339.598
			c-11.766-3.371-20.158-3.335-25.18,0.117l-1.647,12.708c0.552,1.804,1.255,3.332,2.119,4.589
			c2.587,3.923,6.627,5.725,12.119,5.412c5.412-0.391,9.216-2.354,11.412-5.883c0.706-1.255,1.255-2.629,1.648-4.118
			L656.404,339.598z"/>
	</g>
</g>
</svg>
