<svg xmlns="http://www.w3.org/2000/svg" width="900" height="450" viewBox="0 0 900 450"><path fill="#EECDB9" d="M276.247 295.123h-1.06 1.06c-.296-2.58-.649-5.248-1.06-8.001l-2.118-23.649c-8.707-12.237-20.943-14.158-36.71-5.766h-.117l-2.589 13.647c-.863 25.966.98 53.221 5.53 81.773v.117l.234 1.177c.707 1.648 2.55 4.434 5.53 8.355 2.98 3.843 8.001 5.529 15.061 5.059 7.139-.472 11.766-2.51 13.885-6.117 2.039-3.767 3.294-6.198 3.764-7.297.471-1.099.981-7.06 1.53-17.883.55-9.476-.431-23.283-2.94-41.415m-6.472 44.592l1.646 12.708c-.47 1.804-1.138 3.332-2 4.589-2.587 3.923-6.627 5.725-12.119 5.412-5.49-.391-9.335-2.354-11.53-5.883a14.379 14.379 0 0 1-1.529-4.118l.353-12.825c8.471-4.158 16.864-4.119 25.179.117m36.709-58.711l.471 14.119h17.885l-5.647-26.004c-7.453-2.353-11.689 1.609-12.709 11.885m277.913 14.119c-1.806-2.668-2.001-10.198-.588-22.592-1.413-7.374-5.609-10.862-12.591-10.472l-8.236 33.063h21.415m40.474.001h1.06-1.06c-2.326 19.417-2.248 38.713.236 57.888l.234 1.411c.862 1.807 1.765 3.413 2.707 4.826 3.923 5.727 8.98 8.746 15.179 9.059 6.508.313 11.883-2.785 16.118-9.295a35.625 35.625 0 0 0 2.354-4.59l.234-1.177v-.117c4.472-28.553 6.315-55.808 5.531-81.773l-2.707-13.647h-.117c-15.767-8.393-28.004-6.472-36.709 5.766l-2.001 23.649c-.407 2.669-.76 5.335-1.059 8m32.005 57.3a17.479 17.479 0 0 1-1.648 4.118c-2.196 3.529-6 5.492-11.412 5.883-5.492.313-9.532-1.489-12.119-5.412-.864-1.257-1.567-2.785-2.119-4.589l1.647-12.708c5.021-3.452 13.414-3.488 25.18-.117l.471 12.825m-162.02-199.904c-33.884 5.491-70.516 5.648-109.893.471-32.396 9.491-48.946 27.885-49.653 55.183l-6 86.951h96.952c4.863-11.219 5.687-20.002 2.47-26.355 3.216 6.354 2.393 15.137-2.47 26.355h41.77c-3.374-11.688-3.53-20.277-.472-25.768-3.059 5.49-2.902 14.08.472 25.768h94.95l-17.884-108.836c-7.842-19.532-24.59-30.789-50.242-33.769m-75.888 130.13c-.158.078-.314.156-.471.237-10.825 3.607-20.081 5.49-27.768 5.646h-.353c-10.198.078-17.806-2.864-22.827-8.825 4.785-4.154 9.296-6.903 13.531-8.236 3.138-1.098 6.196-1.724 9.177-1.882h.471a17.184 17.184 0 0 1 4.471.354 20.68 20.68 0 0 1 4.471.94c6.59 2.041 12.786 5.766 18.59 11.178.158.078.354.236.588.471l.12.117 1.529 1.531-1.529-1.531m4.47-30.59c-1.882 2.509-5.883 2.395-12.001-.352-8.314-3.61-13.648-5.532-16.001-5.767-5.255-.391-10.628-.313-16.12.234-5.569.552-9.688 1.453-12.354 2.708-3.608 1.726-7.765 4.862-12.472 9.412-2.902 2.666-5.569 3.374-8.002 2.119 9.492-13.963 20.787-21.809 33.887-23.532 13.491-1.805 27.846 3.255 43.063 15.178m51.065 21.885c5.646-5.177 11.529-8.59 17.649-10.237.078-.078.195-.117.352-.117h.471a32.45 32.45 0 0 1 5.531-.942c9.569-.783 19.688 2.432 30.355 9.649h.117-.117c-10.668-7.218-20.786-10.433-30.355-9.649a32.532 32.532 0 0 0-5.531.942h-.471c-.157 0-.273.039-.352.117-6.12 1.647-12.003 5.061-17.649 10.237m18.943-6.236a4.6 4.6 0 0 0 .588-.234 21.173 21.173 0 0 1 4.94-.589 9.624 9.624 0 0 1 2.119 0c2.902 0 5.844.433 8.824 1.294.078.078.234.156.472.234 5.255 1.647 10.667 4.551 16.235 8.708a12.496 12.496 0 0 0 0 0c-7.216 5.097-15.491 7.882-24.826 8.353h-.117c-8.157.394-17.139-1.018-26.944-4.235l-1.528 1.648 1.528-1.648c5.569-7.295 11.806-11.805 18.709-13.531m-11.766-16.001c-6.117 2.746-10.157 2.86-12.12.352 15.296-11.923 29.691-16.982 43.183-15.177 13.1 1.724 24.394 9.569 33.885 23.532-2.431 1.255-5.097.547-7.999-2.119-4.707-4.55-8.864-7.687-12.472-9.412-2.668-1.255-6.786-2.156-12.354-2.708-5.492-.547-10.865-.625-16.12-.234-2.355.234-7.689 2.156-16.003 5.766m-85.656 13.647c1.49.156 3.02.433 4.588.823 6.119 1.491 12.473 4.354 19.061 8.59-6.588-4.235-12.942-7.099-19.061-8.59a33.652 33.652 0 0 0-4.588-.823 31.608 31.608 0 0 0-5.413-.471h-.234c-3.843 0-7.531.588-11.061 1.765-5.255 1.647-10.237 4.472-14.943 8.473-.156.078-.235.156-.235.234 0-.078.079-.156.235-.234 4.706-4.001 9.688-6.825 14.943-8.473 3.53-1.177 7.217-1.765 11.061-1.765h.234a31.81 31.81 0 0 1 5.413.471m342.154-.587l3.884 6.588c1.724 13.414 2.471 25.534 2.233 36.357-.156 10.824-.469 18.826-.939 24.003-.471 5.178-.861 9.06-1.177 11.649l-.236 2.821c8.236 8.158 16.904 7.846 26.005-.939a64.603 64.603 0 0 0 3.646-4.001c.393-1.567.705-3.217.94-4.94 1.254-8.08 2.001-17.769 2.235-29.063.472-13.414.117-25.375-1.06-35.887l-7.882-12.705c-1.489-.472-2.902-.786-4.235-.942-3.845-.706-7.333-.391-10.473.942l-12.941 6.117m19.414 79.891c-5.961.393-9.804-2.668-11.531-9.179l1.413-11.884c6.667-2.743 13.414-2.785 20.236-.117l.589 12.001c-.628 2.902-1.805 5.139-3.53 6.708-1.804 1.49-4.197 2.312-7.177 2.471m-47.535-87.54l-7.882 6.825c1.804 13.412 2.509 27.924 2.116 43.534-.313 10.746-1.177 23.767-2.588 39.063l2.236.354-2.236-.236a265.355 265.355 0 0 0-.822 9.178l1.294.118c7.765 6.432 15.804 9.215 24.12 8.353 8.393-.861 12.981-4.706 13.766-11.529.158-1.333.51-2.395 1.059-3.178.313-.862.589-1.999.823-3.413l.236-2.821c.315-2.59.706-6.472 1.177-11.649.471-5.177.783-13.179.939-24.003.237-10.823-.51-22.943-2.233-36.357l-3.884-6.588-6-5.529c-4.472-4.787-11.847-5.495-22.121-2.122m-2.587 90.01l1.647-12.708c6.981-4.313 15.374-4.353 25.177-.117l.354 12.825c-1.411 6.195-5.766 9.53-13.06 10.001-7.296.391-12.002-2.941-14.118-10.001m-5.295-83.185L696.88 255c-9.884-5.727-20.239-5.727-31.063 0l-1.06 2.707 2.707 13.647c.784 25.966-1.06 53.221-5.531 81.773v.117l-.234 1.177v10.473c9.413 14.434 22.043 15.335 37.886 2.707a71.95 71.95 0 0 1 .708-6.12l-5.649-.588c-1.41 6.119-5.727 9.376-12.942 9.767-7.372.471-12.12-2.785-14.236-9.767l1.647-12.706c6.353-3.767 14.744-3.803 25.178-.117l.354 12.823 5.649.354c.156-1.804.352-3.607.588-5.412.234-3.215.51-6.275.822-9.178v-.117c1.411-15.296 2.275-28.316 2.588-39.063.392-15.61-.313-30.122-2.117-43.534m-562.768-6.236c-8.236 5.648-12.275 10.198-12.119 13.647-1.176 10.512-1.529 22.473-1.058 35.887.234 11.295.98 20.983 2.235 29.063.313 1.724.627 3.373.941 4.94a64.602 64.602 0 0 0 3.648 4.001c9.177 8.785 17.884 9.098 26.121.939l-.354-2.821c-.234-2.59-.47-5.258-.706-8.002-.549-8.236-.824-17.571-.824-28.004 0-13.963.549-25.964 1.647-36.004l4-6.588-12.942-6.117c-3.215-1.332-6.745-1.647-10.589-.941m-3.176 84.481c-1.726-1.569-2.863-3.806-3.413-6.708l.471-12.001c5.569-3.451 12.314-3.412 20.236.117l1.413 11.884c-1.726 6.511-5.569 9.571-11.531 9.179-2.979-.16-5.371-.982-7.176-2.471m54.83-85.07c-12.315-1.882-19.728-1.177-22.238 2.119l-5.883 5.529-4 6.588c-1.098 10.04-1.647 22.041-1.647 36.004 0 10.433.274 19.768.824 28.004.236 2.744.471 5.412.706 8.002l.354 2.821c.156 1.414.392 2.551.706 3.413.549.783.941 1.845 1.176 3.178 5.805 6.903 12.041 10.274 18.708 10.118 6.588-.314 12.981-2.626 19.178-6.941l1.294-.118a891.081 891.081 0 0 0-.941-9.178l-2.236.236 2.236-.354c-1.412-15.296-2.236-28.316-2.471-39.063-.471-15.61.234-30.122 2.118-43.534l-7.884-6.824m-24.709 90.01l.471-12.825c7.138-3.529 15.53-3.49 25.178.117l1.648 12.708c-2.118 7.06-6.864 10.392-14.238 10.001-7.215-.471-11.569-3.806-13.059-10.001m67.301-75.774l2.589-13.647-1.06-2.707c-7.06-5.883-17.413-5.883-31.063 0l-5.176 8.943c-1.883 13.412-2.588 27.924-2.118 43.534.234 10.746 1.059 23.767 2.471 39.063v.117c.313 2.902.627 5.963.941 9.178.157 1.805.353 3.608.588 5.412l5.53-.354.353-12.823c7.766-3.607 16.159-3.571 25.18.117l1.765 12.706c-2.117 6.981-6.864 10.237-14.237 9.767-7.216-.391-11.569-3.647-13.06-9.767l-5.53.588c.235 1.963.471 4.001.707 6.12 13.491 14.668 25.217 14.746 35.18.234l2.706-13.414-.234-1.177v-.117c-4.551-28.552-6.394-55.807-5.532-81.773z"/><path fill="#F2DBCC" d="M271.422 352.423l-1.646-12.708c-8.315-4.235-16.708-4.274-25.18-.117l-.353 12.825a14.408 14.408 0 0 0 1.529 4.118c2.195 3.529 6.04 5.492 11.53 5.883 5.491.313 9.531-1.489 12.119-5.412.863-1.257 1.531-2.785 2.001-4.589m383.806 4.118a17.436 17.436 0 0 0 1.648-4.118l-.472-12.825c-11.766-3.371-20.158-3.335-25.18.117l-1.647 12.708c.552 1.804 1.255 3.332 2.119 4.589 2.587 3.923 6.627 5.725 12.119 5.412 5.413-.391 9.216-2.354 11.413-5.883m39.416 4.353l-.354-12.823c-10.434-3.686-18.825-3.649-25.178.117l-1.647 12.706c2.116 6.981 6.864 10.237 14.236 9.767 7.216-.391 11.532-3.648 12.943-9.767m51.417-25.415c1.728 6.511 5.57 9.571 11.531 9.179 2.98-.159 5.373-.981 7.177-2.471 1.726-1.569 2.902-3.806 3.53-6.708l-.589-12.001c-6.822-2.668-13.569-2.626-20.236.117l-1.413 11.884m-36.944-1.059l-1.647 12.708c2.116 7.06 6.822 10.392 14.119 10.001 7.294-.471 11.648-3.806 13.06-10.001l-.354-12.825c-9.804-4.236-18.196-4.197-25.178.117m-502.408 13.65l-.353 12.823c1.49 6.119 5.844 9.376 13.06 9.767 7.373.471 12.12-2.785 14.237-9.767l-1.765-12.706c-9.02-3.688-17.413-3.724-25.179-.117m-73.89-12.591c.549 2.902 1.687 5.139 3.413 6.708 1.804 1.489 4.196 2.312 7.177 2.471 5.961.393 9.805-2.668 11.531-9.179l-1.413-11.884c-7.922-3.529-14.667-3.568-20.236-.117l-.472 12.001m34.004-1.176l-.471 12.825c1.49 6.195 5.844 9.53 13.06 10.001 7.374.391 12.12-2.941 14.238-10.001l-1.648-12.708c-9.649-3.607-18.041-3.647-25.179-.117z"/><path fill="#9A6243" d="M469.56 252.059c1.963 2.509 6.003 2.395 12.12-.352 8.314-3.61 13.648-5.532 16.002-5.767 5.255-.391 10.628-.313 16.12.234 5.568.552 9.687 1.453 12.354 2.708 3.607 1.726 7.765 4.862 12.472 9.412 2.902 2.666 5.568 3.374 7.999 2.119-9.491-13.963-20.785-21.809-33.885-23.532-13.491-1.805-27.887 3.255-43.182 15.178m-58.123-.352c6.118 2.746 10.119 2.86 12.001.352-15.218-11.923-29.572-16.982-43.063-15.177-13.1 1.724-24.395 9.569-33.887 23.532 2.433 1.255 5.1.547 8.002-2.119 4.707-4.55 8.864-7.687 12.472-9.412 2.667-1.255 6.785-2.156 12.354-2.708 5.491-.547 10.864-.625 16.12-.234 2.353.234 7.687 2.156 16.001 5.766m158.488-106.13c-15.608-31.141-39.966-53.535-73.066-67.184-42.516-11.922-81.107-9.766-115.777 6.471-32.004 14.041-52.555 35.103-61.654 63.184-12.707 23.375-16.354 47.377-10.942 72.008l10.708 49.063 5.647 26.004h4.471l6-86.951c.707-27.297 17.257-45.692 49.653-55.183 39.377 5.177 76.009 5.02 109.893-.471 25.651 2.98 42.399 14.237 50.242 33.769l17.884 108.836 8.236-33.063 8.119-33.063c3.057-25.57-.079-53.377-9.414-83.42z"/><path fill="#EDE8DC" d="M510.39 268.413c1.018 1.569 1.528 3.374 1.528 5.412 0 2.824-1.021 5.217-3.06 7.179-1.96 2.039-4.353 3.059-7.177 3.059l.117 1.411c9.335-.471 17.61-3.256 24.826-8.353-5.567-4.157-10.979-7.06-16.234-8.708m-18.944 5.412c0-2.354.667-4.392 2-6.117-6.903 1.726-13.141 6.236-18.709 13.53 9.806 3.218 18.787 4.629 26.944 4.235v-1.411c-2.902 0-5.333-1.02-7.294-3.059-1.961-1.961-2.941-4.354-2.941-7.178m-101.07 14.708l.117-2.942c-2.824 0-5.255-.979-7.295-2.941-1.96-1.96-2.942-4.392-2.942-7.294 0-1.489.275-2.785.824-3.884-4.235 1.333-8.747 4.082-13.531 8.236 5.021 5.961 12.63 8.903 22.827 8.825m28.121-5.646l.353-.354c-.234-.234-.431-.393-.588-.471-5.804-5.412-12-9.137-18.59-11.178.707 1.333 1.06 2.824 1.06 4.472 0 2.902-.981 5.334-2.941 7.294-2.04 1.963-4.471 2.941-7.295 2.941l.235 2.942c7.685-.156 16.94-2.039 27.766-5.646z"/><path fill="#88A4E3" d="M493.446 267.708c-1.333 1.726-2 3.764-2 6.117 0 2.824.979 5.217 2.941 7.179 1.961 2.039 4.392 3.059 7.294 3.059 2.824 0 5.217-1.02 7.177-3.059 2.039-1.962 3.06-4.354 3.06-7.179 0-2.038-.511-3.843-1.528-5.412-.237-.078-.394-.156-.472-.234-2.98-.861-5.922-1.294-8.824-1.294a9.624 9.624 0 0 0-2.119 0c-1.646 0-3.293.195-4.94.589a4.62 4.62 0 0 1-.589.234m11.295 1.999c.941 1.021 1.413 2.197 1.413 3.53 0 1.413-.472 2.629-1.413 3.649-1.019 1.02-2.236 1.527-3.647 1.527-1.333 0-2.471-.508-3.412-1.527-1.019-1.021-1.528-2.236-1.528-3.649 0-1.333.51-2.51 1.528-3.53.941-1.021 2.079-1.528 3.412-1.528 1.411 0 2.629.508 3.647 1.528m-109.541.236a17.228 17.228 0 0 0-4.471-.354h-.471c-2.981.158-6.04.784-9.177 1.882-.549 1.099-.824 2.395-.824 3.884 0 2.902.981 5.334 2.942 7.294 2.04 1.963 4.471 2.941 7.295 2.941s5.255-.979 7.295-2.941c1.96-1.96 2.941-4.392 2.941-7.294 0-1.647-.353-3.139-1.06-4.472a20.705 20.705 0 0 0-4.47-.94m-4.824.941c1.411 0 2.587.51 3.53 1.53 1.019 1.021 1.529 2.197 1.529 3.53 0 1.411-.51 2.629-1.529 3.646-.942.942-2.119 1.413-3.53 1.413-1.412 0-2.589-.471-3.53-1.413-.942-1.018-1.412-2.235-1.412-3.646 0-1.333.47-2.51 1.412-3.53 1.02-1.02 2.196-1.53 3.53-1.53z"/><path d="M506.154 273.237c0-1.333-.472-2.51-1.413-3.53-1.019-1.021-2.236-1.528-3.647-1.528-1.333 0-2.471.508-3.412 1.528-1.019 1.021-1.528 2.197-1.528 3.53 0 1.413.51 2.629 1.528 3.649.941 1.02 2.079 1.527 3.412 1.527 1.411 0 2.629-.508 3.647-1.527.942-1.02 1.413-2.236 1.413-3.649m-112.248-.823c-.942-1.021-2.119-1.53-3.53-1.53-1.334 0-2.511.51-3.53 1.53-.942 1.021-1.412 2.197-1.412 3.53 0 1.411.47 2.629 1.412 3.646.941.942 2.118 1.413 3.53 1.413 1.411 0 2.587-.471 3.53-1.413 1.019-1.018 1.529-2.235 1.529-3.646.001-1.333-.51-2.509-1.529-3.53z"/><g><path fill="none" stroke="#000" stroke-width="2" stroke-linecap="round" stroke-linejoin="round" d="M571.219 262.06l8.119-33.063c3.059-25.57-.078-53.377-9.413-83.42-15.608-31.141-39.966-53.535-73.066-67.184-42.516-11.922-81.107-9.766-115.777 6.471-32.004 14.041-52.555 35.103-61.654 63.184-12.707 23.375-16.354 47.377-10.942 72.008l10.708 49.063 5.647 26.004h4.471l6-86.951c.707-27.297 17.257-45.692 49.653-55.183 39.377 5.177 76.009 5.02 109.893-.471 25.651 2.98 42.399 14.237 50.242 33.769l17.884 108.836 8.235-33.063c6.981-.391 11.178 3.098 12.591 10.472-1.413 12.394-1.218 19.924.588 22.592h40.474c.299-2.665.652-5.331 1.06-8.001l2.001-23.649c8.705-12.237 20.942-14.158 36.709-5.766h.117l1.06-2.707c10.823-5.727 21.179-5.727 31.063 0l5.295 8.943 7.882-6.825c10.274-3.373 17.649-2.665 22.121 2.119l6 5.529 12.942-6.117c3.14-1.333 6.628-1.648 10.473-.942 1.333.156 2.746.471 4.235.942l7.882 12.705c1.177 10.512 1.531 22.473 1.06 35.887-.234 11.295-.981 20.983-2.235 29.063a45.933 45.933 0 0 1-.94 4.94 65.24 65.24 0 0 1-3.646 4.001c-9.101 8.785-17.769 9.098-26.005.939-.234 1.414-.511 2.551-.823 3.413-.549.783-.9 1.845-1.059 3.178-.784 6.823-5.373 10.668-13.766 11.529-8.316.862-16.355-1.921-24.12-8.353m-1.297-.117a124.391 124.391 0 0 0-.588 5.412v.234a71.95 71.95 0 0 0-.708 6.12c-15.843 12.628-28.473 11.727-37.886-2.707v-10.473a35.438 35.438 0 0 1-2.354 4.59c-4.235 6.51-9.61 9.607-16.118 9.295-6.198-.313-11.256-3.332-15.179-9.059-.942-1.413-1.845-3.02-2.707-4.826a1389.3 1389.3 0 0 1-.234-1.411c-2.484-19.175-2.563-38.471-.236-57.888h1.06m-207.434-12.235c.157-.081.313-.159.471-.237l-.119-.117m-.352.354c-10.825 3.607-20.081 5.49-27.768 5.646h-.353c-10.198.078-17.806-2.864-22.827-8.825a46.55 46.55 0 0 0-3.53 3.179m54.949-.238l1.529 1.531m-1.648-1.648c-.234-.234-.431-.393-.588-.471-5.804-5.412-12-9.137-18.59-11.178.707 1.333 1.06 2.824 1.06 4.472 0 2.902-.981 5.334-2.941 7.294-2.04 1.963-4.471 2.941-7.295 2.941m38.238-16.822c3.216 6.354 2.393 15.137-2.47 26.355h41.77c-3.374-11.688-3.53-20.277-.472-25.768m-88.245-23.18c-5.569.552-9.688 1.453-12.354 2.708-3.608 1.726-7.765 4.862-12.472 9.412-2.902 2.666-5.569 3.374-8.002 2.119 9.492-13.963 20.787-21.809 33.887-23.532 13.491-1.806 27.845 3.254 43.063 15.177-1.882 2.509-5.883 2.395-12.001-.352-8.314-3.61-13.648-5.532-16.001-5.767-5.256-.39-10.629-.312-16.12.235zm122.366 37.888c-2.902 0-5.333-1.02-7.294-3.059-1.962-1.962-2.941-4.354-2.941-7.179 0-2.354.667-4.392 2-6.117-6.903 1.726-13.141 6.236-18.709 13.53 9.806 3.218 18.787 4.629 26.944 4.235m0-1.41c2.824 0 5.217-1.02 7.177-3.059 2.039-1.962 3.06-4.354 3.06-7.179 0-2.038-.511-3.843-1.528-5.412-.237-.078-.394-.156-.472-.234-2.98-.861-5.922-1.294-8.824-1.294a9.624 9.624 0 0 0-2.119 0c-1.646 0-3.293.195-4.94.589a4.6 4.6 0 0 1-.588.234m-18.711 13.53l-1.528 1.648m65.419-24.591c-4.707-4.55-8.864-7.687-12.472-9.412-2.668-1.255-6.786-2.156-12.354-2.708-5.492-.547-10.865-.625-16.12-.234-2.354.234-7.688 2.156-16.002 5.767-6.117 2.746-10.157 2.86-12.12.352 15.296-11.923 29.691-16.982 43.183-15.177 13.1 1.724 24.394 9.569 33.885 23.532-2.432 1.254-5.098.546-8-2.12zm-219.436 10.824c-7.453-2.354-11.688 1.608-12.708 11.885l.471 14.119h17.885m74.831-24.239a20.608 20.608 0 0 0-4.471-.94 17.228 17.228 0 0 0-4.471-.354h-.471c-2.981.158-6.04.784-9.177 1.882-.549 1.099-.824 2.395-.824 3.884 0 2.902.981 5.334 2.942 7.294 2.04 1.963 4.471 2.941 7.295 2.941m-9.413-14.119c-4.235 1.333-8.747 4.082-13.531 8.236m-38.239 15.415h96.952m-151.076 0h1.118c-.335-2.58-.708-5.248-1.118-8.001l-2.118-23.649c-8.707-12.237-20.943-14.158-36.71-5.766h-.117l-2.589 13.647c-.863 25.966.98 53.221 5.53 81.773v.117l.234 1.177c.707 1.648 2.55 4.434 5.53 8.355 2.98 3.843 8.001 5.529 15.061 5.059 7.139-.472 11.766-2.51 13.885-6.117 2.039-3.767 3.294-6.198 3.764-7.297.471-1.099.981-7.06 1.53-17.883.549-9.478-.413-23.284-2.883-41.416h30.65m-70.712-37.415l-1.06-2.707c-7.06-5.883-17.413-5.883-31.063 0l-5.176 8.943c-1.883 13.412-2.588 27.924-2.118 43.534.234 10.746 1.059 23.767 2.471 39.063v.117c.313 2.902.627 5.963.941 9.178.157 1.805.353 3.608.588 5.412m.001.234c.235 1.963.471 4.001.707 6.12 13.491 14.668 25.217 14.746 35.18.234l2.706-13.414m-40.475-90.478l-7.883-6.825c-12.315-1.882-19.728-1.177-22.238 2.119l-5.883 5.529-4 6.588c-1.098 10.04-1.647 22.041-1.647 36.004 0 10.433.274 19.768.824 28.004.236 2.744.471 5.412.706 8.002l.354 2.821c.156 1.414.392 2.551.706 3.413.549.783.941 1.845 1.176 3.178 5.805 6.903 12.041 10.274 18.708 10.118 6.588-.314 12.981-2.626 19.178-6.941m-39.77-9.767c-8.236 8.158-16.943 7.846-26.121-.939a63.978 63.978 0 0 1-3.648-4.001 298.683 298.683 0 0 1-.941-4.94c-1.255-8.08-2-17.769-2.235-29.063-.471-13.414-.118-25.375 1.058-35.887-.156-3.449 3.883-7.999 12.119-13.647 3.844-.706 7.374-.391 10.59.942l12.942 6.117m37.887 96.479v.234m541.116-15.295l.236-2.821c.315-2.59.706-6.472 1.177-11.649.471-5.177.783-13.179.939-24.003.237-10.823-.51-22.943-2.233-36.357l-3.884-6.588m-37.296 91.067c.234-3.215.51-6.275.822-9.178v-.117m.472-82.597c1.804 13.412 2.509 27.924 2.116 43.534-.313 10.746-1.177 23.767-2.588 39.063m-36.945-88.833l2.707 13.647c.784 25.966-1.06 53.221-5.531 81.773v.117l-.234 1.177m-159.901-68.947c9.335-.471 17.61-3.256 24.826-8.353-5.568-4.157-10.98-7.061-16.235-8.708m-8.591 17.061h-.117m24.943-8.353c.393.234.744.471 1.06.705.549.393 1.099.825 1.647 1.294m55.065 16.003H468.032"/></g><g><path fill="none" stroke="#000" stroke-linecap="round" stroke-linejoin="round" d="M474.503 273.944c5.646-5.177 11.529-8.59 17.649-10.237.078-.078.195-.117.352-.117h.471a32.45 32.45 0 0 1 5.531-.942c9.569-.783 19.688 2.432 30.355 9.649h.117c.393.234.824.55 1.296.94m-170.372 6.002a39.45 39.45 0 0 1 4.235-3.884c0-.078.079-.156.235-.234 4.706-4.001 9.688-6.825 14.943-8.473 3.53-1.177 7.217-1.765 11.061-1.765h.234c1.805 0 3.609.158 5.413.471 1.49.156 3.02.433 4.588.823 6.119 1.491 12.473 4.354 19.061 8.59m-213.316 86.127l.353-12.823c7.766-3.607 16.159-3.571 25.18.117l1.765 12.706c-2.117 6.981-6.864 10.237-14.237 9.767-7.217-.391-11.57-3.648-13.061-9.767zm-12.707-13.766c-2.118 7.06-6.864 10.392-14.238 10.001-7.216-.471-11.569-3.806-13.06-10.001l.471-12.825c7.138-3.529 15.53-3.49 25.178.117l1.649 12.708zm-40.123-23.532c-7.922-3.529-14.667-3.568-20.236-.117l-.471 12.001c.549 2.902 1.687 5.139 3.413 6.708 1.804 1.489 4.196 2.312 7.177 2.471 5.961.393 9.805-2.668 11.531-9.179l-1.414-11.884zm116.249 16.119c-8.315-4.235-16.708-4.274-25.18-.117l-.353 12.825a14.408 14.408 0 0 0 1.529 4.118c2.195 3.529 6.04 5.492 11.53 5.883 5.491.313 9.531-1.489 12.119-5.412.863-1.257 1.531-2.785 2-4.589l-1.645-12.708zm497.935-16.236c-6.822-2.668-13.569-2.626-20.236.117l-1.413 11.884c1.728 6.511 5.57 9.571 11.531 9.179 2.98-.159 5.373-.981 7.177-2.471 1.726-1.569 2.902-3.806 3.53-6.708l-.589-12.001zm-33.062 23.649l-.354-12.825c-9.803-4.235-18.195-4.196-25.177.117l-1.647 12.708c2.116 7.06 6.822 10.392 14.119 10.001 7.294-.471 11.648-3.806 13.059-10.001zm-40.004 13.766l-.354-12.823c-10.434-3.686-18.825-3.649-25.178.117l-1.647 12.706c2.116 6.981 6.864 10.237 14.236 9.767 7.216-.391 11.532-3.648 12.943-9.767zm-38.24-21.296c-11.766-3.371-20.158-3.335-25.18.117l-1.647 12.708c.552 1.804 1.255 3.332 2.119 4.589 2.587 3.923 6.627 5.725 12.119 5.412 5.412-.391 9.216-2.354 11.412-5.883a17.436 17.436 0 0 0 1.648-4.118l-.471-12.825z"/></g></svg>