<?xml version="1.0" encoding="utf-8"?>
<!-- Generator: Adobe Illustrator 16.0.0, SVG Export Plug-In . SVG Version: 6.00 Build 0)  -->
<!DOCTYPE svg PUBLIC "-//W3C//DTD SVG 1.1//EN" "http://www.w3.org/Graphics/SVG/1.1/DTD/svg11.dtd">
<svg version="1.1" id="Layer_1" xmlns="http://www.w3.org/2000/svg" xmlns:xlink="http://www.w3.org/1999/xlink" x="0px" y="0px"
	 width="900px" height="450px" viewBox="0 0 900 450" enable-background="new 0 0 900 450" xml:space="preserve">
<g transform="matrix( 1, 0, 0, 1, 0,0) ">
	<g>
		<g id="Layer0_0_FILL">
			<path fill="#ECCF2F" d="M646.338,222.187c-9.136,32.146-20.844,65.408-35.123,99.787c-14.754,35.461-30.657,67.977-47.71,97.552
				c9.88-0.813,19.624-4.907,29.234-12.282c8.46-6.43,18-16.412,28.627-29.946c7.917-14.755,19.997-41.35,36.239-79.789
				C656.253,270.979,652.496,245.871,646.338,222.187z"/>
			<path fill="#D6B914" d="M608.271,219.142c-4.535,0.135-10.625,0.608-18.272,1.421c-1.759,7.782-3.654,16.208-5.685,25.277
				s-6.634,21.96-13.807,38.676c-7.24,16.58-14.787,35.189-22.636,55.831c-1.152,3.112-3.622,8.932-7.411,17.459
				c-2.774,6.091-4.568,10.863-5.379,14.313c-1.083,4.806-1.795,8.968-2.134,12.487c-0.811,9.136-0.101,16.343,2.134,21.622
				l0.101,0.202l28.322,13.096c17.053-29.575,32.956-62.091,47.71-97.552c14.279-34.379,25.987-67.641,35.123-99.787
				C632.6,220.022,619.911,219.007,608.271,219.142z"/>
			<path fill="#F4F3C4" d="M690.495,208.889c0.339-1.083,0.71-2.166,1.116-3.249c-3.045,5.279-7.681,9.068-13.906,11.37
				c-7.581,2.842-17.189,3.214-28.829,1.116l-2.538,4.061c6.158,23.684,9.915,48.792,11.268,75.321
				c0.678,11.505,0.845,23.179,0.508,35.021c3.586,12.994,9.778,23.01,18.577,30.049c8.729,7.038,17.832-4.84,27.305-35.633
				c9.068-29.707,5.922-69.4-9.439-119.071L690.495,208.889v0.101h-0.101v-0.101H690.495 M700.038,89.714
				c-0.881-14.82-4.399-26.799-10.558-35.936c-6.091-9-14.856-15.531-26.292-19.591c-4.467-1.691-10.151-3.079-17.055-4.162
				c9.271,12.316,15.159,23.246,17.663,32.788c2.773,10.828,4.568,29.438,5.381,55.831c0.406,17.054-2.1,34.379-7.512,51.974
				c-4.33,13.874-9.002,29.54-14.01,47l1.22,0.508c11.64,2.098,21.248,1.726,28.829-1.116c6.226-2.302,10.861-6.091,13.906-11.37
				c0.337-1.015,0.643-1.963,0.914-2.842c5.954-17.46,9.543-34.176,10.76-50.147C704.301,137.154,703.218,116.175,700.038,89.714z"
				/>
			<path fill="#EBC6AF" d="M455.09,293.55c0.678,0.337,1.353,0.575,2.03,0.71l-0.508-1.32
				C456.139,293.144,455.631,293.346,455.09,293.55 M449.101,288.475c-1.76-2.978-3.214-5.787-4.365-8.426l-38.777,22.534
				c0.068,0,0.136,0.036,0.203,0.104c7.376,2.773,14.482,3.688,21.317,2.739c2.911-0.406,6.294-2.367,10.151-5.888
				C442.435,294.801,446.258,291.113,449.101,288.475 M456.612,292.939c10.354-5.008,20.98-7.375,31.875-7.105
				c3.113-2.435,9.237-8.086,18.373-16.952l0.202-10.86v-5.381c-5.818,1.76-11.605,3.723-17.357,5.888
				c-3.317,1.218-6.599,2.538-9.846,3.958c-0.744,0.406-1.489,0.745-2.234,1.015l12.994,4.772l-12.994-4.772
				c-1.15,0.544-2.267,1.051-3.349,1.522c-2.37,0.948-4.67,1.999-6.904,3.148c-1.894,0.881-3.788,1.826-5.684,2.842
				c-5.685,2.843-11.336,5.854-16.953,9.035c1.151,2.639,2.605,5.448,4.365,8.426c1.624,2.367,3.622,4.061,5.989,5.075
				C455.631,293.346,456.139,293.144,456.612,292.939z"/>
			<path fill="#EECDB9" d="M488.487,285.834c-10.895-0.27-21.521,2.098-31.875,7.105l0.508,1.32
				c2.708,0.746,6.632,0.881,11.775,0.406C473.43,294.327,479.96,291.385,488.487,285.834 M520.464,217.01
				c-2.437-4.467-5.854-7.14-10.252-8.02c-1.22-0.271-2.471-0.406-3.758-0.406l-19.083,8.832l5.988,15.125l2.437,6.194l22.536-6.194
				C522.932,227.94,523.644,222.762,520.464,217.01z"/>
			<path fill="#E7B89C" d="M405.654,166.152c-18.476-3.249-30.42-2.504-35.833,2.233c-27.001,12.655-53.09,26.833-78.265,42.534
				c-26.732,16.581-42.737,27.103-48.016,31.57l-53.598,45.375c0.406,69.638,11.031,103.069,31.875,100.294
				c14.144-22.333,34.717-35.664,61.719-39.996c0.136,0,0.271,0.033,0.406,0.102l3.146,1.827l1.015,0.407
				c6.564,1.893,18.035,2.333,34.413,1.318c16.309-1.083,31.772-5.211,46.39-12.384c14.551-7.241,26.969-19.489,37.255-36.746
				c-0.067-0.067-0.135-0.104-0.203-0.104l38.777-22.534c5.617-3.181,11.269-6.192,16.953-9.035c1.896-1.016,3.79-1.961,5.684-2.842
				c2.234-1.149,4.534-2.2,6.904-3.148c1.082-0.472,2.198-0.979,3.349-1.522c0.745-0.27,1.49-0.608,2.234-1.015
				c3.247-1.42,6.528-2.74,9.846-3.958c5.752-2.165,11.539-4.128,17.357-5.888l11.472-10.558
				c8.458-6.43,12.081-13.028,10.861-19.795c-0.337-1.827-1.047-3.688-2.132-5.583c-0.608-1.217-1.318-2.301-2.131-3.248
				c-1.489-2.03-3.248-3.756-5.277-5.178c-0.881-0.474-1.761-0.946-2.642-1.42c-1.284-0.677-2.604-1.218-3.957-1.625
				c-2.098-0.609-4.231-0.879-6.396-0.812c-0.202,0-0.372,0-0.507,0c-1.422,0.067-2.844,0.169-4.263,0.304l-7.613,2.233
				c-4.739,2.708-11.167,5.448-19.287,8.222c-6.702,2.369-11.777,4.297-15.228,5.786c-1.149,0.338-2.098,0.745-2.843,1.219
				c-0.608,0.203-1.218,0.44-1.828,0.71c-1.487,0.609-3.146,1.218-4.973,1.827c-1.557,0.474-3.282,0.914-5.177,1.32
				c-2.301,0.539-4.907,1.15-7.817,1.826c-9.745,1.691-16.885,3.452-21.418,5.279c-2.03,0.881-5.415,2.368-10.151,4.466
				c-4.467,1.895-8.527,3.384-12.182,4.467c-1.354,0.271-6.564,0.981-15.633,2.131c-8.866,0.881-13.941,1.522-15.227,1.93
				c1.286-0.407,6.361-1.049,15.227-1.93c9.068-1.149,14.279-1.859,15.633-2.131l-12.689-5.177l-13.196-5.583l13.196,5.583
				l12.689,5.177c3.654-1.083,7.715-2.572,12.182-4.467c4.736-2.098,8.121-3.585,10.151-4.466c0-8.053-2.504-18.442-7.512-31.165
				c5.008,12.723,7.512,23.111,7.512,31.165c4.534-1.827,11.674-3.588,21.418-5.279c2.91-0.676,5.516-1.287,7.817-1.826
				c1.895-0.406,3.62-0.847,5.177-1.32c1.827-0.609,3.486-1.218,4.973-1.827c0.61-0.271,1.22-0.507,1.828-0.71
				c0.745-2.03,1.116-3.654,1.116-4.873c0-1.353-0.474-3.857-1.422-7.512c0.948,3.655,1.422,6.159,1.422,7.512
				c0,1.218-0.371,2.842-1.116,4.873c0.745-0.474,1.693-0.88,2.843-1.219c3.45-1.489,8.525-3.417,15.228-5.786
				c8.12-2.774,14.548-5.515,19.287-8.222c0.135-9.068-1.456-15.564-4.772-19.49c-15.498-5.549-28.794-9.711-39.894-12.486
				C438.848,172.209,424.129,169.266,405.654,166.152 M446.969,229.699c-3.316,10.692,0.271,20.504,10.759,29.438
				C447.24,250.203,443.653,240.392,446.969,229.699 M452.451,229.901l10.86,27.916L452.451,229.901 M457.526,226.653
				c6.021,6.091,10.354,15.463,12.992,28.118C467.88,242.116,463.548,232.744,457.526,226.653 M510.212,208.99
				c4.397,0.88,7.815,3.553,10.252,8.02c3.18,5.751,2.468,10.93-2.132,15.53l-22.536,6.194l-2.437-6.194l-5.988-15.125l19.083-8.832
				C507.741,208.584,508.992,208.72,510.212,208.99z"/>
			<path fill="#ECEA9D" d="M555.586,175.085c-15.563,9.136-24.16,14.246-25.784,15.329c-6.226,4.398-11.741,9.339-16.545,14.82
				c1.353,0.406,2.673,0.948,3.957,1.625c0.881,0.474,1.761,0.947,2.642,1.42c2.029,1.422,3.788,3.147,5.277,5.178
				c0.813,0.947,1.522,2.03,2.131,3.248c1.085,1.896,1.795,3.756,2.132,5.583c1.22,6.767-2.403,13.365-10.861,19.795l-11.472,10.558
				v5.381c2.507-0.679,5.246-1.491,8.225-2.438c14.955-16.647,33.092-27.374,54.41-32.179c3.045-0.61,6.124-1.151,9.236-1.625
				l9.949-1.015l0.508-0.101l0.608-0.203v0.102c7.647-0.813,13.737-1.287,18.272-1.421c11.64-0.135,24.328,0.88,38.066,3.045
				c-18.679-7.647-30.218-13.366-34.615-17.156c-7.24-6.091-9.881-12.52-7.918-19.288c-2.709-9.745-8.494-15.227-17.358-16.444
				C579.271,168.352,568.985,170.281,555.586,175.085 M634.766,35c-2.844,3.249-5.55,9.982-8.121,20.201
				c-3.315,26.258-6.564,55.932-9.745,89.025c-2.571,21.182-6.938,35.021-13.095,41.518c-1.963,6.768,0.678,13.197,7.918,19.288
				c4.397,3.79,15.937,9.508,34.615,17.156c0.406-1.489,0.847-3.012,1.318-4.568c5.008-17.46,9.68-33.126,14.01-47
				c5.412-17.595,7.918-34.92,7.512-51.974c-0.813-26.393-2.607-45.003-5.381-55.831c-2.504-9.542-8.393-20.472-17.663-32.788
				c0.135,1.556,0,1.691-0.404,0.405l0.404-0.405C641.465,29.958,637.676,31.616,634.766,35z"/>
			<path fill="#F8F7DA" d="M645.729,30.431c0.404,1.286,0.539,1.151,0.404-0.405L645.729,30.431z"/>
		</g>
	</g>
	<g>
		<path id="Layer0_0_1_STROKES" fill="none" stroke="#000000" stroke-width="2" stroke-linecap="round" stroke-linejoin="round" d="
			M513.257,205.234c4.804-5.481,10.319-10.422,16.545-14.82c1.624-1.083,10.221-6.193,25.784-15.329
			c13.399-4.804,23.686-6.733,30.86-5.785c8.864,1.217,14.649,6.699,17.358,16.444c6.157-6.496,10.523-20.336,13.095-41.518
			c3.181-33.093,6.43-62.768,9.745-89.025c2.571-10.219,5.277-16.953,8.121-20.201c2.91-3.383,6.699-5.041,11.368-4.974
			c6.903,1.083,12.588,2.47,17.055,4.162c11.436,4.061,20.201,10.591,26.292,19.591c6.158,9.136,9.677,21.115,10.558,35.936
			c3.18,26.46,4.263,47.44,3.247,62.937c-1.217,15.971-4.806,32.687-10.76,50.147c-0.271,0.879-0.577,1.827-0.914,2.842
			c0.475-0.88,0.948-1.793,1.422-2.741c0.474,1.624,0.981,3.283,1.522,4.975c15.361,49.671,18.508,89.364,9.439,119.071
			c-9.473,30.793-18.575,42.671-27.305,35.633c-8.799-7.039-14.991-17.055-18.577-30.049c0.337-11.843,0.17-23.517-0.508-35.021
			c-16.242,38.439-28.322,65.034-36.239,79.789c-10.627,13.534-20.167,23.517-28.627,29.946c-9.61,7.375-19.354,11.47-29.234,12.282
			l-28.322-13.096l-0.101-0.202c-2.234-5.279-2.944-12.486-2.134-21.622c0.339-3.52,1.051-7.682,2.134-12.487
			c0.811-3.449,2.604-8.222,5.379-14.313c3.789-8.527,6.259-14.347,7.411-17.459c7.849-20.642,15.396-39.251,22.636-55.831
			c7.173-16.716,11.776-29.607,13.807-38.676s3.926-17.495,5.685-25.277c-0.137,0-0.339,0.034-0.608,0.101l-0.508,0.101
			l-9.949,1.015c-3.112,0.474-6.191,1.015-9.236,1.625c-21.318,4.805-39.455,15.531-54.41,32.179
			c-2.979,0.946-5.718,1.759-8.225,2.438l-0.202,10.86c-9.136,8.866-15.26,14.518-18.373,16.952
			c-8.527,5.551-15.058,8.493-19.592,8.832c-5.144,0.475-9.067,0.34-11.775-0.406c-0.678-0.135-1.353-0.373-2.03-0.71
			c-2.367-1.015-4.366-2.708-5.989-5.075c-2.842,2.639-6.666,6.326-11.471,11.063c-3.857,3.521-7.241,5.481-10.151,5.888
			c-6.835,0.948-13.941,0.034-21.317-2.739c-10.286,17.257-22.704,29.505-37.255,36.746c-14.617,7.173-30.081,11.301-46.39,12.384
			c-16.378,1.015-27.849,0.574-34.413-1.318l-1.015-0.407l-3.146-1.827c-0.136-0.068-0.271-0.102-0.406-0.102
			c-27.001,4.332-47.575,17.663-61.719,39.996 M189.942,287.864l53.598-45.375c5.279-4.467,21.284-14.989,48.016-31.57
			c25.175-15.701,51.264-29.878,78.265-42.534c5.414-4.737,17.358-5.482,35.833-2.233c18.475,3.114,33.194,6.057,44.157,8.832
			c11.1,2.775,24.396,6.937,39.894,12.486c3.316,3.926,4.907,10.422,4.772,19.49l7.613-2.233c1.419-0.135,2.841-0.237,4.263-0.304
			c0.135,0,0.305,0,0.507,0c2.165-0.067,4.299,0.203,6.396,0.812c1.353,0.406,2.673,0.948,3.957,1.625
			c0.881,0.474,1.761,0.947,2.642,1.42c2.029,1.422,3.788,3.147,5.277,5.178c0.813,0.947,1.522,2.03,2.131,3.248
			c1.085,1.896,1.795,3.756,2.132,5.583c1.22,6.767-2.403,13.365-10.861,19.795l-11.472,10.558v5.381 M648.876,218.126
			c11.64,2.098,21.248,1.726,28.829-1.116c6.226-2.302,10.861-6.091,13.906-11.37c-0.406,1.083-0.777,2.165-1.116,3.249
			c0.202-0.136,1.049-2.132,2.538-5.99 M494.478,206.96c-4.739,2.708-11.167,5.448-19.287,8.222
			c-6.702,2.369-11.777,4.297-15.228,5.786c-1.149,0.338-2.098,0.745-2.843,1.219c-0.608,0.203-1.218,0.44-1.828,0.71
			c-1.487,0.609-3.146,1.218-4.973,1.827c-1.557,0.474-3.282,0.914-5.177,1.32c-2.301,0.539-4.907,1.15-7.817,1.826
			c-9.745,1.691-16.885,3.452-21.418,5.279c-2.03,0.881-5.415,2.368-10.151,4.466c-4.467,1.895-8.527,3.384-12.182,4.467
			c-1.354,0.271-6.564,0.981-15.633,2.131c-8.866,0.881-13.941,1.522-15.227,1.93 M477.625,263.501
			c-1.15,0.544-2.267,1.051-3.349,1.522c-2.37,0.948-4.67,1.999-6.904,3.148c-1.894,0.881-3.788,1.826-5.684,2.842
			c-5.685,2.843-11.336,5.854-16.953,9.035c1.151,2.639,2.605,5.448,4.365,8.426 M507.063,252.641
			c-5.818,1.76-11.605,3.723-17.357,5.888c-3.317,1.218-6.599,2.538-9.846,3.958c-0.744,0.406-1.489,0.745-2.234,1.015
			 M444.735,280.049l-38.777,22.534c0.068,0,0.136,0.036,0.203,0.104 M690.495,208.889l-0.101,0.101h0.101V208.889h-0.101v0.101
			 M646.338,222.187l2.538-4.061 M589.999,220.563c7.647-0.813,13.737-1.287,18.272-1.421c11.64-0.135,24.328,0.88,38.066,3.045
			c-18.679-7.647-30.218-13.366-34.615-17.156c-7.24-6.091-9.881-12.52-7.918-19.288 M589.999,220.461v0.102 M563.505,419.525
			c17.053-29.575,32.956-62.091,47.71-97.552c14.279-34.379,25.987-67.641,35.123-99.787c6.158,23.684,9.915,48.792,11.268,75.321"
			/>
	</g>
	<g>
		<path id="Layer0_0_2_STROKES" fill="none" stroke="#000000" stroke-linecap="round" stroke-linejoin="round" d="M457.12,222.187
			c0.745-2.03,1.116-3.654,1.116-4.873c0-1.353-0.474-3.857-1.422-7.512 M415.907,233.15c0-8.053-2.504-18.442-7.512-31.165
			 M488.487,285.834c-10.895-0.27-21.521,2.098-31.875,7.105 M477.625,263.501l12.994,4.772 M446.969,229.699
			c-3.316,10.692,0.271,20.504,10.759,29.438 M452.451,229.901l10.86,27.916 M457.526,226.653
			c6.021,6.091,10.354,15.463,12.992,28.118 M393.574,242.083l-12.689-5.177l-13.196-5.583 M456.612,292.939
			c-0.474,0.204-0.981,0.406-1.522,0.61 M487.371,217.416l5.988,15.125l2.437,6.194l22.536-6.194c4.6-4.6,5.312-9.778,2.132-15.53
			c-2.437-4.467-5.854-7.14-10.252-8.02c-1.22-0.271-2.471-0.406-3.758-0.406L487.371,217.416z"/>
	</g>
</g>
</svg>
