<svg xmlns="http://www.w3.org/2000/svg" width="900" height="450" viewBox="0 0 900 450"><path fill="#ECCF2F" d="M646.338 222.187c-9.136 32.146-20.844 65.408-35.123 99.787-14.754 35.461-30.657 67.977-47.71 97.552 9.88-.813 19.624-4.907 29.234-12.282 8.46-6.43 18-16.412 28.627-29.946 7.917-14.755 19.997-41.35 36.239-79.789-1.352-26.53-5.109-51.638-11.267-75.322z"/><path fill="#D6B914" d="M608.271 219.142c-4.535.135-10.625.608-18.272 1.421-1.759 7.782-3.654 16.208-5.685 25.277s-6.634 21.96-13.807 38.676c-7.24 16.58-14.787 35.189-22.636 55.831-1.152 3.112-3.622 8.932-7.411 17.459-2.774 6.091-4.568 10.863-5.379 14.313-1.083 4.806-1.795 8.968-2.134 12.487-.811 9.136-.101 16.343 2.134 21.622l.101.202 28.322 13.096c17.053-29.575 32.956-62.091 47.71-97.552 14.279-34.379 25.987-67.641 35.123-99.787-13.737-2.165-26.426-3.18-38.066-3.045z"/><path fill="#F4F3C4" d="M690.495 208.889c.339-1.083.71-2.166 1.116-3.249-3.045 5.279-7.681 9.068-13.906 11.37-7.581 2.842-17.189 3.214-28.829 1.116l-2.538 4.061c6.158 23.684 9.915 48.792 11.268 75.321a401.15 401.15 0 0 1 .508 35.021c3.586 12.994 9.778 23.01 18.577 30.049 8.729 7.038 17.832-4.84 27.305-35.633 9.068-29.707 5.922-69.4-9.439-119.071l-4.062 1.015v.101h-.101v-.101h.101m9.543-119.175c-.881-14.82-4.399-26.799-10.558-35.936-6.091-9-14.856-15.531-26.292-19.591-4.467-1.691-10.151-3.079-17.055-4.162 9.271 12.316 15.159 23.246 17.663 32.788 2.773 10.828 4.568 29.438 5.381 55.831.406 17.054-2.1 34.379-7.512 51.974-4.33 13.874-9.002 29.54-14.01 47l1.22.508c11.64 2.098 21.248 1.726 28.829-1.116 6.226-2.302 10.861-6.091 13.906-11.37.337-1.015.643-1.963.914-2.842 5.954-17.46 9.543-34.176 10.76-50.147 1.017-15.497-.066-36.476-3.246-62.937z"/><path fill="#EBC6AF" d="M455.09 293.55a8.13 8.13 0 0 0 2.03.71l-.508-1.32c-.473.204-.981.406-1.522.61m-5.989-5.075c-1.76-2.978-3.214-5.787-4.365-8.426l-38.777 22.534c.068 0 .136.036.203.104 7.376 2.773 14.482 3.688 21.317 2.739 2.911-.406 6.294-2.367 10.151-5.888 4.805-4.737 8.628-8.425 11.471-11.063m7.511 4.464c10.354-5.008 20.98-7.375 31.875-7.105 3.113-2.435 9.237-8.086 18.373-16.952l.202-10.86v-5.381a276.743 276.743 0 0 0-17.357 5.888 175.828 175.828 0 0 0-9.846 3.958c-.744.406-1.489.745-2.234 1.015l12.994 4.772-12.994-4.772c-1.15.544-2.267 1.051-3.349 1.522a80.24 80.24 0 0 0-6.904 3.148 112.334 112.334 0 0 0-5.684 2.842 372.52 372.52 0 0 0-16.953 9.035c1.151 2.639 2.605 5.448 4.365 8.426 1.624 2.367 3.622 4.061 5.989 5.075.542-.204 1.05-.406 1.523-.611z"/><path fill="#EECDB9" d="M488.487 285.834c-10.895-.27-21.521 2.098-31.875 7.105l.508 1.32c2.708.746 6.632.881 11.775.406 4.535-.338 11.065-3.28 19.592-8.831m31.977-68.824c-2.437-4.467-5.854-7.14-10.252-8.02a17.267 17.267 0 0 0-3.758-.406l-19.083 8.832 5.988 15.125 2.437 6.194 22.536-6.194c4.6-4.601 5.312-9.779 2.132-15.531z"/><path fill="#E7B89C" d="M405.654 166.152c-18.476-3.249-30.42-2.504-35.833 2.233a746.065 746.065 0 0 0-78.265 42.534c-26.732 16.581-42.737 27.103-48.016 31.57l-53.598 45.375c.406 69.638 11.031 103.069 31.875 100.294 14.144-22.333 34.717-35.664 61.719-39.996.136 0 .271.033.406.102l3.146 1.827 1.015.407c6.564 1.893 18.035 2.333 34.413 1.318 16.309-1.083 31.772-5.211 46.39-12.384 14.551-7.241 26.969-19.489 37.255-36.746-.067-.067-.135-.104-.203-.104l38.777-22.534a373.051 373.051 0 0 1 16.953-9.035 112.334 112.334 0 0 1 5.684-2.842 80.24 80.24 0 0 1 6.904-3.148 124.95 124.95 0 0 0 3.349-1.522c.745-.27 1.49-.608 2.234-1.015 3.247-1.42 6.528-2.74 9.846-3.958a276.743 276.743 0 0 1 17.357-5.888l11.472-10.558c8.458-6.43 12.081-13.028 10.861-19.795-.337-1.827-1.047-3.688-2.132-5.583a15.796 15.796 0 0 0-2.131-3.248 22.585 22.585 0 0 0-5.277-5.178l-2.642-1.42a22.153 22.153 0 0 0-3.957-1.625 20.532 20.532 0 0 0-6.396-.812h-.507a89.496 89.496 0 0 0-4.263.304l-7.613 2.233c-4.739 2.708-11.167 5.448-19.287 8.222-6.702 2.369-11.777 4.297-15.228 5.786-1.149.338-2.098.745-2.843 1.219-.608.203-1.218.44-1.828.71a79.658 79.658 0 0 1-4.973 1.827 63.592 63.592 0 0 1-5.177 1.32c-2.301.539-4.907 1.15-7.817 1.826-9.745 1.691-16.885 3.452-21.418 5.279-2.03.881-5.415 2.368-10.151 4.466-4.467 1.895-8.527 3.384-12.182 4.467-1.354.271-6.564.981-15.633 2.131-8.866.881-13.941 1.522-15.227 1.93 1.286-.407 6.361-1.049 15.227-1.93 9.068-1.149 14.279-1.859 15.633-2.131l-12.689-5.177-13.196-5.583 13.196 5.583 12.689 5.177c3.654-1.083 7.715-2.572 12.182-4.467 4.736-2.098 8.121-3.585 10.151-4.466 0-8.053-2.504-18.442-7.512-31.165 5.008 12.723 7.512 23.111 7.512 31.165 4.534-1.827 11.674-3.588 21.418-5.279 2.91-.676 5.516-1.287 7.817-1.826a64.006 64.006 0 0 0 5.177-1.32 79.658 79.658 0 0 0 4.973-1.827c.61-.271 1.22-.507 1.828-.71.745-2.03 1.116-3.654 1.116-4.873 0-1.353-.474-3.857-1.422-7.512.948 3.655 1.422 6.159 1.422 7.512 0 1.218-.371 2.842-1.116 4.873.745-.474 1.693-.88 2.843-1.219 3.45-1.489 8.525-3.417 15.228-5.786 8.12-2.774 14.548-5.515 19.287-8.222.135-9.068-1.456-15.564-4.772-19.49-15.498-5.549-28.794-9.711-39.894-12.486-10.963-2.773-25.682-5.716-44.157-8.83m41.315 63.547c-3.316 10.692.271 20.504 10.759 29.438-10.488-8.934-14.075-18.745-10.759-29.438m5.482.202l10.86 27.916-10.86-27.916m5.075-3.248c6.021 6.091 10.354 15.463 12.992 28.118-2.638-12.655-6.97-22.027-12.992-28.118m52.686-17.663c4.397.88 7.815 3.553 10.252 8.02 3.18 5.751 2.468 10.93-2.132 15.53l-22.536 6.194-2.437-6.194-5.988-15.125 19.083-8.832c1.287.001 2.538.137 3.758.407z"/><path fill="#ECEA9D" d="M555.586 175.085c-15.563 9.136-24.16 14.246-25.784 15.329-6.226 4.398-11.741 9.339-16.545 14.82 1.353.406 2.673.948 3.957 1.625l2.642 1.42a22.565 22.565 0 0 1 5.277 5.178 15.81 15.81 0 0 1 2.131 3.248c1.085 1.896 1.795 3.756 2.132 5.583 1.22 6.767-2.403 13.365-10.861 19.795l-11.472 10.558v5.381a199.346 199.346 0 0 0 8.225-2.438c14.955-16.647 33.092-27.374 54.41-32.179 3.045-.61 6.124-1.151 9.236-1.625l9.949-1.015.508-.101.608-.203v.102c7.647-.813 13.737-1.287 18.272-1.421 11.64-.135 24.328.88 38.066 3.045-18.679-7.647-30.218-13.366-34.615-17.156-7.24-6.091-9.881-12.52-7.918-19.288-2.709-9.745-8.494-15.227-17.358-16.444-7.175-.947-17.461.982-30.86 5.786M634.766 35c-2.844 3.249-5.55 9.982-8.121 20.201-3.315 26.258-6.564 55.932-9.745 89.025-2.571 21.182-6.938 35.021-13.095 41.518-1.963 6.768.678 13.197 7.918 19.288 4.397 3.79 15.937 9.508 34.615 17.156.406-1.489.847-3.012 1.318-4.568 5.008-17.46 9.68-33.126 14.01-47 5.412-17.595 7.918-34.92 7.512-51.974-.813-26.393-2.607-45.003-5.381-55.831-2.504-9.542-8.393-20.472-17.663-32.788.135 1.556 0 1.691-.404.405l.404-.405c-4.669-.069-8.458 1.589-11.368 4.973z"/><path fill="#F8F7DA" d="M645.729 30.431c.404 1.286.539 1.151.404-.405l-.404.405z"/><g><path fill="none" stroke="#000" stroke-width="2" stroke-linecap="round" stroke-linejoin="round" d="M513.257 205.234c4.804-5.481 10.319-10.422 16.545-14.82 1.624-1.083 10.221-6.193 25.784-15.329 13.399-4.804 23.686-6.733 30.86-5.785 8.864 1.217 14.649 6.699 17.358 16.444 6.157-6.496 10.523-20.336 13.095-41.518 3.181-33.093 6.43-62.768 9.745-89.025 2.571-10.219 5.277-16.953 8.121-20.201 2.91-3.383 6.699-5.041 11.368-4.974 6.903 1.083 12.588 2.47 17.055 4.162 11.436 4.061 20.201 10.591 26.292 19.591 6.158 9.136 9.677 21.115 10.558 35.936 3.18 26.46 4.263 47.44 3.247 62.937-1.217 15.971-4.806 32.687-10.76 50.147-.271.879-.577 1.827-.914 2.842.475-.88.948-1.793 1.422-2.741.474 1.624.981 3.283 1.522 4.975 15.361 49.671 18.508 89.364 9.439 119.071-9.473 30.793-18.575 42.671-27.305 35.633-8.799-7.039-14.991-17.055-18.577-30.049.337-11.843.17-23.517-.508-35.021-16.242 38.439-28.322 65.034-36.239 79.789-10.627 13.534-20.167 23.517-28.627 29.946-9.61 7.375-19.354 11.47-29.234 12.282l-28.322-13.096-.101-.202c-2.234-5.279-2.944-12.486-2.134-21.622.339-3.52 1.051-7.682 2.134-12.487.811-3.449 2.604-8.222 5.379-14.313 3.789-8.527 6.259-14.347 7.411-17.459 7.849-20.642 15.396-39.251 22.636-55.831 7.173-16.716 11.776-29.607 13.807-38.676s3.926-17.495 5.685-25.277c-.137 0-.339.034-.608.101l-.508.101-9.949 1.015a201.428 201.428 0 0 0-9.236 1.625c-21.318 4.805-39.455 15.531-54.41 32.179a200.914 200.914 0 0 1-8.225 2.438l-.202 10.86c-9.136 8.866-15.26 14.518-18.373 16.952-8.527 5.551-15.058 8.493-19.592 8.832-5.144.475-9.067.34-11.775-.406a8.103 8.103 0 0 1-2.03-.71c-2.367-1.015-4.366-2.708-5.989-5.075-2.842 2.639-6.666 6.326-11.471 11.063-3.857 3.521-7.241 5.481-10.151 5.888-6.835.948-13.941.034-21.317-2.739-10.286 17.257-22.704 29.505-37.255 36.746-14.617 7.173-30.081 11.301-46.39 12.384-16.378 1.015-27.849.574-34.413-1.318l-1.015-.407-3.146-1.827a.9.9 0 0 0-.406-.102c-27.001 4.332-47.575 17.663-61.719 39.996m-31.877-100.295l53.598-45.375c5.279-4.467 21.284-14.989 48.016-31.57a746.249 746.249 0 0 1 78.265-42.534c5.414-4.737 17.358-5.482 35.833-2.233 18.475 3.114 33.194 6.057 44.157 8.832 11.1 2.775 24.396 6.937 39.894 12.486 3.316 3.926 4.907 10.422 4.772 19.49l7.613-2.233a89.496 89.496 0 0 1 4.263-.304h.507a20.528 20.528 0 0 1 6.396.812c1.353.406 2.673.948 3.957 1.625l2.642 1.42a22.565 22.565 0 0 1 5.277 5.178 15.81 15.81 0 0 1 2.131 3.248c1.085 1.896 1.795 3.756 2.132 5.583 1.22 6.767-2.403 13.365-10.861 19.795l-11.472 10.558v5.381m141.814-39.897c11.64 2.098 21.248 1.726 28.829-1.116 6.226-2.302 10.861-6.091 13.906-11.37a61.775 61.775 0 0 0-1.116 3.249c.202-.136 1.049-2.132 2.538-5.99m-198.555 4.061c-4.739 2.708-11.167 5.448-19.287 8.222-6.702 2.369-11.777 4.297-15.228 5.786-1.149.338-2.098.745-2.843 1.219-.608.203-1.218.44-1.828.71a79.658 79.658 0 0 1-4.973 1.827 63.592 63.592 0 0 1-5.177 1.32c-2.301.539-4.907 1.15-7.817 1.826-9.745 1.691-16.885 3.452-21.418 5.279-2.03.881-5.415 2.368-10.151 4.466-4.467 1.895-8.527 3.384-12.182 4.467-1.354.271-6.564.981-15.633 2.131-8.866.881-13.941 1.522-15.227 1.93m114.911 17.358c-1.15.544-2.267 1.051-3.349 1.522a80.24 80.24 0 0 0-6.904 3.148 112.334 112.334 0 0 0-5.684 2.842 372.52 372.52 0 0 0-16.953 9.035c1.151 2.639 2.605 5.448 4.365 8.426m57.963-35.833a276.743 276.743 0 0 0-17.357 5.888 175.828 175.828 0 0 0-9.846 3.958c-.744.406-1.489.745-2.234 1.015m-32.891 16.547l-38.777 22.534c.068 0 .136.036.203.104m284.334-93.798l-.101.101h.101v-.101h-.101v.101m-44.056 13.197l2.538-4.061m-58.877 2.437c7.647-.813 13.737-1.287 18.272-1.421 11.64-.135 24.328.88 38.066 3.045-18.679-7.647-30.218-13.366-34.615-17.156-7.24-6.091-9.881-12.52-7.918-19.288m-13.805 34.718v.102m-26.494 198.962c17.053-29.575 32.956-62.091 47.71-97.552 14.279-34.379 25.987-67.641 35.123-99.787 6.158 23.684 9.915 48.792 11.268 75.321"/></g><g><path fill="none" stroke="#000" stroke-linecap="round" stroke-linejoin="round" d="M457.12 222.187c.745-2.03 1.116-3.654 1.116-4.873 0-1.353-.474-3.857-1.422-7.512m-40.907 23.348c0-8.053-2.504-18.442-7.512-31.165m80.092 83.849c-10.895-.27-21.521 2.098-31.875 7.105m21.013-29.438l12.994 4.772m-43.65-38.574c-3.316 10.692.271 20.504 10.759 29.438m-5.277-29.236l10.86 27.916m-5.785-31.164c6.021 6.091 10.354 15.463 12.992 28.118m-76.944-12.688l-12.689-5.177-13.196-5.583m88.923 61.616a35.93 35.93 0 0 1-1.522.61m32.281-76.133l5.988 15.125 2.437 6.194 22.536-6.194c4.6-4.6 5.312-9.778 2.132-15.53-2.437-4.467-5.854-7.14-10.252-8.02a17.267 17.267 0 0 0-3.758-.406l-19.083 8.831z"/></g></svg>