<svg xmlns="http://www.w3.org/2000/svg" width="285" height="427" viewBox="0 0 285 427"><path fill="#BE6B34" d="M63.467 361.459l17.253 3.071 70.807-82.045 46.706-54.136 77.946-90.286-1.521-16.931-81.903 93.178-69.626 79.257-59.662 67.892m4.856-35.291l.053-.021.437-.292-.49.313m25.113-50.119a81.975 81.975 0 0 0-.314-.491l3.336 6.664a10.39 10.39 0 0 0-.792-2.816l-2.23-3.357m-.035-1.029l-.395.399.053-.021.342-.378m18.113-25.819l-12.358 2.249-9.811 19.454-.065.147-.295-.13-.021-.054a3.037 3.037 0 0 0-.529-.099c-4.5-1.063-8.153-.374-10.958 2.069l-1.102 1.104c-3.145 3.352-3.368 8.015-.669 13.988l-6.677 9.897c-7.914-1.12-13.64.746-17.178 5.6-3.503 4.635-3.816 10.742-.939 18.322l.436 1.115-.033.074-7.591 8.969c-4.145 2.883-9.083 3.522-14.815 1.921l22.411 7.492c-.144-1.415-.194-3.376-.151-5.885l5.274-8.309c4.024 1.412 7.838 1.189 11.444-.667l.16-.063c.008-.083.047-.14.118-.168.071-.027.124-.049.159-.063l.49-.313c3.928-2.392 6.51-6.033 7.747-10.929.313-1.185.539-2.334.675-3.449.327-3.56-.508-6.746-2.506-9.562l7.58-8.842c3.486 1.295 6.622.848 9.404-1.34a22.308 22.308 0 0 0 2.524-2.64l2.254-5.844c-.014-.034-.01-.077.012-.126l-.042-.107a.43.43 0 0 1-.009-.18 1.756 1.756 0 0 1-.019-.36c-.041-.106-.034-.191.023-.255l-3.336-6.664a.444.444 0 0 1-.115-.139l.395-.399 11.407-12.54 6.706-13.274m-11.41.284l-.949 1.965 12.358-2.249.873-1.689-12.282 1.973m36.531-5.002c2.714-.896 5.327-2.732 7.838-5.51 2.354-2.553 4.196-5.313 5.53-8.285 2.161-4.93 2.439-9.919.836-14.973l-.396.4c1.393 4.931 1.029 9.811-1.088 14.641-1.298 2.957-3.13 5.695-5.497 8.211-2.327 2.625-4.734 4.465-7.223 5.516m-4.485-6.154a25.636 25.636 0 0 1-4.076.548l-3.817 3.88-.375.452-1.432 1.356-1.443 1.482 13.28-2.242c5.351-2.619 9.186-5.667 11.505-9.146 2.22-3.522 3.579-6.687 4.076-9.496.286-1.99.081-4.605-.612-7.85l-1.604 1.546c.002 3.879-1.148 7.576-3.453 11.09-2.984 4.393-7 7.186-12.049 8.38m3.9 6.383c.177-.068.373-.146.585-.229 2.489-1.052 4.896-2.892 7.224-5.516 2.367-2.516 4.199-5.254 5.497-8.211 2.117-4.83 2.48-9.71 1.088-14.641l-1.188 1.197c.693 3.244.898 5.859.612 7.85-.497 2.81-1.856 5.974-4.076 9.496-2.319 3.479-6.154 6.527-11.505 9.146l-13.28 2.242-1.721 1.713 16.764-3.047m.585-.229l-.585.229-16.764 3.049-.363.325c5.724 1.689 10.99 2.044 15.796 1.066 4.984-1.045 9.415-3.51 13.292-7.394 7.659-7.278 10.11-17.486 7.351-30.626l-.085.095-1.069 1.029-.322.433-3.046 3.026c1.604 5.054 1.325 10.043-.836 14.973-1.334 2.972-3.177 5.732-5.53 8.285-2.512 2.778-5.125 4.614-7.839 5.51m-8.169-44.486c-2.297.08-4.605.552-6.924 1.416-5.708 2.227-9.797 6.09-12.267 11.588-1.189 2.712-1.519 5.373-.99 7.985.46 2.436 1.755 5.177 3.885 8.228.132.232.275.442.43.627a15.568 15.568 0 0 1-1.133-2.743c-1.415-2.266-2.295-4.313-2.641-6.139-.458-2.641-.104-5.291 1.063-7.952 2.492-5.548 6.546-9.397 12.161-11.548 2.199-.858 4.337-1.345 6.416-1.462m7.036 1.544l.333-.559c-2.46-.756-4.917-1.084-7.37-.985-2.079.117-4.217.604-6.416 1.462-5.615 2.151-9.669 6-12.161 11.548-1.167 2.661-1.522 5.312-1.063 7.952.345 1.826 1.226 3.873 2.641 6.139a18.384 18.384 0 0 1-.79-3.123c-.855-5.019.195-9.758 3.151-14.221 2.957-4.462 6.97-7.316 12.041-8.56 3.386-.749 6.597-.633 9.634.347m.378-.76l.129-.296c-5.452-2.039-10.874-2.006-16.262.097-5.651 2.164-9.722 6.021-12.214 11.568-1.168 2.661-1.487 5.298-.957 7.91.452 2.519 1.736 5.287 3.852 8.302a13.745 13.745 0 0 0 2.29 2.414c.127.115.425.305.896.57a9.122 9.122 0 0 1-1.015-1.505 4.394 4.394 0 0 1-.43-.627c-2.13-3.051-3.424-5.792-3.885-8.228-.529-2.612-.199-5.273.99-7.985 2.47-5.498 6.559-9.361 12.267-11.588 2.318-.864 4.626-1.335 6.924-1.416a20.353 20.353 0 0 1 7.415.784m-.044.201l.044-.201a20.37 20.37 0 0 0-7.414-.784c2.453-.099 4.91.229 7.37.985M194.09 85.046l-4.619-17.806-40.48 82.344-17.396 35.344-4.016 8.552c-11.011 1.723-18.423 6.598-22.236 14.622-2 4.089-2.755 8.224-2.267 12.405.521 4.371 2.396 8.338 5.624 11.899l-8.594 17.078 12.282-1.974 5.833-11.591c-1.883-1.268-3.417-2.792-4.604-4.575-.471-.266-.77-.455-.896-.57a13.745 13.745 0 0 1-2.29-2.414c-2.116-3.015-3.4-5.783-3.852-8.302-.53-2.612-.211-5.249.957-7.91 2.492-5.548 6.563-9.404 12.214-11.568 5.388-2.103 10.81-2.135 16.262-.097l28.722-57.043 29.356-58.394z"/><path fill="#FDA85B" d="M88.984 270.922l.36-.018 9.811-19.454-46.047 8.408-37.66 67.273c3.12 2.133 6.042 3.811 8.767 5.036 1.626.712 3.191 1.267 4.692 1.661 5.732 1.602 10.67.962 14.815-1.921l7.591-8.969-.931-.188.931.188.033-.074-.436-1.115c-2.876-7.58-2.563-13.688.939-18.322 3.538-4.854 9.264-6.72 17.178-5.6l6.677-9.897c-2.699-5.974-2.476-10.637.669-13.988l1.102-1.104c2.805-2.443 6.457-3.132 10.958-2.069.169.015.346.049.529.099l-.134-.499.134.499.022.054m10.172-19.472l.949-1.965-45.456 7.567-1.54 2.806 46.047-8.408m175.502-130.318l-19.589-11.413-73.832 75.076-25.876 26.337c2.76 13.14.309 23.348-7.351 30.626-3.877 3.884-8.308 6.349-13.292 7.394-4.807.978-10.072.623-15.796-1.066l-14.114 14.394-11.407 12.54-.342.379.063.159.314.491 2.229 3.356c.409.943.673 1.883.792 2.816-.057.063-.064.148-.023.255-.008.083-.002.205.019.36a.43.43 0 0 0 .009.18l.042.107.021.053-.033.073.021.054-.032.073c.056 1.816-.498 3.646-1.658 5.487a.873.873 0 0 1-.584.229 22.386 22.386 0 0 1-2.524 2.64c-2.782 2.188-5.917 2.635-9.404 1.34l-7.58 8.842c1.998 2.815 2.833 6.002 2.506 9.562a25.835 25.835 0 0 1-.675 3.449c-1.237 4.896-3.818 8.537-7.747 10.929l-.437.292-.053.021-.159.063c-.071.028-.11.085-.118.168l-.16.063c-3.606 1.856-7.42 2.079-11.444.667l-5.274 8.309c-.043 2.509.007 4.47.151 5.885.36 5.007 1.471 9.109 3.331 12.303 1.973 3.276 4.911 5.888 8.817 7.835l59.661-67.892 69.626-79.257 81.902-93.179M189.471 67.24l-.02-.361-20.272-12.065-52.823 91.696-1.365 2.31-9.925 17.905-50.416 90.327 45.456-7.567 8.594-17.078c-3.228-3.562-5.104-7.528-5.624-11.899-.488-4.182.268-8.316 2.267-12.405 3.813-8.024 11.225-12.899 22.236-14.622l4.016-8.552 17.396-35.344 40.48-82.345z"/><path fill="#2C2C2C" d="M115.67 232.688a15.41 15.41 0 0 0-.727-.451c.87.764 1.807 1.439 2.813 2.026 2.244 1.249 4.468 1.872 6.673 1.87-1.624-.184-3.27-.686-4.938-1.504-1.162-.363-2.436-1.012-3.821-1.941m-3.07-2.847c.292.541.63 1.042 1.015 1.505.316.285.759.582 1.329.891a18.232 18.232 0 0 1-2.344-2.396m-1.133-2.743c.29.948.667 1.864 1.133 2.743a18.232 18.232 0 0 0 2.344 2.396c.21.121.454.273.727.451 1.385.93 2.659 1.578 3.822 1.941-.422-.244-.869-.5-1.34-.765-2.258-1.283-4.074-2.903-5.45-4.858a12.17 12.17 0 0 1-1.236-1.908m28.23-2.562c-.694 1.048-1.263 1.842-1.706 2.383-1.102 1.573-2.672 3.044-4.712 4.412-2.089 1.347-4.115 2.28-6.076 2.801-2.167.519-3.961.79-5.381.813-.672.057-1.449-.048-2.33-.316 1.668.818 3.314 1.32 4.938 1.504l.053-.021c.205.002.361-.019.467-.06l.106-.043c1.691-.168 3.397-.61 5.121-1.324 1.085-.464 2.81-1.278 5.172-2.446 3.916-1.691 5.943-5.343 6.083-10.953.103-2.981-.683-5.309-2.358-6.983.215.447.395.907.539 1.382.681 2.267 1.062 4.08 1.143 5.438-.021 1.315-.373 2.451-1.059 3.413m-.624-10.233a13.492 13.492 0 0 0-.637-1.161c-1.7-1.215-3.777-2.142-6.231-2.777-1.587-.402-3.081-.514-4.481-.334 1.188-.096 2.484.031 3.887.382 3.061.725 5.517 1.994 7.367 3.805.015.034.046.062.095.085m-.636-1.161c.223.362.436.749.637 1.161 1.676 1.675 2.461 4.002 2.358 6.983-.14 5.61-2.167 9.262-6.083 10.953-2.362 1.168-4.087 1.982-5.172 2.446-1.723.714-3.43 1.156-5.121 1.324 1.852-.067 3.747-.5 5.682-1.297 1.121-.479 2.874-1.326 5.258-2.543 3.794-1.685 5.823-5.336 6.083-10.951.103-2.981-.715-5.339-2.453-7.071a8.113 8.113 0 0 0-1.189-1.005m1.331-9.467c-1.385-.93-2.807-1.642-4.265-2.134-3.038-.98-6.249-1.096-9.633-.347-5.071 1.243-9.084 4.098-12.041 8.56-2.956 4.463-4.007 9.202-3.151 14.221.175 1.076.438 2.116.79 3.123.334.646.746 1.282 1.235 1.908 1.376 1.955 3.192 3.575 5.45 4.858.471.265.917.521 1.34.765.881.269 1.658.373 2.33.316 1.42-.023 3.214-.295 5.381-.813 1.961-.521 3.987-1.454 6.076-2.801 2.04-1.368 3.611-2.839 4.712-4.412.443-.541 1.011-1.335 1.706-2.383.686-.962 1.038-2.099 1.058-3.414-.081-1.357-.462-3.171-1.143-5.438a9.743 9.743 0 0 0-.539-1.382c-.049-.022-.08-.051-.095-.086-1.851-1.811-4.307-3.08-7.367-3.805-1.403-.351-2.699-.478-3.887-.382-2.715.16-5.162 1.218-7.341 3.171 2.179-1.953 4.626-3.011 7.341-3.171-2.912.074-5.564 1.129-7.956 3.165 2.392-2.036 5.044-3.091 7.956-3.165 1.4-.18 2.895-.068 4.481.334 2.454.636 4.531 1.563 6.231 2.777-.754-1.095-1.753-2.032-2.998-2.813-5.279-3.374-11.42-2.571-18.423 2.409 7.003-4.98 13.145-5.783 18.423-2.409 1.245.78 2.244 1.718 2.998 2.813.449.314.847.65 1.189 1.006 1.738 1.732 2.556 4.09 2.453 7.071-.26 5.615-2.288 9.267-6.083 10.951-2.385 1.217-4.138 2.064-5.258 2.543-1.936.797-3.83 1.229-5.682 1.297l-.106.043a1.319 1.319 0 0 1-.467.06l-.053.021c-2.206.002-4.43-.621-6.673-1.87a18.062 18.062 0 0 1-2.813-2.026c-.57-.309-1.013-.605-1.329-.891 1.187 1.783 2.721 3.308 4.604 4.575l.074.032c3.029 2.005 6.29 2.979 9.781 2.924a25.521 25.521 0 0 0 4.076-.548c5.049-1.194 9.065-3.987 12.049-8.38 2.305-3.514 3.455-7.211 3.453-11.09l-.02-.054a22.258 22.258 0 0 0-.312-3.31c-.846-5.1-3.365-9.041-7.552-11.819z"/><path fill="none" stroke="#412001" stroke-width="2" stroke-linecap="round" stroke-linejoin="round" d="M54.649 257.053l50.416-90.327 9.925-17.905 1.365-2.31 52.823-91.696L189.45 66.88l.02.361 4.619 17.806-29.358 58.396-28.722 57.043m14.767 15.071l2.577-2.66-.154-.553.13-.296M189.471 67.24l-40.48 82.344-17.396 35.344-4.016 8.552c-11.011 1.723-18.423 6.598-22.236 14.622-2 4.089-2.755 8.224-2.267 12.405.521 4.371 2.396 8.338 5.624 11.899l-8.594 17.078m18.113-13.563l-5.833 11.591m23.623-47.028l-.129.296m14.555 15.156l.342-.379m.062.159l3.046-3.026-.531.207m2.007-1.764l25.876-26.337 73.832-75.076 19.589 11.413 1.521 16.931-77.946 90.286-46.706 54.136L80.72 364.53l-17.253-3.071c-3.906-1.947-6.845-4.559-8.817-7.835-1.86-3.193-2.97-7.296-3.331-12.303l-22.411-7.492a32.13 32.13 0 0 1-4.692-1.661c-2.725-1.226-5.647-2.903-8.767-5.036l37.66-67.273m82.771-59.078l-.044.201m13.379 16.226l1.22-1.272m.008.18l.396-.4m-31.553 32.045l-.363.325c5.724 1.689 10.99 2.044 15.796 1.066 4.984-1.045 9.415-3.51 13.292-7.394 7.659-7.278 10.11-17.486 7.351-30.626l-.085.095-1.069 1.029-.322.433m-6.253 6.117l1.582-1.598m.041.105l1.188-1.197m-14.608-15.134l-.333.559m-7.429 37.336l-3.817 3.88-.375.452-1.432 1.356-1.443 1.482m26.645-27.188l1.604-1.546m-49.152 32.172l-.949 1.965m13.232-3.938l-.873 1.689m7.772-1.44l1.721-1.713m-9.493 3.153l-6.705 13.278 14.114-14.394m-29.578 22.819l-.36.018.295.13.065-.148 9.811-19.454m-46.047 8.408l1.54-2.806m34.18 13.317l.134.499.021.054m-37.669 52.017l.033-.074-.436-1.115c-2.876-7.58-2.563-13.688.939-18.322 3.538-4.854 9.264-6.72 17.178-5.6l6.677-9.897c-2.699-5.974-2.476-10.637.669-13.988l1.102-1.104c2.805-2.443 6.457-3.132 10.958-2.069.169.015.346.049.529.099m4.042 4.55l.395-.399 11.407-12.54m-11.686 13.078a.444.444 0 0 1-.115-.139l.053-.021.342-.379m3.056 7.203a10.39 10.39 0 0 0-.792-2.816l-2.229-3.356a81.975 81.975 0 0 0-.314-.491l3.335 6.663c-.057.063-.064.148-.023.255-.008.083-.002.205.019.36a.43.43 0 0 0 .009.18l.042.107.021.053-.033.073.021.054-.032.073c.056 1.816-.498 3.646-1.658 5.487a.873.873 0 0 1-.584.229 22.386 22.386 0 0 1-2.524 2.64c-2.782 2.188-5.917 2.635-9.404 1.34l-7.58 8.842c1.998 2.815 2.833 6.002 2.506 9.562a25.835 25.835 0 0 1-.675 3.449c-1.237 4.896-3.818 8.537-7.747 10.929l-.437.292-.053.021-.159.063c-.071.028-.11.085-.118.168l-.16.063c-3.606 1.856-7.42 2.079-11.444.667l-5.274 8.309c-.043 2.509.007 4.47.151 5.885m41.8-65.765l-.063-.159m3.444 7.725c-.022.049-.026.092-.012.126l-2.254 5.844c1.45-1.832 2.197-3.737 2.242-5.717m-67.57 50.452c5.732 1.602 10.67.962 14.815-1.921l7.591-8.969-.931-.188m18.429 3.103l-.49.313m206.335-205.035l-81.903 93.178-69.626 79.257-59.661 67.892"/><g><path fill="none" stroke="#606060" stroke-width="7" stroke-linecap="round" stroke-linejoin="round" d="M140.201 202.587c4.728 2.485 8.102 6.317 10.122 11.492.192.495.345.989.453 1.478m-14.896-14.776c.966.276 1.942.631 2.928 1.063.457.23.921.478 1.394.743m3.348 2.615c2.708 2.334 4.771 5.268 6.189 8.798.264.675.495 1.319.695 1.936m.342-.379l.063.159m-97.73 44.142l-4.3.76m87.027-59.636c.747.24 1.514.532 2.304.878 2.034.922 3.838 2.036 5.41 3.342m6.885 10.734c-.021.05-.019.109.009.181m.395-.401c1.604 5.054 1.325 10.043-.836 14.973-1.334 2.972-3.177 5.732-5.53 8.285-2.511 2.777-5.124 4.613-7.838 5.51l-.585.229-16.764 3.049m31.157-31.646c1.393 4.931 1.029 9.811-1.088 14.641-1.298 2.957-3.13 5.695-5.497 8.211-2.327 2.624-4.734 4.464-7.224 5.516m-25.167-17.386c.334.646.746 1.282 1.235 1.908 1.376 1.955 3.192 3.575 5.45 4.858.471.265.917.521 1.34.765m19.581-20.326c-.049-.022-.08-.051-.095-.086-1.851-1.811-4.307-3.08-7.367-3.805-1.403-.351-2.699-.478-3.887-.382-2.715.16-5.162 1.218-7.341 3.171m18.69 1.102c1.676 1.675 2.461 4.002 2.358 6.983-.14 5.61-2.167 9.262-6.083 10.953-2.362 1.168-4.087 1.982-5.172 2.446-1.723.714-3.43 1.156-5.121 1.324 1.852-.067 3.747-.5 5.682-1.297 1.121-.479 2.874-1.326 5.258-2.543 3.794-1.685 5.823-5.336 6.083-10.951.103-2.981-.715-5.339-2.453-7.071a8.18 8.18 0 0 0-1.189-1.006c-1.7-1.215-3.777-2.142-6.231-2.777-1.587-.402-3.081-.514-4.481-.334-2.912.074-5.564 1.129-7.956 3.165m-7.168 16.646a4.394 4.394 0 0 1-.43-.627c-2.13-3.051-3.424-5.792-3.885-8.228-.529-2.612-.199-5.273.99-7.985 2.47-5.498 6.559-9.361 12.267-11.588 2.318-.864 4.626-1.335 6.924-1.416a20.33 20.33 0 0 1 7.414.784m-24.413 26.317c-1.415-2.266-2.295-4.313-2.641-6.139-.458-2.641-.104-5.291 1.063-7.952 2.492-5.548 6.546-9.397 12.161-11.548 2.198-.858 4.336-1.345 6.416-1.462 2.453-.099 4.91.229 7.37.985m-10.78 35.028l-.106.043a1.319 1.319 0 0 1-.467.06l-.053.021c-2.206.002-4.43-.621-6.673-1.87a18.062 18.062 0 0 1-2.813-2.026M99.156 251.45l12.358-2.249 7.772-1.44m-4.343-15.525a18.234 18.234 0 0 1-2.344-2.396m-13.443 21.61l-46.047 8.408m71.321-23.725c-1.624-.184-3.27-.686-4.938-1.504"/></g><g><path fill="none" stroke="#A7A7A7" stroke-width="1.5" stroke-linecap="round" stroke-linejoin="round" d="M136.009 200.484c.211.123.451.212.719.271a20.493 20.493 0 0 1 3.473 1.832m-27.814 44.925l-12.282 1.974m13.51-18.14c-.471-.266-.77-.455-.896-.57a13.745 13.745 0 0 1-2.29-2.414c-2.116-3.015-3.4-5.783-3.852-8.302-.53-2.612-.211-5.249.957-7.91 2.492-5.548 6.563-9.404 12.214-11.568 5.388-2.103 10.81-2.135 16.262-.097m4.191 2.102a17.883 17.883 0 0 1 3.349 2.615c1.969 2.01 3.417 4.468 4.347 7.373a73.325 73.325 0 0 1 1.318 4.633l.041.105m-29.764 17.316c.881.269 1.658.373 2.33.316 1.42-.023 3.214-.295 5.381-.813 1.961-.521 3.987-1.454 6.076-2.801 2.04-1.368 3.611-2.839 4.712-4.412.443-.541 1.011-1.335 1.706-2.383.686-.962 1.038-2.099 1.058-3.414-.081-1.357-.462-3.171-1.143-5.438a9.743 9.743 0 0 0-.539-1.382 13.492 13.492 0 0 0-.637-1.161m-21.42-.403c7.003-4.98 13.145-5.783 18.423-2.409 1.245.78 2.244 1.718 2.998 2.813m-23.494 19.094c-.57-.309-1.013-.605-1.329-.891m7.393 14.703l13.28-2.242c5.351-2.619 9.186-5.667 11.505-9.146 2.22-3.522 3.579-6.687 4.076-9.496.286-1.99.081-4.605-.612-7.85m-28.249 28.734l-8.62 1.464m7.105-12.883c-1.163-.363-2.437-1.012-3.822-1.941a15.41 15.41 0 0 0-.727-.451m-67.194 25.976l6.9-1.16 45.456-7.567"/></g></svg>