<?xml version="1.0" encoding="utf-8"?>
<!-- Generator: Adobe Illustrator 16.0.0, SVG Export Plug-In . SVG Version: 6.00 Build 0)  -->
<!DOCTYPE svg PUBLIC "-//W3C//DTD SVG 1.1//EN" "http://www.w3.org/Graphics/SVG/1.1/DTD/svg11.dtd">
<svg version="1.1" id="Layer_1" xmlns="http://www.w3.org/2000/svg" xmlns:xlink="http://www.w3.org/1999/xlink" x="0px" y="0px"
	 width="285px" height="427px" viewBox="0 0 285 427" enable-background="new 0 0 285 427" xml:space="preserve">
<g transform="matrix( 1, 0, 0, 1, 0,0) ">
	<g>
		<g id="Layer0_0_FILL">
			<path fill="#BE6B34" d="M63.467,361.459l17.253,3.071l70.807-82.045l46.706-54.136l77.946-90.286l-1.521-16.931l-81.903,93.178
				l-69.626,79.257L63.467,361.459 M68.323,326.168l0.053-0.021l0.437-0.292C68.65,325.959,68.487,326.063,68.323,326.168
				 M93.436,276.049c-0.104-0.164-0.209-0.328-0.314-0.491l3.336,6.664c-0.12-0.934-0.383-1.873-0.792-2.816L93.436,276.049
				 M93.401,275.02l-0.395,0.399l0.053-0.021L93.401,275.02 M111.514,249.201l-12.358,2.249l-9.811,19.454l-0.065,0.147l-0.295-0.13
				l-0.021-0.054c-0.183-0.05-0.36-0.084-0.529-0.099c-4.5-1.063-8.153-0.374-10.958,2.069l-1.102,1.104
				c-3.145,3.352-3.368,8.015-0.669,13.988l-6.677,9.897c-7.914-1.12-13.64,0.746-17.178,5.6
				c-3.503,4.635-3.816,10.742-0.939,18.322c0.138,0.354,0.284,0.727,0.436,1.115l-0.033,0.074l-7.591,8.969
				c-4.145,2.883-9.083,3.522-14.815,1.921l22.411,7.492c-0.144-1.415-0.194-3.376-0.151-5.885l5.274-8.309
				c4.024,1.412,7.838,1.189,11.444-0.667l0.16-0.063c0.008-0.083,0.047-0.14,0.118-0.168c0.071-0.027,0.124-0.049,0.159-0.063
				c0.164-0.104,0.327-0.209,0.49-0.313c3.928-2.392,6.51-6.033,7.747-10.929c0.313-1.185,0.539-2.334,0.675-3.449
				c0.327-3.56-0.508-6.746-2.506-9.562l7.58-8.842c3.486,1.295,6.622,0.848,9.404-1.34c0.968-0.868,1.809-1.748,2.524-2.64
				l2.254-5.844c-0.014-0.034-0.01-0.077,0.012-0.126l-0.042-0.107c-0.014-0.035-0.017-0.096-0.009-0.18
				c-0.021-0.155-0.026-0.277-0.019-0.36c-0.041-0.106-0.034-0.191,0.023-0.255l-3.336-6.664c-0.063-0.057-0.101-0.104-0.115-0.139
				l0.395-0.399l11.407-12.54L111.514,249.201 M100.104,249.485l-0.949,1.965l12.358-2.249l0.873-1.689L100.104,249.485
				 M136.635,244.483c2.714-0.896,5.327-2.732,7.838-5.51c2.354-2.553,4.196-5.313,5.53-8.285c2.161-4.93,2.439-9.919,0.836-14.973
				l-0.396,0.4c1.393,4.931,1.029,9.811-1.088,14.641c-1.298,2.957-3.13,5.695-5.497,8.211
				C141.531,241.592,139.124,243.432,136.635,244.483 M132.15,238.329c-1.395,0.299-2.754,0.481-4.076,0.548l-3.817,3.88
				l-0.375,0.452l-1.432,1.356l-1.443,1.482l13.28-2.242c5.351-2.619,9.186-5.667,11.505-9.146c2.22-3.522,3.579-6.687,4.076-9.496
				c0.286-1.99,0.081-4.605-0.612-7.85l-1.604,1.546c0.002,3.879-1.148,7.576-3.453,11.09
				C141.215,234.342,137.199,237.135,132.15,238.329 M136.05,244.712c0.177-0.068,0.373-0.146,0.585-0.229
				c2.489-1.052,4.896-2.892,7.224-5.516c2.367-2.516,4.199-5.254,5.497-8.211c2.117-4.83,2.48-9.71,1.088-14.641l-1.188,1.197
				c0.693,3.244,0.898,5.859,0.612,7.85c-0.497,2.81-1.856,5.974-4.076,9.496c-2.319,3.479-6.154,6.527-11.505,9.146l-13.28,2.242
				l-1.721,1.713L136.05,244.712 M136.635,244.483c-0.212,0.083-0.408,0.16-0.585,0.229l-16.764,3.049l-0.363,0.325
				c5.724,1.689,10.99,2.044,15.796,1.066c4.984-1.045,9.415-3.51,13.292-7.394c7.659-7.278,10.11-17.486,7.351-30.626l-0.085,0.095
				l-1.069,1.029l-0.322,0.433l-3.046,3.026c1.604,5.054,1.325,10.043-0.836,14.973c-1.334,2.972-3.177,5.732-5.53,8.285
				C141.962,241.751,139.349,243.587,136.635,244.483 M128.466,199.997c-2.297,0.08-4.605,0.552-6.924,1.416
				c-5.708,2.227-9.797,6.09-12.267,11.588c-1.189,2.712-1.519,5.373-0.99,7.985c0.46,2.436,1.755,5.177,3.885,8.228
				c0.132,0.232,0.275,0.442,0.43,0.627c-0.466-0.879-0.843-1.795-1.133-2.743c-1.415-2.266-2.295-4.313-2.641-6.139
				c-0.458-2.641-0.104-5.291,1.063-7.952c2.492-5.548,6.546-9.397,12.161-11.548C124.249,200.601,126.387,200.114,128.466,199.997
				 M135.502,201.541l0.333-0.559c-2.46-0.756-4.917-1.084-7.37-0.985c-2.079,0.117-4.217,0.604-6.416,1.462
				c-5.615,2.151-9.669,6-12.161,11.548c-1.167,2.661-1.522,5.312-1.063,7.952c0.345,1.826,1.226,3.873,2.641,6.139
				c-0.352-1.007-0.615-2.047-0.79-3.123c-0.855-5.019,0.195-9.758,3.151-14.221c2.957-4.462,6.97-7.316,12.041-8.56
				C129.254,200.445,132.465,200.561,135.502,201.541 M135.88,200.781l0.129-0.296c-5.452-2.039-10.874-2.006-16.262,0.097
				c-5.651,2.164-9.722,6.021-12.214,11.568c-1.168,2.661-1.487,5.298-0.957,7.91c0.452,2.519,1.736,5.287,3.852,8.302
				c0.685,0.918,1.448,1.722,2.29,2.414c0.127,0.115,0.425,0.305,0.896,0.57c-0.385-0.463-0.723-0.964-1.015-1.505
				c-0.154-0.185-0.297-0.395-0.43-0.627c-2.13-3.051-3.424-5.792-3.885-8.228c-0.529-2.612-0.199-5.273,0.99-7.985
				c2.47-5.498,6.559-9.361,12.267-11.588c2.318-0.864,4.626-1.335,6.924-1.416C130.962,199.799,133.434,200.061,135.88,200.781
				 M135.836,200.982l0.044-0.201c-2.446-0.72-4.917-0.981-7.414-0.784C130.919,199.898,133.376,200.226,135.836,200.982
				 M194.09,85.046l-4.619-17.806l-40.48,82.344l-17.396,35.344l-4.016,8.552c-11.011,1.723-18.423,6.598-22.236,14.622
				c-2,4.089-2.755,8.224-2.267,12.405c0.521,4.371,2.396,8.338,5.624,11.899l-8.594,17.078l12.282-1.974l5.833-11.591
				c-1.883-1.268-3.417-2.792-4.604-4.575c-0.471-0.266-0.77-0.455-0.896-0.57c-0.842-0.692-1.605-1.496-2.29-2.414
				c-2.116-3.015-3.4-5.783-3.852-8.302c-0.53-2.612-0.211-5.249,0.957-7.91c2.492-5.548,6.563-9.404,12.214-11.568
				c5.388-2.103,10.81-2.135,16.262-0.097l28.722-57.043L194.09,85.046z"/>
			<path fill="#FDA85B" d="M88.984,270.922l0.36-0.018l9.811-19.454l-46.047,8.408l-37.66,67.273
				c3.12,2.133,6.042,3.811,8.767,5.036c1.626,0.712,3.191,1.267,4.692,1.661c5.732,1.602,10.67,0.962,14.815-1.921l7.591-8.969
				l-0.931-0.188l0.931,0.188l0.033-0.074c-0.152-0.389-0.298-0.762-0.436-1.115c-2.876-7.58-2.563-13.688,0.939-18.322
				c3.538-4.854,9.264-6.72,17.178-5.6l6.677-9.897c-2.699-5.974-2.476-10.637,0.669-13.988l1.102-1.104
				c2.805-2.443,6.457-3.132,10.958-2.069c0.169,0.015,0.346,0.049,0.529,0.099l-0.134-0.499l0.134,0.499L88.984,270.922
				 M99.156,251.45l0.949-1.965l-45.456,7.567l-1.54,2.806L99.156,251.45 M274.658,121.132l-19.589-11.413l-73.832,75.076
				l-25.876,26.337c2.76,13.14,0.309,23.348-7.351,30.626c-3.877,3.884-8.308,6.349-13.292,7.394
				c-4.807,0.978-10.072,0.623-15.796-1.066l-14.114,14.394l-11.407,12.54l-0.342,0.379l0.063,0.159
				c0.104,0.163,0.21,0.327,0.314,0.491l2.229,3.356c0.409,0.943,0.673,1.883,0.792,2.816c-0.057,0.063-0.064,0.148-0.023,0.255
				c-0.008,0.083-0.002,0.205,0.019,0.36c-0.008,0.084-0.005,0.145,0.009,0.18l0.042,0.107l0.021,0.053l-0.033,0.073l0.021,0.054
				l-0.032,0.073c0.056,1.816-0.498,3.646-1.658,5.487c-0.149,0.142-0.344,0.218-0.584,0.229c-0.715,0.892-1.556,1.771-2.524,2.64
				c-2.782,2.188-5.917,2.635-9.404,1.34l-7.58,8.842c1.998,2.815,2.833,6.002,2.506,9.562c-0.137,1.115-0.362,2.265-0.675,3.449
				c-1.237,4.896-3.818,8.537-7.747,10.929l-0.437,0.292l-0.053,0.021c-0.036,0.014-0.088,0.035-0.159,0.063
				c-0.071,0.028-0.11,0.085-0.118,0.168l-0.16,0.063c-3.606,1.856-7.42,2.079-11.444,0.667l-5.274,8.309
				c-0.043,2.509,0.007,4.47,0.151,5.885c0.36,5.007,1.471,9.109,3.331,12.303c1.973,3.276,4.911,5.888,8.817,7.835l59.661-67.892
				l69.626-79.257L274.658,121.132 M189.471,67.24l-0.02-0.361l-20.272-12.065l-52.823,91.696l-1.365,2.31l-9.925,17.905
				l-50.416,90.327l45.456-7.567l8.594-17.078c-3.228-3.562-5.104-7.528-5.624-11.899c-0.488-4.182,0.268-8.316,2.267-12.405
				c3.813-8.024,11.225-12.899,22.236-14.622l4.016-8.552l17.396-35.344L189.471,67.24z"/>
			<path fill="#2C2C2C" d="M115.67,232.688c-0.273-0.178-0.516-0.33-0.727-0.451c0.87,0.764,1.807,1.439,2.813,2.026
				c2.244,1.249,4.468,1.872,6.673,1.87c-1.624-0.184-3.27-0.686-4.938-1.504C118.329,234.266,117.055,233.617,115.67,232.688
				 M112.6,229.841c0.292,0.541,0.63,1.042,1.015,1.505c0.316,0.285,0.759,0.582,1.329,0.891
				C114.087,231.508,113.306,230.71,112.6,229.841 M111.467,227.098c0.29,0.948,0.667,1.864,1.133,2.743
				c0.706,0.869,1.487,1.667,2.344,2.396c0.21,0.121,0.454,0.273,0.727,0.451c1.385,0.93,2.659,1.578,3.822,1.941
				c-0.422-0.244-0.869-0.5-1.34-0.765c-2.258-1.283-4.074-2.903-5.45-4.858C112.213,228.38,111.801,227.744,111.467,227.098
				 M139.697,224.536c-0.694,1.048-1.263,1.842-1.706,2.383c-1.102,1.573-2.672,3.044-4.712,4.412
				c-2.089,1.347-4.115,2.28-6.076,2.801c-2.167,0.519-3.961,0.79-5.381,0.813c-0.672,0.057-1.449-0.048-2.33-0.316
				c1.668,0.818,3.314,1.32,4.938,1.504l0.053-0.021c0.205,0.002,0.361-0.019,0.467-0.06c0.036-0.015,0.071-0.028,0.106-0.043
				c1.691-0.168,3.397-0.61,5.121-1.324c1.085-0.464,2.81-1.278,5.172-2.446c3.916-1.691,5.943-5.343,6.083-10.953
				c0.103-2.981-0.683-5.309-2.358-6.983c0.215,0.447,0.395,0.907,0.539,1.382c0.681,2.267,1.062,4.08,1.143,5.438
				C140.735,222.438,140.383,223.574,139.697,224.536 M139.073,214.303c-0.201-0.412-0.414-0.799-0.637-1.161
				c-1.7-1.215-3.777-2.142-6.231-2.777c-1.587-0.402-3.081-0.514-4.481-0.334c1.188-0.096,2.484,0.031,3.887,0.382
				c3.061,0.725,5.517,1.994,7.367,3.805C138.993,214.252,139.024,214.28,139.073,214.303 M138.437,213.142
				c0.223,0.362,0.436,0.749,0.637,1.161c1.676,1.675,2.461,4.002,2.358,6.983c-0.14,5.61-2.167,9.262-6.083,10.953
				c-2.362,1.168-4.087,1.982-5.172,2.446c-1.723,0.714-3.43,1.156-5.121,1.324c1.852-0.067,3.747-0.5,5.682-1.297
				c1.121-0.479,2.874-1.326,5.258-2.543c3.794-1.685,5.823-5.336,6.083-10.951c0.103-2.981-0.715-5.339-2.453-7.071
				C139.283,213.792,138.886,213.456,138.437,213.142 M139.768,203.675c-1.385-0.93-2.807-1.642-4.265-2.134
				c-3.038-0.98-6.249-1.096-9.633-0.347c-5.071,1.243-9.084,4.098-12.041,8.56c-2.956,4.463-4.007,9.202-3.151,14.221
				c0.175,1.076,0.438,2.116,0.79,3.123c0.334,0.646,0.746,1.282,1.235,1.908c1.376,1.955,3.192,3.575,5.45,4.858
				c0.471,0.265,0.917,0.521,1.34,0.765c0.881,0.269,1.658,0.373,2.33,0.316c1.42-0.023,3.214-0.295,5.381-0.813
				c1.961-0.521,3.987-1.454,6.076-2.801c2.04-1.368,3.611-2.839,4.712-4.412c0.443-0.541,1.011-1.335,1.706-2.383
				c0.686-0.962,1.038-2.099,1.058-3.414c-0.081-1.357-0.462-3.171-1.143-5.438c-0.145-0.475-0.324-0.935-0.539-1.382
				c-0.049-0.022-0.08-0.051-0.095-0.086c-1.851-1.811-4.307-3.08-7.367-3.805c-1.403-0.351-2.699-0.478-3.887-0.382
				c-2.715,0.16-5.162,1.218-7.341,3.171c2.179-1.953,4.626-3.011,7.341-3.171c-2.912,0.074-5.564,1.129-7.956,3.165
				c2.392-2.036,5.044-3.091,7.956-3.165c1.4-0.18,2.895-0.068,4.481,0.334c2.454,0.636,4.531,1.563,6.231,2.777
				c-0.754-1.095-1.753-2.032-2.998-2.813c-5.279-3.374-11.42-2.571-18.423,2.409c7.003-4.98,13.145-5.783,18.423-2.409
				c1.245,0.78,2.244,1.718,2.998,2.813c0.449,0.314,0.847,0.65,1.189,1.006c1.738,1.732,2.556,4.09,2.453,7.071
				c-0.26,5.615-2.288,9.267-6.083,10.951c-2.385,1.217-4.138,2.064-5.258,2.543c-1.936,0.797-3.83,1.229-5.682,1.297
				c-0.036,0.015-0.071,0.028-0.106,0.043c-0.106,0.041-0.262,0.062-0.467,0.06l-0.053,0.021c-2.206,0.002-4.43-0.621-6.673-1.87
				c-1.006-0.587-1.943-1.263-2.813-2.026c-0.57-0.309-1.013-0.605-1.329-0.891c1.187,1.783,2.721,3.308,4.604,4.575l0.074,0.032
				c3.029,2.005,6.29,2.979,9.781,2.924c1.322-0.066,2.681-0.249,4.076-0.548c5.049-1.194,9.065-3.987,12.049-8.38
				c2.305-3.514,3.455-7.211,3.453-11.09l-0.02-0.054c-0.021-1.096-0.123-2.198-0.312-3.31
				C146.474,210.394,143.955,206.453,139.768,203.675z"/>
		</g>
	</g>
	<g>
		<path id="Layer0_0_1_STROKES" fill="none" stroke="#412001" stroke-width="2" stroke-linecap="round" stroke-linejoin="round" d="
			M54.649,257.053l50.416-90.327l9.925-17.905l1.365-2.31l52.823-91.696l20.272,12.065l0.02,0.361l4.619,17.806l-29.358,58.396
			l-28.722,57.043 M150.776,215.557l2.577-2.66l-0.154-0.553l0.13-0.296 M189.471,67.24l-40.48,82.344l-17.396,35.344l-4.016,8.552
			c-11.011,1.723-18.423,6.598-22.236,14.622c-2,4.089-2.755,8.224-2.267,12.405c0.521,4.371,2.396,8.338,5.624,11.899
			l-8.594,17.078 M118.219,235.921l-5.833,11.591 M136.009,200.484l-0.129,0.296 M150.435,215.936l0.342-0.379 M150.839,215.716
			l3.046-3.026l-0.531,0.207 M155.361,211.133l25.876-26.337l73.832-75.076l19.589,11.413l1.521,16.931l-77.946,90.286
			l-46.706,54.136L80.72,364.53l-17.253-3.071c-3.906-1.947-6.845-4.559-8.817-7.835c-1.86-3.193-2.97-7.296-3.331-12.303
			l-22.411-7.492c-1.501-0.395-3.066-0.949-4.692-1.661c-2.725-1.226-5.647-2.903-8.767-5.036l37.66-67.273 M135.88,200.781
			l-0.044,0.201 M149.215,217.208l1.22-1.272 M150.443,216.116l0.396-0.4 M119.286,247.761l-0.363,0.325
			c5.724,1.689,10.99,2.044,15.796,1.066c4.984-1.045,9.415-3.51,13.292-7.394c7.659-7.278,10.11-17.486,7.351-30.626l-0.085,0.095
			l-1.069,1.029l-0.322,0.433 M147.633,218.806l1.582-1.598 M149.256,217.313l1.188-1.197 M135.836,200.982l-0.333,0.559
			 M128.074,238.877l-3.817,3.88l-0.375,0.452l-1.432,1.356l-1.443,1.482 M147.652,218.859l1.604-1.546 M100.104,249.485
			l-0.949,1.965 M112.387,247.512l-0.873,1.689 M119.286,247.761l1.721-1.713 M111.514,249.201l-6.705,13.278l14.114-14.394
			 M89.345,270.904l-0.36,0.018l0.295,0.13L89.345,270.904l9.811-19.454 M53.109,259.858l1.54-2.806 M88.829,270.369l0.134,0.499
			l0.021,0.054 M51.315,322.939l0.033-0.074c-0.152-0.389-0.298-0.762-0.436-1.115c-2.876-7.58-2.563-13.688,0.939-18.322
			c3.538-4.854,9.264-6.72,17.178-5.6l6.677-9.897c-2.699-5.974-2.476-10.637,0.669-13.988l1.102-1.104
			c2.805-2.443,6.457-3.132,10.958-2.069c0.169,0.015,0.346,0.049,0.529,0.099 M93.006,275.419l0.395-0.399l11.407-12.54
			 M93.122,275.558c-0.063-0.057-0.101-0.104-0.115-0.139l0.053-0.021l0.342-0.379 M96.458,282.222
			c-0.12-0.934-0.383-1.873-0.792-2.816l-2.229-3.356c-0.104-0.164-0.209-0.328-0.314-0.491L96.458,282.222
			c-0.057,0.063-0.064,0.148-0.023,0.255c-0.008,0.083-0.002,0.205,0.019,0.36c-0.008,0.084-0.005,0.145,0.009,0.18l0.042,0.107
			l0.021,0.053l-0.033,0.073l0.021,0.054l-0.032,0.073c0.056,1.816-0.498,3.646-1.658,5.487c-0.149,0.142-0.344,0.218-0.584,0.229
			c-0.715,0.892-1.556,1.771-2.524,2.64c-2.782,2.188-5.917,2.635-9.404,1.34l-7.58,8.842c1.998,2.815,2.833,6.002,2.506,9.562
			c-0.137,1.115-0.362,2.265-0.675,3.449c-1.237,4.896-3.818,8.537-7.747,10.929l-0.437,0.292l-0.053,0.021
			c-0.036,0.014-0.088,0.035-0.159,0.063c-0.071,0.028-0.11,0.085-0.118,0.168l-0.16,0.063c-3.606,1.856-7.42,2.079-11.444,0.667
			l-5.274,8.309c-0.043,2.509,0.007,4.47,0.151,5.885 M93.122,275.558l-0.063-0.159 M96.503,283.124
			c-0.022,0.049-0.026,0.092-0.012,0.126l-2.254,5.844c1.45-1.832,2.197-3.737,2.242-5.717 M28.909,333.829
			c5.732,1.602,10.67,0.962,14.815-1.921l7.591-8.969l-0.931-0.188 M68.813,325.854c-0.164,0.104-0.327,0.209-0.49,0.313
			 M274.658,121.132l-81.903,93.178l-69.626,79.257l-59.661,67.892"/>
	</g>
	<g>
		<path id="Layer0_0_2_STROKES" fill="none" stroke="#606060" stroke-width="7" stroke-linecap="round" stroke-linejoin="round" d="
			M140.201,202.587c4.728,2.485,8.102,6.317,10.122,11.492c0.192,0.495,0.345,0.989,0.453,1.478 M135.88,200.781
			c0.966,0.276,1.942,0.631,2.928,1.063c0.457,0.23,0.921,0.478,1.394,0.743 M143.55,205.202c2.708,2.334,4.771,5.268,6.189,8.798
			c0.264,0.675,0.495,1.319,0.695,1.936 M150.776,215.557c0.015,0.036,0.035,0.088,0.063,0.159 M53.109,259.858l-4.3,0.76
			 M135.836,200.982c0.747,0.24,1.514,0.532,2.304,0.878c2.034,0.922,3.838,2.036,5.41,3.342 M150.435,215.936
			c-0.021,0.05-0.019,0.109,0.009,0.181 M150.839,215.716c1.604,5.054,1.325,10.043-0.836,14.973
			c-1.334,2.972-3.177,5.732-5.53,8.285c-2.511,2.777-5.124,4.613-7.838,5.51c-0.212,0.083-0.408,0.16-0.585,0.229l-16.764,3.049
			 M150.443,216.116c1.393,4.931,1.029,9.811-1.088,14.641c-1.298,2.957-3.13,5.695-5.497,8.211
			c-2.327,2.624-4.734,4.464-7.224,5.516 M111.467,227.098c0.334,0.646,0.746,1.282,1.235,1.908c1.376,1.955,3.192,3.575,5.45,4.858
			c0.471,0.265,0.917,0.521,1.34,0.765 M139.073,214.303c-0.049-0.022-0.08-0.051-0.095-0.086c-1.851-1.811-4.307-3.08-7.367-3.805
			c-1.403-0.351-2.699-0.478-3.887-0.382c-2.715,0.16-5.162,1.218-7.341,3.171 M139.073,214.303
			c1.676,1.675,2.461,4.002,2.358,6.983c-0.14,5.61-2.167,9.262-6.083,10.953c-2.362,1.168-4.087,1.982-5.172,2.446
			c-1.723,0.714-3.43,1.156-5.121,1.324c1.852-0.067,3.747-0.5,5.682-1.297c1.121-0.479,2.874-1.326,5.258-2.543
			c3.794-1.685,5.823-5.336,6.083-10.951c0.103-2.981-0.715-5.339-2.453-7.071c-0.343-0.355-0.74-0.691-1.189-1.006
			c-1.7-1.215-3.777-2.142-6.231-2.777c-1.587-0.402-3.081-0.514-4.481-0.334c-2.912,0.074-5.564,1.129-7.956,3.165 M112.6,229.841
			c-0.154-0.185-0.297-0.395-0.43-0.627c-2.13-3.051-3.424-5.792-3.885-8.228c-0.529-2.612-0.199-5.273,0.99-7.985
			c2.47-5.498,6.559-9.361,12.267-11.588c2.318-0.864,4.626-1.335,6.924-1.416c2.496-0.198,4.967,0.063,7.414,0.784
			 M111.467,227.098c-1.415-2.266-2.295-4.313-2.641-6.139c-0.458-2.641-0.104-5.291,1.063-7.952
			c2.492-5.548,6.546-9.397,12.161-11.548c2.198-0.858,4.336-1.345,6.416-1.462c2.453-0.099,4.91,0.229,7.37,0.985 M125.056,236.01
			c-0.036,0.015-0.071,0.028-0.106,0.043c-0.106,0.041-0.262,0.062-0.467,0.06l-0.053,0.021c-2.206,0.002-4.43-0.621-6.673-1.87
			c-1.006-0.587-1.943-1.263-2.813-2.026 M99.156,251.45l12.358-2.249l7.772-1.44 M114.943,232.236
			c-0.856-0.729-1.638-1.526-2.344-2.396 M99.156,251.45l-46.047,8.408 M124.43,236.133c-1.624-0.184-3.27-0.686-4.938-1.504"/>
	</g>
	<g>
		
			<path id="Layer0_0_3_STROKES" fill="none" stroke="#A7A7A7" stroke-width="1.5" stroke-linecap="round" stroke-linejoin="round" d="
			M136.009,200.484c0.211,0.123,0.451,0.212,0.719,0.271c1.268,0.527,2.425,1.137,3.473,1.832 M112.387,247.512l-12.282,1.974
			 M113.615,231.346c-0.471-0.266-0.77-0.455-0.896-0.57c-0.842-0.692-1.605-1.496-2.29-2.414c-2.116-3.015-3.4-5.783-3.852-8.302
			c-0.53-2.612-0.211-5.249,0.957-7.91c2.492-5.548,6.563-9.404,12.214-11.568c5.388-2.103,10.81-2.135,16.262-0.097
			 M140.201,202.587c1.229,0.746,2.346,1.617,3.349,2.615c1.969,2.01,3.417,4.468,4.347,7.373c0.531,1.672,0.969,3.216,1.318,4.633
			c0.013,0.036,0.027,0.071,0.041,0.105 M119.492,234.629c0.881,0.269,1.658,0.373,2.33,0.316c1.42-0.023,3.214-0.295,5.381-0.813
			c1.961-0.521,3.987-1.454,6.076-2.801c2.04-1.368,3.611-2.839,4.712-4.412c0.443-0.541,1.011-1.335,1.706-2.383
			c0.686-0.962,1.038-2.099,1.058-3.414c-0.081-1.357-0.462-3.171-1.143-5.438c-0.145-0.475-0.324-0.935-0.539-1.382
			c-0.201-0.412-0.414-0.799-0.637-1.161 M117.016,212.738c7.003-4.98,13.145-5.783,18.423-2.409
			c1.245,0.78,2.244,1.718,2.998,2.813 M114.943,232.236c-0.57-0.309-1.013-0.605-1.329-0.891 M121.007,246.048l13.28-2.242
			c5.351-2.619,9.186-5.667,11.505-9.146c2.22-3.522,3.579-6.687,4.076-9.496c0.286-1.99,0.081-4.605-0.612-7.85 M121.007,246.048
			l-8.62,1.464 M119.492,234.629c-1.163-0.363-2.437-1.012-3.822-1.941c-0.273-0.178-0.516-0.33-0.727-0.451 M47.749,258.213
			l6.9-1.16l45.456-7.567"/>
	</g>
</g>
</svg>
