<svg xmlns="http://www.w3.org/2000/svg" xmlns:xlink="http://www.w3.org/1999/xlink" preserveAspectRatio="none" width="188" height="19" viewBox="0 0 188 19"><defs><g id="a"><path fill="#CCC" d="M165.65 16.6q.15.2.3.35l-.65.1L4.35 15l-.15-.15-.4.95q-.45.55 1.25 1.1l160.85 2.7 2.45-2.95-2.7-.05z"/><path fill="#A4FFA4" d="M163.3 12v-.75L.85 9.95q.1.5.3.95l.05.25q.55 1.7 3 3.7l.15.15 160.95 2.05.65-.1q-.15-.15-.3-.35-2.35-2.55-2.35-4.6m0-.75q0-1.95.05-4.6 0-1 .3-1.95L1.55 3.45Q1 4.3.75 5.25q-.55 2.4.1 4.7l162.45 1.3m.35-6.55q.65-2.05 2.7-3.9l-.55-.05L4.9.5Q2.65 1.75 1.55 3.45l162.1 1.25z"/></g><g id="d"><path fill="#333" d="M112.65 9.25q-4.1 8.25 0 16.45l14.95-7.95-14.95-8.5z"/><path fill="#D3937C" d="M93.8 35.7l18.85-10q-4.1-8.2 0-16.45l-19.3-11Q90.5 4.6 89.9 10.2q-.7 5.55-.1 12.45.6 6.85 4 13.05z"/></g><path id="b" stroke="#00C100" stroke-width="1" stroke-linejoin="round" stroke-linecap="round" fill="none" d="M165.8.75L4.9.5Q2.65 1.75 1.55 3.45m2.65 11.4q-2.45-2-3-3.7l-.05-.25q-.2-.45-.3-.95-.65-2.3-.1-4.7.25-.95.8-1.8m2.65 11.4l.15.15 160.95 2.05"/><path id="c" stroke="#00D900" stroke-width="1" stroke-linejoin="round" stroke-linecap="square" fill="none" d="M163.65 4.7L1.55 3.45m161.75 7.8L.85 9.95"/><path id="e" stroke="#333" stroke-width="2" stroke-linejoin="round" stroke-linecap="round" fill="none" d="M112.65 25.7q-4.1-8.2 0-16.45"/><path id="f" stroke="#333" stroke-width="3" stroke-linejoin="round" stroke-linecap="square" fill="none" d="M112.65 9.25l-19.3-11Q90.5 4.6 89.9 10.2q-.7 5.55-.1 12.45.6 6.85 4 13.05l18.85-10m0-16.45l14.95 8.5-14.95 7.95"/></defs><g><use xlink:href="#a"/><use xlink:href="#b"/><use xlink:href="#c"/></g><g transform="matrix(.62141 .00256 .00175 -.4327 107.9 16.15)"><use xlink:href="#d"/><use xlink:href="#e"/><use xlink:href="#f"/></g></svg>