<?xml version="1.0" encoding="utf-8"?>
<!-- Generator: Adobe Illustrator 16.0.0, SVG Export Plug-In . SVG Version: 6.00 Build 0)  -->
<!DOCTYPE svg PUBLIC "-//W3C//DTD SVG 1.1//EN" "http://www.w3.org/Graphics/SVG/1.1/DTD/svg11.dtd">
<svg version="1.1" id="Layer_1" xmlns="http://www.w3.org/2000/svg" xmlns:xlink="http://www.w3.org/1999/xlink" x="0px" y="0px"
	 width="900px" height="450px" viewBox="0 0 900 450" enable-background="new 0 0 900 450" xml:space="preserve">
<g transform="matrix( 1, 0, 0, 1, 0,0) ">
	<g>
		<g id="Layer0_0_FILL">
			<path fill="#7D0000" d="M582.585,313.229c0-0.798-0.04-1.513-0.119-2.152c-0.399,0.079-0.796,0.121-1.195,0.121
				c-0.958,0-2.791-1.635-5.5-4.904c-4.624-0.396-6.936,1.596-6.936,5.979l1.076,3.708c1.114,2.392,2.908,3.825,5.381,4.305h-0.24
				c-2.151,1.034-3.228,2.949-3.228,5.737c0,2.392,1.156,5.063,3.468,8.013c3.267,4.383,7.971,6.576,14.107,6.576
				c0.957,0,1.873-0.082,2.751-0.241c-0.479,1.037-0.717,2.354-0.717,3.947c0,0.558,1.712,2.869,5.14,6.936
				c3.666,4.304,6.219,6.454,7.652,6.454c1.596,0,2.989-0.396,4.186-1.195c-0.955,1.275-1.435,3.147-1.435,5.621
				c0,1.516,1.395,4.743,4.186,9.685c0.319,0.558,0.677,1.116,1.076,1.674c2.071,3.426,4.223,5.701,6.455,6.814
				c1.195,0.559,2.391,0.839,3.587,0.839c2.152,0,3.787-0.678,4.903-2.034c1.037-1.275,1.554-2.67,1.554-4.185
				c0-7.812-3.587-13.751-10.761-17.816c-3.826-2.071-6.656-2.59-8.489-1.553c0.878-1.037,1.314-2.352,1.314-3.946
				c0-6.537-3.228-10.88-9.685-13.033c-1.115-0.397-2.189-0.598-3.227-0.598c0.875-0.955,1.314-2.271,1.314-3.944
				c0-1.992-2.071-3.669-6.219-5.023c-4.941-1.672-7.931-3.466-8.968-5.381c-1.83-1.991-3.545-3.267-5.14-3.825
				c1.275-0.396,2.193-1.235,2.749-2.51C582.268,316.018,582.585,314.663,582.585,313.229 M540.499,270.545
				c-0.32-5.502-2.632-7.771-6.936-6.816c-4.146,0.957-6.217,3.15-6.217,6.576l0.598,10.88c2.788,3.189,5.698,5.581,8.728,7.174
				c2.949,1.675,4.864,2.392,5.739,2.153c2.23,2.629,5.46,4.145,9.685,4.544c0.159,0.397,0.28,0.797,0.359,1.196
				c0.797,1.116,1.196,1.991,1.196,2.629s-0.241,1.434-0.72,2.392c-0.396,0.878-0.598,1.675-0.598,2.392
				c0,1.354,0.719,3.307,2.153,5.858c1.994,3.427,4.386,5.141,7.174,5.141c2.073,0,3.666-0.797,4.782-2.392
				c1.037-1.434,1.556-2.83,1.556-4.185c0-1.992,0.278-3.466,0.836-4.423c0.397-1.037,0.598-2.593,0.598-4.664
				c0-0.479,0-0.955,0-1.434c-1.674-2.553-3.547-5.42-5.618-8.61c-0.878-0.396-1.873-0.717-2.989-0.955
				c-0.479-2.711-3.946-6.098-10.403-10.163c-4.146-2.473-7.056-2.91-8.728-1.314C540.896,273.892,540.499,271.899,540.499,270.545
				 M409.454,179.555c-0.079,0.478-0.12,0.996-0.12,1.554c0,0.159,0.319,1.275,0.958,3.348c0.557,0,1.833,0.081,3.825,0.239
				c1.914,0.159,4.503,0.797,7.771,1.913h0.24c1.355,0.558,2.551,0.837,3.587,0.837c1.435,0,2.591-0.279,3.468-0.837
				c1.913,0,3.945,0.16,6.097,0.479c0.399,0,1.275,0.519,2.631,1.554c1.594,1.276,2.87,1.914,3.826,1.914
				c2.391,0,4.145-0.758,5.26-2.272c0.958-1.196,1.435-2.591,1.435-4.185c0-7.333-6.497-11.12-19.489-11.359
				c-0.319,0-0.598,0-0.837,0c-2.63-2.073-6.815-4.304-12.554-6.695c-11.08-4.305-16.619-2.87-16.619,4.304
				C398.933,171.385,402.439,174.453,409.454,179.555 M510.727,166.521c-1.833-0.558-3.547-1.354-5.143-2.391
				c-0.955-1.036-1.912-1.913-2.87-2.631c-2.232-0.238-4.304-0.598-6.216-1.075c-0.08,0-0.159,0-0.238,0
				c-2.711,0.877-4.066,2.75-4.066,5.62c0,2.471,1.873,5.341,5.619,8.608c1.754,1.674,3.748,3.029,5.979,4.066
				c0.161,0.558,0.438,1.076,0.838,1.554c-2.711-1.195-5.979-2.033-9.806-2.51c-9.087-1.116-14.467,0.996-16.142,6.337
				c-1.354-2.233-3.666-4.185-6.933-5.859v-0.119c0-1.435-0.36-2.87-1.077-4.304c1.434-0.32,3.268-0.797,5.5-1.435
				c4.861,0,7.293-2.232,7.293-6.696c0.082-1.275-0.199-2.471-0.836-3.587c-1.116-2.231-3.429-3.348-6.936-3.348
				c-8.37,0-15.304-0.917-20.806-2.75c-0.955-0.159-1.831-0.319-2.629-0.479c-0.397-0.957-1.515-0.957-3.348,0
				c-1.754,0.958-4.225-0.159-7.414-3.348c-1.116-1.115-2.152-2.073-3.108-2.869c-2.232-0.16-4.145-0.518-5.74-1.076
				c-1.434,0.239-2.392,0.358-2.869,0.358c-8.13-0.638-13.79-1.115-16.979-1.435c-2.391-2.392-6.815-3.587-13.271-3.587
				c-3.109,0-5.699,0.279-7.771,0.837c-1.037-0.956-2.432-1.753-4.185-2.391c-5.022-0.877-9.008-1.475-11.957-1.793
				c-1.993,0.877-2.989,2.71-2.989,5.5c2.311,2.071,4.902,4.862,7.772,8.37c0.238,0.159,0.438,0.398,0.598,0.717
				c2.152,2.233,5.141,5.141,8.967,8.728c0.398,0.24,0.717,0.638,0.956,1.196c1.913-0.398,3.746-1.833,5.5-4.304
				c0.877-1.276,1.595-2.352,2.152-3.229c1.514,0,3.229,0,5.142,0c1.354,0,2.989,0.717,4.902,2.152c1.674,0,3.068-0.598,4.185-1.793
				c1.674,0.797,3.587,1.674,5.739,2.631c5.022,2.312,9.605,3.985,13.75,5.022c0,0.079,0.079,0.2,0.239,0.358
				c0.956,1.275,1.514,1.913,1.674,1.913c1.115,0.239,6.935,0.678,17.456,1.316c-0.159,0.637-0.239,1.395-0.239,2.271l3.827,4.903
				c-1.995,1.435-2.989,4.145-2.989,8.13c0,1.514,1.476,3.587,4.423,6.217c4.306,3.827,9.965,5.739,16.979,5.739
				c2.071,0,3.746-0.638,5.021-1.913c0.082-0.16,0.278-0.32,0.598-0.479c0.082,0.479,0.278,0.798,0.599,0.957
				c2.473,2.949,8.092,4.424,16.858,4.424c6.377,0,10.723-1.077,13.033-3.229c1.195-1.115,1.793-2.869,1.793-5.26
				c0-2.472-0.598-4.544-1.793-6.218c2.232,0.797,5.221,1.315,8.967,1.554c-1.595,2.312-2.391,6.257-2.391,11.837l0.598,3.227
				c1.516,2.472,5.182,3.708,11.001,3.708c3.587,0,6.375-0.358,8.37-1.077c1.274,1.116,3.227,2.232,5.856,3.348
				c5.023,2.073,10.242,3.109,15.665,3.109c5.101,0,9.166-0.956,12.194-2.87c2.709-1.514,4.066-3.467,4.066-5.858
				c0-2.153-1.556-4.464-4.664-6.936c-0.396-0.478-0.799-0.836-1.195-1.076c0.396-0.797,0.598-1.674,0.598-2.63
				c0-3.827-3.27-7.095-9.804-9.805c-6.618-2.79-9.925-1.115-9.925,5.022c0,0.159,0.995,2.033,2.989,5.62
				c0.238,0.478,0.559,0.877,0.957,1.196c-3.827,1.115-8.57,1.952-14.229,2.51c-0.24,0-0.479,0.081-0.717,0.239
				c-3.349-4.384-6.655-7.613-9.925-9.684c5.42-0.32,9.406-0.877,11.957-1.674c3.428-1.275,5.142-3.587,5.142-6.935
				c0-1.674-0.359-2.95-1.076-3.827c-0.638-0.637-1.277-1.235-1.913-1.793c-6.776-0.319-12.236-1.314-16.382-2.989
				c-1.195-0.398-2.192-0.798-2.989-1.196c-1.833-0.558-3.505-0.837-5.021-0.837C515.109,166.124,512.719,166.124,510.727,166.521z"
				/>
			<path fill="#ECBB70" d="M569.194,256.316l-16.86,5.979L569.194,256.316c-16.501-2.232-31.007-4.624-43.522-7.174
				c11.398,10.84,22.12,21.521,32.164,32.042c15.224,15.863,28.895,31.407,41.01,46.631c28.296-2.789,52.85-7.892,73.652-15.304
				c21.521-7.652,40.017-18.054,55.479-31.206c-55.559-11.321-105.057-19.289-148.5-23.913
				C575.969,256.993,572.541,256.636,569.194,256.316 M548.03,169.631c10.282-9.486,15.425-19.809,15.425-30.968
				c0-21.601-19.052-39.936-57.154-55c-38.261-15.146-84.372-22.718-138.336-22.718c-53.884,0-99.917,7.572-138.099,22.718
				c-38.021,15.064-57.033,33.399-57.033,55c0,21.522,19.012,39.815,57.033,54.881c38.182,15.224,84.214,22.837,138.099,22.837
				c21.682,0,42.127-1.196,61.337-3.587l-18.533-19.489l-7.772-8.13c-13.71-17.377-28.696-33.958-44.956-49.74
				c6.616,0.718,13.112,1.475,19.489,2.272l27.979-11.358l-27.979,11.358C447.595,146.076,504.429,156.717,548.03,169.631
				 M307.105,132.087c17.218-10.363,35.671-18.174,55.359-23.435C342.776,113.913,324.323,121.724,307.105,132.087z"/>
			<path fill="#A60000" d="M525.672,249.143c-2.071,10.123-2.232,21.521-0.479,34.195l87.045,90.152
				c-0.399-0.558-0.757-1.116-1.076-1.674c-2.791-4.941-4.186-8.169-4.186-9.685c0-2.474,0.479-4.346,1.435-5.621
				c-1.196,0.799-2.59,1.195-4.186,1.195c-1.434,0-3.986-2.15-7.652-6.454c-3.428-4.066-5.14-6.378-5.14-6.936
				c0-1.593,0.238-2.91,0.717-3.947c-0.878,0.159-1.794,0.241-2.751,0.241c-6.137,0-10.841-2.193-14.107-6.576
				c-2.312-2.95-3.468-5.621-3.468-8.013c0-2.788,1.076-4.703,3.228-5.737h0.24c-2.473-0.479-4.267-1.913-5.381-4.305l-1.076-3.708
				c0-4.383,2.312-6.375,6.936-5.979c2.709,3.27,4.542,4.904,5.5,4.904c0.399,0,0.796-0.042,1.195-0.121
				c0.079,0.64,0.119,1.354,0.119,2.152c0,1.435-0.317,2.789-0.957,4.066c-0.556,1.274-1.474,2.113-2.749,2.51
				c1.595,0.559,3.31,1.834,5.14,3.825c1.037,1.915,4.026,3.709,8.968,5.381c4.147,1.354,6.219,3.031,6.219,5.023
				c0,1.674-0.439,2.989-1.314,3.944c1.037,0,2.111,0.2,3.227,0.598c6.457,2.153,9.685,6.496,9.685,13.033
				c0,1.595-0.437,2.909-1.314,3.946c1.833-1.037,4.663-0.519,8.489,1.553c7.174,4.065,10.761,10.005,10.761,17.816
				c0,1.515-0.517,2.909-1.554,4.185c-1.116,1.356-2.751,2.034-4.903,2.034c-1.196,0-2.392-0.28-3.587-0.839l14.945,15.425
				c0.561-5.979,0.561-11.518,0-16.62c-0.556-5.341-1.672-10.082-3.347-14.229l-31.446-37.065
				c-12.115-15.224-25.786-30.768-41.01-46.631C547.792,270.664,537.07,259.982,525.672,249.143 M533.563,263.729
				c4.304-0.955,6.615,1.314,6.936,6.816c0,1.354,0.396,3.347,1.195,5.979c1.672-1.596,4.582-1.158,8.728,1.314
				c6.457,4.065,9.925,7.452,10.403,10.163c1.116,0.238,2.111,0.559,2.989,0.955c2.071,3.19,3.944,6.058,5.618,8.61
				c0,0.479,0,0.955,0,1.434c0,2.071-0.2,3.627-0.598,4.664c-0.558,0.957-0.836,2.431-0.836,4.423c0,1.354-0.519,2.751-1.556,4.185
				c-1.116,1.595-2.709,2.392-4.782,2.392c-2.788,0-5.18-1.714-7.174-5.141c-1.435-2.552-2.153-4.504-2.153-5.858
				c0-0.717,0.201-1.514,0.598-2.392c0.479-0.958,0.72-1.754,0.72-2.392s-0.399-1.513-1.196-2.629
				c-0.079-0.399-0.2-0.799-0.359-1.196c-4.225-0.399-7.454-1.915-9.685-4.544c-0.875,0.238-2.79-0.479-5.739-2.153
				c-3.029-1.593-5.939-3.984-8.728-7.174l-0.598-10.88C527.347,266.879,529.418,264.686,533.563,263.729 M574.097,182.663
				c-2.153-2.392-5.381-4.663-9.685-6.815c-3.986-2.071-8.889-3.985-14.708-5.739c-0.558-0.159-1.116-0.318-1.674-0.478
				c-43.602-12.914-100.436-23.555-170.5-31.924c-6.376-0.797-12.873-1.554-19.489-2.272c16.26,15.783,31.246,32.363,44.956,49.74
				l171.1,29.532c2.071-4.783,3.188-9.565,3.346-14.348C577.684,194.461,576.567,188.562,574.097,182.663 M505.584,164.13
				c1.596,1.037,3.31,1.833,5.143,2.391c1.992-0.398,4.383-0.398,7.174,0c1.516,0,3.188,0.279,5.021,0.837
				c0.797,0.398,1.794,0.797,2.989,1.196c4.146,1.674,9.605,2.67,16.382,2.989c0.636,0.558,1.275,1.156,1.913,1.793
				c0.717,0.877,1.076,2.152,1.076,3.827c0,3.348-1.714,5.659-5.142,6.935c-2.551,0.797-6.537,1.354-11.957,1.674
				c3.27,2.071,6.576,5.3,9.925,9.684c0.238-0.159,0.477-0.239,0.717-0.239c5.658-0.558,10.401-1.395,14.229-2.51
				c-0.398-0.319-0.719-0.718-0.957-1.196c-1.994-3.587-2.989-5.461-2.989-5.62c0-6.137,3.307-7.812,9.925-5.022
				c6.534,2.71,9.804,5.978,9.804,9.805c0,0.956-0.201,1.833-0.598,2.63c0.396,0.239,0.799,0.598,1.195,1.076
				c3.108,2.472,4.664,4.782,4.664,6.936c0,2.391-1.357,4.344-4.066,5.858c-3.028,1.914-7.094,2.87-12.194,2.87
				c-5.423,0-10.642-1.037-15.665-3.109c-2.63-1.115-4.582-2.231-5.856-3.348c-1.995,0.718-4.783,1.077-8.37,1.077
				c-5.819,0-9.485-1.235-11.001-3.708l-0.598-3.227c0-5.58,0.796-9.525,2.391-11.837c-3.746-0.239-6.734-0.757-8.967-1.554
				c1.195,1.673,1.793,3.746,1.793,6.218c0,2.391-0.598,4.145-1.793,5.26c-2.311,2.152-6.656,3.229-13.033,3.229
				c-8.767,0-14.386-1.475-16.858-4.424c-0.32-0.159-0.517-0.478-0.599-0.957c-0.319,0.159-0.516,0.319-0.598,0.479
				c-1.274,1.275-2.949,1.913-5.021,1.913c-7.015,0-12.674-1.913-16.979-5.739c-2.947-2.63-4.423-4.703-4.423-6.217
				c0-3.985,0.994-6.695,2.989-8.13l-3.827-4.903c0-0.876,0.08-1.634,0.239-2.271c-10.521-0.638-16.341-1.077-17.456-1.316
				c-0.16,0-0.718-0.638-1.674-1.913c-0.16-0.159-0.239-0.279-0.239-0.358c-4.146-1.037-8.729-2.71-13.75-5.022
				c-2.152-0.957-4.064-1.833-5.739-2.631c-1.116,1.196-2.51,1.793-4.185,1.793c-1.913-1.435-3.547-2.152-4.902-2.152
				c-1.914,0-3.628,0-5.142,0c-0.557,0.877-1.275,1.952-2.152,3.229c-1.753,2.471-3.587,3.906-5.5,4.304
				c-0.239-0.558-0.558-0.956-0.956-1.196c-3.827-3.587-6.815-6.495-8.967-8.728c-0.16-0.318-0.36-0.558-0.598-0.717
				c-2.87-3.507-5.461-6.298-7.772-8.37c0-2.791,0.996-4.624,2.989-5.5c2.948,0.319,6.935,0.917,11.957,1.793
				c1.753,0.638,3.148,1.435,4.185,2.391c2.072-0.558,4.662-0.837,7.771-0.837c6.456,0,10.88,1.195,13.271,3.587
				c3.189,0.32,8.849,0.797,16.979,1.435c0.478,0,1.435-0.119,2.869-0.358c1.595,0.558,3.507,0.917,5.74,1.076
				c0.957,0.796,1.992,1.754,3.108,2.869c3.189,3.188,5.66,4.305,7.414,3.348c1.833-0.957,2.95-0.957,3.348,0
				c0.798,0.16,1.674,0.32,2.629,0.479c5.502,1.833,12.436,2.75,20.806,2.75c3.507,0,5.819,1.116,6.936,3.348
				c0.637,1.116,0.918,2.312,0.836,3.587c0,4.464-2.432,6.696-7.293,6.696c-2.232,0.638-4.066,1.115-5.5,1.435
				c0.717,1.434,1.077,2.869,1.077,4.304v0.119c3.267,1.674,5.578,3.626,6.933,5.859c1.675-5.341,7.055-7.453,16.142-6.337
				c3.827,0.478,7.095,1.315,9.806,2.51c-0.399-0.478-0.677-0.996-0.838-1.554c-2.23-1.037-4.225-2.392-5.979-4.066
				c-3.746-3.267-5.619-6.137-5.619-8.608c0-2.87,1.355-4.743,4.066-5.62c0.079,0,0.158,0,0.238,0
				c1.912,0.478,3.983,0.837,6.216,1.075C503.672,162.218,504.629,163.095,505.584,164.13 M409.334,181.109
				c0-0.558,0.041-1.077,0.12-1.554c-7.015-5.102-10.521-8.17-10.521-9.207c0-7.174,5.539-8.609,16.619-4.304
				c5.739,2.392,9.924,4.623,12.554,6.695c0.239,0,0.519,0,0.837,0c12.992,0.239,19.489,4.026,19.489,11.359
				c0,1.594-0.478,2.989-1.435,4.185c-1.115,1.515-2.869,2.272-5.26,2.272c-0.956,0-2.232-0.638-3.826-1.914
				c-1.356-1.036-2.231-1.554-2.631-1.554c-2.152-0.318-4.185-0.479-6.097-0.479c-0.877,0.558-2.033,0.837-3.468,0.837
				c-1.036,0-2.231-0.279-3.587-0.837h-0.24c-3.268-1.115-5.858-1.754-7.771-1.913c-1.992-0.159-3.268-0.239-3.825-0.239
				C409.653,182.384,409.334,181.268,409.334,181.109z"/>
			<path fill="#D88D56" d="M526.508,294.935v0.719l114.186,120.042l-0.357-19.966l-0.24-16.62l-0.357-15.303l-4.663-4.186
				l-36.229-31.806l31.446,37.065c1.675,4.146,2.791,8.888,3.347,14.229c0.561,5.103,0.561,10.642,0,16.62l-14.945-15.425
				c-2.232-1.113-4.384-3.389-6.455-6.814l-87.045-90.152L526.508,294.935 M564.412,175.848c4.304,2.153,7.531,4.424,9.685,6.815
				c2.471,5.899,3.587,11.798,3.346,17.695c-0.158,4.783-1.274,9.565-3.346,14.348l-171.1-29.532l7.772,8.13
				c19.768,4.145,39.496,8.091,59.186,11.836c26.622,5.103,53.165,9.805,79.631,14.11c13.869,2.311,27.777,4.503,41.729,6.576
				c0.556,0.079,1.116,0.159,1.672,0.238l0.598-5.021c0.64-3.827,0.958-7.573,0.958-11.24l3.227-31.446v-0.239l-24.032-3.945
				l-24.032-4.066C555.523,171.862,560.426,173.776,564.412,175.848z"/>
			<path fill="#DAA554" d="M774.25,340.012l4.304-55.24c-36.269,44.56-82.54,70.903-138.815,79.035l0.357,15.303l0.24,16.62
				l0.357,19.966C701.912,404.855,746.43,379.628,774.25,340.012 M778.554,284.771l-50.577-3.466
				c-15.462,13.152-33.957,23.554-55.479,31.206c-20.803,7.412-45.356,12.515-73.652,15.304l36.229,31.806l4.663,4.186
				C696.014,355.675,742.285,329.331,778.554,284.771 M717.335,299.479l34.316-6.936L717.335,299.479 M627.541,337.621l45.914,7.174
				L627.541,337.621 M681.465,319.207l30.37,1.913L681.465,319.207 M136.007,204.664c1.116,4.543,2.79,8.967,5.022,13.271
				l-5.261-18.652C135.768,201.037,135.847,202.83,136.007,204.664 M465.89,292.305l-1.315-42.805
				c-30.37,6.298-63.61,9.445-99.718,9.445c-66.957,0-124.11-10.959-171.458-32.88c-25.986-12.036-44.797-25.428-56.436-40.174
				c-0.876,4.304-1.275,8.768-1.195,13.392l5.261,18.652c9.724,19.291,30.21,36.468,61.456,51.534
				c45.834,22.08,101.153,33.118,165.958,33.118c35.63,0,68.391-3.347,98.282-10.044
				C466.405,292.464,466.128,292.385,465.89,292.305 M549.704,170.108l24.032,4.066l4.305-0.837l-4.305,0.837l24.032,3.945v0.239
				c2.952-4.384,5.621-8.967,8.013-13.75c0.797-3.428,1.195-9.446,1.195-18.055c0-31.325-23.675-57.949-71.022-79.87
				c-47.109-21.92-104.141-32.88-171.098-32.88s-124.11,10.96-171.458,32.88c-47.268,21.92-70.902,48.544-70.902,79.87
				c0,2.631,0.159,5.301,0.478,8.011c0.877,5.82,2.551,11.479,5.022,16.979c2.232,4.862,5.222,9.645,8.967,14.348
				c11.638,14.746,30.45,28.138,56.436,40.174c47.347,21.921,104.5,32.88,171.458,32.88c36.108,0,69.348-3.147,99.718-9.445
				l-20.446-21.4l-13.631-7.893l13.631,7.893l-14.826-15.306c-19.21,2.391-39.655,3.587-61.337,3.587
				c-53.884,0-99.917-7.613-138.099-22.837c-38.021-15.066-57.033-33.359-57.033-54.881c0-21.601,19.012-39.936,57.033-55
				c38.182-15.146,84.214-22.718,138.099-22.718c53.964,0,100.075,7.572,138.336,22.718c38.103,15.064,57.154,33.399,57.154,55
				c0,11.159-5.143,21.482-15.425,30.968C548.588,169.79,549.146,169.95,549.704,170.108 M564.77,117.979l10.282-14.108
				L564.77,117.979 M543.846,92.87l-3.347-13.989L543.846,92.87 M568.835,151.336l20.924-12.315L568.835,151.336 M518.736,82.586
				l-17.218-19.25L518.736,82.586 M285.106,61.543l-39.098-5.38L285.106,61.543 M163.268,145.12l-18.054,25.945L163.268,145.12
				 M168.769,120.13l-34.555,17.218L168.769,120.13 M195.312,94.543l-43.163,7.771L195.312,94.543 M239.073,74.814l-39.936-0.717
				L239.073,74.814 M468.879,65.609l-17.458-15.664L468.879,65.609 M378.247,54.848L347.16,41.576L378.247,54.848 M430.497,59.033
				l-30.489-17.935L430.497,59.033 M332.095,55.446l-29.772-10.283L332.095,55.446 M317.149,221.044l26.543,23.434L317.149,221.044
				 M382.791,224.152l25.826,18.652L382.791,224.152 M224.247,202.272l15.543,28.935L224.247,202.272 M267.051,214.707
				l23.555,25.826L267.051,214.707 M190.529,187.446l10.163,31.207L190.529,187.446 M170.442,167.12l-1.673,30.37L170.442,167.12z"
				/>
		</g>
	</g>
	<g>
		<path id="Layer0_0_1_STROKES" fill="none" stroke="#4F3222" stroke-width="3" stroke-linecap="round" stroke-linejoin="round" d="
			M127.996,171.543c-2.471-5.5-4.145-11.159-5.022-16.979c-0.319-2.71-0.478-5.38-0.478-8.011c0-31.325,23.634-57.949,70.902-79.87
			c47.347-21.92,104.5-32.88,171.458-32.88s123.988,10.96,171.098,32.88c47.348,21.92,71.022,48.544,71.022,79.87
			c0,8.609-0.398,14.627-1.195,18.055l-12.795,61.457 M605.781,164.609c-2.392,4.783-5.061,9.366-8.013,13.75 M135.768,199.283
			c-0.08-4.624,0.319-9.088,1.195-13.392c-3.746-4.703-6.735-9.486-8.967-14.348L135.768,199.283l5.261,18.652
			c9.724,19.291,30.21,36.468,61.456,51.534c45.834,22.08,101.153,33.118,165.958,33.118c35.63,0,68.391-3.347,98.282-10.044
			 M464.574,249.5c-30.37,6.298-63.61,9.445-99.718,9.445c-66.957,0-124.11-10.959-171.458-32.88
			c-25.986-12.036-44.797-25.428-56.436-40.174 M142.823,224.75l-1.793-6.815c-2.232-4.304-3.906-8.728-5.022-13.271
			c-0.16-1.833-0.239-3.626-0.239-5.38 M778.554,284.771l-4.304,55.24c-27.82,39.616-72.338,64.844-133.557,75.684L526.508,295.653
			 M778.554,284.771c-36.269,44.56-82.54,70.903-138.815,79.035"/>
	</g>
	<g>
		<path id="Layer0_0_2_STROKES" fill="none" stroke="#4F3222" stroke-width="2" stroke-linecap="round" stroke-linejoin="round" d="
			M564.77,117.979l10.282-14.108 M543.846,92.87l-3.347-13.989 M402.997,185.175l171.1,29.532c2.071-4.783,3.188-9.565,3.346-14.348
			c0.241-5.897-0.875-11.796-3.346-17.695c-2.153-2.392-5.381-4.663-9.685-6.815c-3.986-2.071-8.889-3.985-14.708-5.739
			c-0.558-0.159-1.116-0.318-1.674-0.478c-43.602-12.914-100.436-23.555-170.5-31.924c-6.376-0.797-12.873-1.554-19.489-2.272
			C374.301,151.217,389.287,167.798,402.997,185.175l7.772,8.13c19.768,4.145,39.496,8.091,59.186,11.836
			c26.622,5.103,53.165,9.805,79.631,14.11c13.869,2.311,27.777,4.503,41.729,6.576c0.556,0.079,1.116,0.159,1.672,0.238
			l0.598-5.021c0.64-3.827,0.958-7.573,0.958-11.24l3.227-31.446v-0.239l-24.032-3.945l-24.032-4.066 M429.302,212.794
			c-19.21,2.391-39.655,3.587-61.337,3.587c-53.884,0-99.917-7.613-138.099-22.837c-38.021-15.066-57.033-33.359-57.033-54.881
			c0-21.601,19.012-39.936,57.033-55c38.182-15.146,84.214-22.718,138.099-22.718c53.964,0,100.075,7.572,138.336,22.718
			c38.103,15.064,57.154,33.399,57.154,55c0,11.159-5.143,21.482-15.425,30.968 M568.835,151.336l20.924-12.315 M573.736,174.174
			l4.305-0.837 M518.736,82.586l-17.218-19.25 M285.106,61.543l-39.098-5.38 M464.574,249.5l1.315,42.805 M163.268,145.12
			l-18.054,25.945 M168.769,120.13l-34.555,17.218 M195.312,94.543l-43.163,7.771 M239.073,74.814l-39.936-0.717 M468.879,65.609
			l-17.458-15.664 M378.247,54.848L347.16,41.576 M307.105,132.087c17.218-10.363,35.671-18.174,55.359-23.435 M430.497,59.033
			l-30.489-17.935 M377.53,137.707l27.979-11.358 M332.095,55.446l-29.772-10.283 M429.302,212.794l14.826,15.306l20.446,21.4
			 M410.769,193.305l18.533,19.489 M430.497,220.207l13.631,7.893 M317.149,221.044l26.543,23.434 M382.791,224.152l25.826,18.652
			 M224.247,202.272l15.543,28.935 M267.051,214.707l23.555,25.826 M190.529,187.446l10.163,31.207 M727.977,281.306l50.577,3.466
			 M526.508,295.653v-0.719l-1.314-11.597c-1.754-12.674-1.593-24.072,0.479-34.195c12.516,2.55,27.021,4.941,43.522,7.174
			c3.347,0.319,6.774,0.677,10.282,1.076c43.443,4.624,92.941,12.592,148.5,23.913c-15.462,13.152-33.957,23.554-55.479,31.206
			c-20.803,7.412-45.356,12.515-73.652,15.304l36.229,31.806l4.663,4.186 M717.335,299.479l34.316-6.936 M569.194,256.316
			l-16.86,5.979 M525.672,249.143c11.398,10.84,22.12,21.521,32.164,32.042c15.224,15.863,28.895,31.407,41.01,46.631l31.446,37.065
			c1.675,4.146,2.791,8.888,3.347,14.229c0.561,5.103,0.561,10.642,0,16.62l-14.945-15.425 M612.238,373.49l-87.045-90.152
			 M640.693,415.695l-0.357-19.966l-0.24-16.62l-0.357-15.303 M627.541,337.621l45.914,7.174 M681.465,319.207l30.37,1.913
			 M170.442,167.12l-1.673,30.37"/>
	</g>
</g>
</svg>
