<svg xmlns="http://www.w3.org/2000/svg" width="900" height="450" viewBox="0 0 900 450"><path fill="#7D0000" d="M582.585 313.229c0-.798-.04-1.513-.119-2.152a6.133 6.133 0 0 1-1.195.121c-.958 0-2.791-1.635-5.5-4.904-4.624-.396-6.936 1.596-6.936 5.979l1.076 3.708c1.114 2.392 2.908 3.825 5.381 4.305h-.24c-2.151 1.034-3.228 2.949-3.228 5.737 0 2.392 1.156 5.063 3.468 8.013 3.267 4.383 7.971 6.576 14.107 6.576.957 0 1.873-.082 2.751-.241-.479 1.037-.717 2.354-.717 3.947 0 .558 1.712 2.869 5.14 6.936 3.666 4.304 6.219 6.454 7.652 6.454 1.596 0 2.989-.396 4.186-1.195-.955 1.275-1.435 3.147-1.435 5.621 0 1.516 1.395 4.743 4.186 9.685.319.558.677 1.116 1.076 1.674 2.071 3.426 4.223 5.701 6.455 6.814 1.195.559 2.391.839 3.587.839 2.152 0 3.787-.678 4.903-2.034 1.037-1.275 1.554-2.67 1.554-4.185 0-7.812-3.587-13.751-10.761-17.816-3.826-2.071-6.656-2.59-8.489-1.553.878-1.037 1.314-2.352 1.314-3.946 0-6.537-3.228-10.88-9.685-13.033-1.115-.397-2.189-.598-3.227-.598.875-.955 1.314-2.271 1.314-3.944 0-1.992-2.071-3.669-6.219-5.023-4.941-1.672-7.931-3.466-8.968-5.381-1.83-1.991-3.545-3.267-5.14-3.825 1.275-.396 2.193-1.235 2.749-2.51.643-1.28.96-2.635.96-4.069m-42.086-42.684c-.32-5.502-2.632-7.771-6.936-6.816-4.146.957-6.217 3.15-6.217 6.576l.598 10.88c2.788 3.189 5.698 5.581 8.728 7.174 2.949 1.675 4.864 2.392 5.739 2.153 2.23 2.629 5.46 4.145 9.685 4.544.159.397.28.797.359 1.196.797 1.116 1.196 1.991 1.196 2.629s-.241 1.434-.72 2.392c-.396.878-.598 1.675-.598 2.392 0 1.354.719 3.307 2.153 5.858 1.994 3.427 4.386 5.141 7.174 5.141 2.073 0 3.666-.797 4.782-2.392 1.037-1.434 1.556-2.83 1.556-4.185 0-1.992.278-3.466.836-4.423.397-1.037.598-2.593.598-4.664v-1.434c-1.674-2.553-3.547-5.42-5.618-8.61a14.737 14.737 0 0 0-2.989-.955c-.479-2.711-3.946-6.098-10.403-10.163-4.146-2.473-7.056-2.91-8.728-1.314-.798-2.632-1.195-4.625-1.195-5.979m-131.045-90.99a9.54 9.54 0 0 0-.12 1.554c0 .159.319 1.275.958 3.348.557 0 1.833.081 3.825.239 1.914.159 4.503.797 7.771 1.913h.24c1.355.558 2.551.837 3.587.837 1.435 0 2.591-.279 3.468-.837 1.913 0 3.945.16 6.097.479.399 0 1.275.519 2.631 1.554 1.594 1.276 2.87 1.914 3.826 1.914 2.391 0 4.145-.758 5.26-2.272.958-1.196 1.435-2.591 1.435-4.185 0-7.333-6.497-11.12-19.489-11.359h-.837c-2.63-2.073-6.815-4.304-12.554-6.695-11.08-4.305-16.619-2.87-16.619 4.304 0 1.036 3.506 4.104 10.521 9.206m101.273-13.034a20.17 20.17 0 0 1-5.143-2.391c-.955-1.036-1.912-1.913-2.87-2.631a45.74 45.74 0 0 1-6.216-1.075h-.238c-2.711.877-4.066 2.75-4.066 5.62 0 2.471 1.873 5.341 5.619 8.608a22.07 22.07 0 0 0 5.979 4.066 4.23 4.23 0 0 0 .838 1.554c-2.711-1.195-5.979-2.033-9.806-2.51-9.087-1.116-14.467.996-16.142 6.337-1.354-2.233-3.666-4.185-6.933-5.859v-.119c0-1.435-.36-2.87-1.077-4.304 1.434-.32 3.268-.797 5.5-1.435 4.861 0 7.293-2.232 7.293-6.696a6.28 6.28 0 0 0-.836-3.587c-1.116-2.231-3.429-3.348-6.936-3.348-8.37 0-15.304-.917-20.806-2.75a81.58 81.58 0 0 1-2.629-.479c-.397-.957-1.515-.957-3.348 0-1.754.958-4.225-.159-7.414-3.348a47.236 47.236 0 0 0-3.108-2.869c-2.232-.16-4.145-.518-5.74-1.076-1.434.239-2.392.358-2.869.358-8.13-.638-13.79-1.115-16.979-1.435-2.391-2.392-6.815-3.587-13.271-3.587-3.109 0-5.699.279-7.771.837-1.037-.956-2.432-1.753-4.185-2.391-5.022-.877-9.008-1.475-11.957-1.793-1.993.877-2.989 2.71-2.989 5.5 2.311 2.071 4.902 4.862 7.772 8.37.238.159.438.398.598.717 2.152 2.233 5.141 5.141 8.967 8.728.398.24.717.638.956 1.196 1.913-.398 3.746-1.833 5.5-4.304a110.456 110.456 0 0 0 2.152-3.229h5.142c1.354 0 2.989.717 4.902 2.152 1.674 0 3.068-.598 4.185-1.793 1.674.797 3.587 1.674 5.739 2.631 5.022 2.312 9.605 3.985 13.75 5.022 0 .079.079.2.239.358.956 1.275 1.514 1.913 1.674 1.913 1.115.239 6.935.678 17.456 1.316-.159.637-.239 1.395-.239 2.271l3.827 4.903c-1.995 1.435-2.989 4.145-2.989 8.13 0 1.514 1.476 3.587 4.423 6.217 4.306 3.827 9.965 5.739 16.979 5.739 2.071 0 3.746-.638 5.021-1.913.082-.16.278-.32.598-.479.082.479.278.798.599.957 2.473 2.949 8.092 4.424 16.858 4.424 6.377 0 10.723-1.077 13.033-3.229 1.195-1.115 1.793-2.869 1.793-5.26 0-2.472-.598-4.544-1.793-6.218 2.232.797 5.221 1.315 8.967 1.554-1.595 2.312-2.391 6.257-2.391 11.837l.598 3.227c1.516 2.472 5.182 3.708 11.001 3.708 3.587 0 6.375-.358 8.37-1.077 1.274 1.116 3.227 2.232 5.856 3.348a40.666 40.666 0 0 0 15.665 3.109c5.101 0 9.166-.956 12.194-2.87 2.709-1.514 4.066-3.467 4.066-5.858 0-2.153-1.556-4.464-4.664-6.936-.396-.478-.799-.836-1.195-1.076a5.831 5.831 0 0 0 .598-2.63c0-3.827-3.27-7.095-9.804-9.805-6.618-2.79-9.925-1.115-9.925 5.022 0 .159.995 2.033 2.989 5.62.238.478.559.877.957 1.196-3.827 1.115-8.57 1.952-14.229 2.51-.24 0-.479.081-.717.239-3.349-4.384-6.655-7.613-9.925-9.684 5.42-.32 9.406-.877 11.957-1.674 3.428-1.275 5.142-3.587 5.142-6.935 0-1.674-.359-2.95-1.076-3.827a40.721 40.721 0 0 0-1.913-1.793c-6.776-.319-12.236-1.314-16.382-2.989-1.195-.398-2.192-.798-2.989-1.196-1.833-.558-3.505-.837-5.021-.837-2.789-.396-5.179-.396-7.171.001z"/><path fill="#ECBB70" d="M569.194 256.316l-16.86 5.979 16.86-5.979c-16.501-2.232-31.007-4.624-43.522-7.174 11.398 10.84 22.12 21.521 32.164 32.042 15.224 15.863 28.895 31.407 41.01 46.631 28.296-2.789 52.85-7.892 73.652-15.304 21.521-7.652 40.017-18.054 55.479-31.206-55.559-11.321-105.057-19.289-148.5-23.913a576.36 576.36 0 0 0-10.283-1.076m-21.164-86.685c10.282-9.486 15.425-19.809 15.425-30.968 0-21.601-19.052-39.936-57.154-55-38.261-15.146-84.372-22.718-138.336-22.718-53.884 0-99.917 7.572-138.099 22.718-38.021 15.064-57.033 33.399-57.033 55 0 21.522 19.012 39.815 57.033 54.881 38.182 15.224 84.214 22.837 138.099 22.837 21.682 0 42.127-1.196 61.337-3.587l-18.533-19.489-7.772-8.13c-13.71-17.377-28.696-33.958-44.956-49.74a1208.93 1208.93 0 0 1 19.489 2.272l27.979-11.358-27.979 11.358c70.065 8.369 126.899 19.01 170.5 31.924m-240.925-37.544c17.218-10.363 35.671-18.174 55.359-23.435-19.688 5.261-38.141 13.072-55.359 23.435z"/><path fill="#A60000" d="M525.672 249.143c-2.071 10.123-2.232 21.521-.479 34.195l87.045 90.152a19.622 19.622 0 0 1-1.076-1.674c-2.791-4.941-4.186-8.169-4.186-9.685 0-2.474.479-4.346 1.435-5.621-1.196.799-2.59 1.195-4.186 1.195-1.434 0-3.986-2.15-7.652-6.454-3.428-4.066-5.14-6.378-5.14-6.936 0-1.593.238-2.91.717-3.947-.878.159-1.794.241-2.751.241-6.137 0-10.841-2.193-14.107-6.576-2.312-2.95-3.468-5.621-3.468-8.013 0-2.788 1.076-4.703 3.228-5.737h.24c-2.473-.479-4.267-1.913-5.381-4.305l-1.076-3.708c0-4.383 2.312-6.375 6.936-5.979 2.709 3.27 4.542 4.904 5.5 4.904.399 0 .796-.042 1.195-.121.079.64.119 1.354.119 2.152a8.947 8.947 0 0 1-.957 4.066c-.556 1.274-1.474 2.113-2.749 2.51 1.595.559 3.31 1.834 5.14 3.825 1.037 1.915 4.026 3.709 8.968 5.381 4.147 1.354 6.219 3.031 6.219 5.023 0 1.674-.439 2.989-1.314 3.944 1.037 0 2.111.2 3.227.598 6.457 2.153 9.685 6.496 9.685 13.033 0 1.595-.437 2.909-1.314 3.946 1.833-1.037 4.663-.519 8.489 1.553 7.174 4.065 10.761 10.005 10.761 17.816 0 1.515-.517 2.909-1.554 4.185-1.116 1.356-2.751 2.034-4.903 2.034-1.196 0-2.392-.28-3.587-.839l14.945 15.425c.561-5.979.561-11.518 0-16.62-.556-5.341-1.672-10.082-3.347-14.229l-31.446-37.065c-12.115-15.224-25.786-30.768-41.01-46.631-10.046-10.517-20.768-21.199-32.166-32.038m7.891 14.586c4.304-.955 6.615 1.314 6.936 6.816 0 1.354.396 3.347 1.195 5.979 1.672-1.596 4.582-1.158 8.728 1.314 6.457 4.065 9.925 7.452 10.403 10.163 1.116.238 2.111.559 2.989.955 2.071 3.19 3.944 6.058 5.618 8.61V299c0 2.071-.2 3.627-.598 4.664-.558.957-.836 2.431-.836 4.423 0 1.354-.519 2.751-1.556 4.185-1.116 1.595-2.709 2.392-4.782 2.392-2.788 0-5.18-1.714-7.174-5.141-1.435-2.552-2.153-4.504-2.153-5.858 0-.717.201-1.514.598-2.392.479-.958.72-1.754.72-2.392s-.399-1.513-1.196-2.629a6.746 6.746 0 0 0-.359-1.196c-4.225-.399-7.454-1.915-9.685-4.544-.875.238-2.79-.479-5.739-2.153-3.029-1.593-5.939-3.984-8.728-7.174l-.598-10.88c.001-3.426 2.072-5.619 6.217-6.576m40.534-81.066c-2.153-2.392-5.381-4.663-9.685-6.815-3.986-2.071-8.889-3.985-14.708-5.739l-1.674-.478c-43.602-12.914-100.436-23.555-170.5-31.924a1207.612 1207.612 0 0 0-19.489-2.272c16.26 15.783 31.246 32.363 44.956 49.74l171.1 29.532c2.071-4.783 3.188-9.565 3.346-14.348.241-5.898-.876-11.797-3.346-17.696m-68.513-18.533a20.17 20.17 0 0 0 5.143 2.391c1.992-.398 4.383-.398 7.174 0 1.516 0 3.188.279 5.021.837.797.398 1.794.797 2.989 1.196 4.146 1.674 9.605 2.67 16.382 2.989a40.721 40.721 0 0 1 1.913 1.793c.717.877 1.076 2.152 1.076 3.827 0 3.348-1.714 5.659-5.142 6.935-2.551.797-6.537 1.354-11.957 1.674 3.27 2.071 6.576 5.3 9.925 9.684.238-.159.477-.239.717-.239 5.658-.558 10.401-1.395 14.229-2.51a3.529 3.529 0 0 1-.957-1.196c-1.994-3.587-2.989-5.461-2.989-5.62 0-6.137 3.307-7.812 9.925-5.022 6.534 2.71 9.804 5.978 9.804 9.805 0 .956-.201 1.833-.598 2.63.396.239.799.598 1.195 1.076 3.108 2.472 4.664 4.782 4.664 6.936 0 2.391-1.357 4.344-4.066 5.858-3.028 1.914-7.094 2.87-12.194 2.87a40.685 40.685 0 0 1-15.665-3.109c-2.63-1.115-4.582-2.231-5.856-3.348-1.995.718-4.783 1.077-8.37 1.077-5.819 0-9.485-1.235-11.001-3.708l-.598-3.227c0-5.58.796-9.525 2.391-11.837-3.746-.239-6.734-.757-8.967-1.554 1.195 1.673 1.793 3.746 1.793 6.218 0 2.391-.598 4.145-1.793 5.26-2.311 2.152-6.656 3.229-13.033 3.229-8.767 0-14.386-1.475-16.858-4.424-.32-.159-.517-.478-.599-.957-.319.159-.516.319-.598.479-1.274 1.275-2.949 1.913-5.021 1.913-7.015 0-12.674-1.913-16.979-5.739-2.947-2.63-4.423-4.703-4.423-6.217 0-3.985.994-6.695 2.989-8.13l-3.827-4.903c0-.876.08-1.634.239-2.271-10.521-.638-16.341-1.077-17.456-1.316-.16 0-.718-.638-1.674-1.913-.16-.159-.239-.279-.239-.358-4.146-1.037-8.729-2.71-13.75-5.022a244.06 244.06 0 0 1-5.739-2.631c-1.116 1.196-2.51 1.793-4.185 1.793-1.913-1.435-3.547-2.152-4.902-2.152h-5.142a111.83 111.83 0 0 1-2.152 3.229c-1.753 2.471-3.587 3.906-5.5 4.304-.239-.558-.558-.956-.956-1.196-3.827-3.587-6.815-6.495-8.967-8.728-.16-.318-.36-.558-.598-.717-2.87-3.507-5.461-6.298-7.772-8.37 0-2.791.996-4.624 2.989-5.5 2.948.319 6.935.917 11.957 1.793 1.753.638 3.148 1.435 4.185 2.391 2.072-.558 4.662-.837 7.771-.837 6.456 0 10.88 1.195 13.271 3.587 3.189.32 8.849.797 16.979 1.435.478 0 1.435-.119 2.869-.358 1.595.558 3.507.917 5.74 1.076a46.983 46.983 0 0 1 3.108 2.869c3.189 3.188 5.66 4.305 7.414 3.348 1.833-.957 2.95-.957 3.348 0 .798.16 1.674.32 2.629.479 5.502 1.833 12.436 2.75 20.806 2.75 3.507 0 5.819 1.116 6.936 3.348a6.28 6.28 0 0 1 .836 3.587c0 4.464-2.432 6.696-7.293 6.696-2.232.638-4.066 1.115-5.5 1.435.717 1.434 1.077 2.869 1.077 4.304v.119c3.267 1.674 5.578 3.626 6.933 5.859 1.675-5.341 7.055-7.453 16.142-6.337 3.827.478 7.095 1.315 9.806 2.51a4.244 4.244 0 0 1-.838-1.554 22.086 22.086 0 0 1-5.979-4.066c-3.746-3.267-5.619-6.137-5.619-8.608 0-2.87 1.355-4.743 4.066-5.62h.238c1.912.478 3.983.837 6.216 1.075.955.718 1.912 1.595 2.867 2.63m-96.25 16.979c0-.558.041-1.077.12-1.554-7.015-5.102-10.521-8.17-10.521-9.207 0-7.174 5.539-8.609 16.619-4.304 5.739 2.392 9.924 4.623 12.554 6.695h.837c12.992.239 19.489 4.026 19.489 11.359 0 1.594-.478 2.989-1.435 4.185-1.115 1.515-2.869 2.272-5.26 2.272-.956 0-2.232-.638-3.826-1.914-1.356-1.036-2.231-1.554-2.631-1.554-2.152-.318-4.185-.479-6.097-.479-.877.558-2.033.837-3.468.837-1.036 0-2.231-.279-3.587-.837h-.24c-3.268-1.115-5.858-1.754-7.771-1.913-1.992-.159-3.268-.239-3.825-.239-.639-2.072-.958-3.188-.958-3.347z"/><path fill="#D88D56" d="M526.508 294.935v.719l114.186 120.042-.357-19.966-.24-16.62-.357-15.303-4.663-4.186-36.229-31.806 31.446 37.065c1.675 4.146 2.791 8.888 3.347 14.229.561 5.103.561 10.642 0 16.62l-14.945-15.425c-2.232-1.113-4.384-3.389-6.455-6.814l-87.045-90.152 1.312 11.597m37.904-119.087c4.304 2.153 7.531 4.424 9.685 6.815 2.471 5.899 3.587 11.798 3.346 17.695-.158 4.783-1.274 9.565-3.346 14.348l-171.1-29.532 7.772 8.13a3221.695 3221.695 0 0 0 59.186 11.836 2874.138 2874.138 0 0 0 79.631 14.11 2398.454 2398.454 0 0 0 41.729 6.576l1.672.238.598-5.021a68.07 68.07 0 0 0 .958-11.24l3.227-31.446v-.239l-24.032-3.945-24.032-4.066c5.817 1.755 10.72 3.669 14.706 5.741z"/><path fill="#DAA554" d="M774.25 340.012l4.304-55.24c-36.269 44.56-82.54 70.903-138.815 79.035l.357 15.303.24 16.62.357 19.966c61.219-10.841 105.737-36.068 133.557-75.684m4.304-55.241l-50.577-3.466c-15.462 13.152-33.957 23.554-55.479 31.206-20.803 7.412-45.356 12.515-73.652 15.304l36.229 31.806 4.663 4.186c56.276-8.132 102.547-34.476 138.816-79.036m-61.219 14.708l34.316-6.936-34.316 6.936m-89.794 38.142l45.914 7.174-45.914-7.174m53.924-18.414l30.37 1.913-30.37-1.913M136.007 204.664c1.116 4.543 2.79 8.967 5.022 13.271l-5.261-18.652c0 1.754.079 3.547.239 5.381m329.883 87.641l-1.315-42.805c-30.37 6.298-63.61 9.445-99.718 9.445-66.957 0-124.11-10.959-171.458-32.88-25.986-12.036-44.797-25.428-56.436-40.174-.876 4.304-1.275 8.768-1.195 13.392l5.261 18.652c9.724 19.291 30.21 36.468 61.456 51.534 45.834 22.08 101.153 33.118 165.958 33.118 35.63 0 68.391-3.347 98.282-10.044-.32-.079-.597-.158-.835-.238m83.814-122.197l24.032 4.066 4.305-.837-4.305.837 24.032 3.945v.239a123.421 123.421 0 0 0 8.013-13.75c.797-3.428 1.195-9.446 1.195-18.055 0-31.325-23.675-57.949-71.022-79.87-47.109-21.92-104.141-32.88-171.098-32.88s-124.11 10.96-171.458 32.88c-47.268 21.92-70.902 48.544-70.902 79.87 0 2.631.159 5.301.478 8.011.877 5.82 2.551 11.479 5.022 16.979 2.232 4.862 5.222 9.645 8.967 14.348 11.638 14.746 30.45 28.138 56.436 40.174 47.347 21.921 104.5 32.88 171.458 32.88 36.108 0 69.348-3.147 99.718-9.445l-20.446-21.4-13.631-7.893 13.631 7.893-14.826-15.306c-19.21 2.391-39.655 3.587-61.337 3.587-53.884 0-99.917-7.613-138.099-22.837-38.021-15.066-57.033-33.359-57.033-54.881 0-21.601 19.012-39.936 57.033-55 38.182-15.146 84.214-22.718 138.099-22.718 53.964 0 100.075 7.572 138.336 22.718 38.103 15.064 57.154 33.399 57.154 55 0 11.159-5.143 21.482-15.425 30.968.557.159 1.115.319 1.673.477m15.066-52.129l10.282-14.108-10.282 14.108M543.846 92.87l-3.347-13.989 3.347 13.989m24.989 58.466l20.924-12.315-20.924 12.315m-50.099-68.75l-17.218-19.25 17.218 19.25m-233.63-21.043l-39.098-5.38 39.098 5.38M163.268 145.12l-18.054 25.945 18.054-25.945m5.501-24.99l-34.555 17.218 34.555-17.218m26.543-25.587l-43.163 7.771 43.163-7.771m43.761-19.729l-39.936-.717 39.936.717m229.806-9.205l-17.458-15.664 17.458 15.664m-90.632-10.761L347.16 41.576l31.087 13.272m52.25 4.185l-30.489-17.935 30.489 17.935m-98.402-3.587l-29.772-10.283 29.772 10.283m-14.946 165.598l26.543 23.434-26.543-23.434m65.642 3.108l25.826 18.652-25.826-18.652m-158.544-21.88l15.543 28.935-15.543-28.935m42.804 12.435l23.555 25.826-23.555-25.826m-76.522-27.261l10.163 31.207-10.163-31.207m-20.087-20.326l-1.673 30.37 1.673-30.37z"/><g><path fill="none" stroke="#4F3222" stroke-width="3" stroke-linecap="round" stroke-linejoin="round" d="M127.996 171.543c-2.471-5.5-4.145-11.159-5.022-16.979a68.482 68.482 0 0 1-.478-8.011c0-31.325 23.634-57.949 70.902-79.87 47.347-21.92 104.5-32.88 171.458-32.88s123.988 10.96 171.098 32.88c47.348 21.92 71.022 48.544 71.022 79.87 0 8.609-.398 14.627-1.195 18.055l-12.795 61.457m12.795-61.456a123.421 123.421 0 0 1-8.013 13.75m-462 20.924c-.08-4.624.319-9.088 1.195-13.392-3.746-4.703-6.735-9.486-8.967-14.348l7.772 27.74 5.261 18.652c9.724 19.291 30.21 36.468 61.456 51.534 45.834 22.08 101.153 33.118 165.958 33.118 35.63 0 68.391-3.347 98.282-10.044m-2.151-43.043c-30.37 6.298-63.61 9.445-99.718 9.445-66.957 0-124.11-10.959-171.458-32.88-25.986-12.036-44.797-25.428-56.436-40.174m5.861 38.859l-1.793-6.815c-2.232-4.304-3.906-8.728-5.022-13.271a61.856 61.856 0 0 1-.239-5.38m642.785 85.487l-4.304 55.24c-27.82 39.616-72.338 64.844-133.557 75.684L526.508 295.653m252.046-10.882c-36.269 44.56-82.54 70.903-138.815 79.035"/></g><g><path fill="none" stroke="#4F3222" stroke-width="2" stroke-linecap="round" stroke-linejoin="round" d="M564.77 117.979l10.282-14.108M543.846 92.87l-3.347-13.989M402.997 185.175l171.1 29.532c2.071-4.783 3.188-9.565 3.346-14.348.241-5.897-.875-11.796-3.346-17.695-2.153-2.392-5.381-4.663-9.685-6.815-3.986-2.071-8.889-3.985-14.708-5.739l-1.674-.478c-43.602-12.914-100.436-23.555-170.5-31.924a1207.612 1207.612 0 0 0-19.489-2.272c16.26 15.781 31.246 32.362 44.956 49.739l7.772 8.13a3221.695 3221.695 0 0 0 59.186 11.836 2874.138 2874.138 0 0 0 79.631 14.11 2398.454 2398.454 0 0 0 41.729 6.576l1.672.238.598-5.021a68.07 68.07 0 0 0 .958-11.24l3.227-31.446v-.239l-24.032-3.945-24.032-4.066m-120.404 42.686c-19.21 2.391-39.655 3.587-61.337 3.587-53.884 0-99.917-7.613-138.099-22.837-38.021-15.066-57.033-33.359-57.033-54.881 0-21.601 19.012-39.936 57.033-55 38.182-15.146 84.214-22.718 138.099-22.718 53.964 0 100.075 7.572 138.336 22.718 38.103 15.064 57.154 33.399 57.154 55 0 11.159-5.143 21.482-15.425 30.968m20.805-18.295l20.924-12.315m-16.023 35.153l4.305-.837m-59.305-90.751l-17.218-19.25m-216.412-1.793l-39.098-5.38M464.574 249.5l1.315 42.805M163.268 145.12l-18.054 25.945m23.555-50.935l-34.555 17.218m61.098-42.805l-43.163 7.771m86.924-27.5l-39.936-.717m269.742-8.488l-17.458-15.664m-73.174 4.903L347.16 41.576m-40.055 90.511c17.218-10.363 35.671-18.174 55.359-23.435m68.033-49.619l-30.489-17.935m-22.478 96.609l27.979-11.358m-73.414-70.903l-29.772-10.283m126.979 167.631l14.826 15.306 20.446 21.4m-53.805-56.195l18.533 19.489m1.195 7.413l13.631 7.893m-126.979-7.056l26.543 23.434m39.099-20.326l25.826 18.652m-184.37-40.532l15.543 28.935m27.261-16.5l23.555 25.826m-100.077-53.087l10.163 31.207m527.285 62.653l50.577 3.466m-252.046 10.881v-.719l-1.314-11.597c-1.754-12.674-1.593-24.072.479-34.195 12.516 2.55 27.021 4.941 43.522 7.174 3.347.319 6.774.677 10.282 1.076 43.443 4.624 92.941 12.592 148.5 23.913-15.462 13.152-33.957 23.554-55.479 31.206-20.803 7.412-45.356 12.515-73.652 15.304l36.229 31.806 4.663 4.186m77.597-64.328l34.316-6.936m-182.457-36.227l-16.86 5.979m-26.662-13.152c11.398 10.84 22.12 21.521 32.164 32.042 15.224 15.863 28.895 31.407 41.01 46.631l31.446 37.065c1.675 4.146 2.791 8.888 3.347 14.229.561 5.103.561 10.642 0 16.62l-14.945-15.425m-6.456-6.815l-87.045-90.152m115.5 132.357l-.357-19.966-.24-16.62-.357-15.303m-12.198-26.185l45.914 7.174m8.01-25.588l30.37 1.913m-541.393-154l-1.673 30.37"/></g></svg>