<svg xmlns="http://www.w3.org/2000/svg" viewBox="0 0 113.55 77.4"><path fill-rule="evenodd" d="M9.25 33.4q-.85-2.05-3.2-4.35-2.4-2.3-2.9-3.05l-.5-1.05-.75-1.85Q.75 20.65.75 20.05q.7-.75 3.25 1 .4.3 1.75.9l1.8.7 1.2.2 2.3-.15q9.9-13.2 26-18.65T75.5 2.2Q92.8 6 99.7 11.9t7.55 7.8l.95 1.75 1.3 3.35.25 1.3q1 3.6.85 7.3-.15 3.75-1.4 7.9.2 3.35-1.45 6.35.5 3.05 0 5.05.1 7.75 1 9.75l1.05 3.7v4.6l-.85.25-4.1.45q-1.5-.1-2.75-.7-.05-2.15 1.7-4.8v-3.5l-.3-2.4-2.05-4.55-9.1-7.8-.8-.3q-3.5-1.1-9.05-.7l-.45.05q-11.8 2.05-20 .65l-.85 2.45-3.05 7.6q-1.5 3.35-1.8 4.7l-.25 3.7-.05 4.4v2.5q0 1.85-.4 2.35-.35.6-.85.6v-.05l-.1.05q-1 1.05-2 .95l-1.35-.05-.85-.1q-1.4-.25-1.9-.65-.55-.45-.3-1.2l2.25-3.8q.75-5.3.1-11.15-.75-6.1-2.85-10.2-1.85-.5-4.8.05-3.5.65-7.8 2.7l-2.85 1.15q-1.9.65-3.1 1.35-2.25 1.3-4.65 2.1-4.5 1.55-9.2 1-4.3.1-7.05-2.05l.5.05h.95l1.7-.45.75-.5q1.5-1.1 1.4-2.75-.05-1.7-1.95-3.15-1.8-1.55-3.2-1.6T6 48.65l-.15-.05.75-1.4 1.9-3.05q2.25-2.65 2.2-6.25l-.1-1.1-.15-.5q-.5-1.85-1.2-2.9m.4 2.55L9.4 37.1l-.6-1.15h.85M35.3 26q-1.1 1.45-2.5 1.9l-3.35.3q-2.95 1.4-1.15 4.3l3.2 2.55q.8.6 1.25.6l2-.25q1.15-.55 2.2-1.85 1.1-1.25 2.1-4.05-.05-2.15-.4-3.25-.3-1.05-1.2-1.8-.8-.4-2.15 1.55l-6.4.55-2.45-.15 2.45.15 6.4-.55M23.15 37.95q0-.8-.8-1.25-.95.35-1.65 1.2-.1.85.7 1.25l1.75-1.2 1.05-1.45-1.85.2 1.85-.2-1.05 1.45m-1.75 1.2q-.8.35-1.7.4.45-1 1-1.65-.55.65-1 1.65.9-.05 1.7-.4m66.1 2.2l4.85 6.35-4.85-6.35M51.9 71.9q-.45.65-.9 2.2l-.5 2.4.5-2.4q.45-1.55.9-2.2m53.75-4.25q-1 2.1-.8 3.8-.2-1.7.8-3.8m3.3.3V71v-3.05m-53.8 4.1l.05 2.1q-.1 1.1-.4 1.5.3-.4.4-1.5l-.05-2.1m-34.7-18.6Q17.9 55.85 15 56.3l-5.2-.45 5.2.45q2.9-.45 5.45-2.85m44.05-17.5q.2 2.9-2.45 11.45 2.65-8.55 2.45-11.45" fill="#ebc6af"/><path fill-rule="evenodd" d="M10.45 36.3l.15.5-.45.95-.55-.4-.2-.25.25-1.15.2.05.6.3m12.7 1.65l-1.75 1.2q-.8-.4-.7-1.25.7-.85 1.65-1.2.8.45.8 1.25"/><path fill-rule="evenodd" d="M107.25 19.7q3.15-1.95 4.75-.55 1.65 1.4-.15 4.5-.35.7-1.4 1.35-.15-.9.3-1.85 1.2-2.6.35-3-.8-.3-2.9 1.3l-.95-1.75m-15.7 27.7l.45 3.55q.4 2.95-1.25 5.2L87.7 64.7q-.65 3.25-1.35 3.3l-4 .2q-1.5-.3-1.9-1 .1-.95.75-2 .8-1.25 2.05-1.7l2.1-5.05v-2.8l-3.3-8.9.45-.05q5.55-.4 9.05.7M35.2 52.25q-3.5 7-5.3 11.2-1.95 4.7-2.45 7.6l.15 1.65q.05 1.4-.85 1.5l-.95.05-2.9.2-2.15-.35q-3-.05-1.3-2.7 3.3-2.65 4.5-6.3 1.25-3.55.65-8.25 2.4-.8 4.65-2.1 1.2-.7 3.1-1.35l2.85-1.15M8.35 55.8q-1.5-.25-2.35-1.1-.95-.95-1-2.85-.05-1.65.8-2.9l.2-.3q1.1-1.3 2.5-1.25t3.2 1.6q1.9 1.45 1.95 3.15.1 1.65-1.4 2.75l-.75.5-1.7.45h-.95l-.5-.05m.15-11.65l-.05-3.95q.05-2.5.35-4.25l.45-2.55q.7 1.05 1.2 2.9l-.6-.3-.2-.05H8.8l.6 1.15.2.25.55.4.55.15q.05 3.6-2.2 6.25M28.3 32.5q-1.8-2.9 1.15-4.3l3.35-.3q1.4-.45 2.5-1.9 1.35-1.95 2.15-1.55.9.75 1.2 1.8.35 1.1.4 3.25-1 2.8-2.1 4.05-1.05 1.3-2.2 1.85l-2 .25q-.45 0-1.25-.6l-3.2-2.55m55.85 32.05q-.75.6-1.3 1.8-.45 1.05-.5 1.85.05-.8.5-1.85.55-1.2 1.3-1.8m-76.7-12.7l.1-.8-.3-.55-.6.05-.5.65-.05.65.35.45h.6l.4-.45m4.15.2l-.1-.75-.45-.6-.7-.05q-.3.15-.3.6l.1.75.45.5h.65l.35-.45m11.25 18.9q-1.4 1.25-2.1 3.15.7-1.9 2.1-3.15m2.95 3.3l1.65-3.2-1.65 3.2" fill="#e4b092"/><path fill-rule="evenodd" d="M7.45 51.85l-.4.45h-.6l-.35-.45.05-.65.5-.65.6-.05.3.55-.1.8m4.15.2l-.35.45h-.65l-.45-.5-.1-.75q0-.45.3-.6l.7.05.45.6.1.75" fill="#c48164"/><path stroke-linejoin="round" d="M9.25 33.4q-.85-2.05-3.2-4.35-2.4-2.3-2.9-3.05l-.5-1.05-.75-1.85Q.75 20.65.75 20.05q.7-.75 3.25 1 .4.3 1.75.9l1.8.7 1.2.2 2.3-.15q9.9-13.2 26-18.65T75.5 2.2Q92.8 6 99.7 11.9t7.55 7.8q3.15-1.95 4.75-.55 1.65 1.4-.15 4.5-.35.7-1.4 1.35-.15-.9.3-1.85 1.2-2.6.35-3-.8-.3-2.9 1.3l1.3 3.35.25 1.3q1 3.6.85 7.3-.15 3.75-1.4 7.9.2 3.35-1.45 6.35.5 3.05 0 5.05.1 7.75 1 9.75l1.05 3.7v4.6l-.85.25-4.1.45q-1.5-.1-2.75-.7-.05-2.15 1.7-4.8v-3.5l-.3-2.4-2.05-4.55-9.1-7.8-.8-.3.45 3.55q.4 2.95-1.25 5.2L87.7 64.7q-.65 3.25-1.35 3.3l-4 .2q-1.5-.3-1.9-1 .1-.95.75-2 .8-1.25 2.05-1.7l2.1-5.05v-2.8l-3.3-8.9q-11.8 2.05-20 .65l-.85 2.45-3.05 7.6q-1.5 3.35-1.8 4.7l-.25 3.7-.05 4.4v2.5q0 1.85-.4 2.35-.35.6-.85.6h-.1q-1 1.05-2 .95l-1.35-.05-.85-.1q-1.4-.25-1.9-.65-.55-.45-.3-1.2l2.25-3.8q.75-5.3.1-11.15-.75-6.1-2.85-10.2-1.85-.5-4.8.05-3.5.65-7.8 2.7-3.5 7-5.3 11.2-1.95 4.7-2.45 7.6l.15 1.65q.05 1.4-.85 1.5l-.95.05-2.9.2-2.15-.35q-3-.05-1.3-2.7 3.3-2.65 4.5-6.3 1.25-3.55.65-8.25-4.5 1.55-9.2 1-4.3.1-7.05-2.05-1.5-.25-2.35-1.1-.95-.95-1-2.85-.05-1.65.8-2.9l.05-.35.75-1.4 1.9-3.05-.05-3.95q.05-2.5.35-4.25l.45-2.55q.7 1.05 1.2 2.9l.15.5.1 1.1q.05 3.6-2.2 6.25m.9-7.05l.2.25.55.4.45-.95m-.95-.85L9.4 37.1l-.6-1.15h.85l.2.05.6.3m-.3 1.45l.55.15m17.6-5.4q-1.8-2.9 1.15-4.3l3.35-.3q1.4-.45 2.5-1.9l-6.4.55-2.45-.15m-3.3 11.55q0-.8-.8-1.25-.95.35-1.65 1.2-.1.85.7 1.25l1.75-1.2 1.05-1.45-1.85.2m-1.65 1.2q-.55.65-1 1.65.9-.05 1.7-.4M35.3 26q1.35-1.95 2.15-1.55.9.75 1.2 1.8.35 1.1.4 3.25-1 2.8-2.1 4.05-1.05 1.3-2.2 1.85l-2 .25q-.45 0-1.25-.6m75.75-15.35l.95 1.75M91.55 47.4q-3.5-1.1-9.05-.7l-.45.05m10.3.95l-4.85-6.35M82.35 68.2q.05-.8.5-1.85.55-1.2 1.3-1.8m24.8 6.45v-3.05m-4.1 3.5q-.2-1.7.8-3.8M50.5 76.5l.5-2.4q.45-1.55.9-2.2m2.9 3.75l-.1.05m.1-.05q.3-.4.4-1.5l-.05-2.1M35.2 52.25l-2.85 1.15q-1.9.65-3.1 1.35-2.25 1.3-4.65 2.1m-17.15-5l.1-.8-.3-.55-.6.05-.5.65-.05.65.35.45h.6l.4-.45m4.15.2l-.35.45h-.65l-.45-.5-.1-.75q0-.45.3-.6l.7.05.45.6.1.75M6 48.65q1.1-1.3 2.5-1.25t3.2 1.6q1.9 1.45 1.95 3.15.1 1.65-1.4 2.75l-.75.5-1.7.45 5.2.45q2.9-.45 5.45-2.85M5.8 48.95l.2-.3m2.35 7.15l.5.05h.95m17.65 15.2l-1.65 3.2m-5.05-.15q.7-1.9 2.1-3.15m39.2-23.55q2.65-8.55 2.45-11.45" stroke="#000" stroke-linecap="round" stroke-width="1.5" fill="none"/></svg>