<?xml version="1.0" encoding="UTF-8" standalone="no"?>
<svg id="svg4549" xmlns:inkscape="http://www.inkscape.org/namespaces/inkscape" xmlns:rdf="http://www.w3.org/1999/02/22-rdf-syntax-ns#" xmlns="http://www.w3.org/2000/svg" sodipodi:docname="pig.svg" viewBox="0 0 113.55 77.4" version="1.1" xmlns:cc="http://creativecommons.org/ns#" xmlns:dc="http://purl.org/dc/elements/1.1/" inkscape:version="0.48.2 r9819" xmlns:sodipodi="http://sodipodi.sourceforge.net/DTD/sodipodi-0.dtd">
 <metadata id="metadata4567">
  <rdf:RDF>
   <cc:Work rdf:about="">
    <dc:format>image/svg+xml</dc:format>
    <dc:type rdf:resource="http://purl.org/dc/dcmitype/StillImage"/>
    <dc:title/>
   </cc:Work>
  </rdf:RDF>
 </metadata>
 <sodipodi:namedview id="namedview4563" bordercolor="#666666" inkscape:pageshadow="2" guidetolerance="10" pagecolor="#ffffff" gridtolerance="10" inkscape:window-maximized="0" inkscape:zoom="2.9062086" objecttolerance="10" borderopacity="1" inkscape:current-layer="svg4549" inkscape:cx="56.775002" inkscape:cy="38.700001" inkscape:window-y="0" inkscape:window-x="0" inkscape:window-width="640" showgrid="false" inkscape:pageopacity="0" inkscape:window-height="480"/>
 <g id="g4551" transform="matrix(1.0, 0.0, 0.0, 1.0, -3.35, 40.65)">
  <path id="path4553" stroke="none" fill-rule="evenodd" d="M12.6-7.25q-0.85-2.05-3.2-4.35-2.4-2.3-2.9-3.05l-0.5-1.05-0.75-1.85q-1.15-2.45-1.15-3.05,0.7-0.75,3.25,1,0.4,0.3,1.75,0.9l1.8,0.7,1.2,0.2,2.3-0.15q9.9-13.2,26-18.65t38.45-1.85q17.3,3.8,24.2,9.7t7.55,7.8l0.95,1.75,1.3,3.35,0.25,1.3q1,3.6,0.85,7.3-0.15,3.75-1.4,7.9,0.2,3.35-1.45,6.35,0.5,3.05,0,5.05,0.1,7.75,1,9.75l1.05,3.7v4.6l-0.85,0.25-4.1,0.45q-1.5-0.1-2.75-0.7-0.05-2.15,1.7-4.8v-3.5l-0.3-2.4-2.05-4.55-9.1-7.8-0.8-0.3q-3.5-1.1-9.05-0.7l-0.45,0.05q-11.8,2.05-20,0.65l-0.85,2.45-3.05,7.6q-1.5,3.35-1.8,4.7l-0.25,3.7-0.05,4.4v2.5q0,1.85-0.4,2.35-0.35,0.6-0.85,0.6v-0.05l-0.1,0.05q-1,1.05-2,0.95l-1.35-0.05-0.85-0.1q-1.4-0.25-1.9-0.65-0.55-0.45-0.3-1.2l2.25-3.8q0.75-5.3,0.1-11.15-0.75-6.1-2.85-10.2-1.85-0.5-4.8,0.05-3.5,0.65-7.8,2.7l-2.85,1.15q-1.9,0.65-3.1,1.35-2.25,1.3-4.65,2.1-4.5,1.55-9.2,1-4.3,0.1-7.05-2.05l0.5,0.05h0.7,0.25l1.7-0.45,0.75-0.5q1.5-1.1,1.4-2.75-0.05-1.7-1.95-3.15-1.8-1.55-3.2-1.6t-2.5,1.25l-0.15-0.05,0.75-1.4,1.9-3.05q2.25-2.65,2.2-6.25l-0.1-1.1-0.15-0.5q-0.5-1.85-1.2-2.9m0.4,2.55l-0.25,1.15-0.6-1.15h0.85m25.65-9.95q-1.1,1.45-2.5,1.9l-3.35,0.3q-2.95,1.4-1.15,4.3l3.2,2.55q0.8,0.6,1.25,0.6l2-0.25q1.15-0.55,2.2-1.85,1.1-1.25,2.1-4.05-0.05-2.15-0.4-3.25-0.3-1.05-1.2-1.8-0.8-0.4-2.15,1.55l-6.4,0.55-2.45-0.15,2.45,0.15,6.4-0.55m-12.15,11.95q0-0.8-0.8-1.25-0.95,0.35-1.65,1.2-0.1,0.85,0.7,1.25l1.75-1.2,1.05-1.45-1.85,0.2,1.85-0.2-1.05,1.45m-1.75,1.2q-0.8,0.35-1.7,0.4,0.45-1,1-1.65-0.55,0.65-1,1.65,0.9-0.05,1.7-0.4m66.1,2.2l4.85,6.35-4.85-6.35m-35.6,30.55q-0.45,0.65-0.9,2.2l-0.5,2.4,0.5-2.4q0.45-1.55,0.9-2.2m53.75-4.25q-1,2.1-0.8,3.8-0.2-1.7,0.8-3.8m3.3,0.3v3.05-3.05m-53.8,4.1l0.05,2.1q-0.1,1.1-0.4,1.5,0.3-0.4,0.4-1.5l-0.05-2.1m-34.7-18.6q-2.55,2.4-5.45,2.85l-5.2-0.45,5.2,0.45q2.9-0.45,5.45-2.85m44.05-17.5q0.2,2.9-2.45,11.45,2.65-8.55,2.45-11.45" fill="#ebc6af"/>
  <path id="path4555" stroke="none" fill-rule="evenodd" d="M13.8-4.35l0.15,0.5-0.45,0.95-0.55-0.4-0.2-0.25,0.25-1.15,0.2,0.05,0.6,0.3m12.7,1.65l-1.75,1.2q-0.8-0.4-0.7-1.25,0.7-0.85,1.65-1.2,0.8,0.45,0.8,1.25" fill="#000000"/>
  <path id="path4557" stroke="none" fill-rule="evenodd" d="M110.6-20.95q3.15-1.95,4.75-0.55,1.65,1.4-0.15,4.5-0.35,0.7-1.4,1.35-0.15-0.9,0.3-1.85,1.2-2.6,0.35-3-0.8-0.3-2.9,1.3l-0.95-1.75m-15.7,27.7l0.45,3.55q0.4,2.95-1.25,5.2l-3.05,8.55q-0.65,3.25-1.35,3.3l-4,0.2q-1.5-0.3-1.9-1,0.1-0.95,0.75-2,0.8-1.25,2.05-1.7l2.1-5.05v-2.8l-3.3-8.9,0.45-0.05q5.55-0.4,9.05,0.7m-56.35,4.85q-3.5,7-5.3,11.2-1.95,4.7-2.45,7.6l0.15,1.65q0.05,1.4-0.85,1.5l-0.95,0.05-2.9,0.2-2.15-0.35q-3-0.05-1.3-2.7,3.3-2.65,4.5-6.3,1.25-3.55,0.65-8.25,2.4-0.8,4.65-2.1,1.2-0.7,3.1-1.35l2.85-1.15m-26.85,3.55q-1.5-0.25-2.35-1.1-0.95-0.95-1-2.85-0.05-1.65,0.8-2.9l0.2-0.3q1.1-1.3,2.5-1.25t3.2,1.6q1.9,1.45,1.95,3.15,0.1,1.65-1.4,2.75l-0.75,0.5-1.7,0.45h-0.25-0.7l-0.5-0.05m0.15-11.65l-0.05-3.95q0.05-2.5,0.35-4.25l0.45-2.55q0.7,1.05,1.2,2.9l-0.6-0.3-0.2-0.05h-0.85l0.6,1.15,0.2,0.25,0.55,0.4,0.55,0.15q0.05,3.6-2.2,6.25m19.8-11.65q-1.8-2.9,1.15-4.3l3.35-0.3q1.4-0.45,2.5-1.9,1.35-1.95,2.15-1.55,0.9,0.75,1.2,1.8,0.35,1.1,0.4,3.25-1,2.8-2.1,4.05-1.05,1.3-2.2,1.85l-2,0.25q-0.45,0-1.25-0.6l-3.2-2.55m55.85,32.05q-0.75,0.6-1.3,1.8-0.45,1.05-0.5,1.85,0.05-0.8,0.5-1.85,0.55-1.2,1.3-1.8m-76.7-12.7l0.1-0.8-0.3-0.55-0.6,0.05-0.5,0.65-0.05,0.65,0.35,0.45h0.6l0.4-0.45m4.15,0.2l-0.1-0.75-0.45-0.6-0.7-0.05q-0.3,0.15-0.3,0.6l0.1,0.75,0.45,0.5h0.65l0.35-0.45m11.25,18.9q-1.4,1.25-2.1,3.15,0.7-1.9,2.1-3.15m2.95,3.3l1.65-3.2-1.65,3.2" fill="#e4b092"/>
  <path id="path4559" stroke="none" fill-rule="evenodd" d="M10.8,11.2l-0.4,0.45h-0.6l-0.35-0.45,0.05-0.65,0.5-0.65,0.6-0.05,0.3,0.55-0.1,0.8m4.15,0.2l-0.35,0.45h-0.65l-0.45-0.5-0.1-0.75q0-0.45,0.3-0.6l0.7,0.05,0.45,0.6,0.1,0.75" fill="#c48164"/>
  <path id="path4561" stroke-linejoin="round" d="M12.6-7.25q-0.85-2.05-3.2-4.35-2.4-2.3-2.9-3.05l-0.5-1.05-0.75-1.85q-1.15-2.45-1.15-3.05,0.7-0.75,3.25,1,0.4,0.3,1.75,0.9l1.8,0.7,1.2,0.2,2.3-0.15q9.9-13.2,26-18.65t38.45-1.85q17.3,3.8,24.2,9.7t7.55,7.8q3.15-1.95,4.75-0.55,1.65,1.4-0.15,4.5-0.35,0.7-1.4,1.35-0.15-0.9,0.3-1.85,1.2-2.6,0.35-3-0.8-0.3-2.9,1.3l1.3,3.35,0.25,1.3q1,3.6,0.85,7.3-0.15,3.75-1.4,7.9,0.2,3.35-1.45,6.35,0.5,3.05,0,5.05,0.1,7.75,1,9.75l1.05,3.7v4.6l-0.85,0.25-4.1,0.45q-1.5-0.1-2.75-0.7-0.05-2.15,1.7-4.8v-3.5l-0.3-2.4-2.05-4.55-9.1-7.8-0.8-0.3,0.45,3.55q0.4,2.95-1.25,5.2l-3.05,8.55q-0.65,3.25-1.35,3.3l-4,0.2q-1.5-0.3-1.9-1,0.1-0.95,0.75-2,0.8-1.25,2.05-1.7l2.1-5.05v-2.8l-3.3-8.9q-11.8,2.05-20,0.65l-0.85,2.45-3.05,7.6q-1.5,3.35-1.8,4.7l-0.25,3.7-0.05,4.4v2.5q0,1.85-0.4,2.35-0.35,0.6-0.85,0.6h-0.1q-1,1.05-2,0.95l-1.35-0.05-0.85-0.1q-1.4-0.25-1.9-0.65-0.55-0.45-0.3-1.2l2.25-3.8q0.75-5.3,0.1-11.15-0.75-6.1-2.85-10.2-1.85-0.5-4.8,0.05-3.5,0.65-7.8,2.7-3.5,7-5.3,11.2-1.95,4.7-2.45,7.6l0.15,1.65q0.05,1.4-0.85,1.5l-0.95,0.05-2.9,0.2-2.15-0.35q-3-0.05-1.3-2.7,3.3-2.65,4.5-6.3,1.25-3.55,0.65-8.25-4.5,1.55-9.2,1-4.3,0.1-7.05-2.05-1.5-0.25-2.35-1.1-0.95-0.95-1-2.85-0.05-1.65,0.8-2.9l0.05-0.35,0.75-1.4,1.9-3.05-0.05-3.95q0.05-2.5,0.35-4.25l0.45-2.55q0.7,1.05,1.2,2.9l0.15,0.5,0.1,1.1q0.05,3.6-2.2,6.25m0.9-7.05l0.2,0.25,0.55,0.4,0.45-0.95m-0.95-0.85l-0.25,1.15-0.6-1.15h0.85l0.2,0.05,0.6,0.3m-0.3,1.45l0.55,0.15m17.6-5.4q-1.8-2.9,1.15-4.3l3.35-0.3q1.4-0.45,2.5-1.9l-6.4,0.55-2.45-0.15m-3.3,11.55q0-0.8-0.8-1.25-0.95,0.35-1.65,1.2-0.1,0.85,0.7,1.25l1.75-1.2,1.05-1.45-1.85,0.2m-1.65,1.2q-0.55,0.65-1,1.65,0.9-0.05,1.7-0.4m13.9-13.15q1.35-1.95,2.15-1.55,0.9,0.75,1.2,1.8,0.35,1.1,0.4,3.25-1,2.8-2.1,4.05-1.05,1.3-2.2,1.85l-2,0.25q-0.45,0-1.25-0.6m75.75-15.35l0.95,1.75m-16.65,25.95q-3.5-1.1-9.05-0.7l-0.45,0.05m10.3,0.95l-4.85-6.35m-5.15,26.85q0.05-0.8,0.5-1.85,0.55-1.2,1.3-1.8m24.8,6.45v-3.05m-4.1,3.5q-0.2-1.7,0.8-3.8m-55.15,8.85l0.5-2.4q0.45-1.55,0.9-2.2m2.9,3.75l-0.1,0.05m0.1-0.05q0.3-0.4,0.4-1.5l-0.05-2.1m-19.95-19.8l-2.85,1.15q-1.9,0.65-3.1,1.35-2.25,1.3-4.65,2.1m-17.15-5l0.1-0.8-0.3-0.55-0.6,0.05-0.5,0.65-0.05,0.65,0.35,0.45h0.6l0.4-0.45m4.15,0.2l-0.35,0.45h-0.65l-0.45-0.5-0.1-0.75q0-0.45,0.3-0.6l0.7,0.05,0.45,0.6,0.1,0.75m-5.6-3.4q1.1-1.3,2.5-1.25t3.2,1.6q1.9,1.45,1.95,3.15,0.1,1.65-1.4,2.75l-0.75,0.5-1.7,0.45,5.2,0.45q2.9-0.45,5.45-2.85m-14.65-4.5l0.2-0.3m2.35,7.15l0.5,0.05h0.7,0.25m17.65,15.2l-1.65,3.2m-5.05-0.15q0.7-1.9,2.1-3.15m39.2-23.55q2.65-8.55,2.45-11.45" stroke="#000000" stroke-linecap="round" stroke-width="1.5" fill="none"/>
 </g>
</svg>
