
<svg xmlns="http://www.w3.org/2000/svg" version="1.1" xmlns:xlink="http://www.w3.org/1999/xlink" preserveAspectRatio="none" x="0px" y="0px" width="285px" height="427px" viewBox="0 0 285 427">
<defs>
<linearGradient id="Gradient_1" gradientUnits="userSpaceOnUse" x1="61.99999999999999" y1="339.4" x2="107.69999999999999" y2="365.9" spreadMethod="pad">
<stop  offset="30.58823529411765%" stop-color="#333333"/>

<stop  offset="63.529411764705884%" stop-color="#666666"/>

<stop  offset="84.70588235294117%" stop-color="#333333"/>
</linearGradient>

<g id="Layer0_0_FILL">
<path fill="url(#Gradient_1)" stroke="none" d="
M 77.2 314.75
L 76.6 315.95 69.4 328.95 46.2 371.25
Q 69.295703125 373.5626953125 90.6 389.25
L 114.2 348.1 121.5 335.2 123.95 330.85
Q 123.3 328.1 116.7 323.8 110.6 319.9 102.3 316.75 81.85 308.9 77.2 314.75 Z"/>

<path fill="#E0DEE7" stroke="none" d="
M 242.45 133.15
L 242.25 133.3
Q 245.55 141.1 245 150.4 239.25 205.4 224.2 258.85 214.7 281.6 199.4 294.2 196.9 300.2 194.3 306.4 180.45 332.4 156.5 332.25
L 127 330.15
Q 127.5 331.3 127.35 332.2 127 335 121.5 335.2
L 114.2 348.1
Q 128.7 352 144.4 354.35 184.75 366.45 212.8 325.8
L 268.1 247.65
Q 287.2 208.95 270.5 185.85
L 242.45 133.15
M 75.8 313.1
Q 75.7 313.8 75.95 314.6 76.15 315.25 76.6 315.95
L 77.2 314.75
Q 81.85 308.9 102.3 316.75 110.6 319.9 116.7 323.8 123.3 328.1 123.95 330.85
L 121.5 335.2
Q 127 335 127.35 332.2 127.5 331.3 127 330.15 125.7 327.4 120.65 323.75 113.4 318.7 102.55 314.6 91.8 310.7 84.1 310.3 76.15 309.95 75.8 313.1
M 55.55 312.5
Q 61.35 322.15 69.4 328.95
L 76.6 315.95
Q 76.15 315.25 75.95 314.6 54.25 305.6 43.3 294.8
L 55.55 312.5
M 34.65 279.4
Q 32.6 278.2 30.7 277
L 43.3 294.8
Q 54.25 305.6 75.95 314.6 75.7 313.8 75.8 313.1 76.15 309.95 84.1 310.3 91.8 310.7 102.55 314.6 113.4 318.7 120.65 323.75 125.7 327.4 127 330.15
L 156.5 332.25
Q 180.45 332.4 194.3 306.4 196.9 300.2 199.4 294.2 176.65 312.8 141.05 309.05 80.15 301.45 34.65 279.4 Z"/>

<path fill="#4C4044" stroke="none" d="
M 82.5 180.2
L 73.7 195.1 88.9 219.85 97.2 204.55 82.5 180.2
M 173.35 201.35
L 165.25 216.95 180.35 242.2 188.35 227 173.35 201.35 Z"/>

<path fill="#373737" stroke="none" d="
M 73.7 195.1
L 48.85 188.85 64.85 214 88.9 219.85 73.7 195.1
M 138.8 211.05
L 153.65 235.45 180.35 242.2 165.25 216.95 138.8 211.05 Z"/>

<path fill="#EBECF1" stroke="none" d="
M 58.15 157.75
L 66.05 159.3
Q 81.25 141.75 97.5 125 110.55 110.7 130.35 104.8
L 126.3 97.75
Q 106.9 104.4 93.8 118.8 75.4 137.8 58.15 157.75
M 242.25 133.3
Q 235.7 117.65 213.95 107.6 193.65 100.4 172.7 96.1
L 178.5 106.45
Q 192.55 109.9 206.2 114.75 226.5 124.1 232.2 138.85 234.8 145.5 234.35 153.4 229.15 201.6 216.05 248.4 215.65 250 215.15 251.7 214.9 252.35 214.55 253.05 193.3 302.75 140.05 297.15 84.9 290.4 43.8 270.45 39.9 268.25 36.65 265.95 6 244 27.7 206.45 36.4 194.9 45.55 183.7
L 41.6 177.4
Q 28.8 192.85 16.7 208.95 -8.5 252.3 30.7 277 32.6 278.2 34.65 279.4 80.15 301.45 141.05 309.05 176.65 312.8 199.4 294.2 214.7 281.6 224.2 258.85 239.25 205.4 245 150.4 245.55 141.1 242.25 133.3 Z"/>

<path fill="#FDC644" stroke="none" d="
M 45.55 183.7
L 48.85 188.85 73.7 195.1 61.8 175.5 53.8 173.6 46.3 171.8 36.5 169.35 41.6 177.4 45.55 183.7
M 139.45 94.25
L 136.55 89.05 119.9 86.7 126.3 97.75 130.35 104.8 154.5 146.45 170.85 149.75 143.7 101.8 139.45 94.25
M 78.2 252.85
Q 76.85 249.05 72.3 247.8 67.75 246.45 62.95 248.75 58.05 250.8 55.75 255.2 53.4 259.55 54.9 263.4 56.45 267.4 60.95 268.65 65.45 269.85 70.15 267.65 75.1 265.45 77.4 261.15 79.85 256.8 78.2 252.85
M 73.1 252.2
L 75.35 254.85 70.3 258 73.8 262.95 69.4 266.2 65.8 260.6 60.05 263.95 58.15 260.5 63.75 257.35 60.55 252 64.55 249.85 68.1 255 73.1 252.2
M 141.65 265.2
Q 136.95 264.05 132.15 266.2 127.5 268.4 125 272.7 122.75 277.05 124.1 280.95 125.7 284.85 130.25 286.25 134.75 287.3 139.55 285.2 144.45 283.05 146.85 278.7 149.15 274.25 147.6 270.35 146.15 266.45 141.65 265.2
M 133.1 268.1
L 138.35 267.4 138.1 272.65 145.2 271.75 144.75 276.8 137.6 277.55 136.9 283.05 131.55 283.2 131.9 278.2 126.25 278.8 126.55 274.25 132.55 273.45 133.1 268.1
M 153.15 196.65
L 126.55 190.8 138.8 211.05 165.25 216.95 153.15 196.65
M 161.9 181.95
L 155.55 180.9 154.8 184.65
Q 155 184.7 155.2 184.8 157.75 181.7 161.9 181.95
M 175.65 165.75
Q 173.8 163.35 170.2 162.35 165.3 161.05 159.75 163.5 154.5 166.1 151.75 170.85 149.8 174.5 150.25 178
L 175.65 165.75
M 164.25 185.85
Q 166.1 185.45 168.05 184.55 173.4 182.05 176.1 177.35 177.9 174.1 177.7 171.1
L 155.2 180.8 155.55 180.9 161.9 181.95 164.25 185.85 Z"/>

<path fill="#FDBF2F" stroke="none" d="
M 70.3 160.1
Q 65.6 160.6 63.2 165.3 60.8 169.8 61.8 175.5
L 73.7 195.1 82.5 180.2 70.3 160.1
M 185.8 119.5
L 178.5 106.45 172.7 96.1 152.4 59.6 136.55 89.05 139.45 94.25 143.7 101.8 170.85 149.75 185.8 119.5
M 155.2 184.8
Q 154.9 185.15 154.65 185.5 152.15 189.55 153.15 196.65
L 165.25 216.95 173.35 201.35 164.25 185.85 161.9 181.95
Q 157.75 181.7 155.2 184.8 Z"/>

<path fill="#FDD577" stroke="none" d="
M 37.75 159.1
Q 35.25 163.4 36.5 169.35
L 46.3 171.8 53.8 173.6 61.8 175.5
Q 60.8 169.8 63.2 165.3 65.6 160.6 70.3 160.1
L 66.05 159.3 58.15 157.75 44.3 155.05
Q 40.05 155 37.75 159.1
M 131.3 79.9
L 143.95 56.55 136.95 56.25 124.35 78.35 131.3 79.9
M 127.6 179.9
Q 124.85 183.7 126.55 190.8
L 153.15 196.65
Q 152.15 189.55 154.65 185.5
L 154.8 184.65 155.55 180.9 155.2 180.8 151.2 180.05 150.8 180 135.05 177.15
Q 130.05 176.25 127.6 179.9 Z"/>

<path fill="#FDCB55" stroke="none" d="
M 136.55 89.05
L 131.3 79.9 124.35 78.35
Q 121 81.9 119.9 86.7
L 136.55 89.05
M 143.95 56.55
L 131.3 79.9 136.55 89.05 152.4 59.6 143.95 56.55 Z"/>

<path fill="#E2E0E9" stroke="none" d="
M 232.2 138.85
Q 226.5 124.1 206.2 114.75 192.55 109.9 178.5 106.45
L 185.8 119.5 170.85 149.75 154.5 146.45 130.35 104.8
Q 110.55 110.7 97.5 125 81.25 141.75 66.05 159.3
L 70.3 160.1 82.5 180.2 97.2 204.55 88.9 219.85 64.85 214 48.85 188.85 45.55 183.7
Q 36.4 194.9 27.7 206.45 6 244 36.65 265.95 39.9 268.25 43.8 270.45 84.9 290.4 140.05 297.15 193.3 302.75 214.55 253.05 214.9 252.35 215.15 251.7 215.65 250 216.05 248.4 229.15 201.6 234.35 153.4 234.8 145.5 232.2 138.85
M 168.05 184.55
Q 166.1 185.45 164.25 185.85
L 173.35 201.35 188.35 227 180.35 242.2 153.65 235.45 138.8 211.05 126.55 190.8
Q 124.85 183.7 127.6 179.9 130.05 176.25 135.05 177.15
L 150.8 180
Q 150.45 178.95 150.25 178 149.8 174.5 151.75 170.85 154.5 166.1 159.75 163.5 165.3 161.05 170.2 162.35 173.8 163.35 175.65 165.75 176.4 166.8 176.9 168.15 177.4 169.55 177.7 171.1 177.9 174.1 176.1 177.35 173.4 182.05 168.05 184.55
M 132.15 266.2
Q 136.95 264.05 141.65 265.2 146.15 266.45 147.6 270.35 149.15 274.25 146.85 278.7 144.45 283.05 139.55 285.2 134.75 287.3 130.25 286.25 125.7 284.85 124.1 280.95 122.75 277.05 125 272.7 127.5 268.4 132.15 266.2
M 72.3 247.8
Q 76.85 249.05 78.2 252.85 79.85 256.8 77.4 261.15 75.1 265.45 70.15 267.65 65.45 269.85 60.95 268.65 56.45 267.4 54.9 263.4 53.4 259.55 55.75 255.2 58.05 250.8 62.95 248.75 67.75 246.45 72.3 247.8
M 154.8 184.65
L 154.65 185.5
Q 154.9 185.15 155.2 184.8 155 184.7 154.8 184.65 Z"/>

<path fill="#FDB409" stroke="none" d="
M 75.35 254.85
L 73.1 252.2 68.1 255 64.55 249.85 60.55 252 63.75 257.35 58.15 260.5 60.05 263.95 65.8 260.6 69.4 266.2 73.8 262.95 70.3 258 75.35 254.85
M 138.35 267.4
L 133.1 268.1 132.55 273.45 126.55 274.25 126.25 278.8 131.9 278.2 131.55 283.2 136.9 283.05 137.6 277.55 144.75 276.8 145.2 271.75 138.1 272.65 138.35 267.4
M 177.7 171.1
Q 177.4 169.55 176.9 168.15 176.4 166.8 175.65 165.75
L 150.25 178 151.2 180.05 155.2 180.8 177.7 171.1 Z"/>

<path fill="#FDB91A" stroke="none" d="
M 151.2 180.05
L 150.25 178
Q 150.45 178.95 150.8 180
L 151.2 180.05 Z"/>
</g>

<path id="Layer0_0_1_STROKES" stroke="#363636" stroke-width="2" stroke-linejoin="round" stroke-linecap="round" fill="none" d="
M 242.25 133.3
Q 235.7 117.65 213.95 107.6 193.65 100.4 172.7 96.1
M 178.5 106.45
Q 192.55 109.9 206.2 114.75 226.5 124.1 232.2 138.85 234.8 145.5 234.35 153.4 229.15 201.6 216.05 248.4 215.65 250 215.15 251.7 214.9 252.35 214.55 253.05 193.3 302.75 140.05 297.15 84.9 290.4 43.8 270.45 39.9 268.25 36.65 265.95 6 244 27.7 206.45 36.4 194.9 45.55 183.7
M 41.6 177.4
Q 28.8 192.85 16.7 208.95 -8.5 252.3 30.7 277 32.6 278.2 34.65 279.4 80.15 301.45 141.05 309.05 176.65 312.8 199.4 294.2 214.7 281.6 224.2 258.85 239.25 205.4 245 150.4 245.55 141.1 242.25 133.3
L 242.45 133.15 270.5 185.85
Q 287.2 208.95 268.1 247.65
L 212.8 325.8
Q 184.75 366.45 144.4 354.35 128.7 352 114.2 348.1
M 69.4 328.95
Q 61.35 322.15 55.55 312.5
L 43.3 294.8 30.7 277
M 185.8 119.5
L 170.85 149.75 154.5 146.45
M 130.35 104.8
Q 110.55 110.7 97.5 125 81.25 141.75 66.05 159.3
M 82.5 180.2
L 97.2 204.55 88.9 219.85 64.85 214 48.85 188.85
M 177.7 171.1
Q 177.9 174.1 176.1 177.35 173.4 182.05 168.05 184.55 166.1 185.45 164.25 185.85
M 173.35 201.35
L 188.35 227 180.35 242.2 153.65 235.45 138.8 211.05
M 150.8 180
Q 150.45 178.95 150.25 178 149.8 174.5 151.75 170.85 154.5 166.1 159.75 163.5 165.3 161.05 170.2 162.35 173.8 163.35 175.65 165.75 176.4 166.8 176.9 168.15 177.4 169.55 177.7 171.1
M 155.55 180.9
L 161.9 181.95
M 82.5 180.2
L 73.7 195.1
M 58.15 157.75
Q 75.4 137.8 93.8 118.8 106.9 104.4 126.3 97.75
M 73.7 195.1
L 48.85 188.85
M 173.35 201.35
L 165.25 216.95
M 155.2 184.8
Q 155 184.7 154.8 184.65
M 139.55 285.2
Q 134.75 287.3 130.25 286.25 125.7 284.85 124.1 280.95 122.75 277.05 125 272.7 127.5 268.4 132.15 266.2 136.95 264.05 141.65 265.2 146.15 266.45 147.6 270.35 149.15 274.25 146.85 278.7 144.45 283.05 139.55 285.2 Z
M 77.4 261.15
Q 75.1 265.45 70.15 267.65 65.45 269.85 60.95 268.65 56.45 267.4 54.9 263.4 53.4 259.55 55.75 255.2 58.05 250.8 62.95 248.75 67.75 246.45 72.3 247.8 76.85 249.05 78.2 252.85 79.85 256.8 77.4 261.15 Z
M 43.3 294.8
Q 54.25 305.6 75.95 314.6 75.7 313.8 75.8 313.1 76.15 309.95 84.1 310.3 91.8 310.7 102.55 314.6 113.4 318.7 120.65 323.75 125.7 327.4 127 330.15
L 156.5 332.25
Q 180.45 332.4 194.3 306.4 196.9 300.2 199.4 294.2
M 76.6 315.95
Q 76.15 315.25 75.95 314.6
M 121.5 335.2
Q 127 335 127.35 332.2 127.5 331.3 127 330.15
M 165.25 216.95
L 180.35 242.2
M 73.7 195.1
L 88.9 219.85
M 138.8 211.05
L 165.25 216.95"/>

<path id="Layer0_0_2_STROKES" stroke="#6C4E2F" stroke-width="2" stroke-linejoin="round" stroke-linecap="round" fill="none" d="
M 172.7 96.1
L 178.5 106.45
M 41.6 177.4
L 45.55 183.7
M 178.5 106.45
L 185.8 119.5
M 154.5 146.45
L 130.35 104.8
M 66.05 159.3
L 70.3 160.1 82.5 180.2
M 45.55 183.7
L 48.85 188.85
M 173.35 201.35
L 164.25 185.85
M 138.8 211.05
L 126.55 190.8
Q 124.85 183.7 127.6 179.9 130.05 176.25 135.05 177.15
L 150.8 180
M 177.7 171.1
L 155.2 180.8 155.55 180.9
M 164.25 185.85
L 161.9 181.95
M 143.95 56.55
L 131.3 79.9 136.55 89.05 152.4 59.6 143.95 56.55 136.95 56.25 124.35 78.35 131.3 79.9
M 136.55 89.05
L 139.45 94.25 143.7 101.8 170.85 149.75
M 124.35 78.35
Q 121 81.9 119.9 86.7
L 126.3 97.75
M 119.9 86.7
L 136.55 89.05
M 58.15 157.75
L 44.3 155.05
Q 40.05 155 37.75 159.1 35.25 163.4 36.5 169.35
L 46.3 171.8 53.8 173.6 61.8 175.5
Q 60.8 169.8 63.2 165.3 65.6 160.6 70.3 160.1
M 61.8 175.5
L 73.7 195.1
M 66.05 159.3
L 58.15 157.75
M 130.35 104.8
L 126.3 97.75
M 36.5 169.35
L 41.6 177.4
M 155.2 184.8
Q 154.9 185.15 154.65 185.5 152.15 189.55 153.15 196.65
L 165.25 216.95
M 161.9 181.95
Q 157.75 181.7 155.2 184.8
M 175.65 165.75
L 150.25 178
M 150.8 180
L 151.2 180.05 155.2 180.8
M 153.15 196.65
L 126.55 190.8
M 145.2 271.75
L 144.75 276.8 137.6 277.55 136.9 283.05 131.55 283.2 131.9 278.2 126.25 278.8 126.55 274.25 132.55 273.45 133.1 268.1 138.35 267.4 138.1 272.65 145.2 271.75 Z
M 73.1 252.2
L 75.35 254.85 70.3 258 73.8 262.95 69.4 266.2 65.8 260.6 60.05 263.95 58.15 260.5 63.75 257.35 60.55 252 64.55 249.85 68.1 255 73.1 252.2 Z
M 152.4 59.6
L 172.7 96.1"/>

<path id="Layer0_0_3_STROKES" stroke="#000000" stroke-width="2" stroke-linejoin="round" stroke-linecap="round" fill="none" d="
M 114.2 348.1
L 90.6 389.25
M 46.2 371.25
L 69.4 328.95
M 76.6 315.95
L 77.2 314.75
Q 81.85 308.9 102.3 316.75 110.6 319.9 116.7 323.8 123.3 328.1 123.95 330.85
L 121.5 335.2
M 69.4 328.95
L 76.6 315.95
M 121.5 335.2
L 114.2 348.1"/>
</defs>

<g transform="matrix( 1, 0, 0, 1, 0,0) ">
<use xlink:href="#Layer0_0_FILL"/>

<use xlink:href="#Layer0_0_1_STROKES"/>

<use xlink:href="#Layer0_0_2_STROKES"/>

<use xlink:href="#Layer0_0_3_STROKES"/>
</g>
</svg>
