<svg xmlns="http://www.w3.org/2000/svg" xmlns:xlink="http://www.w3.org/1999/xlink" preserveAspectRatio="none" width="285" height="427" viewBox="0 0 285 427"><defs><linearGradient id="a" gradientUnits="userSpaceOnUse" x1="62" y1="339.4" x2="107.7" y2="365.9" spreadMethod="pad"><stop offset="30.588%" stop-color="#333"/><stop offset="63.529%" stop-color="#666"/><stop offset="84.706%" stop-color="#333"/></linearGradient><g id="b"><path fill="url(#a)" d="M77.2 314.75l-.6 1.2-7.2 13-23.2 42.3q23.096 2.313 44.4 18l23.6-41.15 7.3-12.9 2.45-4.35q-.65-2.75-7.25-7.05-6.1-3.9-14.4-7.05-20.45-7.85-25.1-2z"/><path fill="#E0DEE7" d="M242.45 133.15l-.2.15q3.3 7.8 2.75 17.1-5.75 55-20.8 108.45-9.5 22.75-24.8 35.35-2.5 6-5.1 12.2-13.85 26-37.8 25.85l-29.5-2.1q.5 1.15.35 2.05-.35 2.8-5.85 3l-7.3 12.9q14.5 3.9 30.2 6.25 40.35 12.1 68.4-28.55l55.3-78.15q19.1-38.7 2.4-61.8l-28.05-52.7M75.8 313.1q-.1.7.15 1.5.2.65.65 1.35l.6-1.2q4.65-5.85 25.1 2 8.3 3.15 14.4 7.05 6.6 4.3 7.25 7.05l-2.45 4.35q5.5-.2 5.85-3 .15-.9-.35-2.05-1.3-2.75-6.35-6.4-7.25-5.05-18.1-9.15-10.75-3.9-18.45-4.3-7.95-.35-8.3 2.8m-20.25-.6q5.8 9.65 13.85 16.45l7.2-13q-.45-.7-.65-1.35-21.7-9-32.65-19.8l12.25 17.7m-20.9-33.1q-2.05-1.2-3.95-2.4l12.6 17.8q10.95 10.8 32.65 19.8-.25-.8-.15-1.5.35-3.15 8.3-2.8 7.7.4 18.45 4.3 10.85 4.1 18.1 9.15 5.05 3.65 6.35 6.4l29.5 2.1q23.95.15 37.8-25.85 2.6-6.2 5.1-12.2-22.75 18.6-58.35 14.85-60.9-7.6-106.4-29.65z"/><path fill="#4C4044" d="M82.5 180.2l-8.8 14.9 15.2 24.75 8.3-15.3-14.7-24.35m90.85 21.15l-8.1 15.6 15.1 25.25 8-15.2-15-25.65z"/><path fill="#373737" d="M73.7 195.1l-24.85-6.25 16 25.15 24.05 5.85-15.2-24.75m65.1 15.95l14.85 24.4 26.7 6.75-15.1-25.25-26.45-5.9z"/><path fill="#EBECF1" d="M58.15 157.75l7.9 1.55q15.2-17.55 31.45-34.3 13.05-14.3 32.85-20.2l-4.05-7.05q-19.4 6.65-32.5 21.05-18.4 19-35.65 38.95m184.1-24.45q-6.55-15.65-28.3-25.7-20.3-7.2-41.25-11.5l5.8 10.35q14.05 3.45 27.7 8.3 20.3 9.35 26 24.1 2.6 6.65 2.15 14.55-5.2 48.2-18.3 95-.4 1.6-.9 3.3-.25.65-.6 1.35-21.25 49.7-74.5 44.1-55.15-6.75-96.25-26.7-3.9-2.2-7.15-4.5Q6 244 27.7 206.45q8.7-11.55 17.85-22.75l-3.95-6.3q-12.8 15.45-24.9 31.55-25.2 43.35 14 68.05 1.9 1.2 3.95 2.4 45.5 22.05 106.4 29.65 35.6 3.75 58.35-14.85 15.3-12.6 24.8-35.35Q239.25 205.4 245 150.4q.55-9.3-2.75-17.1z"/><path fill="#FDC644" d="M45.55 183.7l3.3 5.15 24.85 6.25-11.9-19.6-8-1.9-7.5-1.8-9.8-2.45 5.1 8.05 3.95 6.3m93.9-89.45l-2.9-5.2-16.65-2.35 6.4 11.05 4.05 7.05 24.15 41.65 16.35 3.3-27.15-47.95-4.25-7.55M78.2 252.85q-1.35-3.8-5.9-5.05-4.55-1.35-9.35.95-4.9 2.05-7.2 6.45-2.35 4.35-.85 8.2 1.55 4 6.05 5.25 4.5 1.2 9.2-1 4.95-2.2 7.25-6.5 2.45-4.35.8-8.3m-5.1-.65l2.25 2.65L70.3 258l3.5 4.95-4.4 3.25-3.6-5.6-5.75 3.35-1.9-3.45 5.6-3.15-3.2-5.35 4-2.15L68.1 255l5-2.8m68.55 13q-4.7-1.15-9.5 1-4.65 2.2-7.15 6.5-2.25 4.35-.9 8.25 1.6 3.9 6.15 5.3 4.5 1.05 9.3-1.05 4.9-2.15 7.3-6.5 2.3-4.45.75-8.35-1.45-3.9-5.95-5.15m-8.55 2.9l5.25-.7-.25 5.25 7.1-.9-.45 5.05-7.15.75-.7 5.5-5.35.15.35-5-5.65.6.3-4.55 6-.8.55-5.35m20.05-71.45l-26.6-5.85 12.25 20.25 26.45 5.9-12.1-20.3m8.75-14.7l-6.35-1.05-.75 3.75q.2.05.4.15 2.55-3.1 6.7-2.85m13.75-16.2q-1.85-2.4-5.45-3.4-4.9-1.3-10.45 1.15-5.25 2.6-8 7.35-1.95 3.65-1.5 7.15l25.4-12.25m-11.4 20.1q1.85-.4 3.8-1.3 5.35-2.5 8.05-7.2 1.8-3.25 1.6-6.25l-22.5 9.7.35.1 6.35 1.05 2.35 3.9z"/><path fill="#FDBF2F" d="M70.3 160.1q-4.7.5-7.1 5.2-2.4 4.5-1.4 10.2l11.9 19.6 8.8-14.9-12.2-20.1m115.5-40.6l-7.3-13.05-5.8-10.35-20.3-36.5-15.85 29.45 2.9 5.2 4.25 7.55 27.15 47.95 14.95-30.25m-30.6 65.3q-.3.35-.55.7-2.5 4.05-1.5 11.15l12.1 20.3 8.1-15.6-9.1-15.5-2.35-3.9q-4.15-.25-6.7 2.85z"/><path fill="#FDD577" d="M37.75 159.1q-2.5 4.3-1.25 10.25l9.8 2.45 7.5 1.8 8 1.9q-1-5.7 1.4-10.2 2.4-4.7 7.1-5.2l-4.25-.8-7.9-1.55-13.85-2.7q-4.25-.05-6.55 4.05m93.55-79.2l12.65-23.35-7-.3-12.6 22.1 6.95 1.55m-3.7 100q-2.75 3.8-1.05 10.9l26.6 5.85q-1-7.1 1.5-11.15l.15-.85.75-3.75-.35-.1-4-.75-.4-.05-15.75-2.85q-5-.9-7.45 2.75z"/><path fill="#FDCB55" d="M136.55 89.05l-5.25-9.15-6.95-1.55Q121 81.9 119.9 86.7l16.65 2.35m7.4-32.5L131.3 79.9l5.25 9.15L152.4 59.6l-8.45-3.05z"/><path fill="#E2E0E9" d="M232.2 138.85q-5.7-14.75-26-24.1-13.65-4.85-27.7-8.3l7.3 13.05-14.95 30.25-16.35-3.3-24.15-41.65q-19.8 5.9-32.85 20.2-16.25 16.75-31.45 34.3l4.25.8 12.2 20.1 14.7 24.35-8.3 15.3L64.85 214l-16-25.15-3.3-5.15q-9.15 11.2-17.85 22.75Q6 244 36.65 265.95q3.25 2.3 7.15 4.5 41.1 19.95 96.25 26.7 53.25 5.6 74.5-44.1.35-.7.6-1.35.5-1.7.9-3.3 13.1-46.8 18.3-95 .45-7.9-2.15-14.55m-64.15 45.7q-1.95.9-3.8 1.3l9.1 15.5 15 25.65-8 15.2-26.7-6.75-14.85-24.4-12.25-20.25q-1.7-7.1 1.05-10.9 2.45-3.65 7.45-2.75L150.8 180q-.35-1.05-.55-2-.45-3.5 1.5-7.15 2.75-4.75 8-7.35 5.55-2.45 10.45-1.15 3.6 1 5.45 3.4.75 1.05 1.25 2.4.5 1.4.8 2.95.2 3-1.6 6.25-2.7 4.7-8.05 7.2m-35.9 81.65q4.8-2.15 9.5-1 4.5 1.25 5.95 5.15 1.55 3.9-.75 8.35-2.4 4.35-7.3 6.5-4.8 2.1-9.3 1.05-4.55-1.4-6.15-5.3-1.35-3.9.9-8.25 2.5-4.3 7.15-6.5M72.3 247.8q4.55 1.25 5.9 5.05 1.65 3.95-.8 8.3-2.3 4.3-7.25 6.5-4.7 2.2-9.2 1-4.5-1.25-6.05-5.25-1.5-3.85.85-8.2 2.3-4.4 7.2-6.45 4.8-2.3 9.35-.95m82.5-63.15l-.15.85q.25-.35.55-.7-.2-.1-.4-.15z"/><path fill="#FDB409" d="M75.35 254.85l-2.25-2.65-5 2.8-3.55-5.15-4 2.15 3.2 5.35-5.6 3.15 1.9 3.45 5.75-3.35 3.6 5.6 4.4-3.25-3.5-4.95 5.05-3.15m63 12.55l-5.25.7-.55 5.35-6 .8-.3 4.55 5.65-.6-.35 5 5.35-.15.7-5.5 7.15-.75.45-5.05-7.1.9.25-5.25m39.35-96.3q-.3-1.55-.8-2.95-.5-1.35-1.25-2.4L150.25 178l.95 2.05 4 .75 22.5-9.7z"/><path fill="#FDB91A" d="M151.2 180.05l-.95-2.05q.2.95.55 2l.4.05z"/></g><path id="c" stroke="#363636" stroke-width="2" stroke-linejoin="round" stroke-linecap="round" fill="none" d="M242.25 133.3q-6.55-15.65-28.3-25.7-20.3-7.2-41.25-11.5m5.8 10.35q14.05 3.45 27.7 8.3 20.3 9.35 26 24.1 2.6 6.65 2.15 14.55-5.2 48.2-18.3 95-.4 1.6-.9 3.3-.25.65-.6 1.35-21.25 49.7-74.5 44.1-55.15-6.75-96.25-26.7-3.9-2.2-7.15-4.5Q6 244 27.7 206.45q8.7-11.55 17.85-22.75m-3.95-6.3q-12.8 15.45-24.9 31.55-25.2 43.35 14 68.05 1.9 1.2 3.95 2.4 45.5 22.05 106.4 29.65 35.6 3.75 58.35-14.85 15.3-12.6 24.8-35.35Q239.25 205.4 245 150.4q.55-9.3-2.75-17.1l.2-.15 28.05 52.7q16.7 23.1-2.4 61.8l-55.3 78.15q-28.05 40.65-68.4 28.55-15.7-2.35-30.2-6.25m-44.8-19.15q-8.05-6.8-13.85-16.45L43.3 294.8 30.7 277m155.1-157.5l-14.95 30.25-16.35-3.3m-24.15-41.65q-19.8 5.9-32.85 20.2-16.25 16.75-31.45 34.3m16.45 20.9l14.7 24.35-8.3 15.3L64.85 214l-16-25.15M177.7 171.1q.2 3-1.6 6.25-2.7 4.7-8.05 7.2-1.95.9-3.8 1.3m9.1 15.5l15 25.65-8 15.2-26.7-6.75-14.85-24.4m12-31.05q-.35-1.05-.55-2-.45-3.5 1.5-7.15 2.75-4.75 8-7.35 5.55-2.45 10.45-1.15 3.6 1 5.45 3.4.75 1.05 1.25 2.4.5 1.4.8 2.95m-22.15 9.8l6.35 1.05m-79.4-1.75l-8.8 14.9m-15.55-37.35Q75.4 137.8 93.8 118.8q13.1-14.4 32.5-21.05M73.7 195.1l-24.85-6.25m124.5 12.5l-8.1 15.6M155.2 184.8q-.2-.1-.4-.15M139.55 285.2q-4.8 2.1-9.3 1.05-4.55-1.4-6.15-5.3-1.35-3.9.9-8.25 2.5-4.3 7.15-6.5 4.8-2.15 9.5-1 4.5 1.25 5.95 5.15 1.55 3.9-.75 8.35-2.4 4.35-7.3 6.5zM77.4 261.15q-2.3 4.3-7.25 6.5-4.7 2.2-9.2 1-4.5-1.25-6.05-5.25-1.5-3.85.85-8.2 2.3-4.4 7.2-6.45 4.8-2.3 9.35-.95 4.55 1.25 5.9 5.05 1.65 3.95-.8 8.3zM43.3 294.8q10.95 10.8 32.65 19.8-.25-.8-.15-1.5.35-3.15 8.3-2.8 7.7.4 18.45 4.3 10.85 4.1 18.1 9.15 5.05 3.65 6.35 6.4l29.5 2.1q23.95.15 37.8-25.85 2.6-6.2 5.1-12.2M76.6 315.95q-.45-.7-.65-1.35m45.55 20.6q5.5-.2 5.85-3 .15-.9-.35-2.05m38.25-113.2l15.1 25.25M73.7 195.1l15.2 24.75m49.9-8.8l26.45 5.9"/><path id="d" stroke="#6C4E2F" stroke-width="2" stroke-linejoin="round" stroke-linecap="round" fill="none" d="M172.7 96.1l5.8 10.35M41.6 177.4l3.95 6.3m132.95-77.25l7.3 13.05m-31.3 26.95l-24.15-41.65m-64.3 54.5l4.25.8 12.2 20.1m-36.95 3.5l3.3 5.15m124.5 12.5l-9.1-15.5m-25.45 25.2l-12.25-20.25q-1.7-7.1 1.05-10.9 2.45-3.65 7.45-2.75L150.8 180m26.9-8.9l-22.5 9.7.35.1m8.7 4.95l-2.35-3.9m-17.95-125.4L131.3 79.9l5.25 9.15L152.4 59.6l-8.45-3.05-7-.3-12.6 22.1 6.95 1.55m5.25 9.15l2.9 5.2 4.25 7.55 27.15 47.95m-46.5-71.4Q121 81.9 119.9 86.7l6.4 11.05m-6.4-11.05l16.65 2.35m-78.4 68.7l-13.85-2.7q-4.25-.05-6.55 4.05-2.5 4.3-1.25 10.25l9.8 2.45 7.5 1.8 8 1.9q-1-5.7 1.4-10.2 2.4-4.7 7.1-5.2m-8.5 15.4l11.9 19.6m-7.65-35.8l-7.9-1.55m72.2-52.95l-4.05-7.05m-89.8 71.6l5.1 8.05m113.6 7.4q-.3.35-.55.7-2.5 4.05-1.5 11.15l12.1 20.3m-3.35-35q-4.15-.25-6.7 2.85m20.45-19.05L150.25 178m.55 2l.4.05 4 .75m-2.05 15.85l-26.6-5.85m18.65 80.95l-.45 5.05-7.15.75-.7 5.5-5.35.15.35-5-5.65.6.3-4.55 6-.8.55-5.35 5.25-.7-.25 5.25 7.1-.9zM73.1 252.2l2.25 2.65L70.3 258l3.5 4.95-4.4 3.25-3.6-5.6-5.75 3.35-1.9-3.45 5.6-3.15-3.2-5.35 4-2.15L68.1 255l5-2.8zm79.3-192.6l20.3 36.5"/><path id="e" stroke="#000" stroke-width="2" stroke-linejoin="round" stroke-linecap="round" fill="none" d="M114.2 348.1l-23.6 41.15m-44.4-18l23.2-42.3m7.2-13l.6-1.2q4.65-5.85 25.1 2 8.3 3.15 14.4 7.05 6.6 4.3 7.25 7.05l-2.45 4.35m-52.1-6.25l7.2-13m44.9 19.25l-7.3 12.9"/></defs><g><use xlink:href="#b"/><use xlink:href="#c"/><use xlink:href="#d"/><use xlink:href="#e"/></g></svg>