<svg xmlns="http://www.w3.org/2000/svg" width="900" height="450" viewBox="0 0 900 450"><path fill="#D7B086" d="M623.64 314.604l37.538 39.776c18.893-10.526 35.8-22.457 50.716-35.8l-46.987-25.979c-10.69 7.873-24.448 15.205-41.267 22.003m-65.632 19.637l34.307 49.721A275.536 275.536 0 0 0 604 380.109c20.719-7.376 39.776-15.95 57.179-25.729l-37.538-39.776c-3.068 1.16-6.259 2.359-9.572 3.603-17.487 6.465-36.173 11.808-56.061 16.034m-42.76 63.147c30-2.736 55.688-7.211 77.066-13.426l-34.307-49.721c-18.064 3.814-37.125 6.713-57.178 8.701l14.419 54.446m229.956-155.376c-.082-6.05-1.243-13.137-3.479-21.256-3.729-13.589-12.722-27.76-26.975-42.511l-47.606 10.318c3.396 3.646 7.293 7.5 11.683 11.56l13.052 42.883c.913 2.238 1.576 4.35 1.99 6.341l.993 3.355a66.758 66.758 0 0 1-1.119 2.859c-.247.578-.456 1.16-.621 1.738 0 .083-.039.165-.124.25l50.592 2.112c0-.333.039-.704.124-1.119 1.075-7.871 1.575-13.382 1.49-16.53m-52.577-24.737l45.243-2.983-45.243 2.983m42.386 74.082c3.729-6.462 6.587-17.027 8.577-31.696l-50.592-2.112a97.309 97.309 0 0 1-4.101 8.451 130.988 130.988 0 0 0-2.114 3.855c-4.557 7.54-11.311 14.707-20.26 21.502l-1.617 1.243 46.987 25.979 1.738-1.243c7.211-5.384 14.339-14.046 21.382-25.979M424.509 346.05l1.989 54.321c32.899.33 62.481-.665 88.75-2.983l-14.418-54.445c-24.03 2.403-49.472 3.44-76.321 3.107m-89.744 47.979l19.888-51.832c-28.092-3.066-54.237-7.788-78.434-14.171l-34.432 43.506c28.341 10.194 59.333 17.691 92.978 22.497m19.887-51.832l-19.888 51.832c24.28 3.481 49.927 5.512 76.941 6.092l14.792.25-1.989-54.321h-1.491c-23.948-.247-46.737-1.531-68.365-3.853M223.639 138.468l22.747 7.085a336.436 336.436 0 0 1 10.938-4.847 92.945 92.945 0 0 1 4.476-1.99c.165-.249.332-.373.497-.373 8.37-3.48 16.533-6.795 24.487-9.944l-20.633-5.47a552.008 552.008 0 0 1-6.34 2.238 43.696 43.696 0 0 0-5.219 1.864c-11.604 4.145-21.92 7.957-30.953 11.437m64.636-23.617a1553.018 1553.018 0 0 0-22.125 8.08l20.633 5.47a2658.547 2658.547 0 0 1 29.087-11.685l-13.177-6.96c-.745.249-1.449.498-2.112.746l-2.486.747a347.43 347.43 0 0 1-9.82 3.602m-123.181 51.585a109.53 109.53 0 0 0-7.832 5.47c-6.96 4.972-12.885 10.109-17.775 15.414-10.275 10.772-17.774 20.094-22.498 27.967-4.641 7.624-7.458 15.123-8.452 22.499-.829 5.802-.995 10.606-.498 14.418.167 2.238.498 5.057.994 8.453.498 12.346 8.121 26.64 22.872 42.884 16.324 17.982 38.118 34.142 65.381 48.478 14.004 7.29 28.838 13.797 44.5 19.515l34.432-43.506c-15.33-4.062-29.874-8.824-43.629-14.294-7.209-2.819-13.922-5.718-20.137-8.701l-36.296 32.07 36.296-32.07c-21.794-10.524-37.457-21.918-46.985-34.183l-42.014 18.397 42.014-18.397c-7.625-9.694-11.395-19.971-11.312-30.825v-.374c0-4.642.705-9.075 2.113-13.3l-44.127.622 44.127-.622c3.232-11.768 9.903-23.162 20.013-34.184l-30.33-4.972 30.33 4.972c3.148-3.397 6.587-6.752 10.316-10.068 6.878-6.05 14.916-11.892 24.114-17.527l-25.356-6.463 25.356 6.463c10.442-6.546 22.333-12.885 35.674-19.018l-22.747-7.085c-7.126 2.735-13.465 5.305-19.018 7.707-16.904 7.208-30.079 13.962-39.526 20.26m557.489-51.585a595.86 595.86 0 0 0-7.708 2.113 4.82 4.82 0 0 0-.622.249 83.758 83.758 0 0 0-4.846 1.367c-8.288 2.321-15.702 4.683-22.25 7.085l18.147 12.802c8.453-4.723 19.558-9.032 33.313-12.926l-16.034-10.69m-70.23 52.331c1.823 4.475 4.684 9.239 8.577 14.294l.124.124c1.741 2.237 3.771 4.558 6.091 6.961l47.606-10.318a238.657 238.657 0 0 0-6.463-6.462c-7.791-7.458-12.098-13.839-12.928-19.143l-45.122 5.345v.373c.25 2.652.954 5.594 2.115 8.826m1.367-21.256c-1.491 1.906-2.486 3.937-2.983 6.091-.498 1.906-.663 3.895-.498 5.966l45.122-5.345c-.913-4.972 1.202-8.991 6.339-12.057a51.275 51.275 0 0 1 3.605-2.114l-18.147-12.802c-17.238 6.464-28.384 13.218-33.438 20.261m17.649-84.399h-.247l-39.031-2.859-28.589 12.927-35.176 15.786-56.31 25.358 36.793 2.486 44.5 2.859 70.976-43.256 6.215-3.729 14.047-8.577-13.178-.995m-21.752-10.939c-2.734-.083-5.468-.167-8.204-.249-39.196-2.321-78.846-1.409-118.954 2.735-4.558.332-8.99.787-13.302 1.367a862.164 862.164 0 0 0-28.092 3.605c-17.899 2.9-34.679 6.38-50.342 10.44h-.248c-13.259 3.149-25.689 6.795-37.291 10.938h-.249c-14.667 4.641-30.081 9.738-46.24 15.29a33.214 33.214 0 0 0-4.848 1.616 6900.294 6900.294 0 0 0-29.21 10.067 157.135 157.135 0 0 0-9.944 3.356l13.177 6.96C344.79 105.361 370.935 95.79 394.303 88c13.342-4.723 25.772-8.701 37.29-11.932 23.783-4.725 47.4-8.495 70.853-11.313a657.112 657.112 0 0 1 21.877-2.61c25.44-2.486 50.548-3.77 75.325-3.854h.124a600.49 600.49 0 0 1 32.318.374c5.718.165 11.438.455 17.154.869 1.575.084 8.784.622 21.629 1.617h.495c27.016 2.402 44.998 4.351 53.947 5.841 20.551 3.232 35.965 7.997 46.241 14.294.413 3.149-.165 5.842-1.741 8.08a21.33 21.33 0 0 1-.621.871l15.164 3.854-15.164-3.854c-1.41 1.409-3.896 3.605-7.458 6.587-2.983 2.404-6.671 4.766-11.063 7.085l19.143 7.831-19.143-7.831c-7.458 3.813-16.821 7.458-28.091 10.938l16.035 10.69a553.289 553.289 0 0 1 10.067-2.735c20.551-5.303 34.016-11.519 40.398-18.645 3.148-3.564 4.516-7.956 4.1-13.175-.412-5.056-2.568-9.572-6.462-13.549-3.316-3.315-6.463-5.676-9.446-7.085-.996-.497-2.527-1.036-4.602-1.616-.164 0-3.272-.787-9.322-2.362-6.132-1.326-11.726-2.775-16.78-4.351-5.138-1.739-18.063-3.645-38.781-5.717-20.551-2.237-32.691-3.521-36.421-3.853a2214.881 2214.881 0 0 0-21.751-1.861z"/><path fill="#A56950" d="M694.862 252.701l-.993-3.355c.331 2.236.289 4.307-.126 6.215a67.3 67.3 0 0 0 1.119-2.86m-33.932-71.224c-3.894-5.056-6.754-9.82-8.577-14.294l4.351 17.651 4.849 20.136c15.994 15.414 26.103 28.092 30.327 38.036l-13.052-42.883c-4.39-4.061-8.286-7.915-11.683-11.56-2.32-2.403-4.35-4.724-6.091-6.961l-.124-.125M502.818 76.566l-.372-11.809c-23.452 2.817-47.069 6.588-70.853 11.313-11.518 3.231-23.948 7.209-37.29 11.932-23.368 7.79-49.513 17.361-78.433 28.713a2678.727 2678.727 0 0 0-29.087 11.685 1533.16 1533.16 0 0 0-24.487 9.944c-.165 0-.332.124-.497.373a93.83 93.83 0 0 0-4.476 1.99 334.282 334.282 0 0 0-10.938 4.847c-13.341 6.133-25.232 12.472-35.674 19.018-9.198 5.635-17.236 11.477-24.114 17.527l2.114 7.458c11.932-7.707 26.89-14.875 44.872-21.503l3.108-.996c.414-.248.87-.455 1.367-.622a23.138 23.138 0 0 1 2.238-.622l197.017-72.963c4.972-2.403 11.394-4.724 19.267-6.961 5.718-1.74 12.142-3.272 19.267-4.6 8.615-1.824 17.607-3.397 26.971-4.724m146.427-17.029a395.486 395.486 0 0 0-17.154-.869l39.031 2.859.247-.249v.249l13.178.994-14.047 8.577-.374 4.351c19.228 2.071 36.878 4.931 52.954 8.576 17.237 3.978 30.121 8.246 38.657 12.803 3.562-2.982 6.048-5.178 7.458-6.587l-.745-.249.745.249c.248-.332.454-.622.621-.871 1.576-2.237 2.154-4.931 1.741-8.08-10.276-6.297-25.69-11.062-46.241-14.294-8.949-1.491-26.932-3.439-53.947-5.841h-.495c-12.845-.996-20.054-1.534-21.629-1.618m-49.473-1.243h-.124l-.123 13.177c1.325 0 2.65.041 3.977.124l28.589-12.927a600.527 600.527 0 0 0-32.319-.374z"/><path fill="#9A6243" d="M156.268 226.35c4.309-13.342 15.124-25.606 32.443-36.793l-2.114-7.458c-3.729 3.315-7.168 6.67-10.316 10.068-10.11 11.021-16.781 22.415-20.013 34.183M524.82 74.081c22.705-2.072 47.606-2.941 74.705-2.61l.123-13.177c-24.777.084-49.885 1.368-75.325 3.854a657.112 657.112 0 0 0-21.877 2.61l.372 11.809a772.423 772.423 0 0 1 22.002-2.486z"/><path fill="#B0C0FF" d="M591.195 137.972l-81.291-5.345 38.905-17.402-36.793-2.486 56.31-25.358c-36.713.58-68.448 5.511-95.217 14.792-13.175 4.474-23.45 9.446-30.825 14.916-16.243 4.639-59.707 19.514-130.392 44.623-70.851 25.191-106.401 49.72-106.649 73.586-.167 23.864 22.954 43.753 69.359 59.664 46.405 15.912 99.979 23.658 160.721 23.243 60.908-.33 112.906-7.458 155.998-21.379 43.256-13.673 64.926-32.441 65.008-56.309.168-16.821-4.183-30.288-13.052-40.396.663-4.641 5.097-9.737 13.302-15.289h.124l-4.351-17.651c-1.16-3.232-1.864-6.174-2.114-8.826v-.373c-.165-2.072 0-4.061.498-5.966.497-2.154 1.492-4.185 2.983-6.091 5.055-7.043 16.2-13.797 33.438-20.261 6.548-2.402 13.962-4.765 22.25-7.085-2.651-5.22-11.063-10.482-25.234-15.785-7.293-2.652-15.124-4.972-23.493-6.962l-69.485 42.14z"/><path fill="#8AA2FF" d="M509.904 132.627l81.291 5.345 69.484-42.139c8.369 1.99 16.2 4.31 23.493 6.962 14.171 5.303 22.583 10.565 25.234 15.785a82.527 82.527 0 0 1 4.846-1.367 4.97 4.97 0 0 1 .622-.249c2.65-.746 5.222-1.451 7.708-2.113l-1.617-1.118 1.617 1.118c11.27-3.48 20.633-7.125 28.091-10.938l-1.366-.622 1.366.622c4.393-2.32 8.08-4.682 11.063-7.085-8.536-4.557-21.42-8.825-38.657-12.803-16.076-3.645-33.727-6.505-52.954-8.576a124.307 124.307 0 0 0-5.841-.622l-70.976 43.256-44.5-2.859-38.904 17.403m89.621-61.156c-27.099-.332-52 .538-74.705 2.61a776.068 776.068 0 0 0-22.002 2.486c-9.364 1.327-18.356 2.9-26.973 4.723-7.125 1.327-13.549 2.86-19.267 4.6-7.873 2.237-14.294 4.558-19.267 6.961l-197.017 72.963a22.98 22.98 0 0 0-2.238.622 6.972 6.972 0 0 0-1.367.622l-3.108.996c-17.982 6.629-32.939 13.797-44.872 21.503-17.32 11.187-28.134 23.451-32.443 36.793l-2.113 13.674c-.083 10.854 3.688 21.131 11.312 30.825l1.118-.498-1.118.498c9.529 12.265 25.191 23.658 46.985 34.183 6.215 2.983 12.928 5.882 20.137 8.701 13.756 5.47 28.299 10.232 43.629 14.294l.87-1.243-.87 1.243c24.197 6.383 50.342 11.104 78.434 14.171 21.628 2.321 44.417 3.605 68.366 3.853h1.491c26.85.333 52.291-.704 76.321-3.107 20.053-1.988 39.113-4.887 57.178-8.701 19.889-4.227 38.574-9.569 56.06-16.035 3.313-1.243 6.504-2.442 9.572-3.603 16.819-6.798 30.577-14.13 41.267-22.003l1.617-1.243c8.949-6.795 15.703-13.962 20.26-21.502a130.988 130.988 0 0 1 2.114-3.855 97.891 97.891 0 0 0 4.101-8.451c.085-.085.124-.167.124-.25.165-.578.374-1.16.621-1.738.415-1.908.457-3.979.126-6.215-.414-1.991-1.077-4.103-1.99-6.341-4.225-9.944-14.333-22.622-30.327-38.036l-4.849-20.136h-.124c-8.205 5.552-12.639 10.648-13.302 15.289 8.869 10.109 13.22 23.576 13.052 40.396-.082 23.867-21.752 42.636-65.008 56.309-43.092 13.921-95.09 21.049-155.998 21.379-60.741.415-114.315-7.331-160.721-23.243-46.405-15.911-69.526-35.8-69.359-59.664.249-23.866 35.798-48.395 106.649-73.586 70.685-25.109 114.149-39.984 130.392-44.623 7.375-5.47 17.65-10.442 30.825-14.916 26.769-9.281 58.504-14.212 95.217-14.792l35.176-15.786a61.36 61.36 0 0 0-3.976-.127z"/><g><path fill="none" stroke="#000" stroke-width="2" stroke-linecap="round" stroke-linejoin="round" d="M592.314 383.962c-21.379 6.215-47.066 10.689-77.066 13.426-26.269 2.318-55.851 3.313-88.75 2.983l-14.792-.25c-27.015-.58-52.662-2.61-76.941-6.092-33.645-4.807-64.637-12.304-92.978-22.497-15.662-5.718-30.495-12.225-44.5-19.515-27.264-14.336-49.058-30.495-65.381-48.478-14.751-16.244-22.375-30.538-22.872-42.884-.497-3.396-.828-6.215-.994-8.453-.498-3.812-.332-8.616.498-14.418.994-7.376 3.812-14.875 8.452-22.499 4.724-7.873 12.223-17.195 22.498-27.967 4.89-5.305 10.814-10.442 17.775-15.414a109.53 109.53 0 0 1 7.832-5.47c9.446-6.297 22.622-13.051 39.527-20.261 5.552-2.402 11.891-4.972 19.018-7.707 9.033-3.48 19.349-7.292 30.952-11.435a43.349 43.349 0 0 1 5.219-1.864 564.627 564.627 0 0 0 6.34-2.238c7.541-2.817 14.916-5.51 22.125-8.08a342.445 342.445 0 0 0 9.82-3.604l2.486-.747a63.387 63.387 0 0 1 2.112-.746 155.872 155.872 0 0 1 9.944-3.356 6949.405 6949.405 0 0 1 29.21-10.067 33.214 33.214 0 0 1 4.848-1.616c16.159-5.552 31.573-10.649 46.24-15.29h.249c11.602-4.143 24.031-7.79 37.291-10.938h.248c15.663-4.06 32.442-7.541 50.342-10.44a861.81 861.81 0 0 1 28.092-3.605 217.68 217.68 0 0 1 13.302-1.367c40.108-4.144 79.758-5.056 118.954-2.735l8.204.249c7.21.58 14.459 1.202 21.752 1.865 3.729.331 15.87 1.615 36.421 3.853 20.719 2.072 33.644 3.978 38.781 5.717 5.055 1.576 10.648 3.025 16.78 4.351 6.05 1.576 9.158 2.362 9.322 2.362 2.074.58 3.605 1.119 4.602 1.616 2.983 1.409 6.13 3.77 9.446 7.085 3.894 3.978 6.05 8.493 6.462 13.549.416 5.219-.951 9.611-4.1 13.175-6.383 7.126-19.848 13.342-40.398 18.645a553.289 553.289 0 0 0-10.067 2.735M603.502 71.595l28.589-12.927a600.49 600.49 0 0 0-32.318-.374h-.124m-.124 13.177c1.325 0 2.65.041 3.977.124l-35.176 15.786-56.31 25.358 36.793 2.486 44.5 2.859 70.976-43.256 6.215-3.729 14.047-8.577-13.178-.994h-.247l-39.031-2.859c5.718.165 11.438.455 17.154.869 1.575.084 8.784.622 21.629 1.617h.495c27.016 2.402 44.998 4.351 53.947 5.841 20.551 3.232 35.965 7.997 46.241 14.294.413 3.149-.165 5.842-1.741 8.08a21.33 21.33 0 0 1-.621.871M502.818 76.566a776.068 776.068 0 0 1 22.002-2.486c22.705-2.072 47.606-2.941 74.705-2.61m109.882 47.11a82.527 82.527 0 0 1 4.846-1.367 4.97 4.97 0 0 1 .622-.249c2.65-.746 5.222-1.451 7.708-2.113M502.818 76.566c-9.364 1.327-18.356 2.9-26.973 4.723-7.125 1.327-13.549 2.86-19.267 4.6-7.873 2.237-14.294 4.558-19.267 6.961l-197.017 72.963a22.98 22.98 0 0 0-2.238.622 6.972 6.972 0 0 0-1.367.622l-3.108.996c-17.982 6.629-32.939 13.797-44.872 21.503-17.32 11.187-28.134 23.451-32.443 36.793m9.201 44.5c-7.625-9.694-11.395-19.971-11.312-30.825m510.13-165.197c1.988.165 3.938.373 5.841.622 19.228 2.071 36.878 4.931 52.954 8.576 17.237 3.978 30.121 8.246 38.657 12.803 3.562-2.982 6.048-5.178 7.458-6.587m-116.842 76.941c-1.16-3.232-1.864-6.174-2.114-8.826v-.373c-.165-2.072 0-4.061.498-5.966.497-2.154 1.492-4.185 2.983-6.091 5.055-7.043 16.2-13.797 33.438-20.261 6.548-2.402 13.962-4.765 22.25-7.085m-17.529 124.425l-13.052-42.883c-4.39-4.061-8.286-7.915-11.683-11.56-2.32-2.403-4.35-4.724-6.091-6.961l-.124-.124c-3.894-5.056-6.754-9.82-8.577-14.294l4.351 17.651 4.849 20.136c15.994 15.413 26.102 28.091 30.327 38.035.913 2.238 1.576 4.35 1.99 6.341l.993 3.355a66.758 66.758 0 0 1-1.119 2.859c-.247.578-.456 1.16-.621 1.738 0 .083-.039.165-.124.25m50.592 2.113c0-.333.039-.704.124-1.119 1.075-7.871 1.575-13.382 1.49-16.53-.082-6.05-1.243-13.137-3.479-21.256-3.729-13.589-12.722-27.76-26.975-42.511m-19.39-25.606c-.913-4.972 1.202-8.991 6.339-12.057a51.275 51.275 0 0 1 3.605-2.114M599.648 58.294c-24.777.084-49.885 1.368-75.325 3.854a657.112 657.112 0 0 0-21.877 2.61c-23.452 2.817-47.069 6.588-70.853 11.313-11.518 3.231-23.948 7.209-37.29 11.932-23.368 7.79-49.513 17.361-78.433 28.713a2678.727 2678.727 0 0 0-29.087 11.685 1533.16 1533.16 0 0 0-24.487 9.944c-.165 0-.332.124-.497.373a93.83 93.83 0 0 0-4.476 1.99 334.282 334.282 0 0 0-10.938 4.847c-13.341 6.133-25.232 12.472-35.674 19.018-9.198 5.635-17.236 11.477-24.114 17.527m575.14-85.273c-2.983 2.404-6.671 4.766-11.063 7.085m-55.314 48.727c.83 5.304 5.137 11.685 12.928 19.143a238.657 238.657 0 0 1 6.463 6.462m23.867-52.702c-13.756 3.894-24.86 8.203-33.313 12.926m45.369-34.555c-7.458 3.813-16.821 7.458-28.091 10.938M424.509 346.05h-1.491c-23.949-.247-46.738-1.531-68.366-3.853-28.092-3.066-54.237-7.788-78.434-14.171m-122.063-88.003v-.374c0-4.642.705-9.075 2.113-13.3m30.33-44.251c-3.729 3.315-7.168 6.67-10.316 10.068-10.11 11.022-16.781 22.416-20.013 34.184m119.949 101.676c-15.33-4.062-29.874-8.824-43.629-14.294-7.209-2.819-13.922-5.718-20.137-8.701-21.794-10.524-37.457-21.918-46.985-34.183m578.123-11.187c-1.99 14.669-4.848 25.234-8.577 31.696-7.043 11.933-14.171 20.595-21.381 25.979m-1.738 1.244c-14.916 13.343-31.823 25.273-50.716 35.8-17.402 9.779-36.46 18.354-57.179 25.729a278.423 278.423 0 0 1-11.685 3.853m100.684-126.413a97.309 97.309 0 0 1-4.101 8.451 130.988 130.988 0 0 0-2.114 3.855c-4.557 7.54-11.311 14.707-20.26 21.502m27.346-42.011c.331 2.236.289 4.307-.126 6.215m-135.735 78.68c-18.064 3.814-37.125 6.713-57.178 8.701-24.03 2.403-49.472 3.44-76.321 3.107m199.131-31.445c-3.068 1.16-6.259 2.359-9.572 3.603-17.485 6.466-36.171 11.809-56.06 16.035m106.898-41.641c-10.689 7.873-24.447 15.205-41.267 22.003"/></g><g><path fill="none" stroke="#000" stroke-linecap="round" stroke-linejoin="round" d="M738.618 125.542l3.354 2.237m27.223-37.539l15.164 3.854m-63.393 19.639l1.617 1.118m-555.998 155.5l-1.118.498M768.45 89.991l.745.249m-76.197 167.309l50.592 2.112m-76.445-71.099l47.606-10.318m-64.513-20.261l45.122-5.345m-8.203-26.972l18.147 12.802m64.512-26.725l-19.143-7.831-1.366-.622m-26.724 11.561l16.035 10.69m-492.232 20.012l-22.747-7.085m63.145-10.068l-20.633-5.47m-55.44 41.641l-25.356-6.463m130.516-41.393l-13.177-6.96m51.958 232.442l-19.888 51.832m89.745-47.979l1.989 54.321m-150.28-72.345l-34.432 43.506M156.268 226.35l-44.127.622m64.14-34.806l-30.33-4.972m19.516 83.655l-42.014 18.397m88.999 15.785l-36.296 32.07m100.932-10.318l-.87 1.243m316.096 55.936l.745.995m71.847-92.356l46.987 25.979M500.83 342.942l14.418 54.445m42.76-63.146l34.307 49.721m31.325-69.358l37.538 39.776m31.449-137.105l45.243-2.983"/></g></svg>