<?xml version="1.0" encoding="utf-8"?>
<!-- Generator: Adobe Illustrator 16.0.0, SVG Export Plug-In . SVG Version: 6.00 Build 0)  -->
<!DOCTYPE svg PUBLIC "-//W3C//DTD SVG 1.1//EN" "http://www.w3.org/Graphics/SVG/1.1/DTD/svg11.dtd">
<svg version="1.1" id="Layer_1" xmlns="http://www.w3.org/2000/svg" xmlns:xlink="http://www.w3.org/1999/xlink" x="0px" y="0px"
	 width="900px" height="450px" viewBox="0 0 900 450" enable-background="new 0 0 900 450" xml:space="preserve">
<g transform="matrix( 1, 0, 0, 1, 0,0) ">
	<g>
		<g id="Layer0_0_FILL">
			<path fill="#D7B086" d="M623.64,314.604l37.538,39.776c18.893-10.526,35.8-22.457,50.716-35.8l-46.987-25.979
				C654.217,300.474,640.459,307.806,623.64,314.604 M558.008,334.241l34.307,49.721c4.062-1.243,7.956-2.527,11.685-3.853
				c20.719-7.376,39.776-15.95,57.179-25.729l-37.538-39.776c-3.068,1.16-6.259,2.359-9.572,3.603
				C596.582,324.672,577.896,330.015,558.008,334.241 M515.248,397.388c30-2.736,55.688-7.211,77.066-13.426l-34.307-49.721
				c-18.064,3.814-37.125,6.713-57.178,8.701L515.248,397.388 M745.204,242.012c-0.082-6.05-1.243-13.137-3.479-21.256
				c-3.729-13.589-12.722-27.76-26.975-42.511l-47.606,10.318c3.396,3.646,7.293,7.5,11.683,11.56
				c4.351,14.294,8.701,28.588,13.052,42.883c0.913,2.238,1.576,4.35,1.99,6.341c0.331,1.117,0.661,2.236,0.993,3.355
				c-0.332,0.912-0.704,1.864-1.119,2.859c-0.247,0.578-0.456,1.16-0.621,1.738c0,0.083-0.039,0.165-0.124,0.25l50.592,2.112
				c0-0.333,0.039-0.704,0.124-1.119C744.789,250.671,745.289,245.16,745.204,242.012 M692.627,217.275l45.243-2.983
				L692.627,217.275 M735.013,291.357c3.729-6.462,6.587-17.027,8.577-31.696l-50.592-2.112c-1.158,2.733-2.527,5.553-4.101,8.451
				c-0.665,1.16-1.369,2.447-2.114,3.855c-4.557,7.54-11.311,14.707-20.26,21.502l-1.617,1.243l46.987,25.979l1.738-1.243
				C720.842,311.952,727.97,303.29,735.013,291.357 M424.509,346.05l1.989,54.321c32.899,0.33,62.481-0.665,88.75-2.983
				l-14.418-54.445C476.8,345.346,451.358,346.383,424.509,346.05 M334.765,394.029l19.888-51.832
				c-28.092-3.066-54.237-7.788-78.434-14.171l-34.432,43.506C270.128,381.726,301.12,389.223,334.765,394.029 M354.652,342.197
				l-19.888,51.832c24.28,3.481,49.927,5.512,76.941,6.092c4.972,0.085,9.902,0.167,14.792,0.25l-1.989-54.321
				c-0.497,0-0.994,0-1.491,0C399.069,345.803,376.28,344.519,354.652,342.197 M223.639,138.468l22.747,7.085
				c3.564-1.657,7.209-3.272,10.938-4.847c1.574-0.747,3.066-1.41,4.476-1.99c0.165-0.249,0.332-0.373,0.497-0.373
				c8.37-3.48,16.533-6.795,24.487-9.944l-20.633-5.47c-2.072,0.746-4.186,1.492-6.34,2.238c-1.739,0.497-3.48,1.118-5.219,1.864
				C242.988,131.176,232.672,134.988,223.639,138.468 M288.275,114.851c-7.209,2.57-14.584,5.262-22.125,8.08l20.633,5.47
				c9.944-4.061,19.639-7.956,29.087-11.685l-13.177-6.96c-0.745,0.249-1.449,0.498-2.112,0.746
				c-0.829,0.249-1.658,0.498-2.486,0.747C294.863,112.49,291.591,113.691,288.275,114.851 M165.094,166.436
				c-2.735,1.741-5.346,3.564-7.832,5.47c-6.96,4.972-12.885,10.109-17.775,15.414c-10.275,10.772-17.774,20.094-22.498,27.967
				c-4.641,7.624-7.458,15.123-8.452,22.499c-0.829,5.802-0.995,10.606-0.498,14.418c0.167,2.238,0.498,5.057,0.994,8.453
				c0.498,12.346,8.121,26.64,22.872,42.884c16.324,17.982,38.118,34.142,65.381,48.478c14.004,7.29,28.838,13.797,44.5,19.515
				l34.432-43.506c-15.33-4.062-29.874-8.824-43.629-14.294c-7.209-2.819-13.922-5.718-20.137-8.701l-36.296,32.07l36.296-32.07
				c-21.794-10.524-37.457-21.918-46.985-34.183l-42.014,18.397l42.014-18.397c-7.625-9.694-11.395-19.971-11.312-30.825
				c0-0.083,0-0.209,0-0.374c0-4.642,0.705-9.075,2.113-13.3l-44.127,0.622l44.127-0.622c3.232-11.768,9.903-23.162,20.013-34.184
				l-30.33-4.972l30.33,4.972c3.148-3.397,6.587-6.752,10.316-10.068c6.878-6.05,14.916-11.892,24.114-17.527l-25.356-6.463
				l25.356,6.463c10.442-6.546,22.333-12.885,35.674-19.018l-22.747-7.085c-7.126,2.735-13.465,5.305-19.018,7.707
				C187.716,153.384,174.541,160.138,165.094,166.436 M722.583,114.851c-2.486,0.663-5.058,1.368-7.708,2.113
				c-0.248,0.083-0.457,0.166-0.622,0.249c-1.655,0.414-3.272,0.871-4.846,1.367c-8.288,2.321-15.702,4.683-22.25,7.085
				l18.147,12.802c8.453-4.723,19.558-9.032,33.313-12.926L722.583,114.851 M652.353,167.182c1.823,4.475,4.684,9.239,8.577,14.294
				l0.124,0.124c1.741,2.237,3.771,4.558,6.091,6.961l47.606-10.318c-2.071-2.153-4.227-4.309-6.463-6.462
				c-7.791-7.458-12.098-13.839-12.928-19.143l-45.122,5.345c0,0.084,0,0.208,0,0.373
				C650.488,161.008,651.192,163.95,652.353,167.182 M653.72,145.926c-1.491,1.906-2.486,3.937-2.983,6.091
				c-0.498,1.906-0.663,3.895-0.498,5.966l45.122-5.345c-0.913-4.972,1.202-8.991,6.339-12.057c1.16-0.746,2.362-1.451,3.605-2.114
				l-18.147-12.802C669.92,132.129,658.774,138.883,653.72,145.926 M671.369,61.527h-0.247l-39.031-2.859l-28.589,12.927
				l-35.176,15.786l-56.31,25.358l36.793,2.486l44.5,2.859l70.976-43.256l6.215-3.729l14.047-8.577L671.369,61.527 M649.617,50.588
				c-2.734-0.083-5.468-0.167-8.204-0.249c-39.196-2.321-78.846-1.409-118.954,2.735c-4.558,0.332-8.99,0.787-13.302,1.367
				c-9.612,1.078-18.976,2.278-28.092,3.605c-17.899,2.9-34.679,6.38-50.342,10.44h-0.248c-13.259,3.149-25.689,6.795-37.291,10.938
				c-0.083,0-0.166,0-0.249,0c-14.667,4.641-30.081,9.738-46.24,15.29c-1.657,0.414-3.274,0.953-4.848,1.616
				c-9.446,3.231-19.183,6.587-29.21,10.067c-3.314,0.995-6.629,2.114-9.944,3.356l13.177,6.96
				c28.92-11.352,55.065-20.923,78.433-28.713c13.342-4.723,25.772-8.701,37.29-11.932c23.783-4.725,47.4-8.495,70.853-11.313
				c7.293-0.994,14.584-1.864,21.877-2.61c25.44-2.486,50.548-3.77,75.325-3.854h0.124c10.772-0.165,21.546-0.041,32.318,0.374
				c5.718,0.165,11.438,0.455,17.154,0.869c1.575,0.084,8.784,0.622,21.629,1.617h0.495c27.016,2.402,44.998,4.351,53.947,5.841
				c20.551,3.232,35.965,7.997,46.241,14.294c0.413,3.149-0.165,5.842-1.741,8.08c-0.167,0.249-0.373,0.539-0.621,0.871
				l15.164,3.854l-15.164-3.854c-1.41,1.409-3.896,3.605-7.458,6.587c-2.983,2.404-6.671,4.766-11.063,7.085l19.143,7.831
				l-19.143-7.831c-7.458,3.813-16.821,7.458-28.091,10.938l16.035,10.69c3.231-0.912,6.586-1.823,10.067-2.735
				c20.551-5.303,34.016-11.519,40.398-18.645c3.148-3.564,4.516-7.956,4.1-13.175c-0.412-5.056-2.568-9.572-6.462-13.549
				c-3.316-3.315-6.463-5.676-9.446-7.085c-0.996-0.497-2.527-1.036-4.602-1.616c-0.164,0-3.272-0.787-9.322-2.362
				c-6.132-1.326-11.726-2.775-16.78-4.351c-5.138-1.739-18.063-3.645-38.781-5.717c-20.551-2.237-32.691-3.521-36.421-3.853
				C664.076,51.79,656.827,51.168,649.617,50.588z"/>
			<path fill="#A56950" d="M694.862,252.701c-0.332-1.119-0.662-2.238-0.993-3.355c0.331,2.236,0.289,4.307-0.126,6.215
				C694.158,254.565,694.53,253.613,694.862,252.701 M660.93,181.477c-3.894-5.056-6.754-9.82-8.577-14.294l4.351,17.651
				l4.849,20.136c15.994,15.414,26.103,28.092,30.327,38.036c-4.351-14.295-8.701-28.588-13.052-42.883
				c-4.39-4.061-8.286-7.915-11.683-11.56c-2.32-2.403-4.35-4.724-6.091-6.961L660.93,181.477 M502.818,76.566l-0.372-11.809
				c-23.452,2.817-47.069,6.588-70.853,11.313c-11.518,3.231-23.948,7.209-37.29,11.932c-23.368,7.79-49.513,17.361-78.433,28.713
				c-9.448,3.729-19.143,7.625-29.087,11.685c-7.955,3.148-16.118,6.464-24.487,9.944c-0.165,0-0.332,0.124-0.497,0.373
				c-1.409,0.58-2.901,1.243-4.476,1.99c-3.729,1.574-7.374,3.19-10.938,4.847c-13.341,6.133-25.232,12.472-35.674,19.018
				c-9.198,5.635-17.236,11.477-24.114,17.527l2.114,7.458c11.932-7.707,26.89-14.875,44.872-21.503l3.108-0.996
				c0.414-0.248,0.87-0.455,1.367-0.622c0.747-0.248,1.492-0.455,2.238-0.622l197.017-72.963c4.972-2.403,11.394-4.724,19.267-6.961
				c5.718-1.74,12.142-3.272,19.267-4.6C484.462,79.466,493.454,77.893,502.818,76.566 M649.245,59.537
				c-5.717-0.414-11.437-0.704-17.154-0.869l39.031,2.859l0.247-0.249v0.249l13.178,0.994L670.5,71.098l-0.374,4.351
				c19.228,2.071,36.878,4.931,52.954,8.576c17.237,3.978,30.121,8.246,38.657,12.803c3.562-2.982,6.048-5.178,7.458-6.587
				l-0.745-0.249l0.745,0.249c0.248-0.332,0.454-0.622,0.621-0.871c1.576-2.237,2.154-4.931,1.741-8.08
				c-10.276-6.297-25.69-11.062-46.241-14.294c-8.949-1.491-26.932-3.439-53.947-5.841h-0.495
				C658.029,60.159,650.82,59.621,649.245,59.537 M599.772,58.294h-0.124l-0.123,13.177c1.325,0,2.65,0.041,3.977,0.124
				l28.589-12.927C621.318,58.253,610.545,58.129,599.772,58.294z"/>
			<path fill="#9A6243" d="M156.268,226.35c4.309-13.342,15.124-25.606,32.443-36.793l-2.114-7.458
				c-3.729,3.315-7.168,6.67-10.316,10.068C166.171,203.188,159.5,214.582,156.268,226.35 M524.82,74.081
				c22.705-2.072,47.606-2.941,74.705-2.61l0.123-13.177c-24.777,0.084-49.885,1.368-75.325,3.854
				c-7.293,0.746-14.584,1.616-21.877,2.61l0.372,11.809C509.943,75.655,517.28,74.827,524.82,74.081z"/>
			<path fill="#B0C0FF" d="M591.195,137.972l-81.291-5.345l38.905-17.402l-36.793-2.486l56.31-25.358
				c-36.713,0.58-68.448,5.511-95.217,14.792c-13.175,4.474-23.45,9.446-30.825,14.916c-16.243,4.639-59.707,19.514-130.392,44.623
				c-70.851,25.191-106.401,49.72-106.649,73.586c-0.167,23.864,22.954,43.753,69.359,59.664
				c46.405,15.912,99.979,23.658,160.721,23.243c60.908-0.33,112.906-7.458,155.998-21.379
				c43.256-13.673,64.926-32.441,65.008-56.309c0.168-16.821-4.183-30.288-13.052-40.396c0.663-4.641,5.097-9.737,13.302-15.289
				h0.124l-4.351-17.651c-1.16-3.232-1.864-6.174-2.114-8.826c0-0.165,0-0.289,0-0.373c-0.165-2.072,0-4.061,0.498-5.966
				c0.497-2.154,1.492-4.185,2.983-6.091c5.055-7.043,16.2-13.797,33.438-20.261c6.548-2.402,13.962-4.765,22.25-7.085
				c-2.651-5.22-11.063-10.482-25.234-15.785c-7.293-2.652-15.124-4.972-23.493-6.962L591.195,137.972z"/>
			<path fill="#8AA2FF" d="M509.904,132.627l81.291,5.345l69.484-42.139c8.369,1.99,16.2,4.31,23.493,6.962
				c14.171,5.303,22.583,10.565,25.234,15.785c1.573-0.497,3.19-0.953,4.846-1.367c0.165-0.083,0.374-0.165,0.622-0.249
				c2.65-0.746,5.222-1.451,7.708-2.113l-1.617-1.118l1.617,1.118c11.27-3.48,20.633-7.125,28.091-10.938l-1.366-0.622l1.366,0.622
				c4.393-2.32,8.08-4.682,11.063-7.085c-8.536-4.557-21.42-8.825-38.657-12.803c-16.076-3.645-33.727-6.505-52.954-8.576
				c-1.903-0.249-3.853-0.457-5.841-0.622l-70.976,43.256l-44.5-2.859L509.904,132.627 M599.525,71.471
				c-27.099-0.332-52,0.538-74.705,2.61c-7.54,0.747-14.877,1.574-22.002,2.486c-9.364,1.327-18.356,2.9-26.973,4.723
				c-7.125,1.327-13.549,2.86-19.267,4.6c-7.873,2.237-14.294,4.558-19.267,6.961l-197.017,72.963
				c-0.747,0.167-1.492,0.374-2.238,0.622c-0.497,0.167-0.953,0.374-1.367,0.622l-3.108,0.996
				c-17.982,6.629-32.939,13.797-44.872,21.503c-17.32,11.187-28.134,23.451-32.443,36.793l-2.113,13.674
				c-0.083,10.854,3.688,21.131,11.312,30.825l1.118-0.498l-1.118,0.498c9.529,12.265,25.191,23.658,46.985,34.183
				c6.215,2.983,12.928,5.882,20.137,8.701c13.756,5.47,28.299,10.232,43.629,14.294l0.87-1.243l-0.87,1.243
				c24.197,6.383,50.342,11.104,78.434,14.171c21.628,2.321,44.417,3.605,68.366,3.853c0.497,0,0.994,0,1.491,0
				c26.85,0.333,52.291-0.704,76.321-3.107c20.053-1.988,39.113-4.887,57.178-8.701c19.889-4.227,38.574-9.569,56.06-16.035
				c3.313-1.243,6.504-2.442,9.572-3.603c16.819-6.798,30.577-14.13,41.267-22.003l1.617-1.243
				c8.949-6.795,15.703-13.962,20.26-21.502c0.745-1.408,1.449-2.695,2.114-3.855c1.573-2.898,2.942-5.718,4.101-8.451
				c0.085-0.085,0.124-0.167,0.124-0.25c0.165-0.578,0.374-1.16,0.621-1.738c0.415-1.908,0.457-3.979,0.126-6.215
				c-0.414-1.991-1.077-4.103-1.99-6.341c-4.225-9.944-14.333-22.622-30.327-38.036l-4.849-20.136h-0.124
				c-8.205,5.552-12.639,10.648-13.302,15.289c8.869,10.109,13.22,23.576,13.052,40.396c-0.082,23.867-21.752,42.636-65.008,56.309
				c-43.092,13.921-95.09,21.049-155.998,21.379c-60.741,0.415-114.315-7.331-160.721-23.243
				c-46.405-15.911-69.526-35.8-69.359-59.664c0.249-23.866,35.798-48.395,106.649-73.586
				c70.685-25.109,114.149-39.984,130.392-44.623c7.375-5.47,17.65-10.442,30.825-14.916c26.769-9.281,58.504-14.212,95.217-14.792
				l35.176-15.786C602.176,71.512,600.851,71.471,599.525,71.471z"/>
		</g>
	</g>
	<g>
		<path id="Layer0_0_1_STROKES" fill="none" stroke="#000000" stroke-width="2" stroke-linecap="round" stroke-linejoin="round" d="
			M592.314,383.962c-21.379,6.215-47.066,10.689-77.066,13.426c-26.269,2.318-55.851,3.313-88.75,2.983
			c-4.89-0.083-9.82-0.165-14.792-0.25c-27.015-0.58-52.662-2.61-76.941-6.092c-33.645-4.807-64.637-12.304-92.978-22.497
			c-15.662-5.718-30.495-12.225-44.5-19.515c-27.264-14.336-49.058-30.495-65.381-48.478
			c-14.751-16.244-22.375-30.538-22.872-42.884c-0.497-3.396-0.828-6.215-0.994-8.453c-0.498-3.812-0.332-8.616,0.498-14.418
			c0.994-7.376,3.812-14.875,8.452-22.499c4.724-7.873,12.223-17.195,22.498-27.967c4.89-5.305,10.814-10.442,17.775-15.414
			c2.486-1.906,5.097-3.729,7.832-5.47c9.446-6.297,22.622-13.051,39.527-20.261c5.552-2.402,11.891-4.972,19.018-7.707
			c9.033-3.48,19.349-7.292,30.952-11.435c1.739-0.747,3.48-1.368,5.219-1.864c2.155-0.747,4.268-1.492,6.34-2.238
			c7.541-2.817,14.916-5.51,22.125-8.08c3.315-1.16,6.588-2.361,9.82-3.604c0.828-0.249,1.657-0.498,2.486-0.747
			c0.663-0.248,1.367-0.497,2.112-0.746c3.315-1.243,6.63-2.362,9.944-3.356c10.028-3.48,19.764-6.836,29.21-10.067
			c1.574-0.663,3.191-1.202,4.848-1.616c16.159-5.552,31.573-10.649,46.24-15.29c0.083,0,0.165,0,0.249,0
			c11.602-4.143,24.031-7.79,37.291-10.938h0.248c15.663-4.06,32.442-7.541,50.342-10.44c9.116-1.327,18.479-2.527,28.092-3.605
			c4.312-0.581,8.744-1.036,13.302-1.367c40.108-4.144,79.758-5.056,118.954-2.735c2.736,0.083,5.47,0.166,8.204,0.249
			c7.21,0.58,14.459,1.202,21.752,1.865c3.729,0.331,15.87,1.615,36.421,3.853c20.719,2.072,33.644,3.978,38.781,5.717
			c5.055,1.576,10.648,3.025,16.78,4.351c6.05,1.576,9.158,2.362,9.322,2.362c2.074,0.58,3.605,1.119,4.602,1.616
			c2.983,1.409,6.13,3.77,9.446,7.085c3.894,3.978,6.05,8.493,6.462,13.549c0.416,5.219-0.951,9.611-4.1,13.175
			c-6.383,7.126-19.848,13.342-40.398,18.645c-3.481,0.912-6.836,1.823-10.067,2.735 M603.502,71.595l28.589-12.927
			c-10.772-0.415-21.546-0.539-32.318-0.374h-0.124 M599.525,71.471c1.325,0,2.65,0.041,3.977,0.124l-35.176,15.786l-56.31,25.358
			l36.793,2.486l44.5,2.859l70.976-43.256l6.215-3.729l14.047-8.577l-13.178-0.994h-0.247l-39.031-2.859
			c5.718,0.165,11.438,0.455,17.154,0.869c1.575,0.084,8.784,0.622,21.629,1.617h0.495c27.016,2.402,44.998,4.351,53.947,5.841
			c20.551,3.232,35.965,7.997,46.241,14.294c0.413,3.149-0.165,5.842-1.741,8.08c-0.167,0.249-0.373,0.539-0.621,0.871
			 M502.818,76.566c7.125-0.912,14.462-1.739,22.002-2.486c22.705-2.072,47.606-2.941,74.705-2.61 M709.407,118.58
			c1.573-0.497,3.19-0.953,4.846-1.367c0.165-0.083,0.374-0.165,0.622-0.249c2.65-0.746,5.222-1.451,7.708-2.113 M502.818,76.566
			c-9.364,1.327-18.356,2.9-26.973,4.723c-7.125,1.327-13.549,2.86-19.267,4.6c-7.873,2.237-14.294,4.558-19.267,6.961
			l-197.017,72.963c-0.747,0.167-1.492,0.374-2.238,0.622c-0.497,0.167-0.953,0.374-1.367,0.622l-3.108,0.996
			c-17.982,6.629-32.939,13.797-44.872,21.503c-17.32,11.187-28.134,23.451-32.443,36.793 M165.467,270.849
			c-7.625-9.694-11.395-19.971-11.312-30.825 M664.285,74.827c1.988,0.165,3.938,0.373,5.841,0.622
			c19.228,2.071,36.878,4.931,52.954,8.576c17.237,3.978,30.121,8.246,38.657,12.803c3.562-2.982,6.048-5.178,7.458-6.587
			 M652.353,167.182c-1.16-3.232-1.864-6.174-2.114-8.826c0-0.165,0-0.289,0-0.373c-0.165-2.072,0-4.061,0.498-5.966
			c0.497-2.154,1.492-4.185,2.983-6.091c5.055-7.043,16.2-13.797,33.438-20.261c6.548-2.402,13.962-4.765,22.25-7.085
			 M691.879,243.005c-4.351-14.295-8.701-28.588-13.052-42.883c-4.39-4.061-8.286-7.915-11.683-11.56
			c-2.32-2.403-4.35-4.724-6.091-6.961l-0.124-0.124c-3.894-5.056-6.754-9.82-8.577-14.294l4.351,17.651l4.849,20.136
			C677.546,220.383,687.654,233.061,691.879,243.005c0.913,2.238,1.576,4.35,1.99,6.341c0.331,1.117,0.661,2.236,0.993,3.355
			c-0.332,0.912-0.704,1.864-1.119,2.859c-0.247,0.578-0.456,1.16-0.621,1.738c0,0.083-0.039,0.165-0.124,0.25 M743.59,259.661
			c0-0.333,0.039-0.704,0.124-1.119c1.075-7.871,1.575-13.382,1.49-16.53c-0.082-6.05-1.243-13.137-3.479-21.256
			c-3.729-13.589-12.722-27.76-26.975-42.511 M695.36,152.639c-0.913-4.972,1.202-8.991,6.339-12.057
			c1.16-0.746,2.362-1.451,3.605-2.114 M599.648,58.294c-24.777,0.084-49.885,1.368-75.325,3.854
			c-7.293,0.746-14.584,1.616-21.877,2.61c-23.452,2.817-47.069,6.588-70.853,11.313c-11.518,3.231-23.948,7.209-37.29,11.932
			c-23.368,7.79-49.513,17.361-78.433,28.713c-9.448,3.729-19.143,7.625-29.087,11.685c-7.955,3.148-16.118,6.464-24.487,9.944
			c-0.165,0-0.332,0.124-0.497,0.373c-1.409,0.58-2.901,1.243-4.476,1.99c-3.729,1.574-7.374,3.19-10.938,4.847
			c-13.341,6.133-25.232,12.472-35.674,19.018c-9.198,5.635-17.236,11.477-24.114,17.527 M761.737,96.827
			c-2.983,2.404-6.671,4.766-11.063,7.085 M695.36,152.639c0.83,5.304,5.137,11.685,12.928,19.143
			c2.236,2.153,4.392,4.309,6.463,6.462 M738.618,125.542c-13.756,3.894-24.86,8.203-33.313,12.926 M750.674,103.913
			c-7.458,3.813-16.821,7.458-28.091,10.938 M424.509,346.05c-0.497,0-0.994,0-1.491,0c-23.949-0.247-46.738-1.531-68.366-3.853
			c-28.092-3.066-54.237-7.788-78.434-14.171 M154.155,240.023c0-0.083,0-0.209,0-0.374c0-4.642,0.705-9.075,2.113-13.3
			 M186.598,182.098c-3.729,3.315-7.168,6.67-10.316,10.068c-10.11,11.022-16.781,22.416-20.013,34.184 M276.218,328.026
			c-15.33-4.062-29.874-8.824-43.629-14.294c-7.209-2.819-13.922-5.718-20.137-8.701c-21.794-10.524-37.457-21.918-46.985-34.183
			 M743.59,259.661c-1.99,14.669-4.848,25.234-8.577,31.696c-7.043,11.933-14.171,20.595-21.381,25.979 M711.894,318.58
			c-14.916,13.343-31.823,25.273-50.716,35.8c-17.402,9.779-36.46,18.354-57.179,25.729c-3.729,1.325-7.623,2.609-11.685,3.853
			 M692.998,257.549c-1.158,2.733-2.527,5.553-4.101,8.451c-0.665,1.16-1.369,2.447-2.114,3.855
			c-4.557,7.54-11.311,14.707-20.26,21.502 M693.869,249.346c0.331,2.236,0.289,4.307-0.126,6.215 M558.008,334.241
			c-18.064,3.814-37.125,6.713-57.178,8.701c-24.03,2.403-49.472,3.44-76.321,3.107 M623.64,314.604
			c-3.068,1.16-6.259,2.359-9.572,3.603c-17.485,6.466-36.171,11.809-56.06,16.035 M664.906,292.601
			c-10.689,7.873-24.447,15.205-41.267,22.003"/>
	</g>
	<g>
		<path id="Layer0_0_2_STROKES" fill="none" stroke="#000000" stroke-linecap="round" stroke-linejoin="round" d="M738.618,125.542
			l3.354,2.237 M769.195,90.24l15.164,3.854 M720.966,113.733l1.617,1.118 M166.585,270.351l-1.118,0.498 M768.45,89.991
			l0.745,0.249 M692.998,257.549l50.592,2.112 M667.145,188.562l47.606-10.318 M650.238,157.983l45.122-5.345 M687.157,125.666
			l18.147,12.802 M769.816,111.743l-19.143-7.831l-1.366-0.622 M722.583,114.851l16.035,10.69 M246.386,145.553l-22.747-7.085
			 M286.784,128.4l-20.633-5.47 M210.711,164.571l-25.356-6.463 M315.871,116.715l-13.177-6.96 M354.652,342.197l-19.888,51.832
			 M424.509,346.05l1.989,54.321 M276.218,328.026l-34.432,43.506 M156.268,226.35l-44.127,0.622 M176.281,192.166l-30.33-4.972
			 M165.467,270.849l-42.014,18.397 M212.452,305.031l-36.296,32.07 M277.088,326.783l-0.87,1.243 M592.314,383.962l0.745,0.995
			 M664.906,292.601l46.987,25.979 M500.83,342.942l14.418,54.445 M558.008,334.241l34.307,49.721 M623.64,314.604l37.538,39.776
			 M692.627,217.275l45.243-2.983"/>
	</g>
</g>
</svg>
