
<svg xmlns="http://www.w3.org/2000/svg" version="1.1" xmlns:xlink="http://www.w3.org/1999/xlink" preserveAspectRatio="none" x="0px" y="0px" width="285px" height="427px" viewBox="0 0 285 427">
<defs>
<g id="Layer0_0_FILL">
<path fill="#202020" stroke="none" d="
M 212.85 286.75
Q 215.55 290.75 216.85 295.45 217.85 298.95 217.95 302.95 218.05 304.55 217.95 305.95 217.8 309.5 216.85 312.55 215.6 316.2 213.3 319.1 213 319.55 212.7 319.95 210.1 322.75 207.1 323.9 204.05 325.1 200.55 324.7 200 324.65 199.6 324.6 194.3 323.65 190.2 319.55
L 186.3 321.3
Q 193.7 329.3 203.4 330.3 214.2 331.4 221.5 323.2 228.6 315.15 228 302.65 227.6 291.5 221.3 282.7 216.1 280.3 208.15 275.5 212 280.2 211.95 285.55 212.4 286.1 212.85 286.75
M 194.35 296.55
L 192.55 296.3
Q 192.15 296.9 191.9 297.65 191.65 298.55 191.55 299.65 191.55 300 191.55 300.4 191.65 301.15 191.75 301.8 191.95 303.2 192.6 304.4 192.95 305 193.35 305.6 193.85 306.3 194.45 306.75 195.55 307.75 196.85 308
L 198.95 307.1
Q 197.95 301.8 194.35 296.55
M 181.2 296.9
Q 181.2 296.75 181.2 296.6 181.2 295.1 181.45 293.8
L 176.35 292.45
Q 176.1 294.9 176.2 297.55 176.25 298.25 176.3 298.9 176.85 306.6 180.4 313.2 180.75 313.8 181.1 314.4 181.1 314.45 181.15 314.5
L 185.1 312.85
Q 184.85 312.4 184.65 312 184 310.7 183.45 309.45 182.55 307.15 182 304.75 181.3 301.8 181.2 298.8 181.15 297.85 181.2 296.9
M 191.7 271.05
Q 190.75 271.3 189.8 271.75 188.35 272.6 187.7 273.05 185.15 274.55 182.9 277.05 182.4 277.6 182.1 278.15 181 279.35 180.15 280.9 178.45 283.65 177.45 286.85 177.1 287.8 176.95 288.85
L 182.2 290
Q 182.4 289.2 182.65 288.45 183.6 285.6 185.4 283.25 185.6 282.9 185.95 282.5 186.6 281.65 187.3 281 188.3 280.05 189.35 279.3 190.55 278.45 191.8 277.9 194.7 276.75 198.1 277 198.35 277 198.65 277 202 277.45 205 279.15 201.3 274.25 191.7 271.05
M 15.6 284.55
Q 15.25 285.05 14.95 285.55 9 293.45 9.55 305.4 10.05 318.05 17.4 327.75 24.7 337.5 34.8 338.6 44.8 339.7 51.35 331.6 58.05 323.4 57.5 310.8 56.95 298.2 49.6 288.4 48.4 286.8 47.15 285.4
L 46.95 285.5
Q 44 282.5 41 280.4 36.95 278 32.3 277.5 22.3 276.35 15.6 284.55
M 18.7 290.1
Q 19.35 289.3 20.05 288.6 23.95 284.7 29.35 284.65 29.65 284.65 30.05 284.7 30.6 284.7 31.2 284.75 33.5 285 35.6 285.9 39.5 287.5 42.75 291.3 43.5 292.15 44.2 293.1 45.1 294.3 45.85 295.6 46.7 297.05 47.4 298.55 49.1 302.3 49.8 306.5 50 308.3 50.1 310.2 50.2 313.2 49.85 315.85 49.15 320.35 47 323.9 46.3 325.05 45.5 326.05 43.75 328.2 41.7 329.55 38.5 331.6 34.55 331.55 33.8 331.55 33.05 331.4 29.5 331 26.4 329.2 23.5 327.35 21 324.35 20.5 323.7 20.05 323.05 18 320.4 16.75 317.4 15.55 314.9 14.95 312.15 14.2 309.2 14.1 306.05 14.05 304.7 14.1 303.45 14.3 298.45 16.1 294.55 16.95 292.6 18.15 290.9 18.4 290.55 18.7 290.1
M 33.9 307.8
Q 33.65 306.6 33.1 305.6 32.8 304.95 32.3 304.3 32.15 304.1 32 303.9 30.9 302.55 29.6 302.1 29.1 301.85 28.5 301.8 28.15 301.75 27.9 301.8 26.55 301.8 25.55 302.6 25.1 302.95 24.7 303.4 24.6 303.5 24.55 303.7 24.2 304.2 23.9 304.8 23.4 306.05 23.4 307.7 23.4 307.95 23.4 308.2 23.45 309.05 23.6 309.85 23.75 310.7 24.1 311.55 24.5 312.45 25.15 313.3 26.05 314.5 27.05 315.2 27.95 315.7 28.95 315.8 29.25 315.85 29.5 315.85 30.55 315.85 31.45 315.35 32.15 314.9 32.75 314.15 33.1 313.75 33.4 313.25 33.85 312.3 34.05 311.15 34.15 310.35 34.1 309.45 34.05 308.6 33.9 307.8
M 130.5 282.85
L 130.6 282.25
Q 130.6 282.05 130.6 281.9 129.65 282.2 129.05 282.65
L 130.5 282.85
M 130.65 282.9
L 130.5 282.85 129.05 282.65
Q 127.4 283.7 127.05 285.3 128.95 285.8 130.75 286.35 130.75 285.15 130.7 283.95 130.7 283.4 130.65 282.9
M 121.45 292.15
Q 121.45 292.2 121.45 292.25 121.35 292.4 121.3 292.65 120.95 293.5 120.6 294.35 124.4 293.4 127.95 293.8 128.7 293.85 129.4 294 129.75 293.1 130 292.15 126 290.95 121.8 290.95 121.65 291.55 121.45 292.15
M 115.85 295.9
Q 115.8 295.95 115.75 295.95 114.1 296.9 113.4 297.4 112.6 297.9 111.85 298.4 111.25 298.8 110.8 299.25 109.35 300.45 108 301.95 107.9 302.05 107.8 302.2 107.4 302.6 107.15 303.05 106.25 304.1 105.5 305.3 105.25 305.65 105 306.1 104.35 307.15 103.75 308.25 103.25 309.35 102.75 310.5 102.5 311.15 102.25 311.9 101.65 313.65 101.25 315.6 101.2 315.75 101.15 316.05 100.35 320.15 100.55 324.75 101.15 338.65 110.1 349.2 118.9 359.95 130.95 361.25 142.95 362.45 151.1 353.35 158.15 345.3 158.4 333.45 158.4 331.95 158.35 330.45 157.9 319.45 152.35 310.45
L 151.45 310.7
Q 147.15 303.8 142.2 299.3 136.35 295 129.4 294 128.7 293.85 127.95 293.8 124.4 293.4 120.6 294.35 120.45 294.35 120.3 294.4 118.15 294.95 115.85 295.9
M 142.25 313.95
Q 142.3 314.05 142.4 314.2 142.95 315.15 143.4 316.1 144.4 317.95 145.05 319.9 145.15 319.9 145.15 320.05 145.55 321.15 145.85 322.35 146.2 323.5 146.45 324.7 146.45 324.75 146.45 324.85 146.8 326.5 147 328.2 147.1 329.45 147.15 330.75 147.2 332.5 147.15 334.15 146.95 338.05 145.85 341.5 144.55 345.6 142 348.85 141.6 349.3 141.25 349.75 138.4 352.8 135 354.15 131.6 355.45 127.65 355 127.15 354.95 126.65 354.85 120.45 353.8 115.55 348.55 114.15 347.2 112.9 345.45 111.2 343.25 110 340.85 107.95 337 107 332.7 106.25 329.55 106.1 326.1 106.05 324.85 106.1 323.65 106.15 321.8 106.4 320.1 106.6 318.6 106.95 317.25 107.3 315.85 107.75 314.6 107.9 314.05 108.15 313.6 108.2 313.35 108.3 313.2 109.25 311.05 110.6 309.15 110.75 308.95 110.85 308.8 111.05 308.4 111.45 307.95 111.85 307.4 112.3 306.95 113.65 305.4 115.2 304.3 119.3 301.45 124.65 301.75 124.8 301.75 124.95 301.75
L 125 301.75
Q 125.25 301.75 125.6 301.8 128.95 302.25 132 303.8 133.2 304.45 134.45 305.3 135.35 305.9 136.3 306.75 137 307.4 137.75 308.1 138.95 309.4 140.1 310.85 140.3 311.1 140.45 311.3 140.95 312 141.45 312.75 141.9 313.3 142.25 313.95
M 123.95 320.85
Q 123.65 320.75 123.45 320.7 121.95 320.55 120.8 321.25 119.95 321.7 119.3 322.55 119.15 322.7 119.1 322.8 118.4 323.75 118.1 324.85 117.75 325.9 117.7 327 117.7 327.45 117.7 327.9 117.75 328.7 117.9 329.5 118.2 331 118.9 332.4 119.2 333.05 119.7 333.7 120.25 334.45 120.9 335 122.4 336.25 124.15 336.4 124.25 336.4 124.3 336.5 125.25 336.6 126.1 336.3 127.05 336 127.8 335.25 128.1 335 128.35 334.65 129.05 333.8 129.4 332.75 129.75 331.65 129.85 330.35 129.85 329.8 129.85 329.3 129.8 328.6 129.75 328 129.45 326.5 128.85 325.2 128.45 324.35 127.9 323.55 127.75 323.45 127.7 323.35 127.65 323.2 127.6 323.15 127.1 322.6 126.55 322.1 125.3 321.1 123.95 320.85
M 124.35 302
Q 124.45 301.85 124.65 301.75 119.3 301.45 115.2 304.3 113.65 305.4 112.3 306.95 112.75 306.95 113.2 306.95 115.95 306.8 118.45 305.9
L 118.5 305.9
Q 121.15 304.8 123.5 302.8 123.95 302.4 124.35 302
M 104.15 276.7
Q 103.55 276.7 103.1 276.95
L 103 287.45
Q 104.05 288.3 105.25 288.4 105.3 288.4 105.4 288.4 106.1 288.45 106.8 288.3 107.45 288.05 108 287.5 108.25 287.3 108.4 287.15 108.95 286.45 109.2 285.6 109.3 285.3 109.35 285.05
L 108.55 282.5 104.15 276.7
M 100.45 282.05
Q 100.55 282.65 100.7 283.25 100.9 284.35 101.4 285.3 101.7 285.85 102 286.35 102.45 286.9 102.9 287.35 102.95 287.4 103 287.45
L 103.1 276.95
Q 102.95 277 102.85 277.05 102.15 277.4 101.7 278.1 101.6 278.15 101.55 278.25 101 278.95 100.85 279.8 100.55 280.45 100.45 281.4 100.45 281.75 100.45 282.05
M 95.45 267.65
Q 95.6 267.4 95.85 267.15 96.1 266.85 96.35 266.6
L 95.35 265.25 95.45 267.65
M 90.65 266.4
Q 89.5 268.45 88.75 270.8 87.45 274.85 87.7 279.7 87.8 281.5 88.05 283.25 88.3 284.9 88.75 286.5 90.4 292.55 94.65 297.65 94.65 297.7 94.75 297.75 94.8 297.85 94.85 297.95 95.6 298.85 96.35 299.65 96.85 300.1 97.3 300.6 98.75 302 100.3 303.05 101.15 303.65 102 304.15 103.75 304.7 105.5 305.3 106.25 304.1 107.15 303.05 107.4 302.6 107.8 302.2 107.65 302.15 107.55 302.15 107.35 302.1 107.1 302.1 105.9 301.85 104.75 301.45 103.7 301 102.7 300.45 101.85 299.95 101.05 299.35 99.95 298.5 98.9 297.45 98.55 297.1 98.25 296.7 97.55 295.9 96.95 295.1 96.65 294.7 96.35 294.3 95.45 293 94.7 291.6 93.2 288.85 92.55 285.6 92.4 285.15 92.35 284.8 92 282.8 91.9 280.7 91.85 279.8 91.9 278.95 91.95 275.15 93.05 272.1 93.9 269.85 95.35 267.85 95.4 267.75 95.45 267.65
L 95.35 265.25 93.6 262.9
Q 93.2 263.05 92.9 263.25 92.75 263.35 92.7 263.5 91.7 264.6 91.05 265.8 90.85 266.1 90.65 266.4
M 105.95 262.65
Q 106.1 262.65 106.35 262.65 109.6 263 112.45 264.9 112.5 264.95 112.6 265 112.75 265.1 112.9 265.2 115.3 266.9 117.4 269.65 117.75 270.2 118.2 270.8 119.85 273.25 120.85 276.05 121.15 276.95 121.45 277.9 121.6 278.45 121.7 279
L 128.35 278.95 130.15 279.25
Q 129.85 277.6 129.35 276 127.75 270.7 124.2 266.15 124 265.9 123.75 265.55 122.15 263.65 120.45 262.15 116.35 260.7 112.4 260.05 104.65 258.65 98.4 260.35
L 100.8 263.4
Q 103.05 262.35 105.95 262.65 Z"/>

<path fill="#333333" stroke="none" d="
M 189.1 264.75
Q 195.35 266.7 200.6 269.85 204.7 272.3 208.15 275.5 216.1 280.3 221.3 282.7 227.7 285.6 230 284.7 216.85 260.8 189.1 264.75
M 186.1 269.4
Q 186.35 266.2 189.1 264.75
L 187.25 262.6 172.1 263.15 169.35 265.8 169.35 269.4 172.45 269.4 177.75 269.4 186.1 269.4
M 50.55 279.6
Q 49.2 278.4 47.9 277.4 37.15 268.7 27.2 270.2 37.85 269.4 50.6 280.05
L 54.15 283.2
Q 52.3 281.25 50.55 279.6
M 27.2 270.2
Q 16.85 271.75 7.3 284.35 23.9 268.3 41 280.4 44 282.5 46.95 285.5
L 47.15 285.4 54.15 283.2 50.6 280.05
Q 37.85 269.4 27.2 270.2
M 59.2 218.8
L 63.15 215.35 57.25 206.95 50.9 206.95 50.9 209.8 59.2 218.8
M 110.5 288.7
L 109.8 289.4 108.15 290.9 107.45 291.5 106.35 292.45 105.95 292.8 103.25 295.2 101.8 296.5
Q 102.85 295.95 103.85 295.5 105.05 294.9 106.15 294.45 107.5 293.9 108.8 293.4 109.05 293.3 109.3 293.25 110.85 292.65 112.45 292.3 112.9 292.15 113.45 292.05 116 291.4 118.5 291.1 118.95 291.05 119.4 291.05 120.6 290.95 121.8 290.95 126 290.95 130 292.15 136.5 294.1 142.2 299.3 147.15 303.8 151.45 310.7
L 152.35 310.45 155.2 309.65 155.65 309.5 158.45 308.7 159.75 308.25
Q 159.25 307.15 158.65 306.1 158.05 305 157.4 304 156.3 302.4 155.1 300.9 151.3 296.35 145.85 292.95 145.6 292.75 145.4 292.6
L 140.6 290
Q 139.1 289.3 137.5 288.65 134.3 287.35 130.75 286.35 128.95 285.8 127.05 285.3 124.65 285.35 122.45 285.6 122.3 285.6 122.25 285.65 120.7 285.75 119.25 286 115.85 286.6 113.05 287.65 111.7 288.15 110.5 288.7
M 120.85 279
L 118.4 279.05 113.15 279.05 108.55 282.5 109.35 285.05 109.6 285.8 110.5 288.7
Q 111.7 288.15 113.05 287.65 115.85 286.6 119.25 286 120.7 285.75 122.25 285.65 122.3 285.6 122.45 285.6 124.65 285.35 127.05 285.3 127.4 283.7 129.05 282.65 129.65 282.2 130.6 281.9 130.6 281.85 130.65 281.85
L 128.35 278.95 121.7 279 120.85 279
M 92.9 263.25
Q 93.2 263.05 93.6 262.9
L 90.5 258.85 85.1 264.35
Q 88.55 265 92.9 263.25
M 83.9 250.3
L 84.5 249.7 86.15 247.9 81.9 244.65 80.85 245.85 75.45 252.35 79.3 255.15 83.3 250.9 83.9 250.3
M 84.5 249.7
L 83.9 250.3 86.25 253.25 90.5 250.4 87.55 246.45 86.15 247.9 84.5 249.7
M 112.4 260.05
Q 116.35 260.7 120.45 262.15 125.15 263.85 130.05 266.65 128.1 263.7 127.15 262.3 125.55 260 124.1 258.8 122.25 257.2 120.3 256.1 109.15 249.45 94.7 255.7
L 98.4 260.35
Q 104.65 258.65 112.4 260.05
M 117.9 206.65
L 113.45 202.7 106.5 210.3 92.7 225.3 96.4 229.35 117.9 206.65
M 121.35 210.25
L 117.9 206.65 96.4 229.35 97.15 230.1 100.35 232.8 117.55 214.35 121.35 210.25
M 144 241.85
L 146.35 239.85 144.95 238.35 143.7 236.8 141.25 238.8 144 241.85
M 148.35 234.35
L 146.9 232.55
Q 146.8 232.5 146.7 232.45
L 148.35 234.35
M 151.75 235.1
L 148.65 231.8
Q 147.4 232.65 146.9 232.55
L 148.35 234.35 148.85 234.95 150.25 236.55 151.75 235.1
M 146.65 232.3
L 144.6 229.75 140.95 232.4 143.7 236.8 144.95 238.35 148.85 234.95 148.35 234.35 146.7 232.45 146.65 232.3
M 155.7 158.25
L 155.15 158.9 156.25 157.7 155.7 158.25
M 153.65 168.85
L 161.45 160.95 156.75 157.2 156.25 157.7 155.15 158.9 149 165.2 153.65 168.85
M 239.7 143.4
L 239.65 143.45
Q 243.45 146.15 247.6 145.05 252.7 141.15 252.2 136.2 274.65 133.5 277.75 127.7 277.4 122.6 274.65 121.15 268.65 118.9 260.2 117.35 250.25 117.3 240.25 118.85
L 185.85 133.1 177.25 133.75
Q 172.05 134.75 170.25 141.95
L 163.6 149.85 168.7 153.8 171.3 151.15 175.05 147.35
Q 182.05 151.35 186.85 147.35 189.45 143.95 189.15 139.35
L 240.25 127.2
Q 249.1 125.05 257.95 125.25
L 264.9 126.15 272.05 127 264.9 126.15 241.35 131.45
Q 236.85 133.7 235 138
L 214.65 158.9 214.7 159.2 215.6 167.45 215.6 167.7 238.75 142.75 239.7 143.4
M 240.25 134.75
Q 241.35 133.7 242.85 133.7 244.35 133.7 245.4 134.75 246.55 135.9 246.55 137.4 246.55 138.85 245.4 139.95 244.35 141.05 242.85 141.05 242.15 141.05 241.5 140.8 240.85 140.5 240.25 139.95 239.2 138.85 239.2 137.4 239.2 135.9 240.25 134.75
M 177.3 137.9
Q 178.75 137.9 179.85 138.9 180.95 140.05 180.95 141.6 180.95 143.1 179.85 144.15 178.75 145.25 177.3 145.25 176.55 145.25 175.9 145 175.25 144.75 174.65 144.15 173.6 143.1 173.6 141.6 173.6 140.05 174.65 138.9 175.8 137.9 177.3 137.9 Z"/>

<path fill="#AFB1A6" stroke="none" d="
M 189.1 264.75
Q 186.35 266.2 186.1 269.4 189.15 270.15 191.7 271.05 201.3 274.25 205 279.15 205.65 280.05 206.2 281.05 207.7 284.1 207.15 287.75 205.8 292.7 200.45 293.25 198.95 293.4 197.2 293.25 195.75 293.1 194.1 292.75 193.05 292.55 191.9 292.25
L 191.65 292.2 184.85 290.65 182.2 290 176.95 288.85 171.55 287.55 167.65 286.65 167.3 285.6 160 288.1 164.6 289.3 171.55 291.15 176.35 292.45 181.45 293.8 183.35 294.25 183.45 294.3 190.1 295.85 192.55 296.3 194.35 296.55 201.7 297.7 201.85 297.75 202.9 297.95
Q 209.7 296.6 211.1 290.4 211.5 289.1 211.7 287.95 211.9 286.7 211.95 285.55 212 280.2 208.15 275.5 204.7 272.3 200.6 269.85 195.35 266.7 189.1 264.75
M 155.65 309.5
L 155.2 309.65 152.35 310.45
Q 157.9 319.45 158.35 330.45 158.4 331.95 158.4 333.45
L 186.3 321.3 190.2 319.55 198.5 315.95 202.3 314.3 205.9 312.75 206.8 312.3
Q 206.3 309.45 205.4 306.5 204.8 304.7 204.1 302.95 203.6 301.6 202.95 300.3 202.5 299.3 202.05 298.35 201.95 298.1 201.75 297.85 201.75 297.75 201.7 297.7
L 194.35 296.55
Q 197.95 301.8 198.95 307.1
L 196.85 308 193.45 309.4 185.1 312.85 181.15 314.5 180.4 314.8 177.7 315.95 175.35 316.9 173.3 317.8 169.3 319.45 168.75 319.65 163.6 321.8 163 322.05 161.4 322.7
Q 161.15 321.75 160.85 320.7 160.45 319.7 160.1 318.7 159.55 317.35 159 316.1 158.6 315.15 158.15 314.15 157.55 312.85 156.85 311.55 156.45 310.85 156.15 310.3 155.9 309.85 155.65 309.5
M 57.55 296.45
Q 56.15 296.35 54.8 296.3
L 56.1 300.55
Q 56.85 300.6 57.55 300.7 61.45 301.15 65.15 301.65 67.5 302 69.8 302.35 70.85 302.5 71.95 302.65 74.15 303.05 76.4 303.45 77.7 303.7 78.9 303.95 81.5 304.45 84.05 304.95 85.8 305.35 87.55 305.75 89.2 306.15 90.75 306.5 93.6 307.2 96.35 308 96.75 308.1 97.1 308.2 99.65 308.9 102.1 309.7
L 103.75 308.25
Q 104.35 307.15 105 306.1 105.25 305.65 105.5 305.3 103.75 304.7 102 304.15 100.75 303.75 99.4 303.35 97.85 302.95 96.35 302.55 95 302.2 93.6 301.8 90.6 301.1 87.55 300.45 87.1 300.35 86.65 300.3 84.5 299.8 82.25 299.45
L 82.25 302 82.25 299.45
Q 80.6 299.1 78.9 298.85 77.9 298.7 76.9 298.5 76.7 298.5 76.55 298.45 76.25 298.4 75.85 298.35
L 75.85 299.7 75.85 298.35
Q 73.9 298.1 71.95 297.85 70.95 297.7 69.95 297.6 67.55 297.3 65.15 297.1 64.75 297.05 64.25 297 60.95 296.65 57.55 296.45
M 79.3 255.15
L 75.45 252.35 52.6 277.35 50.55 279.6
Q 52.3 281.25 54.15 283.2
L 57.55 279.4 59.15 277.6 79.3 255.15
M 29.35 284.65
L 25.75 286
Q 26.25 290.1 27.9 292.95 29.35 295.25 31.65 296.75 33.65 298.1 36.45 298.7 40.95 299.6 47.4 298.55 46.7 297.05 45.85 295.6 42.3 295.65 39.5 295.1 35.5 294.3 33.25 292.45 29.95 289.7 30.05 284.7 29.65 284.65 29.35 284.65
M 145.4 292.6
Q 145.6 292.75 145.85 292.95
L 155.1 289.8 160 288.1 167.3 285.6 171.55 284.15 172.2 283.95 178.15 281.85
Q 181 280.15 181.05 275.5
L 177.75 269.4 172.45 269.4
Q 178.95 277.05 174.4 280.1
L 168.2 281.95 164.6 283.05 160.25 284.3 152.8 286.45 145.8 288.5 140.6 290 145.4 292.6
M 130.5 282.85
L 130.65 282.9 137.5 284 145.8 285.3 152.8 286.45 160.25 284.3 155.1 283.45 145.8 281.85 137.5 280.45 130.15 279.25 128.35 278.95 130.65 281.85 130.6 282.25 130.5 282.85
M 142.4 314.2
Q 142.3 314.05 142.25 313.95 141.65 313.85 141.15 313.8 140.8 313.75 140.5 313.75 138.1 313.35 135.65 312.95 133.4 312.55 131.25 312.15 128.85 311.65 126.45 311.15 125.5 310.9 124.5 310.7 121.75 310.05 119 309.35 118.65 309.25 118.4 309.15 116.35 308.65 114.25 308.05
L 113.9 308.7 113.2 309.95 112.25 311.65 111.8 312.3
Q 113.75 312.8 115.7 313.25 117.6 313.75 119.5 314.2 119.55 314.2 119.75 314.3 122 314.8 124.25 315.3 126.45 315.75 128.55 316.2 128.9 316.25 129.25 316.35 133 317.1 136.5 317.7 137.8 317.9 139.1 318.1 141.4 318.5 143.6 318.75
L 142.95 316.35 142.4 314.2
M 105.55 269.45
L 103.25 266.45 103.1 275.35 104.15 276.7 108.55 282.5 113.15 279.05 112.6 278.4 111.7 277.25 109 273.75 105.55 269.45
M 103.25 266.45
L 101.55 264.35 100.8 263.4 98.4 260.35 94.7 255.7 90.5 250.4 86.25 253.25 90.5 258.85 93.6 262.9 95.35 265.25 96.35 266.6 98.05 268.75 102.5 274.5 103.1 275.35 103.25 266.45
M 81.9 244.65
L 83.95 242.4 63.15 215.35 59.2 218.8 80.85 245.85 81.9 244.65
M 96.3 229.4
L 83.95 242.4 81.9 244.65 86.15 247.9 87.55 246.45 100.35 232.8 97.15 230.1 96.3 229.4
M 144 241.85
L 141.25 238.8 120.3 256.1
Q 122.25 257.2 124.1 258.8
L 144 241.85
M 144.95 238.35
L 146.35 239.85 169.35 265.8 172.1 263.15 150.25 236.55 148.85 234.95 144.95 238.35
M 127.8 217.45
L 127.9 217.5 140.95 232.4 144.6 229.75 137.6 219.8 137.55 219.7 136.65 219.45 128.7 217.65 127.8 217.45
M 159 221.4
L 159 221.45 150.65 229.9
Q 149.5 231.15 148.65 231.8
L 151.75 235.1 167.05 220.3 166.15 220.5 165.65 220.55 159.35 221.4 159 221.4
M 153.65 168.85
L 149 165.2 139.3 175.45 113.45 202.7 117.9 206.65 147.05 175.85 153.65 168.85
M 163.6 149.85
L 162.6 150.95 156.75 157.2 161.45 160.95 163.4 159.1 168.7 153.8 163.6 149.85 Z"/>

<path fill="#4576CF" stroke="none" d="
M 166.15 220.5
Q 166.6052734375 220.3482421875 167.05 220.25 166.3173828125 220.3830078125 165.65 220.55
L 166.15 220.5
M 127.9 217.5
L 127.8 217.45 128.7 217.65
Q 126.35 217 123.95 216.4 125.9 216.95 127.9 217.5
M 159 221.45
L 159 221.4
Q 149.15 221.95 136.65 219.45
L 137.55 219.7 137.6 219.8
Q 149.5 222.1 159 221.45
M 73.15 161.5
Q 70.6 165.55 68.2 167.7 89.6 172.45 139.3 175.45
L 149 165.2 155.15 158.9 155.7 158.25
Q 129.85 155.6 115.05 156.4 129.85 155.6 155.7 158.25
L 156.25 157.7 156.75 157.2 162.6 150.95
Q 149.95 150.8 134.9 151.1 114.8 153.6 90.2 154.25 79.6 155.5 73.15 161.5
M 81.65 83
Q 89.3 71.8 100.15 68.05 83.25 72.6 74.6 68.45 67.35 65.35 59.4 69.5 54.2 72.2 51.2 76.1 48.85 79.75 47.5 83.05 43.1 93.45 46.1 106.3 49.55 121.3 62.65 136.75 49.55 121.3 46.1 106.3 43.1 93.45 47.5 83.05 48.85 79.75 51.2 76.1 48.75 79.5 46.45 82.35 38.25 91.8 30.55 94 23.45 98.5 23.95 105.55 24.85 119.35 55.6 142.95 24.85 119.35 23.95 105.55 23.7 134.2 17.15 158.5 16.45 164 21.2 165.1
L 55.6 167.4 21.2 165.1
Q 21.95 182.15 29.6 195.35 32.4 200.3 38.3 204.4
L 50.9 206.95
Q 75.7 206.3 105.95 210.1 106.2 210.2 106.5 210.3
L 113.45 202.7 139.3 175.45
Q 89.6 172.45 68.2 167.7 61.8 173.45 56.3 166.85 55.25 165.7 54.3 164.1 49.7 151.1 56.15 143.35 58.85 140.15 63.2 137.85 65.4 136.65 68.05 135.7 68.1 134.75 68.25 133.75
L 68.25 133.7
Q 71.1 111.1 81.65 83
M 214.4 175.5
Q 211 180.25 200.6 181.6 173.35 181.55 153.1 176.2 150 176.05 147.05 175.85
L 117.9 206.65 121.35 210.25 117.55 214.35
Q 117.85 214.45 118.2 214.55 118.6 214.7 119.1 214.85
L 123.95 216.4
Q 126.35 217 128.7 217.65
L 136.65 219.45
Q 149.15 221.95 159 221.4
L 159.35 221.4 165.65 220.55
Q 166.3173828125 220.3830078125 167.05 220.25
L 167.2 220.2
Q 167.2607421875 220.230859375 167.3 220.2 167.353515625 220.2072265625 167.4 220.2
L 172.3 218.65
Q 187.2 210.4 202.55 209.8 210.1 194.55 214.4 175.5
M 169.35 159.8
Q 166.3 159.4 163.4 159.1
L 161.45 160.95 153.65 168.85 147.05 175.85
Q 150 176.05 153.1 176.2 173.35 181.55 200.6 181.6 211 180.25 214.4 175.5 215.4 171.1 215.6 167.45
L 214.7 159.2
Q 213.95 157.1 212.75 155.55 208.95 170.05 169.35 159.8
M 168.7 153.8
L 163.4 159.1
Q 166.3 159.4 169.35 159.8 208.95 170.05 212.75 155.55 198.75 151.95 171.3 151.15
L 168.7 153.8 Z"/>

<path fill="#88A7E1" stroke="none" d="
M 68.05 135.7
Q 65.4 136.65 63.2 137.85 58.85 140.15 56.15 143.35 49.7 151.1 54.3 164.1 55.25 165.7 56.3 166.85 61.8 173.45 68.2 167.7 70.6 165.55 73.15 161.5 79.6 155.5 90.2 154.25 114.8 153.6 134.9 151.1 136.85 144.05 128.7 130.65
L 123.65 132.1
Q 103.3 136.75 72.35 134.3 70.05 134.9 68.05 135.7
M 100.15 68.05
Q 89.3 71.8 81.65 83 71.1 111.1 68.25 133.7
L 69.8 133.95 68.25 133.75
Q 68.1 134.75 68.05 135.7 70.05 134.9 72.35 134.3 87.1 71.3 114.6 73 125.55 75.05 130.05 80.9 133 92.1 124.25 129.65 124 130.9 123.65 132.1
L 128.7 130.65
Q 138.45 102.8 138.7 82.65 136.2 68.65 113.95 66.25 108.3 66 103.4 67.1 101.75 67.55 100.15 68.05 Z"/>

<path fill="#7194D5" stroke="none" d="
M 68.25 133.75
L 69.8 133.95 68.25 133.7 68.25 133.75 Z"/>

<path fill="#1E3664" stroke="none" d="
M 130.05 80.9
Q 125.55 75.05 114.6 73 87.1 71.3 72.35 134.3 103.3 136.75 123.65 132.1 124 130.9 124.25 129.65 133 92.1 130.05 80.9 Z"/>

<path fill="#888888" stroke="none" d="
M 179.85 138.9
Q 178.75 137.9 177.3 137.9 175.8 137.9 174.65 138.9 173.6 140.05 173.6 141.6 173.6 143.1 174.65 144.15 175.25 144.75 175.9 145 176.55 145.25 177.3 145.25 178.75 145.25 179.85 144.15 180.95 143.1 180.95 141.6 180.95 140.05 179.85 138.9
M 242.85 133.7
Q 241.35 133.7 240.25 134.75 239.2 135.9 239.2 137.4 239.2 138.85 240.25 139.95 240.85 140.5 241.5 140.8 242.15 141.05 242.85 141.05 244.35 141.05 245.4 139.95 246.55 138.85 246.55 137.4 246.55 135.9 245.4 134.75 244.35 133.7 242.85 133.7 Z"/>
</g>

<path id="Layer0_0_1_STROKES" stroke="#AFB1A6" stroke-width="1" stroke-linejoin="round" stroke-linecap="round" fill="none" d="
M 101.15 316.05
L 96.35 317.9 96.35 314.15 94.65 313.7 87.55 316.45 87.55 311.65 78.9 314.8 78.9 310.8 71.95 313.3 71.95 308.95 65.15 311.2 65.15 306.95 57.55 309.25 57.55 300.7
M 57.55 279.4
L 57.55 296.45
M 47.9 277.4
Q 50.25 277.3 52.6 277.35
M 124.2 266.15
Q 126.8 266.6 129.35 267.05 133.55 267.8 137.5 268.8 141.85 269.9 145.85 271.25 150.65 272.85 155.1 274.85 160.1 277.05 164.6 279.75 166.4 280.8 168.2 281.95
M 103.25 266.45
L 103.25 264.4
Q 102.4 264.35 101.55 264.35
M 103.25 264.4
Q 104.55 264.4 105.85 264.5
M 112.6 276.3
L 112.6 265.9 112.6 265
M 112.6 276.3
L 112.6 278.4
M 120.85 276.05
L 120.85 278.15
M 105.85 264.5
Q 109.2 264.6 112.45 264.9
M 59.15 277.6
Q 61.7 277.75 64.25 278.1
L 64.25 273.05 69.95 271.65 75.85 270.15 82.25 268.55 88.75 266.9 90.65 266.4
M 88.75 266.9
L 88.75 270.8
M 95.45 267.65
L 95.35 265.25
M 95.8 274.8
L 96 280.1 96.15 284.55
M 95.8 274.8
L 95.45 267.65
M 103 287.45
L 103.1 276.95
M 96.15 284.55
L 96.25 286.3
Q 96.3 286.3 96.35 286.35 97.75 286.9 99.15 287.5
M 82.25 268.55
L 82.25 281.55
Q 84.9 282.25 87.55 283.1 87.8 283.2 88.05 283.25
M 87.55 283.1
L 87.55 295.15 88.75 295.6 88.75 286.5
M 96.35 286.35
L 96.35 289.85 96.35 290.05
M 99.15 287.5
Q 100.7 288.2 102.25 288.95
M 96.35 289.85
L 96.25 286.3
Q 94.95 285.75 93.7 285.25 93 285 92.35 284.8
M 100.25 294.1
L 96.35 292.65 96.35 294.3
M 98.25 296.7
L 99.4 296.35
M 102.25 288.95
Q 102.65 289.1 103 289.25
L 103 287.45
M 103.1 276.95
L 103.1 275.35
M 96.35 290.05
L 96.35 292.65
M 120.85 278.15
L 120.85 279
M 103.1 275.35
L 103.25 266.45
M 107.45 291.5
Q 106.55 291 105.7 290.6 104.35 289.9 103 289.25
M 106.35 292.45
L 105.9 292.3 105.25 292.05
M 108.8 293.4
L 109.45 293.6 113.6 295.2 114.8 294.8
M 103.85 295.5
L 106.4 296.45
M 102.95 291.15
L 103 289.25
M 120.3 294.4
L 118.3 293.7 114.8 294.8
M 115.75 295.95
L 113.6 295.2 110.75 296.2
M 113.45 292.05
L 118.3 293.7 121.3 292.65
M 121.45 292.25
L 118.5 291.1
M 100.25 294.1
L 103.25 295.2
M 99.4 296.35
L 101.6 295.65
M 137.5 284
L 137.5 288.65
M 155.1 274.85
L 155.1 283.45
M 145.8 285.3
L 145.8 288.5
M 155.1 289.8
L 155.1 300.9
M 145.85 271.25
L 145.8 281.85
M 129.35 267.05
L 129.35 276
M 137.5 268.8
L 137.5 280.45
M 75.85 270.15
L 75.85 280
Q 77.4 280.3 78.95 280.7 80.6 281.05 82.25 281.55
L 82.25 299.45
M 86.65 300.3
L 87.55 300 87.55 295.15
M 64.25 278.1
Q 64.75 278.15 65.15 278.2 67.55 278.45 69.95 278.9
L 69.95 271.65
M 69.95 278.9
Q 70.95 279.05 71.95 279.2 73.9 279.55 75.85 280
L 75.85 298.35
M 76.9 298.5
Q 76.7 298.5 76.55 298.45
M 78.95 280.7
L 78.9 298.85
M 75.85 298.35
L 75.85 299.7
M 71.95 302.65
L 71.95 303 75 303.9 76.4 303.45
M 69.8 302.35
L 71.95 303 71.95 304.85 75 303.9 78.9 305 78.9 303.95
M 71.95 308.95
L 74.9 308 71.95 307.15 71.95 308.95 Z
M 71.95 304.85
L 71.95 307.15 68.1 306.05 65.15 306.95 65.15 305.15 60.05 303.7
M 81.5 309.85
L 87.55 307.7 87.55 307.5 81.55 305.8 78.9 306.65 78.9 309.1 81.5 309.85 87.55 311.6 87.55 307.7 87.8 307.6 87.55 307.5 87.55 305.75
M 84.05 304.95
L 81.55 305.8 78.9 305 78.9 306.65 74.9 308 78.9 309.1 78.9 310.8 81.5 309.85
M 65.15 301.65
L 65.15 305.15 68.1 306.05 71.95 304.85
M 156.15 310.3
L 159 308.9 158.45 308.7
M 142.95 316.35
L 143.4 316.1
M 145.05 319.9
L 144.95 319.95 145.15 320.05
M 159 316.1
L 162.85 317.45 163 317.4 163 313.9 160.8 313.05 158.15 314.15
M 160.1 318.7
L 162.85 317.45 163 317.5 163 317.4 167.25 315.5 163 313.9 163 312.05 160.8 313.05 156.85 311.55
M 160.85 320.7
L 163 321.55 163 317.5 168.75 319.65
M 169.3 319.45
L 169.3 316.25 167.25 315.5 169.3 314.6 169.3 312.8 165.05 311.2 163 312.05 163 310.4 159 308.9 162.25 307.4 158.65 306.1
M 133.8 306.65
L 135.3 307.2 136.3 306.75
M 133.05 308.2
L 135.3 307.2 137.75 308.1
M 133.8 306.65
L 129.15 304.9 124.75 306.65
M 124.65 308.05
L 129.55 309.75 133.05 308.2
M 131.9 310.6
L 136.95 312.35 140.1 310.85
M 124.35 302
L 124.95 301.75
M 123.5 302.8
L 124.9 303.3
M 124.75 306.65
L 122.8 307.4 124.65 308.05
M 124.9 303.3
L 129.15 304.9 132 303.8
M 120.6 319.9
L 124.1 318.25
M 120.75 321.2
L 120.8 321.25
M 128.55 316.2
L 124.1 318.25 127.8 319.35 133.05 320.9 133.4 320.7
M 126.45 311.15
L 129.55 309.75 131.9 310.6
M 120.15 317.1
L 124.1 318.25
M 120.6 319.9
L 118.9 320.65 120.75 321.2
M 141.15 313.8
L 140.6 313.65 136.95 312.35 135.65 312.95
M 133.05 320.9
L 133.2 320.95
M 133.4 320.7
L 139.1 318.1 144.95 319.95 138.9 322.6 142.4 323.6
M 136.35 325.65
L 141.5 327.05 146.45 324.85
M 138.9 322.6
L 133.55 324.9 136.35 325.65
M 142.4 323.6
L 146.45 324.7
M 133.05 320.9
L 127.9 323.25 130.15 323.9
M 133.2 320.95
L 138.9 322.6
M 130.15 323.9
L 133.1 324.75
M 127.6 323.15
L 127.9 323.25 127.7 323.35
M 130.8 326.1
L 133.55 324.9
M 141.5 327.05
L 147 328.2
M 163 322.05
L 163 321.55 163.6 321.8
M 118.4 309.15
L 118.95 308.95
M 106.55 297.55
L 108.05 297.05 106.4 296.45
M 106.95 300.65
L 110.8 299.25
M 111.85 298.4
L 108.05 297.05 110.75 296.2
M 107.55 302.15
L 107.1 302 105.15 301.3 104.75 301.45
M 102.7 300.45
L 105.15 301.3 106.95 300.65
M 102.75 310.5
L 100.55 311.35 102.25 311.9
M 106.4 320.1
L 110.45 318.25 106.95 317.25
M 110.45 318.25
L 111.1 317.95
M 116.55 315.5
L 119.5 314.2
M 118.6 320.85
L 118.9 320.65 118.55 320.55
M 116.8 316.1
L 120.15 317.1
M 111.8 318.65
L 118.55 320.55
M 115.4 322.25
L 118.6 320.85
M 116.8 316.1
L 115.85 315.8 111.1 317.95
M 110.45 318.25
L 111.8 318.65
M 108.15 313.6
L 115.85 315.8 116.55 315.5
M 108.3 313.2
L 112.25 311.65
M 110.6 309.15
L 113.2 309.95
M 97.1 308.2
L 96.35 308.45 96.35 310.15 100.55 311.35 96.35 313 96.35 314.15 101.25 315.6
M 97.3 300.6
L 96.35 300.9 96.35 302.55
M 99.4 303.35
L 100.3 303.05
M 96.35 299.65
L 96.35 300.9 93.6 301.8
M 96.35 308
L 96.35 308.45 93.85 309.4 96.35 310.15 96.35 313 94.65 313.7 87.65 311.65 87.55 311.65 87.55 311.6 87.65 311.65 93.85 309.4 87.8 307.6 90.75 306.5
M 94.75 297.75
L 87.55 300 87.55 300.45
M 82.25 299.45
L 82.25 302
M 114.3 322.8
L 115.4 322.25
M 101.05 299.35
L 106.55 297.55
M 118.5 305.9
L 122.8 307.4 118.95 308.95
M 64.25 278.1
L 64.25 297
M 65.15 278.2
L 65.15 297.1
M 69.95 278.9
L 69.95 297.6
M 71.95 279.2
L 71.95 297.85
M 94.65 297.65
L 88.75 295.6 88.75 298.05
M 172.2 283.95
Q 175.25 285.4 177.45 286.85
M 164.6 279.75
L 164.6 283.05
M 164.6 289.3
L 164.6 302.1 169.3 300.8 171.55 300.15 171.6 299.05
Q 171.55 298.9 171.6 298.7
L 171.55 291.15
M 181.55 296.7
Q 181.4 296.8 181.2 296.9
M 183.45 297.3
L 183.45 304.3
M 171.55 284.15
L 171.55 287.55
M 183.35 294.25
Q 183.05 295.6 181.55 296.7
M 183.45 304.3
L 183.45 309.45
M 176.3 298.9
L 175.35 299.15 175.35 311.85 175.35 312.25 180.4 314.15 180.4 313.2
M 175.35 299.15
L 171.6 300.15 171.55 300.15 171.55 310.85 174.85 312.1 175.35 311.85
M 171.6 299.05
L 171.6 300.15
M 163 302.5
L 163 307.7 164.6 308.25 164.6 302.1 163 302.5 157.4 304
M 163 310.4
L 163 307.7 162.25 307.4
M 171.55 310.85
L 169.3 310 169.3 312.8 171.5 313.6 174.85 312.1 175.35 312.25 175.35 315.1 177.7 315.95
M 180.4 314.8
L 180.4 314.15 181.1 314.4
M 169.3 310
L 168.4 309.7 165.05 311.2 163 310.4
M 169.3 314.6
L 171.5 313.6 175.35 315.1 175.35 316.9
M 169.3 314.6
L 169.3 316.25 173.3 317.8
M 169.3 300.8
L 169.3 310
M 168.4 309.7
L 164.6 308.25
M 183.45 294.3
L 183.45 297.3"/>

<path id="Layer0_0_2_STROKES" stroke="#000000" stroke-width="1" stroke-linejoin="round" stroke-linecap="round" fill="none" d="
M 241.5 140.8
Q 240.85 140.5 240.25 139.95 239.2 138.85 239.2 137.4 239.2 135.9 240.25 134.75 241.35 133.7 242.85 133.7 244.35 133.7 245.4 134.75 246.55 135.9 246.55 137.4 246.55 138.85 245.4 139.95 244.35 141.05 242.85 141.05 242.15 141.05 241.5 140.8 Z
M 238.75 142.75
Q 239.2 143.15 239.65 143.45 243.45 146.15 247.6 145.05 252.7 141.15 252.2 136.2 274.65 133.5 277.75 127.7 277.4 122.6 274.65 121.15 268.65 118.9 260.2 117.35 250.25 117.3 240.25 118.85
L 185.85 133.1 177.25 133.75
Q 172.05 134.75 170.25 141.95
L 163.6 149.85 168.7 153.8 171.3 151.15 175.05 147.35
Q 182.05 151.35 186.85 147.35 189.45 143.95 189.15 139.35
L 240.25 127.2
Q 249.1 125.05 257.95 125.25
L 264.9 126.15 272.05 127
M 264.9 126.15
L 241.35 131.45
Q 236.85 133.7 235 138
L 214.65 158.9 214.7 159.2 215.6 167.45 215.6 167.7 238.75 142.75
M 174.65 138.9
Q 175.8 137.9 177.3 137.9 178.75 137.9 179.85 138.9 180.95 140.05 180.95 141.6 180.95 143.1 179.85 144.15 178.75 145.25 177.3 145.25 176.55 145.25 175.9 145 175.25 144.75 174.65 144.15 173.6 143.1 173.6 141.6 173.6 140.05 174.65 138.9 Z
M 161.45 160.95
L 156.75 157.2
M 150.25 236.55
L 151.75 235.1
M 189.1 264.75
Q 216.85 260.8 230 284.7 227.7 285.6 221.3 282.7 227.6 291.5 228 302.65 228.6 315.15 221.5 323.2 214.2 331.4 203.4 330.3 193.7 329.3 186.3 321.3
M 158.4 333.45
Q 158.15 345.3 151.1 353.35 142.95 362.45 130.95 361.25 118.9 359.95 110.1 349.2 101.15 338.65 100.55 324.75 100.35 320.15 101.15 316.05
M 54.15 283.2
L 47.15 285.4
Q 48.4 286.8 49.6 288.4 56.95 298.2 57.5 310.8 58.05 323.4 51.35 331.6 44.8 339.7 34.8 338.6 24.7 337.5 17.4 327.75 10.05 318.05 9.55 305.4 9 293.45 14.95 285.55 15.25 285.05 15.6 284.55 22.3 276.35 32.3 277.5 36.95 278 41 280.4 23.9 268.3 7.3 284.35 16.15 271.05 27.2 270.2
M 75.45 252.35
L 80.85 245.85
M 59.2 218.8
L 50.9 209.8 50.9 206.95
M 117.9 206.65
L 121.35 210.25 117.55 214.35
M 149 165.2
L 155.15 158.9
M 153.65 168.85
L 161.45 160.95
M 156.75 157.2
L 156.25 157.7 155.15 158.9
M 149 165.2
L 153.65 168.85
M 151.75 235.1
L 148.65 231.8
M 144.6 229.75
L 146.65 232.3 146.9 232.55
Q 147.4 232.65 148.65 231.8
M 146.7 232.45
Q 146.8 232.5 146.9 232.55
L 148.35 234.35
M 146.35 239.85
L 144 241.85
M 130.05 266.65
Q 125.15 263.85 120.45 262.15 122.15 263.65 123.75 265.55 124 265.9 124.2 266.15
M 144.95 238.35
L 143.7 236.8 141.25 238.8 144 241.85
M 148.85 234.95
L 144.95 238.35
M 143.7 236.8
L 140.95 232.4 144.6 229.75
M 113.45 202.7
L 117.9 206.65 96.4 229.35 97.15 230.1 100.35 232.8 117.55 214.35
M 50.9 206.95
L 57.25 206.95 63.15 215.35
M 96.4 229.35
L 92.7 225.3 106.5 210.3 113.45 202.7
M 81.9 244.65
L 86.15 247.9
M 87.55 246.45
L 90.5 250.4
M 94.7 255.7
Q 109.15 249.45 120.3 256.1
M 100.8 263.4
Q 103.05 262.35 105.95 262.65 106.1 262.65 106.35 262.65 109.6 263 112.45 264.9 112.5 264.95 112.6 265 112.75 265.1 112.9 265.2 115.3 266.9 117.4 269.65 117.75 270.2 118.2 270.8 119.85 273.25 120.85 276.05 121.15 276.95 121.45 277.9 121.6 278.45 121.7 279
M 130.15 279.25
Q 129.85 277.6 129.35 276 127.75 270.7 124.2 266.15
M 120.45 262.15
Q 116.35 260.7 112.4 260.05 104.65 258.65 98.4 260.35
M 83.9 250.3
L 86.25 253.25 90.5 250.4
M 83.3 250.9
L 79.3 255.15
M 90.65 266.4
Q 90.85 266.1 91.05 265.8 91.7 264.6 92.7 263.5 92.75 263.35 92.9 263.25
M 86.15 247.9
L 84.5 249.7
M 90.65 266.4
Q 89.5 268.45 88.75 270.8 87.45 274.85 87.7 279.7 87.8 281.5 88.05 283.25 88.3 284.9 88.75 286.5 90.4 292.55 94.65 297.65 94.65 297.7 94.75 297.75 94.8 297.85 94.85 297.95 95.6 298.85 96.35 299.65 96.85 300.1 97.3 300.6 98.75 302 100.3 303.05 101.15 303.65 102 304.15
M 105.5 305.3
Q 106.25 304.1 107.15 303.05 107.4 302.6 107.8 302.2 107.65 302.15 107.55 302.15 107.35 302.1 107.1 302.1 105.9 301.85 104.75 301.45 103.7 301 102.7 300.45 101.85 299.95 101.05 299.35 99.95 298.5 98.9 297.45 98.55 297.1 98.25 296.7 97.55 295.9 96.95 295.1 96.65 294.7 96.35 294.3 95.45 293 94.7 291.6 93.2 288.85 92.55 285.6 92.4 285.15 92.35 284.8 92 282.8 91.9 280.7 91.85 279.8 91.9 278.95 91.95 275.15 93.05 272.1 93.9 269.85 95.35 267.85 95.4 267.75 95.45 267.65 95.6 267.4 95.85 267.15 96.1 266.85 96.35 266.6
M 100.85 279.8
Q 100.55 280.45 100.45 281.4 100.45 281.75 100.45 282.05 100.55 282.65 100.7 283.25 100.9 284.35 101.4 285.3 101.7 285.85 102 286.35 102.45 286.9 102.9 287.35 102.95 287.4 103 287.45
M 103.1 276.95
Q 102.95 277 102.85 277.05 102.15 277.4 101.7 278.1 101.6 278.15 101.55 278.25 101 278.95 100.85 279.8
M 103 287.45
Q 104.05 288.3 105.25 288.4 105.3 288.4 105.4 288.4 106.1 288.45 106.8 288.3 107.45 288.05 108 287.5 108.25 287.3 108.4 287.15 108.95 286.45 109.2 285.6 109.3 285.3 109.35 285.05
M 104.15 276.7
Q 103.55 276.7 103.1 276.95
M 110.5 288.7
L 109.8 289.4 108.15 290.9 107.45 291.5 106.35 292.45 105.95 292.8 103.25 295.2 101.8 296.5
Q 102.85 295.95 103.85 295.5 105.05 294.9 106.15 294.45 107.5 293.9 108.8 293.4 109.05 293.3 109.3 293.25 110.85 292.65 112.45 292.3 112.9 292.15 113.45 292.05 116 291.4 118.5 291.1 118.95 291.05 119.4 291.05 120.6 290.95 121.8 290.95 126 290.95 130 292.15 136.5 294.1 142.2 299.3 147.15 303.8 151.45 310.7
L 152.35 310.45 155.2 309.65
M 155.65 309.5
L 158.45 308.7 159.75 308.25
Q 159.25 307.15 158.65 306.1 158.05 305 157.4 304 156.3 302.4 155.1 300.9 151.3 296.35 145.85 292.95 145.6 292.75 145.4 292.6
L 140.6 290
Q 139.1 289.3 137.5 288.65 134.3 287.35 130.75 286.35 128.95 285.8 127.05 285.3
M 120.3 294.4
Q 118.15 294.95 115.85 295.9 115.8 295.95 115.75 295.95
M 111.85 298.4
Q 112.6 297.9 113.4 297.4 114.1 296.9 115.75 295.95
M 121.8 290.95
Q 121.65 291.55 121.45 292.15 121.45 292.2 121.45 292.25 121.35 292.4 121.3 292.65 120.95 293.5 120.6 294.35 124.4 293.4 127.95 293.8 128.7 293.85 129.4 294 129.75 293.1 130 292.15
M 120.3 294.4
Q 120.45 294.35 120.6 294.35
M 130.6 281.9
Q 130.6 282.05 130.6 282.25
M 130.65 282.9
Q 130.7 283.4 130.7 283.95 130.75 285.15 130.75 286.35
M 59.2 218.8
L 63.15 215.35
M 47.4 298.55
Q 49.1 302.3 49.8 306.5 50 308.3 50.1 310.2 50.2 313.2 49.85 315.85 49.15 320.35 47 323.9 46.3 325.05 45.5 326.05 43.75 328.2 41.7 329.55 38.5 331.6 34.55 331.55 33.8 331.55 33.05 331.4 29.5 331 26.4 329.2 23.5 327.35 21 324.35 20.5 323.7 20.05 323.05 18 320.4 16.75 317.4 15.55 314.9 14.95 312.15 14.2 309.2 14.1 306.05 14.05 304.7 14.1 303.45 14.3 298.45 16.1 294.55 16.95 292.6 18.15 290.9 18.4 290.55 18.7 290.1 19.35 289.3 20.05 288.6 23.95 284.7 29.35 284.65 29.65 284.65 30.05 284.7 30.6 284.7 31.2 284.75 33.5 285 35.6 285.9 39.5 287.5 42.75 291.3 43.5 292.15 44.2 293.1 45.1 294.3 45.85 295.6 46.7 297.05 47.4 298.55 Z
M 33.1 305.6
Q 33.65 306.6 33.9 307.8
M 79.3 255.15
L 75.45 252.35
M 41 280.4
Q 44 282.5 46.95 285.5
L 47.15 285.4
M 54.15 283.2
L 50.6 280.05
Q 37.85 269.4 27.2 270.2
M 32 303.9
Q 32.15 304.1 32.3 304.3 32.8 304.95 33.1 305.6
M 27.9 301.8
Q 28.15 301.75 28.5 301.8 29.1 301.85 29.6 302.1
M 23.4 307.7
Q 23.4 306.05 23.9 304.8
M 23.6 309.85
Q 23.45 309.05 23.4 308.2 23.4 307.95 23.4 307.7
M 23.9 304.8
Q 24.2 304.2 24.55 303.7 24.6 303.5 24.7 303.4 25.1 302.95 25.55 302.6 26.55 301.8 27.9 301.8
M 29.5 315.85
Q 29.25 315.85 28.95 315.8 27.95 315.7 27.05 315.2 26.05 314.5 25.15 313.3
M 23.6 309.85
Q 23.75 310.7 24.1 311.55 24.5 312.45 25.15 313.3
M 33.4 313.25
Q 33.1 313.75 32.75 314.15 32.15 314.9 31.45 315.35
M 34.05 311.15
Q 33.85 312.3 33.4 313.25
M 33.9 307.8
Q 34.05 308.6 34.1 309.45 34.15 310.35 34.05 311.15
M 31.45 315.35
Q 30.55 315.85 29.5 315.85
M 29.6 302.1
Q 30.9 302.55 32 303.9
M 142.25 313.95
Q 142.3 314.05 142.4 314.2 142.95 315.15 143.4 316.1 144.4 317.95 145.05 319.9 145.15 319.9 145.15 320.05 145.55 321.15 145.85 322.35 146.2 323.5 146.45 324.7 146.45 324.75 146.45 324.85 146.8 326.5 147 328.2 147.1 329.45 147.15 330.75 147.2 332.5 147.15 334.15 146.95 338.05 145.85 341.5 144.55 345.6 142 348.85 141.6 349.3 141.25 349.75 138.4 352.8 135 354.15 131.6 355.45 127.65 355 127.15 354.95 126.65 354.85 120.45 353.8 115.55 348.55 114.15 347.2 112.9 345.45 111.2 343.25 110 340.85 107.95 337 107 332.7 106.25 329.55 106.1 326.1 106.05 324.85 106.1 323.65 106.15 321.8 106.4 320.1 106.6 318.6 106.95 317.25 107.3 315.85 107.75 314.6 107.9 314.05 108.15 313.6 108.2 313.35 108.3 313.2 109.25 311.05 110.6 309.15 110.75 308.95 110.85 308.8 111.05 308.4 111.45 307.95 111.85 307.4 112.3 306.95 113.65 305.4 115.2 304.3 119.3 301.45 124.65 301.75 124.8 301.75 124.95 301.75
L 125 301.75
Q 125.25 301.75 125.6 301.8 128.95 302.25 132 303.8 133.2 304.45 134.45 305.3 135.35 305.9 136.3 306.75 137 307.4 137.75 308.1 138.95 309.4 140.1 310.85 140.3 311.1 140.45 311.3 140.95 312 141.45 312.75 141.9 313.3 142.25 313.95 Z
M 124.65 301.75
Q 124.45 301.85 124.35 302 123.95 302.4 123.5 302.8
M 120.8 321.25
Q 121.95 320.55 123.45 320.7 123.65 320.75 123.95 320.85
M 120.8 321.25
Q 119.95 321.7 119.3 322.55 119.15 322.7 119.1 322.8 118.4 323.75 118.1 324.85 117.75 325.9 117.7 327 117.7 327.45 117.7 327.9 117.75 328.7 117.9 329.5 118.2 331 118.9 332.4 119.2 333.05 119.7 333.7 120.25 334.45 120.9 335 122.4 336.25 124.15 336.4 124.25 336.4 124.3 336.5 125.25 336.6 126.1 336.3 127.05 336 127.8 335.25 128.1 335 128.35 334.65 129.05 333.8 129.4 332.75 129.75 331.65 129.85 330.35 129.85 329.8 129.85 329.3 129.8 328.6 129.75 328 129.45 326.5 128.85 325.2 128.45 324.35 127.9 323.55 127.75 323.45 127.7 323.35 127.65 323.2 127.6 323.15 127.1 322.6 126.55 322.1 125.3 321.1 123.95 320.85
M 152.35 310.45
Q 157.9 319.45 158.35 330.45 158.4 331.95 158.4 333.45
M 112.3 306.95
Q 112.75 306.95 113.2 306.95 115.95 306.8 118.45 305.9
L 118.5 305.9
M 110.8 299.25
Q 111.25 298.8 111.85 298.4
M 107.8 302.2
Q 107.9 302.05 108 301.95 109.35 300.45 110.8 299.25
M 103.75 308.25
Q 104.35 307.15 105 306.1 105.25 305.65 105.5 305.3
M 102.75 310.5
Q 102.5 311.15 102.25 311.9 101.65 313.65 101.25 315.6 101.2 315.75 101.15 316.05
M 102.75 310.5
Q 103.25 309.35 103.75 308.25
M 123.5 302.8
Q 121.15 304.8 118.5 305.9
M 129.4 294
Q 136.35 295 142.2 299.3
M 80.85 245.85
L 81.9 244.65
M 208.15 275.5
Q 216.1 280.3 221.3 282.7
M 177.45 286.85
Q 178.45 283.65 180.15 280.9 181 279.35 182.1 278.15 182.4 277.6 182.9 277.05 185.15 274.55 187.7 273.05 188.35 272.6 189.8 271.75 190.75 271.3 191.7 271.05
M 181.2 296.9
Q 181.15 297.85 181.2 298.8 181.3 301.8 182 304.75
M 181.2 296.9
Q 181.2 296.75 181.2 296.6 181.2 295.1 181.45 293.8
M 176.95 288.85
Q 177.1 287.8 177.45 286.85
M 182.2 290
Q 182.4 289.2 182.65 288.45 183.6 285.6 185.4 283.25 185.6 282.9 185.95 282.5 186.6 281.65 187.3 281 188.3 280.05 189.35 279.3 190.55 278.45 191.8 277.9 194.7 276.75 198.1 277 198.35 277 198.65 277 202 277.45 205 279.15
M 211.95 285.55
Q 212.4 286.1 212.85 286.75 215.55 290.75 216.85 295.45 217.85 298.95 217.95 302.95 218.05 304.55 217.95 305.95 217.8 309.5 216.85 312.55 215.6 316.2 213.3 319.1 213 319.55 212.7 319.95 210.1 322.75 207.1 323.9 204.05 325.1 200.55 324.7 200 324.65 199.6 324.6 194.3 323.65 190.2 319.55
M 192.55 296.3
Q 192.15 296.9 191.9 297.65 191.65 298.55 191.55 299.65 191.55 300 191.55 300.4 191.65 301.15 191.75 301.8 191.95 303.2 192.6 304.4 192.95 305 193.35 305.6 193.85 306.3 194.45 306.75 195.55 307.75 196.85 308
M 183.45 309.45
Q 184 310.7 184.65 312 184.85 312.4 185.1 312.85
M 180.4 313.2
Q 176.85 306.6 176.3 298.9 176.25 298.25 176.2 297.55 176.1 294.9 176.35 292.45
M 180.4 313.2
Q 180.75 313.8 181.1 314.4 181.1 314.45 181.15 314.5
M 183.45 309.45
Q 182.55 307.15 182 304.75"/>

<path id="Layer0_0_3_STROKES" stroke="#6B6D61" stroke-width="1" stroke-linejoin="round" stroke-linecap="round" fill="none" d="
M 151.75 235.1
L 167.05 220.3
M 172.1 263.15
L 150.25 236.55
M 186.3 321.3
L 158.4 333.45
M 57.55 300.7
Q 56.85 300.6 56.1 300.55
L 54.8 296.3
Q 56.15 296.35 57.55 296.45
M 57.55 279.4
L 54.15 283.2
M 52.6 277.35
L 75.45 252.35
M 80.85 245.85
L 59.2 218.8
M 155.15 158.9
L 155.7 158.25 156.25 157.7
M 159 221.4
L 159 221.45 150.65 229.9
Q 149.5 231.15 148.65 231.8
M 127.9 217.5
L 127.8 217.45
M 137.55 219.7
L 137.6 219.8
M 146.65 232.3
L 146.7 232.45
M 150.25 236.55
L 148.85 234.95
M 124.1 258.8
L 144 241.85
M 168.2 281.95
L 174.4 280.1
Q 178.95 277.05 172.45 269.4
M 169.35 265.8
L 146.35 239.85 144.95 238.35
M 140.95 232.4
L 127.9 217.5
M 137.6 219.8
L 144.6 229.75
M 63.15 215.35
L 83.95 242.4 96.3 229.4 96.4 229.35
M 87.55 246.45
L 100.35 232.8
M 83.95 242.4
L 81.9 244.65
M 86.15 247.9
L 87.55 246.45
M 90.5 250.4
L 94.7 255.7
M 141.25 238.8
L 120.3 256.1
M 97.15 230.1
L 96.3 229.4
M 101.55 264.35
L 103.25 266.45 105.55 269.45 105.85 264.5 105.95 262.65
M 100.8 263.4
L 101.55 264.35
M 128.35 278.95
L 130.15 279.25
M 98.4 260.35
L 100.8 263.4
M 112.9 265.2
L 112.6 265.9
M 112.6 276.3
L 118.2 270.8
M 112.6 265.9
L 109 273.75 111.7 277.25 112.6 276.3
M 112.6 278.4
L 113.15 279.05
M 120.85 278.15
L 118.4 279.05
M 79.3 255.15
L 59.15 277.6
M 90.5 258.85
L 86.25 253.25
M 105.5 305.3
Q 103.75 304.7 102 304.15
M 93.6 262.9
L 95.35 265.25 96.35 266.6 98.05 268.75
M 93.6 262.9
L 90.5 258.85
M 94.7 255.7
L 98.4 260.35
M 91.9 278.95
L 96 280.1
M 95.8 274.8
L 93.05 272.1
M 96 280.1
L 100.45 281.4
M 100.85 279.8
L 95.8 274.8
M 100.7 283.25
L 96.15 284.55
M 101.4 285.3
L 99.15 287.5 96.35 290.05
M 102.9 287.35
L 102.25 288.95
M 92.55 285.6
L 93.7 285.25 96.15 284.55
M 99.4 296.35
L 100.25 294.1 102.25 288.95
M 108.55 282.5
L 104.15 276.7
M 103.1 275.35
L 102.5 274.5 102.85 277.05
M 94.7 291.6
L 96.35 290.05
M 121.45 277.9
L 120.85 278.15
M 111.7 277.25
L 112.6 278.4
M 104.15 276.7
L 103.1 275.35
M 109.6 285.8
L 109.2 285.6
M 108 287.5
L 109.8 289.4
M 105.4 288.4
L 105.7 290.6 105.9 292.3 105.95 292.8
M 109.3 293.25
L 109.45 293.6 110.75 296.2
M 112.45 292.3
L 114.8 294.8
M 106.15 294.45
L 106.4 296.45
M 108.15 290.9
L 106.8 288.3
M 114.8 294.8
L 115.85 295.9
M 111.85 298.4
L 110.75 296.2
M 121.45 292.15
L 119.4 291.05
M 102.5 274.5
L 98.05 268.75 101.7 278.1
M 105.55 269.45
L 109 273.75
M 130.5 282.85
L 130.65 282.9 137.5 284 145.8 285.3 152.8 286.45 160.25 284.3 155.1 283.45 145.8 281.85 137.5 280.45 130.15 279.25
M 129.05 282.65
L 130.5 282.85
M 145.8 288.5
L 152.8 286.45
M 164.6 289.3
L 160 288.1 155.1 289.8 145.85 292.95
M 140.6 290
L 145.8 288.5
M 33.1 305.6
L 47.4 298.55
M 33.9 307.8
L 49.8 306.5
M 29.35 284.65
L 25.75 286
Q 26.25 290.1 27.9 292.95 29.35 295.25 31.65 296.75 33.65 298.1 36.45 298.7 40.95 299.6 47.4 298.55
M 33.25 292.45
L 35.6 285.9
M 45.85 295.6
Q 42.3 295.65 39.5 295.1 35.5 294.3 33.25 292.45 29.95 289.7 30.05 284.7
M 59.15 277.6
L 57.55 279.4
M 50.55 279.6
L 52.6 277.35
M 86.65 300.3
Q 84.5 299.8 82.25 299.45
M 76.55 298.45
Q 76.25 298.4 75.85 298.35
M 78.9 298.85
Q 77.9 298.7 76.9 298.5
M 39.5 295.1
L 42.75 291.3
M 75.85 298.35
Q 73.9 298.1 71.95 297.85 70.95 297.7 69.95 297.6 67.55 297.3 65.15 297.1 64.75 297.05 64.25 297 60.95 296.65 57.55 296.45
M 76.4 303.45
Q 74.15 303.05 71.95 302.65 70.85 302.5 69.8 302.35
M 76.4 303.45
Q 77.7 303.7 78.9 303.95
M 84.05 304.95
Q 85.8 305.35 87.55 305.75
M 57.55 300.7
Q 61.45 301.15 65.15 301.65 67.5 302 69.8 302.35
M 32 303.9
L 36.45 298.7
M 29.6 302.1
L 31.65 296.75
M 23.9 304.8
L 16.1 294.55
M 23.4 307.7
L 14.1 303.45
M 25.55 302.6
L 20.05 288.6
M 27.9 301.8
L 27.9 292.95
M 27.05 315.2
L 26.4 329.2
M 25.15 313.3
L 21 324.35
M 23.6 309.85
L 14.95 312.15
M 24.1 311.55
L 16.75 317.4
M 31.45 315.35
L 41.7 329.55
M 33.4 313.25
L 47 323.9
M 34.05 311.15
L 49.85 315.85
M 29.5 315.85
L 34.55 331.55
M 142.25 313.95
Q 141.65 313.85 141.15 313.8 140.8 313.75 140.5 313.75 138.1 313.35 135.65 312.95 133.4 312.55 131.25 312.15 128.85 311.65 126.45 311.15 125.5 310.9 124.5 310.7 121.75 310.05 119 309.35 118.65 309.25 118.4 309.15 116.35 308.65 114.25 308.05
L 113.9 308.7 113.2 309.95 112.25 311.65 111.8 312.3
Q 113.75 312.8 115.7 313.25 117.6 313.75 119.5 314.2 119.55 314.2 119.75 314.3 122 314.8 124.25 315.3 126.45 315.75 128.55 316.2 128.9 316.25 129.25 316.35 133 317.1 136.5 317.7 137.8 317.9 139.1 318.1 141.4 318.5 143.6 318.75
L 142.95 316.35 142.4 314.2
M 158.15 314.15
Q 158.6 315.15 159 316.1 159.55 317.35 160.1 318.7
M 156.85 311.55
Q 157.55 312.85 158.15 314.15
M 155.65 309.5
Q 155.9 309.85 156.15 310.3 156.45 310.85 156.85 311.55
M 160.1 318.7
Q 160.45 319.7 160.85 320.7
M 168.75 319.65
L 169.3 319.45
M 134.45 305.3
L 133.8 306.65 133.05 308.2
M 124.75 306.65
L 124.65 308.05
M 131.9 310.6
L 133.05 308.2
M 125 301.75
L 124.9 303.3
M 124.65 308.05
L 124.5 310.7
M 124.9 303.3
L 124.75 306.65
M 124.1 318.25
L 123.95 320.85
M 120.6 319.9
L 120.75 321.2
M 127.8 319.35
L 129.25 316.35
M 133.4 320.7
L 136.5 317.7
M 131.25 312.15
L 131.9 310.6
M 124.25 315.3
L 124.1 318.25
M 120.15 317.1
L 120.6 319.9
M 140.5 313.75
L 140.6 313.65 141.45 312.75
M 133.2 320.95
L 133.4 320.7
M 145.85 322.35
L 142.4 323.6 136.35 325.65
M 133.2 320.95
L 130.15 323.9 128.85 325.2
M 129.75 328
L 136.35 325.65
M 129.4 332.75
L 145.85 341.5
M 129.85 330.35
L 147.15 334.15
M 160.85 320.7
Q 161.15 321.75 161.4 322.7
L 163 322.05
M 163.6 321.8
L 168.75 319.65
M 126.55 322.1
L 127.8 319.35
M 113.2 306.95
L 113.9 308.7
M 118.45 305.9
L 118.95 308.95 119 309.35
M 106.4 296.45
L 106.55 297.55 106.95 300.65
M 107.1 302.1
L 107.1 302 106.95 300.65
M 111.1 317.95
L 107.75 314.6
M 118.55 320.55
L 118.6 320.85 119.3 322.55
M 119.75 314.3
L 120.15 317.1
M 116.8 316.1
L 118.55 320.55
M 115.4 322.25
L 111.8 318.65
M 115.7 313.25
L 116.55 315.5 116.8 316.1
M 111.8 318.65
L 111.1 317.95
M 103.75 308.25
L 102.1 309.7
Q 99.65 308.9 97.1 308.2
M 99.4 303.35
Q 97.85 302.95 96.35 302.55 95 302.2 93.6 301.8
M 87.55 305.75
Q 89.2 306.15 90.75 306.5 93.6 307.2 96.35 308 96.75 308.1 97.1 308.2
M 93.6 301.8
Q 90.6 301.1 87.55 300.45 87.1 300.35 86.65 300.3
M 118.1 324.85
L 115.4 322.25
M 117.9 329.5
L 107 332.7
M 117.7 327
L 106.1 323.65
M 118.9 332.4
L 110 340.85
M 102 304.15
Q 100.75 303.75 99.4 303.35
M 120.9 335
L 115.55 348.55
M 124.3 336.5
L 126.65 354.85
M 126.1 336.3
L 135 354.15
M 127.8 335.25
L 141.25 349.75
M 78.9 303.95
Q 81.5 304.45 84.05 304.95
M 82.25 299.45
Q 80.6 299.1 78.9 298.85
M 99.4 296.35
L 98.9 297.45
M 189.1 264.75
Q 195.35 266.7 200.6 269.85 204.7 272.3 208.15 275.5
M 191.7 271.05
Q 189.15 270.15 186.1 269.4
M 177.75 269.4
L 181.05 275.5
Q 181 280.15 178.15 281.85
L 172.2 283.95
M 191.7 271.05
Q 201.3 274.25 205 279.15 205.65 280.05 206.2 281.05 207.7 284.1 207.15 287.75 205.8 292.7 200.45 293.25 198.95 293.4 197.2 293.25 195.75 293.1 194.1 292.75 193.05 292.55 191.9 292.25
L 191.65 292.2 184.85 290.65 182.2 290 176.95 288.85 171.55 287.55 167.65 286.65
M 167.3 285.6
L 160 288.1
M 164.6 283.05
L 168.2 281.95
M 164.6 289.3
L 171.55 291.15 176.35 292.45 181.45 293.8 183.35 294.25 183.45 294.3 190.1 295.85 192.55 296.3 194.35 296.55 201.7 297.7 201.85 297.75 202.9 297.95
Q 209.7 296.6 211.1 290.4 211.5 289.1 211.7 287.95 211.9 286.7 211.95 285.55 212 280.2 208.15 275.5
M 183.45 304.3
L 182 304.75
M 183.45 297.3
L 181.55 296.7 181.2 296.6
M 172.2 283.95
L 171.55 284.15 167.3 285.6
M 184.85 290.65
L 182.65 288.45
M 187.3 281
L 191.65 292.2
M 191.8 277.9
L 194.1 292.75
M 198.1 277
L 197.2 293.25
M 190.2 319.55
L 186.3 321.3
M 212.85 286.75
L 211.7 287.95
M 206.2 281.05
L 200.45 293.25
M 202.95 300.3
Q 203.6 301.6 204.1 302.95
L 217.95 305.95
M 204.1 302.95
Q 204.8 304.7 205.4 306.5
L 216.85 312.55
M 205.4 306.5
Q 206.3 309.45 206.8 312.3
L 205.9 312.75 212.7 319.95
M 196.85 308
L 198.95 307.1
Q 197.95 301.8 194.35 296.55
M 201.75 297.85
Q 201.95 298.1 202.05 298.35 202.5 299.3 202.95 300.3
L 216.85 295.45
M 201.7 297.7
Q 201.75 297.75 201.75 297.85
L 201.85 297.75
M 191.75 301.8
L 183.45 304.3
M 192.6 304.4
L 184.65 312
M 183.45 297.3
L 191.55 299.65
M 202.3 314.3
L 198.5 315.95 199.6 324.6
M 198.5 315.95
L 190.2 319.55
M 196.85 308
L 193.45 309.4 185.1 312.85
M 194.45 306.75
L 193.45 309.4
M 180.4 314.8
L 177.7 315.95 175.35 316.9 173.3 317.8
M 180.4 314.8
L 181.15 314.5
M 169.3 319.45
L 173.3 317.8
M 163 322.05
L 163.6 321.8
M 181.15 314.5
L 185.1 312.85
M 207.1 323.9
L 202.3 314.3 205.9 312.75
M 191.9 297.65
L 190.1 295.85
M 160.25 284.3
L 164.6 283.05"/>

<path id="Layer0_0_4_STROKES" stroke="#171C3E" stroke-width="1" stroke-linejoin="round" stroke-linecap="round" fill="none" d="
M 212.75 155.55
Q 208.95 170.05 169.35 159.8 166.3 159.4 163.4 159.1
M 171.3 151.15
Q 198.75 151.95 212.75 155.55 213.95 157.1 214.7 159.2
M 215.6 167.45
Q 215.4 171.1 214.4 175.5 210.1 194.55 202.55 209.8 187.2 210.4 172.3 218.65
L 167.4 220.2
Q 167.353515625 220.2072265625 167.3 220.225 167.2607421875 220.230859375 167.225 220.225
L 167.075 220.25
M 50.9 206.95
L 38.3 204.4
Q 32.4 200.3 29.6 195.35 21.95 182.15 21.2 165.1 16.45 164 17.15 158.5 23.7 134.2 23.95 105.55 23.45 98.5 30.55 94 38.25 91.8 46.45 82.35 48.75 79.5 51.2 76.1 54.2 72.2 59.4 69.5 67.35 65.35 74.6 68.45 83.25 72.6 100.15 68.05 101.75 67.55 103.4 67.1 108.3 66 113.95 66.25 136.2 68.65 138.7 82.65 138.45 102.8 128.7 130.65 136.85 144.05 134.9 151.1 149.95 150.8 162.6 150.95
M 214.4 175.5
Q 211 180.25 200.6 181.6 173.35 181.55 153.1 176.2 150 176.05 147.05 175.85
M 118.2 214.55
Q 118.6 214.7 119.1 214.85
L 123.95 216.4
Q 126.35 217 128.7 217.65
L 136.65 219.45
Q 149.15 221.95 159 221.4
M 159.35 221.4
L 165.65 220.55
Q 166.3173828125 220.3830078125 167.075 220.25
M 68.25 133.7
Q 71.1 111.1 81.65 83 89.3 71.8 100.15 68.05
M 72.35 134.3
Q 87.1 71.3 114.6 73 125.55 75.05 130.05 80.9 133 92.1 124.25 129.65 124 130.9 123.65 132.1
L 128.7 130.65
M 62.65 136.75
Q 49.55 121.3 46.1 106.3 43.1 93.45 47.5 83.05 48.85 79.75 51.2 76.1
M 68.25 133.75
Q 68.1 134.75 68.05 135.7 70.05 134.9 72.35 134.3 103.3 136.75 123.65 132.1
M 68.25 133.75
L 68.25 133.7
M 68.2 167.7
Q 61.8 173.45 56.3 166.85 55.25 165.7 54.3 164.1 49.7 151.1 56.15 143.35 58.85 140.15 63.2 137.85 65.4 136.65 68.05 135.7
M 134.9 151.1
Q 114.8 153.6 90.2 154.25 79.6 155.5 73.15 161.5 70.6 165.55 68.2 167.7 89.6 172.45 139.3 175.45
M 155.7 158.25
Q 129.85 155.6 115.05 156.4
M 23.95 105.55
Q 24.85 119.35 55.6 142.95
M 21.2 165.1
L 55.6 167.4
M 105.95 210.1
Q 75.7 206.3 50.9 206.95"/>

<path id="Layer0_0_5_STROKES" stroke="#5C5F54" stroke-width="1" stroke-linejoin="round" stroke-linecap="round" fill="none" d="
M 163.6 149.85
L 162.6 150.95 156.75 157.2
M 161.45 160.95
L 163.4 159.1 168.7 153.8
M 147.05 175.85
L 117.9 206.65
M 149 165.2
L 139.3 175.45
M 153.65 168.85
L 147.05 175.85
M 139.3 175.45
L 113.45 202.7"/>

<path id="Layer0_0_6_STROKES" stroke="#393A34" stroke-width="1" stroke-linejoin="round" stroke-linecap="round" fill="none" d="
M 148.85 234.95
L 148.35 234.35 146.7 232.45
M 84.5 249.7
L 83.9 250.3 83.3 250.9"/>

<path id="Layer0_0_7_STROKES" stroke="#171717" stroke-width="1" stroke-linejoin="round" stroke-linecap="round" fill="none" d="
M 172.1 263.15
L 187.25 262.6 189.1 264.75
M 47.9 277.4
Q 37.15 268.7 27.2 270.2
M 124.1 258.8
Q 125.55 260 127.15 262.3 128.1 263.7 130.05 266.65
M 172.45 269.4
L 169.35 269.4 169.35 265.8
M 128.35 278.95
L 121.7 279
M 118.4 279.05
L 113.15 279.05
M 92.9 263.25
Q 88.55 265 85.1 264.35
L 90.5 258.85
M 93.6 262.9
Q 93.2 263.05 92.9 263.25
M 108.55 282.5
L 109.35 285.05
M 121.7 279
L 120.85 279 118.4 279.05
M 109.35 285.05
L 109.6 285.8 110.5 288.7
Q 111.7 288.15 113.05 287.65 115.85 286.6 119.25 286 120.7 285.75 122.25 285.65 122.3 285.6 122.45 285.6 124.65 285.35 127.05 285.3 127.4 283.7 129.05 282.65 129.65 282.2 130.6 281.9 130.6 281.85 130.65 281.85
L 128.35 278.95
M 113.15 279.05
L 108.55 282.5
M 120.3 256.1
Q 122.25 257.2 124.1 258.8
M 27.2 270.2
Q 16.85 271.75 7.3 284.35
M 47.9 277.4
Q 49.2 278.4 50.55 279.6 52.3 281.25 54.15 283.2
M 189.1 264.75
Q 186.35 266.2 186.1 269.4
L 177.75 269.4
M 172.1 263.15
L 169.35 265.8
M 172.45 269.4
L 177.75 269.4"/>
</defs>

<g transform="matrix( 1, 0, 0, 1, 0,0) ">
<use xlink:href="#Layer0_0_FILL"/>

<use xlink:href="#Layer0_0_1_STROKES"/>

<use xlink:href="#Layer0_0_2_STROKES"/>

<use xlink:href="#Layer0_0_3_STROKES"/>

<use xlink:href="#Layer0_0_4_STROKES"/>

<use xlink:href="#Layer0_0_5_STROKES"/>

<use xlink:href="#Layer0_0_6_STROKES"/>

<use xlink:href="#Layer0_0_7_STROKES"/>
</g>
</svg>
