<svg xmlns="http://www.w3.org/2000/svg" xmlns:xlink="http://www.w3.org/1999/xlink" preserveAspectRatio="none" width="285" height="427" viewBox="0 0 285 427"><defs><g id="a"><path fill="#202020" d="M212.85 286.75q2.7 4 4 8.7 1 3.5 1.1 7.5.1 1.6 0 3-.15 3.55-1.1 6.6-1.25 3.65-3.55 6.55-.3.45-.6.85-2.6 2.8-5.6 3.95-3.05 1.2-6.55.8-.55-.05-.95-.1-5.3-.95-9.4-5.05l-3.9 1.75q7.4 8 17.1 9 10.8 1.1 18.1-7.1 7.1-8.05 6.5-20.55-.4-11.15-6.7-19.95-5.2-2.4-13.15-7.2 3.85 4.7 3.8 10.05.45.55.9 1.2m-18.5 9.8l-1.8-.25q-.4.6-.65 1.35-.25.9-.35 2v.75q.1.75.2 1.4.2 1.4.85 2.6.35.6.75 1.2.5.7 1.1 1.15 1.1 1 2.4 1.25l2.1-.9q-1-5.3-4.6-10.55m-13.15.35v-.3q0-1.5.25-2.8l-5.1-1.35q-.25 2.45-.15 5.1.05.7.1 1.35.55 7.7 4.1 14.3l.7 1.2q0 .05.05.1l3.95-1.65q-.25-.45-.45-.85-.65-1.3-1.2-2.55-.9-2.3-1.45-4.7-.7-2.95-.8-5.95-.05-.95 0-1.9m10.5-25.85q-.95.25-1.9.7-1.45.85-2.1 1.3-2.55 1.5-4.8 4-.5.55-.8 1.1-1.1 1.2-1.95 2.75-1.7 2.75-2.7 5.95-.35.95-.5 2l5.25 1.15q.2-.8.45-1.55.95-2.85 2.75-5.2.2-.35.55-.75.65-.85 1.35-1.5 1-.95 2.05-1.7 1.2-.85 2.45-1.4 2.9-1.15 6.3-.9h.55q3.35.45 6.35 2.15-3.7-4.9-13.3-8.1m-176.1 13.5q-.35.5-.65 1-5.95 7.9-5.4 19.85.5 12.65 7.85 22.35 7.3 9.75 17.4 10.85 10 1.1 16.55-7 6.7-8.2 6.15-20.8-.55-12.6-7.9-22.4-1.2-1.6-2.45-3l-.2.1q-2.95-3-5.95-5.1-4.05-2.4-8.7-2.9-10-1.15-16.7 7.05m3.1 5.55q.65-.8 1.35-1.5 3.9-3.9 9.3-3.95.3 0 .7.05.55 0 1.15.05 2.3.25 4.4 1.15 3.9 1.6 7.15 5.4.75.85 1.45 1.8.9 1.2 1.65 2.5.85 1.45 1.55 2.95 1.7 3.75 2.4 7.95.2 1.8.3 3.7.1 3-.25 5.65-.7 4.5-2.85 8.05-.7 1.15-1.5 2.15-1.75 2.15-3.8 3.5-3.2 2.05-7.15 2-.75 0-1.5-.15-3.55-.4-6.65-2.2-2.9-1.85-5.4-4.85-.5-.65-.95-1.3-2.05-2.65-3.3-5.65-1.2-2.5-1.8-5.25-.75-2.95-.85-6.1-.05-1.35 0-2.6.2-5 2-8.9.85-1.95 2.05-3.65.25-.35.55-.8m15.2 17.7q-.25-1.2-.8-2.2-.3-.65-.8-1.3l-.3-.4q-1.1-1.35-2.4-1.8-.5-.25-1.1-.3-.35-.05-.6 0-1.35 0-2.35.8-.45.35-.85.8-.1.1-.15.3-.35.5-.65 1.1-.5 1.25-.5 2.9v.5q.05.85.2 1.65.15.85.5 1.7.4.9 1.05 1.75.9 1.2 1.9 1.9.9.5 1.9.6.3.05.55.05 1.05 0 1.95-.5.7-.45 1.3-1.2.35-.4.65-.9.45-.95.65-2.1.1-.8.05-1.7-.05-.85-.2-1.65m96.6-24.95l.1-.6v-.35q-.95.3-1.55.75l1.45.2m.15.05l-.15-.05-1.45-.2q-1.65 1.05-2 2.65 1.9.5 3.7 1.05 0-1.2-.05-2.4 0-.55-.05-1.05m-9.2 9.25v.1q-.1.15-.15.4l-.7 1.7q3.8-.95 7.35-.55.75.05 1.45.2.35-.9.6-1.85-4-1.2-8.2-1.2-.15.6-.35 1.2m-5.6 3.75q-.05.05-.1.05-1.65.95-2.35 1.45-.8.5-1.55 1-.6.4-1.05.85-1.45 1.2-2.8 2.7-.1.1-.2.25-.4.4-.65.85-.9 1.05-1.65 2.25-.25.35-.5.8-.65 1.05-1.25 2.15-.5 1.1-1 2.25-.25.65-.5 1.4-.6 1.75-1 3.7-.05.15-.1.45-.8 4.1-.6 8.7.6 13.9 9.55 24.45 8.8 10.75 20.85 12.05 12 1.2 20.15-7.9 7.05-8.05 7.3-19.9 0-1.5-.05-3-.45-11-6-20l-.9.25q-4.3-6.9-9.25-11.4-5.85-4.3-12.8-5.3-.7-.15-1.45-.2-3.55-.4-7.35.55-.15 0-.3.05-2.15.55-4.45 1.5m26.4 18.05q.05.1.15.25.55.95 1 1.9 1 1.85 1.65 3.8.1 0 .1.15.4 1.1.7 2.3.35 1.15.6 2.35v.15q.35 1.65.55 3.35.1 1.25.15 2.55.05 1.75 0 3.4-.2 3.9-1.3 7.35-1.3 4.1-3.85 7.35-.4.45-.75.9-2.85 3.05-6.25 4.4-3.4 1.3-7.35.85-.5-.05-1-.15-6.2-1.05-11.1-6.3-1.4-1.35-2.65-3.1-1.7-2.2-2.9-4.6-2.05-3.85-3-8.15-.75-3.15-.9-6.6-.05-1.25 0-2.45.05-1.85.3-3.55.2-1.5.55-2.85.35-1.4.8-2.65.15-.55.4-1 .05-.25.15-.4.95-2.15 2.3-4.05.15-.2.25-.35.2-.4.6-.85.4-.55.85-1 1.35-1.55 2.9-2.65 4.1-2.85 9.45-2.55h.35q.25 0 .6.05 3.35.45 6.4 2 1.2.65 2.45 1.5.9.6 1.85 1.45.7.65 1.45 1.35 1.2 1.3 2.35 2.75.2.25.35.45.5.7 1 1.45.45.55.8 1.2m-18.3 6.9q-.3-.1-.5-.15-1.5-.15-2.65.55-.85.45-1.5 1.3-.15.15-.2.25-.7.95-1 2.05-.35 1.05-.4 2.15v.9q.05.8.2 1.6.3 1.5 1 2.9.3.65.8 1.3.55.75 1.2 1.3 1.5 1.25 3.25 1.4.1 0 .15.1.95.1 1.8-.2.95-.3 1.7-1.05.3-.25.55-.6.7-.85 1.05-1.9.35-1.1.45-2.4v-1.05q-.05-.7-.1-1.3-.3-1.5-.9-2.8-.4-.85-.95-1.65-.15-.1-.2-.2-.05-.15-.1-.2-.5-.55-1.05-1.05-1.25-1-2.6-1.25m.4-18.85q.1-.15.3-.25-5.35-.3-9.45 2.55-1.55 1.1-2.9 2.65h.9q2.75-.15 5.25-1.05h.05q2.65-1.1 5-3.1.45-.4.85-.8m-20.2-25.3q-.6 0-1.05.25l-.1 10.5q1.05.85 2.25.95h.15q.7.05 1.4-.1.65-.25 1.2-.8.25-.2.4-.35.55-.7.8-1.55.1-.3.15-.55l-.8-2.55-4.4-5.8m-3.7 5.35q.1.6.25 1.2.2 1.1.7 2.05.3.55.6 1.05.45.55.9 1l.1.1.1-10.5q-.15.05-.25.1-.7.35-1.15 1.05-.1.05-.15.15-.55.7-.7 1.55-.3.65-.4 1.6v.65m-5-14.4q.15-.25.4-.5.25-.3.5-.55l-1-1.35.1 2.4m-4.8-1.25q-1.15 2.05-1.9 4.4-1.3 4.05-1.05 8.9.1 1.8.35 3.55.25 1.65.7 3.25 1.65 6.05 5.9 11.15 0 .05.1.1l.1.2q.75.9 1.5 1.7.5.45.95.95 1.45 1.4 3 2.45.85.6 1.7 1.1 1.75.55 3.5 1.15.75-1.2 1.65-2.25.25-.45.65-.85-.15-.05-.25-.05-.2-.05-.45-.05-1.2-.25-2.35-.65-1.05-.45-2.05-1-.85-.5-1.65-1.1-1.1-.85-2.15-1.9-.35-.35-.65-.75-.7-.8-1.3-1.6l-.6-.8q-.9-1.3-1.65-2.7-1.5-2.75-2.15-6-.15-.45-.2-.8-.35-2-.45-4.1-.05-.9 0-1.75.05-3.8 1.15-6.85.85-2.25 2.3-4.25l.1-.2-.1-2.4-1.75-2.35q-.4.15-.7.35-.15.1-.2.25-1 1.1-1.65 2.3l-.4.6m15.3-3.75h.4q3.25.35 6.1 2.25.05.05.15.1l.3.2q2.4 1.7 4.5 4.45.35.55.8 1.15 1.65 2.45 2.65 5.25.3.9.6 1.85.15.55.25 1.1l6.65-.05 1.8.3q-.3-1.65-.8-3.25-1.6-5.3-5.15-9.85-.2-.25-.45-.6-1.6-1.9-3.3-3.4-4.1-1.45-8.05-2.1-7.75-1.4-14 .3l2.4 3.05q2.25-1.05 5.15-.75z"/><path fill="#333" d="M189.1 264.75q6.25 1.95 11.5 5.1 4.1 2.45 7.55 5.65 7.95 4.8 13.15 7.2 6.4 2.9 8.7 2-13.15-23.9-40.9-19.95m-3 4.65q.25-3.2 3-4.65l-1.85-2.15-15.15.55-2.75 2.65v3.6h16.75M50.55 279.6q-1.35-1.2-2.65-2.2-10.75-8.7-20.7-7.2 10.65-.8 23.4 9.85l3.55 3.15q-1.85-1.95-3.6-3.6m-23.35-9.4q-10.35 1.55-19.9 14.15Q23.9 268.3 41 280.4q3 2.1 5.95 5.1l.2-.1 7-2.2-3.55-3.15q-12.75-10.65-23.4-9.85m32-51.4l3.95-3.45-5.9-8.4H50.9v2.85l8.3 9m51.3 69.9l-.7.7-1.65 1.5-.7.6-1.1.95-.4.35-2.7 2.4-1.45 1.3q1.05-.55 2.05-1 1.2-.6 2.3-1.05 1.35-.55 2.65-1.05.25-.1.5-.15 1.55-.6 3.15-.95.45-.15 1-.25 2.55-.65 5.05-.95.45-.05.9-.05 1.2-.1 2.4-.1 4.2 0 8.2 1.2 6.5 1.95 12.2 7.15 4.95 4.5 9.25 11.4l.9-.25 2.85-.8.45-.15 2.8-.8 1.3-.45q-.5-1.1-1.1-2.15-.6-1.1-1.25-2.1-1.1-1.6-2.3-3.1-3.8-4.55-9.25-7.95-.25-.2-.45-.35l-4.8-2.6q-1.5-.7-3.1-1.35-3.2-1.3-6.75-2.3-1.8-.55-3.7-1.05-2.4.05-4.6.3-.15 0-.2.05-1.55.1-3 .35-3.4.6-6.2 1.65-1.35.5-2.55 1.05m10.35-9.7l-2.45.05h-5.25l-4.6 3.45.8 2.55.25.75.9 2.9q1.2-.55 2.55-1.05 2.8-1.05 6.2-1.65 1.45-.25 3-.35.05-.05.2-.05 2.2-.25 4.6-.3.35-1.6 2-2.65.6-.45 1.55-.75 0-.05.05-.05l-2.3-2.9-6.65.05h-.85M92.9 263.25q.3-.2.7-.35l-3.1-4.05-5.4 5.5q3.45.65 7.8-1.1m-9-12.95l.6-.6 1.65-1.8-4.25-3.25-1.05 1.2-5.4 6.5 3.85 2.8 4-4.25.6-.6m.6-.6l-.6.6 2.35 2.95 4.25-2.85-2.95-3.95-1.4 1.45-1.65 1.8m27.9 10.35q3.95.65 8.05 2.1 4.7 1.7 9.6 4.5-1.95-2.95-2.9-4.35-1.6-2.3-3.05-3.5-1.85-1.6-3.8-2.7-11.15-6.65-25.6-.4l3.7 4.65q6.25-1.7 14-.3m5.5-53.4l-4.45-3.95-6.95 7.6-13.8 15 3.7 4.05 21.5-22.7m3.45 3.6l-3.45-3.6-21.5 22.7.75.75 3.2 2.7 17.2-18.45 3.8-4.1m22.65 31.6l2.35-2-1.4-1.5-1.25-1.55-2.45 2 2.75 3.05m4.35-7.5l-1.45-1.8-.2-.1 1.65 1.9m3.4.75l-3.1-3.3q-1.25.85-1.75.75l1.45 1.8.5.6 1.4 1.6 1.5-1.45m-5.1-2.8l-2.05-2.55-3.65 2.65 2.75 4.4 1.25 1.55 3.9-3.4-.5-.6-1.65-1.9-.05-.15m9.05-74.05l-.55.65 1.1-1.2-.55.55m-2.05 10.6l7.8-7.9-4.7-3.75-.5.5-1.1 1.2-6.15 6.3 4.65 3.65m86.05-25.45l-.05.05q3.8 2.7 7.95 1.6 5.1-3.9 4.6-8.85 22.45-2.7 25.55-8.5-.35-5.1-3.1-6.55-6-2.25-14.45-3.8-9.95-.05-19.95 1.5l-54.4 14.25-8.6.65q-5.2 1-7 8.2l-6.65 7.9 5.1 3.95 2.6-2.65 3.75-3.8q7 4 11.8 0 2.6-3.4 2.3-8l51.1-12.15q8.85-2.15 17.7-1.95l6.95.9 7.15.85-7.15-.85-23.55 5.3q-4.5 2.25-6.35 6.55l-20.35 20.9.05.3.9 8.25v.25l23.15-24.95.95.65m.55-8.65q1.1-1.05 2.6-1.05t2.55 1.05q1.15 1.15 1.15 2.65 0 1.45-1.15 2.55-1.05 1.1-2.55 1.1-.7 0-1.35-.25-.65-.3-1.25-.85-1.05-1.1-1.05-2.55 0-1.5 1.05-2.65m-62.95 3.15q1.45 0 2.55 1 1.1 1.15 1.1 2.7 0 1.5-1.1 2.55-1.1 1.1-2.55 1.1-.75 0-1.4-.25-.65-.25-1.25-.85-1.05-1.05-1.05-2.55 0-1.55 1.05-2.7 1.15-1 2.65-1z"/><path fill="#AFB1A6" d="M189.1 264.75q-2.75 1.45-3 4.65 3.05.75 5.6 1.65 9.6 3.2 13.3 8.1.65.9 1.2 1.9 1.5 3.05.95 6.7-1.35 4.95-6.7 5.5-1.5.15-3.25 0-1.45-.15-3.1-.5-1.05-.2-2.2-.5l-.25-.05-6.8-1.55-2.65-.65-5.25-1.15-5.4-1.3-3.9-.9-.35-1.05-7.3 2.5 4.6 1.2 6.95 1.85 4.8 1.3 5.1 1.35 1.9.45.1.05 6.65 1.55 2.45.45 1.8.25 7.35 1.15.15.05 1.05.2q6.8-1.35 8.2-7.55.4-1.3.6-2.45.2-1.25.25-2.4.05-5.35-3.8-10.05-3.45-3.2-7.55-5.65-5.25-3.15-11.5-5.1m-33.45 44.75l-.45.15-2.85.8q5.55 9 6 20 .05 1.5.05 3l27.9-12.15 3.9-1.75 8.3-3.6 3.8-1.65 3.6-1.55.9-.45q-.5-2.85-1.4-5.8-.6-1.8-1.3-3.55-.5-1.35-1.15-2.65-.45-1-.9-1.95-.1-.25-.3-.5 0-.1-.05-.15l-7.35-1.15q3.6 5.25 4.6 10.55l-2.1.9-3.4 1.4-8.35 3.45-3.95 1.65-.75.3-2.7 1.15-2.35.95-2.05.9-4 1.65-.55.2-5.15 2.15-.6.25-1.6.65q-.25-.95-.55-2-.4-1-.75-2-.55-1.35-1.1-2.6-.4-.95-.85-1.95-.6-1.3-1.3-2.6-.4-.7-.7-1.25-.25-.45-.5-.8m-98.1-13.05q-1.4-.1-2.75-.15l1.3 4.25q.75.05 1.45.15 3.9.45 7.6.95 2.35.35 4.65.7 1.05.15 2.15.3 2.2.4 4.45.8 1.3.25 2.5.5 2.6.5 5.15 1l3.5.8q1.65.4 3.2.75 2.85.7 5.6 1.5.4.1.75.2 2.55.7 5 1.5l1.65-1.45q.6-1.1 1.25-2.15.25-.45.5-.8-1.75-.6-3.5-1.15-1.25-.4-2.6-.8-1.55-.4-3.05-.8-1.35-.35-2.75-.75-3-.7-6.05-1.35-.45-.1-.9-.15-2.15-.5-4.4-.85V302v-2.55q-1.65-.35-3.35-.6-1-.15-2-.35-.2 0-.35-.05-.3-.05-.7-.1v1.35-1.35l-3.9-.5q-1-.15-2-.25-2.4-.3-4.8-.5-.4-.05-.9-.1-3.3-.35-6.7-.55m21.75-41.3l-3.85-2.8-22.85 25-2.05 2.25q1.75 1.65 3.6 3.6l3.4-3.8 1.6-1.8 20.15-22.45m-49.95 29.5l-3.6 1.35q.5 4.1 2.15 6.95 1.45 2.3 3.75 3.8 2 1.35 4.8 1.95 4.5.9 10.95-.15-.7-1.5-1.55-2.95-3.55.05-6.35-.5-4-.8-6.25-2.65-3.3-2.75-3.2-7.75-.4-.05-.7-.05m116.05 7.95q.2.15.45.35l9.25-3.15 4.9-1.7 7.3-2.5 4.25-1.45.65-.2 5.95-2.1q2.85-1.7 2.9-6.35l-3.3-6.1h-5.3q6.5 7.65 1.95 10.7l-6.2 1.85-3.6 1.1-4.35 1.25-7.45 2.15-7 2.05-5.2 1.5 4.8 2.6m-14.9-9.75l.15.05 6.85 1.1 8.3 1.3 7 1.15 7.45-2.15-5.15-.85-9.3-1.6-8.3-1.4-7.35-1.2-1.8-.3 2.3 2.9-.05.4-.1.6m11.9 31.35q-.1-.15-.15-.25-.6-.1-1.1-.15-.35-.05-.65-.05-2.4-.4-4.85-.8-2.25-.4-4.4-.8l-4.8-1q-.95-.25-1.95-.45-2.75-.65-5.5-1.35-.35-.1-.6-.2-2.05-.5-4.15-1.1l-.35.65-.7 1.25-.95 1.7-.45.65q1.95.5 3.9.95 1.9.5 3.8.95.05 0 .25.1l4.5 1q2.2.45 4.3.9.35.05.7.15 3.75.75 7.25 1.35l2.6.4q2.3.4 4.5.65l-.65-2.4-.55-2.15m-36.85-44.75l-2.3-3-.15 8.9 1.05 1.35 4.4 5.8 4.6-3.45-.55-.65-.9-1.15-2.7-3.5-3.45-4.3m-2.3-3l-1.7-2.1-.75-.95-2.4-3.05-3.7-4.65-4.2-5.3-4.25 2.85 4.25 5.6 3.1 4.05 1.75 2.35 1 1.35 1.7 2.15 4.45 5.75.6.85.15-8.9m-21.35-21.8l2.05-2.25-20.8-27.05-3.95 3.45 21.65 27.05 1.05-1.2m14.4-15.25l-12.35 13-2.05 2.25 4.25 3.25 1.4-1.45 12.8-13.65-3.2-2.7-.85-.7m47.7 12.45l-2.75-3.05-20.95 17.3q1.95 1.1 3.8 2.7l19.9-16.95m.95-3.5l1.4 1.5 23 25.95 2.75-2.65-21.85-26.6-1.4-1.6-3.9 3.4m-17.15-20.9l.1.05 13.05 14.9 3.65-2.65-7-9.95-.05-.1-.9-.25-7.95-1.8-.9-.2m31.2 3.95v.05l-8.35 8.45q-1.15 1.25-2 1.9l3.1 3.3 15.3-14.8-.9.2-.5.05-6.3.85H159m-5.35-52.55L149 165.2l-9.7 10.25-25.85 27.25 4.45 3.95 29.15-30.8 6.6-7m9.95-19l-1 1.1-5.85 6.25 4.7 3.75 1.95-1.85 5.3-5.3-5.1-3.95z"/><path fill="#4576CF" d="M166.15 220.5q.455-.152.9-.25-.733.133-1.4.3l.5-.05m-38.25-3l-.1-.05.9.2q-2.35-.65-4.75-1.25 1.95.55 3.95 1.1m31.1 3.95v-.05q-9.85.55-22.35-1.95l.9.25.05.1q11.9 2.3 21.4 1.65M73.15 161.5q-2.55 4.05-4.95 6.2 21.4 4.75 71.1 7.75l9.7-10.25 6.15-6.3.55-.65q-25.85-2.65-40.65-1.85 14.8-.8 40.65 1.85l.55-.55.5-.5 5.85-6.25q-12.65-.15-27.7.15-20.1 2.5-44.7 3.15-10.6 1.25-17.05 7.25m8.5-78.5q7.65-11.2 18.5-14.95-16.9 4.55-25.55.4-7.25-3.1-15.2 1.05-5.2 2.7-8.2 6.6-2.35 3.65-3.7 6.95-4.4 10.4-1.4 23.25 3.45 15 16.55 30.45-13.1-15.45-16.55-30.45-3-12.85 1.4-23.25 1.35-3.3 3.7-6.95-2.45 3.4-4.75 6.25-8.2 9.45-15.9 11.65-7.1 4.5-6.6 11.55.9 13.8 31.65 37.4-30.75-23.6-31.65-37.4-.25 28.65-6.8 52.95-.7 5.5 4.05 6.6l34.4 2.3-34.4-2.3q.75 17.05 8.4 30.25 2.8 4.95 8.7 9.05l12.6 2.55q24.8-.65 55.05 3.15.25.1.55.2l6.95-7.6 25.85-27.25q-49.7-3-71.1-7.75-6.4 5.75-11.9-.85-1.05-1.15-2-2.75-4.6-13 1.85-20.75 2.7-3.2 7.05-5.5 2.2-1.2 4.85-2.15.05-.95.2-1.95v-.05q2.85-22.6 13.4-50.7m132.75 92.5q-3.4 4.75-13.8 6.1-27.25-.05-47.5-5.4-3.1-.15-6.05-.35l-29.15 30.8 3.45 3.6-3.8 4.1q.3.1.65.2.4.15.9.3l4.85 1.55q2.4.6 4.75 1.25l7.95 1.8q12.5 2.5 22.35 1.95h.35l6.3-.85q.667-.167 1.4-.3l.15-.05q.06.03.1 0 .054.007.1 0l4.9-1.55q14.9-8.25 30.25-8.85 7.55-15.25 11.85-34.3m-45.05-15.7q-3.05-.4-5.95-.7l-1.95 1.85-7.8 7.9-6.6 7q2.95.2 6.05.35 20.25 5.35 47.5 5.4 10.4-1.35 13.8-6.1 1-4.4 1.2-8.05l-.9-8.25q-.75-2.1-1.95-3.65-3.8 14.5-43.4 4.25m-.65-6l-5.3 5.3q2.9.3 5.95.7 39.6 10.25 43.4-4.25-14-3.6-41.45-4.4l-2.6 2.65z"/><path fill="#88A7E1" d="M68.05 135.7q-2.65.95-4.85 2.15-4.35 2.3-7.05 5.5-6.45 7.75-1.85 20.75.95 1.6 2 2.75 5.5 6.6 11.9.85 2.4-2.15 4.95-6.2 6.45-6 17.05-7.25 24.6-.65 44.7-3.15 1.95-7.05-6.2-20.45l-5.05 1.45q-20.35 4.65-51.3 2.2-2.3.6-4.3 1.4m32.1-67.65Q89.3 71.8 81.65 83q-10.55 28.1-13.4 50.7l1.55.25-1.55-.2q-.15 1-.2 1.95 2-.8 4.3-1.4Q87.1 71.3 114.6 73q10.95 2.05 15.45 7.9 2.95 11.2-5.8 48.75-.25 1.25-.6 2.45l5.05-1.45q9.75-27.85 10-48-2.5-14-24.75-16.4-5.65-.25-10.55.85-1.65.45-3.25.95z"/><path fill="#7194D5" d="M68.25 133.75l1.55.2-1.55-.25v.05z"/><path fill="#1E3664" d="M130.05 80.9q-4.5-5.85-15.45-7.9-27.5-1.7-42.25 61.3 30.95 2.45 51.3-2.2.35-1.2.6-2.45 8.75-37.55 5.8-48.75z"/><path fill="#888" d="M179.85 138.9q-1.1-1-2.55-1-1.5 0-2.65 1-1.05 1.15-1.05 2.7 0 1.5 1.05 2.55.6.6 1.25.85t1.4.25q1.45 0 2.55-1.1 1.1-1.05 1.1-2.55 0-1.55-1.1-2.7m63-5.2q-1.5 0-2.6 1.05-1.05 1.15-1.05 2.65 0 1.45 1.05 2.55.6.55 1.25.85.65.25 1.35.25 1.5 0 2.55-1.1 1.15-1.1 1.15-2.55 0-1.5-1.15-2.65-1.05-1.05-2.55-1.05z"/></g><path id="b" stroke="#AFB1A6" stroke-width="1" stroke-linejoin="round" stroke-linecap="round" fill="none" d="M101.15 316.05l-4.8 1.85v-3.75l-1.7-.45-7.1 2.75v-4.8l-8.65 3.15v-4l-6.95 2.5v-4.35l-6.8 2.25v-4.25l-7.6 2.3v-8.55m0-21.3v17.05M47.9 277.4q2.35-.1 4.7-.05m71.6-11.2q2.6.45 5.15.9 4.2.75 8.15 1.75 4.35 1.1 8.35 2.45 4.8 1.6 9.25 3.6 5 2.2 9.5 4.9 1.8 1.05 3.6 2.2m-64.95-15.5v-2.05q-.85-.05-1.7-.05m1.7.05q1.3 0 2.6.1m6.75 11.8V265m0 11.3v2.1m8.25-2.35v2.1m-15-13.65q3.35.1 6.6.4m-53.3 12.7q2.55.15 5.1.5v-5.05l5.7-1.4 5.9-1.5 6.4-1.6 6.5-1.65 1.9-.5m-1.9.5v3.9m6.7-3.15l-.1-2.4m.45 9.55l.2 5.3.15 4.45m-.35-9.75l-.35-7.15m7.55 19.8l.1-10.5m-6.95 7.6l.1 1.75q.05 0 .1.05 1.4.55 2.8 1.15m-16.9-18.95v13q2.65.7 5.3 1.55.25.1.5.15m-.5-.15v12.05l1.2.45v-9.1m7.6-.15v3.7m2.8-2.55q1.55.7 3.1 1.45m-5.9.9l-.1-3.55q-1.3-.55-2.55-1.05-.7-.25-1.35-.45m7.9 9.3l-3.9-1.45v1.65m1.9 2.4l1.15-.35m2.85-7.4q.4.15.75.3v-1.8m.1-10.5v-1.6m-6.75 14.7v2.6m24.5-14.5v.85m-17.75-3.65l.15-8.9m4.2 25.05q-.9-.5-1.75-.9-1.35-.7-2.7-1.35m3.35 3.2l-.45-.15-.65-.25m3.55 1.35l.65.2 4.15 1.6 1.2-.4m-10.95.7l2.55.95m-3.45-5.3l.05-1.9m17.3 5.15l-2-.7-3.5 1.1m.95 1.15l-2.15-.75-2.85 1m2.7-4.15l4.85 1.65 3-1.05m.15-.4l-2.95-1.15m-18.25 3l3 1.1m-3.85 1.15l2.2-.7M137.5 284v4.65m17.6-13.8v8.6m-9.3 1.85v3.2m9.3 1.3v11.1m-9.25-29.65l-.05 10.6m-16.45-14.8V276m8.15-7.2v11.65m-61.65-10.3V280q1.55.3 3.1.7 1.65.35 3.3.85v17.9m4.4.85l.9-.3v-4.85m-23.3-17.05q.5.05.9.1 2.4.25 4.8.7v-7.25m0 7.25l2 .3q1.95.35 3.9.8v18.35m1.05.15q-.2 0-.35-.05m2.4-17.75l-.05 18.15m-3.05-.5v1.35m-3.9 2.95v.35l3.05.9 1.4-.45m-6.6-1.1l2.15.65v1.85l3.05-.95 3.9 1.1v-1.05m-6.95 5l2.95-.95-2.95-.85v1.8zm0-4.1v2.3l-3.85-1.1-2.95.9v-1.8l-5.1-1.45m21.45 6.15l6.05-2.15v-.2l-6-1.7-2.65.85v2.45l2.6.75 6.05 1.75v-3.9l.25-.1-.25-.1v-1.75m-3.5-.8l-2.5.85-2.65-.8v1.65l-4 1.35 4 1.1v1.7l2.6-.95m-16.35-8.2v3.5l2.95.9 3.85-1.2m84.2 5.45l2.85-1.4-.55-.2m-15.5 7.65l.45-.25m1.65 3.8l-.1.05.2.1M159 316.1l3.85 1.35.15-.05v-3.5l-2.2-.85-2.65 1.1m1.95 4.55l2.75-1.25.15.05v-.1l4.25-1.9-4.25-1.6v-1.85l-2.2 1-3.95-1.5m4 9.15l2.15.85v-4.05l5.75 2.15m.55-.2v-3.2l-2.05-.75 2.05-.9v-1.8l-4.25-1.6-2.05.85v-1.65l-4-1.5 3.25-1.5-3.6-1.3m-24.85.55l1.5.55 1-.45m-3.25 1.45l2.25-1 2.45.9m-3.95-1.45l-4.65-1.75-4.4 1.75m-.1 1.4l4.9 1.7 3.5-1.55m-1.15 2.4l5.05 1.75 3.15-1.5M124.35 302l.6-.25m-1.45 1.05l1.4.5m-.15 3.35l-1.95.75 1.85.65m.25-4.75l4.25 1.6 2.85-1.1m-11.4 16.1l3.5-1.65m-3.35 2.95l.05.05m7.75-5.05l-4.45 2.05 3.7 1.1 5.25 1.55.35-.2m-6.95-9.55l3.1-1.4 2.35.85m-11.75 6.5l3.95 1.15m-3.5 1.65l-1.7.75 1.85.55m20.4-7.4l-.55-.15-3.65-1.3-1.3.6m-2.6 7.95l.15.05m.2-.25l5.7-2.6 5.85 1.85-6.05 2.65 3.5 1m-6.05 2.05l5.15 1.4 4.95-2.2m-7.55-2.25l-5.35 2.3 2.8.75m6.05-2.05l4.05 1.1m-13.4-3.8l-5.15 2.35 2.25.65m3.05-2.95l5.7 1.65m-8.75 1.3l2.95.85m-5.5-1.6l.3.1-.2.1m3.1 2.75l2.75-1.2m7.95 2.15l5.5 1.15m16-6.15v-.5l.6.25m-45.2-12.65l.55-.2m-12.4-11.4l1.5-.5-1.65-.6m.55 4.2l3.85-1.4m1.05-.85l-3.8-1.35 2.7-.85m-3.2 5.95l-.45-.15-1.95-.7-.4.15m-2.05-1l2.45.85 1.8-.65m-4.2 9.85l-2.2.85 1.7.55m4.15 8.2l4.05-1.85-3.5-1m3.5 1l.65-.3m5.45-2.45l2.95-1.3m-.9 6.65l.3-.2-.35-.1m-1.75-4.45l3.35 1m-8.35 1.55l6.75 1.9m-3.15 1.7l3.2-1.4m-1.8-4.75l-.95-.3-4.75 2.15m-.65.3l1.35.4m-3.65-5.05l7.7 2.2.7-.3m-8.25-2.3l3.95-1.55m-1.65-2.5l2.6.8m-16.1-1.75l-.75.25v1.7l4.2 1.2-4.2 1.65v1.15l4.9 1.45m-3.95-15l-.95.3v1.65m3.05.8l.9-.3m-3.95-3.4v1.25l-2.75.9m2.75 6.2v.45l-2.5.95 2.5.75V313l-1.7.7-7-2.05h-.1v-.05l.1.05 6.2-2.25-6.05-1.8 2.95-1.1m4-8.75l-7.2 2.25v.45m-5.3-1V302m32.05 20.8l1.1-.55m-14.35-22.9l5.5-1.8m11.95 8.35l4.3 1.5-3.85 1.55m-54.7-30.85V297m.9-18.8v18.9m4.8-18.2v18.7m2-18.4v18.65m22.7-.2l-5.9-2.05v2.45m83.45-14.1q3.05 1.45 5.25 2.9m-12.85-7.1v3.3m0 6.25v12.8l4.7-1.3 2.25-.65.05-1.1q-.05-.15 0-.35l-.05-7.55m10 5.55q-.15.1-.35.2m2.25.4v7m-11.9-20.15v3.4m11.8 6.7q-.3 1.35-1.8 2.45m1.9 7.6v5.15m-7.15-10.55l-.95.25v13.1l5.05 1.9v-.95m-5.05-14.05l-3.75 1h-.05v10.7l3.3 1.25.5-.25m-3.75-12.8v1.1m-8.6 2.35v5.2l1.6.55v-6.15l-1.6.4-5.6 1.5m5.6 6.4v-2.7l-.75-.3m9.3 3.45l-2.25-.85v2.8l2.2.8 3.35-1.5.5.15v2.85l2.35.85m2.7-1.15v-.65l.7.25m-11.8-4.4l-.9-.3-3.35 1.5-2.05-.8m6.3 4.2l2.2-1 3.85 1.5v1.8m-6.05-2.3v1.65l4 1.55m-4-17v9.2m-.9-.3l-3.8-1.45m18.85-13.95v3"/><path id="c" stroke="#000" stroke-width="1" stroke-linejoin="round" stroke-linecap="round" fill="none" d="M241.5 140.8q-.65-.3-1.25-.85-1.05-1.1-1.05-2.55 0-1.5 1.05-2.65 1.1-1.05 2.6-1.05t2.55 1.05q1.15 1.15 1.15 2.65 0 1.45-1.15 2.55-1.05 1.1-2.55 1.1-.7 0-1.35-.25zm-2.75 1.95q.45.4.9.7 3.8 2.7 7.95 1.6 5.1-3.9 4.6-8.85 22.45-2.7 25.55-8.5-.35-5.1-3.1-6.55-6-2.25-14.45-3.8-9.95-.05-19.95 1.5l-54.4 14.25-8.6.65q-5.2 1-7 8.2l-6.65 7.9 5.1 3.95 2.6-2.65 3.75-3.8q7 4 11.8 0 2.6-3.4 2.3-8l51.1-12.15q8.85-2.15 17.7-1.95l6.95.9 7.15.85m-7.15-.85l-23.55 5.3q-4.5 2.25-6.35 6.55l-20.35 20.9.05.3.9 8.25v.25l23.15-24.95m-64.1-3.85q1.15-1 2.65-1 1.45 0 2.55 1 1.1 1.15 1.1 2.7 0 1.5-1.1 2.55-1.1 1.1-2.55 1.1-.75 0-1.4-.25-.65-.25-1.25-.85-1.05-1.05-1.05-2.55 0-1.55 1.05-2.7zm-13.2 22.05l-4.7-3.75m-6.5 79.35l1.5-1.45m37.35 29.65q27.75-3.95 40.9 19.95-2.3.9-8.7-2 6.3 8.8 6.7 19.95.6 12.5-6.5 20.55-7.3 8.2-18.1 7.1-9.7-1-17.1-9m-27.9 12.15q-.25 11.85-7.3 19.9-8.15 9.1-20.15 7.9-12.05-1.3-20.85-12.05-8.95-10.55-9.55-24.45-.2-4.6.6-8.7m-47-32.85l-7 2.2q1.25 1.4 2.45 3 7.35 9.8 7.9 22.4.55 12.6-6.15 20.8-6.55 8.1-16.55 7-10.1-1.1-17.4-10.85-7.35-9.7-7.85-22.35-.55-11.95 5.4-19.85.3-.5.65-1 6.7-8.2 16.7-7.05 4.65.5 8.7 2.9-17.1-12.1-33.7 3.95 8.85-13.3 19.9-14.15m48.25-17.85l5.4-6.5M59.2 218.8l-8.3-9v-2.85m67-.3l3.45 3.6-3.8 4.1M149 165.2l6.15-6.3m-1.5 9.95l7.8-7.9m-4.7-3.75l-.5.5-1.1 1.2m-6.15 6.3l4.65 3.65m-1.9 66.25l-3.1-3.3m-4.05-2.05l2.05 2.55.25.25q.5.1 1.75-.75m-1.95.65l.2.1 1.45 1.8m-2 5.5l-2.35 2m-13.95 24.8q-4.9-2.8-9.6-4.5 1.7 1.5 3.3 3.4.25.35.45.6m20.75-27.8l-1.25-1.55-2.45 2 2.75 3.05m4.85-6.9l-3.9 3.4m-1.25-1.55l-2.75-4.4 3.65-2.65m-31.15-27.05l4.45 3.95-21.5 22.7.75.75 3.2 2.7 17.2-18.45m-66.65-7.4h6.35l5.9 8.4m33.25 14l-3.7-4.05 13.8-15 6.95-7.6M81.9 244.65l4.25 3.25m1.4-1.45l2.95 3.95m4.2 5.3q14.45-6.25 25.6.4m-19.5 7.3q2.25-1.05 5.15-.75h.4q3.25.35 6.1 2.25.05.05.15.1l.3.2q2.4 1.7 4.5 4.45.35.55.8 1.15 1.65 2.45 2.65 5.25.3.9.6 1.85.15.55.25 1.1m8.45.25q-.3-1.65-.8-3.25-1.6-5.3-5.15-9.85m-3.75-4q-4.1-1.45-8.05-2.1-7.75-1.4-14 .3M83.9 250.3l2.35 2.95 4.25-2.85m-7.2.5l-4 4.25m11.35 11.25l.4-.6q.65-1.2 1.65-2.3.05-.15.2-.25m-6.75-15.35l-1.65 1.8m6.15 16.7q-1.15 2.05-1.9 4.4-1.3 4.05-1.05 8.9.1 1.8.35 3.55.25 1.65.7 3.25 1.65 6.05 5.9 11.15 0 .05.1.1l.1.2q.75.9 1.5 1.7.5.45.95.95 1.45 1.4 3 2.45.85.6 1.7 1.1m3.5 1.15q.75-1.2 1.65-2.25.25-.45.65-.85-.15-.05-.25-.05-.2-.05-.45-.05-1.2-.25-2.35-.65-1.05-.45-2.05-1-.85-.5-1.65-1.1-1.1-.85-2.15-1.9-.35-.35-.65-.75-.7-.8-1.3-1.6l-.6-.8q-.9-1.3-1.65-2.7-1.5-2.75-2.15-6-.15-.45-.2-.8-.35-2-.45-4.1-.05-.9 0-1.75.05-3.8 1.15-6.85.85-2.25 2.3-4.25l.1-.2q.15-.25.4-.5.25-.3.5-.55m4.5 13.2q-.3.65-.4 1.6v.65q.1.6.25 1.2.2 1.1.7 2.05.3.55.6 1.05.45.55.9 1l.1.1m.1-10.5q-.15.05-.25.1-.7.35-1.15 1.05-.1.05-.15.15-.55.7-.7 1.55m2.15 7.65q1.05.85 2.25.95h.15q.7.05 1.4-.1.65-.25 1.2-.8.25-.2.4-.35.55-.7.8-1.55.1-.3.15-.55m-5.2-8.35q-.6 0-1.05.25m7.4 11.75l-.7.7-1.65 1.5-.7.6-1.1.95-.4.35-2.7 2.4-1.45 1.3q1.05-.55 2.05-1 1.2-.6 2.3-1.05 1.35-.55 2.65-1.05.25-.1.5-.15 1.55-.6 3.15-.95.45-.15 1-.25 2.55-.65 5.05-.95.45-.05.9-.05 1.2-.1 2.4-.1 4.2 0 8.2 1.2 6.5 1.95 12.2 7.15 4.95 4.5 9.25 11.4l.9-.25 2.85-.8m.45-.15l2.8-.8 1.3-.45q-.5-1.1-1.1-2.15-.6-1.1-1.25-2.1-1.1-1.6-2.3-3.1-3.8-4.55-9.25-7.95-.25-.2-.45-.35l-4.8-2.6q-1.5-.7-3.1-1.35-3.2-1.3-6.75-2.3-1.8-.55-3.7-1.05m-6.75 9.1q-2.15.55-4.45 1.5-.05.05-.1.05m-3.9 2.45q.75-.5 1.55-1 .7-.5 2.35-1.45m6.05-5q-.15.6-.35 1.2v.1q-.1.15-.15.4l-.7 1.7q3.8-.95 7.35-.55.75.05 1.45.2.35-.9.6-1.85m-9.7 2.25q.15-.05.3-.05m10-12.45v.35m.05.65q.05.5.05 1.05.05 1.2.05 2.4M59.2 218.8l3.95-3.45m-15.75 83.2q1.7 3.75 2.4 7.95.2 1.8.3 3.7.1 3-.25 5.65-.7 4.5-2.85 8.05-.7 1.15-1.5 2.15-1.75 2.15-3.8 3.5-3.2 2.05-7.15 2-.75 0-1.5-.15-3.55-.4-6.65-2.2-2.9-1.85-5.4-4.85-.5-.65-.95-1.3-2.05-2.65-3.3-5.65-1.2-2.5-1.8-5.25-.75-2.95-.85-6.1-.05-1.35 0-2.6.2-5 2-8.9.85-1.95 2.05-3.65.25-.35.55-.8.65-.8 1.35-1.5 3.9-3.9 9.3-3.95.3 0 .7.05.55 0 1.15.05 2.3.25 4.4 1.15 3.9 1.6 7.15 5.4.75.85 1.45 1.8.9 1.2 1.65 2.5.85 1.45 1.55 2.95zm-14.3 7.05q.55 1 .8 2.2m45.4-52.65l-3.85-2.8M41 280.4q3 2.1 5.95 5.1l.2-.1m7-2.2l-3.55-3.15q-12.75-10.65-23.4-9.85m4.8 33.7l.3.4q.5.65.8 1.3m-5.2-3.8q.25-.05.6 0 .6.05 1.1.3m-6.2 5.6q0-1.65.5-2.9m-.3 5.05q-.15-.8-.2-1.65v-.5m.5-2.9q.3-.6.65-1.1.05-.2.15-.3.4-.45.85-.8 1-.8 2.35-.8m1.6 14.05q-.25 0-.55-.05-1-.1-1.9-.6-1-.7-1.9-1.9m-1.55-3.45q.15.85.5 1.7.4.9 1.05 1.75m8.25-.05q-.3.5-.65.9-.6.75-1.3 1.2m2.6-4.2q-.2 1.15-.65 2.1m.5-5.45q.15.8.2 1.65.05.9-.05 1.7m-2.6 4.2q-.9.5-1.95.5m.1-13.75q1.3.45 2.4 1.8m110.25 10.05q.05.1.15.25.55.95 1 1.9 1 1.85 1.65 3.8.1 0 .1.15.4 1.1.7 2.3.35 1.15.6 2.35v.15q.35 1.65.55 3.35.1 1.25.15 2.55.05 1.75 0 3.4-.2 3.9-1.3 7.35-1.3 4.1-3.85 7.35-.4.45-.75.9-2.85 3.05-6.25 4.4-3.4 1.3-7.35.85-.5-.05-1-.15-6.2-1.05-11.1-6.3-1.4-1.35-2.65-3.1-1.7-2.2-2.9-4.6-2.05-3.85-3-8.15-.75-3.15-.9-6.6-.05-1.25 0-2.45.05-1.85.3-3.55.2-1.5.55-2.85.35-1.4.8-2.65.15-.55.4-1 .05-.25.15-.4.95-2.15 2.3-4.05.15-.2.25-.35.2-.4.6-.85.4-.55.85-1 1.35-1.55 2.9-2.65 4.1-2.85 9.45-2.55h.35q.25 0 .6.05 3.35.45 6.4 2 1.2.65 2.45 1.5.9.6 1.85 1.45.7.65 1.45 1.35 1.2 1.3 2.35 2.75.2.25.35.45.5.7 1 1.45.45.55.8 1.2zm-17.6-12.2q-.2.1-.3.25-.4.4-.85.8m-2.7 18.45q1.15-.7 2.65-.55.2.05.5.15m-3.15.4q-.85.45-1.5 1.3-.15.15-.2.25-.7.95-1 2.05-.35 1.05-.4 2.15v.9q.05.8.2 1.6.3 1.5 1 2.9.3.65.8 1.3.55.75 1.2 1.3 1.5 1.25 3.25 1.4.1 0 .15.1.95.1 1.8-.2.95-.3 1.7-1.05.3-.25.55-.6.7-.85 1.05-1.9.35-1.1.45-2.4v-1.05q-.05-.7-.1-1.3-.3-1.5-.9-2.8-.4-.85-.95-1.65-.15-.1-.2-.2-.05-.15-.1-.2-.5-.55-1.05-1.05-1.25-1-2.6-1.25m28.4-10.4q5.55 9 6 20 .05 1.5.05 3m-46.1-26.5h.9q2.75-.15 5.25-1.05h.05m-7.7-6.65q.45-.45 1.05-.85m-4.05 3.8q.1-.15.2-.25 1.35-1.5 2.8-2.7m-7.05 9q.6-1.1 1.25-2.15.25-.45.5-.8m-2.75 5.2q-.25.65-.5 1.4-.6 1.75-1 3.7-.05.15-.1.45m1.6-5.55q.5-1.15 1-2.25m19.75-5.45q-2.35 2-5 3.1m10.9-11.9q6.95 1 12.8 5.3m-61.35-53.45l1.05-1.2m126.25 30.85q7.95 4.8 13.15 7.2m-43.85 4.15q1-3.2 2.7-5.95.85-1.55 1.95-2.75.3-.55.8-1.1 2.25-2.5 4.8-4 .65-.45 2.1-1.3.95-.45 1.9-.7m-10.5 25.85q-.05.95 0 1.9.1 3 .8 5.95m-.8-7.85v-.3q0-1.5.25-2.8m-4.5-4.95q.15-1.05.5-2m4.75 3.15q.2-.8.45-1.55.95-2.85 2.75-5.2.2-.35.55-.75.65-.85 1.35-1.5 1-.95 2.05-1.7 1.2-.85 2.45-1.4 2.9-1.15 6.3-.9h.55q3.35.45 6.35 2.15m6.95 6.4q.45.55.9 1.2 2.7 4 4 8.7 1 3.5 1.1 7.5.1 1.6 0 3-.15 3.55-1.1 6.6-1.25 3.65-3.55 6.55-.3.45-.6.85-2.6 2.8-5.6 3.95-3.05 1.2-6.55.8-.55-.05-.95-.1-5.3-.95-9.4-5.05m2.35-23.25q-.4.6-.65 1.35-.25.9-.35 2v.75q.1.75.2 1.4.2 1.4.85 2.6.35.6.75 1.2.5.7 1.1 1.15 1.1 1 2.4 1.25m-13.4 1.45q.55 1.25 1.2 2.55.2.4.45.85m-4.7.35q-3.55-6.6-4.1-14.3-.05-.65-.1-1.35-.1-2.65.15-5.1m4.05 20.75l.7 1.2q0 .05.05.1m2.3-5.05q-.9-2.3-1.45-4.7"/><path id="d" stroke="#6B6D61" stroke-width="1" stroke-linejoin="round" stroke-linecap="round" fill="none" d="M151.75 235.1l15.3-14.8m5.05 42.85l-21.85-26.6m36.05 84.75l-27.9 12.15M57.55 300.7q-.7-.1-1.45-.15l-1.3-4.25q1.35.05 2.75.15m0-17.05l-3.4 3.8m-1.55-5.85l22.85-25m5.4-6.5L59.2 218.8m95.95-59.9l.55-.65.55-.55m2.75 63.7v.05l-8.35 8.45q-1.15 1.25-2 1.9m-20.75-14.3l-.1-.05m9.75 2.25l.05.1m9.05 12.5l.05.15m3.55 4.1l-1.4-1.6M124.1 258.8l19.9-16.95m24.2 40.1l6.2-1.85q4.55-3.05-1.95-10.7m-3.1-3.6l-23-25.95-1.4-1.5m-4-5.95l-13.05-14.9m9.7 2.3l7 9.95m-81.45-14.4l20.8 27.05 12.35-13 .1-.05m-8.85 17.1l12.8-13.65m-16.4 9.6l-2.05 2.25m4.25 3.25l1.4-1.45m2.95 3.95l4.2 5.3m46.55-16.9l-20.95 17.3m-23.15-26l-.85-.7m5.25 34.95l1.7 2.1 2.3 3 .3-4.95.1-1.85m-5.15.75l.75.95m26.8 14.6l1.8.3m-31.75-18.9l2.4 3.05m12.1 1.8l-.3.7m0 10.4l5.6-5.5m-5.6-4.9l-3.6 7.85 2.7 3.5.9-.95m0 2.1l.55.65m7.7-.9l-2.45.9m-39.1-23.9L59.15 277.6m31.35-18.75l-4.25-5.6m19.25 52.05q-1.75-.6-3.5-1.15m-8.4-41.25l1.75 2.35 1 1.35 1.7 2.15m-4.45-5.85l-3.1-4.05m4.2-3.15l3.7 4.65m-6.5 18.6l4.1 1.15m-.2-5.3l-2.75-2.7m2.95 8l4.45 1.3m.4-1.6l-5.05-5m4.9 8.45l-4.55 1.3m5.25.75l-2.25 2.2-2.8 2.55m6.55-2.7l-.65 1.6m-9.7-3.35l1.15-.35 2.45-.7m3.25 11.8l.85-2.25 2-5.15m6.3-6.45l-4.4-5.8m-1.05-1.35l-.6-.85.35 2.55M94.7 291.6l1.65-1.55m25.1-12.15l-.6.25m-9.15-.9l.9 1.15m-8.45-1.7l-1.05-1.35m6.5 10.45l-.4-.2m-1.2 1.9l1.8 1.9m-4.4-1l.3 2.2.2 1.7.05.5m3.35.45l.15.35 1.3 2.6m1.7-3.9l2.35 2.5m-8.65-.35l.25 2m1.75-5.55l-1.35-2.6m8 6.5l1.05 1.1m-4 2.5l-1.1-2.2m10.7-4.05l-2.05-1.1m-16.9-16.55l-4.45-5.75 3.65 9.35m3.85-8.65l3.45 4.3m21.5 9.1l.15.05 6.85 1.1 8.3 1.3 7 1.15 7.45-2.15-5.15-.85-9.3-1.6-8.3-1.4-7.35-1.2m-1.1 3.4l1.45.2m15.3 5.65l7-2.05m11.8 2.85l-4.6-1.2-4.9 1.7-9.25 3.15M140.6 290l5.2-1.5M33.1 305.6l14.3-7.05m-13.5 9.25l15.9-1.3m-20.45-21.85l-3.6 1.35q.5 4.1 2.15 6.95 1.45 2.3 3.75 3.8 2 1.35 4.8 1.95 4.5.9 10.95-.15m-14.15-6.1l2.35-6.55m10.25 9.7q-3.55.05-6.35-.5-4-.8-6.25-2.65-3.3-2.75-3.2-7.75m29.1-7.1l-1.6 1.8m-7 .2l2.05-2.25m34.05 22.95q-2.15-.5-4.4-.85m-5.7-1q-.3-.05-.7-.1m3.05.5q-1-.15-2-.35m-37.4-3.4l3.25-3.8m33.1 7.05l-3.9-.5q-1-.15-2-.25-2.4-.3-4.8-.5-.4-.05-.9-.1-3.3-.35-6.7-.55m18.85 7q-2.25-.4-4.45-.8-1.1-.15-2.15-.3m6.6 1.1q1.3.25 2.5.5m5.15 1l3.5.8m-30-5.05q3.9.45 7.6.95 2.35.35 4.65.7M32 303.9l4.45-5.2m-6.85 3.4l2.05-5.35m-7.75 8.05l-7.8-10.25m7.3 13.15l-9.3-4.25m11.45-.85l-5.5-14m7.85 13.2v-8.85m-.85 22.25l-.65 14m-1.25-15.9L21 324.35m2.6-14.5l-8.65 2.3m9.15-.6l-7.35 5.85m14.7-2.05l10.25 14.2m-8.3-16.3L47 323.9m-12.95-12.75l15.8 4.7m-20.35 0l5.05 15.7m107.7-17.6q-.6-.1-1.1-.15-.35-.05-.65-.05-2.4-.4-4.85-.8-2.25-.4-4.4-.8l-4.8-1q-.95-.25-1.95-.45-2.75-.65-5.5-1.35-.35-.1-.6-.2-2.05-.5-4.15-1.1l-.35.65-.7 1.25-.95 1.7-.45.65q1.95.5 3.9.95 1.9.5 3.8.95.05 0 .25.1l4.5 1q2.2.45 4.3.9.35.05.7.15 3.75.75 7.25 1.35l2.6.4q2.3.4 4.5.65l-.65-2.4-.55-2.15m15.75-.05q.45 1 .85 1.95.55 1.25 1.1 2.6m-3.25-7.15q.7 1.3 1.3 2.6m-2.5-4.65q.25.35.5.8.3.55.7 1.25m3.25 7.15q.35 1 .75 2m7.9-1.05l.55-.2m-34.85-14.15l-.65 1.35-.75 1.55m-8.3-1.55l-.1 1.4m7.25 2.55l1.15-2.4m-8.05-6.45l-.1 1.55m-.25 4.75l-.15 2.65m.4-7.4l-.15 3.35m-.65 11.6l-.15 2.6m-3.35-.95l.15 1.3m7.05-1.85l1.45-3m4.15 4.35l3.1-3m-5.25-5.55l.65-1.55m-7.65 4.7l-.15 2.95m-3.95-1.15l.45 2.8m19.9-6.15l.1-.1.85-.9m-8.25 8.2l.2-.25m12.45 1.65l-3.45 1.25-6.05 2.05m-3.15-4.7l-3.05 2.95-1.3 1.3m.9 2.8l6.6-2.35m-6.95 7.1l16.45 8.75m-16-11.15l17.3 3.8m13.7-13.45q.3 1.05.55 2l1.6-.65m.6-.25l5.15-2.15m-42.2 2.45l1.25-2.75m-14.6-12.4l.7 1.75m4.55-2.8l.5 3.05.05.4m-12.6-12.9l.15 1.1.4 3.1m.15 1.45v-.1l-.15-1.35m4.15 17.3l-3.35-3.35m10.8 5.95l.05.3.7 1.7m.45-8.25l.4 2.8m-3.35-1l1.75 4.45m-3.15 1.7l-3.6-3.6m3.9-5.4l.85 2.25.25.6m-5 2.55l-.7-.7m-7.35-9.7l-1.65 1.45q-2.45-.8-5-1.5m2.3-4.85q-1.55-.4-3.05-.8-1.35-.35-2.75-.75m-6.05 3.95q1.65.4 3.2.75 2.85.7 5.6 1.5.4.1.75.2m-3.5-6.4q-3-.7-6.05-1.35-.45-.1-.9-.15m31.45 24.55l-2.7-2.6m2.5 7.25l-10.9 3.2m10.7-5.7l-11.6-3.35m12.8 8.75l-8.9 8.45m-8-36.7q-1.25-.4-2.6-.8M120.9 335l-5.35 13.55m8.75-12.05l2.35 18.35m-.55-18.55l8.9 17.85m-7.2-18.9l13.45 14.5m-62.35-45.8q2.6.5 5.15 1m-1.8-5.5q-1.65-.35-3.35-.6m20.5-2.5l-.5 1.1m90.2-32.7q6.25 1.95 11.5 5.1 4.1 2.45 7.55 5.65m-16.45-4.45q-2.55-.9-5.6-1.65m-8.35 0l3.3 6.1q-.05 4.65-2.9 6.35l-5.95 2.1m19.5-12.9q9.6 3.2 13.3 8.1.65.9 1.2 1.9 1.5 3.05.95 6.7-1.35 4.95-6.7 5.5-1.5.15-3.25 0-1.45-.15-3.1-.5-1.05-.2-2.2-.5l-.25-.05-6.8-1.55-2.65-.65-5.25-1.15-5.4-1.3-3.9-.9m-.35-1.05l-7.3 2.5m4.6-5.05l3.6-1.1m-3.6 7.35l6.95 1.85 4.8 1.3 5.1 1.35 1.9.45.1.05 6.65 1.55 2.45.45 1.8.25 7.35 1.15.15.05 1.05.2q6.8-1.35 8.2-7.55.4-1.3.6-2.45.2-1.25.25-2.4.05-5.35-3.8-10.05m-24.7 28.8l-1.45.45m1.45-7.45l-1.9-.6-.35-.1m-9-12.65l-.65.2-4.25 1.45m17.55 5.05l-2.2-2.2m4.65-7.45l4.35 11.2m.15-14.3l2.3 14.85m4-15.75l-.9 16.25m-7 26.3l-3.9 1.75m26.55-34.55l-1.15 1.2m-5.5-6.9l-5.75 12.2m2.5 7.05q.65 1.3 1.15 2.65l13.85 3m-13.85-3q.7 1.75 1.3 3.55l11.45 6.05m-11.45-6.05q.9 2.95 1.4 5.8l-.9.45 6.8 7.2M196.85 308l2.1-.9q-1-5.3-4.6-10.55m7.4 1.3q.2.25.3.5.45.95.9 1.95l13.9-4.85m-15.15 2.25q.05.05.05.15l.1-.1m-10.1 4.05l-8.3 2.5m9.15.1l-7.95 7.6m-1.2-14.7l8.1 2.35m10.75 14.65l-3.8 1.65 1.1 8.65m-1.1-8.65l-8.3 3.6m6.65-11.55l-3.4 1.4-8.35 3.45m9.35-6.1l-1 2.65m-13.05 5.4l-2.7 1.15-2.35.95-2.05.9m7.1-3l.75-.3m-11.85 4.95l4-1.65m-10.3 4.25l.6-.25m17.55-7.3l3.95-1.65m22 11.05l-4.8-9.6 3.6-1.55m-14-15.1l-1.8-1.8m-29.85-11.55l4.35-1.25"/><path id="e" stroke="#171C3E" stroke-width="1" stroke-linejoin="round" stroke-linecap="round" fill="none" d="M212.75 155.55q-3.8 14.5-43.4 4.25-3.05-.4-5.95-.7m7.9-7.95q27.45.8 41.45 4.4 1.2 1.55 1.95 3.65m.9 8.25q-.2 3.65-1.2 8.05-4.3 19.05-11.85 34.3-15.35.6-30.25 8.85l-4.9 1.55q-.046.007-.1.025-.04.006-.075 0l-.15.025M50.9 206.95l-12.6-2.55q-5.9-4.1-8.7-9.05-7.65-13.2-8.4-30.25-4.75-1.1-4.05-6.6 6.55-24.3 6.8-52.95-.5-7.05 6.6-11.55 7.7-2.2 15.9-11.65 2.3-2.85 4.75-6.25 3-3.9 8.2-6.6 7.95-4.15 15.2-1.05 8.65 4.15 25.55-.4 1.6-.5 3.25-.95 4.9-1.1 10.55-.85 22.25 2.4 24.75 16.4-.25 20.15-10 48 8.15 13.4 6.2 20.45 15.05-.3 27.7-.15m51.8 24.55q-3.4 4.75-13.8 6.1-27.25-.05-47.5-5.4-3.1-.15-6.05-.35m-28.85 38.7q.4.15.9.3l4.85 1.55q2.4.6 4.75 1.25l7.95 1.8q12.5 2.5 22.35 1.95m.35 0l6.3-.85q.667-.167 1.425-.3M68.25 133.7q2.85-22.6 13.4-50.7 7.65-11.2 18.5-14.95m-27.8 66.25Q87.1 71.3 114.6 73q10.95 2.05 15.45 7.9 2.95 11.2-5.8 48.75-.25 1.25-.6 2.45l5.05-1.45m-66.05 6.1Q49.55 121.3 46.1 106.3q-3-12.85 1.4-23.25 1.35-3.3 3.7-6.95m17.05 57.65q-.15 1-.2 1.95 2-.8 4.3-1.4 30.95 2.45 51.3-2.2m-55.4 1.65v-.05m-.05 34q-6.4 5.75-11.9-.85-1.05-1.15-2-2.75-4.6-13 1.85-20.75 2.7-3.2 7.05-5.5 2.2-1.2 4.85-2.15m66.85 15.4q-20.1 2.5-44.7 3.15-10.6 1.25-17.05 7.25-2.55 4.05-4.95 6.2 21.4 4.75 71.1 7.75m16.4-17.2q-25.85-2.65-40.65-1.85m-91.1-50.85q.9 13.8 31.65 37.4M21.2 165.1l34.4 2.3m50.35 42.7q-30.25-3.8-55.05-3.15"/><path id="f" stroke="#5C5F54" stroke-width="1" stroke-linejoin="round" stroke-linecap="round" fill="none" d="M163.6 149.85l-1 1.1-5.85 6.25m4.7 3.75l1.95-1.85 5.3-5.3m-21.65 22.05l-29.15 30.8M149 165.2l-9.7 10.25m14.35-6.6l-6.6 7m-7.75-.4l-25.85 27.25"/><path id="g" stroke="#393A34" stroke-width="1" stroke-linejoin="round" stroke-linecap="round" fill="none" d="M148.85 234.95l-.5-.6-1.65-1.9M84.5 249.7l-.6.6-.6.6"/><path id="h" stroke="#171717" stroke-width="1" stroke-linejoin="round" stroke-linecap="round" fill="none" d="M172.1 263.15l15.15-.55 1.85 2.15M47.9 277.4q-10.75-8.7-20.7-7.2m96.9-11.4q1.45 1.2 3.05 3.5.95 1.4 2.9 4.35m42.4 2.75h-3.1v-3.6m-41 13.15l-6.65.05m-3.3.05h-5.25m-20.25-15.8q-4.35 1.75-7.8 1.1l5.4-5.5m3.1 4.05q-.4.15-.7.35m15.65 19.25l.8 2.55M121.7 279h-.85l-2.45.05m-9.05 6l.25.75.9 2.9q1.2-.55 2.55-1.05 2.8-1.05 6.2-1.65 1.45-.25 3-.35.05-.05.2-.05 2.2-.25 4.6-.3.35-1.6 2-2.65.6-.45 1.55-.75 0-.05.05-.05l-2.3-2.9m-15.2.1l-4.6 3.45m11.75-26.4q1.95 1.1 3.8 2.7m-96.9 11.4q-10.35 1.55-19.9 14.15m40.6-6.95q1.3 1 2.65 2.2 1.75 1.65 3.6 3.6m134.95-18.45q-2.75 1.45-3 4.65h-8.35m-5.65-6.25l-2.75 2.65m3.1 3.6h5.3"/></defs><g><use xlink:href="#a"/><use xlink:href="#b"/><use xlink:href="#c"/><use xlink:href="#d"/><use xlink:href="#e"/><use xlink:href="#f"/><use xlink:href="#g"/><use xlink:href="#h"/></g></svg>