<svg xmlns="http://www.w3.org/2000/svg" width="900" height="450" viewBox="0 0 900 450"><path fill="none" stroke="#191919" stroke-width="4" stroke-linecap="round" stroke-linejoin="round" d="M513.469 274.983l62.811-25.659 26.451-10.898m-70.042 60.235l43.59-49.337m-265.607 19.419v2.871l68.656-13.968.892 7.728 6.341-1.288m-24.868 30.018l.1-12.187-24.272-7.43.099 25.361 1.486-.395 22.587-5.349 68.755-16.546-20.508 7.135-48.445 23.183-.099 6.339m-23.777-14.365v9.71l23.976-8.322.099-6.341-22.588 4.559m70.834-14.763l-48.346 16.544-.1 6.639-23.975 11.393.099-9.709m24.075-15.456v.792l32.99-6.638m-57.064 11.592l-27.244 5.449-.099 3.863m-11.096-1.584l11.195-2.279.297-24.965-16.445 3.368m6.44-10.106l10.005-1.981v8.72l26.849-5.846 24.371-5.351 18.328-3.764 2.08 22.885-20.507-6.341.099-12.78"/><path fill="#1F1F1F" d="M396.269 135.988l.099-.891-58.451-2.081-45.077 60.631v67.764l89.46 26.848.1-33.585c-7.596-25.559-2.973-65.121 13.869-118.686z"/><path fill="#383838" d="M499.6 236.346v2.874l7.331-2.973-7.331.099m-37.746 18.328L499.6 239.22v-2.874c.197-34.938-18.625-54.223-56.471-57.856l2.477-40.52.099-1.089-49.337-1.783-.099.891c-16.842 53.564-21.465 93.127-13.87 118.686h79.455z"/><path fill="#1D1D1D" d="M499.6 239.22l4.26 4.854-4.26-4.854-37.746 15.454H382.4l-.1 33.585h77.968L563.4 248.434l4.854-107.392-122.55-4.161-.099 1.089-2.477 40.52c37.846 3.633 56.668 22.917 56.471 57.856l7.331-.099c2.312-31.702-4.228-64.098-19.616-97.187 15.389 33.089 21.928 65.485 19.616 97.187l-7.33 2.973z"/><path fill="none" stroke="#2C2C2C" stroke-width="2" stroke-linecap="round" stroke-linejoin="round" d="M382.399 254.674h79.454L499.6 239.22M396.368 135.097l49.337 1.783m-49.436-.892c-16.842 53.564-21.465 93.127-13.87 118.686l-.1 33.585h77.968L563.4 248.434l4.854-107.392-122.55-4.161M499.6 239.22l7.331-2.973c2.312-31.702-4.228-64.098-19.616-97.187m-90.947-3.963l-58.451-2.081-45.077 60.631v67.764l89.46 26.848"/><path fill="none" stroke="#191919" stroke-width="2" stroke-linecap="round" stroke-linejoin="round" d="M499.6 239.22l4.26 4.854"/><path fill="none" stroke="#272727" stroke-width="2" stroke-linecap="round" stroke-linejoin="round" d="M499.6 239.22v-2.874c.197-34.938-18.625-54.223-56.471-57.856l2.477-40.52"/><path fill="none" stroke="#191919" stroke-width="6" stroke-linecap="round" stroke-linejoin="round" d="M596.984 241.004v-35.072l-11.194 8.421m11.194-8.421l23.184-17.337-8.322-5.449-45.572 10.6m18.03 55.48l28.037 2.477 15.059-58.55-7.231-4.557.594-.397m29.819 19.813l-23.183-14.86m52.705-31.207l-.595 16.545m-67.168 73.212l27.839 2.774"/><path fill="#585951" d="M227.255 375.243h.298l-.495-.298.197.298m17.337-158.017c-1.717-.065-3.302 0-4.755.198l17.833 2.378c-4.162-1.453-8.52-2.312-13.078-2.576m-4.755.198c-.396 0-.858.066-1.386.199-12.946 1.386-24.834 8.552-35.666 21.499-7.397 9.181-12.979 19.516-16.743 31.008-2.378 7.53-3.996 15.555-4.855 24.074-1.122 9.842-.957 19.087.496 27.74 1.387 10.435 4.689 19.945 9.907 28.532 8.916 15.189 20.739 23.348 35.468 24.47h5.349c13.671-.793 26.287-8.157 37.845-22.093 12.549-14.992 19.913-33.32 22.093-54.984 1.189-11.029.792-21.266-1.189-30.712-1.849-9.311-5.02-17.898-9.511-25.758-6.605-10.964-14.596-18.162-23.975-21.596l-17.833-2.379m-22.191 42.303c6.274-7.529 13.143-12.086 20.606-13.671a33.936 33.936 0 0 1 6.34-.396c9.974.263 17.932 5.481 23.876 15.653 2.773 4.623 4.788 9.775 6.043 15.455 1.189 6.406 1.486 13.374.892 20.903-1.519 13.936-6.241 25.692-14.167 35.269-7.993 9.841-16.876 14.63-26.65 14.365-10.105-.331-18.129-5.646-24.074-15.95-5.878-10.104-8.157-22.159-6.836-36.16 1.388-13.871 6.044-25.693 13.97-35.468m34.674 21.696c-2.312-4.028-5.416-6.108-9.313-6.24-1.717-.065-3.236.197-4.557.792-2.246.858-4.327 2.443-6.242 4.756-2.443 2.972-4.227 6.473-5.349 10.501v.692c-.133.925-.231 1.95-.297 3.073-.331 2.84-.264 5.515.197 8.024.727 2.312 1.52 4.425 2.378 6.341 1.717 2.707 3.731 4.523 6.043 5.448 1.057.461 2.279.693 3.666.693.727.065 1.552.032 2.477-.1 2.509-.527 4.755-1.816 6.736-3.863.529-.397.958-.958 1.289-1.684 3.169-3.766 5.02-8.456 5.548-14.069.594-5.547-.264-10.334-2.576-14.364m-13.077-64.296l-.1-.1-.692.595.792-.495m484.156-36.854c-1.059 0-1.981.033-2.775.099-8.388 1.321-16.049 7.827-22.983 19.517-4.822 8.322-8.454 17.734-10.897 28.235-1.52 6.736-2.61 13.969-3.271 21.695-.659 9.048-.495 17.403.495 25.065.926 9.444 3.006 18.096 6.242 25.955 5.944 13.805 13.605 21.104 22.984 21.896h.99c.396 0 .694.031.893.099.396 0 .858-.033 1.387-.099a36.411 36.411 0 0 0 4.458-.694c7.266-2.313 13.936-8.687 20.012-19.12 8.125-13.54 12.879-30.15 14.267-49.833.66-9.906.43-19.121-.693-27.641-1.189-8.388-3.236-16.148-6.143-23.281-6.011-14.266-14.002-21.564-23.975-21.894l-.991.001m-16.346 38.34c4.028-6.804 8.421-10.898 13.175-12.285a14.853 14.853 0 0 1 4.162-.396c6.473.264 11.623 4.921 15.454 13.969 1.784 4.359 3.038 9.114 3.766 14.266.923 5.745 1.188 11.987.792 18.725-1.057 12.748-4.128 23.446-9.213 32.098-5.085 8.784-10.866 13.111-17.337 12.979-6.409-.331-11.56-5.152-15.457-14.466-3.896-9.048-5.317-19.945-4.259-32.693.792-12.68 3.763-23.414 8.917-32.197z"/><path fill="#3F403A" d="M202.884 216.83c-12.813.792-25.13 8.618-36.953 23.479-12.153 14.929-19.154 33.156-21.003 54.688-1.783 21.464 1.883 39.825 10.997 55.082 9.379 15.191 21.664 23.183 36.854 23.975 3.962.396 15.456.793 34.476 1.189l-.197-.298c-14.729-1.122-26.552-9.28-35.468-24.47-5.218-8.587-8.52-18.098-9.907-28.532-1.452-8.653-1.618-17.898-.496-27.74.859-8.52 2.477-16.544 4.855-24.074 3.765-11.492 9.346-21.827 16.743-31.008 10.831-12.946 22.72-20.112 35.666-21.499-16.314-.859-28.17-1.123-35.567-.792m524.774 21.399c-1.518-3.634-3.566-5.481-6.142-5.547-.595-.068-1.254.065-1.981.396-1.719.594-3.302 2.112-4.757 4.557-1.65 2.707-2.772 5.846-3.366 9.412v.692c-.132.925-.266 1.915-.397 2.972-.199 2.642-.099 5.087.297 7.332.33 2.047.826 3.896 1.485 5.547 1.322 2.973 2.906 4.757 4.757 5.351a5.03 5.03 0 0 0 1.387.197c.396.066.958 0 1.684-.197 1.52-.396 2.973-1.519 4.359-3.369.264-.396.496-.856.693-1.387 2.181-3.499 3.401-7.794 3.666-12.879.397-5.02-.164-9.377-1.685-13.077m-7.034-57.857a33.944 33.944 0 0 1 2.775-.099c-12.417-5.284-23.216-6.968-32.397-5.052-16.246 3.236-28.334 11.59-36.26 25.064-8.123 13.407-12.912 29.919-14.365 49.534-1.386 19.616 1.949 38.111 10.006 55.479 8.125 17.238 29.062 23.051 62.812 17.438-9.379-.793-17.04-8.092-22.984-21.896-3.236-7.859-5.316-16.511-6.242-25.955-.99-7.662-1.154-16.018-.495-25.065.66-7.727 1.751-14.959 3.271-21.695 2.443-10.501 6.075-19.913 10.897-28.235 6.933-11.692 14.594-18.197 22.982-19.518z"/><path fill="#C9C6B7" d="M238.252 246.056c-7.463 1.585-14.333 6.142-20.606 13.671-7.926 9.775-12.582 21.598-13.97 35.468-1.32 14.001.958 26.056 6.836 36.16 5.944 10.304 13.968 15.619 24.074 15.95 9.774.265 18.658-4.524 26.65-14.365 7.925-9.576 12.648-21.333 14.167-35.269.594-7.529.297-14.497-.892-20.903-1.255-5.68-3.27-10.832-6.043-15.455-5.944-10.172-13.903-15.391-23.876-15.653a33.936 33.936 0 0 0-6.34.396m4.755 29.127c3.897.132 7.001 2.212 9.313 6.24 2.312 4.03 3.169 8.817 2.576 14.365-.528 5.613-2.378 10.304-5.548 14.069-.331.726-.759 1.286-1.289 1.684-1.981 2.047-4.227 3.336-6.736 3.863-.925.132-1.75.165-2.477.1-1.386 0-2.608-.232-3.666-.693-2.312-.925-4.326-2.741-6.043-5.448-.858-1.916-1.651-4.029-2.378-6.341-.461-2.51-.528-5.185-.197-8.024.066-1.123.165-2.148.297-3.073v-.692c1.122-4.028 2.906-7.529 5.349-10.501 1.916-2.313 3.997-3.897 6.242-4.756 1.321-.596 2.84-.859 4.557-.793m477.221-68.855c-4.754 1.387-9.146 5.481-13.175 12.285-5.153 8.783-8.125 19.517-8.917 32.196-1.059 12.748.362 23.646 4.259 32.693 3.897 9.313 9.048 14.135 15.457 14.466 6.471.132 12.252-4.195 17.337-12.979 5.085-8.651 8.156-19.35 9.213-32.098.396-6.737.131-12.979-.792-18.725-.728-5.152-1.981-9.907-3.766-14.266-3.831-9.048-8.981-13.705-15.454-13.969a14.887 14.887 0 0 0-4.162.397m1.289 26.354c2.575.065 4.624 1.913 6.142 5.547 1.521 3.7 2.082 8.058 1.685 13.077-.265 5.085-1.485 9.38-3.666 12.879-.197.53-.43.99-.693 1.387-1.387 1.851-2.84 2.973-4.359 3.369-.726.197-1.287.264-1.684.197a5.03 5.03 0 0 1-1.387-.197c-1.851-.594-3.435-2.378-4.757-5.351-.659-1.65-1.155-3.5-1.485-5.547-.396-2.245-.496-4.69-.297-7.332.132-1.057.266-2.047.397-2.972v-.692c.594-3.566 1.716-6.705 3.366-9.412 1.455-2.444 3.038-3.963 4.757-4.557.727-.331 1.386-.465 1.981-.396z"/><g><path fill="none" stroke="#2C2C2C" stroke-width="2" stroke-linecap="round" stroke-linejoin="round" d="M727.658 238.229c1.521 3.7 2.082 8.058 1.685 13.077-.265 5.085-1.485 9.38-3.666 12.879-.197.53-.43.99-.693 1.387-1.387 1.851-2.84 2.973-4.359 3.369-.726.197-1.287.264-1.684.197a5.03 5.03 0 0 1-1.387-.197c-1.851-.594-3.435-2.378-4.757-5.351-.659-1.65-1.155-3.5-1.485-5.547-.396-2.245-.496-4.69-.297-7.332.132-1.057.266-2.047.397-2.972v-.692c.594-3.566 1.716-6.705 3.366-9.412 1.455-2.444 3.038-3.963 4.757-4.557.728-.331 1.387-.465 1.981-.396 2.576.065 4.625 1.913 6.142 5.547zM252.32 281.423c2.312 4.03 3.169 8.817 2.576 14.365-.528 5.613-2.378 10.304-5.548 14.069-.331.726-.759 1.286-1.289 1.684-1.981 2.047-4.227 3.336-6.736 3.863-.925.132-1.75.165-2.477.1-1.386 0-2.608-.232-3.666-.693-2.312-.925-4.326-2.741-6.043-5.448-.858-1.916-1.651-4.029-2.378-6.341-.461-2.51-.528-5.185-.197-8.024.066-1.123.165-2.148.297-3.073v-.692c1.122-4.028 2.906-7.529 5.349-10.501 1.916-2.313 3.997-3.897 6.242-4.756 1.32-.595 2.839-.857 4.557-.792 3.897.13 7.001 2.211 9.313 6.239z"/></g><g><path fill="none" stroke="#191919" stroke-width="2" stroke-linecap="round" stroke-linejoin="round" d="M720.228 206.328a14.853 14.853 0 0 1 4.162-.396c6.473.264 11.623 4.921 15.454 13.969 1.784 4.359 3.038 9.114 3.766 14.266.923 5.745 1.188 11.987.792 18.725-1.057 12.748-4.128 23.446-9.213 32.098-5.085 8.784-10.866 13.111-17.337 12.979-6.409-.331-11.56-5.152-15.457-14.466-3.896-9.048-5.317-19.945-4.259-32.693.792-12.68 3.764-23.413 8.917-32.196 4.028-6.804 8.421-10.899 13.175-12.286zm-7.034 116.408c-9.379-.793-17.04-8.092-22.984-21.896-3.236-7.859-5.316-16.511-6.242-25.955-.99-7.662-1.154-16.018-.495-25.065.66-7.727 1.751-14.959 3.271-21.695 2.443-10.501 6.075-19.913 10.897-28.235 6.935-11.69 14.596-18.196 22.983-19.517a33.944 33.944 0 0 1 2.775-.099c-12.417-5.284-23.216-6.968-32.397-5.052-16.246 3.236-28.334 11.59-36.26 25.064-8.123 13.407-12.912 29.919-14.365 49.534-1.386 19.616 1.949 38.111 10.006 55.479 8.125 17.238 29.061 23.051 62.811 17.437h.99c.396 0 .694.031.893.099.396 0 .858-.033 1.387-.099a36.411 36.411 0 0 0 4.458-.694c7.266-2.313 13.936-8.687 20.012-19.12 8.125-13.54 12.879-30.15 14.267-49.833.66-9.906.43-19.121-.693-27.641-1.189-8.388-3.236-16.148-6.143-23.281-6.011-14.266-14.002-21.564-23.975-21.894h-.99m-484.157 36.854c.198.066.396.166.594.297-.396 0-.858.066-1.386.199m19.218 2.179c9.379 3.435 17.37 10.632 23.975 21.596 4.491 7.859 7.662 16.447 9.511 25.758 1.981 9.446 2.378 19.683 1.189 30.712-2.18 21.664-9.543 39.992-22.093 54.984-11.558 13.936-24.173 21.3-37.845 22.093h-3.666c-.461.132-.858.232-1.188.298h-.298c-19.021-.396-30.514-.793-34.476-1.189-15.19-.792-27.476-8.783-36.854-23.975-9.114-15.257-12.779-33.618-10.997-55.082 1.849-21.532 8.851-39.76 21.003-54.688 11.822-14.86 24.14-22.686 36.953-23.479 7.397-.331 19.253-.067 35.567.792m.793-.495l-.1-.1m-.891 29.029a33.936 33.936 0 0 1 6.34-.396c9.974.263 17.932 5.481 23.876 15.653 2.773 4.623 4.788 9.775 6.043 15.455 1.189 6.406 1.486 13.374.892 20.903-1.519 13.936-6.241 25.692-14.167 35.269-7.993 9.841-16.876 14.63-26.65 14.365-10.105-.331-18.129-5.646-24.074-15.95-5.878-10.104-8.157-22.159-6.836-36.16 1.388-13.87 6.044-25.692 13.97-35.468 6.274-7.53 13.143-12.086 20.606-13.671zm19.417-26.254l-17.833-2.378m-1.385.199c-12.946 1.386-24.834 8.552-35.666 21.499-7.397 9.181-12.979 19.516-16.743 31.008-2.378 7.53-3.996 15.555-4.855 24.074-1.122 9.842-.957 19.087.496 27.74 1.387 10.435 4.689 19.945 9.907 28.532 8.916 15.189 20.739 23.348 35.468 24.47h1.683"/></g><g><path fill="none" stroke="#2C2C2C" stroke-width="4" stroke-linecap="round" stroke-linejoin="round" d="M296.704 248.729l18.031 2.08 2.279-18.427m-16.149-45.373l-4.161 61.72m47.058-26.648l-6.638-5.944m5.35 16.742l-1.883 21.004 44.582 5.448m-29.127-26.154l-3.368 18.427m-29.522-71.232l-6.143 52.011m39.033.794l10.701-60.928m-52.013 78.561l25.857 3.073m33.09-5.055l8.123-63.999"/><path fill="none" stroke="#191919" stroke-width="6" stroke-linecap="round" stroke-linejoin="round" d="M291.453 189.981l-4.756 62.415m95.107-67.566l3.369 74.501 7.827 6.835 68.358 61.226m-144.345-95.009l-20.31 16.347m47.059-26.649l-1.288 10.798 13.572.298m-13.572-.298l-25.461-.496m68.16 26.948l-11.492-10.503-17.635-15.651m-7.826-58.353l-4.458 47.257m90.054 126.413l-111.552-31.207-79.455-14.466M393 266.166l-96.296-17.437-56.47 45.572"/><path fill="none" stroke="#2A2726" stroke-width="4" stroke-linecap="round" stroke-linejoin="round" d="M356.046 233.177l-12.284-11.096m-6.638-5.945l-20.111 16.247"/><path fill="none" stroke="#191919" stroke-width="4" stroke-linecap="round" stroke-linejoin="round" d="M517.53 251.406l68.062-28.533m-63.801-7.727l28.631-14.563"/><path fill="none" stroke="#4F4F4F" stroke-width="2" stroke-linecap="round" stroke-linejoin="round" d="M387.749 191.369c19.748.396 40.52-2.477 62.315-8.619m-58.253 29.522c27.541.463 56.932-5.25 88.172-17.139m-88.172 37.945c31.438.594 65.353-6.937 101.746-22.589m-101.746 43.394c32.495.594 67.698-7.465 105.609-24.174"/></g><g><path fill="none" stroke="#191919" stroke-width="4" stroke-linecap="round" stroke-linejoin="round" d="M520.205 186.614l2.973 49.436"/></g><g><path fill="#C51112" d="M534.273 296.779v9.709h1.288l32.297 13.969 86.785-32.297c2.51-3.368 2.51-6.704 0-10.005l-18.526 6.834-68.259 25.561-33.585-13.771m30.911-38.835c-8.388-3.435-13.507-1.486-15.355 5.846l86.289 21.199 18.526-6.834-89.46-20.211M293.83 202.365c9.379.067 15.158-1.849 17.337-5.746l-17.337 5.746m59.344-14.068c2.839 2.775 5.844 3.93 9.015 3.468-2.774-1.321-5.779-2.477-9.015-3.468M227.651 298.661l-3.17-3.863c.066.265.166.495.297.694.066.329.231.692.495 1.089.133.266.298.463.496.595.066 0 .1.065.1.197l.594.596c.198.263.595.495 1.188.692m23.381-180.208c-6.076 9.577-10.171 18.395-12.284 26.452l27.938 53.895a132.153 132.153 0 0 1 6.043-27.344c7.133-21.267 20.045-41.114 38.736-59.541-47.025 37.58-67.17 39.759-60.433 6.538m129.485 53.102a407.267 407.267 0 0 1 7.332-11.195c17.634-25.561 40.916-51.583 69.844-78.068-74.368 63.538-136.023 93.258-184.964 89.163a132.139 132.139 0 0 0-6.043 27.344c11.095 2.312 20.144 3.5 27.145 3.566l17.337-5.746 31.307-10.402c1.255-.33 2.477-.33 3.665 0a48.212 48.212 0 0 1 7.035 2.08c3.236.991 6.241 2.147 9.015 3.468 3.17-.594 6.473-2.741 9.907-6.44a183.218 183.218 0 0 1 8.42-13.77m149.595 6.935c-32.296 15.851-52.21 24.933-59.739 27.244-5.35 1.717-10.105 2.312-14.266 1.783-3.501-.397-7.761-1.75-12.78-4.062-7.332-3.435-11.36-2.247-12.087 3.566 6.605 4.227 11.954 6.935 16.049 8.124 5.548 1.717 11.558 1.949 18.031.694 12.218-2.378 35.698-12.78 70.438-31.207v-.1l-4.062-4.557-1.584-1.485m1.586 1.486l-1.586-1.585v.1l1.586 1.485m-31.01-29.92l33.784-17.04 13.473-4.557c5.416-14.2 6.703-26.321 3.864-36.359-85.267 54.357-139.92 77.109-163.961 68.26a407.267 407.267 0 0 0-7.332 11.195 184.102 184.102 0 0 0-8.421 13.77 91.165 91.165 0 0 0-1.783 3.567c46.299 1.386 89.758-11.559 130.376-38.836m197.744-1.684c-22.654-17.106-43.591-31.009-62.81-41.708-8.124 14.001-23.546 22.786-46.266 26.353-21.399 10.04-39.694 10.04-54.884 0l-33.784 17.04 29.424 28.434v-.1l1.586 1.585 4.062 4.557v.1l35.368 38.934c10.237-6.077 15.454-17.865 15.653-35.368 9.313-9.115 20.639-9.115 33.98 0 24.835-4.69 50.724-17.965 77.671-39.827z"/><path fill="#D72824" d="M219.924 178.688a9.367 9.367 0 0 0-1.981-1.981c-.991-.462-1.916-.727-2.774-.793-10.568-.991-16.974 4.591-19.22 16.744-1.652 8.652-.43 21.927 3.666 39.826.132.199.231.495.297.892l24.569 61.424 3.17 3.863 33.585 22.488c.461.331.957.627 1.486.893l45.473 19.121c1.189.396 2.477.495 3.864.296l85.596-18.823c1.652-.329 2.972-1.188 3.963-2.575.859-1.453 1.09-3.005.694-4.656-.33-1.85-1.189-3.171-2.576-3.962-1.453-1.125-3.005-1.388-4.656-.794l-83.714 18.131-41.114-17.238-2.675-9.313 93.027-43.194a11.865 11.865 0 0 0 1.783-1.485c16.445-17.701 23.083-32.495 19.913-44.384-1.452-8.983-8.157-16.115-20.111-21.399-3.17.462-6.175-.693-9.015-3.468a48.212 48.212 0 0 0-7.035-2.08c-1.188-.33-2.41-.33-3.665 0l-31.307 10.402c-2.18 3.897-7.958 5.813-17.337 5.746l-29.027 9.61-25.66-4.062-19.219-29.229m21.399 42.204l17.337 2.675-4.161 67.764-17.436-3.369 4.26-67.07m-12.384-5.548l-3.071 49.634-14.167-35.764c-3.567-15.456-4.657-26.881-3.27-34.279.396-3.038 1.52-4.986 3.369-5.845l17.139 26.254m38.043 73.411l4.26-65.882 73.51-24.074c14.728 3.831 23.216 9.543 25.461 17.139 1.122 8.255-4.227 18.99-16.05 32.198l-87.181 40.619m44.482-176.84c12.813-12.482 28.269-24.371 46.366-35.666-35.335 0-63.504 4.161-84.508 12.482-9.312 10.568-16.742 20.475-22.291 29.721-6.736 33.222 13.409 31.043 60.433-6.537m146.228-29.623l6.737-6.043c-.595-3.831-5.548-6.308-14.861-7.43-9.115-1.057-22.258-.958-39.43.297-17.238 1.058-27.739 1.619-31.504 1.685-5.284.131-9.743.991-13.375 2.575-3.633 1.519-6.109 2.477-7.43 2.874-18.097 11.294-33.552 23.183-46.366 35.666-18.69 18.426-31.603 38.273-38.736 59.541 48.942 4.093 110.597-25.627 184.965-89.165m6.738-6.043l-6.737 6.043c-28.929 26.485-52.21 52.507-69.844 78.068 24.041 8.85 78.695-13.902 163.961-68.26-.925-3.038-2.213-5.813-3.864-8.322-27.938-10.171-55.777-12.681-83.516-7.529z"/><path fill="#373737" d="M350.3 26.714l-14.861.892-49.733.792c-2.641 5.085-2.641 9.543 0 13.375H350.3c-2.377-4.425-2.377-9.445 0-15.059m-14.861.892l14.861-.892-56.173-17.436c-3.896 1.454-4.623 3.996-2.179 7.628l43.491 10.7m219.144 14.959c1.783-5.351 1.783-10.073 0-14.167l-86.885-1.685c-1.915 5.02-1.915 10.039 0 15.059l86.885.793z"/><path fill="#616161" d="M410.039 63.568c-10.237 1.651-19.483 1.584-27.739-.198l-3.665 7.43c3.765-.066 14.266-.627 31.504-1.685 17.172-1.255 30.315-1.354 39.43-.297l-2.874-16.644c-13.473 5.747-25.691 9.544-36.656 11.394m57.659-21.795c-1.915-5.021-1.915-10.04 0-15.059-56.47 30.58-95.603 30.58-117.398 0-2.377 5.614-2.377 10.634 0 15.059 4.689 6.605 10.271 11.822 16.743 15.653 4.689 2.642 9.774 4.624 15.256 5.944 8.256 1.783 17.502 1.85 27.739.198 10.965-1.85 23.183-5.647 36.656-11.393 6.739-3.039 13.74-6.506 21.004-10.402z"/><path fill="#C9C6B7" d="M551.81 92.1c2.839 10.039 1.552 22.159-3.864 36.359l-13.473 4.557c15.189 10.04 33.484 10.04 54.884 0 22.72-3.566 38.142-12.351 46.266-26.353-10.171-5.878-19.781-10.732-28.829-14.563H551.81z"/><g><path fill="none" stroke="#440606" stroke-width="2" stroke-linecap="round" stroke-linejoin="round" d="M535.76 184.632l35.368 38.934c10.237-6.077 15.454-17.865 15.653-35.368 9.313-9.115 20.639-9.115 33.98 0 24.834-4.689 50.724-17.964 77.67-39.826-22.654-17.106-43.591-31.009-62.81-41.708-8.124 14.001-23.546 22.786-46.266 26.353-21.399 10.04-39.694 10.04-54.884 0l-33.784 17.04 29.424 28.434v-.1l1.586 1.585 4.062 4.557v.099c-34.74 18.427-58.221 28.829-70.438 31.207-6.474 1.255-12.483 1.023-18.031-.694-4.095-1.189-9.444-3.897-16.049-8.124.727-5.813 4.755-7 12.087-3.566 5.019 2.312 9.279 3.665 12.78 4.062 4.16.528 8.916-.066 14.266-1.783 7.529-2.311 27.443-11.393 59.739-27.244l1.586 1.486m-82.13-111.157c9.313 1.122 14.266 3.599 14.861 7.43 27.739-5.152 55.578-2.642 83.516 7.529 1.651 2.51 2.939 5.285 3.864 8.322h54.983c9.048 3.832 18.658 8.685 28.829 14.563M387.848 160.36c17.634-25.561 40.916-51.583 69.844-78.068M551.81 92.1c2.839 10.039 1.552 22.159-3.864 36.359l-13.473 4.557m-.2 173.472v-9.709l33.585 13.771 68.259-25.561-86.289-21.199c1.849-7.332 6.968-9.28 15.355-5.846l89.46 20.211c2.51 3.301 2.51 6.637 0 10.005l-86.785 32.297-32.297-13.969m-1.288 0v1.188m120.371-29.521l-18.526 6.834M378.635 70.8c3.765-.066 14.266-.627 31.504-1.685 17.172-1.255 30.315-1.354 39.43-.297m-138.105 43.097c12.813-12.482 28.269-24.371 46.366-35.666-35.335 0-63.504 4.161-84.508 12.482-9.312 10.568-16.742 20.475-22.291 29.721m21.698 53.003c7.133-21.267 20.045-41.114 38.736-59.541m76.383 48.446a407.267 407.267 0 0 0-7.332 11.195 184.102 184.102 0 0 0-8.421 13.77 91.165 91.165 0 0 0-1.783 3.567c46.299 1.386 89.758-11.559 130.376-38.836M378.635 70.8c-5.284.131-9.743.991-13.375 2.575-3.633 1.519-6.109 2.477-7.43 2.874m-106.798 42.204c-6.076 9.577-10.171 18.395-12.284 26.452l27.938 53.895a132.153 132.153 0 0 1 6.043-27.344m-14.069 52.11l-4.161 67.764-17.436-3.369 4.26-67.069 17.337 2.674zm-32.791 41.412l-14.167-35.764c-3.567-15.456-4.657-26.881-3.27-34.279.396-3.038 1.52-4.986 3.369-5.845l17.139 26.253-3.071 49.635zm67.961-62.613l-29.027 9.61-25.66-4.062-19.219-29.226a9.367 9.367 0 0 0-1.981-1.981c-.991-.462-1.916-.727-2.774-.793-10.568-.991-16.974 4.591-19.22 16.744-1.652 8.652-.43 21.927 3.666 39.826.132.199.231.495.297.892l24.569 61.424m3.17 3.862l33.585 22.488c.461.331.957.627 1.486.893l45.473 19.121c1.189.396 2.477.495 3.864.296l85.596-18.823c1.652-.329 2.972-1.188 3.963-2.575.859-1.453 1.09-3.005.694-4.656-.33-1.85-1.189-3.171-2.576-3.962-1.453-1.125-3.005-1.388-4.656-.794l-83.714 18.131-41.114-17.238-2.675-9.313 93.027-43.194a11.865 11.865 0 0 0 1.783-1.485c16.445-17.701 23.083-32.495 19.913-44.384-1.452-8.983-8.157-16.115-20.111-21.399m-9.015-3.47a48.212 48.212 0 0 0-7.035-2.08c-1.188-.33-2.41-.33-3.665 0l-31.307 10.402m-44.481 2.18c11.095 2.312 20.144 3.5 27.145 3.566m-69.35 92.433c.066.265.166.495.297.694.066.329.231.692.495 1.089.133.266.298.463.496.595.066 0 .1.065.1.197l.594.596c.198.264.595.495 1.189.692m43.59-75.788l73.51-24.074c14.728 3.831 23.216 9.543 25.461 17.139 1.122 8.255-4.227 18.99-16.05 32.198l-87.182 40.619 4.261-65.882zm100.854-37.548c-3.435 3.699-6.737 5.846-9.907 6.44-2.773-1.321-5.779-2.477-9.015-3.468m-59.344 14.068l17.337-5.746"/></g><g><path fill="none" stroke="#191919" stroke-width="2" stroke-linecap="round" stroke-linejoin="round" d="M467.698 41.773l86.885.792c1.783-5.351 1.783-10.073 0-14.167l-86.885-1.685c-1.915 5.02-1.915 10.039 0 15.06-7.265 3.896-14.266 7.363-21.003 10.402l2.874 16.644m-2.874-16.644c-13.473 5.746-25.691 9.543-36.656 11.393-10.237 1.651-19.483 1.584-27.739-.198l-3.665 7.43m-43.196-43.194l14.861-.892-56.173-17.436c-3.896 1.454-4.623 3.996-2.179 7.628l43.491 10.7-49.733.792c-2.641 5.085-2.641 9.543 0 13.375H350.3c-2.377-4.425-2.377-9.445 0-15.059 21.795 30.58 60.928 30.58 117.398 0M350.3 41.773c4.689 6.605 10.271 11.822 16.743 15.653 4.689 2.642 9.774 4.624 15.256 5.944"/></g><g><path fill="none" stroke="#272727" stroke-width="2" stroke-linecap="round" stroke-linejoin="round" d="M464.43 76.249l-6.737 6.043"/></g></g><g><path fill="#585951" d="M503.859 244.074c-1.453-.067-2.807.033-4.063.296-8.981 1.652-17.105 10.372-24.371 26.155-5.086 11.229-8.883 23.875-11.393 37.944-1.718 9.114-2.873 18.856-3.469 29.226-.659 12.021-.494 23.281.496 33.783 1.057 12.682 3.27 24.239 6.638 34.674 6.407 19.221 14.827 29.095 25.263 29.623.793.065 1.586.065 2.379 0 9.443-.794 18.03-9.643 25.758-26.552 8.586-18.361 13.605-40.783 15.059-67.27.793-13.273.528-25.657-.793-37.151-1.255-11.357-3.434-21.795-6.539-31.306-6.273-19.087-14.595-28.893-24.965-29.422m-4.259 34.971a13.229 13.229 0 0 1 4.26-.495c6.736.265 12.119 6.605 16.148 19.022 1.85 5.679 3.17 11.921 3.962 18.725.991 7.859 1.222 16.312.694 25.361-.926 17.173-4.128 31.569-9.61 43.194-5.415 12.086-11.491 17.865-18.229 17.337-6.736-.396-12.12-6.769-16.147-19.121-4.096-12.283-5.648-27.012-4.657-44.185.925-16.974 4.095-31.438 9.511-43.392 4.226-9.18 8.915-14.662 14.068-16.446z"/><path fill="#C9C6B7" d="M503.859 278.55a13.285 13.285 0 0 0-4.26.495c-5.152 1.784-9.842 7.266-14.068 16.447-5.416 11.954-8.586 26.418-9.511 43.392-.991 17.173.562 31.901 4.657 44.185 4.027 12.353 9.411 18.725 16.147 19.121 6.737.528 12.813-5.251 18.229-17.337 5.482-11.625 8.685-26.021 9.61-43.194.527-9.05.297-17.502-.694-25.361-.792-6.804-2.112-13.046-3.962-18.725-4.028-12.418-9.411-18.759-16.148-19.023m-17.436 55.58c.661-4.954 1.849-9.215 3.566-12.781 2.18-4.688 4.591-6.935 7.231-6.737 2.576.134 4.689 2.642 6.342 7.529 1.782 4.888 2.377 10.667 1.782 17.337-.396 6.935-1.617 12.715-3.665 17.338-.396.793-.727 1.455-.991 1.98-1.452 2.512-2.938 4.095-4.458 4.757-.66.197-1.288.263-1.882.197-2.708-.132-4.854-2.707-6.439-7.727a91.142 91.142 0 0 1-1.586-7.232c-.33-3.237-.396-6.638-.197-10.203.065-1.322.165-2.578.297-3.766v-.692z"/><path fill="#3F403A" d="M489.989 321.349c-1.718 3.566-2.905 7.827-3.566 12.781v.692a62.23 62.23 0 0 0-.297 3.766c-.198 3.565-.133 6.966.197 10.203a91.142 91.142 0 0 0 1.586 7.232c1.585 5.02 3.731 7.595 6.439 7.727.594.065 1.222 0 1.882-.197 1.52-.662 3.006-2.245 4.458-4.757.265-.525.595-1.188.991-1.98 2.048-4.623 3.27-10.403 3.665-17.338.595-6.67 0-12.449-1.782-17.337-1.652-4.888-3.766-7.396-6.342-7.529-2.64-.198-5.051 2.048-7.231 6.737m9.808-76.979c1.256-.263 2.609-.363 4.063-.296-1.387-.66-7.761-3.137-19.121-7.43-11.359-4.229-25.56-4.097-42.6.396-17.04 4.489-29.754 15.816-38.142 33.979-8.52 18.032-13.573 40.257-15.158 66.675-1.387 26.418.958 49.237 7.034 68.457 6.407 19.087 14.794 28.963 25.164 29.623 26.287 5.218 50.426 5.613 72.42 1.188l-.496-1.188c-10.436-.528-18.855-10.402-25.263-29.623-3.368-10.435-5.581-21.992-6.638-34.674-.99-10.502-1.155-21.763-.496-33.783.596-10.369 1.751-20.111 3.469-29.226 2.51-14.069 6.307-26.716 11.393-37.944 7.265-15.782 15.389-24.502 24.371-26.154z"/><g><path fill="none" stroke="#2C2C2C" stroke-width="2" stroke-linecap="round" stroke-linejoin="round" d="M489.989 321.349c2.18-4.688 4.591-6.935 7.231-6.737 2.576.134 4.689 2.642 6.342 7.529 1.782 4.888 2.377 10.667 1.782 17.337-.396 6.935-1.617 12.715-3.665 17.338-.396.793-.727 1.455-.991 1.98-1.452 2.512-2.938 4.095-4.458 4.757-.66.197-1.288.263-1.882.197-2.708-.132-4.854-2.707-6.439-7.727a91.142 91.142 0 0 1-1.586-7.232c-.33-3.237-.396-6.638-.197-10.203.065-1.322.165-2.578.297-3.766v-.692c.661-4.954 1.848-9.215 3.566-12.781z"/></g><g><path fill="none" stroke="#191919" stroke-width="2" stroke-linecap="round" stroke-linejoin="round" d="M492.961 435.775c-10.436-.528-18.855-10.402-25.263-29.623-3.368-10.435-5.581-21.992-6.638-34.674-.99-10.502-1.155-21.763-.496-33.783.596-10.369 1.751-20.111 3.469-29.226 2.51-14.069 6.307-26.716 11.393-37.944 7.266-15.783 15.39-24.503 24.371-26.155 1.256-.263 2.609-.363 4.063-.296-1.387-.66-7.761-3.137-19.121-7.43-11.359-4.229-25.56-4.097-42.6.396-17.04 4.489-29.754 15.816-38.142 33.979-8.52 18.032-13.573 40.257-15.158 66.675-1.387 26.418.958 49.237 7.034 68.457 6.407 19.087 14.794 28.963 25.164 29.623 26.287 5.218 50.426 5.613 72.42 1.188m-.496-1.187c.793.065 1.586.065 2.379 0 9.443-.794 18.03-9.643 25.758-26.552 8.586-18.361 13.605-40.783 15.059-67.27.793-13.273.528-25.657-.793-37.151-1.255-11.357-3.434-21.795-6.539-31.306-6.273-19.088-14.596-28.895-24.965-29.423m-.001 34.477c6.736.265 12.119 6.605 16.148 19.022 1.85 5.679 3.17 11.921 3.962 18.725.991 7.859 1.222 16.312.694 25.361-.926 17.173-4.128 31.569-9.61 43.194-5.415 12.086-11.491 17.865-18.229 17.337-6.736-.396-12.12-6.769-16.147-19.121-4.096-12.283-5.648-27.012-4.657-44.185.925-16.974 4.095-31.438 9.511-43.392 4.227-9.182 8.916-14.663 14.068-16.447a13.256 13.256 0 0 1 4.26-.494zm-10.402 158.413a48.063 48.063 0 0 1 1.883-1.188"/></g></g><g><path fill="none" stroke="#191919" stroke-width="2" stroke-linecap="round" stroke-linejoin="round" stroke-opacity=".4" d="M639.981 259.727l43.095 2.477m-41.014-25.76l42.799 1.981m-29.92-38.437l41.014 2.773m-45.373 5.251l41.41 2.972m-45.274 6.539l41.908 3.467m-45.077 7.431l42.699 2.676m-45.771 15.355l42.996 2.277m-26.848 34.577l28.73 1.684m-38.24 12.582l42.698 1.883m-49.137-28.235l42.996 1.386m-23.678-79.949l40.419 2.675M656.229 313.82l41.809.197M679.51 178.49l39.728 2.18m-49.041 2.872l37.449 3.467m-527.35 38.934l18.129.893m-29.522 9.809l31.9 5.547m-44.085 11.492l34.08 4.359m-41.51 14.067l35.269 3.765m-39.629 39.33l36.062 2.28m-34.774-32.693l35.665 2.972m-37.448 14.365l36.062 3.864m-23.48 45.969l35.764.692m-41.808-12.185l35.368-.297m-39.528-12.186l36.458 2.279m-13.871 35.368l38.34 2.676m187.837 36.754l72.123 1.089m-71.627-114.723l69.646 8.62m-77.175 56.27l71.825 3.369m-71.033-28.73l71.23 8.421m-65.484-28.731l67.566 7.034m-38.835-72.915l63.801 6.539m-40.025-15.455l56.272 8.224M416.38 434.883l69.844 2.477m-84.307-16.941l71.726 3.468m-69.944-152.074l68.062 7.133m-55.182-23.082l63.305 6.043m-89.46 119.081l72.52 2.378"/></g></svg>