<svg xmlns="http://www.w3.org/2000/svg" width="285" height="427" viewBox="0 0 285 427"><path fill="#64351A" d="M272.481 218.338l-13.201-2.817-16.26 134.99 3.783.322h3.864l21.814-132.495M223.22 351.477v-.644h-25.437v.644h25.437M157.696 122.55a77.482 77.482 0 0 1 2.415 3.783c.965 1.878 1.771 4.025 2.415 6.439h35.257V238.46c.966 1.289 1.744 2.604 2.333 3.945 2.684 6.063 4.106 13.871 4.267 23.423l2.013 50.149 16.824 20.849V107.658h-61.419l-.563 14.248a223.51 223.51 0 0 1-3.542.644m-63.349 1.931c-.966-.053-1.959-.107-2.979-.16l-2.092-16.663H4.998l5.635 243.818h23.504V132.772h54.575a51.888 51.888 0 0 1 3.461-4.024 63.073 63.073 0 0 1 2.174-4.267m12.074-16.823H92.173l8.452 7.325a41.307 41.307 0 0 1 4.75-4.91l1.046-2.415m50.793 0h-11.35l2.897 4.186a50.926 50.926 0 0 1 2.897 2.978l5.556-7.164M28.502 80.451c-2.952-2.952-6.601-4.427-10.947-4.427-4.239 0-7.889 1.475-10.948 4.427C3.603 83.456 2.1 87.078 2.1 91.318c0 4.239 1.502 7.834 4.507 10.786 3.059 3.005 6.708 4.508 10.948 4.508 4.346 0 7.996-1.503 10.947-4.508 3.059-2.952 4.588-6.546 4.588-10.786.001-4.24-1.529-7.862-4.588-10.867m164.935 10.867c0 4.239 1.501 7.834 4.507 10.786 3.06 3.005 6.707 4.508 10.947 4.508 4.294 0 7.942-1.503 10.947-4.508 3.06-2.952 4.589-6.546 4.589-10.786 0-4.24-1.529-7.862-4.589-10.867-3.005-2.952-6.653-4.427-10.947-4.427-4.24 0-7.888 1.475-10.947 4.427-3.006 3.005-4.507 6.627-4.507 10.867z"/><path fill="#FF0" d="M272.481 218.338l9.419-15.857-9.419-22.377-13.201 17.708v17.708l13.201 2.818m-110.68-110.68l.242-6.278-4.829 6.278-5.555 7.164-.482.645-2.415-3.623-2.897-4.186-2.979-4.347-1.931 2.817-6.439 9.177-8.936-11.753-7.727 12.638-7.165-9.981-2.253-3.14-2.013 4.588-1.046 2.415-2.898 6.52-1.852-1.61-8.452-7.325-3.22-2.737.322 2.737 2.092 16.663c1.02.053 2.013.107 2.979.16 27.207 1.074 48.324.429 63.35-1.931a225.6 225.6 0 0 0 3.542-.644l.562-14.247z"/><path fill="#072552" d="M155.523 350.833l-1.047-.564.805.564h.242m0 0h.563c-1.77-.967-2.816-1.503-3.139-1.609-.322-.108.187.24 1.529 1.045l1.047.564M50.156 253.837l-1.047.08c-1.449 11.27-1.77 24.524-.965 39.765.429 8.854 1.422 21.681 2.978 38.476.054 3.22.375 6.627.966 10.224.59 3.918 1.315 6.734 2.174 8.452H154.8l.16-.081c-8.692-.107-18.54-2.066-29.541-5.876-7.03-2.47-17.173-6.815-30.428-13.041-6.761-1.609-9.123-4.265-7.083-7.968V286.84v37.027c-2.039 3.703.322 6.358 7.083 7.968 13.255 6.226 23.397 10.571 30.428 13.041 11 3.81 20.848 5.769 29.541 5.876l-.482-.483c-1.343-.805-1.852-1.153-1.529-1.045.322.106 1.369.643 3.139 1.609h18.757c1.395-2.04 2.468-5.688 3.22-10.948.643-4.937.938-10.275.885-16.018a32.961 32.961 0 0 1-.162-3.301l-3.54-37.751 3.54 37.751c0 1.127.054 2.228.162 3.301.269 4.562 1.074 8.854 2.415 12.88 1.395 4.507 3.192 7.7 5.393 9.577l5.715 4.509h37.43l2.657-2.415-9.337-11.591-16.824-20.849-2.013-50.149c-.16-9.552-1.583-17.359-4.267-23.423-.589-1.342-1.367-2.656-2.333-3.945-3.382-4.561-8.961-8.772-16.743-12.637-2.737 16.206-7.942 27.582-15.616 34.13-7.62 6.439-15.294 10.169-23.021 11.189-5.635 1.072-14.167.616-25.597-1.369-11.538-2.093-20.526-9.015-26.966-20.767-11.484 17.815-18.246 26.884-20.285 27.206-9.287-2.306-15.753-9.766-19.402-22.376z"/><path fill="#FFF" d="M155.764 217.936c-5.205-3.113-8.451-9.256-9.739-18.433-1.181 1.234-4.776 2.28-10.787 3.14-5.956.858-11.886.053-17.789-2.415-5.903-2.576-10.813-6.359-14.73-11.35-3.489-4.4-7.379-12.074-11.672-23.021 8.371 51.784 7.969 79.501-1.208 83.152 6.439 11.752 15.428 18.674 26.966 20.767 11.43 1.985 19.962 2.441 25.597 1.369 7.728-1.021 15.401-4.75 23.021-11.189 7.674-6.548 12.879-17.924 15.616-34.13-14.328-3.704-22.752-6.335-25.275-7.89m-7.002-106.092l2.415 3.623.482-.645a51.25 51.25 0 0 0-2.897-2.978m-54.415 12.637a63.072 63.072 0 0 0-2.173 4.267 62.362 62.362 0 0 0-.644 4.024c-1.341 7.942-1.959 13.442-1.851 16.501.161 3.596.617 9.123 1.369 16.582 4.293 10.947 8.183 18.621 11.672 23.021 3.917 4.991 8.828 8.774 14.73 11.35 5.902 2.468 11.833 3.273 17.789 2.415 6.011-.859 9.606-1.906 10.787-3.14 5.367-6.44 9.068-12.048 11.109-16.823 3.434-8.372 5.659-17.655 6.68-27.852.645-6.332.536-12.154-.322-17.467a53.154 53.154 0 0 0-.965-4.588c-.645-2.415-1.45-4.562-2.415-6.439a77.003 77.003 0 0 0-2.415-3.783c-15.028 2.361-36.144 3.006-63.351 1.932m9.095 8.291a12.767 12.767 0 0 1 2.174-1.449c3.22-.429 7.244.054 12.074 1.449a64.78 64.78 0 0 1 5.393 1.852c10.357 4.024 18.326 3.541 23.907-1.449.162-.161.322-.295.484-.402 2.842-2.469 5.901-3.033 9.175-1.691.162.59.349 1.154.564 1.691 1.234 4.4 2.119 8.183 2.655 11.35.805 5.152.967 10.062.484 14.73-.162 1.288-.51 2.817-1.047 4.588-.752 2.361-1.181 3.729-1.288 4.105-1.609 6.171-3.649 11.618-6.117 16.341-1.663 2.951-4.294 6.197-7.889 9.74-6.279 3.059-14.195 2.603-23.747-1.369-8.908-4.668-16.152-16.099-21.733-34.291-1.769-12.611-.133-21.009 4.911-25.195m23.666 19.641c.161-.215.349-.43.563-.644-4.078-3.971-8.828-4.078-14.248-.322 4.939 3.918 9.499 4.24 13.685.966m-5.876-2.898h.402c.751 0 1.369.215 1.852.644.537.537.805 1.154.805 1.851 0 .644-.268 1.208-.805 1.691-.483.483-1.1.724-1.852.724h-.965c-.697 0-1.314-.241-1.852-.724-.483-.483-.725-1.047-.725-1.691 0-.697.241-1.314.725-1.851a2.883 2.883 0 0 1 1.852-.644h.563m0 0c.429.107.832.322 1.208.644.536.537.805 1.154.805 1.851 0 .644-.269 1.208-.805 1.691-.376.376-.778.617-1.208.724h.402c.751 0 1.369-.241 1.852-.724.537-.483.805-1.047.805-1.691 0-.697-.268-1.314-.805-1.851-.483-.429-1.1-.644-1.852-.644h-.402m5.876 2.898c.268-.215.537-.456.805-.724-4.615-3.971-9.605-4.186-14.972-.645.161.161.322.295.483.402 5.42-3.756 10.169-3.649 14.248.322-.214.215-.402.43-.564.645m27.369-.966l.563-.241c-2.897-1.986-5.445-2.979-7.646-2.979-2.253-.054-4.427.939-6.52 2.979 2.093-1.825 4.401-2.683 6.922-2.576 2.629.054 4.856.992 6.681 2.817m-1.771 2.093a8.343 8.343 0 0 0 1.771-2.093c-1.824-1.825-4.052-2.763-6.682-2.817-2.521-.107-4.829.751-6.922 2.576 2.254 2.361 4.589 3.676 7.004 3.944 1.556.107 3.166-.429 4.829-1.61m-2.415-3.14c.483.537.724 1.101.724 1.691 0 .75-.24 1.368-.724 1.851a2.408 2.408 0 0 1-1.771.724c-.696 0-1.314-.241-1.851-.724-.484-.483-.725-1.101-.725-1.851 0-.59.24-1.154.725-1.691.536-.482 1.154-.724 1.851-.724.698 0 1.288.242 1.771.724m2.415 3.14c.806-.59 1.636-1.342 2.495-2.254-.055-.054-.108-.081-.162-.081l-.563.241a8.306 8.306 0 0 1-1.77 2.094m-52.081-38.557l1.852 1.61 2.898-6.52a41.231 41.231 0 0 0-4.75 4.91m24.068-12.718c-5.044.161-9.713 1.476-14.006 3.945l7.165 9.981 7.727-12.638 8.936 11.753 6.439-9.177c-5.099-2.791-10.518-4.079-16.261-3.864z"/><path fill="#AC1717" d="M162.526 132.772c.375 1.449.697 2.978.965 4.588.858 5.313.967 11.135.322 17.467-1.021 10.196-3.246 19.48-6.68 27.852-2.041 4.775-5.742 10.383-11.109 16.823 1.288 9.177 4.534 15.32 9.739 18.433 2.523 1.556 10.947 4.187 25.276 7.889 7.782 3.864 13.361 8.076 16.743 12.637V132.772h-35.256m-85.324 25.034c3.005-10.518 6.842-18.863 11.51-25.034H34.137v218.704h163.646v-.644h-5.313l-5.715-4.509c-2.2-1.877-3.998-5.07-5.393-9.577-1.341-4.025-2.146-8.318-2.415-12.88.054 5.742-.242 11.081-.885 16.018-.752 5.261-1.825 8.908-3.22 10.948H155.28l-.805-.564.482.483-.16.081H54.261c-.858-1.718-1.583-4.534-2.174-8.452-.59-3.597-.912-7.004-.966-10.224-1.556-16.795-2.549-29.621-2.978-38.476-.805-15.24-.484-28.495.965-39.765l1.047-.08c-3.328-11.484-4.374-27.181-3.14-47.09 8.425 9.391 14.597 6.842 18.514-7.647 3.918-14.541 7.809-28.306 11.673-41.292z"/><path fill="#875D33" d="M92.173 128.748a52.076 52.076 0 0 0-3.461 4.024c-4.668 6.171-8.505 14.516-11.51 25.034-3.864 12.986-7.755 26.751-11.672 41.293-3.917 14.489-10.088 17.038-18.514 7.647-1.234 19.91-.188 35.606 3.14 47.09 3.649 12.61 10.115 20.07 19.399 22.377 2.039-.322 8.801-9.391 20.285-27.206 9.176-3.651 9.579-31.368 1.208-83.152-.751-7.459-1.208-12.986-1.369-16.582-.108-3.059.51-8.56 1.851-16.501.16-1.288.375-2.629.643-4.024m-2.977 62.544c-.161 29.945-7.862 53.878-23.103 71.802 15.241-17.924 22.942-41.858 23.103-71.802m-34.774 59.565c13.576-8.425 24.739-33.888 33.485-76.389-8.746 42.502-19.909 67.965-33.485 76.389m31.634-102.952c-10.947 61.498-22.324 86.72-34.13 75.664 11.806 11.056 23.183-14.166 34.13-75.664z"/><path fill="#EBC6AF" d="M105.616 131.323c-.805.429-1.529.913-2.174 1.449-5.044 4.185-6.681 12.583-4.91 25.195 5.581 18.191 12.826 29.622 21.733 34.291 9.552 3.971 17.468 4.427 23.747 1.369 3.595-3.542 6.226-6.789 7.889-9.74 2.468-4.723 4.508-10.169 6.117-16.341.107-.376.536-1.744 1.288-4.105.537-1.771.885-3.3 1.047-4.588.482-4.668.32-9.579-.484-14.73-.536-3.167-1.421-6.949-2.655-11.35a15.587 15.587 0 0 1-.564-1.691c-3.273-1.342-6.333-.778-9.175 1.691a3.179 3.179 0 0 0-.484.402c-5.581 4.99-13.55 5.474-23.907 1.449a64.78 64.78 0 0 0-5.393-1.852c-4.831-1.395-8.855-1.878-12.075-1.449m35.982 12.799c5.795-3.757 10.84-3.918 15.134-.483-4.294-3.435-9.339-3.274-15.134.483m-1.128 7.486c.161-.107.295-.241.402-.402 2.093-2.039 4.267-3.032 6.52-2.979 2.201 0 4.749.993 7.646 2.979l.887-.403-.887.403c.054 0 .107.026.162.081-.859.912-1.689 1.664-2.495 2.254-.484.376-.993.724-1.529 1.046-1.234.698-2.47.993-3.702.885-2.362-.215-4.696-1.503-7.004-3.864m-12.557.081a9.917 9.917 0 0 1-.805.724c-1.932 1.878-4.159 2.71-6.681 2.496-2.791-.269-5.125-1.423-7.003-3.462l-1.53-.483 1.53.483a3.174 3.174 0 0 1-.483-.402c5.367-3.542 10.357-3.327 14.972.644m10.947 13.04c-1.556-4.561-2.736-8.72-3.542-12.477.806 3.756 1.987 7.915 3.542 12.477.805 2.952.402 4.669-1.208 5.152-1.61.375-3.3.429-5.071.161-1.878-.375-3.273-1.073-4.186-2.093.913 1.021 2.308 1.718 4.186 2.093 1.771.268 3.461.214 5.071-.161 1.611-.484 2.013-2.201 1.208-5.152m-6.197 12.235l2.575.563 2.094-.805 6.681 1.046c-2.04 3.328-5.071 5.018-9.096 5.071-3.918.054-7.969-1.395-12.155-4.346l9.901-1.529m-4.669-31.796c-7.19-4.078-13.684-4.266-19.479-.564 5.795-3.702 12.288-3.514 19.479.564m-14.57 6.279c1.878 2.039 4.212 3.193 7.003 3.462 2.522.214 4.749-.618 6.681-2.496-4.186 3.274-8.746 2.952-13.684-.966m27.449-.241a1.425 1.425 0 0 1-.402.402c2.308 2.361 4.642 3.649 7.004 3.864 1.232.107 2.468-.188 3.702-.885.536-.322 1.045-.67 1.529-1.046-1.663 1.181-3.273 1.717-4.829 1.61-2.415-.269-4.75-1.584-7.004-3.945z"/><path fill="#F17474" d="M122.761 178.494c4.186 2.952 8.237 4.4 12.155 4.346 4.025-.054 7.057-1.744 9.096-5.071-2.201 1.181-5.152 1.798-8.855 1.852-3.111.053-7.244-.323-12.396-1.127m12.477-.967l-2.575-.563-9.901 1.53c5.152.805 9.285 1.181 12.396 1.126 3.703-.054 6.654-.671 8.855-1.852l-6.681-1.046-2.094.805z"/><path d="M118.817 150.159c-.483.537-.725 1.154-.725 1.851 0 .644.241 1.208.725 1.691.537.483 1.154.724 1.852.724h.563c-.483-.107-.939-.348-1.369-.724-.482-.483-.725-1.047-.725-1.691 0-.697.242-1.314.725-1.851a3.54 3.54 0 0 1 1.369-.644h-.563c-.697 0-1.315.215-1.852.644m3.623 0a2.942 2.942 0 0 0-1.208-.644 3.553 3.553 0 0 0-1.369.644c-.482.537-.725 1.154-.725 1.851 0 .644.242 1.208.725 1.691.429.376.885.617 1.369.724.429-.107.832-.348 1.208-.724.536-.483.805-1.047.805-1.691 0-.697-.269-1.314-.805-1.851m28.575 1.932c0-.59-.24-1.154-.724-1.691a2.412 2.412 0 0 0-1.771-.724c-.696 0-1.314.242-1.851.724-.484.537-.725 1.101-.725 1.691 0 .75.24 1.368.725 1.851.536.483 1.154.724 1.851.724.698 0 1.288-.241 1.771-.724.483-.483.724-1.1.724-1.851z"/><path fill="none" stroke="#3E271C" stroke-width="2" stroke-linecap="round" stroke-linejoin="round" d="M224.427 91.318c0 4.239-1.529 7.834-4.589 10.786-3.005 3.005-6.653 4.508-10.947 4.508-4.24 0-7.888-1.503-10.947-4.508-3.006-2.952-4.507-6.546-4.507-10.786 0-4.24 1.501-7.862 4.507-10.867 3.06-2.952 6.707-4.427 10.947-4.427 4.294 0 7.942 1.475 10.947 4.427 3.059 3.005 4.589 6.627 4.589 10.867zM6.607 80.451c3.059-2.952 6.708-4.427 10.948-4.427 4.346 0 7.996 1.475 10.947 4.427 3.059 3.004 4.588 6.626 4.588 10.867 0 4.239-1.53 7.834-4.588 10.786-2.952 3.005-6.601 4.508-10.947 4.508-4.239 0-7.889-1.503-10.948-4.508C3.603 99.152 2.1 95.557 2.1 91.318c0-4.24 1.503-7.862 4.507-10.867zm150.607 27.207h-11.35m15.937 0h61.419v229.169m0 14.65v-.644m-212.588.644L4.998 107.658h84.278m17.145 0H92.173m105.61 130.803V132.772h-35.257M34.137 351.477V132.772h54.575m183.769 85.566l-21.813 132.495m-7.647-.322l16.26-134.99m-61.498 135.312v.644"/><path fill="none" stroke="#232323" stroke-linecap="round" stroke-linejoin="round" d="M110.687 106.209c4.293-2.469 8.962-3.784 14.006-3.945 5.743-.214 11.162 1.073 16.26 3.864m-40.328 8.855a41.307 41.307 0 0 1 4.75-4.91m-13.202 18.675a63.539 63.539 0 0 1 2.173-4.267m-3.299 41.374c-.751-7.459-1.208-12.986-1.369-16.582-.108-3.059.51-8.56 1.851-16.501.161-1.288.376-2.63.644-4.024m64.476 2.334c-3.273-1.342-6.333-.778-9.175 1.691a3.179 3.179 0 0 0-.484.402c-5.581 4.99-13.55 5.474-23.907 1.449a64.78 64.78 0 0 0-5.393-1.852c-4.83-1.395-8.854-1.878-12.074-1.449-.805.429-1.529.913-2.174 1.449-5.044 4.185-6.681 12.583-4.91 25.195 5.581 18.191 12.826 29.622 21.733 34.291 9.552 3.971 17.468 4.427 23.747 1.369 3.595-3.542 6.226-6.789 7.889-9.74 2.468-4.723 4.508-10.169 6.117-16.341.107-.376.536-1.744 1.288-4.105.537-1.771.885-3.3 1.047-4.588.482-4.668.32-9.579-.484-14.73-.536-3.167-1.421-6.949-2.655-11.35a15.809 15.809 0 0 1-.565-1.691zm-7.887-19.238a50.926 50.926 0 0 1 2.897 2.978m10.867 17.95c.375 1.449.697 2.978.965 4.588.858 5.313.967 11.135.322 17.467-1.021 10.196-3.246 19.48-6.68 27.852-2.041 4.775-5.742 10.383-11.109 16.823 1.288 9.177 4.534 15.32 9.739 18.433 2.523 1.556 10.947 4.187 25.276 7.889m-18.513-93.052c-.645-2.415-1.45-4.562-2.415-6.439a77.003 77.003 0 0 0-2.415-3.783m-11.672 76.952c-1.181 1.234-4.776 2.28-10.787 3.14-5.956.858-11.886.053-17.789-2.415-5.903-2.576-10.813-6.359-14.73-11.35-3.489-4.4-7.379-12.074-11.672-23.021m-1.207 83.152c6.439 11.752 15.428 18.674 26.966 20.767 11.43 1.985 19.962 2.441 25.597 1.369 7.728-1.021 15.401-4.75 23.021-11.189 7.674-6.548 12.879-17.924 15.616-34.13"/><g><path fill="none" stroke="#031125" stroke-linecap="round" stroke-linejoin="round" d="M223.22 336.827l9.337 11.591-2.657 2.415m-32.117-112.372c-3.382-4.561-8.961-8.772-16.743-12.637M49.108 253.917c-1.449 11.27-1.77 24.524-.965 39.765.429 8.854 1.422 21.681 2.978 38.476.054 3.22.375 6.627.966 10.224.59 3.918 1.315 6.734 2.174 8.452m100.538-.001l.16-.081c-8.692-.107-18.54-2.066-29.541-5.876-7.03-2.47-17.173-6.815-30.428-13.041-6.761-1.609-9.123-4.265-7.083-7.968V286.84m68.179 63.993c-1.77-.967-2.816-1.503-3.139-1.609-.322-.108.187.24 1.529 1.045l.805.564m67.939-14.006l-16.824-20.849-2.013-50.149c-.16-9.552-1.583-17.359-4.267-23.423-.589-1.342-1.367-2.656-2.333-3.945m-22.538 44.354l3.54 37.751c0 1.127.054 2.228.162 3.301.269 4.562 1.074 8.854 2.415 12.88 1.395 4.507 3.192 7.7 5.393 9.577l5.715 4.509m-17.627 0c1.395-2.04 2.468-5.688 3.22-10.948.643-4.937.938-10.275.885-16.018"/></g><g><path fill="none" stroke="#3E271C" stroke-linecap="round" stroke-linejoin="round" d="M92.173 128.748a52.076 52.076 0 0 0-3.461 4.024c-4.668 6.171-8.505 14.516-11.51 25.034-3.864 12.986-7.755 26.751-11.672 41.293-3.917 14.489-10.088 17.038-18.514 7.647-1.234 19.91-.188 35.606 3.14 47.09 3.649 12.61 10.115 20.07 19.399 22.377 2.039-.322 8.801-9.391 20.285-27.206 9.176-3.651 9.579-31.368 1.208-83.152m37.348 2.093c.913 1.021 2.308 1.718 4.186 2.093 1.771.268 3.461.214 5.071-.161 1.61-.483 2.012-2.2 1.208-5.152-1.556-4.561-2.736-8.72-3.542-12.477m-46.123 39.041c-.161 29.945-7.862 53.878-23.103 71.802m89.43 87.739l-1.047-.564.482.483M54.422 250.857c13.576-8.425 24.739-33.888 33.485-76.389m-1.851-26.563c-10.947 61.498-22.324 86.72-34.13 75.664"/></g><g><path fill="none" stroke="#F90" stroke-width="2" stroke-linecap="round" stroke-linejoin="round" d="M140.954 106.128l1.931-2.817 2.979 4.347m11.35 0l4.829-6.278-.242 6.278m-72.525 0l-.322-2.737 3.22 2.737m14.247 0l2.013-4.588 2.253 3.14 7.165 9.981 7.727-12.638 8.936 11.753 6.439-9.177m-40.329 8.854l1.852 1.61 2.898-6.52m-13.202-2.415l8.452 7.325m-6.278 9.498c-.966-.053-1.959-.107-2.979-.16l-2.092-16.663m5.071 16.823c27.207 1.074 48.324.429 63.35-1.931a225.6 225.6 0 0 0 3.542-.644l.563-14.248m-13.04 4.186l2.415 3.623.482-.645m-5.795-7.164l2.897 4.186m2.898 2.978l5.555-7.164m-51.839 2.415l1.046-2.415m166.06 110.68l9.419-15.857-9.419-22.377-13.201 17.708v17.708l13.201 2.818z"/></g><g><path fill="none" stroke="#232323" stroke-width="2" stroke-linecap="round" stroke-linejoin="round" d="M246.804 350.833l-3.783-.322"/></g><g><path fill="none" stroke="#69F" stroke-width="1.7" stroke-linecap="round" stroke-linejoin="round" d="M121.232 154.425h.402c.751 0 1.369-.241 1.852-.724.537-.483.805-1.047.805-1.691 0-.697-.268-1.314-.805-1.851-.483-.429-1.1-.644-1.852-.644h-.402a3.553 3.553 0 0 0-1.369.644c-.482.537-.725 1.154-.725 1.851 0 .644.242 1.208.725 1.691.43.376.886.617 1.369.724zm25.437-4.025c.536-.482 1.154-.724 1.851-.724.698 0 1.288.242 1.771.724.483.537.724 1.101.724 1.691 0 .75-.24 1.368-.724 1.851a2.408 2.408 0 0 1-1.771.724c-.696 0-1.314-.241-1.851-.724-.484-.483-.725-1.101-.725-1.851 0-.59.241-1.153.725-1.691z"/></g><g><path fill="none" stroke="#000" stroke-linecap="round" stroke-linejoin="round" d="M140.873 151.206a1.425 1.425 0 0 1-.402.402c2.308 2.361 4.642 3.649 7.004 3.864 1.232.107 2.468-.188 3.702-.885.536-.322 1.045-.67 1.529-1.046m2.333-2.335l.887-.403m-28.818 1.61c-1.932 1.878-4.159 2.71-6.681 2.496-2.791-.269-5.125-1.423-7.003-3.462l-1.53-.483m1.53.483c5.42-3.756 10.169-3.649 14.248.322a6.016 6.016 0 0 0-.563.644m27.93-1.207l-.563.241a8.285 8.285 0 0 1-1.771 2.093m1.772-2.093c-1.824-1.825-4.052-2.763-6.682-2.817-2.521-.107-4.829.751-6.922 2.576"/></g><g><path fill="none" stroke="#3E271C" stroke-width="1.5" stroke-linecap="round" stroke-linejoin="round" d="M141.598 144.122c5.795-3.757 10.84-3.918 15.134-.483m-28.738 1.529c-7.19-4.078-13.684-4.266-19.479-.564"/></g><g><path fill="none" stroke="#7D0D0D" stroke-linecap="round" stroke-linejoin="round" d="M144.013 177.769c-2.04 3.328-5.071 5.018-9.096 5.071-3.918.054-7.969-1.395-12.155-4.346l9.901-1.53 2.575.563 2.094-.805 6.681 1.047c-2.201 1.181-5.152 1.798-8.855 1.852-3.112.054-7.245-.322-12.396-1.126"/></g></svg>