<?xml version="1.0" encoding="utf-8"?>
<!-- Generator: Adobe Illustrator 16.0.0, SVG Export Plug-In . SVG Version: 6.00 Build 0)  -->
<!DOCTYPE svg PUBLIC "-//W3C//DTD SVG 1.1//EN" "http://www.w3.org/Graphics/SVG/1.1/DTD/svg11.dtd">
<svg version="1.1" id="Layer_1" xmlns="http://www.w3.org/2000/svg" xmlns:xlink="http://www.w3.org/1999/xlink" x="0px" y="0px"
	 width="285px" height="427px" viewBox="0 0 285 427" enable-background="new 0 0 285 427" xml:space="preserve">
<g transform="matrix( 1, 0, 0, 1, 0,0) ">
	<g>
		<g id="Layer0_0_FILL">
			<path fill="#64351A" d="M272.481,218.338l-13.201-2.817l-16.26,134.99l3.783,0.322h3.864L272.481,218.338 M223.22,351.477v-0.644
				h-25.437v0.644H223.22 M157.696,122.55c0.805,1.181,1.61,2.441,2.415,3.783c0.965,1.878,1.771,4.025,2.415,6.439h35.257v105.688
				c0.966,1.289,1.744,2.604,2.333,3.945c2.684,6.063,4.106,13.871,4.267,23.423l2.013,50.149l16.824,20.849V107.658h-61.419
				l-0.563,14.248C160.111,122.121,158.931,122.335,157.696,122.55 M94.347,124.481c-0.966-0.053-1.959-0.107-2.979-0.16
				l-2.092-16.663H4.998l5.635,243.818h23.504V132.772h54.575c1.127-1.449,2.281-2.791,3.461-4.024
				C92.871,127.245,93.595,125.823,94.347,124.481 M106.421,107.658H92.173l8.452,7.325c1.503-1.825,3.086-3.461,4.75-4.91
				L106.421,107.658 M157.214,107.658h-11.35l2.897,4.186c0.965,0.912,1.933,1.905,2.897,2.978L157.214,107.658 M28.502,80.451
				c-2.952-2.952-6.601-4.427-10.947-4.427c-4.239,0-7.889,1.475-10.948,4.427C3.603,83.456,2.1,87.078,2.1,91.318
				c0,4.239,1.502,7.834,4.507,10.786c3.059,3.005,6.708,4.508,10.948,4.508c4.346,0,7.996-1.503,10.947-4.508
				c3.059-2.952,4.588-6.546,4.588-10.786C33.091,87.078,31.561,83.456,28.502,80.451 M193.437,91.318
				c0,4.239,1.501,7.834,4.507,10.786c3.06,3.005,6.707,4.508,10.947,4.508c4.294,0,7.942-1.503,10.947-4.508
				c3.06-2.952,4.589-6.546,4.589-10.786c0-4.24-1.529-7.862-4.589-10.867c-3.005-2.952-6.653-4.427-10.947-4.427
				c-4.24,0-7.888,1.475-10.947,4.427C194.938,83.456,193.437,87.078,193.437,91.318z"/>
			<path fill="#FFFF00" d="M272.481,218.338l9.419-15.857l-9.419-22.377l-13.201,17.708v17.708L272.481,218.338 M161.801,107.658
				l0.242-6.278l-4.829,6.278l-5.555,7.164l-0.482,0.645l-2.415-3.623l-2.897-4.186l-2.979-4.347l-1.931,2.817l-6.439,9.177
				l-8.936-11.753l-7.727,12.638l-7.165-9.981l-2.253-3.14l-2.013,4.588l-1.046,2.415l-2.898,6.52l-1.852-1.61l-8.452-7.325
				l-3.22-2.737l0.322,2.737l2.092,16.663c1.02,0.053,2.013,0.107,2.979,0.16c27.207,1.074,48.324,0.429,63.35-1.931
				c1.234-0.215,2.415-0.429,3.542-0.644L161.801,107.658z"/>
			<path fill="#072552" d="M155.523,350.833l-1.047-0.564l0.805,0.564H155.523 M155.523,350.833h0.563
				c-1.77-0.967-2.816-1.503-3.139-1.609c-0.322-0.108,0.187,0.24,1.529,1.045L155.523,350.833 M50.156,253.837l-1.047,0.08
				c-1.449,11.27-1.77,24.524-0.965,39.765c0.429,8.854,1.422,21.681,2.978,38.476c0.054,3.22,0.375,6.627,0.966,10.224
				c0.59,3.918,1.315,6.734,2.174,8.452h100.538l0.16-0.081c-8.692-0.107-18.54-2.066-29.541-5.876
				c-7.03-2.47-17.173-6.815-30.428-13.041c-6.761-1.609-9.123-4.265-7.083-7.968V286.84v37.027
				c-2.039,3.703,0.322,6.358,7.083,7.968c13.255,6.226,23.397,10.571,30.428,13.041c11,3.81,20.848,5.769,29.541,5.876
				l-0.482-0.483c-1.343-0.805-1.852-1.153-1.529-1.045c0.322,0.106,1.369,0.643,3.139,1.609h18.757
				c1.395-2.04,2.468-5.688,3.22-10.948c0.643-4.937,0.938-10.275,0.885-16.018c-0.108-1.073-0.162-2.174-0.162-3.301l-3.54-37.751
				l3.54,37.751c0,1.127,0.054,2.228,0.162,3.301c0.269,4.562,1.074,8.854,2.415,12.88c1.395,4.507,3.192,7.7,5.393,9.577
				l5.715,4.509h5.313h25.437h6.68l2.657-2.415l-9.337-11.591l-16.824-20.849l-2.013-50.149c-0.16-9.552-1.583-17.359-4.267-23.423
				c-0.589-1.342-1.367-2.656-2.333-3.945c-3.382-4.561-8.961-8.772-16.743-12.637c-2.737,16.206-7.942,27.582-15.616,34.13
				c-7.62,6.439-15.294,10.169-23.021,11.189c-5.635,1.072-14.167,0.616-25.597-1.369c-11.538-2.093-20.526-9.015-26.966-20.767
				c-11.484,17.815-18.246,26.884-20.285,27.206C60.271,273.907,53.805,266.447,50.156,253.837z"/>
			<path fill="#FFFFFF" d="M155.764,217.936c-5.205-3.113-8.451-9.256-9.739-18.433c-1.181,1.234-4.776,2.28-10.787,3.14
				c-5.956,0.858-11.886,0.053-17.789-2.415c-5.903-2.576-10.813-6.359-14.73-11.35c-3.489-4.4-7.379-12.074-11.672-23.021
				c8.371,51.784,7.969,79.501-1.208,83.152c6.439,11.752,15.428,18.674,26.966,20.767c11.43,1.985,19.962,2.441,25.597,1.369
				c7.728-1.021,15.401-4.75,23.021-11.189c7.674-6.548,12.879-17.924,15.616-34.13
				C166.711,222.122,158.287,219.491,155.764,217.936 M148.762,111.844l2.415,3.623l0.482-0.645
				C150.694,113.749,149.727,112.756,148.762,111.844 M94.347,124.481c-0.751,1.342-1.476,2.764-2.173,4.267
				c-0.268,1.395-0.483,2.736-0.644,4.024c-1.341,7.942-1.959,13.442-1.851,16.501c0.161,3.596,0.617,9.123,1.369,16.582
				c4.293,10.947,8.183,18.621,11.672,23.021c3.917,4.991,8.828,8.774,14.73,11.35c5.902,2.468,11.833,3.273,17.789,2.415
				c6.011-0.859,9.606-1.906,10.787-3.14c5.367-6.44,9.068-12.048,11.109-16.823c3.434-8.372,5.659-17.655,6.68-27.852
				c0.645-6.332,0.536-12.154-0.322-17.467c-0.268-1.61-0.59-3.139-0.965-4.588c-0.645-2.415-1.45-4.562-2.415-6.439
				c-0.805-1.342-1.61-2.603-2.415-3.783C142.67,124.91,121.554,125.555,94.347,124.481 M103.442,132.772
				c0.645-0.537,1.369-1.02,2.174-1.449c3.22-0.429,7.244,0.054,12.074,1.449c1.663,0.483,3.461,1.1,5.393,1.852
				c10.357,4.024,18.326,3.541,23.907-1.449c0.162-0.161,0.322-0.295,0.484-0.402c2.842-2.469,5.901-3.033,9.175-1.691
				c0.162,0.59,0.349,1.154,0.564,1.691c1.234,4.4,2.119,8.183,2.655,11.35c0.805,5.152,0.967,10.062,0.484,14.73
				c-0.162,1.288-0.51,2.817-1.047,4.588c-0.752,2.361-1.181,3.729-1.288,4.105c-1.609,6.171-3.649,11.618-6.117,16.341
				c-1.663,2.951-4.294,6.197-7.889,9.74c-6.279,3.059-14.195,2.603-23.747-1.369c-8.908-4.668-16.152-16.099-21.733-34.291
				C96.762,145.356,98.398,136.958,103.442,132.772 M127.108,152.413c0.161-0.215,0.349-0.43,0.563-0.644
				c-4.078-3.971-8.828-4.078-14.248-0.322C118.362,155.365,122.922,155.687,127.108,152.413 M121.232,149.515
				c0.107,0,0.241,0,0.402,0c0.751,0,1.369,0.215,1.852,0.644c0.537,0.537,0.805,1.154,0.805,1.851c0,0.644-0.268,1.208-0.805,1.691
				c-0.483,0.483-1.1,0.724-1.852,0.724c-0.161,0-0.295,0-0.402,0c-0.215,0-0.402,0-0.563,0c-0.697,0-1.314-0.241-1.852-0.724
				c-0.483-0.483-0.725-1.047-0.725-1.691c0-0.697,0.241-1.314,0.725-1.851c0.537-0.429,1.154-0.644,1.852-0.644
				C120.83,149.515,121.018,149.515,121.232,149.515 M121.232,149.515c0.429,0.107,0.832,0.322,1.208,0.644
				c0.536,0.537,0.805,1.154,0.805,1.851c0,0.644-0.269,1.208-0.805,1.691c-0.376,0.376-0.778,0.617-1.208,0.724
				c0.107,0,0.241,0,0.402,0c0.751,0,1.369-0.241,1.852-0.724c0.537-0.483,0.805-1.047,0.805-1.691c0-0.697-0.268-1.314-0.805-1.851
				c-0.483-0.429-1.1-0.644-1.852-0.644C121.474,149.515,121.339,149.515,121.232,149.515 M127.108,152.413
				c0.268-0.215,0.537-0.456,0.805-0.724c-4.615-3.971-9.605-4.186-14.972-0.645c0.161,0.161,0.322,0.295,0.483,0.402
				c5.42-3.756,10.169-3.649,14.248,0.322C127.458,151.983,127.27,152.198,127.108,152.413 M154.477,151.447l0.563-0.241
				c-2.897-1.986-5.445-2.979-7.646-2.979c-2.253-0.054-4.427,0.939-6.52,2.979c2.093-1.825,4.401-2.683,6.922-2.576
				C150.425,148.684,152.652,149.622,154.477,151.447 M152.706,153.54c0.698-0.59,1.288-1.289,1.771-2.093
				c-1.824-1.825-4.052-2.763-6.682-2.817c-2.521-0.107-4.829,0.751-6.922,2.576c2.254,2.361,4.589,3.676,7.004,3.944
				C149.433,155.257,151.043,154.721,152.706,153.54 M150.291,150.4c0.483,0.537,0.724,1.101,0.724,1.691
				c0,0.75-0.24,1.368-0.724,1.851c-0.483,0.483-1.073,0.724-1.771,0.724c-0.696,0-1.314-0.241-1.851-0.724
				c-0.484-0.483-0.725-1.101-0.725-1.851c0-0.59,0.24-1.154,0.725-1.691c0.536-0.482,1.154-0.724,1.851-0.724
				C149.218,149.676,149.808,149.918,150.291,150.4 M152.706,153.54c0.806-0.59,1.636-1.342,2.495-2.254
				c-0.055-0.054-0.108-0.081-0.162-0.081l-0.563,0.241C153.994,152.251,153.404,152.95,152.706,153.54 M100.625,114.983l1.852,1.61
				l2.898-6.52C103.711,111.521,102.128,113.158,100.625,114.983 M124.693,102.265c-5.044,0.161-9.713,1.476-14.006,3.945
				l7.165,9.981l7.727-12.638l8.936,11.753l6.439-9.177C135.855,103.338,130.436,102.05,124.693,102.265z"/>
			<path fill="#AC1717" d="M162.526,132.772c0.375,1.449,0.697,2.978,0.965,4.588c0.858,5.313,0.967,11.135,0.322,17.467
				c-1.021,10.196-3.246,19.48-6.68,27.852c-2.041,4.775-5.742,10.383-11.109,16.823c1.288,9.177,4.534,15.32,9.739,18.433
				c2.523,1.556,10.947,4.187,25.276,7.889c7.782,3.864,13.361,8.076,16.743,12.637V132.772H162.526 M77.202,157.806
				c3.005-10.518,6.842-18.863,11.51-25.034H34.137v218.704h163.646v-0.644h-5.313l-5.715-4.509c-2.2-1.877-3.998-5.07-5.393-9.577
				c-1.341-4.025-2.146-8.318-2.415-12.88c0.054,5.742-0.242,11.081-0.885,16.018c-0.752,5.261-1.825,8.908-3.22,10.948h-18.757
				h-0.563h-0.242l-0.805-0.564l0.482,0.483l-0.16,0.081H54.261c-0.858-1.718-1.583-4.534-2.174-8.452
				c-0.59-3.597-0.912-7.004-0.966-10.224c-1.556-16.795-2.549-29.621-2.978-38.476c-0.805-15.24-0.484-28.495,0.965-39.765
				l1.047-0.08c-3.328-11.484-4.374-27.181-3.14-47.09c8.425,9.391,14.597,6.842,18.514-7.647
				C69.447,184.557,73.338,170.792,77.202,157.806z"/>
			<path fill="#875D33" d="M92.173,128.748c-1.18,1.234-2.334,2.575-3.461,4.024c-4.668,6.171-8.505,14.516-11.51,25.034
				c-3.864,12.986-7.755,26.751-11.672,41.293c-3.917,14.489-10.088,17.038-18.514,7.647c-1.234,19.91-0.188,35.606,3.14,47.09
				c3.649,12.61,10.115,20.07,19.399,22.377c2.039-0.322,8.801-9.391,20.285-27.206c9.176-3.651,9.579-31.368,1.208-83.152
				c-0.751-7.459-1.208-12.986-1.369-16.582c-0.108-3.059,0.51-8.56,1.851-16.501C91.69,131.484,91.905,130.143,92.173,128.748
				 M89.196,191.292c-0.161,29.945-7.862,53.878-23.103,71.802C81.334,245.17,89.035,221.236,89.196,191.292 M54.422,250.857
				c13.576-8.425,24.739-33.888,33.485-76.389C79.161,216.97,67.998,242.433,54.422,250.857 M86.056,147.905
				c-10.947,61.498-22.324,86.72-34.13,75.664C63.732,234.625,75.109,209.403,86.056,147.905z"/>
			<path fill="#EBC6AF" d="M105.616,131.323c-0.805,0.429-1.529,0.913-2.174,1.449c-5.044,4.185-6.681,12.583-4.91,25.195
				c5.581,18.191,12.826,29.622,21.733,34.291c9.552,3.971,17.468,4.427,23.747,1.369c3.595-3.542,6.226-6.789,7.889-9.74
				c2.468-4.723,4.508-10.169,6.117-16.341c0.107-0.376,0.536-1.744,1.288-4.105c0.537-1.771,0.885-3.3,1.047-4.588
				c0.482-4.668,0.32-9.579-0.484-14.73c-0.536-3.167-1.421-6.949-2.655-11.35c-0.216-0.537-0.402-1.101-0.564-1.691
				c-3.273-1.342-6.333-0.778-9.175,1.691c-0.162,0.107-0.322,0.241-0.484,0.402c-5.581,4.99-13.55,5.474-23.907,1.449
				c-1.932-0.752-3.73-1.369-5.393-1.852C112.86,131.377,108.836,130.894,105.616,131.323 M141.598,144.122
				c5.795-3.757,10.84-3.918,15.134-0.483C152.438,140.204,147.393,140.365,141.598,144.122 M140.47,151.608
				c0.161-0.107,0.295-0.241,0.402-0.402c2.093-2.039,4.267-3.032,6.52-2.979c2.201,0,4.749,0.993,7.646,2.979l0.887-0.403
				l-0.887,0.403c0.054,0,0.107,0.026,0.162,0.081c-0.859,0.912-1.689,1.664-2.495,2.254c-0.484,0.376-0.993,0.724-1.529,1.046
				c-1.234,0.698-2.47,0.993-3.702,0.885C145.112,155.257,142.778,153.969,140.47,151.608 M127.913,151.689
				c-0.268,0.268-0.537,0.509-0.805,0.724c-1.932,1.878-4.159,2.71-6.681,2.496c-2.791-0.269-5.125-1.423-7.003-3.462l-1.53-0.483
				l1.53,0.483c-0.161-0.107-0.322-0.241-0.483-0.402C118.308,147.503,123.298,147.718,127.913,151.689 M138.86,164.729
				c-1.556-4.561-2.736-8.72-3.542-12.477C136.124,156.008,137.305,160.167,138.86,164.729c0.805,2.952,0.402,4.669-1.208,5.152
				c-1.61,0.375-3.3,0.429-5.071,0.161c-1.878-0.375-3.273-1.073-4.186-2.093c0.913,1.021,2.308,1.718,4.186,2.093
				c1.771,0.268,3.461,0.214,5.071-0.161C139.263,169.397,139.665,167.68,138.86,164.729 M132.663,176.964l2.575,0.563l2.094-0.805
				l6.681,1.046c-2.04,3.328-5.071,5.018-9.096,5.071c-3.918,0.054-7.969-1.395-12.155-4.346L132.663,176.964 M127.994,145.168
				c-7.19-4.078-13.684-4.266-19.479-0.564C114.31,140.902,120.803,141.09,127.994,145.168 M113.424,151.447
				c1.878,2.039,4.212,3.193,7.003,3.462c2.522,0.214,4.749-0.618,6.681-2.496C122.922,155.687,118.362,155.365,113.424,151.447
				 M140.873,151.206c-0.107,0.161-0.241,0.295-0.402,0.402c2.308,2.361,4.642,3.649,7.004,3.864
				c1.232,0.107,2.468-0.188,3.702-0.885c0.536-0.322,1.045-0.67,1.529-1.046c-1.663,1.181-3.273,1.717-4.829,1.61
				C145.462,154.882,143.127,153.567,140.873,151.206z"/>
			<path fill="#F17474" d="M122.761,178.494c4.186,2.952,8.237,4.4,12.155,4.346c4.025-0.054,7.057-1.744,9.096-5.071
				c-2.201,1.181-5.152,1.798-8.855,1.852C132.046,179.674,127.913,179.298,122.761,178.494 M135.238,177.527l-2.575-0.563
				l-9.901,1.53c5.152,0.805,9.285,1.181,12.396,1.126c3.703-0.054,6.654-0.671,8.855-1.852l-6.681-1.046L135.238,177.527z"/>
			<path d="M118.817,150.159c-0.483,0.537-0.725,1.154-0.725,1.851c0,0.644,0.241,1.208,0.725,1.691
				c0.537,0.483,1.154,0.724,1.852,0.724c0.161,0,0.349,0,0.563,0c-0.483-0.107-0.939-0.348-1.369-0.724
				c-0.482-0.483-0.725-1.047-0.725-1.691c0-0.697,0.242-1.314,0.725-1.851c0.429-0.322,0.885-0.537,1.369-0.644
				c-0.215,0-0.402,0-0.563,0C119.972,149.515,119.354,149.73,118.817,150.159 M122.44,150.159
				c-0.376-0.322-0.778-0.537-1.208-0.644c-0.483,0.107-0.939,0.322-1.369,0.644c-0.482,0.537-0.725,1.154-0.725,1.851
				c0,0.644,0.242,1.208,0.725,1.691c0.429,0.376,0.885,0.617,1.369,0.724c0.429-0.107,0.832-0.348,1.208-0.724
				c0.536-0.483,0.805-1.047,0.805-1.691C123.245,151.313,122.976,150.696,122.44,150.159 M151.015,152.091
				c0-0.59-0.24-1.154-0.724-1.691c-0.483-0.482-1.073-0.724-1.771-0.724c-0.696,0-1.314,0.242-1.851,0.724
				c-0.484,0.537-0.725,1.101-0.725,1.691c0,0.75,0.24,1.368,0.725,1.851c0.536,0.483,1.154,0.724,1.851,0.724
				c0.698,0,1.288-0.241,1.771-0.724C150.774,153.459,151.015,152.842,151.015,152.091z"/>
		</g>
	</g>
	<g>
		<path id="Layer0_0_1_STROKES" fill="none" stroke="#3E271C" stroke-width="2" stroke-linecap="round" stroke-linejoin="round" d="
			M224.427,91.318c0,4.239-1.529,7.834-4.589,10.786c-3.005,3.005-6.653,4.508-10.947,4.508c-4.24,0-7.888-1.503-10.947-4.508
			c-3.006-2.952-4.507-6.546-4.507-10.786c0-4.24,1.501-7.862,4.507-10.867c3.06-2.952,6.707-4.427,10.947-4.427
			c4.294,0,7.942,1.475,10.947,4.427C222.897,83.456,224.427,87.078,224.427,91.318z M6.607,80.451
			c3.059-2.952,6.708-4.427,10.948-4.427c4.346,0,7.996,1.475,10.947,4.427c3.059,3.004,4.588,6.626,4.588,10.867
			c0,4.239-1.53,7.834-4.588,10.786c-2.952,3.005-6.601,4.508-10.947,4.508c-4.239,0-7.889-1.503-10.948-4.508
			C3.603,99.152,2.1,95.557,2.1,91.318C2.1,87.078,3.603,83.456,6.607,80.451z M157.214,107.658h-11.35 M161.801,107.658h61.419
			v229.169 M223.22,351.477v-0.644 M10.632,351.477L4.998,107.658h84.278 M106.421,107.658H92.173 M197.783,238.461V132.772h-35.257
			 M34.137,351.477V132.772h54.575 M272.481,218.338l-21.813,132.495 M243.021,350.511l16.26-134.99 M197.783,350.833v0.644"/>
	</g>
	<g>
		<path id="Layer0_0_2_STROKES" fill="none" stroke="#232323" stroke-linecap="round" stroke-linejoin="round" d="M110.687,106.209
			c4.293-2.469,8.962-3.784,14.006-3.945c5.743-0.214,11.162,1.073,16.26,3.864 M100.625,114.983c1.503-1.825,3.086-3.461,4.75-4.91
			 M92.173,128.748c0.698-1.503,1.422-2.925,2.173-4.267 M91.047,165.855c-0.751-7.459-1.208-12.986-1.369-16.582
			c-0.108-3.059,0.51-8.56,1.851-16.501c0.161-1.288,0.376-2.63,0.644-4.024 M156.649,131.082c-3.273-1.342-6.333-0.778-9.175,1.691
			c-0.162,0.107-0.322,0.241-0.484,0.402c-5.581,4.99-13.55,5.474-23.907,1.449c-1.932-0.752-3.73-1.369-5.393-1.852
			c-4.83-1.395-8.854-1.878-12.074-1.449c-0.805,0.429-1.529,0.913-2.174,1.449c-5.044,4.185-6.681,12.583-4.91,25.195
			c5.581,18.191,12.826,29.622,21.733,34.291c9.552,3.971,17.468,4.427,23.747,1.369c3.595-3.542,6.226-6.789,7.889-9.74
			c2.468-4.723,4.508-10.169,6.117-16.341c0.107-0.376,0.536-1.744,1.288-4.105c0.537-1.771,0.885-3.3,1.047-4.588
			c0.482-4.668,0.32-9.579-0.484-14.73c-0.536-3.167-1.421-6.949-2.655-11.35C156.998,132.236,156.812,131.672,156.649,131.082z
			 M148.762,111.844c0.965,0.912,1.933,1.905,2.897,2.978 M162.526,132.772c0.375,1.449,0.697,2.978,0.965,4.588
			c0.858,5.313,0.967,11.135,0.322,17.467c-1.021,10.196-3.246,19.48-6.68,27.852c-2.041,4.775-5.742,10.383-11.109,16.823
			c1.288,9.177,4.534,15.32,9.739,18.433c2.523,1.556,10.947,4.187,25.276,7.889 M162.526,132.772
			c-0.645-2.415-1.45-4.562-2.415-6.439c-0.805-1.342-1.61-2.603-2.415-3.783 M146.024,199.502c-1.181,1.234-4.776,2.28-10.787,3.14
			c-5.956,0.858-11.886,0.053-17.789-2.415c-5.903-2.576-10.813-6.359-14.73-11.35c-3.489-4.4-7.379-12.074-11.672-23.021
			 M89.839,249.008c6.439,11.752,15.428,18.674,26.966,20.767c11.43,1.985,19.962,2.441,25.597,1.369
			c7.728-1.021,15.401-4.75,23.021-11.189c7.674-6.548,12.879-17.924,15.616-34.13"/>
	</g>
	<g>
		<path id="Layer0_0_3_STROKES" fill="none" stroke="#031125" stroke-linecap="round" stroke-linejoin="round" d="M223.22,336.827
			l9.337,11.591l-2.657,2.415 M197.783,238.461c-3.382-4.561-8.961-8.772-16.743-12.637 M49.108,253.917
			c-1.449,11.27-1.77,24.524-0.965,39.765c0.429,8.854,1.422,21.681,2.978,38.476c0.054,3.22,0.375,6.627,0.966,10.224
			c0.59,3.918,1.315,6.734,2.174,8.452 M154.799,350.833l0.16-0.081c-8.692-0.107-18.54-2.066-29.541-5.876
			c-7.03-2.47-17.173-6.815-30.428-13.041c-6.761-1.609-9.123-4.265-7.083-7.968V286.84 M156.086,350.833
			c-1.77-0.967-2.816-1.503-3.139-1.609c-0.322-0.108,0.187,0.24,1.529,1.045l0.805,0.564 M223.22,336.827l-16.824-20.849
			l-2.013-50.149c-0.16-9.552-1.583-17.359-4.267-23.423c-0.589-1.342-1.367-2.656-2.333-3.945 M175.245,282.815l3.54,37.751
			c0,1.127,0.054,2.228,0.162,3.301c0.269,4.562,1.074,8.854,2.415,12.88c1.395,4.507,3.192,7.7,5.393,9.577l5.715,4.509
			 M174.843,350.833c1.395-2.04,2.468-5.688,3.22-10.948c0.643-4.937,0.938-10.275,0.885-16.018"/>
	</g>
	<g>
		<path id="Layer0_0_4_STROKES" fill="none" stroke="#3E271C" stroke-linecap="round" stroke-linejoin="round" d="M92.173,128.748
			c-1.18,1.234-2.334,2.575-3.461,4.024c-4.668,6.171-8.505,14.516-11.51,25.034c-3.864,12.986-7.755,26.751-11.672,41.293
			c-3.917,14.489-10.088,17.038-18.514,7.647c-1.234,19.91-0.188,35.606,3.14,47.09c3.649,12.61,10.115,20.07,19.399,22.377
			c2.039-0.322,8.801-9.391,20.285-27.206c9.176-3.651,9.579-31.368,1.208-83.152 M128.396,167.948
			c0.913,1.021,2.308,1.718,4.186,2.093c1.771,0.268,3.461,0.214,5.071-0.161c1.61-0.483,2.012-2.2,1.208-5.152
			c-1.556-4.561-2.736-8.72-3.542-12.477 M89.196,191.292c-0.161,29.945-7.862,53.878-23.103,71.802 M155.523,350.833l-1.047-0.564
			l0.482,0.483 M54.422,250.857c13.576-8.425,24.739-33.888,33.485-76.389 M86.056,147.905
			c-10.947,61.498-22.324,86.72-34.13,75.664"/>
	</g>
	<g>
		<path id="Layer0_0_5_STROKES" fill="none" stroke="#FF9900" stroke-width="2" stroke-linecap="round" stroke-linejoin="round" d="
			M140.954,106.128l1.931-2.817l2.979,4.347 M157.214,107.658l4.829-6.278l-0.242,6.278 M89.276,107.658l-0.322-2.737l3.22,2.737
			 M106.421,107.658l2.013-4.588l2.253,3.14l7.165,9.981l7.727-12.638l8.936,11.753l6.439-9.177 M100.625,114.983l1.852,1.61
			l2.898-6.52 M92.173,107.658l8.452,7.325 M94.347,124.481c-0.966-0.053-1.959-0.107-2.979-0.16l-2.092-16.663 M94.347,124.481
			c27.207,1.074,48.324,0.429,63.35-1.931c1.234-0.215,2.415-0.429,3.542-0.644l0.563-14.248 M148.762,111.844l2.415,3.623
			l0.482-0.645 M145.864,107.658l2.897,4.186 M151.659,114.822l5.555-7.164 M105.375,110.073l1.046-2.415 M272.481,218.338
			l9.419-15.857l-9.419-22.377l-13.201,17.708v17.708L272.481,218.338z"/>
	</g>
	<g>
		<path id="Layer0_0_6_STROKES" fill="none" stroke="#232323" stroke-width="2" stroke-linecap="round" stroke-linejoin="round" d="
			M246.804,350.833l-3.783-0.322"/>
	</g>
	<g>
		
			<path id="Layer0_0_7_STROKES" fill="none" stroke="#6699FF" stroke-width="1.7" stroke-linecap="round" stroke-linejoin="round" d="
			M121.232,154.425c0.107,0,0.241,0,0.402,0c0.751,0,1.369-0.241,1.852-0.724c0.537-0.483,0.805-1.047,0.805-1.691
			c0-0.697-0.268-1.314-0.805-1.851c-0.483-0.429-1.1-0.644-1.852-0.644c-0.161,0-0.295,0-0.402,0
			c-0.483,0.107-0.939,0.322-1.369,0.644c-0.482,0.537-0.725,1.154-0.725,1.851c0,0.644,0.242,1.208,0.725,1.691
			C120.293,154.077,120.749,154.318,121.232,154.425z M146.669,150.4c0.536-0.482,1.154-0.724,1.851-0.724
			c0.698,0,1.288,0.242,1.771,0.724c0.483,0.537,0.724,1.101,0.724,1.691c0,0.75-0.24,1.368-0.724,1.851
			c-0.483,0.483-1.073,0.724-1.771,0.724c-0.696,0-1.314-0.241-1.851-0.724c-0.484-0.483-0.725-1.101-0.725-1.851
			C145.944,151.501,146.185,150.938,146.669,150.4z"/>
	</g>
	<g>
		<path id="Layer0_0_8_STROKES" fill="none" stroke="#000000" stroke-linecap="round" stroke-linejoin="round" d="M140.873,151.206
			c-0.107,0.161-0.241,0.295-0.402,0.402c2.308,2.361,4.642,3.649,7.004,3.864c1.232,0.107,2.468-0.188,3.702-0.885
			c0.536-0.322,1.045-0.67,1.529-1.046 M155.039,151.206l0.887-0.403 M127.108,152.413c-1.932,1.878-4.159,2.71-6.681,2.496
			c-2.791-0.269-5.125-1.423-7.003-3.462l-1.53-0.483 M113.424,151.447c5.42-3.756,10.169-3.649,14.248,0.322
			c-0.214,0.214-0.402,0.429-0.563,0.644 M155.039,151.206l-0.563,0.241c-0.482,0.805-1.072,1.503-1.771,2.093 M154.477,151.447
			c-1.824-1.825-4.052-2.763-6.682-2.817c-2.521-0.107-4.829,0.751-6.922,2.576"/>
	</g>
	<g>
		
			<path id="Layer0_0_9_STROKES" fill="none" stroke="#3E271C" stroke-width="1.5" stroke-linecap="round" stroke-linejoin="round" d="
			M141.598,144.122c5.795-3.757,10.84-3.918,15.134-0.483 M127.994,145.168c-7.19-4.078-13.684-4.266-19.479-0.564"/>
	</g>
	<g>
		<path id="Layer0_0_10_STROKES" fill="none" stroke="#7D0D0D" stroke-linecap="round" stroke-linejoin="round" d="M144.013,177.769
			c-2.04,3.328-5.071,5.018-9.096,5.071c-3.918,0.054-7.969-1.395-12.155-4.346l9.901-1.53l2.575,0.563l2.094-0.805L144.013,177.769
			c-2.201,1.181-5.152,1.798-8.855,1.852c-3.112,0.054-7.245-0.322-12.396-1.126"/>
	</g>
</g>
</svg>
