<?xml version="1.0" encoding="utf-8"?>
<!-- Generator: Adobe Illustrator 16.0.0, SVG Export Plug-In . SVG Version: 6.00 Build 0)  -->
<!DOCTYPE svg PUBLIC "-//W3C//DTD SVG 1.1//EN" "http://www.w3.org/Graphics/SVG/1.1/DTD/svg11.dtd">
<svg version="1.1" id="Layer_1" xmlns="http://www.w3.org/2000/svg" xmlns:xlink="http://www.w3.org/1999/xlink" x="0px" y="0px"
	 width="900px" height="450px" viewBox="0 0 900 450" enable-background="new 0 0 900 450" xml:space="preserve">
<g transform="matrix( 1, 0, 0, 1, 0,0) ">
	<g>
		<g id="Layer0_0_FILL">
			
				<linearGradient id="SVGID_1_" gradientUnits="userSpaceOnUse" x1="422.6074" y1="452.9668" x2="420.1423" y2="-142.8804" gradientTransform="matrix(1 0 0 -1 29.04 379.3398)">
				<stop  offset="0" style="stop-color:#A399FF"/>
				<stop  offset="0.4902" style="stop-color:#FFFFFF"/>
			</linearGradient>
			<path fill="url(#SVGID_1_)" d="M540.934,29.394c-0.49,0.839-0.978,1.679-1.469,2.518c1.049,3.147,1.118,6.468,0.211,9.966
				l-1.26,0.104l-4.405,0.524c-31.819,63.362-37.557,121.408-17.205,174.139c7.555,0,13.779,0.105,18.674,0.314
				c1.258,0,2.481,0.035,3.672,0.105l207.916,1.468V201.54h0.524V17.96c-0.728-0.28-1.603-0.42-2.623-0.42H159.508
				c-3.567,0-5.35,1.958-5.35,5.874V185.28h2.307v28.848l165.537,1.258c-6.784-55.598,7.728-109.658,43.535-162.179
				c0-1.188,0.209-2.413,0.629-3.672c-0.77-0.49-0.734-0.944,0.104-1.363c0.071-0.35,0.175-0.63,0.315-0.839v-0.944l3.986-0.21
				c0-0.14,0-0.245,0-0.314l7.133-0.735c2.937-0.698,6.923-1.259,11.959-1.678c5.175-0.63,10.42-1.049,15.735-1.259
				c2.028-0.069,4.056-0.175,6.084-0.314l23.813-2.308c0.489-0.14,0.979-0.245,1.468-0.314c0.769-0.42,1.958-0.7,3.567-0.839
				c0.349,0,0.734-0.036,1.153-0.105l0.106-4.931c6.153-1.538,12.272-1.398,18.357,0.42l-0.104,2.937
				c0.418-0.07,0.838-0.139,1.259-0.21c2.237-0.28,4.3-0.384,6.189-0.314h0.104c0.209,0,0.42-0.035,0.629-0.104
				c0.071-0.07,1.678-0.175,4.825-0.314c2.237-0.141,4.092-0.245,5.561-0.315l0.84-0.104l1.049-0.104h0.104l0.733-0.106
				c2.31-0.349,5.489-0.908,9.546-1.678c2.799-0.42,5.807-0.56,9.023-0.42c3.217-0.07,6.818-0.314,10.804-0.735
				c1.121-0.139,4.932-0.874,11.435-2.202c4.196-0.07,7.659-0.035,10.386,0.104L540.934,29.394 M744.969,431.172
				c0.63,0,1.191-0.071,1.679-0.211h-78.782c-1.118,0.069-2.236,0.14-3.355,0.211H744.969 M157.83,430.961
				c0.488,0.14,1.049,0.211,1.678,0.211h254.179c-1.119-0.071-2.238-0.142-3.357-0.211H157.83 M366.586,47.333
				c-0.14,0.209-0.245,0.49-0.315,0.839h0.105C366.376,47.892,366.446,47.612,366.586,47.333z"/>
			<path fill="#9FAEE8" d="M747.067,245.283v-9.966c-34.173,5.385-79.667,7.902-136.478,7.555
				c-3.638-0.07-10.525-0.177-20.666-0.316c-2.167-0.069-4.126-0.104-5.876-0.104c4.547,0.351,9.268,0.769,14.162,1.259
				c1.541,0.071,3.567,0.104,6.085,0.104c-13.567,0.84-26.435,1.713-38.604,2.622c6.574,0.351,13.08,0.771,19.514,1.26
				c20.21,1.399,42.764,3.183,67.662,5.351C683.447,250.745,714.849,248.158,747.067,245.283 M708.148,278.852
				c0.07,3.008-0.348,6.051-1.258,9.128c13.511-0.131,26.904-0.34,40.177-0.631v-11.433c-11.714,0.299-24.757,0.649-39.128,1.049
				C708.01,277.522,708.079,278.153,708.148,278.852 M747.067,233.744v-0.42c-11.701,1.049-25.759,2.27-42.17,3.671
				c-2.519-1.118-6.366-2.061-11.54-2.831c-8.463-1.188-22.31-2.099-41.541-2.728c-4.546-0.141-8.916-0.243-13.112-0.315
				c1.397-0.838,2.131-1.747,2.202-2.727c-1.608-0.42-3.042-0.804-4.301-1.153c0.349-0.142,1.748-0.212,4.196-0.212
				c-0.139-0.979-0.454-1.852-0.944-2.621c-1.26-2.028-3.219-3.042-5.874-3.042c-6.505-0.07-11.646,0.07-15.422,0.42
				c-8.181,0.77-12.447,1.188-12.798,1.259c-14.547,0.909-43.114,1.329-85.706,1.258c1.118,2.657,2.379,5.316,3.778,7.972
				c48.673,2.519,89.027,4.336,121.056,5.457l0.315,1.153c-27.694-0.42-67.347-1.959-118.96-4.616
				c-0.489-0.069-1.014-0.104-1.573-0.104c0.979,2.028,2.028,4.02,3.146,5.979c1.399-0.14,2.765-0.209,4.092-0.209
				c15.315,0.069,29.651,0.664,43.01,1.782C664.11,239.803,721.493,237.143,747.067,233.744 M730.703,381.868
				c1.327,0,2.692,0.032,4.092,0.104c4.423,0.108,8.515,0.247,12.272,0.42v-1.89C741.205,380.982,735.751,381.436,730.703,381.868
				 M747.067,366.55v-9.965l-42.694,4.932c-21.053,2.026-40.878,3.811-59.481,5.35c6.925,0,14.162,0,21.716,0
				C704.719,366.999,731.539,366.895,747.067,366.55 M747.067,315.464v-13.009c-17.327,0.224-34.88,0.502-52.66,0.84
				c-1.121,0.42-2.203,0.664-3.252,0.733c-0.84,0.072-1.68-0.069-2.518-0.42l-0.421-0.104l-1.469-0.104
				c-2.866,0.07-5.77,0.14-8.705,0.209c2.167-0.139,4.509-0.278,7.027-0.418l-7.238-0.944c-1.748,1.817-3.601,3.217-5.559,4.196
				c-1.681,0.978-3.287,1.502-4.828,1.573c-0.838,0-1.678-0.142-2.516-0.42l-13.429-1.889c-0.278,0.562-0.559,1.118-0.84,1.68
				c-1.049,1.817-2.131,3.461-3.251,4.93c22.658,0.489,47.766,1.258,75.32,2.307C731.56,314.929,739.671,315.209,747.067,315.464
				 M705.422,291.756c-0.211,0.42-0.385,0.806-0.524,1.153c-2.519,4.545-5.561,7.798-9.128,9.757
				c13.556-0.61,30.653-1.241,51.298-1.889v-9.232C733.784,291.685,719.901,291.756,705.422,291.756 M285.077,413.443
				c-5.805,0-11.47,0-16.995,0c0,0.209,0,0.489,0,0.838c0,6.225,40.808,11.435,122.422,15.631c6.784,0.351,13.393,0.7,19.826,1.049
				c1.12,0.069,2.239,0.14,3.357,0.211c6.294,0.278,12.414,0.56,18.358,0.838h214.211c6.155-0.278,12.24-0.56,18.254-0.838
				c1.119-0.071,2.237-0.142,3.355-0.211c28.384-1.483,54.785-3.44,79.202-5.874v-13.638c-25.429,2.207-47.946,3.887-67.558,5.036
				c-49.861,2.866-103.153,4.301-159.87,4.301c-53.431-0.069-108.925-2.274-166.482-6.609c-4.196-0.349-8.321-0.664-12.378-0.944
				C321.617,413.373,303.049,413.443,285.077,413.443 M260.214,394.665c-32.73,0.979-54.864,2.377-66.403,4.196
				c-10.84,1.538-16.225,4.092-16.155,7.658c-0.07,0.07,0.07,0.629,0.42,1.679c14.617,0.489,32.485,0.872,53.605,1.153
				c23.568-2.099,36.437-3.147,38.604-3.147c99.098-0.56,176.132-1.153,231.101-1.782c27.625-1.33,60.389-3.077,98.293-5.245
				c61.85-3.735,110.979-6.393,147.389-7.975v-4.405c-13.976-0.346-32.333-0.942-55.074-1.782
				c-18.671,1.328-33.952,2.099-45.842,2.308C391.377,392.077,262.732,394.525,260.214,394.665 M342.877,351.76
				c-1.888,2.309-5.735,3.428-11.539,3.357c-6.084-0.491-10.036-0.631-11.854-0.42l-16.994,2.099
				c-9.791,1.118-20.071,1.993-30.841,2.622c-20.072,0.908-45.424,1.33-76.055,1.258c-14.478-0.209-26.891-0.42-37.24-0.629
				c0,0.14-0.036,0.315-0.105,0.524c0.14,1.119,1.714,2.063,4.72,2.832c7.694,1.61,28.883,2.448,63.572,2.518
				c59.165,0.142,117.211-1.014,174.139-3.46c29.792-1.188,60.563-2.729,92.314-4.616c4.755-0.281,9.511-0.49,14.266-0.629
				c-0.069,0.278-0.104,0.557-0.104,0.838c0,1.469,0.421,2.797,1.259,3.987c1.12,1.678,3.008,2.657,5.665,2.936
				c17.694,0.979,53.466,1.573,107.316,1.785c28.112-2.938,55.772-5.7,82.978-8.288c16.741-1.532,30.975-2.827,42.694-3.881v-2.098
				c-33.294,0.557-61.198,0.803-83.711,0.733c-1.308-0.058-2.565-0.092-3.778-0.104c8.208-0.373,13.733-0.897,16.575-1.573
				c3.776-1.05,5.665-3.112,5.665-6.19c-0.071-6.642-28.778-8.951-86.124-6.923c-3.147,0.069-6.331,0.174-9.548,0.313
				c-2.308,2.868-4.825,4.967-7.553,6.294c-1.959,0.84-3.741,1.226-5.35,1.156c-0.909,0-1.817-0.212-2.727-0.632l-11.015-2.516
				c-0.701,3.426-1.959,6.749-3.778,9.966c-2.937,5.314-6.469,8.847-10.595,10.595c-0.838,0.351-1.608,0.664-2.308,0.944
				c-0.211,0-0.42,0-0.629,0c-2.59,0.349-4.932-0.28-7.029-1.889h-0.104l-0.733-0.209l-2.623-0.735
				c-0.771-0.209-1.573-0.421-2.413-0.63c-19.092-5.105-38.186-10.211-57.276-15.315c-17.274,1.05-35.422,1.994-54.445,2.832
				c-17.554,0.769-35.807,1.435-54.759,1.993c-0.07,0.279-0.139,0.56-0.21,0.841c-0.979-0.281-1.888-0.524-2.727-0.736
				c-40.982,1.05-85.006,1.504-132.073,1.365c-26.365-0.142-47.8-0.524-64.305-1.153c-3.217,0-4.931,0.454-5.14,1.362
				c-0.21,0.629-0.105,2.271,0.314,4.932c0,0.278,0,0.594,0,0.942c10.21,0.14,21.924,0.315,35.142,0.524
				c34.059,0.069,53.046,0.037,56.962-0.104c13.427-0.978,31.715-2.272,54.864-3.881c0.839-0.071,6.784-0.805,17.833-2.202
				C330.744,351.585,337.213,351.34,342.877,351.76 M184.789,413.339l1.889-0.106c-1.329,0-2.588,0-3.777,0
				C183.46,413.304,184.09,413.339,184.789,413.339 M156.885,379.979c1.469-0.069,2.937-0.176,4.406-0.315
				c1.468-0.069,2.833-0.14,4.09-0.209c-2.796,0-5.629,0.035-8.497,0.104V379.979 M203.881,293.854
				c-8.811,0.209-17.868,0.525-27.169,0.945c0.139,1.327,0.489,2.271,1.049,2.831c0.839,0.84,2.868,1.539,6.084,2.099
				c2.167,0.348,17.413,1.538,45.737,3.566c11.33,0.978,24.513,1.888,39.548,2.728c21.33,1.258,42.381,2.098,63.152,2.518
				c-20.491-5.525-40.947-11.015-61.368-16.471C247.696,292.489,225.352,293.086,203.881,293.854 M156.885,272.558v12.275
				c7.692,0.838,16.015,1.713,24.967,2.622c-1.329,0.279-2.413,0.804-3.251,1.574c-1.259,0.909-1.888,2.342-1.888,4.3
				c32.169-1.329,61.332-2.342,87.488-3.042c-17.344-4.616-34.618-9.232-51.821-13.847l-5.561-1.469
				c-0.209-0.142-0.454-0.386-0.733-0.735c-0.21-0.209-0.385-0.386-0.524-0.525C189.685,273.293,173.46,272.908,156.885,272.558
				 M156.885,239.2c0.979-0.281,2.063-0.492,3.251-0.631c2.588-0.488,5.071-0.91,7.449-1.259c-3.847-0.139-7.413-0.348-10.7-0.629
				V239.2 M269.656,228.499c-7.553-0.49-16.015-1.084-25.387-1.783c-3.637-0.211-7.203-0.42-10.7-0.629
				c-18.252-1.33-34.582-2.623-48.989-3.882c-4.757,0.21-9.651,0.42-14.687,0.63c-4.965,0.35-9.302,0.839-13.008,1.468v2.834
				C202.973,226.997,240.563,227.45,269.656,228.499 M284.971,232.274l0.84,0.212c7.482,0,15.525,0.034,24.127,0.104
				c0.209-0.279,0.489-0.56,0.839-0.841c-4.616-0.139-8.952-0.313-13.008-0.524c-22.659-0.838-69.62-1.817-140.884-2.936v6.083
				c8.113,0.28,19.127,0.631,33.044,1.049c7.623-0.558,13.742-1.293,18.358-2.202c10.35-0.699,35.807-0.945,76.369-0.733h0.106
				C284.762,232.414,284.832,232.345,284.971,232.274 M419.352,383.335c3.637-0.07,6.678-0.279,9.126-0.629
				c-12.868,0.071-26.436,0.104-40.703,0.104c-148.751,0.35-225.121,0.594-229.106,0.735c-0.56,0.069-1.155,0.139-1.784,0.209v10.91
				c55.109-0.209,99.658-1.364,133.646-3.463c19.371-1.188,34.058-2.483,44.059-3.88
				C364.103,385.293,392.357,383.966,419.352,383.335 M443.479,338.122c-0.63-0.14-1.189-0.28-1.679-0.42
				c-104.413-0.418-166.096-1.188-185.048-2.308c-11.609-0.979-23.744-1.713-36.401-2.202c-15.246-0.769-36.401-1.469-63.466-2.098
				v8.076c6.364,0.211,13.568,0.455,21.609,0.735c13.638,0.418,75.25,2.446,184.839,6.083c43.22,0.142,78.188-0.28,104.904-1.258
				L443.479,338.122 M422.499,332.563h-0.105c-0.629-0.14-1.188-0.28-1.678-0.42c-15.036,0.069-31.785,0.069-50.249,0
				c-9.091-0.072-31.996-0.806-68.711-2.203c-18.532-0.631-37.485-1.329-56.856-2.098c-27.065-0.7-56.402-1.75-88.014-3.147v4.614
				l61.997-0.733c21.19,0.069,33.185,0.91,35.982,2.519c20.63,1.329,78.188,2.271,172.669,2.831L422.499,332.563 M323.681,231.017
				l0.944,0.104c-0.77-3.428-1.364-6.854-1.784-10.28c-11.749,0.91-20.491,1.364-26.226,1.364c-2.377,0-6.294-0.104-11.749-0.314
				c-6.854-0.139-10.386-0.35-10.595-0.629c13.427-0.42,29.197-1.189,47.311-2.308c-21.889-0.14-47.171-0.245-75.844-0.314
				c-11.19,0.909-24.058,1.749-38.604,2.517c3.356,0.28,6.819,0.559,10.385,0.84c20.421,1.608,38.814,3.076,55.18,4.405
				c15.456,1.261,29.057,2.414,40.807,3.463v-0.104c0.14-0.069,0.314-0.176,0.524-0.315L323.681,231.017 M592.022,330.149
				c0-0.278,0-0.489,0-0.629l-0.524-0.211c-0.701,1.541-1.435,3.078-2.205,4.616c0.631,0,1.226,0,1.785,0
				C591.707,332.948,592.022,331.688,592.022,330.149 M534.326,362.354v0.106l0.733,0.209c0-0.029,0-0.062,0-0.104L534.326,362.354
				 M535.06,362.565c-0.209-0.211-0.42-0.386-0.629-0.524c-0.769-0.699-1.399-1.504-1.89-2.414l-3.251,1.469
				c0.84,0.209,1.643,0.421,2.413,0.63l2.623,0.629L535.06,362.565 M598.63,256.089c1.121,0.209,2.31,0.383,3.567,0.524
				c10.142-0.698,20.352-1.434,30.631-2.202c-16.224-1.47-25.806-2.237-28.742-2.31c-22.869-1.469-44.374-2.762-64.515-3.88
				c-0.979,0.069-1.959,0.139-2.938,0.209c-2.237,0.211-4.405,0.385-6.503,0.524L598.63,256.089 M275.321,407.462
				c-2.378,0-4.196,0.701-5.455,2.099c4.266,0,8.672,0,13.217,0c4.896,0,9.792,0,14.687,0
				C289.937,408.861,282.454,408.163,275.321,407.462 M235.142,246.123l0.735-1.469c0.21-0.56,0.42-1.049,0.63-1.469
				c-4.057,0.141-8.112,0.315-12.169,0.524l0.735,0.104h0.314L235.142,246.123 M156.885,246.647v10.07
				c1.888,0.701,4.301,1.084,7.239,1.153c10.35,0.072,23.393-0.104,39.128-0.524c0.419-1.956,1.084-3.88,1.993-5.77
				c0.21-0.629,0.49-1.258,0.84-1.887c1.258-2.237,2.657-4.057,4.196-5.456c-10.421,0.351-20.736,0.666-30.946,0.944
				C167.516,245.599,160.032,246.088,156.885,246.647 M236.611,243.186h-0.104c-0.21,0.42-0.42,0.909-0.63,1.469l-0.735,1.469
				l0.84,0.209L236.611,243.186 M437.186,378.51c0.349-0.769,0.524-1.679,0.524-2.728c0-3.286-1.888-5.384-5.665-6.294
				c-3.707-1.049-10.315-1.295-19.826-0.733c-32.311,2.727-63.956,4.825-94.937,6.294c-28.744,1.258-58.92,2.308-90.532,3.147
				C308.365,378.266,378.51,378.37,437.186,378.51 M441.906,337.702h-0.105c0.489,0.14,1.049,0.28,1.679,0.42
				C442.92,337.982,442.396,337.842,441.906,337.702z"/>
			<path fill="#768BDE" d="M747.067,261.858v-13.008c-23.8,2.143-48.066,4.171-72.803,6.085
				C696.857,256.988,721.124,259.296,747.067,261.858 M696.4,266.999h0.942l1.573,0.104h0.107c0.278,0,0.524,0,0.733,0
				c0.278,0,0.524,0.035,0.733,0.104c1.049,0.279,2.065,0.733,3.043,1.365c2.309,1.817,3.775,4.613,4.406,8.392
				c14.371-0.399,27.414-0.75,39.128-1.049v-10.597c-8.732-0.767-18.139-1.64-28.22-2.623c-26.086-2.585-47.73-4.65-64.933-6.188
				c-11.47,0.769-23.046,1.573-34.725,2.412C643.318,261.998,669.057,264.69,696.4,266.999 M747.067,233.324v-3.041
				c-9.46,0.065-19.077,0.065-28.849,0c-20.77,0.558-35.841,0.838-45.212,0.838c-13.429,0-24.128-0.907-32.101-2.727
				c-0.071,0.979-0.805,1.889-2.202,2.727c4.196,0.072,8.566,0.175,13.112,0.315c19.231,0.629,33.078,1.539,41.541,2.728
				c5.174,0.771,9.021,1.713,11.54,2.831C721.309,235.594,735.366,234.373,747.067,233.324 M747.067,228.395v-9.861l-207.916-1.468
				c3.355,0.139,5.839,0.245,7.447,0.314c1.819,0.21,4.231,0.594,7.239,1.154c2.587,0.489,7.552,0.979,14.895,1.469
				c0.769,0.56,0.455,0.839-0.944,0.839c-0.14,0-6.398-0.454-18.775-1.363c-6.926-0.49-17.448-0.874-31.578-1.153
				c0.841,1.958,1.713,3.951,2.623,5.979c42.592,0.071,71.159-0.35,85.706-1.258c0.351-0.07,4.617-0.489,12.798-1.259
				c3.776-0.35,8.917-0.49,15.422-0.42c2.655,0,4.614,1.014,5.874,3.042c0.49,0.77,0.806,1.643,0.944,2.621
				c6.225-0.069,18.916,0.07,38.079,0.421c13.428,0.211,27.205,0.489,41.332,0.84C729.412,228.29,738.361,228.324,747.067,228.395
				 M746.647,430.961h0.42v-5.874c-24.417,2.434-50.818,4.391-79.202,5.874H746.647 M747.067,329.94
				c-9.025,1.451-16.614,2.5-22.763,3.147c-25.807,2.516-71.578,4.057-137.318,4.614c-0.209,0.14-0.385,0.315-0.524,0.524
				c-0.069,0.14-0.177,0.315-0.315,0.524c3.217-0.14,6.4-0.244,9.548-0.313c57.346-2.028,86.053,0.281,86.124,6.923
				c0,3.078-1.889,5.141-5.665,6.19c-2.842,0.676-8.367,1.2-16.575,1.573c1.213,0.013,2.471,0.047,3.778,0.104
				c22.513,0.069,50.417-0.177,83.711-0.733V329.94 M745.914,325.534c0.381-0.101,0.764-0.207,1.153-0.313v-5.877
				c-15.237-0.67-39.783-1.438-73.641-2.307c-11.331-0.349-21.366-0.595-30.108-0.733c-0.91,0.629-1.853,1.188-2.832,1.678
				c-1.889,0.908-3.602,1.33-5.141,1.258c-0.907,0.072-1.817-0.069-2.727-0.42l-3.881-0.733c-0.42,0.979-0.84,1.89-1.26,2.728
				c-2.937,5.456-6.469,9.197-10.595,11.226c-1.819,0.979-3.532,1.434-5.141,1.362c-0.978,0-1.924-0.174-2.832-0.524l-16.889-3.356
				c0,0.14,0,0.351,0,0.629c0,1.539-0.315,2.799-0.944,3.776c63.71-0.629,107.035-2.063,129.975-4.301
				C728.813,328.854,737.102,327.492,745.914,325.534 M747.067,302.455v-1.678c-20.645,0.647-37.742,1.278-51.298,1.889h-0.104
				c-0.42,0.278-0.838,0.487-1.258,0.629C712.188,302.957,729.74,302.679,747.067,302.455 M340.779,413.232
				c4.057,0.28,8.183,0.596,12.378,0.944c57.557,4.335,113.051,6.54,166.482,6.609c56.717,0,110.009-1.435,159.87-4.301
				c19.611-1.149,42.129-2.829,67.558-5.036v-13.637c-12.13,0.745-23.495,1.442-34.094,2.098
				C571.497,407.673,447.431,412.113,340.779,413.232 M437.71,375.782c0,1.049-0.175,1.959-0.524,2.728
				c54.688,0.211,99.343,0.42,133.961,0.629c43.569,0.351,78.361,0.875,104.378,1.573c8.743,0.281,27.134,0.664,55.179,1.156
				c5.048-0.433,10.502-0.886,16.364-1.365V366.55c-15.528,0.345-42.349,0.449-80.46,0.316c-7.554,0-14.791,0-21.716,0
				c-18.042,1.469-35.003,2.727-50.878,3.775c-2.098-0.069-3.286-0.28-3.564-0.629c10.351-1.049,20.665-2.133,30.946-3.251
				c-53.851-0.212-89.622-0.806-107.316-1.785c-2.657-0.278-4.545-1.258-5.665-2.936c-0.838-1.19-1.259-2.519-1.259-3.987
				c0-0.281,0.035-0.56,0.104-0.838c-4.755,0.139-9.511,0.348-14.266,0.629c-31.752,1.887-62.523,3.428-92.314,4.616
				c-56.927,2.446-114.974,3.602-174.139,3.46c-34.688-0.069-55.878-0.907-63.572-2.518c-3.006-0.769-4.58-1.713-4.72-2.832
				c0.069-0.209,0.105-0.385,0.105-0.524c-0.63,0-1.259,0-1.889,0v19.932c0.14,0,0.28,0,0.42,0v-0.42
				c2.868-0.069,5.7-0.104,8.497-0.104c9.792-0.489,15.666-0.91,17.625-1.258c14.966,0,29.547,0,43.744,0
				c31.611-0.84,61.788-1.89,90.532-3.147c30.981-1.469,62.626-3.567,94.937-6.294c9.511-0.562,16.12-0.315,19.826,0.733
				C435.822,370.398,437.71,372.496,437.71,375.782 M604.295,243.814c-2.518,0-4.544-0.033-6.085-0.104
				c-4.895-0.49-9.615-0.908-14.162-1.259c-8.949-0.211-13.498-0.42-13.637-0.629c1.469-0.069,2.973-0.106,4.511-0.106
				c-13.358-1.118-27.694-1.713-43.01-1.782c-1.327,0-2.692,0.069-4.092,0.209c0.072,0.069,0.142,0.176,0.211,0.315
				c-4.406,0.979-8.812,1.922-13.219,2.832c17.415,0.979,34.374,2.028,50.878,3.146C577.86,245.527,590.728,244.654,604.295,243.814
				 M428.479,382.706c-2.448,0.35-5.49,0.559-9.126,0.629c-26.995,0.631-55.249,1.958-84.761,3.987
				c-10.001,1.396-24.688,2.691-44.059,3.88c-33.989,2.099-78.538,3.254-133.646,3.463v-10.91c-0.14,0-0.28,0-0.42,0v23.289
				c6.134,0.427,13.337,0.812,21.61,1.154c-0.35-1.05-0.49-1.608-0.42-1.679c-0.07-3.566,5.315-6.12,16.155-7.658
				c11.54-1.819,33.673-3.217,66.403-4.196c2.518-0.14,131.163-2.588,385.937-7.343c11.89-0.209,27.171-0.979,45.842-2.308
				c-1.956-0.14-3.915-0.246-5.874-0.315c-40.002-1.678-65.46-2.518-76.37-2.518C601.568,382.182,541.145,382.355,428.479,382.706
				 M268.082,414.281c0-0.349,0-0.629,0-0.838c-33.149-0.07-60.284-0.14-81.404-0.211l-1.889,0.106
				c-0.699,0-1.329-0.035-1.888-0.106c-10.359-0.068-19.171-0.173-26.436-0.313v18.042h1.365h252.5
				c-6.433-0.349-13.042-0.698-19.826-1.049C308.89,425.716,268.082,420.506,268.082,414.281 M156.465,273.187v20.98
				c6.859-0.311,13.607-0.59,20.247-0.838c0-1.958,0.629-3.391,1.888-4.3c0.839-0.771,1.923-1.295,3.251-1.574
				c-8.952-0.909-17.274-1.784-24.967-2.622v-12.275L156.465,273.187 M164.124,257.871c-2.938-0.069-5.351-0.452-7.239-1.153v-10.07
				c3.147-0.56,10.63-1.049,22.45-1.469c10.21-0.278,20.525-0.594,30.946-0.944c1.119-1.119,2.307-1.994,3.566-2.623h-57.382v19.407
				c6.786,0.358,13.604,0.744,20.456,1.153c9.162,0.492,17.694,0.979,25.597,1.47c0-0.281,0-0.525,0-0.734
				c0-0.909,0.069-1.784,0.21-2.622c0.07-1.049,0.245-2.028,0.524-2.938C187.517,257.767,174.474,257.943,164.124,257.871
				 M156.465,266.475v1.887c0.775,0.63,1.23,0.945,1.365,0.945c13.707,0.139,28.953,0.454,45.737,0.944
				c-0.14-0.351-0.245-0.735-0.314-1.153c-9.441-0.492-19.757-1.017-30.946-1.574C166.793,267.184,161.514,266.833,156.465,266.475
				 M156.885,228.29c-0.14,0-0.28,0-0.42,0v6.083c0.139,0,0.279,0,0.42,0V228.29 M156.885,227.137v-2.834
				c3.707-0.629,8.043-1.119,13.008-1.468c5.035-0.21,9.93-0.42,14.687-0.63c-10.363-0.869-19.734-1.743-28.115-2.623v7.555
				C156.605,227.137,156.745,227.137,156.885,227.137 M237.765,241.087c0-0.069,0.036-0.14,0.105-0.209
				c0.07-0.142,0.14-0.243,0.21-0.315l0.734-1.153c-29.582-0.42-53.325-1.119-71.229-2.099c-2.377,0.349-4.861,0.771-7.449,1.259
				c-1.188,0.139-2.272,0.35-3.251,0.631v-2.519c-0.14-0.01-0.28-0.01-0.42,0v3.043
				C173.487,239.939,200.587,240.393,237.765,241.087 M321.583,218.953c0.28,0,0.594,0,0.944,0c-0.14-1.188-0.315-2.378-0.524-3.567
				l-165.537-1.258v3.356c11.553,0.852,28.442,2.076,50.668,3.672c14.546-0.769,27.414-1.608,38.604-2.517
				C274.411,218.708,299.693,218.813,321.583,218.953 M371.097,318.819c-8.743,0.07-16.365,0.106-22.869,0.106
				c-19.443-0.139-47.451-1.364-84.027-3.671c-26.423-1.675-62.335-2.793-107.735-3.358v17.413h0.42v-4.614
				c31.611,1.397,60.948,2.447,88.014,3.147c19.371,0.769,38.324,1.467,56.856,2.098c36.716,1.397,59.621,2.131,68.711,2.203
				c18.463,0.069,35.213,0.069,50.249,0c-0.294-0.11-0.575-0.215-0.839-0.315l0,0c-0.217-0.027-0.427-0.062-0.63-0.104
				L371.097,318.819 M362.599,351.446c0.071-0.281,0.14-0.562,0.21-0.841c18.952-0.559,37.206-1.225,54.759-1.993
				c19.023-0.838,37.171-1.782,54.445-2.832c-1.261-0.35-2.519-0.698-3.776-1.049c-26.716,0.978-61.684,1.399-104.904,1.258
				c-109.588-3.637-171.201-5.665-184.839-6.083c-8.042-0.28-15.246-0.524-21.609-0.735v-8.076c-0.14-0.035-0.28-0.072-0.42-0.104
				v27.063c0.71,0.012,1.444,0.047,2.204,0.104c0-0.349,0-0.664,0-0.942c-0.42-2.66-0.524-4.303-0.314-4.932
				c0.209-0.908,1.923-1.362,5.14-1.362c16.504,0.629,37.94,1.012,64.305,1.153c47.067,0.139,91.091-0.315,132.073-1.365
				C360.711,350.922,361.621,351.165,362.599,351.446 M357.25,315.147c-8.392-2.237-16.715-4.439-24.967-6.607
				c-20.771-0.42-41.822-1.26-63.152-2.518c-15.036-0.84-28.219-1.75-39.548-2.728c-28.324-2.028-43.569-3.219-45.737-3.566
				c-3.217-0.56-5.245-1.259-6.084-2.099c-0.56-0.56-0.91-1.504-1.049-2.831c-6.64,0.309-13.388,0.622-20.247,0.942v12.799
				c33.537,0.494,63.295,1.474,89.273,2.937c40.771,2.309,77.383,3.532,109.833,3.671C356.06,315.147,356.62,315.147,357.25,315.147
				 M504.113,246.228l26.017,2.728c2.098-0.14,4.266-0.313,6.503-0.524c0.979-0.07,1.959-0.14,2.938-0.209
				C527.262,247.522,515.443,246.856,504.113,246.228 M686.748,303.399l-1.678-0.209c-2.519,0.14-4.86,0.279-7.027,0.418
				C680.979,303.539,683.882,303.47,686.748,303.399 M269.866,409.561c1.259-1.397,3.077-2.099,5.455-2.099
				c7.133,0.701,14.616,1.399,22.449,2.099c54.829-0.14,107.7-1.153,158.613-3.041c13.077-0.559,28.077-1.26,45.003-2.098
				c-54.969,0.629-132.003,1.223-231.101,1.782c-2.167,0-15.036,1.049-38.604,3.147C243.43,409.421,256.159,409.49,269.866,409.561
				 M236.611,242.872c-0.07,0.069-0.104,0.174-0.104,0.313h0.104V242.872 M236.507,243.186c0-0.14,0.035-0.244,0.104-0.313
				c0.28-0.492,0.56-0.91,0.839-1.261h-22.029l7.868,1.785l1.049,0.313C228.395,243.501,232.45,243.326,236.507,243.186
				 M277.523,239.934c-1.398,0-2.798,0-4.196,0l3.882,0.733C277.348,240.389,277.454,240.143,277.523,239.934 M306.792,236.053
				l0.314,0.104v-0.104C306.966,236.053,306.861,236.053,306.792,236.053 M281.405,235.004c1.049-1.049,2.133-1.889,3.251-2.518
				c-40.562-0.212-66.019,0.034-76.369,0.733c-4.616,0.909-10.735,1.645-18.358,2.202c4.126,0.069,8.567,0.211,13.323,0.42
				c14.056,0.49,26.645,0.875,37.765,1.153c1.049-1.049,2.202-1.922,3.461-2.622c0.14,0,0.28-0.033,0.42-0.104l16.05,3.146h0.21
				l0.629,0.104c6.435,0.14,12.133,0.246,17.099,0.316C279.656,236.786,280.495,235.842,281.405,235.004 M285.811,232.486
				l10.175,1.782l6.924,1.26c1.539,0,3.077,0,4.615,0c0.7-1.118,1.504-2.098,2.414-2.938
				C301.336,232.521,293.293,232.486,285.811,232.486z"/>
			<path fill="#4360D1" fill-opacity="0.6784" d="M747.067,248.851v-3.567c-32.219,2.875-63.62,5.462-94.201,7.764
				c-24.898-2.168-47.452-3.951-67.662-5.351c-6.434-0.489-12.939-0.909-19.514-1.26c-16.504-1.118-33.463-2.168-50.878-3.146
				c-4.266,0.909-8.566,1.819-12.902,2.729l2.203,0.209c11.33,0.629,23.148,1.295,35.458,1.994
				c20.141,1.118,41.646,2.411,64.515,3.88c2.937,0.072,12.519,0.84,28.742,2.31c-10.279,0.769-20.489,1.504-30.631,2.202
				c5.594,0.769,11.261,1.539,16.993,2.308c11.679-0.839,23.255-1.644,34.725-2.412c17.202,1.537,38.847,3.603,64.933,6.188
				c10.081,0.983,19.487,1.856,28.22,2.623v-3.461c-25.943-2.563-50.21-4.87-72.803-6.923
				C699.001,253.021,723.268,250.993,747.067,248.851 M747.067,235.317v-1.573c-25.574,3.398-82.957,6.059-172.146,7.972
				c-1.538,0-3.042,0.037-4.511,0.106c0.139,0.209,4.688,0.418,13.637,0.629c1.75,0,3.709,0.035,5.876,0.104
				c10.141,0.14,17.028,0.246,20.666,0.316C667.4,243.22,712.895,240.702,747.067,235.317 M747.067,230.283v-1.889
				c-8.706-0.07-17.655-0.104-26.854-0.104c-14.127-0.351-27.904-0.629-41.332-0.84c-19.163-0.351-31.854-0.49-38.079-0.421
				c-2.448,0-3.848,0.07-4.196,0.212c1.259,0.35,2.692,0.733,4.301,1.153c7.973,1.819,18.672,2.727,32.101,2.727
				c9.371,0,24.442-0.28,45.212-0.838C727.99,230.349,737.607,230.349,747.067,230.283 M747.067,356.585v-1.992
				c-11.72,1.054-25.953,2.349-42.694,3.881c-27.205,2.588-54.865,5.35-82.978,8.288c-10.281,1.118-20.596,2.202-30.946,3.251
				c0.278,0.349,1.467,0.56,3.564,0.629c15.875-1.049,32.836-2.307,50.878-3.775c18.604-1.539,38.429-3.323,59.481-5.35
				L747.067,356.585 M747.067,325.221c-0.39,0.106-0.772,0.213-1.153,0.313c-8.813,1.958-17.101,3.32-24.861,4.091
				c-22.939,2.237-66.265,3.672-129.975,4.301c-0.56,0-1.154,0-1.785,0c0,0.072-0.032,0.104-0.104,0.104
				c-0.698,1.33-1.432,2.553-2.202,3.672c65.74-0.558,111.512-2.099,137.318-4.614c6.148-0.647,13.737-1.696,22.763-3.147V325.221
				 M747.067,319.344v-3.88c-7.396-0.255-15.508-0.535-24.337-0.841c-27.555-1.049-52.662-1.817-75.32-2.307
				c-1.259,1.539-2.623,2.868-4.092,3.987c8.742,0.139,18.777,0.385,30.108,0.733C707.284,317.905,731.83,318.674,747.067,319.344
				 M747.067,291.545v-4.196c-13.272,0.291-26.666,0.5-40.177,0.631c-0.42,1.188-0.909,2.446-1.469,3.776
				C719.901,291.756,733.784,291.685,747.067,291.545 M268.082,413.443c5.525,0,11.19,0,16.995,0c17.973,0,36.541-0.07,55.703-0.211
				c106.651-1.119,230.718-5.56,372.194-13.322c10.599-0.655,21.964-1.353,34.094-2.098v-6.61
				c-36.409,1.582-85.539,4.239-147.389,7.975c-37.904,2.168-70.668,3.915-98.293,5.245c-16.926,0.838-31.926,1.539-45.003,2.098
				c-50.913,1.888-103.784,2.901-158.613,3.041c-4.895,0-9.791,0-14.687,0c-4.545,0-8.952,0-13.217,0
				c-13.707-0.07-26.436-0.14-38.185-0.209c-21.12-0.281-38.988-0.664-53.605-1.153c-8.273-0.343-15.476-0.728-21.61-1.154v5.875
				c7.264,0.141,16.077,0.245,26.436,0.313c1.189,0,2.449,0,3.777,0C207.798,413.304,234.933,413.373,268.082,413.443
				 M387.775,382.811c14.268,0,27.835-0.033,40.703-0.104c112.666-0.351,173.09-0.524,181.271-0.524
				c10.91,0,36.368,0.84,76.37,2.518c1.959,0.069,3.918,0.176,5.874,0.315c22.741,0.84,41.099,1.437,55.074,1.782v-4.404
				c-3.758-0.173-7.85-0.312-12.272-0.42c-1.399-0.072-2.765-0.104-4.092-0.104c-28.045-0.492-46.436-0.875-55.179-1.156
				c-26.017-0.698-60.809-1.223-104.378-1.573c-34.618-0.209-79.273-0.418-133.961-0.629c-58.676-0.14-128.82-0.244-210.436-0.313
				c-14.197,0-28.777,0-43.744,0c-1.958,0.348-7.833,0.769-17.625,1.258c-1.258,0.069-2.623,0.14-4.09,0.209
				c-1.469,0.14-2.937,0.246-4.406,0.315c-0.14,0-0.28,0-0.42,0v3.776c0.14,0,0.28,0,0.42,0c0.629-0.07,1.224-0.14,1.784-0.209
				C162.655,383.404,239.024,383.16,387.775,382.811 M546.599,217.379c-1.608-0.07-4.092-0.175-7.447-0.314
				c-1.19-0.071-2.414-0.105-3.672-0.105c-4.895-0.209-11.119-0.314-18.674-0.314c0.211,0.49,0.42,1.049,0.629,1.679
				c14.13,0.279,24.652,0.664,31.578,1.153c12.377,0.91,18.636,1.363,18.775,1.363c1.399,0,1.713-0.279,0.944-0.839
				c-7.343-0.49-12.308-0.979-14.895-1.469C550.83,217.974,548.418,217.589,546.599,217.379 M157.83,269.307
				c-0.134,0-0.589-0.315-1.365-0.945v4.825l0.42-0.629c16.575,0.351,32.799,0.735,48.675,1.153c-0.351-0.348-0.63-0.733-0.84-1.153
				l-0.839-1.362c0-0.14-0.035-0.28-0.104-0.42c-0.069-0.211-0.14-0.385-0.21-0.524C186.783,269.761,171.537,269.445,157.83,269.307
				 M156.465,261.019v5.456c5.048,0.358,10.328,0.709,15.841,1.049c11.189,0.558,21.505,1.082,30.946,1.574
				c-0.49-1.61-0.734-3.428-0.734-5.456c-7.903-0.49-16.435-0.978-25.597-1.47C170.07,261.763,163.251,261.377,156.465,261.019
				 M214.372,241.298l1.049,0.313h22.029l0.105-0.209l0.104-0.104c0-0.139,0.035-0.211,0.104-0.211
				c-37.178-0.694-64.277-1.147-81.299-1.362v1.887h57.382l0.105-0.104C214.092,241.438,214.232,241.368,214.372,241.298
				 M270.915,292.069c-2.238-0.558-4.476-1.153-6.714-1.782c-26.156,0.7-55.319,1.713-87.488,3.042
				c-6.64,0.248-13.388,0.527-20.247,0.838v1.574c6.859-0.32,13.607-0.634,20.247-0.942c9.301-0.42,18.358-0.736,27.169-0.945
				C225.352,293.086,247.696,292.489,270.915,292.069 M238.814,239.409c0.7-0.91,1.434-1.713,2.204-2.414
				c-11.121-0.278-23.709-0.663-37.765-1.153c-4.755-0.209-9.196-0.351-13.323-0.42c-13.917-0.418-24.932-0.769-33.044-1.049
				c-0.141,0-0.281,0-0.42,0v2.309c0.14-0.01,0.28-0.01,0.42,0c3.288,0.281,6.854,0.49,10.7,0.629
				C185.489,238.29,209.232,238.989,238.814,239.409 M310.778,231.75c0.839-0.768,1.748-1.397,2.727-1.887
				c-11.75-1.049-25.351-2.202-40.807-3.463c-16.365-1.329-34.758-2.796-55.18-4.405c-3.566-0.281-7.028-0.56-10.385-0.84
				c-22.226-1.596-39.116-2.82-50.668-3.672v2.098c8.381,0.88,17.751,1.754,28.115,2.623c14.407,1.259,30.736,2.553,48.989,3.882
				c3.498,0.209,7.063,0.418,10.7,0.629c9.372,0.699,17.833,1.293,25.387,1.783c-29.093-1.049-66.683-1.502-112.771-1.362
				c-0.14,0-0.28,0-0.42,0v1.153c0.14,0,0.28,0,0.42,0c71.264,1.118,118.226,2.098,140.884,2.936
				C301.826,231.437,306.162,231.611,310.778,231.75 M441.801,337.702c-0.315-0.104-0.629-0.209-0.944-0.313l-0.839-0.104
				l-12.484-3.358c-94.482-0.56-152.039-1.502-172.669-2.831c-2.798-1.608-14.792-2.449-35.982-2.519l-61.997,0.733h-0.42v1.681
				c0.14,0.032,0.28,0.069,0.42,0.104c27.065,0.629,48.22,1.329,63.466,2.098c12.658,0.489,24.792,1.224,36.401,2.202
				C275.705,336.514,337.388,337.284,441.801,337.702 M331.338,355.117c5.804,0.07,9.651-1.049,11.539-3.357
				c-5.664-0.42-12.133-0.175-19.407,0.735c-11.05,1.397-16.995,2.131-17.833,2.202c-23.148,1.608-41.437,2.903-54.864,3.881
				c-3.917,0.142-22.904,0.174-56.962,0.104c-13.218-0.209-24.932-0.385-35.142-0.524c-0.759-0.058-1.494-0.093-2.204-0.104v1.993
				c0.63,0,1.259,0,1.889,0c10.35,0.209,22.763,0.42,37.24,0.629c30.631,0.072,55.982-0.35,76.055-1.258
				c10.77-0.629,21.05-1.504,30.841-2.622l16.994-2.099C321.303,354.486,325.254,354.626,331.338,355.117 M357.25,315.147
				c-0.629,0-1.189,0-1.678,0c-32.45-0.139-69.062-1.362-109.833-3.671c-25.978-1.463-55.736-2.442-89.273-2.937v3.356
				c45.4,0.565,81.312,1.684,107.735,3.358c36.577,2.307,64.584,3.532,84.027,3.671c6.503,0,14.126-0.036,22.869-0.106
				C366.411,317.562,361.795,316.336,357.25,315.147 M645.207,238.885l-0.315-1.153c-32.028-1.121-72.383-2.938-121.056-5.457
				c0.278,0.632,0.557,1.261,0.838,1.89c0.56,0,1.084,0.035,1.573,0.104C577.86,236.926,617.513,238.465,645.207,238.885
				 M277.523,239.934c0.42-0.771,0.874-1.469,1.363-2.098c-4.965-0.07-10.664-0.177-17.099-0.316l11.539,2.414
				C274.726,239.934,276.125,239.934,277.523,239.934 M302.91,235.528l3.881,0.524c0.07,0,0.174,0,0.314,0
				c0.14-0.139,0.28-0.315,0.419-0.524C305.987,235.528,304.449,235.528,302.91,235.528 M284.867,221.89
				c5.455,0.21,9.372,0.314,11.749,0.314c5.735,0,14.477-0.454,26.226-1.364c-0.14-0.629-0.245-1.259-0.314-1.888
				c-0.35,0-0.665,0-0.944,0c-18.113,1.119-33.883,1.888-47.311,2.308C274.481,221.541,278.013,221.751,284.867,221.89
				 M441.801,337.702h0.105c-0.36-0.106-0.709-0.213-1.049-0.313C441.171,337.493,441.486,337.598,441.801,337.702z"/>
			<path fill="#CB9A62" d="M698.393,267.104c0.139,0,0.314,0,0.523,0l-1.573-0.104L698.393,267.104 M698.916,267.104
				c-0.209,0-0.385,0-0.523,0c-1.537,0-3.078,0.42-4.614,1.258c-1.681,0.91-3.185,2.063-4.512,3.463
				c-1.539,1.469-2.901,3.286-4.092,5.454c0.211,1.049,0.351,2.203,0.42,3.463c0.14,5.104-1.049,10.14-3.567,15.106v0.104
				c0.699,2.866,2.028,5.001,3.987,6.398c0.351,0.278,0.733,0.524,1.153,0.733c0.209,0.069,0.42,0.177,0.629,0.315
				c0.158,0.078,0.298,0.115,0.42,0.104l0.421,0.104c0.838,0.351,1.678,0.492,2.518,0.42c1.049-0.069,2.131-0.313,3.252-0.733
				c0.42-0.142,0.838-0.351,1.258-0.629h0.104c3.567-1.959,6.609-5.212,9.128-9.757c0.14-0.348,0.313-0.733,0.524-1.153
				c0.56-1.33,1.049-2.588,1.469-3.776c0.91-3.077,1.328-6.12,1.258-9.128c-0.069-0.698-0.139-1.329-0.209-1.887
				c-0.631-3.778-2.098-6.574-4.406-8.392c-0.978-0.632-1.994-1.086-3.043-1.365l-1.467-0.104H698.916 M699.757,267.104
				c-0.209,0-0.455,0-0.733,0l1.467,0.104C700.281,267.139,700.035,267.104,699.757,267.104 M697.343,266.999H696.4
				c-27.344-2.309-53.082-5.001-77.21-8.078c-5.732-0.769-11.399-1.539-16.993-2.308c-1.258-0.142-2.446-0.315-3.567-0.524
				l-68.5-7.134l-26.017-2.728l-2.203-0.209c-2.098,0.349-4.195,0.733-6.294,1.153l180.537,20.876
				c0.278-0.069,0.524-0.106,0.733-0.106c1.399,0.14,2.692,0.664,3.883,1.574c2.237,1.68,3.707,4.266,4.405,7.763
				c1.19-2.168,2.553-3.985,4.092-5.454c1.327-1.399,2.831-2.553,4.512-3.463c1.536-0.838,3.077-1.258,4.614-1.258L697.343,266.999
				 M332.283,308.54c8.252,2.168,16.575,4.37,24.967,6.607c4.545,1.188,9.162,2.414,13.847,3.672l48.15,12.904
				c0.203,0.043,0.413,0.077,0.63,0.104l0,0c0.8,0.215,1.64,0.461,2.517,0.735h0.105l5.035,1.362l12.484,3.358l0.839,0.104
				c0.34,0.101,0.689,0.207,1.049,0.313c0.489,0.14,1.014,0.28,1.573,0.42l24.758,6.609c1.258,0.351,2.516,0.699,3.776,1.049
				c19.091,5.104,38.185,10.21,57.276,15.315l3.251-1.469c-1.608-2.657-2.411-6.083-2.411-10.279c0-2.518,0.313-5.036,0.942-7.554
				c0.069-0.699,0.246-1.33,0.524-1.888c0-0.211,0.037-0.35,0.106-0.42l0.418-1.469c0-0.069,0.037-0.104,0.106-0.104
				c0-0.28,0.07-0.489,0.209-0.629l0.104-0.42c0.351-0.91,0.736-1.817,1.154-2.728c0.211-0.42,0.454-0.909,0.735-1.469
				c1.329-2.379,2.797-4.407,4.405-6.085h-0.105c-36.716-7.553-63.361-14.722-79.935-21.505c-4.057-1.679-16.365-4.267-36.927-7.764
				c-25.736-4.475-43.219-7.729-52.452-9.755c-15.944-3.567-39.198-9.513-69.76-17.833c-42.38-11.681-63.57-19.163-63.57-22.45
				c0-0.278,0.035-0.559,0.104-0.84l-0.209-0.104l-0.84-0.209l-9.755-2.309h-0.314l-0.735-0.104l-1.049-0.313l-7.868-1.785
				l-1.049-0.313c-0.139,0.07-0.28,0.14-0.419,0.209l-0.105,0.104c-1.259,0.629-2.447,1.504-3.566,2.623
				c-1.539,1.399-2.938,3.219-4.196,5.456c-0.35,0.629-0.63,1.258-0.84,1.887c-0.909,1.89-1.574,3.813-1.993,5.77
				c-0.28,0.91-0.455,1.89-0.524,2.938c-0.141,0.838-0.21,1.713-0.21,2.622c0,0.209,0,0.453,0,0.734
				c0,2.028,0.245,3.846,0.734,5.456c0.07,0.418,0.174,0.803,0.314,1.153c0.07,0.14,0.141,0.313,0.21,0.524
				c0.07,0.14,0.104,0.28,0.104,0.42l0.839,1.362c0.21,0.42,0.489,0.806,0.84,1.153c0.139,0.14,0.314,0.316,0.524,0.525
				c0.28,0.35,0.524,0.594,0.733,0.735l5.561,1.469c17.203,4.614,34.478,9.23,51.821,13.847c2.238,0.629,4.476,1.225,6.714,1.782
				C291.336,297.525,311.792,303.015,332.283,308.54 M331.968,259.97c-0.91-3.006-1.784-5.944-2.623-8.813l-52.137-10.49
				l-3.882-0.733l-11.539-2.414l-0.629-0.104h-0.21l-16.05-3.146c-0.14,0.071-0.28,0.104-0.42,0.104
				c-1.259,0.7-2.413,1.573-3.461,2.622c-0.77,0.701-1.504,1.504-2.204,2.414l-0.734,1.153c-0.07,0.072-0.14,0.174-0.21,0.315
				c-0.069,0.069-0.105,0.14-0.105,0.209c-0.069,0-0.104,0.072-0.104,0.211l-0.104,0.104l-0.105,0.209
				c-0.279,0.351-0.559,0.769-0.839,1.261v0.313l-0.629,3.146l0.209,0.104c1.469-7.343,21.296-6.188,59.48,3.463
				C302.035,251.577,314.135,254.936,331.968,259.97 M442.85,284.201c14.196,3.078,25.875,6.575,35.038,10.491
				c3.706,1.54,17.938,5.525,42.694,11.959c18.465,4.755,27.694,8.917,27.694,12.483c0,0.279,0,0.56,0,0.841l2.728,0.629
				l3.672,0.733l-3.672-0.733l-2.728-0.629c-0.069,0.487-0.174,0.942-0.313,1.362c0.979-0.209,1.992-0.244,3.041-0.104l0.42,0.104
				c1.539,0.35,2.973,1.12,4.301,2.309c0.491,0.418,0.944,0.91,1.364,1.467c1.75,2.238,2.762,5.245,3.043,9.023
				c0.069,0.418,0.104,0.873,0.104,1.362c0,0.281,0,0.63,0,1.05s0,0.875,0,1.364c-0.07,0-0.07,0.035,0,0.104l-0.104,0.944
				l0.104-0.944c-0.07-0.069-0.07-0.104,0-0.104c0-0.489,0-0.944,0-1.364s0-0.769,0-1.05c0-0.489-0.035-0.944-0.104-1.362
				c-0.281-3.778-1.293-6.785-3.043-9.023c-0.42-0.557-0.873-1.049-1.364-1.467c-1.328-1.188-2.762-1.959-4.301-2.309l-0.42-0.104
				c-1.049-0.14-2.062-0.104-3.041,0.104c-0.35,1.12-0.944,2.063-1.784,2.833c-1.608,1.606-4.055,2.412-7.343,2.412
				c-1.608,1.678-3.076,3.706-4.405,6.085c-0.281,0.56-0.524,1.049-0.735,1.469c-0.418,0.91-0.804,1.817-1.154,2.728l-0.104,0.42
				c-0.139,0.14-0.209,0.349-0.209,0.629c-0.069,0-0.106,0.035-0.106,0.104l-0.418,1.469c-0.069,0.07-0.106,0.209-0.106,0.42
				c-0.278,0.558-0.455,1.188-0.524,1.888c-0.629,2.518-0.942,5.036-0.942,7.554c0,4.196,0.803,7.622,2.411,10.279
				c0.49,0.91,1.121,1.715,1.89,2.414c0.209,0.139,0.42,0.313,0.629,0.524l2.727,0.838l4.407,1.155c0.209,0,0.418,0,0.629,0
				c0.699-0.28,1.47-0.594,2.308-0.944c4.126-1.748,7.658-5.28,10.595-10.595c1.819-3.217,3.077-6.54,3.778-9.966
				c0-0.069,0.032-0.176,0.104-0.315l0.42-2.414l-0.42,2.414c-0.072,0.14-0.104,0.246-0.104,0.315l11.015,2.516
				c-0.91-0.348-1.785-0.942-2.623-1.782c-1.188-1.118-2.135-2.446-2.833-3.987l-0.421-1.153c-0.139-0.28-0.243-0.524-0.313-0.733
				c-0.072-0.42-0.142-0.84-0.212-1.26l-0.209-1.259c-0.069-0.069-0.104-0.139-0.104-0.209c0-0.35,0-0.7,0-1.049
				c-0.141-0.909-0.211-1.854-0.211-2.833c0-2.237,0.246-4.478,0.736-6.715c0-0.278,0-0.487,0-0.629
				c0.069-0.42,0.174-0.805,0.313-1.153l-0.418-1.469c0-2.866,2.972-7.624,8.917-14.267c3.846-4.405,6.434-5.839,7.762-4.301
				c1.329-0.351,2.59-0.455,3.778-0.315l-5.666-1.049l-195.958-39.443c-12.028,0.84-24.163,1.539-36.4,2.099
				c0.279,0.069,0.594,0.139,0.943,0.209c21.331,6.016,36.891,10.072,46.682,12.17C412.113,278.399,428.304,280.985,442.85,284.201
				 M564.641,322.807c-0.139,0.349-0.243,0.733-0.313,1.153c0,0.142,0,0.351,0,0.629c-0.49,2.237-0.736,4.478-0.736,6.715
				c0,0.979,0.07,1.924,0.211,2.833c0,0.349,0,0.699,0,1.049c0,0.07,0.035,0.14,0.104,0.209l0.209,1.259
				c0.07,0.42,0.14,0.84,0.212,1.26c0.069,0.209,0.174,0.453,0.313,0.733l0.421,1.153c0.698,1.541,1.645,2.869,2.833,3.987
				c0.838,0.84,1.713,1.435,2.623,1.782c0.909,0.42,1.817,0.632,2.727,0.632c1.608,0.069,3.391-0.316,5.35-1.156
				c2.728-1.327,5.245-3.426,7.553-6.294c0.139-0.209,0.246-0.385,0.315-0.524c0.14-0.209,0.315-0.385,0.524-0.524
				c0.771-1.119,1.504-2.342,2.202-3.672c0.072,0,0.104-0.032,0.104-0.104c0.771-1.538,1.504-3.075,2.205-4.616
				c0-0.139,0.032-0.278,0.104-0.418l1.678-6.4c0.209-1.328,0.349-2.655,0.42-3.985c0-0.142,0-0.243,0-0.315v-0.209
				c0-0.211,0-0.385,0-0.524c0-5.805-1.504-10.037-4.512-12.692c-1.258-1.119-2.551-1.854-3.88-2.205
				c-0.281-0.069-0.49-0.104-0.629-0.104c-1.188-0.14-2.449-0.035-3.778,0.315c-0.699,0.209-1.468,0.49-2.308,0.838
				c-4.195,1.89-7.763,5.491-10.699,10.806C566.426,317.142,565.342,319.938,564.641,322.807 M435.612,256.718v1.153l0.104-1.153
				H435.612 M435.612,257.871v-1.153c-1.354,0.144-2.718,0.283-4.091,0.42L435.612,257.871 M436.976,216.016
				c-0.008-0.077-0.008-0.147,0-0.21c0-0.156,0-0.331,0-0.525c0-0.935,0-1.914,0-2.937c0.14-4.896,0.279-8.707,0.42-11.435
				c0.069-2.798,0.104-5.909,0.104-9.336l-0.21,4.091l-1.049,39.339c0,0.209,0,0.418,0,0.629l-0.104,0.42v0.104
				c0.025,0.188,0.025,0.363,0,0.524c0.009,0.104,0.009,0.209,0,0.313c0.009,0.175,0.009,0.349,0,0.524
				c0.005,0.16,0.005,0.3,0,0.421l-0.42,13.741c0.047,0.104,0.082,0.175,0.105,0.211c0.205-6.714,0.415-13.254,0.629-19.618v-1.153
				c0.052-0.401,0.087-0.786,0.104-1.153c0.071-0.7,0.106-1.295,0.106-1.782c0.069-1.681,0.104-3.114,0.104-4.302
				c0-0.35,0-0.735,0-1.155c0-0.355,0-0.74,0-1.153c0.017-1.157,0.052-2.451,0.105-3.882
				C436.871,217.073,436.906,216.514,436.976,216.016 M454.075,53.312c0.558,4.477,0.838,7.134,0.838,7.973
				c0,0.069-1.014,7.308-3.042,21.715c-2.028,14.687-3.042,22.763-3.042,24.232l1.259,22.03l-3.147,53.92
				c0,1.398,0.42,3.497,1.259,6.294c0.839,2.658,1.259,5.909,1.259,9.756c0,0.07-0.489,5.595-1.469,16.575
				c-0.07,0.559-0.141,1.188-0.21,1.888c-0.14,1.189-0.245,2.483-0.314,3.882c-0.07,0.559-0.141,1.153-0.21,1.784
				c-0.21,1.818-0.35,3.565-0.419,5.244c-0.071,0.562-0.141,1.155-0.21,1.784c-0.14,1.748-0.279,3.428-0.42,5.034
				c-0.07,0.562-0.139,1.155-0.21,1.784c-0.07,0.978-0.139,1.925-0.209,2.832c0,0.489-0.036,0.979-0.105,1.469
				c-0.28,3.637-0.419,6.049-0.419,7.239v0.104c0,0.979,0.384,4.475,1.153,10.49c0,0.069,0,0.209,0,0.42
				c0,1.608-0.035,2.551-0.104,2.831c-0.56,1.89-2.134,2.834-4.72,2.834c-2.588,0-4.302-2.448-5.141-7.344
				c-0.069-0.28-0.14-0.561-0.21-0.84c-0.21-2.167-0.349-3.88-0.419-5.141l-0.105,4.616l-0.104,1.153l-0.105,4.721l0.105-4.721
				l-4.091-0.733c-15.946,1.957-32.1,3.567-48.465,4.825l195.958,39.443l5.666,1.049c0.139,0,0.348,0.035,0.629,0.104
				c1.329,0.351,2.622,1.086,3.88,2.205c3.008,2.655,4.512,6.888,4.512,12.692c0,0.14,0,0.313,0,0.524v0.209
				c0,0.072,0,0.174,0,0.315c-0.071,1.33-0.211,2.657-0.42,3.985l-1.678,6.4c-0.072,0.14-0.104,0.279-0.104,0.418l0.524,0.211
				l16.889,3.356c-0.909-0.42-1.784-0.978-2.622-1.678c-2.867-2.519-4.301-6.643-4.301-12.38c0-1.188,0.032-2.377,0.104-3.564
				c0.069-0.632,0.174-1.188,0.313-1.681c0.562-3.915,1.854-7.761,3.883-11.539c3.006-5.454,6.537-9.195,10.595-11.224
				c2.098-1.049,4.057-1.469,5.874-1.258l-168.894-28.535l-0.104,3.883c-6.154,2.098-12.274,1.922-18.358-0.524
				c6.084,2.446,12.204,2.622,18.358,0.524l0.104-3.883l0.211-6.818l5.454-203.721l-5.77,0.629
				C453.829,51.738,453.936,52.472,454.075,53.312 M443.165,52.262l-1.994,0.105l-3.251,120.324v1.153
				c0.419-7.482,0.629-13.357,0.629-17.623c0-5.131,0.28-9.851,0.839-14.162c0.033-0.222,0.068-0.468,0.106-0.734
				c0.559-4.476,0.839-8.532,0.839-12.168l-0.314-5.455c0.794-22.244,1.283-34.167,1.468-35.772c0.42-4.615,0.49-9.091,0.21-13.427
				c-0.28-4.335,0-9.021,0.839-14.057C442.885,57.438,443.094,54.71,443.165,52.262 M441.171,52.368l1.994-0.105
				c0-0.28,0.035-0.524,0.104-0.733l-2.098,0.419V52.368 M628.738,318.086l3.881,0.733c-0.91-0.348-1.75-0.838-2.519-1.467
				c-0.28-0.211-0.524-0.42-0.733-0.631C629.226,317.213,629.017,317.666,628.738,318.086 M542.193,364.559l-4.407-1.155
				l-2.622-0.733C537.262,364.278,539.604,364.907,542.193,364.559 M535.06,362.565c0,0.043,0,0.075,0,0.104h0.104l2.622,0.733
				L535.06,362.565 M534.326,362.461v-0.106l-2.623-0.629L534.326,362.461 M639.857,279.588c-3.915,1.958-7.309,5.488-10.177,10.595
				c-0.418,0.838-0.803,1.643-1.153,2.411c2.239,2.659,3.358,6.505,3.358,11.539c0,4.267-0.841,8.462-2.519,12.589
				c0.209,0.211,0.453,0.42,0.733,0.631c0.769,0.629,1.608,1.119,2.519,1.467c0.909,0.351,1.819,0.492,2.727,0.42
				c1.539,0.072,3.252-0.35,5.141-1.258c0.979-0.489,1.922-1.049,2.832-1.678c1.469-1.119,2.833-2.448,4.092-3.987
				c1.12-1.469,2.202-3.112,3.251-4.93c0.281-0.562,0.562-1.118,0.84-1.68c2.168-4.545,3.217-9.161,3.147-13.847
				c-0.069-5.314-1.539-9.162-4.405-11.539c-1.188-1.119-2.483-1.75-3.883-1.89c-0.209-0.069-0.452-0.104-0.733-0.104
				C643.81,278.188,641.884,278.608,639.857,279.588 M623.598,289.658c-0.28-0.072-0.56-0.104-0.84-0.104
				c-1.817-0.211-3.776,0.209-5.874,1.258c-4.058,2.028-7.589,5.77-10.595,11.224c-2.028,3.778-3.321,7.624-3.883,11.539
				c-0.14,0.492-0.244,1.049-0.313,1.681c-0.072,1.188-0.104,2.376-0.104,3.564c0,5.737,1.434,9.861,4.301,12.38
				c0.838,0.7,1.713,1.258,2.622,1.678c0.908,0.351,1.854,0.524,2.832,0.524c1.608,0.071,3.321-0.383,5.141-1.362
				c4.126-2.028,7.658-5.77,10.595-11.226c0.42-0.838,0.84-1.748,1.26-2.728c0.278-0.42,0.487-0.873,0.629-1.364
				c1.678-4.127,2.519-8.322,2.519-12.589c0-5.034-1.119-8.88-3.358-11.539c-0.351-0.349-0.699-0.698-1.049-1.049
				C626.29,290.496,624.997,289.867,623.598,289.658 M687.797,303.399c-0.209-0.139-0.42-0.246-0.629-0.315
				c-0.42-0.209-0.803-0.455-1.153-0.733c-1.959-1.397-3.288-3.532-3.987-6.398c-1.329,2.448-2.727,4.546-4.195,6.294l7.238,0.944
				l1.678,0.209l1.469,0.104C688.095,303.515,687.955,303.478,687.797,303.399 M676.153,268.048
				c-1.678-0.139-3.495,0.279-5.454,1.259c-3.778,2.098-6.958,5.63-9.548,10.595c-2.585,5.105-3.741,10.246-3.46,15.422
				c0.069,1.536,0.243,2.971,0.524,4.301c0.698,2.866,2.063,5.07,4.091,6.607c0.769,0.562,1.644,1.016,2.623,1.364
				c0.838,0.278,1.678,0.42,2.516,0.42c1.541-0.071,3.147-0.596,4.828-1.573c1.958-0.979,3.811-2.379,5.559-4.196
				c1.469-1.748,2.866-3.846,4.195-6.294v-0.104c2.519-4.967,3.707-10.003,3.567-15.106c-0.069-1.26-0.209-2.414-0.42-3.463
				c-0.698-3.497-2.168-6.083-4.405-7.763c-1.19-0.91-2.483-1.435-3.883-1.574C676.678,267.941,676.432,267.979,676.153,268.048
				 M670.699,269.307c1.959-0.979,3.776-1.397,5.454-1.259l-180.537-20.876c-9.371,1.817-18.777,3.461-28.219,4.93l178.229,26.226
				c0.281,0,0.524,0.035,0.733,0.104c1.399,0.14,2.694,0.771,3.883,1.89c2.866,2.377,4.336,6.225,4.405,11.539
				c0.069,4.686-0.979,9.302-3.147,13.847l13.429,1.889c-0.979-0.349-1.854-0.803-2.623-1.364c-2.027-1.537-3.393-3.741-4.091-6.607
				c-0.281-1.33-0.455-2.765-0.524-4.301c-0.281-5.176,0.875-10.316,3.46-15.422C663.741,274.937,666.921,271.404,670.699,269.307
				 M420.715,332.144c0.49,0.14,1.049,0.28,1.678,0.42c-0.877-0.274-1.717-0.521-2.517-0.735
				C420.141,331.929,420.421,332.033,420.715,332.144 M329.346,251.157c-1.12-3.915-2.134-7.831-3.042-11.748l-19.197-3.252
				l-0.314-0.104l-3.881-0.524l-6.924-1.26l-10.175-1.782l-0.84-0.212c-0.14,0.07-0.209,0.14-0.209,0.212h-0.106
				c-1.118,0.629-2.202,1.469-3.251,2.518c-0.91,0.838-1.749,1.782-2.518,2.832c-0.489,0.629-0.943,1.327-1.363,2.098
				c-0.07,0.209-0.175,0.455-0.314,0.733L329.346,251.157 M324.625,231.121l-0.944-0.104l-9.651-1.573
				c-0.21,0.14-0.384,0.246-0.524,0.315v0.104c-0.979,0.489-1.888,1.119-2.727,1.887c-0.351,0.281-0.63,0.562-0.839,0.841
				c-0.91,0.84-1.714,1.819-2.414,2.938c-0.139,0.209-0.279,0.386-0.419,0.524v0.104l19.197,3.252
				C325.674,236.61,325.114,233.849,324.625,231.121 M454.075,254.2l-0.211,6.818l168.894,28.535c0.28,0,0.56,0.032,0.84,0.104
				c1.399,0.209,2.692,0.838,3.881,1.887c0.35,0.351,0.698,0.7,1.049,1.049c0.351-0.769,0.735-1.573,1.153-2.411
				c2.868-5.106,6.262-8.637,10.177-10.595c2.026-0.979,3.952-1.399,5.77-1.261l-178.229-26.226
				C462.992,252.87,458.55,253.571,454.075,254.2 M366.586,46.388v0.944c-0.14,0.28-0.21,0.56-0.21,0.839
				c0.28-0.35,0.839-0.665,1.678-0.945c0.7-0.21,1.329-0.384,1.888-0.524c2.308-0.49,4.091-0.839,5.351-1.049l-4.721,0.524
				L366.586,46.388 M459.529,50.479v-0.315c-1.397,0.141-2.799,0.21-4.196,0.21c-0.559,0-1.118,0-1.678,0
				c0,0.21,0.035,0.455,0.104,0.735L459.529,50.479 M425.332,54.151c-4.756,0-8.567,0.104-11.435,0.314
				c-3.847,0.07-7.448,0.419-10.805,1.049c-3.637,0.629-7.553,1.015-11.749,1.154c-4.965,0-9.127,0.314-12.484,0.944
				c-5.174,0.49-8.672-0.559-10.49-3.147c-0.77-1.12-1.084-2.098-0.943-2.937c0.139-0.56,0.49-0.979,1.049-1.259
				c-0.28-0.07-0.524-0.14-0.734-0.21c-0.21,0-0.384-0.035-0.524-0.104c-0.49-0.14-0.839-0.281-1.049-0.42
				c-0.42,1.259-0.629,2.483-0.629,3.672c-0.071,2.587,0.874,4.965,2.832,7.133L425.332,54.151 M431.626,40.409
				c0.629-0.07,1.363-0.174,2.202-0.315l-18.568,1.574c2.518-0.07,5.106-0.245,7.763-0.524c1.608-0.141,4.056-0.314,7.343-0.524
				C430.716,40.478,431.136,40.409,431.626,40.409 M441.486,38.311c0.979-0.07,2.168-0.104,3.567-0.104
				c0.909-1.749,2.272-3.043,4.09-3.882c1.469-0.7,2.764-0.804,3.883-0.314c1.258,0.49,1.887,1.504,1.887,3.042
				c0,0.141-0.034,0.42-0.104,0.84c1.049-0.28,2.728-0.665,5.036-1.155l0.104-2.937c-6.085-1.818-12.204-1.958-18.357-0.42
				L441.486,38.311 M513.555,44.5c-1.75,0.21-4.266,0.49-7.553,0.839c-3.497,0.35-6.189,0.629-8.078,0.839
				c-1.957,0-4.092,0.28-6.399,0.839c-0.209-0.209-0.385-0.174-0.524,0.105l28.744-3.147C517.087,44.186,515.023,44.36,513.555,44.5
				 M538.939,32.855c-0.139,0.21-0.348,0.385-0.629,0.524l-1.678,0.21c-3.355-0.07-5.805,0.07-7.343,0.42
				c-0.841-0.07-2.063-0.175-3.672-0.314c-1.678-0.21-2.799-0.245-3.356-0.105c-6.645,1.469-10.42,2.308-11.33,2.518
				c-2.028,0.07-4.335,0.104-6.923,0.104c-2.657,0-5.317,0.21-7.973,0.63c-2.167,0.209-5.245,0.594-9.231,1.154
				c-3.776,0.42-5.805,0.665-6.086,0.734l-7.972,0.629c-0.281,0.21-0.524,0.385-0.733,0.524l-1.47,0.21
				c-1.678-0.069-3.077-0.069-4.196,0c-1.327,0.21-2.831,0.56-4.511,1.049c-0.699,0.14-1.397,0.314-2.099,0.524
				c-2.098,0.42-3.915,0.77-5.454,1.049c-0.278,0-0.56,0.035-0.84,0.104c-2.517,0.141-5.804,0.385-9.86,0.735
				c-0.699,0.069-1.433,0.14-2.203,0.21c-0.7,0.069-1.434,0.14-2.204,0.21c-7.552,0.28-12.868,0.56-15.944,0.839
				c-6.574,0.77-12.519,1.224-17.833,1.364c-5.036,0.071-9.896,0.455-14.582,1.154l18.253,0.209
				c11.889-0.209,18.428-0.349,19.616-0.419l16.785-2.937l39.443-2.938c1.049-0.139,2.519-0.594,4.407-1.364
				c1.748-0.839,3.985-1.363,6.714-1.573l15.315-0.524c10.07-0.49,16.049-0.804,17.938-0.944c0.42-0.14,2.622-0.7,6.609-1.679
				c1.119-0.21,1.782-0.245,1.991-0.104c1.188,0.07,1.89,1.015,2.099,2.833c0,1.678-1.644,3.042-4.93,4.09
				c-0.349,0.07-0.629,0.141-0.84,0.21c-0.979,0.141-1.713,0.314-2.203,0.524l1.47-0.104l0.524-0.105l4.405-0.524l1.26-0.104
				c0.907-3.498,0.838-6.819-0.211-9.966C539.325,32.191,539.151,32.506,538.939,32.855 M386.727,47.857
				c-2.447,0.139-4.301,0.349-5.56,0.629c-2.867,0.7-4.58,1.188-5.14,1.469c-0.49,0.07-1.085,0.174-1.784,0.314
				c1.259,0.14,2.413,0.175,3.462,0.104c0.349-0.21,2.447-0.7,6.294-1.468c2.447-0.7,4.266-1.189,5.455-1.469
				C388.476,47.577,387.566,47.717,386.727,47.857 M539.36,31.073c-0.209-0.28-0.351-0.595-0.421-0.944l-3.88,0.314
				C537.228,30.512,538.661,30.722,539.36,31.073z"/>
			<path fill="#93D498" d="M433.933,53.207l-4.405,0.734c-1.259,0-2.414,0-3.463,0h-0.209v0.104h-0.105l-0.104,0.105h-0.314
				l-56.963,6.188c-1.958-2.167-2.902-4.545-2.832-7.133c-35.807,52.521-50.318,106.581-43.535,162.179
				c0.209,1.189,0.384,2.379,0.524,3.567c0.07,0.629,0.174,1.259,0.314,1.888c0.419,3.427,1.014,6.853,1.784,10.28
				c0.489,2.728,1.049,5.489,1.678,8.288c0.909,3.917,1.923,7.833,3.042,11.748c0.839,2.868,1.713,5.807,2.623,8.813
				c0.489,1.469,0.979,2.973,1.468,4.512c4.406-0.142,8.812-0.281,13.218-0.42c12.238-0.56,24.373-1.259,36.4-2.099
				c16.365-1.258,32.52-2.868,48.465-4.825c1.374-0.137,2.737-0.276,4.091-0.42l0.104-5.036c-0.139-1.752-0.21-2.659-0.21-2.727
				c0-0.49,0-0.978,0-1.47c0.071-1.958,0.21-4.335,0.42-7.132c0-0.42,0-0.875,0-1.364c0-0.42,0.035-0.838,0.104-1.258
				c0-0.421,0.036-0.841,0.105-1.261c0-0.129,0-0.269,0-0.418l0.104-0.42c0-0.211,0-0.42,0-0.629l1.049-39.339l0.105-5.664
				c0.006-0.72,0.006-1.42,0-2.098c-0.071-1.799-0.105-3.303-0.105-4.512c0.099-1.625,0.205-3.198,0.314-4.721
				c0.083-1.334,0.152-2.626,0.21-3.88v-0.105l0.105-1.993l3.251-120.324l-4.406,0.419L433.933,53.207 M365.746,216.645
				c0.561,0.63,1.154,1.224,1.784,1.784c0.42,0.349,0.875,0.7,1.363,1.049c11.051,9.441,26.191,14.547,45.424,15.315
				c-19.233-0.769-34.373-5.874-45.424-15.315c-0.489-0.349-0.943-0.7-1.363-1.049C366.9,217.869,366.307,217.275,365.746,216.645
				c-0.35-0.35-0.699-0.664-1.049-0.943c-13.987-14.617-20.036-37.626-18.148-69.027c-1.888,31.401,4.162,54.41,18.148,69.027
				C365.047,215.981,365.396,216.295,365.746,216.645 M530.863,42.821L530.863,42.821c-0.573,0.11-0.887,0.249-0.944,0.42
				c-1.539,0.069-3.776,0.21-6.714,0.42c-0.488,0-0.943,0.035-1.363,0.104c-0.211,0-0.42,0.035-0.629,0.104l-1.469,0.105L491,47.123
				l-0.42,0.104c-0.351,0-0.664,0-0.944,0c-0.069,0-0.174,0.035-0.313,0.105h-0.524c-1.153,0.174-2.099,0.384-2.834,0.629
				c-1.651,0-3.189,0.035-4.614,0.104l-0.631,0.105l-0.942,0.21c-0.14-0.071-0.211-0.071-0.211,0h-0.104
				c-0.349,0-0.629,0.035-0.84,0.104l-19.092,1.993L454.075,254.2c4.475-0.629,8.917-1.33,13.322-2.099
				c9.441-1.469,18.848-3.112,28.219-4.93c2.099-0.42,4.196-0.805,6.294-1.153c4.336-0.909,8.637-1.819,12.902-2.729
				c4.407-0.91,8.813-1.853,13.219-2.832c-0.069-0.14-0.139-0.246-0.211-0.315c-1.118-1.959-2.167-3.95-3.146-5.979
				c-0.281-0.629-0.56-1.258-0.838-1.89c-1.399-2.655-2.66-5.314-3.778-7.972c-0.91-2.027-1.782-4.021-2.623-5.979
				c-0.209-0.63-0.418-1.189-0.629-1.679c-20.352-52.731-14.614-110.777,17.205-174.139l-0.524,0.105l-1.783,0.209
				c-0.139,0-0.28,0-0.42,0H530.863 M501.281,64.432c-29.584,57.417-36.472,107.595-20.667,150.535
				C464.81,172.026,471.697,121.849,501.281,64.432z"/>
			<path fill="#D88D56" fill-opacity="0.5216" d="M573.14,307.071c-5.945,6.643-8.917,11.4-8.917,14.267l0.418,1.469
				c0.701-2.868,1.785-5.665,3.254-8.393c2.937-5.314,6.504-8.916,10.699-10.806c0.84-0.348,1.608-0.629,2.308-0.838
				C579.573,301.232,576.985,302.666,573.14,307.071z"/>
			<path fill="#6A70AA" d="M435.822,251.893c-0.023-0.036-0.058-0.106-0.105-0.211l-0.104,5.036h0.104l0.105-4.616
				C435.816,252.047,435.816,251.977,435.822,251.893 M437.5,191.258c-0.018-0.409-0.052-0.829-0.104-1.258l-0.105,5.664l0.21-4.091
				V191.258 M437.92,172.691l-0.105,1.993c0.05-0.283,0.085-0.563,0.105-0.839V172.691 M434.249,53.103l2.517-0.316l4.406-0.419
				v-0.42L434.249,53.103 M376.446,45.549c0.42-0.141,0.839-0.28,1.259-0.42l-7.133,0.735c0,0.069,0,0.175,0,0.314l4.721-0.524
				h0.104h0.21c0.069-0.14,0.175-0.175,0.314-0.104H376.446 M459.529,50.164v0.315l19.092-1.993
				c-5.245,0.279-9.335,0.594-12.273,0.944C463.972,49.78,461.697,50.025,459.529,50.164 M434.249,53.103l-0.316,0.104l2.833-0.42
				L434.249,53.103 M433.828,40.094c0.49-0.21,0.979-0.384,1.469-0.524l-23.813,2.308c0.349,0,0.734,0,1.153,0l0.42-0.105
				c0.28,0,0.629-0.035,1.049-0.104h1.153L433.828,40.094 M479.252,35.374c0.069,0,0.174,0,0.313,0c0.211,0,0.455-0.035,0.735-0.104
				L479.252,35.374 M532.017,42.716c-0.209-0.14-0.313-0.104-0.313,0.104l1.783-0.209L532.017,42.716 M539.36,31.073
				c0.071,0.07,0.141,0.209,0.211,0.419c0,0.14-0.037,0.28-0.106,0.42c0.491-0.839,0.979-1.679,1.469-2.518l-8.602,0.839
				c1.049,0,1.957,0.07,2.728,0.21l3.88-0.314C539.01,30.478,539.151,30.793,539.36,31.073z"/>
			<path fill="#B27E52" d="M436.136,236.682c0.025-0.161,0.025-0.336,0-0.524v-0.104c0,0.149,0,0.289,0,0.418
				c-0.069,0.42-0.105,0.84-0.105,1.261c-0.069,0.42-0.104,0.838-0.104,1.258c0,0.489,0,0.944,0,1.364
				c-0.21,2.797-0.349,5.174-0.42,7.132c0,0.492,0,0.979,0,1.47c0,0.067,0.071,0.975,0.21,2.727l0.42-13.741
				c0.005-0.121,0.005-0.261,0-0.421c0.009-0.176,0.009-0.35,0-0.524C436.146,236.891,436.146,236.786,436.136,236.682
				 M437.814,174.79c-0.058,1.254-0.127,2.546-0.21,3.88c-0.11,1.522-0.215,3.096-0.314,4.721c0,1.209,0.035,2.713,0.105,4.512
				c0.006,0.678,0.006,1.378,0,2.098L437.814,174.79 M443.165,52.262c-0.071,2.448-0.28,5.175-0.63,8.183
				c-0.839,5.035-1.119,9.721-0.839,14.057c0.279,4.336,0.21,8.812-0.21,13.427c-0.185,1.605-0.674,13.529-1.468,35.772l0.314,5.455
				c0,3.637-0.28,7.692-0.839,12.168c-0.038,0.266-0.073,0.512-0.106,0.734c-0.559,4.311-0.839,9.031-0.839,14.162
				c0,4.266-0.21,10.141-0.629,17.623c-0.021,0.277-0.055,0.557-0.105,0.839v0.105L437.396,190c0.052,0.429,0.087,0.849,0.104,1.258
				v0.315c0,3.427-0.035,6.538-0.104,9.336c-0.141,2.728-0.28,6.539-0.42,11.435c0,1.023,0,2.002,0,2.937c0,0.194,0,0.369,0,0.525
				c-0.008,0.063-0.008,0.133,0,0.21c-0.07,0.498-0.104,1.057-0.104,1.678c-0.054,1.431-0.088,2.725-0.105,3.882
				c0,0.414,0,0.798,0,1.153c0,0.42,0,0.805,0,1.155c0,1.188-0.035,2.621-0.104,4.302c0,0.487-0.035,1.082-0.106,1.782
				c-0.017,0.367-0.052,0.752-0.104,1.153v1.153c-0.214,6.364-0.424,12.904-0.629,19.618c-0.006,0.084-0.006,0.154,0,0.209
				c0.07,1.261,0.209,2.974,0.419,5.141c0.07,0.279,0.141,0.56,0.21,0.84c0.839,4.896,2.553,7.344,5.141,7.344
				c2.586,0,4.16-0.944,4.72-2.834c0.07-0.28,0.104-1.223,0.104-2.831c0-0.211,0-0.351,0-0.42c-0.769-6.016-1.153-9.511-1.153-10.49
				v-0.104c0-1.19,0.139-3.603,0.419-7.239c0.07-0.489,0.105-0.979,0.105-1.469c0.07-0.907,0.139-1.854,0.209-2.832
				c0.071-0.629,0.14-1.223,0.21-1.784c0.141-1.606,0.28-3.286,0.42-5.034c0.07-0.629,0.14-1.223,0.21-1.784
				c0.069-1.679,0.209-3.426,0.419-5.244c0.069-0.63,0.14-1.225,0.21-1.784c0.069-1.398,0.175-2.692,0.314-3.882
				c0.069-0.7,0.14-1.329,0.21-1.888c0.979-10.98,1.469-16.505,1.469-16.575c0-3.847-0.42-7.098-1.259-9.756
				c-0.839-2.797-1.259-4.896-1.259-6.294l3.147-53.92l-1.259-22.03c0-1.469,1.014-9.545,3.042-24.232
				c2.028-14.407,3.042-21.646,3.042-21.715c0-0.839-0.28-3.497-0.838-7.973c-0.14-0.839-0.246-1.574-0.315-2.203L443.165,52.262
				 M443.27,51.529c-0.07,0.209-0.104,0.454-0.104,0.733l10.595-1.153c-0.069-0.28-0.104-0.525-0.104-0.735
				c-2.728,0.071-5.21,0.28-7.449,0.63L443.27,51.529 M445.053,38.206c0.559,0,1.188,0.035,1.888,0.104
				c2.587,0.069,4.859-0.035,6.818-0.314c0.14-0.07,0.49-0.104,1.049-0.104c0.07-0.42,0.104-0.7,0.104-0.84
				c0-1.538-0.629-2.552-1.887-3.042c-1.119-0.49-2.414-0.385-3.883,0.314C447.325,35.163,445.962,36.457,445.053,38.206z"/>
			<path fill="#9A6243" d="M538.836,326.583c3.288,0,5.734-0.806,7.343-2.412c0.84-0.771,1.435-1.713,1.784-2.833
				c-0.909,0.141-1.854,0.42-2.833,0.84C542.822,323.085,540.725,324.557,538.836,326.583 M421.869,297.314
				c20.562,3.497,32.87,6.085,36.927,7.764c16.573,6.783,43.219,13.952,79.935,21.505h0.105c1.889-2.026,3.986-3.498,6.294-4.405
				c0.979-0.42,1.924-0.699,2.833-0.84c0.14-0.42,0.244-0.875,0.313-1.362l-312.085-73.539c-0.07,0.281-0.104,0.562-0.104,0.84
				c0,3.287,21.19,10.77,63.57,22.45c30.563,8.32,53.816,14.266,69.76,17.833C378.65,289.586,396.133,292.84,421.869,297.314
				 M477.888,294.692c-9.163-3.916-20.842-7.413-35.038-10.491c-14.546-3.216-30.736-5.802-48.57-7.761
				c-9.791-2.098-25.351-6.154-46.682-12.17c-0.349-0.07-0.664-0.14-0.943-0.209c-4.406,0.139-8.813,0.278-13.218,0.42
				c-0.49-1.539-0.979-3.043-1.468-4.512c-17.833-5.034-29.933-8.393-36.297-10.07c-38.184-9.65-58.011-10.806-59.48-3.463
				l312.085,73.539c0-0.281,0-0.562,0-0.841c0-3.566-9.229-7.729-27.694-12.483C495.825,300.218,481.594,296.232,477.888,294.692z"
				/>
			<path fill="#D1A574" fill-opacity="0.302" d="M366.166,49.535c-0.14-0.559-0.104-1.014,0.104-1.363
				C365.432,48.591,365.396,49.045,366.166,49.535 M412.638,41.877c-0.419,0-0.804,0-1.153,0c-2.028,0.139-4.057,0.245-6.084,0.314
				c-5.315,0.21-10.561,0.629-15.735,1.259c-5.036,0.419-9.022,0.979-11.959,1.678c-0.42,0.141-0.839,0.28-1.259,0.42
				L412.638,41.877 M532.332,30.233c-2.727-0.14-6.189-0.174-10.386-0.104c-6.503,1.329-10.313,2.063-11.435,2.202
				c-3.985,0.42-7.587,0.665-10.804,0.735c-3.217-0.14-6.225,0-9.023,0.42c-4.057,0.77-7.236,1.329-9.546,1.678l-0.733,0.106h-0.104
				c-0.28,0.069-0.524,0.104-0.735,0.104c-0.14,0-0.244,0-0.313,0l-0.84,0.104c-1.469,0.07-3.323,0.175-5.561,0.315
				c-3.147,0.139-4.754,0.245-4.825,0.314c-0.209,0.07-0.42,0.104-0.629,0.104h-0.104c-1.89-0.07-3.952,0.035-6.189,0.314
				c-0.421,0.071-0.841,0.14-1.259,0.21c-2.309,0.49-3.987,0.875-5.036,1.155c-0.559,0-0.909,0.035-1.049,0.104
				c-1.959,0.279-4.231,0.384-6.818,0.314c-0.7-0.07-1.329-0.104-1.888-0.104c-1.399,0-2.588,0.035-3.567,0.104
				c-0.419,0.069-0.804,0.105-1.153,0.105c-1.608,0.139-2.798,0.419-3.567,0.839c-0.49,0.07-0.979,0.174-1.468,0.314
				c-0.49,0.141-0.979,0.314-1.469,0.524l101.231-9.651C534.289,30.303,533.381,30.233,532.332,30.233 M539.571,31.492
				c-0.07-0.21-0.14-0.349-0.211-0.419c0,0.28,0.034,0.559,0.104,0.839C539.534,31.771,539.571,31.632,539.571,31.492z"/>
			<path fill="#B27E52" fill-opacity="0.702" d="M485.964,47.962c0.735-0.245,1.681-0.455,2.834-0.629l-7.448,0.734
				C482.774,47.997,484.313,47.962,485.964,47.962 M429.528,53.941l4.405-0.734l-7.868,0.734
				C427.114,53.941,428.269,53.941,429.528,53.941 M529.919,43.241c0.058-0.171,0.371-0.311,0.944-0.42l-7.658,0.84
				C526.143,43.451,528.38,43.311,529.919,43.241z"/>
			<path fill="#CC9D67" d="M425.75,54.046h0.105v-0.104L425.75,54.046 M539.465,31.912c-0.07-0.28-0.104-0.559-0.104-0.839
				c-0.699-0.351-2.133-0.561-4.301-0.63l-101.231,9.651c-0.839,0.141-1.573,0.245-2.202,0.315c-0.49,0-0.91,0.069-1.259,0.21
				c-3.288,0.21-5.735,0.384-7.343,0.524c-2.657,0.28-5.245,0.455-7.763,0.524h-1.153c-0.42,0.07-0.77,0.104-1.049,0.104
				l-0.42,0.105l-36.191,3.672h-0.524c-0.139-0.071-0.245-0.035-0.314,0.104h-0.21h-0.104c-1.259,0.21-3.043,0.559-5.351,1.049
				c-0.56,0.14-1.188,0.314-1.888,0.524c-0.839,0.28-1.398,0.595-1.678,0.945h-0.105c-0.209,0.349-0.245,0.804-0.104,1.363
				c0.21,0.139,0.56,0.28,1.049,0.42c0.14,0.07,0.314,0.104,0.524,0.104c0.21,0.07,0.455,0.14,0.734,0.21
				c-0.559,0.28-0.91,0.7-1.049,1.259c-0.141,0.839,0.174,1.817,0.943,2.937c1.818,2.588,5.316,3.637,10.49,3.147
				c3.357-0.63,7.519-0.944,12.484-0.944c4.196-0.139,8.112-0.524,11.749-1.154c3.357-0.63,6.958-0.979,10.805-1.049
				c2.867-0.21,6.678-0.314,11.435-0.314h0.314l0.104-0.105l0.105-0.104h0.209l7.868-0.734l0.316-0.104l6.923-1.155l2.098-0.419
				l2.937-0.524c2.239-0.351,4.721-0.56,7.449-0.63c0.56,0,1.119,0,1.678,0c1.397,0,2.799-0.069,4.196-0.21
				c2.168-0.139,4.442-0.384,6.818-0.733c2.938-0.35,7.028-0.665,12.273-0.944c0.211-0.07,0.491-0.104,0.84-0.104h0.104
				c0-0.071,0.071-0.071,0.211,0l0.942-0.21l0.631-0.105l7.448-0.734h0.524c0.14-0.071,0.244-0.105,0.313-0.105
				c0.28,0,0.594,0,0.944,0l0.42-0.104c0.14-0.28,0.315-0.314,0.524-0.105c2.308-0.559,4.442-0.839,6.399-0.839
				c1.889-0.21,4.581-0.49,8.078-0.839c3.287-0.349,5.803-0.629,7.553-0.839c1.469-0.14,3.532-0.314,6.189-0.524l1.469-0.105
				c0.209-0.07,0.418-0.104,0.629-0.104c0.42-0.07,0.875-0.104,1.363-0.104l7.658-0.84l0,0h0.42c0.14,0,0.281,0,0.42,0
				c0-0.209,0.104-0.245,0.313-0.104c0.49-0.21,1.224-0.384,2.203-0.524c0.211-0.069,0.491-0.14,0.84-0.21
				c3.286-1.049,4.93-2.413,4.93-4.09c-0.209-1.818-0.91-2.763-2.099-2.833c-0.209-0.14-0.872-0.105-1.991,0.104
				c-3.987,0.979-6.189,1.539-6.609,1.679c-1.89,0.14-7.868,0.454-17.938,0.944l-15.315,0.524c-2.729,0.21-4.966,0.734-6.714,1.573
				c-1.889,0.77-3.358,1.225-4.407,1.364l-39.443,2.938l-16.785,2.937c-1.188,0.07-7.727,0.21-19.616,0.419l-18.253-0.209
				c4.686-0.7,9.545-1.083,14.582-1.154c5.315-0.14,11.26-0.594,17.833-1.364c3.077-0.279,8.393-0.559,15.944-0.839
				c0.77-0.07,1.504-0.141,2.204-0.21c0.77-0.07,1.504-0.141,2.203-0.21c4.057-0.35,7.343-0.594,9.86-0.735
				c0.28-0.069,0.562-0.104,0.84-0.104c1.539-0.279,3.356-0.629,5.454-1.049c0.701-0.21,1.399-0.384,2.099-0.524
				c1.68-0.49,3.184-0.839,4.511-1.049c1.119-0.069,2.519-0.069,4.196,0l1.47-0.21c0.209-0.139,0.452-0.314,0.733-0.524l7.972-0.629
				c0.281-0.07,2.31-0.314,6.086-0.734c3.986-0.56,7.064-0.945,9.231-1.154c2.655-0.42,5.315-0.63,7.973-0.63
				c2.588,0,4.895-0.035,6.923-0.104c0.91-0.21,4.686-1.049,11.33-2.518c0.558-0.139,1.679-0.104,3.356,0.105
				c1.608,0.139,2.831,0.245,3.672,0.314c1.538-0.35,3.987-0.49,7.343-0.42l1.678-0.21c0.281-0.14,0.49-0.314,0.629-0.524
				C539.151,32.506,539.325,32.191,539.465,31.912 M381.167,48.486c1.259-0.28,3.112-0.49,5.56-0.629
				c0.84-0.141,1.749-0.281,2.728-0.42c-1.189,0.28-3.008,0.77-5.455,1.469c-3.847,0.768-5.945,1.258-6.294,1.468
				c-1.049,0.071-2.203,0.035-3.462-0.104c0.699-0.14,1.294-0.245,1.784-0.314C376.587,49.674,378.3,49.186,381.167,48.486z"/>
		</g>
	</g>
	<g>
		<path id="Layer0_0_1_STROKES" fill="none" stroke="#4F3222" stroke-width="2" stroke-linecap="round" stroke-linejoin="round" d="
			M532.332,30.233l8.602-0.839 M535.06,30.443l3.88-0.314c0.07,0.349,0.212,0.665,0.421,0.944 M535.06,30.443l-101.231,9.651
			 M415.26,41.667h-1.153c-0.42,0.07-0.77,0.104-1.049,0.104l-0.42,0.105l-36.191,3.672h-0.524
			c-0.139-0.071-0.245-0.035-0.314,0.104h-0.21 M366.271,48.172c-0.209,0.349-0.245,0.804-0.104,1.363 M425.332,54.151h0.314
			l0.104-0.105l0.105-0.104h0.209l7.868-0.734 M478.621,48.486c0.211-0.07,0.491-0.104,0.84-0.104h0.104
			c0-0.071,0.071-0.071,0.211,0l0.942-0.21l0.631-0.052l7.448-0.735l0.524-0.052c0.14-0.071,0.244-0.105,0.313-0.105
			c0.28,0,0.594,0,0.944,0l0.42-0.104 M519.744,43.976l1.469-0.105c0.209-0.07,0.418-0.104,0.629-0.104
			c0.42-0.07,0.875-0.104,1.363-0.104l7.658-0.787h0.054l0.366-0.054c0.14,0,0.281,0,0.42,0 M539.465,31.912
			c-0.07-0.28-0.104-0.559-0.104-0.839 M532.017,42.716l1.47-0.104l0.524-0.105l4.405-0.524 M539.676,41.877
			c0.907-3.498,0.838-6.819-0.211-9.966 M531.703,42.821l1.783-0.209 M366.166,49.535c-0.42,1.259-0.629,2.483-0.629,3.672
			 M366.271,48.172c0.071-0.35,0.175-0.63,0.315-0.839v-0.944l3.986-0.21 M370.572,45.864l7.133-0.735 M411.484,41.877l23.813-2.308
			 M441.486,38.311l0.106-4.931c6.153-1.538,12.272-1.398,18.357,0.42l-0.104,2.937 M478.412,35.478l0.84-0.104l1.049-0.104h0.104
			l0.733-0.106 M434.249,53.103l2.517-0.316l4.406-0.419v-0.42 M433.933,53.207l2.833-0.42 M441.171,52.368l1.994-0.105
			l10.595-1.153 M425.856,54.046h-0.105 M433.828,40.094l-18.568,1.574 M459.529,50.164v0.315l19.092-1.993 M435.822,252.102
			l-0.105,4.616l-0.104,1.153l-0.105,4.721 M453.76,51.109l5.77-0.629L454.075,254.2 M366.376,48.172c0-0.28,0.07-0.56,0.21-0.839
			 M375.293,45.654l-4.721,0.524 M365.537,53.207c-0.071,2.587,0.874,4.965,2.832,7.133l56.963-6.188 M437.867,174.79v-0.105
			l0.053-1.94l3.251-120.376 M437.92,173.845v-1.101 M437.448,190.053l0.419-15.263 M437.5,191.574v-0.315 M436.188,236.104
			l0.052-0.472 M436.241,235.004l1.102-39.339l0.105-5.612 M436.136,236.995c0.009,0.175,0.009,0.349,0,0.524
			c0.005,0.16,0.005,0.316,0,0.474l-0.368,13.742 M431.521,257.138l4.091,0.733l0.052-1.153 M383.055,261.963l195.958,39.443
			l5.666,1.049c0.139,0,0.348,0.035,0.629,0.104c1.329,0.351,2.622,1.086,3.88,2.205c3.008,2.655,4.512,6.888,4.512,12.692
			c0,0.14,0,0.313,0,0.524v0.209c0,0.072,0,0.174,0,0.315c-0.071,1.33-0.211,2.657-0.42,3.985l-1.678,6.4
			c-0.072,0.14-0.104,0.279-0.104,0.418l0.524,0.211l16.889,3.356c-0.909-0.42-1.784-0.978-2.622-1.678
			c-2.867-2.519-4.301-6.643-4.301-12.38c0-1.188,0.032-2.377,0.104-3.564c0.069-0.632,0.174-1.188,0.313-1.681
			c0.562-3.915,1.854-7.761,3.883-11.539c3.006-5.454,6.537-9.195,10.595-11.224c2.098-1.049,4.057-1.469,5.874-1.258
			l-168.894-28.535l-0.104,3.883c-6.154,2.098-12.274,1.922-18.358-0.524 M435.664,256.718l0.104-4.982 M454.075,254.2l-0.211,6.818
			 M548.276,319.976l2.728,0.629l3.672,0.733 M324.625,231.121l-0.944-0.104l-9.651-1.573c-0.21,0.14-0.384,0.246-0.524,0.315v0.104
			c-0.979,0.489-1.888,1.119-2.727,1.887c-0.351,0.281-0.63,0.562-0.839,0.841c-0.91,0.84-1.714,1.819-2.414,2.938
			c-0.139,0.209-0.279,0.386-0.419,0.524v0.104l19.197,3.252 M329.346,251.157l-52.137-10.49l-3.882-0.733l-11.539-2.414
			l-0.629-0.104h-0.21l-16.05-3.146c-0.14,0.071-0.28,0.104-0.42,0.104c-1.259,0.7-2.413,1.573-3.461,2.622
			c-0.77,0.701-1.504,1.504-2.204,2.414l-0.734,1.153c-0.07,0.072-0.14,0.174-0.21,0.315c-0.069,0.069-0.105,0.14-0.105,0.209
			c-0.069,0-0.104,0.072-0.104,0.211l-0.104,0.104l-0.105,0.209c-0.279,0.351-0.559,0.769-0.839,1.261 M235.982,246.332l0.209,0.104
			 M332.283,308.54c8.252,2.168,16.575,4.37,24.967,6.607c4.545,1.188,9.162,2.414,13.847,3.672l48.15,12.904
			c0.203,0.043,0.413,0.096,0.63,0.157h0.052c0.765,0.181,1.588,0.408,2.465,0.683h0.105l5.035,1.362l12.484,3.358l0.891,0.155
			c0.305,0.068,0.637,0.156,0.997,0.263c0.489,0.14,1.014,0.28,1.573,0.42l24.758,6.609c1.258,0.351,2.516,0.699,3.776,1.049
			c19.091,5.104,38.185,10.21,57.276,15.315 M532.541,359.627c-1.608-2.657-2.411-6.083-2.411-10.279
			c0-2.518,0.313-5.036,0.942-7.554c0.069-0.699,0.246-1.33,0.524-1.888c0-0.211,0.037-0.35,0.106-0.42l0.418-1.469
			c0-0.069,0.037-0.104,0.106-0.104c0-0.28,0.07-0.489,0.209-0.629l0.104-0.42c0.351-0.91,0.736-1.817,1.154-2.728
			c0.211-0.42,0.454-0.909,0.735-1.469c1.329-2.379,2.797-4.407,4.405-6.085 M548.276,319.976l-312.085-73.539 M547.963,321.338
			c0.979-0.209,1.992-0.244,3.041-0.104l0.42,0.104c1.539,0.35,2.973,1.12,4.301,2.309c0.491,0.418,0.944,0.91,1.364,1.467
			c1.75,2.238,2.762,5.245,3.043,9.023c0.069,0.418,0.104,0.873,0.104,1.362c0,0.281,0,0.63,0,1.05s0,0.875,0,1.364
			c-0.07,0-0.07,0.035,0,0.104l-0.104,0.944 M586.146,338.751c-2.308,2.868-4.825,4.967-7.553,6.294
			c-1.959,0.84-3.741,1.226-5.35,1.156c-0.909,0-1.817-0.212-2.727-0.632l-11.015-2.516c-0.701,3.426-1.959,6.749-3.778,9.966
			c-2.937,5.314-6.469,8.847-10.595,10.595c-0.838,0.351-1.608,0.664-2.308,0.944c-0.211,0-0.42,0-0.629,0
			c-2.59,0.349-4.932-0.28-7.029-1.889h-0.052l-0.786-0.209l-2.623-0.735c-0.771-0.209-1.573-0.421-2.413-0.63 M422.394,332.563
			c-0.629-0.14-1.188-0.28-1.678-0.42c-0.294-0.11-0.556-0.199-0.787-0.263 M443.479,338.122c-0.63-0.14-1.189-0.28-1.679-0.42
			c-0.315-0.104-0.612-0.192-0.892-0.263 M302.91,235.528l-6.924-1.26l-10.175-1.782l-0.84-0.212c-0.14,0.07-0.209,0.14-0.209,0.212
			h-0.106c-1.118,0.629-2.202,1.469-3.251,2.518c-0.91,0.838-1.749,1.782-2.518,2.832c-0.489,0.629-0.943,1.327-1.363,2.098
			c-0.07,0.209-0.175,0.455-0.314,0.733 M302.91,235.528l3.881,0.524l0.314,0.104 M270.915,292.069
			c-2.238-0.558-4.476-1.153-6.714-1.782 M215.421,241.611l-1.049-0.313c-0.139,0.07-0.28,0.14-0.419,0.209l-0.105,0.104
			c-1.259,0.629-2.447,1.504-3.566,2.623c-1.539,1.399-2.938,3.219-4.196,5.456c-0.35,0.629-0.63,1.258-0.84,1.887
			c-0.909,1.89-1.574,3.813-1.993,5.77c-0.28,0.91-0.455,1.89-0.524,2.938c-0.141,0.838-0.21,1.713-0.21,2.622
			c0,0.209,0,0.453,0,0.734c0,2.028,0.245,3.846,0.734,5.456c0.07,0.418,0.174,0.803,0.314,1.153c0.07,0.14,0.141,0.313,0.21,0.524
			c0.07,0.14,0.104,0.28,0.104,0.42l0.839,1.362c0.21,0.42,0.489,0.806,0.84,1.153c0.139,0.14,0.314,0.316,0.524,0.525
			c0.28,0.35,0.524,0.594,0.733,0.735l5.561,1.469c17.203,4.614,34.478,9.23,51.821,13.847 M236.611,242.872
			c-0.07,0.069-0.104,0.174-0.104,0.313c-0.21,0.42-0.42,0.909-0.63,1.469l-0.735,1.469l0.84,0.209 M224.337,243.71l-1.049-0.313
			l-7.868-1.785 M224.337,243.71l0.735,0.104h0.314l9.755,2.309 M332.283,308.54c-20.491-5.525-40.947-11.015-61.368-16.471
			 M697.396,267.051l-0.996-0.052 M700.49,267.208c-0.209-0.069-0.455-0.104-0.733-0.104c-0.209,0-0.455,0-0.733,0L700.49,267.208
			c1.049,0.279,2.065,0.733,3.043,1.365c2.309,1.817,3.775,4.613,4.406,8.392 M698.916,267.104c-0.209,0-0.385,0-0.523,0
			c-1.537,0-3.078,0.42-4.614,1.258c-1.681,0.91-3.185,2.063-4.512,3.463c-1.539,1.469-2.901,3.286-4.092,5.454
			c0.211,1.049,0.351,2.203,0.42,3.463c0.14,5.104-1.049,10.14-3.567,15.106v0.104c0.699,2.866,2.028,5.001,3.987,6.398
			c0.351,0.278,0.733,0.524,1.153,0.733c0.209,0.069,0.42,0.177,0.629,0.315c0.158,0.078,0.316,0.132,0.474,0.158l0.367,0.051
			c0.838,0.351,1.678,0.492,2.518,0.42c1.049-0.069,2.131-0.313,3.252-0.733c0.42-0.142,0.838-0.351,1.258-0.629h0.104
			c3.567-1.959,6.609-5.212,9.128-9.757c0.14-0.348,0.313-0.733,0.524-1.153c0.56-1.33,1.049-2.588,1.469-3.776
			c0.91-3.077,1.328-6.12,1.258-9.128c-0.069-0.698-0.139-1.329-0.209-1.887 M699.023,267.104h-0.107 M698.393,267.104l-0.996-0.053
			 M664.93,307.596c-0.979-0.349-1.854-0.803-2.623-1.364c-2.027-1.537-3.393-3.741-4.091-6.607
			c-0.281-1.33-0.455-2.765-0.524-4.301c-0.281-5.176,0.875-10.316,3.46-15.422c2.59-4.965,5.77-8.497,9.548-10.595
			c1.959-0.979,3.776-1.397,5.454-1.259l-180.537-20.876 M676.153,268.048c0.278-0.069,0.524-0.106,0.733-0.106
			c1.399,0.14,2.692,0.664,3.883,1.574c2.237,1.68,3.707,4.266,4.405,7.763 M586.986,337.702c-0.209,0.14-0.385,0.315-0.524,0.524
			c-0.069,0.14-0.177,0.315-0.315,0.524 M643.318,316.304c1.469-1.119,2.833-2.448,4.092-3.987 M685.07,303.19l1.678,0.209
			l1.522,0.158 M685.07,303.19l-7.238-0.944c-1.748,1.817-3.601,3.217-5.559,4.196c-1.681,0.978-3.287,1.502-4.828,1.573
			c-0.838,0-1.678-0.142-2.516-0.42l-13.429-1.889c-0.278,0.562-0.559,1.118-0.84,1.68c-1.049,1.817-2.131,3.461-3.251,4.93
			 M682.027,295.952c-1.329,2.448-2.727,4.546-4.195,6.294 M628.738,318.086c0.278-0.42,0.487-0.873,0.629-1.364
			c1.678-4.127,2.519-8.322,2.519-12.589c0-5.034-1.119-8.88-3.358-11.539c-0.351-0.349-0.699-0.698-1.049-1.049
			c-1.188-1.049-2.481-1.678-3.881-1.887c-0.28-0.072-0.56-0.104-0.84-0.104 M628.527,292.594c0.351-0.769,0.735-1.573,1.153-2.411
			c2.868-5.106,6.262-8.637,10.177-10.595c2.026-0.979,3.952-1.399,5.77-1.261l-178.229-26.226 M651.501,305.707
			c2.168-4.545,3.217-9.161,3.147-13.847c-0.069-5.314-1.539-9.162-4.405-11.539c-1.188-1.119-2.483-1.75-3.883-1.89
			c-0.209-0.069-0.452-0.104-0.733-0.104 M580.901,302.771c1.329-0.351,2.59-0.455,3.778-0.315 M538.836,326.583
			c1.889-2.026,3.986-3.498,6.294-4.405c0.979-0.42,1.924-0.699,2.833-0.84 M570.518,345.569c-0.91-0.348-1.785-0.942-2.623-1.782
			c-1.188-1.118-2.135-2.446-2.833-3.987l-0.421-1.153c-0.139-0.28-0.243-0.524-0.313-0.733c-0.072-0.42-0.142-0.84-0.212-1.26
			l-0.209-1.259c-0.069-0.069-0.104-0.139-0.104-0.209c0-0.35,0-0.7,0-1.049c-0.141-0.909-0.211-1.854-0.211-2.833
			c0-2.237,0.246-4.478,0.736-6.715c0-0.278,0-0.487,0-0.629c0.069-0.42,0.174-0.805,0.313-1.153
			c0.701-2.868,1.785-5.665,3.254-8.393c2.937-5.314,6.504-8.916,10.699-10.806c0.84-0.348,1.608-0.629,2.308-0.838
			 M560.027,340.324l-0.42,2.414c-0.072,0.14-0.104,0.246-0.104,0.315 M535.06,362.565c-0.209-0.211-0.42-0.386-0.629-0.524
			c-0.769-0.699-1.399-1.504-1.89-2.414 M531.703,361.726l2.623,0.629l0.733,0.211l2.727,0.838l4.407,1.155 M535.06,362.565
			c0,0.043,0.017,0.075,0.053,0.104 M535.164,362.67l2.622,0.733 M632.619,318.819c0.909,0.351,1.819,0.492,2.727,0.42
			c1.539,0.072,3.252-0.35,5.141-1.258c0.979-0.489,1.922-1.049,2.832-1.678 M628.738,318.086l3.881,0.733
			c-0.91-0.348-1.75-0.838-2.519-1.467c-0.28-0.211-0.524-0.42-0.733-0.631 M608.911,332.877c0.908,0.351,1.854,0.524,2.832,0.524
			c1.608,0.071,3.321-0.383,5.141-1.362c4.126-2.028,7.658-5.77,10.595-11.226c0.42-0.838,0.84-1.748,1.26-2.728 M589.293,333.926
			c0,0.072-0.032,0.104-0.104,0.104c-0.698,1.33-1.432,2.553-2.202,3.672 M591.498,329.31c-0.701,1.541-1.435,3.078-2.205,4.616
			 M437.342,195.665l0.158-4.091 M491,47.123l28.744-3.147"/>
	</g>
	<g>
		<path id="Layer0_0_2_STROKES" fill="none" stroke="#2C2862" stroke-width="2" stroke-linecap="round" stroke-linejoin="round" d="
			M540.934,29.394c-0.49,0.839-0.978,1.679-1.469,2.518c-0.14,0.28-0.313,0.594-0.525,0.944 M370.572,46.178c0-0.14,0-0.245,0-0.314
			"/>
	</g>
	<g>
		<path id="Layer0_0_3_STROKES" fill="none" stroke="#003333" stroke-width="2" stroke-linecap="round" stroke-linejoin="round" d="
			M322.002,215.386c-6.784-55.598,7.728-109.658,43.535-162.179 M454.075,254.2c4.475-0.629,8.917-1.33,13.322-2.099
			c9.441-1.469,18.848-3.112,28.219-4.93c2.099-0.42,4.196-0.805,6.294-1.153c4.336-0.909,8.637-1.819,12.902-2.729
			c4.407-0.91,8.813-1.853,13.219-2.832c-0.069-0.14-0.139-0.246-0.211-0.315c-1.118-1.959-2.167-3.95-3.146-5.979
			c-0.281-0.629-0.56-1.258-0.838-1.89c-1.399-2.655-2.66-5.314-3.778-7.972c-0.91-2.027-1.782-4.021-2.623-5.979
			c-0.209-0.63-0.418-1.189-0.629-1.679c-20.352-52.731-14.614-110.777,17.205-174.139 M435.664,256.718
			c-1.389,0.144-2.77,0.283-4.144,0.42c-15.946,1.957-32.1,3.567-48.465,4.825 M435.716,256.718h-0.052 M346.549,146.675
			c-1.888,31.401,4.162,54.41,18.148,69.027c0.35,0.279,0.699,0.594,1.049,0.943c0.561,0.63,1.154,1.224,1.784,1.784
			c0.42,0.349,0.875,0.7,1.363,1.049c11.051,9.441,26.191,14.547,45.424,15.315 M326.303,239.409
			c-0.629-2.799-1.189-5.561-1.678-8.288c-0.77-3.428-1.364-6.854-1.784-10.28 M329.346,251.157
			c0.839,2.868,1.713,5.807,2.623,8.813c0.489,1.469,0.979,2.973,1.468,4.512c4.406-0.142,8.812-0.281,13.218-0.42
			c12.238-0.56,24.373-1.259,36.4-2.099 M329.346,251.157c-1.12-3.915-2.134-7.831-3.042-11.748 M322.841,220.841
			c-0.14-0.629-0.245-1.259-0.314-1.888c-0.14-1.188-0.315-2.378-0.524-3.567 M501.281,64.432
			c-29.584,57.417-36.472,107.595-20.667,150.535"/>
	</g>
</g>
</svg>
