<svg xmlns="http://www.w3.org/2000/svg" width="900" height="450" viewBox="0 0 900 450"><g><linearGradient id="a" gradientUnits="userSpaceOnUse" x1="422.607" y1="452.967" x2="420.142" y2="-142.88" gradientTransform="matrix(1 0 0 -1 29.04 379.34)"><stop offset="0" stop-color="#a399ff"/><stop offset=".49" stop-color="#fff"/></linearGradient><path fill="url(#a)" d="M540.934 29.394c-.49.839-.978 1.679-1.469 2.518 1.049 3.147 1.118 6.468.211 9.966l-1.26.104-4.405.524c-31.819 63.362-37.557 121.408-17.205 174.139 7.555 0 13.779.105 18.674.314 1.258 0 2.481.035 3.672.105l207.916 1.468V201.54h.524V17.96c-.728-.28-1.603-.42-2.623-.42H159.508c-3.567 0-5.35 1.958-5.35 5.874V185.28h2.307v28.848l165.537 1.258c-6.784-55.598 7.728-109.658 43.535-162.179 0-1.188.209-2.413.629-3.672-.77-.49-.734-.944.104-1.363.071-.35.175-.63.315-.839v-.944l3.986-.21v-.314l7.133-.735c2.937-.698 6.923-1.259 11.959-1.678 5.175-.63 10.42-1.049 15.735-1.259a176.98 176.98 0 0 0 6.084-.314l23.813-2.308c.489-.14.979-.245 1.468-.314.769-.42 1.958-.7 3.567-.839.349 0 .734-.036 1.153-.105l.106-4.931c6.153-1.538 12.272-1.398 18.357.42l-.104 2.937 1.259-.21c2.237-.28 4.3-.384 6.189-.314h.104c.209 0 .42-.035.629-.104.071-.07 1.678-.175 4.825-.314 2.237-.141 4.092-.245 5.561-.315l.84-.104 1.049-.104h.104l.733-.106c2.31-.349 5.489-.908 9.546-1.678 2.799-.42 5.807-.56 9.023-.42 3.217-.07 6.818-.314 10.804-.735 1.121-.139 4.932-.874 11.435-2.202 4.196-.07 7.659-.035 10.386.104l8.605-.843m204.035 401.778c.63 0 1.191-.071 1.679-.211h-78.782c-1.118.069-2.236.14-3.355.211h80.458m-587.139-.211c.488.14 1.049.211 1.678.211h254.179c-1.119-.071-2.238-.142-3.357-.211h-252.5M366.586 47.333c-.14.209-.245.49-.315.839h.105c0-.28.07-.56.21-.839z"/><path fill="#9FAEE8" d="M747.067 245.283v-9.966c-34.173 5.385-79.667 7.902-136.478 7.555-3.638-.07-10.525-.177-20.666-.316a186.345 186.345 0 0 0-5.876-.104c4.547.351 9.268.769 14.162 1.259 1.541.071 3.567.104 6.085.104a3048.68 3048.68 0 0 0-38.604 2.622c6.574.351 13.08.771 19.514 1.26 20.21 1.399 42.764 3.183 67.662 5.351a6835.753 6835.753 0 0 0 94.201-7.765m-38.919 33.569c.07 3.008-.348 6.051-1.258 9.128 13.511-.131 26.904-.34 40.177-.631v-11.433c-11.714.299-24.757.649-39.128 1.049.071.557.14 1.188.209 1.887m38.919-45.108v-.42c-11.701 1.049-25.759 2.27-42.17 3.671-2.519-1.118-6.366-2.061-11.54-2.831-8.463-1.188-22.31-2.099-41.541-2.728a946.257 946.257 0 0 0-13.112-.315c1.397-.838 2.131-1.747 2.202-2.727-1.608-.42-3.042-.804-4.301-1.153.349-.142 1.748-.212 4.196-.212-.139-.979-.454-1.852-.944-2.621-1.26-2.028-3.219-3.042-5.874-3.042-6.505-.07-11.646.07-15.422.42-8.181.77-12.447 1.188-12.798 1.259-14.547.909-43.114 1.329-85.706 1.258a102.028 102.028 0 0 0 3.778 7.972c48.673 2.519 89.027 4.336 121.056 5.457l.315 1.153c-27.694-.42-67.347-1.959-118.96-4.616a11.278 11.278 0 0 0-1.573-.104 98.103 98.103 0 0 0 3.146 5.979 41.12 41.12 0 0 1 4.092-.209c15.315.069 29.651.664 43.01 1.782 89.189-1.914 146.572-4.574 172.146-7.973m-16.364 148.124c1.327 0 2.692.032 4.092.104 4.423.108 8.515.247 12.272.42v-1.89c-5.862.48-11.316.934-16.364 1.366m16.364-15.318v-9.965l-42.694 4.932c-21.053 2.026-40.878 3.811-59.481 5.35h21.716c38.111.132 64.931.028 80.459-.317m0-51.086v-13.009c-17.327.224-34.88.502-52.66.84-1.121.42-2.203.664-3.252.733-.84.072-1.68-.069-2.518-.42l-.421-.104-1.469-.104c-2.866.07-5.77.14-8.705.209 2.167-.139 4.509-.278 7.027-.418l-7.238-.944c-1.748 1.817-3.601 3.217-5.559 4.196-1.681.978-3.287 1.502-4.828 1.573a7.96 7.96 0 0 1-2.516-.42l-13.429-1.889c-.278.562-.559 1.118-.84 1.68-1.049 1.817-2.131 3.461-3.251 4.93 22.658.489 47.766 1.258 75.32 2.307l24.339.84m-41.645-23.708c-.211.42-.385.806-.524 1.153-2.519 4.545-5.561 7.798-9.128 9.757 13.556-.61 30.653-1.241 51.298-1.889v-9.232c-13.284.14-27.167.211-41.646.211M285.077 413.443h-16.995v.838c0 6.225 40.808 11.435 122.422 15.631 6.784.351 13.393.7 19.826 1.049 1.12.069 2.239.14 3.357.211 6.294.278 12.414.56 18.358.838h214.211c6.155-.278 12.24-.56 18.254-.838 1.119-.071 2.237-.142 3.355-.211 28.384-1.483 54.785-3.44 79.202-5.874v-13.638c-25.429 2.207-47.946 3.887-67.558 5.036-49.861 2.866-103.153 4.301-159.87 4.301-53.431-.069-108.925-2.274-166.482-6.609a882.11 882.11 0 0 0-12.378-.944c-19.162.14-37.73.21-55.702.21m-24.863-18.778c-32.73.979-54.864 2.377-66.403 4.196-10.84 1.538-16.225 4.092-16.155 7.658-.07.07.07.629.42 1.679 14.617.489 32.485.872 53.605 1.153 23.568-2.099 36.437-3.147 38.604-3.147 99.098-.56 176.132-1.153 231.101-1.782 27.625-1.33 60.389-3.077 98.293-5.245 61.85-3.735 110.979-6.393 147.389-7.975v-4.405c-13.976-.346-32.333-.942-55.074-1.782-18.671 1.328-33.952 2.099-45.842 2.308-254.775 4.754-383.42 7.202-385.938 7.342m82.663-42.905c-1.888 2.309-5.735 3.428-11.539 3.357-6.084-.491-10.036-.631-11.854-.42l-16.994 2.099c-9.791 1.118-20.071 1.993-30.841 2.622-20.072.908-45.424 1.33-76.055 1.258-14.478-.209-26.891-.42-37.24-.629 0 .14-.036.315-.105.524.14 1.119 1.714 2.063 4.72 2.832 7.694 1.61 28.883 2.448 63.572 2.518 59.165.142 117.211-1.014 174.139-3.46 29.792-1.188 60.563-2.729 92.314-4.616 4.755-.281 9.511-.49 14.266-.629a3.465 3.465 0 0 0-.104.838c0 1.469.421 2.797 1.259 3.987 1.12 1.678 3.008 2.657 5.665 2.936 17.694.979 53.466 1.573 107.316 1.785a8976.23 8976.23 0 0 1 82.978-8.288c16.741-1.532 30.975-2.827 42.694-3.881v-2.098c-33.294.557-61.198.803-83.711.733a109.757 109.757 0 0 0-3.778-.104c8.208-.373 13.733-.897 16.575-1.573 3.776-1.05 5.665-3.112 5.665-6.19-.071-6.642-28.778-8.951-86.124-6.923-3.147.069-6.331.174-9.548.313-2.308 2.868-4.825 4.967-7.553 6.294-1.959.84-3.741 1.226-5.35 1.156-.909 0-1.817-.212-2.727-.632l-11.015-2.516c-.701 3.426-1.959 6.749-3.778 9.966-2.937 5.314-6.469 8.847-10.595 10.595-.838.351-1.608.664-2.308.944h-.629c-2.59.349-4.932-.28-7.029-1.889h-.104l-.733-.209-2.623-.735c-.771-.209-1.573-.421-2.413-.63l-57.276-15.315a3272.707 3272.707 0 0 1-54.445 2.832 3822.927 3822.927 0 0 1-54.759 1.993l-.21.841a88.105 88.105 0 0 0-2.727-.736c-40.982 1.05-85.006 1.504-132.073 1.365-26.365-.142-47.8-.524-64.305-1.153-3.217 0-4.931.454-5.14 1.362-.21.629-.105 2.271.314 4.932v.942c10.21.14 21.924.315 35.142.524 34.059.069 53.046.037 56.962-.104 13.427-.978 31.715-2.272 54.864-3.881.839-.071 6.784-.805 17.833-2.202 7.274-.91 13.743-1.155 19.407-.735m-158.088 61.579l1.889-.106h-3.777a15.11 15.11 0 0 0 1.888.106m-27.904-33.36a93.165 93.165 0 0 0 4.406-.315 518.41 518.41 0 0 0 4.09-.209c-2.796 0-5.629.035-8.497.104v.42m46.997-86.125c-8.811.209-17.868.525-27.169.945.139 1.327.489 2.271 1.049 2.831.839.84 2.868 1.539 6.084 2.099 2.167.348 17.413 1.538 45.737 3.566 11.33.978 24.513 1.888 39.548 2.728a1633.693 1633.693 0 0 0 63.152 2.518 27750.312 27750.312 0 0 0-61.368-16.471 3789.847 3789.847 0 0 0-67.033 1.784m-46.996-21.296v12.275c7.692.838 16.015 1.713 24.967 2.622-1.329.279-2.413.804-3.251 1.574-1.259.909-1.888 2.342-1.888 4.3 32.169-1.329 61.332-2.342 87.488-3.042a27066.38 27066.38 0 0 1-51.821-13.847l-5.561-1.469c-.209-.142-.454-.386-.733-.735l-.524-.525a9350.061 9350.061 0 0 0-48.677-1.153m0-33.358a20.398 20.398 0 0 1 3.251-.631c2.588-.488 5.071-.91 7.449-1.259a219.015 219.015 0 0 1-10.7-.629v2.519m112.771-10.701c-7.553-.49-16.015-1.084-25.387-1.783-3.637-.211-7.203-.42-10.7-.629-18.252-1.33-34.582-2.623-48.989-3.882-4.757.21-9.651.42-14.687.63-4.965.35-9.302.839-13.008 1.468v2.834c46.088-.14 83.678.313 112.771 1.362m15.315 3.775l.84.212c7.482 0 15.525.034 24.127.104a4.78 4.78 0 0 1 .839-.841 597.34 597.34 0 0 1-13.008-.524c-22.659-.838-69.62-1.817-140.884-2.936v6.083c8.113.28 19.127.631 33.044 1.049 7.623-.558 13.742-1.293 18.358-2.202 10.35-.699 35.807-.945 76.369-.733h.106c0-.072.07-.141.209-.212m134.381 151.061c3.637-.07 6.678-.279 9.126-.629-12.868.071-26.436.104-40.703.104-148.751.35-225.121.594-229.106.735-.56.069-1.155.139-1.784.209v10.91c55.109-.209 99.658-1.364 133.646-3.463 19.371-1.188 34.058-2.483 44.059-3.88 29.513-2.028 57.767-3.355 84.762-3.986m24.127-45.213c-.63-.14-1.189-.28-1.679-.42-104.413-.418-166.096-1.188-185.048-2.308-11.609-.979-23.744-1.713-36.401-2.202-15.246-.769-36.401-1.469-63.466-2.098v8.076c6.364.211 13.568.455 21.609.735 13.638.418 75.25 2.446 184.839 6.083 43.22.142 78.188-.28 104.904-1.258l-24.758-6.608m-20.98-5.559h-.105c-.629-.14-1.188-.28-1.678-.42-15.036.069-31.785.069-50.249 0-9.091-.072-31.996-.806-68.711-2.203-18.532-.631-37.485-1.329-56.856-2.098-27.065-.7-56.402-1.75-88.014-3.147v4.614l61.997-.733c21.19.069 33.185.91 35.982 2.519 20.63 1.329 78.188 2.271 172.669 2.831l-5.035-1.363m-98.818-101.546l.944.104a105.394 105.394 0 0 1-1.784-10.28c-11.749.91-20.491 1.364-26.226 1.364-2.377 0-6.294-.104-11.749-.314-6.854-.139-10.386-.35-10.595-.629 13.427-.42 29.197-1.189 47.311-2.308-21.889-.14-47.171-.245-75.844-.314-11.19.909-24.058 1.749-38.604 2.517 3.356.28 6.819.559 10.385.84a22848.86 22848.86 0 0 1 55.18 4.405 5448.568 5448.568 0 0 1 40.807 3.463v-.104a5.14 5.14 0 0 0 .524-.315l9.651 1.571m268.341 99.132v-.629l-.524-.211a137.265 137.265 0 0 1-2.205 4.616h1.785c.629-.977.944-2.237.944-3.776m-57.696 32.205v.106l.733.209v-.104l-.733-.211m.734.211a3.986 3.986 0 0 0-.629-.524 9.044 9.044 0 0 1-1.89-2.414l-3.251 1.469c.84.209 1.643.421 2.413.63l2.623.629.734.21m63.57-106.476c1.121.209 2.31.383 3.567.524a5239.735 5239.735 0 0 0 30.631-2.202c-16.224-1.47-25.806-2.237-28.742-2.31a7454.568 7454.568 0 0 0-64.515-3.88l-2.938.209c-2.237.211-4.405.385-6.503.524l68.5 7.135M275.321 407.462c-2.378 0-4.196.701-5.455 2.099h27.904c-7.833-.7-15.316-1.398-22.449-2.099m-40.179-161.339l.735-1.469c.21-.56.42-1.049.63-1.469-4.057.141-8.112.315-12.169.524l.735.104h.314l9.755 2.31m-78.257.524v10.07c1.888.701 4.301 1.084 7.239 1.153 10.35.072 23.393-.104 39.128-.524a25.715 25.715 0 0 1 1.993-5.77c.21-.629.49-1.258.84-1.887 1.258-2.237 2.657-4.057 4.196-5.456-10.421.351-20.736.666-30.946.944-11.819.422-19.303.911-22.45 1.47m79.726-3.461h-.104c-.21.42-.42.909-.63 1.469l-.735 1.469.84.209.629-3.147M437.186 378.51c.349-.769.524-1.679.524-2.728 0-3.286-1.888-5.384-5.665-6.294-3.707-1.049-10.315-1.295-19.826-.733-32.311 2.727-63.956 4.825-94.937 6.294-28.744 1.258-58.92 2.308-90.532 3.147 81.615.07 151.76.174 210.436.314m4.72-40.808h-.105c.489.14 1.049.28 1.679.42-.56-.14-1.084-.28-1.574-.42z"/><path fill="#768BDE" d="M747.067 261.858V248.85a5808.89 5808.89 0 0 1-72.803 6.085 9392.032 9392.032 0 0 1 72.803 6.923m-50.667 5.141h.942l1.573.104h.84c.278 0 .524.035.733.104 1.049.279 2.065.733 3.043 1.365 2.309 1.817 3.775 4.613 4.406 8.392 14.371-.399 27.414-.75 39.128-1.049v-10.597c-8.732-.767-18.139-1.64-28.22-2.623-26.086-2.585-47.73-4.65-64.933-6.188-11.47.769-23.046 1.573-34.725 2.412 24.131 3.079 49.87 5.771 77.213 8.08m50.667-33.675v-3.041c-9.46.065-19.077.065-28.849 0-20.77.558-35.841.838-45.212.838-13.429 0-24.128-.907-32.101-2.727-.071.979-.805 1.889-2.202 2.727 4.196.072 8.566.175 13.112.315 19.231.629 33.078 1.539 41.541 2.728 5.174.771 9.021 1.713 11.54 2.831 16.413-1.401 30.47-2.622 42.171-3.671m0-4.929v-9.861l-207.916-1.468c3.355.139 5.839.245 7.447.314 1.819.21 4.231.594 7.239 1.154 2.587.489 7.552.979 14.895 1.469.769.56.455.839-.944.839-.14 0-6.398-.454-18.775-1.363-6.926-.49-17.448-.874-31.578-1.153a405.196 405.196 0 0 0 2.623 5.979c42.592.071 71.159-.35 85.706-1.258.351-.07 4.617-.489 12.798-1.259 3.776-.35 8.917-.49 15.422-.42 2.655 0 4.614 1.014 5.874 3.042.49.77.806 1.643.944 2.621 6.225-.069 18.916.07 38.079.421 13.428.211 27.205.489 41.332.84a3209.2 3209.2 0 0 1 26.854.103m-.42 202.566h.42v-5.874c-24.417 2.434-50.818 4.391-79.202 5.874h78.782m.42-101.021c-9.025 1.451-16.614 2.5-22.763 3.147-25.807 2.516-71.578 4.057-137.318 4.614a1.88 1.88 0 0 0-.524.524c-.069.14-.177.315-.315.524 3.217-.14 6.4-.244 9.548-.313 57.346-2.028 86.053.281 86.124 6.923 0 3.078-1.889 5.141-5.665 6.19-2.842.676-8.367 1.2-16.575 1.573 1.213.013 2.471.047 3.778.104 22.513.069 50.417-.177 83.711-.733V329.94m-1.154-4.406c.381-.101.764-.207 1.153-.313v-5.877c-15.237-.67-39.783-1.438-73.641-2.307-11.331-.349-21.366-.595-30.108-.733a23.368 23.368 0 0 1-2.832 1.678c-1.889.908-3.602 1.33-5.141 1.258-.907.072-1.817-.069-2.727-.42l-3.881-.733c-.42.979-.84 1.89-1.26 2.728-2.937 5.456-6.469 9.197-10.595 11.226-1.819.979-3.532 1.434-5.141 1.362a7.814 7.814 0 0 1-2.832-.524l-16.889-3.356v.629c0 1.539-.315 2.799-.944 3.776 63.71-.629 107.035-2.063 129.975-4.301 7.762-.773 16.051-2.135 24.863-4.093m1.153-23.079v-1.678c-20.645.647-37.742 1.278-51.298 1.889h-.104c-.42.278-.838.487-1.258.629 17.781-.338 35.333-.616 52.66-.84M340.779 413.232c4.057.28 8.183.596 12.378.944 57.557 4.335 113.051 6.54 166.482 6.609 56.717 0 110.009-1.435 159.87-4.301 19.611-1.149 42.129-2.829 67.558-5.036v-13.637c-12.13.745-23.495 1.442-34.094 2.098-141.476 7.764-265.542 12.204-372.194 13.323m96.931-37.45c0 1.049-.175 1.959-.524 2.728 54.688.211 99.343.42 133.961.629 43.569.351 78.361.875 104.378 1.573 8.743.281 27.134.664 55.179 1.156 5.048-.433 10.502-.886 16.364-1.365V366.55c-15.528.345-42.349.449-80.46.316h-21.716a3339.936 3339.936 0 0 1-50.878 3.775c-2.098-.069-3.286-.28-3.564-.629a4250.185 4250.185 0 0 0 30.946-3.251c-53.851-.212-89.622-.806-107.316-1.785-2.657-.278-4.545-1.258-5.665-2.936a6.766 6.766 0 0 1-1.259-3.987c0-.281.035-.56.104-.838-4.755.139-9.511.348-14.266.629-31.752 1.887-62.523 3.428-92.314 4.616-56.927 2.446-114.974 3.602-174.139 3.46-34.688-.069-55.878-.907-63.572-2.518-3.006-.769-4.58-1.713-4.72-2.832.069-.209.105-.385.105-.524h-1.889v19.932h.42v-.42c2.868-.069 5.7-.104 8.497-.104 9.792-.489 15.666-.91 17.625-1.258h43.744c31.611-.84 61.788-1.89 90.532-3.147 30.981-1.469 62.626-3.567 94.937-6.294 9.511-.562 16.12-.315 19.826.733 3.776.91 5.664 3.008 5.664 6.294m166.585-131.968c-2.518 0-4.544-.033-6.085-.104-4.895-.49-9.615-.908-14.162-1.259-8.949-.211-13.498-.42-13.637-.629a96.129 96.129 0 0 1 4.511-.106c-13.358-1.118-27.694-1.713-43.01-1.782-1.327 0-2.692.069-4.092.209.072.069.142.176.211.315a900.16 900.16 0 0 1-13.219 2.832c17.415.979 34.374 2.028 50.878 3.146a3050.15 3050.15 0 0 1 38.605-2.622M428.479 382.706c-2.448.35-5.49.559-9.126.629-26.995.631-55.249 1.958-84.761 3.987-10.001 1.396-24.688 2.691-44.059 3.88-33.989 2.099-78.538 3.254-133.646 3.463v-10.91h-.42v23.289c6.134.427 13.337.812 21.61 1.154-.35-1.05-.49-1.608-.42-1.679-.07-3.566 5.315-6.12 16.155-7.658 11.54-1.819 33.673-3.217 66.403-4.196 2.518-.14 131.163-2.588 385.937-7.343 11.89-.209 27.171-.979 45.842-2.308-1.956-.14-3.915-.246-5.874-.315-40.002-1.678-65.46-2.518-76.37-2.518-8.182.001-68.605.174-181.271.525m-160.397 31.575v-.838c-33.149-.07-60.284-.14-81.404-.211l-1.889.106a15.11 15.11 0 0 1-1.888-.106c-10.359-.068-19.171-.173-26.436-.313v18.042H410.33c-6.433-.349-13.042-.698-19.826-1.049-81.614-4.196-122.422-9.406-122.422-15.631M156.465 273.187v20.98c6.859-.311 13.607-.59 20.247-.838 0-1.958.629-3.391 1.888-4.3.839-.771 1.923-1.295 3.251-1.574a3445.566 3445.566 0 0 1-24.967-2.622v-12.275l-.419.629m7.659-15.316c-2.938-.069-5.351-.452-7.239-1.153v-10.07c3.147-.56 10.63-1.049 22.45-1.469 10.21-.278 20.525-.594 30.946-.944 1.119-1.119 2.307-1.994 3.566-2.623h-57.382v19.407c6.786.358 13.604.744 20.456 1.153 9.162.492 17.694.979 25.597 1.47v-.734c0-.909.069-1.784.21-2.622.07-1.049.245-2.028.524-2.938-15.735.419-28.778.595-39.128.523m-7.659 8.604v1.887c.775.63 1.23.945 1.365.945 13.707.139 28.953.454 45.737.944a5.54 5.54 0 0 1-.314-1.153c-9.441-.492-19.757-1.017-30.946-1.574-5.514-.34-10.793-.691-15.842-1.049m.42-38.185h-.42v6.083h.42v-6.083m0-1.153v-2.834c3.707-.629 8.043-1.119 13.008-1.468 5.035-.21 9.93-.42 14.687-.63-10.363-.869-19.734-1.743-28.115-2.623v7.555h.42m80.88 13.95c0-.069.036-.14.105-.209.07-.142.14-.243.21-.315l.734-1.153c-29.582-.42-53.325-1.119-71.229-2.099a186.63 186.63 0 0 0-7.449 1.259c-1.188.139-2.272.35-3.251.631v-2.519c-.14-.01-.28-.01-.42 0v3.043c17.022.214 44.122.668 81.3 1.362m83.818-22.134h.944a63.614 63.614 0 0 0-.524-3.567l-165.537-1.258v3.356c11.553.852 28.442 2.076 50.668 3.672 14.546-.769 27.414-1.608 38.604-2.517 28.673.069 53.955.174 75.845.314m49.514 99.866c-8.743.07-16.365.106-22.869.106-19.443-.139-47.451-1.364-84.027-3.671-26.423-1.675-62.335-2.793-107.735-3.358v17.413h.42v-4.614c31.611 1.397 60.948 2.447 88.014 3.147 19.371.769 38.324 1.467 56.856 2.098 36.716 1.397 59.621 2.131 68.711 2.203 18.463.069 35.213.069 50.249 0l-.839-.315a7.959 7.959 0 0 1-.63-.104l-48.15-12.905m-8.498 32.627l.21-.841a3851.805 3851.805 0 0 0 54.759-1.993 3272.707 3272.707 0 0 0 54.445-2.832c-1.261-.35-2.519-.698-3.776-1.049-26.716.978-61.684 1.399-104.904 1.258-109.588-3.637-171.201-5.665-184.839-6.083-8.042-.28-15.246-.524-21.609-.735v-8.076c-.14-.035-.28-.072-.42-.104v27.063c.71.012 1.444.047 2.204.104v-.942c-.42-2.66-.524-4.303-.314-4.932.209-.908 1.923-1.362 5.14-1.362 16.504.629 37.94 1.012 64.305 1.153 47.067.139 91.091-.315 132.073-1.365.838.212 1.748.455 2.726.736m-5.349-36.299a7197.8 7197.8 0 0 0-24.967-6.607c-20.771-.42-41.822-1.26-63.152-2.518-15.036-.84-28.219-1.75-39.548-2.728-28.324-2.028-43.569-3.219-45.737-3.566-3.217-.56-5.245-1.259-6.084-2.099-.56-.56-.91-1.504-1.049-2.831l-20.247.942v12.799c33.537.494 63.295 1.474 89.273 2.937 40.771 2.309 77.383 3.532 109.833 3.671h1.678m146.863-68.919l26.017 2.728c2.098-.14 4.266-.313 6.503-.524l2.938-.209c-12.309-.701-24.128-1.367-35.458-1.995m182.635 57.171l-1.678-.209c-2.519.14-4.86.279-7.027.418 2.936-.069 5.839-.138 8.705-.209M269.866 409.561c1.259-1.397 3.077-2.099 5.455-2.099 7.133.701 14.616 1.399 22.449 2.099 54.829-.14 107.7-1.153 158.613-3.041 13.077-.559 28.077-1.26 45.003-2.098-54.969.629-132.003 1.223-231.101 1.782-2.167 0-15.036 1.049-38.604 3.147 11.749.07 24.478.139 38.185.21m-33.255-166.689c-.07.069-.104.174-.104.313h.104v-.313m-.104.314c0-.14.035-.244.104-.313.28-.492.56-.91.839-1.261h-22.029l7.868 1.785 1.049.313c4.057-.209 8.112-.384 12.169-.524m41.016-3.252h-4.196l3.882.733c.139-.278.245-.524.314-.733m29.269-3.881l.314.104v-.104h-.314m-25.387-1.049c1.049-1.049 2.133-1.889 3.251-2.518-40.562-.212-66.019.034-76.369.733-4.616.909-10.735 1.645-18.358 2.202 4.126.069 8.567.211 13.323.42a3877.4 3877.4 0 0 0 37.765 1.153 15.592 15.592 0 0 1 3.461-2.622c.14 0 .28-.033.42-.104l16.05 3.146h.21l.629.104c6.435.14 12.133.246 17.099.316a19.636 19.636 0 0 1 2.519-2.83m4.406-2.518l10.175 1.782 6.924 1.26h4.615a14.288 14.288 0 0 1 2.414-2.938c-8.603-.069-16.646-.104-24.128-.104z"/><path fill="#4360D1" fill-opacity=".678" d="M747.067 248.851v-3.567a6821.143 6821.143 0 0 1-94.201 7.764c-24.898-2.168-47.452-3.951-67.662-5.351a868.279 868.279 0 0 0-19.514-1.26 4419.401 4419.401 0 0 0-50.878-3.146c-4.266.909-8.566 1.819-12.902 2.729l2.203.209c11.33.629 23.148 1.295 35.458 1.994a7454.568 7454.568 0 0 1 64.515 3.88c2.937.072 12.519.84 28.742 2.31a5154.051 5154.051 0 0 1-30.631 2.202c5.594.769 11.261 1.539 16.993 2.308a7167.597 7167.597 0 0 1 34.725-2.412c17.202 1.537 38.847 3.603 64.933 6.188 10.081.983 19.487 1.856 28.22 2.623v-3.461a9342.972 9342.972 0 0 0-72.803-6.923 5884.853 5884.853 0 0 0 72.802-6.087m0-13.534v-1.573c-25.574 3.398-82.957 6.059-172.146 7.972-1.538 0-3.042.037-4.511.106.139.209 4.688.418 13.637.629 1.75 0 3.709.035 5.876.104 10.141.14 17.028.246 20.666.316 56.811.349 102.306-2.169 136.478-7.554m0-5.034v-1.889c-8.706-.07-17.655-.104-26.854-.104a4528.896 4528.896 0 0 0-41.332-.84c-19.163-.351-31.854-.49-38.079-.421-2.448 0-3.848.07-4.196.212 1.259.35 2.692.733 4.301 1.153 7.973 1.819 18.672 2.727 32.101 2.727 9.371 0 24.442-.28 45.212-.838 9.77.066 19.387.066 28.847 0m0 126.302v-1.992c-11.72 1.054-25.953 2.349-42.694 3.881a8983.142 8983.142 0 0 0-82.978 8.288 4256.042 4256.042 0 0 1-30.946 3.251c.278.349 1.467.56 3.564.629a3365.806 3365.806 0 0 0 50.878-3.775 4452.783 4452.783 0 0 0 59.481-5.35l42.695-4.932m0-31.364c-.39.106-.772.213-1.153.313-8.813 1.958-17.101 3.32-24.861 4.091-22.939 2.237-66.265 3.672-129.975 4.301h-1.785c0 .072-.032.104-.104.104a35.9 35.9 0 0 1-2.202 3.672c65.74-.558 111.512-2.099 137.318-4.614 6.148-.647 13.737-1.696 22.763-3.147v-4.72m-.001-5.877v-3.88l-24.337-.841c-27.555-1.049-52.662-1.817-75.32-2.307a24.396 24.396 0 0 1-4.092 3.987c8.742.139 18.777.385 30.108.733 33.858.869 58.404 1.638 73.641 2.308m0-27.799v-4.196c-13.272.291-26.666.5-40.177.631a69.21 69.21 0 0 1-1.469 3.776c14.48 0 28.363-.071 41.646-.211M268.082 413.443h16.995c17.973 0 36.541-.07 55.703-.211 106.651-1.119 230.718-5.56 372.194-13.322 10.599-.655 21.964-1.353 34.094-2.098v-6.61c-36.409 1.582-85.539 4.239-147.389 7.975-37.904 2.168-70.668 3.915-98.293 5.245a6774.606 6774.606 0 0 1-45.003 2.098c-50.913 1.888-103.784 2.901-158.613 3.041h-27.904c-13.707-.07-26.436-.14-38.185-.209-21.12-.281-38.988-.664-53.605-1.153-8.273-.343-15.476-.728-21.61-1.154v5.875c7.264.141 16.077.245 26.436.313h3.777c21.119.071 48.254.14 81.403.21m119.693-30.632c14.268 0 27.835-.033 40.703-.104 112.666-.351 173.09-.524 181.271-.524 10.91 0 36.368.84 76.37 2.518 1.959.069 3.918.176 5.874.315 22.741.84 41.099 1.437 55.074 1.782v-4.404c-3.758-.173-7.85-.312-12.272-.42a79.618 79.618 0 0 0-4.092-.104c-28.045-.492-46.436-.875-55.179-1.156-26.017-.698-60.809-1.223-104.378-1.573-34.618-.209-79.273-.418-133.961-.629-58.676-.14-128.82-.244-210.436-.313h-43.744c-1.958.348-7.833.769-17.625 1.258-1.258.069-2.623.14-4.09.209-1.469.14-2.937.246-4.406.315h-.42v3.776h.42c.629-.07 1.224-.14 1.784-.209 3.987-.144 80.356-.388 229.107-.737m158.824-165.432c-1.608-.07-4.092-.175-7.447-.314a61.694 61.694 0 0 0-3.672-.105c-4.895-.209-11.119-.314-18.674-.314.211.49.42 1.049.629 1.679 14.13.279 24.652.664 31.578 1.153 12.377.91 18.636 1.363 18.775 1.363 1.399 0 1.713-.279.944-.839-7.343-.49-12.308-.979-14.895-1.469-3.007-.559-5.419-.944-7.238-1.154M157.83 269.307c-.134 0-.589-.315-1.365-.945v4.825l.42-.629c16.575.351 32.799.735 48.675 1.153a4.367 4.367 0 0 1-.84-1.153l-.839-1.362c0-.14-.035-.28-.104-.42a3.809 3.809 0 0 0-.21-.524c-16.784-.491-32.03-.807-45.737-.945m-1.365-8.288v5.456c5.048.358 10.328.709 15.841 1.049 11.189.558 21.505 1.082 30.946 1.574-.49-1.61-.734-3.428-.734-5.456-7.903-.49-16.435-.978-25.597-1.47-6.851-.409-13.67-.795-20.456-1.153m57.907-19.721l1.049.313h22.029l.105-.209.104-.104c0-.139.035-.211.104-.211-37.178-.694-64.277-1.147-81.299-1.362v1.887h57.382l.105-.104.421-.21m56.543 50.771a234.397 234.397 0 0 1-6.714-1.782c-26.156.7-55.319 1.713-87.488 3.042-6.64.248-13.388.527-20.247.838v1.574l20.247-.942c9.301-.42 18.358-.736 27.169-.945 21.47-.768 43.814-1.365 67.033-1.785m-32.101-52.66c.7-.91 1.434-1.713 2.204-2.414a3876.442 3876.442 0 0 1-37.765-1.153 492.364 492.364 0 0 0-13.323-.42 7739.24 7739.24 0 0 1-33.044-1.049h-.42v2.309c.14-.01.28-.01.42 0 3.288.281 6.854.49 10.7.629 17.903.979 41.646 1.678 71.228 2.098m71.964-7.659a11.948 11.948 0 0 1 2.727-1.887 5448.568 5448.568 0 0 0-40.807-3.463 23286.474 23286.474 0 0 0-55.18-4.405c-3.566-.281-7.028-.56-10.385-.84-22.226-1.596-39.116-2.82-50.668-3.672v2.098c8.381.88 17.751 1.754 28.115 2.623 14.407 1.259 30.736 2.553 48.989 3.882 3.498.209 7.063.418 10.7.629 9.372.699 17.833 1.293 25.387 1.783-29.093-1.049-66.683-1.502-112.771-1.362h-.42v1.153h.42c71.264 1.118 118.226 2.098 140.884 2.936 4.057.212 8.393.386 13.009.525m131.023 105.952l-.944-.313-.839-.104-12.484-3.358c-94.482-.56-152.039-1.502-172.669-2.831-2.798-1.608-14.792-2.449-35.982-2.519l-61.997.733h-.42v1.681c.14.032.28.069.42.104 27.065.629 48.22 1.329 63.466 2.098 12.658.489 24.792 1.224 36.401 2.202 18.952 1.119 80.635 1.889 185.048 2.307m-110.463 17.415c5.804.07 9.651-1.049 11.539-3.357-5.664-.42-12.133-.175-19.407.735-11.05 1.397-16.995 2.131-17.833 2.202a17225.782 17225.782 0 0 0-54.864 3.881c-3.917.142-22.904.174-56.962.104a16307.25 16307.25 0 0 0-35.142-.524 36.352 36.352 0 0 0-2.204-.104v1.993h1.889c10.35.209 22.763.42 37.24.629 30.631.072 55.982-.35 76.055-1.258 10.77-.629 21.05-1.504 30.841-2.622l16.994-2.099c1.819-.211 5.77-.071 11.854.42m25.912-39.97h-1.678c-32.45-.139-69.062-1.362-109.833-3.671-25.978-1.463-55.736-2.442-89.273-2.937v3.356c45.4.565 81.312 1.684 107.735 3.358 36.577 2.307 64.584 3.532 84.027 3.671 6.503 0 14.126-.036 22.869-.106a2389.117 2389.117 0 0 0-13.847-3.671m287.957-76.262l-.315-1.153c-32.028-1.121-72.383-2.938-121.056-5.457.278.632.557 1.261.838 1.89.56 0 1.084.035 1.573.104 51.613 2.657 91.266 4.196 118.96 4.616m-367.684 1.049c.42-.771.874-1.469 1.363-2.098a2321.18 2321.18 0 0 1-17.099-.316l11.539 2.414h4.197m25.387-4.406l3.881.524h.314c.14-.139.28-.315.419-.524h-4.614m-18.043-13.638c5.455.21 9.372.314 11.749.314 5.735 0 14.477-.454 26.226-1.364a17.447 17.447 0 0 1-.314-1.888h-.944c-18.113 1.119-33.883 1.888-47.311 2.308.208.281 3.74.491 10.594.63m156.934 115.812h.105c-.36-.106-.709-.213-1.049-.313l.944.313z"/><path fill="#CB9A62" d="M698.393 267.104h.523l-1.573-.104 1.05.104m.523 0h-.523c-1.537 0-3.078.42-4.614 1.258a17.96 17.96 0 0 0-4.512 3.463c-1.539 1.469-2.901 3.286-4.092 5.454a24.37 24.37 0 0 1 .42 3.463c.14 5.104-1.049 10.14-3.567 15.106v.104c.699 2.866 2.028 5.001 3.987 6.398a6.55 6.55 0 0 0 1.153.733c.209.069.42.177.629.315.158.078.298.115.42.104l.421.104c.838.351 1.678.492 2.518.42 1.049-.069 2.131-.313 3.252-.733.42-.142.838-.351 1.258-.629h.104c3.567-1.959 6.609-5.212 9.128-9.757a15.3 15.3 0 0 1 .524-1.153 69.21 69.21 0 0 0 1.469-3.776c.91-3.077 1.328-6.12 1.258-9.128a73.018 73.018 0 0 0-.209-1.887c-.631-3.778-2.098-6.574-4.406-8.392a10.622 10.622 0 0 0-3.043-1.365l-1.467-.104h-.108m.841.002h-.733l1.467.104a2.36 2.36 0 0 0-.734-.104m-2.414-.105h-.943c-27.344-2.309-53.082-5.001-77.21-8.078a5277.966 5277.966 0 0 1-16.993-2.308 50.245 50.245 0 0 1-3.567-.524l-68.5-7.134-26.017-2.728-2.203-.209c-2.098.349-4.195.733-6.294 1.153l180.537 20.876c.278-.069.524-.106.733-.106 1.399.14 2.692.664 3.883 1.574 2.237 1.68 3.707 4.266 4.405 7.763 1.19-2.168 2.553-3.985 4.092-5.454a17.983 17.983 0 0 1 4.512-3.463c1.536-.838 3.077-1.258 4.614-1.258l-1.049-.104m-365.06 41.541a7197.8 7197.8 0 0 1 24.967 6.607c4.545 1.188 9.162 2.414 13.847 3.672l48.15 12.904c.203.043.413.077.63.104.8.215 1.64.461 2.517.735h.105l5.035 1.362 12.484 3.358.839.104c.34.101.689.207 1.049.313.489.14 1.014.28 1.573.42l24.758 6.609c1.258.351 2.516.699 3.776 1.049l57.276 15.315 3.251-1.469c-1.608-2.657-2.411-6.083-2.411-10.279 0-2.518.313-5.036.942-7.554.069-.699.246-1.33.524-1.888 0-.211.037-.35.106-.42l.418-1.469c0-.069.037-.104.106-.104 0-.28.07-.489.209-.629l.104-.42c.351-.91.736-1.817 1.154-2.728l.735-1.469c1.329-2.379 2.797-4.407 4.405-6.085h-.105c-36.716-7.553-63.361-14.722-79.935-21.505-4.057-1.679-16.365-4.267-36.927-7.764-25.736-4.475-43.219-7.729-52.452-9.755-15.944-3.567-39.198-9.513-69.76-17.833-42.38-11.681-63.57-19.163-63.57-22.45 0-.278.035-.559.104-.84l-.209-.104-.84-.209-9.755-2.309h-.314l-.735-.104-1.049-.313-7.868-1.785-1.049-.313-.419.209-.105.104c-1.259.629-2.447 1.504-3.566 2.623-1.539 1.399-2.938 3.219-4.196 5.456-.35.629-.63 1.258-.84 1.887a25.698 25.698 0 0 0-1.993 5.77c-.28.91-.455 1.89-.524 2.938-.141.838-.21 1.713-.21 2.622v.734c0 2.028.245 3.846.734 5.456.07.418.174.803.314 1.153.07.14.141.313.21.524.07.14.104.28.104.42l.839 1.362c.21.42.489.806.84 1.153l.524.525c.28.35.524.594.733.735l5.561 1.469c17.203 4.614 34.478 9.23 51.821 13.847 2.238.629 4.476 1.225 6.714 1.782a30419.302 30419.302 0 0 1 61.374 16.477m-.315-48.57a972.724 972.724 0 0 1-2.623-8.813l-52.137-10.49-3.882-.733-11.539-2.414-.629-.104h-.21l-16.05-3.146a.918.918 0 0 1-.42.104 15.57 15.57 0 0 0-3.461 2.622 18.516 18.516 0 0 0-2.204 2.414l-.734 1.153a1.24 1.24 0 0 0-.21.315c-.069.069-.105.14-.105.209-.069 0-.104.072-.104.211l-.104.104-.105.209a9.877 9.877 0 0 0-.839 1.261v.313l-.629 3.146.209.104c1.469-7.343 21.296-6.188 59.48 3.463 6.363 1.679 18.463 5.038 36.296 10.072m110.882 24.231c14.196 3.078 25.875 6.575 35.038 10.491 3.706 1.54 17.938 5.525 42.694 11.959 18.465 4.755 27.694 8.917 27.694 12.483v.841l2.728.629 3.672.733-3.672-.733-2.728-.629a7.832 7.832 0 0 1-.313 1.362 8.852 8.852 0 0 1 3.041-.104l.42.104c1.539.35 2.973 1.12 4.301 2.309.491.418.944.91 1.364 1.467 1.75 2.238 2.762 5.245 3.043 9.023.069.418.104.873.104 1.362v2.414c-.07 0-.07.035 0 .104l-.104.944.104-.944c-.07-.069-.07-.104 0-.104v-1.364-1.05c0-.489-.035-.944-.104-1.362-.281-3.778-1.293-6.785-3.043-9.023a9.145 9.145 0 0 0-1.364-1.467c-1.328-1.188-2.762-1.959-4.301-2.309l-.42-.104a8.877 8.877 0 0 0-3.041.104 6.327 6.327 0 0 1-1.784 2.833c-1.608 1.606-4.055 2.412-7.343 2.412-1.608 1.678-3.076 3.706-4.405 6.085l-.735 1.469a46.42 46.42 0 0 0-1.154 2.728l-.104.42c-.139.14-.209.349-.209.629-.069 0-.106.035-.106.104l-.418 1.469c-.069.07-.106.209-.106.42a5.386 5.386 0 0 0-.524 1.888 31.063 31.063 0 0 0-.942 7.554c0 4.196.803 7.622 2.411 10.279a9.024 9.024 0 0 0 1.89 2.414c.209.139.42.313.629.524l2.727.838 4.407 1.155h.629c.699-.28 1.47-.594 2.308-.944 4.126-1.748 7.658-5.28 10.595-10.595 1.819-3.217 3.077-6.54 3.778-9.966 0-.069.032-.176.104-.315l.42-2.414-.42 2.414a.772.772 0 0 0-.104.315l11.015 2.516c-.91-.348-1.785-.942-2.623-1.782a12.493 12.493 0 0 1-2.833-3.987l-.421-1.153a5.914 5.914 0 0 1-.313-.733c-.072-.42-.142-.84-.212-1.26l-.209-1.259c-.069-.069-.104-.139-.104-.209v-1.049a18.472 18.472 0 0 1-.211-2.833c0-2.237.246-4.478.736-6.715v-.629c.069-.42.174-.805.313-1.153l-.418-1.469c0-2.866 2.972-7.624 8.917-14.267 3.846-4.405 6.434-5.839 7.762-4.301 1.329-.351 2.59-.455 3.778-.315l-5.666-1.049-195.958-39.443c-12.028.84-24.163 1.539-36.4 2.099.279.069.594.139.943.209 21.331 6.016 36.891 10.072 46.682 12.17 17.828 1.958 34.019 4.544 48.565 7.76m121.791 38.606a5.595 5.595 0 0 0-.313 1.153v.629a31.319 31.319 0 0 0-.736 6.715c0 .979.07 1.924.211 2.833v1.049c0 .07.035.14.104.209l.209 1.259c.07.42.14.84.212 1.26.069.209.174.453.313.733l.421 1.153a12.493 12.493 0 0 0 2.833 3.987c.838.84 1.713 1.435 2.623 1.782.909.42 1.817.632 2.727.632 1.608.069 3.391-.316 5.35-1.156 2.728-1.327 5.245-3.426 7.553-6.294a5.14 5.14 0 0 0 .315-.524 1.88 1.88 0 0 1 .524-.524 35.72 35.72 0 0 0 2.202-3.672c.072 0 .104-.032.104-.104a135.344 135.344 0 0 0 2.205-4.616.9.9 0 0 1 .104-.418l1.678-6.4c.209-1.328.349-2.655.42-3.985v-.524-.524c0-5.805-1.504-10.037-4.512-12.692-1.258-1.119-2.551-1.854-3.88-2.205a2.93 2.93 0 0 0-.629-.104c-1.188-.14-2.449-.035-3.778.315-.699.209-1.468.49-2.308.838-4.195 1.89-7.763 5.491-10.699 10.806-1.468 2.724-2.552 5.52-3.253 8.389m-129.029-66.089v1.153l.104-1.153h-.104m0 1.153v-1.153c-1.354.144-2.718.283-4.091.42l4.091.733m1.364-41.855a.92.92 0 0 1 0-.21v-.525-2.937c.14-4.896.279-8.707.42-11.435.069-2.798.104-5.909.104-9.336l-.21 4.091-1.049 39.339v.629l-.104.42v.104c.025.188.025.363 0 .524.009.104.009.209 0 .313.009.175.009.349 0 .524.005.16.005.3 0 .421l-.42 13.741c.047.104.082.175.105.211.205-6.714.415-13.254.629-19.618v-1.153c.052-.401.087-.786.104-1.153.071-.7.106-1.295.106-1.782.069-1.681.104-3.114.104-4.302v-1.155-1.153c.017-1.157.052-2.451.105-3.882a12.27 12.27 0 0 1 .106-1.676m17.099-162.704c.558 4.477.838 7.134.838 7.973 0 .069-1.014 7.308-3.042 21.715-2.028 14.687-3.042 22.763-3.042 24.232l1.259 22.03-3.147 53.92c0 1.398.42 3.497 1.259 6.294.839 2.658 1.259 5.909 1.259 9.756 0 .07-.489 5.595-1.469 16.575-.07.559-.141 1.188-.21 1.888a57.581 57.581 0 0 0-.314 3.882c-.07.559-.141 1.153-.21 1.784a71.238 71.238 0 0 0-.419 5.244 109.46 109.46 0 0 0-.21 1.784c-.14 1.748-.279 3.428-.42 5.034-.07.562-.139 1.155-.21 1.784-.07.978-.139 1.925-.209 2.832 0 .489-.036.979-.105 1.469-.28 3.637-.419 6.049-.419 7.239v.104c0 .979.384 4.475 1.153 10.49v.42c0 1.608-.035 2.551-.104 2.831-.56 1.89-2.134 2.834-4.72 2.834-2.588 0-4.302-2.448-5.141-7.344l-.21-.84c-.21-2.167-.349-3.88-.419-5.141l-.105 4.616-.104 1.153-.105 4.721.105-4.721-4.091-.733a1072.885 1072.885 0 0 1-48.465 4.825l195.958 39.443 5.666 1.049c.139 0 .348.035.629.104 1.329.351 2.622 1.086 3.88 2.205 3.008 2.655 4.512 6.888 4.512 12.692v1.048a38.965 38.965 0 0 1-.42 3.985l-1.678 6.4a.9.9 0 0 0-.104.418l.524.211 16.889 3.356a11.83 11.83 0 0 1-2.622-1.678c-2.867-2.519-4.301-6.643-4.301-12.38 0-1.188.032-2.377.104-3.564.069-.632.174-1.188.313-1.681.562-3.915 1.854-7.761 3.883-11.539 3.006-5.454 6.537-9.195 10.595-11.224 2.098-1.049 4.057-1.469 5.874-1.258l-168.894-28.535-.104 3.883c-6.154 2.098-12.274 1.922-18.358-.524 6.084 2.446 12.204 2.622 18.358.524l.104-3.883.211-6.818 5.454-203.721-5.77.629c.068.634.175 1.368.314 2.208m-10.91-1.05l-1.994.105-3.251 120.324v1.153c.419-7.482.629-13.357.629-17.623 0-5.131.28-9.851.839-14.162l.106-.734c.559-4.476.839-8.532.839-12.168l-.314-5.455c.794-22.244 1.283-34.167 1.468-35.772.42-4.615.49-9.091.21-13.427-.28-4.335 0-9.021.839-14.057.349-3.008.558-5.736.629-8.184m-1.994.106l1.994-.105c0-.28.035-.524.104-.733l-2.098.419v.419m187.567 265.718l3.881.733a9.086 9.086 0 0 1-2.519-1.467 6.729 6.729 0 0 1-.733-.631c-.141.492-.35.945-.629 1.365m-86.545 46.473l-4.407-1.155-2.622-.733c2.098 1.607 4.44 2.236 7.029 1.888m-7.133-1.994v.104h.104l2.622.733-2.726-.837m-.734-.104v-.106l-2.623-.629 2.623.735m105.531-82.873c-3.915 1.958-7.309 5.488-10.177 10.595a76.394 76.394 0 0 0-1.153 2.411c2.239 2.659 3.358 6.505 3.358 11.539 0 4.267-.841 8.462-2.519 12.589.209.211.453.42.733.631a9.071 9.071 0 0 0 2.519 1.467c.909.351 1.819.492 2.727.42 1.539.072 3.252-.35 5.141-1.258a23.24 23.24 0 0 0 2.832-1.678 24.396 24.396 0 0 0 4.092-3.987 46.24 46.24 0 0 0 3.251-4.93c.281-.562.562-1.118.84-1.68 2.168-4.545 3.217-9.161 3.147-13.847-.069-5.314-1.539-9.162-4.405-11.539-1.188-1.119-2.483-1.75-3.883-1.89a2.335 2.335 0 0 0-.733-.104c-1.817-.139-3.743.281-5.77 1.261m-16.259 10.07a3.355 3.355 0 0 0-.84-.104c-1.817-.211-3.776.209-5.874 1.258-4.058 2.028-7.589 5.77-10.595 11.224-2.028 3.778-3.321 7.624-3.883 11.539a10.2 10.2 0 0 0-.313 1.681 58.895 58.895 0 0 0-.104 3.564c0 5.737 1.434 9.861 4.301 12.38a11.83 11.83 0 0 0 2.622 1.678 7.793 7.793 0 0 0 2.832.524c1.608.071 3.321-.383 5.141-1.362 4.126-2.028 7.658-5.77 10.595-11.226.42-.838.84-1.748 1.26-2.728.278-.42.487-.873.629-1.364 1.678-4.127 2.519-8.322 2.519-12.589 0-5.034-1.119-8.88-3.358-11.539-.351-.349-.699-.698-1.049-1.049-1.191-1.049-2.484-1.678-3.883-1.887m64.199 13.741a2.644 2.644 0 0 0-.629-.315 6.513 6.513 0 0 1-1.153-.733c-1.959-1.397-3.288-3.532-3.987-6.398-1.329 2.448-2.727 4.546-4.195 6.294l7.238.944 1.678.209 1.469.104c-.123.011-.263-.026-.421-.105m-11.644-35.351c-1.678-.139-3.495.279-5.454 1.259-3.778 2.098-6.958 5.63-9.548 10.595-2.585 5.105-3.741 10.246-3.46 15.422.069 1.536.243 2.971.524 4.301.698 2.866 2.063 5.07 4.091 6.607a10.21 10.21 0 0 0 2.623 1.364 7.96 7.96 0 0 0 2.516.42c1.541-.071 3.147-.596 4.828-1.573 1.958-.979 3.811-2.379 5.559-4.196 1.469-1.748 2.866-3.846 4.195-6.294v-.104c2.519-4.967 3.707-10.003 3.567-15.106a24.37 24.37 0 0 0-.42-3.463c-.698-3.497-2.168-6.083-4.405-7.763-1.19-.91-2.483-1.435-3.883-1.574a3.027 3.027 0 0 0-.733.105m-5.454 1.259c1.959-.979 3.776-1.397 5.454-1.259l-180.537-20.876a770.54 770.54 0 0 1-28.219 4.93l178.229 26.226c.281 0 .524.035.733.104 1.399.14 2.694.771 3.883 1.89 2.866 2.377 4.336 6.225 4.405 11.539.069 4.686-.979 9.302-3.147 13.847l13.429 1.889a10.272 10.272 0 0 1-2.623-1.364c-2.027-1.537-3.393-3.741-4.091-6.607a26.607 26.607 0 0 1-.524-4.301c-.281-5.176.875-10.316 3.46-15.422 2.59-4.966 5.77-8.499 9.548-10.596m-249.984 62.837c.49.14 1.049.28 1.678.42a63.607 63.607 0 0 0-2.517-.735l.839.315m-91.369-80.987a238.646 238.646 0 0 1-3.042-11.748l-19.197-3.252-.314-.104-3.881-.524-6.924-1.26-10.175-1.782-.84-.212c-.14.07-.209.14-.209.212h-.106c-1.118.629-2.202 1.469-3.251 2.518a19.483 19.483 0 0 0-2.518 2.832 15.446 15.446 0 0 0-1.363 2.098 5.81 5.81 0 0 1-.314.733l52.134 10.489m-4.721-20.036l-.944-.104-9.651-1.573c-.21.14-.384.246-.524.315v.104a11.917 11.917 0 0 0-2.727 1.887c-.351.281-.63.562-.839.841-.91.84-1.714 1.819-2.414 2.938a3.321 3.321 0 0 1-.419.524v.104l19.197 3.252c-.63-2.799-1.19-5.56-1.679-8.288m129.45 23.079l-.211 6.818 168.894 28.535c.28 0 .56.032.84.104 1.399.209 2.692.838 3.881 1.887.35.351.698.7 1.049 1.049.351-.769.735-1.573 1.153-2.411 2.868-5.106 6.262-8.637 10.177-10.595 2.026-.979 3.952-1.399 5.77-1.261L467.399 252.1c-4.407.77-8.849 1.471-13.324 2.1M366.586 46.388v.944c-.14.28-.21.56-.21.839.28-.35.839-.665 1.678-.945.7-.21 1.329-.384 1.888-.524 2.308-.49 4.091-.839 5.351-1.049l-4.721.524-3.986.211m92.943 4.091v-.315c-1.397.141-2.799.21-4.196.21h-1.678c0 .21.035.455.104.735l5.77-.63m-34.197 3.672c-4.756 0-8.567.104-11.435.314-3.847.07-7.448.419-10.805 1.049-3.637.629-7.553 1.015-11.749 1.154-4.965 0-9.127.314-12.484.944-5.174.49-8.672-.559-10.49-3.147-.77-1.12-1.084-2.098-.943-2.937.139-.56.49-.979 1.049-1.259-.28-.07-.524-.14-.734-.21-.21 0-.384-.035-.524-.104-.49-.14-.839-.281-1.049-.42-.42 1.259-.629 2.483-.629 3.672-.071 2.587.874 4.965 2.832 7.133l56.961-6.189m6.294-13.742c.629-.07 1.363-.174 2.202-.315l-18.568 1.574c2.518-.07 5.106-.245 7.763-.524 1.608-.141 4.056-.314 7.343-.524.35-.142.77-.211 1.26-.211m9.86-2.098a51.25 51.25 0 0 1 3.567-.104c.909-1.749 2.272-3.043 4.09-3.882 1.469-.7 2.764-.804 3.883-.314 1.258.49 1.887 1.504 1.887 3.042 0 .141-.034.42-.104.84 1.049-.28 2.728-.665 5.036-1.155l.104-2.937c-6.085-1.818-12.204-1.958-18.357-.42l-.106 4.93m72.069 6.189c-1.75.21-4.266.49-7.553.839-3.497.35-6.189.629-8.078.839-1.957 0-4.092.28-6.399.839-.209-.209-.385-.174-.524.105l28.744-3.147c-2.658.211-4.722.385-6.19.525m25.384-11.645c-.139.21-.348.385-.629.524l-1.678.21c-3.355-.07-5.805.07-7.343.42-.841-.07-2.063-.175-3.672-.314-1.678-.21-2.799-.245-3.356-.105a2531.148 2531.148 0 0 0-11.33 2.518c-2.028.07-4.335.104-6.923.104-2.657 0-5.317.21-7.973.63-2.167.209-5.245.594-9.231 1.154-3.776.42-5.805.665-6.086.734l-7.972.629c-.281.21-.524.385-.733.524l-1.47.21c-1.678-.069-3.077-.069-4.196 0-1.327.21-2.831.56-4.511 1.049-.699.14-1.397.314-2.099.524-2.098.42-3.915.77-5.454 1.049-.278 0-.56.035-.84.104-2.517.141-5.804.385-9.86.735-.699.069-1.433.14-2.203.21-.7.069-1.434.14-2.204.21-7.552.28-12.868.56-15.944.839-6.574.77-12.519 1.224-17.833 1.364-5.036.071-9.896.455-14.582 1.154l18.253.209c11.889-.209 18.428-.349 19.616-.419l16.785-2.937 39.443-2.938c1.049-.139 2.519-.594 4.407-1.364 1.748-.839 3.985-1.363 6.714-1.573l15.315-.524c10.07-.49 16.049-.804 17.938-.944.42-.14 2.622-.7 6.609-1.679 1.119-.21 1.782-.245 1.991-.104 1.188.07 1.89 1.015 2.099 2.833 0 1.678-1.644 3.042-4.93 4.09-.349.07-.629.141-.84.21-.979.141-1.713.314-2.203.524l1.47-.104.524-.105 4.405-.524 1.26-.104c.907-3.498.838-6.819-.211-9.966a12.2 12.2 0 0 1-.523.943M386.727 47.857c-2.447.139-4.301.349-5.56.629-2.867.7-4.58 1.188-5.14 1.469-.49.07-1.085.174-1.784.314 1.259.14 2.413.175 3.462.104.349-.21 2.447-.7 6.294-1.468 2.447-.7 4.266-1.189 5.455-1.469-.978.141-1.888.281-2.727.421M539.36 31.073a2.326 2.326 0 0 1-.421-.944l-3.88.314c2.169.069 3.602.279 4.301.63z"/><path fill="#93D498" d="M433.933 53.207l-4.405.734h-3.672v.104h-.105l-.104.105h-.314l-56.963 6.188c-1.958-2.167-2.902-4.545-2.832-7.133-35.807 52.521-50.318 106.581-43.535 162.179.209 1.189.384 2.379.524 3.567.07.629.174 1.259.314 1.888a104.99 104.99 0 0 0 1.784 10.28 193.594 193.594 0 0 0 1.678 8.288 240.912 240.912 0 0 0 3.042 11.748 982.396 982.396 0 0 0 2.623 8.813 346.47 346.47 0 0 1 1.468 4.512c4.406-.142 8.812-.281 13.218-.42 12.238-.56 24.373-1.259 36.4-2.099a1072.74 1072.74 0 0 0 48.465-4.825c1.374-.137 2.737-.276 4.091-.42l.104-5.036c-.139-1.752-.21-2.659-.21-2.727v-1.47c.071-1.958.21-4.335.42-7.132v-1.364c0-.42.035-.838.104-1.258 0-.421.036-.841.105-1.261v-.418l.104-.42v-.629l1.049-39.339.105-5.664c.006-.72.006-1.42 0-2.098a117.454 117.454 0 0 1-.105-4.512c.099-1.625.205-3.198.314-4.721.083-1.334.152-2.626.21-3.88v-.105l.105-1.993 3.251-120.324-4.406.419-2.827.423m-68.187 163.438c.561.63 1.154 1.224 1.784 1.784.42.349.875.7 1.363 1.049 11.051 9.441 26.191 14.547 45.424 15.315-19.233-.769-34.373-5.874-45.424-15.315-.489-.349-.943-.7-1.363-1.049a21.606 21.606 0 0 1-1.784-1.784c-.35-.35-.699-.664-1.049-.943-13.987-14.617-20.036-37.626-18.148-69.027-1.888 31.401 4.162 54.41 18.148 69.027.35.279.699.593 1.049.943M530.863 42.821c-.573.11-.887.249-.944.42-1.539.069-3.776.21-6.714.42-.488 0-.943.035-1.363.104-.211 0-.42.035-.629.104l-1.469.105L491 47.123l-.42.104h-.944c-.069 0-.174.035-.313.105h-.524c-1.153.174-2.099.384-2.834.629-1.651 0-3.189.035-4.614.104l-.631.105-.942.21c-.14-.071-.211-.071-.211 0h-.104c-.349 0-.629.035-.84.104l-19.092 1.993-5.456 203.723c4.475-.629 8.917-1.33 13.322-2.099a768.78 768.78 0 0 0 28.219-4.93c2.099-.42 4.196-.805 6.294-1.153 4.336-.909 8.637-1.819 12.902-2.729a900.16 900.16 0 0 0 13.219-2.832 1.134 1.134 0 0 0-.211-.315 97.81 97.81 0 0 1-3.146-5.979 359.93 359.93 0 0 1-.838-1.89 101.686 101.686 0 0 1-3.778-7.972 400.607 400.607 0 0 1-2.623-5.979 20.963 20.963 0 0 0-.629-1.679c-20.352-52.731-14.614-110.777 17.205-174.139l-.524.105-1.783.209h-.841m-29.582 21.614c-29.584 57.417-36.472 107.595-20.667 150.535-15.804-42.941-8.917-93.118 20.667-150.535z"/><path fill="#D88D56" fill-opacity=".522" d="M573.14 307.071c-5.945 6.643-8.917 11.4-8.917 14.267l.418 1.469c.701-2.868 1.785-5.665 3.254-8.393 2.937-5.314 6.504-8.916 10.699-10.806.84-.348 1.608-.629 2.308-.838-1.329-1.538-3.917-.104-7.762 4.301z"/><path fill="#6A70AA" d="M435.822 251.893a1.896 1.896 0 0 1-.105-.211l-.104 5.036h.104l.105-4.616a1.203 1.203 0 0 1 0-.209m1.678-60.635a16.479 16.479 0 0 0-.104-1.258l-.105 5.664.21-4.091v-.315m.419-18.567l-.105 1.993c.05-.283.085-.563.105-.839v-1.154m-3.671-119.588l2.517-.316 4.406-.419v-.42l-6.923 1.155m-57.803-7.554l1.259-.42-7.133.735v.314l4.721-.524h.314c.069-.14.175-.175.314-.104h.525m83.083 4.614v.315l19.092-1.993c-5.245.279-9.335.594-12.273.944-2.376.35-4.651.595-6.819.734m-25.28 2.939l-.316.104 2.833-.42-2.517.316m-.421-13.009c.49-.21.979-.384 1.469-.524l-23.813 2.308h1.153l.42-.105c.28 0 .629-.035 1.049-.104h1.153l18.569-1.575m45.424-4.72h.313c.211 0 .455-.035.735-.104l-1.048.104m52.765 7.342c-.209-.14-.313-.104-.313.104l1.783-.209-1.47.105m7.343-11.643c.071.07.141.209.211.419 0 .14-.037.28-.106.42.491-.839.979-1.679 1.469-2.518l-8.602.839c1.049 0 1.957.07 2.728.21l3.88-.314c.07.349.211.664.42.944z"/><path fill="#B27E52" d="M436.136 236.682a1.837 1.837 0 0 0 0-.524v-.104.418c-.069.42-.105.84-.105 1.261-.069.42-.104.838-.104 1.258v1.364c-.21 2.797-.349 5.174-.42 7.132v1.47c0 .067.071.975.21 2.727l.42-13.741a5.881 5.881 0 0 0 0-.421c.009-.176.009-.35 0-.524a1.754 1.754 0 0 0-.001-.316m1.678-61.892a243.784 243.784 0 0 1-.21 3.88 418.85 418.85 0 0 0-.314 4.721c0 1.209.035 2.713.105 4.512.006.678.006 1.378 0 2.098l.419-15.211m5.351-122.528c-.071 2.448-.28 5.175-.63 8.183-.839 5.035-1.119 9.721-.839 14.057.279 4.336.21 8.812-.21 13.427-.185 1.605-.674 13.529-1.468 35.772l.314 5.455c0 3.637-.28 7.692-.839 12.168l-.106.734c-.559 4.311-.839 9.031-.839 14.162 0 4.266-.21 10.141-.629 17.623a8.47 8.47 0 0 1-.105.839v.105L437.396 190c.052.429.087.849.104 1.258v.315c0 3.427-.035 6.538-.104 9.336-.141 2.728-.28 6.539-.42 11.435V215.806a.92.92 0 0 0 0 .21c-.07.498-.104 1.057-.104 1.678a169.483 169.483 0 0 0-.105 3.882v2.308c0 1.188-.035 2.621-.104 4.302 0 .487-.035 1.082-.106 1.782-.017.367-.052.752-.104 1.153v1.153a6352.72 6352.72 0 0 0-.629 19.618 1.203 1.203 0 0 0 0 .209c.07 1.261.209 2.974.419 5.141l.21.84c.839 4.896 2.553 7.344 5.141 7.344 2.586 0 4.16-.944 4.72-2.834.07-.28.104-1.223.104-2.831v-.42c-.769-6.016-1.153-9.511-1.153-10.49v-.104c0-1.19.139-3.603.419-7.239.07-.489.105-.979.105-1.469.07-.907.139-1.854.209-2.832.071-.629.14-1.223.21-1.784.141-1.606.28-3.286.42-5.034.07-.629.14-1.223.21-1.784.069-1.679.209-3.426.419-5.244.069-.63.14-1.225.21-1.784.069-1.398.175-2.692.314-3.882.069-.7.14-1.329.21-1.888.979-10.98 1.469-16.505 1.469-16.575 0-3.847-.42-7.098-1.259-9.756-.839-2.797-1.259-4.896-1.259-6.294l3.147-53.92-1.259-22.03c0-1.469 1.014-9.545 3.042-24.232 2.028-14.407 3.042-21.646 3.042-21.715 0-.839-.28-3.497-.838-7.973a40.488 40.488 0 0 1-.315-2.203l-10.596 1.153m.105-.733c-.07.209-.104.454-.104.733l10.595-1.153a3.13 3.13 0 0 1-.104-.735c-2.728.071-5.21.28-7.449.63l-2.938.525m1.783-13.323c.559 0 1.188.035 1.888.104 2.587.069 4.859-.035 6.818-.314.14-.07.49-.104 1.049-.104.07-.42.104-.7.104-.84 0-1.538-.629-2.552-1.887-3.042-1.119-.49-2.414-.385-3.883.314-1.817.839-3.18 2.133-4.089 3.882z"/><path fill="#9A6243" d="M538.836 326.583c3.288 0 5.734-.806 7.343-2.412a6.324 6.324 0 0 0 1.784-2.833c-.909.141-1.854.42-2.833.84-2.308.907-4.405 2.379-6.294 4.405m-116.967-29.269c20.562 3.497 32.87 6.085 36.927 7.764 16.573 6.783 43.219 13.952 79.935 21.505h.105c1.889-2.026 3.986-3.498 6.294-4.405.979-.42 1.924-.699 2.833-.84.14-.42.244-.875.313-1.362l-312.085-73.539c-.07.281-.104.562-.104.84 0 3.287 21.19 10.77 63.57 22.45 30.563 8.32 53.816 14.266 69.76 17.833 9.233 2.026 26.716 5.28 52.452 9.754m56.019-2.622c-9.163-3.916-20.842-7.413-35.038-10.491-14.546-3.216-30.736-5.802-48.57-7.761-9.791-2.098-25.351-6.154-46.682-12.17-.349-.07-.664-.14-.943-.209-4.406.139-8.813.278-13.218.42-.49-1.539-.979-3.043-1.468-4.512-17.833-5.034-29.933-8.393-36.297-10.07-38.184-9.65-58.011-10.806-59.48-3.463l312.085 73.539v-.841c0-3.566-9.229-7.729-27.694-12.483-24.758-6.433-38.989-10.419-42.695-11.959z"/><path fill="#D1A574" fill-opacity=".302" d="M366.166 49.535c-.14-.559-.104-1.014.104-1.363-.838.419-.874.873-.104 1.363m46.472-7.658h-1.153a177.11 177.11 0 0 1-6.084.314c-5.315.21-10.561.629-15.735 1.259-5.036.419-9.022.979-11.959 1.678l-1.259.42 36.19-3.671m119.694-11.644c-2.727-.14-6.189-.174-10.386-.104-6.503 1.329-10.313 2.063-11.435 2.202-3.985.42-7.587.665-10.804.735-3.217-.14-6.225 0-9.023.42-4.057.77-7.236 1.329-9.546 1.678l-.733.106h-.104c-.28.069-.524.104-.735.104h-.313l-.84.104c-1.469.07-3.323.175-5.561.315-3.147.139-4.754.245-4.825.314-.209.07-.42.104-.629.104h-.104c-1.89-.07-3.952.035-6.189.314l-1.259.21c-2.309.49-3.987.875-5.036 1.155-.559 0-.909.035-1.049.104-1.959.279-4.231.384-6.818.314-.7-.07-1.329-.104-1.888-.104a51.88 51.88 0 0 0-3.567.104 7.159 7.159 0 0 1-1.153.105c-1.608.139-2.798.419-3.567.839-.49.07-.979.174-1.468.314-.49.141-.979.314-1.469.524l101.231-9.651c-.773-.136-1.681-.206-2.73-.206m7.239 1.259c-.07-.21-.14-.349-.211-.419 0 .28.034.559.104.839a.938.938 0 0 0 .107-.42z"/><path fill="#B27E52" fill-opacity=".702" d="M485.964 47.962c.735-.245 1.681-.455 2.834-.629l-7.448.734a94.37 94.37 0 0 1 4.614-.105m-56.436 5.979l4.405-.734-7.868.734h3.463m100.391-10.7c.058-.171.371-.311.944-.42l-7.658.84c2.938-.21 5.175-.35 6.714-.42z"/><path fill="#CC9D67" d="M425.75 54.046h.105v-.104l-.105.104m113.715-22.134a3.442 3.442 0 0 1-.104-.839c-.699-.351-2.133-.561-4.301-.63l-101.231 9.651c-.839.141-1.573.245-2.202.315-.49 0-.91.069-1.259.21-3.288.21-5.735.384-7.343.524-2.657.28-5.245.455-7.763.524h-1.153c-.42.07-.77.104-1.049.104l-.42.105-36.191 3.672h-.524c-.139-.071-.245-.035-.314.104h-.314c-1.259.21-3.043.559-5.351 1.049-.56.14-1.188.314-1.888.524-.839.28-1.398.595-1.678.945h-.105c-.209.349-.245.804-.104 1.363.21.139.56.28 1.049.42.14.07.314.104.524.104.21.07.455.14.734.21-.559.28-.91.7-1.049 1.259-.141.839.174 1.817.943 2.937 1.818 2.588 5.316 3.637 10.49 3.147 3.357-.63 7.519-.944 12.484-.944 4.196-.139 8.112-.524 11.749-1.154 3.357-.63 6.958-.979 10.805-1.049 2.867-.21 6.678-.314 11.435-.314h.314l.104-.105.105-.104h.209l7.868-.734.316-.104 6.923-1.155 2.098-.419 2.937-.524c2.239-.351 4.721-.56 7.449-.63h1.678c1.397 0 2.799-.069 4.196-.21a83.997 83.997 0 0 0 6.818-.733c2.938-.35 7.028-.665 12.273-.944.211-.07.491-.104.84-.104h.104c0-.071.071-.071.211 0l.942-.21.631-.105 7.448-.734h.524c.14-.071.244-.105.313-.105h.944l.42-.104c.14-.28.315-.314.524-.105 2.308-.559 4.442-.839 6.399-.839 1.889-.21 4.581-.49 8.078-.839 3.287-.349 5.803-.629 7.553-.839a413.27 413.27 0 0 1 6.189-.524l1.469-.105c.209-.07.418-.104.629-.104.42-.07.875-.104 1.363-.104l7.658-.84h.84c0-.209.104-.245.313-.104.49-.21 1.224-.384 2.203-.524.211-.069.491-.14.84-.21 3.286-1.049 4.93-2.413 4.93-4.09-.209-1.818-.91-2.763-2.099-2.833-.209-.14-.872-.105-1.991.104-3.987.979-6.189 1.539-6.609 1.679-1.89.14-7.868.454-17.938.944l-15.315.524c-2.729.21-4.966.734-6.714 1.573-1.889.77-3.358 1.225-4.407 1.364l-39.443 2.938-16.785 2.937c-1.188.07-7.727.21-19.616.419l-18.253-.209c4.686-.7 9.545-1.083 14.582-1.154 5.315-.14 11.26-.594 17.833-1.364 3.077-.279 8.393-.559 15.944-.839.77-.07 1.504-.141 2.204-.21.77-.07 1.504-.141 2.203-.21 4.057-.35 7.343-.594 9.86-.735.28-.069.562-.104.84-.104a310.82 310.82 0 0 0 5.454-1.049c.701-.21 1.399-.384 2.099-.524 1.68-.49 3.184-.839 4.511-1.049 1.119-.069 2.519-.069 4.196 0l1.47-.21c.209-.139.452-.314.733-.524l7.972-.629c.281-.07 2.31-.314 6.086-.734 3.986-.56 7.064-.945 9.231-1.154 2.655-.42 5.315-.63 7.973-.63 2.588 0 4.895-.035 6.923-.104.91-.21 4.686-1.049 11.33-2.518.558-.139 1.679-.104 3.356.105 1.608.139 2.831.245 3.672.314 1.538-.35 3.987-.49 7.343-.42l1.678-.21c.281-.14.49-.314.629-.524a15.7 15.7 0 0 0 .525-.95M381.167 48.486c1.259-.28 3.112-.49 5.56-.629.84-.141 1.749-.281 2.728-.42-1.189.28-3.008.77-5.455 1.469-3.847.768-5.945 1.258-6.294 1.468-1.049.071-2.203.035-3.462-.104a32.2 32.2 0 0 1 1.784-.314c.559-.282 2.272-.77 5.139-1.47z"/></g><path fill="none" stroke="#4F3222" stroke-width="2" stroke-linecap="round" stroke-linejoin="round" d="M532.332 30.233l8.602-.839m-5.874 1.049l3.88-.314c.07.349.212.665.421.944m-4.301-.63l-101.231 9.651m-18.569 1.573h-1.153c-.42.07-.77.104-1.049.104l-.42.105-36.191 3.672h-.524c-.139-.071-.245-.035-.314.104h-.21m-9.128 2.52c-.209.349-.245.804-.104 1.363m59.165 4.616h.314l.104-.105.105-.104h.209l7.868-.734m44.689-4.722c.211-.07.491-.104.84-.104h.104c0-.071.071-.071.211 0l.942-.21.631-.052 7.448-.735.524-.052c.14-.071.244-.105.313-.105h.944l.42-.104m28.746-3.148l1.469-.105c.209-.07.418-.104.629-.104.42-.07.875-.104 1.363-.104l7.658-.787h.054l.366-.054h.42m7.762-10.91a3.442 3.442 0 0 1-.104-.839m-7.344 11.643l1.47-.104.524-.105 4.405-.524m1.26-.106c.907-3.498.838-6.819-.211-9.966m-7.762 10.91l1.783-.209m-167.32 6.923c-.42 1.259-.629 2.483-.629 3.672m.734-5.035c.071-.35.175-.63.315-.839v-.944l3.986-.21m0-.315l7.133-.735m33.779-3.252l23.813-2.308m6.189-1.258l.106-4.931c6.153-1.538 12.272-1.398 18.357.42l-.104 2.937m18.567-1.259l.84-.104 1.049-.104h.104l.733-.106m-46.889 17.939l2.517-.316 4.406-.419v-.42m-7.239 1.259l2.833-.42m4.405-.419l1.994-.105 10.595-1.153m-27.904 2.936h-.105m8.077-13.952l-18.568 1.574m44.269 8.496v.315l19.092-1.993m-42.799 203.616l-.105 4.616-.104 1.153-.105 4.721M453.76 51.109l5.77-.629-5.455 203.72M366.376 48.172c0-.28.07-.56.21-.839m8.707-1.679l-4.721.524m-5.035 7.029c-.071 2.587.874 4.965 2.832 7.133l56.963-6.188m12.535 120.638v-.105l.053-1.94 3.251-120.376m-3.251 121.476v-1.101m-.472 17.309l.419-15.263m-.367 16.784v-.315m-1.312 44.845l.052-.472m.001-.628l1.102-39.339.105-5.612m-1.312 46.942c.009.175.009.349 0 .524.005.16.005.316 0 .474l-.368 13.742m-4.247 5.403l4.091.733.052-1.153m-52.609 5.245l195.958 39.443 5.666 1.049c.139 0 .348.035.629.104 1.329.351 2.622 1.086 3.88 2.205 3.008 2.655 4.512 6.888 4.512 12.692v1.048a38.965 38.965 0 0 1-.42 3.985l-1.678 6.4a.9.9 0 0 0-.104.418l.524.211 16.889 3.356a11.83 11.83 0 0 1-2.622-1.678c-2.867-2.519-4.301-6.643-4.301-12.38 0-1.188.032-2.377.104-3.564.069-.632.174-1.188.313-1.681.562-3.915 1.854-7.761 3.883-11.539 3.006-5.454 6.537-9.195 10.595-11.224 2.098-1.049 4.057-1.469 5.874-1.258l-168.894-28.535-.104 3.883c-6.154 2.098-12.274 1.922-18.358-.524m.263-7.656l.104-4.982m18.307 2.464l-.211 6.818m94.412 58.958l2.728.629 3.672.733m-230.051-90.217l-.944-.104-9.651-1.573c-.21.14-.384.246-.524.315v.104a11.917 11.917 0 0 0-2.727 1.887c-.351.281-.63.562-.839.841-.91.84-1.714 1.819-2.414 2.938a3.321 3.321 0 0 1-.419.524v.104l19.197 3.252m3.042 11.748l-52.137-10.49-3.882-.733-11.539-2.414-.629-.104h-.21l-16.05-3.146a.918.918 0 0 1-.42.104 15.57 15.57 0 0 0-3.461 2.622 18.516 18.516 0 0 0-2.204 2.414l-.734 1.153a1.24 1.24 0 0 0-.21.315c-.069.069-.105.14-.105.209-.069 0-.104.072-.104.211l-.104.104-.105.209a9.877 9.877 0 0 0-.839 1.261m-.631 3.46l.209.104m96.092 62.104a7197.8 7197.8 0 0 1 24.967 6.607c4.545 1.188 9.162 2.414 13.847 3.672l48.15 12.904c.203.043.413.096.63.157h.052c.765.181 1.588.408 2.465.683h.105l5.035 1.362 12.484 3.358.891.155c.305.068.637.156.997.263.489.14 1.014.28 1.573.42l24.758 6.609c1.258.351 2.516.699 3.776 1.049l57.276 15.315m3.252-1.467c-1.608-2.657-2.411-6.083-2.411-10.279 0-2.518.313-5.036.942-7.554.069-.699.246-1.33.524-1.888 0-.211.037-.35.106-.42l.418-1.469c0-.069.037-.104.106-.104 0-.28.07-.489.209-.629l.104-.42c.351-.91.736-1.817 1.154-2.728l.735-1.469c1.329-2.379 2.797-4.407 4.405-6.085m9.443-6.606l-312.085-73.539m311.772 74.901a8.852 8.852 0 0 1 3.041-.104l.42.104c1.539.35 2.973 1.12 4.301 2.309.491.418.944.91 1.364 1.467 1.75 2.238 2.762 5.245 3.043 9.023.069.418.104.873.104 1.362v2.414c-.07 0-.07.035 0 .104l-.104.944m26.014-.21c-2.308 2.868-4.825 4.967-7.553 6.294-1.959.84-3.741 1.226-5.35 1.156-.909 0-1.817-.212-2.727-.632l-11.015-2.516c-.701 3.426-1.959 6.749-3.778 9.966-2.937 5.314-6.469 8.847-10.595 10.595-.838.351-1.608.664-2.308.944h-.629c-2.59.349-4.932-.28-7.029-1.889h-.052l-.786-.209-2.623-.735c-.771-.209-1.573-.421-2.413-.63m-106.894-28.532c-.629-.14-1.188-.28-1.678-.42a9.661 9.661 0 0 0-.787-.263m23.55 6.242c-.63-.14-1.189-.28-1.679-.42a13.24 13.24 0 0 0-.892-.263M302.91 235.528l-6.924-1.26-10.175-1.782-.84-.212c-.14.07-.209.14-.209.212h-.106c-1.118.629-2.202 1.469-3.251 2.518a19.483 19.483 0 0 0-2.518 2.832 15.446 15.446 0 0 0-1.363 2.098 5.81 5.81 0 0 1-.314.733m25.7-5.139l3.881.524.314.104m-36.19 55.913a234.397 234.397 0 0 1-6.714-1.782m-48.78-48.676l-1.049-.313-.419.209-.105.104c-1.259.629-2.447 1.504-3.566 2.623-1.539 1.399-2.938 3.219-4.196 5.456-.35.629-.63 1.258-.84 1.887a25.698 25.698 0 0 0-1.993 5.77c-.28.91-.455 1.89-.524 2.938-.141.838-.21 1.713-.21 2.622v.734c0 2.028.245 3.846.734 5.456.07.418.174.803.314 1.153.07.14.141.313.21.524.07.14.104.28.104.42l.839 1.362c.21.42.489.806.84 1.153l.524.525c.28.35.524.594.733.735l5.561 1.469c17.203 4.614 34.478 9.23 51.821 13.847m-27.588-47.413c-.07.069-.104.174-.104.313-.21.42-.42.909-.63 1.469l-.735 1.469.84.209m-11.645-2.622l-1.049-.313-7.868-1.785m8.917 2.098l.735.104h.314l9.755 2.309m97.142 62.417a27750.312 27750.312 0 0 0-61.368-16.471m426.481-25.018l-.996-.052m4.09.209a2.349 2.349 0 0 0-.733-.104h-.733l1.466.104c1.049.279 2.065.733 3.043 1.365 2.309 1.817 3.775 4.613 4.406 8.392m-9.023-9.861h-.523c-1.537 0-3.078.42-4.614 1.258a17.96 17.96 0 0 0-4.512 3.463c-1.539 1.469-2.901 3.286-4.092 5.454a24.37 24.37 0 0 1 .42 3.463c.14 5.104-1.049 10.14-3.567 15.106v.104c.699 2.866 2.028 5.001 3.987 6.398a6.55 6.55 0 0 0 1.153.733c.209.069.42.177.629.315.158.078.316.132.474.158l.367.051c.838.351 1.678.492 2.518.42 1.049-.069 2.131-.313 3.252-.733.42-.142.838-.351 1.258-.629h.104c3.567-1.959 6.609-5.212 9.128-9.757a15.3 15.3 0 0 1 .524-1.153 69.21 69.21 0 0 0 1.469-3.776c.91-3.077 1.328-6.12 1.258-9.128a73.018 73.018 0 0 0-.209-1.887m-8.917-9.86h-.107m-.523 0l-.996-.053m-32.467 40.545a10.272 10.272 0 0 1-2.623-1.364c-2.027-1.537-3.393-3.741-4.091-6.607a26.607 26.607 0 0 1-.524-4.301c-.281-5.176.875-10.316 3.46-15.422 2.59-4.965 5.77-8.497 9.548-10.595 1.959-.979 3.776-1.397 5.454-1.259l-180.537-20.876m180.536 20.876c.278-.069.524-.106.733-.106 1.399.14 2.692.664 3.883 1.574 2.237 1.68 3.707 4.266 4.405 7.763m-98.188 60.423a1.88 1.88 0 0 0-.524.524c-.069.14-.177.315-.315.524m57.171-22.446a24.396 24.396 0 0 0 4.092-3.987m37.66-9.127l1.678.209 1.522.158m-3.2-.367l-7.238-.944c-1.748 1.817-3.601 3.217-5.559 4.196-1.681.978-3.287 1.502-4.828 1.573a7.96 7.96 0 0 1-2.516-.42l-13.429-1.889c-.278.562-.559 1.118-.84 1.68-1.049 1.817-2.131 3.461-3.251 4.93m34.618-16.364c-1.329 2.448-2.727 4.546-4.195 6.294m-49.094 15.84c.278-.42.487-.873.629-1.364 1.678-4.127 2.519-8.322 2.519-12.589 0-5.034-1.119-8.88-3.358-11.539-.351-.349-.699-.698-1.049-1.049-1.188-1.049-2.481-1.678-3.881-1.887a3.355 3.355 0 0 0-.84-.104m5.769 3.04c.351-.769.735-1.573 1.153-2.411 2.868-5.106 6.262-8.637 10.177-10.595 2.026-.979 3.952-1.399 5.77-1.261l-178.229-26.226m184.103 53.606c2.168-4.545 3.217-9.161 3.147-13.847-.069-5.314-1.539-9.162-4.405-11.539-1.188-1.119-2.483-1.75-3.883-1.89a2.335 2.335 0 0 0-.733-.104m-64.726 24.444c1.329-.351 2.59-.455 3.778-.315m-45.843 24.127c1.889-2.026 3.986-3.498 6.294-4.405.979-.42 1.924-.699 2.833-.84m22.555 24.231c-.91-.348-1.785-.942-2.623-1.782a12.493 12.493 0 0 1-2.833-3.987l-.421-1.153a5.914 5.914 0 0 1-.313-.733c-.072-.42-.142-.84-.212-1.26l-.209-1.259c-.069-.069-.104-.139-.104-.209v-1.049a18.472 18.472 0 0 1-.211-2.833c0-2.237.246-4.478.736-6.715v-.629c.069-.42.174-.805.313-1.153.701-2.868 1.785-5.665 3.254-8.393 2.937-5.314 6.504-8.916 10.699-10.806.84-.348 1.608-.629 2.308-.838m-20.875 37.554l-.42 2.414a.772.772 0 0 0-.104.315m-24.443 19.512a3.986 3.986 0 0 0-.629-.524 9.044 9.044 0 0 1-1.89-2.414m-.838 2.099l2.623.629.733.211 2.727.838 4.407 1.155m-7.133-1.994c0 .043.017.075.053.104m.051.001l2.622.733m94.833-44.584c.909.351 1.819.492 2.727.42 1.539.072 3.252-.35 5.141-1.258a23.24 23.24 0 0 0 2.832-1.678m-14.581 1.783l3.881.733a9.086 9.086 0 0 1-2.519-1.467 6.729 6.729 0 0 1-.733-.631m-20.456 16.156a7.793 7.793 0 0 0 2.832.524c1.608.071 3.321-.383 5.141-1.362 4.126-2.028 7.658-5.77 10.595-11.226.42-.838.84-1.748 1.26-2.728m-39.446 15.841c0 .072-.032.104-.104.104a35.9 35.9 0 0 1-2.202 3.672m4.511-8.392a137.265 137.265 0 0 1-2.205 4.616M437.342 195.665l.158-4.091M491 47.123l28.744-3.147"/><path fill="none" stroke="#2C2862" stroke-width="2" stroke-linecap="round" stroke-linejoin="round" d="M540.934 29.394c-.49.839-.978 1.679-1.469 2.518-.14.28-.313.594-.525.944M370.572 46.178v-.314"/><path fill="none" stroke="#033" stroke-width="2" stroke-linecap="round" stroke-linejoin="round" d="M322.002 215.386c-6.784-55.598 7.728-109.658 43.535-162.179M454.075 254.2c4.475-.629 8.917-1.33 13.322-2.099a768.78 768.78 0 0 0 28.219-4.93c2.099-.42 4.196-.805 6.294-1.153 4.336-.909 8.637-1.819 12.902-2.729a900.16 900.16 0 0 0 13.219-2.832 1.134 1.134 0 0 0-.211-.315 97.81 97.81 0 0 1-3.146-5.979 359.93 359.93 0 0 1-.838-1.89 101.686 101.686 0 0 1-3.778-7.972 400.607 400.607 0 0 1-2.623-5.979 20.963 20.963 0 0 0-.629-1.679c-20.352-52.731-14.614-110.777 17.205-174.139m-98.347 214.214c-1.389.144-2.77.283-4.144.42a1072.885 1072.885 0 0 1-48.465 4.825m52.661-5.245h-.052m-89.115-110.043c-1.888 31.401 4.162 54.41 18.148 69.027.35.279.699.594 1.049.943.561.63 1.154 1.224 1.784 1.784.42.349.875.7 1.363 1.049 11.051 9.441 26.191 14.547 45.424 15.315m-88.014 4.616a193.906 193.906 0 0 1-1.678-8.288 105.394 105.394 0 0 1-1.784-10.28m6.505 30.316a982.396 982.396 0 0 0 2.623 8.813 346.47 346.47 0 0 1 1.468 4.512c4.406-.142 8.812-.281 13.218-.42 12.238-.56 24.373-1.259 36.4-2.099m-53.709-10.806a238.646 238.646 0 0 1-3.042-11.748m-3.463-18.568a17.447 17.447 0 0 1-.314-1.888 63.614 63.614 0 0 0-.524-3.567M501.281 64.432c-29.584 57.417-36.472 107.595-20.667 150.535"/></svg>