<?xml version="1.0" encoding="utf-8"?>
<!-- Generator: Adobe Illustrator 16.0.0, SVG Export Plug-In . SVG Version: 6.00 Build 0)  -->
<!DOCTYPE svg PUBLIC "-//W3C//DTD SVG 1.1//EN" "http://www.w3.org/Graphics/SVG/1.1/DTD/svg11.dtd">
<svg version="1.1" id="Layer_1" xmlns="http://www.w3.org/2000/svg" xmlns:xlink="http://www.w3.org/1999/xlink" x="0px" y="0px"
	 width="900px" height="450px" viewBox="0 0 900 450" enable-background="new 0 0 900 450" xml:space="preserve">
<g transform="matrix( 0.82550048828125, 0, 0, 0.82550048828125, 10.8,109.05) ">
	<g>
		<g id="Layer0_0_FILL">
			<path fill="#88BCFB" d="M843.043,339.821c-1.5-3.645-5.614-9.471-12.346-17.48c-0.804-0.956-1.642-1.938-2.513-2.952
				c-1.169,12.385-1.205,20.835-0.111,25.348c1.455,6.046,4.952,8.596,10.487,7.649c0.631-0.344,1.215-0.709,1.75-1.093
				C844.185,348.463,845.096,344.639,843.043,339.821 M213.729,385.273c-1.651-4.022-6.496-10.725-14.531-20.104
				c-0.105-0.088-0.215-0.196-0.327-0.328c-1.166,12.381-1.202,20.833-0.11,25.348c1.457,6.046,4.953,8.596,10.489,7.647
				C214.567,394.923,216.06,390.735,213.729,385.273 M373.133,342.116c5.318-2.913,6.811-7.103,4.48-12.562
				c-1.675-4.079-6.628-10.891-14.858-20.432c-0.063,0.661-0.136,1.318-0.22,1.964c-0.96,11.312-0.924,19.068,0.11,23.273
				c1.365,6.036,4.789,8.62,10.27,7.757C372.986,342.129,373.058,342.129,373.133,342.116 M272.946,354.354
				c0.829,3.619,2.394,5.984,4.698,7.1c1.608,0.745,3.538,0.926,5.791,0.545c5.317-2.838,6.81-7.028,4.479-12.562
				c-1.676-4.079-6.629-10.888-14.86-20.432c-0.59,6.265-0.88,11.511-0.874,15.731C272.151,348.918,272.406,352.123,272.946,354.354
				 M226.622,203.471c-0.657-1.599-1.822-3.64-3.496-6.118c-2.572-3.741-6.359-8.513-11.363-14.313
				c-1.165,12.385-1.203,20.833-0.109,25.348c1.384,6.046,4.88,8.596,10.488,7.649c2.874-1.577,4.622-3.542,5.244-5.902
				C227.948,208.205,227.692,205.982,226.622,203.471 M235.253,293.935c-1.243-1.507-2.59-3.109-4.043-4.808
				c-1.166,12.382-1.202,20.833-0.11,25.348c1.384,6.046,4.88,8.631,10.488,7.758c0.962-0.528,1.799-1.112,2.514-1.747
				c3.22-2.75,3.877-6.391,1.966-10.927C244.689,306.258,241.084,301.052,235.253,293.935 M298.074,48.546
				c-0.568,5.967-0.859,11.03-0.874,15.187c-0.05,4.35,0.204,7.701,0.764,10.051c0.889,3.641,2.528,6.009,4.917,7.102
				c1.553,0.704,3.411,0.887,5.573,0.546c5.316-2.841,6.81-7.029,4.478-12.565C311.258,64.789,306.305,58.015,298.074,48.546
				 M291.519,237.885c-1.166,12.382-1.203,20.797-0.109,25.24c1.383,6.044,4.843,8.631,10.378,7.757
				c1.489-0.816,2.653-1.726,3.496-2.732c2.354-2.622,2.718-5.9,1.092-9.833c-1.195-2.911-4.072-7.207-8.632-12.892
				C295.955,243.135,293.878,240.62,291.519,237.885 M252.624,78.483c-1.747-4.079-6.702-10.889-14.858-20.43
				c-0.185,1.848-0.367,3.596-0.547,5.244c-0.7,9.549-0.554,16.214,0.437,19.994c1.191,5.491,4.141,8.113,8.85,7.867
				c0.505,0.007,1.016-0.03,1.53-0.109C253.353,88.133,254.882,83.946,252.624,78.483 M213.074,77.936
				c5.318-2.913,6.847-7.101,4.589-12.565c-1.748-4.079-6.702-10.889-14.858-20.43c-1.158,11.572-1.267,19.656-0.329,24.255
				c0.07,0.364,0.143,0.693,0.219,0.984c0.325,1.499,0.762,2.774,1.312,3.823C205.834,77.283,208.856,78.594,213.074,77.936
				 M369.527,101.972c-1.165,12.382-1.239,20.795-0.218,25.239c1.384,6.118,4.844,8.704,10.38,7.758
				c0.641-0.348,1.224-0.712,1.748-1.094c3.947-2.836,4.894-6.658,2.84-11.47c-1.582-3.694-5.771-9.63-12.564-17.809
				C371.021,103.75,370.294,102.876,369.527,101.972 M465.673,92.139c-0.772-1.877-2.264-4.353-4.48-7.429
				c-2.477-3.518-5.937-7.852-10.378-13.001c-0.437,4.662-0.693,8.741-0.765,12.237c-0.218,5.826,0.037,10.16,0.765,13.001
				c0.606,2.794,1.662,4.834,3.168,6.118c1.792,1.562,4.195,2.108,7.21,1.639c5.027-2.769,6.628-6.702,4.808-11.8
				C465.927,92.613,465.819,92.359,465.673,92.139 M330.742-20.284c-0.34-0.829-0.815-1.776-1.42-2.841
				c-2.4-4.123-6.879-9.986-13.438-17.591c-1.166,12.384-1.166,20.833,0,25.349c1.383,6.045,4.843,8.631,10.378,7.756
				c3.685-2.019,5.542-4.678,5.572-7.975C331.822-17.019,331.458-18.585,330.742-20.284 M333.801-111.95
				c-1.238,12.31-1.274,20.759-0.109,25.347c1.384,5.973,4.844,8.487,10.38,7.539c3.852-2.11,5.709-4.914,5.572-8.413
				c-0.034-1.263-0.362-2.646-0.984-4.151c-0.301-0.703-0.702-1.505-1.202-2.404C345.104-98.141,340.552-104.113,333.801-111.95
				 M483.482-59.617c-0.073,0.713-0.145,1.407-0.219,2.077c-1.026,11.257-0.99,19.015,0.109,23.271
				c1.303,6.008,4.691,8.559,10.16,7.647h0.11c5.317-2.913,6.846-7.102,4.588-12.564C496.555-43.265,491.639-50.075,483.482-59.617
				 M455.513-109.437c-0.801-2.039-2.441-4.807-4.917-8.303h-10.598c-0.112,3.079-0.112,5.738,0,7.976
				c0.12,2.157,0.338,3.941,0.655,5.354c0.616,2.655,1.635,4.622,3.06,5.899c1.805,1.62,4.246,2.165,7.32,1.638
				C456.35-99.786,457.843-103.974,455.513-109.437 M563.783,55.648c-0.512,5.387-0.802,10.012-0.874,13.875
				c-0.101,5.007,0.155,8.794,0.765,11.363c1.313,5.973,4.772,8.558,10.381,7.756c3.278-1.773,5.137-4.067,5.571-6.882
				c0.137-0.933,0.101-1.953-0.109-3.06c-0.291-0.874-0.581-1.747-0.875-2.622c-1.675-3.933-6.262-10.306-13.765-19.12
				C564.512,56.45,564.15,56.013,563.783,55.648 M618.083,9.761c-0.033,4.6,0.259,8.096,0.874,10.488
				c0.873,3.814,2.548,6.255,5.028,7.319c1.527,0.614,3.311,0.76,5.353,0.438c3.782-2.073,5.604-4.804,5.462-8.195
				c0.019-1.388-0.31-2.882-0.982-4.479c-0.323-0.771-0.761-1.646-1.311-2.623c-2.373-4.107-6.85-10.044-13.439-17.808
				C618.486,0.726,618.158,5.678,618.083,9.761 M558.101-97.965c-1.163,12.382-1.2,20.795-0.109,25.239
				c1.385,6.117,4.844,8.703,10.381,7.756c2.198-1.204,3.728-2.624,4.589-4.261c1.295-2.33,1.259-5.099-0.111-8.304
				c-0.879-2.244-2.774-5.339-5.68-9.287C564.827-89.958,561.805-93.674,558.101-97.965 M775.741,284.431
				c-0.157,1.669-0.305,3.272-0.437,4.808c-0.726,9.785-0.618,16.632,0.328,20.54c1.328,5.521,4.353,8.106,9.069,7.755
				c0.467,0.011,0.94-0.026,1.418-0.109c5.318-2.913,6.812-7.103,4.48-12.562C788.924,300.783,783.971,293.972,775.741,284.431
				 M663.315-95.124c-1.747-4.152-6.701-10.962-14.858-20.432c-0.884,8.791-1.174,15.601-0.873,20.432
				c0.175,1.966,0.432,3.605,0.764,4.917c0.575,2.47,1.485,4.327,2.733,5.572c1.854,1.896,4.402,2.588,7.649,2.076
				C664.043-85.473,665.574-89.662,663.315-95.124 M718.054,57.069c0.362-1.794,0.067-3.796-0.873-6.008
				c-0.556-1.293-1.43-2.859-2.624-4.698c-2.585-3.948-6.665-9.155-12.234-15.624c-1.169,12.236-1.206,20.649-0.111,25.239
				c1.31,5.972,4.769,8.521,10.378,7.647C715.798,61.891,717.62,59.706,718.054,57.069 M816.492-117.74h-10.598
				c-0.219,5.972,0,10.342,0.654,13.111c1.156,4.847,3.596,7.468,7.32,7.866c0.962,0.124,2.019,0.088,3.169-0.11
				c5.318-2.913,6.812-7.1,4.48-12.564C820.645-111.477,818.97-114.244,816.492-117.74 M164.783,361.343
				c-0.329,5.654-0.329,10.134,0,13.44c0.131,1.368,0.313,2.533,0.547,3.497c1.383,6.046,4.879,8.596,10.489,7.647
				c5.316-2.914,6.81-7.102,4.478-12.563c-1.675-4.079-6.628-10.891-14.858-20.431C165.151,355.982,164.933,358.784,164.783,361.343
				 M164.783,270.337v19.118c4.961-2.849,6.308-6.928,4.043-12.237C168.097,275.445,166.75,273.152,164.783,270.337 M164.783-107.58
				v27.642c1.777,1.475,4.107,1.985,6.993,1.529c5.317-2.913,6.81-7.101,4.479-12.564
				C174.817-94.473,170.993-100.009,164.783-107.58 M294.141,137.589c-1.166,12.384-1.202,20.795-0.11,25.239
				c1.385,6.118,4.844,8.703,10.38,7.757c5.318-2.914,6.81-7.1,4.48-12.566C307.289,153.941,302.372,147.132,294.141,137.589
				 M241.699-38.093c-1.748-4.152-6.702-10.962-14.858-20.43c-1.166,12.31-1.202,20.759-0.11,25.347
				c1.311,5.973,4.771,8.522,10.38,7.647C242.5-28.37,244.029-32.557,241.699-38.093 M419.894,33.142
				c-1.748-4.006-6.664-10.817-14.749-20.432c-1.166,12.382-1.202,20.833-0.11,25.347c1.312,6.046,4.735,8.632,10.27,7.757
				C420.695,42.902,422.226,38.677,419.894,33.142 M419.894-38.093c-1.748-4.152-6.664-10.962-14.749-20.43
				c-1.166,12.31-1.202,20.759-0.11,25.347c1.312,5.973,4.735,8.522,10.27,7.647C420.695-28.37,422.226-32.557,419.894-38.093
				 M803.601,212.539c5.315-2.913,6.809-7.1,4.478-12.565c-1.675-4.079-6.628-10.888-14.858-20.433
				c-1.163,12.385-1.2,20.835-0.109,25.349C794.569,210.937,798.065,213.485,803.601,212.539 M878.002,287.38
				c-1.675-4.079-6.628-10.891-14.858-20.432c-1.163,12.385-1.2,20.833-0.109,25.348c1.459,6.046,4.953,8.594,10.49,7.649
				C878.84,297.03,880.334,292.842,878.002,287.38 M861.396,178.669c5.318-2.91,6.809-7.098,4.48-12.563
				c-1.675-4.079-6.628-10.887-14.858-20.432c-1.166,12.382-1.202,20.796-0.111,25.24
				C852.364,177.03,855.859,179.617,861.396,178.669 M814.089,127.321c5.318-2.841,6.812-7.03,4.48-12.566
				c-1.675-4.078-6.628-10.889-14.858-20.43c-1.165,12.382-1.202,20.831-0.109,25.347
				C804.984,125.718,808.482,128.267,814.089,127.321 M546.086-6.954c-1.24,12.382-1.276,20.831-0.111,25.347
				c1.311,6.045,4.772,8.595,10.38,7.647c5.32-2.841,6.847-7.028,4.59-12.564C559.197,9.397,554.245,2.586,546.086-6.954
				 M685.602-35.799c-1.747-4.08-6.664-10.889-14.747-20.43c-1.165,12.382-1.237,20.831-0.22,25.347
				c1.386,6.046,4.844,8.595,10.382,7.647C686.404-26.148,687.934-30.336,685.602-35.799 M871.338-8.704
				c5.318-2.913,6.812-7.101,4.48-12.564c-1.675-4.079-6.592-10.889-14.747-20.43c-1.169,12.382-1.241,20.831-0.22,25.347
				C862.306-10.306,865.804-7.756,871.338-8.704 M808.735,7.685c-1.166,12.382-1.202,20.795-0.109,25.237
				c1.383,6.046,4.844,8.631,10.378,7.757c5.318-2.913,6.812-7.101,4.48-12.564C821.882,24.036,816.966,17.227,808.735,7.685
				 M777.162-31.975c-1.677-4.151-6.594-10.962-14.75-20.43c-1.169,12.308-1.169,20.757,0,25.347
				c1.307,5.973,4.733,8.522,10.267,7.648C778-22.323,779.492-26.511,777.162-31.975 M900.73,385.273v-27.861
				c-0.833-0.979-1.709-1.998-2.622-3.058c-1.169,12.382-1.204,20.829-0.111,25.346C898.579,382.121,899.491,383.978,900.73,385.273
				 M900.73,107.544V81.979c-1.784-2.22-3.826-4.661-6.12-7.321c-1.165,12.384-1.202,20.833-0.111,25.349
				C895.539,104.317,897.617,106.83,900.73,107.544z"/>
			<path fill="#F4DD35" d="M478.019,57.069l-2.949-8.741c-13.141,6.343-25.05,14.172-35.727,23.491l12.674,37.911
				c0.622-2.229,1.277-4.451,1.966-6.664c-1.506-1.285-2.562-3.324-3.168-6.118c-0.729-2.841-0.984-7.175-0.765-13.001
				c0.073-3.496,0.328-7.575,0.765-12.237c4.441,5.149,7.901,9.483,10.378,13.001C465.83,74.99,471.44,65.776,478.019,57.069
				 M540.513,175.831c1.747,0.801,3.496,1.892,5.243,3.277c-6.48-22.799-13.291-43.812-20.429-63.041
				c-7.126-19.487-18.343-44.361-33.651-74.622c-0.066,0.073-0.174,0.109-0.327,0.108c-0.224,0.304-0.48,0.594-0.765,0.875
				l6.337,18.901l-6.337-18.901c-4.514,4.717-8.703,9.597-12.565,14.64l1.092,3.386l-1.092-3.386
				c-6.579,8.707-12.188,17.922-16.826,27.641c2.216,3.076,3.708,5.552,4.48,7.429c0.146,0.219,0.254,0.474,0.328,0.765
				c1.82,5.099,0.218,9.032-4.808,11.8c-3.015,0.469-5.418-0.077-7.21-1.639c-0.689,2.213-1.344,4.434-1.966,6.664l0.327,0.984
				l-0.327-0.984c-6.98,25.037-8.472,53.08-4.48,84.129c0.414,0.253,0.815,0.506,1.203,0.764c0.655,0.435,0.655,1.273,0,2.513
				c-0.26,0.628-0.442,1.138-0.547,1.528c0.003,0.441,0.075,0.768,0.219,0.984c23.528-30.203,51.57-39.271,84.126-27.204
				C535.175,173.452,537.835,174.581,540.513,175.831 M579.626,81.761c-0.434,2.815-2.293,5.109-5.571,6.882
				c-5.609,0.801-9.068-1.783-10.381-7.756c-0.61-2.569-0.866-6.356-0.765-11.363c-13.364-8.542-28.151-15.535-44.357-20.977
				l3.06,9.288l-3.06-9.288c-8.467-2.806-17.317-5.21-26.549-7.211c-0.035,0.061-0.071,0.097-0.11,0.11
				c-0.046,0.017-0.119,0.017-0.218,0c15.308,30.261,26.526,55.135,33.651,74.622c7.138,19.228,13.949,40.242,20.429,63.041
				c0.149-0.336,0.295-0.661,0.439-0.984c0.817-1.608,1.799-3.138,2.949-4.589c8.958-14.349,20.429-23.525,34.414-27.532
				c13.984-3.932,28.882-2.329,44.686,4.808C617.498,123.089,601.294,100.073,579.626,81.761 M562.909,69.523
				c0.072-3.863,0.362-8.488,0.874-13.875c0.367,0.364,0.729,0.801,1.093,1.31c7.504,8.814,12.09,15.187,13.765,19.12
				c0.295,0.875,0.584,1.748,0.875,2.622c0.209,1.107,0.246,2.126,0.109,3.06c21.668,18.313,37.872,41.329,48.619,69.05
				c7.284-18.865,15.843-30.702,25.677-35.509c9.977-5.171,24.399-4.443,43.264,2.186c1.383,0.437,3.314,1.311,5.79,2.622
				c-14.835-19.894-32.025-36.756-51.567-50.585l4.368,13.111l-4.368-13.111c-5.47-3.82-11.152-7.427-17.046-10.816l5.682,16.934
				l-5.682-16.934c-7.272-4.238-14.848-8.099-22.724-11.581l10.053,30.264l-10.053-30.264c-1.518-0.668-3.049-1.323-4.589-1.967
				c-7.268-2.981-14.553-5.457-21.854-7.429l7.32,22.069l-7.32-22.069c-13.048-3.409-26.16-5.157-39.33-5.245l3.497,10.38
				l-3.497-10.38c-10.519-0.089-21.08,0.894-31.684,2.951l4.369,13.11C534.758,53.989,549.545,60.981,562.909,69.523
				 M412.683,102.409l5.463,16.389L412.683,102.409c-3.132,4.652-6.081,9.532-8.85,14.641c-1.935,3.637-3.792,7.278-5.572,10.926
				l5.464,16.279l-5.464-16.279c-3.917,8.464-7.34,17.023-10.27,25.675l7.321,21.96l-7.321-21.96
				c-6.112,18.499-9.864,37.584-11.252,57.25c12.09-12.819,23.526-20.76,34.305-23.818c12.074-3.249,24.24-0.989,36.492,6.776
				c-3.992-31.049-2.5-59.092,4.48-84.129l-12.674-37.911C429.342,80.658,420.455,90.854,412.683,102.409 M518.552,48.546
				l-4.369-13.11c-7.381,1.471-14.773,3.438-22.179,5.899C501.235,43.336,510.085,45.74,518.552,48.546 M490.583,42.428
				l-0.109-0.547c-5.305,1.975-10.439,4.125-15.405,6.446l2.949,8.741C481.88,52.026,486.069,47.145,490.583,42.428 M490.583,42.428
				c0.285-0.28,0.541-0.571,0.765-0.875c-0.273,0.147-0.565,0.257-0.874,0.328L490.583,42.428z"/>
			<path fill="#666666" d="M545.756,179.108c-1.747-1.385-3.496-2.476-5.243-3.277c-2.677-1.249-5.338-2.379-7.976-3.387
				l34.743,95.923l11.362-3.277l-32.447-86.967C546.05,178.446,545.905,178.772,545.756,179.108 M574.709,289.018l0.545,1.528l0,0
				C575.095,290.032,574.914,289.522,574.709,289.018z"/>
			<path fill="#D88D56" d="M565.642,268.916c3.309,6.682,6.33,13.382,9.068,20.103c0.205,0.504,0.386,1.014,0.545,1.528
				c3.32,8.193,6.199,16.425,8.634,24.691c4.514,14.858,4.698,25.42,0.543,31.687c-4.003,5.898-9.029,9.321-15.075,10.267
				c-6.484,1.093-12.093-0.618-16.826-5.134c-5.172-4.88-7.577-12.272-7.209-22.179c-4.737-3.133-8.742-2.295-12.019,2.513
				c0.219,13.475,4.405,23.601,12.565,30.373c7.501,5.9,16.277,7.866,26.33,5.9c9.906-1.821,17.482-6.809,22.725-14.967
				c5.898-9.032,6.956-19.558,3.168-31.573c-4.223-15.006-10.634-34.018-19.23-57.035h-0.219l-11.362,3.277L565.642,268.916z"/>
		</g>
	</g>
	<g transform="matrix( 1.2113800048828125, 0, 0, 1.2113800048828125, -13.05,-132.1) ">
		<path id="Layer0_0_1_STROKES" fill="none" stroke="#000000" stroke-width="2" stroke-linecap="round" stroke-linejoin="round" d="
			M634.487,58.709c-7.307-4.238-14.9-8.099-22.779-11.582 M579.696,81.816c21.668,18.276,37.872,41.275,48.619,68.995
			c7.284-18.865,15.84-30.701,25.673-35.507c9.981-5.173,24.403-4.444,43.268,2.184c1.383,0.437,3.314,1.312,5.79,2.623
			c-14.837-19.895-32.007-36.739-51.514-50.53 M611.709,47.127c-1.518-0.667-3.049-1.322-4.591-1.966
			c-7.269-2.981-14.551-5.439-21.849-7.375c-13.051-3.444-26.144-5.211-39.278-5.299c-10.555-0.089-21.133,0.912-31.739,3.005
			 M518.622,48.603C534.828,54.008,549.615,61,562.981,69.58 M651.532,69.58c-5.506-3.858-11.188-7.482-17.045-10.871
			 M532.662,172.498c2.604,0.975,5.243,2.086,7.92,3.333c1.751,0.801,3.498,1.892,5.245,3.277
			c-6.483-22.799-13.293-43.811-20.431-63.041C518.271,96.581,507.072,71.725,491.8,41.5c-0.102,0.038-0.212,0.074-0.328,0.11
			c-0.26,0.266-0.515,0.539-0.764,0.82 M546.319,178.126c0.781-1.61,1.747-3.138,2.895-4.591
			c8.96-14.346,20.433-23.525,34.417-27.529c13.984-3.935,28.879-2.332,44.684,4.805 M545.828,179.108
			c0.15-0.336,0.31-0.661,0.491-0.982l32.395,87.021l0.216-0.057c8.596,23.016,15.004,42.028,19.23,57.032
			c3.788,12.017,2.733,22.543-3.168,31.575c-5.245,8.158-12.819,13.147-22.725,14.967c-10.05,1.966-18.829,0-26.33-5.9
			c-8.159-6.773-12.346-16.898-12.565-30.373c3.279-4.808,7.284-5.645,12.016-2.513c-0.362,9.906,2.043,17.299,7.213,22.179
			c4.736,4.517,10.345,6.227,16.826,5.134c6.046-0.946,11.072-4.369,15.078-10.267c4.151-6.266,3.97-16.828-0.549-31.687
			c-2.435-8.269-5.294-16.5-8.577-24.691h-0.052l-0.548-1.528c-2.735-6.721-5.759-13.421-9.068-20.103l1.638-0.492l-34.688-95.926
			c-32.594-12.103-60.654-3.053-84.181,27.15c-0.144-0.216-0.198-0.524-0.164-0.93c-0.238-1.624-0.456-3.245-0.655-4.86
			c-12.29-7.765-24.471-10.025-36.546-6.776c-10.779,3.058-22.215,10.999-34.306,23.818c1.389-19.666,5.16-38.73,11.308-57.195
			 M567.35,268.424l11.364-3.277 M575.379,290.547c-0.196-0.515-0.395-1.024-0.6-1.528 M491.472,41.61
			c-0.309,0.111-0.618,0.22-0.928,0.327 M491.472,41.61c0.089-0.086,0.18-0.178,0.274-0.274c0.111,0.023,0.22,0.041,0.327,0.054
			c7.406-2.497,14.799-4.465,22.179-5.899 M492.073,41.391c-0.034,0.024-0.07,0.043-0.108,0.056
			c-0.047,0.017-0.101,0.035-0.164,0.054c-0.009-0.057-0.028-0.111-0.054-0.164 M478.088,57.124
			c3.863-5.081,8.069-9.978,12.62-14.694 M490.544,41.938c-5.305,1.939-10.421,4.088-15.351,6.446 M461.318,84.766
			c4.601-9.757,10.192-18.97,16.77-27.641 M452.086,109.731c0.622-2.23,1.295-4.433,2.022-6.611 M492.073,41.391
			c9.232,1.964,18.082,4.368,26.549,7.212 M475.194,48.383c-13.177,6.306-25.086,14.118-35.726,23.436
			c-10.038,8.841-18.942,19.037-26.713,30.592 M447.662,193.858c-4.03-31.049-2.555-59.091,4.424-84.127 M447.662,193.858
			c0.377,0.253,0.76,0.506,1.147,0.764c0.655,0.435,0.655,1.273,0,2.513c-0.258,0.628-0.423,1.158-0.492,1.583 M412.754,102.41
			c-3.132,4.652-6.081,9.531-8.849,14.64c-1.935,3.637-3.774,7.297-5.518,10.981c-3.954,8.428-7.376,16.985-10.27,25.673"/>
	</g>
	<g transform="matrix( 1.2113800048828125, 0, 0, 1.2113800048828125, -13.05,-132.1) ">
		<path id="Layer0_0_2_STROKES" fill="none" stroke="#88BCFB" stroke-linecap="round" stroke-linejoin="round" d="M651.204-84.58
			l124.222,373.819 M784.825,317.588l24.526,73.912 M640.769-115.991l6.938,20.923 M624.109,27.57l10.378,31.139 M576.31-115.991
			L618.207,9.762 M592.042-108.998l40.533,121.71 M651.532,69.58l4.314,13.056 M545.991,32.487l3.44,10.38 M585.269,37.786
			l7.322,22.016 M634.924,19.814l16.608,49.766 M634.487,58.709l5.628,16.934 M490.709,42.43l6.281,18.9 M443.783-98.509
			l46.761,140.447 M437.993-115.991l2.076,6.282 M490.544,41.938l0.164,0.493 M478.088,57.124l1.094,3.332 M475.194,48.383
			l2.895,8.741 M420.512-115.991l54.682,164.374 M246.632,91.212l51.241,154.213 M305.412,268.15l42.009,126.299 M302.954,80.886
			l104.229,313.563 M237.51-115.991l59.762,179.725 M177.747-115.991l59.599,179.342 M164.855,261.651l34.416,103.572
			 M712.551-113.586l168.579,507.49 M264.496-115.991l169.564,510.44 M534.139-115.991l51.13,153.776 M496.663-115.991
			l49.328,148.478 M777.121-115.991l123.675,372.286 M820.931-113.586l79.865,240.415 M855.893-113.586l44.903,135.148
			 M750.899-115.991l149.897,451.224"/>
	</g>
	<g transform="matrix( 1.2113800048828125, 0, 0, 1.2113800048828125, -13.05,-132.1) ">
		
			<path id="Layer0_0_3_STROKES" fill="none" stroke="#88BCFB" stroke-width="1.5" stroke-linecap="round" stroke-linejoin="round" d="
			M718.178,57.07L829.343,391.5 M660.653-115.991l53.974,162.354 M452.086,109.731l0.328,0.982 M377.027-115.991l62.44,187.809
			l12.618,37.913 M164.855,82.035l70.469,211.9 M227.458,210.19l44.794,134.605 M277.769,361.454l9.997,30.046 M164.855,21.835
			l58.342,175.572 M398.387,128.032l5.409,16.224 M317.265-115.991l81.122,244.022 M244.174,320.537l23.6,70.963"/>
	</g>
	<g transform="matrix( 1.2113800048828125, 0, 0, 1.2113800048828125, -13.05,-132.1) ">
		<path id="Layer0_0_4_STROKES" fill="none" stroke="#0E77F8" stroke-linecap="round" stroke-linejoin="round" d="M813.938-96.762
			l86.858,261.611 M556.972-117.739l10.27,30.974 M573.086-69.229l38.622,116.356l10.049,30.264 M514.252,35.492l4.369,13.111
			 M381.507,133.876l6.609,19.829 M331.906-15.531l39.878,120.127 M297.927-117.739l31.466,94.615 M493.603-26.62l20.649,62.112
			 M463.34-117.739l19.993,60.2 M518.622,48.603l3.06,9.231 M339.663-117.739l7.866,23.764 M349.714-87.42l63.04,189.83
			 M204.132,74.059L309.618,391.5 M164.855-44.209l37.693,113.461 M412.754,102.41l5.463,16.389 M388.117,153.705l7.267,21.908
			 M372.986,342.17l16.387,49.33 M220.137-117.739l142.524,428.825 M840.381,351.294l13.328,40.206 M684.581-117.739l146.183,440.08
			 M626.238-117.739L795.474,391.5 M723.912-117.739L893.039,391.5 M876.87-117.739l23.926,72.055 M164.855,195.822L229.861,391.5"
			/>
	</g>
	<g transform="matrix( 1.2113800048828125, 0, 0, 1.2113800048828125, -13.05,-132.1) ">
		<path id="Layer0_0_5_STROKES" fill="none" stroke="#000099" stroke-linecap="round" stroke-linejoin="round" d="M900.796,81.98
			c-1.783-2.22-3.822-4.661-6.118-7.32c-1.165,12.382-1.202,20.831-0.109,25.347c1.04,4.31,3.116,6.842,6.227,7.593
			 M900.796,357.412c-0.832-0.979-1.706-1.998-2.62-3.058c-1.166,12.382-1.202,20.829-0.109,25.346
			c0.582,2.422,1.494,4.278,2.729,5.573 M816.562-117.739c2.477,3.496,4.152,6.265,5.025,8.304c2.332,5.462,0.838,9.651-4.48,12.565
			c-1.15,0.196-2.207,0.232-3.169,0.108c-3.724-0.396-6.165-3.019-7.318-7.866c-0.657-2.767-0.875-7.139-0.657-13.111
			 M777.23-31.973c2.332,5.463,0.838,9.651-4.48,12.564c-5.534,0.874-8.96-1.675-10.271-7.647c-1.165-4.589-1.165-13.038,0-25.347
			C770.638-42.935,775.555-36.125,777.23-31.973z M714.627,46.363c1.194,1.839,2.068,3.406,2.62,4.698
			c0.946,2.213,1.254,4.214,0.931,6.008 M808.694,32.924c-1.091-4.442-1.055-12.855,0.109-25.237
			c8.23,9.541,13.147,16.351,14.75,20.43c2.332,5.463,0.838,9.651-4.478,12.564C813.538,41.555,810.079,38.97,808.694,32.924z
			 M860.919-16.35c-1.019-4.516-0.946-12.965,0.219-25.347c8.159,9.541,13.076,16.351,14.751,20.43
			c2.328,5.463,0.838,9.651-4.482,12.564C865.871-7.755,862.376-10.305,860.919-16.35z M647.707-95.068
			c-0.337-4.866-0.065-11.695,0.821-20.486c8.156,9.469,13.109,16.279,14.858,20.43c2.257,5.464,0.726,9.651-4.59,12.565
			c-3.247,0.513-5.775-0.16-7.592-2.022 M775.426,289.239c0.098-1.536,0.227-3.138,0.382-4.808
			c8.23,9.541,13.183,16.353,14.858,20.432c2.332,5.459,0.838,9.647-4.478,12.562c-0.48,0.083-0.936,0.135-1.364,0.163
			 M648.417-90.207c-0.332-1.312-0.57-2.933-0.71-4.861 M651.204-84.58c-1.285-1.279-2.216-3.155-2.787-5.626 M670.925-56.228
			c8.086,9.542,13,16.353,14.75,20.432c2.329,5.462,0.802,9.65-4.59,12.564c-5.535,0.946-8.997-1.602-10.38-7.649
			C669.684-35.396,669.76-43.846,670.925-56.228z M573.086-69.229c-0.897,1.636-2.445,3.056-4.646,4.261
			c-5.532,0.946-8.993-1.639-10.376-7.757c-1.093-4.444-1.058-12.855,0.109-25.237c3.702,4.291,6.724,8.024,9.068,11.198
			c2.905,3.91,4.798,6.987,5.682,9.232C574.288-74.327,574.345-71.56,573.086-69.229z M624.109,27.57
			c-2.515-1.065-4.207-3.505-5.08-7.319c-0.618-2.393-0.892-5.888-0.822-10.488c0.039-4.083,0.347-9.036,0.931-14.858
			c6.586,7.764,11.068,13.7,13.436,17.808 M561.012,13.477c2.26,5.536,0.729,9.724-4.585,12.564
			c-5.61,0.948-9.068-1.602-10.382-7.647c-1.163-4.516-1.126-12.965,0.109-25.347C554.311,2.588,559.264,9.398,561.012,13.477z
			 M562.981,69.58c0.067-3.901,0.36-8.544,0.874-13.93c0.362,0.364,0.729,0.801,1.091,1.311c7.501,8.813,12.093,15.187,13.768,19.12
			c0.29,0.874,0.582,1.748,0.873,2.623c0.209,1.106,0.246,2.143,0.109,3.113 M563.747,80.886c-0.615-2.568-0.868-6.337-0.765-11.306
			 M574.123,88.644c-5.606,0.801-9.068-1.785-10.376-7.757 M579.696,81.816c-0.434,2.778-2.29,5.054-5.573,6.828 M632.574,12.712
			c0.552,0.977,0.99,1.853,1.313,2.623c0.672,1.598,1.019,3.092,1.036,4.48 M718.178,57.07c-0.473,2.637-2.31,4.822-5.519,6.556
			c-5.607,0.874-9.069-1.676-10.378-7.649c-1.094-4.588-1.055-13.001,0.108-25.237c5.573,6.469,9.653,11.677,12.238,15.624
			 M634.924,19.814c0.106,3.39-1.734,6.121-5.516,8.194c-2.042,0.322-3.808,0.176-5.299-0.438 M381.507,133.876
			c-0.523,0.381-1.107,0.745-1.748,1.092c-5.536,0.948-8.996-1.639-10.38-7.756c-1.02-4.443-0.946-12.856,0.218-25.238
			c0.767,0.903,1.494,1.777,2.186,2.622 M331.906-15.531c-0.03,3.263-1.887,5.902-5.572,7.921
			c-5.536,0.875-8.996-1.711-10.379-7.756c-1.166-4.516-1.166-12.965,0-25.347c6.56,7.604,11.038,13.468,13.438,17.589
			 M818.636,114.756c2.332,5.536,0.838,9.724-4.478,12.565c-5.609,0.947-9.104-1.603-10.49-7.648
			c-1.091-4.515-1.054-12.964,0.109-25.347C812.008,103.867,816.961,110.677,818.636,114.756z M865.946,166.105
			c2.329,5.465,0.838,9.653-4.482,12.566c-5.535,0.946-9.032-1.638-10.487-7.757c-1.094-4.445-1.058-12.858,0.111-25.24
			C859.318,155.218,864.271,162.026,865.946,166.105z M863.214,266.949c8.23,9.541,13.183,16.353,14.858,20.432
			c2.329,5.462,0.838,9.65-4.48,12.566c-5.536,0.945-9.031-1.603-10.49-7.649C862.012,287.781,862.048,279.333,863.214,266.949z
			 M803.669,212.539c-5.536,0.949-9.032-1.602-10.49-7.648c-1.091-4.514-1.055-12.964,0.111-25.346
			c8.23,9.541,13.183,16.35,14.858,20.429C810.478,205.439,808.986,209.627,803.669,212.539z M450.666-117.739
			c2.476,3.496,4.115,6.265,4.917,8.304c2.33,5.462,0.838,9.651-4.48,12.565c-3.075,0.526-5.515-0.021-7.319-1.639 M493.603-26.62
			c-5.471,0.911-8.857-1.637-10.161-7.647c-1.097-4.256-1.134-12.014-0.109-23.271c0.074-0.671,0.147-1.363,0.219-2.076
			c8.158,9.541,13.073,16.351,14.75,20.43c2.258,5.463,0.728,9.651-4.589,12.564H493.603z M443.783-98.509
			c-1.424-1.278-2.444-3.246-3.059-5.9c-0.318-1.411-0.536-3.178-0.655-5.299c-0.112-2.275-0.112-4.951,0-8.03 M405.215-58.522
			c8.086,9.469,13.002,16.279,14.75,20.43c2.33,5.536,0.801,9.725-4.589,12.565c-5.535,0.875-8.959-1.675-10.27-7.648
			C404.014-37.764,404.051-46.213,405.215-58.522z M405.215,12.712c8.086,9.615,13.002,16.425,14.75,20.43
			c2.33,5.536,0.801,9.761-4.589,12.675c-5.535,0.874-8.959-1.711-10.27-7.757C404.014,33.543,404.051,25.094,405.215,12.712z
			 M461.318,84.766c2.179,3.039,3.654,5.497,4.424,7.375c0.146,0.218,0.256,0.473,0.328,0.765c1.821,5.099,0.218,9.032-4.807,11.799
			c-3.015,0.47-5.401-0.059-7.156-1.585 M349.714-87.42c0.137,3.461-1.72,6.248-5.572,8.357c-5.536,0.948-8.995-1.565-10.38-7.537
			c-1.165-4.59-1.129-13.039,0.109-25.347c6.751,7.835,11.303,13.826,13.656,17.972c0.5,0.862,0.901,1.645,1.202,2.348
			C349.352-90.121,349.681-88.719,349.714-87.42z M226.911-58.522c8.159,9.469,13.111,16.279,14.858,20.43
			c2.332,5.536,0.801,9.725-4.588,12.565c-5.608,0.875-9.068-1.675-10.378-7.648C225.709-37.764,225.745-46.213,226.911-58.522z
			 M202.548,69.252c-0.939-4.635-0.83-12.737,0.327-24.309c8.158,9.541,13.111,16.351,14.86,20.43
			c2.257,5.463,0.728,9.651-4.589,12.564c-4.217,0.658-7.222-0.636-9.014-3.878c-0.584-1.086-1.04-2.38-1.365-3.879
			C202.69,69.889,202.617,69.58,202.548,69.252z M237.346,63.352c0.142-1.684,0.306-3.45,0.491-5.298
			c8.159,9.541,13.111,16.351,14.858,20.43c2.258,5.462,0.729,9.651-4.588,12.565c-0.515,0.08-1.006,0.134-1.475,0.164
			 M297.873,245.425c4.522,5.685,7.381,9.981,8.577,12.892c1.624,3.933,1.279,7.212-1.038,9.833 M329.393-23.124
			c0.606,1.066,1.08,2.012,1.42,2.841c0.716,1.699,1.079,3.284,1.092,4.752 M297.272,63.734c0.014-4.158,0.306-9.22,0.874-15.187
			c8.231,9.469,13.184,16.243,14.858,20.321c2.332,5.536,0.838,9.724-4.478,12.565c-2.162,0.341-4.019,0.159-5.572-0.547
			c-2.39-1.093-4.029-3.46-4.917-7.101C297.478,71.435,297.221,68.085,297.272,63.734z M294.104,162.828
			c-1.094-4.441-1.058-12.856,0.108-25.237c8.231,9.541,13.147,16.35,14.75,20.429c2.331,5.465,0.838,9.652-4.48,12.566
			C298.947,171.534,295.487,168.947,294.104,162.828z M246.632,91.212c-4.746,0.209-7.714-2.431-8.904-7.921
			c-0.991-3.78-1.12-10.427-0.383-19.939 M244.174,320.537c-0.715,0.606-1.553,1.169-2.513,1.696
			c-5.608,0.873-9.104-1.712-10.488-7.76c-1.094-4.513-1.056-12.963,0.108-25.346c1.453,1.699,2.801,3.301,4.043,4.808
			 M223.197,197.407c1.674,2.443,2.84,4.465,3.496,6.064c1.071,2.51,1.326,4.749,0.765,6.718 M272.252,344.794
			c-0.007-4.26,0.285-9.523,0.875-15.788c8.231,9.541,13.184,16.353,14.858,20.432c2.331,5.534,0.838,9.722-4.479,12.562
			c-2.252,0.381-4.165,0.196-5.736-0.545 M227.458,210.19c-0.623,2.321-2.371,4.271-5.245,5.848
			c-5.608,0.946-9.104-1.603-10.488-7.649c-1.092-4.515-1.056-12.963,0.11-25.346c5.003,5.8,8.791,10.588,11.362,14.365
			 M305.412,268.15c-0.879,1.006-2.063,1.915-3.552,2.732c-5.535,0.874-8.994-1.713-10.378-7.757
			c-1.093-4.443-1.056-12.858,0.109-25.24c2.36,2.735,4.454,5.25,6.283,7.54 M454.108,103.12c-1.542-1.32-2.617-3.377-3.224-6.173
			c-0.728-2.84-0.982-7.174-0.764-13.001c0.073-3.496,0.327-7.575,0.764-12.236c4.441,5.148,7.919,9.5,10.434,13.056
			 M371.784,104.596c6.793,8.179,10.982,14.115,12.564,17.808c2.054,4.812,1.107,8.636-2.84,11.472 M362.661,311.086
			c0.047-0.646,0.101-1.302,0.163-1.964c8.231,9.541,13.183,16.353,14.86,20.432c2.331,5.46,0.838,9.647-4.48,12.562
			c-0.075,0.013-0.148,0.032-0.218,0.054c-5.481,0.83-8.905-1.776-10.27-7.811C361.682,330.154,361.664,322.398,362.661,311.086z
			 M277.769,361.454c-2.339-1.117-3.924-3.484-4.752-7.1c-0.539-2.234-0.795-5.418-0.765-9.56 M235.324,293.935
			c5.832,7.117,9.437,12.323,10.817,15.621c1.909,4.537,1.254,8.197-1.967,10.981 M199.271,365.224
			c8.035,9.342,12.878,16.025,14.53,20.049c2.332,5.462,0.838,9.65-4.478,12.563c-5.536,0.945-9.032-1.603-10.488-7.647
			c-1.094-4.516-1.056-12.967,0.108-25.348C199.056,364.973,199.165,365.099,199.271,365.224z M830.764,322.341
			c6.731,8.009,10.847,13.835,12.346,17.48c2.056,4.818,1.145,8.642-2.729,11.473c-0.538,0.382-1.121,0.749-1.75,1.093
			c-5.535,0.946-9.032-1.603-10.487-7.649c-1.094-4.516-1.058-12.966,0.108-25.348C829.126,320.403,829.963,321.385,830.764,322.341
			z M784.825,317.588c-4.752,0.316-7.795-2.288-9.126-7.811c-0.946-3.906-1.034-10.753-0.273-20.538 M164.855-79.882
			c1.776,1.44,4.108,1.931,6.993,1.475c5.316-2.913,6.81-7.101,4.478-12.563c-1.437-3.5-5.26-9.018-11.471-16.553 M164.855,289.509
			c4.961-2.884,6.308-6.982,4.042-12.291c-0.728-1.773-2.076-4.066-4.042-6.882 M164.855,361.343
			c0.15-2.559,0.368-5.361,0.655-8.411c8.231,9.541,13.183,16.353,14.858,20.431c2.331,5.462,0.838,9.65-4.479,12.563
			c-5.608,0.949-9.104-1.603-10.488-7.647c-0.233-0.966-0.415-2.112-0.546-3.443"/>
	</g>
</g>
</svg>
