<?xml version="1.0" encoding="utf-8"?>
<!-- Generator: Adobe Illustrator 16.0.0, SVG Export Plug-In . SVG Version: 6.00 Build 0)  -->
<!DOCTYPE svg PUBLIC "-//W3C//DTD SVG 1.1//EN" "http://www.w3.org/Graphics/SVG/1.1/DTD/svg11.dtd">
<svg version="1.1" id="Layer_1" xmlns="http://www.w3.org/2000/svg" xmlns:xlink="http://www.w3.org/1999/xlink" x="0px" y="0px"
	 width="900px" height="450px" viewBox="0 0 900 450" enable-background="new 0 0 900 450" xml:space="preserve">
<g transform="matrix( 0.82550048828125, 0, 0, 0.82550048828125, 10.8,109.05) ">
	<g>
		<g id="Layer0_0_FILL">
			<path fill="#88BCFB" d="M860.358,352.621c-1.588-3.854-5.939-10.016-13.058-18.488c-0.852-1.01-1.738-2.049-2.661-3.122
				c-1.236,13.099-1.274,22.037-0.114,26.81c1.538,6.394,5.237,9.091,11.091,8.089c0.667-0.363,1.282-0.749,1.851-1.155
				C861.564,361.762,862.527,357.719,860.358,352.621 M194.743,400.694c-1.746-4.253-6.871-11.341-15.369-21.262
				c-0.111-0.093-0.228-0.207-0.346-0.347c-1.233,13.095-1.271,22.033-0.116,26.809c1.541,6.394,5.238,9.091,11.094,8.088
				C195.629,410.904,197.208,406.473,194.743,400.694 M363.341,355.049c5.625-3.081,7.204-7.512,4.738-13.286
				c-1.771-4.314-7.01-11.519-15.715-21.61c-0.066,0.7-0.144,1.394-0.233,2.077c-1.015,11.964-0.977,20.167,0.117,24.616
				c1.444,6.383,5.065,9.116,10.862,8.203C363.186,355.063,363.263,355.063,363.341,355.049 M257.376,367.993
				c0.877,3.828,2.532,6.329,4.968,7.511c1.702,0.789,3.743,0.981,6.126,0.576c5.625-3.004,7.204-7.434,4.738-13.287
				c-1.773-4.313-7.012-11.515-15.718-21.61c-0.623,6.625-0.929,12.175-0.923,16.638
				C256.535,362.244,256.805,365.633,257.376,367.993 M208.379,208.407c-0.695-1.691-1.927-3.849-3.697-6.472
				c-2.721-3.955-6.727-9.003-12.019-15.138c-1.231,13.099-1.272,22.034-0.115,26.81c1.464,6.394,5.161,9.091,11.093,8.091
				c3.04-1.668,4.888-3.747,5.547-6.241C209.782,213.414,209.511,211.063,208.379,208.407 M217.508,304.089
				c-1.314-1.594-2.739-3.288-4.276-5.085c-1.233,13.097-1.271,22.034-0.117,26.81c1.464,6.394,5.161,9.129,11.093,8.204
				c1.018-0.557,1.903-1.175,2.659-1.847c3.406-2.909,4.101-6.761,2.08-11.557C227.489,317.123,223.676,311.616,217.508,304.089
				 M283.953,44.545c-0.601,6.311-0.909,11.667-0.924,16.063c-0.053,4.601,0.216,8.145,0.808,10.629
				c0.94,3.851,2.674,6.357,5.2,7.513c1.643,0.744,3.608,0.939,5.895,0.578c5.623-3.006,7.203-7.435,4.736-13.291
				C297.897,61.725,292.659,54.561,283.953,44.545 M277.021,244.805c-1.234,13.096-1.273,21.998-0.117,26.697
				c1.463,6.393,5.122,9.13,10.977,8.204c1.575-0.864,2.807-1.825,3.698-2.889c2.49-2.773,2.874-6.24,1.155-10.4
				c-1.263-3.081-4.307-7.622-9.13-13.635C281.712,250.359,279.515,247.699,277.021,244.805 M235.881,76.209
				c-1.848-4.314-7.089-11.517-15.714-21.607c-0.196,1.954-0.389,3.803-0.579,5.546c-0.741,10.1-0.586,17.149,0.462,21.147
				c1.26,5.807,4.379,8.581,9.36,8.321c0.534,0.008,1.074-0.031,1.618-0.115C236.653,86.415,238.269,81.988,235.881,76.209
				 M194.051,75.63c5.624-3.081,7.241-7.51,4.853-13.289c-1.848-4.314-7.089-11.518-15.715-21.608
				c-1.224,12.239-1.34,20.79-0.348,25.654c0.074,0.385,0.151,0.732,0.232,1.04c0.343,1.586,0.805,2.934,1.387,4.044
				C186.392,74.94,189.589,76.326,194.051,75.63 M359.528,101.053c-1.233,13.097-1.311,21.994-0.231,26.695
				c1.464,6.472,5.124,9.207,10.979,8.205c0.678-0.367,1.295-0.752,1.848-1.157c4.175-2.999,5.177-7.042,3.005-12.132
				c-1.675-3.906-6.105-10.184-13.289-18.836C361.108,102.935,360.339,102.009,359.528,101.053 M461.219,90.653
				c-0.816-1.984-2.394-4.604-4.738-7.857c-2.62-3.721-6.279-8.305-10.977-13.752c-0.461,4.932-0.732,9.246-0.809,12.944
				c-0.23,6.162,0.04,10.746,0.809,13.749c0.641,2.956,1.759,5.114,3.351,6.472c1.896,1.652,4.437,2.231,7.626,1.735
				c5.317-2.93,7.01-7.09,5.086-12.481C461.488,91.154,461.373,90.886,461.219,90.653 M318.505-28.255
				c-0.36-0.877-0.861-1.878-1.502-3.005c-2.538-4.361-7.275-10.562-14.213-18.606c-1.233,13.098-1.233,22.034,0,26.811
				c1.463,6.393,5.122,9.129,10.976,8.203c3.898-2.135,5.862-4.948,5.893-8.435C319.647-24.802,319.263-26.457,318.505-28.255
				 M321.741-125.208c-1.31,13.019-1.347,21.956-0.115,26.808c1.463,6.318,5.124,8.978,10.979,7.974
				c4.075-2.232,6.039-5.197,5.893-8.898c-0.036-1.336-0.383-2.798-1.04-4.39c-0.319-0.744-0.743-1.592-1.272-2.542
				C333.695-110.603,328.881-116.919,321.741-125.208 M480.055-69.857c-0.076,0.755-0.153,1.488-0.231,2.197
				c-1.085,11.906-1.047,20.112,0.115,24.613c1.378,6.356,4.961,9.053,10.746,8.089h0.117c5.623-3.082,7.241-7.512,4.852-13.289
				C493.883-52.561,488.683-59.765,480.055-69.857 M450.473-122.551c-0.846-2.156-2.581-5.083-5.2-8.781h-11.209
				c-0.119,3.257-0.119,6.069,0,8.436c0.127,2.281,0.357,4.168,0.693,5.663c0.651,2.808,1.73,4.889,3.237,6.239
				c1.908,1.714,4.491,2.29,7.742,1.732C451.358-112.343,452.938-116.773,450.473-122.551 M564.988,52.057
				c-0.542,5.697-0.847,10.59-0.924,14.675c-0.106,5.297,0.163,9.301,0.809,12.018c1.389,6.317,5.048,9.052,10.979,8.204
				c3.466-1.875,5.433-4.303,5.892-7.28c0.144-0.986,0.107-2.065-0.115-3.236c-0.308-0.923-0.615-1.847-0.925-2.772
				c-1.771-4.161-6.624-10.901-14.559-20.223C565.759,52.905,565.377,52.443,564.988,52.057 M622.421,3.524
				c-0.036,4.864,0.273,8.563,0.924,11.093c0.923,4.033,2.695,6.616,5.32,7.741c1.614,0.649,3.5,0.804,5.661,0.463
				c3.999-2.193,5.927-5.082,5.778-8.668c0.019-1.467-0.328-3.047-1.041-4.737c-0.341-0.816-0.802-1.741-1.386-2.775
				c-2.51-4.343-7.245-10.623-14.214-18.834C622.846-6.032,622.5-0.795,622.421,3.524 M558.979-110.417
				c-1.23,13.096-1.268,21.995-0.116,26.695c1.465,6.47,5.122,9.205,10.979,8.202c2.326-1.273,3.943-2.775,4.855-4.505
				c1.369-2.465,1.331-5.394-0.118-8.784c-0.929-2.373-2.935-5.646-6.007-9.822C566.093-101.948,562.896-105.878,558.979-110.417
				 M789.173,294.037c-0.167,1.765-0.324,3.46-0.465,5.087c-0.765,10.349-0.652,17.59,0.349,21.722
				c1.405,5.84,4.605,8.574,9.592,8.203c0.496,0.012,0.994-0.027,1.5-0.114c5.624-3.083,7.207-7.514,4.739-13.286
				C803.117,311.331,797.878,304.129,789.173,294.037 M670.263-107.412c-1.85-4.39-7.09-11.594-15.717-21.61
				c-0.935,9.298-1.24,16.502-0.923,21.61c0.186,2.08,0.455,3.813,0.81,5.201c0.607,2.612,1.568,4.577,2.888,5.892
				c1.96,2.007,4.655,2.739,8.092,2.196C671.03-97.203,672.652-101.635,670.263-107.412 M728.157,53.56
				c0.383-1.898,0.072-4.015-0.923-6.354c-0.588-1.368-1.512-3.024-2.775-4.969c-2.733-4.176-7.049-9.684-12.938-16.526
				c-1.239,12.942-1.276,21.84-0.116,26.695c1.383,6.316,5.042,9.012,10.975,8.088C725.772,58.661,727.699,56.35,728.157,53.56
				 M832.275-131.332h-11.21c-0.232,6.317,0,10.939,0.692,13.868c1.222,5.126,3.805,7.899,7.743,8.319
				c1.016,0.132,2.135,0.093,3.35-0.117c5.626-3.081,7.206-7.508,4.74-13.289C836.667-124.707,834.895-127.634,832.275-131.332
				 M142.974,375.385c-0.349,5.979-0.349,10.718,0,14.215c0.138,1.447,0.331,2.679,0.577,3.698
				c1.463,6.395,5.161,9.092,11.094,8.088c5.623-3.081,7.203-7.511,4.737-13.287c-1.772-4.314-7.01-11.519-15.715-21.609
				C143.363,369.714,143.132,372.68,142.974,375.385 M142.974,279.129v20.222c5.247-3.013,6.671-7.329,4.275-12.944
				C146.478,284.533,145.053,282.106,142.974,279.129 M142.974-120.586v29.237c1.879,1.56,4.343,2.1,7.395,1.618
				c5.623-3.081,7.202-7.511,4.738-13.289C153.586-106.724,149.542-112.578,142.974-120.586 M279.793,138.724
				c-1.233,13.099-1.271,21.995-0.116,26.696c1.465,6.471,5.124,9.204,10.978,8.203c5.625-3.081,7.203-7.508,4.738-13.291
				C293.699,156.021,288.499,148.818,279.793,138.724 M224.326-47.091c-1.849-4.391-7.089-11.595-15.715-21.609
				c-1.233,13.021-1.271,21.956-0.116,26.808c1.386,6.318,5.046,9.014,10.978,8.088C225.173-36.807,226.791-41.235,224.326-47.091
				 M412.801,28.253c-1.85-4.237-7.049-11.441-15.601-21.611c-1.234,13.097-1.271,22.035-0.116,26.808
				c1.388,6.396,5.008,9.131,10.862,8.206C413.647,38.576,415.267,34.108,412.801,28.253 M412.801-47.091
				c-1.85-4.391-7.049-11.595-15.601-21.609c-1.234,13.021-1.271,21.956-0.116,26.808c1.388,6.318,5.008,9.014,10.862,8.088
				C413.647-36.807,415.267-41.235,412.801-47.091 M818.64,217.997c5.623-3.081,7.202-7.508,4.737-13.289
				c-1.772-4.314-7.01-11.516-15.715-21.611c-1.23,13.098-1.269,22.037-0.115,26.81C809.087,216.305,812.784,218.998,818.64,217.997
				 M897.33,297.156c-1.771-4.314-7.008-11.519-15.711-21.611c-1.232,13.099-1.271,22.034-0.118,26.811
				c1.544,6.394,5.241,9.089,11.096,8.088C898.221,307.362,899.798,302.933,897.33,297.156 M879.768,182.174
				c5.624-3.077,7.202-7.508,4.737-13.289c-1.771-4.314-7.007-11.513-15.715-21.61c-1.23,13.096-1.272,21.995-0.116,26.695
				C870.215,180.441,873.911,183.177,879.768,182.174 M829.732,127.864c5.626-3.005,7.206-7.435,4.74-13.29
				c-1.772-4.314-7.013-11.517-15.716-21.609c-1.234,13.096-1.271,22.033-0.115,26.808
				C820.104,126.169,823.801,128.865,829.732,127.864 M546.271-14.156c-1.313,13.096-1.35,22.033-0.118,26.81
				c1.385,6.393,5.047,9.09,10.978,8.088c5.626-3.005,7.243-7.433,4.855-13.289C560.136,3.138,554.899-4.066,546.271-14.156
				 M693.835-44.665c-1.848-4.315-7.048-11.517-15.599-21.608c-1.232,13.096-1.306,22.033-0.233,26.808
				c1.467,6.395,5.126,9.091,10.982,8.089C694.683-34.457,696.301-38.886,693.835-44.665 M890.285-16.007
				c5.623-3.081,7.204-7.51,4.736-13.289c-1.77-4.314-6.971-11.516-15.595-21.607c-1.237,13.096-1.313,22.032-0.234,26.808
				C880.73-17.701,884.432-15.004,890.285-16.007 M824.069,1.328c-1.234,13.095-1.271,21.994-0.116,26.692
				c1.463,6.395,5.124,9.129,10.977,8.204c5.625-3.081,7.207-7.51,4.739-13.289C837.976,18.622,832.776,11.42,824.069,1.328
				 M790.676-40.62c-1.773-4.391-6.973-11.595-15.6-21.609c-1.237,13.018-1.237,21.955,0,26.809
				c1.382,6.318,5.005,9.014,10.859,8.089C791.562-30.411,793.139-34.841,790.676-40.62 M921.37,400.694v-29.466
				c-0.88-1.036-1.808-2.114-2.772-3.236c-1.236,13.097-1.273,22.031-0.118,26.808C919.097,397.362,920.061,399.327,921.37,400.694
				 M921.37,106.946V79.907c-1.886-2.348-4.045-4.93-6.47-7.743c-1.235,13.098-1.272,22.034-0.118,26.811
				C915.879,103.533,918.08,106.191,921.37,106.946z"/>
			<path fill="#F4DD35" d="M474.277,53.56l-3.119-9.246c-13.899,6.709-26.494,14.99-37.788,24.847l13.406,40.096
				c0.657-2.357,1.35-4.707,2.079-7.048c-1.593-1.359-2.71-3.515-3.351-6.471c-0.771-3.005-1.04-7.59-0.809-13.751
				c0.077-3.699,0.347-8.014,0.809-12.943c4.698,5.446,8.357,10.031,10.977,13.751C461.385,72.514,467.32,62.77,474.277,53.56
				 M540.377,179.174c1.847,0.846,3.697,1.999,5.545,3.465c-6.853-24.114-14.058-46.338-21.607-66.677
				c-7.537-20.612-19.401-46.921-35.592-78.927c-0.07,0.078-0.184,0.116-0.345,0.115c-0.238,0.322-0.508,0.628-0.81,0.926
				l6.703,19.991l-6.703-19.991c-4.775,4.989-9.205,10.15-13.29,15.484l1.155,3.582l-1.155-3.582
				c-6.958,9.209-12.891,18.956-17.796,29.237c2.344,3.253,3.922,5.872,4.738,7.857c0.154,0.23,0.269,0.5,0.347,0.807
				c1.924,5.393,0.231,9.554-5.086,12.482c-3.189,0.497-5.73-0.082-7.626-1.734c-0.729,2.34-1.423,4.689-2.079,7.047l0.345,1.041
				l-0.345-1.041c-7.384,26.481-8.961,56.143-4.739,88.982c0.438,0.269,0.862,0.535,1.273,0.809c0.692,0.458,0.692,1.347,0,2.658
				c-0.275,0.662-0.468,1.203-0.578,1.615c0.002,0.468,0.079,0.814,0.231,1.041c24.885-31.943,54.544-41.536,88.979-28.774
				C534.73,176.656,537.543,177.849,540.377,179.174 M581.745,79.677c-0.459,2.978-2.426,5.403-5.892,7.278
				c-5.932,0.847-9.591-1.886-10.979-8.203c-0.646-2.716-0.916-6.722-0.809-12.018c-14.134-9.035-29.774-16.431-46.915-22.187
				l3.236,9.824l-3.236-9.824c-8.956-2.968-18.317-5.511-28.081-7.627c-0.037,0.064-0.075,0.103-0.116,0.117
				c-0.049,0.018-0.126,0.018-0.231,0c16.191,32.006,28.056,58.316,35.592,78.926c7.55,20.339,14.754,42.564,21.608,66.677
				c0.156-0.354,0.311-0.698,0.465-1.04c0.864-1.702,1.902-3.319,3.118-4.853c9.475-15.178,21.607-24.882,36.397-29.121
				c14.792-4.159,30.551-2.464,47.264,5.085C621.802,123.389,604.663,99.044,581.745,79.677 M564.064,66.733
				c0.077-4.085,0.382-8.978,0.924-14.675c0.389,0.385,0.771,0.846,1.157,1.385c7.937,9.322,12.787,16.062,14.559,20.223
				c0.311,0.925,0.616,1.849,0.924,2.772c0.222,1.171,0.26,2.25,0.115,3.236c22.921,19.37,40.057,43.714,51.425,73.035
				c7.704-19.954,16.757-32.473,27.159-37.557c10.552-5.471,25.807-4.7,45.758,2.312c1.461,0.461,3.506,1.386,6.124,2.773
				c-15.691-21.042-33.87-38.876-54.541-53.503l4.62,13.866l-4.62-13.866c-5.786-4.041-11.794-7.856-18.031-11.44l6.012,17.912
				l-6.012-17.912c-7.691-4.482-15.703-8.566-24.033-12.249l10.633,32.01l-10.633-32.01c-1.608-0.707-3.227-1.399-4.855-2.081
				c-7.686-3.153-15.393-5.771-23.115-7.857l7.743,23.342l-7.743-23.342c-13.801-3.606-27.668-5.455-41.599-5.548l3.699,10.979
				l-3.699-10.979c-11.124-0.095-22.294,0.945-33.51,3.121l4.62,13.866C534.29,50.302,549.929,57.698,564.064,66.733
				 M405.173,101.516l5.778,17.335L405.173,101.516c-3.312,4.92-6.431,10.083-9.36,15.485c-2.047,3.847-4.01,7.698-5.894,11.557
				l5.78,17.218l-5.78-17.218c-4.142,8.951-7.763,18.003-10.862,27.155l7.743,23.227l-7.743-23.227
				c-6.464,19.567-10.433,39.752-11.902,60.552c12.787-13.557,24.883-21.956,36.285-25.191c12.77-3.437,25.637-1.046,38.596,7.167
				c-4.223-32.841-2.644-62.501,4.739-88.982l-13.406-40.096C422.793,78.51,413.393,89.293,405.173,101.516 M517.149,44.545
				l-4.621-13.866c-7.808,1.556-15.626,3.637-23.459,6.239C498.832,39.035,508.193,41.578,517.149,44.545 M487.566,38.075
				l-0.115-0.579c-5.611,2.089-11.042,4.363-16.293,6.818l3.119,9.245C478.361,48.226,482.792,43.064,487.566,38.075
				 M487.566,38.075c0.302-0.297,0.573-0.604,0.809-0.926c-0.288,0.155-0.597,0.271-0.924,0.347L487.566,38.075z"/>
			<path fill="#666666" d="M545.921,182.639c-1.848-1.466-3.698-2.619-5.545-3.465c-2.832-1.321-5.646-2.517-8.437-3.583
				l36.749,101.455l12.017-3.465l-34.319-91.984C546.232,181.94,546.08,182.285,545.921,182.639 M576.544,298.888l0.577,1.616l0,0
				C576.952,299.961,576.761,299.423,576.544,298.888z"/>
			<path fill="#D88D56" d="M566.954,277.627c3.502,7.067,6.697,14.152,9.592,21.263c0.216,0.534,0.408,1.072,0.576,1.615
				c3.512,8.667,6.556,17.372,9.132,26.115c4.776,15.715,4.97,26.887,0.575,33.515c-4.234,6.238-9.549,9.858-15.943,10.86
				c-6.859,1.156-12.792-0.653-17.797-5.43c-5.47-5.163-8.014-12.98-7.624-23.459c-5.011-3.314-9.247-2.428-12.714,2.658
				c0.232,14.253,4.66,24.962,13.29,32.124c7.933,6.241,17.216,8.319,27.849,6.241c10.477-1.927,18.489-7.202,24.035-15.831
				c6.238-9.554,7.357-20.687,3.351-33.395c-4.467-15.871-11.248-35.978-20.339-60.324h-0.231l-12.017,3.465L566.954,277.627z"/>
		</g>
	</g>
	<g transform="matrix( 1.2113800048828125, 0, 0, 1.2113800048828125, -13.05,-132.1) ">
		<path id="Layer0_0_1_STROKES" fill="none" stroke="#000000" stroke-width="2" stroke-linecap="round" stroke-linejoin="round" d="
			M538.961,156.577c-6.34-3.677-12.926-7.026-19.763-10.048 M491.422,176.626c18.8,15.857,32.86,35.812,42.185,59.862
			c6.319-16.367,13.742-26.637,22.275-30.807c8.66-4.488,21.172-3.856,37.541,1.895c1.2,0.379,2.875,1.139,5.023,2.276
			c-12.874-17.262-27.771-31.876-44.697-43.842 M519.198,146.529c-1.318-0.58-2.646-1.147-3.984-1.706
			c-6.306-2.586-12.625-4.719-18.957-6.399c-11.322-2.988-22.683-4.522-34.078-4.597c-9.159-0.078-18.335,0.791-27.538,2.607
			 M438.432,147.809c14.06,4.69,26.891,10.756,38.488,18.2 M553.749,166.009c-4.776-3.347-9.706-6.492-14.788-9.432
			 M450.613,255.306c2.26,0.846,4.551,1.81,6.873,2.891c1.519,0.695,3.035,1.642,4.551,2.844
			c-5.626-19.781-11.534-38.012-17.727-54.697c-6.182-16.907-15.9-38.472-29.15-64.697c-0.088,0.032-0.184,0.064-0.284,0.096
			c-0.227,0.23-0.447,0.468-0.664,0.711 M462.465,260.189c0.676-1.396,1.514-2.724,2.51-3.983
			c7.774-12.447,17.729-20.411,29.862-23.886c12.134-3.414,25.058-2.022,38.771,4.169 M462.037,261.04
			c0.131-0.291,0.271-0.573,0.428-0.852l28.107,75.502l0.186-0.049c7.459,19.968,13.019,36.465,16.686,49.483
			c3.285,10.426,2.371,19.558-2.748,27.396c-4.551,7.078-11.122,11.406-19.717,12.985c-8.722,1.707-16.339,0-22.845-5.119
			c-7.079-5.875-10.712-14.662-10.902-26.352c2.845-4.173,6.319-4.897,10.426-2.181c-0.313,8.595,1.773,15.01,6.258,19.243
			c4.109,3.919,8.977,5.403,14.6,4.454c5.243-0.821,9.607-3.791,13.081-8.908c3.602-5.438,3.443-14.601-0.476-27.493
			c-2.113-7.173-4.595-14.315-7.442-21.422h-0.044l-0.477-1.326c-2.373-5.832-4.998-11.644-7.867-17.441l1.421-0.428l-30.097-83.229
			c-28.28-10.501-52.625-2.648-73.039,23.557c-0.125-0.188-0.172-0.455-0.143-0.806c-0.207-1.41-0.396-2.817-0.568-4.218
			c-10.664-6.737-21.232-8.697-31.709-5.88c-9.352,2.654-19.275,9.544-29.765,20.666c1.205-17.063,4.477-33.604,9.811-49.624
			 M480.71,338.533l9.861-2.842 M487.677,357.729c-0.17-0.447-0.342-0.888-0.521-1.325 M414.877,141.742
			c-0.269,0.096-0.536,0.191-0.806,0.283 M414.877,141.742c0.077-0.075,0.156-0.155,0.237-0.238c0.097,0.02,0.19,0.035,0.284,0.046
			c6.426-2.167,12.84-3.874,19.243-5.119 M415.398,141.551c-0.029,0.021-0.062,0.038-0.095,0.049
			c-0.041,0.015-0.087,0.03-0.142,0.047c-0.008-0.049-0.024-0.096-0.047-0.142 M403.263,155.202
			c3.352-4.409,7.001-8.657,10.949-12.749 M414.07,142.027c-4.602,1.682-9.041,3.547-13.318,5.592 M388.713,179.186
			c3.992-8.466,8.844-16.459,14.55-23.983 M380.704,200.846c0.54-1.935,1.124-3.846,1.754-5.737 M415.398,141.551
			c8.009,1.704,15.69,3.79,23.035,6.258 M400.753,147.618c-11.433,5.471-21.766,12.249-30.997,20.334
			c-8.71,7.671-16.435,16.517-23.177,26.542 M376.864,273.838c-3.496-26.94-2.216-51.27,3.839-72.992 M376.864,273.838
			c0.328,0.219,0.66,0.439,0.996,0.662c0.568,0.378,0.568,1.105,0,2.182c-0.225,0.543-0.367,1.004-0.427,1.373 M346.577,194.494
			c-2.718,4.037-5.276,8.27-7.678,12.702c-1.679,3.155-3.274,6.331-4.788,9.527c-3.431,7.314-6.4,14.737-8.911,22.276"/>
	</g>
	<g transform="matrix( 1.2113800048828125, 0, 0, 1.2113800048828125, -13.05,-132.1) ">
		<path id="Layer0_0_2_STROKES" fill="none" stroke="#88BCFB" stroke-linecap="round" stroke-linejoin="round" d="M543.644,37.108
			l105.884,318.629 M657.538,379.901l20.904,62.999 M534.75,10.334l5.914,17.834 M520.55,132.701l8.846,26.542 M479.809,10.334
			l35.711,107.187 M493.218,16.295l34.548,103.741 M543.924,168.508l3.677,11.128 M453.966,136.891l2.932,8.848 M487.444,141.408
			l6.241,18.766 M529.768,126.09l14.156,42.419 M529.396,159.243l4.797,14.434 M406.844,145.367l5.354,16.109 M366.846,25.236
			l39.858,119.712 M361.911,10.334l1.77,5.355 M406.704,144.947l0.14,0.42 M396.087,157.891l0.933,2.84 M393.62,150.441l2.467,7.45
			 M347.011,10.334l46.609,140.107 M198.802,186.946l43.676,131.446 M248.904,337.762l35.807,107.653 M246.809,178.145
			l88.841,267.27 M191.027,10.334l50.939,153.191 M140.087,10.334l50.8,152.865 M129.098,332.222l29.335,88.282 M595.935,12.384
			l143.691,432.567 M214.029,10.334l144.53,435.081 M443.862,10.334l43.582,131.073 M411.92,10.334l42.046,126.557 M650.973,10.334
			l105.416,317.324 M688.314,12.384l68.075,204.921 M718.115,12.384l38.274,115.195 M628.621,10.334l127.767,384.607"/>
	</g>
	<g transform="matrix( 1.2113800048828125, 0, 0, 1.2113800048828125, -13.05,-132.1) ">
		
			<path id="Layer0_0_3_STROKES" fill="none" stroke="#88BCFB" stroke-width="1.5" stroke-linecap="round" stroke-linejoin="round" d="
			M600.731,157.846l94.753,285.055 M551.698,10.334l46.007,138.385 M373.924,202.732l0.279,0.837 M309.946,10.334l53.222,160.082
			l10.755,32.316 M129.098,179.125l60.065,180.615 M182.459,288.359l38.181,114.733 M225.342,417.291l8.521,25.61 M129.098,127.812
			l49.729,149.652 M328.152,218.331l4.61,13.829 M259.007,10.334l69.145,207.996 M196.707,382.416l20.115,60.485"/>
	</g>
	<g transform="matrix( 1.2113800048828125, 0, 0, 1.2113800048828125, -13.05,-132.1) ">
		<path id="Layer0_0_4_STROKES" fill="none" stroke="#0E77F8" stroke-linecap="round" stroke-linejoin="round" d="M682.354,26.724
			l74.035,222.988 M463.325,8.844l8.754,26.402 M477.06,50.192l32.921,99.178l8.565,25.796 M426.911,139.453l3.724,11.175
			 M313.764,223.312l5.634,16.902 M271.487,95.962l33.99,102.392 M242.524,8.844l26.82,80.646 M409.312,86.511l17.6,52.942
			 M383.517,8.844l17.041,51.312 M430.637,150.628l2.607,7.869 M278.098,8.844l6.705,20.255 M286.665,34.688l53.733,161.804
			 M162.577,172.326l89.912,270.575 M129.098,71.518l32.128,96.71 M340.398,196.491l4.657,13.969 M319.399,240.214l6.194,18.673
			 M306.502,400.855l13.967,42.045 M176.218,8.844L297.701,374.36 M704.893,408.632l11.359,34.269 M572.093,8.844l124.603,375.109
			 M522.365,8.844l144.251,434.056 M605.618,8.844l144.157,434.056 M735.995,8.844l20.394,61.417 M129.098,276.112l55.409,166.788"
			/>
	</g>
</g>
</svg>
