<svg xmlns="http://www.w3.org/2000/svg" width="900" height="450" viewBox="0 0 900 450"><path fill="#88BCFB" d="M721.026 400.139c-1.31-3.182-4.903-8.268-10.78-15.262a351.532 351.532 0 0 0-2.196-2.577c-1.02 10.813-1.052 18.191-.094 22.131 1.27 5.279 4.323 7.505 9.155 6.678.551-.3 1.059-.618 1.528-.954 3.383-2.47 4.177-5.808 2.387-10.016M171.56 439.823c-1.44-3.51-5.672-9.362-12.687-17.552a2.337 2.337 0 0 1-.285-.286c-1.018 10.81-1.05 18.188-.096 22.13 1.272 5.279 4.324 7.505 9.158 6.677 4.642-2.54 5.945-6.198 3.91-10.969m139.178-37.68c4.644-2.543 5.947-6.201 3.911-10.967-1.462-3.562-5.786-9.51-12.972-17.84-.055.578-.12 1.151-.193 1.715-.838 9.876-.806 16.648.097 20.32 1.192 5.27 4.181 7.526 8.966 6.772a.529.529 0 0 0 .191 0m-87.474 10.685c.724 3.16 2.09 5.225 4.101 6.2 1.405.652 3.09.81 5.057.476 4.644-2.48 5.947-6.137 3.911-10.968-1.463-3.56-5.788-9.506-12.975-17.84-.514 5.47-.767 10.051-.762 13.735-.026 3.652.197 6.45.668 8.397M182.817 281.09c-.574-1.396-1.59-3.177-3.052-5.343-2.246-3.264-5.553-7.432-9.922-12.496-1.016 10.813-1.05 18.19-.095 22.132 1.209 5.278 4.26 7.504 9.158 6.679 2.51-1.377 4.035-3.093 4.579-5.152.49-1.687.266-3.627-.668-5.82m7.536 78.986a303.122 303.122 0 0 0-3.53-4.198c-1.018 10.812-1.05 18.189-.096 22.132 1.208 5.278 4.26 7.536 9.157 6.772.84-.46 1.57-.97 2.195-1.525 2.811-2.401 3.385-5.58 1.717-9.54-1.204-2.882-4.351-7.428-9.443-13.641m54.85-214.254c-.496 5.21-.75 9.631-.762 13.26-.044 3.798.178 6.724.667 8.774.776 3.18 2.207 5.248 4.292 6.202 1.356.614 2.979.775 4.867.477 4.641-2.481 5.946-6.137 3.91-10.971-1.463-3.56-5.787-9.474-12.974-17.742m-5.722 165.315c-1.019 10.81-1.05 18.159-.097 22.038 1.208 5.277 4.229 7.537 9.062 6.772 1.3-.713 2.317-1.506 3.053-2.384 2.055-2.29 2.372-5.152.953-8.586-1.043-2.543-3.555-6.292-7.537-11.255a178.41 178.41 0 0 0-5.434-6.585M205.52 171.96c-1.526-3.562-5.852-9.508-12.972-17.837a536.27 536.27 0 0 1-.478 4.578c-.612 8.338-.484 14.157.381 17.457 1.04 4.794 3.615 7.084 7.727 6.87.44.006.887-.027 1.336-.096 4.643-2.547 5.977-6.202 4.006-10.972m-34.53-.478c4.642-2.544 5.977-6.2 4.005-10.97-1.525-3.562-5.852-9.509-12.972-17.838-1.01 10.103-1.107 17.162-.288 21.178.061.317.125.604.192.858.283 1.31.664 2.422 1.145 3.338 1.595 2.864 4.234 4.008 7.917 3.434m136.602 20.986c-1.018 10.812-1.083 18.156-.191 22.037 1.208 5.343 4.23 7.6 9.063 6.773.56-.303 1.069-.62 1.526-.955 3.446-2.476 4.273-5.813 2.48-10.015-1.383-3.224-5.04-8.407-10.97-15.549-.604-.737-1.239-1.502-1.908-2.29m83.946-8.586c-.674-1.638-1.977-3.8-3.912-6.486-2.163-3.072-5.183-6.856-9.061-11.352-.38 4.071-.604 7.632-.668 10.685-.19 5.087.033 8.871.668 11.35.529 2.44 1.452 4.222 2.766 5.343 1.565 1.363 3.663 1.841 6.295 1.432 4.39-2.419 5.787-5.853 4.199-10.303a2.175 2.175 0 0 0-.287-.669M273.726 85.725c-.297-.723-.71-1.55-1.24-2.48-2.095-3.6-6.005-8.72-11.733-15.36-1.018 10.813-1.018 18.19 0 22.133 1.208 5.278 4.229 7.536 9.061 6.772 3.218-1.763 4.84-4.085 4.865-6.963-.01-1.251-.327-2.617-.953-4.102m2.671-80.034c-1.081 10.747-1.112 18.124-.095 22.13 1.208 5.215 4.23 7.411 9.064 6.582 3.364-1.842 4.985-4.29 4.864-7.345-.03-1.103-.316-2.31-.858-3.624a23.142 23.142 0 0 0-1.05-2.098c-2.057-3.589-6.03-8.803-11.925-15.645m130.689 45.692a197.46 197.46 0 0 1-.191 1.814c-.896 9.828-.864 16.602.095 20.318 1.137 5.247 4.095 7.473 8.87 6.677h.097c4.642-2.544 5.978-6.201 4.006-10.97-1.462-3.561-5.755-9.508-12.877-17.839m-24.42-43.499c-.699-1.78-2.13-4.196-4.293-7.249h-9.253c-.098 2.689-.098 5.01 0 6.964.105 1.883.295 3.441.572 4.675.538 2.318 1.428 4.036 2.672 5.15 1.575 1.415 3.708 1.89 6.391 1.43 4.641-2.543 5.946-6.2 3.91-10.97m94.533 144.14c-.448 4.702-.7 8.741-.763 12.113-.087 4.373.135 7.678.668 9.921 1.147 5.215 4.167 7.473 9.063 6.773 2.861-1.548 4.485-3.553 4.864-6.01.119-.814.088-1.705-.095-2.671l-.764-2.289c-1.462-3.435-5.468-8.998-12.018-16.694a8.99 8.99 0 0 0-.955-1.144m47.41-40.064c-.029 4.015.226 7.069.764 9.157.762 3.33 2.224 5.462 4.391 6.39 1.333.536 2.89.664 4.673.383 3.302-1.81 4.893-4.195 4.77-7.156.016-1.21-.27-2.515-.86-3.91a21.966 21.966 0 0 0-1.143-2.29c-2.072-3.586-5.981-8.77-11.734-15.548-.51 5.086-.795 9.409-.86 12.974m-52.372-94.058c-1.015 10.81-1.046 18.157-.095 22.036 1.209 5.341 4.228 7.6 9.063 6.771 1.92-1.05 3.255-2.29 4.008-3.719 1.13-2.035 1.098-4.452-.098-7.25-.767-1.96-2.423-4.662-4.959-8.109-2.046-2.738-4.685-5.982-7.919-9.73m190.026 333.878a538.424 538.424 0 0 0-.384 4.199c-.632 8.543-.538 14.52.288 17.932 1.16 4.82 3.801 7.077 7.918 6.771.41.01.82-.022 1.238-.094 4.643-2.545 5.95-6.203 3.912-10.968-1.462-3.564-5.786-9.51-12.972-17.84M564.103 20.38c-1.528-3.624-5.853-9.57-12.975-17.839-.772 7.676-1.024 13.623-.762 17.84.154 1.716.376 3.147.669 4.293.5 2.156 1.294 3.778 2.384 4.864 1.618 1.656 3.843 2.26 6.68 1.812 4.637-2.542 5.976-6.2 4.003-10.97m47.792 132.883c.316-1.567.06-3.315-.762-5.245-.485-1.13-1.248-2.497-2.29-4.102-2.257-3.448-5.82-7.994-10.681-13.643-1.023 10.684-1.053 18.03-.096 22.037 1.142 5.214 4.162 7.44 9.06 6.677 2.8-1.513 4.39-3.421 4.769-5.724M697.844.635h-9.254c-.192 5.215 0 9.03.57 11.448 1.01 4.232 3.142 6.521 6.393 6.868.838.109 1.762.077 2.765-.097 4.644-2.543 5.949-6.198 3.913-10.97-.762-1.78-2.225-4.196-4.388-7.249M128.825 418.931c-.288 4.935-.288 8.847 0 11.734.114 1.194.273 2.212.476 3.053 1.208 5.279 4.26 7.505 9.159 6.676 4.641-2.543 5.946-6.2 3.91-10.968-1.463-3.561-5.787-9.509-12.973-17.838-.25 2.661-.441 5.11-.572 7.343m0-79.46v16.693c4.332-2.487 5.507-6.05 3.53-10.685-.637-1.547-1.814-3.55-3.53-6.008m0-329.965v24.135c1.551 1.288 3.585 1.734 6.105 1.336 4.641-2.543 5.945-6.2 3.91-10.97-1.255-3.058-4.593-7.89-10.015-14.5m112.944 214.06c-1.018 10.813-1.049 18.157-.095 22.037 1.209 5.342 4.23 7.598 9.062 6.772 4.643-2.543 5.946-6.198 3.911-10.972-1.398-3.559-5.69-9.505-12.878-17.837m-45.788-153.39c-1.526-3.625-5.852-9.572-12.973-17.839-1.017 10.749-1.049 18.125-.095 22.13 1.144 5.216 4.165 7.441 9.062 6.677 4.705-2.48 6.041-6.135 4.006-10.969m155.586 62.197c-1.527-3.498-5.819-9.445-12.878-17.84-1.019 10.812-1.05 18.19-.096 22.13 1.146 5.28 4.134 7.538 8.967 6.774 4.706-2.542 6.043-6.23 4.007-11.064m0-62.197c-1.527-3.624-5.819-9.571-12.878-17.838-1.019 10.749-1.05 18.125-.096 22.13 1.146 5.216 4.134 7.441 8.967 6.677 4.706-2.48 6.043-6.135 4.007-10.969m335.02 218.83c4.643-2.543 5.946-6.197 3.911-10.97-1.463-3.56-5.787-9.506-12.973-17.84-1.015 10.813-1.047 18.192-.095 22.132 1.272 5.282 4.324 7.505 9.158 6.679m64.958 65.345c-1.462-3.56-5.785-9.509-12.97-17.84-1.016 10.814-1.048 18.19-.096 22.133 1.274 5.278 4.326 7.503 9.16 6.677 4.642-2.545 5.944-6.2 3.906-10.97m-14.497-94.917c4.643-2.54 5.945-6.198 3.91-10.97-1.462-3.562-5.784-9.504-12.972-17.84-1.016 10.811-1.05 18.157-.096 22.037 1.272 5.342 4.323 7.6 9.158 6.773m-41.305-44.833c4.644-2.48 5.949-6.138 3.913-10.971-1.463-3.561-5.79-9.507-12.974-17.838-1.018 10.81-1.049 18.188-.094 22.13 1.207 5.28 4.26 7.505 9.155 6.679M461.747 97.364c-1.084 10.811-1.114 18.188-.097 22.132 1.143 5.277 4.166 7.504 9.062 6.677 4.644-2.481 5.979-6.136 4.008-10.97-1.527-3.563-5.85-9.51-12.973-17.839M583.561 72.18c-1.525-3.562-5.818-9.507-12.877-17.837-1.017 10.81-1.078 18.188-.192 22.13 1.21 5.279 4.231 7.504 9.065 6.677 4.704-2.543 6.04-6.2 4.004-10.97m162.17 23.657c4.641-2.543 5.947-6.2 3.91-10.97-1.462-3.561-5.755-9.506-12.874-17.836-1.022 10.81-1.084 18.187-.194 22.13 1.27 5.278 4.326 7.504 9.158 6.676m-54.662 14.31c-1.018 10.81-1.049 18.156-.095 22.035 1.207 5.279 4.23 7.536 9.061 6.772 4.644-2.543 5.95-6.2 3.912-10.97-1.397-3.56-5.69-9.506-12.878-17.837m-27.566-34.628c-1.463-3.625-5.756-9.572-12.877-17.838-1.022 10.746-1.022 18.124 0 22.13 1.14 5.216 4.131 7.442 8.964 6.678 4.645-2.542 5.947-6.2 3.913-10.97m107.888 364.305V415.5c-.726-.855-1.492-1.745-2.288-2.671-1.02 10.811-1.05 18.186-.097 22.13.509 2.115 1.305 3.737 2.385 4.865m0-242.489v-22.32a242.026 242.026 0 0 0-5.34-6.393c-1.02 10.813-1.05 18.19-.098 22.133.906 3.763 2.722 5.957 5.438 6.58z"/><path fill="#F4DD35" d="M402.316 153.264l-2.575-7.633c-11.473 5.539-21.87 12.374-31.194 20.511l11.067 33.1a201.928 201.928 0 0 1 1.716-5.818c-1.315-1.122-2.237-2.902-2.766-5.342-.637-2.48-.859-6.266-.668-11.352.064-3.053.286-6.615.668-10.684 3.878 4.496 6.898 8.28 9.061 11.351a139.859 139.859 0 0 1 14.69-24.133m54.566 103.694c1.525.699 3.052 1.65 4.578 2.86-5.657-19.906-11.605-38.251-17.837-55.041-6.222-17.016-16.015-38.734-29.38-65.155-.059.065-.153.096-.286.095-.196.266-.42.519-.668.765l5.533 16.502-5.533-16.502a153.223 153.223 0 0 0-10.971 12.782l.953 2.957-.953-2.957a139.841 139.841 0 0 0-14.69 24.135c1.934 2.685 3.237 4.847 3.91 6.486.127.19.222.413.287.666 1.588 4.452.19 7.887-4.199 10.304-2.632.41-4.73-.068-6.295-1.431a197.778 197.778 0 0 0-1.716 5.817l.285.86-.285-.86c-6.096 21.86-7.398 46.346-3.912 73.455.361.222.711.441 1.05.667.572.378.572 1.112 0 2.195-.226.546-.386.993-.477 1.333.002.386.066.672.191.86 20.543-26.37 45.026-34.289 73.452-23.754a106.27 106.27 0 0 1 6.963 2.961m34.15-82.135c-.38 2.459-2.003 4.46-4.864 6.008-4.897.7-7.917-1.556-9.063-6.771-.534-2.242-.756-5.55-.668-9.921-11.668-7.458-24.579-13.564-38.728-18.315l2.67 8.11-2.67-8.11c-7.394-2.45-15.121-4.55-23.181-6.297-.03.053-.062.086-.096.097a.4.4 0 0 1-.19 0c13.365 26.421 23.16 48.14 29.38 65.154 6.233 16.79 12.18 35.136 17.838 55.041.129-.292.257-.576.384-.858a23.72 23.72 0 0 1 2.574-4.006c7.821-12.53 17.836-20.54 30.045-24.04 12.211-3.433 25.22-2.034 39.017 4.198-9.381-24.205-23.53-44.302-42.448-60.29m-14.596-10.685c.064-3.372.315-7.411.763-12.114.321.318.636.698.955 1.143 6.552 7.696 10.556 13.26 12.018 16.694.257.764.509 1.527.763 2.289.183.966.215 1.857.095 2.67 18.921 15.99 33.067 36.087 42.451 60.291 6.36-16.472 13.833-26.806 22.42-31.003 8.71-4.516 21.304-3.88 37.774 1.909 1.206.38 2.894 1.144 5.055 2.289-12.953-17.37-27.96-32.092-45.024-44.167l3.814 11.446-3.814-11.446a200.05 200.05 0 0 0-14.884-9.444l4.963 14.787-4.963-14.787a199.959 199.959 0 0 0-19.84-10.111l8.778 26.424-8.778-26.424a248.813 248.813 0 0 0-4.007-1.718 160.65 160.65 0 0 0-19.082-6.486l6.392 19.269-6.392-19.27c-11.393-2.976-22.84-4.502-34.34-4.579l3.054 9.063-3.054-9.063c-9.183-.078-18.404.78-27.662 2.576l3.813 11.447c14.154 4.751 27.064 10.857 38.732 18.315m-131.164 28.714l4.77 14.31-4.77-14.31a156.18 156.18 0 0 0-7.727 12.782 307.414 307.414 0 0 0-4.866 9.54l4.772 14.214-4.772-14.213a225.812 225.812 0 0 0-8.966 22.416l6.392 19.174-6.392-19.174c-5.336 16.153-8.613 32.815-9.825 49.986 10.555-11.191 20.54-18.125 29.953-20.795 10.542-2.838 21.163-.864 31.86 5.916-3.485-27.11-2.182-51.595 3.913-73.455l-11.067-33.099c-8.73 7.716-16.49 16.617-23.275 26.708m92.436-47.03l-3.815-11.446a161.568 161.568 0 0 0-19.365 5.15c8.06 1.747 15.787 3.847 23.18 6.296m-24.421-5.341l-.095-.478a180.166 180.166 0 0 0-13.45 5.628l2.575 7.632a153.345 153.345 0 0 1 10.97-12.782m0 0c.25-.245.473-.499.668-.764a3.071 3.071 0 0 1-.763.286l.095.478z"/><path fill="#666" d="M461.458 259.819c-1.525-1.21-3.053-2.162-4.577-2.86a105.742 105.742 0 0 0-6.965-2.959l30.336 83.752 9.92-2.86-28.33-75.934-.384.86m25.28 95.964l.476 1.334c-.14-.448-.298-.892-.477-1.334z"/><path fill="#D88D56" d="M478.82 338.231a262.108 262.108 0 0 1 7.919 17.553c.178.44.337.885.475 1.333a231.92 231.92 0 0 1 7.539 21.558c3.943 12.973 4.103 22.195.475 27.667-3.496 5.15-7.883 8.137-13.161 8.965-5.662.954-10.56-.54-14.692-4.483-4.515-4.262-6.615-10.715-6.293-19.365-4.137-2.736-7.634-2.005-10.496 2.194.192 11.766 3.847 20.606 10.971 26.518 6.549 5.152 14.212 6.868 22.99 5.152 8.648-1.59 15.262-5.945 19.84-13.068 5.15-7.887 6.074-17.077 2.767-27.568-3.688-13.101-9.286-29.7-16.79-49.797h-.19l-9.921 2.86-1.432.481z"/><path fill="none" stroke="#000" stroke-width="1.99998" stroke-linecap="round" stroke-linejoin="round" d="M538.985 156.578a202.646 202.646 0 0 0-19.762-10.048m-27.776 30.096c18.8 15.857 32.86 35.812 42.184 59.862 6.32-16.367 13.742-26.637 22.275-30.807 8.66-4.488 21.172-3.856 37.541 1.895 1.2.38 2.875 1.14 5.023 2.276-12.874-17.262-27.77-31.876-44.697-43.841m-34.55-19.481a230.375 230.375 0 0 0-3.984-1.706 154.103 154.103 0 0 0-18.957-6.4c-11.322-2.987-22.683-4.521-34.078-4.596-9.16-.078-18.335.79-27.538 2.607m3.79 11.375c14.06 4.69 26.892 10.756 38.489 18.2m76.828 0a202.083 202.083 0 0 0-14.788-9.432m-88.347 98.728c2.26.846 4.55 1.81 6.873 2.891 1.519.695 3.035 1.642 4.55 2.844-5.625-19.78-11.533-38.012-17.726-54.697-6.182-16.907-15.9-38.471-29.15-64.696a7.79 7.79 0 0 1-.284.096c-.227.23-.447.468-.664.71M462.49 260.19a21.554 21.554 0 0 1 2.51-3.983c7.774-12.447 17.729-20.41 29.862-23.886 12.134-3.414 25.058-2.022 38.77 4.17m-71.57 24.55c.13-.291.27-.573.428-.852l28.107 75.502.186-.05c7.459 19.969 13.019 36.465 16.686 49.483 3.285 10.426 2.37 19.558-2.748 27.396-4.551 7.078-11.122 11.406-19.717 12.985-8.722 1.707-16.34 0-22.845-5.119-7.08-5.875-10.712-14.662-10.902-26.352 2.845-4.173 6.319-4.897 10.426-2.18-.313 8.594 1.773 15.01 6.258 19.242 4.109 3.92 8.977 5.403 14.6 4.454 5.243-.82 9.607-3.79 13.08-8.908 3.603-5.438 3.444-14.6-.475-27.493a239.88 239.88 0 0 0-7.442-21.421h-.044l-.477-1.326a261.639 261.639 0 0 0-7.867-17.441l1.42-.428-30.096-83.229c-28.28-10.5-52.625-2.648-73.039 23.557-.125-.188-.172-.455-.143-.806-.207-1.41-.396-2.817-.568-4.218-10.664-6.737-21.232-8.697-31.709-5.88-9.352 2.654-19.274 9.544-29.764 20.666 1.205-17.063 4.477-33.604 9.81-49.624m155.508 99.535l9.86-2.842m-2.893 22.038c-.17-.447-.342-.888-.521-1.325m-72.279-214.661a59.25 59.25 0 0 1-.806.283m.806-.283c.077-.075.156-.155.237-.238.097.02.19.035.284.046 6.426-2.167 12.84-3.874 19.243-5.12m-19.243 5.12a.357.357 0 0 1-.095.05c-.04.015-.087.03-.142.047a.494.494 0 0 0-.047-.142m-11.85 13.697a143.038 143.038 0 0 1 10.948-12.75m-.142-.425a151.095 151.095 0 0 0-13.318 5.592m-12.039 31.566a134.6 134.6 0 0 1 14.55-23.982m-22.559 45.642c.54-1.935 1.124-3.846 1.754-5.737m32.94-53.557c8.009 1.704 15.69 3.79 23.035 6.258m-37.68-.191c-11.433 5.47-21.766 12.249-30.997 20.334-8.71 7.67-16.435 16.516-23.177 26.541m30.285 79.344c-3.496-26.94-2.216-51.27 3.84-72.992m-3.84 72.992l.996.662c.568.378.568 1.105 0 2.182-.225.543-.367 1.004-.427 1.373m-30.856-83.56a154.743 154.743 0 0 0-7.678 12.701 228.54 228.54 0 0 0-4.788 9.527 204.782 204.782 0 0 0-8.91 22.276"/><g><path fill="none" stroke="#88BCFB" stroke-linecap="round" stroke-linejoin="round" d="M543.668 37.11l105.884 318.627m8.01 24.163l20.904 63M534.774 10.334l5.914 17.834m-20.113 104.533l8.845 26.542M479.834 10.335l35.71 107.187M493.244 16.296l34.547 103.74m16.158 48.473l3.677 11.127m-93.634-42.744l2.932 8.848m30.546-4.331l6.24 18.766m36.083-34.084l14.156 42.419m-14.528-9.266l4.797 14.433m-127.348-28.31l5.354 16.11m-45.352-136.24L406.73 144.95M361.936 10.335l1.77 5.355m43.023 129.258l.14.42m-10.757 12.524l.933 2.84m-3.4-10.29l2.467 7.45M347.036 10.335l46.61 140.107m-194.818 36.504l43.676 131.446m6.426 19.37l35.807 107.652m-37.902-267.269l88.84 267.27M191.053 10.334l50.939 153.19M140.113 10.336l50.8 152.865m-61.788 169.022l29.334 88.281m437.5-408.118L739.65 444.95M214.055 10.335l144.53 435.08m85.302-435.08l43.582 131.073M411.945 10.335l42.046 126.557M650.997 10.335l105.415 317.323M688.338 12.385l68.074 204.92m-38.274-204.92l38.274 115.195M628.645 10.335L756.41 394.94" stroke-width=".99999"/></g><g><path fill="none" stroke="#88BCFB" stroke-width="1.4999850000000001" stroke-linecap="round" stroke-linejoin="round" d="M600.755 157.847L695.508 442.9M551.722 10.335L597.73 148.72m-223.78 54.012l.28.837M309.971 10.335l53.221 160.081 10.755 32.316m-244.823-23.607l60.064 180.615m-6.704-71.381l38.181 114.732m4.702 14.2l8.521 25.61M129.125 127.812l49.728 149.65m149.325-59.132l4.61 13.83M259.032 10.334l69.145 207.995M196.733 382.415l20.115 60.485"/></g><g><path fill="none" stroke="#0E77F8" stroke-linecap="round" stroke-linejoin="round" d="M682.378 26.725l74.034 222.987M463.35 8.845l8.754 26.402m4.98 14.946l32.922 99.178 8.565 25.795m-91.635-35.712l3.724 11.175m-116.87 72.683l5.634 16.902M271.513 95.963l33.99 102.391M242.55 8.845l26.82 80.646m139.967-2.98l17.6 52.943M383.542 8.845l17.041 51.312m30.079 90.472l2.607 7.869M278.124 8.845l6.705 20.255m1.862 5.59l53.732 161.802m-177.82-24.166L252.515 442.9M129.125 71.52l32.127 96.71m179.171 28.262l4.657 13.97m-25.655 29.753l6.194 18.673m-19.091 141.967l13.967 42.045M176.245 8.845L297.726 374.36m407.19 34.272l11.358 34.27M572.117 8.844L696.72 383.952M522.39 8.845L666.64 442.9M605.642 8.845L749.798 442.9M736.018 8.845l20.394 61.417m-627.287 205.85l55.408 166.787" stroke-width=".99999"/></g></svg>