<svg xmlns="http://www.w3.org/2000/svg" viewBox="0 0 111.7 59.7"><path fill-rule="evenodd" d="M.9 26.45q-.15-.2-.15-.45-.05-.8.65-1.55.75-.6 1.9-.85H5l.2.15.1.05v.05l.1.35-.05.5-.25.6-.35.4q-.8.7-1.9.9L.9 26.45m95.4-9.55l3.5 1.85 2.85 2.1q2.5 2.05 4 4.25 2.8 3.85 2.75 8.1-.15 8.1-7.05 14.25-7.05 6.15-27.65 7L56 56.05q8.7-2.6 20.8-3.55 17.9-1.45 23.5-7.15 5.6-5.65 5.7-9.95.05-4.35-2.35-7.35-1.15-1.45-3-2.25-1.95-.95-4.75-1.2l-.1-.35-.15-.95v-.05l.5-5.55.15-.8M82.4 35.6l-.1.3-.05.1.35.2q1.1 1.15-1.25 2.25-3 1.45-8.5 1.35l-3.45-.25.1-.15q.95-1.05 8.05-3.5l3.75.25.8-.35.2-.1.05-.05.05-.05m-51.25 3.65l3.55-2.8q1.35-.7 4.6-.65 1.2.1 1.95.6h-.05q-1.75 1.4-3 1.7l-5.95.3-1.1.85M5.3 23.85l-.2-.1-.2-.15.2.15.2.1m26.5-17.3l.2.55.05.2.05 1.05-.05.1v.2l-.35 1.55-.15.35-.65 1.3-1.7 2.2-.45.3q-.7.45-1.2.4l-.15-.05H27.25q-.25-.55-.25-1.4l.05-.45v-.15q.05-1.15.6-2.35l.4-.95q1.05-1.75 2.2-2.55l.9-.35h.35l.3.05" fill="#ffaeff"/><path fill-rule="evenodd" d="M4.7 23.6l.05-.05h.05q4.75-2.2 10.65-6.95 2.9-2.3 5.4-3.35 1.65-.7 3-.65l1.75.1.05.05v.1l.1.3q.35 1.5 1.4 1.95l.95.2 1.65-.25 1.3-.3.2-.05.9.55.1.05 1.2.1h.05l1.35-.15 3-.3 3.15-.5 2.2-.6.7-.25 1-.5q1.75-.8 8.55-4.35 5.6-2.95 9.25-4.55Q73.95-.55 81.4 1.25q7.75 1.9 12.65 10.9-.8-.9-.35 2.3.55 4.3-.15 8.45-.75 4.15-4.8 7-4.05 2.75-8.25 3.6l-9.2.65q-4.25-.2-8.15-2.8-3.05-2.05-3.6-3.45v-.05l-.05-.05q-.4-1.35-.25-2.5-.15 1.15.25 2.5-.75-1.7-.4-2.3l.15-.2.3-1.1V24l-.35-.4h-.45l-2.75.05-.05.3-.2.6-.95 3.15-1.05 1.65-.4.3q-1 .75-1.55 1.8l-.05.05-.15.3-.4-.05-4.15 2.55H47q-1.4.45-2.45 1.1-1.05.6-2.85.55l-.85-.25.45.65-.05.05q-.75-.5-1.95-.6l.3-.75 1.15.6q-.4-.45.1-1.4l1.2-2.3q.3-.6.2-1L39.9 28q-2.1-2.45-4.4-2.45-1.2 0-1.3-.7l-.05-.25q0-.7.75-1.9.1-.7-.6-3l-.55-1.75-.35-.8-.6-1.05-.2-.2q-.45-.45 0 .55.65 1.65.65 3.4.05 2.75-1.95 4.3-3.35 2.45-7.2 2.9-4.1.45-10.45.1l-2.5-.1-.55-.05-.2-.3-1.25-.2-1.55-.4-.2-.05-.85-.25-.5-.05-.2.45.25-.65.05-.4v-.4l-.05-.2v-.1l-.85-.7.05.05-.1-.05-.2-.15h-.1l-.1-.05.1.05h-.2m91.45-7.15l.1.25v.1l.05.1-.15.8v-1.2l.1.2-.1-.2v-.05m-69.5 12.3L16.2 28.3h.1l8.85.45h1.5m-19.3-3.7l.25 1.05-.25-1.05m1.25.25l.55 1.2-.55-1.2m1.2-.15l1.35 1.9-1.35-1.9m12.85-6.1l.2-.7-.05-.2-.5-.85-.75-.35-.65-.15h-.05l-.15.05-.55.1-.7.3-.1.1.15-.15.75-.35.55-.1h.2l.65.1.7.35.55.85.05.25q-.05.45-.3.75.25-.3.3-.75l-.05-.25-.55-.85-.7-.35-.65-.1h-.2l-.55.1-.75.35-.15.15-.1.1h-.05l-.4.65v.2q-.05.65.55 1.1l1.1.5h.65q.65-.05 1.15-.45l.25-.25.15-.15m9.6-3.75l.55.8-.55-.8m1.95 9.55l.7-2.15.05-1.6q-.2-1.3-1.2-3.15 1 1.85 1.2 3.15l-.05 1.6-.7 2.15m9-11l-4.1 1.1-5.6.45 5.6-.45 4.1-1.1m32.45.5q-12.6 4-15.45 8.4L59.55 24l.65-1.25q2.85-4.4 15.45-8.4m20 8.95l.15.95.1.35-.4-.6.15-.7m-39.9 1.25q-.85 2.95-2 4.8 1.15-1.85 2-4.8m-3.95 6.9l-.6.3.6-.3M11.25 27.1h.1q1.35.1 1.85.5l-1.35-.25-.55-.15-.6-.15.55.05.05.1-.05-.1" fill="#727272"/><path fill-rule="evenodd" d="M99.8 18.75l-.2-.2 2.05 1.25.05.05.95 1-2.85-2.1 1.9 1.1-1.9-1.1m10.5 10.1q.7 2 .65 4.05-.3 9.05-7.25 15.25-7 6.25-27.65 7.1-20.6.85-27.6 3.7 3.35-1.65 7.55-2.9l18.7-1.6q20.6-.85 27.65-7 6.9-6.15 7.05-14.25.05-4.25-2.75-8.1l3.65 3.75M82.6 36.2l-.05-.05 1.15.8.2.2q.8 1.1-1.4 2.05-3.05 1.45-8.5 1.4l-4.5-.6q-.2-.2-.1-.45l3.45.25q5.5.1 8.5-1.35 2.35-1.1 1.25-2.25l1.1.75-1.1-.75m-40.65 1.05q-1.8 1.5-3.1 1.8l-7.7.2 1.1-.85 5.95-.3q1.25-.3 3-1.7l.3.3h.1l.05.1.3.45M5.3 23.8l-.05-.05.85.7v.1l.05.2V25.15l-.05.15-.25.65-.35.3q-.75.75-1.85.9l-2-.1-.75-.6 1.95.15q1.1-.2 1.9-.9l.35-.4.25-.6.05-.5-.1-.35.8.7-.8-.7v-.05m21.95-9.1l-.05-.05-.25-.2q-.65-.5-.6-1.75v-.55q.15-1.15.65-2.4l.45-.95q.95-1.7 2.15-2.5l.85-.35h.05l.3-.05.7.35.3.3-.3-.05h-.35l-.9.35q-1.15.8-2.2 2.55l-.4.95q-.55 1.2-.6 2.35v.15l-.05.45q0 .85.25 1.4" fill="#e3999e"/><path fill-rule="evenodd" d="M29.75 15.05h-.05l.2-.05.2-.1.15-.1.1-.1.35-.25.05-.05.5.3-.2.05-1.3.3m64.3-2.9l.9 1.2q.9 1.6 1.2 3.1v.05l-2.1-4.35 2.1 4.35v1.2l-.5 5.55v.05l-.15.7.4.6-.15.85-.2.55-.85 1.6q-.9 1.65-2.65 2.95-1.35 1-3.9 2.3L84.5 34.6l-.55.25-1.55.75-.05.05-.05.05-.2.1-.8.35-3.75-.25-3.75.15-5.7-.5q-3.45-.75-5.25-2.4L51.6 31.8l.15-.3.05-.05q.55-1.05 1.55-1.8l.4-.3 1.05-1.65.95-3.15.2-.6.05-.3 2.75-.05h.45l.35.4v.2l-.3 1.1.3-1.3-.3 1.3-.15.2q-.35.6.4 2.3l.05.05v.05q.55 1.4 3.6 3.45 3.9 2.6 8.15 2.8l9.2-.65q4.2-.85 8.25-3.6 4.05-2.85 4.8-7 .7-4.15.15-8.45-.45-3.2.35-2.3m-47 22.15l-5.1 2.95-.3-.45-.05-.1h-.1l-.3-.3h.05l.25.3-.25-.3.05-.05-.45-.65.85.25q1.8.05 2.85-.55 1.05-.65 2.45-1.1h.05m-7.45.75l.2-.65-.45-3.7q-.75-1.5-6.1-4.2-1.75 2.1-6.6 2.25 4.35-.45 6.6-2.25l.95-1.65q.1.7 1.3.7 2.3 0 4.4 2.45l2.35 2.95q.1.4-.2 1l-1.2 2.3q-.5.95-.1 1.4l-1.15-.6M16.2 28.3l-.35-.05-.4-.05-2.05-.3h-.1l-.9-.2-.95-.2-.15-.3.15.3-1.05-.2-.55-.15-.35-.05h-.05l-.85-.15-.4-.1-.4-.1h-.1l-.25-.05h-.1l-.2-.1-1.25-.3-.05-.05v-.05l.2-.45.5.05.85.25.2.05.1.65-.1-.65 1.55.4.3.6-.3-.6 1.25.2.2.3.55.05 2.5.1q6.35.35 10.45-.1 3.85-.45 7.2-2.9 2-1.55 1.95-4.3 0-1.75-.65-3.4-.45-1 0-.55l.2.2.6 1.05.35.8.55 1.75q.7 2.3.6 3-.75 1.2-.75 1.9l.05.25-.95 1.65q-2.25 1.8-6.6 2.25h-1.5l-8.85-.45h-.1m16.6-12.2l.95 1.85-.95-1.85m62.85 7.15q-.25-2.2.5-5.55-.75 3.35-.5 5.55m-32.8 9.9q-2.55-2.85-3.3-5.25.75 2.4 3.3 5.25M95.55 26q-.85 2.1-3.5 4.15-2.7 2.05-8.1 4.7 5.4-2.65 8.1-4.7 2.65-2.05 3.5-4.15M51.8 31.45q1.05-.75 1.95-2.1-.9 1.35-1.95 2.1m-12.45-.75q.95 1.5.45 3.7.5-2.2-.45-3.7M11.3 27.2l.55.15 1.35.25q-.5-.4-1.85-.5h-.1l-.55-.05.6.15m-.15-.15l.1.05-.1-.05" fill="#575757"/><path fill-rule="evenodd" d="M25.65 12.7v-.05q-.2-1.85.7-3.95t2.45-3.35q1.55-1.1 2.85-.55 1.25.55 1.5 2.45.25 1.95-.7 4-.95 2.2-2.45 3.3-1 .7-1.9.75l-.95-.2q-1.05-.45-1.4-1.95l-.1-.3V12.7m1.6 2H27.4l.15.05q.5.05 1.2-.4l.45-.3 1.7-2.2.65-1.3.15-.35.35-1.55v-.2l.05-.1-.05-1.05-.05-.2-.2-.55-.3-.3-.7-.35-.3.05h-.05l-.85.35q-1.2.8-2.15 2.5l-.45.95q-.5 1.25-.65 2.4v.55q-.05 1.25.6 1.75l.25.2.05.05" fill="#666"/><path fill-rule="evenodd" d="M20.85 16.8h.05l.65.15.75.35.5.85.05.2-.2.7-.15.15-.25.25q-.5.4-1.15.45l.4-.1.4-.35q.45-.45.5-1.1l-.05-.2-.45-.85-.5-.35-.55-.15m-1.5.55l.1-.1.7-.3.55-.1-.4.1-.55.3-.45.85v.2q-.05.65.4 1.1l.4.35-.65-.4q-.6-.5-.6-1.05l.05-.25V18l.3-.55-.3.55v.05l-.05.25q0 .55.6 1.05l.65.4h.05l.3.15-1.1-.5q-.6-.45-.55-1.1v-.2l.4-.65h.05l.1-.1m3.15 1.85l-.2.2-.8.4.8-.4.2-.2" fill="#333"/><path fill-rule="evenodd" d="M20.7 16.85l.15-.05.55.15.5.35.45.85.05.2q-.05.65-.5 1.1l-.4.35-.4.1h-.65l-.3-.15h-.05l-.4-.35q-.45-.45-.4-1.1v-.2l.45-.85.55-.3.4-.1m.8 1.5v.15l-.05.15-.15.4.15-.15.3-.6v-.15l-.05-.2-.2-.25-.25-.2-.3-.05-.35.05-.25.2-.1.1.1-.05.3-.05H21l.25.25.25.4"/><path fill-rule="evenodd" d="M21.5 18.35l-.25-.4-.25-.25h-.35l-.3.05-.1.05.1-.1.25-.2.35-.05.3.05.25.2.2.25.05.2v.15l-.3.6-.15.15.15-.4.05-.15v-.15" fill="#fff"/><path stroke-linejoin="round" d="M.9 26.45q-.15-.2-.15-.45-.05-.8.65-1.55.75-.6 1.9-.85h1.4l.05-.05h.05q4.75-2.2 10.65-6.95 2.9-2.3 5.4-3.35 1.65-.7 3-.65l1.75.1h.05v-.05q-.2-1.85.7-3.95t2.45-3.35q1.55-1.1 2.85-.55 1.25.55 1.5 2.45.25 1.95-.7 4-.95 2.2-2.45 3.3-1 .7-1.9.75l-.95-.2q-1.05-.45-1.4-1.95l-.1-.3V12.7m5.1 1.7l.5.3.9.55.1.05 1.2.1h.05l5.6-.45 4.1-1.1.7-.25 1-.5q1.75-.8 8.55-4.35 5.6-2.95 9.25-4.55Q73.95-.55 81.4 1.25q7.75 1.9 12.65 10.9l2.1 4.35m.1.2v.1l.05.1 3.5 1.85m1.9 1.1q6.7 4.2 8.6 9 .7 2 .65 4.05-.3 9.05-7.25 15.25-7 6.25-27.65 7.1-20.6.85-27.6 3.7 3.35-1.65 7.55-2.9 8.7-2.6 20.8-3.55 17.9-1.45 23.5-7.15 5.6-5.65 5.7-9.95.05-4.35-2.35-7.35-1.15-1.45-3-2.25-1.95-.95-4.75-1.2l-.15.85-.2.55m-11.6 8.85l-1.55.75-.05.05-.05.05-.2.1-.8.35-3.75-.25-3.75.15-5.7-.5q-3.45-.75-5.25-2.4L51.6 31.8l-.4-.05-4.15 2.55-5.1 2.95q-1.8 1.5-3.1 1.8l-7.7.2 3.55-2.8q1.35-.7 4.6-.65l.3-.75.2-.65q.5-2.2-.45-3.7-.75-1.5-6.1-4.2l.95-1.65M82.25 36l.35.2m1.1.75l.2.2q.8 1.1-1.4 2.05-3.05 1.45-8.5 1.4-3.8-.05-4.5-.6-.2-.2-.1-.45l.1-.15q.95-1.05 8.05-3.5m-50.9-7.15L16.2 28.3l-.35-.05-.4-.05m-2.15-.3l-.9-.2-.95-.2 2.2 3.3M4.8 23.55l.1.05.2.15.2.1m.8.7l.05.2V25.15m1.45.95l-.25-1.05M.9 26.45l.75.6 2 .1q1.1-.15 1.85-.9l.35-.3.25-.65.05-.15M5.9 26.3l1.25.3.2.1h.1l.25.05-.1-.65m1.55.4l-.55-1.2m-2.5-.75l-.8-.7m2.4 2.9h.1l.4.1.4.1.85.15-.3-.6m2 .55l-1.35-1.9M7 21.7l-.45-.9m.1 1.3L5.1 20.45m1.25 2L4 21.4M31.8 6.55l.2.55.05.2.05 1.05-.05.1v.2l-.35 1.55-.15.35-.65 1.3-1.7 2.2-.45.3q-.7.45-1.2.4l-.15-.05H27.25m-.05-.05l-.25-.2q-.65-.5-.6-1.75v-.55q.15-1.15.65-2.4l.45-.95q.95-1.7 2.15-2.5l.85-.35h.05l.3-.05.7.35.3.3m-9.15 12.5q.25-.3.3-.75l-.05-.25-.55-.85-.7-.35-.65-.1h-.2l-.55.1-.75.35-.15.15m2.15 2.45l.8-.4.2-.2.15-.15m-3.45-1.6h.05l.1-.1m-.15.1l-.3.55v.05l-.05.25q0 .55.6 1.05l.65.4h.05M32.8 16.1l-.55-.8m1.5 2.65q1 1.85 1.2 3.15l-.05 1.6-.7 2.15m-.45-6.9l-.95-1.85m-6.15 12.65q4.35-.45 6.6-2.25m22.5-1.95l.2-.6.05-.3m3.55.35l.65-1.25q2.85-4.4 15.45-8.4M59.55 24l-.3 1.3q-.15 1.15.25 2.5l.05.05v.05q.75 2.4 3.3 5.25M96.3 16.9l-.15.8q-.75 3.35-.5 5.55v.05l.15.95.1.35m.35-7.9l-.1-.2m5.55 3.35l-1.9-1.1m-16.1 18.2l-1.1-.75m1.35-1.35q5.4-2.65 8.1-4.7 2.65-2.05 3.5-4.15m-41.8 3.35q-.9 1.35-1.95 2.1m1.95-2.1q1.15-1.85 2-4.8m-4.55 7.2l.6-.3m-9.85 5.8l-.3-.45-.05-.1h-.1l-.25-.3q-.75-.5-1.95-.6m-28-8.6l.15.3-1.05-.2-.55-.15-.35-.05h-.05l1.95 4.6.65 1.4m-.8-6l-.1-.05m.15.15l-.05-.1m-3.55-.35l.9 4.75" stroke="#333" stroke-linecap="round" stroke-width="1.5" fill="none"/></svg>