<?xml version="1.0" encoding="UTF-8" standalone="no"?>
<svg id="svg4597" xmlns:inkscape="http://www.inkscape.org/namespaces/inkscape" xmlns:rdf="http://www.w3.org/1999/02/22-rdf-syntax-ns#" xmlns="http://www.w3.org/2000/svg" sodipodi:docname="rat.svg" viewBox="0 0 111.7 59.7" version="1.1" xmlns:cc="http://creativecommons.org/ns#" xmlns:dc="http://purl.org/dc/elements/1.1/" inkscape:version="0.48.2 r9819" xmlns:sodipodi="http://sodipodi.sourceforge.net/DTD/sodipodi-0.dtd">
 <metadata id="metadata4623">
  <rdf:RDF>
   <cc:Work rdf:about="">
    <dc:format>image/svg+xml</dc:format>
    <dc:type rdf:resource="http://purl.org/dc/dcmitype/StillImage"/>
    <dc:title/>
   </cc:Work>
  </rdf:RDF>
 </metadata>
 <sodipodi:namedview id="namedview4619" bordercolor="#666666" inkscape:pageshadow="2" guidetolerance="10" pagecolor="#ffffff" gridtolerance="10" inkscape:window-maximized="0" inkscape:zoom="2.9543421" objecttolerance="10" borderopacity="1" inkscape:current-layer="svg4597" inkscape:cx="55.849998" inkscape:cy="29.85" inkscape:window-y="0" inkscape:window-x="0" inkscape:window-width="640" showgrid="false" inkscape:pageopacity="0" inkscape:window-height="480"/>
 <g id="g4599" transform="matrix(1.0, 0.0, 0.0, 1.0, -3.9, 27.0)">
  <path id="path4601" stroke="none" fill-rule="evenodd" d="M4.8-0.55q-0.15-0.2-0.15-0.45-0.05-0.8,0.65-1.55,0.75-0.6,1.9-0.85h1.4,0.15,0.05,0.1l0.2,0.15,0.1,0.05v0.05l0.1,0.35-0.05,0.5-0.25,0.6-0.35,0.4q-0.8,0.7-1.9,0.9l-1.95-0.15m95.4-9.55l3.5,1.85,2.85,2.1q2.5,2.05,4,4.25,2.8,3.85,2.75,8.1-0.15,8.1-7.05,14.25-7.05,6.15-27.65,7l-18.7,1.6q8.7-2.6,20.8-3.55,17.9-1.45,23.5-7.15,5.6-5.65,5.7-9.95,0.05-4.35-2.35-7.35-1.15-1.45-3-2.25-1.95-0.95-4.75-1.2l-0.1-0.35-0.15-0.95v-0.05l0.5-5.55,0.15-0.8m-13.9,18.7l-0.1,0.3-0.05,0.1,0.35,0.2q1.1,1.15-1.25,2.25-3,1.45-8.5,1.35l-3.45-0.25,0.1-0.15q0.95-1.05,8.05-3.5l3.75,0.25,0.8-0.35,0.2-0.1,0.05-0.05,0.05-0.05m-51.25,3.65l3.55-2.8q1.35-0.7,4.6-0.65,1.2,0.1,1.95,0.6h-0.05q-1.75,1.4-3,1.7l-5.95,0.3-1.1,0.85m-25.85-15.4l-0.2-0.1-0.2-0.15,0.2,0.15,0.2,0.1m26.5-17.3l0.2,0.55,0.05,0.2,0.05,1.05-0.05,0.1v0.1,0.1l-0.35,1.55-0.15,0.35-0.65,1.3-1.7,2.2-0.45,0.3q-0.7,0.45-1.2,0.4l-0.15-0.05h-0.1-0.05q-0.25-0.55-0.25-1.4l0.05-0.45v-0.15q0.05-1.15,0.6-2.35l0.4-0.95q1.05-1.75,2.2-2.55l0.9-0.35h0.35l0.3,0.05" fill="#ffaeff"/>
  <path id="path4603" stroke="none" fill-rule="evenodd" d="M8.6-3.4l0.05-0.05h0.05q4.75-2.2,10.65-6.95,2.9-2.3,5.4-3.35,1.65-0.7,3-0.65l1.75,0.1,0.05,0.05v0.1l0.1,0.3q0.35,1.5,1.4,1.95l0.95,0.2,1.65-0.25,1.3-0.3,0.2-0.05,0.9,0.55,0.1,0.05,1.2,0.1h0.05l1.35-0.15,3-0.3,3.15-0.5,2.2-0.6,0.7-0.25,1-0.5q1.75-0.8,8.55-4.35,5.6-2.95,9.25-4.55,11.25-4.75,18.7-2.95,7.75,1.9,12.65,10.9-0.8-0.9-0.35,2.3,0.55,4.3-0.15,8.45-0.75,4.15-4.8,7-4.05,2.75-8.25,3.6l-9.2,0.65q-4.25-0.2-8.15-2.8-3.05-2.05-3.6-3.45v-0.05l-0.05-0.05q-0.4-1.35-0.25-2.5-0.15,1.15,0.25,2.5-0.75-1.7-0.4-2.3l0.15-0.2,0.3-1.1v-0.2l-0.35-0.4h-0.45l-2.75,0.05-0.05,0.3-0.2,0.6-0.95,3.15-1.05,1.65-0.4,0.3q-1,0.75-1.55,1.8l-0.05,0.05-0.15,0.3-0.4-0.05-4.15,2.55h-0.05q-1.4,0.45-2.45,1.1-1.05,0.6-2.85,0.55l-0.85-0.25,0.45,0.65-0.05,0.05q-0.75-0.5-1.95-0.6l0.3-0.75,1.15,0.6q-0.4-0.45,0.1-1.4l1.2-2.3q0.3-0.6,0.2-1l-2.35-2.95q-2.1-2.45-4.4-2.45-1.2,0-1.3-0.7l-0.05-0.25q0-0.7,0.75-1.9,0.1-0.7-0.6-3l-0.55-1.75-0.35-0.8-0.6-1.05-0.2-0.2q-0.45-0.45,0,0.55,0.65,1.65,0.65,3.4,0.05,2.75-1.95,4.3-3.35,2.45-7.2,2.9-4.1,0.45-10.45,0.1l-2.5-0.1-0.55-0.05-0.2-0.3-1.25-0.2-1.55-0.4-0.2-0.05-0.85-0.25-0.5-0.05-0.2,0.45,0.25-0.65,0.05-0.4v-0.05-0.1-0.1-0.15l-0.05-0.2v-0.1l-0.85-0.7,0.05,0.05-0.1-0.05-0.2-0.15h-0.1l-0.1-0.05,0.1,0.05h-0.05-0.15m91.45-7.15l0.1,0.25v0.1l0.05,0.1-0.15,0.8v-1-0.2l0.1,0.2-0.1-0.2v-0.05m-69.5,12.3l-10.45-0.45h0.1l8.85,0.45h1.5m-19.3-3.7l0.25,1.05-0.25-1.05m1.25,0.25l0.55,1.2-0.55-1.2m1.2-0.15l1.35,1.9-1.35-1.9m12.85-6.1l0.2-0.7-0.05-0.2-0.5-0.85-0.75-0.35-0.65-0.15h-0.05l-0.15,0.05-0.55,0.1-0.7,0.3-0.1,0.1,0.15-0.15,0.75-0.35,0.55-0.1h0.2l0.65,0.1,0.7,0.35,0.55,0.85,0.05,0.25q-0.05,0.45-0.3,0.75,0.25-0.3,0.3-0.75l-0.05-0.25-0.55-0.85-0.7-0.35-0.65-0.1h-0.2l-0.55,0.1-0.75,0.35-0.15,0.15-0.1,0.1h-0.05l-0.4,0.65v0.05,0.15q-0.05,0.65,0.55,1.1l1.1,0.5h0.25,0.1,0.25,0.05q0.65-0.05,1.15-0.45l0.25-0.25,0.15-0.15m9.6-3.75l0.55,0.8-0.55-0.8m1.95,9.55l0.7-2.15,0.05-1.6q-0.2-1.3-1.2-3.15,1,1.85,1.2,3.15l-0.05,1.6-0.7,2.15m9-11l-4.1,1.1-5.6,0.45,5.6-0.45,4.1-1.1m32.45,0.5q-12.6,4-15.45,8.4l-0.65,1.25,0.65-1.25q2.85-4.4,15.45-8.4m20,8.95l0.15,0.95,0.1,0.35-0.4-0.6,0.15-0.7m-39.9,1.25q-0.85,2.95-2,4.8,1.15-1.85,2-4.8m-3.95,6.9l-0.6,0.3,0.6-0.3m-40.55-4.35h0.1q1.35,0.1,1.85,0.5l-1.35-0.25-0.55-0.15-0.6-0.15,0.55,0.05,0.05,0.1-0.05-0.1" fill="#727272"/>
  <path id="path4605" stroke="none" fill-rule="evenodd" d="M103.7-8.25l-0.2-0.2,2.05,1.25,0.05,0.05,0.95,1-2.85-2.1,1.9,1.1-1.9-1.1m10.5,10.1q0.7,2,0.65,4.05-0.3,9.05-7.25,15.25-7,6.25-27.65,7.1-20.6,0.85-27.6,3.7,3.35-1.65,7.55-2.9l18.7-1.6q20.6-0.85,27.65-7,6.9-6.15,7.05-14.25,0.05-4.25-2.75-8.1l3.65,3.75m-27.7,7.35l-0.05-0.05,1.15,0.8,0.2,0.2q0.8,1.1-1.4,2.05-3.05,1.45-8.5,1.4l-4.5-0.6q-0.2-0.2-0.1-0.45l3.45,0.25q5.5,0.1,8.5-1.35,2.35-1.1,1.25-2.25l1.1,0.75-1.1-0.75m-40.65,1.05q-1.8,1.5-3.1,1.8l-7.7,0.2,1.1-0.85,5.95-0.3q1.25-0.3,3-1.7l0.3,0.3h0.1l0.05,0.1,0.3,0.45m-36.65-13.45l-0.05-0.05,0.85,0.7v0.1l0.05,0.2v0.15,0.1,0.1,0.05l-0.05,0.15-0.25,0.65-0.35,0.3q-0.75,0.75-1.85,0.9l-2-0.1-0.75-0.6,1.95,0.15q1.1-0.2,1.9-0.9l0.35-0.4,0.25-0.6,0.05-0.5-0.1-0.35,0.8,0.7-0.8-0.7v-0.05m21.95-9.1l-0.05-0.05-0.25-0.2q-0.65-0.5-0.6-1.75v-0.4-0.15q0.15-1.15,0.65-2.4l0.45-0.95q0.95-1.7,2.15-2.5l0.85-0.35h0.05l0.3-0.05,0.7,0.35,0.3,0.3-0.3-0.05h-0.35l-0.9,0.35q-1.15,0.8-2.2,2.55l-0.4,0.95q-0.55,1.2-0.6,2.35v0.15l-0.05,0.45q0,0.85,0.25,1.4" fill="#e3999e"/>
  <path id="path4607" stroke="none" fill-rule="evenodd" d="M33.65-11.95h-0.05l0.2-0.05,0.2-0.1,0.15-0.1,0.1-0.1,0.35-0.25,0.05-0.05,0.5,0.3-0.2,0.05-1.3,0.3m64.3-2.9l0.9,1.2q0.9,1.6,1.2,3.1v0.05l-2.1-4.35,2.1,4.35v0.2,1l-0.5,5.55v0.05l-0.15,0.7,0.4,0.6-0.15,0.85-0.2,0.55-0.85,1.6q-0.9,1.65-2.65,2.95-1.35,1-3.9,2.3l-3.65,1.75-0.55,0.25-1.55,0.75-0.05,0.05-0.05,0.05-0.2,0.1-0.8,0.35-3.75-0.25-3.75,0.15-5.7-0.5q-3.45-0.75-5.25-2.4l-11.25-1.35,0.15-0.3,0.05-0.05q0.55-1.05,1.55-1.8l0.4-0.3,1.05-1.65,0.95-3.15,0.2-0.6,0.05-0.3,2.75-0.05h0.45l0.35,0.4v0.2l-0.3,1.1,0.3-1.3-0.3,1.3-0.15,0.2q-0.35,0.6,0.4,2.3l0.05,0.05v0.05q0.55,1.4,3.6,3.45,3.9,2.6,8.15,2.8l9.2-0.65q4.2-0.85,8.25-3.6,4.05-2.85,4.8-7,0.7-4.15,0.15-8.45-0.45-3.2,0.35-2.3m-47,22.15l-5.1,2.95-0.3-0.45-0.05-0.1h-0.1l-0.3-0.3h0.05l0.25,0.3-0.25-0.3,0.05-0.05-0.45-0.65,0.85,0.25q1.8,0.05,2.85-0.55,1.05-0.65,2.45-1.1h0.05m-7.45,0.75l0.2-0.65-0.45-3.7q-0.75-1.5-6.1-4.2-1.75,2.1-6.6,2.25,4.35-0.45,6.6-2.25l0.95-1.65q0.1,0.7,1.3,0.7,2.3,0,4.4,2.45l2.35,2.95q0.1,0.4-0.2,1l-1.2,2.3q-0.5,0.95-0.1,1.4l-1.15-0.6m-23.4-6.75l-0.35-0.05-0.4-0.05-2.05-0.3h-0.1l-0.9-0.2-0.95-0.2-0.15-0.3,0.15,0.3-1.05-0.2-0.55-0.15-0.35-0.05h-0.05l-0.85-0.15-0.4-0.1-0.4-0.1h-0.1l-0.25-0.05h-0.1l-0.2-0.1-1.25-0.3-0.05-0.05v-0.05l0.2-0.45,0.5,0.05,0.85,0.25,0.2,0.05,0.1,0.65-0.1-0.65,1.55,0.4,0.3,0.6-0.3-0.6,1.25,0.2,0.2,0.3,0.55,0.05,2.5,0.1q6.35,0.35,10.45-0.1,3.85-0.45,7.2-2.9,2-1.55,1.95-4.3,0-1.75-0.65-3.4-0.45-1,0-0.55l0.2,0.2,0.6,1.05,0.35,0.8,0.55,1.75q0.7,2.3,0.6,3-0.75,1.2-0.75,1.9l0.05,0.25-0.95,1.65q-2.25,1.8-6.6,2.25h-1.5l-8.85-0.45h-0.1m16.6-12.2l0.95,1.85-0.95-1.85m62.85,7.15q-0.25-2.2,0.5-5.55-0.75,3.35-0.5,5.55m-32.8,9.9q-2.55-2.85-3.3-5.25,0.75,2.4,3.3,5.25m32.7-7.15q-0.85,2.1-3.5,4.15-2.7,2.05-8.1,4.7,5.4-2.65,8.1-4.7,2.65-2.05,3.5-4.15m-43.75,5.45q1.05-0.75,1.95-2.1-0.9,1.35-1.95,2.1m-12.45-0.75q0.95,1.5,0.45,3.7,0.5-2.2-0.45-3.7m-28.05-3.5l0.55,0.15,1.35,0.25q-0.5-0.4-1.85-0.5h-0.1l-0.55-0.05,0.6,0.15m-0.15-0.15l0.1,0.05-0.1-0.05" fill="#575757"/>
  <path id="path4609" stroke="none" fill-rule="evenodd" d="M29.55-14.3v-0.05q-0.2-1.85,0.7-3.95t2.45-3.35q1.55-1.1,2.85-0.55,1.25,0.55,1.5,2.45,0.25,1.95-0.7,4-0.95,2.2-2.45,3.3-1,0.7-1.9,0.75l-0.95-0.2q-1.05-0.45-1.4-1.95l-0.1-0.3v-0.1-0.05m1.6,2h0.05,0.1l0.15,0.05q0.5,0.05,1.2-0.4l0.45-0.3,1.7-2.2,0.65-1.3,0.15-0.35,0.35-1.55v-0.1-0.1l0.05-0.1-0.05-1.05-0.05-0.2-0.2-0.55-0.3-0.3-0.7-0.35-0.3,0.05h-0.05l-0.85,0.35q-1.2,0.8-2.15,2.5l-0.45,0.95q-0.5,1.25-0.65,2.4v0.15,0.4q-0.05,1.25,0.6,1.75l0.25,0.2,0.05,0.05" fill="#666666"/>
  <path id="path4611" stroke="none" fill-rule="evenodd" d="M24.75-10.2h0.05l0.65,0.15,0.75,0.35,0.5,0.85,0.05,0.2-0.2,0.7-0.15,0.15-0.25,0.25q-0.5,0.4-1.15,0.45l0.4-0.1,0.4-0.35q0.45-0.45,0.5-1.1l-0.05-0.2-0.45-0.85-0.5-0.35-0.55-0.15m-1.5,0.55l0.1-0.1,0.7-0.3,0.55-0.1-0.4,0.1-0.55,0.3-0.45,0.85v0.05,0.15q-0.05,0.65,0.4,1.1l0.4,0.35-0.65-0.4q-0.6-0.5-0.6-1.05l0.05-0.25v-0.05l0.3-0.55-0.3,0.55v0.05l-0.05,0.25q0,0.55,0.6,1.05l0.65,0.4h0.05l0.3,0.15-1.1-0.5q-0.6-0.45-0.55-1.1v-0.15-0.05l0.4-0.65h0.05l0.1-0.1m3.15,1.85l-0.2,0.2-0.8,0.4,0.8-0.4,0.2-0.2" fill="#333333"/>
  <path id="path4613" stroke="none" fill-rule="evenodd" d="M24.6-10.15l0.15-0.05,0.55,0.15,0.5,0.35,0.45,0.85,0.05,0.2q-0.05,0.65-0.5,1.1l-0.4,0.35-0.4,0.1h-0.05-0.25-0.1-0.25l-0.3-0.15h-0.05l-0.4-0.35q-0.45-0.45-0.4-1.1v-0.15-0.05l0.45-0.85,0.55-0.3,0.4-0.1m0.8,1.5v0.15l-0.05,0.15-0.15,0.4,0.15-0.15,0.3-0.6v-0.15l-0.05-0.2-0.2-0.25-0.25-0.2-0.3-0.05-0.35,0.05-0.25,0.2-0.1,0.1,0.1-0.05,0.3-0.05h0.35l0.25,0.25,0.25,0.4" fill="#000000"/>
  <path id="path4615" stroke="none" fill-rule="evenodd" d="M25.4-8.65l-0.25-0.4-0.25-0.25h-0.35l-0.3,0.05-0.1,0.05,0.1-0.1,0.25-0.2,0.35-0.05,0.3,0.05,0.25,0.2,0.2,0.25,0.05,0.2v0.15l-0.3,0.6-0.15,0.15,0.15-0.4,0.05-0.15v-0.15" fill="#ffffff"/>
  <path id="path4617" stroke-linejoin="round" d="M4.8-0.55q-0.15-0.2-0.15-0.45-0.05-0.8,0.65-1.55,0.75-0.6,1.9-0.85h1.4l0.05-0.05h0.05q4.75-2.2,10.65-6.95,2.9-2.3,5.4-3.35,1.65-0.7,3-0.65l1.75,0.1h0.05v-0.05q-0.2-1.85,0.7-3.95t2.45-3.35q1.55-1.1,2.85-0.55,1.25,0.55,1.5,2.45,0.25,1.95-0.7,4-0.95,2.2-2.45,3.3-1,0.7-1.9,0.75l-0.95-0.2q-1.05-0.45-1.4-1.95l-0.1-0.3v-0.1-0.05m5.1,1.7l0.5,0.3,0.9,0.55,0.1,0.05,1.2,0.1h0.05l5.6-0.45,4.1-1.1,0.7-0.25,1-0.5q1.75-0.8,8.55-4.35,5.6-2.95,9.25-4.55,11.25-4.75,18.7-2.95,7.75,1.9,12.65,10.9l2.1,4.35m0.1,0.2v0.1l0.05,0.1,3.5,1.85m1.9,1.1q6.7,4.2,8.6,9,0.7,2,0.65,4.05-0.3,9.05-7.25,15.25-7,6.25-27.65,7.1-20.6,0.85-27.6,3.7,3.35-1.65,7.55-2.9,8.7-2.6,20.8-3.55,17.9-1.45,23.5-7.15,5.6-5.65,5.7-9.95,0.05-4.35-2.35-7.35-1.15-1.45-3-2.25-1.95-0.95-4.75-1.2l-0.15,0.85-0.2,0.55m-11.6,8.85l-1.55,0.75-0.05,0.05-0.05,0.05-0.2,0.1-0.8,0.35-3.75-0.25-3.75,0.15-5.7-0.5q-3.45-0.75-5.25-2.4l-11.25-1.35-0.4-0.05-4.15,2.55-5.1,2.95q-1.8,1.5-3.1,1.8l-7.7,0.2,3.55-2.8q1.35-0.7,4.6-0.65l0.3-0.75,0.2-0.65q0.5-2.2-0.45-3.7-0.75-1.5-6.1-4.2l0.95-1.65m48.05,11.15l0.35,0.2m1.1,0.75l0.2,0.2q0.8,1.1-1.4,2.05-3.05,1.45-8.5,1.4-3.8-0.05-4.5-0.6-0.2-0.2-0.1-0.45l0.1-0.15q0.95-1.05,8.05-3.5m-50.9-7.15l-10.45-0.45-0.35-0.05-0.4-0.05m-2.15-0.3l-0.9-0.2-0.95-0.2,2.2,3.3m-8.85-7.25l0.1,0.05,0.2,0.15,0.2,0.1m0.8,0.7l0.05,0.2v0.15,0.1,0.1,0.05m1.45,0.95l-0.25-1.05m-6.45,1.4l0.75,0.6,2,0.1q1.1-0.15,1.85-0.9l0.35-0.3,0.25-0.65,0.05-0.15m-0.25,1.15l1.25,0.3,0.2,0.1h0.1l0.25,0.05-0.1-0.65m1.55,0.4l-0.55-1.2m-2.5-0.75l-0.8-0.7m2.4,2.9h0.1l0.4,0.1,0.4,0.1,0.85,0.15-0.3-0.6m2,0.55l-1.35-1.9m-2.8-3.45l-0.45-0.9m0.1,1.3l-1.55-1.65m1.25,2l-2.35-1.05m27.8-14.85l0.2,0.55,0.05,0.2,0.05,1.05-0.05,0.1v0.1,0.1l-0.35,1.55-0.15,0.35-0.65,1.3-1.7,2.2-0.45,0.3q-0.7,0.45-1.2,0.4l-0.15-0.05h-0.1-0.05m-0.05-0.05l-0.25-0.2q-0.65-0.5-0.6-1.75v-0.4-0.15q0.15-1.15,0.65-2.4l0.45-0.95q0.95-1.7,2.15-2.5l0.85-0.35h0.05l0.3-0.05,0.7,0.35,0.3,0.3m-9.15,12.5q0.25-0.3,0.3-0.75l-0.05-0.25-0.55-0.85-0.7-0.35-0.65-0.1h-0.2l-0.55,0.1-0.75,0.35-0.15,0.15m2.15,2.45l0.8-0.4,0.2-0.2,0.15-0.15m-3.45-1.6h0.05l0.1-0.1m-0.15,0.1l-0.3,0.55v0.05l-0.05,0.25q0,0.55,0.6,1.05l0.65,0.4h0.05m12.65-3.65l-0.55-0.8m1.5,2.65q1,1.85,1.2,3.15l-0.05,1.6-0.7,2.15m-0.45-6.9l-0.95-1.85m-6.15,12.65q4.35-0.45,6.6-2.25m22.5-1.95l0.2-0.6,0.05-0.3m3.55,0.35l0.65-1.25q2.85-4.4,15.45-8.4m-16.1,9.65l-0.3,1.3q-0.15,1.15,0.25,2.5l0.05,0.05v0.05q0.75,2.4,3.3,5.25m33.45-16.25l-0.15,0.8q-0.75,3.35-0.5,5.55v0.05l0.15,0.95,0.1,0.35m0.35-7.9l-0.1-0.2m5.55,3.35l-1.9-1.1m-16.1,18.2l-1.1-0.75m1.35-1.35q5.4-2.65,8.1-4.7,2.65-2.05,3.5-4.15m-41.8,3.35q-0.9,1.35-1.95,2.1m1.95-2.1q1.15-1.85,2-4.8m-4.55,7.2l0.6-0.3m-9.85,5.8l-0.3-0.45-0.05-0.1h-0.1l-0.25-0.3q-0.75-0.5-1.95-0.6m-28-8.6l0.15,0.3-1.05-0.2-0.55-0.15-0.35-0.05h-0.05l1.95,4.6,0.65,1.4m-0.8-6l-0.1-0.05m0.15,0.15l-0.05-0.1m-3.55-0.35l0.9,4.75" stroke="#333333" stroke-linecap="round" stroke-width="1.5" fill="none"/>
 </g>
</svg>
