<?xml version="1.0" encoding="utf-8"?>
<!-- Generator: Adobe Illustrator 16.0.0, SVG Export Plug-In . SVG Version: 6.00 Build 0)  -->
<!DOCTYPE svg PUBLIC "-//W3C//DTD SVG 1.1//EN" "http://www.w3.org/Graphics/SVG/1.1/DTD/svg11.dtd">
<svg version="1.1" id="Layer_1" xmlns="http://www.w3.org/2000/svg" xmlns:xlink="http://www.w3.org/1999/xlink" x="0px" y="0px"
	 width="285px" height="427px" viewBox="0 0 285 427" enable-background="new 0 0 285 427" xml:space="preserve">
<g transform="matrix( 1, 0, 0, 1, 0,0) ">
	<g>
		<g id="Layer0_0_FILL">
			
				<radialGradient id="SVGID_1_" cx="-44.1709" cy="407.1074" r="40.7235" gradientTransform="matrix(1 0 0 -1 151.5898 500.8906)" gradientUnits="userSpaceOnUse">
				<stop  offset="0" style="stop-color:#FFFF00"/>
				<stop  offset="1" style="stop-color:#C1C002"/>
			</radialGradient>
			<path fill="url(#SVGID_1_)" d="M95.409,57.049l-14.518,7.742l31.059,50.943l8.975,14.782l13.021-5.895l-2.991-5.279
				L96.376,58.809L95.409,57.049z"/>
			
				<radialGradient id="SVGID_2_" cx="-29.0146" cy="340.2969" r="135.321" gradientTransform="matrix(1 0 0 -1 171.54 588.8906)" gradientUnits="userSpaceOnUse">
				<stop  offset="0.851" style="stop-color:#C1C002"/>
				<stop  offset="0.9255" style="stop-color:#F2F201"/>
				<stop  offset="1" style="stop-color:#FFFF00"/>
			</radialGradient>
			<path fill="url(#SVGID_2_)" d="M238.736,152.248c-17.773-17.714-37.979-29.504-60.621-35.369l-10.823,16.629l-13.373-7.215
				l4.664-6.95h-27.628l2.991,5.279l-13.021,5.895l-8.975-14.782c-24.753,5.338-46.69,17.509-65.813,36.514
				c-26.513,26.689-39.769,58.804-39.769,96.344c0,37.598,13.256,69.685,39.769,96.256c26.688,26.631,58.803,39.945,96.344,39.945
				c37.6,0,69.683-13.314,96.255-39.945c26.631-26.571,39.946-58.658,39.946-96.256
				C278.683,211.052,265.367,178.938,238.736,152.248 M61.183,167.47c22.583-22.407,49.682-33.61,81.298-33.61
				c31.733,0,58.833,11.204,81.298,33.61c22.466,22.407,33.697,49.447,33.697,81.122c0,31.734-11.231,58.804-33.697,81.211
				c-22.466,22.523-49.565,33.786-81.298,33.786c-31.616,0-58.715-11.263-81.298-33.786c-22.29-22.407-33.435-49.477-33.435-81.211
				C27.748,216.917,38.893,189.877,61.183,167.47z"/>
			
				<radialGradient id="SVGID_3_" cx="-325.7432" cy="278.4385" r="42.4293" gradientTransform="matrix(0 -1 -1.7429 0 632.1599 -262.3604)" gradientUnits="userSpaceOnUse">
				<stop  offset="0" style="stop-color:#FC3F3F"/>
				<stop  offset="1" style="stop-color:#701818"/>
			</radialGradient>
			<path fill="url(#SVGID_3_)" d="M193.247,67.871l2.992-6.775l-34.137-18.213l-32.116-0.176h-1.583L96.376,58.809l34.579,60.533
				h27.628L193.247,67.871z"/>
			
				<radialGradient id="SVGID_4_" cx="-11.6621" cy="406.207" r="42.7957" gradientTransform="matrix(1 0 0 -1 194.4399 502.1895)" gradientUnits="userSpaceOnUse">
				<stop  offset="0" style="stop-color:#FFFF00"/>
				<stop  offset="1" style="stop-color:#C1C002"/>
			</radialGradient>
			<path fill="url(#SVGID_4_)" d="M211.901,64.616l-12.405-6.159l-1.672,2.552l-4.577,6.863l-34.664,51.471l-4.664,6.95
				l13.373,7.215l10.823-16.629L211.901,64.616z"/>
		</g>
	</g>
	<g>
		<path id="Layer0_0_1_STROKES" fill="none" stroke="#4F3222" stroke-width="2" stroke-linecap="round" stroke-linejoin="round" d="
			M197.824,61.008l1.672-2.552l12.405,6.159l-33.786,52.263c22.642,5.865,42.848,17.655,60.621,35.369
			c26.631,26.689,39.946,58.804,39.946,96.344c0,37.598-13.315,69.685-39.946,96.256c-26.572,26.631-58.655,39.945-96.255,39.945
			c-37.541,0-69.655-13.314-96.344-39.945c-26.513-26.571-39.769-58.658-39.769-96.256c0-37.54,13.256-69.654,39.769-96.344
			c19.123-19.004,41.06-31.175,65.813-36.514L80.892,64.792l14.518-7.742l0.967,1.76 M197.824,61.008l-4.577,6.863l-34.664,51.471
			l-4.664,6.95l13.373,7.215l10.823-16.629 M130.955,119.342l2.991,5.279l-13.021,5.895l-8.975-14.782 M257.477,248.592
			c0,31.734-11.231,58.804-33.697,81.211c-22.466,22.523-49.565,33.786-81.298,33.786c-31.616,0-58.715-11.263-81.298-33.786
			c-22.29-22.407-33.435-49.477-33.435-81.211c0-31.675,11.145-58.714,33.435-81.122c22.583-22.407,49.682-33.61,81.298-33.61
			c31.733,0,58.833,11.204,81.298,33.61C246.245,189.877,257.477,216.917,257.477,248.592z M96.376,58.809l34.579,60.533"/>
	</g>
	<g>
		<path id="Layer0_0_2_STROKES" fill="none" stroke="#6F0000" stroke-width="2" stroke-linecap="round" stroke-linejoin="round" d="
			M129.987,42.707l32.116,0.176h1.67l34.052,18.125 M130.955,119.342h27.628"/>
	</g>
</g>
</svg>
