<svg xmlns="http://www.w3.org/2000/svg" width="285" height="427" viewBox="0 0 285 427"><g><radialGradient id="a" cx="-44.171" cy="407.107" r="40.724" gradientTransform="matrix(1 0 0 -1 151.59 500.89)" gradientUnits="userSpaceOnUse"><stop offset="0" stop-color="#ff0"/><stop offset="1" stop-color="#c1c002"/></radialGradient><path fill="url(#a)" d="M95.409 57.049l-14.518 7.742 31.059 50.943 8.975 14.782 13.021-5.895-2.991-5.279-34.579-60.533-.967-1.76z"/><radialGradient id="b" cx="-29.015" cy="340.297" r="135.321" gradientTransform="matrix(1 0 0 -1 171.54 588.89)" gradientUnits="userSpaceOnUse"><stop offset=".851" stop-color="#c1c002"/><stop offset=".925" stop-color="#f2f201"/><stop offset="1" stop-color="#ff0"/></radialGradient><path fill="url(#b)" d="M238.736 152.248c-17.773-17.714-37.979-29.504-60.621-35.369l-10.823 16.629-13.373-7.215 4.664-6.95h-27.628l2.991 5.279-13.021 5.895-8.975-14.782c-24.753 5.338-46.69 17.509-65.813 36.514-26.513 26.689-39.769 58.804-39.769 96.344 0 37.598 13.256 69.685 39.769 96.256 26.688 26.631 58.803 39.945 96.344 39.945 37.6 0 69.683-13.314 96.255-39.945 26.631-26.571 39.946-58.658 39.946-96.256.001-37.541-13.315-69.655-39.946-96.345M61.183 167.47c22.583-22.407 49.682-33.61 81.298-33.61 31.733 0 58.833 11.204 81.298 33.61 22.466 22.407 33.697 49.447 33.697 81.122 0 31.734-11.231 58.804-33.697 81.211-22.466 22.523-49.565 33.786-81.298 33.786-31.616 0-58.715-11.263-81.298-33.786-22.29-22.407-33.435-49.477-33.435-81.211 0-31.675 11.145-58.715 33.435-81.122z"/><radialGradient id="c" cx="-325.743" cy="278.438" r="42.429" gradientTransform="matrix(0 -1 -1.7429 0 632.16 -262.36)" gradientUnits="userSpaceOnUse"><stop offset="0" stop-color="#fc3f3f"/><stop offset="1" stop-color="#701818"/></radialGradient><path fill="url(#c)" d="M193.247 67.871l2.992-6.775-34.137-18.213-32.116-.176h-1.583L96.376 58.809l34.579 60.533h27.628l34.664-51.471z"/><radialGradient id="d" cx="-11.662" cy="406.207" r="42.796" gradientTransform="matrix(1 0 0 -1 194.44 502.19)" gradientUnits="userSpaceOnUse"><stop offset="0" stop-color="#ff0"/><stop offset="1" stop-color="#c1c002"/></radialGradient><path fill="url(#d)" d="M211.901 64.616l-12.405-6.159-1.672 2.552-4.577 6.863-34.664 51.471-4.664 6.95 13.373 7.215 10.823-16.629 33.786-52.263z"/></g><path fill="none" stroke="#4F3222" stroke-width="2" stroke-linecap="round" stroke-linejoin="round" d="M197.824 61.008l1.672-2.552 12.405 6.159-33.786 52.263c22.642 5.865 42.848 17.655 60.621 35.369 26.631 26.689 39.946 58.804 39.946 96.344 0 37.598-13.315 69.685-39.946 96.256-26.572 26.631-58.655 39.945-96.255 39.945-37.541 0-69.655-13.314-96.344-39.945-26.513-26.571-39.769-58.658-39.769-96.256 0-37.54 13.256-69.654 39.769-96.344 19.123-19.004 41.06-31.175 65.813-36.514L80.892 64.792 95.41 57.05l.967 1.76m101.447 2.198l-4.577 6.863-34.664 51.471-4.664 6.95 13.373 7.215 10.823-16.629m-47.16 2.464l2.991 5.279-13.021 5.895-8.975-14.782m145.527 132.858c0 31.734-11.231 58.804-33.697 81.211-22.466 22.523-49.565 33.786-81.298 33.786-31.616 0-58.715-11.263-81.298-33.786-22.29-22.407-33.435-49.477-33.435-81.211 0-31.675 11.145-58.714 33.435-81.122 22.583-22.407 49.682-33.61 81.298-33.61 31.733 0 58.833 11.204 81.298 33.61 22.465 22.407 33.697 49.447 33.697 81.122zM96.376 58.809l34.579 60.533"/><path fill="none" stroke="#6F0000" stroke-width="2" stroke-linecap="round" stroke-linejoin="round" d="M129.987 42.707l32.116.176h1.67l34.052 18.125m-66.87 58.334h27.628"/></svg>