
<svg xmlns="http://www.w3.org/2000/svg" version="1.1" xmlns:xlink="http://www.w3.org/1999/xlink" preserveAspectRatio="none" x="0px" y="0px" width="285px" height="427px" viewBox="0 0 285 427">
<defs>
<g id="Layer0_0_FILL">
<path fill="#333333" stroke="none" d="
M 185.2 210.65
Q 186.5 208.7 187.95 206.75
L 182.4 206.75
Q 180.85 208.7 179.45 210.65
L 185.2 210.65
M 1.65 311.85
Q 1 312.55 0.4 313.25
L 76.75 311.85 1.65 311.85
M 138.65 276.8
Q 135.9 281.85 134.3 284.4
L 143.6 285.55
Q 145.35 281.85 147.8 276.8
L 138.65 276.8
M 161.4 237.75
Q 159.9 240.05 158.4 242.45
L 165.55 242.45
Q 166.9 240.05 168.35 237.75
L 161.4 237.75
M 259.1 114.35
L 260.35 114.35 260.35 114.3 259.1 114.35
M 214.2 171.3
L 209.45 171.3
Q 208.05 172.8 206.8 174.55
L 211.55 174.55
Q 212.85 172.8 214.2 171.3
M 194.25 190.55
L 199.4 190.55
Q 200.8 188.55 202.35 186.55
L 197.25 186.55
Q 195.7 188.55 194.25 190.55
M 242.05 138.85
L 242.65 138.85 242.05 138.85
Q 240 141.2 237.9 143.5 235.55 146.1 233.3 148.7 230.3 152 227.25 155.5 224.4 158.85 221.7 162.15 217.95 166.65 214.2 171.3 212.85 172.8 211.55 174.55 206.85 180.55 202.35 186.55 200.8 188.55 199.4 190.55 193.5 198.5 187.95 206.75 186.5 208.7 185.2 210.65 176.25 224 168.35 237.75 166.9 240.05 165.55 242.45 155.85 259.3 147.8 276.8 145.35 281.85 143.6 285.55 141.9 289.75 138.8 298.95 135.65 308.2 134.35 311.85
L 266.85 311.85 267.7 311.85
Q 249.8 261.15 254.85 207.8 258.95 163.9 284.65 114.3
L 265.25 114.3 263.35 114.6
Q 260.95 117.45 258.55 120.2 257.6 121.4 256.7 122.35 254.4 125 252.15 127.55 250.8 128.9 249.5 130.5
L 250.6 130.5 249.5 130.5
Q 248.45 131.7 247.3 132.9 247.25 133.15 247.1 133.15 245.9 134.6 244.7 136
L 245.3 136 244.7 136
Q 243.35 137.5 242.05 138.85
M 228.95 148.25
Q 231.05 145.85 233.1 143.45 234.5 141.9 235.9 140.4 247.7 127.35 260.35 114.35
L 259.1 114.35 240.1 114.4 239.2 114.4
Q 198.35 136.8 176.25 152.7 154.2 168.45 141.1 178.85 128 189.25 113.05 200.9 97.95 212.45 67.8 241.3 38.25 269.75 1.65 311.85
L 76.75 311.85 86.9 311.8 117.35 311.2
Q 123.95 301.9 127.15 296.25 130.3 290.45 134.3 284.4 135.9 281.85 138.65 276.8 147.8 259.5 158.4 242.45 159.9 240.05 161.4 237.75 169.95 224.05 179.45 210.65 180.85 208.7 182.4 206.75 188.05 198.6 194.25 190.55 195.7 188.55 197.25 186.55 201.85 180.55 206.8 174.55 208.05 172.8 209.45 171.3 213.2 166.65 217 162.15 219.8 158.85 222.55 155.5 225.65 151.95 228.95 148.25 Z"/>
</g>

<path id="Layer0_0_1_STROKES" stroke="#333333" stroke-width="1" stroke-linejoin="round" stroke-linecap="round" fill="none" d="
M 242.65 138.85
L 242.05 138.85 238.2 138.85
M 249.5 130.5
L 250.6 130.5
M 258.55 120.2
L 256.45 120.15
M 256.7 122.35
L 253.7 122.15
M 252.15 127.55
L 248.35 127.4
M 247.3 132.9
Q 247.25 133.15 247.1 133.15
M 244.7 136
L 245.3 136
M 247.1 133.15
L 243.9 133.15
M 246.2 130.5
L 249.5 130.5
M 251.05 125.1
L 253.7 125.1
M 240.95 136
L 244.7 136"/>

<path id="Layer0_0_2_STROKES" stroke="#333333" stroke-width="2" stroke-linejoin="round" stroke-linecap="round" fill="none" d="
M 233.1 143.45
Q 231.05 145.85 228.95 148.25
L 233.3 148.7
Q 235.55 146.1 237.9 143.5
L 233.1 143.45
Q 234.5 141.9 235.9 140.4 247.7 127.35 260.35 114.35
M 117.35 311.2
Q 123.95 301.9 127.15 296.25 130.3 290.45 134.3 284.4 135.9 281.85 138.65 276.8 147.8 259.5 158.4 242.45 159.9 240.05 161.4 237.75 169.95 224.05 179.45 210.65 180.85 208.7 182.4 206.75 188.05 198.6 194.25 190.55 195.7 188.55 197.25 186.55 201.85 180.55 206.8 174.55 208.05 172.8 209.45 171.3 213.2 166.65 217 162.15 219.8 158.85 222.55 155.5 225.65 151.95 228.95 148.25
M 237.9 143.5
Q 240 141.2 242.05 138.85
M 182.4 206.75
L 187.95 206.75
Q 193.5 198.5 199.4 190.55
L 194.25 190.55
M 197.25 186.55
L 202.35 186.55
Q 206.85 180.55 211.55 174.55
L 206.8 174.55
M 202.35 186.55
Q 200.8 188.55 199.4 190.55
M 233.3 148.7
Q 230.3 152 227.25 155.5 224.4 158.85 221.7 162.15 217.95 166.65 214.2 171.3 212.85 172.8 211.55 174.55
M 209.45 171.3
L 214.2 171.3
M 221.7 162.15
L 217 162.15
M 222.55 155.5
L 227.25 155.5
M 263.35 114.6
Q 260.95 117.45 258.55 120.2 257.6 121.4 256.7 122.35 254.4 125 252.15 127.55 250.8 128.9 249.5 130.5
M 260.35 114.3
L 260.35 114.35
M 244.7 136
Q 245.9 134.6 247.1 133.15
M 249.5 130.5
Q 248.45 131.7 247.3 132.9
M 242.05 138.85
Q 243.35 137.5 244.7 136
M 147.8 276.8
Q 145.35 281.85 143.6 285.55 141.9 289.75 138.8 298.95 135.65 308.2 134.35 311.85
M 143.6 285.55
L 134.3 284.4
M 147.8 276.8
L 138.65 276.8
M 185.2 210.65
Q 176.25 224 168.35 237.75 166.9 240.05 165.55 242.45 155.85 259.3 147.8 276.8
M 187.95 206.75
Q 186.5 208.7 185.2 210.65
L 179.45 210.65
M 161.4 237.75
L 168.35 237.75
M 158.4 242.45
L 165.55 242.45"/>

<path id="Layer0_0_3_STROKES" stroke="#000000" stroke-width="2" stroke-linejoin="round" stroke-linecap="round" fill="none" d="
M 260.35 114.35
L 259.1 114.35 240.1 114.4
M 239.2 114.4
Q 198.35 136.8 176.25 152.7 154.2 168.45 141.1 178.85 128 189.25 113.05 200.9 97.95 212.45 67.8 241.3 38.25 269.75 1.65 311.85
L 76.75 311.85 86.9 311.8
M 260.35 114.35
L 265.25 114.3 284.65 114.3
Q 258.95 163.9 254.85 207.8 249.8 261.15 267.7 311.85
M 266.85 311.85
L 134.35 311.85 131.95 311.85 121.5 311.85 86.9 311.8
M 0.4 313.25
Q 1 312.55 1.65 311.85"/>
</defs>

<g transform="matrix( 1, 0, 0, 1, 0,0) ">
<use xlink:href="#Layer0_0_FILL"/>

<use xlink:href="#Layer0_0_1_STROKES"/>

<use xlink:href="#Layer0_0_2_STROKES"/>

<use xlink:href="#Layer0_0_3_STROKES"/>
</g>
</svg>
