<svg xmlns="http://www.w3.org/2000/svg" xmlns:xlink="http://www.w3.org/1999/xlink" preserveAspectRatio="none" width="285" height="427" viewBox="0 0 285 427"><defs><path fill="#333" d="M185.2 210.65q1.3-1.95 2.75-3.9h-5.55q-1.55 1.95-2.95 3.9h5.75M1.65 311.85q-.65.7-1.25 1.4l76.35-1.4H1.65m137-35.05q-2.75 5.05-4.35 7.6l9.3 1.15q1.75-3.7 4.2-8.75h-9.15m22.75-39.05q-1.5 2.3-3 4.7h7.15q1.35-2.4 2.8-4.7h-6.95m97.7-123.4h1.25v-.05l-1.25.05m-44.9 56.95h-4.75q-1.4 1.5-2.65 3.25h4.75q1.3-1.75 2.65-3.25m-19.95 19.25h5.15q1.4-2 2.95-4h-5.1q-1.55 2-3 4m47.8-51.7h.6-.6q-2.05 2.35-4.15 4.65-2.35 2.6-4.6 5.2-3 3.3-6.05 6.8-2.85 3.35-5.55 6.65-3.75 4.5-7.5 9.15-1.35 1.5-2.65 3.25-4.7 6-9.2 12-1.55 2-2.95 4-5.9 7.95-11.45 16.2-1.45 1.95-2.75 3.9-8.95 13.35-16.85 27.1-1.45 2.3-2.8 4.7-9.7 16.85-17.75 34.35-2.45 5.05-4.2 8.75-1.7 4.2-4.8 13.4-3.15 9.25-4.45 12.9H267.7q-17.9-50.7-12.85-104.05 4.1-43.9 29.8-93.5h-19.4l-1.9.3q-2.4 2.85-4.8 5.6-.95 1.2-1.85 2.15-2.3 2.65-4.55 5.2-1.35 1.35-2.65 2.95h1.1-1.1q-1.05 1.2-2.2 2.4-.05.25-.2.25-1.2 1.45-2.4 2.85h.6-.6q-1.35 1.5-2.65 2.85m-13.1 9.4q2.1-2.4 4.15-4.8 1.4-1.55 2.8-3.05 11.8-13.05 24.45-26.05h-1.25l-19 .05h-.9q-40.85 22.4-62.95 38.3-22.05 15.75-35.15 26.15-13.1 10.4-28.05 22.05-15.1 11.55-45.25 40.4-29.55 28.45-66.15 70.55h75.1l10.15-.05 30.45-.6q6.6-9.3 9.8-14.95 3.15-5.8 7.15-11.85 1.6-2.55 4.35-7.6 9.15-17.3 19.75-34.35 1.5-2.4 3-4.7 8.55-13.7 18.05-27.1 1.4-1.95 2.95-3.9 5.65-8.15 11.85-16.2 1.45-2 3-4 4.6-6 9.55-12 1.25-1.75 2.65-3.25 3.75-4.65 7.55-9.15 2.8-3.3 5.55-6.65 3.1-3.55 6.4-7.25z" id="a"/><path id="b" stroke="#333" stroke-width="1" stroke-linejoin="round" stroke-linecap="round" fill="none" d="M242.65 138.85h-4.45m11.3-8.35h1.1m7.95-10.3l-2.1-.05m.25 2.2l-3-.2m-1.55 5.4l-3.8-.15m-1.05 5.5q-.05.25-.2.25m-2.4 2.85h.6m1.8-2.85h-3.2m2.3-2.65h3.3m1.55-5.4h2.65M240.95 136h3.75"/><path id="c" stroke="#333" stroke-width="2" stroke-linejoin="round" stroke-linecap="round" fill="none" d="M233.1 143.45q-2.05 2.4-4.15 4.8l4.35.45q2.25-2.6 4.6-5.2l-4.8-.05q1.4-1.55 2.8-3.05 11.8-13.05 24.45-26.05m-143 196.85q6.6-9.3 9.8-14.95 3.15-5.8 7.15-11.85 1.6-2.55 4.35-7.6 9.15-17.3 19.75-34.35 1.5-2.4 3-4.7 8.55-13.7 18.05-27.1 1.4-1.95 2.95-3.9 5.65-8.15 11.85-16.2 1.45-2 3-4 4.6-6 9.55-12 1.25-1.75 2.65-3.25 3.75-4.65 7.55-9.15 2.8-3.3 5.55-6.65 3.1-3.55 6.4-7.25m8.95-4.75q2.1-2.3 4.15-4.65m-59.65 67.9h5.55q5.55-8.25 11.45-16.2h-5.15m3-4h5.1q4.5-6 9.2-12h-4.75m-4.45 12q-1.55 2-2.95 4m33.9-41.85q-3 3.3-6.05 6.8-2.85 3.35-5.55 6.65-3.75 4.5-7.5 9.15-1.35 1.5-2.65 3.25m-2.1-3.25h4.75m7.5-9.15H217m5.55-6.65h4.7m36.1-40.9q-2.4 2.85-4.8 5.6-.95 1.2-1.85 2.15-2.3 2.65-4.55 5.2-1.35 1.35-2.65 2.95m10.85-16.2v.05M244.7 136q1.2-1.4 2.4-2.85m2.4-2.65q-1.05 1.2-2.2 2.4m-5.25 5.95q1.3-1.35 2.65-2.85m-96.9 140.8q-2.45 5.05-4.2 8.75-1.7 4.2-4.8 13.4-3.15 9.25-4.45 12.9m9.25-26.3l-9.3-1.15m13.5-7.6h-9.15m46.55-66.15q-8.95 13.35-16.85 27.1-1.45 2.3-2.8 4.7-9.7 16.85-17.75 34.35m40.15-70.05q-1.45 1.95-2.75 3.9h-5.75m-18.05 27.1h6.95m-9.95 4.7h7.15"/><path id="d" stroke="#000" stroke-width="2" stroke-linejoin="round" stroke-linecap="round" fill="none" d="M260.35 114.35h-1.25l-19 .05m-.9 0q-40.85 22.4-62.95 38.3-22.05 15.75-35.15 26.15-13.1 10.4-28.05 22.05-15.1 11.55-45.25 40.4-29.55 28.45-66.15 70.55h75.1l10.15-.05m173.45-197.45l4.9-.05h19.4q-25.7 49.6-29.8 93.5-5.05 53.35 12.85 104.05m-.85 0H121.5l-34.6-.05M.4 313.25q.6-.7 1.25-1.4"/></defs><g><use xlink:href="#a"/><use xlink:href="#b"/><use xlink:href="#c"/><use xlink:href="#d"/></g></svg>