<svg xmlns="http://www.w3.org/2000/svg" width="900" height="450" viewBox="0 0 900 450"><path fill="#C54F27" d="M650.391 212.102v25.128l76.151-31.163-17.008-17.117-59.143 23.152m108.192 26.115l-16.57-16.679-91.622 41.256v25.567l91.733-42.574 16.459-7.57m-16.57-16.679l-15.471-15.471-76.151 31.163v25.564l91.622-41.256m-405.659 24.908l-2.304-28.53-152.52-39.611-23.373 18.105 178.197 50.036m1.537 18.655l-1.537-18.654-178.196-50.036-15.691 12.29 22.274 6.583 17.227 5.047 23.262 6.692 23.152 6.805 32.151 9.327 28.529 8.447 28.638 8.339 18.325 5.377 1.866-.217m141.875-39.284l-2.413-17.666-140.889 38.294h-.109l1.537 18.654.109 1.206 5.706-1.755 39.063-11.084 29.736-8.448 29.626-8.448 37.634-10.753m-2.413-17.665l2.413 17.666 72.092 16.24 9.546-17.447-83.283-16.789-.768.33m0-.11l.768-.22 83.283 16.789 12.839-23.591-100.399-17.886 3.509 24.908M323.407 83.393l-1.097-14.484-16.021 12.399 17.118 2.085m150.436 99.74l-2.194-.329-137.489 35.113h-.109l2.304 28.53h.109l140.889-38.294v-.11l-3.51-24.91m-3.732-26.553l3.511 25.675.221.878 100.399 17.886 11.959-21.727-116.09-22.712m-142.315-17.447l1.866 23.811 137.597-27.103-2.743-19.202-.66-.109-136.06 22.603m4.06 49.706h-.11l2.305 29.077h.109l137.489-35.112 1.974-.549-3.511-25.675-138.256 32.259m-2.194-25.895l2.084 25.895h.11l138.255-32.259-2.853-20.739-137.596 27.103m-6.255-79.551l1.207 16.13 36.649-4.28-9.547-14.704-28.309 2.854m48.828 28.748l-10.973-16.898-36.649 4.28 1.646 18.982 45.976-6.364m-21.287-45.756l-28.638 2.523 1.097 14.484 28.309-2.854-.768-1.536V66.385m-44.659 14.922l-16.678 13.167 35.002 5.048-1.207-16.13-17.117-2.085m-79.113 61.557l-20.957 16.239 125.526 29.736-2.084-25.895-102.485-20.08m62.435-48.39l-18.435 14.265 55.083 9.766-1.646-18.982-35.002-5.049m-18.435 14.265l-21.726 16.788 78.345 13.606-1.537-20.628-55.082-9.766m-21.725 16.788l-22.274 17.337 102.485 20.08-1.866-23.811-78.345-13.606m-43.232 33.577l-24.688 19.202 152.52 39.611-2.305-29.077-125.527-29.736m503.315 29.846l-17.557-17.557-27.102 7.681 14.704 19.421-11.521 4.828H650.39v8.778l59.144-23.151m-190.376-81.637l93.816-15.582-11.301-11.192-197.18 27.103-1.426.22-30.175 5.047-.658-.767-45.976 6.364 1.537 20.628 136.06-22.604.66-.11-2.085-15.581 56.728 6.474m70.335-39.063l-11.959-11.96-173.04 18.434v15.472L589.493 68.25m46.634 72.639l15.033 20.19 24.03-6.693-18.653-18.764-20.41 5.267m15.033 20.19l13.716 17.996 27.102-7.681-16.787-17.007-24.031 6.692m-64.959 18.214l10.314-18.983-129.257-24.469 2.853 20.739 116.09 22.713m16.022-29.407l.219-.329 5.268-9.436-143.193-23.482 2.743 19.202 129.257 24.469 5.706-10.424m18.762-28.638l-3.513.658-9.764 18.215-5.268 9.436-.219.329-5.707 10.424-10.314 18.983-11.959 21.727-12.839 23.591-9.546 17.447 7.899-2.634 7.902-2.634 18.653-33.576.985-1.976 11.084-19.641 4.06-7.461 13.058-23.262 2.962-5.486 2.743-4.828 1.428 1.865 45.427 60.898 11.521-4.828-14.704-19.421-13.716-17.996-15.033-20.19-15.14-19.64m-3.073-2.634l1.428.11 1.646 2.523 17.117-4.169-12.51-12.509-47.949 9.546 40.268 4.499m38.625 17.008l-18.435-18.543-17.117 4.169 15.142 19.641 20.41-5.267m-137.379-28.309l58.485 6.803 47.949-9.546-12.618-12.838-93.816 15.581m58.486 6.803l-58.485-6.803-56.728-6.474 2.085 15.581v.22l143.193 23.482 9.764-18.215.439-3.292-40.268-4.499m-.11-57.826l-9.438-9.546-163.602 14.812v13.167l173.04-18.433m24.14 24.249L589.493 68.25 404.494 90.196v17.446l197.18-27.103z"/><path fill="#C4C4C4" d="M205.231 302.956l23.152 9.215v-39.28l-23.152-7.79v37.855m-23.262-45.867l23.262 8.012v-38.077l-23.262-6.692v36.757m0 0v36.759l23.262 9.108v-37.855l-23.262-8.012m106.983 35.443l-28.418-9.767v39.611l28.418 11.082v-40.926m-28.418-49.377v39.61l28.418 9.767.11-40.93-28.528-8.447m-32.151 29.736v-39.063l-23.152-6.805V265.1l23.152 7.791m89.098 29.296l.219-42.245-28.638-8.339-.11 40.93 28.529 9.654m67.811 31.71l28.419-10.094-.658-39.283-29.078 9.108 1.317 40.269m-67.92 10.644l.109-42.354-28.529-9.654v40.927l28.42 11.081m124.759-69.347l-29.078 9.326.658 39.283 28.42-10.205v-38.404m-29.626-30.174l.549 39.501 29.078-9.326v-38.623l-29.627 8.448m.549 39.501l-.549-39.501-29.736 8.448 1.208 40.161 29.077-9.108m219.672-64.19l-24.14 9.436v35.113l24.14-10.315v-34.234m0 68.579v-34.346l-24.14 10.315v35.112l24.14-11.081m-24.14-24.03l-24.141 10.314v35.991l24.141-11.193V264.88m0-35.113l-24.141 9.437v35.991l24.141-10.314v-35.114z"/><path fill="#E8DFBE" d="M479.766 225.817v107.642l79.991 25.566V239.424l-7.899 2.634-72.092-16.241m-143.741 39.501l-18.325-5.377-.219 42.245-.109 42.354-28.42-11.082-28.418-11.082v-79.221l-32.151-9.327v78.343l-23.152-9.215-23.262-9.108v-73.517l-17.227-5.047 1.756 84.49.22 11.191 176.988 66.933V264.552L338 266.307l-.109-1.206-1.866.217m106.106-28.747v77.027l-28.42 10.205-28.419 10.094-1.316-40.269-1.208-40.161-39.063 11.084v113.346l136.06-44.438V225.817l-37.634 10.754M376.953 39.502l-4.06 7.241h31.601l-13.496-7.241h-14.045m-4.06 7.241l4.06-7.241h-14.155l-11.85 7.241h21.945m-21.945 0V79.004l.768 1.536 9.547 14.704 10.973 16.898h.658V46.743h-21.946m53.546 27.981V46.743h-31.601v65.398l30.175-4.28 1.426-.22V74.724m197.947 99.412l-4.06 7.461-11.084 19.641-.985 1.976-18.653 33.576-7.902 2.634v119.602l182.367-81.637v-31.602l-91.733 42.574v-85.037l-34.892-52.449-13.058 23.261m-17.996 65.067l24.141-9.437 24.14-9.436v68.579l-24.14 11.082-24.141 11.193v-71.981z"/><path fill="#D7C78E" d="M618.461 145.388l-2.962 5.486 34.892 52.449h17.668l-45.427-60.898-4.171 2.963z"/><g><path fill="none" stroke="#000" stroke-linecap="round" stroke-linejoin="round" d="M675.19 154.386l1.535-.33m-212.209-37.417l143.193 23.482m30.394-23.042l-17.117 4.169-3.513.658m18.654 18.983l20.41-5.267m-54.314 14.264l.219-.329m-5.926 10.753l-129.257-24.469m118.942 43.452l-116.09-22.713m155.482-52.011l-47.949 9.546m-58.486-6.802l93.816-15.582m38.186 69.348l24.03-6.693m16.788 17.007l-27.102 7.681M404.494 74.724l173.04-18.434m-205.299 55.851h.658l30.175-4.28M289.611 94.474l35.002 5.048m-1.206-16.129l-17.118-2.085m23.373 81.636l-102.485-20.08m242.934 13.716l-138.255 32.259h-.11m2.305 29.078h.109l137.489-35.112 1.974-.549m-224.172-56.729l78.345 13.606m-3.183-39.611l36.649-4.28m10.973 16.899l-45.976 6.364-55.083-9.766m193.34 7.68l-.66.11.66.109m2.743 19.203l-137.597 27.103m141.986 19.86l2.194.329m-146.046-44l136.06-22.604m-112.14-35.99l-28.309 2.854m8.339 105.446L206.22 159.103m271.133 49.049l.768-.33m-4.278-24.689l100.399 17.886m-237.888 45.427h.109l140.889-38.294m-319.194-11.741l178.196 50.036m-2.303-28.53l-152.52-39.611m-24.689 17.776l1.316.329m568.384 9.655l-76.151 31.163m0 25.565l91.622-41.256M404.494 107.642l197.18-27.103M589.493 68.25L404.494 90.196m73.626 117.626l83.283 16.789m88.988-12.509l59.144-23.152"/></g><g><path fill="none" stroke="#000" stroke-width="2" stroke-linecap="round" stroke-linejoin="round" d="M404.494 61.556l163.602-14.813 9.438 9.546 11.959 11.961 12.181 12.289 11.301 11.192 12.618 12.838 12.51 12.509 18.435 18.543 18.653 18.764m-57.279-35.771l-40.269-4.499-58.485-6.803-56.728-6.474 2.085 15.581v.22m152.958 5.267l-9.764 18.215m10.203-21.507l1.428.11 1.646 2.523m-1.646-2.522l-1.867 3.181m18.654 18.983l-15.142-19.641m-2.524 24.14l2.743-4.828 1.428 1.865 45.427 60.898 11.521-4.828-14.704-19.421-13.716-17.996-15.033-20.19m-20.628 9.986l2.962-5.486m-10.752-5.267l-5.268 9.436m-5.925 10.753l5.707-10.424m13.276.988l-13.058 23.262-4.06 7.461-11.084 19.641-.985 1.976-18.653 33.576-7.902 2.634v119.602m182.367-81.637v-31.602l-91.733 42.574v-85.037l-34.892-52.449m-29.298 28.418l10.314-18.983m-129.256-24.469l2.853 20.739m116.089 22.713l-11.959 21.727-12.839 23.591-9.546 17.447 7.899-2.634m115.434-85.038l16.787 17.007 17.557 17.557 17.008 17.117 15.471 15.471 16.57 16.679-16.459 7.57m-583.966-49.376l23.373-18.105 24.688-19.202 20.957-16.239 22.274-17.337 21.726-16.788 18.435-14.265 16.678-13.167 16.021-12.399 28.638-2.523V46.743l11.85-7.241h28.2l13.496 7.241v27.98m-53.546-8.338v12.619l.768 1.536 9.547 14.704 10.973 16.898m.657-.001V46.743h-21.945m21.945 0l4.06-7.241m26.115 68.359l1.426-.22V74.724m-31.601 37.417v.767l30.175-5.047m-30.833 4.28l.658.767m-46.634 5.597l-1.646-18.982-1.207-16.13m6.256 79.551l2.084 25.895 2.305 29.077m136.06-61.336l3.511 25.675m-143.96-19.311l-1.866-23.811-1.537-20.628m138.257-1.866l2.743 19.202m6.363 46.414l.221.878m-69.349-136.39h-31.601m-49.486 36.65l-1.097-14.484m155.043 139.243v-.11l-3.51-24.908m3.51 25.018l2.413 17.666 72.092 16.24m-167.882 51.571l29.078-9.108-.549-39.501-29.736 8.448 1.207 40.161 1.316 40.269 28.419-10.094-.658-39.283 29.078-9.326v-38.623l-29.626 8.448m67.261-19.203l-37.634 10.754m-104.241 28.53l-1.537-18.654m-178.196-50.036l-15.691 12.29 22.274 6.583 17.227 5.047 23.262 6.692 23.152 6.805 32.151 9.327 28.529 8.447 28.638 8.339 18.325 5.377m1.866-.217l.109 1.206 5.706-1.755 39.063-11.084m-46.415-7.022l-2.304-28.53m-45.098 115.543l28.42 11.082.109-42.354-28.529-9.654v40.926l-28.418-11.082v-79.221m219.232 90.303v32.15m-37.635-90.415v38.404l-28.42 10.205m-70.005 86.246V264.552m-176.988 46.413l-.22-11.191-.11 53.108m313.378-127.065v107.642m79.991 25.566V389.2m-242.276-87.013l.219-42.245m-89.317 12.949v-39.063m32.151 48.938l28.418 9.767.11-40.93m-107.093 5.486v36.759l23.262 9.108v-37.855l-23.262-8.012v-36.758m23.262 6.692V265.1l23.152 7.79v39.28l-23.152-9.215m-38.733-3.182l-1.756-84.49m577.382 62.106v23.262m-74.065-97.328h-17.668m-41.805 96.669l-24.141 11.193v-71.982l24.141-9.437 24.14-9.436v68.579l-24.14 11.083V264.88l-24.141 10.314m48.281-20.63l-24.14 10.315v-35.113"/></g></svg>