<?xml version="1.0" encoding="utf-8"?>
<!-- Generator: Adobe Illustrator 16.0.0, SVG Export Plug-In . SVG Version: 6.00 Build 0)  -->
<!DOCTYPE svg PUBLIC "-//W3C//DTD SVG 1.1//EN" "http://www.w3.org/Graphics/SVG/1.1/DTD/svg11.dtd">
<svg version="1.1" id="Layer_1" xmlns="http://www.w3.org/2000/svg" xmlns:xlink="http://www.w3.org/1999/xlink" x="0px" y="0px"
	 width="900px" height="450px" viewBox="0 0 900 450" enable-background="new 0 0 900 450" xml:space="preserve">
<g transform="matrix( 1, 0, 0, 1, 0,0) ">
	<g>
		<g id="Layer0_0_FILL">
			<path fill="#C54F27" d="M650.391,212.102v25.128l76.151-31.163l-17.008-17.117L650.391,212.102 M758.583,238.217l-16.57-16.679
				l-91.622,41.256v25.567l91.733-42.574L758.583,238.217 M742.013,221.538l-15.471-15.471l-76.151,31.163v25.564L742.013,221.538
				 M336.354,246.446l-2.304-28.53l-152.52-39.611l-23.373,18.105L336.354,246.446 M337.891,265.101l-1.537-18.654l-178.196-50.036
				l-15.691,12.29l22.274,6.583l17.227,5.047l23.262,6.692l23.152,6.805l32.151,9.327l28.529,8.447l28.638,8.339l18.325,5.377
				L337.891,265.101 M479.766,225.817l-2.413-17.666l-140.889,38.294h-0.109l1.537,18.654l0.109,1.206l5.706-1.755l39.063-11.084
				l29.736-8.448l29.626-8.448L479.766,225.817 M477.353,208.152l2.413,17.666l72.092,16.24l9.546-17.447l-83.283-16.789
				L477.353,208.152 M477.353,208.042l0.768-0.22l83.283,16.789l12.839-23.591l-100.399-17.886L477.353,208.042 M323.407,83.393
				l-1.097-14.484l-16.021,12.399L323.407,83.393 M473.843,183.133l-2.194-0.329L334.16,217.917h-0.109l2.304,28.53h0.109
				l140.889-38.294v-0.11L473.843,183.133 M470.111,156.58l3.511,25.675l0.221,0.878l100.399,17.886l11.959-21.727L470.111,156.58
				 M327.796,139.133l1.866,23.811l137.597-27.103l-2.743-19.202l-0.66-0.109L327.796,139.133 M331.856,188.839h-0.11l2.305,29.077
				h0.109l137.489-35.112l1.974-0.549l-3.511-25.675L331.856,188.839 M329.662,162.944l2.084,25.895h0.11l138.255-32.259
				l-2.853-20.739L329.662,162.944 M323.407,83.393l1.207,16.13l36.649-4.28l-9.547-14.704L323.407,83.393 M372.235,112.141
				l-10.973-16.898l-36.649,4.28l1.646,18.982L372.235,112.141 M350.948,66.385l-28.638,2.523l1.097,14.484l28.309-2.854
				l-0.768-1.536V66.385 M306.289,81.307l-16.678,13.167l35.002,5.048l-1.207-16.13L306.289,81.307 M227.176,142.864l-20.957,16.239
				l125.526,29.736l-2.084-25.895L227.176,142.864 M289.611,94.474l-18.435,14.265l55.083,9.766l-1.646-18.982L289.611,94.474
				 M271.176,108.739l-21.726,16.788l78.345,13.606l-1.537-20.628L271.176,108.739 M249.451,125.527l-22.274,17.337l102.485,20.08
				l-1.866-23.811L249.451,125.527 M206.219,159.104l-24.688,19.202l152.52,39.611l-2.305-29.077L206.219,159.104 M709.534,188.95
				l-17.557-17.557l-27.102,7.681l14.704,19.421l-11.521,4.828h-17.668v8.778L709.534,188.95 M519.158,107.313l93.816-15.582
				l-11.301-11.192l-197.18,27.103l-1.426,0.22l-30.175,5.047l-0.658-0.767l-45.976,6.364l1.537,20.628l136.06-22.604l0.66-0.11
				l-2.085-15.581L519.158,107.313 M589.493,68.25L577.534,56.29l-173.04,18.434v15.472L589.493,68.25 M636.127,140.889
				l15.033,20.19l24.03-6.693l-18.653-18.764L636.127,140.889 M651.16,161.079l13.716,17.996l27.102-7.681l-16.787-17.007
				L651.16,161.079 M586.201,179.293l10.314-18.983l-129.257-24.469l2.853,20.739L586.201,179.293 M602.223,149.886l0.219-0.329
				l5.268-9.436l-143.193-23.482l2.743,19.202l129.257,24.469L602.223,149.886 M620.985,121.248l-3.513,0.658l-9.764,18.215
				l-5.268,9.436l-0.219,0.329l-5.707,10.424l-10.314,18.983l-11.959,21.727l-12.839,23.591l-9.546,17.447l7.899-2.634l7.902-2.634
				l18.653-33.576l0.985-1.976l11.084-19.641l4.06-7.461l13.058-23.262l2.962-5.486l2.743-4.828l1.428,1.865l45.427,60.898
				l11.521-4.828l-14.704-19.421l-13.716-17.996l-15.033-20.19L620.985,121.248 M617.912,118.614l1.428,0.11l1.646,2.523
				l17.117-4.169l-12.51-12.509l-47.949,9.546L617.912,118.614 M656.537,135.622l-18.435-18.543l-17.117,4.169l15.142,19.641
				L656.537,135.622 M519.158,107.313l58.485,6.803l47.949-9.546l-12.618-12.838L519.158,107.313 M577.644,114.116l-58.485-6.803
				l-56.728-6.474l2.085,15.581v0.22l143.193,23.482l9.764-18.215l0.439-3.292L577.644,114.116 M577.534,56.29l-9.438-9.546
				L404.494,61.556v13.167L577.534,56.29 M601.674,80.539L589.493,68.25L404.494,90.196v17.446L601.674,80.539z"/>
			<path fill="#C4C4C4" d="M205.231,302.956l23.152,9.215v-39.28l-23.152-7.79V302.956 M181.969,257.089l23.262,8.012v-38.077
				l-23.262-6.692V257.089 M181.969,257.089v36.759l23.262,9.108v-37.855L181.969,257.089 M288.952,292.532l-28.418-9.767v39.611
				l28.418,11.082V292.532 M260.534,243.155v39.61l28.418,9.767l0.11-40.93L260.534,243.155 M228.383,272.891v-39.063l-23.152-6.805
				v38.077L228.383,272.891 M317.481,302.187l0.219-42.245l-28.638-8.339l-0.11,40.93L317.481,302.187 M385.292,333.897
				l28.419-10.094l-0.658-39.283l-29.078,9.108L385.292,333.897 M317.372,344.541l0.109-42.354l-28.529-9.654v40.927
				L317.372,344.541 M442.131,275.194l-29.078,9.326l0.658,39.283l28.42-10.205V275.194 M412.505,245.02l0.549,39.501l29.078-9.326
				v-38.623L412.505,245.02 M413.054,284.521l-0.549-39.501l-29.736,8.448l1.208,40.161L413.054,284.521 M632.726,220.331
				l-24.14,9.436v35.113l24.14-10.315V220.331 M632.726,288.91v-34.346l-24.14,10.315v35.112L632.726,288.91 M608.586,264.88
				l-24.141,10.314v35.991l24.141-11.193V264.88 M608.586,229.767l-24.141,9.437v35.991l24.141-10.314V229.767z"/>
			<path fill="#E8DFBE" d="M479.766,225.817v107.642l79.991,25.566V239.424l-7.899,2.634L479.766,225.817 M336.025,265.318
				l-18.325-5.377l-0.219,42.245l-0.109,42.354l-28.42-11.082l-28.418-11.082v-39.611v-39.61l-32.151-9.327v39.063v39.28
				l-23.152-9.215l-23.262-9.108v-36.759v-36.758l-17.227-5.047l1.756,84.49l0.22,11.191l176.988,66.933V264.552L338,266.307
				l-0.109-1.206L336.025,265.318 M442.131,236.571v38.623v38.404l-28.42,10.205l-28.419,10.094l-1.316-40.269l-1.208-40.161
				l-39.063,11.084v113.346l136.06-44.438V225.817L442.131,236.571 M376.953,39.502l-4.06,7.241h31.601l-13.496-7.241H376.953
				 M372.893,46.743l4.06-7.241h-14.155l-11.85,7.241H372.893 M350.948,46.743v19.642v12.619l0.768,1.536l9.547,14.704
				l10.973,16.898h0.658V46.743H350.948 M404.494,74.724V61.556V46.743h-31.601v65.398l30.175-4.28l1.426-0.22V90.196V74.724
				 M602.441,174.136l-4.06,7.461l-11.084,19.641l-0.985,1.976l-18.653,33.576l-7.902,2.634v119.602l182.367-81.637v-31.602
				l-91.733,42.574v-25.567v-25.564v-25.128v-8.778l-34.892-52.449L602.441,174.136 M584.445,239.203l24.141-9.437l24.14-9.436
				v34.233v34.346l-24.14,11.082l-24.141,11.193v-35.991V239.203z"/>
			<path fill="#D7C78E" d="M618.461,145.388l-2.962,5.486l34.892,52.449h17.668l-45.427-60.898L618.461,145.388z"/>
		</g>
	</g>
	<g>
		<path id="Layer0_0_1_STROKES" fill="none" stroke="#000000" stroke-linecap="round" stroke-linejoin="round" d="M675.19,154.386
			l1.535-0.33 M464.516,116.639l143.193,23.482 M638.103,117.079l-17.117,4.169l-3.513,0.658 M636.127,140.889l20.41-5.267
			 M602.223,149.886l0.219-0.329 M596.516,160.31l-129.257-24.469 M586.201,179.293l-116.09-22.713 M625.593,104.569l-47.949,9.546
			 M519.158,107.313l93.816-15.582 M651.16,161.079l24.03-6.693 M691.978,171.393l-27.102,7.681 M404.494,74.724l173.04-18.434
			 M372.235,112.141h0.658l30.175-4.28 M289.611,94.474l35.002,5.048 M323.407,83.393l-17.118-2.085 M329.662,162.944
			l-102.485-20.08 M470.111,156.58l-138.255,32.259h-0.11 M334.051,217.917h0.109l137.489-35.112l1.974-0.549 M249.451,125.527
			l78.345,13.606 M324.613,99.522l36.649-4.28 M372.235,112.141l-45.976,6.364l-55.083-9.766 M464.516,116.419l-0.66,0.11
			l0.66,0.109 M467.259,135.841l-137.597,27.103 M471.648,182.804l2.194,0.329 M327.796,139.133l136.06-22.604 M351.716,80.539
			l-28.309,2.854 M331.746,188.839l-125.526-29.736 M477.353,208.152l0.768-0.33 M473.843,183.133l100.399,17.886 M336.354,246.446
			h0.109l140.889-38.294 M158.158,196.411l178.196,50.036 M334.051,217.917l-152.52-39.611 M156.842,196.082l1.316,0.329
			 M726.542,206.066l-76.151,31.163 M650.391,262.794l91.622-41.256 M404.494,107.642l197.18-27.103 M589.493,68.25L404.494,90.196
			 M478.12,207.822l83.283,16.789 M650.391,212.102l59.144-23.152"/>
	</g>
	<g>
		<path id="Layer0_0_2_STROKES" fill="none" stroke="#000000" stroke-width="2" stroke-linecap="round" stroke-linejoin="round" d="
			M404.494,61.556l163.602-14.813l9.438,9.546l11.959,11.961l12.181,12.289l11.301,11.192l12.618,12.838l12.51,12.509l18.435,18.543
			l18.653,18.764 M617.912,118.614l-40.269-4.499l-58.485-6.803l-56.728-6.474l2.085,15.581v0.22 M617.473,121.906l-9.764,18.215
			 M617.912,118.614l1.428,0.11l1.646,2.523 M619.34,118.725l-1.867,3.181 M636.127,140.889l-15.142-19.641 M618.461,145.388
			l2.743-4.828l1.428,1.865l45.427,60.898l11.521-4.828l-14.704-19.421l-13.716-17.996l-15.033-20.19 M615.499,150.874l2.962-5.486
			 M607.709,140.121l-5.268,9.436 M596.516,160.31l5.707-10.424 M615.499,150.874l-13.058,23.262l-4.06,7.461l-11.084,19.641
			l-0.985,1.976l-18.653,33.576l-7.902,2.634v119.602 M742.124,277.389v-31.602l-91.733,42.574v-25.567v-25.564v-25.128v-8.778
			l-34.892-52.449 M586.201,179.293l10.314-18.983 M467.259,135.841l2.853,20.739 M586.201,179.293l-11.959,21.727l-12.839,23.591
			l-9.546,17.447l7.899-2.634 M675.19,154.386l16.787,17.007l17.557,17.557l17.008,17.117l15.471,15.471l16.57,16.679l-16.459,7.57
			 M158.158,196.411l23.373-18.105l24.688-19.202l20.957-16.239l22.274-17.337l21.726-16.788l18.435-14.265l16.678-13.167
			l16.021-12.399l28.638-2.523V46.743l11.85-7.241h14.155h14.045l13.496,7.241v14.813v13.167 M350.948,66.385v12.619l0.768,1.536
			l9.547,14.704l10.973,16.898 M372.893,112.141V46.743h-21.945 M372.893,46.743l4.06-7.241 M403.068,107.861l1.426-0.22V90.196
			V74.724 M372.893,112.141v0.767l30.175-5.047 M372.235,112.141l0.658,0.767 M326.259,118.505l-1.646-18.982l-1.207-16.13
			 M329.662,162.944l2.084,25.895l2.305,29.077 M470.111,156.58l3.511,25.675 M329.662,162.944l-1.866-23.811l-1.537-20.628
			 M464.516,116.639l2.743,19.202 M473.622,182.255l0.221,0.878 M404.494,46.743h-31.601 M323.407,83.393l-1.097-14.484
			 M477.353,208.152v-0.11l-3.51-24.908 M477.353,208.152l2.413,17.666l72.092,16.24 M383.976,293.629l29.078-9.108l-0.549-39.501
			l-29.736,8.448L383.976,293.629l1.316,40.269l28.419-10.094l-0.658-39.283l29.078-9.326v-38.623l-29.626,8.448 M479.766,225.817
			l-37.634,10.754 M337.891,265.101l-1.537-18.654 M158.158,196.411l-15.691,12.29l22.274,6.583l17.227,5.047l23.262,6.692
			l23.152,6.805l32.151,9.327l28.529,8.447l28.638,8.339l18.325,5.377 M337.891,265.101l0.109,1.206l5.706-1.755l39.063-11.084
			 M336.354,246.446l-2.304-28.53 M288.952,333.459l28.42,11.082l0.109-42.354l-28.529-9.654V333.459l-28.418-11.082v-39.611v-39.61
			 M479.766,333.459v32.15 M442.131,275.194v38.404l-28.42,10.205 M343.706,410.049v-32.151V264.552 M166.718,310.965l-0.22-11.191
			l-0.11,53.108 M479.766,225.817v107.642 M559.757,359.025V389.2 M317.481,302.187l0.219-42.245 M228.383,272.891v-39.063
			 M260.534,282.766l28.418,9.767l0.11-40.93 M181.969,257.089v36.759l23.262,9.108v-37.855L181.969,257.089v-36.758
			 M205.231,227.023v38.077l23.152,7.79v39.28l-23.152-9.215 M166.498,299.773l-1.756-84.49 M742.124,277.389v23.262
			 M668.059,203.323h-17.668 M608.586,299.992l-24.141,11.193v-35.991v-35.991l24.141-9.437l24.14-9.436v34.233v34.346
			L608.586,299.992V264.88l-24.141,10.314 M632.726,254.564l-24.14,10.315v-35.113"/>
	</g>
</g>
</svg>
