<svg xmlns="http://www.w3.org/2000/svg" width="900" height="450" viewBox="0 0 900 450"><g><path fill="#5486AA" d="M551.859 185.143a21.154 21.154 0 0 0-1.837-.858c2.367 1.445 4.332 2.58 5.892 3.404 12.223 6.684 27.8 20.788 46.73 42.314 3.854 4.354 7.521 8.5 11.003 12.433-.8-.946-1.601-1.889-2.4-2.833-7.73-9.527-13.649-16.302-17.757-20.32-10.525-10.278-17.52-16.975-20.978-20.089-4.229-3.565-8.415-6.676-12.565-9.328a92.7 92.7 0 0 0-8.088-4.723M535.593 93.16a7.336 7.336 0 0 0-.699-2.374c-.394-.35-.796-.66-1.208-.932l-1.466-.88c-1.898-1.077-4.002-1.843-6.31-2.301a1.324 1.324 0 0 0-.598-.04l-.339-.091c-.83-.223-1.569-.34-2.214-.35a4.417 4.417 0 0 0-1.052-.161l-.112-.03c-3.821.351-8.256 1.631-13.305 3.842-7.666 3.209-13.011 6.676-16.037 10.399-1.299 1.515-6.167 6.528-14.607 15.036-2.338 2.37-4.37 4.662-6.098 6.87a521.641 521.641 0 0 0-2.752 4.367c-.231.26-.427.534-.583.814-.545.827-1.081 1.616-1.605 2.364-.132-.116-.234-.184-.312-.204l-.226-.061a4.259 4.259 0 0 0-.929-.615 4.583 4.583 0 0 1-.832.384l-3.389-.058-.566-.152a2.176 2.176 0 0 1-.648-.297 4.102 4.102 0 0 1-1.064-1.014l-.362-.461a1.354 1.354 0 0 1-.278-.319l-.167-.287-.083-.143-1.475-.396c-1.208-.325-4.539-1.95-9.994-4.871a11.255 11.255 0 0 1-1.721-.827 8.299 8.299 0 0 1-1.392-.25 11.162 11.162 0 0 1-3.052-1.305c-6.557-.625-18.148-3.169-34.772-7.631l-1.36-.365-3.401-.913a21.712 21.712 0 0 1-8.474-.575c-1.359-.365-2.491-.83-3.393-1.394-.872-.073-1.96-.244-3.265-.513-4.197-.965-7.102-1.46-8.714-1.487-2.41-.079-5.657-.507-9.743-1.278-4.162-.794-7.125-1.224-8.889-1.292-3.129-.111-7.259-.572-12.389-1.381a63.428 63.428 0 0 1-1.534-.17c-8.346-.296-14.795.04-19.348 1.004 11.153.402 20.296.75 27.426 1.043 3.13.111 13.468 1.59 31.012 4.436 21.199 3.42 37.807 6.743 49.821 9.968 14.963 4.016 37.044 15.168 66.242 33.455 19.948 13.212 35.029 22.97 45.247 29.277-.207-2.244-.839-4.276-1.889-6.096a12.072 12.072 0 0 0-2.225-3.027 67.825 67.825 0 0 0 1.089 4.545c.125.437.251.876.375 1.316l-.453-.122.078-1.194a68.746 68.746 0 0 1-1.089-4.545 6.012 6.012 0 0 0-.476-.493 2.979 2.979 0 0 0-.589-.521 3.79 3.79 0 0 1-.618-.41 4.623 4.623 0 0 1-.099-.997l.031-.115a589.413 589.413 0 0 0-1.21-9.073 307.068 307.068 0 0 1-1.076-8.674c.258-.66.465-1.131.623-1.411-.529-5.57-.836-12.134-.913-19.688-.054-.098-.074-.184-.054-.259-.35-1.712-.678-3.502-.989-5.369a6.297 6.297 0 0 1-.125-.885c.055-1.117.064-2.209.026-3.273a24.06 24.06 0 0 0-.245-2.253c-.779-5.555-1.019-9.791-.722-12.709 1.056-8.144 1.574-12.339 1.559-12.588m226.509 138.565c.142-.529.17-1.087.087-1.677-1.861 3.308-4.17 6.78-6.928 10.414 4.277-4.767 6.556-7.68 6.841-8.737m-.932-3.773c.221.382.398.632.527.749-.109-.192-.222-.385-.332-.576-.719-1.246-1.775-1.529-3.173-.852.741-.045 1.376.005 1.905.146.455.123.812.3 1.073.533m-216.542-46.209l-.043-.74c-10.218-6.307-25.299-16.065-45.247-29.277-29.198-18.287-51.279-29.439-66.242-33.455-12.015-3.225-28.623-6.547-49.821-9.968-17.544-2.846-27.882-4.324-31.012-4.436-7.13-.293-16.273-.641-27.426-1.043-.836.101-1.608.259-2.314.473a1.485 1.485 0 0 0-.188-.658c-2.636-.14-5.357-.263-8.164-.369-12.876-.62-22.82-1.304-29.829-2.051-21.085-2.338-43.573-3.067-67.464-2.188-21.388.903-39.396 2.955-54.028 6.158l-.144.082a.78.78 0 0 0-.431.25c-2.2.95-3.472 2.066-3.816 3.351-.243.907-.064 2.05.539 3.426.548 1.28 1.244 2.157 2.09 2.626.347.821.71 1.731 1.092 2.723.236.63.52 1.233.851 1.809l.166.287.084.144.113.03a78.579 78.579 0 0 0 3.63 4.134 9.217 9.217 0 0 0 2.96 1.646c.509.217 1.028.396 1.556.538 1.739.467 3.79.37 6.155-.292 1.816-.728 2.799-1.071 2.95-1.031.605.162 2.101.927 4.487 2.298 2.407 1.294 3.914 2.021 4.519 2.184.529.142 2.055.188 4.581.135.418-.049.913-.078 1.482-.087.171-.037.371-.023.598.037 2.888-.195 4.407-.274 4.559-.233.832.223 3.904 1.453 9.217 3.688 5.258 2.141 8.795 3.455 10.609 3.942 4.232 1.136 7.076.805 8.53-.993.757-1.012 1.849-1.609 3.276-1.793 1.009-.135 2.192-.019 3.553.346l.113.03c12.282 4.35 19.063 6.697 20.349 7.042 2.947.791 5.268 1.048 6.961.774.803-.271 1.412-.433 1.831-.482.171-.034.295-.042.37-.021.227.061.444.16.649.295 2.194 1.422 5.787 7.207 10.775 17.354.375.746.742 1.493 1.101 2.239 6.083 12.65 10.561 19.36 13.433 20.131 2.04.548 5.128-.243 9.265-2.374 3.985-2.17 6.824-4.446 8.516-6.829 1.489 1.698 5.929 5.076 13.32 10.138 7.783 5.412 12.771 8.409 14.962 8.998 2.948.791 5.229.593 6.843-.594 1.071-1.576 1.76-2.482 2.068-2.725a407.076 407.076 0 0 0 7.193 7.157c3.754 3.518 7.105 5.673 10.051 6.464.983.264 1.873.421 2.67.472 2.918 2.404 6.605 5.419 11.061 9.044 12.071 9.964 18.597 15.079 19.579 15.343.227.061 2.178-.267 5.853-.981 1.058.284 3.118 1.363 6.18 3.237 3.04 1.95 6.715 3.504 11.022 4.659 1.738.467 3.545.224 5.421-.73 1.499-1.057 2.362-1.555 2.588-1.493 1.285.345 3.788 2.191 7.506 5.539 3.739 3.272 6.744 5.211 9.009 5.819 2.57.689 4.597.383 6.081-.92.862-.497 1.621-1.509 2.272-3.035.833.223 3.146 2.02 6.939 5.386 3.721 3.349 5.806 5.083 6.26 5.205 2.267.608 4.224-.041 5.871-1.949 1.141-1.233 1.903-2.567 2.289-4.003.102-.378.306-.688.612-.928 2.122 1.459 4.195 3.23 6.229 5.316 1.117 1.271 2.732 2.191 4.849 2.76 3.477.933 6.133.39 7.971-1.629 1.319-1.589 1.797-2.921 1.436-3.988.102-.378.138-.814.109-1.31a408.791 408.791 0 0 0 6.739 7.035c3.521 3.781 6.642 6.036 9.363 6.767 2.345.63 4.309.103 5.893-1.578 1.227-1.858 1.948-2.881 2.158-3.065 2.134 1.707 3.731 2.703 4.79 2.987 2.343.629 4.663.277 6.966-1.048 1.961-1.582 3.134-2.481 3.518-2.702 5.894 8.226 10.163 12.691 12.809 13.401.983.264 2.126-.076 3.433-1.022 3.061 4.306 5.645 6.741 7.761 7.31 2.57.69 4.678.081 6.324-1.827 1.085-1.33 1.698-2.703 1.836-4.126 1.118.059 2.657-.096 4.621-.462 2.132-.398 3.414-.947 3.842-1.641l.03-.113c.133.116.254.27.363.46 1.419 1.354 3.922 4.862 7.506 10.521 4.34 5.864 8.398 9.304 12.178 10.317 8.312 2.23 13.371 2.092 15.181-.421.642-.882 1.034-2.193 1.18-3.937.189-2.218.325-3.478.407-3.781.202-.755.505-1.281.907-1.578.405-.295.616-.483.637-.559a179.535 179.535 0 0 0 13.493 11.762c7.097 5.551 13.215 9.462 18.358 11.734a1.32 1.32 0 0 0-.266.536c.411 1.487.813 3.013 1.203 4.577.11.19.173.409.187.657l-.121.451c-.021.078-.011.201.023.372l-.122.454c-.969 6.625 3.236 19.177 12.618 37.654 1.063 2.067 2.142 4.1 3.226 6.092a237.264 237.264 0 0 0 8.854 13.191c2.968 4.036 10.659 13.715 23.072 29.036l.113.031c-.019.07.001.156.054.259 2.51 3.021 5.196 6.296 8.059 9.816l.113.03c.227.062.426.074.597.04.312.651.651 1.349 1.018 2.096 2.861 3.523 5.873 7.246 9.033 11.173.459-.2.871-.535 1.239-1.004-.58-1.451-1.387-3.125-2.419-5.022-3.083-6.014-4.865-9.487-5.342-10.427-1.179-3.15-2.493-7.92-3.938-14.304-.18-.532-.487-1.953-.923-4.256-1.17-3.799-2.047-7.922-2.635-12.373-2.037-8.405-3.68-15.569-4.925-21.496-2.291-11.388-2.977-19.552-2.055-24.49l-.15-1.255a162.229 162.229 0 0 0 3.091-4.273c4.361-6.284 7.008-11.164 7.94-14.639.082-.305.042-.759-.119-1.369 1.804-2.19 4.608-5.853 8.417-10.986 3.788-5.06 6.863-8.975 9.227-11.741.583-.655 8.147-8.468 22.696-23.438a575.196 575.196 0 0 0 6.438-6.779 348.77 348.77 0 0 0 5.104-5.435c2.758-3.634 5.066-7.106 6.928-10.414-.06-.203-.12-.421-.189-.658-.09-.211-.192-.44-.302-.688-.129-.117-.307-.367-.527-.749-.261-.233-.618-.41-1.072-.532-.529-.142-1.164-.191-1.905-.146a.777.777 0 0 0-.432.248c-.191.112-.385.222-.575.332l-.113-.03c-.68-.183-1.573-.178-2.675.011-1.922.215-4.506.938-7.754 2.172-.096.058-.23.102-.402.137-.095.055-2.141.883-6.135 2.485a230.8 230.8 0 0 0-6.937 2.755c-1.26.474-2.616 1-4.07 1.582a591.928 591.928 0 0 1-4.5 1.831c-9.543 4.162-18.021 8.125-25.43 11.887-3.637 1.779-9.762 4.228-18.375 7.344-.706.214-1.558.513-2.55.894a432.238 432.238 0 0 1-7.218 2.438c-.627.237-1.221.484-1.775.738-.46.202-.807.432-1.038.695-.423.373-1.495 1.341-3.211 2.905-2.614-.216-7.3 2.9-14.054 9.352a19.323 19.323 0 0 1-.958-.5c-.021.077-.207.471-.563 1.188l-.03.112-.286.166c-.02.075-.067.102-.143.081l-.177.197c-.075-.02-.161-.002-.256.053-.418.05-.854.013-1.308-.108l-.113-.031a1.967 1.967 0 0 1-.536-.264c-.561-.475-1.122-.949-1.686-1.423-.783-.698-1.68-1.586-2.686-2.667-.49-.294-.949-.538-1.383-.734-.599-.486-1.085-.939-1.457-1.365-3.295-3.718-6.559-7.106-9.791-10.16-.444-.445-.94-.86-1.485-1.252 9.353 10.127 16.235 17.077 20.651 20.856-4.416-3.779-11.299-10.729-20.651-20.856a.392.392 0 0 0-.196-.174l.113.031a1.496 1.496 0 0 1-.477-.491c-.688-.752-4.655-5.14-11.899-13.159-.077-.021-.163-.004-.259.051l-.33-.572a3.207 3.207 0 0 1-.644-.78 6.025 6.025 0 0 0-.753-.81c-3.482-3.933-7.149-8.078-11.003-12.433-18.931-21.526-34.508-35.63-46.73-42.314-1.56-.825-3.524-1.959-5.892-3.404-.509-.217-.98-.424-1.411-.621a205.668 205.668 0 0 1-3.985-1.922m-262.39-76.861c-.589.083-1.074.075-1.451-.026l-.506-.378 2.215.35-.258.054m70.255 10.349a.763.763 0 0 0-.43.248 5.943 5.943 0 0 0-1.164-.191c.569-.01 1.101-.028 1.594-.057m-44.496 26.336l-.061.226c-.543-.388-2.996-2.869-7.359-7.443.675.506 1.332.924 1.972 1.257 2.419 2.758 4.236 4.743 5.448 5.96m407.939 120.907c.156-.281.303-.526.438-.732.541-.503 1.06-.931 1.56-1.283a22.716 22.716 0 0 0-1.998 2.015m-57.289 20.11c2.173-1.444 3.495-2.305 3.976-2.579l.226.06c-.116.131-1.346 1.097-3.694 2.896a4.797 4.797 0 0 1-.508-.377m10.083 16.314c.295-.488.577-.939.85-1.351.096-.057.182-.074.256-.055-.292.489-.623.968-.993 1.436l-.113-.03M337.34 112.379l-.091.339c-1.003-.189-2.042-.387-3.122-.594l-1.194-.079c.569-.008 1.092.011 1.565.055 1.023.114 1.971.207 2.842.279m-32.867 2.479c-.228-.061-.925-.329-2.094-.804a94.378 94.378 0 0 1 2.563-.041l.226.061-.695.784m-82.132-6.854c1.232-.965 2.149-1.366 2.754-1.204.529.142 2.385.922 5.569 2.344 2.261.932 3.802 1.225 4.625.878-3.417 2.162-5.573 3.405-6.47 3.732-1.411.431-3.252.342-5.519-.266l-2.268-.608c-.941-.414-1.291-1.075-1.047-1.983a3.18 3.18 0 0 1 .327-.762c.399-.645 1.077-1.353 2.029-2.131m147.982 86.14c2.626-15.824 3.917-27.425 3.874-34.809-.004-12.965-2.754-25.207-8.25-36.727 5.496 11.52 8.246 23.762 8.25 36.727.043 7.383-1.248 18.985-3.874 34.809m87.069-11.997c5.193 1.845 12.559 5.037 22.097 9.576a491.688 491.688 0 0 1 28.729 14.759c9.477 5.368 19.764 10.802 30.865 16.304 11.092 5.495 18.078 8.747 20.956 9.756 2.892.995 7.854 4.23 14.895 9.708 7.109 5.512 6.732 7.518-1.129 6.018-13.404-5.539-32.499-11.675-57.278-18.41-29.021-7.794-50.015-12.739-62.976-14.837-12.965-2.104-22.296-4.608-27.998-7.515-5.681-2.981-10.288-4.38-13.821-4.195 4.8-18.487 12.305-27.128 22.511-25.917 10.245 1.325 17.962 2.91 23.149 4.753m-41.042-35.44c-.637-8.348-2.456-14.1-5.454-17.261 2.999 3.161 4.817 8.913 5.454 17.261.702 8.448.703 13.876.005 16.285-.717 2.402-2.058 8.604-4.022 18.606-1.784 8.758-4.547 16.036-8.291 21.836 3.744-5.8 6.507-13.078 8.291-21.836 1.964-10.002 3.305-16.205 4.022-18.606.698-2.409.697-7.837-.005-16.285m-10.758-.212c-.19-5.783-2.764-12.794-7.722-21.032 4.958 8.238 7.532 15.249 7.722 21.032.273 5.81-.335 12.005-1.83 18.587-1.454 6.664-3.944 18.51-7.473 35.544 3.529-17.034 6.02-28.88 7.473-35.544 1.495-6.582 2.103-12.777 1.83-18.587m-20.951 52.706c3.977-16.012 5.84-30.497 5.589-43.462-.175-12.944-2.578-23.311-7.208-31.099 4.63 7.788 7.033 18.155 7.208 31.099.251 12.965-1.612 27.45-5.589 43.462m94.847-7.478c-9.538-4.54-16.903-7.731-22.097-9.576-5.187-1.843-12.903-3.428-23.15-4.753-10.206-1.211-17.711 7.43-22.511 25.917 3.533-.185 8.141 1.214 13.821 4.195 5.702 2.906 15.033 5.411 27.998 7.515 12.961 2.098 33.954 7.043 62.976 14.837 24.779 6.735 43.874 12.871 57.278 18.41 7.861 1.5 8.238-.506 1.129-6.018-7.04-5.478-12.003-8.713-14.895-9.708-2.878-1.009-9.864-4.261-20.956-9.756-11.102-5.502-21.389-10.936-30.865-16.304a491.346 491.346 0 0 0-28.728-14.759M225.095 106.8c-.604-.162-1.522.239-2.754 1.204-.952.777-1.629 1.485-2.029 2.13.796.05 1.459.147 1.987.29-.528-.142-1.191-.24-1.987-.29a3.198 3.198 0 0 0-.327.762c-.244.908.106 1.569 1.047 1.983l2.268.608c2.267.608 4.108.697 5.519.266.897-.327 3.053-1.57 6.47-3.732-.823.347-2.364.054-4.625-.878-3.184-1.42-5.04-2.201-5.569-2.343m1.41 2.444l.145-.083.679.182.075.628c.055.096.062.221.021.371a1.05 1.05 0 0 1 .484.009c-.061.226.022.369.249.43.091.269.01.57-.244.908-.02.076-.078.141-.173.196-.349.393-.62.645-.811.756l.235-.424-.113-.03a.798.798 0 0 1 .378-.506l.114.03c.151.041.274.034.37-.021.253-.338.334-.639.244-.908-.227-.061-.31-.204-.249-.43a1.05 1.05 0 0 0-.484-.009c.035.171.013.407-.068.71-.02.075-.089.178-.206.311a1.123 1.123 0 0 1-.553.701l-.122.454-.339-.091-.34-.091-.454-.122.122-.454.122-.454-.68-.183c.348-.394.563-.739.644-1.042l.34.091.183-.68c.154.037.297-.046.431-.249m4.102 1.466c.082-.303.235-.424.462-.363-.082.304-.409.619-.984.951.123-.453.296-.649.522-.588m.462-.363c-.227-.061-.38.06-.462.363-.227-.061-.4.135-.522.588.575-.332.903-.647.984-.951m-4.932 2.08l.339.091.122-.454c-.227-.058-.381.064-.461.363m-.445-.606l-.227-.061-.122.454.454.122c.061-.228.025-.399-.105-.515m.37-.022l-.143.083-.227-.061c.13.116.167.287.105.515l.34.091c.08-.299.234-.421.461-.363a1.994 1.994 0 0 1-.536-.265m-.475-.492l-.122.454.227.061.227.061.143-.083a1.457 1.457 0 0 0-.475-.493m.454.121a1.05 1.05 0 0 0-.423-.235l-.03.113.453.122m.112.03l-.113-.03-.454-.122c.207.136.364.302.475.493l.092-.341m.9.728l.113.03c.172-.034.26-.212.265-.536a.794.794 0 0 0-.378.506m.491-.476l-.114-.03c-.005.324-.093.502-.265.536l-.235.424c.191-.111.461-.363.811-.756.095-.055.153-.12.173-.196-.095.056-.219.063-.37.022m-.393-.347l-.34-.091-.212.792c.287-.165.471-.4.552-.701m-.453-.121l-.341-.091c-.041.15-.108.253-.204.308l.228.061c.095-.056.201-.148.317-.278m-.135-.403l.339.091c-.221-.066-.303-.212-.248-.432l-.091.341m.34.092l-.092.341.34.091c-.22-.069-.304-.212-.248-.432m-.205.311c.113-.129.181-.231.205-.311l-.339-.091c-.021.076-.079.141-.175.195.127.115.23.183.309.207m.113.03l-.113-.03c-.117.13-.222.223-.317.278l-.228-.061-.091.341c.204.133.382.222.537.265l.212-.793m-.113-.03l.113.03.092-.341c-.024.079-.091.182-.205.311m-.341-.092l-.226-.061-.091.338.113.03c.096-.054.164-.156.204-.307m.032-.115l-.031.116.341.091c-.08-.024-.183-.092-.31-.207m-.598-.037l-.113-.03-.061.226c.095-.055.154-.121.174-.196m.378-.506l-.03.113c.076.02.142.079.197.173.08-.298.196-.429.349-.393l-.34-.091-.176.198m-.09.339l.145-.083a.775.775 0 0 0-.433.25l.288-.167m.052.259l.092-.342-.145.083-.288.167c-.02.075-.078.141-.173.195.151.041.292.119.423.235l.091-.338m.175-.198l-.174.198.226.061.031-.116c.02-.075-.008-.123-.083-.143m.03-.114l-.03.113c.075.021.103.068.083.143.096-.054.154-.12.175-.195l-.228-.061m0 0l-.113-.03-.092.342.174-.198.031-.114m-.566-.152c.151.041.274.034.37-.021l-.248-.432-.122.453m-.092.342l.092-.341.122-.454-.34-.091c-.082.303-.296.649-.644 1.042l.68.183.03-.113.06-.226m.092-.342l-.092.341.113.03a.771.771 0 0 1 .433-.25l.113.03c-.055-.095-.121-.153-.197-.173-.096.056-.219.063-.37.022m.575-.332l-.454-.122.248.432.03-.113.176-.197m.71.07l-.03.113-.122.454c-.056.22.028.364.249.433.116-.132.186-.235.206-.311.082-.303.104-.54.068-.71-.076-.021-.199-.013-.371.021m-.4.135l.03-.113c-.153-.036-.269.094-.349.393l.228.061c.037-.142.067-.255.091-.341m.369-.022l-.339-.091-.03.113c-.055.22.027.365.248.432l.121-.454m-.339-.091c.155.039.278.032.37-.021l.152-.567-1.133-.304-.183.68.454.122.34.09m.37-.022c-.091.054-.214.061-.37.021l.339.091.031-.112m-.406-1.203l-.145.083c-.134.204-.277.287-.431.25l1.133.304-.152.567c.172-.035.295-.042.371-.022.04-.15.033-.275-.021-.371l-.075-.628-.68-.183m401.36 149.036l.113.03a55.236 55.236 0 0 1 3.448-.169 191.901 191.901 0 0 1-4.038-.353c.113.193.271.357.477.492m50.236.723c-1.048.286-2.278.645-3.69 1.077-2.386.736-4.154 1.437-5.303 2.099a28.414 28.414 0 0 1 1.775-.738 432.238 432.238 0 0 0 7.218-2.438m13.871 128.524l2.512 2.86c-12.413-15.321-20.104-25-23.072-29.036-3.243-4.516-6.195-8.913-8.854-13.191 3.588 6.553 7.094 12.354 10.519 17.405 5.531 8.369 10.387 13.966 14.57 16.791a123.546 123.546 0 0 0 4.325 5.171m10.283 12.846l.454.121a1187.574 1187.574 0 0 0-8.059-9.816 20.852 20.852 0 0 0 1.032 2.949c1.512 3.726 3.704 5.976 6.573 6.746m2.182 2.287c.09.267.219.545.385.832.312.651.649 1.349 1.018 2.097 2.511 5.131 4.411 7.867 5.695 8.212.755.202 1.399.214 1.936.032a3421.371 3421.371 0 0 0-9.034-11.173m-2.35-23.84c.436 2.303.743 3.724.923 4.256 1.445 6.384 2.76 11.153 3.938 14.304.477.939 2.259 4.413 5.342 10.427 1.032 1.897 1.839 3.571 2.419 5.022.512-.997.777-1.533.797-1.608.061-.226-1.006-2.74-3.201-7.543-.399-.916-.858-1.933-1.37-3.04-3.712-8.207-6.248-14.154-7.608-17.84a38.747 38.747 0 0 1-1.24-3.978m-3.79-23.012a20.879 20.879 0 0 1-.172-1.626c-.245-1.2-.637-2.602-1.18-4.205-.971-3.016-1.543-5.113-1.712-6.293-.15-1.256-.491-3.452-1.026-6.593-.65-3.011-1.03-5.221-1.139-6.627a340.236 340.236 0 0 0-.596-10.003c-.922 4.938-.236 13.103 2.055 24.49 1.245 5.927 2.888 13.091 4.925 21.496a101.564 101.564 0 0 1-1.079-10.012c-.035-.173-.044-.297-.024-.371-.055-.095-.072-.181-.052-.256m9.75-111.491c-.882.573-1.814 1.175-2.793 1.802-2.661 1.474-5.897 3.116-9.707 4.928-7.595 3.554-12.141 5.694-13.633 6.429-.289.165-.709.377-1.264.634 8.613-3.116 14.738-5.564 18.375-7.344 7.409-3.762 15.887-7.725 25.43-11.887-4.683 1.741-8.968 3.223-12.861 4.446-1.22.321-2.4.652-3.547.992M163.392 118.918l.332.576a14.598 14.598 0 0 0 2.678 3.149l.621.409a78.15 78.15 0 0 1-3.631-4.134m344.697-30.586c-.767.442-1.506.932-2.217 1.47a2.067 2.067 0 0 0-.719.414c-2.779.389-4.985 1.214-6.62 2.477-5.213 4.029-11.535 9.784-18.975 17.267-.771.764-3.441 4.828-8.01 12.188 1.728-2.208 3.76-4.5 6.098-6.87 8.44-8.508 13.309-13.521 14.607-15.036 3.026-3.723 8.371-7.19 16.037-10.399 5.049-2.21 9.483-3.491 13.305-3.842-5.134-.487-9.638.291-13.506 2.331M194.081 99.205c-2.663.259-4.772.421-6.33.489-1.633.049-2.677.01-3.129-.111l-.567-.152c-3.195.439-6.069.882-8.62 1.333-3.999.709-7.286 1.488-9.863 2.335-.493.029-.913.08-1.255.149-.323-.006-.58.046-.771.159a5.17 5.17 0 0 0-.696.784c14.632-3.203 32.641-5.255 54.028-6.158 23.891-.879 46.379-.151 67.464 2.188 7.009.747 16.953 1.431 29.829 2.051 2.807.105 5.528.229 8.164.369l-.167-.287c-.517-.787-1.267-1.313-2.25-1.577-.227-.061-2.525.051-6.896.337-2.375.092-5.227-.147-8.557-.718a77.199 77.199 0 0 1-5.64.188l-1.792-.115a41.226 41.226 0 0 0-.227-.061c-1.242-.051-2.484-.1-3.728-.15-3.014-.242-6.49-.567-10.432-.977l-2.358-.268a824.831 824.831 0 0 1-7.044-.919c-5.402-.396-19.053-1.305-40.949-2.727-7.253.159-12.364.489-15.334.988-1.179.17-4.962.531-11.35 1.086-.095.055-.22.063-.37.022-.973.306-2.394.613-4.258.924-1.864.307-4.167.582-6.902.818m347.855 78.535c-.124-.439-.25-.879-.375-1.316l-.078 1.194.453.122m-4.877-27.556l.122-.454.03-.113c.832-3.1.476-9.473-1.065-19.122.077 7.554.383 14.118.913 19.689m-2.052-49.404c1.287-.87 2.102-1.947 2.446-3.231.669-2.495-.184-4.748-2.56-6.763a7.31 7.31 0 0 1 .699 2.374c.016.249-.503 4.443-1.556 12.586-.297 2.918-.058 7.154.722 12.709.118.762.201 1.514.245 2.253.152-4.494.237-8.281.253-11.355.003-3.319-.082-6.178-.249-8.573m101.064 145.486l5.525 1.604a.469.469 0 0 1-.196-.174c-1.43-.539-3.207-1.015-5.329-1.43z"/><path fill="#162232" d="M615.99 241.849c.483.614.929 1.22 1.336 1.816.168.287.38.548.644.779l.792.213c.417-.049.828-.06 1.225-.036-.336-.252-.656-.418-.959-.5a1.935 1.935 0 0 1-.537-.265c-.544-.39-1.376-1.057-2.501-2.007m15.136 18.766c.056.096.121.152.198.173-.538-.711-.767-1.219-.687-1.52.102-.378.354-.717.758-1.012a.763.763 0 0 1 .431-.25l-.113-.03c-.074-.02-.122.007-.143.082-1.14.02-2.289.076-3.448.169.977.587 1.978 1.383 3.004 2.388m13.368 42.109l-1.073-.531-.226-.061c.165.287.274.642.324 1.058.055.099.1.231.134.402.159.609.592 2.022 1.294 4.235a29.048 29.048 0 0 1-.453-5.103M236.459 157.729c.201.458.374.87.52 1.234 2.172-.552 4.659-1.059 7.457-1.523 3.484-.605 6.718-1.033 9.703-1.287a22.12 22.12 0 0 0-.354-.944c.487.293.938.578 1.351.849 4.356-.533 8.061-.753 11.115-.662a36.258 36.258 0 0 0-5.677-1.037 23.607 23.607 0 0 0-3.469-.203c-.343.069-.627.074-.854.013l-.114-.031a8.227 8.227 0 0 0-1.111.068 45.628 45.628 0 0 0-3.222.229 31.84 31.84 0 0 0-4.537.604 53.703 53.703 0 0 0-3.342.682c-1.372.28-2.715.608-4.032.985a5.774 5.774 0 0 0-.658.187c-.877.252-1.802.53-2.776.836m19.512-8.859a68.598 68.598 0 0 1-1.534-.169 23.817 23.817 0 0 0-.782 2.462c-.304 1.134-.536 1.843-.692 2.124-1.951-2.386-3.015-4.008-3.191-4.865a8.793 8.793 0 0 0-1.564-.057c-1.671-.04-3.72-.104-6.146-.19 1.619 3.026 2.692 4.61 3.221 4.752l.039-.597.135.402-.115-3.193.115 3.193-.135-.402-.039.597c-.529-.142-1.603-1.726-3.221-4.752-1.399.014-2.937.005-4.611-.022l-.387.987-.062.229c.015.246-.048.634-.19 1.163l-.03.113c-.032.721-.066 1.604-.102 2.645l-.062.229c.025-.399-1.076-2.031-3.304-4.898-.075-.021-.14-.078-.195-.174l.03-.112.166.286c2.228 2.867 3.33 4.499 3.304 4.898l.062-.229c.036-1.042.07-1.924.102-2.645-.061.226-.206.311-.433.25-.528-.142-.941-.417-1.237-.819-.201-.459-.251-.878-.15-1.255.183-.68.594-.854 1.234-.521.432.199.701.554.806 1.069l.062-.229.387-.987a116.67 116.67 0 0 1-2.275-.126c-1.612-.027-3.718.422-6.315 1.342.742 3.278 1.142 5.859 1.205 7.738l-.03.113-5.101-6.351a4.59 4.59 0 0 0-.833.384c-2.027.913-3.843 1.641-5.447 2.184a36.39 36.39 0 0 0 3.581 2.052c.006-.321.021-.682.046-1.079l.114.031c.467.367 1.019.88 1.653 1.535.076.021.179.088.31.207.055.096.147.201.279.317 2.589.614 4.856 1.223 6.801 1.826.341-2.178.519-3.749.536-4.718l.608-2.267.227.061c1.624 2.705 2.84 4.814 3.649 6.326a113.19 113.19 0 0 1 2.776-.835l-.34-.091.173-.195c-.154-.934-.154-2.593.001-4.981l.518-1.929c.146.365.887 1.373 2.225 3.028l2.113 2.997a54.441 54.441 0 0 1 3.342-.682l.244-.907c-.168-2.395-.167-4.056 0-4.981.488.292 1.157 1.12 2.006 2.482.89 1.212 1.653 2.145 2.286 2.802a44.998 44.998 0 0 1 3.222-.229c.162-.605.305-1.741.429-3.41l.516-1.927m.567.152c1.744.143 3.295.398 4.655.763.832.223 1.999.859 3.498 1.909 1.032.683 1.879 1.152 2.538 1.412-1.667-1.339-2.822-2.621-3.464-3.847a3.118 3.118 0 0 1-.406-1.203c-.494.028-1.044-.038-1.648-.201-.754-.202-3.687-1.353-8.795-3.452-4.232-1.136-8.853-1.121-13.864.046-1.393.354-4.198 1.303-8.42 2.843-1.144.341-3.548 1.599-7.211 3.777a21.937 21.937 0 0 1-5.006 1.45 5.82 5.82 0 0 0-.492.476c.206.136.45.282.731.441 1.604-.543 3.42-1.271 5.447-2.184a4.56 4.56 0 0 1 .833-.384 41.262 41.262 0 0 1 3.926-1.5c2.597-.92 4.703-1.37 6.315-1.342.796.052 1.555.094 2.275.126 1.674.027 3.212.036 4.611.022 2.426.086 4.476.15 6.146.19a8.7 8.7 0 0 1 1.564.057c1.689.047 3.244.14 4.665.279.549.066 1.061.124 1.534.169l.031-.115.454.122.083.146m8.769-8.22c.13.116.262.232.392.35l.083.143c.191-.11.374-.185.544-.219a2.227 2.227 0 0 0-.649-.295c-.075-.021-.199-.013-.37.021m.943 14.594c1.765.067 3.309.199 4.634.391l-.196-.173a7.915 7.915 0 0 1-1.435-.993 4.672 4.672 0 0 1-.816-.582 10.97 10.97 0 0 1-1.208-.932c-.659-.26-1.506-.729-2.538-1.412-1.5-1.05-2.667-1.686-3.498-1.909-1.36-.365-2.911-.62-4.655-.763 2.062 2.578 3.408 4.356 4.036 5.336 1.971.204 3.863.55 5.676 1.037m9.566 13.259l-.249-.43-.843-2.293a3.447 3.447 0 0 1-.327.764c.05.417.522 1.071 1.419 1.959m26.563-54.601c1.168.475 1.866.743 2.094.804l.696-.784a25.913 25.913 0 0 0-.226-.061c-.893.003-1.747.016-2.564.041m34.87-1.336l.091-.339c-.871-.073-1.818-.166-2.842-.279a14.751 14.751 0 0 0-1.565-.055l1.194.079c1.08.207 2.119.405 3.122.594m332.331 184.83c-.272.411-.555.862-.85 1.351l.112.03c.37-.468.701-.946.993-1.436-.073-.019-.159-.002-.255.055m-6.957-17.543c-.48.274-1.803 1.135-3.976 2.579.131.114.301.241.507.377 2.349-1.8 3.578-2.766 3.694-2.896l-.225-.06m53.751-18.264c-.136.206-.282.451-.438.732a23.012 23.012 0 0 1 1.998-2.016c-.5.354-1.019.781-1.56 1.284M307.937 141.793l.061-.226c-1.212-1.218-3.029-3.203-5.448-5.96a14.348 14.348 0 0 1-1.972-1.257c4.362 4.574 6.815 7.055 7.359 7.443M539.03 306.742l-.083-.144a8.328 8.328 0 0 1-1.875-.259c-.529-.142-1-.352-1.413-.624.729.602 1.474 1.003 2.228 1.206.229.061.598.038 1.112-.064l.031-.115m-.083-.143l.083.144a1.57 1.57 0 0 0 .657-.187c-.27.043-.516.057-.74.043m-9.28-11.605a8.106 8.106 0 0 1 .016-.968l-.445-.605a8.26 8.26 0 0 0 .429 1.573m.016-.968c-.024.372-.03.695-.016.968.363 1.357.979 2.979 1.853 4.871l.082.146c.312.651 2.761 2.847 7.346 6.588-5.008-4.584-7.863-7.982-8.565-10.198l-.7-2.375m-11.577-3.958c.264.231.45.445.561.637.558.637 1.177 1.045 1.856 1.228 2.192.589 5.096 1.085 8.714 1.488l.445.605-.479-1.83a760.7 760.7 0 0 1-11.097-2.128m21.809 16.548a.375.375 0 0 1-.228-.061c-.207.11-.429.174-.657.187.283-.021.576-.064.885-.126M491.74 283.72l7.143 1.917a263.282 263.282 0 0 0 12.785 3.068l4.604.508c.757.203 1.369.488 1.835.855 3.536.707 7.236 1.416 11.097 2.128-.343-1.146-.572-2.097-.691-2.86-2.473-.744-4.614-1.52-6.422-2.331-3.847.751-8.795.315-14.839-1.307-.832-.224-6.343-2.028-16.533-5.411-.302-.081-1.132.142-2.489.669-.364.146-.839.261-1.43.347 1.864.904 3.509 1.711 4.94 2.417m58.532 18.263c.076.021.161.003.257-.054 1.18-.168 2.538-.25 4.076-.242l.227.061c.251-.337.543-.664.871-.981a5.985 5.985 0 0 1 1.157-1.147c.115-.13.216-.348.297-.648.162-.604-.228-1.114-1.17-1.529-2.022 1.803-3.929 3.318-5.715 4.54M351.981 227.62a1.92 1.92 0 0 0-.537-.265c-.192.109-.403.295-.637.558a8.365 8.365 0 0 0-1.227 1.856c.302.082.557.19.763.328a59.476 59.476 0 0 1 1.638-2.477m210.502 69.618c-.007.324-.022.685-.048 1.081a106.22 106.22 0 0 0 2.336-.101c2.676-.011 5.067-.018 7.175-.019-3.015-.241-6.169-.56-9.463-.961m-63.6-11.601l-7.143-1.917c3.877 1.853 5.854 2.787 5.93 2.808.908.243 2.986.641 6.242 1.19 3.127.434 4.763.671 4.913.711l2.843.276a264.458 264.458 0 0 1-12.785-3.068m76.831-22.76l.394.347a1.776 1.776 0 0 0-.363-.46l-.031.113m82.615 77.95c-4.55-8.108-8.008-15.597-10.373-22.472 1.13 4.842 2.146 8.598 3.051 11.271 2.311 6.777 4.602 10.47 6.869 11.078.15.042.304.083.453.123m-11.251-37.773a1.444 1.444 0 0 0-.187-.657c-.021.075-.078.14-.174.194.09.268.17.572.239.914l.122-.451m-30.26-1.804c-1.518-.082-2.91-.173-4.18-.271-3.79-.37-11.146-.884-22.066-1.546l21.866 3.194c2.103.321 3.503-.071 4.207-1.181.021-.075.076-.141.173-.196m0 0c.486-.598 1.306-.945 2.466-1.04-2.575-.365-5.927-.697-10.062-.998-8.717-.719-13.266-1.13-13.644-1.231-1.059-.284-1.934-.641-2.628-1.071a64.224 64.224 0 0 0-2.358-.267c-3.589.09-6.595-.189-9.013-.839l-.793-.213a1086.69 1086.69 0 0 0-6.9-1.002c-.474-.047-4.82.002-13.04.146 1.075.208 1.623 1.043 1.637 2.504 3.294.4 6.447.72 9.463.962 3.665-.07 6.2-.159 7.605-.269.873.073 4.546.572 11.021 1.501 10.921.662 18.276 1.176 22.066 1.546 1.27.098 2.663.189 4.18.271m33.907-28.084c-.23.261-.465.523-.696.784.015.248.004.446-.037.598.28.158.602.325.958.5 6.754-6.451 11.439-9.567 14.054-9.352a360.364 360.364 0 0 1 3.211-2.905c.231-.264.578-.493 1.038-.695-5.447 2.185-9.853 4.405-13.212 6.663l-1.529 1.17c-1.519 1.13-2.706 2.231-3.558 3.299l-.229-.062m-.936-.131c.145.364.225.668.239.915.231-.261.466-.523.696-.784a3.928 3.928 0 0 0-.935-.131m-13.938-7.386a18.908 18.908 0 0 1-1.063-1.015c.058.097.147.201.279.318 2.311 2.563 4.229 4.619 5.759 6.164.434.196.893.44 1.383.734 1.006 1.081 1.902 1.969 2.686 2.667a126.005 126.005 0 0 1-3.803-3.938 12.1 12.1 0 0 0-.839-.954 153.226 153.226 0 0 1-4.316-3.833l-.086-.143m58.777 124.656c.053.091.11.187.167.29-.053-.103-.072-.188-.054-.259l-.113-.031m5.524-21.485a55.583 55.583 0 0 0-.556-2.456c.588 4.451 1.465 8.574 2.635 12.373-.565-2.421-1.258-5.726-2.079-9.917m3.176 32.085l.083.143c.353.501.742 1.009 1.17 1.529-.366-.747-.706-1.444-1.018-2.096a1.32 1.32 0 0 1-.597-.04c.097.169.218.323.362.464m1.638 2.504a4.629 4.629 0 0 1-.385-.832 26.056 26.056 0 0 1-1.17-1.529 205.7 205.7 0 0 0 1.555 2.361m-6.473-47.428c-.02.074-.011.198.024.371.206 3.457.564 6.795 1.079 10.012.196.781.381 1.6.556 2.456.82 4.19 1.514 7.496 2.079 9.917a38.747 38.747 0 0 0 1.239 3.978c1.36 3.686 3.896 9.633 7.608 17.84.512 1.107.971 2.124 1.37 3.04l.03-.113a665.19 665.19 0 0 1-13.985-47.501m-39.222-13.686a282.842 282.842 0 0 0 3.431 5.782 297.509 297.509 0 0 1-3.226-6.092c-9.382-18.478-13.587-31.029-12.618-37.654a23.16 23.16 0 0 0-1.127-.789 1.029 1.029 0 0 1-.421-.234 4.746 4.746 0 0 0-.816-.584c.007 1.784.158 3.486.453 5.104.145.363.309.813.488 1.346.883 2.75 1.517 5.065 1.903 6.952.194.781.399 1.524.617 2.23 2.365 6.875 5.823 14.363 10.373 22.472.096-.055.219-.062.369-.021.203.457.393.953.574 1.488m3.431 5.782a287.483 287.483 0 0 1-3.431-5.782c1.626 4.811 4.131 10.264 7.518 16.355 7.53 13.606 12.918 20.847 16.168 21.719.603.161 1.19.238 1.762.229 4.162 6.221 7.865 10.535 11.108 12.945a20.852 20.852 0 0 1-1.032-2.949c-.057-.104-.114-.199-.167-.29l-2.512-2.86a124.197 124.197 0 0 1-4.325-5.171c-4.184-2.825-9.039-8.422-14.57-16.791-3.425-5.051-6.931-10.852-10.519-17.405m35.161-36.378a3573.217 3573.217 0 0 0-4.994 7.289 10 10 0 0 0-.252 1.39c.217 2.814.415 6.147.596 10.003.108 1.406.488 3.616 1.139 6.627.535 3.141.876 5.337 1.026 6.593.169 1.18.741 3.277 1.712 6.293.543 1.604.935 3.005 1.18 4.205a4936.074 4936.074 0 0 0-3.624-25.885c-.495-3.292-1.08-6.083-1.763-8.372 1.368-2.388 3.03-5.101 4.98-8.143m22.178-31.474a301.325 301.325 0 0 1 3.925-4.659 100.837 100.837 0 0 0 3.75-4.462c-.793.841-1.645 1.747-2.553 2.718-1.414 1.645-3.122 3.781-5.122 6.403m-14.643-34.189a1633.247 1633.247 0 0 1-10.811 4.511c-.458.202-7.81 3.292-22.052 9.271-7.192 3.256-12.692 6.235-16.496 8.94 3.359-2.258 7.765-4.479 13.212-6.663 1.148-.662 2.917-1.362 5.303-2.099 1.412-.433 2.643-.791 3.69-1.077.992-.381 1.844-.68 2.55-.894.555-.257.975-.469 1.264-.634 1.492-.734 6.038-2.875 13.633-6.429 3.81-1.81 7.046-3.452 9.707-4.926m22.318 25.068c2.401-2.918 4.363-5.39 5.877-7.413.191-.112.336-.194.432-.25 4.156-4.313 7.289-7.685 9.398-10.116a526.072 526.072 0 0 0 6.734-7.428 583.57 583.57 0 0 1-6.438 6.779c-14.549 14.971-22.113 22.783-22.696 23.438-2.363 2.767-5.438 6.682-9.227 11.741-3.809 5.134-6.613 8.796-8.417 10.986.161.61.201 1.064.119 1.369-.933 3.475-3.579 8.354-7.94 14.639a160.581 160.581 0 0 1-3.091 4.273c.051.42.101.836.15 1.255a10 10 0 0 1 .252-1.39c1.731-2.533 3.396-4.963 4.994-7.289.061-.226.148-.404.265-.537 5.387-8.599 8.918-14.213 10.597-16.84.873-1.144 2.126-2.794 3.758-4.947 1.727-2.209 4.245-5.259 7.559-9.15 2-2.622 3.708-4.758 5.122-6.403.907-.97 1.759-1.877 2.552-2.717M167.022 123.052c1.005 1.081 2.011 2.161 3.018 3.24a4.927 4.927 0 0 1-.058-1.594 9.236 9.236 0 0 1-2.96-1.646m3.019 3.24c-1.007-1.08-2.013-2.159-3.018-3.24l-.621-.409c.835 1.114 2.093 2.465 3.774 4.051a1.411 1.411 0 0 0-.135-.402m-11.758-13.241c.296.403.631.818 1.003 1.24 1.615 2.135 3.093 3.869 4.438 5.202l-.332-.576-.113-.03-.084-.144-.166-.287a65.558 65.558 0 0 1-4.774-7.115 4.299 4.299 0 0 1-.16 1.051c.034.172.097.391.188.659m6.033-9.803a9.042 9.042 0 0 1 1.255-.149c2.577-.847 5.864-1.626 9.863-2.335-5.277.04-8.983.868-11.118 2.484m-6.915 3.126c.055.096.101.231.135.402l.03-.113c.082-.304.228-.546.44-.734a1.132 1.132 0 0 0-.605.445m4.873-1.852c-.056-.096-.122-.153-.197-.174-.857.173-1.714.349-2.571.525a.347.347 0 0 0-.257.052c-.479.277-.892.61-1.241 1.003a1.448 1.448 0 0 0-.44.734l-.03.113c.568 1.206.82 2.529.758 3.97a1.32 1.32 0 0 1-.04.597 65.46 65.46 0 0 0 4.774 7.115 12.248 12.248 0 0 1-.851-1.809 91.894 91.894 0 0 0-1.092-2.723c-.846-.469-1.542-1.347-2.09-2.626-.603-1.376-.782-2.519-.539-3.426.344-1.285 1.616-2.401 3.816-3.351m-1.148-1.157l-.145.082c-.368.468-.861.944-1.476 1.427a731.1 731.1 0 0 1 2.571-.525c-.316-.33-.633-.657-.95-.984m16.547 29.352c7.625 5.775 13.04 9.294 16.246 10.558a428.088 428.088 0 0 0-7.083-5.305c-2.715-1.678-5.77-3.428-9.163-5.253m16.556-4.186l.68.183.114.03c.15.041.58-.046 1.286-.263a1.278 1.278 0 0 0-.598-.037c-.569.009-1.063.037-1.482.087m55.543 19.891c.176.856 1.24 2.479 3.191 4.865.156-.28.388-.99.692-2.124.264-.981.524-1.803.782-2.462a67.411 67.411 0 0 0-4.665-.279m2.66.956c.418-.049.713-.091.885-.128.302.081.344.377.127.886l-.229 1.762c-.122.454-.372.629-.75.527l-1.567-3.217.204-.308.371-.021c-.041.15.053.256.28.317.116-.131.286-.166.513-.104-.04.15.015.245.166.286m-.628 5.058c-.633-.657-1.396-1.59-2.286-2.802-.849-1.363-1.519-2.19-2.006-2.482-.167.926-.168 2.587 0 4.981l-.244.907a31.79 31.79 0 0 1 4.536-.604m-1.555-.541l-.803.271c-.534.181-.953.23-1.256.149l-.225-.061c-.228-.061-.384-.385-.468-.975-.009-.569.037-1.044.139-1.423.203-.755.5-.959.893-.61.282.157.803.783 1.563 1.877l-.03.113c.224.061.288.283.187.659m-17.254 4.969a11.593 11.593 0 0 1-1.556-.538l-.334 1.246a10.75 10.75 0 0 1 1.89-.708m-12.641 4.993l-.091.34c-.284 1.057-.131 2.151.457 3.282a6.246 6.246 0 0 0 1.282 1.559 21.608 21.608 0 0 1-1.648-5.181m1.983-1.048c-.071-.342-.1-.836-.089-1.481-.822.347-1.423 1.075-1.803 2.188.63-.234 1.261-.471 1.892-.707m0 0a10.612 10.612 0 0 1 1.747-.624l-.566-.152c-.227-.061-.431-.359-.611-.894l-.113-.03a1.884 1.884 0 0 0-.545.219c-.012.645.017 1.139.088 1.481m2.301-6.309c.13.116.224.221.279.317 1.299.593 2.75 1.224 4.351 1.899-.596.407-1.255.755-1.983 1.046.241.31.435.644.581 1.008 1.11-.514 2.19-.913 3.239-1.199l.334-1.246c-1.945-.602-4.212-1.21-6.801-1.825m.279.317a1.37 1.37 0 0 0-.279-.317l.166.287.113.03m2.368 2.945c-.266.09-.582.21-.945.354.014.248.001.446-.039.597-.041.151-.312.403-.811.755-.096.055-.153.121-.173.196a21.918 21.918 0 0 1 2.548-.895 4.126 4.126 0 0 0-.58-1.007m-4.889-5.32l-.114-.031c-.025.396-.041.758-.046 1.079.282.159.526.305.732.441.273-.413.634-.397 1.081.045-.634-.654-1.187-1.167-1.653-1.534m16.5 2.361l.34.091c-.055-.096-.11-.191-.167-.286l-.173.195m-1.917 2.16a41.997 41.997 0 0 0-.52-1.234 69.48 69.48 0 0 0-3.465 1.135 10.81 10.81 0 0 0-1.89.708 20.658 20.658 0 0 0-3.239 1.199c-.876.249-1.727.548-2.548.895-.48.276-.891.449-1.234.52-.61.16-1.193.369-1.747.624l-1.892.708-.092.341a21.71 21.71 0 0 0 1.647 5.181l.114.031c-.156-.934-.131-1.777.072-2.532.834-3.101 5.764-5.625 14.794-7.576m-4.396-7.621l-.608 2.267c-.017.969-.195 2.54-.536 4.718.509.217 1.028.396 1.556.538a69.48 69.48 0 0 1 3.465-1.135c-.809-1.512-2.025-3.622-3.649-6.326l-.228-.062m.905 7.048l-.114-.031a1.933 1.933 0 0 1-.597-.04c-.378-.102-.504-.985-.381-2.653l.508-1.442.04-.597c.243-.907.719-.415 1.427 1.475l.798 1.553c.277.478.395.793.354.944-.081.304-.273.413-.576.332l-.113-.03c-.293.488-.742.651-1.346.489m-3.454-1.17l.03-.113c-.063-1.879-.463-4.46-1.205-7.738-1.24.398-2.549.897-3.926 1.5l5.101 6.351m-1.141-4.804c.3 1.296.43 2.021.389 2.171-.081.302-.235.424-.462.363-1.518-2.19-2.236-3.437-2.155-3.74.203-.754.757-1.012 1.665-.769.528.142.751.366.671.667-.127.778-.163 1.213-.108 1.308m4.225-3.969c.055.096.12.153.195.174l-.166-.286-.029.112m6.469 1.25l-.518 1.929c-.155 2.388-.155 4.047-.001 4.981.057.095.111.19.167.286a5.99 5.99 0 0 1 .658-.187 53.065 53.065 0 0 1 4.032-.985l-2.113-2.997c-1.338-1.655-2.079-2.662-2.225-3.027m-.022 4.613l.44-.734c-.201-.458-.272-.801-.211-1.027.203-.757.711-.537 1.526.652.87 1.287 1.265 2.082 1.183 2.384-.081.301-.273.411-.575.33a15.164 15.164 0 0 0-.228-.061c-.267.092-.619.199-1.058.323-.041.153-.137.208-.288.167l-.113-.03c-.302-.081-.506-.38-.611-.893-.125-.439-.146-.81-.065-1.111m-3.513-20.872c-1.36-.365-2.544-.481-3.553-.346l.68.183c.302.08 1.261.136 2.873.163m20.486 15.584l-.567-.152-.517 1.926c-.124 1.669-.267 2.805-.429 3.41.418-.05.789-.074 1.111-.068-.377-.102-.527-.303-.445-.606.02-.075.192-.11.515-.104-.015-.246-.02-.532-.014-.854-.079-.914-.097-1.445-.057-1.596.284-1.058.822-.954 1.616.313.815 1.189 1.171 1.976 1.07 2.352l-.061.228c-.061.226-.242.298-.545.217l-.227-.061c-.076-.021-.198-.013-.371.021-.171.037-.343.072-.514.106 1.139-.02 2.295.049 3.469.203-.626-.979-1.972-2.756-4.034-5.335m0 0l-.083-.146-.454-.122-.031.115.568.153m103.974 156.837c3.176-.363 5.759-2.14 7.75-5.332 2.469-5.577 4.596-8.975 6.382-10.196.787-.519 2.709-3 5.765-7.446a190.746 190.746 0 0 0 3.13-4.87c-4.013 3.783-8.078 8.97-12.196 15.562-3.013 5.188-5.26 8.432-6.745 9.734-1.237 1.287-2.598 2.136-4.086 2.548m-12.881-5.887l.03-.112a1.437 1.437 0 0 1-.279-.319c-1.353-1.901-2.48-4.19-3.383-6.862.251.878.604 1.823 1.061 2.837.696 1.665 1.554 3.15 2.571 4.456m.196.174l-.196-.174c.175.228.361.438.559.637a2.34 2.34 0 0 1-.363-.463m-4.538-12.521c-.063 1.443.175 3.126.71 5.053.903 2.672 2.03 4.961 3.383 6.862-1.865-3.012-3.23-6.983-4.093-11.915m25.345 7.896a18.65 18.65 0 0 1-1.015 1.064c-.607 1.053-1.36 2.35-2.26 3.891-1.87 2.738-3.684 4.52-5.444 5.344.172-.035.371-.021.597.039 1.488-.412 2.85-1.262 4.086-2.549 1.484-1.303 3.731-4.547 6.745-9.734 4.119-6.592 8.184-11.778 12.196-15.562.314-.564.606-1.053.88-1.466-4.794 2.765-8.855 7.184-12.187 13.255-1.818 3.159-3.018 5.065-3.598 5.718m-23.254-53.267c.791-2.947 1.427-5.167 1.908-6.658a9.28 9.28 0 0 0-.757 1.012c-1.228 1.858-2.035 3.506-2.42 4.94-.041.15-.595 4.781-1.663 13.895-.031.72-.08 1.354-.146 1.903l-.244.907c-1.582 5.895-1.784 12.686-.607 20.372.084.59.18 1.144.285 1.658-.058-.989-.108-2.014-.147-3.078-.535-11.89.728-23.54 3.791-34.951m1.938-6.771l-.03.112c-.48 1.491-1.117 3.711-1.908 6.658-3.063 11.411-4.326 23.062-3.791 34.951.039 1.064.089 2.089.147 3.078.28 1.37.618 2.677 1.014 3.917-.409-2.701-.644-5.601-.704-8.695-.323-12.076.479-21.705 2.406-28.884a79.085 79.085 0 0 1 1.85-3.271c.409-3.939.827-6.704 1.253-8.292a1.14 1.14 0 0 0-.237.426m1.468-4.104l.68.182.879-1.463a2.58 2.58 0 0 0-.763-.328c-.294.489-.56 1.025-.796 1.609m-46.669-19.451a931.394 931.394 0 0 0 10.333 4.962c15.792 5.453 28.056 9.716 36.792 12.789l.339.091a8.376 8.376 0 0 1 1.227-1.856c.233-.263.444-.448.637-.558-2.559-1.335-4.178-2.095-4.858-2.277-16.172-4.341-30.995-8.725-44.47-13.151m10.333 4.962a425.07 425.07 0 0 0 4.579 1.958c12.244 5.391 22.83 9.567 31.757 12.531.237-.584.502-1.12.795-1.609l-.339-.091c-8.736-3.074-21-7.336-36.792-12.789m111.222 45.161c.041-.15.054-.352.039-.597a9.404 9.404 0 0 1-1.498 1.055c-1.127 1.48-2.88 2.427-5.259 2.842l.567.151c1.663.446 3.198.01 4.606-1.314.868-.821 1.382-1.532 1.545-2.137m-20.798 4.139c-2.797.465-5.203 1.276-7.215 2.438-.48.277-1.44.99-2.884 2.143 2.335-1.156 5.703-2.682 10.099-4.581m-10.644 4.798c.191-.109.373-.183.544-.218 1.444-1.152 2.404-1.865 2.884-2.143 2.013-1.161 4.418-1.973 7.215-2.438.097-.054.192-.109.289-.166.898-.326 3.985-.509 9.262-.553 1.461-.012 2.689-.209 3.683-.59l.846.469c2.379-.415 4.132-1.361 5.259-2.842-1.302.623-3.16 1.056-5.574 1.3-2.909.273-8.271.778-16.083 1.516-2.188.305-4.519 1.744-6.993 4.322-.443.45-.887.895-1.332 1.343m74.259-142.662a2.21 2.21 0 0 0-.296.65l-.122.454.226.061a25.085 25.085 0 0 1 1.669-2.59 3.16 3.16 0 0 0-1.477 1.425m1.725-.996c.156-.281.352-.554.583-.814-.342.069-.619.197-.831.385a25.085 25.085 0 0 0-1.669 2.59c.077.021.18.088.312.204.524-.749 1.06-1.538 1.605-2.365m37.658-37.528a21.278 21.278 0 0 1 2.217-1.47c3.868-2.04 8.372-2.818 13.507-2.33 2.415-.244 4.603-.101 6.568.427a12.55 12.55 0 0 1 2.319.865c-.991-.833-1.912-1.323-2.765-1.471-1.55-.255-5.981-.35-13.289-.287-3.913 1.299-6.767 2.722-8.557 4.266m-304.888 8.583l-.114-.03c-1.769.254-4.033.536-6.79.85 2.736-.236 5.039-.511 6.904-.82m-13.233 1.309c1.558-.068 3.667-.23 6.33-.489-2.546.128-4.607.263-6.185.407l-.145.082m552.355 132.934c3.994-1.603 6.04-2.431 6.135-2.485a79.925 79.925 0 0 0-5.529 2.04c-.191.11-.395.257-.606.445m14.291-4.794a52.616 52.616 0 0 1 2.427-.44c-1.668-.125-3.852-.144-6.547-.058-1.437-.386-3.759.572-6.968 2.869a22.623 22.623 0 0 0-2.598 1.978 79.925 79.925 0 0 1 5.529-2.04c.172-.035.307-.079.402-.137 3.25-1.234 5.834-1.957 7.755-2.172m2.789.02c.19-.11.384-.22.575-.332a3.795 3.795 0 0 0-.937-.128c-.762.118-1.571.267-2.427.44 1.102-.188 1.995-.193 2.675-.011l.114.031m-27.48 8.667a89.8 89.8 0 0 1 2.034-.793c-.342.072-.723.132-1.142.181-4.038.86-6.708 1.603-8.009 2.225-2.55 1.343-6.165 3.045-10.852 5.109 3.894-1.224 8.179-2.705 12.861-4.446a207.59 207.59 0 0 1 5.108-2.276m2.034-.793c-.631.236-1.309.501-2.034.793a211.696 211.696 0 0 0-5.106 2.275 591.928 591.928 0 0 0 4.5-1.831 211.45 211.45 0 0 1 4.07-1.582c-.44.127-.914.241-1.43.345m-192.333-64.864c.206.136.403.31.589.521a27.122 27.122 0 0 1-.721-2.745l-.177.194a4.314 4.314 0 0 1-.377.506l-.031.115.333.573c.165.291.292.567.384.836m-7.187-81.889c-.612-.731-1.192-1.293-1.736-1.681a12.55 12.55 0 0 0-2.319-.865c-1.966-.528-4.153-.671-6.568-.427l.112.03c.323.006.674.06 1.052.161.645.009 1.384.127 2.214.35l.339.091c.171-.034.372-.021.598.04 2.306.457 4.409 1.224 6.308 2.301z"/><linearGradient id="a" gradientUnits="userSpaceOnUse" x1="421.58" y1="-152.193" x2="468.836" y2="565.319" gradientTransform="rotate(15.028 450.838 224.893)"><stop offset="0" stop-color="#8aa7ff"/><stop offset="1" stop-color="#8ee6f4"/></linearGradient><path fill="url(#a)" d="M640.223 302.792a56.32 56.32 0 0 1 2.245.239c.246-.018.598.037 1.052.158-.05-.416-.159-.771-.324-1.058-.901.334-1.893.555-2.973.661m-20.939-2.582c-1.16.095-1.979.442-2.466 1.04 1.441.063 3.007.118 4.695.166 1.385-.031 2.648-.058 3.788-.077l-.341-.092c-1.035-.358-2.93-.703-5.676-1.037M213.188 153.428c.594.808 1.405 1.105 2.434.895a6.296 6.296 0 0 0-1.104-.417l-.113-.03-.34-.091a7.874 7.874 0 0 1-.877-.357m-19.27-10.154c-3.206-1.264-8.621-4.782-16.246-10.558-.031.011-.069 0-.113-.03l-.114-.03c-.055-.098-.12-.156-.195-.176-.338-.252-.658-.418-.96-.5.937.738 1.938 1.534 3.005 2.388 10.867 8.774 22.165 15.126 33.892 19.06.311.147.604.266.878.356-.661-.257-1.184-.721-1.571-1.393l-1.701-.457c-4.986-1.338-9.459-3.39-13.416-6.153-.957-.66-2.11-1.497-3.459-2.507m25.218 11.992c1.077.208 2.108.445 3.09.708a1.025 1.025 0 0 1 .008-.484 36.592 36.592 0 0 1-3.581-2.052c-1.069.36-2.08.656-3.032.885l3.515.943m-.482-1.828a12.364 12.364 0 0 1-.731-.441c-1.113.893-2.247 1.196-3.404.909.4.112.768.251 1.104.417a35.832 35.832 0 0 0 3.031-.885m223.222 94.663l3.629.975c.02-.075-.575-.274-1.784-.6a27.854 27.854 0 0 1-1.845-.375m90.019 53.08c-.086-.348-.186-.737-.293-1.17l-.082-.146c-.874-1.892-1.489-3.514-1.853-4.871-.117 2.208.625 4.272 2.228 6.187m20.055.887a4.455 4.455 0 0 0-1.421-.139c-.096.057-.181.074-.257.054-1.331.892-4.86 2.415-10.585 4.572 6.237-2.18 10.323-3.676 12.263-4.487m-127.282-43.274c.055.096.063.218.021.371 2.75 1.222 5.51 2.41 8.28 3.559 19.407 8.286 38.996 15.286 58.771 20.996a809.455 809.455 0 0 0-4.941-2.417c-1.535-.008-3.742-.396-6.612-1.166-4.083-1.097-16.177-5.681-36.29-13.751-7.561-2.921-13.97-5.451-19.229-7.592m133.715 40.14c.075.021.123-.007.144-.082a2.037 2.037 0 0 0-.72.415c.19-.111.384-.223.576-.333m-46.715-10.229c2.061.473 4.207.925 6.438 1.363-.466-.367-1.078-.652-1.835-.855l-4.603-.508m147.03 52.101c-.15-.04-.273-.033-.369.021.275.478.591.968.942 1.468a17.949 17.949 0 0 0-.573-1.489m-13.262-31.633a28.95 28.95 0 0 0-.488-1.346c.644 3.333 1.647 6.844 3.009 10.528a41.364 41.364 0 0 1-.617-2.23c-.388-1.887-1.022-4.202-1.904-6.952m.295-5.631c.414.272.789.537 1.127.789l.122-.454-1.249-.335m-.42-.234c.13.116.271.194.421.234l1.249.335c-.034-.171-.045-.294-.023-.372a7.607 7.607 0 0 0-.239-.914c-.31.243-.664.511-1.068.808l-.34-.091m-66.344-4.559c4.231.242 8.098.471 11.605.684-6.475-.929-10.147-1.428-11.021-1.501-1.405.109-3.94.198-7.605.269 2.445.249 4.783.432 7.021.548m69.569-22.404c.095-.055.181-.072.256-.053l.177-.197c.075.021.123-.006.143-.081l.286-.166.03-.112c.356-.717.543-1.11.563-1.188a1.92 1.92 0 0 0 .037-.598c-.252.337-.504.677-.756 1.012a8.874 8.874 0 0 0-.736 1.383m2.189-3.179l.229.062c.852-1.067 2.039-2.169 3.558-3.299-1.499 1.055-2.762 2.135-3.787 3.237m65.65 143.879c-.135-1.009-.643-2.441-1.521-4.299-.368.469-.78.804-1.239 1.004a97.189 97.189 0 0 1 2.76 3.295m-13.521-16.634c.163.187.321.351.475.494a2.095 2.095 0 0 1-.361-.464l-.114-.03m17.187-120.186c-3.313 3.892-5.832 6.941-7.559 9.15a1913.044 1913.044 0 0 1-3.758 4.947c-1.679 2.627-5.21 8.241-10.597 16.84 9.368-13.766 16.673-24.082 21.914-30.937m-561.747-169.48l-.228-.061.167.287.061-.226m-.227-.061l.228.061c.063-1.44-.19-2.764-.758-3.97-.142.529-.08 1.355.186 2.48.139.686.254 1.163.344 1.429m-.06-4.756a4.968 4.968 0 0 1 1.241-1.003c.093-.053.178-.071.257-.052-.38-.1-.733.007-1.059.324-.211.185-.358.43-.439.731m4.698-1.656c-.151-.041-.36-.013-.628.076.076.021.141.078.197.174a.78.78 0 0 1 .431-.25m65.775 73.676c2.95 2.898 6.689 5.563 11.222 7.994 1.018.435 2.026.908 3.023 1.419-6.053-3.407-10.802-6.545-14.245-9.413m25.305-22.739c.144.364.263.678.354.944.343-.069.675-.101.997-.095a40.86 40.86 0 0 0-1.351-.849m-33.34 8.307c-.023.077-.071.104-.144.085.053.093.07.178.052.256l.092-.341m2.462-7.36l.061-.225a12.535 12.535 0 0 0-.732-.441 1.025 1.025 0 0 0-.008.484l.679.182m-.266.537c.061-.226.15-.406.266-.537l-.68-.183c-.06 2.334-.052 4.119.021 5.354.192-.11.373-.182.545-.219l.113.03c-.155-.931-.243-2.412-.265-4.445m3.309 1.254c.614.732 1.06 1.338 1.335 1.815a10.231 10.231 0 0 0 1.983-1.046 162.754 162.754 0 0 1-4.351-1.899c.316.33.661.704 1.033 1.13m.39 2.17c.363-.145.679-.264.945-.354-.276-.478-.721-1.083-1.335-1.815-.372-.425-.717-.8-1.033-1.129l-.113-.03.083.146c.925 1.378 1.409 2.44 1.453 3.182m159.887 115.58a.772.772 0 0 1 .432-.249l-.113-.03c-.746.366-1.455.744-2.126 1.131-.274.413-.566.901-.88 1.466a21.331 21.331 0 0 1 2.687-2.318m-26.6 30.287c.268-.089.563-.131.885-.125a1.304 1.304 0 0 0-.597-.039c-.096.056-.192.11-.288.164m-17.891-25.701c.355 4.714 1.109 8.844 2.263 12.395-.536-1.927-.773-3.609-.71-5.053a22.973 22.973 0 0 1-.539-3.425 37.682 37.682 0 0 1-1.014-3.917m7.729-48.722l-.68-.182a23.526 23.526 0 0 0-.981 2.29l-.487 1.814c.049-.161.127-.301.236-.425l.03-.111a131.504 131.504 0 0 1 1.882-3.386m-38.994-15.448l1.979.776a931.394 931.394 0 0 1-10.333-4.962 817.167 817.167 0 0 1-22.412-7.959c9.213 4.011 19.468 8.059 30.766 12.145m92.403 50.077a23.81 23.81 0 0 1 2.656-.382c5.256.035 9.026-.128 11.311-.488l.113.03-.846-.469c-.994.381-2.222.578-3.683.59-5.277.044-8.364.227-9.262.553-.097.057-.192.113-.289.166m-11.311 5.471a7.795 7.795 0 0 1 1.211-.891 1.846 1.846 0 0 0-.544.218 8.19 8.19 0 0 0-.667.673M467.966 126.9c.212-.188.489-.315.831-.385a538.548 538.548 0 0 1 2.752-4.367c-1.414 1.648-2.609 3.231-3.583 4.752m-143.13-24.076c-.796-.05-1.63-.112-2.502-.185.11.191.173.412.188.658a13.512 13.512 0 0 1 2.314-.473m430.425 137.638a339.422 339.422 0 0 1-5.104 5.435 538.645 538.645 0 0 1-6.734 7.428c-2.109 2.432-5.242 5.804-9.398 10.116l-.432.25c-1.514 2.023-3.476 4.495-5.877 7.413 7.947-8.479 13.873-14.868 17.781-19.166 3.675-4.037 6.932-7.862 9.764-11.476m2.5-12.941a.774.774 0 0 1 .432-.248c-.419.05-.875.089-1.368.12a3.8 3.8 0 0 1 .936.128m-26.021 8.207c.516-.104.99-.218 1.43-.345a229.74 229.74 0 0 1 6.937-2.755c.211-.188.414-.335.605-.445-2.769.957-5.76 2.14-8.972 3.545m-191.268-63.849l-.901-3.887-.295.649c.174.856.414 1.772.721 2.745.13.115.288.281.475.493m-4.38-41.643c.023-1.29-.34-4.465-1.088-9.527a39.007 39.007 0 0 1-.026 3.273c.013.248.056.542.125.885.311 1.867.639 3.657.989 5.369m-1.198-39.45c-.81-1.513-2.278-2.679-4.41-3.493.544.388 1.124.95 1.736 1.681.489.292.976.587 1.466.88.412.272.814.582 1.208.932z"/><path fill="#3F6884" d="M266.25 155.396c2.342.629 5.96 1.64 10.851 3.033-4.989-10.147-8.581-15.932-10.775-17.354a1.851 1.851 0 0 0-.544.219l-.083-.143a42.66 42.66 0 0 0-.392-.35c-.419.049-1.028.211-1.831.482-1.694.274-4.015.017-6.961-.774-1.285-.345-8.067-2.692-20.349-7.042l-.113-.03c-1.612-.027-2.571-.083-2.873-.164l-.68-.183c-1.427.185-2.519.781-3.276 1.793-1.454 1.798-4.297 2.129-8.53.993-1.814-.487-5.351-1.801-10.609-3.942-5.313-2.235-8.385-3.465-9.217-3.688-.152-.041-1.671.038-4.559.233-.706.217-1.135.303-1.286.263l-.114-.03-.68-.183c-2.525.053-4.052.006-4.581-.135-.605-.163-2.111-.889-4.519-2.184-2.386-1.372-3.882-2.136-4.487-2.298-.15-.041-1.134.303-2.95 1.031-2.365.662-4.416.759-6.155.292a11.735 11.735 0 0 1-1.556-.538 4.928 4.928 0 0 0 .058 1.594 110.965 110.965 0 0 0 6.25 5.688c.302.082.622.248.96.5.076.02.141.078.195.176l.114.03c.044.031.082.041.113.03 3.394 1.825 6.448 3.575 9.163 5.253a428.088 428.088 0 0 1 7.083 5.305 114.821 114.821 0 0 0 3.459 2.507c3.957 2.764 8.429 4.815 13.416 6.153l1.701.457c.387.671.911 1.135 1.571 1.393l.34.091.113.03c1.157.287 2.292-.016 3.404-.909a5.98 5.98 0 0 1 .492-.476 21.922 21.922 0 0 0 5.006-1.45c3.663-2.179 6.067-3.436 7.211-3.777 4.222-1.54 7.027-2.488 8.42-2.843 5.011-1.167 9.632-1.182 13.864-.046 5.108 2.1 8.041 3.25 8.795 3.452.604.163 1.154.229 1.648.201.049.419.185.818.406 1.203.643 1.226 1.798 2.507 3.464 3.847.393.348.795.658 1.208.932.262.231.534.425.816.582.393.35.87.679 1.435.993l.196.173c-1.323-.191-2.867-.323-4.632-.39m169.484 80.728c-3.719-3.348-6.221-5.194-7.506-5.539-.226-.062-1.089.437-2.588 1.493-1.876.954-3.683 1.197-5.421.73-4.308-1.155-7.982-2.709-11.022-4.659-3.063-1.874-5.122-2.953-6.18-3.237-3.675.715-5.626 1.042-5.853.981-.982-.264-7.508-5.379-19.579-15.343a2491.36 2491.36 0 0 1-11.061-9.044c-.797-.05-1.687-.208-2.67-.472-2.946-.791-6.297-2.946-10.051-6.464-1.867-1.799-4.265-4.183-7.193-7.157-.308.243-.998 1.148-2.068 2.725-1.615 1.188-3.895 1.385-6.843.594-2.192-.588-7.179-3.586-14.962-8.998-7.391-5.063-11.831-8.44-13.32-10.138-1.692 2.382-4.531 4.659-8.516 6.829-4.137 2.131-7.225 2.922-9.265 2.374-2.872-.771-7.349-7.481-13.433-20.131a140.22 140.22 0 0 0-1.101-2.239c-4.891-1.394-8.509-2.404-10.851-3.033-3.054-.091-6.759.129-11.115.662a4.676 4.676 0 0 0-.997.095c-2.985.253-6.219.681-9.703 1.287-2.798.464-5.284.971-7.457 1.523-9.03 1.951-13.961 4.476-14.792 7.575-.203.754-.228 1.598-.072 2.532l-.03.113c1.426 3.138 3.559 6.058 6.396 8.765 3.443 2.868 8.192 6.006 14.245 9.413 13.206 5.73 23.405 10.291 30.596 13.681 2.091.964 4.218 1.941 6.384 2.928a817.167 817.167 0 0 0 22.412 7.959c13.475 4.426 28.298 8.811 44.47 13.15.68.183 2.299.942 4.858 2.277.15.04.329.128.537.265a57.943 57.943 0 0 0-1.637 2.478c22.053 7.781 46.477 17.294 73.273 28.535l1.073.532c.041-.153.034-.275-.021-.371 5.258 2.141 11.667 4.671 19.229 7.592 20.113 8.07 32.207 12.654 36.29 13.751 2.87.77 5.077 1.158 6.612 1.166.591-.086 1.065-.201 1.43-.347 1.357-.527 2.188-.75 2.489-.669 10.19 3.383 15.701 5.188 16.533 5.411 6.044 1.622 10.992 2.058 14.839 1.307 1.808.812 3.949 1.587 6.422 2.331.119.764.349 1.715.691 2.86 3.331.569 6.783 1.133 10.361 1.687a624.832 624.832 0 0 0 17.52 2.638c.637-.561 1.273-1.117 1.91-1.676a4.308 4.308 0 0 1 1.111-.067l.741-.043c8.22-.144 12.566-.192 13.04-.146 2.577.366 4.874.701 6.9 1.002 4.072.526 7.342.876 9.806 1.052.946.092 1.731.182 2.358.267.694.431 1.569.787 2.628 1.071.378.102 4.927.513 13.644 1.231 4.135.301 7.486.633 10.062.998 2.746.334 4.641.679 5.677 1.037l.341.092c1.784-.006 3.234.019 4.354.076 3.81.292 6.699.542 8.672.747 3.433.192 5.722-.045 6.873-.706-1.151.661-3.44.898-6.873.706-1.973-.205-4.862-.455-8.672-.747-1.119-.058-2.569-.082-4.354-.076 4.796 1.34 8.933 1.923 12.41 1.752.89 0 1.726-.099 2.511-.299a11.91 11.91 0 0 0 2.973-.66l.226.061 1.073.531c.28.156.554.353.816.584l.339.091a39.58 39.58 0 0 0 1.068-.808c.096-.055.153-.119.174-.194-.39-1.564-.792-3.09-1.203-4.577.062-.228.149-.405.266-.536-5.144-2.272-11.262-6.184-18.358-11.734a179.111 179.111 0 0 1-13.493-11.762c-.021.075-.231.264-.637.559-.402.297-.705.823-.907 1.578-.082.304-.218 1.563-.407 3.781-.146 1.743-.538 3.055-1.18 3.937-1.81 2.513-6.869 2.651-15.181.421-3.779-1.014-7.838-4.453-12.178-10.317-3.584-5.659-6.087-9.167-7.506-10.521l-.394-.347c-.428.693-1.71 1.242-3.842 1.641-1.964.366-3.503.521-4.621.462-.138 1.423-.751 2.796-1.836 4.126-1.646 1.908-3.754 2.518-6.324 1.827-2.116-.568-4.7-3.004-7.761-7.31-1.307.946-2.449 1.286-3.433 1.022-2.646-.71-6.915-5.176-12.809-13.401-.384.221-1.557 1.12-3.518 2.702-2.303 1.325-4.623 1.677-6.966 1.048-1.059-.284-2.656-1.28-4.79-2.987-.21.185-.932 1.207-2.158 3.065-1.584 1.681-3.548 2.208-5.893 1.578-2.722-.73-5.842-2.985-9.363-6.767a401.243 401.243 0 0 1-6.739-7.035c.028.495-.008.932-.109 1.31.361 1.067-.116 2.399-1.436 3.988-1.838 2.019-4.494 2.562-7.971 1.629-2.116-.568-3.731-1.489-4.849-2.76-2.034-2.086-4.107-3.857-6.229-5.316-.307.24-.511.55-.612.928-.386 1.436-1.148 2.77-2.289 4.003-1.647 1.908-3.604 2.558-5.871 1.949-.454-.122-2.539-1.856-6.26-5.205-3.793-3.366-6.106-5.163-6.939-5.386-.651 1.526-1.41 2.538-2.272 3.035-1.484 1.303-3.511 1.609-6.081.92-2.268-.611-5.272-2.55-9.012-5.822m9.771 12.951l-3.629-.975c.485.121 1.1.244 1.846.375 1.209.326 1.803.525 1.783.6m-169.938-80.85l.249.43c-.896-.888-1.369-1.542-1.418-1.959.157-.282.265-.536.327-.764l.842 2.293m263.38 138.374c-3.238-1.518-4.334-1.812-3.288-.883.413.272.884.482 1.413.624.561.15 1.184.234 1.875.259m-9.264-12.573c.224.754.456 1.548.699 2.374.702 2.216 3.558 5.614 8.565 10.198.224.015.47 0 .74-.043 5.725-2.157 9.254-3.681 10.585-4.572 1.785-1.223 3.692-2.737 5.715-4.542.211-.188.423-.373.637-.56.116-.131.27-.251.46-.361a621.16 621.16 0 0 1-17.52-2.638 661.816 661.816 0 0 1-10.361-1.687c.152.584.313 1.192.48 1.831M170.176 126.694c.452 1.336 1.644 2.629 3.577 3.877.847.469 1.692.94 2.539 1.41a110.651 110.651 0 0 1-6.25-5.688c.054.097.099.23.134.401m51.909 42.489c.505 2.646 2.636 5.568 6.396 8.765-2.837-2.707-4.97-5.628-6.396-8.765m20.64 18.177a201.023 201.023 0 0 0 9.85 4.953c8.039 3.857 17.081 7.744 27.13 11.656-2.166-.987-4.293-1.963-6.384-2.928-7.191-3.39-17.39-7.951-30.596-13.681m149.505 83.628l1.333-1.342c2.474-2.578 4.804-4.018 6.993-4.322l16.083-1.516c2.414-.244 4.272-.677 5.574-1.3.777-1.088 1.246-2.378 1.404-3.876-26.796-11.241-51.22-20.754-73.273-28.535l-.879 1.463a130.383 130.383 0 0 0-1.881 3.387l-.03.111c-.426 1.588-.844 4.353-1.253 8.292a80.78 80.78 0 0 0-1.85 3.271c-1.927 7.179-2.729 16.808-2.406 28.884.061 3.095.295 5.994.704 8.695.095 1.16.273 2.302.539 3.425.864 4.932 2.228 8.903 4.094 11.915.055.096.148.201.279.319l-.03.112.196.174c2.173 2.771 4.922 4.601 8.247 5.493 1.209.325 2.393.441 3.553.346.096-.055.192-.108.288-.164 1.76-.824 3.575-2.605 5.444-5.344.9-1.541 1.653-2.838 2.26-3.891.328-.315.666-.671 1.015-1.064.58-.653 1.78-2.56 3.599-5.718 3.332-6.071 7.393-10.49 12.187-13.255.671-.387 1.38-.765 2.126-1.131l.113.03c1.247-.72 2.881-1.98 4.905-3.787.233-.261.454-.484.666-.672z"/><path fill="#FAF6EB" fill-opacity=".302" d="M352.063 115.479a.775.775 0 0 1 .43-.248c-.493.029-1.025.047-1.594.057.398.025.786.089 1.164.191m-71.276-10.624c.377.102.861.11 1.451.026l.258-.054-2.215-.35.506.378m336.539 138.81a41.313 41.313 0 0 0-2.926-.42c.264.232.514.501.757.811.946.091 1.884.221 2.813.389a3.147 3.147 0 0 1-.644-.78m-2.282.36l.113.03a6.05 6.05 0 0 0-.757-.811c.168.288.381.547.644.781m12.852 14.141c.072.023.137.081.196.174l-.083-.143-.113-.031m6.891 6.469l-.31-.203c-1.53-1.545-2.581-2.761-3.153-3.644-.077-.021-.143-.077-.198-.173-1.026-1.005-2.027-1.801-3.004-2.388l-.113-.03.083.143c.545.392 1.041.807 1.485 1.252 3.232 3.054 6.496 6.442 9.791 10.16.372.426.858.879 1.457 1.365-1.53-1.545-3.448-3.602-5.759-6.164a1.443 1.443 0 0 1-.279-.318M466.414 127.698a4.454 4.454 0 0 1-1.271 1.117c.356.177.667.383.929.615l.122-.454a2.21 2.21 0 0 1 .296-.65 4.734 4.734 0 0 0-.076-.628m78.171 53.304l.043.74c1.432.709 2.76 1.348 3.983 1.921.431.197.902.404 1.411.621a1242.23 1242.23 0 0 0-5.437-3.282z"/><path fill="#5B6169" d="M615.157 244.056c.109.19.268.354.476.491a4.42 4.42 0 0 1 1.051.16 14.953 14.953 0 0 1 2.078-.05l-.792-.213a33.727 33.727 0 0 0-2.813-.388m0 0l-.113-.03.33.572c.096-.055.182-.072.259-.051a1.472 1.472 0 0 1-.476-.491m-75.75-73.192a4.853 4.853 0 0 0-.384-.834 84.667 84.667 0 0 1-.333-.573 4.56 4.56 0 0 0 .099.997c.13.115.336.252.618.41m-2.348-20.68c-.158.28-.365.751-.623 1.411.279 2.586.638 5.478 1.076 8.674.473 3.367.876 6.392 1.21 9.073.116-.13.241-.298.377-.506l.177-.194.295-.649a157.351 157.351 0 0 1-2.229-14.332c-.096-1.161-.188-2.32-.283-3.477m.122-.455l-.122.454c.096 1.157.188 2.317.282 3.477a157.755 157.755 0 0 0 2.229 14.332l.03-.113c.102-.379-.267-3.233-1.105-8.562-.663-4.471-1.101-7.667-1.314-9.588z"/><path fill="#1D3B57" fill-opacity=".302" d="M535.659 305.716c-1.046-.929.05-.635 3.288.883-3.129-1.688-5.48-3.493-7.053-5.418 1.146 4.117 2.409 6.359 3.784 6.729.604.162 1.712-.188 3.32-1.052-.515.103-.884.125-1.112.064-.753-.203-1.498-.605-2.227-1.206m-4.057-5.705c.107.433.207.822.293 1.17 1.572 1.925 3.924 3.73 7.053 5.418-4.586-3.742-7.035-5.937-7.346-6.588m18.927 1.919c.495-.029.969.018 1.421.139a10.22 10.22 0 0 1 2.215.353l.112.03c.137-.209.322-.44.555-.703l-.227-.061c-1.538-.008-2.896.074-4.076.242m11.954-4.692c-.014-1.461-.562-2.296-1.637-2.504l-.741.043a4.35 4.35 0 0 0-1.111.067c-.637.559-1.273 1.115-1.91 1.676 1.802.24 3.598.48 5.399.718m-.047 1.081c.025-.396.041-.757.048-1.081-1.802-.238-3.598-.479-5.399-.718-.19.11-.344.23-.46.361-.214.187-.426.372-.637.56.942.415 1.332.925 1.17 1.529-.081.301-.182.519-.297.648-.402.296-.79.679-1.157 1.147.442-.448.915-.849 1.415-1.198l.688-.302c.212-.188.451-.326.72-.415 1.067-.361 2.247-.37 3.531-.025l.226.061.152-.567m28.157-1.676c-2.464-.176-5.733-.525-9.806-1.052l.793.213c2.418.649 5.424.928 9.013.839z"/><path fill="#FFF" d="M253.317 149.25c-.172.037-.467.079-.885.128-.151-.041-.207-.136-.166-.287-.227-.061-.397-.026-.513.104-.227-.061-.321-.167-.28-.317l-.371.021-.204.308 1.567 3.217c.378.102.627-.074.75-.527l.229-1.762c.218-.508.176-.804-.127-.885m-3.871 4.916l.803-.271c.101-.376.038-.598-.188-.658l.03-.113c-.76-1.094-1.28-1.72-1.563-1.877-.393-.349-.69-.145-.893.61-.102.378-.147.854-.139 1.423.084.59.241.914.468.975l.225.061c.304.08.723.031 1.257-.15m9.315-.294l.061-.228c.101-.376-.255-1.163-1.07-2.352-.794-1.267-1.333-1.371-1.616-.313-.041.151-.022.683.057 1.596-.006.321 0 .607.014.854-.322-.006-.495.029-.515.104-.082.303.068.504.445.606l.114.031c.227.061.512.056.854-.013.17-.035.343-.069.514-.106.172-.035.295-.042.371-.021l.227.061c.302.079.483.007.544-.219m-34.123 2.628a1.343 1.343 0 0 1-.279-.317c-.131-.118-.234-.186-.31-.207-.447-.442-.808-.458-1.081-.045l-.061.225c.549.068 1.126.182 1.731.344m.166.287a42.33 42.33 0 0 1-.166-.287 12.776 12.776 0 0 0-1.731-.344 1.331 1.331 0 0 0-.266.537c.021 2.033.11 3.514.265 4.446.181.535.384.833.611.894l.566.152c.343-.071.754-.244 1.234-.52.02-.076.078-.141.173-.196.499-.352.77-.604.811-.755.04-.151.053-.349.039-.597-.044-.741-.529-1.804-1.454-3.184l-.082-.146m8.57 1.572l.114.031c.604.162 1.053 0 1.346-.489l.113.03c.302.081.495-.028.576-.332.041-.151-.077-.467-.354-.944l-.798-1.553c-.708-1.89-1.184-2.382-1.427-1.475l-.04.597-.508 1.442c-.124 1.668.003 2.552.381 2.653.152.041.349.054.597.04m-4.092-3.772c.041-.15-.089-.875-.389-2.171-.055-.095-.019-.53.108-1.308.081-.301-.143-.525-.671-.667-.908-.244-1.462.014-1.665.769-.082.304.637 1.55 2.155 3.74.227.062.381-.061.462-.363m10.723-1.011l-.44.734c-.081.301-.06.673.065 1.112.105.513.309.812.611.893l.113.03c.151.041.247-.015.288-.167.439-.125.792-.231 1.058-.323l.228.061c.302.081.494-.029.575-.33.082-.303-.313-1.097-1.183-2.384-.815-1.189-1.323-1.41-1.526-.652-.061.224.01.568.211 1.026m-3.224-2.93l.03-.113c.142-.529.205-.917.19-1.163-.105-.515-.374-.87-.806-1.069-.641-.333-1.052-.159-1.234.521-.101.376-.051.795.15 1.255.296.403.709.678 1.237.819.228.061.373-.025.433-.25z"/><path fill="#3F6884" fill-opacity=".22" d="M347.827 300.146c.09.154.211.311.362.463l.083.143c2.078 2.827 4.666 4.654 7.764 5.485 1.209.324 2.406.242 3.591-.252-1.16.096-2.344-.021-3.553-.346-3.325-.893-6.074-2.722-8.247-5.493m75.884-38.692c.444-.448.747-.975.909-1.579a2.21 2.21 0 0 0 .07-.71c-.357-.179-.715-.356-1.073-.532-.159 1.498-.627 2.788-1.404 3.876a9.404 9.404 0 0 0 1.498-1.055z"/><path fill="#C1DEE0" d="M460.922 129.142a7.671 7.671 0 0 0-1.215-.449c.206.138.423.237.648.297l.567.152z"/></g><path fill="none" stroke="#000" stroke-linecap="round" stroke-linejoin="round" d="M643.52 303.189c-.454-.121-.806-.176-1.052-.158a20.902 20.902 0 0 0-2.203-.166c-.812.149-1.668.245-2.567.281m-79.172-4.294c-.021.075-.068.103-.144.082l-.576.333-.688.302m-5.168 2.499c-1.94.811-6.032 2.326-12.277 4.542m-.601.204l-.073.043M227.425 110.342c.04-.15.033-.275-.021-.371l-.075-.628-.679-.182-.145.083c-.134.204-.277.287-.431.25l1.133.304-.152.567c.172-.035.295-.043.37-.023a1.05 1.05 0 0 1 .484.009c-.061.226.022.369.249.43.091.269.01.57-.244.908-.02.076-.078.141-.173.196-.349.393-.62.645-.811.756l.235-.424-.113-.03a.798.798 0 0 1 .378-.506l.114.03c.151.041.274.034.37-.021m-.89-1.213l.03-.113c-.091.054-.214.061-.37.021l.34.092-.122.454c-.056.22.028.364.249.433.116-.132.186-.235.206-.311.082-.303.104-.54.068-.71m-.74.043l-.03.113c-.055.22.027.365.248.432l-.092.341.34.091a1.123 1.123 0 0 1-.553.701l-.122.454-.339-.091-.34-.091-.454-.122.122-.454.122-.454-.68-.183c.348-.394.563-.739.644-1.042l.34.091.183-.68m.271.802l-.454-.122.248.432.03-.113.176-.197.34.091c-.153-.036-.269.094-.349.393l.228.061.091-.34m-.319.279c-.055-.095-.121-.153-.197-.173-.095.055-.218.062-.37.021l-.092.341.113.03a.771.771 0 0 1 .433-.25l.113.031-.03.113c.075.021.103.068.083.143.096-.054.154-.12.175-.195l.339.091c-.023.08-.091.182-.205.311l.113.03-.212.792a2.029 2.029 0 0 1-.537-.265l-.143.083-.227-.061c.13.116.167.287.105.515m.426-1.587l-.092.342.174-.198m-.082-.144l-.145.083-.288.167c-.02.075-.078.141-.173.195.151.041.292.119.423.235l.091-.338.226.061.031-.116c.127.115.23.184.31.207-.117.13-.222.223-.317.278l-.228-.061-.091.341a1.475 1.475 0 0 0-.475-.493l.03-.113.061-.226m.213-.795l-.122.454m.588.523l.341.091m-6.386-1.106c.796.05 1.459.147 1.987.29m7.786.873c.122-.454.295-.649.522-.588.082-.303.235-.424.462-.363-.081.304-.409.619-.984.951zm166.205 89.327c3.529-17.034 6.034-28.857 7.514-35.471 1.466-6.63 2.081-12.845 1.845-18.645-.228-5.792-2.821-12.809-7.779-21.047m6.172 77.973c3.744-5.8 6.507-13.078 8.291-21.836 1.964-10.002 3.305-16.205 4.022-18.606.698-2.409.711-7.814.036-16.212-.665-8.396-2.497-14.173-5.495-17.333m-26.255 69.753c3.977-16.012 5.859-30.492 5.646-43.447-.213-12.954-2.635-23.326-7.265-31.114m-12.699 69.504c2.626-15.824 3.917-27.425 3.874-34.809-.004-12.965-2.754-25.207-8.25-36.727m-128.968 36.355a41.997 41.997 0 0 0-.52-1.234m31.979-3.69c.262.231.534.425.816.582m-2.025-1.514c-.659-.26-1.506-.729-2.538-1.412-1.5-1.05-2.667-1.686-3.498-1.909-1.36-.365-2.911-.62-4.655-.763 2.062 2.578 3.408 4.356 4.036 5.336m-4.118-5.482l-.454-.122-.031.115.567.152-.082-.145zm-1.431 5.33c.162-.605.305-1.741.429-3.41l.517-1.926a68.598 68.598 0 0 1-1.534-.169 23.817 23.817 0 0 0-.782 2.462c-.304 1.134-.536 1.843-.692 2.124-1.951-2.386-3.015-4.008-3.191-4.865a8.793 8.793 0 0 0-1.564-.057 805.48 805.48 0 0 0-6.105-.12c1.591 2.979 2.65 4.54 3.18 4.682l.039-.597.135.402-.115-3.193m-3.239-1.294a602.974 602.974 0 0 0-4.653-.093l-.387.987-.062.229m-.22 1.277c-.032.721-.066 1.604-.102 2.645l-.062.229c.025-.399-1.076-2.031-3.304-4.898-.075-.021-.14-.078-.195-.174l.03-.112.166.286m10.611 7.1l-2.113-2.997c-1.338-1.656-2.08-2.664-2.225-3.028l-.518 1.929c-.155 2.388-.155 4.047-.001 4.981.057.095.111.19.167.286l-.34-.091.173-.195m-1.618-8.454a116.67 116.67 0 0 1-2.275-.126c-1.612-.027-3.718.422-6.315 1.342.742 3.278 1.142 5.859 1.205 7.738l-.03.113-5.101-6.351a4.59 4.59 0 0 0-.833.384c-2.027.913-3.843 1.641-5.447 2.184m3.581 2.053c.006-.321.021-.682.046-1.079l.114.031c.467.367 1.019.88 1.653 1.535.076.021.179.088.31.207.055.096.147.201.279.317m6.802 1.825c.341-2.178.519-3.749.536-4.718l.608-2.267.227.061c1.624 2.705 2.84 4.814 3.649 6.326m-17.805-4.29c-1.069.36-2.08.656-3.032.885m6.613 1.167a1.025 1.025 0 0 0-.008.484m6.632-6.605c-1.24.398-2.549.897-3.926 1.5m2.352 8.893c-.276-.478-.721-1.083-1.335-1.815-.372-.425-.717-.8-1.033-1.129a1.37 1.37 0 0 0-.279-.317m-2.301 6.308c-.071-.342-.1-.836-.089-1.481-.074-1.235-.081-3.02-.021-5.354m9.212 2.352l-.334 1.246m-3.239 1.199a4.08 4.08 0 0 0-.581-1.008m24.519-5.327c-.633-.657-1.396-1.59-2.286-2.802-.849-1.363-1.519-2.19-2.006-2.482-.167.926-.168 2.587 0 4.981l-.244.907m7.169-6.339a68.04 68.04 0 0 0-4.665-.279m-22.606-36.206c.172-.034.26-.212.265-.536m-1.278-.222l-.113-.03-.454-.122m-.121.454l.227.061m.445.606c.08-.299.234-.421.461-.363m-10.976 42.259c-1.029.21-1.826-.063-2.392-.822m-55.223-47.573a1.448 1.448 0 0 0-.44.734l-.03.113m.53 3.909l.228.061-.061.226a26.88 26.88 0 0 1-.167-.287zm1.439-5.81c-.38-.1-.733.007-1.059.324-.212.185-.359.43-.44.731M646.98 303.877l-1.249-.335m-106.058 3.068a9.036 9.036 0 0 1-.601.204M226.357 111.15c-.041.15-.108.253-.204.308"/><path fill="none" stroke="#000" stroke-width="2" stroke-linecap="round" stroke-linejoin="round" d="M534.894 90.786c-.81-1.513-2.278-2.679-4.41-3.493m4.52 33.416c.748 5.062 1.111 8.238 1.088 9.527-.021.075 0 .161.054.259m4.326 41.384l-.901-3.887m10.451 16.293c-1.672-1.016-3.485-2.11-5.438-3.282m69.816 62.242a6.025 6.025 0 0 0-.753-.81m13.885 15.271c-.688-.752-4.655-5.14-11.899-13.159m32.903 31.798c.217-.509.465-.969.736-1.383.252-.335.504-.675.756-1.012m.697-.784c1.025-1.102 2.288-2.182 3.786-3.237l1.529-1.17m84.672-36.576c-2.769.957-5.76 2.141-8.972 3.545m26.452-8.455c-.419.05-.875.089-1.368.12m5.364 2.655a7.377 7.377 0 0 0-.204-.603m-6.723 11.017c-2.832 3.614-6.089 7.439-9.764 11.476-3.908 4.298-9.834 10.688-17.781 19.166m-7.675 9.121c-5.241 6.855-12.546 17.171-21.913 30.938a1.338 1.338 0 0 0-.265.537m16.991 101.046c.879 1.857 1.387 3.29 1.521 4.299a96.044 96.044 0 0 0-2.761-3.295m-10.203-12.702l-.04-.072a16.42 16.42 0 0 1-.518-.564m-43.582-58.117c-.352-.5-.667-.99-.942-1.468m-10.373-22.472c-1.361-3.685-2.365-7.195-3.009-10.528m-19.645-6.488c-1.14.02-2.403.046-3.788.077a323.324 323.324 0 0 1-4.695-.166m-26.247-1.817c-3.508-.213-7.374-.441-11.605-.684a140.79 140.79 0 0 1-7.021-.549m-60.278-9.495c2.061.473 4.207.925 6.438 1.363m-26.366-6.348c-19.774-5.71-39.363-12.71-58.771-20.996a356.81 356.81 0 0 1-8.28-3.559m-7.735 6.186l-.113-.03c-2.285.36-6.055.523-11.311.488-.913.081-1.797.207-2.656.382m-10.1 4.58a7.795 7.795 0 0 0-1.211.891c-2.024 1.807-3.658 3.067-4.905 3.787a.776.776 0 0 0-.432.249 21.396 21.396 0 0 0-2.688 2.317m-23.911 27.969c.268-.089.563-.131.885-.125m-18.776-25.576c.355 4.714 1.109 8.844 2.263 12.395m3.289-57.082l.016-.058.501-1.869c.3-.812.626-1.574.981-2.29M312.45 216.89c-.659-.26-1.319-.519-1.979-.776-11.298-4.086-21.553-8.134-30.766-12.145m-36.98-16.609a47.844 47.844 0 0 0-3.023-1.419c-4.532-2.431-8.272-5.096-11.222-7.994m-6.479-8.908l.114.031m-1.761-5.213c.019-.079.001-.164-.052-.256-.63.234-1.261.471-1.892.708m316.594-43.6a24.06 24.06 0 0 0-.245-2.253c-.779-5.555-1.019-9.791-.722-12.709 1.053-8.143 1.571-12.338 1.556-12.586a7.336 7.336 0 0 0-.699-2.374m2.165 59.397c-.529-5.57-.836-12.134-.913-19.688m8.439 50.506c-10.218-6.307-25.299-16.065-45.247-29.277-29.198-18.287-51.279-29.439-66.242-33.455-12.015-3.225-28.623-6.547-49.821-9.968-17.544-2.846-27.882-4.324-31.012-4.436-7.13-.293-16.273-.641-27.426-1.043m-2.503-.184c-2.636-.14-5.357-.263-8.164-.369-12.876-.62-22.82-1.304-29.829-2.051-21.085-2.338-43.573-3.067-67.464-2.188-21.388.903-39.396 2.955-54.028 6.158l-.144.082m.49 14.473l-.166-.287m.25.431l.098.088a106.977 106.977 0 0 0 3.646 4.076m495.679 225.025a237.264 237.264 0 0 0 8.854 13.191c2.968 4.036 10.659 13.715 23.072 29.036m8.226 10.107a1187.574 1187.574 0 0 0-8.059-9.816m18.819 23.155c-3.16-3.927-6.172-7.649-9.033-11.173m10.273 10.169c-.58-1.451-1.387-3.125-2.419-5.022-3.083-6.014-4.865-9.487-5.342-10.427-1.179-3.15-2.493-7.92-3.938-14.304-.18-.532-.487-1.953-.923-4.256m-2.635-12.373c-2.037-8.405-3.68-15.569-4.925-21.496-2.291-11.388-2.977-19.552-2.055-24.49m69.571-90.33c-1.861 3.308-4.17 6.78-6.928 10.414m-215.69-72.47a157.351 157.351 0 0 1-2.229-14.332c-.095-1.16-.187-2.319-.282-3.477m4.502 26.241l-.078 1.194.453.122c-.124-.439-.25-.879-.375-1.316a68.746 68.746 0 0 1-1.089-4.545m73.175 70.557c-3.482-3.933-7.149-8.078-11.003-12.433-18.931-21.526-34.508-35.63-46.73-42.314-1.56-.825-3.524-1.959-5.892-3.404m181.718 51.443c-.631.236-1.309.501-2.034.793a211.696 211.696 0 0 0-5.106 2.275m37.097-10.095c-.129-.117-.307-.367-.527-.749-.261-.233-.618-.41-1.072-.532-.529-.142-1.164-.191-1.905-.146m-3.796.56c-1.922.215-4.506.938-7.754 2.172-.096.058-.23.102-.402.137m10.583-2.749c-.762.118-1.571.267-2.427.44m-8.156 2.309a79.925 79.925 0 0 0-5.529 2.04m-520.4-122.048a3.198 3.198 0 0 0-.327.762c-.244.908.106 1.569 1.047 1.983l2.268.608c2.267.608 4.108.697 5.519.266.897-.327 3.053-1.57 6.47-3.732-.823.347-2.364.054-4.625-.878-3.184-1.422-5.04-2.202-5.569-2.344-.604-.162-1.522.239-2.754 1.204-.952.778-1.63 1.486-2.029 2.131zm104.524-7.311c-.796-.05-1.63-.112-2.502-.185m149.215 19.51c1.728-2.208 3.76-4.5 6.098-6.87 8.44-8.508 13.309-13.521 14.607-15.036 3.026-3.723 8.371-7.19 16.037-10.399 5.049-2.21 9.483-3.491 13.305-3.842 2.415-.244 4.603-.101 6.568.427a12.55 12.55 0 0 1 2.319.865m-58.934 34.855c-1.414 1.647-2.608 3.23-3.583 4.751m-2.313 3.633c.177-.358.393-.707.644-1.042a25.085 25.085 0 0 1 1.669-2.59m-56.236 76.41c4.8-18.487 12.318-27.103 22.552-25.847 10.22 1.279 17.922 2.84 23.109 4.683 5.193 1.845 12.576 5.042 22.154 9.592A470.77 470.77 0 0 1 508.2 206.54c9.487 5.328 19.779 10.744 30.881 16.246 11.092 5.495 18.078 8.747 20.956 9.756 2.892.995 7.876 4.236 14.949 9.723 7.072 5.502 6.678 7.503-1.184 6.003-13.404-5.539-32.504-11.657-57.293-18.355-29.012-7.829-50-12.794-62.961-14.892-12.965-2.104-22.296-4.608-27.998-7.515-5.679-2.982-10.286-4.38-13.82-4.195zm-18.956 67.46c1.444-1.152 2.404-1.865 2.884-2.143 2.013-1.161 4.418-1.973 7.215-2.438m14.081-.839c2.379-.415 4.132-1.361 5.259-2.842m106.99 29.687c3.331.569 6.783 1.133 10.361 1.687a624.832 624.832 0 0 0 17.52 2.638m68.218 4.818c1.784-.006 3.234.019 4.354.076 3.81.292 6.699.542 8.672.747 3.433.192 5.722-.045 6.873-.706M424.69 259.165c-.357-.179-.715-.356-1.073-.532-.159 1.498-.627 2.788-1.404 3.876m-71.869-32.411c22.053 7.781 46.477 17.294 73.273 28.535m-76.235 40.907c.055.096.148.201.279.319l-.03.112.196.174c2.173 2.771 4.922 4.601 8.247 5.493 1.209.325 2.393.441 3.553.346M312.45 216.89c15.792 5.453 28.056 9.716 36.792 12.789l.339.091a8.376 8.376 0 0 1 1.227-1.856c.233-.263.444-.448.637-.558m-71.74-23.387c-2.166-.987-4.293-1.963-6.384-2.928-7.191-3.39-17.39-7.951-30.596-13.681m-20.64-18.177c1.426 3.138 3.559 6.058 6.396 8.765m121.863 52.15a2.58 2.58 0 0 0-.763-.328 11.532 11.532 0 0 0-.795 1.609m-1.498 4.217c-.48 1.491-1.117 3.711-1.908 6.658-3.063 11.411-4.326 23.062-3.791 34.951.039 1.064.089 2.089.147 3.078m2.263 12.395c.903 2.672 2.03 4.961 3.383 6.862m13.13 6.319c1.488-.412 2.85-1.262 4.086-2.549 1.484-1.303 3.731-4.547 6.745-9.734 4.119-6.592 8.184-11.778 12.196-15.562M277.143 158.502c-4.918-1.443-8.55-2.477-10.893-3.106a36.258 36.258 0 0 0-5.677-1.037 23.607 23.607 0 0 0-3.469-.203c-.343.069-.627.074-.854.013l-.114-.031a8.227 8.227 0 0 0-1.111.068 45.628 45.628 0 0 0-3.222.229 31.84 31.84 0 0 0-4.537.604 53.703 53.703 0 0 0-3.342.682c-1.372.28-2.715.608-4.032.985a5.774 5.774 0 0 0-.658.187c-.877.251-1.802.53-2.776.835m-5.019.598c-1.945-.603-4.212-1.211-6.801-1.826m11.821 1.229a69.48 69.48 0 0 0-3.465 1.135 10.81 10.81 0 0 0-1.89.708 20.658 20.658 0 0 0-3.239 1.199c-.876.249-1.727.548-2.548.895-.48.276-.891.449-1.234.52-.61.16-1.193.369-1.747.624l-1.892.708m-.09.339a21.71 21.71 0 0 0 1.647 5.181m-6.379-14.715l3.515.943c1.077.208 2.108.445 3.09.708m2.411.526a12.776 12.776 0 0 0-1.731-.344l-.68-.183m-1.782 7.543c-.023.077-.071.104-.144.085m12.694-4.737a11.593 11.593 0 0 1-1.556-.538m-55.148-26.346c.937.738 1.938 1.534 3.005 2.388 10.867 8.774 22.178 15.151 33.934 19.132.282.099.561.193.835.283m.51.137l-.169-.045-.34-.091m1.556.539a6.021 6.021 0 0 0-1.047-.402m-55.069-49.047a731.1 731.1 0 0 1 2.571-.525c.268-.089.477-.117.628-.076m.324 14.185a65.558 65.558 0 0 1-4.774-7.115m-.718-4.568c-.142.529-.08 1.355.186 2.48.14.686.255 1.163.345 1.429m1.438-5.81a.347.347 0 0 0-.257.052m7.773 18.126c1.005 1.081 2.011 2.161 3.018 3.24a110.965 110.965 0 0 0 6.25 5.688m504.505 126.046c8.613-3.116 14.738-5.564 18.375-7.344 7.409-3.762 15.887-7.725 25.43-11.887m-4.559 41.43c2-2.622 3.708-4.758 5.122-6.403.908-.971 1.76-1.877 2.553-2.718m-29.853 40.595a3573.217 3573.217 0 0 0-4.994 7.289 10 10 0 0 0-.252 1.39m-29.915 27.699a287.483 287.483 0 0 1-3.431-5.782m-.942-1.468c-4.55-8.108-8.008-15.597-10.373-22.472m-3.009-10.528a29.05 29.05 0 0 1-.453-5.104m57.737 76.014c-.565-2.421-1.259-5.727-2.079-9.917a55.583 55.583 0 0 0-.556-2.456m4.985 36.213a26.056 26.056 0 0 1-1.17-1.529m-8.616-10.453c-.057-.104-.114-.199-.167-.29m-25.376-128.209a28.414 28.414 0 0 1 1.775-.738 426.26 426.26 0 0 0 7.218-2.438c.992-.381 1.844-.68 2.55-.894m-32.052 21.17c-4.416-3.779-11.299-10.729-20.651-20.856m22.633 14.826c-.23.261-.465.523-.696.784m19.223-11.854c-5.447 2.185-9.853 4.405-13.212 6.663m-40.407-24.212a1.472 1.472 0 0 1-.476-.491 6.05 6.05 0 0 0-.757-.811m13.692 15.095l-.083-.143a1.496 1.496 0 0 1-.477-.491m-36.96 41.727c10.921.662 18.276 1.176 22.066 1.546 1.27.099 2.662.189 4.18.271M491.74 283.72l7.143 1.917a263.282 263.282 0 0 0 12.785 3.068m6.438 1.363c3.536.707 7.236 1.416 11.097 2.128m27.881 4.325l5.399.718c3.294.4 6.447.72 9.463.962"/><path fill="none" stroke="#171717" stroke-width="2" stroke-linecap="round" stroke-linejoin="round" d="M529.237 293.421l.487.677"/><path fill="none" stroke="#171717" stroke-linecap="round" stroke-linejoin="round" d="M531.937 301.254c-1.63-1.964-2.392-4.03-2.284-6.202a5.57 5.57 0 0 1 .072-.954m2.212 7.156c1.542 1.876 3.882 3.657 7.011 5.345l.125.216"/></svg>