<?xml version="1.0" encoding="utf-8"?>
<!-- Generator: Adobe Illustrator 16.0.0, SVG Export Plug-In . SVG Version: 6.00 Build 0)  -->
<!DOCTYPE svg PUBLIC "-//W3C//DTD SVG 1.1//EN" "http://www.w3.org/Graphics/SVG/1.1/DTD/svg11.dtd">
<svg version="1.1" id="Layer_1" xmlns="http://www.w3.org/2000/svg" xmlns:xlink="http://www.w3.org/1999/xlink" x="0px" y="0px"
	 width="900px" height="450px" viewBox="0 0 900 450" enable-background="new 0 0 900 450" xml:space="preserve">
<g transform="matrix( 1, 0, 0, 1, 0,0) ">
	<g>
		<g id="Layer0_0_FILL">
			<path fill="#5486AA" d="M551.859,185.143c-0.642-0.336-1.254-0.621-1.837-0.858c2.367,1.445,4.332,2.58,5.892,3.404
				c12.223,6.684,27.8,20.788,46.73,42.314c3.854,4.354,7.521,8.5,11.003,12.433c-0.8-0.946-1.601-1.889-2.4-2.833
				c-7.73-9.527-13.649-16.302-17.757-20.32c-10.525-10.278-17.52-16.975-20.978-20.089c-4.229-3.565-8.415-6.676-12.565-9.328
				C557.188,188.071,554.49,186.498,551.859,185.143 M535.593,93.16c-0.101-0.836-0.332-1.627-0.699-2.374
				c-0.394-0.35-0.796-0.66-1.208-0.932c-0.49-0.293-0.977-0.587-1.466-0.88c-1.898-1.077-4.002-1.843-6.31-2.301
				c-0.226-0.061-0.427-0.074-0.598-0.04c-0.112-0.03-0.226-0.06-0.339-0.091c-0.83-0.223-1.569-0.34-2.214-0.35
				c-0.378-0.101-0.729-0.155-1.052-0.161l-0.112-0.03c-3.821,0.351-8.256,1.631-13.305,3.842
				c-7.666,3.209-13.011,6.676-16.037,10.399c-1.299,1.515-6.167,6.528-14.607,15.036c-2.338,2.37-4.37,4.662-6.098,6.87
				c-0.839,1.315-1.756,2.771-2.752,4.367c-0.231,0.26-0.427,0.534-0.583,0.814c-0.545,0.827-1.081,1.616-1.605,2.364
				c-0.132-0.116-0.234-0.184-0.312-0.204c-0.251,0.336-0.467,0.684-0.644,1.042c0.177-0.358,0.393-0.707,0.644-1.042
				c-0.074-0.02-0.15-0.041-0.226-0.061c-0.262-0.231-0.572-0.438-0.929-0.615c-0.288,0.167-0.565,0.294-0.832,0.384l-3.389-0.058
				c-0.226-0.061-0.415-0.111-0.566-0.152c-0.226-0.061-0.442-0.159-0.648-0.297c-0.414-0.272-0.768-0.61-1.064-1.014l-0.362-0.461
				c-0.132-0.118-0.224-0.224-0.278-0.319c-0.056-0.096-0.112-0.191-0.167-0.287l-0.083-0.143c-0.454-0.122-0.945-0.253-1.475-0.396
				c-1.208-0.325-4.539-1.95-9.994-4.871c-0.66-0.257-1.233-0.533-1.721-0.827c-0.475-0.044-0.938-0.128-1.392-0.25
				c-1.134-0.304-2.151-0.741-3.052-1.305c-6.557-0.625-18.148-3.169-34.772-7.631c-0.454-0.122-0.908-0.244-1.36-0.365
				c-1.134-0.304-2.268-0.608-3.401-0.913c-2.853,0.367-5.678,0.175-8.474-0.575c-1.359-0.365-2.491-0.83-3.393-1.394
				c-0.872-0.073-1.96-0.244-3.265-0.513c-4.197-0.965-7.102-1.46-8.714-1.487c-2.41-0.079-5.657-0.507-9.743-1.278
				c-4.162-0.794-7.125-1.224-8.889-1.292c-3.129-0.111-7.259-0.572-12.389-1.381c-0.473-0.046-0.985-0.103-1.534-0.17
				c-8.346-0.296-14.795,0.04-19.348,1.004c11.153,0.402,20.296,0.75,27.426,1.043c3.13,0.111,13.468,1.59,31.012,4.436
				c21.199,3.42,37.807,6.743,49.821,9.968c14.963,4.016,37.044,15.168,66.242,33.455c19.948,13.212,35.029,22.97,45.247,29.277
				c-0.207-2.244-0.839-4.276-1.889-6.096c-0.588-1.131-1.329-2.139-2.225-3.027c0.313,1.542,0.679,3.059,1.089,4.545
				c0.125,0.437,0.251,0.876,0.375,1.316l-0.453-0.122l0.078-1.194c-0.41-1.487-0.775-3.004-1.089-4.545
				c-0.187-0.211-0.345-0.377-0.476-0.493c-0.186-0.211-0.383-0.385-0.589-0.521c-0.282-0.159-0.488-0.295-0.618-0.41
				c-0.07-0.342-0.104-0.676-0.099-0.997l0.031-0.115c-0.334-2.681-0.737-5.707-1.21-9.073c-0.438-3.196-0.797-6.088-1.076-8.674
				c0.258-0.66,0.465-1.131,0.623-1.411c-0.529-5.57-0.836-12.134-0.913-19.688c-0.054-0.098-0.074-0.184-0.054-0.259
				c-0.35-1.712-0.678-3.502-0.989-5.369c-0.069-0.344-0.112-0.637-0.125-0.885c0.055-1.117,0.064-2.209,0.026-3.273
				c-0.044-0.74-0.127-1.491-0.245-2.253c-0.779-5.555-1.019-9.791-0.722-12.709C535.09,97.604,535.608,93.409,535.593,93.16
				 M762.102,231.725c0.142-0.529,0.17-1.087,0.087-1.677c-1.861,3.308-4.17,6.78-6.928,10.414
				C759.538,235.695,761.817,232.782,762.102,231.725 M761.17,227.952c0.221,0.382,0.398,0.632,0.527,0.749
				c-0.109-0.192-0.222-0.385-0.332-0.576c-0.719-1.246-1.775-1.529-3.173-0.852c0.741-0.045,1.376,0.005,1.905,0.146
				C760.552,227.542,760.909,227.719,761.17,227.952 M544.628,181.743c-0.014-0.246-0.028-0.494-0.043-0.74
				c-10.218-6.307-25.299-16.065-45.247-29.277c-29.198-18.287-51.279-29.439-66.242-33.455
				c-12.015-3.225-28.623-6.547-49.821-9.968c-17.544-2.846-27.882-4.324-31.012-4.436c-7.13-0.293-16.273-0.641-27.426-1.043
				c-0.836,0.101-1.608,0.259-2.314,0.473c-0.015-0.246-0.078-0.467-0.188-0.658c-2.636-0.14-5.357-0.263-8.164-0.369
				c-12.876-0.62-22.82-1.304-29.829-2.051c-21.085-2.338-43.573-3.067-67.464-2.188c-21.388,0.903-39.396,2.955-54.028,6.158
				l-0.144,0.082c-0.172,0.037-0.316,0.12-0.431,0.25c-2.2,0.95-3.472,2.066-3.816,3.351c-0.243,0.907-0.064,2.05,0.539,3.426
				c0.548,1.28,1.244,2.157,2.09,2.626c0.347,0.821,0.71,1.731,1.092,2.723c0.236,0.63,0.52,1.233,0.851,1.809l0.166,0.287
				l0.084,0.144l0.113,0.03c1.125,1.379,2.335,2.756,3.63,4.134c0.86,0.717,1.847,1.267,2.96,1.646
				c0.509,0.217,1.028,0.396,1.556,0.538c1.739,0.467,3.79,0.37,6.155-0.292c1.816-0.728,2.799-1.071,2.95-1.031
				c0.605,0.162,2.101,0.927,4.487,2.298c2.407,1.294,3.914,2.021,4.519,2.184c0.529,0.142,2.055,0.188,4.581,0.135
				c0.418-0.049,0.913-0.078,1.482-0.087c0.171-0.037,0.371-0.023,0.598,0.037c2.888-0.195,4.407-0.274,4.559-0.233
				c0.832,0.223,3.904,1.453,9.217,3.688c5.258,2.141,8.795,3.455,10.609,3.942c4.232,1.136,7.076,0.805,8.53-0.993
				c0.757-1.012,1.849-1.609,3.276-1.793c1.009-0.135,2.192-0.019,3.553,0.346l0.113,0.03c12.282,4.35,19.063,6.697,20.349,7.042
				c2.947,0.791,5.268,1.048,6.961,0.774c0.803-0.271,1.412-0.433,1.831-0.482c0.171-0.034,0.295-0.042,0.37-0.021
				c0.227,0.061,0.444,0.16,0.649,0.295c2.194,1.422,5.787,7.207,10.775,17.354c0.375,0.746,0.742,1.493,1.101,2.239
				c6.083,12.65,10.561,19.36,13.433,20.131c2.04,0.548,5.128-0.243,9.265-2.374c3.985-2.17,6.824-4.446,8.516-6.829
				c1.489,1.698,5.929,5.076,13.32,10.138c7.783,5.412,12.771,8.409,14.962,8.998c2.948,0.791,5.229,0.593,6.843-0.594
				c1.071-1.576,1.76-2.482,2.068-2.725c2.928,2.974,5.327,5.357,7.193,7.157c3.754,3.518,7.105,5.673,10.051,6.464
				c0.983,0.264,1.873,0.421,2.67,0.472c2.918,2.404,6.605,5.419,11.061,9.044c12.071,9.964,18.597,15.079,19.579,15.343
				c0.227,0.061,2.178-0.267,5.853-0.981c1.058,0.284,3.118,1.363,6.18,3.237c3.04,1.95,6.715,3.504,11.022,4.659
				c1.738,0.467,3.545,0.224,5.421-0.73c1.499-1.057,2.362-1.555,2.588-1.493c1.285,0.345,3.788,2.191,7.506,5.539
				c3.739,3.272,6.744,5.211,9.009,5.819c2.57,0.689,4.597,0.383,6.081-0.92c0.862-0.497,1.621-1.509,2.272-3.035
				c0.833,0.223,3.146,2.02,6.939,5.386c3.721,3.349,5.806,5.083,6.26,5.205c2.267,0.608,4.224-0.041,5.871-1.949
				c1.141-1.233,1.903-2.567,2.289-4.003c0.102-0.378,0.306-0.688,0.612-0.928c2.122,1.459,4.195,3.23,6.229,5.316
				c1.117,1.271,2.732,2.191,4.849,2.76c3.477,0.933,6.133,0.39,7.971-1.629c1.319-1.589,1.797-2.921,1.436-3.988
				c0.102-0.378,0.138-0.814,0.109-1.31c2.646,2.818,4.893,5.163,6.739,7.035c3.521,3.781,6.642,6.036,9.363,6.767
				c2.345,0.63,4.309,0.103,5.893-1.578c1.227-1.858,1.948-2.881,2.158-3.065c2.134,1.707,3.731,2.703,4.79,2.987
				c2.343,0.629,4.663,0.277,6.966-1.048c1.961-1.582,3.134-2.481,3.518-2.702c5.894,8.226,10.163,12.691,12.809,13.401
				c0.983,0.264,2.126-0.076,3.433-1.022c3.061,4.306,5.645,6.741,7.761,7.31c2.57,0.69,4.678,0.081,6.324-1.827
				c1.085-1.33,1.698-2.703,1.836-4.126c1.118,0.059,2.657-0.096,4.621-0.462c2.132-0.398,3.414-0.947,3.842-1.641l0.03-0.113
				c0.133,0.116,0.254,0.27,0.363,0.46c1.419,1.354,3.922,4.862,7.506,10.521c4.34,5.864,8.398,9.304,12.178,10.317
				c8.312,2.23,13.371,2.092,15.181-0.421c0.642-0.882,1.034-2.193,1.18-3.937c0.189-2.218,0.325-3.478,0.407-3.781
				c0.202-0.755,0.505-1.281,0.907-1.578c0.405-0.295,0.616-0.483,0.637-0.559c4.313,4.155,8.811,8.075,13.493,11.762
				c7.097,5.551,13.215,9.462,18.358,11.734c-0.116,0.131-0.204,0.309-0.266,0.536c0.411,1.487,0.813,3.013,1.203,4.577
				c0.11,0.19,0.173,0.409,0.187,0.657c-0.041,0.15-0.081,0.301-0.121,0.451c-0.021,0.078-0.011,0.201,0.023,0.372
				c-0.041,0.151-0.082,0.304-0.122,0.454c-0.969,6.625,3.236,19.177,12.618,37.654c1.063,2.067,2.142,4.1,3.226,6.092
				c2.658,4.278,5.61,8.676,8.854,13.191c2.968,4.036,10.659,13.715,23.072,29.036l0.113,0.031c-0.019,0.07,0.001,0.156,0.054,0.259
				c2.51,3.021,5.196,6.296,8.059,9.816l0.113,0.03c0.227,0.062,0.426,0.074,0.597,0.04c0.312,0.651,0.651,1.349,1.018,2.096
				c2.861,3.523,5.873,7.246,9.033,11.173c0.459-0.2,0.871-0.535,1.239-1.004c-0.58-1.451-1.387-3.125-2.419-5.022
				c-3.083-6.014-4.865-9.487-5.342-10.427c-1.179-3.15-2.493-7.92-3.938-14.304c-0.18-0.532-0.487-1.953-0.923-4.256
				c-1.17-3.799-2.047-7.922-2.635-12.373c-2.037-8.405-3.68-15.569-4.925-21.496c-2.291-11.388-2.977-19.552-2.055-24.49
				c-0.05-0.419-0.1-0.835-0.15-1.255c1.011-1.351,2.042-2.772,3.091-4.273c4.361-6.284,7.008-11.164,7.94-14.639
				c0.082-0.305,0.042-0.759-0.119-1.369c1.804-2.19,4.608-5.853,8.417-10.986c3.788-5.06,6.863-8.975,9.227-11.741
				c0.583-0.655,8.147-8.468,22.696-23.438c2.358-2.445,4.503-4.706,6.438-6.779c1.912-1.997,3.614-3.81,5.104-5.435
				c2.758-3.634,5.066-7.106,6.928-10.414c-0.06-0.203-0.12-0.421-0.189-0.658c-0.09-0.211-0.192-0.44-0.302-0.688
				c-0.129-0.117-0.307-0.367-0.527-0.749c-0.261-0.233-0.618-0.41-1.072-0.532c-0.529-0.142-1.164-0.191-1.905-0.146
				c-0.173,0.035-0.313,0.118-0.432,0.248c-0.191,0.112-0.385,0.222-0.575,0.332l-0.113-0.03c-0.68-0.183-1.573-0.178-2.675,0.011
				c-1.922,0.215-4.506,0.938-7.754,2.172c-0.096,0.058-0.23,0.102-0.402,0.137c-0.095,0.055-2.141,0.883-6.135,2.485
				c-1.89,0.708-4.203,1.626-6.937,2.755c-1.26,0.474-2.616,1-4.07,1.582c-1.548,0.637-3.047,1.247-4.5,1.831
				c-9.543,4.162-18.021,8.125-25.43,11.887c-3.637,1.779-9.762,4.228-18.375,7.344c-0.706,0.214-1.558,0.513-2.55,0.894
				c-2.233,0.777-4.641,1.592-7.218,2.438c-0.627,0.237-1.221,0.484-1.775,0.738c-0.46,0.202-0.807,0.432-1.038,0.695
				c-0.423,0.373-1.495,1.341-3.211,2.905c-2.614-0.216-7.3,2.9-14.054,9.352c-0.356-0.175-0.678-0.342-0.958-0.5
				c-0.021,0.077-0.207,0.471-0.563,1.188l-0.03,0.112c-0.096,0.055-0.19,0.11-0.286,0.166c-0.02,0.075-0.067,0.102-0.143,0.081
				l-0.177,0.197c-0.075-0.02-0.161-0.002-0.256,0.053c-0.418,0.05-0.854,0.013-1.308-0.108l-0.113-0.031
				c-0.149-0.04-0.33-0.129-0.536-0.264c-0.561-0.475-1.122-0.949-1.686-1.423c-0.783-0.698-1.68-1.586-2.686-2.667
				c-0.49-0.294-0.949-0.538-1.383-0.734c-0.599-0.486-1.085-0.939-1.457-1.365c-3.295-3.718-6.559-7.106-9.791-10.16
				c-0.444-0.445-0.94-0.86-1.485-1.252c9.353,10.127,16.235,17.077,20.651,20.856c-4.416-3.779-11.299-10.729-20.651-20.856
				c-0.06-0.093-0.124-0.15-0.196-0.174l0.113,0.031c-0.206-0.136-0.364-0.299-0.477-0.491c-0.688-0.752-4.655-5.14-11.899-13.159
				c-0.077-0.021-0.163-0.004-0.259,0.051c-0.11-0.19-0.22-0.381-0.33-0.572c-0.263-0.234-0.476-0.493-0.644-0.78
				c-0.241-0.31-0.492-0.578-0.753-0.81c-3.482-3.933-7.149-8.078-11.003-12.433c-18.931-21.526-34.508-35.63-46.73-42.314
				c-1.56-0.825-3.524-1.959-5.892-3.404c-0.509-0.217-0.98-0.424-1.411-0.621C547.388,183.091,546.06,182.452,544.628,181.743
				 M282.238,104.882c-0.589,0.083-1.074,0.075-1.451-0.026l-0.506-0.378l2.215,0.35L282.238,104.882 M352.493,115.231
				c-0.17,0.035-0.315,0.117-0.43,0.248c-0.378-0.102-0.766-0.165-1.164-0.191C351.468,115.278,352,115.26,352.493,115.231
				 M307.997,141.567l-0.061,0.226c-0.543-0.388-2.996-2.869-7.359-7.443c0.675,0.506,1.332,0.924,1.972,1.257
				C304.968,138.365,306.785,140.35,307.997,141.567 M715.936,262.474c0.156-0.281,0.303-0.526,0.438-0.732
				c0.541-0.503,1.06-0.931,1.56-1.283C717.298,261.016,716.632,261.689,715.936,262.474 M658.647,282.584
				c2.173-1.444,3.495-2.305,3.976-2.579l0.226,0.06c-0.116,0.131-1.346,1.097-3.694,2.896
				C658.948,282.825,658.778,282.698,658.647,282.584 M668.73,298.898c0.295-0.488,0.577-0.939,0.85-1.351
				c0.096-0.057,0.182-0.074,0.256-0.055c-0.292,0.489-0.623,0.968-0.993,1.436L668.73,298.898 M337.34,112.379
				c-0.02,0.075-0.05,0.188-0.091,0.339c-1.003-0.189-2.042-0.387-3.122-0.594c-0.397-0.026-0.796-0.052-1.194-0.079
				c0.569-0.008,1.092,0.011,1.565,0.055C335.521,112.214,336.469,112.307,337.34,112.379 M304.473,114.858
				c-0.228-0.061-0.925-0.329-2.094-0.804c0.817-0.025,1.671-0.038,2.563-0.041c0.075,0.02,0.15,0.04,0.226,0.061
				C304.937,114.334,304.704,114.597,304.473,114.858 M222.341,108.004c1.232-0.965,2.149-1.366,2.754-1.204
				c0.529,0.142,2.385,0.922,5.569,2.344c2.261,0.932,3.802,1.225,4.625,0.878c-3.417,2.162-5.573,3.405-6.47,3.732
				c-1.411,0.431-3.252,0.342-5.519-0.266l-2.268-0.608c-0.941-0.414-1.291-1.075-1.047-1.983c0.065-0.243,0.174-0.497,0.327-0.762
				C220.711,109.49,221.389,108.782,222.341,108.004 M370.323,194.144c2.626-15.824,3.917-27.425,3.874-34.809
				c-0.004-12.965-2.754-25.207-8.25-36.727c5.496,11.52,8.246,23.762,8.25,36.727C374.24,166.718,372.949,178.32,370.323,194.144
				 M457.392,182.147c5.193,1.845,12.559,5.037,22.097,9.576c9.641,4.555,19.217,9.475,28.729,14.759
				c9.477,5.368,19.764,10.802,30.865,16.304c11.092,5.495,18.078,8.747,20.956,9.756c2.892,0.995,7.854,4.23,14.895,9.708
				c7.109,5.512,6.732,7.518-1.129,6.018c-13.404-5.539-32.499-11.675-57.278-18.41c-29.021-7.794-50.015-12.739-62.976-14.837
				c-12.965-2.104-22.296-4.608-27.998-7.515c-5.681-2.981-10.288-4.38-13.821-4.195c4.8-18.487,12.305-27.128,22.511-25.917
				C444.488,178.719,452.205,180.304,457.392,182.147 M416.35,146.707c-0.637-8.348-2.456-14.1-5.454-17.261
				C413.895,132.607,415.713,138.359,416.35,146.707c0.702,8.448,0.703,13.876,0.005,16.285c-0.717,2.402-2.058,8.604-4.022,18.606
				c-1.784,8.758-4.547,16.036-8.291,21.836c3.744-5.8,6.507-13.078,8.291-21.836c1.964-10.002,3.305-16.205,4.022-18.606
				C417.053,160.583,417.052,155.155,416.35,146.707 M405.592,146.495c-0.19-5.783-2.764-12.794-7.722-21.032
				C402.828,133.701,405.402,140.712,405.592,146.495c0.273,5.81-0.335,12.005-1.83,18.587c-1.454,6.664-3.944,18.51-7.473,35.544
				c3.529-17.034,6.02-28.88,7.473-35.544C405.257,158.5,405.865,152.305,405.592,146.495 M384.641,199.201
				c3.977-16.012,5.84-30.497,5.589-43.462c-0.175-12.944-2.578-23.311-7.208-31.099c4.63,7.788,7.033,18.155,7.208,31.099
				C390.481,168.704,388.618,183.189,384.641,199.201 M479.488,191.723c-9.538-4.54-16.903-7.731-22.097-9.576
				c-5.187-1.843-12.903-3.428-23.15-4.753c-10.206-1.211-17.711,7.43-22.511,25.917c3.533-0.185,8.141,1.214,13.821,4.195
				c5.702,2.906,15.033,5.411,27.998,7.515c12.961,2.098,33.954,7.043,62.976,14.837c24.779,6.735,43.874,12.871,57.278,18.41
				c7.861,1.5,8.238-0.506,1.129-6.018c-7.04-5.478-12.003-8.713-14.895-9.708c-2.878-1.009-9.864-4.261-20.956-9.756
				c-11.102-5.502-21.389-10.936-30.865-16.304C498.705,201.198,489.129,196.278,479.488,191.723 M225.095,106.8
				c-0.604-0.162-1.522,0.239-2.754,1.204c-0.952,0.777-1.629,1.485-2.029,2.13c0.796,0.05,1.459,0.147,1.987,0.29
				c-0.528-0.142-1.191-0.24-1.987-0.29c-0.153,0.266-0.262,0.519-0.327,0.762c-0.244,0.908,0.106,1.569,1.047,1.983l2.268,0.608
				c2.267,0.608,4.108,0.697,5.519,0.266c0.897-0.327,3.053-1.57,6.47-3.732c-0.823,0.347-2.364,0.054-4.625-0.878
				C227.48,107.723,225.624,106.942,225.095,106.8 M226.505,109.244l0.145-0.083l0.679,0.182l0.075,0.628
				c0.055,0.096,0.062,0.221,0.021,0.371c0.172-0.034,0.333-0.032,0.484,0.009c-0.061,0.226,0.022,0.369,0.249,0.43
				c0.091,0.269,0.01,0.57-0.244,0.908c-0.02,0.076-0.078,0.141-0.173,0.196c-0.349,0.393-0.62,0.645-0.811,0.756l0.235-0.424
				l-0.113-0.03c0.061-0.226,0.187-0.396,0.378-0.506l0.114,0.03c0.151,0.041,0.274,0.034,0.37-0.021
				c0.253-0.338,0.334-0.639,0.244-0.908c-0.227-0.061-0.31-0.204-0.249-0.43c-0.151-0.041-0.312-0.043-0.484-0.009
				c0.035,0.171,0.013,0.407-0.068,0.71c-0.02,0.075-0.089,0.178-0.206,0.311c-0.081,0.301-0.265,0.536-0.553,0.701l-0.122,0.454
				l-0.339-0.091l-0.34-0.091l-0.454-0.122l0.122-0.454l0.122-0.454l-0.68-0.183c0.348-0.394,0.563-0.739,0.644-1.042l0.34,0.091
				l0.183-0.68C226.228,109.53,226.371,109.447,226.505,109.244 M230.607,110.71c0.082-0.303,0.235-0.424,0.462-0.363
				c-0.082,0.304-0.409,0.619-0.984,0.951C230.208,110.845,230.381,110.649,230.607,110.71 M231.069,110.347
				c-0.227-0.061-0.38,0.06-0.462,0.363c-0.227-0.061-0.4,0.135-0.522,0.588C230.66,110.966,230.988,110.651,231.069,110.347
				 M226.137,112.427l0.339,0.091l0.122-0.454C226.371,112.006,226.217,112.128,226.137,112.427 M225.692,111.821
				c-0.075-0.021-0.152-0.041-0.227-0.061l-0.122,0.454l0.454,0.122C225.858,112.108,225.822,111.937,225.692,111.821
				 M226.062,111.799l-0.143,0.083l-0.227-0.061c0.13,0.116,0.167,0.287,0.105,0.515l0.34,0.091c0.08-0.299,0.234-0.421,0.461-0.363
				C226.444,112.021,226.266,111.933,226.062,111.799 M225.587,111.307l-0.122,0.454c0.075,0.02,0.151,0.041,0.227,0.061
				l0.227,0.061l0.143-0.083C225.951,111.608,225.794,111.442,225.587,111.307 M226.041,111.428
				c-0.131-0.116-0.272-0.194-0.423-0.235l-0.03,0.113L226.041,111.428 M226.153,111.458l-0.113-0.03l-0.454-0.122
				c0.207,0.136,0.364,0.302,0.475,0.493C226.102,111.649,226.133,111.534,226.153,111.458 M227.053,112.186l0.113,0.03
				c0.172-0.034,0.26-0.212,0.265-0.536C227.239,111.791,227.113,111.96,227.053,112.186 M227.544,111.71l-0.114-0.03
				c-0.005,0.324-0.093,0.502-0.265,0.536l-0.235,0.424c0.191-0.111,0.461-0.363,0.811-0.756c0.095-0.055,0.153-0.12,0.173-0.196
				C227.819,111.744,227.695,111.751,227.544,111.71 M227.151,111.363l-0.34-0.091l-0.212,0.792
				C226.886,111.899,227.07,111.664,227.151,111.363 M226.698,111.242l-0.341-0.091c-0.041,0.15-0.108,0.253-0.204,0.308
				c0.076,0.021,0.152,0.041,0.228,0.061C226.476,111.464,226.582,111.372,226.698,111.242 M226.563,110.839l0.339,0.091
				c-0.221-0.066-0.303-0.212-0.248-0.432C226.631,110.585,226.601,110.698,226.563,110.839 M226.903,110.931l-0.092,0.341
				l0.34,0.091C226.931,111.294,226.847,111.151,226.903,110.931 M226.698,111.242c0.113-0.129,0.181-0.231,0.205-0.311
				l-0.339-0.091c-0.021,0.076-0.079,0.141-0.175,0.195C226.516,111.15,226.619,111.218,226.698,111.242 M226.811,111.272
				l-0.113-0.03c-0.117,0.13-0.222,0.223-0.317,0.278c-0.076-0.02-0.152-0.041-0.228-0.061c-0.02,0.075-0.051,0.19-0.091,0.341
				c0.204,0.133,0.382,0.222,0.537,0.265L226.811,111.272 M226.698,111.242l0.113,0.03l0.092-0.341
				C226.879,111.01,226.812,111.113,226.698,111.242 M226.357,111.15l-0.226-0.061c-0.04,0.15-0.07,0.263-0.091,0.338l0.113,0.03
				C226.249,111.403,226.317,111.301,226.357,111.15 M226.389,111.035l-0.031,0.116l0.341,0.091
				C226.619,111.218,226.516,111.15,226.389,111.035 M225.791,110.998l-0.113-0.03c-0.02,0.075-0.04,0.15-0.061,0.226
				C225.712,111.139,225.771,111.073,225.791,110.998 M226.169,110.492l-0.03,0.113c0.076,0.02,0.142,0.079,0.197,0.173
				c0.08-0.298,0.196-0.429,0.349-0.393l-0.34-0.091L226.169,110.492 M226.079,110.831l0.145-0.083
				c-0.171,0.035-0.315,0.118-0.433,0.25C225.888,110.941,225.983,110.886,226.079,110.831 M226.131,111.09
				c0.041-0.153,0.072-0.266,0.092-0.342l-0.145,0.083c-0.095,0.055-0.191,0.11-0.288,0.167c-0.02,0.075-0.078,0.141-0.173,0.195
				c0.151,0.041,0.292,0.119,0.423,0.235C226.061,111.353,226.091,111.24,226.131,111.09 M226.306,110.892l-0.174,0.198l0.226,0.061
				l0.031-0.116C226.409,110.96,226.381,110.912,226.306,110.892 M226.336,110.778l-0.03,0.113c0.075,0.021,0.103,0.068,0.083,0.143
				c0.096-0.054,0.154-0.12,0.175-0.195L226.336,110.778 M226.336,110.778l-0.113-0.03c-0.02,0.076-0.051,0.189-0.092,0.342
				l0.174-0.198L226.336,110.778 M225.77,110.626c0.151,0.041,0.274,0.034,0.37-0.021c-0.11-0.191-0.193-0.336-0.248-0.432
				L225.77,110.626 M225.678,110.968l0.092-0.341l0.122-0.454l-0.34-0.091c-0.082,0.303-0.296,0.649-0.644,1.042l0.68,0.183
				l0.03-0.113C225.638,111.118,225.658,111.043,225.678,110.968 M225.77,110.626l-0.092,0.341l0.113,0.03
				c0.118-0.132,0.261-0.215,0.433-0.25l0.113,0.03c-0.055-0.095-0.121-0.153-0.197-0.173
				C226.044,110.66,225.921,110.667,225.77,110.626 M226.345,110.294l-0.454-0.122c0.055,0.096,0.138,0.241,0.248,0.432l0.03-0.113
				L226.345,110.294 M227.055,110.364l-0.03,0.113c-0.04,0.15-0.081,0.303-0.122,0.454c-0.056,0.22,0.028,0.364,0.249,0.433
				c0.116-0.132,0.186-0.235,0.206-0.311c0.082-0.303,0.104-0.54,0.068-0.71C227.35,110.322,227.227,110.33,227.055,110.364
				 M226.655,110.499l0.03-0.113c-0.153-0.036-0.269,0.094-0.349,0.393l0.228,0.061
				C226.601,110.698,226.631,110.585,226.655,110.499 M227.024,110.477l-0.339-0.091l-0.03,0.113
				c-0.055,0.22,0.027,0.365,0.248,0.432C226.943,110.78,226.984,110.627,227.024,110.477 M226.685,110.386
				c0.155,0.039,0.278,0.032,0.37-0.021l0.152-0.567l-1.133-0.304l-0.183,0.68l0.454,0.122L226.685,110.386 M227.055,110.364
				c-0.091,0.054-0.214,0.061-0.37,0.021l0.339,0.091L227.055,110.364 M226.649,109.161l-0.145,0.083
				c-0.134,0.204-0.277,0.287-0.431,0.25l1.133,0.304l-0.152,0.567c0.172-0.035,0.295-0.042,0.371-0.022
				c0.04-0.15,0.033-0.275-0.021-0.371l-0.075-0.628L226.649,109.161 M628.009,258.197l0.113,0.03
				c1.159-0.093,2.309-0.149,3.448-0.169c-1.271-0.096-2.614-0.215-4.038-0.353C627.645,257.898,627.803,258.062,628.009,258.197
				 M678.245,258.92c-1.048,0.286-2.278,0.645-3.69,1.077c-2.386,0.736-4.154,1.437-5.303,2.099
				c0.555-0.254,1.148-0.501,1.775-0.738C673.604,260.512,676.012,259.697,678.245,258.92 M692.116,387.444
				c0.931,1.061,1.769,2.015,2.512,2.86c-12.413-15.321-20.104-25-23.072-29.036c-3.243-4.516-6.195-8.913-8.854-13.191
				c3.588,6.553,7.094,12.354,10.519,17.405c5.531,8.369,10.387,13.966,14.57,16.791C689,383.813,690.44,385.536,692.116,387.444
				 M702.399,400.29c0.15,0.04,0.303,0.081,0.454,0.121c-2.862-3.521-5.549-6.795-8.059-9.816c0.284,1.047,0.628,2.032,1.032,2.949
				C697.338,397.27,699.53,399.52,702.399,400.29 M704.581,402.577c0.09,0.267,0.219,0.545,0.385,0.832
				c0.312,0.651,0.649,1.349,1.018,2.097c2.511,5.131,4.411,7.867,5.695,8.212c0.755,0.202,1.399,0.214,1.936,0.032
				C710.454,409.823,707.442,406.101,704.581,402.577 M702.231,378.737c0.436,2.303,0.743,3.724,0.923,4.256
				c1.445,6.384,2.76,11.153,3.938,14.304c0.477,0.939,2.259,4.413,5.342,10.427c1.032,1.897,1.839,3.571,2.419,5.022
				c0.512-0.997,0.777-1.533,0.797-1.608c0.061-0.226-1.006-2.74-3.201-7.543c-0.399-0.916-0.858-1.933-1.37-3.04
				c-3.712-8.207-6.248-14.154-7.608-17.84C703,381.454,702.586,380.128,702.231,378.737 M698.441,355.725
				c-0.084-0.59-0.141-1.132-0.172-1.626c-0.245-1.2-0.637-2.602-1.18-4.205c-0.971-3.016-1.543-5.113-1.712-6.293
				c-0.15-1.256-0.491-3.452-1.026-6.593c-0.65-3.011-1.03-5.221-1.139-6.627c-0.181-3.855-0.379-7.188-0.596-10.003
				c-0.922,4.938-0.236,13.103,2.055,24.49c1.245,5.927,2.888,13.091,4.925,21.496c-0.515-3.217-0.873-6.555-1.079-10.012
				c-0.035-0.173-0.044-0.297-0.024-0.371C698.438,355.886,698.421,355.8,698.441,355.725 M708.191,244.234
				c-0.882,0.573-1.814,1.175-2.793,1.802c-2.661,1.474-5.897,3.116-9.707,4.928c-7.595,3.554-12.141,5.694-13.633,6.429
				c-0.289,0.165-0.709,0.377-1.264,0.634c8.613-3.116,14.738-5.564,18.375-7.344c7.409-3.762,15.887-7.725,25.43-11.887
				c-4.683,1.741-8.968,3.223-12.861,4.446C710.518,243.563,709.338,243.894,708.191,244.234 M163.392,118.918
				c0.126,0.219,0.236,0.41,0.332,0.576c0.738,1.171,1.631,2.22,2.678,3.149c0.207,0.136,0.414,0.272,0.621,0.409
				C165.727,121.674,164.517,120.297,163.392,118.918 M508.089,88.332c-0.767,0.442-1.506,0.932-2.217,1.47
				c-0.269,0.089-0.508,0.229-0.719,0.414c-2.779,0.389-4.985,1.214-6.62,2.477c-5.213,4.029-11.535,9.784-18.975,17.267
				c-0.771,0.764-3.441,4.828-8.01,12.188c1.728-2.208,3.76-4.5,6.098-6.87c8.44-8.508,13.309-13.521,14.607-15.036
				c3.026-3.723,8.371-7.19,16.037-10.399c5.049-2.21,9.483-3.491,13.305-3.842C516.461,85.514,511.957,86.292,508.089,88.332
				 M194.081,99.205c-2.663,0.259-4.772,0.421-6.33,0.489c-1.633,0.049-2.677,0.01-3.129-0.111
				c-0.151-0.041-0.339-0.091-0.567-0.152c-3.195,0.439-6.069,0.882-8.62,1.333c-3.999,0.709-7.286,1.488-9.863,2.335
				c-0.493,0.029-0.913,0.08-1.255,0.149c-0.323-0.006-0.58,0.046-0.771,0.159c-0.212,0.185-0.444,0.448-0.696,0.784
				c14.632-3.203,32.641-5.255,54.028-6.158c23.891-0.879,46.379-0.151,67.464,2.188c7.009,0.747,16.953,1.431,29.829,2.051
				c2.807,0.105,5.528,0.229,8.164,0.369c-0.055-0.096-0.111-0.191-0.167-0.287c-0.517-0.787-1.267-1.313-2.25-1.577
				c-0.227-0.061-2.525,0.051-6.896,0.337c-2.375,0.092-5.227-0.147-8.557-0.718c-1.653,0.124-3.533,0.186-5.64,0.188l-1.792-0.115
				c-0.077-0.021-0.152-0.041-0.227-0.061c-1.242-0.051-2.484-0.1-3.728-0.15c-3.014-0.242-6.49-0.567-10.432-0.977l-2.358-0.268
				c-2.273-0.287-4.622-0.592-7.044-0.919c-5.402-0.396-19.053-1.305-40.949-2.727c-7.253,0.159-12.364,0.489-15.334,0.988
				c-1.179,0.17-4.962,0.531-11.35,1.086c-0.095,0.055-0.22,0.063-0.37,0.022c-0.973,0.306-2.394,0.613-4.258,0.924
				C199.119,98.694,196.816,98.969,194.081,99.205 M541.936,177.74c-0.124-0.439-0.25-0.879-0.375-1.316l-0.078,1.194
				L541.936,177.74 M537.059,150.184c0.062-0.229,0.102-0.379,0.122-0.454l0.03-0.113c0.832-3.1,0.476-9.473-1.065-19.122
				C536.223,138.049,536.529,144.613,537.059,150.184 M535.007,100.78c1.287-0.87,2.102-1.947,2.446-3.231
				c0.669-2.495-0.184-4.748-2.56-6.763c0.367,0.747,0.599,1.538,0.699,2.374c0.016,0.249-0.503,4.443-1.556,12.586
				c-0.297,2.918-0.058,7.154,0.722,12.709c0.118,0.762,0.201,1.514,0.245,2.253c0.152-4.494,0.237-8.281,0.253-11.355
				C535.259,106.034,535.174,103.175,535.007,100.78 M636.071,246.266l5.525,1.604c-0.073-0.031-0.138-0.09-0.196-0.174
				C639.97,247.157,638.193,246.681,636.071,246.266z"/>
			<path fill="#162232" d="M615.99,241.849c0.483,0.614,0.929,1.22,1.336,1.816c0.168,0.287,0.38,0.548,0.644,0.779
				c0.225,0.061,0.491,0.132,0.792,0.213c0.417-0.049,0.828-0.06,1.225-0.036c-0.336-0.252-0.656-0.418-0.959-0.5
				c-0.151-0.04-0.33-0.129-0.537-0.265C617.947,243.466,617.115,242.799,615.99,241.849 M631.126,260.615
				c0.056,0.096,0.121,0.152,0.198,0.173c-0.538-0.711-0.767-1.219-0.687-1.52c0.102-0.378,0.354-0.717,0.758-1.012
				c0.116-0.131,0.26-0.216,0.431-0.25l-0.113-0.03c-0.074-0.02-0.122,0.007-0.143,0.082c-1.14,0.02-2.289,0.076-3.448,0.169
				C629.099,258.814,630.1,259.61,631.126,260.615 M644.494,302.724c-0.356-0.177-0.717-0.354-1.073-0.531l-0.226-0.061
				c0.165,0.287,0.274,0.642,0.324,1.058c0.055,0.099,0.1,0.231,0.134,0.402c0.159,0.609,0.592,2.022,1.294,4.235
				C644.652,306.21,644.501,304.508,644.494,302.724 M236.459,157.729c0.201,0.458,0.374,0.87,0.52,1.234
				c2.172-0.552,4.659-1.059,7.457-1.523c3.484-0.605,6.718-1.033,9.703-1.287c-0.091-0.266-0.21-0.58-0.354-0.944
				c0.487,0.293,0.938,0.578,1.351,0.849c4.356-0.533,8.061-0.753,11.115-0.662c-1.814-0.487-3.706-0.833-5.677-1.037
				c-1.173-0.154-2.33-0.222-3.469-0.203c-0.343,0.069-0.627,0.074-0.854,0.013l-0.114-0.031c-0.322-0.006-0.693,0.018-1.111,0.068
				c-1.063,0.037-2.137,0.114-3.222,0.229c-1.48,0.086-2.993,0.288-4.537,0.604c-1.103,0.188-2.218,0.416-3.342,0.682
				c-1.372,0.28-2.715,0.608-4.032,0.985c-0.171,0.035-0.391,0.097-0.658,0.187C238.358,157.145,237.433,157.423,236.459,157.729
				 M255.971,148.87c-0.473-0.046-0.985-0.103-1.534-0.169c-0.258,0.659-0.519,1.481-0.782,2.462
				c-0.304,1.134-0.536,1.843-0.692,2.124c-1.951-2.386-3.015-4.008-3.191-4.865c-0.548-0.067-1.07-0.085-1.564-0.057
				c-1.671-0.04-3.72-0.104-6.146-0.19c1.619,3.026,2.692,4.61,3.221,4.752l0.039-0.597l0.135,0.402l-0.115-3.193l0.115,3.193
				l-0.135-0.402l-0.039,0.597c-0.529-0.142-1.603-1.726-3.221-4.752c-1.399,0.014-2.937,0.005-4.611-0.022l-0.387,0.987
				c-0.021,0.078-0.041,0.153-0.062,0.229c0.015,0.246-0.048,0.634-0.19,1.163l-0.03,0.113c-0.032,0.721-0.066,1.604-0.102,2.645
				l-0.062,0.229c0.025-0.399-1.076-2.031-3.304-4.898c-0.075-0.021-0.14-0.078-0.195-0.174l0.03-0.112l0.166,0.286
				c2.228,2.867,3.33,4.499,3.304,4.898l0.062-0.229c0.036-1.042,0.07-1.924,0.102-2.645c-0.061,0.226-0.206,0.311-0.433,0.25
				c-0.528-0.142-0.941-0.417-1.237-0.819c-0.201-0.459-0.251-0.878-0.15-1.255c0.183-0.68,0.594-0.854,1.234-0.521
				c0.432,0.199,0.701,0.554,0.806,1.069c0.021-0.076,0.041-0.151,0.062-0.229l0.387-0.987c-0.721-0.032-1.479-0.075-2.275-0.126
				c-1.612-0.027-3.718,0.422-6.315,1.342c0.742,3.278,1.142,5.859,1.205,7.738l-0.03,0.113l-5.101-6.351
				c-0.268,0.09-0.544,0.217-0.833,0.384c-2.027,0.913-3.843,1.641-5.447,2.184c1.033,0.681,2.226,1.366,3.581,2.052
				c0.006-0.321,0.021-0.682,0.046-1.079l0.114,0.031c0.467,0.367,1.019,0.88,1.653,1.535c0.076,0.021,0.179,0.088,0.31,0.207
				c0.055,0.096,0.147,0.201,0.279,0.317c2.589,0.614,4.856,1.223,6.801,1.826c0.341-2.178,0.519-3.749,0.536-4.718l0.608-2.267
				l0.227,0.061c1.624,2.705,2.84,4.814,3.649,6.326c0.974-0.306,1.899-0.584,2.776-0.835l-0.34-0.091l0.173-0.195
				c-0.154-0.934-0.154-2.593,0.001-4.981l0.518-1.929c0.146,0.365,0.887,1.373,2.225,3.028l2.113,2.997
				c1.124-0.266,2.239-0.493,3.342-0.682l0.244-0.907c-0.168-2.395-0.167-4.056,0-4.981c0.488,0.292,1.157,1.12,2.006,2.482
				c0.89,1.212,1.653,2.145,2.286,2.802c1.085-0.116,2.158-0.192,3.222-0.229c0.162-0.605,0.305-1.741,0.429-3.41L255.971,148.87
				 M256.538,149.022c1.744,0.143,3.295,0.398,4.655,0.763c0.832,0.223,1.999,0.859,3.498,1.909
				c1.032,0.683,1.879,1.152,2.538,1.412c-1.667-1.339-2.822-2.621-3.464-3.847c-0.221-0.384-0.357-0.784-0.406-1.203
				c-0.494,0.028-1.044-0.038-1.648-0.201c-0.754-0.202-3.687-1.353-8.795-3.452c-4.232-1.136-8.853-1.121-13.864,0.046
				c-1.393,0.354-4.198,1.303-8.42,2.843c-1.144,0.341-3.548,1.599-7.211,3.777c-1.644,0.691-3.313,1.176-5.006,1.45
				c-0.213,0.188-0.376,0.345-0.492,0.476c0.206,0.136,0.45,0.282,0.731,0.441c1.604-0.543,3.42-1.271,5.447-2.184
				c0.288-0.167,0.565-0.294,0.833-0.384c1.377-0.603,2.686-1.102,3.926-1.5c2.597-0.92,4.703-1.37,6.315-1.342
				c0.796,0.052,1.555,0.094,2.275,0.126c1.674,0.027,3.212,0.036,4.611,0.022c2.426,0.086,4.476,0.15,6.146,0.19
				c0.494-0.029,1.016-0.01,1.564,0.057c1.689,0.047,3.244,0.14,4.665,0.279c0.549,0.066,1.061,0.124,1.534,0.169l0.031-0.115
				l0.454,0.122L256.538,149.022 M265.307,140.802c0.13,0.116,0.262,0.232,0.392,0.35l0.083,0.143
				c0.191-0.11,0.374-0.185,0.544-0.219c-0.206-0.136-0.423-0.234-0.649-0.295C265.602,140.76,265.478,140.768,265.307,140.802
				 M266.25,155.396c1.765,0.067,3.309,0.199,4.634,0.391l-0.196-0.173c-0.565-0.313-1.042-0.643-1.435-0.993
				c-0.282-0.157-0.554-0.351-0.816-0.582c-0.413-0.274-0.815-0.584-1.208-0.932c-0.659-0.26-1.506-0.729-2.538-1.412
				c-1.5-1.05-2.667-1.686-3.498-1.909c-1.36-0.365-2.911-0.62-4.655-0.763c2.062,2.578,3.408,4.356,4.036,5.336
				C262.545,154.563,264.437,154.909,266.25,155.396 M275.816,168.655l-0.249-0.43l-0.843-2.293
				c-0.062,0.228-0.169,0.481-0.327,0.764C274.447,167.113,274.919,167.767,275.816,168.655 M302.379,114.054
				c1.168,0.475,1.866,0.743,2.094,0.804c0.231-0.261,0.464-0.523,0.696-0.784c-0.076-0.021-0.151-0.041-0.226-0.061
				C304.05,114.016,303.196,114.029,302.379,114.054 M337.249,112.718c0.041-0.151,0.071-0.264,0.091-0.339
				c-0.871-0.073-1.818-0.166-2.842-0.279c-0.473-0.044-0.996-0.063-1.565-0.055c0.398,0.026,0.797,0.053,1.194,0.079
				C335.207,112.331,336.246,112.529,337.249,112.718 M669.58,297.548c-0.272,0.411-0.555,0.862-0.85,1.351l0.112,0.03
				c0.37-0.468,0.701-0.946,0.993-1.436C669.762,297.474,669.676,297.491,669.58,297.548 M662.623,280.005
				c-0.48,0.274-1.803,1.135-3.976,2.579c0.131,0.114,0.301,0.241,0.507,0.377c2.349-1.8,3.578-2.766,3.694-2.896L662.623,280.005
				 M716.374,261.741c-0.136,0.206-0.282,0.451-0.438,0.732c0.696-0.784,1.362-1.458,1.998-2.016
				C717.434,260.811,716.915,261.238,716.374,261.741 M307.937,141.793l0.061-0.226c-1.212-1.218-3.029-3.203-5.448-5.96
				c-0.64-0.333-1.297-0.751-1.972-1.257C304.94,138.924,307.393,141.405,307.937,141.793 M539.03,306.742l-0.083-0.144
				c-0.691-0.024-1.314-0.108-1.875-0.259c-0.529-0.142-1-0.352-1.413-0.624c0.729,0.602,1.474,1.003,2.228,1.206
				c0.229,0.061,0.598,0.038,1.112-0.064L539.03,306.742 M538.947,306.599l0.083,0.144c0.229-0.013,0.45-0.076,0.657-0.187
				C539.417,306.599,539.171,306.613,538.947,306.599 M529.667,294.994c-0.015-0.272-0.009-0.596,0.016-0.968l-0.445-0.605
				C529.314,293.905,529.458,294.43,529.667,294.994 M529.683,294.026c-0.024,0.372-0.03,0.695-0.016,0.968
				c0.363,1.357,0.979,2.979,1.853,4.871l0.082,0.146c0.312,0.651,2.761,2.847,7.346,6.588c-5.008-4.584-7.863-7.982-8.565-10.198
				C530.139,295.574,529.906,294.78,529.683,294.026 M518.106,290.068c0.264,0.231,0.45,0.445,0.561,0.637
				c0.558,0.637,1.177,1.045,1.856,1.228c2.192,0.589,5.096,1.085,8.714,1.488l0.445,0.605c-0.167-0.64-0.327-1.247-0.479-1.83
				C525.343,291.484,521.643,290.775,518.106,290.068 M539.915,306.616c-0.086,0.004-0.163-0.018-0.228-0.061
				c-0.207,0.11-0.429,0.174-0.657,0.187C539.313,306.721,539.606,306.678,539.915,306.616 M491.74,283.72
				c2.42,0.65,4.798,1.288,7.143,1.917c3.929,1.055,8.19,2.078,12.785,3.068l4.604,0.508c0.757,0.203,1.369,0.488,1.835,0.855
				c3.536,0.707,7.236,1.416,11.097,2.128c-0.343-1.146-0.572-2.097-0.691-2.86c-2.473-0.744-4.614-1.52-6.422-2.331
				c-3.847,0.751-8.795,0.315-14.839-1.307c-0.832-0.224-6.343-2.028-16.533-5.411c-0.302-0.081-1.132,0.142-2.489,0.669
				c-0.364,0.146-0.839,0.261-1.43,0.347C488.664,282.207,490.309,283.014,491.74,283.72 M550.272,301.983
				c0.076,0.021,0.161,0.003,0.257-0.054c1.18-0.168,2.538-0.25,4.076-0.242c0.075,0.021,0.15,0.04,0.227,0.061
				c0.251-0.337,0.543-0.664,0.871-0.981c0.367-0.469,0.755-0.852,1.157-1.147c0.115-0.13,0.216-0.348,0.297-0.648
				c0.162-0.604-0.228-1.114-1.17-1.529C553.965,299.246,552.058,300.761,550.272,301.983 M351.981,227.62
				c-0.208-0.137-0.386-0.225-0.537-0.265c-0.192,0.109-0.403,0.295-0.637,0.558c-0.464,0.523-0.874,1.142-1.227,1.856
				c0.302,0.082,0.557,0.19,0.763,0.328C350.91,229.195,351.456,228.369,351.981,227.62 M562.483,297.238
				c-0.007,0.324-0.022,0.685-0.048,1.081c1.063-0.037,1.842-0.072,2.336-0.101c2.676-0.011,5.067-0.018,7.175-0.019
				C568.931,297.958,565.777,297.639,562.483,297.238 M498.883,285.637c-2.345-0.629-4.723-1.267-7.143-1.917
				c3.877,1.853,5.854,2.787,5.93,2.808c0.908,0.243,2.986,0.641,6.242,1.19c3.127,0.434,4.763,0.671,4.913,0.711l2.843,0.276
				C507.073,287.715,502.812,286.691,498.883,285.637 M575.714,262.877c0.133,0.116,0.264,0.232,0.394,0.347
				c-0.109-0.19-0.23-0.344-0.363-0.46L575.714,262.877 M658.329,340.827c-4.55-8.108-8.008-15.597-10.373-22.472
				c1.13,4.842,2.146,8.598,3.051,11.271c2.311,6.777,4.602,10.47,6.869,11.078C658.026,340.746,658.18,340.787,658.329,340.827
				 M647.078,303.054c-0.014-0.248-0.076-0.467-0.187-0.657c-0.021,0.075-0.078,0.14-0.174,0.194c0.09,0.268,0.17,0.572,0.239,0.914
				C646.997,303.354,647.037,303.204,647.078,303.054 M616.818,301.25c-1.518-0.082-2.91-0.173-4.18-0.271
				c-3.79-0.37-11.146-0.884-22.066-1.546c5.301,0.774,12.592,1.839,21.866,3.194c2.103,0.321,3.503-0.071,4.207-1.181
				C616.666,301.371,616.721,301.305,616.818,301.25 M616.818,301.25c0.486-0.598,1.306-0.945,2.466-1.04
				c-2.575-0.365-5.927-0.697-10.062-0.998c-8.717-0.719-13.266-1.13-13.644-1.231c-1.059-0.284-1.934-0.641-2.628-1.071
				c-0.627-0.085-1.412-0.175-2.358-0.267c-3.589,0.09-6.595-0.189-9.013-0.839c-0.15-0.04-0.416-0.111-0.793-0.213
				c-2.026-0.301-4.323-0.636-6.9-1.002c-0.474-0.047-4.82,0.002-13.04,0.146c1.075,0.208,1.623,1.043,1.637,2.504
				c3.294,0.4,6.447,0.72,9.463,0.962c3.665-0.07,6.2-0.159,7.605-0.269c0.873,0.073,4.546,0.572,11.021,1.501
				c10.921,0.662,18.276,1.176,22.066,1.546C613.908,301.077,615.301,301.168,616.818,301.25 M650.725,273.166
				c-0.23,0.261-0.465,0.523-0.696,0.784c0.015,0.248,0.004,0.446-0.037,0.598c0.28,0.158,0.602,0.325,0.958,0.5
				c6.754-6.451,11.439-9.567,14.054-9.352c1.716-1.564,2.788-2.532,3.211-2.905c0.231-0.264,0.578-0.493,1.038-0.695
				c-5.447,2.185-9.853,4.405-13.212,6.663l-1.529,1.17c-1.519,1.13-2.706,2.231-3.558,3.299L650.725,273.166 M649.789,273.035
				c0.145,0.364,0.225,0.668,0.239,0.915c0.231-0.261,0.466-0.523,0.696-0.784C650.422,273.085,650.11,273.042,649.789,273.035
				 M635.851,265.649c-0.392-0.347-0.746-0.687-1.063-1.015c0.058,0.097,0.147,0.201,0.279,0.318
				c2.311,2.563,4.229,4.619,5.759,6.164c0.434,0.196,0.893,0.44,1.383,0.734c1.006,1.081,1.902,1.969,2.686,2.667
				c-1.025-1.007-2.295-2.318-3.803-3.938c-0.243-0.31-0.521-0.626-0.839-0.954c-1.646-1.414-3.085-2.691-4.316-3.833
				L635.851,265.649 M694.628,390.305c0.053,0.091,0.11,0.187,0.167,0.29c-0.053-0.103-0.072-0.188-0.054-0.259L694.628,390.305
				 M700.152,368.82c-0.175-0.856-0.359-1.675-0.556-2.456c0.588,4.451,1.465,8.574,2.635,12.373
				C701.666,376.316,700.973,373.011,700.152,368.82 M703.328,400.905l0.083,0.143c0.353,0.501,0.742,1.009,1.17,1.529
				c-0.366-0.747-0.706-1.444-1.018-2.096c-0.171,0.034-0.37,0.021-0.597-0.04C703.063,400.61,703.184,400.764,703.328,400.905
				 M704.966,403.409c-0.166-0.287-0.295-0.565-0.385-0.832c-0.428-0.521-0.817-1.028-1.17-1.529
				C703.985,401.931,704.503,402.718,704.966,403.409 M698.493,355.981c-0.02,0.074-0.011,0.198,0.024,0.371
				c0.206,3.457,0.564,6.795,1.079,10.012c0.196,0.781,0.381,1.6,0.556,2.456c0.82,4.19,1.514,7.496,2.079,9.917
				c0.354,1.391,0.769,2.717,1.239,3.978c1.36,3.686,3.896,9.633,7.608,17.84c0.512,1.107,0.971,2.124,1.37,3.04l0.03-0.113
				C707.172,387.637,702.511,371.803,698.493,355.981 M659.271,342.295c1.107,1.916,2.249,3.844,3.431,5.782
				c-1.084-1.992-2.162-4.024-3.226-6.092c-9.382-18.478-13.587-31.029-12.618-37.654c-0.338-0.252-0.713-0.517-1.127-0.789
				c-0.15-0.04-0.291-0.118-0.421-0.234c-0.263-0.231-0.536-0.428-0.816-0.584c0.007,1.784,0.158,3.486,0.453,5.104
				c0.145,0.363,0.309,0.813,0.488,1.346c0.883,2.75,1.517,5.065,1.903,6.952c0.194,0.781,0.399,1.524,0.617,2.23
				c2.365,6.875,5.823,14.363,10.373,22.472c0.096-0.055,0.219-0.062,0.369-0.021C658.9,341.264,659.09,341.76,659.271,342.295
				 M662.702,348.077c-1.182-1.938-2.323-3.866-3.431-5.782c1.626,4.811,4.131,10.264,7.518,16.355
				c7.53,13.606,12.918,20.847,16.168,21.719c0.603,0.161,1.19,0.238,1.762,0.229c4.162,6.221,7.865,10.535,11.108,12.945
				c-0.404-0.917-0.748-1.902-1.032-2.949c-0.057-0.104-0.114-0.199-0.167-0.29c-0.743-0.846-1.581-1.8-2.512-2.86
				c-1.676-1.908-3.116-3.632-4.325-5.171c-4.184-2.825-9.039-8.422-14.57-16.791C669.796,360.431,666.29,354.63,662.702,348.077
				 M697.863,311.699c-1.598,2.326-3.263,4.756-4.994,7.289c-0.102,0.377-0.186,0.841-0.252,1.39
				c0.217,2.814,0.415,6.147,0.596,10.003c0.108,1.406,0.488,3.616,1.139,6.627c0.535,3.141,0.876,5.337,1.026,6.593
				c0.169,1.18,0.741,3.277,1.712,6.293c0.543,1.604,0.935,3.005,1.18,4.205c-1.567-11.358-2.776-19.987-3.624-25.885
				c-0.495-3.292-1.08-6.083-1.763-8.372C694.251,317.454,695.913,314.741,697.863,311.699 M720.041,280.225
				c1.203-1.459,2.51-3.012,3.925-4.659c1.392-1.57,2.644-3.058,3.75-4.462c-0.793,0.841-1.645,1.747-2.553,2.718
				C723.749,275.467,722.041,277.603,720.041,280.225 M705.398,246.036c-3.288,1.387-6.892,2.891-10.811,4.511
				c-0.458,0.202-7.81,3.292-22.052,9.271c-7.192,3.256-12.692,6.235-16.496,8.94c3.359-2.258,7.765-4.479,13.212-6.663
				c1.148-0.662,2.917-1.362,5.303-2.099c1.412-0.433,2.643-0.791,3.69-1.077c0.992-0.381,1.844-0.68,2.55-0.894
				c0.555-0.257,0.975-0.469,1.264-0.634c1.492-0.734,6.038-2.875,13.633-6.429C699.501,249.152,702.737,247.51,705.398,246.036
				 M727.716,271.104c2.401-2.918,4.363-5.39,5.877-7.413c0.191-0.112,0.336-0.194,0.432-0.25c4.156-4.313,7.289-7.685,9.398-10.116
				c2.515-2.726,4.758-5.202,6.734-7.428c-1.936,2.073-4.08,4.334-6.438,6.779c-14.549,14.971-22.113,22.783-22.696,23.438
				c-2.363,2.767-5.438,6.682-9.227,11.741c-3.809,5.134-6.613,8.796-8.417,10.986c0.161,0.61,0.201,1.064,0.119,1.369
				c-0.933,3.475-3.579,8.354-7.94,14.639c-1.049,1.501-2.08,2.923-3.091,4.273c0.051,0.42,0.101,0.836,0.15,1.255
				c0.066-0.549,0.15-1.013,0.252-1.39c1.731-2.533,3.396-4.963,4.994-7.289c0.061-0.226,0.148-0.404,0.265-0.537
				c5.387-8.599,8.918-14.213,10.597-16.84c0.873-1.144,2.126-2.794,3.758-4.947c1.727-2.209,4.245-5.259,7.559-9.15
				c2-2.622,3.708-4.758,5.122-6.403C726.071,272.851,726.923,271.944,727.716,271.104 M167.022,123.052
				c1.005,1.081,2.011,2.161,3.018,3.24c-0.105-0.513-0.125-1.044-0.058-1.594C168.869,124.318,167.882,123.769,167.022,123.052
				 M170.041,126.292c-1.007-1.08-2.013-2.159-3.018-3.24c-0.207-0.136-0.414-0.273-0.621-0.409
				c0.835,1.114,2.093,2.465,3.774,4.051C170.141,126.523,170.096,126.39,170.041,126.292 M158.283,113.051
				c0.296,0.403,0.631,0.818,1.003,1.24c1.615,2.135,3.093,3.869,4.438,5.202c-0.096-0.166-0.206-0.356-0.332-0.576l-0.113-0.03
				l-0.084-0.144l-0.166-0.287c-1.8-2.347-3.391-4.719-4.774-7.115c-0.005,0.324-0.058,0.673-0.16,1.051
				C158.129,112.564,158.192,112.783,158.283,113.051 M164.316,103.248c0.342-0.069,0.762-0.121,1.255-0.149
				c2.577-0.847,5.864-1.626,9.863-2.335C170.157,100.804,166.451,101.632,164.316,103.248 M157.401,106.374
				c0.055,0.096,0.101,0.231,0.135,0.402l0.03-0.113c0.082-0.304,0.228-0.546,0.44-0.734
				C157.74,106.018,157.538,106.168,157.401,106.374 M162.274,104.522c-0.056-0.096-0.122-0.153-0.197-0.174
				c-0.857,0.173-1.714,0.349-2.571,0.525c-0.08-0.019-0.165-0.001-0.257,0.052c-0.479,0.277-0.892,0.61-1.241,1.003
				c-0.213,0.188-0.359,0.431-0.44,0.734l-0.03,0.113c0.568,1.206,0.82,2.529,0.758,3.97c0.034,0.171,0.021,0.371-0.04,0.597
				c1.383,2.396,2.974,4.769,4.774,7.115c-0.331-0.576-0.615-1.179-0.851-1.809c-0.382-0.992-0.745-1.902-1.092-2.723
				c-0.846-0.469-1.542-1.347-2.09-2.626c-0.603-1.376-0.782-2.519-0.539-3.426C158.802,106.588,160.074,105.472,162.274,104.522
				 M161.126,103.365l-0.145,0.082c-0.368,0.468-0.861,0.944-1.476,1.427c0.856-0.176,1.714-0.352,2.571-0.525
				C161.76,104.019,161.443,103.692,161.126,103.365 M177.673,132.717c7.625,5.775,13.04,9.294,16.246,10.558
				c-1.948-1.497-4.309-3.265-7.083-5.305C184.121,136.292,181.066,134.542,177.673,132.717 M194.229,128.531
				c0.227,0.061,0.455,0.122,0.68,0.183l0.114,0.03c0.15,0.041,0.58-0.046,1.286-0.263c-0.227-0.061-0.426-0.074-0.598-0.037
				C195.142,128.453,194.648,128.481,194.229,128.531 M249.772,148.422c0.176,0.856,1.24,2.479,3.191,4.865
				c0.156-0.28,0.388-0.99,0.692-2.124c0.264-0.981,0.524-1.803,0.782-2.462C253.016,148.562,251.461,148.469,249.772,148.422
				 M252.432,149.378c0.418-0.049,0.713-0.091,0.885-0.128c0.302,0.081,0.344,0.377,0.127,0.886l-0.229,1.762
				c-0.122,0.454-0.372,0.629-0.75,0.527l-1.567-3.217l0.204-0.308l0.371-0.021c-0.041,0.15,0.053,0.256,0.28,0.317
				c0.116-0.131,0.286-0.166,0.513-0.104C252.226,149.242,252.281,149.337,252.432,149.378 M251.804,154.436
				c-0.633-0.657-1.396-1.59-2.286-2.802c-0.849-1.363-1.519-2.19-2.006-2.482c-0.167,0.926-0.168,2.587,0,4.981l-0.244,0.907
				C248.811,154.724,250.323,154.522,251.804,154.436 M250.249,153.895l-0.803,0.271c-0.534,0.181-0.953,0.23-1.256,0.149
				l-0.225-0.061c-0.228-0.061-0.384-0.385-0.468-0.975c-0.009-0.569,0.037-1.044,0.139-1.423c0.203-0.755,0.5-0.959,0.893-0.61
				c0.282,0.157,0.803,0.783,1.563,1.877l-0.03,0.113C250.286,153.297,250.35,153.519,250.249,153.895 M232.995,158.864
				c-0.528-0.142-1.047-0.32-1.556-0.538c-0.102,0.378-0.213,0.792-0.334,1.246C231.755,159.26,232.385,159.026,232.995,158.864
				 M220.354,163.857c-0.04,0.15-0.07,0.263-0.091,0.34c-0.284,1.057-0.131,2.151,0.457,3.282c0.331,0.576,0.759,1.094,1.282,1.559
				C221.232,167.374,220.684,165.648,220.354,163.857 M222.337,162.809c-0.071-0.342-0.1-0.836-0.089-1.481
				c-0.822,0.347-1.423,1.075-1.803,2.188C221.075,163.282,221.706,163.045,222.337,162.809 M222.337,162.809
				c0.554-0.255,1.137-0.464,1.747-0.624c-0.227-0.061-0.415-0.111-0.566-0.152c-0.227-0.061-0.431-0.359-0.611-0.894l-0.113-0.03
				c-0.172,0.037-0.353,0.108-0.545,0.219C222.237,161.973,222.266,162.467,222.337,162.809 M224.638,156.5
				c0.13,0.116,0.224,0.221,0.279,0.317c1.299,0.593,2.75,1.224,4.351,1.899c-0.596,0.407-1.255,0.755-1.983,1.046
				c0.241,0.31,0.435,0.644,0.581,1.008c1.11-0.514,2.19-0.913,3.239-1.199c0.122-0.454,0.233-0.868,0.334-1.246
				C229.494,157.723,227.227,157.115,224.638,156.5 M224.917,156.817c-0.055-0.096-0.149-0.201-0.279-0.317
				c0.055,0.096,0.11,0.19,0.166,0.287L224.917,156.817 M227.285,159.762c-0.266,0.09-0.582,0.21-0.945,0.354
				c0.014,0.248,0.001,0.446-0.039,0.597c-0.041,0.151-0.312,0.403-0.811,0.755c-0.096,0.055-0.153,0.121-0.173,0.196
				c0.821-0.347,1.671-0.646,2.548-0.895C227.72,160.406,227.526,160.072,227.285,159.762 M222.396,154.442l-0.114-0.031
				c-0.025,0.396-0.041,0.758-0.046,1.079c0.282,0.159,0.526,0.305,0.732,0.441c0.273-0.413,0.634-0.397,1.081,0.045
				C223.415,155.322,222.862,154.809,222.396,154.442 M238.896,156.803l0.34,0.091c-0.055-0.096-0.11-0.191-0.167-0.286
				L238.896,156.803 M236.979,158.963c-0.146-0.364-0.319-0.776-0.52-1.234c-1.145,0.341-2.299,0.72-3.465,1.135
				c-0.609,0.162-1.239,0.396-1.89,0.708c-1.049,0.286-2.129,0.685-3.239,1.199c-0.876,0.249-1.727,0.548-2.548,0.895
				c-0.48,0.276-0.891,0.449-1.234,0.52c-0.61,0.16-1.193,0.369-1.747,0.624c-0.631,0.237-1.262,0.473-1.892,0.708
				c-0.04,0.148-0.07,0.261-0.092,0.341c0.33,1.791,0.879,3.516,1.647,5.181l0.114,0.031c-0.156-0.934-0.131-1.777,0.072-2.532
				C223.019,163.438,227.949,160.914,236.979,158.963 M232.583,151.342l-0.608,2.267c-0.017,0.969-0.195,2.54-0.536,4.718
				c0.509,0.217,1.028,0.396,1.556,0.538c1.166-0.415,2.32-0.794,3.465-1.135c-0.809-1.512-2.025-3.622-3.649-6.326L232.583,151.342
				 M233.488,158.39l-0.114-0.031c-0.248,0.014-0.445,0.001-0.597-0.04c-0.378-0.102-0.504-0.985-0.381-2.653l0.508-1.442
				l0.04-0.597c0.243-0.907,0.719-0.415,1.427,1.475l0.798,1.553c0.277,0.478,0.395,0.793,0.354,0.944
				c-0.081,0.304-0.273,0.413-0.576,0.332l-0.113-0.03C234.541,158.389,234.092,158.552,233.488,158.39 M230.034,157.22l0.03-0.113
				c-0.063-1.879-0.463-4.46-1.205-7.738c-1.24,0.398-2.549,0.897-3.926,1.5L230.034,157.22 M228.893,152.416
				c0.3,1.296,0.43,2.021,0.389,2.171c-0.081,0.302-0.235,0.424-0.462,0.363c-1.518-2.19-2.236-3.437-2.155-3.74
				c0.203-0.754,0.757-1.012,1.665-0.769c0.528,0.142,0.751,0.366,0.671,0.667C228.874,151.886,228.838,152.321,228.893,152.416
				 M233.118,148.447c0.055,0.096,0.12,0.153,0.195,0.174l-0.166-0.286L233.118,148.447 M239.587,149.697l-0.518,1.929
				c-0.155,2.388-0.155,4.047-0.001,4.981c0.057,0.095,0.111,0.19,0.167,0.286c0.267-0.09,0.487-0.151,0.658-0.187
				c1.317-0.377,2.66-0.706,4.032-0.985l-2.113-2.997C240.474,151.069,239.733,150.062,239.587,149.697 M239.565,154.31l0.44-0.734
				c-0.201-0.458-0.272-0.801-0.211-1.027c0.203-0.757,0.711-0.537,1.526,0.652c0.87,1.287,1.265,2.082,1.183,2.384
				c-0.081,0.301-0.273,0.411-0.575,0.33c-0.076-0.021-0.151-0.041-0.228-0.061c-0.267,0.092-0.619,0.199-1.058,0.323
				c-0.041,0.153-0.137,0.208-0.288,0.167l-0.113-0.03c-0.302-0.081-0.506-0.38-0.611-0.893
				C239.505,154.982,239.484,154.611,239.565,154.31 M236.052,133.438c-1.36-0.365-2.544-0.481-3.553-0.346
				c0.227,0.061,0.454,0.122,0.68,0.183C233.481,133.355,234.44,133.411,236.052,133.438 M256.538,149.022
				c-0.227-0.061-0.415-0.111-0.567-0.152l-0.517,1.926c-0.124,1.669-0.267,2.805-0.429,3.41c0.418-0.05,0.789-0.074,1.111-0.068
				c-0.377-0.102-0.527-0.303-0.445-0.606c0.02-0.075,0.192-0.11,0.515-0.104c-0.015-0.246-0.02-0.532-0.014-0.854
				c-0.079-0.914-0.097-1.445-0.057-1.596c0.284-1.058,0.822-0.954,1.616,0.313c0.815,1.189,1.171,1.976,1.07,2.352l-0.061,0.228
				c-0.061,0.226-0.242,0.298-0.545,0.217l-0.227-0.061c-0.076-0.021-0.198-0.013-0.371,0.021c-0.171,0.037-0.343,0.072-0.514,0.106
				c1.139-0.02,2.295,0.049,3.469,0.203C259.946,153.378,258.6,151.601,256.538,149.022 M256.538,149.022l-0.083-0.146l-0.454-0.122
				l-0.031,0.115C256.123,148.911,256.311,148.961,256.538,149.022 M360.512,305.859c3.176-0.363,5.759-2.14,7.75-5.332
				c2.469-5.577,4.596-8.975,6.382-10.196c0.787-0.519,2.709-3,5.765-7.446c1.228-1.856,2.272-3.482,3.13-4.87
				c-4.013,3.783-8.078,8.97-12.196,15.562c-3.013,5.188-5.26,8.432-6.745,9.734C363.361,304.598,362,305.447,360.512,305.859
				 M347.631,299.972l0.03-0.112c-0.13-0.118-0.224-0.224-0.279-0.319c-1.353-1.901-2.48-4.19-3.383-6.862
				c0.251,0.878,0.604,1.823,1.061,2.837C345.756,297.181,346.614,298.666,347.631,299.972 M347.827,300.146l-0.196-0.174
				c0.175,0.228,0.361,0.438,0.559,0.637C348.038,300.456,347.917,300.3,347.827,300.146 M343.289,287.625
				c-0.063,1.443,0.175,3.126,0.71,5.053c0.903,2.672,2.03,4.961,3.383,6.862C345.517,296.528,344.152,292.557,343.289,287.625
				 M368.634,295.521c-0.349,0.394-0.688,0.749-1.015,1.064c-0.607,1.053-1.36,2.35-2.26,3.891c-1.87,2.738-3.684,4.52-5.444,5.344
				c0.172-0.035,0.371-0.021,0.597,0.039c1.488-0.412,2.85-1.262,4.086-2.549c1.484-1.303,3.731-4.547,6.745-9.734
				c4.119-6.592,8.184-11.778,12.196-15.562c0.314-0.564,0.606-1.053,0.88-1.466c-4.794,2.765-8.855,7.184-12.187,13.255
				C370.414,292.962,369.214,294.868,368.634,295.521 M345.38,242.254c0.791-2.947,1.427-5.167,1.908-6.658
				c-0.232,0.263-0.484,0.599-0.757,1.012c-1.228,1.858-2.035,3.506-2.42,4.94c-0.041,0.15-0.595,4.781-1.663,13.895
				c-0.031,0.72-0.08,1.354-0.146,1.903c-0.082,0.304-0.163,0.604-0.244,0.907c-1.582,5.895-1.784,12.686-0.607,20.372
				c0.084,0.59,0.18,1.144,0.285,1.658c-0.058-0.989-0.108-2.014-0.147-3.078C341.054,265.315,342.317,253.665,345.38,242.254
				 M347.318,235.483l-0.03,0.112c-0.48,1.491-1.117,3.711-1.908,6.658c-3.063,11.411-4.326,23.062-3.791,34.951
				c0.039,1.064,0.089,2.089,0.147,3.078c0.28,1.37,0.618,2.677,1.014,3.917c-0.409-2.701-0.644-5.601-0.704-8.695
				c-0.323-12.076,0.479-21.705,2.406-28.884c0.646-1.203,1.263-2.293,1.85-3.271c0.409-3.939,0.827-6.704,1.253-8.292
				C347.445,235.183,347.367,235.322,347.318,235.483 M348.786,231.379c0.225,0.06,0.453,0.121,0.68,0.182
				c0.293-0.488,0.585-0.974,0.879-1.463c-0.206-0.138-0.461-0.246-0.763-0.328C349.288,230.259,349.022,230.795,348.786,231.379
				 M302.117,211.928c2.936,1.437,6.381,3.089,10.333,4.962c15.792,5.453,28.056,9.716,36.792,12.789
				c0.075,0.021,0.188,0.051,0.339,0.091c0.354-0.715,0.763-1.333,1.227-1.856c0.233-0.263,0.444-0.448,0.637-0.558
				c-2.559-1.335-4.178-2.095-4.858-2.277C330.415,220.738,315.592,216.354,302.117,211.928 M312.45,216.89
				c1.452,0.632,2.977,1.283,4.579,1.958c12.244,5.391,22.83,9.567,31.757,12.531c0.237-0.584,0.502-1.12,0.795-1.609
				c-0.152-0.04-0.264-0.07-0.339-0.091C340.506,226.605,328.242,222.343,312.45,216.89 M423.672,262.051
				c0.041-0.15,0.054-0.352,0.039-0.597c-0.424,0.372-0.924,0.723-1.498,1.055c-1.127,1.48-2.88,2.427-5.259,2.842
				c0.152,0.04,0.34,0.091,0.567,0.151c1.663,0.446,3.198,0.01,4.606-1.314C422.995,263.367,423.509,262.656,423.672,262.051
				 M402.874,266.19c-2.797,0.465-5.203,1.276-7.215,2.438c-0.48,0.277-1.44,0.99-2.884,2.143
				C395.11,269.615,398.478,268.089,402.874,266.19 M392.23,270.988c0.191-0.109,0.373-0.183,0.544-0.218
				c1.444-1.152,2.404-1.865,2.884-2.143c2.013-1.161,4.418-1.973,7.215-2.438c0.097-0.054,0.192-0.109,0.289-0.166
				c0.898-0.326,3.985-0.509,9.262-0.553c1.461-0.012,2.689-0.209,3.683-0.59c0.282,0.156,0.563,0.313,0.846,0.469
				c2.379-0.415,4.132-1.361,5.259-2.842c-1.302,0.623-3.16,1.056-5.574,1.3c-2.909,0.273-8.271,0.778-16.083,1.516
				c-2.188,0.305-4.519,1.744-6.993,4.322C393.119,270.095,392.675,270.54,392.23,270.988 M466.489,128.326
				c-0.137,0.206-0.235,0.424-0.296,0.65c-0.041,0.15-0.082,0.303-0.122,0.454c0.075,0.02,0.151,0.041,0.226,0.061
				c0.471-0.847,1.026-1.709,1.669-2.59C467.314,127.212,466.822,127.688,466.489,128.326 M468.214,127.33
				c0.156-0.281,0.352-0.554,0.583-0.814c-0.342,0.069-0.619,0.197-0.831,0.385c-0.643,0.881-1.198,1.743-1.669,2.59
				c0.077,0.021,0.18,0.088,0.312,0.204C467.133,128.946,467.669,128.157,468.214,127.33 M505.872,89.802
				c0.711-0.538,1.45-1.028,2.217-1.47c3.868-2.04,8.372-2.818,13.507-2.33c2.415-0.244,4.603-0.101,6.568,0.427
				c0.832,0.223,1.605,0.512,2.319,0.865c-0.991-0.833-1.912-1.323-2.765-1.471c-1.55-0.255-5.981-0.35-13.289-0.287
				C510.516,86.835,507.662,88.258,505.872,89.802 M200.984,98.385l-0.114-0.03c-1.769,0.254-4.033,0.536-6.79,0.85
				C196.816,98.969,199.119,98.694,200.984,98.385 M187.751,99.694c1.558-0.068,3.667-0.23,6.33-0.489
				c-2.546,0.128-4.607,0.263-6.185,0.407L187.751,99.694 M740.106,232.628c3.994-1.603,6.04-2.431,6.135-2.485
				c-1.773,0.578-3.616,1.256-5.529,2.04C740.521,232.293,740.317,232.44,740.106,232.628 M754.397,227.834
				c0.855-0.174,1.665-0.322,2.427-0.44c-1.668-0.125-3.852-0.144-6.547-0.058c-1.437-0.386-3.759,0.572-6.968,2.869
				c-0.884,0.575-1.749,1.232-2.598,1.978c1.913-0.784,3.756-1.462,5.529-2.04c0.172-0.035,0.307-0.079,0.402-0.137
				C749.892,228.772,752.476,228.049,754.397,227.834 M757.186,227.854c0.19-0.11,0.384-0.22,0.575-0.332
				c-0.304-0.081-0.614-0.124-0.937-0.128c-0.762,0.118-1.571,0.267-2.427,0.44c1.102-0.188,1.995-0.193,2.675-0.011
				L757.186,227.854 M729.706,236.521c0.726-0.292,1.403-0.557,2.034-0.793c-0.342,0.072-0.723,0.132-1.142,0.181
				c-4.038,0.86-6.708,1.603-8.009,2.225c-2.55,1.343-6.165,3.045-10.852,5.109c3.894-1.224,8.179-2.705,12.861-4.446
				C726.263,238.027,727.967,237.269,729.706,236.521 M731.74,235.728c-0.631,0.236-1.309,0.501-2.034,0.793
				c-1.739,0.748-3.443,1.507-5.106,2.275c1.453-0.584,2.952-1.194,4.5-1.831c1.454-0.582,2.811-1.108,4.07-1.582
				C732.73,235.51,732.256,235.624,731.74,235.728 M539.407,170.864c0.206,0.136,0.403,0.31,0.589,0.521
				c-0.307-0.973-0.547-1.889-0.721-2.745l-0.177,0.194c-0.136,0.208-0.261,0.376-0.377,0.506l-0.031,0.115
				c0.11,0.191,0.221,0.382,0.333,0.573C539.188,170.319,539.315,170.595,539.407,170.864 M532.22,88.975
				c-0.612-0.731-1.192-1.293-1.736-1.681c-0.714-0.353-1.487-0.642-2.319-0.865c-1.966-0.528-4.153-0.671-6.568-0.427l0.112,0.03
				c0.323,0.006,0.674,0.06,1.052,0.161c0.645,0.009,1.384,0.127,2.214,0.35c0.113,0.031,0.227,0.061,0.339,0.091
				c0.171-0.034,0.372-0.021,0.598,0.04C528.218,87.131,530.321,87.898,532.22,88.975z"/>
			
				<linearGradient id="SVGID_1_" gradientUnits="userSpaceOnUse" x1="421.5801" y1="-152.1934" x2="468.8357" y2="565.3188" gradientTransform="matrix(0.9658 0.2592 -0.2592 0.9658 73.7109 -109.166)">
				<stop  offset="0" style="stop-color:#8AA7FF"/>
				<stop  offset="1" style="stop-color:#8EE6F4"/>
			</linearGradient>
			<path fill="url(#SVGID_1_)" d="M640.223,302.792c0.735,0.063,1.485,0.143,2.245,0.239c0.246-0.018,0.598,0.037,1.052,0.158
				c-0.05-0.416-0.159-0.771-0.324-1.058C642.295,302.465,641.303,302.686,640.223,302.792 M619.284,300.21
				c-1.16,0.095-1.979,0.442-2.466,1.04c1.441,0.063,3.007,0.118,4.695,0.166c1.385-0.031,2.648-0.058,3.788-0.077
				c-0.078-0.021-0.188-0.051-0.341-0.092C623.925,300.889,622.03,300.544,619.284,300.21 M213.188,153.428
				c0.594,0.808,1.405,1.105,2.434,0.895c-0.335-0.166-0.703-0.305-1.104-0.417l-0.113-0.03c-0.075-0.021-0.189-0.051-0.34-0.091
				C213.791,153.694,213.499,153.575,213.188,153.428 M193.918,143.274c-3.206-1.264-8.621-4.782-16.246-10.558
				c-0.031,0.011-0.069,0-0.113-0.03l-0.114-0.03c-0.055-0.098-0.12-0.156-0.195-0.176c-0.338-0.252-0.658-0.418-0.96-0.5
				c0.937,0.738,1.938,1.534,3.005,2.388c10.867,8.774,22.165,15.126,33.892,19.06c0.311,0.147,0.604,0.266,0.878,0.356
				c-0.661-0.257-1.184-0.721-1.571-1.393c-0.604-0.162-1.171-0.314-1.701-0.457c-4.986-1.338-9.459-3.39-13.416-6.153
				C196.42,145.121,195.267,144.284,193.918,143.274 M219.136,155.266c1.077,0.208,2.108,0.445,3.09,0.708
				c-0.036-0.17-0.033-0.331,0.008-0.484c-1.355-0.686-2.548-1.372-3.581-2.052c-1.069,0.36-2.08,0.656-3.032,0.885
				C216.83,154.647,218.002,154.961,219.136,155.266 M218.654,153.438c-0.281-0.159-0.526-0.305-0.731-0.441
				c-1.113,0.893-2.247,1.196-3.404,0.909c0.4,0.112,0.768,0.251,1.104,0.417C216.574,154.094,217.585,153.798,218.654,153.438
				 M441.876,248.101l3.629,0.975c0.02-0.075-0.575-0.274-1.784-0.6C442.976,248.345,442.361,248.222,441.876,248.101
				 M531.895,301.181c-0.086-0.348-0.186-0.737-0.293-1.17l-0.082-0.146c-0.874-1.892-1.489-3.514-1.853-4.871
				C529.55,297.202,530.292,299.266,531.895,301.181 M551.95,302.068c-0.452-0.121-0.926-0.168-1.421-0.139
				c-0.096,0.057-0.181,0.074-0.257,0.054c-1.331,0.892-4.86,2.415-10.585,4.572C545.924,304.375,550.01,302.879,551.95,302.068
				 M424.668,258.794c0.055,0.096,0.063,0.218,0.021,0.371c2.75,1.222,5.51,2.41,8.28,3.559
				c19.407,8.286,38.996,15.286,58.771,20.996c-1.432-0.706-3.076-1.513-4.941-2.417c-1.535-0.008-3.742-0.396-6.612-1.166
				c-4.083-1.097-16.177-5.681-36.29-13.751C436.336,263.465,429.927,260.935,424.668,258.794 M558.383,298.934
				c0.075,0.021,0.123-0.007,0.144-0.082c-0.269,0.089-0.508,0.227-0.72,0.415C557.997,299.156,558.191,299.044,558.383,298.934
				 M511.668,288.705c2.061,0.473,4.207,0.925,6.438,1.363c-0.466-0.367-1.078-0.652-1.835-0.855L511.668,288.705 M658.698,340.806
				c-0.15-0.04-0.273-0.033-0.369,0.021c0.275,0.478,0.591,0.968,0.942,1.468C659.09,341.76,658.9,341.264,658.698,340.806
				 M645.436,309.173c-0.18-0.532-0.344-0.982-0.488-1.346c0.644,3.333,1.647,6.844,3.009,10.528
				c-0.218-0.706-0.423-1.449-0.617-2.23C646.952,314.238,646.318,311.923,645.436,309.173 M645.731,303.542
				c0.414,0.272,0.789,0.537,1.127,0.789c0.04-0.15,0.081-0.303,0.122-0.454C646.526,303.755,646.11,303.644,645.731,303.542
				 M645.311,303.308c0.13,0.116,0.271,0.194,0.421,0.234c0.379,0.102,0.795,0.213,1.249,0.335
				c-0.034-0.171-0.045-0.294-0.023-0.372c-0.069-0.342-0.149-0.646-0.239-0.914c-0.31,0.243-0.664,0.511-1.068,0.808
				C645.574,303.378,645.461,303.348,645.311,303.308 M578.967,298.749c4.231,0.242,8.098,0.471,11.605,0.684
				c-6.475-0.929-10.147-1.428-11.021-1.501c-1.405,0.109-3.94,0.198-7.605,0.269C574.391,298.45,576.729,298.633,578.967,298.749
				 M648.536,276.345c0.095-0.055,0.181-0.072,0.256-0.053l0.177-0.197c0.075,0.021,0.123-0.006,0.143-0.081
				c0.096-0.056,0.19-0.111,0.286-0.166l0.03-0.112c0.356-0.717,0.543-1.11,0.563-1.188c0.041-0.151,0.052-0.35,0.037-0.598
				c-0.252,0.337-0.504,0.677-0.756,1.012C649.001,275.376,648.753,275.836,648.536,276.345 M650.725,273.166l0.229,0.062
				c0.852-1.067,2.039-2.169,3.558-3.299C653.013,270.984,651.75,272.064,650.725,273.166 M716.375,417.045
				c-0.135-1.009-0.643-2.441-1.521-4.299c-0.368,0.469-0.78,0.804-1.239,1.004C714.544,414.811,715.465,415.908,716.375,417.045
				 M702.854,400.411c0.163,0.187,0.321,0.351,0.475,0.494c-0.145-0.142-0.265-0.295-0.361-0.464L702.854,400.411 M720.041,280.225
				c-3.313,3.892-5.832,6.941-7.559,9.15c-1.632,2.153-2.885,3.804-3.758,4.947c-1.679,2.627-5.21,8.241-10.597,16.84
				C707.495,297.396,714.8,287.08,720.041,280.225 M158.294,110.745l-0.228-0.061c0.055,0.096,0.111,0.192,0.167,0.287
				L158.294,110.745 M158.067,110.684l0.228,0.061c0.063-1.44-0.19-2.764-0.758-3.97c-0.142,0.529-0.08,1.355,0.186,2.48
				C157.862,109.941,157.977,110.418,158.067,110.684 M158.007,105.928c0.349-0.393,0.762-0.726,1.241-1.003
				c0.093-0.053,0.178-0.071,0.257-0.052c-0.38-0.1-0.733,0.007-1.059,0.324C158.235,105.382,158.088,105.627,158.007,105.928
				 M162.705,104.272c-0.151-0.041-0.36-0.013-0.628,0.076c0.076,0.021,0.141,0.078,0.197,0.174
				C162.389,104.392,162.533,104.309,162.705,104.272 M228.48,177.948c2.95,2.898,6.689,5.563,11.222,7.994
				c1.018,0.435,2.026,0.908,3.023,1.419C236.672,183.954,231.923,180.816,228.48,177.948 M253.785,155.209
				c0.144,0.364,0.263,0.678,0.354,0.944c0.343-0.069,0.675-0.101,0.997-0.095C254.723,155.787,254.272,155.502,253.785,155.209
				 M220.445,163.516c-0.023,0.077-0.071,0.104-0.144,0.085c0.053,0.093,0.07,0.178,0.052,0.256
				C220.375,163.777,220.405,163.664,220.445,163.516 M222.907,156.156l0.061-0.225c-0.207-0.136-0.451-0.283-0.732-0.441
				c-0.041,0.153-0.044,0.314-0.008,0.484C222.453,156.035,222.68,156.096,222.907,156.156 M222.641,156.693
				c0.061-0.226,0.15-0.406,0.266-0.537c-0.227-0.061-0.454-0.122-0.68-0.183c-0.06,2.334-0.052,4.119,0.021,5.354
				c0.192-0.11,0.373-0.182,0.545-0.219l0.113,0.03C222.751,160.207,222.663,158.726,222.641,156.693 M225.95,157.947
				c0.614,0.732,1.06,1.338,1.335,1.815c0.728-0.291,1.387-0.639,1.983-1.046c-1.602-0.675-3.052-1.306-4.351-1.899
				C225.233,157.147,225.578,157.521,225.95,157.947 M226.34,160.117c0.363-0.145,0.679-0.264,0.945-0.354
				c-0.276-0.478-0.721-1.083-1.335-1.815c-0.372-0.425-0.717-0.8-1.033-1.129l-0.113-0.03l0.083,0.146
				C225.812,158.313,226.296,159.375,226.34,160.117 M386.227,275.697c0.116-0.13,0.26-0.214,0.432-0.249l-0.113-0.03
				c-0.746,0.366-1.455,0.744-2.126,1.131c-0.274,0.413-0.566,0.901-0.88,1.466C384.428,277.118,385.325,276.346,386.227,275.697
				 M359.627,305.984c0.268-0.089,0.563-0.131,0.885-0.125c-0.227-0.061-0.425-0.074-0.597-0.039
				C359.819,305.876,359.723,305.93,359.627,305.984 M341.736,280.283c0.355,4.714,1.109,8.844,2.263,12.395
				c-0.536-1.927-0.773-3.609-0.71-5.053c-0.266-1.123-0.444-2.265-0.539-3.425C342.354,282.96,342.016,281.653,341.736,280.283
				 M349.465,231.561c-0.227-0.061-0.455-0.122-0.68-0.182c-0.355,0.716-0.681,1.479-0.981,2.29c-0.12,0.445-0.282,1.05-0.487,1.814
				c0.049-0.161,0.127-0.301,0.236-0.425l0.03-0.111C348.231,233.743,348.858,232.613,349.465,231.561 M310.471,216.113
				c0.66,0.258,1.32,0.517,1.979,0.776c-3.952-1.873-7.397-3.525-10.333-4.962c-7.945-2.699-15.415-5.352-22.412-7.959
				C288.918,207.979,299.173,212.027,310.471,216.113 M402.874,266.19c0.858-0.175,1.743-0.301,2.656-0.382
				c5.256,0.035,9.026-0.128,11.311-0.488l0.113,0.03c-0.282-0.156-0.564-0.313-0.846-0.469c-0.994,0.381-2.222,0.578-3.683,0.59
				c-5.277,0.044-8.364,0.227-9.262,0.553C403.066,266.081,402.971,266.137,402.874,266.19 M391.563,271.661
				c0.424-0.372,0.828-0.669,1.211-0.891c-0.171,0.035-0.353,0.108-0.544,0.218C392.018,271.176,391.797,271.399,391.563,271.661
				 M467.966,126.9c0.212-0.188,0.489-0.315,0.831-0.385c0.996-1.596,1.913-3.051,2.752-4.367
				C470.135,123.796,468.94,125.379,467.966,126.9 M324.836,102.824c-0.796-0.05-1.63-0.112-2.502-0.185
				c0.11,0.191,0.173,0.412,0.188,0.658C323.228,103.083,324,102.924,324.836,102.824 M755.261,240.462
				c-1.489,1.625-3.191,3.438-5.104,5.435c-1.977,2.226-4.22,4.702-6.734,7.428c-2.109,2.432-5.242,5.804-9.398,10.116
				c-0.096,0.056-0.24,0.138-0.432,0.25c-1.514,2.023-3.476,4.495-5.877,7.413c7.947-8.479,13.873-14.868,17.781-19.166
				C749.172,247.901,752.429,244.076,755.261,240.462 M757.761,227.521c0.118-0.13,0.259-0.213,0.432-0.248
				c-0.419,0.05-0.875,0.089-1.368,0.12C757.146,227.397,757.457,227.44,757.761,227.521 M731.74,235.728
				c0.516-0.104,0.99-0.218,1.43-0.345c2.733-1.129,5.047-2.047,6.937-2.755c0.211-0.188,0.414-0.335,0.605-0.445
				C737.943,233.14,734.952,234.323,731.74,235.728 M540.472,171.879c-0.301-1.296-0.601-2.592-0.901-3.887l-0.295,0.649
				c0.174,0.856,0.414,1.772,0.721,2.745C540.127,171.501,540.285,171.667,540.472,171.879 M536.092,130.236
				c0.023-1.29-0.34-4.465-1.088-9.527c0.038,1.064,0.028,2.156-0.026,3.273c0.013,0.248,0.056,0.542,0.125,0.885
				C535.414,126.734,535.742,128.524,536.092,130.236 M534.894,90.786c-0.81-1.513-2.278-2.679-4.41-3.493
				c0.544,0.388,1.124,0.95,1.736,1.681c0.489,0.292,0.976,0.587,1.466,0.88C534.098,90.126,534.5,90.436,534.894,90.786z"/>
			<path fill="#3F6884" d="M266.25,155.396c2.342,0.629,5.96,1.64,10.851,3.033c-4.989-10.147-8.581-15.932-10.775-17.354
				c-0.171,0.035-0.353,0.109-0.544,0.219l-0.083-0.143c-0.13-0.118-0.261-0.234-0.392-0.35c-0.419,0.049-1.028,0.211-1.831,0.482
				c-1.694,0.274-4.015,0.017-6.961-0.774c-1.285-0.345-8.067-2.692-20.349-7.042l-0.113-0.03c-1.612-0.027-2.571-0.083-2.873-0.164
				c-0.226-0.061-0.453-0.122-0.68-0.183c-1.427,0.185-2.519,0.781-3.276,1.793c-1.454,1.798-4.297,2.129-8.53,0.993
				c-1.814-0.487-5.351-1.801-10.609-3.942c-5.313-2.235-8.385-3.465-9.217-3.688c-0.152-0.041-1.671,0.038-4.559,0.233
				c-0.706,0.217-1.135,0.303-1.286,0.263l-0.114-0.03c-0.226-0.061-0.453-0.122-0.68-0.183c-2.525,0.053-4.052,0.006-4.581-0.135
				c-0.605-0.163-2.111-0.889-4.519-2.184c-2.386-1.372-3.882-2.136-4.487-2.298c-0.15-0.041-1.134,0.303-2.95,1.031
				c-2.365,0.662-4.416,0.759-6.155,0.292c-0.528-0.142-1.047-0.321-1.556-0.538c-0.067,0.549-0.047,1.081,0.058,1.594
				c1.922,1.895,4.006,3.79,6.25,5.688c0.302,0.082,0.622,0.248,0.96,0.5c0.076,0.02,0.141,0.078,0.195,0.176l0.114,0.03
				c0.044,0.031,0.082,0.041,0.113,0.03c3.394,1.825,6.448,3.575,9.163,5.253c2.774,2.04,5.135,3.808,7.083,5.305
				c1.349,1.01,2.502,1.846,3.459,2.507c3.957,2.764,8.429,4.815,13.416,6.153c0.529,0.142,1.096,0.294,1.701,0.457
				c0.387,0.671,0.911,1.135,1.571,1.393c0.15,0.04,0.265,0.071,0.34,0.091l0.113,0.03c1.157,0.287,2.292-0.016,3.404-0.909
				c0.116-0.13,0.279-0.288,0.492-0.476c1.693-0.274,3.363-0.759,5.006-1.45c3.663-2.179,6.067-3.436,7.211-3.777
				c4.222-1.54,7.027-2.488,8.42-2.843c5.011-1.167,9.632-1.182,13.864-0.046c5.108,2.1,8.041,3.25,8.795,3.452
				c0.604,0.163,1.154,0.229,1.648,0.201c0.049,0.419,0.185,0.818,0.406,1.203c0.643,1.226,1.798,2.507,3.464,3.847
				c0.393,0.348,0.795,0.658,1.208,0.932c0.262,0.231,0.534,0.425,0.816,0.582c0.393,0.35,0.87,0.679,1.435,0.993l0.196,0.173
				C269.559,155.595,268.015,155.463,266.25,155.396 M435.734,236.124c-3.719-3.348-6.221-5.194-7.506-5.539
				c-0.226-0.062-1.089,0.437-2.588,1.493c-1.876,0.954-3.683,1.197-5.421,0.73c-4.308-1.155-7.982-2.709-11.022-4.659
				c-3.063-1.874-5.122-2.953-6.18-3.237c-3.675,0.715-5.626,1.042-5.853,0.981c-0.982-0.264-7.508-5.379-19.579-15.343
				c-4.455-3.625-8.142-6.64-11.061-9.044c-0.797-0.05-1.687-0.208-2.67-0.472c-2.946-0.791-6.297-2.946-10.051-6.464
				c-1.867-1.799-4.265-4.183-7.193-7.157c-0.308,0.243-0.998,1.148-2.068,2.725c-1.615,1.188-3.895,1.385-6.843,0.594
				c-2.192-0.588-7.179-3.586-14.962-8.998c-7.391-5.063-11.831-8.44-13.32-10.138c-1.692,2.382-4.531,4.659-8.516,6.829
				c-4.137,2.131-7.225,2.922-9.265,2.374c-2.872-0.771-7.349-7.481-13.433-20.131c-0.359-0.747-0.726-1.493-1.101-2.239
				c-4.891-1.394-8.509-2.404-10.851-3.033c-3.054-0.091-6.759,0.129-11.115,0.662c-0.322-0.005-0.654,0.026-0.997,0.095
				c-2.985,0.253-6.219,0.681-9.703,1.287c-2.798,0.464-5.284,0.971-7.457,1.523c-9.03,1.951-13.961,4.476-14.792,7.575
				c-0.203,0.754-0.228,1.598-0.072,2.532l-0.03,0.113c1.426,3.138,3.559,6.058,6.396,8.765c3.443,2.868,8.192,6.006,14.245,9.413
				c13.206,5.73,23.405,10.291,30.596,13.681c2.091,0.964,4.218,1.941,6.384,2.928c6.997,2.607,14.467,5.26,22.412,7.959
				c13.475,4.426,28.298,8.811,44.47,13.15c0.68,0.183,2.299,0.942,4.858,2.277c0.15,0.04,0.329,0.128,0.537,0.265
				c-0.525,0.749-1.071,1.575-1.637,2.478c22.053,7.781,46.477,17.294,73.273,28.535c0.357,0.176,0.716,0.354,1.073,0.532
				c0.041-0.153,0.034-0.275-0.021-0.371c5.258,2.141,11.667,4.671,19.229,7.592c20.113,8.07,32.207,12.654,36.29,13.751
				c2.87,0.77,5.077,1.158,6.612,1.166c0.591-0.086,1.065-0.201,1.43-0.347c1.357-0.527,2.188-0.75,2.489-0.669
				c10.19,3.383,15.701,5.188,16.533,5.411c6.044,1.622,10.992,2.058,14.839,1.307c1.808,0.812,3.949,1.587,6.422,2.331
				c0.119,0.764,0.349,1.715,0.691,2.86c3.331,0.569,6.783,1.133,10.361,1.687c6.208,1.02,12.048,1.898,17.52,2.638
				c0.637-0.561,1.273-1.117,1.91-1.676c0.343-0.069,0.713-0.091,1.111-0.067c0.246-0.014,0.492-0.028,0.741-0.043
				c8.22-0.144,12.566-0.192,13.04-0.146c2.577,0.366,4.874,0.701,6.9,1.002c4.072,0.526,7.342,0.876,9.806,1.052
				c0.946,0.092,1.731,0.182,2.358,0.267c0.694,0.431,1.569,0.787,2.628,1.071c0.378,0.102,4.927,0.513,13.644,1.231
				c4.135,0.301,7.486,0.633,10.062,0.998c2.746,0.334,4.641,0.679,5.677,1.037c0.152,0.041,0.263,0.071,0.341,0.092
				c1.784-0.006,3.234,0.019,4.354,0.076c3.81,0.292,6.699,0.542,8.672,0.747c3.433,0.192,5.722-0.045,6.873-0.706
				c-1.151,0.661-3.44,0.898-6.873,0.706c-1.973-0.205-4.862-0.455-8.672-0.747c-1.119-0.058-2.569-0.082-4.354-0.076
				c4.796,1.34,8.933,1.923,12.41,1.752c0.89,0,1.726-0.099,2.511-0.299c1.08-0.106,2.072-0.327,2.973-0.66l0.226,0.061
				c0.356,0.177,0.717,0.354,1.073,0.531c0.28,0.156,0.554,0.353,0.816,0.584c0.15,0.04,0.264,0.07,0.339,0.091
				c0.404-0.297,0.759-0.564,1.068-0.808c0.096-0.055,0.153-0.119,0.174-0.194c-0.39-1.564-0.792-3.09-1.203-4.577
				c0.062-0.228,0.149-0.405,0.266-0.536c-5.144-2.272-11.262-6.184-18.358-11.734c-4.683-3.687-9.18-7.606-13.493-11.762
				c-0.021,0.075-0.231,0.264-0.637,0.559c-0.402,0.297-0.705,0.823-0.907,1.578c-0.082,0.304-0.218,1.563-0.407,3.781
				c-0.146,1.743-0.538,3.055-1.18,3.937c-1.81,2.513-6.869,2.651-15.181,0.421c-3.779-1.014-7.838-4.453-12.178-10.317
				c-3.584-5.659-6.087-9.167-7.506-10.521c-0.13-0.114-0.261-0.23-0.394-0.347c-0.428,0.693-1.71,1.242-3.842,1.641
				c-1.964,0.366-3.503,0.521-4.621,0.462c-0.138,1.423-0.751,2.796-1.836,4.126c-1.646,1.908-3.754,2.518-6.324,1.827
				c-2.116-0.568-4.7-3.004-7.761-7.31c-1.307,0.946-2.449,1.286-3.433,1.022c-2.646-0.71-6.915-5.176-12.809-13.401
				c-0.384,0.221-1.557,1.12-3.518,2.702c-2.303,1.325-4.623,1.677-6.966,1.048c-1.059-0.284-2.656-1.28-4.79-2.987
				c-0.21,0.185-0.932,1.207-2.158,3.065c-1.584,1.681-3.548,2.208-5.893,1.578c-2.722-0.73-5.842-2.985-9.363-6.767
				c-1.847-1.872-4.094-4.217-6.739-7.035c0.028,0.495-0.008,0.932-0.109,1.31c0.361,1.067-0.116,2.399-1.436,3.988
				c-1.838,2.019-4.494,2.562-7.971,1.629c-2.116-0.568-3.731-1.489-4.849-2.76c-2.034-2.086-4.107-3.857-6.229-5.316
				c-0.307,0.24-0.511,0.55-0.612,0.928c-0.386,1.436-1.148,2.77-2.289,4.003c-1.647,1.908-3.604,2.558-5.871,1.949
				c-0.454-0.122-2.539-1.856-6.26-5.205c-3.793-3.366-6.106-5.163-6.939-5.386c-0.651,1.526-1.41,2.538-2.272,3.035
				c-1.484,1.303-3.511,1.609-6.081,0.92C442.478,241.335,439.474,239.396,435.734,236.124 M445.505,249.075l-3.629-0.975
				c0.485,0.121,1.1,0.244,1.846,0.375C444.931,248.801,445.525,249,445.505,249.075 M275.567,168.225l0.249,0.43
				c-0.896-0.888-1.369-1.542-1.418-1.959c0.157-0.282,0.265-0.536,0.327-0.764L275.567,168.225 M538.947,306.599
				c-3.238-1.518-4.334-1.812-3.288-0.883c0.413,0.272,0.884,0.482,1.413,0.624C537.633,306.49,538.256,306.574,538.947,306.599
				 M529.683,294.026c0.224,0.754,0.456,1.548,0.699,2.374c0.702,2.216,3.558,5.614,8.565,10.198c0.224,0.015,0.47,0,0.74-0.043
				c5.725-2.157,9.254-3.681,10.585-4.572c1.785-1.223,3.692-2.737,5.715-4.542c0.211-0.188,0.423-0.373,0.637-0.56
				c0.116-0.131,0.27-0.251,0.46-0.361c-5.472-0.739-11.312-1.618-17.52-2.638c-3.578-0.554-7.03-1.117-10.361-1.687
				C529.355,292.779,529.516,293.387,529.683,294.026 M170.176,126.694c0.452,1.336,1.644,2.629,3.577,3.877
				c0.847,0.469,1.692,0.94,2.539,1.41c-2.245-1.898-4.329-3.794-6.25-5.688C170.096,126.39,170.141,126.523,170.176,126.694
				 M222.085,169.183c0.505,2.646,2.636,5.568,6.396,8.765C225.644,175.241,223.511,172.32,222.085,169.183 M242.725,187.36
				c2.971,1.607,6.254,3.257,9.85,4.953c8.039,3.857,17.081,7.744,27.13,11.656c-2.166-0.987-4.293-1.963-6.384-2.928
				C266.13,197.651,255.931,193.09,242.725,187.36 M392.23,270.988c0.444-0.448,0.888-0.894,1.333-1.342
				c2.474-2.578,4.804-4.018,6.993-4.322c7.813-0.737,13.174-1.242,16.083-1.516c2.414-0.244,4.272-0.677,5.574-1.3
				c0.777-1.088,1.246-2.378,1.404-3.876c-26.796-11.241-51.22-20.754-73.273-28.535c-0.293,0.489-0.586,0.975-0.879,1.463
				c-0.607,1.053-1.234,2.183-1.881,3.387l-0.03,0.111c-0.426,1.588-0.844,4.353-1.253,8.292c-0.586,0.978-1.203,2.067-1.85,3.271
				c-1.927,7.179-2.729,16.808-2.406,28.884c0.061,3.095,0.295,5.994,0.704,8.695c0.095,1.16,0.273,2.302,0.539,3.425
				c0.864,4.932,2.228,8.903,4.094,11.915c0.055,0.096,0.148,0.201,0.279,0.319l-0.03,0.112l0.196,0.174
				c2.173,2.771,4.922,4.601,8.247,5.493c1.209,0.325,2.393,0.441,3.553,0.346c0.096-0.055,0.192-0.108,0.288-0.164
				c1.76-0.824,3.575-2.605,5.444-5.344c0.9-1.541,1.653-2.838,2.26-3.891c0.328-0.315,0.666-0.671,1.015-1.064
				c0.58-0.653,1.78-2.56,3.599-5.718c3.332-6.071,7.393-10.49,12.187-13.255c0.671-0.387,1.38-0.765,2.126-1.131l0.113,0.03
				c1.247-0.72,2.881-1.98,4.905-3.787C391.797,271.399,392.018,271.176,392.23,270.988z"/>
			<path fill="#FAF6EB" fill-opacity="0.302" d="M352.063,115.479c0.115-0.13,0.26-0.212,0.43-0.248
				c-0.493,0.029-1.025,0.047-1.594,0.057C351.297,115.313,351.685,115.377,352.063,115.479 M280.787,104.855
				c0.377,0.102,0.861,0.11,1.451,0.026l0.258-0.054l-2.215-0.35L280.787,104.855 M617.326,243.665
				c-0.926-0.168-1.901-0.309-2.926-0.42c0.264,0.232,0.514,0.501,0.757,0.811c0.946,0.091,1.884,0.221,2.813,0.389
				C617.706,244.213,617.494,243.952,617.326,243.665 M615.044,244.025l0.113,0.03c-0.243-0.31-0.493-0.578-0.757-0.811
				C614.568,243.532,614.781,243.791,615.044,244.025 M627.896,258.166c0.072,0.023,0.137,0.081,0.196,0.174l-0.083-0.143
				L627.896,258.166 M634.787,264.635c-0.104-0.068-0.206-0.136-0.31-0.203c-1.53-1.545-2.581-2.761-3.153-3.644
				c-0.077-0.021-0.143-0.077-0.198-0.173c-1.026-1.005-2.027-1.801-3.004-2.388l-0.113-0.03l0.083,0.143
				c0.545,0.392,1.041,0.807,1.485,1.252c3.232,3.054,6.496,6.442,9.791,10.16c0.372,0.426,0.858,0.879,1.457,1.365
				c-1.53-1.545-3.448-3.602-5.759-6.164C634.935,264.836,634.845,264.731,634.787,264.635 M466.414,127.698
				c-0.369,0.468-0.793,0.841-1.271,1.117c0.356,0.177,0.667,0.383,0.929,0.615c0.04-0.15,0.081-0.303,0.122-0.454
				c0.061-0.226,0.159-0.444,0.296-0.65C466.475,128.078,466.448,127.87,466.414,127.698 M544.585,181.002
				c0.015,0.246,0.029,0.494,0.043,0.74c1.432,0.709,2.76,1.348,3.983,1.921c0.431,0.197,0.902,0.404,1.411,0.621
				C548.351,183.269,546.537,182.174,544.585,181.002z"/>
			<path fill="#5B6169" d="M615.157,244.056c0.109,0.19,0.268,0.354,0.476,0.491c0.322,0.006,0.672,0.059,1.051,0.16
				c0.662-0.064,1.357-0.081,2.078-0.05c-0.301-0.081-0.567-0.152-0.792-0.213C617.041,244.276,616.104,244.146,615.157,244.056
				 M615.157,244.056l-0.113-0.03c0.11,0.191,0.22,0.382,0.33,0.572c0.096-0.055,0.182-0.072,0.259-0.051
				C615.425,244.41,615.267,244.246,615.157,244.056 M539.407,170.864c-0.092-0.269-0.219-0.545-0.384-0.834
				c-0.112-0.191-0.223-0.382-0.333-0.573c-0.005,0.321,0.028,0.655,0.099,0.997C538.919,170.569,539.125,170.706,539.407,170.864
				 M537.059,150.184c-0.158,0.28-0.365,0.751-0.623,1.411c0.279,2.586,0.638,5.478,1.076,8.674c0.473,3.367,0.876,6.392,1.21,9.073
				c0.116-0.13,0.241-0.298,0.377-0.506l0.177-0.194l0.295-0.649c-0.946-4.629-1.688-9.406-2.229-14.332
				C537.246,152.5,537.154,151.341,537.059,150.184 M537.181,149.729c-0.021,0.075-0.061,0.226-0.122,0.454
				c0.096,1.157,0.188,2.317,0.282,3.477c0.542,4.925,1.283,9.703,2.229,14.332l0.03-0.113c0.102-0.379-0.267-3.233-1.105-8.562
				C537.832,154.846,537.394,151.65,537.181,149.729z"/>
			<path fill="#1D3B57" fill-opacity="0.302" d="M535.659,305.716c-1.046-0.929,0.05-0.635,3.288,0.883
				c-3.129-1.688-5.48-3.493-7.053-5.418c1.146,4.117,2.409,6.359,3.784,6.729c0.604,0.162,1.712-0.188,3.32-1.052
				c-0.515,0.103-0.884,0.125-1.112,0.064C537.133,306.719,536.388,306.317,535.659,305.716 M531.602,300.011
				c0.107,0.433,0.207,0.822,0.293,1.17c1.572,1.925,3.924,3.73,7.053,5.418C534.362,302.857,531.913,300.662,531.602,300.011
				 M550.529,301.93c0.495-0.029,0.969,0.018,1.421,0.139c0.722,0.032,1.459,0.149,2.215,0.353l0.112,0.03
				c0.137-0.209,0.322-0.44,0.555-0.703c-0.076-0.021-0.151-0.04-0.227-0.061C553.067,301.68,551.709,301.762,550.529,301.93
				 M562.483,297.238c-0.014-1.461-0.562-2.296-1.637-2.504c-0.249,0.015-0.495,0.029-0.741,0.043
				c-0.398-0.023-0.769-0.002-1.111,0.067c-0.637,0.559-1.273,1.115-1.91,1.676C558.886,296.76,560.682,297,562.483,297.238
				 M562.436,298.319c0.025-0.396,0.041-0.757,0.048-1.081c-1.802-0.238-3.598-0.479-5.399-0.718c-0.19,0.11-0.344,0.23-0.46,0.361
				c-0.214,0.187-0.426,0.372-0.637,0.56c0.942,0.415,1.332,0.925,1.17,1.529c-0.081,0.301-0.182,0.519-0.297,0.648
				c-0.402,0.296-0.79,0.679-1.157,1.147c0.442-0.448,0.915-0.849,1.415-1.198l0.688-0.302c0.212-0.188,0.451-0.326,0.72-0.415
				c1.067-0.361,2.247-0.37,3.531-0.025c0.074,0.02,0.15,0.04,0.226,0.061C562.344,298.661,562.395,298.471,562.436,298.319
				 M590.593,296.643c-2.464-0.176-5.733-0.525-9.806-1.052c0.377,0.102,0.643,0.173,0.793,0.213
				C583.998,296.453,587.004,296.732,590.593,296.643z"/>
			<path fill="#FFFFFF" d="M253.317,149.25c-0.172,0.037-0.467,0.079-0.885,0.128c-0.151-0.041-0.207-0.136-0.166-0.287
				c-0.227-0.061-0.397-0.026-0.513,0.104c-0.227-0.061-0.321-0.167-0.28-0.317l-0.371,0.021l-0.204,0.308l1.567,3.217
				c0.378,0.102,0.627-0.074,0.75-0.527l0.229-1.762C253.662,149.627,253.62,149.331,253.317,149.25 M249.446,154.166l0.803-0.271
				c0.101-0.376,0.038-0.598-0.188-0.658l0.03-0.113c-0.76-1.094-1.28-1.72-1.563-1.877c-0.393-0.349-0.69-0.145-0.893,0.61
				c-0.102,0.378-0.147,0.854-0.139,1.423c0.084,0.59,0.241,0.914,0.468,0.975l0.225,0.061
				C248.493,154.396,248.912,154.347,249.446,154.166 M258.761,153.872l0.061-0.228c0.101-0.376-0.255-1.163-1.07-2.352
				c-0.794-1.267-1.333-1.371-1.616-0.313c-0.041,0.151-0.022,0.683,0.057,1.596c-0.006,0.321,0,0.607,0.014,0.854
				c-0.322-0.006-0.495,0.029-0.515,0.104c-0.082,0.303,0.068,0.504,0.445,0.606l0.114,0.031c0.227,0.061,0.512,0.056,0.854-0.013
				c0.17-0.035,0.343-0.069,0.514-0.106c0.172-0.035,0.295-0.042,0.371-0.021l0.227,0.061
				C258.519,154.17,258.7,154.098,258.761,153.872 M224.638,156.5c-0.132-0.116-0.224-0.222-0.279-0.317
				c-0.131-0.118-0.234-0.186-0.31-0.207c-0.447-0.442-0.808-0.458-1.081-0.045l-0.061,0.225
				C223.456,156.224,224.033,156.338,224.638,156.5 M224.804,156.787c-0.056-0.096-0.111-0.191-0.166-0.287
				c-0.605-0.162-1.182-0.276-1.731-0.344c-0.115,0.131-0.205,0.311-0.266,0.537c0.021,2.033,0.11,3.514,0.265,4.446
				c0.181,0.535,0.384,0.833,0.611,0.894c0.151,0.041,0.34,0.091,0.566,0.152c0.343-0.071,0.754-0.244,1.234-0.52
				c0.02-0.076,0.078-0.141,0.173-0.196c0.499-0.352,0.77-0.604,0.811-0.755c0.04-0.151,0.053-0.349,0.039-0.597
				c-0.044-0.741-0.529-1.804-1.454-3.184L224.804,156.787 M233.374,158.359l0.114,0.031c0.604,0.162,1.053,0,1.346-0.489
				l0.113,0.03c0.302,0.081,0.495-0.028,0.576-0.332c0.041-0.151-0.077-0.467-0.354-0.944l-0.798-1.553
				c-0.708-1.89-1.184-2.382-1.427-1.475l-0.04,0.597l-0.508,1.442c-0.124,1.668,0.003,2.552,0.381,2.653
				C232.929,158.36,233.126,158.373,233.374,158.359 M229.282,154.587c0.041-0.15-0.089-0.875-0.389-2.171
				c-0.055-0.095-0.019-0.53,0.108-1.308c0.081-0.301-0.143-0.525-0.671-0.667c-0.908-0.244-1.462,0.014-1.665,0.769
				c-0.082,0.304,0.637,1.55,2.155,3.74C229.047,155.012,229.201,154.889,229.282,154.587 M240.005,153.576l-0.44,0.734
				c-0.081,0.301-0.06,0.673,0.065,1.112c0.105,0.513,0.309,0.812,0.611,0.893l0.113,0.03c0.151,0.041,0.247-0.015,0.288-0.167
				c0.439-0.125,0.792-0.231,1.058-0.323c0.077,0.021,0.152,0.041,0.228,0.061c0.302,0.081,0.494-0.029,0.575-0.33
				c0.082-0.303-0.313-1.097-1.183-2.384c-0.815-1.189-1.323-1.41-1.526-0.652C239.733,152.774,239.804,153.118,240.005,153.576
				 M236.781,150.646l0.03-0.113c0.142-0.529,0.205-0.917,0.19-1.163c-0.105-0.515-0.374-0.87-0.806-1.069
				c-0.641-0.333-1.052-0.159-1.234,0.521c-0.101,0.376-0.051,0.795,0.15,1.255c0.296,0.403,0.709,0.678,1.237,0.819
				C236.576,150.957,236.721,150.871,236.781,150.646z"/>
			<path fill="#3F6884" fill-opacity="0.2196" d="M347.827,300.146c0.09,0.154,0.211,0.311,0.362,0.463l0.083,0.143
				c2.078,2.827,4.666,4.654,7.764,5.485c1.209,0.324,2.406,0.242,3.591-0.252c-1.16,0.096-2.344-0.021-3.553-0.346
				C352.749,304.746,350,302.917,347.827,300.146 M423.711,261.454c0.444-0.448,0.747-0.975,0.909-1.579
				c0.062-0.229,0.084-0.464,0.07-0.71c-0.357-0.179-0.715-0.356-1.073-0.532c-0.159,1.498-0.627,2.788-1.404,3.876
				C422.787,262.177,423.287,261.826,423.711,261.454z"/>
			<path fill="#C1DEE0" d="M460.922,129.142c-0.432-0.199-0.838-0.348-1.215-0.449c0.206,0.138,0.423,0.237,0.648,0.297
				C460.507,129.03,460.696,129.081,460.922,129.142z"/>
		</g>
	</g>
	<g>
		<path id="Layer0_0_1_STROKES" fill="none" stroke="#000000" stroke-linecap="round" stroke-linejoin="round" d="M643.52,303.189
			c-0.454-0.121-0.806-0.176-1.052-0.158c-0.76-0.097-1.495-0.151-2.203-0.166c-0.812,0.149-1.668,0.245-2.567,0.281
			 M558.526,298.852c-0.021,0.075-0.068,0.103-0.144,0.082c-0.191,0.11-0.386,0.223-0.576,0.333l-0.688,0.302 M551.95,302.068
			c-1.94,0.811-6.032,2.326-12.277,4.542 M539.072,306.814l-0.073,0.043 M227.425,110.342c0.04-0.15,0.033-0.275-0.021-0.371
			l-0.075-0.628l-0.679-0.182l-0.145,0.083c-0.134,0.204-0.277,0.287-0.431,0.25l1.133,0.304l-0.152,0.567
			C227.227,110.33,227.35,110.322,227.425,110.342c0.172-0.034,0.333-0.032,0.484,0.009c-0.061,0.226,0.022,0.369,0.249,0.43
			c0.091,0.269,0.01,0.57-0.244,0.908c-0.02,0.076-0.078,0.141-0.173,0.196c-0.349,0.393-0.62,0.645-0.811,0.756l0.235-0.424
			l-0.113-0.03c0.061-0.226,0.187-0.396,0.378-0.506l0.114,0.03c0.151,0.041,0.274,0.034,0.37-0.021 M227.024,110.477l0.03-0.113
			c-0.091,0.054-0.214,0.061-0.37,0.021L227.024,110.477c-0.04,0.15-0.081,0.303-0.122,0.454c-0.056,0.22,0.028,0.364,0.249,0.433
			c0.116-0.132,0.186-0.235,0.206-0.311c0.082-0.303,0.104-0.54,0.068-0.71 M226.685,110.386l-0.03,0.113
			c-0.055,0.22,0.027,0.365,0.248,0.432l-0.092,0.341l0.34,0.091c-0.081,0.301-0.265,0.536-0.553,0.701l-0.122,0.454l-0.339-0.091
			l-0.34-0.091l-0.454-0.122l0.122-0.454l0.122-0.454l-0.68-0.183c0.348-0.394,0.563-0.739,0.644-1.042l0.34,0.091l0.183-0.68
			 M226.345,110.294l-0.454-0.122c0.055,0.096,0.138,0.241,0.248,0.432l0.03-0.113L226.345,110.294l0.34,0.091
			c-0.153-0.036-0.269,0.094-0.349,0.393l0.228,0.061c0.038-0.141,0.068-0.254,0.091-0.34 M226.336,110.778
			c-0.055-0.095-0.121-0.153-0.197-0.173c-0.095,0.055-0.218,0.062-0.37,0.021l-0.092,0.341l0.113,0.03
			c0.118-0.132,0.261-0.215,0.433-0.25L226.336,110.778l-0.03,0.113c0.075,0.021,0.103,0.068,0.083,0.143
			c0.096-0.054,0.154-0.12,0.175-0.195l0.339,0.091c-0.023,0.08-0.091,0.182-0.205,0.311l0.113,0.03l-0.212,0.792
			c-0.154-0.043-0.333-0.132-0.537-0.265l-0.143,0.083l-0.227-0.061c0.13,0.116,0.167,0.287,0.105,0.515 M226.223,110.748
			c-0.02,0.076-0.051,0.189-0.092,0.342l0.174-0.198 M226.223,110.748l-0.145,0.083c-0.095,0.055-0.191,0.11-0.288,0.167
			c-0.02,0.075-0.078,0.141-0.173,0.195c0.151,0.041,0.292,0.119,0.423,0.235c0.021-0.075,0.051-0.188,0.091-0.338l0.226,0.061
			l0.031-0.116c0.127,0.115,0.23,0.184,0.31,0.207c-0.117,0.13-0.222,0.223-0.317,0.278c-0.076-0.02-0.152-0.041-0.228-0.061
			c-0.02,0.075-0.051,0.19-0.091,0.341c-0.111-0.191-0.268-0.357-0.475-0.493l0.03-0.113c0.021-0.075,0.041-0.15,0.061-0.226
			 M225.891,110.173l-0.122,0.454 M226.357,111.15l0.341,0.091 M220.312,110.135c0.796,0.05,1.459,0.147,1.987,0.29
			 M230.085,111.298c0.122-0.454,0.295-0.649,0.522-0.588c0.082-0.303,0.235-0.424,0.462-0.363
			C230.988,110.651,230.66,110.966,230.085,111.298z M396.29,200.625c3.529-17.034,6.034-28.857,7.514-35.471
			c1.466-6.63,2.081-12.845,1.845-18.645c-0.228-5.792-2.821-12.809-7.779-21.047 M404.042,203.435
			c3.744-5.8,6.507-13.078,8.291-21.836c1.964-10.002,3.305-16.205,4.022-18.606c0.698-2.409,0.711-7.814,0.036-16.212
			c-0.665-8.396-2.497-14.173-5.495-17.333 M384.641,199.201c3.977-16.012,5.859-30.492,5.646-43.447
			c-0.213-12.954-2.635-23.326-7.265-31.114 M370.323,194.144c2.626-15.824,3.917-27.425,3.874-34.809
			c-0.004-12.965-2.754-25.207-8.25-36.727 M236.979,158.963c-0.146-0.364-0.319-0.776-0.52-1.234 M268.438,154.039
			c0.262,0.231,0.534,0.425,0.816,0.582 M267.229,153.107c-0.659-0.26-1.506-0.729-2.538-1.412c-1.5-1.05-2.667-1.686-3.498-1.909
			c-1.36-0.365-2.911-0.62-4.655-0.763c2.062,2.578,3.408,4.356,4.036,5.336 M256.456,148.877l-0.454-0.122l-0.031,0.115
			c0.152,0.041,0.34,0.091,0.567,0.152L256.456,148.877z M255.025,154.207c0.162-0.605,0.305-1.741,0.429-3.41l0.517-1.926
			c-0.473-0.046-0.985-0.103-1.534-0.169c-0.258,0.659-0.519,1.481-0.782,2.462c-0.304,1.134-0.536,1.843-0.692,2.124
			c-1.951-2.386-3.015-4.008-3.191-4.865c-0.548-0.067-1.07-0.085-1.564-0.057c-1.671-0.04-3.706-0.081-6.105-0.12
			c1.591,2.979,2.65,4.54,3.18,4.682l0.039-0.597l0.135,0.402l-0.115-3.193 M242.103,148.246c-1.426-0.034-2.979-0.066-4.653-0.093
			l-0.387,0.987c-0.021,0.078-0.041,0.153-0.062,0.229 M236.781,150.646c-0.032,0.721-0.066,1.604-0.102,2.645l-0.062,0.229
			c0.025-0.399-1.076-2.031-3.304-4.898c-0.075-0.021-0.14-0.078-0.195-0.174l0.03-0.112l0.166,0.286 M243.925,155.722l-2.113-2.997
			c-1.338-1.656-2.08-2.664-2.225-3.028l-0.518,1.929c-0.155,2.388-0.155,4.047-0.001,4.981c0.057,0.095,0.111,0.19,0.167,0.286
			l-0.34-0.091l0.173-0.195 M237.45,148.153c-0.721-0.032-1.479-0.075-2.275-0.126c-1.612-0.027-3.718,0.422-6.315,1.342
			c0.742,3.278,1.142,5.859,1.205,7.738l-0.03,0.113l-5.101-6.351c-0.268,0.09-0.544,0.217-0.833,0.384
			c-2.027,0.913-3.843,1.641-5.447,2.184 M222.235,155.49c0.006-0.321,0.021-0.682,0.046-1.079l0.114,0.031
			c0.467,0.367,1.019,0.88,1.653,1.535c0.076,0.021,0.179,0.088,0.31,0.207c0.055,0.096,0.147,0.201,0.279,0.317 M231.439,158.326
			c0.341-2.178,0.519-3.749,0.536-4.718l0.608-2.267l0.227,0.061c1.624,2.705,2.84,4.814,3.649,6.326 M218.654,153.438
			c-1.069,0.36-2.08,0.656-3.032,0.885 M222.235,155.49c-0.041,0.153-0.044,0.314-0.008,0.484 M228.859,149.369
			c-1.24,0.398-2.549,0.897-3.926,1.5 M227.285,159.762c-0.276-0.478-0.721-1.083-1.335-1.815c-0.372-0.425-0.717-0.8-1.033-1.129
			c-0.055-0.096-0.149-0.201-0.279-0.317 M222.337,162.809c-0.071-0.342-0.1-0.836-0.089-1.481c-0.074-1.235-0.081-3.02-0.021-5.354
			 M231.439,158.326c-0.102,0.378-0.213,0.792-0.334,1.246 M227.866,160.771c-0.146-0.365-0.339-0.699-0.581-1.008 M251.804,154.436
			c-0.633-0.657-1.396-1.59-2.286-2.802c-0.849-1.363-1.519-2.19-2.006-2.482c-0.167,0.926-0.168,2.587,0,4.981l-0.244,0.907
			 M254.437,148.701c-1.421-0.139-2.976-0.231-4.665-0.279 M227.166,112.216c0.172-0.034,0.26-0.212,0.265-0.536 M226.153,111.458
			l-0.113-0.03l-0.454-0.122 M225.465,111.76c0.075,0.02,0.151,0.041,0.227,0.061 M226.137,112.427
			c0.08-0.299,0.234-0.421,0.461-0.363 M215.622,154.323c-1.029,0.21-1.826-0.063-2.392-0.822 M158.007,105.928
			c-0.213,0.188-0.359,0.431-0.44,0.734l-0.03,0.113 M158.067,110.684l0.228,0.061l-0.061,0.226
			C158.178,110.876,158.122,110.78,158.067,110.684z M159.506,104.874c-0.38-0.1-0.733,0.007-1.059,0.324
			c-0.212,0.185-0.359,0.43-0.44,0.731 M646.98,303.877c-0.454-0.122-0.87-0.233-1.249-0.335 M539.673,306.61
			c-0.198,0.075-0.398,0.143-0.601,0.204 M226.357,111.15c-0.041,0.15-0.108,0.253-0.204,0.308"/>
	</g>
	<g>
		<path id="Layer0_0_2_STROKES" fill="none" stroke="#000000" stroke-width="2" stroke-linecap="round" stroke-linejoin="round" d="
			M534.894,90.786c-0.81-1.513-2.278-2.679-4.41-3.493 M535.004,120.709c0.748,5.062,1.111,8.238,1.088,9.527
			c-0.021,0.075,0,0.161,0.054,0.259 M540.472,171.879c-0.301-1.296-0.601-2.592-0.901-3.887 M550.022,184.285
			c-1.672-1.016-3.485-2.11-5.438-3.282 M614.4,243.245c-0.241-0.31-0.492-0.578-0.753-0.81 M627.532,257.706
			c-0.688-0.752-4.655-5.14-11.899-13.159 M648.536,276.345c0.217-0.509,0.465-0.969,0.736-1.383
			c0.252-0.335,0.504-0.675,0.756-1.012 M650.725,273.166c1.025-1.102,2.288-2.182,3.786-3.237l1.529-1.17 M740.712,232.183
			c-2.769,0.957-5.76,2.141-8.972,3.545 M758.192,227.273c-0.419,0.05-0.875,0.089-1.368,0.12 M762.188,230.048
			c-0.06-0.203-0.125-0.401-0.204-0.603 M755.261,240.462c-2.832,3.614-6.089,7.439-9.764,11.476
			c-3.908,4.298-9.834,10.688-17.781,19.166 M720.041,280.225c-5.241,6.855-12.546,17.171-21.913,30.938
			c-0.116,0.133-0.204,0.312-0.265,0.537 M714.854,412.746c0.879,1.857,1.387,3.29,1.521,4.299c-0.91-1.137-1.831-2.234-2.761-3.295
			 M703.411,401.048l-0.04-0.072c-0.182-0.188-0.354-0.378-0.518-0.564 M659.271,342.295c-0.352-0.5-0.667-0.99-0.942-1.468
			 M647.956,318.355c-1.361-3.685-2.365-7.195-3.009-10.528 M625.302,301.339c-1.14,0.02-2.403,0.046-3.788,0.077
			c-1.688-0.048-3.254-0.104-4.695-0.166 M590.572,299.433c-3.508-0.213-7.374-0.441-11.605-0.684
			c-2.237-0.116-4.576-0.299-7.021-0.549 M511.668,288.705c2.061,0.473,4.207,0.925,6.438,1.363 M491.74,283.72
			c-19.774-5.71-39.363-12.71-58.771-20.996c-2.77-1.148-5.53-2.337-8.28-3.559 M416.954,265.351l-0.113-0.03
			c-2.285,0.36-6.055,0.523-11.311,0.488c-0.913,0.081-1.797,0.207-2.656,0.382 M392.774,270.771
			c-0.383,0.222-0.787,0.519-1.211,0.891c-2.024,1.807-3.658,3.067-4.905,3.787c-0.171,0.035-0.316,0.119-0.432,0.249
			c-0.902,0.648-1.799,1.421-2.688,2.317 M359.627,305.984c0.268-0.089,0.563-0.131,0.885-0.125 M341.736,280.283
			c0.355,4.714,1.109,8.844,2.263,12.395 M347.288,235.596l0.016-0.058c0.214-0.799,0.382-1.424,0.501-1.869
			c0.3-0.812,0.626-1.574,0.981-2.29 M312.45,216.89c-0.659-0.26-1.319-0.519-1.979-0.776c-11.298-4.086-21.553-8.134-30.766-12.145
			 M242.725,187.36c-0.997-0.511-2.005-0.984-3.023-1.419c-4.532-2.431-8.272-5.096-11.222-7.994 M222.001,169.039l0.114,0.031
			 M220.354,163.857c0.019-0.079,0.001-0.164-0.052-0.256c-0.63,0.234-1.261,0.471-1.892,0.708 M535.004,120.709
			c-0.044-0.74-0.127-1.491-0.245-2.253c-0.779-5.555-1.019-9.791-0.722-12.709c1.053-8.143,1.571-12.338,1.556-12.586
			c-0.101-0.836-0.332-1.627-0.699-2.374 M537.059,150.184c-0.529-5.57-0.836-12.134-0.913-19.688 M544.585,181.002
			c-10.218-6.307-25.299-16.065-45.247-29.277c-29.198-18.287-51.279-29.439-66.242-33.455c-12.015-3.225-28.623-6.547-49.821-9.968
			c-17.544-2.846-27.882-4.324-31.012-4.436c-7.13-0.293-16.273-0.641-27.426-1.043 M322.334,102.639
			c-2.636-0.14-5.357-0.263-8.164-0.369c-12.876-0.62-22.82-1.304-29.829-2.051c-21.085-2.338-43.573-3.067-67.464-2.188
			c-21.388,0.903-39.396,2.955-54.028,6.158l-0.144,0.082 M163.195,118.744l-0.166-0.287 M163.279,118.888l0.098,0.088
			c1.136,1.34,2.351,2.698,3.646,4.076 M662.702,348.077c2.658,4.278,5.61,8.676,8.854,13.191
			c2.968,4.036,10.659,13.715,23.072,29.036 M702.854,400.411c-2.862-3.521-5.549-6.795-8.059-9.816 M713.614,413.75
			c-3.16-3.927-6.172-7.649-9.033-11.173 M714.854,412.746c-0.58-1.451-1.387-3.125-2.419-5.022
			c-3.083-6.014-4.865-9.487-5.342-10.427c-1.179-3.15-2.493-7.92-3.938-14.304c-0.18-0.532-0.487-1.953-0.923-4.256
			 M699.597,366.364c-2.037-8.405-3.68-15.569-4.925-21.496c-2.291-11.388-2.977-19.552-2.055-24.49 M762.188,230.048
			c-1.861,3.308-4.17,6.78-6.928,10.414 M539.57,167.992c-0.946-4.629-1.688-9.406-2.229-14.332
			c-0.095-1.16-0.187-2.319-0.282-3.477 M541.561,176.424l-0.078,1.194l0.453,0.122
			C541.812,177.301,541.686,176.861,541.561,176.424c-0.41-1.487-0.775-3.004-1.089-4.545 M613.647,242.436
			c-3.482-3.933-7.149-8.078-11.003-12.433c-18.931-21.526-34.508-35.63-46.73-42.314c-1.56-0.825-3.524-1.959-5.892-3.404
			 M731.74,235.728c-0.631,0.236-1.309,0.501-2.034,0.793c-1.739,0.748-3.443,1.507-5.106,2.275 M761.697,228.701
			c-0.129-0.117-0.307-0.367-0.527-0.749c-0.261-0.233-0.618-0.41-1.072-0.532c-0.529-0.142-1.164-0.191-1.905-0.146
			 M754.397,227.834c-1.922,0.215-4.506,0.938-7.754,2.172c-0.096,0.058-0.23,0.102-0.402,0.137 M756.824,227.394
			c-0.762,0.118-1.571,0.267-2.427,0.44 M746.241,230.143c-1.773,0.578-3.616,1.256-5.529,2.04 M220.312,110.135
			c-0.153,0.266-0.262,0.519-0.327,0.762c-0.244,0.908,0.106,1.569,1.047,1.983l2.268,0.608c2.267,0.608,4.108,0.697,5.519,0.266
			c0.897-0.327,3.053-1.57,6.47-3.732c-0.823,0.347-2.364,0.054-4.625-0.878c-3.184-1.422-5.04-2.202-5.569-2.344
			c-0.604-0.162-1.522,0.239-2.754,1.204C221.389,108.782,220.711,109.49,220.312,110.135z M324.836,102.824
			c-0.796-0.05-1.63-0.112-2.502-0.185 M471.549,122.149c1.728-2.208,3.76-4.5,6.098-6.87c8.44-8.508,13.309-13.521,14.607-15.036
			c3.026-3.723,8.371-7.19,16.037-10.399c5.049-2.21,9.483-3.491,13.305-3.842c2.415-0.244,4.603-0.101,6.568,0.427
			c0.832,0.223,1.605,0.512,2.319,0.865 M471.549,122.149c-1.414,1.647-2.608,3.23-3.583,4.751 M465.653,130.533
			c0.177-0.358,0.393-0.707,0.644-1.042c0.471-0.847,1.026-1.709,1.669-2.59 M411.73,203.311
			c4.8-18.487,12.318-27.103,22.552-25.847c10.22,1.279,17.922,2.84,23.109,4.683c5.193,1.845,12.576,5.042,22.154,9.592
			c9.603,4.545,19.153,9.479,28.655,14.801c9.487,5.328,19.779,10.744,30.881,16.246c11.092,5.495,18.078,8.747,20.956,9.756
			c2.892,0.995,7.876,4.236,14.949,9.723c7.072,5.502,6.678,7.503-1.184,6.003c-13.404-5.539-32.504-11.657-57.293-18.355
			c-29.012-7.829-50-12.794-62.961-14.892c-12.965-2.104-22.296-4.608-27.998-7.515C419.871,204.524,415.264,203.126,411.73,203.311
			z M392.774,270.771c1.444-1.152,2.404-1.865,2.884-2.143c2.013-1.161,4.418-1.973,7.215-2.438 M416.954,265.351
			c2.379-0.415,4.132-1.361,5.259-2.842 M529.203,292.196c3.331,0.569,6.783,1.133,10.361,1.687
			c6.208,1.02,12.048,1.898,17.52,2.638 M625.302,301.339c1.784-0.006,3.234,0.019,4.354,0.076c3.81,0.292,6.699,0.542,8.672,0.747
			c3.433,0.192,5.722-0.045,6.873-0.706 M424.69,259.165c-0.357-0.179-0.715-0.356-1.073-0.532
			c-0.159,1.498-0.627,2.788-1.404,3.876 M350.344,230.098c22.053,7.781,46.477,17.294,73.273,28.535 M347.382,299.54
			c0.055,0.096,0.148,0.201,0.279,0.319l-0.03,0.112l0.196,0.174c2.173,2.771,4.922,4.601,8.247,5.493
			c1.209,0.325,2.393,0.441,3.553,0.346 M312.45,216.89c15.792,5.453,28.056,9.716,36.792,12.789
			c0.075,0.021,0.188,0.051,0.339,0.091c0.354-0.715,0.763-1.333,1.227-1.856c0.233-0.263,0.444-0.448,0.637-0.558 M279.705,203.969
			c-2.166-0.987-4.293-1.963-6.384-2.928c-7.191-3.39-17.39-7.951-30.596-13.681 M222.085,169.183
			c1.426,3.138,3.559,6.058,6.396,8.765 M350.344,230.098c-0.206-0.138-0.461-0.246-0.763-0.328
			c-0.293,0.489-0.559,1.025-0.795,1.609 M347.288,235.596c-0.48,1.491-1.117,3.711-1.908,6.658
			c-3.063,11.411-4.326,23.062-3.791,34.951c0.039,1.064,0.089,2.089,0.147,3.078 M343.999,292.678
			c0.903,2.672,2.03,4.961,3.383,6.862 M360.512,305.859c1.488-0.412,2.85-1.262,4.086-2.549c1.484-1.303,3.731-4.547,6.745-9.734
			c4.119-6.592,8.184-11.778,12.196-15.562 M277.143,158.502c-4.918-1.443-8.55-2.477-10.893-3.106
			c-1.814-0.487-3.706-0.833-5.677-1.037c-1.173-0.154-2.33-0.222-3.469-0.203c-0.343,0.069-0.627,0.074-0.854,0.013l-0.114-0.031
			c-0.322-0.006-0.693,0.018-1.111,0.068c-1.063,0.037-2.137,0.114-3.222,0.229c-1.48,0.086-2.993,0.288-4.537,0.604
			c-1.103,0.188-2.218,0.416-3.342,0.682c-1.372,0.28-2.715,0.608-4.032,0.985c-0.171,0.035-0.391,0.097-0.658,0.187
			c-0.877,0.251-1.802,0.53-2.776,0.835 M231.439,158.326c-1.945-0.603-4.212-1.211-6.801-1.826 M236.459,157.729
			c-1.145,0.341-2.299,0.72-3.465,1.135c-0.609,0.162-1.239,0.396-1.89,0.708c-1.049,0.286-2.129,0.685-3.239,1.199
			c-0.876,0.249-1.727,0.548-2.548,0.895c-0.48,0.276-0.891,0.449-1.234,0.52c-0.61,0.16-1.193,0.369-1.747,0.624
			c-0.631,0.237-1.262,0.473-1.892,0.708 M220.354,163.857c0.33,1.791,0.879,3.516,1.647,5.181 M215.622,154.323
			c1.208,0.324,2.381,0.639,3.515,0.943c1.077,0.208,2.108,0.445,3.09,0.708 M224.638,156.5c-0.605-0.162-1.182-0.276-1.731-0.344
			c-0.227-0.061-0.454-0.122-0.68-0.183 M220.445,163.516c-0.023,0.077-0.071,0.104-0.144,0.085 M232.995,158.864
			c-0.528-0.142-1.047-0.32-1.556-0.538 M176.291,131.98c0.937,0.738,1.938,1.534,3.005,2.388
			c10.867,8.774,22.178,15.151,33.934,19.132c0.282,0.099,0.561,0.193,0.835,0.283 M214.575,153.92l-0.169-0.045
			c-0.075-0.021-0.189-0.051-0.34-0.091 M215.622,154.323c-0.335-0.166-0.684-0.3-1.047-0.402 M159.506,104.874
			c0.856-0.176,1.714-0.352,2.571-0.525c0.268-0.089,0.477-0.117,0.628-0.076 M163.029,118.458c-1.8-2.347-3.391-4.719-4.774-7.115
			 M157.537,106.775c-0.142,0.529-0.08,1.355,0.186,2.48c0.14,0.686,0.255,1.163,0.345,1.429 M159.506,104.874
			c-0.08-0.019-0.165-0.001-0.257,0.052 M167.022,123.052c1.005,1.081,2.011,2.161,3.018,3.24c1.922,1.895,4.006,3.79,6.25,5.688
			 M680.795,258.026c8.613-3.116,14.738-5.564,18.375-7.344c7.409-3.762,15.887-7.725,25.43-11.887 M720.041,280.225
			c2-2.622,3.708-4.758,5.122-6.403c0.908-0.971,1.76-1.877,2.553-2.718 M697.863,311.699c-1.598,2.326-3.263,4.756-4.994,7.289
			c-0.102,0.377-0.186,0.841-0.252,1.39 M662.702,348.077c-1.182-1.938-2.323-3.866-3.431-5.782 M658.329,340.827
			c-4.55-8.108-8.008-15.597-10.373-22.472 M644.947,307.827c-0.295-1.617-0.446-3.319-0.453-5.104 M702.231,378.737
			c-0.565-2.421-1.259-5.727-2.079-9.917c-0.175-0.856-0.359-1.675-0.556-2.456 M704.581,402.577
			c-0.428-0.521-0.817-1.028-1.17-1.529 M694.795,390.595c-0.057-0.104-0.114-0.199-0.167-0.29 M669.252,262.096
			c0.555-0.254,1.148-0.501,1.775-0.738c2.577-0.846,4.984-1.66,7.218-2.438c0.992-0.381,1.844-0.68,2.55-0.894 M648.743,279.196
			c-4.416-3.779-11.299-10.729-20.651-20.856 M650.725,273.166c-0.23,0.261-0.465,0.523-0.696,0.784 M669.252,262.096
			c-5.447,2.185-9.853,4.405-13.212,6.663 M615.633,244.547c-0.208-0.137-0.366-0.301-0.476-0.491
			c-0.243-0.31-0.493-0.578-0.757-0.811 M628.092,258.34l-0.083-0.143c-0.206-0.136-0.364-0.299-0.477-0.491 M590.572,299.433
			c10.921,0.662,18.276,1.176,22.066,1.546c1.27,0.099,2.662,0.189,4.18,0.271 M491.74,283.72c2.42,0.65,4.798,1.288,7.143,1.917
			c3.929,1.055,8.19,2.078,12.785,3.068 M518.106,290.068c3.536,0.707,7.236,1.416,11.097,2.128 M557.084,296.521
			c1.802,0.239,3.598,0.479,5.399,0.718c3.294,0.4,6.447,0.72,9.463,0.962"/>
	</g>
	<g>
		<path id="Layer0_0_3_STROKES" fill="none" stroke="#171717" stroke-width="2" stroke-linecap="round" stroke-linejoin="round" d="
			M529.237,293.421l0.487,0.677"/>
	</g>
	<g>
		<path id="Layer0_0_4_STROKES" fill="none" stroke="#171717" stroke-linecap="round" stroke-linejoin="round" d="M531.937,301.254
			c-1.63-1.964-2.392-4.03-2.284-6.202c-0.005-0.313,0.021-0.628,0.072-0.954 M531.937,301.254c1.542,1.876,3.882,3.657,7.011,5.345
			l0.125,0.216"/>
	</g>
</g>
</svg>
