<?xml version="1.0" encoding="UTF-8" standalone="no"?>
<svg id="svg4641" xmlns:inkscape="http://www.inkscape.org/namespaces/inkscape" xmlns:rdf="http://www.w3.org/1999/02/22-rdf-syntax-ns#" xmlns="http://www.w3.org/2000/svg" sodipodi:docname="shell.svg" viewBox="0 0 111.45 101.5" version="1.1" xmlns:cc="http://creativecommons.org/ns#" xmlns:dc="http://purl.org/dc/elements/1.1/" inkscape:version="0.48.2 r9819" xmlns:sodipodi="http://sodipodi.sourceforge.net/DTD/sodipodi-0.dtd">
 <metadata id="metadata4655">
  <rdf:RDF>
   <cc:Work rdf:about="">
    <dc:format>image/svg+xml</dc:format>
    <dc:type rdf:resource="http://purl.org/dc/dcmitype/StillImage"/>
    <dc:title/>
   </cc:Work>
  </rdf:RDF>
 </metadata>
 <sodipodi:namedview id="namedview4651" bordercolor="#666666" inkscape:pageshadow="2" guidetolerance="10" pagecolor="#ffffff" gridtolerance="10" inkscape:window-maximized="0" inkscape:zoom="2.3251232" objecttolerance="10" borderopacity="1" inkscape:current-layer="svg4641" inkscape:cx="55.724998" inkscape:cy="50.75" inkscape:window-y="0" inkscape:window-x="0" inkscape:window-width="640" showgrid="false" inkscape:pageopacity="0" inkscape:window-height="480"/>
 <g id="g4643" transform="matrix(1.0, 0.0, 0.0, 1.0, -4.2, 52.55)">
  <path id="path4645" stroke="none" fill-rule="evenodd" d="M61.5-51.45q5.6-0.9,9.3,0.45-3.65,35.95-6.2,71.5l-0.3,5.75,2.05,0.2,0.7-5.6q4.75-34.4,12.1-70.05,4.8,0.3,9.1,2.75l-18.9,67.85,2.15,0.65-1.35,3.8,1.35-3.8q11.1-30.4,24.75-60.45,2.5,0.95,5.85,7.1-16,27.1-28.2,54.25l1.8,0.8q13.1-24.6,30.1-46.6,3.2,0.75,5.15,6.8-19.65,21-32.85,41.1l2.25,1.35,0.05-0.05,2.35-3.15q13.65-17.7,31.65-30.2,1.1,5.5-0.15,9.85-17.65,10.3-30,21.4l0.9,1.5,2.1-1.25,3.5-2,22.35-14.6q1.9,4.9-6.45,11.7-3.55,5.2-17.15,6.25-0.65,0.1-1.15,0.4-1.75,0.9-3.05,3.9-0.95,2.15-1.75,5.55-1.65,4.45,0,10.55-2.15,2.55-5.95,1.6-10.9,0.6-24.2,0-11.9,1.5-18-3.55,4.3-1.7,2.5-7.75-0.3-8.7-12.4-11.6-11.3,0-18.2-17.5,20.3,11.2,31.9,21.05l0.3,0.3q8.25,7.1,11.95,13.55,4.95,4,6.4,0.5l3.8-0.1q2.75,1.9,4.95-0.15,6.05-8.15,15-14.5l0.65-0.4,2.9-1.95-2.9,1.95-0.65,0.4q-8.95,6.35-15,14.5-2.2,2.05-4.95,0.15l-3.8,0.1q-1.45,3.5-6.4-0.5-3.7-6.45-11.95-13.55l-0.3-0.3,1.25-1.2q-17.5-17.6-35.25-25.15-0.65-3.45,0.35-6.85,21,11.5,36.15,31.35l-1.1,0.85,1.15-0.75,0.55-0.35,0.9-0.55,1.55-0.85q1.1-0.65,2.2-1.15-14.35-28.7-32.65-51.95-0.25-1.55,1.65-3.7l4.1-4q18.2,25.9,29.2,58.65l2.4-0.9,1.75,6.2-1.75-6.2q-10.35-35.4-24.75-63.95,1.25-1.7,3.55-3.1,2.5-1.7,5.3-2.2,5.95,16.45,10.75,35.05,3.95,15.55,7.25,33.65l0.05,0.2,0.4,2,2.05-0.25-0.35-2.45q-4.7-35.3-12.25-69.85,1.6-1.8,9.5-1.75,4.3,35.7,5.85,71.15l0.2,4.75,2.3-0.1-0.15-4.75q-1-35.2,0.15-71.8m-55.35,39.75q0.6-4.6,3.45-9.2,22.55,21.95,35.15,45.85l-1.55,0.85q-14.25-23.2-37.05-37.5m55.35,37.8v-1,1m6.15,1.45l1.7-6.15-1.7,6.15m4.2,0.1l2.05-4.7-2.05,4.7m-21,0.05l-1.6-4.85,1.6,4.85m-3.45,2.5l-0.45-1-2.2-4.2,2.2,4.2,0.45,1m9.5-1.35l-0.65-5.5,0.65,5.5m9.35-1.7l0.1-0.7-0.1,0.7m-20.65,2.7l-2.4-4,2.4,4m4.85,1.2l-1.25-2.55-2.25-4.65,2.25,4.65,1.25,2.55m-7.4-2.55l-1.3-1.75,1.3,1.75m33.05-0.35l2-3.1-2,3.1m-35.5-0.65l-0.15-0.2,0.15,0.2" fill="#ebb756"/>
  <path id="path4647" stroke="none" fill-rule="evenodd" d="M70.8-51q4.45,4.75,8.35,1.8-7.35,35.65-12.1,70.05l-0.7,5.6-2.05-0.2,0.3-5.75q2.55-35.55,6.2-71.5m17.45,4.55q1.65,4.75,8,8.05-13.65,30.05-24.75,60.45l-2.15-0.65,18.9-67.85m13.85,15.15q0.25,2.6,3.7,8.45-17,22-30.1,46.6l-1.8-0.8q12.2-27.15,28.2-54.25m8.85,15.25q-0.05,5.15,3.45,9.05-18,12.5-31.65,30.2l-2.35,3.15-0.05,0.05-2.25-1.35q13.2-20.1,32.85-41.1m3.3,18.9l-1.15,5.05-22.35,14.6-3.5,2-2.1,1.25-0.9-1.5q12.35-11.1,30-21.4m-106.95,4.6q0.3-2.45-2.1-5.3,17.75,7.55,35.25,25.15l-1.25,1.2q-11.6-9.85-31.9-21.05m-1.75-12.15q3-2.2,0.6-7,22.8,14.3,37.05,37.5l-0.9,0.6-0.55,0.35-0.05-0.1q-15.15-19.85-36.15-31.35m4.05-16.2q2.15,0.15,3.65-2.2,1.45-2.3,1.05-5,18.3,23.25,32.65,51.95-1.1,0.5-2.2,1.15v-0.05q-12.6-23.9-35.15-45.85m10.45-14.9q2,0,4-1.7,2.05-1.75,2.85-4.5,14.4,28.55,24.75,63.95l-2.4,0.9q-11-32.75-29.2-58.65m15.7-11.5q1.5,1.3,4.1,0.75,2.6-0.5,3.8-2.4,7.55,34.55,12.25,69.85l0.35,2.45-2.05,0.25-0.4-2-0.05-0.2q-3.3-18.1-7.25-33.65-4.8-18.6-10.75-35.05m17.4-3.4q6.7,2.8,8.35-0.75-1.15,36.6-0.15,71.8l0.15,4.75-2.3,0.1-0.2-4.75q-1.55-35.45-5.85-71.15" fill="#e1a040"/>
  <path id="path4649" stroke-linejoin="round" d="M61.5-51.45q5.6-0.9,9.3,0.45,4.45,4.75,8.35,1.8,4.8,0.3,9.1,2.75,1.65,4.75,8,8.05,2.5,0.95,5.85,7.1,0.25,2.6,3.7,8.45,3.2,0.75,5.15,6.8-0.05,5.15,3.45,9.05,1.1,5.5-0.15,9.85l-1.15,5.05q1.9,4.9-6.45,11.7-3.55,5.2-17.15,6.25-0.65,0.1-1.15,0.4-1.75,0.9-3.05,3.9-0.95,2.15-1.75,5.55-1.65,4.45,0,10.55-2.15,2.55-5.95,1.6-10.9,0.6-24.2,0-11.9,1.5-18-3.55,4.3-1.7,2.5-7.75-0.3-8.7-12.4-11.6-11.3,0-18.2-17.5,0.3-2.45-2.1-5.3-0.65-3.45,0.35-6.85,3-2.2,0.6-7,0.6-4.6,3.45-9.2,2.15,0.15,3.65-2.2,1.45-2.3,1.05-5-0.25-1.55,1.65-3.7l4.1-4q2,0,4-1.7,2.05-1.75,2.85-4.5,1.25-1.7,3.55-3.1,2.5-1.7,5.3-2.2,1.5,1.3,4.1,0.75,2.6-0.5,3.8-2.4,1.6-1.8,9.5-1.75,6.7,2.8,8.35-0.75-1.15,36.6-0.15,71.8l0.15,4.75v1m-7.3-2.5l-0.4-2-0.05-0.2q-3.3-18.1-7.25-33.65-4.8-18.6-10.75-35.05m77.35,55.2l-22.35,14.6-3.5,2-2.1,1.25-2.9,1.95-0.65,0.4q-8.95,6.35-15,14.5-2.2,2.05-4.95,0.15l-3.8,0.1q-1.45,3.5-6.4-0.5-3.7-6.45-11.95-13.55l-0.3-0.3q-11.6-9.85-31.9-21.05m76.95,16.8q12.35-11.1,30-21.4m-44.9,18.55l-1.7,6.15m6.25-4.6l-2.05,4.7m-22.6-4.8l1.6,4.85m-7.2-76.65q7.55,34.55,12.25,69.85l0.35,2.45,0.65,5.5m-12.15-3.85l2.2,4.2,0.45,1m-2.65-5.2v-0.05m2.2-1.1q-14.35-28.7-32.65-51.95m27.45,54.85l-0.05-0.1q-15.15-19.85-36.15-31.35m36.2,31.45l1.3,1.75m3.9-4.65l2.25,4.65,1.25,2.55m-7.25-5.2l2.4,4m20.75-3.4l-0.1,0.7m0.1-0.7l0.7-5.6q4.75-34.4,12.1-70.05m35.25,42.2q-18,12.5-31.65,30.2l-2.35,3.15-0.05,0.05m-2.25-1.35l-2,3.1m-24.45-6.2l1.75,6.2m17.4-79.15q-3.65,35.95-6.2,71.5l-0.3,5.75m-11.15-76.95q4.3,35.7,5.85,71.15l0.2,4.75m12.3-3.15l-1.35,3.8m-64.95-23.7q17.75,7.55,35.25,25.15l0.15,0.2m-13.7-69.5q14.4,28.55,24.75,63.95m-31.6-57.75q18.2,25.9,29.2,58.65m-43.1-34.55q22.8,14.3,37.05,37.5m-33.6-46.7q22.55,21.95,35.15,45.85m33.35,0.1q13.2-20.1,32.85-41.1m-5.15-6.8q-17,22-30.1,46.6m26.4-55.05q-16,27.1-28.2,54.25m22.35-61.35q-13.65,30.05-24.75,60.45m16.75-68.5l-18.9,67.85" stroke="#823826" stroke-linecap="round" stroke-width="1.5" fill="none"/>
 </g>
</svg>
