<svg xmlns="http://www.w3.org/2000/svg" viewBox="0 0 111.45 101.5"><path fill-rule="evenodd" d="M57.3 1.1q5.6-.9 9.3.45-3.65 35.95-6.2 71.5l-.3 5.75 2.05.2.7-5.6Q67.6 39 74.95 3.35q4.8.3 9.1 2.75l-18.9 67.85 2.15.65-1.35 3.8 1.35-3.8q11.1-30.4 24.75-60.45 2.5.95 5.85 7.1-16 27.1-28.2 54.25l1.8.8q13.1-24.6 30.1-46.6 3.2.75 5.15 6.8-19.65 21-32.85 41.1l2.25 1.35.05-.05 2.35-3.15q13.65-17.7 31.65-30.2 1.1 5.5-.15 9.85-17.65 10.3-30 21.4l.9 1.5 2.1-1.25 3.5-2 22.35-14.6q1.9 4.9-6.45 11.7-3.55 5.2-17.15 6.25-.65.1-1.15.4-1.75.9-3.05 3.9-.95 2.15-1.75 5.55-1.65 4.45 0 10.55-2.15 2.55-5.95 1.6-10.9.6-24.2 0-11.9 1.5-18-3.55 4.3-1.7 2.5-7.75-.3-8.7-12.4-11.6Q10 77.5 3.1 60 23.4 71.2 35 81.05l.3.3q8.25 7.1 11.95 13.55 4.95 4 6.4.5l3.8-.1q2.75 1.9 4.95-.15 6.05-8.15 15-14.5l.65-.4 2.9-1.95-2.9 1.95-.65.4q-8.95 6.35-15 14.5-2.2 2.05-4.95.15l-3.8.1q-1.45 3.5-6.4-.5-3.7-6.45-11.95-13.55l-.3-.3 1.25-1.2Q18.75 62.25 1 54.7q-.65-3.45.35-6.85 21 11.5 36.15 31.35l-1.1.85 1.15-.75.55-.35.9-.55 1.55-.85q1.1-.65 2.2-1.15Q28.4 47.7 10.1 24.45q-.25-1.55 1.65-3.7l4.1-4q18.2 25.9 29.2 58.65l2.4-.9 1.75 6.2-1.75-6.2Q37.1 39.1 22.7 10.55q1.25-1.7 3.55-3.1 2.5-1.7 5.3-2.2Q37.5 21.7 42.3 40.3q3.95 15.55 7.25 33.65l.05.2.4 2 2.05-.25-.35-2.45Q47 38.15 39.45 3.6q1.6-1.8 9.5-1.75 4.3 35.7 5.85 71.15l.2 4.75 2.3-.1-.15-4.75q-1-35.2.15-71.8M1.95 40.85q.6-4.6 3.45-9.2Q27.95 53.6 40.55 77.5l-1.55.85q-14.25-23.2-37.05-37.5m55.35 37.8v-1 1m6.15 1.45l1.7-6.15-1.7 6.15m4.2.1l2.05-4.7-2.05 4.7m-21 .05l-1.6-4.85 1.6 4.85m-3.45 2.5l-.45-1-2.2-4.2 2.2 4.2.45 1m9.5-1.35l-.65-5.5.65 5.5m9.35-1.7l.1-.7-.1.7M41.4 82.4l-2.4-4 2.4 4m4.85 1.2L45 81.05l-2.25-4.65L45 81.05l1.25 2.55m-7.4-2.55l-1.3-1.75 1.3 1.75m33.05-.35l2-3.1-2 3.1m-35.5-.65l-.15-.2.15.2" fill="#ebb756"/><path fill-rule="evenodd" d="M66.6 1.55q4.45 4.75 8.35 1.8Q67.6 39 62.85 73.4l-.7 5.6-2.05-.2.3-5.75q2.55-35.55 6.2-71.5M84.05 6.1q1.65 4.75 8 8.05Q78.4 44.2 67.3 74.6l-2.15-.65L84.05 6.1M97.9 21.25q.25 2.6 3.7 8.45-17 22-30.1 46.6l-1.8-.8q12.2-27.15 28.2-54.25m8.85 15.25q-.05 5.15 3.45 9.05-18 12.5-31.65 30.2L76.2 78.9l-.05.05-2.25-1.35q13.2-20.1 32.85-41.1m3.3 18.9l-1.15 5.05-22.35 14.6-3.5 2-2.1 1.25-.9-1.5q12.35-11.1 30-21.4M3.1 60q.3-2.45-2.1-5.3 17.75 7.55 35.25 25.15L35 81.05Q23.4 71.2 3.1 60M1.35 47.85q3-2.2.6-7 22.8 14.3 37.05 37.5l-.9.6-.55.35-.05-.1Q22.35 59.35 1.35 47.85m4.05-16.2q2.15.15 3.65-2.2 1.45-2.3 1.05-5Q28.4 47.7 42.75 76.4q-1.1.5-2.2 1.15v-.05Q27.95 53.6 5.4 31.65m10.45-14.9q2 0 4-1.7 2.05-1.75 2.85-4.5Q37.1 39.1 47.45 74.5l-2.4.9q-11-32.75-29.2-58.65m15.7-11.5q1.5 1.3 4.1.75 2.6-.5 3.8-2.4Q47 38.15 51.7 73.45l.35 2.45-2.05.25-.4-2-.05-.2q-3.3-18.1-7.25-33.65-4.8-18.6-10.75-35.05m17.4-3.4q6.7 2.8 8.35-.75-1.15 36.6-.15 71.8l.15 4.75-2.3.1-.2-4.75q-1.55-35.45-5.85-71.15" fill="#e1a040"/><path stroke-linejoin="round" d="M57.3 1.1q5.6-.9 9.3.45 4.45 4.75 8.35 1.8 4.8.3 9.1 2.75 1.65 4.75 8 8.05 2.5.95 5.85 7.1.25 2.6 3.7 8.45 3.2.75 5.15 6.8-.05 5.15 3.45 9.05 1.1 5.5-.15 9.85l-1.15 5.05q1.9 4.9-6.45 11.7-3.55 5.2-17.15 6.25-.65.1-1.15.4-1.75.9-3.05 3.9-.95 2.15-1.75 5.55-1.65 4.45 0 10.55-2.15 2.55-5.95 1.6-10.9.6-24.2 0-11.9 1.5-18-3.55 4.3-1.7 2.5-7.75-.3-8.7-12.4-11.6Q10 77.5 3.1 60q.3-2.45-2.1-5.3-.65-3.45.35-6.85 3-2.2.6-7 .6-4.6 3.45-9.2 2.15.15 3.65-2.2 1.45-2.3 1.05-5-.25-1.55 1.65-3.7l4.1-4q2 0 4-1.7 2.05-1.75 2.85-4.5 1.25-1.7 3.55-3.1 2.5-1.7 5.3-2.2 1.5 1.3 4.1.75 2.6-.5 3.8-2.4 1.6-1.8 9.5-1.75 6.7 2.8 8.35-.75-1.15 36.6-.15 71.8l.15 4.75v1m-7.3-2.5l-.4-2-.05-.2q-3.3-18.1-7.25-33.65-4.8-18.6-10.75-35.05m77.35 55.2l-22.35 14.6-3.5 2-2.1 1.25-2.9 1.95-.65.4q-8.95 6.35-15 14.5-2.2 2.05-4.95.15l-3.8.1q-1.45 3.5-6.4-.5-3.7-6.45-11.95-13.55l-.3-.3Q23.4 71.2 3.1 60m76.95 16.8q12.35-11.1 30-21.4m-44.9 18.55l-1.7 6.15m6.25-4.6l-2.05 4.7m-22.6-4.8l1.6 4.85M39.45 3.6Q47 38.15 51.7 73.45l.35 2.45.65 5.5m-12.15-3.85l2.2 4.2.45 1m-2.65-5.2v-.05m2.2-1.1Q28.4 47.7 10.1 24.45M37.55 79.3l-.05-.1Q22.35 59.35 1.35 47.85m36.2 31.45l1.3 1.75m3.9-4.65L45 81.05l1.25 2.55M39 78.4l2.4 4M62.15 79l-.1.7m.1-.7l.7-5.6Q67.6 39 74.95 3.35m35.25 42.2q-18 12.5-31.65 30.2L76.2 78.9l-.05.05M73.9 77.6l-2 3.1m-24.45-6.2l1.75 6.2M66.6 1.55q-3.65 35.95-6.2 71.5l-.3 5.75M48.95 1.85q4.3 35.7 5.85 71.15l.2 4.75m12.3-3.15l-1.35 3.8M1 54.7q17.75 7.55 35.25 25.15l.15.2m-13.7-69.5Q37.1 39.1 47.45 74.5m-31.6-57.75q18.2 25.9 29.2 58.65M1.95 40.85q22.8 14.3 37.05 37.5M5.4 31.65Q27.95 53.6 40.55 77.5m33.35.1q13.2-20.1 32.85-41.1m-5.15-6.8q-17 22-30.1 46.6m26.4-55.05q-16 27.1-28.2 54.25m22.35-61.35Q78.4 44.2 67.3 74.6M84.05 6.1l-18.9 67.85" stroke="#823826" stroke-linecap="round" stroke-width="1.5" fill="none"/></svg>