<svg xmlns="http://www.w3.org/2000/svg" xmlns:xlink="http://www.w3.org/1999/xlink" preserveAspectRatio="none" width="285" height="427" viewBox="0 0 285 427"><defs><g id="a"><path fill="#D1A676" d="M23.65 348.75H225.8V94.95H23.65v253.8m193.05-193.6v19.1H33.35v-69.5H216.7v50.4M33.35 186.5H216.7v68.85H33.35V186.5m0 79.85H216.7v69H33.35v-69z"/><path fill="#956940" d="M74.05 266.35v41.55H216.7v-41.55H74.05M216.7 186.5H74.05v46.35H216.7V186.5m0-31.35v-50.4H74.05v50.4H216.7z"/><path fill="#CB9A62" d="M74.05 307.9l-40.7 27.45H216.7V307.9H74.05m0-75.05l-40.7 22.5H216.7v-22.5H74.05m142.65-58.6v-19.1H74.05l-40.7 19.1H216.7z"/><path fill="#A47142" d="M74.05 266.35h-40.7v69l40.7-27.45v-41.55m0-79.85h-40.7v68.85l40.7-22.5V186.5m-40.7-81.75v69.5l40.7-19.1v-50.4h-40.7z"/><path fill="#B8814E" d="M261.4 78.8l-35.6 16.15v253.8l35.6-37.5V78.8z"/><path fill="#CE9D6C" d="M225.8 94.95l35.6-16.15H74.05l-50.4 16.15H225.8z"/></g><path id="b" stroke="#362318" stroke-width="2" stroke-linejoin="round" stroke-linecap="round" fill="none" d="M216.7 155.15v19.1H33.35v-69.5H216.7v50.4H74.05l-40.7 19.1m192.45-79.3l35.6-16.15H74.05l-50.4 16.15H225.8v253.8l35.6-37.5V78.8M74.05 104.75v50.4m0 31.35h-40.7v68.85l40.7-22.5V186.5H216.7v68.85H33.35m0 80v-69H216.7v69H33.35l40.7-27.45v-41.55m151.75 82.4H23.65V94.95m193.05 137.9H74.05m0 75.05H216.7"/></defs><g><use xlink:href="#a"/><use xlink:href="#b"/></g></svg>