
<svg xmlns="http://www.w3.org/2000/svg" version="1.1" xmlns:xlink="http://www.w3.org/1999/xlink" preserveAspectRatio="none" x="0px" y="0px" width="285px" height="427px" viewBox="0 0 285 427">
<defs>
<g id="Layer0_0_FILL">
<path fill="#D1A676" stroke="none" d="
M 23.65 348.75
L 225.8 348.75 225.8 94.95 23.65 94.95 23.65 348.75
M 216.7 155.15
L 216.7 174.25 33.35 174.25 33.35 104.75 74.05 104.75 216.7 104.75 216.7 155.15
M 33.35 186.5
L 74.05 186.5 216.7 186.5 216.7 232.85 216.7 255.35 33.35 255.35 33.35 186.5
M 33.35 266.35
L 74.05 266.35 216.7 266.35 216.7 307.9 216.7 335.35 33.35 335.35 33.35 266.35 Z"/>

<path fill="#956940" stroke="none" d="
M 74.05 266.35
L 74.05 307.9 216.7 307.9 216.7 266.35 74.05 266.35
M 216.7 186.5
L 74.05 186.5 74.05 232.85 216.7 232.85 216.7 186.5
M 216.7 155.15
L 216.7 104.75 74.05 104.75 74.05 155.15 216.7 155.15 Z"/>

<path fill="#CB9A62" stroke="none" d="
M 74.05 307.9
L 33.35 335.35 216.7 335.35 216.7 307.9 74.05 307.9
M 74.05 232.85
L 33.35 255.35 216.7 255.35 216.7 232.85 74.05 232.85
M 216.7 174.25
L 216.7 155.15 74.05 155.15 33.35 174.25 216.7 174.25 Z"/>

<path fill="#A47142" stroke="none" d="
M 74.05 266.35
L 33.35 266.35 33.35 335.35 74.05 307.9 74.05 266.35
M 74.05 186.5
L 33.35 186.5 33.35 255.35 74.05 232.85 74.05 186.5
M 33.35 104.75
L 33.35 174.25 74.05 155.15 74.05 104.75 33.35 104.75 Z"/>

<path fill="#B8814E" stroke="none" d="
M 261.4 78.8
L 225.8 94.95 225.8 348.75 261.4 311.25 261.4 78.8 Z"/>

<path fill="#CE9D6C" stroke="none" d="
M 225.8 94.95
L 261.4 78.8 74.05 78.8 23.65 94.95 225.8 94.95 Z"/>
</g>

<path id="Layer0_0_1_STROKES" stroke="#362318" stroke-width="2" stroke-linejoin="round" stroke-linecap="round" fill="none" d="
M 216.7 155.15
L 216.7 174.25 33.35 174.25 33.35 104.75 74.05 104.75 216.7 104.75 216.7 155.15 74.05 155.15 33.35 174.25
M 225.8 94.95
L 261.4 78.8 74.05 78.8 23.65 94.95 225.8 94.95 225.8 348.75 261.4 311.25 261.4 78.8
M 74.05 104.75
L 74.05 155.15
M 74.05 186.5
L 33.35 186.5 33.35 255.35 74.05 232.85 74.05 186.5 216.7 186.5 216.7 232.85 216.7 255.35 33.35 255.35
M 33.35 335.35
L 33.35 266.35 74.05 266.35 216.7 266.35 216.7 307.9 216.7 335.35 33.35 335.35 74.05 307.9 74.05 266.35
M 225.8 348.75
L 23.65 348.75 23.65 94.95
M 216.7 232.85
L 74.05 232.85
M 74.05 307.9
L 216.7 307.9"/>
</defs>

<g transform="matrix( 1, 0, 0, 1, 0,0) ">
<use xlink:href="#Layer0_0_FILL"/>

<use xlink:href="#Layer0_0_1_STROKES"/>
</g>
</svg>
