<svg xmlns="http://www.w3.org/2000/svg" width="900" height="450" viewBox="0 0 900 450"><path fill="#D58346" d="M691.822 426.967l.107-8.898-15.516.326v8.573h15.409m.108-8.9v-6.292h-15.516v6.618l15.516-.326m-128.032-4.339c-23.51 2.244-46.691 3.689-69.548 4.34 60.686 0 119.93-2.17 177.723-6.51v-14.321c-36.672 7.45-72.729 12.948-108.175 16.491m128.14-9.874l-15.624.107v7.813h15.516l.108-7.92m0-7.487l-15.624-.108v7.703l15.624-.107v-7.488m-15.624-.108l15.624.108.108-7.919-14.321.324c-.797 2.314-1.267 4.811-1.411 7.487m15.843-24.955c-.072.074-.11.181-.11.326-7.377 4.775-12.151 10.488-14.321 17.143l14.321-.324.11-17.145m-232.845 46.763l-23.002-.433c-46.294-.868-93.347-2.895-141.159-6.077l7.811 9.657 3.797 4.774h365.214v-14.431c-57.793 4.34-117.037 6.51-177.723 6.51l-22.785.11c-4.124.001-8.173-.035-12.153-.11m-156.35.761c127.598 4.122 250.203 3.978 367.819-.435-117.616 4.413-240.221 4.557-367.819.435m-13.454-14.539l.217.326 5.425 6.942c47.813 3.183 94.865 5.209 141.159 6.077a955.18 955.18 0 0 1-68.03-5.859 1706.246 1706.246 0 0 1-78.771-7.486m-4.122-6.511v1.628l.216.216 3.906 4.667a1707.504 1707.504 0 0 0 78.771 7.486c-24.666-3.11-48.934-7.305-72.804-12.585a420.474 420.474 0 0 1-10.089-1.412m0-.868v.868c3.327.507 6.69.978 10.09 1.412a413.23 413.23 0 0 1-10.09-2.28z"/><path fill="#666" d="M603.718 343.313v-.109h-.108c-.144.071-.29.144-.434.218.218-.075.398-.109.542-.109m-.109.108h.108v-.108c-.144 0-.324.034-.542.108h.434m-.757.108c.071-.072.18-.108.324-.108.144-.074.29-.146.434-.218-.29 0-.578.109-.866.326h.108m-471.547-72.695l19.53 8.029 19.639 8.029 26.908 11.066 5.967 2.496 15.408 6.292 24.629 9.983 43.075 17.685c6.221 1.013 18.265 2.604 36.131 4.774l-65.101-25.39-29.295-11.501-84.847-33.093-9.765-3.798-2.279 5.428m222.102-228.83l-.217 6.294-1.085 27.016-.868 23.22-.434 13.237-.868 26.04-.65 17.034-2.604 68.898-1.085 26.909-2.495 66.837-.868 24.412c2.459.288 5.027.725 7.703 1.302l.652-23.002 2.17-69.549.868-24.847 2.278-71.503.435-15.732.976-28.753.326-11.283.651-25.064.977-31.465h-5.862m138.665-19.422l-.11 9.44-.216 23.436-.435 31.791-.108 10.308-.542 42.533-.217 17.686-.977 83.328-.219 17.795-.759 62.931-.434 28.645a36.346 36.346 0 0 1 4.016 0c1.265-.036 2.53-.074 3.798-.108l.324-27.343.761-62.389.216-17.36 1.085-83.003.216-17.143.543-42.423.11-9.005.324-32.66.435-36.238-7.811-.221m104.703 36.565v285.031l5.207-.542c.218-.072.471-.108.761-.108.288-.217.576-.326.866-.326h.108V59.039l-6.942.109z"/><path fill="#E2DFD3" d="M537.208 269.098l-40.253-8.464-.761 62.389c14.611 2.532 29.983 6.546 46.112 12.043a276.404 276.404 0 0 1-4.448-31.682c-.144-1.735-.288-3.51-.435-5.317a241.9 241.9 0 0 1-.215-28.969m-113.601-8.245c-.507 8.68-1.41 17.033-2.713 25.063a454.604 454.604 0 0 1-3.038 14.972c-2.604 9.909-5.967 19.313-10.091 28.21 23.581-9.04 50.489-11.465 80.725-7.269l.759-62.931-55.335-11.608-.324-.11-9.765-2.061c.071 5.354 0 10.597-.218 15.734z"/><path fill="#E7E4DB" d="M720.032 310.652c-30.526-29.151-46.945-61.701-49.26-97.65l-67.055 55.553 7.922 54.574c46.799-15.189 82.931-19.347 108.393-12.477m-557.804-37.106c36.312 4.991 60.76 10.634 73.347 16.926 2.531-35.083 21.99-77 58.374-125.752-40.074 37.975-83.981 74.25-131.721 108.826m215.917-2.278c1.23-3.329 2.568-6.8 4.015-10.415a537.97 537.97 0 0 1 4.34-10.2h-33.744l-2.17 69.549c6.799 2.53 13.852 5.824 21.158 9.873-2.677-1.951-4.268-5.244-4.774-9.873-.651-4.99-.036-11.465 1.845-19.422 1.88-8.247 4.99-18.084 9.33-29.512m-73.238-20.616a507.06 507.06 0 0 0-6.076 29.838 75.148 75.148 0 0 0-12.695-1.52c-1.085 4.052-1.88 7.85-2.387 11.393-1.881 11.936-1.265 21.302 1.845 28.103 16.42-7.741 35.588-8.065 57.506-.977l2.495-66.837h-40.688M450.95 145.081c.362 2.604.65 5.173.866 7.704.362 4.557.509 9.187.435 13.888-.145 13.816-2.096 28.174-5.859 43.075-3.111 12.079-7.377 24.556-12.802 37.432l.324.11c17.868-8.681 36.386-10.742 55.554-6.187l.977-83.328-22.135-7.161-9.44-2.93-7.92-2.603m-101.666 9.765l-13.78 1.085c-9.259 21.339-17.035 43.437-23.328 66.294 7.523-1.519 15.262-1.772 23.22-.76 3.688.435 7.45 1.193 11.283 2.278l2.605-68.897m34.286-1.628l-.108-1.301-27.56 2.386-2.278 71.503c11.501 4.196 23.292 10.85 35.371 19.965l-1.41-25.933-1.736-27.885-2.279-38.735m-53.491 3.147l-21.808 1.736.108 1.52-12.695 48.175c12.225-17.796 23.691-34.939 34.395-51.431m-17.36-5.642c8.173-7.667 17.902-11.935 29.187-12.803 2.821-4.629 5.641-9.187 8.463-13.671a472.014 472.014 0 0 0-6.728 13.563 45.56 45.56 0 0 1 6.293 0l.868-26.04-22.894 6.726-15.189 32.225m60.326-25.824l-3.146-18.879-12.587 3.797-.976 28.753c6.221.941 12.803 2.712 19.747 5.317l-3.038-18.988m153.747 46.222v-1.627l-28.536-9.223-1.085 83.003c13.671 4.341 27.668 12.01 41.989 23.004a268.096 268.096 0 0 1 4.231 3.363c-7.232-23.727-12.115-47.379-14.647-70.96a389.18 389.18 0 0 1-1.735-22.134l-.217-5.426z"/><path fill="#264A82" d="M240.674 335.718c2.387 4.991 5.714 11.537 9.982 19.639 6.366 8.752 46.801 15.189 121.304 19.312 65.101 3.764 155.013 3.546 269.733-.65l50.563-2.713c2.386-7.017 5.314-14.501 8.788-22.459-119.569 11.285-222.535 14.828-308.903 10.632-86.367-4.341-136.855-12.26-151.467-23.761m143.33 10.74a821.518 821.518 0 0 1-34.07-3.255 81.765 81.765 0 0 0-7.703-1.302 2131.22 2131.22 0 0 0-19.639-2.712c-17.866-2.17-29.91-3.762-36.131-4.774a710.874 710.874 0 0 1-25.498-4.665c-10.344-2.388-18.807-4.306-25.389-5.751l2.604 6.075 2.387 5.426c0 .074.036.146.108.218 14.612 11.501 65.101 19.42 151.468 23.76 86.368 4.196 189.333.653 308.903-10.632 3.108-6.872 6.654-14.141 10.632-21.808-.36 0-.723.034-1.085.107a6.94 6.94 0 0 0-.976.217c-.29.074-.542.146-.761.218l-8.462 1.302-86.368 13.128-3.036.435c-1.88.288-3.726.542-5.533.759l-1.738.218h-.542c-.145 0-.253.036-.324.108h-.108c-.29 0-.543.036-.761.108l-5.207.542a1304.99 1304.99 0 0 1-23.111 2.17c-2.604.146-5.209.326-7.812.543-4.195.362-8.319.688-12.369.977a1218.391 1218.391 0 0 1-57.613 2.496c-1.268.034-2.533.072-3.798.108a36.346 36.346 0 0 0-4.016 0c-28.354.072-55.805-.723-82.352-2.389-4.846-.36-9.693-.723-14.54-1.085a233.405 233.405 0 0 1-7.16-.542m324.636-18.119l-8.246 1.52 8.246-1.52z"/><path fill="#1A1D3C" d="M282.989 396.26c.796.219 1.627.435 2.497.651a413.23 413.23 0 0 0 10.09 2.28c23.87 5.28 48.138 9.475 72.804 12.585a955.18 955.18 0 0 0 68.03 5.859l23.002.433c3.979.074 8.029.11 12.153.11l22.785-.11c22.856-.65 46.038-2.096 69.548-4.34 35.445-3.543 71.503-9.04 108.175-16.491 1.52-.36 2.967-.687 4.341-.978.144-2.676.614-5.173 1.411-7.486 2.17-6.654 6.944-12.367 14.321-17.143 0-.146.038-.252.11-.326l-50.563 2.713c-114.721 4.196-204.633 4.414-269.733.65-74.503-4.122-114.938-10.56-121.304-19.312 5.425 10.415 11.14 19.277 17.143 26.583 4.847 5.789 9.91 10.561 15.19 14.322z"/><path fill="#D7D2C4" d="M341.906 137.92a1532.702 1532.702 0 0 1-11.827 18.445c-10.705 16.493-22.17 33.635-34.395 51.43-18.3 26.256-38.336 53.816-60.109 82.677 17.143-8.39 33.997-12.226 50.561-11.501 4.268.145 8.499.651 12.695 1.52a507.06 507.06 0 0 1 6.076-29.838c.796-3.905 1.7-7.741 2.712-11.5a322.638 322.638 0 0 1 4.558-16.927c6.292-22.858 14.069-44.956 23.328-66.294a459.941 459.941 0 0 1 8.137-18.119 469.396 469.396 0 0 1 6.728-13.563 1096.856 1096.856 0 0 0-8.464 13.67m10.198-62.606l-15.732 5.1-15.732 32.659c10.417-8.896 20.615-13.743 30.597-14.539l.867-23.22m16.71-5.315L358.29 73.47l-.651 25.064c4.702.433 9.367 1.809 13.996 4.123l3.364-.65-6.185-32.008z"/><path fill="#EFEDE7" d="M491.312 87.25l.435-31.791-20.073-9.548c0 15.479-2.604 29.006-7.812 40.579 5.929-5.859 15.079-5.605 27.45.76m17.251-23.871l-9.114-4.34-.324 32.66c6.22 3.978 13.092 9.294 20.615 15.949l1.951 1.737a30.644 30.644 0 0 1-1.085-2.17c-4.629-9.187-8.643-23.799-12.043-43.836z"/><path fill="#DDD9CC" d="M476.229 137.485c2.025.073 4.016.291 5.968.651a55.275 55.275 0 0 1 8.464 1.953l.542-42.533-27.342-11.066-3.797.327c1.229 19.096-.471 33.96-5.101 44.593-2.242 4.991-5.063 9.005-8.462 12.043 10.27-4.412 20.182-6.401 29.728-5.968m41.883-28.968l-19.098-7.813-.543 42.423c11.285 5.425 22.026 14.648 32.227 27.668l.65-.108-8.68-41.34-4.556-20.83z"/><g><path fill="none" stroke="#9A6243" stroke-width=".05" stroke-linecap="round" stroke-linejoin="round" d="M285.486 397.779c3.327.507 6.69.978 10.09 1.412m-5.968 5.099a1707.504 1707.504 0 0 0 78.771 7.486m-73.128-.217c47.813 3.183 94.865 5.209 141.159 6.077m-146.584-13.02h-1.411m5.967 6.943h.869m199.1 6.509c60.686 0 119.93-2.17 177.723-6.51m20.072-23.109l-14.321.324m-1.411 7.487l15.624.108m-15.624 7.595l15.624-.107m-15.624 7.92h15.516m-15.516 6.619l15.516-.326m-128.032-4.34a1646.477 1646.477 0 0 0 106.439-9.112m-367.275 14.212c127.598 4.122 250.203 3.978 367.819-.435"/></g><g><path fill="none" stroke="#251710" stroke-width="2" stroke-linecap="round" stroke-linejoin="round" d="M285.486 399.407l.216.216 3.906 4.667.217.326 5.425 6.942 7.811 9.657 3.797 4.774h365.214v-14.431m20.185-40.253l-.11 17.145-.108 7.919v7.487m-15.625-7.596v15.516m15.516 0l.108-7.921m-19.965 7.704v-14.321m19.857 20.83v-6.292m-15.516 6.619v8.573h15.408l.107-8.898m-15.515-6.294v6.618"/></g><g><path fill="none" stroke="#999" stroke-width=".05" stroke-linecap="round" stroke-linejoin="round" d="M522.669 129.348l17.902-8.246-13.021-8.897m69.225 47.415l-60.328 12.912m29.188-34.178l-25.063-17.252 51.321-23.328m84.413 110.671l-72.588-51.321m-6.943-65.317l-25.607 45.679m-190.093-34.721l22.568 8.897 56.422-24.846M143.35 269.206l177.29-156.133m52.405 11.826l30.597-13.237 51.321 19.748m-142.244 19.313l-10.525 7.92m85.391 61.195l36.673-30.163-13.78-12.26-24.629 14.539m3.146 53.817l.76 4.882m92.442-112.516l-13.888 12.478m7.92-13.13l-17.36 10.2m-75.299 5.533l26.908 24.197 41.338-24.63m.435 13.887l-27.993 23.002 22.134 20.073m-144.198-51.104l-8.246 6.077m95.807 85.932l1.627 10.2h32.225m-115.988-21.7l27.777-17.687m42.749 49.803l6.51 37.541L398 300.563m-15.84-39.71h9.223m-24.413 59.348l6.727-4.231-4.882-15.19m2.929 29.294l5.533-3.689-3.581-10.415 10.958-7.161 1.953 11.719 13.237-8.355m21.051-26.257L398 300.563M391.165 347l-4.557-26.473-9.331 5.857 6.727 20.073m33.853-45.569l-18.012 11.284m-171.649-9.873l7.379-11.827m21.917 23.328l26.257-23.437m-132.914-11.5c14.105 15.334 28.536 29.838 43.292 43.508l1.41-9.765-25.063-25.714m26.909 11.067l-1.845 14.647.868.977 19.097 1.409-12.152-14.537m22.133 15.298l-9.981-.761 11.501 13.131 9.223 1.735-10.743-14.105-6.726-9.006m19.421 23.327l-1.953-.216 4.34 5.642m-15.082-19.747l17.903.978m24.412 65.208c-21.483-11.863-46.04-31.718-73.671-59.568l32.875 5.752 23.653 27.233M532.649 196.51l64.126-36.89m-40.797 119.459l6.836 5.209 33.962-26.148m-64.127-61.63l-3.905 2.17m14.648 70.961l1.304.977 11.282 8.462m-18.77-9.982l10.09 27.125 10.85-8.571 4.666-3.363 33.962 25.39m-59.352-11.613l1.52 4.448 8.354-6.292 3.581 10.09 13.347 4.124m-25.283-7.921l11.936 3.798 14.974 40.58m-12.37.976l-14.54-45.354-1.085.869m58.917 17.252l-32.55-10.199m-37.216-133.891l5.641 19.964"/></g><g><path fill="none" stroke="#666" stroke-width=".05" stroke-linecap="round" stroke-linejoin="round" d="M470.48 45.369l21.481-13.345m26.151 76.493l1.628-.869m.866-.434l76.169-41.013m-221.342 38.084l95.048-58.916M353.19 48.298L143.35 269.206m231.757-164.705l.325-.217m15.95 156.569l6.618 39.71 1.845 11.608 5.859 35.913M596.775 159.62l-49.368 61.954m-14.758-25.064l21.593 75.951 1.735 6.618m47.741-121.954l41.015 50.561m-88.755 71.393l2.17 8.572 6.078 22.785 9.438 35.913"/></g><g><path fill="none" stroke="#000" stroke-width="2" stroke-linecap="round" stroke-linejoin="round" d="M603.718 132.712L629 128.915M499.449 59.039l9.114 4.34 13.128 6.185M470.48 45.369l1.192.542 20.073 9.548m39.712 115.662l4.99 1.412m60.328-38.736l-25.607 3.688-5.533.869m-47.523-29.837l-19.098-7.813m-.758 59.567l28.536 9.223m155.157 34.177l-5.644 4.774M461.258 41.028l9.223 4.34m-95.048 58.917v.108l5.642-1.627m78.879-17.794l-8.68-3.473M358.29 73.47l10.525-3.471 10.416-3.364m-27.127 8.679l-15.732 5.1-12.695 4.015m51.756 19.964l-.325.109-5.208 1.519m5.099-4.015l.434 2.278m-3.798-1.627a80.561 80.561 0 0 1 3.473 1.845m-5.209 1.518l-12.587 3.797m-29.403 8.681l-12.585 3.472m-13.13 36.673l6.077-.542 21.808-1.736m20.724-44.594l-22.894 6.726m21.375 36.349l-13.78 1.085m47.958-4.014l-27.56 2.386m33.853 96.349h12.152m66.403-100.037l-9.44-2.93-7.919-2.604m-15.41-4.991l10.961 3.363 4.448 1.627m-53.057 5.643l-14.431 1.194m-81.268 6.726l-7.161.542m128.792 85.934l-15.082-3.255m-22.243 8.788h3.255m43.835-3.472l-9.765-2.061m-71.069 5.533H386.5m-81.593 0h40.688m330.711-42.207l-5.533 4.557m62.171 96.133l-12.912 1.518m-11.392 17.686l-8.246 1.52M547.407 221.574l49.368-7.053m73.997-1.519l-67.055 55.553m.001-55.01l41.015-5.859m-90.491 64.775l-9.547-1.844-7.487-1.52-40.253-8.464m223.077 50.019L611.64 323.13l-7.922.869m41.014-116.313l6.51-.976M491.203 97.557L463.861 86.49m4.449 64.125l22.135 7.161m-56.531 89.514l55.335 11.608"/></g><g><path fill="none" stroke="#272727" stroke-width="2" stroke-linecap="round" stroke-linejoin="round" d="M527.551 112.205l-9.438-3.688 4.557 20.831 8.68 41.34.108.433m-10.852-63.907c.362.795.723 1.518 1.085 2.17l-1.951-1.737m-59.676-20.831c1.229 19.096-.471 33.96-5.101 44.593-2.242 4.991-5.063 9.005-8.462 12.043 10.27-4.412 20.181-6.401 29.728-5.968 2.025.073 4.016.291 5.968.651a55.275 55.275 0 0 1 8.464 1.953m40.796 31.033l-.759-.325c.216.289.506.579.866.868l-.107-.543zm-34.286 72.152c13.671 4.341 27.668 12.01 41.989 23.004a268.096 268.096 0 0 1 4.231 3.363c-7.232-23.727-12.115-47.379-14.647-70.96a389.18 389.18 0 0 1-1.735-22.134l-.217-5.425v-1.627l3.906 1.302c-10.2-13.02-20.941-22.243-32.227-27.668m21.269-35.481c-7.523-6.654-14.396-11.971-20.615-15.949m9.438-28.319c3.399 20.037 7.413 34.648 12.043 43.835m-60.652-22.242c0 .578.038 1.193.11 1.845m-123.692-6.403l-15.732 32.659m49.259-7.053l3.146 18.879m1.954-22.893l-6.185-32.008m-11.175 28.536c4.702.433 9.367 1.809 13.996 4.123m-50.995 10.416c10.417-8.896 20.615-13.743 30.597-14.539m-21.158 57.831a1532.702 1532.702 0 0 0 11.827-18.445c-11.285.868-21.014 5.136-29.187 12.803l15.19-32.225m-19.53 41.122l-12.695 48.175c12.225-17.795 23.69-34.938 34.395-51.43m42.966-31.466l3.039 18.988c-6.944-2.604-13.526-4.376-19.747-5.317m-6.402-.758a45.56 45.56 0 0 0-6.293 0 460.601 460.601 0 0 0-8.137 18.119m6.401-18.011c2.821-4.629 5.641-9.187 8.463-13.671a472.014 472.014 0 0 0-6.728 13.563m120.22-51.322l-3.907-1.518m-74.105 106.981l1.736 27.885 1.41 25.933m61.955-100.69c.362 2.604.65 5.173.866 7.704.362 4.557.509 9.187.435 13.888-.145 13.816-2.096 28.174-5.859 43.075-3.111 12.079-7.377 24.556-12.802 37.432l.324.11c17.868-8.681 36.386-10.742 55.554-6.187M463.861 86.49c5.207-11.573 7.812-25.099 7.812-40.579M293.949 164.72c-36.384 48.752-55.842 90.669-58.374 125.752 21.772-28.86 41.809-56.421 60.109-82.677m128.141 37.324c.072 5.354 0 10.597-.217 15.733-.507 8.68-1.41 17.033-2.713 25.063a454.604 454.604 0 0 1-3.038 14.972c-2.604 9.909-5.967 19.313-10.091 28.21 23.581-9.04 50.489-11.465 80.725-7.269m-180.872-82.676a322.638 322.638 0 0 1 4.558-16.927c7.523-1.519 15.262-1.772 23.22-.76m.107-65.534c-9.259 21.339-17.035 43.437-23.328 66.294m-7.269 28.427a507.06 507.06 0 0 0-6.076 29.838 75.148 75.148 0 0 0-12.695-1.52c-1.085 4.052-1.88 7.85-2.387 11.393-1.881 11.936-1.265 21.302 1.845 28.103 16.42-7.741 35.588-8.065 57.506-.977m35.045-46.221c1.23-3.329 2.568-6.8 4.015-10.415a537.97 537.97 0 0 1 4.34-10.2m-78.881-11.501a189.444 189.444 0 0 0-2.712 11.5m30.489-29.187c3.688.435 7.45 1.193 11.283 2.278m22.135 77.036c-1.881 7.957-2.496 14.432-1.845 19.422.506 4.629 2.098 7.922 4.774 9.873-7.306-4.049-14.358-7.343-21.158-9.873m3.039-94.395c11.501 4.196 23.292 10.85 35.371 19.965m-10.85 25.497c-4.34 11.429-7.45 21.266-9.331 29.512m-82.678-21.809c-16.564-.725-33.418 3.111-50.561 11.501-12.587-6.292-37.035-11.935-73.347-16.926 47.74-34.576 91.647-70.851 131.721-108.826m426.083 145.932c-30.526-29.151-46.945-61.701-49.26-97.65m-133.348 85.064a241.897 241.897 0 0 1-.216-28.969m.65 34.287a276.656 276.656 0 0 0 4.448 31.682c-16.129-5.497-31.501-9.511-46.112-12.043m41.664-19.639c-.144-1.735-.288-3.51-.435-5.317m66.295-29.511l7.922 54.574c46.799-15.189 82.931-19.348 108.393-12.478M491.312 87.25c-12.37-6.365-21.521-6.618-27.45-.76m-78.013 105.463l-2.279-38.735"/></g><g><path fill="none" stroke="#282828" stroke-width="2" stroke-linecap="round" stroke-linejoin="round" d="M596.775 66.201v-7.053l6.942-.109v73.673M491.962 32.023l.11-9.44 7.812.217-.435 36.238m-7.487-27.015l-.216 23.436-.435 31.791-.108 10.308-.542 42.533-.217 17.686-.977 83.328-.219 17.795-.759 62.931-.434 28.645m7.815-.111l.324-27.343.761-62.389.216-17.36 1.085-83.003.216-17.143.543-42.423.11-9.005.324-32.66m97.326 100.581v-25.823m6.943-1.085v24.413m-6.943-23.328V66.201M353.19 48.298l.217-6.294h5.859l-.976 31.466m-6.186 1.844l1.085-27.016m4.45 50.236l-.326 11.283m-6.076-11.283l-.434 13.237-.868 26.04-.65 17.034-2.604 68.898-1.085 26.909-2.495 66.837-.868 24.412m7.702 1.302l.652-23.002 2.17-69.549.868-24.847 2.278-71.503.435-15.732.976-28.753m-6.077-11.283l.868-23.22m6.185-1.844l-.651 25.064M228.196 302.299l29.295 11.501m-106.656-34.937l-19.53-8.029 2.279-5.426 9.765 3.798 84.847 33.093m-77.361-23.436l19.639 8.029 26.908 11.066 5.967 2.496 15.408 6.292 24.629 9.983 43.075 17.685M257.492 313.8l65.101 25.39m274.182-124.669V344.18m6.943-75.624V157.125m0 186.078V268.556m-6.943-54.035V159.62"/></g><g><path fill="none" stroke="#0E1021" stroke-width="2" stroke-linecap="round" stroke-linejoin="round" d="M488.057 350.474a36.346 36.346 0 0 1 4.016 0c1.265-.036 2.53-.074 3.798-.108m-153.64-8.465c2.459.288 5.027.725 7.703 1.302m34.07 3.255c2.387.218 4.773.398 7.161.542 4.847.362 9.693.725 14.54 1.085m-55.77-4.882a821.518 821.518 0 0 0 34.07 3.255m-41.774-4.557a2131.22 2131.22 0 0 0-19.639-2.712c-17.866-2.17-29.91-3.762-36.131-4.774m-48.282-4.341l-2.604-6.075c6.582 1.445 15.045 3.363 25.389 5.751a710.874 710.874 0 0 0 25.498 4.665m-45.896 1.085l-2.387-5.426m12.477 25.282c-4.268-8.102-7.595-14.647-9.982-19.639-.072-.072-.108-.144-.108-.218m44.92 61.412c-.869-.217-1.701-.433-2.497-.651-5.28-3.761-10.344-8.533-15.19-14.32m-17.143-26.584c6.366 8.752 46.801 15.189 121.304 19.312 65.101 3.764 155.013 3.546 269.733-.65l50.563-2.713c2.386-7.017 5.314-14.501 8.788-22.459-119.569 11.285-222.535 14.828-308.903 10.632-86.368-4.34-136.856-12.259-151.468-23.76m44.813 61.193a413.23 413.23 0 0 0 10.09 2.28c23.87 5.28 48.138 9.475 72.804 12.585a955.18 955.18 0 0 0 68.03 5.859m-168.611-35.696c-6.003-7.306-11.718-16.168-17.143-26.583m243.695 62.712l-22.785.11c-4.124 0-8.174-.036-12.153-.11l-23.002-.433m263.983-88.753l8.462-1.302c.219-.072.471-.144.761-.218-.434-.072-.761-.072-.977 0l-8.246 1.52-86.368 13.128-3.036.435c-1.88.288-3.726.542-5.533.759l-1.738.218h-.542c-.145 0-.253.036-.324.108h-.108c-.29 0-.543.036-.761.108l-5.207.542a1304.99 1304.99 0 0 1-23.111 2.17c-2.604.146-5.209.326-7.812.543-4.195.362-8.319.688-12.369.977a1218.391 1218.391 0 0 1-57.613 2.496m213.744-23.004a6.94 6.94 0 0 1 .976-.217 5.482 5.482 0 0 1 1.085-.107c-3.978 7.667-7.523 14.936-10.632 21.808m-8.788 22.459c-.072.074-.11.181-.11.326-7.377 4.775-12.151 10.488-14.321 17.143-.797 2.313-1.268 4.811-1.411 7.486-1.374.291-2.821.617-4.341.978m-58.049-55.228l-5.207.65 2.171-.216m-7.271.759c1.447-.145 2.931-.288 4.45-.433l.65-.11m-5.1.543v.109a14.278 14.278 0 0 1 1.738-.109l2.712-.433m-4.45.651v-.108c-.144 0-.324.034-.542.108.144-.074.29-.146.434-.218-.29 0-.578.109-.866.326m.974-.326h-.108m-109.259 74.865c22.856-.65 46.038-2.096 69.548-4.34 35.445-3.543 71.503-9.04 108.175-16.491m-266.369-49.152c26.547 1.666 53.998 2.461 82.352 2.389"/></g></svg>