<?xml version="1.0" encoding="utf-8"?>
<!-- Generator: Adobe Illustrator 16.0.0, SVG Export Plug-In . SVG Version: 6.00 Build 0)  -->
<!DOCTYPE svg PUBLIC "-//W3C//DTD SVG 1.1//EN" "http://www.w3.org/Graphics/SVG/1.1/DTD/svg11.dtd">
<svg version="1.1" id="Layer_1" xmlns="http://www.w3.org/2000/svg" xmlns:xlink="http://www.w3.org/1999/xlink" x="0px" y="0px"
	 width="900px" height="450px" viewBox="0 0 900 450" enable-background="new 0 0 900 450" xml:space="preserve">
<g transform="matrix( 1, 0, 0, 1, 0,0) ">
	<g>
		<g id="Layer0_0_FILL">
			<path fill="#D58346" d="M691.822,426.967l0.107-8.898l-15.516,0.326v7.596v0.977H691.822 M691.93,418.068v-6.292h-15.516v6.618
				L691.93,418.068 M563.898,413.729c-23.51,2.244-46.691,3.689-69.548,4.34c60.686,0,119.93-2.17,177.723-6.51v-14.321
				C635.401,404.688,599.344,410.186,563.898,413.729c35.518-1.88,70.997-4.919,106.439-9.112
				C634.896,408.81,599.416,411.849,563.898,413.729 M692.038,403.855l-15.624,0.107v7.813h15.516L692.038,403.855 M692.038,396.368
				l-15.624-0.108v7.703l15.624-0.107V396.368 M676.414,396.26l15.624,0.108l0.108-7.919l-14.321,0.324
				C677.028,391.087,676.558,393.584,676.414,396.26 M692.257,371.305c-0.072,0.074-0.11,0.181-0.11,0.326
				c-7.377,4.775-12.151,10.488-14.321,17.143l14.321-0.324L692.257,371.305 M459.412,418.068
				c-7.668-0.144-15.335-0.288-23.002-0.433c-46.294-0.868-93.347-2.895-141.159-6.077l7.811,9.657l3.797,4.774h365.214v-10.524
				v-1.411v-1.085v-1.411c-57.793,4.34-117.037,6.51-177.723,6.51c-7.596,0.036-15.19,0.074-22.785,0.11
				C467.441,418.179,463.392,418.143,459.412,418.068 M303.062,418.829c127.598,4.122,250.203,3.978,367.819-0.435
				C553.265,422.807,430.66,422.951,303.062,418.829 M289.608,404.29l0.217,0.326l5.425,6.942
				c47.813,3.183,94.865,5.209,141.159,6.077c-22.93-1.159-45.606-3.11-68.03-5.859C342.123,409.895,315.866,407.4,289.608,404.29
				 M285.486,397.779v1.628l0.216,0.216l3.906,4.667c26.258,3.11,52.514,5.604,78.771,7.486
				c-24.666-3.11-48.934-7.305-72.804-12.585C292.176,398.757,288.813,398.286,285.486,397.779 M285.486,396.911v0.868
				c3.327,0.507,6.69,0.978,10.09,1.412C292.176,398.466,288.813,397.708,285.486,396.911z"/>
			<path fill="#666666" d="M603.718,343.313v-0.109h-0.108c-0.144,0.071-0.29,0.144-0.434,0.218
				C603.394,343.347,603.574,343.313,603.718,343.313 M603.609,343.421h0.108v-0.108c-0.144,0-0.324,0.034-0.542,0.108
				C603.319,343.421,603.466,343.421,603.609,343.421 M602.852,343.529c0.071-0.072,0.18-0.108,0.324-0.108
				c0.144-0.074,0.29-0.146,0.434-0.218c-0.29,0-0.578,0.109-0.866,0.326H602.852 M131.305,270.834l19.53,8.029l19.639,8.029
				l26.908,11.066l5.967,2.496l15.408,6.292l24.629,9.983l43.075,17.685c6.221,1.013,18.265,2.604,36.131,4.774l-65.101-25.39
				l-29.295-11.501l-84.847-33.093l-9.765-3.798L131.305,270.834 M353.407,42.004l-0.217,6.294l-1.085,27.016l-0.868,23.22
				l-0.434,13.237l-0.868,26.04l-0.65,17.034l-2.604,68.898l-1.085,26.909l-2.495,66.837l-0.868,24.412
				c2.459,0.288,5.027,0.725,7.703,1.302l0.652-23.002l2.17-69.549l0.868-24.847l2.278-71.503l0.435-15.732l0.976-28.753
				l0.326-11.283l0.651-25.064l0.977-31.465H353.407 M492.072,22.583l-0.11,9.44l-0.216,23.436l-0.435,31.791l-0.108,10.308
				l-0.542,42.533l-0.217,17.686l-0.977,83.328l-0.219,17.795l-0.759,62.931l-0.434,28.645c1.303-0.074,2.64-0.074,4.016,0
				c1.265-0.036,2.53-0.074,3.798-0.108l0.324-27.343l0.761-62.389l0.216-17.36l1.085-83.003l0.216-17.143l0.543-42.423l0.11-9.005
				l0.324-32.66l0.435-36.238L492.072,22.583 M596.775,59.148v7.053v25.605v41.99v25.823v54.901v43.619v51.538v10.958v23.544
				l5.207-0.542c0.218-0.072,0.471-0.108,0.761-0.108c0.288-0.217,0.576-0.326,0.866-0.326h0.108v-19.204v-55.443v-55.011v-56.42
				v-24.413V59.039L596.775,59.148z"/>
			<path fill="#E2DFD3" d="M537.208,269.098l-40.253-8.464l-0.761,62.389c14.611,2.532,29.983,6.546,46.112,12.043
				c-2.096-10.488-3.579-21.048-4.448-31.682c-0.144-1.735-0.288-3.51-0.435-5.317C536.773,288.448,536.701,278.789,537.208,269.098
				 M423.607,260.853c-0.507,8.68-1.41,17.033-2.713,25.063c-0.94,5.063-1.953,10.055-3.038,14.972
				c-2.604,9.909-5.967,19.313-10.091,28.21c23.581-9.04,50.489-11.465,80.725-7.269l0.759-62.931l-55.335-11.608l-0.324-0.11
				l-9.765-2.061C423.896,250.473,423.825,255.716,423.607,260.853z"/>
			<path fill="#E7E4DB" d="M720.032,310.652c-30.526-29.151-46.945-61.701-49.26-97.65l-67.055,55.553l7.922,54.574
				C658.438,307.94,694.57,303.782,720.032,310.652 M162.228,273.546c36.312,4.991,60.76,10.634,73.347,16.926
				c2.531-35.083,21.99-77,58.374-125.752C253.875,202.695,209.968,238.97,162.228,273.546 M378.145,271.268
				c1.23-3.329,2.568-6.8,4.015-10.415c1.375-3.327,2.821-6.729,4.34-10.2h-33.744l-2.17,69.549
				c6.799,2.53,13.852,5.824,21.158,9.873c-2.677-1.951-4.268-5.244-4.774-9.873c-0.651-4.99-0.036-11.465,1.845-19.422
				C370.695,292.533,373.805,282.696,378.145,271.268 M304.907,250.652c-2.314,9.838-4.34,19.783-6.076,29.838
				c-4.196-0.868-8.427-1.375-12.695-1.52c-1.085,4.052-1.88,7.85-2.387,11.393c-1.881,11.936-1.265,21.302,1.845,28.103
				c16.42-7.741,35.588-8.065,57.506-0.977l2.495-66.837H304.907 M450.95,145.081c0.362,2.604,0.65,5.173,0.866,7.704
				c0.362,4.557,0.509,9.187,0.435,13.888c-0.145,13.816-2.096,28.174-5.859,43.075c-3.111,12.079-7.377,24.556-12.802,37.432
				l0.324,0.11c17.868-8.681,36.386-10.742,55.554-6.187l0.977-83.328l-22.135-7.161l-9.44-2.93L450.95,145.081 M349.284,154.846
				l-13.78,1.085c-9.259,21.339-17.035,43.437-23.328,66.294c7.523-1.519,15.262-1.772,23.22-0.76
				c3.688,0.435,7.45,1.193,11.283,2.278L349.284,154.846 M383.57,153.218l-0.108-1.301l-27.56,2.386l-2.278,71.503
				c11.501,4.196,23.292,10.85,35.371,19.965l-1.41-25.933l-1.736-27.885L383.57,153.218 M330.079,156.365l-21.808,1.736l0.108,1.52
				l-12.695,48.175C307.909,190,319.375,172.857,330.079,156.365 M312.719,150.723c8.173-7.667,17.902-11.935,29.187-12.803
				c2.821-4.629,5.641-9.187,8.463-13.671c-2.315,4.484-4.557,9.005-6.728,13.563c2.025-0.145,4.123-0.145,6.293,0l0.868-26.04
				l-22.894,6.726L312.719,150.723 M373.045,124.899l-3.146-18.879l-12.587,3.797l-0.976,28.753
				c6.221,0.941,12.803,2.712,19.747,5.317L373.045,124.899 M526.792,171.121c0-0.506,0-1.049,0-1.627l-28.536-9.223l-1.085,83.003
				c13.671,4.341,27.668,12.01,41.989,23.004c1.303,1.013,2.712,2.132,4.231,3.363c-7.232-23.727-12.115-47.379-14.647-70.96
				c-0.795-7.451-1.375-14.829-1.735-22.134C526.937,174.738,526.864,172.929,526.792,171.121z"/>
			<path fill="#264A82" d="M240.674,335.718c2.387,4.991,5.714,11.537,9.982,19.639c6.366,8.752,46.801,15.189,121.304,19.312
				c65.101,3.764,155.013,3.546,269.733-0.65c16.855-0.905,33.707-1.808,50.563-2.713c2.386-7.017,5.314-14.501,8.788-22.459
				c-119.569,11.285-222.535,14.828-308.903,10.632C305.774,355.138,255.286,347.219,240.674,335.718 M384.004,346.458
				c-11.574-0.867-22.93-1.952-34.07-3.255c-2.676-0.577-5.244-1.014-7.703-1.302c-6.582-0.94-13.129-1.844-19.639-2.712
				c-17.866-2.17-29.91-3.762-36.131-4.774c-8.391-1.376-16.89-2.929-25.498-4.665c-10.344-2.388-18.807-4.306-25.389-5.751
				c0.868,2.026,1.736,4.052,2.604,6.075c0.796,1.808,1.591,3.618,2.387,5.426c0,0.074,0.036,0.146,0.108,0.218
				c14.612,11.501,65.101,19.42,151.468,23.76c86.368,4.196,189.333,0.653,308.903-10.632c3.108-6.872,6.654-14.141,10.632-21.808
				c-0.36,0-0.723,0.034-1.085,0.107c-0.433,0.072-0.759,0.145-0.976,0.217c-0.29,0.074-0.542,0.146-0.761,0.218l-8.462,1.302
				l-86.368,13.128l-3.036,0.435c-1.88,0.288-3.726,0.542-5.533,0.759l-1.738,0.218h-0.108c-0.144,0-0.29,0-0.434,0
				c-0.145,0-0.253,0.036-0.324,0.108h-0.108c-0.29,0-0.543,0.036-0.761,0.108l-5.207,0.542c-7.739,0.795-15.444,1.52-23.111,2.17
				c-2.604,0.146-5.209,0.326-7.812,0.543c-4.195,0.362-8.319,0.688-12.369,0.977c-19.53,1.301-38.736,2.134-57.613,2.496
				c-1.268,0.034-2.533,0.072-3.798,0.108c-1.376-0.074-2.713-0.074-4.016,0c-28.354,0.072-55.805-0.723-82.352-2.389
				c-4.846-0.36-9.693-0.723-14.54-1.085C388.778,346.856,386.392,346.676,384.004,346.458 M708.64,328.339l-8.246,1.52
				L708.64,328.339z"/>
			<path fill="#1A1D3C" d="M282.989,396.26c0.796,0.219,1.627,0.435,2.497,0.651c3.327,0.797,6.69,1.555,10.09,2.28
				c23.87,5.28,48.138,9.475,72.804,12.585c22.424,2.749,45.1,4.7,68.03,5.859c7.667,0.145,15.334,0.289,23.002,0.433
				c3.979,0.074,8.029,0.11,12.153,0.11c7.595-0.036,15.189-0.074,22.785-0.11c22.856-0.65,46.038-2.096,69.548-4.34
				c35.445-3.543,71.503-9.04,108.175-16.491c1.52-0.36,2.967-0.687,4.341-0.978c0.144-2.676,0.614-5.173,1.411-7.486
				c2.17-6.654,6.944-12.367,14.321-17.143c0-0.146,0.038-0.252,0.11-0.326c-16.856,0.905-33.708,1.808-50.563,2.713
				c-114.721,4.196-204.633,4.414-269.733,0.65c-74.503-4.122-114.938-10.56-121.304-19.312
				c5.425,10.415,11.14,19.277,17.143,26.583C272.646,387.727,277.709,392.499,282.989,396.26z"/>
			<path fill="#D7D2C4" d="M341.906,137.92c-3.834,6.076-7.776,12.224-11.827,18.445c-10.705,16.493-22.17,33.635-34.395,51.43
				c-18.3,26.256-38.336,53.816-60.109,82.677c17.143-8.39,33.997-12.226,50.561-11.501c4.268,0.145,8.499,0.651,12.695,1.52
				c1.736-10.055,3.762-20,6.076-29.838c0.796-3.905,1.7-7.741,2.712-11.5c1.375-5.716,2.894-11.359,4.558-16.927
				c6.292-22.858,14.069-44.956,23.328-66.294c2.604-6.148,5.317-12.188,8.137-18.119c2.17-4.557,4.412-9.078,6.728-13.563
				C347.547,128.733,344.727,133.291,341.906,137.92 M352.104,75.314l-15.732,5.1l-15.732,32.659
				c10.417-8.896,20.615-13.743,30.597-14.539L352.104,75.314 M368.814,69.999L358.29,73.47l-0.651,25.064
				c4.702,0.433,9.367,1.809,13.996,4.123l3.364-0.65L368.814,69.999z"/>
			<path fill="#EFEDE7" d="M491.312,87.25l0.435-31.791l-20.073-9.548c0,15.479-2.604,29.006-7.812,40.579
				C469.791,80.631,478.941,80.885,491.312,87.25 M508.563,63.379l-9.114-4.34l-0.324,32.66c6.22,3.978,13.092,9.294,20.615,15.949
				c0.65,0.579,1.301,1.158,1.951,1.737c-0.362-0.652-0.723-1.375-1.085-2.17C515.977,98.028,511.963,83.416,508.563,63.379z"/>
			<path fill="#DDD9CC" d="M476.229,137.485c2.025,0.073,4.016,0.291,5.968,0.651c2.895,0.434,5.715,1.085,8.464,1.953l0.542-42.533
				L463.861,86.49l-3.797,0.327c1.229,19.096-0.471,33.96-5.101,44.593c-2.242,4.991-5.063,9.005-8.462,12.043
				C456.771,139.041,466.683,137.052,476.229,137.485 M518.112,108.517l-19.098-7.813l-0.543,42.423
				c11.285,5.425,22.026,14.648,32.227,27.668l0.65-0.108l-8.68-41.34L518.112,108.517z"/>
		</g>
	</g>
	<g>
		
			<path id="Layer0_0_1_STROKES" fill="none" stroke="#9A6243" stroke-width="0.05" stroke-linecap="round" stroke-linejoin="round" d="
			M285.486,397.779c3.327,0.507,6.69,0.978,10.09,1.412 M289.608,404.29c26.258,3.11,52.514,5.604,78.771,7.486 M295.251,411.559
			c47.813,3.183,94.865,5.209,141.159,6.077 M289.826,404.616h-1.411 M294.382,411.559h0.869 M494.351,418.068
			c60.686,0,119.93-2.17,177.723-6.51 M692.146,388.449l-14.321,0.324 M676.414,396.26l15.624,0.108 M676.414,403.963l15.624-0.107
			 M676.414,411.776h15.516 M676.414,418.395l15.516-0.326 M563.898,413.729c35.518-1.88,70.997-4.919,106.439-9.112
			 M303.062,418.829c127.598,4.122,250.203,3.978,367.819-0.435"/>
	</g>
	<g>
		<path id="Layer0_0_2_STROKES" fill="none" stroke="#251710" stroke-width="2" stroke-linecap="round" stroke-linejoin="round" d="
			M285.486,399.407l0.216,0.216l3.906,4.667l0.217,0.326l5.425,6.942l7.811,9.657l3.797,4.774h365.214v-10.524v-1.411v-1.085v-1.411
			 M692.257,371.305l-0.11,17.145l-0.108,7.919v7.487 M676.414,396.26v7.703v7.813 M691.93,411.776l0.108-7.921 M672.073,411.559
			v-14.321 M691.93,418.068v-6.292 M676.414,418.395v7.596v0.977h15.408l0.107-8.898 M676.414,411.776v6.618"/>
	</g>
	<g>
		
			<path id="Layer0_0_3_STROKES" fill="none" stroke="#999999" stroke-width="0.05" stroke-linecap="round" stroke-linejoin="round" d="
			M522.669,129.348l17.902-8.246l-13.021-8.897 M596.775,159.62l-60.328,12.912 M565.635,138.354l-25.063-17.252l51.321-23.328
			 M676.306,208.445l-72.588-51.321 M596.775,91.807l-25.607,45.679 M381.075,102.765l22.568,8.897l56.422-24.846 M143.35,269.206
			l177.29-156.133 M373.045,124.899l30.597-13.237l51.321,19.748 M312.719,150.723l-10.525,7.92 M387.585,219.838l36.673-30.163
			l-13.78-12.26l-24.629,14.539 M388.995,245.771l0.76,4.882 M482.197,138.137l-13.888,12.478 M476.229,137.485l-17.36,10.2
			 M383.57,153.218l26.908,24.197l41.338-24.63 M452.251,166.672l-27.993,23.002l22.134,20.073 M302.194,158.643l-8.246,6.077
			 M389.755,250.652l1.627,10.2h32.225 M307.619,239.152l27.777-17.687 M378.145,271.268l6.51,37.541L398,300.563 M382.16,260.853
			h9.223 M366.97,320.201l6.727-4.231l-4.882-15.19 M371.744,330.074l5.533-3.689l-3.581-10.415l10.958-7.161l1.953,11.719
			l13.237-8.355 M420.895,285.916L398,300.563 M391.165,347l-4.557-26.473l-9.331,5.857l6.727,20.073 M417.857,300.888
			l-18.012,11.284 M228.196,302.299l7.379-11.827 M257.492,313.8l26.257-23.437 M150.835,278.863
			c14.105,15.334,28.536,29.838,43.292,43.508l1.41-9.765l-25.063-25.714 M197.383,297.959l-1.845,14.647l0.868,0.977l19.097,1.409
			l-12.152-14.537 M225.484,315.753l-9.981-0.761l11.501,13.131l9.223,1.735L225.484,315.753l-6.726-9.006 M238.179,330.074
			l-1.953-0.216l4.34,5.642 M225.484,315.753l17.903,0.978 M267.799,381.939c-21.483-11.863-46.04-31.718-73.671-59.568
			l32.875,5.752l23.653,27.233 M532.649,196.51l64.126-36.89 M555.978,279.079l6.836,5.209l33.962-26.148 M532.649,196.51
			l-3.905,2.17 M543.392,269.641l1.304,0.977l11.282,8.462 M537.208,269.098l10.09,27.125l10.85-8.571l4.666-3.363l33.962,25.39
			 M537.424,298.066l1.52,4.448l8.354-6.292l3.581,10.09l13.347,4.124 M538.943,302.515l11.936,3.798l14.974,40.58 M553.483,347.869
			l-14.54-45.354l-1.085,0.869 M596.775,320.636l-32.55-10.199 M527.009,176.546l5.641,19.964"/>
	</g>
	<g>
		
			<path id="Layer0_0_4_STROKES" fill="none" stroke="#666666" stroke-width="0.05" stroke-linecap="round" stroke-linejoin="round" d="
			M470.48,45.369l21.481-13.345 M518.112,108.517l1.628-0.869 M520.606,107.214l76.169-41.013 M375.433,104.285l95.048-58.916
			 M353.19,48.298L143.35,269.206 M375.107,104.501l0.325-0.217 M391.382,260.853L398,300.563l1.845,11.608l5.859,35.913
			 M596.775,159.62l-49.368,61.954 M532.649,196.51l21.593,75.951l1.735,6.618 M603.718,157.125l41.015,50.561 M555.978,279.079
			l2.17,8.572l6.078,22.785l9.438,35.913"/>
	</g>
	<g>
		<path id="Layer0_0_5_STROKES" fill="none" stroke="#000000" stroke-width="2" stroke-linecap="round" stroke-linejoin="round" d="
			M603.718,132.712L629,128.915 M499.449,59.039l9.114,4.34l13.128,6.185 M470.48,45.369l1.192,0.542l20.073,9.548 M531.457,171.121
			l4.99,1.412 M596.775,133.797l-25.607,3.688l-5.533,0.869 M518.112,108.517l-19.098-7.813 M498.256,160.271l28.536,9.223
			 M681.949,203.671l-5.644,4.774 M461.258,41.028l9.223,4.34 M375.433,104.285v0.108l5.642-1.627 M459.954,84.972l-8.68-3.473
			 M358.29,73.47l10.525-3.471l10.416-3.364 M352.104,75.314l-15.732,5.1l-12.695,4.015 M375.433,104.393l-0.325,0.109l-5.208,1.519
			 M374.999,102.006l0.434,2.278 M371.635,102.657c1.157,0.579,2.315,1.193,3.473,1.845 M369.899,106.02l-12.587,3.797
			 M327.909,118.498l-12.585,3.472 M302.194,158.643l6.077-0.542l21.808-1.736 M350.803,111.771l-22.894,6.726 M349.284,154.846
			l-13.78,1.085 M383.462,151.917l-27.56,2.386 M389.755,250.652h12.152 M468.31,150.615l-9.44-2.93l-7.919-2.604 M435.541,140.09
			l10.961,3.363l4.448,1.627 M397.893,150.723l-14.431,1.194 M302.194,158.643l-7.161,0.542 M423.825,245.119l-15.082-3.255
			 M386.5,250.652h3.255 M433.59,247.18l-9.765-2.061 M352.756,250.652H386.5 M304.907,250.652h40.688 M676.306,208.445
			l-5.533,4.557 M732.944,309.135l-12.912,1.518 M708.64,328.339l-8.246,1.52 M547.407,221.574l49.368-7.053 M670.772,213.002
			l-67.055,55.553 M603.718,213.545l41.015-5.859 M554.242,272.461l-9.547-1.844l-7.487-1.52l-40.253-8.464 M720.032,310.652
			L611.64,323.13l-7.922,0.869 M644.732,207.686l6.51-0.976 M491.203,97.557L463.861,86.49 M468.31,150.615l22.135,7.161
			 M433.914,247.29l55.335,11.608"/>
	</g>
	<g>
		<path id="Layer0_0_6_STROKES" fill="none" stroke="#272727" stroke-width="2" stroke-linecap="round" stroke-linejoin="round" d="
			M527.551,112.205l-9.438-3.688l4.557,20.831l8.68,41.34l0.108,0.433 M520.606,107.214c0.362,0.795,0.723,1.518,1.085,2.17
			c-0.65-0.579-1.301-1.158-1.951-1.737 M460.064,86.816c1.229,19.096-0.471,33.96-5.101,44.593
			c-2.242,4.991-5.063,9.005-8.462,12.043c10.27-4.412,20.181-6.401,29.728-5.968c2.025,0.073,4.016,0.291,5.968,0.651
			c2.895,0.434,5.715,1.085,8.464,1.953 M531.457,171.121l-0.759-0.325c0.216,0.289,0.506,0.579,0.866,0.868L531.457,171.121z
			 M497.171,243.273c13.671,4.341,27.668,12.01,41.989,23.004c1.303,1.013,2.712,2.132,4.231,3.363
			c-7.232-23.727-12.115-47.379-14.647-70.96c-0.795-7.451-1.375-14.829-1.735-22.134c-0.072-1.808-0.145-3.617-0.217-5.425
			c0-0.506,0-1.049,0-1.627l3.906,1.302c-10.2-13.02-20.941-22.243-32.227-27.668 M519.74,107.647
			c-7.523-6.654-14.396-11.971-20.615-15.949 M508.563,63.379c3.399,20.037,7.413,34.648,12.043,43.835 M459.954,84.972
			c0,0.578,0.038,1.193,0.11,1.845 M336.372,80.414l-15.732,32.659 M369.899,106.02l3.146,18.879 M374.999,102.006l-6.185-32.008
			 M357.639,98.534c4.702,0.433,9.367,1.809,13.996,4.123 M320.64,113.073c10.417-8.896,20.615-13.743,30.597-14.539
			 M330.079,156.365c4.051-6.221,7.993-12.369,11.827-18.445c-11.285,0.868-21.014,5.136-29.187,12.803l15.19-32.225
			 M308.379,159.62l-12.695,48.175c12.225-17.795,23.69-34.938,34.395-51.43 M373.045,124.899l3.039,18.988
			c-6.944-2.604-13.526-4.376-19.747-5.317 M349.935,137.812c-2.17-0.145-4.268-0.145-6.293,0
			c-2.82,5.932-5.533,11.971-8.137,18.119 M341.906,137.92c2.821-4.629,5.641-9.187,8.463-13.671
			c-2.315,4.484-4.557,9.005-6.728,13.563 M463.861,86.49l-3.907-1.518 M385.849,191.953l1.736,27.885l1.41,25.933 M450.95,145.081
			c0.362,2.604,0.65,5.173,0.866,7.704c0.362,4.557,0.509,9.187,0.435,13.888c-0.145,13.816-2.096,28.174-5.859,43.075
			c-3.111,12.079-7.377,24.556-12.802,37.432l0.324,0.11c17.868-8.681,36.386-10.742,55.554-6.187 M463.861,86.49
			c5.207-11.573,7.812-25.099,7.812-40.579 M293.949,164.72c-36.384,48.752-55.842,90.669-58.374,125.752
			c21.772-28.86,41.809-56.421,60.109-82.677 M423.825,245.119c0.072,5.354,0,10.597-0.217,15.733
			c-0.507,8.68-1.41,17.033-2.713,25.063c-0.94,5.063-1.953,10.055-3.038,14.972c-2.604,9.909-5.967,19.313-10.091,28.21
			c23.581-9.04,50.489-11.465,80.725-7.269 M307.619,239.152c1.375-5.716,2.894-11.359,4.558-16.927
			c7.523-1.519,15.262-1.772,23.22-0.76 M335.504,155.931c-9.259,21.339-17.035,43.437-23.328,66.294 M304.907,250.652
			c-2.314,9.838-4.34,19.783-6.076,29.838c-4.196-0.868-8.427-1.375-12.695-1.52c-1.085,4.052-1.88,7.85-2.387,11.393
			c-1.881,11.936-1.265,21.302,1.845,28.103c16.42-7.741,35.588-8.065,57.506-0.977 M378.145,271.268
			c1.23-3.329,2.568-6.8,4.015-10.415c1.375-3.327,2.821-6.729,4.34-10.2 M307.619,239.152c-1.013,3.759-1.917,7.595-2.712,11.5
			 M335.396,221.465c3.688,0.435,7.45,1.193,11.283,2.278 M368.814,300.779c-1.881,7.957-2.496,14.432-1.845,19.422
			c0.506,4.629,2.098,7.922,4.774,9.873c-7.306-4.049-14.358-7.343-21.158-9.873 M353.624,225.806
			c11.501,4.196,23.292,10.85,35.371,19.965 M378.145,271.268c-4.34,11.429-7.45,21.266-9.331,29.512 M286.136,278.971
			c-16.564-0.725-33.418,3.111-50.561,11.501c-12.587-6.292-37.035-11.935-73.347-16.926
			c47.74-34.576,91.647-70.851,131.721-108.826 M720.032,310.652c-30.526-29.151-46.945-61.701-49.26-97.65 M537.424,298.066
			c-0.65-9.618-0.723-19.277-0.216-28.969 M537.858,303.384c0.869,10.634,2.353,21.193,4.448,31.682
			c-16.129-5.497-31.501-9.511-46.112-12.043 M537.858,303.384c-0.144-1.735-0.288-3.51-0.435-5.317 M603.718,268.556l7.922,54.574
			c46.799-15.189,82.931-19.348,108.393-12.478 M491.312,87.25c-12.37-6.365-21.521-6.618-27.45-0.76 M385.849,191.953
			l-2.279-38.735"/>
	</g>
	<g>
		<path id="Layer0_0_7_STROKES" fill="none" stroke="#282828" stroke-width="2" stroke-linecap="round" stroke-linejoin="round" d="
			M596.775,66.201v-7.053l6.942-0.109v73.673 M491.962,32.023l0.11-9.44l7.812,0.217l-0.435,36.238 M491.962,32.023l-0.216,23.436
			l-0.435,31.791l-0.108,10.308l-0.542,42.533l-0.217,17.686l-0.977,83.328l-0.219,17.795l-0.759,62.931l-0.434,28.645
			 M495.87,350.365l0.324-27.343l0.761-62.389l0.216-17.36l1.085-83.003l0.216-17.143l0.543-42.423l0.11-9.005l0.324-32.66
			 M596.775,159.62v-25.823 M603.718,132.712v24.413 M596.775,133.797v-41.99V66.201 M353.19,48.298l0.217-6.294h5.859L358.29,73.47
			 M352.104,75.314l1.085-27.016 M357.639,98.534l-0.326,11.283 M351.237,98.534l-0.434,13.237l-0.868,26.04l-0.65,17.034
			l-2.604,68.898l-1.085,26.909l-2.495,66.837l-0.868,24.412 M349.935,343.203l0.652-23.002l2.17-69.549l0.868-24.847l2.278-71.503
			l0.435-15.732l0.976-28.753 M351.237,98.534l0.868-23.22 M358.29,73.47l-0.651,25.064 M228.196,302.299l29.295,11.501
			 M150.835,278.863l-19.53-8.029l2.279-5.426l9.765,3.798l84.847,33.093 M150.835,278.863l19.639,8.029l26.908,11.066l5.967,2.496
			l15.408,6.292l24.629,9.983l43.075,17.685 M257.492,313.8l65.101,25.39 M596.775,214.521v43.619v51.538v10.958v23.544
			 M603.718,268.556v-55.011v-56.42 M603.718,343.203v-19.204v-55.443 M596.775,214.521V159.62"/>
	</g>
	<g>
		<path id="Layer0_0_8_STROKES" fill="none" stroke="#0E1021" stroke-width="2" stroke-linecap="round" stroke-linejoin="round" d="
			M488.057,350.474c1.303-0.074,2.64-0.074,4.016,0c1.265-0.036,2.53-0.074,3.798-0.108 M342.231,341.901
			c2.459,0.288,5.027,0.725,7.703,1.302 M384.004,346.458c2.387,0.218,4.773,0.398,7.161,0.542c4.847,0.362,9.693,0.725,14.54,1.085
			 M349.935,343.203c11.14,1.303,22.496,2.388,34.07,3.255 M342.231,341.901c-6.582-0.94-13.129-1.844-19.639-2.712
			c-17.866-2.17-29.91-3.762-36.131-4.774 M238.179,330.074c-0.868-2.023-1.735-4.049-2.604-6.075
			c6.582,1.445,15.045,3.363,25.389,5.751c8.608,1.736,17.107,3.289,25.498,4.665 M240.566,335.5
			c-0.796-1.808-1.591-3.618-2.387-5.426 M250.656,355.356c-4.268-8.102-7.595-14.647-9.982-19.639
			c-0.072-0.072-0.108-0.144-0.108-0.218 M285.486,396.911c-0.869-0.217-1.701-0.433-2.497-0.651
			c-5.28-3.761-10.344-8.533-15.19-14.32 M250.656,355.356c6.366,8.752,46.801,15.189,121.304,19.312
			c65.101,3.764,155.013,3.546,269.733-0.65c16.855-0.905,33.707-1.808,50.563-2.713c2.386-7.017,5.314-14.501,8.788-22.459
			c-119.569,11.285-222.535,14.828-308.903,10.632c-86.368-4.34-136.856-12.259-151.468-23.76 M285.486,396.911
			c3.327,0.797,6.69,1.555,10.09,2.28c23.87,5.28,48.138,9.475,72.804,12.585c22.424,2.749,45.1,4.7,68.03,5.859 M267.799,381.939
			c-6.003-7.306-11.718-16.168-17.143-26.583 M494.351,418.068c-7.596,0.036-15.19,0.074-22.785,0.11
			c-4.124,0-8.174-0.036-12.153-0.11c-7.668-0.144-15.335-0.288-23.002-0.433 M700.394,328.882l8.462-1.302
			c0.219-0.072,0.471-0.144,0.761-0.218c-0.434-0.072-0.761-0.072-0.977,0L700.394,328.882l-86.368,13.128l-3.036,0.435
			c-1.88,0.288-3.726,0.542-5.533,0.759l-1.738,0.218h-0.108c-0.144,0-0.29,0-0.434,0c-0.145,0-0.253,0.036-0.324,0.108h-0.108
			c-0.29,0-0.543,0.036-0.761,0.108l-5.207,0.542c-7.739,0.795-15.444,1.52-23.111,2.17c-2.604,0.146-5.209,0.326-7.812,0.543
			c-4.195,0.362-8.319,0.688-12.369,0.977c-19.53,1.301-38.736,2.134-57.613,2.496 M709.616,327.362
			c0.217-0.072,0.543-0.145,0.976-0.217c0.362-0.073,0.725-0.107,1.085-0.107c-3.978,7.667-7.523,14.936-10.632,21.808
			 M692.257,371.305c-0.072,0.074-0.11,0.181-0.11,0.326c-7.377,4.775-12.151,10.488-14.321,17.143
			c-0.797,2.313-1.268,4.811-1.411,7.486c-1.374,0.291-2.821,0.617-4.341,0.978 M614.025,342.01l-5.207,0.65
			c0.723-0.072,1.448-0.144,2.171-0.216 M603.718,343.203c1.447-0.145,2.931-0.288,4.45-0.433l0.65-0.11 M603.718,343.203v0.109
			c0.581-0.071,1.157-0.109,1.738-0.109l2.712-0.433 M603.718,343.421v-0.108c-0.144,0-0.324,0.034-0.542,0.108
			c0.144-0.074,0.29-0.146,0.434-0.218c-0.29,0-0.578,0.109-0.866,0.326 M603.718,343.203h-0.108 M494.351,418.068
			c22.856-0.65,46.038-2.096,69.548-4.34c35.445-3.543,71.503-9.04,108.175-16.491 M405.705,348.085
			c26.547,1.666,53.998,2.461,82.352,2.389"/>
	</g>
</g>
</svg>
