<svg xmlns="http://www.w3.org/2000/svg" width="900" height="450" viewBox="0 0 900 450"><path fill="#8E6C6D" d="M738.803 196.21l-.968 3.115a9.4 9.4 0 0 0 2.041.214c2.721 0 5.013-.895 6.874-2.685 1.575-1.503 2.54-3.329 2.898-5.477-.43.859-1.038 1.646-1.825 2.363-1.86 1.79-4.188 2.685-6.98 2.685-.644 0-1.323-.072-2.04-.215m-7.625-10.417c-.786 1.218-1.181 2.649-1.181 4.295 0 2.148.644 4.009 1.932 5.584l1.074-3.114c-1.361-1.575-2.041-3.4-2.041-5.477 0-.5.071-.931.216-1.288z"/><path fill="#987E7F" d="M656.863 161.308c-2.719 0-5.047.895-6.98 2.685-1.933 1.861-2.899 4.081-2.899 6.658 0 2.649.967 4.868 2.899 6.658a10.935 10.935 0 0 0 4.512 2.577l.32-.859h.216v.967l17.504 90.208 2.147 11.383-2.147-11.383c-22.909-1.361-52.655 3.509-89.241 14.604a72.043 72.043 0 0 1-4.832 6.98c-14.463 18.613-38.948 33.22-73.456 43.816-14.103 4.367-28.206 7.589-42.31 9.665-12.315 1.718-26.383 3.041-42.205 3.973l-1.504.859c.501-.287 1.002-.574 1.504-.859-2.292.071-4.618.181-6.98.323-18.758 1.002-37.551-.608-56.38-4.833-17.899-4.011-41.954-16.36-72.167-37.05-26.704 7.731-48.576 15.106-65.615 22.122-25.272 10.595-47.932 23.769-67.978 39.519-4.94 8.808 12.564 12.925 52.513 12.35 77.178 4.082 149.416 6.123 216.713 6.123 67.226 0 138.142-2.041 212.74-6.123 68.801-.356 100.696-14.747 95.686-43.17 2.362-26.203-3.651-44.89-18.042-56.057l-1.288 3.865 1.288-3.865 26.954-83.121.968-3.115c.717.143 1.396.215 2.04.215 2.792 0 5.12-.895 6.98-2.685.787-.716 1.396-1.504 1.825-2.363.644-1.216.967-2.649.967-4.295 0-2.578-.932-4.833-2.792-6.766-1.86-1.79-4.188-2.685-6.98-2.685-2.72 0-5.011.895-6.873 2.685-1.575 1.575-2.505 3.401-2.792 5.477-.145.357-.216.788-.216 1.289 0 2.076.68 3.901 2.041 5.477l-1.074 3.114-29.103 81.724-1.396 3.759 1.396-3.759c-5.799-2.935-12.529-4.975-20.189-6.12l1.826 8.054-1.826-8.054-21.049-92.464-.214-1.289.214 1.289.754-.215 1.501-1.288c1.935-1.79 2.901-4.009 2.901-6.658 0-2.578-.967-4.797-2.901-6.658-1.932-1.789-4.258-2.684-6.98-2.684z"/><path fill="#C28363" d="M482.891 173.551c-18.685-24.915-42.24-41.704-70.662-50.367-30.142-9.164-55.7-6.909-76.677 6.766-44.96 28.995-57.776 62.644-38.446 100.947 6.659 13.173 16.466 25.486 29.424 36.941 10.525 9.38 18.687 14.892 24.486 16.538 17.11 4.797 35.439 4.296 54.983-1.504 19.545-5.869 31.358-15.643 35.439-29.316 3.58-12.744 2.434-25.738-3.436-38.983-6.157-13.602-15.536-22.766-28.137-27.491-11.813-4.511-23.626-5.405-35.438-2.685-16.539 3.723-25.559 14.892-27.063 33.506 1.504-18.614 10.524-29.783 27.063-33.506 11.813-2.72 23.625-1.826 35.438 2.685 12.601 4.726 21.979 13.889 28.137 27.491 5.87 13.245 7.016 26.239 3.436 38.983-4.081 13.674-15.894 23.447-35.439 29.316-19.544 5.8-37.873 6.301-54.983 1.504-5.799-1.646-13.96-7.158-24.486-16.538-12.958-11.455-22.766-23.769-29.424-36.941-19.33-38.304-6.515-71.952 38.446-100.947 20.977-13.675 46.535-15.929 76.677-6.766 28.422 8.663 51.977 25.452 70.662 50.367 18.76 24.771 24.021 53.372 15.787 85.805-8.232 31.787-34.329 61.749-78.287 89.885 15.822-.932 29.89-2.255 42.205-3.973 14.104-2.076 28.207-5.298 42.31-9.665 34.508-10.597 58.993-25.203 73.456-43.816a72.043 72.043 0 0 0 4.832-6.98c10.597-17.254 12.6-36.942 6.014-59.064-15.605-50.76-37.121-88.382-64.541-112.867-27.563-24.628-64.327-40.343-110.289-47.145-46.106-6.874-87.738 3.866-124.896 32.217-37.3 28.565-56.272 64.434-56.917 107.605-.788 43.171 15.071 76.139 47.575 98.907l4.725 3.222c30.213 20.689 54.268 33.039 72.167 37.05 18.829 4.225 37.622 5.835 56.38 4.833a237.1 237.1 0 0 1 6.98-.323c43.958-28.136 70.055-58.098 78.287-89.885 8.232-32.434 2.971-61.035-15.788-85.806z"/><g><path fill="none" stroke="#392D22" stroke-width="2" stroke-linecap="round" stroke-linejoin="round" d="M654.395 179.887a10.935 10.935 0 0 1-4.512-2.577c-1.933-1.79-2.899-4.009-2.899-6.658 0-2.578.967-4.797 2.899-6.658 1.934-1.791 4.262-2.685 6.98-2.685 2.722 0 5.048.895 6.979 2.685 1.935 1.861 2.901 4.081 2.901 6.658 0 2.649-.967 4.868-2.901 6.658l-1.501 1.288m-.753.215l21.049 92.464c7.66 1.146 14.391 3.186 20.189 6.12l29.103-81.724m-.751-9.88c.287-2.075 1.217-3.901 2.792-5.477 1.862-1.79 4.153-2.685 6.873-2.685 2.792 0 5.12.895 6.98 2.685 1.86 1.933 2.792 4.188 2.792 6.766 0 1.646-.323 3.079-.967 4.295m-11.813 7.948l-26.954 83.121c14.391 11.167 20.404 29.854 18.042 56.057 5.011 28.423-26.885 42.813-95.686 43.17-74.599 4.082-145.515 6.123-212.74 6.123-67.297 0-139.535-2.041-216.713-6.123-39.949.575-57.454-3.542-52.513-12.35 20.045-15.75 42.706-28.924 67.978-39.519 17.039-7.016 38.911-14.391 65.615-22.122m298.329-22.875c36.586-11.096 66.332-15.966 89.241-14.604l-17.504-90.208a1.766 1.766 0 0 0-.536-.108m.537-.86h-.216l.216.967m6.657-1.181l-.214-1.289m70.555 18.149l1.074-3.114c-1.361-1.575-2.041-3.4-2.041-5.477 0-.501.071-.932.216-1.289m7.625 10.417c.717.143 1.396.215 2.04.215 2.792 0 5.12-.895 6.98-2.685.787-.716 1.396-1.504 1.825-2.363m-75.066 90.208l-2.147-11.383m12.028 9.128l-1.826-8.054m18.793 9.879l1.396-3.759m6.767 8.915l1.288-3.865"/></g><g><path fill="none" stroke="#201A13" stroke-width="2" stroke-linecap="round" stroke-linejoin="round" d="M284.864 307.682l-4.725-3.222c-32.503-22.768-48.362-55.735-47.575-98.907.645-43.171 19.617-79.04 56.917-107.605 37.157-28.352 78.789-39.091 124.896-32.217 45.962 6.801 82.727 22.516 110.289 47.145 27.42 24.485 48.936 62.107 64.541 112.867 6.586 22.122 4.583 41.811-6.014 59.064m-162.802 64.434c43.958-28.136 70.055-58.098 78.287-89.885 8.233-32.434 2.973-61.034-15.787-85.805-18.685-24.915-42.24-41.704-70.662-50.367-30.142-9.164-55.7-6.909-76.677 6.766-44.96 28.995-57.776 62.644-38.446 100.947 6.659 13.173 16.466 25.486 29.424 36.941 10.525 9.38 18.687 14.892 24.486 16.538 17.11 4.797 35.439 4.296 54.983-1.504 19.545-5.869 31.358-15.643 35.439-29.316 3.58-12.744 2.434-25.738-3.436-38.983-6.157-13.602-15.536-22.766-28.137-27.491-11.813-4.511-23.626-5.405-35.438-2.685-16.539 3.723-25.559 14.892-27.063 33.506m235.829 66.904a72.043 72.043 0 0 1-4.832 6.98c-14.463 18.613-38.948 33.22-73.456 43.816-14.103 4.367-28.206 7.589-42.31 9.665-12.315 1.718-26.383 3.041-42.205 3.973l-1.504.859m1.505-.859c-2.292.071-4.618.181-6.98.323-18.758 1.002-37.551-.608-56.38-4.833-17.899-4.011-41.954-16.36-72.167-37.05"/></g></svg>