<?xml version="1.0" encoding="utf-8"?>
<!-- Generator: Adobe Illustrator 16.0.0, SVG Export Plug-In . SVG Version: 6.00 Build 0)  -->
<!DOCTYPE svg PUBLIC "-//W3C//DTD SVG 1.1//EN" "http://www.w3.org/Graphics/SVG/1.1/DTD/svg11.dtd">
<svg version="1.1" id="Layer_1" xmlns="http://www.w3.org/2000/svg" xmlns:xlink="http://www.w3.org/1999/xlink" x="0px" y="0px"
	 width="900px" height="450px" viewBox="0 0 900 450" enable-background="new 0 0 900 450" xml:space="preserve">
<g transform="matrix( 1, 0, 0, 1, 0,0) ">
	<g>
		<g id="Layer0_0_FILL">
			<path fill="#8E6C6D" d="M738.803,196.21l-0.968,3.115c0.645,0.143,1.324,0.214,2.041,0.214c2.721,0,5.013-0.895,6.874-2.685
				c1.575-1.503,2.54-3.329,2.898-5.477c-0.43,0.859-1.038,1.646-1.825,2.363c-1.86,1.79-4.188,2.685-6.98,2.685
				C740.199,196.425,739.52,196.353,738.803,196.21 M731.178,185.793c-0.786,1.218-1.181,2.649-1.181,4.295
				c0,2.148,0.644,4.009,1.932,5.584l1.074-3.114c-1.361-1.575-2.041-3.4-2.041-5.477
				C730.962,186.581,731.033,186.15,731.178,185.793z"/>
			<path fill="#987E7F" d="M656.863,161.308c-2.719,0-5.047,0.895-6.98,2.685c-1.933,1.861-2.899,4.081-2.899,6.658
				c0,2.649,0.967,4.868,2.899,6.658c1.289,1.217,2.793,2.076,4.512,2.577l0.32-0.859c0.071,0,0.143,0,0.216,0v0.967l17.504,90.208
				l2.147,11.383l-2.147-11.383c-22.909-1.361-52.655,3.509-89.241,14.604c-1.433,2.362-3.043,4.69-4.832,6.98
				c-14.463,18.613-38.948,33.22-73.456,43.816c-14.103,4.367-28.206,7.589-42.31,9.665c-12.315,1.718-26.383,3.041-42.205,3.973
				c-0.501,0.285-1.003,0.572-1.504,0.859c0.501-0.287,1.002-0.574,1.504-0.859c-2.292,0.071-4.618,0.181-6.98,0.323
				c-18.758,1.002-37.551-0.608-56.38-4.833c-17.899-4.011-41.954-16.36-72.167-37.05c-26.704,7.731-48.576,15.106-65.615,22.122
				c-25.272,10.595-47.932,23.769-67.978,39.519c-4.94,8.808,12.564,12.925,52.513,12.35c77.178,4.082,149.416,6.123,216.713,6.123
				c67.226,0,138.142-2.041,212.74-6.123c68.801-0.356,100.696-14.747,95.686-43.17c2.362-26.203-3.651-44.89-18.042-56.057
				l-1.288,3.865l1.288-3.865l26.954-83.121l0.968-3.115c0.717,0.143,1.396,0.215,2.04,0.215c2.792,0,5.12-0.895,6.98-2.685
				c0.787-0.716,1.396-1.504,1.825-2.363c0.644-1.216,0.967-2.649,0.967-4.295c0-2.578-0.932-4.833-2.792-6.766
				c-1.86-1.79-4.188-2.685-6.98-2.685c-2.72,0-5.011,0.895-6.873,2.685c-1.575,1.575-2.505,3.401-2.792,5.477
				c-0.145,0.357-0.216,0.788-0.216,1.289c0,2.076,0.68,3.901,2.041,5.477l-1.074,3.114l-29.103,81.724l-1.396,3.759l1.396-3.759
				c-5.799-2.935-12.529-4.975-20.189-6.12l1.826,8.054l-1.826-8.054l-21.049-92.464l-0.214-1.289l0.214,1.289l0.754-0.215
				c0.499-0.429,1.002-0.859,1.501-1.288c1.935-1.79,2.901-4.009,2.901-6.658c0-2.578-0.967-4.797-2.901-6.658
				C661.911,162.203,659.585,161.308,656.863,161.308z"/>
			<path fill="#C28363" d="M482.891,173.551c-18.685-24.915-42.24-41.704-70.662-50.367c-30.142-9.164-55.7-6.909-76.677,6.766
				c-44.96,28.995-57.776,62.644-38.446,100.947c6.659,13.173,16.466,25.486,29.424,36.941c10.525,9.38,18.687,14.892,24.486,16.538
				c17.11,4.797,35.439,4.296,54.983-1.504c19.545-5.869,31.358-15.643,35.439-29.316c3.58-12.744,2.434-25.738-3.436-38.983
				c-6.157-13.602-15.536-22.766-28.137-27.491c-11.813-4.511-23.626-5.405-35.438-2.685c-16.539,3.723-25.559,14.892-27.063,33.506
				c1.504-18.614,10.524-29.783,27.063-33.506c11.813-2.72,23.625-1.826,35.438,2.685c12.601,4.726,21.979,13.889,28.137,27.491
				c5.87,13.245,7.016,26.239,3.436,38.983c-4.081,13.674-15.894,23.447-35.439,29.316c-19.544,5.8-37.873,6.301-54.983,1.504
				c-5.799-1.646-13.96-7.158-24.486-16.538c-12.958-11.455-22.766-23.769-29.424-36.941c-19.33-38.304-6.515-71.952,38.446-100.947
				c20.977-13.675,46.535-15.929,76.677-6.766C440.651,131.847,464.206,148.636,482.891,173.551
				c18.76,24.771,24.021,53.372,15.787,85.805c-8.232,31.787-34.329,61.749-78.287,89.885c15.822-0.932,29.89-2.255,42.205-3.973
				c14.104-2.076,28.207-5.298,42.31-9.665c34.508-10.597,58.993-25.203,73.456-43.816c1.789-2.29,3.399-4.618,4.832-6.98
				c10.597-17.254,12.6-36.942,6.014-59.064c-15.605-50.76-37.121-88.382-64.541-112.867
				c-27.563-24.628-64.327-40.343-110.289-47.145c-46.106-6.874-87.738,3.866-124.896,32.217
				c-37.3,28.565-56.272,64.434-56.917,107.605c-0.788,43.171,15.071,76.139,47.575,98.907c1.574,1.074,3.149,2.148,4.725,3.222
				c30.213,20.689,54.268,33.039,72.167,37.05c18.829,4.225,37.622,5.835,56.38,4.833c2.363-0.143,4.688-0.252,6.98-0.323
				c43.958-28.136,70.055-58.098,78.287-89.885C506.911,226.923,501.65,198.322,482.891,173.551z"/>
		</g>
	</g>
	<g>
		<path id="Layer0_0_1_STROKES" fill="none" stroke="#392D22" stroke-width="2" stroke-linecap="round" stroke-linejoin="round" d="
			M654.395,179.887c-1.719-0.501-3.223-1.36-4.512-2.577c-1.933-1.79-2.899-4.009-2.899-6.658c0-2.578,0.967-4.797,2.899-6.658
			c1.934-1.791,4.262-2.685,6.98-2.685c2.722,0,5.048,0.895,6.979,2.685c1.935,1.861,2.901,4.081,2.901,6.658
			c0,2.649-0.967,4.868-2.901,6.658c-0.499,0.429-1.002,0.859-1.501,1.288 M661.588,178.813l21.049,92.464
			c7.66,1.146,14.391,3.186,20.189,6.12l29.103-81.724 M731.178,185.793c0.287-2.075,1.217-3.901,2.792-5.477
			c1.862-1.79,4.153-2.685,6.873-2.685c2.792,0,5.12,0.895,6.98,2.685c1.86,1.933,2.792,4.188,2.792,6.766
			c0,1.646-0.323,3.079-0.967,4.295 M737.835,199.325l-26.954,83.121c14.391,11.167,20.404,29.854,18.042,56.057
			c5.011,28.423-26.885,42.813-95.686,43.17c-74.599,4.082-145.515,6.123-212.74,6.123c-67.297,0-139.535-2.041-216.713-6.123
			c-39.949,0.575-57.454-3.542-52.513-12.35c20.045-15.75,42.706-28.924,67.978-39.519c17.039-7.016,38.911-14.391,65.615-22.122
			 M583.193,284.807c36.586-11.096,66.332-15.966,89.241-14.604l-17.504-90.208c-0.216-0.072-0.394-0.108-0.536-0.108
			 M654.931,179.027c-0.073,0-0.145,0-0.216,0l0.216,0.967 M661.588,178.813l-0.214-1.289 M731.929,195.673l1.074-3.114
			c-1.361-1.575-2.041-3.4-2.041-5.477c0-0.501,0.071-0.932,0.216-1.289 M738.803,196.21c0.717,0.143,1.396,0.215,2.04,0.215
			c2.792,0,5.12-0.895,6.98-2.685c0.787-0.716,1.396-1.504,1.825-2.363 M674.582,281.585l-2.147-11.383 M684.463,279.33
			l-1.826-8.054 M701.43,281.155l1.396-3.759 M709.593,286.311l1.288-3.865"/>
	</g>
	<g>
		<path id="Layer0_0_2_STROKES" fill="none" stroke="#201A13" stroke-width="2" stroke-linecap="round" stroke-linejoin="round" d="
			M284.864,307.682c-1.575-1.073-3.15-2.147-4.725-3.222c-32.503-22.768-48.362-55.735-47.575-98.907
			c0.645-43.171,19.617-79.04,56.917-107.605c37.157-28.352,78.789-39.091,124.896-32.217
			c45.962,6.801,82.727,22.516,110.289,47.145c27.42,24.485,48.936,62.107,64.541,112.867c6.586,22.122,4.583,41.811-6.014,59.064
			 M420.391,349.241c43.958-28.136,70.055-58.098,78.287-89.885c8.233-32.434,2.973-61.034-15.787-85.805
			c-18.685-24.915-42.24-41.704-70.662-50.367c-30.142-9.164-55.7-6.909-76.677,6.766c-44.96,28.995-57.776,62.644-38.446,100.947
			c6.659,13.173,16.466,25.486,29.424,36.941c10.525,9.38,18.687,14.892,24.486,16.538c17.11,4.797,35.439,4.296,54.983-1.504
			c19.545-5.869,31.358-15.643,35.439-29.316c3.58-12.744,2.434-25.738-3.436-38.983c-6.157-13.602-15.536-22.766-28.137-27.491
			c-11.813-4.511-23.626-5.405-35.438-2.685c-16.539,3.723-25.559,14.892-27.063,33.506 M583.193,284.807
			c-1.433,2.362-3.043,4.69-4.832,6.98c-14.463,18.613-38.948,33.22-73.456,43.816c-14.103,4.367-28.206,7.589-42.31,9.665
			c-12.315,1.718-26.383,3.041-42.205,3.973c-0.501,0.285-1.003,0.572-1.504,0.859 M420.391,349.241
			c-2.292,0.071-4.618,0.181-6.98,0.323c-18.758,1.002-37.551-0.608-56.38-4.833c-17.899-4.011-41.954-16.36-72.167-37.05"/>
	</g>
</g>
</svg>
