<svg xmlns="http://www.w3.org/2000/svg" viewBox="0 0 114.5 105.7"><path fill-rule="evenodd" d="M17.35 5.05q3.65-2.6 7-3.55 3.5-.95 6.15 0l1 1.9 1.9 3.2q-3.4.45-6.2 1.5-3 1.2-6 3.4l-3.85-6.45m18.9 7.15q2.2 6.1 5.8 12.85l6.05 11.8q4.9 9.9 8.8 15.25-4.2-.9-10.95-8.05Q38 35.7 24.4 16.8q4.25-2.85 10.25-4.25l1.6-.35m72.9 62.65q-1.6 2-4.4 2.95-2.75.95-16.3 7.75-13.6 6.75-26.7 15.85-1.95-4.45-4.2-7.95 12.4-9.15 24.95-16 14.6-8 22.25-8.75l2.35 3.35 2.05 2.8" fill="#efefef"/><path fill-rule="evenodd" d="M21.2 11.5q3-2.2 6-3.4 2.8-1.05 6.2-1.5.3.8 1.35 2.6l1.5 3-1.6.35q-6 1.4-10.25 4.25l-3.2-5.3m40.55 89.9q-12.3 8.45-20.8-4.65 10.25 1.65 16.6-3.3 2.25 3.5 4.2 7.95" fill="#689ef9"/><path fill-rule="evenodd" d="M98.35 48.15l3.15.1q2.25.5 4.85 2.25 6.1 3.95 6.85 13.3l.3.35q.15 3.2-1.25 5.95l-3.1 4.75-2.05-2.8-2.35-3.35-1.1-1.75q-.65-.75-1.55-2.25-1.95-4-2.95-8.65-.95-4.35-.8-7.9m-57.4 48.6L38.5 93.5q-1.05-1.5-2-4.2 4.95-3.6 7.15-4.75 3.7-1.8 6.65.3 3.65 2.7 7.25 8.6-6.35 4.95-16.6 3.3M7 30.15q-2.25-1.3-3.55-3.95 2.8-3.65 8.8-8.25l8.95-6.45 3.2 5.3-8.75 5.85q-5.9 4.2-8.65 7.5" fill="#6fafff"/><path stroke-linejoin="round" d="M33.4 6.6l-1.9-3.2-1-1.9q-2.65-.95-6.15 0-3.35.95-7 3.55m3.85 6.45q3-2.2 6-3.4 2.8-1.05 6.2-1.5.3.8 1.35 2.6l1.5 3q2.2 6.1 5.8 12.85l6.05 11.8q4.9 9.9 8.8 15.25 1.45 2.1 2.8 3.45 4.75 4.4 8.05 3.05 12.15-5.85 20.95-8.7 7.45-2.3 9.65-1.75l3.15.1q2.25.5 4.85 2.25 6.1 3.95 6.85 13.3m.3.35q.15 3.2-1.25 5.95l-3.1 4.75q-1.6 2-4.4 2.95-2.75.95-16.3 7.75-13.6 6.75-26.7 15.85-12.3 8.45-20.8-4.65L38.5 93.5q-1.05-1.5-2-4.2-.55-3.6 0-7.45.65-4.1.4-6.2-1-8.15-15.7-29.7-3.05-4.6-8.05-9.15-4.7-4.25-6.15-6.65-2.25-1.3-3.55-3.95l-2-2.85q-.6-1.1-.4-1.7 1.2-3.7 6.75-8.9 3.3-3 9.55-7.7m18.9 7.15l-1.6.35q-6 1.4-10.25 4.25l-8.75 5.85q-5.9 4.2-8.65 7.5M21.2 11.5l-8.95 6.45q-6 4.6-8.8 8.25m94.9 21.95q-.15 3.55.8 7.9 1 4.65 2.95 8.65.9 1.5 1.55 2.25l1.1 1.75 2.35 3.35 2.05 2.8m-51.6 18.6q2.25 3.5 4.2 7.95M36.5 89.3q4.95-3.6 7.15-4.75 3.7-1.8 6.65.3 3.65 2.7 7.25 8.6" stroke="#666" stroke-linecap="round" stroke-width="2" fill="none"/></svg>