<?xml version="1.0" encoding="UTF-8" standalone="no"?>
<svg id="svg4675" xmlns:inkscape="http://www.inkscape.org/namespaces/inkscape" xmlns:rdf="http://www.w3.org/1999/02/22-rdf-syntax-ns#" xmlns="http://www.w3.org/2000/svg" sodipodi:docname="sock.svg" viewBox="0 0 114.5 105.7" version="1.1" xmlns:cc="http://creativecommons.org/ns#" xmlns:dc="http://purl.org/dc/elements/1.1/" inkscape:version="0.48.2 r9819" xmlns:sodipodi="http://sodipodi.sourceforge.net/DTD/sodipodi-0.dtd">
 <metadata id="metadata4691">
  <rdf:RDF>
   <cc:Work rdf:about="">
    <dc:format>image/svg+xml</dc:format>
    <dc:type rdf:resource="http://purl.org/dc/dcmitype/StillImage"/>
    <dc:title/>
   </cc:Work>
  </rdf:RDF>
 </metadata>
 <sodipodi:namedview id="namedview4687" bordercolor="#666666" inkscape:pageshadow="2" guidetolerance="10" pagecolor="#ffffff" gridtolerance="10" inkscape:window-maximized="0" inkscape:zoom="2.2327342" objecttolerance="10" borderopacity="1" inkscape:current-layer="svg4675" inkscape:cx="57.25" inkscape:cy="52.849998" inkscape:window-y="0" inkscape:window-x="0" inkscape:window-width="640" showgrid="false" inkscape:pageopacity="0" inkscape:window-height="480"/>
 <g id="g4677" transform="matrix(1.0, 0.0, 0.0, 1.0, -2.6, 52.95)">
  <path id="path4679" stroke="none" fill-rule="evenodd" d="M19.95-47.9q3.65-2.6,7-3.55,3.5-0.95,6.15,0l1,1.9,1.9,3.2q-3.4,0.45-6.2,1.5-3,1.2-6,3.4l-3.85-6.45m18.9,7.15q2.2,6.1,5.8,12.85l6.05,11.8q4.9,9.9,8.8,15.25-4.2-0.9-10.95-8.05-7.95-8.35-21.55-27.25,4.25-2.85,10.25-4.25l1.6-0.35m72.9,62.65q-1.6,2-4.4,2.95-2.75,0.95-16.3,7.75-13.6,6.75-26.7,15.85-1.95-4.45-4.2-7.95,12.4-9.15,24.95-16,14.6-8,22.25-8.75l2.35,3.35,2.05,2.8" fill="#efefef"/>
  <path id="path4681" stroke="none" fill-rule="evenodd" d="M23.8-41.45q3-2.2,6-3.4,2.8-1.05,6.2-1.5,0.3,0.8,1.35,2.6l1.5,3-1.6,0.35q-6,1.4-10.25,4.25l-3.2-5.3m40.55,89.9q-12.3,8.45-20.8-4.65,10.25,1.65,16.6-3.3,2.25,3.5,4.2,7.95" fill="#689ef9"/>
  <path id="path4683" stroke="none" fill-rule="evenodd" d="M100.95-4.8l3.15,0.1q2.25,0.5,4.85,2.25,6.1,3.95,6.85,13.3l0.3,0.35q0.15,3.2-1.25,5.95l-3.1,4.75-2.05-2.8-2.35-3.35-1.1-1.75q-0.65-0.75-1.55-2.25-1.95-4-2.95-8.65-0.95-4.35-0.8-7.9m-57.4,48.6l-2.45-3.25q-1.05-1.5-2-4.2,4.95-3.6,7.15-4.75,3.7-1.8,6.65,0.3,3.65,2.7,7.25,8.6-6.35,4.95-16.6,3.3m-33.95-66.6q-2.25-1.3-3.55-3.95,2.8-3.65,8.8-8.25l8.95-6.45,3.2,5.3-8.75,5.85q-5.9,4.2-8.65,7.5" fill="#6fafff"/>
  <path id="path4685" stroke-linejoin="round" d="M36-46.35l-1.9-3.2-1-1.9q-2.65-0.95-6.15,0-3.35,0.95-7,3.55m3.85,6.45q3-2.2,6-3.4,2.8-1.05,6.2-1.5,0.3,0.8,1.35,2.6l1.5,3q2.2,6.1,5.8,12.85l6.05,11.8q4.9,9.9,8.8,15.25,1.45,2.1,2.8,3.45,4.75,4.4,8.05,3.05,12.15-5.85,20.95-8.7,7.45-2.3,9.65-1.75l3.15,0.1q2.25,0.5,4.85,2.25,6.1,3.95,6.85,13.3m0.3,0.35q0.15,3.2-1.25,5.95l-3.1,4.75q-1.6,2-4.4,2.95-2.75,0.95-16.3,7.75-13.6,6.75-26.7,15.85-12.3,8.45-20.8-4.65l-2.45-3.25q-1.05-1.5-2-4.2-0.55-3.6,0-7.45,0.65-4.1,0.4-6.2-1-8.15-15.7-29.7-3.05-4.6-8.05-9.15-4.7-4.25-6.15-6.65-2.25-1.3-3.55-3.95l-2-2.85q-0.6-1.1-0.4-1.7,1.2-3.7,6.75-8.9,3.3-3,9.55-7.7m18.9,7.15l-1.6,0.35q-6,1.4-10.25,4.25l-8.75,5.85q-5.9,4.2-8.65,7.5m14.2-18.65l-8.95,6.45q-6,4.6-8.8,8.25m94.9,21.95q-0.15,3.55,0.8,7.9,1,4.65,2.95,8.65,0.9,1.5,1.55,2.25l1.1,1.75,2.35,3.35,2.05,2.8m-51.6,18.6q2.25,3.5,4.2,7.95m-25.25-12.1q4.95-3.6,7.15-4.75,3.7-1.8,6.65,0.3,3.65,2.7,7.25,8.6" stroke="#666666" stroke-linecap="round" stroke-width="2.0" fill="none"/>
 </g>
</svg>
