<?xml version="1.0" encoding="utf-8"?>
<!-- Generator: Adobe Illustrator 16.0.0, SVG Export Plug-In . SVG Version: 6.00 Build 0)  -->
<!DOCTYPE svg PUBLIC "-//W3C//DTD SVG 1.1//EN" "http://www.w3.org/Graphics/SVG/1.1/DTD/svg11.dtd">
<svg version="1.1" id="Layer_1" xmlns="http://www.w3.org/2000/svg" xmlns:xlink="http://www.w3.org/1999/xlink" x="0px" y="0px"
	 width="285px" height="427px" viewBox="0 0 285 427" enable-background="new 0 0 285 427" xml:space="preserve">
<g transform="matrix( 1, 0, 0, 1, 0,0) ">
	<g>
		<g id="Layer0_0_FILL">
			
				<radialGradient id="SVGID_1_" cx="-493.1836" cy="291.4951" r="40.2079" gradientTransform="matrix(-0.7538 -0.6571 -1.127 1.2928 181.5042 -584.0587)" gradientUnits="userSpaceOnUse">
				<stop  offset="0" style="stop-color:#A4A4A4"/>
				<stop  offset="1" style="stop-color:#666666"/>
			</radialGradient>
			<path fill="url(#SVGID_1_)" d="M182.842,159.196c0.582,0.5,1.184,0.942,1.807,1.325c1.203,0.883,2.521,1.492,3.949,1.829
				c0.803,0.151,1.39,0.307,1.76,0.47l3.362-0.153c0.135,0.081,0.332,0.133,0.587,0.156c9.787,3.434,21.111,1.55,33.973-5.654
				c12.924-7.478,24.521-19.14,34.787-34.988c10.133-16.027,14.586-31.299,13.359-45.815c-1.074-12.882-6.571-21.837-16.491-26.865
				c-0.329-0.28-0.718-0.532-1.167-0.755c-0.487-0.205-0.907-0.417-1.256-0.639l-0.3,0.291c-11.088-3.2-23.671-1.197-37.75,6.007
				c-15.623,7.946-28.824,19.819-39.6,35.62c-10.56,15.746-15.524,29.85-14.896,42.313c0.602,10.479,4.773,18.146,12.516,23.001
				c0.758,0.464,1.546,0.889,2.365,1.276c-0.083,0.331,0.012,0.529,0.286,0.594c0.157,0.021,0.304,0.073,0.438,0.154
				c0.02,0.039,0.068,0.089,0.146,0.149c0.367,0.359,0.745,0.689,1.133,0.99c0.077,0.061,0.154,0.121,0.232,0.181
				C182.298,158.824,182.55,158.995,182.842,159.196z"/>
			
				<linearGradient id="SVGID_2_" gradientUnits="userSpaceOnUse" x1="36.3506" y1="144.6299" x2="75.8772" y2="72.4939" gradientTransform="matrix(0.9013 -0.4331 -0.4331 -0.9013 101.5434 390.5203)">
				<stop  offset="0" style="stop-color:#A4A4A4"/>
				<stop  offset="1" style="stop-color:#666666"/>
			</linearGradient>
			<path fill="url(#SVGID_2_)" d="M184.648,160.521c-0.623-0.383-1.225-0.825-1.807-1.325c-0.292-0.201-0.544-0.372-0.758-0.513
				c-0.078-0.06-0.155-0.12-0.232-0.181c-0.388-0.301-0.766-0.63-1.133-0.99c-0.078-0.061-0.127-0.11-0.146-0.149
				c-0.135-0.081-0.281-0.132-0.438-0.154c-0.274-0.064-0.369-0.263-0.286-0.594c-0.819-0.387-1.607-0.812-2.365-1.276
				c-18.852,25.869-40.269,53.8-64.253,83.791c-24.242,30.165-44.364,53.234-60.369,69.208c-16.025,16.033-27.07,25.75-33.134,29.15
				c-6.26,3.398-9.638,8.384-10.135,14.956c-0.258,6.459,1.49,12.075,5.245,16.85c2.817,3.324,6.282,5.872,10.399,7.646
				c0.47,0.164,0.879,0.308,1.231,0.431c0.407,0.34,0.894,0.595,1.461,0.761c3.957,1.947,8.596,2.982,13.918,3.105
				c7.087,0.249,13.073-1.945,17.959-6.582c4.865-4.579,7.841-10.858,8.929-18.836c0.95-7.962,7.443-21.217,19.481-39.767
				c11.92-18.592,27.648-42.595,47.185-72.008c19.113-28.869,37.434-55.945,54.958-81.226c-0.37-0.163-0.957-0.319-1.76-0.47
				C187.169,162.013,185.852,161.404,184.648,160.521z"/>
		</g>
	</g>
	<g>
		<path id="Layer0_0_1_STROKES" fill="none" stroke="#3C3C3C" stroke-width="3" stroke-linecap="round" stroke-linejoin="round" d="
			M177.482,155.339c-18.852,25.869-40.269,53.8-64.253,83.791c-24.242,30.165-44.364,53.234-60.369,69.208
			c-16.025,16.033-27.07,25.75-33.134,29.15c-6.26,3.398-9.638,8.384-10.135,14.956c-0.258,6.459,1.49,12.075,5.245,16.85
			c2.817,3.324,6.282,5.872,10.399,7.646c0.47,0.164,0.879,0.308,1.231,0.431c0.407,0.34,0.894,0.595,1.461,0.761
			c3.957,1.947,8.596,2.982,13.918,3.105c7.087,0.249,13.073-1.945,17.959-6.582c4.865-4.579,7.841-10.858,8.929-18.836
			c0.95-7.962,7.443-21.217,19.481-39.767c11.92-18.592,27.648-42.595,47.185-72.008c19.113-28.869,37.434-55.945,54.958-81.226
			l3.362-0.153c0.135,0.081,0.332,0.133,0.587,0.156c9.787,3.434,21.111,1.55,33.973-5.654c12.924-7.478,24.521-19.14,34.787-34.988
			c10.133-16.027,14.586-31.299,13.359-45.815c-1.074-12.882-6.571-21.837-16.491-26.865c-0.329-0.28-0.718-0.532-1.167-0.755
			c-0.487-0.205-0.907-0.417-1.256-0.639 M257.212,48.398c-11.088-3.2-23.671-1.197-37.75,6.007
			c-15.623,7.946-28.824,19.819-39.6,35.62c-10.56,15.746-15.524,29.85-14.896,42.313c0.602,10.479,4.773,18.146,12.516,23.001"/>
	</g>
</g>
</svg>
