<svg xmlns="http://www.w3.org/2000/svg" width="285" height="427" viewBox="0 0 285 427"><g><radialGradient id="a" cx="-493.184" cy="291.495" r="40.208" gradientTransform="matrix(-.7538 -.6571 -1.127 1.2928 181.504 -584.059)" gradientUnits="userSpaceOnUse"><stop offset="0" stop-color="#a4a4a4"/><stop offset="1" stop-color="#666"/></radialGradient><path fill="url(#a)" d="M182.842 159.196c.582.5 1.184.942 1.807 1.325a10.81 10.81 0 0 0 3.949 1.829c.803.151 1.39.307 1.76.47l3.362-.153c.135.081.332.133.587.156 9.787 3.434 21.111 1.55 33.973-5.654 12.924-7.478 24.521-19.14 34.787-34.988 10.133-16.027 14.586-31.299 13.359-45.815-1.074-12.882-6.571-21.837-16.491-26.865a5.71 5.71 0 0 0-1.167-.755 8.499 8.499 0 0 1-1.256-.639l-.3.291c-11.088-3.2-23.671-1.197-37.75 6.007-15.623 7.946-28.824 19.819-39.6 35.62-10.56 15.746-15.524 29.85-14.896 42.313.602 10.479 4.773 18.146 12.516 23.001.758.464 1.546.889 2.365 1.276-.083.331.012.529.286.594.157.021.304.073.438.154.02.039.068.089.146.149.367.359.745.689 1.133.99l.232.181c.216.141.468.312.76.513z"/><linearGradient id="b" gradientUnits="userSpaceOnUse" x1="36.351" y1="144.63" x2="75.877" y2="72.494" gradientTransform="scale(1 -1) rotate(25.666 907.979 27.623)"><stop offset="0" stop-color="#a4a4a4"/><stop offset="1" stop-color="#666"/></linearGradient><path fill="url(#b)" d="M184.648 160.521a14.132 14.132 0 0 1-1.807-1.325 46.457 46.457 0 0 0-.758-.513l-.232-.181c-.388-.301-.766-.63-1.133-.99a.525.525 0 0 1-.146-.149 1.153 1.153 0 0 0-.438-.154c-.274-.064-.369-.263-.286-.594a24.902 24.902 0 0 1-2.365-1.276c-18.852 25.869-40.269 53.8-64.253 83.791-24.242 30.165-44.364 53.234-60.369 69.208-16.025 16.033-27.07 25.75-33.134 29.15-6.26 3.398-9.638 8.384-10.135 14.956-.258 6.459 1.49 12.075 5.245 16.85 2.817 3.324 6.282 5.872 10.399 7.646l1.231.431c.407.34.894.595 1.461.761 3.957 1.947 8.596 2.982 13.918 3.105 7.087.249 13.073-1.945 17.959-6.582 4.865-4.579 7.841-10.858 8.929-18.836.95-7.962 7.443-21.217 19.481-39.767 11.92-18.592 27.648-42.595 47.185-72.008 19.113-28.869 37.434-55.945 54.958-81.226-.37-.163-.957-.319-1.76-.47a10.779 10.779 0 0 1-3.95-1.827z"/></g><path fill="none" stroke="#3C3C3C" stroke-width="3" stroke-linecap="round" stroke-linejoin="round" d="M177.482 155.339c-18.852 25.869-40.269 53.8-64.253 83.791-24.242 30.165-44.364 53.234-60.369 69.208-16.025 16.033-27.07 25.75-33.134 29.15-6.26 3.398-9.638 8.384-10.135 14.956-.258 6.459 1.49 12.075 5.245 16.85 2.817 3.324 6.282 5.872 10.399 7.646l1.231.431c.407.34.894.595 1.461.761 3.957 1.947 8.596 2.982 13.918 3.105 7.087.249 13.073-1.945 17.959-6.582 4.865-4.579 7.841-10.858 8.929-18.836.95-7.962 7.443-21.217 19.481-39.767 11.92-18.592 27.648-42.595 47.185-72.008 19.113-28.869 37.434-55.945 54.958-81.226l3.362-.153c.135.081.332.133.587.156 9.787 3.434 21.111 1.55 33.973-5.654 12.924-7.478 24.521-19.14 34.787-34.988 10.133-16.027 14.586-31.299 13.359-45.815-1.074-12.882-6.571-21.837-16.491-26.865a5.71 5.71 0 0 0-1.167-.755 8.499 8.499 0 0 1-1.256-.639m-.299.293c-11.088-3.2-23.671-1.197-37.75 6.007-15.623 7.946-28.824 19.819-39.6 35.62-10.56 15.746-15.524 29.85-14.896 42.313.602 10.479 4.773 18.146 12.516 23.001"/></svg>