<svg xmlns="http://www.w3.org/2000/svg" width="900" height="450" viewBox="0 0 900 450"><path fill="#C69768" d="M691.854 32.055c0-2.396-1.199-3.594-3.595-3.594H209.146l1.475 392.395 481.232.184V32.055m-89.206 25.526c.491-1.29 1.106-1.935 1.843-1.935.675 0 1.26.646 1.751 1.935.369.86.616 1.936.738 3.226h7.647c.063-1.29.277-2.365.646-3.226.489-1.29 1.074-1.935 1.749-1.935.738 0 1.321.646 1.752 1.935.552.86.891 1.936 1.013 3.226h7.65c.061-1.29.276-2.365.644-3.226.369-1.29.922-1.935 1.66-1.935.799 0 1.382.646 1.751 1.935.369.86.613 1.936.736 3.226h7.649c.062-1.29.277-2.365.645-3.226.493-1.29 1.076-1.935 1.751-1.935.738 0 1.352.646 1.843 1.935.492.86.8 1.936.922 3.226h7.649c.062-1.29.275-2.365.645-3.226.491-1.29 1.046-1.935 1.66-1.935.797 0 1.443.646 1.935 1.935.369 1.106.553 2.519.553 4.24 0 1.229-.092 2.334-.275 3.317a6.516 6.516 0 0 1 1.565.369c1.228.676 1.843 1.352 1.843 2.027 0 .553-.615 1.075-1.843 1.566-.738.369-1.565.614-2.487.738v7.925c.922.061 1.749.215 2.487.461 1.228.491 1.843 1.137 1.843 1.935 0 .615-.615 1.168-1.843 1.66a9.838 9.838 0 0 1-2.487.645v7.741c.922.123 1.749.338 2.487.646 1.228.614 1.843 1.259 1.843 1.935 0 .615-.615 1.137-1.843 1.567-.738.369-1.565.615-2.487.737v7.926a9.796 9.796 0 0 1 2.487.644c1.228.369 1.843.952 1.843 1.751 0 .615-.615 1.167-1.843 1.659a9.796 9.796 0 0 1-2.487.645v7.742a9.796 9.796 0 0 1 2.487.644c1.228.615 1.843 1.291 1.843 2.028 0 .553-.615 1.075-1.843 1.567a9.876 9.876 0 0 1-2.487.83v7.74c.922.124 1.749.338 2.487.646 1.228.491 1.843 1.044 1.843 1.659 0 .799-.615 1.382-1.843 1.751a9.88 9.88 0 0 1-2.487.646v7.925c.922.061 1.749.215 2.487.461 1.228.615 1.843 1.291 1.843 2.027 0 .553-.615 1.076-1.843 1.567a9.875 9.875 0 0 1-2.487.829v7.741c.922.123 1.749.337 2.487.645 1.228.492 1.843 1.044 1.843 1.659 0 .798-.615 1.443-1.843 1.935-.738.246-1.565.399-2.487.46v7.926a9.796 9.796 0 0 1 2.487.644c1.228.554 1.843 1.168 1.843 1.843 0 .553-.615 1.075-1.843 1.567a9.876 9.876 0 0 1-2.487.83v7.833c.922.123 1.749.307 2.487.553 1.228.491 1.843 1.106 1.843 1.843 0 .676-.615 1.26-1.843 1.751a9.88 9.88 0 0 1-2.487.646v7.74c.922.124 1.749.338 2.487.646 1.228.553 1.843 1.198 1.843 1.935 0 .615-.615 1.106-1.843 1.475a8.035 8.035 0 0 1-2.487.922v7.74c.922.124 1.749.338 2.487.646 1.228.43 1.843 1.014 1.843 1.751 0 .737-.615 1.32-1.843 1.75-.738.308-1.565.523-2.487.646v7.741a9.754 9.754 0 0 1 2.487.645c1.228.553 1.843 1.198 1.843 1.935 0 .553-.615 1.106-1.843 1.659-.738.369-1.565.615-2.487.737v7.741a9.88 9.88 0 0 1 2.487.645c1.228.493 1.843 1.076 1.843 1.751 0 .738-.615 1.353-1.843 1.844-.738.246-1.565.43-2.487.553v7.833c.922.122 1.749.308 2.487.554 1.228.614 1.843 1.261 1.843 1.936 0 .553-.615 1.104-1.843 1.657a7.805 7.805 0 0 1-2.487.738v7.833c.922.122 1.749.306 2.487.553 1.228.491 1.843 1.106 1.843 1.843 0 .675-.615 1.26-1.843 1.752a9.88 9.88 0 0 1-2.487.644v7.742c.922.124 1.749.338 2.487.646 1.228.553 1.843 1.167 1.843 1.844 0 .675-.615 1.196-1.843 1.565a10.66 10.66 0 0 1-1.935.738c0 .061.03.122.092.184.369 1.228.553 2.703.553 4.424 0 1.657-.184 3.164-.553 4.515-.491 1.043-1.138 1.567-1.935 1.567-.614 0-1.169-.524-1.66-1.567a13.015 13.015 0 0 1-.645-2.766h-7.741a13.15 13.15 0 0 1-.83 2.766c-.491 1.043-1.104 1.567-1.843 1.567-.675 0-1.258-.524-1.751-1.567a13.077 13.077 0 0 1-.645-2.766h-7.741a12.983 12.983 0 0 1-.645 2.766c-.369 1.043-.952 1.567-1.751 1.567-.738 0-1.291-.524-1.66-1.567a13.076 13.076 0 0 1-.644-2.766h-7.742a10.48 10.48 0 0 1-.921 2.766c-.431 1.043-1.014 1.567-1.752 1.567-.675 0-1.26-.524-1.749-1.567a13.016 13.016 0 0 1-.646-2.766h-7.741a12.983 12.983 0 0 1-.645 2.766c-.491 1.043-1.076 1.567-1.751 1.567-.736 0-1.352-.524-1.843-1.567a13.024 13.024 0 0 1-.461-2.766h-7.925a10.208 10.208 0 0 1-.738 2.766c-.489 1.043-1.074 1.567-1.75 1.567-.737 0-1.32-.524-1.751-1.567a12.955 12.955 0 0 1-.646-2.766h-7.833a18.145 18.145 0 0 1-.553 2.766c-.491 1.043-1.104 1.567-1.843 1.567-.675 0-1.258-.524-1.751-1.567a13.015 13.015 0 0 1-.645-2.766h-7.741a10.243 10.243 0 0 1-.736 2.766c-.493 1.043-1.076 1.567-1.751 1.567-.676 0-1.291-.524-1.844-1.567a18.34 18.34 0 0 1-.553-2.766h-7.833a12.924 12.924 0 0 1-.646 2.766c-.431 1.043-1.014 1.567-1.752 1.567-.675 0-1.26-.524-1.749-1.567a13.016 13.016 0 0 1-.646-2.766h-7.741a10.17 10.17 0 0 1-.736 2.766c-.491 1.043-1.106 1.567-1.843 1.567-.614 0-1.199-.524-1.751-1.567a13.015 13.015 0 0 1-.645-2.766h-7.741a13.168 13.168 0 0 1-.646 2.766c-.489 1.043-1.074 1.567-1.75 1.567-.737 0-1.32-.524-1.751-1.567a12.955 12.955 0 0 1-.646-2.766h-7.833a10.205 10.205 0 0 1-.735 2.766c-.431 1.043-1.014 1.567-1.752 1.567-.615 0-1.198-.524-1.751-1.567a12.955 12.955 0 0 1-.645-2.766h-7.741a13.106 13.106 0 0 1-.645 2.766c-.493 1.043-1.076 1.567-1.751 1.567-.738 0-1.353-.524-1.844-1.567a18.22 18.22 0 0 1-.552-2.766h-7.834a10.171 10.171 0 0 1-.737 2.766c-.491 1.043-1.076 1.567-1.752 1.567-.552 0-1.168-.524-1.843-1.567-.308-.983-.491-2.058-.553-3.226-.244-.307-.369-.736-.369-1.289v-4.424c-1.412-.062-2.64-.369-3.686-.922-1.168-.369-1.752-.891-1.752-1.565 0-.677.584-1.291 1.752-1.844 1.046-.432 2.273-.677 3.686-.737v-7.557c-1.412-.061-2.64-.308-3.686-.737-1.168-.492-1.752-1.077-1.752-1.752 0-.736.584-1.352 1.752-1.843 1.046-.369 2.273-.583 3.686-.645v-7.649c-1.412-.062-2.64-.337-3.686-.83-1.168-.553-1.752-1.104-1.752-1.657 0-.675.584-1.321 1.752-1.936 1.046-.368 2.273-.583 3.686-.646v-7.648c-1.412-.061-2.64-.276-3.686-.646-1.168-.491-1.752-1.105-1.752-1.844 0-.675.584-1.258 1.752-1.751 1.046-.429 2.273-.675 3.686-.736v-7.557c-1.412-.062-2.64-.338-3.686-.83-1.168-.553-1.752-1.106-1.752-1.659 0-.737.584-1.382 1.752-1.935 1.046-.43 2.273-.676 3.686-.738v-7.556c-1.412-.062-2.64-.308-3.686-.738-1.168-.43-1.752-1.013-1.752-1.75 0-.737.584-1.321 1.752-1.751 1.046-.43 2.273-.676 3.686-.737v-7.557c-1.412-.062-2.64-.399-3.686-1.014-1.168-.369-1.752-.86-1.752-1.475 0-.737.584-1.382 1.752-1.935 1.046-.43 2.273-.676 3.686-.737v-7.557c-1.412-.061-2.64-.307-3.686-.737-1.168-.491-1.752-1.075-1.752-1.751 0-.737.584-1.352 1.752-1.843 1.046-.368 2.273-.583 3.686-.645v-7.649c-1.412-.061-2.64-.368-3.686-.921-1.168-.492-1.752-1.014-1.752-1.567 0-.675.584-1.29 1.752-1.843 1.046-.43 2.273-.675 3.686-.737v-7.741c-1.412-.062-2.64-.247-3.686-.553-1.168-.492-1.752-1.137-1.752-1.935 0-.615.584-1.167 1.752-1.659 1.046-.43 2.273-.676 3.686-.738v-7.556c-1.412-.062-2.64-.369-3.686-.921-1.168-.491-1.752-1.014-1.752-1.567 0-.737.584-1.413 1.752-2.027 1.046-.307 2.273-.492 3.686-.553v-7.741c-1.412-.061-2.64-.307-3.686-.737-1.168-.369-1.752-.952-1.752-1.751 0-.615.584-1.167 1.752-1.659 1.046-.43 2.273-.676 3.686-.737v-7.557c-1.412-.061-2.64-.369-3.686-.921-1.168-.492-1.752-1.014-1.752-1.567 0-.737.584-1.413 1.752-2.028 1.046-.43 2.273-.675 3.686-.737v-7.557c-1.412-.061-2.64-.307-3.686-.737-1.168-.491-1.752-1.044-1.752-1.659 0-.799.584-1.382 1.752-1.751 1.046-.43 2.273-.675 3.686-.737v-7.741c-1.412-.062-2.64-.338-3.686-.83-1.168-.43-1.752-.952-1.752-1.567 0-.676.584-1.32 1.752-1.935 1.046-.43 2.273-.676 3.686-.737V82.56c-1.412-.063-2.64-.307-3.686-.737-1.168-.491-1.752-1.045-1.752-1.66 0-.798.584-1.443 1.752-1.935 1.046-.307 2.273-.492 3.686-.553V69.93c-1.412-.061-2.64-.338-3.686-.83-1.168-.492-1.752-1.014-1.752-1.566 0-.676.584-1.352 1.752-2.027 1.046-.369 2.273-.584 3.686-.645v-2.396c0-.492.092-.86.277-1.106.062-1.536.275-2.795.645-3.779.675-1.29 1.291-1.935 1.843-1.935.676 0 1.261.646 1.752 1.935.43.86.705 1.936.829 3.226h7.742c0-1.29.184-2.365.552-3.226.491-1.29 1.105-1.935 1.844-1.935.675 0 1.258.646 1.751 1.935.367.86.613 1.936.736 3.226h7.649c.062-1.29.275-2.365.645-3.226.553-1.29 1.136-1.935 1.751-1.935.738 0 1.321.646 1.752 1.935.43.86.707 1.936.829 3.226h7.739c.062-1.29.277-2.365.646-3.226.431-1.29 1.014-1.935 1.751-1.935.676 0 1.261.646 1.75 1.935.369.86.615 1.936.738 3.226h7.649c.061-1.29.275-2.365.645-3.226.552-1.29 1.137-1.935 1.751-1.935.736 0 1.352.646 1.843 1.935.431.86.708 1.936.83 3.226h7.647c.063-1.29.277-2.365.646-3.226.489-1.29 1.074-1.935 1.749-1.935.738 0 1.321.646 1.752 1.935.369.86.613 1.936.737 3.226h7.741c0-1.29.184-2.365.553-3.226.553-1.29 1.168-1.935 1.844-1.935.675 0 1.258.646 1.751 1.935.429.86.706 1.936.828 3.226h7.649c.062-1.29.277-2.365.645-3.226.493-1.29 1.076-1.935 1.751-1.935.738 0 1.352.646 1.843 1.935.369.86.586 1.936.646 3.226h7.739c.062-1.29.277-2.365.646-3.226.431-1.29 1.014-1.935 1.751-1.935.676 0 1.261.646 1.75 1.935.432.86.707 1.936.83 3.226h7.833c.006-1.29.158-2.366.466-3.226z"/><path fill="#EDECFF" d="M556.294 278.383h-4.793c.124.983.339 1.904.646 2.766.489 1.043 1.074 1.567 1.749 1.567.738 0 1.321-.524 1.752-1.567.308-.862.524-1.783.646-2.766m-17.509 0c.122.983.338 1.904.645 2.766.552 1.043 1.137 1.567 1.751 1.567.736 0 1.352-.524 1.843-1.567a10.15 10.15 0 0 0 .736-2.766h-4.975m-7.741 0h-4.794c.123.983.339 1.904.646 2.766.431 1.043 1.014 1.567 1.751 1.567.676 0 1.261-.524 1.75-1.567.308-.862.522-1.783.647-2.766m-15.114 4.333c.738 0 1.321-.524 1.752-1.567.368-.861.613-1.782.735-2.766h-4.883c.122.983.337 1.904.645 2.766.552 1.042 1.135 1.567 1.751 1.567m-14.376-1.568c.491 1.043 1.105 1.567 1.844 1.567.675 0 1.258-.524 1.751-1.567.306-.861.521-1.782.645-2.766h-4.791a18.1 18.1 0 0 0 .551 2.766m-9.123 0c.369-.861.615-1.782.737-2.766h-3.779c-.553 0-.922-.152-1.105-.46.062 1.168.245 2.242.553 3.226.675 1.043 1.291 1.567 1.843 1.567.674.001 1.259-.524 1.751-1.567m139.706-2.765h-4.699c.122.983.338 1.904.644 2.766.369 1.043.922 1.567 1.66 1.567.799 0 1.382-.524 1.751-1.567.307-.862.521-1.783.644-2.766m-17.51 0c.124.983.339 1.904.646 2.766.489 1.043 1.074 1.567 1.749 1.567.738 0 1.321-.524 1.752-1.567.43-.861.737-1.782.921-2.766h-5.068m-7.741 0h-4.699c.063.983.214 1.904.461 2.766.491 1.043 1.106 1.567 1.843 1.567.675 0 1.26-.524 1.751-1.567.306-.862.522-1.783.644-2.766m-12.624 0h-4.886c.123.983.339 1.904.646 2.766.431 1.043 1.014 1.567 1.751 1.567.676 0 1.261-.524 1.75-1.567.37-.862.616-1.783.739-2.766m-16.866 2.765c.493 1.043 1.076 1.567 1.751 1.567.738 0 1.352-.524 1.843-1.567.247-.861.431-1.782.553-2.766h-4.791c.122.984.338 1.905.644 2.766m-8.385-2.765h-4.884c.123.983.307 1.904.553 2.766.553 1.043 1.168 1.567 1.844 1.567.675 0 1.258-.524 1.751-1.567.367-.862.614-1.783.736-2.766m89.759-10.504c-.738-.308-1.565-.521-2.487-.646v3.871c.184.245.367.553.553.922a10.838 10.838 0 0 0 1.935-.738c1.228-.369 1.843-.891 1.843-1.565-.002-.677-.617-1.291-1.844-1.844m-14.654 13.269c.369-.861.646-1.782.83-2.766h-5.068c.122.983.339 1.904.645 2.766.493 1.043 1.076 1.567 1.751 1.567.738.001 1.351-.524 1.842-1.567m8.572-2.765c.123.983.337 1.904.645 2.766.491 1.043 1.046 1.567 1.66 1.567.797 0 1.443-.524 1.935-1.567.369-1.351.553-2.857.553-4.515 0-1.721-.184-3.196-.553-4.424-.062-.062-.092-.123-.092-.184a6.185 6.185 0 0 0-.553-.922v5.529c0 1.166-.555 1.749-1.659 1.749h-1.936m6.082-23.129a13.363 13.363 0 0 0-2.487-.553v4.791a9.838 9.838 0 0 0 2.487-.644c1.228-.492 1.843-1.077 1.843-1.752-.001-.736-.616-1.351-1.843-1.842m-2.488-8.386a7.805 7.805 0 0 0 2.487-.738c1.228-.553 1.843-1.104 1.843-1.657 0-.675-.615-1.321-1.843-1.936a13.441 13.441 0 0 0-2.487-.554v4.885m0-17.51v4.792a13.525 13.525 0 0 0 2.487-.553c1.228-.491 1.843-1.105 1.843-1.844 0-.675-.615-1.258-1.843-1.751a9.923 9.923 0 0 0-2.487-.644m2.488-24.605a9.88 9.88 0 0 0-2.487-.646v4.792c.922-.123 1.749-.338 2.487-.646 1.228-.43 1.843-1.013 1.843-1.75-.001-.735-.616-1.319-1.843-1.75m0 12.534a9.754 9.754 0 0 0-2.487-.645v4.976c.922-.122 1.749-.368 2.487-.737 1.228-.553 1.843-1.106 1.843-1.659-.001-.738-.616-1.383-1.843-1.935m-174.541 25.25c-1.168.614-1.752 1.261-1.752 1.936 0 .553.584 1.104 1.752 1.657 1.046.493 2.273.769 3.686.83v-5.068c-1.413.062-2.641.277-3.686.645m0 25.343c-1.168.553-1.752 1.167-1.752 1.844 0 .675.584 1.196 1.752 1.565 1.046.553 2.273.86 3.686.922v-5.068c-1.413.06-2.641.305-3.686.737m0-12.626c-1.168.491-1.752 1.106-1.752 1.843 0 .675.584 1.26 1.752 1.752 1.046.43 2.273.677 3.686.737v-4.977c-1.413.062-2.641.276-3.686.645m0-37.967c-1.168.553-1.752 1.198-1.752 1.935 0 .553.584 1.106 1.752 1.659 1.046.491 2.273.768 3.686.83v-5.161c-1.413.061-2.641.306-3.686.737m0-12.534c-1.168.43-1.752 1.014-1.752 1.751 0 .737.584 1.32 1.752 1.75 1.046.43 2.273.676 3.686.738v-4.977c-1.413.062-2.641.308-3.686.738m-1.752 27.001c0 .738.584 1.353 1.752 1.844 1.046.369 2.273.585 3.686.646v-4.977c-1.412.062-2.64.308-3.686.736-1.168.493-1.752 1.076-1.752 1.751m0-37.783c0 .615.584 1.106 1.752 1.475 1.046.615 2.273.952 3.686 1.014v-5.161c-1.412.062-2.64.307-3.686.737-1.168.553-1.752 1.198-1.752 1.935m176.293-1.935a9.88 9.88 0 0 0-2.487-.646v4.977a8.035 8.035 0 0 0 2.487-.922c1.228-.369 1.843-.86 1.843-1.475-.001-.736-.616-1.381-1.843-1.934m-2.488-8.386c.922-.124 1.749-.338 2.487-.646 1.228-.491 1.843-1.075 1.843-1.751 0-.737-.615-1.352-1.843-1.843a13.525 13.525 0 0 0-2.487-.553v4.793m0-12.625a9.876 9.876 0 0 0 2.487-.83c1.228-.492 1.843-1.014 1.843-1.567 0-.675-.615-1.29-1.843-1.843a9.796 9.796 0 0 0-2.487-.644v4.884m0-12.81c.922-.061 1.749-.215 2.487-.46 1.228-.492 1.843-1.137 1.843-1.935 0-.615-.615-1.167-1.843-1.659-.738-.308-1.565-.522-2.487-.645v4.699m0-17.325v4.884a9.915 9.915 0 0 0 2.487-.829c1.228-.491 1.843-1.014 1.843-1.567 0-.737-.615-1.413-1.843-2.027-.738-.246-1.565-.4-2.487-.461m2.488-11.98a9.88 9.88 0 0 0-2.487-.646v4.701c.922-.124 1.749-.338 2.487-.646 1.228-.369 1.843-.952 1.843-1.751-.001-.614-.616-1.167-1.843-1.658m0-12.81a9.796 9.796 0 0 0-2.487-.644v5.068a9.876 9.876 0 0 0 2.487-.83c1.228-.492 1.843-1.014 1.843-1.567-.001-.736-.616-1.412-1.843-2.027m0-12.441a9.796 9.796 0 0 0-2.487-.644v4.699a9.796 9.796 0 0 0 2.487-.645c1.228-.491 1.843-1.044 1.843-1.659-.001-.799-.616-1.382-1.843-1.751m0-12.808a9.837 9.837 0 0 0-2.487-.646v4.884c.922-.123 1.749-.368 2.487-.737 1.228-.43 1.843-.952 1.843-1.567-.001-.676-.616-1.32-1.843-1.934m1.842-10.691c0-.798-.615-1.443-1.843-1.935-.738-.246-1.565-.4-2.487-.461v4.7c.922-.123 1.749-.337 2.487-.645 1.228-.491 1.843-1.045 1.843-1.659m-4.33-12.809v2.488c.922-.124 1.749-.369 2.487-.738 1.228-.492 1.843-1.014 1.843-1.566 0-.676-.615-1.352-1.843-2.027a6.433 6.433 0 0 0-1.565-.369 8.805 8.805 0 0 1-.277 1.015c-.184.491-.4.89-.645 1.197m.645-9.769c-.491-1.29-1.138-1.935-1.935-1.935-.614 0-1.169.646-1.66 1.935-.369.86-.583 1.936-.645 3.226h1.936c1.104 0 1.659.553 1.659 1.659v4.884c.245-.307.461-.707.645-1.198.122-.369.216-.707.277-1.015.184-.982.275-2.088.275-3.317 0-1.72-.183-3.133-.552-4.239m-12.811 0c-.491-1.29-1.104-1.935-1.843-1.935-.675 0-1.258.646-1.751 1.935-.367.86-.583 1.936-.645 3.226h5.16c-.121-1.29-.429-2.366-.921-3.226m-156.202 50.224v-4.884c-1.412.062-2.64.307-3.686.737-1.168.369-1.752.952-1.752 1.751 0 .615.584 1.167 1.752 1.659 1.046.431 2.274.676 3.686.737m0 75.936v-4.977c-1.412.062-2.64.277-3.686.645-1.168.491-1.752 1.106-1.752 1.843 0 .676.584 1.26 1.752 1.751 1.046.431 2.274.677 3.686.738m0-12.625v-5.068c-1.412.062-2.64.307-3.686.737-1.168.554-1.752 1.168-1.752 1.843 0 .553.584 1.075 1.752 1.567 1.046.553 2.274.86 3.686.921m0-12.809v-4.885c-1.412.062-2.64.308-3.686.738-1.168.492-1.752 1.044-1.752 1.659 0 .798.584 1.443 1.752 1.935 1.046.306 2.274.491 3.686.553m0-25.251v-4.884c-1.412.062-2.64.307-3.686.737-1.168.491-1.752 1.044-1.752 1.659 0 .799.584 1.382 1.752 1.751 1.046.43 2.274.676 3.686.737m0 12.81v-5.068c-1.412.061-2.64.246-3.686.553-1.168.615-1.752 1.291-1.752 2.027 0 .553.584 1.076 1.752 1.567 1.046.552 2.274.859 3.686.921m0-25.251v-5.253c-1.412.062-2.64.307-3.686.737-1.168.615-1.752 1.291-1.752 2.028 0 .553.584 1.075 1.752 1.567 1.046.552 2.274.86 3.686.921m0-38.059v-4.884c-1.412.061-2.64.246-3.686.553-1.168.491-1.752 1.137-1.752 1.935 0 .615.584 1.168 1.752 1.66 1.046.429 2.274.673 3.686.736m0 12.625v-5.068c-1.412.061-2.64.307-3.686.737-1.168.614-1.752 1.259-1.752 1.935 0 .615.584 1.137 1.752 1.567 1.046.49 2.274.767 3.686.829m0-25.251v-5.068c-1.412.061-2.64.276-3.686.645-1.168.676-1.752 1.352-1.752 2.027 0 .553.584 1.075 1.752 1.566 1.046.492 2.274.769 3.686.83m2.765-14.284c-.552 0-1.168.646-1.843 1.935-.369.983-.583 2.243-.645 3.779.247-.369.645-.553 1.197-.553h3.871c-.124-1.29-.399-2.365-.829-3.226-.491-1.289-1.076-1.935-1.751-1.935m25.251 0c-.615 0-1.198.646-1.751 1.935-.369.86-.583 1.936-.645 3.226h4.977c-.122-1.29-.399-2.365-.829-3.226-.431-1.289-1.014-1.935-1.752-1.935m-10.782 1.935c-.493-1.29-1.076-1.935-1.751-1.935-.738 0-1.353.646-1.844 1.935-.368.86-.552 1.936-.552 3.226h4.883c-.122-1.29-.368-2.366-.736-3.226m50.5 0c-.431-1.29-1.014-1.935-1.752-1.935-.675 0-1.26.646-1.749 1.935-.369.86-.583 1.936-.646 3.226h4.885c-.124-1.29-.368-2.366-.738-3.226m-14.467-1.935c-.614 0-1.199.646-1.751 1.935-.369.86-.584 1.936-.645 3.226h5.068c-.122-1.29-.399-2.365-.83-3.226-.491-1.289-1.106-1.935-1.842-1.935m-12.534 0c-.737 0-1.32.646-1.751 1.935-.369.86-.585 1.936-.646 3.226h4.886c-.123-1.29-.369-2.365-.738-3.226-.49-1.289-1.075-1.935-1.751-1.935m39.627 1.935c-.493-1.29-1.076-1.935-1.751-1.935-.676 0-1.291.646-1.844 1.935-.369.86-.553 1.936-.553 3.226h4.976c-.122-1.29-.399-2.366-.828-3.226m23.499-1.935c-.737 0-1.32.646-1.751 1.935-.369.86-.585 1.936-.646 3.226h4.978c-.123-1.29-.398-2.365-.83-3.226-.49-1.289-1.075-1.935-1.751-1.935m-10.783 1.935c-.491-1.29-1.104-1.935-1.843-1.935-.675 0-1.258.646-1.751 1.935-.367.86-.583 1.936-.645 3.226h4.885c-.06-1.29-.277-2.366-.646-3.226m50.502 0c-.369-1.29-.952-1.935-1.751-1.935-.738 0-1.291.646-1.66 1.935-.367.86-.583 1.936-.644 3.226h4.791c-.123-1.29-.367-2.366-.736-3.226m-14.47-1.935c-.675 0-1.26.646-1.749 1.935-.369.86-.583 1.936-.646 3.226h5.16c-.122-1.29-.461-2.365-1.013-3.226-.43-1.289-1.013-1.935-1.752-1.935m-12.532 0c-.736 0-1.352.646-1.843 1.935-.309.86-.461 1.936-.461 3.226h4.793c-.122-1.29-.369-2.365-.738-3.226-.491-1.289-1.076-1.935-1.751-1.935z"/><path fill="#F5F4FF" d="M594.354 60.807H489.39c-.553 0-.95.184-1.197.553-.186.246-.277.614-.277 1.106v214.169c0 .553.125.982.369 1.289.184.308.553.46 1.105.46H654.623c1.104 0 1.659-.583 1.659-1.749V62.466c0-1.106-.555-1.659-1.659-1.659H594.354m-3.041 9.4c.552-.676 1.166-.922 1.843-.737.799.061 1.411.522 1.843 1.382.429.983.522 1.997.275 3.041-.122 1.045-.553 1.874-1.29 2.488a2.442 2.442 0 0 0-.828.553c.553.308.95.738 1.197 1.291a7.286 7.286 0 0 1 .368 3.962c-.244 1.413-.767 2.549-1.565 3.41-.247.246-.461.4-.646.461a203.95 203.95 0 0 0 8.663 2.396v-.644c0-.86.216-1.567.645-2.121.555-.552 1.198-.829 1.937-.829.799 0 1.383.276 1.75.829.615.554.921 1.26.921 2.121 0 .982-.461 1.874-1.382 2.672h.094c2.332.369 4.514.707 6.542 1.014.491-.43 1.044-.83 1.658-1.199.493-.368 1.015-.553 1.567-.553-.246-.307-.369-.614-.369-.921-.244-.86-.122-1.813.369-2.856.491-.983 1.168-1.69 2.026-2.12.8-.492 1.536-.583 2.213-.276.737.246 1.137.83 1.198 1.751.245.982.122 2.027-.369 3.132a3.391 3.391 0 0 1-1.843 1.843c-.247.247-.523.43-.83.554.307.368.522.921.645 1.658v.276c.122 1.045-.092 2.182-.645 3.41a5.422 5.422 0 0 1-1.013 1.751c1.352.246 2.673.492 3.961.737.308-.185.583-.276.83-.276.613 0 1.168.246 1.659.737 2.702.614 5.438 1.29 8.202 2.027 0-.43.153-.799.461-1.106.553-.737 1.197-1.198 1.935-1.382.675-.185 1.319-.031 1.936.461.368.368.552.921.552 1.658 0 .553-.122 1.014-.368 1.382a2.868 2.868 0 0 1-.553.737c-.614.615-1.259 1.045-1.935 1.291h-.83c.186.43.214.952.092 1.567 0 1.044-.399 1.965-1.197 2.765-.86.921-1.689 1.504-2.489 1.75-1.044.369-1.872.246-2.487-.368 1.413 1.72 2.92 3.624 4.516 5.713.062-.492.184-.86.369-1.105.553-.553 1.228-.83 2.027-.83.615 0 1.198.276 1.751.83.491.553.736 1.259.736 2.12 0 .982-.245 1.75-.736 2.304h-1.383v.185l.275 2.765v.921c.86-.921 1.782-1.475 2.765-1.659.493-.123.893-.153 1.199-.092-.184-.307-.184-.583 0-.83 0-.737.277-1.443.83-2.119.613-.737 1.29-1.229 2.026-1.474.675-.124 1.26.061 1.751.552.553.369.799.891.738 1.567a7.099 7.099 0 0 1-.922 2.212c-.615.614-1.26 1.074-1.937 1.382h-.828c.245.307.275.737.092 1.29 0 1.106-.43 2.058-1.29 2.857-.8.982-1.66 1.596-2.581 1.843-.49.123-.983.184-1.475.184l.369 3.687a83.838 83.838 0 0 0 2.12 5.806l-2.212 8.938c.675 1.782 1.014 3.84 1.014 6.174 5.773 4.301 6.881 10.168 3.317 17.602 1.905 8.232 1.045 14.837-2.58 19.813-.86 6.573-3.809 11.181-8.848 13.823-1.475 4.669-4.423 7.894-8.847 9.676-5.222 1.474-8.785 1.596-10.689.368h-.092l1.565-3.133c-.736 0-1.443-.215-2.118-.646a.8.8 0 0 1-.369-.093c2.273 12.472 5.467 22.608 9.585 30.411 4.669 8.602 11.794 16.342 21.379 23.225 5.59.306 8.6.583 9.031.827-.432-.244-3.441-.521-9.031-.827-19.536 6.634-36.218 9.951-50.041 9.951s-25.281-3.317-34.372-9.951c.184-6.39.184-10.814 0-13.271-.186-3.993-1.169-7.618-2.95-10.875-7.986-2.272-14.623-7.556-19.905-15.85l-1.843-3.318a75.134 75.134 0 0 1-3.501-7.464c-3.625-9.461-5.651-20.55-6.084-33.268-.062-3.317.032-6.543.277-9.676l-.922 6.267c-11.427-7.987-14.253-16.465-8.478-25.435-1.106-3.871-1.537-6.758-1.29-8.662.369-2.09 1.629-3.472 3.778-4.147v-.093c-3.381-4.669-2.521-9.737 2.58-15.206-2.336-5.038-.676-9.092 4.976-12.165.982-5.59 3.809-8.724 8.479-9.399h1.382a13.538 13.538 0 0 0 1.935-1.751c2.149-2.396 3.349-4.147 3.595-5.253v-.368a6.067 6.067 0 0 1 1.751-.277 102.764 102.764 0 0 0 6.543-3.962c-.553-.246-1.046-.645-1.474-1.198-.062 0-.094-.092-.094-.276-.736-.921-1.167-2.027-1.289-3.318-.062-1.413.214-2.672.828-3.778.308-.552.707-.952 1.198-1.198-.43-.246-.705-.491-.829-.737-.675-.676-1.075-1.536-1.197-2.581-.062-1.167.122-2.181.553-3.041.491-.737 1.105-1.106 1.843-1.106.798-.061 1.505.185 2.119.738.677.859 1.015 1.813 1.015 2.856a4.346 4.346 0 0 1-.555 2.765c-.061.246-.214.491-.46.737.432.184.893.553 1.382 1.106.738.921 1.138 2.15 1.199 3.686.184.86.154 1.598-.092 2.212a47.544 47.544 0 0 0 4.33-3.686c-.184 0-.369-.123-.553-.369-.491-.552-.737-1.291-.737-2.212 0-.859.246-1.566.737-2.119.616-.553 1.291-.829 2.027-.829.554 0 1.076.276 1.567.829.613.553.922 1.26.922 2.119 0 .554-.125 1.076-.369 1.567h7.003c-.246-.246-.397-.43-.461-.553-.982-.983-1.474-2.304-1.474-3.962 0-1.597.491-2.979 1.474-4.147.491-.491.952-.86 1.383-1.106a14.054 14.054 0 0 1-.922-.83 4.645 4.645 0 0 1-1.013-2.949c0-1.229.338-2.272 1.013-3.133.738-.799 1.567-1.198 2.489-1.198.982 0 1.811.398 2.487 1.198.738.86 1.105 1.904 1.105 3.133 0 1.106-.367 2.09-1.105 2.949a9.643 9.643 0 0 1-.829.737c.737.247 1.29.646 1.659 1.199.982 1.167 1.474 2.55 1.474 4.147 0 1.659-.491 2.979-1.474 3.962-.063 0-.092.062-.092.185 2.21-.247 4.575-.491 7.095-.738-.122-.492-.184-.922-.184-1.29 0-.86.215-1.567.645-2.12.553-.676 1.199-1.014 1.936-1.014.613 0 1.198.338 1.751 1.014.491.553.738 1.259.738 2.12 0 .798-.155 1.413-.461 1.843a343.85 343.85 0 0 0 8.294 3.226h.092l-.092-.185c-.493-1.044-.616-2.365-.369-3.962.246-1.413.83-2.519 1.751-3.318.367-.307.86-.583 1.475-.829-.431-.369-.675-.676-.738-.921-.369-.799-.491-1.751-.369-2.857.249-1.045.74-1.906 1.478-2.581m-68.84 72.802l-.461 5.161c.86-4.792 1.996-9.4 3.411-13.823l-2.95 8.662z"/><path fill="#CACDC4" d="M605.504 198.947c-.062.43-.184.891-.367 1.382-2.459 8.294-6.451 15.942-11.98 22.947-9.401 12.164-20.429 18.246-33.084 18.246-3.503 0-6.789-.489-9.861-1.475 1.781 3.257 2.765 6.882 2.95 10.875.184 2.457.184 6.882 0 13.271 9.091 6.634 20.549 9.951 34.372 9.951s30.505-3.317 50.041-9.951c-9.585-6.883-16.71-14.623-21.379-23.225-4.118-7.803-7.312-17.939-9.585-30.411-1.046-.737-1.751-1.843-2.12-3.317-.122-1.659.214-3.287 1.014-4.884v-1.291l-.001-2.118m8.939 1.013a2.466 2.466 0 0 0-.829-.553c-.179-.119-.332-.18-.461-.184-1.228-.615-2.521-.615-3.87 0a6.742 6.742 0 0 0-3.134 2.396.875.875 0 0 0-.277.644c-.061 0-.184.031-.368.093-.8 1.598-1.136 3.226-1.014 4.884.369 1.474 1.074 2.58 2.12 3.317a.8.8 0 0 0 .369.093c.675.43 1.382.646 2.118.646.614 0 1.291-.124 2.028-.369 1.658-.553 2.918-1.659 3.778-3.317.858-1.597 1.105-3.164.736-4.7.002-1.168-.398-2.151-1.196-2.95m-6.082 4.055c.614-1.106 1.411-1.782 2.396-2.027 1.044-.368 1.996-.276 2.856.276.799.308 1.228 1.015 1.29 2.121.247 1.044.092 2.119-.461 3.225-.553.922-1.382 1.628-2.489 2.12-.736.246-1.443.246-2.118 0-.124 0-.308-.093-.553-.276-.86-.43-1.321-1.168-1.382-2.212a5.343 5.343 0 0 1 .461-3.227m9.769-13.639c-1.659-.307-3.379-1.782-5.16-4.423l-5.068-7.926v2.857c-.186 6.082-.983 11.857-2.397 17.325V201.065c.246.246.46.43.646.554a6.736 6.736 0 0 1 3.134-2.396c1.35-.615 2.643-.615 3.87 0h.184c1.288-1.413 2.885-4.362 4.791-8.847m-89.942-63.495l-.277.276-2.487 7.189a107.828 107.828 0 0 0-3.411 13.823c-1.597 7.188-2.551 14.621-2.856 22.301a100.104 100.104 0 0 0-.277 9.676c.433 12.718 2.459 23.807 6.084 33.268a75.134 75.134 0 0 0 3.501 7.464c.613 1.106 1.229 2.212 1.843 3.318 5.282 8.294 11.919 13.577 19.905 15.85 3.072.985 6.358 1.475 9.861 1.475 12.655 0 23.683-6.082 33.084-18.246 5.529-7.004 9.521-14.653 11.98-22.947.184-.492.306-.952.367-1.382v-.737c1.414-5.468 2.212-11.243 2.397-17.325v-2.857l-1.752-2.58c-3.439-5.714-5.222-12.441-5.346-20.182-7.68-8.171-13.148-17.632-16.402-28.384-5.468.246-9.309-.583-11.52-2.488-23.593 4.485-38.49 5.315-44.694 2.488m32.16 34.19c-2.396.246-3.439-.83-3.132-3.225l.645-.461c7.25-4.977 16.005-5.652 26.264-2.027 2.027 1.904 1.936 2.979-.277 3.225a19.549 19.549 0 0 0-4.33-1.106l-1.198-.461c-2.58-.246-5.222-.122-7.926.369-1.104 0-2.057.153-2.856.461-2.46.737-4.854 1.813-7.19 3.225m-17.694-2.12l1.383 1.751c.738 1.291 1.105 3.103 1.105 5.438v1.198a20.013 20.013 0 0 1-1.289 5.345c-4.607 10.137-6.729 16.71-6.359 19.722.553 3.256 4.208 4.269 10.967 3.041.922-1.167 1.872-1.905 2.856-2.212 1.168-.307 2.519-.031 4.056.83 3.07.123 4.238-1.137 3.501-3.779-.859-2.703-2.519-4.208-4.978-4.515 2.459.307 4.118 1.813 4.978 4.515.737 2.642-.431 3.901-3.501 3.779-1.537-.86-2.888-1.137-4.056-.83-.984.307-1.935 1.045-2.856 2.212-6.759 1.229-10.414.215-10.967-3.041-.369-3.012 1.752-9.584 6.359-19.722a20.013 20.013 0 0 0 1.289-5.345v-1.198c0-2.334-.367-4.147-1.105-5.438-.369.491-1.228.645-2.581.46l-.367-.092c-1.354-.86-3.104-1.536-5.254-2.027a8.186 8.186 0 0 1-1.197-.369c-1.168-.246-3.871-.645-8.11-1.198-1.044-.307-1.29-1.137-.737-2.488 3.011-1.044 5.129-1.382 6.358-1.013l4.333 1.013c2.517.8 4.575 2.12 6.172 3.963m-16.127 9.308c1.291-1.413 2.673-2.334 4.147-2.765.799-.246 1.537-.369 2.212-.369 1.966 0 4.146.706 6.543 2.119.306.308.677.584 1.104.83-.489.369-.889.676-1.196.922-3.012 1.904-5.744 2.61-8.202 2.119-1.659-.367-3.195-1.32-4.608-2.856m0-2.58c2.027-1.352 4.024-2.058 5.99-2.12h.738c1.411 0 2.948.308 4.607.921a38.091 38.091 0 0 0 0 0c-1.659-.614-3.196-.921-4.607-.921h-.738c-1.965.062-3.962.769-5.99 2.12m41.378.092c.736-.185 1.566-.276 2.487-.276 1.968 0 3.994.583 6.082 1.75.799.553 1.69 1.26 2.673 2.12v.092h-.092c-1.352.86-2.642 1.536-3.87 2.028-2.028.737-4.055 1.013-6.083.829-2.396-.307-4.73-1.29-7.004-2.948 1.907-1.721 3.84-2.919 5.807-3.595m-6.175 1.013c2.764-2.15 5.529-3.317 8.293-3.501 3.012-.185 6.052.86 9.124 3.133 1.107.615 2.273 1.567 3.503 2.856-1.229-1.29-2.396-2.242-3.503-2.856-3.072-2.273-6.112-3.318-9.124-3.133-2.763.184-5.529 1.351-8.293 3.501a7.736 7.736 0 0 1 0 0m-27.646 42.945l8.939-1.475 5.16.83 5.713-.83 16.496 1.475c-6.634 3.932-13.515 5.897-20.643 5.897-7.371.185-12.593-1.781-15.665-5.897m44.972-40.272l.092-.092c-.982-.86-1.874-1.567-2.673-2.12v1.014c0 1.29-.428 2.365-1.289 3.226 1.228-.492 2.518-1.168 3.87-2.028m-10.69 2.212c-.799-.799-1.229-1.936-1.29-3.41a5.005 5.005 0 0 1 .829-2.488c-1.967.676-3.9 1.874-5.807 3.594 2.273 1.659 4.608 2.642 7.004 2.948a6.754 6.754 0 0 0-.736-.644m-28.936-4.424v.738c0 .307-.031.645-.092 1.014.308-.246.707-.553 1.196-.922a5.168 5.168 0 0 1-1.104-.83m-8.755-1.75c-1.475.43-2.856 1.352-4.147 2.765 1.413 1.536 2.948 2.488 4.608 2.856-.738-.859-1.138-1.904-1.199-3.133.061-.799.307-1.629.738-2.488z"/><path fill="#E2E9E4" d="M606.149 201.62a4.518 4.518 0 0 1-.646-.554v1.291c.185-.062.308-.093.368-.093a.882.882 0 0 1 .278-.644m12.995-11.244h-1.014c-1.906 4.484-3.503 7.434-4.793 8.847h-.184c.129.004.282.065.461.184.306.123.583.307.829.553l.092-.184c1.844-5.776 3.381-8.908 4.609-9.4m14.835-61.836c-.062 0-.184-.061-.369-.184.186 1.229.433 2.518.738 3.87l-.369-3.686m-.369-5.713a4.978 4.978 0 0 1-.275.645c-.124 1.475-.03 3.103.275 4.885.186.123.308.184.369.184l-.369-5.714m-.275.645c-.613.615-.921 1.352-.921 2.212-.125 1.044.122 1.813.736 2.304.122.123.276.246.46.369-.305-1.782-.399-3.41-.275-4.885m.275-.645v-.921h-.092c-.122.368-.184.891-.184 1.566.124-.246.216-.461.276-.645m-54.554 46.63h.092v-.092l-.092.092m-31.793-81.28c.061-.368.184-.798.369-1.29a43.248 43.248 0 0 1-1.66 1.566c.484-.181.915-.274 1.291-.276m-2.765 1.843c1.104 0 1.935-.522 2.487-1.567 0-.178.094-.27.277-.276-.376.002-.807.095-1.291.276a18.902 18.902 0 0 1-2.487 1.567c.37.062.707.062 1.014 0m78.239 9.124l.092.184c.616.553.922 1.32.922 2.304 0 .859-.306 1.566-.922 2.119l-.829.461a70.964 70.964 0 0 0 3.594 4.976c-.244-.43-.338-.952-.277-1.566 0-.921.433-1.843 1.291-2.765.738-.983 1.629-1.505 2.673-1.567.43-.246.86-.338 1.29-.276-.186-.308-.186-.584 0-.83 0-.369.123-.707.369-1.013a226.092 226.092 0 0 0-8.203-2.027m-6.45-1.199a5.5 5.5 0 0 1-1.475 1.198 28.496 28.496 0 0 0 3.687 2.304c0-.86.214-1.567.645-2.12.43-.369.799-.584 1.104-.645a504.49 504.49 0 0 0-3.961-.737m-6.176-2.12c0-.798.246-1.689.738-2.672.244-.615.521-1.167.829-1.659-2.028-.308-4.21-.645-6.542-1.014 1.35 1.906 3.01 3.687 4.975 5.345m1.476 1.291a4.162 4.162 0 0 0-1.476-.276v.276c.246 1.106.769 1.843 1.567 2.212.983.492 1.936.43 2.856-.184a126.974 126.974 0 0 0-2.947-2.028m-1.476-.277c.493 0 .982.092 1.476.276l-1.476-1.291a2.832 2.832 0 0 0 0 1.015m-19.813-10.321c.738.185 1.476.03 2.212-.461a41.787 41.787 0 0 0-4.33-1.198c.429 1.044 1.135 1.598 2.118 1.659m-22.024-4.7c-1.966.123-3.872.246-5.715.368.738.676 1.659 1.014 2.765 1.014 1.168.001 2.152-.46 2.95-1.382z"/><path fill="#97998E" d="M610.758 201.988c-.985.246-1.782.921-2.396 2.027-.493 1.044-.646 2.12-.46 3.226.061 1.044.521 1.782 1.382 2.212.245.184.429.276.553.276.675.246 1.382.246 2.118 0 1.107-.491 1.937-1.198 2.489-2.12.553-1.106.708-2.181.461-3.225-.063-1.106-.491-1.813-1.29-2.121-.861-.552-1.813-.643-2.857-.275m-76.674 7.741c3.072 4.116 8.294 6.082 15.666 5.897 7.128 0 14.009-1.966 20.643-5.897-13.455 3.133-25.557 3.133-36.309 0m8.939-1.475l-8.939 1.475c10.752 3.133 22.854 3.133 36.309 0l-16.496-1.475-5.713.83-5.161-.83m1.014-47.551l-1.383-1.751c-1.598-1.843-3.655-3.163-6.173-3.962l-4.333-1.013c-1.229-.369-3.348-.031-6.358 1.013-.553 1.352-.307 2.181.737 2.488 4.239.553 6.942.952 8.11 1.198a8.1 8.1 0 0 0 1.197.369c2.15.491 3.9 1.167 5.254 2.027l.367.092c1.355.184 2.213.03 2.582-.461m13.179-2.857c-.308 2.396.736 3.471 3.132 3.225 2.336-1.413 4.73-2.488 7.188-3.225.8-.308 1.752-.461 2.856-.461 2.704-.491 5.346-.615 7.926-.369l1.198.461c1.413.185 2.856.553 4.33 1.106 2.213-.246 2.305-1.321.277-3.225-10.259-3.625-19.014-2.949-26.264 2.027l-.643.461m18.983-59.072c-.063-.246-.308-.399-.738-.461-2.089-1.229-4.607-1.72-7.556-1.474-2.15.185-4.577.676-7.28 1.474-3.134-.982-5.774-1.505-7.925-1.567h-1.014c-2.09 0-3.563.4-4.424 1.199-4.669 2.211-7.312 4.423-7.925 6.635-.86-1.105-2.029-1.904-3.503-2.396-1.168-.369-2.487-.552-3.962-.552H528.278c-4.671.675-7.497 3.809-8.479 9.399-5.651 3.072-7.312 7.126-4.976 12.165-5.101 5.468-5.961 10.537-2.58 15.206v.093c-2.149.675-3.409 2.057-3.778 4.147-.247 1.904.184 4.791 1.29 8.662-5.775 8.97-2.949 17.448 8.478 25.435l.922-6.267c.306-7.68 1.26-15.113 2.856-22.301l.461-5.161 2.95-8.662 2.487-7.189.277-.276c6.204 2.827 21.102 1.997 44.694-2.488 2.211 1.905 6.052 2.734 11.52 2.488 3.254 10.752 8.723 20.213 16.402 28.384.124 7.741 1.906 14.468 5.346 20.182l1.752 2.58 5.068 7.926c1.781 2.642 3.501 4.116 5.16 4.423h1.014c-1.228.491-2.765 3.624-4.608 9.4l-.092.184c.798.799 1.197 1.782 1.197 2.949.369 1.536.122 3.103-.736 4.7-.86 1.659-2.12 2.765-3.778 3.317-.737.246-1.414.369-2.028.369l-1.565 3.133h.092c1.904 1.228 5.468 1.106 10.689-.368 4.424-1.782 7.372-5.007 8.847-9.676 5.039-2.643 7.987-7.25 8.848-13.823 3.625-4.977 4.485-11.582 2.58-19.813 3.563-7.434 2.456-13.301-3.317-17.602 0-2.334-.339-4.393-1.014-6.174a19.864 19.864 0 0 0-3.317-5.99c-1.598-1.72-3.042-3.102-4.332-4.147-1.291-1.167-2.457-1.935-3.501-2.304-4.73-10.014-11.735-16.588-21.012-19.721-1.105-3.81-2.856-7.126-5.252-9.953a30.681 30.681 0 0 0-4.978-4.792v-1.291a20.269 20.269 0 0 0-7.833-1.567h-.369a1.78 1.78 0 0 0-.921.277c-1.66.368-3.195.644-4.607.829-.739.06-1.383.214-1.936.459z"/><path fill="#CCC" d="M641.998 120.984a7.099 7.099 0 0 0 .922-2.212c.061-.676-.186-1.198-.738-1.567-.491-.491-1.076-.676-1.751-.552-.736.246-1.413.737-2.026 1.474-.553.676-.83 1.382-.83 2.119-.184.247-.184.523 0 .83.061.307.216.583.461.83.369.307.767.461 1.198.461h.828c.676-.308 1.321-.769 1.936-1.383m-8.019 7.556c.491 0 .984-.061 1.475-.184.921-.247 1.781-.86 2.581-1.843.86-.799 1.29-1.751 1.29-2.857.184-.553.153-.983-.092-1.29-.432 0-.829-.154-1.198-.461a1.616 1.616 0 0 1-.461-.83c-.307-.062-.706-.031-1.199.092-.982.184-1.904.738-2.765 1.659l.369 5.714m-17.692-9.215c-6.575-3.01-10.906-7.219-12.994-12.625a99.743 99.743 0 0 1-6.45-1.843c2.396 2.826 4.146 6.143 5.252 9.953 9.276 3.133 16.281 9.707 21.012 19.721 1.044.369 2.21 1.137 3.501 2.304l-.461-3.778c-5.591-2.95-8.877-7.527-9.86-13.732m18.431-4.792c-.553-.553-1.136-.83-1.751-.83-.8 0-1.475.276-2.027.83-.186.246-.308.614-.369 1.105a31.31 31.31 0 0 0 2.765 3.133v.185h1.383c.491-.553.736-1.321.736-2.304-.001-.86-.246-1.566-.737-2.119m-83.031-17.786a33.54 33.54 0 0 1-4.332-.829c-3.933 3.01-7.771 5.099-11.52 6.266 1.474.492 2.643 1.291 3.503 2.396.613-2.211 3.256-4.423 7.925-6.635.86-.799 2.334-1.198 4.424-1.198m-22.026 4.885h2.212c.184-.492.092-1.076-.277-1.751a13.538 13.538 0 0 1-1.935 1.751M551.409 78.5c-.491.553-.737 1.26-.737 2.119 0 .921.246 1.66.737 2.212.184.246.369.369.553.369a8.49 8.49 0 0 0 1.475-1.199 8.92 8.92 0 0 1 1.751.185c.124-.123.246-.123.369 0a3.476 3.476 0 0 0 .369-1.567c0-.859-.309-1.566-.922-2.119-.491-.553-1.014-.829-1.567-.829-.737 0-1.412.277-2.028.829m-8.755 1.751c.307.246.645.276 1.014.092a2.48 2.48 0 0 0 1.475-.46c.246-.246.399-.492.46-.737.493-.86.677-1.782.555-2.765 0-1.044-.338-1.997-1.015-2.856-.614-.553-1.321-.799-2.119-.738-.737 0-1.352.369-1.843 1.106-.431.86-.614 1.874-.553 3.041.122 1.045.522 1.905 1.197 2.581.124.245.4.491.829.736m1.014.092c-.369.185-.707.154-1.014-.092-.491.246-.891.646-1.198 1.198-.614 1.106-.89 2.365-.828 3.778.122 1.291.553 2.396 1.289 3.318 0 .185.032.276.094.276.428.553.921.952 1.474 1.198a18.902 18.902 0 0 0 2.487-1.567 43.248 43.248 0 0 0 1.66-1.566c.246-.614.275-1.352.092-2.212-.062-1.536-.461-2.765-1.199-3.686-.489-.553-.95-.922-1.382-1.106a2.474 2.474 0 0 1-1.475.461m86.902 22.671c-.43-.062-.86.03-1.29.276-1.044.062-1.935.583-2.673 1.567-.858.922-1.291 1.843-1.291 2.765-.061.614.033 1.136.277 1.566.062.247.216.492.461.738.615.614 1.443.737 2.487.368.8-.246 1.629-.829 2.489-1.75.798-.799 1.197-1.721 1.197-2.765.122-.615.094-1.137-.092-1.567-.431 0-.769-.124-1.014-.369-.304-.122-.489-.399-.551-.829m0-.83c-.186.246-.186.522 0 .83.062.43.247.707.553.829.245.246.583.369 1.014.369h.83c.676-.246 1.32-.676 1.935-1.291.246-.246.43-.492.553-.737.246-.369.368-.83.368-1.382 0-.737-.184-1.291-.552-1.658-.616-.492-1.261-.646-1.936-.461-.737.185-1.382.645-1.935 1.382a1.505 1.505 0 0 0-.461 1.106 1.582 1.582 0 0 0-.369 1.013m-9.492-3.778c-.247 0-.522.092-.83.276-.306.061-.675.276-1.104.645-.431.553-.645 1.259-.645 2.12.86.491 1.721.982 2.579 1.474.246.307.553.737.922 1.291l.829-.461c.616-.553.922-1.26.922-2.119 0-.984-.306-1.751-.922-2.304l-.092-.184c-.491-.492-1.046-.738-1.659-.738m-15.574-12.718c-.367-.552-.951-.829-1.75-.829-.738 0-1.382.276-1.937.829-.429.554-.645 1.26-.645 2.121v.644c.982.308 2.026.584 3.134.83.122.307.369.707.736 1.198.921-.798 1.382-1.689 1.382-2.672.001-.861-.305-1.567-.92-2.121m9.4 4.055c.247.369.553.676.922.922.491.122.982.185 1.474.185.307-.124.583-.307.83-.554a3.394 3.394 0 0 0 1.843-1.843c.491-1.105.614-2.15.369-3.132-.062-.922-.461-1.506-1.198-1.751-.677-.307-1.413-.215-2.213.276-.858.43-1.535 1.137-2.026 2.12-.491 1.044-.613 1.996-.369 2.856-.001.307.122.615.368.921m-1.567.553c-.614.369-1.167.769-1.658 1.199a10.185 10.185 0 0 0-.829 1.659c-.492.983-.738 1.874-.738 2.672l1.476 1.291c.922.615 1.904 1.291 2.948 2.028h.277a5.422 5.422 0 0 0 2.488-2.949c.553-1.229.767-2.365.645-3.41v-.276c-.122-.737-.338-1.291-.645-1.658-.491 0-.982-.063-1.474-.185a3.304 3.304 0 0 1-.922-.922c-.553-.002-1.075.183-1.568.551m-37.876 8.017c.431.062.676.215.738.461.553-.246 1.197-.399 1.936-.461h-2.674m-7.925-12.348a15.898 15.898 0 0 1-4.699 1.659c-2.889.798-5.898.859-9.032.185-.491 0-.982-.062-1.474-.185a5.23 5.23 0 0 1-.553.461c-5.407 3.256-10.352 5.222-14.837 5.897-.554 0-1.137.093-1.751.277v.368c-.246 1.106-1.445 2.857-3.595 5.253.369.676.461 1.26.277 1.751 1.475 0 2.794.184 3.962.552 3.749-1.167 7.587-3.256 11.52-6.266a33.71 33.71 0 0 0 4.332.829h1.014c3.439 0 6.604-.829 9.49-2.487-2.887 1.659-6.051 2.487-9.49 2.487 2.15.062 4.791.584 7.925 1.567 2.703-.798 5.13-1.29 7.28-1.474-1.597-.615-3.194-1.475-4.793-2.58 1.599 1.105 3.196 1.965 4.793 2.58 2.948-.246 5.467.246 7.556 1.474h2.674a53.552 53.552 0 0 0 4.607-.829 1.77 1.77 0 0 1 .921-.277h.369c2.702 0 5.315.523 7.833 1.567v1.291a30.681 30.681 0 0 1 4.978 4.792 99.11 99.11 0 0 0 6.45 1.843c2.088 5.406 6.419 9.614 12.994 12.625.982 6.205 4.269 10.782 9.859 13.731l.461 3.778c1.29 1.045 2.734 2.427 4.332 4.147a19.842 19.842 0 0 1 3.317 5.99l2.212-8.938a83.838 83.838 0 0 1-2.12-5.806l.369 4.424-.369-4.424a54.08 54.08 0 0 1-.738-3.87 3.045 3.045 0 0 1-.46-.369c-.614-.491-.861-1.26-.736-2.304 0-.86.308-1.597.921-2.212 0-.675.062-1.198.184-1.566-5.897-2.704-9.338-6.974-10.32-12.81-6.819-2.826-11.336-6.666-13.548-11.519a67.606 67.606 0 0 1-6.266-1.751c-4.915-1.659-9.43-3.962-13.548-6.912 0-.061-.061-.092-.184-.092-.244 0-.43.031-.553.092-6.39 1.413-12.104 1.045-17.14-1.105a63.627 63.627 0 0 0-3.595-1.751l-.829-.093m10.138-5.253c-.8.185-1.566.307-2.305.368.062.369.217.676.461.921.245.247.492.491.738.738-.246-.247-.493-.491-.738-.738a1.667 1.667 0 0 1-.461-.921c-2.52.247-4.885.491-7.095.738-.799.921-1.782 1.382-2.95 1.382-1.105 0-2.026-.338-2.765-1.014h-7.003c-.123-.123-.245-.123-.369 0a8.92 8.92 0 0 0-1.751-.185c-.49.491-.983.891-1.475 1.199a47.544 47.544 0 0 1-4.33 3.686 6.86 6.86 0 0 0-.369 1.29c-.184.006-.277.098-.277.276-.553 1.045-1.383 1.567-2.487 1.567a2.782 2.782 0 0 1-1.014 0 102.764 102.764 0 0 1-6.543 3.962c4.485-.675 9.43-2.641 14.837-5.897a5.23 5.23 0 0 0 .553-.461c.491.123.982.185 1.474.185 3.134.675 6.144.614 9.032-.185a15.86 15.86 0 0 0 4.699-1.659l.83.092a65.37 65.37 0 0 1 3.595 1.751c5.036 2.15 10.75 2.518 17.14 1.105.123-.061.309-.092.553-.092.123 0 .184.031.184.092 4.118 2.949 8.633 5.253 13.548 6.912a66.818 66.818 0 0 0 6.266 1.751c2.212 4.853 6.729 8.693 13.548 11.519.982 5.836 4.423 10.106 10.32 12.81h.092l-.275-2.765v-.37a31.31 31.31 0 0 1-2.765-3.133 1.92 1.92 0 0 0-.277 1.014c0 .982.215 1.75.646 2.304-.432-.553-.646-1.321-.646-2.304 0-.369.092-.707.277-1.014a206.985 206.985 0 0 0-4.516-5.713c-.245-.247-.399-.492-.461-.738a70.73 70.73 0 0 1-3.594-4.976 18.993 18.993 0 0 0-.922-1.291c-.858-.492-1.719-.983-2.579-1.474v.185c0 .859.214 1.566.645 2.119.244.246.491.491.737.737l-.737-.737c-.431-.553-.645-1.26-.645-2.119v-.185a28.388 28.388 0 0 1-3.687-2.304h-.277c-.921.614-1.873.676-2.856.184-.799-.369-1.321-1.106-1.567-2.212v-.276a2.782 2.782 0 0 1 0-1.014c-1.966-1.659-3.625-3.439-4.975-5.345h-.094c-.367-.491-.614-.891-.736-1.198a38.211 38.211 0 0 1-3.134-.83c.122.615.339 1.137.645 1.567v.093l.738.737a256.4 256.4 0 0 0-.738-.737v-.089c-.306-.43-.522-.952-.645-1.567a202.064 202.064 0 0 1-8.663-2.396c-.736.491-1.474.646-2.212.461-.982-.062-1.688-.615-2.118-1.659h-.092a343.85 343.85 0 0 1-8.294-3.226 20.43 20.43 0 0 0-2.121-.921m-9.308.922c.982-.983 1.474-2.304 1.474-3.962 0-1.597-.491-2.979-1.474-4.147-.369-.553-.922-.952-1.659-1.199-.553.308-1.105.461-1.658.461a3.46 3.46 0 0 1-1.567-.368c-.431.246-.892.615-1.383 1.106-.982 1.167-1.474 2.55-1.474 4.147 0 1.659.491 2.979 1.474 3.962.063.123.215.307.461.553 1.843-.123 3.749-.246 5.715-.368-.001-.124.028-.185.091-.185m.276-12.994c0-1.229-.367-2.272-1.105-3.133-.677-.799-1.505-1.198-2.487-1.198-.922 0-1.751.398-2.489 1.198-.675.86-1.013 1.904-1.013 3.133 0 1.106.338 2.09 1.013 2.949.247.246.553.522.922.83a3.45 3.45 0 0 0 1.567.368c.553 0 1.105-.153 1.658-.461.308-.246.585-.491.829-.737.737-.86 1.105-1.843 1.105-2.949m22.302 7.925c-.614.246-1.107.522-1.475.829-.921.799-1.505 1.905-1.751 3.318-.247 1.597-.124 2.918.369 3.962l.092.185c1.413.307 2.856.707 4.33 1.198.186-.061.399-.215.646-.461.799-.86 1.321-1.997 1.565-3.41a7.284 7.284 0 0 0-.368-3.962 2.72 2.72 0 0 0-1.197-1.291c-.308.247-.738.369-1.291.369a2.73 2.73 0 0 1-.92-.737m-11.15 5.069c.306-.43.461-1.045.461-1.843 0-.86-.247-1.567-.738-2.12-.553-.676-1.138-1.014-1.751-1.014-.736 0-1.383.338-1.936 1.014-.43.553-.645 1.259-.645 2.12 0 .368.062.798.184 1.29a16.416 16.416 0 0 0 2.305-.368c.677.245 1.382.552 2.12.921m13.362-12.165c-.677-.185-1.291.061-1.843.737-.738.676-1.229 1.536-1.477 2.58-.122 1.106 0 2.058.369 2.857.063.246.308.552.738.921.246.307.553.553.921.737.553 0 .983-.122 1.291-.369.245-.246.521-.43.828-.553.737-.615 1.168-1.443 1.29-2.488a4.712 4.712 0 0 0-.275-3.041c-.431-.859-1.043-1.32-1.842-1.381z"/><path fill="#807D6C" d="M570.393 165.495c-.921 0-1.751.092-2.487.276a4.995 4.995 0 0 0-.829 2.488c.061 1.474.491 2.611 1.29 3.41.247.184.491.398.736.644 2.028.185 4.055-.092 6.083-.829.861-.86 1.289-1.936 1.289-3.226v-1.014c-2.088-1.166-4.115-1.749-6.082-1.749m0 4.331c-.491-.369-.736-.891-.736-1.567s.245-1.167.736-1.475c.309-.491.83-.737 1.568-.737.613 0 1.166.246 1.657.737.308.369.461.86.461 1.475 0 .676-.153 1.198-.461 1.567-.491.491-1.044.737-1.657.737-.738 0-1.26-.246-1.568-.737m-39.718-4.331c-.431.859-.677 1.689-.738 2.488.062 1.229.461 2.273 1.199 3.133 2.458.491 5.19-.215 8.202-2.119a6.26 6.26 0 0 0 .092-1.014v-.738c-2.396-1.413-4.577-2.119-6.543-2.119-.675 0-1.413.123-2.212.369m2.581.921c.489-.491 1.013-.737 1.565-.737.677 0 1.26.246 1.752.737.368.368.552.891.552 1.567 0 .553-.184 1.044-.552 1.474-.492.492-1.075.737-1.752.737-.553 0-1.076-.246-1.565-.737a5.457 5.457 0 0 1-.738-1.474c.183-.738.43-1.26.738-1.567z"/><path fill="#272727" d="M569.656 168.259c0 .676.245 1.198.736 1.567.309.491.83.737 1.568.737.613 0 1.166-.246 1.657-.737.308-.369.461-.891.461-1.567 0-.615-.153-1.106-.461-1.475-.491-.491-1.044-.737-1.657-.737-.738 0-1.26.246-1.568.737-.491.308-.736.799-.736 1.475m-34.835-2.58c-.553 0-1.076.246-1.565.737-.308.307-.555.829-.738 1.567.184.553.431 1.044.738 1.474.489.492 1.013.737 1.565.737.677 0 1.26-.246 1.752-.737.368-.43.552-.921.552-1.474 0-.676-.184-1.199-.552-1.567-.492-.491-1.075-.737-1.752-.737z"/><g><path fill="none" stroke="#333" stroke-width="2" stroke-linecap="round" stroke-linejoin="round" d="M691.854 421.039V32.055c0-2.396-1.199-3.594-3.595-3.594H209.146"/></g><g><path fill="none" stroke="#333" stroke-linecap="round" stroke-linejoin="round" d="M602.187 60.807c0-1.29.152-2.365.461-3.226.491-1.29 1.106-1.935 1.843-1.935.675 0 1.26.646 1.751 1.935.369.86.616 1.936.738 3.226h7.647c.063-1.29.277-2.365.646-3.226.489-1.29 1.074-1.935 1.749-1.935.738 0 1.321.646 1.752 1.935.552.86.891 1.936 1.013 3.226h7.65c.061-1.29.276-2.365.644-3.226.369-1.29.922-1.935 1.66-1.935.799 0 1.382.646 1.751 1.935.369.86.613 1.936.736 3.226h7.649c.062-1.29.277-2.365.645-3.226.493-1.29 1.076-1.935 1.751-1.935.738 0 1.352.646 1.843 1.935.492.86.8 1.936.922 3.226h7.649c.062-1.29.275-2.365.645-3.226.491-1.29 1.046-1.935 1.66-1.935.797 0 1.443.646 1.935 1.935.369 1.106.553 2.519.553 4.24 0 1.229-.092 2.334-.275 3.317a6.516 6.516 0 0 1 1.565.369c1.228.676 1.843 1.352 1.843 2.027 0 .553-.615 1.075-1.843 1.566-.738.369-1.565.614-2.487.738v7.925c.922.061 1.749.215 2.487.461 1.228.491 1.843 1.137 1.843 1.935 0 .615-.615 1.168-1.843 1.66a9.838 9.838 0 0 1-2.487.645v7.741c.922.123 1.749.338 2.487.646 1.228.614 1.843 1.259 1.843 1.935 0 .615-.615 1.137-1.843 1.567-.738.369-1.565.615-2.487.737v7.926a9.796 9.796 0 0 1 2.487.644c1.228.369 1.843.952 1.843 1.751 0 .615-.615 1.167-1.843 1.659a9.796 9.796 0 0 1-2.487.645v7.742a9.796 9.796 0 0 1 2.487.644c1.228.615 1.843 1.291 1.843 2.028 0 .553-.615 1.075-1.843 1.567a9.876 9.876 0 0 1-2.487.83v7.74c.922.124 1.749.338 2.487.646 1.228.491 1.843 1.044 1.843 1.659 0 .799-.615 1.382-1.843 1.751a9.88 9.88 0 0 1-2.487.646v7.925c.922.061 1.749.215 2.487.461 1.228.615 1.843 1.291 1.843 2.027 0 .553-.615 1.076-1.843 1.567a9.875 9.875 0 0 1-2.487.829v7.741c.922.123 1.749.337 2.487.645 1.228.492 1.843 1.044 1.843 1.659 0 .798-.615 1.443-1.843 1.935-.738.246-1.565.399-2.487.46v7.926a9.796 9.796 0 0 1 2.487.644c1.228.554 1.843 1.168 1.843 1.843 0 .553-.615 1.075-1.843 1.567a9.876 9.876 0 0 1-2.487.83v7.833c.922.123 1.749.307 2.487.553 1.228.491 1.843 1.106 1.843 1.843 0 .676-.615 1.26-1.843 1.751a9.88 9.88 0 0 1-2.487.646v7.74c.922.124 1.749.338 2.487.646 1.228.553 1.843 1.198 1.843 1.935 0 .615-.615 1.106-1.843 1.475a8.035 8.035 0 0 1-2.487.922v7.74c.922.124 1.749.338 2.487.646 1.228.43 1.843 1.014 1.843 1.751 0 .737-.615 1.32-1.843 1.75-.738.308-1.565.523-2.487.646v7.741a9.754 9.754 0 0 1 2.487.645c1.228.553 1.843 1.198 1.843 1.935 0 .553-.615 1.106-1.843 1.659-.738.369-1.565.615-2.487.737v7.741a9.88 9.88 0 0 1 2.487.645c1.228.493 1.843 1.076 1.843 1.751 0 .738-.615 1.353-1.843 1.844-.738.246-1.565.43-2.487.553v7.833c.922.122 1.749.308 2.487.554 1.228.614 1.843 1.261 1.843 1.936 0 .553-.615 1.104-1.843 1.657a7.805 7.805 0 0 1-2.487.738v7.833c.922.122 1.749.306 2.487.553 1.228.491 1.843 1.106 1.843 1.843 0 .675-.615 1.26-1.843 1.752a9.88 9.88 0 0 1-2.487.644v7.742c.922.124 1.749.338 2.487.646 1.228.553 1.843 1.167 1.843 1.844 0 .675-.615 1.196-1.843 1.565a10.66 10.66 0 0 1-1.935.738c0 .061.03.122.092.184.369 1.228.553 2.703.553 4.424 0 1.657-.184 3.164-.553 4.515-.491 1.043-1.138 1.567-1.935 1.567-.614 0-1.169-.524-1.66-1.567a13.015 13.015 0 0 1-.645-2.766h-7.741a13.15 13.15 0 0 1-.83 2.766c-.491 1.043-1.104 1.567-1.843 1.567-.675 0-1.258-.524-1.751-1.567a13.077 13.077 0 0 1-.645-2.766h-7.741a12.983 12.983 0 0 1-.645 2.766c-.369 1.043-.952 1.567-1.751 1.567-.738 0-1.291-.524-1.66-1.567a13.076 13.076 0 0 1-.644-2.766h-7.742a10.48 10.48 0 0 1-.921 2.766c-.431 1.043-1.014 1.567-1.752 1.567-.675 0-1.26-.524-1.749-1.567a13.016 13.016 0 0 1-.646-2.766h-7.741a12.983 12.983 0 0 1-.645 2.766c-.491 1.043-1.076 1.567-1.751 1.567-.736 0-1.352-.524-1.843-1.567a13.024 13.024 0 0 1-.461-2.766h-7.925a10.208 10.208 0 0 1-.738 2.766c-.489 1.043-1.074 1.567-1.75 1.567-.737 0-1.32-.524-1.751-1.567a12.955 12.955 0 0 1-.646-2.766h-7.833a18.145 18.145 0 0 1-.553 2.766c-.491 1.043-1.104 1.567-1.843 1.567-.675 0-1.258-.524-1.751-1.567a13.015 13.015 0 0 1-.645-2.766h-7.741a10.243 10.243 0 0 1-.736 2.766c-.493 1.043-1.076 1.567-1.751 1.567-.676 0-1.291-.524-1.844-1.567a18.34 18.34 0 0 1-.553-2.766h-7.833a12.924 12.924 0 0 1-.646 2.766c-.431 1.043-1.014 1.567-1.752 1.567-.675 0-1.26-.524-1.749-1.567a13.016 13.016 0 0 1-.646-2.766h-7.741a10.17 10.17 0 0 1-.736 2.766c-.491 1.043-1.106 1.567-1.843 1.567-.614 0-1.199-.524-1.751-1.567a13.015 13.015 0 0 1-.645-2.766h-7.741a13.168 13.168 0 0 1-.646 2.766c-.489 1.043-1.074 1.567-1.75 1.567-.737 0-1.32-.524-1.751-1.567a12.955 12.955 0 0 1-.646-2.766h-7.833a10.205 10.205 0 0 1-.735 2.766c-.431 1.043-1.014 1.567-1.752 1.567-.615 0-1.198-.524-1.751-1.567a12.955 12.955 0 0 1-.645-2.766h-7.741a13.106 13.106 0 0 1-.645 2.766c-.493 1.043-1.076 1.567-1.751 1.567-.738 0-1.353-.524-1.844-1.567a18.22 18.22 0 0 1-.552-2.766h-7.834a10.171 10.171 0 0 1-.737 2.766c-.491 1.043-1.076 1.567-1.752 1.567-.552 0-1.168-.524-1.843-1.567-.308-.983-.491-2.058-.553-3.226-.244-.307-.369-.736-.369-1.289v-4.424c-1.412-.062-2.64-.369-3.686-.922-1.168-.369-1.752-.891-1.752-1.565 0-.677.584-1.291 1.752-1.844 1.046-.432 2.273-.677 3.686-.737v-7.557c-1.412-.061-2.64-.308-3.686-.737-1.168-.492-1.752-1.077-1.752-1.752 0-.736.584-1.352 1.752-1.843 1.046-.369 2.273-.583 3.686-.645v-7.649c-1.412-.062-2.64-.337-3.686-.83-1.168-.553-1.752-1.104-1.752-1.657 0-.675.584-1.321 1.752-1.936 1.046-.368 2.273-.583 3.686-.646v-7.648c-1.412-.061-2.64-.276-3.686-.646-1.168-.491-1.752-1.105-1.752-1.844 0-.675.584-1.258 1.752-1.751 1.046-.429 2.273-.675 3.686-.736v-7.557c-1.412-.062-2.64-.338-3.686-.83-1.168-.553-1.752-1.106-1.752-1.659 0-.737.584-1.382 1.752-1.935 1.046-.43 2.273-.676 3.686-.738v-7.556c-1.412-.062-2.64-.308-3.686-.738-1.168-.43-1.752-1.013-1.752-1.75 0-.737.584-1.321 1.752-1.751 1.046-.43 2.273-.676 3.686-.737v-7.557c-1.412-.062-2.64-.399-3.686-1.014-1.168-.369-1.752-.86-1.752-1.475 0-.737.584-1.382 1.752-1.935 1.046-.43 2.273-.676 3.686-.737v-7.557c-1.412-.061-2.64-.307-3.686-.737-1.168-.491-1.752-1.075-1.752-1.751 0-.737.584-1.352 1.752-1.843 1.046-.368 2.273-.583 3.686-.645v-7.649c-1.412-.061-2.64-.368-3.686-.921-1.168-.492-1.752-1.014-1.752-1.567 0-.675.584-1.29 1.752-1.843 1.046-.43 2.273-.675 3.686-.737v-7.741c-1.412-.062-2.64-.247-3.686-.553-1.168-.492-1.752-1.137-1.752-1.935 0-.615.584-1.167 1.752-1.659 1.046-.43 2.273-.676 3.686-.738v-7.556c-1.412-.062-2.64-.369-3.686-.921-1.168-.491-1.752-1.014-1.752-1.567 0-.737.584-1.413 1.752-2.027 1.046-.307 2.273-.492 3.686-.553v-7.741c-1.412-.061-2.64-.307-3.686-.737-1.168-.369-1.752-.952-1.752-1.751 0-.615.584-1.167 1.752-1.659 1.046-.43 2.273-.676 3.686-.737v-7.557c-1.412-.061-2.64-.369-3.686-.921-1.168-.492-1.752-1.014-1.752-1.567 0-.737.584-1.413 1.752-2.028 1.046-.43 2.273-.675 3.686-.737v-7.557c-1.412-.061-2.64-.307-3.686-.737-1.168-.491-1.752-1.044-1.752-1.659 0-.799.584-1.382 1.752-1.751 1.046-.43 2.273-.675 3.686-.737v-7.741c-1.412-.062-2.64-.338-3.686-.83-1.168-.43-1.752-.952-1.752-1.567 0-.676.584-1.32 1.752-1.935 1.046-.43 2.273-.676 3.686-.737V82.56c-1.412-.063-2.64-.307-3.686-.737-1.168-.491-1.752-1.045-1.752-1.66 0-.798.584-1.443 1.752-1.935 1.046-.307 2.273-.492 3.686-.553V69.93c-1.412-.061-2.64-.338-3.686-.83-1.168-.492-1.752-1.014-1.752-1.566 0-.676.584-1.352 1.752-2.027 1.046-.369 2.273-.584 3.686-.645v-2.396c0-.492.092-.86.277-1.106.062-1.536.275-2.795.645-3.779.675-1.29 1.291-1.935 1.843-1.935.676 0 1.261.646 1.752 1.935.43.86.705 1.936.829 3.226H501c0-1.29.184-2.365.552-3.226.491-1.29 1.105-1.935 1.844-1.935.675 0 1.258.646 1.751 1.935.367.86.613 1.936.736 3.226h7.649c.062-1.29.275-2.365.645-3.226.553-1.29 1.136-1.935 1.751-1.935.738 0 1.321.646 1.752 1.935.43.86.707 1.936.829 3.226h7.739c.062-1.29.277-2.365.646-3.226.431-1.29 1.014-1.935 1.751-1.935.676 0 1.261.646 1.75 1.935.369.86.615 1.936.738 3.226h7.649c.061-1.29.275-2.365.645-3.226.552-1.29 1.137-1.935 1.751-1.935.736 0 1.352.646 1.843 1.935.431.86.708 1.936.83 3.226h7.647c.063-1.29.277-2.365.646-3.226.489-1.29 1.074-1.935 1.749-1.935.738 0 1.321.646 1.752 1.935.369.86.613 1.936.737 3.226h7.741c0-1.29.184-2.365.553-3.226.553-1.29 1.168-1.935 1.844-1.935.675 0 1.258.646 1.751 1.935.429.86.706 1.936.828 3.226h7.649c.062-1.29.277-2.365.645-3.226.493-1.29 1.076-1.935 1.751-1.935.738 0 1.352.646 1.843 1.935.369.86.586 1.936.646 3.226h7.739c.062-1.29.277-2.365.646-3.226.431-1.29 1.014-1.935 1.751-1.935.676 0 1.261.646 1.75 1.935.432.86.707 1.936.83 3.226h12.631m-12.626 0h-4.978m-20.273 0h-4.976m17.51 0h-4.885m55.477 0h-4.791m-7.651 0h-5.16m-96.116 0h-4.977m-20.274 0h-3.871c-.553 0-.95.184-1.197.553m-.278 3.502v5.068m0 20.182v5.068m17.971-34.373h-4.883m-13.088 16.864v4.884m68.472-21.748h-4.885m-20.365 0h-4.886m17.604 0h-5.068m-50.872 54.555v5.253m0 20.182v5.068m0-17.693v4.884m0 20.366v4.885m0 7.74v5.068m0 7.65v4.977m0-80.821v4.884m168.368-37.967v-7.372c0-1.106-.555-1.659-1.659-1.659h-1.936m4.517 4.331a8.805 8.805 0 0 1-.277 1.015c-.184.491-.399.891-.645 1.198m-11.244-6.544h-5.16m16.404 34.281v-4.884m0-7.741v-4.7m0 42.76v-5.068m0 17.509v-4.701m0 17.51v-4.884m0 17.325v-4.699m0 17.509v-4.884m0 17.509v-4.792m0-71.144v-4.699m0 105.885v-4.792m0 30.042v-4.792m0-7.741v-4.976m0 30.227v-4.885m0 17.509V254.7m-16.404 23.683h5.068m7.742 0h1.936c1.104 0 1.659-.583 1.659-1.749v-9.4m-.001 3.87c.184.245.367.553.553.922m-92.708 6.357h4.884m20.365 0h4.886m-17.51 0h4.791m20.644 0h4.699m20.552 0h4.699m-17.51 0h5.068m-131.781-74.368v4.977m0 20.274v4.977m0-17.695v5.161m0 32.899v4.977m0-17.694v5.068m0 20.183v5.068m.369 5.713c.184.308.553.46 1.105.46h3.779m20.367 0h4.883m-17.415 0h4.791m20.457 0h4.794m20.457 0h4.793m-17.509 0h4.975m112.522-82.016v-4.977m-168.368-.092v5.161"/></g><g><path fill="none" stroke="#666" stroke-width=".05" stroke-linecap="round" stroke-linejoin="round" d="M541.917 88.545c-.736-.921-1.167-2.027-1.289-3.318-.062-1.413.214-2.672.828-3.778.308-.552.707-.952 1.198-1.198-.43-.246-.705-.491-.829-.737-.675-.676-1.075-1.536-1.197-2.581-.062-1.167.122-2.181.553-3.041.491-.737 1.105-1.106 1.843-1.106.798-.061 1.505.185 2.119.738.677.859 1.015 1.813 1.015 2.856a4.346 4.346 0 0 1-.555 2.765c-.061.246-.214.491-.46.737.432.184.893.553 1.382 1.106.738.921 1.138 2.15 1.199 3.686.184.86.154 1.598-.092 2.212a47.544 47.544 0 0 0 4.33-3.686c-.184 0-.369-.123-.553-.369-.491-.552-.737-1.291-.737-2.212 0-.859.246-1.566.737-2.119.616-.553 1.291-.829 2.027-.829.554 0 1.076.276 1.567.829.613.553.922 1.26.922 2.119 0 .554-.125 1.076-.369 1.567h7.003c-.246-.246-.397-.43-.461-.553-.982-.983-1.474-2.304-1.474-3.962 0-1.597.491-2.979 1.474-4.147.491-.491.952-.86 1.383-1.106a14.054 14.054 0 0 1-.922-.83 4.645 4.645 0 0 1-1.013-2.949c0-1.229.338-2.272 1.013-3.133.738-.799 1.567-1.198 2.489-1.198.982 0 1.811.398 2.487 1.198.738.86 1.105 1.904 1.105 3.133 0 1.106-.367 2.09-1.105 2.949a9.643 9.643 0 0 1-.829.737c.737.247 1.29.646 1.659 1.199.982 1.167 1.474 2.55 1.474 4.147 0 1.659-.491 2.979-1.474 3.962-.063 0-.092.062-.092.185 2.21-.247 4.575-.491 7.095-.738-.122-.492-.184-.922-.184-1.29 0-.86.215-1.567.645-2.12.553-.676 1.199-1.014 1.936-1.014.613 0 1.198.338 1.751 1.014.491.553.738 1.259.738 2.12 0 .798-.155 1.413-.461 1.843a343.85 343.85 0 0 0 8.294 3.226h.092l-.092-.185c-.493-1.044-.616-2.365-.369-3.962.246-1.413.83-2.519 1.751-3.318.367-.307.86-.583 1.475-.829-.431-.369-.675-.676-.738-.921-.369-.799-.491-1.751-.369-2.857.247-1.044.738-1.904 1.477-2.58.552-.676 1.166-.922 1.843-.737.799.061 1.411.522 1.843 1.382.429.983.522 1.997.275 3.041-.122 1.045-.553 1.874-1.29 2.488a2.442 2.442 0 0 0-.828.553c.553.308.95.738 1.197 1.291a7.286 7.286 0 0 1 .368 3.962c-.244 1.413-.767 2.549-1.565 3.41-.247.246-.461.4-.646.461a203.95 203.95 0 0 0 8.663 2.396v-.644c0-.86.216-1.567.645-2.121.555-.552 1.198-.829 1.937-.829.799 0 1.383.276 1.75.829.615.554.921 1.26.921 2.121 0 .982-.461 1.874-1.382 2.672h.094m6.54 1.013c.491-.43 1.044-.83 1.658-1.199.493-.368 1.015-.553 1.567-.553-.246-.307-.369-.614-.369-.921-.244-.86-.122-1.813.369-2.856.491-.983 1.168-1.69 2.026-2.12.8-.492 1.536-.583 2.213-.276.737.246 1.137.83 1.198 1.751.245.982.122 2.027-.369 3.132a3.391 3.391 0 0 1-1.843 1.843c-.247.247-.523.43-.83.554.307.368.522.921.645 1.658v.276m17.51 9.4a2.868 2.868 0 0 1-.553.737c-.614.615-1.259 1.045-1.935 1.291h-.83c.186.43.214.952.092 1.567 0 1.044-.399 1.965-1.197 2.765-.86.921-1.689 1.504-2.489 1.75-1.044.369-1.872.246-2.487-.368 1.413 1.72 2.92 3.624 4.516 5.713.062-.492.184-.86.369-1.105.553-.553 1.228-.83 2.027-.83.615 0 1.198.276 1.751.83.491.553.736 1.259.736 2.12 0 .982-.245 1.75-.736 2.304m-1.383-.001v.185l.275 2.765v.921c.86-.921 1.782-1.475 2.765-1.659.493-.123.893-.153 1.199-.092-.184-.307-.184-.583 0-.83 0-.737.277-1.443.83-2.119.613-.737 1.29-1.229 2.026-1.474.675-.124 1.26.061 1.751.552.553.369.799.891.738 1.567a7.099 7.099 0 0 1-.922 2.212c-.615.614-1.26 1.074-1.937 1.382h-.828c.245.307.275.737.092 1.29 0 1.106-.43 2.058-1.29 2.857-.8.982-1.66 1.596-2.581 1.843-.49.123-.983.184-1.475.184l.369 3.687a83.838 83.838 0 0 0 2.12 5.806l-2.212 8.938c.675 1.782 1.014 3.84 1.014 6.174 5.773 4.301 6.881 10.168 3.317 17.602 1.905 8.232 1.045 14.837-2.58 19.813-.86 6.573-3.809 11.181-8.848 13.823-1.475 4.669-4.423 7.894-8.847 9.676-5.222 1.474-8.785 1.596-10.689.368h-.092l1.565-3.133c-.736 0-1.443-.215-2.118-.646a.8.8 0 0 1-.369-.093c2.273 12.472 5.467 22.608 9.585 30.411 4.669 8.602 11.794 16.342 21.379 23.225 5.59.306 8.6.583 9.031.827M593.156 76.934c-.308.247-.738.369-1.291.369a2.724 2.724 0 0 1-.921-.737m-24.237-4.24c-.553.308-1.105.461-1.658.461a3.46 3.46 0 0 1-1.567-.368m16.312 9.215a19.908 19.908 0 0 0-2.12-.921c-.8.185-1.566.307-2.305.368.062.369.217.676.461.921.245.247.492.491.738.738m-14.008-.553c1.843-.123 3.749-.246 5.715-.368-.799.921-1.782 1.382-2.95 1.382-1.106 0-2.027-.339-2.765-1.014zm-25.619 11.795c4.485-.675 9.43-2.641 14.837-5.897a5.23 5.23 0 0 0 .553-.461c.491.123.982.185 1.474.185 3.134.675 6.144.614 9.032-.185a15.86 15.86 0 0 0 4.699-1.659l.83.092a65.37 65.37 0 0 1 3.595 1.751c5.036 2.15 10.75 2.518 17.14 1.105.123-.061.309-.092.553-.092.123 0 .184.031.184.092 4.118 2.949 8.633 5.253 13.548 6.912a66.818 66.818 0 0 0 6.266 1.751c2.212 4.853 6.729 8.693 13.548 11.519.982 5.836 4.423 10.106 10.32 12.81m-65.615-25.066c-1.597-.615-3.194-1.475-4.793-2.58m28.753 4.515a20.269 20.269 0 0 0-7.833-1.567h-.369a1.78 1.78 0 0 0-.921.277c-1.66.368-3.195.644-4.607.829-.738.062-1.383.215-1.936.461-.063-.246-.308-.399-.738-.461-2.089-1.229-4.607-1.72-7.556-1.474-2.15.185-4.577.676-7.28 1.474-3.134-.982-5.774-1.505-7.925-1.567h-1.014c-2.09 0-3.563.4-4.424 1.199-4.669 2.211-7.312 4.423-7.925 6.635-.86-1.105-2.029-1.904-3.503-2.396-1.168-.369-2.487-.552-3.962-.552H528.278c-4.671.675-7.497 3.809-8.479 9.399-5.651 3.072-7.312 7.126-4.976 12.165-5.101 5.468-5.961 10.537-2.58 15.206v.093c-2.149.675-3.409 2.057-3.778 4.147-.247 1.904.184 4.791 1.29 8.662-5.775 8.97-2.949 17.448 8.478 25.435l.922-6.267c.306-7.68 1.26-15.113 2.856-22.301l.461-5.161 2.95-8.662 2.487-7.189.277-.276c6.204 2.827 21.102 1.997 44.694-2.488 2.211 1.905 6.052 2.734 11.52 2.488 3.254 10.752 8.723 20.213 16.402 28.384.124 7.741 1.906 14.468 5.346 20.182l1.752 2.58 5.068 7.926c1.781 2.642 3.501 4.116 5.16 4.423h1.014c-1.228.491-2.765 3.624-4.608 9.4l-.092.184c.798.799 1.197 1.782 1.197 2.949.369 1.536.122 3.103-.736 4.7-.86 1.659-2.12 2.765-3.778 3.317-.737.246-1.414.369-2.028.369M575.461 98.313h2.674m14.375-12.256a41.787 41.787 0 0 0-4.33-1.198c.43 1.044 1.136 1.597 2.118 1.659.738.185 1.475.03 2.212-.461zm-.645 14.008a30.681 30.681 0 0 1 4.978 4.792 99.11 99.11 0 0 0 6.45 1.843c2.088 5.406 6.419 9.614 12.994 12.625.982 6.205 4.269 10.782 9.859 13.731l.461 3.778c1.29 1.045 2.734 2.427 4.332 4.147a19.842 19.842 0 0 1 3.317 5.99M617.3 90.85c-.491 0-.982-.063-1.474-.185a3.304 3.304 0 0 1-.922-.922m-9.861.737c-.367-.491-.614-.891-.736-1.198a38.211 38.211 0 0 1-3.134-.83c.122.615.339 1.137.645 1.567v.093l.738.737m9.031 6.267l-1.476-1.291a2.782 2.782 0 0 0 0 1.014v.276c.246 1.106.769 1.843 1.567 2.212.983.492 1.936.43 2.856-.184a129.974 129.974 0 0 0-2.947-2.027zm-6.45-6.636c1.35 1.905 3.009 3.686 4.975 5.345 0-.798.246-1.689.738-2.672.244-.615.521-1.167.829-1.659m2.856 7.65h.277a5.518 5.518 0 0 0 1.475-1.198m3.961.737c-.306.061-.675.276-1.104.645-.431.553-.645 1.259-.645 2.12.86.491 1.721.982 2.579 1.474.246.307.553.737.922 1.291m.829-.462c.616-.553.922-1.26.922-2.119 0-.984-.306-1.751-.922-2.304l-.092-.184m-2.856 5.344l-.737-.737c-.431-.553-.645-1.26-.645-2.119v-.185a28.388 28.388 0 0 1-3.687-2.304m7.188 5.069a70.964 70.964 0 0 0 3.594 4.976c-.244-.43-.338-.952-.277-1.566 0-.921.433-1.843 1.291-2.765.738-.983 1.629-1.505 2.673-1.567.43-.246.86-.338 1.29-.276-.186-.308-.186-.584 0-.83 0-.369.123-.707.369-1.013m1.197 3.041c-.431 0-.769-.124-1.014-.369-.306-.122-.491-.398-.553-.829m-85.427-23.131c-.429.307-.922.46-1.475.46-.369.185-.707.154-1.014-.092m-10.781 21.381c.184-.492.092-1.076-.277-1.751a13.367 13.367 0 0 1-1.935 1.751m1.935-1.752c2.149-2.396 3.349-4.147 3.595-5.253m16.771-11.426a8.49 8.49 0 0 0 1.475-1.199 8.92 8.92 0 0 1 1.751.185c.124-.123.246-.123.369 0m-9.585 6.266a18.902 18.902 0 0 1-2.487 1.567c.369.062.707.062 1.014 0 1.104 0 1.935-.522 2.487-1.567 0-.178.094-.27.277-.276m-1.291.276a43.248 43.248 0 0 0 1.66-1.566 6.86 6.86 0 0 0-.369 1.29m-11.428 14.007c3.749-1.167 7.587-3.256 11.52-6.266a33.71 33.71 0 0 0 4.332.829m-26.725 116.668c-3.625-9.461-5.651-20.55-6.084-33.268-.062-3.317.032-6.543.277-9.676m6.268-36.124a107.828 107.828 0 0 0-3.411 13.823m103.582-38.982c.062.247.216.492.461.738m7.28 9.031v-.185a31.31 31.31 0 0 1-2.765-3.133 1.92 1.92 0 0 0-.277 1.014c0 .982.215 1.75.646 2.304.307.246.583.43.828.553m2.582 12.717a54.08 54.08 0 0 1-.738-3.87 3.045 3.045 0 0 1-.46-.369c-.614-.491-.861-1.26-.736-2.304 0-.86.308-1.597.921-2.212 0-.675.062-1.198.184-1.566m-.185 1.566c.123-.246.215-.461.275-.645l.369 5.713c-.062 0-.184-.061-.369-.184-.305-1.781-.399-3.409-.275-4.884zm1.014 8.755l.369 4.424m-37.875-31.794c2.396 2.826 4.146 6.143 5.252 9.953 9.276 3.133 16.281 9.707 21.012 19.721 1.044.369 2.21 1.137 3.501 2.304m-58.703 28.936c.736-.185 1.566-.276 2.487-.276 1.968 0 3.994.583 6.082 1.75.799.553 1.69 1.26 2.673 2.12v.092h-.092c-1.352.86-2.642 1.536-3.87 2.028-2.028.737-4.055 1.013-6.083.829-2.396-.307-4.73-1.29-7.004-2.948 1.907-1.721 3.84-2.919 5.807-3.595zm-7.925 2.488a7.71 7.71 0 0 1 1.75-1.475c2.764-2.15 5.529-3.317 8.293-3.501 3.012-.185 6.052.86 9.124 3.133 1.107.615 2.273 1.567 3.503 2.856m25.251 8.755v2.857c-.186 6.082-.983 11.857-2.397 17.325V201.065m.645.555a6.736 6.736 0 0 1 3.134-2.396c1.35-.615 2.643-.615 3.87 0m.184-.001c1.29-1.413 2.887-4.362 4.793-8.847M552.7 96.747c3.439 0 6.604-.829 9.49-2.487m75.384 26.816c.061.307.216.583.461.83.369.307.767.461 1.198.461m-24.79 77.593a2.466 2.466 0 0 0-.829-.553c-.179-.119-.332-.18-.461-.184m1.751 5.161c.247 1.044.092 2.119-.461 3.225-.553.922-1.382 1.628-2.489 2.12-.736.246-1.443.246-2.118 0-.124 0-.308-.093-.553-.276-.86-.43-1.321-1.168-1.382-2.212-.186-1.106-.033-2.182.46-3.226.614-1.106 1.411-1.782 2.396-2.027 1.044-.368 1.996-.276 2.856.276.8.308 1.229 1.014 1.291 2.12zm-9.4-5.437c-.062.43-.184.891-.367 1.382-2.459 8.294-6.451 15.942-11.98 22.947-9.401 12.164-20.429 18.246-33.084 18.246-3.503 0-6.789-.489-9.861-1.475 1.781 3.257 2.765 6.882 2.95 10.875.184 2.457.184 6.882 0 13.271m52.71-61.929c-.061 0-.184.031-.368.093-.8 1.598-1.136 3.226-1.014 4.884.369 1.474 1.074 2.58 2.12 3.317m-1.106-8.202v-1.291m-55.293 38.982c-7.986-2.272-14.623-7.556-19.905-15.85l-1.843-3.318"/></g><g><path fill="none" stroke="#AABFFF" stroke-width=".05" stroke-linecap="round" stroke-linejoin="round" d="M605.137 90.48c2.332.369 4.514.707 6.542 1.014m-1.568 5.345c.493 0 .982.092 1.476.276m-64.324-8.938c-.376.002-.807.095-1.291.276"/></g><g><path fill="none" stroke="#AAA" stroke-width=".05" stroke-linecap="round" stroke-linejoin="round" d="M579.147 169.365l-.092.092m26.449 31.609c.246.246.46.43.646.554a.875.875 0 0 0-.277.644"/></g><g><path fill="none" stroke="#333" stroke-width=".05" stroke-linecap="round" stroke-linejoin="round" d="M584.124 155.358c-10.259-3.625-19.014-2.949-26.264 2.027l-.645.461c-.308 2.396.736 3.471 3.132 3.225 2.336-1.413 4.73-2.488 7.188-3.225.8-.308 1.752-.461 2.856-.461 2.704-.491 5.346-.615 7.926-.369l1.198.461c1.413.185 2.856.553 4.33 1.106 2.215-.246 2.306-1.321.279-3.225zm-40.087 5.345c-.369.491-1.228.645-2.581.46l-.367-.092c-1.354-.86-3.104-1.536-5.254-2.027a8.186 8.186 0 0 1-1.197-.369c-1.168-.246-3.871-.645-8.11-1.198-1.044-.307-1.29-1.137-.737-2.488 3.011-1.044 5.129-1.382 6.358-1.013l4.333 1.013c2.518.799 4.575 2.119 6.173 3.962l1.382 1.752c.738 1.291 1.105 3.103 1.105 5.438v1.198a20.013 20.013 0 0 1-1.289 5.345c-4.607 10.137-6.729 16.71-6.359 19.722.553 3.256 4.208 4.269 10.967 3.041.922-1.167 1.872-1.905 2.856-2.212 1.168-.307 2.519-.031 4.056.83 3.07.123 4.238-1.137 3.501-3.779-.859-2.703-2.519-4.208-4.978-4.515m-23.221-20.276c-1.475.43-2.856 1.352-4.147 2.765 1.413 1.536 2.948 2.488 4.608 2.856-.738-.859-1.138-1.904-1.199-3.133.061-.799.307-1.629.738-2.488.799-.246 1.537-.369 2.212-.369 1.966 0 4.146.706 6.543 2.119.306.308.677.584 1.104.83-.489.369-.889.676-1.196.922-3.012 1.904-5.744 2.61-8.202 2.119m10.781-4.147a38.091 38.091 0 0 0-4.054-2.488c-1.659-.614-3.196-.921-4.607-.921h-.738c-1.966.062-3.963.769-5.99 2.12-.491.307-1.013.675-1.565 1.105m11.61 2.672c-.492.492-1.075.737-1.752.737-.553 0-1.076-.246-1.565-.737a5.457 5.457 0 0 1-.738-1.474c.184-.738.431-1.26.738-1.567.489-.491 1.013-.737 1.565-.737.677 0 1.26.246 1.752.737.368.368.552.891.552 1.567 0 .553-.184 1.044-.552 1.474zm2.765-.46a6.26 6.26 0 0 0 .092-1.014v-.738m28.475-1.474a4.995 4.995 0 0 0-.829 2.488c.061 1.474.491 2.611 1.29 3.41.247.184.491.398.736.644m1.291-2.487c-.491-.369-.736-.891-.736-1.567s.245-1.167.736-1.475c.309-.491.83-.737 1.568-.737.613 0 1.166.246 1.657.737.308.369.461.86.461 1.475 0 .676-.153 1.198-.461 1.567-.491.491-1.044.737-1.657.737-.738 0-1.26-.246-1.568-.737zm6.082-2.581v1.014c0 1.29-.428 2.365-1.289 3.226m-4.793 38.244c-6.634 3.932-13.515 5.897-20.643 5.897-7.372.185-12.594-1.781-15.666-5.897l8.939-1.475 5.16.83 5.713-.83 16.497 1.475c-13.454 3.133-25.557 3.133-36.309 0m-5.621 11.15a75.134 75.134 0 0 1-3.501-7.464"/></g></svg>