<?xml version="1.0" encoding="utf-8"?>
<!-- Generator: Adobe Illustrator 16.0.0, SVG Export Plug-In . SVG Version: 6.00 Build 0)  -->
<!DOCTYPE svg PUBLIC "-//W3C//DTD SVG 1.1//EN" "http://www.w3.org/Graphics/SVG/1.1/DTD/svg11.dtd">
<svg version="1.1" id="Layer_1" xmlns="http://www.w3.org/2000/svg" xmlns:xlink="http://www.w3.org/1999/xlink" x="0px" y="0px"
	 width="900px" height="450px" viewBox="0 0 900 450" enable-background="new 0 0 900 450" xml:space="preserve">
<g transform="matrix( 1, 0, 0, 1, 0,0) ">
	<g>
		<g id="Layer0_0_FILL">
			<path fill="#C69768" d="M691.854,32.055c0-2.396-1.199-3.594-3.595-3.594H209.146l1.475,392.395l481.232,0.184V32.055
				 M602.647,57.581c0.491-1.29,1.106-1.935,1.843-1.935c0.675,0,1.26,0.646,1.751,1.935c0.369,0.86,0.616,1.936,0.738,3.226h7.647
				c0.063-1.29,0.277-2.365,0.646-3.226c0.489-1.29,1.074-1.935,1.749-1.935c0.738,0,1.321,0.646,1.752,1.935
				c0.552,0.86,0.891,1.936,1.013,3.226h7.65c0.061-1.29,0.276-2.365,0.644-3.226c0.369-1.29,0.922-1.935,1.66-1.935
				c0.799,0,1.382,0.646,1.751,1.935c0.369,0.86,0.613,1.936,0.736,3.226h7.649c0.062-1.29,0.277-2.365,0.645-3.226
				c0.493-1.29,1.076-1.935,1.751-1.935c0.738,0,1.352,0.646,1.843,1.935c0.492,0.86,0.8,1.936,0.922,3.226h7.649
				c0.062-1.29,0.275-2.365,0.645-3.226c0.491-1.29,1.046-1.935,1.66-1.935c0.797,0,1.443,0.646,1.935,1.935
				c0.369,1.106,0.553,2.519,0.553,4.24c0,1.229-0.092,2.334-0.275,3.317c0.552,0.062,1.074,0.185,1.565,0.369
				c1.228,0.676,1.843,1.352,1.843,2.027c0,0.553-0.615,1.075-1.843,1.566c-0.738,0.369-1.565,0.614-2.487,0.738v7.925
				c0.922,0.061,1.749,0.215,2.487,0.461c1.228,0.491,1.843,1.137,1.843,1.935c0,0.615-0.615,1.168-1.843,1.66
				c-0.738,0.307-1.565,0.522-2.487,0.645v7.741c0.922,0.123,1.749,0.338,2.487,0.646c1.228,0.614,1.843,1.259,1.843,1.935
				c0,0.615-0.615,1.137-1.843,1.567c-0.738,0.369-1.565,0.615-2.487,0.737v7.926c0.922,0.122,1.749,0.337,2.487,0.644
				c1.228,0.369,1.843,0.952,1.843,1.751c0,0.615-0.615,1.167-1.843,1.659c-0.738,0.307-1.565,0.523-2.487,0.645v7.742
				c0.922,0.122,1.749,0.337,2.487,0.644c1.228,0.615,1.843,1.291,1.843,2.028c0,0.553-0.615,1.075-1.843,1.567
				c-0.738,0.369-1.565,0.645-2.487,0.83v7.74c0.922,0.124,1.749,0.338,2.487,0.646c1.228,0.491,1.843,1.044,1.843,1.659
				c0,0.799-0.615,1.382-1.843,1.751c-0.738,0.307-1.565,0.522-2.487,0.646v7.925c0.922,0.061,1.749,0.215,2.487,0.461
				c1.228,0.615,1.843,1.291,1.843,2.027c0,0.553-0.615,1.076-1.843,1.567c-0.738,0.368-1.565,0.645-2.487,0.829v7.741
				c0.922,0.123,1.749,0.337,2.487,0.645c1.228,0.492,1.843,1.044,1.843,1.659c0,0.798-0.615,1.443-1.843,1.935
				c-0.738,0.246-1.565,0.399-2.487,0.46v7.926c0.922,0.122,1.749,0.337,2.487,0.644c1.228,0.554,1.843,1.168,1.843,1.843
				c0,0.553-0.615,1.075-1.843,1.567c-0.738,0.369-1.565,0.645-2.487,0.83v7.833c0.922,0.123,1.749,0.307,2.487,0.553
				c1.228,0.491,1.843,1.106,1.843,1.843c0,0.676-0.615,1.26-1.843,1.751c-0.738,0.307-1.565,0.522-2.487,0.646v7.74
				c0.922,0.124,1.749,0.338,2.487,0.646c1.228,0.553,1.843,1.198,1.843,1.935c0,0.615-0.615,1.106-1.843,1.475
				c-0.738,0.43-1.565,0.737-2.487,0.922v7.74c0.922,0.124,1.749,0.338,2.487,0.646c1.228,0.43,1.843,1.014,1.843,1.751
				c0,0.737-0.615,1.32-1.843,1.75c-0.738,0.308-1.565,0.523-2.487,0.646v7.741c0.922,0.122,1.749,0.337,2.487,0.645
				c1.228,0.553,1.843,1.198,1.843,1.935c0,0.553-0.615,1.106-1.843,1.659c-0.738,0.369-1.565,0.615-2.487,0.737v7.741
				c0.922,0.123,1.749,0.339,2.487,0.645c1.228,0.493,1.843,1.076,1.843,1.751c0,0.738-0.615,1.353-1.843,1.844
				c-0.738,0.246-1.565,0.43-2.487,0.553v7.833c0.922,0.122,1.749,0.308,2.487,0.554c1.228,0.614,1.843,1.261,1.843,1.936
				c0,0.553-0.615,1.104-1.843,1.657c-0.738,0.369-1.565,0.616-2.487,0.738v7.833c0.922,0.122,1.749,0.306,2.487,0.553
				c1.228,0.491,1.843,1.106,1.843,1.843c0,0.675-0.615,1.26-1.843,1.752c-0.738,0.306-1.565,0.521-2.487,0.644v7.742
				c0.922,0.124,1.749,0.338,2.487,0.646c1.228,0.553,1.843,1.167,1.843,1.844c0,0.675-0.615,1.196-1.843,1.565
				c-0.615,0.306-1.26,0.553-1.935,0.738c0,0.061,0.03,0.122,0.092,0.184c0.369,1.228,0.553,2.703,0.553,4.424
				c0,1.657-0.184,3.164-0.553,4.515c-0.491,1.043-1.138,1.567-1.935,1.567c-0.614,0-1.169-0.524-1.66-1.567
				c-0.308-0.861-0.521-1.782-0.645-2.766h-7.741c-0.184,0.983-0.461,1.904-0.83,2.766c-0.491,1.043-1.104,1.567-1.843,1.567
				c-0.675,0-1.258-0.524-1.751-1.567c-0.306-0.861-0.522-1.782-0.645-2.766h-7.741c-0.123,0.983-0.337,1.904-0.645,2.766
				c-0.369,1.043-0.952,1.567-1.751,1.567c-0.738,0-1.291-0.524-1.66-1.567c-0.306-0.861-0.521-1.782-0.644-2.766h-7.742
				c-0.184,0.983-0.491,1.904-0.921,2.766c-0.431,1.043-1.014,1.567-1.752,1.567c-0.675,0-1.26-0.524-1.749-1.567
				c-0.308-0.861-0.522-1.782-0.646-2.766h-7.741c-0.122,0.983-0.338,1.904-0.645,2.766c-0.491,1.043-1.076,1.567-1.751,1.567
				c-0.736,0-1.352-0.524-1.843-1.567c-0.247-0.861-0.398-1.782-0.461-2.766h-7.925c-0.123,0.983-0.369,1.904-0.738,2.766
				c-0.489,1.043-1.074,1.567-1.75,1.567c-0.737,0-1.32-0.524-1.751-1.567c-0.308-0.861-0.523-1.782-0.646-2.766h-7.833
				c-0.122,0.983-0.306,1.904-0.553,2.766c-0.491,1.043-1.104,1.567-1.843,1.567c-0.675,0-1.258-0.524-1.751-1.567
				c-0.307-0.861-0.522-1.782-0.645-2.766h-7.741c-0.122,0.983-0.369,1.904-0.736,2.766c-0.493,1.043-1.076,1.567-1.751,1.567
				c-0.676,0-1.291-0.524-1.844-1.567c-0.246-0.861-0.43-1.782-0.553-2.766h-7.833c-0.122,0.983-0.338,1.904-0.646,2.766
				c-0.431,1.043-1.014,1.567-1.752,1.567c-0.675,0-1.26-0.524-1.749-1.567c-0.308-0.861-0.522-1.782-0.646-2.766h-7.741
				c-0.122,0.983-0.367,1.904-0.736,2.766c-0.491,1.043-1.106,1.567-1.843,1.567c-0.614,0-1.199-0.524-1.751-1.567
				c-0.307-0.861-0.522-1.782-0.645-2.766h-7.741c-0.125,0.983-0.339,1.904-0.646,2.766c-0.489,1.043-1.074,1.567-1.75,1.567
				c-0.737,0-1.32-0.524-1.751-1.567c-0.308-0.861-0.523-1.782-0.646-2.766h-7.833c-0.122,0.983-0.367,1.904-0.735,2.766
				c-0.431,1.043-1.014,1.567-1.752,1.567c-0.615,0-1.198-0.524-1.751-1.567c-0.308-0.861-0.522-1.782-0.645-2.766h-7.741
				c-0.123,0.983-0.339,1.904-0.645,2.766c-0.493,1.043-1.076,1.567-1.751,1.567c-0.738,0-1.353-0.524-1.844-1.567
				c-0.246-0.861-0.43-1.782-0.552-2.766h-7.834c-0.122,0.983-0.368,1.904-0.737,2.766c-0.491,1.043-1.076,1.567-1.752,1.567
				c-0.552,0-1.168-0.524-1.843-1.567c-0.308-0.983-0.491-2.058-0.553-3.226c-0.244-0.307-0.369-0.736-0.369-1.289v-4.424
				c-1.412-0.062-2.64-0.369-3.686-0.922c-1.168-0.369-1.752-0.891-1.752-1.565c0-0.677,0.584-1.291,1.752-1.844
				c1.046-0.432,2.273-0.677,3.686-0.737v-7.557c-1.412-0.061-2.64-0.308-3.686-0.737c-1.168-0.492-1.752-1.077-1.752-1.752
				c0-0.736,0.584-1.352,1.752-1.843c1.046-0.369,2.273-0.583,3.686-0.645v-7.649c-1.412-0.062-2.64-0.337-3.686-0.83
				c-1.168-0.553-1.752-1.104-1.752-1.657c0-0.675,0.584-1.321,1.752-1.936c1.046-0.368,2.273-0.583,3.686-0.646v-7.648
				c-1.412-0.061-2.64-0.276-3.686-0.646c-1.168-0.491-1.752-1.105-1.752-1.844c0-0.675,0.584-1.258,1.752-1.751
				c1.046-0.429,2.273-0.675,3.686-0.736v-7.557c-1.412-0.062-2.64-0.338-3.686-0.83c-1.168-0.553-1.752-1.106-1.752-1.659
				c0-0.737,0.584-1.382,1.752-1.935c1.046-0.43,2.273-0.676,3.686-0.738v-7.556c-1.412-0.062-2.64-0.308-3.686-0.738
				c-1.168-0.43-1.752-1.013-1.752-1.75c0-0.737,0.584-1.321,1.752-1.751c1.046-0.43,2.273-0.676,3.686-0.737v-7.557
				c-1.412-0.062-2.64-0.399-3.686-1.014c-1.168-0.369-1.752-0.86-1.752-1.475c0-0.737,0.584-1.382,1.752-1.935
				c1.046-0.43,2.273-0.676,3.686-0.737v-7.557c-1.412-0.061-2.64-0.307-3.686-0.737c-1.168-0.491-1.752-1.075-1.752-1.751
				c0-0.737,0.584-1.352,1.752-1.843c1.046-0.368,2.273-0.583,3.686-0.645v-7.649c-1.412-0.061-2.64-0.368-3.686-0.921
				c-1.168-0.492-1.752-1.014-1.752-1.567c0-0.675,0.584-1.29,1.752-1.843c1.046-0.43,2.273-0.675,3.686-0.737v-7.741
				c-1.412-0.062-2.64-0.247-3.686-0.553c-1.168-0.492-1.752-1.137-1.752-1.935c0-0.615,0.584-1.167,1.752-1.659
				c1.046-0.43,2.273-0.676,3.686-0.738v-7.556c-1.412-0.062-2.64-0.369-3.686-0.921c-1.168-0.491-1.752-1.014-1.752-1.567
				c0-0.737,0.584-1.413,1.752-2.027c1.046-0.307,2.273-0.492,3.686-0.553v-7.741c-1.412-0.061-2.64-0.307-3.686-0.737
				c-1.168-0.369-1.752-0.952-1.752-1.751c0-0.615,0.584-1.167,1.752-1.659c1.046-0.43,2.273-0.676,3.686-0.737v-7.557
				c-1.412-0.061-2.64-0.369-3.686-0.921c-1.168-0.492-1.752-1.014-1.752-1.567c0-0.737,0.584-1.413,1.752-2.028
				c1.046-0.43,2.273-0.675,3.686-0.737v-7.557c-1.412-0.061-2.64-0.307-3.686-0.737c-1.168-0.491-1.752-1.044-1.752-1.659
				c0-0.799,0.584-1.382,1.752-1.751c1.046-0.43,2.273-0.675,3.686-0.737v-7.741c-1.412-0.062-2.64-0.338-3.686-0.83
				c-1.168-0.43-1.752-0.952-1.752-1.567c0-0.676,0.584-1.32,1.752-1.935c1.046-0.43,2.273-0.676,3.686-0.737v-7.557
				c-1.412-0.063-2.64-0.307-3.686-0.737c-1.168-0.491-1.752-1.045-1.752-1.66c0-0.798,0.584-1.443,1.752-1.935
				c1.046-0.307,2.273-0.492,3.686-0.553V69.93c-1.412-0.061-2.64-0.338-3.686-0.83c-1.168-0.492-1.752-1.014-1.752-1.566
				c0-0.676,0.584-1.352,1.752-2.027c1.046-0.369,2.273-0.584,3.686-0.645v-2.396c0-0.492,0.092-0.86,0.277-1.106
				c0.062-1.536,0.275-2.795,0.645-3.779c0.675-1.29,1.291-1.935,1.843-1.935c0.676,0,1.261,0.646,1.752,1.935
				c0.43,0.86,0.705,1.936,0.829,3.226h7.742c0-1.29,0.184-2.365,0.552-3.226c0.491-1.29,1.105-1.935,1.844-1.935
				c0.675,0,1.258,0.646,1.751,1.935c0.367,0.86,0.613,1.936,0.736,3.226h7.649c0.062-1.29,0.275-2.365,0.645-3.226
				c0.553-1.29,1.136-1.935,1.751-1.935c0.738,0,1.321,0.646,1.752,1.935c0.43,0.86,0.707,1.936,0.829,3.226h7.739
				c0.062-1.29,0.277-2.365,0.646-3.226c0.431-1.29,1.014-1.935,1.751-1.935c0.676,0,1.261,0.646,1.75,1.935
				c0.369,0.86,0.615,1.936,0.738,3.226h7.649c0.061-1.29,0.275-2.365,0.645-3.226c0.552-1.29,1.137-1.935,1.751-1.935
				c0.736,0,1.352,0.646,1.843,1.935c0.431,0.86,0.708,1.936,0.83,3.226h7.647c0.063-1.29,0.277-2.365,0.646-3.226
				c0.489-1.29,1.074-1.935,1.749-1.935c0.738,0,1.321,0.646,1.752,1.935c0.369,0.86,0.613,1.936,0.737,3.226h7.741
				c0-1.29,0.184-2.365,0.553-3.226c0.553-1.29,1.168-1.935,1.844-1.935c0.675,0,1.258,0.646,1.751,1.935
				c0.429,0.86,0.706,1.936,0.828,3.226h7.649c0.062-1.29,0.277-2.365,0.645-3.226c0.493-1.29,1.076-1.935,1.751-1.935
				c0.738,0,1.352,0.646,1.843,1.935c0.369,0.86,0.586,1.936,0.646,3.226h7.739c0.062-1.29,0.277-2.365,0.646-3.226
				c0.431-1.29,1.014-1.935,1.751-1.935c0.676,0,1.261,0.646,1.75,1.935c0.432,0.86,0.707,1.936,0.83,3.226h7.833
				C602.187,59.517,602.339,58.441,602.647,57.581z"/>
			<path fill="#EDECFF" d="M556.294,278.383h-4.793c0.124,0.983,0.339,1.904,0.646,2.766c0.489,1.043,1.074,1.567,1.749,1.567
				c0.738,0,1.321-0.524,1.752-1.567C555.956,280.287,556.172,279.366,556.294,278.383 M538.785,278.383
				c0.122,0.983,0.338,1.904,0.645,2.766c0.552,1.043,1.137,1.567,1.751,1.567c0.736,0,1.352-0.524,1.843-1.567
				c0.369-0.861,0.614-1.782,0.736-2.766H538.785 M531.044,278.383h-4.794c0.123,0.983,0.339,1.904,0.646,2.766
				c0.431,1.043,1.014,1.567,1.751,1.567c0.676,0,1.261-0.524,1.75-1.567C530.705,280.287,530.919,279.366,531.044,278.383
				 M515.93,282.716c0.738,0,1.321-0.524,1.752-1.567c0.368-0.861,0.613-1.782,0.735-2.766h-4.883
				c0.122,0.983,0.337,1.904,0.645,2.766C514.731,282.191,515.314,282.716,515.93,282.716 M501.554,281.148
				c0.491,1.043,1.105,1.567,1.844,1.567c0.675,0,1.258-0.524,1.751-1.567c0.306-0.861,0.521-1.782,0.645-2.766h-4.791
				C501.124,279.366,501.308,280.287,501.554,281.148 M492.431,281.148c0.369-0.861,0.615-1.782,0.737-2.766h-3.779
				c-0.553,0-0.922-0.152-1.105-0.46c0.062,1.168,0.245,2.242,0.553,3.226c0.675,1.043,1.291,1.567,1.843,1.567
				C491.354,282.716,491.939,282.191,492.431,281.148 M632.137,278.383h-4.699c0.122,0.983,0.338,1.904,0.644,2.766
				c0.369,1.043,0.922,1.567,1.66,1.567c0.799,0,1.382-0.524,1.751-1.567C631.8,280.287,632.014,279.366,632.137,278.383
				 M614.627,278.383c0.124,0.983,0.339,1.904,0.646,2.766c0.489,1.043,1.074,1.567,1.749,1.567c0.738,0,1.321-0.524,1.752-1.567
				c0.43-0.861,0.737-1.782,0.921-2.766H614.627 M606.886,278.383h-4.699c0.063,0.983,0.214,1.904,0.461,2.766
				c0.491,1.043,1.106,1.567,1.843,1.567c0.675,0,1.26-0.524,1.751-1.567C606.548,280.287,606.764,279.366,606.886,278.383
				 M594.262,278.383h-4.886c0.123,0.983,0.339,1.904,0.646,2.766c0.431,1.043,1.014,1.567,1.751,1.567
				c0.676,0,1.261-0.524,1.75-1.567C593.893,280.287,594.139,279.366,594.262,278.383 M577.396,281.148
				c0.493,1.043,1.076,1.567,1.751,1.567c0.738,0,1.352-0.524,1.843-1.567c0.247-0.861,0.431-1.782,0.553-2.766h-4.791
				C576.874,279.366,577.09,280.287,577.396,281.148 M569.011,278.383h-4.884c0.123,0.983,0.307,1.904,0.553,2.766
				c0.553,1.043,1.168,1.567,1.844,1.567c0.675,0,1.258-0.524,1.751-1.567C568.642,280.287,568.889,279.366,569.011,278.383
				 M658.77,267.879c-0.738-0.308-1.565-0.521-2.487-0.646v3.871c0.184,0.245,0.367,0.553,0.553,0.922
				c0.675-0.186,1.319-0.433,1.935-0.738c1.228-0.369,1.843-0.891,1.843-1.565C660.612,269.046,659.997,268.432,658.77,267.879
				 M644.116,281.148c0.369-0.861,0.646-1.782,0.83-2.766h-5.068c0.122,0.983,0.339,1.904,0.645,2.766
				c0.493,1.043,1.076,1.567,1.751,1.567C643.012,282.716,643.625,282.191,644.116,281.148 M652.688,278.383
				c0.123,0.983,0.337,1.904,0.645,2.766c0.491,1.043,1.046,1.567,1.66,1.567c0.797,0,1.443-0.524,1.935-1.567
				c0.369-1.351,0.553-2.857,0.553-4.515c0-1.721-0.184-3.196-0.553-4.424c-0.062-0.062-0.092-0.123-0.092-0.184
				c-0.186-0.369-0.369-0.677-0.553-0.922v5.529c0,1.166-0.555,1.749-1.659,1.749H652.688 M658.77,255.253
				c-0.738-0.247-1.565-0.431-2.487-0.553v4.791c0.922-0.122,1.749-0.338,2.487-0.644c1.228-0.492,1.843-1.077,1.843-1.752
				C660.612,256.359,659.997,255.744,658.77,255.253 M656.282,246.867c0.922-0.122,1.749-0.369,2.487-0.738
				c1.228-0.553,1.843-1.104,1.843-1.657c0-0.675-0.615-1.321-1.843-1.936c-0.738-0.246-1.565-0.432-2.487-0.554V246.867
				 M656.282,229.357v4.792c0.922-0.123,1.749-0.307,2.487-0.553c1.228-0.491,1.843-1.105,1.843-1.844
				c0-0.675-0.615-1.258-1.843-1.751C658.031,229.696,657.204,229.48,656.282,229.357 M658.77,204.752
				c-0.738-0.307-1.565-0.522-2.487-0.646v4.792c0.922-0.123,1.749-0.338,2.487-0.646c1.228-0.43,1.843-1.013,1.843-1.75
				C660.612,205.767,659.997,205.183,658.77,204.752 M658.77,217.286c-0.738-0.308-1.565-0.523-2.487-0.645v4.976
				c0.922-0.122,1.749-0.368,2.487-0.737c1.228-0.553,1.843-1.106,1.843-1.659C660.612,218.483,659.997,217.838,658.77,217.286
				 M484.229,242.536c-1.168,0.614-1.752,1.261-1.752,1.936c0,0.553,0.584,1.104,1.752,1.657c1.046,0.493,2.273,0.769,3.686,0.83
				v-5.068C486.502,241.953,485.274,242.168,484.229,242.536 M484.229,267.879c-1.168,0.553-1.752,1.167-1.752,1.844
				c0,0.675,0.584,1.196,1.752,1.565c1.046,0.553,2.273,0.86,3.686,0.922v-5.068C486.502,267.202,485.274,267.447,484.229,267.879
				 M484.229,255.253c-1.168,0.491-1.752,1.106-1.752,1.843c0,0.675,0.584,1.26,1.752,1.752c1.046,0.43,2.273,0.677,3.686,0.737
				v-4.977C486.502,254.67,485.274,254.884,484.229,255.253 M484.229,217.286c-1.168,0.553-1.752,1.198-1.752,1.935
				c0,0.553,0.584,1.106,1.752,1.659c1.046,0.491,2.273,0.768,3.686,0.83v-5.161C486.502,216.61,485.274,216.855,484.229,217.286
				 M484.229,204.752c-1.168,0.43-1.752,1.014-1.752,1.751c0,0.737,0.584,1.32,1.752,1.75c1.046,0.43,2.273,0.676,3.686,0.738
				v-4.977C486.502,204.076,485.274,204.322,484.229,204.752 M482.477,231.753c0,0.738,0.584,1.353,1.752,1.844
				c1.046,0.369,2.273,0.585,3.686,0.646v-4.977c-1.412,0.062-2.64,0.308-3.686,0.736
				C483.061,230.495,482.477,231.078,482.477,231.753 M482.477,193.97c0,0.615,0.584,1.106,1.752,1.475
				c1.046,0.615,2.273,0.952,3.686,1.014v-5.161c-1.412,0.062-2.64,0.307-3.686,0.737
				C483.061,192.588,482.477,193.233,482.477,193.97 M658.77,192.035c-0.738-0.307-1.565-0.522-2.487-0.646v4.977
				c0.922-0.185,1.749-0.492,2.487-0.922c1.228-0.369,1.843-0.86,1.843-1.475C660.612,193.233,659.997,192.588,658.77,192.035
				 M656.282,183.649c0.922-0.124,1.749-0.338,2.487-0.646c1.228-0.491,1.843-1.075,1.843-1.751c0-0.737-0.615-1.352-1.843-1.843
				c-0.738-0.246-1.565-0.43-2.487-0.553V183.649 M656.282,171.024c0.922-0.185,1.749-0.461,2.487-0.83
				c1.228-0.492,1.843-1.014,1.843-1.567c0-0.675-0.615-1.29-1.843-1.843c-0.738-0.307-1.565-0.522-2.487-0.644V171.024
				 M656.282,158.214c0.922-0.061,1.749-0.215,2.487-0.46c1.228-0.492,1.843-1.137,1.843-1.935c0-0.615-0.615-1.167-1.843-1.659
				c-0.738-0.308-1.565-0.522-2.487-0.645V158.214 M656.282,140.889v4.884c0.922-0.185,1.749-0.461,2.487-0.829
				c1.228-0.491,1.843-1.014,1.843-1.567c0-0.737-0.615-1.413-1.843-2.027C658.031,141.104,657.204,140.95,656.282,140.889
				 M658.77,128.909c-0.738-0.307-1.565-0.522-2.487-0.646v4.701c0.922-0.124,1.749-0.338,2.487-0.646
				c1.228-0.369,1.843-0.952,1.843-1.751C660.612,129.953,659.997,129.4,658.77,128.909 M658.77,116.099
				c-0.738-0.307-1.565-0.522-2.487-0.644v5.068c0.922-0.185,1.749-0.461,2.487-0.83c1.228-0.492,1.843-1.014,1.843-1.567
				C660.612,117.39,659.997,116.714,658.77,116.099 M658.77,103.658c-0.738-0.307-1.565-0.522-2.487-0.644v4.699
				c0.922-0.122,1.749-0.338,2.487-0.645c1.228-0.491,1.843-1.044,1.843-1.659C660.612,104.61,659.997,104.027,658.77,103.658
				 M658.77,90.85c-0.738-0.307-1.565-0.523-2.487-0.646v4.884c0.922-0.123,1.749-0.368,2.487-0.737
				c1.228-0.43,1.843-0.952,1.843-1.567C660.612,92.108,659.997,91.464,658.77,90.85 M660.612,80.159
				c0-0.798-0.615-1.443-1.843-1.935c-0.738-0.246-1.565-0.4-2.487-0.461v4.7c0.922-0.123,1.749-0.337,2.487-0.645
				C659.997,81.327,660.612,80.773,660.612,80.159 M656.282,67.35v2.488c0.922-0.124,1.749-0.369,2.487-0.738
				c1.228-0.492,1.843-1.014,1.843-1.566c0-0.676-0.615-1.352-1.843-2.027c-0.491-0.185-1.014-0.308-1.565-0.369
				c-0.062,0.308-0.155,0.646-0.277,1.015C656.743,66.644,656.527,67.043,656.282,67.35 M656.927,57.581
				c-0.491-1.29-1.138-1.935-1.935-1.935c-0.614,0-1.169,0.646-1.66,1.935c-0.369,0.86-0.583,1.936-0.645,3.226h1.936
				c1.104,0,1.659,0.553,1.659,1.659v4.884c0.245-0.307,0.461-0.707,0.645-1.198c0.122-0.369,0.216-0.707,0.277-1.015
				c0.184-0.982,0.275-2.088,0.275-3.317C657.479,60.1,657.296,58.687,656.927,57.581 M644.116,57.581
				c-0.491-1.29-1.104-1.935-1.843-1.935c-0.675,0-1.258,0.646-1.751,1.935c-0.367,0.86-0.583,1.936-0.645,3.226h5.16
				C644.916,59.517,644.608,58.441,644.116,57.581 M487.914,107.805v-4.884c-1.412,0.062-2.64,0.307-3.686,0.737
				c-1.168,0.369-1.752,0.952-1.752,1.751c0,0.615,0.584,1.167,1.752,1.659C485.274,107.499,486.502,107.744,487.914,107.805
				 M487.914,183.741v-4.977c-1.412,0.062-2.64,0.277-3.686,0.645c-1.168,0.491-1.752,1.106-1.752,1.843
				c0,0.676,0.584,1.26,1.752,1.751C485.274,183.434,486.502,183.68,487.914,183.741 M487.914,171.116v-5.068
				c-1.412,0.062-2.64,0.307-3.686,0.737c-1.168,0.554-1.752,1.168-1.752,1.843c0,0.553,0.584,1.075,1.752,1.567
				C485.274,170.748,486.502,171.055,487.914,171.116 M487.914,158.307v-4.885c-1.412,0.062-2.64,0.308-3.686,0.738
				c-1.168,0.492-1.752,1.044-1.752,1.659c0,0.798,0.584,1.443,1.752,1.935C485.274,158.06,486.502,158.245,487.914,158.307
				 M487.914,133.056v-4.884c-1.412,0.062-2.64,0.307-3.686,0.737c-1.168,0.491-1.752,1.044-1.752,1.659
				c0,0.799,0.584,1.382,1.752,1.751C485.274,132.749,486.502,132.995,487.914,133.056 M487.914,145.866v-5.068
				c-1.412,0.061-2.64,0.246-3.686,0.553c-1.168,0.615-1.752,1.291-1.752,2.027c0,0.553,0.584,1.076,1.752,1.567
				C485.274,145.497,486.502,145.804,487.914,145.866 M487.914,120.615v-5.253c-1.412,0.062-2.64,0.307-3.686,0.737
				c-1.168,0.615-1.752,1.291-1.752,2.028c0,0.553,0.584,1.075,1.752,1.567C485.274,120.246,486.502,120.554,487.914,120.615
				 M487.914,82.556v-4.884c-1.412,0.061-2.64,0.246-3.686,0.553c-1.168,0.491-1.752,1.137-1.752,1.935
				c0,0.615,0.584,1.168,1.752,1.66C485.274,82.249,486.502,82.493,487.914,82.556 M487.914,95.181v-5.068
				c-1.412,0.061-2.64,0.307-3.686,0.737c-1.168,0.614-1.752,1.259-1.752,1.935c0,0.615,0.584,1.137,1.752,1.567
				C485.274,94.842,486.502,95.119,487.914,95.181 M487.914,69.93v-5.068c-1.412,0.061-2.64,0.276-3.686,0.645
				c-1.168,0.676-1.752,1.352-1.752,2.027c0,0.553,0.584,1.075,1.752,1.566C485.274,69.592,486.502,69.869,487.914,69.93
				 M490.679,55.646c-0.552,0-1.168,0.646-1.843,1.935c-0.369,0.983-0.583,2.243-0.645,3.779c0.247-0.369,0.645-0.553,1.197-0.553
				h3.871c-0.124-1.29-0.399-2.365-0.829-3.226C491.939,56.292,491.354,55.646,490.679,55.646 M515.93,55.646
				c-0.615,0-1.198,0.646-1.751,1.935c-0.369,0.86-0.583,1.936-0.645,3.226h4.977c-0.122-1.29-0.399-2.365-0.829-3.226
				C517.251,56.292,516.668,55.646,515.93,55.646 M505.148,57.581c-0.493-1.29-1.076-1.935-1.751-1.935
				c-0.738,0-1.353,0.646-1.844,1.935c-0.368,0.86-0.552,1.936-0.552,3.226h4.883C505.762,59.517,505.516,58.441,505.148,57.581
				 M555.648,57.581c-0.431-1.29-1.014-1.935-1.752-1.935c-0.675,0-1.26,0.646-1.749,1.935c-0.369,0.86-0.583,1.936-0.646,3.226
				h4.885C556.262,59.517,556.018,58.441,555.648,57.581 M541.181,55.646c-0.614,0-1.199,0.646-1.751,1.935
				c-0.369,0.86-0.584,1.936-0.645,3.226h5.068c-0.122-1.29-0.399-2.365-0.83-3.226C542.532,56.292,541.917,55.646,541.181,55.646
				 M528.647,55.646c-0.737,0-1.32,0.646-1.751,1.935c-0.369,0.86-0.585,1.936-0.646,3.226h4.886
				c-0.123-1.29-0.369-2.365-0.738-3.226C529.908,56.292,529.323,55.646,528.647,55.646 M568.274,57.581
				c-0.493-1.29-1.076-1.935-1.751-1.935c-0.676,0-1.291,0.646-1.844,1.935c-0.369,0.86-0.553,1.936-0.553,3.226h4.976
				C568.98,59.517,568.703,58.441,568.274,57.581 M591.773,55.646c-0.737,0-1.32,0.646-1.751,1.935
				c-0.369,0.86-0.585,1.936-0.646,3.226h4.978c-0.123-1.29-0.398-2.365-0.83-3.226C593.034,56.292,592.449,55.646,591.773,55.646
				 M580.99,57.581c-0.491-1.29-1.104-1.935-1.843-1.935c-0.675,0-1.258,0.646-1.751,1.935c-0.367,0.86-0.583,1.936-0.645,3.226
				h4.885C581.576,59.517,581.359,58.441,580.99,57.581 M631.492,57.581c-0.369-1.29-0.952-1.935-1.751-1.935
				c-0.738,0-1.291,0.646-1.66,1.935c-0.367,0.86-0.583,1.936-0.644,3.226h4.791C632.105,59.517,631.861,58.441,631.492,57.581
				 M617.022,55.646c-0.675,0-1.26,0.646-1.749,1.935c-0.369,0.86-0.583,1.936-0.646,3.226h5.16
				c-0.122-1.29-0.461-2.365-1.013-3.226C618.344,56.292,617.761,55.646,617.022,55.646 M604.49,55.646
				c-0.736,0-1.352,0.646-1.843,1.935c-0.309,0.86-0.461,1.936-0.461,3.226h4.793c-0.122-1.29-0.369-2.365-0.738-3.226
				C605.75,56.292,605.165,55.646,604.49,55.646z"/>
			<path fill="#F5F4FF" d="M594.354,60.807h-4.978h-7.739h-4.885h-7.649h-4.976h-7.741h-4.885h-7.647h-5.068h-7.649h-4.886h-7.739
				h-4.977h-7.649h-4.883h-7.742h-3.871c-0.553,0-0.95,0.184-1.197,0.553c-0.186,0.246-0.277,0.614-0.277,1.106v2.396v5.068v7.741
				v4.884v7.557v5.068v7.741v4.884v7.557v5.253v7.557v4.884v7.741v5.068v7.556v4.885v7.741v5.068v7.649v4.977v7.557v5.161v7.557
				v4.977v7.556v5.161v7.557v4.977v7.648v5.068v7.649v4.977v7.557v5.068v4.424c0,0.553,0.125,0.982,0.369,1.289
				c0.184,0.308,0.553,0.46,1.105,0.46h3.779h7.834h4.791h7.741h4.883h7.833h4.794h7.741h4.975h7.741h4.793h7.833h4.884h7.741h4.791
				h7.833h4.886h7.925h4.699h7.741h5.068h7.742h4.699h7.741h5.068h7.741h1.936c1.104,0,1.659-0.583,1.659-1.749v-5.529v-3.871
				v-7.742V254.7v-7.833v-4.885v-7.833v-4.792v-7.741v-4.976v-7.741v-4.792v-7.74v-4.977v-7.74v-4.792v-7.833v-4.884v-7.926v-4.699
				v-7.741v-4.884v-7.925v-4.701v-7.74v-5.068v-7.742v-4.699v-7.926v-4.884v-7.741v-4.7v-7.925V67.35v-4.884
				c0-1.106-0.555-1.659-1.659-1.659h-1.936h-7.649h-5.16h-7.649h-4.791h-7.65h-5.16h-7.647h-4.793H594.354 M591.313,70.207
				c0.552-0.676,1.166-0.922,1.843-0.737c0.799,0.061,1.411,0.522,1.843,1.382c0.429,0.983,0.522,1.997,0.275,3.041
				c-0.122,1.045-0.553,1.874-1.29,2.488c-0.307,0.123-0.583,0.307-0.828,0.553c0.553,0.308,0.95,0.738,1.197,1.291
				c0.491,1.291,0.613,2.611,0.368,3.962c-0.244,1.413-0.767,2.549-1.565,3.41c-0.247,0.246-0.461,0.4-0.646,0.461
				c2.643,0.799,5.529,1.598,8.663,2.396c0-0.184,0-0.398,0-0.644c0-0.86,0.216-1.567,0.645-2.121
				c0.555-0.552,1.198-0.829,1.937-0.829c0.799,0,1.383,0.276,1.75,0.829c0.615,0.554,0.921,1.26,0.921,2.121
				c0,0.982-0.461,1.874-1.382,2.672h0.094c2.332,0.369,4.514,0.707,6.542,1.014c0.491-0.43,1.044-0.83,1.658-1.199
				c0.493-0.368,1.015-0.553,1.567-0.553c-0.246-0.307-0.369-0.614-0.369-0.921c-0.244-0.86-0.122-1.813,0.369-2.856
				c0.491-0.983,1.168-1.69,2.026-2.12c0.8-0.492,1.536-0.583,2.213-0.276c0.737,0.246,1.137,0.83,1.198,1.751
				c0.245,0.982,0.122,2.027-0.369,3.132c-0.369,0.86-0.984,1.475-1.843,1.843c-0.247,0.247-0.523,0.43-0.83,0.554
				c0.307,0.368,0.522,0.921,0.645,1.658v0.276c0.122,1.045-0.092,2.182-0.645,3.41c-0.244,0.676-0.583,1.26-1.013,1.751
				c1.352,0.246,2.673,0.492,3.961,0.737c0.308-0.185,0.583-0.276,0.83-0.276c0.613,0,1.168,0.246,1.659,0.737
				c2.702,0.614,5.438,1.29,8.202,2.027c0-0.43,0.153-0.799,0.461-1.106c0.553-0.737,1.197-1.198,1.935-1.382
				c0.675-0.185,1.319-0.031,1.936,0.461c0.368,0.368,0.552,0.921,0.552,1.658c0,0.553-0.122,1.014-0.368,1.382
				c-0.123,0.246-0.307,0.492-0.553,0.737c-0.614,0.615-1.259,1.045-1.935,1.291c-0.245,0-0.522,0-0.83,0
				c0.186,0.43,0.214,0.952,0.092,1.567c0,1.044-0.399,1.965-1.197,2.765c-0.86,0.921-1.689,1.504-2.489,1.75
				c-1.044,0.369-1.872,0.246-2.487-0.368c1.413,1.72,2.92,3.624,4.516,5.713c0.062-0.492,0.184-0.86,0.369-1.105
				c0.553-0.553,1.228-0.83,2.027-0.83c0.615,0,1.198,0.276,1.751,0.83c0.491,0.553,0.736,1.259,0.736,2.12
				c0,0.982-0.245,1.75-0.736,2.304h-1.383v0.185l0.275,2.765v0.921c0.86-0.921,1.782-1.475,2.765-1.659
				c0.493-0.123,0.893-0.153,1.199-0.092c-0.184-0.307-0.184-0.583,0-0.83c0-0.737,0.277-1.443,0.83-2.119
				c0.613-0.737,1.29-1.229,2.026-1.474c0.675-0.124,1.26,0.061,1.751,0.552c0.553,0.369,0.799,0.891,0.738,1.567
				c-0.186,0.799-0.493,1.536-0.922,2.212c-0.615,0.614-1.26,1.074-1.937,1.382c-0.245,0-0.522,0-0.828,0
				c0.245,0.307,0.275,0.737,0.092,1.29c0,1.106-0.43,2.058-1.29,2.857c-0.8,0.982-1.66,1.596-2.581,1.843
				c-0.49,0.123-0.983,0.184-1.475,0.184l0.369,3.687c0.615,1.905,1.321,3.84,2.12,5.806l-2.212,8.938
				c0.675,1.782,1.014,3.84,1.014,6.174c5.773,4.301,6.881,10.168,3.317,17.602c1.905,8.232,1.045,14.837-2.58,19.813
				c-0.86,6.573-3.809,11.181-8.848,13.823c-1.475,4.669-4.423,7.894-8.847,9.676c-5.222,1.474-8.785,1.596-10.689,0.368h-0.092
				l1.565-3.133c-0.736,0-1.443-0.215-2.118-0.646c-0.122,0-0.247-0.03-0.369-0.093c2.273,12.472,5.467,22.608,9.585,30.411
				c4.669,8.602,11.794,16.342,21.379,23.225c5.59,0.306,8.6,0.583,9.031,0.827c-0.432-0.244-3.441-0.521-9.031-0.827
				c-19.536,6.634-36.218,9.951-50.041,9.951s-25.281-3.317-34.372-9.951c0.184-6.39,0.184-10.814,0-13.271
				c-0.186-3.993-1.169-7.618-2.95-10.875c-7.986-2.272-14.623-7.556-19.905-15.85c-0.614-1.106-1.229-2.212-1.843-3.318
				c-1.291-2.396-2.457-4.884-3.501-7.464c-3.625-9.461-5.651-20.55-6.084-33.268c-0.062-3.317,0.032-6.543,0.277-9.676
				l-0.922,6.267c-11.427-7.987-14.253-16.465-8.478-25.435c-1.106-3.871-1.537-6.758-1.29-8.662
				c0.369-2.09,1.629-3.472,3.778-4.147v-0.093c-3.381-4.669-2.521-9.737,2.58-15.206c-2.336-5.038-0.676-9.092,4.976-12.165
				c0.982-5.59,3.809-8.724,8.479-9.399c0.491,0,0.952,0,1.382,0c0.736-0.554,1.383-1.137,1.935-1.751
				c2.149-2.396,3.349-4.147,3.595-5.253c0-0.185,0-0.307,0-0.368c0.614-0.185,1.197-0.277,1.751-0.277
				c2.211-1.228,4.393-2.549,6.543-3.962c-0.553-0.246-1.046-0.645-1.474-1.198c-0.062,0-0.094-0.092-0.094-0.276
				c-0.736-0.921-1.167-2.027-1.289-3.318c-0.062-1.413,0.214-2.672,0.828-3.778c0.308-0.552,0.707-0.952,1.198-1.198
				c-0.43-0.246-0.705-0.491-0.829-0.737c-0.675-0.676-1.075-1.536-1.197-2.581c-0.062-1.167,0.122-2.181,0.553-3.041
				c0.491-0.737,1.105-1.106,1.843-1.106c0.798-0.061,1.505,0.185,2.119,0.738c0.677,0.859,1.015,1.813,1.015,2.856
				c0.122,0.983-0.062,1.904-0.555,2.765c-0.061,0.246-0.214,0.491-0.46,0.737c0.432,0.184,0.893,0.553,1.382,1.106
				c0.738,0.921,1.138,2.15,1.199,3.686c0.184,0.86,0.154,1.598-0.092,2.212c1.474-1.106,2.917-2.334,4.33-3.686
				c-0.184,0-0.369-0.123-0.553-0.369c-0.491-0.552-0.737-1.291-0.737-2.212c0-0.859,0.246-1.566,0.737-2.119
				c0.616-0.553,1.291-0.829,2.027-0.829c0.554,0,1.076,0.276,1.567,0.829c0.613,0.553,0.922,1.26,0.922,2.119
				c0,0.554-0.125,1.076-0.369,1.567c2.212,0,4.546,0,7.003,0c-0.246-0.246-0.397-0.43-0.461-0.553
				c-0.982-0.983-1.474-2.304-1.474-3.962c0-1.597,0.491-2.979,1.474-4.147c0.491-0.491,0.952-0.86,1.383-1.106
				c-0.369-0.307-0.675-0.584-0.922-0.83c-0.675-0.859-1.013-1.843-1.013-2.949c0-1.229,0.338-2.272,1.013-3.133
				c0.738-0.799,1.567-1.198,2.489-1.198c0.982,0,1.811,0.398,2.487,1.198c0.738,0.86,1.105,1.904,1.105,3.133
				c0,1.106-0.367,2.09-1.105,2.949c-0.244,0.246-0.521,0.491-0.829,0.737c0.737,0.247,1.29,0.646,1.659,1.199
				c0.982,1.167,1.474,2.55,1.474,4.147c0,1.659-0.491,2.979-1.474,3.962c-0.063,0-0.092,0.062-0.092,0.185
				c2.21-0.247,4.575-0.491,7.095-0.738c-0.122-0.492-0.184-0.922-0.184-1.29c0-0.86,0.215-1.567,0.645-2.12
				c0.553-0.676,1.199-1.014,1.936-1.014c0.613,0,1.198,0.338,1.751,1.014c0.491,0.553,0.738,1.259,0.738,2.12
				c0,0.798-0.155,1.413-0.461,1.843c2.579,1.044,5.344,2.12,8.294,3.226h0.092l-0.092-0.185c-0.493-1.044-0.616-2.365-0.369-3.962
				c0.246-1.413,0.83-2.519,1.751-3.318c0.367-0.307,0.86-0.583,1.475-0.829c-0.431-0.369-0.675-0.676-0.738-0.921
				c-0.369-0.799-0.491-1.751-0.369-2.857C590.084,71.743,590.575,70.882,591.313,70.207 M522.473,143.009l-0.461,5.161
				c0.86-4.792,1.996-9.4,3.411-13.823L522.473,143.009z"/>
			<path fill="#CACDC4" d="M605.504,198.947c-0.062,0.43-0.184,0.891-0.367,1.382c-2.459,8.294-6.451,15.942-11.98,22.947
				c-9.401,12.164-20.429,18.246-33.084,18.246c-3.503,0-6.789-0.489-9.861-1.475c1.781,3.257,2.765,6.882,2.95,10.875
				c0.184,2.457,0.184,6.882,0,13.271c9.091,6.634,20.549,9.951,34.372,9.951s30.505-3.317,50.041-9.951
				c-9.585-6.883-16.71-14.623-21.379-23.225c-4.118-7.803-7.312-17.939-9.585-30.411c-1.046-0.737-1.751-1.843-2.12-3.317
				c-0.122-1.659,0.214-3.287,1.014-4.884c0-0.491,0-0.921,0-1.291C605.504,200.329,605.504,199.623,605.504,198.947
				 M614.443,199.96c-0.246-0.246-0.523-0.43-0.829-0.553c-0.179-0.119-0.332-0.18-0.461-0.184c-1.228-0.615-2.521-0.615-3.87,0
				c-1.29,0.491-2.336,1.291-3.134,2.396c-0.186,0.184-0.277,0.398-0.277,0.644c-0.061,0-0.184,0.031-0.368,0.093
				c-0.8,1.598-1.136,3.226-1.014,4.884c0.369,1.474,1.074,2.58,2.12,3.317c0.122,0.063,0.247,0.093,0.369,0.093
				c0.675,0.43,1.382,0.646,2.118,0.646c0.614,0,1.291-0.124,2.028-0.369c1.658-0.553,2.918-1.659,3.778-3.317
				c0.858-1.597,1.105-3.164,0.736-4.7C615.641,201.742,615.241,200.759,614.443,199.96 M608.361,204.015
				c0.614-1.106,1.411-1.782,2.396-2.027c1.044-0.368,1.996-0.276,2.856,0.276c0.799,0.308,1.228,1.015,1.29,2.121
				c0.247,1.044,0.092,2.119-0.461,3.225c-0.553,0.922-1.382,1.628-2.489,2.12c-0.736,0.246-1.443,0.246-2.118,0
				c-0.124,0-0.308-0.093-0.553-0.276c-0.86-0.43-1.321-1.168-1.382-2.212C607.716,206.135,607.868,205.059,608.361,204.015
				 M618.13,190.376c-1.659-0.307-3.379-1.782-5.16-4.423l-5.068-7.926c0,0.921,0,1.874,0,2.857
				c-0.186,6.082-0.983,11.857-2.397,17.325c0,0.246,0,0.492,0,0.737c0,0.676,0,1.382,0,2.119c0.246,0.246,0.46,0.43,0.646,0.554
				c0.798-1.106,1.844-1.905,3.134-2.396c1.35-0.615,2.643-0.615,3.87,0h0.184C614.627,197.81,616.224,194.861,618.13,190.376
				 M528.188,126.881l-0.277,0.276l-2.487,7.189c-1.415,4.423-2.551,9.031-3.411,13.823c-1.597,7.188-2.551,14.621-2.856,22.301
				c-0.245,3.133-0.339,6.359-0.277,9.676c0.433,12.718,2.459,23.807,6.084,33.268c1.044,2.58,2.21,5.068,3.501,7.464
				c0.613,1.106,1.229,2.212,1.843,3.318c5.282,8.294,11.919,13.577,19.905,15.85c3.072,0.985,6.358,1.475,9.861,1.475
				c12.655,0,23.683-6.082,33.084-18.246c5.529-7.004,9.521-14.653,11.98-22.947c0.184-0.492,0.306-0.952,0.367-1.382
				c0-0.246,0-0.492,0-0.737c1.414-5.468,2.212-11.243,2.397-17.325c0-0.984,0-1.936,0-2.857l-1.752-2.58
				c-3.439-5.714-5.222-12.441-5.346-20.182c-7.68-8.171-13.148-17.632-16.402-28.384c-5.468,0.246-9.309-0.583-11.52-2.488
				C549.289,128.878,534.392,129.708,528.188,126.881 M560.348,161.071c-2.396,0.246-3.439-0.83-3.132-3.225l0.645-0.461
				c7.25-4.977,16.005-5.652,26.264-2.027c2.027,1.904,1.936,2.979-0.277,3.225c-1.474-0.553-2.917-0.921-4.33-1.106l-1.198-0.461
				c-2.58-0.246-5.222-0.122-7.926,0.369c-1.104,0-2.057,0.153-2.856,0.461C565.078,158.583,562.684,159.659,560.348,161.071
				 M542.654,158.951l1.383,1.751c0.738,1.291,1.105,3.103,1.105,5.438c0,0.43,0,0.829,0,1.198
				c-0.184,1.843-0.614,3.624-1.289,5.345c-4.607,10.137-6.729,16.71-6.359,19.722c0.553,3.256,4.208,4.269,10.967,3.041
				c0.922-1.167,1.872-1.905,2.856-2.212c1.168-0.307,2.519-0.031,4.056,0.83c3.07,0.123,4.238-1.137,3.501-3.779
				c-0.859-2.703-2.519-4.208-4.978-4.515c2.459,0.307,4.118,1.813,4.978,4.515c0.737,2.642-0.431,3.901-3.501,3.779
				c-1.537-0.86-2.888-1.137-4.056-0.83c-0.984,0.307-1.935,1.045-2.856,2.212c-6.759,1.229-10.414,0.215-10.967-3.041
				c-0.369-3.012,1.752-9.584,6.359-19.722c0.675-1.721,1.105-3.502,1.289-5.345c0-0.369,0-0.768,0-1.198
				c0-2.334-0.367-4.147-1.105-5.438c-0.369,0.491-1.228,0.645-2.581,0.46l-0.367-0.092c-1.354-0.86-3.104-1.536-5.254-2.027
				c-0.308-0.062-0.707-0.185-1.197-0.369c-1.168-0.246-3.871-0.645-8.11-1.198c-1.044-0.307-1.29-1.137-0.737-2.488
				c3.011-1.044,5.129-1.382,6.358-1.013l4.333,1.013C538.999,155.788,541.057,157.108,542.654,158.951 M526.527,168.259
				c1.291-1.413,2.673-2.334,4.147-2.765c0.799-0.246,1.537-0.369,2.212-0.369c1.966,0,4.146,0.706,6.543,2.119
				c0.306,0.308,0.677,0.584,1.104,0.83c-0.489,0.369-0.889,0.676-1.196,0.922c-3.012,1.904-5.744,2.61-8.202,2.119
				C529.476,170.748,527.94,169.795,526.527,168.259 M526.527,165.679c-0.491,0.307-1.013,0.675-1.565,1.105
				C525.515,166.354,526.036,165.986,526.527,165.679c2.027-1.352,4.024-2.058,5.99-2.12c0.245,0,0.491,0,0.738,0
				c1.411,0,2.948,0.308,4.607,0.921c1.289,0.676,2.643,1.506,4.054,2.488c-1.411-0.982-2.765-1.813-4.054-2.488
				c-1.659-0.614-3.196-0.921-4.607-0.921c-0.247,0-0.493,0-0.738,0C530.552,163.621,528.555,164.328,526.527,165.679
				 M567.905,165.771c0.736-0.185,1.566-0.276,2.487-0.276c1.968,0,3.994,0.583,6.082,1.75c0.799,0.553,1.69,1.26,2.673,2.12v0.092
				h-0.092c-1.352,0.86-2.642,1.536-3.87,2.028c-2.028,0.737-4.055,1.013-6.083,0.829c-2.396-0.307-4.73-1.29-7.004-2.948
				C564.005,167.645,565.938,166.447,567.905,165.771 M561.73,166.784c2.764-2.15,5.529-3.317,8.293-3.501
				c3.012-0.185,6.052,0.86,9.124,3.133c1.107,0.615,2.273,1.567,3.503,2.856c-1.229-1.29-2.396-2.242-3.503-2.856
				c-3.072-2.273-6.112-3.318-9.124-3.133C567.26,163.467,564.494,164.634,561.73,166.784c-0.614,0.369-1.197,0.86-1.75,1.475
				C560.533,167.645,561.116,167.153,561.73,166.784 M534.084,209.729l8.939-1.475l5.16,0.83l5.713-0.83l16.496,1.475
				c-6.634,3.932-13.515,5.897-20.643,5.897C542.378,215.811,537.156,213.845,534.084,209.729 M579.056,169.457l0.092-0.092
				c-0.982-0.86-1.874-1.567-2.673-2.12c0,0.308,0,0.645,0,1.014c0,1.29-0.428,2.365-1.289,3.226
				C576.414,170.993,577.704,170.317,579.056,169.457 M568.366,171.669c-0.799-0.799-1.229-1.936-1.29-3.41
				c0.061-0.921,0.338-1.751,0.829-2.488c-1.967,0.676-3.9,1.874-5.807,3.594c2.273,1.659,4.608,2.642,7.004,2.948
				C568.857,172.068,568.613,171.853,568.366,171.669 M539.43,167.245c0,0.247,0,0.491,0,0.738c0,0.307-0.031,0.645-0.092,1.014
				c0.308-0.246,0.707-0.553,1.196-0.922C540.106,167.829,539.735,167.553,539.43,167.245 M530.675,165.495
				c-1.475,0.43-2.856,1.352-4.147,2.765c1.413,1.536,2.948,2.488,4.608,2.856c-0.738-0.859-1.138-1.904-1.199-3.133
				C529.998,167.184,530.244,166.354,530.675,165.495z"/>
			<path fill="#E2E9E4" d="M606.149,201.62c-0.186-0.124-0.399-0.308-0.646-0.554c0,0.369,0,0.799,0,1.291
				c0.185-0.062,0.308-0.093,0.368-0.093C605.872,202.018,605.964,201.803,606.149,201.62 M619.144,190.376
				c-0.307,0-0.645,0-1.014,0c-1.906,4.484-3.503,7.434-4.793,8.847h-0.184c0.129,0.004,0.282,0.065,0.461,0.184
				c0.306,0.123,0.583,0.307,0.829,0.553l0.092-0.184C616.379,194,617.916,190.868,619.144,190.376 M633.979,128.54
				c-0.062,0-0.184-0.061-0.369-0.184c0.186,1.229,0.433,2.518,0.738,3.87L633.979,128.54 M633.61,122.827
				c-0.061,0.184-0.152,0.399-0.275,0.645c-0.124,1.475-0.03,3.103,0.275,4.885c0.186,0.123,0.308,0.184,0.369,0.184L633.61,122.827
				 M633.335,123.472c-0.613,0.615-0.921,1.352-0.921,2.212c-0.125,1.044,0.122,1.813,0.736,2.304
				c0.122,0.123,0.276,0.246,0.46,0.369C633.305,126.575,633.211,124.947,633.335,123.472 M633.61,122.827v-0.921h-0.092
				c-0.122,0.368-0.184,0.891-0.184,1.566C633.458,123.226,633.55,123.011,633.61,122.827 M579.056,169.457h0.092v-0.092
				L579.056,169.457 M547.263,88.177c0.061-0.368,0.184-0.798,0.369-1.29c-0.492,0.492-1.046,1.014-1.66,1.566
				C546.456,88.272,546.887,88.179,547.263,88.177 M544.498,90.02c1.104,0,1.935-0.522,2.487-1.567c0-0.178,0.094-0.27,0.277-0.276
				c-0.376,0.002-0.807,0.095-1.291,0.276c-0.736,0.554-1.565,1.076-2.487,1.567C543.854,90.082,544.191,90.082,544.498,90.02
				 M622.737,99.144l0.092,0.184c0.616,0.553,0.922,1.32,0.922,2.304c0,0.859-0.306,1.566-0.922,2.119L622,104.212
				c1.045,1.597,2.242,3.256,3.594,4.976c-0.244-0.43-0.338-0.952-0.277-1.566c0-0.921,0.433-1.843,1.291-2.765
				c0.738-0.983,1.629-1.505,2.673-1.567c0.43-0.246,0.86-0.338,1.29-0.276c-0.186-0.308-0.186-0.584,0-0.83
				c0-0.369,0.123-0.707,0.369-1.013C628.175,100.433,625.439,99.758,622.737,99.144 M616.287,97.945
				c-0.431,0.492-0.922,0.891-1.475,1.198c1.166,0.859,2.396,1.628,3.687,2.304c0-0.86,0.214-1.567,0.645-2.12
				c0.43-0.369,0.799-0.584,1.104-0.645C618.96,98.437,617.639,98.191,616.287,97.945 M610.111,95.825
				c0-0.798,0.246-1.689,0.738-2.672c0.244-0.615,0.521-1.167,0.829-1.659c-2.028-0.308-4.21-0.645-6.542-1.014
				C606.486,92.386,608.146,94.167,610.111,95.825 M611.587,97.116c-0.493-0.185-0.982-0.276-1.476-0.276v0.276
				c0.246,1.106,0.769,1.843,1.567,2.212c0.983,0.492,1.936,0.43,2.856-0.184C613.491,98.406,612.509,97.73,611.587,97.116
				 M610.111,96.839c0.493,0,0.982,0.092,1.476,0.276c-0.493-0.43-0.982-0.86-1.476-1.291
				C610.05,96.133,610.05,96.471,610.111,96.839 M590.298,86.518c0.738,0.185,1.476,0.03,2.212-0.461
				c-1.474-0.491-2.917-0.891-4.33-1.198C588.609,85.903,589.315,86.457,590.298,86.518 M568.274,81.818
				c-1.966,0.123-3.872,0.246-5.715,0.368c0.738,0.676,1.659,1.014,2.765,1.014C566.492,83.201,567.476,82.74,568.274,81.818z"/>
			<path fill="#97998E" d="M610.758,201.988c-0.985,0.246-1.782,0.921-2.396,2.027c-0.493,1.044-0.646,2.12-0.46,3.226
				c0.061,1.044,0.521,1.782,1.382,2.212c0.245,0.184,0.429,0.276,0.553,0.276c0.675,0.246,1.382,0.246,2.118,0
				c1.107-0.491,1.937-1.198,2.489-2.12c0.553-1.106,0.708-2.181,0.461-3.225c-0.063-1.106-0.491-1.813-1.29-2.121
				C612.754,201.711,611.802,201.62,610.758,201.988 M534.084,209.729c3.072,4.116,8.294,6.082,15.666,5.897
				c7.128,0,14.009-1.966,20.643-5.897C556.938,212.862,544.836,212.862,534.084,209.729 M543.023,208.254l-8.939,1.475
				c10.752,3.133,22.854,3.133,36.309,0l-16.496-1.475l-5.713,0.83L543.023,208.254 M544.037,160.703l-1.383-1.751
				c-1.598-1.843-3.655-3.163-6.173-3.962l-4.333-1.013c-1.229-0.369-3.348-0.031-6.358,1.013c-0.553,1.352-0.307,2.181,0.737,2.488
				c4.239,0.553,6.942,0.952,8.11,1.198c0.49,0.185,0.89,0.307,1.197,0.369c2.15,0.491,3.9,1.167,5.254,2.027l0.367,0.092
				C542.81,161.348,543.668,161.194,544.037,160.703 M557.216,157.846c-0.308,2.396,0.736,3.471,3.132,3.225
				c2.336-1.413,4.73-2.488,7.188-3.225c0.8-0.308,1.752-0.461,2.856-0.461c2.704-0.491,5.346-0.615,7.926-0.369l1.198,0.461
				c1.413,0.185,2.856,0.553,4.33,1.106c2.213-0.246,2.305-1.321,0.277-3.225c-10.259-3.625-19.014-2.949-26.264,2.027
				L557.216,157.846 M576.199,98.774c-0.063-0.246-0.308-0.399-0.738-0.461c-2.089-1.229-4.607-1.72-7.556-1.474
				c-2.15,0.185-4.577,0.676-7.28,1.474c-3.134-0.982-5.774-1.505-7.925-1.567c-0.369,0-0.708,0-1.014,0
				c-2.09,0-3.563,0.4-4.424,1.199c-4.669,2.211-7.312,4.423-7.925,6.635c-0.86-1.105-2.029-1.904-3.503-2.396
				c-1.168-0.369-2.487-0.552-3.962-0.552c-0.737,0-1.476,0-2.212,0c-0.43,0-0.891,0-1.382,0c-4.671,0.675-7.497,3.809-8.479,9.399
				c-5.651,3.072-7.312,7.126-4.976,12.165c-5.101,5.468-5.961,10.537-2.58,15.206v0.093c-2.149,0.675-3.409,2.057-3.778,4.147
				c-0.247,1.904,0.184,4.791,1.29,8.662c-5.775,8.97-2.949,17.448,8.478,25.435l0.922-6.267c0.306-7.68,1.26-15.113,2.856-22.301
				l0.461-5.161l2.95-8.662l2.487-7.189l0.277-0.276c6.204,2.827,21.102,1.997,44.694-2.488c2.211,1.905,6.052,2.734,11.52,2.488
				c3.254,10.752,8.723,20.213,16.402,28.384c0.124,7.741,1.906,14.468,5.346,20.182l1.752,2.58l5.068,7.926
				c1.781,2.642,3.501,4.116,5.16,4.423c0.369,0,0.707,0,1.014,0c-1.228,0.491-2.765,3.624-4.608,9.4l-0.092,0.184
				c0.798,0.799,1.197,1.782,1.197,2.949c0.369,1.536,0.122,3.103-0.736,4.7c-0.86,1.659-2.12,2.765-3.778,3.317
				c-0.737,0.246-1.414,0.369-2.028,0.369l-1.565,3.133h0.092c1.904,1.228,5.468,1.106,10.689-0.368
				c4.424-1.782,7.372-5.007,8.847-9.676c5.039-2.643,7.987-7.25,8.848-13.823c3.625-4.977,4.485-11.582,2.58-19.813
				c3.563-7.434,2.456-13.301-3.317-17.602c0-2.334-0.339-4.393-1.014-6.174c-0.738-2.15-1.843-4.147-3.317-5.99
				c-1.598-1.72-3.042-3.102-4.332-4.147c-1.291-1.167-2.457-1.935-3.501-2.304c-4.73-10.014-11.735-16.588-21.012-19.721
				c-1.105-3.81-2.856-7.126-5.252-9.953c-1.477-1.782-3.134-3.379-4.978-4.792v-1.291c-2.518-1.044-5.131-1.567-7.833-1.567
				c-0.124,0-0.246,0-0.369,0c-0.306,0-0.615,0.093-0.921,0.277c-1.66,0.368-3.195,0.644-4.607,0.829
				C577.396,98.375,576.752,98.529,576.199,98.774z"/>
			<path fill="#CCCCCC" d="M641.998,120.984c0.429-0.676,0.736-1.413,0.922-2.212c0.061-0.676-0.186-1.198-0.738-1.567
				c-0.491-0.491-1.076-0.676-1.751-0.552c-0.736,0.246-1.413,0.737-2.026,1.474c-0.553,0.676-0.83,1.382-0.83,2.119
				c-0.184,0.247-0.184,0.523,0,0.83c0.061,0.307,0.216,0.583,0.461,0.83c0.369,0.307,0.767,0.461,1.198,0.461
				c0.306,0,0.583,0,0.828,0C640.738,122.059,641.383,121.598,641.998,120.984 M633.979,128.54c0.491,0,0.984-0.061,1.475-0.184
				c0.921-0.247,1.781-0.86,2.581-1.843c0.86-0.799,1.29-1.751,1.29-2.857c0.184-0.553,0.153-0.983-0.092-1.29
				c-0.432,0-0.829-0.154-1.198-0.461c-0.245-0.247-0.4-0.523-0.461-0.83c-0.307-0.062-0.706-0.031-1.199,0.092
				c-0.982,0.184-1.904,0.738-2.765,1.659L633.979,128.54 M616.287,119.325c-6.575-3.01-10.906-7.219-12.994-12.625
				c-2.212-0.554-4.362-1.168-6.45-1.843c2.396,2.826,4.146,6.143,5.252,9.953c9.276,3.133,16.281,9.707,21.012,19.721
				c1.044,0.369,2.21,1.137,3.501,2.304l-0.461-3.778C620.556,130.107,617.27,125.53,616.287,119.325 M634.718,114.533
				c-0.553-0.553-1.136-0.83-1.751-0.83c-0.8,0-1.475,0.276-2.027,0.83c-0.186,0.246-0.308,0.614-0.369,1.105
				c0.798,1.044,1.719,2.089,2.765,3.133v0.185h1.383c0.491-0.553,0.736-1.321,0.736-2.304
				C635.454,115.792,635.209,115.086,634.718,114.533 M551.687,96.747c-1.476-0.184-2.919-0.46-4.332-0.829
				c-3.933,3.01-7.771,5.099-11.52,6.266c1.474,0.492,2.643,1.291,3.503,2.396c0.613-2.211,3.256-4.423,7.925-6.635
				C548.123,97.146,549.597,96.747,551.687,96.747 M529.661,101.632c0.736,0,1.475,0,2.212,0c0.184-0.492,0.092-1.076-0.277-1.751
				C531.044,100.495,530.397,101.078,529.661,101.632 M551.409,78.5c-0.491,0.553-0.737,1.26-0.737,2.119
				c0,0.921,0.246,1.66,0.737,2.212c0.184,0.246,0.369,0.369,0.553,0.369c0.491-0.308,0.984-0.708,1.475-1.199
				c0.554,0,1.137,0.062,1.751,0.185c0.124-0.123,0.246-0.123,0.369,0c0.244-0.491,0.369-1.013,0.369-1.567
				c0-0.859-0.309-1.566-0.922-2.119c-0.491-0.553-1.014-0.829-1.567-0.829C552.7,77.671,552.025,77.948,551.409,78.5
				 M542.654,80.251c0.307,0.246,0.645,0.276,1.014,0.092c0.553,0,1.046-0.154,1.475-0.46c0.246-0.246,0.399-0.492,0.46-0.737
				c0.493-0.86,0.677-1.782,0.555-2.765c0-1.044-0.338-1.997-1.015-2.856c-0.614-0.553-1.321-0.799-2.119-0.738
				c-0.737,0-1.352,0.369-1.843,1.106c-0.431,0.86-0.614,1.874-0.553,3.041c0.122,1.045,0.522,1.905,1.197,2.581
				C541.949,79.76,542.225,80.006,542.654,80.251 M543.668,80.343c-0.369,0.185-0.707,0.154-1.014-0.092
				c-0.491,0.246-0.891,0.646-1.198,1.198c-0.614,1.106-0.89,2.365-0.828,3.778c0.122,1.291,0.553,2.396,1.289,3.318
				c0,0.185,0.032,0.276,0.094,0.276c0.428,0.553,0.921,0.952,1.474,1.198c0.922-0.491,1.751-1.013,2.487-1.567
				c0.614-0.552,1.168-1.074,1.66-1.566c0.246-0.614,0.275-1.352,0.092-2.212c-0.062-1.536-0.461-2.765-1.199-3.686
				c-0.489-0.553-0.95-0.922-1.382-1.106C544.714,80.189,544.221,80.343,543.668,80.343 M630.57,103.014
				c-0.43-0.062-0.86,0.03-1.29,0.276c-1.044,0.062-1.935,0.583-2.673,1.567c-0.858,0.922-1.291,1.843-1.291,2.765
				c-0.061,0.614,0.033,1.136,0.277,1.566c0.062,0.247,0.216,0.492,0.461,0.738c0.615,0.614,1.443,0.737,2.487,0.368
				c0.8-0.246,1.629-0.829,2.489-1.75c0.798-0.799,1.197-1.721,1.197-2.765c0.122-0.615,0.094-1.137-0.092-1.567
				c-0.431,0-0.769-0.124-1.014-0.369C630.817,103.721,630.632,103.444,630.57,103.014 M630.57,102.184
				c-0.186,0.246-0.186,0.522,0,0.83c0.062,0.43,0.247,0.707,0.553,0.829c0.245,0.246,0.583,0.369,1.014,0.369
				c0.308,0,0.585,0,0.83,0c0.676-0.246,1.32-0.676,1.935-1.291c0.246-0.246,0.43-0.492,0.553-0.737
				c0.246-0.369,0.368-0.83,0.368-1.382c0-0.737-0.184-1.291-0.552-1.658c-0.616-0.492-1.261-0.646-1.936-0.461
				c-0.737,0.185-1.382,0.645-1.935,1.382c-0.308,0.307-0.461,0.676-0.461,1.106C630.693,101.478,630.57,101.815,630.57,102.184
				 M621.078,98.406c-0.247,0-0.522,0.092-0.83,0.276c-0.306,0.061-0.675,0.276-1.104,0.645c-0.431,0.553-0.645,1.259-0.645,2.12
				c0.86,0.491,1.721,0.982,2.579,1.474c0.246,0.307,0.553,0.737,0.922,1.291l0.829-0.461c0.616-0.553,0.922-1.26,0.922-2.119
				c0-0.984-0.306-1.751-0.922-2.304l-0.092-0.184C622.246,98.652,621.691,98.406,621.078,98.406 M605.504,85.688
				c-0.367-0.552-0.951-0.829-1.75-0.829c-0.738,0-1.382,0.276-1.937,0.829c-0.429,0.554-0.645,1.26-0.645,2.121
				c0,0.246,0,0.46,0,0.644c0.982,0.308,2.026,0.584,3.134,0.83c0.122,0.307,0.369,0.707,0.736,1.198
				c0.921-0.798,1.382-1.689,1.382-2.672C606.425,86.948,606.119,86.242,605.504,85.688 M614.904,89.743
				c0.247,0.369,0.553,0.676,0.922,0.922c0.491,0.122,0.982,0.185,1.474,0.185c0.307-0.124,0.583-0.307,0.83-0.554
				c0.858-0.368,1.474-0.983,1.843-1.843c0.491-1.105,0.614-2.15,0.369-3.132c-0.062-0.922-0.461-1.506-1.198-1.751
				c-0.677-0.307-1.413-0.215-2.213,0.276c-0.858,0.43-1.535,1.137-2.026,2.12c-0.491,1.044-0.613,1.996-0.369,2.856
				C614.535,89.129,614.658,89.437,614.904,89.743 M613.337,90.296c-0.614,0.369-1.167,0.769-1.658,1.199
				c-0.308,0.491-0.585,1.044-0.829,1.659c-0.492,0.983-0.738,1.874-0.738,2.672c0.493,0.43,0.982,0.86,1.476,1.291
				c0.922,0.615,1.904,1.291,2.948,2.028h0.277c0.553-0.307,1.044-0.707,1.475-1.198c0.43-0.491,0.769-1.075,1.013-1.751
				c0.553-1.229,0.767-2.365,0.645-3.41v-0.276c-0.122-0.737-0.338-1.291-0.645-1.658c-0.491,0-0.982-0.063-1.474-0.185
				c-0.369-0.246-0.675-0.553-0.922-0.922C614.352,89.743,613.83,89.928,613.337,90.296 M575.461,98.313
				c0.431,0.062,0.676,0.215,0.738,0.461c0.553-0.246,1.197-0.399,1.936-0.461C577.151,98.313,576.261,98.313,575.461,98.313
				 M567.536,85.965c-1.474,0.798-3.042,1.352-4.699,1.659c-2.889,0.798-5.898,0.859-9.032,0.185c-0.491,0-0.982-0.062-1.474-0.185
				c-0.122,0.123-0.306,0.276-0.553,0.461c-5.407,3.256-10.352,5.222-14.837,5.897c-0.554,0-1.137,0.093-1.751,0.277
				c0,0.061,0,0.184,0,0.368c-0.246,1.106-1.445,2.857-3.595,5.253c0.369,0.676,0.461,1.26,0.277,1.751
				c1.475,0,2.794,0.184,3.962,0.552c3.749-1.167,7.587-3.256,11.52-6.266c1.413,0.368,2.856,0.645,4.332,0.829
				c0.306,0,0.645,0,1.014,0c3.439,0,6.604-0.829,9.49-2.487c-2.887,1.659-6.051,2.487-9.49,2.487
				c2.15,0.062,4.791,0.584,7.925,1.567c2.703-0.798,5.13-1.29,7.28-1.474c-1.597-0.615-3.194-1.475-4.793-2.58
				c1.599,1.105,3.196,1.965,4.793,2.58c2.948-0.246,5.467,0.246,7.556,1.474c0.8,0,1.69,0,2.674,0
				c1.412-0.185,2.947-0.461,4.607-0.829c0.306-0.185,0.615-0.277,0.921-0.277c0.123,0,0.245,0,0.369,0
				c2.702,0,5.315,0.523,7.833,1.567v1.291c1.844,1.413,3.501,3.01,4.978,4.792c2.088,0.675,4.238,1.29,6.45,1.843
				c2.088,5.406,6.419,9.614,12.994,12.625c0.982,6.205,4.269,10.782,9.859,13.731l0.461,3.778c1.29,1.045,2.734,2.427,4.332,4.147
				c1.475,1.843,2.579,3.84,3.317,5.99l2.212-8.938c-0.799-1.966-1.505-3.901-2.12-5.806l0.369,4.424l-0.369-4.424
				c-0.306-1.352-0.553-2.642-0.738-3.87c-0.184-0.123-0.338-0.247-0.46-0.369c-0.614-0.491-0.861-1.26-0.736-2.304
				c0-0.86,0.308-1.597,0.921-2.212c0-0.675,0.062-1.198,0.184-1.566c-5.897-2.704-9.338-6.974-10.32-12.81
				c-6.819-2.826-11.336-6.666-13.548-11.519c-2.149-0.492-4.238-1.076-6.266-1.751c-4.915-1.659-9.43-3.962-13.548-6.912
				c0-0.061-0.061-0.092-0.184-0.092c-0.244,0-0.43,0.031-0.553,0.092c-6.39,1.413-12.104,1.045-17.14-1.105
				c-1.168-0.615-2.365-1.199-3.595-1.751L567.536,85.965 M577.674,80.712c-0.8,0.185-1.566,0.307-2.305,0.368
				c0.062,0.369,0.217,0.676,0.461,0.921c0.245,0.247,0.492,0.491,0.738,0.738c-0.246-0.247-0.493-0.491-0.738-0.738
				c-0.244-0.246-0.399-0.553-0.461-0.921c-2.52,0.247-4.885,0.491-7.095,0.738c-0.799,0.921-1.782,1.382-2.95,1.382
				c-1.105,0-2.026-0.338-2.765-1.014c-2.457,0-4.791,0-7.003,0c-0.123-0.123-0.245-0.123-0.369,0
				c-0.614-0.123-1.197-0.185-1.751-0.185c-0.49,0.491-0.983,0.891-1.475,1.199c-1.413,1.352-2.856,2.58-4.33,3.686
				c-0.186,0.492-0.309,0.922-0.369,1.29c-0.184,0.006-0.277,0.098-0.277,0.276c-0.553,1.045-1.383,1.567-2.487,1.567
				c-0.307,0.062-0.645,0.062-1.014,0c-2.15,1.413-4.332,2.734-6.543,3.962c4.485-0.675,9.43-2.641,14.837-5.897
				c0.247-0.185,0.431-0.338,0.553-0.461c0.491,0.123,0.982,0.185,1.474,0.185c3.134,0.675,6.144,0.614,9.032-0.185
				c1.657-0.307,3.226-0.86,4.699-1.659l0.83,0.092c1.229,0.553,2.427,1.137,3.595,1.751c5.036,2.15,10.75,2.518,17.14,1.105
				c0.123-0.061,0.309-0.092,0.553-0.092c0.123,0,0.184,0.031,0.184,0.092c4.118,2.949,8.633,5.253,13.548,6.912
				c2.027,0.676,4.116,1.26,6.266,1.751c2.212,4.853,6.729,8.693,13.548,11.519c0.982,5.836,4.423,10.106,10.32,12.81h0.092
				l-0.275-2.765v-0.185v-0.185c-1.046-1.044-1.967-2.089-2.765-3.133c-0.186,0.308-0.277,0.645-0.277,1.014
				c0,0.982,0.215,1.75,0.646,2.304c0.307,0.246,0.583,0.43,0.828,0.553c-0.245-0.123-0.521-0.307-0.828-0.553
				c-0.432-0.553-0.646-1.321-0.646-2.304c0-0.369,0.092-0.707,0.277-1.014c-1.596-2.089-3.103-3.993-4.516-5.713
				c-0.245-0.247-0.399-0.492-0.461-0.738c-1.352-1.72-2.549-3.378-3.594-4.976c-0.369-0.554-0.676-0.984-0.922-1.291
				c-0.858-0.492-1.719-0.983-2.579-1.474v0.185c0,0.859,0.214,1.566,0.645,2.119c0.244,0.246,0.491,0.491,0.737,0.737
				c-0.246-0.246-0.493-0.492-0.737-0.737c-0.431-0.553-0.645-1.26-0.645-2.119v-0.185c-1.291-0.676-2.521-1.444-3.687-2.304h-0.277
				c-0.921,0.614-1.873,0.676-2.856,0.184c-0.799-0.369-1.321-1.106-1.567-2.212v-0.276c-0.062-0.369-0.062-0.707,0-1.014
				c-1.966-1.659-3.625-3.439-4.975-5.345h-0.094c-0.367-0.491-0.614-0.891-0.736-1.198c-1.107-0.246-2.151-0.522-3.134-0.83
				c0.122,0.615,0.339,1.137,0.645,1.567v0.093c0.246,0.246,0.493,0.491,0.738,0.737c-0.245-0.246-0.492-0.492-0.738-0.737V90.02
				c-0.306-0.43-0.522-0.952-0.645-1.567c-3.134-0.798-6.021-1.596-8.663-2.396c-0.736,0.491-1.474,0.646-2.212,0.461
				c-0.982-0.062-1.688-0.615-2.118-1.659h-0.092c-2.95-1.106-5.715-2.182-8.294-3.226
				C579.056,81.265,578.351,80.958,577.674,80.712 M568.366,81.634c0.982-0.983,1.474-2.304,1.474-3.962
				c0-1.597-0.491-2.979-1.474-4.147c-0.369-0.553-0.922-0.952-1.659-1.199c-0.553,0.308-1.105,0.461-1.658,0.461
				c-0.555,0-1.076-0.123-1.567-0.368c-0.431,0.246-0.892,0.615-1.383,1.106c-0.982,1.167-1.474,2.55-1.474,4.147
				c0,1.659,0.491,2.979,1.474,3.962c0.063,0.123,0.215,0.307,0.461,0.553c1.843-0.123,3.749-0.246,5.715-0.368
				C568.274,81.695,568.303,81.634,568.366,81.634 M568.642,68.64c0-1.229-0.367-2.272-1.105-3.133
				c-0.677-0.799-1.505-1.198-2.487-1.198c-0.922,0-1.751,0.398-2.489,1.198c-0.675,0.86-1.013,1.904-1.013,3.133
				c0,1.106,0.338,2.09,1.013,2.949c0.247,0.246,0.553,0.522,0.922,0.83c0.491,0.246,1.013,0.368,1.567,0.368
				c0.553,0,1.105-0.153,1.658-0.461c0.308-0.246,0.585-0.491,0.829-0.737C568.274,70.729,568.642,69.746,568.642,68.64
				 M590.944,76.565c-0.614,0.246-1.107,0.522-1.475,0.829c-0.921,0.799-1.505,1.905-1.751,3.318
				c-0.247,1.597-0.124,2.918,0.369,3.962l0.092,0.185c1.413,0.307,2.856,0.707,4.33,1.198c0.186-0.061,0.399-0.215,0.646-0.461
				c0.799-0.86,1.321-1.997,1.565-3.41c0.245-1.352,0.123-2.672-0.368-3.962c-0.247-0.553-0.645-0.983-1.197-1.291
				c-0.308,0.247-0.738,0.369-1.291,0.369C591.497,77.118,591.19,76.872,590.944,76.565 M579.794,81.634
				c0.306-0.43,0.461-1.045,0.461-1.843c0-0.86-0.247-1.567-0.738-2.12c-0.553-0.676-1.138-1.014-1.751-1.014
				c-0.736,0-1.383,0.338-1.936,1.014c-0.43,0.553-0.645,1.259-0.645,2.12c0,0.368,0.062,0.798,0.184,1.29
				c0.738-0.062,1.505-0.184,2.305-0.368C578.351,80.958,579.056,81.265,579.794,81.634 M593.156,69.469
				c-0.677-0.185-1.291,0.061-1.843,0.737c-0.738,0.676-1.229,1.536-1.477,2.58c-0.122,1.106,0,2.058,0.369,2.857
				c0.063,0.246,0.308,0.552,0.738,0.921c0.246,0.307,0.553,0.553,0.921,0.737c0.553,0,0.983-0.122,1.291-0.369
				c0.245-0.246,0.521-0.43,0.828-0.553c0.737-0.615,1.168-1.443,1.29-2.488c0.247-1.044,0.153-2.058-0.275-3.041
				C594.567,69.991,593.955,69.53,593.156,69.469z"/>
			<path fill="#807D6C" d="M570.393,165.495c-0.921,0-1.751,0.092-2.487,0.276c-0.491,0.737-0.769,1.567-0.829,2.488
				c0.061,1.474,0.491,2.611,1.29,3.41c0.247,0.184,0.491,0.398,0.736,0.644c2.028,0.185,4.055-0.092,6.083-0.829
				c0.861-0.86,1.289-1.936,1.289-3.226c0-0.369,0-0.707,0-1.014C574.387,166.078,572.36,165.495,570.393,165.495 M570.393,169.826
				c-0.491-0.369-0.736-0.891-0.736-1.567s0.245-1.167,0.736-1.475c0.309-0.491,0.83-0.737,1.568-0.737
				c0.613,0,1.166,0.246,1.657,0.737c0.308,0.369,0.461,0.86,0.461,1.475c0,0.676-0.153,1.198-0.461,1.567
				c-0.491,0.491-1.044,0.737-1.657,0.737C571.223,170.563,570.701,170.317,570.393,169.826 M530.675,165.495
				c-0.431,0.859-0.677,1.689-0.738,2.488c0.062,1.229,0.461,2.273,1.199,3.133c2.458,0.491,5.19-0.215,8.202-2.119
				c0.061-0.369,0.092-0.707,0.092-1.014c0-0.247,0-0.491,0-0.738c-2.396-1.413-4.577-2.119-6.543-2.119
				C532.212,165.126,531.474,165.249,530.675,165.495 M533.256,166.416c0.489-0.491,1.013-0.737,1.565-0.737
				c0.677,0,1.26,0.246,1.752,0.737c0.368,0.368,0.552,0.891,0.552,1.567c0,0.553-0.184,1.044-0.552,1.474
				c-0.492,0.492-1.075,0.737-1.752,0.737c-0.553,0-1.076-0.246-1.565-0.737c-0.308-0.43-0.555-0.921-0.738-1.474
				C532.701,167.245,532.948,166.723,533.256,166.416z"/>
			<path fill="#272727" d="M569.656,168.259c0,0.676,0.245,1.198,0.736,1.567c0.309,0.491,0.83,0.737,1.568,0.737
				c0.613,0,1.166-0.246,1.657-0.737c0.308-0.369,0.461-0.891,0.461-1.567c0-0.615-0.153-1.106-0.461-1.475
				c-0.491-0.491-1.044-0.737-1.657-0.737c-0.738,0-1.26,0.246-1.568,0.737C569.901,167.092,569.656,167.583,569.656,168.259
				 M534.821,165.679c-0.553,0-1.076,0.246-1.565,0.737c-0.308,0.307-0.555,0.829-0.738,1.567c0.184,0.553,0.431,1.044,0.738,1.474
				c0.489,0.492,1.013,0.737,1.565,0.737c0.677,0,1.26-0.246,1.752-0.737c0.368-0.43,0.552-0.921,0.552-1.474
				c0-0.676-0.184-1.199-0.552-1.567C536.081,165.925,535.498,165.679,534.821,165.679z"/>
		</g>
	</g>
	<g>
		<path id="Layer0_0_1_STROKES" fill="none" stroke="#333333" stroke-width="2" stroke-linecap="round" stroke-linejoin="round" d="
			M691.854,421.039V32.055c0-2.396-1.199-3.594-3.595-3.594H209.146"/>
	</g>
	<g>
		<path id="Layer0_0_2_STROKES" fill="none" stroke="#333333" stroke-linecap="round" stroke-linejoin="round" d="M602.187,60.807
			c0-1.29,0.152-2.365,0.461-3.226c0.491-1.29,1.106-1.935,1.843-1.935c0.675,0,1.26,0.646,1.751,1.935
			c0.369,0.86,0.616,1.936,0.738,3.226h7.647c0.063-1.29,0.277-2.365,0.646-3.226c0.489-1.29,1.074-1.935,1.749-1.935
			c0.738,0,1.321,0.646,1.752,1.935c0.552,0.86,0.891,1.936,1.013,3.226h7.65c0.061-1.29,0.276-2.365,0.644-3.226
			c0.369-1.29,0.922-1.935,1.66-1.935c0.799,0,1.382,0.646,1.751,1.935c0.369,0.86,0.613,1.936,0.736,3.226h7.649
			c0.062-1.29,0.277-2.365,0.645-3.226c0.493-1.29,1.076-1.935,1.751-1.935c0.738,0,1.352,0.646,1.843,1.935
			c0.492,0.86,0.8,1.936,0.922,3.226h7.649c0.062-1.29,0.275-2.365,0.645-3.226c0.491-1.29,1.046-1.935,1.66-1.935
			c0.797,0,1.443,0.646,1.935,1.935c0.369,1.106,0.553,2.519,0.553,4.24c0,1.229-0.092,2.334-0.275,3.317
			c0.552,0.062,1.074,0.185,1.565,0.369c1.228,0.676,1.843,1.352,1.843,2.027c0,0.553-0.615,1.075-1.843,1.566
			c-0.738,0.369-1.565,0.614-2.487,0.738v7.925c0.922,0.061,1.749,0.215,2.487,0.461c1.228,0.491,1.843,1.137,1.843,1.935
			c0,0.615-0.615,1.168-1.843,1.66c-0.738,0.307-1.565,0.522-2.487,0.645v7.741c0.922,0.123,1.749,0.338,2.487,0.646
			c1.228,0.614,1.843,1.259,1.843,1.935c0,0.615-0.615,1.137-1.843,1.567c-0.738,0.369-1.565,0.615-2.487,0.737v7.926
			c0.922,0.122,1.749,0.337,2.487,0.644c1.228,0.369,1.843,0.952,1.843,1.751c0,0.615-0.615,1.167-1.843,1.659
			c-0.738,0.307-1.565,0.523-2.487,0.645v7.742c0.922,0.122,1.749,0.337,2.487,0.644c1.228,0.615,1.843,1.291,1.843,2.028
			c0,0.553-0.615,1.075-1.843,1.567c-0.738,0.369-1.565,0.645-2.487,0.83v7.74c0.922,0.124,1.749,0.338,2.487,0.646
			c1.228,0.491,1.843,1.044,1.843,1.659c0,0.799-0.615,1.382-1.843,1.751c-0.738,0.307-1.565,0.522-2.487,0.646v7.925
			c0.922,0.061,1.749,0.215,2.487,0.461c1.228,0.615,1.843,1.291,1.843,2.027c0,0.553-0.615,1.076-1.843,1.567
			c-0.738,0.368-1.565,0.645-2.487,0.829v7.741c0.922,0.123,1.749,0.337,2.487,0.645c1.228,0.492,1.843,1.044,1.843,1.659
			c0,0.798-0.615,1.443-1.843,1.935c-0.738,0.246-1.565,0.399-2.487,0.46v7.926c0.922,0.122,1.749,0.337,2.487,0.644
			c1.228,0.554,1.843,1.168,1.843,1.843c0,0.553-0.615,1.075-1.843,1.567c-0.738,0.369-1.565,0.645-2.487,0.83v7.833
			c0.922,0.123,1.749,0.307,2.487,0.553c1.228,0.491,1.843,1.106,1.843,1.843c0,0.676-0.615,1.26-1.843,1.751
			c-0.738,0.307-1.565,0.522-2.487,0.646v7.74c0.922,0.124,1.749,0.338,2.487,0.646c1.228,0.553,1.843,1.198,1.843,1.935
			c0,0.615-0.615,1.106-1.843,1.475c-0.738,0.43-1.565,0.737-2.487,0.922v7.74c0.922,0.124,1.749,0.338,2.487,0.646
			c1.228,0.43,1.843,1.014,1.843,1.751c0,0.737-0.615,1.32-1.843,1.75c-0.738,0.308-1.565,0.523-2.487,0.646v7.741
			c0.922,0.122,1.749,0.337,2.487,0.645c1.228,0.553,1.843,1.198,1.843,1.935c0,0.553-0.615,1.106-1.843,1.659
			c-0.738,0.369-1.565,0.615-2.487,0.737v7.741c0.922,0.123,1.749,0.339,2.487,0.645c1.228,0.493,1.843,1.076,1.843,1.751
			c0,0.738-0.615,1.353-1.843,1.844c-0.738,0.246-1.565,0.43-2.487,0.553v7.833c0.922,0.122,1.749,0.308,2.487,0.554
			c1.228,0.614,1.843,1.261,1.843,1.936c0,0.553-0.615,1.104-1.843,1.657c-0.738,0.369-1.565,0.616-2.487,0.738v7.833
			c0.922,0.122,1.749,0.306,2.487,0.553c1.228,0.491,1.843,1.106,1.843,1.843c0,0.675-0.615,1.26-1.843,1.752
			c-0.738,0.306-1.565,0.521-2.487,0.644v7.742c0.922,0.124,1.749,0.338,2.487,0.646c1.228,0.553,1.843,1.167,1.843,1.844
			c0,0.675-0.615,1.196-1.843,1.565c-0.615,0.306-1.26,0.553-1.935,0.738c0,0.061,0.03,0.122,0.092,0.184
			c0.369,1.228,0.553,2.703,0.553,4.424c0,1.657-0.184,3.164-0.553,4.515c-0.491,1.043-1.138,1.567-1.935,1.567
			c-0.614,0-1.169-0.524-1.66-1.567c-0.308-0.861-0.521-1.782-0.645-2.766h-7.741c-0.184,0.983-0.461,1.904-0.83,2.766
			c-0.491,1.043-1.104,1.567-1.843,1.567c-0.675,0-1.258-0.524-1.751-1.567c-0.306-0.861-0.522-1.782-0.645-2.766h-7.741
			c-0.123,0.983-0.337,1.904-0.645,2.766c-0.369,1.043-0.952,1.567-1.751,1.567c-0.738,0-1.291-0.524-1.66-1.567
			c-0.306-0.861-0.521-1.782-0.644-2.766h-7.742c-0.184,0.983-0.491,1.904-0.921,2.766c-0.431,1.043-1.014,1.567-1.752,1.567
			c-0.675,0-1.26-0.524-1.749-1.567c-0.308-0.861-0.522-1.782-0.646-2.766h-7.741c-0.122,0.983-0.338,1.904-0.645,2.766
			c-0.491,1.043-1.076,1.567-1.751,1.567c-0.736,0-1.352-0.524-1.843-1.567c-0.247-0.861-0.398-1.782-0.461-2.766h-7.925
			c-0.123,0.983-0.369,1.904-0.738,2.766c-0.489,1.043-1.074,1.567-1.75,1.567c-0.737,0-1.32-0.524-1.751-1.567
			c-0.308-0.861-0.523-1.782-0.646-2.766h-7.833c-0.122,0.983-0.306,1.904-0.553,2.766c-0.491,1.043-1.104,1.567-1.843,1.567
			c-0.675,0-1.258-0.524-1.751-1.567c-0.307-0.861-0.522-1.782-0.645-2.766h-7.741c-0.122,0.983-0.369,1.904-0.736,2.766
			c-0.493,1.043-1.076,1.567-1.751,1.567c-0.676,0-1.291-0.524-1.844-1.567c-0.246-0.861-0.43-1.782-0.553-2.766h-7.833
			c-0.122,0.983-0.338,1.904-0.646,2.766c-0.431,1.043-1.014,1.567-1.752,1.567c-0.675,0-1.26-0.524-1.749-1.567
			c-0.308-0.861-0.522-1.782-0.646-2.766h-7.741c-0.122,0.983-0.367,1.904-0.736,2.766c-0.491,1.043-1.106,1.567-1.843,1.567
			c-0.614,0-1.199-0.524-1.751-1.567c-0.307-0.861-0.522-1.782-0.645-2.766h-7.741c-0.125,0.983-0.339,1.904-0.646,2.766
			c-0.489,1.043-1.074,1.567-1.75,1.567c-0.737,0-1.32-0.524-1.751-1.567c-0.308-0.861-0.523-1.782-0.646-2.766h-7.833
			c-0.122,0.983-0.367,1.904-0.735,2.766c-0.431,1.043-1.014,1.567-1.752,1.567c-0.615,0-1.198-0.524-1.751-1.567
			c-0.308-0.861-0.522-1.782-0.645-2.766h-7.741c-0.123,0.983-0.339,1.904-0.645,2.766c-0.493,1.043-1.076,1.567-1.751,1.567
			c-0.738,0-1.353-0.524-1.844-1.567c-0.246-0.861-0.43-1.782-0.552-2.766h-7.834c-0.122,0.983-0.368,1.904-0.737,2.766
			c-0.491,1.043-1.076,1.567-1.752,1.567c-0.552,0-1.168-0.524-1.843-1.567c-0.308-0.983-0.491-2.058-0.553-3.226
			c-0.244-0.307-0.369-0.736-0.369-1.289v-4.424c-1.412-0.062-2.64-0.369-3.686-0.922c-1.168-0.369-1.752-0.891-1.752-1.565
			c0-0.677,0.584-1.291,1.752-1.844c1.046-0.432,2.273-0.677,3.686-0.737v-7.557c-1.412-0.061-2.64-0.308-3.686-0.737
			c-1.168-0.492-1.752-1.077-1.752-1.752c0-0.736,0.584-1.352,1.752-1.843c1.046-0.369,2.273-0.583,3.686-0.645v-7.649
			c-1.412-0.062-2.64-0.337-3.686-0.83c-1.168-0.553-1.752-1.104-1.752-1.657c0-0.675,0.584-1.321,1.752-1.936
			c1.046-0.368,2.273-0.583,3.686-0.646v-7.648c-1.412-0.061-2.64-0.276-3.686-0.646c-1.168-0.491-1.752-1.105-1.752-1.844
			c0-0.675,0.584-1.258,1.752-1.751c1.046-0.429,2.273-0.675,3.686-0.736v-7.557c-1.412-0.062-2.64-0.338-3.686-0.83
			c-1.168-0.553-1.752-1.106-1.752-1.659c0-0.737,0.584-1.382,1.752-1.935c1.046-0.43,2.273-0.676,3.686-0.738v-7.556
			c-1.412-0.062-2.64-0.308-3.686-0.738c-1.168-0.43-1.752-1.013-1.752-1.75c0-0.737,0.584-1.321,1.752-1.751
			c1.046-0.43,2.273-0.676,3.686-0.737v-7.557c-1.412-0.062-2.64-0.399-3.686-1.014c-1.168-0.369-1.752-0.86-1.752-1.475
			c0-0.737,0.584-1.382,1.752-1.935c1.046-0.43,2.273-0.676,3.686-0.737v-7.557c-1.412-0.061-2.64-0.307-3.686-0.737
			c-1.168-0.491-1.752-1.075-1.752-1.751c0-0.737,0.584-1.352,1.752-1.843c1.046-0.368,2.273-0.583,3.686-0.645v-7.649
			c-1.412-0.061-2.64-0.368-3.686-0.921c-1.168-0.492-1.752-1.014-1.752-1.567c0-0.675,0.584-1.29,1.752-1.843
			c1.046-0.43,2.273-0.675,3.686-0.737v-7.741c-1.412-0.062-2.64-0.247-3.686-0.553c-1.168-0.492-1.752-1.137-1.752-1.935
			c0-0.615,0.584-1.167,1.752-1.659c1.046-0.43,2.273-0.676,3.686-0.738v-7.556c-1.412-0.062-2.64-0.369-3.686-0.921
			c-1.168-0.491-1.752-1.014-1.752-1.567c0-0.737,0.584-1.413,1.752-2.027c1.046-0.307,2.273-0.492,3.686-0.553v-7.741
			c-1.412-0.061-2.64-0.307-3.686-0.737c-1.168-0.369-1.752-0.952-1.752-1.751c0-0.615,0.584-1.167,1.752-1.659
			c1.046-0.43,2.273-0.676,3.686-0.737v-7.557c-1.412-0.061-2.64-0.369-3.686-0.921c-1.168-0.492-1.752-1.014-1.752-1.567
			c0-0.737,0.584-1.413,1.752-2.028c1.046-0.43,2.273-0.675,3.686-0.737v-7.557c-1.412-0.061-2.64-0.307-3.686-0.737
			c-1.168-0.491-1.752-1.044-1.752-1.659c0-0.799,0.584-1.382,1.752-1.751c1.046-0.43,2.273-0.675,3.686-0.737v-7.741
			c-1.412-0.062-2.64-0.338-3.686-0.83c-1.168-0.43-1.752-0.952-1.752-1.567c0-0.676,0.584-1.32,1.752-1.935
			c1.046-0.43,2.273-0.676,3.686-0.737v-7.557c-1.412-0.063-2.64-0.307-3.686-0.737c-1.168-0.491-1.752-1.045-1.752-1.66
			c0-0.798,0.584-1.443,1.752-1.935c1.046-0.307,2.273-0.492,3.686-0.553V69.93c-1.412-0.061-2.64-0.338-3.686-0.83
			c-1.168-0.492-1.752-1.014-1.752-1.566c0-0.676,0.584-1.352,1.752-2.027c1.046-0.369,2.273-0.584,3.686-0.645v-2.396
			c0-0.492,0.092-0.86,0.277-1.106c0.062-1.536,0.275-2.795,0.645-3.779c0.675-1.29,1.291-1.935,1.843-1.935
			c0.676,0,1.261,0.646,1.752,1.935c0.43,0.86,0.705,1.936,0.829,3.226h7.742c0-1.29,0.184-2.365,0.552-3.226
			c0.491-1.29,1.105-1.935,1.844-1.935c0.675,0,1.258,0.646,1.751,1.935c0.367,0.86,0.613,1.936,0.736,3.226h7.649
			c0.062-1.29,0.275-2.365,0.645-3.226c0.553-1.29,1.136-1.935,1.751-1.935c0.738,0,1.321,0.646,1.752,1.935
			c0.43,0.86,0.707,1.936,0.829,3.226h7.739c0.062-1.29,0.277-2.365,0.646-3.226c0.431-1.29,1.014-1.935,1.751-1.935
			c0.676,0,1.261,0.646,1.75,1.935c0.369,0.86,0.615,1.936,0.738,3.226h7.649c0.061-1.29,0.275-2.365,0.645-3.226
			c0.552-1.29,1.137-1.935,1.751-1.935c0.736,0,1.352,0.646,1.843,1.935c0.431,0.86,0.708,1.936,0.83,3.226h7.647
			c0.063-1.29,0.277-2.365,0.646-3.226c0.489-1.29,1.074-1.935,1.749-1.935c0.738,0,1.321,0.646,1.752,1.935
			c0.369,0.86,0.613,1.936,0.737,3.226h7.741c0-1.29,0.184-2.365,0.553-3.226c0.553-1.29,1.168-1.935,1.844-1.935
			c0.675,0,1.258,0.646,1.751,1.935c0.429,0.86,0.706,1.936,0.828,3.226h7.649c0.062-1.29,0.277-2.365,0.645-3.226
			c0.493-1.29,1.076-1.935,1.751-1.935c0.738,0,1.352,0.646,1.843,1.935c0.369,0.86,0.586,1.936,0.646,3.226h7.739
			c0.062-1.29,0.277-2.365,0.646-3.226c0.431-1.29,1.014-1.935,1.751-1.935c0.676,0,1.261,0.646,1.75,1.935
			c0.432,0.86,0.707,1.936,0.83,3.226H602.187h4.793 M594.354,60.807h-4.978 M569.103,60.807h-4.976 M581.637,60.807h-4.885
			 M632.229,60.807h-4.791 M619.787,60.807h-5.16 M518.511,60.807h-4.977 M493.26,60.807h-3.871c-0.553,0-0.95,0.184-1.197,0.553
			 M487.914,64.862v5.068 M487.914,90.112v5.068 M505.885,60.807h-4.883 M487.914,77.671v4.884 M556.386,60.807h-4.885
			 M531.136,60.807h-4.886 M543.854,60.807h-5.068 M487.914,115.362v5.253 M487.914,140.797v5.068 M487.914,128.172v4.884
			 M487.914,153.422v4.885 M487.914,166.047v5.068 M487.914,178.765v4.977 M487.914,102.921v4.884 M656.282,69.838V67.35v-4.884
			c0-1.106-0.555-1.659-1.659-1.659h-1.936 M657.204,65.138c-0.062,0.308-0.155,0.646-0.277,1.015
			c-0.184,0.491-0.399,0.891-0.645,1.198 M645.038,60.807h-5.16 M656.282,95.088v-4.884 M656.282,82.463v-4.7 M656.282,120.523
			v-5.068 M656.282,132.964v-4.701 M656.282,145.773v-4.884 M656.282,158.214v-4.699 M656.282,171.024v-4.884 M656.282,183.649
			v-4.792 M656.282,107.713v-4.699 M656.282,208.899v-4.792 M656.282,234.149v-4.792 M656.282,221.616v-4.976 M656.282,246.867
			v-4.885 M656.282,259.491V254.7 M639.878,278.383h5.068 M652.688,278.383h1.936c1.104,0,1.659-0.583,1.659-1.749v-5.529v-3.871
			 M656.282,271.104c0.184,0.245,0.367,0.553,0.553,0.922 M564.127,278.383h4.884 M589.376,278.383h4.886 M576.752,278.383h4.791
			 M602.187,278.383h4.699 M627.438,278.383h4.699 M614.627,278.383h5.068 M487.914,204.015v4.977 M487.914,229.266v4.977
			 M487.914,216.548v5.161 M487.914,254.608v4.977 M487.914,241.891v5.068 M487.914,267.142v5.068 M488.283,277.923
			c0.184,0.308,0.553,0.46,1.105,0.46h3.779 M513.534,278.383h4.883 M501.002,278.383h4.791 M526.25,278.383h4.794 M551.501,278.383
			h4.793 M538.785,278.383h4.975 M656.282,196.367v-4.977 M487.914,191.298v5.161"/>
	</g>
	<g>
		
			<path id="Layer0_0_3_STROKES" fill="none" stroke="#666666" stroke-width="0.05" stroke-linecap="round" stroke-linejoin="round" d="
			M541.917,88.545c-0.736-0.921-1.167-2.027-1.289-3.318c-0.062-1.413,0.214-2.672,0.828-3.778c0.308-0.552,0.707-0.952,1.198-1.198
			c-0.43-0.246-0.705-0.491-0.829-0.737c-0.675-0.676-1.075-1.536-1.197-2.581c-0.062-1.167,0.122-2.181,0.553-3.041
			c0.491-0.737,1.105-1.106,1.843-1.106c0.798-0.061,1.505,0.185,2.119,0.738c0.677,0.859,1.015,1.813,1.015,2.856
			c0.122,0.983-0.062,1.904-0.555,2.765c-0.061,0.246-0.214,0.491-0.46,0.737c0.432,0.184,0.893,0.553,1.382,1.106
			c0.738,0.921,1.138,2.15,1.199,3.686c0.184,0.86,0.154,1.598-0.092,2.212c1.474-1.106,2.917-2.334,4.33-3.686
			c-0.184,0-0.369-0.123-0.553-0.369c-0.491-0.552-0.737-1.291-0.737-2.212c0-0.859,0.246-1.566,0.737-2.119
			c0.616-0.553,1.291-0.829,2.027-0.829c0.554,0,1.076,0.276,1.567,0.829c0.613,0.553,0.922,1.26,0.922,2.119
			c0,0.554-0.125,1.076-0.369,1.567c2.212,0,4.546,0,7.003,0c-0.246-0.246-0.397-0.43-0.461-0.553
			c-0.982-0.983-1.474-2.304-1.474-3.962c0-1.597,0.491-2.979,1.474-4.147c0.491-0.491,0.952-0.86,1.383-1.106
			c-0.369-0.307-0.675-0.584-0.922-0.83c-0.675-0.859-1.013-1.843-1.013-2.949c0-1.229,0.338-2.272,1.013-3.133
			c0.738-0.799,1.567-1.198,2.489-1.198c0.982,0,1.811,0.398,2.487,1.198c0.738,0.86,1.105,1.904,1.105,3.133
			c0,1.106-0.367,2.09-1.105,2.949c-0.244,0.246-0.521,0.491-0.829,0.737c0.737,0.247,1.29,0.646,1.659,1.199
			c0.982,1.167,1.474,2.55,1.474,4.147c0,1.659-0.491,2.979-1.474,3.962c-0.063,0-0.092,0.062-0.092,0.185
			c2.21-0.247,4.575-0.491,7.095-0.738c-0.122-0.492-0.184-0.922-0.184-1.29c0-0.86,0.215-1.567,0.645-2.12
			c0.553-0.676,1.199-1.014,1.936-1.014c0.613,0,1.198,0.338,1.751,1.014c0.491,0.553,0.738,1.259,0.738,2.12
			c0,0.798-0.155,1.413-0.461,1.843c2.579,1.044,5.344,2.12,8.294,3.226h0.092l-0.092-0.185c-0.493-1.044-0.616-2.365-0.369-3.962
			c0.246-1.413,0.83-2.519,1.751-3.318c0.367-0.307,0.86-0.583,1.475-0.829c-0.431-0.369-0.675-0.676-0.738-0.921
			c-0.369-0.799-0.491-1.751-0.369-2.857c0.247-1.044,0.738-1.904,1.477-2.58c0.552-0.676,1.166-0.922,1.843-0.737
			c0.799,0.061,1.411,0.522,1.843,1.382c0.429,0.983,0.522,1.997,0.275,3.041c-0.122,1.045-0.553,1.874-1.29,2.488
			c-0.307,0.123-0.583,0.307-0.828,0.553c0.553,0.308,0.95,0.738,1.197,1.291c0.491,1.291,0.613,2.611,0.368,3.962
			c-0.244,1.413-0.767,2.549-1.565,3.41c-0.247,0.246-0.461,0.4-0.646,0.461c2.643,0.799,5.529,1.598,8.663,2.396
			c0-0.184,0-0.398,0-0.644c0-0.86,0.216-1.567,0.645-2.121c0.555-0.552,1.198-0.829,1.937-0.829c0.799,0,1.383,0.276,1.75,0.829
			c0.615,0.554,0.921,1.26,0.921,2.121c0,0.982-0.461,1.874-1.382,2.672h0.094 M611.679,91.495c0.491-0.43,1.044-0.83,1.658-1.199
			c0.493-0.368,1.015-0.553,1.567-0.553c-0.246-0.307-0.369-0.614-0.369-0.921c-0.244-0.86-0.122-1.813,0.369-2.856
			c0.491-0.983,1.168-1.69,2.026-2.12c0.8-0.492,1.536-0.583,2.213-0.276c0.737,0.246,1.137,0.83,1.198,1.751
			c0.245,0.982,0.122,2.027-0.369,3.132c-0.369,0.86-0.984,1.475-1.843,1.843c-0.247,0.247-0.523,0.43-0.83,0.554
			c0.307,0.368,0.522,0.921,0.645,1.658v0.276 M635.454,102.184c-0.123,0.246-0.307,0.492-0.553,0.737
			c-0.614,0.615-1.259,1.045-1.935,1.291c-0.245,0-0.522,0-0.83,0c0.186,0.43,0.214,0.952,0.092,1.567
			c0,1.044-0.399,1.965-1.197,2.765c-0.86,0.921-1.689,1.504-2.489,1.75c-1.044,0.369-1.872,0.246-2.487-0.368
			c1.413,1.72,2.92,3.624,4.516,5.713c0.062-0.492,0.184-0.86,0.369-1.105c0.553-0.553,1.228-0.83,2.027-0.83
			c0.615,0,1.198,0.276,1.751,0.83c0.491,0.553,0.736,1.259,0.736,2.12c0,0.982-0.245,1.75-0.736,2.304 M633.335,118.957v0.185
			l0.275,2.765v0.921c0.86-0.921,1.782-1.475,2.765-1.659c0.493-0.123,0.893-0.153,1.199-0.092c-0.184-0.307-0.184-0.583,0-0.83
			c0-0.737,0.277-1.443,0.83-2.119c0.613-0.737,1.29-1.229,2.026-1.474c0.675-0.124,1.26,0.061,1.751,0.552
			c0.553,0.369,0.799,0.891,0.738,1.567c-0.186,0.799-0.493,1.536-0.922,2.212c-0.615,0.614-1.26,1.074-1.937,1.382
			c-0.245,0-0.522,0-0.828,0c0.245,0.307,0.275,0.737,0.092,1.29c0,1.106-0.43,2.058-1.29,2.857c-0.8,0.982-1.66,1.596-2.581,1.843
			c-0.49,0.123-0.983,0.184-1.475,0.184l0.369,3.687c0.615,1.905,1.321,3.84,2.12,5.806l-2.212,8.938
			c0.675,1.782,1.014,3.84,1.014,6.174c5.773,4.301,6.881,10.168,3.317,17.602c1.905,8.232,1.045,14.837-2.58,19.813
			c-0.86,6.573-3.809,11.181-8.848,13.823c-1.475,4.669-4.423,7.894-8.847,9.676c-5.222,1.474-8.785,1.596-10.689,0.368h-0.092
			l1.565-3.133c-0.736,0-1.443-0.215-2.118-0.646c-0.122,0-0.247-0.03-0.369-0.093c2.273,12.472,5.467,22.608,9.585,30.411
			c4.669,8.602,11.794,16.342,21.379,23.225c5.59,0.306,8.6,0.583,9.031,0.827 M593.156,76.934
			c-0.308,0.247-0.738,0.369-1.291,0.369c-0.368-0.184-0.675-0.43-0.921-0.737 M566.707,72.326
			c-0.553,0.308-1.105,0.461-1.658,0.461c-0.555,0-1.076-0.123-1.567-0.368 M579.794,81.634c-0.738-0.369-1.443-0.676-2.12-0.921
			c-0.8,0.185-1.566,0.307-2.305,0.368c0.062,0.369,0.217,0.676,0.461,0.921c0.245,0.247,0.492,0.491,0.738,0.738 M562.56,82.187
			c1.843-0.123,3.749-0.246,5.715-0.368c-0.799,0.921-1.782,1.382-2.95,1.382C564.219,83.201,563.298,82.862,562.56,82.187z
			 M536.941,93.982c4.485-0.675,9.43-2.641,14.837-5.897c0.247-0.185,0.431-0.338,0.553-0.461c0.491,0.123,0.982,0.185,1.474,0.185
			c3.134,0.675,6.144,0.614,9.032-0.185c1.657-0.307,3.226-0.86,4.699-1.659l0.83,0.092c1.229,0.553,2.427,1.137,3.595,1.751
			c5.036,2.15,10.75,2.518,17.14,1.105c0.123-0.061,0.309-0.092,0.553-0.092c0.123,0,0.184,0.031,0.184,0.092
			c4.118,2.949,8.633,5.253,13.548,6.912c2.027,0.676,4.116,1.26,6.266,1.751c2.212,4.853,6.729,8.693,13.548,11.519
			c0.982,5.836,4.423,10.106,10.32,12.81 M567.905,96.839c-1.597-0.615-3.194-1.475-4.793-2.58 M591.865,98.774
			c-2.518-1.044-5.131-1.567-7.833-1.567c-0.124,0-0.246,0-0.369,0c-0.306,0-0.615,0.093-0.921,0.277
			c-1.66,0.368-3.195,0.644-4.607,0.829c-0.738,0.062-1.383,0.215-1.936,0.461c-0.063-0.246-0.308-0.399-0.738-0.461
			c-2.089-1.229-4.607-1.72-7.556-1.474c-2.15,0.185-4.577,0.676-7.28,1.474c-3.134-0.982-5.774-1.505-7.925-1.567
			c-0.369,0-0.708,0-1.014,0c-2.09,0-3.563,0.4-4.424,1.199c-4.669,2.211-7.312,4.423-7.925,6.635
			c-0.86-1.105-2.029-1.904-3.503-2.396c-1.168-0.369-2.487-0.552-3.962-0.552c-0.737,0-1.476,0-2.212,0c-0.43,0-0.891,0-1.382,0
			c-4.671,0.675-7.497,3.809-8.479,9.399c-5.651,3.072-7.312,7.126-4.976,12.165c-5.101,5.468-5.961,10.537-2.58,15.206v0.093
			c-2.149,0.675-3.409,2.057-3.778,4.147c-0.247,1.904,0.184,4.791,1.29,8.662c-5.775,8.97-2.949,17.448,8.478,25.435l0.922-6.267
			c0.306-7.68,1.26-15.113,2.856-22.301l0.461-5.161l2.95-8.662l2.487-7.189l0.277-0.276c6.204,2.827,21.102,1.997,44.694-2.488
			c2.211,1.905,6.052,2.734,11.52,2.488c3.254,10.752,8.723,20.213,16.402,28.384c0.124,7.741,1.906,14.468,5.346,20.182l1.752,2.58
			l5.068,7.926c1.781,2.642,3.501,4.116,5.16,4.423c0.369,0,0.707,0,1.014,0c-1.228,0.491-2.765,3.624-4.608,9.4l-0.092,0.184
			c0.798,0.799,1.197,1.782,1.197,2.949c0.369,1.536,0.122,3.103-0.736,4.7c-0.86,1.659-2.12,2.765-3.778,3.317
			c-0.737,0.246-1.414,0.369-2.028,0.369 M575.461,98.313c0.8,0,1.69,0,2.674,0 M592.51,86.057c-1.474-0.491-2.917-0.891-4.33-1.198
			c0.43,1.044,1.136,1.597,2.118,1.659C591.036,86.703,591.773,86.548,592.51,86.057z M591.865,100.065
			c1.844,1.413,3.501,3.01,4.978,4.792c2.088,0.675,4.238,1.29,6.45,1.843c2.088,5.406,6.419,9.614,12.994,12.625
			c0.982,6.205,4.269,10.782,9.859,13.731l0.461,3.778c1.29,1.045,2.734,2.427,4.332,4.147c1.475,1.843,2.579,3.84,3.317,5.99
			 M617.3,90.85c-0.491,0-0.982-0.063-1.474-0.185c-0.369-0.246-0.675-0.553-0.922-0.922 M605.043,90.48
			c-0.367-0.491-0.614-0.891-0.736-1.198c-1.107-0.246-2.151-0.522-3.134-0.83c0.122,0.615,0.339,1.137,0.645,1.567v0.093
			c0.246,0.246,0.493,0.491,0.738,0.737 M611.587,97.116c-0.493-0.43-0.982-0.86-1.476-1.291c-0.062,0.308-0.062,0.646,0,1.014
			v0.276c0.246,1.106,0.769,1.843,1.567,2.212c0.983,0.492,1.936,0.43,2.856-0.184C613.491,98.406,612.509,97.73,611.587,97.116z
			 M605.137,90.48c1.35,1.905,3.009,3.686,4.975,5.345c0-0.798,0.246-1.689,0.738-2.672c0.244-0.615,0.521-1.167,0.829-1.659
			 M614.535,99.144h0.277c0.553-0.307,1.044-0.707,1.475-1.198 M620.248,98.683c-0.306,0.061-0.675,0.276-1.104,0.645
			c-0.431,0.553-0.645,1.259-0.645,2.12c0.86,0.491,1.721,0.982,2.579,1.474c0.246,0.307,0.553,0.737,0.922,1.291 M622.829,103.751
			c0.616-0.553,0.922-1.26,0.922-2.119c0-0.984-0.306-1.751-0.922-2.304l-0.092-0.184 M619.881,104.488
			c-0.246-0.246-0.493-0.492-0.737-0.737c-0.431-0.553-0.645-1.26-0.645-2.119v-0.185c-1.291-0.676-2.521-1.444-3.687-2.304
			 M622,104.212c1.045,1.597,2.242,3.256,3.594,4.976c-0.244-0.43-0.338-0.952-0.277-1.566c0-0.921,0.433-1.843,1.291-2.765
			c0.738-0.983,1.629-1.505,2.673-1.567c0.43-0.246,0.86-0.338,1.29-0.276c-0.186-0.308-0.186-0.584,0-0.83
			c0-0.369,0.123-0.707,0.369-1.013 M632.137,104.212c-0.431,0-0.769-0.124-1.014-0.369c-0.306-0.122-0.491-0.398-0.553-0.829
			 M545.143,79.883c-0.429,0.307-0.922,0.46-1.475,0.46c-0.369,0.185-0.707,0.154-1.014-0.092 M531.873,101.632
			c0.184-0.492,0.092-1.076-0.277-1.751c-0.552,0.615-1.198,1.198-1.935,1.751 M531.596,99.88c2.149-2.396,3.349-4.147,3.595-5.253
			 M551.962,83.201c0.491-0.308,0.984-0.708,1.475-1.199c0.554,0,1.137,0.062,1.751,0.185c0.124-0.123,0.246-0.123,0.369,0
			 M545.972,88.453c-0.736,0.554-1.565,1.076-2.487,1.567c0.369,0.062,0.707,0.062,1.014,0c1.104,0,1.935-0.522,2.487-1.567
			c0-0.178,0.094-0.27,0.277-0.276 M545.972,88.453c0.614-0.552,1.168-1.074,1.66-1.566c-0.186,0.492-0.309,0.922-0.369,1.29
			 M535.835,102.184c3.749-1.167,7.587-3.256,11.52-6.266c1.413,0.368,2.856,0.645,4.332,0.829 M524.962,213.415
			c-3.625-9.461-5.651-20.55-6.084-33.268c-0.062-3.317,0.032-6.543,0.277-9.676 M525.423,134.347
			c-1.415,4.423-2.551,9.031-3.411,13.823 M625.594,109.188c0.062,0.247,0.216,0.492,0.461,0.738 M633.335,118.957v-0.185
			c-1.046-1.044-1.967-2.089-2.765-3.133c-0.186,0.308-0.277,0.645-0.277,1.014c0,0.982,0.215,1.75,0.646,2.304
			c0.307,0.246,0.583,0.43,0.828,0.553 M634.349,132.227c-0.306-1.352-0.553-2.642-0.738-3.87c-0.184-0.123-0.338-0.247-0.46-0.369
			c-0.614-0.491-0.861-1.26-0.736-2.304c0-0.86,0.308-1.597,0.921-2.212c0-0.675,0.062-1.198,0.184-1.566 M633.335,123.472
			c0.123-0.246,0.215-0.461,0.275-0.645l0.369,5.713c-0.062,0-0.184-0.061-0.369-0.184
			C633.305,126.575,633.211,124.947,633.335,123.472z M634.349,132.227l0.369,4.424 M596.843,104.857
			c2.396,2.826,4.146,6.143,5.252,9.953c9.276,3.133,16.281,9.707,21.012,19.721c1.044,0.369,2.21,1.137,3.501,2.304
			 M567.905,165.771c0.736-0.185,1.566-0.276,2.487-0.276c1.968,0,3.994,0.583,6.082,1.75c0.799,0.553,1.69,1.26,2.673,2.12v0.092
			h-0.092c-1.352,0.86-2.642,1.536-3.87,2.028c-2.028,0.737-4.055,1.013-6.083,0.829c-2.396-0.307-4.73-1.29-7.004-2.948
			C564.005,167.645,565.938,166.447,567.905,165.771z M559.98,168.259c0.553-0.615,1.136-1.106,1.75-1.475
			c2.764-2.15,5.529-3.317,8.293-3.501c3.012-0.185,6.052,0.86,9.124,3.133c1.107,0.615,2.273,1.567,3.503,2.856 M607.901,178.027
			c0,0.921,0,1.874,0,2.857c-0.186,6.082-0.983,11.857-2.397,17.325c0,0.246,0,0.492,0,0.737c0,0.676,0,1.382,0,2.119
			 M606.149,201.62c0.798-1.106,1.844-1.905,3.134-2.396c1.35-0.615,2.643-0.615,3.87,0 M613.337,199.223
			c1.29-1.413,2.887-4.362,4.793-8.847 M552.7,96.747c3.439,0,6.604-0.829,9.49-2.487 M637.574,121.076
			c0.061,0.307,0.216,0.583,0.461,0.83c0.369,0.307,0.767,0.461,1.198,0.461 M614.443,199.96c-0.246-0.246-0.523-0.43-0.829-0.553
			c-0.179-0.119-0.332-0.18-0.461-0.184 M614.904,204.384c0.247,1.044,0.092,2.119-0.461,3.225c-0.553,0.922-1.382,1.628-2.489,2.12
			c-0.736,0.246-1.443,0.246-2.118,0c-0.124,0-0.308-0.093-0.553-0.276c-0.86-0.43-1.321-1.168-1.382-2.212
			c-0.186-1.106-0.033-2.182,0.46-3.226c0.614-1.106,1.411-1.782,2.396-2.027c1.044-0.368,1.996-0.276,2.856,0.276
			C614.413,202.572,614.842,203.278,614.904,204.384z M605.504,198.947c-0.062,0.43-0.184,0.891-0.367,1.382
			c-2.459,8.294-6.451,15.942-11.98,22.947c-9.401,12.164-20.429,18.246-33.084,18.246c-3.503,0-6.789-0.489-9.861-1.475
			c1.781,3.257,2.765,6.882,2.95,10.875c0.184,2.457,0.184,6.882,0,13.271 M605.872,202.264c-0.061,0-0.184,0.031-0.368,0.093
			c-0.8,1.598-1.136,3.226-1.014,4.884c0.369,1.474,1.074,2.58,2.12,3.317 M605.504,202.356c0-0.491,0-0.921,0-1.291
			 M550.211,240.047c-7.986-2.272-14.623-7.556-19.905-15.85c-0.614-1.106-1.229-2.212-1.843-3.318"/>
	</g>
	<g>
		
			<path id="Layer0_0_4_STROKES" fill="none" stroke="#AABFFF" stroke-width="0.05" stroke-linecap="round" stroke-linejoin="round" d="
			M605.137,90.48c2.332,0.369,4.514,0.707,6.542,1.014 M610.111,96.839c0.493,0,0.982,0.092,1.476,0.276 M547.263,88.177
			c-0.376,0.002-0.807,0.095-1.291,0.276"/>
	</g>
	<g>
		
			<path id="Layer0_0_5_STROKES" fill="none" stroke="#AAAAAA" stroke-width="0.05" stroke-linecap="round" stroke-linejoin="round" d="
			M579.147,169.365l-0.092,0.092 M605.504,201.066c0.246,0.246,0.46,0.43,0.646,0.554c-0.186,0.184-0.277,0.398-0.277,0.644"/>
	</g>
	<g>
		
			<path id="Layer0_0_6_STROKES" fill="none" stroke="#333333" stroke-width="0.05" stroke-linecap="round" stroke-linejoin="round" d="
			M584.124,155.358c-10.259-3.625-19.014-2.949-26.264,2.027l-0.645,0.461c-0.308,2.396,0.736,3.471,3.132,3.225
			c2.336-1.413,4.73-2.488,7.188-3.225c0.8-0.308,1.752-0.461,2.856-0.461c2.704-0.491,5.346-0.615,7.926-0.369l1.198,0.461
			c1.413,0.185,2.856,0.553,4.33,1.106C586.06,158.337,586.151,157.262,584.124,155.358z M544.037,160.703
			c-0.369,0.491-1.228,0.645-2.581,0.46l-0.367-0.092c-1.354-0.86-3.104-1.536-5.254-2.027c-0.308-0.062-0.707-0.185-1.197-0.369
			c-1.168-0.246-3.871-0.645-8.11-1.198c-1.044-0.307-1.29-1.137-0.737-2.488c3.011-1.044,5.129-1.382,6.358-1.013l4.333,1.013
			c2.518,0.799,4.575,2.119,6.173,3.962L544.037,160.703c0.738,1.291,1.105,3.103,1.105,5.438c0,0.43,0,0.829,0,1.198
			c-0.184,1.843-0.614,3.624-1.289,5.345c-4.607,10.137-6.729,16.71-6.359,19.722c0.553,3.256,4.208,4.269,10.967,3.041
			c0.922-1.167,1.872-1.905,2.856-2.212c1.168-0.307,2.519-0.031,4.056,0.83c3.07,0.123,4.238-1.137,3.501-3.779
			c-0.859-2.703-2.519-4.208-4.978-4.515 M530.675,165.495c-1.475,0.43-2.856,1.352-4.147,2.765
			c1.413,1.536,2.948,2.488,4.608,2.856c-0.738-0.859-1.138-1.904-1.199-3.133C529.998,167.184,530.244,166.354,530.675,165.495
			c0.799-0.246,1.537-0.369,2.212-0.369c1.966,0,4.146,0.706,6.543,2.119c0.306,0.308,0.677,0.584,1.104,0.83
			c-0.489,0.369-0.889,0.676-1.196,0.922c-3.012,1.904-5.744,2.61-8.202,2.119 M541.917,166.969
			c-1.411-0.982-2.765-1.813-4.054-2.488c-1.659-0.614-3.196-0.921-4.607-0.921c-0.247,0-0.493,0-0.738,0
			c-1.966,0.062-3.963,0.769-5.99,2.12c-0.491,0.307-1.013,0.675-1.565,1.105 M536.573,169.457
			c-0.492,0.492-1.075,0.737-1.752,0.737c-0.553,0-1.076-0.246-1.565-0.737c-0.308-0.43-0.555-0.921-0.738-1.474
			c0.184-0.738,0.431-1.26,0.738-1.567c0.489-0.491,1.013-0.737,1.565-0.737c0.677,0,1.26,0.246,1.752,0.737
			c0.368,0.368,0.552,0.891,0.552,1.567C537.125,168.536,536.941,169.027,536.573,169.457z M539.338,168.997
			c0.061-0.369,0.092-0.707,0.092-1.014c0-0.247,0-0.491,0-0.738 M567.905,165.771c-0.491,0.737-0.769,1.567-0.829,2.488
			c0.061,1.474,0.491,2.611,1.29,3.41c0.247,0.184,0.491,0.398,0.736,0.644 M570.393,169.826c-0.491-0.369-0.736-0.891-0.736-1.567
			s0.245-1.167,0.736-1.475c0.309-0.491,0.83-0.737,1.568-0.737c0.613,0,1.166,0.246,1.657,0.737
			c0.308,0.369,0.461,0.86,0.461,1.475c0,0.676-0.153,1.198-0.461,1.567c-0.491,0.491-1.044,0.737-1.657,0.737
			C571.223,170.563,570.701,170.317,570.393,169.826z M576.475,167.245c0,0.308,0,0.645,0,1.014c0,1.29-0.428,2.365-1.289,3.226
			 M570.393,209.729c-6.634,3.932-13.515,5.897-20.643,5.897c-7.372,0.185-12.594-1.781-15.666-5.897l8.939-1.475l5.16,0.83
			l5.713-0.83L570.393,209.729c-13.454,3.133-25.557,3.133-36.309,0 M528.463,220.879c-1.291-2.396-2.457-4.884-3.501-7.464"/>
	</g>
</g>
</svg>
