<svg xmlns="http://www.w3.org/2000/svg" xmlns:xlink="http://www.w3.org/1999/xlink" preserveAspectRatio="none" width="285" height="427" viewBox="0 0 285 427"><defs><linearGradient id="a" gradientUnits="userSpaceOnUse" x1="129.313" y1="282.85" x2="158.587" y2="282.85" spreadMethod="pad"><stop offset="0%" stop-color="#090909"/><stop offset="57.255%" stop-color="#666"/><stop offset="99.216%" stop-color="#222"/></linearGradient><g id="b"><path fill="url(#a)" d="M158.65 312.1l-29.3-.1v60.2l29.3-.35V312.1z"/><path fill="red" d="M210.6 55.55h-15.85L90.3 55.3H74.8l-68.95 69v119.15l68.6 68.45H90.3l39.05.1 29.3.1 36.1.05h15.45l68.95-68.95V124.1L210.6 55.55m-19.4 6.5h15.25l66.3 65.7v111.1l-66.6 66.05h-76.8l-35.6-.05h-15.1L12.4 239V127.9L79 62h14.75l97.45.05m15.25 0H191.2L93.75 62H79l-66.6 65.9V239l66.25 65.85h15.1l35.6.05h76.8l66.6-66.05v-111.1l-66.3-65.7z"/></g><path id="c" stroke="#000" stroke-width="2" stroke-linejoin="round" stroke-linecap="round" fill="none" d="M158.65 371.85V312.1m-29.3-.1v60.2"/><path id="d" stroke="#FFF" stroke-width="7" stroke-linejoin="round" stroke-linecap="round" fill="none" d="M206.45 62.05l66.3 65.7v111.1l-66.6 66.05h-76.8l-35.6-.05h-15.1L12.4 239V127.9L79 62h14.75l97.45.05h15.25z"/><path id="e" stroke="#000" stroke-width="3" stroke-linejoin="round" stroke-linecap="round" fill="none" d="M129.35 312l-39.05-.1H74.45l-68.6-68.45V124.3l68.95-69h15.5l104.45.25h15.85l68.55 68.55v119.1l-68.95 68.95h-15.45l-36.1-.05-29.3-.1z"/></defs><g><use xlink:href="#b"/><use xlink:href="#c"/><use xlink:href="#d"/><use xlink:href="#e"/></g><g transform="matrix(4.22513 0 0 4.22513 37.05 130.25)"><clipPath id="f"><path fill="#FFF" d="M-2-2h58.65v26.35H-2z"/></clipPath><text clip-path="url(#f)" writing-mode="lr"><tspan x="0" y="18.1" baseline-shift="0%" font-family="Arial_Regular" font-size="20" fill="#FFF">STOP</tspan></text></g></svg>