<svg xmlns="http://www.w3.org/2000/svg" width="285" height="427" viewBox="0 0 285 427"><g><path fill="#D9CFC0" fill-opacity=".753" d="M189.174 340.683a39.207 39.207 0 0 0-6.482-.39c.573.312 1.484.441 2.733.39 1.354-.104 2.525-.104 3.515 0h.234m2.576.39l.077.079a45.692 45.692 0 0 1 5.156 2.343c.937.468 1.873.702 2.811.702.521 0 .938-.155 1.249-.469-3.176-1.197-6.272-2.082-9.293-2.655m16.321 5.78v.312c0 1.197.65 2.03 1.952 2.499 2.291.729 3.75 1.328 4.373 1.797.887.571 2.473.884 4.764.936.157 0 .313.025.47.079a74.431 74.431 0 0 1-10.465-5.076l-1.094-.547m33.658 8.824c3.905-.729 5.857-1.405 5.857-2.029.054-.313-.026-.6-.233-.86-.418-.623-1.38-.937-2.891-.937-1.041 0-2.343.155-3.904.469-1.457.364-3.409.573-5.857.625.105-.261.157-.548.157-.858 0-.574-.234-1.068-.703-1.484-.52-.417-1.484-.833-2.89-1.249-1.459-.365-4.113-.573-7.966-.626-3.801.053-5.908.053-6.325 0-2.448-1.301-4.295-2.187-5.544-2.655-2.084-.885-3.203-.624-3.359.781l1.094.547a74.431 74.431 0 0 0 10.465 5.076c1.302.053 2.421 0 3.357-.156.572.832 1.874 1.665 3.905 2.5.053 0 .104.025.156.077a103.45 103.45 0 0 0 7.184 1.64c2.032-.054 4.532-.34 7.497-.861m22.882 1.562l1.094-.548c2.082-.937 3.124-1.795 3.124-2.575 0-1.72-.964-2.161-2.891-1.329-3.227 1.197-5.413 1.797-6.56 1.797-6.769-.052-10.673-.078-11.714-.078-.886.052-1.327.624-1.327 1.718 0 .78.234 1.224.703 1.328.469.207 1.224.365 2.265.469 4.893.103 9.996-.158 15.306-.782m-.077.078l.077-.078c-5.311.624-10.413.885-15.306.781-5.207-.104-10.231-.6-15.073-1.484a103.581 103.581 0 0 1-7.184-1.64l.078.078c2.498 1.041 4.557 1.562 6.17 1.562h.858c4.946.937 10.126 1.459 15.541 1.562 2.134.155 5.362.235 9.683.235 1.614 0 3.334-.338 5.156-1.016m-72.784-19.758c-6.612-1.613-9.918-1.223-9.918 1.172 0 .729.285 1.25.859 1.563a39.086 39.086 0 0 1 6.482.39c1.195.052 2.057.184 2.576.391 3.021.573 6.117 1.458 9.293 2.655v-.078a1.86 1.86 0 0 0 .469-1.249c.001-1.669-3.253-3.282-9.761-4.844M61.88 363.564c0 .053.026.182.078.391.52.572 1.874.858 4.06.858 4.478 0 9.008-.391 13.589-1.171-5.622.313-11.531.287-17.727-.078m29.207-1.17c.364.209.884.313 1.562.313 1.874-.574 3.618-1.12 5.232-1.64-2.238.468-4.503.91-6.794 1.327m-2.186-4.842c-3.02 1.04-5.128 1.666-6.326 1.873-.417.158-4.424.6-12.026 1.328-5.831.573-8.747 1.328-8.747 2.266 0 .052.026.233.078.546 6.196.364 12.104.391 17.727.078h.078a74.968 74.968 0 0 0 4.452-.937c2.812-.625 4.894-1.198 6.248-1.719 0 .416.052.703.156.859.157.26.339.443.547.547 2.291-.417 4.555-.858 6.794-1.327 9.788-3.28 14.682-5.467 14.682-6.561 0-1.771-3.671-1.328-11.012 1.327-4.216 1.562-7.236 2.759-9.059 3.592 0-1.82-1.197-2.445-3.592-1.872m77.625-14.057c-.574-.521-1.589-.548-3.046-.079-3.021 1.197-5.233 1.875-6.638 2.031-3.904.572-6.612 1.066-8.122 1.482-2.499.729-3.749 1.642-3.749 2.734v.312c7.602-2.029 14.786-4.19 21.555-6.48m.468.781c-.104-.364-.26-.626-.468-.781-6.77 2.29-13.953 4.451-21.555 6.48.052.313.131.522.234.626.207.571.781.859 1.718.859.261 0 .809-.053 1.642-.156.676-.313 1.481-.6 2.42-.86 6.299-2.134 9.553-3.228 9.762-3.279 2.343-1.353 4.425-2.317 6.247-2.889M37.983 360.285v.233c6.716 1.249 13.172 2.161 19.367 2.733h.078c.938-.104 1.64-.233 2.108-.391.781-.207 1.171-.729 1.171-1.563 0-.936-3.826-1.665-11.48-2.185-7.495-.571-11.244-.181-11.244 1.173m-1.25.156h.47a209.99 209.99 0 0 1-7.419-1.563c-6.144-2.811-11.09-6.065-14.838-9.762v.235c0 1.562 2.264 3.722 6.794 6.48 5.05 3.074 10.048 4.61 14.993 4.61m1.25.156c.052.625.391 1.068 1.015 1.328 1.927.937 6.091 1.405 12.496 1.405 2.447 0 4.399-.026 5.856-.078-6.195-.572-12.651-1.484-19.367-2.733v.078m.548-2.109c0-.625-2.291-1.613-6.873-2.968-5.049-1.666-7.81-2.602-8.278-2.811-1.926-1.979-3.54-3.463-4.842-4.452-2.291-1.77-3.488-1.483-3.592.859 3.749 3.696 8.694 6.951 14.838 9.762 2.499.572 4.971 1.094 7.419 1.563.468-.209.833-.494 1.092-.858.157-.365.236-.729.236-1.095m-9.841-58.569c-4.842 1.925-8.173 3.696-9.996 5.311a91.25 91.25 0 0 1 9.996-5.311m-11.401 28.348c.156.678.364 1.379.625 2.108v-.156a9.606 9.606 0 0 1-.157-1.718 49.577 49.577 0 0 0-.468-.234m.625 2.108a19.192 19.192 0 0 1-.625-2.108c-1.562-.884-2.343-.131-2.343 2.264 0-.104 1.328 1.771 3.983 5.624 1.718 2.185 3.149 3.8 4.295 4.841a42.83 42.83 0 0 1-1.093-1.64c-1.562-2.395-2.604-4.243-3.124-5.544a14.587 14.587 0 0 1-1.093-3.437m-.157-11.011c0 .052.026.103.079.155.885-1.302 2.03-2.553 3.436-3.748 1.198-1.979 3.176-4.061 5.936-6.247 1.717-1.303 3.124-2.161 4.216-2.578-.52-1.926-2.785-1.171-6.794 2.266-4.632 3.851-6.95 6.847-6.95 8.98-.001.469.026.859.077 1.172m.078.156c.208.521.729.78 1.562.78a.532.532 0 0 0 .391-.155v-.077c0-1.406.494-2.838 1.483-4.296-1.405 1.195-2.551 2.446-3.436 3.748m-7.34-8.668a65.024 65.024 0 0 1 4.061-2.889c-.208-.729-.703-.964-1.484-.703-1.092.313-2.186 1.587-3.28 3.827-.364.884-.728 1.976-1.093 3.278-.208.729-.495 1.797-.86 3.202a944.68 944.68 0 0 1-1.874 6.325c-.677 2.604-1.015 4.765-1.015 6.482 0 .052.052.781.155 2.187.208 1.093.626 1.796 1.25 2.109v.077l2.343 6.325c1.562 3.436 3.045 5.492 4.451 6.17-8.329-9.526-9.214-21.656-2.654-36.39m4.061-2.889a64.438 64.438 0 0 0-4.061 2.889c-6.56 14.734-5.675 26.864 2.655 36.392.312.104.625.156.937.156.677 0 1.146-.286 1.407-.859.208-.312.312-.65.312-1.015 0-.052-.625-.989-1.874-2.812-1.407-2.135-2.448-3.932-3.124-5.389-.521-2.134-.885-3.54-1.094-4.217-.417-.833-.833-1.327-1.249-1.484.156-.572.312-1.197.468-1.874l1.405-7.73c.313-1.303 1.146-3.853 2.5-7.654 1.197-3.487 1.796-5.335 1.796-5.544-.001-.365-.027-.652-.078-.859m24.286-11.324a457.823 457.823 0 0 0-5.7 1.64c-.417.155-.808.313-1.172.469l6.872-2.109m103.787 43.341c-.312-.365-.572-.65-.78-.859-2.135.938-3.463 1.483-3.983 1.641-3.384.885-6.43 1.77-9.136 2.654-2.551.781-4.452 1.51-5.702 2.187l20.227-5.075a2.16 2.16 0 0 1-.626-.548m13.276-2.577l-2.89.78c-4.479 2.291-7.055 3.438-7.732 3.438-.727 0-1.405-.365-2.029-1.094l-20.227 5.075c-1.509.73-2.264 1.327-2.264 1.797 0 .104.078.469.234 1.093.26.625.963.938 2.109.938 1.51 0 4.321-.78 8.434-2.342 2.187-.782 4.971-1.901 8.355-3.359 8.851-2.915 14.551-5.153 17.103-6.716a9.05 9.05 0 0 1-1.093.39m-1.328-.078a11.39 11.39 0 0 0-1.562.858l2.89-.78a8.949 8.949 0 0 0 1.093-.391c.572-.364.962-.703 1.171-1.016-1.456.471-2.655.913-3.592 1.329m-89.494-44.98c-.625-.053-1.302-.104-2.031-.158a110.67 110.67 0 0 0-13.432 1.407l-10.777 3.045-6.872 2.108c-.833.26-1.666.546-2.499.858l-.078.077a.276.276 0 0 1-.156 0 .23.23 0 0 1-.078.08 2.432 2.432 0 0 1-.469.156 91.422 91.422 0 0 0-9.996 5.311c-1.249 1.092-1.875 2.159-1.875 3.201 0 .521.027.885.079 1.094.208.678.755 1.015 1.64 1.015.364 0 1.302-.781 2.812-2.343 1.562-1.666 2.707-2.604 3.436-2.812 1.042-.364 2.916-1.12 5.623-2.265 2.707-1.042 4.581-1.718 5.623-2.03 6.404-2.083 13.588-4.14 21.554-6.17 4.998-1.249 7.498-2.03 7.498-2.343-.002-.051-.002-.129-.002-.231m-5.937-1.407c-3.54.937-6.715 1.821-9.527 2.656a110.67 110.67 0 0 1 13.432-1.407c.729.054 1.405.105 2.031.158-.053-.418-.287-.782-.703-1.095-.989-.78-2.733-.886-5.233-.312m66.146-62.241a1031.07 1031.07 0 0 1-1.953 10.308 61.91 61.91 0 0 1-.625 3.593c-1.146 5.727-2.395 10.752-3.749 15.072a37.833 37.833 0 0 0-.469 2.186c-.417 1.407-.859 3.151-1.328 5.233-.781 2.915-1.796 5.518-3.045 7.809a69.737 69.737 0 0 1-7.419 10.777l-3.593 4.217c3.905-2.082 6.846-4.841 8.825-8.277 7.812-12.183 12.263-29.155 13.356-50.918m16.712-58.18c0 .937-.078 1.822-.234 2.655a88.626 88.626 0 0 1 9.606-12.495c-4.53 4.061-7.106 6.898-7.731 8.512-.469.261-1.016.704-1.641 1.328M103.66 91.174h.469c1.197 0 3.124-.912 5.778-2.733-1.613.52-3.696 1.431-6.247 2.733m22.491-8.591a2.738 2.738 0 0 0-.858-.156 5.369 5.369 0 0 1-1.094.547 67.957 67.957 0 0 1 1.952-.391m-12.104-.312h-.156a.961.961 0 0 0-.235.156 3.2 3.2 0 0 1 .391-.156m3.28 0c-.052.104-.13.234-.234.39a4.71 4.71 0 0 0 1.328-.39h-1.094m18.664.625c.052.157.339.235.859.235 1.302 0 2.395-.13 3.28-.39-1.613-.053-3.28-.079-4.998-.079.469.052.755.13.859.234m-8.512-.313c.208.052.469.078.781.078.261 0 .599-.025 1.015-.078h-1.796m3.437.391l2.654-.313a111.583 111.583 0 0 0-4.216-.078c.164.005.372.083.625.234.312.104.624.157.937.157m57.164 27.567c.104.521.261 1.197.468 2.03.208.938.469 2.083.781 3.437.052.364.104.884.155 1.562 0-2.915-.572-5.701-1.717-8.356.156.468.26.911.313 1.327m11.089 9.293c0 .052.025.104.077.155l.079-1.171c-.051.313-.102.652-.156 1.016m-.155-9.45c-.054-.051-.106-.078-.157-.078.366 1.302.573 2.681.625 4.139.052-.313.104-.572.155-.781.104-.468.287-.911.548-1.327a15.156 15.156 0 0 1-.548-1.64 1.756 1.756 0 0 1-.623-.313m-12.653-3.591c.261.416.521.858.781 1.328l.234.468c.104.156.207.338.313.546l.078.078a20.884 20.884 0 0 1 1.717 8.356v2.42c0 2.396-.624 4.869-1.873 7.419-1.302 2.5-1.952 3.801-1.952 3.905 0 .052.024.234.077.546-.416.417-.78.989-1.093 1.718-.365.573-1.171 1.431-2.42 2.577-1.615 1.354-2.5 2.161-2.656 2.422-1.406 1.405-3.669 3.253-6.793 5.544-.158.051-2.604 1.692-7.342 4.92-1.927 1.197-5.728 4.294-11.401 9.293a67.598 67.598 0 0 0-2.655 2.342 88.477 88.477 0 0 0-9.606 12.495c-.103.312-.26.65-.468 1.015a902.522 902.522 0 0 1-3.202 7.576 732.572 732.572 0 0 0-4.061 7.497c-1.562 3.02-2.63 5.623-3.202 7.81-1.041 3.488-1.979 8.538-2.812 15.15-.938 7.08-1.77 12.132-2.499 15.15a7.526 7.526 0 0 1-.234 1.249v.079c-1.094 21.763-5.544 38.734-13.354 50.917-1.979 3.437-4.92 6.195-8.825 8.277 0 .053.053.391.156 1.016.313.676.938 1.015 1.875 1.015 3.853 0 7.445-3.801 10.777-11.402 1.405-3.227 3.436-9.241 6.091-18.039 1.094-4.06 2.317-9.058 3.67-14.993 1.77-8.383 2.864-13.328 3.28-14.838.938-3.697 1.796-8.693 2.577-14.995 1.093-7.6 1.848-12.546 2.265-14.837 0-.051 2.082-4.581 6.247-13.588 3.54-7.809 5.493-13.067 5.857-15.775.781-.729 3.67-3.436 8.668-8.122 6.403-5.779 10.595-9.372 12.573-10.777 7.915-5.675 12.313-8.85 13.198-9.528 4.218-3.383 6.873-6.117 7.965-8.2-.104-.208-.156-.468-.156-.781 0-.26.391-1.432 1.172-3.514.729-2.03 1.146-3.305 1.249-3.826v-.078c-.52-.937-.727-2.369-.624-4.295.521-4.425.729-7.341.624-8.746-.26-2.655-1.381-5.519-3.356-8.59-1.771-2.604-2.709-4.478-2.813-5.623a7.581 7.581 0 0 1-1.249-.859c-4.789-3.279-7.184-4.945-7.184-4.998-3.54-2.239-6.664-3.957-9.371-5.154-5.936-2.447-10.205-3.957-12.809-4.53-2.654-.468-6.431-.807-11.322-1.015 1.457.313 2.784.468 3.981.468.469.104.99.183 1.563.235.364.052.678.129.938.234 2.03.938 3.462 1.562 4.295 1.874v.079c-.573-.26-1.302-.417-2.187-.469.26.053.546.13.858.235 3.124.781 6.247 1.927 9.371 3.436l2.343 1.25c.392.293.808.527 1.25.703l.079.079h.077c.262.208.546.39.859.546l.234.079c9.579 4.373 16.19 9.267 19.835 14.681.105.154.236.336.392.545m-6.872-6.638c.416.364.833.703 1.249 1.015 2.031 1.77 3.489 3.15 4.373 4.139.105.104.235.208.391.313l.469.625c-3.645-5.415-10.256-10.308-19.835-14.681 5.986 3.434 10.438 6.298 13.353 8.589m95.508 249.198c-.937 0-1.743-.132-2.42-.391a40.838 40.838 0 0 1-2.421-.47c-.626.157-1.327.261-2.107.313-.885.052-1.901.026-3.047-.078.053.053.078.104.078.155.364.574 1.172.861 2.421.861 3.385 0 5.883-.132 7.496-.39M186.674 92.736a1.925 1.925 0 0 1-.703.156c.521.468 1.016.962 1.483 1.483a83.645 83.645 0 0 1 4.921 4.374c-.313-.313-.834-.99-1.562-2.03a38.73 38.73 0 0 1-.704-1.016 23.502 23.502 0 0 0-2.107-1.875c-.313-.26-.6-.494-.859-.702a1.181 1.181 0 0 1-.469-.39m-10.856-6.717a4.36 4.36 0 0 0-.937-.702c-1.197-.833-2.732-1.692-4.607-2.577l-.313-.157c-.362-.26-.598-.521-.701-.781l-.079-.079a2.62 2.62 0 0 0-.391.313 2.864 2.864 0 0 0-.155.391 2.524 2.524 0 0 0-.078.625c0 .677 1.042 1.25 3.124 1.718 1.978.417 2.967.781 2.967 1.094 0 1.717.677 2.759 2.031 3.124 2.967.884 6.013 2.628 9.137 5.231 1.197.99 2.368 2.317 3.514 3.983 1.718 2.551 2.837 4.165 3.359 4.842.987 1.197 2.314 4.607 3.981 10.23.938 3.175 1.718 5.336 2.344 6.482l.155.078c.054-.365.105-.703.156-1.016V118.115l.078-2.812c0-.312.026-.572.078-.781v-.078a17.563 17.563 0 0 0-.625-4.139c-.937-.833-1.953-2.265-3.045-4.295-1.719-3.696-2.813-6.013-3.281-6.951-.051 0-.078-.026-.078-.078v-.079l-.077-.156a83.324 83.324 0 0 0-4.921-4.374 19.575 19.575 0 0 0-1.483-1.483h-.078c-.156 0-.365-.052-.623-.156-1.147-.26-2.785-1.224-4.921-2.89-2.551-2.288-4.061-3.563-4.531-3.824z"/><path fill="#EEE3D7" d="M191.827 341.152l-.077-.079c-.52-.207-1.381-.339-2.576-.391h-.234a29.99 29.99 0 0 1 2.887.47m16.244 5.778v-.077a6.118 6.118 0 0 0-1.327-.624c.415.155.86.39 1.327.701m17.65 7.654c.467.144.935.272 1.406.391l-.078-.078a14.21 14.21 0 0 1-1.328-.313m-.391-.078l.391.078c.456.129.898.235 1.328.313-.052-.052-.104-.077-.156-.077-2.031-.835-3.333-1.668-3.905-2.5-.937.156-2.056.209-3.357.156l5.699 2.03m39.281 2.733l-.077.078c.833-.104 1.69-.209 2.576-.313a34.74 34.74 0 0 0-2.499.235m-184.926 6.404c3.958-.26 7.758-.678 11.402-1.249-.208-.104-.39-.287-.547-.547-.104-.156-.156-.443-.156-.859-1.354.521-3.436 1.094-6.248 1.719a76.199 76.199 0 0 1-4.451.936m63.569-23.116c.624.729 1.303 1.094 2.029 1.094.678 0 3.254-1.146 7.732-3.438l-9.761 2.344m-105.271 20.07v-.078a1.88 1.88 0 0 0-.547-.077c.224.008.406.061.547.155m-20.069-30.378v.156a.965.965 0 0 1 .156.39 2.313 2.313 0 0 0-.156-.546m11.323-30.536c-.169.08-.352.158-.547.236.208-.053.365-.104.469-.156a.221.221 0 0 0 .078-.08m1.484-.623c-.469.209-.886.391-1.25.546a45.863 45.863 0 0 1 2.499-.858l-1.249.312m91.135-19.133c.104-.105.182-.209.235-.313v-.155c-.07.137-.148.292-.235.468m19.914-106.755a11.71 11.71 0 0 0-.781 1.171l-9.449 19.367c-1.822 4.946-3.254 10.126-4.295 15.541a125.51 125.51 0 0 0-1.718 11.323v2.421a199.156 199.156 0 0 1-.234 5.622 7.63 7.63 0 0 0 .234-1.249c.729-3.019 1.562-8.07 2.499-15.15.833-6.612 1.771-11.662 2.812-15.15.572-2.187 1.64-4.79 3.202-7.81a732.572 732.572 0 0 1 4.061-7.497 888.127 888.127 0 0 0 3.202-7.576c.207-.362.364-.701.467-1.013m23.116-82.311a5.443 5.443 0 0 1-1.25-.703l-2.343-1.25c0 .157.026.339.078.547 1.168.458 2.34.927 3.515 1.406m-12.964-5.388a7.537 7.537 0 0 0-.858-.235h-.703c.519.053 1.041.131 1.561.235m-38.578 2.421c-.104-.104-.208-.156-.313-.156-.676 0-1.613.208-2.811.625a36.398 36.398 0 0 1 3.124-.391h.157c-.053-.052-.105-.078-.157-.078m27.41-12.652c-.988.052-1.717.234-2.186.547 3.697.104 7.263.391 10.699.859a42.843 42.843 0 0 0-3.279-.702c-2.03-.417-3.723-.651-5.077-.704h-.157m46.857 52.167c1.249-2.55 1.873-5.023 1.873-7.419v-2.42a5.82 5.82 0 0 0-.078.938c-.364 5.727-3.201 11.948-8.512 18.664a2.485 2.485 0 0 0-.624.469l-2.109 1.171-.078.156h-.077c-.116.061-.3.191-.547.391a163.947 163.947 0 0 0-3.202 2.03l-1.093.703a124.833 124.833 0 0 0-5.388 3.749l-1.563 1.249-10.074 8.747a83.552 83.552 0 0 0-4.764 4.842c.78-.729 1.665-1.51 2.655-2.342 5.674-4.999 9.475-8.097 11.401-9.293 4.737-3.228 7.184-4.869 7.342-4.92 3.124-2.291 5.387-4.139 6.793-5.544.156-.261 1.041-1.068 2.656-2.422 1.249-1.146 2.055-2.004 2.42-2.577.313-.729.677-1.302 1.093-1.718a5.457 5.457 0 0 1-.077-.546c.001-.107.652-1.409 1.953-3.908m11.87-12.886a3.296 3.296 0 0 0-.078.781l-.078 2.812c.105-1.25.156-2.447.156-3.593m-6.482-14.915a4.878 4.878 0 0 0-.469-.547c.469.938 1.563 3.254 3.281 6.951 1.092 2.03 2.108 3.461 3.045 4.295a16.819 16.819 0 0 1-.391-1.562c-.053-.156-.104-.313-.155-.469a2.453 2.453 0 0 1-.313-.859.593.593 0 0 1-.077-.234l-1.562-3.046a22.073 22.073 0 0 0-2.579-3.67l-.311-.312a2.57 2.57 0 0 0-.313-.391l-.156-.156m-3.67-1.406c-1.146-1.667-2.316-2.993-3.514-3.983-3.124-2.603-6.17-4.347-9.137-5.231-1.354-.365-2.031-1.407-2.031-3.124 0-.313-.989-.677-2.967-1.094-2.082-.468-3.124-1.041-3.124-1.718 0-.208.025-.417.078-.625a13.461 13.461 0 0 0-1.718-.547 124.365 124.365 0 0 0-5.311-1.796 444.165 444.165 0 0 0-4.842-1.484 212.787 212.787 0 0 0-7.498-1.952 100.385 100.385 0 0 0-10.699-.859c-.051 0-.104.026-.156.078a18.589 18.589 0 0 0-3.671.546c-.728-.26-1.822-.312-3.279-.156-2.968.469-4.816.703-5.545.703l-1.406-.313c-1.197 0-2.681.417-4.451 1.25-.52.104-1.328.365-2.421.781v.156c0 .365-.599.702-1.796 1.015-1.354.417-2.188.677-2.5.781l-.078.078.157.469c.156 0 .546-.157 1.171-.469.365 0 .547.182.547.547 0 .313-.156.494-.468.547a5.102 5.102 0 0 0-.781.468h.156c.364-.156.781-.338 1.25-.547a4.18 4.18 0 0 1 1.562-.312c.468 0 .702.183.702.547 0 .052-.077.156-.234.312h1.094c.312-.104.676-.208 1.093-.312.417 0 .625.104.625.312.833-.312 1.406-.468 1.718-.468.261 0 .443.13.546.391 1.875-.573 3.02-.86 3.437-.86.469 0 .703.157.703.469 0 .104-.416.312-1.249.625.26 0 .546.052.858.156.313-.156.625-.26.937-.313l.234.156c.053.104.104.156.157.156H129.352c1.462 0 2.868.026 4.216.078l.235-.078c.573 0 1.015.026 1.327.078 1.718 0 3.385.026 4.998.079h1.874c.105.052.261.078.47.078 4.892.208 8.668.547 11.322 1.015 2.604.573 6.873 2.083 12.809 4.53 2.707 1.197 5.831 2.916 9.371 5.154 0 .052 2.395 1.719 7.184 4.998.365.313.781.6 1.249.859.104 1.146 1.042 3.02 2.813 5.623 1.976 3.071 3.097 5.935 3.356 8.59.105 1.405-.104 4.321-.624 8.746-.103 1.926.104 3.359.624 4.295v.078c-.104.521-.52 1.796-1.249 3.826-.781 2.083-1.172 3.254-1.172 3.514 0 .313.053.573.156.781-1.092 2.083-3.747 4.816-7.965 8.2-.885.678-5.283 3.853-13.198 9.528-1.979 1.406-6.17 4.999-12.573 10.777a9922.005 9922.005 0 0 1-8.668 8.122c-.364 2.708-2.317 7.966-5.857 15.775-4.165 9.007-6.247 13.537-6.247 13.588-.417 2.291-1.171 7.238-2.265 14.837-.781 6.302-1.64 11.298-2.577 14.995-.417 1.51-1.51 6.455-3.28 14.838-1.354 5.936-2.577 10.934-3.67 14.993-2.655 8.798-4.686 14.813-6.091 18.039-3.332 7.602-6.924 11.402-10.777 11.402-.938 0-1.562-.339-1.875-1.015-.104-.625-.156-.963-.156-1.016-3.54 1.926-7.861 3.305-12.963 4.14-1.302.155-2.656.337-4.061.546-.885.054-1.796.104-2.733.157-2.03.104-4.087.182-6.169.233H75.78c-2.187-.052-4.451-.13-6.793-.233a11.262 11.262 0 0 0-1.25-.079l-2.655-.311v.232c0 .313-2.5 1.094-7.498 2.343-7.965 2.03-15.15 4.087-21.554 6.17-1.042.313-2.916.988-5.623 2.03-2.708 1.145-4.581 1.9-5.623 2.265-.729.208-1.874 1.146-3.436 2.812-1.51 1.562-2.448 2.343-2.812 2.343-.885 0-1.432-.337-1.64-1.015-.052-.209-.079-.573-.079-1.094 0-1.042.625-2.109 1.875-3.201a62.732 62.732 0 0 0-4.139 2.733c.052.207.078.494.078.858 0 .209-.599 2.057-1.796 5.544-1.354 3.802-2.187 6.352-2.5 7.654l-1.405 7.73a50.747 50.747 0 0 1-.468 1.874c.417.157.833.651 1.249 1.484.208.677.573 2.083 1.094 4.217.676 1.457 1.717 3.254 3.124 5.389 1.249 1.822 1.874 2.76 1.874 2.812 0 .364-.104.703-.312 1.015-.261.573-.729.859-1.407.859-.312 0-.625-.053-.937-.156a59.822 59.822 0 0 0 1.796 1.874c.104-2.343 1.301-2.629 3.592-.859 1.302.989 2.916 2.474 4.842 4.452.468.209 3.229 1.145 8.278 2.811 4.582 1.354 6.873 2.343 6.873 2.968 0 .365-.079.729-.235 1.095-.26.364-.625.649-1.092.858h.233c.223.004.405.03.547.077v-.233c0-1.354 3.749-1.744 11.245-1.171 7.654.52 11.48 1.249 11.48 2.185 0 .833-.39 1.355-1.171 1.563-.468.157-1.171.287-2.108.391h.546l3.905.313a6.056 6.056 0 0 1-.078-.546c0-.938 2.916-1.692 8.747-2.266 7.602-.729 11.609-1.17 12.026-1.328 1.198-.207 3.306-.833 6.326-1.873 2.395-.573 3.592.052 3.592 1.873 1.822-.833 4.842-2.03 9.059-3.592 7.341-2.655 11.012-3.098 11.012-1.327 0 1.094-4.894 3.28-14.682 6.561a33.601 33.601 0 0 1 2.187-.548 29.342 29.342 0 0 1 2.03-.546c.833-.262 1.667-.521 2.5-.781.26-.104.547-.209.858-.313 14.162-2.655 27.333-5.622 39.516-8.903v-.312c0-1.093 1.25-2.005 3.749-2.734 1.51-.416 4.218-.91 8.122-1.482 1.404-.156 3.617-.834 6.638-2.031 1.457-.469 2.472-.442 3.046.079a193.19 193.19 0 0 1 3.982-1.484c.261-.051.494-.131.703-.234a45.36 45.36 0 0 1 11.479-1.483c-.574-.313-.859-.833-.859-1.563 0-2.395 3.306-2.785 9.918-1.172 6.508 1.563 9.762 3.176 9.762 4.843 0 .469-.155.885-.469 1.249v.078l5.701 2.5c.469.155.911.364 1.327.624.156-1.405 1.275-1.666 3.359-.781 1.249.469 3.096 1.354 5.544 2.655.417.053 2.524.053 6.325 0 3.853.053 6.507.261 7.966.626 1.405.416 2.37.832 2.89 1.249.469.416.703.91.703 1.484 0 .311-.052.598-.157.858 2.448-.052 4.4-.261 5.857-.625 1.562-.313 2.863-.469 3.904-.469 1.511 0 2.473.313 2.891.937.207.261.287.548.233.86 0 .624-1.952 1.301-5.857 2.029-2.966.521-5.466.808-7.497.859 4.842.885 9.866 1.381 15.073 1.484-1.041-.104-1.796-.262-2.265-.469-.469-.104-.703-.548-.703-1.328 0-1.094.441-1.666 1.327-1.718 1.041 0 4.945.026 11.714.078 1.146 0 3.333-.6 6.56-1.797 1.927-.832 2.891-.391 2.891 1.329 0 .78-1.042 1.639-3.124 2.575-.418.209-.78.392-1.094.548a33.53 33.53 0 0 1 2.499-.235l11.011-2.029c.209-.053.418-.078.625-.078.208-.052.442-.104.703-.157 2.76-3.019 2.838-5.36.233-7.027l-27.644 1.17c-14.423.887-28.87-2.576-43.343-10.385-14.213-7.81-31.446-8.306-51.698-1.484-2.552 1.563-8.252 3.801-17.103 6.716-3.384 1.458-6.169 2.577-8.355 3.359-4.113 1.562-6.924 2.342-8.434 2.342-1.146 0-1.849-.313-2.109-.938-.156-.624-.234-.988-.234-1.093 0-.47.755-1.066 2.264-1.797l-16.711 4.141c-17.494 5.518-39.125 6.532-64.896 3.044a50.412 50.412 0 0 0-2.108-.701c-.208-.105-.391-.158-.547-.158l-20.539-20.694-.156-.469a.965.965 0 0 0-.156-.39 14.633 14.633 0 0 0 1.093 3.437c.521 1.301 1.562 3.149 3.124 5.544.364.573.728 1.119 1.093 1.64-1.146-1.041-2.577-2.656-4.295-4.841-2.655-3.854-3.983-5.728-3.983-5.624 0-2.395.781-3.147 2.343-2.264a41.058 41.058 0 0 1-1.171-5.936 20.375 20.375 0 0 1 1.718-2.812c-.052-.053-.079-.104-.079-.155a7.45 7.45 0 0 1-.078-1.172c0-2.134 2.317-5.13 6.95-8.98 4.01-3.437 6.274-4.191 6.794-2.266-1.092.417-2.499 1.275-4.216 2.578-2.76 2.187-4.738 4.268-5.936 6.247 6.977-6.3 19.498-11.299 37.564-14.994l2.264.156 23.507-.625c.468-.052.963-.131 1.483-.234.156 0 .338-.024.546-.078h.078a198.07 198.07 0 0 0 5.466-.859 9.907 9.907 0 0 1 1.328-.234l9.45-2.343a5.4 5.4 0 0 1 1.092-.391.692.692 0 0 1 .313-.077c.156-.052.286-.079.391-.079l.702-.312.625-.313c.156-.104.312-.181.468-.232a2.94 2.94 0 0 1 .781-.548l13.979-13.899c.155-.313.338-.572.546-.781.087-.176.166-.331.235-.468.03-.03.056-.059.078-.08a.859.859 0 0 1 .156-.233c.104-.209.234-.417.391-.626l3.826-7.809c.104-.364.261-.755.469-1.171l1.172-7.652.234-1.72 2.577-16.478.39-1.952 2.89-18.742.703-4.373c.155-4.321.65-8.486 1.483-12.495a82.135 82.135 0 0 1 9.449-25.615 61.22 61.22 0 0 1 5.076-7.887c.21-.313.442-.65.703-1.015l13.197-14.681a.522.522 0 0 1 .234-.235 31.601 31.601 0 0 1 1.952-1.795c.468-.209.964-.391 1.484-.547a51.99 51.99 0 0 0 7.105-3.28l1.407-.781c.259-.156.494-.287.702-.391l.079-.079c.129-.07.285-.175.468-.312h.078l.468-.313 7.966-6.715c.104-.104.234-.209.392-.313a33.47 33.47 0 0 1 1.326-1.562c.26-.365.521-.678.781-.938.522-.677 1.04-1.354 1.563-2.03a1.82 1.82 0 0 1 .39-.625c2.603-3.749 4.764-7.94 6.482-12.573l.937-2.89c.104-.572.207-1.171.313-1.795-.626-1.146-1.406-3.307-2.344-6.482-1.667-5.623-2.994-9.033-3.981-10.23-.517-.677-1.636-2.291-3.354-4.842m83.248 250.76c.677.259 1.483.391 2.42.391-1.613.259-4.111.391-7.496.391-1.249 0-2.057-.287-2.421-.861 0-.051-.025-.103-.078-.155 1.146.104 2.162.13 3.047.078.78-.052 1.481-.155 2.107-.313.678.156 1.485.312 2.421.469M175.428 85.551l-.546-.234c.364.208.678.442.937.702.47.261 1.979 1.536 4.53 3.827 2.136 1.666 3.773 2.629 4.921 2.89l-2.11-1.562-3.67-2.812-3.904-2.811h-.158z"/><path fill="#B69896" fill-opacity=".243" d="M184.019 297.029h.938a2.3 2.3 0 0 1 .78-.625c-.572.156-1.145.365-1.718.625m26.395-8.747l.078-.078a943.583 943.583 0 0 0 6.17-7.496l1.718 1.562c2.5-2.811 4.843-5.466 7.027-7.966-5.622 4.374-11.973 8.486-19.053 12.338-1.303 1.822-2.136 3.124-2.5 3.905a18.39 18.39 0 0 1 1.016-.468c1.979-.938 3.747-1.511 5.31-1.72a.605.605 0 0 1 .234-.077m32.8-38.108a.586.586 0 0 0-.077.232c-5.206 7.915-11.324 15.125-18.353 21.633a119.487 119.487 0 0 1-17.806 13.744 3.296 3.296 0 0 0-.624.858c7.08-3.852 13.431-7.964 19.053-12.338 12.495-14.109 19.161-22.154 19.993-24.13a2.776 2.776 0 0 1-1.093.232 2.417 2.417 0 0 1-1.093-.231M38.608 269.462v.313c-.052.416-.078.859-.078 1.326a79.688 79.688 0 0 1 2.187 1.953c.156-.313.286-.651.39-1.015a111.63 111.63 0 0 1-2.499-2.577m-.077 1.639v.392c0 .625.051 1.067.155 1.328.156.571.703.963 1.641 1.172.104-.157.234-.471.391-.938a78.124 78.124 0 0 0-2.187-1.954m-6.483-4.84l.625-1.249a107.348 107.348 0 0 1-2.265-2.813c-.104.729-.157 1.251-.157 1.563 0 .677.052 1.146.157 1.406.209.52.756.884 1.64 1.093m-1.484-4.921a2.743 2.743 0 0 0-.156.858c.729.938 1.484 1.875 2.265 2.813.104-.313.26-.652.469-1.017.051-.207.13-.391.233-.546a47.606 47.606 0 0 1-2.577-3.281.7.7 0 0 0-.078.313c-.052.314-.103.599-.156.86m-.78-2.109c.104.052.234.104.39.156a57.131 57.131 0 0 1-1.64-2.187c0 .208.026.521.078.938.261.522.651.884 1.172 1.093m-1.406-2.341v-.079a11.097 11.097 0 0 1-1.171-1.718h-.469c.469.885 1.015 1.483 1.64 1.797m68.567 45.997c.051.311.104.494.156.545.052.208.078.339.078.392l1.796.234c.261 0 .599-.209 1.015-.626a77.38 77.38 0 0 1-3.045-.545m166.886-156.423a140.938 140.938 0 0 1-1.017-3.67c.313 1.562.6 3.176.859 4.841l.157-.78v-.391m-6.169-26.239c-1.613-3.541-2.864-6.664-3.749-9.372a25.468 25.468 0 0 0-2.733-2.108 87.175 87.175 0 0 1 3.594 8.043c.781.885 1.691 2.004 2.733 3.358l.155.079m-20.069-29.832a2.57 2.57 0 0 0-.313-.391 4.501 4.501 0 0 0-1.639-.156v.078c.519.261 1.171.416 1.952.469m13.275 17.728a77.828 77.828 0 0 0-13.275-17.728c-.781-.053-1.433-.208-1.952-.469-.052.521-.079.937-.079 1.25l1.483 1.952a115.668 115.668 0 0 1 7.419 8.511 95.718 95.718 0 0 1 6.17 9.06c.833 1.406 1.64 2.812 2.421 4.217.468.417 1.042 1.042 1.719 1.875a87.175 87.175 0 0 0-3.594-8.043 1.205 1.205 0 0 0-.312-.234v-.234-.157m0 0c-.156-1.718-1.952-5.05-5.389-9.997-3.177-4.633-5.91-7.341-8.2-8.122.104.104.209.234.313.391a77.752 77.752 0 0 1 13.276 17.728z"/><radialGradient id="a" cx="-363.738" cy="153.648" r="140.941" gradientTransform="matrix(.0175 -.9998 -.9701 -.017 290.607 -202.184)" gradientUnits="userSpaceOnUse"><stop offset="0" stop-color="#fff" stop-opacity=".18"/><stop offset=".522" stop-color="#c8c3b7" stop-opacity=".161"/><stop offset=".973" stop-color="#675938" stop-opacity=".082"/><stop offset="1" stop-color="#615230" stop-opacity=".161"/></radialGradient><path fill="url(#a)" d="M206.979 285.783a119.487 119.487 0 0 0 17.806-13.744c7.028-6.508 13.146-13.718 18.353-21.633-10.673 14.11-24.287 26.813-40.845 38.11a217.689 217.689 0 0 1 4.686-2.733m50.369-65.676a210.104 210.104 0 0 0 3.125-13.198c-6.352 26.498-29.337 55.341-68.956 86.526 1.458-.571 2.94-1.144 4.45-1.717 1.146-.522 2.266-1.04 3.358-1.563a886.76 886.76 0 0 1 2.967-1.64c16.558-11.297 30.172-24 40.845-38.11 0-.052.025-.13.077-.232 5.884-9.008 10.595-19.028 14.134-30.066m4.374-20.227c.573-4.374.703-8.669.39-12.885-.468-3.436-1.04-6.69-1.717-9.762-1.094 39.412-26.787 79.03-77.077 118.858 1.3-.416 2.653-.859 4.06-1.328a99.784 99.784 0 0 1 4.14-1.328c39.619-31.186 62.604-60.028 68.956-86.526.466-2.395.884-4.738 1.248-7.029m.86-5.779c.052-.364.13-.754.232-1.171a456.52 456.52 0 0 1-.703-5.935c.313 4.216.184 8.512-.39 12.885a2.77 2.77 0 0 1 .234-.781c.209-1.718.418-3.384.627-4.998m-254.586-3.28l-.157-2.811v-.234a9.888 9.888 0 0 0 .157 3.045m51.307 94.651c-.313-.156-.573-.288-.781-.391a9.95 9.95 0 0 1-1.093-.626 80.218 80.218 0 0 1-2.108-1.172 119.141 119.141 0 0 1-6.56-4.216 111.17 111.17 0 0 0 5.466 4.373c.365.313.781.6 1.249.859a119.368 119.368 0 0 0 10.075 6.56l1.249.624c.729.418 1.458.833 2.188 1.251 2.342.104 4.607.182 6.793.233a156.075 156.075 0 0 0-4.373-1.795 408.863 408.863 0 0 1-6.091-2.734h-.078a1.757 1.757 0 0 0-.546-.234 176.386 176.386 0 0 1-5.39-2.732m43.655 11.088c.312-.104.65-.208 1.015-.311l.078-.08a5.27 5.27 0 0 0-1.093.391m1.405-.468a.698.698 0 0 0-.313.077l-.078.08c.105-.053.235-.104.391-.157m-9.215 3.28c.989.155 2.004.339 3.045.547.364.051.755.103 1.171.155a161.579 161.579 0 0 1 4.608-3.825c-.364.103-.703.207-1.015.311l-9.45 2.343c.522.104 1.069.26 1.641.469m7.965-11.48l3.593-4.217c2.863-3.436 5.336-7.029 7.419-10.777 1.25-2.291 2.264-4.894 3.045-7.809.469-2.082.911-3.826 1.328-5.233a564.708 564.708 0 0 1-28.348 32.176c5.102-.836 9.423-2.215 12.963-4.14m-9.605 11.01c-.469.052-.911.131-1.328.234a194.92 194.92 0 0 1-5.466.859c1.093.364 2.239.729 3.437 1.094 2.238.626 4.503 1.223 6.794 1.797 1.041.207 2.056.39 3.044.545 10.361 2.136 21.424 3.073 33.19 2.812.989 0 1.926-.052 2.812-.155l6.482-.313c13.224-1.04 25.535-3.41 36.938-7.106a252.58 252.58 0 0 0 4.606-1.64c.573-.261 1.146-.47 1.718-.625a123.172 123.172 0 0 0 13.589-6.248 217.37 217.37 0 0 1-3.358 1.563c-1.51.573-2.992 1.146-4.45 1.717-1.407.418-2.785.861-4.14 1.328-1.406.469-2.76.912-4.06 1.328-1.355.364-2.734.754-4.141 1.171-1.146.313-2.265.6-3.358.859-.363.052-.753.131-1.171.234-1.093.259-2.161.521-3.202.78a157.922 157.922 0 0 1-8.668 1.641c-2.136.364-4.321.677-6.561.938-.155 0-.261.023-.312.077-2.344.313-4.687.546-7.029.703-.988.052-1.926.155-2.811.311-.469 0-.938.028-1.405.08-.938.052-1.901.078-2.891.078-2.446.103-4.919.155-7.418.155-3.749 0-7.523-.078-11.324-.233a6.793 6.793 0 0 0-.936-.08 27.725 27.725 0 0 0-1.953-.232c-1.042-.054-2.057-.105-3.046-.157a101.327 101.327 0 0 0-3.904-.391c-2.343-.26-4.712-.547-7.106-.858l-.625.469.625-.469a105.232 105.232 0 0 0-3.28-.547 77.145 77.145 0 0 1-3.437-.547 95.974 95.974 0 0 1-1.171-.155 74.238 74.238 0 0 0-3.045-.547 11.247 11.247 0 0 0-1.639-.47m37.485-55.212l.078-.078.312-1.874-.39 1.952m-2.499 16.401l2.578-16.479-.078.078-2.577 16.478.077-.077m-.312 1.797l.312-1.797-.078.077-.234 1.72m-5.467-19.29a61.91 61.91 0 0 0 .625-3.593 983.398 983.398 0 0 1-39.984 53.729c.937-.053 1.849-.104 2.733-.157 1.405-.209 2.759-.391 4.061-.546a564.754 564.754 0 0 0 28.348-32.176c.156-.833.313-1.562.469-2.186 1.354-4.319 2.603-9.345 3.748-15.071m.625-3.593c.521-2.654 1.171-6.092 1.953-10.308v-.079c.104-1.873.182-3.748.234-5.622a1964.32 1964.32 0 0 1-48.339 69.972c2.082-.052 4.139-.13 6.169-.233a984.826 984.826 0 0 0 39.983-53.73m3.905-29.753c1.041-5.415 2.473-10.595 4.295-15.541a2422.338 2422.338 0 0 1-66.224 94.728 407.82 407.82 0 0 0 6.091 2.734 3198.486 3198.486 0 0 0 55.838-81.921m-1.719 13.744v-2.421c.417-3.904.989-7.679 1.718-11.323a3194.12 3194.12 0 0 1-55.837 81.921 153.63 153.63 0 0 1 4.373 1.795h1.406a1961.716 1961.716 0 0 0 48.34-69.972m43.031-68.644a12.2 12.2 0 0 0-1.484.547 31.917 31.917 0 0 0-1.952 1.795.512.512 0 0 0-.234.235L151.69 171.61c-.261.365-.493.702-.703 1.015a61.22 61.22 0 0 0-5.076 7.887 82.119 82.119 0 0 0-9.449 25.615 2101.181 2101.181 0 0 0 32.095-51.775m-10.231-42.171a122.53 122.53 0 0 0-7.498-.859c-53.727 54.665-91.447 107.04-113.157 157.123.313.313.625.652.938 1.017a111.63 111.63 0 0 0 2.499 2.577l.312.312.703.703 1.171 1.171c26.083-55.602 64.427-109.617 115.032-162.044m-68.41-21.71a6.9 6.9 0 0 0 .625.859c.208.156.391.338.547.546a53.636 53.636 0 0 0-1.953-3.436c.052.677.312 1.354.781 2.031M75.313 68.995a5.364 5.364 0 0 1-.781-.39 73.154 73.154 0 0 0-7.263 3.67 161.698 161.698 0 0 1 8.044-3.28m2.03-1.562c-.989.416-1.926.807-2.811 1.171.26.157.521.287.781.39 10.673 4.634 16.972 9.762 18.899 15.385a47.513 47.513 0 0 1 3.28-1.64 91.085 91.085 0 0 1 3.982-1.641c.573-.26 1.146-.494 1.719-.703-2.291-5.311-9.58-10.1-21.867-14.369a52.275 52.275 0 0 0-3.983 1.407m24.912-7.496a.961.961 0 0 0 .546.156c2.603-.469 5.232-.911 7.887-1.328a5.27 5.27 0 0 0-.858-.079c-2.604.313-5.128.73-7.575 1.251m-20.929 6.091a73.872 73.872 0 0 1 5.467-1.796 60.768 60.768 0 0 1 5.7-1.64c3.332-.937 6.769-1.77 10.309-2.499a.969.969 0 0 1-.546-.156 123.362 123.362 0 0 0-10.075 2.42 105.959 105.959 0 0 0-14.837 5.076 51.24 51.24 0 0 1 3.982-1.405m83.716 24.912h-.077l-.079-.079a267.989 267.989 0 0 0-3.515-1.406c-.208 0-.442.026-.702.078l.312.157c.418.104.757.156 1.016.156a67.493 67.493 0 0 1 3.905 1.64 4.832 4.832 0 0 1-.86-.546m-13.12-5.467a16.5 16.5 0 0 0-1.562-.235.867.867 0 0 0-.391-.078c.104.26.209.547.313.858a53.06 53.06 0 0 1 7.574 2.265 33.54 33.54 0 0 1 2.812 1.249c.26-.052.494-.078.702-.078a2.292 2.292 0 0 1-.078-.547c-3.123-1.507-6.246-2.653-9.37-3.434m-1.562.937c.053 0 .104.026.157.079 1.82.364 3.278.781 4.373 1.25 2.655.989 4.685 1.64 6.09 1.952l-.312-.157a33.54 33.54 0 0 0-2.812-1.249 52.97 52.97 0 0 0-7.574-2.265c.001.104.027.234.078.39m-6.012-10.854c-.678-.104-1.38-.209-2.109-.313h-1.328c1.354.052 3.046.287 5.077.704-.052-.052-.078-.104-.078-.157a16.448 16.448 0 0 1-1.562-.234m9.604 1.717a21.188 21.188 0 0 0-1.952-.39 168.57 168.57 0 0 1-2.264-.47 517.172 517.172 0 0 1-3.827-.625c0 .052.026.104.078.157.937.156 2.03.39 3.279.702 1.562.158 3.125.366 4.686.626m2.578.703a65.162 65.162 0 0 1-2.578-.702 71.597 71.597 0 0 0-4.686-.625c2.187.521 4.686 1.171 7.498 1.952a3.02 3.02 0 0 1-.234-.625m-2.578-.703c.885.26 1.745.494 2.578.702-.052-.052-.079-.104-.079-.156a29.476 29.476 0 0 1-2.499-.546m14.683 5.154c.052-.156.104-.287.155-.391a32.558 32.558 0 0 0-2.03-.858c.054.208.104.442.157.702.623.157 1.196.339 1.718.547m-2.031-1.796c0 .208.051.39.155.547.678.26 1.354.546 2.03.858.104-.104.235-.208.391-.313-.884-.363-1.742-.727-2.576-1.092m.156.547a7.388 7.388 0 0 0-.858-.235 95.504 95.504 0 0 0-8.513-2.811 8.525 8.525 0 0 1-.858-.157c.051.208.13.417.234.625 1.562.469 3.176.963 4.842 1.484 1.978.625 3.749 1.223 5.311 1.796-.054-.26-.105-.493-.158-.702m-.859-.235c.259.052.546.13.858.235a.966.966 0 0 1-.155-.547 76.336 76.336 0 0 0-10.153-2.812c0 .053.027.104.079.156.207.053.494.104.858.157a95.828 95.828 0 0 1 8.513 2.811M113.5 87.972h-.157a36.398 36.398 0 0 0-3.124.391h-.079a.576.576 0 0 0-.234.079c-2.655 1.821-4.581 2.733-5.778 2.733h-.469c-.312.104-.651.233-1.015.39-3.332 1.718-5.675 2.89-7.028 3.514.052 0 .104.026.156.078a23.673 23.673 0 0 0 1.718-.702h.156c5.987-2.5 11.767-4.504 17.337-6.013a14.866 14.866 0 0 1 1.641-.391c-.834.052-1.536.078-2.109.078-.468-.001-.806-.053-1.015-.157m.547-10.777a3.314 3.314 0 0 0-1.016.313c.729-.208 1.171-.131 1.328.234 1.041-.468 2.499-.858 4.373-1.171a50.74 50.74 0 0 0-2.889.234c-.313.052-.599.104-.859.156-.312.052-.625.13-.937.234m-2.499.624h-.234a77.61 77.61 0 0 0-8.121 2.578c-.573.208-1.146.442-1.719.703a89.367 89.367 0 0 0-3.982 1.641 47.067 47.067 0 0 0-3.28 1.64 65.162 65.162 0 0 0-4.92 2.733 3.004 3.004 0 0 0-.157 1.328 53.365 53.365 0 0 1 1.953 3.436c.208.209.468.443.781.703.052 0 .104.026.157.078a.866.866 0 0 0 .155-.234c-.26-.573-.52-1.041-.781-1.406l-.234-.234v-.156c0-.156.104-.313.313-.468-.052-.052-.079-.104-.079-.156l-.078-.547c0-.156.39-.599 1.171-1.328a.744.744 0 0 1-.313-.625c0-.625.729-1.223 2.187-1.796.521-.208.99-.391 1.406-.547.989-.833 1.822-1.275 2.5-1.328.416-.26 1.379-.833 2.889-1.718 1.302-.677 2.16-.859 2.578-.546 1.562-.99 2.603-1.562 3.124-1.719.781-.26 2.473-.963 5.076-2.108a.986.986 0 0 0-.392.076m-.235 0h.234c-4.373-7.913-12.625-12.442-24.755-13.588a74.345 74.345 0 0 0-5.467 1.796c12.287 4.269 19.576 9.059 21.867 14.369a78.16 78.16 0 0 1 8.121-2.577m10.152-1.873c-.052-.052-.078-.104-.078-.157a.876.876 0 0 0-.391.078 75.65 75.65 0 0 0-5.154.938 49.041 49.041 0 0 1 2.889-.234c.782-.261 1.693-.469 2.734-.625m19.837 8.981a50.7 50.7 0 0 0-5.623 0c6.247.312 11.142.807 14.682 1.483a1.272 1.272 0 0 1-.077-.391 6.903 6.903 0 0 0-1.407-.312c-2.396-.469-4.92-.729-7.575-.78m-.156-.391c.051.104.105.234.156.391 2.655.051 5.18.312 7.574.781.47.052.938.156 1.407.312a15.58 15.58 0 0 0-.313-.858h-2.733c-1.094-.156-2.03-.208-2.812-.156a40.487 40.487 0 0 0-3.279-.47m-8.044.625c-.468 0-.937.026-1.406.078a49.358 49.358 0 0 0-5.466.781 64.57 64.57 0 0 0-9.605 2.031 14.92 14.92 0 0 0-1.641.391c4.842 3.696 7.835 8.147 8.98 13.354-1.146-5.207-4.139-9.658-8.98-13.354-5.57 1.509-11.35 3.514-17.337 6.013h-.156c-.573.26-1.146.494-1.718.702a31.735 31.735 0 0 0 3.28 1.796c.625.573 1.484.99 2.578 1.25.572.208 1.197.469 1.874.781 4.946 1.822 10.985 3.306 18.118 4.451 1.614.208 3.28.443 4.999.703h2.968c15.983-.468 26.683-4.425 32.096-11.871a17.42 17.42 0 0 0 1.016-1.64 17.96 17.96 0 0 0-1.016-.625 9.737 9.737 0 0 0-.703-.313c-1.405-.312-3.435-.963-6.09-1.952-1.095-.469-2.553-.885-4.373-1.25-.053-.053-.104-.079-.157-.079-3.54-.676-8.435-1.171-14.682-1.483-.364 0-.755.025-1.172.078a7.344 7.344 0 0 0-1.407.158m-10.075 3.436c5.207 4.425 8.409 9.084 9.606 13.979-1.197-4.895-4.4-9.554-9.606-13.979m7.419-1.25c5.259 4.582 8.591 9.241 9.997 13.979-1.406-4.738-4.738-9.397-9.997-13.979m14.76.156c3.956 3.175 6.561 6.534 7.81 10.074-1.249-3.539-3.854-6.898-7.81-10.074m7.888.625l4.14 5.857-4.14-5.857m-14.604-.156c4.686 3.385 7.341 7.315 7.965 11.792-.624-4.477-3.279-8.408-7.965-11.792m-31.315 3.749c3.801 2.29 5.883 5.154 6.248 8.59-.365-3.436-2.447-6.3-6.248-8.59m26.005-7.107h-.156c0 .156.026.338.078.547a7.248 7.248 0 0 1 1.405-.156 9.505 9.505 0 0 1 1.172-.078 50.7 50.7 0 0 1 5.623 0 2.988 2.988 0 0 0-.156-.391c-1.406-.26-2.708-.39-3.905-.39l-4.061.468m-.156 0c-.521 0-.989-.104-1.406-.312-1.301.468-2.863.936-4.686 1.405-.26.052-.494.156-.703.312a49.392 49.392 0 0 1 5.466-.781c.469-.052.938-.078 1.406-.078a2.337 2.337 0 0 1-.077-.546m-6.716-9.528a30.644 30.644 0 0 1 2.186-.234c-5.154-7.393-13.718-12.313-25.692-14.759-3.54.729-6.977 1.562-10.309 2.499a61.071 61.071 0 0 0-5.7 1.64c12.13 1.146 20.382 5.675 24.755 13.588a.998.998 0 0 1 .391-.078h.078c.052-.052.104-.078.156-.078.156-.052.312-.078.468-.078a.868.868 0 0 1 .39-.078c.313-.157.651-.26 1.016-.313.313-.104.625-.182.937-.234.261-.052.546-.104.859-.156a75.65 75.65 0 0 1 5.154-.938.87.87 0 0 1 .391-.078c-5.154-6.82-13.718-11.349-25.693-13.588 11.975 2.239 20.539 6.769 25.693 13.588.365-.051.703-.13 1.015-.233l3.905-.47m1.952-.078h.391c0-.052-.052-.104-.157-.156-.728.052-1.457.13-2.186.234l-3.905.469c-.312.104-.65.182-1.015.233 0 .052.026.104.078.157 1.978-.364 4.243-.676 6.794-.937m2.264-.39a26.98 26.98 0 0 0-2.031.234c.104.052.157.104.157.156 2.031-.313 3.878-.495 5.545-.547a1.32 1.32 0 0 0-.391-.078 70.968 70.968 0 0 0-3.28.235m3.671-.157a18.326 18.326 0 0 1 2.42-.156c-5.415-7.914-14.057-13.094-25.927-15.541-2.655.417-5.284.858-7.887 1.328 11.975 2.446 20.539 7.366 25.692 14.759a26.98 26.98 0 0 1 2.031-.234 68.19 68.19 0 0 1 3.28-.234c.105.001.235.027.391.078m-6.873-17.258c-5.622.208-11.167.729-16.634 1.562 11.871 2.446 20.513 7.627 25.927 15.541 4.01-.104 6.457.26 7.341 1.093-.417-.104-.989-.157-1.718-.157.729.104 1.431.209 2.109.313.52.104 1.042.182 1.562.233-5.623-9.059-14.786-14.786-27.489-17.18 12.703 2.395 21.866 8.122 27.489 17.18 1.249.208 2.524.417 3.827.625.729.157 1.482.313 2.264.47.677.104 1.328.234 1.952.39.781.208 1.614.39 2.499.546-5.256-10.88-14.968-17.753-29.129-20.616m9.762-.156c-3.28-.052-6.534 0-9.762.156 14.161 2.863 23.873 9.736 29.129 20.616a76.488 76.488 0 0 1 10.153 2.812c-4.947-12.547-15.125-20.279-30.536-23.194 15.411 2.916 25.588 10.647 30.536 23.194.833.364 1.691.729 2.576 1.093l.079.079a57.698 57.698 0 0 1 6.013 2.89c-4.321-14.942-14.915-24.105-31.784-27.489a130.301 130.301 0 0 0-6.404-.157M8.699 158.568a9.915 9.915 0 0 0-.234 2.811c.052-.989.13-1.899.234-2.733v-.078m-.781 11.637l-.157 2.967c5.571-24.417 17.805-42.717 36.704-54.899 17.701-11.559 30.847-16.166 39.438-13.823-.365-.417-.704-.807-1.016-1.171-7.549-4.999-20.773-1.484-39.671 10.542-18.483 11.714-30.223 29.884-35.221 54.509-.052.625-.077 1.25-.077 1.875m.078-1.874c.156-2.343.313-4.66.469-6.951a9.952 9.952 0 0 1 .234-2.811c.104-1.77.286-3.54.547-5.31.104-1.25.234-2.499.39-3.748.937-5.728 2.212-11.168 3.826-16.322-5.675 14.941-8.277 31.498-7.81 49.667.208 9.216 1.146 17.988 2.812 26.318a109.394 109.394 0 0 0 3.358 13.823 120.742 120.742 0 0 0 5.232 13.9 55.948 55.948 0 0 0 2.03 4.373c-.78-1.874-1.51-3.774-2.186-5.701a90.165 90.165 0 0 1-.781-2.107c-.938-2.707-1.77-5.44-2.5-8.2-.052-.053-.078-.105-.078-.156a171.527 171.527 0 0 1-1.718-7.029 114.656 114.656 0 0 1-2.031-10.229c-.104-.729-.208-1.432-.312-2.108a198.462 198.462 0 0 1-1.484-14.917 9.95 9.95 0 0 1-.157-3.045 273.036 273.036 0 0 1-.078-14.604l.157-2.967c.002-.627.027-1.252.08-1.876m20.616-50.605a3.708 3.708 0 0 0-.234.391c-9.58 10.309-16.14 23.792-19.68 40.452v.078a38.513 38.513 0 0 0-.234 2.733c-.156 2.291-.313 4.608-.469 6.951 4.998-24.625 16.738-42.795 35.221-54.509 18.898-12.027 32.122-15.541 39.671-10.542-1.354-2.031-2.134-3.983-2.342-5.857-7.914-4.842-20.435-1.953-37.564 8.668a72.165 72.165 0 0 0-14.369 11.635m-.234.39a3.74 3.74 0 0 1 .234-.391c.156-5.883 1.562-11.714 4.217-17.493a98.294 98.294 0 0 0-9.762 13.432 98.444 98.444 0 0 0-8.668 17.181 22.209 22.209 0 0 0-.937 2.343c-1.614 5.153-2.89 10.594-3.826 16.322a89.622 89.622 0 0 0-.39 3.748 60.849 60.849 0 0 0-.547 5.31c3.54-16.659 10.1-30.143 19.679-40.452m229.597 50.058a89.154 89.154 0 0 0-3.202-8.59c-3.124 50.188-31.524 96.68-85.202 139.476 53.678-42.796 82.078-89.288 85.202-139.476-2.656-6.144-5.937-11.61-9.841-16.4-7.392 59.248-39.41 112.352-96.056 159.312 2.343-.157 4.686-.391 7.029-.703.051-.054.156-.077.312-.077 55.291-46.442 86.061-97.254 92.308-152.441-6.247 55.187-37.017 105.999-92.308 152.441 2.239-.262 4.425-.574 6.561-.938 54.77-44.046 84.394-92.385 88.871-145.02-4.478 52.635-34.102 100.974-88.871 145.02a157.922 157.922 0 0 0 8.668-1.641c1.041-.259 2.109-.521 3.202-.78.418-.104.808-.183 1.171-.234 52.635-41.495 80.021-84.811 82.156-129.949m2.029 7.419a142.579 142.579 0 0 0-2.029-7.419c-2.135 45.138-29.521 88.454-82.156 129.948 1.094-.26 2.213-.547 3.358-.859 1.406-.417 2.785-.807 4.141-1.171 50.29-39.828 75.983-79.446 77.077-118.858a15.39 15.39 0 0 0-.391-1.641m3.827-16.947a10.344 10.344 0 0 1-.078-1.327l-.47-3.67c-.729-5.987-1.873-11.479-3.436-16.478.885 4.113 1.405 8.564 1.563 13.354 1.302 5.207 2.239 10.881 2.811 17.024a530.884 530.884 0 0 0-.39-8.903m-7.264-30.143a55.267 55.267 0 0 1 3.28 8.668c-1.093-4.738-2.394-9.007-3.904-12.807.364 1.249.573 2.629.624 4.139m-11.635 14.681a48.825 48.825 0 0 0-5.623-6.169c-8.486 63.516-40.998 118.833-97.539 165.95.989 0 1.952-.026 2.891-.078.468-.052.937-.08 1.405-.08a23.433 23.433 0 0 1 2.811-.311c56.644-46.96 88.663-100.064 96.055-159.312m12.183-19.523c.052.208.104.39.155.547.26.677.469 1.354.625 2.03a119.633 119.633 0 0 1 2.812 10.699c.417 1.926.781 3.905 1.094 5.936a104.496 104.496 0 0 1 1.482 10.777l.47 3.67c0 .468.024.911.078 1.327.155 2.968.285 5.936.39 8.903a4.926 4.926 0 0 0 0 1.249c0 2.5-.025 5.024-.077 7.576a134.836 134.836 0 0 1-.235 4.452l-.155 3.046c-.052.468-.079.937-.079 1.405-.104.052-.156.13-.156.234l-.155 1.718a189.08 189.08 0 0 1-.548 5.701c-.103.417-.181.807-.232 1.171a602.51 602.51 0 0 0-.626 4.999 2.706 2.706 0 0 0-.234.781 199.828 199.828 0 0 1-1.249 7.029 209.939 209.939 0 0 1-3.125 13.198c2.135-6.666 3.854-13.667 5.155-21.008a251.03 251.03 0 0 0 1.405-9.372c.26-2.707.521-5.44.781-8.2.625-7.966.678-15.592.156-22.882a95.898 95.898 0 0 0-.859-8.668 19.053 19.053 0 0 0-.233-1.796v-.079a2.303 2.303 0 0 0-.079-.469c-.26-1.666-.546-3.28-.859-4.841a111.43 111.43 0 0 0-3.592-13.354 261.488 261.488 0 0 0-2.11-5.779m0 0a84.14 84.14 0 0 0-4.062-8.747 176.725 176.725 0 0 0-2.421-4.217c2.084 3.957 3.853 8.512 5.311 13.667 1.511 3.8 2.812 8.069 3.904 12.807 1.563 4.999 2.707 10.491 3.436 16.478a105.046 105.046 0 0 0-1.482-10.777 100.273 100.273 0 0 0-1.094-5.936c-.78-3.645-1.719-7.21-2.812-10.699a15.191 15.191 0 0 0-.625-2.03 8.078 8.078 0 0 1-.155-.546m-78.797 25.927v-.078a4.18 4.18 0 0 1-.468.312l.468-.234m-1.249.703l-1.407.781a51.99 51.99 0 0 1-7.105 3.28 2093.39 2093.39 0 0 1-32.097 51.776c-.833 4.009-1.328 8.174-1.483 12.495l-.703 4.373a957.57 957.57 0 0 0 44.045-73.408l-.468.234-.079.079a9.716 9.716 0 0 0-.703.39m12.26-10.621c-.26.26-.521.573-.781.938a33.995 33.995 0 0 0-1.326 1.562 2.522 2.522 0 0 0-.392.313 28069.7 28069.7 0 0 1-7.966 6.715c-.155.104-.313.208-.468.313h-.078v.078a957.57 957.57 0 0 1-44.045 73.408l-2.89 18.742-.312 1.874c24.885-33.371 44.956-68.904 60.21-106.597a1.836 1.836 0 0 0-.39.625c-.522.675-1.039 1.352-1.562 2.029m-15.072 1.718a163.947 163.947 0 0 1 3.202-2.03v-.157a167.659 167.659 0 0 0-3.202 2.187m3.202-2.186c.247-.099.431-.178.547-.234h.077l.078-.156 2.109-1.171a2.51 2.51 0 0 1 .624-.469c5.311-6.716 8.147-12.938 8.512-18.664a2665.658 2665.658 0 0 1-11.947 20.694m.547-.235a8.87 8.87 0 0 1-.547.234v.157c.247-.199.431-.33.547-.391m11.4-20.46c0-.313.027-.625.078-.938a349.128 349.128 0 0 0-30.924-5.311.604.604 0 0 0-.234-.078c-50.605 52.427-88.949 106.442-115.032 162.044a81.905 81.905 0 0 0 5.467 4.843 119.141 119.141 0 0 0 6.56 4.216c.728.418 1.431.81 2.108 1.172.313.209.677.418 1.093.626l117.454-168.839L58.522 285.081c.208.103.469.234.781.391 1.77.936 3.566 1.848 5.389 2.732.208.053.391.132.546.234h.078a2422.663 2422.663 0 0 0 66.224-94.728l9.449-19.367c.208-.365.47-.755.781-1.171.156-.833.234-1.718.234-2.655.625-.625 1.172-1.067 1.641-1.328.625-1.613 3.201-4.451 7.731-8.512a82.921 82.921 0 0 1 4.764-4.842l10.074-8.747 1.563-1.249a124.217 124.217 0 0 1 5.388-3.749l1.093-.703a167.659 167.659 0 0 1 3.202-2.187 2641.91 2641.91 0 0 0 11.946-20.693M48.838 277.896c32.123-57.894 70.648-112.273 115.579-163.138-44.93 50.865-83.456 105.245-115.579 163.138m140.646-160.327a26.077 26.077 0 0 0-.155-1.562 402.174 402.174 0 0 1-.781-3.437 115.209 115.209 0 0 0-9.059-2.03 64.449 64.449 0 0 0-6.325-1.249.846.846 0 0 0-.469-.157c-1.666-.26-3.332-.495-4.998-.703a206.89 206.89 0 0 0-8.434-1.249 241.644 241.644 0 0 0-13.198-1.25h-.703c-17.545-1.405-37.12-1.562-58.727-.468 21.606-1.094 41.182-.938 58.727.468h.703c10.257-2.603 17.18-6.95 20.772-13.041-3.593 6.091-10.516 10.438-20.772 13.041 4.582.313 8.98.729 13.198 1.25 6.402-2.708 10.307-6.716 11.714-12.027-1.407 5.311-5.312 9.319-11.714 12.027 2.863.365 5.674.781 8.434 1.249 4.945-2.654 7.263-6.117 6.95-10.386.313 4.269-2.005 7.731-6.95 10.386 1.666.208 3.332.443 4.998.703.156 0 .312.052.469.157 4.164-2.396 6.272-5.441 6.325-9.137-2.915-2.291-7.367-5.155-13.354-8.59l-.234-.079a68.202 68.202 0 0 0-3.905-1.64c-.259 0-.598-.052-1.016-.156.261.104.494.208.703.313.364.208.703.417 1.016.625-.313.573-.651 1.12-1.016 1.64-5.413 7.445-16.112 11.402-32.096 11.871h-2.968c-1.718-.26-3.385-.494-4.999-.703-7.132-1.145-13.171-2.629-18.118-4.451a24.09 24.09 0 0 0-1.874-.781c-1.094-.26-1.953-.677-2.578-1.25a31.735 31.735 0 0 1-3.28-1.796c-.052-.052-.104-.078-.156-.078-.833.365-1.302.547-1.405.547-.833 0-1.276-.209-1.328-.625 0-.26.156-.572.468-.937v-.078c-.937 0-1.405-.312-1.405-.938 0-.052.025-.182.079-.391-.053-.052-.104-.078-.157-.078-.313-.26-.572-.494-.781-.703a2.696 2.696 0 0 0-.547-.546 7.19 7.19 0 0 1-.625-.859c-.469-.676-.729-1.354-.781-2.03-4.891-7.185-12.232-12.21-22.019-15.072 9.788 2.863 17.128 7.887 22.022 15.072-.051-.417 0-.86.157-1.328a64.467 64.467 0 0 1 4.92-2.733c-1.927-5.623-8.226-10.751-18.899-15.385a163.064 163.064 0 0 0-8.044 3.28 98.807 98.807 0 0 0-6.56 3.749c1.979 6.872 11.74 12.157 29.285 15.853-17.545-3.696-27.307-8.981-29.285-15.853a338.846 338.846 0 0 0-4.607 2.968c.052 6.091 4.243 11.297 12.573 15.619-8.33-4.321-12.521-9.527-12.573-15.619a71.005 71.005 0 0 0-3.983 2.968c-2.759 5.831-1.25 10.985 4.529 15.462-5.778-4.477-7.288-9.631-4.529-15.462a97.31 97.31 0 0 0-6.794 5.467c-1.041 3.436-.754 8.616.859 15.54-1.614-6.924-1.9-12.104-.859-15.54a74.928 74.928 0 0 0-4.217 3.904l-1.718 1.718c-1.666 4.321-1.64 9.006.078 14.057-1.718-5.05-1.744-9.736-.078-14.057a141.068 141.068 0 0 0-6.56 7.185c-2.655 5.779-4.061 11.61-4.217 17.493a72.205 72.205 0 0 1 14.369-11.636c17.129-10.621 29.65-13.51 37.564-8.668-.261-2.083.129-4.061 1.171-5.936-1.042 1.875-1.433 3.853-1.171 5.936.208 1.874.989 3.826 2.342 5.857.312.364.651.754 1.016 1.171 1.041 1.354 2.369 2.733 3.982 4.139-1.613-1.406-2.941-2.786-3.982-4.139-8.59-2.343-21.736 2.265-39.438 13.823-18.899 12.182-31.133 30.482-36.704 54.899-.104 4.998-.078 9.866.078 14.604 2.031-20.357 10.986-38.63 26.865-54.822 16.608-17.077 32.825-25.797 48.652-26.161-15.827.364-32.044 9.084-48.652 26.161-15.88 16.191-24.835 34.464-26.866 54.821v.234l.157 2.811c.313 5.05.807 10.022 1.484 14.917 1.093-22.439 9.709-42.744 25.849-60.914 16.556-18.899 34.466-30.873 53.729-35.923-19.263 5.05-37.172 17.024-53.729 35.923-16.139 18.17-24.756 38.475-25.849 60.914.104.676.208 1.379.312 2.108a114.586 114.586 0 0 0 2.031 10.229c2.03-20.667 12.651-42.794 31.862-66.379 19.211-23.688 38.136-37.667 56.774-41.937-18.638 4.27-37.563 18.249-56.774 41.937-19.21 23.585-29.832 45.711-31.862 66.379a170.73 170.73 0 0 0 1.718 7.029c0 .051.026.104.078.156.729 2.76 1.562 5.493 2.5 8.2 5.674-21.815 18.612-45.529 38.813-71.144 20.148-25.563 40.609-43.003 61.381-52.323-20.772 9.319-41.233 26.76-61.381 52.323-20.201 25.615-33.138 49.329-38.813 71.144.26.727.52 1.433.781 2.107a107.073 107.073 0 0 0 2.186 5.701c.417.938.886 1.848 1.406 2.734 5.623-21.92 18.17-45.607 37.642-71.066 20.096-26.604 41.675-47.091 64.74-61.459-23.064 14.369-44.644 34.855-64.74 61.459-19.472 25.458-32.019 49.146-37.642 71.066a73.192 73.192 0 0 0 4.374 7.574c4.268-20.408 15.437-42.874 33.502-67.395 18.847-25.615 42.483-49.85 70.908-72.705-28.425 22.855-52.062 47.09-70.908 72.705-18.065 24.521-29.234 46.986-33.502 67.395a51.33 51.33 0 0 0 2.343 3.515c.312.571.702 1.145 1.171 1.718 13.171-42.691 48.991-90.849 107.457-144.473C77.369 165.961 41.55 214.119 28.378 256.811v.079c.052.051.104.155.156.312a59.026 59.026 0 0 0 1.64 2.187c.157.26.365.52.625.78a46.83 46.83 0 0 0 2.577 3.281c.052.052.104.13.157.233 17.337-46.699 53.989-97.513 109.956-152.438-55.968 54.925-92.62 105.738-109.957 152.438a86.675 86.675 0 0 0 4.139 4.763c21.71-50.083 59.43-102.458 113.157-157.124-20.095-2.343-40.399-3.28-60.912-2.811 20.513-.469 40.817.468 60.912 2.811 2.5.208 4.998.495 7.498.859.052 0 .13.026.234.078a349.123 349.123 0 0 1 30.924 5.31M85.465 93.126c3.957 5.883 11.219 9.553 21.788 11.011-10.569-1.457-17.832-5.128-21.788-11.011M48.37 158.178c20.252-24.938 40.687-41.077 61.304-48.418-20.617 7.341-41.051 23.48-61.304 48.418-20.2 24.99-31.446 47.976-33.737 68.958 2.291-20.982 13.537-43.968 33.737-68.958m150.799-38.344l-.155-.078c-.106.625-.209 1.224-.313 1.795l.468-1.717m.156-1.718h.078c.104-1.197.13-2.396.078-3.593 0 1.146-.051 2.343-.156 3.593m0 .547c.005-.176.031-.358.078-.547h-.078v.547m0 0v.156l-.079 1.171c-.052-.051-.077-.104-.077-.155-.155.572-.313 1.146-.469 1.717l-.937 2.89c-1.719 4.633-3.88 8.824-6.482 12.573-15.254 37.693-35.325 73.226-60.21 106.597l-2.578 16.479c30.924-38.37 55.682-85.253 74.267-140.646-18.585 55.394-43.343 102.276-74.267 140.646l-.312 1.797-1.172 7.652a6.95 6.95 0 0 0-.469 1.171l-3.826 7.809a4.122 4.122 0 0 0-.391.626.944.944 0 0 0-.156.233c-.022.021-.048.05-.078.08v.155c42.326-42.379 70.598-95.249 84.81-158.608-14.212 63.359-42.483 116.229-84.81 158.608-.053.104-.13.207-.235.313a2.952 2.952 0 0 0-.546.781l-13.979 13.899a2.94 2.94 0 0 0-.781.548 1.978 1.978 0 0 0-.468.232l-.625.313-.702.312a1.3 1.3 0 0 0-.391.079 3.035 3.035 0 0 0-.391.157 161.579 161.579 0 0 0-4.608 3.825c1.146.209 2.291.391 3.437.547 1.041.156 2.135.338 3.28.547 55.55-46.337 90.797-105.713 105.739-178.132-14.941 72.418-50.188 131.795-105.739 178.132 2.395.312 4.763.599 7.106.858 54.716-44.67 89.782-103.864 105.192-177.584-15.41 73.72-50.476 132.915-105.192 177.584 1.301.104 2.603.235 3.904.391.989.052 2.004.104 3.046.157.625.052 1.275.129 1.953.232 55.655-47.166 90.041-105.322 103.161-174.46-13.12 69.139-47.506 127.294-103.161 174.46.26 0 .573.028.936.08 3.801.155 7.576.233 11.324.233 2.499 0 4.972-.053 7.418-.155 56.541-47.117 89.053-102.434 97.539-165.95-.104-.052-.155-.104-.155-.157a47.898 47.898 0 0 0-6.17-5.076c-10.36 66.848-44.044 123.674-101.053 170.479 57.009-46.805 90.693-103.631 101.053-170.479-9.162-6.769-20.357-11.324-33.58-13.667a2.75 2.75 0 0 0-.076.55m.312-4.998a9.777 9.777 0 0 0-.155.781v.078a27.633 27.633 0 0 1-.078 3.593c13.223 2.343 24.418 6.898 33.58 13.667a47.815 47.815 0 0 1 6.17 5.076c0 .052.052.104.155.157a48.825 48.825 0 0 1 5.623 6.169c3.904 4.79 7.185 10.256 9.841 16.4a89.154 89.154 0 0 1 3.202 8.59 141.592 141.592 0 0 1 2.029 7.419c.155.521.287 1.068.391 1.641a121.688 121.688 0 0 1 1.717 9.762c.209 1.874.443 3.852.703 5.935.209-1.875.392-3.774.548-5.701l.155-1.718c0-.104.053-.182.156-.234 0-.469.027-.938.079-1.405-4.062-42.591-25.433-65.993-64.116-70.21m-.623-3.281c.209.157.416.26.623.313.157.573.339 1.119.548 1.64a4.196 4.196 0 0 0-.548 1.327c38.684 4.217 60.055 27.62 64.116 70.207.052-.99.104-2.005.155-3.046.104-1.51.184-2.994.235-4.452-3.956-43.472-25.666-65.468-65.129-65.989m-.158-.077c.051 0 .104.026.157.078 39.463.521 61.173 22.517 65.13 65.99.052-2.551.077-5.076.077-7.576a4.926 4.926 0 0 1 0-1.249c-.571-6.144-1.509-11.818-2.811-17.024-7.809-31.81-28.946-46.18-63.413-43.107.054.313.157.598.313.859l.155.469c.104.519.236 1.039.392 1.56m-19.053-22.726a66.795 66.795 0 0 1 3.904 3.046c11.244-11.401 23.791-14.889 37.641-10.465a97.235 97.235 0 0 0-11.637-7.028c-14.369-1.822-24.339 2.994-29.908 14.447m18.117 19.602c0 .052.025.13.077.234 34.467-3.072 55.604 11.297 63.413 43.107-.157-4.79-.678-9.241-1.563-13.354a55.267 55.267 0 0 0-3.28-8.668c-10.047-21.554-30.118-29.676-60.209-24.366.521 1.016 1.04 2.032 1.562 3.047m-4.141-6.716a22.156 22.156 0 0 1 2.579 3.67c30.091-5.311 50.162 2.812 60.209 24.366-.052-1.51-.261-2.89-.624-4.139-10.255-25.459-30.977-33.424-62.164-23.897m-.78-.859l.156.156c.104.104.209.234.313.391l.311.312c31.187-9.527 51.908-1.562 62.164 23.897-1.458-5.154-3.227-9.709-5.311-13.667a95.718 95.718 0 0 0-6.17-9.06c-11.609-12.859-29.494-14.499-53.649-4.919.728 1.041 1.249 1.718 1.562 2.03l.077.156c.208.21.392.444.547.704m-.469-.547c.158.157.313.339.469.547a3.63 3.63 0 0 0-.547-.703v.079c0 .051.027.077.078.077m-5.387 9.06c-.26-.469-.521-.912-.781-1.328a12.411 12.411 0 0 1-.391-.547l-.469-.625a2.66 2.66 0 0 1-.391-.313c-1.042 1.978-2.915 3.722-5.622 5.232a115.66 115.66 0 0 1 9.059 2.03 47.124 47.124 0 0 1-.468-2.03 7.03 7.03 0 0 0-.313-1.328l-.078-.078a5.272 5.272 0 0 0-.313-.546c-.077-.156-.154-.312-.233-.467m-6.405-6.951a21.817 21.817 0 0 1-1.249-1.015c-.053 3.696-2.161 6.742-6.325 9.137 2.134.312 4.243.728 6.325 1.249 2.707-1.51 4.58-3.254 5.622-5.232-.883-.989-2.341-2.369-4.373-4.139m5.155-8.278h.078a46.501 46.501 0 0 0-2.264-2.265c-.262.156-.442.339-.548.547l2.11 1.562c.258.104.467.156.624.156m.078 0c.209 0 .441-.052.703-.156.104.156.261.286.469.391 13.745-8.955 28.738-10.465 44.982-4.53a94.19 94.19 0 0 0-10.777-8.435c-13.85-4.424-26.396-.937-37.641 10.465.78.729 1.534 1.484 2.264 2.265m-6.168-5.311l-.313.781 3.67 2.812c.105-.208.286-.391.548-.547a67.487 67.487 0 0 0-3.905-3.046m-4.375-2.264a5.669 5.669 0 0 0-.155-.625 57.602 57.602 0 0 0-6.013-2.89c.104.26.339.521.701.781.366.157.757.312 1.172.469 1.146.572 2.291 1.171 3.437 1.795.208.105.495.262.858.47m0 0v.234h.157l3.904 2.811.313-.781a224.998 224.998 0 0 0-4.53-2.889c.052.156.104.365.156.625m0 .234v-.234a17.481 17.481 0 0 0-.858-.469 105.645 105.645 0 0 0-3.437-1.795 29.16 29.16 0 0 1-1.172-.469l.313.157c1.875.884 3.41 1.743 4.607 2.577l.547.233m1.797-23.506c2.708.625 5.44 1.301 8.2 2.03.625.105 1.224.26 1.797.468a5.79 5.79 0 0 0 1.092.235c.261.104.573.182.938.234 2.135.52 4.19 1.093 6.17 1.718-2.5-.885-5.052-1.744-7.653-2.577a173.364 173.364 0 0 0-7.419-2.031c-6.092-.833-11.922-1.952-17.493-3.357-7.497-1.042-15.358-1.641-23.584-1.796h-1.718c-9.684-.208-18.925.363-27.723 1.717.26 0 .547.027.858.079a146.216 146.216 0 0 1 16.634-1.562c3.229-.156 6.482-.208 9.762-.156 2.134 0 4.269.052 6.404.156 5.882.312 11.844.911 17.883 1.796 2.083.313 4.165.651 6.247 1.016 3.021.521 6.04 1.171 9.061 1.952.205 0 .388.026.544.078m8.2 2.03a265.997 265.997 0 0 0-8.2-2.03 1.728 1.728 0 0 0-.546-.078c-4.063.364-6.665 3.228-7.81 8.59 1.145-5.362 3.747-8.226 7.81-8.59a112.284 112.284 0 0 0-9.061-1.952c-2.757.937-3.877 2.863-3.356 5.779-.521-2.916.6-4.842 3.356-5.779a259.35 259.35 0 0 0-6.247-1.016c-1.51.677-2.343 1.614-2.499 2.811.156-1.197.989-2.134 2.499-2.811a194.294 194.294 0 0 0-17.883-1.796c16.869 3.384 27.463 12.547 31.784 27.489 1.51.937 3.02 1.9 4.53 2.889 5.569-11.453 15.539-16.269 29.908-14.447a103.592 103.592 0 0 0-11.166-5.154c-10.777-1.25-18.196 3.697-22.257 14.838 4.061-11.141 11.479-16.087 22.257-14.838l-3.124-1.25a95.628 95.628 0 0 0-6.17-1.718 4.128 4.128 0 0 1-.938-.234 5.712 5.712 0 0 1-1.092-.235c-8.07-1.041-13.068 2.812-14.995 11.559 1.927-8.747 6.925-12.6 14.995-11.559a10.167 10.167 0 0 0-1.795-.468m59.038 37.563a115.668 115.668 0 0 0-7.419-8.511 97.152 97.152 0 0 1-2.266-2.187l-2.653-2.343c-16.244-5.936-31.237-4.425-44.982 4.53.26.208.547.442.859.702a23.364 23.364 0 0 1 2.107 1.875c.209.313.443.65.704 1.016 24.156-9.581 42.041-7.941 53.65 4.918z"/><path fill="#CEB4B5" fill-opacity=".714" d="M225.407 274.304c-2.185 2.5-4.527 5.155-7.027 7.966l-1.718-1.562a908.756 908.756 0 0 1-6.17 7.496c15.618-8.122 27.387-20.097 35.3-35.923-5.053 8.017-11.846 15.36-20.385 22.023m-19.053 15.852a84.96 84.96 0 0 0 3.825-1.797c-1.563.209-3.331.781-5.31 1.72-.364.155-.703.312-1.016.468.364-.781 1.197-2.083 2.5-3.905a219.212 219.212 0 0 1-7.029 3.515 123.172 123.172 0 0 1-13.589 6.248 2.29 2.29 0 0 0-.78.625h-.938a266.188 266.188 0 0 1-4.606 1.64c10.102-2.083 19.082-4.921 26.943-8.514m0-3.514c.155-.312.363-.597.624-.858a222.726 222.726 0 0 0-4.687 2.733 737.301 737.301 0 0 0-2.967 1.64 217.202 217.202 0 0 0 7.03-3.515m39.438-34.361a182.23 182.23 0 0 0 1.562-3.202c-.677.521-1.329.886-1.953 1.095-.832 1.976-7.498 10.021-19.993 24.13 8.538-6.663 15.331-14.006 20.384-22.023m-214.993 7.887a4.213 4.213 0 0 1-.625-.78 2.969 2.969 0 0 1-.39-.156c.051.156.104.286.156.391.208.313.469.6.781.858a.7.7 0 0 1 .078-.313m36.157 31.551a.915.915 0 0 1-.156-.235c-.417-.207-.833-.415-1.249-.624.468.261.937.545 1.405.859m19.758 8.277h-.078c-.208.054-.39.078-.546.078 1.301.365 2.655.703 4.061 1.016-1.198-.365-2.344-.73-3.437-1.094z"/><path fill="#C5ADA7" fill-opacity=".322" d="M255.475 226.822a69.254 69.254 0 0 1-7.185 21.241c3.228-4.06 6.247-13.379 9.058-27.956a162.421 162.421 0 0 1-1.873 6.715m-8.121 22.257c.259-.312.572-.65.937-1.016a69.254 69.254 0 0 0 7.185-21.241 159.766 159.766 0 0 0 1.873-6.715c-3.539 11.037-8.25 21.058-14.134 30.066.313.155.677.232 1.094.232.364 0 .728-.077 1.093-.232.622-.208 1.275-.572 1.952-1.094m-204.06 25.146l-.313.625a83.189 83.189 0 0 0 5.78 4.218 81.905 81.905 0 0 1-5.467-4.843m0 0l-1.171-1.171-.703-.703a52.805 52.805 0 0 0 1.562 2.499c.103-.209.207-.416.312-.625m-22.881-29.91c0-.156.026-.26.078-.312a27.546 27.546 0 0 1-1.406-2.734 51.791 51.791 0 0 0 1.328 3.046m4.295 7.888c.052-.261.104-.469.156-.625a73.297 73.297 0 0 1-4.374-7.574c-.052.052-.078.155-.078.312 0 .104.052.234.156.392.989 2.186 2.03 4.347 3.124 6.48a134.06 134.06 0 0 0 1.953 3.905H27.207a50.843 50.843 0 0 1-2.343-3.515 5.368 5.368 0 0 0-.156.625m-5.624-10.933a55.948 55.948 0 0 1-2.03-4.373c.208 2.187.442 4.842.702 7.966 1.25 6.247 3.879 9.657 7.888 10.23a137.964 137.964 0 0 1-1.953-3.905l-1.093-.781 1.093.781a150.114 150.114 0 0 1-3.124-6.48c-.104-.157-.156-.287-.156-.392-.468-.99-.91-2.004-1.327-3.046m-7.262-18.274a109.394 109.394 0 0 1-3.358-13.823c-.052.417-.079.911-.079 1.483.052 3.071.287 5.415.703 7.029.313 1.407 1.225 3.175 2.734 5.311m124.169 83.092c.833.572 1.874.858 3.124.858s2.368-.391 3.359-1.171l-6.483.313M66.8 291.483a.924.924 0 0 0 .156.235c.208.313.469.626.781.937.364 0 .781.026 1.25.079l-2.187-1.251m-13.276-8.043h.703a110.699 110.699 0 0 1-5.466-4.373 83.189 83.189 0 0 1-5.78-4.218c3.437 5.311 6.743 8.175 9.918 8.591h.625m6.95-207.963c.052.261.131.443.234.547a98.807 98.807 0 0 1 6.56-3.749 91.186 91.186 0 0 0-6.794 3.202m-4.372 3.514v-1.093a97.626 97.626 0 0 0-8.044 5.31l-.078.078c-1.197.938-2.083 2.317-2.655 4.14a97.31 97.31 0 0 1 6.794-5.467 71.005 71.005 0 0 1 3.983-2.968m0-1.093v1.093c1.509-.99 3.045-1.979 4.607-2.968-.104-.104-.182-.286-.234-.547a181.563 181.563 0 0 1-4.373 2.422m-41.859 52.713a.866.866 0 0 0 .156.234 98.444 98.444 0 0 1 8.668-17.181 90.156 90.156 0 0 1 5.076-10.62c-5.935 8.07-10.568 17.259-13.9 27.567m18.586-30.379c1.146-2.499 2.525-5.023 4.14-7.575a83.768 83.768 0 0 0-8.825 10.387 90.308 90.308 0 0 0-5.076 10.62 98.348 98.348 0 0 1 9.761-13.432m0 0a141.535 141.535 0 0 1 6.56-7.185c.676-1.822 1.667-3.592 2.967-5.31a80.816 80.816 0 0 0-5.388 4.919c-1.614 2.553-2.993 5.077-4.139 7.576m-4.139 1.328c-.729.99-1.483 2.03-2.264 3.124-8.851 12.443-13.276 20.148-13.276 23.115 0 .99.364 1.927 1.093 2.812 3.332-10.308 7.965-19.497 13.9-27.566.209-.522.391-1.016.547-1.485m13.666-13.822c.365-.312.729-.599 1.094-.859a48.992 48.992 0 0 1 4.529-3.593l.078-.078a97.116 97.116 0 0 1 8.044-5.31 183.068 183.068 0 0 0 4.373-2.421 91.186 91.186 0 0 1 6.794-3.202 72.833 72.833 0 0 1 7.263-3.67c.885-.364 1.822-.755 2.811-1.171a105.918 105.918 0 0 1 14.837-5.076c-1.666-1.978-3.332-2.759-4.998-2.342-2.395.78-5.128 2.212-8.2 4.294-3.697 2.343-6.299 3.879-7.809 4.608-3.801 1.562-6.612 2.785-8.434 3.671-3.177 1.405-5.494 2.811-6.951 4.217-1.249 1.197-3.878 2.733-7.887 4.607-3.749 1.822-6.04 3.202-6.873 4.139-2.967 3.488-7.08 8.824-12.339 16.009-.156.469-.338.963-.546 1.484a83.78 83.78 0 0 1 8.825-10.387 80.8 80.8 0 0 1 5.389-4.92m1.094-.859c-.365.26-.729.547-1.094.859-1.301 1.718-2.291 3.488-2.967 5.31l1.718-1.718a74.556 74.556 0 0 1 4.217-3.904c.572-1.823 1.458-3.203 2.655-4.14a48.992 48.992 0 0 0-4.529 3.593m221.552 69.347c0-1.51-.338-3.592-1.016-6.248.416 2.863.703 5.753.859 8.668l.157-2.42z"/><path fill="#B69896" d="M264.377 194.023c0-.781-.156-2.213-.469-4.295-.416 3.176-.885 6.3-1.405 9.372 1.093-.156 1.77-.912 2.031-2.265-.104-1.51-.157-2.447-.157-2.812z"/><path fill="#EBDFD1" d="M33.532 263.683c-.052.157-.13.364-.234.626a269.643 269.643 0 0 1 5.311 5.466v-.313a18.82 18.82 0 0 0-.938-1.017 86.289 86.289 0 0 1-4.139-4.762m-.312.546l.078.079c.104-.262.182-.469.234-.626a.859.859 0 0 0-.157-.233 1.71 1.71 0 0 0-.233.546c0 .105.025.184.078.234m-6.325-6.95c.156.209.26.416.313.624.155.209.337.418.546.625a7.643 7.643 0 0 0-.859-1.249m1.639-.078c-.052-.156-.104-.261-.156-.312-.625-.313-1.171-.912-1.641-1.797h-.39c.156.729.338 1.458.547 2.187.313.364.599.78.858 1.249a71.684 71.684 0 0 0 2.812 2.812c.052-.261.104-.546.157-.859a3.98 3.98 0 0 1-.781-.858 2.988 2.988 0 0 1-.156-.391 2.18 2.18 0 0 1-1.172-1.093 8.568 8.568 0 0 1-.078-.938m25.693 26.239H52.899c.781.209 1.64.494 2.577.859a7.402 7.402 0 0 1-1.249-.859M162.855 58.765a114.429 114.429 0 0 1-10.62-3.28c-4.687.052-9.581.547-14.682 1.484h1.718c8.226.156 16.087.755 23.584 1.796m100.976 88.09l-.157.78c.049.196.076.352.079.469 0-.425.027-.841.078-1.249m0-4.218a117.064 117.064 0 0 0-4.608-13.197 111.43 111.43 0 0 1 3.592 13.354 133.44 133.44 0 0 0 1.017 3.67v-3.28l-.001-.547m-78.875-80.046c-1.562-.156-3.098-.312-4.607-.469 2.498.625 4.972 1.302 7.419 2.031a86.294 86.294 0 0 0-2.812-1.562z"/><path fill="#EEE3D7" fill-opacity=".541" d="M117.639 78.679c-.208-.157-.677-.183-1.405-.079l-1.484.391c-.573 0-1.484.287-2.733.859-1.405.573-2.734.963-3.983 1.171-.417.052-.989.208-1.718.469-.625.364-1.198.546-1.718.546-.573 0-1.51.417-2.812 1.249-1.301.678-3.254 1.797-5.857 3.359-2.812 1.718-4.217 2.655-4.217 2.811l.156.469c-.104.052-.234.13-.39.234-.208.156-.313.312-.313.468v.156l.234.234c.261.365.521.833.781 1.406.261.417.495.885.704 1.405.313-.208.754-.494 1.328-.859-.157.104-.234.208-.234.313l.078.156c.104.209.234.313.391.313l8.2-3.982c.104.104.208.156.313.156.26 0 .937-.26 2.03-.781.26-.104.859-.364 1.796-.781.261-.052.547-.13.86-.234h.312c.051.104.156.156.313.156.26 0 .755-.182 1.483-.546l.39.234c.365 0 .99-.182 1.875-.546.989-.365 1.692-.6 2.108-.704l3.671-1.249a334.918 334.918 0 0 0 6.403-2.499 5.318 5.318 0 0 0 1.094-.547c.833-.313 1.249-.521 1.249-.625 0-.313-.234-.469-.703-.469-.417 0-1.562.287-3.437.86-.104-.26-.286-.391-.546-.391-.312 0-.885.156-1.718.468 0-.208-.208-.312-.625-.312-.417.104-.781.208-1.093.312a4.719 4.719 0 0 1-1.328.39 3.64 3.64 0 0 0 .234-.39c.157-.156.234-.26.234-.312 0-.364-.234-.547-.702-.547a4.18 4.18 0 0 0-1.562.312c-.469.209-.886.391-1.25.547a3.2 3.2 0 0 0-.391.156.934.934 0 0 1 .235-.156c.208-.156.468-.312.781-.468.312-.053.468-.234.468-.547 0-.365-.182-.547-.547-.547-.625.313-1.015.469-1.171.469l-.157-.469.078-.078c.312-.104 1.146-.365 2.5-.781 1.197-.313 1.796-.65 1.796-1.015l-.001-.155z"/><linearGradient id="b" gradientUnits="userSpaceOnUse" x1="62.282" y1="270.383" x2="124.132" y2="270.383" gradientTransform="matrix(1 0 0 -1 29.04 355.34)"><stop offset=".204" stop-color="#b09d90"/><stop offset="1" stop-color="#fff" stop-opacity="0"/></linearGradient><path fill="url(#b)" d="M133.805 82.583l-.235.078-2.654.313c-.313 0-.625-.053-.938-.156-.252-.151-.46-.229-.625-.234h-.079a8.532 8.532 0 0 1-1.015.078 3.24 3.24 0 0 1-.781-.078c-.052 0-.104-.052-.157-.156l-.234-.156a3.314 3.314 0 0 0-.937.313c-.573.104-1.223.234-1.952.391-1.405.573-3.54 1.406-6.403 2.499l-3.671 1.249c-.416.104-1.119.339-2.108.704-.885.364-1.51.546-1.875.546l-.39-.234c-.728.364-1.223.546-1.483.546-.157 0-.261-.052-.313-.156h-.312a7.236 7.236 0 0 1-.86.234c-.937.417-1.536.677-1.796.781-1.093.521-1.77.781-2.03.781-.104 0-.208-.052-.313-.156l-8.2 3.982c-.156 0-.286-.104-.391-.313l-.078-.156c0-.104.078-.209.234-.313-.573.365-1.015.651-1.328.859a8.686 8.686 0 0 0-.704-1.405.934.934 0 0 1-.155.234 2.286 2.286 0 0 0-.079.391c0 .625.469.938 1.405.938v.078c-.308.363-.464.675-.464.935.051.417.495.625 1.328.625.104 0 .572-.182 1.405-.547 1.354-.625 3.697-1.796 7.028-3.514a12.39 12.39 0 0 1 1.015-.39c2.551-1.302 4.634-2.213 6.248-2.733a.588.588 0 0 1 .234-.079h.079c1.198-.417 2.135-.625 2.811-.625.104 0 .208.052.313.156.052 0 .104.026.157.078.208.104.546.156 1.015.156.573 0 1.275-.026 2.109-.078a64.444 64.444 0 0 1 9.605-2.031c.208-.155.442-.26.703-.312 1.823-.469 3.384-.938 4.686-1.405.417.208.885.312 1.406.312h.156l4.061-.468c1.197 0 2.499.13 3.905.39 1.042.104 2.135.26 3.279.469.781-.052 1.718 0 2.812.156H149.972c.157 0 .286.026.391.078h.703c.885.053 1.613.209 2.187.469v-.079c-.833-.312-2.265-.937-4.295-1.874a4.1 4.1 0 0 0-.938-.234 12.653 12.653 0 0 1-1.563-.235c-1.197 0-2.524-.155-3.981-.468-.209 0-.365-.026-.47-.078h-1.874c-.885.26-1.978.39-3.28.39-.52 0-.807-.078-.859-.235-.104-.104-.39-.181-.859-.234-.314-.05-.756-.077-1.329-.077m4.607-6.716c.051-.052.104-.078.156-.078.469-.313 1.198-.495 2.186-.547h1.485c.729 0 1.301.052 1.718.157-.885-.833-3.332-1.198-7.341-1.093-.833 0-1.639.052-2.42.156-1.667.052-3.514.234-5.545.547h-.391c-2.551.26-4.815.573-6.794.938-1.041.156-1.952.364-2.733.625-1.874.313-3.332.703-4.373 1.171-.157-.365-.599-.442-1.328-.234a.868.868 0 0 0-.39.078c-.156 0-.312.026-.468.078-.052 0-.104.026-.156.078h-.078c-2.604 1.146-4.295 1.849-5.076 2.108-.521.157-1.562.729-3.124 1.719-.417-.313-1.276-.131-2.578.546a161.607 161.607 0 0 0-2.889 1.718c-.678.053-1.51.495-2.5 1.328-.416.156-.885.338-1.406.547-1.458.573-2.187 1.171-2.187 1.796 0 .26.104.468.313.625-.781.729-1.171 1.171-1.171 1.328l.078.547c0 .052.026.104.079.156.156-.104.286-.182.39-.234l-.156-.469c0-.156 1.406-1.093 4.217-2.811 2.603-1.562 4.556-2.681 5.857-3.359 1.301-.833 2.239-1.249 2.812-1.249.521 0 1.094-.182 1.718-.546.729-.26 1.301-.417 1.718-.469 1.249-.208 2.578-.598 3.983-1.171 1.249-.572 2.16-.859 2.733-.859l1.484-.391c.729-.104 1.197-.078 1.405.079 1.093-.417 1.901-.678 2.421-.781 1.77-.833 3.254-1.25 4.451-1.25l1.406.313c.729 0 2.577-.234 5.545-.703 1.458-.156 2.551-.104 3.279.156a18.29 18.29 0 0 1 3.67-.55z"/></g><path fill="none" stroke="#333" stroke-linecap="round" stroke-linejoin="round" d="M251.179 108.745c-.104-.208-.207-.417-.312-.625m6.248 15.541a66.754 66.754 0 0 0-2.343-6.872m-8.98 135.492l2.498-4.218M84.606 300.309c.468-.052.963-.131 1.483-.234m-68.175 30.144c.085.214.15.41.195.586m249.001 26.199c-.886.104-1.743.209-2.576.313m-14.838.781c-5.415-.103-10.595-.625-15.541-1.562m-7.028-1.561c-.472-.118-.926-.235-1.366-.351m-17.69-7.694a6.631 6.631 0 0 0-1.327-.701m-14.917-5.077a29.96 29.96 0 0 0-2.888-.47M37.983 360.597a.983.983 0 0 0-.508-.155m-8.081-60.759a2.976 2.976 0 0 1-.156.04m11.479-26.669c.729.572 1.483 1.171 2.264 1.796m-10.308-9.838a90.454 90.454 0 0 0 5.857 6.089m-10.777-12.573a58.632 58.632 0 0 0 2.656 3.67m-4.764-7.105c.417.676.833 1.406 1.25 2.187M14.243 130.611a21.125 21.125 0 0 0-.781 2.578M195.421 66.73c1.404.417 2.785.885 4.139 1.406.313.052.599.129.858.234a125.893 125.893 0 0 1 12.886 5.232c6.195 2.916 11.817 6.326 16.869 10.23.415.365.858.729 1.327 1.094a77.499 77.499 0 0 1 5.778 5.076m-1.638-.078c.52.26 1.171.416 1.952.469a2.57 2.57 0 0 0-.313-.391m13.588 18.119a77.828 77.828 0 0 0-13.275-17.728m6.871 11.245a95.718 95.718 0 0 1 6.17 9.06m4.139 6.091a87.175 87.175 0 0 0-3.594-8.043m-78.951-32.644c1.927-8.747 6.925-12.6 14.995-11.559a10.212 10.212 0 0 0-1.797-.468 265.997 265.997 0 0 0-8.2-2.03 1.728 1.728 0 0 0-.546-.078c-4.063.364-6.665 3.228-7.81 8.59m26.552-3.827a95.628 95.628 0 0 0-6.17-1.718 4.128 4.128 0 0 1-.938-.234 5.712 5.712 0 0 1-1.092-.235m11.324 3.437c.312.052.649.104 1.015.156m-24.132 17.415v-.234a17.481 17.481 0 0 0-.858-.469 105.645 105.645 0 0 0-3.437-1.795 29.16 29.16 0 0 1-1.172-.469m5.624 2.967l3.904 2.811.313-.781m-4.374-2.264a5.669 5.669 0 0 0-.155-.625m18.506 15.775c31.187-9.527 51.908-1.562 62.164 23.897-1.458-5.154-3.227-9.709-5.311-13.667M185.27 92.736l-2.11-1.562-3.67-2.812m3.669 2.812c.105-.208.286-.391.548-.547m-3.904-3.046c5.569-11.453 15.539-16.269 29.908-14.447m-33.423 9.684c4.061-11.141 11.479-16.087 22.257-14.838m.78 50.293v-.157m-6.873-19.133c0 .052.027.078.078.078m-8.823-8.434c11.244-11.401 23.791-14.889 37.641-10.465m-11.637-7.028c1.146.104 2.344.261 3.593.469m-33.815 26.552c-.053 3.696-2.161 6.742-6.325 9.137 2.134.312 4.243.728 6.325 1.249 2.707-1.51 4.58-3.254 5.622-5.232m2.032 2.812c-.26-.469-.521-.912-.781-1.328m6.168-7.732c.158.157.313.339.469.547m3.359 4.529c30.091-5.311 50.162 2.812 60.209 24.366-.052-1.51-.261-2.89-.624-4.139 1.511 3.8 2.812 8.069 3.904 12.807 1.563 4.999 2.707 10.491 3.436 16.478a105.046 105.046 0 0 0-1.482-10.777 100.273 100.273 0 0 0-1.094-5.936c-.78-3.645-1.719-7.21-2.812-10.699a15.191 15.191 0 0 0-.625-2.03 7.22 7.22 0 0 1-.155-.547m-59.195-16.477c0 .052.025.13.077.234 34.467-3.072 55.604 11.297 63.413 43.107-.157-4.79-.678-9.241-1.563-13.354a55.267 55.267 0 0 0-3.28-8.668M235.64 89.924a37.11 37.11 0 0 0-3.515-1.328c-16.244-5.936-31.237-4.425-44.982 4.53m34.205-12.964c2.864.833 5.805 2.057 8.825 3.67m-32.176 23.585c.054.313.157.598.313.859m1.093 9.84h-.078c.104-1.25.156-2.447.156-3.593m-.078 3.593c13.223 2.343 24.418 6.898 33.58 13.667a47.815 47.815 0 0 1 6.17 5.076c0 .052.052.104.155.157a48.825 48.825 0 0 1 5.623 6.169c3.904 4.79 7.185 10.256 9.841 16.4a89.154 89.154 0 0 1 3.202 8.59c.051-.781.077-1.588.077-2.42m-59.037-45.999c-.106.625-.209 1.224-.313 1.795m-80.203 138.304a564.708 564.708 0 0 1-28.348 32.176m98.398-179.46a115.209 115.209 0 0 0-9.059-2.03m9.995 7.028a349.128 349.128 0 0 0-30.924-5.311.604.604 0 0 0-.234-.078c-50.605 52.427-88.949 106.442-115.032 162.044m5.467 4.843a119.141 119.141 0 0 0 6.56 4.216c.728.418 1.431.81 2.108 1.172.313.209.677.418 1.093.626l117.454-168.839m1.483 22.96v.157c.247-.2.443-.33.586-.391m11.361-20.461a2647.327 2647.327 0 0 1-11.947 20.695m-3.202 2.186a163.947 163.947 0 0 1 3.202-2.03m-.39 10.933c.259-.156.494-.287.702-.391m.547-.39l-.468.351m.546-.351l.468-.313m-.546.313v.078a957.57 957.57 0 0 1-44.045 73.408m57.008-85.981c-15.254 37.693-35.325 73.226-60.21 106.597m130.339-93.087c1.302 5.207 2.239 10.881 2.811 17.024a510.001 510.001 0 0 0-.39-8.903 10.344 10.344 0 0 1-.078-1.327l-.47-3.67m-64.269-43.265c39.463.521 61.173 22.517 65.13 65.99.052-2.551.077-5.076.077-7.576a4.926 4.926 0 0 1 0-1.249m-64.584-53.884c38.684 4.217 60.055 27.62 64.116 70.207.052-.99.104-2.005.155-3.046.104-1.51.184-2.994.235-4.452m-6.168-8.2a141.592 141.592 0 0 1 2.029 7.419c.155.521.287 1.068.391 1.641a121.688 121.688 0 0 1 1.717 9.762c.209 1.874.443 3.852.703 5.935.209-1.875.392-3.774.548-5.701l.155-1.718c0-.104.053-.182.156-.234 0-.469.027-.938.079-1.405m-19.29-82.235c-11.609-12.859-29.494-14.499-53.649-4.919m-145.49-9.293c.572-1.823 1.458-3.203 2.655-4.14a48.858 48.858 0 0 0-4.529 3.593c-.365.26-.729.547-1.094.859-1.301 1.718-2.291 3.488-2.967 5.31m13.198-12.182a3.507 3.507 0 0 0-.469 1.093m-37.875 48.652c3.332-10.308 7.965-19.497 13.9-27.566.208-.521.391-1.016.546-1.484m10.778 5.543c-1.718-5.05-1.744-9.736-.078-14.057m-6.56 7.185c-2.655 5.779-4.061 11.61-4.217 17.493a72.205 72.205 0 0 1 14.369-11.636c17.129-10.621 29.65-13.51 37.564-8.668-.261-2.083.129-4.061 1.171-5.936m-48.887 8.747c1.146-2.499 2.525-5.023 4.14-7.575a83.768 83.768 0 0 0-8.825 10.387 90.308 90.308 0 0 0-5.076 10.62m23.116-10.698c-1.614-6.924-1.9-12.104-.859-15.54m-2.969.312a80.816 80.816 0 0 0-5.388 4.919m-23.506 40.531c-1.614 5.153-2.89 10.594-3.826 16.322a89.622 89.622 0 0 0-.39 3.748 60.849 60.849 0 0 0-.547 5.31c3.54-16.66 10.1-30.144 19.68-40.452a3.74 3.74 0 0 1 .234-.391m-11.168 14.058a104.027 104.027 0 0 1 5.622-18.118M8.699 158.568v.078a38.513 38.513 0 0 0-.234 2.733c-.156 2.291-.313 4.608-.469 6.951 4.998-24.625 16.738-42.795 35.221-54.509 18.898-12.027 32.122-15.541 39.671-10.542-1.354-2.031-2.134-3.983-2.342-5.857.572.312 1.119.676 1.64 1.093m-74.19 69.816a22.586 22.586 0 0 0-.078 1.875l-.157 2.967c5.571-24.417 17.805-42.717 36.704-54.899 17.701-11.559 30.847-16.166 39.438-13.823-.365-.417-.704-.807-1.016-1.171M8.464 161.379a9.952 9.952 0 0 1 .234-2.811m155.564-92.775c-.521-2.916.6-4.842 3.356-5.779a259.35 259.35 0 0 0-6.247-1.016c-1.51.677-2.343 1.614-2.499 2.811m2.499-2.81a194.294 194.294 0 0 0-17.883-1.796c16.869 3.384 27.463 12.547 31.784 27.489m-31.784-27.489c-2.135-.104-4.27-.156-6.404-.156-3.28-.052-6.534 0-9.762.156 14.161 2.863 23.873 9.736 29.129 20.616m10.153 2.812c-4.947-12.547-15.125-20.279-30.536-23.194m-8.746-.234c-5.622.208-11.167.729-16.634 1.562 11.871 2.446 20.513 7.627 25.927 15.541m5.624.936c.729.104 1.431.209 2.109.313.52.104 1.042.182 1.562.233-5.623-9.059-14.786-14.786-27.489-17.18M164.886 90.9l.079.04h.077m-54.354-32.175c-2.655.417-5.284.858-7.887 1.328 11.975 2.446 20.539 7.366 25.692 14.759a26.98 26.98 0 0 1 2.031-.234 68.19 68.19 0 0 1 3.28-.234c.104 0 .234.026.391.078m-21.164 3.046a.868.868 0 0 0-.39.078c-.156 0-.312.026-.468.078-.052 0-.104.026-.156.078h-.078M95.695 62.201c11.975 2.239 20.539 6.769 25.693 13.588.365-.051.703-.13 1.015-.233l3.905-.469a30.644 30.644 0 0 1 2.186-.234c.104.052.157.104.157.156m-2.422 11.01a49.392 49.392 0 0 1 5.466-.781c.469-.052.938-.078 1.406-.078a2.3 2.3 0 0 1-.078-.547m1.484.391c-.416 0-.884.052-1.405.156m2.577-.233a50.7 50.7 0 0 1 5.623 0 2.988 2.988 0 0 0-.156-.391m-19.681-8.59c-.052-.052-.078-.104-.078-.157a.876.876 0 0 0-.391.078 75.65 75.65 0 0 0-5.154.938m-4.294 1.014c-4.373-7.913-12.625-12.442-24.755-13.588a74.345 74.345 0 0 0-5.467 1.796c12.287 4.269 19.576 9.059 21.867 14.369a77.923 77.923 0 0 1 8.121-2.578l.234.001a.998.998 0 0 1 .391-.078m1.092-.233c.313-.157.651-.26 1.016-.313.313-.104.625-.182.937-.234m11.245 9.058a64.57 64.57 0 0 0-9.605 2.031 14.92 14.92 0 0 0-1.641.391c4.842 3.696 7.835 8.147 8.98 13.354m-8.979-13.354c-5.57 1.509-11.35 3.514-17.337 6.013h-.156c-.573.26-1.146.494-1.718.702a31.735 31.735 0 0 0 3.28 1.796c.625.573 1.484.99 2.578 1.25.572.208 1.197.469 1.874.781 4.946 1.822 10.985 3.306 18.118 4.451 1.614.208 3.28.443 4.999.703h2.968c15.983-.468 26.683-4.425 32.096-11.871a17.42 17.42 0 0 0 1.016-1.64 17.96 17.96 0 0 0-1.016-.625 9.737 9.737 0 0 0-.703-.313m-10.465-3.2c-.053-.053-.104-.079-.157-.079a1.272 1.272 0 0 1-.077-.391 6.903 6.903 0 0 0-1.407-.312c-2.395-.469-4.919-.729-7.574-.781m-18.276 3.672c5.207 4.425 8.409 9.084 9.606 13.979m-2.187-15.229c5.259 4.582 8.591 9.241 9.997 13.979m16.008-23.507c0 .053.027.104.079.156.207.053.494.104.858.157a95.828 95.828 0 0 1 8.513 2.811c.259.052.546.13.858.235a.966.966 0 0 1-.155-.547m-12.652-3.358a21.188 21.188 0 0 0-1.952-.39 168.57 168.57 0 0 1-2.264-.47 517.172 517.172 0 0 1-3.827-.625c0 .052.026.104.078.157m22.803 6.092a32.558 32.558 0 0 0-2.03-.858c.054.208.104.442.157.702m-12.965-4.608c.885.26 1.745.494 2.578.702.051.208.13.417.234.625m4.216 11.09l-.312-.157a33.54 33.54 0 0 0-2.812-1.249 52.97 52.97 0 0 0-7.574-2.265 15.58 15.58 0 0 0-.313-.858m-63.333 20.304c21.606-1.094 41.182-.938 58.727.468h.703c10.257-2.603 17.18-6.95 20.772-13.041m-6.169-3.359c.26-.052.494-.078.702-.078 1.168.457 2.34.939 3.515 1.445m8.278 18.392a.846.846 0 0 0-.469-.157c-1.666-.26-3.332-.495-4.998-.703a206.89 206.89 0 0 0-8.434-1.249c-.469.157-.912.338-1.327.547m-11.871-1.797c4.582.313 8.98.729 13.198 1.25 6.402-2.708 10.307-6.716 11.714-12.027m-25.771-7.653c3.956 3.175 6.561 6.534 7.81 10.074m.078-9.449l4.14 5.857m-18.744-6.013c4.686 3.385 7.341 7.315 7.965 11.792m-43.654-39.671c-3.54.729-6.977 1.562-10.309 2.499a61.071 61.071 0 0 0-5.7 1.64m16.009-4.139a.969.969 0 0 1-.546-.156m-24.834 8.277c-.729.208-1.432.469-2.108.78 10.673 4.634 16.972 9.762 18.899 15.385a47.513 47.513 0 0 1 3.28-1.64 91.085 91.085 0 0 1 3.982-1.641c.573-.26 1.146-.494 1.719-.703M74.532 68.604c.26.157.521.287.781.39a163.064 163.064 0 0 0-8.044 3.28m22.725 19.602c-17.545-3.696-27.307-8.981-29.285-15.853-.104-.104-.182-.286-.234-.547a179.614 179.614 0 0 1-4.373 2.421v1.093m0-1.092a97.626 97.626 0 0 0-8.044 5.31l-.078.078m8.122-4.295c.052 6.091 4.243 11.297 12.573 15.619M52.119 81.959c-2.759 5.831-1.25 10.985 4.529 15.462m10.621-25.146a90.998 90.998 0 0 0-6.794 3.202m6.638-2.108c9.788 2.863 17.128 7.887 22.022 15.072-.051-.417 0-.86.157-1.328a64.467 64.467 0 0 1 4.92-2.733m-2.187 8.277c-.053-.052-.104-.078-.157-.078-.313-.26-.572-.494-.781-.703a2.696 2.696 0 0 0-.547-.546 7.19 7.19 0 0 1-.625-.859c-.469-.676-.729-1.354-.781-2.03a53.365 53.365 0 0 1 1.953 3.436m-7.184 12.573c.468.104.963.286 1.484.547m10.386-9.841c-.052-.052-.104-.078-.156-.078m-10.152-1.952c3.957 5.883 11.219 9.553 21.788 11.011M81.326 66.028a51.41 51.41 0 0 0-3.983 1.405m-62.71 159.703c2.291-20.982 13.537-43.968 33.737-68.958 20.252-24.938 40.687-41.077 61.304-48.418m63.49 32.331a124.833 124.833 0 0 0-5.388 3.749m-26.006 27.332a11.71 11.71 0 0 0-.781 1.171m-51.073-65.832c20.513-.469 40.817.468 60.912 2.811 2.5.208 4.998.495 7.498.859m-12.417 68.332a61.22 61.22 0 0 1 5.076-7.887c.21-.313.442-.65.703-1.015m-41-112.846a5.27 5.27 0 0 0-.858-.079M83.903 104.45c1.041 1.354 2.369 2.733 3.982 4.139m12.573 1.171c-18.638 4.27-37.563 18.249-56.774 41.937-19.21 23.585-29.832 45.711-31.862 66.379a170.73 170.73 0 0 0 1.718 7.029c0 .051.026.104.078.156.729 2.76 1.562 5.493 2.5 8.2 5.674-21.815 18.612-45.529 38.813-71.144 20.148-25.563 40.609-43.003 61.381-52.323M20.49 244.004c5.623-21.92 18.17-45.607 37.642-71.066 20.096-26.604 41.675-47.091 64.74-61.459M24.864 251.578c4.268-20.408 15.437-42.874 33.502-67.395 18.847-25.615 42.483-49.85 70.908-72.705m-22.099-19.757c3.801 2.29 5.883 5.154 6.248 8.59M7.761 173.172c-.104 4.998-.078 9.866.078 14.604 2.031-20.357 10.986-38.63 26.865-54.822 16.608-17.077 32.825-25.797 48.652-26.161M7.839 187.776v.234l.157 2.811c.313 5.05.807 10.022 1.484 14.917 1.093-22.439 9.709-42.744 25.849-60.914 16.556-18.899 34.466-30.873 53.729-35.923m-5.702 183.833a983.784 983.784 0 0 0 39.984-53.729m5.154 21.086l-.078.077-.234 1.72m-6.013 17.491a.859.859 0 0 1 .156-.233m-.195.313a.292.292 0 0 0-.039.155c42.326-42.379 70.598-95.249 84.81-158.608m-75.83 122.606l-.078.078-2.577 16.478m2.967-18.43l-.39 1.952m-44.279 56.306a198.07 198.07 0 0 0 5.466-.859 9.907 9.907 0 0 1 1.328-.234m9.45-2.343a5.4 5.4 0 0 1 1.092-.391.692.692 0 0 1 .313-.077c.156-.052.286-.079.391-.079m-18.665 4.061c.156 0 .338-.024.546-.078m6.873-1.094c.521.104 1.067.261 1.64.47.989.155 2.004.339 3.045.547.364.051.755.103 1.171.155a161.579 161.579 0 0 1 4.608-3.825l.078-.08m-4.685 3.905c1.146.209 2.291.391 3.437.547 1.041.156 2.135.338 3.28.547 55.55-46.337 90.797-105.713 105.739-178.132M58.522 285.081c.208.103.469.234.781.391 1.77.936 3.566 1.848 5.389 2.732.208.053.391.132.546.234h.078a2422.663 2422.663 0 0 0 66.224-94.728m-88.559 81.14a83.189 83.189 0 0 0 5.78 4.218m-10.23-7.967a79.688 79.688 0 0 1 2.187 1.953m-10.309-10.856c.729.938 1.484 1.875 2.265 2.813m-5.779-7.732c.313.364.599.78.858 1.249m-2.108-3.435a137.964 137.964 0 0 1-1.953-3.905l-1.093-.781m6.56 49.356l.078-.04m98.008-90.471a3194.12 3194.12 0 0 1-55.837 81.921 153.63 153.63 0 0 1 4.373 1.795m-10.465-4.53a407.82 407.82 0 0 0 6.091 2.734m127.918-1.016a217.37 217.37 0 0 1-3.358 1.563c-1.51.573-2.992 1.146-4.45 1.717-1.407.418-2.785.861-4.14 1.328-1.406.469-2.76.912-4.06 1.328-1.355.364-2.734.754-4.141 1.171-1.146.313-2.265.6-3.358.859-.363.052-.753.131-1.171.234-1.093.259-2.161.521-3.202.78a157.922 157.922 0 0 1-8.668 1.641c-2.136.364-4.321.677-6.561.938-.155 0-.261.023-.312.077-2.344.313-4.687.546-7.029.703-.988.052-1.926.155-2.811.311-.469 0-.938.028-1.405.08-.938.052-1.901.078-2.891.078-2.446.103-4.919.155-7.418.155-3.749 0-7.523-.078-11.324-.233a6.793 6.793 0 0 0-.936-.08 27.725 27.725 0 0 0-1.953-.232c-1.042-.054-2.057-.105-3.046-.157a101.327 101.327 0 0 0-3.904-.391c-2.343-.26-4.712-.547-7.106-.858l-.625.469m16.635-22.023c-.053.104-.13.207-.235.313m3.67-56.931a1964.32 1964.32 0 0 1-48.339 69.972M7.996 190.821a9.95 9.95 0 0 1-.157-3.045m1.64 17.962c.104.676.208 1.379.312 2.108a114.586 114.586 0 0 0 2.031 10.229m4.296 15.386c.26.727.52 1.433.781 2.107a107.073 107.073 0 0 0 2.186 5.701m9.293 15.542c13.171-42.691 48.991-90.849 107.457-144.473M24.708 252.203c.052-.261.104-.469.156-.625m-4.374-7.574c-.052.052-.078.155-.078.312 0 .104.052.234.156.392.989 2.186 2.03 4.347 3.124 6.48m4.686 5.702v-.079m5.154 6.872c17.337-46.699 53.989-97.513 109.956-152.438M19.084 241.27a53.47 53.47 0 0 0 1.328 3.046m12.886 19.993c.104-.262.182-.469.234-.626m4.139 4.762c21.71-50.083 59.43-102.458 113.157-157.124M42.981 274.85l.313-.625m218.817-87.23c.313 4.216.184 8.512-.39 12.885a2.77 2.77 0 0 1 .234-.781c.208-1.718.417-3.385.626-4.999.052-.364.13-.754.232-1.171m-5.465 27.178a210.104 210.104 0 0 0 3.125-13.198c-6.352 26.498-29.337 55.341-68.956 86.526m68.956-86.526c.468-2.396.886-4.738 1.249-7.029m-18.508 50.294a.586.586 0 0 0-.077.232m-36.783 36.236c7.08-3.852 13.431-7.964 19.053-12.338m31.941-54.197a159.766 159.766 0 0 1-1.873 6.715 69.254 69.254 0 0 1-7.185 21.241m-22.883 26.241c8.539-6.663 15.332-14.006 20.385-22.022m6.48-15.931a126.581 126.581 0 0 1-9.059 13.823m-43.888 39.982a216.125 216.125 0 0 0 7.029-3.515m36.783-36.235c-10.673 14.11-24.287 26.813-40.845 38.11M176.679 61.967a112.284 112.284 0 0 0-9.061-1.952m.939 94.337a2093.39 2093.39 0 0 1-32.097 51.776m-7.966 53.963c30.924-38.37 55.682-85.253 74.267-140.646m15.619 4.997c-15.41 73.72-50.476 132.915-105.192 177.584m112.064-173.68c-13.12 69.139-47.506 127.294-103.161 174.46m117.218-165.791c-8.486 63.516-40.998 118.833-97.539 165.95m91.213-171.182c-10.36 66.848-44.044 123.674-101.053 170.479m35.767-193.83c4.945-2.654 7.263-6.117 6.95-10.386m5.156 19.601a3149.617 3149.617 0 0 1-23.663 38.188m11.636-9.996a4890.587 4890.587 0 0 0 16.79-27.255M48.838 277.896c32.123-57.894 70.648-112.273 115.579-163.138M52.665 281.02a3210.157 3210.157 0 0 1 117.922-166.261m74.345 28.425c-7.392 59.248-39.41 112.352-96.056 159.312m109.099-134.322c-2.135 45.138-29.521 88.454-82.156 129.948m84.576-120.889c-1.094 39.412-26.787 79.03-77.077 118.858m71.454-136.507c-3.124 50.188-31.524 96.68-85.202 139.476m78.954-149.785c-6.247 55.187-37.017 105.999-92.308 152.441m95.432-145.959c-4.478 52.635-34.102 100.974-88.871 145.02"/><path fill="none" stroke="#333" stroke-width="1.5" stroke-linecap="round" stroke-linejoin="round" d="M84.606 300.309l-23.507.625-2.264-.156c-18.066 3.695-30.587 8.694-37.564 14.994m-3.436 3.748a20.316 20.316 0 0 0-1.718 2.812c.26 2.083.65 4.062 1.171 5.936m.82 2.537l.118.429 20.539 20.694c.156 0 .338.053.547.158.676.207 1.379.442 2.108.701 25.771 3.488 47.403 2.474 64.896-3.044l16.711-4.141m20.227-5.075l9.762-2.344m3.982-1.17c20.252-6.821 37.485-6.325 51.698 1.484 14.473 7.809 28.92 11.271 43.343 10.385l27.644-1.17c2.604 1.667 2.526 4.009-.233 7.027-.261.054-.495.105-.703.157-.207 0-.416.025-.625.078l-11.011 2.029m-41.35-2.379l-.431-.118-5.7-2.03m-18.587-8.747l5.701 2.5m-24.053-5.936c-3.854 0-7.679.493-11.479 1.483a2.714 2.714 0 0 1-.703.234c-1.301.469-2.63.963-3.982 1.484m-21.555 6.482c-12.183 3.281-25.354 6.248-39.516 8.903-.312.104-.599.209-.858.313l-2.5.781c-.676.155-1.354.339-2.03.546-.729.157-1.458.339-2.187.548m-6.794 1.327c-3.645.571-7.445.989-11.402 1.249h-.078m-17.727-.079l-3.905-.313h-.546m-20.226-2.81h.272m-22.529-11.324a59.822 59.822 0 0 1-1.796-1.874m1.406-39.28a62.335 62.335 0 0 1 4.139-2.733m10.542-5.507a7.155 7.155 0 0 0-.547.196m.704-.236l.078-.077c.364-.155.781-.337 1.25-.546l1.249-.313m17.649-5.153l-10.777 3.045m26.24-4.294l2.655.311M179.803 87.581a224.998 224.998 0 0 0-4.53-2.889m10.698 8.2c.521.468 1.016.962 1.483 1.483a83.645 83.645 0 0 1 4.921 4.374l.077.156c.208.209.392.443.547.703l.156.156c.104.104.209.234.313.391l.311.312m-10.072-9.84a67.472 67.472 0 0 0-3.904-3.046m19.366 32.253c.054-.365.105-.703.156-1.016v-.117m.156-4.178v-.078a17.563 17.563 0 0 0-.625-4.139m-12.885-17.414a46.501 46.501 0 0 0-2.264-2.265m-17.571.937c9.579 4.373 16.19 9.267 19.835 14.681.104.157.234.339.391.547m-83.249 181.1c-3.54 1.926-7.861 3.305-12.963 4.14-1.302.155-2.656.337-4.061.546-.885.054-1.796.104-2.733.157-2.03.104-4.087.182-6.169.233h-1.406c-2.187-.052-4.451-.13-6.793-.233a11.262 11.262 0 0 0-1.25-.079m126.041-192.189a22.156 22.156 0 0 1 2.579 3.67c.521 1.015 1.04 2.031 1.562 3.046m.936 3.124a16.819 16.819 0 0 1-.391-1.562c-.053-.156-.104-.313-.155-.469m1.015 10.426c.005-.202.031-.397.078-.585.104-1.197.13-2.396.078-3.593m-.781 7.028l.469-1.717m-20.305 29.362l7.966-6.715c.104-.104.234-.209.392-.313a33.47 33.47 0 0 1 1.326-1.562c.26-.365.521-.678.781-.938.522-.677 1.04-1.354 1.563-2.03a1.82 1.82 0 0 1 .39-.625c2.603-3.749 4.764-7.94 6.482-12.573l.937-2.89m-10.933-12.338l-.078-.078a5.272 5.272 0 0 0-.313-.546c-.078-.157-.155-.313-.234-.468m.625 1.092a20.884 20.884 0 0 1 1.717 8.356m-38.109 43.108a88.477 88.477 0 0 0-9.606 12.495m-16.478 55.446v.079c-1.094 21.763-5.544 38.734-13.354 50.917-1.979 3.437-4.92 6.195-8.825 8.277m86.293-169.384c0-.313.027-.625.078-.938m-12.025 21.633c.247-.099.443-.178.586-.234h.038l.078-.156 2.109-1.171a2.51 2.51 0 0 1 .624-.469c5.311-6.716 8.147-12.938 8.512-18.664m-11.947 20.694a158.882 158.882 0 0 0-3.202 2.187m-22.569 30.221l13.197-14.681a.522.522 0 0 1 .234-.235 31.601 31.601 0 0 1 1.952-1.795c.468-.209.964-.391 1.484-.547a51.99 51.99 0 0 0 7.105-3.28l1.407-.781m.704-.391l.079-.04m.468-.35h.078m-.545.351c.129-.09.286-.182.468-.273m-44.046 73.408l-2.89 18.742-.312 1.874m44.201-158.92a57.602 57.602 0 0 0-6.013-2.89m-2.655-1.171a76.336 76.336 0 0 0-10.153-2.812m9.45 13.667l.234.079m-16.868-14.917a100.385 100.385 0 0 0-10.699-.859M150.36 86.41c-3.54-.676-8.435-1.171-14.682-1.483-.364 0-.755.025-1.172.078m-15.774-8.435a50.74 50.74 0 0 0-2.889.234c-.313.052-.599.104-.859.156m45.996 12.73c-1.405-.312-3.435-.963-6.09-1.952-1.095-.469-2.553-.885-4.373-1.25m16.087-5.857c.833.364 1.691.729 2.576 1.093l.079.079m-19.992-5.155c1.562.157 3.124.365 4.686.625.781.208 1.614.39 2.499.546m4.528 11.871c.418.104.757.156 1.016.156a67.493 67.493 0 0 1 3.905 1.64m1.875 54.353l-1.563 1.249-10.074 8.747a83.552 83.552 0 0 0-4.764 4.842m-10.386 13.667l-9.449 19.367c-1.822 4.946-3.254 10.126-4.295 15.541a125.51 125.51 0 0 0-1.718 11.323v2.421a199.156 199.156 0 0 1-.234 5.622m11.167-22.49c-.833 4.009-1.328 8.174-1.483 12.495l-.703 4.373m-5.78 37.095l-.312 1.797-1.172 7.652a6.95 6.95 0 0 0-.469 1.171l-3.826 7.809a4.122 4.122 0 0 0-.391.626m-.155.233a.13.13 0 0 0-.039.08m6.364-19.368l2.578-16.479m-44.436 56.384h.078m6.794-1.094l9.45-2.343m1.796-.546l.702-.312.625-.313c.156-.104.312-.181.468-.232a2.94 2.94 0 0 1 .781-.548l13.979-13.899c.155-.313.338-.572.546-.781.087-.176.178-.331.274-.468m-19.171 17.1c.312-.104.65-.208 1.015-.311.104-.053.234-.104.391-.157m-39.281-3.747c-.625-.053-1.302-.104-2.031-.158a110.67 110.67 0 0 0-13.432 1.407m-20.93 6.325a91.422 91.422 0 0 0-9.996 5.311m138.304 31.783a9.297 9.297 0 0 1-1.093.391l-2.89.78m-9.761 2.343l-20.227 5.075m-84.185-48.963l-6.872 2.108m-17.414 9.216a64.438 64.438 0 0 0-4.061 2.889c-6.56 14.734-5.675 26.864 2.655 36.392m4.685-27.724c.885-1.302 2.03-2.553 3.436-3.748m-3.982 12.495c.156.678.364 1.379.625 2.108.084.127.149.27.195.43m19.094 29.636a209.99 209.99 0 0 1-7.419-1.563c-6.144-2.811-11.09-6.065-14.838-9.762m22.53 11.325c.197.004.366.03.508.077m106.988-10.542c7.602-2.029 14.785-4.19 21.555-6.48m-75.44 18.898c2.291-.417 4.555-.858 6.794-1.327m-36.001 2.497c6.196.364 12.104.391 17.727.078m-41.624-3.123c6.716 1.249 13.172 2.161 19.367 2.733m134.4-22.179c3.021.573 6.117 1.458 9.293 2.655m66.067 13.276c-.886.052-1.718.132-2.499.235-5.311.624-10.413.885-15.306.781-5.207-.104-10.231-.6-15.073-1.484a103.581 103.581 0 0 1-7.184-1.64c-.43-.077-.859-.169-1.288-.272m-6.13-2.148a74.431 74.431 0 0 1-10.465-5.076 369.82 369.82 0 0 1-1.094-.547 6.118 6.118 0 0 0-1.327-.624m-24.053-5.936a39.086 39.086 0 0 1 6.482.39c1.195.052 2.057.184 2.576.391m-45.84-160.561a82.119 82.119 0 0 0-9.449 25.615m37.797-64.74l-1.093.703"/></svg>