<?xml version="1.0" encoding="UTF-8" standalone="no"?>
<svg id="svg4707" xmlns:inkscape="http://www.inkscape.org/namespaces/inkscape" xmlns:rdf="http://www.w3.org/1999/02/22-rdf-syntax-ns#" xmlns="http://www.w3.org/2000/svg" sodipodi:docname="sun.svg" viewBox="0 0 111 111.45" version="1.1" xmlns:cc="http://creativecommons.org/ns#" xmlns:dc="http://purl.org/dc/elements/1.1/" inkscape:version="0.48.2 r9819" xmlns:sodipodi="http://sodipodi.sourceforge.net/DTD/sodipodi-0.dtd">
 <metadata id="metadata4719">
  <rdf:RDF>
   <cc:Work rdf:about="">
    <dc:format>image/svg+xml</dc:format>
    <dc:type rdf:resource="http://purl.org/dc/dcmitype/StillImage"/>
    <dc:title/>
   </cc:Work>
  </rdf:RDF>
 </metadata>
 <sodipodi:namedview id="namedview4715" bordercolor="#666666" inkscape:pageshadow="2" guidetolerance="10" pagecolor="#ffffff" gridtolerance="10" inkscape:window-maximized="0" inkscape:zoom="2.1175416" objecttolerance="10" borderopacity="1" inkscape:current-layer="svg4707" inkscape:cx="55.5" inkscape:cy="55.724998" inkscape:window-y="0" inkscape:window-x="0" inkscape:window-width="640" showgrid="false" inkscape:pageopacity="0" inkscape:window-height="480"/>
 <g id="g4709" transform="matrix(1.0, 0.0, 0.0, 1.0, -6.25, 58.2)">
  <path id="path4711" stroke="none" fill-rule="evenodd" d="M34-27.8q10.75-10.7,26-10.7,15.15,0,25.9,10.7,10.75,10.75,10.75,25.95t-10.75,25.85q-10.75,10.8-25.9,10.8-15.25,0-26-10.8-10.7-10.65-10.7-25.85t10.7-25.95" fill="#f2cc31"/>
  <path id="path4713" stroke-linejoin="round" d="M23.25-21.5l-13-7.9m23.75,1.6q10.75-10.7,26-10.7,15.15,0,25.9,10.7,10.75,10.75,10.75,25.95t-10.75,25.85q-10.75,10.8-25.9,10.8-15.25,0-26-10.8-10.7-10.65-10.7-25.85t10.7-25.95m17.2-16l-2.85-13.4m54.8,51.95l13.1-0.8m-25.65-26.6l9.8-9.3m-6,66.3l10.65,6.15m-85.45-19.85l-12.35,5.65m30.45,18.15l-8.05,11.3m40.35-6.1l3.95,12.6" stroke="#f9a200" stroke-linecap="round" stroke-width="2.0" fill="none"/>
 </g>
</svg>
