<svg xmlns="http://www.w3.org/2000/svg" width="900" height="450" viewBox="0 0 900 450"><g><path fill="#5171ED" d="M570.294 276.34h-.485c-19.887 2.01-31.933 3.304-36.144 3.886-.712.131-1.425.26-2.137.39 12.955-1.49 23.965-2.235 33.033-2.235 6.154 0 11.141.52 14.963 1.556l2.525-.585c.647.261 1.068.714 1.262 1.361a2.478 2.478 0 0 0-.582.292c.842.324 1.618.712 2.332 1.165 4.208 2.396 8.451 3.596 12.727 3.596 6.219 0 12.565-.648 19.042-1.943 2.398-.455 6.058-1.199 10.979-2.235l-.097-.097c-.518-.972-.777-1.878-.777-2.721 0-1.036.681-2.169 2.039-3.4-1.101.066-2.201.131-3.302.195 0 .517-.034.809-.099.873-.193.064-.322.163-.387.292h-6.899c-2.526.649-5.44 1.294-8.744 1.943a1.231 1.231 0 0 0-.486.292c-5.374 3.562-8.193 5.408-8.451 5.537-.519-.193-.939-.453-1.264-.778 1.036-1.229 2.3-2.493 3.789-3.787-6.283 1.358-9.684 2.04-10.201 2.04-2.268 0-3.82-.907-4.663-2.722a144.245 144.245 0 0 0-.292-2.233 266.753 266.753 0 0 1-6.022-.195 391.431 391.431 0 0 1-11.659-.487m-121.446 9.716l-.681 2.525c.258.061.517.127.778.195 10.105 2.654 25.68 3.983 46.732 3.983 6.479 0 12.598-.098 18.362-.293a12.864 12.864 0 0 1-2.525-1.65c-2.915-2.332-4.406-3.497-4.471-3.497-2.72 0-6.994.29-12.824.874-5.246.647-7.936.972-8.064.972-4.08 0-8.581-.389-13.503-1.167-1.492-.26-2.979-.518-4.471-.775-5.829-1.167-9.359-2.106-10.589-2.818v-.485c-5.183.193-9.781.29-13.797.29h-.193c2.396.971 4.145 1.585 5.246 1.846m-98.808-8.648c0-.064-.032-.129-.097-.193 2.656-1.295 5.992-2.43 10.007-3.401-2.072-.258-4.34-.55-6.801-.874-4.34-.519-8.063-.939-11.173-1.263-1.684 1.23-3.011 1.845-3.983 1.845-2.073 0-4.437-.646-7.092-1.943-4.47-.064-8.971-.097-13.505-.097-6.477.39-13.213 1.068-20.208 2.04-2.527.39-4.988.714-7.385.972 7.838 2.398 22.379 3.596 43.624 3.596 1.733 0 3.482-.032 5.247-.097 3.674-.086 7.463-.281 11.366-.585m119.502 6.996c6.801 1.165 12.34 1.748 16.613 1.748.972 0 5.344-.388 13.116-1.165l1.556-.194.68-.099c2.721-.387 5.571-.808 8.551-1.262 1.438-.22 2.861-.446 4.273-.681 2.338-.3 4.638-.593 6.899-.873 4.015-2.139 6.994-3.4 8.938-3.79.453-.066 8.551-.939 24.289-2.624a150.131 150.131 0 0 0-5.052-.097c-8.356 0-20.467.778-36.337 2.332-4.924.453-9.747.843-14.477 1.165 1.361.129 3.078.26 5.15.389 5.505.454 8.774.811 9.813 1.068l.485.972c-.324.195-.421.521-.292.972.131.129-.55.228-2.04.292-1.294.064-13.438.097-36.434.097-3.757.325-7.318.617-10.687.875 1.362.194 3.013.487 4.956.875m195.381-8.161a16.888 16.888 0 0 0-1.358-1.555 44.563 44.563 0 0 0-3.014-.097 64.578 64.578 0 0 1-1.554 2.233c1.942-.192 3.918-.387 5.926-.581m-216.949-3.4a43 43 0 0 1-2.915-.098v.194c11.205.582 19.01.874 23.414.874 11.853 0 23.933-.453 36.24-1.36a6252.173 6252.173 0 0 0-50.231-.389l-.29.389c-.648.26-2.72.39-6.218.39z"/><path fill="#849AF2" fill-opacity=".702" d="M571.752 274.785v1.069c-.261 0-.422.097-.486.293-.52.064-1.006.129-1.457.193h.485c3.814.218 7.7.379 11.659.485 2.002.088 4.01.152 6.022.195a.761.761 0 0 1-.097-.292h-3.304c-4.534-1.036-8.807-1.684-12.822-1.943m-135.826 11.173a70.582 70.582 0 0 0-2.234-.292c-5.892-.711-13.631-1.068-23.221-1.068-8.809 0-19.237.553-31.285 1.653-2.59.258-5.051.485-7.383.679 4.988 1.426 8.517 3.173 10.59 5.247 11.529-.907 21.018-1.36 28.467-1.36 4.533 0 8.68.097 12.436.292 4.793.129 8.906.421 12.339.873 2.655.52 6.153 1.296 10.493 2.332.712.195 1.457.421 2.234.682 10.232 3.043 25.876 4.565 46.926 4.565h3.497c17.878-.129 32.775-1.165 44.692-3.108 3.044-.585 6.771-1.296 11.173-2.139.141-.002.302-.036.486-.097 3.628-.649 6.771-.972 9.425-.972 1.296 0 3.304.322 6.023.972a.916.916 0 0 0 .389.097c4.793 1.103 7.708 1.814 8.744 2.139 1.101.258 2.235.485 3.4.68 7.708 1.36 16.159 2.171 25.357 2.429h5.539c8.744 0 24.871-1.621 48.383-4.858.907-.129 1.813-.258 2.721-.389 22.021-2.654 37.923-3.983 47.703-3.983 2.851 0 5.44.064 7.772.194v-6.217c-2.396-.129-5.149-.195-8.258-.195-5.247 0-12.209.389-20.889 1.167 12.565.582 19.496 1.423 20.792 2.525 0 .905-.422 1.555-1.264 1.943-3.304-1.296-10.006-2.169-20.11-2.624-7.773-.13-12.631-.227-14.574-.291-4.275.519-8.811 1.068-13.602 1.651-1.555.195-3.046.389-4.469.582l-1.167.195c-8.032 1.619-15.835 2.43-23.414 2.43h-.39c-8.097.711-14.442 1.068-19.042 1.068-13.084 0-24.225-.907-33.422-2.722-4.211-.972-7.126-1.65-8.744-2.04-2.72-.518-5.084-.775-7.092-.775-1.101 0-2.3.064-3.596.193a857.785 857.785 0 0 1-12.145 2.622c-13.991 2.851-23.251 4.275-27.786 4.275-2.656 0-5.116-.615-7.384-1.847-5.765.195-11.884.293-18.362.293-21.052 0-36.627-1.329-46.732-3.983-.261-.068-.52-.135-.778-.195-5.074-1.317-9.154-2.19-12.238-2.623m117.366-14.767a5.155 5.155 0 0 1 1.165-1.75 144.006 144.006 0 0 0-5.052-.097c-1.101 0-2.235.032-3.4.097 2.266.455 4.695 1.037 7.287 1.75m72.381 3.691V275.564c1.101-.064 2.201-.129 3.302-.195.778-.712 1.718-1.425 2.818-2.137-2.072.518-4.08 1.068-6.023 1.65h-.097m-47.316-1.747c2.525.258 3.982.421 4.372.485.324.064 2.202.161 5.636.291.582-1.232 1.683-2.203 3.304-2.915a484.622 484.622 0 0 1-16.906-.68c-6.672.583-12.791 1.165-18.362 1.748 1.294.324 2.622.681 3.982 1.07l.486.972c-.064.129-.097.356-.097.679 2.396-.322 4.857-.614 7.383-.874a1.737 1.737 0 0 1-.193-.776c0-.324.032-.746.097-1.264.323-.129.778-.097 1.36.097.583.131 1.036.356 1.361.681 2.201.064 4.729.226 7.577.486m116.977-3.694c-.194.194-.39.357-.583.486a4.851 4.851 0 0 1-1.653 1.068c6.931-.324 13.474-.486 19.627-.486a566.974 566.974 0 0 1-5.926-2.137 10.66 10.66 0 0 1-.682-.195c-2.332.325-4.986.649-7.966.972-.971.129-1.911.228-2.817.292m1.068-4.274a8.51 8.51 0 0 1-.875.777c.064.064.163.129.292.194.972-.13 1.976-.227 3.012-.291-.972-.324-1.782-.549-2.429-.68m24.192-.776h-1.068c.194.193.325.421.39.68-.843.582-2.786 1.199-5.829 1.846a276.688 276.688 0 0 0 4.565 3.4v.097h1.942v-6.023m-7.093 0c-.843 0-1.716.03-2.622.097.129.064.228.129.292.193a37.964 37.964 0 0 1 2.33-.29m-29.048 6.022a166.5 166.5 0 0 0-2.332.194V271.481c1.618-.064 3.205-.129 4.761-.193a13.747 13.747 0 0 1-2.429-.875m-22.542 2.235l-.097.097h.193l-.096-.097m-480.145-4.857v6.217c9.262-.712 18.201-1.068 26.814-1.068 3.433 0 6.639.066 9.619.195.971-.649 3.821-1.458 8.549-2.429 4.793-1.036 9.132-1.653 13.019-1.847a45.387 45.387 0 0 0-2.623-.486c-6.348-1.102-15.707-1.652-28.079-1.652-9.325 0-18.426.356-27.299 1.07m93.756 8.063c4.599-.324 9.359-.775 14.281-1.36a162.35 162.35 0 0 0 7.385-.972c6.995-.972 13.731-1.65 20.208-2.04 4.275-.26 8.453-.419 12.534-.485-1.491-.776-3.077-1.782-4.761-3.012a125.504 125.504 0 0 1-3.691-2.817c-3.563.195-7.19.485-10.882.874-.712.454-1.49.972-2.332 1.555-.583-.193-1.036-.454-1.359-.776.129-.195.259-.356.388-.485a225.29 225.29 0 0 0-9.327 1.165c-6.995.972-13.699 1.685-20.111 2.137-2.72 1.942-5.765 4.113-9.132 6.511 2.2-.069 4.466-.165 6.799-.295m-3.693-5.926c-3.044.064-6.023.097-8.938.097-7.385 0-13.732-.226-19.043-.68l.195.291c-1.166.648-2.559 1.231-4.178 1.749 2.461-.322 3.918-.485 4.372-.485l.291.193c.13.129.195.485.195 1.07 0 .647-.032.972-.098.972a.579.579 0 0 0-.388.387c-3.368.324-6.445.649-9.23.972.259 0 .518.034.777.099 6.412 1.036 15.286 1.555 26.621 1.555h2.137c2.009-1.816 4.438-3.888 7.287-6.22m71.119 43.817c2.138-.39 4.307-.776 6.509-1.165 15.027-2.915 25.714-4.372 32.062-4.372 7.449 0 17.812 1.554 31.09 4.662 1.749.389 3.465.778 5.149 1.167 11.141 2.268 21.18 3.4 30.119 3.4 8.549 0 17.747-.907 27.591-2.721 9.911-1.877 18.104-2.818 24.582-2.818 1.165 0 2.914.52 5.246 1.556 1.426.647 3.951 1.879 7.577 3.691 8.033 3.497 16.581 5.246 25.65 5.246 6.347 0 11.755-.163 16.226-.485 2.525-.258 4.729-.551 6.605-.875 5.312-.972 9.361-1.457 12.145-1.457 1.49 0 4.891.778 10.201 2.332 5.376 1.686 10.462 2.525 15.255 2.525 5.374 0 12.502-1.036 21.375-3.108 8.873-1.942 16.03-2.914 21.471-2.914 4.598 0 9.877.55 15.835 1.65a94.811 94.811 0 0 0 9.036 1.264c2.657.261 5.247.39 7.773.39 5.571 0 13.602-1.006 24.095-3.014a538.645 538.645 0 0 0 14.961-3.205h7.093v-8.161h-5.439c-.261 0-5.441 1.101-15.546 3.304-10.169 2.137-18.362 3.205-24.581 3.205-5.698 0-11.433-.486-17.195-1.458-5.766-1.358-11.109-2.039-16.031-2.039-4.533 0-11.854 1.037-21.957 3.109-10.171 2.008-16.841 3.012-20.016 3.012-5.052 0-9.746-.811-14.088-2.429-4.338-1.555-8.322-2.332-11.949-2.332-1.683 0-5.214.485-10.59 1.457-5.312.907-13.537 1.36-24.678 1.36-7.902 0-15.414-1.717-22.54-5.149-7.125-3.498-13.602-5.247-19.431-5.247-3.369 0-10.754.907-22.153 2.721-11.463 1.75-20.306 2.623-26.523 2.623-9.975 0-22.378-1.78-37.211-5.344-13.602-3.237-26.232-4.469-37.891-3.69-5.894 1.618-12.436 3.14-19.626 4.565-14.184 2.525-30.604 3.789-49.258 3.789h-5.051c-5.377-.129-13.149-.322-23.317-.582-12.696-.39-28.824-.907-48.385-1.555-10.104 0-18.978 1.423-26.62 4.273-.454.129-3.045 1.101-7.772 2.915-2.591 1.101-4.761 1.749-6.51 1.943-1.49.324-2.979.614-4.469.874v7.968c5.894-.971 11.075-2.17 15.545-3.596a427.377 427.377 0 0 1 6.509-2.233c2.98-.972 5.343-1.685 7.093-2.139 4.857-1.425 10.233-2.137 16.127-2.137 19.625.647 35.786 1.165 48.481 1.555 13.925.453 23.252.679 27.98.679a259.407 259.407 0 0 0 39.446-3.01m37.017-44.789a.867.867 0 0 0 .097-.389 433.19 433.19 0 0 0-8.064-.68 2.16 2.16 0 0 0-.098.68c0 .066.065.097.195.097 2.332.648 4.048 1.296 5.149 1.943 1.102-.194 2.3-.357 3.595-.486-.713-.258-1.004-.646-.874-1.165m4.663 6.898a7.147 7.147 0 0 1-.098-1.165v-3.012c-3.044.712-7.546 1.684-13.504 2.915v.388c.323 0 .647.034.971.099 1.943.129 3.498.226 4.664.29 1.231.066 3.886.225 7.967.485m-26.232 12.339l.486.972c-.259.843-1.102 1.263-2.527 1.263-2.785 0-5.991-.841-9.618-2.526-14.638-.129-26.265-1.036-34.88-2.721h-3.788a6.862 6.862 0 0 1-.292-.873c-3.174-.778-5.667-1.296-7.48-1.556-3.563-.647-7.676-.972-12.339-.972-2.656 0-6.801.292-12.436.874-.972.066-1.977.162-3.013.293-5.246.389-11.529.972-18.848 1.747-17.036 1.879-30.281 3.11-39.737 3.693-1.554.064-3.011.129-4.372.193a5209.54 5209.54 0 0 1-27.786 1.167v7.286c9.457-.777 19.819-1.683 31.09-2.721 2.59-.193 5.213-.389 7.869-.583 18.33-1.554 36.596-3.077 54.797-4.565 3.108-.324 6.185-.614 9.229-.874 1.231-.132 2.429-.261 3.594-.39 4.664 0 8.517.323 11.562.972 1.749.389 4.308 1.068 7.676 2.04.583.131 1.198.292 1.845.485 8.226 1.814 21.893 2.722 41 2.722 6.866 0 16.452-.553 28.758-1.653a599.411 599.411 0 0 1-4.469-2.914c-1.684-1.165-4.372-1.909-8.063-2.233-3.627.193-6.963.354-10.007.485.647.13 1.231.26 1.749.389m-1.263-21.374c-.712-.064-1.393-.129-2.041-.195.13.131.227.195.291.195h1.75m-7.19.487c-1.878 0-4.016 1.035-6.412 3.107a42.3 42.3 0 0 0-1.555 1.264c3.109.323 6.833.744 11.173 1.263 2.461.324 4.729.616 6.801.874 2.461-.648 5.149-1.229 8.063-1.749v-.097c-.841-.193-1.554-.42-2.137-.68-2.396-1.103-5.279-1.652-8.647-1.652-1.879 0-3.336-.388-4.372-1.165-.971-.779-1.942-1.165-2.914-1.165m-3.983-1.362c-9.133-.711-13.764-1.068-13.894-1.068-1.877 0-3.756.03-5.635.097.324.261.68.519 1.069.776 4.469 3.239 7.869 4.858 10.201 4.858.583 0 2.461-1.036 5.635-3.108a24.915 24.915 0 0 1 2.624-1.555m99.1 6.995a22.364 22.364 0 0 0-.875 2.914c1.295-.129 2.559-.26 3.79-.389h4.663l.292.195c.129.129.193.486.193 1.068 0 .649-.03.972-.097.972a.583.583 0 0 0-.389.389c-8.355.39-14.735.712-19.139.972 3.433.129 6.769.26 10.007.39 5.765.064 12.662.097 20.694.097l30.314-.875c.711 0 2.071.064 4.079.193 4.729-.322 9.553-.712 14.477-1.165 15.87-1.554 27.98-2.332 36.337-2.332 1.488 0 3.173.032 5.052.097.778-.129 1.62-.226 2.525-.29-2.137-.39-5.408-1.103-9.813-2.139-6.801-1.555-12.986-2.266-18.557-2.137v-.097l-3.982-.195c-3.563.324-7.352.681-11.368 1.069l-8.549.776c-12.308.907-24.388 1.36-36.24 1.36-4.405.001-12.209-.291-23.414-.873m-17.101-1.068c-5.505-.323-11.497-.714-17.974-1.165-1.295.129-2.72.193-4.274.193h-2.623a241.534 241.534 0 0 0-14.671 2.525v2.722c5.312.389 12.339.904 21.083 1.554a20.606 20.606 0 0 1-3.206-.972c-2.979-1.165-4.469-2.429-4.469-3.789l.194-.776c1.62-.324 4.275.614 7.967 2.816 6.348 1.813 16.874 2.17 31.576 1.069 0-.648.454-1.717 1.361-3.206-4.471-.322-9.458-.649-14.964-.971z"/><path fill="#93A6F4" d="M448.653 265.362a12.1 12.1 0 0 0-.972.873c-2.267.906-4.047 1.977-5.343 3.206-2.008-.322-3.756-.777-5.246-1.36-2.786-1.101-6.347-1.618-10.687-1.554v-1.36c-.064-2.784.129-4.792.583-6.023.777-2.332 1.166-4.793 1.166-7.384 0-.777-.097-1.328-.292-1.652-.194-.26-.518-.485-.971-.68-.712.194-1.458 2.363-2.234 6.509-.648 3.693-.972 6.412-.972 8.162V266.528c-.907.064-1.782.097-2.624.097-1.814.195-3.53.356-5.149.485l-.875-.097c-.323 0-5.052.259-14.184.778-5.183.322-9.328.258-12.437-.195a42.487 42.487 0 0 0-.291-3.012c-.454-3.433-1.231-6.315-2.332-8.647-.648.907-1.037 2.526-1.166 4.858-.064.518-.098 1.781-.098 3.789v2.429c-1.943-.258-3.076-.421-3.4-.485-.324-.064-.679.193-1.068.778.13.258.13.679 0 1.262 0 .131-.032.26-.097.389-.13.519.161.907.874 1.165a48.543 48.543 0 0 0-3.595.486c-1.101-.647-2.817-1.295-5.149-1.943-.129 0-.195-.03-.195-.097 0-.261.033-.486.098-.68.195-1.489.324-2.654.388-3.497v-.972c0-.778-.129-1.231-.388-1.36-.389-.066-.712-.161-.971-.292-.648.453-1.199 1.296-1.652 2.525-.389.907-.681 2.008-.875 3.304-2.461-.647-3.951-1.068-4.469-1.262-.454-.129-1.425-.129-2.915 0-1.49.193-2.818.356-3.983.485h-1.75c-.064 0-.161-.064-.291-.195-.324-.193-.712-.519-1.166-.972-.906-.841-2.137-1.262-3.692-1.262-.972 0-2.396.516-4.274 1.554-.778.39-1.652.905-2.624 1.555-3.173 2.072-5.052 3.108-5.635 3.108-2.332 0-5.732-1.619-10.201-4.858a14.608 14.608 0 0 1-1.069-.776 171.589 171.589 0 0 0-1.845-1.457 47.656 47.656 0 0 1-3.013-2.525 9.94 9.94 0 0 1-1.166-1.167c0 .582-.324 1.068-.972 1.457l-.972.583c0 .129.033.26.098.389.129.26.454.647.972 1.167.454.517 1.101 1.101 1.943 1.748.972.777 2.202 1.717 3.691 2.817 1.685 1.229 3.271 2.235 4.761 3.012.324.195.647.389.972.582 2.656 1.297 5.019 1.943 7.092 1.943.972 0 2.299-.614 3.983-1.845.454-.389.972-.81 1.555-1.264 2.396-2.072 4.533-3.107 6.412-3.107.972 0 1.943.387 2.915 1.165 1.036.777 2.493 1.165 4.372 1.165 3.368 0 6.25.55 8.647 1.652.583.26 1.295.486 2.137.68v.097c-2.915.52-5.603 1.101-8.063 1.749-4.016.972-7.352 2.106-10.007 3.401.065.064.097.129.097.193.065.129.098.26.098.389.064.195.421.292 1.068.292a953.332 953.332 0 0 0 10.396-1.846c.259-.064.551-.097.875-.097h.097c1.813-.325 3.563-.647 5.247-.972v2.429c0 1.425.453 2.654 1.359 3.69.389-.064.811-.258 1.263-.582 0-1.361.162-3.205.486-5.537 0-.131.033-.195.098-.195v-.388c5.958-1.231 10.46-2.203 13.504-2.915v3.012c0 .39.033.776.098 1.165.324 4.533 1.133 6.801 2.429 6.801 1.101 0 1.425-.161.971-.485.064-.064.162-.097.292-.097.064.064.097-.228.097-.875v-5.051-2.722a241.8 241.8 0 0 1 14.671-2.525h2.623c1.554 0 2.979-.064 4.274-.193a37.769 37.769 0 0 0 4.178-.778l.972-.193c3.173-.26 6.186-.39 9.036-.39.323.647.777.972 1.359.972 1.102 0 1.425-.161.972-.485v-.39c4.858 0 8.647.551 11.368 1.651.777.324 1.587.615 2.429.875.842.195 1.749.389 2.72.582-.064.064-.097.163-.097.293-.907 1.489-1.361 2.558-1.361 3.206-14.702 1.101-25.228.744-31.576-1.069-3.691-2.202-6.347-3.141-7.967-2.816l-.194.776c0 1.36 1.49 2.624 4.469 3.789.971.389 2.04.714 3.206.972 1.684.453 3.595.809 5.733 1.068 3.544 2.67 9.729 4.354 18.556 5.053 2.991.243 6.261.372 9.813.388h.193c4.017 0 8.615-.097 13.797-.29v.485c1.229.712 4.76 1.651 10.589 2.818l4.471.775c4.922.778 9.423 1.167 13.503 1.167.129 0 2.818-.324 8.064-.972 5.83-.584 10.104-.874 12.824-.874.064 0 1.556 1.165 4.471 3.497a12.864 12.864 0 0 0 2.525 1.65c2.268 1.231 4.728 1.847 7.384 1.847 4.535 0 13.795-1.425 27.786-4.275 4.34-.907 8.39-1.78 12.145-2.622 9.004-2.201 16.128-4.34 21.375-6.412.195-.131.389-.226.582-.292-.193-.647-.614-1.101-1.262-1.361l-2.525.585c-34.654 7.644-53.922 11.463-57.809 11.463-4.275 0-7.611-1.133-10.008-3.4-2.332-2.332-5.085-3.497-8.258-3.497a97.9 97.9 0 0 0-1.943.193l-.68.099-1.556.194c-7.772.777-12.145 1.165-13.116 1.165-4.273 0-9.813-.583-16.613-1.748-1.943-.389-3.594-.682-4.954-.875 3.368-.258 6.93-.55 10.687-.875 22.995 0 35.14-.032 36.434-.097 1.49-.064 2.171-.163 2.04-.292-.129-.451-.032-.776.292-.972l-.485-.972c-1.038-.258-4.308-.614-9.813-1.068a164.28 164.28 0 0 1-5.15-.389c-2.008-.129-3.368-.193-4.079-.193l-30.314.875c-8.032 0-14.929-.032-20.694-.097a942.02 942.02 0 0 0-12.145-.1 23.045 23.045 0 0 0-1.749-.097c.396-.007.85-.039 1.36-.097a28.674 28.674 0 0 1 2.526-.097c4.404-.26 10.784-.582 19.139-.972a.583.583 0 0 1 .389-.389c.066 0 .097-.322.097-.972 0-.582-.064-.939-.193-1.068l-.292-.195h-4.663c-1.23.129-2.495.26-3.79.389.259-1.101.55-2.072.875-2.914v-.194c.971.065 1.943.098 2.915.098 3.498 0 5.57-.13 6.218-.39l.29-.389.583-1.165c-.193-.583-.615-1.004-1.262-1.264-2.592.129-4.956.195-7.093.195 4.339-1.555 10.427-2.981 18.266-4.275a61.405 61.405 0 0 1 3.886-.68 933.166 933.166 0 0 1 15.156-2.527c-1.165.778-2.04 1.847-2.622 3.207l.097.097c.324.26.712.486 1.165.682.195-.064 1.068-.293 2.624-.682.193-.064.452-.129.776-.193 1.814-.454 3.012-.682 3.596-.682 1.229 0 3.497.325 6.801.972 2.526.521 5.667 1.199 9.424 2.042 1.036.193 2.04.451 3.012.776 0 .646.066 1.004.195 1.068h1.165c.389-.129.648-.227.778-.291l.193-.389c4.275.778 8.744 1.328 13.408 1.651l3.982.195v.097c5.57-.129 11.756.582 18.557 2.137 4.404 1.036 7.676 1.749 9.813 2.139-.905.064-1.747.161-2.525.29-15.738 1.685-23.836 2.558-24.289 2.624-1.943.39-4.923 1.651-8.938 3.79a67.087 67.087 0 0 0-4.567 2.525c.324.324.745.583 1.264.776 4.791-2.201 9.326-3.724 13.602-4.565.712-.13 1.425-.259 2.137-.39 4.211-.582 16.257-1.876 36.144-3.886.451-.064.938-.129 1.457-.193.064-.196.226-.293.486-.293v-1.069c4.015.259 8.288.907 12.823 1.943h22.929l-.097.097a62.013 62.013 0 0 0-4.275 3.11c-1.489 1.294-2.753 2.558-3.789 3.787.324.325.745.585 1.264.778.258-.129 3.077-1.976 8.451-5.537.13-.129.293-.228.486-.292 1.101-.714 2.139-1.36 3.11-1.943H625.187c.064-.129.193-.228.387-.292.064-.064.099-.356.099-.873v-.099-.583c-.064-.324-.163-.518-.292-.582l-.193-.193h-2.139c-.972-3.951-4.791-3.951-11.463 0a38.657 38.657 0 0 0-2.722-.099c4.664-1.684 8.291-3.044 10.881-4.08 3.11-1.294 4.664-2.072 4.664-2.332 0-.519-.129-.972-.389-1.36h-.097a2.485 2.485 0 0 0-.583-.583c-.324-.26-.745-.453-1.264-.582-.972-.259-2.268-.293-3.886-.098-1.877.13-4.211.519-6.995 1.166a.854.854 0 0 1-.389.097c-2.592.648-4.761 1.296-6.509 1.942-2.203.907-3.821 1.847-4.857 2.818-.907.843-1.361 1.683-1.361 2.525v.486a639.882 639.882 0 0 0-9.715-.097c-3.434-.13-5.312-.227-5.636-.291-.39-.064-1.847-.228-4.372-.485-2.849-.26-5.376-.422-7.577-.486-.325-.324-.778-.55-1.361-.681-.582-.193-1.037-.226-1.36-.097-.064.518-.097.939-.097 1.264 0 .258.064.516.193.776-2.525.26-4.986.552-7.383.874 0-.322.032-.55.097-.679l-.486-.972c-1.36-.39-2.688-.746-3.982-1.07 5.571-.583 11.69-1.165 18.362-1.748 2.655-.26 5.408-.485 8.259-.681 6.605-.583 9.909-1.458 9.909-2.623v-.777c-.064-.194-.129-.291-.193-.291l-.293.097a7.68 7.68 0 0 0-2.719-.097c-.324 0-1.101.097-2.332.291h-.195a3.036 3.036 0 0 0-.68.099c-1.229.193-6.573.485-16.031.872-9.262.325-13.958.521-14.087.585-.649.193-1.295.712-1.943 1.554v.097a5.155 5.155 0 0 0-1.165 1.75 105.838 105.838 0 0 0-7.287-1.75c-3.886-.906-7.222-1.489-10.008-1.749-2.85-.258-4.89-.161-6.121.292a764.317 764.317 0 0 1-12.631-2.04c-1.358-.26-2.751-.518-4.177-.777 2.397-4.923 3.595-7.547 3.595-7.87 0-.713-.129-1.101-.39-1.165a2.58 2.58 0 0 1-.971-.195c-1.814.712-3.401 2.915-4.76 6.607-.26.712-.485 1.36-.681 1.943a367.899 367.899 0 0 1-11.659-2.332l-1.165-.193c-4.275-.843-7.482-1.101-9.619-.778l-.097-.389c-4.664-.064-9.197.097-13.602.485-8.162-4.146-15.805-3.433-22.93 2.139a33.114 33.114 0 0 0-2.136 1.947m11.27-2.332c-3.626.646-6.736 1.391-9.326 2.233 3.433-2.526 8.226-3.788 14.38-3.788 1.683 0 3.076.064 4.177.193-3.109.324-6.187.779-9.231 1.362m158.075 11.076c.84-.325 1.521-.486 2.039-.486.129 0 .293.161.486.486h-2.525m-279.228 6.703c-1.134-.072-1.684.413-1.652 1.457v.099c-4.469-.26-9.618-.485-15.447-.681-5.182.195-8.906.518-11.173.971-.519.066-1.491.325-2.915.778 0 .193.064.486.193.875.065.258.162.55.292.873H312.051c9.651-1.036 18.524-1.197 26.621-.486a43.71 43.71 0 0 0 3.011.293c.713.453 1.554 1.003 2.526 1.65.842.455 1.684.875 2.527 1.264 3.627 1.686 6.833 2.526 9.618 2.526 1.425 0 2.268-.42 2.527-1.263l-.486-.972a38.108 38.108 0 0 0-1.749-.389 41.268 41.268 0 0 1-3.499-1.068c.389.064.811.097 1.263.097.842.129 3.919.193 9.229.193 1.037.066 2.041.162 3.013.293 3.691.324 6.379 1.068 8.063 2.233.583.389 2.073 1.36 4.469 2.914a217.02 217.02 0 0 0 2.818 1.847h.194c.457-.008.749-.139.874-.389 0-.323.065-.551.194-.68a6.957 6.957 0 0 0-.874-1.068c-2.073-2.074-5.603-3.821-10.59-5.247-4.728-1.425-10.817-2.558-18.265-3.4-2.332-.258-5.408-.518-9.23-.777a3.824 3.824 0 0 1-.486-.194c-2.248-1.125-3.932-1.707-5.049-1.749m78.502-40.222c-.129-.455-.194-.842-.194-1.167-3.174-.129-5.796 2.883-7.869 9.036-1.49 4.404-2.234 7.838-2.234 10.299 0 .713.097 1.165.291 1.36.064.064.389.193.972.389a3.404 3.404 0 0 0 1.263-.681c.389-1.813 1.814-5.44 4.275-10.881 2.33-5.053 3.496-7.838 3.496-8.355m-49.064-28.662c-.388 0-.712-.064-.971-.195-.972.584-2.299 2.495-3.983 5.733-1.62 3.109-2.429 5.117-2.429 6.024 0 .648.097 1.004.292 1.068.194.065.518.13.971.194 2.979-2.591 5.117-6.478 6.412-11.659 0-.647-.097-1.035-.292-1.165m31.867-6.995c-3.238 2.332-7.643 5.668-13.213 10.008-8.291 6.412-14.184 11.366-17.683 14.864.325.324.745.584 1.263.777a506.101 506.101 0 0 0 15.739-11.464c9.586-7.125 14.379-11.53 14.379-13.214 0-.647-.064-1.004-.193-1.068l-.292.097m-35.85-75.102l-.777-1.166a22.393 22.393 0 0 0-.875-1.458c-1.425 2.073-2.818 4.372-4.177 6.899-2.333 4.145-4.081 7.869-5.247 11.173.259.324.68.615 1.263.874 1.878-2.397 4.405-6.477 7.579-12.241a444.927 444.927 0 0 1 2.234-4.081m31.964 13.116h-.097c-1.554 2.786-3.368 9.101-5.44 18.945-1.943 8.938-2.915 14.379-2.915 16.322 0 .648.064 1.004.193 1.069h1.069c.454-.065.777-.227.972-.486 1.813-8.032 3.271-14.509 4.372-19.431 2.008-9.262 3.011-14.314 3.011-15.157 0-.647-.097-1.036-.291-1.165-.388.001-.679-.031-.874-.097m-13.407-.971a12.382 12.382 0 0 1-3.109-2.72c-1.489 3.368-3.497 8.42-6.023 15.156.324.324.745.616 1.263.875 2.007-2.397 4.63-6.834 7.869-13.311m9.424-47.801c0-.712-.064-1.101-.194-1.166l-.292.097c-1.878 0-4.89 2.655-9.035 7.967a71.122 71.122 0 0 0-2.429 3.109c1.425-.13 2.688-.032 3.789.291a418.057 418.057 0 0 1 2.915-3.498c3.498-4.404 5.246-6.67 5.246-6.8m266.791 68.98c0 .066.745 1.75 2.235 5.053 1.747 3.952 3.043 7.19 3.886 9.715.39 1.166.583 3.724.583 7.676.064 3.368.614 5.797 1.65 7.287.389-.065.811-.259 1.264-.583v-11.755c-1.165-4.599-2.137-8.129-2.914-10.59-1.426-4.533-3.595-7.06-6.509-7.578l-.195.775m-64.026-30.311c-.194-.454-.452-.778-.776-.972-.26.129-.486.291-.682.486.456.129.941.291 1.458.486m-9.424 7.383a9.101 9.101 0 0 1-.68-.194c-.584.648-.906 1.684-.971 3.109-.064.843-.034 1.847.097 3.012 0 .13.193 2.882.582 8.258.649 5.311 1.522 7.967 2.623 7.967 1.036 0 1.36-.162.972-.486 0-.064.064-.097.195-.097.064.064.097-.227.097-.875 0-4.987-.129-8.678-.39-11.075-.453-4.016-1.296-7.222-2.525-9.619m-9.23-2.818v2.138c0 .13.032 1.166.097 3.109.389 1.879 1.197 2.818 2.429 2.818 1.038 0 1.36-.162.972-.485.066-.066.131-.098.195-.098.064.065.097-.227.097-.874 0-.518-.195-1.264-.582-2.235-.456-.906-.682-1.619-.682-2.137 0-.389.097-.811.292-1.264-1.167-.324-2.105-.648-2.818-.972m65.97 5.829v1.458c2.136 1.296 3.69 3.79 4.662 7.481 1.231 4.47 2.268 7.222 3.109 8.258.39-.065.811-.292 1.263-.681-.972-4.663-1.684-8.063-2.137-10.201-.907-3.82-3.206-5.925-6.897-6.315m-28.857-5.245c-1.358 0-2.719-.227-4.079-.68 3.821 2.85 6.25 4.275 7.286 4.275.714 0 1.135-.194 1.264-.583 0-.453.031-.745.098-.874a59.936 59.936 0 0 0-2.722-2.235c-.584.065-1.198.097-1.847.097m-72.769 14.087l.388-.875c-3.302-5.635-5.927-9.942-7.869-12.922-3.627-5.375-6.801-8.517-9.521-9.424.193.195 3.076 4.89 8.646 14.088 4.016 6.413 6.479 9.619 7.385 9.619 1.101 0 1.423-.162.971-.486m-46.441-9.133a805.268 805.268 0 0 0-3.4-9.618c-1.36-3.692-3.011-6.769-4.954-9.229-.519.193-.939.453-1.264.777.842 1.878 2.039 5.117 3.596 9.716 1.554 4.145 3.108 7.351 4.662 9.618.647-.26 1.102-.68 1.36-1.264m150.009 134.464c0-.647-.066-1.002-.195-1.068l-.29-.193c-2.139-.196-3.822.904-5.054 3.304l-.097.097c-.389 1.101-.776 2.039-1.165 2.817-.583 1.294-1.103 2.169-1.554 2.623.322.322.775.614 1.358.874 1.879-.777 3.596-2.332 5.149-4.664.519-.841.939-1.489 1.265-1.943l.29-.582c.197-.584.293-1.005.293-1.265m12.825 11.854l1.167-.195c7.384-1.487 13.082-2.233 17.099-2.233h.972c1.943.064 6.801.161 14.574.291 10.104.455 16.807 1.328 20.11 2.624.842-.389 1.264-1.038 1.264-1.943-1.296-1.103-8.227-1.943-20.792-2.525h-.097c-12.565-.649-18.849-1.006-18.849-1.07a929.497 929.497 0 0 1-14.477 2.624c-7.772 1.296-15.805 1.943-24.094 1.943-1.036 0-2.949-.066-5.732-.195-3.046-.258-4.633-.452-4.762-.583.454-.453.615-.84.486-1.165l-.875-1.652c-1.231-.193-2.137.195-2.719 1.167-.325.646-.486 1.262-.486 1.846 0 .907.387 1.522 1.165 1.845 1.879 1.101 5.959 1.653 12.241 1.653h.39c7.58-.003 15.382-.813 23.415-2.432m-1.458-7.869h-.485c-1.296.129-3.175.227-5.634.291h-2.042v1.457c.26.195 1.264.485 3.014.875 1.683.322 2.944.485 3.787.485 3.951 0 6.802-.518 8.551-1.554.453-.26 1.101-1.004 1.943-2.235-.193-.647-.615-1.101-1.264-1.361a30.04 30.04 0 0 1-7.87 2.042m-5.051-17.587c-.066 0-.097-.03-.097-.097-.39-.389-.907-.775-1.556-1.165-1.424-.777-3.498-1.36-6.217-1.749-1.943-.261-3.563-.291-4.858-.097a26.89 26.89 0 0 1-1.846.485c-1.296.649-1.943 1.78-1.943 3.4 0 .649.064 1.199.193 1.651 0 .129.032.228.097.292.521 1.165 1.492 1.749 2.915 1.749.26 0 1.006.064 2.235.194.582.064 1.264.129 2.04.193 2.461.195 4.567.292 6.315.292 1.037 0 1.878-.322 2.525-.972.129-.129.26-.258.389-.389.131-.193.226-.39.292-.583.13-.258.227-.518.291-.777v-.486c0-.646-.227-1.229-.68-1.747-.063-.064-.095-.13-.095-.194m25.746-16.807v-.097c0-3.37-2.01-4.275-6.024-2.721-.193 0-.356.097-.486.292-1.294.516-2.364 1.133-3.204 1.845a7.098 7.098 0 0 0-.778.681 5.77 5.77 0 0 0-1.555 2.72c-.064.324-.097.777-.097 1.36 0 .066.032.907.097 2.525.454 1.231 1.329 1.978 2.623 2.235a60.39 60.39 0 0 0-6.801 2.332 63.092 63.092 0 0 0-4.76 2.137c-.648.324-1.296.682-1.942 1.068-.325.064-.585.195-.778.39a2.152 2.152 0 0 0-.68.292c0 .129.03.26.097.389 0 .064.032.161.097.29v.098c.064.324.228.745.486 1.264l2.429.292H656.375c.776.907 2.396 1.358 4.858 1.358 2.979 0 5.212-.55 6.704-1.65 1.294-.778 1.942-1.75 1.942-2.915 0-.907-.195-1.62-.584-2.137 2.008-.648 4.016-.972 6.024-.972.064 0 .583.422 1.555 1.262 1.036.778 1.715 1.167 2.04 1.167.646 0 1.004-.129 1.068-.389.064-.131.129-.389.195-.778-.454-4.275-4.34-5.569-11.659-3.886 2.979-2.915 5.084-5.118 6.315-6.605.906-.972 1.392-1.587 1.458-1.847m7.869 4.565a.665.665 0 0 0-.193.486c0 .646.097 1.038.291 1.167l.195.193c1.813.064 3.497.258 5.051.583 1.426.195 2.786.485 4.08.874.064.193.129.357.195.486.193.648.42 1.294.68 1.942h-.097c-2.201.065-3.304.486-3.304 1.265 0 .193.032.387.097.582-1.036-.712-2.46-1.231-4.273-1.554-4.082-.843-6.122.129-6.122 2.914 0 .907.615 1.879 1.847 2.915.905.843 2.04 1.457 3.4 1.845 1.101.324 2.362.485 3.79.485.842 0 1.521-.226 2.039-.679.193-.194.355-.422.486-.68.453-.585.679-1.199.679-1.847 0-1.103-.354-2.01-1.068-2.721 1.101-.26 2.171-.42 3.207-.486.452 1.231.873 2.235 1.263 3.012-.905.324-1.847.649-2.818.972 0 .648.163 1.135.485 1.457.261 0 .551.034.875.099.39.064.875.161 1.458.291.646.131 1.457.356 2.429.681-1.036.064-2.04.161-3.012.291a63.382 63.382 0 0 0-3.497.292c-10.754.972-17.263 2.137-19.528 3.497-3.304.064-5.279.907-5.928 2.525-.129.324-.194.712-.194 1.167 0 .388.033.744.098 1.068.066.583.226 1.036.485 1.36.131.259.324.452.583.583.842.518 2.721.776 5.636.776 2.721 0 4.372-.097 4.954-.291a5.904 5.904 0 0 0 1.068-.681l.292-.29c.13-.261.259-.583.39-.972-.066-.066-.066-.131 0-.195v-.972c0-.972-.293-1.748-.875-2.331a8.771 8.771 0 0 0-.972-.681c1.101-.129 2.364-.26 3.79-.389a166.5 166.5 0 0 1 2.332-.194 388.48 388.48 0 0 1 10.881-.972 46.129 46.129 0 0 0 2.817-.292c2.979-.322 5.634-.646 7.966-.972.195.064.422.129.682.195 1.943.712 3.916 1.426 5.926 2.137.193.066.42.132.68.196a8.226 8.226 0 0 0 2.525.775l.099.097h.971c.712 0 1.165-.161 1.358-.485.13-.193.228-.421.293-.68v-.097a272.505 272.505 0 0 1-4.565-3.4c3.043-.646 4.986-1.264 5.829-1.846a1.43 1.43 0 0 0-.39-.68c-.195-.26-.485-.455-.874-.585-.39.064-2.106.261-5.15.585-.712.064-1.487.161-2.33.29a1.13 1.13 0 0 0-.292-.193c-1.75-1.75-2.623-3.046-2.623-3.887 0-1.36-2.884-2.396-8.647-3.109a26.22 26.22 0 0 0-2.138-.097 14.158 14.158 0 0 1-.291-1.458c.583.195 1.197.454 1.847.778.451.193.938.389 1.457.582a1.22 1.22 0 0 0-.292-.485 222.155 222.155 0 0 0-1.165-2.622 67.606 67.606 0 0 1-2.527-.778c-.972-3.692-2.526-5.765-4.663-6.219l-.097 1.068c0 .39.356 1.782 1.068 4.179-1.231-.389-2.169-.68-2.817-.875-3.37-.9-5.313-.9-5.832.005m14.185 10.203a26.638 26.638 0 0 0-.485-2.43c3.045.066 5.604.778 7.676 2.139-1.491-.649-3.888-.55-7.191.291m-72.575 7.772a1.07 1.07 0 0 0-.097.485c0 .712.097 1.133.291 1.264.195.064.518.161.972.29h3.886c.583-.193 1.004-.679 1.264-1.457-.26-.387-.485-.712-.681-.972-1.036-1.229-2.169-1.747-3.4-1.554-1.36.196-2.106.843-2.235 1.944m-427.196 7.19c0 .649.064 1.036.195 1.165l.291.195h6.51c2.72-.646 6.412-1.231 11.075-1.749 3.045-.325 9.166-.939 18.363-1.847 2.785-.322 5.862-.647 9.23-.972a.583.583 0 0 1 .388-.387c.065 0 .098-.324.098-.972 0-.585-.064-.941-.195-1.07l-.291-.193c-.454 0-1.911.163-4.372.485 1.619-.518 3.012-1.101 4.178-1.749l-.195-.291-.291-.681h-.777c-.971 0-1.975.064-3.012.195-3.886.193-8.225.811-13.019 1.847-4.729.971-7.578 1.779-8.549 2.429-.259.129-.389.258-.389.387 0 .26.032.456.097.585-5.572.842-12.016 1.715-19.335 2.623m91.035-9.23c.324.322.745.582 1.263.777a734.126 734.126 0 0 1 6.898-5.246c3.109-2.332 5.765-4.243 7.967-5.733 6.606-4.469 12.727-7.028 18.363-7.675l.193-1.263c0-.648-.097-1.036-.292-1.167l-.194-.29c-7.643 1.423-14.703 4.501-21.18 9.229-.129.13-2.72 2.396-7.772 6.802a184.238 184.238 0 0 0-5.246 4.566m-8.356-5.636c-.324.26-.615.52-.874.777a200.555 200.555 0 0 0-4.857 4.08 184.591 184.591 0 0 0-3.304 2.818c-.13.066-.259.195-.389.389-2.849 2.332-5.278 4.404-7.287 6.219a361.356 361.356 0 0 0-5.635 4.954c0 .064-.032.097-.097.097.324.324.745.583 1.263.778.389-.26.809-.519 1.263-.778a394.649 394.649 0 0 1 7.384-5.051 7031.71 7031.71 0 0 0 9.132-6.511 685.398 685.398 0 0 0 4.372-3.302 714.5 714.5 0 0 0 4.566-3.499c9.975-8.031 14.962-13.568 14.962-16.614 0-.646-.098-1.003-.292-1.068-.388 0-.713-.064-.972-.193-2.782 2.915-9.195 8.549-19.235 16.904m87.927-24.093c0-.647-.097-1.004-.291-1.068l-.195.097c-4.533 1.489-9.618 3.334-15.253 5.537a150.52 150.52 0 0 0-5.44 2.139c-8.809 3.497-18.849 7.738-30.119 12.727a16.156 16.156 0 0 0-3.109 1.361 3.775 3.775 0 0 1-.777.29c0 .066.032.131.097.195-1.618 1.036-3.141 2.429-4.565 4.177a38.369 38.369 0 0 0-2.235 3.11c-.129.129-.259.29-.388.485.323.322.777.583 1.359.776a74.219 74.219 0 0 1 2.332-1.555 120.68 120.68 0 0 1 3.886-2.721 857.02 857.02 0 0 1 6.024-4.177c2.979-1.296 7.254-3.076 12.825-5.344 3.951-1.618 8.518-3.467 13.699-5.539 14.766-5.828 22.15-9.325 22.15-10.49m133.784 29.436l-.292.1c-2.525.322-4.501 1.487-5.926 3.497.324.324.745.582 1.264.775 1.683-.064 3.044-.582 4.08-1.554.711-.712 1.068-1.296 1.068-1.748 0-.648-.065-1.005-.194-1.07m-78.696-110.465c0-.648-.032-.972-.097-.972l-.389-.194c-2.591.194-4.728 2.332-6.412 6.413-.584 1.425-1.134 3.076-1.652 4.955a59.854 59.854 0 0 0-1.651 11.27c0 .648.032 1.004.097 1.069h1.166c1.296-2.267 2.947-5.797 4.956-10.591.193-.583.42-1.198.679-1.845 2.201-5.701 3.303-9.069 3.303-10.105m257.853-17.878c-.131.26-.227.584-.293.972-.26 1.425-.389 3.531-.389 6.315 0 1.36-.193 2.721-.583 4.081-.064 1.037.553 2.495 1.847 4.372.972-.194 1.586-1.392 1.847-3.595.064-.711.097-2.202.097-4.469 0-2.138-.032-3.497-.097-4.081a14.127 14.127 0 0 0-.972-3.206 3.437 3.437 0 0 1-.195-.486c-.193-.323-.422-.68-.68-1.068-.258.194-.453.583-.582 1.165m-82.973-10.394a18.377 18.377 0 0 0-1.36-2.041 4.99 4.99 0 0 0-.972-.097v1.457c.131.064.325.195.583.388.648.454 1.717 1.264 3.207 2.429-.259-.324-.519-.68-.778-1.068a30.115 30.115 0 0 1-.68-1.068z"/><path fill="#6984F0" d="M620.037 273.62c-.518 0-1.199.161-2.039.486h2.525c-.193-.325-.357-.486-.486-.486m-32.158 3.109c0 .064.032.163.097.292.064.452.163 1.197.292 2.233.843 1.814 2.396 2.722 4.663 2.722.518 0 3.918-.682 10.201-2.04a62.257 62.257 0 0 1 4.275-3.11l.097-.097h-19.625m21.665 1.943c3.304-.649 6.218-1.294 8.744-1.943h-5.634c-.971.583-2.009 1.229-3.11 1.943m28.273-17.974c1.295-.194 2.915-.164 4.858.097 2.719.389 4.793.972 6.217 1.749-1.037-2.461-3.822-3.336-8.355-2.624-.905.26-1.812.519-2.72.778m-33.518 7.48c-2.203.39-4.535.778-6.996 1.167-2.332.325-4.211.875-5.634 1.651-1.621.712-2.722 1.683-3.304 2.915 2.461 0 5.698.032 9.715.097v-.486c0-.843.454-1.683 1.361-2.525 1.037-.973 2.655-1.912 4.858-2.819m90.452 1.75c.193-.129.389-.292.583-.486-4.209.323-7.838.649-10.881.972.842.39 1.65.68 2.429.875.907.193 1.78.29 2.622.29 1.426 0 2.623-.193 3.594-.582a4.883 4.883 0 0 0 1.653-1.069m-12.63 1.553v-.582-.292c-1.426.129-2.689.26-3.79.389.323.195.649.421.972.681.582.583.875 1.359.875 2.331v.972c-.066.064-.066.129 0 .195-.131.389-.26.711-.39.972.39-.261.744-.617 1.068-1.068.132-.261.261-.521.39-.778a6.028 6.028 0 0 0 .875-2.82m-17.878-17.877a383.041 383.041 0 0 1-.097-2.525c0-.583.032-1.036.097-1.36a9.738 9.738 0 0 0-.582 1.167c-1.684 3.175-2.591 5.311-2.722 6.411l-.874.875a60.39 60.39 0 0 1 6.801-2.332c-1.294-.258-2.169-1.004-2.623-2.236m2.333-7.286c.84-.712 1.91-1.329 3.204-1.845a1.998 1.998 0 0 0-.872 0c-.714.13-1.492.745-2.332 1.845m9.133 3.886a1.52 1.52 0 0 1-.293-.387c-.193-.325-.389-.649-.582-.972-1.231 1.487-3.336 3.69-6.315 6.605 7.319-1.684 11.205-.39 11.659 3.886-.066.39-.131.647-.195.778-.064.26-.422.389-1.068.389-.325 0-1.004-.389-2.04-1.167-.972-.84-1.49-1.262-1.555-1.262-2.009 0-4.017.323-6.024.972.389.517.584 1.229.584 2.137 0 1.165-.648 2.137-1.942 2.915-1.492 1.101-3.726 1.65-6.704 1.65-2.462 0-4.082-.451-4.858-1.358H655.016a18.52 18.52 0 0 0-1.264 1.845c-.193.26-.387.55-.583.874a21.8 21.8 0 0 0-2.137-.097c-.066.193-.161.39-.292.583-.129.131-.26.26-.389.389-.647.649-1.488.972-2.525.972-1.748 0-3.854-.097-6.315-.292a76.218 76.218 0 0 1-2.04-.193c-1.229-.13-1.976-.194-2.235-.194-1.423 0-2.395-.584-2.915-1.749-.064-.064-.097-.163-.097-.292-.129-.452-.193-1.002-.193-1.651 0-1.62.647-2.751 1.943-3.4-3.175.907-5.991 1.716-8.454 2.429-.516.129-.972.258-1.358.39-1.296.324-2.429.614-3.4.874a9.921 9.921 0 0 1-.682.194c.519.129.939.322 1.264.582.194.131.39.324.583.583h.097c.26.389.389.842.389 1.36 0 .26-1.554 1.038-4.664 2.332-2.59 1.036-6.217 2.396-10.881 4.08.907 0 1.814.034 2.722.099 6.672-3.951 10.491-3.951 11.463 0h2.139l.193.193c.129.064.228.258.292.582h.097a134.326 134.326 0 0 1 6.023-1.65c-1.101.712-2.04 1.425-2.818 2.137-1.358 1.231-2.039 2.364-2.039 3.4 0 .843.26 1.749.777 2.721l.097.097c.972 1.555 2.494 2.333 4.565 2.333 1.102 0 2.786-.519 5.054-1.555.389-.778.776-1.717 1.165-2.817l.097-.097c1.231-2.399 2.915-3.5 5.054-3.304l.29.193c.129.066.195.421.195 1.068 0 .26-.097.681-.292 1.264l-.29.582c.516.066 1.294.293 2.33.682 1.296.516 2.203.776 2.721.776h.097c0 .066.032.131.098.195l.584.776c2.459-.064 4.338-.162 5.634-.291h.485c.907-1.101 2.04-2.624 3.401-4.567a64.578 64.578 0 0 0 1.554-2.233l1.167-1.749.097-.098.097-.097.097.097c.456.519.972 1.166 1.557 1.943.451.454.906.972 1.358 1.555.064.129.163.258.292.389 4.6 4.857 7.869 7.287 9.813 7.287 2.01 0 3.467-.811 4.372-2.43.519-1.038.778-2.009.778-2.914 0-.583-.227-1.296-.682-2.139-.322.26-.68.485-1.068.681-.582.194-2.233.291-4.954.291-2.915 0-4.794-.259-5.636-.776a1.286 1.286 0 0 1-.583-.583c-.26-.324-.419-.777-.485-1.36a5.522 5.522 0 0 1-.098-1.068c0-.455.065-.843.194-1.167.648-1.618 2.624-2.461 5.928-2.525 2.266-1.36 8.774-2.525 19.528-3.497a63.382 63.382 0 0 1 3.497-.292 1.157 1.157 0 0 1-.292-.194c.26-.195.55-.453.875-.777a27.063 27.063 0 0 0-1.458-.291 4.568 4.568 0 0 0-.875-.099c-.322-.322-.485-.809-.485-1.457.972-.322 1.913-.647 2.818-.972-.39-.776-.811-1.78-1.263-3.012a19.392 19.392 0 0 0-3.207.486c.714.711 1.068 1.618 1.068 2.721 0 .647-.226 1.262-.679 1.847a2.69 2.69 0 0 1-.486.68c-.518.453-1.197.679-2.039.679-1.428 0-2.689-.161-3.79-.485-1.36-.388-2.495-1.002-3.4-1.845-1.231-1.036-1.847-2.008-1.847-2.915 0-2.785 2.04-3.757 6.122-2.914 1.813.322 3.237.842 4.273 1.554a1.86 1.86 0 0 1-.097-.582c0-.778 1.103-1.199 3.304-1.265a7.26 7.26 0 0 1-.778-.679 25.751 25.751 0 0 0-4.08-2.624c-1.554-.325-3.237-.519-5.051-.583l-.195-.193c-.194-.129-.291-.521-.291-1.167 0-.193.064-.355.193-.486-3.762-1.428-6.578-1.88-8.456-1.364m-50.036 19.82c0-.193.03-.354.097-.485.13-1.101.875-1.748 2.234-1.943 1.231-.193 2.364.324 3.4 1.554.195.26.421.585.681.972-.26.778-.681 1.264-1.264 1.457h-3.886a28.734 28.734 0 0 1-.972-.29c-.193-.132-.29-.553-.29-1.265z"/><path fill="#EFBD9C" d="M450.597 265.264c2.59-.843 5.7-1.587 9.326-2.233a108.902 108.902 0 0 1 9.23-1.361c-1.101-.129-2.494-.193-4.177-.193-6.154-.001-10.947 1.26-14.379 3.787m232.786-126.497c.064.195.129.357.195.486.711-.323 1.262-.68 1.65-1.068-.453.323-1.068.517-1.845.582m-20.889-13.213a356.697 356.697 0 0 0-7.967-1.943c-4.658-.278-9.938-.861-15.837-1.75 8.744 3.757 16.388 6.186 22.931 7.287 15.738 5.506 23.154 6.478 22.247 2.915a1.507 1.507 0 0 1-.29-.388c-1.426-1.684-3.433-3.563-6.025-5.635a11.667 11.667 0 0 0-1.457-1.069c1.491 3.173-3.044 3.367-13.602.583M518.605 84.263a362.963 362.963 0 0 0-20.11-4.858c-22.346-4.793-45.889-7.611-70.633-8.453-8.744-4.081-17.423-1.846-26.038 6.704-1.943 8.097-.162 16.387 5.344 24.873-.194 21.957 3.206 41.777 10.202 59.459 1.684-4.081 3.82-6.218 6.412-6.413l.389.194c.064 0 .097.324.097.972 0 1.036-1.102 4.404-3.304 10.104a32.6 32.6 0 0 0-.679 1.845 99.444 99.444 0 0 0 5.731 11.076l-1.554.777c-15.416 21.698-39.089 42.295-71.021 61.791 5.636-2.203 10.72-4.048 15.253-5.537l.195-.097c.194.064.291.421.291 1.068 0 1.165-7.383 4.662-22.151 10.491a1803.652 1803.652 0 0 0-13.699 5.539 471.099 471.099 0 0 0-7.772 4.177c-1.49.714-2.948 1.427-4.372 2.139l.388.776v.099a47.656 47.656 0 0 0 3.013 2.525c14.896.26 29.826.519 44.789.776.453-1.229 1.003-2.072 1.652-2.525.259.131.583.226.971.292.259.129.388.582.388 1.36v.972l12.145.193c0-2.008.033-3.271.098-3.789.129-2.332.518-3.951 1.166-4.858 1.101 2.332 1.878 5.215 2.332 8.647 11.853.193 23.707.356 35.56.486v-.972c0-1.75.324-4.469.972-8.162.777-4.146 1.522-6.314 2.234-6.509.454.194.777.42.971.68.195.324.292.875.292 1.652 0 2.591-.389 5.052-1.166 7.384-.454 1.231-.647 3.239-.583 6.023 7.383.066 14.8.131 22.248.195a31.527 31.527 0 0 1 2.138-1.943c7.125-5.571 14.768-6.285 22.93-2.139 4.404-.389 8.938-.55 13.602-.485l.097.389c2.137-.322 5.344-.064 9.619.778.647-6.285 2.137-13.15 4.469-20.599-2.332 7.448-3.821 14.313-4.469 20.599l1.165.193c4.211.907 8.097 1.685 11.659 2.332.195-.583.421-1.231.681-1.943 1.358-3.692 2.945-5.896 4.76-6.607.324.131.648.195.971.195.261.064.39.452.39 1.165 0 .323-1.197 2.947-3.595 7.87 1.426.26 2.818.518 4.177.777 4.729 0 9.49.032 14.283.097-1.879-9.066 1.847-20.66 11.173-34.782-9.326 14.122-13.052 25.716-11.173 34.782 7.255 0 14.541.032 21.86.098a15.55 15.55 0 0 0-.583-1.068c-1.167-.065-1.586-.583-1.264-1.555-.258-.907-.389-1.588-.389-2.04a646.72 646.72 0 0 1-.097-3.789v-.097c-.129-.195-.228-.456-.292-.778v-1.165c0-1.879.228-3.175.681-3.887a.932.932 0 0 1-.292-.681c0-.129.161-.647.485-1.555.325-.777.553-1.199.682-1.264a3.53 3.53 0 0 0 .776-1.554c.131-.193.453-.354.972-.486.066-.129.131-.193.195-.193.258-.26.55-.616.873-1.068.064-.064.26-.163.584-.292a17.946 17.946 0 0 0 1.748-.778c.059-.022.125-.055.195-.097.254-.075.512-.142.776-.193.582.129 1.264.26 2.039.389a.633.633 0 0 1 .293-.292 1.22 1.22 0 0 1 .292-.485c.712-.129 2.137-.228 4.273-.293 1.943-.064 3.271.164 3.984.682l3.205 3.012c.066.064.553.485 1.458 1.264.646.451 1.103.843 1.36 1.165.064.258.322.744.777 1.457.583.843 1.002 1.264 1.263 1.264h.195c.193 1.101.646 3.076 1.358 5.927 0 .518-.161 1.618-.485 3.304l-.291 1.65c-.066.129-.26.293-.582.486a1.488 1.488 0 0 0-.292.389 136.825 136.825 0 0 1-.778 2.72H587.395c1.231-.194 2.008-.291 2.332-.291a7.657 7.657 0 0 1 2.719.097l.293-.097c.064 0 .129.097.193.291h17.877c.129 0 .258-.03.389-.097 2.784-.647 5.118-1.036 6.995-1.166a10.251 10.251 0 0 1-1.555-.971c-2.592-1.879-4.469-4.534-5.636-7.969-1.423-3.302-1.78-6.477-1.068-9.52.712-2.851 2.169-4.697 4.372-5.539.131 0 .292-.064.486-.193.195-.065.389-.098.582-.098.455-6.089-2.169-10.04-7.869-11.854-.647.777-1.391 1.328-2.233 1.652-2.203 1.101-4.696.939-7.482-.485-2.59-1.49-4.727-3.919-6.412-7.287-1.685-3.304-2.332-6.477-1.942-9.522.389-2.526 1.425-4.404 3.107-5.635h.1l-9.037-10.104c-.648.453-1.36.939-2.137 1.457-.324.194-.356.064-.099-.389v-.68c-.322-3.303-1.715-5.278-4.177-5.926-2.461-.842-5.504-.194-9.133 1.943-9.133 5.181-14.022 12.533-14.67 22.055l-22.929 16.517-25.845-33.617c.195 6.801-.357 14.411-1.651 22.832 1.294-8.42 1.847-16.031 1.651-22.832-.452-16.775-5.634-28.823-15.545-36.142-12.11-29.665-22.377-46.667-30.798-51.007 11.01 4.47 23.64 7.611 37.891 9.424a195.376 195.376 0 0 0 20.306 1.458c7.255 0 14.478-.227 21.665-.68 29.86 2.073 47.964 3.886 54.311 5.441.39.129 2.04.42 4.955.874a4.263 4.263 0 0 0-.583-.388v-1.457c.325 0 .647.032.972.097.454.583.907 1.263 1.36 2.041h.39c4.079.453 9.197 2.331 15.35 5.635 6.218 3.174 16.873 5.731 31.965 7.675 6.089-1.749 6.867-3.789 2.332-6.121-3.693-1.749-9.036-3.142-16.031-4.178-2.396-.324-4.275-1.846-5.636-4.566a554.219 554.219 0 0 1 23.027 4.566c6.734 2.85 13.698 5.83 20.889 8.938 4.533.195 7.998 0 10.395-.583.066-.388.162-.711.293-.972-4.34-.064-11.79-2.525-22.347-7.383-4.081-1.166-7.353-2.04-9.813-2.624-2.398-.648-6.089-2.072-11.076-4.274 4.987 2.202 8.678 3.626 11.076 4.274 2.46.583 5.731 1.458 9.813 2.624 10.557 4.858 18.007 7.319 22.347 7.383.129-.583.324-.971.582-1.165.258.388.486.745.68 1.068.777-.064 1.393-.259 1.846-.583.496-.572.722-1.252.682-2.041-.082-1.13-.761-2.491-2.042-4.081.907 3.563-6.509 2.591-22.247-2.915-6.543-1.101-14.187-3.53-22.931-7.287 5.899.889 11.179 1.471 15.837 1.75 2.786.647 5.441 1.295 7.967 1.943 10.558 2.785 15.093 2.59 13.602-.583-13.146-9.65-37.016-14.152-71.604-13.504l-20.985-6.218c-21.897-8.483-43.531-15.478-64.906-20.983m114.452 36.335c-13.408 6.024-23.803 6.445-31.187 1.263 7.384 5.182 17.778 4.761 31.187-1.263m-179.449-2.234c-5.57-7.449-5.311-12.112.777-13.991-6.087 1.878-6.346 6.542-.777 13.991m-32.45-7.287c.064 25.001 5.183 43.72 15.351 56.156-10.168-12.436-15.286-31.154-15.351-56.156m-4.08 128.343c0 .325.065.712.194 1.167 0 .517-1.166 3.302-3.497 8.355-2.461 5.44-3.886 9.068-4.275 10.881a3.418 3.418 0 0 1-1.263.681c-.583-.195-.907-.324-.972-.389-.194-.195-.291-.647-.291-1.36 0-2.461.745-5.895 2.234-10.299 2.073-6.153 4.696-9.165 7.87-9.036m3.4-22.151c-6.023 6.413-10.46 14.476-13.31 24.191 2.85-9.716 7.287-17.778 13.31-24.191 5.83-6.477 11.498-16.225 17.002-29.243-5.504 13.017-11.172 22.766-17.002 29.243m159.046 23.318c.906-4.664 3.205-6.704 6.897-6.121 3.626.648 6.962 1.135 10.006 1.457s7.093-1.425 12.145-5.247c-5.052 3.822-9.101 5.569-12.145 5.247s-6.38-.809-10.006-1.457c-3.692-.583-5.99 1.457-6.897 6.121m7.773 9.617c0-.387.29-.712.873-.972.195-.129.52-.258.971-.387 1.101-.778 1.943-.972 2.528-.585 1.036-.064 1.393.456 1.068 1.557a.84.84 0 0 0-.097.387c.064.324.097.714.097 1.167a4.163 4.163 0 0 0-1.555.68c-.778.453-1.556.485-2.332.097-.195 0-.518-.29-.972-.873-.388-.65-.581-1.006-.581-1.071m1.844 7.093c2.398 2.526 6.965-.743 13.701-9.812 2.785-3.693 6.119-6.122 10.006-7.287-3.887 1.165-7.221 3.594-10.006 7.287-6.737 9.069-11.303 12.338-13.701 9.812m-24.676-50.23c2.654-5.181 5.02-7.092 7.091-5.731-2.072-1.361-4.437.55-7.091 5.731m-4.858 1.556c5.18-11.4 10.362-15.675 15.545-12.825-5.182-2.851-10.365 1.425-15.545 12.825M463.52 105.442c23.642 6.024 53.629 9.23 89.966 9.618-36.338-.388-66.325-3.594-89.966-9.618m-22.736-28.37c18.589-1.23 44.563 3.401 77.919 13.894-33.356-10.493-59.33-15.124-77.919-13.894m143.403 164.487c.131-.26.292-.52.485-.777 2.074-1.102 4.018-1.166 5.83-.194.453.647.324 1.359-.39 2.137-.258.259-.679.293-1.262.097-.453.325-.746.486-.875.486-.453 0-1.36-.097-2.721-.29-.364-.104-.591-.331-.68-.682-.321-.261-.452-.52-.387-.777m.388.486c0-.778.615-1.264 1.847-1.458a8.06 8.06 0 0 1 1.748-.195c1.296 0 1.942.356 1.942 1.068a30.665 30.665 0 0 1-1.262 1.36c.583.196 1.004.162 1.262-.097.714-.777.843-1.489.39-2.137-1.813-.972-3.756-.907-5.83.194a5.27 5.27 0 0 0-.485.777c-.064.258.066.517.389.776l-.001-.288m6.509 9.715l-.582-.195c-.583 0-.972.131-1.166.39-.195.129-.356.193-.485.193.776.389 1.554.356 2.332-.097a4.18 4.18 0 0 1 1.555-.68c0-.453-.032-.843-.097-1.167-.456 1.036-.972 1.556-1.557 1.556m.099-3.401c.193-.064.356-.099.486-.099-.585-.387-1.428-.193-2.528.585.52-.195 1.199-.357 2.042-.486m-33.229 10.589a5.442 5.442 0 0 1-.29-.972c.064.455.129.941.193 1.457l.097 1.361c.389.195.778.616 1.167 1.264.129.193.517.972 1.165 2.332v.097c.193.129.422.324.68.583.129 0 .292.064.485.193.39.195.615.356.682.485v.39h3.4c-.972-.194-1.879-.615-2.721-1.263l-.194-.099-1.36-.972c-1.489-1.228-2.592-2.848-3.304-4.856m-3.594 6.316l-.097-.193a3.017 3.017 0 0 0-.293-.39l-.777.39h-.388c.194.322.388.679.583 1.068a3.504 3.504 0 0 1 1.165 0c-.128-.326-.193-.616-.193-.875m22.054.971h.097c.195-.647.455-1.555.778-2.72-.13.129-.229.26-.293.389-.129.259-.29.517-.485.776.064.131.099.324.099.583-.001.196-.065.52-.196.972m-6.219 0l.099-1.165c-.455.258-.907.485-1.36.679-.453.195-.907.356-1.36.486a17.908 17.908 0 0 1 2.621 0m2.819-10.977c.195.84.292 1.683.292 2.525.193-.907.324-1.555.389-1.943a3.214 3.214 0 0 1-.389-.485c-.131-.065-.226-.097-.292-.097m77.531 8.548c0 .064.032.13.097.196.129-.196.258-.357.389-.486a5.106 5.106 0 0 1-.486.29m-4.567-66.356c.907.906 2.721 2.525 5.442 4.857.387.388.775.745 1.165 1.068-2.593-3.173-5.279-5.894-8.065-8.161.456.713.941 1.457 1.458 2.236m-326.445 65.969c-.518-.52-.842-.907-.972-1.167a21.72 21.72 0 0 0-2.526 1.167h3.498m164.486-1.07c-4.922.778-9.974 1.62-15.156 2.527-1.36.194-2.654.422-3.886.68 5.505 0 11.012.032 16.517.097l-.097-.097c.582-1.361 1.457-2.429 2.622-3.207m2.04 3.11a6.651 6.651 0 0 0-.776.193c3.691.066 7.416.097 11.173.097-3.304-.646-5.571-.972-6.801-.972-.585 0-1.782.228-3.596.682m119.89-73.937c-.193 0-.356.032-.485.098-3.108 1.813-6.479 2.817-10.104 3.011h-1.165l-.972.681c-.582-.13-1.264-.13-2.04 0-2.268.906-4.05 1.489-5.344 1.749a2.606 2.606 0 0 1-.681-.486c-.519.259-1.036.55-1.555.875l9.037 10.104.582-.388c2.203-1.102 4.632-.81 7.287.874 2.719 1.489 4.922 3.886 6.605 7.19 1.62 3.238 2.203 6.379 1.749 9.424-.129 1.813-.582 3.205-1.36 4.177 5.7 1.813 8.324 5.765 7.869 11.854 1.879-.26 3.887.355 6.025 1.847.193.064.389.161.582.29 1.75 1.038 3.237 2.462 4.469 4.275a15.374 15.374 0 0 1 1.555 2.915c1.36 3.237 1.717 6.348 1.07 9.326-.39 1.75-.907 3.175-1.557 4.275 2.463-.713 5.279-1.521 8.454-2.429a27.041 27.041 0 0 0 1.846-.485l2.72-.778c4.533-.712 7.318.163 8.355 2.624.648.39 1.166.776 1.556 1.165l.582-.193c.325-.389.647-.746.972-1.068a.848.848 0 0 1-.097-.389c.193-.131.421-.226.68-.292a70.438 70.438 0 0 0 3.886-5.44c0-1.295-.228-2.397-.679-3.304.258-.194.485-.454.679-.776.454-.455.68-1.135.68-2.042l-.193-1.068c.258-.453.453-.875.582-1.262-.324-.585-.646-1.167-.972-1.75l-.874-6.897c0-2.915-1.133-4.729-3.4-5.44-2.655-3.563-4.76-6.218-6.315-7.968-.129-.777-.29-1.976-.486-3.594-.129-1.684-.356-2.947-.679-3.789-.193-.648-1.036-1.393-2.525-2.235v-1.166c0-2.007-1.004-4.922-3.012-8.744 0-.065-.034-.097-.099-.097a52.238 52.238 0 0 0-.776-1.846c-1.684-3.433-2.818-5.862-3.4-7.287-.324-4.015-1.393-5.408-3.207-4.178a4.122 4.122 0 0 0-1.068-.777c-.714-1.296-2.201-2.268-4.469-2.915-4.664-.26-7.027-.389-7.094-.389-.711 0-1.618.097-2.719.291-1.427.389-2.171.583-2.235.583-3.692.324-5.861.745-6.509 1.263-.584.388-1.135.583-1.652.583h-.099z"/><path fill="#234AE9" fill-opacity=".749" d="M433.692 285.666a70.2 70.2 0 0 1 2.234.292c3.083.433 7.164 1.306 12.241 2.623l.681-2.525c-1.101-.261-2.851-.875-5.246-1.847-3.552-.016-6.823-.145-9.813-.388-8.827-.698-15.012-2.383-18.556-5.053-2.138-.26-4.049-.615-5.733-1.068-8.744-.649-15.771-1.165-21.083-1.554v5.051c0 .647-.032.939-.097.875-.13 0-.227.032-.292.097.454.324.129.485-.971.485-1.296 0-2.105-2.268-2.429-6.801-4.081-.26-6.736-.419-7.967-.485-1.166-.064-2.72-.161-4.664-.29-.389 0-.745.03-1.069.097-.324 2.332-.486 4.176-.486 5.537-.453.324-.874.518-1.263.582-.907-1.036-1.359-2.266-1.359-3.69v-2.139c-1.75.195-3.498.421-5.247.682h-.097c-.324 0-.616.032-.875.097a973.585 973.585 0 0 1-10.396 1.846c-.647 0-1.004-.097-1.068-.292a.85.85 0 0 0-.098-.389c-3.903.304-7.692.499-11.367.584a144.77 144.77 0 0 1-5.247.097c-21.245 0-35.786-1.197-43.624-3.596a299.238 299.238 0 0 1-14.281 1.36 260.43 260.43 0 0 1-6.801.293 394.649 394.649 0 0 0-7.384 5.051c4.599.131 8.162.647 10.687 1.555.13.064.292.129.486.195a52.212 52.212 0 0 1 3.013-.293c5.635-.582 9.78-.874 12.436-.874 4.664 0 8.776.324 12.339.972 1.813.26 4.306.777 7.48 1.556-.129-.389-.193-.682-.193-.875 1.424-.453 2.396-.712 2.915-.778 2.267-.453 5.991-.775 11.173-.971 5.83.195 10.979.421 15.447.681v-.099c-.032-1.044.518-1.529 1.652-1.457 1.117.042 2.801.624 5.052 1.749.129.064.292.13.486.194 3.822.26 6.898.52 9.23.777 7.448.843 13.537 1.976 18.265 3.4 2.332-.193 4.793-.421 7.383-.679 12.048-1.101 22.476-1.653 31.285-1.653 9.59 0 17.329.357 23.221 1.068m67.815-.972a97.9 97.9 0 0 1 1.943-.193c3.173 0 5.926 1.165 8.258 3.497 2.396 2.268 5.732 3.4 10.008 3.4 3.887 0 23.154-3.819 57.809-11.463-3.822-1.036-8.809-1.556-14.963-1.556-9.068 0-20.078.745-33.033 2.235-4.275.842-8.811 2.364-13.602 4.565-.519-.193-.939-.452-1.264-.776a66.893 66.893 0 0 1 4.567-2.525c-2.262.28-4.562.573-6.899.873-1.412.234-2.835.461-4.273.681-2.98.455-5.83.876-8.551 1.262m81.611 12.438c3.628 2.137 8.354 3.206 14.185 3.206 3.368 0 7.093-.26 11.173-.777-9.199-.258-17.65-1.069-25.358-2.429m75.103-8.066c1.423-.193 2.914-.387 4.469-.582 4.791-.583 9.326-1.133 13.602-1.651h-.972c-4.017 0-9.716.746-17.099 2.233m6.994-12.434a1.556 1.556 0 0 1-.292-.389c-2.008.193-3.983.389-5.926.582-1.361 1.943-2.494 3.467-3.401 4.567a29.98 29.98 0 0 0 7.87-2.042c.648.261 1.07.714 1.264 1.361-.843 1.231-1.49 1.976-1.943 2.235-1.749 1.036-4.6 1.554-8.551 1.554-.843 0-2.104-.163-3.787-.485-1.75-.39-2.754-.68-3.014-.875v-1.457h2.042c-.195-.261-.389-.519-.584-.776-.065-.064-.098-.129-.098-.195h-.097c-.518 0-1.425-.261-2.721-.776-1.036-.389-1.814-.615-2.33-.682a36.6 36.6 0 0 0-1.265 1.943c-1.554 2.332-3.271 3.887-5.149 4.664-.583-.26-1.036-.552-1.358-.874.451-.454.971-1.329 1.554-2.623-2.268 1.036-3.952 1.555-5.054 1.555-2.071 0-3.594-.778-4.565-2.333-4.922 1.036-8.581 1.78-10.979 2.235-6.477 1.295-12.823 1.943-19.042 1.943-4.275 0-8.519-1.199-12.727-3.596a13.152 13.152 0 0 0-2.332-1.165c-5.247 2.072-12.371 4.211-21.375 6.412a36.48 36.48 0 0 1 3.596-.193c2.008 0 4.372.258 7.092.775 1.618.39 4.533 1.068 8.744 2.04 9.197 1.814 20.338 2.722 33.422 2.722 4.6 0 10.945-.357 19.042-1.068-6.282 0-10.362-.553-12.241-1.653-.778-.322-1.165-.938-1.165-1.845 0-.584.161-1.199.486-1.846.582-.972 1.487-1.36 2.719-1.167l.875 1.652c.129.325-.032.712-.486 1.165.129.131 1.716.325 4.762.583 2.783.129 4.696.195 5.732.195 8.289 0 16.321-.647 24.094-1.943 4.146-.711 8.97-1.588 14.477-2.624 0 .064 6.283.421 18.849 1.07h.097c8.68-.778 15.642-1.167 20.889-1.167 3.108 0 5.861.066 8.258.195V273.52c-14.314.26-27.3.778-38.959 1.557h-.778c-.324.451-.679.808-1.068 1.068l-.292.29c.455.843.682 1.556.682 2.139 0 .905-.26 1.876-.778 2.914-.905 1.619-2.362 2.43-4.372 2.43-1.948.001-5.218-2.429-9.817-7.286m-483.449 40.027c1.49-.26 2.979-.55 4.469-.874 1.749-.194 3.918-.843 6.51-1.943 4.728-1.814 7.319-2.786 7.772-2.915 7.643-2.851 16.517-4.273 26.62-4.273 19.561.647 35.689 1.165 48.385 1.555 10.168.26 17.94.453 23.317.582a26.9 26.9 0 0 1-4.566-2.235c-1.684-1.101-4.017-1.683-6.996-1.748-4.081-.066-8-.195-11.755-.389-49.875-1.101-81.125-1.425-93.756-.972v13.212m106.58-28.758c-1.165.129-2.363.258-3.594.39 1.813.453 3.853.874 6.121 1.262 4.987.842 11.173 1.457 18.557 1.846a27.909 27.909 0 0 0-1.845-.485c-3.368-.972-5.927-1.651-7.676-2.04-3.046-.649-6.899-.973-11.563-.973m-23.804-11.755h-2.137c-11.335 0-20.209-.519-26.621-1.555a3.233 3.233 0 0 0-.777-.099c-9.197.907-15.318 1.521-18.363 1.847-4.663.518-8.355 1.103-11.075 1.749h-3.207c-8.485 1.877-15.351 3.27-20.596 4.177v7.482c8.291-.324 17.553-.712 27.786-1.167 1.361-.064 2.818-.129 4.372-.193 16.581-4.858 31.187-7.287 43.817-7.287h1.166a366.749 366.749 0 0 1 5.635-4.954m-1.65-6.122c2.915 0 5.894-.032 8.938-.097.13-.193.259-.322.389-.389-6.088-.905-14.023-1.587-23.803-2.04-.518.064-2.397.453-5.635 1.165h.777l.291.681c5.311.455 11.658.68 19.043.68m170.411 24.289c.583.26 1.134.519 1.652.778 5.83 2.979 9.91 4.825 12.242 5.537 5.182 1.683 11.398 2.525 18.655 2.525 6.087 0 17.066-1.197 32.934-3.594h-3.497c-21.05 0-36.693-1.522-46.926-4.565a42.088 42.088 0 0 0-2.234-.682c-4.34-1.036-7.837-1.813-10.493-2.332-3.433-.452-7.546-.744-12.339-.873 3.562.844 6.897 1.911 10.006 3.206m-50.132 72.674c-12.695-1.49-25.423-4.179-38.183-8.065-15.027-4.662-24.646-7.318-28.855-7.966-11.399-2.139-24.839-2.654-40.32-1.554a.708.708 0 0 0-.291.097c-13.538.905-27.172 3.044-40.904 6.412-9.003 2.266-21.601 6.121-37.793 11.562-4.146 1.426-9.165 2.72-15.059 3.887h-.195l.195 4.954.388 9.23h-.389v12.922h.388c13.213-.324 22.217-.745 27.009-1.264 3.887-.518 7.417-1.101 10.591-1.749a233.099 233.099 0 0 1 12.727-3.691c8.874-2.396 16.517-3.596 22.929-3.596 2.85 0 9.554 1.36 20.112 4.082 5.635 1.618 12.5 3.723 20.596 6.314 26.039 6.802 51.85 10.202 77.434 10.202 6.088 0 17.488-.907 34.199-2.722 16.711-1.813 31.803-2.719 45.274-2.719 12.112 0 20.955.419 26.524 1.262 2.784.453 4.955.875 6.509 1.264 1.425 0 2.624-.518 3.596-1.554.907-1.038 1.359-2.397 1.359-4.082 0-2.655-1.943-4.63-5.83-5.926-5.7-1.75-16.321-2.623-31.866-2.623-14.185 0-29.114.841-44.789 2.525-15.74 1.748-27.398 2.623-34.977 2.623-26.427 0-50.586-2.752-72.478-8.259-6.866-1.618-13.246-3.433-19.14-5.44a653.211 653.211 0 0 0-6.412-2.721c-.583-.193-.939-.322-1.069-.387-2.979-1.428-7.805-2.365-14.476-2.818-6.154-.583-11.529-.518-16.128.193-10.816 3.11-16.711 4.664-17.683 4.664-10.298.841-20.144 1.651-29.535 2.43a9267.329 9267.329 0 0 1 19.042-5.927c21.958-6.801 41.907-11.4 59.849-13.797 6.735-1.036 13.148-1.651 19.237-1.847 6.023-.322 13.083.811 21.18 3.4 4.858 1.491 13.569 4.308 26.135 8.454 28.435 7.966 65.127 11.042 110.077 9.229 10.559-.389 22.542-1.749 35.948-4.081 13.408-2.46 26.136-3.887 38.183-4.273 11.271-.521 28.92 1.908 52.95 7.286 24.031 5.245 45.113 7.513 63.249 6.801 22.021-.906 40.773-3.4 56.254-7.481 7.966-2.008 14.638-4.275 20.014-6.801.582-.13 1.197-.291 1.846-.486V358.92a347.86 347.86 0 0 0-10.493 3.11c-23.382 7.317-46.085 11.399-68.106 12.241-16.646.647-37.309-1.652-61.984-6.897-24.613-5.313-42.588-7.742-53.922-7.286-12.048.516-25.132 1.908-39.251 4.176-14.056 2.462-25.715 3.887-34.977 4.275-27.203 1.103-50.101.585-68.689-1.552m1.554-52.66c-16.127 0-30.054-.193-41.777-.582a259.523 259.523 0 0 1-39.445 3.011c-4.729 0-14.055-.226-27.98-.679-12.696-.39-28.856-.907-48.481-1.555-5.894 0-11.27.712-16.127 2.137-1.75.454-4.113 1.167-7.093 2.139 16.582-.843 30.929-1.264 43.041-1.264 11.852 0 21.407.356 28.661 1.068 2.396.26 4.533.552 6.412.875 1.166.193 5.992 1.586 14.477 4.179 13.343 4.079 42.976 6.119 88.898 6.119 38.02 0 63.54-1.068 76.558-3.205 3.239-.52 7.321-1.231 12.243-2.139 4.729-.711 11.27-1.068 19.625-1.068 8.551 0 16.839 1.068 24.871 3.207.778.129 8.13 2.459 22.056 6.995 21.246 6.994 45.986 10.493 74.227 10.493 11.271 0 23.545-1.296 36.822-3.887 2.915-.52 15.19-3.336 36.822-8.453a510.519 510.519 0 0 1 32.062-6.315v-9.909h-7.093a538.645 538.645 0 0 1-14.961 3.205c-10.493 2.008-18.523 3.014-24.095 3.014-2.526 0-5.116-.129-7.773-.39-8.55 2.008-13.698 3.175-15.447 3.498-13.084 2.525-25.194 3.789-36.337 3.789-21.568 0-41.614-2.235-60.139-6.704-4.471.322-9.879.485-16.226.485-9.069 0-17.617-1.749-25.65-5.246-3.626-1.813-6.151-3.044-7.577-3.691-2.332-1.036-4.081-1.556-5.246-1.556-6.479 0-14.671.941-24.582 2.818-9.845 1.813-19.042 2.721-27.591 2.721-8.938 0-18.978-1.133-30.119-3.4-9.654.193-20.665.29-33.036.29m-31.576-27.591c1.296.452 2.461.809 3.499 1.068 3.043-.131 6.379-.292 10.007-.485a43.036 43.036 0 0 0-3.013-.293c-5.31 0-8.387-.064-9.229-.193a7.68 7.68 0 0 1-1.264-.097m-6.412 1.165a44.753 44.753 0 0 1-2.527-1.264 145.093 145.093 0 0 0-2.526-1.65 43.588 43.588 0 0 1-3.011-.293c-8.097-.711-16.97-.55-26.621.486h-.195c8.616 1.685 20.242 2.592 34.88 2.721m84.623-8.55c-.195-.064-.324-.129-.388-.193-.51.058-.964.09-1.36.097.522.005 1.105.039 1.748.096z"/><path fill="#C48179" d="M557.664 243.792c-.07.042-.137.074-.195.097-.647.325-1.231.585-1.748.778-.324.129-.52.228-.584.292a8.75 8.75 0 0 1-.873 1.068c-.064 0-.129.064-.195.193-.519.132-.841.293-.972.486a3.54 3.54 0 0 1-.776 1.554c-.129.064-.356.486-.682 1.264-.324.907-.485 1.426-.485 1.555 0 .26.097.485.292.681-.453.712-.681 2.008-.681 3.887v1.165c.064.322.163.583.292.778v.097c0 .129.032 1.391.097 3.789 0 .452.131 1.133.389 2.04-.322.972.097 1.489 1.264 1.555-.52-1.102-.874-2.333-1.069-3.693-.647-4.402-.388-8.095.777-11.074 1.099-2.915 2.817-5.086 5.149-6.512m13.602 9.327c.193.195.356.421.486.681l.775 1.361h.097c.13 0 .261.03.39.097.066 0 .161.032.292.097.129.193.26.356.389.485a48.703 48.703 0 0 1-.389 1.943.867.867 0 0 1-.097.389 6.8 6.8 0 0 1-.292 2.526c-.519 2.007-1.394 3.465-2.623 4.372l-.099 1.165h6.219c.131-.452.195-.776.195-.972 0-.259-.034-.452-.099-.583a5.09 5.09 0 0 0 .485-.776c.064-.129.163-.26.293-.389.129-.582.292-1.197.485-1.847.778-3.107.453-6.121-.972-9.036-1.489-3.043-3.563-5.537-6.218-7.48-2.72-1.878-5.991-2.364-9.813-1.457a.633.633 0 0 0-.293.292 39.532 39.532 0 0 1-2.039-.389 8.539 8.539 0 0 0-.776.193c-2.332 1.426-4.05 3.597-5.15 6.511-1.165 2.979-1.425 6.672-.777 11.074.195 1.36.55 2.592 1.069 3.693h.388l.777-.39c.065.066.164.195.293.39l.097.193c0 .26.064.55.193.875h7.579v-.39c-.066-.129-.292-.29-.682-.485-.193-.129-.356-.193-.485-.193a4.641 4.641 0 0 0-.68-.583v-.097c-.648-1.36-1.036-2.139-1.165-2.332-.389-.647-.778-1.068-1.167-1.264l-.097-1.361a89.804 89.804 0 0 0-.193-1.457c-.26-2.201-.228-3.431.097-3.69l.097-.097c.064 0 .163-.034.292-.099.129-.907.357-1.814.68-2.72.843-2.396 1.879-3.821 3.108-4.275h.099c0-.064.03-.129.097-.193.129-.195.226-.356.29-.485.064.064.195.097.39.097a7.26 7.26 0 0 1 1.36.389c.258.129.55.322.874.583.519.26 1.068.582 1.651.971 1.296.972 2.525 2.137 3.692 3.498.325.258.551.292.68.097a1.097 1.097 0 0 0-.097.485l.292.39c.002.064.002.129.002.193m6.315-1.359h-.195c-.261 0-.68-.421-1.263-1.264-.455-.713-.713-1.199-.777-1.457-.258-.322-.714-.714-1.36-1.165a93.423 93.423 0 0 1-1.458-1.264l-3.205-3.012c-.713-.518-2.041-.746-3.984-.682-2.137.065-3.562.164-4.273.293a1.22 1.22 0 0 0-.292.485c3.821-.907 7.093-.421 9.813 1.457 2.654 1.943 4.729 4.438 6.218 7.48 1.425 2.915 1.75 5.929.972 9.036a27.062 27.062 0 0 0-.485 1.847c.064-.131.163-.26.292-.389.322-.193.516-.357.582-.486l.291-1.65c.324-1.686.485-2.786.485-3.304-.714-2.849-1.168-4.825-1.361-5.925z"/><path fill="#A96053" d="M586.422 240.587c-1.231.194-1.847.68-1.847 1.458v.29c.089.351.315.577.68.682 1.36.193 2.268.29 2.721.29.129 0 .422-.161.875-.486.324-.324.746-.775 1.262-1.36 0-.712-.646-1.068-1.942-1.068a8 8 0 0 0-1.749.194m6.219 9.617c0-.129.03-.258.097-.387.324-1.101-.032-1.621-1.068-1.557.45.326.774.972.971 1.944m-.972-1.943c-.13 0-.293.034-.486.099-.843.129-1.521.291-2.042.486-.451.129-.775.258-.971.387-.583.26-.873.585-.873.972 0 .064.193.421.582 1.07.454.583.776.873.972.873.129 0 .29-.064.485-.193.194-.259.583-.39 1.166-.39l.582.195c.585 0 1.101-.52 1.557-1.556-.197-.972-.521-1.618-.972-1.943z"/><path fill="#FFF" d="M611.196 34.129c-4.664-1.619-10.525-1.749-17.585-.388-4.21.777-8.032 1.91-11.465 3.4-16.128-3.627-37.341-4.923-63.638-3.886-10.493.388-21.989 1.198-34.49 2.429-11.076 1.165-17.617 1.781-19.625 1.845-1.685.13-3.336.291-4.956.486-4.729-2.72-12.208-3.627-22.443-2.72-5.83.583-12.273 1.716-19.333 3.4-6.542-2.915-15.448-4.372-26.718-4.372-7.449.389-14.865.777-22.25 1.166-14.768.647-25.422.907-31.963.777-6.024-.065-13.214.194-21.569.777-7.384.583-11.626.875-12.728.875-3.433 0-8.193-.13-14.281-.389-8.226-.972-13.635-2.234-16.226-3.789-.972-.907-1.749-1.393-2.332-1.458-.518 0-2.915.583-7.189 1.749a13.113 13.113 0 0 0-3.984 1.845c-14.703-.972-23.318-1.813-25.843-2.526l.583-.389c-17.164-.518-28.304.098-33.421 1.846-2.462.777-4.178 2.17-5.15 4.178-.777.064-1.458.13-2.04.194-2.85-1.62-5.181-2.105-6.995-1.458-2.851 1.036-4.081 4.793-3.692 11.27 0 .907-.421 7.222-1.263 18.945-.843 11.789-1.263 18.784-1.263 20.986 0 11.853.486 20.241 1.458 25.163.906 4.534 1.749 10.396 2.526 17.585-.583 4.792-1.036 10.04-1.361 15.74-.972 16.256-1.004 33.324-.097 51.201v44.499c32.191 1.812 63.411 1.717 93.659-.293 24.094.583 48.253 1.133 72.478 1.653a155.086 155.086 0 0 1 5.44-2.139c31.933-19.496 55.605-40.093 71.021-61.791l1.554-.777a99.363 99.363 0 0 1-5.731-11.076c-2.009 4.793-3.66 8.324-4.956 10.591h-1.166c-.064-.065-.097-.421-.097-1.069a59.936 59.936 0 0 1 1.651-11.27c.519-1.878 1.068-3.529 1.652-4.955-6.996-17.683-10.396-37.503-10.202-59.459-5.506-8.485-7.287-16.776-5.344-24.873 8.614-8.55 17.294-10.784 26.038-6.704 24.744.842 48.287 3.66 70.633 8.453a362.068 362.068 0 0 1 20.11 4.858c21.375 5.505 43.009 12.5 64.901 20.985l20.985 6.218c34.588-.648 58.457 3.854 71.604 13.504.52.324 1.006.68 1.457 1.069 2.593 2.072 4.6 3.951 6.025 5.635.064.129.161.259.29.388 1.281 1.59 1.96 2.951 2.042 4.081.04.788-.186 1.469-.682 2.041-.389.388-.939.745-1.65 1.068.453 1.036.776 2.105.972 3.206.064.583.097 1.943.097 4.081 0 2.267-.032 3.757-.097 4.469-.261 2.203-.875 3.401-1.847 3.595-1.294-1.877-1.911-3.335-1.847-4.372.39-1.359.583-2.72.583-4.081 0-2.785.129-4.89.389-6.315-2.396.583-5.861.778-10.395.583a2909.393 2909.393 0 0 0-20.889-8.938 553.229 553.229 0 0 0-23.027-4.566c1.36 2.72 3.239 4.243 5.636 4.566 6.995 1.036 12.338 2.429 16.031 4.178 4.535 2.332 3.757 4.372-2.332 6.121-15.092-1.943-25.747-4.501-31.965-7.675-6.152-3.304-11.271-5.182-15.35-5.635h-.39c.194.323.422.679.68 1.068.26.389.52.745.778 1.068-1.49-1.166-2.559-1.976-3.207-2.429-2.915-.454-4.565-.745-4.955-.874-6.347-1.555-24.45-3.369-54.311-5.441-7.188.453-14.41.68-21.665.68a195.395 195.395 0 0 1-20.306-1.458c-14.251-1.813-26.881-4.955-37.891-9.424 8.421 4.34 18.688 21.342 30.798 51.007 9.911 7.319 15.093 19.367 15.545 36.142l25.845 33.617 22.929-16.517c.647-9.522 5.537-16.874 14.67-22.055 3.629-2.138 6.672-2.786 9.133-1.943 2.462.648 3.854 2.624 4.177 5.926v.68c-.258.454-.226.583.099.389.776-.518 1.488-1.004 2.137-1.457l-.777-1.167.777 1.167a18.457 18.457 0 0 1 1.555-.875 2.442 2.442 0 0 1-.291-.583v-.098c.776-.259 1.394-.68 1.845-1.263.585-.712 1.36-2.202 2.332-4.469 0-.065.226-.389.682-.971 2.072-.972 4.729-2.041 7.966-3.207 9.002-3.238 17.359-4.146 25.067-2.72h.29c4.146-.194 6.996.324 8.551 1.555 1.618 1.23 3.205 1.845 4.761 1.845 1.487 0 3.336 1.555 5.537 4.664a127.855 127.855 0 0 1 2.622 3.886c2.786 2.268 5.473 4.988 8.065 8.161 1.749 1.684 2.85 3.109 3.304 4.275.064.129.129.292.193.486 2.139 3.303 3.887 6.606 5.247 9.909l.389.778c1.425 2.655 2.429 5.149 3.012 7.48-.064 0-.097.032-.097.098 0 .324.129 1.101.389 2.332v.874c.193.714.421 1.426.68 2.137 0 .129.032.293.097.486 0 .26.032.648.097 1.167-.258.841-.422 1.877-.486 3.108-.064 2.396-.129 5.149-.193 8.258-.258.324-.614 1.068-1.068 2.235h1.651c.26-.26.518-.485.778-.681.84-1.101 1.618-1.716 2.332-1.845.258-.064.55-.064.872 0 .13-.195.293-.292.486-.292 4.015-1.555 6.024-.649 6.024 2.721v.097c14.313-.066 28.661-.161 43.039-.292-.064-2.915-.097-4.761-.097-5.537 0-7.579-1.004-18.266-3.012-32.062 2.137-4.729 3.498-10.914 4.08-18.558.521-6.153.486-13.213-.097-21.18-.647-6.93-.972-10.784-.972-11.562 0-9.456.226-23.577.682-42.36.451-17.099.679-26.2.679-27.3a228.55 228.55 0 0 0-1.264-25.844c-.258-2.526-.55-4.89-.873-7.092 2.266-2.202 3.4-4.599 3.4-7.19 0-5.764-1.878-9.716-5.636-11.853-3.237-2.008-7.351-2.429-12.338-1.264l-1.36.389c-2.915-.194-6.315.032-10.201.68h-22.346c-14.445.064-32.258.454-53.437 1.166-1.356-1.222-3.137-2.227-5.34-3.004M498.398 73.187c-.324-.259-.614-.421-.875-.486a97.168 97.168 0 0 1 3.108-.681c-.776.389-1.521.777-2.233 1.167m-7.579 60.139a805.268 805.268 0 0 1 3.4 9.618c-.258.583-.713 1.004-1.36 1.263-1.554-2.267-3.108-5.473-4.662-9.618-1.557-4.599-2.754-7.838-3.596-9.716.324-.324.745-.583 1.264-.777 1.944 2.462 3.594 5.538 4.954 9.23m50.23 17.877l-.388.875c.452.324.13.486-.972.486-.906 0-3.369-3.206-7.385-9.619-5.569-9.198-8.452-13.893-8.646-14.088 2.72.907 5.894 4.049 9.521 9.424 1.943 2.979 4.568 7.287 7.87 12.922m68.302-13.893c1.36.453 2.721.68 4.079.68.649 0 1.264-.032 1.847-.098.843.648 1.75 1.393 2.722 2.235-.066.129-.098.42-.098.874-.129.389-.55.583-1.264.583-1.036 0-3.465-1.424-7.286-4.274m32.936 7.383v-1.458c3.69.389 5.99 2.495 6.897 6.315.453 2.138 1.165 5.538 2.137 10.201-.452.389-.873.616-1.263.681-.842-1.036-1.878-3.789-3.109-8.258-.971-3.692-2.526-6.185-4.662-7.481m-65.97-5.149v-2.138c.713.324 1.65.648 2.817.972-.195.453-.292.875-.292 1.264 0 .518.226 1.23.682 2.137.387.972.582 1.717.582 2.235 0 .647-.032.939-.097.874-.064 0-.129.032-.195.098.389.323.066.485-.972.485-1.231 0-2.04-.939-2.429-2.818a371.793 371.793 0 0 1-.096-3.109m8.55.486c.194.065.422.13.68.194 1.229 2.396 2.072 5.603 2.525 9.619.261 2.397.39 6.088.39 11.075 0 .648-.032.939-.097.875-.131 0-.195.032-.195.097.389.324.064.486-.972.486-1.101 0-1.974-2.656-2.623-7.967-.389-5.376-.582-8.128-.582-8.258-.131-1.165-.161-2.169-.097-3.012.065-1.425.387-2.461.971-3.109m9.327-8.161c.324.193.582.518.776.972a18.154 18.154 0 0 0-1.458-.486c.196-.195.423-.357.682-.486m67.038 36.336c-1.49-3.303-2.235-4.987-2.235-5.053l.195-.777c2.914.518 5.083 3.045 6.509 7.578.777 2.461 1.749 5.992 2.914 10.59v11.755c-.453.325-.875.518-1.264.583-1.036-1.489-1.586-3.918-1.65-7.287 0-3.952-.193-6.51-.583-7.676-.843-2.523-2.139-5.761-3.886-9.713m-269.22-75.199c.13.065.194.454.194 1.166 0 .13-1.749 2.396-5.247 6.801a438.452 438.452 0 0 0-2.915 3.498c-1.101-.323-2.363-.421-3.789-.291a69.941 69.941 0 0 1 2.429-3.109c4.145-5.312 7.157-7.967 9.035-7.967l.293-.098m-12.34 46.246a12.362 12.362 0 0 0 3.109 2.72c-3.238 6.478-5.862 10.914-7.869 13.311-.518-.259-.939-.55-1.263-.875 2.526-6.735 4.534-11.787 6.023-15.156m16.42 3.692h.097c.195.065.486.098.875.098.194.129.291.518.291 1.165 0 .843-1.003 5.895-3.011 15.157-1.102 4.922-2.559 11.399-4.372 19.431-.194.259-.518.42-.972.486h-1.069c-.129-.065-.193-.421-.193-1.069 0-1.943.972-7.384 2.915-16.322 2.071-9.845 3.885-16.16 5.439-18.946m-32.644-14.282l.777 1.166a421.994 421.994 0 0 0-2.234 4.081c-3.173 5.765-5.7 9.844-7.579 12.241-.583-.259-1.004-.55-1.263-.874 1.166-3.304 2.915-7.028 5.247-11.173 1.359-2.527 2.752-4.826 4.177-6.899.26.39.551.876.875 1.458m23.414 86.276c5.57-4.34 9.975-7.676 13.213-10.008l.292-.097c.129.064.193.421.193 1.068 0 1.684-4.792 6.089-14.379 13.214a508.95 508.95 0 0 1-15.739 11.464c-.518-.193-.938-.453-1.263-.777 3.499-3.498 9.393-8.452 17.683-14.864m-19.625-3.208c.259.13.583.195.971.195.195.13.292.518.292 1.166-1.295 5.181-3.433 9.067-6.412 11.659-.453-.064-.777-.129-.971-.194-.195-.064-.292-.42-.292-1.068 0-.907.81-2.915 2.429-6.024 1.684-3.239 3.011-5.15 3.983-5.734m196.936 35.172a7.46 7.46 0 0 0-1.36-.389c-.194 0-.325-.032-.39-.097-.064.129-.161.29-.29.485l2.04.001m57.807-4.082a2.43 2.43 0 0 0-.582-.29c1.683 1.165 3.075 2.688 4.176 4.565h.875c-1.231-1.813-2.719-3.237-4.469-4.275z"/><linearGradient id="a" gradientUnits="userSpaceOnUse" x1="469.019" y1="-30.678" x2="469.019" y2="113.88" gradientTransform="matrix(1 0 0 -1 29.04 379.34)"><stop offset="0" stop-color="#5070ed"/><stop offset=".745" stop-color="#5070ed"/><stop offset=".886" stop-color="#5070ed" stop-opacity=".973"/><stop offset="1" stop-color="#5977ed" stop-opacity=".902"/></linearGradient><path fill="url(#a)" d="M555.137 294.217a1.667 1.667 0 0 1-.486.097h16.323a.916.916 0 0 1-.389-.097c-2.72-.649-4.728-.972-6.023-.972-2.655 0-5.797.322-9.425.972m165.457.096v-3.789c-2.332-.13-4.922-.194-7.772-.194-9.78 0-25.682 1.329-47.703 3.983h55.475m-338.589 0a210.355 210.355 0 0 1-2.818-1.847c-12.306 1.101-21.892 1.653-28.758 1.653-19.107 0-32.774-.907-41-2.722-7.383-.389-13.569-1.004-18.557-1.846a83.621 83.621 0 0 1-6.121-1.262c-3.044.26-6.122.55-9.229.874v5.148h106.483m1.068-.386c-.125.25-.417.381-.874.389h51.104c-3.109-1.296-6.444-2.362-10.007-3.205-3.756-.195-7.902-.292-12.436-.292-7.449 0-16.938.453-28.467 1.36.324.324.615.68.874 1.068-.128.129-.194.357-.194.68z"/><linearGradient id="b" gradientUnits="userSpaceOnUse" x1="469.019" y1="-25.978" x2="469.019" y2="142.011" gradientTransform="matrix(1 0 0 -1 29.04 379.34)"><stop offset="0" stop-color="#5070ed"/><stop offset=".714" stop-color="#5070ed"/><stop offset=".831" stop-color="#5070ed" stop-opacity=".882"/><stop offset="1" stop-color="#5977ed" stop-opacity=".902"/></linearGradient><path fill="url(#b)" d="M558.149 254.091c-.129.064-.228.099-.292.099l-.097.097c-.324.26-.356 1.489-.097 3.69.064.324.161.649.29.972.712 2.008 1.814 3.628 3.304 4.857-1.425-1.229-2.364-2.88-2.817-4.954-.389-1.684-.486-3.27-.291-4.761m6.898-6.606a4.999 4.999 0 0 0-.874-.583h-2.04c-.066.064-.097.129-.097.193.777-.322 1.779-.193 3.011.39m62.957 2.526a15.374 15.374 0 0 0-1.555-2.915h-.875c.585.972 1.101 2.04 1.557 3.207 1.294 3.431 1.586 6.638.873 9.617-.323 1.749-.938 3.11-1.845 4.082.387-.132.843-.261 1.358-.39.649-1.101 1.167-2.525 1.557-4.275.647-2.979.29-6.089-1.07-9.326m-54.698 7.772c0-.843-.097-1.686-.292-2.525a.849.849 0 0 0-.39-.097h-.097c.39.971.617 1.973.682 3.011a.88.88 0 0 0 .097-.389m-2.915-5.829c.261.389.551.777.875 1.165v-.193l-.292-.39c0-.193.032-.354.097-.485-.13.195-.355.161-.68-.097m123.971 5.343h.097a22.666 22.666 0 0 1-.68-1.942 3.538 3.538 0 0 1-.195-.486 26.735 26.735 0 0 0-4.08-.874 25.751 25.751 0 0 1 4.08 2.624c.26.257.52.485.778.678m-41.777 4.47c.193-.194.453-.325.778-.39.906-1.294 1.942-2.979 3.107-5.051a69.972 69.972 0 0 1-3.885 5.441m-.486.97c-.064-.129-.097-.226-.097-.29-.324.322-.646.68-.972 1.068-.131.129-.26.29-.389.486.453.518.68 1.101.68 1.747v.486h2.429c.389-.647.811-1.263 1.264-1.845l-2.429-.292c-.259-.519-.422-.939-.486-1.264a1.223 1.223 0 0 0-.292.195c.072-.072.171-.167.292-.291m9.909-10.686l-.485 1.457c-.907.972-1.457 2.203-1.651 3.692a23.545 23.545 0 0 0-4.565 3.108 63.901 63.901 0 0 1 4.76-2.137l.874-.875c.131-1.101 1.038-3.236 2.722-6.411.193-.454.389-.843.582-1.167a5.767 5.767 0 0 1 1.555-2.72h-1.651c-.585 1.232-1.298 2.916-2.141 5.053m35.851 7.286c.195.778.356 1.589.485 2.43 3.304-.841 5.7-.939 7.19-.291-2.071-1.361-4.63-2.073-7.675-2.139m-22.443-9.52c.064.129.164.258.293.387 1.878-.516 4.694-.064 8.451 1.36.519-.905 2.462-.905 5.83 0 .648.195 1.586.486 2.817.875-.712-2.396-1.068-3.789-1.068-4.179l.097-1.068c2.137.454 3.691 2.526 4.663 6.219.777.258 1.62.518 2.527.778.322.711.712 1.586 1.165 2.622.129.129.228.292.292.485a32.032 32.032 0 0 1-1.457-.582 14.349 14.349 0 0 0-1.847-.778c.064.454.161.939.291 1.458.648 0 1.36.032 2.138.097 5.764.713 8.647 1.749 8.647 3.109 0 .841.873 2.137 2.623 3.887a36.066 36.066 0 0 1 2.622-.097c3.044-.324 4.761-.521 5.15-.585.389.13.679.325.874.585h1.068v-17.684h-1.264c-14.378.131-28.726.226-43.039.292-.066.26-.552.875-1.457 1.847.195.323.391.647.584.972M314.481 263.32c.518 0 1.036.034 1.554.099a21.796 21.796 0 0 1 2.526-1.167.875.875 0 0 1-.098-.389l.972-.583c.648-.389.972-.875.972-1.457a9.94 9.94 0 0 0 1.166 1.167v-.099l-.388-.776a290.203 290.203 0 0 1 4.372-2.139 482.971 482.971 0 0 1 7.772-4.177c-5.57 2.268-9.845 4.048-12.825 5.344-1.23.841-3.238 2.234-6.023 4.177m-38.959-20.5v19.724c1.619.064 3.238.097 4.857.097.259-.258.55-.518.874-.777 10.04-8.355 16.452-13.989 19.237-16.904.259.129.583.193.972.193.194.065.292.422.292 1.068 0 3.046-4.988 8.583-14.962 16.614 2.656 0 5.344.034 8.064.099 5.052-4.406 7.644-6.672 7.772-6.802 6.477-4.729 13.537-7.807 21.18-9.229l.194.29c.195.131.292.519.292 1.167l-.193 1.263c-5.636.646-11.757 3.206-18.363 7.675-2.202 1.49-4.858 3.401-7.967 5.733l11.756.193c1.424-1.748 2.947-3.141 4.565-4.177-.064-.064-.097-.129-.097-.195.259-.064.518-.161.777-.29a16.156 16.156 0 0 1 3.109-1.361c11.27-4.988 21.31-9.229 30.119-12.727-24.225-.521-48.384-1.071-72.478-1.654z"/><linearGradient id="c" gradientUnits="userSpaceOnUse" x1="469.019" y1="-27.377" x2="469.019" y2="121.631" gradientTransform="matrix(1 0 0 -1 29.04 379.34)"><stop offset="0" stop-color="#5070ed"/><stop offset=".714" stop-color="#5070ed"/><stop offset=".831" stop-color="#5070ed" stop-opacity=".882"/><stop offset="1" stop-color="#5977ed" stop-opacity=".902"/></linearGradient><path fill="url(#c)" d="M583.021 269.636a282.94 282.94 0 0 0-8.259.681c5.634.325 11.271.551 16.906.68 1.423-.776 3.302-1.326 5.634-1.651 2.461-.389 4.793-.777 6.996-1.167 1.748-.646 3.917-1.294 6.509-1.942H592.93v.777c.001 1.164-3.303 2.039-9.909 2.622m-12.826-3.401a17.921 17.921 0 0 0-2.622 0 7.057 7.057 0 0 1-2.04-.097h-10.979a3.504 3.504 0 0 0-1.165 0c-7.319-.065-14.605-.098-21.86-.098a1069.86 1069.86 0 0 0-14.283-.097c4.987.841 9.2 1.522 12.631 2.04 1.231-.453 3.271-.55 6.121-.292 2.786.26 6.122.843 10.008 1.749 1.165-.064 2.3-.097 3.4-.097 1.555 0 3.237.032 5.052.097v-.097c.648-.842 1.294-1.36 1.943-1.554.129-.064 4.825-.26 14.087-.585 9.458-.387 14.802-.679 16.031-.872.235-.062.461-.092.68-.099h-10.785c-2.072.002-4.146.002-6.219.002m110.661 8.843h.778c11.659-.778 24.645-1.297 38.959-1.557v-3.108h-1.942a2.153 2.153 0 0 1-.293.68c-.193.324-.646.485-1.358.485h-.971l-.099-.097a8.253 8.253 0 0 1-2.525-.775 8.231 8.231 0 0 1-.68-.196c-6.153 0-12.696.162-19.627.486-.971.389-2.168.582-3.594.582-.842 0-1.715-.097-2.622-.29-1.556.064-3.143.129-4.761.193a6.016 6.016 0 0 1-.875 2.818c-.129.259-.258.518-.39.779m-19.138-2.235l-1.167 1.749c1.036 0 2.042.03 3.014.097a33.481 33.481 0 0 0-1.557-1.943h-.193l-.097.097m-7.968-6.608h-2.429c-.064.26-.161.52-.291.777.776 0 1.49.032 2.137.097.196-.324.39-.614.583-.874m-323.821 4.761a283 283 0 0 0-12.534.485c4.535 0 9.036.032 13.505.097-.324-.193-.647-.387-.971-.582m-13.894-7.577a12.666 12.666 0 0 0-1.554-.099 119.105 119.105 0 0 0-3.886 2.721c3.692-.389 7.319-.679 10.882-.874-.843-.647-1.49-1.231-1.943-1.748h-3.499m-25.163 4.857c-.518-.195-.939-.455-1.263-.777a181.138 181.138 0 0 1 5.246-4.565c-2.72-.064-5.408-.099-8.064-.099a743.839 743.839 0 0 1-4.566 3.499 685.398 685.398 0 0 1-4.372 3.302c6.413-.452 13.116-1.165 20.111-2.137 3.109-.454 6.218-.843 9.327-1.165a38.262 38.262 0 0 1 2.235-3.11l-11.756-.193a716.106 716.106 0 0 0-6.898 5.245m-10.493-5.635c-1.62 0-3.239-.032-4.857-.097v4.177a200.19 200.19 0 0 1 4.857-4.08m104.151 1.943l-12.145-.193a68.626 68.626 0 0 1-.388 3.497c2.59.193 5.279.419 8.064.68.13-.583.13-1.004 0-1.262.389-.585.745-.843 1.068-.778.324.064 1.458.228 3.4.485v-.582l.001-1.847m-52.464.292c.13 0 4.761.357 13.894 1.068 1.878-1.038 3.303-1.554 4.274-1.554 1.555 0 2.786.421 3.692 1.262.454.453.842.778 1.166.972.648.066 1.328.131 2.041.195 1.166-.129 2.494-.292 3.983-.485 1.489-.129 2.461-.129 2.915 0 .518.193 2.008.614 4.469 1.262.194-1.296.486-2.396.875-3.304a314643.4 314643.4 0 0 1-44.789-.776c.582.453 1.198.939 1.845 1.457a158.1 158.1 0 0 1 5.635-.097m121.738 4.76c.646.26 1.068.681 1.262 1.264l-.583 1.165c17.164.064 33.908.195 50.231.389 2.85-.26 5.7-.518 8.549-.776 4.017-.389 7.805-.745 11.368-1.069-4.664-.323-9.133-.873-13.408-1.651l-.193.389c-.13.064-.39.162-.778.291h-1.165c-.129-.064-.195-.422-.195-1.068a22.452 22.452 0 0 0-3.012-.776 566.017 566.017 0 0 0-9.424-2.042c-3.757 0-7.481-.03-11.173-.097-1.556.389-2.429.617-2.624.682a5.023 5.023 0 0 1-1.165-.682c-5.505-.064-11.012-.097-16.517-.097-7.839 1.294-13.927 2.721-18.266 4.275 2.137-.002 4.501-.068 7.093-.197m48.868-2.33l.292-.1c.129.065.194.422.194 1.07 0 .452-.357 1.036-1.068 1.748-1.036.972-2.397 1.489-4.08 1.554-.519-.193-.939-.451-1.264-.775 1.425-2.01 3.4-3.175 5.926-3.497m-81.61-.682c.842 0 1.716-.032 2.624-.097v-1.457c-11.853-.13-23.707-.293-35.56-.486.13.972.227 1.976.291 3.012 3.109.453 7.254.518 12.437.195 9.132-.52 13.861-.778 14.184-.778l.875.097c1.618-.13 3.335-.291 5.149-.486m4.468 3.692c-.583 0-1.036-.324-1.359-.972-2.85 0-5.863.13-9.036.39l-.972.193a37.725 37.725 0 0 1-4.178.778c6.478.451 12.469.842 17.974 1.165 4.145 0 8.258.032 12.339.097a27.14 27.14 0 0 1-2.429-.875c-2.72-1.101-6.51-1.651-11.368-1.651v.39c.455.324.131.485-.971.485m22.152-4.081c.325-.323.648-.615.972-.873-7.448-.064-14.865-.129-22.248-.195v1.36c4.34-.064 7.901.453 10.687 1.554 1.49.583 3.238 1.038 5.246 1.36 1.295-1.229 3.076-2.299 5.343-3.206z"/><path fill="#1A1A1A" d="M571.752 253.8a2.654 2.654 0 0 0-.486-.681 13.886 13.886 0 0 1-.875-1.165c-1.167-1.361-2.396-2.526-3.692-3.498a15.609 15.609 0 0 0-1.651-.971c-1.231-.583-2.234-.712-3.011-.39h-.099c-1.229.454-2.266 1.879-3.108 4.275a13.991 13.991 0 0 0-.68 2.72c-.195 1.491-.099 3.077.291 4.761.453 2.074 1.393 3.725 2.817 4.954l1.36.972.194.099c.842.647 1.749 1.068 2.721 1.263a7.057 7.057 0 0 0 2.04.097c.453-.13.907-.291 1.36-.486.453-.193.905-.421 1.36-.679 1.229-.907 2.104-2.365 2.623-4.372a6.804 6.804 0 0 0 .292-2.526 9.61 9.61 0 0 0-.682-3.011c-.258-.457-.516-.908-.774-1.362z"/><path fill="#657BE4" d="M614.791 240.781c-.194.129-.355.193-.486.193-2.203.842-3.66 2.688-4.372 5.539-.712 3.043-.354 6.218 1.068 9.52 1.167 3.435 3.044 6.09 5.636 7.969.519.389 1.036.711 1.555.971 1.618-.195 2.914-.161 3.886.098.26-.065.486-.13.682-.194.972-.26 2.104-.55 3.4-.874.907-.972 1.521-2.333 1.845-4.082.713-2.979.421-6.187-.873-9.617a21.079 21.079 0 0 0-1.557-3.207c-1.101-1.878-2.493-3.4-4.176-4.565-2.139-1.491-4.146-2.106-6.025-1.847a1.803 1.803 0 0 0-.583.096l.389 2.136-.389-2.136m-7.287-11.951c.778-.972 1.231-2.364 1.36-4.177.454-3.045-.129-6.186-1.749-9.424-1.684-3.304-3.887-5.701-6.605-7.19-2.655-1.684-5.084-1.976-7.287-.874l-.582.388h-.1c-1.683 1.23-2.719 3.109-3.107 5.635-.39 3.045.258 6.218 1.942 9.522 1.686 3.368 3.822 5.797 6.412 7.287 2.786 1.425 5.279 1.586 7.482.485.843-.324 1.586-.875 2.234-1.652l-1.847-1.845 1.847 1.845z"/><linearGradient id="d" gradientUnits="userSpaceOnUse" x1="469.019" y1="-44.411" x2="469.019" y2="117.307" gradientTransform="matrix(1 0 0 -1 29.04 379.34)"><stop offset="0" stop-color="#5070ed"/><stop offset=".745" stop-color="#5070ed"/><stop offset=".886" stop-color="#5070ed" stop-opacity=".973"/><stop offset="1" stop-color="#5977ed" stop-opacity=".902"/></linearGradient><path fill="url(#d)" d="M666.672 321.323a94.811 94.811 0 0 1-9.036-1.264c-5.958-1.101-11.237-1.65-15.835-1.65-5.44 0-12.598.972-21.471 2.914-8.873 2.072-16.001 3.108-21.375 3.108-4.793 0-9.879-.84-15.255-2.525-5.311-1.554-8.711-2.332-10.201-2.332-2.783 0-6.833.485-12.145 1.457-1.877.324-4.08.617-6.605.875 18.524 4.469 38.57 6.704 60.139 6.704 11.143 0 23.253-1.264 36.337-3.789 1.749-.323 6.897-1.49 15.447-3.498m-178.573 58.585c-13.406 2.332-25.39 3.692-35.948 4.081-44.95 1.813-81.642-1.264-110.077-9.229-12.566-4.146-21.277-6.963-26.135-8.454-8.096-2.59-15.156-3.723-21.18-3.4-6.089.195-12.501.811-19.237 1.847v15.642c1.101.455 3.238 1.36 6.412 2.721 5.894 2.008 12.274 3.822 19.14 5.44 21.892 5.507 46.051 8.259 72.478 8.259 7.578 0 19.237-.875 34.977-2.623 15.675-1.685 30.604-2.525 44.789-2.525 15.545 0 26.166.873 31.866 2.623 3.887 1.296 5.83 3.271 5.83 5.926 0 1.685-.452 3.044-1.359 4.082-.972 1.036-2.171 1.554-3.596 1.554-1.554-.389-3.725-.811-6.509-1.264-5.569-.843-14.412-1.262-26.524-1.262-13.472 0-28.563.905-45.274 2.719-16.711 1.814-28.111 2.722-34.199 2.722-25.584 0-51.395-3.4-77.434-10.202-8.096-2.592-14.961-4.696-20.596-6.314v24.968h445.072v-42.263c-.648.195-1.264.356-1.846.486-5.376 2.525-12.048 4.793-20.014 6.801-15.48 4.081-34.232 6.575-56.254 7.481-18.136.712-39.218-1.556-63.249-6.801-24.03-5.378-41.68-7.807-52.95-7.286-12.048.384-24.775 1.811-38.183 4.271m-143.111-20.986c12.76 3.887 25.488 6.575 38.183 8.065 18.588 2.137 41.486 2.654 68.689 1.554 9.262-.389 20.921-1.813 34.977-4.275 14.119-2.268 27.203-3.66 39.251-4.176 11.334-.456 29.309 1.973 53.922 7.286 24.676 5.245 45.339 7.545 61.984 6.897 22.021-.842 44.725-4.924 68.106-12.241 3.95-1.231 7.45-2.268 10.493-3.11v-33.519a510.519 510.519 0 0 0-32.062 6.315c-21.632 5.117-33.907 7.934-36.822 8.453-13.277 2.591-25.551 3.887-36.822 3.887-28.24 0-52.98-3.499-74.227-10.493-13.926-4.536-21.277-6.866-22.056-6.995-8.032-2.139-16.32-3.207-24.871-3.207-8.355 0-14.896.357-19.625 1.068-4.922.907-9.004 1.619-12.243 2.139-13.018 2.137-38.538 3.205-76.558 3.205-45.923 0-75.555-2.04-88.898-6.119-8.485-2.593-13.311-3.985-14.477-4.179a105.053 105.053 0 0 0-6.412-.875v30.896a.724.724 0 0 1 .291-.097c15.48-1.101 28.92-.585 40.32 1.554 4.212.649 13.83 3.305 28.857 7.967m4.469-46.342c-2.202.389-4.372.775-6.509 1.165 11.723.389 25.649.582 41.777.582 12.372 0 23.382-.097 33.033-.29a646.64 646.64 0 0 0-5.149-1.167c-13.278-3.108-23.641-4.662-31.09-4.662-6.348 0-17.035 1.457-32.062 4.372m32.742-18.267H275.522v10.104c3.756.193 7.674.322 11.755.389 2.979.065 5.312.647 6.996 1.748a26.9 26.9 0 0 0 4.566 2.235h5.051c18.654 0 35.074-1.264 49.258-3.789 7.19-1.426 13.732-2.947 19.626-4.565 11.659-.778 24.289.453 37.891 3.69 14.833 3.563 27.236 5.344 37.211 5.344 6.217 0 15.06-.873 26.523-2.623 11.399-1.813 18.784-2.721 22.153-2.721 5.829 0 12.306 1.749 19.431 5.247 7.126 3.433 14.638 5.149 22.54 5.149 11.141 0 19.366-.453 24.678-1.36 5.376-.972 8.907-1.457 10.59-1.457 3.627 0 7.611.777 11.949 2.332 4.342 1.618 9.036 2.429 14.088 2.429 3.175 0 9.845-1.004 20.016-3.012 10.103-2.072 17.424-3.109 21.957-3.109 4.922 0 10.266.681 16.031 2.039a103.251 103.251 0 0 0 17.195 1.458c6.219 0 14.412-1.068 24.581-3.205 10.104-2.203 15.285-3.304 15.546-3.304h5.439v-13.02h-55.476c-.907.131-1.813.26-2.721.389-23.512 3.237-39.639 4.858-48.383 4.858h-5.539c-4.08.518-7.805.777-11.173.777-5.83 0-10.557-1.069-14.185-3.206a53.083 53.083 0 0 1-3.4-.68c-1.036-.324-3.951-1.036-8.744-2.139H554.65c-4.402.843-8.129 1.554-11.173 2.139-11.917 1.943-26.814 2.979-44.692 3.108-15.867 2.396-26.847 3.594-32.934 3.594-7.257 0-13.474-.843-18.655-2.525-2.332-.712-6.412-2.559-12.242-5.537a38.276 38.276 0 0 0-1.652-.778h-51.103z"/><path fill="#362118" d="M651.807 263.03c.074-.07.171-.135.292-.195v-.098c-.121.124-.22.219-.292.293m-1.359.679c0 .066.03.097.097.097.129-.064.29-.161.485-.29l-.582.193m-60.722-74.518c-.456.583-.682.906-.682.971-.972 2.267-1.747 3.756-2.332 4.469-.451.583-1.068 1.004-1.845 1.263v.098c.064.193.162.388.291.583.195.194.421.357.681.486 1.294-.259 3.076-.843 5.344-1.749.776-.13 1.458-.13 2.04 0l.972-.681h1.165c3.626-.194 6.996-1.198 10.104-3.011.129-.065.292-.098.485-.098h.098c.518 0 1.068-.194 1.652-.583.647-.518 2.816-.939 6.509-1.263.064 0 .809-.194 2.235-.583 1.101-.194 2.008-.291 2.719-.291.066 0 2.43.129 7.094.389 2.268.647 3.755 1.619 4.469 2.915.389.193.744.454 1.068.777 1.814-1.23 2.883.163 3.207 4.178.582 1.425 1.717 3.854 3.4 7.287.26.583.518 1.198.776 1.846.064 0 .099.032.099.097 2.008 3.822 3.012 6.736 3.012 8.744v1.166c1.489.842 2.332 1.586 2.525 2.235.322.842.55 2.105.679 3.789.196 1.619.357 2.817.486 3.594 1.556 1.75 3.66 4.404 6.315 7.968 2.268.712 3.4 2.525 3.4 5.44l.874 6.897c.325.583.647 1.165.972 1.75a7.183 7.183 0 0 1-.582 1.262l.193 1.068c0 .907-.226 1.587-.68 2.042a2.682 2.682 0 0 1-.679.776c.451.906.679 2.009.679 3.304-1.165 2.072-2.201 3.757-3.107 5.051a29.16 29.16 0 0 1 1.942-1.068 23.531 23.531 0 0 1 4.565-3.108c.194-1.489.744-2.721 1.651-3.692l.485-1.457c.843-2.137 1.557-3.82 2.139-5.052.454-1.167.811-1.911 1.068-2.235.064-3.108.129-5.861.193-8.258.064-1.231.229-2.268.486-3.108a10.5 10.5 0 0 1-.097-1.167 1.618 1.618 0 0 1-.097-.486 26.684 26.684 0 0 1-.68-2.137v-.874c-.26-1.231-.389-2.008-.389-2.332 0-.065.032-.098.097-.098-.583-2.331-1.587-4.825-3.012-7.48l-.389-.778c-1.36-3.303-3.108-6.606-5.247-9.909a3.775 3.775 0 0 0-.193-.486c-.454-1.166-1.555-2.591-3.304-4.275-.39-.323-.778-.68-1.165-1.068-2.722-2.332-4.535-3.952-5.442-4.857a157.836 157.836 0 0 1-1.458-2.235 126.611 126.611 0 0 0-2.622-3.886c-2.201-3.108-4.05-4.664-5.537-4.664-1.556 0-3.143-.615-4.761-1.845-1.555-1.231-4.404-1.75-8.551-1.555h-.29c-7.708-1.425-16.065-.518-25.067 2.72-3.233 1.163-5.889 2.233-7.961 3.204z"/><linearGradient id="e" gradientUnits="userSpaceOnUse" x1="199.506" y1="-44.411" x2="199.506" y2="117.307" gradientTransform="matrix(1 0 0 -1 29.04 379.34)"><stop offset="0" stop-color="#5070ed"/><stop offset=".745" stop-color="#5070ed"/><stop offset=".886" stop-color="#5070ed" stop-opacity=".973"/><stop offset="1" stop-color="#5977ed" stop-opacity=".902"/></linearGradient><path fill="url(#e)" d="M275.522 392.248c-10.558-2.722-17.262-4.082-20.112-4.082-6.413 0-14.055 1.199-22.929 3.596a233.099 233.099 0 0 0-12.727 3.691c-3.174.648-6.704 1.231-10.591 1.749-4.792.519-13.795.939-27.009 1.264l.291 18.75h93.077v-24.968m-49.356-10.202c.972 0 6.867-1.554 17.683-4.664 4.599-.711 9.975-.776 16.128-.193 6.671.453 11.497 1.391 14.476 2.818.13.064.486.193 1.069.387v-15.642c-17.942 2.396-37.891 6.996-59.849 13.797a9267.329 9267.329 0 0 0-19.042 5.927c9.391-.779 19.237-1.589 29.535-2.43m-44.4-5.733v2.137l.097 1.847a.418.418 0 0 0 0 .389v4.858h.292l-.389-9.231m0-51.686V303.446c12.63-.453 43.881-.129 93.756.972v-10.104h-62.666a3212.974 3212.974 0 0 1-31.09 2.721l-.195 58.099.195 16.227c5.894-1.167 10.914-2.461 15.059-3.887 16.192-5.44 28.79-9.296 37.793-11.562 13.732-3.368 27.366-5.507 40.904-6.412v-30.896c-7.254-.712-16.809-1.068-28.661-1.068-12.112 0-26.459.421-43.041 1.264a442.642 442.642 0 0 0-6.509 2.233c-4.47 1.424-9.651 2.623-15.545 3.594z"/><linearGradient id="f" gradientUnits="userSpaceOnUse" x1="199.603" y1="-30.685" x2="199.603" y2="113.881" gradientTransform="matrix(1 0 0 -1 29.04 379.34)"><stop offset="0" stop-color="#5070ed"/><stop offset=".745" stop-color="#5070ed"/><stop offset=".886" stop-color="#5070ed" stop-opacity=".973"/><stop offset="1" stop-color="#5977ed" stop-opacity=".902"/></linearGradient><path fill="url(#f)" d="M220.725 293.73c-2.656.194-5.279.39-7.869.583h62.666v-5.148a18641.04 18641.04 0 0 0-54.797 4.565m-38.959-15.155v3.69c5.246-.907 12.111-2.3 20.596-4.177h-3.303l-.291-.195c-.13-.129-.195-.516-.195-1.165 7.319-.907 13.763-1.78 19.333-2.622-.064-.129-.097-.325-.097-.585 0-.129.13-.258.389-.387-2.98-.129-6.186-.195-9.619-.195-8.614 0-17.552.356-26.814 1.068v4.568m78.309 3.401c-.518-.195-.939-.454-1.263-.778.064 0 .097-.032.097-.097h-1.166c-12.63 0-27.236 2.429-43.817 7.287 9.457-.583 22.702-1.814 39.737-3.693 7.319-.775 13.602-1.358 18.848-1.747a4.133 4.133 0 0 1-.486-.195c-2.525-.907-6.088-1.424-10.687-1.555-.454.259-.875.518-1.263.778z"/><linearGradient id="g" gradientUnits="userSpaceOnUse" x1="152.774" y1="-40.625" x2="152.774" y2="125.969" gradientTransform="matrix(1 0 0 -1 29.04 379.34)"><stop offset="0" stop-color="#5070ed"/><stop offset=".714" stop-color="#5070ed"/><stop offset=".831" stop-color="#5070ed" stop-opacity=".882"/><stop offset="1" stop-color="#5977ed" stop-opacity=".902"/></linearGradient><path fill="url(#g)" d="M181.863 380.686l-.097 2.818.097 2.04v-4.858z"/><linearGradient id="h" gradientUnits="userSpaceOnUse" x1="152.774" y1="-41.086" x2="152.774" y2="146.896" gradientTransform="matrix(1 0 0 -1 29.04 379.34)"><stop offset="0" stop-color="#5070ed"/><stop offset=".714" stop-color="#5070ed"/><stop offset=".831" stop-color="#5070ed" stop-opacity=".882"/><stop offset="1" stop-color="#5977ed" stop-opacity=".902"/></linearGradient><path fill="url(#h)" d="M181.766 378.45v.778l.097 1.068-.097-1.846z"/><linearGradient id="i" gradientUnits="userSpaceOnUse" x1="199.603" y1="-27.369" x2="199.603" y2="121.63" gradientTransform="matrix(1 0 0 -1 29.04 379.34)"><stop offset="0" stop-color="#5070ed"/><stop offset=".714" stop-color="#5070ed"/><stop offset=".831" stop-color="#5070ed" stop-opacity=".882"/><stop offset="1" stop-color="#5977ed" stop-opacity=".902"/></linearGradient><path fill="url(#i)" d="M272.218 269.539a180.556 180.556 0 0 1 3.304-2.818v-4.177c-31.349-.646-62.602-1.393-93.756-2.235v7.482c8.873-.714 17.974-1.07 27.3-1.07 12.372 0 21.73.551 28.079 1.652.842.13 1.716.291 2.623.486a24.028 24.028 0 0 1 3.012-.195c3.238-.712 5.117-1.101 5.635-1.165 9.78.453 17.715 1.135 23.803 2.04z"/><linearGradient id="j" gradientUnits="userSpaceOnUse" x1="198.292" y1="-25.98" x2="198.292" y2="142.011" gradientTransform="matrix(1 0 0 -1 29.04 379.34)"><stop offset="0" stop-color="#5070ed"/><stop offset=".714" stop-color="#5070ed"/><stop offset=".831" stop-color="#5070ed" stop-opacity=".882"/><stop offset="1" stop-color="#5977ed" stop-opacity=".902"/></linearGradient><path fill="url(#j)" d="M275.522 262.544V242.82c-30.249 2.01-61.468 2.104-93.659.293l-2.72-.196 2.624 35.658v-18.266c31.153.842 62.406 1.588 93.755 2.235z"/></g><path fill="none" stroke="#2E53EA" stroke-width="2" stroke-linecap="round" stroke-linejoin="round" d="M720.594 246.707h-1.264m-540.187-3.79l2.72.196c32.191 1.812 63.411 1.717 93.659-.293 24.094.583 48.253 1.133 72.478 1.653m317.798 2.526h-1.651m55.183-.292c-14.378.131-28.726.226-43.039.292m-227.638 18.363c-7.448-.064-14.865-.129-22.248-.195m160.989 1.068h-.146m-105.755-.583c-5.505-.064-11.012-.097-16.517-.097m-80.446-.971l-12.145-.193m51.3.679c-11.853-.13-23.707-.293-35.56-.486m-93.27-1.65c-2.72-.064-5.408-.099-8.064-.099m22.735.389l-11.756-.193m-17.391-.39c-1.62 0-3.239-.032-4.857-.097m38.959.776c.518 0 1.036.034 1.554.099h3.498m-44.011-.875c-31.349-.646-62.602-1.393-93.756-2.235m187.609 3.983a314643.4 314643.4 0 0 1-44.789-.776m329.164 2.719h-2.429m-64.074 0h-10.736m-.097 0h-6.219m-4.662-.096a7.057 7.057 0 0 0 2.04.097 17.921 17.921 0 0 1 2.622 0m6.316-.001h-.097m50.035-19.139h-.875m-14.766 19.139h-17.877m-28.758-19.333h-2.04m-8.744 19.237a3.504 3.504 0 0 1 1.165 0h10.979m-12.144 0c-7.319-.065-14.605-.098-21.86-.098a1069.86 1069.86 0 0 0-14.283-.097m-20.791-.195c-3.757 0-7.481-.03-11.173-.097"/><path fill="none" stroke="#A8A8FF" stroke-width=".5" stroke-linecap="round" stroke-linejoin="round" d="M720.594 417.216H182.445l-.291-18.75m-.388-14.962l.097 2.04m0-4.858a.418.418 0 0 1 0-.389l-.097-1.068m0-.779v-.873-1.264m-.195-21.18l.195 16.227m0 7.09l.097 1.847m0 .389v4.858"/><path fill="none" stroke="#362118" stroke-width="2" stroke-linecap="round" stroke-linejoin="round" d="M424.462 180.544c-15.416 21.698-39.089 42.295-71.021 61.791m66.844-73.645a99.444 99.444 0 0 0 5.731 11.076m-8.646-17.779c-6.996-17.683-10.396-37.503-10.202-59.459-5.506-8.485-7.287-16.776-5.344-24.873 8.614-8.55 17.294-10.784 26.038-6.704 24.744.842 48.287 3.66 70.633 8.453a362.068 362.068 0 0 1 20.11 4.858c21.375 5.505 43.009 12.5 64.901 20.985l20.985 6.218c34.588-.648 58.457 3.854 71.604 13.504.52.324 1.006.68 1.457 1.069 2.593 2.072 4.6 3.951 6.025 5.635m2.333 4.519c-.082-1.163-.761-2.539-2.042-4.129m-.29 7.189c.711-.323 1.262-.68 1.65-1.068m-3.4 1.651c-2.396.583-5.861.778-10.395.583a2909.393 2909.393 0 0 0-20.889-8.938 553.229 553.229 0 0 0-23.027-4.566c1.36 2.72 3.239 4.243 5.636 4.566 6.995 1.036 12.338 2.429 16.031 4.178 4.535 2.332 3.757 4.372-2.332 6.121-15.092-1.943-25.747-4.501-31.965-7.675-6.152-3.304-11.271-5.182-15.35-5.635h-.39m-1.748-.293c-2.915-.454-4.565-.745-4.955-.874-6.347-1.555-24.45-3.369-54.311-5.441-7.188.453-14.41.68-21.665.68a195.395 195.395 0 0 1-20.306-1.458c-14.251-1.813-26.881-4.955-37.891-9.424 8.421 4.34 18.688 21.342 30.798 51.007 9.911 7.319 15.093 19.367 15.545 36.142l25.845 33.617 22.929-16.517c.647-9.522 5.537-16.874 14.67-22.055 3.629-2.138 6.672-2.786 9.133-1.943 2.462.648 3.854 2.624 4.177 5.926v.68c-.258.454-.226.583.099.389.776-.518 1.488-1.004 2.137-1.457l-.777-1.167m69.758 7.094c-2.593-3.173-5.279-5.894-8.065-8.161m16.809 22.832c-1.36-3.303-3.108-6.606-5.247-9.909m-70.924-11.562c-.519.259-1.036.55-1.555.875m67.427 66.066c.325-.389.647-.746.972-1.068m.583-.681a70.438 70.438 0 0 0 3.886-5.44m-23.414-135.729c-13.408 6.024-23.803 6.445-31.187 1.263M333.33 253.8a471.099 471.099 0 0 0-7.772 4.177c-1.49.714-2.948 1.427-4.372 2.139m116.294-72.091c-5.505 13.018-11.173 22.766-17.002 29.243-6.023 6.413-10.46 14.476-13.31 24.191m243.474 22.543c.129-.196.258-.357.389-.486m-148.067-41.875c1.294-8.42 1.847-16.031 1.651-22.832"/><path fill="none" stroke="#000" stroke-width="2" stroke-linecap="round" stroke-linejoin="round" d="M583.604 197.45l9.037 10.104.582-.388c2.203-1.102 4.632-.81 7.287.874 2.719 1.489 4.922 3.886 6.605 7.19 1.62 3.238 2.203 6.379 1.749 9.424-.129 1.813-.582 3.205-1.36 4.177 5.7 1.813 8.324 5.765 7.869 11.854 1.879-.26 3.887.355 6.025 1.847m-6.607-1.751c-.194.129-.355.193-.486.193-2.203.842-3.66 2.688-4.372 5.539-.712 3.043-.354 6.218 1.068 9.52 1.167 3.435 3.044 6.09 5.636 7.969.519.389 1.036.711 1.555.971m-2.819-24.289c-.193 0-.387.032-.582.098l.389 2.136m-7.676-14.088c-.647.777-1.391 1.328-2.233 1.652-2.203 1.101-4.696.939-7.482-.485-2.59-1.49-4.727-3.919-6.412-7.287-1.685-3.304-2.332-6.477-1.942-9.522.389-2.526 1.425-4.404 3.107-5.635h.1m33.517 56.449c.907-.972 1.521-2.333 1.845-4.082.713-2.979.421-6.187-.873-9.617a21.079 21.079 0 0 0-1.557-3.207c-1.101-1.878-2.493-3.4-4.176-4.565m-13.894-13.701l-1.847-1.845"/><path fill="none" stroke="#392015" stroke-linecap="round" stroke-linejoin="round" d="M579.524 240.587c.906-4.664 3.205-6.704 6.897-6.121 3.626.648 6.962 1.135 10.006 1.457s7.093-1.425 12.145-5.247m-19.721 12.144c.583.196 1.004.162 1.262-.097.714-.777.843-1.489.39-2.137-1.813-.972-3.756-.907-5.83.194a5.27 5.27 0 0 0-.485.777c-.064.258.081.517.438.776m4.515 6.513c1.101-.778 1.943-.972 2.528-.585.451.325.775.972.972 1.943.064.324.097.714.097 1.167a4.163 4.163 0 0 0-1.555.68c-.778.453-1.556.485-2.332.097m.29 5.149c2.398 2.526 6.965-.743 13.701-9.812 2.785-3.693 6.119-6.122 10.006-7.287m-35.559 23.318a136.825 136.825 0 0 1-.778 2.72m-5.245-13.117c.193.195.356.421.486.681l.775 1.361m.682 3.011a6.8 6.8 0 0 1-.292 2.526c-.519 2.007-1.394 3.465-2.623 4.372m6.995-1.554c.129-.582.292-1.197.485-1.847.778-3.107.453-6.121-.972-9.036-1.489-3.043-3.563-5.537-6.218-7.48-2.72-1.878-5.991-2.364-9.813-1.457m10.495 9.423a13.886 13.886 0 0 1-.875-1.165c-1.167-1.361-2.396-2.526-3.692-3.498a15.609 15.609 0 0 0-1.651-.971c-1.231-.583-2.234-.712-3.011-.39h-.099c-1.229.454-2.266 1.879-3.108 4.275a13.991 13.991 0 0 0-.68 2.72c-.195 1.491-.099 3.077.291 4.761.453 2.074 1.393 3.725 2.817 4.954l1.36.972.194.099c.842.647 1.749 1.068 2.721 1.263m2.04.096c.453-.13.907-.291 1.36-.486.453-.193.905-.421 1.36-.679m2.234-9.909c.39.971.617 1.973.682 3.011m-19.82 7.967a15.55 15.55 0 0 0-.583-1.068c-.52-1.102-.874-2.333-1.069-3.693-.647-4.402-.388-8.095.777-11.074 1.101-2.914 2.818-5.07 5.15-6.461"/><path fill="none" stroke="#2D2DFF" stroke-width=".5" stroke-linecap="round" stroke-linejoin="round" d="M321.573 260.892v.099m-3.011 1.261a21.72 21.72 0 0 0-2.526 1.167"/><path fill="none" stroke="#392015" stroke-width="2" stroke-linecap="round" stroke-linejoin="round" d="M542.701 231.259c-9.326 14.122-13.052 25.716-11.173 34.782"/><path fill="none" stroke="#392015" stroke-width=".5" stroke-linecap="round" stroke-linejoin="round" d="M683.868 132.063a1.507 1.507 0 0 1-.29-.388m1.651 6.509a2.714 2.714 0 0 0 .682-1.992m-50.231-14.817c1.024.168 2.028.33 3.011.486 5.899.889 11.179 1.471 15.837 1.75 2.786.647 5.441 1.295 7.967 1.943 10.558 2.785 15.093 2.59 13.602-.583m-37.211-.388c4.987 2.202 8.678 3.626 11.076 4.274 2.46.583 5.731 1.458 9.813 2.624 10.557 4.858 18.007 7.319 22.347 7.383m1.261-.097c.777-.064 1.393-.259 1.846-.583m-46.539-16.323c8.744 3.757 16.388 6.186 22.931 7.287 15.738 5.506 23.154 6.478 22.247 2.915"/><path fill="none" stroke="#9A6243" stroke-width=".5" stroke-linecap="round" stroke-linejoin="round" d="M453.608 118.364c-5.57-7.449-5.311-12.112.777-13.991m-33.227 6.704c.064 25.001 5.183 43.72 15.351 56.156m64.998 74.13c-2.332 7.448-3.821 14.313-4.469 20.599m67.427-54.895c2.654-5.181 5.02-7.092 7.091-5.731m-11.949 7.287c5.18-11.4 10.362-15.675 15.545-12.825M463.52 105.442c23.642 6.024 53.629 9.23 89.966 9.618M440.784 77.072c18.589-1.23 44.563 3.401 77.919 13.894"/><path fill="none" stroke="#2D2DFF" stroke-linecap="round" stroke-linejoin="round" d="M440.298 271.968a786.862 786.862 0 0 0-12.339-.097m-97.058-.293c-4.47-.064-8.971-.097-13.505-.097m346.168 3.207a44.563 44.563 0 0 0-3.014-.097m21.085.487h-.778m-176.143-2.625a6252.173 6252.173 0 0 0-50.231-.389"/></svg>