<svg xmlns="http://www.w3.org/2000/svg" width="285" height="427" viewBox="0 0 285 427"><path fill="#9A6243" d="M88.202 317.68c1.819 2.001 4.608 3.001 8.368 3.001h104.413c3.759 0 4.759-1 3-3.001l-7.186-8.095c-1.818-2.002-4.607-3.002-8.366-3.002h-1.91v3.729-3.729H95.66v3.729-3.729H84.019c-3.82 0-4.79 1-2.911 3.002l7.094 8.095z"/><path fill="#858585" d="M239.363 72.748l-.182 1.728 6.548 51.388.091-1.546 1.547 14.643 23.465 224.013c.183 1.638.849 2.729 2.002 3.274 1.151.547 2.516.758 4.093.638 1.575-.304 2.909-.819 4-1.548 1.153-.909 1.638-2.121 1.457-3.638L252.187 71.656a5.32 5.32 0 0 1-3.273 1.092h-9.551m12.824-1.092c.184-.182.395-.394.638-.637 1.03-1.212 1.546-2.667 1.546-4.366 0-1.637-.516-3.031-1.546-4.183-1.092-1.212-2.395-1.819-3.911-1.819H31.175c-1.515 0-2.819.607-3.911 1.819-1.091 1.152-1.637 2.546-1.637 4.183 0 1.698.545 3.153 1.637 4.366.364.364.728.667 1.092.91a5.105 5.105 0 0 0 2.819.819h217.738a5.328 5.328 0 0 0 3.274-1.092m-223.831.273l-.819 8.459 6.003 70.942 12.187 211.372c.122 1.636.789 2.757 2.001 3.364 1.152.605 2.546.879 4.184.819 1.577-.061 2.91-.516 4.001-1.364 1.091-.667 1.606-1.85 1.546-3.548L40.816 72.748h-9.642a5.104 5.104 0 0 1-2.818-.819m5.184 79.401l-6.003-70.942-24.92 258.666c-.182 1.575.303 2.789 1.455 3.638 1.091.727 2.456 1.182 4.093 1.364 1.637.061 3.001-.183 4.093-.729 1.092-.484 1.729-1.577 1.911-3.273L33.54 151.33m212.189-25.467l-6.548-51.388-26.194 265.214c-.182 1.577.334 2.759 1.545 3.548 1.274.787 2.729 1.181 4.367 1.181 1.818-.12 3.152-.302 4.002-.545.847-.364 1.425-1.364 1.729-3l21.099-215.01z"/><path fill="none" stroke="#333" stroke-width="3" stroke-linecap="round" stroke-linejoin="round" d="M252.187 71.656c.184-.182.395-.394.638-.637 1.03-1.212 1.546-2.667 1.546-4.366 0-1.637-.516-3.031-1.546-4.183-1.092-1.212-2.395-1.819-3.911-1.819H31.175c-1.515 0-2.819.607-3.911 1.819-1.091 1.152-1.637 2.546-1.637 4.183 0 1.698.545 3.153 1.637 4.366.364.364.728.667 1.092.91a5.105 5.105 0 0 0 2.819.819h217.738a5.328 5.328 0 0 0 3.274-1.092l30.197 290.043c.181 1.517-.304 2.729-1.457 3.638-1.091.729-2.425 1.244-4 1.548-1.577.12-2.941-.091-4.093-.638-1.153-.546-1.819-1.637-2.002-3.274L247.367 138.96l-1.638-13.097-21.1 215.01c-.304 1.636-.882 2.636-1.729 3-.85.243-2.184.425-4.002.545-1.639 0-3.093-.394-4.367-1.181-1.211-.789-1.727-1.971-1.545-3.548L239.18 74.475l.182-1.728m6.367 53.116l.091-1.546 1.547 14.643m-1.638-13.097l-6.548-51.388m-212.28-1.727l.636 7.64.819-8.459m-.819 8.459l6.003 70.942 12.187 211.372c.122 1.636.789 2.757 2.001 3.364 1.152.605 2.546.879 4.184.819 1.577-.061 2.91-.516 4.001-1.364 1.091-.667 1.606-1.85 1.546-3.548L40.816 72.748m-13.279 7.64L2.617 339.054c-.182 1.575.303 2.789 1.455 3.638 1.091.727 2.456 1.182 4.093 1.364 1.637.061 3.001-.183 4.093-.729 1.092-.484 1.729-1.577 1.911-3.273L33.54 151.33"/><g><path fill="none" stroke="#1F140E" stroke-width="3" stroke-linecap="round" stroke-linejoin="round" d="M95.66 306.583H84.019c-3.82 0-4.79 1-2.911 3.002l7.094 8.095c1.819 2.001 4.608 3.001 8.368 3.001h104.413c3.759 0 4.759-1 3-3.001l-7.186-8.095c-1.818-2.002-4.607-3.002-8.366-3.002h-1.91v3.729m-90.861-3.729v3.729m90.861-237.564v233.835H95.66V72.748"/></g></svg>