
<svg xmlns="http://www.w3.org/2000/svg" version="1.1" xmlns:xlink="http://www.w3.org/1999/xlink" preserveAspectRatio="none" x="0px" y="0px" width="285px" height="427px" viewBox="0 0 285 427">
<defs>
<g id="Layer0_0_FILL">
<path fill="#755B46" stroke="none" d="
M 324.75 44.15
Q 324.65 43.15 324 40.2 322.9279296875 35.7166015625 321.25 32.8 321.2431640625 32.7248046875 321.2 32.65 319.15 29.1 315.7 26.6 303.5 27.1 293.35 34.2 280.2 43.35 272.3 62.1 275.1 63.4 278.75 69.65 280.25 72.05 284 74.95 286.65 76.95 291.1 80.45 293.2 80.85 291.55 70.05 290.85 65.55 290.8 60.2 290.9 54.7 290.9 52.35 292.7 46.65 294.9 43.15 297.4 39.1 301.4 36.75 297.4 39.1 294.9 43.15 292.7 46.65 290.9 52.35 290.9 54.7 290.8 60.2 290.85 65.55 291.55 70.05 293.2 80.85 291.1 80.45 286.65 76.95 284 74.95 280.25 72.05 278.75 69.65 274.05 78.25 256.35 80.45 246.35 81.6 218.85 81.1 192.05 80.65 179.45 82.4 159.35 85.35 151.3 94.95
L 143.5 105.15
Q 135.65 114.3 135.2 120.95 141.8 144.95 138.3 161.6 134.85 177.8 121.05 185.85 122.45 201.6 122.7 208.3 123.05 217.85 122 222.9 122.15 227.85 123.8 230.7 124.1 231.15 124.4 231.55 129.75 228 131.75 220.55 129.85 206.25 133.05 198 135.45 191.75 141.45 187.15 151.25 179.5 156.15 174.85 164.65 166.7 170.2 154.85 170.5 154.2 170.8 153.65 170.9 153.45 171 153.15 178.9 132.75 175.15 111.85 178.9 132.75 171 153.15 177.7 139.6 186 136 186.4 135.5 187.95 135 189.45 134.6 189.55 134.5 198.6 131.8 212.3 137.35 216.7 139.15 224.35 142.95 233.4 147.3 236.7 148.8 251.4 155.3 261.3 154.45 260.85 149.05 259.35 140.2 257.55 129.85 256.7 124.3 257.55 129.85 259.35 140.2 260.85 149.05 261.3 154.45 265.25 195.95 257.1 209.95 262.6 214.1 262.3 232.65 263 234.4 264.15 235.75 268.95 234.45 272.2 230.5 273.35 229.25 274.2 227.65
L 273.55 223.95 273.05 221.45 271.15 210.95
Q 273.5 201.4 275.7 188 278.15 172.7 278.95 168.9 281.75 155.6 287.75 146.9 288.65 138.35 291.85 130.1 295.95 120.65 298.15 115.55 306.5 96.1 309.2 72.2 308.5 71.75 305.6 70.15 302.45 68.3 300.15 66.3 296.75 63.35 295.25 59.3 294.05 55.85 293.95 50.85 294.05 55.85 295.25 59.3 296.75 63.35 300.15 66.3 302.45 68.3 305.6 70.15 308.5 71.75 309.2 72.2 310.85 73.05 314 73.95 317.2 74.8 318.95 74.45 320.75 75.15 321.65 75.35 313.35 71.45 311.05 66.95 309.2 63.2 309.05 63.05 307.35 60.4 304.15 57.85 307.35 60.4 309.05 63.05 309.2 63.2 311.05 66.95 313.35 71.45 321.65 75.35 325.2939453125 76.34375 328.45 75.8
L 328.45 74.85
Q 326.8654296875 74.1162109375 325.65 72.05 325.25 71.3 325 70.65 323.1 65.75 324.4 62.65 324.65 62 324.85 61.25
L 324.85 61.2
Q 325.7 58.2 325.45 53.3 325.44296875 53.1201171875 325.4 52.95 325.1873046875 46.870703125 324.75 44.15
M 322 61.2
L 321.75 61.2 322 61.2
M 322 64.1
L 321.75 64.1 322 64.1
M 322 66.9
L 321.75 66.9 322 66.9
M 322.7 70.15
L 322.4 70.15 322.7 70.15
M 307.8 44.55
Q 309.9078125 44.031640625 313.05 42 313.9443359375 41.456640625 314.9 40.75 315.4744140625 40.376171875 316.05 39.95 319.85 40.55 321.8 44.9 314.35 50.8 307.8 44.55
M 324.65 32.75
Q 324.6619140625 32.7748046875 324.65 32.8 326.65625 36.91171875 327.7 38.85 328.04765625 39.4982421875 328.45 40.1
L 328.45 28.25
Q 324.8666015625 26.834375 320.15 26.6 322.7 29.1 324.65 32.75
M 151.3 94.95
Q 146.2 97.1 140.35 96.7 136.7 96.45 130.8 94.8 124.85 93.1 122.8 92.95 118.95 92.65 116.7 94.95 118.55 98.2 126.5 101.3 134.65 104.4 143.5 105.15
L 151.3 94.95 Z"/>

<path fill="#000000" stroke="none" d="
M 313.05 42
Q 312.5 42.805859375 312.5 43.75 312.5 45.05 313.45 45.95 314.3 46.85 315.6 46.85 316.85 46.85 317.8 45.95 318.65 45.05 318.65 43.75 318.65 42.5 317.8 41.55 316.85 40.7 315.6 40.7 315.246484375 40.7 314.9 40.75 313.9443359375 41.456640625 313.05 42
M 313.8 44.45
Q 313.8 44.4 313.8 44.3 313.8 44.1 313.85 43.8 313.85 43.95 313.9 44.1 313.95 44.15 313.95 44.25 314 44.35 314 44.45 314.25 44.75 314.5 44.95 315 45.5 315.8 45.55 315.9 45.55 315.95 45.55 316.1 45.55 316.2 45.5 315.9 45.75 315.55 45.75 315.45 45.8 315.35 45.8 314.7 45.8 314.3 45.35 313.9 44.95 313.8 44.45
M 316.05 42.65
Q 316.05 42.45 316.2 42.3 316.3 42.2 316.45 42.2 316.65 42.2 316.8 42.3 316.9 42.45 316.9 42.65 316.9 42.8 316.8 42.9 316.65 43.05 316.45 43.05 316.3 43.05 316.2 42.9 316.05 42.8 316.05 42.65 Z"/>

<path fill="#FFFFFF" stroke="none" d="
M 316.2 42.3
Q 316.05 42.45 316.05 42.65 316.05 42.8 316.2 42.9 316.3 43.05 316.45 43.05 316.65 43.05 316.8 42.9 316.9 42.8 316.9 42.65 316.9 42.45 316.8 42.3 316.65 42.2 316.45 42.2 316.3 42.2 316.2 42.3 Z"/>

<path fill="#CCCCCC" stroke="none" d="
M 313.8 44.3
Q 313.8 44.4 313.8 44.45 313.9 44.95 314.3 45.35 314.7 45.8 315.35 45.8 315.45 45.8 315.55 45.75 315.9 45.75 316.2 45.5 316.1 45.55 315.95 45.55 315.9 45.55 315.8 45.55 315 45.5 314.5 44.95 314.25 44.75 314 44.45 314 44.35 313.95 44.25 313.95 44.15 313.9 44.1 313.85 43.95 313.85 43.8 313.8 44.1 313.8 44.3 Z"/>

<path fill="#D6D6D6" stroke="none" d="
M 313.05 42
Q 309.9078125 44.031640625 307.8 44.55 314.35 50.8 321.8 44.9 319.85 40.55 316.05 39.95 315.4744140625 40.376171875 314.9 40.75 315.246484375 40.7 315.6 40.7 316.85 40.7 317.8 41.55 318.65 42.5 318.65 43.75 318.65 45.05 317.8 45.95 316.85 46.85 315.6 46.85 314.3 46.85 313.45 45.95 312.5 45.05 312.5 43.75 312.5 42.805859375 313.05 42 Z"/>

<path fill="#F3F3F3" stroke="none" d="
M 324.65 32.8
Q 324.6619140625 32.7748046875 324.65 32.75 322.7 29.1 320.15 26.6 320.05 26.6 319.95 26.6 317.8 26.45 315.7 26.6 319.15 29.1 321.2 32.65 321.2431640625 32.7248046875 321.25 32.8 322.9279296875 35.7166015625 324 40.2 324.65 43.15 324.75 44.15 325.1873046875 46.870703125 325.4 52.95 325.44296875 53.1201171875 325.45 53.3 325.7 58.2 324.85 61.2
L 324.85 61.25
Q 324.65 62 324.4 62.65 323.1 65.75 325 70.65 325.25 71.3 325.65 72.05
L 326 71.95 325.65 72.05
Q 326.8654296875 74.1162109375 328.45 74.85
L 328.45 44.4
Q 327.083203125 42.8705078125 326.65 41.6 327.083203125 42.8705078125 328.45 44.4
L 328.45 40.1
Q 328.04765625 39.4982421875 327.7 38.85 326.65625 36.91171875 324.65 32.8
M 325.85 67.9
L 325.6 67.9 325.85 67.9
M 328.1 68.95
L 327.85 68.95 328.1 68.95
M 325.35 64.95
L 325.05 64.95 325.35 64.95
M 326.95 63.35
L 326.7 63.35 326.95 63.35
M 327.1 66.1
L 326.8 66.1 327.1 66.1
M 282.4 239.05
Q 282.65 239 282.9 238.95 283.45 238.9 285.7 238.35 284.15 230.75 274.2 227.65 273.35 229.25 272.2 230.5 268.95 234.45 264.15 235.75 267.8 240.15 276.3 239.8 276.9 239.75 277.5 239.7 277.6 236.25 273.75 232.4 277.6 236.25 277.5 239.7 277.7 239.7 277.95 239.7 279.55 239.55 282.4 239.05 281.9 235.45 276.4 231.3 281.9 235.45 282.4 239.05
M 288.1 225.45
Q 290.05 224.85 292.15 223.85 289.85 215.85 279.5 215.95 278.2 220.6 273.05 221.45
L 273.55 223.95
Q 279.65 227.7 287.25 225.65 287.75 225.55 288.1 225.45 286.65 221.55 282.35 219.2 286.65 221.55 288.1 225.45
M 135 234.6
Q 135.5 230.6 133.1 227.25 135.5 230.6 135 234.6 137.1 234.55 139.8 234.05 140.05 229.35 136.45 226.15 140.05 229.35 139.8 234.05 141.5 233.8 143.4 233.4 145.1 231.4 142 227.75 138.8 223.9 131.75 220.55 129.75 228 124.4 231.55 125.7 233.35 127.45 233.4 129.7 234.25 133.4 234.55 134.1 234.6 135 234.6
M 157.05 209.7
Q 154.4 213.25 149.55 213.2
L 150.6 217.35
Q 155.25 221.45 165.8 219.05 166.15 218.95 166.4 218.95 163.65 214.45 158.8 213.3 163.65 214.45 166.4 218.95 166.8 218.85 167.2 218.75 169.35 218.15 171.6 217.35 169.95 210.95 157.05 209.7
M 314 73.95
Q 310.85 73.05 309.2 72.2 306.5 96.1 298.15 115.55 295.95 120.65 291.85 130.1 288.65 138.35 287.75 146.9 290.35 143.05 293.55 140.05 294.3 139.2 294.95 138.2 299.35 132.05 302.7 123.75 305.25 117.4 309.45 106.35 313.3 96.25 315 87.55 316.25 81.4 318.95 74.45 317.2 74.8 314 73.95 Z"/>

<path fill="#4F3E2F" stroke="none" d="
M 294.95 138.2
Q 294.3 139.2 293.55 140.05 290.35 143.05 287.75 146.9 281.75 155.6 278.95 168.9 278.15 172.7 275.7 188 273.5 201.4 271.15 210.95
L 273.05 221.45
Q 278.2 220.6 279.5 215.95 276.75 212.7 276.85 199.2 281.6 165.75 294.95 138.2
M 165.35 173.35
Q 176.3 163.45 179.6 158.9 186.75 148.8 186 136 177.7 139.6 171 153.15 170.9 153.45 170.8 153.65 170.5 154.2 170.2 154.85 164.65 166.7 156.15 174.85 151.25 179.5 141.45 187.15 142.8 190 144.95 197.45 148.75 210.65 149.55 213.2 154.4 213.25 157.05 209.7 151.3 196.55 154.45 187.45 156.6 181.25 165.35 173.35 Z"/>
</g>

<path id="Layer0_0_1_STROKES" stroke="#202020" stroke-width="1" stroke-linejoin="round" stroke-linecap="round" fill="none" d="
M 282.09998397827144 98.30825653076172
Q 281.56963013410564 97.51504284441471 281.1113632202148 96.66055526733399 279.73553266525266 94.10558849573135 277.1239261627197 88.68568115234375 277.1066767901182 88.65246967375279 277.0909721374511 88.61977310180664 274.52055816650386 83.80848541259766 271.15924758911126 80.5130828857422
M 272.5433166503906 88.48795700073242
Q 269.8410865783691 83.80848541259766 265.29343109130855 80.5130828857422
M 272.6421787261962 88.68568115234375
Q 272.60021383464334 88.58656162321567 272.5433166503906 88.48795700073242
M 276.2341674804687 98.44007263183595
Q 274.82100619375706 92.530231615901 272.6421787261962 88.68568115234375
M 277.22278823852537 103.64680862426758
Q 277.0909721374511 102.32864761352539 276.2341674804687 98.44007263183595
M 278.11254692077637 115.24662551879884
Q 277.79922622740264 107.233133405447 277.22278823852537 103.64680862426758
M 278.1455009460449 115.70798187255859
Q 278.1362326264381 115.47086736261845 278.11254692077637 115.24662551879884
M 277.35460433959963 126.12145385742188
Q 278.4750411987304 122.16697082519532 278.1455009460449 115.70798187255859
M 276.76143188476556 128.03278732299805
Q 277.0909721374511 127.17598266601563 277.35460433959963 126.18736190795899
M 277.5523284912109 138.57807540893555
Q 275.0478225708008 132.11908645629882 276.76143188476556 128.03278732299805
M 278.4091331481933 140.42350082397462
Q 277.88186874389646 139.43488006591798 277.5523284912109 138.57807540893555
M 282.09998397827144 144.1143516540527
Q 280.0112651735544 143.14709952175616 278.4091331481933 140.42350082397462
M 13.129229736328142 350.6701820373535
Q 20.181391143798834 345.99071044921874 22.81771316528321 336.17041091918946
M 74.29190063476565 247.9854393005371
Q 74.42371673583986 247.72180709838864 74.55553283691407 247.32635879516602
M 222.0577499389648 360.42457351684567
Q 220.27823257446292 360.95183792114256 220.27823257446292 361.1495620727539
M 217.5760025024414 330.10687026977536
Q 215.86239318847655 336.23631896972654 209.07386398315433 337.3567558288574
M 56.167186737060575 321.8683639526367
Q 52.67406005859377 326.5478355407715 46.28097915649417 326.48192749023434
M 27.101736450195318 354.69057312011716
Q 27.760816955566412 349.4179290771484 24.59723052978515 345.0020896911621
M 33.42890930175784 353.965584564209
Q 33.42890930175784 354.29512481689454 33.42890930175784 354.69057312011716
M 29.013069915771467 343.5521125793457
Q 33.75844955444339 347.7702278137207 33.42890930175784 353.965584564209
M 210.5897491455078 345.529354095459
Q 209.469312286377 347.6384117126465 207.95342712402342 349.2861129760742 203.6694038391113 354.4928489685058 197.3422309875488 356.2064582824707
M 221.3986694335937 360.55638961791993
Q 220.73958892822262 355.811009979248 213.48970336914059 350.340641784668
M 214.93968048095704 361.4131942749023
Q 215.0714965820313 356.8655387878418 209.99657669067383 351.7906188964844
M 228.91218719482427 342.62939987182614
Q 227.000853729248 337.48857192993165 221.3327613830567 334.39089355468747
M 68.49199218750002 334.0613533020019
Q 64.867049407959 328.1296287536621 58.4739685058594 326.6137435913086"/>

<path id="Layer0_0_2_STROKES" stroke="#202020" stroke-width="2" stroke-linejoin="round" stroke-linecap="round" fill="none" d="
M 271.15924758911126 80.5130828857422
Q 271.0274314880371 80.5130828857422 270.89561538696285 80.5130828857422 268.0615692138672 80.31535873413085 265.29343109130855 80.5130828857422
M 282.09998397827144 82.72100257873535
Q 277.37648787200453 80.8220268726349 271.15924758911126 80.5130828857422
M 282.09998397827144 103.97634887695312
Q 280.2983256280422 101.96023190915585 279.7272941589355 100.285498046875
M 216.58738174438477 137.25991439819336
Q 218.56462326049805 140.42350082397462 223.50772705078126 144.24616775512698 227.000853729248 146.88248977661135 232.86667022705083 151.496053314209 235.63480834960936 152.02331771850584 233.4598426818848 137.78717880249025 232.53712997436529 131.8554542541504 232.47122192382815 124.8032928466797 232.6030380249023 117.55340728759766 232.6030380249023 114.45572891235352 234.97572784423826 106.94221115112305 237.87568206787105 102.32864761352539 241.17108459472652 96.99009552001954 246.44372863769527 93.8924171447754
M 261.8003044128418 100.84571647644043
Q 257.65839536190026 103.49079191088677 254.87995910644534 104.17407302856445 263.51391372680666 112.41257934570312 273.33421325683594 104.63542938232422 270.7637992858887 98.9014289855957 265.75478744506836 98.1105323791504 264.9960725039243 98.67229552865028 264.2718563079834 99.1980152130127 262.97918317615984 100.09652730822563 261.8003044128418 100.84571647644043 Z
M 265.29343109130855 80.5130828857422
Q 249.2118667602539 81.17216339111329 235.83253250122075 90.53110656738282 218.49871520996092 102.59227981567383 208.08524322509768 127.30779876708985 211.77609405517583 129.0214080810547 216.58738174438477 137.25991439819336 210.3920249938965 148.59609909057616 187.06057510375982 151.496053314209 173.87896499633788 153.01193847656248 137.62953720092773 152.35285797119138 102.30282211303714 151.75968551635742 85.69399337768553 154.06646728515625 59.19895706176757 157.95504226684568 48.587760925293 170.60938796997073
L 38.30610504150391 184.05463027954102
Q 27.95854110717775 196.11580352783204 27.365368652343733 204.8815742492676 36.065231323242216 236.51743850708004 31.45166778564456 258.4648193359375 26.90401229858398 279.81902770996095 8.713390350341797 290.4302238464355 10.55881576538087 311.191259765625 10.888356018066418 320.02293853759767 11.349712371826172 332.6113761901855 9.96564331054688 339.2680892944336 10.16336746215822 345.7929862976074 12.338333129882812 349.5497451782226 12.733781433105463 350.14291763305664 13.129229736328142 350.6701820373535
M 22.81771316528321 336.17041091918946
Q 20.31320724487304 317.32070846557616 24.531322479248075 306.4458801269531 27.69490890502928 298.20737380981444 35.603874969482405 292.1438331604004 48.521852874755865 282.05990142822264 54.980841827392595 275.93045272827146 66.18521041870119 265.1874404907226 73.5010040283203 249.5672325134277 73.89645233154297 248.71042785644528 74.29190063476565 247.9854393005371
M 80.02590103149416 192.88630905151365
Q 84.96900482177736 220.43587417602538 74.55553283691407 247.32635879516602
M 273.13648910522454 144.7734321594238
Q 262.1957527160645 139.63260421752932 259.1639823913574 133.70087966918948 256.72538452148433 128.75777587890627 256.52766036987305 128.56005172729493 254.28678665161138 125.06692504882812 250.0686714172363 121.70561447143555
M 236.623429107666 112.47848739624024
Q 236.75524520874026 119.06929244995118 238.33703842163087 123.61694793701172 240.31427993774415 128.95550003051758 244.79602737426754 132.84407501220704 247.8277976989746 135.48039703369142 251.98000488281255 137.91899490356445 255.80267181396485 140.02805252075194 256.72538452148433 140.62122497558596 258.900350189209 141.7416618347168 263.05255737304685 142.9280067443848 267.27067260742183 144.04844360351564 269.57745437622066 143.58708724975588 271.9501441955566 144.5097999572754 273.13648910522454 144.7734321594238 277.93979574143884 146.08335466384887 282.09998397827144 145.3995586395264
M 269.57745437622066 143.58708724975588
Q 266.0184196472168 152.74830627441406 264.37071838378904 160.85499649047853 262.12984466552734 172.32299728393554 257.0549247741699 185.63642349243162 251.51864852905274 200.2021026611328 248.15733795166014 208.5724250793457 243.74149856567388 219.51316146850587 237.9415901184082 227.61985168457028 220.34414062500005 263.93518753051757 214.08287582397466 308.0276733398437 213.9510597229004 325.82284698486325 217.5760025024414 330.10687026977536 231.2189689636231 329.97505416870115 234.25073928833004 340.52034225463865 231.4826011657715 341.83850326538084 228.91218719482427 342.62939987182614 228.45083084106446 342.7612159729004 227.79175033569337 342.8930320739746 217.7737266540527 345.59526214599606 209.73294448852542 340.65215835571286
L 210.5897491455078 345.529354095459
Q 223.70545120239254 349.61565322875975 225.74860076904295 359.63367691040037 222.78273849487303 360.3586654663086 222.0577499389648 360.42457351684567
M 94.32794799804688 224.7198974609375
Q 94.85521240234377 224.0608169555664 96.89836196899412 223.4017364501953 98.8756034851074 222.87447204589841 99.00741958618167 222.7426559448242 110.93677673339843 219.18362121582032 128.99558258056643 226.49941482543943 134.795491027832 228.8721046447754 144.87942276000976 233.88111648559567 156.80877990722658 239.61511688232423 161.15871124267576 241.5923583984375 180.53567810058595 250.16040496826173 193.58547210693362 249.03996810913083 192.99229965209966 241.92189865112306 191.01505813598638 230.25617370605465 188.64236831665042 216.61320724487302 187.5219314575195 209.29741363525392
M 56.167186737060575 321.8683639526367
Q 48.587760925293 304.53454666137696 52.73996810913084 292.539281463623 55.57401428222656 284.3666831970215 67.1079231262207 273.9532112121582 81.54178619384768 260.9034172058105 85.89171752929687 254.9057846069336 95.31656875610352 241.5923583984375 94.32794799804688 224.7198974609375 83.3872116088867 229.46527709960935 74.55553283691407 247.32635879516602
M 228.45083084106446 239.08785247802734
Q 229.63717575073238 227.81757583618162 233.85529098510747 216.94274749755857 239.25975112915037 204.48612594604492 242.15970535278316 197.76350479125978 253.16634979248047 172.1252731323242 256.72538452148433 140.62122497558596
M 237.9415901184082 227.61985168457028
Q 237.0847854614258 228.93801269531247 236.09616470336917 230.05844955444337 231.8780494689942 234.01293258666993 228.45083084106446 239.08785247802734 220.54186477661133 250.55585327148435 216.8510139465332 268.08739471435547 215.7964851379394 273.09640655517575 212.56699066162108 293.26427001953124 209.6670364379883 310.92762756347656 206.5693580627441 323.5160652160644
L 209.07386398315433 337.3567558288574
M 48.587760925293 170.60938796997073
Q 41.865139770507795 173.44343414306638 34.15389785766601 172.91616973876955 29.342610168457014 172.586629486084 21.565460205078153 170.4116638183594 13.722402191162104 168.17079010009763 11.020172119140625 167.97306594848635 5.9452522277832145 167.57761764526367 2.9793899536132926 170.60938796997073 5.417987823486328 174.89341125488284 15.897367858886724 178.9797103881836 26.640380096435564 183.06600952148438 38.30610504150391 184.05463027954102
M 35.603874969482405 292.1438331604004
Q 37.3833923339844 295.9005920410156 40.21743850708006 305.7208915710449 45.226450347900396 323.1206169128418 46.28097915649417 326.48192749023434
M 75.34642944335937 331.95229568481443
Q 73.17146377563475 323.5160652160644 56.167186737060575 321.8683639526367
M 69.54652099609373 333.7977210998535
Q 72.38056716918945 333.0068244934082 75.34642944335937 331.95229568481443
M 68.49199218750002 334.0613533020019
Q 69.0192565917969 333.9295372009277 69.54652099609373 333.7977210998535
M 67.70109558105472 334.1931694030762
Q 68.16245193481447 334.0613533020019 68.49199218750002 334.0613533020019
M 47.66504821777343 331.95229568481443
Q 53.794496917724615 337.3567558288574 67.70109558105472 334.1931694030762
M 46.28097915649417 326.48192749023434
L 47.66504821777343 331.95229568481443
M 33.42890930175784 353.965584564209
Q 35.66978302001954 353.63604431152345 38.174288940429705 353.10877990722656 40.4151626586914 350.4724578857422 36.32886352539063 345.6611701965332 32.11074829101565 340.5862503051758 22.81771316528321 336.17041091918946
M 13.129229736328142 350.6701820373535
Q 14.84283905029298 353.04287185668943 17.14962081909181 353.10877990722656 20.1154830932617 354.2292167663574 24.99267883300783 354.6246650695801 25.915391540527338 354.69057312011716 27.101736450195318 354.69057312011716 29.8698745727539 354.6246650695801 33.42890930175784 353.965584564209
M 222.0577499389648 360.42457351684567
Q 221.72820968627926 360.4904815673828 221.3986694335937 360.55638961791993 217.64191055297854 361.215470123291 215.532852935791 361.4131942749023 215.20331268310545 361.4131942749023 214.93968048095704 361.4131942749023 214.14878387451168 361.47910232543944 213.35788726806643 361.5450103759766 202.15351867675784 362.0063667297363 197.3422309875488 356.2064582824707 195.82634582519532 354.42694091796875 194.9036331176758 352.1201591491699 195.2990814208985 327.6682723999023 188.04919586181646 322.19790420532223 198.79220809936524 303.7436500549316 193.58547210693362 249.03996810913083
M 209.07386398315433 337.3567558288574
L 209.73294448852542 340.65215835571286"/>

<path id="Layer0_0_3_STROKES" stroke="#333333" stroke-width="1.4" stroke-linejoin="round" stroke-linecap="round" fill="none" d="
M 277.35460433959963 126.18736190795899
L 277.35460433959963 126.12145385742188
M 278.8704895019531 140.2916847229004
L 278.4091331481933 140.42350082397462
M 278.6727653503418 134.95313262939453
L 278.3432250976563 134.95313262939453
M 281.63862762451174 136.33720169067385
L 281.3090873718262 136.33720169067385
M 278.0136848449707 131.0645576477051
L 277.61823654174805 131.0645576477051
M 280.12274246215816 128.95550003051758
L 279.7932022094726 128.95550003051758
M 280.32046661376955 132.58044281005857
L 279.9250183105469 132.58044281005857
M 273.59784545898435 126.12145385742188
L 273.2683052062988 126.12145385742188
M 273.59784545898435 129.9441207885742
L 273.2683052062988 129.9441207885742
M 273.59784545898435 133.63497161865234
L 273.2683052062988 133.63497161865234
M 274.52055816650386 137.91899490356445
L 274.1251098632812 137.91899490356445"/>

<path id="Layer0_0_4_STROKES" stroke="#000000" stroke-width="2" stroke-linejoin="round" stroke-linecap="round" fill="none" d="
M 28.815345764160185 65.94740371704103
L 20.774563598632795 115.37844161987304 20.70865554809572 115.57616577148438 19.588218688964872 122.62832717895508 5.286171722412121 118.47611999511719 17.14962081909181 159.4709274291992 47.79686431884764 128.42823562622073 30.792587280273466 125.00101699829102 43.446932983398455 69.11099014282226 33.099369049072294 66.93602447509767 31.122127532959013 66.540576171875 28.815345764160185 65.94740371704103 Z"/>
</defs>

<g transform="matrix( 1.3181610107421875, 0, 0, 1.3181610107421875, -150.85,45.45) ">
<use xlink:href="#Layer0_0_FILL"/>

<use xlink:href="#Layer0_0_1_STROKES" transform="matrix( 0.7586212158203125, 0, 0, 0.7586212158203125, 114.4,-34.45) "/>

<use xlink:href="#Layer0_0_2_STROKES" transform="matrix( 0.7586212158203125, 0, 0, 0.7586212158203125, 114.4,-34.45) "/>

<use xlink:href="#Layer0_0_3_STROKES" transform="matrix( 0.7586212158203125, 0, 0, 0.7586212158203125, 114.4,-34.45) "/>

<use xlink:href="#Layer0_0_4_STROKES" transform="matrix( 0.7586212158203125, 0, 0, 0.7586212158203125, 114.4,-34.45) "/>
</g>
</svg>
