<svg xmlns="http://www.w3.org/2000/svg" xmlns:xlink="http://www.w3.org/1999/xlink" preserveAspectRatio="none" width="285" height="427" viewBox="0 0 285 427"><defs><g id="a"><path fill="#755B46" d="M324.75 44.15q-.1-1-.75-3.95-1.072-4.483-2.75-7.4-.007-.075-.05-.15-2.05-3.55-5.5-6.05-12.2.5-22.35 7.6-13.15 9.15-21.05 27.9 2.8 1.3 6.45 7.55 1.5 2.4 5.25 5.3 2.65 2 7.1 5.5 2.1.4.45-10.4-.7-4.5-.75-9.85.1-5.5.1-7.85 1.8-5.7 4-9.2 2.5-4.05 6.5-6.4-4 2.35-6.5 6.4-2.2 3.5-4 9.2 0 2.35-.1 7.85.05 5.35.75 9.85 1.65 10.8-.45 10.4-4.45-3.5-7.1-5.5-3.75-2.9-5.25-5.3-4.7 8.6-22.4 10.8-10 1.15-37.5.65-26.8-.45-39.4 1.3-20.1 2.95-28.15 12.55l-7.8 10.2q-7.85 9.15-8.3 15.8 6.6 24 3.1 40.65-3.45 16.2-17.25 24.25 1.4 15.75 1.65 22.45.35 9.55-.7 14.6.15 4.95 1.8 7.8.3.45.6.85 5.35-3.55 7.35-11-1.9-14.3 1.3-22.55 2.4-6.25 8.4-10.85 9.8-7.65 14.7-12.3 8.5-8.15 14.05-20 .3-.65.6-1.2.1-.2.2-.5 7.9-20.4 4.15-41.3 3.75 20.9-4.15 41.3 6.7-13.55 15-17.15.4-.5 1.95-1 1.5-.4 1.6-.5 9.05-2.7 22.75 2.85 4.4 1.8 12.05 5.6 9.05 4.35 12.35 5.85 14.7 6.5 24.6 5.65-.45-5.4-1.95-14.25-1.8-10.35-2.65-15.9.85 5.55 2.65 15.9 1.5 8.85 1.95 14.25 3.95 41.5-4.2 55.5 5.5 4.15 5.2 22.7.7 1.75 1.85 3.1 4.8-1.3 8.05-5.25 1.15-1.25 2-2.85l-.65-3.7-.5-2.5-1.9-10.5q2.35-9.55 4.55-22.95 2.45-15.3 3.25-19.1 2.8-13.3 8.8-22 .9-8.55 4.1-16.8 4.1-9.45 6.3-14.55Q306.5 96.1 309.2 72.2q-.7-.45-3.6-2.05-3.15-1.85-5.45-3.85-3.4-2.95-4.9-7-1.2-3.45-1.3-8.45.1 5 1.3 8.45 1.5 4.05 4.9 7 2.3 2 5.45 3.85 2.9 1.6 3.6 2.05 1.65.85 4.8 1.75 3.2.85 4.95.5 1.8.7 2.7.9-8.3-3.9-10.6-8.4-1.85-3.75-2-3.9-1.7-2.65-4.9-5.2 3.2 2.55 4.9 5.2.15.15 2 3.9 2.3 4.5 10.6 8.4 3.644.994 6.8.45v-.95q-1.585-.734-2.8-2.8-.4-.75-.65-1.4-1.9-4.9-.6-8 .25-.65.45-1.4v-.05q.85-3 .6-7.9-.007-.18-.05-.35-.213-6.08-.65-8.8M322 61.2h-.25.25m0 2.9h-.25.25m0 2.8h-.25.25m.7 3.25h-.3.3m-14.9-25.6q2.108-.518 5.25-2.55.894-.543 1.85-1.25.574-.374 1.15-.8 3.8.6 5.75 4.95-7.45 5.9-14-.35m16.85-11.8q.012.025 0 .05 2.006 4.112 3.05 6.05.348.648.75 1.25V28.25q-3.583-1.416-8.3-1.65 2.55 2.5 4.5 6.15M151.3 94.95q-5.1 2.15-10.95 1.75-3.65-.25-9.55-1.9-5.95-1.7-8-1.85-3.85-.3-6.1 2 1.85 3.25 9.8 6.35 8.15 3.1 17 3.85l7.8-10.2z"/><path d="M313.05 42q-.55.806-.55 1.75 0 1.3.95 2.2.85.9 2.15.9 1.25 0 2.2-.9.85-.9.85-2.2 0-1.25-.85-2.2-.95-.85-2.2-.85-.354 0-.7.05-.956.707-1.85 1.25m.75 2.45v-.15q0-.2.05-.5 0 .15.05.3.05.05.05.15.05.1.05.2.25.3.5.5.5.55 1.3.6h.15q.15 0 .25-.05-.3.25-.65.25-.1.05-.2.05-.65 0-1.05-.45-.4-.4-.5-.9m2.25-1.8q0-.2.15-.35.1-.1.25-.1.2 0 .35.1.1.15.1.35 0 .15-.1.25-.15.15-.35.15-.15 0-.25-.15-.15-.1-.15-.25z"/><path fill="#FFF" d="M316.2 42.3q-.15.15-.15.35 0 .15.15.25.1.15.25.15.2 0 .35-.15.1-.1.1-.25 0-.2-.1-.35-.15-.1-.35-.1-.15 0-.25.1z"/><path fill="#CCC" d="M313.8 44.3v.15q.1.5.5.9.4.45 1.05.45.1 0 .2-.05.35 0 .65-.25-.1.05-.25.05h-.15q-.8-.05-1.3-.6-.25-.2-.5-.5 0-.1-.05-.2 0-.1-.05-.15-.05-.15-.05-.3-.05.3-.05.5z"/><path fill="#D6D6D6" d="M313.05 42q-3.142 2.032-5.25 2.55 6.55 6.25 14 .35-1.95-4.35-5.75-4.95-.576.426-1.15.8.346-.05.7-.05 1.25 0 2.2.85.85.95.85 2.2 0 1.3-.85 2.2-.95.9-2.2.9-1.3 0-2.15-.9-.95-.9-.95-2.2 0-.944.55-1.75z"/><path fill="#F3F3F3" d="M324.65 32.8q.012-.025 0-.05-1.95-3.65-4.5-6.15h-.2q-2.15-.15-4.25 0 3.45 2.5 5.5 6.05.043.075.05.15 1.678 2.917 2.75 7.4.65 2.95.75 3.95.437 2.72.65 8.8.043.17.05.35.25 4.9-.6 7.9v.05q-.2.75-.45 1.4-1.3 3.1.6 8 .25.65.65 1.4l.35-.1-.35.1q1.215 2.066 2.8 2.8V44.4q-1.367-1.53-1.8-2.8.433 1.27 1.8 2.8v-4.3q-.402-.602-.75-1.25-1.044-1.938-3.05-6.05m1.2 35.1h-.25.25m2.25 1.05h-.25.25m-2.75-4h-.3.3m1.6-1.6h-.25.25m.15 2.75h-.3.3m-44.7 172.95l.5-.1q.55-.05 2.8-.6-1.55-7.6-11.5-10.7-.85 1.6-2 2.85-3.25 3.95-8.05 5.25 3.65 4.4 12.15 4.05l1.2-.1q.1-3.45-3.75-7.3 3.85 3.85 3.75 7.3h.45q1.6-.15 4.45-.65-.5-3.6-6-7.75 5.5 4.15 6 7.75m5.7-13.6q1.95-.6 4.05-1.6-2.3-8-12.65-7.9-1.3 4.65-6.45 5.5l.5 2.5q6.1 3.75 13.7 1.7.5-.1.85-.2-1.45-3.9-5.75-6.25 4.3 2.35 5.75 6.25M135 234.6q.5-4-1.9-7.35 2.4 3.35 1.9 7.35 2.1-.05 4.8-.55.25-4.7-3.35-7.9 3.6 3.2 3.35 7.9 1.7-.25 3.6-.65 1.7-2-1.4-5.65-3.2-3.85-10.25-7.2-2 7.45-7.35 11 1.3 1.8 3.05 1.85 2.25.85 5.95 1.15.7.05 1.6.05m22.05-24.9q-2.65 3.55-7.5 3.5l1.05 4.15q4.65 4.1 15.2 1.7.35-.1.6-.1-2.75-4.5-7.6-5.65 4.85 1.15 7.6 5.65l.8-.2q2.15-.6 4.4-1.4-1.65-6.4-14.55-7.65M314 73.95q-3.15-.9-4.8-1.75-2.7 23.9-11.05 43.35-2.2 5.1-6.3 14.55-3.2 8.25-4.1 16.8 2.6-3.85 5.8-6.85.75-.85 1.4-1.85 4.4-6.15 7.75-14.45 2.55-6.35 6.75-17.4 3.85-10.1 5.55-18.8 1.25-6.15 3.95-13.1-1.75.35-4.95-.5z"/><path fill="#4F3E2F" d="M294.95 138.2q-.65 1-1.4 1.85-3.2 3-5.8 6.85-6 8.7-8.8 22-.8 3.8-3.25 19.1-2.2 13.4-4.55 22.95l1.9 10.5q5.15-.85 6.45-5.5-2.75-3.25-2.65-16.75 4.75-33.45 18.1-61m-129.6 35.15q10.95-9.9 14.25-14.45 7.15-10.1 6.4-22.9-8.3 3.6-15 17.15-.1.3-.2.5-.3.55-.6 1.2-5.55 11.85-14.05 20-4.9 4.65-14.7 12.3 1.35 2.85 3.5 10.3 3.8 13.2 4.6 15.75 4.85.05 7.5-3.5-5.75-13.15-2.6-22.25 2.15-6.2 10.9-14.1z"/></g><path id="b" stroke="#202020" stroke-width="1" stroke-linejoin="round" stroke-linecap="round" fill="none" d="M282.1 98.308q-.53-.793-.989-1.647-1.375-2.555-3.987-7.975l-.033-.066q-2.57-4.812-5.932-8.107m1.384 7.975q-2.702-4.68-7.25-7.975m7.35 8.173q-.043-.1-.1-.198m3.691 9.952q-1.413-5.91-3.592-9.754m4.58 14.96q-.131-1.317-.988-5.206m1.879 16.807q-.314-8.014-.89-11.6m.923 12.061q-.01-.237-.033-.461m-.758 10.874q1.12-3.954.79-10.413m-1.384 12.325q.33-.857.594-1.846m.197 12.391q-2.504-6.459-.79-10.545m1.647 12.39q-.527-.988-.857-1.845m4.548 5.536q-2.089-.967-3.69-3.69M13.13 350.67q7.051-4.68 9.688-14.5m51.474-88.185q.132-.263.264-.659m147.502 113.099q-1.78.527-1.78.725m-2.702-31.043q-1.714 6.13-8.502 7.25M56.167 321.868q-3.493 4.68-9.886 4.614m-19.18 28.209q.66-5.273-2.504-9.689m8.832 8.964v.725m-4.416-11.139q4.745 4.218 4.416 10.414m177.16-8.437q-1.12 2.11-2.636 3.757-4.284 5.207-10.61 6.92m24.056 4.35q-.66-4.745-7.91-10.215m1.45 11.072q.132-4.547-4.942-9.622m18.915-9.162q-1.911-5.14-7.58-8.238m-152.84-.33q-3.625-5.931-10.018-7.447"/><path id="c" stroke="#202020" stroke-width="2" stroke-linejoin="round" stroke-linecap="round" fill="none" d="M271.16 80.513h-.264q-2.834-.198-5.603 0m16.807 2.208q-4.724-1.899-10.94-2.208m10.94 23.463q-1.802-2.016-2.373-3.69m-63.14 36.974q1.978 3.164 6.92 6.986 3.494 2.636 9.36 7.25 2.768.527.593-13.709-.923-5.932-.989-12.984.132-7.25.132-10.347 2.373-7.514 5.273-12.127 3.295-5.339 8.568-8.437m15.356 6.954q-4.142 2.645-6.92 3.328 8.634 8.239 18.454.461-2.57-5.734-7.58-6.524-.758.561-1.482 1.087-1.293.899-2.472 1.648zm3.493-20.333q-16.081.66-29.46 10.018-17.334 12.061-27.748 36.777 3.691 1.713 8.502 9.952-6.195 11.336-29.526 14.236-13.182 1.516-49.431.857-35.327-.593-51.936 1.713-26.495 3.889-37.106 16.543l-10.282 13.446q-10.347 12.06-10.94 20.827 8.7 31.635 4.086 53.583-4.548 21.354-22.739 31.965 1.846 20.761 2.175 29.593.462 12.588-.922 19.245.197 6.525 2.372 10.282.396.593.791 1.12m9.689-14.5q-2.505-18.85 1.713-29.724 3.164-8.239 11.073-14.302Q48.522 282.06 54.98 275.93q11.204-10.743 18.52-26.363.395-.857.79-1.582m5.735-55.099q4.943 27.55-5.47 54.44m198.58-102.553q-10.94-5.14-13.972-11.072-2.439-4.943-2.636-5.14-2.241-3.494-6.46-6.855m-13.445-9.228q.132 6.591 1.714 11.139 1.977 5.339 6.459 9.227 3.032 2.636 7.184 5.075 3.823 2.11 4.745 2.702 2.175 1.12 6.328 2.307 4.218 1.12 6.524.66 2.373.922 3.56 1.185 4.803 1.31 8.963.627m-12.523-1.813q-3.559 9.161-5.206 17.268-2.241 11.468-7.316 24.781-5.536 14.566-8.898 22.936-4.416 10.941-10.215 19.048-17.598 36.315-23.86 80.408-.13 17.795 3.494 22.079 13.643-.132 16.675 10.413-2.768 1.319-5.339 2.11-.461.131-1.12.263-10.018 2.702-18.06-2.24l.858 4.876q13.115 4.087 15.159 14.105-2.966.725-3.691.79M94.328 224.72q.527-.66 2.57-1.318 1.978-.528 2.11-.66 11.929-3.558 29.988 3.757 5.8 2.373 15.883 7.382 11.93 5.734 16.28 7.711 19.377 8.568 32.426 7.448-.593-7.118-2.57-18.784-2.373-13.643-3.493-20.959M56.167 321.868q-7.58-17.333-3.427-29.329 2.834-8.172 14.368-18.586 14.434-13.05 18.784-19.047 9.425-13.314 8.436-30.186-10.94 4.745-19.772 22.606m153.895-8.238q1.186-11.27 5.404-22.145 5.405-12.457 8.305-19.18 11.006-25.638 14.565-57.142m-18.783 86.999q-.857 1.318-1.846 2.438-4.218 3.955-7.645 9.03-7.91 11.468-11.6 29-1.055 5.008-4.284 25.176-2.9 17.664-5.998 30.252l2.505 13.84M48.588 170.61q-6.723 2.834-14.434 2.307-4.811-.33-12.589-2.504-7.843-2.241-10.545-2.439-5.075-.395-8.04 2.636 2.438 4.284 12.917 8.37 10.743 4.087 22.41 5.076m-2.703 108.089q1.78 3.757 4.613 13.577 5.01 17.4 6.064 20.76m29.065 5.471q-2.175-8.436-19.179-10.084m13.38 11.93q2.834-.791 5.8-1.846m-6.855 2.11l1.055-.264m-1.846.395q.461-.132.791-.132m-20.827-2.109q6.13 5.405 20.036 2.241m-21.42-7.711l1.384 5.47m-14.236 22.014q2.24-.33 4.745-.857 2.241-2.637-1.845-7.448-4.218-5.075-13.511-9.49m-9.689 14.5q1.714 2.372 4.02 2.438 2.966 1.12 7.844 1.516.922.066 2.109.066 2.768-.066 6.327-.725m188.629 6.459l-.66.131q-3.756.66-5.865.857h-.593l-1.582.132q-11.204.461-16.016-5.339-1.516-1.78-2.438-4.086.395-24.452-6.855-29.922 10.743-18.454 5.536-73.158m15.489 88.317l.659 3.295"/><path id="d" stroke="#333" stroke-width="1.4" stroke-linejoin="round" stroke-linecap="round" fill="none" d="M277.355 126.187v-.066m1.515 14.17l-.46.133m.263-5.47h-.33m3.296 1.383h-.33m-3.295-5.272h-.396m2.505-2.11h-.33m.527 3.625h-.395m-6.327-6.459h-.33m.33 3.823h-.33m.33 3.691h-.33m1.253 4.284h-.396"/><path id="e" stroke="#000" stroke-width="2" stroke-linejoin="round" stroke-linecap="round" fill="none" d="M28.815 65.947l-8.04 49.431-.066.198-1.12 7.052-14.303-4.152 11.864 40.995 30.647-31.043-17.004-3.427 12.654-55.89-10.348-2.175-1.977-.395-2.307-.594z"/></defs><g transform="translate(-150.85 45.45) scale(1.31816)"><use xlink:href="#a"/><use xlink:href="#b" transform="translate(114.4 -34.45) scale(.75862)"/><use xlink:href="#c" transform="translate(114.4 -34.45) scale(.75862)"/><use xlink:href="#d" transform="translate(114.4 -34.45) scale(.75862)"/><use xlink:href="#e" transform="translate(114.4 -34.45) scale(.75862)"/></g></svg>