<?xml version="1.0" encoding="utf-8"?>
<!-- Generator: Adobe Illustrator 16.0.0, SVG Export Plug-In . SVG Version: 6.00 Build 0)  -->
<!DOCTYPE svg PUBLIC "-//W3C//DTD SVG 1.1//EN" "http://www.w3.org/Graphics/SVG/1.1/DTD/svg11.dtd">
<svg version="1.1" id="Layer_1" xmlns="http://www.w3.org/2000/svg" xmlns:xlink="http://www.w3.org/1999/xlink" x="0px" y="0px"
	 width="900px" height="450px" viewBox="0 0 900 450" enable-background="new 0 0 900 450" xml:space="preserve">
<g transform="matrix( 1, 0, 0, 1, 0,0) ">
	<g>
		<g id="Layer0_0_FILL">
			<path fill="#616145" d="M486.136,356.405l-18.013,13.897l-1.977-1.488c2.588,7.376,6.183,12.744,10.79,16.107
				c4.44,3.455,8.689,3.879,12.743,1.269c3.927-2.648,6.441-7.561,7.542-14.738c0.596-4.13,0.57-8.261-0.078-12.394
				c-1.398-3.439-2.639-6.694-3.723-9.769L486.136,356.405 M203.99,153.697c-0.809,5.387-0.247,10.951,1.687,16.688
				c1.907,5.588,4.597,9.736,8.07,12.437c2.728,2.148,5.419,2.688,8.071,1.627l-4.478-3.328l-1.455-29.824l-8.445-6.617
				C205.702,146.689,204.552,149.696,203.99,153.697 M259.934,213.272c-0.694,1.747-1.209,3.717-1.544,5.91
				c-0.878,6.13-0.636,11.847,0.727,17.147c1.427,5.319,3.115,9.082,5.064,11.289c1.83,2.382,3.128,3.816,3.892,4.307
				c3.972,2.908,7.59,3.228,10.858,0.949c3.525-2.204,5.669-6.284,6.429-12.24c0.395-2.661,0.507-5.298,0.334-7.91L259.934,213.272
				 M256.649,213.499c0.104-0.873,0.2-1.71,0.287-2.519l-28.428-21.443c-0.215,0.772-0.367,1.563-0.453,2.369
				c-0.815,6.15-0.157,12.362,1.974,18.639c2.27,6.525,5.362,11.337,9.28,14.439c3.888,2.955,7.484,3.23,10.788,0.827
				C253.604,223.671,255.789,219.565,256.649,213.499 M410.409,326.762c-0.849,2.049-1.448,4.446-1.798,7.191
				c-0.165,1.339-0.267,2.696-0.305,4.072c-0.353,6.485,0.845,13.125,3.592,19.921c2.758,7.007,6.603,12.237,11.53,15.69
				c4.78,3.481,9.199,3.918,13.254,1.305c3.926-2.646,6.392-7.642,7.4-14.982c0.341-2.471,0.484-4.959,0.421-7.472L410.409,326.762
				 M311.941,281.003c3.315-2.194,5.411-6.356,6.29-12.489c0.49-3.743,0.438-7.534-0.155-11.374l-25.235-19.097
				c-1.454,2.228-2.449,5.175-2.985,8.837c-0.786,6.296-0.122,12.612,1.991,18.954c2.077,6.469,5.146,11.241,9.209,14.315
				C304.963,283.04,308.591,283.325,311.941,281.003 M356.354,296.196c0.447-3.34,0.49-6.725,0.129-10.153l-27.502-20.665
				c-1.096,2.19-1.85,4.893-2.26,8.104c-0.886,6.405-0.23,13.001,1.968,19.78c2.316,6.604,5.519,11.519,9.611,14.739
				c4.11,3.155,7.921,3.526,11.437,1.11C353.298,306.778,355.504,302.472,356.354,296.196 M368.078,294.788
				c-1.589,2.468-2.646,5.637-3.172,9.51c-0.94,6.599-0.196,13.252,2.23,19.957c0.506,1.666,1.098,3.147,1.775,4.446
				c3.167,5.042,6.322,8.763,9.464,11.164c4.302,3.209,8.275,3.625,11.919,1.244c1.981-1.387,3.207-3.542,3.672-6.459
				c0.4-2.177,0.773-4.635,1.124-7.38c0.608-3.92,0.652-7.928,0.13-12.022L368.078,294.788z"/>
			<path fill="#696E68" d="M512.524,361.686l0.245-0.139c7.101-2.594,14.3-5.298,21.598-8.113
				c21.871-8.592,44.568-18.411,68.094-29.453c14.389-6.865,29.074-14.172,44.055-21.911L623.5,286.188
				c-36.357,16.058-72.321,30.455-107.894,43.195c-4.758,1.653-9.515,3.308-14.272,4.961l1.494,10.293l2.235,16.216l1.277,3.995
				l4.659-2.548L512.524,361.686 M488.803,236.146l4.294-1.608l18.337-15.053l-3.591-41.543l-94.035-10.217l-11.484,59.066
				L488.803,236.146 M632.291,249.45c-0.285-0.217-0.515-0.144-0.687,0.225l-0.193-0.054c-0.377-0.384-0.676-0.432-0.894-0.146
				c-0.973,0.006-1.761,0.34-2.359,1.005c-3.367,1.14-6.421,3.892-9.165,8.256c-3.016,4.355-4.911,9.163-5.686,14.423
				c-0.961,3.198-1.081,6.108-0.358,8.736c-0.164,0.093-0.042,0.404,0.363,0.932l0.088,0.44c-0.085,0.048,0.129,0.278,0.636,0.697
				c0.117-0.174,0.188-0.051,0.208,0.371l-0.026,0.097c0.249,0.345,0.698,0.852,1.343,1.517c1.719,0.551,3.609,0.729,5.672,0.543
				c0.08-0.532,0.344-0.734,0.794-0.609c-0.151-0.458-0.052-0.431,0.288,0.081c-0.148-0.458-0.214-0.718-0.195-0.784l-0.125,0.069
				l-0.043-0.219l-1.529-2.713c-0.343-0.513-0.441-0.781-0.294-0.812c-0.82-2.03-0.894-4.373-0.223-7.025
				c0.542-3.938,2.23-7.626,5.059-11.064c2.363-3.499,5.239-5.608,8.627-6.326c0.519-0.618,1.209-0.737,2.074-0.358
				c-0.011-0.209,0.224-0.179,0.703,0.093c-0.223-0.199-0.085-0.196,0.412,0.012c0.278-2.486,0.087-4.168-0.568-5.044
				c-0.289-0.705-0.603-1.07-0.943-1.095l-2.759-1.289L632.291,249.45 M674.491,280.035l-0.083-8.65l-2.346-7.62
				c-4.561,2.194-9.082,4.363-13.561,6.51L674.491,280.035 M707.035,297.531l-0.608-0.063c-0.507-0.419-0.864-0.379-1.071,0.116
				c-0.947-0.334-1.743-0.209-2.391,0.372c-4.122,0.86-7.959,3.567-11.517,8.119c-4.17,4.52-6.677,9.399-7.513,14.642
				c-1.033,3.455-1.105,6.692-0.216,9.711c-0.11-0.1,0.02,0.179,0.392,0.838l0.111,0.343l0.594,0.478
				c-0.301-0.155-0.213,0.147,0.268,0.905l0.29,0.081l-0.054,0.193c0.221,0.2,0.664,0.602,1.328,1.201
				c0.107-0.384,0.168-0.229,0.182,0.467c1.709,0.824,3.923,1.095,6.635,0.812c0.693-0.499,1.719-0.94,3.072-1.326
				c2.814-1.639,5.71-3.95,8.69-6.932c3.854-5.37,6.423-10.232,7.707-14.587c0.418-2.24,0.727-4.096,0.928-5.563
				c-0.047-3.063-0.639-5.413-1.777-7.045c-0.526-0.842-0.871-1.353-1.028-1.534l-2.854-1.315l-0.344,0.111
				C707.416,297.155,707.142,297.147,707.035,297.531 M701.507,304.307c2.432-1.264,4.35-0.936,5.754,0.981
				c0.921,1.919,1.03,4.758,0.328,8.511c-1.234,3.191-2.971,6.555-5.203,10.09c-2.503,2.766-4.88,4.701-7.13,5.808
				c-2.6,0.867-4.288,0.467-5.068-1.207c-1.417-2.129-1.612-4.781-0.588-7.96c0.62-3.709,2.276-6.918,4.974-9.631
				C696.751,307.068,699.061,304.872,701.507,304.307 M696.185,293.57l0.026-0.096l0.096,0.026l-21.815-13.466l-15.989-9.761
				l-21.722-13.438c-0.497-0.208-0.635-0.211-0.412-0.012c-0.479-0.271-0.714-0.302-0.703-0.093
				c-0.865-0.379-1.556-0.26-2.074,0.358c-3.388,0.718-6.264,2.827-8.627,6.326c-2.828,3.438-4.517,7.126-5.059,11.064
				c-0.671,2.652-0.598,4.995,0.223,7.025c-0.147,0.03-0.049,0.299,0.294,0.812l1.529,2.713l0.043,0.219l0.125-0.069l1.381,1.009
				l23.016,15.881l13.689,9.43l16.813,11.655c-0.354-2.456-0.251-4.576,0.317-6.357c1.34-5.308,3.813-10.197,7.416-14.668
				c3.328-4.477,7.135-7.193,11.421-8.146C696.004,293.591,696.009,293.452,696.185,293.57 M701.34,293.346l-0.289-0.081
				c-0.707-0.196-1.111-0.241-1.212-0.13l-0.192-0.053c-0.496-0.209-0.764-0.248-0.8-0.12c-0.999-0.141-1.653,0.093-1.961,0.7
				l-0.165-0.15l-0.414-0.011l-0.096-0.026l-0.026,0.096c-0.176-0.118-0.181,0.021-0.012,0.412
				c-4.286,0.953-8.093,3.67-11.421,8.146c-3.604,4.471-6.076,9.36-7.416,14.668c-0.568,1.781-0.672,3.901-0.317,6.357
				c-0.466,0.424-0.331,1.433,0.404,3.022c-0.275-0.008-0.274,0.236,0.003,0.729l0.268,0.905l0.664,0.602
				c0.101-0.111,0.219-0.042,0.359,0.204l-0.15,0.167c0.668,1.085,1.801,1.99,3.401,2.714c0.474-0.214,1.228-0.177,2.255,0.11
				l-0.111-0.343c-0.372-0.659-0.502-0.938-0.392-0.838c-0.89-3.019-0.817-6.256,0.216-9.711c0.836-5.242,3.343-10.122,7.513-14.642
				c3.558-4.552,7.395-7.259,11.517-8.119c0.647-0.581,1.443-0.706,2.391-0.372l-0.502-1.18c-0.31-1.125-0.502-1.804-0.576-2.031
				L701.34,293.346 M233.299,148.877l2.271-4.044c-2.403-1.571-4.838-3.152-7.306-4.74c-9.374-6.15-19.074-12.493-29.1-19.032
				l-7.077,1.145c9.474,6.038,18.897,12.131,28.271,18.28C224.703,143.292,229.017,146.089,233.299,148.877 M286.045,179.286
				c-0.606-0.309-1.141-0.631-1.601-0.967c-15.593-10.933-31.861-22.054-48.805-33.363l-2.341,3.92
				c16.343,10.727,32.976,22.157,49.897,34.292c0.479,0.271,1.003,0.626,1.575,1.063c0.046,0.082,0.133,0.141,0.263,0.177
				c74.079,50.46,142.945,101.721,206.6,153.779l1.939,10.937l9.255-4.486l-1.494-10.293c-27.952-23.527-67.55-53.25-118.797-89.164
				C354.593,225.604,322.43,203.64,286.045,179.286 M356.483,286.043l11.595,8.745l27.143,20.46l15.189,11.514l34.095,25.726
				l21.642,16.327l1.977,1.488l18.013-13.897l7.285-7.115l0.152-0.166l-1.939-10.937c-63.655-52.058-132.521-103.318-206.6-153.779
				c-0.129-0.036-0.216-0.095-0.263-0.177c-0.572-0.436-1.096-0.792-1.575-1.063c-16.922-12.135-33.554-23.566-49.897-34.292
				c-4.282-2.788-8.596-5.584-12.941-8.391c-9.374-6.149-18.796-12.242-28.271-18.28l-1.318,9.196l12.608,9.961l4.064,3.317
				l8.445,6.617l1.455,29.824l4.478,3.328l6.689,5.087l28.428,21.443l2.999,2.292l25.761,19.452l7.146,5.318l25.235,19.097
				l10.905,8.238L356.483,286.043 M269.801,80.988l-3.355,10.915l-9.154,29.466l34.806,27.275l58.238,43.895l51.988,34.251
				l11.484-59.066l-31.95-21.489L269.801,80.988 M597.322,229.094c-0.261-0.558-0.408-0.771-0.443-0.644l-2.357-0.865
				L597.322,229.094 M594.521,227.585l-0.264-0.177c-0.284-0.218-0.505-0.176-0.658,0.128c-0.059-0.294-0.123-0.312-0.195-0.055
				c-0.229-0.41-0.465-0.441-0.701-0.091c-0.772-0.216-1.393,0.026-1.865,0.727l-0.096-0.026l-0.098-0.027
				c-3.082,1.358-5.868,4.15-8.364,8.374c-2.916,4.246-4.635,8.791-5.155,13.637c-0.318,1.643-0.488,3.12-0.508,4.432
				c0.126,1.282,0.393,2.57,0.795,3.859c-0.036,0.129,0.03,0.391,0.196,0.783l0.379,1.248c-0.164,0.094-0.118,0.176,0.14,0.248
				l0.262,0.177c0.205,0.265,0.62,0.762,1.249,1.491c0.428-0.296,0.741-0.174,0.938,0.366l33.412,22.208l0.23-0.454l0.026-0.097
				c-0.02-0.422-0.091-0.545-0.208-0.371c-0.507-0.419-0.721-0.649-0.636-0.697l-0.088-0.44c-0.405-0.527-0.527-0.839-0.363-0.932
				c-0.723-2.628-0.603-5.538,0.358-8.736c0.774-5.26,2.67-10.067,5.686-14.423c2.744-4.364,5.798-7.116,9.165-8.256
				c0.599-0.665,1.387-0.999,2.359-1.005c0.218-0.286,0.517-0.238,0.894,0.146l0.193,0.054c0.172-0.368,0.401-0.441,0.687-0.225
				l0.026-0.096l-34.995-20.261L594.521,227.585 M566.819,212.479c-1.425-0.605-2.124-0.835-2.095-0.688l-0.026,0.096
				c-0.286-0.218-0.506-0.175-0.659,0.128c-0.619-0.519-1.222-0.341-1.813,0.534c-2.526,0.612-4.834,2.672-6.921,6.178
				c-2.439,2.785-3.849,6.1-4.228,9.944c-0.663,2.379-0.701,4.379-0.113,5.997c0.101-0.11,0.284,0.219,0.556,0.987l0.428,0.326
				l1.005,2.36l0.072,0.124l23.593,16.04c0.02-1.312,0.189-2.789,0.508-4.432c0.521-4.846,2.239-9.391,5.155-13.637
				c2.496-4.224,5.282-7.016,8.364-8.374l0.026-0.097L566.819,212.479 M558.818,206.505c-2.735,1.108-5.391,3.798-7.967,8.069
				c-2.683,3.895-4.378,8.24-5.091,13.031c-0.946,2.646-1.022,4.912-0.232,6.795c-0.118,0.176-0.094,0.459,0.075,0.853
				c-0.018,0.065,0.111,0.344,0.391,0.837l0.016,0.316c0.01,0.21,0.156,0.425,0.443,0.644l0.428,0.327l-0.176,0.262
				c1.045,1.471,3.061,1.825,6.044,1.063c0.089-0.321,0.157-0.441,0.203-0.359l-1.005-2.36l-0.428-0.326
				c-0.271-0.769-0.455-1.098-0.556-0.987c-0.588-1.618-0.55-3.618,0.113-5.997c0.379-3.845,1.788-7.159,4.228-9.944
				c2.087-3.506,4.395-5.566,6.921-6.178c0.592-0.875,1.194-1.052,1.813-0.534c0.153-0.303,0.373-0.346,0.659-0.128l0.026-0.096
				c-0.029-0.147,0.67,0.082,2.095,0.688c-0.271-2.501-0.729-4.223-1.366-5.163c-0.342-0.512-0.536-0.809-0.584-0.891l-2.056-1.198
				c-0.063-0.018-0.164,0.094-0.302,0.332c-0.332-0.301-0.552-0.257-0.659,0.128l-0.191-0.054c-0.168-0.393-0.402-0.424-0.703-0.092
				c-0.046-0.083-0.087-0.059-0.123,0.07l-0.027,0.096C560,205.621,559.337,205.887,558.818,206.505 M546.374,198.563
				c-0.33-0.299-0.56-0.225-0.685,0.225c-0.224-0.2-0.335-0.162-0.343,0.112c-0.128-0.036-0.235-0.03-0.316,0.016
				c-0.357,0.04-0.668,0.16-0.935,0.364c-0.678-0.051-1.189,0.292-1.533,1.027c-1.945,1.26-3.65,3.279-5.12,6.057
				c-2.371,3.289-3.784,6.984-4.235,11.085c-0.261,0.689-0.449,1.364-0.564,2.025c-0.078,0.533-0.084,1.051-0.018,1.555
				c-0.023,0.825,0.13,1.768,0.457,2.83l0.141,0.248c-0.23,0.073-0.187,0.294,0.127,0.659l0.14,0.247l0.058,0.536l0.236,0.274
				l-0.026,0.096c0.777,1.188,2.389,1.497,4.834,0.933c0.317-0.396,0.651-0.72,0.997-0.969c-0.051-1.054,0.07-1.99,0.367-2.808
				c0.441-2.58,1.148-4.982,2.113-7.207c0.915-2.032,2.025-3.906,3.336-5.62c0.788-1.581,1.641-2.903,2.561-3.963
				c0.817-0.95,1.682-1.68,2.585-2.19c-0.232-2.144-0.634-3.433-1.207-3.87c-0.398-0.805-0.558-1.23-0.476-1.277l-2.025-0.565
				c-0.286-0.218-0.39-0.212-0.315,0.017L546.374,198.563 M556.941,201.304c-0.102-0.376-0.194-0.297-0.272,0.235
				c-0.425-0.464-0.635-0.454-0.632,0.032c-0.214-0.476-0.312-0.503-0.29-0.081c-0.297-0.43-0.538-0.428-0.728,0.004
				c-0.405-0.043-0.763-0.004-1.073,0.117c-0.376,0.104-0.714,0.321-1.015,0.653c-0.908,0.023-1.701,0.634-2.382,1.83
				c-0.903,0.51-1.768,1.24-2.585,2.19c-0.92,1.061-1.772,2.382-2.561,3.963c-1.311,1.713-2.421,3.587-3.336,5.62
				c-0.965,2.225-1.672,4.627-2.113,7.207c-0.297,0.818-0.418,1.754-0.367,2.808c-0.256,1.662-0.042,3.384,0.638,5.167
				c-0.228,0.074-0.194,0.327,0.103,0.757l0.207,0.369c0.201-0.221,0.308,0.017,0.321,0.713l0.235,0.273l-0.026,0.098
				c0.251,0.347,0.755,0.765,1.521,1.255c0.615,0.033,1.597-0.005,2.942-0.115c-0.79-1.883-0.714-4.148,0.232-6.795
				c0.713-4.791,2.408-9.136,5.091-13.031c2.576-4.271,5.231-6.961,7.967-8.069c0.519-0.618,1.182-0.884,1.989-0.797l0.027-0.096
				c-0.642-1.427-1.134-2.153-1.472-2.178c-0.195-0.536-0.381-0.864-0.558-0.987c-0.046-0.082-0.102-0.131-0.165-0.149l0.027-0.097
				L556.941,201.304 M353.719,94.31c-6.45,2.497-9.71,5.99-9.783,10.474c0.139,4.474,3.388,8.602,9.749,12.386
				c6.635,3.792,14.537,6.271,23.704,7.442c9.433,0.968,17.3,0.217,23.603-2.253c6.559-2.398,9.852-5.88,9.878-10.448
				c0.055-4.419-3.25-8.598-9.913-12.536c-6.572-3.774-14.458-6.182-23.662-7.224C368.054,91.24,360.196,91.958,353.719,94.31
				 M540.868,195.573c-0.561-0.226-1.013,0.029-1.356,0.765c-2.487,0.97-4.778,3.345-6.873,7.127
				c-2.208,3.196-3.571,6.835-4.085,10.919c-0.663,2.379-0.632,4.501,0.094,6.368c-0.082,0.046-0.108,0.143-0.08,0.289
				c0.065,0.019,0.143,0.109,0.236,0.274l0.282,1.222l-0.026,0.097c0.202,0.264,0.558,0.605,1.065,1.024
				c0.597,0.098,1.584,0.165,2.957,0.201c-0.327-1.062-0.48-2.004-0.457-2.83c-0.066-0.504-0.061-1.021,0.018-1.555
				c0.115-0.661,0.304-1.336,0.564-2.025c0.451-4.102,1.864-7.797,4.235-11.085c1.47-2.778,3.175-4.797,5.12-6.057
				c0.344-0.735,0.855-1.078,1.533-1.027c0.267-0.204,0.577-0.324,0.935-0.364c0.081-0.046,0.188-0.051,0.316-0.016
				c-0.219-0.962-0.437-1.542-0.658-1.743c-0.388-0.593-0.648-0.909-0.777-0.945l-0.096-0.027l-0.979-0.584l-0.429-0.328
				c-0.128-0.036-0.188,0.051-0.177,0.262c-0.14-0.247-0.359-0.204-0.659,0.128c-0.074-0.228-0.172-0.255-0.29-0.081
				C541.125,195.402,540.987,195.398,540.868,195.573 M540.63,188.23l0.578,0.161c-0.054,0.193,0.177,0.603,0.695,1.233
				c0.399,0.805,0.673,2.059,0.823,3.763l1.185,2.826c0.129,0.036,0.39,0.352,0.777,0.945c0.222,0.2,0.439,0.781,0.658,1.743
				c0.008-0.274,0.119-0.313,0.343-0.112c0.125-0.45,0.354-0.524,0.685-0.225l0.152-0.165c-0.074-0.229,0.029-0.234,0.315-0.017
				l2.025,0.565c-0.082,0.047,0.077,0.472,0.476,1.277c0.573,0.437,0.975,1.727,1.207,3.87c0.681-1.196,1.474-1.806,2.382-1.83
				c0.301-0.333,0.639-0.55,1.015-0.653l2.99-9.978l1.898-6.435l-15.608-40.945l-9.359,27.224l4.262,10.44L540.63,188.23
				 M537.629,187.808c-0.625-0.243-1.371,0.068-2.236,0.936c-2.613,1.42-5.127,4.461-7.536,9.126
				c-3.023,4.632-4.813,9.434-5.368,14.408c-0.869,3.361-1.007,6.337-0.411,8.929c-0.102,0.11-0.066,0.362,0.1,0.754l0.401,0.425
				c-0.063-0.018,0.011,0.21,0.226,0.687c0.083-0.046,0.147-0.028,0.193,0.054c0.046,0.082,0.093,0.164,0.139,0.247l-0.027,0.096
				c0.908,1.709,2.706,2.106,5.386,1.19c0.547-0.471,1.09-0.805,1.631-1.001c-0.508-0.419-0.863-0.76-1.065-1.024l0.026-0.097
				l-0.282-1.222c-0.094-0.165-0.171-0.256-0.236-0.274c-0.028-0.146-0.002-0.243,0.08-0.289c-0.726-1.866-0.757-3.988-0.094-6.368
				c0.514-4.084,1.877-7.723,4.085-10.919c2.095-3.782,4.386-6.158,6.873-7.127c0.344-0.736,0.796-0.991,1.356-0.765
				c0.119-0.175,0.257-0.171,0.413,0.011c0.118-0.175,0.216-0.147,0.29,0.081c0.3-0.332,0.52-0.375,0.659-0.128
				c-0.012-0.211,0.049-0.298,0.177-0.262l0.429,0.328c0.022-0.826-0.016-1.563-0.109-2.214c-0.15-1.704-0.424-2.958-0.823-3.763
				c-0.519-0.63-0.749-1.04-0.695-1.233l-0.578-0.161l-1.394-0.597l-0.343,0.112c-0.369-0.173-0.579-0.162-0.633,0.032l-0.096-0.027
				C537.896,187.467,537.719,187.487,537.629,187.808 M535.393,188.744c0.865-0.868,1.611-1.179,2.236-0.936
				c0.09-0.321,0.268-0.341,0.536-0.058l0.096,0.027c0.054-0.193,0.264-0.205,0.633-0.032l-0.042-0.22l-15.76-10.217l-7.512,3.83
				c-5.867,14.581-5.729,27.371,0.419,38.373l6.874,3.684l0.263,0.178c-0.046-0.083-0.093-0.165-0.139-0.247
				c-0.046-0.082-0.11-0.1-0.193-0.054c-0.215-0.476-0.289-0.704-0.226-0.687l-0.401-0.425c-0.166-0.393-0.201-0.645-0.1-0.754
				c-0.596-2.592-0.458-5.568,0.411-8.929c0.555-4.974,2.345-9.776,5.368-14.408C530.266,193.205,532.779,190.164,535.393,188.744z"
				/>
			<path fill="#8E918D" d="M545.994,236.089c-0.279-0.493-0.408-0.771-0.391-0.837c-0.169-0.394-0.193-0.677-0.075-0.853
				c-1.346,0.11-2.327,0.148-2.942,0.115l4.119,3.123l0.176-0.262l-0.428-0.327c-0.287-0.219-0.434-0.434-0.443-0.644
				L545.994,236.089 M613.987,284.887l1.573,1.063c-0.645-0.665-1.094-1.172-1.343-1.517L613.987,284.887 M632.317,249.354
				l-0.026,0.096l0.219-0.042L632.317,249.354 M310.788,76.411l-0.096-0.027l0.042,0.22L310.788,76.411 M202.354,99.185
				l-3.19,21.876c10.026,6.539,19.727,12.882,29.1,19.032c2.468,1.588,4.903,3.169,7.306,4.74l0.07,0.124
				c16.943,11.309,33.211,22.43,48.805,33.363c0.46,0.336,0.995,0.658,1.601,0.967c36.384,24.354,68.548,46.318,96.491,65.895
				c51.247,35.914,90.845,65.637,118.797,89.164c4.758-1.653,9.515-3.308,14.272-4.961c35.572-12.74,71.536-27.138,107.894-43.195
				l-1.381-1.009c-0.019,0.066,0.047,0.326,0.195,0.784c-0.34-0.512-0.439-0.539-0.288-0.081c-0.45-0.125-0.714,0.077-0.794,0.609
				c-2.063,0.187-3.953,0.008-5.672-0.543l-1.573-1.063l-33.412-22.208c-0.196-0.54-0.51-0.662-0.938-0.366
				c-0.629-0.729-1.044-1.227-1.249-1.491l-0.262-0.177c-0.258-0.072-0.304-0.154-0.14-0.248l-0.379-1.248
				c-0.166-0.393-0.232-0.654-0.196-0.783c-0.402-1.289-0.669-2.577-0.795-3.859l-23.593-16.04l-0.072-0.124
				c-0.046-0.082-0.114,0.038-0.203,0.359c-2.983,0.762-4.999,0.407-6.044-1.063l-4.119-3.123c-0.766-0.49-1.27-0.908-1.521-1.255
				l0.026-0.098l-0.235-0.273c-0.014-0.696-0.12-0.934-0.321-0.713l-0.207-0.369c-0.297-0.43-0.33-0.683-0.103-0.757
				c-0.68-1.783-0.894-3.506-0.638-5.167c-0.346,0.25-0.68,0.573-0.997,0.969c-2.445,0.564-4.057,0.255-4.834-0.933l0.026-0.096
				l-0.236-0.274l-0.058-0.536l-0.14-0.247c-0.313-0.365-0.357-0.585-0.127-0.659l-0.141-0.248c-1.373-0.037-2.36-0.104-2.957-0.201
				c-0.541,0.196-1.084,0.53-1.631,1.001c-2.68,0.916-4.478,0.519-5.386-1.19l0.027-0.096l-0.263-0.178l-29.776,11.343l-4.294,1.608
				l-86.479-9.356l-51.988-34.251l-58.238-43.895l-34.806-27.275l9.154-29.466L202.354,99.185 M590.645,228.063l0.098,0.027
				l-0.071-0.124L590.645,228.063 M558.806,202.447c0.177,0.123,0.362,0.451,0.558,0.987c0.338,0.025,0.83,0.751,1.472,2.178
				c0.036-0.128,0.077-0.152,0.123-0.07c0.301-0.332,0.535-0.301,0.703,0.092l0.191,0.054c0.107-0.385,0.327-0.429,0.659-0.128
				c0.138-0.238,0.238-0.35,0.302-0.332l2.056,1.198L558.806,202.447 M556.669,201.539c0.078-0.532,0.171-0.611,0.272-0.235
				l1.727,0.896l-0.027,0.097c0.063,0.018,0.119,0.068,0.165,0.149l6.063,3.979c0.048,0.082,0.242,0.379,0.584,0.891
				c0.638,0.939,1.096,2.662,1.366,5.163l23.852,15.488l0.071,0.124l0.096,0.026c0.473-0.7,1.093-0.942,1.865-0.727
				c0.236-0.351,0.472-0.319,0.701,0.091c0.072-0.257,0.137-0.239,0.195,0.055c0.153-0.304,0.374-0.346,0.658-0.128l0.264,0.177
				l2.357,0.865c0.035-0.128,0.183,0.086,0.443,0.644l34.995,20.261l0.192,0.054l2.759,1.289c0.341,0.024,0.654,0.39,0.943,1.095
				c0.655,0.876,0.847,2.558,0.568,5.044l21.722,13.438c4.479-2.146,9-4.315,13.561-6.51l2.346,7.62l6.649-3.344l-2.334-8.031
				c-39.507-23.84-80.102-46.632-121.787-68.376l-2.99,9.978c0.311-0.122,0.668-0.16,1.073-0.117
				c0.189-0.432,0.431-0.434,0.728-0.004c-0.021-0.422,0.076-0.395,0.29,0.081C556.034,201.085,556.244,201.075,556.669,201.539
				 M507.843,177.941l26.024-6.463l9.359-27.224L384.301,69.263l-71.712,7.027l-2.578,9.988l-0.949,0.047l0.161-0.579l-0.852,0.074
				l2.255-8.831l-9.938,0.971l-1.021,8.135l-2.734,0.485l1.391-8.343l-28.523,2.751l112.058,65.247l31.95,21.489L507.843,177.941
				 M343.936,104.784c0.073-4.484,3.333-7.977,9.783-10.474c6.477-2.352,14.334-3.07,23.575-2.158
				c9.204,1.042,17.09,3.45,23.662,7.224c6.664,3.938,9.968,8.116,9.913,12.536c-0.026,4.567-3.319,8.05-9.878,10.448
				c-6.303,2.47-14.169,3.221-23.603,2.253c-9.167-1.171-17.069-3.651-23.704-7.442
				C347.324,113.386,344.075,109.258,343.936,104.784z"/>
			<path fill="#2F2F22" d="M659.878,311.928c0.101-0.11,0.21-0.253,0.327-0.429l-13.689-9.43
				c-14.98,7.739-29.666,15.046-44.055,21.911c9.422,2.49,20.614,2.25,33.57-0.72L659.878,311.928 M235.57,144.833l-2.271,4.044
				l2.341-3.92L235.57,144.833 M368.078,294.788l-11.595-8.745c0.36,3.429,0.317,6.813-0.129,10.153
				c-0.849,6.275-3.055,10.582-6.616,12.915c-3.516,2.416-7.327,2.045-11.437-1.11c-4.092-3.221-7.295-8.135-9.611-14.739
				c-2.198-6.779-2.854-13.375-1.968-19.78c0.41-3.211,1.164-5.913,2.26-8.104l-10.905-8.238c0.593,3.84,0.645,7.631,0.155,11.374
				c-0.879,6.133-2.975,10.295-6.29,12.489c-3.35,2.322-6.978,2.037-10.885-0.854c-4.063-3.074-7.132-7.847-9.209-14.315
				c-2.112-6.342-2.777-12.658-1.991-18.954c0.536-3.662,1.531-6.609,2.985-8.837l-7.146-5.318c0.173,2.612,0.061,5.249-0.334,7.91
				c-0.76,5.956-2.904,10.036-6.429,12.24c-3.269,2.278-6.887,1.959-10.858-0.949c-0.764-0.49-2.062-1.925-3.892-4.307
				c-1.949-2.207-3.638-5.97-5.064-11.289c-1.363-5.301-1.605-11.018-0.727-17.147c0.335-2.193,0.85-4.163,1.544-5.91l-2.999-2.292
				c-0.087,0.808-0.183,1.646-0.287,2.519c-0.86,6.066-3.045,10.172-6.553,12.313c-3.304,2.403-6.9,2.128-10.788-0.827
				c-3.917-3.102-7.01-7.914-9.28-14.439c-2.13-6.277-2.789-12.489-1.974-18.639c0.086-0.807,0.237-1.597,0.453-2.369l-6.689-5.087
				c-2.652,1.061-5.343,0.521-8.071-1.627c-3.473-2.7-6.163-6.848-8.07-12.437c-1.934-5.738-2.496-11.301-1.687-16.688
				c0.562-4.001,1.712-7.008,3.451-9.017l-4.064-3.317c-9.136,16.856-6.393,34.601,8.23,53.233
				c11.883,21.748,29.84,42.349,53.868,61.803l151.521,117.938c7.518,5.839,16.521,9.597,27.002,11.272l38.418,6.87l18.121-5.341
				l31.246-16.235c0.58-1.086,1.062-2.198,1.451-3.339l-1.766-0.386c1.842-4.615,2.809-9.199,2.898-13.746
				c-7.298,2.815-14.497,5.52-21.598,8.113l-0.245,0.139L511,362.301l-4.659,2.548l-1.277-3.995l-2.235-16.216l-9.255,4.486
				l-0.152,0.166c1.084,3.074,2.324,6.329,3.723,9.769c0.648,4.133,0.674,8.264,0.078,12.394c-1.101,7.178-3.615,12.09-7.542,14.738
				c-4.054,2.61-8.303,2.187-12.743-1.269c-4.607-3.363-8.202-8.731-10.79-16.107l-21.642-16.327
				c0.063,2.513-0.08,5.001-0.421,7.472c-1.008,7.341-3.475,12.336-7.4,14.982c-4.055,2.613-8.474,2.177-13.254-1.305
				c-4.927-3.453-8.772-8.684-11.53-15.69c-2.747-6.796-3.944-13.436-3.592-19.921c0.038-1.376,0.14-2.733,0.305-4.072
				c0.35-2.745,0.949-5.143,1.798-7.191l-15.189-11.514c0.522,4.095,0.478,8.103-0.13,12.022c-0.351,2.745-0.723,5.203-1.124,7.38
				c-0.466,2.917-1.691,5.072-3.672,6.459c-3.644,2.381-7.617,1.965-11.919-1.244c-3.143-2.401-6.297-6.122-9.464-11.164
				c-0.678-1.299-1.269-2.78-1.775-4.446c-2.427-6.705-3.17-13.358-2.23-19.957C365.431,300.425,366.489,297.256,368.078,294.788
				 M298.324,78.237l-1.391,8.343l2.734-0.485l1.021-8.135l6.935-56.176L298.324,78.237 M312.589,76.29l0.469-2.053l4.395-35.885
				l-6.131,35.4l-1.368,11.99l-0.729,0.004l-0.161,0.579l0.949-0.047L312.589,76.29 M311.321,73.752l-0.333,1.571l-0.2,1.087
				l-0.054,0.193l-0.107,0.386l-2.255,8.831l0.852-0.074l0.729-0.004L311.321,73.752z"/>
			<path fill="#333333" d="M707.261,305.288c-1.404-1.917-3.322-2.245-5.754-0.981c-2.446,0.565-4.756,2.762-6.934,6.592
				c-2.697,2.713-4.354,5.922-4.974,9.631c-1.024,3.179-0.829,5.831,0.588,7.96c0.78,1.674,2.469,2.074,5.068,1.207
				c2.25-1.106,4.627-3.042,7.13-5.808c2.232-3.535,3.969-6.898,5.203-10.09C708.291,310.046,708.182,307.207,707.261,305.288
				 M543.815,196.187l0.096,0.027l-1.185-2.826c0.094,0.651,0.132,1.389,0.109,2.214L543.815,196.187 M539.236,187.633l-0.385-0.107
				l0.042,0.22L539.236,187.633 M539.236,187.633l1.394,0.597l-2.501-6.312l-4.262-10.44l-26.024,6.463l3.591,41.543l-18.337,15.053
				l29.776-11.343l-6.874-3.684c-6.147-11.001-6.286-23.792-0.419-38.373l7.512-3.83l15.76,10.217L539.236,187.633z"/>
		</g>
	</g>
	<g>
		<path id="Layer0_0_1_STROKES" fill="none" stroke="#111111" stroke-width="2" stroke-linecap="round" stroke-linejoin="round" d="
			M523.136,223.373c-0.046-0.083-0.093-0.165-0.139-0.247c-0.046-0.082-0.11-0.1-0.193-0.054c-0.215-0.476-0.289-0.704-0.226-0.687
			l-0.401-0.425c-0.166-0.393-0.201-0.645-0.1-0.754c-0.596-2.592-0.458-5.568,0.411-8.929c0.555-4.974,2.345-9.776,5.368-14.408
			c2.409-4.665,4.923-7.706,7.536-9.126c0.865-0.868,1.611-1.179,2.236-0.936c0.09-0.321,0.268-0.341,0.536-0.058l0.096,0.027
			c0.054-0.193,0.264-0.205,0.633-0.032 M538.852,187.526l-15.76-10.217l-7.512,3.83c-5.867,14.581-5.729,27.371,0.419,38.373
			l6.874,3.684l0.263,0.178l-0.027,0.096c0.908,1.709,2.706,2.106,5.386,1.19c0.547-0.471,1.09-0.805,1.631-1.001
			c-0.508-0.419-0.863-0.76-1.065-1.024l0.026-0.097l-0.282-1.222c-0.094-0.165-0.171-0.256-0.236-0.274
			c-0.028-0.146-0.002-0.243,0.08-0.289c-0.726-1.866-0.757-3.988-0.094-6.368c0.514-4.084,1.877-7.723,4.085-10.919
			c2.095-3.782,4.386-6.158,6.873-7.127c0.344-0.736,0.796-0.991,1.356-0.765c0.119-0.175,0.257-0.171,0.413,0.011
			c0.118-0.175,0.216-0.147,0.29,0.081c0.3-0.332,0.52-0.375,0.659-0.128c-0.012-0.211,0.049-0.298,0.177-0.262l0.429,0.328
			c0.022-0.826-0.016-1.563-0.109-2.214c-0.15-1.704-0.424-2.958-0.823-3.763c-0.519-0.63-0.749-1.04-0.695-1.233l-0.578-0.161
			l-1.394-0.597l-0.343,0.112 M539.236,187.633l-0.385-0.107 M533.867,171.478l4.262,10.44l2.501,6.312 M507.843,177.941
			l26.024-6.463l9.359-27.224L384.301,69.263l-71.712,7.027 M310.011,86.278l-0.949,0.047l0.161-0.579l-0.852,0.074 M310.626,76.99
			l-9.938,0.971l-1.021,8.135l-2.734,0.485l1.391-8.343l-28.523,2.751l112.058,65.247l31.95,21.489l94.035,10.217l3.591,41.543
			l-18.337,15.053l29.776-11.343 M556.937,191.634l1.898-6.435l-15.608-40.945 M556.937,191.634l-2.99,9.978
			c0.311-0.122,0.668-0.16,1.073-0.117c0.189-0.432,0.431-0.434,0.728-0.004c-0.021-0.422,0.076-0.395,0.29,0.081
			c-0.003-0.486,0.207-0.497,0.632-0.032c0.078-0.532,0.171-0.611,0.272-0.235l1.727,0.896l-0.027,0.097
			c0.063,0.018,0.119,0.068,0.165,0.149l6.063,3.979c0.048,0.082,0.242,0.379,0.584,0.891c0.638,0.939,1.096,2.662,1.366,5.163
			l23.852,15.488l0.071,0.124l0.096,0.026c0.473-0.7,1.093-0.942,1.865-0.727c0.236-0.351,0.472-0.319,0.701,0.091 M593.6,227.536
			c0.153-0.304,0.374-0.346,0.658-0.128l0.264,0.177l2.357,0.865c0.035-0.128,0.183,0.086,0.443,0.644l34.995,20.261l0.192,0.054
			l2.759,1.289c0.341,0.024,0.654,0.39,0.943,1.095c0.655,0.876,0.847,2.558,0.568,5.044l21.722,13.438
			c4.479-2.146,9-4.315,13.561-6.51l2.346,7.62l6.649-3.344l-2.334-8.031c-39.507-23.84-80.102-46.632-121.787-68.376
			 M543.911,196.213c0.129,0.036,0.39,0.352,0.777,0.945c0.222,0.2,0.439,0.781,0.658,1.743c0.008-0.274,0.119-0.313,0.343-0.112
			c0.125-0.45,0.354-0.524,0.685-0.225l0.152-0.165c-0.074-0.229,0.029-0.234,0.315-0.017l2.025,0.565
			c-0.082,0.047,0.077,0.472,0.476,1.277c0.573,0.437,0.975,1.727,1.207,3.87c0.681-1.196,1.474-1.806,2.382-1.83
			c0.301-0.333,0.639-0.55,1.015-0.653 M558.806,202.447c0.177,0.123,0.362,0.451,0.558,0.987c0.338,0.025,0.83,0.751,1.472,2.178
			c0.036-0.128,0.077-0.152,0.123-0.07c0.301-0.332,0.535-0.301,0.703,0.092l0.191,0.054c0.107-0.385,0.327-0.429,0.659-0.128
			c0.138-0.238,0.238-0.35,0.302-0.332l2.056,1.198 M542.836,195.602l0.979,0.584l0.096,0.027l-1.185-2.826 M545.347,198.901
			c-0.128-0.036-0.235-0.03-0.316,0.016c-0.357,0.04-0.668,0.16-0.935,0.364c-0.678-0.051-1.189,0.292-1.533,1.027
			c-1.945,1.26-3.65,3.279-5.12,6.057c-2.371,3.289-3.784,6.984-4.235,11.085c-0.261,0.689-0.449,1.364-0.564,2.025
			c-0.078,0.533-0.084,1.051-0.018,1.555c-0.023,0.825,0.13,1.768,0.457,2.83l0.141,0.248c-0.23,0.073-0.187,0.294,0.127,0.659
			l0.14,0.247l0.058,0.536l0.236,0.274l-0.026,0.096c0.777,1.188,2.389,1.497,4.834,0.933c0.317-0.396,0.651-0.72,0.997-0.969
			c-0.051-1.054,0.07-1.99,0.367-2.808c0.441-2.58,1.148-4.982,2.113-7.207c0.915-2.032,2.025-3.906,3.336-5.62
			c0.788-1.581,1.641-2.903,2.561-3.963c0.817-0.95,1.682-1.68,2.585-2.19 M560.835,205.612l-0.027,0.096
			c-0.808-0.086-1.471,0.179-1.989,0.797c-2.735,1.108-5.391,3.798-7.967,8.069c-2.683,3.895-4.378,8.24-5.091,13.031
			c-0.946,2.646-1.022,4.912-0.232,6.795c-0.118,0.176-0.094,0.459,0.075,0.853c-0.018,0.065,0.111,0.344,0.391,0.837l0.016,0.316
			c0.01,0.21,0.156,0.425,0.443,0.644l0.428,0.327l-0.176,0.262c1.045,1.471,3.061,1.825,6.044,1.063
			c0.089-0.321,0.157-0.441,0.203-0.359l-1.005-2.36l-0.428-0.326c-0.271-0.769-0.455-1.098-0.556-0.987
			c-0.588-1.618-0.55-3.618,0.113-5.997c0.379-3.845,1.788-7.159,4.228-9.944c2.087-3.506,4.395-5.566,6.921-6.178
			c0.592-0.875,1.194-1.052,1.813-0.534c0.153-0.303,0.373-0.346,0.659-0.128l0.026-0.096c-0.029-0.147,0.67,0.082,2.095,0.688
			 M590.742,228.091l-0.098-0.027c-3.082,1.358-5.868,4.15-8.364,8.374c-2.916,4.246-4.635,8.791-5.155,13.637
			c-0.318,1.643-0.488,3.12-0.508,4.432c0.126,1.282,0.393,2.57,0.795,3.859c-0.036,0.129,0.03,0.391,0.196,0.783l0.379,1.248
			c-0.164,0.094-0.118,0.176,0.14,0.248l0.262,0.177c0.205,0.265,0.62,0.762,1.249,1.491c0.428-0.296,0.741-0.174,0.938,0.366
			l33.412,22.208 M614.218,284.433l0.026-0.097c-0.02-0.422-0.091-0.545-0.208-0.371c-0.507-0.419-0.721-0.649-0.636-0.697
			l-0.088-0.44c-0.405-0.527-0.527-0.839-0.363-0.932c-0.723-2.628-0.603-5.538,0.358-8.736c0.774-5.26,2.67-10.067,5.686-14.423
			c2.744-4.364,5.798-7.116,9.165-8.256c0.599-0.665,1.387-0.999,2.359-1.005c0.218-0.286,0.517-0.238,0.894,0.146l0.193,0.054
			c0.172-0.368,0.401-0.441,0.687-0.225 M594.521,227.585l2.801,1.509 M266.445,91.903l-64.092,7.282l-3.19,21.876
			c10.026,6.539,19.727,12.882,29.1,19.032c2.468,1.588,4.903,3.169,7.306,4.74l0.07,0.124
			c16.943,11.309,33.211,22.43,48.805,33.363c0.46,0.336,0.995,0.658,1.601,0.967c36.384,24.354,68.548,46.318,96.491,65.895
			c51.247,35.914,90.845,65.637,118.797,89.164c4.758-1.653,9.515-3.308,14.272-4.961c35.572-12.74,71.536-27.138,107.894-43.195
			l-1.381-1.009c-0.019,0.066,0.047,0.326,0.195,0.784c-0.34-0.512-0.439-0.539-0.288-0.081c-0.45-0.125-0.714,0.077-0.794,0.609
			c-2.063,0.187-3.953,0.008-5.672-0.543l-1.573-1.063 M269.801,80.988l-3.355,10.915l-9.154,29.466l34.806,27.275l58.238,43.895
			l51.988,34.251l11.484-59.066 M400.957,99.376c6.664,3.938,9.968,8.116,9.913,12.536c-0.026,4.567-3.319,8.05-9.878,10.448
			c-6.303,2.47-14.169,3.221-23.603,2.253c-9.167-1.171-17.069-3.651-23.704-7.442c-6.361-3.784-9.609-7.913-9.749-12.386
			c0.073-4.484,3.333-7.977,9.783-10.474c6.477-2.352,14.334-3.07,23.575-2.158C386.499,93.195,394.385,95.603,400.957,99.376z
			 M310.988,75.324l0.333-1.571l6.131-35.4l-4.395,35.885 M311.321,73.752l-1.368,11.99l-0.729,0.004 M310.788,76.411l-0.096-0.027
			 M300.688,77.96l6.935-56.176l-9.3,56.453 M356.483,286.043l11.595,8.745l27.143,20.46l15.189,11.514l34.095,25.726l21.642,16.327
			l1.977,1.488l18.013-13.897l7.285-7.115l0.152-0.166l-1.939-10.937c-63.655-52.058-132.521-103.318-206.6-153.779
			c-0.129-0.036-0.216-0.095-0.263-0.177c-0.572-0.436-1.096-0.792-1.575-1.063c-16.922-12.135-33.554-23.566-49.897-34.292
			c-4.282-2.788-8.596-5.584-12.941-8.391c-9.374-6.149-18.796-12.242-28.271-18.28l-1.318,9.196l12.608,9.961l4.064,3.317
			l8.445,6.617l1.455,29.824l4.478,3.328l6.689,5.087l28.428,21.443l2.999,2.292l25.761,19.452l7.146,5.318l25.235,19.097
			l10.905,8.238L356.483,286.043c0.36,3.429,0.317,6.813-0.129,10.153c-0.849,6.275-3.055,10.582-6.616,12.915
			c-3.516,2.416-7.327,2.045-11.437-1.11c-4.092-3.221-7.295-8.135-9.611-14.739c-2.198-6.779-2.854-13.375-1.968-19.78
			c0.41-3.211,1.164-5.913,2.26-8.104 M395.22,315.248c0.522,4.095,0.478,8.103-0.13,12.022c-0.351,2.745-0.723,5.203-1.124,7.38
			c-0.466,2.917-1.691,5.072-3.672,6.459c-3.644,2.381-7.617,1.965-11.919-1.244c-3.143-2.401-6.297-6.122-9.464-11.164
			c-0.678-1.299-1.269-2.78-1.775-4.446c-2.427-6.705-3.17-13.358-2.23-19.957c0.526-3.873,1.583-7.042,3.172-9.51 M318.076,257.14
			c0.593,3.84,0.645,7.631,0.155,11.374c-0.879,6.133-2.975,10.295-6.29,12.489c-3.35,2.322-6.978,2.037-10.885-0.854
			c-4.063-3.074-7.132-7.847-9.209-14.315c-2.112-6.342-2.777-12.658-1.991-18.954c0.536-3.662,1.531-6.609,2.985-8.837
			 M444.504,352.487c0.063,2.513-0.08,5.001-0.421,7.472c-1.008,7.341-3.475,12.336-7.4,14.982
			c-4.055,2.613-8.474,2.177-13.254-1.305c-4.927-3.453-8.772-8.684-11.53-15.69c-2.747-6.796-3.944-13.436-3.592-19.921
			c0.038-1.376,0.14-2.733,0.305-4.072c0.35-2.745,0.949-5.143,1.798-7.191 M203.376,141.363
			c-9.136,16.856-6.393,34.601,8.23,53.233c11.883,21.748,29.84,42.349,53.868,61.803l151.521,117.938
			c7.518,5.839,16.521,9.597,27.002,11.272l38.418,6.87l18.121-5.341l31.246-16.235c0.58-1.086,1.062-2.198,1.451-3.339
			 M531.469,367.18c1.842-4.615,2.809-9.199,2.898-13.746c-7.298,2.815-14.497,5.52-21.598,8.113l-0.245,0.139L511,362.301
			l-4.659,2.548l-1.277-3.995l-2.235-16.216l-9.255,4.486 M256.936,210.98c-0.087,0.808-0.183,1.646-0.287,2.519
			c-0.86,6.066-3.045,10.172-6.553,12.313c-3.304,2.403-6.9,2.128-10.788-0.827c-3.917-3.102-7.01-7.914-9.28-14.439
			c-2.13-6.277-2.789-12.489-1.974-18.639c0.086-0.807,0.237-1.597,0.453-2.369 M259.934,213.272
			c-0.694,1.747-1.209,3.717-1.544,5.91c-0.878,6.13-0.636,11.847,0.727,17.147c1.427,5.319,3.115,9.082,5.064,11.289
			c1.83,2.382,3.128,3.816,3.892,4.307c3.972,2.908,7.59,3.228,10.858,0.949c3.525-2.204,5.669-6.284,6.429-12.24
			c0.395-2.661,0.507-5.298,0.334-7.91 M221.818,184.45c-2.652,1.061-5.343,0.521-8.071-1.627c-3.473-2.7-6.163-6.848-8.07-12.437
			c-1.934-5.738-2.496-11.301-1.687-16.688c0.562-4.001,1.712-7.008,3.451-9.017 M701.34,293.346l2.938,1.027l6.779,4.386
			c0.157,0.182,0.502,0.692,1.028,1.534c1.139,1.632,1.73,3.982,1.777,7.045c-0.201,1.467-0.51,3.322-0.928,5.563
			c-1.284,4.354-3.853,9.217-7.707,14.587c-2.98,2.981-5.876,5.293-8.69,6.932c-1.354,0.386-2.379,0.827-3.072,1.326
			c-2.712,0.283-4.926,0.013-6.635-0.812 M686.648,334.467l-4.681-2.969c-1.601-0.724-2.733-1.629-3.401-2.714l0.15-0.167
			 M677.693,327.812l-0.268-0.905c-0.277-0.493-0.278-0.737-0.003-0.729c-0.735-1.59-0.87-2.599-0.404-3.022l-16.813-11.655
			c-0.117,0.176-0.227,0.318-0.327,0.429l-23.847,11.333c-12.956,2.97-24.148,3.21-33.57,0.72
			c-23.525,11.042-46.223,20.861-68.094,29.453 M674.408,271.385l0.083,8.65l21.815,13.466l0.414,0.011l0.165,0.15
			c0.308-0.607,0.962-0.841,1.961-0.7c0.036-0.128,0.304-0.089,0.8,0.12l0.192,0.053c0.101-0.111,0.505-0.066,1.212,0.13
			 M677.019,323.154c-0.354-2.456-0.251-4.576,0.317-6.357c1.34-5.308,3.813-10.197,7.416-14.668
			c3.328-4.477,7.135-7.193,11.421-8.146c-0.169-0.392-0.164-0.53,0.012-0.412l0.026-0.096l0.096,0.026 M704.277,294.373
			c0.074,0.228,0.267,0.906,0.576,2.031l0.502,1.18c0.207-0.495,0.564-0.535,1.071-0.116l0.608,0.063
			c0.106-0.384,0.381-0.376,0.823,0.023l0.344-0.111l2.854,1.315 M705.355,297.584c-0.947-0.334-1.743-0.209-2.391,0.372
			c-4.122,0.86-7.959,3.567-11.517,8.119c-4.17,4.52-6.677,9.399-7.513,14.642c-1.033,3.455-1.105,6.692-0.216,9.711
			c-0.11-0.1,0.02,0.179,0.392,0.838l0.111,0.343l0.594,0.478c-0.301-0.155-0.213,0.147,0.268,0.905l0.29,0.081l-0.054,0.193
			 M707.589,313.799c-1.234,3.191-2.971,6.555-5.203,10.09c-2.503,2.766-4.88,4.701-7.13,5.808c-2.6,0.867-4.288,0.467-5.068-1.207
			c-1.417-2.129-1.612-4.781-0.588-7.96c0.62-3.709,2.276-6.918,4.974-9.631c2.178-3.83,4.487-6.026,6.934-6.592
			c2.432-1.264,4.35-0.936,5.754,0.981C708.182,307.207,708.291,310.046,707.589,313.799z M658.502,270.274l15.989,9.761
			 M646.516,302.069l13.689,9.43 M684.223,331.608c-1.027-0.287-1.781-0.324-2.255-0.11 M632.51,249.408l-0.219,0.042
			 M622.119,285.18l-0.125,0.069l-0.043-0.219l-1.529-2.713c-0.343-0.513-0.441-0.781-0.294-0.812
			c-0.82-2.03-0.894-4.373-0.223-7.025c0.542-3.938,2.23-7.626,5.059-11.064c2.363-3.499,5.239-5.608,8.627-6.326
			c0.519-0.618,1.209-0.737,2.074-0.358c-0.011-0.209,0.224-0.179,0.703,0.093c-0.223-0.199-0.085-0.196,0.412,0.012
			 M614.218,284.433c0.249,0.345,0.698,0.852,1.343,1.517 M552.952,238.342l0.072,0.124l23.593,16.04 M542.586,234.515
			c-0.766-0.49-1.27-0.908-1.521-1.255l0.026-0.098l-0.235-0.273c-0.014-0.696-0.12-0.934-0.321-0.713l-0.207-0.369
			c-0.297-0.43-0.33-0.683-0.103-0.757c-0.68-1.783-0.894-3.506-0.638-5.167 M545.528,234.399c-1.346,0.11-2.327,0.148-2.942,0.115
			l4.119,3.123 M530.125,223.658c0.597,0.098,1.584,0.165,2.957,0.201 M493.097,234.538l-4.294,1.608l-86.479-9.356 M493.421,349.29
			c1.084,3.074,2.324,6.329,3.723,9.769c0.648,4.133,0.674,8.264,0.078,12.394c-1.101,7.178-3.615,12.09-7.542,14.738
			c-4.054,2.61-8.303,2.187-12.743-1.269c-4.607-3.363-8.202-8.731-10.79-16.107 M502.828,344.638l-1.494-10.293 M623.5,286.188
			l23.016,15.881c-14.98,7.739-29.666,15.046-44.055,21.911 M199.164,121.061l-7.077,1.145"/>
	</g>
</g>
</svg>
