<svg xmlns="http://www.w3.org/2000/svg" width="900" height="450" viewBox="0 0 900 450"><path fill="#616145" d="M486.136 356.405l-18.013 13.897-1.977-1.488c2.588 7.376 6.183 12.744 10.79 16.107 4.44 3.455 8.689 3.879 12.743 1.269 3.927-2.648 6.441-7.561 7.542-14.738.596-4.13.57-8.261-.078-12.394a222.228 222.228 0 0 1-3.723-9.769l-7.284 7.116M203.99 153.697c-.809 5.387-.247 10.951 1.687 16.688 1.907 5.588 4.597 9.736 8.07 12.437 2.728 2.148 5.419 2.688 8.071 1.627l-4.478-3.328-1.455-29.824-8.445-6.617c-1.738 2.009-2.888 5.016-3.45 9.017m55.944 59.575c-.694 1.747-1.209 3.717-1.544 5.91-.878 6.13-.636 11.847.727 17.147 1.427 5.319 3.115 9.082 5.064 11.289 1.83 2.382 3.128 3.816 3.892 4.307 3.972 2.908 7.59 3.228 10.858.949 3.525-2.204 5.669-6.284 6.429-12.24.395-2.661.507-5.298.334-7.91l-25.76-19.452m-3.285.227c.104-.873.2-1.71.287-2.519l-28.428-21.443a14.595 14.595 0 0 0-.453 2.369c-.815 6.15-.157 12.362 1.974 18.639 2.27 6.525 5.362 11.337 9.28 14.439 3.888 2.955 7.484 3.23 10.788.827 3.507-2.14 5.692-6.246 6.552-12.312m153.76 113.263c-.849 2.049-1.448 4.446-1.798 7.191a42.973 42.973 0 0 0-.305 4.072c-.353 6.485.845 13.125 3.592 19.921 2.758 7.007 6.603 12.237 11.53 15.69 4.78 3.481 9.199 3.918 13.254 1.305 3.926-2.646 6.392-7.642 7.4-14.982a46.09 46.09 0 0 0 .421-7.472l-34.094-25.725m-98.468-45.759c3.315-2.194 5.411-6.356 6.29-12.489.49-3.743.438-7.534-.155-11.374l-25.235-19.097c-1.454 2.228-2.449 5.175-2.985 8.837-.786 6.296-.122 12.612 1.991 18.954 2.077 6.469 5.146 11.241 9.209 14.315 3.907 2.891 7.535 3.176 10.885.854m44.413 15.193c.447-3.34.49-6.725.129-10.153l-27.502-20.665c-1.096 2.19-1.85 4.893-2.26 8.104-.886 6.405-.23 13.001 1.968 19.78 2.316 6.604 5.519 11.519 9.611 14.739 4.11 3.155 7.921 3.526 11.437 1.11 3.561-2.333 5.767-6.639 6.617-12.915m11.724-1.408c-1.589 2.468-2.646 5.637-3.172 9.51-.94 6.599-.196 13.252 2.23 19.957.506 1.666 1.098 3.147 1.775 4.446 3.167 5.042 6.322 8.763 9.464 11.164 4.302 3.209 8.275 3.625 11.919 1.244 1.981-1.387 3.207-3.542 3.672-6.459.4-2.177.773-4.635 1.124-7.38.608-3.92.652-7.928.13-12.022l-27.142-20.46z"/><path fill="#696E68" d="M512.524 361.686l.245-.139a1289.3 1289.3 0 0 0 21.598-8.113c21.871-8.592 44.568-18.411 68.094-29.453a1554.883 1554.883 0 0 0 44.055-21.911L623.5 286.188c-36.357 16.058-72.321 30.455-107.894 43.195l-14.272 4.961 1.494 10.293 2.235 16.216 1.277 3.995 4.659-2.548 1.525-.614m-23.721-125.54l4.294-1.608 18.337-15.053-3.591-41.543-94.035-10.217-11.484 59.066 86.479 9.355m143.488 13.304c-.285-.217-.515-.144-.687.225l-.193-.054c-.377-.384-.676-.432-.894-.146-.973.006-1.761.34-2.359 1.005-3.367 1.14-6.421 3.892-9.165 8.256-3.016 4.355-4.911 9.163-5.686 14.423-.961 3.198-1.081 6.108-.358 8.736-.164.093-.042.404.363.932l.088.44c-.085.048.129.278.636.697.117-.174.188-.051.208.371l-.026.097c.249.345.698.852 1.343 1.517 1.719.551 3.609.729 5.672.543.08-.532.344-.734.794-.609-.151-.458-.052-.431.288.081-.148-.458-.214-.718-.195-.784l-.125.069-.043-.219-1.529-2.713c-.343-.513-.441-.781-.294-.812-.82-2.03-.894-4.373-.223-7.025.542-3.938 2.23-7.626 5.059-11.064 2.363-3.499 5.239-5.608 8.627-6.326.519-.618 1.209-.737 2.074-.358-.011-.209.224-.179.703.093-.223-.199-.085-.196.412.012.278-2.486.087-4.168-.568-5.044-.289-.705-.603-1.07-.943-1.095l-2.759-1.289-.22.041m42.2 30.585l-.083-8.65-2.346-7.62c-4.561 2.194-9.082 4.363-13.561 6.51l15.99 9.76m32.544 17.496l-.608-.063c-.507-.419-.864-.379-1.071.116-.947-.334-1.743-.209-2.391.372-4.122.86-7.959 3.567-11.517 8.119-4.17 4.52-6.677 9.399-7.513 14.642-1.033 3.455-1.105 6.692-.216 9.711-.11-.1.02.179.392.838l.111.343.594.478c-.301-.155-.213.147.268.905l.29.081-.054.193c.221.2.664.602 1.328 1.201.107-.384.168-.229.182.467 1.709.824 3.923 1.095 6.635.812.693-.499 1.719-.94 3.072-1.326 2.814-1.639 5.71-3.95 8.69-6.932 3.854-5.37 6.423-10.232 7.707-14.587.418-2.24.727-4.096.928-5.563-.047-3.063-.639-5.413-1.777-7.045-.526-.842-.871-1.353-1.028-1.534l-2.854-1.315-.344.111c-.443-.4-.717-.408-.824-.024m-5.528 6.776c2.432-1.264 4.35-.936 5.754.981.921 1.919 1.03 4.758.328 8.511-1.234 3.191-2.971 6.555-5.203 10.09-2.503 2.766-4.88 4.701-7.13 5.808-2.6.867-4.288.467-5.068-1.207-1.417-2.129-1.612-4.781-.588-7.96.62-3.709 2.276-6.918 4.974-9.631 2.177-3.831 4.487-6.027 6.933-6.592m-5.322-10.737l.026-.096.096.026-21.815-13.466-15.989-9.761-21.722-13.438c-.497-.208-.635-.211-.412-.012-.479-.271-.714-.302-.703-.093-.865-.379-1.556-.26-2.074.358-3.388.718-6.264 2.827-8.627 6.326-2.828 3.438-4.517 7.126-5.059 11.064-.671 2.652-.598 4.995.223 7.025-.147.03-.049.299.294.812l1.529 2.713.043.219.125-.069 1.381 1.009 23.016 15.881 13.689 9.43 16.813 11.655c-.354-2.456-.251-4.576.317-6.357 1.34-5.308 3.813-10.197 7.416-14.668 3.328-4.477 7.135-7.193 11.421-8.146-.169-.391-.164-.53.012-.412m5.155-.224l-.289-.081c-.707-.196-1.111-.241-1.212-.13l-.192-.053c-.496-.209-.764-.248-.8-.12-.999-.141-1.653.093-1.961.7l-.165-.15-.414-.011-.096-.026-.026.096c-.176-.118-.181.021-.012.412-4.286.953-8.093 3.67-11.421 8.146-3.604 4.471-6.076 9.36-7.416 14.668-.568 1.781-.672 3.901-.317 6.357-.466.424-.331 1.433.404 3.022-.275-.008-.274.236.003.729l.268.905.664.602c.101-.111.219-.042.359.204l-.15.167c.668 1.085 1.801 1.99 3.401 2.714.474-.214 1.228-.177 2.255.11l-.111-.343c-.372-.659-.502-.938-.392-.838-.89-3.019-.817-6.256.216-9.711.836-5.242 3.343-10.122 7.513-14.642 3.558-4.552 7.395-7.259 11.517-8.119.647-.581 1.443-.706 2.391-.372l-.502-1.18a73.69 73.69 0 0 0-.576-2.031l-2.939-1.025M233.299 148.877l2.271-4.044a1197.244 1197.244 0 0 0-7.306-4.74c-9.374-6.15-19.074-12.493-29.1-19.032l-7.077 1.145a2561.231 2561.231 0 0 1 28.271 18.28c4.345 2.806 8.659 5.603 12.941 8.391m52.746 30.409a11.822 11.822 0 0 1-1.601-.967 2576.695 2576.695 0 0 0-48.805-33.363l-2.341 3.92c16.343 10.727 32.976 22.157 49.897 34.292.479.271 1.003.626 1.575 1.063.046.082.133.141.263.177 74.079 50.46 142.945 101.721 206.6 153.779l1.939 10.937 9.255-4.486-1.494-10.293c-27.952-23.527-67.55-53.25-118.797-89.164-27.943-19.577-60.106-41.541-96.491-65.895m70.438 106.757l11.595 8.745 27.143 20.46 15.189 11.514 34.095 25.726 21.642 16.327 1.977 1.488 18.013-13.897 7.285-7.115.152-.166-1.939-10.937c-63.655-52.058-132.521-103.318-206.6-153.779-.129-.036-.216-.095-.263-.177a14.155 14.155 0 0 0-1.575-1.063c-16.922-12.135-33.554-23.566-49.897-34.292a4325.125 4325.125 0 0 0-12.941-8.391 2551.838 2551.838 0 0 0-28.271-18.28l-1.318 9.196 12.608 9.961 4.064 3.317 8.445 6.617 1.455 29.824 4.478 3.328 6.689 5.087 28.428 21.443 2.999 2.292 25.761 19.452 7.146 5.318 25.235 19.097 10.905 8.238 27.5 20.667M269.801 80.988l-3.355 10.915-9.154 29.466 34.806 27.275 58.238 43.895 51.988 34.251 11.484-59.066-31.95-21.489-112.057-65.247m327.521 148.106c-.261-.558-.408-.771-.443-.644l-2.357-.865 2.8 1.509m-2.801-1.509l-.264-.177c-.284-.218-.505-.176-.658.128-.059-.294-.123-.312-.195-.055-.229-.41-.465-.441-.701-.091-.772-.216-1.393.026-1.865.727l-.096-.026-.098-.027c-3.082 1.358-5.868 4.15-8.364 8.374-2.916 4.246-4.635 8.791-5.155 13.637-.318 1.643-.488 3.12-.508 4.432a19.29 19.29 0 0 0 .795 3.859c-.036.129.03.391.196.783l.379 1.248c-.164.094-.118.176.14.248l.262.177c.205.265.62.762 1.249 1.491.428-.296.741-.174.938.366l33.412 22.208.23-.454.026-.097c-.02-.422-.091-.545-.208-.371-.507-.419-.721-.649-.636-.697l-.088-.44c-.405-.527-.527-.839-.363-.932-.723-2.628-.603-5.538.358-8.736.774-5.26 2.67-10.067 5.686-14.423 2.744-4.364 5.798-7.116 9.165-8.256.599-.665 1.387-.999 2.359-1.005.218-.286.517-.238.894.146l.193.054c.172-.368.401-.441.687-.225l.026-.096-34.995-20.261-2.801-1.509m-27.702-15.106c-1.425-.605-2.124-.835-2.095-.688l-.026.096c-.286-.218-.506-.175-.659.128-.619-.519-1.222-.341-1.813.534-2.526.612-4.834 2.672-6.921 6.178-2.439 2.785-3.849 6.1-4.228 9.944-.663 2.379-.701 4.379-.113 5.997.101-.11.284.219.556.987l.428.326 1.005 2.36.072.124 23.593 16.04c.02-1.312.189-2.789.508-4.432.521-4.846 2.239-9.391 5.155-13.637 2.496-4.224 5.282-7.016 8.364-8.374l.026-.097-23.852-15.486m-8.001-5.974c-2.735 1.108-5.391 3.798-7.967 8.069-2.683 3.895-4.378 8.24-5.091 13.031-.946 2.646-1.022 4.912-.232 6.795-.118.176-.094.459.075.853-.018.065.111.344.391.837l.016.316c.01.21.156.425.443.644l.428.327-.176.262c1.045 1.471 3.061 1.825 6.044 1.063.089-.321.157-.441.203-.359l-1.005-2.36-.428-.326c-.271-.769-.455-1.098-.556-.987-.588-1.618-.55-3.618.113-5.997.379-3.845 1.788-7.159 4.228-9.944 2.087-3.506 4.395-5.566 6.921-6.178.592-.875 1.194-1.052 1.813-.534.153-.303.373-.346.659-.128l.026-.096c-.029-.147.67.082 2.095.688-.271-2.501-.729-4.223-1.366-5.163a32.202 32.202 0 0 1-.584-.891l-2.056-1.198c-.063-.018-.164.094-.302.332-.332-.301-.552-.257-.659.128l-.191-.054c-.168-.393-.402-.424-.703-.092-.046-.083-.087-.059-.123.07l-.027.096c-.807-.088-1.47.178-1.989.796m-12.444-7.942c-.33-.299-.56-.225-.685.225-.224-.2-.335-.162-.343.112-.128-.036-.235-.03-.316.016-.357.04-.668.16-.935.364-.678-.051-1.189.292-1.533 1.027-1.945 1.26-3.65 3.279-5.12 6.057-2.371 3.289-3.784 6.984-4.235 11.085a11.082 11.082 0 0 0-.564 2.025 5.637 5.637 0 0 0-.018 1.555c-.023.825.13 1.768.457 2.83l.141.248c-.23.073-.187.294.127.659l.14.247.058.536.236.274-.026.096c.777 1.188 2.389 1.497 4.834.933.317-.396.651-.72.997-.969-.051-1.054.07-1.99.367-2.808.441-2.58 1.148-4.982 2.113-7.207a28.407 28.407 0 0 1 3.336-5.62c.788-1.581 1.641-2.903 2.561-3.963.817-.95 1.682-1.68 2.585-2.19-.232-2.144-.634-3.433-1.207-3.87-.398-.805-.558-1.23-.476-1.277l-2.025-.565c-.286-.218-.39-.212-.315.017l-.154.163m10.567 2.741c-.102-.376-.194-.297-.272.235-.425-.464-.635-.454-.632.032-.214-.476-.312-.503-.29-.081-.297-.43-.538-.428-.728.004-.405-.043-.763-.004-1.073.117-.376.104-.714.321-1.015.653-.908.023-1.701.634-2.382 1.83-.903.51-1.768 1.24-2.585 2.19-.92 1.061-1.772 2.382-2.561 3.963a28.35 28.35 0 0 0-3.336 5.62c-.965 2.225-1.672 4.627-2.113 7.207-.297.818-.418 1.754-.367 2.808-.256 1.662-.042 3.384.638 5.167-.228.074-.194.327.103.757l.207.369c.201-.221.308.017.321.713l.235.273-.026.098c.251.347.755.765 1.521 1.255.615.033 1.597-.005 2.942-.115-.79-1.883-.714-4.148.232-6.795.713-4.791 2.408-9.136 5.091-13.031 2.576-4.271 5.231-6.961 7.967-8.069.519-.618 1.182-.884 1.989-.797l.027-.096c-.642-1.427-1.134-2.153-1.472-2.178-.195-.536-.381-.864-.558-.987-.046-.082-.102-.131-.165-.149l.027-.097-1.725-.896M353.719 94.31c-6.45 2.497-9.71 5.99-9.783 10.474.139 4.474 3.388 8.602 9.749 12.386 6.635 3.792 14.537 6.271 23.704 7.442 9.433.968 17.3.217 23.603-2.253 6.559-2.398 9.852-5.88 9.878-10.448.055-4.419-3.25-8.598-9.913-12.536-6.572-3.774-14.458-6.182-23.662-7.224-9.241-.911-17.099-.193-23.576 2.159m187.149 101.263c-.561-.226-1.013.029-1.356.765-2.487.97-4.778 3.345-6.873 7.127-2.208 3.196-3.571 6.835-4.085 10.919-.663 2.379-.632 4.501.094 6.368-.082.046-.108.143-.08.289.065.019.143.109.236.274l.282 1.222-.026.097c.202.264.558.605 1.065 1.024.597.098 1.584.165 2.957.201-.327-1.062-.48-2.004-.457-2.83a5.599 5.599 0 0 1 .018-1.555c.115-.661.304-1.336.564-2.025.451-4.102 1.864-7.797 4.235-11.085 1.47-2.778 3.175-4.797 5.12-6.057.344-.735.855-1.078 1.533-1.027a1.84 1.84 0 0 1 .935-.364c.081-.046.188-.051.316-.016-.219-.962-.437-1.542-.658-1.743-.388-.593-.648-.909-.777-.945l-.096-.027-.979-.584-.429-.328c-.128-.036-.188.051-.177.262-.14-.247-.359-.204-.659.128-.074-.228-.172-.255-.29-.081-.156-.18-.294-.184-.413-.009m-.238-7.343l.578.161c-.054.193.177.603.695 1.233.399.805.673 2.059.823 3.763l1.185 2.826c.129.036.39.352.777.945.222.2.439.781.658 1.743.008-.274.119-.313.343-.112.125-.45.354-.524.685-.225l.152-.165c-.074-.229.029-.234.315-.017l2.025.565c-.082.047.077.472.476 1.277.573.437.975 1.727 1.207 3.87.681-1.196 1.474-1.806 2.382-1.83.301-.333.639-.55 1.015-.653l2.99-9.978 1.898-6.435-15.608-40.945-9.359 27.224 4.262 10.44 2.501 6.313m-3.001-.422c-.625-.243-1.371.068-2.236.936-2.613 1.42-5.127 4.461-7.536 9.126-3.023 4.632-4.813 9.434-5.368 14.408-.869 3.361-1.007 6.337-.411 8.929-.102.11-.066.362.1.754l.401.425c-.063-.018.011.21.226.687.083-.046.147-.028.193.054l.139.247-.027.096c.908 1.709 2.706 2.106 5.386 1.19.547-.471 1.09-.805 1.631-1.001-.508-.419-.863-.76-1.065-1.024l.026-.097-.282-1.222c-.094-.165-.171-.256-.236-.274-.028-.146-.002-.243.08-.289-.726-1.866-.757-3.988-.094-6.368.514-4.084 1.877-7.723 4.085-10.919 2.095-3.782 4.386-6.158 6.873-7.127.344-.736.796-.991 1.356-.765.119-.175.257-.171.413.011.118-.175.216-.147.29.081.3-.332.52-.375.659-.128-.012-.211.049-.298.177-.262l.429.328a13.246 13.246 0 0 0-.109-2.214c-.15-1.704-.424-2.958-.823-3.763-.519-.63-.749-1.04-.695-1.233l-.578-.161-1.394-.597-.343.112c-.369-.173-.579-.162-.633.032l-.096-.027c-.271-.286-.448-.266-.538.055m-2.236.936c.865-.868 1.611-1.179 2.236-.936.09-.321.268-.341.536-.058l.096.027c.054-.193.264-.205.633-.032l-.042-.22-15.76-10.217-7.512 3.83c-5.867 14.581-5.729 27.371.419 38.373l6.874 3.684.263.178-.139-.247c-.046-.082-.11-.1-.193-.054-.215-.476-.289-.704-.226-.687l-.401-.425c-.166-.393-.201-.645-.1-.754-.596-2.592-.458-5.568.411-8.929.555-4.974 2.345-9.776 5.368-14.408 2.41-4.664 4.923-7.705 7.537-9.125z"/><path fill="#8E918D" d="M545.994 236.089c-.279-.493-.408-.771-.391-.837-.169-.394-.193-.677-.075-.853-1.346.11-2.327.148-2.942.115l4.119 3.123.176-.262-.428-.327c-.287-.219-.434-.434-.443-.644l-.016-.315m67.993 48.798l1.573 1.063c-.645-.665-1.094-1.172-1.343-1.517l-.23.454m18.33-35.533l-.026.096.219-.042-.193-.054M310.788 76.411l-.096-.027.042.22.054-.193M202.354 99.185l-3.19 21.876a12643.818 12643.818 0 0 1 29.1 19.032c2.468 1.588 4.903 3.169 7.306 4.74l.07.124a2583.147 2583.147 0 0 1 48.805 33.363c.46.336.995.658 1.601.967 36.384 24.354 68.548 46.318 96.491 65.895 51.247 35.914 90.845 65.637 118.797 89.164l14.272-4.961c35.572-12.74 71.536-27.138 107.894-43.195l-1.381-1.009c-.019.066.047.326.195.784-.34-.512-.439-.539-.288-.081-.45-.125-.714.077-.794.609-2.063.187-3.953.008-5.672-.543l-1.573-1.063-33.412-22.208c-.196-.54-.51-.662-.938-.366a44.92 44.92 0 0 1-1.249-1.491l-.262-.177c-.258-.072-.304-.154-.14-.248l-.379-1.248c-.166-.393-.232-.654-.196-.783a19.29 19.29 0 0 1-.795-3.859l-23.593-16.04-.072-.124c-.046-.082-.114.038-.203.359-2.983.762-4.999.407-6.044-1.063l-4.119-3.123c-.766-.49-1.27-.908-1.521-1.255l.026-.098-.235-.273c-.014-.696-.12-.934-.321-.713l-.207-.369c-.297-.43-.33-.683-.103-.757-.68-1.783-.894-3.506-.638-5.167-.346.25-.68.573-.997.969-2.445.564-4.057.255-4.834-.933l.026-.096-.236-.274-.058-.536-.14-.247c-.313-.365-.357-.585-.127-.659l-.141-.248c-1.373-.037-2.36-.104-2.957-.201-.541.196-1.084.53-1.631 1.001-2.68.916-4.478.519-5.386-1.19l.027-.096-.263-.178-29.776 11.343-4.294 1.608-86.479-9.356-51.988-34.251-58.238-43.895-34.806-27.275 9.154-29.466-64.088 7.281m388.291 128.878l.098.027-.071-.124-.027.097m-31.839-25.616c.177.123.362.451.558.987.338.025.83.751 1.472 2.178.036-.128.077-.152.123-.07.301-.332.535-.301.703.092l.191.054c.107-.385.327-.429.659-.128.138-.238.238-.35.302-.332l2.056 1.198-6.064-3.979m-2.137-.908c.078-.532.171-.611.272-.235l1.727.896-.027.097c.063.018.119.068.165.149l6.063 3.979c.048.082.242.379.584.891.638.939 1.096 2.662 1.366 5.163l23.852 15.488.071.124.096.026c.473-.7 1.093-.942 1.865-.727.236-.351.472-.319.701.091.072-.257.137-.239.195.055.153-.304.374-.346.658-.128l.264.177 2.357.865c.035-.128.183.086.443.644l34.995 20.261.192.054 2.759 1.289c.341.024.654.39.943 1.095.655.876.847 2.558.568 5.044l21.722 13.438c4.479-2.146 9-4.315 13.561-6.51l2.346 7.62 6.649-3.344-2.334-8.031c-39.507-23.84-80.102-46.632-121.787-68.376l-2.99 9.978c.311-.122.668-.16 1.073-.117.189-.432.431-.434.728-.004-.021-.422.076-.395.29.081-.002-.487.208-.497.633-.033m-48.826-23.598l26.024-6.463 9.359-27.224-158.925-74.991-71.712 7.027-2.578 9.988-.949.047.161-.579-.852.074 2.255-8.831-9.938.971-1.021 8.135-2.734.485 1.391-8.343-28.523 2.751 112.058 65.247 31.95 21.489 94.034 10.217m-163.907-73.157c.073-4.484 3.333-7.977 9.783-10.474 6.477-2.352 14.334-3.07 23.575-2.158 9.204 1.042 17.09 3.45 23.662 7.224 6.664 3.938 9.968 8.116 9.913 12.536-.026 4.567-3.319 8.05-9.878 10.448-6.303 2.47-14.169 3.221-23.603 2.253-9.167-1.171-17.069-3.651-23.704-7.442-6.36-3.785-9.609-7.913-9.748-12.387z"/><path fill="#2F2F22" d="M659.878 311.928c.101-.11.21-.253.327-.429l-13.689-9.43a1553.55 1553.55 0 0 1-44.055 21.911c9.422 2.49 20.614 2.25 33.57-.72l23.847-11.332M235.57 144.833l-2.271 4.044 2.341-3.92-.07-.124m132.508 149.955l-11.595-8.745c.36 3.429.317 6.813-.129 10.153-.849 6.275-3.055 10.582-6.616 12.915-3.516 2.416-7.327 2.045-11.437-1.11-4.092-3.221-7.295-8.135-9.611-14.739-2.198-6.779-2.854-13.375-1.968-19.78.41-3.211 1.164-5.913 2.26-8.104l-10.905-8.238c.593 3.84.645 7.631.155 11.374-.879 6.133-2.975 10.295-6.29 12.489-3.35 2.322-6.978 2.037-10.885-.854-4.063-3.074-7.132-7.847-9.209-14.315-2.112-6.342-2.777-12.658-1.991-18.954.536-3.662 1.531-6.609 2.985-8.837l-7.146-5.318a37.055 37.055 0 0 1-.334 7.91c-.76 5.956-2.904 10.036-6.429 12.24-3.269 2.278-6.887 1.959-10.858-.949-.764-.49-2.062-1.925-3.892-4.307-1.949-2.207-3.638-5.97-5.064-11.289-1.363-5.301-1.605-11.018-.727-17.147.335-2.193.85-4.163 1.544-5.91l-2.999-2.292c-.087.808-.183 1.646-.287 2.519-.86 6.066-3.045 10.172-6.553 12.313-3.304 2.403-6.9 2.128-10.788-.827-3.917-3.102-7.01-7.914-9.28-14.439-2.13-6.277-2.789-12.489-1.974-18.639.086-.807.237-1.597.453-2.369l-6.689-5.087c-2.652 1.061-5.343.521-8.071-1.627-3.473-2.7-6.163-6.848-8.07-12.437-1.934-5.738-2.496-11.301-1.687-16.688.562-4.001 1.712-7.008 3.451-9.017l-4.064-3.317c-9.136 16.856-6.393 34.601 8.23 53.233 11.883 21.748 29.84 42.349 53.868 61.803L416.997 374.34c7.518 5.839 16.521 9.597 27.002 11.272l38.418 6.87 18.121-5.341 31.246-16.235a22.452 22.452 0 0 0 1.451-3.339l-1.766-.386c1.842-4.615 2.809-9.199 2.898-13.746a1280.589 1280.589 0 0 1-21.598 8.113l-.245.139-1.524.614-4.659 2.548-1.277-3.995-2.235-16.216-9.255 4.486-.152.166a221.925 221.925 0 0 0 3.723 9.769c.648 4.133.674 8.264.078 12.394-1.101 7.178-3.615 12.09-7.542 14.738-4.054 2.61-8.303 2.187-12.743-1.269-4.607-3.363-8.202-8.731-10.79-16.107l-21.642-16.327a46.09 46.09 0 0 1-.421 7.472c-1.008 7.341-3.475 12.336-7.4 14.982-4.055 2.613-8.474 2.177-13.254-1.305-4.927-3.453-8.772-8.684-11.53-15.69-2.747-6.796-3.944-13.436-3.592-19.921.038-1.376.14-2.733.305-4.072.35-2.745.949-5.143 1.798-7.191l-15.189-11.514c.522 4.095.478 8.103-.13 12.022a137.247 137.247 0 0 1-1.124 7.38c-.466 2.917-1.691 5.072-3.672 6.459-3.644 2.381-7.617 1.965-11.919-1.244-3.143-2.401-6.297-6.122-9.464-11.164-.678-1.299-1.269-2.78-1.775-4.446-2.427-6.705-3.17-13.358-2.23-19.957.522-3.874 1.58-7.043 3.169-9.511M298.324 78.237l-1.391 8.343 2.734-.485 1.021-8.135 6.935-56.176-9.299 56.453m14.265-1.947l.469-2.053 4.395-35.885-6.131 35.4-1.368 11.99-.729.004-.161.579.949-.047 2.576-9.988m-1.268-2.538l-.333 1.571-.2 1.087-.054.193-.107.386-2.255 8.831.852-.074.729-.004 1.368-11.99z"/><path fill="#333" d="M707.261 305.288c-1.404-1.917-3.322-2.245-5.754-.981-2.446.565-4.756 2.762-6.934 6.592-2.697 2.713-4.354 5.922-4.974 9.631-1.024 3.179-.829 5.831.588 7.96.78 1.674 2.469 2.074 5.068 1.207 2.25-1.106 4.627-3.042 7.13-5.808 2.232-3.535 3.969-6.898 5.203-10.09.703-3.753.594-6.592-.327-8.511M543.815 196.187l.096.027-1.185-2.826c.094.651.132 1.389.109 2.214l.98.585m-4.579-8.554l-.385-.107.042.22.343-.113m0 0l1.394.597-2.501-6.312-4.262-10.44-26.024 6.463 3.591 41.543-18.337 15.053 29.776-11.343-6.874-3.684c-6.147-11.001-6.286-23.792-.419-38.373l7.512-3.83 15.76 10.217.384.109z"/><g><path fill="none" stroke="#111" stroke-width="2" stroke-linecap="round" stroke-linejoin="round" d="M523.136 223.373l-.139-.247c-.046-.082-.11-.1-.193-.054-.215-.476-.289-.704-.226-.687l-.401-.425c-.166-.393-.201-.645-.1-.754-.596-2.592-.458-5.568.411-8.929.555-4.974 2.345-9.776 5.368-14.408 2.409-4.665 4.923-7.706 7.536-9.126.865-.868 1.611-1.179 2.236-.936.09-.321.268-.341.536-.058l.096.027c.054-.193.264-.205.633-.032m-.041-.218l-15.76-10.217-7.512 3.83c-5.867 14.581-5.729 27.371.419 38.373l6.874 3.684.263.178-.027.096c.908 1.709 2.706 2.106 5.386 1.19.547-.471 1.09-.805 1.631-1.001-.508-.419-.863-.76-1.065-1.024l.026-.097-.282-1.222c-.094-.165-.171-.256-.236-.274-.028-.146-.002-.243.08-.289-.726-1.866-.757-3.988-.094-6.368.514-4.084 1.877-7.723 4.085-10.919 2.095-3.782 4.386-6.158 6.873-7.127.344-.736.796-.991 1.356-.765.119-.175.257-.171.413.011.118-.175.216-.147.29.081.3-.332.52-.375.659-.128-.012-.211.049-.298.177-.262l.429.328a13.246 13.246 0 0 0-.109-2.214c-.15-1.704-.424-2.958-.823-3.763-.519-.63-.749-1.04-.695-1.233l-.578-.161-1.394-.597-.343.112m.341-.115l-.385-.107m-4.984-16.048l4.262 10.44 2.501 6.312m-32.787-10.289l26.024-6.463 9.359-27.224-158.925-74.991-71.712 7.027m-2.578 9.988l-.949.047.161-.579-.852.074m2.255-8.83l-9.938.971-1.021 8.135-2.734.485 1.391-8.343-28.523 2.751 112.058 65.247 31.95 21.489 94.035 10.217 3.591 41.543-18.337 15.053 29.776-11.343m34.063-31.561l1.898-6.435-15.608-40.945m13.71 47.38l-2.99 9.978c.311-.122.668-.16 1.073-.117.189-.432.431-.434.728-.004-.021-.422.076-.395.29.081-.003-.486.207-.497.632-.032.078-.532.171-.611.272-.235l1.727.896-.027.097c.063.018.119.068.165.149l6.063 3.979c.048.082.242.379.584.891.638.939 1.096 2.662 1.366 5.163l23.852 15.488.071.124.096.026c.473-.7 1.093-.942 1.865-.727.236-.351.472-.319.701.091m.195.054c.153-.304.374-.346.658-.128l.264.177 2.357.865c.035-.128.183.086.443.644l34.995 20.261.192.054 2.759 1.289c.341.024.654.39.943 1.095.655.876.847 2.558.568 5.044l21.722 13.438c4.479-2.146 9-4.315 13.561-6.51l2.346 7.62 6.649-3.344-2.334-8.031c-39.507-23.84-80.102-46.632-121.787-68.376m-13.025 4.579c.129.036.39.352.777.945.222.2.439.781.658 1.743.008-.274.119-.313.343-.112.125-.45.354-.524.685-.225l.152-.165c-.074-.229.029-.234.315-.017l2.025.565c-.082.047.077.472.476 1.277.573.437.975 1.727 1.207 3.87.681-1.196 1.474-1.806 2.382-1.83.301-.333.639-.55 1.015-.653m4.86.836c.177.123.362.451.558.987.338.025.83.751 1.472 2.178.036-.128.077-.152.123-.07.301-.332.535-.301.703.092l.191.054c.107-.385.327-.429.659-.128.138-.238.238-.35.302-.332l2.056 1.198m-22.034-10.824l.979.584.096.027-1.185-2.826m2.621 5.514c-.128-.036-.235-.03-.316.016-.357.04-.668.16-.935.364-.678-.051-1.189.292-1.533 1.027-1.945 1.26-3.65 3.279-5.12 6.057-2.371 3.289-3.784 6.984-4.235 11.085a11.082 11.082 0 0 0-.564 2.025 5.637 5.637 0 0 0-.018 1.555c-.023.825.13 1.768.457 2.83l.141.248c-.23.073-.187.294.127.659l.14.247.058.536.236.274-.026.096c.777 1.188 2.389 1.497 4.834.933.317-.396.651-.72.997-.969-.051-1.054.07-1.99.367-2.808.441-2.58 1.148-4.982 2.113-7.207a28.407 28.407 0 0 1 3.336-5.62c.788-1.581 1.641-2.903 2.561-3.963.817-.95 1.682-1.68 2.585-2.19m10.283 1.516l-.027.096c-.808-.086-1.471.179-1.989.797-2.735 1.108-5.391 3.798-7.967 8.069-2.683 3.895-4.378 8.24-5.091 13.031-.946 2.646-1.022 4.912-.232 6.795-.118.176-.094.459.075.853-.018.065.111.344.391.837l.016.316c.01.21.156.425.443.644l.428.327-.176.262c1.045 1.471 3.061 1.825 6.044 1.063.089-.321.157-.441.203-.359l-1.005-2.36-.428-.326c-.271-.769-.455-1.098-.556-.987-.588-1.618-.55-3.618.113-5.997.379-3.845 1.788-7.159 4.228-9.944 2.087-3.506 4.395-5.566 6.921-6.178.592-.875 1.194-1.052 1.813-.534.153-.303.373-.346.659-.128l.026-.096c-.029-.147.67.082 2.095.688m23.923 15.61l-.098-.027c-3.082 1.358-5.868 4.15-8.364 8.374-2.916 4.246-4.635 8.791-5.155 13.637-.318 1.643-.488 3.12-.508 4.432a19.29 19.29 0 0 0 .795 3.859c-.036.129.03.391.196.783l.379 1.248c-.164.094-.118.176.14.248l.262.177c.205.265.62.762 1.249 1.491.428-.296.741-.174.938.366l33.412 22.208m.23-.454l.026-.097c-.02-.422-.091-.545-.208-.371-.507-.419-.721-.649-.636-.697l-.088-.44c-.405-.527-.527-.839-.363-.932-.723-2.628-.603-5.538.358-8.736.774-5.26 2.67-10.067 5.686-14.423 2.744-4.364 5.798-7.116 9.165-8.256.599-.665 1.387-.999 2.359-1.005.218-.286.517-.238.894.146l.193.054c.172-.368.401-.441.687-.225m-37.77-21.866l2.801 1.509M266.445 91.903l-64.092 7.282-3.19 21.876a12643.818 12643.818 0 0 1 29.1 19.032c2.468 1.588 4.903 3.169 7.306 4.74l.07.124a2583.147 2583.147 0 0 1 48.805 33.363c.46.336.995.658 1.601.967 36.384 24.354 68.548 46.318 96.491 65.895 51.247 35.914 90.845 65.637 118.797 89.164l14.272-4.961c35.572-12.74 71.536-27.138 107.894-43.195l-1.381-1.009c-.019.066.047.326.195.784-.34-.512-.439-.539-.288-.081-.45-.125-.714.077-.794.609-2.063.187-3.953.008-5.672-.543l-1.573-1.063M269.801 80.988l-3.355 10.915-9.154 29.466 34.806 27.275 58.238 43.895 51.988 34.251 11.484-59.066m-12.851-68.348c6.664 3.938 9.968 8.116 9.913 12.536-.026 4.567-3.319 8.05-9.878 10.448-6.303 2.47-14.169 3.221-23.603 2.253-9.167-1.171-17.069-3.651-23.704-7.442-6.361-3.784-9.609-7.913-9.749-12.386.073-4.484 3.333-7.977 9.783-10.474 6.477-2.352 14.334-3.07 23.575-2.158 9.205 1.042 17.091 3.45 23.663 7.223zm-89.969-24.052l.333-1.571 6.131-35.4-4.395 35.885m-1.736-.486l-1.368 11.99-.729.004m1.564-9.335l-.096-.027m-10.004 1.576l6.935-56.176-9.3 56.453m58.16 207.806l11.595 8.745 27.143 20.46 15.189 11.514 34.095 25.726 21.642 16.327 1.977 1.488 18.013-13.897 7.285-7.115.152-.166-1.939-10.937c-63.655-52.058-132.521-103.318-206.6-153.779-.129-.036-.216-.095-.263-.177a14.155 14.155 0 0 0-1.575-1.063c-16.922-12.135-33.554-23.566-49.897-34.292a4325.125 4325.125 0 0 0-12.941-8.391 2551.838 2551.838 0 0 0-28.271-18.28l-1.318 9.196 12.608 9.961 4.064 3.317 8.445 6.617 1.455 29.824 4.478 3.328 6.689 5.087 28.428 21.443 2.999 2.292 25.761 19.452 7.146 5.318 25.235 19.097 10.905 8.238 27.5 20.667c.36 3.429.317 6.813-.129 10.153-.849 6.275-3.055 10.582-6.616 12.915-3.516 2.416-7.327 2.045-11.437-1.11-4.092-3.221-7.295-8.135-9.611-14.739-2.198-6.779-2.854-13.375-1.968-19.78.41-3.211 1.164-5.913 2.26-8.104m66.238 49.87c.522 4.095.478 8.103-.13 12.022a137.247 137.247 0 0 1-1.124 7.38c-.466 2.917-1.691 5.072-3.672 6.459-3.644 2.381-7.617 1.965-11.919-1.244-3.143-2.401-6.297-6.122-9.464-11.164-.678-1.299-1.269-2.78-1.775-4.446-2.427-6.705-3.17-13.358-2.23-19.957.526-3.873 1.583-7.042 3.172-9.51m-50.002-37.648c.593 3.84.645 7.631.155 11.374-.879 6.133-2.975 10.295-6.29 12.489-3.35 2.322-6.978 2.037-10.885-.854-4.063-3.074-7.132-7.847-9.209-14.315-2.112-6.342-2.777-12.658-1.991-18.954.536-3.662 1.531-6.609 2.985-8.837m151.663 114.444a46.09 46.09 0 0 1-.421 7.472c-1.008 7.341-3.475 12.336-7.4 14.982-4.055 2.613-8.474 2.177-13.254-1.305-4.927-3.453-8.772-8.684-11.53-15.69-2.747-6.796-3.944-13.436-3.592-19.921.038-1.376.14-2.733.305-4.072.35-2.745.949-5.143 1.798-7.191M203.376 141.363c-9.136 16.856-6.393 34.601 8.23 53.233 11.883 21.748 29.84 42.349 53.868 61.803l151.521 117.938c7.518 5.839 16.521 9.597 27.002 11.272l38.418 6.87 18.121-5.341 31.246-16.235a22.452 22.452 0 0 0 1.451-3.339m-1.764-.384c1.842-4.615 2.809-9.199 2.898-13.746a1280.589 1280.589 0 0 1-21.598 8.113l-.245.139-1.524.615-4.659 2.548-1.277-3.995-2.235-16.216-9.255 4.486M256.936 210.98c-.087.808-.183 1.646-.287 2.519-.86 6.066-3.045 10.172-6.553 12.313-3.304 2.403-6.9 2.128-10.788-.827-3.917-3.102-7.01-7.914-9.28-14.439-2.13-6.277-2.789-12.489-1.974-18.639.086-.807.237-1.597.453-2.369m31.427 23.734c-.694 1.747-1.209 3.717-1.544 5.91-.878 6.13-.636 11.847.727 17.147 1.427 5.319 3.115 9.082 5.064 11.289 1.83 2.382 3.128 3.816 3.892 4.307 3.972 2.908 7.59 3.228 10.858.949 3.525-2.204 5.669-6.284 6.429-12.24.395-2.661.507-5.298.334-7.91m-63.876-48.274c-2.652 1.061-5.343.521-8.071-1.627-3.473-2.7-6.163-6.848-8.07-12.437-1.934-5.738-2.496-11.301-1.687-16.688.562-4.001 1.712-7.008 3.451-9.017M701.34 293.346l2.938 1.027 6.779 4.386c.157.182.502.692 1.028 1.534 1.139 1.632 1.73 3.982 1.777 7.045-.201 1.467-.51 3.322-.928 5.563-1.284 4.354-3.853 9.217-7.707 14.587-2.98 2.981-5.876 5.293-8.69 6.932-1.354.386-2.379.827-3.072 1.326-2.712.283-4.926.013-6.635-.812m-.182-.467l-4.681-2.969c-1.601-.724-2.733-1.629-3.401-2.714l.15-.167m-1.023-.805l-.268-.905c-.277-.493-.278-.737-.003-.729-.735-1.59-.87-2.599-.404-3.022l-16.813-11.655a3.724 3.724 0 0 1-.327.429l-23.847 11.333c-12.956 2.97-24.148 3.21-33.57.72-23.525 11.042-46.223 20.861-68.094 29.453m140.041-82.051l.083 8.65 21.815 13.466.414.011.165.15c.308-.607.962-.841 1.961-.7.036-.128.304-.089.8.12l.192.053c.101-.111.505-.066 1.212.13m-24.031 29.889c-.354-2.456-.251-4.576.317-6.357 1.34-5.308 3.813-10.197 7.416-14.668 3.328-4.477 7.135-7.193 11.421-8.146-.169-.392-.164-.53.012-.412l.026-.096.096.026m7.97.872c.074.228.267.906.576 2.031l.502 1.18c.207-.495.564-.535 1.071-.116l.608.063c.106-.384.381-.376.823.023l.344-.111 2.854 1.315m-5.7-1.174c-.947-.334-1.743-.209-2.391.372-4.122.86-7.959 3.567-11.517 8.119-4.17 4.52-6.677 9.399-7.513 14.642-1.033 3.455-1.105 6.692-.216 9.711-.11-.1.02.179.392.838l.111.343.594.478c-.301-.155-.213.147.268.905l.29.081-.054.193m22.27-19.467c-1.234 3.191-2.971 6.555-5.203 10.09-2.503 2.766-4.88 4.701-7.13 5.808-2.6.867-4.288.467-5.068-1.207-1.417-2.129-1.612-4.781-.588-7.96.62-3.709 2.276-6.918 4.974-9.631 2.178-3.83 4.487-6.026 6.934-6.592 2.432-1.264 4.35-.936 5.754.981.92 1.919 1.029 4.758.327 8.511zm-49.087-43.525l15.989 9.761m-27.975 22.034l13.689 9.43m24.018 20.109c-1.027-.287-1.781-.324-2.255-.11m-49.458-82.09l-.219.042m-10.172 35.73l-.125.069-.043-.219-1.529-2.713c-.343-.513-.441-.781-.294-.812-.82-2.03-.894-4.373-.223-7.025.542-3.938 2.23-7.626 5.059-11.064 2.363-3.499 5.239-5.608 8.627-6.326.519-.618 1.209-.737 2.074-.358-.011-.209.224-.179.703.093-.223-.199-.085-.196.412.012m-22.562 27.596c.249.345.698.852 1.343 1.517m-62.609-47.608l.072.124 23.593 16.04m-34.031-19.991c-.766-.49-1.27-.908-1.521-1.255l.026-.098-.235-.273c-.014-.696-.12-.934-.321-.713l-.207-.369c-.297-.43-.33-.683-.103-.757-.68-1.783-.894-3.506-.638-5.167m5.941 8.516c-1.346.11-2.327.148-2.942.115l4.119 3.123m-16.58-13.979c.597.098 1.584.165 2.957.201m-39.985 10.679l-4.294 1.608-86.479-9.356m91.097 122.5a221.925 221.925 0 0 0 3.723 9.769c.648 4.133.674 8.264.078 12.394-1.101 7.178-3.615 12.09-7.542 14.738-4.054 2.61-8.303 2.187-12.743-1.269-4.607-3.363-8.202-8.731-10.79-16.107m36.681-24.177l-1.494-10.293M623.5 286.188l23.016 15.881a1553.55 1553.55 0 0 1-44.055 21.911M199.164 121.061l-7.077 1.145"/></g></svg>