<svg xmlns="http://www.w3.org/2000/svg" xmlns:xlink="http://www.w3.org/1999/xlink" preserveAspectRatio="none" width="285" height="427" viewBox="0 0 285 427"><defs><linearGradient id="a" gradientUnits="userSpaceOnUse" x1="6.35" y1="338.35" x2="87.75" y2="338.35" spreadMethod="pad"><stop offset=".392%" stop-color="#626262"/><stop offset="100%" stop-color="#C8C8C8"/><stop offset="100%" stop-color="#D6D1A0"/></linearGradient><linearGradient id="b" gradientUnits="userSpaceOnUse" x1="47.837" y1="320.15" x2="85.263" y2="320.15" spreadMethod="pad"><stop offset=".392%" stop-color="#626262"/><stop offset="100%" stop-color="#C8C8C8"/><stop offset="100%" stop-color="#D6D1A0"/></linearGradient><linearGradient id="c" gradientUnits="userSpaceOnUse" x1="145.563" y1="327.188" x2="164.637" y2="281.313" spreadMethod="pad"><stop offset=".392%" stop-color="#626262"/><stop offset="100%" stop-color="#C8C8C8"/><stop offset="100%" stop-color="#D6D1A0"/></linearGradient><linearGradient id="d" gradientUnits="userSpaceOnUse" x1="25.15" y1="214.75" x2="91.85" y2="214.75" spreadMethod="pad"><stop offset=".392%" stop-color="#626262"/><stop offset="100%" stop-color="#C8C8C8"/><stop offset="100%" stop-color="#D6D1A0"/></linearGradient><linearGradient id="e" gradientUnits="userSpaceOnUse" x1="56.55" y1="141.05" x2="84.05" y2="141.05" spreadMethod="pad"><stop offset=".392%" stop-color="#626262"/><stop offset="100%" stop-color="#C8C8C8"/><stop offset="100%" stop-color="#D6D1A0"/></linearGradient><linearGradient id="f" gradientUnits="userSpaceOnUse" x1="48.537" y1="177.6" x2="84.563" y2="177.6" spreadMethod="pad"><stop offset=".392%" stop-color="#626262"/><stop offset="100%" stop-color="#C8C8C8"/><stop offset="100%" stop-color="#D6D1A0"/></linearGradient><linearGradient id="g" gradientUnits="userSpaceOnUse" x1="31.637" y1="74.85" x2="91.862" y2="74.85" spreadMethod="pad"><stop offset=".392%" stop-color="#626262"/><stop offset="100%" stop-color="#C8C8C8"/><stop offset="100%" stop-color="#D6D1A0"/></linearGradient><linearGradient id="h" gradientUnits="userSpaceOnUse" x1="-18" y1="99.7" x2="117" y2="99.7" spreadMethod="pad"><stop offset=".392%" stop-color="#626262"/><stop offset="100%" stop-color="#C8C8C8"/><stop offset="100%" stop-color="#D6D1A0"/></linearGradient><g id="i"><path fill="url(#a)" d="M46.3 326.2v-15.35Q6.1 315.2 6.65 347.1q19.45 26.65 64.9 27.2Q129.6 376 135.8 345q-10.9-30.35-38.4-33.6v17.25q-28.75 11.45-51.1-2.45z"/><path fill="url(#b)" d="M46.3 310.85v15.35q22.35 13.9 51.1 2.45v-32.6q-25.35 11.8-51.1 0v14.8z"/><path fill="url(#c)" d="M97.4 296.05h7.4l107.45 41.6q6.8 5.35 9.35 12.15 1.7 3.9 3.45 11.7 1 3.7 8.6 5.7 7.3 2.15 16.85 1.55 23.4-.75 27.85-11.65-4.1-20.7-11.55-33.25-8.45-14.2-24.6-24.7L131.25 257.2l-21.85-27.65q-40.75 22.75-78.2 0-3 21.4-2.6 32.85.55 15.95 7.1 26.1l10.6 7.55q25.75 11.8 51.1 0z"/><path fill="url(#d)" d="M92.35 182.25q-22.05 12.8-43.25 0L31.9 223.7q-.7 2.1-.7 5.85 37.45 22.75 78.2 0l-17.05-47.3z"/><path fill="url(#e)" d="M57.75 116.85L56.6 161.3q16.6 10.6 27.5 0v-40.45h-2.4q-13.75 0-23.95-4z"/><path fill="url(#f)" d="M56.6 161.3l-7.5 20.95q21.2 12.8 43.25 0L84.1 161.3q-10.9 10.6-27.5 0z"/><path fill="url(#g)" d="M48.3 66.05q1.25 4.75 6.35 8.3-4.6 1.1-7 3.65l-3.8 5.25Q50.7 94.3 71.95 96q21.85 1.5 32.2-9.65-2.35-14.85-35.5-16.4l-7.1-13.85q-4.45-5.95-13.6 0-.7 6.8.35 9.95z"/><path fill="url(#h)" d="M134.3 82.4q-15.25-5.1-30.15 3.95Q93.8 97.5 71.95 96q-21.25-1.7-28.1-12.75-2.9 2-2.9 6.9Q33 85.55 25.4 85.1q-6.55-.4-9.55 2.2-10.8 9.55-.85 24 3.05 2 13.1 1.35 9.75-.65 19.85-3.55.25-5.15-.7-7.65-1.15-2.5-1.85-4 .7 1.5 1.85 4 .95 2.5.7 7.65 2.75 3.4 7.35 6.4 1.3.8 2.45 1.35 10.2 4 23.95 4h.1q1.05-.35 2.3-.45-6.7-13.3 5.15-17.05-11.85 3.75-5.15 17.05h.4q12.05 17.15 22.45 9 8.2-6.3 4.45-16-3.25-8.7-10.85-11.1 18.85 4.7 38.1 0 10.4-14.8-4.35-19.9z"/></g><path id="j" stroke="#000" stroke-width="2" stroke-linejoin="round" stroke-linecap="round" fill="none" d="M84.1 120.4h.4q12.05 17.15 22.45 9 8.2-6.3 4.45-16-3.25-8.7-10.85-11.1 18.85 4.7 38.1 0 10.4-14.8-4.35-19.9-15.25-5.1-30.15 3.95Q93.8 97.5 71.95 96q-21.25-1.7-28.1-12.75-2.9 2-2.9 6.9Q33 85.55 25.4 85.1q-6.55-.4-9.55 2.2-10.8 9.55-.85 24 3.05 2 13.1 1.35 9.75-.65 19.85-3.55.25-5.15-.7-7.65-1.15-2.5-1.85-4m58.75-11.1q-2.35-14.85-35.5-16.4l-7.1-13.85q-4.45-5.95-13.6 0-.7 6.8.35 9.95 1.25 4.75 6.35 8.3-4.6 1.1-7 3.65l-3.8 5.25m4.1 25.85q2.75 3.4 7.35 6.4 1.3.8 2.45 1.35 10.2 4 23.95 4h.1q1.05-.35 2.3-.45-6.7-13.3 5.15-17.05M56.6 161.3l-7.5 20.95q21.2 12.8 43.25 0L84.1 161.3q-10.9 10.6-27.5 0l1.15-44.45m26.35 3.55V161.3m13.3 134.75h7.4l107.45 41.6q6.8 5.35 9.35 12.15 1.7 3.9 3.45 11.7 1 3.7 8.6 5.7 7.3 2.15 16.85 1.55 23.4-.75 27.85-11.65-4.1-20.7-11.55-33.25-8.45-14.2-24.6-24.7L131.25 257.2l-21.85-27.65q-40.75 22.75-78.2 0-3 21.4-2.6 32.85.55 15.95 7.1 26.1l10.6 7.55q25.75 11.8 51.1 0v15.35q27.5 3.25 38.4 33.6-6.2 31-64.25 29.3-45.45-.55-64.9-27.2-.55-31.9 39.65-36.25v-14.8m2.8-113.8L31.9 223.7q-.7 2.1-.7 5.85m15.1 81.3v15.35q22.35 13.9 51.1 2.45V311.4m12-81.85l-17.05-47.3"/></defs><g><use xlink:href="#i"/><use xlink:href="#j"/></g></svg>