<svg xmlns="http://www.w3.org/2000/svg" width="900" height="450" viewBox="0 0 900 450"><path fill="#566932" d="M610.095 131.471C500.922 105.529 401.76 75.313 312.609 40.822c40.702 36.464 139.866 66.68 297.486 90.649m-13.482 237.857l11.51-.878 1.972-236.979-13.482 237.857m127.038-7.782l-4.164-8.551c-19.291 5.92-51.299 10.704-96.019 14.358l100.183-5.807m30.692-1.864a4025.548 4025.548 0 0 0-13.59-19.84c-1.61 4.896-8.696 9.28-21.266 13.153l4.164 8.551 30.692-1.864m-315.461 19.839l53.928-3.507c-28.938-.219-17.501-40.265 34.31-120.134-29.378 42.748-58.791 83.962-88.238 123.641m-67.631-45.269l3.617 2.411c-31.056-24.261-56.267-45.196-75.632-62.807-19.365-17.758-35.88-35.075-49.545-51.956-5.845-7.308-9.134-15.785-9.865-25.43l-35.624 25.759 19.511 13.043 147.538 98.98M250.679 151.201a904.772 904.772 0 0 1 47.79-88.348c-38.583 58.387-74.901 108.223-108.953 149.511l14.687 9.865 35.624-25.759c-.95-12.934 2.667-28.025 10.852-45.269z"/><path fill="#6A823E" d="M608.123 368.45l15.346-1.097c44.72-3.654 76.728-8.438 96.019-14.358L610.095 131.471l-1.972 236.979m-46.258-163.43a8462.943 8462.943 0 0 1-34.746 50.86c-51.811 79.869-63.247 119.915-34.31 120.134l3.18-.33 100.624-6.355 13.481-237.857a5870.153 5870.153 0 0 1-48.229 73.548m157.622 147.975c12.569-3.873 19.655-8.257 21.266-13.153a1162.013 1162.013 0 0 1-10.413-15.455c-23.458-34.491-40.813-60.396-52.065-77.715-27.549-42.603-50.276-81.003-68.18-115.201l109.392 221.524M462.888 215.872v14.797l15.782-5.7-15.782-9.097m-167.159-71.139v11.29l14.03-2.301-14.03-8.989m6.357-87.689l-3.617 5.809a904.443 904.443 0 0 0-47.79 88.348c-8.185 17.245-11.802 32.335-10.852 45.27l55.902-40.447v-11.29l14.03 8.988-14.03 2.301-55.902 40.447c.731 9.646 4.02 18.122 9.865 25.43 13.665 16.881 30.18 34.198 49.545 51.956 19.365 17.61 44.576 38.546 75.632 62.807l11.181 7.454 76.839-113.448v-14.797l15.782 9.098-15.782 5.7-76.839 113.448 52.833 35.403c29.447-39.679 58.86-80.893 88.237-123.641a8495.013 8495.013 0 0 0 34.746-50.86 5859.529 5859.529 0 0 0 48.229-73.549c-157.62-23.969-256.784-54.185-297.485-90.649l-4.056 6.357c-2.193 3.361-4.349 6.65-6.468 9.865z"/><path fill="#5C7036" d="M740.753 339.842c1.605-4.748-1.865-9.901-10.413-15.455 3.288 4.969 6.759 10.12 10.413 15.455m-354.704 4.275l-.439.657c16.077 11.767 33.834 23.349 53.272 34.746l-52.833-35.403m-11.181-7.454a692.727 692.727 0 0 0 10.742 8.111l.439-.657-11.181-7.454z"/><path fill="none" stroke="#031C00" stroke-width="2" stroke-linecap="round" stroke-linejoin="round" d="M312.609 40.822l-4.056 6.357c-2.192 3.361-4.348 6.65-6.467 9.865l-3.617 5.809m-2.74 93.17v-11.29l14.03 8.988-14.03 2.302zm16.88-115.201c89.15 34.491 188.313 64.707 297.485 90.649 17.903 34.198 40.631 72.599 68.18 115.201 11.252 17.319 28.607 43.224 52.065 77.715m10.414 15.455c4.384 6.358 8.914 12.97 13.59 19.84l-30.691 1.864M462.888 230.669v-14.797l15.782 9.098-15.782 5.699zm-76.839 113.448l52.833 35.403c29.447-39.679 58.86-80.893 88.237-123.641a8495.013 8495.013 0 0 0 34.746-50.86 5859.529 5859.529 0 0 0 48.229-73.549M385.61 344.774a697.549 697.549 0 0 1-10.742-8.111l-3.617-2.411m3.617 2.411l11.181 7.454m-.439.657c16.077 11.767 33.834 23.349 53.272 34.746l53.928-3.507M204.203 222.229l19.511 13.043 147.538 98.979M298.469 62.853c-38.583 58.387-74.901 108.223-108.953 149.511l14.687 9.865m519.448 139.317l-100.183 5.808-15.346 1.097-11.51.878-100.624 6.355-3.18.33m115.315-7.564l1.972-236.979m130.658 208.371a1162.013 1162.013 0 0 1-10.413-15.455"/><g><path fill="none" stroke="#666" stroke-linecap="round" stroke-linejoin="round" d="M188.309 160.188l1.644-2.411v5.042m555.733 243.447c2.922-7.307 4.457-8.438 4.603-3.397m-389.122-58.642c-1.608-4.896-2.96-5.297-4.056-1.205M213.739 244.15c-1.608-4.895-2.923-5.297-3.945-1.206m-58.643 17.538c-1.754-7.452-3.252-8.514-4.495-3.179m195.548 151.376l-.768-1.426c-1.9-5.407-2.996-5.005-3.288 1.205"/></g><g><path fill="none" stroke="#031C00" stroke-linecap="round" stroke-linejoin="round" d="M295.729 156.023l-55.902 40.447m-49.874-33.651L312.609 40.822m411.042 320.724l22.034 44.72M462.888 230.669l-76.839 113.448m-14.798-9.865l-10.084 9.975m24.882-.11l-.439.657M223.713 235.272l-9.974 8.878m-62.588 16.332l53.051-38.253 35.624-25.759M385.61 344.774l-43.406 63.904m381.447-47.132l-4.164-8.551-109.392-221.524"/></g></svg>