<svg xmlns="http://www.w3.org/2000/svg" width="500" height="500" viewBox="0 0 500 500"><path fill="#69A91B" d="M26.932 214.636c17.959 21.807 19.1 37.736 3.421 47.785 24.658 14.183 29.292 28.506 13.897 42.974 20.24 18.031 24.943 33.674 14.111 46.93 27.152 1.497 40.872 14.502 41.157 39.019 27.366-1.282 39.98 10.12 37.842 34.208 24.089-7.911 40.587-4.025 49.496 11.653 25.157-8.481 40.764-8.481 46.822 0l-1.497-12.509C126.065 392.482 67.02 321.678 55.047 212.284c11.973 109.394 71.018 180.199 177.135 212.412l-2.138-16.142c-15.108-6.557-29.504-19.741-43.188-39.554-17.318 14.538-30.539 3.671-39.661-32.604-16.89 10.262-26.155-1.389-27.794-34.956-19.313 10.263-26.226-3.28-20.738-40.622-17.888 4.988-21.737-11.973-11.546-50.886-14.894 5.844-29.683-6.592-44.364-37.308 2.78 20.667-2.494 34.671-15.821 42.012m396.282-87.445c-3.562 18.814-13.398 32.07-29.504 39.766 5.772.784 9.621 10.334 11.544 28.65-4.134 13.754-11.045 23.055-20.737 27.9 6.911 18.173 10.832 35.135 11.759 50.884-3.136 18.317-14.432 27.333-33.889 27.047.357 13.186-1.068 28.008-4.275 44.471-15.892 10.262-28.223 13.183-36.987 8.765 6.983 23.163 3.991 36.952-8.98 41.372-16.676 7.77-29.076 7.519-37.2-.75-4.134 11.901-12.402 23.661-24.802 35.277l1.709 12.509c127.997-45.754 185.975-136.762 173.93-273.025 12.045 136.263-45.933 227.271-173.93 273.025l1.926 14.217c23.447-8.552 47.286-9.869 71.517-3.954-8.625-27.08 11.402-37.416 60.078-31.002-35.848-18.672-22.128-35.67 41.156-50.99-12.329-10.905-13.185-24.445-2.566-40.623 5.346-8.41 12.795-17.39 22.343-26.939-14.68-15.18-7.519-38.521 21.487-70.021-15.037-.356-21.915-12.258-20.631-35.704 1.211-12.044 4.524-20.026 9.94-23.946-18.104-15.536-29.399-31.18-33.888-46.929z"/><path fill="none" stroke="#406710" stroke-width="2" stroke-linecap="round" stroke-linejoin="round" d="M251.851 443.083l-1.709-12.509c12.4-11.616 20.668-23.376 24.802-35.277 8.124 8.269 20.524 8.52 37.2.75 12.972-4.42 15.964-18.209 8.98-41.372 8.765 4.418 21.096 1.497 36.987-8.765 3.207-16.463 4.633-31.285 4.275-44.471 19.457.286 30.753-8.729 33.889-27.047-.927-15.749-4.848-32.711-11.759-50.884 9.692-4.846 16.604-14.146 20.737-27.9-1.923-18.316-5.771-27.867-11.544-28.65 16.105-7.696 25.942-20.952 29.504-39.766 4.489 15.749 15.784 31.393 33.887 46.929-5.416 3.92-8.729 11.902-9.94 23.946-1.284 23.446 5.594 35.348 20.631 35.704-29.006 31.5-36.167 54.841-21.487 70.021-9.548 9.55-16.997 18.529-22.343 26.939-10.618 16.178-9.763 29.718 2.566 40.623-63.284 15.32-77.004 32.318-41.156 50.99-48.676-6.414-68.703 3.922-60.078 31.002-24.23-5.915-48.069-4.598-71.517 3.954l-1.925-14.217c127.997-45.754 185.975-136.762 173.93-273.025M232.182 424.695l-2.138-16.142c-15.108-6.557-29.504-19.741-43.188-39.554-17.318 14.538-30.539 3.671-39.661-32.604-16.89 10.262-26.155-1.389-27.794-34.956-19.313 10.263-26.226-3.28-20.738-40.622-17.888 4.988-21.737-11.973-11.546-50.886-14.894 5.844-29.683-6.592-44.364-37.308 2.78 20.667-2.494 34.671-15.821 42.012 17.959 21.807 19.1 37.736 3.421 47.785 24.658 14.183 29.292 28.506 13.897 42.974 20.24 18.031 24.943 33.674 14.111 46.93 27.152 1.497 40.872 14.502 41.157 39.019 27.366-1.282 39.98 10.12 37.842 34.208 24.089-7.911 40.587-4.025 49.496 11.653 25.157-8.481 40.764-8.481 46.822 0l-1.496-12.509C126.065 392.482 67.02 321.678 55.047 212.284"/><path fill="none" stroke="#B7EA79" stroke-width="1.5" stroke-linecap="round" stroke-linejoin="round" d="M457.101 174.12l13.791-5.666m-77.182-1.496l-13.043-6.414m3.85 62.964l-9.729-7.483m-53.664 138.65l-6.308-10.368m47.571-42.868l-7.376-11.118m112.78-56.55l14.753-8.124m-36.24 78.144l14.754-5.452m-34.531 73.015h13.469M30.353 262.421H18.808m8.124-47.785l-10.476-5.559m27.794 96.318H29.284m29.077 46.929H46.816m51.847-91.507l6.949-12.722m-18.495-38.163l6.308-9.407m25.976 100.914v-11.652m27.795 46.609v-9.728M186.856 369v-9.193m0 77.397v8.124m-49.496-19.777l-7.803 7.483m255.814-10.69h11.011m-71.089 31.002l9.3 5.345M99.518 391.343l-12.507 5.88m187.932-1.926v-10.368"/><path fill="#69A91B" d="M235.282 218.912l-13.791-.321c-5.701 66.849.036 159.531 17.212 278.049h17.317c-17.602-118.731-24.515-211.309-20.738-277.728z"/><path fill="none" stroke="#406710" stroke-width="2" stroke-linecap="round" stroke-linejoin="round" d="M238.704 496.641c-17.176-118.519-22.913-211.2-17.212-278.049l13.791.321c-3.777 66.419 3.136 158.997 20.738 277.729"/><path fill="none" stroke="#6B2E7A" stroke-linecap="round" stroke-linejoin="round" d="M273.34 40.388l5.664-20.205m-17.852 22.556l2.779-24.267m18.709 38.591l10.583-22.235m-85.201 4.918l-1.389-1.71-.963 10.797m-18.814 1.924l-6.521-26.833m47.999 15.608l-3.956-8.766-1.069 6.948m6.629 5.025l-1.604-3.207M194.767 21.68l11.867 16.355 1.282-17.21m9.086-5.453l7.376 15.395 2.886-21.701m21.381 29.825l-2.138-24.801m-55.589 29.825l-7.59-22.343m-2.673 50.137l-13.362-12.4-3.528-2.138m14.966-10.584l-10.797-16.57m-.641 29.292l23.625 14.324"/><path fill="none" stroke="#AF5FC2" stroke-linecap="round" stroke-linejoin="round" d="M228.334 43.167v-3.634l-.107-17.425m-33.781 16.034l-3.207-16.89"/><path fill="#AA57BF" d="M286.168 41.136a201.69 201.69 0 0 0-3.422-1.176 235.958 235.958 0 0 0-7.59-2.245 18.944 18.944 0 0 0-2.886-.642 37.867 37.867 0 0 0-4.704-1.175 331.806 331.806 0 0 0-9.728-1.924 40.386 40.386 0 0 0-7.163-1.069c-2.351-.285-4.632-.57-6.841-.855a24.011 24.011 0 0 0-3.956-.321 71.327 71.327 0 0 0-6.628-.321 230.248 230.248 0 0 0-6.949-.106c-2.565 0-5.202.106-7.91.32-2.637.214-5.345.499-8.125.855-1.496.143-2.922.32-4.276.534-2.494.428-5.024.891-7.59 1.39-2.708.57-5.488 1.283-8.338 2.138a99.878 99.878 0 0 0-9.729 2.994 162.79 162.79 0 0 0-5.345 2.031c0 2.281.143 4.455.428 6.521.427 3.634 1.354 6.984 2.779 10.048 0 .214.036.463.107.748 1.853 4.704 5.915 10.904 12.187 18.602a119.796 119.796 0 0 1 3.956 5.879 108.6 108.6 0 0 1 4.169 7.055c3.42 2.138 7.126 3.883 11.117 5.238.998.285 2.067.57 3.207.855 9.764 2.637 21.095 2.637 33.995 0 1.283-.285 2.602-.57 3.956-.855 5.275-1.426 10.868-3.242 16.783-5.453 1.211-4.062 3.172-7.91 5.88-11.545a183.047 183.047 0 0 0 4.063-5.345c3.42-4.632 5.664-7.803 6.733-9.515.356-.499.607-.89.749-1.175.927-2.067 1.746-4.382 2.458-6.949.927-3.848 1.461-8.374 1.604-13.576a29.458 29.458 0 0 1-2.991-.961z"/><path fill="none" stroke="#6B2E7A" stroke-linecap="round" stroke-linejoin="round" d="M289.16 42.098c-.143 5.203-.677 9.729-1.604 13.576-.712 2.566-1.531 4.882-2.458 6.949-.142.285-.393.676-.749 1.175-1.069 1.711-3.313 4.883-6.733 9.515a184.849 184.849 0 0 1-4.063 5.345c-2.708 3.635-4.669 7.483-5.88 11.545m-69.057.214a109.055 109.055 0 0 0-4.169-7.055 118.617 118.617 0 0 0-3.956-5.879c-6.271-7.697-10.333-13.897-12.187-18.602a3.1 3.1 0 0 1-.107-.748c-1.425-3.064-2.352-6.414-2.779-10.048a47.748 47.748 0 0 1-.428-6.521"/><path fill="#69A91B" d="M266.711 95.655c.144-1.853.463-3.67.962-5.453-5.915 2.21-11.508 4.027-16.783 5.453-1.354.285-2.673.57-3.956.855-12.899 2.637-24.23 2.637-33.995 0-1.14-.285-2.209-.57-3.207-.855-3.991-1.355-7.697-3.101-11.117-5.238.855 1.425 1.567 3.171 2.138 5.238 0 .285.036.57.107.855 0 .427.035.926.106 1.496.927 5.559-1.14 12.187-6.2 19.884-13.968 13.469-21.451 30.003-22.449 49.602 0 14.254 5.879 26.404 17.639 36.454 11.759 10.048 25.977 15.073 42.654 15.073 16.534 0 30.716-5.024 42.546-15.073 11.759-10.049 17.639-22.2 17.639-36.454 0-4.846-.677-9.514-2.031-14.004-2.992-10.832-10.69-24.729-23.091-41.691-.998-4.846-1.461-9.193-1.391-13.042 0-.784.038-1.531.109-2.245.001-.284.107-.57.32-.855z"/><path fill="none" stroke="#2C460B" stroke-width="2" stroke-linecap="round" stroke-linejoin="round" d="M292.795 167.492c0 14.254-5.88 26.404-17.639 36.454-11.83 10.048-26.012 15.073-42.546 15.073-16.677 0-30.895-5.024-42.654-15.073-11.759-10.049-17.639-22.2-17.639-36.454.998-19.599 8.481-36.132 22.449-49.602 5.06-7.697 7.127-14.325 6.2-19.884a12.293 12.293 0 0 1-.106-1.496 3.526 3.526 0 0 1-.107-.855c-.571-2.067-1.283-3.813-2.138-5.238 3.42 2.138 7.126 3.883 11.117 5.238.998.285 2.067.57 3.207.855 9.764 2.637 21.095 2.637 33.995 0 1.283-.285 2.602-.57 3.956-.855 5.275-1.426 10.868-3.242 16.783-5.453a28.305 28.305 0 0 0-.962 5.453c-.213.285-.319.57-.319.855-.071.713-.109 1.46-.109 2.245-.07 3.849.393 8.196 1.391 13.042 12.4 16.962 20.099 30.859 23.091 41.691 1.353 4.491 2.03 9.158 2.03 14.004z"/><path fill="none" stroke="#69A91B" stroke-width="1.5" stroke-linecap="round" stroke-linejoin="round" d="M289.375 145.043c1.923-2.209 3.919-5.273 5.986-9.193m-9.193 5.773c3.136-3.635 5.95-10.299 8.443-19.991m-3.207 34.636c2.424-1.282 4.848-3.42 7.271-6.414m-9.515-.855c3.563-.926 8.48-6.271 14.753-16.035m-12.294 45.112c6.984-.927 13.47-3.457 19.455-7.59m-20.31 11.117h27.475m-25.765-9.193c7.625-1.425 14.753-5.453 21.38-12.08m-21.38 1.282c5.56-2.779 11.652-7.447 18.281-14.003m-17.96 21.808c5.558-3.564 10.761-8.125 15.607-13.684m-28.542-25.656c2.637-3.42 4.846-9.514 6.627-18.28m0 78.892l27.9 6.522m-31.107-1.925l20.205 11.118m-25.762-5.024l12.721 7.697m-24.588 1.603c2.706 2.423 6.663 4.846 11.866 7.269m-5.239-11.972l14.11 11.546m2.248-30.789c4.772.784 8.8.784 12.078 0m-106.152-68.843c-2.565-5.915-4.168-11.794-4.811-17.639m-3.207 26.618c-2.922-6.128-4.703-12.899-5.345-20.311m.642 27.046c-4.134-3.635-7.27-8.232-9.408-13.791m.856 56.765c-8.196-1.639-16.463-5.38-24.801-11.225m23.838-1.496l-20.739-14.752m18.815 20.846c-4.561-1.639-8.303-3.635-11.225-5.987m15.501-12.829c-3.706-1.425-8.018-6.342-12.936-14.752m9.195 19.777l-7.59-6.735m14.966-8.766c-6.414-4.989-11.225-10.262-14.432-15.821m59.33 78.358c-.427 7.839-1.675 15.679-3.742 23.518m-20.738-16.355c-1.212 4.133-3.065 7.34-5.559 9.621m12.614-5.024l-2.887 5.238m-14.965-17.96l-13.042 11.759m25.335-15.501c-3.064 5.132-6.806 9.373-11.225 12.722m-9.833-18.922c-10.263 2.851-19.635 4.384-28.116 4.597m23.732-9.3c-3.421 1.282-8.088 2.03-14.003 2.244m14.11-6.734c-7.056 1.069-15.251 1.069-24.587 0m33.139 14.432c-6.129 3.706-12.792 6.521-19.991 8.445"/><path fill="none" stroke="#CFF1A5" stroke-width="1.5" stroke-linecap="round" stroke-linejoin="round" d="M255.914 138.416c1.424-4.49 2.244-9.408 2.46-14.753m-2.781-16.356l1.284-13.79m6.948 54.947c2.495-4.133 4.524-8.837 6.093-14.111m3.848 24.694c2.209-4.134 3.851-8.908 4.919-14.325m-18.067 21.915l8.98-14.324m-1.284 17.959l14.003-6.734m-18.92-35.065l1.175-12.721m9.515 5.346c2.28-5.131 3.42-11.938 3.42-20.419m-22.449 99.739c1.783 5.487 5.062 10.44 9.837 14.858m-7.484-26.297l22.021 2.673m-14.644 2.244c4.488 2.78 9.37 7.163 14.645 13.149m-7.056-22.876l13.257-5.238m-65.425-50.885v-12.722m30.467 9.942l.748-10.796m-3.848-5.88l1.389-14.003m-7.911 17.21l.428-11.973m-8.124 7.269l-.749-11.438m-6.734 14.538l-1.283-11.652m-9.941 7.163l-1.177-10.048m-7.91 4.168l-1.925-14.003m5.238 35.063l-.32-11.118m2.031 53.772l-6.627-10.049m-10.584-11.225l-2.779-12.722m14.752 19.136l-4.169-11.973m.855 31.856l-10.796-11.117m15.714 24.694c-4.704-3.421-7.982-6.876-9.835-10.37m-2.245-15.5l-6.521-11.011m-2.78 18.601l-7.162-10.69m10.797 19.883l-9.514-8.018m59.865 0c1.283-5.202 2.067-9.585 2.352-13.148m-21.381 8.017l-.856-12.828m9.943 27.474c-1.64-3.635-2.78-8.374-3.421-14.217m20.311 13.789l7.804-10.583m-6.949-17.638l1.069-15.822m-15.073 26.191c1.567-4.204 2.173-9.942 1.816-17.211m-19.241 1.71c-1.282-2.708-1.959-6.948-2.03-12.72m14.431 12.72l.961-13.897m9.729 7.162l-1.39-15.5m-35.277 12.293l-2.459-10.796m16.997 72.158c-1.639 4.775-4.312 8.588-8.018 11.439m-8.98-14.326l-13.148 5.238m42.868-5.131c-.072 2.352-.892 4.348-2.459 5.987m9.514 2.244c1.069 4.134 2.529 7.947 4.382 11.438m-11.01-.534c.143 5.131-.677 10.583-2.458 16.355m19.776-18.92c.071 4.918 1.176 9.408 3.314 13.47M236.672 189.3l11.438-5.131m-52.275-1.176l-14.432-6.735m42.655 8.232c-2.637-4.276-4.918-9.158-6.842-14.646m16.463 14.646c2.067-3.492 3.599-8.232 4.597-14.218m15.178-12.08l4.92-14.646m-10.264 50.137c2.708 1.355 6.555 2.424 11.545 3.207m-5.023-14.325l14.11-6.842"/><g><path fill="none" stroke="#AF5FC2" stroke-width=".8" stroke-linecap="round" stroke-linejoin="round" d="M287.557 55.674l2.778-3.101c2.566-6.414 4.418-13.718 5.561-21.915m-18.28 42.655c3.136-.855 6.234-2.922 9.299-6.2m-29.076-33.139l3.742-19.136m5.985 21.059c2.352-9.479 4.062-19.278 5.13-29.398m17.639 46.074c3.779-3.349 7.805-7.874 12.081-13.575m-18.066 24.8c7.556-2.993 12.329-8.409 14.325-16.248m-23.519-9.835c1.71-4.632 2.994-10.476 3.848-17.532m7.164 20.953c3.491-4.989 6.84-11.51 10.047-19.563m-23.944 15.5l3.313-21.059m7.162 23.945c2.85-11.046 4.774-20.417 5.772-28.115m-20.845 78.359c4.775-3.492 9.586-7.519 14.432-12.08 2.923-2.708 7.733-7.412 14.432-14.111m-112.14 1.389c-5.131-2.138-10.405-5.237-15.821-9.299-.499-.428-5.701-4.49-15.607-12.187m31.001 28.649c-3.777-.926-7.661-2.779-11.652-5.56-1.639-1.211-6.057-4.952-13.255-11.225m21.272-16.247c-4.846-9.978-8.481-20.632-10.904-31.963m20.632 28.97c-3.778-9.549-6.593-19.491-8.445-29.825m24.373 26.297c-1.639-8.124-2.814-17.14-3.528-27.045m7.804 26.511c-.356-2.708-.356-6.485 0-11.331m33.567 10.903l2.03-12.722m-12.613 12.08a68.876 68.876 0 0 0 1.711-15.18m15.714 16.677a180.903 180.903 0 0 0 3.313-29.612m-35.597 28.329c-1.354-9.55-1.888-19.42-1.604-29.611m9.514 29.291c-.855-7.269-.535-14.681.962-22.235m12.615 22.662c1.639-7.982 2.388-16.818 2.245-26.511M198.401 34.4a68.278 68.278 0 0 1-4.062-15.073m-16.142 38.806c-4.276-2.993-8.409-6.949-12.4-11.866-4.846-6.486-8.909-11.831-12.187-16.035m21.808 17.852c-3.207-4.063-5.88-9.408-8.018-16.035-2.138-7.769-3.956-13.791-5.453-18.066m70.663 81.672l-.107-1.283m-38.057-11.01c-5.131.926-11.83.249-20.098-2.032m16.143-3.848c-7.768.285-15.572-1.212-23.411-4.49m7.91-31.429c-4.062-7.411-6.699-14.788-7.91-22.129"/></g><g><path fill="none" stroke="#AF5FC2" stroke-width=".8" stroke-linecap="round" stroke-linejoin="round" d="M273.019 71.389l32.817-22.557m-38.27-7.162l13.576-28.65m-1.175 38.592c11.189-8.767 18.85-19.527 22.983-32.285m-28.007 27.26l21.271-25.015"/></g><g><path fill="none" stroke="#6B2E7A" stroke-linecap="round" stroke-linejoin="round" d="M265.963 73.633l4.704-16.035m12.613 7.697l.75-11.331m-12.402-9.621l3.528-13.684m3.741 25.763l4.489-19.563m-26.509 56.659l19.349-28.223m-68.738 8.018l-7.163-8.766 3.313 7.59m-17.53-24.16l14.218 16.57-7.055-14.966m6.52 2.245l-6.2-15.501m.214 36.453l-8.874-20.525 5.667 17.532m-5.666-17.532l-1.604-5.666m11.439 1.818L187.07 32.69m47.998 21.595l-1.71-19.457m13.041 34.637V41.991l1.925-16.25m-24.48 39.447l-12.08-22.983m11.973 2.138l4.489-22.236m-11.972 20.098l-6.094-18.387m-7.482 19.349L191.24 21.252m41.37 74.403l-12.08-18.066m3.955 14.859l-12.08-21.702m-6.306 15.395l-23.732-19.776m65.743 20.417l11.438-23.197m-4.916 7.59l2.352-22.77"/></g><g><path fill="none" stroke="#863999" stroke-linecap="round" stroke-linejoin="round" d="M287.663 38.784l1.712-8.98m-22.236 16.783l1.604-17.318-2.779-15.715m3.525 47.145l5.454-14.111-14.112 20.205 3.635-10.904 1.71-5.131m-11.544 20.417l5.665-20.418V36.325m13.043 4.063l-8.874 15.5m8.017 10.37l12.615-19.564m-11.652 22.343l13.469-17.532m-11.972-4.918l2.673-6.628M267.673 85.5l12.615-15.288M205.35 45.839l-4.49-16.142-2.673-16.784m-12.828 35.706l-15.072-17.318 11.331 20.525m10.69 4.062l11.866 18.387-.855-4.063m5.131-16.356l-9.621-17.531m-6.307 15.928l-8.552-18.279m13.149 25.121l-7.804-18.815m19.135 35.491l-12.721-34.957M200.54 85.5l-2.993-9.194-19.35-18.173m56.765-15.928l-2.994-14.966m-7.162 22.984l-11.118-21.38m38.485 24.587l-4.705-19.03m-13.255 36.775l-.962-20.312-9.728-15.18m-3.421 15.609l-4.49-14.646m-3.848 25.656V42.205m23.304 12.08l-1.817-3.421m-52.168-12.829l-9.515-21.808m17.747 12.187l-2.458-16.783m53.663 72.478l2.566-2.886.32-.428-4.917-39.981m-31.643 49.175l-2.672-15.713m-4.383 4.168l-2.245-2.138m45.86 4.49l8.018-10.049M171.783 53.43L161.2 24.566m67.027 63.819c1.354-7.625 1.925-15.572 1.711-23.838m-12.402 23.411l-4.597-21.808c-1.069 7.412-1.069 14.396 0 20.953m8.018-4.917l-2.352-19.135m-28.114 14.431L174.884 58.56m70.981 31.751l18.923-19.242m-10.799-22.985l4.704-18.281m-4.704-3.955l3.315-16.142"/></g><g><path fill="none" stroke="#FCBFFF" stroke-width=".5" stroke-linecap="round" stroke-linejoin="round" d="M260.725 62.516c2.708-3.92 4.846-9.229 6.414-15.929m5.88 16.891l6.948-15.928m9.193-2.886l6.308-10.583m-25.979 15.82c2.924-6.057 4.811-12.471 5.667-19.242m-14.004 12.08c2.209-6.129 3.101-12.258 2.673-18.387m23.732 4.597c2.708-5.559 4.275-11.438 4.704-17.639m-4.064 43.616l14.432-10.156m-21.165 23.198c5.915-2.28 12.579-6.021 19.989-11.225m-16.569 4.597c6.7-2.138 13.685-6.307 20.952-12.508m-26.403-9.941c2.994-9.549 5.165-19.956 6.521-31.215m-25.229 86.697c1.783-2.067 2.852-4.526 3.207-7.377m8.017-7.59c7.483-2.067 14.573-5.274 21.273-9.621M267.673 85.5c11.83-1.426 23.412-7.519 34.743-18.281M258.8 86.034c5.273-4.063 10.014-8.944 14.219-14.646m-38.057-55.161v-12.4m-40.516 56.23a66.866 66.866 0 0 1-6.735-15.928m17.639 18.387c-.927-4.775-.927-10.334 0-16.677m-17.639 11.545c-5.131-4.204-9.407-8.658-12.828-13.362m25.657 22.342c-1.568-6.129-2.566-12.686-2.993-19.67m-.535-3.634c-3.136-5.488-5.453-11.831-6.949-19.028m19.884 22.555l-3.956-13.577m36.346 31.002c-5.202-5.844-9.336-12.935-12.4-21.273m-15.928 11.76l2.78-14.646m30.679 22.341c-2.85-7.126-4.276-15.286-4.276-24.479m-15.072 23.09c-2.708-7.055-4.312-14.752-4.811-23.09m14.218 11.224c1.426-7.269 1.426-16.035 0-26.298m-51.954 15.074l-8.445-22.022m24.908 18.173a57.43 57.43 0 0 1-2.886-19.349m16.035 19.028a99.265 99.265 0 0 1-4.49-22.235m36.453 21.167a116.333 116.333 0 0 0 2.138-26.297m-22.984 23.838c1.568-5.773 2.708-13.576 3.421-23.412m-8.017 23.412c-.998-8.837-.998-17.959 0-27.366m-68.631 25.869a618.458 618.458 0 0 1 5.987 7.697c-2.566-6.628-4.17-13.577-4.811-20.846m54.199 81.673c-2.28-2.78-3.884-6.521-4.811-11.225m23.626 10.048c-2.637-3.135-4.739-6.485-6.308-10.048m-.32 12.294l-10.69-9.515m22.769 8.66c4.205-2.708 7.341-6.058 9.407-10.049m-45.539-.535c-7.34-.071-15.357-2.922-24.053-8.552m3.742-25.442c-6.485-4.561-12.223-10.049-17.21-16.463m18.065 23.732c-10.333-6.414-19.883-14.29-28.649-23.625m35.383 32.071c-9.05-3.065-19.598-10.014-31.642-20.846m40.195 32.711c-11.901-5.701-22.057-11.474-30.467-17.318m52.489 22.022c-3.635-4.205-6.129-8.624-7.483-13.256m28.008 15.929c-2.922-5.132-5.203-11.403-6.842-18.815m13.149 13.47c-.926-7.412-2.993-14.646-6.2-21.702m-14.112 21.595c-4.276-6.271-7.34-12.899-9.193-19.883m13.256 17.103c-3.207-6.557-4.526-13.256-3.955-20.097m-14.753 19.242c-7.198-4.775-13.326-10.12-18.386-16.035m16.355 20.524c-4.704-2.138-8.375-4.846-11.011-8.124m-15.822-34.208c-5.06-8.623-9.299-18.957-12.72-31.001m85.2 62.43c3.493-3.991 8.516-5.915 15.073-5.773M248.11 86.782l12.614-14.645m-6.092-38.698l3.207-16.143m-8.874 77.29c3.208-1.639 5.667-4.562 7.376-8.766m.001-30.466c-1.497-3.706-2.958-9.336-4.382-16.89"/></g></svg>