<svg xmlns="http://www.w3.org/2000/svg" xmlns:xlink="http://www.w3.org/1999/xlink" preserveAspectRatio="none" width="800" height="600" viewBox="0 0 800 600"><defs><path fill="#69A91B" d="M55.4 114.1Q68 129.4 57 136.45q17.3 9.95 6.5 20.1 14.2 12.65 6.6 21.95 19.05 1.05 19.25 18.25 19.2-.9 17.7 16 16.9-5.55 23.15 5.45 17.65-5.95 21.9 0l-.7-5.85Q76.95 189.75 68.55 113q8.4 76.75 82.85 99.35l-1-7.55q-10.6-4.6-20.2-18.5-12.15 10.2-18.55-15.25-11.85 7.2-13-16.35-13.55 7.2-9.7-19-12.55 3.5-5.4-23.8Q73.1 116 62.8 94.45q1.95 14.5-7.4 19.65m185.35-40.9q-2.5 13.2-13.8 18.6 4.05.55 5.4 13.4-2.9 9.65-9.7 13.05 4.85 12.75 5.5 23.8-2.2 12.85-15.85 12.65.25 9.25-2 20.8-11.15 7.2-17.3 4.1 4.9 16.25-4.2 19.35-11.7 5.45-17.4-.35-2.9 8.35-11.6 16.5l.8 5.85q89.8-32.1 81.35-127.7 8.45 95.6-81.35 127.7l.9 6.65q16.45-6 33.45-1.85-6.05-19 28.1-14.5-25.15-13.1 19.25-23.85-8.65-7.65-1.2-19 3.75-5.9 10.45-12.6-10.3-10.65 10.05-32.75-10.55-.25-9.65-16.7.85-8.45 4.65-11.2-12.7-10.9-15.85-21.95z" id="a"/><path fill="#69A91B" d="M152.85 116.1l-6.45-.15q-4 46.9 8.05 130.05h8.1q-12.35-83.3-9.7-129.9z" id="d"/><path fill="#AA57BF" d="M176.65 32.95q-.85-.3-1.6-.55-1.75-.55-3.55-1.05-.65-.2-1.35-.3-1.1-.35-2.2-.55-2.35-.5-4.55-.9-1.65-.4-3.35-.5-1.65-.2-3.2-.4-.9-.15-1.85-.15-1.6-.15-3.1-.15-1.65-.05-3.25-.05-1.8 0-3.7.15-1.85.15-3.8.4-1.05.1-2 .25-1.75.3-3.55.65-1.9.4-3.9 1-2.2.55-4.55 1.4-1.25.45-2.5.95 0 1.6.2 3.05.3 2.55 1.3 4.7 0 .15.05.35 1.3 3.3 5.7 8.7.9 1.25 1.85 2.75 1 1.55 1.95 3.3 2.4 1.5 5.2 2.45.7.2 1.5.4 6.85 1.85 15.9 0 .9-.2 1.85-.4 3.7-1 7.85-2.55.85-2.85 2.75-5.4 1.1-1.4 1.9-2.5 2.4-3.25 3.15-4.45.25-.35.35-.55.65-1.45 1.15-3.25.65-2.7.75-6.35-.75-.2-1.4-.45z" id="h"/><path fill="#69A91B" d="M167.55 58.45q.1-1.3.45-2.55-4.15 1.55-7.85 2.55-.95.2-1.85.4-9.05 1.85-15.9 0-.8-.2-1.5-.4-2.8-.95-5.2-2.45.6 1 1 2.45 0 .2.05.4 0 .3.05.7.65 3.9-2.9 9.3-9.8 9.45-10.5 23.2 0 10 8.25 17.05 8.25 7.05 19.95 7.05 11.6 0 19.9-7.05 8.25-7.05 8.25-17.05 0-3.4-.95-6.55-2.1-7.6-10.8-19.5-.7-3.4-.65-6.1 0-.55.05-1.05 0-.2.15-.4z" id="j"/><path id="b" stroke="#406710" stroke-width="2" stroke-linejoin="round" stroke-linecap="round" fill="none" d="M160.6 220.95l-.8-5.85q8.7-8.15 11.6-16.5 5.7 5.8 17.4.35 9.1-3.1 4.2-19.35 6.15 3.1 17.3-4.1 2.25-11.55 2-20.8 13.65.2 15.85-12.65-.65-11.05-5.5-23.8 6.8-3.4 9.7-13.05-1.35-12.85-5.4-13.4 11.3-5.4 13.8-18.6 3.15 11.05 15.85 21.95-3.8 2.75-4.65 11.2-.9 16.45 9.65 16.7-20.35 22.1-10.05 32.75-6.7 6.7-10.45 12.6-7.45 11.35 1.2 19-44.4 10.75-19.25 23.85-34.15-4.5-28.1 14.5-17-4.15-33.45 1.85l-.9-6.65q89.8-32.1 81.35-127.7m-90.55 119.1l-1-7.55q-10.6-4.6-20.2-18.5-12.15 10.2-18.55-15.25-11.85 7.2-13-16.35-13.55 7.2-9.7-19-12.55 3.5-5.4-23.8Q73.1 116 62.8 94.45q1.95 14.5-7.4 19.65Q68 129.4 57 136.45q17.3 9.95 6.5 20.1 14.2 12.65 6.6 21.95 19.05 1.05 19.25 18.25 19.2-.9 17.7 16 16.9-5.55 23.15 5.45 17.65-5.95 21.9 0l-.7-5.85Q76.95 189.75 68.55 113"/><path id="c" stroke="#B7EA79" stroke-width="1.5" stroke-linejoin="round" stroke-linecap="round" fill="none" d="M256.6 95.15l6.45-2.65m-36.1-.7l-6.1-3m1.8 29.45l-4.55-3.5M193 179.6l-2.95-4.85m22.25-20.05l-3.45-5.2m52.75-26.45l6.9-3.8m-16.95 36.55l6.9-2.55M242.3 187.4h6.3M57 136.45h-5.4m3.8-22.35l-4.9-2.6m13 45.05h-7m13.6 21.95h-5.4m24.25-42.8l3.25-5.95m-8.65-17.85l2.95-4.4m12.15 47.2v-5.45m13 21.8v-4.55m18.55 19.8V182m0 36.2v3.8m-23.15-9.25l-3.65 3.5m119.65-5h5.15m-33.25 14.5l4.35 2.5m-109.95-31.5l-5.85 2.75m87.9-.9v-4.85"/><path id="e" stroke="#406710" stroke-width="2" stroke-linejoin="round" stroke-linecap="round" fill="none" d="M154.45 246q-12.05-83.15-8.05-130.05l6.45.15q-2.65 46.6 9.7 129.9"/><path id="f" stroke="#6B2E7A" stroke-width="1" stroke-linejoin="round" stroke-linecap="round" fill="none" d="M170.65 32.6l2.65-9.45m-8.35 10.55l1.3-11.35M175 40.4l4.95-10.4m-39.85 2.3l-.65-.8-.45 5.05m-8.8.9l-3.05-12.55m22.45 7.3l-1.85-4.1-.5 3.25m3.1 2.35l-.75-1.5m-15.7-8.35l5.55 7.65.6-8.05m4.25-2.55l3.45 7.2 1.35-10.15m10 13.95l-1-11.6m-26 13.95l-3.55-10.45m-1.25 23.45l-6.25-5.8-1.65-1m7-4.95l-5.05-7.75m-.3 13.7l11.05 6.7"/><path id="g" stroke="#AF5FC2" stroke-width="1" stroke-linejoin="round" stroke-linecap="round" fill="none" d="M149.6 33.9v-1.7l-.05-8.15m-15.8 7.5l-1.5-7.9"/><path id="i" stroke="#6B2E7A" stroke-width="1" stroke-linejoin="round" stroke-linecap="round" fill="none" d="M178.05 33.4q-.1 3.65-.75 6.35-.5 1.8-1.15 3.25-.1.2-.35.55-.75 1.2-3.15 4.45-.8 1.1-1.9 2.5-1.9 2.55-2.75 5.4m-32.3.1q-.95-1.75-1.95-3.3-.95-1.5-1.85-2.75-4.4-5.4-5.7-8.7-.05-.2-.05-.35-1-2.15-1.3-4.7-.2-1.45-.2-3.05"/><path id="k" stroke="#2C460B" stroke-width="2" stroke-linejoin="round" stroke-linecap="round" fill="none" d="M179.75 92.05q0 10-8.25 17.05-8.3 7.05-19.9 7.05-11.7 0-19.95-7.05t-8.25-17.05q.7-13.75 10.5-23.2 3.55-5.4 2.9-9.3-.05-.4-.05-.7-.05-.2-.05-.4-.4-1.45-1-2.45 2.4 1.5 5.2 2.45.7.2 1.5.4 6.85 1.85 15.9 0 .9-.2 1.85-.4 3.7-1 7.85-2.55-.35 1.25-.45 2.55-.15.2-.15.4-.05.5-.05 1.05-.05 2.7.65 6.1 8.7 11.9 10.8 19.5.95 3.15.95 6.55z"/><path id="l" stroke="#69A91B" stroke-width="1.5" stroke-linejoin="round" stroke-linecap="round" fill="none" d="M178.15 81.55q1.35-1.55 2.8-4.3m-4.3 2.7q2.2-2.55 3.95-9.35m-1.5 16.2q1.7-.9 3.4-3m-4.45-.4q2.5-.65 6.9-7.5M179.2 97q4.9-.65 9.1-3.55m-9.5 5.2h12.85m-12.05-4.3q5.35-1 10-5.65m-10 .6q3.9-1.95 8.55-6.55m-8.4 10.2q3.9-2.5 7.3-6.4m-13.35-12q1.85-2.4 3.1-8.55m0 36.9l13.05 3.05m-14.55-.9l9.45 5.2m-12.05-2.35l5.95 3.6m-11.5.75q1.9 1.7 5.55 3.4m-2.45-5.6l6.6 5.4m1.05-14.4q3.35.55 5.65 0m-49.65-32.2q-1.8-4.15-2.25-8.25m-1.5 12.45q-2.05-4.3-2.5-9.5m.3 12.65q-2.9-2.55-4.4-6.45m.4 26.55q-5.75-1.15-11.6-5.25m11.15-.7l-9.7-6.9m8.8 9.75q-3.2-1.15-5.25-2.8m7.25-6q-2.6-1-6.05-6.9m4.3 9.25l-3.55-3.15m7-4.1q-4.5-3.5-6.75-7.4m27.75 36.65q-.3 5.5-1.75 11m-9.7-7.65q-.85 2.9-2.6 4.5m5.9-2.35l-1.35 2.45m-7-8.4l-6.1 5.5m11.85-7.25q-2.15 3.6-5.25 5.95m-4.6-8.85q-7.2 2-13.15 2.15m11.1-4.35q-2.4.9-6.55 1.05m6.6-3.15q-4.95.75-11.5 0m15.5 6.75q-4.3 2.6-9.35 3.95"/><path id="m" stroke="#CFF1A5" stroke-width="1.5" stroke-linejoin="round" stroke-linecap="round" fill="none" d="M162.5 78.45q1-3.15 1.15-6.9m-1.3-7.65l.6-6.45m3.25 25.7q1.75-2.9 2.85-6.6m1.8 11.55q1.55-2.9 2.3-6.7m-8.45 10.25l4.2-6.7m-.6 8.4l6.55-3.15M166 73.8l.55-5.95m4.45 2.5q1.6-3.6 1.6-9.55m-10.5 46.65q1.25 3.85 4.6 6.95m-3.5-12.3l10.3 1.25m-6.85 1.05q3.15 1.95 6.85 6.15m-3.3-10.7l6.2-2.45m-30.6-23.8v-5.95m14.25 4.65l.35-5.05m-1.8-2.75l.65-6.55m-3.7 8.05l.2-5.6m-3.8 3.4l-.35-5.35m-3.15 6.8l-.6-5.45m-4.65 3.35l-.55-4.7m-3.7 1.95l-.9-6.55m2.45 16.4l-.15-5.2m.95 25.15l-3.1-4.7m-4.95-5.25l-1.3-5.95m6.9 8.95l-1.95-5.6m.4 14.9l-5.05-5.2m7.35 11.55q-3.3-2.4-4.6-4.85m-1.05-7.25l-3.05-5.15m-1.3 8.7l-3.35-5m5.05 9.3l-4.45-3.75m28 0q.9-3.65 1.1-6.15m-10 3.75l-.4-6m4.65 12.85q-1.15-2.55-1.6-6.65m9.5 6.45l3.65-4.95m-3.25-8.25l.5-7.4m-7.05 12.25q1.1-2.95.85-8.05m-9 .8q-.9-1.9-.95-5.95m6.75 5.95l.45-6.5m4.55 3.35l-.65-7.25m-16.5 5.75l-1.15-5.05m7.95 33.75q-1.15 3.35-3.75 5.35m-4.2-6.7l-6.15 2.45m20.05-2.4q-.05 1.65-1.15 2.8m4.45 1.05q.75 2.9 2.05 5.35m-5.15-.25q.1 3.6-1.15 7.65m9.25-8.85q.05 3.45 1.55 6.3m-6.55-14.1l5.35-2.4m-24.45-.55l-6.75-3.15M147.6 100q-1.85-3-3.2-6.85m7.7 6.85q1.45-2.45 2.15-6.65m7.1-5.65l2.3-6.85m-4.8 23.45q1.9.95 5.4 1.5m-2.35-6.7l6.6-3.2"/><path id="n" stroke="#AF5FC2" stroke-width=".8" stroke-linejoin="round" stroke-linecap="round" fill="none" d="M177.3 39.75l1.3-1.45q1.8-4.5 2.6-10.25M172.65 48q2.2-.6 4.35-2.9m-13.6-15.5l1.75-8.95m2.8 9.85q1.65-6.65 2.4-13.75m8.25 21.55q2.65-2.35 5.65-6.35m-8.45 11.6q5.3-2.1 6.7-7.6m-11-4.6q1.2-3.25 1.8-8.2m3.35 9.8q2.45-3.5 4.7-9.15m-11.2 7.25l1.55-9.85m3.35 11.2q2-7.75 2.7-13.15M168 55.9q3.35-2.45 6.75-5.65 2.05-1.9 6.75-6.6m-52.45.65q-3.6-1.5-7.4-4.35-.35-.3-7.3-5.7m14.5 13.4q-2.65-.65-5.45-2.6-1.15-.85-6.2-5.25m9.95-7.6q-3.4-7-5.1-14.95m9.65 13.55q-2.65-6.7-3.95-13.95m11.4 12.3q-1.15-5.7-1.65-12.65m3.65 12.4q-.25-1.9 0-5.3m15.7 5.1l.95-5.95m-5.9 5.65q.8-3.55.8-7.1m7.35 7.8q1.35-6.9 1.55-13.85M144.95 28.5q-.95-6.7-.75-13.85m4.45 13.7q-.6-5.1.45-10.4m5.9 10.6q1.15-5.6 1.05-12.4M135.6 29.8q-1.35-3.4-1.9-7.05m-7.55 18.15q-3-2.1-5.8-5.55-3.4-4.55-5.7-7.5m10.2 8.35q-2.25-2.85-3.75-7.5-1.5-5.45-2.55-8.45m33.05 38.2l-.05-.6m-17.8-5.15q-3.6.65-9.4-.95m7.55-1.8q-5.45.2-10.95-2.1m3.7-14.7q-2.85-5.2-3.7-10.35"/><path id="o" stroke="#AF5FC2" stroke-width=".8" stroke-linejoin="round" stroke-linecap="round" fill="none" d="M170.5 47.1l15.35-10.55m-17.9-3.35l6.35-13.4m-.55 18.05q7.85-6.15 10.75-15.1M171.4 35.5l9.95-11.7"/><path id="p" stroke="#6B2E7A" stroke-width="1" stroke-linejoin="round" stroke-linecap="round" fill="none" d="M167.2 48.15l2.2-7.5m5.9 3.6l.35-5.3m-5.8-4.5l1.65-6.4m1.75 12.05l2.1-9.15m-12.4 26.5l9.05-13.2M139.85 48l-3.35-4.1 1.55 3.55m-8.2-11.3l6.65 7.75-3.3-7m3.05 1.05l-2.9-7.25m.1 17.05l-4.15-9.6 2.65 8.2m-2.65-8.2l-.75-2.65m5.35.85L130.3 29m22.45 10.1l-.8-9.1m6.1 16.2V33.35l.9-7.6M147.5 44.2l-5.65-10.75m5.6 1l2.1-10.4m-5.6 9.4l-2.85-8.6m-3.5 9.05l-5.35-10.25m19.35 34.8L145.95 50m1.85 6.95l-5.65-10.15M139.2 54l-11.1-9.25m30.75 9.55l5.35-10.85M161.9 47l1.1-10.65"/><path id="q" stroke="#863999" stroke-width="1" stroke-linejoin="round" stroke-linecap="round" fill="none" d="M177.35 31.85l.8-4.2m-10.4 7.85l.75-8.1-1.3-7.35m1.65 22.05l2.55-6.6-6.6 9.45 1.7-5.1.8-2.4M161.9 47l2.65-9.55V30.7m6.1 1.9l-4.15 7.25m3.75 4.85l5.9-9.15M170.7 46l6.3-8.2m-5.6-2.3l1.25-3.1M168 53.7l5.9-7.15m-35.05-11.4l-2.1-7.55-1.25-7.85m-6 16.7l-7.05-8.1 5.3 9.6m5 1.9l5.55 8.6-.4-1.9m2.4-7.65l-4.5-8.2m-2.95 7.45l-4-8.55M135 41.35l-3.65-8.8m8.95 16.6l-5.95-16.35m2.25 20.9l-1.4-4.3-9.05-8.5m26.55-7.45l-1.4-7m-3.35 10.75l-5.2-10m18 11.5l-2.2-8.9m-6.2 17.2l-.45-9.5-4.55-7.1m-1.6 7.3l-2.1-6.85m-1.8 12v-9.4m10.9 5.65l-.85-1.6m-24.4-6l-4.45-10.2m8.3 5.7l-1.15-7.85m25.1 33.9l1.2-1.35.15-.2-2.3-18.7m-14.8 23l-1.25-7.35m-2.05 1.95l-1.05-1m21.45 2.1l3.75-4.7m-37.25-8.1l-4.95-13.5m31.35 29.85q.95-5.35.8-11.15m-5.8 10.95l-2.15-10.2q-.75 5.2 0 9.8m3.75-2.3l-1.1-8.95m-13.15 6.75l-7.3-8.85m33.2 14.85l8.85-9M161.6 36.2l2.2-8.55m-2.2-1.85l1.55-7.55"/><path id="r" stroke="#FCBFFF" stroke-width=".5" stroke-linejoin="round" stroke-linecap="round" fill="none" d="M164.75 42.95q1.9-2.75 3-7.45m2.75 7.9l3.25-7.45m4.3-1.35l2.95-4.95m-12.15 7.4q2.05-4.25 2.65-9m-6.55 5.65q1.55-4.3 1.25-8.6m11.1 2.15q1.9-3.9 2.2-8.25m-1.9 20.4l6.75-4.75m-9.9 10.85q4.15-1.6 9.35-5.25m-7.75 2.15q4.7-1.5 9.8-5.85M173.5 31.9q2.1-6.7 3.05-14.6m-11.8 40.55q1.25-1.45 1.5-3.45m3.75-3.55q5.25-1.45 9.95-4.5M168 53.7q8.3-1 16.25-8.55m-20.4 8.8q3.7-2.85 6.65-6.85m-17.8-25.8v-5.8m-18.95 26.3q-2.05-3.5-3.15-7.45m8.25 8.6q-.65-3.35 0-7.8m-8.25 5.4q-3.6-2.95-6-6.25m12 10.45q-1.1-4.3-1.4-9.2m-.25-1.7q-2.2-3.85-3.25-8.9M141 35.5l-1.85-6.35m17 14.5q-3.65-4.1-5.8-9.95m-7.45 5.5l1.3-6.85m14.35 10.45q-2-5-2-11.45m-7.05 10.8q-1.9-4.95-2.25-10.8m6.65 5.25q1-5.1 0-12.3m-24.3 7.05l-3.95-10.3m11.65 8.5q-1.45-4.4-1.35-9.05m7.5 8.9q-1.65-5.1-2.1-10.4m17.05 9.9q1.2-6.1 1-12.3m-10.75 11.15q1.1-4.05 1.6-10.95m-3.75 10.95q-.7-6.2 0-12.8m-32.1 12.1q1.85 2.35 2.8 3.6-1.8-4.65-2.25-9.75m25.35 38.2q-1.6-1.95-2.25-5.25m11.05 4.7q-1.85-2.2-2.95-4.7M146 59.6l-5-4.45m10.65 4.05q2.95-1.9 4.4-4.7m-21.3-.25q-5.15-.05-11.25-4m1.75-11.9q-4.55-3.2-8.05-7.7m8.45 11.1q-7.25-4.5-13.4-11.05m16.55 15q-6.35-2.15-14.8-9.75m18.8 15.3q-8.35-4-14.25-8.1m24.55 10.3q-2.55-2.95-3.5-6.2m13.1 7.45q-2.05-3.6-3.2-8.8m6.15 6.3q-.65-5.2-2.9-10.15m-6.6 10.1q-3-4.4-4.3-9.3m6.2 8q-2.25-4.6-1.85-9.4m-6.9 9q-5.05-3.35-8.6-7.5m7.65 9.6q-3.3-1.5-5.15-3.8m-7.4-16q-3.55-6.05-5.95-14.5m39.85 29.2q2.45-2.8 7.05-2.7m-7.9 9.55l5.9-6.85m-2.85-18.1l1.5-7.55m-4.15 36.15q2.25-1.15 3.45-4.1m0-14.25q-1.05-2.6-2.05-7.9"/></defs><g><use xlink:href="#a"/><use xlink:href="#b"/></g><use xlink:href="#c"/><g><use xlink:href="#d"/><use xlink:href="#e"/></g><g><use xlink:href="#f"/><use xlink:href="#g"/></g><g><use xlink:href="#h"/><use xlink:href="#i"/></g><g><use xlink:href="#j"/><use xlink:href="#k"/></g><use xlink:href="#l"/><use xlink:href="#m"/><use xlink:href="#n"/><use xlink:href="#o"/><use xlink:href="#p"/><use xlink:href="#q"/><use xlink:href="#r"/></svg>