<svg xmlns="http://www.w3.org/2000/svg" xmlns:xlink="http://www.w3.org/1999/xlink" preserveAspectRatio="none" width="800" height="600" viewBox="0 0 800 600"><defs><path fill="#EBC6AF" d="M327.95 244.05V182.6l-72.65 8.15q-7.1.45-14.15-.45-5.55-.65-11.15-2.1-4.9 3.45-28.25-26.6-3.9-5.1-8.35-11.05-5.6-13.65-18.6-26.8-21.9-39.95-22.25-56.05-.25-16.1.7-22.85 1.05-6.9.6-8.95-.85-3.25-2.35-5.35-3.25-4.75-9.9-4.2-7.75.65-13.15 6.2-.3.4-.75.9-12.05 13.5-15.85 29.75-2.6 19.2 3.3 37.75 13.2 29.05 11.4 49.5-2 6.85-6 11.15-5.7 5.95-15.25 7.35l-38.85 3.4Q42.8 177.4 36.6 190.3q-2.4 4.95-2.25 11.05-.25 1.4-.25 2.6-.2 2.4.1 4.55 1.05 9.55 10.65 12.6l35.65 5.05 28.9-2.55q7.75-.15 13-2.25 1.65-.65 3-1.55 1.65.55 3.1 1.55 6.35 4.3 6.85 16.65-.35 3.3-1.2 6.05h193.8z" id="a"/><path fill="#EBC6AF" d="M128.5 221.35q-1.45-1-3.1-1.55-1.35.9-3 1.55-5.25 2.1-13 2.25l-28.9 2.55-29.2-4.05q-12.5 12.4-12.35 21.95h95.2q.85-2.75 1.2-6.05-.5-12.35-6.85-16.65z" id="c"/><path d="M248.2 62.35l-1.05-11.85-45.95 4.8.05-15.65-29.1 23.5 28.25 15.1.2-13.2 47.6-2.7z" id="f"/><path id="b" stroke="#DBB09B" stroke-width="1" stroke-linejoin="round" stroke-linecap="round" fill="none" d="M230 188.2q.35 1.1.7 2.1 2.5 7.25 3.75 13.65.45 2.35.75 4.55.85 6.85 0 12.85-1.9 14.15-12.95 22.7M146.4 78.25l6.45-6.85m-4.7 18.55q3.55.7 5.45.55 1.9-.2 4.4-1.6m-8.95-5.75l6.2-2.05m-37.9 6.7q7.45 5.45 22.4 2.15m-10 38.85q7 2.85 23.3 3.45m-26.5 18.2q-2.5 5.5-4.05 11.15-3.7 13.55-1.7 28.7.05.9.2 1.75m-16.4-18.65q6.9 6.5 6.6 16.65m-19.75-.4q-.6-6.7-5.65-14.6m44.95 14.6q.15.4.3.65 2.8 7.25 5.85 13.65 1.05 2.35 2.2 4.55 3.35 6.85 6.95 12.85 8.25 13.65 17.6 22.7M89.6 200.6q.3 1.7.45 3.35.2 2.35-.05 4.55-.7 6.65-4.85 12.45m29.95 23.1q-.8-6.35-4.7-12.35m133.9-36.15q1.6 4.2 3 8.4.75 2.3 1.45 4.55 1.9 6.4 3.15 12.85 2.25 11.3 2.7 22.7M133.5 153.6q24.2 6 48.75.5"/><path id="d" stroke="#000" stroke-width="2" stroke-linejoin="round" stroke-linecap="round" fill="none" d="M51.3 222.1l-6.45-1q-9.6-3.05-10.65-12.6-.3-2.15-.1-4.55 0-1.2.25-2.6-.15-6.1 2.25-11.05 6.2-12.9 29.85-17.95l38.85-3.4q9.55-1.4 15.25-7.35 4-4.3 6-11.15 1.8-20.45-11.4-49.5-5.9-18.55-3.3-37.75 3.8-16.25 15.85-29.75.45-.5.75-.9 5.4-5.55 13.15-6.2 6.65-.55 9.9 4.2 1.5 2.1 2.35 5.35.45 2.05-.6 8.95-.95 6.75-.7 22.85.35 16.1 22.25 56.05 13 13.15 18.6 26.8 1.05 1.2 9.15 11.05 3.7 4.6 8.95 11.05 8.35 10.15 14.6 14.15 4.85 2.35 14.1 3.45.3.05.6.05 7.5.95 14.5.45l72.65-8.125M125.4 219.8q2.3-1.4 3.4-2.7 1.6-1.9 2.1-4.95.3-1.9.45-3.65.15-2.5 0-4.55-.3-2.65-1.1-4.65-2.4-5.35-9.7-7.3-3.8-1.1-7.8-1.7-4.95-.7-10.45-.8-10.35.25-14.8.25-11.7-9.1-29.95-10.3m76.6 64.6q.85-2.75 1.2-6.05-.5-12.35-6.85-16.65-1.45-1-3.1-1.55-1.35.9-3 1.55-5.25 2.1-13 2.25l-28.9 2.55-29.2-4.05q-12.5 12.4-12.35 21.95"/><path id="e" stroke="#000" stroke-width="1" stroke-linejoin="round" stroke-linecap="round" fill="none" d="M131.2 223.9q-7.35 3.85-7.55 15.4-.1 2.7.4 4.75m6.5-43.2q-8.6.05-12.4 2.05-.95.4-1.6 1.05-2.05 1.75-2.65 4.55-.15.75-.2 1.5-.3 5.2 3.65 8.4 3.95 3.15 8.75 1.05"/></defs><use xlink:href="#a"/><use xlink:href="#b"/><g><use xlink:href="#c"/><use xlink:href="#d"/></g><use xlink:href="#e"/><use xlink:href="#f"/></svg>