<svg xmlns="http://www.w3.org/2000/svg" width="900" height="450" viewBox="0 0 900 450"><path fill="#EBC6AF" d="M740.606 435.546V316.812l-140.375 15.749c-9.145.579-18.259.29-27.34-.87-7.148-.836-14.33-2.19-21.544-4.057-6.312 4.443-24.506-12.689-54.584-51.397a2506.007 2506.007 0 0 1-16.135-21.351c-7.213-17.582-19.192-34.844-35.939-51.783-28.209-51.46-42.54-87.56-42.991-108.299-.322-20.739.129-35.456 1.353-44.15 1.353-8.889 1.739-14.653 1.16-17.294-1.096-4.186-2.609-7.631-4.541-10.337-4.186-6.118-10.563-8.823-19.128-8.114-9.984.836-18.453 4.83-25.408 11.979-.387.515-.87 1.095-1.449 1.74-15.522 17.39-25.731 36.55-30.625 57.482-3.349 24.732-1.224 49.045 6.376 72.94 17.004 37.419 24.346 69.3 22.027 95.644-2.576 8.823-6.44 16.005-11.593 21.543-7.342 7.664-17.165 12.398-29.466 14.202l-75.065 6.568c-30.465 6.506-49.689 18.067-57.676 34.684-3.092 6.376-4.541 13.493-4.348 21.351-.323 1.804-.483 3.479-.483 5.024-.258 3.091-.193 6.021.193 8.791 1.352 12.303 8.212 20.416 20.578 24.345l68.882 9.76 55.84-4.929c9.984-.192 18.356-1.642 25.119-4.348 2.125-.838 4.058-1.834 5.796-2.994a23.69 23.69 0 0 1 5.99 2.994c8.18 5.54 12.591 16.263 13.236 32.172-.451 4.251-1.224 8.147-2.319 11.689h374.459z"/><path fill="none" stroke="#DBB09B" stroke-linecap="round" stroke-linejoin="round" d="M551.348 327.634c.451 1.417.902 2.768 1.354 4.057 3.22 9.338 5.635 18.131 7.245 26.375a166.176 166.176 0 0 1 1.449 8.791c1.095 8.823 1.095 17.1 0 24.828-2.448 18.228-10.788 32.848-25.022 43.861M389.816 115.188l12.463-13.236m-9.082 35.843c4.573.901 8.083 1.255 10.531 1.062 2.447-.257 5.282-1.288 8.501-3.092m-17.293-11.109l11.98-3.96m-73.23 12.944c9.597 7.021 24.023 8.405 43.281 4.155m-19.322 75.065c9.017 3.672 24.023 5.894 45.02 6.667m-51.203 35.166c-3.22 7.085-5.829 14.267-7.825 21.543-4.766 17.453-5.861 35.939-3.285 55.454.065 1.16.193 2.287.387 3.381m-31.688-36.034c8.888 8.372 13.138 19.096 12.752 32.17m-38.16-.771c-.774-8.631-4.413-18.035-10.918-28.211m86.852 28.211c.193.513.387.932.58 1.255 3.607 9.338 7.375 18.131 11.303 26.375a159.89 159.89 0 0 0 4.251 8.791c4.315 8.823 8.791 17.1 13.428 24.828 10.627 17.584 21.962 32.204 34.007 43.861m-143.078-83.954c.386 2.19.676 4.347.869 6.474.258 3.026.226 5.957-.096 8.791-.902 8.566-4.025 16.586-9.371 24.057m57.869 44.632c-1.03-8.18-4.058-16.133-9.082-23.862m258.721-69.85a405.996 405.996 0 0 1 5.797 16.231c.966 2.963 1.9 5.893 2.802 8.791a263.168 263.168 0 0 1 6.086 24.828 281.127 281.127 0 0 1 5.218 43.861m-233.99-174.767c31.172 7.729 62.571 8.052 94.195.966"/><path fill="#EBC6AF" d="M355.23 391.685a23.69 23.69 0 0 0-5.99-2.994c-1.739 1.16-3.671 2.156-5.796 2.994-6.763 2.706-15.135 4.155-25.119 4.348l-55.84 4.929-56.42-7.827c-16.101 15.975-24.055 30.111-23.862 42.412h183.944c1.096-3.542 1.868-7.438 2.319-11.689-.645-15.911-5.056-26.633-13.236-32.173z"/><path fill="none" stroke="#000" stroke-width="2" stroke-linecap="round" stroke-linejoin="round" d="M206.064 393.134l-12.462-1.933c-12.366-3.929-19.226-12.042-20.578-24.345-.387-2.77-.451-5.7-.193-8.791 0-1.545.16-3.221.483-5.024-.193-7.857 1.256-14.975 4.348-21.351 7.986-16.616 27.211-28.178 57.676-34.684l75.065-6.568c12.301-1.804 22.124-6.538 29.466-14.202 5.153-5.538 9.018-12.72 11.593-21.543 2.319-26.344-5.023-58.225-22.027-95.644-7.6-23.895-9.725-48.208-6.376-72.94 4.895-20.932 15.103-40.093 30.625-57.482a26.114 26.114 0 0 0 1.449-1.74c6.955-7.149 15.424-11.143 25.408-11.979 8.565-.708 14.942 1.996 19.128 8.114 1.932 2.706 3.445 6.151 4.541 10.337.579 2.641.193 8.405-1.16 17.294-1.224 8.695-1.675 23.412-1.353 44.15.451 20.739 14.782 56.839 42.991 108.299 16.747 16.939 28.726 34.201 35.939 51.783 1.354 1.545 7.246 8.662 17.68 21.351a4993.282 4993.282 0 0 0 17.293 21.352c10.757 13.072 20.16 22.187 28.211 27.34 6.247 3.028 15.328 5.249 27.244 6.666a7.07 7.07 0 0 0 1.158.097c9.661 1.225 19 1.515 28.017.87l140.375-15.699M349.24 388.69c2.962-1.803 5.153-3.542 6.569-5.218 2.062-2.445 3.415-5.635 4.058-9.563.387-2.449.676-4.801.87-7.054.193-3.219.193-6.151 0-8.791-.387-3.413-1.095-6.41-2.125-8.985-3.092-6.891-9.339-11.594-18.743-14.104a116.044 116.044 0 0 0-15.071-3.285c-6.376-.9-13.106-1.417-20.192-1.546-13.332.321-22.864.483-28.596.483-15.071-11.722-34.36-18.355-57.87-19.901m148.006 124.82c1.096-3.542 1.868-7.438 2.319-11.689-.645-15.909-5.056-26.632-13.236-32.172a23.69 23.69 0 0 0-5.99-2.994c-1.739 1.16-3.671 2.156-5.796 2.994-6.763 2.706-15.135 4.155-25.119 4.348l-55.84 4.929-56.42-7.827c-16.101 15.975-24.055 30.111-23.862 42.412"/><path fill="none" stroke="#000" stroke-linecap="round" stroke-linejoin="round" d="M360.447 396.613c-9.469 4.959-14.331 14.876-14.589 29.755-.128 3.478.129 6.538.773 9.178m12.559-83.472c-11.077.064-19.064 1.386-23.959 3.963-1.224.513-2.254 1.19-3.092 2.028-2.641 2.255-4.347 5.184-5.12 8.791a22.328 22.328 0 0 0-.386 2.898c-.387 6.698 1.964 12.108 7.052 16.231 5.088 4.057 10.723 4.732 16.907 2.028"/><g><path d="M586.514 84.466l-2.029-22.896-88.783 9.274.096-30.238-56.228 45.406 54.584 29.177.387-25.506 91.973-5.217z"/></g></svg>