
<svg xmlns="http://www.w3.org/2000/svg" version="1.1" xmlns:xlink="http://www.w3.org/1999/xlink" preserveAspectRatio="none" x="0px" y="0px" width="285px" height="427px" viewBox="0 0 285 427">
<defs>
<g id="Layer0_0_FILL">
<path fill="#6262FF" stroke="none" d="
M 153.2 109.15
Q 155.35 105.6 157.15 102.05 163.65 88.55 164.6 74.35
L 116.7 74.3
Q 115.8 87.15 125.25 102.05 126.1 103.5 127.15 104.95 128.7 107.2 130.55 109.55 141.25 113.35 153.2 109.15
M 228.95 85.55
Q 231.9390625 71.65 228.95 57.75 192.15 71.15 156 73.3 140.4 74.3 125 73.15 90.2 70.65 56.05 57.75 53.09296875 71.65 56.05 85.55 90.05 99.55 125.25 102.05 115.8 87.15 116.7 74.3
L 164.6 74.35
Q 163.65 88.55 157.15 102.05 192.4 99.4 228.95 85.55
M 153.2 109.15
Q 141.25 113.35 130.55 109.55 128.7 107.2 127.15 104.95
L 105.85 340.35 138.55 380.95 170.25 340.35 153.2 109.15 Z"/>

<path fill="#5858ED" stroke="none" d="
M 228.95 57.75
L 228.95 55.85
Q 140.95 37.25 56.05 55.85
L 56.05 57.75
Q 90.2 70.65 125 73.15 140.4 72.5 156 73.3 192.15 71.15 228.95 57.75
M 125 73.15
Q 140.4 74.3 156 73.3 140.4 72.5 125 73.15 Z"/>
</g>

<path id="Layer0_0_1_STROKES" stroke="#000033" stroke-width="2" stroke-linejoin="round" stroke-linecap="round" fill="none" d="
M 228.95 57.75
Q 231.9390625 71.65 228.95 85.55 192.4 99.4 157.15 102.05 155.35 105.6 153.2 109.15
L 170.25 340.35 138.55 380.95 105.85 340.35 127.15 104.95
Q 126.1 103.5 125.25 102.05 90.05 99.55 56.05 85.55 53.09296875 71.65 56.05 57.75
L 56.05 55.85
Q 140.95 37.25 228.95 55.85
L 228.95 57.75
Q 192.15 71.15 156 73.3 140.4 74.3 125 73.15 90.2 70.65 56.05 57.75
M 125 73.15
Q 140.4 72.5 156 73.3
M 153.2 109.15
Q 141.25 113.35 130.55 109.55 128.7 107.2 127.15 104.95
M 125.25 102.05
Q 115.8 87.15 116.7 74.3
L 164.6 74.35
Q 163.65 88.55 157.15 102.05"/>
</defs>

<g transform="matrix( 1, 0, 0, 1, 0,0) ">
<use xlink:href="#Layer0_0_FILL"/>

<use xlink:href="#Layer0_0_1_STROKES"/>
</g>
</svg>
