<svg xmlns="http://www.w3.org/2000/svg" xmlns:xlink="http://www.w3.org/1999/xlink" preserveAspectRatio="none" width="285" height="427" viewBox="0 0 285 427"><defs><g id="a"><path fill="#6262FF" d="M153.2 109.15q2.15-3.55 3.95-7.1 6.5-13.5 7.45-27.7l-47.9-.05q-.9 12.85 8.55 27.75.85 1.45 1.9 2.9 1.55 2.25 3.4 4.6 10.7 3.8 22.65-.4m75.75-23.6q2.99-13.9 0-27.8-36.8 13.4-72.95 15.55-15.6 1-31-.15-34.8-2.5-68.95-15.4-2.957 13.9 0 27.8 34 14 69.2 16.5-9.45-14.9-8.55-27.75l47.9.05q-.95 14.2-7.45 27.7 35.25-2.65 71.8-16.5m-75.75 23.6q-11.95 4.2-22.65.4-1.85-2.35-3.4-4.6l-21.3 235.4 32.7 40.6 31.7-40.6-17.05-231.2z"/><path fill="#5858ED" d="M228.95 57.75v-1.9q-88-18.6-172.9 0v1.9Q90.2 70.65 125 73.15q15.4-.65 31 .15 36.15-2.15 72.95-15.55M125 73.15q15.4 1.15 31 .15-15.6-.8-31-.15z"/></g><path id="b" stroke="#003" stroke-width="2" stroke-linejoin="round" stroke-linecap="round" fill="none" d="M228.95 57.75q2.99 13.9 0 27.8-36.55 13.85-71.8 16.5-1.8 3.55-3.95 7.1l17.05 231.2-31.7 40.6-32.7-40.6 21.3-235.4q-1.05-1.45-1.9-2.9-35.2-2.5-69.2-16.5-2.957-13.9 0-27.8v-1.9q84.9-18.6 172.9 0v1.9Q192.15 71.15 156 73.3q-15.6 1-31-.15-34.8-2.5-68.95-15.4M125 73.15q15.4-.65 31 .15m-2.8 35.85q-11.95 4.2-22.65.4-1.85-2.35-3.4-4.6m-1.9-2.9q-9.45-14.9-8.55-27.75l47.9.05q-.95 14.2-7.45 27.7"/></defs><g><use xlink:href="#a"/><use xlink:href="#b"/></g></svg>