<?xml version="1.0" encoding="utf-8"?>
<!-- Generator: Adobe Illustrator 16.0.0, SVG Export Plug-In . SVG Version: 6.00 Build 0)  -->
<!DOCTYPE svg PUBLIC "-//W3C//DTD SVG 1.1//EN" "http://www.w3.org/Graphics/SVG/1.1/DTD/svg11.dtd">
<svg version="1.1" id="Layer_1" xmlns="http://www.w3.org/2000/svg" xmlns:xlink="http://www.w3.org/1999/xlink" x="0px" y="0px"
	 width="900px" height="450px" viewBox="0 0 900 450" enable-background="new 0 0 900 450" xml:space="preserve">
<g transform="matrix( 1, 0, 0, 1, 0,0) ">
	<g>
		<g id="Layer0_0_FILL">
			<path fill="#DCDCDC" d="M458.423,32.832c1.019,1.155,2.716,2.412,5.095,3.77c4.959,2.717,10.662,4.109,17.116,4.178
				c-0.272-1.699-0.408-2.582-0.408-2.65c0-2.105,8.255-3.872,24.761-5.298C483.78,24.872,468.258,24.872,458.423,32.832
				 M556.033,61.973c-0.407,0.135-0.813,0.305-1.222,0.509c-1.97,0.815-3.498,1.223-4.585,1.223c-2.581,0-4.45-1.053-5.604-3.159
				c-0.341-0.611-0.58-1.189-0.715-1.732c-1.697-0.543-2.852-0.815-3.463-0.815c-2.65,0-4.518,0.883-5.604,2.649
				c-0.205,0.203-0.341,0.476-0.408,0.815c1.427,0.679,3.226,1.629,5.398,2.853c3.057,1.223,6.795,1.834,11.209,1.834
				c4.415,0,7.847-0.543,10.292-1.63c-0.681-0.272-1.154-0.612-1.427-1.019c-0.205-1.087-0.543-1.902-1.019-2.446
				C557.937,61.464,556.984,61.769,556.033,61.973z"/>
			<path fill="#C9C9C9" d="M634.186,32.73c-2.921,0.22-4.553,0.254-4.892,0.102c-19.771-5.607-32.813-5.607-39.127,0
				c-0.476,0.34-0.984,0.747-1.528,1.223c-3.396,2.718-8.05,4.178-13.958,4.381c0.428-0.429,0.905-0.905,1.427-1.426
				c0.476-0.467,2.072-1.69,4.788-3.669c2.778-1.922-0.923-3.791-11.106-5.604c-18.034-2.154-39.637-0.456-64.803,5.095
				c-16.506,1.427-24.761,3.193-24.761,5.298c0,0.068,0.136,0.951,0.408,2.65c-6.454-0.069-12.157-1.461-17.116-4.178
				c-2.379-1.358-4.076-2.615-5.095-3.77c-31.452-8.442-62.902-8.442-94.353,0c-5.366,1.97-8.525,4.551-9.476,7.744
				c1.154,0.883,2.377,2.207,3.668,3.973c0.204,0.204,0.408,0.442,0.611,0.713c1.427,1.903,2.785,3.975,4.076,6.216
				c0.951,0.067,1.97,0.102,3.057,0.102c0,0.136,0,0.305,0,0.509c0,2.242,0.646,3.838,1.937,4.789
				c4.483-0.883,9.917-1.324,16.303-1.324c6.589,0,12.227,0.476,16.914,1.426c4.145,0.815,6.42,1.8,6.827,2.955v1.019v1.019
				c1.427,0.135,3.057,0.271,4.89,0.407c4.755,0.34,9.001,0.51,12.737,0.51c3.193,0,5.401-0.476,6.623-1.426
				c1.223-1.019,6.997-1.529,17.321-1.529c0.951,0,2.004,0.781,3.158,2.343c1.154,1.495,2.82,2.242,4.993,2.242
				c0.746,0,2.107-0.815,4.076-2.446c1.97-1.563,3.667-2.343,5.094-2.343c1.359,0,2.108,0.204,2.243,0.611
				c0,0.204,0.441,1.528,1.323,3.974c1.835,2.377,5.095,3.566,9.781,3.566c1.02,0,2.311-0.238,3.873-0.714
				c1.562-0.407,2.648-0.849,3.26-1.324l0.104-0.102c0,0.066,0,0.133,0,0.203c0.135,1.97,0.509,3.499,1.12,4.585
				c1.427,2.65,4.042,3.974,7.845,3.974c3.262,0,6.792-0.951,10.598-2.853c3.872-1.834,6.316-2.751,7.335-2.751
				c1.427,0,3.229,0.748,5.401,2.242c0.135,0.204,0.307,0.373,0.509,0.509c2.377,1.901,4.314,2.853,5.808,2.853
				c2.583,0,4.416-0.849,5.503-2.547c0.678-1.019,1.188-2.921,1.528-5.705c0.34-2.174,0.781-3.771,1.325-4.789
				c0.067-0.339,0.203-0.612,0.408-0.815c1.086-1.766,2.953-2.649,5.604-2.649c0.611,0,1.766,0.271,3.463,0.815
				c0.135,0.543,0.374,1.121,0.715,1.732c1.153,2.106,3.022,3.159,5.604,3.159c1.087,0,2.615-0.408,4.585-1.223
				c0.408-0.204,0.814-0.374,1.222-0.509c0.951-0.204,1.903-0.509,2.854-0.917c0.476,0.543,0.813,1.358,1.019,2.446
				c0.272,0.407,0.746,0.747,1.427,1.019c1.425,0.543,3.702,0.815,6.826,0.815c2.241,0,6.759-1.223,13.553-3.668
				c3.395-1.223,6.724-2.446,9.983-3.668c8.83,3.804,13.483,5.707,13.961,5.707c7.743,0,13.856-0.985,18.34-2.956
				c5.298-2.242,7.947-5.808,7.947-10.698c0-2.174-0.373-3.872-1.121-5.095c11.742,4.104,26.651,3.594,44.731-1.528
				c-17.517-1.651-28.046-3.893-31.587-6.725C640.427,33.883,637.167,32.559,634.186,32.73 M495.307,53.108
				c0.338-0.204,0.712-0.442,1.12-0.713c0.138,0.271,0.272,0.646,0.408,1.121C496.292,53.38,495.782,53.245,495.307,53.108z"/>
			<path fill="#CCCCCC" d="M496.427,52.395c-0.408,0.271-0.782,0.509-1.12,0.713c0.476,0.136,0.985,0.271,1.528,0.408
				C496.699,53.041,496.564,52.667,496.427,52.395 M360.401,63.706v-2.751v-1.019c0.408-1.155,2.751-2.14,7.031-2.955
				c0.136,0,0.305-0.034,0.509-0.102c-1.291-0.951-1.937-2.547-1.937-4.789c0-0.204,0-0.373,0-0.509
				c-1.086,0-2.105-0.034-3.057-0.102c-1.291-2.242-2.649-4.313-4.076-6.216c-0.203-0.271-0.407-0.509-0.611-0.713
				c-0.951,2.446-1.427,5.57-1.427,9.375c0,3.872,0.781,6.725,2.345,8.559C359.519,62.89,359.927,63.297,360.401,63.706
				 M487.462,65.946c0-0.07,0-0.137,0-0.203l-0.104,0.102C487.426,65.845,487.458,65.878,487.462,65.946 M511.508,72.06
				c3.057,0,5.807-0.305,8.253-0.916c-2.173-1.495-3.975-2.242-5.401-2.242c-1.019,0-3.463,0.917-7.335,2.751
				C508.586,71.924,510.081,72.06,511.508,72.06z"/>
			<path fill="#333333" d="M452.205,227.751c0.952,0.341,1.802,0.645,2.548,0.918c-2.038,0.271-4.041,0.405-6.011,0.405
				c-0.278,0-0.55,0-0.815,0c-0.203,0.408-0.407,0.816-0.611,1.225l113.1-2.854l-113.1,2.854c-0.68,1.427-1.461,2.819-2.344,4.177
				l0.204,2.75l101.178-4.075l18.952-0.814V219.09l-5.399,0.102l-7.133,0.102l7.133-0.102v-0.713l-107.598-2.343
				c-0.95,4.189-2.24,8.129-3.872,11.819C449.711,227.927,450.968,227.858,452.205,227.751 M518.944,293.879
				c0,1.02-0.031,2.07-0.102,3.158c-0.202,2.717-0.61,5.399-1.222,8.051l10.901-3.363c-0.949-2.105-1.765-4.314-2.445-6.623
				c-0.406-1.427-0.746-2.854-1.019-4.279c-0.068-0.407-0.17-0.85-0.305-1.325l-5.706,1.63
				C519.048,292.078,519.013,292.996,518.944,293.879 M527.096,256.585c0.068-0.405,0.205-0.779,0.408-1.12l-15.183,1.63
				l-1.222,0.816c0.339,0.338,0.611,0.748,0.816,1.222c0.135,0.205,0.271,0.408,0.405,0.612c1.02,1.971,1.971,4.076,2.854,6.317
				l9.68-1.63C525.466,261.578,526.212,258.964,527.096,256.585 M576.412,281.652c-0.611-1.971-1.087-4.008-1.427-6.113l-5.706,1.63
				c0,0.407,0,0.85,0,1.323c0,1.699-0.067,3.396-0.203,5.095c-0.205,2.038-0.476,4.008-0.815,5.91l9.781-3.057
				c-0.203-0.408-0.374-0.78-0.51-1.12C577.059,284.096,576.685,282.874,576.412,281.652 M574.476,256.892
				c0.067-0.543,0.136-1.019,0.205-1.427c0.272-2.378,0.645-4.619,1.12-6.725l-12.227,1.835c0.135,0.339,0.338,0.713,0.61,1.12
				c0.952,1.969,1.766,4.11,2.446,6.418L574.476,256.892 M579.57,218.784l-0.916-19.053h-13.349v19.359v13.246v2.14v4.585
				l14.368-0.61c0.135-0.341,0.305-0.647,0.51-0.918c0.067-0.203,0.102-0.374,0.102-0.51l-0.102-3.158L579.57,218.784
				 M472.482,308.348c-0.272-0.816-0.51-1.664-0.713-2.548l-12.125,2.955c0.271,0.341,0.476,0.646,0.611,0.918
				c0.543,0.813,1.053,1.663,1.528,2.547c1.088,2.309,1.834,4.822,2.242,7.538l11.513-2.547c-1.087-2.512-2.004-5.162-2.75-7.946
				C472.651,308.992,472.552,308.686,472.482,308.348 M364.172,331.985l3.77,12.84l67.962-18.647c0-0.271,0-0.576,0-0.917
				c0-2.241,0.204-4.349,0.611-6.316c0.34-1.766,0.815-3.431,1.427-4.993L364.172,331.985 M457.097,295.712
				c3.396-13.041,4.552-26.694,3.465-40.959l-114.935,12.939l0.307,2.139l11.92,40.86L457.097,295.712 M477.577,259.133
				c0.746-1.425,1.528-2.75,2.344-3.973c0.408-0.612,0.851-1.189,1.324-1.733l-1.324-1.019l-19.359,2.345
				c1.087,14.265-0.069,27.918-3.465,40.959l13.145-1.937c0-1.289,0-2.511,0-3.667C470.241,278.019,472.688,267.692,477.577,259.133
				 M360.401,71.653l5.095,2.343c7.201-1.63,13.892-2.377,20.073-2.242c6.181,0.204,11.82,1.358,16.915,3.464l5.502-3.566
				c-0.407-1.223-2.683-2.276-6.827-3.159c-4.348-0.679-9.476-1.087-15.385-1.222c-0.543,0-1.053,0-1.528,0
				c-1.563,0-3.057,0.034-4.484,0.102c-2.377,0.068-4.585,0.204-6.623,0.408c-2.038,0.135-3.939,0.373-5.705,0.712
				C363.153,69.377,360.81,70.43,360.401,71.653 M603.515,159.28l-19.97-3.261l1.834,54.411h40.146v-45.648v-2.038L603.515,159.28
				 M596.078,186.791l-0.51-20.073l22.721,1.833l-0.814,20.073L596.078,186.791z"/>
			<path fill="#FFFFFF" fill-opacity="0.4627" d="M454.753,228.669c-0.746-0.273-1.596-0.577-2.548-0.918
				c-1.237,0.107-2.494,0.176-3.769,0.203c-0.341,0-0.682,0-1.019,0c-0.339,0.341-0.748,0.646-1.223,0.917v0.102
				c0.559,0.046,1.137,0.082,1.732,0.102c0.265,0,0.537,0,0.815,0C450.712,229.074,452.715,228.939,454.753,228.669z"/>
			
				<linearGradient id="SVGID_1_" gradientUnits="userSpaceOnUse" x1="358.5664" y1="117.9893" x2="358.5664" y2="251.2156" gradientTransform="matrix(1 0 0 -1 29.04 379.3398)">
				<stop  offset="0" style="stop-color:#5E5E5E"/>
				<stop  offset="0.7922" style="stop-color:#C4C4C4"/>
				<stop  offset="1" style="stop-color:#858585"/>
			</linearGradient>
			<path fill="url(#SVGID_1_)" d="M361.828,159.177c0.543-0.339,1.087-0.476,1.63-0.407l83.959,6.011
				c-0.68-1.562-1.495-3.091-2.446-4.585c-3.464-5.91-7.404-10.155-11.819-12.737c-2.92-1.697-6.08-2.615-9.476-2.75l-22.314-2.038
				l-37.802-3.566l-41.878-3.873c7.608,0.952,14.163,6.726,19.666,17.322c5.977,11.684,8.966,25.779,8.966,42.285
				c0,16.575-2.989,30.67-8.966,42.285c-5.639,11.006-12.431,16.847-20.378,17.527l99.956-4.892
				c0.611,0.067,1.256,0.102,1.936,0.102c0.475,0,0.95,0,1.426,0l-0.407-20.277l-31.689-0.406c-0.476,0-0.917-0.104-1.324-0.307
				c-0.408-0.338-0.748-0.712-1.019-1.12c-0.204-0.408-0.306-0.85-0.306-1.325l1.63-31.993h-2.038c-0.679,0-1.325-0.272-1.936-0.815
				c-0.476-0.543-0.713-1.155-0.713-1.834c0-0.747,0.238-1.392,0.713-1.936c0.611-0.543,1.257-0.815,1.936-0.815h4.993
				c0.407,0,0.849,0.169,1.325,0.51c0.408,0.203,0.713,0.509,0.917,0.916c0.271,0.408,0.407,0.884,0.407,1.427l-1.732,32.096
				l31.586,0.306c0.68,0,1.291,0.271,1.835,0.815c0.543,0.543,0.815,1.155,0.815,1.834l0.306,21.805
				c5.094-1.767,9.612-5.604,13.551-11.515c0.68-0.883,1.291-1.799,1.834-2.75c0.883-1.357,1.665-2.75,2.344-4.177
				c0.204-0.408,0.408-0.816,0.611-1.225c-0.596-0.02-1.174-0.056-1.732-0.102v-0.102c0.476-0.271,0.884-0.576,1.223-0.917
				c0.337,0,0.678,0,1.019,0c1.632-3.689,2.922-7.63,3.872-11.819c1.29-5.842,1.935-12.125,1.935-18.85
				c0-0.951-0.031-1.902-0.102-2.853l-8.558-0.408l-1.223,5.502c-0.204,0.68-0.611,1.223-1.223,1.63
				c-0.611,0.408-1.291,0.51-2.038,0.306c-0.679-0.203-1.223-0.577-1.63-1.121c-0.34-0.68-0.442-1.393-0.306-2.139l1.731-7.541
				c0.136-0.611,0.442-1.086,0.917-1.427c0.611-0.407,1.189-0.611,1.732-0.611h10.188c-0.542-6.657-1.867-12.771-3.974-18.341
				l-84.774-6.012l-1.12,2.242c-0.204,0.68-0.68,1.155-1.427,1.427c-0.679,0.339-1.358,0.339-2.038,0
				c-0.679-0.271-1.154-0.781-1.426-1.528s-0.271-1.461,0-2.14l1.732-3.973C360.979,159.823,361.353,159.45,361.828,159.177z"/>
			
				<linearGradient id="SVGID_2_" gradientUnits="userSpaceOnUse" x1="465.6582" y1="164.0479" x2="470.8039" y2="229.1078" gradientTransform="matrix(1 0 0 -1 29.04 379.3398)">
				<stop  offset="0" style="stop-color:#3C3C3C"/>
				<stop  offset="0.6627" style="stop-color:#AAAAAA"/>
				<stop  offset="0.7882" style="stop-color:#A6A6A6"/>
				<stop  offset="1" style="stop-color:#585858"/>
			</linearGradient>
			<path fill="url(#SVGID_2_)" d="M534.434,162.947l-5.911-0.815l-95.37-14.673c4.415,2.582,8.355,6.827,11.819,12.737
				c0.951,1.494,1.766,3.023,2.446,4.585l10.597,0.612c0.543,0.068,1.053,0.306,1.528,0.713c0.408,0.339,0.679,0.815,0.813,1.426
				c0.136,0.612,0.068,1.189-0.202,1.732l-2.14,4.484c-0.341,0.611-0.85,1.086-1.528,1.426c-0.679,0.204-1.359,0.136-2.038-0.204
				c-0.679-0.339-1.156-0.849-1.427-1.528c-0.271-0.678-0.203-1.358,0.203-2.038l0.408-0.917l-3.872-0.204
				c2.106,5.57,3.432,11.684,3.974,18.341l95.982,4.891c0.814,0.068,1.459,0.374,1.937,0.917c0.474,0.543,0.713,1.189,0.713,1.935
				c-0.068,0.68-0.374,1.292-0.918,1.835c-0.543,0.407-1.188,0.611-1.937,0.611l-95.37-4.381c0.07,0.95,0.102,1.901,0.102,2.853
				c0,6.725-0.645,13.008-1.935,18.85l107.598,2.343c1.697-6.317,2.648-12.566,2.852-18.748c0.273-10.597-1.56-20.99-5.5-31.18
				c-0.273-0.747-0.546-1.494-0.816-2.242L534.434,162.947z"/>
			<path fill="#8E8E8E" d="M557.359,254.548c0.813,1.632,1.494,3.431,2.037,5.4c1.495,4.824,2.241,10.325,2.241,16.506
				c0,0.136,0,0.272,0,0.408c0,3.126-0.169,6.079-0.51,8.865c-0.679,5.027-1.937,9.509-3.769,13.449
				c-0.679,1.563-1.428,2.922-2.243,4.076l6.217,4.483c0.271-0.408,0.542-0.816,0.814-1.224c0.204-0.339,0.407-0.679,0.61-1.02
				c2.379-4.346,4.111-9.202,5.198-14.569c0.136-0.476,0.237-0.951,0.305-1.427c0.34-1.902,0.61-3.872,0.815-5.91
				c0.136-1.698,0.203-3.396,0.203-5.095c0-0.474,0-0.916,0-1.323c0-0.884,0-1.766,0-2.649c-0.203-5.502-0.949-10.597-2.24-15.283
				c-0.138-0.408-0.273-0.782-0.408-1.123c-0.681-2.308-1.494-4.449-2.446-6.418c-0.272-0.407-0.476-0.781-0.61-1.12
				c-0.271-0.613-0.543-1.154-0.816-1.632c-0.541-0.951-1.12-1.833-1.731-2.648l-5.91,4.28
				C555.932,251.662,556.681,252.987,557.359,254.548 M511.916,259.133c-0.205-0.474-0.478-0.884-0.816-1.222
				c-0.135-0.339-0.307-0.646-0.51-0.918l-6.215,4.382c0.949,1.223,1.833,2.649,2.649,4.279c2.445,4.892,3.94,10.631,4.483,17.22
				c0.272,2.105,0.408,4.279,0.408,6.521c0,0.067,0,0.136,0,0.203c0,3.329-0.205,6.487-0.613,9.477
				c-0.541,3.26-1.323,6.351-2.342,9.272l7.335,2.139c0.272-0.813,0.51-1.663,0.714-2.547c0.271-0.949,0.475-1.9,0.611-2.852
				c0.611-2.651,1.02-5.334,1.222-8.051c0.07-1.088,0.102-2.139,0.102-3.158c0.068-0.883,0.104-1.801,0.104-2.752
				c0-0.34,0-0.679,0-1.019c0-0.882,0-1.731,0-2.548c-0.067-1.9-0.205-3.701-0.407-5.398c-0.477-4.96-1.359-9.545-2.649-13.756
				c-0.272-0.815-0.545-1.596-0.815-2.344c-0.884-2.241-1.835-4.347-2.854-6.317C512.187,259.541,512.051,259.338,511.916,259.133
				 M582.525,233.764c-0.272,0.405-0.543,0.813-0.813,1.222l5.908,3.872c2.311-3.396,4.926-5.094,7.847-5.094
				c3.803,0,7.064,2.988,9.781,8.965c2.717,6.046,4.076,13.315,4.076,21.805c0,8.49-1.359,15.76-4.076,21.806
				c-0.679,1.495-1.393,2.784-2.14,3.871l4.687,3.262c0.273-0.408,0.544-0.782,0.814-1.121c0.205-0.478,0.441-0.951,0.715-1.427
				c1.494-2.648,2.683-5.469,3.565-8.458c0.136-0.476,0.273-0.881,0.408-1.222c1.425-5.164,2.14-10.867,2.14-17.118
				c0-9.171-1.599-17.117-4.79-23.844c-0.339-0.951-0.78-1.866-1.323-2.75c-1.02-1.902-2.14-3.532-3.363-4.892
				c-0.273-0.406-0.577-0.813-0.918-1.222c-3.057-3.327-6.487-4.993-10.291-4.993c-4.143,0-7.878,1.97-11.207,5.91
				C583.204,232.744,582.866,233.218,582.525,233.764 M208.38,367.954l-37.599,9.68v12.125l33.93-8.967
				c-1.223-1.087-2.207-2.241-2.954-3.465L208.38,367.954 M287.651,266.47l-2.853-2.547l-2.649-1.733L208.38,367.954l-6.623,9.373
				L287.651,266.47 M307.927,270.749l-20.276-4.279l-85.895,110.857c0.747,1.224,1.731,2.378,2.954,3.465
				c5.774,5.095,16.915,8.388,33.42,9.885L307.927,270.749 M454.55,304.271c-1.357-0.681-2.786-1.019-4.28-1.019
				c-3.192,0-6.011,1.427-8.457,4.278c-0.543,0.613-1.087,1.325-1.63,2.142c-0.884,1.356-1.631,2.784-2.242,4.278
				c-0.612,1.563-1.086,3.228-1.427,4.993c-0.407,1.968-0.611,4.075-0.611,6.316c0,0.341,0,0.646,0,0.917
				c0.135,5.775,1.562,10.699,4.28,14.774c0.543,0.884,1.154,1.7,1.834,2.446c2.377,2.717,5.128,4.075,8.252,4.075
				c3.872,0,7.202-2.175,9.986-6.521c0.815-1.222,1.528-2.513,2.139-3.872c1.427-3.463,2.142-7.403,2.142-11.819
				c0-1.9-0.171-3.735-0.51-5.503c-0.408-2.716-1.154-5.229-2.242-7.538c-0.476-0.884-0.985-1.733-1.528-2.547
				c-0.136-0.272-0.341-0.577-0.611-0.918C458.082,306.647,456.385,305.155,454.55,304.271 M455.977,313.748
				c0.272,0.406,0.543,0.814,0.814,1.222c1.699,2.922,2.515,6.421,2.445,10.496c0,4.075-0.85,7.574-2.547,10.493
				c-1.698,2.854-3.77,4.281-6.215,4.281s-4.518-1.461-6.215-4.382c-1.631-2.854-2.446-6.353-2.446-10.496
				c0-3.057,0.509-5.807,1.528-8.253c0.339-0.746,0.713-1.494,1.12-2.24c1.631-2.854,3.669-4.281,6.114-4.281
				C452.613,310.588,454.414,311.643,455.977,313.748 M376.603,374.271l-2.955-9.984l-5.706-19.461l-3.77-12.84l-6.318-21.294
				l-11.92-40.86l-23.232,0.408l-14.774,0.51l-69.796,119.928c12.703,0.679,35.017-1.087,66.943-5.3
				C325.113,382.66,348.956,378.959,376.603,374.271 M373.647,364.286l2.955,9.984c-27.647,4.688-51.489,8.39-71.528,11.106
				l-125.836,38.516h57.467l493.563-159.868v-9.069l-6.725,2.14c-0.408,0.748-0.884,1.497-1.427,2.243
				c-2.784,4.348-6.147,6.521-10.088,6.521c-2.648,0-5.059-1.02-7.233-3.057l-13.449,4.177c-0.408,0.746-0.85,1.459-1.325,2.14
				c-2.784,4.346-6.147,6.521-10.088,6.521c-2.648,0-5.059-0.985-7.234-2.955l-13.958,4.278c-0.408,0.681-0.815,1.359-1.224,2.038
				c-2.852,4.28-6.215,6.42-10.086,6.42c-2.65,0-4.993-0.951-7.031-2.854l-31.791,9.783c-0.271,0.339-0.541,0.713-0.814,1.121
				c-3.734,5.638-8.083,8.455-13.043,8.455c-2.919,0-5.638-0.951-8.15-2.852l-24.454,7.438c-0.272,0.407-0.544,0.815-0.814,1.224
				c-4.144,6.249-9.068,9.373-14.774,9.373c-3.262,0-6.248-1.019-8.967-3.057l-26.084,8.05
				c-4.687,7.948-10.326,11.921-16.914,11.921c-3.669,0-6.997-1.256-9.986-3.77l-22.213,6.826c-0.61,1.359-1.323,2.65-2.139,3.872
				c-2.784,4.347-6.114,6.521-9.986,6.521c-3.125,0-5.875-1.358-8.252-4.075L373.647,364.286z"/>
			<path fill="#4D4D4D" d="M559.396,259.948c-0.543-1.97-1.224-3.769-2.037-5.4c-0.679-1.561-1.428-2.886-2.243-3.973
				c-2.241-3.534-4.855-5.3-7.845-5.3c-3.94,0-7.304,3.091-10.088,9.272c-2.784,6.181-4.177,13.62-4.177,22.314
				c0,2.445,0.102,4.754,0.306,6.93c0.339,3.191,0.884,6.181,1.63,8.965c0.544,2.243,1.292,4.382,2.241,6.42
				c2.784,6.182,6.147,9.271,10.088,9.271c2.989,0,5.604-1.731,7.845-5.195c0.815-1.154,1.564-2.514,2.243-4.076
				c1.832-3.94,3.09-8.422,3.769-13.449c0.341-2.786,0.51-5.739,0.51-8.865c0-0.136,0-0.272,0-0.408
				C561.638,270.273,560.892,264.772,559.396,259.948 M541.361,261.375c1.767-4.28,3.838-6.386,6.217-6.318
				c2.376,0,4.414,2.105,6.113,6.318c1.697,4.212,2.512,9.306,2.443,15.284c0,0.408,0,0.814,0,1.222
				c-0.067,3.465-0.441,6.623-1.12,9.477c-0.34,1.63-0.813,3.158-1.427,4.586c-1.766,4.211-3.837,6.316-6.215,6.316
				s-4.381-2.105-6.012-6.316c-0.136-0.273-0.237-0.544-0.305-0.816c-0.951-2.648-1.599-5.57-1.937-8.762
				c-0.203-1.835-0.307-3.738-0.307-5.706C538.813,270.613,539.663,265.519,541.361,261.375 M547.578,255.057
				c-2.379-0.067-4.45,2.038-6.217,6.318c-1.698,4.144-2.548,9.238-2.548,15.284c0,1.968,0.104,3.871,0.307,5.706
				c0.338,3.191,0.985,6.113,1.937,8.762c0.067,0.272,0.169,0.543,0.305,0.816c1.631,4.211,3.634,6.316,6.012,6.316
				s4.449-2.105,6.215-6.316c0.613-1.428,1.087-2.956,1.427-4.586c0.679-2.854,1.053-6.012,1.12-9.477c0-0.407,0-0.813,0-1.222
				c0.068-5.979-0.746-11.072-2.443-15.284C551.992,257.162,549.954,255.057,547.578,255.057 M587.62,238.857
				c-0.679,1.087-1.359,2.377-2.038,3.871c-2.716,6.046-4.075,13.315-4.075,21.805c0,2.309,0.102,4.552,0.306,6.725
				c0.273,3.057,0.782,5.911,1.529,8.56c0.543,2.309,1.291,4.483,2.24,6.521c2.717,5.908,6.012,8.864,9.885,8.864
				c2.852,0,5.399-1.664,7.642-4.993c0.747-1.087,1.461-2.376,2.14-3.871c2.717-6.046,4.076-13.315,4.076-21.806
				c0-8.489-1.359-15.759-4.076-21.805c-2.717-5.977-5.979-8.965-9.781-8.965C592.546,233.764,589.931,235.461,587.62,238.857
				 M601.375,248.74c1.563,4.144,2.345,9.171,2.345,15.081c0,5.841-0.815,10.834-2.446,14.978c-1.699,4.143-3.667,6.215-5.91,6.215
				c-2.309-0.067-4.278-2.14-5.908-6.215c-0.07-0.203-0.138-0.374-0.205-0.51c-0.884-2.581-1.492-5.401-1.833-8.458
				c-0.205-1.902-0.307-3.904-0.307-6.01c0.07-5.91,0.918-10.938,2.548-15.081s3.566-6.181,5.809-6.113
				C597.775,242.627,599.746,244.665,601.375,248.74 M603.72,263.821c0-5.91-0.782-10.938-2.345-15.081
				c-1.629-4.075-3.6-6.113-5.908-6.113c-2.242-0.067-4.179,1.97-5.809,6.113s-2.478,9.171-2.548,15.081
				c0,2.105,0.102,4.107,0.307,6.01c0.341,3.057,0.949,5.877,1.833,8.458c0.067,0.136,0.135,0.307,0.205,0.51
				c1.63,4.075,3.6,6.147,5.908,6.215c2.243,0,4.211-2.072,5.91-6.215C602.904,274.655,603.72,269.662,603.72,263.821
				 M722.117,259.338c0.543-0.746,1.019-1.495,1.427-2.243c0.203-0.474,0.408-0.951,0.611-1.425l-20.379,6.113
				c0.341,0.339,0.679,0.679,1.02,1.02c2.175,2.037,4.585,3.057,7.233,3.057C715.97,265.859,719.333,263.686,722.117,259.338
				 M657.518,279.002c0.408-0.679,0.815-1.357,1.224-2.038c0.272-0.679,0.544-1.357,0.814-2.038l-20.582,6.217
				c0.408,0.542,0.884,1.02,1.427,1.425c2.038,1.903,4.381,2.854,7.031,2.854C651.303,285.422,654.666,283.282,657.518,279.002
				 M690.021,269.119c0.476-0.681,0.917-1.394,1.325-2.14c0.067-0.205,0.136-0.374,0.203-0.51c0.205-0.407,0.408-0.815,0.61-1.224
				l-20.581,6.113c0.271,0.272,0.51,0.577,0.713,0.918c0.135,0.137,0.272,0.272,0.407,0.408c2.176,1.97,4.586,2.955,7.234,2.955
				C683.874,275.641,687.237,273.465,690.021,269.119 M456.791,314.97c-0.271-0.407-0.542-0.815-0.814-1.222
				c-1.563-2.105-3.363-3.16-5.401-3.16c-2.445,0-4.483,1.427-6.114,4.281c-0.407,0.746-0.781,1.494-1.12,2.24
				c-1.019,2.446-1.528,5.196-1.528,8.253c0,4.144,0.815,7.642,2.446,10.496c1.697,2.921,3.769,4.382,6.215,4.382
				s4.517-1.427,6.215-4.281c1.697-2.919,2.547-6.418,2.547-10.493C459.306,321.391,458.49,317.892,456.791,314.97 M483.181,265.654
				c-3.396,6.521-5.128,14.47-5.195,23.843c0,2.989,0.171,5.843,0.509,8.56c0.408,3.26,1.087,6.316,2.038,9.17
				c0.611,2.174,1.427,4.245,2.446,6.215c3.26,6.657,7.199,9.986,11.818,9.986c4.687,0,8.695-3.295,12.024-9.885
				c0.813-1.63,1.528-3.361,2.14-5.195c1.019-2.922,1.801-6.013,2.342-9.272c0.408-2.989,0.613-6.147,0.613-9.477
				c0-0.067,0-0.136,0-0.203c0-2.242-0.136-4.416-0.408-6.521c-0.543-6.589-2.038-12.328-4.483-17.22
				c-0.816-1.63-1.7-3.057-2.649-4.279c-2.716-3.735-5.809-5.604-9.271-5.604C490.415,255.702,486.442,258.997,483.181,265.654
				 M485.424,296.222c-0.34-2.105-0.51-4.349-0.51-6.725c0-6.316,1.087-11.684,3.26-16.1c2.105-4.481,4.653-6.69,7.643-6.623
				c2.921,0,5.433,2.243,7.54,6.727c2.105,4.414,3.124,9.747,3.057,15.996c0,0.408,0,0.848,0,1.325
				c-0.069,3.599-0.51,6.894-1.325,9.883c-0.476,1.699-1.087,3.328-1.833,4.892c-2.173,4.481-4.721,6.725-7.642,6.725
				c-2.922-0.069-5.436-2.311-7.541-6.725c-0.069-0.135-0.102-0.238-0.102-0.307C486.68,302.572,485.83,299.551,485.424,296.222
				 M484.914,289.497c0,2.376,0.17,4.619,0.51,6.725c0.406,3.329,1.256,6.351,2.547,9.068c0,0.068,0.032,0.172,0.102,0.307
				c2.105,4.414,4.619,6.655,7.541,6.725c2.921,0,5.469-2.243,7.642-6.725c0.746-1.563,1.357-3.192,1.833-4.892
				c0.815-2.989,1.256-6.284,1.325-9.883c0-0.478,0-0.917,0-1.325c0.067-6.249-0.951-11.582-3.057-15.996
				c-2.107-4.483-4.619-6.727-7.54-6.727c-2.989-0.067-5.537,2.142-7.643,6.623C486.001,277.813,484.914,283.181,484.914,289.497z"
				/>
			<path fill="#191919" d="M515.176,266.063c0.271,0.748,0.543,1.528,0.815,2.344c1.29,4.211,2.173,8.796,2.649,13.756
				c0.202,1.697,0.34,3.498,0.407,5.398c0,0.816,0,1.666,0,2.548c0,0.34,0,0.679,0,1.019l5.706-1.63
				c-0.205-1.087-0.341-2.209-0.408-3.363c-0.338-2.852-0.51-5.841-0.51-8.965c0-4.008,0.307-7.812,0.918-11.413
				c0-0.474,0.033-0.916,0.102-1.323L515.176,266.063 M574.069,264.126c0-2.581,0.136-4.993,0.406-7.234l-7.845,1.222
				c0.135,0.341,0.271,0.715,0.408,1.123c1.291,4.687,2.037,9.781,2.24,15.283c0,0.884,0,1.766,0,2.649l5.706-1.63
				c-0.067-0.408-0.136-0.816-0.203-1.225c-0.067-0.407-0.102-0.813-0.102-1.222C574.272,270.239,574.069,267.252,574.069,264.126
				 M624.199,218.479v-0.917l-44.629,1.222l0.613,15.081l2.342-0.101c0.341-0.546,0.679-1.02,1.02-1.428
				c3.329-3.94,7.064-5.91,11.207-5.91c3.804,0,7.234,1.666,10.291,4.993c0.341,0.408,0.645,0.815,0.918,1.222l17.729-0.813
				L624.199,218.479 M470.444,296.427c-0.067-0.951-0.135-1.835-0.203-2.651l-13.145,1.937l-99.243,14.979l6.318,21.294
				l73.77-18.034c0.611-1.494,1.358-2.922,2.242-4.278c0.543-0.816,1.086-1.528,1.63-2.142c2.446-2.852,5.265-4.278,8.457-4.278
				c1.494,0,2.922,0.338,4.28,1.019c1.835,0.884,3.532,2.376,5.095,4.483l12.125-2.955c-0.34-1.902-0.646-3.837-0.917-5.807
				C470.717,298.839,470.582,297.648,470.444,296.427 M445.176,237.226h-2.038c-3.939,5.911-8.457,9.748-13.551,11.515l0.102,4.076
				c0,0.681-0.238,1.289-0.712,1.835c-0.544,0.61-1.189,0.915-1.937,0.915c-0.68,0-1.291-0.271-1.834-0.813
				c-0.543-0.476-0.815-1.089-0.815-1.835l-0.103-3.057c-0.476,0-0.951,0-1.426,0c-0.68,0-1.325-0.034-1.936-0.102l-99.956,4.892
				h-0.307c-0.339,0-0.712,0-1.121,0c-5.366,0-10.223-2.311-14.57-6.93l-20.174,16.201l2.853,2.547l20.276,4.279l14.774-0.51
				l22.925-2.547l114.935-12.939l19.359-2.345l1.324,1.019c3.939-4.821,8.39-7.233,13.349-7.233c6.182,0,11.513,3.6,15.996,10.8
				c0.203,0.272,0.375,0.579,0.51,0.918l1.222-0.816l15.183-1.63c0.816-2.378,1.801-4.551,2.955-6.521
				c4.414-7.811,9.781-11.718,16.1-11.718c5.501,0,10.325,3.025,14.468,9.069c0.611,0.815,1.19,1.697,1.731,2.648
				c0.273,0.478,0.546,1.019,0.816,1.632l12.227-1.835c0.136-0.408,0.271-0.884,0.408-1.427c0.882-3.124,2.038-6.079,3.465-8.863
				l-14.368,0.61v-4.585l-18.851,0.917h-3.057h3.057l-0.102-2.242L445.176,237.226z"/>
			<path fill="#7F7F7F" d="M561.026,246.295c-4.143-6.044-8.967-9.069-14.468-9.069c-6.318,0-11.686,3.907-16.1,11.718
				c-1.154,1.971-2.139,4.144-2.955,6.521c-0.203,0.341-0.34,0.715-0.408,1.12c-0.884,2.379-1.63,4.993-2.24,7.848
				c-0.068,0.407-0.102,0.85-0.102,1.323c-0.611,3.602-0.918,7.405-0.918,11.413c0,3.124,0.172,6.113,0.51,8.965
				c0.067,1.154,0.203,2.276,0.408,3.363c0.135,0.476,0.236,0.918,0.305,1.325c0.272,1.425,0.612,2.853,1.019,4.279
				c0.681,2.309,1.496,4.518,2.445,6.623c0.205,0.407,0.374,0.779,0.51,1.12c0.543,0.884,1.019,1.765,1.427,2.648
				c2.174,3.737,4.552,6.592,7.133,8.56c2.719,2.038,5.705,3.057,8.967,3.057c5.706,0,10.631-3.124,14.774-9.373l-6.217-4.483
				c-2.241,3.464-4.855,5.195-7.845,5.195c-3.94,0-7.304-3.09-10.088-9.271c-0.949-2.038-1.697-4.177-2.241-6.42
				c-0.746-2.784-1.291-5.773-1.63-8.965c-0.204-2.176-0.306-4.484-0.306-6.93c0-8.694,1.393-16.134,4.177-22.314
				c2.784-6.182,6.147-9.272,10.088-9.272c2.989,0,5.604,1.766,7.845,5.3L561.026,246.295 M580.285,237.022
				c0,0.136-0.034,0.307-0.102,0.51c-0.205,0.271-0.375,0.577-0.51,0.918c-1.427,2.784-2.583,5.739-3.465,8.863
				c-0.138,0.543-0.272,1.019-0.408,1.427c-0.476,2.105-0.848,4.347-1.12,6.725c-0.069,0.408-0.138,0.884-0.205,1.427
				c-0.271,2.241-0.406,4.653-0.406,7.234c0,3.126,0.203,6.113,0.611,8.967c0,0.408,0.034,0.814,0.102,1.222
				c0.067,0.408,0.136,0.816,0.203,1.225c0.34,2.105,0.815,4.143,1.427,6.113c0.272,1.222,0.646,2.443,1.12,3.668
				c0.136,0.34,0.307,0.712,0.51,1.12c0.612,1.563,1.325,3.057,2.142,4.483c1.97,3.532,4.107,6.249,6.418,8.151
				c2.513,1.9,5.231,2.852,8.15,2.852c4.96,0,9.309-2.817,13.043-8.455l-4.687-3.262c-2.242,3.329-4.79,4.993-7.642,4.993
				c-3.873,0-7.168-2.956-9.885-8.864c-0.949-2.038-1.697-4.213-2.24-6.521c-0.747-2.648-1.256-5.503-1.529-8.56
				c-0.204-2.173-0.306-4.416-0.306-6.725c0-8.489,1.359-15.759,4.075-21.805c0.679-1.494,1.359-2.784,2.038-3.871l-5.908-3.872
				c-0.408,0.61-0.851,1.289-1.326,2.037H580.285 M730.269,219.803v-14.774l-85.487-4.381v24.557L730.269,219.803 M479.921,255.16
				c-0.815,1.223-1.598,2.548-2.344,3.973c-4.89,8.56-7.336,18.886-7.336,30.976c0,1.156,0,2.378,0,3.667
				c0.068,0.816,0.136,1.7,0.203,2.651c0.138,1.222,0.272,2.412,0.408,3.566c0.271,1.97,0.577,3.904,0.917,5.807
				c0.203,0.884,0.44,1.731,0.713,2.548c0.069,0.338,0.169,0.645,0.307,0.917c0.746,2.784,1.663,5.435,2.75,7.946
				c0.408,0.816,0.782,1.632,1.12,2.445c0.273,0.544,0.577,1.053,0.918,1.529c2.107,3.939,4.449,6.963,7.03,9.068
				c2.989,2.514,6.317,3.77,9.986,3.77c6.588,0,12.228-3.973,16.914-11.921c0.135-0.338,0.272-0.645,0.408-0.917
				c1.832-3.33,3.293-6.896,4.38-10.699l-7.335-2.139c-0.611,1.834-1.326,3.565-2.14,5.195c-3.329,6.59-7.338,9.885-12.024,9.885
				c-4.619,0-8.559-3.329-11.818-9.986c-1.02-1.97-1.835-4.041-2.446-6.215c-0.951-2.854-1.63-5.91-2.038-9.17
				c-0.338-2.717-0.509-5.57-0.509-8.56c0.067-9.373,1.799-17.321,5.195-23.843c3.262-6.657,7.234-9.952,11.923-9.883
				c3.463,0,6.556,1.868,9.271,5.604l6.215-4.382c-4.483-7.2-9.814-10.8-15.996-10.8c-4.959,0-9.409,2.412-13.349,7.233
				C480.771,253.971,480.329,254.548,479.921,255.16z"/>
			<path fill="#777777" d="M389.135,194.433h2.038l-1.63,31.993c0,0.476,0.102,0.917,0.306,1.325
				c0.271,0.408,0.611,0.782,1.019,1.12c0.408,0.203,0.849,0.307,1.324,0.307l31.689,0.406l0.407,20.277l0.103,3.057
				c0,0.746,0.272,1.359,0.815,1.835c0.543,0.543,1.154,0.813,1.834,0.813c0.747,0,1.392-0.305,1.937-0.915
				c0.475-0.546,0.712-1.154,0.712-1.835l-0.102-4.076l-0.306-21.805c0-0.679-0.271-1.291-0.815-1.834
				c-0.544-0.543-1.155-0.815-1.835-0.815l-31.586-0.306l1.732-32.096c0-0.543-0.135-1.019-0.407-1.427
				c-0.204-0.407-0.51-0.713-0.917-0.916c-0.476-0.34-0.917-0.51-1.325-0.51h-4.993c-0.679,0-1.325,0.271-1.936,0.815
				c-0.476,0.543-0.713,1.189-0.713,1.936c0,0.68,0.238,1.292,0.713,1.834C387.811,194.161,388.457,194.433,389.135,194.433
				 M363.458,158.77c-0.543-0.068-1.086,0.068-1.63,0.407c-0.476,0.272-0.849,0.646-1.12,1.122l-1.732,3.973
				c-0.271,0.679-0.271,1.393,0,2.14s0.747,1.257,1.426,1.528c0.68,0.339,1.359,0.339,2.038,0c0.747-0.271,1.223-0.747,1.427-1.427
				l1.12-2.242l84.774,6.012l3.872,0.204l-0.408,0.917c-0.406,0.68-0.474,1.359-0.203,2.038c0.271,0.68,0.748,1.189,1.427,1.528
				c0.679,0.34,1.359,0.408,2.038,0.204c0.679-0.339,1.188-0.815,1.528-1.426l2.14-4.484c0.271-0.543,0.338-1.12,0.202-1.732
				c-0.135-0.611-0.405-1.087-0.813-1.426c-0.476-0.408-0.985-0.646-1.528-0.713l-10.597-0.612L363.458,158.77 M551.653,194.433
				c-0.478-0.543-1.122-0.849-1.937-0.917l-95.982-4.891h-10.188c-0.543,0-1.122,0.204-1.732,0.611
				c-0.476,0.34-0.781,0.816-0.917,1.427l-1.731,7.541c-0.136,0.746-0.035,1.459,0.306,2.139c0.407,0.543,0.951,0.917,1.63,1.121
				c0.747,0.204,1.427,0.103,2.038-0.306c0.612-0.407,1.019-0.95,1.223-1.63l1.223-5.502l8.558,0.408l95.37,4.381
				c0.749,0,1.394-0.204,1.937-0.611c0.544-0.543,0.85-1.155,0.918-1.835C552.366,195.622,552.127,194.976,551.653,194.433z"/>
			
				<linearGradient id="SVGID_3_" gradientUnits="userSpaceOnUse" x1="373.4429" y1="272.1357" x2="334.4693" y2="272.1357" gradientTransform="matrix(1 0 0 -1 29.04 379.3398)">
				<stop  offset="0" style="stop-color:#3C3C3C"/>
				<stop  offset="0.6627" style="stop-color:#AAAAAA"/>
				<stop  offset="0.7882" style="stop-color:#A6A6A6"/>
				<stop  offset="1" style="stop-color:#585858"/>
			</linearGradient>
			<path fill="url(#SVGID_3_)" d="M402.483,75.219c-5.095-2.106-10.733-3.261-16.915-3.464c-6.181-0.135-12.872,0.612-20.073,2.242
				l-1.936,65.109l37.802,3.566L402.483,75.219z"/>
			
				<linearGradient id="SVGID_4_" gradientUnits="userSpaceOnUse" x1="378.9448" y1="315.7373" x2="331.3101" y2="315.7373" gradientTransform="matrix(1 0 0 -1 29.04 379.3398)">
				<stop  offset="0" style="stop-color:#3C3C3C"/>
				<stop  offset="0.6627" style="stop-color:#AAAAAA"/>
				<stop  offset="0.7882" style="stop-color:#A6A6A6"/>
				<stop  offset="1" style="stop-color:#585858"/>
			</linearGradient>
			<path fill="url(#SVGID_4_)" d="M407.985,61.973v-1.019v-1.019c-0.407-1.155-2.683-2.14-6.827-2.955
				c-4.687-0.95-10.325-1.426-16.914-1.426c-6.385,0-11.819,0.441-16.303,1.324c-0.204,0.068-0.373,0.102-0.509,0.102
				c-4.28,0.815-6.623,1.8-7.031,2.955v1.019v2.751v7.947c0.408-1.223,2.751-2.276,7.031-3.159c1.766-0.339,3.667-0.577,5.705-0.712
				c2.038-0.204,4.246-0.34,6.623-0.408c1.427-0.067,2.921-0.102,4.484-0.102c0.476,0,0.985,0,1.528,0
				c5.91,0.135,11.038,0.543,15.385,1.222c4.145,0.883,6.42,1.936,6.827,3.159V61.973z"/>
			
				<radialGradient id="SVGID_5_" cx="-210.2012" cy="418.3457" r="47.2887" gradientTransform="matrix(-1 0 0 -2.1208 109.2402 1082.0508)" gradientUnits="userSpaceOnUse">
				<stop  offset="0" style="stop-color:#A6A6A6"/>
				<stop  offset="1" style="stop-color:#3F3F3F"/>
			</radialGradient>
			<path fill="url(#SVGID_5_)" d="M297.738,152.554c-5.977,11.684-8.966,25.779-8.966,42.285c0,16.575,2.989,30.67,8.966,42.285
				c2.242,4.281,4.654,7.812,7.235,10.598c4.348,4.619,9.204,6.93,14.57,6.93c0.408,0,0.781,0,1.121,0h0.307
				c7.947-0.681,14.739-6.521,20.378-17.527c5.977-11.615,8.966-25.709,8.966-42.285c0-16.506-2.989-30.602-8.966-42.285
				c-5.503-10.596-12.058-16.37-19.666-17.322h-0.102c-0.68-0.135-1.358-0.203-2.038-0.203
				C311.053,135.03,303.784,140.871,297.738,152.554z"/>
			<path fill="#15204D" d="M730.269,187.707l-98.019-8.457l-0.408,103.421v0.51l7.132-2.038l20.582-6.217l11.82-3.77
				c0.068,0.068,0.136,0.136,0.203,0.203l20.581-6.113l11.616-3.463l20.379-6.113l6.113-1.835v-34.032l-85.487,5.401v-24.557
				l85.487,4.381V187.707 M631.332,165.189l-5.807-0.408v45.648l-1.326,7.132v0.917l-0.509,13.349l-17.729,0.813
				c1.224,1.359,2.344,2.989,3.363,4.892c0.543,0.884,0.984,1.799,1.323,2.75c3.191,6.727,4.79,14.673,4.79,23.844
				c0,6.251-0.715,11.954-2.14,17.118v1.222l17.524,0.205h1.02l0.408-103.421L631.332,165.189 M632.657,165.189h-1.325l0.918,14.061
				l98.019,8.457v-10.291L632.657,165.189z"/>
			<path fill="#999999" d="M595.568,166.718l0.51,20.073l21.396,1.834l0.814-20.073L595.568,166.718z"/>
			<path fill="#282828" d="M536.775,156.019l-2.342,6.928l22.008,3.362c0.271,0.748,0.543,1.495,0.816,2.242
				c3.94,10.189,5.773,20.583,5.5,31.18c-0.203,6.181-1.154,12.43-2.852,18.748v0.713l5.399-0.102v-19.359h13.349l0.916,19.053
				l44.629-1.222l1.326-7.132h-40.146l-1.834-54.411H536.775 M530.051,144.505l-1.528,17.627l5.911,0.815l2.342-6.928h46.77
				l19.97,3.261l-0.712-13.042v-0.816C578.483,139.988,554.232,139.683,530.051,144.505z"/>
		</g>
	</g>
	<g>
		
			<path id="Layer0_0_1_STROKES" fill="none" stroke="#000000" stroke-width="1.5" stroke-linecap="round" stroke-linejoin="round" d="
			M602.803,145.422c-24.319-5.434-48.57-5.739-72.752-0.917l-1.528,17.627 M534.434,162.947l2.342-6.928h46.77l19.97,3.261
			l-0.712-13.042 M595.568,166.718l0.51,20.073l21.396,1.834l0.814-20.073L595.568,166.718z M631.332,165.189h1.325l-1.325-0.204
			V165.189l-5.807-0.408v45.648l-1.326,7.132 M624.199,218.479l-0.509,13.349l-17.729,0.813c1.224,1.359,2.344,2.989,3.363,4.892
			c0.543,0.884,0.984,1.799,1.323,2.75c3.191,6.727,4.79,14.673,4.79,23.844c0,6.251-0.715,11.954-2.14,17.118 M613.298,282.466
			l17.524,0.205 M631.842,282.671l0.408-103.421l-0.918-14.061 M625.525,164.781v-2.038l-22.011-3.464 M730.269,253.835
			l-6.113,1.835c-0.203,0.474-0.408,0.951-0.611,1.425l6.725-2.14 M730.269,264.024L236.706,423.893h-57.467l125.836-38.516
			c-31.926,4.213-54.24,5.979-66.943,5.3c-16.506-1.497-27.646-4.79-33.42-9.885l-33.93,8.967 M170.781,377.634l37.599-9.68
			l73.769-105.765l2.649,1.733l20.174-16.201 M632.657,165.189l97.611,12.227 M730.269,187.707l-98.019-8.457 M443.138,237.226
			h2.038 M470.241,293.775c0-1.289,0-2.511,0-3.667c0-12.09,2.446-22.416,7.336-30.976c0.746-1.425,1.528-2.75,2.344-3.973
			c0.408-0.612,0.851-1.189,1.324-1.733 M479.921,252.408l-19.359,2.345c1.087,14.265-0.069,27.918-3.465,40.959l13.145-1.937
			c0.068,0.816,0.136,1.7,0.203,2.651c0.138,1.222,0.272,2.412,0.408,3.566c0.271,1.97,0.577,3.904,0.917,5.807
			c0.203,0.884,0.44,1.731,0.713,2.548c0.069,0.338,0.169,0.645,0.307,0.917c0.746,2.784,1.663,5.435,2.75,7.946
			c0.408,0.816,0.782,1.632,1.12,2.445c0.273,0.544,0.577,1.053,0.918,1.529c2.107,3.939,4.449,6.963,7.03,9.068
			c2.989,2.514,6.317,3.77,9.986,3.77c6.588,0,12.228-3.973,16.914-11.921c0.135-0.338,0.272-0.645,0.408-0.917
			c1.832-3.33,3.293-6.896,4.38-10.699 M508.961,308.348c-0.611,1.834-1.326,3.565-2.14,5.195c-3.329,6.59-7.338,9.885-12.024,9.885
			c-4.619,0-8.559-3.329-11.818-9.986c-1.02-1.97-1.835-4.041-2.446-6.215c-0.951-2.854-1.63-5.91-2.038-9.17
			c-0.338-2.717-0.509-5.57-0.509-8.56c0.067-9.373,1.799-17.321,5.195-23.843c3.262-6.657,7.234-9.952,11.923-9.883
			c3.463,0,6.556,1.868,9.271,5.604 M510.59,256.993c-4.483-7.2-9.814-10.8-15.996-10.8c-4.959,0-9.409,2.412-13.349,7.233
			 M495.816,266.774c-2.989-0.067-5.537,2.142-7.643,6.623c-2.173,4.416-3.26,9.783-3.26,16.1c0,2.376,0.17,4.619,0.51,6.725
			c0.406,3.329,1.256,6.351,2.547,9.068c0,0.068,0.032,0.172,0.102,0.307c2.105,4.414,4.619,6.655,7.541,6.725
			c2.921,0,5.469-2.243,7.642-6.725c0.746-1.563,1.357-3.192,1.833-4.892c0.815-2.989,1.256-6.284,1.325-9.883
			c0-0.478,0-0.917,0-1.325c0.067-6.249-0.951-11.582-3.057-15.996C501.249,269.018,498.737,266.774,495.816,266.774z
			 M345.627,267.692l-22.925,2.547l23.232-0.408l11.92,40.86l99.243-14.979 M373.647,364.286l2.955,9.984
			c-27.647,4.688-51.489,8.39-71.528,11.106 M367.942,344.825l5.706,19.461l68.37-20.888c-0.68-0.746-1.291-1.563-1.834-2.446
			c-2.718-4.075-4.145-8.999-4.28-14.774L367.942,344.825l-3.77-12.84l-6.318-21.294 M459.645,308.755
			c-1.563-2.107-3.26-3.6-5.095-4.483c-1.357-0.681-2.786-1.019-4.28-1.019c-3.192,0-6.011,1.427-8.457,4.278
			c-0.543,0.613-1.087,1.325-1.63,2.142c-0.884,1.356-1.631,2.784-2.242,4.278c-0.612,1.563-1.086,3.228-1.427,4.993
			c-0.407,1.968-0.611,4.075-0.611,6.316c0,0.341,0,0.646,0,0.917 M464.026,319.758c-0.408-2.716-1.154-5.229-2.242-7.538
			c-0.476-0.884-0.985-1.733-1.528-2.547c-0.136-0.272-0.341-0.577-0.611-0.918l12.125-2.955 M456.791,314.97
			c-0.271-0.407-0.542-0.815-0.814-1.222c-1.563-2.105-3.363-3.16-5.401-3.16c-2.445,0-4.483,1.427-6.114,4.281
			c-0.407,0.746-0.781,1.494-1.12,2.24c-1.019,2.446-1.528,5.196-1.528,8.253c0,4.144,0.815,7.642,2.446,10.496
			c1.697,2.921,3.769,4.382,6.215,4.382s4.517-1.427,6.215-4.281c1.697-2.919,2.547-6.418,2.547-10.493
			C459.306,321.391,458.49,317.892,456.791,314.97z M464.026,319.758c0.339,1.768,0.51,3.603,0.51,5.503
			c0,4.416-0.715,8.356-2.142,11.819l22.213-6.826 M462.395,337.08c-0.61,1.359-1.323,2.65-2.139,3.872
			c-2.784,4.347-6.114,6.521-9.986,6.521c-3.125,0-5.875-1.358-8.252-4.075 M475.539,317.211l-11.513,2.547 M460.562,254.753
			l-114.935,12.939 M437.941,313.951l-73.77,18.034 M307.927,270.749l-20.276-4.279l-85.895,110.857
			c0.747,1.224,1.731,2.378,2.954,3.465 M287.651,266.47l-2.853-2.547 M322.702,270.239l-14.774,0.51l-69.796,119.928
			 M201.757,377.327l6.623-9.373 M672.699,272.686c2.176,1.97,4.586,2.955,7.234,2.955c3.94,0,7.304-2.176,10.088-6.521
			c0.476-0.681,0.917-1.394,1.325-2.14c0.067-0.205,0.136-0.374,0.203-0.51c0.205-0.407,0.408-0.815,0.61-1.224l-20.581,6.113
			c0.271,0.272,0.51,0.577,0.713,0.918C672.427,272.414,672.564,272.55,672.699,272.686l-13.958,4.278
			c-0.408,0.681-0.815,1.359-1.224,2.038c-2.852,4.28-6.215,6.42-10.086,6.42c-2.65,0-4.993-0.951-7.031-2.854l-31.791,9.783
			c-0.271,0.339-0.541,0.713-0.814,1.121c-3.734,5.638-8.083,8.455-13.043,8.455c-2.919,0-5.638-0.951-8.15-2.852l-24.454,7.438
			c-0.272,0.407-0.544,0.815-0.814,1.224c-4.144,6.249-9.068,9.373-14.774,9.373c-3.262,0-6.248-1.019-8.967-3.057l-26.084,8.05
			 M671.579,271.359c-0.067-0.067-0.135-0.135-0.203-0.203l-11.82,3.77L671.579,271.359z M659.556,274.926
			c-0.271,0.681-0.542,1.359-0.814,2.038 M723.544,257.095c-0.408,0.748-0.884,1.497-1.427,2.243
			c-2.784,4.348-6.147,6.521-10.088,6.521c-2.648,0-5.059-1.02-7.233-3.057l-13.449,4.177 M704.796,262.803
			c-0.341-0.341-0.679-0.681-1.02-1.02l-11.616,3.463 M724.155,255.67l-20.379,6.113 M730.269,219.803l-85.487,5.401v-24.557
			l85.487,4.381 M579.57,218.784l-0.916-19.053h-13.349v19.359 M565.306,232.336v2.14v4.585l14.368-0.61
			c0.135-0.341,0.305-0.647,0.51-0.918c0.067-0.203,0.102-0.374,0.102-0.51l-0.102-3.158l-0.613-15.081l44.629-1.222
			 M582.525,233.764l-2.342,0.101 M580.285,237.022h0.101c0.476-0.748,0.918-1.427,1.326-2.037c0.271-0.408,0.541-0.816,0.813-1.222
			c0.341-0.546,0.679-1.02,1.02-1.428c3.329-3.94,7.064-5.91,11.207-5.91c3.804,0,7.234,1.666,10.291,4.993
			c0.341,0.408,0.645,0.815,0.918,1.222 M603.108,290.21c-2.242,3.329-4.79,4.993-7.642,4.993c-3.873,0-7.168-2.956-9.885-8.864
			c-0.949-2.038-1.697-4.213-2.24-6.521c-0.747-2.648-1.256-5.503-1.529-8.56c-0.204-2.173-0.306-4.416-0.306-6.725
			c0-8.489,1.359-15.759,4.075-21.805c0.679-1.494,1.359-2.784,2.038-3.871c2.311-3.396,4.926-5.094,7.847-5.094
			c3.803,0,7.064,2.988,9.781,8.965c2.717,6.046,4.076,13.315,4.076,21.805c0,8.49-1.359,15.76-4.076,21.806
			C604.569,287.834,603.855,289.123,603.108,290.21z M601.375,248.74c-1.629-4.075-3.6-6.113-5.908-6.113
			c-2.242-0.067-4.179,1.97-5.809,6.113s-2.478,9.171-2.548,15.081c0,2.105,0.102,4.107,0.307,6.01
			c0.341,3.057,0.949,5.877,1.833,8.458c0.067,0.136,0.135,0.307,0.205,0.51c1.63,4.075,3.6,6.147,5.908,6.215
			c2.243,0,4.211-2.072,5.91-6.215c1.631-4.144,2.446-9.137,2.446-14.978C603.72,257.911,602.938,252.884,601.375,248.74z
			 M579.674,238.45c-1.427,2.784-2.583,5.739-3.465,8.863c-0.138,0.543-0.272,1.019-0.408,1.427
			c-0.476,2.105-0.848,4.347-1.12,6.725c-0.069,0.408-0.138,0.884-0.205,1.427c-0.271,2.241-0.406,4.653-0.406,7.234
			c0,3.126,0.203,6.113,0.611,8.967c0,0.408,0.034,0.814,0.102,1.222c0.067,0.408,0.136,0.816,0.203,1.225
			c0.34,2.105,0.815,4.143,1.427,6.113c0.272,1.222,0.646,2.443,1.12,3.668c0.136,0.34,0.307,0.712,0.51,1.12
			c0.612,1.563,1.325,3.057,2.142,4.483c1.97,3.532,4.107,6.249,6.418,8.151 M613.298,282.466h-0.408
			c0.136-0.476,0.273-0.881,0.408-1.222 M612.89,282.466c-0.883,2.989-2.071,5.81-3.565,8.458c-0.273,0.476-0.51,0.949-0.715,1.427
			 M638.974,281.143l-7.132,2.038v-0.51 M640.4,282.567c-0.543-0.405-1.019-0.883-1.427-1.425l20.582-6.217 M583.545,156.019
			l1.834,54.411h40.146 M543.398,235.393h3.057l18.851-0.917 M561.026,246.295c-4.143-6.044-8.967-9.069-14.468-9.069
			c-6.318,0-11.686,3.907-16.1,11.718c-1.154,1.971-2.139,4.144-2.955,6.521c-0.203,0.341-0.34,0.715-0.408,1.12
			c-0.884,2.379-1.63,4.993-2.24,7.848c-0.068,0.407-0.102,0.85-0.102,1.323c-0.611,3.602-0.918,7.405-0.918,11.413
			c0,3.124,0.172,6.113,0.51,8.965c0.067,1.154,0.203,2.276,0.408,3.363c0.135,0.476,0.236,0.918,0.305,1.325
			c0.272,1.425,0.612,2.853,1.019,4.279c0.681,2.309,1.496,4.518,2.445,6.623c0.205,0.407,0.374,0.779,0.51,1.12
			c0.543,0.884,1.019,1.765,1.427,2.648c2.174,3.737,4.552,6.592,7.133,8.56 M511.1,257.911c0.339,0.338,0.611,0.748,0.816,1.222
			c0.135,0.205,0.271,0.408,0.405,0.612c1.02,1.971,1.971,4.076,2.854,6.317l9.68-1.63 M510.59,256.993
			c0.203,0.272,0.375,0.579,0.51,0.918 M515.176,266.063c0.271,0.748,0.543,1.528,0.815,2.344c1.29,4.211,2.173,8.796,2.649,13.756
			c0.202,1.697,0.34,3.498,0.407,5.398c0,0.816,0,1.666,0,2.548c0,0.34,0,0.679,0,1.019l5.706-1.63 M527.504,255.465l-15.183,1.63
			 M508.961,308.348c1.019-2.922,1.801-6.013,2.342-9.272c0.408-2.989,0.613-6.147,0.613-9.477c0-0.067,0-0.136,0-0.203
			c0-2.242-0.136-4.416-0.408-6.521c-0.543-6.589-2.038-12.328-4.483-17.22c-0.816-1.63-1.7-3.057-2.649-4.279 M517.621,305.088
			c0.611-2.651,1.02-5.334,1.222-8.051c0.07-1.088,0.102-2.139,0.102-3.158c0.068-0.883,0.104-1.801,0.104-2.752 M555.116,303.253
			c0.815-1.154,1.564-2.514,2.243-4.076c1.832-3.94,3.09-8.422,3.769-13.449c0.341-2.786,0.51-5.739,0.51-8.865
			c0-0.136,0-0.272,0-0.408c0-6.181-0.746-11.682-2.241-16.506c-0.543-1.97-1.224-3.769-2.037-5.4
			c-0.679-1.561-1.428-2.886-2.243-3.973c-2.241-3.534-4.855-5.3-7.845-5.3c-3.94,0-7.304,3.091-10.088,9.272
			c-2.784,6.181-4.177,13.62-4.177,22.314c0,2.445,0.102,4.754,0.306,6.93c0.339,3.191,0.884,6.181,1.63,8.965
			c0.544,2.243,1.292,4.382,2.241,6.42c2.784,6.182,6.147,9.271,10.088,9.271C550.261,308.448,552.875,306.717,555.116,303.253z
			 M566.631,258.113c0.135,0.341,0.271,0.715,0.408,1.123c1.291,4.687,2.037,9.781,2.24,15.283c0,0.884,0,1.766,0,2.649l5.706-1.63
			 M563.574,250.575c0.135,0.339,0.338,0.713,0.61,1.12c0.952,1.969,1.766,4.11,2.446,6.418l7.845-1.222 M563.574,250.575
			c-0.271-0.613-0.543-1.154-0.816-1.632c-0.541-0.951-1.12-1.833-1.731-2.648 M547.578,255.057
			c-2.379-0.067-4.45,2.038-6.217,6.318c-1.698,4.144-2.548,9.238-2.548,15.284c0,1.968,0.104,3.871,0.307,5.706
			c0.338,3.191,0.985,6.113,1.937,8.762c0.067,0.272,0.169,0.543,0.305,0.816c1.631,4.211,3.634,6.316,6.012,6.316
			s4.449-2.105,6.215-6.316c0.613-1.428,1.087-2.956,1.427-4.586c0.679-2.854,1.053-6.012,1.12-9.477c0-0.407,0-0.813,0-1.222
			c0.068-5.979-0.746-11.072-2.443-15.284C551.992,257.162,549.954,255.057,547.578,255.057z M569.279,277.169
			c0,0.407,0,0.85,0,1.323c0,1.699-0.067,3.396-0.203,5.095c-0.205,2.038-0.476,4.008-0.815,5.91l9.781-3.057 M568.261,289.497
			c-0.067,0.476-0.169,0.951-0.305,1.427c-1.087,5.367-2.819,10.224-5.198,14.569c-0.203,0.341-0.406,0.681-0.61,1.02
			 M528.522,301.725l-10.901,3.363c-0.137,0.951-0.34,1.902-0.611,2.852c-0.204,0.884-0.441,1.733-0.714,2.547 M575.801,248.74
			l-12.227,1.835"/>
	</g>
	<g>
		<path id="Layer0_0_2_STROKES" fill="none" stroke="#111111" stroke-linecap="round" stroke-linejoin="round" d="M454.142,194.433
			l95.37,4.381c0.749,0,1.394-0.204,1.937-0.611c0.544-0.543,0.85-1.155,0.918-1.835c0-0.746-0.239-1.392-0.713-1.935
			c-0.478-0.543-1.122-0.849-1.937-0.917l-95.982-4.891h-10.188c-0.543,0-1.122,0.204-1.732,0.611
			c-0.476,0.34-0.781,0.816-0.917,1.427l-1.731,7.541c-0.136,0.746-0.035,1.459,0.306,2.139c0.407,0.543,0.951,0.917,1.63,1.121
			c0.747,0.204,1.427,0.103,2.038-0.306c0.612-0.407,1.019-0.95,1.223-1.63l1.223-5.502L454.142,194.433z M449.761,170.284
			l-84.774-6.012l-1.12,2.242c-0.204,0.68-0.68,1.155-1.427,1.427c-0.679,0.339-1.358,0.339-2.038,0
			c-0.679-0.271-1.154-0.781-1.426-1.528s-0.271-1.461,0-2.14l1.732-3.973c0.271-0.476,0.645-0.849,1.12-1.122
			c0.543-0.339,1.087-0.476,1.63-0.407l83.959,6.011 M424.288,249.861l-0.407-20.277l-31.689-0.406
			c-0.476,0-0.917-0.104-1.324-0.307c-0.408-0.338-0.748-0.712-1.019-1.12c-0.204-0.408-0.306-0.85-0.306-1.325l1.63-31.993h-2.038
			c-0.679,0-1.325-0.272-1.936-0.815c-0.476-0.543-0.713-1.155-0.713-1.834c0-0.747,0.238-1.392,0.713-1.936
			c0.611-0.543,1.257-0.815,1.936-0.815h4.993c0.407,0,0.849,0.169,1.325,0.51c0.408,0.203,0.713,0.509,0.917,0.916
			c0.271,0.408,0.407,0.884,0.407,1.427l-1.732,32.096l31.586,0.306c0.68,0,1.291,0.271,1.835,0.815
			c0.543,0.543,0.815,1.155,0.815,1.834l0.306,21.805 M447.417,164.781l10.597,0.612c0.543,0.068,1.053,0.306,1.528,0.713
			c0.408,0.339,0.679,0.815,0.813,1.426c0.136,0.612,0.068,1.189-0.202,1.732l-2.14,4.484c-0.341,0.611-0.85,1.086-1.528,1.426
			c-0.679,0.204-1.359,0.136-2.038-0.204c-0.679-0.339-1.156-0.849-1.427-1.528c-0.271-0.678-0.203-1.358,0.203-2.038l0.408-0.917
			l-3.872-0.204"/>
	</g>
	<g>
		
			<path id="Layer0_0_3_STROKES" fill="none" stroke="#111111" stroke-width="1.5" stroke-linecap="round" stroke-linejoin="round" d="
			M367.942,56.878c4.483-0.883,9.917-1.324,16.303-1.324c6.589,0,12.227,0.476,16.914,1.426c4.145,0.815,6.42,1.8,6.827,2.955
			 M407.985,60.954v1.019 M534.434,162.947l-5.911-0.815 M454.142,194.433c0.07,0.95,0.102,1.901,0.102,2.853
			c0,6.725-0.645,13.008-1.935,18.85l107.598,2.343c1.697-6.317,2.648-12.566,2.852-18.748c0.273-10.597-1.56-20.99-5.5-31.18
			c-0.273-0.747-0.546-1.494-0.816-2.242l-22.008-3.362 M304.973,247.722c-2.581-2.786-4.993-6.316-7.235-10.598
			c-5.977-11.615-8.966-25.709-8.966-42.285c0-16.506,2.989-30.602,8.966-42.285c6.046-11.684,13.315-17.524,21.805-17.524
			c0.68,0,1.358,0.067,2.038,0.203h0.102l41.878,3.873l1.936-65.109l-5.095-2.343v-7.947 M407.985,61.973v9.68l-5.502,3.566
			l-1.121,67.453l22.314,2.038c3.396,0.135,6.555,1.053,9.476,2.75l95.37,14.673 M360.401,63.706v-2.751 M360.401,59.935
			c0.408-1.155,2.751-2.14,7.031-2.955c0.136,0,0.305-0.034,0.509-0.102 M407.985,71.653c-0.407-1.223-2.683-2.276-6.827-3.159
			c-4.348-0.679-9.476-1.087-15.385-1.222c-0.543,0-1.053,0-1.528,0c-1.563,0-3.057,0.034-4.484,0.102
			c-2.377,0.068-4.585,0.204-6.623,0.408c-2.038,0.135-3.939,0.373-5.705,0.712c-4.28,0.883-6.623,1.936-7.031,3.159
			 M365.496,73.996c7.201-1.63,13.892-2.377,20.073-2.242c6.181,0.204,11.82,1.358,16.915,3.464 M447.417,164.781
			c-0.68-1.562-1.495-3.091-2.446-4.585c-3.464-5.91-7.404-10.155-11.819-12.737 M321.683,135.232
			c7.608,0.952,14.163,6.726,19.666,17.322c5.977,11.684,8.966,25.779,8.966,42.285c0,16.575-2.989,30.67-8.966,42.285
			c-5.639,11.006-12.431,16.847-20.378,17.527l99.956-4.892c0.611,0.067,1.256,0.102,1.936,0.102c0.475,0,0.95,0,1.426,0
			 M429.586,248.74c5.094-1.767,9.612-5.604,13.551-11.515c0.68-0.883,1.291-1.799,1.834-2.75c0.883-1.357,1.665-2.75,2.344-4.177
			c0.204-0.408,0.408-0.816,0.611-1.225 M452.309,216.135c-0.95,4.189-2.24,8.129-3.872,11.819 M401.362,142.671l-37.802-3.566
			 M449.761,170.284c2.106,5.57,3.432,11.684,3.974,18.341 M320.97,254.651h-0.307c-0.339,0-0.712,0-1.121,0
			c-5.366,0-10.223-2.311-14.57-6.93 M565.306,232.336V219.09 M552.773,219.293l7.133-0.102l5.399-0.102 M565.306,232.336
			l-18.952,0.814l-101.178,4.075 M447.316,230.299l113.1-2.854"/>
	</g>
</g>
</svg>
