<svg xmlns="http://www.w3.org/2000/svg" width="900" height="450" viewBox="0 0 900 450"><g><path fill="#DCDCDC" d="M458.423 32.832c1.019 1.155 2.716 2.412 5.095 3.77 4.959 2.717 10.662 4.109 17.116 4.178-.272-1.699-.408-2.582-.408-2.65 0-2.105 8.255-3.872 24.761-5.298-21.207-7.96-36.729-7.96-46.564 0m97.61 29.141a9.292 9.292 0 0 0-1.222.509c-1.97.815-3.498 1.223-4.585 1.223-2.581 0-4.45-1.053-5.604-3.159-.341-.611-.58-1.189-.715-1.732-1.697-.543-2.852-.815-3.463-.815-2.65 0-4.518.883-5.604 2.649-.205.203-.341.476-.408.815 1.427.679 3.226 1.629 5.398 2.853 3.057 1.223 6.795 1.834 11.209 1.834 4.415 0 7.847-.543 10.292-1.63-.681-.272-1.154-.612-1.427-1.019-.205-1.087-.543-1.902-1.019-2.446-.948.409-1.901.714-2.852.918z"/><path fill="#C9C9C9" d="M634.186 32.73c-2.921.22-4.553.254-4.892.102-19.771-5.607-32.813-5.607-39.127 0-.476.34-.984.747-1.528 1.223-3.396 2.718-8.05 4.178-13.958 4.381l1.427-1.426c.476-.467 2.072-1.69 4.788-3.669 2.778-1.922-.923-3.791-11.106-5.604-18.034-2.154-39.637-.456-64.803 5.095-16.506 1.427-24.761 3.193-24.761 5.298 0 .068.136.951.408 2.65-6.454-.069-12.157-1.461-17.116-4.178-2.379-1.358-4.076-2.615-5.095-3.77-31.452-8.442-62.902-8.442-94.353 0-5.366 1.97-8.525 4.551-9.476 7.744 1.154.883 2.377 2.207 3.668 3.973.204.204.408.442.611.713a61.611 61.611 0 0 1 4.076 6.216c.951.067 1.97.102 3.057.102v.509c0 2.242.646 3.838 1.937 4.789 4.483-.883 9.917-1.324 16.303-1.324 6.589 0 12.227.476 16.914 1.426 4.145.815 6.42 1.8 6.827 2.955v2.038c1.427.135 3.057.271 4.89.407 4.755.34 9.001.51 12.737.51 3.193 0 5.401-.476 6.623-1.426 1.223-1.019 6.997-1.529 17.321-1.529.951 0 2.004.781 3.158 2.343 1.154 1.495 2.82 2.242 4.993 2.242.746 0 2.107-.815 4.076-2.446 1.97-1.563 3.667-2.343 5.094-2.343 1.359 0 2.108.204 2.243.611 0 .204.441 1.528 1.323 3.974 1.835 2.377 5.095 3.566 9.781 3.566 1.02 0 2.311-.238 3.873-.714 1.562-.407 2.648-.849 3.26-1.324l.104-.102v.203c.135 1.97.509 3.499 1.12 4.585 1.427 2.65 4.042 3.974 7.845 3.974 3.262 0 6.792-.951 10.598-2.853 3.872-1.834 6.316-2.751 7.335-2.751 1.427 0 3.229.748 5.401 2.242.135.204.307.373.509.509 2.377 1.901 4.314 2.853 5.808 2.853 2.583 0 4.416-.849 5.503-2.547.678-1.019 1.188-2.921 1.528-5.705.34-2.174.781-3.771 1.325-4.789.067-.339.203-.612.408-.815 1.086-1.766 2.953-2.649 5.604-2.649.611 0 1.766.271 3.463.815.135.543.374 1.121.715 1.732 1.153 2.106 3.022 3.159 5.604 3.159 1.087 0 2.615-.408 4.585-1.223a9.18 9.18 0 0 1 1.222-.509 15.455 15.455 0 0 0 2.854-.917c.476.543.813 1.358 1.019 2.446.272.407.746.747 1.427 1.019 1.425.543 3.702.815 6.826.815 2.241 0 6.759-1.223 13.553-3.668A820.232 820.232 0 0 0 591.698 58c8.83 3.804 13.483 5.707 13.961 5.707 7.743 0 13.856-.985 18.34-2.956 5.298-2.242 7.947-5.808 7.947-10.698 0-2.174-.373-3.872-1.121-5.095 11.742 4.104 26.651 3.594 44.731-1.528-17.517-1.651-28.046-3.893-31.587-6.725-3.542-2.822-6.802-4.146-9.783-3.975M495.307 53.108c.338-.204.712-.442 1.12-.713.138.271.272.646.408 1.121a45.007 45.007 0 0 1-1.528-.408z"/><path fill="#CCC" d="M496.427 52.395c-.408.271-.782.509-1.12.713.476.136.985.271 1.528.408-.136-.475-.271-.849-.408-1.121M360.401 63.706V59.936c.408-1.155 2.751-2.14 7.031-2.955.136 0 .305-.034.509-.102-1.291-.951-1.937-2.547-1.937-4.789v-.509c-1.086 0-2.105-.034-3.057-.102a61.498 61.498 0 0 0-4.076-6.216 6.623 6.623 0 0 0-.611-.713c-.951 2.446-1.427 5.57-1.427 9.375 0 3.872.781 6.725 2.345 8.559.341.406.749.813 1.223 1.222m127.061 2.24v-.203l-.104.102c.068 0 .1.033.104.101m24.046 6.114c3.057 0 5.807-.305 8.253-.916-2.173-1.495-3.975-2.242-5.401-2.242-1.019 0-3.463.917-7.335 2.751 1.561.271 3.056.407 4.483.407z"/><path fill="#333" d="M452.205 227.751c.952.341 1.802.645 2.548.918a45.56 45.56 0 0 1-6.011.405h-.815l-.611 1.225 113.1-2.854-113.1 2.854a36.316 36.316 0 0 1-2.344 4.177l.204 2.75 101.178-4.075 18.952-.814V219.09l-5.399.102-7.133.102 7.133-.102v-.713l-107.598-2.343c-.95 4.189-2.24 8.129-3.872 11.819a58.695 58.695 0 0 0 3.768-.204m66.739 66.128c0 1.02-.031 2.07-.102 3.158a53.326 53.326 0 0 1-1.222 8.051l10.901-3.363a51.491 51.491 0 0 1-2.445-6.623 50.05 50.05 0 0 1-1.019-4.279 12.3 12.3 0 0 0-.305-1.325l-5.706 1.63c.002.95-.033 1.868-.102 2.751m8.152-37.294c.068-.405.205-.779.408-1.12l-15.183 1.63-1.222.816c.339.338.611.748.816 1.222l.405.612a67.878 67.878 0 0 1 2.854 6.317l9.68-1.63c.612-2.854 1.358-5.468 2.242-7.847m49.316 25.067a44.674 44.674 0 0 1-1.427-6.113l-5.706 1.63v1.323c0 1.699-.067 3.396-.203 5.095a78.414 78.414 0 0 1-.815 5.91l9.781-3.057c-.203-.408-.374-.78-.51-1.12a25.742 25.742 0 0 1-1.12-3.668m-1.936-24.76c.067-.543.136-1.019.205-1.427a63.26 63.26 0 0 1 1.12-6.725l-12.227 1.835c.135.339.338.713.61 1.12.952 1.969 1.766 4.11 2.446 6.418l7.846-1.221m5.094-38.108l-.916-19.053h-13.349V239.061l14.368-.61c.135-.341.305-.647.51-.918.067-.203.102-.374.102-.51l-.102-3.158-.613-15.081m-107.088 89.564a27.539 27.539 0 0 1-.713-2.548l-12.125 2.955c.271.341.476.646.611.918a31.024 31.024 0 0 1 1.528 2.547c1.088 2.309 1.834 4.822 2.242 7.538l11.513-2.547a57.38 57.38 0 0 1-2.75-7.946 3.715 3.715 0 0 1-.306-.917m-108.31 23.637l3.77 12.84 67.962-18.647v-.917c0-2.241.204-4.349.611-6.316.34-1.766.815-3.431 1.427-4.993l-73.77 18.033m92.925-36.273c3.396-13.041 4.552-26.694 3.465-40.959l-114.935 12.939.307 2.139 11.92 40.86 99.243-14.979m20.48-36.579a43.542 43.542 0 0 1 2.344-3.973c.408-.612.851-1.189 1.324-1.733l-1.324-1.019-19.359 2.345c1.087 14.265-.069 27.918-3.465 40.959l13.145-1.937v-3.667c-.001-12.089 2.446-22.416 7.335-30.975M360.401 71.653l5.095 2.343c7.201-1.63 13.892-2.377 20.073-2.242 6.181.204 11.82 1.358 16.915 3.464l5.502-3.566c-.407-1.223-2.683-2.276-6.827-3.159-4.348-.679-9.476-1.087-15.385-1.222h-1.528a94.31 94.31 0 0 0-4.484.102 93.629 93.629 0 0 0-6.623.408 46.66 46.66 0 0 0-5.705.712c-4.281.884-6.624 1.937-7.033 3.16m243.114 87.627l-19.97-3.261 1.834 54.411h40.146v-47.686l-22.01-3.464m-7.437 27.511l-.51-20.073 22.721 1.833-.814 20.073-21.397-1.833z"/><path fill="#FFF" fill-opacity=".463" d="M454.753 228.669c-.746-.273-1.596-.577-2.548-.918a57.977 57.977 0 0 1-3.769.203h-1.019a5.68 5.68 0 0 1-1.223.917v.102c.559.046 1.137.082 1.732.102h.815a45.91 45.91 0 0 0 6.012-.406z"/><linearGradient id="a" gradientUnits="userSpaceOnUse" x1="358.566" y1="117.989" x2="358.566" y2="251.216" gradientTransform="matrix(1 0 0 -1 29.04 379.34)"><stop offset="0" stop-color="#5e5e5e"/><stop offset=".792" stop-color="#c4c4c4"/><stop offset="1" stop-color="#858585"/></linearGradient><path fill="url(#a)" d="M361.828 159.177c.543-.339 1.087-.476 1.63-.407l83.959 6.011a33.25 33.25 0 0 0-2.446-4.585c-3.464-5.91-7.404-10.155-11.819-12.737a20.182 20.182 0 0 0-9.476-2.75l-22.314-2.038-37.802-3.566-41.878-3.873c7.608.952 14.163 6.726 19.666 17.322 5.977 11.684 8.966 25.779 8.966 42.285 0 16.575-2.989 30.67-8.966 42.285-5.639 11.006-12.431 16.847-20.378 17.527l99.956-4.892c.611.067 1.256.102 1.936.102h1.426l-.407-20.277-31.689-.406c-.476 0-.917-.104-1.324-.307a5.174 5.174 0 0 1-1.019-1.12 2.922 2.922 0 0 1-.306-1.325l1.63-31.993h-2.038c-.679 0-1.325-.272-1.936-.815-.476-.543-.713-1.155-.713-1.834 0-.747.238-1.392.713-1.936.611-.543 1.257-.815 1.936-.815h4.993c.407 0 .849.169 1.325.51.408.203.713.509.917.916.271.408.407.884.407 1.427l-1.732 32.096 31.586.306c.68 0 1.291.271 1.835.815.543.543.815 1.155.815 1.834l.306 21.805c5.094-1.767 9.612-5.604 13.551-11.515a24.035 24.035 0 0 0 1.834-2.75 36.083 36.083 0 0 0 2.344-4.177l.611-1.225a35.592 35.592 0 0 1-1.732-.102v-.102a5.656 5.656 0 0 0 1.223-.917h1.019c1.632-3.689 2.922-7.63 3.872-11.819 1.29-5.842 1.935-12.125 1.935-18.85a38.3 38.3 0 0 0-.102-2.853l-8.558-.408-1.223 5.502a2.915 2.915 0 0 1-1.223 1.63c-.611.408-1.291.51-2.038.306a3.08 3.08 0 0 1-1.63-1.121 3.329 3.329 0 0 1-.306-2.139l1.731-7.541c.136-.611.442-1.086.917-1.427.611-.407 1.189-.611 1.732-.611h10.188c-.542-6.657-1.867-12.771-3.974-18.341l-84.774-6.012-1.12 2.242c-.204.68-.68 1.155-1.427 1.427-.679.339-1.358.339-2.038 0-.679-.271-1.154-.781-1.426-1.528s-.271-1.461 0-2.14l1.732-3.973a2.999 2.999 0 0 1 1.123-1.121z"/><linearGradient id="b" gradientUnits="userSpaceOnUse" x1="465.658" y1="164.048" x2="470.804" y2="229.108" gradientTransform="matrix(1 0 0 -1 29.04 379.34)"><stop offset="0" stop-color="#3c3c3c"/><stop offset=".663" stop-color="#aaa"/><stop offset=".788" stop-color="#a6a6a6"/><stop offset="1" stop-color="#585858"/></linearGradient><path fill="url(#b)" d="M534.434 162.947l-5.911-.815-95.37-14.673c4.415 2.582 8.355 6.827 11.819 12.737a33.25 33.25 0 0 1 2.446 4.585l10.597.612c.543.068 1.053.306 1.528.713.408.339.679.815.813 1.426a2.541 2.541 0 0 1-.202 1.732l-2.14 4.484c-.341.611-.85 1.086-1.528 1.426-.679.204-1.359.136-2.038-.204-.679-.339-1.156-.849-1.427-1.528-.271-.678-.203-1.358.203-2.038l.408-.917-3.872-.204c2.106 5.57 3.432 11.684 3.974 18.341l95.982 4.891c.814.068 1.459.374 1.937.917.474.543.713 1.189.713 1.935-.068.68-.374 1.292-.918 1.835-.543.407-1.188.611-1.937.611l-95.37-4.381c.07.95.102 1.901.102 2.853 0 6.725-.645 13.008-1.935 18.85l107.598 2.343c1.697-6.317 2.648-12.566 2.852-18.748.273-10.597-1.56-20.99-5.5-31.18-.273-.747-.546-1.494-.816-2.242l-22.008-3.361z"/><path fill="#8E8E8E" d="M557.359 254.548c.813 1.632 1.494 3.431 2.037 5.4 1.495 4.824 2.241 10.325 2.241 16.506v.408c0 3.126-.169 6.079-.51 8.865-.679 5.027-1.937 9.509-3.769 13.449-.679 1.563-1.428 2.922-2.243 4.076l6.217 4.483.814-1.224c.204-.339.407-.679.61-1.02 2.379-4.346 4.111-9.202 5.198-14.569.136-.476.237-.951.305-1.427.34-1.902.61-3.872.815-5.91.136-1.698.203-3.396.203-5.095v-1.323-2.649c-.203-5.502-.949-10.597-2.24-15.283a23.689 23.689 0 0 0-.408-1.123c-.681-2.308-1.494-4.449-2.446-6.418a6.098 6.098 0 0 1-.61-1.12 17.82 17.82 0 0 0-.816-1.632 25.1 25.1 0 0 0-1.731-2.648l-5.91 4.28c.816 1.088 1.565 2.413 2.243 3.974m-45.443 4.585a3.9 3.9 0 0 0-.816-1.222 4.013 4.013 0 0 0-.51-.918l-6.215 4.382c.949 1.223 1.833 2.649 2.649 4.279 2.445 4.892 3.94 10.631 4.483 17.22a50.86 50.86 0 0 1 .408 6.521v.203c0 3.329-.205 6.487-.613 9.477a55.873 55.873 0 0 1-2.342 9.272l7.335 2.139c.272-.813.51-1.663.714-2.547.271-.949.475-1.9.611-2.852a53.434 53.434 0 0 0 1.222-8.051c.07-1.088.102-2.139.102-3.158.068-.883.104-1.801.104-2.752v-1.019-2.548a65.154 65.154 0 0 0-.407-5.398c-.477-4.96-1.359-9.545-2.649-13.756-.272-.815-.545-1.596-.815-2.344a68.285 68.285 0 0 0-2.854-6.317c-.136-.203-.272-.406-.407-.611m70.609-25.369c-.272.405-.543.813-.813 1.222l5.908 3.872c2.311-3.396 4.926-5.094 7.847-5.094 3.803 0 7.064 2.988 9.781 8.965 2.717 6.046 4.076 13.315 4.076 21.805s-1.359 15.76-4.076 21.806c-.679 1.495-1.393 2.784-2.14 3.871l4.687 3.262c.273-.408.544-.782.814-1.121.205-.478.441-.951.715-1.427a40.454 40.454 0 0 0 3.565-8.458c.136-.476.273-.881.408-1.222 1.425-5.164 2.14-10.867 2.14-17.118 0-9.171-1.599-17.117-4.79-23.844a14.622 14.622 0 0 0-1.323-2.75c-1.02-1.902-2.14-3.532-3.363-4.892a14.816 14.816 0 0 0-.918-1.222c-3.057-3.327-6.487-4.993-10.291-4.993-4.143 0-7.878 1.97-11.207 5.91-.341.408-.679.882-1.02 1.428M208.38 367.954l-37.599 9.68v12.125l33.93-8.967c-1.223-1.087-2.207-2.241-2.954-3.465l6.623-9.373m79.271-101.484l-2.853-2.547-2.649-1.733-73.769 105.764-6.623 9.373 85.894-110.857m20.276 4.279l-20.276-4.279-85.895 110.857c.747 1.224 1.731 2.378 2.954 3.465 5.774 5.095 16.915 8.388 33.42 9.885l69.797-119.928m146.623 33.522a9.424 9.424 0 0 0-4.28-1.019c-3.192 0-6.011 1.427-8.457 4.278a19.532 19.532 0 0 0-1.63 2.142 25.48 25.48 0 0 0-2.242 4.278 28.49 28.49 0 0 0-1.427 4.993c-.407 1.968-.611 4.075-.611 6.316v.917c.135 5.775 1.562 10.699 4.28 14.774.543.884 1.154 1.7 1.834 2.446 2.377 2.717 5.128 4.075 8.252 4.075 3.872 0 7.202-2.175 9.986-6.521a26.689 26.689 0 0 0 2.139-3.872c1.427-3.463 2.142-7.403 2.142-11.819 0-1.9-.171-3.735-.51-5.503-.408-2.716-1.154-5.229-2.242-7.538a31.479 31.479 0 0 0-1.528-2.547 5.498 5.498 0 0 0-.611-.918c-1.563-2.106-3.26-3.598-5.095-4.482m1.427 9.477c.272.406.543.814.814 1.222 1.699 2.922 2.515 6.421 2.445 10.496 0 4.075-.85 7.574-2.547 10.493-1.698 2.854-3.77 4.281-6.215 4.281s-4.518-1.461-6.215-4.382c-1.631-2.854-2.446-6.353-2.446-10.496 0-3.057.509-5.807 1.528-8.253.339-.746.713-1.494 1.12-2.24 1.631-2.854 3.669-4.281 6.114-4.281 2.038 0 3.839 1.055 5.402 3.16m-79.374 60.523l-2.955-9.984-5.706-19.461-3.77-12.84-6.318-21.294-11.92-40.86-23.232.408-14.774.51-69.796 119.928c12.703.679 35.017-1.087 66.943-5.3 20.038-2.718 43.881-6.419 71.528-11.107m-2.956-9.985l2.955 9.984c-27.647 4.688-51.489 8.39-71.528 11.106l-125.836 38.516h57.467l493.563-159.868v-9.069l-6.725 2.14a20.503 20.503 0 0 1-1.427 2.243c-2.784 4.348-6.147 6.521-10.088 6.521-2.648 0-5.059-1.02-7.233-3.057l-13.449 4.177c-.408.746-.85 1.459-1.325 2.14-2.784 4.346-6.147 6.521-10.088 6.521-2.648 0-5.059-.985-7.234-2.955l-13.958 4.278c-.408.681-.815 1.359-1.224 2.038-2.852 4.28-6.215 6.42-10.086 6.42-2.65 0-4.993-.951-7.031-2.854l-31.791 9.783c-.271.339-.541.713-.814 1.121-3.734 5.638-8.083 8.455-13.043 8.455-2.919 0-5.638-.951-8.15-2.852l-24.454 7.438c-.272.407-.544.815-.814 1.224-4.144 6.249-9.068 9.373-14.774 9.373-3.262 0-6.248-1.019-8.967-3.057l-26.084 8.05c-4.687 7.948-10.326 11.921-16.914 11.921-3.669 0-6.997-1.256-9.986-3.77l-22.213 6.826a26.5 26.5 0 0 1-2.139 3.872c-2.784 4.347-6.114 6.521-9.986 6.521-3.125 0-5.875-1.358-8.252-4.075l-68.372 20.889z"/><path fill="#4D4D4D" d="M559.396 259.948c-.543-1.97-1.224-3.769-2.037-5.4-.679-1.561-1.428-2.886-2.243-3.973-2.241-3.534-4.855-5.3-7.845-5.3-3.94 0-7.304 3.091-10.088 9.272-2.784 6.181-4.177 13.62-4.177 22.314 0 2.445.102 4.754.306 6.93.339 3.191.884 6.181 1.63 8.965a34.339 34.339 0 0 0 2.241 6.42c2.784 6.182 6.147 9.271 10.088 9.271 2.989 0 5.604-1.731 7.845-5.195.815-1.154 1.564-2.514 2.243-4.076 1.832-3.94 3.09-8.422 3.769-13.449.341-2.786.51-5.739.51-8.865v-.408c0-6.181-.746-11.682-2.242-16.506m-18.035 1.427c1.767-4.28 3.838-6.386 6.217-6.318 2.376 0 4.414 2.105 6.113 6.318 1.697 4.212 2.512 9.306 2.443 15.284v1.222c-.067 3.465-.441 6.623-1.12 9.477a23.96 23.96 0 0 1-1.427 4.586c-1.766 4.211-3.837 6.316-6.215 6.316s-4.381-2.105-6.012-6.316a4.003 4.003 0 0 1-.305-.816c-.951-2.648-1.599-5.57-1.937-8.762a51.892 51.892 0 0 1-.307-5.706c.002-6.047.852-11.141 2.55-15.285m6.217-6.318c-2.379-.067-4.45 2.038-6.217 6.318-1.698 4.144-2.548 9.238-2.548 15.284 0 1.968.104 3.871.307 5.706.338 3.191.985 6.113 1.937 8.762.067.272.169.543.305.816 1.631 4.211 3.634 6.316 6.012 6.316s4.449-2.105 6.215-6.316a24.03 24.03 0 0 0 1.427-4.586c.679-2.854 1.053-6.012 1.12-9.477v-1.222c.068-5.979-.746-11.072-2.443-15.284-1.701-4.212-3.739-6.317-6.115-6.317m40.042-16.2c-.679 1.087-1.359 2.377-2.038 3.871-2.716 6.046-4.075 13.315-4.075 21.805 0 2.309.102 4.552.306 6.725.273 3.057.782 5.911 1.529 8.56a33.655 33.655 0 0 0 2.24 6.521c2.717 5.908 6.012 8.864 9.885 8.864 2.852 0 5.399-1.664 7.642-4.993.747-1.087 1.461-2.376 2.14-3.871 2.717-6.046 4.076-13.315 4.076-21.806 0-8.489-1.359-15.759-4.076-21.805-2.717-5.977-5.979-8.965-9.781-8.965-2.922.001-5.537 1.698-7.848 5.094m13.755 9.883c1.563 4.144 2.345 9.171 2.345 15.081 0 5.841-.815 10.834-2.446 14.978-1.699 4.143-3.667 6.215-5.91 6.215-2.309-.067-4.278-2.14-5.908-6.215a4.506 4.506 0 0 0-.205-.51c-.884-2.581-1.492-5.401-1.833-8.458a56.118 56.118 0 0 1-.307-6.01c.07-5.91.918-10.938 2.548-15.081s3.566-6.181 5.809-6.113c2.307 0 4.278 2.038 5.907 6.113m2.345 15.081c0-5.91-.782-10.938-2.345-15.081-1.629-4.075-3.6-6.113-5.908-6.113-2.242-.067-4.179 1.97-5.809 6.113s-2.478 9.171-2.548 15.081c0 2.105.102 4.107.307 6.01.341 3.057.949 5.877 1.833 8.458.067.136.135.307.205.51 1.63 4.075 3.6 6.147 5.908 6.215 2.243 0 4.211-2.072 5.91-6.215 1.631-4.144 2.447-9.137 2.447-14.978m118.397-4.483a20.503 20.503 0 0 0 1.427-2.243l.611-1.425-20.379 6.113c.341.339.679.679 1.02 1.02 2.175 2.037 4.585 3.057 7.233 3.057 3.941-.001 7.304-2.174 10.088-6.522m-64.599 19.664l1.224-2.038c.272-.679.544-1.357.814-2.038l-20.582 6.217c.408.542.884 1.02 1.427 1.425 2.038 1.903 4.381 2.854 7.031 2.854 3.871 0 7.234-2.14 10.086-6.42m32.503-9.883c.476-.681.917-1.394 1.325-2.14a3.91 3.91 0 0 1 .203-.51c.205-.407.408-.815.61-1.224l-20.581 6.113c.271.272.51.577.713.918.135.137.272.272.407.408 2.176 1.97 4.586 2.955 7.234 2.955 3.942.002 7.305-2.174 10.089-6.52m-233.23 45.851l-.814-1.222c-1.563-2.105-3.363-3.16-5.401-3.16-2.445 0-4.483 1.427-6.114 4.281a34.383 34.383 0 0 0-1.12 2.24c-1.019 2.446-1.528 5.196-1.528 8.253 0 4.144.815 7.642 2.446 10.496 1.697 2.921 3.769 4.382 6.215 4.382s4.517-1.427 6.215-4.281c1.697-2.919 2.547-6.418 2.547-10.493.069-4.075-.747-7.574-2.446-10.496m26.39-49.316c-3.396 6.521-5.128 14.47-5.195 23.843 0 2.989.171 5.843.509 8.56.408 3.26 1.087 6.316 2.038 9.17a32.81 32.81 0 0 0 2.446 6.215c3.26 6.657 7.199 9.986 11.818 9.986 4.687 0 8.695-3.295 12.024-9.885a39.967 39.967 0 0 0 2.14-5.195 55.923 55.923 0 0 0 2.342-9.272c.408-2.989.613-6.147.613-9.477v-.203a50.86 50.86 0 0 0-.408-6.521c-.543-6.589-2.038-12.328-4.483-17.22-.816-1.63-1.7-3.057-2.649-4.279-2.716-3.735-5.809-5.604-9.271-5.604-4.69-.07-8.663 3.225-11.924 9.882m2.243 30.568c-.34-2.105-.51-4.349-.51-6.725 0-6.316 1.087-11.684 3.26-16.1 2.105-4.481 4.653-6.69 7.643-6.623 2.921 0 5.433 2.243 7.54 6.727 2.105 4.414 3.124 9.747 3.057 15.996v1.325c-.069 3.599-.51 6.894-1.325 9.883a30.36 30.36 0 0 1-1.833 4.892c-2.173 4.481-4.721 6.725-7.642 6.725-2.922-.069-5.436-2.311-7.541-6.725-.069-.135-.102-.238-.102-.307-1.291-2.718-2.141-5.739-2.547-9.068m-.51-6.725c0 2.376.17 4.619.51 6.725.406 3.329 1.256 6.351 2.547 9.068 0 .068.032.172.102.307 2.105 4.414 4.619 6.655 7.541 6.725 2.921 0 5.469-2.243 7.642-6.725a30.289 30.289 0 0 0 1.833-4.892c.815-2.989 1.256-6.284 1.325-9.883v-1.325c.067-6.249-.951-11.582-3.057-15.996-2.107-4.483-4.619-6.727-7.54-6.727-2.989-.067-5.537 2.142-7.643 6.623-2.173 4.416-3.26 9.784-3.26 16.1z"/><path fill="#191919" d="M515.176 266.063c.271.748.543 1.528.815 2.344 1.29 4.211 2.173 8.796 2.649 13.756.202 1.697.34 3.498.407 5.398v3.567l5.706-1.63a26.394 26.394 0 0 1-.408-3.363 76.192 76.192 0 0 1-.51-8.965c0-4.008.307-7.812.918-11.413 0-.474.033-.916.102-1.323l-9.679 1.629m58.893-1.937c0-2.581.136-4.993.406-7.234l-7.845 1.222c.135.341.271.715.408 1.123 1.291 4.687 2.037 9.781 2.24 15.283v2.649l5.706-1.63-.203-1.225a7.5 7.5 0 0 1-.102-1.222c-.407-2.853-.61-5.84-.61-8.966m50.13-45.647v-.917l-44.629 1.222.613 15.081 2.342-.101c.341-.546.679-1.02 1.02-1.428 3.329-3.94 7.064-5.91 11.207-5.91 3.804 0 7.234 1.666 10.291 4.993.341.408.645.815.918 1.222l17.729-.813.509-13.349m-153.755 77.948c-.067-.951-.135-1.835-.203-2.651l-13.145 1.937-99.243 14.979 6.318 21.294 73.77-18.034a25.48 25.48 0 0 1 2.242-4.278 19.6 19.6 0 0 1 1.63-2.142c2.446-2.852 5.265-4.278 8.457-4.278 1.494 0 2.922.338 4.28 1.019 1.835.884 3.532 2.376 5.095 4.483l12.125-2.955a146.28 146.28 0 0 1-.917-5.807 776.67 776.67 0 0 1-.409-3.567m-25.268-59.201h-2.038c-3.939 5.911-8.457 9.748-13.551 11.515l.102 4.076c0 .681-.238 1.289-.712 1.835-.544.61-1.189.915-1.937.915-.68 0-1.291-.271-1.834-.813-.543-.476-.815-1.089-.815-1.835l-.103-3.057h-1.426c-.68 0-1.325-.034-1.936-.102l-99.956 4.892h-1.428c-5.366 0-10.223-2.311-14.57-6.93l-20.174 16.201 2.853 2.547 20.276 4.279 14.774-.51 22.925-2.547 114.935-12.939 19.359-2.345 1.324 1.019c3.939-4.821 8.39-7.233 13.349-7.233 6.182 0 11.513 3.6 15.996 10.8.203.272.375.579.51.918l1.222-.816 15.183-1.63c.816-2.378 1.801-4.551 2.955-6.521 4.414-7.811 9.781-11.718 16.1-11.718 5.501 0 10.325 3.025 14.468 9.069a25.1 25.1 0 0 1 1.731 2.648c.273.478.546 1.019.816 1.632l12.227-1.835c.136-.408.271-.884.408-1.427a47.924 47.924 0 0 1 3.465-8.863l-14.368.61v-4.585l-18.851.917h-3.057 3.057l-.102-2.242-101.177 4.075z"/><path fill="#7F7F7F" d="M561.026 246.295c-4.143-6.044-8.967-9.069-14.468-9.069-6.318 0-11.686 3.907-16.1 11.718-1.154 1.971-2.139 4.144-2.955 6.521-.203.341-.34.715-.408 1.12-.884 2.379-1.63 4.993-2.24 7.848-.068.407-.102.85-.102 1.323-.611 3.602-.918 7.405-.918 11.413 0 3.124.172 6.113.51 8.965.067 1.154.203 2.276.408 3.363.135.476.236.918.305 1.325a49.22 49.22 0 0 0 1.019 4.279 51.64 51.64 0 0 0 2.445 6.623c.205.407.374.779.51 1.12a25.496 25.496 0 0 1 1.427 2.648c2.174 3.737 4.552 6.592 7.133 8.56 2.719 2.038 5.705 3.057 8.967 3.057 5.706 0 10.631-3.124 14.774-9.373l-6.217-4.483c-2.241 3.464-4.855 5.195-7.845 5.195-3.94 0-7.304-3.09-10.088-9.271a34.339 34.339 0 0 1-2.241-6.42c-.746-2.784-1.291-5.773-1.63-8.965a74.338 74.338 0 0 1-.306-6.93c0-8.694 1.393-16.134 4.177-22.314 2.784-6.182 6.147-9.272 10.088-9.272 2.989 0 5.604 1.766 7.845 5.3l5.91-4.281m19.259-9.273c0 .136-.034.307-.102.51a3.878 3.878 0 0 0-.51.918 47.924 47.924 0 0 0-3.465 8.863 20.783 20.783 0 0 1-.408 1.427 62.965 62.965 0 0 0-1.12 6.725c-.069.408-.138.884-.205 1.427-.271 2.241-.406 4.653-.406 7.234 0 3.126.203 6.113.611 8.967 0 .408.034.814.102 1.222l.203 1.225c.34 2.105.815 4.143 1.427 6.113a25.526 25.526 0 0 0 1.12 3.668c.136.34.307.712.51 1.12a33.763 33.763 0 0 0 2.142 4.483c1.97 3.532 4.107 6.249 6.418 8.151 2.513 1.9 5.231 2.852 8.15 2.852 4.96 0 9.309-2.817 13.043-8.455l-4.687-3.262c-2.242 3.329-4.79 4.993-7.642 4.993-3.873 0-7.168-2.956-9.885-8.864a33.678 33.678 0 0 1-2.24-6.521c-.747-2.648-1.256-5.503-1.529-8.56a71.97 71.97 0 0 1-.306-6.725c0-8.489 1.359-15.759 4.075-21.805.679-1.494 1.359-2.784 2.038-3.871l-5.908-3.872c-.408.61-.851 1.289-1.326 2.037h-.1m149.984-17.219v-14.774l-85.487-4.381v24.557l85.487-5.402M479.921 255.16a43.773 43.773 0 0 0-2.344 3.973c-4.89 8.56-7.336 18.886-7.336 30.976v3.667c.068.816.136 1.7.203 2.651.138 1.222.272 2.412.408 3.566.271 1.97.577 3.904.917 5.807.203.884.44 1.731.713 2.548.069.338.169.645.307.917a57.334 57.334 0 0 0 2.75 7.946c.408.816.782 1.632 1.12 2.445.273.544.577 1.053.918 1.529 2.107 3.939 4.449 6.963 7.03 9.068 2.989 2.514 6.317 3.77 9.986 3.77 6.588 0 12.228-3.973 16.914-11.921.135-.338.272-.645.408-.917 1.832-3.33 3.293-6.896 4.38-10.699l-7.335-2.139a39.69 39.69 0 0 1-2.14 5.195c-3.329 6.59-7.338 9.885-12.024 9.885-4.619 0-8.559-3.329-11.818-9.986a32.744 32.744 0 0 1-2.446-6.215c-.951-2.854-1.63-5.91-2.038-9.17a69.349 69.349 0 0 1-.509-8.56c.067-9.373 1.799-17.321 5.195-23.843 3.262-6.657 7.234-9.952 11.923-9.883 3.463 0 6.556 1.868 9.271 5.604l6.215-4.382c-4.483-7.2-9.814-10.8-15.996-10.8-4.959 0-9.409 2.412-13.349 7.233a17.32 17.32 0 0 0-1.323 1.735z"/><path fill="#777" d="M389.135 194.433h2.038l-1.63 31.993c0 .476.102.917.306 1.325.271.408.611.782 1.019 1.12.408.203.849.307 1.324.307l31.689.406.407 20.277.103 3.057c0 .746.272 1.359.815 1.835.543.543 1.154.813 1.834.813.747 0 1.392-.305 1.937-.915.475-.546.712-1.154.712-1.835l-.102-4.076-.306-21.805c0-.679-.271-1.291-.815-1.834-.544-.543-1.155-.815-1.835-.815l-31.586-.306 1.732-32.096c0-.543-.135-1.019-.407-1.427a2 2 0 0 0-.917-.916c-.476-.34-.917-.51-1.325-.51h-4.993c-.679 0-1.325.271-1.936.815-.476.543-.713 1.189-.713 1.936 0 .68.238 1.292.713 1.834.612.545 1.258.817 1.936.817m-25.677-35.663c-.543-.068-1.086.068-1.63.407a2.951 2.951 0 0 0-1.12 1.122l-1.732 3.973c-.271.679-.271 1.393 0 2.14s.747 1.257 1.426 1.528c.68.339 1.359.339 2.038 0 .747-.271 1.223-.747 1.427-1.427l1.12-2.242 84.774 6.012 3.872.204-.408.917c-.406.68-.474 1.359-.203 2.038.271.68.748 1.189 1.427 1.528.679.34 1.359.408 2.038.204.679-.339 1.188-.815 1.528-1.426l2.14-4.484c.271-.543.338-1.12.202-1.732-.135-.611-.405-1.087-.813-1.426-.476-.408-.985-.646-1.528-.713l-10.597-.612-83.961-6.011m188.195 35.663c-.478-.543-1.122-.849-1.937-.917l-95.982-4.891h-10.188c-.543 0-1.122.204-1.732.611-.476.34-.781.816-.917 1.427l-1.731 7.541a3.322 3.322 0 0 0 .306 2.139 3.09 3.09 0 0 0 1.63 1.121c.747.204 1.427.103 2.038-.306a2.915 2.915 0 0 0 1.223-1.63l1.223-5.502 8.558.408 95.37 4.381c.749 0 1.394-.204 1.937-.611.544-.543.85-1.155.918-1.835-.003-.747-.242-1.393-.716-1.936z"/><linearGradient id="c" gradientUnits="userSpaceOnUse" x1="373.443" y1="272.136" x2="334.469" y2="272.136" gradientTransform="matrix(1 0 0 -1 29.04 379.34)"><stop offset="0" stop-color="#3c3c3c"/><stop offset=".663" stop-color="#aaa"/><stop offset=".788" stop-color="#a6a6a6"/><stop offset="1" stop-color="#585858"/></linearGradient><path fill="url(#c)" d="M402.483 75.219c-5.095-2.106-10.733-3.261-16.915-3.464-6.181-.135-12.872.612-20.073 2.242l-1.936 65.109 37.802 3.566 1.122-67.453z"/><linearGradient id="d" gradientUnits="userSpaceOnUse" x1="378.945" y1="315.737" x2="331.31" y2="315.737" gradientTransform="matrix(1 0 0 -1 29.04 379.34)"><stop offset="0" stop-color="#3c3c3c"/><stop offset=".663" stop-color="#aaa"/><stop offset=".788" stop-color="#a6a6a6"/><stop offset="1" stop-color="#585858"/></linearGradient><path fill="url(#d)" d="M407.985 61.973v-2.038c-.407-1.155-2.683-2.14-6.827-2.955-4.687-.95-10.325-1.426-16.914-1.426-6.385 0-11.819.441-16.303 1.324a1.673 1.673 0 0 1-.509.102c-4.28.815-6.623 1.8-7.031 2.955V71.652c.408-1.223 2.751-2.276 7.031-3.159a46.66 46.66 0 0 1 5.705-.712 93.629 93.629 0 0 1 6.623-.408 95.655 95.655 0 0 1 4.484-.102h1.528c5.91.135 11.038.543 15.385 1.222 4.145.883 6.42 1.936 6.827 3.159v-9.679z"/><radialGradient id="e" cx="-210.201" cy="418.346" r="47.289" gradientTransform="matrix(-1 0 0 -2.1208 109.24 1082.05)" gradientUnits="userSpaceOnUse"><stop offset="0" stop-color="#a6a6a6"/><stop offset="1" stop-color="#3f3f3f"/></radialGradient><path fill="url(#e)" d="M297.738 152.554c-5.977 11.684-8.966 25.779-8.966 42.285 0 16.575 2.989 30.67 8.966 42.285 2.242 4.281 4.654 7.812 7.235 10.598 4.348 4.619 9.204 6.93 14.57 6.93h1.428c7.947-.681 14.739-6.521 20.378-17.527 5.977-11.615 8.966-25.709 8.966-42.285 0-16.506-2.989-30.602-8.966-42.285-5.503-10.596-12.058-16.37-19.666-17.322h-.102a10.433 10.433 0 0 0-2.038-.203c-8.49 0-15.759 5.841-21.805 17.524z"/><path fill="#15204D" d="M730.269 187.707l-98.019-8.457-.408 103.421v.51l7.132-2.038 20.582-6.217 11.82-3.77.203.203 20.581-6.113 11.616-3.463 20.379-6.113 6.113-1.835v-34.032l-85.487 5.401v-24.557l85.487 4.381v-17.321m-98.936-22.518l-5.807-.408v45.648l-1.326 7.132v.917l-.509 13.349-17.729.813c1.224 1.359 2.344 2.989 3.363 4.892.543.884.984 1.799 1.323 2.75 3.191 6.727 4.79 14.673 4.79 23.844 0 6.251-.715 11.954-2.14 17.118v1.222l17.524.205h1.02l.408-103.421-.917-14.061m1.325 0h-1.325l.918 14.061 98.019 8.457v-10.291l-97.612-12.227z"/><path fill="#999" d="M595.568 166.718l.51 20.073 21.396 1.834.814-20.073-22.72-1.834z"/><path fill="#282828" d="M536.775 156.019l-2.342 6.928 22.008 3.362c.271.748.543 1.495.816 2.242 3.94 10.189 5.773 20.583 5.5 31.18-.203 6.181-1.154 12.43-2.852 18.748v.713l5.399-.102v-19.359h13.349l.916 19.053 44.629-1.222 1.326-7.132h-40.146l-1.834-54.411h-46.769m-6.724-11.514l-1.528 17.627 5.911.815 2.342-6.928h46.77l19.97 3.261-.712-13.042v-.816c-24.321-5.434-48.572-5.739-72.753-.917z"/></g><path fill="none" stroke="#000" stroke-width="1.5" stroke-linecap="round" stroke-linejoin="round" d="M602.803 145.422c-24.319-5.434-48.57-5.739-72.752-.917l-1.528 17.627m5.911.815l2.342-6.928h46.77l19.97 3.261-.712-13.042m-7.236 20.48l.51 20.073 21.396 1.834.814-20.073-22.72-1.834zm35.764-1.529h1.325l-1.325-.204v.204l-5.807-.408v45.648l-1.326 7.132m0 .918l-.509 13.349-17.729.813c1.224 1.359 2.344 2.989 3.363 4.892.543.884.984 1.799 1.323 2.75 3.191 6.727 4.79 14.673 4.79 23.844 0 6.251-.715 11.954-2.14 17.118m.001 1.221l17.524.205m1.02 0l.408-103.421-.918-14.061m-5.807-.408v-2.038l-22.011-3.464m126.755 94.556l-6.113 1.835-.611 1.425 6.725-2.14m-.001 9.069L236.706 423.893h-57.467l125.836-38.516c-31.926 4.213-54.24 5.979-66.943 5.3-16.506-1.497-27.646-4.79-33.42-9.885l-33.93 8.967m-.001-12.125l37.599-9.68 73.769-105.765 2.649 1.733 20.174-16.201m327.685-82.532l97.611 12.227m.001 10.291l-98.019-8.457m-189.112 57.976h2.038m25.065 56.549v-3.667c0-12.09 2.446-22.416 7.336-30.976a43.542 43.542 0 0 1 2.344-3.973c.408-.612.851-1.189 1.324-1.733m-1.324-1.018l-19.359 2.345c1.087 14.265-.069 27.918-3.465 40.959l13.145-1.937c.068.816.136 1.7.203 2.651.138 1.222.272 2.412.408 3.566.271 1.97.577 3.904.917 5.807.203.884.44 1.731.713 2.548.069.338.169.645.307.917a57.334 57.334 0 0 0 2.75 7.946c.408.816.782 1.632 1.12 2.445.273.544.577 1.053.918 1.529 2.107 3.939 4.449 6.963 7.03 9.068 2.989 2.514 6.317 3.77 9.986 3.77 6.588 0 12.228-3.973 16.914-11.921.135-.338.272-.645.408-.917 1.832-3.33 3.293-6.896 4.38-10.699m-7.335-2.137a39.69 39.69 0 0 1-2.14 5.195c-3.329 6.59-7.338 9.885-12.024 9.885-4.619 0-8.559-3.329-11.818-9.986a32.744 32.744 0 0 1-2.446-6.215c-.951-2.854-1.63-5.91-2.038-9.17a69.349 69.349 0 0 1-.509-8.56c.067-9.373 1.799-17.321 5.195-23.843 3.262-6.657 7.234-9.952 11.923-9.883 3.463 0 6.556 1.868 9.271 5.604m6.215-4.382c-4.483-7.2-9.814-10.8-15.996-10.8-4.959 0-9.409 2.412-13.349 7.233m14.571 13.348c-2.989-.067-5.537 2.142-7.643 6.623-2.173 4.416-3.26 9.783-3.26 16.1 0 2.376.17 4.619.51 6.725.406 3.329 1.256 6.351 2.547 9.068 0 .068.032.172.102.307 2.105 4.414 4.619 6.655 7.541 6.725 2.921 0 5.469-2.243 7.642-6.725a30.289 30.289 0 0 0 1.833-4.892c.815-2.989 1.256-6.284 1.325-9.883v-1.325c.067-6.249-.951-11.582-3.057-15.996-2.107-4.483-4.619-6.727-7.54-6.727zm-150.189.918l-22.925 2.547 23.232-.408 11.92 40.86 99.243-14.979m-83.45 68.574l2.955 9.984c-27.647 4.688-51.489 8.39-71.528 11.106m62.868-40.551l5.706 19.461 68.37-20.888a16.279 16.279 0 0 1-1.834-2.446c-2.718-4.075-4.145-8.999-4.28-14.774l-67.962 18.647-3.77-12.84-6.318-21.294m101.791-1.936c-1.563-2.107-3.26-3.6-5.095-4.483a9.424 9.424 0 0 0-4.28-1.019c-3.192 0-6.011 1.427-8.457 4.278a19.532 19.532 0 0 0-1.63 2.142 25.48 25.48 0 0 0-2.242 4.278 28.49 28.49 0 0 0-1.427 4.993c-.407 1.968-.611 4.075-.611 6.316v.917m28.123-6.419c-.408-2.716-1.154-5.229-2.242-7.538a31.479 31.479 0 0 0-1.528-2.547 5.498 5.498 0 0 0-.611-.918l12.125-2.955m-14.979 9.17l-.814-1.222c-1.563-2.105-3.363-3.16-5.401-3.16-2.445 0-4.483 1.427-6.114 4.281a34.383 34.383 0 0 0-1.12 2.24c-1.019 2.446-1.528 5.196-1.528 8.253 0 4.144.815 7.642 2.446 10.496 1.697 2.921 3.769 4.382 6.215 4.382s4.517-1.427 6.215-4.281c1.697-2.919 2.547-6.418 2.547-10.493.069-4.075-.747-7.574-2.446-10.496zm7.235 4.788c.339 1.768.51 3.603.51 5.503 0 4.416-.715 8.356-2.142 11.819l22.213-6.826m-22.212 6.826a26.5 26.5 0 0 1-2.139 3.872c-2.784 4.347-6.114 6.521-9.986 6.521-3.125 0-5.875-1.358-8.252-4.075m33.521-26.187l-11.513 2.547m-3.464-65.005l-114.935 12.939m92.314 46.259l-73.77 18.034m-56.244-61.236l-20.276-4.279-85.895 110.857c.747 1.224 1.731 2.378 2.954 3.465m82.941-114.322l-2.853-2.547m37.904 6.316l-14.774.51-69.796 119.928m-36.375-13.35l6.623-9.373m464.319-95.268c2.176 1.97 4.586 2.955 7.234 2.955 3.94 0 7.304-2.176 10.088-6.521.476-.681.917-1.394 1.325-2.14a3.91 3.91 0 0 1 .203-.51c.205-.407.408-.815.61-1.224l-20.581 6.113c.271.272.51.577.713.918l.408.409-13.958 4.278c-.408.681-.815 1.359-1.224 2.038-2.852 4.28-6.215 6.42-10.086 6.42-2.65 0-4.993-.951-7.031-2.854l-31.791 9.783c-.271.339-.541.713-.814 1.121-3.734 5.638-8.083 8.455-13.043 8.455-2.919 0-5.638-.951-8.15-2.852l-24.454 7.438c-.272.407-.544.815-.814 1.224-4.144 6.249-9.068 9.373-14.774 9.373-3.262 0-6.248-1.019-8.967-3.057l-26.084 8.05m160.07-50.744l-.203-.203-11.82 3.77 12.023-3.567zm-12.023 3.567l-.814 2.038m64.802-19.869a20.503 20.503 0 0 1-1.427 2.243c-2.784 4.348-6.147 6.521-10.088 6.521-2.648 0-5.059-1.02-7.233-3.057l-13.449 4.177m13.449-4.176c-.341-.341-.679-.681-1.02-1.02l-11.616 3.463m31.995-9.576l-20.379 6.113m26.493-41.98l-85.487 5.401v-24.557l85.487 4.381M579.57 218.784l-.916-19.053h-13.349v19.359m.001 13.246v6.725l14.368-.61c.135-.341.305-.647.51-.918.067-.203.102-.374.102-.51l-.102-3.158-.613-15.081 44.629-1.222m-41.675 16.202l-2.342.101m.102 3.157h.101c.476-.748.918-1.427 1.326-2.037.271-.408.541-.816.813-1.222.341-.546.679-1.02 1.02-1.428 3.329-3.94 7.064-5.91 11.207-5.91 3.804 0 7.234 1.666 10.291 4.993.341.408.645.815.918 1.222m-2.853 57.57c-2.242 3.329-4.79 4.993-7.642 4.993-3.873 0-7.168-2.956-9.885-8.864a33.678 33.678 0 0 1-2.24-6.521c-.747-2.648-1.256-5.503-1.529-8.56a71.97 71.97 0 0 1-.306-6.725c0-8.489 1.359-15.759 4.075-21.805.679-1.494 1.359-2.784 2.038-3.871 2.311-3.396 4.926-5.094 7.847-5.094 3.803 0 7.064 2.988 9.781 8.965 2.717 6.046 4.076 13.315 4.076 21.805s-1.359 15.76-4.076 21.806c-.678 1.495-1.392 2.784-2.139 3.871zm-1.733-41.47c-1.629-4.075-3.6-6.113-5.908-6.113-2.242-.067-4.179 1.97-5.809 6.113s-2.478 9.171-2.548 15.081c0 2.105.102 4.107.307 6.01.341 3.057.949 5.877 1.833 8.458.067.136.135.307.205.51 1.63 4.075 3.6 6.147 5.908 6.215 2.243 0 4.211-2.072 5.91-6.215 1.631-4.144 2.446-9.137 2.446-14.978.001-5.91-.781-10.937-2.344-15.081zm-21.701-10.29a47.924 47.924 0 0 0-3.465 8.863 20.783 20.783 0 0 1-.408 1.427 62.965 62.965 0 0 0-1.12 6.725c-.069.408-.138.884-.205 1.427-.271 2.241-.406 4.653-.406 7.234 0 3.126.203 6.113.611 8.967 0 .408.034.814.102 1.222l.203 1.225c.34 2.105.815 4.143 1.427 6.113a25.526 25.526 0 0 0 1.12 3.668c.136.34.307.712.51 1.12a33.763 33.763 0 0 0 2.142 4.483c1.97 3.532 4.107 6.249 6.418 8.151m26.695-16.609h-.408c.136-.476.273-.881.408-1.222m-.408 1.222a40.507 40.507 0 0 1-3.565 8.458c-.273.476-.51.949-.715 1.427m30.364-11.208l-7.132 2.038v-.51m8.558-.104a7.084 7.084 0 0 1-1.427-1.425l20.582-6.217m-76.01-118.906l1.834 54.411h40.146m-82.127 24.963h3.057l18.851-.917m-4.28 11.819c-4.143-6.044-8.967-9.069-14.468-9.069-6.318 0-11.686 3.907-16.1 11.718-1.154 1.971-2.139 4.144-2.955 6.521-.203.341-.34.715-.408 1.12-.884 2.379-1.63 4.993-2.24 7.848-.068.407-.102.85-.102 1.323-.611 3.602-.918 7.405-.918 11.413 0 3.124.172 6.113.51 8.965.067 1.154.203 2.276.408 3.363.135.476.236.918.305 1.325a49.22 49.22 0 0 0 1.019 4.279 51.64 51.64 0 0 0 2.445 6.623c.205.407.374.779.51 1.12a25.496 25.496 0 0 1 1.427 2.648c2.174 3.737 4.552 6.592 7.133 8.56M511.1 257.911c.339.338.611.748.816 1.222l.405.612a67.878 67.878 0 0 1 2.854 6.317l9.68-1.63m-14.265-7.439c.203.272.375.579.51.918m4.076 8.152c.271.748.543 1.528.815 2.344 1.29 4.211 2.173 8.796 2.649 13.756.202 1.697.34 3.498.407 5.398v3.567l5.706-1.63m2.751-34.033l-15.183 1.63m-3.36 51.253a55.923 55.923 0 0 0 2.342-9.272c.408-2.989.613-6.147.613-9.477v-.203a50.86 50.86 0 0 0-.408-6.521c-.543-6.589-2.038-12.328-4.483-17.22-.816-1.63-1.7-3.057-2.649-4.279m13.245 43.712a53.434 53.434 0 0 0 1.222-8.051c.07-1.088.102-2.139.102-3.158.068-.883.104-1.801.104-2.752m36.067 12.126c.815-1.154 1.564-2.514 2.243-4.076 1.832-3.94 3.09-8.422 3.769-13.449.341-2.786.51-5.739.51-8.865v-.408c0-6.181-.746-11.682-2.241-16.506-.543-1.97-1.224-3.769-2.037-5.4-.679-1.561-1.428-2.886-2.243-3.973-2.241-3.534-4.855-5.3-7.845-5.3-3.94 0-7.304 3.091-10.088 9.272-2.784 6.181-4.177 13.62-4.177 22.314 0 2.445.102 4.754.306 6.93.339 3.191.884 6.181 1.63 8.965a34.339 34.339 0 0 0 2.241 6.42c2.784 6.182 6.147 9.271 10.088 9.271 2.989 0 5.603-1.731 7.844-5.195zm11.515-45.14c.135.341.271.715.408 1.123 1.291 4.687 2.037 9.781 2.24 15.283v2.649l5.706-1.63m-11.411-24.963c.135.339.338.713.61 1.12.952 1.969 1.766 4.11 2.446 6.418l7.845-1.222m-10.901-6.316a17.82 17.82 0 0 0-.816-1.632 25.1 25.1 0 0 0-1.731-2.648m-13.449 8.762c-2.379-.067-4.45 2.038-6.217 6.318-1.698 4.144-2.548 9.238-2.548 15.284 0 1.968.104 3.871.307 5.706.338 3.191.985 6.113 1.937 8.762.067.272.169.543.305.816 1.631 4.211 3.634 6.316 6.012 6.316s4.449-2.105 6.215-6.316a24.03 24.03 0 0 0 1.427-4.586c.679-2.854 1.053-6.012 1.12-9.477v-1.222c.068-5.979-.746-11.072-2.443-15.284-1.701-4.212-3.739-6.317-6.115-6.317zm21.701 22.112v1.323c0 1.699-.067 3.396-.203 5.095a78.414 78.414 0 0 1-.815 5.91l9.781-3.057m-9.781 3.057c-.067.476-.169.951-.305 1.427-1.087 5.367-2.819 10.224-5.198 14.569-.203.341-.406.681-.61 1.02m-33.626-4.788l-10.901 3.363c-.137.951-.34 1.902-.611 2.852a27.343 27.343 0 0 1-.714 2.547m59.505-61.747l-12.227 1.835"/><path fill="none" stroke="#111" stroke-linecap="round" stroke-linejoin="round" d="M454.142 194.433l95.37 4.381c.749 0 1.394-.204 1.937-.611.544-.543.85-1.155.918-1.835 0-.746-.239-1.392-.713-1.935-.478-.543-1.122-.849-1.937-.917l-95.982-4.891h-10.188c-.543 0-1.122.204-1.732.611-.476.34-.781.816-.917 1.427l-1.731 7.541a3.322 3.322 0 0 0 .306 2.139 3.09 3.09 0 0 0 1.63 1.121c.747.204 1.427.103 2.038-.306a2.915 2.915 0 0 0 1.223-1.63l1.223-5.502 8.555.407zm-4.381-24.149l-84.774-6.012-1.12 2.242c-.204.68-.68 1.155-1.427 1.427-.679.339-1.358.339-2.038 0-.679-.271-1.154-.781-1.426-1.528s-.271-1.461 0-2.14l1.732-3.973a2.965 2.965 0 0 1 1.12-1.122c.543-.339 1.087-.476 1.63-.407l83.959 6.011m-23.129 85.079l-.407-20.277-31.689-.406c-.476 0-.917-.104-1.324-.307a5.174 5.174 0 0 1-1.019-1.12 2.922 2.922 0 0 1-.306-1.325l1.63-31.993h-2.038c-.679 0-1.325-.272-1.936-.815-.476-.543-.713-1.155-.713-1.834 0-.747.238-1.392.713-1.936.611-.543 1.257-.815 1.936-.815h4.993c.407 0 .849.169 1.325.51.408.203.713.509.917.916.271.408.407.884.407 1.427l-1.732 32.096 31.586.306c.68 0 1.291.271 1.835.815.543.543.815 1.155.815 1.834l.306 21.805m17.83-83.961l10.597.612c.543.068 1.053.306 1.528.713.408.339.679.815.813 1.426a2.541 2.541 0 0 1-.202 1.732l-2.14 4.484c-.341.611-.85 1.086-1.528 1.426-.679.204-1.359.136-2.038-.204-.679-.339-1.156-.849-1.427-1.528-.271-.678-.203-1.358.203-2.038l.408-.917-3.872-.204"/><path fill="none" stroke="#111" stroke-width="1.5" stroke-linecap="round" stroke-linejoin="round" d="M367.942 56.878c4.483-.883 9.917-1.324 16.303-1.324 6.589 0 12.227.476 16.914 1.426 4.145.815 6.42 1.8 6.827 2.955m-.001 1.019v1.019m126.449 100.974l-5.911-.815m-74.381 32.301c.07.95.102 1.901.102 2.853 0 6.725-.645 13.008-1.935 18.85l107.598 2.343c1.697-6.317 2.648-12.566 2.852-18.748.273-10.597-1.56-20.99-5.5-31.18-.273-.747-.546-1.494-.816-2.242l-22.008-3.362m-229.462 84.775c-2.581-2.786-4.993-6.316-7.235-10.598-5.977-11.615-8.966-25.709-8.966-42.285 0-16.506 2.989-30.602 8.966-42.285 6.046-11.684 13.315-17.524 21.805-17.524.68 0 1.358.067 2.038.203h.102l41.878 3.873 1.936-65.109-5.095-2.343v-7.947m47.583-1.734v9.68l-5.502 3.566-1.121 67.453 22.314 2.038a20.185 20.185 0 0 1 9.476 2.75l95.37 14.673M360.401 63.706v-2.751m0-1.02c.408-1.155 2.751-2.14 7.031-2.955.136 0 .305-.034.509-.102m40.044 14.775c-.407-1.223-2.683-2.276-6.827-3.159-4.348-.679-9.476-1.087-15.385-1.222h-1.528a94.31 94.31 0 0 0-4.484.102 93.629 93.629 0 0 0-6.623.408 46.66 46.66 0 0 0-5.705.712c-4.28.883-6.623 1.936-7.031 3.159m5.094 2.343c7.201-1.63 13.892-2.377 20.073-2.242 6.181.204 11.82 1.358 16.915 3.464m44.933 89.563a33.25 33.25 0 0 0-2.446-4.585c-3.464-5.91-7.404-10.155-11.819-12.737m-111.469-12.227c7.608.952 14.163 6.726 19.666 17.322 5.977 11.684 8.966 25.779 8.966 42.285 0 16.575-2.989 30.67-8.966 42.285-5.639 11.006-12.431 16.847-20.378 17.527l99.956-4.892c.611.067 1.256.102 1.936.102h1.426m5.297-1.121c5.094-1.767 9.612-5.604 13.551-11.515a24.035 24.035 0 0 0 1.834-2.75 36.083 36.083 0 0 0 2.344-4.177l.611-1.225m4.383-12.938c-.95 4.189-2.24 8.129-3.872 11.819m-47.075-85.283l-37.802-3.566m86.201 31.179c2.106 5.57 3.432 11.684 3.974 18.341M320.97 254.651h-1.428c-5.366 0-10.223-2.311-14.57-6.93m260.334-15.385V219.09m-12.533.203l7.133-.102 5.399-.102m.001 13.247l-18.952.814-101.178 4.075m2.14-6.926l113.1-2.854"/></svg>