<svg xmlns="http://www.w3.org/2000/svg" xmlns:xlink="http://www.w3.org/1999/xlink" preserveAspectRatio="none" width="285" height="427" viewBox="0 0 285 427"><defs><g id="a"><path fill="#38AF27" d="M271.5 217.35q0-7.4-1.5-11.15-2.55-6.2-9.15-7.95-6.95 4.6-13.15 9.6-5 4.95-11.3 9.5-12.35 9-20.45 9-5.75 0-14.7-4.7-1.55-.8-3.15-1.45-2.75 3.65-2.75 8.15 0 1.45.3 3.15.55 3.3 2.25 6.15 5.45 8.85 19 8.85 8.65 0 15.1-4.05 1.5-1 2.9-2.2 3.95-3.5 6.8-8.85.2-.35.4-.8 1.55.35 3.4.35 18.35 0 23.4-4.15 2.6-2.25 2.6-9.45M43.45 213.4q2.35.45 4.9.45 3 0 5.55-.5-4.45-4.25-4.95-4.6-.5.2-3.2 3.2-1.1.85-2.3 1.45m52.6 7.75q-1.7-1-4.75-2.35-2.55-1.05-4.2-2.4-5.15 3.75-18 3.75-5 0-10.05-2.8.7 2.85 1.65 5.45 2.85 8.1 7.35 13 6.9 7.5 17.7 7.5 4.05 0 7.1-1.1 2.45-.9 4.2-2.6l.05-.05h-.35q-8.75 0-13.4-7l-2.9-6.95q0-5.45 4.6-5.45 2.8 0 5.55 4.9 2.85 4.8 5.7 4.8 4.05 0 7.95-1.3 2.05-.65 3.95-1.6-4.6-3.35-7.35-11.4-1.9-.05-3.5-.25-.95 2.75-1.3 5.85m53.5 7.15q-2.35 3.95-4.95 6.7-4.8 5.3-14 5.3-5.15 0-10.45-1.7-5.15-1.7-8.65-1.7-4.45 0-7.65 1.35-2.65 1.05-5.75 1.3.75 1.85 1.75 3.4 3.55 5.75 9.85 9.15 5.75 3.15 13.9 4.45 5.35.8 11.8.8 15.7 0 32.05-15.15 5.9-5.5 10.15-11.4 3.75-5.35 3.75-7.3 0-3.5-1.5-6.55-.9-.05-1.8-.05-3.05 1.6-6.35 3.25-6.5 3.25-8.2 3.2-6.65-.45-10 1.55-2.7 2.5-3.95 3.4m-87.75-107q.35-.15.65-.35 1.8-4.4 3.85-9.85-7.6 1.05-17.75 8.6-10.15 7.5-17.65 17.55-1.65 2.1-3.1 4.4-1.5 2.2-2.75 4.4-6.75 11.65-6.75 21.85 0 .2.75 7.4 1.25 8.6 3.8 15.8.45 1.3 1 2.6.1-2.55.5-3.8 1.55-4.7 6.75-4.7 2.65 0 7.75 1.75 5.15 1.7 9.85 1.7.8 0 3.05-.6-5.55-2.05-10.1-8-3.9 2.05-8.25 2.05-8.65 0-11.15-5.1-.85-5.25-.85-5.45 0-7.1 16.2-20.7.45-.35.85-.65.2-7 7.3-15.4 6.45-7.55 16.05-13.5m12.8-31.25q-.6-.15-1.25-.2-1.65 3.95-2.1 8.3Q73.2 93 74.2 90.6l.4-.55m122.95-18.7q-1.8-.25-3.7-.3.15.3.4.55 2.1 3.75 4.55 11.35 3.2 5.75 12.5 6.9 5.75.75 10.25 2.05-2.4-7.7-7.95-12.95-.25-.15-.45-.4.1.75.1 1.55 0 3.45-.3 4.35-.85 2.9-4.4 2.9-4.25-6.7-9.15-13.5-.9-1.3-1.85-2.5m-164 130.55q.7 3.25 2.05 3.25 3.05 0 4.25-.75l.35-.55q-1-1.55-3.8-3.85-2.55-2.1-3.3-2.4 0 2.05.45 4.3m28.25 5.8q3.45 2.75 7.4 2.75 4.55 0 5.2-.05 3.4-.35 5.65-1.95-1.9-.9-4.95-3.7-3.45-3.2-4.95-4.1-6-3.8-11.3 3.95.3.15 2.95 3.1m62.05 11.15q2.85-2.95 3.15-7.05-4.25 2.1-8.95 2.1-1.55 0-2.95-.35-1.75.55-3.6.95 1.05 1.05 2.35 2.1 6.25 5.1 6.25 7.55 0 1.15-.65 2.1-.3.6-1.15 1.45l-.4.25q3.6 1.1 5.95 1.8-3.1-1.9-3.1-4.7 0-3 3.1-6.2m33.2-42.95v.15q1.15.25 3.8 1.25-.25-1.05-.45-2.55v-3.05q-1.7 1.55-3.35 4.2m-10.95 15.95q.45 2.55 1.2 4.95 2.85 9.15 9.5 13.85 16.9-10.8 16.9-11.05 0-4.15-4.4-8.3-4.1-3.75-9.6-5.35-5.9-1.7-9.65.4-3.05 1.7-3.95 5.5m-23.7 9.05l-.3-.15q-2.3-1.4-4.95-1.55-.95 1.3-.95 2.5v1.5q3.65-1.8 6.2-2.3m-15.55-7.5q1.65-1 3.2-2.45 4.4-4.25 4.4-9.4 0-1.55-1.5-4.1-1.65 2.5-3.25 5.7-2.4 4.75-2.85 6.65v3.6M87.5 147.75v.2q0 .8-.2 2.15.7.35 1.45.55-1 1.25-1.9 2.65-.1.8-.1 1.25 0 1.25 1.5 5.9 1.35 3.85.5 5.55v.75q2.2-2.7 2.6-3.25 1.5-2.2 1.5-3.35 0-.6-2.1-5.55-2.15-4.95-3.25-6.85M77.35 177.8v.6q4.05-1.6 10.15-9.85-3.45 1.8-5.7 3.2-4.2 2.65-4.45 6.05M74.2 192q3.3 2.5 5.7 4.45.9-5.35 4.5-10.85-5.55 4.8-10.2 6.4m-29.75-32.1q.2-.55.4-1.15h-.1q-.55.4-1 .8.35.2.7.35m-13.6 10.7v1.75h4.95q.4-.3.8-.65-1.1-2.1-2-4.5-1.85 1.65-3.75 3.4M77.6 140q.55 1.1 1.2 2.1.2-.95.35-1.75-.8-.15-1.55-.35m49.85-69.25l1.1-4.8q3.1-6.8 10.75-7.05-.9-3.8-7.15-3.65-8.4.2-19.15 9.15 1.05.7 9.05 7.55 4 3.3 6.45 4.95v-.95q0-3-1.05-5.2m-19.05 67.4q1.65 5.65 5.55 5.65 7.1 0 13.1-1.85-5.5-1.2-11.65-1.2-2.4 0-4.5.2.55-1.9.55-3.8 0-2.7-.65-4.7-1.55-.95-3-2.1-.15 1.1-.15 1.95 0 .15.75 5.85m8.15-42.4h1.15q4 0 6.85-1.95-5.3 10.5-5.3 24.75 0 .5-.35 4.15v1.25q3.15 1.6 9.2 4.65 5.15 2.6 5.15 3.85 0 1.95-1.25 3.15-1.6 1.4-4.6 1.4-2.35 0-4.5-.3 2.85 3 7.7 3.9 7.55-3.2 13.25-9.8-7.05-2.8-11.9-8.6-7.25-8.6-7.25-17.55 0-3.85 2.1-7 2.7-4.05 6.45 1.9.95 1.65 1.4 5.2.65 4.1 1.25 5.95 2.1 6.05 9.7 8.9-1.45-3.2-1.45-4-.1-4.65 1.5-8.9 1.9-4.7 5.45-6.8-2.85-4.25-3.6-6.15-.95-2.55-1.35-3-.65-.75-2.65-.7-9.7 1-25.8 1 0 .5-1.15 4.7m1.5-14.25l.4-.2q-2.5-1.9-4.25-3.3-3.55-2.75-4.3-3.05.55 1.8 3.2 4.2 2.85 2.45 4.95 2.35m-18.1-15.45q-.1.05-.15.05Q88 70.25 80.25 78.9q2-.95 3.65-2.95 3.35-4.15 6.2-4.15 3.95 0 4.95 2.85.5 1.45.2 3.05 0 5.05-1.7 7.35-.95 1.3-4.2 3.05-7.15 4.05-10.05 15.15-1.2 4.2-4.8 12.2 1.65-.55 3.25-.7 7.3-.85 7.3 5.3 0 .8-5.6 3.35-7.15 3.25-10.4 4.85 6.25-.05 8.55.9 3.2 1.55 4 1.65 3.75-10.35 10.3-21.1.35-.55.8-1.1-2.95-7.3-2.95-13.3 0-5.3 6.65-6.2 4.7-.5 6 2.05 1.1-.55 2.5-.95.4.55.8 1.05 1.5-1.7 3.05-3.35-7.2-4.75-8.1-10.2.55-6.3.55-9.55 0-1.45-1.25-2.1M240.4 194.5q.35-.15.8-.35v-.95q0-2.35-.55-5.1-.65-3.5-1.75-4.05-.2 2.45-1.55 3.95-2.65 2.9-8.35 1.05.65 6.8.65 9.85-.1 6.2-2.35 10.6l-.2.55q9.15-4.6 12-8.5 1.6-2.25 1.95-6.05-.3-.5-.65-1m-20.15 1.75q0-1.75-.85-7.6-.1-.05-.6 0 .5 4.45-1.6 9.65-.75 2-2.9 5.9.75-.2 1.6-.4 2.3-.6 2.7-.15.05.5.35 1.25.2-.85.45-1.8.85-6.65.85-6.85M205.6 178.1l-.1.3v3.55l.15.15q.95-.55 1.1-.75.65-.75.65-2.05 0-1.1-.5-1.65-.55.15-1 .35-.2.05-.3.1m5.95-10.15q.35.55.9 1.5.5-.15 1.2-1 .95-.95 3.55-1.3-.7-3.2-1.05-4.15-1.75.35-3.5 1.7l-1.5 1.3q0 1.15.4 1.95m39 17.75q-.6-.05-1.15.15.8 3.3 1.1 7.35v.35q3.25-1.3 5.3-2.7-.4-1.05-.95-2-1.75-2.95-4.3-3.15m-13.8-25.8q0 6.1 1.8 9.4 1.05 1.65 4.3 4.65 4.1 3.6 6 9.95 2.3-6.4 2.4-13.65-9.5-17.2-9.55-17.5-1.2 1.25-2.95 3.45-2 2.8-2 3.7m-9.2 5.2q-.8.35-.95.75.3.95 1.65 3.8 1.3 2.95 1.5 3.8h.95q-.2-.55-1.1-4.9-.75-3.35-1.15-3.75-.45.05-.9.3m-42.3 27.85q-.15.8-1.05 3.6-.6 2.1-.6 3.1 0 .55 4.35 4.15 4.8 3.75 7.05 3.75 1.1 0 2.35-.7l1.8-.9q-1.4-5.2-6.6-9.4-4.4-3.6-7.3-3.6m-14.4-22.6v1.15q-.35 6.7-2.85 8.8 1.35.7 2.6 1.3-.25-1.9-.25-3.1 0-3.85 1.45-7.15-.45-.5-.9-.95l-.05-.05M196 188.6q.15-2.1.5-4.15-1.05.1-3.75 1 1.55 1.6 3.25 3.15m-18.45-43.05v.15q.6 9.05 2.05 15.6.8-3.6.1-7.2h3.2q1.85 1.5 6.45 4.1 5.45 2.9 7.5 2.9h.75q-1.95-2.5-5.3-5.6-7.55-6.8-14.75-9.95M98.1 119.1q-.9 1.45-1.8 3.05-6.35 11.35-6.35 13.9 0 .15 6.1 8.3 6.1 8.2 6.1 15.8 0 5.5-8.55 15.9.95-.5 1.8-.6 2.9-.15 2.9 5.15 0 1.15-4.6 8.25-1.3 2.05-2.25 3.8 2.6 2.05 6.05 2.55 0-8.9 3.7-18.4 6.4-16.45 20.7-16.45 8.85 0 13.5 8.2.1.1.15.25 4.75-.65 8.05-3.95 3.6-3.55 3.6-8 0-6.15-8.1-10.55-10.7 7.05-21.05 7.05-13.9 0-18.2-10.3-1.35-3.2-1.6-7.1.05-3.4.05-3.5 0-1 2.05-9.95-1.2-1.65-2.25-3.4m66.85 17.25q-.6-.85-1.3-1.55l-1.5 1.2q-6.65 5.65-8.2 15-1.85 2.3-3.4 5.3-3.9 7.45-4.65 16.85 2.95-2.05 7.6-5.2 3.95-2.65 6.95-4.6.3-6.5 1.3-13 1.15-7.85 3.2-14m14.6-6.75q-1.5.1-2.9.25-.1.85-.3 1.95 2.1-.4 2.75-1.5.25-.35.45-.7m-12-15.05q4.05 3 10.55 3-3.35-2.65-10.55-3m26.3-9.9q0-2.1-.9-3.9-4.1 5.7-9 9.45.75 1 4.25 5.15 1.75-.95 2.95-2.35 2.7-3.2 2.7-8.35M234 144.7q.2-.5.2-3.75 0-5.5-2-9.1-1.1-1.9-7.15-9.35-.2.55-2.1 11.05 0 .1 4.3 5.3 4.25 5.3 4.6 10.4v.2q2.05-3.95 2.15-4.75m-21.65 2.7q.1-4-.4-5.9-2.1-7.05-16.55-7.95 0 3.15-1 5.1-1.1 1.95-1.1 2.45 0 3.1 6.45 7.6 6.45 4.4 10.8 4.4 1.2 0 1.5-.05.25-.15.9-.7-.65-1.35-.6-4.95m4.2-30.3q0-3.3-9.75-.6-5.05 1.4-7.5 2.65.2.3.4.55-1.15 1.55-2 3.4.9 1.35 3.65 2.1 2.85.95 12.7 3.35 2.5-9.5 2.5-11.45m-8.85-11.35q2.4.05 9.2.75.3.95.3-.9 0-4.2-4.3-3.95-4.2.25-5.1 3.95l-.1.15m-23.35-8.55q-.15-.1-.6 0-2.4 1.4-5.05 2.15-2.9.7-4.15.95l1.25 1.25q1.15 1.25 1.9 1.25 1.7 0 6.65-5.6m-2.7-18.25q-3.2-2.6-11.15-4.5-1.55 1.25-3.9 1.25-3.75 0-4.95-2.95-2.55-.4-5.4-.75-3.75.35-4.75 1.5-.35.35-.35 1.45 0 2.35 2.95 4 .5.35 6.2 2.9 8.7 3.75 7.35 10.3.05 0-.3.35-.15.2 1.05.2 2.5 0 9.75-2.65 8.15-3.05 8.7-3.1-2.05-5.35-5.2-8m-19.3-16.9q.6-2.3 1.85-4-5.25-3.25-10.2-5.3-1.35.85-2.75 4-1.5 3.1-1.8 5.55.2 1.7.55 1.9 6.05-1.95 10.25-2.15.95-.15 2.1 0m2.25-15.55q1.8 1.15 3.55 2.35-2.6-4-6.95-7.3-10.3-7.95-24.1-7.75-14.6.15-24.15 9.55-6 6-8.7 14.65.6.25 1.05.55.5 0 6.15-6.55 7.7-6.65 18.4-6.65 6.5 0 11 2.05 1.15.45 3.65 2.3.3-.95 0-2.6-.35-2.1-.35-2.65 0-11.25 20.45 2.05z"/><path fill="#B78057" d="M156.25 303.9q-8 23-8.5 26.65-.45 3.75 1.55 6.65 3.75 3.1 7.55 2.7 3.2-.35 7.65-19.8.7-3.3 1.45-7 5.3-26.4 12.85-42.6 7.45-16.15 14.05-23.8-4.8-3.25-8.55-8.8-3.35 7.45-10 21.6-6.85 14.65-12.75 29.95-2.7 7.15-5.3 14.45m5.3-14.45q-1.2-17.2-1.6-35.2-9.95 6.3-20.45 6.3-1.15 0-2.45-.1-6.35 86.75-27 132.75-2 3.25.55 5.05 2.4 1.8 11.45-.3 8.9-23.5 11.6-49.2-2.7 25.7-11.6 49.2 12.9-.6 17.85 1.75 3.7-17.45 4.6-39.4-.9 21.95-4.6 39.4 11.85 1 22.3-1.45-3.9-16.8-6.35-42.9 2.45 26.1 6.35 42.9l16.5-3q-9.5-35.05-14.2-75.15-4.45 19.45-7.65 19.8-3.8.4-7.55-2.7-2-2.9-1.55-6.65.5-3.65 8.5-26.65 2.6-7.3 5.3-14.45z"/><path fill="#329823" d="M48.35 213.85q-2.55 0-4.9-.45-2.7 1.25-6.15 1.25-3.9 0-6.75-1.55 1.25 2.1 2.85 4 1.6 1.95 3.3 3.55.05.15.2.3 1.4 2.8 5.55 3.95 6.7 3.8 15.4 3.8h2.85q3.2 4.35 7.35 7.1-4.5-4.9-7.35-13-.95-2.6-1.65-5.45-1.85-1.1-3.7-2.55-.8-.75-1.45-1.45-2.55.5-5.55.5m75.25 42.7q7.85 3.25 13.45 3.9 1.3.1 2.45.1 10.5 0 20.45-6.3 7.05-4.5 13.85-12.2 3.95-4.45 7.4-9.5 1.45 2.85 3.1 5.35 3.75 5.55 8.55 8.8 6.75 4.6 15.6 4.6 14.4 0 23.55-8.85-6.45 4.05-15.1 4.05-13.55 0-19-8.85-1.7-2.85-2.25-6.15-.3-1.7-.3-3.15 0-4.5 2.75-8.15-7.65-3.1-18.25-3.25 1.5 3.05 1.5 6.55 0 1.95-3.75 7.3-4.25 5.9-10.15 11.4-16.35 15.15-32.05 15.15-6.45 0-11.8-.8M97.05 239.6q-1.75 1.7-4.2 2.6 6.15 7.8 16.85 9.9-6.3-3.4-9.85-9.15-1-1.55-1.75-3.4h-1l-.05.05m.3-24.3q-4.45-.45-7.75-1.75-.9 1.65-2.5 2.85 1.65 1.35 4.2 2.4 3.05 1.35 4.75 2.35.35-3.1 1.3-5.85m-88.5-53.65q-3.75 6.5-3.75 11.25 0 .2 1.8 9.4 3.25 8.45 10.7 9.15 1.45 3.3 4.55 4.65.5 1.5 1.15 2.95.25.55.55 1.05-.05-.4-.05-.8v-3.1q0-1.4.05-2.5-.55-1.3-1-2.6-2.55-7.2-3.8-15.8-.75-7.2-.75-7.4 0-10.2 6.75-21.85-3.2.6-7.9 5.1-4.9 4.6-8.3 10.5m60.55-95q3.65-2.7 6.95-4.7Q72.3 63.2 68.5 65 54 72.1 54 83.7q0 1.5 2.75 11.85 1.6 6.2 3.35 11.9-11.4-.15-19.6 6.5-9.65 7.95-9.65 21.85 0 .65.05 1.45 7.5-10.05 17.65-17.55 10.15-7.55 17.75-8.6 0-.1.05-.15 2.9-7.75 4.9-12.8.45-4.35 2.1-8.3-17.75-2.8-17.75-11.1 0-2.2 13.8-12.1m199 120.75q-.25 5.55-4.8 9.05-1.4.85-2.75 1.8 6.6 1.75 9.15 7.95 1.5 3.75 1.5 11.15 0 7.2-2.6 9.45-5.05 4.15-23.4 4.15-1.85 0-3.4-.35-.2.45-.4.8-2.85 5.35-6.8 8.85 2.65-.25 5-.75 3.75 3.05 9.45 3.05 9.2 0 19.05-9.05.15-.2.35-.25 6.65-.4 9.45-5.9 1.75-3.35 1.75-7.6 0-2.8-.45-4.75.45-2.8.45-5.7 0-2.6-.8-4.95-.6-5.3-4.2-6.85-.35-.35-.7-.65-.35-.3-.75-.6-.8-4.2-4.15-7.8-.45-.55-.95-1.05m-23.7-69.35q1.3 4.15 2.15 9.15 2.9 18.3 3.45 20.15.8 2.3 10.1 18.7 6.1 10.75 7.55 17.3 2.4-.95 3.55-4.4.8-2.25.8-5.3 0-7.3-6.1-15.95-1.9-2.65-4.1-5.1-.6-16.6-9.25-27.25-3.75-4.6-8.15-7.3m-31.55-39.5q.2.25.45.4 5.55 5.25 7.95 12.95 8.05 2.25 12 6.25 3.3 3.4 5.95 9.55.4.5.75 1.1-.95-17.3-10.3-26.15-7.35-6.9-17.35-7.05.4 1.45.55 2.95M173 52.25q6.05-1.35 14.25 1.35 9.45 3.15 16.7 9.7-.95-1.6-2.15-3.15-6.8-8.95-16.55-11-5.8-1.3-10.5.4Q173 45.3 169.6 42q-6.35-6.1-15.45-5.95-.5 0-.95.05-1.55-1.95-3.35-3.6-8.1-7.3-21.3-3.6-11.75 3.35-21.3 13.1-7.1 7.2-9.05 13.95 1.85.35 3.75 1.05 1.25.5 2.3 1 2.7-8.65 8.7-14.65 9.55-9.4 24.15-9.55 13.8-.2 24.1 7.75 4.35 3.3 6.95 7.3 2.5 1.7 4.85 3.4m10.3 8.1h-.25q5.85 5.15 10.8 10.7 1.9.05 3.7.3-8.55-11-14.25-11M131 209.2q-2 1.55-4 2.6-.3 4.1-3.15 7.05-3.1 3.2-3.1 6.2 0 2.8 3.1 4.7 3.85 1.1 3.95 1.1 8.1 0 13.2-5.25 2.75-2.85 5.6-7.95-6.45-5.3-9.5-13.8-3.1 3-6.1 5.35m16.3-12.4q-.75-2.4-1.2-4.95-.45 1.6-.45 3.65 0 3.4 2 8.7 2.75 7.6 7.2 7.6 1-.65 1.95-1.15-6.65-4.7-9.5-13.85m-16.55-8.15q-6.2 4.1-9.25 6.4-3.1 2.25-4.35 4.15 2.65.15 4.95 1.55l.3.15q.8-.15 1.55-.15 2.15 0 3.5.8 2.05-1.75 2.85-4.4.75-2.3.45-8.5m-20.7 2.3q-1.55 1.45-3.2 2.45v5.45q1.65-5.5 6.85-10.4 6.4-5.95 16.5-9.3-4.95-16.8-14.35-5.7-1.45 1.75-2.9 4 1.5 2.55 1.5 4.1 0 5.15-4.4 9.4M87.3 150.1q-.05.55-.15 1.25-.2 1.1-.3 1.95.9-1.4 1.9-2.65-.75-.2-1.45-.55m-38.4 24.3q4.15 4.9 8.7 4.9 3.5 0 5.8-1.1-5.5-.05-9-2.75-1.25-1.05-2.95-3.4-1.35 1.2-2.55 2.35m-4.05-15.65q-.2.6-.4 1.15 1.05.65 1.75 1.55.6-1.55.75-2.85-.9.15-1.95.15h-.15m16.2 9.55l.35.2h3.5l-3.85-.2M77.6 140q-13.75-2.9-15.4 1.85-.55 1.55-1.3 5.4-1.15 3.55-4.55 5.5v6.35q.4 0 5.45-.35 8.05 0 10.85 3.05 1.5 1.55 2.15 4.05.15 0 2.05-1.15t2.45-1.7q-.9-1.55-1.5-4.2-.45-2.3-.45-3.95 0-1.75.45-6.15.45-3.85 1-6.6-.65-1-1.2-2.1m59.05-70.85q2.85-9.1 2.85-8.8 0-.75-.2-1.45-7.65.25-10.75 7.05l-1.1 4.8q1.05 2.2 1.05 5.2v.95q2.3 1.5 3.2 1.5 1.65 0 4.95-9.25m-6.05 71.45q-4.85-.9-7.7-3.9-6.6-.85-12.1-4.25.65 2 .65 4.7 0 1.9-.55 3.8 2.1-.2 4.5-.2 6.15 0 11.65 1.2 1.8-.6 3.55-1.35m20.5-40.7q-3.55 2.1-5.45 6.8-1.6 4.25-1.5 8.9 0 .8 1.45 4 2.15.85 4.8 1.35 3.6-7.55 3.6-16.1 0-.6-2.6-4.55-.15-.25-.3-.4m-33.4-4.15h-1.15q-1.3 4.65-3.95 13.95-1.35 4.7-2.35 8.6 2.75 2.25 6.3 4.35.8.45 2.35 1.3v-1.25q.35-3.65.35-4.15 0-14.25 5.3-24.75-2.85 1.95-6.85 1.95m-12-4.5q-.4-.5-.8-1.05-1.4.4-2.5.95.55 1 .55 2.45 0 .55-.3 1.35 1.5-1.9 3.05-3.7M99.8 66.1q.05 0 .15-.05-2.05-1-7.15 0-7.35 1.35-11.2 3.85-2.85 2.2-6.85 4.55-4.55 2.65-6.9 4.1.4.4 3.45.9 2.9.5 4.45.5 2.4 0 4.5-1.05Q88 70.25 99.8 66.1m141.4 128.05q-.45.2-.8.35.35.5.65 1 .05-.65.15-1.35m-22.6 9.5q-.4-.45-2.7.15-.85.2-1.6.4-.95 1.6-2.1 3.65.1.95.5 1.35.6.5 1.9.5 2.9 0 4.35-4.8-.3-.75-.35-1.25m-12.7-26.45l-.3.9q.1-.05.3-.1.45-.2 1-.35l-.1-.1q-.15-.15-.9-.5v.15m45.4-6.85q-.05-.05-.05-.1-.1 7.25-2.4 13.65.3.95.55 1.95.55-.2 1.15-.15 2.55.2 4.3 3.15.55.95.95 2 .75-.55 1.4-1.1 1.85-1.65 1.85-3.1 0-2.4-7.75-16.3m-80.7 11.25q3.65 1.8 5.2 2.85.15-1 .15-3.1 0-5.65-4.15-10-1.45 3.3-1.45 7.15 0 1.2.25 3.1m29.6-14.7q0-2.4-2.6-5.8h-.75q-2.05 0-7.5-2.9-4.6-2.6-6.45-4.1h-3.2q.7 3.6-.1 7.2.7 3.2 1.6 5.8 3.6 10.05 11.55 18.35 2.7-.9 3.75-1 .7-4.3 2-8.7 1.7-5.7 1.7-8.85M97.5 195.2q-3.45-.5-6.05-2.55Q89 197 89 199.45q0 2.7 2.15 4.2 2.3 1.5 7.3 1.95-.95-5.2-.95-10.4m64.65-59.2l1.5-1.2q-.85-.9-1.9-1.65-4.15.15-7.75-.15-4 4.75-9.5 9.2-2.75 2.3-5.4 4.1 8.1 4.4 8.1 10.55 0 4.45-3.6 8-3.3 3.3-8.05 3.95.7 1.2 2.5 5.4 1.15 2.6 2.05 2.6.25 0 5.8-3.65.75-9.4 4.65-16.85 1.55-3 3.4-5.3 1.55-9.35 8.2-15m5.4-21.45q-.95-.05-2-.05-3.4 5-3.4 6.05 0 .6.75 1.75 6.7.4 8.4.75 5.45 1.3 5.45 5.15 0 .6-.1 1.65 1.4-.15 2.9-.25 2-2.95 3.75-4.2-1.05-.85-2-3.05-1.15-2.55-1.85-3.5-.6-.75-1.35-1.3-6.5 0-10.55-3m25.4-13.8q.9 1.8.9 3.9 0 5.15-2.7 8.35-1.2 1.4-2.95 2.35.3.35.55.7 1.65-2.25 5.25-5.3 2.15-1.8 2.15-4.35 0-1.55-.5-4-.6-2.65-1.25-3.8-.7 1.1-1.45 2.15m6.75 18.95q-.2-.25-.4-.55-2.2 1.15-2.2 2.3 0 .9.6 1.65.85-1.85 2-3.4m31.05-8.65q-2.1-4.35-4.2-6.2v.15q-1.35 2.65 1.1 6.05 1.55 2.1 5.8 5.95-1.55-3.6-2.7-5.95z"/><path fill="#3EBD49" d="M168.15 48.85q-1.75-1.2-3.55-2.35-20.45-13.3-20.45-2.05 0 .55.35 2.65.3 1.65 0 2.6-2.5-1.85-3.65-2.3-4.5-2.05-11-2.05-10.7 0-18.4 6.65-5.65 6.55-6.15 6.55-.45-.3-1.05-.55-1.05-.5-2.3-1-1.9-.7-3.75-1.05-2.15-.4-4.25-.4-7.1 0-17.6 6.4-3.3 2-6.95 4.7-13.8 9.9-13.8 12.1 0 8.3 17.75 11.1.65.05 1.25.2l-.4.55q-1 2.4-2.95 7.55-2 5.05-4.9 12.8-.05.05-.05.15-2.05 5.45-3.85 9.85-.3.2-.65.35-9.6 5.95-16.05 13.5-7.1 8.4-7.3 15.4-.4.3-.85.65-16.2 13.6-16.2 20.7 0 .2.85 5.45 2.5 5.1 11.15 5.1 4.35 0 8.25-2.05 4.55 5.95 10.1 8-2.25.6-3.05.6-4.7 0-9.85-1.7-5.1-1.75-7.75-1.75-5.2 0-6.75 4.7-.4 1.25-.5 3.8-.05 1.1-.05 2.5v3.1q0 .4.05.8.15 3 1 5.5 1.75 5.3 5.7 7.5 2.85 1.55 6.75 1.55 3.45 0 6.15-1.25 1.2-.6 2.3-1.45 2.7-3 3.2-3.2.5.35 4.95 4.6.65.7 1.45 1.45 1.85 1.45 3.7 2.55 5.05 2.8 10.05 2.8 12.85 0 18-3.75 1.6-1.2 2.5-2.85 3.3 1.3 7.75 1.75 1.6.2 3.5.25 2.75 8.05 7.35 11.4-1.9.95-3.95 1.6-3.9 1.3-7.95 1.3-2.85 0-5.7-4.8-2.75-4.9-5.55-4.9-4.6 0-4.6 5.45l2.9 6.95q4.65 7 13.4 7h1.35q3.1-.25 5.75-1.3 3.2-1.35 7.65-1.35 3.5 0 8.65 1.7 5.3 1.7 10.45 1.7 9.2 0 14-5.3 2.6-2.75 4.95-6.7 1.25-.9 3.95-3.4 3.35-2 10-1.55 1.7.05 8.2-3.2 3.3-1.65 6.35-3.25.9 0 1.8.05 10.6.15 18.25 3.25 1.6.65 3.15 1.45 8.95 4.7 14.7 4.7 8.1 0 20.45-9 6.3-4.55 11.3-9.5 6.2-5 13.15-9.6 1.35-.95 2.75-1.8 4.55-3.5 4.8-9.05v-.5q0-1.6-.45-3.55-1.45-6.55-7.55-17.3-9.3-16.4-10.1-18.7-.55-1.85-3.45-20.15-.85-5-2.15-9.15-1.75-5.3-4.45-9.25-.35-.6-.75-1.1-2.65-6.15-5.95-9.55-3.95-4-12-6.25-4.5-1.3-10.25-2.05-9.3-1.15-12.5-6.9-2.45-7.6-4.55-11.35-.25-.25-.4-.55-4.95-5.55-10.8-10.7h.25q5.7 0 14.25 11 .95 1.2 1.85 2.5 4.9 6.8 9.15 13.5 3.55 0 4.4-2.9.3-.9.3-4.35 0-.8-.1-1.55-.15-1.5-.55-2.95-1.7-5.65-7.55-11.25-.5-.5-1.1-1.05-7.25-6.55-16.7-9.7-8.2-2.7-14.25-1.35-2.35-1.7-4.85-3.4m-3.95 9.2q-1.25 1.7-1.85 4-1.15-.15-2.1 0-4.2.2-10.25 2.15-.35-.2-.55-1.9.3-2.45 1.8-5.55 1.4-3.15 2.75-4 4.95 2.05 10.2 5.3m6.3 16.4q7.95 1.9 11.15 4.5 3.15 2.65 5.2 8-.55.05-8.7 3.1-7.25 2.65-9.75 2.65-1.2 0-1.05-.2.35-.35.3-.35 1.35-6.55-7.35-10.3-5.7-2.55-6.2-2.9-2.95-1.65-2.95-4 0-1.1.35-1.45 1-1.15 4.75-1.5 2.85.35 5.4.75 1.2 2.95 4.95 2.95 2.35 0 3.9-1.25m13.25 22.75q.45-.1.6 0-4.95 5.6-6.65 5.6-.75 0-1.9-1.25l-1.25-1.25q1.25-.25 4.15-.95 2.65-.75 5.05-2.15m42.8 7.65q2.1 1.85 4.2 6.2 1.15 2.35 2.7 5.95-4.25-3.85-5.8-5.95-2.45-3.4-1.1-6.05v-.15m-9.65 1.65q-6.8-.7-9.2-.75l.1-.15q.9-3.7 5.1-3.95 4.3-.25 4.3 3.95 0 1.85-.3.9m-10.1 10q9.75-2.7 9.75.6 0 1.95-2.5 11.45-9.85-2.4-12.7-3.35-2.75-.75-3.65-2.1-.6-.75-.6-1.65 0-1.15 2.2-2.3 2.45-1.25 7.5-2.65m5.15 25q.5 1.9.4 5.9-.05 3.6.6 4.95-.65.55-.9.7-.3.05-1.5.05-4.35 0-10.8-4.4-6.45-4.5-6.45-7.6 0-.5 1.1-2.45 1-1.95 1-5.1 14.45.9 16.55 7.95m22.25-.55q0 3.25-.2 3.75-.1.8-2.15 4.75v-.2q-.35-5.1-4.6-10.4-4.3-5.2-4.3-5.3 1.9-10.5 2.1-11.05 6.05 7.45 7.15 9.35 2 3.6 2 9.1m-38.05-34.55q0 2.55-2.15 4.35-3.6 3.05-5.25 5.3-.25-.35-.55-.7-3.5-4.15-4.25-5.15 4.9-3.75 9-9.45.75-1.05 1.45-2.15.65 1.15 1.25 3.8.5 2.45.5 4m-30.6 8.1q1.05 0 2 .05 7.2.35 10.55 3 .75.55 1.35 1.3.7.95 1.85 3.5.95 2.2 2 3.05-1.75 1.25-3.75 4.2-.2.35-.45.7-.65 1.1-2.75 1.5.2-1.1.3-1.95.1-1.05.1-1.65 0-3.85-5.45-5.15-1.7-.35-8.4-.75-.75-1.15-.75-1.75 0-1.05 3.4-6.05m-1.9 20.3q.7.7 1.3 1.55-2.05 6.15-3.2 14-1 6.5-1.3 13-3 1.95-6.95 4.6-4.65 3.15-7.6 5.2-5.55 3.65-5.8 3.65-.9 0-2.05-2.6-1.8-4.2-2.5-5.4-.05-.15-.15-.25-4.65-8.2-13.5-8.2-14.3 0-20.7 16.45-3.7 9.5-3.7 18.4 0 5.2.95 10.4-5-.45-7.3-1.95-2.15-1.5-2.15-4.2 0-2.45 2.45-6.8.95-1.75 2.25-3.8 4.6-7.1 4.6-8.25 0-5.3-2.9-5.15-.85.1-1.8.6 8.55-10.4 8.55-15.9 0-7.6-6.1-15.8-6.1-8.15-6.1-8.3 0-2.55 6.35-13.9.9-1.6 1.8-3.05 1.05 1.75 2.25 3.4-2.05 8.95-2.05 9.95 0 .1-.05 3.5.25 3.9 1.6 7.1 4.3 10.3 18.2 10.3 10.35 0 21.05-7.05 2.65-1.8 5.4-4.1 5.5-4.45 9.5-9.2 3.6.3 7.75.15 1.05.75 1.9 1.65m13.9 10.9v-.15q7.2 3.15 14.75 9.95 3.35 3.1 5.3 5.6 2.6 3.4 2.6 5.8 0 3.15-1.7 8.85-1.3 4.4-2 8.7-.35 2.05-.5 4.15-1.7-1.55-3.25-3.15-7.95-8.3-11.55-18.35-.9-2.6-1.6-5.8-1.45-6.55-2.05-15.6m-6.7 25.8v-1.15l.05.05q.45.45.9.95 4.15 4.35 4.15 10 0 2.1-.15 3.1-1.55-1.05-5.2-2.85-1.25-.6-2.6-1.3 2.5-2.1 2.85-8.8m13.35 25.05q.9-2.8 1.05-3.6 2.9 0 7.3 3.6 5.2 4.2 6.6 9.4l-1.8.9q-1.25.7-2.35.7-2.25 0-7.05-3.75-4.35-3.6-4.35-4.15 0-1 .6-3.1m42.4-30.7q.15-.4.95-.75.45-.25.9-.3.4.4 1.15 3.75.9 4.35 1.1 4.9h-.95q-.2-.85-1.5-3.8-1.35-2.85-1.65-3.8m11.95 3.45q-1.8-3.3-1.8-9.4 0-.9 2-3.7 1.75-2.2 2.95-3.45.05.3 9.55 17.5 0 .05.05.1 7.75 13.9 7.75 16.3 0 1.45-1.85 3.1-.65.55-1.4 1.1-2.05 1.4-5.3 2.7v-.35q-.3-4.05-1.1-7.35-.25-1-.55-1.95-1.9-6.35-6-9.95-3.25-3-4.3-4.65m-26.1.15q-.55-.95-.9-1.5-.4-.8-.4-1.95l1.5-1.3q1.75-1.35 3.5-1.7.35.95 1.05 4.15-2.6.35-3.55 1.3-.7.85-1.2 1m-6.85 8.65l.3-.9v-.15q.75.35.9.5l.1.1q.5.55.5 1.65 0 1.3-.65 2.05-.15.2-1.1.75l-.15-.15v-3.55l.1-.3m13.8 10.55q.85 5.85.85 7.6 0 .2-.85 6.85-.25.95-.45 1.8-1.45 4.8-4.35 4.8-1.3 0-1.9-.5-.4-.4-.5-1.35 1.15-2.05 2.1-3.65 2.15-3.9 2.9-5.9 2.1-5.2 1.6-9.65.5-.05.6 0m21.8 5.5q-.1.7-.15 1.35-.35 3.8-1.95 6.05-2.85 3.9-12 8.5l.2-.55q2.25-4.4 2.35-10.6 0-3.05-.65-9.85 5.7 1.85 8.35-1.05 1.35-1.5 1.55-3.95 1.1.55 1.75 4.05.55 2.75.55 5.1v.95M92.8 66.05q5.1-1 7.15 0 1.25.65 1.25 2.1 0 3.25-.55 9.55.9 5.45 8.1 10.2-1.55 1.65-3.05 3.35-1.55 1.8-3.05 3.7.3-.8.3-1.35 0-1.45-.55-2.45-1.3-2.55-6-2.05-6.65.9-6.65 6.2 0 6 2.95 13.3-.45.55-.8 1.1-6.55 10.75-10.3 21.1-.8-.1-4-1.65-2.3-.95-8.55-.9 3.25-1.6 10.4-4.85 5.6-2.55 5.6-3.35 0-6.15-7.3-5.3-1.6.15-3.25.7 3.6-8 4.8-12.2 2.9-11.1 10.05-15.15 3.25-1.75 4.2-3.05 1.7-2.3 1.7-7.35.3-1.6-.2-3.05-1-2.85-4.95-2.85-2.85 0-6.2 4.15-1.65 2-3.65 2.95-2.1 1.05-4.5 1.05-1.55 0-4.45-.5-3.05-.5-3.45-.9 2.35-1.45 6.9-4.1 4-2.35 6.85-4.55 3.85-2.5 11.2-3.85m25.65 15.25l-.4.2q-2.1.1-4.95-2.35-2.65-2.4-3.2-4.2.75.3 4.3 3.05 1.75 1.4 4.25 3.3m-1.9 14.45q1.15-4.2 1.15-4.7 16.1 0 25.8-1 2-.05 2.65.7.4.45 1.35 3 .75 1.9 3.6 6.15.15.15.3.4 2.6 3.95 2.6 4.55 0 8.55-3.6 16.1-2.65-.5-4.8-1.35-7.6-2.85-9.7-8.9-.6-1.85-1.25-5.95-.45-3.55-1.4-5.2-3.75-5.95-6.45-1.9-2.1 3.15-2.1 7 0 8.95 7.25 17.55 4.85 5.8 11.9 8.6-5.7 6.6-13.25 9.8-1.75.75-3.55 1.35-6 1.85-13.1 1.85-3.9 0-5.55-5.65-.75-5.7-.75-5.85 0-.85.15-1.95 1.45 1.15 3 2.1 5.5 3.4 12.1 4.25 2.15.3 4.5.3 3 0 4.6-1.4 1.25-1.2 1.25-3.15 0-1.25-5.15-3.85-6.05-3.05-9.2-4.65-1.55-.85-2.35-1.3-3.55-2.1-6.3-4.35 1-3.9 2.35-8.6 2.65-9.3 3.95-13.95m22.95-35.4q0-.3-2.85 8.8-3.3 9.25-4.95 9.25-.9 0-3.2-1.5-2.45-1.65-6.45-4.95-8-6.85-9.05-7.55 10.75-8.95 19.15-9.15 6.25-.15 7.15 3.65.2.7.2 1.45m-77.3 81.5q1.65-4.75 15.4-1.85.75.2 1.55.35-.15.8-.35 1.75-.55 2.75-1 6.6-.45 4.4-.45 6.15 0 1.65.45 3.95.6 2.65 1.5 4.2-.55.55-2.45 1.7-1.9 1.15-2.05 1.15-.65-2.5-2.15-4.05-2.8-3.05-10.85-3.05-5.05.35-5.45.35v-6.35q3.4-1.95 4.55-5.5.75-3.85 1.3-5.4m-31.35 30.5v-1.75q1.9-1.75 3.75-3.4.9 2.4 2 4.5-.4.35-.8.65h-4.95m30.55-3.85l-.35-.2 3.85.2h-3.5M45 158.75q1.05 0 1.95-.15-.15 1.3-.75 2.85-.7-.9-1.75-1.55-.35-.15-.7-.35.45-.4 1-.8H45m12.6 20.55q-4.55 0-8.7-4.9 1.2-1.15 2.55-2.35 1.7 2.35 2.95 3.4 3.5 2.7 9 2.75-2.3 1.1-5.8 1.1m22.3 17.15q-2.4-1.95-5.7-4.45 4.65-1.6 10.2-6.4-3.6 5.5-4.5 10.85m-2.55-18.05v-.6q.25-3.4 4.45-6.05 2.25-1.4 5.7-3.2-6.1 8.25-10.15 9.85m10.15-30.45v-.2q1.1 1.9 3.25 6.85 2.1 4.95 2.1 5.55 0 1.15-1.5 3.35-.4.55-2.6 3.25V166q.85-1.7-.5-5.55-1.5-4.65-1.5-5.9 0-.45.1-1.25.1-.85.3-1.95.1-.7.15-1.25.2-1.35.2-2.15m19.35 41.85q.45-1.9 2.85-6.65 1.6-3.2 3.25-5.7 1.45-2.25 2.9-4 9.4-11.1 14.35 5.7-10.1 3.35-16.5 9.3-5.2 4.9-6.85 10.4v-9.05m14.65 5.25q3.05-2.3 9.25-6.4.3 6.2-.45 8.5-.8 2.65-2.85 4.4-1.35-.8-3.5-.8-.75 0-1.55.15-2.55.5-6.2 2.3v-1.5q0-1.2.95-2.5 1.25-1.9 4.35-4.15m28.55-8.7q3.75-2.1 9.65-.4 5.5 1.6 9.6 5.35 4.4 4.15 4.4 8.3 0 .25-16.9 11.05-.95.5-1.95 1.15-4.45 0-7.2-7.6-2-5.3-2-8.7 0-2.05.45-3.65.9-3.8 3.95-5.5m7-10.3v-.15q1.65-2.65 3.35-4.2v3.05q.2 1.5.45 2.55-2.65-1-3.8-1.25M127 211.8q2-1.05 4-2.6 3-2.35 6.1-5.35 3.05 8.5 9.5 13.8-2.85 5.1-5.6 7.95-5.1 5.25-13.2 5.25-.1 0-3.95-1.1-2.35-.7-5.95-1.8l.4-.25q.85-.85 1.15-1.45.65-.95.65-2.1 0-2.45-6.25-7.55-1.3-1.05-2.35-2.1 1.85-.4 3.6-.95 1.4.35 2.95.35 4.7 0 8.95-2.1m-57.8-1.35q-3.95 0-7.4-2.75-2.65-2.95-2.95-3.1 5.3-7.75 11.3-3.95 1.5.9 4.95 4.1 3.05 2.8 4.95 3.7-2.25 1.6-5.65 1.95-.65.05-5.2.05m-33.6-5.3q-1.35 0-2.05-3.25-.45-2.25-.45-4.3.75.3 3.3 2.4 2.8 2.3 3.8 3.85l-.35.55q-1.2.75-4.25.75z"/></g><path id="b" stroke="#4D3122" stroke-width="2" stroke-linejoin="round" stroke-linecap="round" fill="none" d="M192.85 246.7q-6.6 7.65-14.05 23.8-7.55 16.2-12.85 42.6-.75 3.7-1.45 7 4.7 40.1 14.2 75.15l-16.5 3q-10.45 2.45-22.3 1.45-4.95-2.35-17.85-1.75-9.05 2.1-11.45.3-2.55-1.8-.55-5.05 20.65-46 27-132.75m24.5 29q-1.2-17.2-1.6-35.2m4.55 65.85q-4.45 19.45-7.65 19.8-3.8.4-7.55-2.7-2-2.9-1.55-6.65.5-3.65 8.5-26.65 2.6-7.3 5.3-14.45 5.9-15.3 12.75-29.95 6.65-14.15 10-21.6m-62.25 160.05q8.9-23.5 11.6-49.2m28.55 49.5q-3.9-16.8-6.35-42.9M139.9 399.7q3.7-17.45 4.6-39.4"/><path id="c" stroke="#26761B" stroke-width="2" stroke-linejoin="round" stroke-linecap="round" fill="none" d="M212.6 75.6q10 .15 17.35 7.05 9.35 8.85 10.3 26.15M98.2 55.95q1.95-6.75 9.05-13.95 9.55-9.75 21.3-13.1 13.2-3.7 21.3 3.6 1.8 1.65 3.35 3.6.45-.05.95-.05 9.1-.15 15.45 5.95 3.4 3.3 5.15 7.55 4.7-1.7 10.5-.4 9.75 2.05 16.55 11 1.2 1.55 2.15 3.15m40.75 54.75q4.4 2.7 8.15 7.3 8.65 10.65 9.25 27.25 2.2 2.45 4.1 5.1 6.1 8.65 6.1 15.95 0 3.05-.8 5.3-1.15 3.45-3.55 4.4m.45 4.05q.5.5.95 1.05 3.35 3.6 4.15 7.8.4.3.75.6t.7.65q3.6 1.55 4.2 6.85.8 2.35.8 4.95 0 2.9-.45 5.7.45 1.95.45 4.75 0 4.25-1.75 7.6-2.8 5.5-9.45 5.9-.2.05-.35.25-9.85 9.05-19.05 9.05-5.7 0-9.45-3.05-2.35.5-5 .75m-2.9 2.2q-9.15 8.85-23.55 8.85-8.85 0-15.6-4.6m-55.8 13.75q-5.6-.65-13.45-3.9m-13.9-4.45Q99 250 92.85 242.2m-24.8-6.4q-4.15-2.75-7.35-7.1h-2.85q-8.7 0-15.4-3.8-4.15-1.15-5.55-3.95-.15-.15-.2-.3-1.7-1.6-3.3-3.55-1.6-1.9-2.85-4m.35-75.85q-.05-.8-.05-1.45 0-13.9 9.65-21.85 8.2-6.65 19.6-6.5-1.75-5.7-3.35-11.9Q54 85.2 54 83.7 54 72.1 68.5 65q3.8-1.8 7.85-3.05M23.85 200.1q-.3-.5-.55-1.05-.65-1.45-1.15-2.95-3.1-1.35-4.55-4.65-7.45-.7-10.7-9.15-1.8-9.2-1.8-9.4 0-4.75 3.75-11.25 3.4-5.9 8.3-10.5 4.7-4.5 7.9-5.1m134.9 108.2q-9.95 6.3-20.45 6.3-1.15 0-2.45-.1m47.25-22.55q-1.65-2.5-3.1-5.35-3.45 5.05-7.4 9.5-6.8 7.7-13.85 12.2m32.9-7.55q-4.8-3.25-8.55-8.8"/></defs><g><use xlink:href="#a"/><use xlink:href="#b"/><use xlink:href="#c"/></g></svg>