
<svg xmlns="http://www.w3.org/2000/svg" version="1.1" xmlns:xlink="http://www.w3.org/1999/xlink" preserveAspectRatio="none" x="0px" y="0px" width="285px" height="427px" viewBox="0 0 285 427">
<defs>
<g id="Layer0_0_FILL">
<path fill="#38AF27" stroke="none" d="
M 271.5 217.35
Q 271.5 209.95 270 206.2 267.45 200 260.85 198.25 253.9 202.85 247.7 207.85 242.7 212.8 236.4 217.35 224.05 226.35 215.95 226.35 210.2 226.35 201.25 221.65 199.7 220.85 198.1 220.2 195.35 223.85 195.35 228.35 195.35 229.8 195.65 231.5 196.2 234.8 197.9 237.65 203.35 246.5 216.9 246.5 225.55 246.5 232 242.45 233.5 241.45 234.9 240.25 238.85 236.75 241.7 231.4 241.9 231.05 242.1 230.6 243.65 230.95 245.5 230.95 263.85 230.95 268.9 226.8 271.5 224.55 271.5 217.35
M 43.45 213.4
Q 45.8 213.85 48.35 213.85 51.35 213.85 53.9 213.35 49.45 209.1 48.95 208.75 48.45 208.95 45.75 211.95 44.65 212.8 43.45 213.4
M 96.05 221.15
Q 94.35 220.15 91.3 218.8 88.75 217.75 87.1 216.4 81.95 220.15 69.1 220.15 64.1 220.15 59.05 217.35 59.75 220.2 60.7 222.8 63.55 230.9 68.05 235.8 74.95 243.3 85.75 243.3 89.8 243.3 92.85 242.2 95.3 241.3 97.05 239.6
L 97.1 239.55
Q 96.95 239.55 96.75 239.55 88 239.55 83.35 232.55
L 80.45 225.6
Q 80.45 220.15 85.05 220.15 87.85 220.15 90.6 225.05 93.45 229.85 96.3 229.85 100.35 229.85 104.25 228.55 106.3 227.9 108.2 226.95 103.6 223.6 100.85 215.55 98.95 215.5 97.35 215.3 96.4 218.05 96.05 221.15
M 149.55 228.3
Q 147.2 232.25 144.6 235 139.8 240.3 130.6 240.3 125.45 240.3 120.15 238.6 115 236.9 111.5 236.9 107.05 236.9 103.85 238.25 101.2 239.3 98.1 239.55 98.85 241.4 99.85 242.95 103.4 248.7 109.7 252.1 115.45 255.25 123.6 256.55 128.95 257.35 135.4 257.35 151.1 257.35 167.45 242.2 173.35 236.7 177.6 230.8 181.35 225.45 181.35 223.5 181.35 220 179.85 216.95 178.95 216.9 178.05 216.9 175 218.5 171.7 220.15 165.2 223.4 163.5 223.35 156.85 222.9 153.5 224.9 150.8 227.4 149.55 228.3
M 61.8 121.3
Q 62.15 121.15 62.45 120.95 64.25 116.55 66.3 111.1 58.7 112.15 48.55 119.7 38.4 127.2 30.9 137.25 29.25 139.35 27.8 141.65 26.3 143.85 25.05 146.05 18.3 157.7 18.3 167.9 18.3 168.1 19.05 175.3 20.3 183.9 22.85 191.1 23.3 192.4 23.85 193.7 23.95 191.15 24.35 189.9 25.9 185.2 31.1 185.2 33.75 185.2 38.85 186.95 44 188.65 48.7 188.65 49.5 188.65 51.75 188.05 46.2 186 41.65 180.05 37.75 182.1 33.4 182.1 24.75 182.1 22.25 177 21.4 171.75 21.4 171.55 21.4 164.45 37.6 150.85 38.05 150.5 38.45 150.2 38.65 143.2 45.75 134.8 52.2 127.25 61.8 121.3
M 74.6 90.05
Q 74 89.9 73.35 89.85 71.7 93.8 71.25 98.15 73.2 93 74.2 90.6
L 74.6 90.05
M 197.55 71.35
Q 195.75 71.1 193.85 71.05 194 71.35 194.25 71.6 196.35 75.35 198.8 82.95 202 88.7 211.3 89.85 217.05 90.6 221.55 91.9 219.15 84.2 213.6 78.95 213.35 78.8 213.15 78.55 213.25 79.3 213.25 80.1 213.25 83.55 212.95 84.45 212.1 87.35 208.55 87.35 204.3 80.65 199.4 73.85 198.5 72.55 197.55 71.35
M 33.55 201.9
Q 34.25 205.15 35.6 205.15 38.65 205.15 39.85 204.4
L 40.2 203.85
Q 39.2 202.3 36.4 200 33.85 197.9 33.1 197.6 33.1 199.65 33.55 201.9
M 61.8 207.7
Q 65.25 210.45 69.2 210.45 73.75 210.45 74.4 210.4 77.8 210.05 80.05 208.45 78.15 207.55 75.1 204.75 71.65 201.55 70.15 200.65 64.15 196.85 58.85 204.6 59.15 204.75 61.8 207.7
M 123.85 218.85
Q 126.7 215.9 127 211.8 122.75 213.9 118.05 213.9 116.5 213.9 115.1 213.55 113.35 214.1 111.5 214.5 112.55 215.55 113.85 216.6 120.1 221.7 120.1 224.15 120.1 225.3 119.45 226.25 119.15 226.85 118.3 227.7
L 117.9 227.95
Q 121.5 229.05 123.85 229.75 120.75 227.85 120.75 225.05 120.75 222.05 123.85 218.85
M 157.05 175.9
L 157.05 176.05
Q 158.2 176.3 160.85 177.3 160.6 176.25 160.4 174.75 160.4 172.9 160.4 171.7 158.7 173.25 157.05 175.9
M 146.1 191.85
Q 146.55 194.4 147.3 196.8 150.15 205.95 156.8 210.65 173.7 199.85 173.7 199.6 173.7 195.45 169.3 191.3 165.2 187.55 159.7 185.95 153.8 184.25 150.05 186.35 147 188.05 146.1 191.85
M 122.4 200.9
Q 122.2 200.8 122.1 200.75 119.8 199.35 117.15 199.2 116.2 200.5 116.2 201.7 116.2 202.65 116.2 203.2 119.85 201.4 122.4 200.9
M 106.85 193.4
Q 108.5 192.4 110.05 190.95 114.45 186.7 114.45 181.55 114.45 180 112.95 177.45 111.3 179.95 109.7 183.15 107.3 187.9 106.85 189.8
L 106.85 193.4
M 87.5 147.75
L 87.5 147.95
Q 87.5 148.75 87.3 150.1 88 150.45 88.75 150.65 87.75 151.9 86.85 153.3 86.75 154.1 86.75 154.55 86.75 155.8 88.25 160.45 89.6 164.3 88.75 166
L 88.75 166.75
Q 90.95 164.05 91.35 163.5 92.85 161.3 92.85 160.15 92.85 159.55 90.75 154.6 88.6 149.65 87.5 147.75
M 77.35 177.8
L 77.35 178.4
Q 81.4 176.8 87.5 168.55 84.05 170.35 81.8 171.75 77.6 174.4 77.35 177.8
M 74.2 192
Q 77.5 194.5 79.9 196.45 80.8 191.1 84.4 185.6 78.85 190.4 74.2 192
M 44.45 159.9
Q 44.65 159.35 44.85 158.75 44.8 158.75 44.75 158.75 44.2 159.15 43.75 159.55 44.1 159.75 44.45 159.9
M 30.85 170.6
L 30.85 172.35 35.8 172.35
Q 36.2 172.05 36.6 171.7 35.5 169.6 34.6 167.2 32.75 168.85 30.85 170.6
M 77.6 140
Q 78.15 141.1 78.8 142.1 79 141.15 79.15 140.35 78.35 140.2 77.6 140
M 127.45 70.75
L 128.55 65.95
Q 131.65 59.15 139.3 58.9 138.4 55.1 132.15 55.25 123.75 55.45 113 64.4 114.05 65.1 122.05 71.95 126.05 75.25 128.5 76.9 128.5 76.4 128.5 75.95 128.5 72.95 127.45 70.75
M 108.4 138.15
Q 110.05 143.8 113.95 143.8 121.05 143.8 127.05 141.95 121.55 140.75 115.4 140.75 113 140.75 110.9 140.95 111.45 139.05 111.45 137.15 111.45 134.45 110.8 132.45 109.25 131.5 107.8 130.35 107.65 131.45 107.65 132.3 107.65 132.45 108.4 138.15
M 116.55 95.75
Q 117.15 95.75 117.7 95.75 121.7 95.75 124.55 93.8 119.25 104.3 119.25 118.55 119.25 119.05 118.9 122.7 118.9 123.3 118.9 123.95 122.05 125.55 128.1 128.6 133.25 131.2 133.25 132.45 133.25 134.4 132 135.6 130.4 137 127.4 137 125.05 137 122.9 136.7 125.75 139.7 130.6 140.6 138.15 137.4 143.85 130.8 136.8 128 131.95 122.2 124.7 113.6 124.7 104.65 124.7 100.8 126.8 97.65 129.5 93.6 133.25 99.55 134.2 101.2 134.65 104.75 135.3 108.85 135.9 110.7 138 116.75 145.6 119.6 144.15 116.4 144.15 115.6 144.05 110.95 145.65 106.7 147.55 102 151.1 99.9 148.25 95.65 147.5 93.75 146.55 91.2 146.15 90.75 145.5 90 143.5 90.05 133.8 91.05 117.7 91.05 117.7 91.55 116.55 95.75
M 118.05 81.5
L 118.45 81.3
Q 115.95 79.4 114.2 78 110.65 75.25 109.9 74.95 110.45 76.75 113.1 79.15 115.95 81.6 118.05 81.5
M 99.95 66.05
Q 99.85 66.1 99.8 66.1 88 70.25 80.25 78.9 82.25 77.95 83.9 75.95 87.25 71.8 90.1 71.8 94.05 71.8 95.05 74.65 95.55 76.1 95.25 77.7 95.25 82.75 93.55 85.05 92.6 86.35 89.35 88.1 82.2 92.15 79.3 103.25 78.1 107.45 74.5 115.45 76.15 114.9 77.75 114.75 85.05 113.9 85.05 120.05 85.05 120.85 79.45 123.4 72.3 126.65 69.05 128.25 75.3 128.2 77.6 129.15 80.8 130.7 81.6 130.8 85.35 120.45 91.9 109.7 92.25 109.15 92.7 108.6 89.75 101.3 89.75 95.3 89.75 90 96.4 89.1 101.1 88.6 102.4 91.15 103.5 90.6 104.9 90.2 105.3 90.75 105.7 91.25 107.2 89.55 108.75 87.9 101.55 83.15 100.65 77.7 101.2 71.4 101.2 68.15 101.2 66.7 99.95 66.05
M 240.4 194.5
Q 240.75 194.35 241.2 194.15 241.2 193.7 241.2 193.2 241.2 190.85 240.65 188.1 240 184.6 238.9 184.05 238.7 186.5 237.35 188 234.7 190.9 229 189.05 229.65 195.85 229.65 198.9 229.55 205.1 227.3 209.5
L 227.1 210.05
Q 236.25 205.45 239.1 201.55 240.7 199.3 241.05 195.5 240.75 195 240.4 194.5
M 220.25 196.25
Q 220.25 194.5 219.4 188.65 219.3 188.6 218.8 188.65 219.3 193.1 217.2 198.3 216.45 200.3 214.3 204.2 215.05 204 215.9 203.8 218.2 203.2 218.6 203.65 218.65 204.15 218.95 204.9 219.15 204.05 219.4 203.1 220.25 196.45 220.25 196.25
M 205.6 178.1
L 205.5 178.4 205.5 181.95 205.65 182.1
Q 206.6 181.55 206.75 181.35 207.4 180.6 207.4 179.3 207.4 178.2 206.9 177.65 206.35 177.8 205.9 178 205.7 178.05 205.6 178.1
M 211.55 167.95
Q 211.9 168.5 212.45 169.45 212.95 169.3 213.65 168.45 214.6 167.5 217.2 167.15 216.5 163.95 216.15 163 214.4 163.35 212.65 164.7
L 211.15 166
Q 211.15 167.15 211.55 167.95
M 250.55 185.7
Q 249.95 185.65 249.4 185.85 250.2 189.15 250.5 193.2
L 250.5 193.55
Q 253.75 192.25 255.8 190.85 255.4 189.8 254.85 188.85 253.1 185.9 250.55 185.7
M 236.75 159.9
Q 236.75 166 238.55 169.3 239.6 170.95 242.85 173.95 246.95 177.55 248.85 183.9 251.1498046875 177.50078125 251.25 170.25 241.75 153.05 241.7 152.75 240.5 154 238.75 156.2 236.75 159 236.75 159.9
M 227.55 165.1
Q 226.75 165.45 226.6 165.85 226.9 166.8 228.25 169.65 229.55 172.6 229.75 173.45
L 230.7 173.45
Q 230.5 172.9 229.6 168.55 228.85 165.2 228.45 164.8 228 164.85 227.55 165.1
M 185.25 192.95
Q 185.1 193.75 184.2 196.55 183.6 198.65 183.6 199.65 183.6 200.2 187.95 203.8 192.75 207.55 195 207.55 196.1 207.55 197.35 206.85 198.05 206.5 199.15 205.95 197.75 200.75 192.55 196.55 188.15 192.95 185.25 192.95
M 170.85 170.35
Q 170.85 170.95 170.85 171.5 170.5 178.2 168 180.3 169.35 181 170.6 181.6 170.35 179.7 170.35 178.5 170.35 174.65 171.8 171.35 171.35 170.85 170.9 170.4
L 170.85 170.35
M 196 188.6
Q 196.15 186.5 196.5 184.45 195.45 184.55 192.75 185.45 194.3 187.05 196 188.6
M 177.55 145.55
L 177.55 145.7
Q 178.15 154.75 179.6 161.3 180.4 157.7 179.7 154.1
L 182.9 154.1
Q 184.75 155.6 189.35 158.2 194.8 161.1 196.85 161.1 197.2 161.1 197.6 161.1 195.65 158.6 192.3 155.5 184.75 148.7 177.55 145.55
M 98.1 119.1
Q 97.2 120.55 96.3 122.15 89.95 133.5 89.95 136.05 89.95 136.2 96.05 144.35 102.15 152.55 102.15 160.15 102.15 165.65 93.6 176.05 94.55 175.55 95.4 175.45 98.3 175.3 98.3 180.6 98.3 181.75 93.7 188.85 92.4 190.9 91.45 192.65 94.05 194.7 97.5 195.2 97.5 186.3 101.2 176.8 107.6 160.35 121.9 160.35 130.75 160.35 135.4 168.55 135.5 168.65 135.55 168.8 140.3 168.15 143.6 164.85 147.2 161.3 147.2 156.85 147.2 150.7 139.1 146.3 128.4 153.35 118.05 153.35 104.15 153.35 99.85 143.05 98.5 139.85 98.25 135.95 98.3 132.55 98.3 132.45 98.3 131.45 100.35 122.5 99.15 120.85 98.1 119.1
M 164.95 136.35
Q 164.35 135.5 163.65 134.8 162.9 135.4 162.15 136 155.5 141.65 153.95 151 152.1 153.3 150.55 156.3 146.65 163.75 145.9 173.15 148.85 171.1 153.5 167.95 157.45 165.3 160.45 163.35 160.75 156.85 161.75 150.35 162.9 142.5 164.95 136.35
M 179.55 129.6
Q 178.05 129.7 176.65 129.85 176.55 130.7 176.35 131.8 178.45 131.4 179.1 130.3 179.35 129.95 179.55 129.6
M 167.55 114.55
Q 171.6 117.55 178.1 117.55 174.75 114.9 167.55 114.55
M 193.85 104.65
Q 193.85 102.55 192.95 100.75 188.85 106.45 183.95 110.2 184.7 111.2 188.2 115.35 189.95 114.4 191.15 113 193.85 109.8 193.85 104.65
M 234 144.7
Q 234.2 144.2 234.2 140.95 234.2 135.45 232.2 131.85 231.1 129.95 225.05 122.5 224.85 123.05 222.95 133.55 222.95 133.65 227.25 138.85 231.5 144.15 231.85 149.25
L 231.85 149.45
Q 233.9 145.5 234 144.7
M 212.35 147.4
Q 212.45 143.4 211.95 141.5 209.85 134.45 195.4 133.55 195.4 136.7 194.4 138.65 193.3 140.6 193.3 141.1 193.3 144.2 199.75 148.7 206.2 153.1 210.55 153.1 211.75 153.1 212.05 153.05 212.3 152.9 212.95 152.35 212.3 151 212.35 147.4
M 216.55 117.1
Q 216.55 113.8 206.8 116.5 201.75 117.9 199.3 119.15 199.5 119.45 199.7 119.7 198.55 121.25 197.7 123.1 198.6 124.45 201.35 125.2 204.2 126.15 214.05 128.55 216.55 119.05 216.55 117.1
M 207.7 105.75
Q 210.1 105.8 216.9 106.5 217.2 107.45 217.2 105.6 217.2 101.4 212.9 101.65 208.7 101.9 207.8 105.6
L 207.7 105.75
M 184.35 97.2
Q 184.2 97.1 183.75 97.2 181.35 98.6 178.7 99.35 175.8 100.05 174.55 100.3 174.65 100.4 175.8 101.55 176.95 102.8 177.7 102.8 179.4 102.8 184.35 97.2
M 181.65 78.95
Q 178.45 76.35 170.5 74.45 168.95 75.7 166.6 75.7 162.85 75.7 161.65 72.75 159.1 72.35 156.25 72 152.5 72.35 151.5 73.5 151.15 73.85 151.15 74.95 151.15 77.3 154.1 78.95 154.6 79.3 160.3 81.85 169 85.6 167.65 92.15 167.7 92.15 167.35 92.5 167.2 92.7 168.4 92.7 170.9 92.7 178.15 90.05 186.3 87 186.85 86.95 184.8 81.6 181.65 78.95
M 162.35 62.05
Q 162.95 59.75 164.2 58.05 158.95 54.8 154 52.75 152.65 53.6 151.25 56.75 149.75 59.85 149.45 62.3 149.65 64 150 64.2 156.05 62.25 160.25 62.05 161.2 61.9 162.35 62.05
M 164.6 46.5
Q 166.4 47.65 168.15 48.85 165.55 44.85 161.2 41.55 150.9 33.6 137.1 33.8 122.5 33.95 112.95 43.35 106.95 49.35 104.25 58 104.85 58.25 105.3 58.55 105.8 58.55 111.45 52 119.15 45.35 129.85 45.35 136.35 45.35 140.85 47.4 142 47.85 144.5 49.7 144.8 48.75 144.5 47.1 144.15 45 144.15 44.45 144.15 33.2 164.6 46.5 Z"/>

<path fill="#B78057" stroke="none" d="
M 156.25 303.9
Q 148.25 326.9 147.75 330.55 147.3 334.3 149.3 337.2 153.05 340.3 156.85 339.9 160.05 339.55 164.5 320.1 165.2 316.8 165.95 313.1 171.25 286.7 178.8 270.5 186.25 254.35 192.85 246.7 188.05 243.45 184.3 237.9 180.95 245.35 174.3 259.5 167.45 274.15 161.55 289.45 158.85 296.6 156.25 303.9
M 161.55 289.45
Q 160.35 272.25 159.95 254.25 150 260.55 139.5 260.55 138.35 260.55 137.05 260.45 130.7 347.2 110.05 393.2 108.05 396.45 110.6 398.25 113 400.05 122.05 397.95 130.95 374.45 133.65 348.75 130.95 374.45 122.05 397.95 134.95 397.35 139.9 399.7 143.6 382.25 144.5 360.3 143.6 382.25 139.9 399.7 151.75 400.7 162.2 398.25 158.3 381.45 155.85 355.35 158.3 381.45 162.2 398.25
L 178.7 395.25
Q 169.2 360.2 164.5 320.1 160.05 339.55 156.85 339.9 153.05 340.3 149.3 337.2 147.3 334.3 147.75 330.55 148.25 326.9 156.25 303.9 158.85 296.6 161.55 289.45 Z"/>

<path fill="#329823" stroke="none" d="
M 48.35 213.85
Q 45.8 213.85 43.45 213.4 40.75 214.65 37.3 214.65 33.4 214.65 30.55 213.1 31.8 215.2 33.4 217.1 35 219.05 36.7 220.65 36.75 220.8 36.9 220.95 38.3 223.75 42.45 224.9 49.15 228.7 57.85 228.7 59.35 228.7 60.7 228.7 63.9 233.05 68.05 235.8 63.55 230.9 60.7 222.8 59.75 220.2 59.05 217.35 57.2 216.25 55.35 214.8 54.55 214.05 53.9 213.35 51.35 213.85 48.35 213.85
M 123.6 256.55
Q 131.45 259.8 137.05 260.45 138.35 260.55 139.5 260.55 150 260.55 159.95 254.25 167 249.75 173.8 242.05 177.75 237.6 181.2 232.55 182.65 235.4 184.3 237.9 188.05 243.45 192.85 246.7 199.6 251.3 208.45 251.3 222.85 251.3 232 242.45 225.55 246.5 216.9 246.5 203.35 246.5 197.9 237.65 196.2 234.8 195.65 231.5 195.35 229.8 195.35 228.35 195.35 223.85 198.1 220.2 190.45 217.1 179.85 216.95 181.35 220 181.35 223.5 181.35 225.45 177.6 230.8 173.35 236.7 167.45 242.2 151.1 257.35 135.4 257.35 128.95 257.35 123.6 256.55
M 97.05 239.6
Q 95.3 241.3 92.85 242.2 99 250 109.7 252.1 103.4 248.7 99.85 242.95 98.85 241.4 98.1 239.55 97.55 239.55 97.1 239.55
L 97.05 239.6
M 97.35 215.3
Q 92.9 214.85 89.6 213.55 88.7 215.2 87.1 216.4 88.75 217.75 91.3 218.8 94.35 220.15 96.05 221.15 96.4 218.05 97.35 215.3
M 8.85 161.65
Q 5.1 168.15 5.1 172.9 5.1 173.1 6.9 182.3 10.15 190.75 17.6 191.45 19.05 194.75 22.15 196.1 22.65 197.6 23.3 199.05 23.55 199.6 23.85 200.1 23.8 199.7 23.8 199.3 23.8 196.4 23.8 196.2 23.8 194.8 23.85 193.7 23.3 192.4 22.85 191.1 20.3 183.9 19.05 175.3 18.3 168.1 18.3 167.9 18.3 157.7 25.05 146.05 21.85 146.65 17.15 151.15 12.25 155.75 8.85 161.65
M 69.4 66.65
Q 73.05 63.95 76.35 61.95 72.3 63.2 68.5 65 54 72.1 54 83.7 54 85.2 56.75 95.55 58.35 101.75 60.1 107.45 48.7 107.3 40.5 113.95 30.85 121.9 30.85 135.8 30.85 136.45 30.9 137.25 38.4 127.2 48.55 119.7 58.7 112.15 66.3 111.1 66.3 111 66.35 110.95 69.25 103.2 71.25 98.15 71.7 93.8 73.35 89.85 55.6 87.05 55.6 78.75 55.6 76.55 69.4 66.65
M 268.4 187.4
Q 268.15 192.95 263.6 196.45 262.2 197.3 260.85 198.25 267.45 200 270 206.2 271.5 209.95 271.5 217.35 271.5 224.55 268.9 226.8 263.85 230.95 245.5 230.95 243.65 230.95 242.1 230.6 241.9 231.05 241.7 231.4 238.85 236.75 234.9 240.25 237.55 240 239.9 239.5 243.65 242.55 249.35 242.55 258.55 242.55 268.4 233.5 268.55 233.3 268.75 233.25 275.4 232.85 278.2 227.35 279.95 224 279.95 219.75 279.95 216.95 279.5 215 279.95 212.2 279.95 209.3 279.95 206.7 279.15 204.35 278.55 199.05 274.95 197.5 274.6 197.15 274.25 196.85 273.9 196.55 273.5 196.25 272.7 192.05 269.35 188.45 268.9 187.9 268.4 187.4
M 244.7 118.05
Q 246 122.2 246.85 127.2 249.75 145.5 250.3 147.35 251.1 149.65 260.4 166.05 266.5 176.8 267.95 183.35 270.35 182.4 271.5 178.95 272.3 176.7 272.3 173.65 272.3 166.35 266.2 157.7 264.3 155.05 262.1 152.6 261.5 136 252.85 125.35 249.1 120.75 244.7 118.05
M 213.15 78.55
Q 213.35 78.8 213.6 78.95 219.15 84.2 221.55 91.9 229.6 94.15 233.55 98.15 236.85 101.55 239.5 107.7 239.9 108.2 240.25 108.8 239.3 91.5 229.95 82.65 222.6 75.75 212.6 75.6 213 77.05 213.15 78.55
M 173 52.25
Q 179.05 50.9 187.25 53.6 196.7 56.75 203.95 63.3 203 61.7 201.8 60.15 195 51.2 185.25 49.15 179.45 47.85 174.75 49.55 173 45.3 169.6 42 163.25 35.9 154.15 36.05 153.65 36.05 153.2 36.1 151.65 34.15 149.85 32.5 141.75 25.2 128.55 28.9 116.8 32.25 107.25 42 100.15 49.2 98.2 55.95 100.05 56.3 101.95 57 103.2 57.5 104.25 58 106.95 49.35 112.95 43.35 122.5 33.95 137.1 33.8 150.9 33.6 161.2 41.55 165.55 44.85 168.15 48.85 170.65 50.55 173 52.25
M 183.3 60.35
Q 183.2 60.35 183.05 60.35 188.9 65.5 193.85 71.05 195.75 71.1 197.55 71.35 189 60.35 183.3 60.35
M 131 209.2
Q 129 210.75 127 211.8 126.7 215.9 123.85 218.85 120.75 222.05 120.75 225.05 120.75 227.85 123.85 229.75 127.7 230.85 127.8 230.85 135.9 230.85 141 225.6 143.75 222.75 146.6 217.65 140.15 212.35 137.1 203.85 134 206.85 131 209.2
M 147.3 196.8
Q 146.55 194.4 146.1 191.85 145.65 193.45 145.65 195.5 145.65 198.9 147.65 204.2 150.4 211.8 154.85 211.8 155.85 211.15 156.8 210.65 150.15 205.95 147.3 196.8
M 130.75 188.65
Q 124.55 192.75 121.5 195.05 118.4 197.3 117.15 199.2 119.8 199.35 122.1 200.75 122.2 200.8 122.4 200.9 123.2 200.75 123.95 200.75 126.1 200.75 127.45 201.55 129.5 199.8 130.3 197.15 131.05 194.85 130.75 188.65
M 110.05 190.95
Q 108.5 192.4 106.85 193.4
L 106.85 198.85
Q 108.5 193.35 113.7 188.45 120.1 182.5 130.2 179.15 125.25 162.35 115.85 173.45 114.4 175.2 112.95 177.45 114.45 180 114.45 181.55 114.45 186.7 110.05 190.95
M 87.3 150.1
Q 87.25 150.65 87.15 151.35 86.95 152.45 86.85 153.3 87.75 151.9 88.75 150.65 88 150.45 87.3 150.1
M 48.9 174.4
Q 53.05 179.3 57.6 179.3 61.1 179.3 63.4 178.2 57.9 178.15 54.4 175.45 53.15 174.4 51.45 172.05 50.1 173.25 48.9 174.4
M 44.85 158.75
Q 44.65 159.35 44.45 159.9 45.5 160.55 46.2 161.45 46.8 159.9 46.95 158.6 46.05 158.75 45 158.75 44.9 158.75 44.85 158.75
M 61.05 168.3
L 61.4 168.5 64.9 168.5 61.05 168.3
M 77.6 140
Q 63.85 137.1 62.2 141.85 61.65 143.4 60.9 147.25 59.75 150.8 56.35 152.75
L 56.35 159.1
Q 56.75 159.1 61.8 158.75 69.85 158.75 72.65 161.8 74.15 163.35 74.8 165.85 74.95 165.85 76.85 164.7 78.75 163.55 79.3 163 78.4 161.45 77.8 158.8 77.35 156.5 77.35 154.85 77.35 153.1 77.8 148.7 78.25 144.85 78.8 142.1 78.15 141.1 77.6 140
M 136.65 69.15
Q 139.5 60.05 139.5 60.35 139.5 59.6 139.3 58.9 131.65 59.15 128.55 65.95
L 127.45 70.75
Q 128.5 72.95 128.5 75.95 128.5 76.4 128.5 76.9 130.8 78.4 131.7 78.4 133.35 78.4 136.65 69.15
M 130.6 140.6
Q 125.75 139.7 122.9 136.7 116.3 135.85 110.8 132.45 111.45 134.45 111.45 137.15 111.45 139.05 110.9 140.95 113 140.75 115.4 140.75 121.55 140.75 127.05 141.95 128.85 141.35 130.6 140.6
M 151.1 99.9
Q 147.55 102 145.65 106.7 144.05 110.95 144.15 115.6 144.15 116.4 145.6 119.6 147.75 120.45 150.4 120.95 154 113.4 154 104.85 154 104.25 151.4 100.3 151.25 100.05 151.1 99.9
M 117.7 95.75
Q 117.15 95.75 116.55 95.75 115.25 100.4 112.6 109.7 111.25 114.4 110.25 118.3 113 120.55 116.55 122.65 117.35 123.1 118.9 123.95 118.9 123.3 118.9 122.7 119.25 119.05 119.25 118.55 119.25 104.3 124.55 93.8 121.7 95.75 117.7 95.75
M 105.7 91.25
Q 105.3 90.75 104.9 90.2 103.5 90.6 102.4 91.15 102.95 92.15 102.95 93.6 102.95 94.15 102.65 94.95 104.15 93.05 105.7 91.25
M 99.8 66.1
Q 99.85 66.1 99.95 66.05 97.9 65.05 92.8 66.05 85.45 67.4 81.6 69.9 78.75 72.1 74.75 74.45 70.2 77.1 67.85 78.55 68.25 78.95 71.3 79.45 74.2 79.95 75.75 79.95 78.15 79.95 80.25 78.9 88 70.25 99.8 66.1
M 241.2 194.15
Q 240.75 194.35 240.4 194.5 240.75 195 241.05 195.5 241.1 194.85 241.2 194.15
M 218.6 203.65
Q 218.2 203.2 215.9 203.8 215.05 204 214.3 204.2 213.35 205.8 212.2 207.85 212.3 208.8 212.7 209.2 213.3 209.7 214.6 209.7 217.5 209.7 218.95 204.9 218.65 204.15 218.6 203.65
M 205.9 177.2
L 205.6 178.1
Q 205.7 178.05 205.9 178 206.35 177.8 206.9 177.65
L 206.8 177.55
Q 206.65 177.4 205.9 177.05
L 205.9 177.2
M 251.3 170.35
Q 251.25078125 170.30078125 251.25 170.25 251.1498046875 177.50078125 248.85 183.9 249.15 184.85 249.4 185.85 249.95 185.65 250.55 185.7 253.1 185.9 254.85 188.85 255.4 189.8 255.8 190.85 256.55 190.3 257.2 189.75 259.05 188.1 259.05 186.65 259.05 184.25 251.3 170.35
M 170.6 181.6
Q 174.25 183.4 175.8 184.45 175.95 183.45 175.95 181.35 175.95 175.7 171.8 171.35 170.35 174.65 170.35 178.5 170.35 179.7 170.6 181.6
M 200.2 166.9
Q 200.2 164.5 197.6 161.1 197.2 161.1 196.85 161.1 194.8 161.1 189.35 158.2 184.75 155.6 182.9 154.1
L 179.7 154.1
Q 180.4 157.7 179.6 161.3 180.3 164.5 181.2 167.1 184.8 177.15 192.75 185.45 195.45 184.55 196.5 184.45 197.2 180.15 198.5 175.75 200.2 170.05 200.2 166.9
M 97.5 195.2
Q 94.05 194.7 91.45 192.65 89 197 89 199.45 89 202.15 91.15 203.65 93.45 205.15 98.45 205.6 97.5 200.4 97.5 195.2
M 162.15 136
Q 162.9 135.4 163.65 134.8 162.8 133.9 161.75 133.15 157.6 133.3 154 133 150 137.75 144.5 142.2 141.75 144.5 139.1 146.3 147.2 150.7 147.2 156.85 147.2 161.3 143.6 164.85 140.3 168.15 135.55 168.8 136.25 170 138.05 174.2 139.2 176.8 140.1 176.8 140.35 176.8 145.9 173.15 146.65 163.75 150.55 156.3 152.1 153.3 153.95 151 155.5 141.65 162.15 136
M 167.55 114.55
Q 166.6 114.5 165.55 114.5 162.15 119.5 162.15 120.55 162.15 121.15 162.9 122.3 169.6 122.7 171.3 123.05 176.75 124.35 176.75 128.2 176.75 128.8 176.65 129.85 178.05 129.7 179.55 129.6 181.55 126.65 183.3 125.4 182.25 124.55 181.3 122.35 180.15 119.8 179.45 118.85 178.85 118.1 178.1 117.55 171.6 117.55 167.55 114.55
M 192.95 100.75
Q 193.85 102.55 193.85 104.65 193.85 109.8 191.15 113 189.95 114.4 188.2 115.35 188.5 115.7 188.75 116.05 190.4 113.8 194 110.75 196.15 108.95 196.15 106.4 196.15 104.85 195.65 102.4 195.05 99.75 194.4 98.6 193.7 99.7 192.95 100.75
M 199.7 119.7
Q 199.5 119.45 199.3 119.15 197.1 120.3 197.1 121.45 197.1 122.35 197.7 123.1 198.55 121.25 199.7 119.7
M 230.75 111.05
Q 228.65 106.7 226.55 104.85
L 226.55 105
Q 225.2 107.65 227.65 111.05 229.2 113.15 233.45 117 231.9 113.4 230.75 111.05 Z"/>

<path fill="#3EBD49" stroke="none" d="
M 168.15 48.85
Q 166.4 47.65 164.6 46.5 144.15 33.2 144.15 44.45 144.15 45 144.5 47.1 144.8 48.75 144.5 49.7 142 47.85 140.85 47.4 136.35 45.35 129.85 45.35 119.15 45.35 111.45 52 105.8 58.55 105.3 58.55 104.85 58.25 104.25 58 103.2 57.5 101.95 57 100.05 56.3 98.2 55.95 96.05 55.55 93.95 55.55 86.85 55.55 76.35 61.95 73.05 63.95 69.4 66.65 55.6 76.55 55.6 78.75 55.6 87.05 73.35 89.85 74 89.9 74.6 90.05
L 74.2 90.6
Q 73.2 93 71.25 98.15 69.25 103.2 66.35 110.95 66.3 111 66.3 111.1 64.25 116.55 62.45 120.95 62.15 121.15 61.8 121.3 52.2 127.25 45.75 134.8 38.65 143.2 38.45 150.2 38.05 150.5 37.6 150.85 21.4 164.45 21.4 171.55 21.4 171.75 22.25 177 24.75 182.1 33.4 182.1 37.75 182.1 41.65 180.05 46.2 186 51.75 188.05 49.5 188.65 48.7 188.65 44 188.65 38.85 186.95 33.75 185.2 31.1 185.2 25.9 185.2 24.35 189.9 23.95 191.15 23.85 193.7 23.8 194.8 23.8 196.2 23.8 196.4 23.8 199.3 23.8 199.7 23.85 200.1 24 203.1 24.85 205.6 26.6 210.9 30.55 213.1 33.4 214.65 37.3 214.65 40.75 214.65 43.45 213.4 44.65 212.8 45.75 211.95 48.45 208.95 48.95 208.75 49.45 209.1 53.9 213.35 54.55 214.05 55.35 214.8 57.2 216.25 59.05 217.35 64.1 220.15 69.1 220.15 81.95 220.15 87.1 216.4 88.7 215.2 89.6 213.55 92.9 214.85 97.35 215.3 98.95 215.5 100.85 215.55 103.6 223.6 108.2 226.95 106.3 227.9 104.25 228.55 100.35 229.85 96.3 229.85 93.45 229.85 90.6 225.05 87.85 220.15 85.05 220.15 80.45 220.15 80.45 225.6
L 83.35 232.55
Q 88 239.55 96.75 239.55 96.95 239.55 97.1 239.55 97.55 239.55 98.1 239.55 101.2 239.3 103.85 238.25 107.05 236.9 111.5 236.9 115 236.9 120.15 238.6 125.45 240.3 130.6 240.3 139.8 240.3 144.6 235 147.2 232.25 149.55 228.3 150.8 227.4 153.5 224.9 156.85 222.9 163.5 223.35 165.2 223.4 171.7 220.15 175 218.5 178.05 216.9 178.95 216.9 179.85 216.95 190.45 217.1 198.1 220.2 199.7 220.85 201.25 221.65 210.2 226.35 215.95 226.35 224.05 226.35 236.4 217.35 242.7 212.8 247.7 207.85 253.9 202.85 260.85 198.25 262.2 197.3 263.6 196.45 268.15 192.95 268.4 187.4 268.4 187.1 268.4 186.9 268.4 185.3 267.95 183.35 266.5 176.8 260.4 166.05 251.1 149.65 250.3 147.35 249.75 145.5 246.85 127.2 246 122.2 244.7 118.05 242.95 112.75 240.25 108.8 239.9 108.2 239.5 107.7 236.85 101.55 233.55 98.15 229.6 94.15 221.55 91.9 217.05 90.6 211.3 89.85 202 88.7 198.8 82.95 196.35 75.35 194.25 71.6 194 71.35 193.85 71.05 188.9 65.5 183.05 60.35 183.2 60.35 183.3 60.35 189 60.35 197.55 71.35 198.5 72.55 199.4 73.85 204.3 80.65 208.55 87.35 212.1 87.35 212.95 84.45 213.25 83.55 213.25 80.1 213.25 79.3 213.15 78.55 213 77.05 212.6 75.6 210.9 69.95 205.05 64.35 204.55 63.85 203.95 63.3 196.7 56.75 187.25 53.6 179.05 50.9 173 52.25 170.65 50.55 168.15 48.85
M 164.2 58.05
Q 162.95 59.75 162.35 62.05 161.2 61.9 160.25 62.05 156.05 62.25 150 64.2 149.65 64 149.45 62.3 149.75 59.85 151.25 56.75 152.65 53.6 154 52.75 158.95 54.8 164.2 58.05
M 170.5 74.45
Q 178.45 76.35 181.65 78.95 184.8 81.6 186.85 86.95 186.3 87 178.15 90.05 170.9 92.7 168.4 92.7 167.2 92.7 167.35 92.5 167.7 92.15 167.65 92.15 169 85.6 160.3 81.85 154.6 79.3 154.1 78.95 151.15 77.3 151.15 74.95 151.15 73.85 151.5 73.5 152.5 72.35 156.25 72 159.1 72.35 161.65 72.75 162.85 75.7 166.6 75.7 168.95 75.7 170.5 74.45
M 183.75 97.2
Q 184.2 97.1 184.35 97.2 179.4 102.8 177.7 102.8 176.95 102.8 175.8 101.55 174.65 100.4 174.55 100.3 175.8 100.05 178.7 99.35 181.35 98.6 183.75 97.2
M 226.55 104.85
Q 228.65 106.7 230.75 111.05 231.9 113.4 233.45 117 229.2 113.15 227.65 111.05 225.2 107.65 226.55 105
L 226.55 104.85
M 216.9 106.5
Q 210.1 105.8 207.7 105.75
L 207.8 105.6
Q 208.7 101.9 212.9 101.65 217.2 101.4 217.2 105.6 217.2 107.45 216.9 106.5
M 206.8 116.5
Q 216.55 113.8 216.55 117.1 216.55 119.05 214.05 128.55 204.2 126.15 201.35 125.2 198.6 124.45 197.7 123.1 197.1 122.35 197.1 121.45 197.1 120.3 199.3 119.15 201.75 117.9 206.8 116.5
M 211.95 141.5
Q 212.45 143.4 212.35 147.4 212.3 151 212.95 152.35 212.3 152.9 212.05 153.05 211.75 153.1 210.55 153.1 206.2 153.1 199.75 148.7 193.3 144.2 193.3 141.1 193.3 140.6 194.4 138.65 195.4 136.7 195.4 133.55 209.85 134.45 211.95 141.5
M 234.2 140.95
Q 234.2 144.2 234 144.7 233.9 145.5 231.85 149.45
L 231.85 149.25
Q 231.5 144.15 227.25 138.85 222.95 133.65 222.95 133.55 224.85 123.05 225.05 122.5 231.1 129.95 232.2 131.85 234.2 135.45 234.2 140.95
M 196.15 106.4
Q 196.15 108.95 194 110.75 190.4 113.8 188.75 116.05 188.5 115.7 188.2 115.35 184.7 111.2 183.95 110.2 188.85 106.45 192.95 100.75 193.7 99.7 194.4 98.6 195.05 99.75 195.65 102.4 196.15 104.85 196.15 106.4
M 165.55 114.5
Q 166.6 114.5 167.55 114.55 174.75 114.9 178.1 117.55 178.85 118.1 179.45 118.85 180.15 119.8 181.3 122.35 182.25 124.55 183.3 125.4 181.55 126.65 179.55 129.6 179.35 129.95 179.1 130.3 178.45 131.4 176.35 131.8 176.55 130.7 176.65 129.85 176.75 128.8 176.75 128.2 176.75 124.35 171.3 123.05 169.6 122.7 162.9 122.3 162.15 121.15 162.15 120.55 162.15 119.5 165.55 114.5
M 163.65 134.8
Q 164.35 135.5 164.95 136.35 162.9 142.5 161.75 150.35 160.75 156.85 160.45 163.35 157.45 165.3 153.5 167.95 148.85 171.1 145.9 173.15 140.35 176.8 140.1 176.8 139.2 176.8 138.05 174.2 136.25 170 135.55 168.8 135.5 168.65 135.4 168.55 130.75 160.35 121.9 160.35 107.6 160.35 101.2 176.8 97.5 186.3 97.5 195.2 97.5 200.4 98.45 205.6 93.45 205.15 91.15 203.65 89 202.15 89 199.45 89 197 91.45 192.65 92.4 190.9 93.7 188.85 98.3 181.75 98.3 180.6 98.3 175.3 95.4 175.45 94.55 175.55 93.6 176.05 102.15 165.65 102.15 160.15 102.15 152.55 96.05 144.35 89.95 136.2 89.95 136.05 89.95 133.5 96.3 122.15 97.2 120.55 98.1 119.1 99.15 120.85 100.35 122.5 98.3 131.45 98.3 132.45 98.3 132.55 98.25 135.95 98.5 139.85 99.85 143.05 104.15 153.35 118.05 153.35 128.4 153.35 139.1 146.3 141.75 144.5 144.5 142.2 150 137.75 154 133 157.6 133.3 161.75 133.15 162.8 133.9 163.65 134.8
M 177.55 145.7
L 177.55 145.55
Q 184.75 148.7 192.3 155.5 195.65 158.6 197.6 161.1 200.2 164.5 200.2 166.9 200.2 170.05 198.5 175.75 197.2 180.15 196.5 184.45 196.15 186.5 196 188.6 194.3 187.05 192.75 185.45 184.8 177.15 181.2 167.1 180.3 164.5 179.6 161.3 178.15 154.75 177.55 145.7
M 170.85 171.5
Q 170.85 170.95 170.85 170.35
L 170.9 170.4
Q 171.35 170.85 171.8 171.35 175.95 175.7 175.95 181.35 175.95 183.45 175.8 184.45 174.25 183.4 170.6 181.6 169.35 181 168 180.3 170.5 178.2 170.85 171.5
M 184.2 196.55
Q 185.1 193.75 185.25 192.95 188.15 192.95 192.55 196.55 197.75 200.75 199.15 205.95 198.05 206.5 197.35 206.85 196.1 207.55 195 207.55 192.75 207.55 187.95 203.8 183.6 200.2 183.6 199.65 183.6 198.65 184.2 196.55
M 226.6 165.85
Q 226.75 165.45 227.55 165.1 228 164.85 228.45 164.8 228.85 165.2 229.6 168.55 230.5 172.9 230.7 173.45
L 229.75 173.45
Q 229.55 172.6 228.25 169.65 226.9 166.8 226.6 165.85
M 238.55 169.3
Q 236.75 166 236.75 159.9 236.75 159 238.75 156.2 240.5 154 241.7 152.75 241.75 153.05 251.25 170.25 251.25078125 170.30078125 251.3 170.35 259.05 184.25 259.05 186.65 259.05 188.1 257.2 189.75 256.55 190.3 255.8 190.85 253.75 192.25 250.5 193.55
L 250.5 193.2
Q 250.2 189.15 249.4 185.85 249.15 184.85 248.85 183.9 246.95 177.55 242.85 173.95 239.6 170.95 238.55 169.3
M 212.45 169.45
Q 211.9 168.5 211.55 167.95 211.15 167.15 211.15 166
L 212.65 164.7
Q 214.4 163.35 216.15 163 216.5 163.95 217.2 167.15 214.6 167.5 213.65 168.45 212.95 169.3 212.45 169.45
M 205.6 178.1
L 205.9 177.2 205.9 177.05
Q 206.65 177.4 206.8 177.55
L 206.9 177.65
Q 207.4 178.2 207.4 179.3 207.4 180.6 206.75 181.35 206.6 181.55 205.65 182.1
L 205.5 181.95 205.5 178.4 205.6 178.1
M 219.4 188.65
Q 220.25 194.5 220.25 196.25 220.25 196.45 219.4 203.1 219.15 204.05 218.95 204.9 217.5 209.7 214.6 209.7 213.3 209.7 212.7 209.2 212.3 208.8 212.2 207.85 213.35 205.8 214.3 204.2 216.45 200.3 217.2 198.3 219.3 193.1 218.8 188.65 219.3 188.6 219.4 188.65
M 241.2 194.15
Q 241.1 194.85 241.05 195.5 240.7 199.3 239.1 201.55 236.25 205.45 227.1 210.05
L 227.3 209.5
Q 229.55 205.1 229.65 198.9 229.65 195.85 229 189.05 234.7 190.9 237.35 188 238.7 186.5 238.9 184.05 240 184.6 240.65 188.1 241.2 190.85 241.2 193.2 241.2 193.7 241.2 194.15
M 92.8 66.05
Q 97.9 65.05 99.95 66.05 101.2 66.7 101.2 68.15 101.2 71.4 100.65 77.7 101.55 83.15 108.75 87.9 107.2 89.55 105.7 91.25 104.15 93.05 102.65 94.95 102.95 94.15 102.95 93.6 102.95 92.15 102.4 91.15 101.1 88.6 96.4 89.1 89.75 90 89.75 95.3 89.75 101.3 92.7 108.6 92.25 109.15 91.9 109.7 85.35 120.45 81.6 130.8 80.8 130.7 77.6 129.15 75.3 128.2 69.05 128.25 72.3 126.65 79.45 123.4 85.05 120.85 85.05 120.05 85.05 113.9 77.75 114.75 76.15 114.9 74.5 115.45 78.1 107.45 79.3 103.25 82.2 92.15 89.35 88.1 92.6 86.35 93.55 85.05 95.25 82.75 95.25 77.7 95.55 76.1 95.05 74.65 94.05 71.8 90.1 71.8 87.25 71.8 83.9 75.95 82.25 77.95 80.25 78.9 78.15 79.95 75.75 79.95 74.2 79.95 71.3 79.45 68.25 78.95 67.85 78.55 70.2 77.1 74.75 74.45 78.75 72.1 81.6 69.9 85.45 67.4 92.8 66.05
M 118.45 81.3
L 118.05 81.5
Q 115.95 81.6 113.1 79.15 110.45 76.75 109.9 74.95 110.65 75.25 114.2 78 115.95 79.4 118.45 81.3
M 116.55 95.75
Q 117.7 91.55 117.7 91.05 133.8 91.05 143.5 90.05 145.5 90 146.15 90.75 146.55 91.2 147.5 93.75 148.25 95.65 151.1 99.9 151.25 100.05 151.4 100.3 154 104.25 154 104.85 154 113.4 150.4 120.95 147.75 120.45 145.6 119.6 138 116.75 135.9 110.7 135.3 108.85 134.65 104.75 134.2 101.2 133.25 99.55 129.5 93.6 126.8 97.65 124.7 100.8 124.7 104.65 124.7 113.6 131.95 122.2 136.8 128 143.85 130.8 138.15 137.4 130.6 140.6 128.85 141.35 127.05 141.95 121.05 143.8 113.95 143.8 110.05 143.8 108.4 138.15 107.65 132.45 107.65 132.3 107.65 131.45 107.8 130.35 109.25 131.5 110.8 132.45 116.3 135.85 122.9 136.7 125.05 137 127.4 137 130.4 137 132 135.6 133.25 134.4 133.25 132.45 133.25 131.2 128.1 128.6 122.05 125.55 118.9 123.95 117.35 123.1 116.55 122.65 113 120.55 110.25 118.3 111.25 114.4 112.6 109.7 115.25 100.4 116.55 95.75
M 139.5 60.35
Q 139.5 60.05 136.65 69.15 133.35 78.4 131.7 78.4 130.8 78.4 128.5 76.9 126.05 75.25 122.05 71.95 114.05 65.1 113 64.4 123.75 55.45 132.15 55.25 138.4 55.1 139.3 58.9 139.5 59.6 139.5 60.35
M 62.2 141.85
Q 63.85 137.1 77.6 140 78.35 140.2 79.15 140.35 79 141.15 78.8 142.1 78.25 144.85 77.8 148.7 77.35 153.1 77.35 154.85 77.35 156.5 77.8 158.8 78.4 161.45 79.3 163 78.75 163.55 76.85 164.7 74.95 165.85 74.8 165.85 74.15 163.35 72.65 161.8 69.85 158.75 61.8 158.75 56.75 159.1 56.35 159.1
L 56.35 152.75
Q 59.75 150.8 60.9 147.25 61.65 143.4 62.2 141.85
M 30.85 172.35
L 30.85 170.6
Q 32.75 168.85 34.6 167.2 35.5 169.6 36.6 171.7 36.2 172.05 35.8 172.35
L 30.85 172.35
M 61.4 168.5
L 61.05 168.3 64.9 168.5 61.4 168.5
M 45 158.75
Q 46.05 158.75 46.95 158.6 46.8 159.9 46.2 161.45 45.5 160.55 44.45 159.9 44.1 159.75 43.75 159.55 44.2 159.15 44.75 158.75 44.8 158.75 44.85 158.75 44.9 158.75 45 158.75
M 57.6 179.3
Q 53.05 179.3 48.9 174.4 50.1 173.25 51.45 172.05 53.15 174.4 54.4 175.45 57.9 178.15 63.4 178.2 61.1 179.3 57.6 179.3
M 79.9 196.45
Q 77.5 194.5 74.2 192 78.85 190.4 84.4 185.6 80.8 191.1 79.9 196.45
M 77.35 178.4
L 77.35 177.8
Q 77.6 174.4 81.8 171.75 84.05 170.35 87.5 168.55 81.4 176.8 77.35 178.4
M 87.5 147.95
L 87.5 147.75
Q 88.6 149.65 90.75 154.6 92.85 159.55 92.85 160.15 92.85 161.3 91.35 163.5 90.95 164.05 88.75 166.75
L 88.75 166
Q 89.6 164.3 88.25 160.45 86.75 155.8 86.75 154.55 86.75 154.1 86.85 153.3 86.95 152.45 87.15 151.35 87.25 150.65 87.3 150.1 87.5 148.75 87.5 147.95
M 106.85 189.8
Q 107.3 187.9 109.7 183.15 111.3 179.95 112.95 177.45 114.4 175.2 115.85 173.45 125.25 162.35 130.2 179.15 120.1 182.5 113.7 188.45 108.5 193.35 106.85 198.85
L 106.85 193.4 106.85 189.8
M 121.5 195.05
Q 124.55 192.75 130.75 188.65 131.05 194.85 130.3 197.15 129.5 199.8 127.45 201.55 126.1 200.75 123.95 200.75 123.2 200.75 122.4 200.9 119.85 201.4 116.2 203.2 116.2 202.65 116.2 201.7 116.2 200.5 117.15 199.2 118.4 197.3 121.5 195.05
M 150.05 186.35
Q 153.8 184.25 159.7 185.95 165.2 187.55 169.3 191.3 173.7 195.45 173.7 199.6 173.7 199.85 156.8 210.65 155.85 211.15 154.85 211.8 150.4 211.8 147.65 204.2 145.65 198.9 145.65 195.5 145.65 193.45 146.1 191.85 147 188.05 150.05 186.35
M 157.05 176.05
L 157.05 175.9
Q 158.7 173.25 160.4 171.7 160.4 172.9 160.4 174.75 160.6 176.25 160.85 177.3 158.2 176.3 157.05 176.05
M 127 211.8
Q 129 210.75 131 209.2 134 206.85 137.1 203.85 140.15 212.35 146.6 217.65 143.75 222.75 141 225.6 135.9 230.85 127.8 230.85 127.7 230.85 123.85 229.75 121.5 229.05 117.9 227.95
L 118.3 227.7
Q 119.15 226.85 119.45 226.25 120.1 225.3 120.1 224.15 120.1 221.7 113.85 216.6 112.55 215.55 111.5 214.5 113.35 214.1 115.1 213.55 116.5 213.9 118.05 213.9 122.75 213.9 127 211.8
M 69.2 210.45
Q 65.25 210.45 61.8 207.7 59.15 204.75 58.85 204.6 64.15 196.85 70.15 200.65 71.65 201.55 75.1 204.75 78.15 207.55 80.05 208.45 77.8 210.05 74.4 210.4 73.75 210.45 69.2 210.45
M 35.6 205.15
Q 34.25 205.15 33.55 201.9 33.1 199.65 33.1 197.6 33.85 197.9 36.4 200 39.2 202.3 40.2 203.85
L 39.85 204.4
Q 38.65 205.15 35.6 205.15 Z"/>
</g>

<path id="Layer0_0_1_STROKES" stroke="#4D3122" stroke-width="2" stroke-linejoin="round" stroke-linecap="round" fill="none" d="
M 192.85 246.7
Q 186.25 254.35 178.8 270.5 171.25 286.7 165.95 313.1 165.2 316.8 164.5 320.1 169.2 360.2 178.7 395.25
L 162.2 398.25
Q 151.75 400.7 139.9 399.7 134.95 397.35 122.05 397.95 113 400.05 110.6 398.25 108.05 396.45 110.05 393.2 130.7 347.2 137.05 260.45
M 161.55 289.45
Q 160.35 272.25 159.95 254.25
M 164.5 320.1
Q 160.05 339.55 156.85 339.9 153.05 340.3 149.3 337.2 147.3 334.3 147.75 330.55 148.25 326.9 156.25 303.9 158.85 296.6 161.55 289.45 167.45 274.15 174.3 259.5 180.95 245.35 184.3 237.9
M 122.05 397.95
Q 130.95 374.45 133.65 348.75
M 162.2 398.25
Q 158.3 381.45 155.85 355.35
M 139.9 399.7
Q 143.6 382.25 144.5 360.3"/>

<path id="Layer0_0_2_STROKES" stroke="#26761B" stroke-width="2" stroke-linejoin="round" stroke-linecap="round" fill="none" d="
M 212.6 75.6
Q 222.6 75.75 229.95 82.65 239.3 91.5 240.25 108.8
M 98.2 55.95
Q 100.15 49.2 107.25 42 116.8 32.25 128.55 28.9 141.75 25.2 149.85 32.5 151.65 34.15 153.2 36.1 153.65 36.05 154.15 36.05 163.25 35.9 169.6 42 173 45.3 174.75 49.55 179.45 47.85 185.25 49.15 195 51.2 201.8 60.15 203 61.7 203.95 63.3
M 244.7 118.05
Q 249.1 120.75 252.85 125.35 261.5 136 262.1 152.6 264.3 155.05 266.2 157.7 272.3 166.35 272.3 173.65 272.3 176.7 271.5 178.95 270.35 182.4 267.95 183.35
M 268.4 187.4
Q 268.9 187.9 269.35 188.45 272.7 192.05 273.5 196.25 273.9 196.55 274.25 196.85 274.6 197.15 274.95 197.5 278.55 199.05 279.15 204.35 279.95 206.7 279.95 209.3 279.95 212.2 279.5 215 279.95 216.95 279.95 219.75 279.95 224 278.2 227.35 275.4 232.85 268.75 233.25 268.55 233.3 268.4 233.5 258.55 242.55 249.35 242.55 243.65 242.55 239.9 239.5 237.55 240 234.9 240.25
M 232 242.45
Q 222.85 251.3 208.45 251.3 199.6 251.3 192.85 246.7
M 137.05 260.45
Q 131.45 259.8 123.6 256.55
M 109.7 252.1
Q 99 250 92.85 242.2
M 68.05 235.8
Q 63.9 233.05 60.7 228.7 59.35 228.7 57.85 228.7 49.15 228.7 42.45 224.9 38.3 223.75 36.9 220.95 36.75 220.8 36.7 220.65 35 219.05 33.4 217.1 31.8 215.2 30.55 213.1
M 30.9 137.25
Q 30.85 136.45 30.85 135.8 30.85 121.9 40.5 113.95 48.7 107.3 60.1 107.45 58.35 101.75 56.75 95.55 54 85.2 54 83.7 54 72.1 68.5 65 72.3 63.2 76.35 61.95
M 23.85 200.1
Q 23.55 199.6 23.3 199.05 22.65 197.6 22.15 196.1 19.05 194.75 17.6 191.45 10.15 190.75 6.9 182.3 5.1 173.1 5.1 172.9 5.1 168.15 8.85 161.65 12.25 155.75 17.15 151.15 21.85 146.65 25.05 146.05
M 159.95 254.25
Q 150 260.55 139.5 260.55 138.35 260.55 137.05 260.45
M 184.3 237.9
Q 182.65 235.4 181.2 232.55 177.75 237.6 173.8 242.05 167 249.75 159.95 254.25
M 192.85 246.7
Q 188.05 243.45 184.3 237.9"/>
</defs>

<g transform="matrix( 1, 0, 0, 1, 0,0) ">
<use xlink:href="#Layer0_0_FILL"/>

<use xlink:href="#Layer0_0_1_STROKES"/>

<use xlink:href="#Layer0_0_2_STROKES"/>
</g>
</svg>
