<svg xmlns="http://www.w3.org/2000/svg" viewBox="0 0 112.8 95.95"><path fill-rule="evenodd" d="M22.4 27.45q3.15-7.4 6.85-8.9 7-3.05 13.15-6.95l1.4-.95 5.55-3.9 2.1.05q6.2.85 15.1 10.75-8.9-9.9-15.1-10.75 5.85-.1 12.2-3.5 15.15-6.45 43.3 3.55l-15.7 3.4Q78.85 13.3 67 17.4l-.45.15q-2.05.95-4.1 1.95-5.55 2.6-11.2 5.6L49 26.25l-5.25 3.05q-11.85 6.6-20.1 11.9l-6.35 4.15Q12.8 50.1 9 55.2q-3.85 5.1-7.6 11.4 8.6-29.8 21-39.15-2.75 6.6-5.1 17.9 2.35-11.3 5.1-17.9" fill="#444"/><path fill-rule="evenodd" d="M17.3 45.35l6.35-4.15q-4.45 13.45-5.5 27.35-4.5-2.5-8.15-3-4.2-.65-8.6 1.05Q5.15 60.3 9 55.2q3.8-5.1 8.3-9.85l-.2 2.05.2-2.05m89.65-38.5q-.9 4.85 3.25 10.1l-.25.2q-11.15-4.9-18.7-6.9l15.7-3.4" fill="#7e7e7e"/><path fill-rule="evenodd" d="M23.65 41.2q8.25-5.3 20.1-11.9L49 26.25l12.25 23.5q-5.25 3.05-10.2 6.4l-.2.15Q34.1 59.5 18.2 68.55h-.05q1.05-13.9 5.5-27.35m27.6-16.1q5.65-3 11.2-5.6 2.05-1 4.1-1.95l.15.15.3-.3q11.85-4.1 24.25-7.15 7.55 2 18.7 6.9Q96.3 26.9 86.1 37.4l-.25.1q-10-11.15-23.4-18 13.4 6.85 23.4 18-11.9 5-22.65 11.15L51.25 25.1m16.6-6.1l-1.15-1.3 1.15 1.3m-24.1 10.3Q45 41 51.05 56.15 45 41 43.75 29.3" fill="#8f8f8f"/><path fill-rule="evenodd" d="M39.3 5.55q-1.25-2.35-.95-3.25l.8.65 1.3 2-1.15.6" fill="#ccc"/><path fill-rule="evenodd" d="M49 26.25l2.25-1.15L63.2 48.65 77.4 76.6l-1.85.95-14.3-27.8L49 26.25m-5.2-15.6l-1.4.95-3.1-6.05 1.15-.6 3.35 5.7" fill="#9a6243"/><path fill-rule="evenodd" d="M90.85 83.3q.3-1.8 2.15-1.55 3.3 3.35 3.05 6.9-.25 3.2-2.95 5.1-2.7 1.95-5.8 1.25-3.5-.75-5.55-4.6-2.7-4.65-6.3-12.25l.3-.2L77.6 77l.4-.25q2 5.45 4.75 10.3 2.6 4.65 5.05 5.2 2.25.5 3.85-.75 1.8-1.3 1.75-3.45-.05-2.45-2.55-4.75" fill="#d88d56"/><path stroke-linejoin="round" d="M42.4 11.6q-6.15 3.9-13.15 6.95-3.7 1.5-6.85 8.9-2.75 6.6-5.1 17.9l6.35-4.15q8.25-5.3 20.1-11.9L49 26.25l2.25-1.15q5.65-3 11.2-5.6 2.05-1 4.1-1.95-8.9-9.9-15.1-10.75l-2.1-.05-5.55 3.9-1.4.95-3.1-6.05q-1.25-2.35-.95-3.25l.8.65 1.3 2 3.35 5.7m22.75 6.9l.15.15 1.15 1.3M67 17.4l-.45.15m-27.25-12l1.15-.6m66.5 1.9q-28.15-10-43.3-3.55-6.35 3.4-12.2 3.5m58.5 10.35l.25-.2q-4.15-5.25-3.25-10.1l-15.7 3.4q7.55 2 18.7 6.9l2.1 1M108.8 7.5l-1.85-.65M85.85 37.5l1.75 1.7m22.35-22.05Q96.3 26.9 86.1 37.4l-.25.1q-10-11.15-23.4-18M67 17.4q11.85-4.1 24.25-7.15m-.4 73.05q2.5 2.3 2.55 4.75.05 2.15-1.75 3.45-1.6 1.25-3.85.75-2.45-.55-5.05-5.2Q80 82.2 78 76.75l-.4.25-1.85.95-.3.2q3.6 7.6 6.3 12.25 2.05 3.85 5.55 4.6 3.1.7 5.8-1.25 2.7-1.9 2.95-5.1.25-3.55-3.05-6.9-1.85-.25-2.15 1.55m-72.7-14.75h.05Q34.1 59.5 50.85 56.3l.2-.15Q45 41 43.75 29.3m7.3 26.85l.65 1.75m25.7 18.7L63.2 48.65 51.25 25.1m24.5 52.85l-.15-.35-.05-.05-14.3-27.8q-5.25 3.05-10.2 6.4m-32.9 12.4q-4.5-2.5-8.15-3-4.2-.65-8.6 1.05L.75 68m.65-1.4Q5.15 60.3 9 55.2q3.8-5.1 8.3-9.85l-.2 2.05m.95 22.9l.1-1.75q1.05-13.9 5.5-27.35M77.6 77l-.2-.4M49 26.25l12.25 23.5m24.6-12.25q-11.9 5-22.65 11.15m-40.8-21.2Q10 36.8 1.4 66.6" stroke="#000" stroke-linecap="round" stroke-width="1.5" fill="none"/></svg>