<?xml version="1.0" encoding="utf-8"?>
<!-- Generator: Adobe Illustrator 16.0.0, SVG Export Plug-In . SVG Version: 6.00 Build 0)  -->
<!DOCTYPE svg PUBLIC "-//W3C//DTD SVG 1.1//EN" "http://www.w3.org/Graphics/SVG/1.1/DTD/svg11.dtd">
<svg version="1.1" id="Layer_1" xmlns="http://www.w3.org/2000/svg" xmlns:xlink="http://www.w3.org/1999/xlink" x="0px" y="0px"
	 width="900px" height="450px" viewBox="0 0 900 450" enable-background="new 0 0 900 450" xml:space="preserve">
<g transform="matrix( 1, 0, 0, 1, 0,0) ">
	<g>
		<g id="Layer0_0_FILL">
			<path fill="#4B5A5D" d="M553.923,296.96l-13.099-1.343c7.464,13.434,11.828,29.74,13.099,48.919
				c2.91,0.448,5.857,0.896,8.844,1.343C562.841,331.475,559.894,315.168,553.923,296.96 M757.884,307.706
				c0.226-1.493,0.448-3.059,0.671-4.701c1.419-13.284-0.186-21.643-4.813-25.075c-4.178,15.075-60.227,22.426-168.141,22.052
				c-2.239-0.074-4.478-0.111-6.717-0.111l-24.962-2.91c5.971,18.208,8.918,34.515,8.844,48.919
				c26.268,3.433,53.322,4.105,81.159,2.016c19.254-1.417,38.732-4.255,58.434-8.508c15.002-3.209,30.188-7.201,45.561-11.979
				c4.181-2.239,7.165-7.426,8.956-15.559c-2.686,3.655-6.978,7.051-12.874,10.187c-6.191,3.207-13.545,5.782-22.052,7.725
				c-15.598,3.729-33.846,6.751-54.741,9.066c-18.73,2.014-35.374,3.059-49.927,3.134c-11.865,0.074-20.412-0.411-25.636-1.454
				c-4.852-0.896-7.199-2.464-7.051-4.703c0.148-2.165,15.41-3.805,45.783-4.924c33.809-1.119,53.772-2.688,59.891-4.703v-9.738
				l7.501-1.008l1.343-14.664l45.674-7.613l-1.23,13.099h4.363v11.641L757.884,307.706z"/>
			<path fill="#23261B" d="M527.839,278.152c-13.434-0.446-23.135,0.337-29.105,2.353c9.852-0.074,19.03,4.104,27.538,12.537
				c9.255,9.552,14.926,21.755,17.017,36.604c2.014,15.001-0.3,28.1-6.942,39.294c-5.969,10.373-13.656,16.644-23.06,18.806
				c13.807-0.148,25.71-2.313,35.71-6.491c4.181-2.913,7.277-7.241,9.293-12.987c2.164-5.523,3.655-12.909,4.478-22.164
				c0-0.076,0-0.15,0-0.225c-2.986-0.446-5.934-0.895-8.844-1.343c-1.271-19.179-5.635-35.485-13.099-48.919
				c-1.417-2.764-3.021-5.374-4.813-7.836C533.398,284.198,530.675,280.99,527.839,278.152 M223.799,257.668
				c5.671,8.433,8.844,18.88,9.515,31.345c0.597,12.462-1.455,23.171-6.157,32.127c-3.955,7.836-8.806,12.465-14.553,13.881
				c14.18-0.371,24.441-2.127,30.785-5.26c6.12-9.927,9.18-22.538,9.18-37.838l-12.649-2.799
				c-0.522-14.182-3.173-26.419-7.949-36.719c-1.194-2.388-2.425-4.663-3.694-6.828c-0.075,0-0.112-0.037-0.112-0.111
				c-1.792-1.269-8.657-1.231-20.598,0.111l-0.111,0.111C213.426,246.288,218.874,250.28,223.799,257.668z"/>
			<path fill="#C7D3CF" d="M499.853,234.271l-0.671,10.298l39.292,5.037l0.671-10.298L499.853,234.271 M370.67,273.563
				c-0.374-2.613-0.672-5.187-0.895-7.725l-142.617-22.275c0.298,0.521,0.634,1.154,1.008,1.902c0,0.074,0.037,0.111,0.112,0.111
				c1.269,2.165,2.5,4.44,3.694,6.828L370.67,273.563 M366.08,217.704c0,3.433,0.15,6.941,0.448,10.522l132.654,16.344l0.671-10.298
				L366.08,217.704 M366.528,228.226c-0.298-3.581-0.448-7.089-0.448-10.522l-215.828-26.755v10.299L366.528,228.226
				 M452.948,286.103c0.896-2.388,1.827-4.627,2.798-6.717l-85.971-13.547c0.223,2.538,0.521,5.111,0.895,7.725l82.278,12.65
				V286.103z"/>
			<path fill="#EF7301" d="M615.38,283.526l-4.926-32.016l-30.336-0.225l5.708,30.113
				C586.05,283.339,595.901,284.049,615.38,283.526z"/>
			<path fill="#E7F9FB" d="M644.932,251.623l-34.478-0.112l4.926,32.016c16.718-0.371,34.179-1.045,52.389-2.016
				c-0.223-5.969-1.119-11.12-2.687-15.447C661.574,257.482,654.858,252.668,644.932,251.623 M747.138,253.973
				c0.522,3.358,1.23,7.354,2.127,11.979l6.269-7.054c-0.372-10.671-3.096-19.777-8.173-27.314
				c-1.491,3.436-1.977,8.062-1.454,13.882C746.055,247.407,746.466,250.241,747.138,253.973z"/>
			<path fill="#1D1F16" d="M675.604,354.052c13.882-2.091,22.8-6.979,26.755-14.665c-19.701,4.253-39.18,7.091-58.434,8.508
				C650.939,354.388,661.5,356.438,675.604,354.052 M233.314,289.013c-0.671-12.465-3.844-22.912-9.515-31.345
				c-4.926-7.388-10.374-11.38-16.343-11.979c-0.204-0.065-0.465-0.104-0.784-0.111h-0.448c-0.447,0-0.858,0-1.231,0
				c-0.15,0-0.299,0-0.448,0c-7.313,0.374-13.284,5.037-17.911,13.993c-4.702,9.255-6.754,20.075-6.157,32.464
				c0.15,0.745,0.262,1.456,0.336,2.127c0,0.224,0.038,0.522,0.112,0.896c0.821,11.046,3.806,20.484,8.956,28.32
				c5.672,8.434,12.127,12.465,19.366,12.091c0.522,0,1.083-0.037,1.679-0.111c0.224-0.074,0.485-0.113,0.784-0.113
				c0.075,0,0.149,0,0.224,0c0.149-0.074,0.336-0.149,0.56-0.224h0.111c5.747-1.416,10.598-6.045,14.553-13.881
				C231.859,312.184,233.912,301.475,233.314,289.013 M204.433,263.713c0.523-0.074,1.12-0.074,1.791,0
				c3.732,0.372,7.127,2.873,10.188,7.5c3.433,5.226,5.336,11.68,5.708,19.367c0.448,7.688-0.821,14.253-3.807,19.701
				c-2.462,4.852-5.447,7.725-8.955,8.619c-0.149,0-0.336,0.037-0.56,0.111c-0.148,0-0.298,0.04-0.447,0.114
				c-0.299,0-0.634,0-1.008,0c-4.552,0.297-8.544-2.204-11.978-7.502c-3.358-5.224-5.261-11.643-5.709-19.253
				c-0.522-7.688,0.747-14.33,3.807-19.928C196.149,266.847,199.806,263.937,204.433,263.713 M462.129,339.275
				c0.745,5.746,2.162,11.12,4.252,16.118c2.838,7.688,7.054,14.441,12.65,20.264c9.479,9.627,19.813,13.805,31.008,12.537
				c0.896-0.074,1.828-0.224,2.799-0.448c0.074,0,0.148,0,0.225,0c0.075,0,0.149,0,0.224,0c9.403-2.162,17.091-8.433,23.06-18.806
				c6.643-11.194,8.956-24.293,6.942-39.294c-2.091-14.85-7.762-27.053-17.017-36.604c-8.508-8.433-17.687-12.611-27.538-12.537
				c-0.448,0-0.859,0-1.231,0c-0.747,0-1.416,0.035-2.016,0.111c-11.417,1.269-20.299,7.611-26.641,19.03
				C462.352,311.064,460.112,324.274,462.129,339.275 M477.801,338.827c-1.271-9.403,0.074-17.725,4.029-24.964
				c3.955-7.017,9.516-10.935,16.681-11.754c0.448-0.075,0.894-0.112,1.342-0.112c0.226,0,0.522,0,0.896,0
				c6.046-0.074,11.717,2.536,17.015,7.836c5.896,5.97,9.479,13.657,10.746,23.061c1.269,9.255-0.148,17.428-4.252,24.516
				c-3.732,6.494-8.656,10.447-14.778,11.866c-0.521,0-1.119,0.037-1.791,0.111c-7.016,0.822-13.507-1.754-19.479-7.723
				C482.539,355.693,479.068,348.082,477.801,338.827z"/>
			<path fill="#C1D8DE" d="M742.883,312.184l0.674-5.932l1.23-13.099l-45.674,7.613l-1.343,14.664l-0.56,5.597L742.883,312.184
				 M198.612,280.616c-1.642,3.208-2.389,7.017-2.239,11.418c0.224,4.329,1.27,7.986,3.134,10.971
				c2.09,2.985,4.366,4.401,6.829,4.253c0.298,0,0.521,0,0.671,0c0.074-0.074,0.187-0.111,0.335-0.111c0.15,0,0.261,0,0.336,0
				c1.94-0.522,3.582-2.128,4.926-4.813c1.866-3.135,2.612-6.904,2.239-11.308c-0.224-4.403-1.306-8.097-3.247-11.081
				c-1.716-2.613-3.657-4.031-5.82-4.255c-0.374-0.074-0.709-0.074-1.008,0C202.157,275.765,200.104,277.407,198.612,280.616
				 M487.876,338.268c0.745,5.224,2.722,9.516,5.932,12.874c3.433,3.581,7.165,5.074,11.194,4.478c0.299,0,0.56-0.037,0.785-0.111
				c3.657-0.748,6.565-2.987,8.729-6.717c2.239-4.106,3.024-8.77,2.353-13.993c-0.673-5.3-2.687-9.664-6.045-13.099
				c-3.136-3.059-6.382-4.553-9.74-4.478c-0.224,0-0.446,0-0.672,0c-0.223,0-0.448,0-0.671,0c-4.106,0.374-7.276,2.612-9.515,6.716
				C487.839,327.968,487.056,332.745,487.876,338.268z"/>
			<path fill="#252B29" d="M756.876,311.85c0.374-1.345,0.708-2.725,1.008-4.144l-9.964,10.187v-11.641h-4.363l-0.674,5.932
				l-45.672,8.844l0.56-5.597l-7.501,1.008v9.738c-6.118,2.016-26.082,3.584-59.891,4.703c-30.373,1.119-45.635,2.759-45.783,4.924
				c-0.148,2.239,2.199,3.807,7.051,4.703c5.224,1.043,13.771,1.528,25.636,1.454c14.553-0.075,31.196-1.12,49.927-3.134
				c20.896-2.315,39.144-5.337,54.741-9.066c8.507-1.942,15.86-4.518,22.052-7.725C749.898,318.9,754.19,315.505,756.876,311.85z"/>
			<path fill="#FFFFFF" d="M749.265,265.952c-0.896-4.626-1.604-8.621-2.127-11.979c-17.463,5.001-44.815,9.032-82.056,12.091
				c1.567,4.327,2.464,9.479,2.687,15.447c-18.21,0.971-35.671,1.645-52.389,2.016c-19.479,0.522-29.33-0.188-29.554-2.127
				l-0.225,18.582c107.914,0.374,163.963-6.977,168.141-22.052c1.343-6.791,1.939-13.137,1.791-19.031L749.265,265.952
				 M686.239,287.222c-7.016-1.793-10.224-6.231-9.626-13.322c0.671-2.687,10.634-5.56,29.888-8.62
				c19.104-2.984,30.71-3.619,34.816-1.902c1.865,6.419,0.671,11.417-3.584,15.001c-3.657,3.059-10.448,5.485-20.372,7.276
				C703.107,288.341,692.733,288.861,686.239,287.222 M531.868,179.419c0.148,0.224,0.3,0.448,0.448,0.671
				c33.435,43.584,49.367,67.317,47.802,71.196l30.336,0.225l34.478,0.112c9.927,1.045,16.643,5.859,20.15,14.44
				c37.24-3.059,64.593-7.09,82.056-12.091c-0.672-3.731-1.083-6.565-1.231-8.507c-0.522-5.82-0.037-10.446,1.454-13.882
				l-56.531-61.345L531.868,179.419z"/>
			<path fill="#1C2627" d="M676.613,273.899c-0.598,7.091,2.61,11.529,9.626,13.322c6.494,1.64,16.868,1.119,31.122-1.567
				c9.924-1.791,16.715-4.218,20.372-7.276c4.255-3.584,5.449-8.582,3.584-15.001c-4.106-1.717-15.712-1.082-34.816,1.902
				C687.247,268.34,677.284,271.213,676.613,273.899 M708.965,276.587c0.074-1.345,0.895-2.575,2.462-3.695
				c1.493-1.119,3.321-1.79,5.485-2.016c1.942-0.223,3.621,0.039,5.038,0.785c1.343,0.819,1.977,1.902,1.902,3.247
				c-0.075,1.342-0.895,2.573-2.462,3.692c-1.491,1.119-3.321,1.756-5.486,1.904c-1.939,0.224-3.581-0.074-4.926-0.896
				C709.413,278.938,708.74,277.93,708.965,276.587z"/>
			<path fill="#4E627D" d="M711.427,272.892c-1.567,1.12-2.388,2.351-2.462,3.695c-0.225,1.343,0.448,2.351,2.014,3.021
				c1.345,0.822,2.986,1.12,4.926,0.896c2.165-0.148,3.995-0.785,5.486-1.904c1.567-1.119,2.387-2.351,2.462-3.692
				c0.074-1.345-0.56-2.428-1.902-3.247c-1.417-0.746-3.096-1.008-5.038-0.785C714.748,271.102,712.92,271.772,711.427,272.892z"/>
			<path fill="#3D4A43" d="M144.879,263.488l19.479,6.605l12.761,4.366c-0.896-14.404,0.709-25.747,4.813-34.032l-38.732-8.507
				C143.35,242.37,143.909,252.891,144.879,263.488z"/>
			<path fill="#A9AEA8" d="M206.224,263.713c-0.671-0.074-1.268-0.074-1.791,0c-4.627,0.224-8.284,3.134-10.97,8.73
				c-3.06,5.598-4.329,12.24-3.807,19.928c0.448,7.61,2.351,14.029,5.709,19.253c3.434,5.298,7.426,7.799,11.978,7.502
				c0.374,0,0.709,0,1.008,0c0.148-0.074,0.298-0.114,0.447-0.114c0.224-0.074,0.411-0.111,0.56-0.111
				c3.508-0.895,6.493-3.768,8.955-8.619c2.986-5.448,4.255-12.014,3.807-19.701c-0.373-7.688-2.276-14.142-5.708-19.367
				C213.352,266.586,209.956,264.085,206.224,263.713 M196.373,292.034c-0.15-4.401,0.597-8.21,2.239-11.418
				c1.492-3.209,3.545-4.852,6.157-4.926c0.298-0.074,0.634-0.074,1.008,0c2.164,0.224,4.104,1.642,5.82,4.255
				c1.94,2.984,3.022,6.678,3.247,11.081c0.373,4.403-0.373,8.173-2.239,11.308c-1.344,2.685-2.985,4.29-4.926,4.813l-0.671,0.111
				c-0.15,0-0.373,0-0.671,0c-2.463,0.148-4.739-1.268-6.829-4.253C197.643,300.021,196.597,296.363,196.373,292.034
				 M481.83,313.863c-3.955,7.239-5.3,15.561-4.029,24.964c1.268,9.255,4.738,16.866,10.409,22.837
				c5.972,5.969,12.463,8.545,19.479,7.723c0.672-0.074,1.271-0.111,1.791-0.111c6.122-1.419,11.046-5.372,14.778-11.866
				c4.104-7.088,5.521-15.261,4.252-24.516c-1.268-9.403-4.85-17.091-10.746-23.061c-5.298-5.3-10.969-7.91-17.015-7.836
				c-0.374,0-0.671,0-0.896,0c-0.448,0-0.894,0.037-1.342,0.112C491.346,302.929,485.785,306.847,481.83,313.863 M493.808,351.142
				c-3.21-3.358-5.187-7.65-5.932-12.874c-0.82-5.522-0.037-10.3,2.351-14.33c2.238-4.104,5.408-6.342,9.515-6.716
				c0.223,0,0.448,0,0.671,0c0.226,0,0.448,0,0.672,0c3.358-0.075,6.604,1.419,9.74,4.478c3.358,3.435,5.372,7.799,6.045,13.099
				c0.672,5.224-0.113,9.887-2.353,13.993c-2.164,3.729-5.072,5.969-8.729,6.717c-0.226,0.074-0.486,0.111-0.785,0.111
				C500.973,356.216,497.24,354.723,493.808,351.142z"/>
			<path fill="#191C21" d="M228.166,245.466c-0.374-0.748-0.709-1.382-1.008-1.902l-2.463-0.448l2.463,0.448
				c-6.12-9.403-13.209-14.964-21.27-16.68c-8.657-2.016-15.672,0.894-21.045,8.729c-1.12,1.568-2.09,3.173-2.912,4.814
				c-4.104,8.285-5.708,19.628-4.813,34.032l-12.761-4.366l-7.725,8.507v19.479l24.292-3.021c-0.074-0.374-0.112-0.673-0.112-0.896
				c-0.074-0.671-0.186-1.382-0.336-2.127c-0.597-12.389,1.455-23.209,6.157-32.464c4.627-8.956,10.598-13.619,17.911-13.993
				c0.149,0,0.298,0,0.448,0c0.373,0,0.784,0,1.231,0h0.448c0.326,0,0.624,0,0.895,0
				C219.509,244.234,226.374,244.197,228.166,245.466 M451.157,333.119l-1.679-0.337l-7.5,30.336
				c11.044-5.074,19.18-7.65,24.402-7.725c-2.09-4.998-3.507-10.372-4.252-16.118c-2.017-15.001,0.223-28.211,6.717-39.629
				c6.342-11.419,15.224-17.762,26.641-19.03c0.6-0.076,1.269-0.111,2.016-0.111c0.372,0,0.783,0,1.231,0
				c5.971-2.016,15.672-2.799,29.105-2.353c-7.686-7.312-16.27-11.605-25.747-12.873c-13.134-1.641-24.367,3.135-33.695,14.329
				C458.174,291.923,452.428,309.759,451.157,333.119z"/>
			<path fill="#E9F6EF" d="M445.448,323.267c1.194-14.85,3.694-27.203,7.5-37.053l-82.278-12.65
				c1.567,12.313,3.544,24.553,5.933,36.718L445.448,323.267 M366.528,228.226c0.597,12.465,1.679,25.002,3.247,37.613
				l85.971,13.547c8.882-17.316,23.098-25.227,42.652-23.733l0.783-11.083L366.528,228.226 M376.603,73.408l-209.224-5.149
				c-16.045,53.36-24.105,107.913-24.179,163.662l38.732,8.507c0.821-1.642,1.792-3.246,2.912-4.814
				c5.373-7.836,12.388-10.746,21.045-8.729c8.061,1.716,15.15,7.276,21.27,16.68l142.617,22.275
				c-1.568-12.611-2.65-25.148-3.247-37.613l-216.276-26.978v-10.299l215.828,26.755C364.363,171.06,367.872,122.961,376.603,73.408
				 M159.656,142.253l10.746-58.435c0.896-4.552,2.911-6.717,6.045-6.493l66.831,0.448c3.581,0.224,5.074,2.463,4.478,6.716
				l-9.852,63.584c-0.597,4.18-2.686,6.231-6.269,6.157l-67.614-5.262C160.439,148.671,158.983,146.433,159.656,142.253
				 M254.024,149.194l9.18-63.473c0.671-4.552,3.097-6.716,7.276-6.492l85.861,2.127c4.402,0,6.38,2.239,5.933,6.716l-10.523,67.502
				c-0.373,4.18-2.873,6.157-7.5,5.933l-84.293-5.597C255.479,155.687,253.502,153.447,254.024,149.194 M504.442,160.053
				l0.784-13.546l-44.889-70.86l-83.735-2.239c-8.731,49.554-12.24,97.652-10.523,144.296l133.773,16.568l2.576-41.419l-3.136-0.224
				l-60.897-5.933c-16.046-3.06-32.091-7.911-48.136-14.553c-7.313-1.94-10.709-7.649-10.188-17.127
				c1.045-16.567,1.754-27.278,2.127-32.128c0.97-11.643,2.389-21.681,4.253-30.114c0.523-4.701,2.426-8.134,5.71-10.298
				c3.358-2.09,7.649-2.874,12.874-2.352l39.068,2.015c9.851,0.224,16.941,4.403,21.27,12.538L504.442,160.053 M504.442,160.053
				l0.448,0.784l8.844,14.776c0.522,1.642,0.857,3.135,1.008,4.478c1.119,7.836-2.949,12.091-12.202,12.762h-0.111l-2.576,41.419
				l39.292,5.037l-0.671,10.298l-39.292-5.037l-0.783,11.083c-19.555-1.493-33.771,6.417-42.652,23.733
				c-0.971,2.09-1.902,4.329-2.798,6.717v0.111c-3.806,9.85-6.306,22.203-7.5,37.053l-68.845-12.985
				c-2.389-12.165-4.366-24.404-5.933-36.718l-138.699-21.158c4.776,10.3,7.426,22.537,7.949,36.719l12.649,2.799l196.909,40.859
				l1.679,0.337c1.271-23.36,7.017-41.196,17.239-53.511c9.328-11.194,20.562-15.97,33.695-14.329
				c9.478,1.268,18.062,5.562,25.747,12.873c2.836,2.838,5.56,6.046,8.173,9.629c1.791,2.462,3.396,5.072,4.813,7.836l13.099,1.343
				l24.962,2.91c2.313-24.254-1.565-44.74-11.641-61.458c-2.912-4.85-8.844-13.245-17.799-25.186
				c-9.404-12.687-17.092-23.844-23.061-33.472l-21.158-33.248L504.442,160.053z"/>
			<path fill="#E2F1EA" d="M263.204,85.721l-9.18,63.473c-0.522,4.253,1.455,6.493,5.933,6.717l84.293,5.597
				c4.627,0.224,7.128-1.753,7.5-5.933l10.523-67.502c0.447-4.478-1.531-6.716-5.933-6.716l-85.861-2.127
				C266.301,79.005,263.875,81.169,263.204,85.721 M170.402,83.818l-10.746,58.435c-0.672,4.18,0.784,6.418,4.365,6.717
				l67.614,5.262c3.583,0.074,5.672-1.978,6.269-6.157l9.852-63.584c0.597-4.253-0.896-6.492-4.478-6.716l-66.831-0.448
				C173.313,77.102,171.297,79.266,170.402,83.818 M602.729,79.117c-0.597-3.732-23.171-7.202-67.726-10.412
				c-39.929-2.835-88.996-4.962-147.207-6.38c-57.838-1.343-107.355-1.605-148.55-0.784c-45.673,0.97-69.629,3.208-71.869,6.717
				l209.224,5.149l83.735,2.239c5.82-0.224,11.605-0.373,17.352-0.447C526.346,74.378,568.027,75.684,602.729,79.117
				 M505.898,139.343l-0.672,7.164l21.158,33.248l5.483-0.335C523.062,166.06,514.405,152.701,505.898,139.343 M505.227,146.507
				l0.672-7.164c-10.897-17.538-21.532-35.225-31.904-53.062c-2.61-4.702-1.382-8.396,3.695-11.082
				c-5.746,0.074-11.531,0.223-17.352,0.447L505.227,146.507z"/>
			<path fill="#2E393F" d="M465.15,186.359c5.896,1.194,13.134,1.455,21.717,0.784c2.762-6.12,3.582-15.412,2.463-27.875
				c0-1.94-0.149-5.708-0.446-11.306c-0.374-5.597-5.448-7.986-15.227-7.165c-7.162,0.299-11.528,5.187-13.097,14.665v23.508
				C460.858,183.374,462.389,185.837,465.15,186.359 M514.742,180.09c-2.688-6.194-6.494-11.791-11.42-16.792
				c-7.014-2.761-11.68-4.104-13.992-4.03c1.119,12.463,0.299,21.755-2.463,27.875l7.389-1.008l5.037,6.493l3.136,0.224h0.111
				C511.793,192.181,515.861,187.926,514.742,180.09z"/>
			<path fill="#879DAA" d="M505.898,139.343c8.507,13.358,17.163,26.717,25.97,40.076l158.961-9.18l-88.1-91.122
				c-34.702-3.434-76.384-4.739-125.04-3.918c-5.077,2.686-6.306,6.38-3.695,11.082
				C484.366,104.118,495.001,121.805,505.898,139.343 M555.824,173.933c-2.238-0.298-3.059-1.342-2.461-3.134
				c16.865-4.254,32.872-8.694,48.023-13.321c7.985,0.447,16.792,0.634,26.419,0.56c0.374,3.283-1.38,5.111-5.263,5.484
				c-10.969-0.597-22.24-0.597-33.807,0C577.394,166.434,566.422,169.903,555.824,173.933 M669.336,160.053
				c-3.806-0.448-7.799-0.448-11.977,0c-7.091,3.358-12.799,6.492-17.129,9.402c-2.687,1.12-5.26,1.344-7.725,0.672
				c8.136-3.434,16.418-7.873,24.854-13.322h15.224C672.957,158.672,671.873,159.754,669.336,160.053 M504.891,160.836l-0.448-0.784
				l-39.067-65.376c-4.329-8.134-11.419-12.313-21.27-12.538l-39.068-2.015c-5.225-0.522-9.515,0.261-12.874,2.352
				c-3.284,2.164-5.187,5.597-5.71,10.298c-1.865,8.433-3.284,18.471-4.253,30.114c-0.373,4.85-1.083,15.561-2.127,32.128
				c-0.521,9.478,2.874,15.187,10.188,17.127c16.045,6.642,32.09,11.493,48.136,14.553l60.897,5.933l-5.037-6.493l-7.389,1.008
				c-8.583,0.671-15.82,0.41-21.717-0.784c-2.762-0.522-4.292-2.985-4.59-7.389v-23.508c1.568-9.478,5.935-14.366,13.097-14.665
				c9.778-0.821,14.853,1.568,15.227,7.165c0.297,5.597,0.446,9.365,0.446,11.306c2.313-0.074,6.979,1.269,13.992,4.03
				c4.926,5,8.732,10.598,11.42,16.792c-0.15-1.342-0.485-2.835-1.008-4.478L504.891,160.836z"/>
			<path fill="#0D1A22" d="M657.359,160.053c4.178-0.448,8.171-0.448,11.977,0c2.537-0.298,3.621-1.381,3.247-3.247h-15.224
				c-8.436,5.449-16.718,9.888-24.854,13.322c2.465,0.671,5.038,0.447,7.725-0.672C644.561,166.545,650.269,163.411,657.359,160.053
				 M553.363,170.799c-0.598,1.792,0.223,2.836,2.461,3.134c10.598-4.03,21.569-7.5,32.912-10.411
				c11.566-0.597,22.838-0.597,33.807,0c3.883-0.373,5.637-2.202,5.263-5.484c-9.627,0.074-18.434-0.113-26.419-0.56
				C586.235,162.104,570.229,166.545,553.363,170.799z"/>
		</g>
	</g>
	<g>
		
			<path id="Layer0_0_1_STROKES" fill="none" stroke="#000000" stroke-width="0.05" stroke-linecap="round" stroke-linejoin="round" d="
			M622.543,163.522c-10.969-0.597-22.24-0.597-33.807,0c-11.343,2.911-22.314,6.381-32.912,10.411
			c-2.238-0.298-3.059-1.342-2.461-3.134c16.865-4.254,32.872-8.694,48.023-13.321c7.985,0.447,16.792,0.634,26.419,0.56
			C628.18,161.321,626.426,163.149,622.543,163.522z M657.359,156.806h15.224c0.374,1.866-0.71,2.949-3.247,3.247
			c-3.806-0.448-7.799-0.448-11.977,0c-7.091,3.358-12.799,6.492-17.129,9.402c-2.687,1.12-5.26,1.344-7.725,0.672
			C640.642,166.694,648.924,162.254,657.359,156.806z M490.227,323.938c2.238-4.104,5.408-6.342,9.515-6.716
			c0.223,0,0.448,0,0.671,0c0.226,0,0.448,0,0.672,0c3.358-0.075,6.604,1.419,9.74,4.478c3.358,3.435,5.372,7.799,6.045,13.099
			c0.672,5.224-0.113,9.887-2.353,13.993c-2.164,3.729-5.072,5.969-8.729,6.717c-0.226,0.074-0.486,0.111-0.785,0.111
			c-4.029,0.597-7.762-0.896-11.194-4.478c-3.21-3.358-5.187-7.65-5.932-12.874C487.056,332.745,487.839,327.968,490.227,323.938z
			 M143.2,231.921l-1.231-0.448 M207.008,307.258c-0.15,0-0.373,0-0.671,0c-2.463,0.148-4.739-1.268-6.829-4.253
			c-1.865-2.984-2.91-6.642-3.134-10.971c-0.15-4.401,0.597-8.21,2.239-11.418c1.492-3.209,3.545-4.852,6.157-4.926
			c0.298-0.074,0.634-0.074,1.008,0c2.164,0.224,4.104,1.642,5.82,4.255c1.94,2.984,3.022,6.678,3.247,11.081
			c0.373,4.403-0.373,8.173-2.239,11.308c-1.344,2.685-2.985,4.29-4.926,4.813 M207.008,307.258
			c0.074-0.074,0.187-0.111,0.335-0.111c0.15,0,0.261,0,0.336,0 M562.767,345.879c0,0.074,0,0.148,0,0.225"/>
	</g>
	<g>
		<path id="Layer0_0_2_STROKES" fill="none" stroke="#000000" stroke-width="2" stroke-linecap="round" stroke-linejoin="round" d="
			M504.442,160.053l0.448,0.784l8.844,14.776c0.522,1.642,0.857,3.135,1.008,4.478c1.119,7.836-2.949,12.091-12.202,12.762h-0.111
			l-2.576,41.419l39.292,5.037l-0.671,10.298l-39.292-5.037l-0.783,11.083c-19.555-1.493-33.771,6.417-42.652,23.733
			c-0.971,2.09-1.902,4.329-2.798,6.717v0.111c-3.806,9.85-6.306,22.203-7.5,37.053l-68.845-12.985
			c-2.389-12.165-4.366-24.404-5.933-36.718l-138.699-21.158c4.776,10.3,7.426,22.537,7.949,36.719l12.649,2.799l196.909,40.859
			l1.679,0.337c1.271-23.36,7.017-41.196,17.239-53.511c9.328-11.194,20.562-15.97,33.695-14.329
			c9.478,1.268,18.062,5.562,25.747,12.873c2.836,2.838,5.56,6.046,8.173,9.629c1.791,2.462,3.396,5.072,4.813,7.836l13.099,1.343
			l24.962,2.91c2.313-24.254-1.565-44.74-11.641-61.458c-2.912-4.85-8.844-13.245-17.799-25.186
			c-9.404-12.687-17.092-23.844-23.061-33.472l-21.158-33.248L504.442,160.053l-39.067-65.376
			c-4.329-8.134-11.419-12.313-21.27-12.538l-39.068-2.015c-5.225-0.522-9.515,0.261-12.874,2.352
			c-3.284,2.164-5.187,5.597-5.71,10.298c-1.865,8.433-3.284,18.471-4.253,30.114c-0.373,4.85-1.083,15.561-2.127,32.128
			c-0.521,9.478,2.874,15.187,10.188,17.127c16.045,6.642,32.09,11.493,48.136,14.553l60.897,5.933l-5.037-6.493l-7.389,1.008
			c-8.583,0.671-15.82,0.41-21.717-0.784c-2.762-0.522-4.292-2.985-4.59-7.389v-23.508c1.568-9.478,5.935-14.366,13.097-14.665
			c9.778-0.821,14.853,1.568,15.227,7.165c0.297,5.597,0.446,9.365,0.446,11.306c2.313-0.074,6.979,1.269,13.992,4.03
			c4.926,5,8.732,10.598,11.42,16.792 M505.227,146.507l0.672-7.164c-10.897-17.538-21.532-35.225-31.904-53.062
			c-2.61-4.702-1.382-8.396,3.695-11.082c-5.746,0.074-11.531,0.223-17.352,0.447L505.227,146.507z M526.385,179.754l5.483-0.335
			c-8.807-13.359-17.463-26.718-25.97-40.076 M531.868,179.419c0.148,0.224,0.3,0.448,0.448,0.671
			c33.435,43.584,49.367,67.317,47.802,71.196l30.336,0.225l34.478,0.112c9.927,1.045,16.643,5.859,20.15,14.44
			c37.24-3.059,64.593-7.09,82.056-12.091c-0.672-3.731-1.083-6.565-1.231-8.507c-0.522-5.82-0.037-10.446,1.454-13.882
			l-56.531-61.345L531.868,179.419z M167.379,68.259c2.239-3.508,26.196-5.747,71.869-6.717c41.195-0.821,90.711-0.56,148.55,0.784
			c58.211,1.418,107.278,3.544,147.207,6.38c44.555,3.21,67.129,6.68,67.726,10.412l88.1,91.122 M164.021,148.97l67.614,5.262
			c3.583,0.074,5.672-1.978,6.269-6.157l9.852-63.584c0.597-4.253-0.896-6.492-4.478-6.716l-66.831-0.448
			c-3.134-0.224-5.15,1.94-6.045,6.493l-10.746,58.435C158.983,146.433,160.439,148.671,164.021,148.97z M351.751,155.575
			l10.523-67.502c0.447-4.478-1.531-6.716-5.933-6.716l-85.861-2.127c-4.18-0.224-6.605,1.94-7.276,6.492l-9.18,63.473
			c-0.522,4.253,1.455,6.493,5.933,6.717l84.293,5.597C348.878,161.732,351.378,159.754,351.751,155.575z M486.867,187.143
			c2.762-6.12,3.582-15.412,2.463-27.875 M460.338,75.646l-83.735-2.239c-8.731,49.554-12.24,97.652-10.523,144.296l133.773,16.568
			l-0.671,10.298l-132.654-16.344c0.597,12.465,1.679,25.002,3.247,37.613l85.971,13.547 M376.603,73.408l-209.224-5.149
			c-16.045,53.36-24.105,107.913-24.179,163.662l38.732,8.507c0.821-1.642,1.792-3.246,2.912-4.814
			c5.373-7.836,12.388-10.746,21.045-8.729c8.061,1.716,15.15,7.276,21.27,16.68l142.617,22.275
			c0.223,2.538,0.521,5.111,0.895,7.725l82.278,12.65 M366.528,228.226c-0.298-3.581-0.448-7.089-0.448-10.522l-215.828-26.755
			v10.299L366.528,228.226z M500.749,301.997c6.046-0.074,11.717,2.536,17.015,7.836c5.896,5.97,9.479,13.657,10.746,23.061
			c1.269,9.255-0.148,17.428-4.252,24.516c-3.732,6.494-8.656,10.447-14.778,11.866c-0.521,0-1.119,0.037-1.791,0.111
			c-7.016,0.822-13.507-1.754-19.479-7.723c-5.671-5.971-9.142-13.582-10.409-22.837c-1.271-9.403,0.074-17.725,4.029-24.964
			c3.955-7.017,9.516-10.935,16.681-11.754c0.448-0.075,0.894-0.112,1.342-0.112C500.078,301.997,500.375,301.997,500.749,301.997z
			 M466.381,355.394c-2.09-4.998-3.507-10.372-4.252-16.118c-2.017-15.001,0.223-28.211,6.717-39.629
			c6.342-11.419,15.224-17.762,26.641-19.03c0.6-0.076,1.269-0.111,2.016-0.111c0.372,0,0.783,0,1.231,0
			c5.971-2.016,15.672-2.799,29.105-2.353 M466.381,355.394c2.838,7.688,7.054,14.441,12.65,20.264
			c9.479,9.627,19.813,13.805,31.008,12.537c0.896-0.074,1.828-0.224,2.799-0.448c0.074,0,0.148,0,0.225,0c0.075,0,0.149,0,0.224,0
			c9.403-2.162,17.091-8.433,23.06-18.806c6.643-11.194,8.956-24.293,6.942-39.294c-2.091-14.85-7.762-27.053-17.017-36.604
			c-8.508-8.433-17.687-12.611-27.538-12.537 M449.478,332.782l-7.5,30.336c11.044-5.074,19.18-7.65,24.402-7.725 M228.166,245.466
			c-0.374-0.748-0.709-1.382-1.008-1.902l-2.463-0.448 M212.605,335.021c5.747-1.416,10.598-6.045,14.553-13.881
			c4.702-8.956,6.754-19.665,6.157-32.127c-0.671-12.465-3.844-22.912-9.515-31.345c-4.926-7.388-10.374-11.38-16.343-11.979
			c-0.204-0.065-0.446-0.104-0.728-0.111h-0.504c-0.447,0-0.858,0-1.231,0c-0.15,0-0.299,0-0.448,0
			c-7.313,0.374-13.284,5.037-17.911,13.993c-4.702,9.255-6.754,20.075-6.157,32.464c0.15,0.745,0.262,1.456,0.336,2.127
			c0,0.224,0.038,0.522,0.112,0.896c0.821,11.046,3.806,20.484,8.956,28.32c5.672,8.434,12.127,12.465,19.366,12.091
			c0.522,0,1.083-0.037,1.679-0.111c0.224-0.074,0.485-0.113,0.784-0.113c0.075,0,0.149,0,0.224,0
			c0.149-0.074,0.336-0.149,0.56-0.224H212.605c14.18-0.371,24.441-2.127,30.785-5.26c6.12-9.927,9.18-22.538,9.18-37.838
			 M231.971,252.405c-1.194-2.388-2.425-4.663-3.694-6.828c-0.075,0-0.112-0.037-0.112-0.111c-1.792-1.269-8.657-1.231-20.598,0.111
			 M164.357,270.094l-7.725,8.507v19.479l24.292-3.021 M143.2,231.921c0.15,10.449,0.709,20.97,1.679,31.567l19.479,6.605
			l12.761,4.366c-0.896-14.404,0.709-25.747,4.813-34.032 M206.728,245.577c0.289,0,0.568,0,0.839,0 M206.224,263.713
			c3.732,0.372,7.127,2.873,10.188,7.5c3.433,5.226,5.336,11.68,5.708,19.367c0.448,7.688-0.821,14.253-3.807,19.701
			c-2.462,4.852-5.447,7.725-8.955,8.619c-0.149,0-0.336,0.037-0.56,0.111c-0.148,0-0.298,0.04-0.447,0.114
			c-0.299,0-0.634,0-1.008,0c-4.552,0.297-8.544-2.204-11.978-7.502c-3.358-5.224-5.261-11.643-5.709-19.253
			c-0.522-7.688,0.747-14.33,3.807-19.928c2.686-5.597,6.343-8.507,10.97-8.73C204.956,263.639,205.553,263.639,206.224,263.713z
			 M715.904,280.505c-1.939,0.224-3.581-0.074-4.926-0.896c-1.565-0.671-2.238-1.679-2.014-3.021
			c0.074-1.345,0.895-2.575,2.462-3.695c1.493-1.119,3.321-1.79,5.485-2.016c1.942-0.223,3.621,0.039,5.038,0.785
			c1.343,0.819,1.977,1.902,1.902,3.247c-0.075,1.342-0.895,2.573-2.462,3.692C719.899,279.72,718.069,280.356,715.904,280.505z
			 M741.317,263.377c1.865,6.419,0.671,11.417-3.584,15.001c-3.657,3.059-10.448,5.485-20.372,7.276
			c-14.254,2.687-24.628,3.207-31.122,1.567c-7.016-1.793-10.224-6.231-9.626-13.322c0.671-2.687,10.634-5.56,29.888-8.62
			C725.605,262.295,737.211,261.66,741.317,263.377z M747.138,253.973c0.522,3.358,1.23,7.354,2.127,11.979l6.269-7.054
			c-0.372-10.671-3.096-19.777-8.173-27.314 M755.533,258.898c0.148,5.895-0.448,12.24-1.791,19.031
			c4.627,3.433,6.231,11.791,4.813,25.075c-0.223,1.643-0.445,3.208-0.671,4.701c-0.3,1.419-0.634,2.799-1.008,4.144
			c-1.791,8.133-4.775,13.319-8.956,15.559c-15.372,4.777-30.559,8.77-45.561,11.979c-3.955,7.686-12.873,12.574-26.755,14.665
			c-14.104,2.387-24.665,0.336-31.679-6.157c-27.837,2.09-54.892,1.417-81.159-2.016 M562.767,346.104
			c-0.822,9.255-2.313,16.641-4.478,22.164c-2.016,5.746-5.112,10.074-9.293,12.987c-10,4.178-21.903,6.343-35.71,6.491
			 M757.884,307.706l-9.964,10.187v-11.641h-4.363l-0.674,5.932l-45.672,8.844l0.56-5.597l-7.501,1.008v9.738
			c-6.118,2.016-26.082,3.584-59.891,4.703c-30.373,1.119-45.635,2.759-45.783,4.924c-0.148,2.239,2.199,3.807,7.051,4.703
			c5.224,1.043,13.771,1.528,25.636,1.454c14.553-0.075,31.196-1.12,49.927-3.134c20.896-2.315,39.144-5.337,54.741-9.066
			c8.507-1.942,15.86-4.518,22.052-7.725c5.896-3.136,10.188-6.531,12.874-10.187 M697.771,315.431l1.343-14.664l45.674-7.613
			l-1.23,13.099 M585.826,281.399l-0.225,18.582c107.914,0.374,163.963-6.977,168.141-22.052 M615.38,283.526
			c16.718-0.371,34.179-1.045,52.389-2.016c-0.223-5.969-1.119-11.12-2.687-15.447 M610.454,251.511l4.926,32.016
			c-19.479,0.522-29.33-0.188-29.554-2.127l-5.708-30.113 M502.429,192.852l-3.136-0.224 M540.824,295.617
			c7.464,13.434,11.828,29.74,13.099,48.919c2.91,0.448,5.857,0.896,8.844,1.343c0.074-14.404-2.873-30.711-8.844-48.919
			 M585.602,299.981c-2.239-0.074-4.478-0.111-6.717-0.111 M643.926,347.895c19.254-1.417,38.732-4.255,58.434-8.508
			 M477.689,75.199c48.656-0.821,90.338,0.484,125.04,3.918"/>
	</g>
</g>
</svg>
