<svg xmlns="http://www.w3.org/2000/svg" width="900" height="450" viewBox="0 0 900 450"><path fill="#4B5A5D" d="M553.923 296.96l-13.099-1.343c7.464 13.434 11.828 29.74 13.099 48.919 2.91.448 5.857.896 8.844 1.343.074-14.404-2.873-30.711-8.844-48.919m203.961 10.746c.226-1.493.448-3.059.671-4.701 1.419-13.284-.186-21.643-4.813-25.075-4.178 15.075-60.227 22.426-168.141 22.052a203.332 203.332 0 0 0-6.717-.111l-24.962-2.91c5.971 18.208 8.918 34.515 8.844 48.919 26.268 3.433 53.322 4.105 81.159 2.016 19.254-1.417 38.732-4.255 58.434-8.508 15.002-3.209 30.188-7.201 45.561-11.979 4.181-2.239 7.165-7.426 8.956-15.559-2.686 3.655-6.978 7.051-12.874 10.187-6.191 3.207-13.545 5.782-22.052 7.725-15.598 3.729-33.846 6.751-54.741 9.066-18.73 2.014-35.374 3.059-49.927 3.134-11.865.074-20.412-.411-25.636-1.454-4.852-.896-7.199-2.464-7.051-4.703.148-2.165 15.41-3.805 45.783-4.924 33.809-1.119 53.772-2.688 59.891-4.703v-9.738l7.501-1.008 1.343-14.664 45.674-7.613-1.23 13.099h4.363v11.641l9.964-10.189z"/><path fill="#23261B" d="M527.839 278.152c-13.434-.446-23.135.337-29.105 2.353 9.852-.074 19.03 4.104 27.538 12.537 9.255 9.552 14.926 21.755 17.017 36.604 2.014 15.001-.3 28.1-6.942 39.294-5.969 10.373-13.656 16.644-23.06 18.806 13.807-.148 25.71-2.313 35.71-6.491 4.181-2.913 7.277-7.241 9.293-12.987 2.164-5.523 3.655-12.909 4.478-22.164v-.225c-2.986-.446-5.934-.895-8.844-1.343-1.271-19.179-5.635-35.485-13.099-48.919a59.111 59.111 0 0 0-4.813-7.836c-2.614-3.583-5.337-6.791-8.173-9.629m-304.04-20.484c5.671 8.433 8.844 18.88 9.515 31.345.597 12.462-1.455 23.171-6.157 32.127-3.955 7.836-8.806 12.465-14.553 13.881 14.18-.371 24.441-2.127 30.785-5.26 6.12-9.927 9.18-22.538 9.18-37.838l-12.649-2.799c-.522-14.182-3.173-26.419-7.949-36.719a116.75 116.75 0 0 0-3.694-6.828c-.075 0-.112-.037-.112-.111-1.792-1.269-8.657-1.231-20.598.111l-.111.111c5.97.6 11.418 4.592 16.343 11.98z"/><path fill="#C7D3CF" d="M499.853 234.271l-.671 10.298 39.292 5.037.671-10.298-39.292-5.037M370.67 273.563a142.617 142.617 0 0 1-.895-7.725l-142.617-22.275c.298.521.634 1.154 1.008 1.902 0 .074.037.111.112.111a116.75 116.75 0 0 1 3.694 6.828l138.698 21.159m-4.59-55.859c0 3.433.15 6.941.448 10.522l132.654 16.344.671-10.298-133.773-16.568m.448 10.522a126.897 126.897 0 0 1-.448-10.522l-215.828-26.755v10.299l216.276 26.978m86.42 57.877a95.983 95.983 0 0 1 2.798-6.717l-85.971-13.547c.223 2.538.521 5.111.895 7.725l82.278 12.65v-.111z"/><path fill="#EF7301" d="M615.38 283.526l-4.926-32.016-30.336-.225 5.708 30.113c.224 1.941 10.075 2.651 29.554 2.128z"/><path fill="#E7F9FB" d="M644.932 251.623l-34.478-.112 4.926 32.016c16.718-.371 34.179-1.045 52.389-2.016-.223-5.969-1.119-11.12-2.687-15.447-3.508-8.582-10.224-13.396-20.15-14.441m102.206 2.35c.522 3.358 1.23 7.354 2.127 11.979l6.269-7.054c-.372-10.671-3.096-19.777-8.173-27.314-1.491 3.436-1.977 8.062-1.454 13.882.148 1.941.559 4.775 1.231 8.507z"/><path fill="#1D1F16" d="M675.604 354.052c13.882-2.091 22.8-6.979 26.755-14.665-19.701 4.253-39.18 7.091-58.434 8.508 7.014 6.493 17.575 8.543 31.679 6.157m-442.29-65.039c-.671-12.465-3.844-22.912-9.515-31.345-4.926-7.388-10.374-11.38-16.343-11.979a2.827 2.827 0 0 0-.784-.111H204.545c-7.313.374-13.284 5.037-17.911 13.993-4.702 9.255-6.754 20.075-6.157 32.464.15.745.262 1.456.336 2.127 0 .224.038.522.112.896.821 11.046 3.806 20.484 8.956 28.32 5.672 8.434 12.127 12.465 19.366 12.091.522 0 1.083-.037 1.679-.111.224-.074.485-.113.784-.113h.224c.149-.074.336-.149.56-.224h.111c5.747-1.416 10.598-6.045 14.553-13.881 4.701-8.956 6.754-19.665 6.156-32.127m-28.881-25.3c.523-.074 1.12-.074 1.791 0 3.732.372 7.127 2.873 10.188 7.5 3.433 5.226 5.336 11.68 5.708 19.367.448 7.688-.821 14.253-3.807 19.701-2.462 4.852-5.447 7.725-8.955 8.619a1.86 1.86 0 0 0-.56.111c-.148 0-.298.04-.447.114h-1.008c-4.552.297-8.544-2.204-11.978-7.502-3.358-5.224-5.261-11.643-5.709-19.253-.522-7.688.747-14.33 3.807-19.928 2.686-5.595 6.343-8.505 10.97-8.729m257.696 75.562c.745 5.746 2.162 11.12 4.252 16.118 2.838 7.688 7.054 14.441 12.65 20.264 9.479 9.627 19.813 13.805 31.008 12.537a19.669 19.669 0 0 0 2.799-.448h.449c9.403-2.162 17.091-8.433 23.06-18.806 6.643-11.194 8.956-24.293 6.942-39.294-2.091-14.85-7.762-27.053-17.017-36.604-8.508-8.433-17.687-12.611-27.538-12.537h-1.231c-.747 0-1.416.035-2.016.111-11.417 1.269-20.299 7.611-26.641 19.03-6.494 11.418-8.734 24.628-6.717 39.629m15.672-.448c-1.271-9.403.074-17.725 4.029-24.964 3.955-7.017 9.516-10.935 16.681-11.754a8.102 8.102 0 0 1 1.342-.112h.896c6.046-.074 11.717 2.536 17.015 7.836 5.896 5.97 9.479 13.657 10.746 23.061 1.269 9.255-.148 17.428-4.252 24.516-3.732 6.494-8.656 10.447-14.778 11.866-.521 0-1.119.037-1.791.111-7.016.822-13.507-1.754-19.479-7.723-5.671-5.971-9.142-13.582-10.409-22.837z"/><path fill="#C1D8DE" d="M742.883 312.184l.674-5.932 1.23-13.099-45.674 7.613-1.343 14.664-.56 5.597 45.673-8.843m-544.271-31.568c-1.642 3.208-2.389 7.017-2.239 11.418.224 4.329 1.27 7.986 3.134 10.971 2.09 2.985 4.366 4.401 6.829 4.253h.671c.074-.074.187-.111.335-.111h.336c1.94-.522 3.582-2.128 4.926-4.813 1.866-3.135 2.612-6.904 2.239-11.308-.224-4.403-1.306-8.097-3.247-11.081-1.716-2.613-3.657-4.031-5.82-4.255a2.31 2.31 0 0 0-1.008 0c-2.611.075-4.664 1.717-6.156 4.926m289.264 57.652c.745 5.224 2.722 9.516 5.932 12.874 3.433 3.581 7.165 5.074 11.194 4.478.299 0 .56-.037.785-.111 3.657-.748 6.565-2.987 8.729-6.717 2.239-4.106 3.024-8.77 2.353-13.993-.673-5.3-2.687-9.664-6.045-13.099-3.136-3.059-6.382-4.553-9.74-4.478h-1.343c-4.106.374-7.276 2.612-9.515 6.716-2.387 4.03-3.17 8.807-2.35 14.33z"/><path fill="#252B29" d="M756.876 311.85a67.834 67.834 0 0 0 1.008-4.144l-9.964 10.187v-11.641h-4.363l-.674 5.932-45.672 8.844.56-5.597-7.501 1.008v9.738c-6.118 2.016-26.082 3.584-59.891 4.703-30.373 1.119-45.635 2.759-45.783 4.924-.148 2.239 2.199 3.807 7.051 4.703 5.224 1.043 13.771 1.528 25.636 1.454 14.553-.075 31.196-1.12 49.927-3.134 20.896-2.315 39.144-5.337 54.741-9.066 8.507-1.942 15.86-4.518 22.052-7.725 5.895-3.136 10.187-6.531 12.873-10.186z"/><path fill="#FFF" d="M749.265 265.952c-.896-4.626-1.604-8.621-2.127-11.979-17.463 5.001-44.815 9.032-82.056 12.091 1.567 4.327 2.464 9.479 2.687 15.447-18.21.971-35.671 1.645-52.389 2.016-19.479.522-29.33-.188-29.554-2.127l-.225 18.582c107.914.374 163.963-6.977 168.141-22.052 1.343-6.791 1.939-13.137 1.791-19.031l-6.268 7.053m-63.026 21.27c-7.016-1.793-10.224-6.231-9.626-13.322.671-2.687 10.634-5.56 29.888-8.62 19.104-2.984 30.71-3.619 34.816-1.902 1.865 6.419.671 11.417-3.584 15.001-3.657 3.059-10.448 5.485-20.372 7.276-14.254 2.686-24.628 3.206-31.122 1.567M531.868 179.419c.148.224.3.448.448.671 33.435 43.584 49.367 67.317 47.802 71.196l30.336.225 34.478.112c9.927 1.045 16.643 5.859 20.15 14.44 37.24-3.059 64.593-7.09 82.056-12.091-.672-3.731-1.083-6.565-1.231-8.507-.522-5.82-.037-10.446 1.454-13.882l-56.531-61.345-158.962 9.181z"/><path fill="#1C2627" d="M676.613 273.899c-.598 7.091 2.61 11.529 9.626 13.322 6.494 1.64 16.868 1.119 31.122-1.567 9.924-1.791 16.715-4.218 20.372-7.276 4.255-3.584 5.449-8.582 3.584-15.001-4.106-1.717-15.712-1.082-34.816 1.902-19.254 3.061-29.217 5.934-29.888 8.62m32.352 2.688c.074-1.345.895-2.575 2.462-3.695 1.493-1.119 3.321-1.79 5.485-2.016 1.942-.223 3.621.039 5.038.785 1.343.819 1.977 1.902 1.902 3.247-.075 1.342-.895 2.573-2.462 3.692-1.491 1.119-3.321 1.756-5.486 1.904-1.939.224-3.581-.074-4.926-.896-1.565-.67-2.238-1.678-2.013-3.021z"/><path fill="#4E627D" d="M711.427 272.892c-1.567 1.12-2.388 2.351-2.462 3.695-.225 1.343.448 2.351 2.014 3.021 1.345.822 2.986 1.12 4.926.896 2.165-.148 3.995-.785 5.486-1.904 1.567-1.119 2.387-2.351 2.462-3.692.074-1.345-.56-2.428-1.902-3.247-1.417-.746-3.096-1.008-5.038-.785-2.165.226-3.993.896-5.486 2.016z"/><path fill="#3D4A43" d="M144.879 263.488l19.479 6.605 12.761 4.366c-.896-14.404.709-25.747 4.813-34.032L143.2 231.92c.15 10.45.709 20.971 1.679 31.568z"/><path fill="#A9AEA8" d="M206.224 263.713c-.671-.074-1.268-.074-1.791 0-4.627.224-8.284 3.134-10.97 8.73-3.06 5.598-4.329 12.24-3.807 19.928.448 7.61 2.351 14.029 5.709 19.253 3.434 5.298 7.426 7.799 11.978 7.502h1.008a.999.999 0 0 1 .447-.114 1.86 1.86 0 0 1 .56-.111c3.508-.895 6.493-3.768 8.955-8.619 2.986-5.448 4.255-12.014 3.807-19.701-.373-7.688-2.276-14.142-5.708-19.367-3.06-4.628-6.456-7.129-10.188-7.501m-9.851 28.321c-.15-4.401.597-8.21 2.239-11.418 1.492-3.209 3.545-4.852 6.157-4.926a2.309 2.309 0 0 1 1.008 0c2.164.224 4.104 1.642 5.82 4.255 1.94 2.984 3.022 6.678 3.247 11.081.373 4.403-.373 8.173-2.239 11.308-1.344 2.685-2.985 4.29-4.926 4.813l-.671.111h-.671c-2.463.148-4.739-1.268-6.829-4.253-1.865-2.984-2.911-6.642-3.135-10.971m285.457 21.829c-3.955 7.239-5.3 15.561-4.029 24.964 1.268 9.255 4.738 16.866 10.409 22.837 5.972 5.969 12.463 8.545 19.479 7.723a16.593 16.593 0 0 1 1.791-.111c6.122-1.419 11.046-5.372 14.778-11.866 4.104-7.088 5.521-15.261 4.252-24.516-1.268-9.403-4.85-17.091-10.746-23.061-5.298-5.3-10.969-7.91-17.015-7.836h-.896c-.448 0-.894.037-1.342.112-7.165.82-12.726 4.738-16.681 11.754m11.978 37.279c-3.21-3.358-5.187-7.65-5.932-12.874-.82-5.522-.037-10.3 2.351-14.33 2.238-4.104 5.408-6.342 9.515-6.716h1.343c3.358-.075 6.604 1.419 9.74 4.478 3.358 3.435 5.372 7.799 6.045 13.099.672 5.224-.113 9.887-2.353 13.993-2.164 3.729-5.072 5.969-8.729 6.717a2.517 2.517 0 0 1-.785.111c-4.03.596-7.763-.897-11.195-4.478z"/><path fill="#191C21" d="M228.166 245.466a37.888 37.888 0 0 0-1.008-1.902l-2.463-.448 2.463.448c-6.12-9.403-13.209-14.964-21.27-16.68-8.657-2.016-15.672.894-21.045 8.729a36.09 36.09 0 0 0-2.912 4.814c-4.104 8.285-5.708 19.628-4.813 34.032l-12.761-4.366-7.725 8.507v19.479l24.292-3.021a4.893 4.893 0 0 1-.112-.896 24.323 24.323 0 0 0-.336-2.127c-.597-12.389 1.455-23.209 6.157-32.464 4.627-8.956 10.598-13.619 17.911-13.993H207.566c11.943-1.344 18.808-1.381 20.6-.112m222.991 87.653l-1.679-.337-7.5 30.336c11.044-5.074 19.18-7.65 24.402-7.725-2.09-4.998-3.507-10.372-4.252-16.118-2.017-15.001.223-28.211 6.717-39.629 6.342-11.419 15.224-17.762 26.641-19.03.6-.076 1.269-.111 2.016-.111h1.231c5.971-2.016 15.672-2.799 29.105-2.353-7.686-7.312-16.27-11.605-25.747-12.873-13.134-1.641-24.367 3.135-33.695 14.329-10.222 12.315-15.968 30.151-17.239 53.511z"/><path fill="#E9F6EF" d="M445.448 323.267c1.194-14.85 3.694-27.203 7.5-37.053l-82.278-12.65a552.362 552.362 0 0 0 5.933 36.718l68.845 12.985m-78.92-95.041a497.73 497.73 0 0 0 3.247 37.613l85.971 13.547c8.882-17.316 23.098-25.227 42.652-23.733l.783-11.083-132.653-16.344m10.075-154.818l-209.224-5.149c-16.045 53.36-24.105 107.913-24.179 163.662l38.732 8.507a35.923 35.923 0 0 1 2.912-4.814c5.373-7.836 12.388-10.746 21.045-8.729 8.061 1.716 15.15 7.276 21.27 16.68l142.617 22.275a497.73 497.73 0 0 1-3.247-37.613l-216.276-26.978V190.95l215.828 26.755c-1.718-46.645 1.791-94.744 10.522-144.297m-216.947 68.845l10.746-58.435c.896-4.552 2.911-6.717 6.045-6.493l66.831.448c3.581.224 5.074 2.463 4.478 6.716l-9.852 63.584c-.597 4.18-2.686 6.231-6.269 6.157l-67.614-5.262c-3.582-.297-5.038-2.535-4.365-6.715m94.368 6.941l9.18-63.473c.671-4.552 3.097-6.716 7.276-6.492l85.861 2.127c4.402 0 6.38 2.239 5.933 6.716l-10.523 67.502c-.373 4.18-2.873 6.157-7.5 5.933l-84.293-5.597c-4.479-.223-6.456-2.463-5.934-6.716m250.418 10.859l.784-13.546-44.889-70.86-83.735-2.239c-8.731 49.554-12.24 97.652-10.523 144.296l133.773 16.568 2.576-41.419-3.136-.224-60.897-5.933c-16.046-3.06-32.091-7.911-48.136-14.553-7.313-1.94-10.709-7.649-10.188-17.127 1.045-16.567 1.754-27.278 2.127-32.128.97-11.643 2.389-21.681 4.253-30.114.523-4.701 2.426-8.134 5.71-10.298 3.358-2.09 7.649-2.874 12.874-2.352l39.068 2.015c9.851.224 16.941 4.403 21.27 12.538l39.069 65.376m0 0l.448.784 8.844 14.776c.522 1.642.857 3.135 1.008 4.478 1.119 7.836-2.949 12.091-12.202 12.762h-.111l-2.576 41.419 39.292 5.037-.671 10.298-39.292-5.037-.783 11.083c-19.555-1.493-33.771 6.417-42.652 23.733a95.983 95.983 0 0 0-2.798 6.717v.111c-3.806 9.85-6.306 22.203-7.5 37.053l-68.845-12.985a552.257 552.257 0 0 1-5.933-36.718l-138.699-21.158c4.776 10.3 7.426 22.537 7.949 36.719l12.649 2.799 196.909 40.859 1.679.337c1.271-23.36 7.017-41.196 17.239-53.511 9.328-11.194 20.562-15.97 33.695-14.329 9.478 1.268 18.062 5.562 25.747 12.873 2.836 2.838 5.56 6.046 8.173 9.629a59.216 59.216 0 0 1 4.813 7.836l13.099 1.343 24.962 2.91c2.313-24.254-1.565-44.74-11.641-61.458-2.912-4.85-8.844-13.245-17.799-25.186-9.404-12.687-17.092-23.844-23.061-33.472l-21.158-33.248-.785 13.546z"/><path fill="#E2F1EA" d="M263.204 85.721l-9.18 63.473c-.522 4.253 1.455 6.493 5.933 6.717l84.293 5.597c4.627.224 7.128-1.753 7.5-5.933l10.523-67.502c.447-4.478-1.531-6.716-5.933-6.716l-85.861-2.127c-4.178-.225-6.604 1.939-7.275 6.491m-92.802-1.903l-10.746 58.435c-.672 4.18.784 6.418 4.365 6.717l67.614 5.262c3.583.074 5.672-1.978 6.269-6.157l9.852-63.584c.597-4.253-.896-6.492-4.478-6.716l-66.831-.448c-3.134-.225-5.15 1.939-6.045 6.491m432.327-4.701c-.597-3.732-23.171-7.202-67.726-10.412-39.929-2.835-88.996-4.962-147.207-6.38-57.838-1.343-107.355-1.605-148.55-.784-45.673.97-69.629 3.208-71.869 6.717l209.224 5.149 83.735 2.239c5.82-.224 11.605-.373 17.352-.447 48.658-.821 90.339.485 125.041 3.918m-96.831 60.226l-.672 7.164 21.158 33.248 5.483-.335a3052.985 3052.985 0 0 1-25.969-40.077m-.671 7.164l.672-7.164a2115.681 2115.681 0 0 1-31.904-53.062c-2.61-4.702-1.382-8.396 3.695-11.082-5.746.074-11.531.223-17.352.447l44.889 70.861z"/><path fill="#2E393F" d="M465.15 186.359c5.896 1.194 13.134 1.455 21.717.784 2.762-6.12 3.582-15.412 2.463-27.875 0-1.94-.149-5.708-.446-11.306-.374-5.597-5.448-7.986-15.227-7.165-7.162.299-11.528 5.187-13.097 14.665v23.508c.298 4.404 1.829 6.867 4.59 7.389m49.592-6.269c-2.688-6.194-6.494-11.791-11.42-16.792-7.014-2.761-11.68-4.104-13.992-4.03 1.119 12.463.299 21.755-2.463 27.875l7.389-1.008 5.037 6.493 3.136.224h.111c9.253-.671 13.321-4.926 12.202-12.762z"/><path fill="#879DAA" d="M505.898 139.343a3026 3026 0 0 0 25.97 40.076l158.961-9.18-88.1-91.122c-34.702-3.434-76.384-4.739-125.04-3.918-5.077 2.686-6.306 6.38-3.695 11.082a2115.681 2115.681 0 0 0 31.904 53.062m49.926 34.59c-2.238-.298-3.059-1.342-2.461-3.134 16.865-4.254 32.872-8.694 48.023-13.321 7.985.447 16.792.634 26.419.56.374 3.283-1.38 5.111-5.263 5.484-10.969-.597-22.24-.597-33.807 0-11.341 2.912-22.313 6.381-32.911 10.411m113.512-13.88c-3.806-.448-7.799-.448-11.977 0-7.091 3.358-12.799 6.492-17.129 9.402-2.687 1.12-5.26 1.344-7.725.672 8.136-3.434 16.418-7.873 24.854-13.322h15.224c.374 1.867-.71 2.949-3.247 3.248m-164.445.783l-.448-.784-39.067-65.376c-4.329-8.134-11.419-12.313-21.27-12.538l-39.068-2.015c-5.225-.522-9.515.261-12.874 2.352-3.284 2.164-5.187 5.597-5.71 10.298-1.865 8.433-3.284 18.471-4.253 30.114-.373 4.85-1.083 15.561-2.127 32.128-.521 9.478 2.874 15.187 10.188 17.127 16.045 6.642 32.09 11.493 48.136 14.553l60.897 5.933-5.037-6.493-7.389 1.008c-8.583.671-15.82.41-21.717-.784-2.762-.522-4.292-2.985-4.59-7.389v-23.508c1.568-9.478 5.935-14.366 13.097-14.665 9.778-.821 14.853 1.568 15.227 7.165.297 5.597.446 9.365.446 11.306 2.313-.074 6.979 1.269 13.992 4.03 4.926 5 8.732 10.598 11.42 16.792-.15-1.342-.485-2.835-1.008-4.478l-8.845-14.776z"/><path fill="#0D1A22" d="M657.359 160.053c4.178-.448 8.171-.448 11.977 0 2.537-.298 3.621-1.381 3.247-3.247h-15.224c-8.436 5.449-16.718 9.888-24.854 13.322 2.465.671 5.038.447 7.725-.672 4.331-2.911 10.039-6.045 17.129-9.403m-103.996 10.746c-.598 1.792.223 2.836 2.461 3.134 10.598-4.03 21.569-7.5 32.912-10.411 11.566-.597 22.838-.597 33.807 0 3.883-.373 5.637-2.202 5.263-5.484-9.627.074-18.434-.113-26.419-.56-15.152 4.626-31.158 9.067-48.024 13.321z"/><g><path fill="none" stroke="#000" stroke-width=".05" stroke-linecap="round" stroke-linejoin="round" d="M622.543 163.522c-10.969-.597-22.24-.597-33.807 0-11.343 2.911-22.314 6.381-32.912 10.411-2.238-.298-3.059-1.342-2.461-3.134 16.865-4.254 32.872-8.694 48.023-13.321 7.985.447 16.792.634 26.419.56.375 3.283-1.379 5.111-5.262 5.484zm34.816-6.716h15.224c.374 1.866-.71 2.949-3.247 3.247-3.806-.448-7.799-.448-11.977 0-7.091 3.358-12.799 6.492-17.129 9.402-2.687 1.12-5.26 1.344-7.725.672 8.137-3.433 16.419-7.873 24.854-13.321zM490.227 323.938c2.238-4.104 5.408-6.342 9.515-6.716h1.343c3.358-.075 6.604 1.419 9.74 4.478 3.358 3.435 5.372 7.799 6.045 13.099.672 5.224-.113 9.887-2.353 13.993-2.164 3.729-5.072 5.969-8.729 6.717a2.517 2.517 0 0 1-.785.111c-4.029.597-7.762-.896-11.194-4.478-3.21-3.358-5.187-7.65-5.932-12.874-.821-5.523-.038-10.3 2.35-14.33zM143.2 231.921l-1.231-.448m65.039 75.785h-.671c-2.463.148-4.739-1.268-6.829-4.253-1.865-2.984-2.91-6.642-3.134-10.971-.15-4.401.597-8.21 2.239-11.418 1.492-3.209 3.545-4.852 6.157-4.926a2.309 2.309 0 0 1 1.008 0c2.164.224 4.104 1.642 5.82 4.255 1.94 2.984 3.022 6.678 3.247 11.081.373 4.403-.373 8.173-2.239 11.308-1.344 2.685-2.985 4.29-4.926 4.813m-.672.111c.074-.074.187-.111.335-.111h.336m355.088 38.732v.225"/></g><g><path fill="none" stroke="#000" stroke-width="2" stroke-linecap="round" stroke-linejoin="round" d="M504.442 160.053l.448.784 8.844 14.776c.522 1.642.857 3.135 1.008 4.478 1.119 7.836-2.949 12.091-12.202 12.762h-.111l-2.576 41.419 39.292 5.037-.671 10.298-39.292-5.037-.783 11.083c-19.555-1.493-33.771 6.417-42.652 23.733a95.983 95.983 0 0 0-2.798 6.717v.111c-3.806 9.85-6.306 22.203-7.5 37.053l-68.845-12.985a552.257 552.257 0 0 1-5.933-36.718l-138.699-21.158c4.776 10.3 7.426 22.537 7.949 36.719l12.649 2.799 196.909 40.859 1.679.337c1.271-23.36 7.017-41.196 17.239-53.511 9.328-11.194 20.562-15.97 33.695-14.329 9.478 1.268 18.062 5.562 25.747 12.873 2.836 2.838 5.56 6.046 8.173 9.629a59.216 59.216 0 0 1 4.813 7.836l13.099 1.343 24.962 2.91c2.313-24.254-1.565-44.74-11.641-61.458-2.912-4.85-8.844-13.245-17.799-25.186-9.404-12.687-17.092-23.844-23.061-33.472l-21.158-33.248-.785 13.546-39.067-65.376c-4.329-8.134-11.419-12.313-21.27-12.538l-39.068-2.015c-5.225-.522-9.515.261-12.874 2.352-3.284 2.164-5.187 5.597-5.71 10.298-1.865 8.433-3.284 18.471-4.253 30.114-.373 4.85-1.083 15.561-2.127 32.128-.521 9.478 2.874 15.187 10.188 17.127 16.045 6.642 32.09 11.493 48.136 14.553l60.897 5.933-5.037-6.493-7.389 1.008c-8.583.671-15.82.41-21.717-.784-2.762-.522-4.292-2.985-4.59-7.389v-23.508c1.568-9.478 5.935-14.366 13.097-14.665 9.778-.821 14.853 1.568 15.227 7.165.297 5.597.446 9.365.446 11.306 2.313-.074 6.979 1.269 13.992 4.03 4.926 5 8.732 10.598 11.42 16.792m-9.516-33.584l.672-7.164a2115.681 2115.681 0 0 1-31.904-53.062c-2.61-4.702-1.382-8.396 3.695-11.082-5.746.074-11.531.223-17.352.447l44.889 70.861zm21.158 33.247l5.483-.335a3026 3026 0 0 1-25.97-40.076m25.97 40.076c.148.224.3.448.448.671 33.435 43.584 49.367 67.317 47.802 71.196l30.336.225 34.478.112c9.927 1.045 16.643 5.859 20.15 14.44 37.24-3.059 64.593-7.09 82.056-12.091-.672-3.731-1.083-6.565-1.231-8.507-.522-5.82-.037-10.446 1.454-13.882l-56.531-61.345-158.962 9.181zM167.379 68.259c2.239-3.508 26.196-5.747 71.869-6.717 41.195-.821 90.711-.56 148.55.784 58.211 1.418 107.278 3.544 147.207 6.38 44.555 3.21 67.129 6.68 67.726 10.412l88.1 91.122m-526.81-21.27l67.614 5.262c3.583.074 5.672-1.978 6.269-6.157l9.852-63.584c.597-4.253-.896-6.492-4.478-6.716l-66.831-.448c-3.134-.224-5.15 1.94-6.045 6.493l-10.746 58.435c-.673 4.178.783 6.416 4.365 6.715zm187.73 6.605l10.523-67.502c.447-4.478-1.531-6.716-5.933-6.716L270.48 79.23c-4.18-.224-6.605 1.94-7.276 6.492l-9.18 63.473c-.522 4.253 1.455 6.493 5.933 6.717l84.293 5.597c4.628.223 7.128-1.755 7.501-5.934zm135.116 31.568c2.762-6.12 3.582-15.412 2.463-27.875m-28.992-83.622l-83.735-2.239c-8.731 49.554-12.24 97.652-10.523 144.296l133.773 16.568-.671 10.298-132.654-16.344a497.73 497.73 0 0 0 3.247 37.613l85.971 13.547M376.603 73.408l-209.224-5.149c-16.045 53.36-24.105 107.913-24.179 163.662l38.732 8.507a35.923 35.923 0 0 1 2.912-4.814c5.373-7.836 12.388-10.746 21.045-8.729 8.061 1.716 15.15 7.276 21.27 16.68l142.617 22.275c.223 2.538.521 5.111.895 7.725l82.278 12.65m-86.421-57.989a126.897 126.897 0 0 1-.448-10.522l-215.828-26.755v10.299l216.276 26.978zm134.221 73.771c6.046-.074 11.717 2.536 17.015 7.836 5.896 5.97 9.479 13.657 10.746 23.061 1.269 9.255-.148 17.428-4.252 24.516-3.732 6.494-8.656 10.447-14.778 11.866-.521 0-1.119.037-1.791.111-7.016.822-13.507-1.754-19.479-7.723-5.671-5.971-9.142-13.582-10.409-22.837-1.271-9.403.074-17.725 4.029-24.964 3.955-7.017 9.516-10.935 16.681-11.754a8.102 8.102 0 0 1 1.342-.112h.896zm-34.368 53.397c-2.09-4.998-3.507-10.372-4.252-16.118-2.017-15.001.223-28.211 6.717-39.629 6.342-11.419 15.224-17.762 26.641-19.03.6-.076 1.269-.111 2.016-.111h1.231c5.971-2.016 15.672-2.799 29.105-2.353m-61.458 77.241c2.838 7.688 7.054 14.441 12.65 20.264 9.479 9.627 19.813 13.805 31.008 12.537a19.669 19.669 0 0 0 2.799-.448h.449c9.403-2.162 17.091-8.433 23.06-18.806 6.643-11.194 8.956-24.293 6.942-39.294-2.091-14.85-7.762-27.053-17.017-36.604-8.508-8.433-17.687-12.611-27.538-12.537m-49.256 52.276l-7.5 30.336c11.044-5.074 19.18-7.65 24.402-7.725M228.166 245.466a37.888 37.888 0 0 0-1.008-1.902l-2.463-.448m-12.09 91.905c5.747-1.416 10.598-6.045 14.553-13.881 4.702-8.956 6.754-19.665 6.157-32.127-.671-12.465-3.844-22.912-9.515-31.345-4.926-7.388-10.374-11.38-16.343-11.979a2.617 2.617 0 0 0-.728-.111H204.546c-7.313.374-13.284 5.037-17.911 13.993-4.702 9.255-6.754 20.075-6.157 32.464.15.745.262 1.456.336 2.127 0 .224.038.522.112.896.821 11.046 3.806 20.484 8.956 28.32 5.672 8.434 12.127 12.465 19.366 12.091.522 0 1.083-.037 1.679-.111.224-.074.485-.113.784-.113h.224c.149-.074.336-.149.56-.224h.11c14.18-.371 24.441-2.127 30.785-5.26 6.12-9.927 9.18-22.538 9.18-37.838m-20.599-39.518a116.75 116.75 0 0 0-3.694-6.828c-.075 0-.112-.037-.112-.111-1.792-1.269-8.657-1.231-20.598.111m-43.21 24.517l-7.725 8.507v19.479l24.292-3.021M143.2 231.921c.15 10.449.709 20.97 1.679 31.567l19.479 6.605 12.761 4.366c-.896-14.404.709-25.747 4.813-34.032m24.796 5.15h.839m-1.343 18.136c3.732.372 7.127 2.873 10.188 7.5 3.433 5.226 5.336 11.68 5.708 19.367.448 7.688-.821 14.253-3.807 19.701-2.462 4.852-5.447 7.725-8.955 8.619a1.86 1.86 0 0 0-.56.111c-.148 0-.298.04-.447.114h-1.008c-4.552.297-8.544-2.204-11.978-7.502-3.358-5.224-5.261-11.643-5.709-19.253-.522-7.688.747-14.33 3.807-19.928 2.686-5.597 6.343-8.507 10.97-8.73.523-.073 1.12-.073 1.791.001zm509.68 16.792c-1.939.224-3.581-.074-4.926-.896-1.565-.671-2.238-1.679-2.014-3.021.074-1.345.895-2.575 2.462-3.695 1.493-1.119 3.321-1.79 5.485-2.016 1.942-.223 3.621.039 5.038.785 1.343.819 1.977 1.902 1.902 3.247-.075 1.342-.895 2.573-2.462 3.692-1.49 1.119-3.32 1.755-5.485 1.904zm25.413-17.128c1.865 6.419.671 11.417-3.584 15.001-3.657 3.059-10.448 5.485-20.372 7.276-14.254 2.687-24.628 3.207-31.122 1.567-7.016-1.793-10.224-6.231-9.626-13.322.671-2.687 10.634-5.56 29.888-8.62 19.104-2.984 30.71-3.619 34.816-1.902zm5.821-9.404c.522 3.358 1.23 7.354 2.127 11.979l6.269-7.054c-.372-10.671-3.096-19.777-8.173-27.314m8.172 27.314c.148 5.895-.448 12.24-1.791 19.031 4.627 3.433 6.231 11.791 4.813 25.075a310.88 310.88 0 0 1-.671 4.701 67.834 67.834 0 0 1-1.008 4.144c-1.791 8.133-4.775 13.319-8.956 15.559-15.372 4.777-30.559 8.77-45.561 11.979-3.955 7.686-12.873 12.574-26.755 14.665-14.104 2.387-24.665.336-31.679-6.157-27.837 2.09-54.892 1.417-81.159-2.016m.001.225c-.822 9.255-2.313 16.641-4.478 22.164-2.016 5.746-5.112 10.074-9.293 12.987-10 4.178-21.903 6.343-35.71 6.491m244.598-80.04l-9.964 10.187v-11.641h-4.363l-.674 5.932-45.672 8.844.56-5.597-7.501 1.008v9.738c-6.118 2.016-26.082 3.584-59.891 4.703-30.373 1.119-45.635 2.759-45.783 4.924-.148 2.239 2.199 3.807 7.051 4.703 5.224 1.043 13.771 1.528 25.636 1.454 14.553-.075 31.196-1.12 49.927-3.134 20.896-2.315 39.144-5.337 54.741-9.066 8.507-1.942 15.86-4.518 22.052-7.725 5.896-3.136 10.188-6.531 12.874-10.187m-59.106 3.582l1.343-14.664 45.674-7.613-1.23 13.099m-157.732-24.854l-.225 18.582c107.914.374 163.963-6.977 168.141-22.052m-138.362 5.597c16.718-.371 34.179-1.045 52.389-2.016-.223-5.969-1.119-11.12-2.687-15.447m-54.628-14.552l4.926 32.016c-19.479.522-29.33-.188-29.554-2.127l-5.708-30.113m-77.689-58.435l-3.136-.224m41.531 102.989c7.464 13.434 11.828 29.74 13.099 48.919 2.91.448 5.857.896 8.844 1.343.074-14.404-2.873-30.711-8.844-48.919m31.679 3.021a203.332 203.332 0 0 0-6.717-.111m65.041 48.025c19.254-1.417 38.732-4.255 58.434-8.508M477.689 75.199c48.656-.821 90.338.484 125.04 3.918"/></g></svg>