<svg xmlns="http://www.w3.org/2000/svg" viewBox="0 0 101.75 151.3"><path fill-rule="evenodd" d="M7.8 11.05l-1.3.1.05-.25.1-1.2-2.15-.25q-.4-.65-.3-1.6 0-.9.35-1.55l.8-.6.55-1.1q-.3-1.25.9-3.05 3.35 5.15 1 9.5m6.35-2.7q.2-1.95-1.05-4.05 3.9 2.25 1.05 4.05m55.75 61.7q-1.05 1.6-1.45 2.9-.45 1.15-.5 3.35l-2.05.75-.9-3.4q0-2.8 1.1-3.7l3.8.1m26.65 62.3q-1.25 2.25-2.8 3.7-6.4 6-14.9 9.55l2.9-6q8.05-3.1 13.4-8.15l.35.25 1.05.65M75.7 146.8l-5.95 1.65q-5.25 1.75-10.3 1.85-5.4.15-10.6-1.65-3.35-1.15-6.65-3.15-11.55-8.4-11.55-23.8l.05-3.6q-.35-4.85-3.25-6.4l1.4-6.35q2.6.75 3.45 3.05.85 2.35.1 6.4 0 1.6.15 3.1 1.5 14.55 12.1 22l1.25-1.35 1.05.75q7.65 3.3 16.7 2.75l3.5-.4 1.85-.35 1.45-.5.65 1.7-1.75.6 1.8-.5 5.55-1.3-1 5.5m-41.8-44.95q.1-1.95-.45-4.2-.8-3.5-2.1-5.65-1.25-2.25-2.05-3.1-.8-1.05-1.95-1.4-2.5-.9-6 .6l.65-3.55q-7.1-7.5-8.9-13.85-1.1-3.5.55-8.55.75 5.45 6.55 11.55 3.95 3.75 2.1 7l.4.3.7.4q2.2-1.7 4.85-.8t4.3 3.95q5.8 10.2 2.55 17.3h-1.2m30.55-18.1l.3.65-2.65 5.25-.3.05-3.5.65-3.8.95q-2.4.65-5.1 1.6l.3-5.05q1.35-.9 2.7-1.65 1.85-.95 3.65-1.55h.05q1.95-.65 3.9-.95h.55l2.15-.15 1.75.2M62.6 144.2l6.75-1.1-6.75 1.1-3.15 6.1 3.15-6.1 1.05-2.15-1.05 2.15q-5.4.25-10.8-1.4 5.4 1.65 10.8 1.4m-13.75 4.45l2.95-5.85-2.95 5.85M22 84.55l.7-3.55-.7 3.55m30.4 57.05l-.6 1.2.6-1.2m-.6 1.2q-2.7-.8-5.45-2.1h-.1l-1.6-.8 1.6.8h.1q2.75 1.3 5.45 2.1" fill="#eb9f3c"/><path fill-rule="evenodd" d="M7.05 14.75l2-.35q1 .55.7 1.45l-1.8.25-2.2.35-.05.7.55-.2q1-.05 1.7.5l.3.35 2.1-.4 2.05-.45.55.75v.85l-1.3.25-2.95.55q0 .7-.55 1.2-.65.7-1.6.7-1 .1-1.75-.55-.7-.55-.75-1.45l.05-.75-.55.1q-1 .05-1.75-.55-.7-.6-.8-1.5 0-.85.65-1.55.65-.6 1.6-.7 1 0 1.7.5l.15.2 1.95-.25M20 14.9l-1-1.4-.85-.8-.1-.4q.1-1.85 1.75-1.9 1.65-.1 2.05 1.5l.05.2.2-.3.35-.25 1.3-.45q1-.05 1.75.55.7.6.8 1.5 0 .9-.65 1.5-.65.75-1.65.7-.95.1-1.65-.45l-.5-.55-.3.2-1.55.35M5.7 17.15q-.65.1-1.1.55l-.5.8.5-.8q.45-.45 1.1-.55m2.55.65q.5.45.5 1.2l-.05.35.05-.35q0-.75-.5-1.2m-2.5-1.35l-.05-.15-.45-1.2-.15-.1.15.1.45 1.2.05.15m16.1-2.1l-.3-.9v-.4l.35-.95-.35.95v.4l.3.9m-.6-1.3L19 13.5l2.25-.45" fill="#4c4c4a"/><path fill-rule="evenodd" d="M18.5 24.65l-3.85-7.8v-.05l1.55-.6 1.6-.4 1.3-.1 1.5.2.05.05.9.15 16.6 26.95 17.9 28.85-.6-.05H52.9l-3.5.7h-.05q-1.7.45-3.3 1.3H46q-1.25.65-2.6 1.5l-14.65-29.8-10.25-20.9M78.85 145.6l-3.15 1.2 1-5.5q-3.85-7.25-6.25-16.75-1.6-3.55-6.4-9.95-5-6.7-6.8-10.25l1.8-.5 2.1-.6 2-.55 2.75-.85 3.1-.9q1.2 4.2 2.25 12.9.95 6.65 2.5 9.65 5.65 10.5 8 16.1-2.35.95-5.05 1.7 2.7-.75 5.05-1.7l-2.9 6M60.4 82.5h-.6q-1-.55-1.15-1.25-.1-.8.7-1.65.35-.2.75-.25h.05l1.2.1.45.2.45.15q1.35.6 2.85 2.05 2.35 2.9 4.2 6l2.9 5.4q1.8 1.9 3.1 2.35 1.25.45 1.95-.5.4-.55-.05-1-1.35.45-1.85-.9.3-1 .95-1.2.75-.15 1.65 1 .95 1.25.3 2.5-1.25 1.5-3.2.85-1.7-.5-3.9-2.6-3.65-4.2-6.4-9.35l.35-.6-.65-.05-.7-1.35-1.9-1.75-.75-.4-.4-.05h-.05l-.2.05q-.4.1-.6.55l-.1.3q.9.65.95 1.1l-.3.3m-14.5 56.05q-3.2-2.6-.55-5.65 2.5-2.55 5.6-4.05 2.95-1.45 6.85-2.25 2-.1 4.1.75 2.35.9 3.65 2.4 3.95 4.05 5.75 6.5t1.2 3.15q-.7.8-2.05 1.4l-1.45.5-1.85.35-3.5.4q-9.05.55-16.7-2.75l-1.05-.75M44.85 84.3l.55.4q.6.75.05 1.7l-1.1.15q-.45-.5-.15-1.45l-.5-.3-1.1-.15q-1.6.25-1.1 3.6 3.4 7.15 4.2 13.7-.1 5.6-3.9 5.3l-1.3-.25-.7-.35q-1.35-.75-1.65-2.05-.2-1.45.7-1.65.85-.25 2 .55.95 1.5-.85 1.75l.25.45.75.4.75.15q1.05.15 1.75-.65.8-1 .6-3.55l-2.45-6.25q-1.4-3.7-2.05-7.45.05-2.3.95-3.6.9-1.2 2.4-1.15 1.2.2 1.9.7" fill="#212121"/><path fill-rule="evenodd" d="M60.4 82.5l.3-.3q-.05-.45-.95-1.1l.1-.3q.2-.45.6-.55l.2-.05h.05l.4.05.75.4 1.9 1.75.7 1.35-1.75-.2-2.15.15-.15-1.2" fill="#b74b2c"/><path fill-rule="evenodd" d="M17.15-65l1.3-.1 3.9-.75 1.05 1.3q2.75-.8 4.9.75.45.6.5.35l.85.8 1 1.4.4.75.2.2v.05l-1.5-.2-1.3.1-1.6.4-1.55.6-.85.45.85-.4 3.85 7.8q-3.75 1.55-6.05-4.55l-.8-1.3 1.3-.25v-.85l-.55-.75-2.05.45-1.25-.5-1.15-.8 1.8-.25q.3-.9-.7-1.45l-2 .35q-.55-1.4-.55-3.6" fill="url(#gradient0)" transform="translate(-10.65 76.15)"/><path fill-rule="evenodd" d="M18.45-65.1q2.35-4.35-1-9.5 1.75-.95 3.75-.3l2.55 3.05q1.25 2.1 1.05 4.05-.05.85-.45 1.65l-2 .3-3.9.75" fill="url(#gradient1)" transform="translate(-10.65 76.15)"/><path fill-rule="evenodd" d="M48.8-33.1q7.75-.7 13.7 1.3Q75.3-26.95 77-15.5q.35 7.35 3.85 8.15l-.3 1.25-3.8-.1q-1.1.9-1.1 3.7l.9 3.4q1.75 4.95 5.2 8.3 8.45 6.3 12.75 3.2l1.35.7q-1.95 3 3.95 8.05 5.6 4.2 9.05 11.4 4.35 8.1 1.35 15.75-1.4 3.55-4.4 7-5.35 5.05-13.4 8.15-2.35-5.6-8-16.1-1.55-3-2.5-9.65-1.05-8.7-2.25-12.9l-3.1.9-2.75.85-2 .55-2.1.6-1.8.5q1.8 3.55 6.8 10.25 4.8 6.4 6.4 9.95 2.4 9.5 6.25 16.75l-5.55 1.3-.05-.1-.65-1.7q1.35-.6 2.05-1.4.6-.7-1.2-3.15t-5.75-6.5q-1.3-1.5-3.65-2.4-2.1-.85-4.1-.75-3.9.8-6.85 2.25-3.1 1.5-5.6 4.05-2.65 3.05.55 5.65l-1.25 1.35q-10.6-7.45-12.1-22-.15-1.5-.15-3.1.75-4.05-.1-6.4-.85-2.3-3.45-3.05l.45-1.2q2.15.7 3.6.05l.75-.5q.85-.6 1.45-1.85Q49 18.6 43.2 8.4q-1.65-3.05-4.3-3.95t-4.85.8l-.7-.4-.4-.3q1.85-3.25-2.1-7-5.8-6.1-6.55-11.55-.75-5.2 3.05-9.7 3.45-3.9 12.05-6.9L54.05-.8q1.35-.85 2.6-1.5h.05q1.6-.85 3.3-1.3h.05l3.5-.7h2.55l.6.05L48.8-33.1M75.4 8.25q2.75 5.15 6.4 9.35 2.2 2.1 3.9 2.6 1.95.65 3.2-.85.65-1.25-.3-2.5-.9-1.15-1.65-1-.65.2-.95 1.2.5 1.35 1.85.9.45.45.05 1-.7.95-1.95.5-1.3-.45-3.1-2.35l-2.9-5.4q-1.85-3.1-4.2-6-1.5-1.45-2.85-2.05l-.45-.15-.45-.2-1.2-.1h-.05q-.4.05-.75.25-.8.85-.7 1.65.15.7 1.15 1.25h.6l.15 1.2h-.55q-1.95.3-3.9.95h-.05q-1.8.6-3.65 1.55-1.35.75-2.7 1.65l-.3 5.05q2.7-.95 5.1-1.6l3.8-.95 3.5-.65.3-.05 2.65-5.25m-19.9-.1q-.7-.5-1.9-.7-1.5-.05-2.4 1.15-.9 1.3-.95 3.6.65 3.75 2.05 7.45l2.45 6.25q.2 2.55-.6 3.55-.7.8-1.75.65l-.75-.15-.75-.4-.25-.45q1.8-.25.85-1.75-1.15-.8-2-.55-.9.2-.7 1.65.3 1.3 1.65 2.05l.7.35 1.3.25q3.8.3 3.9-5.3-.8-6.55-4.2-13.7-.5-3.35 1.1-3.6l1.1.15.5.3q-.3.95.15 1.45l1.1-.15q.55-.95-.05-1.7l-.55-.4" fill="url(#gradient2)" transform="translate(-10.65 76.15)"/><path fill-rule="evenodd" d="M107.2 56.15v.05l-1.05-.65 1.05.6" fill="url(#gradient3)" transform="translate(-10.65 76.15)"/><path stroke-linejoin="round" d="M7.8 11.05q2.35-4.35-1-9.5-1.2 1.8-.9 3.05l-.55 1.1-.8.6q-.35.65-.35 1.55-.1.95.3 1.6l2.15.25-.1 1.2-.05.25q0 2.2.55 3.6l2-.35q1 .55.7 1.45l-1.8.25 1.15.8 1.25.5 2.05-.45.55.75v.85l-1.3.25.8 1.3q2.3 6.1 6.05 4.55l-3.85-7.8m0-.05l1.55-.6 1.6-.4 1.3-.1 1.5.2v-.05l-.2-.2-.4-.75-1-1.4-.85-.8q-.05.25-.5-.35-2.15-1.55-4.9-.75l-1.05-1.3-3.9.75m.15 5.05l-2.2.35-.05.7.55-.2q1-.05 1.7.5l.3.35 2.1-.4M5.1 15l-.15-.2q-.7-.5-1.7-.5-.95.1-1.6.7-.65.7-.65 1.55.1.9.8 1.5.75.6 1.75.55l.55-.1.5-.8q.45-.45 1.1-.55m1.35-2.4L5.1 15l.15.1.45 1.2.05.15m2.95 2.9l.05-.35q0-.75-.5-1.2m-4.15.7l-.05.75q.05.9.75 1.45.75.65 1.75.55.95 0 1.6-.7.55-.5.55-1.2l2.95-.55m10.25-6.7l-.35.95v.4l.3.9.5.55q.7.55 1.65.45 1 .05 1.65-.7.65-.6.65-1.5-.1-.9-.8-1.5-.75-.6-1.75-.55l-1.3.45-.35.25-.2.3-.05-.2q-.4-1.6-2.05-1.5-1.65.05-1.75 1.9l.1.4m-6.45-2.4l2-.3q.4-.8.45-1.65.2-1.95-1.05-4.05l-2.55-3.05q-2-.65-3.75.3m7.35 6.8Q17 6.55 13.1 4.3m1.55 12.5v.05m5.95-.95l.05.05.9.15 16.6 26.95q7.75-.7 13.7 1.3 12.8 4.85 14.5 16.3.35 7.35 3.85 8.15l-.3 1.25q-1.05 1.6-1.45 2.9-.45 1.15-.5 3.35l-2.05.75q1.75 4.95 5.2 8.3 8.45 6.3 12.75 3.2l1.35.7q-1.95 3 3.95 8.05 5.6 4.2 9.05 11.4 4.35 8.1 1.35 15.75-1.1 4.7-3 7.85v.05q-1.25 2.25-2.8 3.7-6.4 6-14.9 9.55l-3.15 1.2-5.95 1.65q-5.25 1.75-10.3 1.85-5.4.15-10.6-1.65-3.35-1.15-6.65-3.15-11.55-8.4-11.55-23.8l.05-3.6q-.35-4.85-3.25-6.4l1.4-6.35.45-1.2q2.15.7 3.6.05l.75-.5.25-1.85q.1-1.95-.45-4.2-.8-3.5-2.1-5.65-1.25-2.25-2.05-3.1-.8-1.05-1.95-1.4-2.5-.9-6 .6l.65-3.55q-7.1-7.5-8.9-13.85-1.1-3.5.55-8.55-.75-5.2 3.05-9.7 3.45-3.9 12.05-6.9L18.5 24.65m3.05-10.1L20 14.9m-1-1.4l2.25-.45m-7.6 49.1q.75 5.45 6.55 11.55 3.95 3.75 2.1 7l.4.3.7.4q2.2-1.7 4.85-.8t4.3 3.95q5.8 10.2 2.55 17.3-.6 1.25-1.45 1.85m4.5-60.65l17.9 28.85-.6-.05H52.9l-3.5.7h-.05q-1.7.45-3.3 1.3H46q-1.25.65-2.6 1.5l-14.65-29.8m37.15 31.5l-.9-3.4q0-2.8 1.1-3.7l3.8.1m-5.45 13.7l.65.05-.35.6m-.3-.65l-1.75-.2-2.15.15H60q-1.95.3-3.9.95h-.05q-1.8.6-3.65 1.55-1.35.75-2.7 1.65l-.3 5.05q2.7-.95 5.1-1.6l3.8-.95 3.5-.65.3-.05 2.65-5.25m11.95 56.9q-3.85-7.25-6.25-16.75-1.6-3.55-6.4-9.95-5-6.7-6.8-10.25l1.8-.5 2.1-.6 2-.55 2.75-.85 3.1-.9q1.2 4.2 2.25 12.9.95 6.65 2.5 9.65 5.65 10.5 8 16.1 8.05-3.1 13.4-8.15 3-3.45 4.4-7M76.7 141.3l-1 5.5m-4.55-4.2l5.55-1.3q2.7-.75 5.05-1.7l-2.9 6m-7.7-3l-1.8.5-6.75 1.1q-5.4.25-10.8-1.4m-5.9-4.25q-3.2-2.6-.55-5.65 2.5-2.55 5.6-4.05 2.95-1.45 6.85-2.25 2-.1 4.1.75 2.35.9 3.65 2.4 3.95 4.05 5.75 6.5t1.2 3.15q-.7.8-2.05 1.4l-1.45.5-1.85.35-3.5.4m-34.8-36.7q2.6.75 3.45 3.05.85 2.35.1 6.4 0 1.6.15 3.1 1.5 14.55 12.1 22l1.6.8h.1q2.75 1.3 5.45 2.1m-5.9-4.25l1.05.75q7.65 3.3 16.7 2.75M22.7 81l-.7 3.55" stroke="#000" stroke-linecap="round" stroke-width="2" fill="none"/><path stroke-linejoin="round" d="M64.75 84.4q2.75 5.15 6.4 9.35 2.2 2.1 3.9 2.6 1.95.65 3.2-.85.65-1.25-.3-2.5-.9-1.15-1.65-1-.65.2-.95 1.2.5 1.35 1.85.9.45.45.05 1-.7.95-1.95.5-1.3-.45-3.1-2.35l-2.9-5.4q-1.85-3.1-4.2-6-1.5-1.45-2.85-2.05l-.45-.15-.45-.2-1.2-.1h-.05q-.4.05-.75.25-.8.85-.7 1.65.15.7 1.15 1.25h.6l.3-.3q-.05-.45-.95-1.1l.1-.3q.2-.45.6-.55l.2-.05h.05l.4.05.75.4 1.9 1.75.7 1.35m.3.65l-.3-.65m-19.6.55l.55.4q.6.75.05 1.7l-1.1.15q-.45-.5-.15-1.45l-.5-.3-1.1-.15q-1.6.25-1.1 3.6 3.4 7.15 4.2 13.7-.1 5.6-3.9 5.3l-1.3-.25-.7-.35q-1.35-.75-1.65-2.05-.2-1.45.7-1.65.85-.25 2 .55.95 1.5-.85 1.75l.25.45.75.4.75.15q1.05.15 1.75-.65.8-1 .6-3.55l-2.45-6.25q-1.4-3.7-2.05-7.45.05-2.3.95-3.6.9-1.2 2.4-1.15 1.2.2 1.9.7" stroke="#000" stroke-linecap="round" stroke-width="1.5" fill="none"/><path stroke-linejoin="round" d="M62.6 144.2l-3.15 6.1m4.2-8.25l-1.05 2.15m-10.8-1.4l-2.95 5.85m2.95-5.85l.6-1.2" stroke="#666" stroke-linecap="round" stroke-width="2" fill="none"/><path stroke-linejoin="round" d="M61.15 103.25l.7-3.85-5.8-14.75h.05L17.8 15.8l-1.95-1.75 3.25 1.65.3.6h.05L60 83.7l4.55 15.05-1.4 3.95m-48.7-89l1.75 2.5h.05l36.15 70 6.15 15.1.5 2.55M20.4 15.65l-4.45-2.25m4.7 2.55l42.05 67.6 4.85 13.9-1.65 4.4" stroke="#999" stroke-linecap="round" stroke-width="1.5" fill="none"/><defs id="defs4859"><radialGradient id="gradient0" gradientUnits="userSpaceOnUse" cy="0" cx="0" gradientTransform="matrix(-.0167 -.0085 -.0085 .0167 20.15 -63.95)" r="819.2"><stop id="stop4862" stop-color="#893c25" offset="0"/><stop id="stop4864" stop-color="#de5832" offset=".376"/><stop id="stop4866" stop-color="#eda63e" offset="1"/></radialGradient><radialGradient id="gradient1" gradientUnits="userSpaceOnUse" cy="0" cx="0" gradientTransform="matrix(-.0097 -.0049 -.0049 .0097 24 -68.7)" r="819.2"><stop id="stop4869" stop-color="#893c25" offset="0"/><stop id="stop4871" stop-color="#de5832" offset=".376"/><stop id="stop4873" stop-color="#eda63e" offset="1"/></radialGradient><radialGradient id="gradient2" gradientUnits="userSpaceOnUse" cy="0" cx="0" gradientTransform="matrix(-.0381 .0248 .0607 .0932 69.6 15.85)" r="819.2"><stop id="stop4876" stop-color="#893c25" offset="0"/><stop id="stop4878" stop-color="#de5832" offset=".376"/><stop id="stop4880" stop-color="#eda63e" offset="1"/></radialGradient><radialGradient id="gradient3" gradientUnits="userSpaceOnUse" cy="0" cx="0" gradientTransform="matrix(-.0159 -.008 -.008 .0159 95.35 64.65)" r="819.2"><stop id="stop4883" stop-color="#893c25" offset="0"/><stop id="stop4885" stop-color="#de5832" offset=".376"/><stop id="stop4887" stop-color="#eda63e" offset="1"/></radialGradient></defs></svg>