<?xml version="1.0" encoding="utf-8"?>
<!-- Generator: Adobe Illustrator 16.0.0, SVG Export Plug-In . SVG Version: 6.00 Build 0)  -->
<!DOCTYPE svg PUBLIC "-//W3C//DTD SVG 1.1//EN" "http://www.w3.org/Graphics/SVG/1.1/DTD/svg11.dtd">
<svg version="1.1" id="Layer_1" xmlns="http://www.w3.org/2000/svg" xmlns:xlink="http://www.w3.org/1999/xlink" x="0px" y="0px"
	 width="900px" height="450px" viewBox="0 0 900 450" enable-background="new 0 0 900 450" xml:space="preserve">
<g transform="matrix( 1, 0, 0, 1, 0,0) ">
	<g>
		<path id="Layer0_0_1_STROKES" fill="none" stroke="#000000" stroke-width="2" stroke-linecap="round" stroke-linejoin="round" d="
			M466.647,17.938l0.39,9.921c36.316,14.139,69.164,21.467,98.544,21.985c0.322-0.519,3.762-4.896,10.311-13.132
			c6.162-7.718,9.631-12.192,10.408-13.424 M465.188,65.701c-0.454,6.874-0.812,11.9-1.069,15.078
			c25.811,7.782,48.185,12.128,67.122,13.036c7.717-8.69,14.202-16.473,19.455-23.347c-24.709-0.908-52.888-7.523-84.535-19.845
			C465.968,53.217,465.643,58.242,465.188,65.701z M550.696,70.467c6.095-7.782,11.058-14.657,14.885-20.623
			c45.591,17.186,79.41,22.763,101.46,16.732l43.871-29.183 M498.069,132.433c6.227-7.198,10.927-12.581,14.105-16.147
			c-17.771-0.844-34.404-4.799-49.904-11.868c-0.713,5.577-1.75,13.359-3.112,23.347
			C475.629,132.693,488.602,134.249,498.069,132.433c15.564,11.544,28.891,16.635,39.98,15.273l30.156-17.705
			c-17.574,2.076-36.251-2.497-56.031-13.716l19.066-22.471c20.104,12.192,41.149,19.034,63.134,20.525l31.615-20.525
			l-75.294-23.347 M538.05,147.706c-12.517,7.394-23.379,13.651-32.588,18.774l14.495,34.729
			c12.646-0.713,25.161-1.524,37.549-2.432C547.584,188.595,541.098,171.571,538.05,147.706z M594.375,114.339l-26.169,15.662
			l28.405,64.788c11.414-1.297,23.703-2.984,36.868-5.059L594.375,114.339z M667.041,66.576
			c1.232,64.722,7.134,102.822,17.705,114.302c3.177-0.649,8.721-2.011,16.635-4.086c9.145-2.464,15.011-3.989,17.606-4.572
			 M667.041,66.576L625.99,93.814l34.338,91.539c5.385-0.908,13.521-2.4,24.418-4.475c-7.782,59.987-9.599,120.007-5.449,180.062
			c3.697,2.464,14.562,10.278,32.588,23.443 M660.328,185.353c-7.718,1.427-16.667,2.886-26.849,4.377
			c-15.89,39.69-24.773,81.617-26.654,125.781l39.106,23.638C644.051,288.953,648.851,237.688,660.328,185.353z M184.25,138.756
			l42.802,14.105c11.804-14.851,23.638-39.981,35.506-75.391l-27.821-17.898l-15.565-10.409 M257.89,161.52h-0.097
			c-0.195,35.409-2.659,63.003-7.394,82.783c13.424-1.233,27.4-2.887,41.927-4.961c5.771-11.544,8.042-34.145,6.81-67.803
			C286.036,168.556,272.287,165.216,257.89,161.52c12.192-11.933,25.325-32.459,39.397-61.577l-34.729-22.472
			c40.598-0.129,80.158-6.484,118.679-19.066l-18.58-33.464 M257.792,161.52c-12.841-3.567-23.087-6.453-30.74-8.658
			c-0.583,36.836-4.993,68.03-13.229,93.582c1.556-0.129,7.652-0.456,18.288-0.973c8.69-0.39,14.787-0.778,18.288-1.168
			c24.19,36.317,41.505,74.904,51.947,115.761c4.345-4.151,12.841-12.55,25.487-25.195c-7.135-36.381-18.969-68.224-35.507-95.526
			c14.526-2.075,29.832-4.67,45.915-7.782c3.632-15.824,4.93-32.717,3.891-50.682c-14.072-2.854-28.404-5.967-42.996-9.339
			c10.895-7.198,24.125-22.244,39.689-45.136c-12.452-7.848-26.297-16.667-41.538-26.46c37.874,0.907,69.586-4.183,95.138-15.272
			c-3.956-8.82-7.685-17.575-11.187-26.265c29.443,0.778,57.751-1.815,84.923-7.782c0.454-11.804,0.747-19.391,0.876-22.764
			 M462.271,104.417c0.26-2.788,0.553-6.583,0.876-11.382c0.258-5.123,0.583-9.209,0.973-12.257
			c-16.083,6.745-39.981,8.042-71.694,3.892c2.918,6.096,7.134,14.364,12.646,24.806
			C425.111,113.756,444.177,112.07,462.271,104.417z M419.274,175.138l-17.608-10.506l-20.816,23.152l24.806,3.988h0.097
			L419.274,175.138l17.996-7.296c-1.492-2.27-4.248-6.842-8.269-13.716l-27.336,10.506l-28.892-17.218l-30.643,33.464
			c10.441,2.01,23.314,4.312,38.62,6.906h0.098 M338.825,126.402c8.755,5.512,20.071,12.516,33.949,21.012l44.457-14.592
			l-12.16-23.347C386.978,120.89,364.896,126.532,338.825,126.402z M419.274,175.138l14.105,8.074l9.338-7.49
			c-1.232-1.621-3.048-4.248-5.447-7.879l16.44-4.961l2.333-13.522l-27.042,4.767c-2.594-4.41-6.518-11.512-11.771-21.304
			c14.008,1.492,27.983-0.195,41.927-5.059l-3.114,21.596l23.64,4.378c7.067-8.301,13.197-15.402,18.386-21.305 M459.062,177.278
			c0.776-0.843,3.921-4.41,9.435-10.7l-14.785-3.697l-2.335,12.062L459.062,177.278l6.906,10.992l16.342-8.658l-13.813-13.035
			l11.188-12.841l25.778,12.743l-23.152,13.133l0.682,22.763c13.101-0.195,25.422-0.583,36.966-1.167
			c-12.777,7.199-21.984,18.969-27.627,35.312c9.404,7.978,19.292,15.856,29.669,23.639c5.966-22.827,17.803-43.288,35.507-61.383
			c7.589-0.583,16.279-1.459,26.071-2.626l13.034-1.361c-18.807,27.367-30.934,57.944-36.381,91.733l46.595,28.989
			c-33.787,6.485-63.102,19.617-87.938,39.398c2.983,5.058,8.981,15.077,17.997,30.057c34.111-21.724,70.462-36.996,109.048-45.817
			c12.128,7.653,23.25,14.917,33.365,21.791c-43.189,7.132-85.215,23.865-126.071,50.195c2.399,3.826,6.39,10.182,11.966,19.065
			 M451.376,174.943l-8.658,0.778 M466.745,213.271l6.422,6.225l9.824-17.121l-14.592,0.097L466.745,213.271l-11.089,4.864
			l2.919,7.977l14.592-6.616c6.03,5.643,12.418,11.318,19.163,17.024l-27.919,5.546c3.502,8.884,7.619,18.612,12.354,29.184
			c13.942-7.199,29.021-10.896,45.234-11.091c12.84,9.339,25.585,18.126,38.231,26.362c-22.764,3.568-43.259,13.555-61.48,29.963
			l7.102,13.326c1.037,2.01,3.209,6.226,6.517,12.646c2.335,4.541,4.509,8.69,6.519,12.453
			c-34.307-6.616-70.916-6.357-109.827,0.776c-2.465,7.653-5.643,17.349-9.534,29.087c46.953-6.355,92.739-6.291,137.358,0.193
			c2.723,4.541,8.17,13.264,16.342,26.169c-50.195-6.096-104.315-6.323-162.357-0.681c-0.195,0.583-0.908,2.562-2.14,5.934
			c-1.427,4.28-3.373,9.338-5.837,15.175 M458.575,226.112c1.816,5.447,3.762,10.766,5.836,15.954l-24.612,1.264l-7.199,29.183
			c15.954-7.198,30.675-7.62,44.164-1.263c6.487,14.331,13.813,29.409,21.985,45.234c-24.903-6.616-50.974-6.584-78.211,0.097
			c-4.281,14.785-8.107,27.821-11.479,39.104c-26.136-13.294-53.211-20.232-81.227-20.817c11.348-11.349,20.72-20.945,28.113-28.794
			l7.88-8.365c-1.752-24.256-10.28-46.305-25.585-66.149c10.896-2.14,23.574-4.993,38.037-8.561
			c3.826-8.301,5.318-20.04,4.474-35.215 M435.519,216.968l-5.642-8.755c-9.015,2.854-17.932,5.513-26.751,7.977l15.564,20.914
			c1.816-2.14,4.572-5.381,8.269-9.728C430.331,223.162,433.185,219.691,435.519,216.968l9.826,2.14l10.312-0.973 M445.345,219.108
			l-1.557,6.712l14.788,0.292 M435.519,216.968l8.269,8.852c-0.907,3.958-2.237,9.794-3.988,17.51l-21.109-6.227l-22.86,25.488
			c17.186-0.584,29.443,2.723,36.771,9.921c-3.632,13.815-7.652,28.504-12.062,44.068c-13.359-11.674-32.264-17.964-56.713-18.872
			c9.403-10.118,20.071-21.823,32.004-35.117c-3.047-14.332-9.565-27.53-19.552-39.593c9.728-2.335,18.677-4.604,26.848-6.809
			l2.53-24.417 M429.877,208.213l-0.875-13.328l-23.25-3.113 M236.293,418.333l20.04-16.537c7.523-6.226,11.933-9.922,13.229-11.09
			c-11.998-51.362-30.578-99.45-55.74-144.263c-2.53,0.194-7.847,0.388-15.954,0.584c-9.468,0.26-14.753,0.39-15.856,0.39
			 M269.563,390.706c12.063-11.22,22.99-21.401,32.783-30.546v-0.097 M302.346,360.16c34.631,1.688,67.024,9.892,97.18,24.612
			l-8.657,25.682c-34.761-13.229-75.196-19.813-121.306-19.748 M429.002,194.885l4.377-11.673 M468.399,202.473l-2.432-14.203"/>
	</g>
</g>
</svg>
