<svg xmlns="http://www.w3.org/2000/svg" width="285" height="427" viewBox="0 0 285 427"><path fill="#536617" d="M235.414 250.563l3.866-3.406-9.761-4.881 4.236-3.406-11.694-3.408c6.383 6.323 13.505 16.145 21.362 29.467h4.974l-8.472-7.919h6.813l-11.324-6.447M51.521 219.898l-11.879 3.223 4.052 4.421c10.068-6.201 20.719-10.13 31.954-11.788l-12.432-5.524v5.158l-13.813-.646 2.118 5.156m116.671-22.928l-4.145 3.591c11.48 1.412 22.347 4.42 32.599 9.024l7.733-4.604-12.706-4.973 2.577-7.735-11.233 2.209-2.763-8.288-8.011 7.184-4.051 3.592M125.28 65.474c.369.245.706.491 1.014.736l.183-4.512c-4.542-2.21-11.356-4.482-20.442-6.814.552.921.982 1.872 1.289 2.854h-.184c5.096 1.72 8.38 2.886 9.853 3.5 3.315 1.35 6.078 2.762 8.287 4.236z"/><path fill="#6F8820" d="M196.646 209.585l-3.223 1.841 3.223 8.932 2.946-4.144 2.21 12.892 3.684-4.88 5.8 12.523 2.119-6.723 8.656 12.248v-6.814l11.694 3.408-4.236 3.406 9.761 4.881-3.866 3.406 11.325 6.446h-6.813l8.472 7.919h-4.974l4.79 12.8 3.037-5.617 2.763 12.984 2.027-7.645 4.695 14.09 1.842-8.195 4.604 14.364 1.934-5.892 7.09 9.761c-20.381-46.593-46.902-77.258-79.56-91.991m-43.833 143.743l-7.272-2.763c.122.553.244 1.074.366 1.567 5.647 20.625 11.849 36.495 18.603 47.606 2.763.982 5.647.982 8.656 0-7.122-11.725-13.935-28.394-20.444-50.003l.091 3.593m22.377-56.815l-14.551-1.749 10.684-5.617c-6.938-3.131-13.353-5.71-19.246-7.735-5.278-1.842-10.129-3.223-14.55-4.144a47.349 47.349 0 0 0-5.433-.921l-.921-.184c-23.819 49.479-23.021 87.847 2.394 115.105-4.481-5.096-3.162-6.201 3.959-3.316l-6.446-8.011 8.104.921-5.157-11.419 6.722 2.394-1.841-10.129 9.394 1.014-4.053-12.616 1.29.46 7.272 2.763-.092-3.592v-.183l-.46-9.761 7.919 6.537 1.381-15.838 8.934 5.893-3.592-13.904 12.063 1.381-12.614-11.05 12.892-1.934-13.077-7.55 9.025-6.815m-81.034-19.984l4.973 6.263-16.115 3.684 5.893 5.985-14.641 6.446 10.037 2.579-9.024 10.496 7.275 4.052-6.63 11.788 7.091-.461-3.868 14.642 9.3-5.802-2.118 17.864 7.643-5.156-1.473 15.194 6.17-4.053 2.025 12.247 4.973-4.972 2.486 15.101 5.617-5.985 2.763 12.985 3.776-3.5 18.417 10.406a8134.848 8134.848 0 0 0-5.157-5.064c-25.415-27.259-26.213-65.627-2.394-115.105-6.57-5.22-18.909-5.098-37.019.366m57.829-15.468l4.696 2.117-8.196 3.039 3.867 3.04-9.483 2.854 4.787 2.303-10.313 1.842c.062.308.123.644.184 1.013 4.421.921 9.271 2.302 14.55 4.144l2.946-.277-3.038-3.223 13.996 2.947-2.579-2.947 13.077 2.026-5.985-5.71h15.563l-4.973-3.775 13.075-3.498-3.498-3.408 8.563-6.814c-19.214 4.851-34.071 11.327-44.569 19.432 10.498-8.104 25.355-14.581 44.569-19.432H188.45v-4.05l-6.354 2.763-3.592-4.882-6.906 3.867-2.854-3.498-6.445 4.513-2.119-3.132-4.971 5.156 1.287.829-4.511 2.761m-27.072-54.33l-.277-4.881h-.092c0-.122-.124-.183-.369-.183a658.65 658.65 0 0 0-8.288-2.855c-2.64-.982-5.525-1.718-8.656-2.209a104.68 104.68 0 0 0-6.354-.737h-.092a45.192 45.192 0 0 0-3.959-.368c1.596 1.105 2.885 2.209 3.867 3.314 2.087.124 4.176.369 6.263.737 3.008.491 5.74 1.29 8.195 2.395 3.316 1.473 5.863 2.701 7.643 3.684l2.119 1.103m31.769-5.433l-1.106-3.039c-9.33 1.105-18.17 2.578-26.519 4.419h-.184l.276 4.513c8.532-2.824 17.71-4.788 27.533-5.893m6.998-3.96c-.677.061-1.351.154-2.025.276l-.368 3.223a41.642 41.642 0 0 1 2.762-.276l4.145-3.591c-1.412.123-2.826.245-4.235.369l-.279-.001m-35.177-29.375c0-.491.03-.982.092-1.473l-3.776 2.67v-8.656a336.52 336.52 0 0 1-.276 7.458c-.369 9.208-.337 20.443.092 33.704v.183l.277 4.881v.828c.122 2.763.521 7.06 1.197 12.893.798 6.998 1.351 12.093 1.657 15.285.675 10.19 1.566 18.293 2.671 24.311.061.613.122 1.259.184 1.934.123 1.596.277 3.192.46 4.788.123 1.229.215 2.455.277 3.683l.736 5.895c1.719.183 3.53.49 5.433.921a29.675 29.675 0 0 0-.184-1.013 68.65 68.65 0 0 1-.737-4.974c-.061-.49-.092-.981-.092-1.473-.246-1.842-.491-3.714-.736-5.616a20.204 20.204 0 0 1-.185-2.671 26.77 26.77 0 0 1-.276-1.842c-.369-5.464-1.412-13.538-3.131-24.219-1.596-10.376-2.609-19.799-3.039-28.27l-.276-4.513v-1.105c-.613-11.539-.736-22.743-.368-33.609m-21.732-33.518h9.116l-6.814 8.655h7.551l-3.684 8.841 6.446-1.935v12.524l5.432-4.604v11.234l3.776-2.67 1.842-1.381v10.589l6.077-3.499 1.842 9.761 4.328-3.684 2.578 12.247 3.96-4.144 1.657 11.05 2.854-4.329 1.842 5.158 1.106 3.039 3.498 9.945a434.937 434.937 0 0 0-1.013-10.221l-.368-3.131c-3.806-29.037-11.972-53.624-24.495-73.759-1.35-.185-2.977-.093-4.88.276-1.166.246-2.455.614-3.868 1.105-4.908 1.597-11.17 4.574-18.783 8.933m54.054 3.683l5.434-1.75-11.511-5.157 6.721-4.052c-12.768-3.561-21.823-4.574-27.165-3.039 12.523 20.135 20.689 44.722 24.495 73.759l.368 3.131c.369 3.315.707 6.722 1.013 10.221l1.106-10.405.368-3.223.461-4.88 5.432 1.934-4.696-9.484 5.342 2.394-4.974-11.05 5.617 1.75-4.973-10.129 4.973 1.657-4.788-7.551h5.709l-6.538-9.484h6.724l-7.092-8.103h5.525l-7.551-6.539m-53.777-80.39h.276a13.158 13.158 0 0 0-1.289-2.854c-1.29-2.026-3.223-3.898-5.802-5.617-2.946-1.965-7.152-3.898-12.615-5.802l.184 2.395.093 2.394h-6.539l1.29 3.407-6.814-.46 2.119 3.407h-5.986l1.749 2.578-7.827-.829 1.014 2.947h-7.92l4.236 2.855H55.39l1.658 2.946h-6.17l1.657 2.763-8.932 2.026 1.841 1.566-12.064 8.747c15.47-8.718 29.682-14.949 42.635-18.693 11.726-3.377 22.07-4.635 31.033-3.776m22.285-10.59a25.56 25.56 0 0 1-2.579-.828l-.277 15.378-.183 4.512a2252.87 2252.87 0 0 0-.553 40.149 18.616 18.616 0 0 1 1.565 4.144 33.1 33.1 0 0 0-1.657-1.381c-.061 5.525-.093 10.988-.093 16.391 1.413-.491 2.702-.86 3.868-1.105 0-18.539.338-37.908 1.014-58.104v-1.105h-.185l.185-.184v-1.473-.277l.46-16.759c-.553.244-1.075.459-1.565.642m15.652-20.074l-2.669 5.618-2.209-3.407-1.75 5.525-1.657-2.855-1.935 5.709-1.749-3.223-3.776 6.999-4.235-6.907v4.788l-3.684-4.88v2.671l-3.868-5.894v4.973l-4.328-5.618v4.236l-5.801-5.801c3.623 8.349 10.099 14.12 19.43 17.312.798.307 1.658.583 2.579.828a28.263 28.263 0 0 0 1.565-.644c5.771-2.64 12.216-8.841 19.337-18.601l-4.604 1.381-.646-2.21m55.989 151.202l-11.233 6.262 2.117-6.446-8.38 6.446-3.406-4.144-7.827 12.984 8.011-7.184 2.763 8.288 11.233-2.209-2.577 7.735 12.706 4.973-7.733 4.604c32.657 14.733 59.179 45.398 79.56 91.993l-2.763-17.221 6.079 3.316-6.263-10.406 6.446 3.039-6.906-9.854 7.55 2.579-10.129-11.51h9.945l-13.261-10.406 9.761-1.657-12.706-9.116 8.84-2.579-12.983-7.735 7.826-2.209-14.733-8.564 10.222-1.934-15.746-6.262 7.09-4.972-17.771-3.868 6.721-5.986-15.469-1.75 5.985-7.367-13.169 1.75 2.854-6.722-11.05 3.407v-7.275l-11.603 5.525v-5.525M182.834 69.341l1.381-3.408-10.223 1.013 2.303-3.039h-7.919l2.854-3.959-8.931.46 1.841-3.959-8.748.185.277-2.855.184-2.947c-12.585 3.991-21.056 8.717-25.415 14.182l-.185.184h.185c22.347-2.087 54.422 7.489 96.229 28.73l-15.84-10.406 2.396-1.657-11.511-2.486 2.209-3.13h-8.011l2.025-3.407h-10.13l5.434-3.499h-10.405z"/><path fill="#9BA527" d="M100.693 198.811c-.982-1.105-2.271-2.209-3.867-3.314-47.946 5.955-77.719 30.264-89.322 72.931l6.629-9.946 2.579 5.064 4.236-13.26 1.657 6.354 2.302-11.142 3.499 5.617 5.434-13.075 2.118 7.458 2.763-12.708 4.328 5.433.645-10.681-4.052-4.421 11.879-3.223-2.118-5.157 13.813.646v-5.158l12.432 5.524v9.117l7.827-8.84 1.842 8.656 7.274-9.761c9.944-5.462 12.646-10.834 8.102-16.114m37.203 70.812c-.43.615-.86 1.168-1.29 1.658.185 1.658.43 3.315.737 4.974l10.313-1.842-4.787-2.303 9.483-2.854-3.867-3.04 8.196-3.039-4.696-2.117 4.511-2.763-1.287-.829-1.29-.829 3.223-8.287-3.408 3.039v-9.761h-.827l-15.011 27.993m.645-8.102h-2.947c0 .857.062 1.75.185 2.671.246 1.902.491 3.774.736 5.616l1.381-.186 15.01-27.992-.46-.46-5.619 5.617-2.763-4.513v8.656l-3.774-2.854v6.353l-3.684-2.854 1.935 9.946m-26.705-12.708v3.592l-8.656-2.671 4.144 4.882h-4.972l7.734 4.973-3.868 2.208 24.219 8.656h.921a74.856 74.856 0 0 0-.277-3.683l-19.614-11.325 19.614 11.325a127.023 127.023 0 0 1-.46-4.788c-.062-.675-.123-1.32-.184-1.934h-.737l-11.878-10.223v3.684l-5.986-4.696M46.917 180.21l-15.102-3.683 5.249 9.301H24.448l6.078 5.433-13.813 3.223 8.932 3.408-13.813 7.827h8.196l-9.485 7.459 8.379-.369-11.695 8.379 8.933-.552-9.945 7.644 7.827-.646-8.288 8.104 6.538-.185-6.907 9.854 4.697.092-5.432 9.391 5.157-3.314-2.302 16.853c11.603-42.667 41.376-66.976 89.322-72.931 4.788-3.622 1.104-11.326-11.05-23.114l-1.75 6.723-10.405-11.143-2.579 10.129-7.459-9.116v7.367l-10.774-6.906 2.579 8.195-14.55-6.906 6.078 9.483m49.172-55.434l1.934-6.723 2.854 3.315v-6.722l4.328 3.039v-9.762l2.578 5.434v-7.367l5.525 3.223v-4.328c3.929-.491 8.042.921 12.339 4.236a33.1 33.1 0 0 1 1.657 1.381 21.383 21.383 0 0 0-1.657-2.119c-10.928-13.26-25.722-6.292-44.385 20.903l7.275-5.156 1.657 2.762 3.499-6.078 2.396 3.962m1.75-27.257l-9.945-3.591 2.67 5.801-8.104 1.749 3.316 3.683-6.446 3.04 4.512 2.763-5.249 3.223 5.249 1.933-4.789 5.434h3.868l-1.657 7.734c18.663-27.195 33.457-34.163 44.385-20.903.552.614 1.105 1.32 1.657 2.119a18.665 18.665 0 0 0-1.565-4.144c-2.455-4.298-6.937-7.797-13.444-10.498v2.21l-7.551-3.684v2.763l-8.656-4.513 1.749 4.881M76.2 46.136l-7.551-1.381 1.75 3.775h-6.354l3.315 3.131h-9.669l3.959 2.578h-8.748l3.315 4.973-7.643-.645 3.407 3.592h-6.354l2.026 2.763-5.064.368 2.854 2.118-7.182 2.119L41.3 71l-7.919 9.208 12.063-8.748-1.841-1.566 8.932-2.026-1.657-2.763h6.17l-1.658-2.946h7.827l-4.236-2.855h7.92l-1.014-2.947 7.827.829-1.749-2.578h5.986l-2.12-3.408 6.814.46-1.29-3.407h6.539l-.093-2.394-7.367-5.433 1.198 4.604-7.091-2.854 1.659 3.96m106.173 14.273l4.328-3.591h-8.38l2.302-4.512-9.854 1.749 2.118-4.788-9.208 3.406 1.658-5.341-9.669 6.446-.277 2.855 8.748-.185-1.841 3.959 8.931-.46-2.854 3.959h7.919l-2.303 3.039 10.223-1.013-1.381 3.408h10.404l-5.434 3.499h10.13l-2.025 3.407h8.011l-2.209 3.13 11.511 2.486-2.396 1.657 15.84 10.406-10.314-10.774 3.96-1.75-9.485-2.394 3.868-2.578-6.631-.46 2.579-3.131h-8.104l4.237-4.236-9.854.644 4.235-5.708H189.74l5.156-3.131h-12.523z"/><g><path fill="none" stroke="#000" stroke-linecap="round" stroke-linejoin="round" d="M155.669 53.778l9.669-6.446-1.658 5.341 9.208-3.406-2.118 4.788 9.854-1.749-2.302 4.512h8.38l-4.328 3.591h12.523l-5.156 3.131h11.417l-4.235 5.708 9.854-.644-4.237 4.236h8.104l-2.579 3.131 6.631.46-3.868 2.578 9.485 2.394-3.96 1.75 10.314 10.774c-41.807-21.241-73.882-30.817-96.229-28.73v1.105c-.675 20.196-1.014 39.565-1.014 58.104 1.903-.369 3.531-.46 4.88-.276 5.342-1.535 14.397-.522 27.165 3.039l-6.721 4.052 11.511 5.157-5.434 1.75 7.551 6.538h-5.525l7.092 8.103h-6.724l6.538 9.484h-5.709l4.788 7.551-4.973-1.657 4.973 10.129-5.617-1.75 4.974 11.05-5.342-2.394 4.696 9.484-5.432-1.934-.461 4.88a22.995 22.995 0 0 1 2.025-.276h.277c1.409-.124 2.823-.246 4.235-.369l4.052-3.591 7.827-12.984 3.406 4.144 8.38-6.446-2.117 6.446 11.233-6.262v5.525l11.603-5.525v7.275l11.05-3.407-2.854 6.722 13.169-1.75-5.985 7.367 15.469 1.75-6.721 5.986 17.771 3.868-7.09 4.972 15.746 6.262-10.222 1.934 14.733 8.564-7.826 2.209 12.983 7.735-8.84 2.579 12.706 9.116-9.761 1.657 13.261 10.406h-9.945l10.129 11.51-7.55-2.579 6.906 9.854-6.446-3.039 6.263 10.406-6.079-3.316 2.763 17.221-7.09-9.761-1.934 5.892-4.604-14.364-1.842 8.195-4.695-14.09-2.027 7.645-2.763-12.984-3.037 5.617-4.79-12.8c-7.857-13.322-14.979-23.144-21.362-29.467v6.814l-8.656-12.248-2.119 6.723-5.8-12.523-3.684 4.88-2.21-12.892-2.946 4.144-3.223-8.932 3.223-1.841c-10.252-4.604-21.118-7.612-32.599-9.024-.921.061-1.841.154-2.762.276l-1.106 10.405-3.498-9.945c-9.822 1.105-19 3.069-27.534 5.894.43 8.471 1.442 17.894 3.039 28.27 1.72 10.681 2.763 18.755 3.131 24.219.061.552.153 1.167.276 1.842h2.947l-1.935-9.946 3.684 2.854v-6.353l3.774 2.854v-8.656l2.763 4.513 5.619-5.617 1.287-1.29v11.511l3.408-3.039-3.223 8.287 1.29.829 4.971-5.156 2.119 3.132 6.445-4.513 2.854 3.498 6.906-3.867 3.592 4.882 6.354-2.763v4.05h10.773l-8.563 6.814 3.498 3.408-13.075 3.498 4.973 3.775h-15.563l5.985 5.71-13.077-2.026 2.579 2.947-13.996-2.947 3.038 3.223-2.946.277c5.894 2.025 12.308 4.604 19.246 7.735l-10.684 5.617 14.551 1.749-9.025 6.815 13.077 7.55-12.892 1.934 12.614 11.05-12.063-1.381 3.592 13.904-8.934-5.893-1.381 15.838-7.919-6.537.46 9.761v.183c6.51 21.609 13.322 38.278 20.444 50.003-3.009.982-5.894.982-8.656 0-6.754-11.111-12.955-26.981-18.603-47.606a64.278 64.278 0 0 1-.366-1.567l-1.29-.46 4.053 12.616-9.394-1.014 1.841 10.129-6.722-2.394 5.157 11.419-8.104-.921 6.446 8.011c-7.121-2.885-8.44-1.779-3.959 3.316l5.157 5.064-18.417-10.406-3.776 3.5-2.763-12.985-5.617 5.985-2.486-15.101-4.973 4.972-2.025-12.247-6.17 4.053 1.473-15.194-7.643 5.156 2.118-17.864-9.3 5.802 3.868-14.642-7.091.461 6.63-11.788-7.275-4.052 9.024-10.496-10.037-2.579 14.641-6.446-5.893-5.985 16.115-3.684-4.973-6.263c18.11-5.464 30.449-5.586 37.018-.366l.921.184-.736-5.895m-.915.001l-24.219-8.656 3.868-2.208-7.734-4.973h4.972l-4.144-4.882 8.656 2.671v-3.592l5.985 4.696v-3.684l11.878 10.223m.738.001c-1.105-6.018-1.996-14.12-2.671-24.311-.307-3.192-.859-8.287-1.657-15.285-.675-5.833-1.075-10.13-1.197-12.893v-.828l-2.119-1.105c-1.78-.983-4.327-2.21-7.643-3.684-2.455-1.105-5.187-1.904-8.195-2.395a54.722 54.722 0 0 0-6.263-.737c4.543 5.28 1.842 10.652-8.103 16.116l-7.274 9.761-1.842-8.656-7.827 8.84v-9.117c-11.234 1.658-21.885 5.587-31.954 11.788l-.645 10.681-4.328-5.433-2.763 12.708-2.118-7.458-5.434 13.075-3.499-5.617-2.302 11.142-1.657-6.354-4.236 13.26-2.579-5.064-6.629 9.946 2.302-16.853-5.155 3.315 5.433-9.392-4.697-.092 6.907-9.854-6.538.185 8.288-8.104-7.827.646 9.945-7.644-8.933.552 11.695-8.379-8.379.369 9.485-7.459h-8.196l13.813-7.827-8.932-3.408 13.813-3.223-6.078-5.433h12.615l-5.249-9.301 15.102 3.683-6.078-9.484 14.55 6.906-2.579-8.195 10.774 6.906v-7.367l7.459 9.116 2.579-10.129 10.405 11.143 1.75-6.723c12.154 11.788 15.837 19.492 11.05 23.114a45.12 45.12 0 0 1 3.959.368h.092a106.3 106.3 0 0 1 6.354.737c3.13.491 6.016 1.228 8.656 2.209a675.467 675.467 0 0 1 8.288 2.855c.245 0 .369.061.369.183h.092v-.183c-.429-13.261-.46-24.495-.092-33.704.123-2.578.215-5.064.276-7.458v-2.578l-5.432 4.604v-12.524l-6.446 1.935 3.684-8.841h-7.551l6.814-8.655h-9.116c7.612-4.359 13.874-7.336 18.785-8.932 0-5.403.032-10.866.093-16.391-4.297-3.315-8.411-4.727-12.339-4.236v4.328l-5.525-3.223v7.367l-2.578-5.434v9.762l-4.328-3.039v6.722l-2.854-3.315-1.934 6.723-2.394-3.96-3.499 6.078-1.657-2.762-7.275 5.156 1.657-7.734h-3.868l4.789-5.434-5.249-1.933 5.249-3.223-4.512-2.763 6.446-3.04-3.316-3.683 8.104-1.749-2.67-5.801 9.945 3.591-1.75-4.88 8.656 4.513v-2.763l7.551 3.684v-2.21c6.507 2.701 10.989 6.2 13.444 10.498.061-13.076.246-26.459.553-40.149a14.276 14.276 0 0 0-1.014-.736c-2.209-1.473-4.972-2.885-8.288-4.236-1.473-.614-4.757-1.78-9.853-3.5h-.092c-8.963-.859-19.307.399-31.033 3.776-12.953 3.744-27.165 9.975-42.635 18.693l7.919-9.208-3.039-1.473 7.182-2.119-2.854-2.118 5.064-.368-2.026-2.763h6.354l-3.407-3.592 7.643.645-3.315-4.973h8.748l-3.959-2.578h9.669l-3.315-3.131h6.354l-1.75-3.775 7.551 1.381-1.658-3.959 7.091 2.854-1.198-4.604 7.367 5.433-.184-2.395c5.463 1.904 9.669 3.837 12.615 5.802 2.579 1.718 4.512 3.59 5.802 5.617 9.085 2.333 15.9 4.604 20.442 6.814l.277-15.378c-9.332-3.192-15.808-8.963-19.43-17.312l5.801 5.801v-4.236l4.328 5.618v-4.973l3.868 5.894v-2.671l3.684 4.88v-4.788l4.235 6.907 3.776-6.999 1.749 3.223 1.935-5.709 1.657 2.855 1.75-5.525 2.209 3.407 2.669-5.618.646 2.21 4.604-1.381c-7.121 9.76-13.567 15.961-19.337 18.601l-.46 16.759v1.75c4.359-5.464 12.83-10.19 25.415-14.182l-.184 2.947-.277 2.855 8.748-.185-1.841 3.959 8.931-.46-2.854 3.959h7.919l-2.303 3.039 10.223-1.013-1.381 3.408h10.404l-5.434 3.499h10.13l-2.025 3.407h8.011l-2.209 3.13 11.511 2.486-2.396 1.657 15.84 10.406M126.754 46.32c.798.307 1.658.583 2.579.828a28.263 28.263 0 0 0 1.565-.644m-.46 18.509l-.185.184h.185m-3.961-3.499l-.183 4.512m-19.154-8.472h.184a13.158 13.158 0 0 0-1.289-2.854m-18.233-9.025l.093 2.394h-6.539l1.29 3.407-6.814-.46 2.119 3.407h-5.986l1.749 2.578-7.827-.829 1.014 2.947h-7.92l4.236 2.855H55.39l1.658 2.946h-6.17l1.657 2.763-8.932 2.026 1.841 1.566-12.064 8.748m92.361 26.152a18.616 18.616 0 0 1 1.565 4.144 33.1 33.1 0 0 0-1.657-1.381m1.657 1.381a21.383 21.383 0 0 0-1.657-2.119c-10.928-13.26-25.722-6.292-44.385 20.903m44.292-3.774c1.413-.491 2.702-.86 3.868-1.105m-.552 78.271h.184c8.349-1.841 17.189-3.314 26.519-4.419l-1.842-5.158-2.854 4.329-1.657-11.05-3.96 4.144-2.578-12.247-4.328 3.684-1.842-9.761-6.077 3.499v-10.589l-1.842 1.381c-.062.491-.092.982-.092 1.473-.368 10.866-.246 22.07.369 33.611v1.103l.276 4.513m-.552-40.702l-3.776 2.67v-8.656m43.372 36.466l-4.145 3.591m-2.393-2.947l-.368 3.223m-4.604.461l-1.106-3.039m4.604 12.984a434.937 434.937 0 0 0-1.013-10.221l-.368-3.131c-3.806-29.037-11.972-53.624-24.495-73.759m-9.668 77.718l.277 4.881m10.681 54.79c0 .857.062 1.75.185 2.671.246 1.902.491 3.774.736 5.616m1.381-.185l15.01-27.992m-21.824 25.139a127.023 127.023 0 0 1-.46-4.788c-.062-.675-.123-1.32-.184-1.934m.644 6.722c.123 1.229.215 2.455.277 3.683m6.537-.83c-.43.615-.86 1.168-1.29 1.658-.061-.49-.092-.981-.092-1.473m.092 1.473c.185 1.658.43 3.315.737 4.974l10.313-1.842-4.787-2.303 9.483-2.854-3.867-3.04 8.196-3.039-4.696-2.117 4.511-2.763-1.287-.829m-24.127 9.302l-19.614-11.325m41.438-13.814a15.38 15.38 0 0 0 .827-1.75m-53.04-41.07c-.982-1.105-2.271-2.209-3.867-3.314-47.946 5.955-77.719 30.264-89.322 72.931m68.143-52.674l-12.432-5.524v5.158l-13.813-.646 2.118 5.157-11.879 3.223 4.052 4.421m88.402 48.804c1.719.183 3.53.49 5.433.921a29.675 29.675 0 0 0-.184-1.013m15.377 73.481l.092 3.592-7.272-2.763m-8.014-73.297c4.421.921 9.271 2.302 14.55 4.144m-18.509 109.857c-25.415-27.259-26.213-65.627-2.394-115.105m65.472-66.579l7.733-4.604-12.706-4.973 2.577-7.735-11.233 2.209-2.763-8.288-8.011 7.184m49.819 42.083l11.694 3.408-4.236 3.406 9.761 4.881-3.866 3.406 11.325 6.446h-6.813l8.472 7.919h-4.974m32.781 36.651c-20.381-46.595-46.902-77.26-79.56-91.993m2.578 47.146c-19.214 4.851-34.071 11.327-44.569 19.432"/></g></svg>