<?xml version="1.0" encoding="utf-8"?>
<!-- Generator: Adobe Illustrator 16.0.0, SVG Export Plug-In . SVG Version: 6.00 Build 0)  -->
<!DOCTYPE svg PUBLIC "-//W3C//DTD SVG 1.1//EN" "http://www.w3.org/Graphics/SVG/1.1/DTD/svg11.dtd">
<svg version="1.1" id="Layer_1" xmlns="http://www.w3.org/2000/svg" xmlns:xlink="http://www.w3.org/1999/xlink" x="0px" y="0px"
	 width="285px" height="427px" viewBox="0 0 285 427" enable-background="new 0 0 285 427" xml:space="preserve">
<g transform="matrix( 1, 0, 0, 1, 0,0) ">
	<g>
		<g id="Layer0_0_FILL">
			<path fill="#536617" d="M235.414,250.563l3.866-3.406l-9.761-4.881l4.236-3.406l-11.694-3.408
				c6.383,6.323,13.505,16.145,21.362,29.467h4.974l-8.472-7.919h6.813L235.414,250.563 M51.521,219.898l-11.879,3.223l4.052,4.421
				c10.068-6.201,20.719-10.13,31.954-11.788l-12.432-5.524v5.158l-13.813-0.646L51.521,219.898 M168.192,196.97l-4.145,3.591
				c11.48,1.412,22.347,4.42,32.599,9.024l7.733-4.604l-12.706-4.973l2.577-7.735l-11.233,2.209l-2.763-8.288l-8.011,7.184
				L168.192,196.97 M125.28,65.474c0.369,0.245,0.706,0.491,1.014,0.736l0.183-4.512c-4.542-2.21-11.356-4.482-20.442-6.814
				c0.552,0.921,0.982,1.872,1.289,2.854c-0.061,0-0.122,0-0.184,0c5.096,1.72,8.38,2.886,9.853,3.5
				C120.308,62.588,123.071,64,125.28,65.474z"/>
			<path fill="#6F8820" d="M196.646,209.585l-3.223,1.841l3.223,8.932l2.946-4.144l2.21,12.892l3.684-4.88l5.8,12.523l2.119-6.723
				l8.656,12.248v-6.814l11.694,3.408l-4.236,3.406l9.761,4.881l-3.866,3.406l11.325,6.446h-6.813l8.472,7.919h-4.974l4.79,12.8
				l3.037-5.617l2.763,12.984l2.027-7.645l4.695,14.09l1.842-8.195l4.604,14.364l1.934-5.892l7.09,9.761
				C255.825,254.983,229.304,224.318,196.646,209.585 M152.813,353.328l-7.272-2.763c0.122,0.553,0.244,1.074,0.366,1.567
				c5.647,20.625,11.849,36.495,18.603,47.606c2.763,0.982,5.647,0.982,8.656,0c-7.122-11.725-13.935-28.394-20.444-50.003
				L152.813,353.328 M175.19,296.513l-14.551-1.749l10.684-5.617c-6.938-3.131-13.353-5.71-19.246-7.735
				c-5.278-1.842-10.129-3.223-14.55-4.144c-1.903-0.431-3.714-0.738-5.433-0.921c-0.308-0.062-0.614-0.123-0.921-0.184
				c-23.819,49.479-23.021,87.847,2.394,115.105c-4.481-5.096-3.162-6.201,3.959-3.316l-6.446-8.011l8.104,0.921l-5.157-11.419
				l6.722,2.394l-1.841-10.129l9.394,1.014l-4.053-12.616l1.29,0.46l7.272,2.763l-0.092-3.592c0-0.061,0-0.122,0-0.183l-0.46-9.761
				l7.919,6.537l1.381-15.838l8.934,5.893l-3.592-13.904l12.063,1.381l-12.614-11.05l12.892-1.934l-13.077-7.55L175.19,296.513
				 M94.156,276.529l4.973,6.263l-16.115,3.684l5.893,5.985l-14.641,6.446l10.037,2.579l-9.024,10.496l7.275,4.052l-6.63,11.788
				l7.091-0.461l-3.868,14.642l9.3-5.802l-2.118,17.864l7.643-5.156l-1.473,15.194l6.17-4.053l2.025,12.247l4.973-4.972
				l2.486,15.101l5.617-5.985l2.763,12.985l3.776-3.5l18.417,10.406c-1.719-1.689-3.438-3.378-5.157-5.064
				c-25.415-27.259-26.213-65.627-2.394-115.105C124.605,270.943,112.266,271.065,94.156,276.529 M151.985,261.061l4.696,2.117
				l-8.196,3.039l3.867,3.04l-9.483,2.854l4.787,2.303l-10.313,1.842c0.062,0.308,0.123,0.644,0.184,1.013
				c4.421,0.921,9.271,2.302,14.55,4.144l2.946-0.277l-3.038-3.223l13.996,2.947l-2.579-2.947l13.077,2.026l-5.985-5.71h15.563
				l-4.973-3.775l13.075-3.498l-3.498-3.408l8.563-6.814c-19.214,4.851-34.071,11.327-44.569,19.432
				c10.498-8.104,25.355-14.581,44.569-19.432H188.45v-4.05l-6.354,2.763l-3.592-4.882l-6.906,3.867l-2.854-3.498l-6.445,4.513
				l-2.119-3.132l-4.971,5.156l1.287,0.829L151.985,261.061 M124.913,206.731l-0.277-4.881h-0.092c0-0.122-0.124-0.183-0.369-0.183
				c-1.903-0.675-4.666-1.628-8.288-2.855c-2.64-0.982-5.525-1.718-8.656-2.209c-2.087-0.308-4.205-0.553-6.354-0.737h-0.092
				c-1.351-0.184-2.671-0.307-3.959-0.368c1.596,1.105,2.885,2.209,3.867,3.314c2.087,0.124,4.176,0.369,6.263,0.737
				c3.008,0.491,5.74,1.29,8.195,2.395c3.316,1.473,5.863,2.701,7.643,3.684L124.913,206.731 M156.682,201.298l-1.106-3.039
				c-9.33,1.105-18.17,2.578-26.519,4.419h-0.184l0.276,4.513C137.681,204.367,146.859,202.403,156.682,201.298 M163.68,197.338
				c-0.677,0.061-1.351,0.154-2.025,0.276l-0.368,3.223c0.921-0.123,1.841-0.215,2.762-0.276l4.145-3.591
				c-1.412,0.123-2.826,0.245-4.235,0.369C163.834,197.338,163.74,197.338,163.68,197.338 M128.503,167.963
				c0-0.491,0.03-0.982,0.092-1.473l-3.776,2.67v-8.656c-0.061,2.394-0.153,4.88-0.276,7.458
				c-0.369,9.208-0.337,20.443,0.092,33.704v0.183l0.277,4.881v0.828c0.122,2.763,0.521,7.06,1.197,12.893
				c0.798,6.998,1.351,12.093,1.657,15.285c0.675,10.19,1.566,18.293,2.671,24.311c0.061,0.613,0.122,1.259,0.184,1.934
				c0.123,1.596,0.277,3.192,0.46,4.788c0.123,1.229,0.215,2.455,0.277,3.683c0.246,1.966,0.491,3.931,0.736,5.895
				c1.719,0.183,3.53,0.49,5.433,0.921c-0.061-0.369-0.122-0.705-0.184-1.013c-0.308-1.658-0.553-3.315-0.737-4.974
				c-0.061-0.49-0.092-0.981-0.092-1.473c-0.246-1.842-0.491-3.714-0.736-5.616c-0.123-0.921-0.185-1.813-0.185-2.671
				c-0.123-0.675-0.215-1.29-0.276-1.842c-0.369-5.464-1.412-13.538-3.131-24.219c-1.596-10.376-2.609-19.799-3.039-28.27
				l-0.276-4.513v-1.105C128.258,190.033,128.135,178.829,128.503,167.963 M106.771,134.445h9.116l-6.814,8.655h7.551l-3.684,8.841
				l6.446-1.935v12.524l5.432-4.604v2.578v8.656l3.776-2.67l1.842-1.381v10.589l6.077-3.499l1.842,9.761l4.328-3.684l2.578,12.247
				l3.96-4.144l1.657,11.05l2.854-4.329l1.842,5.158l1.106,3.039l3.498,9.945c-0.306-3.499-0.644-6.906-1.013-10.221
				c-0.122-1.044-0.246-2.087-0.368-3.131c-3.806-29.037-11.972-53.624-24.495-73.759c-1.35-0.185-2.977-0.093-4.88,0.276
				c-1.166,0.246-2.455,0.614-3.868,1.105C120.646,127.109,114.384,130.086,106.771,134.445 M160.825,138.128l5.434-1.75
				l-11.511-5.157l6.721-4.052c-12.768-3.561-21.823-4.574-27.165-3.039c12.523,20.135,20.689,44.722,24.495,73.759
				c0.122,1.044,0.246,2.087,0.368,3.131c0.369,3.315,0.707,6.722,1.013,10.221l1.106-10.405l0.368-3.223l0.461-4.88l5.432,1.934
				l-4.696-9.484l5.342,2.394l-4.974-11.05l5.617,1.75l-4.973-10.129l4.973,1.657l-4.788-7.551h5.709l-6.538-9.484h6.724
				l-7.092-8.103h5.525L160.825,138.128 M107.048,57.738h0.092c0.062,0,0.123,0,0.184,0c-0.307-0.982-0.736-1.933-1.289-2.854
				c-1.29-2.026-3.223-3.898-5.802-5.617c-2.946-1.965-7.152-3.898-12.615-5.802l0.184,2.395l0.093,2.394h-6.539l1.29,3.407
				l-6.814-0.46l2.119,3.407h-5.986l1.749,2.578l-7.827-0.829l1.014,2.947h-7.92l4.236,2.855h-7.827l1.658,2.946h-6.17l1.657,2.763
				l-8.932,2.026l1.841,1.566L33.38,80.207c15.47-8.718,29.682-14.949,42.635-18.693C87.741,58.137,98.085,56.879,107.048,57.738
				 M129.333,47.148c-0.921-0.246-1.781-0.521-2.579-0.828l-0.277,15.378l-0.183,4.512c-0.308,13.69-0.492,27.073-0.553,40.149
				c0.675,1.289,1.197,2.67,1.565,4.144c-0.552-0.491-1.105-0.951-1.657-1.381c-0.061,5.525-0.093,10.988-0.093,16.391
				c1.413-0.491,2.702-0.86,3.868-1.105c0-18.539,0.338-37.908,1.014-58.104c0-0.369,0-0.738,0-1.105c-0.062,0-0.123,0-0.185,0
				c0.062-0.062,0.123-0.123,0.185-0.184c0-0.552,0-1.043,0-1.473c0-0.123,0-0.215,0-0.277l0.46-16.759
				C130.345,46.75,129.823,46.965,129.333,47.148 M144.985,27.074l-2.669,5.618l-2.209-3.407l-1.75,5.525l-1.657-2.855l-1.935,5.709
				l-1.749-3.223l-3.776,6.999l-4.235-6.907v4.788l-3.684-4.88v2.671l-3.868-5.894v4.973l-4.328-5.618v4.236l-5.801-5.801
				c3.623,8.349,10.099,14.12,19.43,17.312c0.798,0.307,1.658,0.583,2.579,0.828c0.491-0.184,1.012-0.398,1.565-0.644
				c5.771-2.64,12.216-8.841,19.337-18.601l-4.604,1.381L144.985,27.074 M200.974,178.276l-11.233,6.262l2.117-6.446l-8.38,6.446
				l-3.406-4.144l-7.827,12.984l8.011-7.184l2.763,8.288l11.233-2.209l-2.577,7.735l12.706,4.973l-7.733,4.604
				c32.657,14.733,59.179,45.398,79.56,91.993l-2.763-17.221l6.079,3.316l-6.263-10.406l6.446,3.039l-6.906-9.854l7.55,2.579
				l-10.129-11.51h9.945l-13.261-10.406l9.761-1.657l-12.706-9.116l8.84-2.579l-12.983-7.735l7.826-2.209l-14.733-8.564
				l10.222-1.934l-15.746-6.262l7.09-4.972l-17.771-3.868l6.721-5.986l-15.469-1.75l5.985-7.367l-13.169,1.75l2.854-6.722
				l-11.05,3.407v-7.275l-11.603,5.525V178.276 M182.834,69.341l1.381-3.408l-10.223,1.013l2.303-3.039h-7.919l2.854-3.959
				l-8.931,0.46l1.841-3.959l-8.748,0.185l0.277-2.855l0.184-2.947c-12.585,3.991-21.056,8.717-25.415,14.182
				c-0.062,0.061-0.123,0.122-0.185,0.184c0.062,0,0.123,0,0.185,0c22.347-2.087,54.422,7.489,96.229,28.73l-15.84-10.406
				l2.396-1.657l-11.511-2.486l2.209-3.13h-8.011l2.025-3.407h-10.13l5.434-3.499H182.834z"/>
			<path fill="#9BA527" d="M100.693,198.811c-0.982-1.105-2.271-2.209-3.867-3.314c-47.946,5.955-77.719,30.264-89.322,72.931
				l6.629-9.946l2.579,5.064l4.236-13.26l1.657,6.354l2.302-11.142l3.499,5.617l5.434-13.075l2.118,7.458l2.763-12.708l4.328,5.433
				l0.645-10.681l-4.052-4.421l11.879-3.223l-2.118-5.157l13.813,0.646v-5.158l12.432,5.524v9.117l7.827-8.84l1.842,8.656
				l7.274-9.761C102.535,209.463,105.237,204.091,100.693,198.811 M137.896,269.623c-0.43,0.615-0.86,1.168-1.29,1.658
				c0.185,1.658,0.43,3.315,0.737,4.974l10.313-1.842l-4.787-2.303l9.483-2.854l-3.867-3.04l8.196-3.039l-4.696-2.117l4.511-2.763
				l-1.287-0.829l-1.29-0.829l3.223-8.287l-3.408,3.039v-9.761h-0.827L137.896,269.623 M138.541,261.521h-2.947
				c0,0.857,0.062,1.75,0.185,2.671c0.246,1.902,0.491,3.774,0.736,5.616l1.381-0.186l15.01-27.992l-0.46-0.46l-5.619,5.617
				l-2.763-4.513v8.656l-3.774-2.854v6.353l-3.684-2.854L138.541,261.521 M111.836,248.813v3.592l-8.656-2.671l4.144,4.882h-4.972
				l7.734,4.973l-3.868,2.208l24.219,8.656h0.921c-0.062-1.228-0.154-2.454-0.277-3.683l-19.614-11.325l19.614,11.325
				c-0.184-1.596-0.337-3.192-0.46-4.788c-0.062-0.675-0.123-1.32-0.184-1.934H129.7l-11.878-10.223v3.684L111.836,248.813
				 M46.917,180.21l-15.102-3.683l5.249,9.301H24.448l6.078,5.433l-13.813,3.223l8.932,3.408l-13.813,7.827h8.196l-9.485,7.459
				l8.379-0.369l-11.695,8.379l8.933-0.552l-9.945,7.644l7.827-0.646l-8.288,8.104l6.538-0.185l-6.907,9.854l4.697,0.092
				L4.65,254.89l5.157-3.314l-2.302,16.853c11.603-42.667,41.376-66.976,89.322-72.931c4.788-3.622,1.104-11.326-11.05-23.114
				l-1.75,6.723l-10.405-11.143l-2.579,10.129l-7.459-9.116v7.367l-10.774-6.906l2.579,8.195l-14.55-6.906L46.917,180.21
				 M96.089,124.776l1.934-6.723l2.854,3.315v-6.722l4.328,3.039v-9.762l2.578,5.434v-7.367l5.525,3.223v-4.328
				c3.929-0.491,8.042,0.921,12.339,4.236c0.552,0.43,1.105,0.89,1.657,1.381c-0.552-0.798-1.105-1.504-1.657-2.119
				c-10.928-13.26-25.722-6.292-44.385,20.903l7.275-5.156l1.657,2.762l3.499-6.078L96.089,124.776 M97.839,97.519l-9.945-3.591
				l2.67,5.801l-8.104,1.749l3.316,3.683l-6.446,3.04l4.512,2.763l-5.249,3.223l5.249,1.933l-4.789,5.434h3.868l-1.657,7.734
				c18.663-27.195,33.457-34.163,44.385-20.903c0.552,0.614,1.105,1.32,1.657,2.119c-0.369-1.474-0.89-2.855-1.565-4.144
				c-2.455-4.298-6.937-7.797-13.444-10.498v2.21l-7.551-3.684v2.763l-8.656-4.513L97.839,97.519 M76.2,46.136l-7.551-1.381
				l1.75,3.775h-6.354l3.315,3.131h-9.669l3.959,2.578h-8.748l3.315,4.973l-7.643-0.645l3.407,3.592h-6.354l2.026,2.763
				l-5.064,0.368l2.854,2.118l-7.182,2.119l3.039,1.473l-7.919,9.208l12.063-8.748l-1.841-1.566l8.932-2.026l-1.657-2.763h6.17
				l-1.658-2.946h7.827l-4.236-2.855h7.92l-1.014-2.947l7.827,0.829l-1.749-2.578h5.986L75.831,51.2l6.814,0.46l-1.29-3.407h6.539
				l-0.093-2.394l-7.367-5.433l1.198,4.604l-7.091-2.854L76.2,46.136 M182.373,60.409l4.328-3.591h-8.38l2.302-4.512l-9.854,1.749
				l2.118-4.788l-9.208,3.406l1.658-5.341l-9.669,6.446l-0.277,2.855l8.748-0.185l-1.841,3.959l8.931-0.46l-2.854,3.959h7.919
				l-2.303,3.039l10.223-1.013l-1.381,3.408h10.404l-5.434,3.499h10.13l-2.025,3.407h8.011l-2.209,3.13l11.511,2.486l-2.396,1.657
				l15.84,10.406l-10.314-10.774l3.96-1.75l-9.485-2.394l3.868-2.578l-6.631-0.46l2.579-3.131h-8.104l4.237-4.236l-9.854,0.644
				l4.235-5.708H189.74l5.156-3.131H182.373z"/>
		</g>
	</g>
	<g>
		<path id="Layer0_0_1_STROKES" fill="none" stroke="#000000" stroke-linecap="round" stroke-linejoin="round" d="M155.669,53.778
			l9.669-6.446l-1.658,5.341l9.208-3.406l-2.118,4.788l9.854-1.749l-2.302,4.512h8.38l-4.328,3.591h12.523l-5.156,3.131h11.417
			l-4.235,5.708l9.854-0.644l-4.237,4.236h8.104l-2.579,3.131l6.631,0.46l-3.868,2.578l9.485,2.394l-3.96,1.75l10.314,10.774
			c-41.807-21.241-73.882-30.817-96.229-28.73c0,0.368,0,0.736,0,1.105c-0.675,20.196-1.014,39.565-1.014,58.104
			c1.903-0.369,3.531-0.46,4.88-0.276c5.342-1.535,14.397-0.522,27.165,3.039l-6.721,4.052l11.511,5.157l-5.434,1.75l7.551,6.538
			h-5.525l7.092,8.103h-6.724l6.538,9.484h-5.709l4.788,7.551l-4.973-1.657l4.973,10.129l-5.617-1.75l4.974,11.05l-5.342-2.394
			l4.696,9.484l-5.432-1.934l-0.461,4.88c0.675-0.122,1.349-0.215,2.025-0.276c0.061,0,0.154,0,0.277,0
			c1.409-0.124,2.823-0.246,4.235-0.369l4.052-3.591l7.827-12.984l3.406,4.144l8.38-6.446l-2.117,6.446l11.233-6.262v5.525
			l11.603-5.525v7.275l11.05-3.407l-2.854,6.722l13.169-1.75l-5.985,7.367l15.469,1.75l-6.721,5.986l17.771,3.868l-7.09,4.972
			l15.746,6.262l-10.222,1.934l14.733,8.564l-7.826,2.209l12.983,7.735l-8.84,2.579l12.706,9.116l-9.761,1.657l13.261,10.406h-9.945
			l10.129,11.51l-7.55-2.579l6.906,9.854l-6.446-3.039l6.263,10.406l-6.079-3.316l2.763,17.221l-7.09-9.761l-1.934,5.892
			l-4.604-14.364l-1.842,8.195l-4.695-14.09l-2.027,7.645l-2.763-12.984l-3.037,5.617l-4.79-12.8
			c-7.857-13.322-14.979-23.144-21.362-29.467v6.814l-8.656-12.248l-2.119,6.723l-5.8-12.523l-3.684,4.88l-2.21-12.892l-2.946,4.144
			l-3.223-8.932l3.223-1.841c-10.252-4.604-21.118-7.612-32.599-9.024c-0.921,0.061-1.841,0.154-2.762,0.276l-1.106,10.405
			l-3.498-9.945c-9.822,1.105-19,3.069-27.534,5.894c0.43,8.471,1.442,17.894,3.039,28.27c1.72,10.681,2.763,18.755,3.131,24.219
			c0.061,0.552,0.153,1.167,0.276,1.842h2.947l-1.935-9.946l3.684,2.854v-6.353l3.774,2.854v-8.656l2.763,4.513l5.619-5.617
			l1.287-1.29v1.75v9.761l3.408-3.039l-3.223,8.287l1.29,0.829l4.971-5.156l2.119,3.132l6.445-4.513l2.854,3.498l6.906-3.867
			l3.592,4.882l6.354-2.763v4.05h10.773l-8.563,6.814l3.498,3.408l-13.075,3.498l4.973,3.775h-15.563l5.985,5.71l-13.077-2.026
			l2.579,2.947l-13.996-2.947l3.038,3.223l-2.946,0.277c5.894,2.025,12.308,4.604,19.246,7.735l-10.684,5.617l14.551,1.749
			l-9.025,6.815l13.077,7.55l-12.892,1.934l12.614,11.05l-12.063-1.381l3.592,13.904l-8.934-5.893l-1.381,15.838l-7.919-6.537
			l0.46,9.761c0,0.061,0,0.122,0,0.183c6.51,21.609,13.322,38.278,20.444,50.003c-3.009,0.982-5.894,0.982-8.656,0
			c-6.754-11.111-12.955-26.981-18.603-47.606c-0.122-0.493-0.244-1.015-0.366-1.567l-1.29-0.46l4.053,12.616l-9.394-1.014
			l1.841,10.129l-6.722-2.394l5.157,11.419l-8.104-0.921l6.446,8.011c-7.121-2.885-8.44-1.779-3.959,3.316
			c1.719,1.687,3.438,3.375,5.157,5.064l-18.417-10.406l-3.776,3.5l-2.763-12.985l-5.617,5.985l-2.486-15.101l-4.973,4.972
			l-2.025-12.247l-6.17,4.053l1.473-15.194l-7.643,5.156l2.118-17.864l-9.3,5.802l3.868-14.642l-7.091,0.461l6.63-11.788
			l-7.275-4.052l9.024-10.496l-10.037-2.579l14.641-6.446l-5.893-5.985l16.115-3.684l-4.973-6.263
			c18.11-5.464,30.449-5.586,37.018-0.366c0.307,0.061,0.613,0.122,0.921,0.184c-0.245-1.964-0.491-3.929-0.736-5.895
			 M130.438,270.452l-24.219-8.656l3.868-2.208l-7.734-4.973h4.972l-4.144-4.882l8.656,2.671v-3.592l5.985,4.696v-3.684
			l11.878,10.223 M130.438,260.048c-1.105-6.018-1.996-14.12-2.671-24.311c-0.307-3.192-0.859-8.287-1.657-15.285
			c-0.675-5.833-1.075-10.13-1.197-12.893v-0.828l-2.119-1.105c-1.78-0.983-4.327-2.21-7.643-3.684
			c-2.455-1.105-5.187-1.904-8.195-2.395c-2.087-0.368-4.175-0.613-6.263-0.737c4.543,5.28,1.842,10.652-8.103,16.116l-7.274,9.761
			l-1.842-8.656l-7.827,8.84v-9.117c-11.234,1.658-21.885,5.587-31.954,11.788l-0.645,10.681l-4.328-5.433l-2.763,12.708
			l-2.118-7.458l-5.434,13.075l-3.499-5.617l-2.302,11.142l-1.657-6.354l-4.236,13.26l-2.579-5.064l-6.629,9.946l2.302-16.853
			L4.65,254.89l5.433-9.392l-4.697-0.092l6.907-9.854l-6.538,0.185l8.288-8.104l-7.827,0.646l9.945-7.644l-8.933,0.552l11.695-8.379
			l-8.379,0.369l9.485-7.459h-8.196l13.813-7.827l-8.932-3.408l13.813-3.223l-6.078-5.433h12.615l-5.249-9.301l15.102,3.683
			l-6.078-9.484l14.55,6.906l-2.579-8.195l10.774,6.906v-7.367l7.459,9.116l2.579-10.129l10.405,11.143l1.75-6.723
			c12.154,11.788,15.837,19.492,11.05,23.114c1.289,0.061,2.609,0.184,3.959,0.368h0.092c2.149,0.185,4.267,0.43,6.354,0.737
			c3.13,0.491,6.016,1.228,8.656,2.209c3.622,1.228,6.385,2.18,8.288,2.855c0.245,0,0.369,0.061,0.369,0.183h0.092v-0.183
			c-0.429-13.261-0.46-24.495-0.092-33.704c0.123-2.578,0.215-5.064,0.276-7.458v-2.578l-5.432,4.604v-12.524l-6.446,1.935
			l3.684-8.841h-7.551l6.814-8.655h-9.116c7.612-4.359,13.874-7.336,18.785-8.932c0-5.403,0.032-10.866,0.093-16.391
			c-4.297-3.315-8.411-4.727-12.339-4.236v4.328l-5.525-3.223v7.367l-2.578-5.434v9.762l-4.328-3.039v6.722l-2.854-3.315
			l-1.934,6.723l-2.394-3.96l-3.499,6.078l-1.657-2.762l-7.275,5.156l1.657-7.734h-3.868l4.789-5.434l-5.249-1.933l5.249-3.223
			l-4.512-2.763l6.446-3.04l-3.316-3.683l8.104-1.749l-2.67-5.801l9.945,3.591l-1.75-4.88l8.656,4.513v-2.763l7.551,3.684v-2.21
			c6.507,2.701,10.989,6.2,13.444,10.498c0.061-13.076,0.246-26.459,0.553-40.149c-0.308-0.246-0.645-0.491-1.014-0.736
			c-2.209-1.473-4.972-2.885-8.288-4.236c-1.473-0.614-4.757-1.78-9.853-3.5h-0.092c-8.963-0.859-19.307,0.399-31.033,3.776
			c-12.953,3.744-27.165,9.975-42.635,18.693l7.919-9.208l-3.039-1.473l7.182-2.119l-2.854-2.118l5.064-0.368l-2.026-2.763h6.354
			l-3.407-3.592l7.643,0.645l-3.315-4.973h8.748l-3.959-2.578h9.669l-3.315-3.131h6.354l-1.75-3.775l7.551,1.381l-1.658-3.959
			l7.091,2.854l-1.198-4.604l7.367,5.433l-0.184-2.395c5.463,1.904,9.669,3.837,12.615,5.802c2.579,1.718,4.512,3.59,5.802,5.617
			c9.085,2.333,15.9,4.604,20.442,6.814l0.277-15.378c-9.332-3.192-15.808-8.963-19.43-17.312l5.801,5.801v-4.236l4.328,5.618
			v-4.973l3.868,5.894v-2.671l3.684,4.88v-4.788l4.235,6.907l3.776-6.999l1.749,3.223l1.935-5.709l1.657,2.855l1.75-5.525
			l2.209,3.407l2.669-5.618l0.646,2.21l4.604-1.381c-7.121,9.76-13.567,15.961-19.337,18.601l-0.46,16.759c0,0.062,0,0.154,0,0.277
			c0,0.43,0,0.921,0,1.473c4.359-5.464,12.83-10.19,25.415-14.182l-0.184,2.947l-0.277,2.855l8.748-0.185l-1.841,3.959l8.931-0.46
			l-2.854,3.959h7.919l-2.303,3.039l10.223-1.013l-1.381,3.408h10.404l-5.434,3.499h10.13l-2.025,3.407h8.011l-2.209,3.13
			l11.511,2.486l-2.396,1.657l15.84,10.406 M126.754,46.32c0.798,0.307,1.658,0.583,2.579,0.828
			c0.491-0.184,1.012-0.398,1.565-0.644 M130.438,65.013c-0.062,0.061-0.123,0.122-0.185,0.184c0.062,0,0.123,0,0.185,0
			 M126.477,61.698l-0.183,4.512 M107.14,57.738c0.062,0,0.123,0,0.184,0c-0.307-0.982-0.736-1.933-1.289-2.854 M87.802,45.859
			l0.093,2.394h-6.539l1.29,3.407l-6.814-0.46l2.119,3.407h-5.986l1.749,2.578l-7.827-0.829l1.014,2.947h-7.92l4.236,2.855h-7.827
			l1.658,2.946h-6.17l1.657,2.763l-8.932,2.026l1.841,1.566L33.38,80.207 M125.741,106.359c0.675,1.289,1.197,2.67,1.565,4.144
			c-0.552-0.491-1.105-0.951-1.657-1.381 M127.306,110.503c-0.552-0.798-1.105-1.504-1.657-2.119
			c-10.928-13.26-25.722-6.292-44.385,20.903 M125.556,125.513c1.413-0.491,2.702-0.86,3.868-1.105 M128.872,202.679h0.184
			c8.349-1.841,17.189-3.314,26.519-4.419l-1.842-5.158l-2.854,4.329l-1.657-11.05l-3.96,4.144l-2.578-12.247l-4.328,3.684
			l-1.842-9.761l-6.077,3.499v-10.589l-1.842,1.381c-0.062,0.491-0.092,0.982-0.092,1.473c-0.368,10.866-0.246,22.07,0.369,33.611
			V202.679l0.276,4.513 M128.596,166.49l-3.776,2.67v-8.656 M168.192,196.97l-4.145,3.591 M161.654,197.614l-0.368,3.223
			 M156.682,201.298l-1.106-3.039 M160.18,211.243c-0.306-3.499-0.644-6.906-1.013-10.221c-0.122-1.044-0.246-2.087-0.368-3.131
			c-3.806-29.037-11.972-53.624-24.495-73.759 M124.636,201.85l0.277,4.881 M135.594,261.521c0,0.857,0.062,1.75,0.185,2.671
			c0.246,1.902,0.491,3.774,0.736,5.616 M137.896,269.623l15.01-27.992 M131.082,266.77c-0.184-1.596-0.337-3.192-0.46-4.788
			c-0.062-0.675-0.123-1.32-0.184-1.934 M131.082,266.77c0.123,1.229,0.215,2.455,0.277,3.683 M137.896,269.623
			c-0.43,0.615-0.86,1.168-1.29,1.658c-0.061-0.49-0.092-0.981-0.092-1.473 M136.606,271.281c0.185,1.658,0.43,3.315,0.737,4.974
			l10.313-1.842l-4.787-2.303l9.483-2.854l-3.867-3.04l8.196-3.039l-4.696-2.117l4.511-2.763l-1.287-0.829 M131.082,266.77
			l-19.614-11.325 M152.906,241.631c0.306-0.554,0.583-1.137,0.827-1.75 M100.693,198.811c-0.982-1.105-2.271-2.209-3.867-3.314
			c-47.946,5.955-77.719,30.264-89.322,72.931 M75.647,215.754l-12.432-5.524v5.158l-13.813-0.646l2.118,5.157l-11.879,3.223
			l4.052,4.421 M132.095,276.347c1.719,0.183,3.53,0.49,5.433,0.921c-0.061-0.369-0.122-0.705-0.184-1.013 M152.721,349.736
			l0.092,3.592l-7.272-2.763 M137.527,277.268c4.421,0.921,9.271,2.302,14.55,4.144 M133.568,391.269
			c-25.415-27.259-26.213-65.627-2.394-115.105 M196.646,209.585l7.733-4.604l-12.706-4.973l2.577-7.735l-11.233,2.209l-2.763-8.288
			l-8.011,7.184 M222.062,235.461l11.694,3.408l-4.236,3.406l9.761,4.881l-3.866,3.406l11.325,6.446h-6.813l8.472,7.919h-4.974
			 M276.206,301.578c-20.381-46.595-46.902-77.26-79.56-91.993 M199.224,256.731c-19.214,4.851-34.071,11.327-44.569,19.432"/>
	</g>
</g>
</svg>
