<?xml version="1.0" encoding="utf-8"?>
<!-- Generator: Adobe Illustrator 16.0.0, SVG Export Plug-In . SVG Version: 6.00 Build 0)  -->
<!DOCTYPE svg PUBLIC "-//W3C//DTD SVG 1.1//EN" "http://www.w3.org/Graphics/SVG/1.1/DTD/svg11.dtd">
<svg version="1.1" id="Layer_1" xmlns="http://www.w3.org/2000/svg" xmlns:xlink="http://www.w3.org/1999/xlink" x="0px" y="0px"
	 width="285px" height="427px" viewBox="0 0 285 427" enable-background="new 0 0 285 427" xml:space="preserve">
<g transform="matrix( 1, 0, 0, 1, 0,0) ">
	<g>
		<g id="Layer0_0_FILL">
			<path fill="#623C1C" d="M218.021,265.765c-0.699,1.991-1.301,3.729-1.804,5.217c-2.556,7.445-3.759,14.269-3.613,20.47
				L218.021,265.765 M226.183,282.309l-0.021-0.068l-0.049,0.088L226.183,282.309 M222.796,236.4
				c-0.096,0.177-0.191,0.354-0.288,0.531c0.202,0.684-0.505,3.742-2.12,9.176c-0.342,1.191-0.664,2.278-0.97,3.26
				c0.146,0.155,0.355,0.366,0.633,0.631c0.494,0.499,0.842,0.841,1.048,1.029l4.434-20.714
				C224.946,232.023,224.035,234.053,222.796,236.4 M229.579,209.046c-1.31,2.617-2.054,4.62-2.238,6.012
				c-1.126,1.722-1.681,4.959-1.664,9.711c0.356,0.539,0.534,1.305,0.531,2.296l4.32-20.084
				C230.234,207.662,229.918,208.35,229.579,209.046 M238.547,225.055c-0.121-0.41-0.265-0.815-0.432-1.211l-7.658,43.003
				l-4.171,15.06c1.358-2.78,2.61-5.926,3.754-9.435c1.404-4.133,2.371-7.74,2.897-10.819c0.359-2.137,0.688-5.557,0.982-10.252
				c0.129-2.417,0.29-4.473,0.483-6.164c1.469-2.07,2.594-5.228,3.371-9.473C238.762,230.219,239.02,226.65,238.547,225.055
				 M234.167,216.016l-0.034-0.362c-0.012-0.045-0.026-0.091-0.04-0.137c-0.063,0.118-0.105,0.23-0.125,0.334L234.167,216.016
				 M235.633,209.411c-0.063,0.118-0.134,0.214-0.212,0.286c-0.706,0.804-0.934,1.788-0.688,2.953
				C234.998,211.533,235.297,210.453,235.633,209.411 M236.176,208.731c-0.187,0.203-0.369,0.432-0.543,0.68
				c-0.336,1.042-0.635,2.122-0.899,3.239c0.026,0.091,0.06,0.207,0.101,0.342l0.96,2.245l0.114,0.635
				c0.349-0.499,0.728-1.057,1.14-1.675c-0.614-0.908-0.929-1.386-0.941-1.431C235.782,211.672,235.806,210.328,236.176,208.731
				 M234.108,193.434c-0.656,1.136-1.353,2.134-2.089,2.996c-0.045,0.014-0.056,0.066-0.029,0.157
				c0.182,1.781,0.135,3.553-0.137,5.318L234.108,193.434 M236.556,204.232c0.241-0.021,0.393-0.264,0.453-0.728l-0.048,0.087
				c-0.122,0.086-0.265,0.278-0.425,0.572L236.556,204.232 M241.973,163.454l0.314-1.951c-1.153,4.652-2.753,9.214-4.801,13.685
				c-0.166,0.446-0.337,0.868-0.517,1.268c0.066,0.228,0.134,0.455,0.202,0.684c0.269,0.911,0.354,2.125,0.259,3.64L241.973,163.454
				 M250.281,167.168c-0.015-0.046-0.026-0.092-0.041-0.137c-1.783,6.376-2.466,12.203-2.044,17.479
				c-1.007,1.29-1.931,2.604-2.774,3.944c-0.466,1.772-0.951,2.733-1.453,2.882c-0.138,0.04-0.279,0.059-0.43,0.053
				c-1.39,2.343-2.654,4.774-3.792,7.292c-0.066,0.614-0.158,1.31-0.275,2.088c-0.019,0.105-0.014,0.203,0.013,0.294
				c1.445-2.658,3.163-5.222,5.16-7.696c0.101-0.327,0.219-0.684,0.353-1.07c0.962-2.615,2.231-5.021,3.813-7.224
				c0.07-2.945,0.207-5.166,0.407-6.662c0.347-4.364,0.686-8.083,1.017-11.154C250.22,167.211,250.235,167.182,250.281,167.168
				 M268.372,60.123l2.884-0.555l0.425-1.835c0.804-0.634,1.576-0.368,2.317,0.801c0.358,0.539,1.207,2.32,2.546,5.343
				c-8.073,26.176-14.671,51.469-19.795,75.88c3.65-9.108,8.12-23.835,13.404-44.181c5.153-19.959,7.479-30.782,6.981-32.468
				c-1.306-4.421-3.087-6.423-5.344-6.003C270.566,57.319,269.427,58.325,268.372,60.123 M252.692,106.166
				c-0.302,0.485-0.597,0.995-0.888,1.526c-1.231,2.198-1.667,3.914-1.304,5.144c-1.832,3.862-3.286,6.993-4.359,9.392
				c0.393,0.33,0.604,0.54,0.632,0.631c-0.717,7.3-1.646,12.877-2.786,16.732c0.243,2.505,0.327,5.131,0.248,7.881l3.398-24.719
				L252.692,106.166 M254.936,98.664c0.228,1.271,0.189,2.322-0.109,3.154c-0.088,0.373-0.799,1.822-2.134,4.348l-5.059,16.587
				l-3.398,24.719c-0.104,2.162-0.316,4.38-0.635,6.656c-0.31,2.47-0.747,4.928-1.313,7.376l-0.314,1.951l-4.542,17.326
				c-0.121,1.771-0.507,3.991-1.154,6.661c-0.562,2.295-1.282,4.295-2.168,5.993l-2.255,8.471c-0.237,1.707-0.681,3.399-1.325,5.076
				l-4.32,20.084c-0.045,0.854-0.269,1.938-0.676,3.248l-4.434,20.714l0.218,0.233c0.161,0.546,0.236,1.218,0.223,2.014
				c-0.107,0.478-0.196,0.926-0.271,1.346c-0.193,0.851-0.351,1.913-0.47,3.187c-0.151,0.49-0.32,1.011-0.505,1.563
				c-0.847,2.331-1.604,4.464-2.272,6.396l-5.417,25.687c0.064,3.402,0.541,6.605,1.431,9.613c0.013,0.046,0.353,0.862,1.021,2.449
				c1.076,1.466,2.551,1.922,4.419,1.369c0.318-0.094,1.137-3.111,2.454-9.051c1.456-6.477,2.626-10.565,3.513-12.263
				c0.213-0.396,0.438-0.808,0.673-1.241l0.049-0.088l0.049-0.089l-0.021-0.069c0.032-0.059,0.064-0.117,0.097-0.176l4.171-15.06
				l7.658-43.003c-0.153-0.352-0.294-0.657-0.419-0.918c0.014-0.449-0.052-0.926-0.2-1.427c-0.283-0.957-0.68-1.88-1.19-2.77
				c-0.091,0.026-0.159,0.046-0.205,0.06c-0.82,0.242-1.426-0.297-1.817-1.619l-0.116-1.154l-0.199-0.165
				c0.02-0.104,0.062-0.216,0.125-0.334c-0.302-0.356-0.488-0.647-0.557-0.876c-0.729,0.216-1.188,0.005-1.376-0.634
				c-0.135-0.457,0.209-2.144,1.03-5.063c0.702-2.487,1.168-4.011,1.398-4.576c0.427-1.067,1.3-2.812,2.616-5.233
				c0.423-1.415,0.717-2.269,0.879-2.564c0.583-1.213,1.068-1.16,1.459,0.163c0.137,0.457,0.201,1.104,0.204,1.947
				c1.138-2.517,2.402-4.948,3.792-7.292c-0.209-0.037-0.363-0.141-0.463-0.309l-0.23-0.527c-0.067-0.227,0.184-1.64,0.755-4.236
				c0.742-3.194,1.188-5.283,1.342-6.27c0.398-2.348,0.67-4.114,0.814-5.297c-0.107-0.364,0.154-1.408,0.784-3.13
				c0.646-1.678,1.182-1.787,1.613-0.328c0.067,0.228-0.109,1.642-0.53,4.245c-0.241,1.36-0.593,3.273-1.053,5.739
				c-0.343,2.529-0.651,4.504-0.926,5.923c-0.107,0.478-0.183,0.896-0.224,1.256c0.844-1.34,1.768-2.654,2.774-3.944
				c-0.422-5.276,0.261-11.103,2.044-17.479c0.179-2.58,0.411-4.73,0.695-6.45c0.84-6.888,2.639-13.541,5.399-19.957
				c0.084-0.224,0.18-0.4,0.29-0.533l0.049-0.088l-0.021-0.069c0.031-0.056,0.063-0.114,0.097-0.177
				c5.124-24.412,11.722-49.705,19.795-75.88c-1.339-3.023-2.188-4.804-2.546-5.343c-0.741-1.169-1.514-1.436-2.317-0.801
				l-0.425,1.835l-6.688,24.651l6.688-24.651l-2.884,0.555l-0.068,0.02c-1.319,2.076-2.541,5.236-3.664,9.484
				c-0.563,1.951-1.644,4.5-3.24,7.649L254.936,98.664 M255.036,107.555c0.85-1.987,1.404-3.464,1.662-4.433
				c0.104-0.328,0.435-1.044,1-2.154c0.532-1.048,0.828-1.805,0.89-2.27c0.183-1.393,0.547-2.342,1.09-2.85
				c0.155-0.144,0.303-0.237,0.439-0.278l0.54-1.944l-0.54,1.944c0.272-0.081,0.498,0.175,0.674,0.767
				c0.201,0.684-0.624,3.43-2.473,8.24c-2.248,5.471-3.386,8.334-3.408,8.589c-0.019,0.104-0.06,0.216-0.123,0.333l-1.33,4.557
				c-0.319,1.433-0.536,2.463-0.648,3.09c-0.127,1.079-0.318,2.697-0.572,4.853c-0.227,1.752-0.68,2.729-1.363,2.931
				c-0.274,0.081-0.492,0.096-0.656,0.045l-0.533,1.719l0.533-1.719c-0.118-0.064-0.213-0.135-0.285-0.213
				c-0.127-0.261-0.198-0.413-0.211-0.458c-0.094-0.319,0.349-2.68,1.327-7.083c0.96-4.298,1.736-7.451,2.331-9.461
				C253.62,110.897,254.173,109.495,255.036,107.555 M245.743,149.553c-0.006-0.692,0.277-1.073,0.851-1.144
				c0.575-0.071,0.928,0.122,1.063,0.578c0.377,1.276,0.004,4.286-1.121,9.03c-1.24,5.025-1.963,8.113-2.168,9.264
				c-0.188,1.046-0.508,2.554-0.968,4.523c-0.546,2.341-0.907,3.886-1.084,4.632c-0.244,1.014-0.473,3.015-0.679,5.999
				c-0.167,1.784-0.547,2.765-1.141,2.939c-0.363,0.108-0.669-0.001-0.913-0.325c-0.059-0.032-0.095-0.07-0.108-0.117l-5.886,20.327
				l5.886-20.327c-0.086-0.123-0.143-0.229-0.169-0.321c-0.282-0.957,0.205-4.248,1.467-9.875c0.639-2.865,1.321-5.842,2.044-8.93
				c0.153-0.988,0.493-2.525,1.015-4.612c0.497-2.178,0.821-3.761,0.977-4.749l0.838-4.708L245.743,149.553 M273.257,61.058
				c0.135,0.456-0.324,2.425-1.374,5.908c-1.085,3.542-1.656,5.47-1.71,5.783c-0.038,0.21-0.195,2.362-0.471,6.458
				c-0.222,2.94-0.56,4.478-1.015,4.612c-0.365,0.108-0.663,0.022-0.895-0.257c-0.086-0.123-0.157-0.275-0.21-0.458
				c-0.162-0.546-0.065-2.484,0.289-5.81c0.277-3.254,0.509-5.156,0.692-5.706c0.216-0.609,0.501-1.66,0.854-3.152
				c0.438-1.369,0.781-2.387,1.029-3.055c0.115-0.282,0.488-1.532,1.121-3.751C272.276,59.836,272.839,59.645,273.257,61.058
				 M232.219,221.497c0.641-0.684,1.089-0.593,1.345,0.271c0.054,0.183-0.438,2.213-1.473,6.086
				c-0.058,0.313-0.191,1.37-0.402,3.167c-0.206,1.646-0.447,2.512-0.722,2.593c-0.363,0.106-0.67-0.002-0.913-0.326
				c-0.131-0.108-0.223-0.255-0.277-0.438c-0.242-0.821,0.025-2.932,0.804-6.334c0.409-1.806,0.646-2.843,0.716-3.11
				C231.439,222.72,231.748,222.082,232.219,221.497 M229.406,239.65c0.324,1.094,0.036,3.311-0.859,6.646
				c-1.065,3.438-1.67,5.5-1.814,6.187c-0.131,0.732-0.482,1.802-1.058,3.213c-0.624,1.571-1.084,2.698-1.379,3.381
				c-0.533,1.545-1,2.823-1.396,3.831c-0.229,0.564-0.412,1.039-0.544,1.426l-3.162,11.937l3.162-11.937
				c-0.436,0.872-0.723,1.329-0.86,1.369c-0.319,0.095-0.587,0.025-0.805-0.209c-0.131-0.108-0.23-0.277-0.299-0.505
				c-0.161-0.548,0.555-2.817,2.151-6.808c0.837-2.032,1.775-4.389,2.814-7.076c0.87-3.429,1.451-5.656,1.742-6.684
				c0.243-1.016,0.441-2.112,0.586-3.298c-0.242-0.819-0.068-1.489,0.52-2.012C228.75,238.605,229.149,238.784,229.406,239.65
				 M224.378,275.705c0.307-1.479,0.489-2.622,0.548-3.433c0.033-0.557,0.365-1.272,0.999-2.154
				c0.669-1.089,1.159-1.111,1.468-0.063c0.055,0.183,0.025,0.589-0.088,1.216l0.581-1.808l-0.581,1.808
				c-0.217,1.105-0.696,3.006-1.436,5.702c-0.214,0.956-1.08,3.392-2.598,7.31c-0.408,0.964-0.749,2.154-1.023,3.574
				c-0.209,0.805-0.482,1.976-0.82,3.515c-0.355,1.145-0.895,2.593-1.617,4.342c-0.573,1.41-1.019,2.335-1.335,2.773l-0.497,1.338
				l0.497-1.338c-0.154,0.145-0.278,0.232-0.37,0.259c-0.409,0.121-0.707,0.036-0.893-0.258c-0.113-0.213-0.177-0.342-0.19-0.389
				c-0.176-0.591,0.143-1.777,0.958-3.555c1.038-2.188,1.609-3.522,1.717-4c0.7-3.329,1.37-5.758,2.009-7.285
				C223.214,279.643,224.104,277.124,224.378,275.705 M257.479,121.105l-11.217,43.534L257.479,121.105 M253.598,117.272
				c-0.071,0.268-0.117,0.529-0.141,0.785l1.33-4.557C254.124,115.283,253.726,116.54,253.598,117.272 M254.409,96.886
				c0.234,0.625,0.409,1.217,0.526,1.778l6.464-21.388c-0.623,1.077-1.272,2.234-1.946,3.474c-0.124,3.605-1.961,8.459-5.509,14.563
				C254.035,95.783,254.189,96.307,254.409,96.886z"/>
			<path fill="#875D33" d="M226.286,281.906c-0.032,0.059-0.064,0.117-0.097,0.176l0.021,0.069L226.286,281.906 M212.604,291.451
				l-1.098,5.084l5.587,17.897l9.021-32.104c-0.234,0.434-0.46,0.846-0.673,1.241c-0.887,1.697-2.057,5.786-3.513,12.263
				c-1.317,5.939-2.136,8.957-2.454,9.051c-1.868,0.553-3.343,0.097-4.419-1.369c-0.668-1.587-1.008-2.403-1.021-2.449
				C213.145,298.057,212.668,294.854,212.604,291.451 M221.268,254.62c0.075-0.42,0.164-0.868,0.271-1.346
				c0.014-0.796-0.062-1.468-0.223-2.014l-0.218-0.233l-3.078,14.737c0.668-1.932,1.426-4.064,2.272-6.396
				c0.185-0.552,0.354-1.072,0.505-1.563C220.917,256.533,221.074,255.471,221.268,254.62 M238.115,223.844l0.679-3.992
				l-2.171-1.812c-0.012,0.301-0.115,0.53-0.317,0.689c0.511,0.89,0.907,1.813,1.19,2.77c0.148,0.501,0.214,0.978,0.2,1.427
				C237.821,223.187,237.962,223.492,238.115,223.844 M234.108,193.434c0.886-1.698,1.606-3.698,2.168-5.993
				c0.647-2.67,1.033-4.89,1.154-6.661L234.108,193.434 M250.24,167.031c0.015,0.045,0.026,0.091,0.041,0.137
				c0.119-0.432,0.24-0.865,0.36-1.296C250.51,166.259,250.373,166.645,250.24,167.031 M182.425,326.168l6.222-1.839
				c-3.227,0.655-6.408,1.126-9.545,1.409C180.328,326.367,181.437,326.511,182.425,326.168 M157.541,334.788l15.452-4.566
				l0.757-1.712l0.422-1.091c-0.779,1.221-6.396,3.426-16.854,6.616L157.541,334.788 M87.092,353.233l-7.93,2.344l0.29,0.732
				l7.045-2.827L87.092,353.233 M86.497,353.482l0.732-0.289l-0.137,0.04L86.497,353.482 M63.252,360.354l0.041,0.138l16.159-4.183
				l-0.29-0.732L63.252,360.354 M55.117,362.759l0.109,0.117l8.067-2.384l-0.041-0.138L55.117,362.759 M49.975,364.727l-0.122-0.411
				l-14.944,4.27L49.975,364.727 M5.752,356.461c1.386,7.371,4.318,13.519,8.796,18.439L5.752,356.461 M27.11,346.729
				c-0.027-0.092-0.047-0.161-0.061-0.206l-1.052,1.724c0.14,0.306,0.458,0.708,0.951,1.206c0.146,0.156,0.291,0.311,0.436,0.467
				c0.362,0.387,0.564,0.65,0.604,0.786c0.068,0.229,0.204,0.437,0.407,0.623c0.323,0.253,0.511,0.469,0.564,0.652
				c0.04,0.137,0.104,0.267,0.19,0.391c0.18,0.441,0.411,0.72,0.693,0.835c0.104,0.019,0.248,0.002,0.429-0.053
				c0.274-0.081,0.416-0.273,0.427-0.572c-0.027-0.091-0.055-0.183-0.082-0.273c-0.471-0.754-0.739-1.243-0.806-1.472
				c0.143-0.687,0.234-1.135,0.271-1.344l-0.021-0.067l-0.329-1.614l0.077-0.246c-0.041-0.136,0.003-0.323,0.132-0.559l0.069-0.021
				l0.124-0.335l0.669-1.758l0.498-1.336l2.14-5.837l1.996-5.572l-2.125,5.387c-0.177-0.096-0.357-0.116-0.539-0.063
				c-0.229,0.067-0.558,0.461-0.989,1.184c-0.22,0.323-0.395,0.572-0.521,0.749l-0.049,0.09c-0.051,0.136-0.092,0.249-0.124,0.334
				L30.397,341l-1.574,2.473l-0.695,1.171c-0.096,0.177-0.167,0.521-0.215,1.03C27.839,346.092,27.571,346.444,27.11,346.729
				 M100.082,349.394l0.772-0.155l22.778-4.426l33.909-10.024l-0.223-0.753C144.994,337.778,125.915,342.896,100.082,349.394
				 M99.877,349.454l0.977-0.216l-0.772,0.155C99.991,349.42,99.923,349.44,99.877,349.454 M114.925,128.75l4.647-5.908
				l20.814-33.956L114.925,128.75 M268.304,60.143l-1.907,0.34l-4.997,16.792c1.597-3.149,2.678-5.698,3.24-7.649
				C265.763,65.379,266.984,62.219,268.304,60.143 M243.601,154.127c0.318-2.275,0.53-4.494,0.635-6.656l-1.948,14.032
				C242.854,159.055,243.291,156.597,243.601,154.127 M256.652,139.935l0.021,0.069c0.017-0.099,0.043-0.18,0.075-0.246
				C256.715,139.82,256.684,139.879,256.652,139.935 M256.625,140.091c-0.11,0.132-0.206,0.309-0.29,0.533
				c-2.761,6.416-4.56,13.069-5.399,19.957c-0.284,1.72-0.517,3.87-0.695,6.45c0.133-0.386,0.27-0.772,0.401-1.159l0.104-0.402
				c0.101-0.327,0.207-0.632,0.323-0.913c0.292-0.854,0.586-1.709,0.878-2.564c0.222-0.759,0.489-1.532,0.803-2.319
				c1.028-5.904,2.195-11.849,3.499-17.834c0.078-0.321,0.157-0.641,0.236-0.963c0.023-0.254,0.077-0.493,0.16-0.716
				L256.625,140.091 M254.826,101.818c0.299-0.832,0.337-1.883,0.109-3.154l-2.243,7.501
				C254.027,103.64,254.738,102.191,254.826,101.818 M239.711,69.042c-0.968-1.597-1.867-3.884-2.697-6.86l-51.698,13.721
				l-0.635,1.377l-0.393,0.934c-0.229,0.564-0.603,1.393-1.124,2.488l-0.633,3.384c-0.279,1.073-0.899,2.496-1.862,4.267
				c-0.919,1.758-1.56,2.691-1.923,2.799c-0.227,0.067-0.43,0.053-0.608-0.043l-7.485,15.668l11.033-28.314
				c0.01-0.299,0.031-0.653,0.059-1.057c-0.008-0.196,0.187-0.377,0.584-0.544l0.104-0.403l-42.045,12.429l-20.814,33.956
				l-31.586,68.437l31.586-68.437l-4.647,5.908l-16.253,32.534c-4.508,8.221-12.343,19.187-23.506,32.893
				c-5.659,20.258-11.983,39.102-18.973,56.531L30.19,301.066L5.752,356.461c1.421-1.063,3.507-2.051,6.261-2.964l8.59-16.963
				l-8.59,16.963c3.801-1.223,8.838-2.291,15.11-3.203l-1.434-1.584l0.309-0.463c-0.072-0.078-0.122-0.163-0.149-0.253
				c-0.04-0.137-0.024-0.415,0.051-0.833c0.094-0.523,0.231-0.812,0.413-0.866c0.274-0.08,0.52-0.004,0.737,0.229l1.079-1.88
				l-0.02-0.068c0.161-0.295,0.399-0.664,0.715-1.103L30.397,341l0.818-1.505l0.049-0.09l4.174-7.257l-1.996,5.572
				c0.013,0.046,0.034,0.114,0.061,0.205c0.297,1.004,0.181,1.953-0.346,2.853c-0.244,0.519-0.861,1.444-1.855,2.779l-0.498,1.336
				l0.069-0.02l0.061,0.204c0.067,0.228,0.037,0.461-0.092,0.696c-0.11,0.131-0.345,0.423-0.707,0.877l-0.124,0.335
				c6.662-1.771,16.242-4.404,28.738-7.899c-0.462-0.557-0.861-0.986-1.196-1.282c5.523-19.374,12.33-38.264,20.421-56.663
				c-8.091,18.399-14.898,37.289-20.421,56.663c0.334,0.296,0.734,0.726,1.196,1.282c7.138-2.011,15.231-4.306,24.283-6.882
				l-0.606-2.051l7.163-25.311l-7.163,25.311l0.606,2.051c11.194-3.21,23.83-6.821,37.908-10.834
				c1.413-0.418,2.826-0.835,4.239-1.253c2.188-0.646,4.36-1.263,6.515-1.851l-1.424-2.552c6.489-29.523,9.904-45.799,10.249-48.825
				c-0.345,3.026-3.76,19.302-10.249,48.825l1.424,2.552c5.756-1.651,11.268-3.207,16.536-4.666l-0.222-0.752l0.222,0.752
				c28.628-8.115,49.719-13.803,63.275-17.066l1.098-5.084c-0.146-6.201,1.058-13.024,3.613-20.47
				c0.503-1.488,1.104-3.226,1.804-5.217l3.078-14.737c-0.206-0.188-0.554-0.53-1.048-1.029c-0.277-0.265-0.487-0.476-0.633-0.631
				c0.306-0.981,0.628-2.068,0.97-3.26c1.615-5.434,2.322-8.492,2.12-9.176c0.097-0.177,0.192-0.354,0.288-0.531
				c1.239-2.348,2.15-4.377,2.736-6.087c0.407-1.31,0.631-2.394,0.676-3.248c0.003-0.991-0.175-1.757-0.531-2.296
				c-0.017-4.752,0.538-7.989,1.664-9.711c0.185-1.392,0.929-3.395,2.238-6.012c0.339-0.696,0.655-1.385,0.949-2.065
				c0.645-1.677,1.088-3.369,1.325-5.076c0.271-1.766,0.318-3.538,0.137-5.318c-0.026-0.09-0.016-0.143,0.029-0.157
				c0.736-0.862,1.433-1.86,2.089-2.996l3.322-12.654c0.096-1.515,0.01-2.729-0.259-3.64c-0.068-0.229-0.136-0.456-0.202-0.684
				c0.18-0.4,0.351-0.822,0.517-1.268c2.048-4.471,3.647-9.033,4.801-13.685l1.948-14.032c0.079-2.75-0.005-5.376-0.248-7.881
				c1.141-3.855,2.069-9.433,2.786-16.732c-0.027-0.091-0.239-0.301-0.632-0.631c1.073-2.399,2.527-5.53,4.359-9.392
				c-0.363-1.23,0.072-2.945,1.304-5.144c0.291-0.531,0.586-1.041,0.888-1.526l2.243-7.501c-0.117-0.562-0.292-1.154-0.526-1.778
				c-0.22-0.579-0.374-1.103-0.465-1.573c3.548-6.104,5.385-10.958,5.509-14.563c0.674-1.24,1.323-2.397,1.946-3.474l4.997-16.792
				l-6.354,3.143l-9.846,2.91c-3.181,5.004-5.982,6.675-8.406,5.013l-1.902,6.139c0.041,0.979-0.027,1.916-0.21,2.813
				c-0.235,1.209-0.748,2.079-1.533,2.609l-2.751,8.545l1.59-8.202c-0.196,0.008-0.366-0.065-0.511-0.221
				c-0.127-0.26-0.198-0.412-0.212-0.458c-0.323-1.094-0.341-2.08-0.054-2.958l1.503-3.715c0.33-0.891,0.715-2.02,1.153-3.389
				c0.098-0.177,0.137-0.462,0.12-0.853c-0.019-0.391,0.046-0.683,0.188-0.874c0.082-0.223,0.186-0.377,0.31-0.463L239.711,69.042
				 M212.536,93.801l-13.464,39.961L212.536,93.801 M192.891,81.916l-8.404,25.38L192.891,81.916 M177.27,159.088l19.419-59.042
				L177.27,159.088 M108.528,184.315l17.543-45.776L108.528,184.315 M111.81,201.707c0.183-0.054,0.328,0.102,0.436,0.466
				c0.054,0.183-0.285,1.05-1.014,2.604c-0.404,0.813-0.705,1.473-0.903,1.977c-0.034,0.097-0.082,0.186-0.144,0.265
				c-0.068,0.319-0.147,0.639-0.236,0.962l-0.353,1.07c-0.47,1.427-0.934,2.877-1.39,4.352l-0.629,1.895
				c-0.249,0.669-0.474,1.33-0.678,1.984c-0.317,0.938-0.636,1.874-0.954,2.811c-2.648,7.473-5.617,15.115-8.908,22.928
				c-0.428,1.911-0.799,2.913-1.119,3.008c-0.059-0.033-0.111-0.042-0.156-0.027c-0.557,1.302-1.135,2.614-1.736,3.932
				c-0.148,0.342-0.311,0.712-0.49,1.111c-1.433,3.2-2.928,6.439-4.484,9.726c1.401-4.478,2.898-9.059,4.488-13.74
				c-0.027-0.092-0.054-0.184-0.081-0.274l0.282-2.313c0.018-0.104,0.186-0.376,0.502-0.817c0.225-0.414,0.385-0.709,0.482-0.886
				c0.11-0.131,0.249-0.248,0.417-0.347l1.326-3.813c0.12-0.432,0.27-0.848,0.449-1.247c0.01-0.301,0.018-0.525,0.023-0.676
				c0.083-0.223,0.218-0.438,0.406-0.641l0.124-0.334l0.048-0.088c0.024-0.044,0.034-0.098,0.029-0.157l0.068-0.02
				c0.012-0.055,0.022-0.107,0.027-0.157c0.091-0.317,0.2-0.622,0.325-0.915c0.038-0.207,0.068-0.439,0.091-0.696
				c0.113-0.626,0.259-0.968,0.441-1.021c0.045-0.013,0.076,0.003,0.089,0.049c0.98-2.719,2.007-5.45,3.078-8.196
				c-0.164-0.05-0.265-0.145-0.306-0.281c-0.081-0.272,0.34-1.364,1.263-3.271c1.078-2.054,1.631-3.283,1.661-3.688
				c0.023-0.254,0.162-0.543,0.413-0.865c0.097-0.177,0.177-0.325,0.241-0.442c0.112-0.276,0.234-0.535,0.365-0.777
				c0.062-0.465,0.219-0.933,0.477-1.405l0.069-0.02c-0.105-0.019-0.2-0.09-0.286-0.213l-0.129-0.184
				c-0.054-0.183,0.112-0.628,0.497-1.337c0.385-0.709,0.587-1.115,0.605-1.22c-0.012-0.542,0.227-1.331,0.713-2.367
				c0.286-0.877,0.694-1.841,1.227-2.89c0.602-1.317,1.039-2.018,1.313-2.099c0.091-0.027,0.166-0.024,0.226,0.008
				c1.181-2.877,2.402-5.79,3.661-8.739C113.069,196.998,112.447,199.338,111.81,201.707 M132.153,238.589l10.618-38.525
				L132.153,238.589 M153.64,196.851l-7.891,43.219L153.64,196.851 M99.343,255.35c4.784-6.618,7.764-13.72,8.942-21.304
				C107.107,241.63,104.127,248.731,99.343,255.35l-18.029,47.405L99.343,255.35 M144.489,310.247l8.855-31.908L144.489,310.247
				 M120.671,256.329l17.222-54.156L120.671,256.329 M114.477,319.12c7.34-11.885,13.086-27.907,17.238-48.064l8.854-27.893
				l-8.854,27.893C127.563,291.213,121.817,307.235,114.477,319.12 M103.842,312.822l19.194-50.501L103.842,312.822 M62.564,253.657
				l-9.805,26.687L62.564,253.657 M51.803,272.077l-18.192,50.874L51.803,272.077 M60.836,281.004l-9.31,24.088L60.836,281.004
				 M71.951,262.776l-17.402,51.532L71.951,262.776 M235.678,168.065l-6.223,18.937L235.678,168.065 M177.555,232.229
				c4.633-8.803,10.535-23.879,17.704-45.228c3.005-16.996,7.423-33.739,13.253-50.232c-5.83,16.493-10.248,33.236-13.253,50.232
				C188.09,208.35,182.188,223.427,177.555,232.229 M198.78,288.697l15.108-63.565L198.78,288.697 M158.629,212.473l9.838-27.588
				c0.55-12.553,3.426-25.792,8.627-39.721c-5.201,13.928-8.077,27.168-8.627,39.721L158.629,212.473 M155.606,131.073
				l-10.554,31.443L155.606,131.073 M151.521,129.827l-7.688,20.263L151.521,129.827 M148.419,91.418l-9.551,23.267L148.419,91.418
				 M178.003,301.902l12.687-48.874L178.003,301.902 M166.627,256.126l11.809-52.853L166.627,256.126 M166.369,117.186
				c0.735,6.177-6.253,29.9-20.964,71.171C160.116,147.085,167.104,123.362,166.369,117.186 M122.319,181.428l25.502-62.104
				L122.319,181.428 M83.354,237.475l15.565-38.127L83.354,237.475 M186.708,153.547c-0.243,11.075-2.727,20.953-7.446,29.634
				C183.981,174.5,186.465,164.623,186.708,153.547c-7.793,16.726-11.199,31.188-10.22,43.389
				c9.742-11.306,14.849-28.649,15.321-52.033c-0.473,23.383-5.579,40.727-15.321,52.033
				C175.509,184.736,178.915,170.273,186.708,153.547 M236.96,101.227l-33.265,115.32L236.96,101.227z"/>
			<path fill="#422E1A" d="M234.167,216.016l0.116,1.154c0.392,1.322,0.997,1.861,1.817,1.619c0.046-0.014,0.114-0.033,0.205-0.06
				c0.202-0.159,0.306-0.389,0.317-0.689L234.167,216.016 M234.834,212.993c-0.041-0.136-0.074-0.251-0.101-0.342
				c-0.261,0.97-0.474,1.925-0.641,2.866c0.014,0.046,0.028,0.092,0.04,0.137l0.034,0.362l2.456,2.024
				c0.006-0.15-0.02-0.317-0.072-0.499c-0.371-0.584-0.584-0.968-0.638-1.149l-0.005-0.52l-0.114-0.635L234.834,212.993
				 M238.596,204.596c0.3-0.832,0.596-2.01,0.889-3.534c-0.026-0.091-0.031-0.189-0.013-0.294c0.117-0.778,0.209-1.475,0.275-2.088
				c-1.622,3.402-2.992,6.98-4.114,10.731c0.174-0.249,0.356-0.477,0.543-0.68C237.234,207.279,238.04,205.9,238.596,204.596
				 M243.539,191.389c0.15,0.006,0.292-0.013,0.43-0.053c0.502-0.148,0.987-1.109,1.453-2.882
				C244.772,189.438,244.144,190.417,243.539,191.389 M239.543,196.733c-0.391-1.322-0.876-1.376-1.459-0.163
				c-0.162,0.296-0.456,1.149-0.879,2.564c-1.316,2.421-2.189,4.166-2.616,5.233c-0.23,0.564-0.696,2.089-1.398,4.576
				c-0.821,2.919-1.165,4.606-1.03,5.063c0.188,0.639,0.647,0.85,1.376,0.634c0.068,0.229,0.255,0.52,0.557,0.876
				c0.167-0.941,0.38-1.896,0.641-2.866c-0.246-1.165-0.019-2.149,0.688-2.953c0.078-0.072,0.149-0.168,0.212-0.286
				c1.122-3.751,2.492-7.329,4.114-10.731C239.744,197.837,239.68,197.189,239.543,196.733 M237.009,203.505
				c-0.061,0.463-0.212,0.707-0.453,0.728l-0.02-0.068c0.16-0.294,0.303-0.486,0.425-0.572L237.009,203.505 M248.154,171.292
				c-0.432-1.459-0.967-1.35-1.613,0.328c-0.63,1.723-0.892,2.766-0.784,3.13c-0.145,1.183-0.416,2.949-0.814,5.297
				c-0.153,0.987-0.6,3.076-1.342,6.27c-0.571,2.597-0.822,4.009-0.755,4.236l0.23,0.527c0.1,0.168,0.254,0.272,0.463,0.309
				c0.604-0.971,1.233-1.95,1.883-2.935c0.041-0.36,0.116-0.778,0.224-1.256c0.274-1.419,0.583-3.394,0.926-5.923
				c0.46-2.466,0.812-4.379,1.053-5.739C248.045,172.934,248.222,171.519,248.154,171.292 M51.592,361.646
				c0.365-0.107,0.567-0.343,0.61-0.702l-0.837,0.693L51.592,361.646 M51.553,359.502c-0.059-0.033-0.119-0.065-0.178-0.098
				l0.592,0.495C51.822,359.743,51.684,359.61,51.553,359.502 M49.08,357.929c-0.045,0.013-0.085,0.049-0.116,0.108
				c-0.128,0.237-0.166,0.444-0.112,0.627c0.082,0.272,0.228,0.602,0.439,0.984L49.08,357.929 M49.688,357.971
				c-0.295-0.16-0.498-0.174-0.607-0.042l0.211,1.72c0.114,0.216,0.263,0.469,0.448,0.762l-0.071,0.765l0.346,0.417
				c0.245,0.323,0.481,0.453,0.708,0.386l0.35-0.327l0.293-0.013l0.837-0.693c-0.009-0.196-0.053-0.43-0.134-0.703
				c-0.041-0.136-0.074-0.25-0.101-0.342l-0.592-0.495c-0.308-0.204-0.646-0.427-1.014-0.665c-0.119-0.065-0.205-0.188-0.258-0.369
				C50.003,358.2,49.864,358.068,49.688,357.971 M30.842,345.774c0.129-0.235,0.159-0.469,0.092-0.696l-0.061-0.204l-0.069,0.02
				l-0.669,1.758C30.497,346.197,30.732,345.905,30.842,345.774 M33.503,337.926c-0.027-0.091-0.047-0.159-0.061-0.205l-2.14,5.837
				c0.994-1.335,1.611-2.261,1.855-2.779C33.684,339.879,33.8,338.93,33.503,337.926 M28.798,363.255l-0.068,0.02
				c0.164,0.05,0.334,0.124,0.511,0.221C29.096,363.34,28.949,363.259,28.798,363.255 M25.369,361.964
				c-0.638,0.188-0.896,0.487-0.775,0.896c0.027,0.091,0.143,0.231,0.347,0.419c0.013,0.045-0.171,0.595-0.553,1.65
				c-0.051,0.163-0.101,0.327-0.153,0.491c-0.183,0.551-0.248,1.089-0.19,1.617c0.035,0.286,0.093,0.567,0.174,0.841l0.19,0.39
				c0.158,0.202,0.352,0.269,0.58,0.2l2.004-2.524c1.158-0.441,1.788-0.827,1.889-1.154c0.024-0.253,0.101-0.499,0.229-0.736
				c0.155-0.145,0.219-0.263,0.192-0.354c-0.027-0.091-0.047-0.159-0.061-0.204c-0.177-0.097-0.348-0.171-0.511-0.221
				c-0.446-0.166-0.793-0.336-1.043-0.51c-0.295-0.16-0.546-0.259-0.756-0.297c-0.209-0.037-0.321-0.078-0.334-0.124
				c-0.014-0.044-0.049-0.083-0.109-0.116c-0.118-0.064-0.26-0.123-0.422-0.173C25.783,361.94,25.551,361.909,25.369,361.964
				 M27.05,346.523c-0.218-0.232-0.463-0.309-0.737-0.229c-0.182,0.055-0.319,0.343-0.413,0.866
				c-0.075,0.418-0.091,0.696-0.051,0.833c0.027,0.09,0.077,0.175,0.149,0.253L27.05,346.523 M29.811,347.565l-0.077,0.246
				l0.329,1.614l-0.09-1.313C29.906,347.887,29.852,347.703,29.811,347.565 M28.109,344.575l0.02,0.068l0.695-1.171
				C28.508,343.911,28.27,344.28,28.109,344.575 M175.357,326.399c0.196-0.007,0.43-0.053,0.703-0.136
				c0.272-0.079,0.487-0.191,0.644-0.337L175.357,326.399 M174.5,325.762l-0.163-0.549c-0.005,0.151,0.014,0.294,0.054,0.431
				L174.5,325.762 M174.015,318.841c-0.095-0.318-0.253-0.521-0.475-0.603l0.689,1.58L174.015,318.841 M173.54,318.238
				c-0.06-0.033-0.112-0.04-0.157-0.026c-0.301-0.011-0.471,0.336-0.51,1.042l1.576,5.332c0.035,0.286-0.008,0.474-0.132,0.561
				l0.02,0.066l0.163,0.549c0.026,0.09,0.089,0.221,0.188,0.39c0.189,0.141,0.414,0.225,0.669,0.248l1.347-0.473
				c0.063-0.118,0.111-0.207,0.144-0.267c0.161-0.294,0.214-0.533,0.161-0.715c-0.028-0.09-0.107-0.191-0.238-0.302
				c-0.177-0.098-0.301-0.259-0.367-0.486c-0.026-0.092-0.083-0.199-0.169-0.321c-0.059-0.032-0.118-0.064-0.177-0.096
				c-0.251-0.175-0.469-0.16-0.655,0.044l-0.122-0.41c-0.017-0.392-0.128-0.854-0.337-1.388c-0.318-0.747-0.5-1.19-0.54-1.326
				l-0.174-0.842L173.54,318.238 M221.428,291.372c0.338-1.539,0.611-2.71,0.82-3.515c0.274-1.42,0.615-2.61,1.023-3.574
				c1.518-3.918,2.384-6.354,2.598-7.31c0.739-2.696,1.219-4.597,1.436-5.702l-8.829,27.216c0.316-0.438,0.762-1.363,1.335-2.773
				C220.533,293.965,221.072,292.517,221.428,291.372 M224.926,272.272c-0.059,0.811-0.241,1.953-0.548,3.433
				c-0.274,1.419-1.164,3.938-2.672,7.555c-0.639,1.527-1.309,3.956-2.009,7.285c-0.107,0.478-0.679,1.812-1.717,4
				c-0.815,1.777-1.134,2.964-0.958,3.555c0.014,0.047,0.077,0.176,0.19,0.389c0.186,0.294,0.483,0.379,0.893,0.258
				c0.092-0.026,0.216-0.114,0.37-0.259l8.829-27.216c0.113-0.627,0.143-1.033,0.088-1.216c-0.309-1.049-0.799-1.026-1.468,0.063
				C225.291,271,224.959,271.716,224.926,272.272 M228.547,246.297c0.896-3.336,1.184-5.553,0.859-6.646
				c-0.257-0.866-0.656-1.045-1.2-0.538c-0.588,0.522-0.762,1.192-0.52,2.012c-0.145,1.186-0.343,2.282-0.586,3.298
				c-0.291,1.027-0.872,3.255-1.742,6.684c-1.039,2.688-1.978,5.044-2.814,7.076c-1.597,3.99-2.313,6.26-2.151,6.808
				c0.068,0.228,0.168,0.396,0.299,0.505c0.218,0.234,0.485,0.304,0.805,0.209c0.138-0.04,0.425-0.497,0.86-1.369l4.862-18.76
				l-4.862,18.76c0.132-0.387,0.314-0.861,0.544-1.426c0.396-1.008,0.862-2.286,1.396-3.831c0.295-0.683,0.755-1.81,1.379-3.381
				c0.575-1.411,0.927-2.48,1.058-3.213C226.877,251.797,227.481,249.735,228.547,246.297 M233.563,221.769
				c-0.256-0.864-0.704-0.955-1.345-0.271c-0.471,0.585-0.779,1.223-0.923,1.909c-0.07,0.268-0.307,1.305-0.716,3.11
				c-0.778,3.402-1.046,5.513-0.804,6.334c0.055,0.183,0.146,0.329,0.277,0.438c0.243,0.324,0.55,0.433,0.913,0.326
				c0.274-0.081,0.516-0.947,0.722-2.593c0.211-1.797,0.345-2.854,0.402-3.167C233.125,223.981,233.617,221.951,233.563,221.769
				 M271.883,66.966c1.05-3.483,1.509-5.452,1.374-5.908c-0.418-1.414-0.98-1.222-1.688,0.574c-0.633,2.219-1.006,3.469-1.121,3.751
				c-0.248,0.667-0.592,1.686-1.029,3.055c-0.353,1.492-0.638,2.543-0.854,3.152c-0.184,0.549-0.415,2.451-0.692,5.706
				c-0.354,3.326-0.451,5.263-0.289,5.81c0.053,0.183,0.124,0.335,0.21,0.458c0.231,0.279,0.529,0.365,0.895,0.257
				c0.455-0.135,0.793-1.672,1.015-4.612c0.275-4.096,0.433-6.248,0.471-6.458C270.227,72.436,270.798,70.507,271.883,66.966
				 M246.594,148.41c-0.573,0.071-0.856,0.451-0.851,1.144l-0.098,2.184l-0.838,4.708c-0.155,0.988-0.479,2.57-0.977,4.749
				c-0.521,2.087-0.861,3.625-1.015,4.612c-0.723,3.088-1.405,6.065-2.044,8.93c-1.262,5.627-1.749,8.918-1.467,9.875
				c0.026,0.092,0.083,0.199,0.169,0.321l2.259-7.952l-2.259,7.952c0.014,0.047,0.05,0.085,0.108,0.117
				c0.244,0.324,0.55,0.433,0.913,0.325c0.594-0.175,0.974-1.156,1.141-2.939c0.206-2.984,0.435-4.985,0.679-5.999
				c0.177-0.746,0.538-2.291,1.084-4.632c0.46-1.97,0.78-3.478,0.968-4.523c0.205-1.151,0.928-4.239,2.168-9.264
				c1.125-4.744,1.498-7.753,1.121-9.03C247.521,148.531,247.169,148.338,246.594,148.41 M252.236,126
				c0.254-2.156,0.445-3.774,0.572-4.853c0.112-0.627,0.329-1.657,0.648-3.09l-3.24,10.919c0.164,0.051,0.382,0.035,0.656-0.045
				C251.557,128.729,252.01,127.752,252.236,126 M254.787,113.5c0.063-0.118,0.104-0.229,0.123-0.333
				c0.022-0.255,1.16-3.118,3.408-8.589c1.849-4.81,2.674-7.556,2.473-8.24c-0.176-0.592-0.401-0.848-0.674-0.767L254.787,113.5
				 M256.698,103.123c-0.258,0.968-0.813,2.446-1.662,4.433c-0.863,1.939-1.416,3.342-1.657,4.207
				c-0.595,2.01-1.371,5.163-2.331,9.461c-0.979,4.402-1.421,6.764-1.327,7.083c0.013,0.045,0.084,0.198,0.211,0.458
				c0.072,0.078,0.167,0.149,0.285,0.213l3.24-10.919c0.023-0.255,0.069-0.517,0.141-0.785c0.128-0.732,0.526-1.99,1.189-3.772
				l5.33-17.93c-0.137,0.041-0.284,0.134-0.439,0.278c-0.543,0.508-0.907,1.458-1.09,2.85c-0.062,0.464-0.357,1.221-0.89,2.27
				C257.133,102.078,256.802,102.795,256.698,103.123 M182.531,84.085l0.633-3.384c0.521-1.095,0.895-1.924,1.124-2.488
				l-0.021-0.068l-6.13,12.963c0.179,0.096,0.382,0.11,0.608,0.043c0.363-0.108,1.004-1.041,1.923-2.799
				C181.632,86.582,182.252,85.158,182.531,84.085 M182.328,76.86c-0.397,0.167-0.592,0.348-0.584,0.544
				c-0.027,0.404-0.049,0.758-0.059,1.057L182.328,76.86 M182.784,76.65c-0.181,0.054-0.334,0.124-0.456,0.21l-0.643,1.601
				c-0.079,0.569-0.209,1.054-0.389,1.454l-1.436,3.695c-0.288,0.532-0.729,1.728-1.316,3.586c-0.656,1.979-0.956,3.058-0.901,3.24
				c0.053,0.183,0.153,0.351,0.298,0.507c0.059,0.032,0.124,0.087,0.196,0.165l6.13-12.963c0.121-0.432,0.152-0.74,0.1-0.921
				C184.178,76.585,183.651,76.394,182.784,76.65 M239.678,80.5c0.183-0.896,0.251-1.834,0.21-2.813l-1.743,5.421
				C238.93,82.579,239.442,81.709,239.678,80.5 M236.983,83.452c0.104,0.019,0.248,0.001,0.431-0.053
				c0.272-0.081,0.517-0.177,0.73-0.29l1.743-5.421c-0.054-0.183-0.077-0.349-0.073-0.499c-0.004-0.346,0.184-1.393,0.559-3.14
				c0.391-1.701,0.558-2.642,0.504-2.824c-0.647-0.85-1.113-1.084-1.396-0.703L236.983,83.452 M236.261,82.773
				c0.014,0.046,0.085,0.198,0.212,0.458c0.145,0.155,0.314,0.229,0.511,0.221l2.497-12.93c-0.124,0.086-0.228,0.24-0.31,0.463
				c-0.142,0.19-0.206,0.482-0.188,0.874c0.017,0.391-0.022,0.676-0.12,0.853c-0.438,1.369-0.823,2.498-1.153,3.389l-1.503,3.715
				C235.92,80.693,235.938,81.68,236.261,82.773 M95.141,242.392c-0.169,0.099-0.308,0.216-0.417,0.347
				c-0.097,0.177-0.257,0.472-0.482,0.886c-0.316,0.441-0.484,0.713-0.502,0.817l-0.282,2.313c0.026,0.091,0.053,0.183,0.081,0.274
				C94.027,245.497,94.561,243.951,95.141,242.392 M97.037,243.021l-0.021-0.069c-0.441,1.023-0.86,2.039-1.255,3.05
				c0.045-0.015,0.097-0.006,0.156,0.027C96.238,245.934,96.609,244.932,97.037,243.021 M96.917,237.332
				c0.121-0.432,0.263-0.871,0.429-1.316c-0.188,0.203-0.323,0.418-0.406,0.641C96.935,236.807,96.927,237.031,96.917,237.332
				 M97.517,235.594l-0.048,0.088c0.041-0.069,0.067-0.151,0.077-0.245C97.551,235.496,97.541,235.55,97.517,235.594
				 M98.588,232.676c-0.013-0.046-0.044-0.062-0.089-0.049c-0.183,0.054-0.329,0.396-0.441,1.021
				c-0.023,0.257-0.054,0.489-0.091,0.696C98.15,233.795,98.357,233.239,98.588,232.676 M106.898,217.282l-0.02-0.068
				c-0.296,0.957-0.63,1.922-1.002,2.899l0.068-0.021C106.263,219.156,106.581,218.22,106.898,217.282 M104.938,215.931
				c-0.064,0.117-0.144,0.266-0.241,0.442c-0.251,0.322-0.389,0.611-0.413,0.865c-0.029,0.405-0.583,1.635-1.661,3.688
				c-0.923,1.907-1.344,2.999-1.263,3.271c0.041,0.137,0.142,0.231,0.306,0.281C102.724,221.689,103.815,218.839,104.938,215.931
				 M105.848,213.729l-0.069,0.02c-0.257,0.472-0.415,0.94-0.477,1.405C105.455,214.662,105.636,214.188,105.848,213.729
				 M110.292,203.866c-0.068-0.229-0.16-0.375-0.278-0.439c-1.444,3.499-2.833,6.934-4.166,10.301
				c-0.212,0.459-0.394,0.934-0.545,1.425c-0.064,0.124-0.1,0.259-0.104,0.402c-0.032,0.059-0.119,0.184-0.261,0.375
				c-1.123,2.908-2.213,5.759-3.271,8.549c0.059,0.032,0.134,0.035,0.226,0.009l0.04,0.137l-0.048,0.087
				c-0.439,0.526-0.801,1.229-1.087,2.107c-0.107,0.476-0.273,1.171-0.5,2.08c-0.786,1.868-1.297,3.158-1.532,3.872
				c-0.072-0.078-0.131-0.11-0.176-0.096c-0.23,0.563-0.438,1.119-0.622,1.669c-0.07,0.269-0.121,0.434-0.152,0.492
				c-0.031,0.06-0.041,0.112-0.027,0.157l-0.077,0.245l-0.069,0.021c-0.005,0.05-0.015,0.103-0.027,0.157l-0.068,0.02
				c-0.01,0.094-0.036,0.176-0.077,0.245l-0.124,0.334c-0.166,0.445-0.308,0.885-0.429,1.316c-0.037,0.21-0.067,0.442-0.091,0.695
				c-0.038,0.209-0.211,0.633-0.518,1.269c-0.157,0.643-0.133,1.058,0.07,1.242c-0.36-0.042-0.583,0.124-0.671,0.497
				c-0.083,0.223-0.155,0.567-0.216,1.03c-0.124,0.087-0.24,0.195-0.35,0.326c-0.58,1.56-1.114,3.105-1.603,4.638
				c0.011,0.541-0.207,1.398-0.653,2.57c-0.248,0.669-0.52,1.344-0.813,2.026l0.128,0.184c0.041,0.138,0.175,0.172,0.403,0.104
				c0.319-0.095,0.63-0.384,0.932-0.87c0.18-0.399,0.342-0.77,0.49-1.111c0.101-0.327,0.202-0.654,0.304-0.982
				c0.44-1.863,0.841-2.851,1.207-2.959c0.045-0.013,0.121-0.01,0.226,0.01c0.395-1.011,0.813-2.026,1.255-3.05
				c-0.014-0.044-0.004-0.098,0.028-0.156c0.418-2.106,0.644-3.188,0.675-3.247c0.552-1.154,0.985-2.199,1.303-3.137
				c0.185-0.55,0.36-1.047,0.525-1.492c0.555-0.808,1.85-3.72,3.886-8.732c0.539-1.198,1.196-2.83,1.973-4.894
				c0.147-0.342,0.278-0.653,0.394-0.935c0.032-0.059,0.064-0.118,0.096-0.177c0.01-0.028,0.003-0.051-0.02-0.068
				c0.372-0.978,0.706-1.942,1.002-2.899l-0.02-0.066c0.443-1.52,0.725-2.495,0.845-2.927c0.277-1.074,0.486-1.878,0.624-2.415
				c0.335-0.544,0.569-1.01,0.703-1.397c0.138-0.537,0.44-1.443,0.905-2.721c0.006-0.15,0.121-0.432,0.346-0.845l0.047-0.089
				c0.448-1.669,0.942-3.351,1.481-5.047C111.432,201.769,110.926,202.488,110.292,203.866 M106.542,212.556l0.213-0.286
				c-0.064,0.118-0.131,0.311-0.2,0.58C106.528,212.759,106.523,212.661,106.542,212.556 M105.896,216.911l0.021,0.067l0.013,0.294
				l-0.227-0.008l0.069-0.02L105.896,216.911 M98.726,233.898c-0.005,0.149-0.003,0.322,0.005,0.519l-0.049,0.088
				c-0.032,0.06-0.041,0.111-0.028,0.157c-0.124,0.085-0.202,0.157-0.233,0.219c0.083-0.224,0.168-0.522,0.256-0.894
				C98.665,233.941,98.681,233.91,98.726,233.898 M110.014,203.427c-0.06-0.033-0.134-0.035-0.226-0.008
				c-0.274,0.081-0.711,0.781-1.313,2.099c-0.533,1.049-0.941,2.013-1.227,2.89c-0.487,1.036-0.725,1.826-0.713,2.367
				c-0.019,0.104-0.221,0.511-0.605,1.22c-0.385,0.708-0.551,1.154-0.497,1.337l0.129,0.184c0.086,0.124,0.181,0.194,0.286,0.213
				C107.181,210.361,108.57,206.926,110.014,203.427 M112.245,202.173c-0.107-0.364-0.253-0.52-0.436-0.466
				c-0.54,1.696-1.033,3.378-1.481,5.047c0.198-0.504,0.499-1.164,0.903-1.977C111.96,203.223,112.299,202.355,112.245,202.173z"/>
			<path fill="#A08057" d="M51.365,361.638l-0.293,0.013l-0.35,0.327c-0.228,0.067-0.464-0.063-0.708-0.386l-0.346-0.417
				l0.071-0.765c-0.186-0.293-0.334-0.546-0.448-0.762l0.472,3.355L51.365,361.638 M52.068,360.241
				c0.081,0.273,0.125,0.507,0.134,0.703l0.397-0.415l-0.633-0.63C51.994,359.991,52.027,360.105,52.068,360.241 M49.08,357.929
				c0.11-0.132,0.313-0.118,0.607,0.042c0.177,0.098,0.315,0.229,0.415,0.399c0.054,0.181,0.139,0.304,0.258,0.369
				c0.368,0.238,0.706,0.461,1.014,0.665l-2.47-2.318L49.08,357.929 M49.763,363.004l0.033,0.362l0.105,0.86
				c1.405-1.952,2.576-2.94,3.509-2.97l-0.81-0.728l-0.397,0.415c-0.043,0.359-0.246,0.595-0.61,0.702l-0.227-0.009L49.763,363.004
				 M23.738,370.027l-0.234,2.227c4.233-7.645,8.034-8.867,11.404-3.669c-0.694-1.678-2.318-3.23-4.87-4.656L23.738,370.027
				 M24.218,367.879c-0.081-0.273-0.139-0.555-0.174-0.841l-0.306,2.989l6.301-6.099c-0.295-0.162-0.562-0.305-0.798-0.434
				c0.013,0.045,0.033,0.113,0.061,0.204c0.026,0.092-0.037,0.21-0.192,0.354c-0.128,0.237-0.205,0.483-0.229,0.736
				c-0.101,0.327-0.73,0.713-1.889,1.154l-2.004,2.524c-0.228,0.068-0.422,0.002-0.58-0.2L24.218,367.879 M26.597,362.344
				c0.013,0.046,0.125,0.087,0.334,0.124c0.209,0.038,0.46,0.137,0.756,0.297c0.25,0.174,0.597,0.344,1.043,0.51
				c-0.708-0.386-1.457-0.735-2.243-1.047C26.547,362.261,26.583,362.3,26.597,362.344 M24.593,362.86
				c-0.121-0.409,0.138-0.708,0.775-0.896c0.183-0.055,0.415-0.023,0.696,0.091c-0.459-0.211-0.934-0.393-1.424-0.545l-0.406,3.911
				c0.052-0.164,0.102-0.328,0.153-0.491c0.382-1.056,0.566-1.605,0.553-1.65C24.736,363.092,24.62,362.951,24.593,362.86
				 M30.272,353.154c-0.182,0.055-0.325,0.071-0.429,0.053l1.196,1.281l-0.339-1.906C30.688,352.881,30.547,353.073,30.272,353.154
				 M28.396,351.329c-0.204-0.187-0.339-0.395-0.407-0.623c-0.04-0.136-0.242-0.399-0.604-0.786l-0.193,0.354l1.958,2.099
				c-0.086-0.124-0.15-0.254-0.19-0.391C28.906,351.798,28.719,351.582,28.396,351.329 M30.083,349.493
				c-0.037,0.209-0.128,0.657-0.271,1.344c0.067,0.229,0.335,0.718,0.806,1.472L30.083,349.493 M29.811,347.565l0.201-0.579
				l-0.069,0.021C29.814,347.242,29.771,347.43,29.811,347.565 M176.771,324.644c0.131,0.11,0.21,0.212,0.238,0.302
				c0.053,0.182,0,0.421-0.161,0.715c-0.032,0.06-0.08,0.148-0.144,0.267l1.601-0.622c-0.65-0.354-1.341-0.842-2.07-1.469
				c0.086,0.122,0.143,0.229,0.169,0.321C176.47,324.385,176.594,324.546,176.771,324.644 M174.403,320.66
				c0.04,0.136,0.222,0.579,0.54,1.326c0.209,0.533,0.32,0.996,0.337,1.388l0.122,0.41c0.187-0.204,0.404-0.219,0.655-0.044
				c-0.073-0.078-0.14-0.134-0.197-0.166l-1.631-3.756L174.403,320.66 M173.54,318.238l-2.442-5.746l3.22,12.654
				c0.124-0.087,0.167-0.274,0.132-0.561l-1.576-5.332c0.039-0.706,0.209-1.053,0.51-1.042
				C173.428,318.198,173.48,318.205,173.54,318.238 M174.633,326.465l-0.096,0.177l0.82-0.242c-0.255-0.023-0.479-0.107-0.669-0.248
				c-0.1-0.169-0.162-0.3-0.188-0.39L174.633,326.465 M174.537,326.642l-0.222,0.511l4.786-1.414
				c-0.281-0.114-0.547-0.26-0.797-0.434l-1.601,0.622c-0.156,0.146-0.371,0.258-0.644,0.337c-0.273,0.083-0.507,0.129-0.703,0.136
				L174.537,326.642 M100.082,349.394l-6.745,1.324l-6.245,2.516l0.137-0.04l12.648-3.739
				C99.923,349.44,99.991,349.42,100.082,349.394 M93.337,350.718l-2.91-9.843L93.337,350.718l6.745-1.324
				c25.833-6.497,44.912-11.615,57.236-15.358l-1.939-6.563l1.939,6.563c10.457-3.19,16.074-5.396,16.854-6.616l0.076-0.247
				l0.067-0.02l0.222-0.511l0.096-0.177l-0.133-0.703l-0.109-0.118c-0.04-0.137-0.059-0.279-0.054-0.431l-0.02-0.066l-3.22-12.654
				l-0.182-0.614l0.182,0.614l2.442,5.746c0.222,0.082,0.38,0.284,0.475,0.603l0.215,0.978l1.631,3.756
				c0.058,0.032,0.124,0.088,0.197,0.166c0.059,0.031,0.118,0.063,0.177,0.096c0.729,0.627,1.42,1.115,2.07,1.469
				c0.25,0.174,0.516,0.319,0.797,0.434c3.137-0.283,6.318-0.754,9.545-1.409l13.741-4.062c0.681-1.392-0.344-4.854-3.071-10.392
				c2.728,5.537,3.752,9,3.071,10.392l14.705-5.835l-5.587-17.897c-13.557,3.264-34.647,8.951-63.275,17.066l3.012,10.187
				l-3.012-10.187c-5.268,1.459-10.78,3.015-16.536,4.666l4.339,7.639l-4.339-7.639c-2.155,0.588-4.328,1.204-6.515,1.851
				c-1.413,0.418-2.826,0.835-4.239,1.253l3.515,10.634l-3.515-10.634c-14.078,4.013-26.714,7.624-37.908,10.834l1.96,6.633
				l-1.96-6.633c-9.051,2.576-17.145,4.871-24.283,6.882c1.798,2.392,4.236,7.122,7.318,14.191c-3.082-7.069-5.52-11.8-7.318-14.191
				c-12.497,3.495-22.076,6.128-28.738,7.899l-0.201,0.579c0.041,0.138,0.095,0.321,0.162,0.548l0.09,1.313l0.021,0.067l0.535,2.815
				c0.027,0.091,0.054,0.183,0.082,0.273l0.339,1.906l-1.196-1.281c-0.282-0.115-0.513-0.394-0.693-0.835l-1.958-2.099l-0.068,0.021
				c-6.272,0.912-11.309,1.98-15.11,3.203l-0.461,0.953l4.408,10.889l-4.408-10.889l0.461-0.953
				c-2.753,0.913-4.84,1.901-6.261,2.964l8.796,18.439l8.957-2.646l0.234-2.227l0.306-2.989c-0.057-0.528,0.008-1.066,0.19-1.617
				l0.406-3.911c0.491,0.152,0.965,0.334,1.424,0.545c0.163,0.05,0.305,0.108,0.422,0.173c0.786,0.312,1.534,0.661,2.243,1.047
				l0.068-0.02c0.15,0.004,0.298,0.085,0.443,0.24c0.236,0.129,0.502,0.271,0.798,0.434c2.552,1.426,4.176,2.979,4.87,4.656
				l14.944-4.27l0.068-0.021l-0.02-0.068l-0.105-0.86l-0.033-0.362l-0.472-3.355c-0.212-0.383-0.358-0.712-0.439-0.984
				c-0.054-0.183-0.016-0.39,0.112-0.627c0.031-0.06,0.071-0.096,0.116-0.108l-0.175-0.843l2.47,2.318
				c0.059,0.032,0.119,0.064,0.178,0.098c0.131,0.108,0.27,0.241,0.414,0.397l0.633,0.63l0.81,0.728
				c0.678-0.052,1.248,0.449,1.708,1.502l8.135-2.404l-3.354-11.349l3.354,11.349l15.91-4.777l-4.622-11.865l4.622,11.865
				l7.93-2.344L93.337,350.718 M105.265,329.202l3.961,13.399C106.965,338.81,105.645,334.343,105.265,329.202 M185.863,306.864
				l3.101,8.229L185.863,306.864 M134.967,339.898l-1.738-5.879L134.967,339.898 M209.62,304.747l3.103,8.228L209.62,304.747
				 M109.226,342.602l-3.961-13.399C105.645,334.343,106.965,338.81,109.226,342.602z"/>
		</g>
	</g>
	<g>
		<path id="Layer0_0_1_STROKES" fill="none" stroke="#000000" stroke-width="2" stroke-linecap="round" stroke-linejoin="round" d="
			M239.48,70.522l0.23-1.48c-0.968-1.597-1.867-3.884-2.697-6.86l-51.698,13.721l-0.635,1.377 M178.138,91.108l-7.485,15.668
			l11.033-28.314 M182.328,76.86l0.104-0.403l-42.045,12.429l-20.814,33.956l-31.586,68.437 M239.888,77.688l1.902-6.139
			c-0.748-0.522-1.442-1.358-2.079-2.507 M236.983,83.452l-1.59,8.202l2.751-8.545l1.743-5.421 M239.48,70.522l-2.497,12.93
			 M184.681,77.279l-0.413,0.866 M181.686,78.461l0.643-1.601 M184.268,78.145l-6.13,12.963 M261.399,77.276l4.997-16.792
			l-6.354,3.143l-9.846,2.91c-3.181,5.004-5.982,6.675-8.406,5.013 M254.936,98.664l-2.243,7.501l-5.059,16.587l-3.398,24.719
			 M242.287,161.503l-0.314,1.951l-4.542,17.326 M234.108,193.434l-2.255,8.471c-0.237,1.707-0.681,3.399-1.325,5.076l-4.32,20.084
			c-0.045,0.854-0.269,1.938-0.676,3.248l-4.434,20.714 M212.604,291.451l5.417-25.687 M226.157,282.354l0.016-0.079l0.038-0.123
			 M226.286,281.906l4.171-15.06l7.658-43.003 M234.167,216.016l-0.199-0.165c0.02-0.104,0.062-0.216,0.125-0.334 M239.747,198.68
			c1.138-2.517,2.402-4.948,3.792-7.292 M245.422,188.454c0.844-1.34,1.768-2.654,2.774-3.944
			c-0.422-5.276,0.261-11.103,2.044-17.479 M256.625,140.091l0.049-0.088 M256.749,139.758c5.124-24.412,11.722-49.705,19.795-75.88
			c-1.339-3.023-2.188-4.804-2.546-5.343c-0.741-1.169-1.514-1.436-2.317-0.801l-0.425,1.835l-6.688,24.651 M250.642,165.872
			l0.104-0.402c0.101-0.327,0.207-0.632,0.323-0.913c0.292-0.854,0.586-1.709,0.878-2.564c0.222-0.759,0.489-1.532,0.803-2.319
			c1.028-5.904,2.195-11.849,3.499-17.834c0.078-0.321,0.157-0.641,0.236-0.963c0.023-0.254,0.077-0.493,0.16-0.716l-0.021-0.069
			 M256.674,140.003c0.017-0.099,0.043-0.18,0.075-0.246 M271.256,59.568l-2.884,0.555l-0.068,0.02 M254.936,98.664l6.464-21.388
			 M268.304,60.143l-1.907,0.34 M114.925,128.75l-16.253,32.534c-4.508,8.221-12.343,19.187-23.506,32.893
			c-5.659,20.258-11.983,39.102-18.973,56.531L30.19,301.066L5.752,356.461 M119.572,122.842l-4.647,5.908 M100.082,349.394
			l0.772-0.155 M86.497,353.482l-7.045,2.827l-16.159,4.183l-8.067,2.384l-1.816-1.619 M49.901,364.227l0.02,0.068l0.054,0.432
			l-15.066,3.858 M23.504,372.254l-8.957,2.646c-4.478-4.921-7.41-11.068-8.796-18.439 M87.092,353.233l6.245-2.516l-2.91-9.843
			 M93.337,350.718l6.745-1.324 M157.318,334.035l-1.939-6.563 M211.506,296.535l1.098-5.084 M218.021,265.765l3.078-14.737
			 M174.315,327.152l0.222-0.511l0.096-0.177l-0.133-0.703 M174.317,325.146l-3.22-12.654l-0.182-0.614 M171.098,312.492
			l2.442,5.746 M174.229,319.818l1.631,3.756c0.058,0.032,0.124,0.088,0.197,0.166c0.059,0.031,0.118,0.063,0.177,0.096
			c0.729,0.627,1.42,1.115,2.07,1.469c0.25,0.174,0.516,0.319,0.797,0.434 M188.646,324.329l13.741-4.062
			c0.681-1.392-0.344-4.854-3.071-10.392 M173.54,318.238l0.689,1.58 M176.704,325.927l1.601-0.622 M174.5,325.762l-0.163-0.549
			 M174.537,326.642l0.82-0.242l1.347-0.473 M179.102,325.738c1.227,0.629,2.335,0.772,3.323,0.43l6.222-1.839 M26.065,362.055
			c-0.459-0.211-0.934-0.393-1.424-0.545l-0.406,3.911c-0.183,0.551-0.248,1.089-0.19,1.617 M28.73,363.274
			c0.164,0.05,0.334,0.124,0.511,0.221 M26.065,362.055c0.163,0.05,0.305,0.108,0.422,0.173 M23.504,372.254l0.234-2.227
			l0.306-2.989 M29.241,363.495c0.236,0.129,0.502,0.271,0.798,0.434c2.552,1.426,4.176,2.979,4.87,4.656 M23.738,370.027
			l6.301-6.099 M26.487,362.228c0.786,0.312,1.534,0.661,2.243,1.047 M49.901,364.227l-0.105-0.86l-0.033-0.362l-0.472-3.355
			 M49.08,357.929l-0.175-0.843l2.47,2.318 M51.967,359.899l0.633,0.63l0.81,0.728 M63.252,360.354l-3.354-11.349 M51.375,359.404
			l0.592,0.495 M52.202,360.944l0.397-0.415 M49.291,359.648l-0.211-1.72 M49.763,363.004l1.603-1.366l0.837-0.693 M63.293,360.492
			l-0.041-0.138 M79.162,355.577l-4.622-11.865 M86.497,353.482l0.595-0.249 M157.541,334.788l15.452-4.566l0.757-1.712
			 M157.318,334.035l0.223,0.753l-33.909,10.024l-22.778,4.426 M79.452,356.31l-0.29-0.732 M173.75,328.51l0.565-1.357
			 M250.24,167.031c0.133-0.386,0.27-0.772,0.401-1.159 M242.287,161.503l1.948-14.032 M234.108,193.434l3.322-12.654
			 M243.539,191.389c0.604-0.971,1.233-1.95,1.883-2.935 M236.623,218.04l2.171,1.812l-0.679,3.992 M226.211,282.151l0.075-0.245
			 M235.633,209.411c-0.336,1.042-0.635,2.122-0.899,3.239c-0.261,0.97-0.474,1.925-0.641,2.866 M236.623,218.04l-2.456-2.024
			 M235.633,209.411c1.122-3.751,2.492-7.329,4.114-10.731 M226.157,282.354l-9.064,32.079l-14.705,5.835"/>
	</g>
	<g>
		<path id="Layer0_0_2_STROKES" fill="none" stroke="#000000" stroke-linecap="round" stroke-linejoin="round" d="M260.657,93.627
			l-0.54,1.944 M253.457,118.057l1.33-4.557l5.33-17.93 M250.217,128.977l-0.533,1.719 M239.475,184.933l-5.886,20.327
			 M253.457,118.057l-3.24,10.919 M212.536,93.801l-13.464,39.961 M192.891,81.916l-8.404,25.38 M177.27,159.088l19.419-59.042
			 M12.013,353.497l8.59-16.963 M108.528,184.315l17.543-45.776 M110.228,207.044c-0.097,0.302-0.19,0.614-0.28,0.938l-0.353,1.07
			c-0.47,1.427-0.934,2.877-1.39,4.352l-0.629,1.895 M95.762,246.001c-0.557,1.302-1.135,2.614-1.736,3.932
			c-0.148,0.342-0.311,0.712-0.49,1.111c-1.433,3.2-2.928,6.439-4.484,9.726c1.401-4.478,2.898-9.059,4.488-13.74 M95.141,242.392
			l1.326-3.813c0.12-0.432,0.27-0.848,0.449-1.247 M97.345,236.016l0.134-0.299 M97.59,235.46l0.024-0.043
			c0.012-0.055,0.022-0.107,0.027-0.157 M98.588,232.676c0.98-2.719,2.007-5.45,3.078-8.196 M104.938,215.931
			c0.112-0.276,0.234-0.535,0.365-0.777 M110.014,203.427c1.181-2.877,2.402-5.79,3.661-8.739c-0.606,2.31-1.228,4.65-1.866,7.019
			 M110.014,203.427c-1.444,3.499-2.833,6.934-4.166,10.301c-0.212,0.459-0.394,0.934-0.545,1.425 M101.666,224.479
			c1.058-2.79,2.149-5.641,3.271-8.549 M98.588,232.676c-0.23,0.563-0.438,1.119-0.622,1.669c-0.07,0.269-0.121,0.434-0.152,0.492
			c-0.031,0.06-0.041,0.112-0.027,0.157l-0.077,0.245l-0.069,0.021 M107.576,215.298c-0.263,0.624-0.495,1.262-0.698,1.916
			 M110.328,206.754l-0.047,0.089c-0.017,0.068-0.034,0.135-0.053,0.201 M111.81,201.707c-0.54,1.696-1.033,3.378-1.481,5.047
			 M132.153,238.589l10.618-38.525 M153.64,196.851l-7.891,43.219 M97.479,235.717c0.034-0.094,0.071-0.18,0.11-0.257
			 M96.917,237.332c0.121-0.432,0.263-0.871,0.429-1.316 M97.017,242.951c3.227-7.692,6.155-15.223,8.784-22.593
			c0.032-0.059,0.064-0.118,0.096-0.177c0.01-0.028,0.015-0.053,0.014-0.078c0.349-0.971,0.672-1.933,0.968-2.89 M93.539,247.029
			c0.489-1.532,1.022-3.078,1.603-4.638 M97.017,242.951c-0.441,1.023-0.86,2.039-1.255,3.05 M81.314,302.755l18.029-47.405
			c4.784-6.618,7.764-13.72,8.942-21.304 M105.265,329.202l3.961,13.399C106.965,338.81,105.645,334.343,105.265,329.202z
			 M131.694,318.268l-1.424-2.552c6.489-29.523,9.904-45.799,10.249-48.825 M120.94,321.371l3.515,10.634 M131.694,318.268
			l4.339,7.639 M148.009,312.85l0.222,0.752l3.012,10.187 M185.863,306.864l3.101,8.229 M144.489,310.247l8.855-31.908
			 M120.671,256.329l17.222-54.156 M114.477,319.12c7.34-11.885,13.086-27.907,17.238-48.064l8.854-27.893 M103.842,312.822
			l19.194-50.501 M62.564,253.657l-9.805,26.687 M28.824,343.473L30.397,341l0.853-1.517l0.024-0.044l4.164-7.291l-1.996,5.572
			 M31.302,343.558l-0.498,1.336 M30.136,346.651l-0.124,0.335 M58.75,339.087c-0.462-0.557-0.861-0.986-1.196-1.282
			c5.523-19.374,12.33-38.264,20.421-56.663 M28.129,344.644l-1.079,1.88l-1.052,1.724 M29.811,347.565l-0.077,0.246l0.329,1.614
			 M30.012,346.986l-0.201,0.579 M25.689,348.71l0.309-0.463 M29.843,353.207c-0.282-0.115-0.513-0.394-0.693-0.835 M30.618,352.309
			c0.027,0.091,0.054,0.183,0.082,0.273 M30.063,349.426l0.021,0.067 M12.013,353.497l-0.461,0.953l4.408,10.889 M25.689,348.71
			l1.502,1.563l1.958,2.099 M28.129,344.644l0.695-1.171 M30.7,352.582l0.339,1.906l-1.196-1.281 M30.083,349.493l0.535,2.815
			 M30.805,344.894l-0.669,1.758 M33.442,337.721l-2.14,5.837 M89.589,304.844l-7.163,25.311l0.606,2.051 M58.75,339.087
			c1.798,2.392,4.236,7.122,7.318,14.191 M83.033,332.205l1.96,6.633 M51.803,272.077l-18.192,50.874 M60.836,281.004l-9.31,24.088
			 M134.967,339.898l-1.738-5.879 M71.951,262.776l-17.402,51.532 M235.678,168.065l-6.223,18.937 M241.733,176.981l-2.259,7.952
			 M177.555,232.229c4.633-8.803,10.535-23.879,17.704-45.228c3.005-16.996,7.423-33.739,13.253-50.232 M222.356,264.334
			l-3.162,11.937 M227.886,269.464l-0.581,1.808 M227.219,245.574l-4.862,18.76 M218.476,298.487l-0.497,1.338 M209.62,304.747
			l3.103,8.228 M227.305,271.271l-8.829,27.216 M198.78,288.697l15.108-63.565 M158.629,212.473l9.838-27.588
			c0.55-12.553,3.426-25.792,8.627-39.721 M155.606,131.073l-10.554,31.443 M151.521,129.827l-7.688,20.263 M148.419,91.418
			l-9.551,23.267 M178.003,301.902l12.687-48.874 M166.627,256.126l11.809-52.853 M166.369,117.186
			c0.735,6.177-6.253,29.9-20.964,71.171 M122.319,181.428l25.502-62.104 M83.354,237.475l15.565-38.127 M191.81,144.903
			c-0.473,23.383-5.579,40.727-15.321,52.033c-0.979-12.2,2.427-26.663,10.22-43.389c-0.243,11.075-2.727,20.953-7.446,29.634
			 M236.96,101.227l-33.265,115.32 M257.479,121.105l-11.217,43.534"/>
	</g>
	<g>
		<path id="Layer0_0_3_STROKES" fill="none" d="M174.337,325.213l-0.02-0.066"/>
	</g>
</g>
</svg>
