<?xml version="1.0" encoding="utf-8"?>
<!-- Generator: Adobe Illustrator 16.0.0, SVG Export Plug-In . SVG Version: 6.00 Build 0)  -->
<!DOCTYPE svg PUBLIC "-//W3C//DTD SVG 1.1//EN" "http://www.w3.org/Graphics/SVG/1.1/DTD/svg11.dtd">
<svg version="1.1" id="Layer_1" xmlns="http://www.w3.org/2000/svg" xmlns:xlink="http://www.w3.org/1999/xlink" x="0px" y="0px"
	 width="900px" height="450px" viewBox="0 0 900 450" enable-background="new 0 0 900 450" xml:space="preserve">
<g>
	<g transform="matrix( 1, 0, 0, 1, 0,0) ">
		<g>
			<g id="Layer5_0_FILL">
				<path fill="#9762A6" d="M316.137,370.07c-0.405-0.474-0.913-0.947-1.522-1.422c-2.368,1.152-6.496,8.393-12.385,21.725
					c15.16,9.677,30.86,17.935,47.102,24.769L338.064,398.9l11.267,16.241c29.506,12.384,60.806,20.166,93.898,23.348
					C393.489,423.602,351.125,400.793,316.137,370.07 M316.137,370.07c-0.067-1.422-0.575-1.896-1.522-1.422
					C315.224,369.123,315.731,369.597,316.137,370.07 M259.189,302.465l9.847,17.865l-3.553,29.945
					c2.707,5.617,6.361,9.882,10.963,12.79l14.008-18.575l5.076,30.351l-5.076-30.351l-14.008,18.575
					c1.354,5.482,3.486,10.423,6.395,14.82c3.181,4.332,9.644,8.494,19.388,12.487c5.889-13.332,10.017-20.572,12.385-21.725
					c-8.392-7.714-16.41-15.801-24.059-24.261C279.188,331.53,268.731,317.555,259.189,302.465 M259.189,302.465l-0.812-0.407
					l-9.136,25.073c2.91,2.843,6.97,5.787,12.181,8.832c0.879,5.415,2.232,10.185,4.061,14.313l3.553-29.945l-5.482,15.937
					l5.482-15.937L259.189,302.465 M234.624,219.326l-4.974-1.218L234.624,219.326c-3.722-10.489-8.595-26.426-14.618-47.811
					c-5.549,7.376-7.173,17.966-4.873,31.772c-3.78,10.059-5.269,20.109-4.466,30.149l9.237-7.005l-9.237,7.005
					c0.033,0.383,0.066,0.754,0.101,1.116c-3.452,8.595-1.049,18.238,7.207,28.931l0.203,0.407l11.776-10.965l-11.776,10.965
					l-0.508,0.507c-0.135,0.339-0.304,0.677-0.507,1.016c-2.098,8.188,1.692,16.376,11.37,24.564
					c-0.136,0.676-0.204,1.354-0.204,2.03l11.167-14.921l-11.167,14.921c-0.203,9.205,5.042,16.887,15.734,23.044
					c-0.541,3.993,1.185,8.019,5.178,12.079l9.136-25.073l0.101-0.813c-1.692-2.773-3.452-5.718-5.278-8.831l-8.73,20.201
					l8.73-20.201c-0.068-0.135-0.169-0.237-0.305-0.305c-14.82-25.782-26.934-54.578-36.341-86.386
					c9.407,31.808,21.521,60.604,36.341,86.386c0.136,0.067,0.237,0.17,0.305,0.305c1.827,3.113,3.586,6.058,5.278,8.831
					l0.102-0.102l0.609,1.321c9.542,15.09,19.998,29.065,31.366,41.923c7.648,8.46,15.667,16.547,24.059,24.261
					c0.948-0.474,1.455,0,1.522,1.422l1.117-1.522l-1.117,1.522c34.988,30.723,77.352,53.531,127.092,68.419
					c0.203,0.271,2.03,0.981,5.482,2.132c3.52,1.284,7.105,0.067,10.76-3.654C342.125,385.872,267.175,313.325,234.624,219.326
					 M335.729,370.578l-14.82-3.248L335.729,370.578 M233.405,137.306c-7.642,10.957-12.109,22.36-13.399,34.209
					c6.023,21.385,10.896,37.322,14.618,47.811l22.333,4.873l-22.333-4.873c32.551,93.999,107.501,166.546,224.847,217.641
					c2.165,0.541,7.748,0.608,16.749,0.202c8.935-0.271,18.374-3.722,28.322-10.354c-14.211,2.232-38.742-7.038-73.595-27.814
					c-34.717-20.776-68.148-47.948-100.294-81.515c-32.213-33.498-54.816-68.722-67.809-105.672
					c-11.37-32.686-14.415-63.174-9.136-91.461c1.735-9.339,4.306-18.408,7.715-27.205c-0.817,1.682-4.979,6.013-12.486,12.994
					C241.415,113.185,236.238,123.573,233.405,137.306l17.664,61.414L233.405,137.306 M243.049,196.689l-14.617-3.147
					L243.049,196.689 M285.583,266.731l-32.586-11.166L285.583,266.731 M272.69,245.212l-29.337-10.151L272.69,245.212
					 M341.109,340.43l-27.51-2.234L341.109,340.43 M361.716,358.599l-27.712,0.204L361.716,358.599 M321.212,317.59l-30.657-4.671
					L321.212,317.59 M242.542,176.488l-18.78-4.973L242.542,176.488 M304.058,296.78l-29.946-9.441L304.058,296.78 M418.156,399.609
					l-18.069,1.116L418.156,399.609 M402.523,385.297l-18.272,4.771L402.523,385.297 M386.484,373.217l-27.712,0.204
					L386.484,373.217 M261.625,92.844c-0.049,0.126-0.118,0.227-0.202,0.304c-3.409,8.797-5.98,17.866-7.715,27.205l9.44,19.998
					l-9.44-19.998c-5.279,28.287-2.233,58.775,9.136,91.461c12.993,36.951,35.596,72.174,67.809,105.672
					c32.146,33.566,65.577,60.738,100.294,81.515c34.853,20.776,59.384,30.047,73.595,27.814c8.256-0.204,14.075-2.369,17.459-6.497
					c-19.559-3.791-43.953-14.449-73.189-31.976c-33.499-19.966-64.831-45.546-93.999-76.742
					c-33.567-36.138-56.847-72.65-69.841-109.531c-9.88-28.22-13.264-56.846-10.151-85.878l-7.918-2.03l7.918,2.03
					c1.896-15.836,5.752-32.179,11.573-49.031C275.431,71.019,267.175,79.579,261.625,92.844 M288.018,224.91l-18.474-12.283
					L288.018,224.91 M327.405,290.283l-26.088-12.994L327.405,290.283 M366.081,330.176l-18.881-4.871L366.081,330.176
					 M399.072,360.021l-16.75-0.508L399.072,360.021 M277.461,188.162L259.9,165.626L277.461,188.162 M448.609,390.88l-33.499-6.598
					L448.609,390.88 M467.084,403.163h-10.658H467.084 M344.052,31.531c0.745-0.338,1.456-0.677,2.132-1.015
					c-0.609,0.067-1.32,0.237-2.132,0.507C344.12,31.158,344.12,31.328,344.052,31.531 M295.834,59.04
					c0.204-0.203,0.373-0.406,0.508-0.609l-0.812-0.711C295.598,58.194,295.7,58.634,295.834,59.04 M403.233,59.853
					c10.219-9.339,20.235-17.596,30.048-24.769c-23.28-9.068-52.312-10.591-87.097-4.568c-0.677,0.338-1.388,0.677-2.132,1.015
					c-1.218,19.354,5.753,41.552,20.912,66.591C378.295,83.64,391.052,70.883,403.233,59.853
					c-13.399-8.595-31.367-8.832-53.902-0.71C371.867,51.021,389.834,51.258,403.233,59.853 M408.715,34.576l-17.664,18.272
					L408.715,34.576 M376.13,39.043l-9.238,8.831L376.13,39.043 M631.024,306.524c0.135,2.37,0,6.125-0.406,11.268
					c-0.271,4.738-0.271,8.323,0,10.76l10.355-12.688l-10.355,12.688c0.137,1.759,0.236,4.366,0.306,7.817
					c0,3.181,0.135,5.65,0.406,7.409l11.47-12.383l-11.47,12.383c0.337,2.302,0.676,6.834,1.015,13.604l14.212-11.674
					l-14.212,11.674c0.067,0.745,1.456,6.36,4.162,16.851l8.527-14.922l-8.527,14.922c2.369,8.459,5.21,16.073,8.527,22.84
					l8.018-12.992l-8.018,12.992c1.284,2.91,2.875,5.787,4.771,8.628c11.233,16.985,28.456,25.614,51.669,25.886
					c6.43-1.016,9.136-5.954,8.121-14.82c-21.387,1.217-37.425-8.323-48.116-28.625c-12.316-23.552-18.915-63.75-19.795-120.597
					C639.384,280.942,635.83,293.938,631.024,306.524 M639.146,304.697l-5.583,8.628L639.146,304.697 M659.246,393.418
					l-6.194,12.384L659.246,393.418 M648.789,374.232l-5.685,9.34L648.789,374.232 M702.691,420.826l-3.756,6.699L702.691,420.826
					 M690.916,420.116l-3.654,7.409L690.916,420.116 M666.756,400.321l-5.583,12.992L666.756,400.321 M675.385,410.167
					l-3.146,13.806L675.385,410.167 M684.116,415.142l-3.858,10.558L684.116,415.142 M567.986,298.811
					c2.977-23.482-3.757-44.057-20.201-61.72c-8.729,7.308-18.306,15.092-28.729,23.348
					C534.284,272.822,550.593,285.614,567.986,298.811 M600.063,355.352l-12.588-8.831c-26.121,21.046-56.237,27.543-90.345,19.489
					c-32.077-7.308-63.41-26.292-93.999-56.947c-30.657-30.792-55.493-68.248-74.51-112.373
					c-17.324-40.199-27.442-78.266-30.351-114.2l-5.279-2.842l5.279,2.842c-0.407-5.82-1.218-13.636-2.437-23.449
					c-3.383,2.91-6.531,5.617-9.44,8.121c-5.82,16.852-9.677,33.194-11.573,49.031l18.779,4.669l-18.779-4.669
					c-3.113,29.032,0.271,57.658,10.151,85.878c12.994,36.881,36.273,73.394,69.841,109.531
					c29.167,31.196,60.5,56.776,93.999,76.742c29.236,17.526,53.63,28.185,73.189,31.976c32.349-14.01,56.408-30.453,72.175-49.334
					C598.101,366.45,600.063,361.239,600.063,355.352 M336.947,235.568l-35.326-4.263L336.947,235.568 M346.185,253.027
					l-25.784-6.191L346.185,253.027 M355.016,267.544l-35.123-4.061L355.016,267.544 M322.024,198.923l-26.19-3.655L322.024,198.923
					 M416.938,332.612l-21.926-0.608L416.938,332.612 M388.514,307.336l-31.265-2.435L388.514,307.336 M298.88,143.497
					l-22.738-1.218L298.88,143.497 M311.265,171.108l-30.047-9.237L311.265,171.108 M517.738,395.347l-4.061,4.263
					c3.924,1.422,7.886,2.742,11.877,3.96l6.802-6.497l-6.802,6.497c3.653,1.284,7.41,2.437,11.267,3.451
					c-3.856-1.015-7.613-2.167-11.267-3.451l-7.106,6.8l7.106-6.8c-3.991-1.218-7.953-2.538-11.877-3.96l-6.396,6.295l6.396-6.295
					c-6.497-2.504-12.925-5.312-19.287-8.424l-10.354,5.075l10.354-5.075c-10.625-5.21-20.946-11.301-30.961-18.272
					c10.015,6.972,20.336,13.063,30.961,18.272l2.334-1.118l-2.334,1.118c6.362,3.112,12.79,5.92,19.287,8.424L517.738,395.347
					 M565.348,379.613c-14.957,10.15-35.089,9.946-60.399-0.609C530.259,389.56,550.391,389.764,565.348,379.613 M476.627,392.2
					c-24.229-8.731-48.489-23.891-72.784-45.478C428.138,368.31,452.398,383.469,476.627,392.2 M476.525,364.285l-29.439,5.685
					L476.525,364.285 M596.612,290.586c0.474,9.612,0.406,19.458-0.202,29.542c6.564,4.94,13.364,9.879,20.403,14.82l0.507-0.712
					c2.438-11.031,4.128-21.758,5.076-32.179L596.612,290.586 M595.19,276.071c0.61,4.804,1.083,9.644,1.422,14.515l25.784,11.472
					c1.082-10.625,1.488-20.979,1.217-31.062c-0.067-1.085-0.168-2.199-0.303-3.351l-31.063-7.309
					C593.466,265.48,594.447,270.725,595.19,276.071l25.582,8.729L595.19,276.071 M484.442,330.684
					c6.903,2.978,13.603,5.347,20.1,7.105c-68.689-53.936-124.622-118.463-167.798-193.581
					c43.177,75.118,99.109,139.646,167.798,193.581c22.062,5.482,41.721,2.641,58.978-8.525
					c-16.241-11.845-31.67-23.482-46.288-34.92c-25.106-15.566-48.218-32.383-69.333-50.452l-39.082-11.167l39.082,11.167
					c-25.107-25.987-42.769-44.664-52.988-56.034c-9.475-10.558-14.956-16.58-16.445-18.069l-21.419,0.203l21.419-0.203
					c-32.01-42.702-51.095-82.935-57.253-120.697c-2.571,33.228,4.094,70.009,19.998,110.343
					c15.159,37.897,35.732,72.581,61.718,104.049C429.525,295.697,456.695,318.098,484.442,330.684 M505.456,297.591l-43.549-9.034
					L505.456,297.591 M532.356,317.894l-48.116-5.99L532.356,317.894 M418.46,220.138l-28.017-6.496L418.46,220.138 M395.315,194.76
					l-24.667-3.958L395.315,194.76 M473.581,278.912l-42.432-11.977L473.581,278.912 M504.542,337.789
					c-6.497-1.759-13.196-4.128-20.1-7.105c-27.747-12.586-54.917-34.986-81.514-67.2c-25.986-31.468-46.559-66.151-61.718-104.049
					c-15.904-40.333-22.569-77.115-19.998-110.343v-0.101l-0.101-0.102l-0.914-6.598c-10.489-1.895-18.44,3.485-23.855,16.141
					l15.43,15.531l-15.43-15.531c-0.135,0.203-0.304,0.406-0.508,0.609c1.219,9.813,2.03,17.629,2.437,23.449l15.938,9.136
					l-15.938-9.136c2.909,35.935,13.027,74.001,30.351,114.2c19.017,44.125,43.853,81.581,74.51,112.373
					c30.589,30.655,61.921,49.64,93.999,56.947c34.107,8.054,64.224,1.557,90.345-19.489l-16.749-12.182l-7.207-5.075
					C546.263,340.43,526.604,343.271,504.542,337.789c0.744,0.61,1.59,1.22,2.538,1.828
					C506.132,339.009,505.286,338.399,504.542,337.789 M490.634,340.43l-30.555,3.553L490.634,340.43 M515.91,343.678
					l-21.012,11.979L515.91,343.678 M563.926,337.587l-18.577,23.146L563.926,337.587 M540.882,345.301l-14.616,14.111
					L540.882,345.301 M337.861,163.698l-20.709-9.136L337.861,163.698 M328.928,137.001l-16.141-8.324L328.928,137.001
					 M322.024,114.669l-15.531-9.136L322.024,114.669 M400.188,272.519l-18.576-3.452L400.188,272.519 M364.151,220.341
					l-25.58-9.948L364.151,220.341 M353.798,200.648l-18.679-10.151L353.798,200.648 M346.692,182.071l-18.882-6.496
					L346.692,182.071 M416.329,285.917l-25.073-1.522L416.329,285.917 M438.458,303.987l-30.25-1.624L438.458,303.987
					 M390.544,257.292l-21.723-3.046L390.544,257.292 M379.378,242.166l-26.595-6.598L379.378,242.166 M465.968,327.233h-31.57
					H465.968 M491.854,237.699c-7.243-6.43-14.281-12.62-21.115-18.576c-7.173-6.699-14.143-13.264-20.911-19.692
					c-3.722-3.52-7.309-7.005-10.76-10.457c-6.633-6.563-12.858-13.061-18.678-19.489c-5.482-5.889-10.625-11.64-15.43-17.257
					c-1.218-1.422-2.436-2.775-3.654-4.061c-8.46-10.287-15.971-20.032-22.536-29.236c-5.211-7.308-9.813-14.246-13.805-20.81
					c-15.159-25.039-22.13-47.236-20.912-66.591c-6.767-1.963-14.583,1.455-23.448,10.252c-0.136,0.136-0.271,0.306-0.407,0.508
					l0.914,6.598l0.101,0.102v0.101c6.158,37.763,25.243,77.995,57.253,120.697c1.489,1.489,6.97,7.511,16.445,18.069
					c10.219,11.37,27.881,30.047,52.988,56.034c21.116,18.069,44.227,34.886,69.333,50.452l30.249-3.351l-30.249,3.351
					c14.618,11.438,30.047,23.075,46.288,34.92l7.207,5.075l24.16-6.396l-24.16,6.396l16.749,12.182l12.588,8.831
					c12.182-0.679,17.799-7.443,16.851-20.303l-0.101-0.101c-7.039-4.941-13.839-9.88-20.403-14.82
					c-8.258-6.091-16.379-12.114-24.363-18.07l-32.89,3.654l32.89-3.654c-1.286-1.082-2.639-2.165-4.061-3.247
					c-17.394-13.196-33.702-25.988-48.93-38.372c0-0.135-0.101-0.202-0.303-0.202C509.48,252.52,500.516,245.01,491.854,237.699
					 M491.04,243.08l-29.031-7.207L491.04,243.08 M516.115,259.221l-44.769-5.787L516.115,259.221 M532.051,272.721l-29.031,1.93
					L532.051,272.721 M582.807,315.964l-26.19,1.626L582.807,315.964 M343.444,56.604l-12.588-2.842L343.444,56.604
					 M364.558,111.014l-19.186-7.917L364.558,111.014 M357.452,92.336l-17.866-8.02L357.452,92.336 M399.173,152.735l-23.956-8.73
					L399.173,152.735 M419.78,171.007l-23.145-4.264L419.78,171.007 M350.143,73.759l-20.505-11.47L350.143,73.759 M381.206,132.635
					l-16.04-6.699L381.206,132.635 M432.063,188.162l-22.536-3.654L432.063,188.162 M448.102,205.419l-23.043-2.741L448.102,205.419
					 M468.506,222.168l-27.003-4.568L468.506,222.168 M583.62,232.93l35.933,4.974c-1.082-5.21-2.402-10.354-3.957-15.431
					l-41.723-8.526C577.529,220.037,580.776,226.364,583.62,232.93 M587.983,245.01l23.247,5.177L587.983,245.01
					c1.691,5.008,3.115,10.115,4.265,15.327l31.063,7.309c-0.475-10.082-1.728-19.997-3.758-29.742l-35.933-4.974
					C585.174,236.92,586.629,240.949,587.983,245.01 M573.873,213.946l-0.102-0.102c-7.579,7.309-16.241,15.058-25.986,23.247
					c16.444,17.663,23.178,38.237,20.201,61.72c1.422,1.082,2.774,2.165,4.061,3.247c7.984,5.956,16.105,11.979,24.363,18.07
					c0.608-10.084,0.676-19.93,0.202-29.542c-0.339-4.871-0.812-9.711-1.422-14.515c-0.743-5.347-1.725-10.591-2.942-15.734
					c-1.149-5.212-2.573-10.319-4.265-15.327c-1.354-4.061-2.81-8.09-4.363-12.08C580.776,226.364,577.529,220.037,573.873,213.946
					 M582.706,256.58l-14.72-3.247L582.706,256.58 M579.964,242.573l-17.967-4.265L579.964,242.573 M587.577,286.73l-13.806-2.437
					L587.577,286.73 M586.359,297.49l-12.588-2.74L586.359,297.49 M588.797,272.925l-11.371-0.61L588.797,272.925 M609.809,206.841
					l-25.479-3.452c-3.248,3.385-6.77,6.869-10.559,10.456l0.102,0.102l41.723,8.526
					C614.037,217.126,612.11,211.916,609.809,206.841 M599.963,186.335c3.855,6.7,7.14,13.535,9.846,20.506
					c2.302,5.075,4.229,10.286,5.787,15.632c1.555,5.076,2.875,10.221,3.957,15.431c2.03,9.745,3.283,19.66,3.758,29.742
					l1.015,0.204c1.624-9.68,2.773-19.187,3.452-28.526c2.502-30.385-0.44-58.402-8.833-84.05
					C616.036,164.139,609.707,174.492,599.963,186.335 M619.046,183.493l-7.613-5.686L619.046,183.493 M620.975,196.893
					l-9.846-6.192L620.975,196.893 M609.809,206.841c-2.706-6.971-5.99-13.806-9.846-20.506c-4.399,5.414-9.61,11.099-15.633,17.054
					L609.809,206.841 M618.944,155.273c0.608-10.354-0.811-17.325-4.263-20.912c-3.52-3.722-5.854-5.989-7.005-6.801
					c-37.965,31.468-76.573,68.182-115.823,110.139c8.662,7.311,17.627,14.82,26.9,22.537c0.202,0,0.303,0.067,0.303,0.202
					c10.423-8.256,19.999-16.04,28.729-23.348c9.745-8.188,18.407-15.938,25.986-23.247c3.789-3.586,7.311-7.071,10.559-10.456
					c6.022-5.955,11.233-11.64,15.633-17.054C609.707,174.492,616.036,164.139,618.944,155.273 M608.185,138.219l-3.858,31.57
					L608.185,138.219 M548.395,189.787l-6.902,37.052L548.395,189.787 M524.235,216.585l-2.437,29.541L524.235,216.585
					 M592.35,148.877l-8.527,41.112L592.35,148.877 M571.335,171.413l-7.916,40.401L571.335,171.413 M573.163,88.174l-31.671,5.685
					c-11.911,11.03-23.518,22.738-34.818,35.123l87.908-23.043c-1.354-13.602-6.733-20.403-16.141-20.403L573.163,88.174
					 M560.982,76.297c-6.633,5.685-13.13,11.539-19.49,17.562l31.671-5.685l5.278-2.639c-5.956-18.001-15.259-26.766-27.916-26.292
					c-14.007,13.129-27.372,26.495-40.097,40.097l31.063-5.481C547.853,87.835,554.35,81.982,560.982,76.297 M594.988,106.446
					c-0.135-0.135-0.27-0.304-0.406-0.508l-87.908,23.043c-19.762,21.588-38.709,45.071-56.847,70.449
					c6.769,6.429,13.738,12.993,20.911,19.692c42.704-46.492,81.175-82.968,115.419-109.429
					c-34.244,26.46-72.715,62.937-115.419,109.429c6.834,5.956,13.872,12.146,21.115,18.576
					c39.25-41.958,77.858-78.671,115.823-110.139c-1.556-3.113-1.657-5.819-0.305-8.121
					C601.959,114.77,597.831,110.439,594.988,106.446 M517.941,135.275l-1.319,22.941L517.941,135.275 M534.995,128.271
					l-2.234,15.329L534.995,128.271 M561.691,140.351l-8.424,25.275L561.691,140.351 M579.862,124.921l-4.871,18.78L579.862,124.921
					 M528.092,174.561l-11.876,28.017L528.092,174.561 M497.639,199.125l-3.452,23.958L497.639,199.125 M503.934,146.949
					l-4.467,27.104L503.934,146.949 M488.707,163.495l-3.351,23.754L488.707,163.495 M544.435,156.288l-7.815,24.667
					L544.435,156.288 M594.582,105.938c0.137,0.204,0.271,0.373,0.406,0.508c2.843,3.993,6.971,8.324,12.384,12.993l8.224-5.989
					c-0.88-8.933-3.62-16.445-8.224-22.536c-4.532-6.023-10.219-9.847-17.053-11.47l-11.878,6.09
					C587.849,85.535,593.228,92.336,594.582,105.938 M477.844,136.696c10.221-12.587,21.082-25.039,32.585-37.356
					c12.725-13.602,26.09-26.968,40.097-40.097c-0.811-10.489-9.237-16.479-25.274-17.968
					c-44.193,40.604-79.146,83.341-104.862,128.209c5.82,6.429,12.045,12.926,18.678,19.489c2.639-3.992,5.313-7.951,8.019-11.876
					l-3.451-29.033l3.451,29.033C456.628,163.428,466.882,149.961,477.844,136.696 M491.447,91.422l-2.64,19.186L491.447,91.422
					 M476.93,105.533l-3.349,25.276L476.93,105.533 M515.504,63.202l-9.644,28.423L515.504,63.202 M459.776,123.094l-3.96,26.19
					L459.776,123.094 M506.674,128.981l-28.83,7.714c-10.962,13.265-21.216,26.732-30.757,40.402
					c-2.707,3.925-5.38,7.884-8.019,11.876c3.451,3.452,7.038,6.937,10.76,10.457C467.965,174.053,486.912,150.569,506.674,128.981
					 M477.844,136.696l28.83-7.714c11.301-12.385,22.907-24.092,34.818-35.123l-31.063,5.481
					C498.926,111.657,488.064,124.109,477.844,136.696 M525.251,41.275c-3.589-9.271-11.099-13.67-22.537-13.196L401.305,148.167
					c1.218,1.286,2.436,2.639,3.654,4.061c4.805,5.617,9.948,11.368,15.43,17.257C446.105,124.617,481.058,81.88,525.251,41.275
					 M464.039,84.012l-0.406,12.892L464.039,84.012 M484.341,62.289l-5.075,17.257L484.341,62.289 M452.466,102.995l-1.319,17.662
					L452.466,102.995 M427.901,126.85l-2.437,31.265L427.901,126.85 M438.56,117.917l-3.553,11.673L438.56,117.917 M471.246,12.548
					l0.101,0.203c11.166,4.873,21.623,9.982,31.367,15.328l5.381-6.293C496.253,17.522,483.969,14.443,471.246,12.548
					 M471.044,12.65l0.101-0.102c-16.512-2.504-30.047-2.571-40.604-0.203c-10.489,2.437-17.054,3.621-19.693,3.553
					c-2.707-0.135-9.88,0.474-21.52,1.828c-11.573,1.286-25.954,5.549-43.143,12.79c34.785-6.023,63.816-4.5,87.097,4.568
					C446.207,25.677,458.793,18.199,471.044,12.65 M471.347,12.751c-0.063-0.065-0.166-0.099-0.303-0.101
					c-12.251,5.549-24.837,13.027-37.763,22.434c-9.813,7.173-19.829,15.43-30.048,24.769
					c-12.182,11.031-24.938,23.787-38.269,38.269c3.992,6.564,8.594,13.502,13.805,20.81c35.799-38.303,72.547-69.23,110.24-92.781
					c-37.693,23.551-74.441,54.478-110.24,92.781c6.564,9.204,14.076,18.949,22.536,29.236L502.714,28.079
					C492.97,22.733,482.513,17.624,471.347,12.751 M435.108,82.083l-5.787,28.83L435.108,82.083 M383.033,91.727v15.836V91.727
					 M399.783,72.643l-2.132,22.333L399.783,72.643 M414.298,57.112l-5.583,24.87L414.298,57.112 M552.962,57.112
					c-0.811,0.676-1.623,1.387-2.437,2.131c12.657-0.474,21.96,8.291,27.916,26.292l11.878-6.09
					c-1.22-1.219-2.504-3.282-3.858-6.193c-1.218-2.707-2.639-4.669-4.263-5.888c-31.334-23.686-56.035-38.878-74.104-45.578
					l-5.381,6.293c11.438-0.474,18.948,3.925,22.537,13.196c16.037,1.489,24.464,7.479,25.274,17.968
					C551.339,58.499,552.151,57.788,552.962,57.112 M632.446,148.472c-0.676-1.692-1.32-3.452-1.929-5.279l-16.75-14.008
					l16.75,14.008c-1.489-4.195-3.452-8.628-5.889-13.297c-1.963-3.723-4.973-9.205-9.033-16.445l-8.224,5.989
					c-1.353,2.302-1.251,5.008,0.305,8.121c1.15,0.813,3.485,3.08,7.005,6.801c3.452,3.586,4.871,10.558,4.263,20.912
					c0.608-1.895,1.085-3.621,1.422-5.177c-0.337,1.556-0.813,3.282-1.422,5.177c8.393,25.648,11.335,53.666,8.833,84.05
					l11.774,13.603l-11.774-13.603c-0.679,9.34-1.828,18.847-3.452,28.526c-0.271,1.015-0.508,2.062-0.712,3.146
					c0.271,10.082-0.135,20.437-1.217,31.062c-0.948,10.421-2.639,21.147-5.076,32.179c1.963-3.45,4.095-7.207,6.396-11.268
					c2.639-5.414,5.075-10.895,7.308-16.444c4.806-12.587,8.359-25.582,10.659-38.98c0.202-1.217,0.406-2.47,0.608-3.755
					c3.249-21.656,3.146-44.53-0.304-68.622C639.687,178.181,636.507,162.616,632.446,148.472 M637.521,271.402l-9.542-13.807
					L637.521,271.402 M643.408,228.26l-12.891-28.221L643.408,228.26 M635.491,177.402l-11.979-15.734L635.491,177.402z"/>
			</g>
		</g>
		<g>
			
				<path id="Layer5_0_1_STROKES" fill="none" stroke="#340E25" stroke-width="2" stroke-linecap="round" stroke-linejoin="round" d="
				M471.246,12.548c12.723,1.896,25.007,4.975,36.849,9.238c18.068,6.699,42.77,21.892,74.104,45.578
				c1.624,1.218,3.045,3.181,4.263,5.888c1.354,2.911,2.639,4.974,3.858,6.193c6.834,1.624,12.521,5.447,17.053,11.47
				c4.604,6.091,7.344,13.603,8.224,22.536c4.061,7.241,7.07,12.723,9.033,16.445c2.437,4.669,4.399,9.102,5.889,13.297
				c0.608,1.827,1.253,3.587,1.929,5.279c4.061,14.144,7.24,29.709,9.542,46.695c3.45,24.092,3.553,46.966,0.304,68.622
				c-0.202,1.285-0.406,2.538-0.608,3.755c0.88,56.847,7.479,97.045,19.795,120.597c10.691,20.302,26.729,29.842,48.116,28.625
				c1.015,8.866-1.691,13.805-8.121,14.82c-23.213-0.271-40.436-8.9-51.669-25.886c-1.896-2.841-3.486-5.718-4.771-8.628
				 M552.962,57.112c-0.811,0.676-1.623,1.387-2.437,2.131c12.657-0.474,21.96,8.291,27.916,26.292l11.878-6.09 M471.347,12.751
				c-0.063-0.065-0.166-0.099-0.303-0.101c-12.251,5.549-24.837,13.027-37.763,22.434c-9.813,7.173-19.829,15.43-30.048,24.769
				c-12.182,11.031-24.938,23.787-38.269,38.269c3.992,6.564,8.594,13.502,13.805,20.81c35.799-38.303,72.547-69.23,110.24-92.781
				 M471.145,12.548c-16.512-2.504-30.047-2.571-40.604-0.203c-10.489,2.437-17.054,3.621-19.693,3.553
				c-2.707-0.135-9.88,0.474-21.52,1.828c-11.573,1.286-25.954,5.549-43.143,12.79c34.785-6.023,63.816-4.5,87.097,4.568
				 M471.145,12.548h0.102 M471.347,12.751c11.166,4.873,21.623,9.982,31.367,15.328l5.381-6.293 M471.246,12.548
				c0,0.065-0.067,0.099-0.202,0.102 M525.251,41.275c-3.589-9.271-11.099-13.67-22.537-13.196L401.305,148.167
				c1.218,1.286,2.436,2.639,3.654,4.061c4.805,5.617,9.948,11.368,15.43,17.257C446.105,124.617,481.058,81.88,525.251,41.275
				c16.037,1.489,24.464,7.479,25.274,17.968c-14.007,13.129-27.372,26.495-40.097,40.097l31.063-5.481
				c6.36-6.023,12.857-11.877,19.49-17.562 M510.429,99.34c-11.503,12.317-22.364,24.769-32.585,37.356l28.83-7.714
				c11.301-12.385,22.907-24.092,34.818-35.123l31.671-5.685l5.278-2.639c9.407,0,14.786,6.802,16.141,20.403
				c0.137,0.204,0.271,0.373,0.406,0.508c2.843,3.993,6.971,8.324,12.384,12.993l8.224-5.989 M607.372,119.439
				c-1.353,2.302-1.251,5.008,0.305,8.121c1.15,0.813,3.485,3.08,7.005,6.801c3.452,3.586,4.871,10.558,4.263,20.912
				c0.608-1.895,1.085-3.621,1.422-5.177 M506.674,128.981l87.908-23.043 M609.809,206.841c-2.706-6.971-5.99-13.806-9.846-20.506
				c-4.399,5.414-9.61,11.099-15.633,17.054 M609.809,206.841c2.302,5.075,4.229,10.286,5.787,15.632
				c1.555,5.076,2.875,10.221,3.957,15.431c2.03,9.745,3.283,19.66,3.758,29.742 M624.325,267.85
				c1.624-9.68,2.773-19.187,3.452-28.526c2.502-30.385-0.44-58.402-8.833-84.05c-2.908,8.866-9.237,19.219-18.981,31.062
				 M584.33,203.389c-3.248,3.385-6.77,6.869-10.559,10.456l0.102,0.102 M583.62,232.93c1.554,3.99,3.009,8.02,4.363,12.08
				c1.691,5.008,3.115,10.115,4.265,15.327 M623.311,267.646c0.135,1.151,0.235,2.266,0.303,3.351
				c0.204-1.085,0.44-2.132,0.712-3.146 M607.677,127.56c-37.965,31.468-76.573,68.182-115.823,110.139
				c8.662,7.311,17.627,14.82,26.9,22.537c0.202,0,0.303,0.067,0.303,0.202c10.423-8.256,19.999-16.04,28.729-23.348
				c9.745-8.188,18.407-15.938,25.986-23.247 M573.873,213.946c3.656,6.091,6.903,12.418,9.747,18.983 M491.854,237.699
				c-7.243-6.43-14.281-12.62-21.115-18.576c-7.173-6.699-14.143-13.264-20.911-19.692c-3.722-3.52-7.309-7.005-10.76-10.457
				c-6.633-6.563-12.858-13.061-18.678-19.489 M504.542,337.789c-6.497-1.759-13.196-4.128-20.1-7.105
				c-27.747-12.586-54.917-34.986-81.514-67.2c-25.986-31.468-46.559-66.151-61.718-104.049
				c-15.904-40.333-22.569-77.115-19.998-110.343v-0.101l-0.101-0.102l-0.914-6.598c-10.489-1.895-18.44,3.485-23.855,16.141
				 M336.744,144.208c43.177,75.118,99.109,139.646,167.798,193.581 M595.19,276.071c0.61,4.804,1.083,9.644,1.422,14.515
				 M622.396,302.058c1.082-10.625,1.488-20.979,1.217-31.062 M596.612,290.586c0.474,9.612,0.406,19.458-0.202,29.542
				c6.564,4.94,13.364,9.879,20.403,14.82 M617.32,334.236c2.438-11.031,4.128-21.758,5.076-32.179 M572.047,302.058
				c-1.286-1.082-2.639-2.165-4.061-3.247c-17.394-13.196-33.702-25.988-48.93-38.372 M517.231,294.344
				c14.618,11.438,30.047,23.075,46.288,34.92l7.207,5.075 M617.32,334.236c-0.135,0.271-0.27,0.543-0.406,0.813
				c0.069,0.067,0.137,0.102,0.204,0.102C617.186,334.879,617.253,334.575,617.32,334.236c1.963-3.45,4.095-7.207,6.396-11.268
				c2.639-5.414,5.075-10.895,7.308-16.444c4.806-12.587,8.359-25.582,10.659-38.98 M600.063,355.352l-12.588-8.831
				c-26.121,21.046-56.237,27.543-90.345,19.489c-32.077-7.308-63.41-26.292-93.999-56.947
				c-30.657-30.792-55.493-68.248-74.51-112.373c-17.324-40.199-27.442-78.266-30.351-114.2 M600.063,355.352
				c12.182-0.679,17.799-7.443,16.851-20.303l-0.101-0.101 M600.063,355.352c0,5.888-1.963,11.099-5.888,15.633
				c-15.767,18.881-39.826,35.324-72.175,49.334c-3.384,4.128-9.203,6.293-17.459,6.497c-9.948,6.632-19.388,10.082-28.322,10.354
				c-9.001,0.406-14.584,0.339-16.749-0.202c-3.654,3.722-7.24,4.938-10.76,3.654c-3.452-1.15-5.279-1.86-5.482-2.132
				c-33.092-3.182-64.392-10.964-93.898-23.348c-16.242-6.834-31.942-15.092-47.102-24.769c-9.745-3.993-16.207-8.155-19.388-12.487
				c-2.909-4.397-5.042-9.338-6.395-14.82c-4.602-2.908-8.256-7.173-10.963-12.79c-1.828-4.128-3.181-8.897-4.061-14.313
				c-5.211-3.045-9.271-5.989-12.181-8.832c-3.993-4.061-5.719-8.086-5.178-12.079c-10.692-6.157-15.938-13.839-15.734-23.044
				 M596.41,320.128c-8.258-6.091-16.379-12.114-24.363-18.07 M570.727,334.339l16.749,12.182 M567.986,298.811
				c2.977-23.482-3.757-44.057-20.201-61.72 M504.542,337.789c22.062,5.482,41.721,2.641,58.978-8.525 M447.898,243.892
				c21.116,18.069,44.227,34.886,69.333,50.452 M592.248,260.337c1.218,5.144,2.199,10.388,2.942,15.734 M631.024,306.524
				c0.135,2.37,0,6.125-0.406,11.268c-0.271,4.738-0.271,8.323,0,10.76c0.137,1.759,0.236,4.366,0.306,7.817
				c0,3.181,0.135,5.65,0.406,7.409c0.337,2.302,0.676,6.834,1.015,13.604c0.067,0.745,1.456,6.36,4.162,16.851 M470.738,219.123
				c42.704-46.492,81.175-82.968,115.419-109.429 M296.342,58.431c-0.135,0.203-0.304,0.406-0.508,0.609
				c-0.135-0.406-0.237-0.846-0.304-1.32 M298.271,82.489c-0.407-5.82-1.218-13.636-2.437-23.449 M320.197,42.291
				c0.136-0.202,0.271-0.372,0.407-0.508c8.865-8.797,16.682-12.215,23.448-10.252c0.067-0.203,0.067-0.373,0-0.508
				c0.812-0.271,1.523-0.44,2.132-0.507c-0.677,0.338-1.388,0.677-2.132,1.015c-1.218,19.354,5.753,41.552,20.912,66.591
				 M401.305,148.167c-8.46-10.287-15.971-20.032-22.536-29.236 M403.233,59.853c-13.399-8.595-31.367-8.832-53.902-0.71
				 M321.212,49.092c6.158,37.763,25.243,77.995,57.253,120.697c1.489,1.489,6.97,7.511,16.445,18.069
				c10.219,11.37,27.881,30.047,52.988,56.034 M286.395,67.161c-10.963,3.858-19.22,12.418-24.77,25.683
				c-0.049,0.126-0.1,0.244-0.151,0.355c-3.443,8.763-6.031,17.815-7.766,27.154 M233.405,137.356
				c-7.642,10.923-12.109,22.31-13.399,34.159c6.023,21.385,10.896,37.322,14.618,47.811 M261.474,93.199
				c-0.851,1.647-5.029,5.979-12.537,12.993c-7.521,7.01-12.698,17.398-15.531,31.164 M274.822,116.191
				c1.896-15.836,5.752-32.179,11.573-49.031c2.909-2.504,6.057-5.21,9.44-8.121 M210.667,233.486
				c0.033,0.349,0.066,0.704,0.101,1.066c-3.452,8.595-1.049,18.238,7.207,28.931c-0.135,0.337-0.237,0.643-0.305,0.914
				 M217.164,265.413c-2.098,8.188,1.692,16.376,11.37,24.564c-0.136,0.676-0.204,1.354-0.204,2.03 M220.006,171.515
				c-5.549,7.376-7.173,17.966-4.873,31.772c-3.78,10.059-5.269,20.126-4.466,30.199 M252.896,292.109
				c-14.82-25.782-26.934-54.578-36.341-86.386 M259.189,302.465c-0.203-0.407-0.44-0.813-0.711-1.22
				c-1.692-2.773-3.452-5.718-5.278-8.831 M314.614,368.648c-8.392-7.714-16.41-15.801-24.059-24.261
				c-11.368-12.857-21.825-26.833-31.366-41.923 M439.067,188.974c2.639-3.992,5.313-7.951,8.019-11.876 M316.137,370.07
				c-0.405-0.474-0.913-0.947-1.522-1.422 M522.001,420.318c-19.559-3.791-43.953-14.449-73.189-31.976
				c-33.499-19.966-64.831-45.546-93.999-76.742c-33.567-36.138-56.847-72.65-69.841-109.531
				c-9.88-28.22-13.264-56.846-10.151-85.878 M504.542,426.815c-14.211,2.232-38.742-7.038-73.595-27.814
				c-34.717-20.776-68.148-47.948-100.294-81.515c-32.213-33.498-54.816-68.722-67.809-105.672
				c-11.37-32.686-14.415-63.174-9.136-91.461 M636.507,374.232c2.369,8.459,5.21,16.073,8.527,22.84 M506.674,128.981
				c-19.762,21.588-38.709,45.071-56.847,70.449 M234.624,219.326c32.551,93.999,107.501,166.546,224.847,217.641 M447.086,177.098
				c9.542-13.67,19.795-27.137,30.757-40.402 M443.229,438.489c-49.74-14.888-92.104-37.696-127.092-68.419"/>
		</g>
		<g>
			
				<path id="Layer5_0_2_STROKES" fill="none" stroke="#340E25" stroke-width="0.05" stroke-linecap="round" stroke-linejoin="round" d="
				M643.714,399.103l1.32-2.03 M491.447,91.422l-2.64,19.186 M464.039,84.012l-0.406,12.892 M517.941,135.275l-1.319,22.941
				 M534.995,128.271l-2.234,15.329 M476.93,105.533l-3.349,25.276 M561.691,140.351l-8.424,25.275 M608.185,138.219l-3.858,31.57
				 M579.862,124.921l-4.871,18.78 M484.341,62.289l-5.075,17.257 M515.504,63.202l-9.644,28.423 M609.809,206.841l-25.479-3.452
				 M619.046,183.493l-7.613-5.686 M573.873,213.946l41.723,8.526 M587.983,245.01l23.247,5.177 M619.553,237.903l-35.933-4.974
				 M623.311,267.646l-31.063-7.309 M582.706,256.58l-14.72-3.247 M548.395,189.787l-6.902,37.052 M579.964,242.573l-17.967-4.265
				 M528.092,174.561l-11.876,28.017 M491.04,243.08l-29.031-7.207 M516.115,259.221l-44.769-5.787 M497.639,199.125l-3.452,23.958
				 M524.235,216.585l-2.437,29.541 M505.456,297.591l-43.549-9.034 M490.634,340.43l-30.555,3.553 M515.91,343.678l-21.012,11.979
				 M311.772,73.962l-15.43-15.531 M507.08,339.617c-0.948-0.608-1.794-1.218-2.538-1.828 M532.051,272.721l-29.031,1.93
				 M532.356,317.894l-48.116-5.99 M596.612,290.586l25.784,11.472 M595.19,276.071l25.582,8.729 M572.047,302.058l-32.89,3.654
				 M563.926,337.587l-18.577,23.146 M570.727,334.339l24.16-6.396 M298.271,82.489l-5.279-2.842 M228.33,292.008l-1.522,2.132
				 M587.577,286.73l-13.806-2.437 M586.359,297.49l-12.588-2.74 M582.807,315.964l-26.19,1.626 M588.797,272.925l-11.371-0.61
				 M540.882,345.301l-14.616,14.111 M547.48,290.993l-30.249,3.351 M447.898,243.892l-39.082-11.167 M627.777,239.323
				l11.774,13.603 M637.521,271.402l-9.542-13.807 M643.408,228.26l-12.891-28.221 M640.974,315.863l-10.355,12.688
				 M639.146,304.697l-5.583,8.628 M632.345,357.382l14.212-11.674 M631.33,343.778l11.47-12.383 M636.507,374.232l8.527-14.922
				 M630.618,328.552l-0.608,1.016 M630.518,143.193l-16.75-14.008 M620.975,196.893l-9.846-6.192 M503.934,146.949l-4.467,27.104
				 M592.35,148.877l-8.527,41.112 M488.707,163.495l-3.351,23.754 M635.491,177.402l-11.979-15.734 M544.435,156.288l-7.815,24.667
				 M571.335,171.413l-7.916,40.401 M408.715,34.576l-17.664,18.272 M296.342,58.431l-0.812-0.711 M314.209,91.625l-15.938-9.136
				 M343.444,56.604l-12.588-2.842 M337.861,163.698l-20.709-9.136 M328.928,137.001l-16.141-8.324 M322.024,114.669l-15.531-9.136
				 M364.558,111.014l-19.186-7.917 M357.452,92.336l-17.866-8.02 M452.466,102.995l-1.319,17.662 M435.108,82.083l-5.787,28.83
				 M383.033,91.727v15.836 M399.783,72.643l-2.132,22.333 M399.173,152.735l-23.956-8.73 M427.901,126.85l-2.437,31.265
				 M419.78,171.007l-23.145-4.264 M438.56,117.917l-3.553,11.673 M378.465,169.789l-21.419,0.203 M350.143,73.759l-20.505-11.47
				 M376.13,39.043l-9.238,8.831 M414.298,57.112l-5.583,24.87 M381.206,132.635l-16.04-6.699 M263.148,140.351l-9.44-19.998
				 M256.956,224.199l-22.333-4.873 M233.405,137.356l17.664,61.364 M274.822,116.191l-7.918-2.03 M232.694,134.869l0.711,2.487
				 M234.624,219.326l-4.974-1.218 M243.049,196.689l-14.617-3.147 M229.955,252.926l-11.776,10.965 M219.904,226.432l-9.237,7.055
				 M218.179,263.891l-0.508,0.507c-0.135,0.339-0.304,0.677-0.507,1.016 M239.496,277.087l-11.167,14.921 M285.583,266.731
				l-32.586-11.166 M272.69,245.212l-29.337-10.151 M288.018,224.91l-18.474-12.283 M210.667,233.486l-1.422,1.066 M258.377,302.058
				l-9.136,25.073 M244.47,312.615l8.73-20.201c-0.068-0.135-0.169-0.237-0.305-0.305 M258.479,301.245l-0.101,0.813
				 M263.554,336.267l5.482-15.937l-9.847-17.865l-0.609-1.321l-0.102,0.102 M295.53,374.841l-5.076-30.351l-14.008,18.575
				 M265.483,350.275l3.553-29.945 M447.086,177.098l-3.451-29.033 M418.46,220.138l-28.017-6.496 M432.063,188.162l-22.536-3.654
				 M400.188,272.519l-18.576-3.452 M448.102,205.419l-23.043-2.741 M336.947,235.568l-35.326-4.263 M346.185,253.027l-25.784-6.191
				 M355.016,267.544l-35.123-4.061 M322.024,198.923l-26.19-3.655 M364.151,220.341l-25.58-9.948 M353.798,200.648l-18.679-10.151
				 M346.692,182.071l-18.882-6.496 M341.109,340.43l-27.51-2.234 M327.405,290.283l-26.088-12.994 M361.716,358.599l-27.712,0.204
				 M366.081,330.176l-18.881-4.871 M314.614,368.648c0.948-0.474,1.455,0,1.522,1.422l1.117-1.522 M335.729,370.578l-14.82-3.248
				 M416.329,285.917l-25.073-1.522 M416.938,332.612l-21.926-0.608 M399.072,360.021l-16.75-0.508 M438.458,303.987l-30.25-1.624
				 M390.544,257.292l-21.723-3.046 M395.315,194.76l-24.667-3.958 M379.378,242.166l-26.595-6.598 M388.514,307.336l-31.265-2.435
				 M321.212,317.59l-30.657-4.671 M298.88,143.497l-22.738-1.218 M311.265,171.108l-30.047-9.237 M242.542,176.488l-18.78-4.973
				 M277.461,188.162L259.9,165.626 M304.058,296.78l-29.946-9.441 M293.601,120.86l-18.779-4.669 M418.156,399.609l-18.069,1.116
				 M402.523,385.297l-18.272,4.771 M448.609,390.88l-33.499-6.598 M349.331,415.142L338.064,398.9 M386.484,373.217l-27.712,0.204
				 M645.034,397.072l8.018-12.992 M659.246,393.418l-6.194,12.384 M635.693,375.451l0.813-1.219 M648.789,374.232l-5.685,9.34
				 M702.691,420.826l-3.756,6.699 M690.916,420.116l-3.654,7.409 M666.756,400.321l-5.583,12.992 M675.385,410.167l-3.146,13.806
				 M684.116,415.142l-3.858,10.558 M517.738,395.347l-4.061,4.263c3.924,1.422,7.886,2.742,11.877,3.96l6.802-6.497
				 M507.282,405.904l6.396-6.295c-6.497-2.504-12.925-5.312-19.287-8.424l-10.354,5.075 M536.821,407.021
				c-3.856-1.015-7.613-2.167-11.267-3.451l-7.106,6.8 M496.725,390.067l-2.334,1.118c-10.625-5.21-20.946-11.301-30.961-18.272
				 M467.084,403.163h-10.658 M565.348,379.613c-14.957,10.15-35.089,9.946-60.399-0.609 M459.776,123.094l-3.96,26.19
				 M473.581,278.912l-42.432-11.977 M465.968,327.233h-31.57 M476.627,392.2c-24.229-8.731-48.489-23.891-72.784-45.478
				 M476.525,364.285l-29.439,5.685 M468.506,222.168l-27.003-4.568 M314.614,368.648c-2.368,1.152-6.496,8.393-12.385,21.725"/>
		</g>
	</g>
	<g transform="matrix( 0.5955963134765625, -0.7459869384765625, 0.7459869384765625, 0.5955963134765625, 23.3,124.5) ">
		<g transform="matrix( 1, 0, 0, 1, 0,0) ">
			<g>
				<g id="needle_0_Layer0_0_FILL">
					<path fill="#E0A67A" d="M434.683,410.823l0.202-8.529l-464.92-0.406l-68.216,9.035l67.709,14.617l464.616-0.506l0.305-5.99
						l0.203-5.887C434.584,412.288,434.618,411.51,434.683,410.823 M468.182,403.006l0.101-12.69l-32.991,0.204l-0.407,11.774
						l-0.202,8.529c-0.065,0.687-0.099,1.465-0.102,2.334l-0.203,5.887l-0.507,17.766l34.005-0.102l0.102-12.384L468.182,403.006z"
						/>
				</g>
			</g>
			<g>
				
					<path id="needle_0_Layer0_0_1_STROKES" fill="none" stroke="#623E2B" stroke-width="2" stroke-linecap="round" stroke-linejoin="round" d="
					M434.378,419.095l-0.506,17.714l34.005-0.102l0.102-12.384l0.204-21.318l0.101-12.69l-32.991,0.204l-0.355,11.776l-0.254,8.527
					c-0.065,0.687-0.099,1.465-0.102,2.334L434.378,419.095z M434.073,425.034l-464.616,0.506l-67.709-14.617l68.216-9.035
					l464.972,0.408 M467.978,424.323l1.523,0.102l0.406-21.926l-1.726,0.506"/>
			</g>
		</g>
	</g>
	<g transform="matrix( 0.8074951171875, -0.5069122314453125, 0.5069122314453125, 0.8074951171875, 21.25,93.05) ">
		<g transform="matrix( 1, 0, 0, 1, 0,0) ">
			<g>
				<g id="needle_0_Layer0_0_FILL_1_">
					<path fill="#E0A67A" d="M512.385,364.64l0.201-8.527l-464.921-0.405l-68.216,9.034l67.709,14.617l464.616-0.507l0.304-5.989
						l0.203-5.888C512.285,366.106,512.317,365.326,512.385,364.64 M545.882,356.824l0.103-12.688l-32.993,0.201l-0.405,11.777
						l-0.201,8.527c-0.068,0.686-0.1,1.465-0.102,2.334l-0.203,5.888l-0.507,17.764l34.005-0.101l0.102-12.384L545.882,356.824z"/>
				</g>
			</g>
			<g>
				
					<path id="needle_0_Layer0_0_1_STROKES_1_" fill="none" stroke="#623E2B" stroke-width="2" stroke-linecap="round" stroke-linejoin="round" d="
					M512.078,372.912l-0.506,17.714l34.005-0.101l0.102-12.384l0.203-21.317l0.103-12.688l-32.993,0.201l-0.355,11.776l-0.251,8.528
					c-0.068,0.686-0.1,1.465-0.102,2.334L512.078,372.912z M511.775,378.851l-464.616,0.507l-67.709-14.617l68.216-9.034
					l464.971,0.404 M545.679,378.141l1.522,0.101l0.407-21.925l-1.727,0.507"/>
			</g>
		</g>
	</g>
	<g transform="matrix( 1, 0, 0, 1, 0,0) ">
		<g>
			<g id="Layer3_0_FILL">
				<path fill="#9762A6" d="M486.371,240.644c1.016-1.284,1.522-2.775,1.522-4.467c0-4.399-7.579-12.35-22.738-23.855
					c-4.602-5.752-8.492-9.982-11.674-12.689c-6.091-4.94-9.745-3.925-10.963,3.045c-4.331-0.609-7.072,0.169-8.222,2.335
					c-0.677,1.217-0.745,2.775-0.203,4.669c-1.015-0.406-2.166-1.218-3.452-2.437c-0.608-0.676-2.098-1.015-4.466-1.015
					c-3.993,0-5.989,1.828-5.989,5.482c0,1.489,0.812,3.621,2.437,6.395c-7.309-3.113-12.622-4.568-15.938-4.365
					c3.722-0.136,4.669,0.812,2.842,2.842c-1.827,2.098-4.398,3.282-7.715,3.553c-0.067,0.407-0.102,0.914-0.102,1.523l5.787,11.167
					c-0.338-0.067-0.609-0.104-0.812-0.104c-1.692,0-3.012,0.712-3.959,2.134c-0.676,0.947-1.015,1.896-1.015,2.841
					c0,0.069,0.035,0.169,0.102,0.306c-0.067,0.339-0.102,0.676-0.102,1.015l2.538,3.856c-0.271-0.27-0.542-0.539-0.812-0.811
					c-1.557-1.557-2.809-2.675-3.756-3.351c-0.405-0.406-0.744-0.71-1.015-0.914c-4.195-2.706-6.292-1.487-6.292,3.656
					c0,0.947,1.116,3.146,3.35,6.598c-0.203,0.811-0.305,1.792-0.305,2.942c0,1.761,1.286,3.553,3.857,5.381
					c2.165,1.557,3.857,3.112,5.076,4.669c-2.369,2.437-3.52,3.959-3.452,4.568c0,0.474,2.334,2.03,7.004,4.669
					c1.557,3.521,3.688,5.381,6.395,5.583c9.813,8.934,16.106,14.077,18.881,15.431c2.843,1.354,4.534,1.557,5.075,0.609
					c0.88,0.27,1.692,0.406,2.437,0.406c1.963,0,3.383-0.744,4.264-2.234c0.474-0.948,0.71-2.03,0.71-3.248
					c0-2.3-1.591-4.467-4.771-6.497c-0.812-0.406-1.557-0.847-2.233-1.318c0.474-0.339,0.879-0.813,1.218-1.422
					c0.541-0.88,0.812-1.758,0.812-2.639c0-0.543-2.437-3.589-7.309-9.136c0.609,0.337,1.218,0.643,1.827,0.912
					c9.406,5.551,15.362,8.325,17.866,8.325c1.558,0,2.876-0.712,3.959-2.132c0.743-1.015,1.116-2.098,1.116-3.249
					c0-1.759-0.811-3.079-2.435-3.96c-2.165-1.284-3.824-3.146-4.975-5.583c2.841,0.204,4.907-0.439,6.191-1.927
					c0.813-0.948,1.218-2.201,1.218-3.757c-1.353-2.707-2.706-5.211-4.061-7.513c0.678,0.067,1.354,0.104,2.03,0.104
					c0.543,0,1.186-0.204,1.929-0.611c0.881-0.404,1.557-0.608,2.03-0.608c0.272,0,1.016,1.184,2.234,3.553
					c1.285,2.302,3.214,3.452,5.786,3.452c4.061,0,6.091-2.911,6.091-8.729c0-0.948-0.306-1.963-0.914-3.046
					c-1.15-1.556-2.132-2.978-2.944-4.265c0.067,0.067,1.794,1.118,5.179,3.148c2.91,1.963,4.972,2.942,6.191,2.942
					C483.732,242.876,485.289,242.133,486.371,240.644 M410.238,252.217c-0.136-0.272-0.271-0.508-0.406-0.712l0.914,1.32
					C410.542,252.556,410.374,252.352,410.238,252.217z"/>
			</g>
		</g>
	</g>
	<g transform="matrix( 1, 0, 0, 1, 0,0) ">
		<g>
			<g id="Layer2_0_FILL">
				<path fill="#9762A6" d="M445.056,227.549l-1.523-0.812l4.771,4.061L445.056,227.549z"/>
			</g>
		</g>
		<g>
			
				<path id="Layer2_0_1_STROKES" fill="none" stroke="#340E25" stroke-width="2" stroke-linecap="round" stroke-linejoin="round" d="
				M464.749,257.393c-4.465-3.79-10.421-9.169-17.866-16.141l-4.873-4.669l-1.827-1.015c-3.113-3.181-6.328-6.396-9.644-9.644
				c-6.361-6.632-12.723-13.535-19.084-20.709 M424.856,288.557c-17.393-18.407-33.127-38.235-47.203-59.485 M447.898,197.705
				c20.708,19.287,37.324,33.632,49.842,43.041"/>
		</g>
		<g>
			
				<path id="Layer2_0_2_STROKES" fill="none" stroke="#340E25" stroke-width="0.05" stroke-linecap="round" stroke-linejoin="round" d="
				M430.54,225.925l3.654,0.101 M433.687,259.423l17.765,3.351 M423.028,245.11l22.435,1.826 M410.137,230.798l15.023,0.508
				 M452.264,224.808l24.159,0.609 M438.052,209.276l19.794,0.609"/>
		</g>
	</g>
	<g transform="matrix( 1, 0, 0, 1, 0,0) ">
		<g>
			
				<path id="Layer1_0_1_STROKES" fill="none" stroke="#340E25" stroke-width="2" stroke-linecap="round" stroke-linejoin="round" d="
				M474.597,313.325c25.24,16.446,50.483,24.396,75.727,23.855 M390.139,223.793c25.512,32.823,51.195,60.399,77.046,82.731"/>
		</g>
	</g>
</g>
</svg>
