<svg xmlns="http://www.w3.org/2000/svg" width="500" height="500" viewBox="0 0 500 500"><g><linearGradient id="a" gradientUnits="userSpaceOnUse" x1="353.013" y1="568.97" x2="367.809" y2="569.423" gradientTransform="translate(-112 -341)"><stop offset=".102" stop-color="#7e7e7e"/><stop offset=".631" stop-color="#fff"/><stop offset=".784" stop-color="#bcbcbc"/></linearGradient><path fill="url(#a)" d="M261.348 8.579h-11.34l-14.401 433.626c-.076 1.511.454 2.835 1.589 3.97 1.058 1.134 2.38 1.738 3.968 1.813 1.512.078 2.835-.414 3.969-1.473 1.134-1.133 1.738-2.457 1.813-3.967L261.348 8.579z"/></g><path fill="#FE9F36" d="M216.33 284.473h-2.609c-12.548.831-23.283 10.734-32.205 29.708-9.524 19.957-14.288 43.998-14.288 72.119 0 27.972 4.763 51.897 14.288 71.78 8.694 18.747 19.277 28.766 31.75 30.05l.227-.113 1.813.226c.227 0 .492.037.793.114 4.083-.378 7.939-1.587 11.566-3.629a42.506 42.506 0 0 0 6.351-4.311c5.595-4.912 10.773-12.357 15.536-22.338 9.299-19.882 13.947-43.809 13.947-71.78 0-28.122-4.648-52.163-13.947-72.12-4.763-9.902-9.941-17.271-15.536-22.111-2.042-1.738-4.12-3.213-6.238-4.423-3.7-1.964-7.518-3.022-11.448-3.172M211 305.109c3.704 0 7.106 1.133 10.205 3.401 5.594 3.554 10.584 10.282 14.968 20.185 6.955 15.346 10.434 33.941 10.434 55.79s-3.478 40.519-10.434 56.019c-4.838 10.507-10.281 17.463-16.329 20.865-2.721 1.589-5.669 2.382-8.844 2.382-9.828 0-18.144-7.748-24.947-23.247-7.031-15.5-10.546-34.17-10.546-56.019s3.514-40.444 10.546-55.79c6.803-15.723 15.119-23.586 24.947-23.586m11 66.224c-.681-1.739-1.588-2.985-2.723-3.743-.603-.376-1.322-.567-2.154-.567-1.89 0-3.476 1.438-4.762 4.311-1.361 2.948-2.042 6.427-2.042 10.432 0 3.932.68 7.258 2.042 9.979 1.286 2.948 2.872 4.423 4.762 4.423.756 0 1.361-.153 1.814-.452 1.21-.682 2.23-2.004 3.062-3.97 1.436-2.723 2.155-6.047 2.155-9.979.001-4.007-.718-7.486-2.154-10.434m63.842 14.969c0-28.123-4.725-52.164-14.176-72.12-2.645-5.745-5.441-10.619-8.389-14.629-4.536-6.121-9.413-10.355-14.629-12.699-.907-.302-3.024-1.096-6.351-2.381H216.33c3.932.15 7.748 1.21 11.452 3.174 2.118 1.208 4.196 2.683 6.238 4.422 5.594 4.84 10.772 12.21 15.536 22.112 9.299 19.957 13.946 43.998 13.946 72.119 0 27.972-4.648 51.897-13.946 71.78-4.763 9.98-9.942 17.426-15.536 22.338a42.422 42.422 0 0 1-6.35 4.311c-3.629 2.042-7.484 3.251-11.566 3.629 6.501 1.133 12.702 1.513 18.598 1.133 5.972-.376 11-1.396 15.082-3.06 4.233-3.779 7.974-7.485 11.227-11.115a65.964 65.964 0 0 0 1.586-2.267c3.554-4.536 6.577-9.524 9.072-14.969 9.448-19.881 14.173-43.808 14.173-71.778m-3.742-88.677c4.61 4.764 8.467 10.282 11.566 16.556 9.223 19.957 13.834 43.998 13.834 72.119 0 27.972-4.611 51.897-13.834 71.78-3.1 6.35-6.993 11.906-11.68 16.669-3.932 4.234-8.165 7.562-12.702 9.979 1.813.982 4.233 1.737 7.257 2.268 2.722.681 5.329 1.021 7.825 1.021 13.305 0 24.606-9.979 33.906-29.938 9.297-19.881 13.946-43.809 13.946-71.78 0-28.122-4.65-52.163-13.946-72.119-9.299-19.807-20.601-29.708-33.906-29.708-2.42 0-4.95.262-7.599.792-3.022.681-5.48 1.476-7.369 2.382 4.461 2.572 8.696 5.897 12.702 9.979z"/><path fill="#FC6" d="M221.206 308.513c-3.099-2.269-6.502-3.401-10.205-3.401-9.828 0-18.144 7.86-24.947 23.587-7.031 15.345-10.546 33.939-10.546 55.788s3.514 40.519 10.546 56.018c6.803 15.5 15.119 23.248 24.947 23.248 3.174 0 6.123-.793 8.844-2.381 6.05-3.402 11.492-10.359 16.329-20.867 6.955-15.499 10.434-34.169 10.434-56.018s-3.478-40.443-10.434-55.788c-4.384-9.904-9.374-16.634-14.968-20.186m-1.929 59.077c1.134.758 2.042 2.004 2.723 3.743 1.436 2.948 2.155 6.427 2.155 10.432 0 3.932-.718 7.258-2.155 9.979-.832 1.967-1.852 3.289-3.062 3.968-.452.302-1.059.454-1.814.454-1.89 0-3.476-1.475-4.762-4.423-1.361-2.723-2.042-6.047-2.042-9.98 0-4.005.68-7.482 2.042-10.432 1.286-2.872 2.872-4.309 4.762-4.309.831 0 1.549.192 2.153.568z"/><path fill="#FF8000" d="M293.666 314.181c-3.1-6.273-6.956-11.795-11.566-16.556-4.006-4.082-8.239-7.407-12.7-9.979l-6.124 11.905c2.948 4.01 5.745 8.884 8.39 14.629 9.451 19.957 14.176 43.998 14.176 72.119 0 27.972-4.725 51.897-14.176 71.78-2.494 5.443-5.518 10.432-9.071 14.969a62.89 62.89 0 0 1-1.587 2.267l8.277 9.413c4.536-2.418 8.77-5.745 12.702-9.979 4.685-4.763 8.579-10.319 11.68-16.669 9.223-19.881 13.834-43.809 13.834-71.78 0-28.121-4.612-52.162-13.835-72.119z"/><g><path fill="none" stroke="#531300" stroke-width="2" stroke-linecap="round" stroke-linejoin="round" d="M269.399 287.646c4.46 2.571 8.693 5.896 12.7 9.979 4.61 4.764 8.467 10.282 11.566 16.556 9.223 19.957 13.834 43.998 13.834 72.119 0 27.972-4.611 51.897-13.834 71.78-3.1 6.35-6.993 11.906-11.68 16.669-3.932 4.234-8.165 7.562-12.702 9.979 1.813.982 4.233 1.737 7.257 2.268 2.722.681 5.329 1.021 7.825 1.021 13.305 0 24.606-9.979 33.906-29.938 9.297-19.881 13.946-43.809 13.946-71.78 0-28.122-4.65-52.163-13.946-72.119-9.299-19.807-20.601-29.708-33.906-29.708-2.42 0-4.95.262-7.599.792-3.02.681-5.477 1.476-7.367 2.382l-6.124 11.905c2.948 4.01 5.745 8.884 8.39 14.629 9.451 19.957 14.176 43.998 14.176 72.119 0 27.972-4.725 51.897-14.176 71.78-2.494 5.443-5.518 10.432-9.071 14.969a62.89 62.89 0 0 1-1.587 2.267l8.277 9.413M216.33 284.473h-2.609c-12.548.831-23.283 10.734-32.205 29.708-9.524 19.957-14.288 43.998-14.288 72.119 0 27.972 4.763 51.897 14.288 71.78 8.694 18.747 19.277 28.766 31.75 30.05l.227-.113 1.813.226c.227 0 .492.037.793.114 4.083-.378 7.939-1.587 11.566-3.629a42.506 42.506 0 0 0 6.351-4.311c5.595-4.912 10.773-12.357 15.536-22.338 9.299-19.882 13.947-43.809 13.947-71.78 0-28.122-4.648-52.163-13.947-72.12-4.763-9.902-9.941-17.271-15.536-22.111-2.042-1.738-4.12-3.213-6.238-4.423-3.7-1.964-7.518-3.022-11.448-3.172h25.968c3.325 1.285 5.443 2.079 6.351 2.381 5.216 2.344 10.092 6.577 14.629 12.699M211 305.109c-9.828 0-18.144 7.862-24.947 23.586-7.031 15.346-10.546 33.941-10.546 55.79s3.514 40.519 10.546 56.019c6.803 15.499 15.119 23.247 24.947 23.247 3.174 0 6.123-.793 8.844-2.382 6.05-3.401 11.492-10.358 16.329-20.865 6.955-15.5 10.434-34.17 10.434-56.019s-3.478-40.444-10.434-55.79c-4.383-9.902-9.374-16.631-14.968-20.185-3.099-2.268-6.501-3.401-10.205-3.401zm8.277 62.481c-.603-.376-1.322-.567-2.154-.567-1.89 0-3.476 1.438-4.762 4.311-1.361 2.948-2.042 6.427-2.042 10.432 0 3.932.68 7.258 2.042 9.979 1.286 2.948 2.872 4.423 4.762 4.423.756 0 1.361-.153 1.814-.452 1.21-.682 2.23-2.004 3.062-3.97 1.436-2.723 2.155-6.047 2.155-9.979 0-4.006-.718-7.483-2.155-10.432-.68-1.741-1.587-2.987-2.722-3.745zm41.732 107.725c-3.252 3.63-6.993 7.336-11.228 11.115-4.082 1.663-9.109 2.683-15.082 3.06-5.896.38-12.096 0-18.598-1.133m-2.833-.226c.605.075 1.286.114 2.042.114"/></g></svg>