<svg xmlns="http://www.w3.org/2000/svg" xmlns:xlink="http://www.w3.org/1999/xlink" preserveAspectRatio="none" width="800" height="600" viewBox="0 0 800 600"><defs><linearGradient id="a" gradientUnits="userSpaceOnUse" x1="151.938" y1="105.05" x2="158.462" y2="105.25" spreadMethod="pad"><stop offset="10.196%" stop-color="#7E7E7E"/><stop offset="63.137%" stop-color="#FFF"/><stop offset="78.431%" stop-color="#BCBCBC"/></linearGradient><path fill="url(#a)" d="M160.85 10.05h-5l-6.35 191.2q-.05 1 .7 1.75.7.75 1.75.8 1 .05 1.75-.65.75-.75.8-1.75l6.35-191.35z" id="b"/><g id="c"><path fill="#FE9F36" d="M141 131.7h-1.15q-8.3.55-14.2 13.1-6.3 13.2-6.3 31.8 0 18.5 6.3 31.65 5.75 12.4 14 13.25l.1-.05.8.1q.15 0 .35.05 2.7-.25 5.1-1.6 1.45-.8 2.8-1.9 3.7-3.25 6.85-9.85 6.15-13.15 6.15-31.65 0-18.6-6.15-31.8-3.15-6.55-6.85-9.75-1.35-1.15-2.75-1.95-2.45-1.3-5.05-1.4m-2.35 9.1q2.45 0 4.5 1.5 3.7 2.35 6.6 8.9 4.6 10.15 4.6 24.6 0 14.45-4.6 24.7-3.2 6.95-7.2 9.2-1.8 1.05-3.9 1.05-6.5 0-11-10.25-4.65-10.25-4.65-24.7t4.65-24.6q4.5-10.4 11-10.4m4.85 29.2q-.45-1.15-1.2-1.65-.4-.25-.95-.25-1.25 0-2.1 1.9-.9 1.95-.9 4.6 0 2.6.9 4.4.85 1.95 2.1 1.95.5 0 .8-.2.8-.45 1.35-1.75.95-1.8.95-4.4 0-2.65-.95-4.6m28.15 6.6q0-18.6-6.25-31.8-1.75-3.8-3.7-6.45-3-4.05-6.45-5.6-.6-.2-2.8-1.05H141q2.6.1 5.05 1.4 1.4.8 2.75 1.95 3.7 3.2 6.85 9.75 6.15 13.2 6.15 31.8 0 18.5-6.15 31.65-3.15 6.6-6.85 9.85-1.35 1.1-2.8 1.9-2.4 1.35-5.1 1.6 4.3.75 8.2.5 3.95-.25 6.65-1.35 2.8-2.5 4.95-4.9.4-.55.7-1 2.35-3 4-6.6 6.25-13.15 6.25-31.65M170 137.5q3.05 3.15 5.1 7.3 6.1 13.2 6.1 31.8 0 18.5-6.1 31.65-2.05 4.2-5.15 7.35-2.6 2.8-5.6 4.4 1.2.65 3.2 1 1.8.45 3.45.45 8.8 0 14.95-13.2 6.15-13.15 6.15-31.65 0-18.6-6.15-31.8-6.15-13.1-14.95-13.1-1.6 0-3.35.35-2 .45-3.25 1.05 2.95 1.7 5.6 4.4z"/><path fill="#FC6" d="M143.15 142.3q-2.05-1.5-4.5-1.5-6.5 0-11 10.4-4.65 10.15-4.65 24.6 0 14.45 4.65 24.7 4.5 10.25 11 10.25 2.1 0 3.9-1.05 4-2.25 7.2-9.2 4.6-10.25 4.6-24.7t-4.6-24.6q-2.9-6.55-6.6-8.9m-.85 26.05q.75.5 1.2 1.65.95 1.95.95 4.6 0 2.6-.95 4.4-.55 1.3-1.35 1.75-.3.2-.8.2-1.25 0-2.1-1.95-.9-1.8-.9-4.4 0-2.65.9-4.6.85-1.9 2.1-1.9.55 0 .95.25z"/><path fill="#FF8000" d="M175.1 144.8q-2.05-4.15-5.1-7.3-2.65-2.7-5.6-4.4l-2.7 5.25q1.95 2.65 3.7 6.45 6.25 13.2 6.25 31.8 0 18.5-6.25 31.65-1.65 3.6-4 6.6-.3.45-.7 1l3.65 4.15q3-1.6 5.6-4.4 3.1-3.15 5.15-7.35 6.1-13.15 6.1-31.65 0-18.6-6.1-31.8z"/></g><path id="d" stroke="#531300" stroke-width="2" stroke-linejoin="round" stroke-linecap="round" fill="none" d="M164.4 133.1q2.95 1.7 5.6 4.4 3.05 3.15 5.1 7.3 6.1 13.2 6.1 31.8 0 18.5-6.1 31.65-2.05 4.2-5.15 7.35-2.6 2.8-5.6 4.4 1.2.65 3.2 1 1.8.45 3.45.45 8.8 0 14.95-13.2 6.15-13.15 6.15-31.65 0-18.6-6.15-31.8-6.15-13.1-14.95-13.1-1.6 0-3.35.35-2 .45-3.25 1.05l-2.7 5.25q1.95 2.65 3.7 6.45 6.25 13.2 6.25 31.8 0 18.5-6.25 31.65-1.65 3.6-4 6.6-.3.45-.7 1l3.65 4.15M141 131.7h-1.15q-8.3.55-14.2 13.1-6.3 13.2-6.3 31.8 0 18.5 6.3 31.65 5.75 12.4 14 13.25l.1-.05.8.1q.15 0 .35.05 2.7-.25 5.1-1.6 1.45-.8 2.8-1.9 3.7-3.25 6.85-9.85 6.15-13.15 6.15-31.65 0-18.6-6.15-31.8-3.15-6.55-6.85-9.75-1.35-1.15-2.75-1.95-2.45-1.3-5.05-1.4h11.45q2.2.85 2.8 1.05 3.45 1.55 6.45 5.6m-23.05 2.45q-6.5 0-11 10.4-4.65 10.15-4.65 24.6 0 14.45 4.65 24.7 4.5 10.25 11 10.25 2.1 0 3.9-1.05 4-2.25 7.2-9.2 4.6-10.25 4.6-24.7t-4.6-24.6q-2.9-6.55-6.6-8.9-2.05-1.5-4.5-1.5zm3.65 27.55q-.4-.25-.95-.25-1.25 0-2.1 1.9-.9 1.95-.9 4.6 0 2.6.9 4.4.85 1.95 2.1 1.95.5 0 .8-.2.8-.45 1.35-1.75.95-1.8.95-4.4 0-2.65-.95-4.6-.45-1.15-1.2-1.65zm18.4 47.5q-2.15 2.4-4.95 4.9-2.7 1.1-6.65 1.35-3.9.25-8.2-.5m-1.25-.1q.4.05.9.05"/></defs><use xlink:href="#b"/><g><use xlink:href="#c"/><use xlink:href="#d"/></g></svg>