<svg xmlns="http://www.w3.org/2000/svg" xmlns:xlink="http://www.w3.org/1999/xlink" preserveAspectRatio="none" width="800" height="600" viewBox="0 0 800 600"><defs><path fill="#121212" d="M156.05 176.1q.1-.25.2-.4v-1.15q-.65-.5-3.1-.05-1.75.35-4.35.85-.3 0-.65.05-.85.25-1.4.35-.05.15-.25.35.85.65.95.7 1.1.35 4.1.35 3.4 0 4.5-1.05m-32.8 14.15q2.5 0 3.75-1.2l.7-1.3q0-1.55-4-1-3.5.55-5.25 1.45 1.65 2.05 4.8 2.05m23.3-19.85q2.2.55 3.05.55 1.4 0 2.2-.65.6-.5.6-1.15h.45q-.05.65-.15 1.45 2.55-.2 2.55 1.85l-.1.65q-.1.3-.4.45.95-.05 1.5-1v-1.7q0-.5-.45-4.15-.25-.1-.55-.15-1.45-.25-2.1.75-.55.05-1.1.15-2.75.85-3.2 1.1-.2.05-2.7-.15-1.8 0-2.75.75.8.6 3.15 1.25m9.2-12.95q0-1.95.1-3.15-.7-.85-1.9-1.45-1.45-.7-2.35-.4.05.1.05.2 0 .45-.1.7-.35.65-1.2.65h-.05q-.1.35-.2.75-.4-.25-1.15-.75-3.55-.15-5.05-.85-1.1-.1-3.25-.3-3.45-.05-4.7 1.4 1.2 1.2 5.6 2.05.95.15 1.75.3 3.85.35 5.7.95 2.4.7 2.4 2.05 0 .45-.1.7-.2.25-.45.45l.1.1q-2.45.35-4.15.95-.9.3-2.9 1.35.3.25.5.45 1.1-1.1 4.75-1.15 5.3-.05 5.3 2.05l-.1.55h.25q.55 0 .95-.1-.3-2.75-.3-3.25.5-3.6.5-4.25M112 173.8q.45.45 3.45 1.4 3.2.9 4.8.9 2.15 0 3.45-.5.55-.2 1.2-.75-2.85-.6-6.4-1.4-2.8-.5-6.1-.25 0 .2-.4.6m6.65 17.75q-2.6-.9-3.3.15.45.65.8 1.35 1.7.25 5.7.65.65.05 1.25.15-1.6-1.4-4.45-2.3m-1.25-12.35q.6.45 2.5.6.7.45 1.55.45 1.55 0 2.75-.05l-.2.05q2.15-.2 3.2-.3 1.85-.15 2.3-.5-.25-.2-1-.4.25-.25.5-.6-1.2-1.05-5.35-.4-1.15.2-2 .45-3.4.05-4.25.7m1.95 3.7q-.15 0-.65.65 1.05.8 3.8 1.1.7.2 1.35.2.95.15 2.1.05.35 0 .7-.05h.55q1.35 0 2.3-.75l-.3-.1q.3-.2.55-.45-.95-.85-3.75-.7-1-.05-2.65-.05-3.6 0-4 .1m-7.05-24.55q.15.5.6.65.6.15 4 .15 4.45 0 6.85-.7 1.9-.5 5.25-2.25.2.1.4.15 2.1.85 2.6 1-1.05.45-1.6 1.8-.35.8-.85 2.4-.75 1.2-3.05 1.2-.65 0-8.55-.55-1.05 0-1.95.2 0 .2-.4.6 3.1 1.1 3.65 1.35.6.2 4.6.2 2.35 0 4.15-.25-.4.6-1.05 1.8-1.85 2.35-5.2 3.15-3.8 1-4.05 1.2.65.45.8.5.7.25 2.7.25 6.9 0 9.05-2.7.65-1.75 1.55-2.9.05-.15.05-.3.2-1.4.3-2.2-.1-.05-.25-.05.15-.1.3-.15.15-1.1.15-1.2.05-.75.45-2.05.4-1.35.55-1.8.25-.4.45-.7-.15-.05-.4-.05.5-.25.65-.35.05-.05.1-.05v-.35q0-.95-8-2.6-7.65-1.55-10.45-1.4 0 .2-.35.6.85 1.05 5.35 1.55 4.05.35 4.8.5-.45.2-.9.55-.6.5-6.15 1.4-5.6.95-6.15 1.4m17.35-14.65q.9 1 .9 3.85 0 .85.15 1.05.35.5 1.9.5 1.75 0 2.3-2.4.25-2.5.25-2.55 0-.35-5.25-2.95-5.8-2.9-7.85-6.75-.55-1.25-3.85-2.05-3.5-.9-3.85 1.25-.2 1.05-2.5 2.6-3.5 2.35-3.7 2.55 1.15.8 2.35.8 1.75 0 4.45-1.8 2.65-1.7 3-2.85 3.9 6.15 9.15 7.6 2 .6 2.55 1.15m-5.65 4.15q.35-.35.35-1.4 0-2.35-1.9-3.25-3.4-1.65-13.65-1.05l-.05-.05q-.05 0-.05.35 0 1.9 5.75 1.65 5.8-.25 5.8 2.35 0 .6-5.05 1.4-5.65.9-7.05 1.9.3.4.65.55.55.35 1.4.35 1.4 0 2.45-.6 1.25-.75 1.7-.85 2.8-.05 4.2-.1 4.35-.15 5.45-1.25m2.55-18q-3.45-2.9-3.45-5.5 1.8-4.4 1.8-5.3 0-5.4-4.9-3.35-4.9 2.1-4.9 6.1 0 2.05-2.1 4.2-2.9 2.95-3.8 4.75-2.2 4.2-2.3 4.35-2.35 2.85-7.4 3.7l-.05-.05q-.05 0-.05.35 0 1 2.05 1 5.5 0 9.2-4.55 2.7-4.65 2.9-5.05.4-.7 2.35-2.65 1.85-1.95 2.3-2.8.25-.4.8-2.55.45-1.7 1.5-2.55-.1.3-1 2.25-.55 1.2-.55 2.15 0 3.05 3.4 6.45 3.25 3.1 5.6 3.1.5 0 1.2-.2.65-.25.9-.4v-.35q0-.15-3.5-3.1M46.85 54.8q0-.5-.9-1.85-.85-1.4-1.45-1.6 0 .7-.75 5.65 0 3.3 2.3 8 2.45 4.7 5.75 7.95 1 .95 1 3.6 0 3.6.2 4.4.3 1.15.5 3.85.15.75.4 1.5 1.25-.95 1.8-1.4-.35-3.4-.6-5.2-.55-3.85-2.25-6.6-.55-.9-2.7-3.3-2.15-2.25-2.7-3.25-1.4-2.35-1.5-3.45.1-1.55.1-3.1 0-.85.35-2.6.45-1.8.45-2.6M12.1 86.85l-.15.25q.15.15.7.3.7.2 1.1.2 2.7 0 4.85-1 1.65-1.05 2.05-1.05 3.35 0 5.85 2.2 2.6 2.2 2.95 2.2.75 0 1.55-.15v-.7q0-3.05-7.8-3.95-7.65-.95-11.1 1.7m19.45-34q0 .85.6 1.5.65.6 1.5.6.9 0 1.5-.6.6-.65.6-1.5 0-.9-.6-1.5t-1.5-.6q-.85 0-1.5.6-.6.6-.6 1.5m8.85-2.6q-.9-1.35-1.75.15-.75 1.5-2.3 4.55-1.55 3-2.55 2.15-.9-.85-2.55-.4-1.75.45-3.1-.55-1.5-1.1-2.3-1-.9.05-1.45 1.45-2.95 8-2.95 8.6 0 .5.05.9-2.5.75-3.8 1.55-1.05.65-2.85 2.15-.15-.65-.7-.95-1.45 1.95-3.1 4.65-1.95 3.05-2.7 4.85-.55 1.45-1.7 5.05-.05.15-.1.35-.25.15-.5.4Q4.8 85.4 3.8 88q-.85 2.45-.85 4.2 0 .6.5 5.7 0 .7 2.65 2.25-.15.1-.3.1 1.45 1.5 1.9 1.5.3 0 .75-.2.95.5 1.95 1 1.3-.2 3.2-.15 1.5.05 2.55.15.1-.1.1-.25H17q.8 0 1.8-.4 1.85.2 2.15.15.5-.1.5-.95 3.45-1.15 3.45-3.55 0-.25-.1-.5 0-.1-.05-.15 2.7-3.15 3.15-3.75-.05-.1-.15-.15.6-.05 1.2-.15v-.65q0-.95-3.15-3.2-3.65-2.65-6.65-1.4 0 .1-.5.55 2.9.4 4 1 .95.9 1.75 1.45.05.05 1.1 1.45l.3.4q-.7.05-1 .4-.2.3-.4.7.05-1.3-.15-1.65-.3-.5-2-.5-1.5 0-1.65.35-.1.2.1.6 0 .95-1.9 1.45-1.55.4-3.5.4-.05 0-1.25-2.25-1.05-2-2.75-1-.5-2.35-1-3.95 1.6-2.85 4.5-6.1 6.15-7.05 9.4-7.05 4 0 7.55 6.9-.5-.35-1.15-.65-4.05-1.85-7.85-1.75-3.2.05-5.45 1.7-.35.25-3.2 3.1 0 .15.5.4.5.2.95.2 1.7 0 3.5-2.05 1.75-2.05 3.2-2.05 6.05 0 9.05 4 1.25 1.95 1.75 2.75.85 1.2 1.8 1.2h.1q.4.85.75 1.35.65-.55 1.2-.55.15 0 1.1-.15-1.55-4.2-2.5-6.4-1.85-4.35-4.35-7.5-5.6-7-17.35 4.5 2.05-3.3 2.95-5.55.85-.25 2.05-1.2.95-.9 1.8-1.8.4-.5 4.15-1.55 4.1-1.2 6.1-1.2.75 0 1.25.2 1 1.25 2.4 2.95 3.55 4.4 4.2 6.65.1.25 1.45 6.35.45 2.25 1.1 4 .6-.15 1.25-.25-.85-5.75-2.25-9.35Q38 72.25 33.3 67.8q-.05-.35-.15-.6 4.9.25 6.55 2.15.5 1 1.05 1.75-.1.45-.1.65 0 1.6 2.85 5.7 2.8 4 2.8 6.9 0 .4-.45 1.45-.45 1.1-.45 1.3 0 .05.4.9.8-.1 1.4-.1 2.3-.35 4.25-.55.1-.15.1-.2.15-.35.15-2.25 0-6.3-4.1-11.4-4.1-5.05-4.1-9.4 0-.15-.75-1.35-.75-1.2-1.2-1.65h-.65q.55 2.7 1.45 5.1-.35.65-.95 2.7-.3.8-.45 1.45-.6-1-1.25-2.3-2.25-2.95-6.65-4 0-.1-1.45-.05-1.3.1-1.8.3-2-.1-5.2 1l1.75-1.45q3.9-3.25 4.4-3.25 3.25 0 3.85.25.05 1.2.1 1.9.15.15.4.35.55-1.25 1.6-6.5.85-4.5 1.4-4.5 1.5 0 2 1.5.2.8.15 1.6 0 .95-.95 1.65-.85.8-.85 1.65v1.05q.1.55.5.55 2 0 2.45-2.35v-2.6q0-3.5-1-4.9m-13.55 9.2q.1.2.1.3 0 .5-2.55 2.15.9-3.45 1.7-4.25 0 .25.45 1.05l.1.3q.15.2.2.45M14.7 71.4q.2.3.45.75 0 .05.05.1-1.7 3.5-4.6 8.1-1.2 2-2.1 3.4 0-.05-.05-.05.55-1.8 1.2-3.8.2-.75 2.85-4.5 1.7-2.5 2.2-4m29.5-1.45q.85 1.4 1.85 2.7 3.35 4.3 3.35 9.15 0 1.3-.75 3l-.25.6q-.65-2.3-2.6-5.45-2.8-4.45-2.8-5.2 0-.25 1.2-4.8M36.3 49.4q.95 0 .95-1.15 0-3.1-4.55-.25t-4.55 5.85q0 1.25.7 1.5.95-.6 1.55-2.15.65-1.6 1.15-2.1.55-.5 2.15-1.1 1.6-.6 2.6-.6m-9.15-5.3q0 1.4.9 1.9 2.15.8 4.65 1.9.45-.5.45-1.45 0-1.5-3.05-2.95-2.95-1.5-2.95.6m0-4.65q-3.35-1.2-3.9-1.5.85.85 2.55 1.4 2.65.95 4.25 1.7l.15-.1q-.55-.5-3.05-1.5m.3-3.4q-2.05-.8-4.95-1.95 1.15 1.45 3.6 2.45.8.35 5.75 1.95l.4-.1q-.85-.75-4.8-2.35m7.25.65l.15-.1q-2.1-2.4-9-4.8 1.05.85 4.05 2.45 2.85 1.55 4.8 2.45m1.7-1.4q-1.15-.95-5.55-3.15-4.2-2.1-5.25-2.4 2.1 1.6 4.2 2.65 1 .55 6.2 3l.4-.1m22.1.6q-1.8-2.9-3.3-1.1-.35.45-.95 1.25-.35-.1-.75-.1l-1.7-1.3q-.35.1-1.25 1.3-.1.15-.2.25-.1-.05-.2-.15l-.75-.65q-.25 1.2-.45 1.9-.1.05-.3.1l.25-.95q0-.3-.75-1.45-.75-1.2-1.2-1.65-.4.4-1.45 4.3-1 3.8-1 4.5 0 3 7 20.1 4.25 10.3 6.5 15.35-1 5.2-1.3 7.05 1.4-.1 3.15 1.2 2.1 1.55 2.25 2.6l.5.3q.95-1.55 1.75-3.9 1.5-4.65 1.9-9.75.25-3.75 1.95-10.35 1.65-6.35 1.65-6.45 0-2.35 2.05-7.45 2.55-6.45 5.65-6.45l1.05-.1q-.75-.5-2.65-3.8-1.9-2.3-3.8 1.05-.3.9-2 3.25-1.45 2.05-1.6 3.2-.25 2.3-1.95 6.65-1.75 4.45-2.05 6.45-.8 4.6-1.05 6.6-.45 3.8-.35 6.7.05 1.35-1 3.35-1.15 2.3-1.6 3.1.45-1.85.7-3.25 1.3-6.6 1.3-11.2-.55-3.35-.55-5.1-.65-4.05-.65-4.8 0-4.4 2.85-9.1 3.1-5.15 7.85-7.45-.6-5.05-4.55-1.75-1.7 1.4-4.5 5.15-1.3 2.4-2.95 5.35-1 2.2-1 4.7 0 .7.3 2.4.3 1.9.35 2.65.05 1.55.5 4.95 0 .85-.15 2.2-.2-.6-.5-1.35-1.9-4.95-1.9-9.8 0-3.2 2.4-9.6 1.5-3.45 2.05-4.8 1.15-.25 1.8-1.3.55-.9.55-1.4 0-.25-.65-.6-.9-.65-1.15-.85-.45.15-.8 1.1l-.1.2q-.55-1-1.2-1.3-1.85 3.35-3.35 7.45-1.9 5.05-1.9 8.05 0 5.15 1.95 9.9 1.95 4.7 1.95 5.95 0 .6-.3 3.55 0 1.55-1 2.95 0 .3.6 1.35-.05.2-.1.5-.1.5-.2.95-2.4-5.6-4.75-11.4-6.6-16.35-6.6-20.05 0-.7 1-4.7.5-1.85.75-2.8.15.1.25.2-.05.4-.1.55v2.3q0 3.05.5 3.5 1.1-.25 1.35-1.1.15-.95.45-1.5 0 1.05-.25 2.85 0 1.25 1.1 3.6 1.1 2.4 2 3.1.8-1.1 2.25-6.3 1.45-5.15 1.45-6.85l-.05-.55q.8-1.3.95-1.5m-4.6 11.25l-.1.1q-.15.3-.15-.4l.1-1.4h.4q-.25.85-.25 1.7m-9.65-22.5q-.9-1.55-3.1-3.9-1.15 3.4-1.35 4.95-.05.5-.05 3.85v3.75q.3 3.3 1.8 3.3h.35q-.15.25-.35.6-4.6 0-8 1.8-2.8 1.5-2.8 2.8 0 1.15.65 1.45 1-.45 4.9-1.55.3 1.65 1.2 5.4.2.15.45.3.6-.8.6-2.05 0-3.1-.15-3.9l-.1-.4q.3-.05.55-.15 1.2-.35 2.1-.6-.45 1.65-.45 3.65 0 2.7.05 3.3.3 2.1 1.5 2.95.6-.6.6-1.8-1-5.15-1-6.4 0-.3.25-1t.25-1v-.1q1.8-.75 1.8-1.15 0-.3-.1-1.05-.05-.3-.5-.5 0-.65-.05-1.05 1.35-.85 1.95-3.3.25-3.8.25-3.85 0-2.2-1.25-4.35m-.75 5.5q.2-1.3.25-1.95l.35.35q.25.2.25.55 0 .7-1 3.05h-.1q-.05.35-.05-.3.2-1 .3-1.7M84.85 70.8q.55-1.85 2.25-3.1 2.2-1.35 3.4-2.3 4.65-4.2 7.25-6.35 4.65-3.65 10.4-5.5-1.25-7.2-8.1-2.55-3.65 2.45-9 7.45-6.7 4.45-8.05 6.2-1.6 2.05-1.6 6.65 0 2.15-2.2 15.4-.55 3.35-4.65 7.5-1.65 1.7-3.7 3.35.85.85 1.8 1.95 1.25 1.4 2 2.6l1.5-1.5q4.2-4.45 5.75-8.6 2.05-5.2 2.35-14.05.05-2.35.1-3.6.1-2.15.5-3.55m34.3-4.15q-2.75 2.25-3.35 3.2-2.65 4.05-4.3 12.1-1.55 7.9-3.45 13.65-3.25 9.75-6.3 9.75-10.45 0-17.85 11.3.15 1.15.25 3.15.75 1.2 1.1 1.9-.2.65-.6 1.7.25 1 .6 2.25.45 1.4 1.25 4.15.6-1.35 1.75-4.25 1.35-3.5 3.2-5.25 1.8-1.7 6.3-4.7 5.35-3.55 6.8-4.65-.2-.35-.5-1.05h.25q2.7 0 4.5-4.45 1.45-4.9 1.95-6.1.75-1.95 1.75-5.35 1.05-3.85 1.6-5.6 1.3-7.3 2.9-11.1 2.75-6.6 10.7-10.9-.45-.2-1-1.25l.2-.3q.7-1.2 1.05-1.5l-1.8-1.45q-.15.1-.65.75-1.1-.9-2.8 1.05-.3.3-3.55 2.95m-4.3-9.25q-.7-1.1-1.6-4.05-1.5-1.6-6.75 2.1-3.75 1.5-5.7 3.4l-3.2 3.2q-4.9 3.75-6.85 6.9-1.7 2.75-2.25 7.2-.35 2.45-.75 7.5-.55 4.5-1.3 7.45-2.25 8.55-9.55 14.55.7 1.1 1.2 2 1.35.85 2.35 1.75 2.2-1.15 5.3-5.5.8-1.15 1.4-2.15 1 .55 2.5.55 7.35 0 10.45-4.75.95-1.5 1.35-3.35.3-1.5.3-1.55.4-1.8 1.6-5.1 1.1-3.1 1.45-4.8.45-1.85 2.1-5.25 1.9-3.7 2.55-5.2 1.1-3.55 2-5.3 1.5-2.8 4.9-3.8h.15q1.3 0 2.25-.35l1.25-.05q-.15-.1-.25-.25.55-.2.85-.15l.25-.1q-.8-1.65-2.1-1.8-.85-1.3-3.65-1.85-5 1-6.85 4.4-1 1.85-1.9 5.3-.7 1.5-2.75 5.15-1.75 3.4-1.85 5.65-.05.85-1.25 2.6-1.25 1.85-1.35 2.55-.75 4.45-.75 5.4 0 3.75-1.85 5.5-2.25 2.1-7.35 2.45.2-.55.2-1.05 0-1.25 1.05-5.05 1-3.5.75-5.45-.25-1.95.75-5.05 1.35-4.2 1.55-5.35.55-3.25 1.65-4.95 1.65-2.45 5.65-4.6.5-.25 2.15-2 1.9-2.1 2.4-2.5 1.1-1.05 4.45-2.5 3.25-1.4 5.05-1.75M94.7 46.25q-1.1-1.95-2.75-.7-1.35 1-3.85 5.05-4.5 7.4-10.4 8.45-.25.05-.45.1.55-2.1 1.05-3.35 1.85-2.65 3.5-5 3.2-4.65 3.2-5.75 0-.25-.95-1.75-.95-1.35-1.6-2.25-3.55 3.8-6.55 10-3.2 6.45-3.25 10.85-2.1 2.25-3.35 6.2-1.55 4.8-1.55 10.7l.55 6.65q0 2.15-1.5 4.95-.4.75-.7 1.35.75.85 1.4 1.95.1.1 1.75 2.05.3-.5.65-1.1 1.5-2.65 1.5-5.05l-.55-6.7q0-5.3 1-9.75 1.1-4.75 3.15-7.05.1.2.25.45.2-.5.4-1.1.3-.25.6-.45 1.75-1.15 5.05-1.8 2.8-.55 3.85-1.7.75-.95 1.35-1.65 1.2-1.35 2.35-2.35 1.05-.8 3.25-4.2 1.95-2.95 4.25-4.1-.65-.5-1.65-2.95m195.95 137.5q0 .2-.35.6.15.05 1.85 1.4.9.65 2.4.65 1.2 0 2.15-.75-1-1.1-1.75-1.55-1.3-.9-4.3-.35m6.8-1.45q.05-.55.05-.6 0-1.1-2.7-1.25-2.95-.2-7.6.95.85.75 1.85.75 1.15-.1 1.6-.1 2.9 0 3.4.4.55.35 1.4.35 1.7 0 2-.5m1.05-3.55q0-1.15-1.6-2.5-.7-.55-1.35-.7.6-.1.9-.3l.25-.4q0-3.1-9.75-.3 1.4 1.05 4.45 1.15 2.15-.05 2.85-.1-.55.2-1.15.75 0 .05.05.15-1.05-.25-2.5-.25-2.1 0-4.1.25 0 .25-.4.65.7.45 2.45.9 2.2.55 4.8.65 1.45 1 2.95 1 2.15 0 2.15-.95m4.55-3.65q-.65.45-.65 3.85 0 3.6.6 5.8.15.45-.15 2.95-.15 1.75.95 2.7.7-.7.85-2.05.05-.45.05-2.35 0-2.25-.5-6-.55-4.2-1.15-4.9m-47.35 1.8q.7-.55 1.4-.55 5.3.55 5.9.55.5 0 1.2-.2.65-.3.9-.45v-.3q0-1.5-5.75-1.6-5.8-.1-7.4 2l.45.65q.6.4 1.6.4 1.1 0 1.7-.5m-4-8.6q-3.15 0-4.75-.45-.75-.3-1.15-.5.25.75 2.15 1.6 2.1 1 4.2 1l7.8-.65q-1.35-1.05-3.45-1.1-1.3-.05-4.8.1m2.05-10.75q0-.45-.25-.95-1.15-.65-2.6-1.6-1.25-.75-2.4-1.4 0 1.35.6 2.7h-8.35l10.7 2.55q1.05-.2 1.6-.5.7-.3.7-.8m27.4 2q0 .2-.4.6 1 1 1.45 1.5 1.3 1.4 1.3 1.75 0 .4-.05.35-.1-.05-.1 0l-1.35.15q-.75 0-2.8-.8-2.1-.9-3.85-.9-1 0-1.95.2 0 .2-.35.6.2.05 3.4 1.6 2.6 1.2 4.05 1.2 1.85 0 3.25-.15.75.55 2.6 1.25 2.25.85 2.5 1.85l.25.3-2.55.2q-.65 0-2.55-.65-1.9-.7-4.1-.7-2.65 0-3.35.4-.45.25-.9.85 1.05.8 2.2.7 1.35-.3 2.35-.3.5 0 2.75.7 2.2.7 3.5.7 3.9 0 5.65-.65 1.3-.45 1.3-1.15 0-1.35-3.45-3.4-1.5-.85-2.85-1.1.6-.55.6-1.4 0-.8-2.2-2.85-2.5-2.3-4.35-.85m.25-6.3q-.8.05-1.4.6-1.3 1-1.3 2.6-1.2-.15-6.25-1.35-3.65-.85-7.2-.85-1.75 0-2.55.35-.4.2-.7.55 1.25 1.05 6.1 2 3.2.55 6.45.8 2.75.65 5.05.65l4-.1q-.4-.35-1.6-.65 1.25-.35 1.4-1.05v-.05q-1-1.35-2-3.5m-23.95-18.55q1.35 0 2.55.1 2.45.2 3.15.25.15 0 .3.2.1.2.45.2 1.6-.1 3.05-.2 1.1.3 5 1.9 2.2.9 3.65 1.35 0 .15-.1.35 1.15.7 1.15 1.2 0 .45-.1.7-.3.65-1.2.65-.55 0-3.15-1.1-.6.25-1 .8-1.05 1.15-2.05 1.15-.85 0-2.25-.9-1.45-1-4.25-1-1.4 0-3.3.4-1.9.45-2.5.9.65.4 6.55 2.3.4.2 1.4 1.6.75 1 2.6 1 .35 0 1.2-.35.8-.3 1.1-.3.4 0 1.6.45 1.25.45 1.75.45 2.95-.35 3-.35-.15.45-.65 1.55-.35 1.05-.3 1.7-3.75-.1-7.8-.1-4.55 0-6.65 1.15-3.55 1.9-4.55 2.2 1.25.8 2.3.8.85 0 3.9-1.1 2.9-1.1 2.95-1.1.15 0 .6.1.25.3.7.7.7.6.95.6 6.05 0 9.3-.9 2.05-.65 2.8-.4l.15-.1q-.1-.15-.2-.25.3-.15.45-.25v-.3q0-.25-.4-.65-.35-.45-.35-.6l1.1-2.65q-.1-1-.1-2.2 0-.75.2-1.2l-.1-.1q-.85-.7-.85-.9 0-.3.25-.7.25-.4.25-.8 0-1.15-.15-2.05 1.6-.35 2.2-1.5.65-1.9 1.3-2.45-.9-.7-2.1-.75-.3-1.55-2.55-1.3-1.5.15-4.85.75h-.3q-.3-.5-.5-.45-1.35.4-3.85.55-2.7-.85-3.85-.85-.3 0-1.05.25-.65.25-1 .25-2.85 0-9.15-2.4-6.2-1.25-11.95 3.95 1.1.75 2.3.75 1.6 0 3.25-1.6.85.35 2.25.35 2.1-.55 2.75-.55 3.55.8 4.7.8m-7.65-2q.75-.3 1.6-.3.25 0 2.9.7-3.2-.35-4.5-.4m53.6 6.25q-.25 1.35-.25 2.35 0 .2.65.7.45.95 2.35 4.55-.35-1.9-.75-4.15.45-.8.6-2.1.1-.85.1-3.1 0-.3-.85-.9-.05-.05-.1-.05.1-1.25.3-2.75.05-.15.1-.45-.1-1.5-.15-6 0-4-.8-5.45-.3.75-.8 7.15-.4 6-.4 8.45v1.75m-7.95-19.6q0-1.75-.9-2.15-.85 2.4-1.3 5.25-.2 1.6-.4 5.2-.15 3.2-1.1 5.5-.95 2.2-.95 4.1v.4q-.1-.05-.25-.1l.4 1.1q.05.05.05.15 2.1 6.1 2.1 9.75 0 3.35-1 6.95-1.05 3.65-1.05 5.35 0 1.55.1 1.95.35 1.15 1.8 1.75l.25-.1q0-3.8 1.05-7.6 1.05-3.7 1.05-6.65 0-1.8-.7-3.75-.5-1.6-.6-2.15.55-.85.85-2.6.35-1.7.35-2.8 0-.75-.7-2.75-.6-1.85-.6-1.9l1.55-14.9m-9.4-9.75q1.3 1.45 2.95 1.45.9 0 1.55-.05.2.2.4.45.55-.15.8-.75 1-.4 1.15-1.15-.35-1.85-.05-2.55-.1-.15-.8-.35-.8-.25-1.25-.25-.15 0-.35.05-.25-.2-.55-.4-1.5-.95-8.85-3.75-2.1-.85-5.3 2-2.95 2.55-2.95 3.65v.15q-1.9.85-5.3 2.4-7.85 3.25-11.75 3.25-.4 0-2.95-.3-2.6-.35-3.15-.35-1.65 0-2.6.75 1.5 1.65 7.15 2 5.6.05 6 .05.3 0 10.85-3.9 10.55-3.9 11.9-3.9 1.85 0 3.1 1.5m-5-3.2q.2 0 .4.1h-.15l-.25-.1m-41.7 56.35q.65.45 1.3.55 1.1.2 4.6.2 9.4 0 10.85-2.05-.5-.4-3.95-.15-5.2.4-7 .4-1.25 0-2.5.15-2.5.2-3.3.9m-8.5-19.8q.65 1.15.9 1.45.7 1.05 1.7 1.6l.35.15h-.2q-1.65-1.4-5-.5-1.95.6-6.5 2.15 1.1.8 2.5.8.8 0 1.6-.05.05 0 .1.05.5.25 1.9.25.3 0 1.4-.3 1.05-.35 4.25-1.1 3.25-.7 5.45.75 2.2 1.4 1.8 2.3-.45.8-.35.9-1.05.05-1.9.8l.5.2q-3.75 0-4.5.55l-.55.65q-.3.4-1.1.55 1 .85 5 .85l-.15-.35q3.15-.8 4.1-2.35.75-1.3 4.65.15-2.55-1.8-4.1-3.25-3.25-2.7-5.25-4.35-1.05-.5-1.45-.9-1-.95-2.2-1.45-1.85-.75-2.95.45m8.8-20.75q-.75.2-1.3.65.1.3.25.7-.25.35-.55.75-1.6 1.45-2.05 1.65-.85.4-3.85.75 1.5 1.55 1.9 1.55.493 0 1-.05l-.05.05q.7.5.85.55.8.25 2.1.25 3.15 0 4.7-1.15 1.4-1.1.7-2.35 8.6-1.9 10.2-1.9 2.2 0 3.3.95 1.1 1 5.8 1 4.4.6 5 .6 1.35 0 3.2-.65 2.9-1.05 3.6-1.25 2.4-.6 3.15-1.95.6-.3 1.15-.5h.1q.4 0 .7-.05.5-.2.95-.45 1.4-.3 2.7-.3l.65-.1q-.6-.5-1.4-.75.05-.05.1-.15.25.05 3.2 1.5 2.35 1.05 3.25 1.05 1.1 0 2.05-.75-2.6-2.45-8.35-3.85-.9-.25-4.2-1.65-2.3-.7-2.4 1-1.4.05-2.7.4-5.15 1.45-7.55 1.5-3.6.85-6.85 1.8-1.05.3-2.1.65h-1.95q-.8-.25-2.65-.75-3.3-.9-3.95-.9-.85 0-2.9 1-.25.1-.45.2-.55-.1-1.25-.2-2.85 0-4.1 1.15m25.15.25l-.1-.1q.15 0 .6-.05-.05.15-.15.35-.15-.15-.35-.2m4.85-52.8q-.55-.7-1.45-1.25-3.85-2.45-13.5-3.05-2.65-.9-7.35-2.3-3.55-1.2-4.05-.35-.1.3-.25.5-4.5.15-19.15.85-7.15.7-11.2 1.25-.85-.15-1.9-.25-1.75.45-4.45 1.05-3.3 1.15-12.25 2.4-.55.1-1.1.15-.3.2-.8.2-.15 0-4.8 1.25-.3.15-.8.3-.95.3-1.95.45-.45.3-1.5.85-.3-.05-.75-.05-6.4 2.85-16.6 2.85h-.4q-.45.05-.95.05-2 .1-4.35 0-.3-.25-.6-.45-.95-.7-1.3-.15-1.4-.95-4.25-1.55-5.1-1.15-7.1-2.45-.7-.45-2.5-2.05-1.65-1.05-2.6.55-.15.2-1.05 1.55-.5.75-.7 1.25-1.4-.75-3.65-1.7l-1.3-.5q.6-.75 1.1-1.3 1.8-1.8 4.4-2.6-1.65-2.3-5.15-.2-2.15 1.2-2.9 2.35-.9-1.3-2.6-.75-4.4 1.35-5.9 4.85-.55 1.3-1.25 4.5-.75 3.4-1.2 4.65-.8 2.2-2.95 9.65-1.7 6-3.25 9.4-2.65 6.3-3.45 9.45-.45 1.7-4.8 4.4-4.8 3-5.65 4.15-2.1 3.25-2.75 9.4-1.6 4.5-9.35 6.6.7.6 1.5 1.3 1.4 1.15 2.25 2.05.35-.15.75-.3 2.85-1.2 3.25-1.2.3 0 .5.2.25.3.8.5 2.4-2.25 3.95-8.05 1.65-5.95 3.85-8.15.5-.5 5.2-3.4 3.5-2.2 3.95-4.1 1.7-6.3 2.6-8.45 1.1-2.6 2.9-8.5 1.85-5.75 3-8.4 1.95-7.25 3.25-10.75 1.8-4.9 5.15-5.65-.15.35-.4.75v-.05q-.15.15-.25.45l-.3.5q.05.05.05.1-.5 1.5-1.55 4.8-1.15 3.95-3.1 6.35-2.15 2.7-2.85 5.9-.5 2.2-.5 6.1 0 1.95-1.9 4.85-1.85 2.9-1.85 3.1 0 .15 2.45 4.05.25-.35.45-.6.5 1.2 1.25 2.4 2.95 4.35 3.7 6 1 2 1.8 5.4 1.1 4.25 1.55 5.55 2.1 6.1 5.75 11.2 1.65 2.25 1.6 5.5-.05 1.85-.4 5.55 0 2.05.75 2.05 1.6 0 3.15-4.7 1.25-4.7 1.25-4.75 0-1.95-.75-3.9-.7-1.9-.7-2 0-.05.55-1.75.65-1.75.65-2.95 0-2.35-4.05-9.55-4.2-7.6-4.3-7.95-.4-1.8-2.15-4.35-1-1.4-3.15-4.3.05-2.95.1-4.5 0-.8-.1-1.45 2.45-3.8 4.05-7.35 3.6-8.1 3.4-16.9v-.15q0-.2.4-.2.85.4 1.85.8 2.15.85 6.4.85h.05q.05 1.15.3 2.8-.05-.05-.6-.8-.5-.7-.95-1h-.65q-1.1 4.2-2.45 9.85-1.5 6.2-1.5 6.8 0 .1-.5 1.85-.55 2-.8 3.9-.15 1.2-.45 3.1-.2 1.45-.2 2.7v.05q-.4.55-.4 1.35 0 1 4.05 7.55 1.45 2.35 2.55 4.1.45 1.2 1 2.65.1.35 1.35 3.5 1 2.35 1.1 3.8.2 1.85 1.1 3.6 1.15 2.2 3.3 3.6-.2.4-3.2 6-3 5.9-3 7.7 0 .95.4 1.9 0 .05-.05.1.35-.05.75 0 5.6-5.85 7.05-7.7 3.45-4.75 3.45-7.75 0-3.8-3.8-8.45-3.7-4.6-3.7-5.6.8-7.05.8-7.7 0-2.3-2.1-8.3-1.25-3.7-2.3-5.85 2.6-4.8 2.6-6.4-.65-5.95-.65-6.55 0-.45.5-2.6t.5-3.1q.05-4 1.2-4t1.9.2q.65.2 2.95.2l1.45.4q-.25 1.85-.8 4.3-.3 1.45-1.05 4.5-.2.95-2.1 4.6-1.75 3.3-1.75 4.5 0 .4 1.55 2.5.4.55.7 1 1.1 2.05 3.05 5.75 4.1 7.7 4.1 9.7 0 .25-.4 1.45-.35 1.2-.35 1.45 0 1.85 2.7 6.95 2.8 5.1 2.8 10.7 0 3.75-2.6 7.35-2.65 3.6-2.65 5.4.1 2.25.75 2.25 5.3 0 7.05-5.05.25-.6.95-6.4 1.55-10.4 1.55-11.9 0-3.35-3.1-9.3-3.1-6-3.1-6.8-.05-3.3-2.1-7.45-2.05-3.7-3.45-6.45 1.75-2 2.35-3.2.85.5 1.85.95.2.25.5.55 2.35 2.05 3.75 3.35Q171 102.7 172 110.5q-.15.45-.3.95 0 .6.5 1.05v.05l.1 1.3q.1 3.4 2.15 11.35.4 1.8.8 5.8.6 3.4 2.6 4.7-.55 1.7-3.1 5.55-2 2.9-2 5.3 0 2.05.75 2.05 1.3 0 1.7-1.5.55-2.15.6-2.25 1.1-1.2 1.7-1.9 1.1-1.25 1.4-2 1.55-3.4 1.75-4.1.3-1 .3-3.35-.45-3.2-.9-6.5-.9-6.65-.9-12 0-1.1-1.5-7.45-.25-1.1-.5-2.05 1.8-.65 2.65-3.15.65-3.85 1.05-4.6 2.25-3.8 2.55-4.45.65-1.55.65-3.9 0-1.85-1.05-3.95-1-2.1-1-2.75 0-.4 1.95-2.85 2.3-2.95 3.05-3.9 1.1-1.65 3.85-3 3.85-1.95 8.65-1.8v-.5q4-.5 6.85-.9.05.05.05.1.25.8.55.8 2.85-.75 8.2-1.45-.6.7-1.3 1.65-2.25 2.85-4.35 3.9-7.3 3.6-18.25 5.65 0 1.95-.45 2.75t-.45 1q1.05 1.95 2.1 3.85 2.15 3.75 2.15 4.1 0 .2-5.9 5.7-5.95 6.3-5.95 10.3 0 .35 2.45 7.65 2.45 8.45 2.45 14.25 0 4.65-.5 6.65-.6 2.2-1.9 4.1-1.2 1.6-1.2 2.15 0 .25 2.55 4.4 2.4-1.05 3.45-5.85.7-3.25.7-7.35 0-6.05-2.5-14.2-2.4-7.15-2.4-8.05 0-3.85 5.9-9.95 5.95-6.05 5.95-6.6 0-1.1-.05-1.25-.1-.55-.85-1.55l.9-.1q-.3-1.9-.3-2.5 0-.6.9-2.5.95-1.9.95-2.05 0-.4-.45-.9-.55-.75-.6-.85v-.1q1.4-.25 2.65-.55.25.3.45.3 2.05 0 10.85-2.45 9.5-2.85 11.65-3.45 6.9-1.9 9.8-3.35 1.65-1.35 2.75-2.1 2.1-1.5 4.3-1.5.65-.65 1.7-1.3.3-.2.6-.35 1.1.2 2.2.5l.3.1q-1 1.05-2.35 2.6-.8.55-1 1.85-.2 1.65-.45 2-.4.75-1.25 1.7-.95.65-2.05 1.55-2.1 1.4-4.1 2.25-.55-.25-1.85 0-2.25.4-14.15 3.4-2.85 1-9.45 3-5.2 1.9-5.2 3.8 0 .85.2 1.35-.95.65-.95.95l.8 2q-.3.45-.3 1.2l-2.6 7.3q0 .3.75.85-1.1 1.2-3.2 2.75-1.4.95-1.4 2.3 0 1 1 2.75 2.65 6.95-.2 12.85-3.75 7.95-3.75 9.65 0 .15 2.45 4.05h.75q.25-2.4 3.95-10.35 3.55-7.8 3.55-8.05 0-.9-2.35-4.25-.55-.8 1.35-6.45 1.35-1 2-2.6.5-2.2 1-3.3.8-1.75 3.65-2.85-.15-.2-.4-.55.25-.4.4-1 .4-2.25.4-2.35 0-.1.7-1.7l.3-.6q.85-.8 1.45-1.35 3.9-1.75 6.15-2.7 2.6-1.1 4.95-2 9.25 0 13.15-2.35 2.05-1.25 2.35-2.9.85-.45 1.6-.9 1.55-1 4.95-3.6 1.25-1.1 2.35-2 1.3.2 3.2.2 2.1 0 4.55-.5 2.35-.55 8.05-.55.4 0 4.3.9 1.15.25 2.05.45-7.1-.15-12.25 2.25-3.2 2.3-9.05 6.9-1.95 1.45-3.95 2.7-3.65 1.15-9.65 2.3-8.65 1.65-8.65 4.05 0 1.05.3 1.55-.6.65-.8 1.3-.3 1.35-1.15 3.45-1 2.6-1.25 3.5-.8 2.45-6.05 6.6-5.15 4.1-5.95 6.6-.25-.45-.6-.85-1 .75-1.65 2.25-.6 1.3-.6 2.3 0 .75.4 1.5.4.8.4.95 0 3.25-3.25 7.75-1.45 2.05-2.25 3.25-.4.25-.8.55-.9.8-.9 2.35 0 .3.25 1 .3.85.65 1.15.75-.6 1.25-1.05 1.8-.1 3.3-3.15 1.9-3.8 2.4-4.2 1.25-1 2-3.6.7-2.15.7-3.85 0-.35-.3-1.3-.25-.95-.25-1.3 0-2.15.95-3.05.55-.6 2.5-1.25 4.8-1.75 7.75-6.5 2.75-4.5 4-11.3 10.05-2.35 18.95-8.05 3.1-.95 3.85-1.45 2-1.6 3.4-2.6 2.6-1.9 3.55-2.05 14.35-2.55 14.5-2.55 6.35 0 12 1.45 1.2.35 2.3.75.25.65.7 1.25.95 1.2.95 1.6 0 1.75 3.1 4.65-1.15-.25-2.85-.45-6.6-.8-11.8-1-8.05-.3-10.05.85-.75.45-1.6 1.3-.75-.2-1.75-.3-4.25.45-8.05 2.9-4.35 2.75-7.8 3.55-.15.1-5.15 2.1-.25.05-.45.1-1.1.35-2.2.95-2.95 1.15-3.55 2.55-.95 1-1.9 2.15-3.6 4.75-3.6 8.35 0 1 .05 1.2.05.1.75 1.15 2.3-4.9 3.4-6.45 2.15-3 5.65-5.05.05.25.1.65.4.7 2.4.7 13.05 0 19.8-4.55 3.4-2.2 4.45-4.6 1.35-.35 4.15-1.3 4.75-1.65 5.95-1.65h1q4.25.5 6.1.5h.45q3.1.4 3.55.4.25 0 .4-.3 1.8.1 2.6.4.5.55.95.55 1.05 0 1.25-1.05l.05-.95q0-.45-.05-.75.3.2.55.4.85.7.8 1.65-.2 1.7-.15 1.85.15.75.95 1.95.8 1.2.8 1.35 0 .15-.55 1.75-.55 1.8-.55 2.95 0 2.35.9 3.1.55-.45.65-1.25v-1.5q1.7 1.1 3.55 3.15 1 1.15 2.85 3.45.8-.25.8-2.05 0-1.8-3.4-8.2-3.4-6.4-3.4-6.9 0-7.25-5.6-11.7-.25-1.8-2.7-2.8-.75-.35-1.95-.65.05-.25.05-.5 0-2.45-4.3-5.55-3.6-2.5-8.85-4.55l-.3-.6q-.8-1.1-2.15-1.4-.7-.1-2.2-.25M172.2 85.8q0-2.05.5-2.85 1.35-2.5 2-3.95h3.15q.1-.05.15-.05.15.05.15.45 0 1.05-2.75 9.35-1.2 3.65-1.85 6.25l-1.35-2.15q-.85-1.25-1.9-.7-1 .55-1.8-.65l-1.05-1.7q-1.2-1.8-5-3.7 0-2.3-.5-6.05V78.7q2.55-.1 4.65-.25-.3 1.3-.3 2 0 1.15 2.2 4.35 1.85 2.7 3.2 4.1l.75-.1q-.25-2.3-.25-3m51.6-12.6l-.15.1q-.25.1-2.45.55.85-.4 2.6-.65m-73.35-.6q.05-.1.15-.15l-.05-.05q.3.15.65.25-.35-.05-.75-.05M147.6 71l-.45-.15q.05-.05.1-.05.25.15.35.2m10.95 31.4v-.05l.05.05h-.05z" id="a"/><path fill="#121212" d="M236.6 225.7q-2.55 3.6-4.2 7.95 2.2 1.35 6.85.8 5.55-.6 6.4-6.55l-9.05-2.2m55.8 8.65l-.9-7.05v-.25l-8.5-2.1-2.2 2.95q-.55.9-1.65 2.25-.95 1.05-1.35 1.85-2.65 3.6 3.4 3.75 6.1.85 11.2-1.4m-172.5 2.8q3.1-4.3-1.9-6.75l-6.75-1.85q-3.65 5.55-2.45 9.3 6.45.6 11.1-.7m39.65-9.85l-5.5-2.65q-4.15 4.45-5.15 10.75l8.05.3q3.05-.4 3.7-2.75.6-2.2-1.1-5.65z" id="b"/><path fill="#121212" d="M38.45 50.6q-.9 2.1-3.05 4.05-2.1 1.9-5.45 1.85 1.5 1.55 1.9 1.55 4.25 0 6.65-2.6 1.75-1.8 1.75-3.35 0-.35-.6-.75-1.05-.6-1.2-.75m24-21.35q-.1.05-.1.4 0 .7.55 2.95 0 1.3-.15 1.85-.3 1.05-1.15 1.7l1.7 1.4q-.2.2-.5.9-.2.5-.7.8l1.9 1.8q1.8-1.05 1.35-4.5-.45-3.3 2.7-4.65.1.35.1-.3 0-.55-2.4-1.45-2.15-.8-3.1-.9h-.2m17.7 7.65q.8-1.4.35-2.25l1.15-.1q-.55-.35-1.55-1.5-1.05-1-2.5-.5.05.05.05.4l-1.15.15q.8.4.8 2.05 0 1.05-2.05 2.6-2.05 1.5-2.05 2.3 0 .25.4.55.7.45 1.5 1.5.45-.5 2.3-1.9 1.45-1.2 1.7-1.7.6-.9 1.05-1.6m-8.9-.4q1.65-2.7 4.35-3.95l.65-.1q-.7-1-2.65-1.7-2.4-.85-5.05-.5.85.35 1.1 1.25.15.45.35 1.45-.55.3-2 3.1-1.5 2.75-1.5 3.1 0 .25.85.85.95.7 1.05.8.6-.6 2.85-4.3M57.5 28.2l.5.75q-.9.7-1.4 2.75-.4 1.6-.4 2.95 0 .45.8 1 1.05.7 1.1.8.55-.5 1.35-3.05.65-2.25 2.5-2.9-.15-.1-.4-.25-.2-.2-.2-.6L60 28.9q-1.55-.7-2.5-.7m-.7 1.1q0-.2-.25-.45.15.05.25.1l.15-.1q-.05 0-1.45-1.4-.7-.75-3.95.25.4.55.75 1.85.15.5.2.9-.6.45-1.45 1.1l1.15 1.05q-.1.3-.25.55-.65 1.1-.65 1.8 0 .5.65.95 1.05.8 1.25 1.05 1.55-3.1 1.55-4.1-.1-.4-.25-.7.45-.35.75-.6 1.55-1.35 1.55-2.25m80.5 38q-.15-1.05-.15-1.45l.1-.6q1.15-.25 2.95-.35-.95-.45-2.1-1.85-1.45-1.25-4.65-1.15 0 2.15.2 3.25-.6.15-.9.45-.25.25-.8.4.55 1 3.5 3.1.85 0 .6-.25l-.1-.25q1.25-.3 1.35-1.3m-7.6-8.6q-1.8-1.5-4.7-1.45l1 2.35q-.5.6-.65 1.35-.1.55-.85.95 2.75 2.35 3.75 3.35.3-1.25.75-2.1.8-1.55 2.85-2.3-.7-.45-2.15-2.15m-17-.15q2.55 2.55 3.2 2.55 4.15 0 6.3-2.5 1.4-2.5 1.9-2.5.35 0 .75.25.35.3.55.4l.4-.1q-.85-1-3.15-2.35-2.15-1.4-3.6-1.9.95 1.9-.55 3.2-1.45 1.3-5.6 2.45 0 .4-.2.5m-2.65-12.1q.15.6.85 2.6.45 1.3.45 2.15 0 .35-.25.85-.2.6-.2.9 0 .45-1.55.95.5.55 1.6 1.45 1.35 1.15 1.6 1.15 1.35 0 3.25-2.25 2-2.6 2.9-2.9-2.05-2.4-2.75-3-2.35-1.75-5.9-1.9m-20.25-1.3q.2.35.2 1.3 0 .25 1.35 1.3 1.8 1.45 1.9 1.55 2.35-3.75 3.5-5.35 1.9-2.8 4.7-1.95 0-.1.15-.2v.7q.05.2.3.55.2.45.2.85 0 .5-1.05 2.2-1 1.7-1.5 1.9.05.05.35.15.15.05.15.4 0 1.05-1.25 2.3 2.55 2.55 3.2 2.55 1.45-1.85 3.05-3.85 3.3-4.05 4.55-5-1.15-.55-2.45-2.05-1.7-1.15-5.55-1.2v.4q-2.6-2.15-3.75-2.75-2.2-1.3-5.3-1.75.35 3.3.2 4.05-.4 2.3-2.95 3.9M88.45 36q-2.55-1.45-5.25-1.65-.15 1.05.1 3.05 0 1.3-.45 1.65-1.35.95-2.55 2.5v1.3q.85.85 1.5 1.4 1.35 1.2 1.65 1.2 1.45-1.4 3.1-2.95 3.3-3.15 4.9-3.85-.75-1.35-3-2.65z" id="d"/><path id="c" stroke="#121212" stroke-width="2" stroke-linejoin="round" stroke-linecap="round" fill="none" d="M111.25 228.55q1.2-1.8 2.9-3.8 3.2-4.9 3.7-11.6.5-6.9-1.65-19.55-3.7-18.05-4.9-23.3-2.4-10.85-4-14.85l-5.65-4.85-5.6-11.55q-6.05-4.2-8.85-10.1-3.1-6.7-3.65-18.55-6.2-2.65-8.5-8.3-4.9-2.95-6.3-9.4l-11-8.35q-8 5.4-15.9 3.2-5.9-.2-16 7.9-.75 8.85-17.95 6.9Q.15 97.4 2.65 88.4q5.4-12.55 14.45-22.8l6.85-13.75q1.6-5.7 4.85-9.75 2.95-3.7 7.9-6.75-1.55-3.35-.45-8.4 1.05-5.15 4.65-10.9 4.35 4.75 6.3 9.35 1.95 4.75 1.65 9.9 18.6 1.8 35.35 8.25 10.15 3.95 26.65 13 16.35 9.05 24.9 12.3 14.5 5.6 30 6.1 6.7-.8 19.65-3.8 16.9-3.9 22.45-5 28.85-5.55 48.35-.9 16.85 4 28.1 13.15 10.95 8.85 16.15 22.15l4.1 12.8q2.75 42 .45 54.15-3.2 10.15-.45 23.4l-7.95-5.35q-1.95 10.4.15 20.1l1.3 15.05q1.3 3.3-.35 5.1-1.75 1.9-6.25.75l.05.5 1 .2-1 .05.9 7.05q-5.1 2.25-11.2 1.4-6.05-.15-3.4-3.75.4-.8 1.35-1.85 1.1-1.35 1.65-2.25l2.2-2.95q.5-.7 2-3 1.45-2.15 2.35-3.3l.85-17.5q-2.1-16.9-9.15-22.9-7.55-5.5-25.35-21 1.6 8.6 11.1 17.85-.3 11.45-8.35 31.35-2.55 9.4-1.9 17.7-8.7-.05-8.9 3.75-.85 5.95-6.4 6.55-4.65.55-6.85-.8 1.65-4.35 4.2-7.95 2.65-3.7 6.25-6.7 5-9.85 5.65-20 3.35-11.65-2.95-20.5l-24.2-30.05q-2.65-3.4-7.55-5.9-10.7 6.05-26.5 7.8-10.8 1.15-32.3.7l1.8 44.85q5.85 17.1 6.2 24.2.25 5.95-3.45 7.2 1.7 3.45 1.1 5.65-.65 2.35-3.7 2.75l-8.05-.3q1-6.3 5.15-10.75 1.45-4 1.2-9.55-.2-5.55-2.1-11.6l-5.2-11.95-5.25-13.75-9-18.9v-.05q-3.65 13.6-5.65 27-1.8 12.65-1.55 21.75-1 6.65-1.15 9.45-.25 3.6.15 7.95-4.15.75-7.5 5.4 5 2.45 1.9 6.75-4.65 1.3-11.1.7-1.2-3.75 2.45-9.3l6.75 1.85m113.65-115.25q-4.3 6.45-4.15 13.2.05 2.15.6 4.05 1.25 4.8 4.15 7.7 4.4 3.95 11.45 9.25 7.3 5.45 10 7.9m-25.6-24.85q-6.7 5.9-14.3 10.15m77.7 24.25q3.25-15.4-.5-29.7 3.3-13.75 4.2-28.95-.45-5.15-2.8-8.35 2.55 21.85-8 35.1-4.85 5.35-4.6 13.55 3.1 11.5 9.85 17.05l1.85 1.3 1.85 1.3q4.7.7 3.25 17.45M155 151.05q-9.8-.25-19.15-1.35l-2.15 9.2m2.15-9.2l-12.35-2.15m36.05 79.75l-5.5-2.65m137.45 2.65v-.25l-8.5-2.1m-37.35 2.95l-9.05-2.2"/></defs><use xlink:href="#a"/><g><use xlink:href="#b"/><use xlink:href="#c"/></g><use xlink:href="#d"/></svg>