<?xml version="1.0" encoding="UTF-8" standalone="no"?>
<svg id="svg4911" xmlns:inkscape="http://www.inkscape.org/namespaces/inkscape" xmlns:rdf="http://www.w3.org/1999/02/22-rdf-syntax-ns#" xmlns="http://www.w3.org/2000/svg" sodipodi:docname="zip.svg" viewBox="0 0 114.5 123.1" version="1.1" xmlns:cc="http://creativecommons.org/ns#" xmlns:dc="http://purl.org/dc/elements/1.1/" inkscape:version="0.48.2 r9819" xmlns:sodipodi="http://sodipodi.sourceforge.net/DTD/sodipodi-0.dtd">
 <metadata id="metadata4927">
  <rdf:RDF>
   <cc:Work rdf:about="">
    <dc:format>image/svg+xml</dc:format>
    <dc:type rdf:resource="http://purl.org/dc/dcmitype/StillImage"/>
    <dc:title/>
   </cc:Work>
  </rdf:RDF>
 </metadata>
 <sodipodi:namedview id="namedview4923" bordercolor="#666666" inkscape:pageshadow="2" guidetolerance="10" pagecolor="#ffffff" gridtolerance="10" inkscape:window-maximized="0" inkscape:zoom="1.9171406" objecttolerance="10" borderopacity="1" inkscape:current-layer="svg4911" inkscape:cx="57.25" inkscape:cy="61.549999" inkscape:window-y="0" inkscape:window-x="0" inkscape:window-width="640" showgrid="false" inkscape:pageopacity="0" inkscape:window-height="480"/>
 <g id="g4913" transform="matrix(1.0, 0.0, 0.0, 1.0, -2.55, 63.65)">
  <path id="path4915" stroke="none" fill-rule="evenodd" d="M48.45-58.4l1.4,3.15-7.55,3.75,1.35,2.8,7.4-3.65,1.4,3.95-7.1,2.5,1.05,2.95,0.15-0.05,6.85-2.45,0.9,3.3-6.85,1.6,0.65,3.05,0.25-0.05h0.05l6.6-1.55,0.6,3h-6.9v3.1h7.35l0.1,2h-3.3l-3.3,0.3q-0.9,0.35-1.45,0.9-1.2,1.05-0.95,3.3,0.2,1.8,1.75,6,1.4,3.85,1.35,5.25h-1.35l-0.2,0.25,0.15,7.2,0.05,2.95h-0.55v3.15h0.6l0.05,3.85h-0.65v3.15h0.7l0.05,3.9h-0.75v3.1h0.8l0.05,3.9h-0.85v3.15h10.45v-1.4h5.95l0.05-2h1.05v-3.15h-1l0.05-3.9h0.95v-3.1h-0.9l0.1-4.75h0.8v-3.1h-0.75l0.05-1.25,0.1-5.65,0.05-6.05-0.15-0.25h-0.4q0-1.85,1.45-5.05l2.05-5q0.75-2.65-0.3-3.95-1.35-1.65-5.8-1.75h-1.4l0.3-0.5,3.1-6.3,4.65,3.1,1.8-2.55,0.05-0.5-4.8-2.95,2.45-4.15,5.6,4.05,1.35-1.9,0.5-0.65-5.65-4.1q1.15-1.8,2.65-3.5l5.95,5.2,2.05-2.35-5.95-5.3q2.1-2.25,4.1-3.75l4.1,4.85,2.15,2.45-5.05,5.35-2.6,3.35q-5.55,7.6-8.1,16.15-2.3,7.65-2.25,16.05,0,2.8,0.3,5.65v21.25,1.6,7.05,7.05,7,7.05,7,4h-12.5-8.4v-7.65-3.9-10.15-3.9-10.15-5-25.75q0.55-9.8-0.45-18.6l-0.3-3.1-0.9-5.45q-1.7-8.4-4.65-15.75l-3.3-7,2.5-1.35,0.55-0.35,6.3-3.5,0.8,1.7-6.9,3.4,1.4,2.8,6.85-3.4m3.85,51.75l0.15-0.3,4.75,0.8h0.25l4.5-0.55,0.25,4.4h-3.4v-2.55h-6.5v-1.8m8.6,15.55l0.2,0.25,0.6,0.9,0.4,2.75h-6.75v2.65h-2.25q-1.15-0.9-1.1-3.15h6.8v-3.1h-5.85q1.2-1.4,2.4-2v1.7h5.55m4.45,13.8v-3.15h-0.6-9.8v3.15h4,6.4m-6.4,31.4v-3.05h-4-6.5v3.05h6.5,4m6.4,3.65v-3.05h-6.4-4v3.05h10.4m0-10.05h-10.4v3.1h10.4v-3.1m-6.4-7.6v-3.1h-10.5v3.1h10.5m-4,0.55v3.1h10.4v-3.1h-6.4-4m-6.5,3.35v3.15h6.5,4v-3.15h-4-6.5m6.5-10.9h4v-3.1h-10.5v3.1h6.5m0-3.35h4,6.4v-3.15h-10.4v3.15m0,7h4,6.4v-3.1h-10.4v3.1m4-13.8h-10.5v3.1h6.5,4v-3.1" fill="#516f9f"/>
  <path id="path4917" stroke="none" fill-rule="evenodd" d="M48.45-58.4l-6.85,3.4-1.4-2.8,6.9-3.4,2.45-1.25,1.4,2.85-2.5,1.2m26.35,5l5.95,5.3-2.05,2.35-5.95-5.2-1.9-1.65,2.1-2.4,1.85,1.6m-4.7,5.95l5.65,4.1-0.5,0.65-1.35,1.9-5.6-4.05-2.8-2.05,1.8-2.6,2.8,2.05m-4.25,6.75l4.8,2.95-0.05,0.5-1.8,2.55-4.65-3.1-4-2.7,1.8-2.6,3.9,2.4m-5.1,9.7h1.4q4.45,0.1,5.8,1.75,1.05,1.3,0.3,3.95l-2.05,5q-1.45,3.2-1.45,5.05h0.4l0.15,0.25-0.05,6.05-0.1,5.65-0.05,1.25h0.75v3.1h-0.8l-0.1,4.75h0.9v3.1h-0.95l-0.05,3.9h1v3.15h-1.05l-0.05,2h-5.95v1.4h-10.45v-3.15h0.85l-0.05-3.9h-0.8v-3.1h0.75l-0.05-3.9h-0.7v-3.15h0.65l-0.05-3.85h-0.6v-3.15h0.55l-0.05-2.95-0.15-7.2,0.2-0.25h1.35q0.05-1.4-1.35-5.25-1.55-4.2-1.75-6-0.25-2.25,0.95-3.3,0.55-0.55,1.45-0.9l3.3-0.3h3.3,4.6m-4.7-2h-7.35v-3.1h6.9,3.6v3.1h-3.15m-1.05-6.1l-6.6,1.55h-0.05l-0.25,0.05-0.65-3.05,6.85-1.6,3.25-0.75,0.75,3.05-3.3,0.75m-1.6-6.35l-6.85,2.45-0.15,0.05-1.05-2.95,7.1-2.5,2.7-1.05,1.05,3-2.8,1m-2.35-6.9l-7.4,3.65-1.35-2.8,7.55-3.75,1.8-0.85,1.35,2.7-1.95,1.05m-2.1,50.65l-0.05-3.15,0.05,3.15m3.5-5.25l-0.15,0.3v1.8h6.5v2.55h3.4l-0.25-4.4-4.5,0.55h-0.25l-4.75-0.8-0.05-8.45-2.15,0.15,2.15-0.15,0.05,8.45m9.5,0.25l0.2-0.05,0.05-8.65,2.55,0.15-2.55-0.15-0.05,8.65-0.2,0.05m-3.15,4.4h-1.6-4.9v-2.55,2.55h4.9,1.6m-6.4-13.1l0.45-15.6-0.45,15.6m9.75-15.6l0.05,15.6-0.05-15.6m2.75,39.9l0.05-3.1-0.05,3.1m-2.8,3.9l-0.4-2.75-0.6-0.9-0.2-0.25q-1.8-2.2-3.55-2.25-1,0-2,0.55,1-0.55,2-0.55,1.75,0.05,3.55,2.25h-5.55v-1.7q-1.2,0.6-2.4,2l-0.65,0.85q-0.3,1.25-0.3,2.25,0-1,0.3-2.25l0.65-0.85h5.85v3.1h-6.8q-0.05,2.25,1.1,3.15h2.25,1.85,4.2q0.6-0.75,0.65-2.1l0.05-0.55-0.05,0.55q-0.05,1.35-0.65,2.1h-4.2-1.85v-2.65h6.75m2.7,3.15l0.05-3.15-0.05,3.15m0.55,6.75h-6.4-4v-3.15h9.8,0.6v3.15m-16.15-6.5l0.05,1.75h5.7,3.85-3.85-5.7l-0.05-1.75m-0.1-7l0.05,3.1-0.05-3.1m-0.1-7.05l0.05,3.15-0.05-3.15m9.95,20.8v3.1h-4-6.5v-3.1h10.5m-4,13.8v-3.1h10.4v3.1h-6.4-4m0-7v-3.15h10.4v3.15h-6.4-4m0,3.35h-6.5v-3.1h10.5v3.1h-4m-6.5,10.9h6.5,4v3.15h-4-6.5v-3.15m6.5-3.35h4,6.4v3.1h-10.4v-3.1m4-0.55h-10.5v-3.1h10.5v3.1m6.4,7.6v3.1h-10.4v-3.1h10.4m0,10.05h-10.4v-3.05h4,6.4v3.05m-6.4-3.65h-4-6.5v-3.05h6.5,4v3.05m6.1-53.05l0.05-3.1-0.05,3.1" fill="#f1d500"/>
  <path id="path4919" stroke="none" fill-rule="evenodd" d="M40-59.4l-0.55,0.35-2.5,1.35,3.3,7q2.95,7.35,4.65,15.75l0.9,5.45,0.3,3.1q1,8.8,0.45,18.6v25.75,5,10.15,3.9,10.15,3.9,7.65l-33.85-0.3,1.75-31.1q0.7-17,0.25-28.85-1.25-30.25-11.4-45.65l34.95-15.15,1.75,2.95m27.45,118.1v-4-7-7.05-7-7.05-7.05-1.6-21.25q-0.3-2.85-0.3-5.65-0.05-8.4,2.25-16.05,2.55-8.55,8.1-16.15l2.6-3.35,5.05-5.35-2.15-2.45,5.3-4.85,28,21.3q-12.65,13.5-16,38.85-1.35,10.45-1.6,25.7-0.15,8.45,0.15,29.7l-31.4,0.3" fill="#8dab50"/>
  <path id="path4921" stroke-linejoin="round" d="M49.85-55.25l-1.4-3.15-6.85,3.4-1.4-2.8,6.9-3.4-0.8-1.7-6.3,3.5-0.55,0.35-2.5,1.35,3.3,7q2.95,7.35,4.65,15.75l0.9,5.45,0.3,3.1q1,8.8,0.45,18.6v25.75,5,10.15,3.9,10.15,3.9,7.65h8.4,12.5v-4-7-7.05-7-7.05-7.05-1.6-21.25q-0.3-2.85-0.3-5.65-0.05-8.4,2.25-16.05,2.55-8.55,8.1-16.15l2.6-3.35,5.05-5.35-2.15-2.45-4.1-4.85q-2,1.5-4.1,3.75l5.95,5.3-2.05,2.35-5.95-5.2q-1.5,1.7-2.65,3.5l5.65,4.1-0.5,0.65-1.35,1.9-5.6-4.05-2.45,4.15,4.8,2.95m-0.05,0.5l-1.8,2.55-4.65-3.1-3.1,6.3-0.3,0.5h1.4q4.45,0.1,5.8,1.75,1.05,1.3,0.3,3.95l-2.05,5q-1.45,3.2-1.45,5.05h0.4m0.15,0.25l-0.05,6.05-0.1,5.65-0.05,1.25h0.75v3.1h-0.8l-0.1,4.75h0.9v3.1h-0.95l-0.05,3.9h1v3.15h-1.05l-0.05,2h-5.95v1.4h-10.45v-3.15h0.85l-0.05-3.9h-0.8v-3.1h0.75l-0.05-3.9h-0.7v-3.15h0.65l-0.05-3.85h-0.6v-3.15h0.55l-0.05-2.95-0.15-7.2m0.2-0.25h1.35q0.05-1.4-1.35-5.25-1.55-4.2-1.75-6-0.25-2.25,0.95-3.3,0.55-0.55,1.45-0.9l3.3-0.3h3.3l-0.1-2h-7.35v-3.1h6.9l-0.6-3-6.6,1.55h-0.05l-0.25,0.05-0.65-3.05,6.85-1.6-0.9-3.3-6.85,2.45-0.15,0.05-1.05-2.95,7.1-2.5-1.4-3.95-7.4,3.65-1.35-2.8,7.55-3.75,1.8-0.85,1.35,2.7-1.95,1.05m-3.95-8.85l2.45-1.25,1.4,2.85-2.5,1.2m26.35,5l-1.85-1.6-2.1,2.4,1.9,1.65m-32.75-8.45l-1.75-2.95-34.95,15.15q10.15,15.4,11.4,45.65,0.45,11.85-0.25,28.85l-1.75,31.1,33.85,0.3m23.55-106.15l-2.8-2.05-1.8,2.6,2.8,2.05m-2.45,4.15l-3.9-2.4-1.8,2.6,4,2.7m-10.75-7.65l2.8-1-1.05-3-2.7,1.05m2.55,9.3l3.3-0.75-0.75-3.05-3.25,0.75m1.75,9.15h3.15v-3.1h-3.6m-6.7,31.25l0.05,3.15m3.35-4.95v1.8h6.5v2.55h3.4l-0.25-4.4-4.5,0.55h-0.25l-4.75-0.8-0.05-8.45-2.15,0.15m2.05,10.4v2.55h4.9,1.6m5.95-12.95l-2.55-0.15-0.05,8.65-0.2,0.05m-1.2-24.3h-4.6m6.05,15.6l-0.05-15.6m-9.3,0l-0.45,15.6m15.05,74.1l31.4-0.3q-0.3-21.25-0.15-29.7,0.25-15.25,1.6-25.7,3.35-25.35,16-38.85l-28-21.3-5.3,4.85m-18.05,58.1l-0.05,3.1m-4,0l0.2,0.25,0.6,0.9,0.4,2.75-0.05,0.55q-0.05,1.35-0.65,2.1h-4.2-1.85-2.25q-1.15-0.9-1.1-3.15,0-1,0.3-2.25l0.65-0.85q1.2-1.4,2.4-2,1-0.55,2-0.55,1.75,0.05,3.55,2.25h-5.55v-1.7m9.5,5.6l-0.05,3.15m0.55,6.75h-6.4-4v-3.15h9.8,0.6v3.15m-13.35-10.4h6.8v-3.1h-5.85m-3.9-3.9l-0.05-3.15m0.15,10.15l-0.05-3.1m9.7,8.75h-3.85-5.7l-0.05-1.75m12.9-3.4h-6.75v2.65m3.6,7.5v3.1h-4-6.5v-3.1h10.5m-4,13.8v-3.1h10.4v3.1h-6.4-4m0-7v-3.15h10.4v3.15h-6.4-4m0,3.35h-6.5v-3.1h10.5v3.1h-4m-6.5,10.9h6.5,4v3.15h-4-6.5v-3.15m6.5-3.35h4,6.4v3.1h-10.4v-3.1m4-0.55h-10.5v-3.1h10.5v3.1m6.4,7.6v3.1h-10.4v-3.1h10.4m0,10.05h-10.4v-3.05h4,6.4v3.05m-6.4-3.65h-4-6.5v-3.05h6.5,4v3.05m6.15-56.15l-0.05,3.1" stroke="#000000" stroke-linecap="round" stroke-width="1.5" fill="none"/>
 </g>
</svg>
