<svg xmlns="http://www.w3.org/2000/svg" viewBox="0 0 114.5 123.1"><path fill-rule="evenodd" d="M45.9 5.25l1.4 3.15-7.55 3.75 1.35 2.8 7.4-3.65 1.4 3.95-7.1 2.5 1.05 2.95.15-.05 6.85-2.45.9 3.3-6.85 1.6.65 3.05.25-.05h.05l6.6-1.55.6 3h-6.9v3.1h7.35l.1 2h-3.3l-3.3.3q-.9.35-1.45.9-1.2 1.05-.95 3.3.2 1.8 1.75 6 1.4 3.85 1.35 5.25h-1.35l-.2.25.15 7.2.05 2.95h-.55v3.15h.6l.05 3.85h-.65v3.15h.7l.05 3.9h-.75v3.1h.8l.05 3.9h-.85V83h10.45v-1.4h5.95l.05-2h1.05v-3.15h-1l.05-3.9h.95v-3.1h-.9l.1-4.75h.8v-3.1h-.75l.05-1.25.1-5.65.05-6.05-.15-.25h-.4q0-1.85 1.45-5.05l2.05-5q.75-2.65-.3-3.95-1.35-1.65-5.8-1.75h-1.4l.3-.5 3.1-6.3 4.65 3.1 1.8-2.55.05-.5-4.8-2.95 2.45-4.15 5.6 4.05 1.35-1.9.5-.65-5.65-4.1q1.15-1.8 2.65-3.5l5.95 5.2 2.05-2.35-5.95-5.3q2.1-2.25 4.1-3.75l4.1 4.85 2.15 2.45-5.05 5.35-2.6 3.35q-5.55 7.6-8.1 16.15-2.3 7.65-2.25 16.05 0 2.8.3 5.65v62H44v-66.5q.55-9.8-.45-18.6l-.3-3.1-.9-5.45q-1.7-8.4-4.65-15.75l-3.3-7 2.5-1.35.55-.35 6.3-3.5.8 1.7-6.9 3.4 1.4 2.8 6.85-3.4M49.75 57l.15-.3 4.75.8h.25l4.5-.55.25 4.4h-3.4V58.8h-6.5V57m8.6 15.55l.2.25.6.9.4 2.75H52.8v2.65h-2.25q-1.15-.9-1.1-3.15h6.8v-3.1H50.4q1.2-1.4 2.4-2v1.7h5.55m4.45 13.8V83.2H52.4v3.15h10.4m-6.4 31.4v-3.05H45.9v3.05h10.5m6.4 3.65v-3.05H52.4v3.05h10.4m0-10.05H52.4v3.1h10.4v-3.1m-6.4-7.6v-3.1H45.9v3.1h10.5m-4 .55v3.1h10.4v-3.1H52.4m-6.5 3.35v3.15h10.5v-3.15H45.9m6.5-10.9h4v-3.1H45.9v3.1h6.5m0-3.35h10.4v-3.15H52.4v3.15m0 7h10.4v-3.1H52.4v3.1m4-13.8H45.9v3.1h10.5v-3.1" fill="#516f9f"/><path fill-rule="evenodd" d="M45.9 5.25l-6.85 3.4-1.4-2.8 6.9-3.4L47 1.2l1.4 2.85-2.5 1.2m26.35 5l5.95 5.3-2.05 2.35-5.95-5.2-1.9-1.65 2.1-2.4 1.85 1.6m-4.7 5.95l5.65 4.1-.5.65-1.35 1.9-5.6-4.05-2.8-2.05 1.8-2.6 2.8 2.05m-4.25 6.75l4.8 2.95-.05.5-1.8 2.55-4.65-3.1-4-2.7 1.8-2.6 3.9 2.4m-5.1 9.7h1.4q4.45.1 5.8 1.75 1.05 1.3.3 3.95l-2.05 5q-1.45 3.2-1.45 5.05h.4l.15.25-.05 6.05-.1 5.65-.05 1.25h.75v3.1h-.8l-.1 4.75h.9v3.1h-.95l-.05 3.9h1v3.15h-1.05l-.05 2h-5.95V83H45.8v-3.15h.85l-.05-3.9h-.8v-3.1h.75l-.05-3.9h-.7V65.8h.65l-.05-3.85h-.6V58.8h.55l-.05-2.95-.15-7.2.2-.25h1.35q.05-1.4-1.35-5.25-1.55-4.2-1.75-6-.25-2.25.95-3.3.55-.55 1.45-.9l3.3-.3H58.2m-4.7-2h-7.35v-3.1h10.5v3.1H53.5m-1.05-6.1l-6.6 1.55h-.05l-.25.05-.65-3.05 6.85-1.6 3.25-.75.75 3.05-3.3.75m-1.6-6.35L44 20.65l-.15.05-1.05-2.95 7.1-2.5 2.7-1.05 1.05 3-2.8 1m-2.35-6.9l-7.4 3.65-1.35-2.8L47.3 8.4l1.8-.85 1.35 2.7-1.95 1.05m-2.1 50.65l-.05-3.15.05 3.15m3.5-5.25l-.15.3v1.8h6.5v2.55h3.4l-.25-4.4-4.5.55h-.25l-4.75-.8-.05-8.45-2.15.15 2.15-.15.05 8.45m9.5.25l.2-.05.05-8.65 2.55.15-2.55-.15-.05 8.65-.2.05m-3.15 4.4h-6.5V58.8v2.55h6.5m-6.4-13.1l.45-15.6-.45 15.6m9.75-15.6l.05 15.6-.05-15.6m2.75 39.9l.05-3.1-.05 3.1m-2.8 3.9l-.4-2.75-.6-.9-.2-.25q-1.8-2.2-3.55-2.25-1 0-2 .55 1-.55 2-.55 1.75.05 3.55 2.25H52.8v-1.7q-1.2.6-2.4 2l-.65.85q-.3 1.25-.3 2.25 0-1 .3-2.25l.65-.85h5.85v3.1h-6.8q-.05 2.25 1.1 3.15h8.3q.6-.75.65-2.1l.05-.55-.05.55q-.05 1.35-.65 2.1H52.8v-2.65h6.75m2.7 3.15l.05-3.15-.05 3.15m.55 6.75H52.4V83.2h10.4v3.15m-16.15-6.5l.05 1.75h9.55-9.55l-.05-1.75m-.1-7l.05 3.1-.05-3.1m-.1-7.05l.05 3.15-.05-3.15m9.95 20.8v3.1H45.9v-3.1h10.5m-4 13.8v-3.1h10.4v3.1H52.4m0-7v-3.15h10.4v3.15H52.4m0 3.35h-6.5v-3.1h10.5v3.1h-4m-6.5 10.9h10.5v3.15H45.9v-3.15m6.5-3.35h10.4v3.1H52.4v-3.1m4-.55H45.9v-3.1h10.5v3.1m6.4 7.6v3.1H52.4v-3.1h10.4m0 10.05H52.4v-3.05h10.4v3.05m-6.4-3.65H45.9v-3.05h10.5v3.05m6.1-53.05l.05-3.1-.05 3.1" fill="#f1d500"/><path fill-rule="evenodd" d="M37.45 4.25l-.55.35-2.5 1.35 3.3 7q2.95 7.35 4.65 15.75l.9 5.45.3 3.1q1 8.8.45 18.6v66.5l-33.85-.3 1.75-31.1q.7-17 .25-28.85Q10.9 31.85.75 16.45L35.7 1.3l1.75 2.95m27.45 118.1v-62q-.3-2.85-.3-5.65-.05-8.4 2.25-16.05 2.55-8.55 8.1-16.15l2.6-3.35 5.05-5.35-2.15-2.45 5.3-4.85 28 21.3q-12.65 13.5-16 38.85-1.35 10.45-1.6 25.7-.15 8.45.15 29.7l-31.4.3" fill="#8dab50"/><path stroke-linejoin="round" d="M47.3 8.4l-1.4-3.15-6.85 3.4-1.4-2.8 6.9-3.4-.8-1.7-6.3 3.5-.55.35-2.5 1.35 3.3 7q2.95 7.35 4.65 15.75l.9 5.45.3 3.1q1 8.8.45 18.6v66.5h20.9v-62q-.3-2.85-.3-5.65-.05-8.4 2.25-16.05 2.55-8.55 8.1-16.15l2.6-3.35 5.05-5.35-2.15-2.45-4.1-4.85q-2 1.5-4.1 3.75l5.95 5.3-2.05 2.35-5.95-5.2q-1.5 1.7-2.65 3.5l5.65 4.1-.5.65-1.35 1.9-5.6-4.05-2.45 4.15 4.8 2.95m-.05.5l-1.8 2.55-4.65-3.1-3.1 6.3-.3.5h1.4q4.45.1 5.8 1.75 1.05 1.3.3 3.95l-2.05 5q-1.45 3.2-1.45 5.05h.4m.15.25l-.05 6.05-.1 5.65-.05 1.25h.75v3.1h-.8l-.1 4.75h.9v3.1h-.95l-.05 3.9h1v3.15h-1.05l-.05 2h-5.95V83H45.8v-3.15h.85l-.05-3.9h-.8v-3.1h.75l-.05-3.9h-.7V65.8h.65l-.05-3.85h-.6V58.8h.55l-.05-2.95-.15-7.2m.2-.25h1.35q.05-1.4-1.35-5.25-1.55-4.2-1.75-6-.25-2.25.95-3.3.55-.55 1.45-.9l3.3-.3h3.3l-.1-2h-7.35v-3.1h6.9l-.6-3-6.6 1.55h-.05l-.25.05-.65-3.05 6.85-1.6-.9-3.3L44 20.65l-.15.05-1.05-2.95 7.1-2.5-1.4-3.95-7.4 3.65-1.35-2.8L47.3 8.4l1.8-.85 1.35 2.7-1.95 1.05m-3.95-8.85L47 1.2l1.4 2.85-2.5 1.2m26.35 5l-1.85-1.6-2.1 2.4 1.9 1.65M37.45 4.25L35.7 1.3.75 16.45q10.15 15.4 11.4 45.65.45 11.85-.25 28.85l-1.75 31.1 33.85.3M67.55 16.2l-2.8-2.05-1.8 2.6 2.8 2.05m-2.45 4.15l-3.9-2.4-1.8 2.6 4 2.7M50.85 18.2l2.8-1-1.05-3-2.7 1.05m2.55 9.3l3.3-.75-.75-3.05-3.25.75m1.75 9.15h3.15v-3.1h-3.6m-6.7 31.25l.05 3.15M49.75 57v1.8h6.5v2.55h3.4l-.25-4.4-4.5.55h-.25l-4.75-.8-.05-8.45-2.15.15m2.05 10.4v2.55h6.5M62.2 48.4l-2.55-.15-.05 8.65-.2.05m-1.2-24.3h-4.6m6.05 15.6l-.05-15.6m-9.3 0l-.45 15.6m15.05 74.1l31.4-.3q-.3-21.25-.15-29.7.25-15.25 1.6-25.7 3.35-25.35 16-38.85l-28-21.3-5.3 4.85M62.4 69.45l-.05 3.1m-4 0l.2.25.6.9.4 2.75-.05.55q-.05 1.35-.65 2.1h-8.3q-1.15-.9-1.1-3.15 0-1 .3-2.25l.65-.85q1.2-1.4 2.4-2 1-.55 2-.55 1.75.05 3.55 2.25H52.8v-1.7m9.5 5.6l-.05 3.15m.55 6.75H52.4V83.2h10.4v3.15m-13.35-10.4h6.8v-3.1H50.4m-3.9-3.9l-.05-3.15m.15 10.15l-.05-3.1m9.7 8.75H46.7l-.05-1.75m12.9-3.4H52.8v2.65m3.6 7.5v3.1H45.9v-3.1h10.5m-4 13.8v-3.1h10.4v3.1H52.4m0-7v-3.15h10.4v3.15H52.4m0 3.35h-6.5v-3.1h10.5v3.1h-4m-6.5 10.9h10.5v3.15H45.9v-3.15m6.5-3.35h10.4v3.1H52.4v-3.1m4-.55H45.9v-3.1h10.5v3.1m6.4 7.6v3.1H52.4v-3.1h10.4m0 10.05H52.4v-3.05h10.4v3.05m-6.4-3.65H45.9v-3.05h10.5v3.05m6.15-56.15l-.05 3.1" stroke="#000" stroke-linecap="round" stroke-width="1.5" fill="none"/></svg>