<?xml version="1.0" encoding="utf-8"?>
<!-- Generator: Adobe Illustrator 16.0.0, SVG Export Plug-In . SVG Version: 6.00 Build 0)  -->
<!DOCTYPE svg PUBLIC "-//W3C//DTD SVG 1.1//EN" "http://www.w3.org/Graphics/SVG/1.1/DTD/svg11.dtd">
<svg version="1.1"
	 id="svg24" xmlns:svg="http://www.w3.org/2000/svg" xmlns:inkscape="http://www.inkscape.org/namespaces/inkscape" xmlns:rdf="http://www.w3.org/1999/02/22-rdf-syntax-ns#" xmlns:cc="http://creativecommons.org/ns#" xmlns:dc="http://purl.org/dc/elements/1.1/" xmlns:sodipodi="http://sodipodi.sourceforge.net/DTD/sodipodi-0.dtd" inkscape:version="0.92.1 r15371" sodipodi:docname="checkbox.svg"
	 xmlns="http://www.w3.org/2000/svg" xmlns:xlink="http://www.w3.org/1999/xlink" x="0px" y="0px" width="35.619px"
	 height="47.324px" viewBox="35.075 0 35.619 47.324" enable-background="new 35.075 0 35.619 47.324" xml:space="preserve">
<sodipodi:namedview  showgrid="false" inkscape:cy="31.549606" inkscape:cx="70.875593" borderopacity="1" objecttolerance="10" inkscape:zoom="2.0035106" gridtolerance="10" guidetolerance="10" bordercolor="#666666" pagecolor="#ffffff" id="namedview26" inkscape:window-height="1027" inkscape:pageopacity="0" inkscape:window-width="1920" inkscape:window-x="-8" inkscape:window-y="-8" inkscape:current-layer="svg24" inkscape:pageshadow="2" inkscape:window-maximized="1">
	</sodipodi:namedview>
<g id="Group_20">
	<g enable-background="new    ">
		<path fill="#7F81FF" d="M38.934,39.992c0.811-0.087,1.56,0.125,2.246,0.637c0.133,0.245,0.116,0.483-0.05,0.714
			c-0.167,0.23-0.395,0.265-0.686,0.103c-0.591-0.415-1.352-0.426-2.283-0.031c-0.719,0.333-1.085,1.055-1.098,2.165
			c0.012,1.518,1.048,2.046,3.106,1.584l0.68-0.399c0.287-0.104,0.504-0.06,0.652,0.132c0.147,0.19,0.178,0.413,0.09,0.667
			c-0.578,0.724-1.48,1.057-2.707,0.998c-1.219,0.059-2.104-0.459-2.657-1.553c-0.416-0.957-0.416-1.979,0-3.069
			C36.688,40.849,37.591,40.2,38.934,39.992z"/>
		<path fill="#7F81FF" d="M43.223,35.569c0.293-0.004,0.473,0.101,0.54,0.313l0.012,5.077c0.433-0.573,1.208-0.894,2.327-0.96
			c1.119-0.067,1.803,0.68,2.052,2.239l-0.006,2.851c-0.012,0.212,0.01,0.328,0.069,0.349c0.058,0.021,0.106,0.009,0.144-0.037
			l0.162-0.188c0.25-0.175,0.448-0.178,0.596-0.009c0.147,0.168,0.178,0.351,0.09,0.546c-0.121,0.212-0.279,0.403-0.474,0.573
			c-0.291,0.208-0.637,0.287-1.039,0.237s-0.608-0.283-0.621-0.698l0.006-3.02c0.062-1.173-0.368-1.719-1.292-1.638
			c-0.923,0.081-1.595,0.615-2.015,1.601l0.006,3.331c-0.029,0.253-0.223,0.386-0.58,0.396c-0.358,0.011-0.539-0.109-0.543-0.358
			l0.013-10.268C42.745,35.687,42.929,35.574,43.223,35.569z"/>
		<path fill="#7F81FF" d="M53.119,39.905c1.493,0.1,2.323,0.629,2.489,1.587c0.166,0.959-0.194,1.638-1.083,2.037
			c-0.888,0.399-1.995,0.538-3.321,0.418c0.045,0.819,0.582,1.276,1.609,1.372c1.048,0.129,1.83-0.066,2.346-0.586
			c0.361-0.101,0.617-0.025,0.768,0.224c0.149,0.25,0.157,0.504,0.024,0.762c-0.84,0.669-1.981,0.925-3.425,0.767
			c-1.572-0.141-2.431-1.112-2.576-2.913C49.983,41.336,51.039,40.113,53.119,39.905z M52.913,40.959
			c-1.073,0.221-1.667,0.867-1.784,1.94c1.135,0.066,2.014-0.004,2.635-0.209c0.622-0.206,0.876-0.55,0.761-1.032
			C54.412,41.176,53.874,40.942,52.913,40.959z"/>
		<path fill="#7F81FF" d="M60.205,39.992c0.811-0.087,1.56,0.125,2.245,0.637c0.134,0.245,0.117,0.483-0.05,0.714
			c-0.166,0.23-0.395,0.265-0.686,0.103c-0.591-0.415-1.352-0.426-2.283-0.031c-0.72,0.333-1.085,1.055-1.098,2.165
			c0.013,1.518,1.048,2.046,3.106,1.584l0.68-0.399c0.287-0.104,0.504-0.06,0.651,0.132c0.148,0.19,0.178,0.413,0.091,0.667
			c-0.578,0.724-1.48,1.057-2.707,0.998c-1.219,0.059-2.104-0.459-2.657-1.553c-0.416-0.957-0.416-1.979,0-3.069
			C57.959,40.849,58.862,40.2,60.205,39.992z"/>
		<path fill="#7F81FF" d="M65.07,35.976l0.013,4.615c0.819-0.689,1.63-0.886,2.433-0.586c0.803,0.299,1.142,0.934,1.017,1.902
			s-0.944,1.539-2.458,1.709l1.896,1.403c0.241,0.229,0.449,0.281,0.624,0.156l0.269-0.206c0.253-0.091,0.455-0.019,0.604,0.219
			s0.11,0.479-0.118,0.724c-0.129,0.166-0.304,0.31-0.524,0.43c-0.49,0.188-0.871,0.184-1.142-0.012l-2.613-2.121v1.896
			c-0.008,0.262-0.167,0.402-0.478,0.421c-0.31,0.019-0.477-0.111-0.502-0.39l0.013-10.18c0.092-0.184,0.251-0.279,0.478-0.287
			C64.807,35.661,64.97,35.763,65.07,35.976z M66.648,40.928c-0.694,0.134-1.208,0.547-1.541,1.241l-0.024,0.524
			c1.497-0.096,2.295-0.414,2.396-0.954C67.578,41.198,67.301,40.928,66.648,40.928z"/>
	</g>
	<g id="Group_21">
		
			<path marker-end="none" marker-start="none" fill="#7F81FF" stroke="#7F81FF" stroke-width="0.173" stroke-linejoin="bevel" stroke-miterlimit="79.8403" d="
			M46.591,1.379c8.366-3.083,17.659,1.206,20.741,9.571c3.08,8.365-1.205,17.657-9.572,20.74
			c-8.367,3.083-17.658-1.206-20.741-9.572C33.938,13.752,38.226,4.461,46.591,1.379z"/>
		<g id="Group_22">
			
				<path marker-end="none" marker-start="none" fill="#FFFFFF" stroke="#FFFFFF" stroke-width="0.173" stroke-linejoin="bevel" stroke-miterlimit="79.8403" d="
				M65.409,10.87L48.875,27.404l-9.931-9.93l3.312-3.297l6.62,6.606L62.1,7.559L65.409,10.87z"/>
		</g>
	</g>
</g>
</svg>
