<?xml version="1.0" encoding="UTF-8" standalone="no"?>
<!-- Created with Inkscape (http://www.inkscape.org/) -->
<svg xmlns:dc="http://purl.org/dc/elements/1.1/" xmlns:cc="http://creativecommons.org/ns#" xmlns:rdf="http://www.w3.org/1999/02/22-rdf-syntax-ns#" xmlns:svg="http://www.w3.org/2000/svg" xmlns="http://www.w3.org/2000/svg" xmlns:sodipodi="http://sodipodi.sourceforge.net/DTD/sodipodi-0.dtd" xmlns:inkscape="http://www.inkscape.org/namespaces/inkscape" width="37.505mm" height="16.695mm" version="1.1" viewBox="0 0 37.504688 16.695208" id="svg24" sodipodi:docname="checkbox.svg" inkscape:version="0.92.1 r15371">
  <defs id="defs28"/>
  <sodipodi:namedview pagecolor="#ffffff" bordercolor="#666666" borderopacity="1" objecttolerance="10" gridtolerance="10" guidetolerance="10" inkscape:pageopacity="0" inkscape:pageshadow="2" inkscape:window-width="1920" inkscape:window-height="1027" id="namedview26" showgrid="false" inkscape:zoom="2.0035106" inkscape:cx="70.875593" inkscape:cy="31.549606" inkscape:window-x="-8" inkscape:window-y="-8" inkscape:window-maximized="1" inkscape:current-layer="svg24"/>
  <metadata id="metadata2">
    <rdf:RDF>
      <cc:Work rdf:about="">
        <dc:format>image/svg+xml</dc:format>
        <dc:type rdf:resource="http://purl.org/dc/dcmitype/StillImage"/>
        <dc:title/>
      </cc:Work>
    </rdf:RDF>
  </metadata>
  <g transform="translate(-30.256 -119.11)" id="g22">
    <g transform="translate(-2.3965 .54355)" id="g20">
      <g transform="matrix(.26458 0 0 .26458 43.103 126.2)" id="g8">
        <path d="m80.4-18.55q20.35 8.8 20.35 21.25t-20.35 21.25q-20.3 8.8-49.05 8.8t-49.05-8.8-20.3-21.25 20.3-21.25 49.05-8.8 49.05 8.8" fill="#e0ecfe" fill-rule="evenodd" id="path4"/>
        <path d="m80.4-18.55q20.35 8.8 20.35 21.25t-20.35 21.25q-20.3 8.8-49.05 8.8t-49.05-8.8-20.3-21.25 20.3-21.25 49.05-8.8 49.05 8.8z" fill="none" stroke="#509efe" stroke-linecap="round" stroke-linejoin="round" stroke-width="3" id="path6"/>
      </g>
      <g transform="matrix(.26458 0 0 .26458 44.472 126.9)" id="g14">
        <path d="m28.7-21.35-37.4 42.75-19.95-27.1 18.1 10.4 39.25-26.05" fill="#48ff48" fill-rule="evenodd" id="path10"/>
        <path d="m28.7-21.35-39.25 26.05-18.1-10.4 19.95 27.1z" fill="none" stroke="#509efe" stroke-linecap="round" stroke-linejoin="round" stroke-width="2.75" id="path12"/>
      </g>
      <g aria-label="check" style="font-size:7.05560017px;line-height:1.25;font-family:'Jotter Primary';letter-spacing:0px;word-spacing:0px;fill:#000000;stroke-width:0.26458001" id="text18">
        <path d="m 50.14689,126.31417 q -1.112773,0.17226 -1.495181,1.07488 -0.344512,0.90262 0,1.695 0.4582,0.90606 1.46762,0.85783 1.016309,0.0482 1.495181,-0.55122 0.07235,-0.21015 -0.05168,-0.36863 -0.120579,-0.15847 -0.358292,-0.0723 l -0.375518,0.22048 q -1.705333,0.38241 -1.715668,-0.87506 0.01034,-0.91984 0.60634,-1.19545 0.771706,-0.32729 1.260913,0.0172 0.241158,0.13436 0.378963,-0.0551 0.137805,-0.19293 0.02756,-0.39619 -0.568444,-0.42375 -1.240242,-0.3514 z" style="font-size:7.05560017px;font-family:'Jotter Primary';stroke-width:0.26458001" id="path4505"/>
        <path d="m 52.20707,124.05762 -0.0069,5.67066 q 0.0034,0.20671 0.299725,0.19982 0.29628,-0.0103 0.320396,-0.22049 l -0.0034,-1.83969 q 0.347956,-0.81649 1.112772,-0.88195 0.764816,-0.0689 0.71314,0.90262 l -0.0034,1.66744 q 0.01034,0.34451 0.341066,0.38585 0.334177,0.0413 0.575335,-0.13092 0.16192,-0.14124 0.261829,-0.31695 0.07235,-0.16192 -0.05168,-0.29972 -0.120579,-0.14125 -0.327286,0.003 l -0.08957,0.10336 q -0.03101,0.0379 -0.07924,0.0207 -0.04823,-0.0172 -0.0379,-0.19293 l 0.0034,-1.57442 q -0.206707,-1.29192 -1.133444,-1.23679 -0.926736,0.0551 -1.285028,0.53054 l -0.0069,-2.80432 q -0.05512,-0.1757 -0.299725,-0.17226 -0.241158,0.003 -0.30317,0.18604 z" style="font-size:7.05560017px;font-family:'Jotter Primary';stroke-width:0.26458001" id="path4507"/>
        <path d="m 57.991421,126.26594 q -1.722558,0.17226 -1.750119,2.02573 0.120579,1.49173 1.422833,1.60887 1.195456,0.13091 1.89137,-0.42375 0.110243,-0.2136 -0.01378,-0.42031 -0.124024,-0.2067 -0.423749,-0.12402 -0.427195,0.43064 -1.295364,0.32384 -0.850944,-0.0792 -0.888841,-0.75792 1.098993,0.0999 1.832803,-0.23083 0.737255,-0.33073 0.59945,-1.12311 -0.137804,-0.79582 -1.374602,-0.8785 z m -0.113688,0.58222 q 0.795822,-0.0138 0.88884,0.38586 0.09646,0.39963 -0.420304,0.57189 -0.513323,0.16881 -1.45384,0.11369 0.09646,-0.88884 0.985304,-1.07144 z" style="font-size:7.05560017px;font-family:'Jotter Primary';stroke-width:0.26458001" id="path4509"/>
        <path d="m 61.91541,126.31417 q -1.112773,0.17226 -1.495181,1.07488 -0.344512,0.90262 0,1.695 0.458201,0.90606 1.46762,0.85783 1.01631,0.0482 1.495181,-0.55122 0.07235,-0.21015 -0.05168,-0.36863 -0.120579,-0.15847 -0.358292,-0.0723 l -0.375518,0.22048 q -1.705333,0.38241 -1.715668,-0.87506 0.01033,-0.91984 0.606341,-1.19545 0.771706,-0.32729 1.260912,0.0172 0.241159,0.13436 0.378963,-0.0551 0.137805,-0.19293 0.02756,-0.39619 -0.568444,-0.42375 -1.240242,-0.3514 z" style="font-size:7.05560017px;font-family:'Jotter Primary';stroke-width:0.26458001" id="path4511"/>
        <path d="m 64.326992,123.9267 q -0.186036,0.007 -0.261829,0.15848 l -0.0069,5.62243 q 0.02067,0.23082 0.275609,0.21704 0.258384,-0.0172 0.265274,-0.23426 v -1.04732 l 1.443504,1.17134 q 0.223933,0.16192 0.630457,0.007 0.182591,-0.0999 0.28939,-0.23771 0.189481,-0.20326 0.06546,-0.39964 -0.124024,-0.19637 -0.334176,-0.12058 l -0.14814,0.11369 q -0.144695,0.10336 -0.344512,-0.0861 l -1.047316,-0.77516 q 1.254023,-0.14125 1.357376,-0.94396 0.103354,-0.80271 -0.561554,-1.05076 -0.664907,-0.24805 -1.343595,0.32384 l -0.0069,-2.54938 q -0.08268,-0.17571 -0.272164,-0.16882 z m 1.143779,2.90424 q 0.540883,0 0.458201,0.44786 -0.08268,0.44787 -1.322925,0.52711 l 0.01378,-0.28939 q 0.275609,-0.57534 0.850944,-0.68558 z" style="font-size:7.05560017px;font-family:'Jotter Primary';stroke-width:0.26458001" id="path4513"/>
      </g>
    </g>
  </g>
</svg>