<?xml version="1.0" encoding="UTF-8" standalone="no"?>
<svg xmlns:xlink="http://www.w3.org/1999/xlink" height="61.25px" width="54.55px" xmlns="http://www.w3.org/2000/svg">
  <g transform="matrix(1.0, 0.0, 0.0, 1.0, -1.2, 0.6)">
    <path d="M45.5 17.6 L45.5 43.65 Q45.5 49.25 39.9 49.25 L16.0 49.25 Q10.35 49.25 10.35 43.65 L10.35 17.6 Q10.35 11.95 16.0 11.95 L39.9 11.95 Q45.5 11.95 45.5 17.6" fill="#ffffff" fill-rule="evenodd" stroke="none"/>
    <path d="M45.5 17.6 Q45.5 11.95 39.9 11.95 L16.0 11.95 Q10.35 11.95 10.35 17.6 L10.35 43.65 Q10.35 49.25 16.0 49.25 L39.9 49.25 Q45.5 49.25 45.5 43.65 L45.5 17.6 Z" fill="none" stroke="#00aa1a" stroke-linecap="round" stroke-linejoin="round" stroke-width="2.5"/>
    <path d="M16.0 56.05 L15.95 60.65 Q13.45 58.15 11.4 55.2 L10.8 54.35 7.7 49.2 7.65 49.0 Q5.7 45.55 4.1 41.45 1.7 34.9 1.6 25.8 1.5 15.15 5.1 8.95 8.15 3.7 13.6 1.35 17.25 -0.25 22.25 -0.6 21.4 1.6 20.7 4.35 19.65 8.6 18.8 14.2 L11.5 13.95 11.4 29.1 11.35 48.7 16.0 47.95 16.05 47.35 16.05 47.9 16.05 47.95 16.0 56.05" fill="#6295ff" fill-rule="evenodd" stroke="none"/>
    <path d="M18.8 14.2 L18.8 14.3 17.2 30.55 Q16.35 40.55 16.05 47.35 L16.0 47.95 11.35 48.7 11.4 29.1 11.5 13.95 18.8 14.2" fill="#2f585b" fill-rule="evenodd" stroke="none"/>
    <path d="M30.35 33.8 L28.15 33.95 35.1 29.4 36.7 33.35 30.35 33.75 30.35 33.8" fill="#6699ff" fill-rule="evenodd" stroke="none"/>
    <path d="M20.7 4.35 Q25.45 3.9 29.45 4.2 36.95 4.7 43.5 8.05 L46.55 10.1 48.9 12.4 50.75 14.5 51.95 16.25 52.4 17.0 53.3 18.85 53.5 19.4 Q54.7 22.3 55.3 26.8 L55.75 32.55 55.65 34.25 Q55.2 39.45 53.35 43.5 50.35 49.9 43.75 53.05 38.95 55.3 31.7 56.15 L21.3 56.5 16.0 56.05 16.05 47.95 16.05 47.9 43.25 43.55 38.8 17.0 38.55 15.7 18.8 14.3 18.8 14.2 Q19.65 8.6 20.7 4.35 M11.4 55.2 L9.2 54.6 Q3.6 52.85 1.2 50.3 L7.7 49.2 10.8 54.35 11.4 55.2" fill="#a2ff97" fill-rule="evenodd" stroke="none"/>
  </g>
</svg>
