<?xml version="1.0" encoding="utf-8"?>
<!-- Generator: Adobe Illustrator 16.0.0, SVG Export Plug-In . SVG Version: 6.00 Build 0)  -->
<!DOCTYPE svg PUBLIC "-//W3C//DTD SVG 1.1//EN" "http://www.w3.org/Graphics/SVG/1.1/DTD/svg11.dtd">
<svg version="1.1" id="Capa_1" xmlns="http://www.w3.org/2000/svg" xmlns:xlink="http://www.w3.org/1999/xlink" x="0px" y="0px"
	 width="512px" height="512px" viewBox="0 0 512 512" enable-background="new 0 0 512 512" xml:space="preserve">
<g id="Group_7">
	<path marker-end="none" marker-start="none" fill="#7F81FF" d="M293.029,4.104c-0.014,0-0.053,0-0.065,0
		c-34.736,0-67.424,13.525-92,38.088c-24.589,24.589-38.146,57.289-38.146,92.059v60.235h22.324V134.25
		c0-28.812,11.221-55.895,31.6-76.274c20.367-20.354,47.443-31.562,76.223-31.562c0.013,0,0.039,0,0.065,0
		c59.43,0.026,107.77,48.923,107.77,108.975c0,60.55-23.58,117.473-66.396,160.294l-52.635,52.635
		c-8.235,8.223-19.155,12.753-30.795,12.753c-23.987,0-43.521-19.535-43.521-43.549v-18.933h-22.311v18.933
		c0,36.321,29.525,65.859,65.833,65.859c17.61,0,34.134-6.848,46.56-19.273l52.647-52.66c23.241-23.241,41.401-50.409,53.971-80.772
		c12.596-30.37,18.959-62.429,18.959-95.286C423.11,63.029,364.767,4.143,293.029,4.104z"/>
	<path marker-end="none" marker-start="none" fill="#7F81FF" d="M292.964,59.874c-19.85,0-38.521,7.738-52.569,21.761
		c-14.049,14.068-21.787,32.746-21.787,52.615h0.013c0,0.183-0.013,0.36-0.013,0.55v20.327c0,15.417,5.99,29.892,16.903,40.798
		c3.476,3.483,5.407,8.125,5.407,13.054c0,4.936-1.931,9.577-5.407,13.061c-8.026,8.032-12.438,18.69-12.438,30.036v5.61
		c0,19.287,15.672,34.959,34.952,34.959h0.739c19.273,0,34.959-15.672,34.959-34.959h-22.311c0,6.979-5.683,12.648-12.648,12.648
		h-0.739c-6.972,0-12.654-5.669-12.654-12.648v-5.61c0-5.381,2.088-10.449,5.911-14.252c7.692-7.699,11.935-17.958,11.935-28.844
		c0-10.887-4.242-21.126-11.935-28.825c-6.69-6.69-10.363-15.581-10.363-25.027V134.8c0-12.419,9.827-22.658,21.918-22.861
		c0.145,0,0.249,0,0.38,0c5.892,0,11.443,2.265,15.646,6.409c4.308,4.222,6.678,9.866,6.678,15.902h22.298
		c0-12.065-4.727-23.358-13.329-31.816c-7.751-7.64-17.794-12.079-28.53-12.727c8.053-4.891,17.336-7.509,27.012-7.509
		c28.7,0,52.032,23.869,52.032,53.191c0,23.784-4.74,46.724-14.102,68.203l20.465,8.903c10.579-24.308,15.947-50.239,15.947-77.106
		C367.333,93.772,333.998,59.906,292.964,59.874z"/>
	<path marker-end="none" marker-start="none" fill="#7F81FF" d="M72.088,276.305c0-8.209-6.658-14.874-14.867-14.874
		c-8.203,0-14.868,6.665-14.868,14.874c0,8.196,6.665,14.874,14.868,14.874C65.43,291.179,72.088,284.501,72.088,276.305z"/>
	<path marker-end="none" marker-start="none" fill="#7F81FF" d="M99.295,234.229l-15.771,15.764c14.481,14.5,14.481,38.094,0,52.576
		l15.771,15.777C122.49,295.158,122.49,257.411,99.295,234.229z"/>
	<path marker-end="none" marker-start="none" fill="#7F81FF" d="M130.844,202.668l-15.784,15.764
		c31.895,31.895,31.895,83.796,0,115.691l15.784,15.79C171.439,309.313,171.439,243.251,130.844,202.668z"/>
</g>
<g id="Group_8">
	<g id="Group_9">
		<path marker-end="none" marker-start="none" fill="#6295FF" d="M111.158,383.381c-3.188-0.078-5.323,1.179-6.357,3.731v111.2
			c0.662,6.246,3.961,9.689,9.886,10.292c2.317,0.523,4.635,0.55,6.959,0.078c3.044-0.576,5.493-1.649,7.397-3.26
			c2.508-2.003,3.208-4.858,2.095-8.576c-1.113-3.719-3.287-4.857-6.501-3.431c-0.956,1.126-2.363,1.807-4.229,2.017
			c-1.872,0.21-2.972-1.126-3.306-4.032V387.466C116.336,384.821,114.366,383.459,111.158,383.381z"/>
		<path marker-end="none" marker-start="none" fill="#6295FF" d="M157.979,402.471c-5.46,1.428-7.535,5.264-6.266,11.521
			c3.411,5.212,8.105,5.814,14.082,1.834C168.355,407.354,165.743,402.89,157.979,402.471z M158.647,433.868
			c-3.391,0.065-5.362,1.349-5.938,3.876l-0.281,64.969c0.471,5.211,3.489,7.279,9.021,6.192c4.602-0.144,8.045-1.165,10.311-3.051
			l2.278-1.728c2.324-1.847,3.182-4.282,2.566-7.333c-0.622-3.063-2.658-4.347-6.115-3.823l-2.35,0.995
			c-0.857,0.995-1.729,1.388-2.625,1.152c-0.91-0.249-1.264-0.785-1.074-1.649l0.433-55.725
			C164.106,435.086,162.038,433.789,158.647,433.868z"/>
		<path marker-end="none" marker-start="none" fill="#6295FF" d="M211.288,435.74c-11.653,2.096-17.63,9.506-17.911,22.259
			c3.79,9.624,10.35,14.939,19.692,15.935c5.539,1.322,9.787,2.775,12.727,4.32c2.933,1.571,4.262,4.387,3.98,8.459
			c-1.42,6.114-6.062,9.322-13.931,9.609c-7.215-0.195-12.413-3.626-15.646-10.316c-2.468-1.52-4.937-1.271-7.385,0.707
			c-2.187,2.042-2.658,4.727-1.427,8.039c8.157,13.08,20.478,16.681,36.969,10.802c12.654-6.821,15.777-17.388,9.381-31.698
			c-5.309-5.552-10.992-8.97-17.067-10.279c-6.056-1.296-9.853-2.448-11.365-3.443c-5.983-3.561-6.213-7.41-0.714-11.587
			c7.686-3.234,14.174-2.213,19.483,3.051c2.651,0.288,4.622-0.419,5.938-2.121c1.303-1.729,1.636-3.823,1.034-6.337
			C230.109,436.696,222.188,434.234,211.288,435.74z"/>
		<path marker-end="none" marker-start="none" fill="#6295FF" d="M274.358,405.849c-3.234,0.079-5.146,1.204-5.774,3.378
			l0.157,25.886h-13.159c-2.422,0.746-3.699,2.632-3.83,5.683c-0.151,3.024,1.296,4.7,4.327,4.975l12.661-0.064l-0.157,55.371
			c0.864,4.176,3.68,6.625,8.458,7.357c4.792,0.747,8.878,0.394,12.229-1.034c1.676-1.179,3.116-2.593,4.347-4.269
			c1.519-2.592,1.427-4.988-0.274-7.162c-1.716-2.186-3.889-2.592-6.547-1.217c-1.14,1.427-2.58,2.016-4.308,1.78
			c-1.729-0.235-2.646-1.78-2.724-4.635l0.209-46.271l14.351-0.079c3.182,0,4.818-1.754,4.923-5.289
			c0.079-3.522-1.545-5.316-4.923-5.368h-14.351l-0.156-25.663C279.398,406.896,277.566,405.771,274.358,405.849z"/>
		<path marker-end="none" marker-start="none" fill="#6295FF" d="M346.437,433.109c-23.699,2.383-35.731,16.313-36.111,41.807
			c1.649,20.529,11.443,31.594,29.354,33.19c16.445,1.82,29.46-1.1,39.045-8.733c1.519-2.945,1.414-5.826-0.289-8.68
			c-1.715-2.829-4.621-3.693-8.746-2.554c-5.879,5.931-14.795,8.157-26.736,6.69c-11.705-1.1-17.832-6.311-18.356-15.646
			c15.136,1.375,27.758-0.223,37.866-4.753c10.134-4.569,14.245-12.308,12.333-23.214
			C372.91,440.284,363.457,434.261,346.437,433.109z M344.079,445.129c10.96-0.184,17.087,2.461,18.384,7.96
			c1.309,5.499-1.572,9.427-8.668,11.771c-7.07,2.344-17.1,3.143-30.036,2.37C325.094,455.001,331.851,447.643,344.079,445.129z"/>
		<path marker-end="none" marker-start="none" fill="#6295FF" d="M423.229,433.043c-8.394,1.375-14.914,4.491-19.562,9.389
			c-0.799-2.278-1.847-4.111-3.13-5.486c-2.553-2.227-5.237-2.004-8.065,0.642c-2.814,2.657-2.828,5.931-0.026,9.819
			c2.227,3.745,3.379,7.49,3.483,11.234l-0.079,46.717c0.38,2.448,2.383,3.719,6.01,3.771c3.627,0.026,5.696-1.126,6.22-3.496
			v-47.279c2.095-8.484,8.536-12.557,19.378-12.229c10.828,0.328,16.93,4.976,18.305,13.932l0.144,41.244
			c1.087,4.582,3.811,7.109,8.131,7.528c4.347,0.432,7.83-0.302,10.423-2.2c1.609-1.23,3.115-2.605,4.556-4.124
			c1.61-2.331,1.663-4.661,0.184-7.005c-1.506-2.344-3.457-2.789-5.879-1.322l-2.841,2.422c-1.703,0.668-2.697,0.196-2.985-1.427
			l0.209-35.535c-0.472-7.634-3.378-13.971-8.693-19.024C443.666,435.57,435.077,433.043,423.229,433.043z"/>
	</g>
</g>
</svg>
