<?xml version="1.0" encoding="utf-8"?>
<!-- Generator: Adobe Illustrator 16.0.0, SVG Export Plug-In . SVG Version: 6.00 Build 0)  -->
<!DOCTYPE svg PUBLIC "-//W3C//DTD SVG 1.1//EN" "http://www.w3.org/Graphics/SVG/1.1/DTD/svg11.dtd">
<svg version="1.1"
	 id="svg11531" xmlns:dc="http://purl.org/dc/elements/1.1/" xmlns:cc="http://creativecommons.org/ns#" xmlns:rdf="http://www.w3.org/1999/02/22-rdf-syntax-ns#" xmlns:svg="http://www.w3.org/2000/svg" xmlns:sodipodi="http://sodipodi.sourceforge.net/DTD/sodipodi-0.dtd" xmlns:inkscape="http://www.inkscape.org/namespaces/inkscape" inkscape:version="0.92.1 r15371" sodipodi:docname="next-button.svg"
	 xmlns="http://www.w3.org/2000/svg" xmlns:xlink="http://www.w3.org/1999/xlink" x="0px" y="0px" width="102.887px"
	 height="70.571px" viewBox="0 0 102.887 70.571" enable-background="new 0 0 102.887 70.571" xml:space="preserve">
<sodipodi:namedview  inkscape:cy="51.463196" inkscape:cx="97.409886" inkscape:zoom="5.792493" fit-margin-left="0" fit-margin-top="0" showgrid="true" id="namedview11533" guidetolerance="10" gridtolerance="10" objecttolerance="10" borderopacity="1" bordercolor="#666666" pagecolor="#ffffff" inkscape:current-layer="svg11531" inkscape:window-maximized="1" inkscape:window-y="-8" inkscape:window-x="-8" fit-margin-bottom="0" inkscape:window-height="1027" fit-margin-right="0" inkscape:window-width="1920" inkscape:pageshadow="2" inkscape:pageopacity="0">
	<inkscape:grid  type="xygrid" originy="1.0406882" originx="0.00019004601" id="grid12086"></inkscape:grid>
</sodipodi:namedview>
<path id="path11517" sodipodi:nodetypes="cccccccc" inkscape:connector-curvature="0" fill="#B0FFAD" stroke="#008000" stroke-width="1" d="
	M83.916,5.325v11.25H1.417v37.5h82.499v11.25l17.334-29.741L83.916,5.325z"/>
<g>
	<path d="M16.582,21.137c3.901-0.474,7.401,0.647,10.5,3.363c0.866,1.258,1.358,2.598,1.477,4.02
		c-0.191,5.132-3.773,7.675-10.746,7.629l-0.164,8.285c-0.183,0.611-0.549,0.9-1.101,0.868c-0.552-0.032-0.859-0.366-0.923-1.005
		v-22.34C15.825,21.566,16.145,21.292,16.582,21.137z M17.594,23.338v10.623c5.432,0.183,8.39-1.559,8.873-5.223
		C26.011,25.039,23.053,23.238,17.594,23.338z"/>
	<path d="M34.342,21.971v19.988c0.063,0.557,0.275,0.813,0.636,0.772c0.36-0.041,0.631-0.171,0.813-0.39
		c0.62-0.273,1.037-0.053,1.251,0.663c0.214,0.716,0.08,1.265-0.403,1.647c-0.365,0.311-0.839,0.52-1.422,0.629
		c-0.447,0.091-0.894,0.086-1.34-0.014c-1.14-0.118-1.773-0.779-1.9-1.982V21.903c0.2-0.492,0.608-0.731,1.224-0.718
		S34.196,21.461,34.342,21.971z"/>
	<path d="M46.387,30.981c2.47-0.137,4.315,0.483,5.537,1.859c0.31-1.431,1.066-1.786,2.27-1.066
		c0.118,0.374,0.096,0.848-0.068,1.422c-0.355,2.881-0.513,5.32-0.472,7.321s0.524,2.751,1.449,2.249
		c0.925-0.501,1.379-0.018,1.36,1.449c-1.796,1.604-3.29,1.444-4.484-0.479c-1.705,1.422-3.833,1.928-6.385,1.518
		c-2.352-0.228-3.947-1.549-4.785-3.965C39.961,35.301,41.821,31.865,46.387,30.981z M44.049,34.782
		c-1.148,1.367-1.509,3.182-1.08,5.441c0.556,1.933,2.265,2.83,5.127,2.693c2.005-0.474,3.122-1.335,3.35-2.584l0.137-4.02
		c-0.146-1.422-1.151-2.374-3.015-2.857C46.703,32.973,45.198,33.415,44.049,34.782z"/>
	<path d="M60.852,32.17l-0.15,6.125c0.109,2.635,1.499,3.811,4.17,3.527c2.516-0.82,3.773-2.561,3.773-5.223l0.068-4.949
		c0.082-0.592,0.465-0.87,1.148-0.834c0.684,0.037,1.039,0.314,1.066,0.834l-0.164,9.01c0.101,4.885-0.807,7.947-2.721,9.188
		c-1.914,1.239-4.566,1.649-7.957,1.23c-0.547-0.219-0.807-0.699-0.779-1.442s0.378-1.201,1.053-1.374
		c5.341,1.103,8.103-0.926,8.285-6.084c-0.856,1.066-1.8,1.695-2.83,1.887c-1.613,0.538-3.131,0.479-4.553-0.178
		s-2.311-2.128-2.666-4.416l0.137-7.438c0.128-0.802,0.545-1.155,1.251-1.06S60.98,31.469,60.852,32.17z"/>
</g>
</svg>
